<svg xmlns="http://www.w3.org/2000/svg" width="256" height="256" viewBox="0 0 256 256" version="1.1">
	<path d="M 87 72.976 C 86.175 73.448, 84.138 74.335, 82.472 74.947 C 78.390 76.446, 76.305 79.734, 78.222 81.650 C 79.418 82.847, 80.360 82.739, 84.772 80.906 C 89.783 78.824, 95.814 78.874, 94.508 80.987 C 94.193 81.497, 95.277 82.609, 96.918 83.457 C 101.421 85.786, 102.259 85.472, 101.470 81.750 C 100.727 78.240, 96.577 74.094, 93.750 74.036 C 92.787 74.016, 92 73.550, 92 73 C 92 71.797, 89.084 71.783, 87 72.976 M 104 96.631 L 104 106.262 107.643 105.670 C 112.583 104.869, 116.181 101.388, 115.637 97.937 C 114.711 92.057, 110.416 87.063, 106.250 87.022 C 104.071 87.001, 104 87.303, 104 96.631 M 71.427 99.436 C 70.618 102.658, 72.726 109.785, 75.086 111.806 C 77.687 114.033, 89 116.177, 89 114.443 C 89 113.018, 81.638 101.775, 79.595 100.079 C 78.824 99.439, 76.801 98.516, 75.098 98.028 C 72.347 97.239, 71.939 97.396, 71.427 99.436" stroke="none" fill="black" fill-rule="evenodd"/>
</svg>