<svg xmlns="http://www.w3.org/2000/svg" width="256" height="256" viewBox="0 0 256 256" version="1.1">
	<path d="M 88.984 30.519 C 88.092 31.594, 87.776 35.773, 87.903 44.806 C 88.073 56.955, 87.971 57.676, 85.791 59.663 C 84.531 60.812, 81.025 62.317, 78 63.008 C 74.975 63.699, 71.660 64.699, 70.633 65.230 C 67.551 66.824, 65.613 63.946, 65.967 58.298 C 66.493 49.879, 66.362 39.580, 65.695 36.920 C 65.020 34.232, 61.059 31.708, 59.297 32.843 C 57.041 34.299, 55.277 39.858, 55.079 46.139 C 54.678 58.902, 54.349 60.299, 51.062 63.236 C 48.688 65.357, 46.956 66, 43.619 66 C 35.929 66, 31.281 72.347, 33.909 79.260 C 35.298 82.914, 37.468 82.713, 42.132 78.500 C 44.899 76, 46.933 75.004, 49.253 75.015 C 55.674 75.046, 55.489 74.193, 55.609 104.317 C 55.677 121.502, 56.182 134.164, 56.963 138.304 L 58.208 144.901 63.354 145.937 C 76.954 148.674, 141.892 150.180, 148.750 147.917 C 152.306 146.744, 152.520 146.236, 150.929 142.743 C 149.188 138.923, 146.166 137.777, 135.548 136.912 C 130.021 136.462, 123.925 135.711, 122 135.243 C 119.871 134.726, 113.017 134.909, 104.500 135.711 C 96.800 136.436, 85.562 136.911, 79.527 136.765 C 69.593 136.525, 68.458 136.305, 67.527 134.442 C 66.390 132.163, 67.178 85.404, 68.430 80.871 C 69.038 78.668, 69.913 78.127, 73.828 77.530 C 76.398 77.138, 80.075 76.746, 82 76.659 L 85.500 76.500 86.127 93.238 C 86.849 112.522, 87.413 114.100, 94.174 115.759 C 103.381 118.020, 112.155 119.193, 115.355 118.593 C 119.913 117.738, 128.091 113.681, 130.383 111.138 C 131.926 109.425, 132.140 108.189, 131.568 104.275 C 130.199 94.914, 131.857 74.376, 134.105 72.851 C 135.467 71.927, 142.306 72.321, 146.694 73.576 C 149.968 74.513, 154 70.093, 154 65.569 C 154 60.634, 151.112 58.942, 142.997 59.126 C 135.235 59.301, 134.026 58.073, 134.108 50.093 C 134.179 43.153, 132.405 35.105, 130.288 32.766 C 128.457 30.742, 123.971 30.429, 122.200 32.200 C 121.540 32.860, 121 34.870, 121 36.666 C 121 38.462, 120.236 41.535, 119.301 43.495 C 117.703 46.846, 117.703 47.227, 119.301 49.933 C 121.964 54.441, 121.548 57.847, 118.250 58.537 C 116.737 58.853, 112.887 59.717, 109.693 60.458 C 104.171 61.739, 103.765 61.700, 101.425 59.653 C 99.077 57.599, 98.962 56.957, 98.908 45.630 C 98.855 34.500, 98.703 33.612, 96.471 31.380 C 93.744 28.653, 90.812 28.316, 88.984 30.519 M 101.085 73.750 C 99.392 75.137, 98.749 77.262, 97.982 84 C 97.450 88.675, 97.012 95.301, 97.008 98.724 C 97.001 104.511, 97.194 105.048, 99.750 106.354 C 101.717 107.359, 103.212 107.487, 105 106.802 C 106.375 106.276, 109.925 105.443, 112.888 104.952 C 120.296 103.725, 122.378 101.683, 121.492 96.514 C 121.113 94.306, 120.673 91.208, 120.514 89.628 C 120.354 88.049, 119.611 86.378, 118.862 85.916 C 117.313 84.959, 116.786 81, 118.208 81 C 118.722 81, 118.468 80.325, 117.643 79.500 C 116.818 78.675, 115.698 78, 115.155 78 C 114.611 78, 114.017 77.662, 113.833 77.250 C 113.544 76.599, 104.566 72, 103.584 72 C 103.385 72, 102.260 72.787, 101.085 73.750" stroke="none" fill="black" fill-rule="evenodd"/>
</svg>