<svg xmlns="http://www.w3.org/2000/svg" width="256" height="256" viewBox="0 0 256 256" version="1.1">
	<path d="M 84.381 32.541 C 82.918 34.774, 82.778 37.582, 83.229 55.640 C 83.512 66.947, 83.329 78.038, 82.824 80.288 C 81.702 85.281, 81.497 108.389, 82.471 120 C 83.156 128.165, 83.088 128.590, 80.743 130.783 C 78.554 132.829, 77.069 133.112, 66.401 133.519 C 38.580 134.579, 34 135.850, 34 142.510 C 34 147.738, 36.408 148.317, 52.936 147.063 C 60.396 146.497, 69.200 145.771, 72.500 145.449 C 75.800 145.126, 79.850 144.745, 81.500 144.601 C 83.150 144.458, 86.993 143.998, 90.040 143.581 C 94.053 143.031, 97.088 143.261, 101.052 144.413 C 104.062 145.288, 109.669 146.063, 113.512 146.134 C 127.772 146.401, 147.472 145.771, 149.547 144.982 C 155.103 142.870, 157.036 136.364, 152.750 134.204 C 151.512 133.581, 144.425 132.873, 137 132.630 C 129.575 132.388, 122.233 131.697, 120.685 131.095 C 117.203 129.741, 104.663 129.663, 100.116 130.967 C 97.946 131.589, 96.101 131.589, 94.939 130.967 C 93.275 130.077, 93.148 128.318, 93.317 108.605 C 93.533 83.357, 93.246 84.060, 104.313 81.618 C 113.003 79.700, 129.513 77, 132.554 77 C 135.195 77, 137.307 74.688, 137.761 71.298 C 138.208 67.957, 136.528 66.186, 132.150 65.385 C 130.142 65.017, 127.612 64.105, 126.527 63.358 C 122.717 60.735, 114.429 61.935, 106.300 66.287 C 99.407 69.977, 95.564 67.108, 95.392 58.146 C 95.135 44.733, 93.773 34.981, 91.808 32.483 C 89.304 29.300, 86.490 29.322, 84.381 32.541 M 114.250 128.689 C 115.213 128.941, 116.787 128.941, 117.750 128.689 C 118.713 128.438, 117.925 128.232, 116 128.232 C 114.075 128.232, 113.287 128.438, 114.250 128.689" stroke="none" fill="black" fill-rule="evenodd"/>
</svg>