<svg xmlns="http://www.w3.org/2000/svg" width="256" height="256" viewBox="0 0 256 256" version="1.1">
	<path d="M 74.026 31.974 C 72.169 33.831, 72.089 34.895, 72.676 49.808 C 73.019 58.531, 72.996 66.879, 72.625 68.359 C 71.495 72.862, 68.546 75, 63.467 75 C 60.640 75, 57.116 75.921, 54.104 77.447 C 51.448 78.793, 46.993 80.197, 44.205 80.567 C 37.611 81.442, 33.421 84.027, 32.719 87.653 C 31.669 93.074, 37.884 95.992, 43.285 92.615 C 44.503 91.853, 47.842 90.940, 50.705 90.586 C 53.568 90.233, 57.787 89.281, 60.081 88.472 C 62.375 87.662, 65.545 87, 67.126 87 C 70.924 87, 74.410 90.459, 73.517 93.342 C 73.150 94.529, 72.414 102.790, 71.881 111.701 L 70.913 127.902 73.413 131.862 C 76.508 136.765, 79.618 139.907, 86.303 144.886 C 94.400 150.915, 97.234 151.525, 116.206 151.318 C 137.200 151.089, 142.123 149.323, 140.442 142.626 C 139.613 139.321, 136.152 137.555, 130 137.295 C 126.975 137.167, 122.751 136.767, 120.614 136.406 C 118.129 135.986, 116.949 136.109, 117.343 136.746 C 119.064 139.530, 100.656 138.573, 90.712 135.361 C 82.789 132.801, 82.513 131.886, 82.416 107.812 C 82.334 87.168, 82.348 87.022, 84.715 84.798 C 86.608 83.020, 88.573 82.477, 94.276 82.154 C 98.224 81.931, 102.364 81.174, 103.477 80.472 C 105.986 78.889, 121.392 75, 125.153 75 C 126.678 75, 130.209 74.100, 133 73 C 135.791 71.900, 139.217 71, 140.614 71 C 143.826 71, 149.005 65.943, 148.985 62.827 C 148.951 57.644, 146.168 56.627, 137.843 58.755 C 134.354 59.646, 127.900 60.447, 123.500 60.535 C 107.021 60.864, 99.400 62.953, 92.133 69.135 C 90.321 70.676, 84.931 70.468, 83.793 68.813 C 83.297 68.091, 83.152 64.382, 83.469 60.571 C 85.466 36.628, 85.475 36.807, 82.150 33.250 C 78.646 29.501, 76.791 29.209, 74.026 31.974" stroke="none" fill="black" fill-rule="evenodd"/>
</svg>