<svg xmlns="http://www.w3.org/2000/svg" width="256" height="256" viewBox="0 0 256 256" version="1.1">
	<path d="M 88 33.472 C 83.875 34.227, 73.300 35.578, 64.500 36.474 C 42.730 38.692, 42.595 38.719, 39.622 41.475 C 36.415 44.447, 36.268 47.374, 39.223 49.443 C 41.955 51.357, 47.323 51.371, 61 49.500 C 72.251 47.961, 80.128 47.659, 83.750 48.630 C 85.357 49.061, 86 49.982, 86 51.851 C 86 55.091, 80.942 64.994, 79.285 64.998 C 77.768 65.001, 76 68.196, 76 70.934 C 76 72.070, 75.571 73, 75.048 73 C 74.524 73, 72.241 76.796, 69.974 81.435 C 66.520 88.506, 64.935 90.561, 60.177 94.138 C 57.055 96.485, 53.938 98.957, 53.250 99.631 C 52.563 100.305, 49.782 102.294, 47.071 104.051 C 40.974 108.002, 38.893 112.119, 41.523 115.026 C 43.659 117.386, 45.573 117.494, 50.298 115.520 C 56.560 112.904, 62.967 107.953, 71.627 99.038 C 78.983 91.467, 82.720 88.823, 83.108 90.917 C 85.216 102.312, 85.422 105.925, 84.706 119 C 83.520 140.644, 83.993 147.299, 86.941 150.437 C 89.789 153.469, 92.306 153.694, 94.854 151.146 C 96.562 149.438, 96.683 147.648, 96.395 128.321 C 96.224 116.787, 95.615 106.117, 95.042 104.610 C 93.270 99.950, 93.796 89.824, 95.944 87.250 C 98.121 84.640, 102.176 84.302, 104.061 86.573 C 104.779 87.438, 106.971 88.969, 108.933 89.975 C 110.895 90.980, 114.862 93.985, 117.748 96.652 C 127.713 105.858, 131.524 108.708, 138 111.797 C 144.205 114.757, 146.459 115.373, 150.152 115.115 C 152.099 114.979, 156.017 109.209, 155.348 107.463 C 155.093 106.799, 152.773 104.754, 150.192 102.918 C 147.611 101.082, 145.350 99.225, 145.167 98.790 C 144.983 98.356, 144.298 98, 143.645 98 C 142.991 98, 140.877 96.699, 138.948 95.109 C 137.019 93.518, 133.280 91.202, 130.639 89.960 C 127.401 88.438, 125.001 86.368, 123.267 83.602 C 116.636 73.021, 113.466 72.056, 106.449 78.483 C 102.672 81.942, 101.485 82.532, 99.500 81.937 C 98.950 81.772, 95.909 81.382, 92.743 81.069 L 86.986 80.500 90.437 76.631 C 93.704 72.969, 94.805 70.272, 98.525 56.834 C 99.387 53.717, 100.748 50.624, 101.549 49.959 C 104.220 47.742, 114.443 46.336, 129.545 46.107 C 146.223 45.855, 148.686 45.495, 149.880 43.135 C 151.190 40.544, 149.303 35.459, 146.568 34.213 C 142.556 32.385, 97.089 31.810, 88 33.472" stroke="none" fill="black" fill-rule="evenodd"/>
</svg>