<svg xmlns="http://www.w3.org/2000/svg" width="256" height="256" viewBox="0 0 256 256" version="1.1">
	<path d="M 61.212 32.275 C 60.037 33.525, 57.876 38.138, 56.410 42.525 C 54.944 46.911, 52.902 51.694, 51.872 53.154 C 50.842 54.614, 50 56.143, 50 56.551 C 50 58.193, 42.308 68.867, 36.975 74.625 C 31.540 80.493, 31.273 81.036, 30.606 87.539 C 29.754 95.860, 30.987 97.240, 35.458 92.969 C 41.452 87.242, 44.116 85, 44.923 85 C 45.852 85, 47.103 106.340, 47.444 128 C 47.693 143.796, 48.884 149.511, 52.143 150.545 C 56.535 151.939, 57.228 149.480, 58.129 129.320 C 59.508 98.477, 59.507 94.772, 58.120 88.500 C 57.390 85.200, 57.048 80.328, 57.359 77.674 C 57.931 72.789, 62.034 61.404, 64.675 57.374 C 67.220 53.488, 71 41.824, 71 37.853 C 71 30.958, 65.431 27.784, 61.212 32.275 M 108.689 38.750 C 107.234 41.292, 103.656 62.538, 104.015 66.500 C 104.164 68.150, 104.261 74.225, 104.229 80 C 104.070 109.124, 104.174 129.307, 104.492 130.958 C 105.130 134.273, 100.766 137.120, 94.121 137.723 C 88.155 138.264, 88.036 138.225, 86.945 135.386 C 86.206 133.462, 86.053 128.001, 86.486 119 C 87.737 92.998, 87.617 66, 86.250 66 C 85.563 66, 85 65.550, 85 65 C 85 64.450, 83.248 64, 81.107 64 C 76.443 64, 76.085 64.664, 75.182 75 C 73.689 92.103, 75.788 138.834, 78.263 143.573 C 81.141 149.082, 81.374 149.137, 103.702 149.557 C 115.141 149.773, 129.081 150.450, 134.679 151.063 C 142.907 151.964, 145.394 151.920, 147.656 150.836 C 151.407 149.038, 152.806 144.957, 150.929 141.290 C 149.792 139.069, 149.465 132.072, 149.327 107 C 149.131 71.331, 148.981 68.379, 147.206 65.250 C 145.513 62.266, 139.220 62.094, 136.762 64.965 C 135.793 66.097, 135.487 67.183, 136.039 67.524 C 137.251 68.273, 137.312 75, 136.107 75 C 134.290 75, 134.086 78.175, 135.652 82.089 C 136.852 85.087, 137.072 87.447, 136.511 91.309 C 134.850 102.760, 135.011 109.347, 137.107 115.736 C 138.233 119.166, 139.023 123.216, 138.864 124.737 C 138.704 126.257, 138.994 128.176, 139.509 129.001 C 141.032 131.443, 140.992 133.357, 139.367 135.841 C 137.903 138.078, 137.393 138.167, 127.951 137.841 C 114.639 137.382, 114.558 137.292, 114.307 122.715 C 114.200 116.547, 114.632 109.025, 115.266 106 C 116.323 100.956, 116.919 83.914, 116.925 58.500 C 116.928 47.025, 114.295 38, 110.943 38 C 109.939 38, 108.925 38.337, 108.689 38.750 M 26.750 97.662 C 27.438 97.940, 28.563 97.940, 29.250 97.662 C 29.938 97.385, 29.375 97.158, 28 97.158 C 26.625 97.158, 26.063 97.385, 26.750 97.662" stroke="none" fill="black" fill-rule="evenodd"/>
</svg>