<svg xmlns="http://www.w3.org/2000/svg" width="256" height="256" viewBox="0 0 256 256" version="1.1">
	<path d="M 64.406 31.225 C 63.093 31.816, 61.706 34.091, 60.684 37.333 C 59.788 40.175, 55.928 48.801, 52.106 56.500 C 45.640 69.528, 44.775 70.769, 39.649 74.374 C 36.619 76.505, 33.714 79.430, 33.193 80.874 C 31.437 85.747, 30.195 94.474, 31.099 95.592 C 31.585 96.193, 31.687 96.980, 31.325 97.342 C 30.963 97.704, 31.642 98, 32.833 98 C 34.025 98, 35 97.605, 35 97.121 C 35 96.638, 36.291 95.708, 37.868 95.055 C 40.099 94.130, 41.352 92.335, 43.515 86.962 C 45.840 81.186, 46.639 80.109, 48.397 80.373 C 50.004 80.613, 50.554 81.491, 50.730 84.094 C 50.856 85.967, 51.414 91.100, 51.969 95.500 C 52.525 99.900, 53.202 113.521, 53.474 125.770 C 53.938 146.631, 54.106 148.225, 56.138 150.973 C 57.878 153.326, 58.668 153.713, 60.130 152.930 C 61.133 152.393, 62.417 151.090, 62.982 150.034 C 64.336 147.503, 64.380 104.750, 63.047 86.416 C 61.881 70.370, 62.527 66.370, 68.314 53.823 C 70.172 49.795, 72.012 44.784, 72.403 42.688 C 73.802 35.186, 69.456 28.956, 64.406 31.225 M 114 42.122 C 100.525 42.569, 87.789 43.425, 85.697 44.024 C 81.407 45.251, 79.690 48.226, 81.271 51.695 C 82.668 54.763, 84.371 55.217, 93.500 54.957 C 105.515 54.615, 108.194 54.793, 109.400 56.013 C 110.055 56.675, 110.500 61.245, 110.500 67.312 C 110.500 72.916, 110.869 79.088, 111.320 81.029 C 112.015 84.022, 111.776 84.949, 109.746 87.140 C 107.467 89.599, 106.740 89.745, 94.427 90.214 C 76.623 90.891, 70.457 93.811, 72.955 100.381 C 74.119 103.444, 78.814 104.567, 86.341 103.582 C 100.198 101.769, 105.912 101.713, 108.434 103.365 C 110.885 104.971, 110.909 105.127, 110.477 116.597 C 110.234 123.027, 110.466 129.002, 110.996 129.993 C 111.661 131.235, 111.497 132.701, 110.461 134.777 C 108.669 138.369, 103.438 140, 93.711 140 C 84.306 140, 79 143.208, 79 148.894 C 79 152.798, 84.714 153.417, 104.108 151.616 C 118.610 150.269, 124.305 150.183, 138.379 151.102 C 157.541 152.352, 160 151.906, 160 147.179 C 160 144.807, 159.270 143.952, 155.750 142.204 C 153.412 141.044, 148.800 139.851, 145.500 139.555 C 142.200 139.258, 136.215 138.737, 132.200 138.396 C 122.434 137.567, 122.187 137.138, 121.465 119.706 C 120.904 106.147, 120.922 105.987, 123.354 103.555 C 125.781 101.128, 125.976 101.105, 139.156 101.652 C 147.684 102.006, 153.497 101.815, 155.262 101.123 C 158.551 99.834, 160.492 96.095, 159.638 92.693 C 158.944 89.927, 152.974 86.572, 150.224 87.402 C 147.194 88.315, 143.729 88.759, 133.846 89.500 C 124.212 90.222, 124.189 90.218, 122.491 87.627 C 120.591 84.727, 120.605 85.027, 121.579 68.708 C 122.435 54.369, 122.743 54.003, 133.973 53.994 C 146.072 53.985, 152 51.292, 152 45.803 C 152 43.407, 146.909 40.967, 142.300 41.154 C 140.210 41.238, 127.475 41.674, 114 42.122" stroke="none" fill="black" fill-rule="evenodd"/>
</svg>