<svg xmlns="http://www.w3.org/2000/svg" width="256" height="256" viewBox="0 0 256 256" version="1.1">
	<path d="M 132.073 45.635 C 130.480 47.660, 130 49.711, 130 54.495 C 130 59.322, 129.487 61.482, 127.717 64.110 C 126.461 65.975, 124.430 69.438, 123.204 71.806 C 121.977 74.174, 120.141 77.006, 119.122 78.100 C 117.944 79.363, 117.077 82.211, 116.741 85.919 C 116.450 89.126, 115.525 93.269, 114.686 95.125 C 113.846 96.981, 112.869 99.510, 112.514 100.744 C 112.159 101.978, 111.335 103.553, 110.683 104.244 C 110.030 104.935, 108.253 107.412, 106.734 109.750 C 105.215 112.087, 103.618 114, 103.187 114 C 102.755 114, 101.832 115.575, 101.136 117.500 C 100.440 119.425, 99.480 121, 99.003 121 C 98.525 121, 97.826 121.972, 97.450 123.159 C 95.775 128.434, 82.495 137, 75.992 137 C 73.356 137, 72.059 138.840, 72.014 142.645 C 71.997 144.076, 81.258 149, 83.967 149 C 87.072 149, 96.068 143.151, 100.500 138.250 C 102.700 135.817, 106.899 131.345, 109.830 128.313 C 114.851 123.120, 115.373 122.837, 118.830 123.438 C 120.849 123.789, 124.188 124.332, 126.250 124.643 C 128.313 124.955, 130.051 125.500, 130.114 125.855 C 130.177 126.210, 130.371 127.691, 130.546 129.146 C 130.721 130.601, 132.245 133.204, 133.932 134.931 C 135.619 136.657, 137.008 138.616, 137.018 139.284 C 137.027 139.953, 139.233 142.863, 141.920 145.750 C 145.962 150.095, 147.390 151, 150.202 151 C 154.479 151, 156 149.497, 156 145.269 C 156 142.599, 155.036 141.002, 151.141 137.219 C 148.468 134.624, 145.937 131.375, 145.517 130 C 143.859 124.581, 139.102 122.106, 131.447 122.681 L 126.393 123.060 124.197 117.761 C 121.540 111.351, 121.547 111.672, 123.887 104.380 C 126.115 97.441, 127.955 93.135, 133.025 83 C 135.089 78.875, 137.109 73.943, 137.514 72.040 C 137.920 70.137, 139.117 66.918, 140.176 64.888 C 141.243 62.839, 142.345 58.147, 142.651 54.348 C 143.138 48.288, 142.955 47.241, 141.062 45.250 C 138.190 42.230, 134.631 42.383, 132.073 45.635 M 52.279 47.764 C 50.701 48.025, 49.761 49.199, 49.034 51.816 C 47.759 56.409, 47.736 69.147, 48.994 74.594 C 50.176 79.709, 51.298 109.369, 50.455 113.206 C 49.736 116.481, 44.594 119.562, 38.120 120.597 C 33.555 121.327, 32.379 123.236, 33.950 127.368 C 35.137 130.489, 37.239 130.682, 47.244 128.589 C 51.878 127.619, 55.252 126.177, 58.031 123.975 C 62.332 120.569, 66.998 119.071, 73.500 119.010 C 79.368 118.955, 81.599 118.118, 83.036 115.433 C 84.119 113.408, 84.044 112.424, 82.552 109.115 C 80.502 104.570, 77.838 103.757, 69.786 105.221 C 67.041 105.720, 64.503 105.839, 64.147 105.485 C 63.791 105.131, 63.179 98.690, 62.786 91.171 C 62.394 83.652, 61.816 74.575, 61.501 71 C 60.946 64.680, 56.494 48.319, 55.163 47.704 C 54.798 47.535, 53.500 47.563, 52.279 47.764 M 81.073 56.635 C 77.886 60.686, 78.423 63.630, 83.113 67.823 C 85.375 69.845, 88.526 73.383, 90.115 75.684 C 96.225 84.530, 101.901 86.005, 105.847 79.772 C 107.820 76.656, 107.832 76.425, 106.156 73.778 C 105.198 72.264, 101.733 68.020, 98.457 64.347 C 95.181 60.674, 91.912 56.843, 91.193 55.834 C 89.153 52.970, 83.611 53.408, 81.073 56.635" stroke="none" fill="black" fill-rule="evenodd"/>
</svg>