<svg xmlns="http://www.w3.org/2000/svg" width="256" height="256" viewBox="0 0 256 256" version="1.1">
	<path d="M 84.008 32.492 C 80.347 36.388, 80.905 40.309, 85.833 45.330 C 88.125 47.665, 90 50.499, 90 51.627 C 90 55.294, 86.112 56, 65.903 56 C 46.229 56, 42.084 56.734, 40.649 60.472 C 39.618 63.160, 41.708 66.633, 45.415 68.393 C 48.673 69.939, 50.717 69.989, 68.026 68.947 C 83.221 68.032, 87.362 68.055, 88.576 69.063 C 89.834 70.107, 89.982 71.981, 89.431 79.913 C 88.323 95.856, 85.506 99.229, 75.137 97.029 C 71.864 96.335, 68.687 96.075, 68.077 96.452 C 67.467 96.830, 65.787 97.352, 64.344 97.614 C 56.262 99.080, 50.848 103.980, 52.958 107.921 C 54.596 110.983, 57.657 111.322, 71.436 109.967 C 82.703 108.859, 84.201 108.901, 86.475 110.391 C 88.852 111.949, 89 112.552, 89 120.657 C 89 125.393, 88.476 131.017, 87.836 133.154 C 86.782 136.671, 86.187 137.181, 81.556 138.527 C 75.715 140.225, 76.590 140.161, 56 140.392 C 47.475 140.487, 39.938 140.915, 39.250 141.342 C 38.562 141.769, 38.014 144.004, 38.031 146.309 C 38.057 149.692, 38.587 150.885, 40.781 152.500 C 44.771 155.435, 60.006 155.070, 80.329 151.554 C 95.340 148.957, 96.605 148.885, 104.829 150.149 C 109.645 150.890, 121.503 151.484, 131.500 151.484 C 155.700 151.485, 159.701 149.851, 153.013 142.696 C 150.045 139.521, 149.956 139.499, 139.263 139.269 C 133.343 139.142, 122.054 138.745, 114.176 138.388 C 97.482 137.631, 98.178 138.181, 98.476 126 C 98.577 121.875, 98.306 116.925, 97.874 115 C 96.573 109.202, 97.908 108.641, 115.812 107.465 C 129.986 106.535, 131.792 106.208, 133.785 104.215 C 138.428 99.572, 135.381 95.304, 126.255 93.666 C 118.282 92.236, 115.374 92.366, 108.773 94.451 C 103.346 96.164, 102.907 96.169, 100.423 94.542 C 98.146 93.049, 97.880 92.344, 98.399 89.162 C 98.727 87.148, 99.276 82.125, 99.619 78 C 100.472 67.711, 101.401 66.818, 110.960 67.102 C 115.107 67.225, 120.975 66.807, 124 66.173 C 127.025 65.539, 132.022 64.547, 135.105 63.969 C 138.188 63.391, 141.680 62.015, 142.865 60.911 C 144.945 58.973, 144.959 58.821, 143.260 56.541 C 140.255 52.508, 135.489 51.622, 120.930 52.391 C 106.762 53.139, 105 52.695, 105 48.378 C 105 47.070, 104.641 46, 104.202 46 C 103.763 46, 101.626 43.195, 99.452 39.767 C 97.278 36.339, 94.713 32.739, 93.750 31.767 C 91.217 29.209, 86.781 29.540, 84.008 32.492 M 116.250 192.689 C 117.213 192.941, 118.787 192.941, 119.750 192.689 C 120.713 192.438, 119.925 192.232, 118 192.232 C 116.075 192.232, 115.287 192.438, 116.250 192.689" stroke="none" fill="black" fill-rule="evenodd"/>
</svg>