<svg xmlns="http://www.w3.org/2000/svg" width="256" height="256" viewBox="0 0 256 256" version="1.1">
	<path d="M 79.801 35.533 C 79.551 35.783, 72.181 36.266, 63.423 36.606 C 46.940 37.247, 43.169 38.181, 40.606 42.259 C 39.764 43.598, 39.872 44.671, 41.061 46.759 C 42.612 49.483, 42.679 49.498, 52.021 49.177 C 59.907 48.906, 61.617 49.124, 62.646 50.530 C 63.542 51.756, 63.592 52.920, 62.832 54.853 C 62.260 56.309, 61.671 64.025, 61.524 72 C 61.339 81.982, 60.782 87.746, 59.736 90.500 C 58.900 92.700, 57.922 97.076, 57.562 100.224 C 56.240 111.803, 49.792 126.838, 43.044 134.074 C 40.836 136.442, 38.514 139.944, 37.882 141.856 C 36.886 144.876, 36.975 145.508, 38.559 146.667 C 39.562 147.400, 40.741 148, 41.180 148 C 41.619 148, 44.796 145.609, 48.239 142.687 C 55.120 136.848, 61.987 128.437, 61.995 125.839 C 61.998 124.926, 63.530 120.876, 65.399 116.839 C 67.269 112.803, 69.284 106.350, 69.877 102.500 C 71.513 91.878, 73.412 69.504, 73.459 60.301 C 73.481 55.792, 73.950 51.665, 74.500 51.129 C 76.182 49.491, 87.476 46.999, 93.144 47.016 C 99.808 47.035, 109.986 49.359, 111.066 51.107 C 111.566 51.915, 110.751 54.467, 108.938 57.770 C 106.889 61.502, 105.992 64.543, 105.973 67.812 C 105.951 71.793, 105.273 73.393, 101.473 78.424 C 98.362 82.545, 97 85.314, 97 87.519 C 97 90.883, 99.539 94, 102.280 94 C 103.674 94, 112.482 91.905, 115.500 90.856 C 116.050 90.665, 119.875 91.560, 124 92.844 C 128.125 94.129, 133.300 95.702, 135.500 96.340 L 139.500 97.500 139.737 104.500 C 139.885 108.878, 139.296 113.934, 138.166 118 C 137.123 121.748, 136.504 126.678, 136.703 129.644 C 137.358 139.392, 131.543 142.670, 112.254 143.426 C 107.718 143.604, 103.377 144.272, 102.607 144.911 C 100.607 146.571, 101.669 149.379, 105.318 152.077 C 107.901 153.986, 110.035 154.481, 117.154 154.822 C 133.366 155.597, 141.303 150.974, 145.429 138.353 C 146.482 135.134, 148.205 130.526, 149.258 128.114 C 150.312 125.701, 151.603 119.401, 152.128 114.114 C 152.652 108.826, 153.513 102.581, 154.041 100.236 C 154.568 97.890, 155 94.885, 155 93.558 C 155 90.508, 150.958 87.252, 146.149 86.427 C 144.142 86.083, 139.616 84.939, 136.090 83.884 C 132.565 82.829, 128.872 82.223, 127.884 82.537 C 124.241 83.693, 118.995 81.891, 117.481 78.963 C 116.225 76.535, 116.221 75.625, 117.447 72.151 C 118.225 69.945, 119.538 67.097, 120.365 65.820 C 121.192 64.544, 122.175 60.800, 122.550 57.500 C 122.925 54.200, 124.080 49.830, 125.116 47.790 C 126.152 45.749, 127 42.820, 127 41.280 C 127 36.202, 124.714 35.674, 101.378 35.361 C 89.760 35.206, 80.051 35.283, 79.801 35.533" stroke="none" fill="black" fill-rule="evenodd"/>
</svg>