<svg xmlns="http://www.w3.org/2000/svg" width="256" height="256" viewBox="0 0 256 256" version="1.1">
	<path d="M 98.672 80.637 C 98.171 81.035, 71.968 83.305, 54.695 84.446 C 36.361 85.658, 34.708 85.926, 32.445 88.052 C 28.996 91.291, 29.263 94.567, 33.138 96.571 C 35.726 97.910, 38.485 98.103, 48.888 97.674 C 77.535 96.494, 129.296 93.491, 131.538 92.879 C 132.067 92.734, 136.444 93.200, 141.265 93.913 C 149.136 95.079, 150.288 95.041, 152.568 93.547 C 156.006 91.295, 156.429 89.729, 154.570 86.135 C 153.436 83.942, 152.087 82.949, 149.748 82.588 C 143.455 81.617, 99.550 79.940, 98.672 80.637" stroke="none" fill="black" fill-rule="evenodd"/>
</svg>