<svg xmlns="http://www.w3.org/2000/svg" width="256" height="256" viewBox="0 0 256 256" version="1.1">
	<path d="M 87.193 22.704 C 85.188 23.674, 83.497 25.732, 82.153 28.832 C 80.701 32.185, 78.096 35.191, 72.909 39.500 C 68.937 42.800, 64.074 46.976, 62.102 48.781 C 60.131 50.586, 55.364 53.929, 51.509 56.211 C 42.567 61.503, 40 63.810, 40 66.552 C 40 71.461, 46.473 72.982, 55.254 70.136 C 64.248 67.220, 65.125 67.231, 69.164 70.311 C 72.476 72.837, 73.896 73.168, 84.655 73.914 C 91.170 74.365, 97.175 74.627, 98 74.496 C 98.825 74.364, 101.729 73.933, 104.453 73.537 C 107.243 73.131, 111.174 71.606, 113.453 70.045 C 122.024 64.175, 125.530 62.927, 131.482 63.627 C 134.517 63.983, 137 64.591, 137 64.977 C 137 66.024, 141.776 68.001, 144.297 67.996 C 147.245 67.991, 152.586 64.642, 154.071 61.868 C 155.118 59.910, 154.935 59.341, 152.619 57.348 C 151.161 56.094, 148.288 54.633, 146.234 54.102 C 144.180 53.570, 140.589 52.637, 138.254 52.030 C 135.919 51.422, 133.219 50.130, 132.254 49.158 C 126.812 43.674, 108.779 33.007, 104.941 33.002 C 104.083 33.001, 101.296 30.584, 98.746 27.631 C 93.457 21.505, 91.442 20.646, 87.193 22.704 M 89.204 42.227 C 83.795 44.996, 73 56.113, 73 58.913 C 73 61.351, 75.735 61.592, 85.500 60.017 C 88.800 59.485, 95.345 58.878, 100.045 58.669 C 108.662 58.286, 113.028 56.950, 112.967 54.715 C 112.923 53.107, 109.458 49, 108.146 49 C 107.578 49, 106.525 48.162, 105.807 47.138 C 104.037 44.616, 97.101 39.997, 95.110 40.014 C 94.225 40.022, 91.567 41.017, 89.204 42.227 M 86 82.986 C 84.625 83.434, 81.475 83.846, 79 83.900 C 72.937 84.035, 58.992 86.762, 57.335 88.137 C 55.458 89.695, 55.675 93.403, 57.750 95.234 C 58.712 96.083, 61.525 97.185, 64 97.682 C 68.234 98.534, 71.679 98.285, 82.845 96.319 C 88.954 95.244, 108.679 95.758, 111.103 97.055 C 113.963 98.586, 113.450 100.674, 108.313 108.427 C 101.231 119.115, 99.238 121, 95.016 121 C 92.122 121, 90.631 120.207, 87.500 117 C 82.785 112.172, 77.743 111.506, 74.248 115.250 C 70.517 119.248, 70.386 122.540, 73.821 125.975 C 75.485 127.639, 77.756 129, 78.868 129 C 79.980 129, 84.028 130.575, 87.864 132.500 C 91.700 134.425, 95.287 136, 95.836 136 C 96.385 136, 97.598 137.999, 98.531 140.442 C 100.261 144.973, 103.393 147.044, 108.399 146.968 C 110.721 146.933, 114 144.808, 114 143.339 C 114 140.981, 111.329 137.015, 109.736 137.008 C 108.298 137.001, 108.077 136.403, 108.540 133.774 C 108.852 132, 109.907 129.804, 110.883 128.895 C 111.859 127.985, 113.239 125.837, 113.950 124.121 C 114.661 122.404, 115.638 121, 116.121 121 C 116.605 121, 117 120.187, 117 119.194 C 117 118.201, 118.012 115.993, 119.250 114.288 C 120.487 112.582, 122.175 110.161, 123 108.907 C 125.743 104.738, 132.278 98.782, 135.661 97.368 C 139.433 95.792, 140.011 93.225, 137.171 90.655 C 136.165 89.745, 135.072 89, 134.741 89 C 134.410 89, 131.248 87.662, 127.714 86.026 C 121.593 83.193, 120.510 83.031, 104.894 82.611 C 95.877 82.369, 87.375 82.537, 86 82.986" stroke="none" fill="black" fill-rule="evenodd"/>
</svg>