<svg xmlns="http://www.w3.org/2000/svg" width="256" height="256" viewBox="0 0 256 256" version="1.1">
	<path d="M 98.320 28.250 C 97.204 29.488, 95.242 32.413, 93.961 34.750 C 92.680 37.087, 91.265 39, 90.816 39 C 90.367 39, 90 39.635, 90 40.411 C 90 41.187, 88.537 43.039, 86.750 44.526 C 82.095 48.400, 74.055 58.220, 74.025 60.070 C 73.996 61.890, 77.235 64.869, 81.514 66.957 C 88.467 70.349, 89.492 73.041, 86.005 78.759 C 83.625 82.663, 78.500 85.991, 74.861 85.996 C 68.272 86.006, 64.845 95.111, 69.974 98.980 C 71.280 99.966, 73.058 100.633, 73.924 100.462 C 74.791 100.292, 75.834 100.119, 76.242 100.077 C 76.651 100.034, 78.174 98.665, 79.629 97.033 C 82.072 94.290, 84.466 93.143, 91 91.583 C 96.183 90.345, 97.236 88.569, 98.580 78.796 C 99.593 71.426, 100.298 69.177, 102.037 67.769 C 106.966 63.778, 115 67.290, 115 73.435 C 115 75.585, 116.040 78.033, 118 80.500 C 119.650 82.576, 121 84.657, 121 85.125 C 121 86.647, 128.402 90.664, 132.374 91.297 C 134.505 91.637, 137.078 92.666, 138.092 93.584 C 140.747 95.986, 150.330 95.114, 153.239 92.205 C 155.059 90.385, 155.194 89.722, 154.192 87.522 C 152.554 83.927, 148.796 82.800, 141.004 83.568 C 133.356 84.322, 131.760 83.397, 130.043 77.216 C 128.667 72.262, 128.732 70.578, 130.456 66.452 C 132.702 61.075, 135.360 60.681, 142.693 64.641 C 146.115 66.488, 149.405 68, 150.005 68 C 151.703 68, 156 62.914, 156 60.904 C 156 59.911, 153.867 57.390, 151.261 55.300 C 145.792 50.915, 137.015 41.897, 137.006 40.654 C 137.003 40.189, 136.069 38.502, 134.932 36.904 C 133.489 34.878, 132.014 34, 130.054 34 C 127.471 34, 124.417 36.083, 125.465 37.131 C 125.711 37.377, 126.098 40.357, 126.325 43.753 C 126.899 52.323, 126.122 52.872, 112.913 53.222 C 104.280 53.451, 101.947 53.190, 99.743 51.748 C 98.270 50.784, 97.237 49.434, 97.449 48.748 C 97.660 48.062, 98.103 46.268, 98.432 44.762 C 98.845 42.879, 100.265 41.395, 102.983 40.009 C 109.140 36.867, 110.827 31.827, 107 28 C 104.363 25.363, 100.831 25.465, 98.320 28.250 M 59.120 31.880 C 58.087 32.913, 56.461 36.176, 55.509 39.130 C 54.556 42.083, 53.013 45.850, 52.080 47.500 C 51.147 49.150, 48.727 54.784, 46.703 60.020 C 43.547 68.186, 42.171 70.383, 37.034 75.466 C 32.011 80.437, 30.726 82.450, 29.071 87.947 C 25.963 98.267, 25.980 98.540, 29.696 98.254 C 31.903 98.083, 34.355 96.625, 37.624 93.536 C 41.901 89.496, 42.472 89.231, 43.551 90.783 C 45.682 93.849, 46.783 101.866, 46.921 115.317 C 47.041 127.092, 48.023 139.690, 49.515 148.597 C 50.172 152.522, 53.829 154.509, 56.698 152.499 C 58.532 151.214, 58.616 149.873, 58.365 125.823 C 58.219 111.895, 57.567 95.658, 56.915 89.740 C 56.264 83.823, 56.002 77.005, 56.333 74.590 C 56.867 70.694, 60.694 59.504, 63.114 54.764 C 63.601 53.809, 64 52.546, 64 51.959 C 64 51.371, 64.956 48.792, 66.124 46.227 C 69.355 39.135, 69.669 34.669, 67.116 32.116 C 64.499 29.499, 61.587 29.413, 59.120 31.880 M 100.714 93.418 C 99.732 94.163, 98.745 95.725, 98.521 96.890 C 97.682 101.250, 94.763 103.099, 85.811 104.944 C 82.682 105.589, 78.987 107.009, 77.601 108.099 C 75.446 109.794, 75.224 110.459, 76.070 112.685 C 76.746 114.461, 76.704 116.366, 75.940 118.682 C 75.024 121.458, 75.111 122.521, 76.423 124.522 C 78.116 127.106, 79.565 127.612, 87.312 128.325 C 92.356 128.790, 97 131.937, 97 134.892 C 97 136.918, 92.307 140.903, 89.062 141.633 C 87.653 141.949, 83.800 143.226, 80.500 144.468 C 77.200 145.711, 73.681 147.012, 72.680 147.360 C 69.348 148.516, 71.010 152.334, 75.500 153.837 C 83.826 156.623, 97.284 153.781, 104.647 147.680 C 106.216 146.381, 108.469 145.075, 109.653 144.778 C 113.083 143.918, 121.923 145.927, 125.874 148.464 C 130.576 151.483, 143.928 154.357, 150.372 153.738 C 156.575 153.142, 159.536 150.271, 157.824 146.514 C 156.397 143.380, 150.878 141.353, 134.750 138.038 C 129.086 136.874, 129 136.805, 129 133.397 C 129 131.352, 129.573 129.717, 130.402 129.399 C 131.173 129.104, 132.081 127.384, 132.419 125.578 C 133.043 122.257, 138.116 116.180, 143.338 112.500 C 145.675 110.853, 146.057 110.028, 145.500 107.831 C 144.945 105.640, 143.360 104.543, 136.662 101.711 C 132.173 99.813, 125.783 97.748, 122.463 97.122 C 119.142 96.496, 113.974 95.087, 110.977 93.992 C 104.615 91.666, 103.133 91.583, 100.714 93.418 M 103.500 113.178 C 99.650 114.951, 96.405 116.444, 96.290 116.495 C 96.174 116.546, 96.330 117.545, 96.636 118.715 C 97.442 121.800, 110.070 124.597, 115.992 123.002 C 121.193 121.602, 124 118.820, 124 115.067 C 124 111.822, 123.368 111.486, 115.500 110.549 C 111.237 110.042, 109.469 110.429, 103.500 113.178" stroke="none" fill="black" fill-rule="evenodd"/>
</svg>