<svg xmlns="http://www.w3.org/2000/svg" width="256" height="256" viewBox="0 0 256 256" version="1.1">
	<path d="M 61.299 29.250 C 60.172 30.488, 58.338 33.975, 57.224 37 C 47.172 64.289, 46.163 66.207, 38.994 71.638 C 31.980 76.951, 30.514 79.882, 32.685 84.250 C 34.160 87.218, 38.079 88.028, 39.945 85.750 C 40.509 85.063, 42.123 83.060, 43.532 81.300 C 47.474 76.376, 49.390 77.861, 50.581 86.763 C 50.930 89.368, 51.431 91.859, 51.696 92.298 C 51.961 92.737, 52.336 99.487, 52.530 107.298 C 53.220 135.087, 54.021 144.217, 56.166 148.750 C 58.417 153.504, 60.242 154.087, 62.429 150.749 C 64.533 147.537, 64.676 100.233, 62.632 83.700 C 60.937 69.996, 61.260 60.159, 63.552 55.671 C 66.880 49.156, 71 37.442, 71 34.495 C 71 27.807, 65.381 24.769, 61.299 29.250 M 83.012 41.289 C 79.714 42.130, 77.320 45.786, 78.335 48.431 C 78.664 49.287, 80.401 50.881, 82.195 51.973 C 84.992 53.673, 86.674 53.884, 93.979 53.448 C 117.656 52.035, 133.935 51.824, 137.162 52.888 L 140.558 54.009 140.171 61.115 C 139.957 65.023, 140.302 70.860, 140.937 74.086 C 141.878 78.866, 141.806 81.329, 140.552 87.401 C 139.351 93.217, 139.104 99.631, 139.428 116.638 C 139.657 128.620, 139.456 139.148, 138.982 140.033 C 138.509 140.918, 136.182 142.435, 133.811 143.404 C 125.343 146.866, 124.483 147.501, 124.782 150.068 C 125.276 154.316, 127.470 155.526, 134.154 155.237 C 138.849 155.034, 141.176 154.344, 144.367 152.209 C 150.574 148.055, 151.778 142.182, 151.902 115.450 C 151.969 100.991, 151.646 94.046, 150.868 93.268 C 149.683 92.083, 149.493 82.629, 150.618 80.809 C 150.976 80.230, 151.624 74.576, 152.059 68.244 C 152.824 57.099, 152.947 56.641, 155.924 53.922 C 160.996 49.290, 159.797 43.078, 153.425 40.975 C 149.371 39.637, 88.418 39.909, 83.012 41.289 M 86.149 73.644 C 84.307 74.581, 82.387 76.282, 81.884 77.424 C 79.885 81.959, 77.309 96.604, 78.124 98.805 C 78.580 100.039, 79.620 105.200, 80.435 110.274 C 82.454 122.844, 84.766 124.758, 94 121.500 C 96.338 120.675, 99.688 120, 101.444 120 C 105.802 120, 115.089 117.171, 117.356 115.153 C 122.769 110.334, 125.440 98.382, 122.615 91.621 C 121.727 89.495, 121 86.273, 121 84.460 C 121 79.713, 120.156 78.135, 116.629 76.285 C 109.505 72.549, 91.392 70.979, 86.149 73.644 M 93.159 85.525 C 91.543 87.580, 91.169 89.607, 91.150 96.420 C 91.121 106.891, 91.943 108.165, 99.111 108.759 C 103.441 109.118, 105.004 108.817, 106.940 107.250 C 109.158 105.453, 109.341 104.654, 109.158 97.556 C 108.915 88.140, 107.287 84.507, 102.918 83.634 C 97.349 82.520, 95.194 82.937, 93.159 85.525" stroke="none" fill="black" fill-rule="evenodd"/>
</svg>