<svg xmlns="http://www.w3.org/2000/svg" width="256" height="256" viewBox="0 0 256 256" version="1.1">
	<path d="M 105 27 C 103.900 28.100, 103 30.147, 103 31.548 C 103 32.950, 103.900 35.959, 105 38.236 C 107.348 43.095, 107.482 44.958, 105.664 47.444 C 104.540 48.983, 103.043 49.243, 96.176 49.097 C 82.846 48.812, 67 53.983, 67 58.618 C 67 59.316, 68 60.587, 69.223 61.443 C 71.839 63.276, 88.622 63.561, 96 61.899 C 106.905 59.442, 112.715 58.973, 132 58.993 C 149.587 59.011, 152.997 58.764, 156 57.257 C 160.405 55.046, 160.906 52.199, 157.458 48.963 C 154.889 46.553, 154.482 46.500, 138.466 46.500 C 120.172 46.500, 119.824 46.370, 118.375 39 C 116.103 27.451, 110.013 21.987, 105 27 M 60.482 30 C 59.372 30.420, 57.900 31.829, 57.211 33.132 C 55.664 36.054, 51.516 47.465, 49.080 55.500 C 45.953 65.814, 44.487 68.316, 37.740 74.854 C 32.879 79.566, 31.008 82.142, 30.506 84.820 C 30.133 86.806, 29.192 89.662, 28.414 91.166 C 26.019 95.798, 26.542 98, 30.037 98 C 32.323 98, 34.159 96.885, 37.457 93.491 C 39.867 91.011, 41.988 88.577, 42.170 88.082 C 42.351 87.588, 43.346 87.029, 44.380 86.842 C 45.722 86.598, 46.866 87.644, 48.380 90.500 C 50.419 94.347, 50.487 95.552, 50.154 122.052 C 49.869 144.728, 50.070 150.233, 51.292 153.156 C 53.108 157.503, 56.345 158.655, 59.074 155.926 C 60.790 154.210, 61.019 152.334, 61.173 138.750 C 61.547 105.894, 61.303 93.320, 60.208 89 C 57.617 78.780, 57.371 72.775, 59.307 67 C 60.321 63.975, 61.747 60.572, 62.476 59.438 C 63.281 58.184, 63.650 55.470, 63.418 52.519 C 63.207 49.848, 63.413 47.176, 63.876 46.581 C 65.953 43.909, 67.887 35.832, 67.004 33.511 C 65.859 30.498, 63.096 29.011, 60.482 30 M 110.739 68 C 107.887 69.528, 105.097 70, 98.905 70 C 90.432 70, 85.588 71.465, 81.250 75.339 C 74.634 81.248, 83.170 87.025, 94.051 84.002 C 96.004 83.460, 103.654 82.753, 111.051 82.431 C 134.669 81.404, 136.794 81.181, 139.435 79.451 C 142.474 77.460, 142.850 73.525, 140.141 72.075 C 135.635 69.664, 122.770 66, 118.809 66 C 116.381 66, 112.827 66.881, 110.739 68 M 115 91.017 C 113.075 91.466, 108.350 92.097, 104.500 92.420 C 89.521 93.676, 88.173 94.039, 84.989 97.665 C 81.583 101.545, 81.413 102.268, 83.497 103.998 C 85.580 105.726, 115.947 105.359, 126.784 103.474 C 136.011 101.870, 138.473 100.854, 139.986 98.026 C 140.820 96.467, 140.520 95.635, 138.416 93.685 C 134.924 90.447, 123.184 89.109, 115 91.017 M 111.500 111.495 C 109.850 112.228, 105.350 113.117, 101.500 113.472 C 83.816 115.100, 80.831 116.254, 77.841 122.614 C 75.896 126.753, 75.873 127.281, 77.314 134.721 C 78.143 138.999, 79.120 144.300, 79.485 146.500 C 81.003 155.658, 84.242 156.825, 109.924 157.469 C 133.853 158.069, 150.713 154.517, 153.044 148.383 C 153.527 147.113, 154.223 142.099, 154.589 137.241 C 155.174 129.498, 154.973 127.632, 152.963 122.119 C 149.625 112.963, 149.174 112.751, 129.500 111.055 C 115.142 109.817, 115.285 109.814, 111.500 111.495 M 120.445 123.197 C 117.175 123.580, 112.250 124.375, 109.500 124.962 C 106.750 125.550, 102.134 126.200, 99.241 126.406 C 96.349 126.613, 92.925 127.474, 91.633 128.321 C 87.667 130.920, 87.371 139.633, 91.146 142.673 C 92.796 144.001, 105.770 145.701, 120.196 146.479 C 132.033 147.118, 138.816 145.966, 141.648 142.836 C 143.914 140.333, 143.739 133.748, 141.311 130.149 C 140.328 128.692, 139.058 126.600, 138.487 125.500 C 137.239 123.092, 129.630 122.120, 120.445 123.197" stroke="none" fill="black" fill-rule="evenodd"/>
</svg>