<svg xmlns="http://www.w3.org/2000/svg" width="256" height="256" viewBox="0 0 256 256" version="1.1">
	<path d="M 104.344 29.750 C 102.057 32.207, 101.843 33.080, 102.339 37.936 C 103.122 45.607, 99.201 52.246, 93.066 53.636 C 85.240 55.409, 80.067 57.268, 78.672 58.810 C 77.294 60.333, 77.216 62.469, 78.045 76.024 C 78.565 84.536, 79.418 95.859, 79.940 101.188 C 80.462 106.516, 80.902 117.316, 80.918 125.188 C 80.933 133.059, 81.368 141.220, 81.884 143.323 C 83.510 149.948, 84.765 150.624, 96.790 151.355 C 102.702 151.714, 109.040 152.438, 110.873 152.964 C 112.769 153.507, 120.523 153.662, 128.853 153.323 C 143.853 152.712, 148.160 151.664, 149.746 148.240 C 150.422 146.781, 150.559 130.566, 150.083 108.500 C 149.939 101.867, 151.447 86.703, 152.404 85.155 C 153.790 82.912, 151.901 62.093, 150.118 59.960 C 148.199 57.666, 137.468 55.144, 124.722 53.992 C 119.894 53.555, 115.281 52.649, 114.472 51.977 C 112.130 50.033, 112.661 43.849, 115.500 40 C 118.728 35.624, 118.661 32.694, 115.260 29.540 C 111.612 26.158, 107.617 26.235, 104.344 29.750 M 64.137 32.838 C 63.106 34.302, 61.950 36.625, 61.568 38 C 60.304 42.555, 52.440 59.707, 50.566 62 C 49.135 63.750, 46 71.942, 46 73.931 C 46 74.682, 42.175 79.264, 37.500 84.113 C 32.750 89.041, 29 93.791, 29 94.882 C 29 95.955, 28.489 97.004, 27.863 97.212 C 27.238 97.421, 27.992 98.420, 29.538 99.433 C 31.999 101.046, 32.788 101.117, 35.860 100.006 C 37.791 99.308, 40.948 97.205, 42.875 95.333 C 47.030 91.297, 47.317 91.570, 50.032 102.126 C 51.329 107.167, 51.804 113.230, 51.873 125.611 C 51.985 145.801, 52.407 148.441, 55.919 150.942 C 61.815 155.141, 63.189 150.393, 63.191 125.810 C 63.192 114.981, 62.939 105.711, 62.629 105.209 C 62.320 104.708, 61.809 97.087, 61.494 88.274 L 60.922 72.249 63.947 64.633 C 65.611 60.444, 67.426 56.225, 67.979 55.258 C 69.267 53.009, 71.863 45.601, 73.090 40.680 C 74.300 35.823, 72.566 31.911, 68.755 30.903 C 66.480 30.300, 65.691 30.630, 64.137 32.838 M 108.501 65.835 C 108.315 66.019, 104.966 66.188, 101.058 66.210 C 95.444 66.241, 93.404 66.681, 91.341 68.304 C 88.731 70.356, 88.729 70.370, 89.412 80.927 C 90.144 92.250, 91.357 95.425, 95.565 97.025 C 96.918 97.539, 106.839 98.171, 117.611 98.428 L 137.196 98.895 139.719 96.372 C 141.943 94.148, 142.152 93.352, 141.477 89.674 C 141.055 87.378, 140.565 81.679, 140.387 77.010 C 140.008 67.055, 139.217 66.060, 131.559 65.884 C 117.081 65.553, 108.804 65.535, 108.501 65.835 M 93.306 111.154 C 91.536 113.323, 90.012 120.089, 90.006 125.800 C 89.998 133.007, 92.046 136.676, 96.757 137.896 C 98.816 138.429, 102.343 139.344, 104.596 139.930 C 106.848 140.515, 114.832 141.050, 122.337 141.118 C 137.971 141.260, 140.457 140.413, 141.552 134.572 C 141.908 132.679, 141.892 130.635, 141.518 130.029 C 141.144 129.424, 140.454 126.211, 139.984 122.888 C 138.476 112.216, 138.859 112.420, 118.829 111.618 C 109.298 111.237, 99.903 110.673, 97.952 110.367 C 95.607 109.998, 94.031 110.265, 93.306 111.154" stroke="none" fill="black" fill-rule="evenodd"/>
</svg>