<svg xmlns="http://www.w3.org/2000/svg" width="256" height="256" viewBox="0 0 256 256" version="1.1">
	<path d="M 105.544 28.365 C 102.457 31.452, 102.411 32.679, 105.100 40.053 C 106.952 45.132, 107.039 46.147, 105.840 48.656 C 104.509 51.441, 104.262 51.514, 93.990 52.172 C 88.221 52.542, 79.959 53.244, 75.630 53.731 C 69.367 54.437, 67.479 54.336, 66.380 53.237 C 64.342 51.199, 64.701 48.001, 67.474 43.500 C 71.552 36.879, 70.477 30.825, 64.990 29.507 C 61.323 28.626, 58.586 31.715, 55.962 39.696 C 54.732 43.438, 52.700 48.300, 51.448 50.500 C 50.195 52.700, 47.745 57.928, 46.002 62.118 C 43.555 68.002, 41.499 71.035, 36.966 75.451 C 31.896 80.389, 31.015 81.802, 30.494 85.834 C 30.162 88.400, 29.682 91.513, 29.426 92.750 C 28.745 96.050, 31.538 95.630, 37.500 91.536 C 42.037 88.421, 42.617 88.256, 43.759 89.755 C 46.272 93.052, 47.154 98.801, 47.558 114.500 C 48.039 133.260, 48.747 145.484, 49.596 149.730 C 50.362 153.562, 53.952 155.487, 56.650 153.513 C 58.333 152.282, 58.500 150.510, 58.500 133.830 C 58.500 112.070, 58.924 110.644, 65.107 111.633 C 67.859 112.073, 70.853 111.695, 74.539 110.442 C 77.509 109.432, 80.218 108.884, 80.557 109.224 C 81.744 110.410, 82.969 117.574, 83.627 127.173 C 84.289 136.824, 84.283 136.857, 81.145 141.594 C 77.468 147.146, 77.339 148.092, 79.940 150.446 C 81.495 151.853, 82.933 152.079, 87.190 151.585 C 90.110 151.246, 96.399 150.707, 101.165 150.388 C 110.413 149.768, 114 147.972, 114 143.961 C 114 139.895, 110.542 138, 103.121 138 C 96.536 138, 96.198 137.883, 95.202 135.250 C 94.630 133.738, 93.886 127.337, 93.550 121.027 C 93.150 113.535, 92.428 108.776, 91.469 107.312 C 85.914 98.834, 95.980 82.502, 104.844 85.612 C 106.629 86.238, 108.401 88.325, 110.250 91.978 C 111.763 94.967, 113 97.847, 113 98.378 C 113 98.908, 113.695 100.110, 114.544 101.049 C 115.393 101.987, 116.302 104.047, 116.564 105.627 C 118.577 117.758, 120.123 120.202, 135.210 135.095 C 148.765 148.475, 151.058 149.803, 154.345 146.171 C 157.145 143.077, 156.403 138.839, 152.563 136 C 150.703 134.625, 147.476 131.151, 145.392 128.279 C 142.911 124.860, 140.291 122.533, 137.801 121.537 C 135.711 120.701, 134 119.518, 134 118.909 C 134 118.300, 133.283 116.292, 132.408 114.446 C 129.439 108.190, 133.765 101.587, 142.214 99.479 C 143.707 99.106, 145.200 97.946, 145.532 96.901 C 145.863 95.855, 146.456 95, 146.849 95 C 147.242 95, 147.657 93.875, 147.771 92.500 C 147.884 91.125, 147.506 90, 146.930 90 C 146.353 90, 146.131 89.597, 146.435 89.105 C 147.594 87.230, 144.153 87.279, 138.931 89.213 C 127.475 93.455, 126.594 93.559, 123.119 91.085 C 121.379 89.845, 119.056 87.069, 117.957 84.916 C 116.858 82.762, 115.581 81, 115.118 81 C 114.099 81, 112.740 68.841, 113.529 66.786 C 114.746 63.615, 120.454 62.214, 135.069 61.499 C 151.549 60.694, 154.290 59.748, 153.107 55.279 C 152.050 51.289, 148.114 49.623, 142.998 51 C 140.774 51.599, 138.509 51.815, 137.966 51.479 C 137.423 51.144, 133.159 50.883, 128.490 50.900 C 120.480 50.930, 119.907 50.788, 118.332 48.384 C 117.258 46.744, 116.708 43.994, 116.789 40.668 C 116.912 35.618, 113.888 27, 111.993 27 C 111.537 27, 110.472 26.735, 109.626 26.410 C 108.719 26.062, 107.045 26.864, 105.544 28.365 M 62.610 61.533 C 58.222 65.921, 56.788 70.119, 55.898 81.189 C 54.575 97.651, 56.709 103.606, 62.999 101 C 64.650 100.317, 66 99.411, 66 98.987 C 66 98.564, 67.688 97.533, 69.750 96.697 C 75.337 94.433, 81.537 88.605, 84.059 83.247 C 85.287 80.636, 87.512 77.150, 89.002 75.500 C 92.551 71.569, 93.158 69.597, 91.510 67.347 C 90.376 65.800, 88.644 65.478, 80.828 65.361 C 68.742 65.182, 69.691 65.369, 66.658 62.559 C 64.388 60.455, 63.829 60.313, 62.610 61.533" stroke="none" fill="black" fill-rule="evenodd"/>
</svg>