<svg xmlns="http://www.w3.org/2000/svg" width="256" height="256" viewBox="0 0 256 256" version="1.1">
	<path d="M 98.557 28.223 C 97.701 29.445, 97 31.810, 97 33.479 C 97 37.250, 95.514 42.567, 93.675 45.373 C 92.909 46.543, 92.216 47.836, 92.137 48.247 C 91.984 49.035, 90.168 51.274, 83.265 59.182 C 80.936 61.850, 78.724 65.252, 78.350 66.742 C 77.976 68.232, 76.394 72.265, 74.835 75.704 C 71.491 83.078, 71.336 85.089, 73.928 87.435 C 77.457 90.629, 78.778 89.453, 93.292 70.203 C 98.341 63.507, 98.951 63, 101.967 63 C 106.636 63, 108.257 66.414, 108.268 76.272 C 108.282 89.784, 108.260 129.195, 108.235 133.500 C 108.223 135.700, 107.885 139.838, 107.484 142.696 C 106.543 149.407, 107.386 152.629, 110.271 153.353 C 117.052 155.055, 119.192 151.344, 118.415 139.230 C 117.930 131.671, 118.118 130.085, 119.818 127.407 L 121.780 124.314 136.483 123.619 C 152.402 122.867, 155.487 121.891, 156.655 117.239 C 157.137 115.317, 156.730 114.305, 154.925 112.944 C 151.761 110.557, 148.466 110, 137.497 110 C 130.493 110, 127.942 110.364, 127 111.500 C 125.397 113.431, 121.382 113.439, 120.643 111.512 C 120.329 110.694, 119.789 107.881, 119.442 105.262 C 118.922 101.326, 119.179 100.035, 120.922 97.822 C 123.604 94.417, 127.162 93.302, 139.143 92.110 C 144.447 91.582, 149.751 90.554, 150.931 89.825 C 153.246 88.394, 154.556 84.892, 153.655 82.543 C 152.900 80.576, 147.062 79.103, 144.185 80.154 C 141.043 81.302, 135.925 81.219, 132.317 79.961 C 130.371 79.282, 128.463 79.254, 126.820 79.878 C 122.803 81.406, 119.668 79.237, 118.602 74.193 C 116.635 64.887, 121.951 61.682, 142.021 60.073 C 153.264 59.171, 155.718 58.674, 157.584 56.921 C 160.906 53.800, 160.025 51.157, 154.794 48.547 C 152.174 47.240, 149.291 47.072, 138.064 47.573 C 130.604 47.906, 121.268 48.811, 117.318 49.584 C 113.368 50.357, 109.481 50.738, 108.680 50.431 C 106.325 49.527, 105.799 44.094, 107.607 39.358 C 109.553 34.263, 108.814 28.506, 106.023 27.012 C 102.987 25.387, 100.230 25.834, 98.557 28.223 M 62.293 30.250 C 60.984 31.969, 58 38.586, 58 39.769 C 58 40.301, 55.975 44.704, 53.500 49.555 C 51.025 54.405, 49 58.910, 49 59.564 C 49 60.219, 48.325 61.315, 47.500 62 C 46.675 62.685, 46.013 63.977, 46.030 64.872 C 46.046 65.768, 43.008 69.278, 39.280 72.673 L 32.500 78.846 32.304 86.529 L 32.108 94.212 34.304 92.439 C 35.512 91.464, 38.620 88.384, 41.210 85.594 C 44.816 81.710, 46.196 80.796, 47.095 81.695 C 49.191 83.791, 50.738 100.862, 50.336 117.451 C 49.768 140.888, 51.733 152.333, 56.480 153.241 C 61.286 154.160, 61.755 151.281, 62.379 117 C 62.654 101.891, 62.340 92.230, 61.321 84.500 C 60.524 78.450, 60.121 71.553, 60.427 69.173 C 60.733 66.793, 63.421 59.812, 66.402 53.659 C 73.066 39.901, 73.774 36.640, 71.048 32.250 C 69.525 29.798, 68.320 29, 66.137 29 C 64.546 29, 62.817 29.563, 62.293 30.250" stroke="none" fill="black" fill-rule="evenodd"/>
</svg>