<svg xmlns="http://www.w3.org/2000/svg" width="256" height="256" viewBox="0 0 256 256" version="1.1">
	<path d="M 118.734 25.472 C 116.662 26.261, 109.250 27.885, 102.261 29.080 C 87.603 31.587, 75.578 36.337, 74.123 40.195 C 73.645 41.463, 73.605 45.064, 74.034 48.197 C 74.462 51.331, 74.420 55.606, 73.940 57.697 C 73.176 61.020, 72.570 84.907, 72.805 102.403 C 72.860 106.444, 72.259 109.532, 70.901 112.195 C 69.809 114.334, 68.649 118.877, 68.321 122.292 C 67.994 125.706, 67.399 128.725, 66.998 129 C 65.891 129.761, 64.805 140.374, 65.536 143.287 C 66.215 145.995, 68.135 147.269, 70.289 146.443 C 70.998 146.171, 73.559 142.113, 75.980 137.426 C 79.922 129.795, 80.649 128.935, 82.941 129.202 C 84.968 129.438, 85.563 130.123, 85.802 132.500 C 85.968 134.150, 86.755 136.918, 87.552 138.651 C 89.213 142.265, 89.400 144.635, 88.089 145.445 C 86.162 146.636, 88.820 152.917, 91.540 153.599 C 97.423 155.076, 100.241 151.102, 98.346 144.003 C 97.100 139.333, 98.273 136.171, 101.926 134.349 C 106.723 131.958, 111.583 138.611, 107.510 141.992 C 105.719 143.478, 106.411 147.241, 109.214 151.250 C 114.274 158.489, 121.979 150.008, 117.573 142.050 C 116.112 139.414, 116.434 137.513, 118.807 134.750 C 122.983 129.887, 128.138 135.387, 125.434 141.820 C 124.698 143.569, 124.525 145, 125.048 145 C 125.572 145, 126 145.590, 126 146.311 C 126 148.684, 130.001 152, 132.865 152 C 138.384 152, 142.189 144.654, 138.143 141.807 C 134.805 139.457, 134.793 136.797, 138.105 132.830 L 141.169 129.160 143.584 131.260 C 146.678 133.950, 146.917 139.861, 144.037 142.466 C 142.259 144.075, 142.208 144.501, 143.490 146.981 C 144.269 148.486, 146.339 150.312, 148.090 151.037 C 150.780 152.152, 151.680 152.129, 153.887 150.892 C 158.153 148.501, 158.828 145.626, 159.148 128.500 C 159.391 115.431, 159.090 110.963, 157.502 104.107 C 155.653 96.126, 155.384 95.641, 152.029 94.235 C 150.088 93.422, 145.575 92.474, 142 92.128 C 132.782 91.237, 94.969 91.792, 93.623 92.839 C 90.321 95.405, 84 93.954, 84 90.630 C 84 88.682, 89.495 83.886, 91.608 83.990 C 100.560 84.430, 120.165 83.716, 132.500 82.501 C 147.118 81.061, 147.570 80.946, 150.250 77.996 C 151.762 76.331, 153 74.028, 153 72.879 C 153 71.729, 153.694 68.110, 154.543 64.836 C 156.044 59.041, 156.024 58.771, 153.776 54.691 L 151.466 50.500 143.983 49.823 C 129.858 48.546, 109.498 48.077, 106.500 48.960 C 104.850 49.446, 100.575 50.369, 97 51.011 C 93.425 51.652, 89.956 52.627, 89.291 53.177 C 87.581 54.591, 86.504 49.796, 87.932 47.127 C 89.361 44.456, 96.711 42.678, 121.884 38.914 C 129.246 37.813, 136.558 36.246, 138.134 35.431 C 141.770 33.551, 141.896 30.190, 138.451 26.954 C 136.368 24.997, 134.678 24.512, 129.201 24.298 C 125.173 24.141, 120.998 24.609, 118.734 25.472 M 60.741 29.691 C 59.024 30.139, 55 37.540, 55 40.249 C 55 40.996, 53.920 43.833, 52.601 46.554 C 51.281 49.274, 48.363 55.485, 46.116 60.357 C 43.256 66.555, 40.261 71.104, 36.137 75.512 C 31.432 80.542, 29.987 82.889, 28.968 87.156 C 27.671 92.585, 26.191 95.996, 24.643 97.125 C 23.053 98.285, 26.106 99.203, 29.315 98.530 C 31.519 98.068, 34.040 96.062, 37.500 92.017 C 40.250 88.802, 42.848 86.504, 43.273 86.909 C 44.734 88.302, 45.122 92.554, 45.969 116.500 C 46.436 129.700, 47.345 142.300, 47.989 144.500 C 49.407 149.347, 51.563 151.304, 54.032 149.983 C 55.383 149.260, 55.958 147.134, 56.525 140.772 C 57.653 128.117, 57.769 101.499, 56.737 92 C 56.230 87.325, 55.871 81.033, 55.940 78.017 C 56.171 67.955, 60.610 53.977, 66.840 43.689 L 70.359 37.878 68.547 34.689 C 66.758 31.542, 64.147 28.890, 63.059 29.116 C 62.751 29.180, 61.708 29.439, 60.741 29.691 M 113 61.970 C 94.573 63.007, 86 65.525, 86 69.901 C 86 73.355, 88.653 74.522, 93.327 73.123 C 95.622 72.436, 101.522 71.263, 106.437 70.517 C 115.299 69.171, 119.493 69.495, 133 72.569 C 136.140 73.283, 142.371 69.319, 142.804 66.332 C 143.417 62.106, 134.295 60.771, 113 61.970 M 134.632 105.121 C 133.485 105.803, 130.588 105.994, 127.132 105.616 C 123.366 105.204, 119.878 105.495, 116.604 106.496 C 112.871 107.637, 110.850 107.746, 108.104 106.957 C 102.540 105.359, 90.089 106.970, 88.409 109.506 C 86.685 112.109, 87.759 113.714, 91.500 114.124 C 93.150 114.305, 95.772 115.476, 97.327 116.726 C 101.173 119.820, 104.371 119.676, 105.891 116.341 C 106.823 114.294, 106.829 113.512, 105.916 112.948 C 104.137 111.849, 108.566 109.800, 112.721 109.800 C 116.345 109.800, 118.163 110.924, 118.690 113.490 C 118.860 114.320, 119.172 115.787, 119.383 116.750 C 119.836 118.821, 121.854 118.555, 123.653 116.188 C 125.417 113.867, 125.308 113.001, 123.250 112.994 C 122.110 112.990, 122.546 112.442, 124.500 111.421 C 128.343 109.415, 131.619 109.397, 136 111.356 C 138.708 112.568, 139.012 112.931, 137.344 112.961 C 135.621 112.992, 135.296 113.452, 135.727 115.250 C 136.025 116.487, 137.208 118.423, 138.357 119.551 C 140.052 121.214, 140.873 121.403, 142.706 120.551 C 145.379 119.308, 147.622 114.003, 145.920 112.950 C 145.134 112.465, 145.201 111.652, 146.151 110.131 C 148.227 106.806, 146.211 104.551, 140.898 104.255 C 138.479 104.120, 135.659 104.510, 134.632 105.121" stroke="none" fill="black" fill-rule="evenodd"/>
</svg>