<svg xmlns="http://www.w3.org/2000/svg" width="256" height="256" viewBox="0 0 256 256" version="1.1">
	<path d="M 51.113 33.045 C 45.147 33.670, 43.239 34.307, 41.188 36.358 C 35.718 41.828, 39.025 54.441, 46.779 57.681 C 50.176 59.100, 50.240 59.233, 49.638 63.623 C 49.101 67.540, 49.346 68.437, 51.553 70.644 C 53.799 72.890, 54.723 73.127, 59.791 72.758 C 68.050 72.156, 80.104 70.014, 82.975 68.638 C 84.337 67.985, 86.091 66.311, 86.872 64.918 C 88.101 62.729, 88.101 61.987, 86.871 59.443 C 85.475 56.555, 85.318 56.505, 78.474 56.787 C 74.638 56.945, 68.436 57.553, 64.691 58.137 C 60.946 58.722, 56.426 58.927, 54.645 58.593 C 51.772 58.054, 51.381 57.582, 51.166 54.391 C 50.887 50.254, 52.024 48.542, 56.388 46.524 C 58.951 45.340, 66.246 45.123, 97.721 45.299 C 139.638 45.533, 138.513 45.365, 139.562 51.569 C 140.441 56.765, 140.717 57, 145.946 57 C 151.632 57, 153.900 54.855, 153.875 49.500 C 153.868 47.850, 154.077 45.564, 154.341 44.419 C 155.086 41.184, 152.273 36.521, 148.201 34.240 C 144.637 32.243, 143.736 32.198, 123.823 33.029 C 111.456 33.545, 99.600 33.519, 94.323 32.964 C 84.079 31.886, 61.780 31.928, 51.113 33.045 M 128.610 59.092 C 127.147 60.243, 125.316 62.702, 124.541 64.557 C 122.873 68.549, 121.323 69.060, 110.082 69.320 C 102.728 69.491, 101.602 69.773, 99.907 71.867 C 97.477 74.867, 97.473 78.473, 99.896 80.896 C 101.538 82.538, 102.909 82.731, 110.146 82.341 C 119.924 81.814, 122.706 82.872, 125.151 88.050 C 127.255 92.506, 127.488 95.546, 126.514 105.848 C 125.781 113.597, 125.447 114.517, 121.859 118.662 C 118.017 123.102, 117.810 124.096, 119.552 129.750 C 120.011 131.240, 123.621 131.423, 124.500 130 C 124.840 129.450, 126.554 128.999, 128.309 128.998 C 130.064 128.998, 133.067 128.210, 134.983 127.248 L 138.467 125.500 138.270 110.500 C 138.161 102.250, 137.807 93.904, 137.483 91.953 C 136.658 86.996, 139.601 83.406, 145.254 82.474 C 150.233 81.653, 152 80.455, 152 77.901 C 152 75.584, 148.633 73.355, 143.802 72.473 C 138.046 71.421, 136.878 70.069, 136.573 64.109 C 136.203 56.854, 133.567 55.193, 128.610 59.092 M 70.500 88.992 C 66.650 89.454, 60.350 90.097, 56.500 90.420 C 38.087 91.966, 34.791 93.284, 33.674 99.547 C 32.913 103.819, 34.103 105.163, 39.132 105.711 C 41.534 105.972, 44.106 106.766, 44.847 107.476 C 46.612 109.166, 46.516 116.964, 44.630 125.092 C 43.054 131.885, 42.233 133.703, 37.344 141.232 C 33.548 147.078, 33.840 150.400, 38.285 151.950 C 40.967 152.885, 41.851 152.683, 45.185 150.372 C 49.917 147.092, 51.993 143.724, 55.579 133.500 C 57.996 126.611, 58.363 124.136, 58.220 115.677 C 58.062 106.265, 58.165 105.752, 60.673 103.427 C 63.770 100.557, 66.128 100.345, 68.193 102.750 C 70.654 105.616, 70.860 107.274, 69.851 116.089 C 68.977 123.724, 69.487 131.524, 71.590 142.673 C 72.229 146.066, 77.512 150.686, 81.636 151.459 C 83.682 151.843, 89.349 153.495, 94.230 155.131 C 100.261 157.151, 104.129 157.915, 106.302 157.514 C 108.061 157.189, 114.225 156.510, 120 156.003 C 133.435 154.826, 136.835 154.286, 146.055 151.868 C 156.142 149.222, 159.266 146.682, 159.529 140.913 C 159.639 138.486, 159.338 135.077, 158.859 133.337 C 158.108 130.610, 157.410 130.076, 153.801 129.466 C 150.194 128.857, 149.363 129.068, 147.807 130.990 C 146.813 132.217, 146 134.452, 146 135.956 C 146 141.394, 144.687 141.698, 117.897 142.464 C 92.843 143.181, 86.587 142.617, 83.914 139.397 C 82.986 138.278, 80.616 114.734, 80.760 108.055 C 80.827 104.931, 83.428 103.042, 87.941 102.842 C 94.187 102.563, 95.372 102.958, 102.013 107.523 C 109.106 112.399, 111.805 112.978, 114.345 110.171 C 116.373 107.931, 116.425 105.954, 114.576 101.527 C 112.574 96.736, 105.812 93.691, 99.142 94.576 C 94.716 95.163, 94.018 94.955, 90.732 92.070 C 86.564 88.410, 81.618 87.658, 70.500 88.992" stroke="none" fill="black" fill-rule="evenodd"/>
</svg>