<svg xmlns="http://www.w3.org/2000/svg" width="256" height="256" viewBox="0 0 256 256" version="1.1">
	<path d="M 120.297 28.796 C 119.086 28.978, 117.837 29.939, 117.522 30.931 C 117.207 31.924, 116.060 33.540, 114.974 34.523 C 112.761 36.526, 112.435 40.471, 114.136 44.685 C 114.761 46.233, 115.204 48.731, 115.121 50.235 C 114.873 54.748, 117.804 56.615, 127.378 58.039 C 132.120 58.745, 136 59.682, 136 60.123 C 136 60.563, 125.425 60.923, 112.500 60.923 C 93.932 60.923, 89 60.651, 89 59.628 C 89 58.916, 89.563 58.273, 90.250 58.200 C 102.115 56.932, 105.423 55.126, 105.647 49.794 C 105.728 47.871, 106.512 44.910, 107.390 43.213 C 109.460 39.210, 108.772 37.682, 103.142 33.776 C 98.515 30.565, 98.465 30.556, 87.500 30.848 C 74.231 31.202, 69.344 32.951, 65.673 38.663 C 64.193 40.967, 63.565 42.880, 64.104 43.450 C 64.597 43.973, 65 45.029, 65 45.799 C 65 51.346, 71.615 57, 78.105 57 C 80.918 57, 84.851 59.483, 83.762 60.571 C 83.500 60.833, 80.409 61.292, 76.893 61.591 C 65.358 62.573, 62.699 65.577, 61.481 79 C 60.604 88.666, 60.652 91.501, 61.870 102 C 62.670 108.896, 62.510 120.299, 61.536 125.744 C 61.315 126.979, 60.819 132.698, 60.433 138.455 L 59.732 148.921 62.366 150.121 C 65.773 151.673, 69.368 150.137, 71.328 146.293 C 72.111 144.757, 73.058 139.900, 73.433 135.500 C 75.015 116.942, 76.126 110.954, 78.233 109.625 C 81.483 107.575, 82.265 110.156, 82.192 122.681 C 82.153 129.181, 81.642 137.496, 81.057 141.157 C 80.471 144.818, 80.242 148.467, 80.548 149.264 C 80.854 150.062, 82.771 151.214, 84.809 151.825 C 87.841 152.733, 89.600 152.598, 94.506 151.079 C 100.367 149.264, 100.559 149.265, 103.166 151.120 C 108.462 154.887, 114.667 154.822, 118.818 150.955 C 120.644 149.253, 120.985 148.131, 120.535 145.299 C 120.226 143.356, 119.732 141.375, 119.436 140.897 C 118.757 139.798, 118.204 134.926, 117.455 123.429 C 116.972 116.019, 117.142 114.127, 118.384 113.097 C 120.484 111.353, 123.739 112.609, 125.445 115.821 C 126.227 117.294, 128.247 119.776, 129.934 121.335 C 131.620 122.894, 133 125.073, 133 126.177 C 133 127.281, 133.900 129.329, 135 130.727 C 136.100 132.126, 137 133.863, 137 134.588 C 137 137.438, 134.532 141.052, 130.838 143.612 C 124.267 148.166, 124.735 154, 131.672 154 C 133.557 154, 136.314 153.375, 137.800 152.610 C 140.752 151.091, 152.749 149, 158.515 149 C 161.433 149, 162.081 148.656, 161.815 147.250 C 161.615 146.195, 160.395 145.374, 158.741 145.184 C 157.175 145.003, 156 144.253, 156 143.434 C 156 142.645, 155.656 142, 155.236 142 C 154.816 142, 153.649 140.102, 152.644 137.782 C 150.821 133.573, 150.823 133.547, 153.525 125.532 C 155.015 121.114, 156.799 116.375, 157.490 115 C 159.821 110.362, 162.351 98.536, 161.629 95.656 C 160.708 91.987, 155.396 89.687, 149.666 90.476 C 145.602 91.036, 145.390 90.917, 141 85.624 C 134.890 78.256, 132.636 77.251, 129.732 80.599 C 127.916 82.693, 127.500 84.383, 127.500 89.666 C 127.500 94.995, 127.142 96.426, 125.500 97.649 C 123.536 99.113, 123.022 99.100, 112.500 97.312 C 108.896 96.699, 106 95.252, 106 94.063 C 106 92.812, 111.728 91, 115.681 91 C 119.147 91, 119.782 90.310, 120.238 86.053 C 120.624 82.451, 113.822 78.857, 106.621 78.857 C 96.841 78.857, 85.048 81.042, 83.971 83.053 C 82.454 85.889, 82.815 88.495, 85.135 91.444 C 87.003 93.819, 87.088 94.341, 85.816 95.613 C 85.016 96.413, 82.752 97.328, 80.785 97.647 C 77.473 98.185, 77.164 98.017, 76.599 95.364 C 75.457 90.002, 75.047 77.505, 75.965 76.038 C 77.241 73.999, 96.630 73.118, 115.086 74.261 C 134.205 75.445, 135.997 75.430, 146.500 74.002 C 160.657 72.077, 162.841 70.096, 156.989 64.490 C 153.980 61.607, 152.127 61.255, 138.750 61.030 C 137.787 61.013, 137 60.555, 137 60.011 C 137 59.467, 138.012 59.098, 139.250 59.190 C 140.488 59.283, 143.896 58.775, 146.825 58.061 C 152.821 56.601, 153.145 56.120, 154.959 45.980 C 156.347 38.223, 155.500 35.204, 151.048 32.034 C 148.304 30.080, 147.146 29.902, 140.729 30.449 C 136.148 30.839, 131.485 30.589, 128 29.765 C 124.975 29.050, 121.509 28.614, 120.297 28.796 M 49.222 35.250 C 47.782 37.009, 42.186 51.795, 41.369 56 C 40.599 59.961, 39.096 62.957, 33.648 71.393 C 28.963 78.646, 28.142 80.760, 27.130 88.159 C 26.339 93.939, 26.357 94, 28.837 94 C 30.215 94, 32.149 93.270, 33.134 92.379 C 35.598 90.149, 37.796 91.276, 39.683 95.736 C 40.970 98.775, 41.304 103.937, 41.417 122.530 C 41.547 143.699, 41.722 145.839, 43.583 149.026 C 45.921 153.029, 48.066 153.791, 50.407 151.450 C 51.864 149.993, 52.046 146.627, 51.964 122.650 C 51.895 102.472, 51.483 93.702, 50.359 88.500 C 48.152 78.278, 48.956 68.431, 52.898 57.425 C 54.767 52.208, 57.337 47.106, 58.944 45.425 L 61.739 42.500 59.912 38.873 C 58.907 36.879, 57.354 34.966, 56.461 34.623 C 53.813 33.607, 50.319 33.910, 49.222 35.250 M 130.923 42.313 C 126.916 46.614, 129.552 50.207, 136 49.230 C 140.917 48.485, 142.454 46.139, 139.849 43.351 C 136.941 40.239, 133.255 39.810, 130.923 42.313 M 81.655 42.829 C 80.745 43.835, 80 45.394, 80 46.294 C 80 50.171, 87.316 50.518, 90.681 46.799 C 92.425 44.873, 92.407 44.748, 90.131 42.905 C 87.161 40.500, 83.790 40.470, 81.655 42.829 M 140.132 102.897 C 138.177 104.136, 137.413 112.014, 139.142 113.109 C 142.362 115.149, 144.731 114.100, 145.723 110.195 C 147.340 103.824, 144.507 100.126, 140.132 102.897 M 95.720 110.963 C 94.875 114.193, 99.269 116.516, 102.679 114.642 C 104.315 113.743, 104.577 113.021, 103.911 111.250 C 102.764 108.202, 96.499 107.983, 95.720 110.963 M 99.250 122.198 C 97.107 124.781, 96.775 128.632, 98.544 130.401 C 100.703 132.560, 102.157 132.056, 103.861 128.559 C 105.110 125.995, 105.021 125.567, 102.781 123.326 C 100.819 121.364, 100.126 121.143, 99.250 122.198 M 98.524 140.256 C 97.438 142.040, 96.388 143.838, 96.191 144.250 C 95.994 144.662, 97.623 145, 99.810 145 C 103.267 145, 105 143.855, 105 141.571 C 105 141.117, 101.287 137, 100.883 137.006 C 100.672 137.010, 99.611 138.472, 98.524 140.256" stroke="none" fill="black" fill-rule="evenodd"/>
</svg>