<svg xmlns="http://www.w3.org/2000/svg" width="256" height="256" viewBox="0 0 256 256" version="1.1">
	<path d="M 52.500 34.027 C 48.650 34.359, 44.801 34.953, 43.947 35.347 C 39.421 37.434, 37.719 47.344, 39.937 58.701 C 40.453 61.340, 41.096 66.791, 41.367 70.813 C 41.638 74.835, 42.380 78.753, 43.017 79.521 C 43.654 80.288, 46.348 81.898, 49.003 83.098 C 53.010 84.909, 53.934 85.834, 54.442 88.543 C 55.250 92.848, 54.401 98.550, 51.322 109.500 C 48.079 121.035, 46.235 125.429, 42.850 129.688 C 37.287 136.688, 35.462 146.023, 39.199 148.362 C 40.584 149.229, 41.742 148.601, 45.468 144.963 C 47.982 142.508, 51.718 138.025, 53.770 135 C 55.821 131.975, 57.779 129.275, 58.121 129 C 58.462 128.725, 58.987 126.925, 59.287 125 C 59.587 123.075, 60.433 118.841, 61.166 115.590 C 62.339 110.394, 62.929 109.459, 66.052 107.845 C 68.138 106.767, 72.210 105.904, 75.913 105.755 C 81.626 105.524, 82.397 105.736, 84.088 108 C 86.039 110.613, 86.022 111.251, 83.465 131.307 C 82.693 137.356, 78.438 144.476, 74.428 146.429 C 70.511 148.336, 68.486 152.328, 70.561 154.051 C 73.049 156.116, 81.618 154.655, 86.170 151.390 C 93.745 145.958, 95.835 138.481, 96.141 115.719 C 96.323 102.167, 96.087 98.658, 94.916 97.487 C 93.214 95.785, 84.678 94.006, 78.114 93.985 C 67.367 93.951, 65.568 89.481, 73.533 82.604 C 78.612 78.220, 78.953 78.089, 83.795 78.662 C 88.585 79.229, 88.989 79.083, 93.028 75.315 L 97.252 71.375 97.088 56.565 C 96.924 41.718, 95.892 36.316, 92.852 34.386 C 91.285 33.391, 62.804 33.137, 52.500 34.027 M 144.873 40.750 C 143.863 43.329, 143.704 58.449, 144.061 118.260 C 144.160 134.953, 143.965 137.377, 142.287 140.260 C 141.250 142.042, 139.073 143.960, 137.451 144.521 C 131.982 146.414, 130 147.998, 130 150.476 C 130 153.546, 130.852 154.026, 137.517 154.714 C 142.310 155.209, 143.484 154.946, 147.070 152.573 C 152.297 149.113, 153.823 145.355, 154.995 133.056 C 156.337 118.966, 156.440 50.331, 155.124 46.127 C 153.428 40.704, 151.208 38, 148.452 38 C 146.651 38, 145.649 38.770, 144.873 40.750 M 74.500 43.977 C 73.400 44.462, 69.898 44.891, 66.718 44.930 C 59.892 45.013, 54.741 46.929, 52.643 50.166 C 51.707 51.610, 51.025 55.456, 50.854 60.253 C 50.454 71.436, 52.717 72.898, 67.071 70.728 C 69.584 70.348, 72.986 70.423, 74.630 70.894 C 79.780 72.371, 81.944 69.571, 84.065 58.684 C 85.197 52.874, 85.180 51.251, 83.947 47.684 C 82.713 44.115, 82.059 43.470, 79.500 43.297 C 77.850 43.185, 75.600 43.491, 74.500 43.977 M 109.394 52.521 C 108.025 54.611, 107.699 58.415, 107.485 74.771 C 107.228 94.483, 108.234 103.168, 111.187 106.726 C 112.956 108.857, 116.222 107.811, 118.532 104.374 C 120.514 101.426, 120.621 100.106, 120.416 81.216 C 120.189 60.280, 119.738 55.975, 117.379 52.250 C 115.434 49.179, 111.497 49.312, 109.394 52.521" stroke="none" fill="black" fill-rule="evenodd"/>
</svg>