<svg xmlns="http://www.w3.org/2000/svg" width="256" height="256" viewBox="0 0 256 256" version="1.1">
	<path d="M 119.251 26.537 C 118.045 27.382, 116.564 29.969, 115.961 32.287 C 115.359 34.604, 114.431 38.177, 113.900 40.227 C 113.158 43.093, 111.941 44.536, 108.630 46.477 C 104.727 48.764, 103.287 49, 93.227 49 C 87.124 49, 80.997 48.569, 79.613 48.043 C 76.434 46.834, 74.059 42.292, 73.313 35.995 C 72.572 29.737, 69.515 26.508, 65.225 27.451 C 61.457 28.278, 59.576 31.755, 60.380 36.409 C 60.721 38.384, 61.262 41.472, 61.583 43.270 C 62.039 45.832, 61.691 46.970, 59.978 48.520 C 58.137 50.186, 56.341 50.503, 48.645 50.517 C 39.087 50.534, 36.479 51.444, 33.404 55.833 C 32.378 57.298, 32.254 58.537, 32.948 60.364 C 34.795 65.222, 44.378 65.634, 58 61.442 C 62.549 60.043, 65.489 59.880, 75 60.505 C 90.511 61.524, 102.878 61.181, 112.500 59.463 C 122.842 57.617, 125.735 57.511, 136 58.598 C 149.329 60.010, 155.125 59.564, 157.227 56.968 C 159.675 53.944, 159.452 52.342, 156.294 50.273 C 154.193 48.897, 151.342 48.476, 143.544 48.391 C 129.768 48.241, 124.753 45.828, 127.864 40.846 C 128.513 39.807, 129.316 36.977, 129.647 34.558 C 130.172 30.728, 129.916 29.825, 127.670 27.580 C 124.720 24.629, 122.387 24.340, 119.251 26.537 M 83.584 69.750 C 82.769 70.567, 73.535 71.603, 56.775 72.760 C 47.603 73.393, 45.728 73.822, 43.832 75.720 C 41.986 77.569, 41.674 78.823, 41.963 83.220 C 42.155 86.124, 42.186 94.125, 42.033 101 C 41.879 107.875, 41.697 116.875, 41.627 121 C 41.557 125.125, 41.254 128.725, 40.952 129 C 39.664 130.176, 37.525 140.845, 37.805 144.700 C 38.034 147.859, 38.604 149.057, 40.103 149.533 C 42.933 150.431, 44.620 148.636, 47.032 142.159 C 48.191 139.047, 50.338 135.241, 51.803 133.701 C 54.374 131.001, 54.774 130.913, 63.205 131.180 C 69.114 131.368, 72.340 131.060, 73.171 130.229 C 73.847 129.553, 76.027 129, 78.015 129 C 81.111 129, 81.853 129.468, 83.184 132.259 C 84.586 135.199, 84.588 136.434, 83.207 144.850 C 81.892 152.868, 81.875 154.308, 83.088 155.076 C 85.386 156.530, 86.793 156.157, 90.083 153.218 C 93.062 150.556, 93.244 149.937, 94.292 138.968 C 94.895 132.660, 95.465 116.700, 95.559 103.500 C 95.653 90.300, 96.057 78.103, 96.457 76.395 C 97.076 73.752, 96.779 72.971, 94.457 71.145 C 91.762 69.025, 85.155 68.177, 83.584 69.750 M 110.383 75.538 C 108.948 77.728, 108.869 79, 109.804 84.788 C 110.557 89.447, 110.578 93.488, 109.875 98 C 107.595 112.619, 109.416 123, 114.260 123 C 118.205 123, 122.814 117.228, 121.898 113.436 C 121.774 112.921, 121.997 111.353, 122.394 109.952 C 123.961 104.419, 119.796 78.043, 116.757 74.250 C 115.128 72.217, 112.167 72.816, 110.383 75.538 M 145.051 77.662 C 141.862 81.717, 141.124 87.661, 140.421 115 C 139.929 134.106, 138.618 140.923, 134.491 145.828 C 131.070 149.893, 131.337 151.825, 135.563 153.591 C 138.906 154.988, 139.385 154.937, 143.308 152.774 C 145.607 151.505, 148.070 149.254, 148.780 147.772 C 149.512 146.245, 150.255 139.971, 150.495 133.289 C 150.727 126.805, 151.407 118.800, 152.006 115.500 C 153.565 106.906, 154.349 90.952, 153.534 84.424 C 152.879 79.182, 150.455 75, 148.073 75 C 147.562 75, 146.203 76.198, 145.051 77.662 M 56.589 84.077 C 51.213 90.466, 54.196 94.856, 64.740 96.072 C 73.379 97.069, 77 97.989, 77 99.186 C 77 101.084, 81.500 99.499, 81.787 97.500 C 83.157 87.944, 83.126 85.842, 81.579 83.481 C 80.022 81.103, 79.521 81, 69.566 81 C 59.194 81, 59.174 81.005, 56.589 84.077 M 78 105.798 C 78 107.231, 69.930 108.998, 63.307 109.015 C 56.366 109.034, 55.223 109.636, 54.409 113.707 C 53.886 116.319, 54.208 117.090, 56.424 118.542 C 58.542 119.930, 60.304 120.143, 65.372 119.623 C 71.283 119.018, 71.867 119.148, 74.591 121.683 C 76.191 123.171, 77.388 124.751, 77.250 125.194 C 76.740 126.836, 78.337 125.918, 80.632 123.250 C 84.407 118.861, 83.468 106.637, 79.250 105.246 C 78.563 105.019, 78 105.267, 78 105.798" stroke="none" fill="black" fill-rule="evenodd"/>
</svg>