<svg xmlns="http://www.w3.org/2000/svg" width="256" height="256" viewBox="0 0 256 256" version="1.1">
	<path d="M 82.458 28.423 C 81.126 30.457, 80.981 32.750, 81.555 42.673 C 82.202 53.843, 82.125 54.604, 80.161 56.368 C 78.189 58.140, 77.734 58.156, 71.291 56.681 C 67.556 55.826, 59.467 54.885, 53.316 54.590 L 42.132 54.054 39.566 57.104 C 36.564 60.672, 36.481 61.279, 38.566 64.460 C 41.541 69.001, 50.180 70.056, 67.789 68.032 C 76.682 67.009, 80.931 67.930, 81.079 70.911 C 81.230 73.954, 80.855 85.159, 80.546 86.824 C 80.376 87.746, 79.904 90.525, 79.498 93 C 78.640 98.233, 75.512 104.866, 73.547 105.620 C 72.798 105.908, 71.233 108.356, 70.069 111.061 C 68.218 115.364, 66.213 117.891, 60.838 122.697 C 60.102 123.355, 57.475 126.836, 55 130.432 C 52.525 134.028, 49.953 136.977, 49.285 136.985 C 47.569 137.006, 46 140.326, 46 143.934 C 46 146.683, 46.314 147, 49.040 147 C 55.704 147, 61.694 142.081, 70.500 129.374 C 72.700 126.200, 75.175 122.886, 76 122.010 C 80.220 117.531, 84.996 110.964, 87.280 106.500 C 89.876 101.427, 90.459 98.220, 91.552 83 C 92.239 73.437, 93.412 69.461, 95.842 68.461 C 99.088 67.124, 133.653 66.744, 136.035 68.019 C 138.160 69.156, 138.238 69.620, 137.609 77.358 C 137.244 81.836, 136.812 89.325, 136.648 94 C 136.484 98.675, 135.615 104.750, 134.718 107.500 C 133.820 110.250, 132.550 115.200, 131.896 118.500 C 130.035 127.889, 125.555 136.365, 121.406 138.344 C 119.495 139.255, 116.627 140, 115.031 140 C 106.032 140, 100.916 146.818, 107.622 149.874 C 111.046 151.434, 120.154 152.381, 124.281 151.607 C 128.458 150.823, 134.662 145.075, 136.715 140.086 C 137.527 138.114, 138.802 135.150, 139.550 133.500 C 141.384 129.452, 144.883 120.399, 146.507 115.500 C 148.083 110.744, 149.475 86.754, 149.132 70.250 C 149.089 68.188, 149.154 65.207, 149.277 63.628 C 149.619 59.227, 146.095 57.298, 133.500 54.989 C 123.713 53.195, 121.141 53.089, 110.178 54.031 C 103.400 54.613, 96.959 54.804, 95.863 54.457 C 93.051 53.564, 92.299 50.748, 93.120 44.186 C 94.450 33.553, 94.182 30.248, 91.811 28.039 C 88.775 25.210, 84.447 25.387, 82.458 28.423" stroke="none" fill="black" fill-rule="evenodd"/>
</svg>