<svg xmlns="http://www.w3.org/2000/svg" width="256" height="256" viewBox="0 0 256 256" version="1.1">
	<path d="M 65.073 27.728 C 63.383 29.778, 61.992 31.916, 61.983 32.478 C 61.973 33.040, 60.684 34.400, 59.117 35.500 C 55.110 38.313, 48.888 44.052, 46.366 47.260 C 45.193 48.753, 41.527 52.008, 38.221 54.493 C 31.382 59.634, 30.696 60.763, 32.374 64.107 C 33.390 66.129, 34.267 66.480, 38.038 66.374 C 40.492 66.305, 44.407 65.650, 46.739 64.920 C 50.626 63.703, 51.207 63.763, 53.739 65.647 C 58.015 68.828, 57.826 71.454, 53.106 74.433 C 50.895 75.829, 47.309 77.370, 45.137 77.858 C 42.965 78.346, 39.965 79.878, 38.472 81.263 L 35.757 83.781 36.180 96.640 C 36.413 103.713, 37.127 110.454, 37.767 111.620 C 38.407 112.785, 40.515 114.491, 42.452 115.410 C 47.447 117.780, 48.522 120.238, 46.631 124.965 C 45.793 127.060, 45.331 128.998, 45.606 129.273 C 46.551 130.218, 39.635 143.504, 36.820 146.151 C 29.236 153.281, 38.006 158.603, 45.774 151.585 C 48.294 149.308, 51.593 147.642, 55.671 146.585 C 62.434 144.833, 70 144.486, 70 145.929 C 70 146.440, 71.516 148.465, 73.368 150.429 C 77.351 154.652, 80.255 154.964, 85.693 151.750 C 88.767 149.933, 91.005 149.500, 97.319 149.500 C 103.665 149.500, 105.319 149.177, 106.099 147.785 C 107.302 145.638, 105.543 142.569, 102.252 141.069 C 99.214 139.685, 96.687 133.699, 97.527 129.877 C 98.001 127.719, 97.480 125.789, 95.525 122.453 C 91.909 116.281, 92.703 114.241, 99.051 113.399 C 108.003 112.211, 110.265 108.210, 111.470 91.431 C 111.917 85.220, 111.744 81.532, 110.922 79.729 C 109.404 76.397, 103.760 73.661, 99.648 74.265 C 94.959 74.953, 91 73.256, 91 70.557 C 91 66.762, 94.013 65.003, 100.579 64.968 C 106.851 64.935, 109.295 63.798, 110.368 60.415 C 111.339 57.355, 107.216 51.875, 102.123 49.457 C 99.757 48.334, 95.677 45.184, 93.056 42.457 C 78.914 27.743, 74.501 24, 71.301 24 C 68.874 24, 67.436 24.861, 65.073 27.728 M 150.273 41.703 C 148.352 44.632, 148.277 48.152, 149.317 86.500 C 149.586 96.400, 149.871 111.556, 149.951 120.179 L 150.096 135.859 146.548 142.905 C 142.694 150.557, 142.224 153.367, 144.429 155.571 C 146.229 157.372, 148.169 157.374, 152.466 155.579 C 156.776 153.778, 158.690 150.064, 159.498 141.936 C 159.850 138.396, 160.318 134.150, 160.538 132.500 C 161.545 124.963, 161.061 51.942, 159.979 47.921 C 157.603 39.097, 153.645 36.562, 150.273 41.703 M 72.500 42.491 C 71.950 42.675, 70.307 43.087, 68.848 43.407 C 65.171 44.214, 59.659 52.495, 61.059 55.110 C 61.930 56.738, 63.281 56.964, 71.778 56.909 C 82.664 56.838, 86.400 55.246, 85.325 51.137 C 85.018 49.961, 84.400 49, 83.951 49 C 83.502 49, 82.862 48.142, 82.530 47.093 C 82.068 45.638, 75.035 41.631, 73.730 42.079 C 73.603 42.122, 73.050 42.308, 72.500 42.491 M 121.147 48.750 C 119.559 51.760, 117.787 62.093, 118.472 64.347 C 118.831 65.531, 119.319 73.925, 119.556 83 C 119.793 92.075, 120.485 100.716, 121.094 102.201 C 123.379 107.770, 130.198 109.333, 131.395 104.561 C 131.956 102.328, 132.063 85.242, 131.658 62.826 C 131.481 52.996, 131.151 50.824, 129.569 49.076 C 127.253 46.517, 122.424 46.330, 121.147 48.750 M 65.762 69.973 C 63.489 71.761, 63.274 72.419, 64.039 75.258 C 64.519 77.041, 65.343 82.100, 65.869 86.500 C 66.395 90.900, 67.112 95.931, 67.462 97.681 C 68.579 103.263, 65.734 111.382, 61.123 115.768 L 57.022 119.670 59.011 123.786 C 60.105 126.051, 61 128.485, 61 129.196 C 61 129.907, 62.909 133.304, 65.242 136.744 C 69.415 142.898, 69.559 143, 74.087 143 C 80.644 143, 83.036 139.898, 84.436 129.577 C 84.800 126.885, 85.527 123.884, 86.050 122.907 C 87.388 120.407, 87.231 116.436, 85.744 115.203 C 85.054 114.630, 83.236 113.846, 81.704 113.462 C 76.068 112.047, 72.783 98.502, 76.500 92 C 77.286 90.625, 77.945 88.299, 77.965 86.832 C 78.013 83.185, 78.962 81, 80.499 81 C 81.205 81, 82.092 79.763, 82.470 78.250 C 82.847 76.737, 83.792 74.794, 84.570 73.930 C 85.710 72.665, 85.743 72.033, 84.742 70.675 C 83.840 69.451, 81.425 68.844, 75.929 68.460 C 69.336 67.999, 68.023 68.194, 65.762 69.973 M 47.906 87.133 C 45.479 90.540, 45.671 95.992, 48.443 102.366 L 50.124 106.232 52.424 104.071 C 55.178 101.485, 56.651 91.523, 54.862 87.596 C 53.166 83.874, 50.359 83.687, 47.906 87.133 M 89.106 87.067 C 87.749 89.297, 87.436 91.001, 87.959 93.317 C 88.354 95.068, 88.749 96.838, 88.838 97.250 C 88.927 97.662, 89 98.890, 89 99.977 C 89 102.377, 93.109 105.279, 95.311 104.434 C 99.016 103.013, 100.321 87.083, 96.910 84.923 C 94.045 83.110, 91.004 83.945, 89.106 87.067" stroke="none" fill="black" fill-rule="evenodd"/>
</svg>