<svg xmlns="http://www.w3.org/2000/svg" width="256" height="256" viewBox="0 0 256 256" version="1.1">
	<path d="M 115 26.106 C 106.042 30.631, 93.919 35.945, 90.381 36.897 C 88.234 37.475, 79.464 38.849, 70.893 39.950 C 52.549 42.305, 48.005 43.598, 46.343 46.937 C 44.792 50.052, 45.977 52.334, 50.014 54.006 C 52.606 55.079, 54.345 55.011, 60.802 53.585 C 65.036 52.650, 72.108 51.626, 76.518 51.310 C 86.647 50.584, 87.616 51.403, 86.537 59.769 C 86.130 62.921, 85.497 68.299, 85.129 71.720 C 84.761 75.141, 83.881 78.516, 83.173 79.220 C 82.334 80.054, 78.509 80.564, 72.193 80.684 C 41.630 81.263, 38.887 81.495, 36.386 83.723 C 34.034 85.819, 33.205 90.327, 34.765 92.545 C 35.169 93.119, 37.268 94.614, 39.430 95.867 C 43.836 98.421, 46.797 98.358, 56.429 95.508 C 64.266 93.190, 82.166 93.737, 84.803 96.376 C 86.289 97.863, 86.516 100.841, 86.632 120.287 C 86.808 149.665, 87.360 153, 92.051 153 C 96.046 153, 96.661 150.819, 96.889 135.843 C 97.009 127.955, 97.238 119.025, 97.399 116 C 97.560 112.965, 97.068 108.891, 96.301 106.910 C 93.369 99.336, 97.183 90.422, 102.205 93.110 C 103.383 93.740, 106.575 93.951, 109.862 93.616 C 112.963 93.299, 121.125 92.795, 128 92.495 C 147.492 91.644, 148.948 91.433, 151.068 89.157 C 153.755 86.273, 153.594 82.417, 150.750 81.537 C 149.512 81.153, 143.434 80.665, 137.243 80.452 C 131.052 80.238, 124.983 79.526, 123.756 78.870 C 119.897 76.804, 111.044 77.479, 105.620 80.251 C 100.116 83.063, 97.798 82.867, 95.523 79.395 C 94.079 77.190, 94.115 76.503, 95.982 70.816 C 97.406 66.479, 97.977 62.240, 97.894 56.612 C 97.782 48.926, 97.897 48.494, 100.629 46.315 C 102.436 44.875, 107.578 43.088, 114.656 41.442 C 127.953 38.350, 129.486 37.468, 128.581 33.427 C 126.974 26.257, 121.037 23.056, 115 26.106" stroke="none" fill="black" fill-rule="evenodd"/>
</svg>