<svg xmlns="http://www.w3.org/2000/svg" width="256" height="256" viewBox="0 0 256 256" version="1.1">
	<path d="M 89.618 22.715 C 88.376 23.958, 84.953 32.287, 85.472 32.806 C 85.745 33.079, 85.188 33.895, 84.234 34.619 C 83.015 35.545, 78.640 35.952, 69.500 35.988 C 47.642 36.075, 39.782 37.963, 37.077 43.778 C 35.642 46.863, 37.571 49.829, 41.490 50.563 C 43.146 50.873, 48.313 50.648, 52.974 50.063 C 70.862 47.819, 86 49.206, 86 53.091 C 86 57.911, 80.828 60, 68.900 60 C 58.585 60, 50.781 61.441, 46.270 64.178 C 40.921 67.424, 40.534 70.413, 40.595 108 C 40.651 142.996, 41.255 149.236, 45.031 153.826 C 47.368 156.668, 50.954 155.991, 51.090 152.683 C 51.139 151.482, 51.349 138.575, 51.557 124 C 51.764 109.425, 52.295 95.475, 52.736 93 C 53.177 90.525, 53.289 86.700, 52.986 84.500 C 51.944 76.951, 54.951 74.161, 64.500 73.814 C 67.250 73.714, 71.760 74.186, 74.523 74.862 C 79.181 76.001, 79.965 75.906, 85.302 73.545 C 92.341 70.432, 97.988 70.307, 106.016 73.085 C 110.401 74.602, 113.150 74.982, 116.123 74.479 C 121.376 73.592, 132.284 74.756, 134.603 76.451 C 136.204 77.622, 136.260 78.183, 135.127 81.632 C 134.080 84.817, 134.114 87.178, 135.316 95 C 136.119 100.225, 136.694 109.900, 136.594 116.500 C 136.493 123.100, 136.842 130.112, 137.368 132.083 C 138.569 136.583, 135.890 142.640, 131.677 144.951 C 128.244 146.835, 125.468 151.170, 126.302 153.344 C 127.483 156.422, 131.615 156.368, 138.411 153.189 C 142.979 151.051, 145.326 149.270, 146.457 147.084 C 149.352 141.484, 150.852 93.215, 148.509 81.047 C 148.326 80.097, 146.729 76.352, 144.961 72.724 C 142.011 66.676, 141.320 65.959, 136.622 64.080 C 133.805 62.953, 128.752 61.786, 125.394 61.487 C 122.036 61.188, 117.862 60.534, 116.118 60.034 C 114.375 59.534, 111.947 59.329, 110.724 59.578 C 102.742 61.205, 98 59.114, 98 53.966 C 98 51.928, 98.692 50.966, 100.750 50.144 C 102.263 49.539, 113.453 48.675, 125.618 48.224 C 143.923 47.544, 148.190 47.106, 150.368 45.678 C 153.851 43.396, 153.688 41.811, 149.600 38.222 C 146.251 35.282, 145.973 35.225, 131.350 34.536 C 121.901 34.091, 114.863 34.221, 112 34.894 C 106.268 36.240, 100.037 36.295, 99.875 35 C 99.384 31.073, 96.709 24.518, 95.093 23.282 C 93.300 21.910, 90.693 21.641, 89.618 22.715 M 76.295 80.772 C 74.446 82.222, 74.026 83.729, 73.691 90.133 C 73.425 95.221, 72.576 99.245, 71.146 102.199 C 67.072 110.614, 68.910 112.772, 80.517 113.204 C 90.055 113.559, 90.890 114.776, 85.376 120.291 C 81.694 123.973, 81.662 123.983, 75.091 123.393 C 69.257 122.869, 68.107 123.071, 65.077 125.151 C 60.573 128.242, 60.327 129.418, 63.517 132.608 C 66.128 135.219, 66.364 135.260, 75.129 134.598 L 84.076 133.922 87.038 136.884 C 88.667 138.513, 90 140.813, 90 141.995 C 90 143.965, 92.649 147.728, 93.432 146.869 C 93.617 146.666, 94.784 144.118, 96.025 141.208 C 99.172 133.831, 100.721 133, 111.336 133 C 118.565 133, 120.939 132.600, 124.030 130.863 C 127.376 128.982, 127.712 128.463, 126.831 126.528 C 124.938 122.374, 120.958 121, 110.818 121 C 102.436 121, 101.248 120.770, 99.585 118.829 C 96.330 115.026, 98.087 113.788, 112.328 109.852 C 120.065 107.713, 121.616 104.098, 116.615 99.860 C 113.742 97.425, 113.490 96.705, 113.373 90.611 C 113.232 83.233, 112.001 80.985, 108.128 81.032 C 105.584 81.063, 101.531 83.353, 101.471 84.793 C 101.336 88.028, 98.469 98.196, 97.455 99.037 C 95.667 100.522, 89.764 101.250, 88.178 100.183 C 86.620 99.134, 85.058 93.016, 85.024 87.832 C 84.994 83.169, 84.158 81, 82.393 81 C 81.627 81, 81 80.550, 81 80 C 81 78.476, 78.755 78.845, 76.295 80.772" stroke="none" fill="black" fill-rule="evenodd"/>
</svg>