<svg xmlns="http://www.w3.org/2000/svg" width="256" height="256" viewBox="0 0 256 256" version="1.1">
	<path d="M 109.500 28.980 C 106.750 29.445, 101.575 29.864, 98 29.913 C 94.425 29.961, 87.909 30.688, 83.520 31.527 C 79.130 32.367, 71.632 33.332, 66.856 33.671 C 60.084 34.152, 57.622 34.751, 55.672 36.394 C 52.017 39.473, 51.458 42.458, 54.051 45.051 C 55.936 46.936, 56.909 47.124, 61.852 46.560 C 64.959 46.205, 69.859 45.452, 72.743 44.888 C 79.047 43.653, 81.760 44.344, 82.206 47.297 C 82.796 51.210, 81.841 53.874, 79.237 55.581 C 76.150 57.603, 74.611 57.751, 55.250 57.890 C 41.417 57.990, 39.814 58.186, 38 60 C 35.441 62.559, 35.443 66.443, 38.005 69.005 C 39.814 70.814, 40.868 70.951, 48.755 70.397 C 53.565 70.060, 59.867 69.124, 62.761 68.318 C 73.871 65.222, 81.117 72.416, 74.714 80.187 C 71.648 83.907, 67.685 85.164, 61.099 84.504 C 54.824 83.875, 52.544 84.984, 51.491 89.180 C 50.985 91.196, 51.416 92.182, 53.526 93.842 C 54.998 95, 57.716 96.231, 59.566 96.578 C 63.622 97.339, 65.709 99.438, 64.212 101.250 C 63.644 101.938, 62.864 104.188, 62.478 106.250 C 62.083 108.367, 61.194 110, 60.438 110 C 59.702 110, 58.740 110.636, 58.300 111.414 C 57.860 112.192, 54.350 113.583, 50.500 114.504 C 39.017 117.253, 38.622 117.420, 37.076 120.174 C 35.731 122.569, 35.768 123.154, 37.458 126.292 C 38.486 128.200, 40.624 130.528, 42.209 131.464 C 45.024 133.127, 45.179 133.102, 48.796 130.389 C 50.833 128.861, 52.860 127.023, 53.300 126.305 C 53.740 125.587, 54.569 125, 55.142 125 C 55.715 125, 57.329 124.100, 58.727 123 C 60.126 121.900, 62.618 121, 64.266 121 C 67.125 121, 67.236 121.158, 66.700 124.460 C 66.392 126.362, 66.522 129.400, 66.991 131.210 C 67.460 133.019, 68.369 137.763, 69.012 141.751 C 70.863 153.234, 70.522 153.047, 90.507 153.512 C 111.280 153.994, 136.271 152.418, 140.658 150.349 C 142.394 149.530, 144.337 147.599, 144.975 146.059 C 146.542 142.277, 146.863 122.157, 145.372 121.214 C 144.752 120.821, 143.908 118.485, 143.496 116.022 C 142.055 107.405, 139.451 105.589, 127 104.516 C 118.069 103.747, 119.914 103.710, 107 104.912 C 80.497 107.378, 80.670 107.376, 78.270 105.367 C 76.296 103.714, 76.146 103.040, 76.970 99.500 C 78.121 94.558, 81.436 91.622, 84.956 92.428 C 99.956 95.865, 103.445 96.191, 112.740 95.021 C 123.408 93.678, 129.928 91.175, 133.041 87.227 C 134.910 84.856, 135.111 83.680, 134.583 78.217 C 134.026 72.453, 134.180 71.729, 136.443 69.467 C 138.568 67.341, 139.825 67, 145.531 67 C 151.462 67, 152.448 66.705, 154.973 64.181 C 160.463 58.691, 155.630 52.686, 146.445 53.585 C 140.747 54.143, 139.522 52.465, 139.416 43.957 C 139.319 36.175, 137.104 30.549, 133.760 29.591 C 129.873 28.478, 114.731 28.096, 109.500 28.980 M 98.646 42.975 C 93.687 43.932, 92.386 45.891, 92.982 51.500 C 93.431 55.721, 94.934 56.300, 103.478 55.549 C 107.890 55.161, 114.296 54.766, 117.714 54.672 C 122.184 54.548, 124.430 53.998, 125.714 52.711 C 127.888 50.532, 128.057 44.952, 126 43.282 C 124.328 41.924, 105.195 41.709, 98.646 42.975 M 99.637 68.939 C 91.976 69.477, 90.517 69.878, 88.887 71.892 C 86.872 74.380, 86.476 77.624, 87.911 79.891 C 89.103 81.773, 107.215 84.086, 111.388 82.889 C 113.092 82.400, 116.108 82, 118.088 82 C 121.964 82, 123.698 80.595, 126.396 75.267 C 127.954 72.191, 127.936 71.936, 126.017 70.017 C 123.825 67.825, 118.565 67.610, 99.637 68.939 M 118 117.217 C 114.425 117.632, 104.444 118.346, 95.821 118.804 C 75.782 119.869, 75.508 120.058, 78.600 130.696 C 80.947 138.769, 82.249 139.689, 91.611 139.894 C 95.950 139.989, 105.883 140.280, 113.684 140.542 C 127.478 141.005, 127.943 140.953, 130.609 138.660 C 133.068 136.545, 133.378 135.553, 133.613 129.046 C 133.853 122.445, 133.654 121.584, 131.413 119.507 C 128.325 116.645, 126.141 116.272, 118 117.217" stroke="none" fill="black" fill-rule="evenodd"/>
</svg>