<svg xmlns="http://www.w3.org/2000/svg" width="256" height="256" viewBox="0 0 256 256" version="1.1">
	<path d="M 91 26.764 C 88.929 27.422, 86.049 31.145, 86.022 33.199 C 86.010 34.133, 83.273 37.733, 79.940 41.199 C 76.606 44.664, 72.300 50.086, 70.369 53.247 C 66.670 59.304, 57.037 67.299, 47.706 72.056 C 37.852 77.080, 36.717 81.168, 44.455 83.760 C 49.459 85.436, 54.326 84.071, 59.500 79.541 C 61.700 77.614, 63.809 76.030, 64.187 76.019 C 64.565 76.009, 67.040 73.988, 69.687 71.528 C 72.334 69.069, 74.801 67.044, 75.170 67.028 C 75.538 67.013, 78.086 63.911, 80.832 60.136 C 83.578 56.360, 87.428 52.280, 89.388 51.069 C 93.265 48.673, 92.275 48.464, 101.619 53.657 C 103.754 54.844, 106.251 56.644, 107.170 57.657 C 108.088 58.671, 110.869 61.694, 113.349 64.376 C 118.537 69.985, 118.289 71.664, 111.844 74.570 C 108.682 75.996, 106.083 76.165, 95.297 75.645 C 88.258 75.306, 79.800 75.359, 76.500 75.764 C 70.579 76.490, 70.488 76.550, 69.564 80.291 C 68.732 83.658, 68.903 84.358, 71.095 86.550 C 73.412 88.867, 74.429 89.057, 87.735 89.662 C 99.265 90.187, 102.709 90.016, 106.204 88.748 C 108.567 87.891, 111.687 86.926, 113.137 86.604 C 114.588 86.282, 118.188 84.199, 121.137 81.975 C 127.320 77.313, 129.565 76.554, 134.753 77.373 C 149.471 79.696, 155 79.086, 155 75.139 C 155 72.120, 146.663 66, 142.550 66 C 141.697 66, 141 65.631, 141 65.180 C 141 64.729, 137.512 62.702, 133.250 60.675 C 128.988 58.648, 123.250 54.950, 120.500 52.457 C 117.750 49.963, 112.688 46.553, 109.250 44.878 C 105.813 43.204, 102.944 41.421, 102.875 40.917 C 102.806 40.413, 102.659 39.663, 102.547 39.250 C 102.436 38.837, 101.998 36.842, 101.573 34.815 C 100.488 29.629, 95.039 25.480, 91 26.764 M 91.500 96.875 C 90.400 97.347, 87.025 97.990, 84 98.305 C 80.975 98.621, 75.191 100.256, 71.146 101.939 C 67.102 103.623, 62.970 105, 61.964 105 C 60.959 105, 59.277 106.237, 58.227 107.750 C 56.616 110.070, 56.360 111.987, 56.591 120 C 57.479 150.741, 58.006 151.968, 70.501 152.397 C 74.900 152.548, 81.606 153.204, 85.402 153.853 C 93.655 155.266, 102.370 155.426, 118.500 154.459 C 136.168 153.400, 138.952 151.379, 139.070 139.527 C 139.109 135.662, 139.478 131.639, 139.890 130.587 C 140.303 129.535, 140.230 126.290, 139.727 123.376 C 139.026 119.304, 139.149 117.407, 140.260 115.181 C 142.540 110.610, 140.418 107.867, 130.755 102.892 C 123.439 99.126, 121.420 98.554, 113 97.867 C 107.775 97.441, 101.250 96.850, 98.500 96.555 C 95.750 96.260, 92.600 96.404, 91.500 96.875 M 90.500 111.041 C 74.080 112.034, 71.443 112.621, 68.899 115.855 C 66.816 118.504, 66.799 118.895, 68.289 130.250 C 68.488 131.762, 68.729 133.891, 68.825 134.980 C 69.089 137.962, 75.470 140.652, 84 141.378 C 88.125 141.729, 94.200 142.468, 97.500 143.019 C 103.650 144.046, 118.743 143.372, 122.730 141.892 C 123.965 141.434, 125.825 139.155, 126.902 136.783 C 128.564 133.119, 128.747 131.215, 128.172 123.603 C 127.554 115.420, 127.278 114.541, 124.738 112.649 C 121.477 110.220, 111.686 109.760, 90.500 111.041" stroke="none" fill="black" fill-rule="evenodd"/>
</svg>