<svg xmlns="http://www.w3.org/2000/svg" width="256" height="256" viewBox="0 0 256 256" version="1.1">
	<path d="M 85.640 25.011 C 83.754 26.667, 81.904 29.254, 81.528 30.761 C 80.646 34.296, 73.583 43.461, 69.597 46.243 C 67.894 47.431, 66.275 48.689, 66 49.037 C 65.725 49.386, 60.325 51.595, 54 53.947 C 38.319 59.776, 35.159 62.982, 40.314 67.826 C 44.084 71.367, 52.075 70.853, 60.630 66.519 C 64.408 64.604, 67.994 63.029, 68.597 63.019 C 69.200 63.008, 70.775 63.943, 72.097 65.095 C 78.224 70.438, 85.016 71.865, 95.344 69.978 C 99.280 69.260, 105.075 67.395, 108.221 65.836 C 114.953 62.499, 120.494 62.197, 125.790 64.878 C 127.830 65.911, 130.975 67.074, 132.777 67.463 C 134.579 67.852, 138.014 69.266, 140.409 70.605 C 145.378 73.382, 147.766 72.972, 152.140 68.591 C 157.880 62.843, 155.881 58.498, 146.830 57.043 C 140.817 56.076, 126.524 50.755, 124.003 48.545 C 123.176 47.821, 120.025 45.988, 117 44.473 C 113.975 42.958, 110.825 40.991, 110 40.103 C 109.175 39.214, 107.184 37.814, 105.575 36.993 C 103.967 36.172, 100.817 32.941, 98.575 29.814 C 95.193 25.093, 91.595 22, 89.488 22 C 89.258 22, 87.526 23.355, 85.640 25.011 M 92.215 42.710 C 90.088 43.118, 82 52.100, 82 54.055 C 82 56.925, 92.438 57.931, 99 55.694 C 102.677 54.440, 104.255 50.855, 102.085 48.685 C 101.488 48.088, 101 46.779, 101 45.775 C 101 44.169, 97.133 41.749, 95.185 42.136 C 94.808 42.211, 93.472 42.469, 92.215 42.710 M 80 79.138 C 62.653 80.576, 54.093 83.194, 55.422 86.656 C 55.740 87.485, 56 88.533, 56 88.984 C 56 91.869, 76.564 93.011, 93.500 91.066 C 102.503 90.032, 107.808 90.748, 109.358 93.206 C 110.158 94.475, 109.791 96.014, 107.814 99.685 C 103.743 107.244, 100.938 108.207, 79 109.584 C 68.825 110.222, 60.399 110.802, 60.276 110.872 C 60.152 110.942, 59.369 112.319, 58.535 113.932 C 56.855 117.181, 56.487 126.976, 57.501 141.500 C 58.409 154.525, 57.977 154.252, 78.713 154.875 C 103.760 155.627, 131.987 155.159, 135.708 153.931 C 141.360 152.066, 142 150.139, 142 134.974 C 142 122.424, 141.807 121.004, 139.452 116.280 C 136.589 110.534, 133.550 108.111, 128.169 107.285 C 126.151 106.975, 123.713 106.319, 122.750 105.826 C 120.678 104.765, 120.470 101.238, 122.318 98.473 C 123.043 97.388, 124.446 94.320, 125.436 91.656 C 126.886 87.756, 127.007 86.383, 126.058 84.609 C 123.772 80.337, 121.291 79.701, 105.510 79.339 C 97.254 79.149, 90.050 78.868, 89.500 78.714 C 88.950 78.560, 84.675 78.751, 80 79.138 M 103.552 119.595 C 100.831 120.336, 93.406 121.219, 87.052 121.558 C 71.445 122.391, 69.414 123.077, 68.636 127.786 C 67.746 133.167, 67.889 138.276, 68.978 140 C 69.726 141.185, 72.718 141.561, 83.213 141.791 C 93.187 142.009, 97.935 142.570, 102.254 144.041 C 105.949 145.299, 110.685 146, 115.488 146 C 122.238 146, 123.268 145.731, 126.037 143.250 C 129.781 139.895, 131.121 134.706, 129.762 128.818 C 128.331 122.612, 127.744 121.701, 123.925 119.752 C 119.848 117.670, 110.876 117.601, 103.552 119.595" stroke="none" fill="black" fill-rule="evenodd"/>
</svg>