<svg xmlns="http://www.w3.org/2000/svg" width="256" height="256" viewBox="0 0 256 256" version="1.1">
	<path d="M 75 32.166 C 70.875 32.664, 66.196 32.828, 64.603 32.531 C 63.009 32.234, 57.635 32.513, 52.661 33.151 C 38.823 34.926, 37.984 36.337, 39.073 56 C 39.405 62.004, 38.736 81.454, 37.433 103.638 C 37.137 108.664, 37.361 116.539, 37.931 121.138 C 38.500 125.737, 39.148 132.688, 39.371 136.584 C 39.833 144.672, 41.329 147.780, 44.962 148.204 C 46.358 148.367, 57.175 148.159, 69 147.743 C 93.211 146.891, 127.492 147.598, 136.432 149.135 C 149.280 151.343, 151.749 148.722, 150.453 134.256 C 149.763 126.551, 149.747 108.115, 150.423 99.500 C 150.553 97.850, 150.249 95.284, 149.748 93.798 C 149.156 92.040, 149.271 89.073, 150.077 85.298 C 151.664 77.874, 151.905 74.980, 152.602 55 L 153.178 38.500 150.580 36.067 C 148.204 33.842, 147.021 33.605, 136.741 33.289 C 130.558 33.099, 116.876 32.507, 106.336 31.972 C 85.102 30.895, 85.539 30.892, 75 32.166 M 78.647 44.149 C 59.211 44.945, 54.324 46.114, 52.513 50.405 C 50.081 56.168, 49.267 66.419, 49.099 93.383 C 48.911 123.476, 49.461 131.112, 52.046 134.307 C 53.606 136.234, 54.979 136.542, 63.366 136.845 C 70.089 137.088, 74.329 136.731, 77.706 135.637 C 84.584 133.409, 94.485 132.538, 98.820 133.780 C 106.225 135.902, 116.464 137.267, 125.700 137.365 C 134.146 137.454, 135.281 137.253, 136.286 135.483 C 137.017 134.195, 137.473 125.258, 137.588 110 C 137.718 92.686, 138.151 85.184, 139.235 81.500 C 140.345 77.729, 140.586 73.086, 140.218 62.615 C 139.623 45.695, 139.473 45.457, 128.844 44.589 C 117.145 43.633, 95.810 43.446, 78.647 44.149 M 91.500 60 C 89.850 60.420, 86.700 60.820, 84.500 60.888 C 82.300 60.957, 79.150 61.907, 77.500 63 C 75.850 64.093, 73.503 64.990, 72.285 64.993 C 71.067 64.997, 69.653 65.787, 69.144 66.750 C 67.231 70.362, 64.728 85.821, 64.650 94.500 C 64.543 106.367, 66.784 110.770, 74.942 114.721 C 79.838 117.093, 81.601 117.398, 89.745 117.286 C 100.428 117.139, 104.653 116.032, 111.249 111.653 C 115.383 108.909, 116.274 107.671, 118.130 102.102 C 120.267 95.687, 120.307 93.140, 118.482 79.500 C 117.511 72.244, 113.735 63.065, 111.661 62.918 C 108.300 62.680, 104.290 61.730, 101.210 60.443 C 97.483 58.886, 96.122 58.824, 91.500 60 M 86 74.105 C 80.551 75.737, 76 80.671, 76 84.947 C 76 90.251, 78.697 102.125, 80.255 103.684 C 81.182 104.611, 84.712 105.120, 91.277 105.274 C 103.319 105.556, 104.935 104.444, 105.653 95.379 C 105.909 92.145, 106.467 87.437, 106.892 84.916 C 107.795 79.571, 106.933 76.570, 104.051 75.027 C 101.081 73.438, 90.100 72.877, 86 74.105" stroke="none" fill="black" fill-rule="evenodd"/>
</svg>