<svg xmlns="http://www.w3.org/2000/svg" width="256" height="256" viewBox="0 0 256 256" version="1.1">
	<path d="M 71 26.612 C 60.275 27.376, 48.854 28.196, 45.620 28.433 C 36.781 29.082, 34.219 30.479, 32.894 35.369 C 31.218 41.556, 32.375 123.252, 34.330 136.785 C 36.727 153.377, 39.174 155.607, 53.756 154.494 C 59.115 154.085, 82.400 153.694, 105.500 153.625 C 151.840 153.487, 151.939 153.474, 154.514 147.313 C 158.672 137.361, 159.630 42.460, 155.657 34.120 C 154.035 30.716, 150.263 29.458, 135 27.230 C 118.669 24.847, 98.497 24.652, 71 26.612 M 102.413 40.027 C 98.204 40.918, 97 41.794, 97 43.961 C 97 46.456, 101.824 48.107, 110.500 48.582 C 120.939 49.153, 125.192 51.092, 127.900 56.515 C 129.238 59.193, 129.881 61.798, 129.501 62.997 C 129.012 64.536, 129.319 65, 130.826 65 C 132.746 65, 134 66.795, 134 69.543 C 134 74.558, 122.446 77.452, 113.579 74.656 C 106.345 72.376, 91.548 72.398, 69 74.721 C 57.425 75.913, 54 74.783, 54 69.771 C 54 66.975, 55.710 65, 58.133 65 C 60.147 65, 61.408 61.861, 60.519 59.060 C 59.732 56.581, 63.790 50.113, 66.500 49.527 C 67.600 49.288, 70.525 48.879, 73 48.617 C 75.475 48.354, 79.185 47.428, 81.245 46.558 C 83.305 45.689, 85.218 44.982, 85.495 44.989 C 85.773 44.995, 86.450 45, 87 45 C 87.550 45, 88 44.346, 88 43.547 C 88 41.206, 81.401 40.012, 68.432 40.006 C 55.052 39.999, 46.726 41.775, 44.999 45.002 C 43.778 47.283, 43.729 94.775, 44.921 120.821 C 45.554 134.660, 46.037 138.465, 47.324 139.752 C 49.039 141.468, 60.326 142.419, 67 141.410 C 71.170 140.779, 75.010 138.259, 73.399 137.211 C 71.962 136.275, 70.861 131.753, 70.466 125.156 C 70.289 122.217, 69.863 119.530, 69.519 119.185 C 69.174 118.841, 65.755 118.382, 61.920 118.165 C 56.258 117.845, 54.751 117.402, 53.897 115.808 C 52.357 112.930, 53.363 111.381, 58.191 109.197 C 60.561 108.125, 63.512 106.275, 64.748 105.087 C 66.923 102.996, 66.940 102.836, 65.272 100.212 C 64.323 98.721, 63.141 97.213, 62.645 96.862 C 62.149 96.511, 62.047 95.733, 62.418 95.132 C 62.789 94.532, 62.551 93.029, 61.889 91.792 C 60.123 88.493, 59.954 83.283, 61.570 81.942 C 62.923 80.819, 73.356 79.772, 81.500 79.942 C 99.252 80.312, 125.811 81.721, 127.173 82.364 C 130.344 83.863, 133.390 93.276, 131.361 95.306 C 129.676 96.991, 130.500 104.708, 132.811 108.880 C 134.851 112.563, 135.118 113.994, 134.492 117.880 C 134.083 120.421, 133.692 123.893, 133.624 125.596 C 133.482 129.142, 131.490 132, 129.159 132 C 127.649 132, 123 127.473, 123 126.003 C 123 125.089, 116.592 123.268, 111 122.592 C 99.471 121.199, 98.032 121.108, 98.196 121.781 C 98.540 123.191, 94.948 130.318, 93.239 131.616 C 92.283 132.342, 90.513 132.951, 89.307 132.968 C 87.553 132.994, 81.420 135.838, 79.029 137.735 C 77.584 138.882, 82.354 139.806, 89.898 139.841 C 94.629 139.863, 101.425 140.564, 105 141.398 C 109.796 142.518, 115.169 142.798, 125.500 142.468 C 133.200 142.222, 140.051 142.016, 140.724 142.010 C 143.560 141.986, 144.850 136.491, 144.927 124.110 C 144.969 117.358, 145.251 110.848, 145.553 109.644 C 146.473 105.980, 146.677 74.419, 145.883 58.536 C 145.276 46.392, 144.825 43.346, 143.491 42.369 C 141.018 40.561, 108.612 38.713, 102.413 40.027 M 101.250 57.992 C 100.013 58.511, 98.967 59.288, 98.926 59.718 C 98.885 60.148, 98.663 61.513, 98.432 62.750 C 98.036 64.872, 98.339 64.999, 103.756 64.986 C 106.915 64.979, 110.481 64.709, 111.681 64.388 C 114.395 63.660, 115.496 61.053, 113.787 59.400 C 112.052 57.721, 104.041 56.821, 101.250 57.992 M 74.206 59.697 C 71.377 60.852, 71.086 61.292, 72.008 63.014 C 73.415 65.643, 82.430 65.927, 83.410 63.373 C 84.844 59.637, 79.543 57.520, 74.206 59.697 M 91.446 91.087 C 90.485 92.643, 91.977 93.727, 96 94.394 C 97.925 94.714, 101.851 95.517, 104.724 96.180 C 110.240 97.452, 111.624 97.069, 110.655 94.543 C 110.289 93.590, 108.808 92.995, 106.781 92.988 C 104.977 92.982, 101.025 92.312, 98 91.500 C 94.975 90.688, 92.414 90.018, 92.309 90.012 C 92.204 90.005, 91.816 90.489, 91.446 91.087 M 78 92.583 L 75.500 93.971 78.750 93.985 C 80.537 93.993, 82 93.523, 82 92.941 C 82 92.359, 82.450 92.160, 83 92.500 C 83.550 92.840, 84 92.641, 84 92.059 C 84 90.630, 81.058 90.887, 78 92.583 M 113 103.417 C 113 104.196, 112.489 105.004, 111.864 105.212 C 110.038 105.821, 113.020 109.771, 115.690 110.281 C 121.997 111.487, 125.601 107.601, 121.750 103.750 C 119.588 101.588, 113 101.337, 113 103.417 M 85.502 107.604 C 83.304 108.408, 80.858 109.713, 80.068 110.504 C 77.906 112.665, 80.390 116.539, 85.161 118.448 C 91.451 120.965, 102.367 120.199, 98.069 117.543 C 97.218 117.017, 97.433 113.281, 98.487 110.277 C 99.081 108.586, 95.088 105.985, 92.027 106.070 C 90.637 106.109, 87.701 106.799, 85.502 107.604" stroke="none" fill="black" fill-rule="evenodd"/>
</svg>