<svg xmlns="http://www.w3.org/2000/svg" width="256" height="256" viewBox="0 0 256 256" version="1.1">
	<path d="M 117.382 24.909 C 115.668 25.954, 113.971 27.978, 113.613 29.405 C 112.899 32.249, 113.762 37, 114.992 37 C 115.418 37, 116.007 38.237, 116.300 39.750 C 117.493 45.907, 110.137 49.517, 94.500 50.449 C 79.235 51.360, 78.776 51.606, 75.481 60.641 C 72.801 67.989, 72.761 68.441, 73.287 85.313 C 73.582 94.766, 73.916 102.950, 74.030 103.500 C 74.651 106.504, 73.789 111.068, 72.323 112.534 C 71.009 113.848, 69.288 114.124, 64.362 113.810 C 60.905 113.590, 57.760 113.094, 57.374 112.707 C 56.239 111.573, 56.116 94.109, 57.189 86.500 C 58.240 79.044, 60.116 75, 62.523 75 C 64.541 75, 64.384 73.323, 62.250 72.080 C 61.288 71.519, 60.852 71.047, 61.282 71.030 C 61.713 71.014, 60.155 68.470, 57.820 65.378 C 53.974 60.284, 53.597 59.275, 53.803 54.628 C 54.023 49.651, 52.489 39.795, 51.096 37.240 C 50.002 35.234, 47.045 37.961, 46.475 41.502 C 46.210 43.151, 45.487 46.407, 44.870 48.738 C 44.016 51.959, 44.039 53.680, 44.964 55.914 C 45.634 57.530, 45.878 59.811, 45.506 60.982 C 44.569 63.932, 37.275 69, 33.965 69 C 29.791 69, 27.861 72.554, 29.479 77.261 C 30.172 79.278, 30.498 81.169, 30.203 81.464 C 29.908 81.759, 30.500 82, 31.519 82 C 32.538 82, 34.396 81.037, 35.648 79.861 C 37.790 77.848, 38.072 77.817, 40.386 79.334 C 46.070 83.057, 46.570 108.873, 41.090 115.641 C 40.159 116.790, 37.283 118.666, 34.699 119.809 C 29.426 122.141, 28.612 124.612, 32 128 C 34.388 130.388, 37.021 130.504, 43.591 128.511 C 50.038 126.555, 57.649 126.679, 62 128.811 L 65.500 130.526 65.217 138.013 C 64.987 144.112, 65.282 145.939, 66.810 147.867 C 68.220 149.647, 69.239 150.059, 70.917 149.526 C 73.775 148.619, 77 141.234, 77 135.597 C 77 132.366, 77.667 130.613, 79.811 128.212 C 82.207 125.528, 82.890 123.354, 84.436 113.496 C 85.434 107.135, 85.999 100.383, 85.692 98.492 C 84.921 93.741, 87.469 90.578, 91.294 91.538 C 95.662 92.634, 97 95.527, 97 103.873 C 97 109.887, 96.493 112.336, 94.339 116.740 C 91.243 123.068, 91.826 126.863, 96.127 128.376 C 101.171 130.149, 103.885 128.470, 107.108 121.582 C 108.742 118.092, 110.344 113.046, 110.669 110.368 C 110.994 107.691, 111.368 104.825, 111.500 104 C 111.632 103.175, 111.348 101.741, 110.869 100.814 C 110.390 99.887, 109.807 96.062, 109.572 92.314 C 109.207 86.481, 108.695 84.960, 106.016 81.750 C 103.553 78.798, 102.181 78, 99.566 78 C 97.739 78, 95.685 78.675, 95 79.500 C 92.953 81.966, 88.466 81.361, 86.495 78.352 C 85.128 76.265, 84.897 74.529, 85.410 70.168 C 86.320 62.425, 87.218 61.619, 93.966 62.488 C 97.010 62.879, 101.809 63.134, 104.632 63.053 C 109.696 62.909, 113 64.563, 113 67.243 C 113 67.848, 113.787 69.212, 114.750 70.275 C 115.982 71.635, 116.705 74.768, 117.193 80.854 C 118.680 99.391, 119.147 103.407, 120.004 105.008 C 120.493 105.921, 121.024 110.301, 121.184 114.742 C 121.420 121.288, 121.146 123.181, 119.738 124.737 C 118.782 125.793, 118 127.185, 118 127.829 C 118 128.473, 117.622 129, 117.161 129 C 116.699 129, 115.478 130.735, 114.447 132.855 C 113.415 134.975, 111.655 137.113, 110.536 137.605 C 108.010 138.715, 104.742 145.164, 105.588 147.368 C 106.708 150.286, 112.902 149.350, 121.257 145 C 128.601 141.176, 133 140.002, 133 141.867 C 133 142.906, 140.291 147.949, 144.500 149.821 C 147.663 151.228, 155.769 150.729, 159.150 148.920 C 163.770 146.447, 163.476 139.567, 158.539 134.630 L 156.265 132.356 151.004 134.678 C 147.345 136.293, 143.853 137, 139.533 137 C 133.370 137, 133.323 136.978, 133.542 134.250 C 133.829 130.657, 137.011 115.807, 137.771 114.508 C 138.096 113.954, 140.735 111.324, 143.635 108.665 C 152.550 100.492, 156.591 91.255, 153.993 84.983 C 152.447 81.250, 148.222 80.914, 144.785 84.250 C 141.395 87.542, 137 94.346, 137 96.304 C 137 99.114, 134.102 98.216, 131.988 94.750 C 130.898 92.963, 129.742 89.925, 129.419 88 C 129.096 86.075, 128.371 82.996, 127.808 81.158 C 126.704 77.556, 126.584 66.506, 127.604 62.443 C 128.590 58.513, 130.989 57.833, 139.009 59.208 C 145.813 60.375, 146.328 60.323, 150.668 58.020 C 153.165 56.695, 155.840 54.648, 156.612 53.469 C 158.567 50.485, 157.444 46.004, 153.751 42.052 C 152.065 40.249, 150.132 37.136, 149.455 35.136 C 147.961 30.726, 143.872 27.964, 141.259 29.602 C 138.709 31.200, 138.604 34.234, 140.952 38.415 L 143.011 42.080 140.551 44.540 C 137.442 47.649, 133.352 47.710, 128.898 44.716 C 124.951 42.062, 124.254 39.343, 126.439 35.117 C 128.610 30.920, 128.400 28.911, 125.460 25.740 C 122.450 22.494, 121.502 22.397, 117.382 24.909" stroke="none" fill="black" fill-rule="evenodd"/>
</svg>