<svg xmlns="http://www.w3.org/2000/svg" width="256" height="256" viewBox="0 0 256 256" version="1.1">
	<path d="M 110.947 26.899 C 107.780 30.066, 107.294 33.052, 108.986 38.953 C 109.748 41.609, 109.631 42.914, 108.473 44.682 C 105.766 48.813, 102.703 50.025, 94.057 50.385 C 84.238 50.794, 83.410 51.443, 80.038 61.356 C 77.959 67.467, 77.832 68.759, 78.867 73.244 C 79.506 76.011, 80.312 84.188, 80.659 91.414 C 81.284 104.461, 81.271 104.574, 78.745 107.510 L 76.202 110.467 72.567 108.733 C 70.568 107.780, 67.163 107, 65.001 107 C 60.143 107, 58.970 105.180, 59.079 97.816 C 59.162 92.225, 61.146 79.378, 62 78.901 C 62.949 78.370, 65.553 80.508, 67.297 83.250 C 68.906 85.779, 71.878 87.019, 72.090 85.250 C 72.236 84.031, 72.990 76.741, 73.305 73.500 C 73.686 69.577, 71.649 68.072, 65.905 68.032 C 58.283 67.979, 55.939 63.823, 55.683 49.904 C 55.501 39.960, 54.820 38.063, 51.417 38.015 C 50.262 37.999, 48.365 45.678, 47.098 55.500 C 46.673 58.800, 45.989 62.261, 45.578 63.190 C 44.413 65.828, 40.439 67.978, 35.467 68.660 C 32.360 69.085, 30.578 69.919, 29.844 71.291 C 28.565 73.681, 29.504 82.076, 31.166 83.102 C 32.708 84.056, 36.833 82.093, 37.479 80.098 C 37.764 79.219, 39.066 78.006, 40.373 77.403 C 42.457 76.441, 42.944 76.634, 44.324 78.971 C 47.734 84.743, 49.111 103.404, 46.576 109.473 C 45.449 112.171, 44.304 113.110, 41.092 113.975 C 38.859 114.577, 35.787 116.151, 34.266 117.474 C 29.299 121.793, 33.590 124.838, 45.035 125.117 C 49.259 125.220, 51.839 124.608, 55.929 122.536 C 60.103 120.421, 62.861 119.784, 68.395 119.660 C 74.975 119.512, 75.478 119.648, 75.205 121.500 C 74.670 125.129, 72.778 129, 71.539 129 C 70.238 129, 68 133.140, 68 135.547 C 68 136.346, 67.550 137, 67 137 C 66.450 137, 66.010 138.688, 66.022 140.750 C 66.046 144.691, 68.462 148.716, 71 149.044 C 76.193 149.713, 77.706 147.789, 80.509 136.956 C 81.427 133.405, 82.611 129.977, 83.140 129.337 C 83.669 128.697, 84.313 127.006, 84.571 125.580 C 85.312 121.496, 94.040 105, 95.460 105 C 96.223 105, 97.205 107.365, 97.892 110.855 C 98.787 115.407, 99.855 117.522, 102.688 120.355 C 104.693 122.360, 106.708 124, 107.167 124 C 107.625 124, 108 125.125, 108 126.500 C 108 127.875, 108.450 129, 109 129 C 110.440 129, 110.234 134.567, 108.750 135.762 C 108.063 136.316, 105.982 137.094, 104.127 137.491 C 94.717 139.505, 88.951 147.094, 93.429 151.571 C 95.995 154.138, 100.563 153.096, 111.279 147.500 C 122.349 141.720, 125.210 141.058, 128.665 143.478 C 132.467 146.141, 146.650 152.897, 149.538 153.421 C 151.190 153.721, 154.155 153.140, 156.681 152.023 C 164.388 148.614, 161.691 144.409, 149 140.049 C 145.425 138.821, 140.159 137.572, 137.297 137.273 C 131.194 136.636, 130.469 135.305, 133.198 129.750 C 134.212 127.688, 134.783 126, 134.468 126 C 134.153 126, 135.343 123.412, 137.111 120.250 C 138.880 117.088, 141.615 112.032, 143.190 109.015 C 144.765 105.998, 147.595 101.948, 149.480 100.015 C 152.893 96.513, 152.900 96.487, 151.286 93.164 C 149.611 89.714, 145.969 86.721, 143.129 86.463 C 142.233 86.381, 139.025 85.944, 136 85.491 C 132.975 85.038, 129.131 84.769, 127.458 84.893 C 125.468 85.040, 123.787 84.422, 122.597 83.107 C 120.977 81.317, 120.857 79.980, 121.505 70.932 C 122.076 62.947, 122.638 60.362, 124.126 58.874 C 125.900 57.100, 126.254 57.079, 129.759 58.542 C 135.817 61.070, 137.786 62.747, 138.498 65.990 C 139.936 72.540, 146.178 76.965, 149.413 73.729 C 151.529 71.614, 153.132 68.023, 152.452 66.922 C 151.573 65.501, 152.694 61.449, 154.452 59.691 C 157.336 56.807, 157.417 53.220, 154.654 50.767 C 152.280 48.659, 151.192 48.500, 139.141 48.500 C 126.856 48.500, 126.048 48.376, 123.628 46.110 C 121.332 43.963, 121.045 42.856, 120.787 35.181 L 120.500 26.641 117.197 25.296 C 114.056 24.017, 113.751 24.095, 110.947 26.899 M 96.269 62.024 C 93.246 63.240, 91.368 68.233, 91.109 75.743 C 90.918 81.298, 91.184 82.275, 93.520 84.611 C 95.877 86.968, 96.714 87.188, 101.739 86.772 C 107.715 86.276, 111.136 83.728, 110.488 80.254 C 110.308 79.289, 109.591 75.180, 108.896 71.122 C 107.708 64.193, 107.431 63.660, 104.348 62.372 C 100.615 60.812, 99.411 60.760, 96.269 62.024 M 117.134 97.519 C 107.993 99.533, 103.774 102.654, 107.427 104.700 C 108.212 105.140, 110.197 108.206, 111.838 111.514 C 115.616 119.130, 118.078 121.448, 121.480 120.594 C 125.200 119.661, 129 115.995, 129 113.340 C 129 112.075, 129.721 109.239, 130.602 107.037 C 132.108 103.272, 132.090 102.839, 130.303 99.767 C 128.050 95.895, 126.053 95.554, 117.134 97.519" stroke="none" fill="black" fill-rule="evenodd"/>
</svg>