<svg xmlns="http://www.w3.org/2000/svg" width="256" height="256" viewBox="0 0 256 256" version="1.1">
	<path d="M 88.759 21.250 C 87.950 22.488, 86.991 24.441, 86.627 25.592 C 86.263 26.742, 84.961 28.610, 83.733 29.743 C 81.816 31.511, 79.914 31.854, 70.305 32.165 C 60.873 32.471, 58.667 32.857, 56.305 34.614 C 54.762 35.762, 53.366 37.595, 53.202 38.688 C 52.616 42.592, 55.327 43.368, 70.122 43.531 C 84.628 43.691, 87.528 44.454, 85.035 47.458 C 84.274 48.375, 82.141 49, 79.772 49 C 77.581 49, 73.174 49.678, 69.977 50.506 C 66.142 51.500, 60.538 51.925, 53.499 51.756 C 43.344 51.512, 42.739 51.613, 40.916 53.861 C 38.535 56.794, 38.485 59.134, 40.750 61.597 C 42.559 63.564, 47.568 63.752, 49.450 61.923 C 51.135 60.286, 54.594 60.938, 56.826 63.314 C 61.298 68.075, 58.192 73.547, 50.856 73.835 C 48.025 73.945, 46.154 74.669, 44.869 76.151 C 42.613 78.752, 42.609 78.243, 44.910 80.896 C 46.540 82.776, 47.569 83.029, 51.916 82.626 C 56.016 82.245, 57.157 82.479, 57.760 83.826 C 58.958 86.505, 58.576 89.473, 56.468 93.872 C 54.552 97.868, 53 99.193, 53 96.833 C 53 96.192, 52.718 95.949, 52.373 96.293 C 52.028 96.638, 50.476 96.263, 48.923 95.460 C 47.370 94.657, 44.986 94, 43.626 94 C 39.168 94, 32.952 100.885, 34.873 103.697 C 35.218 104.203, 36.566 105.345, 37.869 106.235 C 40.435 107.989, 41.259 107.786, 51.592 102.846 C 54.641 101.388, 56.936 101.027, 60.592 101.428 C 63.292 101.724, 69.775 102.194, 75 102.472 C 80.225 102.751, 85.850 103.395, 87.500 103.903 L 90.500 104.828 87.705 104.914 C 86.168 104.961, 80.318 106.152, 74.705 107.560 C 66.480 109.624, 61.919 110.139, 51.200 110.216 C 38.288 110.310, 37.842 110.385, 35.950 112.791 C 33.440 115.982, 33.453 119.637, 35.981 120.990 C 37.917 122.026, 52.870 121.714, 61.500 120.457 C 67.142 119.635, 69.772 121.649, 68.239 125.616 C 67.627 127.202, 66.832 129.982, 66.473 131.794 C 65.602 136.199, 63.689 137.794, 52.573 143.386 C 47.382 145.997, 42.588 148.792, 41.920 149.596 C 40.044 151.857, 42.370 155.839, 46.599 157.606 C 50.022 159.036, 50.438 158.980, 55.278 156.450 C 62.331 152.762, 70.341 146.551, 73.684 142.178 C 77.910 136.651, 81.415 128.928, 81.460 125.042 C 81.512 120.558, 84.435 118.994, 92.500 119.133 C 98.754 119.241, 104.500 120.151, 104.500 121.033 C 104.500 121.315, 103.327 123.045, 101.894 124.877 L 99.287 128.207 101.507 130.602 C 102.756 131.950, 104.285 135.632, 105.006 139.030 C 106.349 145.359, 110.137 150, 113.958 150 C 114.950 150, 118.751 151.125, 122.404 152.500 C 126.057 153.875, 130.149 155, 131.497 155 C 136.391 155, 157.244 149.049, 158.597 147.266 C 160.836 144.315, 160.367 136.420, 157.811 134.039 C 154.559 131.009, 151.967 131.537, 147.819 136.075 L 144.094 140.150 132.297 139.447 C 125.809 139.060, 119.749 138.355, 118.831 137.880 C 116.223 136.530, 115.369 130.935, 117.530 129.354 C 118.849 128.390, 119.021 127.730, 118.206 126.748 C 117.606 126.026, 116.654 124.220, 116.090 122.735 C 114.378 118.235, 117.125 117.500, 135.661 117.500 C 144.549 117.500, 152.119 117.205, 152.483 116.844 C 154.172 115.170, 153.984 110.202, 152.146 107.932 C 150.050 105.344, 150.440 105.366, 104 105.121 C 94.694 105.071, 90.966 104.741, 92 104.055 C 92.825 103.509, 95.975 103.094, 99 103.134 C 102.025 103.174, 106.075 102.532, 108 101.708 C 109.925 100.883, 113.975 99.691, 117 99.059 C 120.025 98.426, 123.719 97.656, 125.208 97.347 C 127.011 96.973, 129.072 97.500, 131.374 98.922 C 136.060 101.818, 147.220 102.923, 149.433 100.710 C 152.362 97.781, 150.907 93.609, 146.056 91.024 C 143.663 89.749, 133.606 89.366, 130.214 90.421 C 128.020 91.104, 126.755 90.173, 125.265 86.782 C 124.211 84.379, 124.326 83.885, 126.258 82.532 C 127.596 81.594, 130.640 81, 134.100 81 C 139.945 81, 141.732 79.987, 142.449 76.267 C 143.118 72.791, 141.426 71.745, 134.042 71.068 C 126.089 70.339, 124.662 69.230, 125.595 64.500 C 126.515 59.839, 128.427 59, 138.134 59 C 146.045 59, 147.036 58.786, 148.443 56.777 C 150.768 53.459, 150.446 50.127, 147.750 49.590 C 142.484 48.542, 129.929 47.022, 122.614 46.547 C 116.726 46.165, 113.904 46.426, 111.478 47.577 C 107.251 49.583, 99.100 49.130, 97.644 46.809 C 96.836 45.519, 97.016 44.640, 98.403 43.107 C 100.062 41.274, 101.071 41.147, 109.861 41.665 C 121.022 42.323, 130.586 40.858, 133.382 38.063 C 135.059 36.385, 135.146 35.766, 134.065 33.157 C 133.335 31.396, 131.531 29.629, 129.664 28.849 C 126.100 27.359, 118.303 27.415, 113.608 28.964 C 107.682 30.920, 102.207 30.543, 99.493 27.994 C 98.126 26.710, 97.237 25.429, 97.518 25.149 C 98.243 24.424, 92.870 19, 91.428 19 C 90.769 19, 89.568 20.012, 88.759 21.250 M 86.500 61 C 84.850 61.420, 81.432 61.817, 78.905 61.882 C 73.860 62.012, 70.562 64.484, 71.176 67.676 C 71.453 69.116, 72.893 69.663, 78.014 70.272 C 86.792 71.316, 90.308 75.461, 86.654 80.458 C 85.556 81.960, 84.098 82.265, 78.733 82.118 C 74.999 82.015, 71.875 82.393, 71.505 82.992 C 71.146 83.572, 71.446 85.386, 72.171 87.023 C 73.369 89.730, 73.924 90, 78.294 90 C 82.433 90, 83.599 90.486, 86.703 93.500 C 88.685 95.425, 90.672 97, 91.119 97 C 91.565 97, 93.409 95.716, 95.215 94.147 C 99.779 90.183, 102.321 89, 106.279 89 C 109.884 89, 113.720 85.974, 112.539 84.063 C 112.178 83.478, 109.759 83, 107.163 83 C 101.227 83, 98 80.883, 98 76.987 C 98 74.454, 98.883 73.572, 105 70 C 111.992 65.917, 113.392 63.792, 110.800 61.200 C 109.457 59.857, 91.569 59.710, 86.500 61" stroke="none" fill="black" fill-rule="evenodd"/>
</svg>