<svg xmlns="http://www.w3.org/2000/svg" width="256" height="256" viewBox="0 0 256 256" version="1.1">
	<path d="M 90.039 20.189 C 88.918 21.392, 88 22.946, 88 23.642 C 88 28.773, 83.315 32.125, 76.500 31.869 C 70.089 31.629, 57.977 33.019, 51.721 34.714 C 46.159 36.221, 41.116 40.245, 40.928 43.327 C 40.889 43.972, 40.716 54.400, 40.544 66.500 C 40.373 78.600, 39.743 92.775, 39.146 98 C 38.549 103.225, 37.633 111.550, 37.110 116.500 C 36.557 121.737, 35.239 127.558, 33.956 130.423 C 31.038 136.945, 31.111 143.836, 34.126 146.292 C 35.336 147.278, 37.040 147.953, 37.913 147.792 C 39.700 147.463, 43.401 140.537, 45.014 134.500 C 45.602 132.300, 46.515 129.600, 47.042 128.500 C 48.181 126.126, 50.225 106.472, 50.386 96.355 C 50.474 90.843, 50.935 88.730, 52.405 87.105 C 54.984 84.256, 60.613 84.288, 63.681 87.170 L 65.991 89.340 63.552 93.501 C 60.974 97.900, 59.360 106.315, 60.344 110.233 C 61.373 114.335, 70.025 116.299, 74.979 113.557 C 77.086 112.391, 77.865 112.396, 80.179 113.593 C 81.676 114.367, 85.203 115, 88.016 115 C 93.184 115, 97 116.281, 97 118.015 C 97 120.413, 88.511 123.222, 80.079 123.613 C 75.361 123.832, 70.174 124.241, 68.552 124.520 C 64.930 125.145, 60.407 127.986, 61.641 128.859 C 62.139 129.212, 63.303 130.691, 64.228 132.147 C 65.643 134.372, 66.912 134.912, 72.205 135.543 C 75.667 135.955, 79.406 136.400, 80.512 136.532 C 81.619 136.664, 85.156 136.359, 88.372 135.855 C 95.455 134.744, 97.511 135.785, 95.773 139.600 C 94.336 142.753, 91.573 143.392, 84.797 142.140 C 81.537 141.537, 77.749 141.474, 75.415 141.983 C 73.262 142.453, 68.800 143.348, 65.500 143.971 C 51.246 146.664, 52.534 145.977, 52.203 151.068 C 51.937 155.150, 52.181 155.761, 54.500 156.818 C 59.108 158.918, 82.764 158.334, 92.201 155.888 C 98.706 154.202, 101.775 153.919, 107.424 154.485 C 119.864 155.731, 146.442 155.171, 149.474 153.598 C 153.065 151.735, 155.018 148.785, 154.351 146.233 C 153.321 142.296, 138.247 140.555, 119 142.150 C 111.774 142.749, 109 141.446, 109 137.452 C 109 136.221, 109.787 134.899, 110.750 134.513 C 112.460 133.828, 124.289 132.946, 130.735 133.022 C 132.515 133.043, 135.862 132.147, 138.173 131.030 C 140.485 129.914, 143.929 129, 145.827 129 L 149.279 129 145.890 126.717 C 141.282 123.615, 134.114 121, 130.217 121 C 128.447 121, 127 120.619, 127 120.154 C 127 119.689, 128.238 119.387, 129.750 119.483 C 131.262 119.579, 133.850 119.234, 135.500 118.715 C 137.150 118.197, 141.507 117.405, 145.182 116.955 C 154.409 115.825, 158.455 111.370, 154.361 106.847 C 152.738 105.053, 151.352 104.906, 137.767 105.084 C 129.615 105.190, 122.671 105.004, 122.337 104.670 C 122.003 104.336, 122.436 102.984, 123.299 101.666 C 124.637 99.624, 125.583 99.301, 129.685 99.480 C 134.054 99.671, 143.046 97.339, 142.968 96.034 C 142.897 94.838, 140.348 92.245, 138 90.980 C 136.625 90.240, 132.356 89.604, 128.514 89.567 C 122.575 89.510, 121.474 89.226, 121.176 87.674 C 120.716 85.285, 123.529 83.280, 128.500 82.456 C 130.700 82.091, 133.850 81.200, 135.500 80.476 C 137.150 79.752, 139.460 78.885, 140.634 78.549 C 144.363 77.483, 148.973 72.254, 149.247 68.779 C 149.470 65.946, 149.148 65.491, 146.500 64.903 C 144.850 64.537, 144.030 64.183, 144.679 64.118 C 146.688 63.917, 149 60.966, 149 58.603 C 149 52.838, 138.832 49.404, 124.378 50.287 C 118.378 50.654, 115.217 50.123, 113.131 48.400 C 112.928 48.232, 113.402 47.455, 114.185 46.673 C 116.446 44.411, 125.212 43, 137.002 43 C 142.999 43, 149.002 42.500, 150.343 41.890 C 155.071 39.735, 155.470 34.602, 151.157 31.392 C 149.267 29.985, 117.479 28.867, 114.251 30.095 C 109.672 31.836, 105.169 31.909, 103.804 30.264 C 103.087 29.400, 102.607 28.424, 102.738 28.096 C 103.165 27.026, 101.779 23.558, 99.801 20.750 C 97.374 17.304, 92.962 17.051, 90.039 20.189 M 91.500 41.813 C 84.175 43.219, 79.861 48.785, 84.268 51.143 C 88.551 53.436, 104.681 47.937, 103.407 44.619 C 102.347 41.855, 97.379 40.685, 91.500 41.813 M 57.028 45.056 C 53.884 46.384, 51 49.459, 51 51.483 C 51 55.307, 62.058 55.630, 68.478 51.993 C 71.375 50.352, 72.040 47.762, 70.090 45.723 C 68.840 44.417, 59.652 43.948, 57.028 45.056 M 92.265 64.291 C 85.382 65.158, 83.925 65.661, 83.388 67.352 C 82.448 70.314, 86.246 73.002, 91.361 72.993 C 95.548 72.987, 98.795 71.357, 102.804 67.250 C 104.500 65.513, 106.133 65, 109.974 65 C 114.490 65, 115.092 65.277, 116.500 68 C 117.353 69.650, 118.602 71.046, 119.276 71.101 C 125.598 71.625, 134 68.991, 134 66.487 C 134 65.490, 135.072 64.977, 137.250 64.930 C 139.723 64.876, 140.050 64.683, 138.617 64.120 C 135.743 62.991, 101.579 63.118, 92.265 64.291 M 56.824 66.457 C 52.937 67.395, 52.468 67.828, 52.187 70.743 C 51.930 73.406, 52.332 74.194, 54.434 75.152 C 59.040 77.251, 70 72.427, 70 68.301 C 70 66.756, 66.131 65.039, 63.156 65.263 C 62.051 65.346, 59.202 65.884, 56.824 66.457 M 80 82.752 C 77.476 84.012, 76.412 85.265, 76.184 87.242 C 75.698 91.470, 79.246 92.652, 86.284 90.606 C 93.523 88.502, 97.569 88.578, 101.382 90.893 C 105.602 93.455, 108.659 92.296, 108.778 88.089 C 108.892 84.105, 106.750 82.963, 99.891 83.351 C 96.828 83.524, 93.483 83.091, 92.029 82.332 C 88.554 80.519, 84.163 80.672, 80 82.752 M 77.200 102.200 C 75.479 103.921, 75.711 108.675, 77.552 109.382 C 78.442 109.723, 78.843 109.555, 78.493 108.989 C 78.157 108.445, 78.535 108, 79.334 108 C 80.133 108, 81.045 107.325, 81.362 106.500 C 81.678 105.675, 82.851 105, 83.969 105 C 86.462 105, 86.555 104.142, 84.250 102.392 C 82.050 100.722, 78.767 100.633, 77.200 102.200 M 103.293 102.989 C 103.007 104.083, 102.375 104.732, 101.889 104.432 C 101.383 104.119, 101.369 104.870, 101.858 106.193 C 102.327 107.462, 102.625 109.513, 102.522 110.750 C 102.391 112.323, 102.878 113, 104.141 113 C 105.135 113, 106.589 114.239, 107.372 115.752 C 109.949 120.736, 111.865 121.615, 119.250 121.205 C 124.198 120.930, 126 120.455, 126 119.426 C 126 117.164, 122.736 114, 120.403 114 C 113.156 114, 110.961 112.054, 109.398 104.242 C 108.877 101.637, 108.265 101, 106.281 101 C 104.658 101, 103.635 101.681, 103.293 102.989" stroke="none" fill="black" fill-rule="evenodd"/>
</svg>