<svg xmlns="http://www.w3.org/2000/svg" width="256" height="256" viewBox="0 0 256 256" version="1.1">
	<path d="M 88.366 26.564 C 86.923 28.767, 86.849 29.834, 87.843 34.140 C 89.437 41.045, 89.294 44.622, 87.303 47.660 C 85.665 50.160, 85.361 50.228, 78.586 49.598 C 69.332 48.738, 67.456 47.395, 65.920 40.533 C 64.244 33.045, 61.672 29, 58.586 29 C 55.610 29, 53.048 31.382, 52.863 34.321 C 52.720 36.588, 52.810 37.735, 53.671 44.665 C 54.115 48.245, 53.856 49.048, 51.831 50.375 C 50.535 51.225, 47.178 52.412, 44.373 53.014 C 40.959 53.746, 38.327 55.093, 36.418 57.086 C 33.613 60.013, 33.569 60.239, 33.849 70.261 C 34.006 75.869, 34.609 81.029, 35.190 81.728 C 35.770 82.428, 37.546 83, 39.137 83 C 42.537 83, 45.990 78.293, 45.996 73.651 C 46.002 69.489, 48.942 63.972, 51.718 62.917 C 53.045 62.413, 55.531 62, 57.244 62 C 58.957 62, 61.784 61.484, 63.526 60.854 C 66.326 59.842, 67.295 60.036, 71.865 62.523 L 77.035 65.337 81.268 63.224 C 84.820 61.451, 87.268 61.117, 96.500 61.142 C 109.204 61.176, 113.041 61.687, 112.725 63.300 C 112.601 63.934, 113.513 64.607, 114.750 64.796 C 116.459 65.056, 117 64.649, 117 63.105 C 117 60.470, 119.171 59.377, 127.177 57.983 C 131.926 57.156, 134.811 57.141, 137.738 57.930 C 141.443 58.927, 141.862 59.394, 142.958 63.757 C 144.623 70.380, 148.458 75.202, 151.746 74.807 C 155.852 74.314, 157.818 70.459, 158.561 61.440 L 159.225 53.381 155.614 49.552 L 152.003 45.724 144.752 46.358 C 137.376 47.002, 136.513 46.795, 134.181 43.814 C 133.262 42.640, 133.156 41.577, 133.832 40.314 C 134.365 39.316, 135.035 37.021, 135.319 35.214 C 135.728 32.618, 135.308 31.399, 133.319 29.409 C 127.725 23.816, 119 29.024, 119 37.957 C 119 42.407, 117.709 44.190, 112.515 46.912 C 107.441 49.570, 103.818 49.563, 101.405 46.889 C 99.798 45.109, 99.542 43.474, 99.768 36.445 C 100.010 28.950, 99.815 27.905, 97.830 26.056 C 94.712 23.152, 90.452 23.381, 88.366 26.564 M 109.262 68.740 C 106.489 70.120, 105.664 70.158, 103.507 69.004 C 101.469 67.913, 99.777 67.880, 94.629 68.828 C 86.594 70.309, 82.713 70.313, 81.242 68.842 C 80.364 67.964, 78.075 68.597, 71.792 71.455 C 64.391 74.821, 59.497 78.143, 60.466 79.144 C 60.656 79.340, 61.063 84.675, 61.370 91 C 61.918 102.252, 61.995 102.559, 64.981 105.250 C 68.435 108.364, 69.291 108.457, 77.158 106.576 C 86.941 104.237, 91.262 108.892, 85.061 115.093 C 82.223 117.930, 81.648 118.110, 77.741 117.370 C 73.289 116.527, 71.003 116.554, 62 117.550 C 56.176 118.194, 54 119.831, 54 123.569 C 54 127.641, 56.404 128.404, 70.358 128.763 C 84.577 129.129, 88.026 130.208, 87.968 134.273 C 87.899 139.145, 85.574 140.452, 75.708 141.168 C 70.644 141.535, 63.350 142.362, 59.500 143.004 C 55.650 143.646, 49.920 144.487, 46.767 144.871 C 39.115 145.805, 35.860 149.717, 39.613 153.470 C 41.018 154.875, 43.370 155.007, 57.863 154.489 C 67.013 154.162, 77.402 153.440, 80.949 152.884 C 86.968 151.940, 107.600 152.443, 114.500 153.702 C 116.150 154.003, 125.591 154.189, 135.480 154.117 C 152.047 153.995, 153.618 153.827, 155.466 151.978 C 158.017 149.428, 156.861 147.245, 151.567 144.613 C 148.703 143.189, 144.053 142.498, 132.635 141.798 C 116.451 140.805, 110.138 140.622, 104.386 140.977 C 99.945 141.251, 97.661 139.205, 97.779 135.059 C 97.996 127.421, 100.747 126.300, 119.861 126.061 C 136.353 125.854, 137.368 125.592, 136.598 121.742 C 136.269 120.096, 136 118.186, 136 117.496 C 136 113.887, 121.545 111.895, 106.893 113.485 C 100.528 114.176, 100.263 114.116, 99.657 111.851 C 98.710 108.314, 98.772 108.169, 101.950 106.526 C 103.739 105.601, 107.555 105, 111.638 105 C 116.970 105, 119.056 104.534, 121.633 102.768 C 126.045 99.746, 126.850 97.562, 127.626 86.521 C 128.245 77.708, 128.133 76.818, 126.005 73.712 C 121.644 67.348, 115.640 65.565, 109.262 68.740 M 78.200 83.348 C 74.100 84.834, 73.035 86.464, 73.015 91.282 C 72.995 96.195, 75.179 97.048, 83.351 95.318 C 86.733 94.602, 94.750 93.991, 101.167 93.959 C 112.370 93.903, 112.898 93.805, 114.417 91.486 C 116.501 88.306, 116.418 85.689, 114.171 83.655 C 112.628 82.258, 109.939 82.012, 96.921 82.076 C 87.660 82.122, 80.182 82.630, 78.200 83.348" stroke="none" fill="black" fill-rule="evenodd"/>
</svg>