<svg xmlns="http://www.w3.org/2000/svg" width="256" height="256" viewBox="0 0 256 256" version="1.1">
	<path d="M 85.305 22.514 C 83.216 23.392, 81.500 25.348, 79.875 28.703 C 78.289 31.978, 75.745 34.919, 72.218 37.554 C 69.313 39.724, 64.887 43.052, 62.383 44.950 C 59.879 46.847, 55.548 49.322, 52.758 50.450 C 49.968 51.577, 46.753 53.758, 45.613 55.296 C 43.703 57.873, 43.659 58.302, 45.051 60.783 C 47.686 65.476, 50.694 65.673, 57.441 61.593 C 60.709 59.617, 64.577 58, 66.036 58 C 68.746 58, 72 60.670, 72 62.893 C 72 63.573, 73.296 65.220, 74.880 66.553 C 78.864 69.905, 79.597 73, 76.406 73 C 75.083 73, 73.888 72.933, 73.750 72.852 C 73.188 72.520, 65.342 76.943, 63.245 78.774 C 62.004 79.857, 58.714 81.046, 55.934 81.414 C 52.104 81.922, 49.983 82.917, 47.189 85.515 C 45.160 87.402, 44.063 88.958, 44.750 88.973 C 45.438 88.988, 46 89.533, 46 90.186 C 46 90.838, 46.950 92.382, 48.111 93.618 C 50.559 96.224, 53.247 95.653, 58.216 91.472 C 60.543 89.514, 62.270 89, 66.530 89 C 73.134 89, 76.152 87.706, 78.391 83.915 C 79.338 82.312, 80.597 81, 81.189 81 C 81.781 81, 82.993 80.194, 83.883 79.210 C 86.163 76.685, 92.999 74.755, 94.690 76.158 C 95.411 76.756, 96 77.846, 96 78.582 C 96 80.943, 90.566 89.003, 88.542 89.645 C 87.465 89.987, 84.990 91.806, 83.042 93.688 C 81.094 95.569, 77.700 98.035, 75.500 99.167 C 73.300 100.299, 70.600 102.023, 69.500 102.998 C 68.400 103.973, 66.503 105.072, 65.285 105.441 C 62.998 106.135, 61.123 111.772, 62.460 113.935 C 63.534 115.674, 72.755 115.260, 73.781 113.428 C 74.837 111.540, 83 110.159, 83 111.868 C 83 112.491, 84.102 113, 85.448 113 C 90.219 113, 96.257 121.314, 97.578 129.701 C 98.211 133.719, 98.115 133.930, 95.370 134.548 C 93.791 134.903, 90.925 135.598, 89 136.091 C 87.075 136.585, 81.675 137.016, 77 137.049 C 67.124 137.118, 60.702 139.163, 57.701 143.193 C 55.812 145.728, 55.791 146.033, 57.340 148.396 C 59.629 151.890, 63.850 152.405, 75.705 150.640 C 86.084 149.094, 92.055 146.810, 95.405 143.106 C 96.453 141.948, 97.837 141, 98.481 141 C 99.125 141, 100.742 139.836, 102.076 138.413 C 104.871 135.429, 108.307 133.841, 115.895 132.023 C 120.073 131.022, 122.104 129.822, 124.895 126.701 C 126.878 124.485, 130.875 120.239, 133.777 117.267 C 136.680 114.294, 139.993 109.865, 141.140 107.425 C 142.288 104.984, 144.468 101.942, 145.986 100.665 C 155.722 92.473, 148.205 86.274, 128.115 85.928 C 122.570 85.832, 118.278 85.359, 118.576 84.877 C 118.874 84.395, 118.593 84, 117.951 84 C 117.218 84, 117.007 83.107, 117.386 81.599 C 117.834 79.813, 117.247 78.406, 115.093 76.099 C 113.500 74.395, 111.478 73, 110.599 73 C 107.444 73, 108.716 67.484, 112.943 62.836 C 115.111 60.451, 117.894 56.915, 119.126 54.977 C 120.358 53.039, 123.095 50.223, 125.208 48.718 C 127.322 47.214, 129.570 44.844, 130.204 43.451 C 131.613 40.358, 130.360 36.192, 127.542 34.604 C 126.465 33.997, 124.923 32.890, 124.115 32.144 C 122.979 31.096, 120.556 30.945, 113.437 31.479 C 102.897 32.269, 99.114 31.056, 96.528 26.054 C 95.204 23.493, 93.051 22.090, 89.430 21.426 C 88.841 21.318, 86.985 21.808, 85.305 22.514 M 86.771 42.156 C 82.397 43.367, 77 49.033, 77 52.413 C 77 55.277, 80.041 56.624, 88.500 57.505 C 97.169 58.409, 102.477 56.934, 106.185 52.593 C 107.873 50.617, 109.858 49, 110.596 49 C 113.345 49, 110.701 46.118, 106.178 44.185 C 100.365 41.700, 91.691 40.793, 86.771 42.156 M 100.396 94.273 C 94.751 100.054, 93 102.823, 93 105.969 C 93 109.220, 95.953 113, 98.493 113 C 99.737 113, 101.340 113.705, 102.055 114.566 C 103.997 116.907, 108.541 119, 111.680 119 C 115.020 119, 123.186 113.647, 125.304 110.068 C 126.140 108.656, 127.763 106.419, 128.912 105.097 C 130.060 103.775, 131 102.301, 131 101.822 C 131 101.342, 128.188 99.186, 124.750 97.032 C 121.313 94.878, 117.375 92.195, 116 91.071 C 114.401 89.764, 112.058 89.030, 109.500 89.036 C 106 89.045, 104.862 89.699, 100.396 94.273" stroke="none" fill="black" fill-rule="evenodd"/>
</svg>