<svg xmlns="http://www.w3.org/2000/svg" width="256" height="256" viewBox="0 0 256 256" version="1.1">
	<path d="M 84.067 26.750 C 82.624 27.922, 81.141 31.473, 79.577 37.500 C 76.347 49.953, 75.627 51.449, 71.705 53.873 C 68.661 55.755, 66.775 56, 55.354 56 C 45.289 56, 41.955 56.343, 40.223 57.557 C 37.352 59.567, 37.325 63.873, 40.162 67.478 C 42.262 70.149, 42.524 70.208, 49.412 69.568 C 53.310 69.205, 58.443 68.663, 60.818 68.363 C 66.721 67.617, 70 68.565, 70 71.019 C 70 72.109, 69.550 73, 69 73 C 68.450 73, 68 73.666, 68 74.480 C 68 75.294, 65.800 80.132, 63.112 85.230 C 60.081 90.978, 57.963 96.447, 57.535 99.625 C 56.850 104.725, 56.863 104.757, 60.073 105.875 C 61.847 106.494, 64.244 107.002, 65.399 107.005 C 69.744 107.015, 81.606 118.158, 79.202 119.971 C 78.816 120.262, 78.455 121.063, 78.400 121.750 C 78.345 122.438, 78.233 123.581, 78.150 124.291 C 78.068 125.001, 75.638 126.829, 72.750 128.352 C 69.862 129.875, 65.475 132.363, 63 133.880 C 58.762 136.478, 47.366 140, 43.199 140 C 40.332 140, 41.026 144.374, 44.462 147.960 C 50.186 153.935, 57.762 152.701, 69.574 143.872 C 73.103 141.234, 77.005 138.543, 78.245 137.892 C 79.485 137.241, 80.860 136.099, 81.300 135.354 C 81.740 134.609, 82.755 134, 83.556 134 C 84.358 134, 85.991 132.875, 87.187 131.500 C 88.682 129.781, 90.388 129, 92.649 129 C 95.161 129, 95.801 128.646, 95.362 127.500 C 95.045 126.675, 93.982 126, 93 126 C 89.014 126, 91.034 120.941, 95.315 120.201 C 97.611 119.804, 100.791 122.893, 99.139 123.914 C 98.487 124.317, 97.776 125.567, 97.559 126.692 C 97.212 128.495, 97.796 128.802, 102.494 129.287 C 105.424 129.590, 108.874 130.488, 110.161 131.284 C 111.447 132.079, 114.750 133.324, 117.500 134.050 C 123.107 135.531, 125.133 136.660, 133.113 142.750 C 137.609 146.181, 139.486 147, 142.854 147 C 152.489 147, 156.545 140.289, 149.443 136.099 C 147.486 134.944, 145.124 133.996, 144.193 133.990 C 143.262 133.985, 140.525 132.410, 138.111 130.491 C 135.696 128.572, 132.043 126.550, 129.991 125.998 C 127.940 125.445, 125.176 124.139, 123.849 123.096 C 121.521 121.264, 111.799 119.370, 107.330 119.876 C 104.302 120.219, 104.850 118.240, 109.281 112.832 C 111.327 110.336, 113 107.764, 113 107.116 C 113 106.468, 113.619 105.700, 114.375 105.410 C 115.131 105.120, 116.549 103.109, 117.527 100.941 C 118.504 98.773, 119.685 97, 120.152 97 C 120.618 97, 121 96.420, 121 95.711 C 121 95.003, 121.851 92.754, 122.891 90.714 C 123.931 88.674, 125.092 85.771, 125.470 84.262 C 125.849 82.754, 126.540 81.284, 127.006 80.996 C 127.707 80.563, 128.550 75.883, 128.923 70.359 C 129.074 68.113, 136.765 65.955, 142.298 66.605 C 147.218 67.184, 147.756 67.019, 151.285 63.860 C 158.915 57.031, 156.104 52.703, 144.158 52.884 C 136.395 53.003, 134 51.612, 134 46.985 C 134 45.397, 127.786 42.008, 124.865 42.004 C 121.852 41.999, 118.585 46.064, 119.406 48.796 C 119.688 49.733, 119.240 51.400, 118.410 52.500 C 117.022 54.339, 115.918 54.477, 104.700 54.210 C 88.952 53.836, 88.620 53.729, 89.342 49.280 C 89.655 47.348, 91.057 43.578, 92.456 40.902 C 95.504 35.074, 95.807 29.040, 93.171 26.655 C 90.795 24.504, 86.781 24.546, 84.067 26.750 M 85.338 68.098 C 80.185 69.317, 78.738 70.992, 78.242 76.311 C 78.029 78.598, 77.430 80.982, 76.912 81.607 C 75.042 83.859, 72.840 93.335, 73.441 96.539 C 73.872 98.836, 74.841 100.091, 76.774 100.855 C 80.434 102.302, 92.562 105, 95.407 105 C 98.201 105, 100.860 102.234, 101.227 98.947 C 101.377 97.601, 102.400 95.758, 103.500 94.852 C 104.600 93.946, 106.381 91.471, 107.458 89.352 C 108.535 87.233, 110.142 84.375, 111.029 83 C 111.916 81.625, 113.462 78.291, 114.464 75.591 C 116.230 70.836, 116.229 70.641, 114.452 69.341 C 113.322 68.515, 109.866 68, 105.448 68 C 101.505 68, 96.304 67.801, 93.890 67.557 C 91.475 67.313, 87.627 67.557, 85.338 68.098" stroke="none" fill="black" fill-rule="evenodd"/>
</svg>