<svg xmlns="http://www.w3.org/2000/svg" width="256" height="256" viewBox="0 0 256 256" version="1.1">
	<path d="M 52.430 28.996 C 48.393 30.568, 46.694 34.855, 46.079 45.022 C 45.351 57.053, 44.025 59.355, 36.578 61.520 C 30.448 63.302, 28.703 64.876, 29.173 68.195 C 29.445 70.115, 30.252 70.588, 34 71.026 C 36.475 71.315, 39.063 71.904, 39.750 72.335 C 41.402 73.370, 41.332 78.486, 39.568 85.669 C 38.780 88.876, 37.831 94.802, 37.458 98.839 C 36.781 106.161, 36.787 106.185, 40.086 109.589 C 41.904 111.465, 43.979 113, 44.696 113 C 45.413 113, 46 113.594, 46 114.320 C 46 115.046, 47.575 117.480, 49.500 119.729 C 51.425 121.978, 53 124.566, 53 125.481 C 53 128.943, 47.566 136.214, 41.639 140.682 C 34.015 146.429, 33 147.667, 33 151.216 C 33 154.524, 36.719 156.500, 41.248 155.598 C 44.698 154.911, 55.622 146.692, 59.542 141.834 C 63.504 136.925, 65.452 136.577, 71.125 139.765 L 75.882 142.439 80.084 140.305 C 85.693 137.457, 88.110 138.399, 89.818 144.100 C 93.277 155.643, 93.774 155.926, 111.074 156.249 C 131.033 156.622, 143.537 155.317, 148.802 152.311 C 151.202 150.940, 153.559 148.670, 154.132 147.177 C 155.738 142.993, 155.287 124.053, 153.403 116.553 C 151.700 109.772, 148.496 106, 144.442 106 C 142.901 106, 134.421 102.525, 129.873 100.029 C 126.313 98.076, 121.039 97.931, 112.464 99.551 C 107.534 100.483, 100.764 101.531, 97.420 101.881 C 93.763 102.263, 90.667 103.190, 89.651 104.206 C 87.785 106.072, 87.302 111.486, 88.489 117.248 C 89.538 122.341, 87.384 129.868, 84.502 131.181 C 82.729 131.989, 81.288 131.546, 76.884 128.839 C 73.896 127.002, 70.562 124.990, 69.476 124.367 C 67.043 122.973, 67.357 120.708, 70.694 115.587 C 73.255 111.657, 76 101.202, 76 95.377 C 76 93.660, 76.959 90.085, 78.132 87.434 C 79.989 83.236, 80.136 81.905, 79.269 77.124 C 78.346 72.028, 78.440 71.469, 80.592 69.317 C 81.866 68.043, 83.509 67, 84.242 67 C 86.490 67, 86.044 62.747, 83.438 59.330 C 82.080 57.549, 80.091 54.046, 79.020 51.546 C 77.657 48.367, 76.483 47, 75.117 47 C 72.169 47, 70 48.061, 70 49.503 C 70 50.811, 63.551 57, 62.188 57 C 61.779 57, 60.445 56.299, 59.223 55.443 C 56.537 53.562, 56.403 50.570, 58.679 43.349 C 61.424 34.641, 58.019 26.820, 52.430 28.996 M 110.474 31.262 C 107.933 32.669, 106.278 34.884, 105.497 37.926 C 104.270 42.700, 95.899 58.746, 93.419 61.076 C 89.488 64.770, 83 77.258, 83 81.133 C 83 83.405, 83.866 85.454, 85.628 87.355 C 87.930 89.837, 88.706 90.099, 91.878 89.461 C 93.870 89.061, 98.875 88.842, 103 88.974 C 119.275 89.496, 121.842 89.372, 131.395 87.595 C 140.732 85.859, 141.711 85.848, 148.783 87.402 C 155.700 88.922, 156.468 88.923, 158.753 87.426 C 160.870 86.039, 161.145 85.273, 160.649 82.152 C 160.281 79.842, 159.044 77.662, 157.284 76.221 C 155.753 74.968, 153.273 72.943, 151.774 71.721 C 149.354 69.749, 147.694 67.002, 147.549 64.729 C 147.462 63.367, 134.810 51, 133.504 51 C 131.487 51, 129.860 53.625, 129.303 57.776 C 128.848 61.173, 129.214 62.085, 132.393 65.455 C 139.286 72.764, 137.279 74.076, 118.172 74.753 C 104.622 75.233, 103.262 75.125, 102.644 73.515 C 101.797 71.308, 105.776 62.436, 110.494 56.008 C 112.422 53.381, 114 50.700, 114 50.049 C 114 49.399, 115.063 47.434, 116.362 45.683 C 119.674 41.221, 120.061 38.630, 117.940 35.141 C 115.518 31.159, 113.012 29.857, 110.474 31.262 M 59.217 68.561 C 55.980 70.828, 54 75.275, 54 80.278 C 54 82.685, 52.882 87.406, 51.516 90.768 C 45.531 105.498, 49.039 113.932, 58.700 108.041 C 63.523 105.101, 65.571 99.597, 65.883 88.741 C 66.029 83.659, 66.553 77.367, 67.047 74.760 C 67.540 72.152, 67.684 69.340, 67.365 68.510 C 66.611 66.545, 62.054 66.574, 59.217 68.561 M 104.757 113.144 C 99.516 114.616, 95.635 119.422, 96.451 123.430 C 96.794 125.119, 97.559 129.318, 98.150 132.762 C 99.044 137.977, 99.732 139.385, 102.263 141.187 C 105.729 143.655, 114.663 144.759, 129.889 144.599 C 138.692 144.506, 139.396 144.343, 141.154 141.992 C 142.850 139.724, 142.956 138.382, 142.265 127.992 L 141.500 116.500 137.500 114.538 C 134.283 112.959, 131.053 112.528, 121 112.334 C 114.125 112.202, 106.815 112.566, 104.757 113.144" stroke="none" fill="black" fill-rule="evenodd"/>
</svg>