<svg xmlns="http://www.w3.org/2000/svg" width="256" height="256" viewBox="0 0 256 256" version="1.1">
	<path d="M 51.288 28.650 C 50.621 28.920, 49.182 30.588, 48.089 32.356 C 46.539 34.863, 46.047 37.645, 45.852 44.993 C 45.625 53.522, 45.360 54.676, 43.051 57.179 C 41.648 58.699, 38.031 60.743, 35.013 61.721 C 30.738 63.107, 29.319 64.094, 28.591 66.190 C 27.298 69.911, 29.242 72, 34 72 C 40.627 72, 41.015 73.840, 37.621 89.148 C 36.810 92.805, 36.305 96.630, 36.497 97.648 C 36.689 98.667, 36.881 100.524, 36.923 101.775 C 36.968 103.103, 39.500 106.737, 43 110.500 C 46.300 114.047, 49 117.379, 49 117.903 C 49 118.428, 49.678 119.535, 50.506 120.363 C 51.334 121.191, 52.098 122.914, 52.204 124.192 C 52.488 127.621, 46.590 135.825, 39.883 141.330 C 35.727 144.742, 34 146.853, 34 148.523 C 34 151.205, 37.374 154, 40.612 154 C 43.871 154, 54.104 145.987, 58.296 140.151 C 62.327 134.540, 63.648 134.119, 69.520 136.573 C 74.041 138.462, 77.793 137.735, 78.894 134.757 C 80.201 131.225, 79.138 129.428, 73.411 125.483 C 70.435 123.433, 68 121.016, 68 120.110 C 68 119.205, 69.125 116.809, 70.500 114.785 C 71.875 112.762, 73 110.381, 73 109.496 C 73 108.610, 74.306 103.748, 75.902 98.693 C 79.850 86.184, 79.970 85.644, 80.904 76.231 C 81.457 70.656, 82.296 67.331, 83.480 66.022 C 85.384 63.918, 84.958 59.789, 82.549 57 C 81.836 56.175, 80.733 53.879, 80.098 51.897 C 78.038 45.477, 72.354 44.969, 68.524 50.863 C 65.731 55.162, 62.673 56.628, 59.509 55.186 C 56.527 53.827, 56.223 50.454, 58.500 44 C 62.130 33.711, 58.397 25.765, 51.288 28.650 M 142.400 34.976 C 141.246 35.442, 134.946 36.336, 128.400 36.962 C 121.855 37.588, 113.219 38.528, 109.209 39.050 C 105.199 39.573, 99.574 40.014, 96.709 40.032 C 89.051 40.079, 86.052 43.076, 88.602 48.132 C 89.511 49.934, 91.033 50.971, 93.430 51.421 C 95.355 51.782, 97.157 52.444, 97.434 52.893 C 98.214 54.156, 99.155 80.937, 98.492 83.025 C 98.084 84.311, 96.253 85.221, 92.513 85.997 C 85.726 87.406, 82 90.213, 82 93.918 C 82 98.012, 85.141 100.264, 91.597 100.800 C 94.658 101.053, 97.365 101.788, 97.612 102.432 C 98.499 104.743, 94.937 124.203, 92.894 128.208 C 91.747 130.457, 89.232 133.918, 87.305 135.898 C 84.083 139.211, 83.850 139.853, 84.402 143.899 C 85.141 149.313, 86.454 151, 89.931 151 C 93.838 151, 95.557 149.186, 97.516 143 C 98.473 139.975, 99.820 136.825, 100.508 136 C 104.970 130.649, 108.821 113.632, 107.034 107.159 C 106.192 104.110, 106.395 103.451, 108.970 100.877 C 111.824 98.023, 113.256 97.644, 120 97.963 C 127.982 98.340, 133.704 102.439, 130.592 105.551 C 128.735 107.408, 127.939 113.502, 128.377 122.500 C 128.565 126.350, 128.782 134.320, 128.859 140.211 C 128.986 149.842, 129.221 151.128, 131.189 152.961 C 133.962 155.545, 135.454 155.525, 139.203 152.856 C 142.584 150.448, 142.577 150.662, 140.008 128.500 C 139.370 123, 138.723 116.700, 138.570 114.500 C 138.416 112.300, 138.225 109.745, 138.145 108.821 C 138.065 107.898, 137.293 106.436, 136.429 105.571 C 135.564 104.707, 135.339 104, 135.929 104 C 136.518 104, 137 103.374, 137 102.609 C 137 100.821, 144.024 98, 148.473 98 C 155.357 98, 158.969 94.674, 157.433 89.750 C 156.450 86.602, 155.226 86.033, 149.405 86.015 C 142.624 85.995, 140.906 84.080, 140.471 76.056 C 140.290 72.720, 140.524 68.660, 140.990 67.034 C 141.457 65.408, 141.483 61.473, 141.050 58.289 C 140.616 55.105, 140.465 51.964, 140.715 51.309 C 140.965 50.654, 144.056 48.307, 147.584 46.095 C 154.563 41.720, 155.523 39.523, 152 36 C 149.925 33.925, 146.028 33.509, 142.400 34.976 M 113.057 50.885 C 111.629 51.846, 111.127 57.326, 110.672 76.886 C 110.513 83.708, 110.692 84.416, 113.015 86.156 C 115.379 87.926, 115.804 87.945, 120.126 86.473 C 127.257 84.043, 129 81.893, 129 75.526 C 129 72.558, 128.616 69.088, 128.147 67.815 C 127.634 66.424, 127.765 63.188, 128.475 59.706 C 130.077 51.848, 129.165 50.715, 120.871 50.262 C 117.367 50.071, 113.851 50.351, 113.057 50.885 M 61.676 66.452 C 59.572 67.202, 57.735 67.970, 57.594 68.158 C 55.031 71.568, 54 74.052, 54 76.812 C 54 78.664, 52.623 84.158, 50.939 89.020 C 47.096 100.122, 47.169 105.850, 51.179 107.763 C 54.810 109.495, 61.203 107.021, 62.982 103.196 C 64.904 99.063, 67 88.108, 67 82.193 C 67 79.274, 67.504 74.885, 68.120 72.439 C 68.983 69.009, 68.955 67.651, 67.997 66.497 C 66.520 64.717, 66.541 64.717, 61.676 66.452" stroke="none" fill="black" fill-rule="evenodd"/>
</svg>