<svg xmlns="http://www.w3.org/2000/svg" width="256" height="256" viewBox="0 0 256 256" version="1.1">
	<path d="M 84.515 22.781 C 83.186 24.601, 82.486 27.257, 82.398 30.817 C 82.325 33.741, 81.865 36.535, 81.374 37.026 C 79.172 39.228, 66.878 41.277, 54.500 41.504 C 38.917 41.791, 40.509 41.537, 38.108 44.115 C 36.378 45.971, 36.145 47.517, 36.886 52.224 C 36.949 52.623, 38.241 53.590, 39.758 54.375 C 42.130 55.601, 43.702 55.608, 51.008 54.420 C 62.796 52.504, 65.734 52.588, 66.455 54.859 C 67.628 58.554, 65.444 61.781, 56.568 69.469 C 54.406 71.342, 51.524 73.154, 50.166 73.495 C 47.995 74.039, 46.001 75.816, 41.250 81.437 C 39.747 83.215, 39.622 85, 41 85 C 41.550 85, 42 85.627, 42 86.393 C 42 87.998, 44.127 89, 47.532 89 C 50.130 89, 58.709 83.676, 60.847 80.738 C 62.630 78.285, 66.407 78.848, 66.803 81.626 C 66.970 82.795, 68.224 84.802, 69.591 86.085 C 71.674 88.042, 73.190 88.432, 78.980 88.502 C 87.369 88.604, 89.887 90.307, 89.842 95.847 C 89.795 101.658, 91.444 104.719, 95.051 105.511 C 98.828 106.341, 100.412 105.039, 101.765 99.990 C 102.400 97.624, 102.351 95.919, 101.617 94.754 C 100.760 93.396, 100.968 92.587, 102.592 90.963 C 104.156 89.400, 106.648 88.698, 112.865 88.072 C 118.293 87.524, 121.717 86.661, 122.976 85.522 C 125.352 83.372, 130.008 83.331, 136.975 85.400 C 143.748 87.411, 149.255 87.437, 153.050 85.474 C 156.378 83.753, 156.749 81.475, 154.198 78.424 C 151.180 74.816, 147.656 73.154, 142.500 72.909 C 136.675 72.631, 134.581 71.743, 130.560 67.848 C 128.943 66.282, 127.139 65, 126.551 65 C 125.117 65, 122.869 61.276, 122.362 58.061 C 121.659 53.601, 125.883 52, 138.349 52 C 147.870 52, 149.130 51.783, 151.393 49.750 C 155.448 46.107, 155.259 42.702, 150.876 40.436 C 148.673 39.297, 145.653 38.897, 140.626 39.080 C 136.707 39.222, 131.250 39.200, 128.500 39.029 C 121.452 38.593, 116.812 38.655, 106.500 39.324 C 95.081 40.064, 93.570 39.252, 95.602 33.466 C 96.368 31.285, 96.743 28.299, 96.436 26.832 C 95.006 20.005, 88.225 17.701, 84.515 22.781 M 85.378 53.437 C 81.676 55.048, 79 58.542, 79 61.764 C 79 63.040, 78.083 65.068, 76.961 66.272 C 72.204 71.378, 74.175 78, 80.452 78 C 86.265 78, 88.144 74.477, 86.111 67.388 C 85.310 64.595, 85.582 63.949, 88.861 60.848 C 90.863 58.955, 93.063 57.484, 93.750 57.578 C 94.438 57.673, 95.353 57.806, 95.784 57.875 C 97.961 58.222, 100.092 64.264, 99.881 69.488 C 99.758 72.515, 99.961 75.294, 100.330 75.664 C 100.700 76.033, 103.491 76.542, 106.533 76.794 C 110.882 77.155, 112.483 76.873, 114.032 75.471 C 116.630 73.120, 116.523 69.854, 113.750 66.876 C 112.079 65.081, 111.580 63.502, 111.810 60.744 C 112.050 57.854, 111.560 56.469, 109.605 54.514 C 107.273 52.182, 106.417 52.003, 97.795 52.039 C 92.247 52.063, 87.242 52.626, 85.378 53.437 M 67.056 98.432 C 66.402 99.220, 65.477 102.626, 65 106 C 64.523 109.374, 63.566 112.818, 62.874 113.652 C 61.107 115.781, 53.961 114.572, 47.168 110.995 C 41.790 108.162, 37.964 108.125, 34.653 110.873 C 33.450 111.871, 33.125 111.959, 30.250 112.063 C 28.858 112.114, 28.942 112.305, 30.656 112.996 C 31.913 113.504, 33.091 115.138, 33.482 116.919 C 34.330 120.781, 38.454 123.749, 44.105 124.565 C 46.522 124.914, 49.719 126.054, 51.210 127.100 C 52.700 128.145, 54.402 129, 54.992 129 C 56.914 129, 57.847 133.326, 56.500 136 C 55.808 137.375, 54.926 139.963, 54.541 141.750 C 54.132 143.647, 53.222 145, 52.353 145 C 51.269 145, 51.056 145.610, 51.567 147.250 C 53.185 152.432, 55.721 151.635, 60.494 144.443 C 62.455 141.489, 64.914 138.473, 65.959 137.741 C 67.004 137.009, 68.160 135.212, 68.528 133.746 C 68.895 132.281, 69.827 130.558, 70.598 129.919 C 71.369 129.279, 72 127.729, 72 126.475 C 72 124.817, 72.859 123.896, 75.149 123.098 C 79.052 121.737, 107.917 121.638, 111.429 122.973 C 113.936 123.926, 113.986 124.138, 113.911 133.521 C 113.846 141.587, 114.202 143.868, 116.167 147.992 C 118.580 153.054, 121.262 154.686, 125.142 153.455 C 128.089 152.520, 129.106 148.770, 127.909 143.260 C 125.738 133.274, 125.656 127.643, 127.647 125.221 C 129.265 123.253, 130.866 122.862, 140.269 122.139 C 149.517 121.429, 151.389 120.983, 153.519 118.982 C 156.647 116.043, 156.641 114.649, 153.486 112.168 C 151.492 110.599, 148.753 110.057, 140.236 109.542 C 126.461 108.710, 125.475 108.276, 123.796 102.305 C 122.520 97.769, 122.236 97.483, 118.728 97.190 C 114.639 96.849, 114.041 97.626, 112.355 105.480 C 111.354 110.138, 107.410 112.362, 103.965 110.210 C 101.541 108.696, 97.805 108.683, 88.889 110.155 C 82.474 111.215, 81.676 111.149, 79.282 109.361 C 77.846 108.289, 76.061 105.631, 75.316 103.456 C 73.319 97.624, 69.603 95.364, 67.056 98.432" stroke="none" fill="black" fill-rule="evenodd"/>
</svg>