<svg xmlns="http://www.w3.org/2000/svg" width="256" height="256" viewBox="0 0 256 256" version="1.1">
	<path d="M 51.722 28.004 C 49.221 29.972, 47.713 34.691, 47.410 41.500 C 47.336 43.150, 47.214 45.737, 47.138 47.250 C 46.946 51.066, 44.358 53.299, 37.699 55.394 C 31.577 57.319, 28 60.706, 28 64.576 C 28 67.783, 29.611 68.482, 36.257 68.157 C 40.795 67.935, 42.145 68.215, 42.631 69.480 C 42.969 70.363, 42.060 75.903, 40.610 81.792 C 36.809 97.228, 37.005 99.996, 42.302 105.793 C 51.529 115.890, 54 119.355, 54 122.200 C 54 126.132, 47.035 137, 44.514 137 C 43.942 137, 41.142 138.570, 38.292 140.489 C 34.181 143.258, 33.198 144.434, 33.535 146.184 C 34.194 149.605, 36.472 151.246, 40.662 151.317 C 45.199 151.395, 56.140 144.683, 62.262 138.066 C 67.197 132.733, 70.981 132.576, 77.354 137.440 C 81.870 140.887, 82.966 141.339, 86.281 141.118 C 90.716 140.824, 88.769 132.954, 83.609 130.316 C 77.546 127.215, 73 122.945, 73 120.350 C 73 117.903, 74.614 113.975, 76.021 113 C 77.625 111.888, 82.803 100.150, 83.962 95 C 84.642 91.975, 86.054 86.640, 87.099 83.145 C 88.145 79.649, 89 75.271, 89 73.416 C 89 71.560, 89.955 67.133, 91.122 63.578 C 93.781 55.478, 93.155 51.150, 88.795 47.481 C 86.191 45.290, 85.050 44.954, 82.079 45.502 C 80.111 45.865, 77.594 47.004, 76.486 48.033 C 71.721 52.461, 64.219 53.648, 61.047 50.475 C 59.790 49.218, 59.770 48.205, 60.909 43.256 C 63.305 32.840, 63.313 31.668, 61.009 28.739 C 58.446 25.480, 55.251 25.228, 51.722 28.004 M 111.843 41.739 C 106.195 42.034, 104.775 42.498, 102.475 44.794 C 97.657 49.605, 97.796 46.669, 99.466 108.410 C 99.702 117.160, 100.176 126.610, 100.519 129.410 C 100.861 132.209, 101.236 137.112, 101.350 140.305 C 101.488 144.141, 102.058 146.425, 103.029 147.039 C 105.483 148.591, 109.886 148.114, 111.924 146.076 C 115.494 142.506, 117.776 142, 130.299 142 C 141.257 142, 143.035 141.761, 145.298 139.980 C 147.974 137.875, 150.211 130.340, 149.912 124.444 C 149.829 122.825, 150.743 117.519, 151.941 112.653 C 153.846 104.923, 154.038 102.210, 153.463 91.153 C 153.101 84.194, 152.624 73.550, 152.402 67.500 C 151.726 49.067, 151.553 47.467, 149.983 45.102 C 147.488 41.342, 137.055 40.423, 111.843 41.739 M 114.229 53.669 C 113.530 53.951, 112.310 55.434, 111.517 56.967 C 110.333 59.256, 110.129 65.345, 110.369 91.126 C 110.630 119.174, 110.855 122.893, 112.494 126.206 C 114.685 130.633, 115.838 131.194, 120.186 129.947 C 122.001 129.426, 125.522 129, 128.009 129 C 130.505 129, 134.092 128.166, 136.016 127.138 C 139.199 125.437, 139.543 124.811, 140 119.888 C 140.275 116.925, 140.224 112.250, 139.888 109.500 C 139.551 106.750, 139.421 100.900, 139.600 96.500 C 141.103 59.454, 140.941 55.996, 137.600 53.765 C 136.375 52.947, 116.229 52.865, 114.229 53.669 M 64 65.652 C 58.916 67.327, 58.134 68.332, 56.434 75.378 C 55.488 79.295, 53.908 84.300, 52.922 86.500 C 49.673 93.753, 48.957 97.960, 50.388 101.385 C 52.164 105.632, 54.318 107.200, 58.378 107.200 C 67.145 107.200, 72.565 99.369, 73.456 85.415 C 73.740 80.968, 74.617 75.503, 75.405 73.271 C 77.418 67.564, 75.607 64.968, 69.693 65.079 C 67.387 65.122, 64.825 65.380, 64 65.652" stroke="none" fill="black" fill-rule="evenodd"/>
</svg>