<svg xmlns="http://www.w3.org/2000/svg" width="256" height="256" viewBox="0 0 256 256" version="1.1">
	<path d="M 107.500 24.604 C 100.137 27.186, 96.200 27.925, 73.493 30.980 C 58.447 33.004, 55.178 33.876, 53.062 36.425 C 52.044 37.651, 51.969 38.637, 52.760 40.373 C 53.720 42.479, 54.657 42.742, 63.213 43.304 C 69.918 43.744, 73.935 43.523, 77.225 42.533 C 84.804 40.252, 88.270 42.529, 86.061 48.340 C 84.871 51.470, 81.747 52.419, 75.247 51.628 C 72.008 51.233, 69.560 51.516, 67.656 52.503 C 65.717 53.509, 61.226 54.002, 53.173 54.092 C 39.906 54.241, 37 55.279, 37 59.868 C 37 65.215, 39.574 66.261, 50.769 65.468 C 62.251 64.654, 65.046 65.507, 64.919 69.785 C 64.875 71.278, 63.859 74.300, 62.662 76.500 C 60.563 80.355, 60.254 80.525, 54.142 81.200 C 46.836 82.007, 43.816 83.659, 41.628 88.044 C 40.128 91.051, 40.166 91.249, 42.682 93.581 C 46.997 97.580, 54.209 96.170, 59.833 90.229 C 61.666 88.292, 65.478 85.536, 68.304 84.104 C 72.845 81.803, 73.826 80.707, 76.734 74.682 C 79.503 68.945, 80.379 67.915, 82.262 68.182 C 86.769 68.822, 88.131 81.979, 84.430 89.134 C 81.754 94.311, 74.460 99.631, 68.269 100.922 C 61.509 102.333, 53.130 102.664, 47.506 101.744 C 43.395 101.071, 39.944 102.482, 37.282 105.925 C 35.685 107.989, 35.667 110.970, 37.250 111.112 C 37.938 111.174, 41.200 111.349, 44.500 111.502 C 51.149 111.810, 57.094 113.055, 61.209 115.002 C 63.390 116.034, 63.731 116.634, 62.959 118.076 C 62.432 119.062, 62 121.222, 62 122.875 C 62 124.529, 61.550 126.160, 61 126.500 C 58.658 127.947, 60.343 129, 65 129 C 68.760 129, 70.525 129.525, 72.118 131.118 C 73.649 132.649, 73.903 133.442, 73.033 133.980 C 72.371 134.389, 71.948 135.123, 72.093 135.612 C 72.239 136.100, 71.490 136.650, 70.429 136.834 C 69.368 137.018, 68.050 137.726, 67.500 138.407 C 65.356 141.062, 62.813 141.718, 58.355 140.767 C 55.390 140.134, 52.916 140.182, 50.821 140.913 C 49.105 141.511, 46.699 142, 45.473 142 C 44.248 142, 42.685 142.675, 42 143.500 C 40.996 144.710, 41.022 145, 42.134 145 C 42.893 145, 44.108 146.912, 44.835 149.250 C 46.282 153.901, 48.588 157, 50.601 157 C 53.234 157, 76.584 148.610, 78.885 146.838 C 80.197 145.827, 82.048 145, 83 145 C 83.952 145, 86 144.002, 87.551 142.781 C 90.745 140.269, 91.076 140.187, 100 139.688 C 107.059 139.293, 111.373 140.338, 114.423 143.180 C 115.507 144.189, 117.870 145, 119.728 145 C 121.572 145, 124.844 145.900, 127 147 C 132.374 149.741, 142.495 149.741, 146 147 C 147.375 145.924, 149.089 145.034, 149.809 145.022 C 152.255 144.981, 149.996 143.165, 143.660 140.078 C 139.208 137.909, 135.883 137, 132.403 137 C 126.544 137, 119.565 133.036, 120.401 130.183 C 120.672 129.257, 121.192 126.813, 121.558 124.750 C 121.924 122.687, 122.524 121, 122.893 121 C 123.502 121, 124.057 118.227, 124.327 113.840 C 124.457 111.717, 131.440 109.987, 143.318 109.133 C 151.530 108.544, 152.250 108.313, 153.778 105.787 C 155.346 103.193, 155.316 102.965, 153.085 100.590 C 151.660 99.074, 149.397 97.988, 147.276 97.803 C 144.378 97.550, 143.382 96.788, 141.274 93.208 C 139.884 90.847, 139.142 88.988, 139.624 89.076 C 140.106 89.165, 143.258 89.184, 146.629 89.118 C 152.490 89.005, 152.813 88.865, 154.036 85.913 C 155.237 83.013, 155.139 82.682, 152.407 80.436 C 146.327 75.437, 141.738 73.907, 133.398 74.101 C 128.227 74.220, 125.464 73.891, 125.208 73.123 C 124.995 72.486, 124.258 71.400, 123.568 70.711 C 122.879 70.022, 122.445 68.579, 122.602 67.504 C 122.760 66.429, 122.463 65.286, 121.941 64.964 C 121.420 64.642, 125.607 63.592, 131.247 62.631 C 143.050 60.619, 148.844 59.062, 149.705 57.669 C 151.049 55.494, 150.756 51.940, 149.163 51.091 C 148.248 50.604, 140.975 49.927, 133 49.588 C 125.025 49.248, 117.602 48.822, 116.504 48.641 C 115.405 48.459, 111.674 48.957, 108.212 49.746 C 100.892 51.416, 99.350 51.050, 97.925 47.304 C 95.670 41.370, 101.226 37, 111.025 37 C 125.499 37, 132.869 31.563, 127.324 24.974 C 125.122 22.357, 124.203 22.009, 119.661 22.074 C 116.822 22.115, 111.350 23.254, 107.500 24.604 M 101.698 62.821 C 97.982 63.248, 97.078 65.908, 97.312 75.728 C 97.484 82.977, 97.267 83.955, 94.750 87.258 C 91.788 91.145, 91.200 95.091, 93.321 96.852 C 95.005 98.249, 104.704 97.258, 107.715 95.381 C 108.983 94.590, 112.615 93.997, 116.215 93.994 C 122.602 93.988, 127.759 92.182, 129.311 89.409 C 129.758 88.611, 130.545 88.219, 131.061 88.538 C 131.578 88.857, 132 88.465, 132 87.666 C 132 86.867, 131.325 85.955, 130.500 85.638 C 129.675 85.322, 129 84.404, 129 83.599 C 129 81.558, 126.351 80.927, 119.078 81.235 C 113.543 81.470, 112.606 81.229, 110.913 79.139 C 108.474 76.129, 108.509 74.702, 111.151 69.411 C 112.742 66.226, 113.980 65.022, 115.901 64.790 C 117.331 64.617, 115.350 64.032, 111.500 63.488 C 107.650 62.945, 103.239 62.645, 101.698 62.821 M 86.500 108.430 C 77.071 111.186, 72.060 115.460, 74.912 118.312 C 75.523 118.923, 78.407 119.525, 81.321 119.651 C 84.235 119.776, 88.617 120.574, 91.060 121.425 C 96.171 123.205, 98.327 123.358, 100.764 122.113 C 101.719 121.625, 104.786 120.163, 107.579 118.863 C 112.184 116.721, 115.611 112.944, 114.216 111.549 C 113.914 111.247, 112.270 111, 110.563 111 C 108.856 111, 104.212 110.100, 100.243 109 C 92.240 106.782, 92.151 106.779, 86.500 108.430" stroke="none" fill="black" fill-rule="evenodd"/>
</svg>