<svg xmlns="http://www.w3.org/2000/svg" width="256" height="256" viewBox="0 0 256 256" version="1.1">
	<path d="M 83.656 23.141 C 80.960 24.696, 78.990 30.166, 79.654 34.256 C 80.086 36.919, 79.759 38.241, 78.308 39.692 C 75.363 42.637, 63.552 44.368, 51.995 43.548 L 42.295 42.861 39.648 46.007 C 36.306 49.979, 36.323 51.467, 39.750 54.648 C 42.246 56.965, 43.009 57.140, 48 56.536 C 61.825 54.863, 63.085 54.825, 64.551 56.043 C 66.189 57.402, 65.645 60.498, 63.368 62.775 C 62.616 63.527, 62 64.723, 62 65.432 C 62 66.888, 55.593 74, 54.281 74 C 53.812 74, 51.419 75.787, 48.964 77.972 C 46.509 80.156, 44.164 81.956, 43.753 81.972 C 42.153 82.032, 35 89.324, 35 90.894 C 35 91.807, 35.701 93.555, 36.557 94.777 C 39.966 99.645, 50.450 96.028, 59.267 86.943 C 65.347 80.679, 67.470 79.756, 68.480 82.938 C 70.649 89.772, 84.303 94.306, 95.698 91.977 C 102.509 90.585, 114.070 85.877, 117.712 83.012 C 121.323 80.171, 125.809 80.493, 131.318 83.987 C 143.645 91.804, 150.656 93.378, 154.115 89.106 C 156.571 86.073, 156.493 84.538, 153.750 81.975 C 150.743 79.165, 140.460 74.340, 135.541 73.431 C 133.084 72.977, 130.428 71.512, 128.541 69.572 C 126.868 67.852, 124.540 65.782, 123.367 64.972 C 120.313 62.865, 119.596 57.719, 121.952 54.814 C 123.729 52.623, 124.393 52.514, 134.421 52.772 C 146.112 53.072, 149.561 52.058, 151.936 47.619 C 153.042 45.553, 153.060 44.778, 152.034 43.541 C 150.159 41.282, 143.368 39.768, 138.114 40.439 C 135.576 40.762, 125.487 41.249, 115.694 41.519 C 93.092 42.143, 91.550 41.542, 92.521 32.500 C 92.937 28.617, 92.660 27.021, 91.279 25.356 C 89.029 22.645, 86.028 21.773, 83.656 23.141 M 84 54.291 C 80.047 56.231, 79.223 57.230, 77.220 62.500 C 75.966 65.800, 74.504 69.281, 73.970 70.236 C 70.396 76.634, 75.698 81.825, 84.601 80.643 C 87.295 80.286, 93.465 79.577, 98.311 79.069 C 107.019 78.155, 110 76.980, 110 74.461 C 110 73.749, 110.412 73.017, 110.916 72.833 C 111.426 72.648, 111.211 70.724, 110.431 68.500 C 109.661 66.300, 109.023 63.055, 109.015 61.289 C 108.994 56.757, 105.958 54.372, 98.572 53.086 C 90.247 51.636, 89.239 51.720, 84 54.291 M 111.828 99.506 C 111.538 99.796, 107.520 100.292, 102.900 100.608 C 85.416 101.806, 77.148 102.804, 65.857 105.080 C 52.482 107.775, 51.029 108.874, 54.119 113.956 C 56.083 117.184, 56.088 117.186, 62.292 116.503 C 65.706 116.128, 70.300 115.422, 72.500 114.935 C 74.700 114.447, 78.372 114.038, 80.661 114.024 C 84.106 114.004, 85.273 114.536, 87.442 117.114 C 88.883 118.826, 89.847 120.964, 89.583 121.864 C 88.457 125.710, 87.503 136.120, 87.545 144.113 C 87.609 156.180, 90.895 160.724, 96.559 156.580 C 98.323 155.289, 98.495 153.899, 98.448 141.330 C 98.419 133.723, 98.050 125.634, 97.627 123.354 C 96.968 119.796, 97.172 118.918, 99.065 117.154 C 101.821 114.586, 112.880 112.004, 121.197 111.986 C 129.286 111.969, 131.782 111.262, 132.574 108.765 C 133.042 107.291, 132.444 106.116, 130.358 104.409 C 128.786 103.124, 126.802 102.056, 125.950 102.036 C 125.097 102.016, 123.972 101.606, 123.450 101.124 C 122.332 100.093, 112.596 98.737, 111.828 99.506 M 120.750 128.165 C 117.723 129.804, 117 130.765, 117 133.146 C 117 135.865, 120.956 141, 123.051 141 C 123.469 141, 127.079 143.015, 131.074 145.478 C 140.216 151.115, 144.191 152.504, 146.951 151.026 C 148.078 150.423, 149 149.134, 149 148.162 C 149 145.477, 143.132 138.071, 140.476 137.405 C 139.186 137.081, 135.901 134.382, 133.177 131.408 C 130.432 128.411, 127.394 126.030, 126.362 126.067 C 125.338 126.104, 122.813 127.048, 120.750 128.165 M 56.818 131.229 C 55.543 133.005, 54.050 135.222, 53.500 136.156 C 46.045 148.810, 45.812 149.615, 48.829 152.345 C 52.864 155.996, 57.015 153.745, 64.426 143.886 C 69.601 137.002, 69.971 134.675, 66.516 130.750 C 63.195 126.977, 59.748 127.147, 56.818 131.229" stroke="none" fill="black" fill-rule="evenodd"/>
</svg>