<svg xmlns="http://www.w3.org/2000/svg" width="256" height="256" viewBox="0 0 256 256" version="1.1">
	<path d="M 121.807 29.287 C 120.538 30.658, 118.764 32.842, 117.865 34.140 C 116.433 36.206, 115.529 36.470, 110.615 36.262 C 106.464 36.086, 103.574 36.656, 99.522 38.448 C 96.509 39.781, 91.896 41.174, 89.271 41.544 C 82.849 42.450, 79.996 44.370, 80.015 47.773 C 80.034 51.099, 80.495 51.762, 85.250 55.307 C 88.594 57.799, 89 58.580, 89 62.511 C 89 66.371, 88.502 67.380, 85 70.620 C 81.980 73.414, 81 75.085, 81 77.438 C 81 81.551, 83.315 84.691, 86.932 85.485 C 91.200 86.422, 92.212 88.229, 92.760 95.889 C 93.295 103.365, 93.711 102.575, 85.842 109.040 C 80.537 113.399, 81.471 116.116, 89.264 118.989 L 93.500 120.552 93.814 129.526 C 94.215 140.956, 92.661 144.544, 86.884 145.520 C 82.250 146.302, 81.517 147.217, 83.103 150.229 C 84.606 153.082, 85.595 153.750, 90.213 155.029 C 93.357 155.900, 94.810 155.687, 99.713 153.639 C 103.896 151.890, 107.351 151.224, 112.180 151.235 C 117.264 151.246, 119.681 150.742, 122.298 149.125 C 128.088 145.547, 135.734 146.967, 142.355 152.851 C 143.710 154.056, 146.135 154.500, 151.355 154.500 C 157.373 154.500, 159.013 154.115, 161.750 152.062 C 165.679 149.115, 165.823 147.131, 162.403 143.068 L 159.807 139.982 149.601 140.119 C 141.717 140.224, 138.641 139.866, 136.081 138.542 C 133.040 136.969, 132.814 136.532, 133.348 133.245 C 133.667 131.274, 134.330 129.400, 134.820 129.081 C 135.310 128.761, 136.015 126.847, 136.387 124.826 C 136.849 122.313, 138.236 120.156, 140.781 117.995 C 151.568 108.835, 153.693 105.508, 152.571 99.529 C 151.411 93.341, 145.397 92.399, 142.524 97.954 C 141.707 99.533, 139.887 101.062, 138.373 101.443 C 134.443 102.429, 131.842 99.406, 131.241 93.158 C 130.816 88.730, 131.069 87.840, 133.424 85.485 C 135.182 83.728, 136.670 83.045, 137.794 83.481 C 141.597 84.955, 149.042 85.225, 152.004 83.998 C 157.418 81.756, 158.573 76.827, 154.567 73.063 C 151.043 69.752, 146.061 69.659, 138 72.752 C 134.778 73.988, 133.432 73.361, 131.699 69.815 C 129.493 65.302, 128.892 52.040, 130.791 49.752 C 134.190 45.656, 131.506 33.483, 126.131 28.619 C 124.169 26.843, 124.053 26.861, 121.807 29.287 M 44.306 33.415 C 41.559 35.779, 41.499 36.058, 41.454 46.665 C 41.427 53.218, 40.928 58.373, 40.191 59.709 C 39.521 60.924, 36.954 62.811, 34.487 63.903 C 30.944 65.470, 30 66.399, 30 68.321 C 30 70.762, 32.178 73.488, 33.262 72.405 C 33.580 72.087, 34.599 72.985, 35.527 74.401 C 36.916 76.520, 37.094 78.346, 36.537 84.737 C 36.166 89.007, 35.187 95.821, 34.363 99.880 C 32.655 108.296, 33.490 111.991, 37.514 113.824 C 38.822 114.420, 41.717 116.556, 43.946 118.570 C 47.069 121.391, 48 122.964, 48 125.416 C 48 129.405, 43.952 135.724, 39.297 139 C 30.838 144.954, 28.955 148.839, 32.829 152.345 C 35.833 155.063, 39.527 154.368, 43.959 150.250 C 58.081 137.128, 59.613 136.344, 65 139.489 C 70.363 142.619, 75.578 144.957, 77.245 144.978 C 78.692 144.996, 78.891 144.381, 78.412 141.370 C 78.095 139.373, 76.972 136.813, 75.918 135.681 C 74.863 134.549, 73.999 133.370, 73.998 133.061 C 73.997 132.753, 71.937 131.199, 69.420 129.608 C 63.324 125.757, 62.376 123.070, 64.821 116.571 C 66.802 111.304, 68.420 105.437, 70.512 95.929 C 71.186 92.865, 72.303 89.303, 72.993 88.014 C 73.818 86.471, 74.063 83.418, 73.709 79.085 C 73.413 75.463, 73.653 70.391, 74.242 67.814 C 75.448 62.542, 74.157 59.460, 69.455 56.378 C 67.174 54.884, 66.497 54.869, 62.269 56.219 C 53.101 59.145, 50.995 56.305, 53.252 44.060 C 54.681 36.307, 54.661 35.839, 52.801 33.474 C 50.349 30.357, 47.879 30.340, 44.306 33.415 M 141.648 38.850 C 137.319 41.467, 137.287 44.215, 141.492 52.307 C 143.548 56.263, 145.881 60.241, 146.676 61.147 C 149.716 64.606, 156.654 59.827, 157.051 54 C 157.481 47.686, 156.885 45.802, 153.250 41.986 C 148.919 37.440, 145.507 36.518, 141.648 38.850 M 103.711 51.102 C 102.204 51.979, 101.958 53.350, 102.150 59.821 C 102.521 72.349, 104.958 75.012, 112.691 71.342 C 116.809 69.388, 117.417 68.227, 116.114 64.801 C 115.473 63.114, 115.514 60.813, 116.236 57.969 C 117.235 54.031, 117.139 53.531, 115.051 51.840 C 112.559 49.822, 106.579 49.433, 103.711 51.102 M 55.308 70.010 C 52.118 71.294, 50.090 74.949, 49.450 80.565 C 49.140 83.279, 48.165 89.606, 47.284 94.624 C 45.692 103.685, 45.696 103.772, 47.918 107.367 C 49.809 110.426, 50.451 110.829, 52.067 109.964 C 55.767 107.984, 58.620 98.774, 61.106 80.789 C 62.073 73.793, 62.059 71.776, 61.033 70.539 C 59.606 68.820, 58.512 68.719, 55.308 70.010 M 105.557 87.223 C 103.980 89.474, 103.546 97.078, 104.820 100.124 C 105.194 101.018, 107.162 103.635, 109.193 105.940 C 111.225 108.245, 112.670 110.696, 112.406 111.386 C 112.141 112.075, 109.942 114.297, 107.520 116.321 C 104.107 119.174, 103.228 120.509, 103.614 122.252 C 103.889 123.488, 104.444 128.016, 104.849 132.312 C 105.730 141.673, 106.998 143.002, 111.658 139.448 C 113.423 138.101, 115.338 137, 115.914 137 C 116.490 137, 117.267 135.762, 117.641 134.250 C 118.014 132.738, 119.373 129.821, 120.660 127.770 C 123.409 123.388, 123.529 121.924, 121.466 117.934 C 120.198 115.483, 120.134 114.232, 121.097 110.734 C 122.426 105.904, 122.435 99.817, 121.118 97.248 C 120.625 96.287, 119.384 93.772, 118.361 91.660 C 115.315 85.375, 108.504 83.015, 105.557 87.223" stroke="none" fill="black" fill-rule="evenodd"/>
</svg>