<svg xmlns="http://www.w3.org/2000/svg" width="256" height="256" viewBox="0 0 256 256" version="1.1">
	<path d="M 130.500 27.062 C 118.502 30.493, 97.632 35.203, 92.166 35.713 C 87.168 36.180, 85.029 36.880, 83.290 38.619 C 80.412 41.497, 80.294 46.849, 82.979 52.764 C 86.414 60.331, 86.599 63.757, 83.736 66.816 C 79.780 71.044, 79.484 73.449, 82.615 75.912 C 84.092 77.074, 87.025 78.300, 89.132 78.637 C 93.639 79.358, 95.416 81.113, 94.515 83.952 C 93.955 85.718, 93.034 86, 87.837 86 C 83.960 86, 80.782 86.606, 78.933 87.699 C 74.169 90.513, 73.203 97.064, 77.039 100.536 C 78.775 102.106, 79.567 102.153, 84.970 101.006 C 92.865 99.331, 94.343 100.360, 93.447 106.904 C 91.903 118.172, 89.379 123.109, 80.113 132.978 C 75.058 138.362, 73.442 138.828, 71.571 135.440 C 70.982 134.373, 68.813 131.598, 66.750 129.272 C 62.521 124.505, 61.857 120.111, 64.571 114.863 C 66.491 111.150, 69.944 98.439, 69.976 94.965 C 69.989 93.571, 70.891 89.895, 71.980 86.797 C 73.381 82.812, 74.039 77.992, 74.230 70.331 C 74.467 60.806, 74.259 59.177, 72.500 56.820 C 69.811 53.216, 68.095 52.916, 61.019 54.812 C 55.503 56.290, 54.863 56.291, 53.400 54.828 C 51.557 52.986, 51.435 51.169, 52.495 41.360 C 53.247 34.406, 53.200 34.177, 50.682 32.527 C 47.761 30.613, 45.123 31.101, 42.456 34.049 C 41.014 35.642, 40.556 38.275, 40.195 47.043 C 39.753 57.751, 39.664 58.105, 36.794 60.520 C 35.173 61.884, 33.276 63, 32.578 63 C 31.881 63, 30.619 63.787, 29.774 64.750 C 27.748 67.059, 28.877 69.989, 32.590 72.059 C 35.406 73.628, 35.498 73.921, 35.441 81.090 C 35.408 85.166, 35.032 92.845, 34.604 98.155 C 33.714 109.225, 34.265 110.949, 39.490 113.428 C 43.041 115.113, 48 121.572, 48 124.512 C 48 127.776, 45.092 132.696, 40.182 137.740 C 37.376 140.622, 34.636 143.812, 34.092 144.828 C 32.495 147.812, 33.870 150.812, 37.165 151.536 C 39.572 152.065, 41.192 151.458, 45.813 148.296 C 48.941 146.156, 52.086 143.192, 52.802 141.709 C 54.546 138.095, 58.154 137.368, 64.469 139.359 C 67.333 140.261, 70.323 141, 71.114 141 C 71.905 141, 73.440 142.912, 74.526 145.250 C 76.383 149.247, 76.771 149.518, 81.066 149.797 C 84.907 150.047, 86.059 149.668, 88.316 147.411 C 89.792 145.935, 91 143.979, 91 143.064 C 91 140.490, 96.062 133.293, 98.727 132.079 C 101.836 130.662, 104.478 132.065, 105.791 135.829 C 106.598 138.146, 106.406 139.310, 104.798 141.851 C 103.701 143.583, 102.189 145, 101.437 145 C 99.410 145, 97.859 148.591, 98.604 151.559 C 99.779 156.239, 102.829 156.586, 111.055 152.976 C 115.087 151.206, 119.988 149.562, 121.944 149.324 C 125.140 148.933, 135.108 150.838, 146.727 154.060 C 152.573 155.681, 157.788 154.559, 159.242 151.368 C 161.298 146.856, 157.836 144.508, 144.770 141.552 C 134.339 139.193, 131.759 135.897, 136.414 130.876 C 138.161 128.992, 139.281 125.857, 140.467 119.524 C 142.027 111.200, 142.019 110.677, 140.303 108.750 C 137.514 105.616, 132.618 103.985, 124.010 103.321 C 117.812 102.843, 115.382 103.066, 112.653 104.360 C 108.896 106.143, 106.509 105.769, 105.541 103.245 C 104.065 99.401, 106.869 98.824, 129.634 98.294 C 147.430 97.880, 151.826 97.497, 153.250 96.238 C 154.212 95.386, 155 94.145, 155 93.480 C 155 90.988, 150.760 87.013, 147.032 86.009 C 140.230 84.177, 123.551 83.015, 117.709 83.966 C 109.189 85.353, 105.384 83.419, 109.652 79.872 C 111.388 78.430, 126.367 76.838, 140.500 76.593 C 150.192 76.426, 152.340 75.744, 153.891 72.340 C 154.926 70.068, 154.797 69.412, 152.917 67.412 C 151.724 66.142, 149.486 64.826, 147.944 64.488 C 142.323 63.253, 142.120 60.595, 147.149 54.115 C 149.500 51.085, 149.485 48.847, 147.087 44.903 C 145.402 42.132, 145.325 41.325, 146.443 38.129 C 148.106 33.374, 147.714 31.391, 144.528 28.438 C 141.724 25.839, 136.551 25.332, 130.500 27.062 M 121.345 42.451 C 117.579 44.090, 116.538 46.702, 118.094 50.618 C 118.724 52.203, 119.298 55.514, 119.370 57.975 C 119.484 61.891, 119.840 62.570, 122.220 63.408 C 125.755 64.652, 128.324 62.433, 130.399 56.343 C 131.234 53.892, 133.061 50.528, 134.458 48.867 C 135.856 47.206, 137 45.482, 137 45.037 C 137 43.719, 130.429 40.997, 127.349 41.039 C 125.782 41.061, 123.080 41.696, 121.345 42.451 M 100 45.709 C 97.237 46.726, 94.967 49.320, 95.445 50.918 C 95.705 51.788, 96.132 54.379, 96.394 56.675 C 96.856 60.720, 99.199 66.440, 100.743 67.290 C 102.241 68.114, 107.671 65.996, 107.857 64.515 C 108.289 61.083, 108.254 59.221, 107.652 53.615 C 106.800 45.673, 105.041 43.856, 100 45.709 M 52.217 71.406 C 50.176 73.731, 48.954 76.365, 48.599 79.208 C 48.305 81.569, 47.825 85.300, 47.534 87.500 C 47.242 89.700, 46.718 94.782, 46.368 98.793 C 45.785 105.470, 45.923 106.289, 48.004 108.504 C 52.568 113.363, 56.392 107.982, 57.318 95.395 C 57.649 90.897, 58.846 84.927, 60.007 81.982 C 61.258 78.809, 61.979 75.031, 61.800 72.587 C 61.524 68.825, 61.254 68.476, 58.399 68.198 C 55.908 67.955, 54.693 68.585, 52.217 71.406 M 107.400 116.765 C 105.912 117.759, 104 121.509, 104 123.434 C 104 124.617, 105.071 125, 108.374 125 C 110.780 125, 114.567 125.641, 116.789 126.426 C 120.652 127.789, 121.008 127.735, 124.915 125.202 C 129.738 122.075, 130.678 117.683, 126.750 116.630 C 123.572 115.779, 108.722 115.882, 107.400 116.765" stroke="none" fill="black" fill-rule="evenodd"/>
</svg>