<svg xmlns="http://www.w3.org/2000/svg" width="256" height="256" viewBox="0 0 256 256" version="1.1">
	<path d="M 88.750 17.885 C 86.419 19.056, 85.241 20.564, 84.464 23.370 C 82.801 29.378, 81.250 29.991, 67.559 30.063 C 50.490 30.152, 39.518 31.339, 37.548 33.309 C 34.820 36.038, 32.836 41.949, 33.506 45.354 C 34.655 51.194, 36.218 54.017, 38.640 54.624 C 41.532 55.350, 43.845 53.612, 45.612 49.384 C 47.296 45.357, 52.301 42.998, 59.151 43.006 C 64.754 43.011, 72.023 44.594, 71.968 45.797 C 71.859 48.213, 68.927 50, 65.074 50 C 59.743 50, 57.588 51.167, 56.047 54.887 C 55.058 57.274, 55.081 58.400, 56.167 60.675 C 57.900 64.308, 61.886 64.851, 66.389 62.068 C 70.540 59.503, 71.726 59.497, 75.500 62.016 C 78.414 63.962, 78.437 64.036, 76.283 64.617 C 75.064 64.947, 73.794 66.072, 73.462 67.119 C 73.130 68.166, 71.532 69.708, 69.911 70.546 C 67.509 71.788, 66.258 71.858, 63.145 70.925 C 59.984 69.978, 58.782 70.061, 56.179 71.407 C 51.299 73.931, 49.756 77.792, 51.174 83.935 C 52.052 87.736, 52.058 89.905, 51.199 92.702 C 50.481 95.043, 50.415 96.638, 51.021 97.013 C 51.550 97.340, 51.962 99.383, 51.937 101.554 C 51.739 118.232, 52.032 120.649, 54.759 124.854 C 56.237 127.134, 57.961 129, 58.589 129 C 59.217 129, 60.926 129.940, 62.386 131.089 L 65.043 133.179 62.771 134.895 C 61.522 135.839, 58.582 137.223, 56.237 137.970 C 53.134 138.959, 50.754 140.811, 47.487 144.779 C 45.019 147.777, 43 150.833, 43 151.570 C 43 153.483, 48.992 154.348, 53.617 153.103 C 55.782 152.520, 59.116 150.874, 61.026 149.444 C 62.937 148.015, 66.300 145.919, 68.500 144.788 C 72.786 142.583, 77.249 137.909, 77.646 135.209 C 77.779 134.299, 78.607 133.030, 79.485 132.388 C 81.643 130.809, 91.006 129.723, 95.379 130.543 C 100.309 131.468, 101.381 133.041, 99.517 136.615 C 94.709 145.834, 103.320 153.169, 116.835 151.367 C 123.727 150.448, 124.925 150.640, 127.564 153.087 C 129.763 155.124, 134.372 155.570, 138.200 154.114 C 139.482 153.627, 142.667 152.938, 145.279 152.584 C 151.567 151.731, 154.066 150.691, 156.635 147.856 C 160.890 143.160, 161.649 133.754, 158.010 130.807 C 153.830 127.422, 150.768 128.519, 145.229 135.385 C 144.530 136.252, 143.967 137.195, 143.979 137.480 C 144.062 139.539, 143.879 140, 142.975 140 C 142.412 140, 141.518 138.863, 140.990 137.474 C 140.462 136.085, 139.348 134.687, 138.515 134.367 C 136.312 133.522, 136.654 131.200, 139.474 127.848 C 141.556 125.374, 141.882 124.121, 141.532 119.952 C 141.303 117.226, 140.752 114.434, 140.308 113.748 C 139.863 113.062, 139.459 105.975, 139.408 98 C 139.306 81.720, 138.988 79.157, 136.628 75.555 C 134.275 71.964, 131.302 70.304, 125 69.063 C 121.975 68.467, 118.600 67.791, 117.500 67.561 C 112.059 66.423, 104.417 65.789, 93.773 65.594 C 87.323 65.476, 81.734 65.067, 81.353 64.686 C 80.971 64.304, 81.706 62.878, 82.985 61.516 C 85.731 58.593, 87.399 50.367, 85.400 49.600 C 84.702 49.332, 83.652 48.218, 83.066 47.124 C 82.168 45.446, 82.475 44.798, 85.027 42.981 C 90.463 39.110, 104 40.452, 104 44.861 C 104 45.413, 103.129 46.142, 102.064 46.480 C 99.804 47.197, 99.373 48.767, 99.844 54.578 C 100.309 60.326, 103.001 63.148, 107.269 62.361 C 110.869 61.698, 116.322 61.616, 122.819 62.129 C 126.459 62.416, 127.436 62.080, 129.044 59.985 C 132.991 54.842, 129.431 48.111, 123.376 49.268 C 120.794 49.762, 113 46.452, 113 44.861 C 113 43.467, 120.357 41.950, 130 41.356 C 138.814 40.814, 139.704 40.934, 142.325 43.017 C 144.386 44.656, 145.002 45.855, 144.602 47.448 C 143.874 50.351, 146.546 54, 149.402 54 C 152.835 54, 155.082 50.796, 156.536 43.825 C 157.622 38.623, 157.616 37.017, 156.501 34.347 C 154.049 28.480, 151.682 27.980, 126.278 27.956 C 113.750 27.945, 103.050 27.613, 102.500 27.218 C 101.950 26.823, 100.522 24.422, 99.327 21.881 C 96.794 16.497, 93.779 15.359, 88.750 17.885 M 83.911 80.422 C 83.679 80.654, 80.341 80.950, 76.494 81.080 C 72.648 81.209, 68.512 81.755, 67.305 82.293 C 64.655 83.474, 63.541 85.886, 65.328 86.572 C 66.795 87.135, 82.233 86.511, 92 85.494 C 96.475 85.028, 100.836 85.312, 106 86.408 C 114.790 88.272, 119.791 88.416, 123.685 86.916 L 126.500 85.831 122.748 83.891 C 120.086 82.514, 115.439 81.674, 106.748 80.998 C 93.554 79.972, 84.588 79.746, 83.911 80.422 M 69.699 98.055 C 65.404 98.786, 63.433 100.273, 64.490 101.984 C 65.379 103.422, 81.056 102.489, 89 100.524 C 89.825 100.320, 90.838 100.119, 91.250 100.077 C 92.500 99.949, 92.089 98.348, 90.750 98.129 C 87.167 97.543, 73.002 97.494, 69.699 98.055 M 101.250 98.689 C 100.013 98.937, 99 99.733, 99 100.460 C 99 101.472, 101.787 101.817, 110.918 101.935 C 121.860 102.076, 122.815 101.942, 122.575 100.295 C 122.346 98.725, 121.134 98.484, 112.907 98.369 C 107.733 98.298, 102.487 98.441, 101.250 98.689 M 120.487 111.873 C 119.373 112.943, 105.831 114.204, 99 113.873 C 83.460 113.121, 66.050 114.301, 64.885 116.186 C 63.853 117.855, 67.006 119.929, 69.473 119.204 C 70.588 118.877, 83.092 118.499, 97.260 118.366 C 118.514 118.165, 123.281 117.862, 124.510 116.633 C 126.562 114.581, 126.376 113, 124.083 113 C 123.029 113, 122.011 112.533, 121.821 111.963 C 121.602 111.307, 121.112 111.274, 120.487 111.873 M 122 127 C 120.900 128.100, 119.170 129, 118.155 129 C 116.019 129, 113 131.991, 113 134.106 C 113 135.592, 116.373 139, 117.842 139 C 118.293 139, 119.253 140.103, 119.974 141.452 C 120.696 142.801, 122.568 144.351, 124.133 144.897 C 126.808 145.829, 127.178 145.605, 130.239 141.195 C 134.208 135.477, 136.248 131.729, 134.958 132.526 C 134.431 132.852, 134 132.554, 134 131.864 C 134 129.702, 128.734 125, 126.313 125 C 125.041 125, 123.100 125.900, 122 127" stroke="none" fill="black" fill-rule="evenodd"/>
</svg>