<svg xmlns="http://www.w3.org/2000/svg" width="256" height="256" viewBox="0 0 256 256" version="1.1">
	<path d="M 87.023 19.977 C 85.936 21.064, 84.382 23.542, 83.571 25.483 C 82.710 27.546, 81.033 29.417, 79.537 29.986 C 78.128 30.521, 69.401 30.953, 60.142 30.946 C 50.883 30.939, 42.137 31.378, 40.707 31.921 C 35.281 33.984, 34.882 46.868, 40.098 51.589 C 41.872 53.194, 42.163 53.074, 45.956 49.164 C 50.310 44.679, 53.132 43.553, 60 43.564 C 67.763 43.576, 72 44.826, 72 47.104 C 72 48.212, 71.550 48.840, 71 48.500 C 70.450 48.160, 70 48.287, 70 48.783 C 70 49.787, 63.343 52, 60.323 52 C 59.253 52, 57.344 52.963, 56.080 54.140 C 54.232 55.861, 53.895 56.968, 54.356 59.803 C 54.670 61.742, 55.396 63.796, 55.968 64.368 C 57.208 65.608, 64.094 65.306, 65.448 63.952 C 66.671 62.729, 72.704 62.711, 73.456 63.929 C 73.771 64.439, 73.010 65.012, 71.765 65.202 C 70.519 65.392, 69.602 66.068, 69.727 66.704 C 70.142 68.824, 64.061 73.053, 61.517 72.415 C 58.581 71.678, 55.713 73.190, 53.109 76.847 C 51.392 79.258, 51.234 80.263, 52.085 83.346 C 52.725 85.663, 52.760 88.817, 52.182 91.996 C 51.682 94.748, 51.617 97, 52.037 97 C 52.457 97, 53.330 99.363, 53.978 102.250 C 54.626 105.138, 55.417 108.175, 55.737 109 C 56.056 109.825, 56.231 110.884, 56.124 111.353 C 55.746 113.025, 60.403 116.040, 63.426 116.080 C 65.116 116.102, 70.100 116.283, 74.500 116.482 C 78.900 116.681, 83.384 116.879, 84.464 116.922 C 86.319 116.996, 86.333 117.096, 84.716 118.713 C 83.318 120.111, 80.568 120.498, 69.752 120.823 C 47.811 121.482, 44.637 121.469, 41.289 120.712 C 37.005 119.742, 35.327 122.431, 37.019 127.557 C 38.694 132.633, 40.995 133.451, 52.634 133.112 C 59.274 132.918, 63.004 133.198, 63.453 133.924 C 63.830 134.534, 64.557 134.774, 65.069 134.457 C 65.581 134.141, 66 134.610, 66 135.500 C 66 136.390, 65.615 136.880, 65.145 136.590 C 64.675 136.299, 63.274 137.144, 62.031 138.467 C 60.788 139.790, 56.785 142.097, 53.136 143.594 C 46.800 146.194, 42.016 150.112, 42.005 152.711 C 41.997 154.576, 45.953 157.831, 49.054 158.512 C 53.312 159.447, 64.183 153.171, 74.190 144 C 78.829 139.749, 84.141 135.640, 86.742 134.290 C 89.653 132.780, 97.351 132.583, 99.911 133.952 C 100.890 134.476, 102.940 135.131, 104.468 135.408 C 108.474 136.135, 108.854 137, 105.167 137 C 103.425 137, 102 137.450, 102 138 C 102 138.550, 102.477 139, 103.059 139 C 103.641 139, 103.853 139.429, 103.529 139.954 C 103.183 140.513, 105.744 141.030, 109.720 141.204 C 115.533 141.458, 116.458 141.750, 116.206 143.250 C 115.986 144.561, 116.597 145, 118.642 145 C 120.143 145, 122.300 145.865, 123.436 146.922 C 124.794 148.186, 129.260 149.553, 136.500 150.920 C 149.948 153.459, 151.257 153.479, 153.345 151.171 C 155.701 148.568, 155.403 146.468, 152.250 143.442 C 147.575 138.955, 143.778 137.901, 132.674 138.006 C 123.943 138.090, 108.538 136.670, 111.500 136.055 C 112.050 135.940, 113.400 135.630, 114.500 135.365 C 115.600 135.100, 117.063 134.834, 117.750 134.775 C 118.438 134.715, 119 134.292, 119 133.833 C 119 133.375, 119.810 133, 120.800 133 C 121.790 133, 123.041 132.559, 123.580 132.020 C 124.120 131.480, 129.272 130.531, 135.030 129.909 C 145.090 128.824, 147.988 128.024, 150.556 125.625 C 152.451 123.855, 150.242 120.413, 145.977 118.490 C 142.717 117.019, 141.082 116.924, 134.342 117.811 C 130.029 118.378, 124.643 118.617, 122.373 118.342 C 120.061 118.062, 116.391 118.469, 114.032 119.266 C 111.714 120.050, 106.934 120.784, 103.409 120.898 C 97.713 121.083, 97 120.895, 97 119.211 C 97 117.231, 102.303 115.015, 107.116 114.985 C 109.645 114.969, 115.164 113.190, 118.518 111.309 C 119.629 110.687, 122.329 109.880, 124.518 109.517 C 130.917 108.455, 132.911 107.022, 134.177 102.577 C 134.815 100.335, 135.528 97.825, 135.761 97 C 136.156 95.605, 137.062 83.824, 137.096 79.659 C 137.133 75.056, 132.794 72.093, 123.758 70.551 C 120.882 70.060, 119.873 69.344, 119.400 67.456 C 118.870 65.346, 118.200 64.998, 114.642 64.985 C 111.957 64.975, 110.975 64.668, 111.850 64.114 C 112.592 63.643, 116.327 63.425, 120.149 63.629 C 126.966 63.993, 133 62.310, 133 60.046 C 133 59.549, 133.651 58.492, 134.447 57.696 C 136.804 55.339, 132.403 52.018, 125.721 51.111 C 122.696 50.701, 119.533 49.676, 118.691 48.834 C 117.692 47.835, 115.827 47.424, 113.330 47.653 C 103.868 48.518, 102.222 49.141, 99.088 53.041 C 97.389 55.154, 96 57.197, 96 57.582 C 96 57.966, 96.978 60.240, 98.174 62.633 C 99.369 65.027, 100.008 67.327, 99.592 67.743 C 98.316 69.023, 82.927 69.619, 81.938 68.426 C 80.860 67.126, 82.734 65, 84.959 65 C 86.275 65, 89.312 61.641, 89.480 60 C 89.508 59.725, 89.888 58.938, 90.324 58.250 C 90.775 57.541, 90.666 57, 90.072 57 C 89.497 57, 88.369 55.426, 87.565 53.502 C 86.762 51.578, 84.938 49.473, 83.513 48.824 C 79.660 47.068, 80.829 44.731, 86.509 42.830 C 93.148 40.609, 99.223 40.631, 106.500 42.903 C 109.800 43.933, 113.447 44.604, 114.604 44.395 C 126.128 42.308, 140.582 42.248, 142.612 44.279 C 142.862 44.528, 143.164 46.030, 143.283 47.616 C 143.542 51.063, 145.158 53, 147.774 53 C 150.141 53, 152.124 50.713, 154.277 45.500 C 156.393 40.375, 156.544 39.205, 155.602 35.216 C 154.248 29.486, 151.898 28.762, 133.720 28.474 C 124.799 28.332, 115.816 28.634, 113.758 29.145 C 107.114 30.792, 101.068 30.468, 99.485 28.378 C 98.703 27.345, 98.049 25.894, 98.032 25.154 C 98.014 24.414, 97.069 22.502, 95.932 20.904 C 93.481 17.463, 89.909 17.091, 87.023 19.977 M 66.012 81.833 C 65.455 82.017, 65 83.440, 65 84.995 C 65 87.503, 65.426 87.885, 68.750 88.359 C 70.813 88.653, 76.775 88.681, 82 88.422 C 87.225 88.162, 97.193 87.967, 104.150 87.988 C 116.357 88.025, 122.720 86.974, 121.569 85.112 C 120.605 83.552, 107.311 80.763, 104.822 81.599 C 98.939 83.573, 93.130 83.969, 90.500 82.574 C 88.705 81.623, 68.507 81.012, 66.012 81.833 M 65.676 100.248 C 64.508 101.102, 64.131 102.177, 64.584 103.358 C 65.213 104.998, 66.298 105.112, 76.388 104.600 C 82.500 104.290, 88.625 104.080, 90 104.134 C 91.375 104.188, 94.412 104.193, 96.750 104.144 C 102.251 104.030, 102.400 104.032, 109.710 104.335 C 113.925 104.510, 116.933 104.069, 119.071 102.963 L 122.221 101.334 119.106 100.044 C 117.003 99.173, 114.121 98.979, 110.245 99.446 C 102.533 100.377, 74.261 100.515, 70.481 99.641 C 68.555 99.195, 66.815 99.415, 65.676 100.248" stroke="none" fill="black" fill-rule="evenodd"/>
</svg>