<svg xmlns="http://www.w3.org/2000/svg" width="256" height="256" viewBox="0 0 256 256" version="1.1">
	<path d="M 85.578 20.510 C 84.299 21.890, 82.951 24.905, 82.582 27.210 C 81.528 33.803, 81.128 33.993, 68.128 34.062 C 61.732 34.096, 53.168 34.457, 49.096 34.865 C 42.330 35.542, 41.452 35.894, 38.899 38.952 C 36.504 41.821, 36.110 43.164, 36.135 48.377 C 36.170 55.707, 38.123 61, 40.794 61 C 43.200 61, 46.151 57.765, 47.474 53.677 C 49.004 48.949, 53.813 47.678, 67 48.518 C 72.775 48.885, 77.757 49.032, 78.071 48.843 C 78.793 48.410, 82 51.567, 82 52.710 C 82 53.180, 80.860 53.658, 79.467 53.773 C 78.073 53.889, 75.536 54.706, 73.827 55.589 C 71.492 56.797, 69.368 57.027, 65.269 56.514 C 58.145 55.624, 54.440 57.142, 52.824 61.611 C 52.150 63.475, 51.239 65, 50.799 65 C 50.360 65, 50 66.289, 50 67.865 C 50 71.028, 53.369 76, 55.512 76 C 56.263 76, 58.958 74.200, 61.500 72 C 67.657 66.671, 69.863 66.811, 76.347 72.944 C 79.222 75.663, 82.683 78.273, 84.037 78.745 C 85.392 79.216, 92.244 79.579, 99.264 79.551 L 112.029 79.500 116.485 74.785 L 120.941 70.070 127.322 70.666 C 133.228 71.217, 133.826 71.086, 135.352 68.908 C 137.395 65.992, 137.432 65, 135.500 65 C 133.524 65, 133.607 64.315, 135.944 61.344 C 138.489 58.108, 137.855 56.814, 132.436 54.181 C 126.547 51.320, 125.185 51.418, 120.231 55.062 C 117.223 57.273, 115.888 59.078, 115.422 61.562 C 114.838 64.676, 114.458 65, 111.389 65 C 108.189 65, 108 64.807, 108 61.535 C 108 59.119, 107.408 57.753, 106.043 57.023 C 104.952 56.439, 103.796 54.432, 103.432 52.488 L 102.777 49 97.139 48.970 C 93.382 48.949, 92.004 48.644, 93.011 48.053 C 95.270 46.730, 124.855 45.201, 131.086 46.085 C 134.064 46.508, 137.287 46.887, 138.250 46.927 C 139.213 46.967, 140.917 47.917, 142.038 49.038 C 143.644 50.644, 143.937 51.817, 143.422 54.566 C 142.865 57.533, 143.175 58.433, 145.492 60.580 C 148.759 63.608, 150.606 63.414, 153.336 59.755 C 154.941 57.603, 155.477 55.061, 155.815 47.996 C 156.208 39.767, 156.039 38.679, 153.873 35.507 C 152.568 33.595, 150.991 31.834, 150.370 31.593 C 149.748 31.352, 141.423 30.862, 131.870 30.505 C 118.046 29.988, 113.381 30.159, 109.016 31.342 C 105.999 32.160, 103.187 32.616, 102.766 32.355 C 102.345 32.095, 102 32.359, 102 32.941 C 102 33.523, 101.523 34, 100.941 34 C 100.359 34, 100.138 33.586, 100.450 33.081 C 100.763 32.575, 100.452 31.552, 99.759 30.807 C 98.442 29.390, 97.976 28.011, 97.535 24.228 C 96.829 18.173, 89.777 15.979, 85.578 20.510 M 86.584 62.641 C 86.165 63.734, 87.047 65.262, 89.227 67.221 C 91.859 69.585, 93.138 70.059, 95.760 69.641 C 97.553 69.356, 99.727 68.416, 100.591 67.552 C 102.017 66.125, 101.872 65.924, 99.001 65.350 C 97.263 65.003, 95.318 63.882, 94.680 62.859 C 93.186 60.467, 87.477 60.313, 86.584 62.641 M 107.358 83.991 C 106.180 84.466, 95.360 85.054, 83.313 85.296 C 59.319 85.779, 57.421 86.195, 53.228 91.892 C 51.687 93.985, 51.149 95.746, 51.556 97.366 C 52.286 100.275, 48.691 103.198, 42.251 104.932 C 37.781 106.136, 36.164 108.790, 37.443 112.820 C 38.606 116.485, 42.781 117.266, 54.794 116.065 C 62.700 115.274, 66.581 115.270, 68.633 116.051 C 70.717 116.843, 73.198 116.812, 77.846 115.935 C 81.446 115.255, 88.041 114.953, 93.038 115.238 C 98.740 115.563, 103.686 115.270, 107.001 114.410 C 111.240 113.310, 120.118 112.869, 132.500 113.142 C 138.489 113.275, 148.679 111.785, 150.659 110.488 C 153.901 108.363, 152.744 106.669, 145.990 103.656 C 139.857 100.920, 137.076 97.818, 138.846 95.686 C 140.396 93.819, 140.408 93.630, 139.134 91.250 C 137.124 87.494, 133.916 86.140, 123.236 84.535 C 111.768 82.813, 110.394 82.766, 107.358 83.991 M 110.250 96.746 C 107.829 97.169, 107.561 97.760, 108.863 99.813 C 109.620 101.006, 114.198 102.233, 118 102.263 C 122.523 102.298, 125.667 101.864, 127 101.021 C 128.333 100.178, 128.333 99.914, 127 98.648 C 125.501 97.225, 114.596 95.987, 110.250 96.746 M 87.786 98.414 C 85.744 99.143, 83.831 99.498, 83.536 99.203 C 83.241 98.908, 83 99.359, 83 100.205 C 83 101.294, 84.532 101.971, 88.250 102.525 C 94.528 103.461, 95.760 103.318, 98.923 101.284 C 101.249 99.790, 101.271 99.672, 99.482 98.363 C 97.158 96.664, 92.633 96.683, 87.786 98.414 M 61.450 99.693 C 59.860 101.283, 59.900 101.501, 62.113 103.293 C 64.897 105.547, 69.156 105.222, 76 102.233 L 80.500 100.268 76.500 99.140 C 70.475 97.440, 63.445 97.698, 61.450 99.693 M 81.079 100.583 C 81.127 101.748, 81.364 101.985, 81.683 101.188 C 81.972 100.466, 81.936 99.603, 81.604 99.271 C 81.272 98.939, 81.036 99.529, 81.079 100.583 M 129.691 118.643 C 129.029 119.304, 107.119 120.108, 76.546 120.593 L 54.593 120.941 51.100 124.433 L 47.608 127.925 50.054 130.068 C 54.221 133.719, 56.990 134.198, 71.878 133.843 C 89.027 133.434, 90.038 133.963, 85.422 140.938 L 82.580 145.233 76.040 144.668 C 72.443 144.357, 70.063 144.342, 70.750 144.635 C 71.438 144.927, 72 146.822, 72 148.846 C 72 154.397, 76.947 157.690, 85.602 157.900 C 90.898 158.029, 95.890 154.729, 98.362 149.465 C 99.386 147.284, 100.646 145.343, 101.161 145.150 C 101.677 144.958, 101.476 143.833, 100.714 142.650 C 95.840 135.085, 100.114 132.523, 119.153 131.595 C 132.467 130.946, 138.161 129.436, 139.960 126.074 C 141.399 123.387, 140.225 121, 137.464 121 C 136.188 121, 134.537 120.438, 133.798 119.750 C 132.245 118.308, 130.497 117.836, 129.691 118.643" stroke="none" fill="black" fill-rule="evenodd"/>
</svg>