<svg xmlns="http://www.w3.org/2000/svg" width="256" height="256" viewBox="0 0 256 256" version="1.1">
	<path d="M 87.396 25.750 C 86.214 27.523, 85.616 30.091, 85.714 32.979 C 85.797 35.442, 85.390 38.030, 84.810 38.729 C 84.029 39.671, 79.107 40, 65.820 40 C 36.954 40, 33.834 41.848, 36.806 57.185 C 37.811 62.372, 40.343 67, 42.175 67 C 42.577 67, 43.762 65.088, 44.808 62.750 C 48.606 54.262, 52.296 52.915, 71.659 52.951 C 80.197 52.967, 86.166 52.502, 88.659 51.626 C 91.519 50.622, 98.564 50.314, 116.249 50.423 C 143.012 50.588, 142.597 50.473, 144.478 58.255 C 145.155 61.054, 146.118 62.600, 147.329 62.830 C 150.733 63.476, 153.740 62.043, 154.811 59.263 C 155.774 56.761, 156.126 55.300, 157.435 48.379 C 158.017 45.299, 154.464 40.089, 150.728 38.546 C 146.060 36.618, 123.882 36.058, 108.655 37.483 C 98.570 38.426, 98.041 38.125, 98.015 31.439 C 97.987 23.818, 91.133 20.146, 87.396 25.750 M 97.919 60.390 C 97.599 60.723, 94.899 61.205, 91.919 61.461 C 88.938 61.716, 83.432 62.183, 79.683 62.497 C 71.716 63.166, 64.025 65.495, 62.250 67.776 C 60.237 70.363, 60.734 74.700, 63.245 76.459 C 65.097 77.757, 67.275 77.916, 75.700 77.371 C 84.306 76.815, 86.310 76.973, 88.455 78.379 C 90.702 79.851, 91 80.732, 91 85.898 C 91 94.110, 90.060 97.897, 87.711 99.155 C 85.665 100.250, 80.987 100.608, 57.678 101.458 C 46.864 101.853, 44.317 102.259, 41.415 104.052 C 37.322 106.582, 35.653 109.330, 36.530 112.095 C 37.599 115.464, 41.052 115.997, 55.226 114.983 C 89.299 112.545, 88.315 112.548, 90.385 114.855 C 91.916 116.562, 92.130 117.755, 91.523 121.228 C 91.113 123.577, 90.854 128.106, 90.949 131.290 C 91.108 136.664, 90.871 137.329, 87.660 140.540 C 84.760 143.440, 83.487 144, 79.791 144 C 77.366 144, 74.542 144.615, 73.514 145.366 C 71.845 146.587, 71.786 147.069, 72.961 149.906 C 74.788 154.316, 77.637 156, 83.272 156 C 93.167 156, 96.792 152.130, 100.258 137.867 C 102.270 129.589, 102.645 126.378, 101.952 123.367 C 99.826 114.134, 102.517 113, 128.652 112.112 C 147.474 111.473, 149.183 111.262, 151.112 109.332 C 152.812 107.632, 152.996 106.861, 152.101 105.190 C 150.850 102.852, 150.424 102.690, 139.500 100.388 C 133.855 99.199, 127.443 98.758, 117.715 98.890 L 103.930 99.077 102.382 95.372 C 101.433 93.101, 100.963 89.603, 101.167 86.332 C 101.486 81.229, 101.392 80.995, 99 80.955 C 96.939 80.920, 97.202 80.639, 100.500 79.357 C 102.816 78.456, 108.136 77.724, 113.135 77.618 C 123.177 77.406, 125 76.404, 125 71.100 C 125 66.142, 122.722 63.220, 118.221 62.408 C 116.175 62.039, 113.600 61.559, 112.500 61.342 C 107.957 60.446, 98.459 59.826, 97.919 60.390" stroke="none" fill="black" fill-rule="evenodd"/>
</svg>