<svg xmlns="http://www.w3.org/2000/svg" width="256" height="256" viewBox="0 0 256 256" version="1.1">
	<path d="M 89.241 21.250 C 88.689 21.938, 87.042 24.880, 85.582 27.789 C 82.727 33.475, 79.575 35.497, 75.076 34.527 C 73.659 34.221, 66.105 34.406, 58.290 34.936 C 43.121 35.967, 40.276 36.903, 38.152 41.567 C 35.732 46.878, 39.130 59, 43.039 59 C 44.379 59, 47.188 55.891, 49.169 52.217 C 50.884 49.035, 55.778 46.961, 61.759 46.882 C 77.902 46.668, 89.537 47.247, 90.205 48.297 C 90.736 49.133, 90.974 48.999, 90.985 47.857 C 90.993 46.953, 91.787 45.885, 92.750 45.483 C 93.713 45.081, 104.215 44.592, 116.089 44.398 C 140.256 44.001, 140.647 44.094, 142.474 50.630 C 143.290 53.546, 144.141 54.584, 145.927 54.839 C 149.802 55.393, 152.739 53.163, 153.443 49.132 C 155.348 38.219, 155.390 38.573, 151.755 34.830 L 148.333 31.306 133.416 30.717 C 124.522 30.365, 115.793 30.562, 111.794 31.203 C 103.878 32.473, 100.006 31.350, 97.929 27.184 C 96.117 23.548, 92.916 20, 91.448 20 C 90.786 20, 89.793 20.563, 89.241 21.250 M 86.466 51.289 C 83.998 52.684, 70.282 55.798, 63 56.617 C 56.568 57.340, 54.613 59.056, 56.214 62.571 C 57.353 65.071, 61.243 66.653, 66.861 66.900 C 71.343 67.098, 74 68.637, 74 71.035 C 74 72.116, 73.612 73, 73.138 73 C 72.663 73, 70.526 74.375, 68.388 76.054 C 66.249 77.734, 63.038 80.259, 61.250 81.665 C 59.462 83.071, 58 85.032, 58 86.022 C 58 88.898, 52.284 93.078, 48.644 92.863 C 43.508 92.559, 39.250 93.969, 37.574 96.528 C 35.536 99.638, 35.577 102.434, 37.693 104.550 C 39.138 105.995, 40.631 106.143, 47.849 105.557 C 52.504 105.179, 58.346 104.180, 60.832 103.336 C 64.467 102.102, 66.443 102.008, 70.926 102.857 C 81.097 104.782, 101.933 105.141, 107.409 103.485 C 113.840 101.540, 119.985 101.601, 122.894 103.639 C 124.927 105.063, 125.156 105.842, 124.643 109.587 C 124.275 112.275, 124.604 115.461, 125.518 118.052 C 126.325 120.338, 127.067 125.277, 127.168 129.029 C 127.328 135.007, 127.027 136.276, 124.727 139.291 C 123.284 141.183, 120.028 143.707, 117.491 144.899 C 113.261 146.887, 112.904 147.334, 113.189 150.284 C 113.457 153.053, 114.002 153.624, 117.110 154.392 C 120.130 155.139, 121.623 154.842, 126.252 152.577 C 135.020 148.288, 136.653 145.818, 137.631 135.371 C 138.624 124.754, 138.388 114.151, 137.081 110.714 C 136.559 109.339, 136.379 107.266, 136.682 106.107 C 137.170 104.242, 137.966 104, 143.617 104 C 148.720 104, 150.411 103.589, 152.051 101.949 C 156.175 97.825, 152.414 93.227, 143.215 91.146 C 135.262 89.346, 129.511 86.417, 128.175 83.485 C 127.360 81.695, 127.351 81, 128.144 81 C 128.881 81, 128.834 80.505, 128 79.500 C 127.315 78.675, 126.135 78, 125.378 78 C 124.620 78, 124 77.601, 124 77.114 C 124 74.892, 116.945 73, 108.658 73 C 103.281 73, 99.854 72.572, 99.405 71.845 C 98.990 71.175, 99.128 70.961, 99.732 71.334 C 100.304 71.688, 100.997 71.118, 101.272 70.067 C 101.919 67.594, 107.598 66.019, 116 65.984 C 120.155 65.966, 123.981 65.284, 126.603 64.093 C 130.951 62.118, 132.722 58.844, 130.460 56.967 C 128.511 55.349, 114.159 53.054, 106.779 53.180 C 103.274 53.239, 99.416 52.758, 98.205 52.110 C 95.060 50.426, 88.772 49.987, 86.466 51.289 M 91.139 72.787 C 90.391 73.036, 87.092 75.845, 83.808 79.029 C 79.294 83.405, 77.918 85.389, 78.168 87.159 C 78.806 91.661, 90.804 93.435, 100.715 90.492 C 106.267 88.843, 107.440 87.288, 105.997 83.491 C 105.250 81.527, 104.347 81, 101.731 81 C 98.710 81, 98.319 80.646, 97.355 77.034 C 96.592 74.177, 96.604 72.965, 97.398 72.701 C 98.004 72.499, 97.150 72.333, 95.500 72.333 C 93.850 72.333, 91.888 72.537, 91.139 72.787 M 82 110.003 C 74.575 110.363, 67.233 111.185, 65.685 111.829 C 64.137 112.473, 60.884 113, 58.458 113 C 51.565 113, 50.450 115.479, 50.701 130.231 C 50.972 146.118, 53.039 149.801, 60.185 147.137 C 61.458 146.662, 68.096 145.958, 74.936 145.573 C 81.775 145.187, 88.075 144.510, 88.936 144.068 C 89.796 143.626, 92.840 142.715, 95.700 142.044 C 98.561 141.373, 101.327 140.301, 101.848 139.662 C 103.641 137.464, 105.833 128.346, 104.917 126.900 C 104.429 126.130, 104.024 122.488, 104.015 118.807 C 104.002 113.033, 103.695 111.899, 101.777 110.557 C 100.555 109.701, 98.643 109.078, 97.527 109.173 C 96.412 109.269, 89.425 109.642, 82 110.003 M 68.755 122.981 C 63.445 123.663, 62.534 124.328, 61.628 128.178 C 60.446 133.203, 62.718 134.098, 75.852 133.781 L 87.500 133.500 89.402 129.603 C 92.303 123.662, 91.020 122.514, 81.389 122.435 C 77.050 122.400, 71.365 122.645, 68.755 122.981" stroke="none" fill="black" fill-rule="evenodd"/>
</svg>