<svg xmlns="http://www.w3.org/2000/svg" width="256" height="256" viewBox="0 0 256 256" version="1.1">
	<path d="M 88.443 21.728 C 87.334 23.419, 86.572 26.694, 86.436 30.352 C 86.299 34.024, 85.704 36.573, 84.858 37.109 C 83.084 38.233, 79.726 38.226, 76.743 37.092 C 75.289 36.540, 68.178 36.600, 58.562 37.247 C 44.759 38.175, 42.489 38.573, 40.547 40.405 C 37.513 43.266, 37.006 45.977, 38.083 53.582 C 39.281 62.039, 41.209 65, 45.517 65 C 48.305 65, 48.971 64.522, 49.902 61.851 C 50.506 60.119, 51 57.947, 51 57.025 C 51 50.500, 68.152 46.593, 75.542 51.436 L 78.008 53.051 75.579 57.843 C 74.244 60.479, 70.186 65.755, 66.562 69.568 C 62.938 73.380, 59.716 77.470, 59.402 78.656 C 59.088 79.841, 57.989 81.031, 56.961 81.300 C 54.947 81.827, 53.421 86.050, 54.361 88.498 C 55.314 90.981, 58.767 90.205, 62.747 86.614 C 66.187 83.510, 72.120 81.019, 76.108 81.006 C 77.336 81.001, 77.862 82.407, 78.339 86.967 C 78.682 90.249, 78.706 93.603, 78.392 94.421 C 77.254 97.387, 63.980 104.504, 58 105.354 C 55.525 105.706, 51.925 106.277, 50 106.623 C 48.075 106.969, 45.375 107.350, 44 107.470 C 42.625 107.589, 40.948 107.757, 40.273 107.843 C 39.598 107.930, 38.309 109.125, 37.408 110.500 C 35.889 112.819, 35.891 113.184, 37.438 115.546 C 40.222 119.794, 42.728 120.344, 51.277 118.578 C 63.683 116.015, 64.840 116.542, 61.401 123.191 C 60.296 125.327, 59.784 129.098, 59.744 135.391 C 59.684 144.682, 61.094 150.176, 64.198 152.750 C 66.485 154.647, 103.215 155.696, 109.611 154.047 C 112.300 153.354, 117.444 152.849, 121.043 152.924 C 127.889 153.068, 129.793 151.992, 132.871 146.241 C 134.451 143.289, 133.368 126.765, 131.504 125.390 C 129.467 123.886, 129.603 119.662, 131.750 117.758 C 133.299 116.384, 140.011 114.261, 148.283 112.528 C 151.536 111.847, 154.451 108.799, 154.617 105.905 C 154.778 103.090, 151.527 101.348, 144.724 100.606 C 141.548 100.260, 137.310 99.098, 135.307 98.024 C 133.303 96.951, 129.827 95.840, 127.582 95.556 C 119.447 94.527, 115.476 94.075, 114.250 94.038 C 110.489 93.924, 115.126 81, 118.929 81 C 119.518 81, 120 80.615, 120 80.144 C 120 79.673, 121.575 77.225, 123.500 74.704 C 128.156 68.606, 128.134 65.251, 123.417 62.195 C 121.353 60.857, 117.683 59.684, 114.679 59.401 C 93.687 57.423, 90.181 56.800, 89.702 54.968 C 89.137 52.808, 92.118 49.869, 96.711 48.057 C 100.230 46.668, 137.983 46.984, 141.230 48.429 C 142.952 49.195, 145.351 55.623, 144.455 57.072 C 144.197 57.490, 144.428 58.995, 144.968 60.416 C 146.144 63.508, 149.704 63.882, 152.910 61.250 C 155.440 59.174, 156.078 56.858, 156.720 47.423 C 157.159 40.965, 156.984 40.093, 154.721 37.462 C 152.337 34.691, 151.877 34.573, 142.870 34.433 C 137.717 34.352, 130.039 33.952, 125.809 33.543 C 121.024 33.080, 115.356 33.243, 110.809 33.973 C 106.789 34.619, 102.846 35.227, 102.047 35.324 C 101.102 35.438, 100.500 34.428, 100.324 32.438 C 100.176 30.753, 99.380 27.761, 98.556 25.787 C 95.571 18.644, 91.527 17.021, 88.443 21.728 M 86.500 70.375 C 84.850 71.127, 82.426 72.999, 81.114 74.535 C 78.832 77.206, 78.808 77.386, 80.555 78.664 C 81.560 79.399, 83.003 80, 83.761 80 C 84.519 80, 87.102 81.350, 89.500 83 C 94.424 86.388, 96.187 86.685, 98.048 84.442 C 98.759 83.585, 100.803 82.274, 102.590 81.527 C 110.053 78.409, 108.405 72.790, 99.500 70.992 C 96.750 70.437, 93.375 69.763, 92 69.495 C 90.625 69.226, 88.150 69.622, 86.500 70.375 M 89.399 102.326 C 87.694 104.072, 85.107 106.478, 83.649 107.674 C 80.425 110.321, 80.179 113.552, 83.143 114.327 C 84.321 114.635, 88.708 114.798, 92.893 114.688 C 104.895 114.374, 109.855 110.650, 104.765 105.773 C 96.612 97.963, 94.193 97.420, 89.399 102.326 M 119.431 112.103 C 118.065 112.638, 118.743 112.880, 121.750 112.930 C 124.088 112.968, 126 112.827, 126 112.617 C 126 111.768, 121.238 111.395, 119.431 112.103 M 107.453 125.644 C 104.246 126.513, 97.919 126.908, 89.500 126.765 C 75.094 126.520, 72.077 127.473, 70.198 132.862 C 69.391 135.176, 69.666 136.061, 71.996 138.669 L 74.745 141.746 93.577 142.793 C 114.785 143.972, 117.051 143.526, 119.483 137.684 C 121.881 131.926, 122.269 124.098, 120.090 125.444 C 119.705 125.682, 117.818 125.523, 115.898 125.090 C 113.683 124.590, 110.597 124.793, 107.453 125.644" stroke="none" fill="black" fill-rule="evenodd"/>
</svg>