<svg xmlns="http://www.w3.org/2000/svg" width="256" height="256" viewBox="0 0 256 256" version="1.1">
	<path d="M 87.412 22.495 C 86.512 23.867, 85.646 27.062, 85.487 29.596 C 85.327 32.130, 84.815 34.551, 84.348 34.977 C 83.882 35.402, 74.303 36.317, 63.062 37.009 C 44.555 38.149, 42.418 38.468, 40.444 40.384 C 37.422 43.317, 37.006 45.932, 38.237 54.279 C 39.647 63.841, 41.208 66.195, 45.881 65.801 C 49.303 65.514, 49.514 65.275, 50.573 60.481 C 52.547 51.550, 54.430 50, 63.304 50 C 66.957 50, 73 52.046, 73 53.283 C 73 53.767, 71.425 56.085, 69.500 58.435 C 67.575 60.784, 66 63.222, 66 63.853 C 66 64.484, 65.658 65, 65.240 65 C 64.456 65, 61.217 67.967, 57.214 72.353 C 54.274 75.573, 51.612 85.407, 52.986 87.973 C 53.531 88.993, 54.770 89.675, 55.739 89.490 C 56.707 89.305, 57.795 89.119, 58.155 89.077 C 59.375 88.934, 77.290 70.521, 79.147 67.500 C 81.507 63.663, 81.477 61.358, 79.004 56.508 C 77.906 54.354, 77.343 52.289, 77.754 51.919 C 78.164 51.549, 81.425 50.221, 85 48.967 C 91.182 46.799, 92.720 46.699, 116.395 46.926 C 133.204 47.087, 141.921 47.544, 143.230 48.332 C 144.953 49.370, 145.098 50.246, 144.530 56.195 C 143.964 62.112, 144.129 63.129, 145.945 64.945 C 149.418 68.418, 152.906 67.506, 156.135 62.282 C 157.947 59.349, 158.321 57.195, 158.376 49.375 C 158.439 40.484, 158.300 39.846, 155.761 37.306 L 153.079 34.625 132.790 34.242 C 121.630 34.032, 110.700 34.251, 108.500 34.730 C 103.267 35.869, 101 35.309, 101 32.877 C 101 31.790, 100.272 29.461, 99.383 27.700 C 95.483 19.981, 90.483 17.807, 87.412 22.495 M 111.750 56.080 C 110.574 56.765, 110 58.334, 110 60.865 C 110 64.024, 110.766 65.399, 114.750 69.390 C 120.544 75.194, 129.844 81, 133.346 81 C 134.936 81, 136.356 80.203, 137.038 78.929 C 137.973 77.183, 137.548 75.990, 134.325 71.310 C 132.223 68.258, 129.529 65.391, 128.337 64.938 C 127.146 64.485, 125.877 63.188, 125.518 62.057 C 124.620 59.226, 118.829 54.993, 115.906 55.030 C 114.583 55.047, 112.713 55.519, 111.750 56.080 M 89.174 76.314 C 87.978 77.587, 86.992 79.050, 86.983 79.564 C 86.968 80.391, 81.238 86.564, 76.264 91.113 C 75.294 92, 72.624 95.219, 70.330 98.266 C 67.420 102.133, 65.241 104.008, 63.114 104.475 C 61.438 104.843, 58.589 106.138, 56.783 107.353 C 53.793 109.364, 44.460 112.541, 39.500 113.236 C 36.185 113.701, 36.236 119.387, 39.583 122.490 C 42.595 125.281, 44.495 125.531, 50.043 123.869 C 52.120 123.247, 55.028 123.041, 56.507 123.412 C 58.741 123.973, 59.093 124.492, 58.594 126.482 C 58.263 127.800, 58.417 129.140, 58.936 129.461 C 59.465 129.787, 59.646 133.003, 59.348 136.772 C 58.916 142.228, 59.209 144.373, 60.896 148.118 C 63.774 154.506, 65.039 155.356, 70.215 154.380 C 72.572 153.936, 76.300 153.759, 78.500 153.987 C 83.977 154.555, 106.271 154.423, 118.881 153.749 C 125.983 153.369, 129.536 152.768, 130.128 151.847 C 133.127 147.179, 133.765 137.462, 131.605 129.351 L 130.235 124.203 133.077 122.101 C 135.194 120.536, 137.396 120, 141.710 119.998 C 149.131 119.996, 154.500 117.502, 154.500 114.056 C 154.500 110.222, 150.193 108.239, 134 104.619 C 132.625 104.311, 128.034 100.671, 123.799 96.530 C 119.563 92.388, 115.339 89, 114.413 89 C 113.487 89, 109.012 85.625, 104.468 81.500 C 95.451 73.314, 92.829 72.425, 89.174 76.314 M 95 91.740 C 91.024 93.283, 82.991 100.340, 80.635 104.360 C 76.953 110.643, 77.105 112.415, 81.250 111.543 C 83.037 111.167, 88.486 110.620, 93.357 110.326 C 100.380 109.903, 102.991 110.143, 105.966 111.485 C 111.063 113.783, 114.219 113.188, 115.441 109.697 C 116.712 106.069, 115.635 104.362, 109.515 100.307 C 106.865 98.551, 103.440 95.738, 101.905 94.057 C 99.139 91.029, 97.903 90.614, 95 91.740 M 70.500 123.745 C 69.162 124.755, 68.959 128, 70.234 128 C 70.840 128, 70.777 128.564, 70.075 129.410 C 69.163 130.508, 69.373 131.815, 71.025 135.331 C 72.192 137.812, 73.901 140.183, 74.823 140.599 C 75.745 141.016, 85.119 141.509, 95.653 141.695 L 114.806 142.034 118.006 139.342 C 120.717 137.061, 121.124 136.154, 120.677 133.400 C 120.387 131.613, 119.246 129.246, 118.142 128.142 C 113.377 123.377, 112.502 123.211, 91.500 123.098 C 80.500 123.039, 71.050 123.330, 70.500 123.745" stroke="none" fill="black" fill-rule="evenodd"/>
</svg>