<svg xmlns="http://www.w3.org/2000/svg" width="256" height="256" viewBox="0 0 256 256" version="1.1">
	<path d="M 101 28.122 C 83.713 28.809, 79.601 29.284, 63.054 32.507 C 52.758 34.512, 49.519 36.096, 47.422 40.150 C 45.944 43.008, 45.943 43.736, 47.406 48.949 C 48.601 53.208, 49 59.232, 49 73.005 C 49 91.840, 48.145 99.224, 44.810 109.201 C 43.762 112.336, 42.459 117.736, 41.914 121.201 C 40.967 127.214, 38.476 135.367, 36.932 137.500 C 35.768 139.109, 36.802 146.231, 38.437 147.866 C 39.771 149.200, 40.162 149.163, 41.957 147.539 C 44.630 145.120, 49.998 136.699, 50.006 134.912 C 50.010 134.136, 50.616 132.343, 51.354 130.930 C 52.091 129.516, 53.252 123.891, 53.933 118.430 C 55.650 104.660, 57.409 99.466, 60.796 98.167 C 62.283 97.597, 68.450 96.860, 74.500 96.529 C 80.550 96.198, 87.816 95.672, 90.648 95.361 C 95.001 94.882, 96.120 95.120, 97.898 96.898 C 100.639 99.639, 100.556 102.242, 97.617 105.659 C 95.483 108.139, 94.361 108.498, 86.867 109.091 C 81.278 109.534, 76.949 110.512, 73.828 112.038 C 67.808 114.982, 66.850 118.342, 67.704 133.522 C 68.371 145.383, 69.709 149.983, 73.208 152.433 C 75.819 154.262, 82.089 154.511, 83.748 152.852 C 84.604 151.996, 86.371 151.986, 90.698 152.812 C 99.164 154.428, 114.671 155.031, 122.069 154.032 C 125.606 153.554, 131.128 152.874, 134.341 152.522 C 137.553 152.170, 141.244 151.477, 142.543 150.984 C 145.751 149.764, 147.749 145.321, 147.032 141 C 146.713 139.075, 146.868 136.150, 147.377 134.500 C 147.887 132.850, 148.446 130.938, 148.620 130.250 C 148.795 129.563, 149.761 129, 150.768 129 C 152.283 129, 152.526 128.376, 152.175 125.374 C 151.913 123.130, 151.132 121.580, 150.126 121.306 C 147.747 120.660, 144.391 113.711, 146.158 113.090 C 148.447 112.286, 132.950 108.817, 124 108.130 C 115.042 107.442, 111.452 105.939, 110.593 102.515 C 109.765 99.215, 111.053 96.010, 113.369 95.608 C 114.541 95.404, 119.325 94.483, 124 93.561 C 128.675 92.638, 135.947 91.933, 140.160 91.992 C 148.692 92.112, 149.817 91.386, 147.978 86.946 C 146.269 82.822, 141.193 81.586, 125.522 81.479 L 112.543 81.390 111.682 78.386 C 110.455 74.110, 112.497 67.149, 115.301 66.045 C 116.510 65.569, 121.100 64.417, 125.500 63.486 C 140.966 60.214, 143.989 58.962, 145.572 55.172 C 146.358 53.293, 147 50.032, 147 47.925 C 147 45.818, 147.473 43.055, 148.052 41.785 C 149.643 38.293, 147.235 32.015, 143.500 29.917 C 139.699 27.783, 125.075 27.165, 101 28.122 M 106 41.194 C 75.084 42.674, 64.814 43.749, 62.074 45.789 C 58.608 48.368, 57.224 52.361, 59.039 54.547 C 60.582 56.406, 63.501 56.233, 75.429 53.574 C 80.191 52.512, 89.574 51.908, 105.429 51.642 C 118.118 51.429, 129.199 50.958, 130.053 50.596 C 132.041 49.753, 134.870 44.874, 134.295 43.282 C 133.407 40.826, 125.648 40.254, 106 41.194 M 80.500 65.685 C 72.565 66.376, 62.266 69.103, 60.152 71.073 C 58.468 72.641, 58 74.240, 58 78.417 C 58 84.644, 59.559 86.584, 63.744 85.564 C 73.164 83.269, 76.533 82.798, 85.651 82.504 C 91.234 82.324, 96.693 81.699, 97.783 81.116 C 101.601 79.073, 100.927 69.463, 96.761 66.545 C 94.631 65.054, 90.346 64.827, 80.500 65.685 M 96.500 121.145 C 92.100 122.255, 87.600 123.335, 86.500 123.545 C 83.580 124.102, 78 129.565, 78 131.867 C 78 134.721, 83.362 139.662, 87.208 140.352 C 91.588 141.136, 98.948 141.911, 107.500 142.488 C 111.350 142.748, 117.272 143.253, 120.661 143.611 C 124.049 143.969, 127.950 143.978, 129.328 143.632 C 132.559 142.822, 136 137.234, 136 132.799 C 136 127.718, 130.863 122.123, 125 120.820 C 116.247 118.874, 104.993 119.002, 96.500 121.145" stroke="none" fill="black" fill-rule="evenodd"/>
</svg>