<svg xmlns="http://www.w3.org/2000/svg" width="256" height="256" viewBox="0 0 256 256" version="1.1">
	<path d="M 100.500 27.111 C 90.600 27.482, 80.043 28.291, 77.039 28.907 C 74.035 29.524, 67.583 30.481, 62.701 31.034 C 53.312 32.097, 49.749 33.410, 46.498 37.003 C 44.619 39.078, 44.493 40.710, 44.387 64.355 C 44.295 84.616, 43.851 92.317, 42.101 104 C 39.300 122.695, 38.039 129, 37.100 129 C 36.683 129, 35.286 131.253, 33.996 134.008 C 32.055 138.152, 31.810 139.660, 32.575 142.758 C 33.374 145.988, 33.932 146.542, 36.656 146.806 C 39.241 147.057, 40.261 146.514, 42.292 143.806 C 45.916 138.974, 48.740 132.959, 49.500 128.453 C 50.194 124.338, 52.840 115.235, 53.847 113.500 C 54.386 112.571, 54.999 96.106, 55.056 81 C 55.091 71.922, 56.527 67.130, 59.560 65.977 C 60.912 65.463, 65.441 64.976, 69.623 64.895 C 78.032 64.732, 79.169 65.425, 78.819 70.500 C 78.523 74.797, 75.479 77.719, 69.483 79.462 C 66.611 80.297, 63.823 81.547, 63.286 82.240 C 60.981 85.217, 61.047 87.138, 63.538 89.629 C 65.781 91.872, 66.734 92.111, 72.278 91.823 L 78.500 91.500 78.533 94.837 C 78.589 100.484, 76.754 102, 69.866 102 C 64.546 102, 63.506 102.340, 60.923 104.923 C 56.240 109.606, 57.561 112.889, 65.026 115.126 C 69.591 116.494, 70.500 118.411, 69.092 123.701 C 68.535 125.790, 68.171 131.472, 68.281 136.327 C 68.462 144.264, 68.750 145.473, 71.140 148.327 L 73.797 151.500 84.148 151.235 C 93.566 150.995, 99.878 149.764, 100.077 148.129 C 100.119 147.783, 100.297 146.756, 100.474 145.846 C 100.650 144.936, 99.920 142.753, 98.850 140.994 C 97.059 138.048, 96.612 137.850, 93.202 138.486 C 83.868 140.226, 82.487 138.683, 81.504 125.420 C 80.854 116.647, 80.910 116.291, 83.166 114.863 C 84.450 114.051, 87.433 112.825, 89.794 112.140 C 93.792 110.979, 94.466 111.084, 99.544 113.655 C 103.384 115.599, 105.021 117.023, 105.071 118.459 C 105.339 126.121, 106.133 128.081, 110.658 132.256 C 113.475 134.854, 117.051 137.003, 119.880 137.796 C 122.534 138.541, 125.564 140.302, 127 141.934 C 128.375 143.497, 132.650 146.445, 136.500 148.485 C 142.677 151.757, 144.137 152.141, 148.916 151.751 C 152.993 151.417, 154.784 150.750, 156.161 149.050 C 157.166 147.808, 157.740 146.389, 157.436 145.896 C 157.131 145.403, 157.374 145, 157.976 145 C 159.249 145, 153.476 139.805, 150.425 138.205 C 149.284 137.607, 145.829 137.015, 142.748 136.890 C 138.188 136.706, 137.052 136.309, 136.647 134.758 C 136.059 132.510, 139.192 129, 141.787 129 C 144.129 129, 144.569 124.002, 142.569 120.133 C 140.492 116.116, 142.693 113, 147.606 113 C 152.127 113, 157 110.463, 157 108.109 C 157 106.345, 153.695 101.300, 151.534 99.765 C 149.585 98.381, 143.073 99, 137.821 101.071 C 128.805 104.625, 125.053 102.752, 125.014 94.679 C 124.992 90.154, 131.913 85.010, 138.032 85.004 C 141.076 85.001, 141.592 84.655, 141.771 82.500 C 141.916 80.748, 141.457 79.965, 140.239 79.885 C 139.282 79.821, 138.050 79.665, 137.500 79.537 C 136.950 79.409, 135.281 79.236, 133.790 79.152 C 128.712 78.867, 123.388 69.732, 127 67.500 C 128.552 66.541, 128.182 65.187, 126.250 64.756 C 125.287 64.542, 126.525 64.031, 129 63.621 C 131.475 63.211, 135.782 61.984, 138.572 60.894 C 142.817 59.235, 143.999 58.181, 145.822 54.429 C 147.020 51.964, 148.003 48.946, 148.006 47.723 C 148.010 46.500, 148.685 44.211, 149.506 42.636 C 152.564 36.773, 150.293 30.499, 144.284 28.211 C 140.478 26.761, 122.124 26.301, 100.500 27.111 M 80.500 41.671 C 70.050 42.431, 60.478 43.486, 59.230 44.014 C 56.582 45.135, 54.678 49.409, 55.571 52.225 C 56.247 54.352, 57.548 54.340, 70.500 52.088 C 76.911 50.974, 103.372 49.443, 111.250 49.730 C 113.862 49.826, 118.892 50.038, 122.427 50.202 C 127.651 50.444, 129.367 50.116, 131.599 48.450 C 135.988 45.174, 136.846 43.140, 134.559 41.441 C 132.068 39.592, 107.670 39.696, 80.500 41.671 M 97.092 64.008 C 93.513 64.852, 91.905 66.716, 90.886 71.203 C 90.100 74.661, 93.349 77.941, 97 77.376 C 98.375 77.163, 100.625 76.821, 102 76.615 C 108.424 75.656, 112.842 73.651, 114.102 71.122 C 115.684 67.946, 115.856 64.762, 114.500 63.765 C 113.200 62.810, 101.479 62.974, 97.092 64.008 M 92.637 90.276 C 90.440 91.883, 89.802 98.009, 91.579 100.439 C 92.809 102.120, 93.445 102.173, 99.115 101.057 C 109.424 99.029, 115.885 94.523, 113.874 90.764 C 113.076 89.273, 111.493 89, 103.656 89 C 97.713 89, 93.755 89.458, 92.637 90.276 M 121 112.306 C 117.975 113.338, 117.459 113.987, 117.199 117.086 C 117.005 119.405, 117.446 121.126, 118.449 121.958 C 119.302 122.666, 120 123.881, 120 124.658 C 120 125.693, 120.467 125.820, 121.750 125.134 C 122.713 124.619, 123.833 124.141, 124.240 124.071 C 128.241 123.390, 135.444 116.599, 134.573 114.329 C 134.249 113.486, 134.874 112.958, 136.281 112.885 C 139.282 112.729, 131.279 111.116, 127.500 111.114 C 125.850 111.113, 122.925 111.650, 121 112.306" stroke="none" fill="black" fill-rule="evenodd"/>
</svg>