<svg xmlns="http://www.w3.org/2000/svg" width="256" height="256" viewBox="0 0 256 256" version="1.1">
	<path d="M 108.704 26.106 C 107.716 26.681, 105.834 29.579, 104.522 32.547 C 101.070 40.352, 97.169 45.626, 88.493 54.218 L 80.821 61.816 83.644 64.985 C 86.174 67.824, 86.991 68.133, 91.484 67.953 C 94.243 67.842, 97.032 67.808, 97.683 67.876 C 99.980 68.117, 100.055 71.833, 97.854 76.364 C 96.140 79.892, 94.725 81.293, 91.626 82.533 C 89.420 83.416, 86.440 84.975, 85.004 85.997 C 82.440 87.823, 82.368 87.819, 81.108 85.802 C 79.482 83.198, 76.998 73.751, 77.006 70.201 C 77.010 68.716, 77.639 66.298, 78.405 64.830 C 79.689 62.369, 79.605 61.978, 77.338 59.848 C 74.025 56.735, 67.397 56.791, 64.837 59.953 C 61.247 64.387, 58 57.867, 58 46.223 C 58 36.643, 56.610 33.946, 52.610 35.768 C 50.997 36.503, 49.951 37.825, 49.873 39.229 C 49.803 40.478, 49.627 44.044, 49.482 47.153 C 49.337 50.263, 48.717 54.328, 48.104 56.186 C 46.728 60.355, 46.712 61.399, 47.521 93.565 C 48.198 120.470, 47.604 127.171, 44.434 128.387 C 43.357 128.800, 42.478 127.994, 41.531 125.728 C 40.460 123.166, 40.275 117.071, 40.656 96.988 C 41.275 64.323, 41.331 65.715, 39.330 64.252 C 37.352 62.805, 34.107 62.646, 32.130 63.898 C 29.996 65.251, 27.912 80.340, 28.180 92.500 C 28.314 98.550, 28.336 106.200, 28.229 109.500 C 27.986 117.007, 31.223 127.280, 35.150 131.470 C 36.712 133.136, 37.993 134.888, 37.995 135.361 C 37.998 135.835, 39.499 135.941, 41.331 135.598 C 43.856 135.124, 45.224 135.460, 46.984 136.986 C 49.952 139.560, 54.589 139.548, 58.841 136.955 L 62.183 134.918 66.411 139.459 C 72.643 146.151, 76 145.448, 76 137.453 C 76 135.592, 76.618 132.142, 77.373 129.785 C 78.235 127.092, 78.780 120.410, 78.840 111.797 C 78.907 102.097, 79.370 97.051, 80.426 94.524 L 81.917 90.954 87.959 95.549 C 93.792 99.985, 93.981 100.271, 93.421 103.822 C 93.102 105.845, 93.339 108.798, 93.947 110.385 C 95.180 113.601, 94.375 115.396, 89.545 120.198 C 84.768 124.947, 86.762 126.869, 99.124 129.431 C 100.567 129.730, 102.776 130.808, 104.034 131.827 L 106.321 133.679 104.285 135.589 C 98.359 141.149, 94.358 144.119, 92.062 144.663 C 85.863 146.129, 83.713 152.180, 88.714 154.081 C 92.164 155.393, 102.823 152.154, 109.754 147.689 C 116.238 143.510, 123.786 143.305, 129.243 147.158 C 133.896 150.444, 145.377 154.011, 151.155 153.967 C 156.077 153.929, 160 151.347, 160 148.146 C 160 147.028, 158.988 145.404, 157.750 144.537 C 155.550 142.996, 143.713 139.007, 135.250 136.954 C 131.463 136.035, 131 135.607, 131 133.020 C 131 131.424, 131.408 129.866, 131.906 129.558 C 132.405 129.250, 134.232 125.961, 135.966 122.249 C 137.700 118.537, 140.227 114.341, 141.579 112.925 C 142.932 111.508, 144.444 108.940, 144.938 107.217 C 145.707 104.534, 145.453 103.648, 143.168 101.057 C 140.644 98.194, 140.015 98.007, 131.500 97.589 C 126.550 97.346, 120.928 96.664, 119.007 96.073 C 114.447 94.672, 112.438 94.719, 110.821 96.262 C 107.238 99.683, 95.955 101.582, 96.035 98.750 C 96.103 96.357, 98.528 93.207, 102.875 89.864 C 107.322 86.445, 110.432 80.611, 111.867 73 C 112.353 70.421, 113.102 69.418, 114.712 69.187 C 118.728 68.612, 121 70.692, 121 74.945 C 121 80.619, 127.029 87.933, 134.138 90.882 C 137.087 92.106, 140.488 93.596, 141.695 94.193 C 146.359 96.501, 155.475 92.941, 156.623 88.364 C 157.774 83.780, 152.419 81.016, 142.364 81.006 C 137.508 81, 137.140 80.815, 135.614 77.599 C 131.059 68.001, 136.367 62.903, 148.431 65.289 C 150.935 65.784, 154 63.132, 154 60.471 C 154 59.325, 151.975 56.212, 149.500 53.555 C 147.025 50.897, 145 48.320, 145 47.828 C 145 47.336, 143.890 44.743, 142.533 42.065 C 138.396 33.902, 133.115 31.130, 128.225 34.555 C 126.141 36.015, 126.097 36.286, 127.500 39 C 128.322 40.590, 129.139 43.704, 129.314 45.919 C 129.605 49.601, 129.356 50.078, 126.415 51.473 C 122.451 53.355, 112.040 53.481, 109.574 51.678 C 107.898 50.452, 107.879 50.134, 109.326 47.337 C 110.184 45.678, 112.093 43.235, 113.568 41.910 C 121.204 35.047, 120.976 35.406, 119.970 31.840 C 118.344 26.077, 113.229 23.473, 108.704 26.106 M 61.177 65.695 C 59.424 70.122, 59.196 124.327, 60.922 126.406 C 61.980 127.681, 62.569 127.772, 63.699 126.835 C 67.259 123.880, 67.942 120.491, 67.520 107.864 C 66.453 75.929, 65.824 68.280, 64.037 65.557 L 62.288 62.890 61.177 65.695 M 117.735 109.327 C 112.869 110.843, 107.801 115.620, 108.198 118.317 C 108.579 120.899, 112.837 122.121, 118.669 121.322 C 122.287 120.826, 123.371 120.129, 125.210 117.114 C 126.423 115.126, 127.771 113.350, 128.207 113.167 C 130.739 112.102, 126.950 108.031, 123.500 108.109 C 122.400 108.133, 119.806 108.682, 117.735 109.327" stroke="none" fill="black" fill-rule="evenodd"/>
</svg>