<svg xmlns="http://www.w3.org/2000/svg" width="256" height="256" viewBox="0 0 256 256" version="1.1">
	<path d="M 117 19.762 C 114.013 20.742, 111.078 24.341, 109.354 29.137 C 107.286 34.887, 105.961 35.426, 91.315 36.479 C 80.344 37.268, 78.002 36.430, 77.996 31.715 C 77.991 27.032, 74.626 22, 71.500 22 C 68.037 22, 65.054 27.036, 65.167 32.693 C 65.300 39.321, 64.210 40, 53.443 40 C 48.321 40, 42.863 40.480, 41.315 41.067 C 37.519 42.505, 34 45.936, 34 48.199 C 34 50.515, 36.702 51.546, 45.095 52.431 C 50.420 52.992, 52.868 52.729, 57.813 51.063 C 67.153 47.917, 78 48.487, 78 52.125 C 78 53.163, 77.298 54, 76.429 54 C 75.564 54, 74.148 54.709, 73.281 55.576 C 72.039 56.819, 69.678 57.115, 62.103 56.978 C 56.821 56.883, 51.947 56.849, 51.270 56.903 C 48.871 57.092, 45.999 64.664, 46.031 70.710 C 46.077 79.167, 48.650 99.478, 49.995 101.990 C 53.734 108.976, 59.372 110.646, 77 109.988 C 92.080 109.425, 97.837 109.512, 103.500 110.390 C 110.142 111.420, 114 112.949, 114 114.552 C 114 116.384, 110.302 116.761, 105 115.470 C 100.426 114.356, 97.890 114.369, 87.892 115.558 C 83.898 116.032, 80.609 115.737, 76.467 114.533 C 72.672 113.430, 69.409 113.089, 67.076 113.550 C 60.512 114.849, 58.562 115.058, 48 115.589 C 34.671 116.259, 33.272 116.567, 32.499 119.002 C 31.527 122.067, 32.785 124.678, 35.783 125.817 C 37.913 126.626, 50.911 127.970, 59.706 128.289 C 60.369 128.314, 60.737 128.617, 60.522 128.964 C 60.307 129.312, 60.521 130.225, 60.996 130.994 C 61.494 131.800, 61.451 133.157, 60.893 134.199 C 59.890 136.075, 60.205 136.687, 64.705 141.595 C 67.301 144.428, 69.347 144.544, 78.857 142.396 C 85.319 140.937, 85.868 140.621, 84.944 138.896 C 84.386 137.853, 83.005 137, 81.875 137 C 79.343 137, 76.078 133.261, 76.033 130.311 C 75.987 127.291, 80.778 126.749, 98.894 127.725 C 114.431 128.562, 115.961 129.180, 114.656 134.095 C 113.538 138.308, 112.339 139.245, 106.983 140.092 C 104.103 140.547, 100.946 141.644, 99.968 142.529 C 98.386 143.960, 98.344 144.433, 99.589 146.819 C 100.358 148.294, 100.990 149.993, 100.994 150.595 C 101.009 153.375, 104.734 155, 111.079 154.996 C 122.291 154.990, 126.986 150.066, 127.014 138.282 C 127.038 128.050, 126.676 128.380, 138.721 127.601 C 151.002 126.807, 153 126.035, 153 122.080 C 153 117.539, 149.591 116, 139.535 116 C 133.080 116, 131 115.674, 131 114.664 C 131 113.929, 133.163 110.633, 135.806 107.339 C 141.763 99.917, 142.563 97.836, 143.958 86.145 C 145 77.409, 144.939 76.561, 143.037 73.338 C 140.627 69.253, 140.419 66.160, 142.500 65.362 C 144.760 64.494, 144.303 60.464, 141.586 57.306 C 139.194 54.525, 139.059 54.498, 126.336 54.308 C 119.276 54.202, 112.487 54.089, 111.250 54.058 C 107.816 53.970, 108.227 50.197, 111.750 49.474 C 113.263 49.163, 116.213 48.454, 118.306 47.898 C 120.608 47.286, 126.789 47.160, 133.949 47.578 C 140.459 47.959, 146.927 47.984, 148.323 47.634 C 154.173 46.166, 155.173 41.794, 150.641 37.500 C 148.782 35.739, 147.159 35.500, 137.055 35.500 L 125.581 35.500 125.281 30.069 C 124.906 23.263, 121.031 18.440, 117 19.762 M 90.104 50.914 C 88.462 51.955, 89.288 54.790, 91.480 55.631 C 93.149 56.271, 96.695 55.541, 98.912 54.100 C 100.113 53.319, 100.086 52.943, 98.734 51.591 C 97.007 49.864, 92.341 49.498, 90.104 50.914 M 90.021 67.116 C 85.411 68.955, 84 71.022, 84 75.932 C 84 82.544, 81.969 85, 76.500 85 C 73.149 85, 71.759 84.494, 70.612 82.857 C 69.245 80.905, 69.329 80.283, 71.556 75.890 C 72.900 73.237, 74 70.656, 74 70.155 C 74 69.653, 72.627 68.674, 70.948 67.979 C 68.557 66.988, 67.044 66.970, 63.958 67.894 C 59.224 69.313, 58.384 71.581, 59.721 79.338 C 60.278 82.573, 60.286 85.673, 59.741 87.110 C 58.820 89.539, 60.466 99.854, 61.822 100.147 C 62.457 100.284, 77.638 100.997, 82.866 101.135 C 84.167 101.169, 85.937 100.491, 86.800 99.628 C 88.137 98.291, 88.174 97.694, 87.052 95.597 C 84.851 91.485, 86.238 90, 92.281 90 C 95.935 90, 99.267 89.208, 102.813 87.498 C 108.090 84.952, 109.127 83.181, 106.580 81.067 C 105.800 80.419, 104.342 77.612, 103.341 74.829 C 100.550 67.066, 96.305 64.609, 90.021 67.116 M 112.500 67.346 L 110.500 68.885 112.500 70.904 C 114.073 72.493, 116.055 72.985, 121.786 73.212 C 126.183 73.386, 129.356 73.074, 129.786 72.427 C 130.179 71.837, 131.287 71.064, 132.250 70.708 C 133.213 70.353, 134 69.647, 134 69.138 C 134 67.635, 130.986 66.901, 122.500 66.338 C 116.225 65.922, 114.069 66.139, 112.500 67.346 M 116.750 84.728 C 113.211 85.099, 113 85.317, 113 88.596 C 113 90.507, 113.727 93.180, 114.615 94.535 C 115.909 96.509, 115.956 97, 114.856 97 C 114.100 97, 112.919 97.900, 112.232 99 C 111.051 100.892, 111.240 101.004, 115.742 101.077 C 118.359 101.119, 121.400 101.337, 122.500 101.562 C 123.600 101.788, 125.737 101.717, 127.250 101.406 C 129.319 100.981, 130 100.253, 130 98.468 C 130 97.162, 130.513 94.968, 131.140 93.592 C 133.551 88.300, 128.926 83.465, 122.125 84.168 C 121.231 84.261, 118.813 84.513, 116.750 84.728" stroke="none" fill="black" fill-rule="evenodd"/>
</svg>