<svg xmlns="http://www.w3.org/2000/svg" width="256" height="256" viewBox="0 0 256 256" version="1.1">
	<path d="M 90.317 35.199 C 88.713 37.262, 87.135 69.577, 87.544 92 C 88.351 136.274, 88.140 139.965, 84.733 141.272 C 83.952 141.572, 80.655 142.131, 77.407 142.514 C 67.384 143.698, 64.429 147.236, 69.492 151.993 C 73.542 155.797, 81.544 155.975, 88.577 152.417 C 96.445 148.436, 97.841 145.317, 98.959 129.216 C 99.444 122.222, 99.655 111.775, 99.427 106 C 98.587 84.694, 98.732 70.271, 99.873 61.500 C 100.954 53.198, 100.868 51.802, 98.772 43.500 C 96.692 35.261, 96.281 34.475, 93.914 34.199 C 92.492 34.034, 90.874 34.484, 90.317 35.199 M 117.427 61.765 C 114.854 63.527, 115.166 66.176, 118.647 72.116 C 120.619 75.479, 122.967 78.995, 123.866 79.928 C 124.765 80.862, 126.625 83.556, 128 85.916 C 129.375 88.275, 131.629 91.622, 133.008 93.353 C 137.708 99.249, 141.717 105.492, 143.698 110 C 146.337 116.007, 147.977 117.185, 153.176 116.811 C 157.467 116.502, 157.502 116.468, 157.801 112.387 C 158.035 109.184, 157.550 107.619, 155.611 105.314 C 154.241 103.686, 152.531 100.421, 151.810 98.058 C 151.090 95.695, 148.925 92.104, 147 90.078 C 141.618 84.414, 138 79.736, 138 78.442 C 138 77.797, 137.128 76.161, 136.062 74.806 C 134.996 73.451, 133.821 71.134, 133.450 69.657 C 133.079 68.180, 131.521 65.628, 129.987 63.986 C 127.711 61.549, 126.398 61.003, 122.849 61.015 C 120.457 61.024, 118.017 61.361, 117.427 61.765 M 56.494 63.733 C 52.981 64.332, 50.264 69.828, 49.687 77.500 C 49.107 85.226, 47.075 90.556, 42.430 96.543 C 34.890 106.261, 33.170 112.034, 36.829 115.345 C 41.051 119.166, 43.777 117.509, 51.750 106.275 C 60.338 94.173, 59.484 95.869, 61.964 86 C 64.828 74.604, 65.323 71.423, 64.650 68.743 C 63.983 66.084, 59.360 63.245, 56.494 63.733 M 116 125.441 C 116 128.505, 116.570 128.753, 117.289 126.001 C 117.577 124.902, 117.404 123.750, 116.906 123.442 C 116.408 123.134, 116 124.034, 116 125.441 M 116 132.500 C 116 136.640, 117.133 136.989, 119.035 133.435 C 120.211 131.236, 120.200 130.739, 118.954 129.950 C 116.517 128.409, 116 128.855, 116 132.500 M 116.420 140.190 C 116.542 141.945, 117.175 143.558, 117.827 143.776 C 118.479 143.993, 118.741 144.610, 118.410 145.146 C 117.669 146.344, 119.907 152, 121.121 152 C 122.298 152, 122.251 146.273, 121.069 145.543 C 120.557 145.226, 120.349 143.804, 120.607 142.382 C 121.107 139.625, 119.581 137, 117.477 137 C 116.661 137, 116.279 138.152, 116.420 140.190" stroke="none" fill="black" fill-rule="evenodd"/>
</svg>