<svg xmlns="http://www.w3.org/2000/svg" width="256" height="256" viewBox="0 0 256 256" version="1.1">
	<path d="M 87.360 32.227 C 86.943 32.902, 86.483 41.339, 86.338 50.977 C 86.193 60.615, 85.585 75.273, 84.987 83.551 C 83.886 98.775, 84.377 103.348, 87.313 105.214 C 90.850 107.463, 94.421 104.963, 95.897 99.205 C 97.497 92.963, 98.018 51.306, 96.548 47.108 C 95.853 45.123, 94.969 41.368, 94.583 38.762 C 93.629 32.323, 89.570 28.651, 87.360 32.227 M 56.726 52.750 C 55.855 53.712, 53.685 58.550, 51.904 63.500 C 48.583 72.728, 45.463 78.537, 41.926 82.074 C 34.942 89.058, 37.717 99.775, 45.429 95.599 C 48.005 94.204, 57.565 81.413, 58.880 77.602 C 59.090 76.996, 59.814 75.825, 60.490 75 C 63.444 71.396, 68 61.624, 68 58.893 C 68 52.881, 60.370 48.723, 56.726 52.750 M 120.454 54.750 C 118.559 56.813, 117.007 59.459, 117.005 60.631 C 116.999 63.145, 122.029 68.355, 126.081 70.033 C 127.650 70.683, 129.219 72.179, 129.569 73.358 C 129.918 74.536, 134.268 79.438, 139.235 84.250 C 148.283 93.017, 152.284 95.029, 153.641 91.492 C 154.482 89.301, 153.159 83.302, 151.461 81.604 C 150.657 80.800, 150 79.640, 150 79.026 C 150 77.904, 148.752 76.569, 141.450 69.883 C 139.278 67.893, 135.700 63.668, 133.500 60.493 C 128.744 53.630, 126.375 51, 124.949 51 C 124.371 51, 122.348 52.688, 120.454 54.750 M 116.190 105.119 C 114.435 106.834, 113 109.256, 113 110.502 C 113 111.916, 112.258 112.961, 111.025 113.283 C 109.939 113.567, 108.095 115.420, 106.927 117.400 C 105.758 119.380, 104.284 121.011, 103.651 121.024 C 103.018 121.037, 101.220 122.778, 99.656 124.893 C 97.867 127.313, 95.456 129.157, 93.156 129.865 C 91.145 130.484, 87.977 132.343, 86.114 133.995 C 83.903 135.958, 81.649 137.003, 79.614 137.010 C 77.902 137.015, 74.250 138.059, 71.500 139.330 C 63.999 142.795, 52.496 145.301, 47.516 144.555 C 36.787 142.946, 34.757 150.944, 44.697 155.660 C 47.957 157.208, 50.104 157.123, 57 155.177 C 90.146 145.822, 94.536 144.004, 99.055 137.766 C 102.609 132.859, 106.052 130.378, 111.307 128.937 C 113.400 128.362, 116.830 126.342, 118.928 124.446 C 121.026 122.551, 123.215 121, 123.792 121 C 124.369 121, 126.713 119.147, 129 116.883 C 132.463 113.455, 133.048 112.327, 132.499 110.139 C 131.601 106.560, 130.263 105.137, 126.207 103.442 C 121.249 101.370, 119.770 101.618, 116.190 105.119" stroke="none" fill="black" fill-rule="evenodd"/>
</svg>