<svg xmlns="http://www.w3.org/2000/svg" width="256" height="256" viewBox="0 0 256 256" version="1.1">
	<path d="M 114.500 36.086 C 110.650 36.409, 99.218 36.763, 89.095 36.873 C 78.972 36.984, 70.420 37.241, 70.091 37.444 C 69.762 37.647, 64.319 38.137, 57.996 38.532 C 42.195 39.519, 36.764 42.426, 39.071 48.662 C 40.474 52.456, 44.489 52.938, 62.151 51.435 C 71.143 50.670, 79.737 50.034, 81.250 50.022 C 84.457 49.996, 88.455 53.481, 87.290 55.286 C 86.859 55.954, 86.446 66.400, 86.374 78.500 C 86.301 90.600, 85.784 102.188, 85.226 104.251 C 84.415 107.244, 84.600 109.253, 86.137 114.194 C 87.482 118.515, 87.876 121.763, 87.441 124.943 C 86.355 132.876, 85.009 136.862, 83.228 137.423 C 76.726 139.471, 56.386 140.192, 43.053 138.848 C 40.170 138.557, 39.355 138.941, 38.080 141.192 C 36.628 143.754, 36.685 143.997, 39.246 146.197 C 40.726 147.469, 44.633 149.580, 47.927 150.889 C 54.681 153.571, 59.749 153.519, 79 150.570 C 84.775 149.685, 90.650 148.798, 92.055 148.599 C 93.461 148.399, 101.561 148.938, 110.055 149.796 C 118.550 150.655, 130.225 151.385, 136 151.420 C 145.170 151.476, 147.133 151.176, 151.500 149.048 C 157.941 145.909, 158.522 144.961, 155.589 142.375 C 153.483 140.518, 151.438 140.162, 139.340 139.544 C 131.728 139.155, 123.058 138.143, 120.074 137.296 C 116.165 136.186, 112.618 135.940, 107.379 136.415 C 100.540 137.034, 100.039 136.941, 98.911 134.834 C 97.157 131.557, 97.698 120.991, 99.734 118.741 C 101.102 117.230, 102.294 117.018, 106.474 117.540 C 112.168 118.251, 110.947 119.349, 120.679 104.781 C 122.781 101.636, 125.051 98.842, 125.724 98.573 C 126.398 98.303, 131.348 102.323, 136.724 107.506 C 148.665 119.017, 151.733 119.697, 153.346 111.190 C 153.847 108.550, 153.514 107.437, 151.704 105.690 C 150.456 104.486, 148.638 102.242, 147.665 100.705 C 146.692 99.168, 144.794 97.492, 143.448 96.980 C 142.101 96.468, 141 95.645, 141 95.150 C 141 94.122, 135.807 92.762, 131.805 92.741 C 129.158 92.727, 127.446 90.705, 128.558 88.906 C 129.010 88.175, 129.420 67.335, 129.083 62.250 C 129.037 61.563, 127.950 61, 126.667 61 C 124.085 61, 118 67.708, 118 70.555 C 118 71.475, 117.177 73.864, 116.171 75.864 C 113.943 80.294, 110.686 87.287, 108.654 92 C 107.825 93.925, 106.837 97.525, 106.460 100 C 105.669 105.189, 104.499 107, 101.937 107 C 100.936 107, 99.760 106.438, 99.323 105.750 C 97.785 103.331, 96.380 82, 97.275 74.660 C 97.755 70.722, 98.108 64.004, 98.060 59.731 C 97.973 52.137, 98.033 51.937, 100.736 50.891 C 102.256 50.302, 108 49.670, 113.500 49.488 C 141.965 48.543, 151 47.226, 151 44.021 C 151 41.891, 148.631 38.144, 146.640 37.124 C 144.163 35.857, 124.737 35.229, 114.500 36.086 M 61.229 58.669 C 59.086 59.532, 57.238 64.207, 56.554 70.501 C 55.096 83.911, 54.861 85.390, 53.915 87.158 C 53.373 88.171, 53.236 89, 53.611 89 C 53.986 89, 53.078 90.125, 51.595 91.500 C 50.111 92.875, 48.352 94, 47.686 94 C 45.417 94, 42.551 99.216, 39.794 108.365 C 36.634 118.849, 36.831 123, 40.490 123 C 42.075 123, 44.211 121.338, 47.161 117.812 C 55.508 107.831, 59.068 104.215, 61.063 103.694 C 62.445 103.332, 64.484 104.390, 67.591 107.079 C 74.431 112.999, 80.024 113.480, 80.811 108.216 C 81.297 104.960, 76.575 97.133, 72.169 93.893 C 66.830 89.966, 66.099 85.840, 68.922 75.550 C 71.577 65.876, 71.538 64.793, 68.411 61.077 C 65.951 58.153, 64.075 57.524, 61.229 58.669" stroke="none" fill="black" fill-rule="evenodd"/>
</svg>