<svg xmlns="http://www.w3.org/2000/svg" width="256" height="256" viewBox="0 0 256 256" version="1.1">
	<path d="M 93.290 21.944 C 91.979 23.166, 90.941 25.793, 90.499 29.008 C 89.619 35.403, 89.237 35.565, 73 36.411 C 66.125 36.769, 58.307 37.323, 55.627 37.642 C 50.316 38.274, 42.543 41.333, 41.307 43.278 C 40.880 43.950, 40.651 52.825, 40.799 63 C 41.156 87.545, 39.185 107.493, 34.590 125.832 C 30.495 142.180, 30.280 144.890, 32.831 148.040 C 34.260 149.804, 35.259 150.152, 37.374 149.621 C 38.865 149.247, 40.247 148.391, 40.444 147.720 C 40.641 147.049, 42.236 142.225, 43.988 137 C 48.950 122.204, 49.616 117.760, 50.580 93 C 50.870 85.575, 51.554 77.528, 52.101 75.118 C 52.648 72.708, 52.809 67.758, 52.459 64.118 C 51.716 56.384, 52.939 52.284, 56.215 51.530 C 57.472 51.240, 64.800 50.819, 72.500 50.593 C 81.167 50.339, 88.024 49.634, 90.500 48.742 C 97.012 46.396, 107.285 46.034, 128.500 47.403 C 148.766 48.710, 151.711 48.476, 155.248 45.275 C 157.657 43.095, 157.434 40.055, 154.605 36.519 L 152.221 33.539 130.269 33.714 L 108.318 33.890 106.583 30.195 C 101.838 20.085, 97.906 17.644, 93.290 21.944 M 76.500 58.052 C 74.850 58.518, 72.271 59.154, 70.768 59.464 C 66.912 60.261, 61 65.718, 61 68.481 C 61 71.391, 62.557 72.577, 67.339 73.313 C 75.706 74.599, 76 77.976, 68.467 86.299 C 62.454 92.944, 61.237 95.705, 62.927 98.864 C 64.162 101.171, 69.535 102.543, 73.908 101.668 C 78.158 100.818, 81.474 104.641, 80.416 109.168 C 79.987 111.001, 79.523 113.129, 79.385 113.897 C 79.247 114.666, 78.433 115.996, 77.577 116.852 C 76.292 118.136, 75.449 118.209, 72.760 117.265 C 67.783 115.518, 62.395 114.740, 60.171 115.446 C 55.352 116.975, 55.830 126.826, 60.848 129.421 C 65.770 131.967, 66.327 133.284, 64.986 139.212 C 62.531 150.065, 63.090 150.817, 72.159 148.872 C 76.090 148.029, 79.758 148.301, 92.234 150.358 C 120.684 155.048, 122.465 155.223, 137.622 154.820 C 150.358 154.481, 153.108 154.121, 156.041 152.408 C 159.885 150.163, 162.093 145.693, 160.262 143.862 C 159.588 143.188, 152.365 142.400, 142.317 141.903 C 115.553 140.582, 109.365 140.114, 104.794 139.069 C 102.432 138.529, 96.155 137.804, 90.844 137.457 C 82.272 136.898, 81.129 136.600, 80.659 134.803 C 80.310 133.470, 81.004 131.905, 82.694 130.216 C 85.889 127.020, 89.375 119.999, 90.897 113.692 C 91.535 111.048, 92.908 107.298, 93.948 105.358 L 95.839 101.831 108.501 101.575 C 120.682 101.329, 121.219 101.405, 122.643 103.578 C 123.977 105.614, 123.924 106.229, 122.106 109.793 C 119.635 114.637, 113.946 117.335, 108.157 116.409 C 105.014 115.906, 103.852 116.254, 101.192 118.492 C 97.580 121.532, 97.179 124.375, 99.871 127.875 C 101.638 130.173, 101.891 130.212, 107.599 129.049 C 117.375 127.058, 133.864 125.989, 145 126.623 C 154.824 127.182, 155.623 127.084, 157.409 125.106 C 158.984 123.361, 159.123 122.565, 158.202 120.544 C 156.496 116.800, 151.398 114.611, 144 114.444 C 140.425 114.364, 136.771 114.231, 135.880 114.149 C 133.495 113.930, 131.362 105.695, 132.846 102.438 C 134.410 99.005, 137.855 97.968, 145.366 98.670 C 151.078 99.203, 151.902 99.052, 152.841 97.296 C 155.507 92.315, 149.126 86.686, 141 86.851 C 135.043 86.971, 134.178 86.276, 133.098 80.494 C 131.743 73.245, 133.422 69.019, 138.655 66.500 C 143.096 64.362, 144.775 60.888, 142.342 58.869 C 140.443 57.293, 124.823 58.361, 118.845 60.476 C 115.428 61.685, 113.777 62.971, 112.637 65.312 C 111.205 68.252, 111.222 68.639, 112.854 70.284 C 113.827 71.265, 116.170 72.840, 118.062 73.784 C 120.935 75.218, 121.551 76.115, 121.810 79.242 C 122.060 82.261, 121.592 83.474, 119.388 85.516 C 117.885 86.909, 115.496 88.316, 114.078 88.644 C 112.660 88.972, 108.389 90.798, 104.588 92.702 C 98.984 95.509, 97.280 95.964, 95.588 95.105 C 94.439 94.523, 91.282 93.246, 88.571 92.268 C 82.861 90.208, 81.243 87.013, 83.606 82.458 C 84.373 80.981, 85 78.984, 85 78.021 C 85 77.058, 85.850 75.189, 86.889 73.868 C 90.140 69.735, 92.095 64.045, 90.979 61.961 C 88.569 57.458, 83.472 56.082, 76.500 58.052" stroke="none" fill="black" fill-rule="evenodd"/>
</svg>