<svg xmlns="http://www.w3.org/2000/svg" width="256" height="256" viewBox="0 0 256 256" version="1.1">
	<path d="M 123.621 24.250 C 121.700 27.284, 120.656 32.670, 121.848 33.406 C 123.482 34.416, 121.966 37.694, 119.303 38.908 C 115.656 40.569, 114.056 38.829, 114.167 33.320 C 114.281 27.656, 111.546 23.625, 107.300 23.198 C 104.946 22.961, 103.909 23.490, 102.493 25.651 C 100.974 27.969, 100.843 29.164, 101.669 33.193 C 102.551 37.497, 102.434 38.184, 100.510 39.990 C 97.723 42.609, 94.207 42.545, 91.855 39.833 C 90.336 38.082, 90.098 36.741, 90.614 32.850 C 91.428 26.719, 89.343 23, 85.092 23 C 81.125 23, 78.636 27.012, 78.777 33.178 C 78.848 36.287, 78.302 38.631, 77.192 39.982 C 75.415 42.147, 71.851 43.264, 69.546 42.379 C 67.543 41.611, 66.090 37.095, 66.290 32.261 C 66.420 29.118, 65.918 27.474, 64.350 25.906 C 60.163 21.718, 55.806 26.210, 54.669 35.888 C 54.007 41.517, 52.471 42.964, 46.966 43.142 C 41.396 43.321, 37.846 45.051, 36.011 48.480 C 33.734 52.733, 35.559 54.410, 43.102 55 L 49.500 55.500 49.257 59.524 C 49.124 61.738, 48.111 65.321, 47.006 67.488 C 45.277 70.879, 45.194 71.623, 46.410 72.838 C 48.316 74.745, 51.902 74.615, 56.410 72.476 C 60.753 70.415, 62.517 67.972, 63.432 62.754 C 63.794 60.694, 65.082 57.927, 66.295 56.607 C 68.933 53.734, 74.065 52.596, 76.464 54.350 C 77.971 55.452, 78.045 56.303, 77.089 61.478 C 76.187 66.354, 76.260 67.748, 77.516 69.664 C 81.655 75.982, 95.137 78.148, 104.705 74.032 C 111.975 70.904, 113.265 69.143, 113.446 62.103 C 113.610 55.701, 114.787 53.465, 118.349 52.784 C 123.120 51.872, 124.421 53.238, 124.609 59.356 C 124.705 62.479, 125.377 65.749, 126.102 66.623 C 127.526 68.338, 137.391 73, 139.598 73 C 140.340 73, 142.945 73.971, 145.387 75.157 C 149.457 77.135, 149.961 77.181, 151.427 75.716 C 153.914 73.229, 154.471 68.614, 152.521 66.664 C 151.606 65.749, 150.102 64.971, 149.179 64.936 C 140.845 64.619, 138.737 63.319, 137.459 57.709 C 136.438 53.227, 138.301 52, 146.122 52 C 153.571 52, 157 50.104, 157 45.985 C 157 43.447, 151.548 40.011, 147.500 39.998 C 139.801 39.974, 134.981 36.781, 135.842 32.274 C 136.206 30.373, 133.256 25.293, 130.783 23.561 C 127.676 21.384, 125.291 21.614, 123.621 24.250 M 90.698 54.781 C 89.764 55.813, 89 57.550, 89 58.640 C 89 60.958, 92.464 65, 94.450 65 C 96.824 65, 101.135 58.968, 100.803 56.110 C 100.539 53.835, 99.980 53.462, 96.448 53.202 C 93.487 52.985, 91.939 53.410, 90.698 54.781 M 87.695 84.638 C 87.480 84.853, 83.797 85.065, 79.510 85.109 C 75.224 85.153, 69.868 85.855, 67.608 86.670 C 64.411 87.823, 61.013 88.002, 52.282 87.479 L 41.064 86.807 37.974 90.153 C 34.954 93.424, 34.899 93.658, 35.562 100.500 C 36.279 107.901, 38.784 112.939, 41.818 113.077 C 45.520 113.245, 47.503 113.967, 48.679 115.576 C 50.800 118.477, 52.216 127.940, 51.793 136.388 C 51.401 144.194, 51.492 144.604, 54.184 147.250 C 57.303 150.316, 58.277 150.576, 59.792 148.750 C 61.449 146.754, 64.799 135.965, 65.512 130.330 C 65.871 127.487, 66.916 124.483, 67.833 123.655 C 70.251 121.473, 82.010 118.935, 84.221 120.118 C 85.199 120.642, 86.037 121.617, 86.082 122.285 C 86.126 122.953, 86.301 128.450, 86.469 134.500 C 86.855 148.357, 87.687 152.668, 90.338 154.524 C 95.753 158.317, 99.523 154.566, 99.223 145.682 C 98.955 137.748, 98.886 132.767, 98.956 126.314 C 99.006 121.697, 99.349 120.887, 102.080 118.943 C 104.945 116.903, 105.558 116.836, 111.324 117.935 C 114.721 118.582, 119.180 119.553, 121.234 120.091 C 125.163 121.122, 127.560 124.098, 126.560 126.705 C 126.223 127.582, 126.715 128.803, 127.693 129.518 C 130.818 131.803, 127.891 135.721, 120.585 139.034 C 117.067 140.629, 113.997 142.509, 113.763 143.211 C 113.163 145.010, 119.992 150.223, 121.934 149.447 C 122.795 149.103, 126.118 148.441, 129.318 147.977 C 134.563 147.216, 137.410 145.973, 139.080 143.716 C 139.399 143.284, 139.749 137.209, 139.858 130.216 C 140.048 117.992, 140.153 117.413, 142.584 115.250 C 143.974 114.013, 146.099 112.999, 147.306 112.999 C 152.687 112.996, 157.963 103.958, 157.989 94.699 C 157.998 91.606, 157.330 90.284, 154.402 87.602 L 150.805 84.306 119.445 84.277 C 102.197 84.261, 87.910 84.424, 87.695 84.638 M 111.539 96.158 C 101.433 96.801, 96.883 97.502, 95.060 98.697 C 93.174 99.932, 92.913 100.461, 94.020 100.801 C 94.834 101.050, 96.456 102.122, 97.624 103.183 C 99.339 104.741, 102.197 105.297, 112.485 106.076 C 119.490 106.606, 127.085 107.470, 129.361 107.995 C 135.850 109.494, 137.742 109.202, 141.119 106.185 C 143.806 103.784, 144.107 103.068, 143.164 101.306 C 140.543 96.409, 131.282 94.902, 111.539 96.158 M 68.500 97.491 C 67.950 97.737, 63.952 98.366, 59.616 98.889 C 50.579 99.979, 48.794 101.241, 48.622 106.664 L 48.500 110.500 55.836 110.239 C 59.871 110.096, 64.003 109.533, 65.020 108.989 C 66.037 108.445, 70.289 108, 74.469 108 C 82.363 108, 85.185 106.974, 89.634 102.489 L 91.769 100.337 89.634 98.975 C 87.596 97.674, 70.738 96.490, 68.500 97.491" stroke="none" fill="black" fill-rule="evenodd"/>
</svg>