<svg xmlns="http://www.w3.org/2000/svg" width="256" height="256" viewBox="0 0 256 256" version="1.1">
	<path d="M 53.887 28.809 C 51.363 31.065, 50.653 32.593, 50.289 36.559 C 50.039 39.277, 50.284 43.455, 50.832 45.845 C 51.935 50.646, 50.776 55.663, 48.107 57.646 C 47.259 58.276, 43.969 58.979, 40.796 59.208 C 31.825 59.857, 30.439 61.702, 29.451 74.307 C 28.267 89.408, 28.242 90.953, 29.074 97.500 C 29.494 100.800, 30.125 106.200, 30.477 109.500 C 31.197 116.256, 36.672 128.311, 39.245 128.808 C 41.744 129.290, 42.379 120.415, 41.641 95.312 C 40.994 73.270, 41.004 73.107, 43.248 70.498 C 46.061 67.228, 48.519 67.946, 49.467 72.314 C 49.848 74.066, 50.359 90.800, 50.602 109.500 C 51.060 144.713, 51.843 152.843, 55.089 156.089 C 57.213 158.213, 60.506 158.608, 61.581 156.869 C 62.105 156.021, 62.941 120.286, 63.005 96 C 63.007 95.175, 62.726 88.460, 62.381 81.077 C 61.808 68.840, 61.913 67.537, 63.567 66.327 C 65.674 64.787, 66.956 64.686, 68.889 65.910 C 70.734 67.079, 71.433 96.949, 69.904 109.312 C 68.659 119.378, 69.145 122.594, 72.051 123.516 C 75.681 124.668, 78.800 121.619, 79.464 116.269 C 80.201 110.339, 82.864 100.987, 83.801 101.038 C 84.185 101.059, 85.737 102.865, 87.250 105.051 C 89.680 108.564, 90 109.942, 90 116.888 C 90 121.211, 89.355 126.576, 88.567 128.811 C 86.382 135.002, 85.517 146.419, 86.967 149.920 C 88.117 152.696, 91.823 154.842, 94.750 154.427 C 95.438 154.330, 100.015 154.194, 104.923 154.125 C 112.968 154.012, 114.150 153.745, 116.923 151.411 C 119.121 149.562, 120 147.950, 120 145.771 C 120 140.577, 115.133 138.663, 108.132 141.104 C 104.062 142.522, 100.315 141.567, 99.467 138.895 C 99.100 137.740, 99.335 132.426, 99.989 127.086 C 100.893 119.710, 100.901 116.348, 100.024 113.090 C 99.028 109.390, 99.105 108.541, 100.590 106.901 C 102.714 104.553, 106.307 104.450, 108.529 106.672 C 109.759 107.902, 110.043 109.327, 109.605 112.069 C 109.137 114.996, 109.672 117.157, 112.102 122.147 C 116.864 131.929, 116.979 132.086, 125.669 140.736 C 133.076 148.108, 134.486 149.060, 140.777 150.934 C 152.171 154.327, 160 153.260, 160 148.314 C 160 145.641, 156.657 142.826, 149.500 139.474 C 138.617 134.376, 136.648 131.027, 142.084 126.863 C 143.780 125.563, 146.082 123.801, 147.200 122.947 C 148.317 122.093, 149.374 120.099, 149.548 118.516 C 149.894 115.363, 147.781 110.446, 145.771 109.725 C 144.283 109.191, 148.535 105, 150.564 105 C 151.256 105, 153 103.601, 154.439 101.890 C 157.045 98.794, 157.048 98.767, 155.229 95.640 C 154.186 93.849, 152.050 92.056, 150.255 91.467 C 145.349 89.856, 111.986 90.239, 109.382 91.936 C 106.387 93.888, 104 92.654, 104 89.154 C 104 85.375, 106.257 83.600, 111.372 83.357 C 122.484 82.829, 136.935 81.105, 138.853 80.079 C 143.881 77.388, 139.447 72.057, 130.398 69.916 C 124.321 68.479, 115.328 68.539, 111.435 70.043 C 106.733 71.861, 104.650 72.049, 103.813 70.732 C 102.338 68.409, 103.002 65.347, 105.488 63.012 C 107.871 60.773, 108.202 60.729, 113.388 61.973 C 119.029 63.327, 119.721 63.268, 129.446 60.624 C 136.354 58.746, 136.717 58.462, 137.164 54.593 C 137.457 52.059, 137.051 51.524, 134 50.419 C 128.819 48.544, 116.633 48.693, 110.979 50.701 C 106.978 52.122, 105.927 52.184, 104.595 51.079 C 103.718 50.351, 103 48.942, 103 47.949 C 103 43.209, 107.295 42.211, 132.350 41.130 C 146.158 40.534, 148.376 40.207, 149.558 38.590 C 150.702 37.025, 150.695 36.310, 149.508 34.016 C 148.735 32.521, 147.067 30.625, 145.801 29.805 C 142.785 27.849, 120.787 26.594, 115.930 28.100 C 114.044 28.686, 109.277 29.514, 105.337 29.941 C 93.673 31.205, 89.722 35.624, 91.148 45.810 C 91.586 48.939, 91.928 55.775, 91.908 61 C 91.888 66.225, 92.381 73.740, 93.005 77.699 C 94.032 84.221, 93.950 85.304, 92.137 89.199 C 89.892 94.022, 84.220 100.553, 83.179 99.513 C 82.805 99.140, 82.424 93.810, 82.332 87.668 C 81.881 57.614, 80.614 53.683, 71.504 54.048 C 61.070 54.466, 60.534 53.781, 62.112 42.058 C 63.285 33.340, 62.902 30.045, 60.427 27.570 C 58.280 25.423, 57.516 25.567, 53.887 28.809 M 126 103.282 C 122.016 105.296, 122.013 110.985, 125.993 115.150 L 129.100 118.401 132.588 116.523 C 136.892 114.204, 142 109.421, 142 107.707 C 142 104.237, 130.436 101.039, 126 103.282" stroke="none" fill="black" fill-rule="evenodd"/>
</svg>