<svg xmlns="http://www.w3.org/2000/svg" width="256" height="256" viewBox="0 0 256 256" version="1.1">
	<path d="M 92.126 21.750 C 90.974 22.712, 89.439 25.863, 88.716 28.750 C 87.992 31.638, 86.921 34.479, 86.335 35.065 C 85.750 35.650, 79.247 36.580, 71.885 37.131 C 52.120 38.611, 50.456 38.891, 46.823 41.352 C 43.815 43.389, 43.520 44.025, 43.715 48.051 C 44.584 66.011, 43.487 92.910, 41.414 104.500 C 40.528 109.450, 39.591 116.650, 39.331 120.500 C 39.027 124.993, 37.988 129.358, 36.429 132.688 C 33.516 138.911, 33.290 144.047, 35.829 146.345 C 39.917 150.045, 42.207 147.665, 46.741 135 C 48.415 130.325, 50.320 122.225, 50.974 117 C 51.629 111.775, 52.552 105.250, 53.027 102.500 C 54.209 95.656, 55.312 78.697, 55.415 65.789 C 55.528 51.531, 55.559 51.500, 69.783 51.500 L 80.500 51.500 80.217 54.964 C 79.695 61.365, 77.074 64.327, 70.446 66.007 C 65.033 67.379, 64.398 67.828, 63.359 71.007 C 61.427 76.924, 62.962 78.357, 70.574 77.746 C 78.609 77.101, 80.385 78.232, 80.630 84.151 C 80.984 92.701, 82.108 96.728, 84.434 97.788 C 85.651 98.343, 90.421 99.566, 95.033 100.507 C 109.272 103.411, 124.102 100.462, 126.976 94.154 C 127.611 92.761, 128.359 89.141, 128.639 86.111 C 128.926 83, 129.987 79.423, 131.074 77.896 C 132.133 76.408, 133 73.544, 133 71.531 C 133 66.750, 129.300 58.230, 126.891 57.465 C 125.851 57.135, 124.993 56.333, 124.985 55.683 C 124.974 54.886, 124.730 54.845, 124.235 55.557 C 123.831 56.138, 122.076 57.189, 120.336 57.893 C 118.477 58.644, 116.676 60.367, 115.971 62.071 C 115.159 64.031, 113.755 65.225, 111.635 65.758 C 107.911 66.696, 101.300 66.528, 98.500 65.425 C 96.106 64.482, 87.065 54.979, 87.027 53.365 C 86.919 48.810, 100.791 47.440, 115.856 50.517 C 122.501 51.875, 124.740 51.984, 126.788 51.051 C 128.205 50.405, 133.220 49.639, 137.932 49.349 C 148.254 48.713, 152.513 47.533, 154.445 44.774 C 155.697 42.987, 155.704 42.328, 154.496 39.992 C 152.029 35.221, 148.933 34.686, 126.256 35.112 L 105.592 35.500 104.896 32.121 C 103.475 25.223, 99.838 20, 96.456 20 C 95.227 20, 93.279 20.788, 92.126 21.750 M 94.299 75.250 C 90.639 79.269, 90.060 81.237, 91.518 84.705 C 93.118 88.510, 96.965 89.553, 106.286 88.708 C 111.081 88.273, 112.759 87.661, 114.187 85.828 C 117.930 81.022, 114.623 77.074, 104.701 74.503 C 97.179 72.553, 96.726 72.586, 94.299 75.250 M 99.500 106.087 C 97.850 106.626, 90.066 107.094, 82.202 107.127 C 69.017 107.182, 67.752 107.350, 65.952 109.282 C 62.143 113.370, 64.630 119.238, 70.725 120.544 C 72.251 120.871, 74.620 121.597, 75.990 122.157 L 78.479 123.175 75.740 125.171 C 72.330 127.655, 72.246 129, 75.500 129 C 78.788 129, 82.008 132.253, 81.321 134.879 C 80.648 137.454, 77.499 139.519, 71.984 141.004 C 63.514 143.285, 60.962 147.024, 65.189 150.961 C 67.715 153.315, 76.683 153.771, 83.456 151.891 C 88.158 150.585, 94.497 146.482, 94.506 144.738 C 94.511 143.849, 96.910 143.508, 103.006 143.528 C 110.022 143.551, 112.370 143.990, 116.500 146.051 C 123.303 149.444, 128.036 150.758, 137.743 151.946 C 145.907 152.946, 148.208 152.639, 153.750 149.810 C 157.860 147.713, 156.644 144.462, 150.652 141.531 C 145.894 139.202, 144.232 138.933, 135.560 139.079 C 123.627 139.281, 122.100 138.399, 124.486 132.687 C 125.537 130.171, 126.665 129, 128.037 129 C 129.736 129, 129.988 128.465, 129.667 125.547 C 129.304 122.252, 129.528 121.976, 134.591 119.499 C 137.509 118.072, 140.175 116.026, 140.515 114.952 C 140.856 113.878, 141.887 113, 142.807 113 C 144.079 113, 143.806 112.375, 141.668 110.393 C 139.304 108.201, 137.393 107.625, 129.678 106.782 C 115.970 105.284, 102.880 104.983, 99.500 106.087 M 91.857 119.569 C 86.518 121.213, 85.060 123.427, 88.209 125.112 C 91.731 126.997, 107.680 125.720, 112.710 123.150 C 115.026 121.968, 117.726 120.966, 118.710 120.924 C 119.701 120.882, 118.937 120.246, 117 119.500 C 112.386 117.723, 97.721 117.763, 91.857 119.569" stroke="none" fill="black" fill-rule="evenodd"/>
</svg>