<svg xmlns="http://www.w3.org/2000/svg" width="256" height="256" viewBox="0 0 256 256" version="1.1">
	<path d="M 121.225 32.441 C 119.564 34.552, 119.336 36.335, 119.530 45.664 C 119.689 53.331, 119.365 57.039, 118.410 58.497 C 116.272 61.761, 116.552 71.297, 119.111 82.312 C 120.025 86.247, 119.928 88.195, 118.577 93.009 C 116.998 98.637, 116.518 106.651, 117.439 112 C 119.035 121.276, 119.088 123.775, 117.768 127.577 C 115.471 134.194, 116.874 150.609, 120.126 155.177 C 122.594 158.643, 124.360 158.731, 127.545 155.545 C 130.506 152.584, 130.797 147.229, 128.411 139.588 C 126.928 134.836, 126.944 134.137, 128.661 129 L 130.500 123.500 139.500 122.889 C 153.684 121.926, 160.395 118.155, 157.853 112.577 C 156.094 108.717, 149.511 107.837, 139.219 110.087 C 133.478 111.342, 130.240 110.365, 128.410 106.827 C 127.050 104.195, 127.051 103.336, 128.426 98.605 C 130.338 92.030, 132.556 90.761, 138.839 92.652 C 141.261 93.381, 144.263 93.721, 145.511 93.408 C 148.868 92.565, 152.227 88.291, 151.452 85.849 C 150.579 83.097, 145.277 80.944, 142.228 82.103 C 140.931 82.597, 138.111 83, 135.961 83 C 132.643 83, 131.820 82.553, 130.526 80.050 C 128.402 75.942, 128.622 71.347, 131.139 67.275 C 133.366 63.671, 133.582 63.630, 140.958 65.381 C 144.395 66.198, 150.454 64.376, 153.734 61.540 L 156.500 59.148 154.656 55.692 C 152.030 50.769, 148.993 49.634, 142.398 51.110 C 138.143 52.062, 136.758 52.044, 135.523 51.019 C 133.271 49.150, 130.002 41.245, 129.985 37.623 C 129.967 33.940, 129.265 32.702, 126.316 31.150 C 123.426 29.629, 123.440 29.625, 121.225 32.441 M 53.225 34.501 C 51.424 35.284, 49.174 37.393, 48.225 39.187 C 47.276 40.982, 43.090 45.837, 38.922 49.975 C 32.950 55.906, 31.109 58.441, 30.231 61.940 C 29.618 64.381, 29.361 66.775, 29.661 67.260 C 30.731 68.991, 34.541 69.708, 37.495 68.735 C 41.298 67.481, 51.637 57.500, 58.064 48.878 C 63.686 41.335, 64.479 37.150, 60.777 34.557 C 58.097 32.679, 57.430 32.674, 53.225 34.501 M 100.696 34.432 C 99.570 35.285, 98.729 37.529, 98.460 40.397 C 97.915 46.218, 95.703 51.564, 93.335 52.786 C 92.326 53.306, 88.690 53.975, 85.256 54.271 C 77.626 54.929, 73.316 57.303, 70.740 62.268 C 69.167 65.299, 69.026 66.326, 70.015 67.518 C 71.561 69.381, 82.022 69.521, 88.579 67.768 C 92.805 66.637, 93.311 66.699, 94.679 68.518 C 95.764 69.959, 96.025 72.002, 95.633 76 C 94.935 83.138, 93.022 84.757, 85.153 84.867 C 79.285 84.950, 74.673 86.101, 73.663 87.736 C 72.056 90.336, 80.439 94.341, 87.675 94.431 C 93.005 94.497, 93.349 94.661, 95.132 97.984 C 97.058 101.577, 97.461 104.636, 96.379 107.455 C 95.200 110.527, 90.386 111.980, 80.234 112.328 C 74.796 112.515, 69.854 112.972, 69.251 113.345 C 68.647 113.718, 67.839 115.454, 67.455 117.204 C 66.330 122.327, 69.303 124, 79.529 124 C 84.098 124, 88.548 124.273, 89.418 124.607 C 92.907 125.946, 90.228 132.587, 82.825 140.950 C 76.105 148.540, 76.522 153.004, 83.950 152.996 C 89.080 152.991, 93.554 149.895, 95.033 145.327 C 95.715 143.222, 97.325 139.400, 98.611 136.833 C 99.898 134.266, 101.245 130.216, 101.605 127.833 C 101.965 125.450, 103.409 121.025, 104.815 118 L 107.370 112.500 107.621 80 C 107.760 62.125, 107.886 44.800, 107.901 41.500 C 107.922 37.062, 107.498 35.175, 106.274 34.250 C 104.184 32.672, 102.963 32.712, 100.696 34.432 M 56.756 67.077 C 54.934 68.138, 48.796 76.980, 45.701 83 C 42.881 88.485, 41.821 89.550, 36.492 92.253 C 27.959 96.580, 25.346 101.093, 29.985 103.492 C 33.728 105.428, 37.965 105.413, 40.760 103.455 C 42.365 102.332, 43.473 102.183, 44.830 102.909 C 46.805 103.966, 47.033 106.034, 48.841 139.183 C 49.222 146.159, 49.783 152.117, 50.089 152.423 C 50.395 152.729, 52.039 153.258, 53.741 153.598 C 56.498 154.150, 57.023 153.857, 58.541 150.921 C 60.065 147.973, 60.126 146.400, 59.117 136.062 C 57.564 120.151, 57.724 100.073, 59.424 97.477 C 60.153 96.364, 60.943 92.314, 61.180 88.477 C 61.521 82.977, 62.182 80.677, 64.306 77.610 C 67.669 72.755, 67.739 69.714, 64.535 67.615 C 61.728 65.776, 59.280 65.606, 56.756 67.077" stroke="none" fill="black" fill-rule="evenodd"/>
</svg>