<svg xmlns="http://www.w3.org/2000/svg" width="256" height="256" viewBox="0 0 256 256" version="1.1">
	<path d="M 87.888 25.890 C 85.609 27.735, 85.585 27.930, 86.864 34.140 C 87.585 37.638, 88.248 40.878, 88.337 41.339 C 88.427 41.801, 87.294 43.102, 85.821 44.232 C 82.949 46.432, 76.088 47.295, 51.762 48.511 C 40.712 49.064, 39.266 49.355, 37.131 51.454 C 35.136 53.416, 34.911 54.236, 35.706 56.642 C 37.075 60.786, 41.471 61.986, 53 61.367 C 58.225 61.086, 64.975 60.738, 68 60.594 C 71.025 60.450, 75.666 60.001, 78.312 59.596 C 85.089 58.558, 86 59.608, 86 68.448 C 86 74.901, 85.731 75.904, 83.417 78.076 C 81.149 80.204, 79.839 80.515, 72.667 80.625 C 60.365 80.814, 52.996 82.287, 50.802 84.996 C 47.116 89.548, 51.405 95.217, 57.729 94.150 C 59.803 93.800, 65.841 93.510, 71.146 93.507 C 82.094 93.499, 84.326 94.595, 85.438 100.523 C 85.932 103.154, 87.797 105.390, 93.753 110.492 C 97.976 114.110, 102.462 117.329, 103.722 117.645 C 110.302 119.296, 117.203 114.241, 113.185 110.713 C 110.904 108.709, 103.417 105, 101.655 105 C 100.871 105, 99.447 103.763, 98.490 102.250 C 97.533 100.737, 95.823 98.760, 94.690 97.856 C 92.717 96.282, 92.702 96.103, 94.338 93.606 C 96.286 90.633, 99.300 90.285, 106.477 92.205 C 113.292 94.028, 130.202 90.798, 134.065 86.935 C 136.733 84.267, 136.493 82.722, 133.096 80.716 C 129.530 78.609, 121.477 78.474, 113.960 80.396 C 100.766 83.768, 98.328 83.429, 96.490 77.972 C 95.669 75.532, 95.858 73.121, 97.350 67.022 C 99.598 57.832, 101.656 56.071, 107.782 58.093 C 111.057 59.174, 120.331 58.880, 127 57.484 C 128.375 57.196, 133.550 56.816, 138.500 56.639 C 152.152 56.150, 156.892 52.793, 152.167 46.957 C 150.431 44.814, 149.565 44.683, 135.917 44.493 C 127.987 44.382, 117.160 44.759, 111.856 45.330 C 103.245 46.257, 101.923 46.180, 99.527 44.610 C 96.902 42.889, 96.858 42.693, 97.525 35.579 C 98.189 28.487, 98.138 28.254, 95.468 26.154 C 92.110 23.512, 90.877 23.469, 87.888 25.890 M 68.252 111.250 C 67.706 111.938, 66.970 117.900, 66.616 124.500 L 65.972 136.500 70.236 143.178 C 75.602 151.580, 79.883 153.981, 90.807 154.712 C 99.870 155.319, 121.300 151.362, 125.365 148.331 C 126.715 147.324, 128.754 144.588, 129.897 142.250 C 132.297 137.339, 133.236 137.157, 141.500 140 C 149.668 142.810, 152.617 142.661, 153.437 139.394 C 154.198 136.363, 152.253 132.867, 148.402 130.344 C 146.537 129.122, 145.954 128.021, 146.277 126.331 C 146.522 125.050, 146.124 123.214, 145.393 122.251 C 144.662 121.288, 144.049 118.576, 144.032 116.225 C 144.005 112.571, 143.628 111.809, 141.435 110.975 C 137.735 109.569, 134.276 109.773, 131.549 111.560 C 128.234 113.732, 127.855 115.337, 129.531 120.089 C 130.332 122.357, 130.787 124.535, 130.544 124.928 C 130.301 125.322, 129.991 127.526, 129.855 129.827 C 129.650 133.306, 129.313 133.917, 127.853 133.453 C 125.846 132.816, 118 134.700, 118 135.819 C 118 136.813, 112.547 138.985, 107 140.201 C 104.525 140.743, 97.699 141.409, 91.831 141.680 C 81.591 142.153, 81.115 142.084, 79.976 139.955 C 79.193 138.493, 78.998 135.315, 79.402 130.619 C 80.193 121.440, 78.920 116.229, 75.037 112.750 C 71.684 109.745, 69.781 109.325, 68.252 111.250 M 42.988 117.515 C 42.296 118.348, 41.156 121.385, 40.454 124.265 C 39.752 127.144, 38.575 131.525, 37.839 134 C 35.650 141.358, 35.948 142.454, 40.238 142.810 C 45.809 143.271, 52.799 137.838, 55.025 131.315 C 56.356 127.415, 54.843 120.843, 51.947 117.947 C 49.628 115.628, 44.749 115.392, 42.988 117.515" stroke="none" fill="black" fill-rule="evenodd"/>
</svg>