<svg xmlns="http://www.w3.org/2000/svg" width="256" height="256" viewBox="0 0 256 256" version="1.1">
	<path d="M 95.186 31.853 C 93.543 34.522, 89.005 39.881, 85.100 43.763 C 78.048 50.774, 78 50.857, 78 56.222 C 78 62.359, 80.405 66, 84.457 66 C 88.036 66, 90 67.022, 90 68.884 C 90 71.860, 87.146 74.746, 80.569 78.424 C 77.025 80.406, 73.842 82.921, 73.496 84.014 C 71.843 89.220, 76.726 92.548, 83.657 90.939 C 90.309 89.396, 92.566 89.752, 93.839 92.547 C 95.756 96.753, 95.245 100.846, 92.455 103.635 C 89.792 106.299, 86.909 106.439, 75.736 104.448 C 73.305 104.015, 71.446 104.215, 70.486 105.011 C 68.445 106.706, 68.621 111.644, 70.837 114.846 C 73.572 118.797, 73.827 120.050, 73.001 125.493 C 71.999 132.094, 73.295 133.089, 82 132.406 C 90.029 131.776, 93.370 133.229, 93.796 137.534 C 94.059 140.200, 93.499 140.881, 88.603 143.849 C 85.584 145.678, 81.307 147.417, 79.098 147.714 C 76.889 148.010, 74.318 149.096, 73.386 150.126 C 71.789 151.890, 71.796 152.117, 73.504 154.004 C 75.829 156.573, 82.265 158.309, 86.334 157.465 C 88.075 157.103, 93.759 154.783, 98.964 152.309 C 108.023 148.004, 108.600 147.864, 112.464 149.035 C 114.684 149.709, 121.675 151.385, 128 152.760 C 148.778 157.277, 153 156.898, 153 150.512 C 153 147.622, 152.497 146.868, 149.750 145.631 C 147.963 144.826, 145.150 143.928, 143.500 143.635 C 136.207 142.340, 127.197 140.240, 126.146 139.590 C 124.360 138.486, 124.799 132.593, 126.830 130.413 C 127.837 129.332, 128.944 127.032, 129.290 125.302 C 129.688 123.309, 131.766 120.429, 134.959 117.441 C 140.326 112.421, 141.273 109.373, 138.250 106.848 C 135.580 104.619, 131.236 103, 127.921 103 C 126.279 103, 123.321 102.325, 121.347 101.501 C 119.331 100.658, 115.844 100.161, 113.389 100.365 C 108.632 100.761, 106.803 99.503, 106.261 95.463 C 105.817 92.145, 109.401 90.007, 115.473 89.967 C 118.238 89.949, 123.567 89.539, 127.316 89.056 C 135.320 88.024, 138.834 88.823, 144.645 92.996 C 149.318 96.353, 152.098 96.760, 154.429 94.429 C 156.891 91.966, 156.339 86.805, 153.095 81.975 C 149.531 76.668, 135.343 64, 132.964 64 C 130.821 64, 128.056 68.053, 127.760 71.627 C 127.498 74.792, 123.030 77.111, 118.763 76.295 C 117.258 76.007, 114.223 76.494, 112.018 77.376 C 108.034 78.970, 107.989 78.962, 104.792 76.105 C 101.863 73.489, 101.681 72.995, 102.766 70.615 C 103.522 68.954, 104.786 67.977, 106.229 67.936 C 112.480 67.760, 115.287 67.025, 117.950 64.865 C 130.254 54.885, 133.017 52.210, 133.819 49.500 C 134.863 45.971, 133.659 42.985, 130.901 42.264 C 129.855 41.990, 129 41.369, 129 40.883 C 129 40.398, 128.531 40, 127.958 40 C 126.777 40, 126.236 40.409, 120.022 46.007 C 111.430 53.747, 99.802 55.133, 99.255 48.482 C 98.975 45.076, 99.951 43.657, 105.350 39.623 C 108.743 37.088, 109.127 36.383, 108.588 33.689 C 107.714 29.320, 105.232 27, 101.431 27 C 98.610 27, 97.770 27.652, 95.186 31.853 M 55.376 33.912 C 53.658 34.960, 50.733 38.062, 48.876 40.806 C 47.019 43.550, 43.144 47.647, 40.264 49.910 C 35.012 54.037, 31 60.131, 31 63.982 C 31 67.085, 35.096 68.588, 39.747 67.191 C 44.067 65.894, 54.691 55.569, 60.381 47.138 C 64.626 40.849, 65.349 34.792, 62.066 33.035 C 59.466 31.644, 58.996 31.705, 55.376 33.912 M 59.960 64.526 C 58.607 65.242, 56.600 67.554, 55.500 69.664 C 54.401 71.774, 52.151 75.373, 50.500 77.662 C 48.850 79.950, 46.441 83.593, 45.147 85.757 C 43.852 87.921, 41.504 90.452, 39.929 91.383 C 31.554 96.330, 28.599 101.645, 32.934 103.965 C 35.401 105.285, 40.693 105.306, 41.500 104 C 41.840 103.450, 43.208 103, 44.540 103 C 46.247 103, 47.099 103.664, 47.426 105.250 C 48.728 111.562, 50.052 124.984, 50.608 137.500 C 51.281 152.671, 52.324 156, 56.401 156 C 60.842 156, 61.509 153.780, 61.166 140.139 C 60.992 133.223, 60.588 127.143, 60.270 126.627 C 59.513 125.404, 59.789 103.151, 60.576 101.878 C 60.908 101.340, 61.522 97.210, 61.939 92.700 C 62.492 86.726, 63.554 82.679, 65.849 77.792 C 69.453 70.119, 69.710 67.920, 67.250 65.807 C 64.507 63.451, 62.618 63.119, 59.960 64.526 M 100.671 114.970 C 90.144 118.333, 88.723 122.268, 97.043 125.014 C 99.334 125.770, 101.857 127.378, 102.649 128.586 C 104.256 131.040, 108.631 132.268, 111.085 130.955 C 113.651 129.581, 120.221 119.389, 119.835 117.381 C 118.977 112.927, 110.431 111.852, 100.671 114.970" stroke="none" fill="black" fill-rule="evenodd"/>
</svg>