<svg xmlns="http://www.w3.org/2000/svg" width="256" height="256" viewBox="0 0 256 256" version="1.1">
	<path d="M 55.635 34.149 C 53.631 35.802, 50.561 39.256, 48.814 41.827 C 47.067 44.397, 43.236 48.831, 40.301 51.681 C 31.949 59.789, 28.471 69.327, 33.415 70.568 C 37.501 71.594, 42.427 68.295, 52.687 57.662 C 58.084 52.068, 64.184 46.368, 66.243 44.996 C 71.039 41.798, 71.160 38.830, 66.668 34.594 C 62.376 30.546, 60.117 30.455, 55.635 34.149 M 110 37.258 C 109.725 37.521, 103.746 38.005, 96.714 38.333 C 79.590 39.132, 75.769 41.318, 77.590 49.272 C 78.709 54.160, 78.173 57.920, 75.739 62.251 L 73.535 66.172 68.212 65.507 C 64.184 65.004, 62.305 65.226, 60.484 66.419 C 58.203 67.913, 50 79.042, 50 80.641 C 50 83.248, 43.945 89.504, 39.012 91.994 C 35.161 93.938, 32.823 95.913, 31.529 98.316 C 29.750 101.619, 29.740 101.954, 31.336 104.390 C 33.851 108.229, 37.051 108.594, 42.333 105.645 C 45.728 103.750, 47.094 103.417, 47.813 104.310 C 49.115 105.926, 50.182 118.565, 50.469 135.760 C 50.672 147.876, 50.978 150.318, 52.509 152.010 C 53.499 153.104, 55.349 154, 56.620 154 C 60.903 154, 61.486 151.064, 61.684 128.500 C 61.786 116.950, 61.902 103.609, 61.943 98.853 C 62.003 91.764, 62.491 89.150, 64.650 84.353 C 68.048 76.797, 69.678 75, 73.126 75 C 77.086 75, 77.689 78.245, 76.710 94.287 C 75.960 106.562, 76.276 113.367, 78.885 141.212 C 79.781 150.769, 80.042 150.898, 99 151.110 C 126.152 151.415, 147.399 150.900, 150.758 149.854 C 152.549 149.296, 154.430 148.066, 154.936 147.120 C 155.442 146.174, 156.138 133.498, 156.483 118.950 C 156.828 104.403, 157.525 88.675, 158.032 84 C 158.539 79.325, 158.735 68.551, 158.466 60.058 C 157.963 44.139, 157.248 41.269, 153.250 39.137 C 151.439 38.172, 110.887 36.410, 110 37.258 M 103 50.753 C 98.875 50.892, 94.565 51.219, 93.421 51.479 C 89.292 52.419, 88.768 55.935, 88.128 87 C 87.275 128.391, 87.354 134.754, 88.735 136.135 C 89.386 136.786, 93.675 137.617, 98.267 137.982 C 102.859 138.346, 107.107 138.948, 107.707 139.319 C 108.308 139.690, 115.817 140.203, 124.395 140.460 C 145.149 141.079, 143.994 142.280, 144.018 120.061 C 144.036 102.954, 144.551 93.647, 146.025 83.778 C 147.026 77.076, 146.141 53.021, 144.832 51.357 C 143.985 50.280, 125.106 50.007, 103 50.753 M 99.573 72.250 C 98.062 73.590, 96.856 75.916, 96.593 78 C 96.349 79.925, 95.422 83.750, 94.533 86.500 C 93.281 90.373, 93.068 93.480, 93.589 100.281 C 94.163 107.763, 94.688 109.650, 97.138 113.031 C 100.757 118.028, 103.492 118.159, 108.360 113.567 C 110.362 111.679, 112 109.879, 112 109.567 C 112 109.255, 111.100 108.100, 110 107 C 107.737 104.737, 107.443 101.317, 109.183 97.498 C 110.084 95.521, 110.090 94.137, 109.210 91.701 C 107.716 87.565, 108.545 84.581, 111.649 82.920 C 114.714 81.280, 116.933 82.451, 118.594 86.585 C 119.410 88.615, 119.461 90.259, 118.764 92 C 118.213 93.375, 117.843 96.758, 117.943 99.518 C 118.095 103.740, 117.717 104.917, 115.562 106.942 C 112.416 109.897, 112.360 110.807, 115.250 111.969 C 117.062 112.697, 117.148 112.886, 115.691 112.937 C 114.696 112.971, 114.160 113.450, 114.500 114 C 115.539 115.681, 121.253 115.039, 126 112.709 C 130.196 110.649, 130.652 110.027, 132.748 103.500 C 135.662 94.424, 135.588 86.231, 132.530 79.399 C 130.017 73.783, 128.568 73.004, 121.840 73.652 C 113.740 74.431, 110.923 74.116, 107.590 72.056 C 103.404 69.469, 102.692 69.486, 99.573 72.250" stroke="none" fill="black" fill-rule="evenodd"/>
</svg>