<svg xmlns="http://www.w3.org/2000/svg" width="256" height="256" viewBox="0 0 256 256" version="1.1">
	<path d="M 111 26.706 C 109.625 26.945, 106.281 27.784, 103.568 28.570 C 100.856 29.357, 96.874 30, 94.718 30 C 91.596 30, 90.110 30.690, 87.400 33.400 C 85.231 35.569, 83.964 37.832, 83.900 39.650 C 83.033 64.302, 83.297 68.829, 85.915 74.199 C 87.587 77.627, 89.560 80.030, 91.500 81 C 95.386 82.943, 117.373 83.581, 127.870 82.055 C 149.587 78.898, 150.602 78.318, 150.328 69.220 C 150.233 66.074, 151.031 57.370, 152.101 49.877 C 154.269 34.703, 153.897 32.032, 149.283 29.646 C 144.575 27.212, 119.281 25.269, 111 26.706 M 57.617 33.642 C 54.385 35.392, 50.723 39.098, 47 44.385 C 45.625 46.338, 42.147 49.573, 39.271 51.575 C 35.486 54.209, 33.322 56.687, 31.434 60.545 C 28.468 66.609, 28.817 69.541, 32.592 70.262 C 38.375 71.368, 47.332 64.297, 61.500 47.441 C 68.540 39.065, 69.174 37.174, 66 34 C 63.622 31.622, 61.512 31.532, 57.617 33.642 M 113.500 39.310 C 106.350 39.756, 99.494 40.326, 98.265 40.576 C 94.098 41.424, 94.092 49.359, 98.257 50.899 C 99.401 51.323, 103.974 51.077, 108.419 50.354 C 112.863 49.631, 120.818 49.031, 126.095 49.020 C 133.977 49.004, 135.958 48.688, 137.193 47.250 C 143.422 39.998, 136.998 37.845, 113.500 39.310 M 130.707 60.627 C 130.362 60.971, 123.018 61.318, 114.387 61.396 C 100.662 61.521, 98.556 61.757, 97.597 63.278 C 96.770 64.589, 96.869 65.675, 98 67.687 C 99.986 71.223, 104.237 72.352, 110.500 71.008 C 118.272 69.339, 120.314 69.203, 122.920 70.176 C 127.731 71.973, 133.927 71.417, 136.549 68.954 C 139.190 66.473, 139.729 63.129, 137.800 61.200 C 136.539 59.939, 131.779 59.555, 130.707 60.627 M 64.482 63.955 C 62.482 64.757, 50 79.114, 50 80.613 C 50 81.042, 48.790 83.138, 47.311 85.272 C 44.773 88.935, 38.687 93, 35.740 93 C 35.003 93, 32.569 94.188, 30.330 95.639 C 27.151 97.700, 26.377 98.740, 26.794 100.389 C 27.701 103.972, 29.967 106.744, 33.024 108.010 C 35.670 109.106, 36.399 108.924, 40.646 106.111 C 45.688 102.771, 47.828 102.262, 48.461 104.250 C 49.230 106.663, 50.145 117.651, 50.897 133.500 C 51.314 142.300, 52.012 150.304, 52.449 151.287 C 52.885 152.270, 54.524 153.737, 56.091 154.547 C 58.782 155.939, 59.028 155.886, 60.520 153.609 C 61.868 151.553, 62.067 147.616, 61.875 126.849 C 61.540 90.722, 62.711 83.389, 69.905 76.563 C 76.064 70.718, 71.880 60.988, 64.482 63.955 M 101 89.068 C 87.120 89.519, 82.517 90.029, 78.750 91.534 C 73.553 93.610, 72.470 96.376, 75.750 99.193 C 78.770 101.787, 80.862 102.053, 98.621 102.105 C 108.144 102.133, 117.187 102.490, 118.718 102.900 C 122.467 103.903, 122.332 106.902, 118.434 109.179 C 115.820 110.705, 112.406 111.015, 95.283 111.280 C 73.068 111.624, 71.669 111.995, 72.199 117.397 C 72.422 119.674, 73.144 120.653, 75 121.196 C 76.375 121.599, 79.525 122.507, 82 123.215 C 86.170 124.406, 86.477 124.720, 86.190 127.500 C 85.373 135.402, 85.662 137.038, 88.375 139.869 C 91.426 143.054, 97.967 145.610, 100.540 144.623 C 101.792 144.143, 102.069 143.267, 101.612 141.238 C 101.274 139.732, 100.492 135.871, 99.875 132.659 C 98.306 124.482, 99.245 123.713, 111.452 123.179 C 123.384 122.657, 126 123.247, 126 126.460 C 126 127.792, 126.399 129.129, 126.887 129.430 C 127.374 129.731, 128.072 131.569, 128.437 133.514 C 129.218 137.680, 126.174 144.034, 122.438 146.033 C 119.799 147.445, 117.491 152.230, 118.358 154.491 C 120.218 159.336, 129.477 158.723, 134.798 153.402 C 138.131 150.069, 138.223 149.770, 137.751 143.731 C 137.484 140.304, 137.668 134.800, 138.162 131.500 C 139.172 124.743, 141.461 122, 146.091 122 C 147.668 122, 150.769 121.276, 152.980 120.391 C 156.286 119.069, 157 118.302, 157 116.079 C 157 114.414, 155.910 112.330, 154.166 110.659 C 151.554 108.157, 150.896 107.995, 145.789 108.595 C 140.966 109.162, 139.971 108.971, 138.123 107.123 C 133.607 102.607, 137.066 99.353, 145.232 100.436 C 151.007 101.202, 153 100.062, 153 95.993 C 153 91.625, 149.369 89.949, 138.687 89.388 C 122.194 88.522, 118.720 88.493, 101 89.068" stroke="none" fill="black" fill-rule="evenodd"/>
</svg>