<svg xmlns="http://www.w3.org/2000/svg" width="256" height="256" viewBox="0 0 256 256" version="1.1">
	<path d="M 71 32.897 C 70.175 33.356, 64.550 34.001, 58.500 34.330 C 45.333 35.045, 41.453 36.223, 39.437 40.121 C 38.011 42.879, 38.067 43.158, 40.544 45.635 C 43.031 48.122, 43.486 48.211, 50.326 47.548 C 54.272 47.165, 59.632 46.160, 62.238 45.315 C 68.047 43.430, 71.750 44.211, 73.035 47.593 C 75.542 54.187, 72.809 65, 68.636 64.999 C 67.461 64.999, 64.133 64.099, 61.239 62.999 C 53.710 60.138, 46.943 60.335, 43.149 63.528 C 39.329 66.743, 36.643 73.736, 36.690 80.348 C 36.758 89.937, 38.506 103.700, 39.865 105.338 C 41.978 107.883, 47.638 108.988, 58.595 108.994 C 67.232 108.999, 68.938 109.274, 70.406 110.896 C 71.366 111.957, 71.673 112.948, 71.104 113.146 C 70.543 113.341, 69.832 117.477, 69.522 122.339 C 69.211 127.229, 68.275 132.502, 67.427 134.141 C 65.728 137.427, 58.309 145, 56.789 145 C 54.557 145, 48.042 150.611, 48.021 152.550 C 47.973 157.234, 51.696 158.031, 61.188 155.367 C 67.549 153.582, 71.594 149.962, 76.413 141.738 C 79.350 136.727, 81.956 125.998, 81.983 118.809 C 81.992 116.229, 82.356 113.898, 82.791 113.629 C 84.245 112.730, 84.069 106.213, 82.483 102.249 C 80.192 96.522, 76.153 94.908, 64.547 95.082 C 52.925 95.256, 51.040 94.377, 50.885 88.715 C 50.718 82.603, 51.018 80.650, 52.332 79.297 C 54.386 77.181, 65.272 74.632, 72.538 74.565 C 85.313 74.447, 87.709 71.142, 87.805 53.500 C 87.878 40.314, 86.946 35.776, 83.701 33.503 C 81.405 31.895, 73.478 31.516, 71 32.897 M 113.554 33.941 C 112.541 35.060, 110.693 40.369, 109.448 45.738 C 108.203 51.107, 106.262 58.200, 105.134 61.500 C 104.007 64.800, 102.651 69.300, 102.120 71.500 C 101.589 73.700, 99.995 79.593, 98.577 84.596 C 97.160 89.598, 96 95.170, 96 96.977 C 96 98.784, 94.687 104.141, 93.083 108.881 C 91.479 113.622, 89.647 120.088, 89.012 123.250 C 88.340 126.599, 87.332 129, 86.598 129 C 84.597 129, 82.901 137.978, 84.331 141 C 85.851 144.212, 90.876 144.811, 96.193 142.413 C 99.962 140.714, 100.093 140.723, 102.039 142.812 C 103.704 144.599, 105.217 144.961, 111.265 145.018 C 123.363 145.134, 126.340 144.957, 130.361 143.889 C 132.485 143.325, 136.190 142.799, 138.596 142.720 C 142.220 142.602, 143.529 143.107, 146.235 145.670 C 152.155 151.276, 159.818 150.765, 158.606 144.846 C 158.342 143.556, 157.884 141.375, 157.589 140 C 157.293 138.625, 155.915 136.193, 154.526 134.594 C 152.640 132.425, 152 130.564, 152 127.248 C 152 123.491, 151.384 122.107, 148 118.263 C 145.800 115.763, 143.966 112.994, 143.923 112.109 C 143.763 108.741, 143.098 106.765, 141.545 105.049 C 140.661 104.073, 139.753 102.425, 139.527 101.387 C 137.844 93.653, 136.247 90.464, 133.151 88.656 C 128.657 86.032, 125.483 87.492, 124.041 92.848 C 122.788 97.500, 123.394 99.769, 126.629 102.543 C 129.587 105.078, 133 116.797, 133 124.418 C 133 129.289, 132.764 129.899, 130.750 130.220 C 129.512 130.418, 127.150 130.188, 125.500 129.709 C 120.504 128.259, 115.178 128.857, 109.603 131.495 C 106.690 132.873, 103.310 134, 102.092 134 C 100.025 134, 99.921 133.683, 100.529 129.250 C 101.262 123.910, 106.540 103.835, 108.219 100 C 108.821 98.625, 109.657 95.475, 110.077 93 C 110.496 90.525, 111.022 87.825, 111.244 87 C 111.466 86.175, 112.229 82.800, 112.938 79.500 C 113.648 76.200, 114.814 72.358, 115.530 70.962 C 116.247 69.566, 117.284 66.191, 117.836 63.462 C 118.388 60.733, 119.531 56.250, 120.377 53.500 C 124.683 39.506, 124.603 40.163, 122.474 36.186 C 120.103 31.759, 116.377 30.821, 113.554 33.941" stroke="none" fill="black" fill-rule="evenodd"/>
</svg>