<svg xmlns="http://www.w3.org/2000/svg" width="256" height="256" viewBox="0 0 256 256" version="1.1">
	<path d="M 68.488 24.655 C 66.965 26.178, 65.046 30.080, 64.628 32.507 C 64.532 33.061, 63.754 34.513, 62.899 35.734 C 61.442 37.814, 60.687 37.940, 50.897 37.727 L 40.450 37.500 36.225 40.834 C 33.901 42.668, 32 44.795, 32 45.561 C 32 50.343, 46.473 52.195, 56.753 48.729 C 61.570 47.105, 62.206 47.089, 64.419 48.539 C 67.675 50.672, 68.105 52.219, 66.146 54.755 C 64.867 56.412, 62.985 57.030, 57.711 57.525 C 46.323 58.594, 42.989 60.097, 41.787 64.704 C 40.680 68.946, 43.138 70.513, 50.669 70.369 C 54.426 70.297, 59.750 69.708, 62.500 69.060 C 68.153 67.728, 76.962 68.370, 83.190 70.567 C 86.859 71.861, 88.035 71.851, 93.418 70.474 C 101.328 68.451, 102.669 67.168, 100.847 63.367 C 99.077 59.674, 95.259 57.913, 87.646 57.281 C 80.722 56.706, 77 54.872, 77 52.036 C 77 49.257, 77.888 48.974, 89.524 48.043 C 95.315 47.580, 100.717 46.650, 101.527 45.978 C 103.714 44.162, 103.315 40.478, 100.587 37.306 C 98.386 34.746, 97.530 34.484, 90.837 34.322 C 86.802 34.224, 82.795 34.112, 81.934 34.072 C 81.073 34.032, 79.361 32.208, 78.130 30.017 C 74.124 22.889, 71.637 21.506, 68.488 24.655 M 131.434 38.303 C 129.820 40.119, 127.825 41.922, 127 42.309 C 126.175 42.697, 122.868 44.698, 119.652 46.757 C 115.088 49.678, 113.509 51.362, 112.460 54.424 C 110.863 59.086, 111.959 62, 115.309 62 C 117.436 62, 132.963 51.170, 135.872 47.657 C 136.627 46.746, 137.752 45.985, 138.372 45.967 C 138.993 45.948, 140.546 45.062, 141.824 43.996 C 144.097 42.102, 144.109 41.994, 142.401 39.101 C 140.830 36.442, 138.462 35.052, 135.434 35.014 C 134.848 35.006, 133.048 36.486, 131.434 38.303 M 133.609 75.490 C 131.483 76.933, 129.094 78.763, 128.300 79.557 C 127.506 80.351, 126.327 81.002, 125.679 81.004 C 125.030 81.006, 122.138 83.149, 119.250 85.766 C 114.978 89.639, 114 91.128, 114 93.762 C 114 96.900, 114.688 97.465, 118 97.049 C 119.587 96.849, 128.914 88.056, 128.968 86.708 C 129.046 84.785, 132.828 82.209, 136.500 81.579 C 142.659 80.523, 143.928 80.004, 144.931 78.128 C 146.242 75.679, 145.049 74.287, 140.986 73.525 C 138.165 72.996, 136.716 73.382, 133.609 75.490 M 50.423 80.578 C 48.265 81.315, 45.430 83.153, 44.123 84.663 C 41.879 87.254, 41.775 87.951, 42.265 97.121 C 42.746 106.133, 43.038 107.221, 46.297 112.168 C 48.229 115.100, 50.352 119.525, 51.015 122 C 51.678 124.475, 52.651 127.427, 53.177 128.559 C 53.703 129.692, 53.991 132.602, 53.817 135.026 C 53.547 138.783, 52.983 139.785, 50 141.803 C 47.364 143.587, 45.589 144.053, 42.811 143.689 C 40.103 143.335, 38.695 143.680, 37.513 144.986 C 35.544 147.162, 36.393 151.605, 39.049 153.026 C 41.713 154.452, 51.472 154.214, 58.436 152.555 C 61.771 151.760, 68.550 150.387, 73.500 149.503 C 78.450 148.619, 84.387 147.469, 86.693 146.948 C 92.576 145.618, 96.447 145.759, 104.500 147.599 C 115.553 150.124, 117.832 150.308, 121.272 148.950 C 125.167 147.413, 129 144.137, 129 142.346 C 129 138.659, 132.565 132.703, 136.373 130.027 C 138.643 128.433, 142.075 125.750, 144 124.066 C 145.925 122.382, 148.022 121.004, 148.661 121.002 C 149.635 121, 152.331 118.154, 155.769 113.500 C 158.480 109.829, 151.657 104.131, 146.165 105.481 C 140.988 106.753, 134.296 112.236, 133.367 115.967 C 132.859 118.007, 131.565 119.915, 130.243 120.571 C 127.420 121.972, 120 128.776, 120 129.963 C 120 130.449, 118.615 132.231, 116.923 133.923 C 113.145 137.701, 108.517 137.985, 101.377 134.877 C 93.808 131.581, 93 130.526, 93 123.926 C 93 119.397, 93.750 116.599, 96.500 110.860 C 99.550 104.495, 100 102.582, 100 95.974 C 100 88.704, 99.866 88.269, 96.750 85.383 C 91.802 80.801, 84 78.185, 84 81.108 C 84 81.819, 83.012 81.968, 81.250 81.526 C 75.213 80.008, 69.734 79.804, 67.474 81.014 C 65.167 82.249, 63.382 82.107, 57.423 80.216 C 55.219 79.516, 53.233 79.619, 50.423 80.578 M 80.750 88.772 C 79.787 88.978, 79 89.511, 79 89.957 C 79 91.521, 73.465 91.803, 70.128 90.409 C 63.048 87.451, 54.181 89.951, 53.848 95 C 53.274 103.706, 55.179 104.999, 68.350 104.838 C 73.946 104.770, 79.456 105.010, 80.594 105.371 C 83.568 106.315, 86.203 102.952, 86.544 97.777 C 87.054 90.047, 85.568 87.739, 80.750 88.772 M 64.561 117.933 C 63.239 119.393, 62.992 120.677, 63.548 123.183 C 63.953 125.007, 64.214 128.577, 64.129 131.116 C 63.940 136.706, 65.138 137.830, 70.667 137.246 C 75.719 136.712, 78.919 133.661, 79.415 128.903 C 79.610 127.032, 80.103 124.039, 80.510 122.252 C 81.628 117.339, 79.920 116, 72.533 116 C 67.652 116, 65.933 116.417, 64.561 117.933" stroke="none" fill="black" fill-rule="evenodd"/>
</svg>