<svg xmlns="http://www.w3.org/2000/svg" width="256" height="256" viewBox="0 0 256 256" version="1.1">
	<path d="M 109.953 29.525 C 107.154 31.023, 106.165 33.222, 106.070 38.161 C 106.015 41.047, 105.312 42.373, 102.750 44.421 C 100.963 45.850, 96.753 49.726, 93.396 53.034 C 87.227 59.113, 84 60.108, 84 55.932 C 84 52.909, 80.044 50, 75.934 50 C 69.988 50, 69.732 50.881, 69.610 71.772 C 69.479 94.033, 70.181 99.417, 73.497 101.590 C 79.966 105.828, 84.501 93.988, 82.435 78.255 C 81.374 70.176, 84.838 67.774, 91.602 71.899 C 94.649 73.757, 94.757 73.756, 97.759 71.856 C 99.458 70.780, 101.518 68.163, 102.400 65.959 C 105.928 57.141, 113.453 53.440, 127.359 53.685 C 135.617 53.831, 136.759 55.169, 134.973 62.614 C 134.220 65.750, 132.488 69.644, 131.123 71.266 C 128.869 73.945, 128.268 74.150, 124.571 73.499 C 115.977 71.988, 113.715 72.297, 112.067 75.212 C 110.745 77.549, 110.720 78.378, 111.892 81.212 C 112.639 83.020, 113.459 85.884, 113.715 87.577 C 114.244 91.091, 112.721 92.415, 104.691 95.414 C 98.933 97.565, 96 100.451, 96 103.966 C 96 108.077, 102.569 112.125, 104.408 109.148 C 104.698 108.680, 107.087 107.487, 109.717 106.497 C 112.348 105.508, 118.098 102.966, 122.496 100.849 C 132.518 96.025, 135.926 95.943, 142.785 100.361 C 148.428 103.997, 151.637 104.164, 154.528 100.969 C 157.371 97.828, 155.924 95.709, 148.403 92 C 142.887 89.280, 141.048 87.815, 140.153 85.429 C 138.277 80.433, 138.796 77.521, 142.528 72.095 C 144.469 69.274, 146.331 65.511, 146.666 63.733 C 147.400 59.836, 149.272 57.521, 154.250 54.358 C 157.356 52.384, 158 51.403, 158 48.642 C 158 45.170, 156.008 42.651, 152.500 41.687 C 151.400 41.384, 145.100 41.469, 138.500 41.875 C 126.186 42.633, 121 41.900, 121 39.402 C 121 38.631, 120.648 38, 120.218 38 C 119.788 38, 119.337 36.796, 119.215 35.325 C 118.788 30.171, 114.161 27.273, 109.953 29.525 M 59.149 33.528 C 57.496 34.919, 55.375 38.069, 54.436 40.528 C 53.497 42.988, 52.362 45, 51.915 45 C 51.467 45, 49.214 48.628, 46.907 53.062 C 43.258 60.076, 42.049 61.497, 37.606 63.996 C 31.030 67.695, 30.162 68.507, 29.358 71.709 C 28.498 75.135, 30.851 79.397, 33.838 79.827 C 35.162 80.017, 37.569 79.041, 39.604 77.489 C 43.057 74.855, 45.972 74.732, 46.029 77.219 C 46.046 77.923, 46.898 83.989, 47.924 90.698 C 50.038 104.518, 52.547 109.848, 56.056 107.970 C 58.917 106.439, 59.503 102.804, 59.117 89 C 58.373 62.467, 58.641 58.142, 61.276 54.144 C 62.597 52.140, 64.891 47.461, 66.372 43.746 C 69.254 36.523, 68.983 34.132, 65.043 32.023 C 62.495 30.659, 62.586 30.636, 59.149 33.528 M 88.400 113.509 C 85.228 116.681, 85.372 119.832, 88.909 124.716 C 93.729 131.370, 101.207 130.916, 101.798 123.934 C 102.030 121.191, 101.340 119.423, 98.672 115.929 C 94.691 110.715, 91.861 110.048, 88.400 113.509 M 65.592 119.930 C 62.516 121.958, 59.342 127.954, 60.829 128.925 C 61.686 129.485, 63.254 135.632, 64.489 143.271 C 65.284 148.188, 70.012 153.483, 75.297 155.375 C 77.848 156.288, 85.001 157.108, 93.500 157.461 C 101.200 157.780, 110.200 158.287, 113.500 158.587 C 118.856 159.073, 119.948 158.838, 123.674 156.391 C 125.970 154.884, 128.380 152.658, 129.030 151.445 C 132.715 144.558, 121.929 138.719, 114.994 143.846 C 111.410 146.496, 103.422 146.695, 97.500 144.283 C 94.922 143.232, 91.137 142.728, 86.852 142.865 C 80.656 143.062, 80.055 142.887, 77.993 140.288 C 76.052 137.842, 75.853 136.713, 76.369 131.082 C 76.862 125.690, 76.627 124.133, 74.896 121.332 C 72.512 117.474, 69.912 117.082, 65.592 119.930 M 134.250 121.511 C 131.403 123.538, 131.301 127.872, 134.031 130.803 C 135.147 132.001, 136.997 135.427, 138.140 138.415 C 140.316 144.102, 141.857 145.276, 149.361 146.969 C 154.391 148.103, 157.426 145.879, 156.585 141.673 C 156.247 139.983, 155.639 138.352, 155.235 138.050 C 153.827 136.997, 148.264 128.485, 147.609 126.382 C 146.044 121.359, 138.384 118.566, 134.250 121.511 M 40.867 122.890 C 37.393 125.622, 33.692 133.671, 33.204 139.552 C 32.845 143.882, 33.153 145.067, 35.284 147.544 C 37.561 150.191, 37.998 150.334, 40.143 149.134 C 42.945 147.566, 49.782 137.321, 51.277 132.448 C 51.859 130.551, 52.762 129, 53.283 129 C 54.426 129, 51.397 124.004, 49.190 122.250 C 46.933 120.455, 43.640 120.709, 40.867 122.890" stroke="none" fill="black" fill-rule="evenodd"/>
</svg>