<svg xmlns="http://www.w3.org/2000/svg" width="256" height="256" viewBox="0 0 256 256" version="1.1">
	<path d="M 80.500 30.071 C 44.569 35.869, 46.463 34.601, 46.587 52.774 C 46.742 75.468, 47.051 83.357, 48.103 91.500 C 49.953 105.821, 52.637 107.604, 71.842 107.264 C 79.497 107.129, 85.997 107.463, 87.092 108.049 C 88.604 108.858, 89 110.180, 89 114.413 C 89 118.139, 89.495 120.166, 90.636 121.113 C 91.536 121.860, 93.352 124.181, 94.671 126.272 C 97.999 131.542, 102.549 134.221, 107.211 133.653 C 111.424 133.140, 113.518 134.791, 112.545 137.860 C 111.703 140.511, 109.848 141.106, 100.500 141.722 C 90.789 142.361, 81.423 140.658, 79.997 137.994 C 79.449 136.970, 79 133.124, 79 129.448 C 79 123.015, 78.854 122.619, 75.108 118.872 C 72.564 116.329, 70.662 115.192, 69.619 115.593 C 68.741 115.930, 66.211 118.972, 63.997 122.353 C 60.975 126.968, 60.339 128.579, 61.444 128.815 C 62.943 129.136, 67.236 137.393, 68.345 142.088 C 69.155 145.516, 72.533 149.707, 75.883 151.439 C 77.371 152.209, 81.480 153.588, 85.014 154.504 C 90.644 155.962, 92.928 156.022, 103.469 154.987 C 110.086 154.337, 116.909 153.178, 118.632 152.412 C 122.426 150.724, 124.799 146.099, 125.128 139.753 C 125.388 134.718, 123.592 131.640, 119.665 130.394 C 118.525 130.032, 116.956 129.098, 116.176 128.319 C 115.397 127.540, 113.436 126.637, 111.819 126.314 C 107.711 125.492, 103.719 121.141, 102.286 115.922 C 101.170 111.861, 101.241 111.357, 103.146 109.750 C 104.976 108.207, 109.828 107.393, 113.867 107.952 C 116.733 108.349, 129.442 105.692, 133.711 103.804 C 141.566 100.329, 143.553 92.143, 143.900 61.828 C 144.119 42.747, 143.943 39.842, 142.428 37.530 C 140.366 34.384, 135.107 32.009, 130.128 31.976 C 128.133 31.963, 124.700 31.531, 122.500 31.016 C 116.524 29.617, 87.375 28.961, 80.500 30.071 M 74 43.051 C 71.525 43.491, 67.620 43.885, 65.321 43.926 C 58.022 44.055, 57.840 44.630, 58.546 65.357 C 58.886 75.336, 59.116 85.594, 59.057 88.154 C 58.916 94.300, 60.665 96, 67.129 96 C 69.871 96, 75.262 96.520, 79.109 97.155 C 84.459 98.039, 88.384 98.027, 95.802 97.105 C 101.136 96.442, 110.178 95.506, 115.896 95.026 C 129.558 93.879, 129.833 93.605, 130.125 80.811 C 130.273 74.345, 129.940 70.632, 129.123 69.648 C 128.153 68.479, 128.225 66.921, 129.470 62.114 C 131.605 53.875, 131.801 47.366, 129.967 45.563 C 127.789 43.420, 100.168 41.333, 94.895 42.913 L 90.998 44.081 92.964 46.192 C 94.046 47.353, 94.725 48.636, 94.474 49.043 C 94.222 49.449, 95.813 51.405, 98.008 53.388 C 101.811 56.824, 102.300 56.982, 108.421 56.747 C 113.620 56.547, 115.382 56.898, 117.671 58.590 C 121.424 61.362, 123.541 65.643, 122.049 67.440 C 120.970 68.741, 112.455 70.410, 106.592 70.470 C 102.304 70.514, 102.350 72.564, 106.699 75.310 C 111.581 78.392, 112.839 79.943, 113.619 83.845 C 114.207 86.784, 114.054 87.007, 111.375 87.106 C 104.079 87.375, 102.475 86.887, 99.394 83.457 C 97.126 80.933, 95.456 80, 93.203 80 C 91.506 80, 89.849 80.435, 89.520 80.967 C 88.503 82.614, 76.082 88.131, 73.210 88.213 C 69.262 88.325, 66.158 87.128, 66.385 85.580 C 66.605 84.084, 71.333 77.491, 74.195 74.690 C 76.451 72.483, 75.727 71, 72.393 71 C 69.130 71, 65 66.490, 65 62.927 C 65 59.117, 69.125 56, 74.167 56 C 79.307 56, 84.537 53.734, 86.088 50.835 C 86.776 49.551, 87.258 48.275, 87.161 48 C 87.063 47.725, 87.632 46.743, 88.424 45.818 C 89.734 44.287, 89.417 44.041, 84.883 43.068 C 82.143 42.481, 79.586 42.056, 79.201 42.125 C 78.815 42.194, 76.475 42.611, 74 43.051 M 130.432 119.110 C 130.055 119.720, 129.636 122.082, 129.500 124.360 C 129.261 128.380, 129.529 128.768, 138.776 137.750 C 148.985 147.665, 151.669 148.855, 154.001 144.498 C 155.182 142.292, 155.063 141.405, 152.999 136.999 C 151.712 134.250, 149.789 131.214, 148.727 130.253 C 147.664 129.291, 146.186 127.327, 145.442 125.887 C 144.697 124.448, 142.512 122.522, 140.587 121.608 C 138.661 120.694, 136.814 119.509, 136.483 118.973 C 135.661 117.643, 131.278 117.742, 130.432 119.110 M 42.573 122.570 C 41.709 123.433, 40.729 125.233, 40.393 126.570 C 40.058 127.906, 39.420 129, 38.977 129 C 37.639 129, 33 138.075, 33 140.692 C 33 144.902, 34.768 147, 38.314 147 C 40.967 147, 42.539 145.958, 46.943 141.279 C 49.905 138.133, 53.198 134.083, 54.263 132.279 C 55.327 130.476, 56.694 129, 57.302 129 C 57.909 129, 56.648 127.200, 54.500 125 C 50.207 120.604, 45.498 119.645, 42.573 122.570" stroke="none" fill="black" fill-rule="evenodd"/>
</svg>