<svg xmlns="http://www.w3.org/2000/svg" width="256" height="256" viewBox="0 0 256 256" version="1.1">
	<path d="M 116.055 32.250 L 113.832 36.500 116 41.334 C 117.192 43.993, 119.020 47.020, 120.061 48.061 C 122.150 50.150, 121.727 52.656, 119.158 53.412 C 118.246 53.680, 114.290 54.200, 110.368 54.567 C 103.925 55.171, 103.029 55.029, 101.102 53.102 C 98.672 50.672, 98.924 48.205, 102.319 41.201 C 104.281 37.155, 104.307 36.742, 102.769 34.201 C 100.263 30.061, 98.406 29.254, 95.399 31 C 91.366 33.342, 86 44.480, 86 50.511 C 86 55.226, 84.645 57.615, 80.863 59.571 C 77.048 61.544, 73.551 60.771, 71.394 57.478 C 70.497 56.109, 67.776 54.110, 65.347 53.036 C 58.462 49.990, 57.279 46.050, 59.558 33.762 C 60.246 30.052, 55.149 27.780, 51.055 29.971 C 48.556 31.308, 45.945 38.267, 46.455 42.228 C 48.426 57.533, 48.487 56.667, 45.201 59.953 C 43.016 62.138, 41.205 63, 38.799 63 C 32.920 63, 31.370 64.958, 30.723 73.203 C 30.297 78.642, 29.240 82.457, 26.575 88.184 C 21.739 98.579, 21.815 99.394, 27.562 98.746 C 34.991 97.909, 40.928 90.456, 41.070 81.790 C 41.109 79.430, 41.454 76.709, 41.836 75.742 C 42.481 74.111, 42.699 74.101, 44.830 75.594 C 46.746 76.935, 47.088 77.979, 46.883 81.852 C 46.747 84.408, 46.930 89.425, 47.289 93 C 47.648 96.575, 48.183 108.950, 48.478 120.500 C 49.137 146.283, 49.662 150.851, 52.301 153.750 C 54.742 156.432, 58.506 156.694, 59.492 154.250 C 60.645 151.396, 60.064 121.941, 58.481 102.925 C 57.895 95.882, 58.066 93.774, 59.436 91.124 C 61.265 87.587, 62.316 87.581, 68.844 91.064 C 70.684 92.046, 73.159 92.660, 74.344 92.428 C 82.795 90.780, 82.812 90.780, 83.878 92.772 C 84.562 94.050, 84.744 101.328, 84.399 113.617 C 83.713 138.118, 83.707 136.495, 84.510 144 C 85.663 154.768, 87.922 156.615, 95.992 153.386 C 99.104 152.141, 101.336 151.959, 105.763 152.587 C 111.970 153.468, 145.356 153.305, 153.500 152.354 C 162.707 151.278, 164.334 148.603, 158.924 143.437 C 155.850 140.502, 155.841 140.500, 144.690 140.796 C 136.052 141.026, 132.719 140.726, 129.932 139.470 C 127.953 138.577, 126.246 137.319, 126.139 136.673 C 124.631 127.561, 124.789 126.100, 127.563 123.530 C 131.017 120.328, 135.473 119.115, 140 120.143 C 144.316 121.124, 146.682 120.463, 148.057 117.893 C 148.900 116.318, 148.649 115.378, 146.806 113.211 C 144.861 110.924, 143.783 110.527, 139.917 110.675 C 134.578 110.880, 131.464 109.539, 128.733 105.859 C 127.009 103.537, 126.918 102.778, 127.980 99.561 C 129.290 95.590, 133.286 91, 135.431 91 C 136.168 91, 138.060 91.672, 139.636 92.494 C 143.481 94.499, 147.899 94.426, 148.698 92.344 C 149.699 89.735, 145.486 87, 140.466 87 C 137.270 87, 135.346 86.320, 133.034 84.376 C 131.319 82.932, 130.121 81.545, 130.373 81.294 C 130.624 81.043, 130.193 79.313, 129.415 77.451 C 127.440 72.723, 127.643 70.412, 130.250 67.970 C 132.318 66.034, 133.228 65.916, 141.500 66.518 C 150.439 67.169, 150.522 67.153, 153.750 64.247 C 160.312 58.340, 156.606 54.044, 144.750 53.812 C 136.749 53.656, 133.458 52.203, 131.755 48.075 C 130.635 45.361, 130.483 44.716, 129.565 38.797 C 128.971 34.964, 126.105 31.151, 122.316 29.152 C 118.991 27.398, 118.454 27.664, 116.055 32.250 M 60.906 66.550 C 56.810 68.742, 55.790 75.143, 58.741 80.139 C 61.403 84.644, 64.551 83.698, 69.189 77 C 73.625 70.593, 73.771 69.730, 70.750 67.769 C 67.457 65.632, 63.530 65.146, 60.906 66.550 M 95.482 67.924 C 94.372 68.386, 92.838 69.934, 92.072 71.365 C 90.853 73.642, 90.900 74.451, 92.445 77.878 C 95.397 84.424, 106.016 87.494, 113.715 84.027 C 120.988 80.752, 120.481 73.391, 112.754 70.054 C 107.743 67.890, 98.349 66.732, 95.482 67.924 M 97.589 98.077 C 94.164 102.147, 94.245 106.123, 97.834 110.140 C 100.661 113.304, 100.676 113.308, 103.988 111.656 C 105.813 110.745, 107.935 110, 108.703 110 C 111.837 110, 116 106.933, 116 104.624 C 116 102.840, 114.572 101.453, 109.850 98.650 C 106.468 96.643, 102.908 95, 101.939 95 C 100.970 95, 99.013 96.385, 97.589 98.077 M 98.157 123.068 C 93.991 126.950, 94.276 137.824, 98.618 140.669 C 101.526 142.575, 109.156 142.005, 113.954 139.524 C 116.880 138.011, 117.001 137.698, 116.686 132.461 C 116.336 126.622, 114.881 124.692, 110 123.591 C 108.625 123.280, 105.840 122.624, 103.811 122.132 C 100.797 121.402, 99.762 121.573, 98.157 123.068" stroke="none" fill="black" fill-rule="evenodd"/>
</svg>