<svg xmlns="http://www.w3.org/2000/svg" width="256" height="256" viewBox="0 0 256 256" version="1.1">
	<path d="M 112.409 23.972 C 109.208 25.267, 107.762 29.950, 108.340 37.160 C 108.891 44.050, 107.519 50.587, 105.346 51.421 C 101.825 52.772, 96 45.930, 96 40.443 C 96 39.595, 95.313 37.573, 94.474 35.950 C 91.779 30.738, 85 32.871, 85 38.932 C 85 47.117, 83.723 50.872, 78.984 56.620 C 76.362 59.800, 74.421 62.933, 74.670 63.583 C 74.919 64.233, 77.683 65.288, 80.812 65.929 C 83.940 66.569, 87.793 67.645, 89.373 68.319 L 92.247 69.544 88.120 73.272 C 84.702 76.361, 83.255 77, 79.686 77 C 72.940 77, 68.931 71.820, 71.965 67.023 C 73.024 65.348, 70.604 62, 68.334 62 C 67.588 62, 64.994 61.067, 62.569 59.927 C 56.827 57.228, 54.904 52.736, 55.103 42.481 C 55.209 37.002, 54.846 34.704, 53.694 33.551 C 51.454 31.311, 48.686 31.641, 46.033 34.465 C 43.740 36.906, 43.729 37.032, 44.923 47.640 C 46.439 61.110, 45.592 62.782, 36.219 64.821 C 30.827 65.994, 30.026 66.487, 29.073 69.220 C 28.483 70.913, 28 74.046, 28 76.182 C 28 78.333, 26.895 82.247, 25.525 84.951 C 24.164 87.637, 22.760 91.650, 22.405 93.868 C 21.805 97.622, 21.943 97.948, 24.399 98.564 C 27.853 99.431, 32.428 97.469, 35.520 93.794 C 37.587 91.338, 38 89.795, 38 84.534 C 38 79.782, 38.477 77.638, 39.929 75.861 C 43.885 71.020, 44.361 73.937, 44.148 101.723 C 43.989 122.432, 44.250 128.465, 45.475 132.409 C 46.314 135.109, 47 140.214, 47 143.755 C 47 148.042, 47.573 151.162, 48.716 153.097 C 52.209 159.009, 57.107 157.450, 57.279 150.372 C 57.428 144.189, 55.928 101.705, 55.481 99.476 C 55.258 98.363, 55.717 94.763, 56.502 91.476 C 57.287 88.189, 57.945 82.928, 57.964 79.785 C 57.993 75.222, 58.382 73.866, 59.895 73.056 C 61.247 72.333, 62.067 72.394, 62.757 73.271 C 64.097 74.974, 65.329 80.002, 65.142 83 C 65.055 84.375, 65.845 86.602, 66.897 87.949 C 68.526 90.036, 69.672 90.405, 74.654 90.449 L 80.500 90.500 80.378 94.340 C 80.220 99.301, 77.291 103.171, 72.476 104.783 C 67.988 106.284, 66.091 108.642, 63.907 115.432 C 62.495 119.820, 62.482 120.677, 63.787 122.951 C 66.238 127.222, 69.985 129.427, 74.459 129.232 C 80.241 128.981, 82.003 129.777, 83.491 133.317 C 84.717 136.232, 84.598 136.733, 81.733 140.722 C 80.044 143.075, 77.862 145, 76.886 145 C 75.910 145, 73.893 146.048, 72.404 147.329 C 70.191 149.233, 69.825 150.168, 70.401 152.460 C 71.092 155.216, 71.198 155.252, 76.638 154.613 C 85.709 153.547, 90.403 150.241, 94.202 142.246 C 95.314 139.907, 98.648 135.529, 101.612 132.518 C 104.896 129.180, 107.009 126.156, 107.022 124.771 C 107.049 122.001, 110.343 114.524, 111.983 113.511 C 115.152 111.552, 116.190 118.696, 113.958 127.103 C 112.684 131.906, 114.379 136.938, 117.348 137.164 C 118.532 137.254, 121.536 137.222, 124.024 137.092 C 129.284 136.818, 133.048 139.192, 135.480 144.317 C 137.389 148.339, 141.654 153, 143.425 153 C 145.568 153, 147.997 148.404, 148.032 144.285 C 148.065 140.392, 149.847 137, 151.860 137 C 152.487 137, 153 136.550, 153 136 C 153 135.450, 153.645 135, 154.433 135 C 155.221 135, 156.159 134.074, 156.518 132.942 C 157.195 130.811, 156.844 130.395, 149.601 124.731 C 147.653 123.208, 144.982 119.710, 143.664 116.957 L 141.269 111.952 144.002 109.652 C 145.505 108.387, 148.144 106.769, 149.867 106.055 C 154.641 104.078, 154.165 100.625, 148.750 97.953 C 146.412 96.799, 143.251 95.183, 141.724 94.361 C 136.793 91.706, 132.471 91.546, 128.695 93.879 C 126.808 95.046, 124.184 96, 122.864 96 C 121.544 96, 118.672 97.237, 116.482 98.750 C 112.892 101.229, 111.761 101.476, 105 101.256 C 100.875 101.123, 96.599 100.543, 95.497 99.970 C 93.682 99.024, 89.968 91.915, 90.022 89.489 C 90.084 86.744, 93.995 83.633, 98.130 83.039 C 100.949 82.635, 102.401 81.954, 102.221 81.120 C 102.068 80.409, 102.856 79.589, 103.971 79.297 C 105.087 79.005, 106.014 78.257, 106.030 77.633 C 106.047 77.010, 106.588 77.400, 107.233 78.500 C 107.878 79.600, 108.291 81.637, 108.151 83.027 C 107.605 88.440, 117.437 92.858, 120.551 88.599 C 121.262 87.627, 121.834 83.772, 121.871 79.692 C 121.908 75.737, 122.200 71.375, 122.520 70 C 122.841 68.625, 123.332 66.385, 123.612 65.023 C 124.280 61.773, 124.462 61.648, 127.453 62.399 C 129.760 62.978, 130 63.512, 130 68.069 C 130 75.028, 132.189 79, 136.026 79 C 137.662 79, 139.200 78.888, 139.444 78.750 C 139.689 78.612, 141.376 79.909, 143.194 81.630 C 148.255 86.422, 150.775 87.459, 153.637 85.927 C 157.876 83.658, 154.532 77.889, 146.826 74.174 C 142.193 71.941, 141.493 70.788, 142.085 66.362 C 142.132 66.011, 141.652 65.403, 141.018 65.011 C 139.506 64.076, 144.094 62.332, 150.207 61.518 C 159.609 60.265, 160.991 55.077, 153.009 51.005 C 148.032 48.466, 146.175 45.024, 147.659 41.091 C 149.149 37.146, 148.468 33.127, 145.836 30.326 C 141.187 25.376, 134.720 29.068, 133.430 37.408 C 132.494 43.465, 125.311 52.826, 124.151 49.500 C 123.960 48.950, 123.347 47.648, 122.790 46.607 C 122.233 45.567, 121.657 40.866, 121.511 36.161 C 121.267 28.286, 121.033 27.425, 118.567 25.304 C 115.633 22.780, 115.453 22.741, 112.409 23.972 M 102.750 66.689 C 100.487 67.281, 100.571 69.905, 102.944 72.750 C 105.558 75.884, 106.804 75.564, 107.554 71.565 C 108.509 66.474, 107.499 65.448, 102.750 66.689 M 88.549 112.736 C 83.422 113.493, 78.529 118.504, 79.745 121.750 C 80.387 123.462, 88.418 123.353, 91.835 121.585 C 95.623 119.627, 97.729 115.583, 96.028 113.534 C 94.753 111.998, 94.050 111.923, 88.549 112.736 M 127.198 114.633 C 125.598 116.346, 125.728 123.058, 127.405 125.267 C 129.987 128.670, 134 124.940, 134 119.139 C 134 116.860, 133.332 115.813, 131.198 114.749 C 128.921 113.613, 128.171 113.591, 127.198 114.633" stroke="none" fill="black" fill-rule="evenodd"/>
</svg>