<svg xmlns="http://www.w3.org/2000/svg" width="256" height="256" viewBox="0 0 256 256" version="1.1">
	<path d="M 117 25.135 C 115.625 25.690, 107.075 26.750, 98 27.490 C 80.709 28.901, 58.854 31.959, 58 33.088 C 57.725 33.451, 56.030 34.068, 54.233 34.458 C 52.436 34.847, 49.392 36.651, 47.468 38.465 L 43.970 41.764 44.495 50.518 C 44.783 55.333, 45.249 60.574, 45.529 62.166 C 45.810 63.757, 45.545 65.982, 44.942 67.109 C 44.338 68.237, 43.704 72.438, 43.532 76.446 C 43.360 80.453, 42.967 84.580, 42.657 85.616 C 42.348 86.652, 41.613 92.830, 41.024 99.344 C 40.436 105.858, 39.315 112.425, 38.532 113.937 C 37.750 115.450, 36.802 119.120, 36.426 122.094 C 36.049 125.067, 35.142 128.191, 34.409 129.037 C 29.868 134.273, 28.654 143.944, 32.223 146.443 C 35.855 148.988, 38.399 148.331, 41.930 143.937 C 45.462 139.542, 48.104 129.853, 50.436 112.735 C 51.092 107.914, 52.163 103.437, 52.815 102.785 C 53.467 102.133, 54 100.565, 54 99.300 C 54 98.035, 54.463 97, 55.030 97 C 55.596 97, 55.119 95.727, 53.968 94.171 C 51.326 90.597, 52.083 86.949, 56.185 83.497 C 58.587 81.477, 59.853 81.111, 62.826 81.579 C 64.847 81.898, 72.660 81.440, 80.188 80.563 C 91.010 79.302, 96.504 79.167, 106.426 79.918 C 114.452 80.525, 120.151 80.520, 122.238 79.903 C 124.032 79.372, 127.075 78.995, 129 79.066 C 135.104 79.289, 135.677 79.079, 139.745 75.132 C 142.452 72.505, 144.296 69.467, 145.492 65.666 C 147.213 60.195, 147.206 59.969, 145.191 55.682 C 143.160 51.363, 142.357 50.804, 134.250 48.074 C 129.537 46.486, 117.285 45.814, 96 45.973 C 76.907 46.116, 74.972 46.302, 67.803 48.685 C 59.327 51.502, 53.502 51.355, 56.458 48.399 C 57.306 47.551, 58 46.460, 58 45.974 C 58 44.848, 62.122 44.209, 73.884 43.510 C 79.046 43.203, 83.649 42.717, 84.115 42.429 C 85.559 41.536, 106.189 39.040, 112.292 39.020 C 120.048 38.993, 132.906 36.324, 136 34.098 C 139.109 31.861, 139.705 28.437, 137.425 25.918 C 135.976 24.316, 134.355 24.010, 127.595 24.063 C 123.143 24.098, 118.375 24.581, 117 25.135 M 99.500 59.052 C 96.750 59.477, 89.916 59.864, 84.313 59.912 C 75.191 59.991, 60.252 62.490, 57.040 64.475 C 55.367 65.510, 55.843 68.846, 57.815 69.901 C 59.689 70.904, 61.616 70.581, 72.500 67.444 C 77.327 66.052, 81.966 65.753, 96.233 65.911 C 105.986 66.020, 114.986 66.341, 116.233 66.626 C 123.417 68.267, 127.197 68.209, 130.542 66.407 C 132.444 65.383, 133.986 64.310, 133.969 64.023 C 133.951 63.735, 132.928 62.769, 131.696 61.875 C 128.236 59.366, 108.601 57.645, 99.500 59.052 M 82.104 88.085 C 80.786 88.612, 76.999 89.252, 73.689 89.507 C 65.937 90.104, 64.155 90.699, 60.448 93.930 C 57.685 96.339, 57.480 96.917, 58.283 100.045 C 58.771 101.945, 59.787 104.188, 60.541 105.030 C 61.295 105.871, 61.841 108.346, 61.755 110.530 C 61.666 112.778, 62.637 117.005, 63.993 120.275 L 66.389 126.049 60.595 131.904 C 55.497 137.056, 54.934 138.009, 55.913 139.837 C 57.730 143.232, 65.623 143.799, 77.789 141.408 C 80.216 140.931, 81.599 141.232, 83.063 142.557 C 84.314 143.689, 84.656 144.595, 83.988 145.007 C 83.406 145.367, 82.689 147.200, 82.396 149.081 C 81.928 152.086, 82.199 152.651, 84.631 153.750 C 90.284 156.303, 92.798 154.577, 97.448 144.951 C 98.922 141.898, 100.892 138.924, 101.826 138.341 C 103.713 137.162, 108 138.293, 108 139.968 C 108 141.553, 118.663 141.208, 126.196 139.381 C 129.878 138.487, 134.034 138.043, 135.431 138.393 C 138.284 139.109, 139.975 143.425, 138.127 145.273 C 136.486 146.914, 136.748 152.546, 138.535 154.029 C 140.708 155.832, 145.841 155.454, 148.203 153.316 C 152.137 149.756, 152.854 146.716, 153.444 131.096 C 154.015 115.984, 153.990 115.740, 150.833 105.669 C 149.079 100.076, 146.707 94.534, 145.562 93.353 C 142.490 90.187, 136.974 89.095, 122.910 88.866 C 112.541 88.698, 109.901 88.956, 107.938 90.331 C 104.780 92.543, 102.937 92.433, 93.712 89.487 C 85.032 86.715, 85.414 86.761, 82.104 88.085 M 99.161 101.547 C 97.696 104.762, 97.704 105.975, 99.215 109.176 C 100.661 112.241, 104.148 112.599, 106.562 109.931 C 108.091 108.242, 108.085 107.789, 106.468 103.556 C 104.414 98.177, 101.110 97.269, 99.161 101.547 M 121.750 103.967 C 120.237 105.654, 119 107.497, 119 108.063 C 119 109.016, 121.411 111.544, 125.502 114.881 C 126.556 115.740, 126.805 116.503, 126.160 116.901 C 124.650 117.834, 123.067 122.491, 123.838 123.731 C 124.700 125.117, 133.899 130, 135.649 130 C 136.392 130, 137 130.450, 137 131 C 137 133.085, 138.690 131.873, 140.201 128.705 C 141.250 126.505, 141.658 123.430, 141.428 119.455 C 140.601 105.150, 140.817 105.869, 136.689 103.722 C 134.593 102.632, 130.993 101.551, 128.689 101.320 C 125.015 100.951, 124.162 101.277, 121.750 103.967 M 77.399 104.176 C 75.715 104.613, 73.562 105.826, 72.614 106.874 C 70.962 108.700, 71.073 108.926, 75.343 112.425 C 79.986 116.229, 80.479 118.656, 77.265 121.876 C 76.509 122.632, 76.028 124.418, 76.196 125.844 C 76.622 129.475, 82.348 131.240, 84.496 128.403 C 86.019 126.390, 86.544 121, 85.217 121 C 84.786 121, 84.501 119.763, 84.582 118.250 C 84.664 116.737, 84.359 114.775, 83.904 113.888 C 83.387 112.880, 83.613 111.569, 84.507 110.388 C 86.615 107.604, 86.320 106.306, 83.230 104.765 C 81.382 103.843, 79.443 103.647, 77.399 104.176 M 99.591 114.750 C 97.768 120.620, 99.020 126.497, 102.283 127.392 C 103.724 127.787, 104.097 128.262, 103.347 128.750 C 102.477 129.316, 102.477 130.189, 103.347 132.314 L 104.500 135.127 107.930 132.064 C 109.817 130.379, 111.884 129, 112.525 129 C 113.961 129, 117.326 125.389, 117.594 123.560 C 117.703 122.821, 115.594 120.143, 112.909 117.608 C 108.804 113.734, 107.398 113, 104.080 113 C 101.196 113, 99.989 113.471, 99.591 114.750" stroke="none" fill="black" fill-rule="evenodd"/>
</svg>