<svg xmlns="http://www.w3.org/2000/svg" width="256" height="256" viewBox="0 0 256 256" version="1.1">
	<path d="M 119.500 26.800 C 117.850 26.965, 112.963 27.753, 108.640 28.550 C 104.316 29.348, 99.211 30, 97.294 30 C 93.329 30, 88.241 32.629, 87.726 34.944 C 87.535 35.800, 87.845 37.576, 88.415 38.892 L 89.451 41.284 107.767 40.743 C 129.339 40.105, 134 40.510, 134 43.023 C 134 46.348, 127.609 47.739, 109 48.464 C 89.785 49.212, 82.944 50.586, 78.712 54.544 C 76.090 56.996, 75.525 57.111, 69.212 56.471 C 65.520 56.098, 61.425 55.112, 60.110 54.281 C 57.786 52.812, 57.739 52.518, 58.374 43.485 C 59.254 30.964, 57.684 26.764, 52.495 27.756 C 47.359 28.738, 46.500 31.149, 46.500 44.587 C 46.500 56.616, 46.431 57.010, 44.020 58.730 C 40.933 60.934, 38.384 61.772, 34.385 61.900 C 29.961 62.042, 26.140 65.282, 26.734 68.388 C 26.992 69.737, 28.060 71.761, 29.108 72.886 C 31.205 75.137, 33.224 74.847, 36.607 71.811 C 37.765 70.772, 40.301 69.663, 42.242 69.348 C 45.559 68.810, 45.832 68.977, 46.799 72.138 C 47.364 73.987, 48.112 79.010, 48.460 83.301 C 49.447 95.469, 46.856 100, 38.913 100 C 34.871 100, 28.299 103.482, 27.482 106.057 C 27.117 107.207, 27.384 109.513, 28.076 111.183 C 29.236 113.983, 29.633 114.178, 33.205 113.699 C 35.334 113.414, 38.297 112.370, 39.788 111.379 C 45.926 107.303, 46.969 108.898, 48.175 124.194 C 49.310 138.594, 48.515 142.660, 43.453 148.344 C 40.678 151.459, 40.222 152.546, 41.045 154.083 C 42.507 156.817, 47.615 159.167, 51.314 158.809 C 56.908 158.267, 57.589 155.361, 58.348 128.816 L 59.015 105.500 61.563 103.250 C 64.831 100.365, 66.155 100.419, 69.923 103.589 C 72.259 105.554, 73 107.005, 73 109.611 C 73 112.225, 73.952 114.077, 76.989 117.372 L 80.978 121.700 81.080 131.716 C 81.195 142.997, 82.355 146.500, 85.973 146.500 C 89.346 146.500, 91.771 141.909, 93.426 132.390 C 94.521 126.093, 95.308 124.132, 97.490 122.255 C 99.366 120.641, 100.856 120.130, 102.348 120.588 C 105.468 121.546, 105.434 121.466, 106.222 129.831 C 108.113 149.912, 108.473 151.893, 110.507 153.430 C 113.391 155.610, 114.795 155.359, 118.077 152.077 C 121.378 148.776, 121.748 145.725, 119.500 140.346 C 117.356 135.214, 117.505 123.803, 119.750 121.167 C 122.180 118.315, 126.181 117.949, 129.377 120.287 C 132.200 122.351, 132.675 134.686, 130.151 140.392 L 128.188 144.828 130.379 146.886 C 134.359 150.626, 144.900 147.238, 144.969 142.197 C 144.986 140.931, 145.714 136.755, 146.587 132.917 C 147.780 127.673, 147.914 125.193, 147.129 122.941 C 145.718 118.893, 146.284 117.876, 151.487 115.116 C 156.244 112.593, 156.220 112.635, 158.092 103.500 C 160.164 93.389, 159.484 91.296, 153.067 88.049 C 146.257 84.603, 130.664 83.736, 105 85.377 C 99.225 85.746, 90.505 86.107, 85.621 86.179 C 77.354 86.301, 76.618 86.146, 74.941 83.921 C 73.654 82.216, 73.468 81.329, 74.291 80.820 C 75.071 80.338, 74.865 79.885, 73.655 79.421 C 72.671 79.043, 71.356 79.244, 70.733 79.867 C 69.889 80.711, 69.906 81, 70.800 81 C 73.799 81, 70.206 90.454, 66.788 91.558 C 64.369 92.339, 61.073 90.322, 59.952 87.374 C 59.428 85.997, 59 81.594, 59 77.590 C 59 69.516, 60.476 67, 65.212 67 C 66.932 67, 68.971 65.667, 71.450 62.923 L 75.133 58.847 80.317 60.625 C 87.098 62.952, 87.623 63.467, 86.104 66.307 C 85.413 67.597, 84.994 70.191, 85.174 72.070 C 85.721 77.798, 87.868 78.227, 109.948 77.029 C 136.033 75.612, 143 72.991, 143 64.594 C 143 60.782, 143.287 60.359, 147.132 58.499 C 149.405 57.400, 151.880 55.569, 152.634 54.432 C 153.871 52.563, 153.659 51.962, 150.441 48.202 C 148.482 45.913, 146.885 43.244, 146.893 42.270 C 146.901 41.297, 146.973 38.800, 147.053 36.723 C 147.319 29.891, 143.816 27.703, 131.500 27.008 C 126.550 26.728, 121.150 26.635, 119.500 26.800 M 99.250 59.776 C 96.678 60.191, 96.291 61.514, 98.494 62.359 C 100.756 63.227, 129.168 62.011, 130.946 60.970 C 132.689 59.950, 133.625 60.023, 114 59.650 C 107.125 59.519, 100.487 59.576, 99.250 59.776 M 122.028 98.113 C 118.727 99.431, 117.981 100.865, 119.204 103.548 C 120.497 106.386, 123.876 107.937, 127.327 107.278 C 128.806 106.995, 131.332 107.309, 132.942 107.976 C 137.083 109.691, 141.283 108.484, 143.352 104.982 C 145.247 101.773, 144.472 98.779, 141.446 97.618 C 138.934 96.654, 124.780 97.015, 122.028 98.113 M 86.609 101.152 C 81.638 105.428, 86.726 110.102, 95.679 109.483 C 101.715 109.065, 104.845 107.402, 105.664 104.177 C 106.560 100.645, 104.624 99.570, 96.641 99.167 C 90.129 98.838, 89.052 99.052, 86.609 101.152" stroke="none" fill="black" fill-rule="evenodd"/>
</svg>