<svg xmlns="http://www.w3.org/2000/svg" width="256" height="256" viewBox="0 0 256 256" version="1.1">
	<path d="M 118.803 20.750 C 117.974 21.712, 116.465 23.948, 115.451 25.719 C 113.418 29.265, 112.933 29.541, 105.057 31.631 C 102.064 32.425, 99.026 33.563, 98.307 34.160 C 96.344 35.789, 96.702 41.420, 98.895 43.405 C 102.509 46.676, 102.130 49.671, 97.613 53.521 C 95.351 55.450, 92.189 58.200, 90.586 59.634 C 87.959 61.983, 87.170 62.171, 82.586 61.541 C 79.789 61.157, 75.515 60.902, 73.089 60.976 C 67.844 61.134, 62.159 59.149, 64.183 57.866 C 64.907 57.407, 68.559 57.024, 72.298 57.015 C 80.933 56.996, 83.094 55.040, 84.818 45.685 C 86.692 35.516, 86.374 30.546, 83.648 27.377 C 81.437 24.807, 80.730 24.625, 71.898 24.355 C 55.077 23.842, 49.422 23.972, 44.031 24.994 C 41.114 25.547, 38.574 26, 38.387 26 C 38.199 26, 37.290 27.153, 36.367 28.563 C 35.046 30.578, 34.611 34.156, 34.328 45.313 C 34.034 56.943, 33.577 60.491, 31.797 65 C 30.602 68.025, 29.146 70.872, 28.562 71.326 C 27.831 71.894, 27.890 72.311, 28.750 72.659 C 29.438 72.938, 30 73.622, 30 74.179 C 30 74.736, 30.931 76.498, 32.068 78.096 C 34.588 81.635, 38.092 81.891, 41.018 78.750 C 42.772 76.868, 44.228 76.483, 49.929 76.396 C 54.498 76.327, 57.519 75.750, 59.094 74.646 C 60.673 73.541, 63.514 73, 67.744 73 C 73.448 73, 74.148 73.230, 75.153 75.436 C 77.435 80.444, 74.196 82.268, 65.377 80.939 C 62.695 80.535, 59.487 79.933, 58.250 79.602 C 52.536 78.073, 51.957 78.136, 50.441 80.449 C 49.419 82.010, 49.144 83.738, 49.614 85.644 C 50.351 88.624, 54.593 92.997, 56.750 92.999 C 58.650 93.001, 58.202 97.185, 56 100 C 54.924 101.375, 54.034 102.870, 54.022 103.321 C 53.975 105.054, 57.389 107.412, 60.229 107.609 C 65.301 107.960, 70 109.055, 70 109.885 C 70 111.688, 65.040 112.654, 57.837 112.253 C 51.048 111.875, 49.933 112.067, 48.064 113.936 C 46.283 115.717, 46.138 116.390, 47.135 118.252 C 49.631 122.915, 53.639 124.498, 59.074 122.966 C 60.658 122.520, 62.580 122.757, 64.074 123.585 C 67.531 125.500, 71.479 125.306, 76 123 C 81.050 120.424, 84.798 120.461, 87.096 123.111 C 88.832 125.112, 88.838 125.346, 87.213 127.629 C 85.627 129.860, 85.057 129.991, 79.500 129.404 C 76.200 129.056, 72.658 128.327, 71.628 127.785 C 70.584 127.235, 68.372 127.133, 66.628 127.553 C 64.908 127.968, 58.241 128.385, 51.813 128.479 C 38.952 128.667, 37.667 129.162, 35.290 134.850 C 34.023 137.880, 34.062 138.325, 35.695 139.522 C 38.445 141.538, 41.589 141.839, 52.621 141.141 C 58.188 140.788, 64.488 140.816, 66.621 141.202 C 68.755 141.588, 73.770 141.637, 77.767 141.312 C 83.832 140.819, 85.354 141.010, 86.965 142.469 C 88.863 144.186, 88.850 144.255, 86.198 146.479 C 84.714 147.723, 81.940 149.082, 80.033 149.498 C 75.114 150.571, 73 152.139, 73 154.715 C 73 157.713, 77.743 160.076, 85.105 160.743 C 90.496 161.232, 91.084 161.069, 93.822 158.332 C 95.780 156.374, 96.988 153.915, 97.452 150.948 C 97.834 148.502, 98.355 145.756, 98.610 144.846 C 99.397 142.039, 105.283 140.001, 112.651 139.984 C 116.418 139.976, 122.190 139.336, 125.478 138.563 C 128.767 137.789, 134.347 137.324, 137.880 137.528 C 147.090 138.062, 154.951 134.646, 152.982 130.967 C 150.590 126.497, 128.097 124.415, 110.946 127.076 C 105.099 127.983, 103.773 127.916, 102.505 126.648 C 98.863 123.006, 102.252 120.490, 110.362 120.816 C 121.151 121.250, 135.482 118.290, 137.335 115.245 C 137.795 114.490, 139.093 113.531, 140.220 113.114 C 142.058 112.434, 141.879 112.171, 138.485 110.560 C 135.227 109.014, 132.544 108.815, 119.187 109.132 C 107.858 109.401, 103.566 109.181, 103.276 108.318 C 102.677 106.536, 105.976 105.187, 112.430 104.575 C 118.808 103.970, 124.025 101.307, 125.733 97.784 C 126.343 96.528, 127.108 93.257, 127.434 90.515 C 128.252 83.628, 130.137 82.077, 138.817 81.150 C 144.425 80.551, 146.468 79.875, 148.159 78.060 C 151.682 74.279, 149.666 72.594, 140.897 71.992 C 123.009 70.762, 125.712 63.629, 144.570 62.298 C 150.817 61.857, 153.452 61.228, 154.968 59.815 C 158.733 56.308, 157.263 52.785, 151.494 51.487 C 145.760 50.198, 145.297 49.947, 144.197 47.532 C 143.028 44.968, 142.682 45.412, 151.341 38.362 C 153.652 36.481, 152.841 32.259, 149.689 29.772 C 147.426 27.986, 141.278 27.613, 135.500 28.910 C 133.217 29.423, 132.082 29.119, 130.750 27.639 C 129.787 26.569, 129 25.166, 129 24.521 C 129 22.668, 124.576 19, 122.341 19 C 121.224 19, 119.632 19.788, 118.803 20.750 M 54.011 35.982 C 51.442 36.363, 50.167 37.242, 49.177 39.311 C 46.900 44.071, 47.799 44.539, 59.129 44.482 C 64.833 44.454, 70.063 44.082, 70.750 43.656 C 72.295 42.699, 72.403 37.367, 70.896 36.436 C 69.515 35.582, 58.671 35.291, 54.011 35.982 M 117 40.741 C 113.139 42.242, 112.414 47.546, 115.604 50.944 C 116.762 52.177, 117.731 52.196, 122.230 51.075 C 131.008 48.887, 135.728 42.235, 129.658 40.606 C 126.952 39.880, 118.996 39.965, 117 40.741 M 47.588 57.293 C 46.360 58.203, 45.912 59.328, 46.337 60.435 C 46.858 61.793, 47.689 62.015, 50.249 61.479 C 53.528 60.793, 56.817 58.484, 55.868 57.534 C 54.481 56.148, 49.335 55.998, 47.588 57.293 M 108.500 65.304 C 105.750 65.770, 100.266 66.377, 96.313 66.653 C 89.342 67.139, 89.106 67.242, 88.485 70.067 C 88.133 71.669, 87.924 74.672, 88.020 76.740 C 88.499 87.083, 87.582 88.597, 80 89.985 C 76.975 90.539, 73.600 91.403, 72.500 91.906 C 71.400 92.408, 69.713 93.070, 68.750 93.378 C 66.735 94.022, 66.399 95.622, 68.250 95.759 C 68.938 95.810, 70.717 96.115, 72.203 96.437 C 73.690 96.759, 76.840 96.333, 79.203 95.492 C 87.994 92.360, 99.046 90.949, 105.303 92.159 C 112.086 93.471, 115.657 92.215, 116.674 88.161 C 117.557 84.643, 114.799 83, 108.008 83 C 100.737 83, 97.013 81.305, 97.023 78 C 97.035 74.058, 98.160 73.174, 104.019 72.498 C 111.959 71.583, 118 69.222, 118 67.034 C 118 64.750, 114.995 64.203, 108.500 65.304 M 75.602 107.979 L 71.703 109.795 74.802 111.398 C 78.750 113.439, 82.927 113.440, 85.841 111.399 C 88.015 109.876, 88.043 109.705, 86.408 107.899 C 84.295 105.564, 80.727 105.590, 75.602 107.979" stroke="none" fill="black" fill-rule="evenodd"/>
</svg>