<svg xmlns="http://www.w3.org/2000/svg" width="256" height="256" viewBox="0 0 256 256" version="1.1">
	<path d="M 91.538 28.301 C 90.217 30.318, 90.139 31.551, 91.062 35.856 C 91.669 38.685, 92.578 41, 93.083 41 C 94.879 41, 93.986 46.702, 91.894 48.595 C 89.923 50.378, 88.213 50.481, 65.144 50.198 C 42.142 49.916, 40.293 50.026, 37.393 51.846 C 35.685 52.919, 34.047 54.711, 33.755 55.829 C 33.037 58.576, 36.784 61.968, 41.107 62.485 C 54.220 64.051, 62.147 65.482, 62.876 66.413 C 63.343 67.011, 64.013 70.387, 64.365 73.915 C 65.094 81.230, 69.046 88.504, 77.995 99 C 79.636 100.925, 80.984 103.063, 80.990 103.750 C 80.995 104.438, 81.399 105, 81.886 105 C 83.225 105, 86 111.432, 86 114.534 C 86 117.483, 82.758 121, 80.040 121 C 79.130 121, 75.261 122.574, 71.443 124.497 C 67.624 126.420, 63.686 127.995, 62.691 127.997 C 61.696 127.999, 61.142 128.420, 61.459 128.934 C 62.153 130.057, 55.231 137, 53.418 137 C 52.717 137, 51.488 137.655, 50.687 138.456 C 49.887 139.256, 47.717 140.757, 45.866 141.791 C 41.829 144.045, 41.106 146.451, 44 148 C 45.575 148.843, 47.974 148.848, 53.311 148.020 C 59.449 147.068, 61.712 146.091, 68.791 141.333 C 73.351 138.268, 78.242 134.239, 79.659 132.380 C 81.077 130.521, 82.878 129, 83.661 129 C 84.443 129, 86.050 128.100, 87.230 127 C 89.156 125.206, 91.060 124.536, 93.250 124.882 C 93.662 124.947, 94 124.550, 94 124 C 94 121.961, 96.563 123.100, 98.500 126 C 99.668 127.749, 101.380 128.995, 102.615 128.997 C 103.778 128.999, 105.803 129.814, 107.115 130.809 C 111.808 134.370, 116.810 136.792, 120.891 137.482 C 123.173 137.867, 125.593 138.704, 126.270 139.341 C 129.026 141.938, 136.130 146.283, 139.698 147.556 C 147.871 150.471, 155.978 148.614, 155.992 143.823 C 156.003 140.274, 152.559 137.676, 144.493 135.144 C 140.944 134.030, 136.798 131.967, 135.280 130.559 C 133.762 129.152, 131.525 128, 130.307 128 C 127.088 128, 122.820 125.864, 120.356 123.020 C 118.463 120.835, 117.392 120.537, 111.354 120.520 C 104.898 120.501, 104.480 120.361, 104.163 118.114 C 103.977 116.801, 104.676 114.551, 105.716 113.114 C 108.423 109.371, 112 102.188, 112 100.496 C 112 99.702, 113.997 97.055, 116.439 94.614 C 123.103 87.949, 126.568 80.313, 127.569 70.086 C 128.094 64.721, 130.384 62.337, 135.821 61.493 C 148.928 59.459, 151.540 58.710, 153.723 56.354 C 156.420 53.443, 156.588 51.285, 154.364 48.110 C 152.901 46.021, 152.190 45.837, 147.614 46.366 C 144.801 46.691, 140.025 47.432, 137 48.013 C 133.975 48.593, 126.020 49.331, 119.323 49.653 L 107.146 50.237 104.468 47.559 C 101.664 44.755, 101.610 43.411, 104.057 37.410 C 105.144 34.746, 105.055 33.782, 103.409 30.410 C 101.694 26.898, 101.074 26.469, 97.309 26.195 C 93.800 25.940, 92.861 26.283, 91.538 28.301 M 84.246 62.421 C 78.606 63.624, 73.522 65.078, 72.948 65.652 C 71.743 66.857, 73.417 71.321, 76.243 74.439 C 77.209 75.505, 78 77.417, 78 78.689 C 78 79.960, 78.399 81, 78.886 81 C 79.373 81, 80.491 82.514, 81.369 84.365 C 83.239 88.306, 92.756 96, 95.761 96 C 103.600 96, 113.294 82.237, 115.652 67.759 C 116.245 64.118, 116.144 63.966, 111.880 62.031 C 106.170 59.440, 97.656 59.561, 84.246 62.421" stroke="none" fill="black" fill-rule="evenodd"/>
</svg>