<svg xmlns="http://www.w3.org/2000/svg" width="256" height="256" viewBox="0 0 256 256" version="1.1">
	<path d="M 63.409 22.972 C 60.981 23.954, 59.371 27.665, 58.649 33.943 C 57.931 40.194, 55.553 41.785, 48.194 40.938 C 40.828 40.090, 35.756 41.955, 33.660 46.282 C 31.846 50.029, 32.060 50.480, 36.818 52.908 C 42.366 55.739, 43.757 57.836, 43.512 63 C 43.163 70.377, 42.149 72.548, 37.947 74.910 C 34.300 76.959, 31 80.433, 31 82.223 C 31 82.650, 31.900 83.900, 33 85 C 35.588 87.588, 41.127 87.579, 46.859 84.978 C 52.413 82.458, 56.465 82.465, 59 85 C 61.549 87.549, 61.524 89.933, 58.895 94.976 C 56.403 99.759, 53.482 100.811, 47.295 99.156 C 40.957 97.461, 39.177 97.706, 36.452 100.646 C 33.231 104.122, 33.306 108.391, 36.675 113.252 C 39.258 116.979, 39.305 117.290, 38.050 122.306 C 37.335 125.163, 36.176 128.175, 35.474 129 C 34.773 129.825, 33.724 132.248, 33.143 134.384 C 32.306 137.462, 32.400 138.874, 33.596 141.185 C 35.689 145.232, 37.478 145.611, 41.537 142.865 C 49.905 137.204, 52.474 128.359, 48.157 120.076 C 46.971 117.800, 46 115.277, 46 114.469 C 46 113.661, 45.438 112.986, 44.750 112.969 C 42.257 112.907, 51.573 108.010, 54.194 108.005 C 55.676 108.002, 58.034 109.012, 59.434 110.250 C 61.919 112.446, 61.956 112.668, 60.962 119.481 C 60.401 123.321, 60.247 127.821, 60.619 129.481 C 60.991 131.142, 61.350 137.786, 61.417 144.247 C 61.535 155.645, 61.620 156.074, 64.280 158.735 C 68.160 162.614, 70.089 161.048, 72.104 152.384 C 73.287 147.297, 73.655 141.220, 73.506 129.243 C 73.394 120.309, 73.643 113, 74.058 113 C 74.473 113, 74.574 112.085, 74.281 110.967 C 73.698 108.735, 76.451 105, 78.680 105 C 79.433 105, 82.443 105.841, 85.368 106.869 C 89.859 108.447, 91.060 108.538, 93.087 107.453 C 97.613 105.031, 97.516 97.836, 92.926 95.462 C 91.253 94.597, 87.302 94, 83.250 94 C 79.255 94, 75.900 93.500, 75.200 92.800 C 73.550 91.150, 73.695 86.881, 75.488 84.321 C 77.542 81.388, 84.911 79.044, 89.950 79.720 C 94.555 80.338, 98 78.195, 98 74.713 C 98 71.759, 94.076 65.980, 91.373 64.952 C 89.376 64.192, 89 63.358, 89 59.685 C 89 55.971, 89.521 54.847, 92.500 52.136 C 96.898 48.135, 97.248 43.638, 93.478 39.571 C 91.302 37.223, 90.515 36.963, 87.728 37.670 C 78.170 40.096, 73.096 37.852, 73.032 31.173 C 73.010 28.857, 72.112 26.958, 70.077 24.923 C 66.937 21.783, 66.596 21.684, 63.409 22.972 M 130.916 31.361 C 129.494 32.103, 123.739 34.194, 118.125 36.009 C 103.199 40.833, 103.348 40.573, 103.734 61.074 C 103.904 70.108, 104.246 84.250, 104.494 92.500 C 105.036 110.478, 103.832 120.486, 100.730 123.787 L 98.552 126.106 96.526 120.803 C 93.750 113.536, 93.299 113, 89.964 113 C 86.059 113, 83.922 116.426, 83.774 122.925 C 83.675 127.269, 84.086 128.480, 86.519 131.019 C 88.092 132.662, 91.332 134.951, 93.719 136.106 C 96.610 137.506, 98.499 139.258, 99.375 141.354 C 100.098 143.084, 101.413 145.100, 102.297 145.833 C 109.624 151.909, 115.111 132.349, 115.433 99 C 115.555 86.470, 116.550 84, 121.476 84 C 123.349 84, 125.160 84.450, 125.500 85 C 125.840 85.550, 126.913 86, 127.885 86 C 128.856 86, 130.612 87.022, 131.785 88.272 L 133.919 90.543 131.509 94.787 C 128.853 99.463, 128.851 100.118, 131.418 121.500 C 132.144 127.550, 132.575 135.200, 132.374 138.500 C 131.682 149.904, 133.722 154.600, 138.822 153.341 C 144.255 152, 145.278 149.508, 144.507 139.500 C 144.125 134.550, 143.550 128.700, 143.228 126.500 C 142.594 122.160, 142.530 117.147, 142.940 104 C 143.086 99.310, 142.692 94.190, 142.062 92.578 C 140.469 88.505, 141.245 87.271, 146.199 86.006 C 156.964 83.255, 160.177 80.256, 157.998 74.994 C 157.315 73.347, 156.474 71.941, 156.129 71.869 C 155.783 71.798, 147.400 71.612, 137.500 71.458 C 115.874 71.120, 118.410 71.410, 116 69 C 114.337 67.337, 114 65.667, 114 59.089 C 114 51.615, 114.158 51.045, 116.856 48.775 C 118.622 47.288, 122.645 45.727, 127.404 44.682 C 134.953 43.023, 142.264 40, 143.478 38.035 C 144.177 36.904, 142.765 33.908, 140.435 31.578 C 138.505 29.647, 134.380 29.553, 130.916 31.361 M 59.380 50.772 C 55.788 53.700, 55.298 55.622, 56.314 62.799 C 57.313 69.850, 58.166 70.974, 63.424 72.159 C 68.726 73.355, 72.622 70.452, 73.488 64.662 C 74.997 54.573, 74.991 52.133, 73.451 50.593 C 71.224 48.367, 62.191 48.481, 59.380 50.772" stroke="none" fill="black" fill-rule="evenodd"/>
</svg>