<svg xmlns="http://www.w3.org/2000/svg" width="256" height="256" viewBox="0 0 256 256" version="1.1">
	<path d="M 80 28.669 C 78.625 28.910, 75.250 29.726, 72.500 30.483 C 69.750 31.240, 65.475 31.988, 63 32.147 C 57.495 32.499, 53.728 34.265, 50.918 37.811 C 48.736 40.565, 48.675 42.922, 50.468 55.215 C 51.699 63.647, 54 84.700, 54 87.522 C 54 92.391, 56.489 93.655, 67.610 94.432 C 86.578 95.756, 91.514 99.489, 87.923 109.791 C 86.670 113.386, 84.843 113.883, 77.119 112.733 C 73.965 112.263, 70.448 112.334, 68.619 112.905 C 66.904 113.440, 63.025 113.901, 60 113.930 C 56.975 113.959, 53.150 114.033, 51.500 114.095 C 49.850 114.157, 45.700 113.874, 42.277 113.467 C 36.075 112.730, 36.051 112.737, 34.936 115.614 C 34.068 117.856, 34.124 119.055, 35.189 120.986 C 37.709 125.553, 40.009 125.968, 63 126.007 C 90.662 126.055, 89.500 125.408, 89.500 140.763 C 89.500 149.608, 89.813 151.950, 91.179 153.318 C 93.573 155.717, 96.694 155.397, 98.552 152.560 C 100.416 149.717, 100.928 139.839, 99.316 137.847 C 98.716 137.106, 98.045 134.535, 97.825 132.134 C 97.221 125.543, 99.113 124.715, 116.923 123.770 C 124.940 123.345, 135.200 123.010, 139.722 123.025 C 150.852 123.062, 152.699 122.503, 153.222 118.940 C 153.456 117.349, 153.344 115.557, 152.975 114.960 C 152.606 114.362, 148.298 113.459, 143.402 112.954 C 129.768 111.548, 121.772 110.308, 118.782 109.138 C 116.668 108.310, 114.787 108.478, 110.328 109.890 C 103.686 111.993, 101.700 111.705, 98.976 108.242 C 94.123 102.073, 97.950 98.033, 111.500 95.023 C 123.250 92.413, 125.991 91.473, 131.937 88.015 C 136.984 85.079, 138.387 81.869, 137.481 75.334 C 137.107 72.638, 137.449 69.861, 138.451 67.463 C 139.303 65.424, 139.997 61.899, 139.995 59.628 C 139.992 57.358, 140.009 51.803, 140.033 47.284 C 140.081 37.911, 137.659 31.446, 133.738 30.482 C 126.532 28.709, 87.319 27.387, 80 28.669 M 101.820 41.472 C 101.644 41.625, 94.750 42.018, 86.500 42.345 C 78.250 42.673, 69.808 43.426, 67.741 44.020 C 63.178 45.330, 60.753 48.716, 61.181 53.179 C 61.493 56.425, 61.616 56.507, 66.665 56.799 C 69.506 56.964, 74.681 56.358, 78.165 55.453 C 83.234 54.135, 88.398 53.866, 104 54.104 C 114.725 54.268, 124.517 54.054, 125.760 53.630 C 127.535 53.024, 127.981 52.175, 127.837 49.679 C 127.540 44.535, 126.363 43.167, 121.747 42.599 C 116.119 41.906, 102.224 41.120, 101.820 41.472 M 88 67.057 C 65.716 68.290, 61 69.934, 61 76.464 C 61 82.825, 61.587 83.023, 82.041 83.553 C 93.974 83.862, 102.502 83.625, 106.028 82.885 C 109.038 82.255, 113.975 81.450, 117 81.096 C 123.733 80.310, 124.317 79.959, 126.483 75.394 C 128.200 71.776, 128.195 71.740, 125.585 69.128 C 123.112 66.654, 122.361 66.493, 112.730 66.377 C 107.103 66.309, 95.975 66.615, 88 67.057" stroke="none" fill="black" fill-rule="evenodd"/>
</svg>