<svg xmlns="http://www.w3.org/2000/svg" width="256" height="256" viewBox="0 0 256 256" version="1.1">
	<path d="M 106.315 27.062 C 103.109 28.273, 102.004 31.101, 101.969 38.184 C 101.942 43.814, 101.535 45.086, 98.219 49.896 C 96.174 52.864, 92.820 56.239, 90.766 57.396 L 87.031 59.500 83.131 55.250 C 79.398 51.182, 78.980 50.999, 73.366 50.985 C 65.650 50.965, 64.595 50.222, 65.377 45.365 C 67.288 33.508, 67.267 32.589, 65.026 29.750 C 63.777 28.169, 61.872 27, 60.542 27 C 56.108 27, 52.904 35.305, 54.732 42.059 C 56.286 47.797, 54.596 51.827, 49.703 54.048 C 47.391 55.097, 43.822 55.966, 41.770 55.978 C 37.081 56.006, 30.393 58.627, 29.398 60.828 C 26.889 66.374, 30.001 68.542, 39.149 67.621 C 43.003 67.233, 45.121 67.441, 45.814 68.276 C 47.495 70.302, 46.423 95.291, 44.174 106.500 C 43.070 112, 41.853 119.087, 41.469 122.250 C 41.084 125.412, 39.549 130.362, 38.057 133.250 C 34.034 141.037, 33.848 142.544, 36.555 145.465 C 39.401 148.535, 40.391 148.609, 43.053 145.947 C 47.657 141.343, 52.799 127.953, 55.513 113.500 C 57.978 100.371, 58.354 99.298, 61.556 96.250 C 65.572 92.428, 67.198 92.222, 69.961 95.189 C 72.390 97.796, 72.532 101.362, 70.487 108.397 C 69.391 112.165, 69.186 115.245, 69.744 119.551 C 70.717 127.058, 69.740 137.449, 67.635 142 C 66.744 143.925, 64.619 147.361, 62.912 149.636 C 60.369 153.025, 60 154.132, 60.874 155.764 C 63.255 160.213, 70.815 158.553, 75.372 152.580 C 79.874 146.676, 81.134 142.083, 82.017 128.346 C 82.510 120.689, 83.410 114.316, 84.172 113.096 C 86.027 110.126, 89.344 110.497, 92.923 114.077 C 95.993 117.147, 96 117.180, 96.100 128.827 C 96.155 135.247, 96.492 141.496, 96.850 142.714 C 98.227 147.404, 104.438 152.404, 112.111 155 C 118.592 157.193, 121.036 157.480, 132 157.334 C 142.012 157.201, 145.628 156.745, 150.167 155.043 C 160.704 151.093, 164.126 146.035, 159.436 141.345 C 156.445 138.354, 154.237 138.393, 147.745 141.552 C 143.133 143.795, 141.776 144.014, 136.500 143.366 C 133.200 142.960, 130.050 142.810, 129.500 143.033 C 128.950 143.255, 126.025 143.560, 123 143.710 C 119.975 143.861, 115.700 144.248, 113.500 144.569 L 109.500 145.155 107.758 140.214 C 106.366 136.270, 106.125 133.256, 106.559 125.260 C 107.005 117.033, 106.825 114.968, 105.551 113.694 C 103.487 111.630, 103.600 109.167, 105.935 105.339 C 108.069 101.839, 111.598 100.198, 113.309 101.909 C 114.253 102.853, 115.180 113.644, 115.031 121.965 C 115.007 123.321, 115.475 125.908, 116.071 127.715 C 117.313 131.477, 119.590 131.962, 122.646 129.115 C 124.344 127.533, 124.845 125.126, 125.767 114.107 C 126.371 106.890, 126.662 99.868, 126.415 98.505 C 125.894 95.634, 129.697 89.093, 132 88.897 C 134.713 88.667, 137.481 89.180, 138.639 90.127 C 139.984 91.229, 140.968 98.577, 141.165 109 C 141.267 114.386, 141.755 116.943, 142.898 118.072 C 146.860 121.988, 155.859 110.925, 154.511 103.795 C 154.169 101.983, 153.449 96.225, 152.913 91 C 151.779 79.959, 149.700 74.261, 146.622 73.760 C 145.455 73.570, 142.756 73.996, 140.624 74.707 C 133.217 77.178, 130.055 75.814, 128.556 69.500 C 127.073 63.253, 122.729 61.330, 118.115 64.878 C 115.807 66.653, 115.760 66.956, 116.668 74.333 C 117.649 82.317, 117.192 84.292, 113.957 86.023 C 110.793 87.716, 108.266 85.543, 104.987 78.310 C 102.478 72.778, 102.140 71.152, 102.914 68.350 C 103.423 66.507, 103.580 65, 103.264 65 C 102.948 65, 103.547 64.039, 104.595 62.863 C 107.604 59.489, 111.787 58.102, 115.700 59.183 C 118.157 59.861, 120.553 59.690, 124.446 58.559 C 127.395 57.701, 133.286 57, 137.538 57 C 146.817 57, 152.680 55.419, 154.671 52.379 C 156.244 49.979, 155.544 47.527, 152.587 45.072 C 150.803 43.592, 141.975 43.397, 126.897 44.506 C 118.721 45.107, 116.115 44.995, 115.509 44.015 C 115.077 43.316, 114.549 40.021, 114.335 36.692 C 113.825 28.749, 110.959 25.307, 106.315 27.062 M 69 64.613 C 60.400 66.465, 58 69.063, 58 76.521 C 58 80.949, 58.371 82.128, 60.049 83.026 C 62.133 84.141, 68.301 82.868, 70.450 80.879 C 71.598 79.817, 76.073 79.746, 77.600 80.765 C 79.475 82.017, 81 85.724, 81 89.030 C 81 98.986, 92.076 102.554, 96.490 94.020 C 97.320 92.414, 98 89.923, 98 88.486 C 98 84.667, 93.414 75.266, 91.210 74.567 C 88.246 73.626, 85.169 69.791, 84.736 66.500 C 84.368 63.705, 84.039 63.490, 79.921 63.357 C 77.489 63.278, 72.575 63.843, 69 64.613" stroke="none" fill="black" fill-rule="evenodd"/>
</svg>