<svg xmlns="http://www.w3.org/2000/svg" width="256" height="256" viewBox="0 0 256 256" version="1.1">
	<path d="M 52.329 25.918 C 49.740 26.612, 46 31.116, 46 33.540 C 46 36.812, 42.035 41.663, 37.216 44.286 C 28.202 49.192, 27.535 55.890, 36.139 55.099 C 38.538 54.878, 41.850 54.653, 43.500 54.599 L 46.500 54.500 46.295 60.371 C 46.029 68.007, 44.312 70, 38 70 C 32.717 70, 29.990 72.076, 30.015 76.079 C 30.037 79.478, 30.957 80.524, 35.290 82.075 C 38.134 83.092, 39.527 83.152, 40.867 82.315 C 41.864 81.693, 47.476 81.152, 53.576 81.090 C 59.584 81.030, 68.325 80.752, 73 80.472 C 77.675 80.192, 83.075 79.884, 85 79.787 C 90.485 79.512, 94.441 81.905, 94.811 85.723 C 95.220 89.948, 93.313 90.393, 81 88.947 C 75.775 88.333, 68.800 87.810, 65.500 87.785 C 59.542 87.739, 44.584 89.521, 43.069 90.457 C 42.634 90.726, 41.574 93.545, 40.713 96.723 C 39.315 101.882, 38.792 107.102, 37.525 128.500 C 37.330 131.800, 36.493 137.425, 35.667 141 C 33.329 151.108, 35.313 156.545, 40.479 154.191 C 42.135 153.437, 43.250 151.733, 44.009 148.794 C 44.620 146.433, 45.349 143.708, 45.630 142.739 C 46.516 139.689, 51.135 138.055, 57.122 138.673 C 60.596 139.032, 65.389 138.605, 70.393 137.492 C 76.986 136.025, 78.367 135.967, 79.112 137.124 C 80.071 138.615, 79.316 143.819, 77.881 145.607 C 76.343 147.523, 78.097 153.087, 80.597 154.226 C 83.465 155.533, 88.521 153.680, 90.501 150.597 C 91.941 148.354, 92.263 135.232, 91.447 112.060 C 91.031 100.239, 91.121 99.501, 93.251 97.233 C 95.185 95.174, 96.085 94.936, 99.813 95.495 C 102.935 95.963, 104.799 95.707, 106.532 94.571 C 110.671 91.859, 113.228 92.573, 116.195 97.269 C 118.978 101.675, 119.375 103.188, 120.516 113.722 C 121.300 120.963, 121.399 120.792, 109.077 133.525 C 100.199 142.700, 98.587 145.218, 99.434 148.593 C 100.601 153.242, 108.584 151.012, 115.198 144.189 C 120.064 139.169, 127.755 135.022, 131.022 135.656 C 132.409 135.926, 136.674 139.262, 140.499 143.070 C 147.929 150.468, 152.130 152.573, 157.465 151.573 C 165.324 150.098, 164.190 146.024, 154.107 139.501 C 150.394 137.098, 146.743 134.395, 145.994 133.493 C 145.246 132.592, 142.996 131.018, 140.993 129.997 C 137.838 128.387, 137.176 127.404, 136.029 122.621 C 134.751 117.294, 134.812 116.834, 137.784 109.302 C 139.478 105.011, 141.182 99.281, 141.572 96.569 C 141.962 93.857, 143.545 89.090, 145.090 85.977 C 146.635 82.863, 147.843 79.457, 147.773 78.407 C 147.704 77.358, 147.960 74.877, 148.342 72.894 C 148.915 69.920, 149.747 68.967, 153.087 67.461 C 159.322 64.649, 161.798 58.347, 158.250 54.320 C 155.630 51.348, 152.196 50.893, 145.518 52.637 C 139.784 54.133, 126.471 54.027, 123.944 52.465 C 122.720 51.709, 122.728 43.436, 123.957 39.151 C 126 32.027, 121.966 26.328, 116.608 28.769 C 113.876 30.014, 112.755 33.082, 111.044 44 C 109.335 54.906, 108.139 58.861, 105.863 61.137 C 104.750 62.250, 103.404 64.412, 102.870 65.942 C 101.473 69.950, 97.814 71.367, 93.509 69.568 C 90.590 68.349, 89.860 67.328, 88.457 62.501 C 86.923 57.224, 86.928 56.738, 88.524 54.974 C 89.462 53.937, 92.226 52.789, 94.665 52.423 C 97.104 52.057, 99.733 51.124, 100.507 50.350 C 103.268 47.589, 98.867 41.573, 93.326 40.533 C 86.565 39.265, 85.139 38.119, 85.499 34.246 C 85.745 31.605, 85.239 30.148, 83.458 28.367 C 78.650 23.559, 73.289 26.495, 73.174 34 C 73.135 36.501, 72.366 38.149, 70.477 39.773 C 67.492 42.341, 64.629 42.297, 60.547 39.623 C 58.148 38.051, 57.847 37.332, 58.333 34.335 C 58.918 30.733, 57.548 26.395, 55.615 25.723 C 55.002 25.510, 53.523 25.597, 52.329 25.918 M 60.493 54.007 C 58.531 56.176, 58.245 61.722, 59.934 64.877 C 61.004 66.876, 66.004 68.319, 68.517 67.355 C 70.250 66.690, 71.831 64.077, 73.030 59.894 C 74.876 53.458, 65.131 48.882, 60.493 54.007 M 120.235 68.765 C 117.442 71.558, 116.025 73.968, 115.600 76.644 C 113.771 88.178, 113.598 87.223, 118.425 92.261 C 124.067 98.149, 127.532 99.219, 130.183 95.893 C 133.179 92.134, 135.318 85.917, 137.542 74.500 C 137.971 72.300, 138.431 69.957, 138.566 69.294 C 138.989 67.203, 136.491 66.021, 130.277 65.371 C 124.267 64.743, 124.252 64.748, 120.235 68.765 M 59.084 99.133 C 53.119 100.122, 51.473 101.085, 50.702 104.033 C 50.129 106.222, 50.528 106.348, 57.072 106.050 C 60.423 105.898, 63.315 106.652, 67.907 108.877 C 73.117 111.400, 74.493 111.709, 76.087 110.713 C 78.334 109.310, 80.320 103.997, 79.447 101.722 C 78.127 98.284, 70.242 97.281, 59.084 99.133 M 72.820 115.182 C 72.287 118.816, 67.578 120.023, 60.712 118.285 C 55.498 116.965, 54.679 116.980, 52.462 118.433 C 49.359 120.466, 49.132 124.590, 52.071 125.523 C 53.210 125.884, 56.923 125.847, 60.321 125.440 C 63.719 125.034, 68.761 124.632, 71.525 124.549 C 74.288 124.465, 77.101 124.056, 77.775 123.639 C 79.083 122.831, 79.359 118.940, 78.370 115.250 C 77.544 112.171, 73.268 112.118, 72.820 115.182" stroke="none" fill="black" fill-rule="evenodd"/>
</svg>