<svg xmlns="http://www.w3.org/2000/svg" width="256" height="256" viewBox="0 0 256 256" version="1.1">
	<path d="M 103.510 30.171 C 101.354 32.733, 100.961 33.979, 101.464 36.660 C 101.806 38.485, 101.651 41.671, 101.118 43.739 C 98.291 54.717, 97.668 56.531, 95.893 58.930 C 94.832 60.367, 93.519 64.294, 92.978 67.657 C 91.773 75.137, 89.802 80.032, 86.605 83.481 L 84.180 86.098 82.149 80.670 C 80.268 75.641, 80.192 74.268, 81.113 61.983 C 82.534 43.016, 80.174 33.493, 74.226 34.190 C 69.618 34.729, 68.947 39.588, 68.605 74.919 C 68.257 110.812, 68.796 108.806, 58.939 110.920 C 52.019 112.404, 51.514 112.330, 50.064 109.620 C 48.810 107.276, 49.018 102.003, 51.612 70.500 C 52.330 61.777, 49.959 54.381, 45.689 52.026 C 43.060 50.576, 42.827 50.624, 41.021 52.996 C 38.512 56.290, 38.174 59.810, 37.411 90.500 C 36.793 115.412, 36.848 116.602, 38.739 118.931 C 40.936 121.639, 46.858 122.765, 59.691 122.916 C 63.722 122.963, 67.179 123.480, 67.557 124.093 C 67.929 124.694, 68.443 129.082, 68.700 133.843 C 69.690 152.192, 75.382 160.890, 81.123 152.828 L 83.382 149.655 81.631 139.306 C 80.668 133.614, 79.207 127.347, 78.385 125.379 C 76.332 120.465, 78.246 106.290, 82.730 93.200 L 84.203 88.901 87.352 91.488 C 91.314 94.745, 96.223 97, 99.349 97 C 102.232 97, 106.671 102.366, 108.729 108.340 C 109.492 110.553, 110.766 112.845, 111.561 113.432 C 112.357 114.019, 113.404 115.892, 113.889 117.593 C 114.648 120.255, 114.333 121.256, 111.635 124.772 C 109.911 127.018, 107.543 129.109, 106.373 129.417 C 105.203 129.725, 103.525 131.076, 102.644 132.421 C 101.763 133.765, 98.587 137.421, 95.585 140.544 C 92.584 143.668, 89.892 146.839, 89.603 147.591 C 89.301 148.378, 90.532 150.066, 92.502 151.569 C 95.678 153.992, 96.196 154.090, 99.684 152.939 C 101.911 152.204, 106.587 148.704, 111.158 144.349 C 121.779 134.233, 122.033 134.241, 138.422 145.250 C 145.738 150.165, 147.646 151, 151.556 151 C 156.695 151, 160 149.632, 160 147.505 C 160 143.778, 147.895 135.947, 138.479 133.584 C 137.116 133.242, 136 132.520, 136 131.981 C 136 131.441, 135.197 131, 134.216 131 C 131.710 131, 129 125.929, 129 121.241 C 129 118.123, 129.601 116.785, 131.852 114.895 C 135.434 111.886, 136.566 109.730, 137.845 103.478 C 139.915 93.358, 142.373 85.435, 144.161 83.115 C 145.453 81.440, 146 79.032, 146 75.022 L 146 69.314 150.750 66.921 C 156.426 64.060, 156.965 63.413, 156.985 59.430 C 157.003 55.827, 153.229 52, 149.659 52 C 148.380 52, 144.896 52.484, 141.917 53.076 C 138.504 53.755, 134.650 53.832, 131.500 53.287 C 128.527 52.772, 124.510 52.807, 121.592 53.374 C 117.191 54.229, 116.510 54.114, 115.009 52.259 C 113.635 50.563, 113.486 49.230, 114.182 44.845 C 116.237 31.880, 116.244 31.308, 114.366 29.114 C 111.557 25.834, 106.767 26.300, 103.510 30.171 M 110.429 64.462 C 105.670 67.140, 105.299 68.210, 104.570 81.389 C 104.068 90.481, 104.895 94, 107.535 94 C 108.341 94, 109 94.675, 109 95.500 C 109 96.325, 109.512 97, 110.138 97 C 110.764 97, 113.250 98.819, 115.662 101.042 C 119.987 105.029, 120.086 105.062, 122.816 103.450 C 126.542 101.249, 131.683 89.921, 132.589 81.918 C 133.038 77.944, 133.959 75.041, 135.146 73.854 C 136.166 72.834, 137 70.911, 137 69.579 C 137 67.658, 136.330 67.016, 133.750 66.464 C 131.963 66.082, 130.050 65.431, 129.500 65.018 C 128.950 64.605, 127.205 64.337, 125.622 64.422 C 124.039 64.508, 120.388 64.318, 117.509 64.001 C 114.581 63.679, 111.461 63.882, 110.429 64.462" stroke="none" fill="black" fill-rule="evenodd"/>
</svg>