<svg xmlns="http://www.w3.org/2000/svg" width="256" height="256" viewBox="0 0 256 256" version="1.1">
	<path d="M 115.469 25.273 C 113.682 26.810, 112.529 29.139, 111.908 32.464 C 110.132 41.968, 103.281 45.670, 89.294 44.683 C 78.822 43.944, 77.544 42.981, 77.389 35.714 C 77.231 28.302, 77.228 28.290, 74.811 26.039 C 71.911 23.336, 67.863 23.452, 65.174 26.314 C 62.605 29.049, 62.470 31.246, 64.514 37.041 C 65.347 39.402, 65.754 42.200, 65.418 43.258 C 64.491 46.178, 58.973 47.981, 51.547 47.790 C 45.960 47.647, 44.599 47.957, 42.764 49.791 C 40.658 51.897, 40.631 52.222, 41.852 60.731 C 42.545 65.554, 43.714 71.300, 44.452 73.500 C 45.189 75.700, 45.584 78.850, 45.329 80.500 C 44.529 85.679, 44.809 86.988, 47.684 91.532 C 51.070 96.885, 53.897 98.187, 61.615 97.950 C 70.517 97.677, 82.855 97.746, 112 98.234 C 124.952 98.451, 138.403 96.283, 142.356 93.341 C 146.452 90.294, 148.122 86.614, 147.415 82.193 C 147.031 79.790, 147.270 77.364, 148.033 75.939 C 149.367 73.446, 150.481 54.053, 149.512 50.193 C 148.744 47.131, 144.319 45.395, 135 44.499 C 130.875 44.102, 126.942 43.326, 126.260 42.775 C 125.004 41.758, 125.292 38.818, 127.126 33.934 C 128.861 29.317, 125.023 23, 120.484 23 C 119.179 23, 116.922 24.023, 115.469 25.273 M 120.250 54.220 C 117.284 57.396, 117.380 58.068, 121.500 63 C 125.565 67.866, 125.772 69.228, 122.887 72.113 C 121.218 73.782, 120.012 74.101, 117.141 73.635 C 111.254 72.680, 110.116 69.655, 112.539 61.399 C 113.428 58.368, 110.597 56, 106.084 56 C 100.384 56, 98.586 58.531, 99.438 65.354 C 99.896 69.013, 99.680 71.880, 98.778 74.142 C 98.041 75.989, 97.598 78.524, 97.792 79.775 C 98.445 83.974, 101.391 84.728, 116.657 84.598 C 128.982 84.494, 131.081 84.236, 132.881 82.607 C 135.377 80.349, 136.412 77.470, 135.343 75.759 C 134.910 75.067, 134.483 74.050, 134.393 73.500 C 133.723 69.385, 133.771 68.080, 134.709 64.874 C 136.856 57.538, 134.277 53.406, 126.927 52.410 C 123.109 51.893, 122.191 52.142, 120.250 54.220 M 59.750 57.080 C 56.503 58.971, 55.331 63.130, 55.470 72.266 C 55.634 83.123, 56.661 84.538, 64.285 84.417 C 67.153 84.372, 70.400 84.207, 71.500 84.051 C 72.600 83.895, 76.040 84.101, 79.145 84.509 C 84.530 85.217, 84.870 85.128, 86.543 82.575 C 88.094 80.207, 88.152 79.302, 87.045 74.688 C 86.077 70.654, 86.058 68.500, 86.958 65.155 C 87.934 61.530, 87.867 60.446, 86.538 58.417 C 83.439 53.688, 75 56.350, 75 62.057 C 75 63.676, 75.381 65, 75.847 65 C 77.544 65, 78.731 69.446, 77.773 72.209 C 75.895 77.623, 69.630 76.349, 67.008 70.020 C 65.842 67.205, 65.932 66.583, 67.888 63.938 C 69.557 61.680, 69.831 60.553, 69.061 59.114 C 67.411 56.031, 63.149 55.100, 59.750 57.080 M 85.500 103.124 C 83.850 103.601, 81.998 103.805, 81.385 103.578 C 80.772 103.352, 75.374 104, 69.389 105.019 C 60.349 106.558, 58.147 107.290, 56.377 109.348 C 54.355 111.699, 54.318 112.093, 55.648 117.162 C 56.419 120.098, 57.195 128.815, 57.374 136.534 C 57.820 155.829, 59.017 157.607, 70.790 156.458 C 75.331 156.015, 79.924 156.306, 85 157.357 C 92.817 158.977, 101.459 158.959, 121.293 157.281 C 131.037 156.457, 132.346 156.109, 134.758 153.696 C 137.163 151.291, 137.390 150.448, 137.029 145.262 C 136.573 138.718, 136.521 131.679, 136.902 128 C 137.044 126.625, 136.826 122.137, 136.416 118.028 C 135.565 109.474, 134.295 107.849, 127.013 105.995 C 124.546 105.366, 121.934 104.360, 121.210 103.759 C 120.486 103.158, 117.892 102.782, 115.447 102.923 C 108.292 103.336, 101.952 103.283, 95 102.753 C 91.425 102.481, 87.150 102.648, 85.500 103.124 M 76.106 114.993 C 71.598 115.690, 68.711 118.201, 69.221 120.981 C 69.374 121.816, 71.190 123.326, 73.255 124.335 C 76.702 126.019, 77.904 126.070, 87.944 124.962 C 94.689 124.217, 101.105 124.067, 104.689 124.571 C 112.522 125.672, 116.025 125.320, 119 123.135 C 122.981 120.211, 122.734 117.614, 118.297 115.755 C 115.301 114.500, 110.913 114.180, 97.500 114.239 C 88.150 114.280, 78.523 114.619, 76.106 114.993 M 88 134.952 C 70.873 135.521, 67 136.430, 67 139.883 C 67 141.813, 72.163 144.565, 77.500 145.481 C 79.150 145.764, 87.716 146.289, 96.535 146.646 C 108.339 147.125, 113.616 146.961, 116.535 146.022 C 123.893 143.656, 127.264 138.831, 123.712 135.750 C 121.524 133.852, 121.300 133.848, 88 134.952" stroke="none" fill="black" fill-rule="evenodd"/>
</svg>