<svg xmlns="http://www.w3.org/2000/svg" width="256" height="256" viewBox="0 0 256 256" version="1.1">
	<path d="M 98.650 26.401 C 80.591 27.775, 82.172 26.835, 77.885 38.741 L 75.270 46.004 77.135 51.657 C 78.161 54.766, 79 57.920, 79 58.664 C 79 59.409, 80.311 61.390, 81.914 63.067 C 84.990 66.286, 84.997 66.955, 82.037 74.500 C 81.389 76.150, 80.935 77.725, 81.028 78 C 82.534 82.456, 87.441 84.522, 91.509 82.411 C 96.044 80.058, 102 80.817, 102 83.749 C 102 84.593, 100.660 86.564, 99.023 88.129 C 96.281 90.749, 95.507 90.956, 89.237 90.746 C 83.489 90.554, 81.984 90.868, 79.579 92.759 C 76.169 95.442, 72.409 95.661, 71.174 93.250 C 70.682 92.287, 70.421 85.650, 70.595 78.500 C 70.769 71.350, 70.463 63.150, 69.916 60.278 C 69.115 56.081, 69.222 54.472, 70.460 52.078 C 72.535 48.065, 72.399 45.284, 70.066 44.035 C 64.912 41.277, 59.478 45.120, 58.099 52.498 C 57.537 55.508, 56.341 58.115, 55.040 59.169 C 53.042 60.787, 52.778 60.790, 50.952 59.227 C 49.655 58.117, 49 56.287, 49 53.778 L 49 50 43.500 50 C 40.292 50, 38 50.442, 38 51.060 C 38 51.643, 36.507 54.075, 34.683 56.465 C 30.060 62.519, 28.270 70.405, 29.819 77.901 C 30.468 81.046, 31 87.116, 31 91.388 C 31 104.972, 33.011 123.221, 34.923 127 C 37.325 131.744, 42.117 134.543, 45.102 132.946 C 46.314 132.297, 51.399 131.706, 56.403 131.633 C 64.240 131.518, 66.224 131.119, 70.732 128.750 C 74.996 126.508, 77.260 126, 82.982 126 C 93.489 126, 94.934 128.111, 95.359 144.077 C 95.566 151.873, 95.717 152.358, 98.780 155.095 C 100.543 156.670, 103.226 158.205, 104.742 158.507 C 106.259 158.809, 109.835 159.782, 112.690 160.670 C 117.092 162.039, 118.837 162.103, 124.190 161.090 C 135.259 158.995, 142.509 156.143, 146.761 152.210 C 152.240 147.142, 152.945 145.524, 151.502 141.328 C 150.248 137.681, 151.447 129, 153.204 129 C 154.199 129, 152.324 125.181, 150.368 123.226 C 148.781 121.638, 146.689 114.313, 147.464 113.058 C 149.854 109.190, 131.990 104.794, 126.287 107.846 C 123.115 109.544, 119 109.315, 119 107.441 C 119 106.523, 118.486 106.142, 117.750 106.515 C 117.063 106.863, 117.400 106.389, 118.500 105.462 C 123.628 101.137, 129.180 99.617, 140.175 99.530 C 149.139 99.459, 151.183 99.144, 152.925 97.568 C 154.066 96.535, 155 94.930, 155 94 C 155 91.901, 151.909 89, 149.671 89 C 146.747 89, 147.754 84.672, 151.500 81.139 C 153.425 79.323, 155.070 76.862, 155.157 75.669 C 155.243 74.476, 155.401 72.262, 155.507 70.750 C 155.650 68.728, 154.814 67.241, 152.350 65.136 C 149.011 62.284, 149.005 62.264, 150.857 59.887 C 155.112 54.427, 156.240 50.766, 156.371 41.988 C 156.516 32.289, 155.254 28.719, 151.116 27.123 C 146.941 25.513, 115.937 25.086, 98.650 26.401 M 134.250 38.960 C 128.609 41.538, 128.624 43.715, 134.308 47.334 C 140.531 51.297, 146.426 46.413, 142.933 40.189 C 141.018 36.778, 139.497 36.562, 134.250 38.960 M 93.171 39.750 C 89.390 42.976, 90.309 50, 94.511 50 C 96.238 50, 97.586 48.839, 99.446 45.750 L 102.006 41.500 99.892 39.750 C 98.730 38.788, 97.203 38, 96.500 38 C 95.797 38, 94.299 38.788, 93.171 39.750 M 112.250 39.648 C 108.457 41.517, 108.239 42.763, 111.073 46.365 C 113.611 49.593, 116.009 49.714, 118.677 46.750 C 122.026 43.029, 122.297 41.986, 120.443 39.937 C 118.327 37.599, 116.535 37.535, 112.250 39.648 M 89.620 61.875 L 86.866 64.749 89.568 66.875 C 92.442 69.135, 93.779 69.428, 95.687 68.214 C 97.294 67.193, 99.203 61.972, 98.572 60.328 C 97.652 57.929, 92.556 58.810, 89.620 61.875 M 112.089 60.311 C 111.340 61.060, 111.511 61.907, 112.669 63.186 C 113.571 64.184, 113.915 65, 113.432 65 C 111.582 65, 117.627 68.481, 120 68.782 C 121.375 68.957, 124.975 70.765, 128 72.800 C 131.025 74.835, 134.358 76.849, 135.408 77.276 C 138.119 78.379, 141.707 74.691, 142.503 69.983 C 142.856 67.894, 143.773 65.355, 144.541 64.342 C 146.379 61.915, 146.338 61.360, 144.250 60.460 C 141.404 59.233, 113.297 59.103, 112.089 60.311 M 44.615 69.465 C 41.830 73.715, 43.013 83.300, 46.487 84.633 C 51.412 86.523, 59.020 80.129, 58.968 74.144 C 58.920 68.634, 57.156 67, 51.255 67 C 47.018 67, 45.977 67.386, 44.615 69.465 M 111.035 82.458 C 110.056 83.638, 110.310 84.401, 112.367 86.458 C 115.386 89.477, 120.958 89.899, 123.552 87.305 C 125.146 85.711, 125.087 85.471, 122.568 83.305 C 119.460 80.632, 112.947 80.153, 111.035 82.458 M 45.389 90.714 C 43.948 91.734, 42.673 106.639, 43.536 112.389 C 44.441 118.429, 47.010 121, 52.138 121 C 57.880 121, 61.475 117.066, 61.762 110.468 C 61.877 107.829, 61.580 105.182, 61.101 104.585 C 60.622 103.988, 59.934 102.109, 59.571 100.409 C 58.558 95.666, 54.090 91.004, 50 90.424 C 48.075 90.151, 46 90.281, 45.389 90.714 M 91 102.648 C 89.237 103.672, 86.475 103.974, 81.625 103.674 C 75.771 103.312, 74.458 103.542, 72.782 105.218 C 71.218 106.782, 70.953 107.940, 71.496 110.844 C 72.871 118.202, 73.741 118.251, 88.409 111.800 C 99.029 107.129, 101.249 105.210, 99.070 102.584 C 97.478 100.666, 94.371 100.691, 91 102.648 M 106.905 119.285 C 102.503 122.252, 102.116 124.492, 105.688 126.337 C 109.720 128.419, 129.439 127.256, 133.328 124.706 C 134.833 123.719, 135.805 122.494, 135.490 121.983 C 134.408 120.233, 121.792 117, 116.043 117 C 111.713 117, 109.460 117.563, 106.905 119.285 M 107.035 137.934 C 105.623 140.573, 105.732 144.877, 107.250 146.384 C 108.816 147.939, 126.228 148.361, 130.592 146.949 C 134.978 145.531, 137.888 141.929, 136.870 139.179 C 136.185 137.326, 135.292 137, 130.898 137 C 128.057 137, 124.024 137.512, 121.937 138.137 C 118.830 139.068, 117.400 138.977, 114.051 137.637 C 108.856 135.558, 108.294 135.582, 107.035 137.934" stroke="none" fill="black" fill-rule="evenodd"/>
</svg>