<svg xmlns="http://www.w3.org/2000/svg" width="256" height="256" viewBox="0 0 256 256" version="1.1">
	<path d="M 81.365 26.671 C 76.489 27.316, 70.928 28.328, 69.007 28.921 C 67.085 29.515, 63.855 30, 61.828 30 C 58.991 30, 57.290 30.804, 54.437 33.495 L 50.732 36.989 51.345 46.245 C 51.682 51.335, 52.217 56.406, 52.534 57.514 C 52.851 58.622, 52.707 60.619, 52.214 61.951 C 50.944 65.384, 53.613 75.288, 56.552 78.049 C 58.841 80.199, 59.504 80.252, 84.199 80.263 C 109.844 80.275, 121.944 79.207, 129.243 76.286 C 131.309 75.459, 133 74.173, 133 73.427 C 133 72.681, 133.848 71.616, 134.885 71.062 C 135.922 70.507, 137.055 68.916, 137.404 67.526 C 137.753 66.137, 138.447 65, 138.947 65 C 139.447 65, 139.609 62.613, 139.308 59.695 C 139.007 56.777, 139.278 50.501, 139.910 45.748 C 140.985 37.674, 140.920 36.808, 138.925 32.563 C 137.183 28.859, 136.117 27.844, 133.145 27.065 C 127.585 25.608, 91.488 25.334, 81.365 26.671 M 80.500 40.254 C 66.394 41.116, 62 42.350, 62 45.452 C 62 46.225, 62.708 47.565, 63.572 48.429 C 65.328 50.185, 68.571 49.754, 73.500 47.110 C 76.013 45.761, 80.448 45.491, 100.820 45.445 C 120.844 45.401, 125.297 45.137, 126.029 43.954 C 128.966 39.200, 115.569 38.111, 80.500 40.254 M 94 58.050 C 88.775 58.449, 80.809 58.827, 76.297 58.888 C 66.720 59.019, 62.843 60.366, 63.263 63.416 C 63.843 67.617, 64.946 68.263, 70.378 67.577 C 79.711 66.398, 82.254 65.775, 80.968 64.980 C 78.883 63.692, 86.613 62.970, 103.500 62.878 C 112.300 62.830, 121.047 62.325, 122.937 61.756 L 126.374 60.721 124.076 58.861 C 121.555 56.819, 113.084 56.591, 94 58.050 M 84 86.670 C 57.919 88.398, 49.374 89.445, 47.300 91.166 C 45.208 92.902, 45.659 97, 47.941 97 C 49.009 97, 50.134 97.408, 50.443 97.907 C 50.751 98.406, 57.615 98.874, 65.696 98.946 C 80.139 99.075, 83 99.671, 83 102.551 C 83 105.296, 79.883 107, 74.863 107 C 72.116 107, 68.886 107.535, 67.684 108.190 C 65.315 109.480, 53.379 111.628, 43 112.632 C 39.425 112.977, 35.938 113.707, 35.250 114.253 C 33.887 115.334, 33.590 119.840, 34.765 121.600 C 36.042 123.513, 40.091 125.179, 41.828 124.508 C 42.748 124.152, 48.397 123.462, 54.383 122.973 C 63.467 122.231, 65.864 122.344, 68.883 123.654 C 70.872 124.517, 71.938 125.436, 71.250 125.695 C 70.563 125.954, 70 127.626, 70 129.409 C 70 133.386, 66.503 137, 62.653 137 C 58.740 137, 53.110 139.591, 50.890 142.413 C 49.837 143.751, 47.631 145.142, 45.987 145.503 C 41.797 146.423, 40.772 150.560, 44.107 153.093 C 48.015 156.061, 50.071 155.812, 59.025 151.289 C 69.143 146.178, 79.209 138.323, 80.913 134.209 C 82.505 130.366, 85.714 129, 93.146 129 C 98.506 129, 99.500 129.325, 101.849 131.842 C 103.307 133.404, 105.143 135.887, 105.928 137.359 C 107.919 141.089, 112.815 144.571, 117.218 145.388 C 119.263 145.768, 121.513 146.653, 122.218 147.356 C 123.721 148.854, 139.606 153, 143.842 153 C 148.151 153, 153.725 150.350, 155.675 147.374 C 157.296 144.899, 157.295 144.689, 155.646 143.483 C 154.687 142.782, 150.887 141.645, 147.201 140.957 C 143.515 140.269, 138.756 139.097, 136.624 138.353 C 134.493 137.609, 130.417 137, 127.567 137 C 123.436 137, 121.738 136.464, 119.193 134.355 C 115.747 131.500, 115.014 129, 117.622 129 C 118.951 129, 119.020 128.729, 118 127.500 C 116.598 125.810, 108 125.380, 108 127 C 108 127.550, 107.100 128, 106 128 C 104.900 128, 104 127.550, 104 127 C 104 126.450, 102.623 126, 100.941 126 C 99.156 126, 98.139 126.417, 98.500 127 C 98.840 127.550, 98.165 128, 97 128 C 95.835 128, 95.139 127.584, 95.453 127.076 C 95.767 126.567, 95.356 126.005, 94.539 125.826 C 93.493 125.597, 93.328 125.060, 93.980 124.016 C 94.664 122.922, 97.217 122.466, 103.704 122.279 C 130.013 121.524, 146.745 120.842, 148.680 120.445 C 153.257 119.505, 155.724 114.566, 152.250 113.298 C 151.287 112.947, 149.427 111.836, 148.115 110.830 C 146.485 109.579, 144.028 109, 140.354 109 C 137.398 109, 130.596 108.285, 125.239 107.411 C 119.447 106.467, 113.474 106.082, 110.500 106.461 C 97.980 108.060, 95.689 107.548, 96.183 103.257 C 96.596 99.662, 100.576 98.330, 113.104 97.597 C 137.789 96.153, 142.658 94.812, 139.514 90.323 C 136.352 85.809, 116.602 84.509, 84 86.670" stroke="none" fill="black" fill-rule="evenodd"/>
</svg>