<svg xmlns="http://www.w3.org/2000/svg" width="256" height="256" viewBox="0 0 256 256" version="1.1">
	<path d="M 105.492 25.192 C 103.286 27.813, 102.910 29.035, 103.388 32.022 C 104.302 37.740, 102.789 38.862, 92.500 40.088 C 81.146 41.441, 78.497 42.460, 76.055 46.411 C 74.327 49.207, 74.204 50.374, 75.025 56.173 C 76.296 65.145, 77.478 67.832, 80.730 69.133 C 82.253 69.743, 86.533 71.571, 90.240 73.195 C 96.979 76.147, 96.981 76.147, 102.525 74.536 C 106.670 73.331, 111.757 72.970, 122.665 73.106 C 136.541 73.280, 137.512 73.162, 142.380 70.714 C 145.196 69.298, 149.363 67.654, 151.640 67.062 C 157.166 65.625, 159.258 62.274, 160.106 53.500 C 160.848 45.821, 159.548 40.889, 156.335 39.192 C 155.326 38.659, 147.218 38.045, 138.318 37.828 C 120.677 37.398, 118.665 36.763, 118.229 31.493 C 117.912 27.669, 116.308 25.211, 113.020 23.510 C 109.022 21.443, 108.560 21.546, 105.492 25.192 M 122 49.505 C 121.175 49.694, 114.260 50.422, 106.634 51.121 C 91.654 52.496, 88 53.933, 88 58.450 C 88 62.272, 90.309 63.411, 95.439 62.120 C 97.885 61.504, 102.079 61, 104.759 61 C 107.440 61, 112.269 60.513, 115.492 59.917 C 120.745 58.946, 122.421 59.117, 131.677 61.570 C 141.630 64.208, 142.074 64.243, 143.982 62.516 C 146.398 60.330, 147.657 54.497, 146.114 52.637 C 145.456 51.845, 141.832 51.047, 137.251 50.686 C 132.988 50.351, 128.150 49.870, 126.500 49.619 C 124.850 49.367, 122.825 49.316, 122 49.505 M 37.857 57.392 C 36.403 58.673, 33.973 61.595, 32.457 63.886 C 29.288 68.674, 29.362 66.949, 30.877 100.851 C 31.777 121.016, 32.200 124.782, 33.975 128.447 C 35.105 130.782, 37.035 133.127, 38.265 133.659 C 39.494 134.191, 45.296 134.564, 51.158 134.488 C 62.914 134.336, 66.167 133.136, 68.200 128.198 C 68.908 126.477, 69.402 114.631, 69.563 95.500 C 69.849 61.476, 69.608 59.988, 63.377 57.384 C 59.989 55.969, 59.359 55.985, 55.809 57.586 C 52.037 59.287, 51.837 59.276, 48.082 57.166 C 43.215 54.431, 41.166 54.476, 37.857 57.392 M 47.303 70.197 C 44.804 71.404, 43 75.756, 43 80.577 C 43 82.927, 43.746 84.441, 45.635 85.927 C 49.233 88.758, 50.525 88.557, 54.677 84.525 C 57.567 81.718, 58.276 80.263, 58.362 76.957 C 58.529 70.617, 53.188 67.353, 47.303 70.197 M 97.359 80.506 C 97.064 81.275, 95.342 82.392, 93.532 82.989 C 89.793 84.223, 88.097 85.892, 85.097 91.288 C 81.568 97.636, 80.708 103.484, 82.431 109.411 C 83.255 112.245, 84.385 118.576, 84.942 123.482 C 86.424 136.519, 86.272 136.422, 105.733 136.823 C 122.881 137.177, 129.241 136.094, 138.133 131.305 C 143.814 128.245, 145.194 125.510, 145.601 116.500 C 145.775 112.650, 146.225 107.475, 146.601 105 C 147.836 96.864, 147.643 95.883, 143.788 90.715 C 141.704 87.923, 140 85.339, 140 84.972 C 140 84.606, 139.134 83.308, 138.076 82.087 C 135.846 79.517, 134.534 79.405, 116.786 80.265 C 109.794 80.604, 102.682 80.483, 100.984 79.995 C 98.644 79.324, 97.765 79.448, 97.359 80.506 M 48.190 92.563 C 43.671 97.673, 41.523 113.085, 44.466 119.286 C 47.282 125.222, 53.051 125.569, 56.341 120 C 60.353 113.209, 58.153 94.387, 53.137 92.587 C 52.237 92.263, 51.050 91.792, 50.500 91.540 C 49.950 91.288, 48.910 91.748, 48.190 92.563 M 112.504 93.196 C 105.357 94.174, 99.357 95.430, 99.171 95.987 C 98.985 96.544, 98.248 97, 97.533 97 C 96.818 97, 95.989 97.933, 95.691 99.074 C 94.934 101.967, 98.486 105.396, 101.342 104.532 C 102.529 104.173, 108.675 103.657, 115 103.385 C 121.325 103.112, 127.500 102.684, 128.721 102.433 C 131.687 101.823, 133.084 98.961, 132.140 95.429 C 131.067 91.418, 128.025 91.072, 112.504 93.196 M 108.666 115.933 C 99.651 116.405, 97.603 116.814, 96.470 118.367 C 95.309 119.959, 95.340 120.589, 96.677 122.629 C 98.715 125.740, 102.564 126.654, 106.426 124.945 C 108.117 124.196, 113.275 123.486, 117.889 123.366 C 128.380 123.092, 130.648 122.526, 132.098 119.817 C 133.053 118.033, 132.938 117.428, 131.435 116.329 C 129.566 114.962, 127.804 114.932, 108.666 115.933 M 80.272 142.351 C 72.585 144.441, 70.058 149.004, 74.595 152.606 C 76.798 154.354, 91.005 155.013, 125.819 154.982 L 158.138 154.953 160.558 152.533 C 165.915 147.176, 160.370 143.711, 144.551 142.532 C 128.531 141.337, 84.457 141.213, 80.272 142.351" stroke="none" fill="black" fill-rule="evenodd"/>
</svg>