<svg xmlns="http://www.w3.org/2000/svg" width="256" height="256" viewBox="0 0 256 256" version="1.1">
	<path d="M 129 26.260 C 125.975 26.736, 120.995 27.773, 117.934 28.563 C 114.873 29.353, 110.792 30, 108.866 30 C 106.939 30, 103.144 30.643, 100.432 31.429 C 97.719 32.216, 92.802 33.181, 89.504 33.575 C 84.586 34.163, 82.923 34.877, 80.254 37.546 C 76.378 41.422, 76.045 45.298, 79.022 51.859 C 81.425 57.154, 81.530 62.087, 79.377 68.407 C 77.064 75.195, 78.484 77.600, 85.181 78.243 C 87.986 78.513, 90.879 79.461, 91.825 80.422 C 93.393 82.013, 93.377 82.214, 91.576 83.548 C 90.518 84.333, 88.043 85.227, 86.076 85.534 C 84.109 85.842, 80.300 86.752, 77.612 87.555 C 71.631 89.341, 69.885 88.313, 70.051 83.101 C 70.114 81.121, 69.860 75.225, 69.485 70 C 68.964 62.744, 68.295 59.734, 66.652 57.257 C 64.143 53.476, 62.018 53.207, 57.364 56.084 C 54.302 57.977, 53.328 58.078, 46.746 57.192 C 38.054 56.021, 34.832 57.339, 31.191 63.556 C 29.057 67.200, 28.927 68.261, 29.485 77.500 C 29.817 83, 30.309 92.225, 30.580 98 C 31.392 115.351, 32.911 127.041, 34.758 130.168 C 36.862 133.729, 39.661 134.528, 45.804 133.321 C 48.387 132.813, 51.625 132.714, 53 133.099 C 57.910 134.477, 64.702 134.062, 66.919 132.250 C 68.848 130.674, 69.102 129.274, 69.489 118.137 C 70.050 101.981, 70.364 101.488, 80.609 100.713 C 88.678 100.103, 92 100.950, 92 103.617 C 92 104.468, 90.815 108.615, 89.367 112.832 C 87.079 119.495, 84.501 123.837, 79.188 129.982 C 76.622 132.950, 73.016 139.089, 72.402 141.535 C 72.059 142.901, 71.378 144.266, 70.889 144.568 C 68.334 146.147, 71.505 150.898, 75.160 150.968 C 78.162 151.026, 86.409 143.479, 89.343 137.989 C 92.255 132.540, 95.505 129.092, 97.784 129.033 C 99.898 128.978, 105 134.894, 105 137.400 C 105 140.133, 101.464 145, 99.477 145 C 95.674 145, 95.734 153.466, 99.549 155.204 C 101.350 156.025, 102.786 155.808, 106.174 154.202 C 116.264 149.420, 118.632 148.740, 125 148.794 C 129.242 148.830, 134.106 149.742, 139 151.418 C 148.887 154.803, 154.276 154.815, 157.633 151.458 C 159.669 149.422, 159.938 148.630, 158.985 147.482 C 157.033 145.130, 147.372 141, 143.812 140.996 C 139.459 140.991, 134 137.638, 134 134.969 C 134 133.836, 135.144 131.765, 136.543 130.366 C 138.181 128.728, 139.229 126.395, 139.485 123.813 C 139.705 121.607, 140.143 118.610, 140.459 117.151 C 141.739 111.247, 141.750 110.378, 140.565 108.758 C 138.061 105.333, 130.326 103, 121.476 103 C 116.879 103, 112.840 103.450, 112.500 104 C 112.160 104.550, 109.884 105, 107.441 105 C 103.684 105, 103 104.696, 103 103.023 C 103 98.296, 112.595 96.457, 134 97.081 C 151.386 97.587, 151.081 97.619, 153.102 95.122 C 154.954 92.835, 154.952 92.741, 152.977 89.968 C 149.516 85.107, 141.986 83.728, 118.086 83.578 C 109.102 83.522, 105.556 83.155, 105.252 82.250 C 105.022 81.563, 105.321 81, 105.917 81 C 106.512 81, 107 80.341, 107 79.535 C 107 76.944, 110.837 75.898, 121.285 75.644 C 129.168 75.452, 132.508 74.921, 135.915 73.318 C 139.907 71.438, 140.649 71.373, 143.674 72.637 C 146.619 73.868, 147.315 73.840, 149.509 72.402 C 154.075 69.410, 151.747 65, 145.601 65 C 141.701 65, 139.877 59.298, 143.043 57 C 143.421 56.725, 144.647 54.693, 145.766 52.484 C 147.636 48.796, 147.678 48.234, 146.291 45.587 C 145.233 43.566, 144.969 41.289, 145.410 37.968 C 146.781 27.635, 141.984 24.213, 129 26.260 M 121.542 40.729 C 116.110 42.109, 113.202 46.802, 116.027 49.627 C 116.591 50.191, 117.342 53.089, 117.694 56.066 C 118.480 62.699, 120.094 64.748, 122.955 62.744 C 126.107 60.536, 128.683 56.759, 129.459 53.206 C 130.164 49.978, 134.159 45, 136.045 45 C 136.570 45, 136.888 44.438, 136.750 43.750 C 136.216 41.078, 127.210 39.290, 121.542 40.729 M 92.547 46.288 C 91.211 48.327, 91.221 49.169, 92.638 54.038 C 95.792 64.870, 98.542 67.124, 103.424 62.879 C 105.716 60.887, 106 59.895, 106 53.901 C 106 44.355, 105.764 44, 99.416 44 C 94.924 44, 93.801 44.374, 92.547 46.288 M 46.012 70.789 C 43.383 72.918, 42.160 80.562, 43.922 83.854 C 46.335 88.363, 54.341 85.420, 56.978 79.053 C 58.625 75.076, 57.651 71.618, 54.477 70.171 C 50.892 68.538, 48.584 68.707, 46.012 70.789 M 45.254 95.250 C 42.411 101.154, 41.794 112.699, 44.011 118.530 C 45.399 122.180, 49.195 124.256, 52.313 123.071 C 55.995 121.671, 57.710 118.406, 58.498 111.296 C 59.439 102.809, 58.070 99.173, 52.647 95.750 C 47.368 92.418, 46.642 92.369, 45.254 95.250 M 105.198 116.327 C 102.823 117.384, 99.510 122.934, 100.640 123.963 C 101.113 124.393, 106.042 125.004, 111.593 125.321 C 121.176 125.868, 121.872 125.771, 125.343 123.413 C 129.483 120.600, 130.085 117.617, 126.750 116.438 C 123.732 115.371, 107.532 115.288, 105.198 116.327" stroke="none" fill="black" fill-rule="evenodd"/>
</svg>