<svg xmlns="http://www.w3.org/2000/svg" width="256" height="256" viewBox="0 0 256 256" version="1.1">
	<path d="M 67.553 28.115 C 57.299 29.625, 54.123 30.476, 52.281 32.206 C 49.228 35.074, 48.241 39.217, 49.130 45.436 C 49.528 48.221, 49.887 54.902, 49.927 60.282 C 49.999 69.983, 51.416 75.903, 54.055 77.534 C 54.747 77.962, 57.366 78.281, 59.875 78.243 C 62.384 78.205, 65.666 78.810, 67.168 79.587 C 68.671 80.364, 71.386 81.006, 73.200 81.014 C 77.962 81.033, 80.775 81.971, 81.465 83.769 C 82.217 85.730, 80.932 86.555, 74 88.562 C 70.975 89.438, 67.012 91.020, 65.193 92.077 C 63.374 93.135, 60.786 94, 59.443 94 C 56.763 94, 53 97.171, 53 99.429 C 53 103.155, 60.108 105.766, 61.362 102.500 C 62.028 100.764, 65.270 100.539, 68.066 102.035 C 70.519 103.348, 70.528 106.623, 68.088 110.623 C 66.003 114.043, 64.148 114.268, 57.593 111.897 C 54.749 110.869, 53.308 110.849, 50.679 111.799 C 48.852 112.460, 44.633 113, 41.301 113 C 34.357 113, 33.010 114.034, 33.739 118.807 C 34.407 123.185, 37.822 125.349, 43.815 125.192 C 46.392 125.125, 50.750 125.497, 53.500 126.020 C 56.250 126.542, 60.188 127.068, 62.250 127.189 C 64.313 127.310, 66 127.625, 66 127.889 C 66 129.015, 61.763 137.001, 61.161 137.008 C 60.797 137.013, 58.088 139.276, 55.141 142.037 C 49.947 146.903, 49.820 147.151, 51.017 150.042 C 53.107 155.087, 56.113 154.909, 62.652 149.351 C 65.791 146.683, 69.291 143.572, 70.430 142.438 C 74.755 138.130, 76.833 130.574, 74.116 129.033 C 72.670 128.212, 72.710 127.956, 74.500 126.591 C 79.899 122.475, 81.969 122.121, 95 123.085 C 112.605 124.388, 113.595 124.622, 116.047 128.066 C 117.860 130.612, 118.015 131.519, 117.088 134.177 C 116.490 135.894, 116 138.889, 116 140.833 C 116 145.313, 119.495 152.635, 121.938 153.274 C 125.255 154.141, 128.793 152.897, 129.396 150.651 C 130.496 146.551, 129.992 140.434, 128.364 138.109 C 126.365 135.255, 126.219 128.353, 128.116 126.455 C 129.010 125.561, 133.499 124.755, 140.705 124.195 C 152.307 123.294, 154.497 122.454, 156.076 118.300 C 157.226 115.276, 156.526 113.742, 153.064 111.697 C 149.972 109.870, 143.263 109.552, 136.287 110.902 C 129.380 112.239, 127.705 109.709, 126.521 96.140 C 126.172 92.139, 125.412 90.140, 123.526 88.254 C 122.137 86.864, 121 85.350, 121 84.889 C 121 83.512, 126.686 81, 129.804 81 C 133.848 81, 138 76.946, 138 72.998 C 138 71.295, 138.714 68.519, 139.587 66.831 C 140.568 64.934, 141.362 60.085, 141.666 54.131 C 141.937 48.834, 142.606 43.312, 143.154 41.861 C 144.370 38.642, 141.357 31.240, 138.001 29.198 C 132.023 25.561, 89.350 24.904, 67.553 28.115 M 82.655 40.041 C 63.217 40.589, 62.773 40.649, 61.011 42.986 C 59.554 44.917, 59.422 45.833, 60.318 47.799 C 61.325 50.008, 61.855 50.177, 66.159 49.668 C 68.762 49.359, 72.365 48.345, 74.166 47.414 C 78.968 44.931, 104.198 44.306, 113.411 46.443 C 124.910 49.110, 129 48.301, 129 43.361 C 129 41.476, 128.329 41.040, 124.750 40.601 C 117.103 39.662, 102.847 39.473, 82.655 40.041 M 82.903 59.929 C 70.216 60.341, 64.848 60.880, 63.664 61.863 C 62.761 62.613, 62.269 63.626, 62.570 64.113 C 62.871 64.601, 62.684 65, 62.153 65 C 60.775 65, 61.938 68.762, 63.501 69.362 C 65.505 70.131, 82.545 68.314, 84.838 67.087 C 85.955 66.489, 88.023 66, 89.434 66 C 90.845 66, 92.007 65.438, 92.015 64.750 C 92.025 63.976, 92.310 63.881, 92.765 64.500 C 93.169 65.050, 93.950 65.574, 94.500 65.665 C 95.050 65.757, 97.515 66.131, 99.979 66.498 C 102.442 66.865, 104.762 67.353, 105.134 67.583 C 105.506 67.812, 109.670 68.287, 114.387 68.637 C 124.227 69.368, 126 68.584, 126 63.503 C 126 58.600, 125.390 58.549, 82.903 59.929 M 94.500 82.107 C 93.400 82.760, 92.361 83.405, 92.191 83.539 C 92.022 83.674, 92.600 85.501, 93.477 87.599 C 94.758 90.665, 94.844 91.963, 93.914 94.207 C 93.278 95.743, 92.115 97, 91.329 97 C 89.560 97, 83.723 99.933, 82.873 101.250 C 80.695 104.621, 87.516 111, 93.297 111 C 95.282 111, 98.051 110.478, 99.450 109.841 C 101.381 108.961, 102.933 108.963, 105.892 109.850 C 108.036 110.492, 110.472 110.756, 111.304 110.437 C 113.828 109.468, 115.220 104.465, 115.364 95.851 C 115.456 90.293, 115.901 87.532, 116.750 87.249 C 118.894 86.536, 118.123 84.378, 115.250 83.050 C 111.392 81.266, 97.016 80.613, 94.500 82.107" stroke="none" fill="black" fill-rule="evenodd"/>
</svg>