<svg xmlns="http://www.w3.org/2000/svg" width="256" height="256" viewBox="0 0 256 256" version="1.1">
	<path d="M 119.400 26.765 C 117.649 27.934, 116 31.647, 116 34.420 C 116 37.468, 117.880 45.799, 119.118 48.236 C 120.529 51.014, 120.148 53.556, 118.037 55.467 C 116.484 56.872, 114.448 57.221, 108.287 57.137 C 102.674 57.061, 99.383 57.543, 96.500 58.865 C 92.510 60.695, 92.488 60.693, 87.668 58.202 C 82.501 55.532, 79.652 55.162, 73.836 56.406 C 68.440 57.561, 67.750 55.645, 69.039 43.091 C 69.917 34.533, 69.838 32.588, 68.510 30.018 C 66.539 26.209, 62.370 25.913, 59.138 29.354 C 57.058 31.567, 56.956 32.369, 57.427 42.840 C 57.903 53.444, 57.815 54.103, 55.580 56.702 C 53.444 59.185, 52.684 59.409, 47.118 59.189 C 40.354 58.922, 36.231 60.473, 33.786 64.204 C 31.842 67.170, 33.032 70.602, 36.562 72.210 C 38.698 73.183, 40.071 73.089, 43.976 71.702 C 50.429 69.410, 52.645 69.554, 55.545 72.455 C 59.743 76.652, 58.951 80.929, 52.500 88.914 C 49.475 92.658, 47 96.222, 47 96.835 C 47 97.447, 45.763 98.598, 44.250 99.392 C 41.337 100.921, 35.403 106.845, 32.649 110.973 C 30.548 114.122, 30.531 121.209, 32.614 125.599 C 35.260 131.176, 39.062 129.750, 43.424 121.546 C 44.841 118.882, 46 115.917, 46 114.958 C 46 113.999, 46.675 112.955, 47.500 112.638 C 48.325 112.322, 49 111.389, 49 110.567 C 49 108.766, 52.199 106.866, 53.623 107.820 C 54.181 108.194, 55.405 110.448, 56.343 112.830 C 57.817 116.574, 57.963 119.556, 57.424 134.884 L 56.800 152.609 59.489 155.805 C 61.122 157.745, 63.110 159, 64.550 159 C 68.252 159, 68.923 154.153, 68.859 127.850 C 68.828 114.842, 69.102 103.255, 69.468 102.100 C 70.361 99.287, 73.413 99.413, 79.212 102.500 C 87.128 106.714, 88.723 106.106, 91.325 97.881 C 92.045 95.603, 88.591 90.319, 85.819 89.459 C 84.544 89.063, 81.671 87.110, 79.436 85.120 C 77.200 83.129, 74.373 80.827, 73.152 80.005 C 70.772 78.402, 68.378 72.063, 69.273 69.731 C 70.249 67.187, 108.325 68.852, 112.750 71.633 C 115.861 73.587, 115.597 75.224, 111.107 81.799 C 107.731 86.743, 103.453 94.147, 95.500 108.812 C 94.400 110.840, 93.197 112.730, 92.827 113.011 C 91.527 114, 89.029 122.539, 89.028 126 C 89.025 138.794, 92.844 136.793, 104.763 117.756 C 106.558 114.890, 109.451 110.847, 111.191 108.772 C 115.373 103.787, 118.252 103.837, 125.141 109.014 C 130.058 112.708, 130.930 113.009, 136.090 112.791 C 141.706 112.553, 145 114.120, 145 117.027 C 145 119.808, 148.312 124.907, 150.336 125.243 C 153.552 125.778, 157.761 123.363, 159.511 119.979 C 160.967 117.163, 160.905 116.675, 158.424 111.431 C 156.977 108.372, 154.040 104.081, 151.897 101.894 C 149.753 99.708, 148 97.487, 148 96.960 C 148 96.432, 147.395 96, 146.655 96 C 145.915 96, 144.453 95.042, 143.405 93.870 C 142.357 92.699, 139.824 90.675, 137.775 89.374 C 133.677 86.770, 131.232 83.606, 130.719 80.242 C 130.535 79.037, 130.073 77.740, 129.692 77.359 C 128.198 75.865, 129.123 71.786, 131.494 69.415 C 133.801 67.109, 134.638 66.933, 142.603 67.090 C 150.973 67.255, 151.285 67.178, 153.573 64.380 C 158.863 57.911, 154.852 53.412, 144.620 54.337 C 141.254 54.641, 137.208 55.106, 135.630 55.370 C 133.531 55.721, 132.133 55.224, 130.430 53.521 C 128.246 51.337, 128.130 50.612, 128.561 41.846 C 128.959 33.756, 128.753 32.063, 127.025 29.250 C 125.066 26.059, 121.969 25.050, 119.400 26.765 M 122.750 95.195 C 121.077 96.920, 121.110 97, 123.500 97 C 126.060 97, 126.531 96.306, 125.235 94.445 C 124.755 93.755, 123.894 94.015, 122.750 95.195 M 119.622 117.750 C 117.252 125.070, 115.921 143.059, 117.331 148.729 C 119.308 156.682, 127.227 158.694, 130.020 151.952 C 131.111 149.318, 130.985 147.665, 129.141 140.383 C 127.714 134.745, 127.296 131.315, 127.900 130.187 C 128.400 129.253, 128.572 126.384, 128.282 123.814 C 127.993 121.243, 128.237 117.758, 128.826 116.070 L 129.896 113 125.528 113 C 121.200 113, 121.147 113.043, 119.622 117.750" stroke="none" fill="black" fill-rule="evenodd"/>
</svg>