<svg xmlns="http://www.w3.org/2000/svg" width="256" height="256" viewBox="0 0 256 256" version="1.1">
	<path d="M 48.789 30.338 C 45.672 32.752, 44.923 36.782, 45.611 47.425 L 46.268 57.596 43.193 60.184 C 41.501 61.608, 37.858 63.314, 35.097 63.977 C 29.288 65.370, 27.904 67.679, 30.502 71.643 C 31.780 73.594, 32.676 74.025, 34.335 73.490 C 42.172 70.961, 45.061 72.198, 45.435 78.243 C 45.748 83.305, 40.793 94.423, 34.401 103 C 27.555 112.185, 25.896 119.341, 29.724 123.168 C 31.480 124.925, 32.079 125.031, 34.128 123.948 C 36.765 122.556, 40.578 118.765, 41.191 116.927 C 41.832 115.004, 45.738 116.820, 46.369 119.335 C 46.682 120.580, 46.912 128.341, 46.881 136.581 C 46.835 148.875, 47.139 152.224, 48.576 155.238 C 51.579 161.535, 55.171 161.073, 56.523 154.214 C 57.528 149.117, 57.136 113.459, 56.045 110.718 C 54.014 105.614, 53.705 104.402, 53.949 102.500 C 54.190 100.624, 55.646 99.050, 57.173 99.015 C 57.544 99.007, 59.243 100.175, 60.950 101.611 C 65.053 105.064, 70.226 106.230, 72.956 104.318 C 76.461 101.864, 78.817 103.484, 79.472 108.800 C 80.324 115.712, 82.100 124.125, 83.231 126.607 C 83.775 127.802, 85.238 129.243, 86.482 129.810 C 89.844 131.342, 90.320 135.113, 88.015 141.954 C 85.693 148.847, 85.522 151.122, 87.200 152.800 C 90.269 155.869, 96.782 151.810, 98.503 145.755 C 98.855 144.515, 100.649 139.450, 102.489 134.500 C 109.612 115.332, 110.809 109.561, 111.928 88.987 C 113.064 68.113, 115.114 62.820, 119.250 70.087 C 120.585 72.432, 120.999 75.457, 120.998 82.831 C 120.995 92.672, 119.366 117.459, 118.423 122 C 118.137 123.375, 117.679 130.125, 117.404 137 C 116.976 147.715, 117.161 150, 118.702 153 C 121.019 157.511, 125.105 158.296, 127.471 154.685 C 129.832 151.081, 129.973 149.037, 128.384 141.455 C 127.592 137.678, 127.213 133.893, 127.541 133.044 C 128.239 131.236, 129.804 118.462, 132.018 96.500 C 132.572 91, 133.515 83.125, 134.114 79 C 134.712 74.875, 135.080 70.375, 134.930 69 C 133.902 59.571, 135.256 56.499, 140.939 55.362 C 146.384 54.273, 146.859 55.566, 146.430 70.296 C 145.673 96.214, 144.929 110.596, 144.013 116.992 C 142.425 128.083, 144.577 130.719, 150.673 125.151 C 157.794 118.648, 158.585 114.348, 159.439 77.500 C 159.833 60.505, 158.874 54.576, 154.791 48.750 C 152.692 45.755, 150.586 45.408, 143.693 46.919 C 141.387 47.425, 136.971 48.344, 133.880 48.962 C 128.381 50.061, 128.136 50.257, 122.484 58.108 L 116.708 66.130 112.604 62.189 C 107.097 56.901, 103.798 56.170, 101.073 59.634 C 99.120 62.118, 99 63.527, 99 84.086 C 99 107.356, 98.091 114.703, 94.848 117.637 C 92.877 119.422, 92.777 119.417, 91.324 117.487 C 90.055 115.801, 89.908 111.642, 90.348 90 C 90.838 65.877, 91.538 59.751, 94.196 56.336 C 94.694 55.696, 97.216 54.189, 99.801 52.988 C 104.709 50.706, 108.561 47.655, 110.074 44.849 C 111.306 42.565, 109.296 37.229, 106.920 36.475 C 104.919 35.840, 98 37.884, 98 39.111 C 98 39.500, 94.857 41.890, 91.016 44.420 C 87.175 46.951, 83.312 50.120, 82.433 51.462 C 78.202 57.920, 75.956 75.229, 78.185 84.201 C 79.113 87.937, 79.076 89.783, 78.002 93.201 C 77.260 95.565, 76.250 97.950, 75.759 98.500 C 74.518 99.889, 72.435 96.832, 70.376 90.601 C 68.266 84.212, 66.045 81.072, 63.610 81.031 C 61.448 80.995, 59.079 78.297, 59.032 75.816 C 59.014 74.890, 60.913 72.851, 63.250 71.285 C 66.294 69.246, 67.593 67.637, 67.826 65.615 C 68.223 62.190, 65 58.379, 60.958 57.491 C 59.423 57.154, 57.905 56.194, 57.584 55.358 C 57.263 54.522, 57.252 49.487, 57.560 44.169 C 57.968 37.118, 57.758 33.823, 56.786 32 C 55.263 29.143, 51.376 28.335, 48.789 30.338" stroke="none" fill="black" fill-rule="evenodd"/>
</svg>