<svg xmlns="http://www.w3.org/2000/svg" width="256" height="256" viewBox="0 0 256 256" version="1.1">
	<path d="M 88.500 19.208 C 85.883 20.709, 84.468 22.518, 81.520 28.131 C 79.844 31.320, 78.253 32.971, 76.408 33.434 C 74.934 33.804, 71.442 36.381, 68.646 39.162 C 62.662 45.115, 55.719 49.711, 47.742 53 C 44.576 54.306, 41.329 56.375, 40.528 57.598 C 39.217 59.599, 39.275 60.079, 41.108 62.410 C 42.229 63.835, 43.709 65, 44.398 65 C 46.831 65, 50 69.550, 50.015 73.064 C 50.024 74.954, 50.435 77.138, 50.928 77.918 C 51.512 78.840, 51.275 80.177, 50.250 81.741 C 48.083 85.049, 49.852 94.483, 53.722 100.261 C 56.164 103.905, 57.119 104.542, 60.531 104.800 C 62.714 104.965, 65.613 105.943, 66.974 106.973 C 69.407 108.816, 69.417 108.881, 67.569 110.923 C 66.536 112.066, 64.465 113, 62.967 113 C 59.411 113, 58.348 114.456, 57.555 120.408 C 57.195 123.108, 56.477 126.109, 55.958 127.078 C 55.365 128.186, 55.370 128.961, 55.970 129.169 C 56.778 129.449, 57.415 138.596, 57.108 145.500 C 56.900 150.190, 58.489 154.199, 61.239 155.919 C 67.120 159.598, 122.590 158.966, 129.741 155.139 C 133.757 152.989, 134.237 151.363, 134.120 140.314 C 134.055 134.210, 134.431 129.352, 134.995 129.003 C 135.597 128.631, 135.205 126.864, 133.992 124.484 C 132.896 122.335, 131.994 119.435, 131.986 118.039 C 131.945 110.345, 129.205 108.766, 116.957 109.380 C 107.919 109.833, 103 109.315, 103 107.912 C 103 106.347, 109.394 105.283, 118.859 105.273 C 124.007 105.268, 128.507 104.867, 128.859 104.382 C 129.212 103.897, 130.175 103.375, 131 103.222 C 136.624 102.178, 139.488 97.644, 140.571 88.074 C 141.088 83.506, 140.824 80.570, 139.526 76.443 C 137.222 69.117, 138.444 65.834, 144.182 63.940 C 156.080 60.013, 160.648 53.422, 153.532 50.449 C 151.625 49.652, 148.724 49, 147.085 49 C 145.447 49, 140.595 47.382, 136.303 45.404 C 128.130 41.638, 127.651 41.395, 119.330 36.824 C 116.487 35.262, 111.987 33.704, 109.330 33.362 C 103.566 32.620, 99.295 28.761, 99.863 24.807 C 99.999 23.854, 92.786 17.993, 91.522 18.030 C 90.960 18.047, 89.600 18.577, 88.500 19.208 M 92.747 36.203 C 90.589 36.777, 88.214 38.326, 87.160 39.850 C 83.995 44.422, 83.916 45.715, 86.689 47.532 C 89.415 49.318, 94.605 49.048, 99.383 46.871 C 102.001 45.678, 103.458 42.401, 101.819 41.388 C 101.273 41.051, 101.022 40.024, 101.262 39.108 C 101.750 37.239, 99.764 34.946, 97.792 35.103 C 97.081 35.160, 94.811 35.655, 92.747 36.203 M 109.500 54.328 C 104.831 55.696, 100.311 58.644, 101.326 59.659 C 101.714 60.047, 105.962 60.477, 110.766 60.615 C 115.570 60.752, 121.830 61.092, 124.678 61.371 C 128.367 61.732, 130.186 61.480, 131.002 60.498 C 131.917 59.395, 131.277 58.567, 127.824 56.378 C 122.874 53.241, 115.881 52.459, 109.500 54.328 M 67.354 56.381 C 62.776 57.618, 59 60.510, 59 62.779 C 59 64.432, 62.714 64.222, 78.286 61.690 C 90.389 59.722, 90.966 58.874, 81.853 56.449 C 75.733 54.820, 73.178 54.808, 67.354 56.381 M 60.269 65.693 C 61.242 65.947, 62.592 65.930, 63.269 65.656 C 63.946 65.382, 63.150 65.175, 61.500 65.195 C 59.850 65.215, 59.296 65.439, 60.269 65.693 M 59.927 74.282 C 57.019 76.534, 56.001 79.342, 57.490 80.999 C 58.232 81.825, 59.439 85.875, 60.173 90 C 61.412 96.976, 61.691 97.521, 64.161 97.808 C 66.369 98.063, 66.915 97.642, 67.407 95.308 C 67.732 93.763, 67.831 90.755, 67.626 88.623 C 66.993 82.035, 67.667 81, 72.594 81 C 78.517 81, 80.485 83.838, 79.504 90.969 C 78.935 95.107, 79.101 96.101, 80.444 96.617 C 81.357 96.967, 82.905 96.491, 83.963 95.534 C 85.656 94.001, 85.855 92.703, 84.888 89.500 C 84.721 88.950, 84.904 86.618, 85.294 84.317 C 85.789 81.392, 86.603 79.943, 88.001 79.500 C 89.100 79.151, 90 78.248, 90 77.494 C 90 75.521, 81.776 74.525, 75.248 75.708 C 70.650 76.542, 69.265 76.410, 66.198 74.846 C 61.974 72.693, 61.978 72.693, 59.927 74.282 M 96.273 74.820 C 92.317 76.879, 92.254 77.476, 95.750 79.713 C 99.163 81.896, 100.927 84.034, 100.968 86.037 C 101.029 88.981, 104.577 87.940, 106.471 84.424 C 107.485 82.541, 109.144 80.944, 110.157 80.875 C 111.171 80.806, 112.563 80.670, 113.250 80.573 C 113.938 80.475, 115.797 80.821, 117.383 81.342 C 120.250 82.283, 120.263 82.324, 119.754 88.894 C 119.098 97.346, 119.331 97.884, 123.289 97.077 C 126.421 96.438, 126.516 96.261, 127.153 89.859 C 127.512 86.249, 127.737 81.542, 127.653 79.398 C 127.522 76.071, 127.140 75.449, 125.044 75.153 C 123.693 74.963, 120.892 75.315, 118.818 75.936 C 115.581 76.906, 114.486 76.779, 111.064 75.033 C 106.301 72.603, 100.688 72.522, 96.273 74.820 M 100 92.500 C 100 94.425, 100.338 95.986, 100.750 95.968 C 102.356 95.900, 104.515 93.393, 104.813 91.250 C 105.067 89.421, 104.647 89, 102.563 89 C 100.301 89, 100 89.410, 100 92.500 M 82.828 106.043 C 81.359 106.451, 79.589 107.136, 78.895 107.565 C 75.658 109.565, 87.960 110.690, 96.500 109.175 L 100.500 108.465 98.206 106.858 C 95.777 105.156, 87.586 104.722, 82.828 106.043 M 89 120.896 C 79.266 121.275, 72.663 121.978, 71.250 122.785 C 65.929 125.825, 70.575 127.177, 81.843 125.870 C 86.055 125.381, 96.031 125.273, 104.014 125.628 C 116.501 126.184, 118.709 126.056, 119.828 124.707 C 120.918 123.393, 120.835 122.983, 119.315 122.173 C 116.509 120.678, 105.985 120.235, 89 120.896 M 88.853 139.275 C 86.459 139.702, 82.350 139.770, 79.723 139.428 C 74.276 138.718, 69.614 140.832, 70.654 143.541 C 71.157 144.851, 73.921 145.062, 89.372 144.969 C 99.342 144.910, 108.943 145.305, 110.707 145.848 C 115.868 147.437, 121 145.487, 121 141.937 C 121 140.936, 120.438 139.754, 119.750 139.310 C 118.155 138.278, 94.600 138.252, 88.853 139.275" stroke="none" fill="black" fill-rule="evenodd"/>
</svg>