<svg xmlns="http://www.w3.org/2000/svg" width="256" height="256" viewBox="0 0 256 256" version="1.1">
	<path d="M 56.308 27.041 C 51.708 28.828, 50.500 32.515, 50.500 44.763 C 50.500 55.683, 50.406 56.183, 48 58.047 C 46.334 59.337, 44.610 59.799, 42.834 59.431 C 34.295 57.660, 25.601 65.458, 30.571 70.429 C 32.844 72.701, 36.183 72.365, 40.509 69.429 C 47.874 64.431, 51.518 68.020, 50.779 79.544 C 50.399 85.458, 49.727 87.722, 47.067 92.045 C 43.294 98.177, 43.228 98.248, 36 103.888 C 29.709 108.797, 28.103 111.651, 28.060 118 C 28.020 123.950, 29.843 127.418, 33.219 127.811 C 35.371 128.062, 36.378 127.382, 38.397 124.311 C 39.775 122.215, 41.374 118.375, 41.950 115.777 C 42.525 113.180, 43.808 109.719, 44.801 108.087 C 46.446 105.382, 46.822 105.227, 49.053 106.345 C 51.440 107.540, 51.499 107.852, 51.455 119.035 C 51.430 125.341, 51.210 136.151, 50.964 143.058 C 50.580 153.862, 50.764 155.992, 52.282 158.308 C 54.073 161.041, 57.224 161.777, 59.893 160.087 C 62.187 158.635, 62.638 151.686, 62.006 127.500 C 61.676 114.850, 61.599 103.451, 61.835 102.168 C 62.564 98.212, 65.957 97.484, 73.975 99.563 C 80.168 101.170, 81.648 101.236, 85.778 100.093 C 93.320 98.007, 109.615 97.081, 117.715 98.280 C 123.817 99.183, 125.898 99.076, 131.215 97.588 C 134.672 96.620, 141.513 95.634, 146.418 95.397 C 155.120 94.977, 158 94.016, 158 91.533 C 158 89.770, 154.931 87.263, 151.824 86.488 C 145.471 84.903, 143.411 76.563, 147.199 67.759 C 148.998 63.576, 149.107 62.568, 147.983 60.469 C 147.266 59.129, 145.964 57.813, 145.090 57.545 C 141.795 56.533, 134.245 55.696, 127 55.540 C 122.875 55.452, 118.487 55.038, 117.250 54.622 C 114.410 53.667, 114.286 50.177, 116.971 46.764 C 118.872 44.347, 119.440 44.242, 132.941 43.811 C 144.718 43.436, 147.262 43.073, 148.970 41.527 C 151.638 39.113, 151.551 35.499, 148.777 33.557 C 145.812 31.480, 123.963 31.439, 111.500 33.486 C 106.550 34.300, 99.350 34.980, 95.500 34.998 C 87.539 35.035, 86.540 35.450, 85.062 39.336 C 82.858 45.133, 87.172 48.271, 95.168 46.690 C 99.319 45.870, 100.334 45.992, 102.020 47.518 C 106.617 51.678, 103.346 55.917, 95.500 55.970 C 85.963 56.033, 80.776 60.975, 83.974 66.951 C 84.904 68.688, 86.042 69, 91.464 69 C 99.185 69, 101.431 70.586, 100.490 75.374 C 98.694 84.507, 96.079 86.287, 84.305 86.390 C 77.980 86.446, 76.584 86.151, 75.381 84.507 C 74.597 83.435, 74.168 82.005, 74.427 81.330 C 74.686 80.655, 74.084 79.844, 73.090 79.529 C 71.003 78.866, 68 79.797, 68 81.107 C 68 82.723, 65.505 82.038, 64.287 80.087 C 63.630 79.035, 62.794 75.929, 62.430 73.184 C 61.825 68.626, 61.973 68.084, 64.134 66.922 C 65.435 66.222, 68.075 65.733, 70 65.836 C 74.321 66.066, 80 62.792, 80 60.070 C 80 57.440, 75.985 52.934, 73.500 52.775 C 72.400 52.705, 69.837 52.968, 67.804 53.359 C 63.353 54.216, 62.128 52.623, 62.532 46.500 C 63.470 32.256, 63.345 30.888, 60.883 28.500 C 59.057 26.729, 57.988 26.388, 56.308 27.041 M 111.904 69.096 C 109.855 71.145, 109.706 73.645, 111.233 80.404 C 112.051 84.027, 115.824 86, 121.936 86 C 126.739 86, 128.026 85.601, 130 83.500 C 131.292 82.125, 132.068 81, 131.725 81 C 131.383 81, 131.774 79.392, 132.595 77.427 C 134.667 72.468, 133.782 70.747, 128.124 68.738 C 121.251 66.297, 114.555 66.445, 111.904 69.096 M 115.679 106.655 C 115.454 106.880, 110.471 107.694, 104.605 108.464 C 90.674 110.292, 87.066 112.080, 85.354 118 C 83.226 125.358, 82.770 132.978, 83.917 142 C 85.431 153.911, 86.757 155.458, 95.612 155.646 C 99.400 155.726, 105.015 156.209, 108.088 156.719 C 114.288 157.748, 117.294 157.607, 132.914 155.555 C 143.841 154.119, 150.029 151.684, 151.971 148.054 C 152.477 147.110, 152.638 143.896, 152.330 140.913 C 152.023 137.930, 152.199 133.917, 152.721 131.995 C 153.803 128.018, 152.774 123.039, 150.531 121.399 C 149.702 120.793, 148.861 118.497, 148.663 116.297 C 148.195 111.111, 147.432 110, 144.335 110 C 142.935 110, 139.249 109.359, 136.144 108.576 C 130.599 107.178, 116.481 105.852, 115.679 106.655 M 120.500 119.082 C 118.300 119.524, 114.194 119.911, 111.375 119.942 C 102.253 120.045, 100.158 120.869, 97.545 125.382 C 93.063 133.120, 93.512 140.545, 98.601 142.864 C 101.930 144.381, 130.735 144.573, 135.174 143.107 C 139.165 141.790, 141 138.720, 141 133.359 C 141 130.714, 140.516 129.686, 139.096 129.315 C 137.728 128.957, 137.088 127.720, 136.821 124.917 C 136.616 122.772, 136.910 120.847, 137.474 120.640 C 138.038 120.432, 136.250 119.954, 133.500 119.577 C 130.750 119.199, 127.600 118.753, 126.500 118.585 C 125.400 118.417, 122.700 118.641, 120.500 119.082" stroke="none" fill="black" fill-rule="evenodd"/>
</svg>