<svg xmlns="http://www.w3.org/2000/svg" width="256" height="256" viewBox="0 0 256 256" version="1.1">
	<path d="M 122.050 25.176 C 120.935 26.373, 119.765 28.165, 119.450 29.157 C 118.782 31.262, 121.686 35.675, 124.325 36.566 C 125.329 36.905, 125.908 37.426, 125.611 37.723 C 125.313 38.020, 125.506 39.077, 126.039 40.072 C 128.218 44.144, 119.447 46.467, 112.636 43.621 C 109.429 42.281, 109.332 42.066, 109.143 35.871 C 108.978 30.448, 108.573 29.165, 106.419 27.250 C 103.466 24.625, 99.800 24.343, 97.571 26.571 C 95.763 28.380, 95.509 33.213, 97.069 36.128 C 100.364 42.286, 96.552 49, 89.760 49 C 84.539 49, 82.288 50.376, 80.498 54.658 C 79.674 56.631, 79 58.399, 79 58.587 C 79 58.776, 80.397 60.521, 82.104 62.465 C 85.453 66.280, 87.969 66.889, 90.388 64.469 C 92.440 62.418, 99.988 59.049, 102.595 59.022 C 106.236 58.984, 108.551 62.781, 109.526 70.391 C 110.295 76.399, 107.780 78, 97.571 78 C 88.130 78, 86 79.109, 86 84.023 C 86 86.303, 86.920 87.537, 90.410 89.938 C 93.933 92.362, 94.949 93.737, 95.463 96.781 C 96.465 102.712, 94.915 105.397, 89.339 107.389 C 82.494 109.834, 81.538 110.453, 81.206 112.657 C 80.648 116.364, 84.434 118.382, 92.298 118.569 C 104.853 118.868, 106.594 120.017, 103.515 125.971 C 102.698 127.551, 102.435 128.991, 102.931 129.172 C 103.427 129.352, 104.132 131.118, 104.499 133.095 C 105.256 137.186, 104.590 137.634, 93.657 140.387 C 90.443 141.197, 86.955 142.635, 85.907 143.584 C 83.764 145.524, 83.380 149.980, 85.200 151.800 C 86.636 153.236, 92.873 153.363, 97.884 152.059 C 99.873 151.542, 105.580 150.391, 110.567 149.502 L 119.634 147.886 130.067 151.487 C 142.975 155.942, 149.573 156.353, 156.257 153.118 C 162.985 149.861, 162.763 145.450, 155.687 141.841 C 152.373 140.149, 150.687 139.901, 146.561 140.498 C 136.118 142.008, 129 140.214, 129 136.072 C 129 134.162, 133.967 129, 135.805 129 C 137.288 129, 137.300 128.160, 135.875 124.071 C 133.889 118.375, 137.443 114.388, 146.124 112.574 C 149.804 111.804, 153.250 108.797, 152.519 106.991 C 151.406 104.243, 146.838 101.757, 142.344 101.454 C 137.451 101.124, 135.244 99.773, 133.924 96.300 C 132.681 93.030, 133.655 91.351, 137.746 89.720 C 140.361 88.677, 142.422 88.532, 145.335 89.187 C 150.219 90.284, 154.567 89.433, 157.119 86.881 C 158.866 85.134, 158.906 84.718, 157.568 82.132 C 154.699 76.583, 149.775 74.867, 143.370 77.183 C 140.862 78.090, 139.497 78.092, 137.521 77.192 C 133.777 75.486, 133.488 73.538, 136.412 69.705 C 138.057 67.548, 139 65.036, 139 62.811 C 139 58.694, 140.672 56.926, 147.219 54.120 C 153.389 51.476, 154.651 47.817, 150.596 44.329 C 149.107 43.048, 147.239 42, 146.444 42 C 145.650 42, 145 41.605, 145 41.121 C 145 40.638, 143.537 39.648, 141.750 38.922 C 138.625 37.651, 136.469 35.609, 136.027 33.500 C 135.686 31.870, 132.621 27, 131.937 27 C 131.590 27, 130.268 26.100, 129 25 C 126.050 22.441, 124.563 22.479, 122.050 25.176 M 56.090 26.897 C 54.765 27.255, 52.740 28.809, 51.590 30.351 C 49.695 32.893, 49.528 34.280, 49.794 45.199 C 50.140 59.348, 49.784 60.061, 41.127 62.543 C 31.162 65.400, 28.630 68.546, 33.065 72.559 C 35.086 74.388, 35.220 74.380, 39.315 72.211 C 41.617 70.992, 43.993 69.996, 44.595 69.997 C 46.931 70.003, 49.146 74.011, 49.681 79.202 C 50.131 83.556, 49.808 85.455, 48.028 88.946 C 45.382 94.131, 45.111 94.466, 37.653 101.772 C 29.888 109.379, 28.131 113.028, 29.129 119.476 C 29.829 123.998, 31.868 127, 34.239 127 C 36.029 127, 40.046 121.543, 41.079 117.707 C 42.580 112.131, 45.724 108.115, 48.100 108.736 C 49.145 109.010, 50.009 109.518, 50.020 109.867 C 50.031 110.215, 50.488 113.425, 51.035 117 C 51.724 121.498, 51.672 127.847, 50.867 137.613 C 49.781 150.799, 49.829 151.981, 51.602 155.613 C 52.856 158.180, 54.283 159.611, 55.805 159.827 C 61.332 160.610, 61.920 157.694, 62.114 128.500 C 62.191 116.950, 62.622 106.524, 63.072 105.330 C 63.978 102.925, 64.752 102.934, 70.352 105.409 C 72.471 106.346, 75.171 106.975, 76.352 106.806 C 78.196 106.543, 78.452 105.954, 78.163 102.633 C 77.669 96.950, 71.182 85.008, 68.568 84.968 C 65.486 84.921, 63.084 82.671, 62.386 79.179 C 61.299 73.744, 62.512 71.577, 68.038 69.079 C 76.667 65.180, 77.269 58.996, 69.211 57.034 C 61.231 55.091, 60.631 54.232, 61.368 45.792 C 61.718 41.781, 62.269 36.885, 62.592 34.911 C 63.364 30.210, 59.851 25.881, 56.090 26.897 M 123.213 57.117 C 120.559 58.099, 120.314 61.091, 122.762 62.619 C 125.421 64.280, 129 62.575, 129 59.649 C 129 56.903, 126.613 55.859, 123.213 57.117 M 107.635 89.073 C 104.436 91.589, 104.372 92.784, 107.172 97.693 C 110.759 103.982, 112.006 105, 116.120 105 C 120.572 105, 121.928 103.235, 121.985 97.365 C 122.005 95.239, 122.037 92.609, 122.056 91.519 C 122.136 86.852, 112.529 85.222, 107.635 89.073 M 118.130 118.062 L 114.761 120.116 117.104 122.610 C 119.685 125.358, 122.412 125.240, 126.599 122.198 C 129.419 120.150, 129.556 119.142, 127.250 117.392 C 124.756 115.499, 122.003 115.701, 118.130 118.062" stroke="none" fill="black" fill-rule="evenodd"/>
</svg>