<svg xmlns="http://www.w3.org/2000/svg" width="256" height="256" viewBox="0 0 256 256" version="1.1">
	<path d="M 52.282 30.206 C 49.319 31.637, 47.852 36.502, 48.066 44.182 C 48.308 52.837, 47.184 57.839, 44.628 59.480 C 43.458 60.232, 39.809 61.335, 36.519 61.932 C 28.815 63.330, 26.613 65.418, 27.553 70.430 C 28.381 74.844, 32.015 77.217, 34.828 75.181 C 40.103 71.364, 42.359 70.281, 44.093 70.735 C 45.159 71.013, 46.237 71.575, 46.489 71.982 C 47.704 73.949, 47.726 80.592, 46.531 84.565 C 45.796 87.004, 45.489 89.007, 45.848 89.015 C 46.207 89.024, 46.049 89.361, 45.497 89.765 C 44.946 90.169, 43.257 92.326, 41.744 94.558 C 40.232 96.790, 36.742 100.774, 33.990 103.411 C 28.680 108.501, 27.556 110.943, 28.312 115.744 C 29.549 123.593, 34.100 125.415, 38.318 119.750 C 39.649 117.963, 41.016 115.319, 41.356 113.876 C 42.233 110.159, 45.606 106.247, 46.855 107.500 C 48.692 109.343, 49.756 122.374, 49.241 136.717 C 48.702 151.708, 49.374 155.503, 52.961 157.743 C 54.513 158.713, 55.290 158.586, 57.182 157.053 C 59.452 155.214, 59.504 154.761, 59.702 135.338 C 60.001 105.876, 60.620 101.384, 64.517 100.406 C 65.780 100.089, 67.729 100.320, 68.847 100.918 C 70.506 101.806, 71.389 101.570, 73.638 99.635 L 76.396 97.263 75.279 90.050 C 73.982 81.670, 72.083 79, 67.416 79 C 63.561 79, 61 76.800, 61 73.488 C 61 71.198, 62.287 69.741, 64.621 69.385 C 67.111 69.006, 71.060 65.611, 71.623 63.364 C 72.405 60.252, 70.962 58.639, 65.550 56.572 C 60.169 54.517, 58.955 51.750, 60.267 44.531 C 61.372 38.453, 60.677 33.406, 58.388 30.876 C 56.483 28.771, 55.482 28.661, 52.282 30.206 M 122.769 32.750 C 121.922 33.712, 120.934 36.300, 120.573 38.500 C 119.261 46.504, 117.882 58.572, 117.946 61.500 C 118.136 70.269, 117.816 103.989, 117.527 105.610 C 117.342 106.650, 116.864 110.537, 116.466 114.250 C 116.067 117.963, 115.448 121, 115.090 121 C 113.914 121, 113.841 134.835, 115.005 137.010 C 115.629 138.176, 116.318 140.057, 116.536 141.189 C 117.603 146.727, 121.792 150.193, 130 152.330 C 133.025 153.118, 137.242 154.491, 139.372 155.381 C 144.815 157.657, 147.612 157.418, 154.676 154.077 C 165.048 149.170, 166.596 143.159, 158.483 139.291 C 155.053 137.655, 154.692 137.679, 147.965 140.012 C 144.134 141.340, 141 142.729, 141 143.097 C 141 143.465, 140.010 144.026, 138.801 144.342 C 134.387 145.496, 126.794 138.428, 127.529 133.850 C 127.674 132.942, 127.223 129.464, 126.525 126.120 C 125.333 120.407, 125.398 119.734, 127.604 114.973 C 130.297 109.161, 132.165 107, 134.495 107 C 136.405 107, 142.688 111.497, 145.323 114.750 C 148.856 119.112, 154.975 116.982, 156.503 110.858 C 157.034 108.730, 156.651 107.855, 154.534 106.358 C 153.088 105.336, 150.343 103.037, 148.434 101.250 C 146.525 99.463, 144.522 97.944, 143.982 97.875 C 143.442 97.806, 142.550 97.638, 142 97.500 C 141.450 97.362, 139.907 97.194, 138.571 97.125 C 137.235 97.056, 134.483 95.435, 132.454 93.522 C 128.934 90.201, 128.796 89.827, 129.419 85.272 C 129.777 82.647, 130.782 78.848, 131.651 76.830 C 133.193 73.249, 133.360 73.162, 138.410 73.280 C 143.375 73.397, 143.772 73.203, 148.044 68.578 C 154.220 61.893, 155.986 58.985, 155.993 55.490 C 156.001 52.061, 151.919 47, 149.147 47 C 147.098 47, 143.633 50.586, 139.484 57 C 137.883 59.475, 136.447 61.685, 136.293 61.911 C 136.139 62.136, 135.110 61.504, 134.006 60.506 C 131.858 58.562, 131.426 54.641, 132.924 50.700 C 133.467 49.273, 133.490 46.666, 132.982 44.385 C 132.506 42.248, 131.878 39.150, 131.588 37.500 C 131.054 34.474, 127.824 31, 125.544 31 C 124.865 31, 123.617 31.788, 122.769 32.750 M 101.994 33.803 C 100.059 35.371, 99.674 36.945, 99.058 45.829 C 98.668 51.451, 97.816 56.584, 97.163 57.237 C 96.248 58.152, 94.962 58.047, 91.539 56.778 C 85.883 54.682, 80.369 55.899, 78.980 59.551 C 77.885 62.433, 78.519 64.504, 81.670 68.327 C 82.952 69.881, 84.003 71.681, 84.006 72.327 C 84.009 72.972, 84.486 75.210, 85.066 77.299 C 86.407 82.127, 90.060 84.160, 92.853 81.633 C 94.572 80.077, 94.816 80.073, 96.069 81.584 C 96.883 82.564, 97.527 86.227, 97.679 90.742 C 97.926 98.059, 97.842 98.358, 94.645 101.555 C 92.596 103.604, 89.877 105.115, 87.429 105.565 C 85.268 105.963, 81.588 107.595, 79.250 109.192 C 75.880 111.495, 75 112.702, 75 115.022 C 75 119.080, 78.806 120.937, 85.733 120.260 C 90.102 119.833, 91.078 120.040, 91.643 121.513 C 92.851 124.661, 88.789 134.125, 83.767 139.864 C 80.502 143.595, 79 146.196, 79 148.120 C 79 155.668, 91.475 153.227, 94.088 145.168 C 94.742 143.151, 96.019 140.375, 96.925 139 C 99.406 135.235, 100.797 131.977, 102.048 127 C 102.671 124.525, 104.040 119.927, 105.090 116.782 C 106.141 113.636, 107 109.735, 107 108.112 C 107 106.489, 107.700 102.427, 108.557 99.086 C 109.861 93.993, 109.941 91.164, 109.052 81.603 C 108.352 74.088, 108.320 68.541, 108.956 65.348 C 112.123 49.445, 111.924 37.783, 108.419 33.911 C 106.264 31.530, 104.832 31.506, 101.994 33.803" stroke="none" fill="black" fill-rule="evenodd"/>
</svg>