<svg xmlns="http://www.w3.org/2000/svg" width="256" height="256" viewBox="0 0 256 256" version="1.1">
	<path d="M 48.315 32.062 C 44.807 33.387, 44 36.227, 44 47.246 C 44 59.155, 42.861 61.408, 36.254 62.566 C 28.746 63.883, 25.990 67.869, 29.382 72.508 C 30.644 74.234, 31.116 74.282, 34.808 73.063 C 42.690 70.462, 44.244 73.752, 40.933 86.022 C 38.895 93.577, 38.165 94.847, 32.281 101.085 C 28.746 104.832, 25.511 109.158, 25.091 110.699 C 24.327 113.503, 25.451 119.728, 27.020 121.377 C 28.597 123.035, 32.505 121.007, 35.442 117.007 C 38.607 112.696, 42.245 111.677, 43.501 114.750 C 43.894 115.713, 44.167 124.600, 44.107 134.500 C 43.987 154.219, 44.490 156.148, 50.099 157.510 C 54.697 158.627, 55.267 155.139, 54.685 129.412 C 54.403 116.929, 54.420 106.070, 54.722 105.281 C 55.025 104.492, 56.374 103.428, 57.720 102.916 C 60.501 101.859, 65.631 104.262, 66.510 107.033 C 67.629 110.556, 67.096 121.763, 65.609 126 C 63.412 132.258, 63.532 136.679, 65.934 137.965 C 71.893 141.154, 77.997 136.614, 77.785 129.151 C 77.659 124.716, 79.837 121, 82.563 121 C 84.646 121, 84.817 121.526, 85.247 129.250 C 85.626 136.063, 85.299 138.718, 83.370 144.489 C 81.110 151.252, 81.093 151.537, 82.857 153.302 C 85.822 156.267, 90.876 155.822, 94.004 152.321 C 96.273 149.783, 96.773 148.101, 97.302 141.238 C 97.653 136.690, 97.444 130.410, 96.825 126.895 C 95.790 121.022, 95.853 120.538, 97.858 118.914 C 99.059 117.941, 100.880 117.417, 102.020 117.716 C 104.587 118.387, 108 122.666, 108 125.212 C 108 126.280, 109.322 128.476, 110.937 130.091 C 114.171 133.325, 115.805 137, 114.008 137 C 113.389 137, 113.096 137.346, 113.358 137.769 C 113.619 138.193, 113.016 140.858, 112.018 143.692 C 110.414 148.249, 110.372 149.086, 111.658 150.923 C 114.725 155.301, 122.639 152.322, 127.128 145.100 C 129.587 141.145, 131.139 139.800, 134.604 138.619 C 138.801 137.189, 139.038 137.216, 140.489 139.287 C 141.320 140.474, 142 141.839, 142 142.321 C 142 142.803, 142.737 144.751, 143.638 146.649 C 145.380 150.321, 151.185 154, 155.238 154 C 158.589 154, 162 151.256, 162 148.560 C 162 145.375, 155.205 139.425, 149.812 137.889 C 140.614 135.268, 139.430 131.822, 143.066 118.255 C 145.172 110.395, 145.646 109.447, 149.732 104.912 C 153.170 101.096, 158.847 85.923, 161.110 74.500 C 163.630 61.780, 163.032 53.123, 159.381 49.472 C 155.947 46.038, 153.239 45.624, 146.172 47.455 C 141.258 48.729, 138.772 48.844, 133.763 48.032 C 123.635 46.388, 123.131 46.518, 117.997 52.103 L 113.306 57.205 107.403 56.011 C 97.620 54.032, 95.130 51.385, 94.841 42.656 C 94.633 36.386, 93.453 34, 90.560 34 C 85.724 34, 84.649 38.790, 84.566 60.713 C 84.488 81.120, 84.135 82.018, 77.164 79.558 C 71.844 77.681, 69.493 78.531, 65.203 83.885 C 63.389 86.148, 61.052 88, 60.010 88 C 55.862 88, 53.577 79.873, 55.961 73.602 C 56.490 72.212, 58.727 69.935, 60.932 68.543 C 65.761 65.495, 65.556 64.241, 59.266 58.330 L 54.828 54.160 55.513 45.700 C 56.231 36.845, 55.507 33.859, 52.227 32.141 C 51.275 31.642, 49.520 31.607, 48.315 32.062 M 136.755 54.929 C 129.766 55.904, 129.395 56.627, 131.485 65.198 C 133.534 73.599, 133.819 78.363, 132.715 85.755 C 131.962 90.792, 132.039 91.061, 134.558 92.208 C 136.677 93.174, 137.682 93.124, 139.746 91.953 C 143.970 89.556, 145.954 85.923, 146.551 79.500 C 146.857 76.200, 147.536 71.475, 148.060 69 C 151.181 54.256, 150.213 53.052, 136.755 54.929 M 99.750 67.021 C 96.614 68.953, 95.046 73.269, 95.978 77.403 C 96.444 79.468, 97.128 81.460, 97.499 81.829 C 97.870 82.198, 100.764 82.500, 103.932 82.500 C 110.658 82.500, 113 83.986, 113 88.255 C 113 93.522, 106.996 96.674, 102.027 94.015 C 96.553 91.085, 92.721 103.925, 97.834 108.066 C 99.982 109.806, 100.451 109.839, 103.706 108.478 C 108.899 106.309, 111.496 106.650, 114.780 109.934 C 116.928 112.081, 118.047 114.560, 118.956 119.184 C 121.060 129.880, 123.085 131.497, 127.180 125.750 C 130.474 121.127, 131.006 105.677, 128.101 99 C 125.846 93.819, 120.002 75.617, 119.995 73.753 C 119.992 73.064, 118.952 71.202, 117.682 69.616 C 115.614 67.032, 114.654 66.691, 108.437 66.338 C 104.493 66.113, 100.745 66.408, 99.750 67.021 M 78.388 91.980 C 75.444 93.170, 72 97.815, 72 100.596 C 72 103.277, 74.905 106.304, 79.176 108.073 C 81.790 109.156, 82.387 109.057, 84.198 107.246 C 85.985 105.459, 86.163 104.459, 85.555 99.595 C 84.928 94.575, 83.037 90.890, 81.179 91.063 C 80.805 91.098, 79.550 91.511, 78.388 91.980" stroke="none" fill="black" fill-rule="evenodd"/>
</svg>