<svg xmlns="http://www.w3.org/2000/svg" width="256" height="256" viewBox="0 0 256 256" version="1.1">
	<path d="M 110.441 26.417 C 108.724 27.671, 108.462 29.341, 108.171 40.896 C 107.850 53.642, 107.774 54.031, 105.020 56.979 C 102.485 59.692, 101.585 60, 96.188 60 C 90.755 60, 89.938 60.285, 87.686 62.961 C 85.432 65.640, 85.289 66.330, 86.184 70.211 C 86.756 72.692, 86.901 79.769, 86.528 87 C 85.861 99.922, 87.369 124.952, 88.997 127.995 C 89.507 128.947, 91.276 130.286, 92.929 130.970 C 97.079 132.690, 97.929 135.852, 94.877 138.223 C 89.678 142.262, 83.885 148.610, 83.311 150.896 C 82.541 153.965, 85.444 156.330, 89.104 155.616 C 90.536 155.337, 94.473 153.488, 97.853 151.507 C 104.160 147.810, 107 144.116, 107 139.606 C 107 135.488, 110.367 134, 119.687 134 C 128.736 134, 129.964 134.793, 130.033 140.684 C 130.082 144.810, 132.954 147.617, 141.702 152.092 C 145.991 154.286, 150.550 156.686, 151.834 157.425 C 154.468 158.941, 157.907 158.406, 158.692 156.359 C 160.295 152.182, 155.010 145, 150.333 145 C 147.141 145, 139 137.688, 139 134.822 C 139 133.808, 140.711 132.091, 143.026 130.780 C 145.241 129.526, 147.243 127.600, 147.476 126.500 C 147.709 125.400, 148.589 121.575, 149.432 118 C 151.123 110.829, 151.341 104.939, 150.525 88.500 C 149.329 64.421, 149.038 62.353, 146.676 61.150 C 143.619 59.592, 130.311 57.002, 125.358 57.001 C 121.811 57, 121.130 56.653, 120.609 54.579 C 119.283 49.297, 123.078 46.894, 129.841 48.733 C 131.853 49.281, 137.659 49.668, 142.743 49.593 C 150.703 49.477, 152.279 49.166, 154.094 47.351 C 156.638 44.807, 155.709 42.353, 150.907 38.933 C 147.983 36.852, 147.151 36.766, 136.103 37.413 C 123.096 38.173, 122.727 38.031, 120.027 31.210 C 118.746 27.975, 115.604 25, 113.469 25 C 112.871 25, 111.509 25.638, 110.441 26.417 M 54.783 28.750 C 51.249 32.802, 50.727 35.185, 51.406 44.176 C 52.322 56.316, 50.274 59.907, 42.399 59.968 C 31.822 60.050, 25.819 66.818, 31.938 71.762 C 33.963 73.398, 38.267 72.602, 41.895 69.920 C 47.559 65.732, 51.396 70.095, 50.467 79.665 C 49.702 87.540, 47.132 91.848, 37.473 101.441 C 29.443 109.418, 29 110.083, 29.006 114.179 C 29.013 120.166, 30.598 125.275, 32.890 126.703 C 34.528 127.723, 35.215 127.512, 37.412 125.315 C 38.836 123.891, 40.502 120.875, 41.113 118.613 C 43.746 108.868, 45.211 106.719, 48.611 107.609 C 50.284 108.046, 50.819 109.521, 51.822 116.453 C 52.483 121.029, 52.829 125.386, 52.590 126.136 C 52.351 126.886, 51.877 133.604, 51.538 141.065 C 50.956 153.857, 51.041 154.783, 53.033 157.315 C 55.881 160.935, 59.655 160.905, 61.247 157.250 C 62.052 155.402, 62.515 146.216, 62.660 129.236 C 62.778 115.340, 63.158 103.078, 63.505 101.986 C 64.353 99.312, 65.808 99.487, 68.221 102.554 C 69.830 104.600, 70.952 105.047, 73.865 104.804 C 78.432 104.422, 78.856 102.444, 76.486 92.574 C 74.468 84.172, 72.818 82, 68.452 82 C 64.807 82, 64.012 80.813, 63.280 74.276 C 62.677 68.898, 64.423 67, 69.974 67 C 76.978 67, 80.831 61.116, 76.915 56.398 C 76.224 55.565, 73.862 55, 71.069 55 C 63.230 55, 62.571 53.942, 63.319 42.556 C 63.823 34.886, 63.639 32.202, 62.453 29.910 C 60.714 26.546, 57.173 26.010, 54.783 28.750 M 106.569 69.080 C 100.046 69.843, 97.709 71.765, 98.208 75.957 C 98.406 77.626, 99.696 79.044, 102.225 80.371 C 105.843 82.270, 106.066 82.274, 109.934 80.530 C 113.655 78.852, 114.329 78.837, 120.138 80.300 C 125.863 81.742, 126.762 81.733, 131.429 80.183 C 135.581 78.805, 136.554 78.037, 136.797 75.948 C 137.568 69.331, 126.306 66.772, 106.569 69.080 M 99.566 91.768 C 98.817 92.516, 98.847 96.983, 99.625 100.875 C 100.406 104.779, 102.331 104.892, 108.586 101.400 C 113.493 98.660, 116.305 98.376, 124.566 99.781 C 131.003 100.876, 136.956 99.353, 138.076 96.323 C 139.524 92.408, 137.266 91.865, 118.119 91.523 C 108.226 91.346, 99.877 91.457, 99.566 91.768 M 99.594 111.896 C 97.653 114.041, 97.548 116.999, 99.326 119.431 C 100.412 120.916, 101.450 121.120, 105.076 120.561 C 110.291 119.757, 113.411 119.696, 125.592 120.156 C 134.701 120.501, 138 119.554, 138 116.596 C 138 114.419, 129.674 112.952, 118.277 113.122 C 112.104 113.214, 106.479 112.844, 105.777 112.300 C 103.191 110.296, 101.162 110.164, 99.594 111.896" stroke="none" fill="black" fill-rule="evenodd"/>
</svg>