<svg xmlns="http://www.w3.org/2000/svg" width="256" height="256" viewBox="0 0 256 256" version="1.1">
	<path d="M 112.382 23.326 C 111.347 24.688, 109.723 27.216, 108.773 28.943 C 106.608 32.877, 101.665 35, 94.667 35 C 87.921 35, 85.413 36.828, 80.596 45.259 C 78.634 48.691, 75.821 52.850, 74.345 54.500 C 71.929 57.201, 71.120 57.480, 66.237 57.304 C 60.053 57.080, 56.292 55.083, 55.823 51.775 C 55.645 50.524, 55.757 46.575, 56.071 43 C 57.032 32.068, 54.303 26.794, 48.774 28.896 C 44.098 30.674, 43.500 32.514, 43.500 45.119 C 43.500 58.864, 43.095 59.631, 35.175 60.883 C 26.412 62.269, 23.534 67.094, 29.032 71.182 C 31.471 72.996, 31.739 73.001, 36.271 71.321 C 39.965 69.952, 41.239 69.839, 42.193 70.793 C 44.558 73.158, 42.551 82.529, 37.223 94 C 36.329 95.925, 33.667 99.525, 31.308 102 C 26.164 107.397, 24.567 111.630, 25.451 117.525 C 26.557 124.897, 32.300 124.428, 36.503 116.624 C 37.577 114.631, 38.802 113, 39.227 113 C 39.652 113, 40.961 112.039, 42.135 110.865 C 44.202 108.798, 44.304 108.790, 45.341 110.615 C 46.030 111.828, 46.332 120.040, 46.188 133.651 L 45.963 154.803 48.570 157.901 C 51.778 161.713, 54.291 161.852, 55.906 158.307 C 57.078 155.736, 57.363 136.094, 56.522 116 C 56.349 111.875, 56.416 107.712, 56.671 106.750 C 57.270 104.488, 61.767 104.444, 66.404 106.656 C 69.635 108.196, 70.051 108.196, 72.403 106.656 C 75.528 104.608, 77.735 104.574, 82.346 106.500 C 84.320 107.325, 88.595 108, 91.845 108 C 98.026 108, 100.544 109.419, 99.445 112.282 C 98.342 115.156, 93.478 116.207, 82.807 115.874 C 77.138 115.698, 71.998 115.868, 71.384 116.253 C 68.734 117.914, 72.722 126.428, 75.629 125.312 C 77.852 124.459, 85.797 127.029, 86.486 128.825 C 86.824 129.705, 86.799 134.042, 86.431 138.463 C 85.830 145.668, 85.453 146.788, 82.781 149.284 C 80.020 151.864, 79.909 152.231, 81.266 154.284 C 83.467 157.615, 90.270 157.686, 101.371 154.495 C 109.107 152.271, 112.152 151.908, 121.326 152.115 C 128.102 152.267, 135.083 153.106, 139.984 154.355 C 147.397 156.243, 147.955 156.259, 150.408 154.652 C 151.834 153.718, 153 152.368, 153 151.651 C 153 148.951, 148.340 145.946, 143.210 145.339 C 138.372 144.765, 138.028 144.526, 136.483 140.666 C 132.834 131.546, 134.728 128.515, 147.444 123.128 C 156.421 119.324, 157.512 117.029, 152.056 113.418 C 148.282 110.921, 146.372 110.235, 142.750 110.077 C 139.860 109.950, 140.780 108.003, 143.750 107.959 C 145.262 107.936, 148.525 106.924, 151 105.709 C 155.921 103.293, 155.892 103.408, 153.937 94 C 153.308 90.975, 152.626 87.565, 152.421 86.421 C 151.942 83.751, 148.054 82, 142.602 82 C 140.235 82, 136.867 81.501, 135.118 80.891 C 132.714 80.053, 131.202 80.088, 128.919 81.034 C 126.489 82.040, 125.431 82.034, 123.503 81.002 C 117.456 77.766, 121.428 73.930, 131.239 73.529 C 137.277 73.283, 146.162 70.867, 148.750 68.769 C 149.438 68.211, 150 66.717, 150 65.449 C 150 64.180, 151.575 61.472, 153.500 59.431 C 157.393 55.304, 157.767 52.768, 155.405 46.500 C 154.576 44.300, 153.657 41.182, 153.361 39.571 C 152.688 35.904, 150.194 32.459, 147.203 31.068 C 145.940 30.481, 141.297 30, 136.887 30 C 128.077 30, 125.733 29.205, 122 24.947 C 118.384 20.823, 114.749 20.211, 112.382 23.326 M 124.415 40.707 C 123.818 41.143, 122.858 42.361, 122.283 43.414 C 120.636 46.428, 124.797 50, 129.955 50 C 132.180 50, 134 49.622, 134 49.161 C 134 48.699, 135.116 47.812, 136.480 47.191 C 140.953 45.153, 137.151 41.349, 129.728 40.435 C 127.403 40.148, 125.012 40.271, 124.415 40.707 M 96.995 45.236 C 95.488 46.853, 95.014 48.445, 95.283 50.986 C 95.487 52.919, 95.301 55.782, 94.869 57.349 C 93.733 61.467, 96.159 64.682, 101.022 65.504 C 106.190 66.377, 108.860 65.405, 109.621 62.375 C 110.118 60.393, 109.608 59.356, 107.123 57.297 C 103.532 54.322, 103.148 52.456, 105.976 51.717 C 108.301 51.108, 110.521 46.801, 109.663 44.564 C 108.664 41.961, 99.598 42.442, 96.995 45.236 M 124.217 59.424 C 122.327 63.572, 127.184 65.834, 132.518 63.290 C 136.657 61.316, 136.782 60.742, 133.535 58.615 C 129.774 56.150, 125.541 56.518, 124.217 59.424 M 69.405 64.500 C 67.922 65.875, 65.986 67.033, 65.104 67.074 C 57.847 67.411, 56 69.323, 56 76.500 C 56 82.021, 57.737 85.419, 60.669 85.635 C 65.281 85.973, 67.007 87.293, 68.162 91.365 C 69.829 97.241, 73.567 102, 76.516 102 C 79.568 102, 81.003 99.368, 81.716 92.462 C 82.122 88.524, 82.922 86.483, 84.716 84.797 C 86.980 82.671, 87.892 82.523, 96.962 82.809 C 106.612 83.113, 106.795 83.076, 108.916 80.380 C 112.193 76.213, 110.131 74.839, 100.675 74.889 C 90.088 74.944, 84.376 72.244, 82.577 66.334 C 81.932 64.212, 77.504 62, 73.902 62 C 72.913 62, 70.889 63.125, 69.405 64.500 M 122.750 91.680 C 120.568 92.262, 120.450 95.575, 122.582 96.393 C 123.452 96.727, 127.432 97, 131.427 97 C 137.395 97, 139.009 96.647, 140.481 95.021 C 141.914 93.437, 141.995 92.954, 140.886 92.601 C 138.630 91.884, 124.649 91.174, 122.750 91.680 M 96.011 93.487 C 95.332 94.305, 95.047 95.681, 95.378 96.544 C 96.242 98.793, 106.695 97.799, 108.527 95.293 C 110.312 92.853, 108.775 92.034, 102.372 92.015 C 99.039 92.005, 96.813 92.520, 96.011 93.487 M 115.848 109.152 C 113.774 111.226, 113.763 111.353, 115.539 112.652 C 118.116 114.536, 126.466 114.391, 128.429 112.429 C 130.641 110.216, 130.392 109.099, 127.435 107.975 C 123.070 106.316, 118.189 106.811, 115.848 109.152 M 104.906 126.939 C 103.167 128.601, 101.979 130.651, 102.172 131.654 C 102.776 134.792, 108.809 138, 114.104 138 C 118.312 138, 119.445 137.509, 123.172 134.067 C 127.374 130.188, 127.406 130.106, 125.566 128.073 C 123.341 125.614, 118.096 124.013, 112.241 124.006 C 108.888 124.001, 107.327 124.625, 104.906 126.939" stroke="none" fill="black" fill-rule="evenodd"/>
</svg>