<svg xmlns="http://www.w3.org/2000/svg" width="256" height="256" viewBox="0 0 256 256" version="1.1">
	<path d="M 94.229 25.679 C 92.613 26.317, 90 31.319, 90 33.776 C 90 35.948, 86.840 39.089, 82.400 41.331 C 80.406 42.338, 78.264 44.877, 76.400 48.446 C 74.805 51.498, 73.107 53.996, 72.628 53.998 C 72.148 53.999, 72.211 54.563, 72.768 55.250 C 74.147 56.952, 77.004 71.250, 76.985 76.357 C 76.958 83.613, 75.548 84.166, 70.724 78.815 C 68.271 76.094, 65.452 73.997, 64 73.815 C 61.905 73.551, 61.187 74.193, 59.567 77.777 C 58.308 80.563, 56.810 82.261, 55.270 82.647 C 52.267 83.401, 51.949 83.039, 51.287 78.101 C 50.833 74.722, 51.058 73.936, 52.621 73.440 C 58.771 71.487, 63.455 67.626, 67.385 61.270 C 72.435 53.101, 70.040 50.343, 58.852 51.446 C 55.083 51.817, 52.008 51.756, 52.017 51.311 C 52.026 50.865, 53.369 48.250, 55 45.500 C 59.482 37.944, 58.588 30, 53.257 30 C 50.093 30, 43.601 38.305, 41.103 45.549 C 39.785 49.372, 37.648 54.623, 36.353 57.217 C 35.059 59.811, 34 62.605, 34 63.426 C 34 64.248, 35.800 66.585, 38 68.620 C 40.200 70.656, 42 72.861, 42 73.520 C 42 74.179, 40.656 77.369, 39.013 80.609 C 35.321 87.890, 35.243 90.274, 38.627 92.491 C 43.080 95.409, 47.070 96.215, 58.893 96.583 C 69.732 96.920, 70.425 96.820, 73.150 94.527 C 76.002 92.127, 76.798 92.066, 82.500 93.806 C 86.130 94.913, 93.004 98.991, 91.250 98.996 C 90.563 98.998, 90 99.567, 90 100.259 C 90 100.952, 88.987 102.190, 87.750 103.009 C 85.527 104.482, 82.340 104.793, 49.903 106.700 C 35.883 107.525, 33 108.437, 33 112.050 C 33 117.107, 47.132 121.205, 56.531 118.874 C 59.264 118.197, 64.425 117.574, 68 117.490 C 71.742 117.402, 76.522 116.525, 79.264 115.422 C 83.624 113.668, 84.261 113.636, 86.764 115.041 L 89.500 116.577 89.586 134.048 C 89.677 152.513, 90.279 155.424, 94.315 156.925 C 99.560 158.875, 100.616 155.633, 101.443 135.043 C 101.918 123.240, 102.426 119.186, 103.594 117.897 C 104.863 116.494, 107.948 116.102, 121.811 115.581 C 149.292 114.551, 150.685 114.317, 154.170 110.158 C 155.732 108.293, 155.727 108.063, 154.091 106.582 C 153.129 105.712, 151.590 105, 150.671 105 C 149.752 105, 149 104.508, 149 103.906 C 149 103.167, 147.363 103.037, 143.955 103.506 C 136.364 104.550, 126.941 104.341, 125.700 103.100 C 124.138 101.538, 119.871 101.738, 115.460 103.581 C 113.160 104.542, 110.466 104.921, 108.588 104.548 C 105.148 103.864, 101 100.822, 101 98.984 C 101 97.620, 104.814 94.318, 109.335 91.767 C 112.312 90.087, 112.477 90.100, 114.703 92.191 C 115.966 93.378, 117 94.929, 117 95.639 C 117 96.349, 117.911 97.417, 119.025 98.013 C 120.649 98.882, 121.988 98.587, 125.775 96.528 C 134.171 91.961, 135.757 91.870, 142.500 95.569 C 148.057 98.616, 148.729 98.762, 151.604 97.539 C 156.673 95.384, 159.281 90.772, 159.130 84.229 C 158.984 77.897, 156.738 74.541, 151.944 73.488 C 147.358 72.480, 146.320 70.430, 148.498 66.684 C 149.516 64.933, 150.624 63.275, 150.959 63 C 154.165 60.371, 156.053 56.234, 155.848 52.284 C 155.620 47.883, 154.962 46.833, 151.699 45.667 C 150.418 45.209, 148.764 46.180, 145.973 49.027 C 141.984 53.097, 137.575 55.473, 135.916 54.448 C 134.675 53.681, 134.747 49, 136 49 C 136.550 49, 137 48.307, 137 47.460 C 137 46.613, 137.909 44.139, 139.019 41.962 C 142.884 34.387, 137.254 25.018, 131.160 28.880 C 129.754 29.771, 127.836 32.785, 125.992 37 C 125.390 38.375, 123.972 41.296, 122.839 43.492 C 121.706 45.688, 120.576 48.609, 120.327 49.983 C 119.795 52.916, 117.110 56.186, 115.866 55.417 C 114.653 54.668, 114.783 49.617, 116.048 48.352 C 116.778 47.622, 116.745 46.534, 115.937 44.762 C 114.755 42.167, 113.354 41.227, 106.750 38.596 C 104.688 37.774, 102.944 36.404, 102.875 35.551 C 102.806 34.698, 102.638 33.550, 102.500 33 C 102.362 32.450, 102.194 31.411, 102.125 30.691 C 101.813 27.424, 97.211 24.503, 94.229 25.679 M 91.750 51.115 C 90.096 52.349, 89 54.115, 89 55.544 C 89 57.835, 92.412 62, 94.289 62 C 95.984 62, 102 55.213, 102 53.300 C 102 48.786, 96.456 47.604, 91.750 51.115 M 111.906 68.094 C 109.777 70.223, 109.761 70.906, 111.615 80.258 C 112.804 86.251, 120.180 85.421, 123.543 78.917 C 125.871 74.416, 125.075 70.951, 121.102 68.282 C 116.885 65.450, 114.597 65.403, 111.906 68.094 M 93 70.750 C 87.381 72.549, 87.914 84, 93.617 84 C 95.928 84, 100 79.343, 100 76.700 C 100 73.356, 95.858 69.835, 93 70.750 M 138.620 74.691 C 136.177 75.971, 135.870 76.598, 136.396 79.230 C 137.144 82.970, 139.817 85.168, 142.118 83.937 C 145.192 82.292, 145.513 78.998, 142.955 75.346 C 141.557 73.350, 141.264 73.306, 138.620 74.691 M 114.735 125.755 C 109.361 131.364, 111.828 137.815, 120.197 140.037 C 122.564 140.665, 125.400 141.978, 126.500 142.954 C 133.569 149.229, 147.454 152.968, 152.887 150.061 C 158.491 147.061, 150.325 139.308, 139.270 137.133 C 135.991 136.488, 132.592 135.181, 131.718 134.230 C 130.843 133.278, 128.411 130.603, 126.314 128.285 C 121.243 122.681, 118.296 122.038, 114.735 125.755 M 67 127.474 C 65.625 128.268, 63.038 129.695, 61.250 130.644 C 59.462 131.594, 58 132.737, 58 133.185 C 58 133.633, 57.380 134, 56.622 134 C 55.865 134, 54.709 134.646, 54.053 135.436 C 53.398 136.225, 51.430 137.180, 49.681 137.558 C 47.131 138.108, 39.492 141.394, 38.219 142.488 C 38.064 142.621, 37.754 143.680, 37.531 144.841 C 37.259 146.253, 38.015 147.658, 39.812 149.082 C 42.152 150.936, 43.447 151.152, 49.816 150.752 C 55.313 150.406, 57.800 149.759, 59.816 148.150 C 61.292 146.972, 64.127 145.128, 66.116 144.052 C 76.014 138.697, 78.522 133.432, 73.545 128.455 C 70.693 125.602, 70.333 125.548, 67 127.474" stroke="none" fill="black" fill-rule="evenodd"/>
</svg>