<svg xmlns="http://www.w3.org/2000/svg" width="256" height="256" viewBox="0 0 256 256" version="1.1">
	<path d="M 83 33.029 C 79.425 33.468, 72.675 34.113, 68 34.463 C 53.465 35.553, 42.932 37.026, 40.987 38.240 C 38.357 39.883, 36.678 43.409, 37.417 45.738 C 38.380 48.772, 41.655 49.716, 48.142 48.829 C 54.293 47.988, 59.007 49.029, 58.990 51.225 C 58.985 51.926, 57.927 57.581, 56.639 63.791 C 54.400 74.593, 54.107 75.270, 49.899 79.403 C 44.344 84.860, 42.961 86.618, 42.533 88.774 C 42.344 89.723, 40.954 92.871, 39.443 95.769 C 37.124 100.218, 36.872 101.424, 37.827 103.519 C 39.266 106.679, 41.569 106.657, 46.308 103.437 C 51.369 99.997, 57.241 99.866, 59.961 103.132 C 61.046 104.434, 61.948 106.028, 61.967 106.673 C 61.985 107.319, 63.048 109.119, 64.330 110.673 C 67.588 114.626, 68.027 116.319, 66.875 120.490 C 65.928 123.922, 62.548 127.659, 47.077 142.379 C 42.630 146.611, 42.184 148.042, 44.571 150.429 C 47.999 153.856, 54.715 152.064, 62.099 145.750 C 67.002 141.559, 77 128.930, 77 126.929 C 77 124.970, 80.187 119.752, 83.897 115.636 C 89.304 109.637, 93.421 98.013, 94.971 84.371 C 96.437 71.464, 95.670 67.583, 90.857 63.533 C 87.150 60.414, 84.392 60.349, 78.440 63.241 C 73.901 65.447, 73.803 65.452, 72.413 63.550 C 71.636 62.487, 70.925 59.679, 70.833 57.309 C 70.742 54.939, 70.629 52.280, 70.583 51.400 C 70.362 47.148, 90.661 43.618, 100.500 46.197 L 105.500 47.508 105.217 51.504 C 105.061 53.702, 105 59.325, 105.081 64 C 105.325 78.030, 105.242 81.164, 104.419 89 C 103.986 93.125, 103.614 98.412, 103.592 100.750 C 103.571 103.088, 103.204 105, 102.776 105 C 102.349 105, 102.084 105.338, 102.186 105.750 C 102.288 106.163, 101.974 109.425, 101.487 113 C 99.994 123.974, 101.631 133.725, 105.726 138.249 C 107.258 139.942, 116.756 144.788, 124.762 147.960 C 128.519 149.449, 133.780 149.606, 143 148.505 C 151.396 147.502, 154.322 145.948, 156.513 141.331 C 158.583 136.969, 158.682 135.977, 157.615 130.244 C 156.263 122.986, 152.208 121.833, 145.018 126.662 C 141.971 128.708, 141.815 129, 143.768 129 C 145.342 129, 146 129.596, 146 131.025 C 146 133.595, 142.259 135.076, 136.130 134.933 C 133.584 134.874, 129.925 134.790, 128 134.747 C 126.075 134.705, 123.109 135.011, 121.410 135.428 C 118.611 136.115, 118.201 135.900, 117.064 133.153 C 116.373 131.485, 116.099 129.649, 116.456 129.071 C 116.813 128.494, 116.369 126.472, 115.470 124.578 C 113.770 120.996, 113.352 115.234, 113.959 103.756 C 114.456 94.337, 117.460 89.719, 121.500 92.160 C 122.891 93.001, 146.357 92.515, 147.813 91.616 C 149.491 90.578, 149.287 86.429, 147.468 84.611 C 146.625 83.768, 144.272 82.766, 142.238 82.385 C 140.205 82.003, 137.181 80.862, 135.520 79.849 C 131.856 77.615, 128.654 77.489, 126.643 79.500 C 125.818 80.325, 124.462 81, 123.630 81 C 122.799 81, 121.852 81.430, 121.527 81.956 C 120.313 83.921, 118.051 81.670, 116.477 76.931 C 115.267 73.287, 115.044 70.564, 115.604 66.268 C 116.019 63.096, 116.389 57.853, 116.429 54.617 L 116.500 48.735 121 47.297 C 123.475 46.507, 130.450 45.665, 136.500 45.426 C 142.550 45.188, 148.512 44.469, 149.750 43.828 C 152.736 42.281, 152.652 38.561, 149.561 35.470 L 147.121 33.030 122.311 33.186 C 108.665 33.272, 95.700 33.092, 93.500 32.787 C 91.300 32.482, 86.575 32.591, 83 33.029 M 62 76.263 C 59.733 77.431, 59.473 78.224, 59.207 84.760 C 59.025 89.218, 59.393 92.833, 60.171 94.234 C 60.863 95.481, 61.445 96.797, 61.465 97.159 C 61.534 98.450, 66.559 101.626, 70.249 102.710 C 74.784 104.043, 78.352 102.714, 80.011 99.074 C 81.337 96.167, 83.517 80.184, 82.699 79.366 C 82.383 79.050, 79.059 78.179, 75.312 77.431 C 71.566 76.683, 67.600 75.825, 66.500 75.523 C 65.400 75.222, 63.375 75.555, 62 76.263" stroke="none" fill="black" fill-rule="evenodd"/>
</svg>