<svg xmlns="http://www.w3.org/2000/svg" width="256" height="256" viewBox="0 0 256 256" version="1.1">
	<path d="M 64.500 26.961 C 56.476 28.661, 42.785 32.975, 39.018 34.990 C 37.912 35.582, 36.155 37.739, 35.113 39.783 C 33.370 43.206, 33.275 45.040, 33.911 63 C 34.877 90.262, 33.550 119.655, 30.926 129.130 C 27.302 142.212, 27.061 143.582, 27.858 146.564 C 28.834 150.215, 33.254 152.180, 35.469 149.949 C 37.204 148.201, 43 130.819, 43 127.364 C 43 126.014, 44.069 123.840, 45.375 122.534 C 47.467 120.442, 48.702 120.152, 55.723 120.106 C 60.108 120.077, 64.443 119.767, 65.356 119.417 C 67.217 118.703, 72 121.422, 72 123.194 C 72 123.826, 71.230 125.193, 70.290 126.232 C 68.895 127.773, 68.828 128.276, 69.927 128.955 C 70.893 129.552, 71.132 131.270, 70.772 135.017 C 70.312 139.806, 69.817 140.664, 64.885 145.205 L 59.500 150.163 61.796 152.029 C 64.567 154.281, 71.172 153.846, 80.443 150.801 C 85.562 149.119, 86.982 149.015, 90.677 150.049 C 98.746 152.309, 110.391 149.382, 121.126 142.396 C 123.626 140.769, 123.890 140.781, 126.626 142.641 C 128.207 143.715, 133.521 146.308, 138.435 148.402 C 146.327 151.765, 148.108 152.162, 153.683 151.807 C 161.146 151.332, 162.793 150.158, 161.432 146.287 C 160.659 144.089, 159.030 143.022, 152.987 140.758 C 148.869 139.215, 142.688 137.673, 139.250 137.332 C 133.697 136.780, 133 136.469, 133 134.544 C 133 133.352, 133.938 131.370, 135.086 130.139 C 136.233 128.907, 138.298 124.548, 139.676 120.450 C 141.054 116.353, 142.533 113, 142.963 113 C 143.393 113, 143.966 110.704, 144.236 107.897 C 144.608 104.026, 145.341 102.275, 147.269 100.647 C 151.521 97.057, 152.162 94.796, 149.958 91.171 C 148.897 89.427, 147.910 87.977, 147.765 87.949 C 144.082 87.240, 113.714 86.501, 111.236 87.059 C 108.276 87.727, 107.384 87.475, 105.287 85.378 C 103.757 83.848, 103.057 82.294, 103.444 81.285 C 103.787 80.391, 104.513 77.599, 105.057 75.080 C 106.293 69.361, 108.004 65, 109.012 65 C 109.868 65, 110.703 60.370, 111.384 51.837 C 112.177 41.908, 114.107 40.352, 124.182 41.521 C 131.199 42.335, 134.626 44.852, 133.471 48.342 C 130.159 58.350, 133.302 66.574, 145.296 79.284 C 147.690 81.819, 148.609 82.163, 151.670 81.666 C 155.732 81.007, 159 78.490, 159 76.020 C 159 74.255, 158.195 73.355, 151 67.078 L 146.500 63.151 146.199 50.326 C 145.703 29.205, 145.659 29.167, 121.355 29.362 C 100.176 29.532, 100.004 29.621, 99.992 40.405 C 99.979 52.955, 98.277 64.314, 96.149 66.060 C 92.503 69.052, 90.720 73.948, 91.467 78.916 C 91.847 81.437, 92.109 84.625, 92.049 86 C 91.989 87.375, 91.873 89.908, 91.790 91.630 C 91.708 93.351, 92.821 97.176, 94.264 100.130 C 95.707 103.083, 97.190 107.037, 97.560 108.916 C 97.929 110.795, 98.636 112.820, 99.130 113.416 C 102.601 117.605, 105 122.561, 105 125.544 C 105 127.949, 105.456 129, 106.500 129 C 108.803 129, 108.255 133.272, 105.719 135.091 C 104.498 135.966, 102.278 136.983, 100.785 137.351 C 99.292 137.719, 95.961 139.444, 93.383 141.184 L 88.695 144.347 86.366 141.639 C 84.323 139.263, 84.044 137.923, 84.093 130.716 C 84.124 126.197, 83.666 121.233, 83.075 119.685 C 82.484 118.137, 82 115.374, 82 113.546 C 82 111.717, 81.169 109.196, 80.154 107.942 C 78.311 105.666, 78.288 105.664, 65.404 106.831 C 58.307 107.473, 51.334 108.263, 49.908 108.586 C 48.196 108.973, 46.752 108.610, 45.658 107.515 C 43.504 105.362, 43.560 103.440, 45.843 101.157 C 47.467 99.533, 48.937 99.370, 58.237 99.783 C 66.394 100.146, 70.003 99.868, 74.144 98.559 C 83.324 95.655, 83.294 95.707, 83.522 82.241 C 83.669 73.573, 84.158 69.596, 85.361 67.269 C 88.978 60.275, 85.832 53.465, 77.884 51.083 C 71.680 49.225, 60.118 48.970, 55.463 50.591 C 49.905 52.525, 48.064 52.340, 47.086 49.750 C 45.003 44.234, 49.655 41.787, 65.500 40.068 C 71.550 39.412, 77.513 38.217, 78.750 37.414 C 83.155 34.555, 80.602 26.556, 75 25.665 C 73.625 25.446, 68.900 26.030, 64.500 26.961 M 48.267 61.875 C 47.511 62.632, 47.029 64.657, 47.196 66.375 L 47.500 69.500 56.225 69.789 C 67.165 70.150, 71.394 68.485, 70.370 64.219 C 70.012 62.723, 69.523 61.279, 69.284 61.008 C 69.046 60.738, 64.529 60.513, 59.247 60.508 C 52.421 60.502, 49.245 60.898, 48.267 61.875 M 47.250 82.496 C 45.494 84.490, 45.695 87.669, 47.624 88.409 C 49.825 89.254, 63.837 88.110, 67.250 86.807 C 72.690 84.730, 70.632 83.544, 58.958 82.030 C 49.335 80.781, 48.739 80.805, 47.250 82.496 M 109.143 100.857 C 106.975 103.025, 106.334 105, 107.799 105 C 108.239 105, 109.163 106.562, 109.853 108.470 C 110.935 111.461, 116.146 116.494, 118.167 116.498 C 118.533 116.499, 119.118 116.785, 119.466 117.133 C 120.321 117.988, 124.844 115.810, 125.451 114.250 C 125.718 113.563, 125.443 113, 124.840 113 C 123.405 113, 132.149 105.095, 133.643 105.041 C 135.721 104.966, 135.835 102.378, 133.816 101.117 C 132.725 100.436, 127.209 99.617, 121.559 99.297 C 111.977 98.754, 111.141 98.859, 109.143 100.857" stroke="none" fill="black" fill-rule="evenodd"/>
</svg>