<svg xmlns="http://www.w3.org/2000/svg" width="256" height="256" viewBox="0 0 256 256" version="1.1">
	<path d="M 114.184 31.584 C 110.447 34.201, 109.513 39.766, 110.967 50.758 C 112.160 59.781, 112.116 60.789, 110.377 64.421 C 108.698 67.928, 107.859 68.522, 102.432 70.041 C 97.329 71.470, 96.075 71.528, 94.542 70.407 C 92.958 69.249, 92.811 68.187, 93.411 62.287 C 94.636 50.255, 94.180 48.788, 88.800 47.470 C 86.680 46.950, 85.527 47.382, 83.430 49.479 C 80.791 52.118, 80.764 52.286, 81.130 63.825 L 81.500 75.500 76.103 78.073 C 67.085 82.372, 64.657 87.450, 69.461 91.963 C 71.429 93.812, 72.638 94.158, 75.507 93.693 C 78.552 93.198, 79.228 93.442, 79.988 95.305 C 81.486 98.979, 83.075 119.318, 82.434 126.625 C 81.062 142.279, 90.921 154.597, 106.500 156.693 C 115.544 157.910, 141.842 157.564, 147 156.160 C 158.577 153.010, 161.888 148.780, 158.449 141.534 C 156.359 137.129, 154.489 137.063, 148.395 141.175 C 144.889 143.542, 142.264 144.460, 138.095 144.778 C 127.862 145.558, 116.500 144.898, 106.701 142.953 C 104.061 142.429, 100.623 142, 99.059 142 C 96.664 142, 95.936 141.333, 94.424 137.750 C 92.938 134.229, 92.571 129.899, 92.282 112.500 C 91.973 93.879, 92.136 91.104, 93.719 88 C 95.244 85.012, 95.943 84.547, 98.502 84.822 C 102.977 85.302, 106.343 87.216, 107.626 90.009 C 108.256 91.379, 109.004 97.724, 109.288 104.108 C 109.605 111.210, 110.325 116.548, 111.144 117.858 C 112.830 120.558, 116.140 120.608, 118.527 117.970 C 120.340 115.967, 120.569 109.426, 119.723 83.792 C 119.634 81.074, 120.471 78.872, 122.860 75.545 C 126.735 70.149, 127.944 69.427, 134.500 68.596 C 142.249 67.614, 142.343 67.799, 141.619 82.635 C 141.274 89.711, 140.648 97.075, 140.229 99 C 139.082 104.259, 139.810 107.805, 142.190 108.560 C 143.770 109.062, 145.284 108.190, 148.614 104.858 C 152.968 100.504, 152.972 100.491, 154.138 90 C 154.780 84.225, 155.190 77.925, 155.050 76 C 154.618 70.097, 154.668 68.648, 155.454 64.388 C 156.108 60.840, 155.898 59.983, 153.931 58.150 C 150.655 55.098, 146.530 54.654, 137.997 56.434 C 123.405 59.478, 122.019 58.473, 122.239 45 C 122.383 36.183, 121.389 32.814, 118.132 31.070 C 116.834 30.376, 115.697 30.524, 114.184 31.584 M 40.174 40.314 C 36.003 44.754, 37.444 49.178, 44.172 52.587 C 46.879 53.959, 49.346 55.738, 49.654 56.541 C 50.722 59.324, 55.591 58.230, 58.896 54.465 C 64.167 48.463, 62.949 45.035, 53.923 40.461 C 47.705 37.310, 43.043 37.261, 40.174 40.314 M 36.348 71.767 C 33.545 72.218, 31.580 77.023, 32.323 81.606 C 33.026 85.934, 34.008 87.188, 39.695 91.027 C 45.293 94.805, 51.257 95.106, 54.056 91.750 C 57.062 88.147, 56.363 85.868, 50.250 79.346 C 44.571 73.287, 40.544 71.091, 36.348 71.767 M 56.250 110.220 C 54.363 111.131, 54 112.109, 54 116.287 C 54 124.753, 52.203 128.638, 44.775 136.230 C 37.916 143.241, 34.459 148.315, 35.450 149.919 C 36.446 151.531, 41.194 152.091, 44.531 150.990 C 49.918 149.212, 60.094 137.036, 62.395 129.613 C 65.367 120.029, 65.577 113.965, 63.032 111.250 C 60.709 108.773, 59.601 108.604, 56.250 110.220" stroke="none" fill="black" fill-rule="evenodd"/>
</svg>