<svg xmlns="http://www.w3.org/2000/svg" width="256" height="256" viewBox="0 0 256 256" version="1.1">
	<path d="M 84.038 21.189 C 82.916 22.394, 81.158 25.656, 80.130 28.439 C 77.829 34.671, 76.165 35.574, 63.462 37.481 C 58.115 38.283, 52.653 39.652, 51.325 40.523 C 47.762 42.858, 46.468 46.296, 47.869 49.705 C 48.501 51.242, 49.475 56.775, 50.033 62 C 50.591 67.225, 51.454 73.975, 51.951 77 C 52.447 80.025, 52.887 83.255, 52.927 84.179 C 53.064 87.323, 55.919 89, 61.137 89 C 63.884 89, 67.011 89.471, 68.086 90.046 C 69.461 90.782, 71.777 90.751, 75.891 89.942 C 83.432 88.458, 86.137 89.638, 85.878 94.300 C 85.781 96.060, 86.474 100.510, 87.418 104.189 C 88.726 109.281, 88.873 111.369, 88.033 112.937 C 87.384 114.151, 87.188 116.951, 87.556 119.749 C 87.994 123.077, 87.534 127.046, 86.021 133 C 83.691 142.167, 81.779 146, 79.534 146 C 77.664 146, 75 149.879, 75 152.600 C 75 156.808, 79.102 158.557, 85.177 156.941 C 90.145 155.619, 93.597 151.275, 94.411 145.321 C 97.058 125.967, 99.731 120.553, 105.372 123.123 C 106.811 123.779, 108.817 125.719, 109.829 127.435 C 113.115 133.004, 118.117 138, 120.407 138 C 121.616 138, 124.509 139.399, 126.835 141.110 C 132.735 145.449, 145.898 152, 148.716 152 C 152.202 152, 157.934 149.337, 158.690 147.365 C 159.822 144.417, 152.383 138.840, 143.799 136.201 C 139.686 134.937, 134.786 132.867, 132.910 131.602 C 131.035 130.337, 127.813 128.508, 125.750 127.537 C 122.649 126.078, 122 125.256, 122 122.790 C 122 120.323, 123.729 118.137, 132 110.144 C 142.675 99.828, 143.481 98.153, 139.939 93.650 C 138.805 92.208, 137.896 90.235, 137.917 89.265 C 138.222 75.680, 138.890 68.065, 139.949 66.089 C 140.762 64.574, 141.269 59.669, 141.314 52.881 C 141.393 41.076, 140.749 39.473, 134.666 36.327 C 130.631 34.240, 115.457 33.453, 107.906 34.939 C 100.013 36.491, 97 35.274, 97 30.531 C 97 28.809, 96.460 26.860, 95.800 26.200 C 95.140 25.540, 94.999 25, 95.487 25 C 95.975 25, 95.081 23.650, 93.500 22 C 90.098 18.449, 86.850 18.171, 84.038 21.189 M 80.500 46.961 C 76.650 48.019, 71.834 48.911, 69.797 48.942 C 62.681 49.053, 58.949 52.167, 61.104 56.195 C 62.059 57.980, 62.801 58.157, 66.851 57.571 C 82.784 55.264, 91.310 54.679, 105.789 54.897 C 124.520 55.178, 128 54.708, 128 51.896 C 128 49.009, 123.998 47.848, 110.500 46.818 C 103.900 46.315, 96.025 45.708, 93 45.470 C 89.435 45.189, 85.037 45.714, 80.500 46.961 M 104.663 66.658 C 104.573 66.745, 95.725 67.356, 85 68.015 C 64.338 69.285, 61.536 70.016, 60.431 74.420 C 59.052 79.914, 64.633 83.046, 69.602 79.567 C 71.110 78.510, 76.228 78, 89.074 77.627 C 98.658 77.349, 108.829 76.828, 111.675 76.469 C 114.522 76.110, 117.602 76.238, 118.521 76.752 C 121.381 78.352, 124.690 76.990, 126.612 73.421 C 129.307 68.418, 127.861 67.593, 115.367 67 C 109.569 66.725, 104.753 66.571, 104.663 66.658 M 110 90.005 C 99.005 91.037, 98.647 91.285, 99.448 97.322 C 100.286 103.637, 101.461 105.845, 104.626 107.048 C 108.415 108.489, 115.911 108.114, 121.480 106.206 C 125.555 104.810, 127.143 103.516, 130.230 99.079 C 134.518 92.914, 134.570 92.713, 132.429 90.571 C 130.723 88.866, 123.964 88.695, 110 90.005 M 67.881 101.230 C 66.440 102.311, 64.190 103.142, 62.881 103.077 C 59.661 102.916, 41.919 102.783, 39.817 102.903 C 37.631 103.029, 36.596 106.376, 37.957 108.919 C 39.171 111.187, 44.752 112.521, 54.561 112.886 C 58.313 113.026, 62.150 116.333, 61.373 118.757 C 59.276 125.300, 56.764 128.574, 52.484 130.344 C 46.924 132.643, 38.326 139.398, 37.451 142.154 C 36.610 144.804, 38.986 147.250, 42.402 147.250 C 46.775 147.250, 56.361 143.100, 60.278 139.512 C 62.326 137.636, 65.559 134.913, 67.462 133.461 C 69.742 131.722, 71.613 128.976, 72.945 125.416 C 74.058 122.444, 76.100 118.218, 77.484 116.026 C 80.738 110.871, 80.760 106.112, 77.548 102.646 C 76.199 101.191, 74.737 99.966, 74.298 99.923 C 73.859 99.881, 72.825 99.716, 72 99.555 C 71.175 99.395, 69.321 100.148, 67.881 101.230" stroke="none" fill="black" fill-rule="evenodd"/>
</svg>