<svg xmlns="http://www.w3.org/2000/svg" width="256" height="256" viewBox="0 0 256 256" version="1.1">
	<path d="M 116.722 32.011 C 115.775 33.118, 115.022 34.805, 115.048 35.761 C 115.141 39.143, 118.543 44.485, 121.873 46.479 C 123.729 47.591, 127.329 50.354, 129.873 52.620 C 134.650 56.874, 148.217 66.207, 151.177 67.276 C 152.328 67.691, 153.674 66.806, 155.468 64.453 C 157.601 61.657, 157.884 60.651, 157.002 59.004 C 155.768 56.697, 149.358 51.515, 139.742 45.050 C 136.102 42.602, 132.533 39.489, 131.812 38.131 C 130.109 34.926, 123.299 30, 120.572 30 C 119.402 30, 117.669 30.905, 116.722 32.011 M 91.358 33.772 C 90.180 34.723, 88.458 37.007, 87.531 38.849 C 86.605 40.691, 81.831 46.096, 76.923 50.862 C 71.269 56.352, 68 60.295, 68 61.628 C 68 64.577, 71.738 69, 74.230 69 C 78.103 69, 94 55.047, 94 51.647 C 94 50.906, 95.364 48.416, 97.032 46.114 C 101.579 39.837, 101.878 36.761, 98.193 34.138 C 94.594 31.574, 94.114 31.549, 91.358 33.772 M 38.557 39.223 C 34.958 44.360, 37.158 49.295, 44.493 52.539 C 47.421 53.834, 50.109 55.367, 50.467 55.947 C 50.825 56.526, 52.634 57, 54.486 57 C 58.529 57, 62 53.246, 62 48.874 C 62 46, 61.087 45.272, 48.686 38.265 C 45.113 36.246, 40.325 36.698, 38.557 39.223 M 100.339 57.475 C 99.181 58.286, 96.769 61.999, 94.980 65.725 C 93.190 69.451, 91.429 72.725, 91.065 73 C 90.701 73.275, 89.317 75.075, 87.989 77 C 84.733 81.719, 83.367 82.678, 77.356 84.465 C 65.275 88.057, 61.022 100.814, 70.410 105.299 C 72.957 106.516, 73.986 107.568, 73.588 108.549 C 73.265 109.347, 72.740 110.642, 72.421 111.426 C 72.015 112.426, 72.687 112.949, 74.671 113.176 C 77.014 113.444, 77.552 114.030, 77.801 116.587 C 77.967 118.285, 77.435 121.611, 76.620 123.977 C 75.352 127.656, 75.340 128.482, 76.531 129.674 C 78.516 131.659, 79.988 137.640, 79.994 143.750 C 79.999 147.721, 80.504 149.504, 82.070 151.070 C 84.090 153.090, 84.811 153.128, 111.564 152.622 C 135.911 152.161, 139.260 151.901, 141.415 150.301 C 144.526 147.992, 145.309 143.773, 143.894 136.939 C 143.275 133.947, 142.655 129.270, 142.516 126.544 C 142.378 123.818, 141.762 121.421, 141.147 121.216 C 138.723 120.408, 142.391 115.738, 153.750 105.176 C 155.537 103.514, 157 101.280, 157 100.212 C 157 96.015, 150.969 91.031, 144.052 89.511 C 142.419 89.153, 139.822 87.429, 138.279 85.680 C 136.736 83.931, 132.003 79.636, 127.761 76.135 C 121.434 70.914, 119.930 69.117, 119.392 66.135 C 119.032 64.136, 118.333 61.717, 117.839 60.760 C 115.608 56.438, 104.734 54.397, 100.339 57.475 M 35.406 75.503 C 33.157 77.752, 32.839 78.760, 33.297 82.175 C 34.141 88.468, 39.411 92.026, 47.797 91.967 C 54.120 91.922, 57.439 89.275, 56.505 85.022 C 56.140 83.360, 55.467 82, 55.010 82 C 54.553 82, 51.970 80.254, 49.270 78.119 C 42.494 72.763, 38.836 72.073, 35.406 75.503 M 106.465 74.952 C 105.346 75.405, 103.797 76.540, 103.023 77.473 C 102.249 78.405, 99.677 80.502, 97.308 82.132 C 94.938 83.762, 93 85.727, 93 86.498 C 93 87.270, 92.386 88.260, 91.635 88.700 C 90.885 89.140, 89.540 90.931, 88.646 92.680 C 87.752 94.429, 85.216 96.875, 83.010 98.114 C 80.051 99.778, 79 101.004, 79 102.795 C 79 105.200, 79.059 105.215, 85.750 104.448 C 94.652 103.428, 101.067 103.488, 115.267 104.725 C 121.739 105.289, 129.051 105.523, 131.517 105.245 C 135.326 104.816, 136 104.407, 136 102.525 C 136 100.327, 133.222 97, 131.387 97 C 130.861 97, 129.659 95.693, 128.715 94.095 C 127.771 92.497, 124.862 89.961, 122.249 88.459 C 115.352 84.495, 113 82.054, 113 78.861 C 113 77.125, 112.269 75.679, 111.066 75.035 C 108.865 73.857, 109.152 73.863, 106.465 74.952 M 52.609 121.020 C 51.724 123.231, 51 125.737, 51 126.588 C 51 127.439, 48.984 130.610, 46.520 133.634 C 41.162 140.212, 38.915 146.349, 41.079 148.498 C 43.642 151.044, 49.437 147.211, 56.023 138.612 C 57.660 136.474, 59.010 134.224, 59.022 133.612 C 59.034 133.001, 59.924 131.375, 61 130 C 63.542 126.750, 63.515 122.925, 60.927 119.635 C 57.758 115.605, 54.562 116.138, 52.609 121.020 M 93.236 119.003 C 90.141 120.885, 90 121.243, 90.004 127.235 C 90.006 131.617, 90.577 134.433, 91.900 136.604 L 93.793 139.708 107.647 140.392 C 128.529 141.423, 128.926 141.376, 130.942 137.609 C 132.603 134.505, 132.628 130.006, 130.990 128.994 C 130.037 128.405, 129.986 127.478, 130.783 125.192 C 131.363 123.530, 131.573 121.907, 131.252 121.585 C 130.930 121.263, 131.304 120.990, 132.083 120.978 C 132.950 120.964, 132.545 120.222, 131.039 119.064 C 128.870 117.397, 126.671 117.164, 112.525 117.104 C 98.248 117.042, 96.114 117.252, 93.236 119.003" stroke="none" fill="black" fill-rule="evenodd"/>
</svg>