<svg xmlns="http://www.w3.org/2000/svg" width="256" height="256" viewBox="0 0 256 256" version="1.1">
	<path d="M 109.974 26.750 C 108.109 29.113, 107.895 30.274, 108.456 35 C 109.822 46.509, 108.338 51, 103.168 51 C 97.741 51, 96.608 49.128, 97.331 41.354 C 98.066 33.444, 96.604 30, 92.511 30 C 88.833 30, 85.205 36.506, 82.044 48.773 C 80.971 52.935, 78.685 56.416, 74.672 60.001 C 71.726 62.632, 71.504 63.285, 71.554 69.167 C 71.583 72.650, 71.733 77.300, 71.886 79.500 C 72.039 81.700, 72.066 85.495, 71.946 87.934 C 71.657 93.787, 74.529 96.351, 83.050 97.852 C 91.941 99.418, 93.712 100.824, 93.518 106.167 C 93.342 111.005, 92.955 112.489, 89.256 122.500 C 86.210 130.747, 82.848 135.526, 78.586 137.671 C 73.970 139.994, 69 145.108, 69 147.536 C 69 149.687, 72.459 152, 75.675 152 C 78.562 152, 87.515 146.163, 92.171 141.244 C 99.479 133.527, 104.748 121.330, 105.876 109.526 C 106.796 99.888, 108.385 98, 115.572 98 C 118.796 98, 120.989 98.468, 121.236 99.209 C 121.458 99.873, 121.036 103.811, 120.299 107.959 C 119.562 112.106, 119.064 116.625, 119.192 118.001 C 119.321 119.376, 119.085 121.053, 118.669 121.727 C 118.252 122.401, 117.643 125.223, 117.314 127.998 C 116.844 131.963, 117.228 134.332, 119.105 139.057 C 121.823 145.900, 125.782 149.293, 132.895 150.875 C 135.313 151.413, 137.563 152.233, 137.895 152.697 C 138.922 154.129, 143.955 156, 146.783 156 C 150.306 156, 159.858 151.134, 161.178 148.667 C 162.611 145.989, 161.350 139.156, 158.702 135.257 C 157.099 132.896, 155.735 132.012, 153.691 132.007 C 152.072 132.003, 151.144 132.424, 151.500 133 C 151.840 133.550, 151.671 134, 151.124 134 C 150.577 134, 148.863 135.773, 147.315 137.940 C 144.795 141.467, 142.505 143.065, 139.500 143.391 C 138.950 143.451, 138.149 143.950, 137.720 144.500 C 137.251 145.101, 135.556 143.938, 133.470 141.583 C 130.360 138.073, 129.363 135.492, 129.963 132.505 C 130.073 131.958, 130.113 124.455, 130.051 115.833 C 129.980 106.026, 130.324 99.918, 130.969 99.519 C 133.409 98.011, 131.603 96.990, 126.250 96.849 C 122.365 96.747, 123.905 96.466, 131 95.984 C 150.760 94.639, 155.237 93.299, 156.589 88.322 C 158.140 82.613, 154.979 80.835, 145.692 82.194 C 143.047 82.581, 136.598 83, 131.360 83.126 C 124.026 83.301, 121.635 83.027, 120.959 81.934 C 119.709 79.911, 120.917 69.142, 122.859 65 C 124.216 62.106, 125.106 61.449, 128 61.203 C 142.843 59.945, 150.953 55.931, 149.594 50.518 L 148.923 47.845 138.712 48.476 C 133.095 48.823, 127.600 49.278, 126.500 49.489 C 122.782 50.200, 120.472 45.462, 120.699 37.589 C 120.900 30.612, 119.989 27.510, 117.087 25.282 C 114.550 23.334, 112.305 23.798, 109.974 26.750 M 37.264 39.250 C 32.480 44.413, 34.222 47.707, 45.277 54.405 C 54.120 59.763, 55.523 59.740, 59.386 54.165 C 63.697 47.943, 63.138 46.769, 53.387 41.582 C 43.735 36.447, 40.319 35.953, 37.264 39.250 M 88.026 68.204 C 82.784 74.196, 77.997 80.664, 78.007 81.741 C 78.016 82.748, 83.803 86.622, 87.210 87.902 C 91.021 89.334, 105.759 86.685, 108.340 84.105 C 109.999 82.445, 110.161 81.327, 109.557 75.692 C 108.729 67.954, 107.626 66.207, 102.427 64.397 C 95.317 61.922, 92.981 62.540, 88.026 68.204 M 33.061 72.427 C 32.410 73.211, 31.851 75.718, 31.819 77.996 C 31.742 83.602, 35.853 88.697, 42 90.612 C 44.475 91.382, 47.882 92.460, 49.571 93.007 C 54.039 94.452, 55.019 94.272, 57.553 91.537 C 59.597 89.331, 59.719 88.694, 58.717 85.429 C 58.101 83.423, 56.901 81.542, 56.049 81.248 C 55.197 80.954, 52.396 78.980, 49.825 76.861 C 42.783 71.057, 35.743 69.195, 33.061 72.427 M 56.289 111.273 C 54.324 112.160, 54.090 112.980, 54.187 118.663 C 54.280 124.118, 53.944 125.432, 51.898 127.615 C 50.579 129.023, 48.104 130.759, 46.399 131.474 C 44.693 132.189, 42.248 134.287, 40.964 136.137 C 39.681 137.987, 37.140 141.189, 35.316 143.253 C 31.316 147.780, 30.913 151.689, 34.358 152.554 C 38.260 153.533, 43.604 150.491, 50.180 143.547 C 55.080 138.373, 56.690 135.867, 57.734 131.787 C 58.464 128.935, 58.856 126.068, 58.606 125.416 C 58.356 124.763, 58.725 123.390, 59.426 122.365 C 62.287 118.182, 62.444 111.755, 59.712 110.730 C 59.045 110.480, 57.505 110.725, 56.289 111.273" stroke="none" fill="black" fill-rule="evenodd"/>
</svg>