<svg xmlns="http://www.w3.org/2000/svg" width="256" height="256" viewBox="0 0 256 256" version="1.1">
	<path d="M 106.048 28.179 C 104.479 29.864, 104.046 31.596, 104.144 35.814 C 104.244 40.182, 103.893 41.492, 102.385 42.385 C 99.380 44.162, 91.860 45.960, 87.339 45.981 C 82.400 46.004, 72.357 49.626, 71.574 51.667 C 70.596 54.218, 74.004 57.926, 78.359 59.050 C 80.637 59.638, 83.255 60.337, 84.177 60.604 C 86.795 61.360, 85.763 65.594, 81.807 70.327 C 79.876 72.637, 77.578 75.916, 76.699 77.614 C 74.681 81.518, 75.811 83.387, 82.970 87.981 C 88.326 91.418, 89.286 93.921, 86.451 97.055 C 85.348 98.273, 84.727 101.899, 84.296 109.633 C 83.900 116.745, 83.058 121.985, 81.861 124.796 C 80.138 128.841, 75.851 135.276, 73.396 137.500 C 70.835 139.821, 69 143.660, 69 146.699 C 69 154.097, 78.168 154.408, 81.982 147.140 C 83.032 145.138, 85.506 141.827, 87.479 139.782 C 92.482 134.596, 93.749 130.159, 95.057 113.242 C 96.057 100.302, 96.005 98.136, 94.625 95.525 C 92.099 90.742, 93.973 90.262, 112.617 90.925 C 118.035 91.117, 121.526 90.767, 123.117 89.872 C 124.851 88.897, 129.784 88.557, 141.227 88.625 C 155.609 88.711, 157.004 88.563, 157.533 86.897 C 158.234 84.686, 156.422 81, 154.634 81 C 153.921 81, 152.713 79.833, 151.949 78.406 C 151.186 76.979, 148.499 74.766, 145.979 73.489 C 141.978 71.462, 139.337 68.317, 138.431 64.500 C 138.300 63.950, 137.915 62.812, 137.575 61.971 C 136.474 59.253, 139.243 57.042, 144.500 56.442 C 155.495 55.186, 157.535 53.834, 155.827 48.932 C 153.945 43.535, 152.027 43.007, 135.259 43.266 C 125.480 43.417, 119.734 43.119, 119.033 42.423 C 118.436 41.831, 117.669 39.005, 117.330 36.142 C 116.844 32.035, 116.095 30.416, 113.780 28.469 C 110.173 25.433, 108.659 25.377, 106.048 28.179 M 37.826 39.712 C 31.294 43.765, 32.440 48.775, 40.829 52.839 C 44.075 54.411, 47.791 56.441, 49.088 57.349 C 53.151 60.195, 56.452 59.458, 60.422 54.820 C 62.390 52.521, 64 50.321, 64 49.931 C 64 47.724, 59.463 44.623, 51.694 41.518 C 41.635 37.499, 41.435 37.473, 37.826 39.712 M 118.500 57 C 117.400 57.473, 113.709 57.891, 110.297 57.930 C 101.303 58.032, 99.369 59.220, 97.449 65.822 C 94.430 76.208, 97.395 81.561, 105.690 80.704 C 114.062 79.838, 123.930 77.374, 125.801 75.680 C 126.913 74.674, 127.688 72.406, 127.819 69.773 C 127.937 67.423, 128.283 64.276, 128.589 62.780 C 129.057 60.493, 128.617 59.737, 125.823 58.033 C 122.193 55.820, 121.480 55.720, 118.500 57 M 34.915 77.931 C 31.871 80.975, 31.190 84.619, 33.026 88.048 C 34.197 90.237, 44.821 95.496, 49.908 96.404 C 54.381 97.203, 60.647 94.359, 61.478 91.152 C 62.216 88.306, 57.835 82, 55.121 82 C 54.143 82, 51.353 80.709, 48.921 79.132 C 46.490 77.554, 42.999 75.982, 41.165 75.640 C 38.364 75.116, 37.363 75.483, 34.915 77.931 M 107.042 100.765 C 105.129 102.314, 104.876 103.449, 104.982 110.015 C 105.049 114.132, 105.077 118.850, 105.044 120.500 C 104.607 142.859, 104.736 145.334, 106.407 146.555 C 110.725 149.713, 116.565 143.385, 117.824 134.182 C 118.280 130.845, 118.242 127.208, 117.737 125.873 C 117.155 124.337, 117.301 121.561, 118.151 118 C 119.508 112.313, 119.501 111.935, 117.926 105.860 C 117.224 103.154, 116.111 101.806, 113.590 100.610 C 109.419 98.630, 109.686 98.624, 107.042 100.765 M 131.047 103.444 C 129.075 105.820, 127.151 114.704, 127.708 118.859 C 128.019 121.181, 127.781 123.017, 127.114 123.429 C 125.660 124.328, 125.663 136.676, 127.118 141.101 C 128.763 146.101, 134.054 150.270, 143.302 153.850 C 155.459 158.558, 161 157.717, 161 151.163 C 161 147.303, 158 145.102, 152.210 144.714 C 146.757 144.349, 142.343 140.994, 141.073 136.248 C 140.521 134.187, 140.198 127.550, 140.356 121.500 C 140.598 112.195, 140.334 109.845, 138.644 106.250 C 136.518 101.729, 133.420 100.584, 131.047 103.444 M 55.631 110.855 C 54.450 112.160, 54.007 114.243, 54.136 117.884 C 54.297 122.417, 53.959 123.403, 51.410 125.835 C 49.809 127.362, 46.362 129.843, 43.750 131.348 C 41.138 132.853, 39 134.556, 39 135.132 C 39 135.708, 38.129 136.927, 37.064 137.840 C 34.547 139.998, 31 146.524, 31 148.995 C 31 154.823, 40.159 152.977, 46.029 145.965 C 48.175 143.402, 51.518 140.224, 53.458 138.903 C 55.476 137.528, 56.989 135.658, 56.993 134.533 C 57.007 130.526, 60.164 124.334, 63.069 122.618 C 65.406 121.238, 66 120.190, 66 117.451 C 66 110.817, 59.442 106.644, 55.631 110.855" stroke="none" fill="black" fill-rule="evenodd"/>
</svg>