<svg xmlns="http://www.w3.org/2000/svg" width="256" height="256" viewBox="0 0 256 256" version="1.1">
	<path d="M 106.500 30.029 C 83.580 31.650, 81.557 32.489, 78.068 41.819 C 76.142 46.969, 75.951 48.583, 76.783 52.684 C 77.321 55.333, 77.614 59.525, 77.435 62 C 77.256 64.475, 77.085 66.853, 77.055 67.284 C 77.025 67.715, 75.401 69.011, 73.447 70.164 C 70.916 71.657, 68.899 74.236, 66.435 79.130 C 64.532 82.908, 62.360 86, 61.610 86 C 58.605 86, 52.546 82.657, 48.147 78.572 C 45.591 76.198, 42.547 73.962, 41.382 73.603 C 37.614 72.440, 34.478 74.460, 33.144 78.913 C 31.348 84.908, 33.427 88.533, 41.293 93.119 C 50.728 98.619, 52.807 98.794, 58.368 94.549 C 60.925 92.597, 63.673 91, 64.474 91 C 65.275 91, 67.468 92.350, 69.347 94 C 71.226 95.650, 73.678 97, 74.794 97 C 76.364 97, 76.964 97.850, 77.439 100.750 C 78.942 109.908, 75.742 130.848, 71.293 140.964 C 68.573 147.149, 69.788 151.344, 74.564 152.257 C 77.631 152.843, 82 149.683, 82 146.878 C 82 144.054, 84.626 139.357, 86.637 138.586 C 87.577 138.225, 90.182 138.196, 92.424 138.523 C 95.197 138.926, 98.539 138.458, 102.880 137.058 C 106.389 135.926, 111.622 135, 114.508 135 C 117.394 135, 121.419 134.305, 123.451 133.456 C 130.768 130.399, 134.014 133.999, 131.558 142.447 C 128.921 151.518, 129.807 155, 134.750 155 C 137.454 155, 142.092 152.799, 143.848 150.683 C 144.784 149.555, 144.788 144.820, 143.869 129.367 C 143.218 118.440, 142.610 106.200, 142.517 102.167 C 142.327 93.908, 142.294 93.866, 134 91.242 C 129.519 89.825, 124.700 89.502, 108 89.501 C 96.725 89.501, 85.362 89.899, 82.750 90.386 C 78.289 91.218, 78 91.142, 78 89.136 C 78 87.961, 78.830 86.170, 79.843 85.157 C 81.450 83.550, 84.310 83.202, 102.093 82.449 C 124.815 81.486, 141.640 81.737, 144.140 83.075 C 145.048 83.561, 146.328 86.200, 146.986 88.940 C 147.805 92.357, 148.797 94.118, 150.139 94.544 C 152.858 95.407, 156.620 92.681, 157.363 89.311 C 159.714 78.644, 159.926 76.731, 158.960 74.926 C 157.637 72.452, 152.850 70.004, 149.300 69.985 C 143.240 69.952, 142.664 68.269, 142.465 50.033 L 142.329 37.566 138.915 33.744 C 135.536 29.964, 135.409 29.919, 127 29.552 C 122.325 29.348, 113.100 29.563, 106.500 30.029 M 39.748 39.750 C 36.913 42.926, 37.423 49.181, 40.617 50.406 C 41.464 50.732, 44.626 52.636, 47.642 54.638 C 52.828 58.080, 53.336 58.216, 56.971 57.127 C 59.085 56.493, 62.208 54.674, 63.911 53.083 C 68.450 48.843, 67.130 46.164, 59.068 43.252 C 55.645 42.016, 51.880 40.329, 50.700 39.502 C 47.753 37.438, 41.689 37.575, 39.748 39.750 M 103.375 42.724 C 90.054 43.176, 89.837 43.403, 89.561 57.207 C 89.448 62.868, 89.781 68.063, 90.300 68.750 C 91.635 70.516, 96.503 70.303, 98.074 68.411 C 98.800 67.536, 99.506 64.878, 99.644 62.504 C 99.997 56.439, 102.420 51.221, 105.547 49.797 C 107.784 48.777, 109.194 48.946, 114.581 50.878 C 119.995 52.820, 121.484 52.995, 124.393 52.035 C 127.877 50.886, 129 49.388, 129 45.893 C 129 42.354, 125.839 41.963, 103.375 42.724 M 117.255 60.250 C 112.336 66.463, 113.732 69, 122.073 69 C 128.691 69, 130.587 67.382, 128.735 63.317 C 127.203 59.955, 119.185 57.813, 117.255 60.250 M 113.852 100.028 C 103.465 100.787, 99.077 104.210, 107.111 105.288 C 109.371 105.591, 113.084 106.725, 115.361 107.808 C 122.503 111.206, 126.180 112.095, 127.739 110.801 C 129.937 108.977, 132.042 104.274, 131.404 102.612 C 130.810 101.063, 125.700 99.064, 123 99.324 C 122.175 99.404, 118.058 99.720, 113.852 100.028 M 91.068 103.372 C 90.316 104.777, 89.752 109.771, 89.684 115.622 L 89.569 125.500 97.034 125.246 C 104.183 125.003, 110 123.564, 110 122.039 C 110 120.774, 105.270 119.117, 103.203 119.657 C 101.305 120.153, 96.345 117.723, 94.765 115.523 C 92.683 112.624, 96.803 105, 100.452 105 C 101.303 105, 102 104.475, 102 103.833 C 102 103.192, 101.721 102.945, 101.381 103.286 C 101.040 103.626, 100.108 103.251, 99.310 102.452 C 96.990 100.133, 92.536 100.630, 91.068 103.372 M 52.524 109.619 C 51.209 110.933, 51.023 112.495, 51.540 117.870 C 52.310 125.880, 51.543 128.018, 45.613 134.389 C 41.094 139.244, 38.281 145.028, 39.488 146.980 C 40.341 148.361, 45.018 148.208, 47.603 146.715 C 48.760 146.047, 52.013 143.475, 54.831 141 C 60.090 136.383, 60.858 134.750, 63.890 121.736 C 65.362 115.416, 65.401 115.640, 62.250 112.274 C 58.739 108.524, 54.717 107.426, 52.524 109.619 M 124.744 115.556 C 124.460 117.044, 124.859 118.716, 125.699 119.556 C 126.957 120.815, 126.933 121, 125.512 121 C 124.616 121, 124.160 121.450, 124.500 122 C 125.410 123.473, 129.254 123.245, 128.718 121.750 C 128.472 121.063, 128.636 119.785, 129.084 118.912 C 130.286 116.565, 129.029 113, 127 113 C 125.899 113, 125.049 113.964, 124.744 115.556" stroke="none" fill="black" fill-rule="evenodd"/>
</svg>