<svg xmlns="http://www.w3.org/2000/svg" width="256" height="256" viewBox="0 0 256 256" version="1.1">
	<path d="M 110 30.687 C 100.896 31.489, 82.050 34.211, 78.173 35.284 C 75.061 36.146, 72.839 37.711, 70.259 40.859 L 66.672 45.236 68.586 48.790 C 70.166 51.724, 70.525 54.628, 70.641 65.422 C 70.839 83.797, 68.601 107.401, 66.046 113.885 C 64.920 116.739, 64 120.992, 64 123.337 C 64 125.682, 63.604 128.027, 63.121 128.550 C 61.772 130.007, 59.650 137.116, 59.477 140.755 C 59.392 142.546, 59.052 144.282, 58.720 144.613 C 58.389 144.944, 58.649 146.067, 59.299 147.108 C 60.615 149.215, 63.716 149.542, 67.221 147.945 C 69.923 146.714, 74 141.137, 74 138.672 C 74 136.101, 76.381 129, 77.243 129 C 77.660 129, 78 125.735, 78 121.743 C 78 117.752, 78.489 112.915, 79.088 110.993 C 80.629 106.043, 82.784 73.394, 82.350 61.559 C 81.922 49.880, 82.261 48.422, 85.821 46.627 C 89.382 44.830, 104.070 43.696, 107.396 44.961 C 109.573 45.788, 109.996 46.569, 109.978 49.725 C 109.943 55.574, 107.534 57.852, 101.010 58.204 C 95.636 58.494, 95.471 58.593, 93.220 62.901 C 91.814 65.593, 90.961 68.893, 91.025 71.401 C 91.082 73.655, 91.075 76.850, 91.011 78.500 C 90.073 102.489, 90.668 108.070, 94.544 111.646 C 96.573 113.518, 97.715 113.730, 103.472 113.305 C 113.586 112.558, 114.633 113.607, 114.811 124.665 C 114.890 129.524, 115.123 134.400, 115.329 135.500 C 115.846 138.248, 114.094 143.122, 111.790 145.346 C 110.738 146.361, 109.445 148.329, 108.917 149.720 C 107.759 152.764, 109.430 154.387, 115.470 156.082 C 118.700 156.988, 119.913 156.912, 121.970 155.675 C 127.095 152.594, 128.313 149.721, 128.926 139.275 L 129.500 129.500 133.627 129.199 C 136.146 129.015, 138.289 129.430, 139.127 130.263 C 139.882 131.015, 141.366 132.112, 142.424 132.702 C 143.482 133.292, 145.557 135.963, 147.036 138.637 C 150.118 144.215, 155.165 147.517, 158.157 145.916 C 159.171 145.373, 160 144.033, 160 142.936 C 160 140.367, 154.279 129, 152.986 129 C 152.444 129, 152 128.280, 152 127.400 C 152 126.520, 150.486 124.286, 148.636 122.436 C 145.443 119.243, 145.100 119.133, 141.909 120.286 C 140.059 120.954, 137.226 122.922, 135.612 124.660 C 133.356 127.091, 132.405 127.548, 131.497 126.640 C 129.362 124.505, 128 121.181, 128 118.108 C 128 115.220, 128.323 114.989, 135.250 112.932 C 145.045 110.023, 147.192 108.787, 150.219 104.320 C 152.780 100.541, 152.806 100.311, 152.654 82.750 L 152.500 64.999 149.707 61.500 C 147.209 58.368, 146.406 58, 142.083 58 C 139.426 58, 135.347 58.672, 133.019 59.493 C 130.692 60.314, 128.419 60.759, 127.970 60.481 C 127.521 60.204, 126.397 57.700, 125.472 54.917 C 124.548 52.134, 123.144 49.609, 122.353 49.305 C 117.708 47.523, 130.932 42.136, 136.982 43.346 C 141.310 44.212, 151.303 42.295, 152.750 40.322 C 154.799 37.528, 154.231 34.197, 151.386 32.333 C 149.188 30.893, 145.964 30.601, 131.136 30.500 C 121.436 30.433, 111.925 30.517, 110 30.687 M 40.853 36.386 C 39.592 37.015, 37.895 38.714, 37.082 40.163 C 35.715 42.598, 35.785 43.063, 38.007 46.306 C 41.022 50.706, 51.932 55.642, 55.005 53.997 C 58.168 52.305, 62.227 46.291, 61.581 44.255 C 60.957 42.289, 51.582 37.207, 46.322 35.983 C 44.421 35.540, 42.224 35.702, 40.853 36.386 M 109.588 69.907 C 106.150 71.973, 103.819 76.432, 104.585 79.482 C 105.221 82.018, 109 85.099, 109 83.082 C 109 82.539, 110.587 81.341, 112.527 80.420 C 115.417 79.049, 117.670 78.873, 125 79.446 C 132.627 80.043, 134.391 79.882, 136.972 78.357 C 138.638 77.374, 140 75.849, 140 74.970 C 140 69.999, 116.067 66.015, 109.588 69.907 M 32.557 73.223 C 30.312 76.427, 30.637 80.465, 33.506 85.009 C 36.986 90.522, 41.850 92.475, 48.266 90.936 C 53.325 89.723, 55.954 87.879, 55.639 85.765 C 55.212 82.897, 46.732 73.102, 43.788 72.076 C 38.649 70.285, 34.304 70.728, 32.557 73.223 M 107.112 90.365 C 106.447 91.166, 105.659 93.329, 105.359 95.172 C 104.946 97.717, 105.297 98.959, 106.817 100.334 C 108.684 102.024, 109.027 102.037, 111.925 100.539 C 114.508 99.203, 115.748 99.125, 119.266 100.075 C 125.583 101.782, 136.845 99.539, 138.064 96.331 C 140.165 90.805, 136.408 88.973, 125.500 90.206 C 117.807 91.076, 113.297 90.883, 109.910 89.540 C 109.036 89.193, 107.777 89.564, 107.112 90.365 M 47.591 110.250 C 46.790 111.487, 45.855 113.850, 45.511 115.500 C 43.678 124.312, 42.497 127.739, 40.514 130 C 37.988 132.882, 29.340 145.949, 28.485 148.178 C 27.260 151.370, 34.324 153.610, 38.383 151.318 C 39.180 150.868, 42.546 147.422, 45.863 143.661 C 50.971 137.870, 52.059 135.955, 52.962 131.161 C 53.548 128.047, 54.697 124.226, 55.514 122.669 C 57.713 118.480, 57.340 114.557, 54.411 111.077 C 51.334 107.420, 49.560 107.205, 47.591 110.250 M 94.472 121.021 C 93.363 121.431, 91.565 122.994, 90.477 124.494 C 89.390 125.994, 88.023 127.734, 87.440 128.361 C 86.858 128.987, 85.619 131.838, 84.687 134.697 C 83.331 138.859, 83.226 140.401, 84.158 142.447 C 85.166 144.660, 85.950 145, 90.042 145 C 94.338 145, 95.012 144.662, 97.533 141.250 C 99.057 139.188, 101.361 136.469, 102.652 135.210 C 103.943 133.950, 105 132.037, 105 130.960 C 105 129.882, 105.473 129, 106.051 129 C 106.629 129, 105.927 127.460, 104.491 125.577 C 101.569 121.746, 97.507 119.898, 94.472 121.021" stroke="none" fill="black" fill-rule="evenodd"/>
</svg>