<svg xmlns="http://www.w3.org/2000/svg" width="256" height="256" viewBox="0 0 256 256" version="1.1">
	<path d="M 122.794 26.208 C 120.080 28.266, 118.946 32.686, 119.632 38.528 C 120.322 44.398, 119.862 44.929, 112.763 46.447 C 111.257 46.768, 109.308 48.127, 108.431 49.465 C 106.884 51.826, 104.045 61.243, 103.537 65.697 C 103.399 66.905, 102.715 69.275, 102.015 70.963 C 100.292 75.124, 98.010 73.325, 98.498 68.189 C 98.690 66.160, 99.128 58.085, 99.470 50.244 L 100.091 35.989 97.400 33.494 C 94.300 30.622, 89.949 30.257, 85.636 32.506 C 84.060 33.328, 80.190 34, 77.036 34 C 72.113 34, 70.691 34.461, 67.001 37.250 C 64.636 39.038, 62.163 40.904, 61.506 41.397 C 59.643 42.794, 55.752 41.374, 50.921 37.534 C 44.624 32.529, 39.604 32.998, 36.564 38.876 C 34.477 42.911, 35.420 44.993, 41.302 49.340 C 47.161 53.672, 50.622 53.830, 55.983 50.012 C 58.348 48.328, 59.357 48.121, 60.974 48.986 C 62.088 49.582, 63.026 50.617, 63.058 51.285 C 63.091 51.953, 63.285 57.450, 63.491 63.500 C 63.697 69.550, 64.163 80.821, 64.527 88.546 C 65.126 101.291, 65.009 102.911, 63.258 106.046 C 60.814 110.423, 58.388 110.898, 55.329 107.599 C 52.812 104.885, 51.943 104.641, 48.287 105.620 C 45.299 106.422, 42.355 113.025, 41.554 120.726 C 41.198 124.151, 40.255 128.201, 39.459 129.726 C 38.663 131.252, 38.010 133.512, 38.006 134.750 C 38.003 135.988, 37.618 137, 37.152 137 C 36.685 137, 35.475 138.839, 34.461 141.086 C 33.103 144.099, 32.893 145.609, 33.661 146.836 C 35.730 150.137, 38.627 149.314, 44.313 143.808 C 50.713 137.611, 53.023 133.485, 53.522 127.358 C 53.881 122.946, 57.954 116.500, 60.382 116.500 C 62.407 116.500, 64.273 122.302, 64.419 129.056 C 64.652 139.866, 67.941 141.735, 74.879 135.001 C 77.146 132.802, 79 130.552, 79 130.001 C 79 128.218, 81.898 128.942, 83 131 C 83.820 132.532, 85.094 133, 88.446 133 C 92.105 133, 93.247 132.496, 95.411 129.923 C 97.605 127.316, 97.991 125.905, 97.940 120.673 C 97.908 117.278, 97.453 112.250, 96.931 109.500 C 96.408 106.750, 95.913 101.840, 95.831 98.588 C 95.703 93.503, 96.008 92.412, 98.012 90.789 C 99.294 89.751, 101.278 88.974, 102.421 89.062 C 109.596 89.613, 113.963 86.124, 115.100 78.930 C 115.802 74.487, 118.542 69.110, 120.143 69.031 C 121.392 68.970, 122.266 72.601, 123.145 81.500 C 124.981 100.092, 125.378 101.763, 128.803 105.296 C 132.298 108.903, 132.815 112.105, 130.799 117.679 C 130.057 119.732, 128.924 121, 127.834 121 C 125.011 121, 113 128.035, 113 129.687 C 113 131.811, 109.786 137, 108.471 137 C 106.129 137, 101.667 142.946, 101.667 146.067 C 101.667 155.439, 114.336 150.872, 123.729 138.113 C 126.811 133.926, 129.820 130.315, 130.416 130.089 C 131.982 129.496, 142.628 118.490, 148.750 111.136 C 154.269 104.506, 155.065 101.663, 152.706 97 C 151.206 94.036, 149.685 93.886, 145.039 96.243 C 140.102 98.749, 138.242 98.442, 135.976 94.750 C 134.393 92.170, 134.052 90.159, 134.326 85 C 134.515 81.425, 134.313 77.150, 133.876 75.500 C 133.439 73.850, 132.814 70.939, 132.488 69.030 C 132.161 67.122, 131.711 65.378, 131.487 65.154 C 130.769 64.436, 133.874 59.262, 135.367 58.690 C 137.782 57.763, 140.896 59.095, 141.604 61.358 C 141.973 62.536, 143.113 64.573, 144.138 65.885 C 145.489 67.616, 146.002 69.947, 146.006 74.385 C 146.016 86.267, 149.264 91.850, 155.002 89.849 C 156.544 89.312, 158.572 88.026, 159.508 86.991 C 161.102 85.230, 161.106 84.612, 159.572 77.305 C 158.670 73.012, 157.463 67.072, 156.889 64.105 C 155.714 58.031, 150.738 50.474, 147.319 49.572 C 146.120 49.256, 144.095 49.366, 142.819 49.817 C 141.544 50.269, 139.825 50.473, 139 50.270 C 136.510 49.659, 133.338 41.951, 133.127 36 C 132.824 27.430, 127.649 22.526, 122.794 26.208 M 80.217 44.561 C 74.916 48.273, 73.509 57.590, 77.570 62.078 C 81.053 65.926, 84.351 63.953, 87.345 56.230 C 89.410 50.901, 89.435 48.067, 87.443 45.223 C 85.613 42.610, 83.304 42.398, 80.217 44.561 M 37.942 68.948 C 30.546 71.192, 29.548 73.257, 33.248 78.657 C 36.121 82.850, 47.367 86.957, 51.766 85.419 C 55.577 84.087, 56.101 78.230, 52.834 73.463 C 49.326 68.342, 44.630 66.919, 37.942 68.948 M 76.792 76.250 C 76.044 77.568, 75.512 81.901, 75.507 86.714 C 75.502 93.168, 75.870 95.299, 77.226 96.655 C 78.176 97.604, 79.083 98.183, 79.242 97.940 C 79.401 97.698, 80.992 95.394, 82.777 92.821 C 84.562 90.247, 86.191 86.691, 86.398 84.919 C 86.849 81.046, 85.519 75.947, 83.768 74.836 C 81.371 73.314, 78.081 73.981, 76.792 76.250 M 76.758 104.311 C 74.159 109.395, 73.781 113.401, 75.339 119.368 C 77.651 128.220, 80.790 130.262, 83.614 124.750 C 84.530 122.963, 85.717 121.217, 86.253 120.871 C 86.845 120.488, 86.952 117.498, 86.524 113.243 C 85.921 107.236, 85.445 105.970, 83.161 104.308 C 78.655 101.029, 78.437 101.029, 76.758 104.311" stroke="none" fill="black" fill-rule="evenodd"/>
</svg>