<svg xmlns="http://www.w3.org/2000/svg" width="256" height="256" viewBox="0 0 256 256" version="1.1">
	<path d="M 108 26.199 C 101.125 26.624, 92.420 26.961, 88.654 26.947 C 82.121 26.924, 81.659 27.081, 78.527 30.402 C 75.769 33.327, 75.146 34.889, 74.619 40.191 C 73.700 49.455, 74.071 65.196, 75.264 67.500 C 77.408 71.641, 81.274 72.146, 85.483 68.835 C 88.175 66.717, 88.219 66.512, 87.492 59.585 C 86.062 45.973, 86.239 43.933, 89.034 41.835 C 91.331 40.110, 93.582 39.923, 113.138 39.835 C 125.797 39.778, 135.443 40.149, 136.488 40.733 C 137.974 41.565, 138.152 42.503, 137.564 46.423 C 136.735 51.949, 135.370 52.760, 130.840 50.417 C 125.874 47.847, 118.174 46.048, 114.099 46.504 C 112.119 46.726, 107.958 47.180, 104.851 47.513 C 101.350 47.888, 98.597 48.788, 97.610 49.879 C 94.849 52.929, 92.694 69, 95.045 69 C 95.620 69, 94.876 70.215, 93.390 71.701 C 90.985 74.106, 89.896 74.415, 83.431 74.529 C 70.939 74.749, 68.402 77.799, 69.370 91.439 C 70.118 101.982, 70.990 103.112, 80 105.216 C 85.934 106.601, 142.314 106.914, 149.316 105.600 C 155.500 104.440, 156.606 101.030, 156.080 84.759 C 155.830 77.031, 149.469 72.320, 142.937 75.026 C 140.781 75.919, 137.843 76.047, 132.706 75.471 C 128.743 75.027, 121.900 74.587, 117.500 74.493 C 106.037 74.250, 105 74.121, 105 72.941 C 105 72.359, 105.450 72.160, 106 72.500 C 106.550 72.840, 107.007 72.529, 107.015 71.809 C 107.026 70.858, 107.296 70.910, 108 72 C 108.646 73, 108.974 73.083, 108.985 72.250 C 108.994 71.491, 110.375 71, 112.500 71 C 114.625 71, 116.006 71.491, 116.015 72.250 C 116.026 73.083, 116.354 73, 117 72 C 117.533 71.175, 117.976 71.004, 117.985 71.620 C 118.002 72.856, 121.921 72.941, 123.500 71.739 C 124.050 71.321, 125.732 70.055, 127.237 68.927 C 129.875 66.950, 129.923 66.751, 128.557 63.483 C 127.214 60.268, 127.254 60.054, 129.320 59.402 C 130.519 59.023, 132.103 57.856, 132.840 56.809 C 134.733 54.119, 137 56.232, 137 60.688 C 137 65.121, 138.388 67.639, 141.780 69.358 C 144.267 70.618, 144.711 70.534, 146.969 68.377 C 149.291 66.159, 149.494 65.094, 150.374 50.498 C 151.433 32.954, 150.958 30.705, 145.748 28.558 C 143.961 27.822, 138.225 26.893, 133 26.494 C 127.775 26.095, 122.825 25.691, 122 25.597 C 121.175 25.503, 114.875 25.774, 108 26.199 M 35.189 39.039 C 33.985 40.160, 32.966 41.398, 32.923 41.789 C 32.881 42.180, 32.695 43.297, 32.509 44.271 C 32.163 46.085, 33.810 47.881, 42.431 55.086 C 49.379 60.894, 51.527 61.738, 53.897 59.593 C 54.945 58.645, 56.088 56.343, 56.438 54.477 C 57.259 50.102, 54.444 45.654, 47.693 40.659 C 42.091 36.515, 38.410 36.038, 35.189 39.039 M 109 59.893 C 109 61.044, 111.142 61.830, 112.750 61.269 C 114.930 60.509, 114.099 59, 111.500 59 C 110.125 59, 109 59.402, 109 59.893 M 29.035 74.934 C 26.536 79.604, 28.294 85.413, 33.704 90.362 C 43.833 99.627, 43.152 99.235, 48.272 98.745 C 50.897 98.495, 53.257 98.076, 53.518 97.816 C 53.778 97.555, 54.269 95.318, 54.608 92.845 L 55.224 88.347 46.078 80.674 C 38.573 74.377, 36.316 73, 33.501 73 C 31.133 73, 29.750 73.599, 29.035 74.934 M 86 86.891 C 82.770 87.784, 82.248 91.248, 84.939 93.939 C 87.715 96.715, 92.442 96.635, 94.443 93.777 C 96.681 90.583, 96.368 88.489, 93.453 87.161 C 90.666 85.891, 89.737 85.857, 86 86.891 M 133.676 87.452 C 128.629 89.251, 128.593 89.313, 130.474 92.950 C 133.688 99.164, 140.338 99.115, 143.576 92.853 C 145.196 89.720, 145.178 89.563, 143.013 87.810 C 140.380 85.677, 138.819 85.617, 133.676 87.452 M 107.790 88.753 C 107.011 89.691, 107.012 90.730, 107.792 92.443 C 109.943 97.164, 116.227 96.635, 118.623 91.531 C 119.624 89.399, 119.460 89.019, 117.123 88.056 C 113.827 86.696, 109.211 87.041, 107.790 88.753 M 95.654 111.097 C 94.088 111.527, 90.440 111.646, 87.547 111.362 C 78.223 110.447, 71 113.562, 71 118.500 C 71 120.478, 71.847 121.113, 76.250 122.436 C 79.138 123.304, 82.175 124.578, 83 125.268 C 85.149 127.064, 90 137.121, 90 139.781 C 90 143.400, 84.670 145.992, 77.219 145.996 C 72.556 145.999, 70.789 146.387, 70.361 147.502 C 68.459 152.459, 74.690 158.417, 81 157.674 C 88.797 156.757, 96.259 154.757, 102.584 151.889 C 109.129 148.922, 109.397 148.886, 116.379 150.058 C 120.296 150.716, 127.720 152.322, 132.878 153.627 C 144.468 156.560, 151.885 156.723, 155.103 154.117 C 157.170 152.444, 157.293 151.939, 156.212 149.566 C 154.769 146.398, 150.824 144.587, 141.993 143.036 C 133.060 141.468, 132.140 141.130, 131.002 139.004 C 130.213 137.529, 130.711 136.222, 133.408 132.689 C 135.278 130.239, 136.964 127.423, 137.155 126.432 C 137.346 125.441, 139.526 123.447, 142 122 C 148.846 117.996, 148.476 114.013, 141.072 112.019 C 138.107 111.221, 119.400 110.722, 109.500 111.178 C 108.400 111.228, 105.475 111.055, 103 110.792 C 100.525 110.530, 97.219 110.667, 95.654 111.097 M 55.638 119.500 C 55.224 120.580, 55.744 121, 57.500 121 C 59.256 121, 59.776 120.580, 59.362 119.500 C 59.045 118.675, 58.207 118, 57.500 118 C 56.793 118, 55.955 118.675, 55.638 119.500 M 103.005 122.894 C 97.766 124.351, 100.774 129.953, 107.950 132.103 C 112.792 133.554, 116.784 132.183, 121.106 127.586 L 124.008 124.500 121.254 123.295 C 118.297 122.001, 107.098 121.755, 103.005 122.894 M 47.942 131.948 C 41.811 133.808, 38.047 136.996, 32.461 145.056 C 28.739 150.427, 29.697 153, 35.417 153 C 38.601 153, 40.776 152.220, 43.897 149.960 C 46.205 148.288, 48.374 146.150, 48.717 145.210 C 49.060 144.269, 50.389 142.228, 51.670 140.673 C 54.016 137.827, 54.512 135.498, 53.393 132.582 C 52.734 130.864, 51.851 130.762, 47.942 131.948" stroke="none" fill="black" fill-rule="evenodd"/>
</svg>