<svg xmlns="http://www.w3.org/2000/svg" width="256" height="256" viewBox="0 0 256 256" version="1.1">
	<path d="M 90.240 24.022 C 87.698 26.976, 87.357 29.444, 88.424 37.163 C 89.339 43.783, 89.277 44.176, 86.940 46.466 C 84.738 48.623, 83.319 48.923, 72.367 49.545 C 60.862 50.199, 60.125 50.125, 58.117 48.117 C 56.530 46.530, 56 44.758, 56 41.039 C 56 37.223, 55.495 35.607, 53.811 34.039 C 51.317 31.715, 50.624 31.596, 47.945 33.030 C 44.038 35.121, 43.169 38.764, 44.471 47.600 C 45.460 54.309, 46.241 56.418, 49.023 59.879 C 52.853 64.645, 55.319 65.601, 59.539 63.957 C 61.168 63.323, 67.450 62.441, 73.500 61.998 C 79.550 61.554, 87.425 60.656, 91 60.001 C 95.158 59.239, 101.643 59.040, 109 59.447 C 123.944 60.275, 138.988 57.339, 142.693 52.871 C 144.599 50.573, 146.075 39.328, 144.883 36.193 C 144.320 34.712, 143.900 33.379, 143.951 33.231 C 144.001 33.082, 143.245 32.106, 142.271 31.062 C 139.549 28.142, 135.430 27.488, 132.375 29.490 C 129.911 31.104, 129.801 31.524, 130.415 36.951 C 131.246 44.301, 130.409 45.026, 119.715 46.220 C 115.197 46.724, 109.652 47.371, 107.393 47.658 C 103.766 48.118, 103.024 47.847, 101.048 45.339 C 98.754 42.430, 98.734 41.844, 100.570 31.796 C 101.164 28.546, 100.874 27.720, 98.200 25.046 C 94.640 21.486, 92.644 21.229, 90.240 24.022 M 112.804 67.529 C 112.513 67.821, 102.901 68.321, 91.445 68.641 C 77.620 69.028, 69.293 69.691, 66.682 70.612 C 64.519 71.375, 60.391 72, 57.509 72 C 47.498 72, 44.739 77.038, 42.996 98.500 C 42.416 105.650, 41.655 115.083, 41.306 119.461 C 40.844 125.251, 39.775 129.479, 37.387 134.961 C 34.538 141.500, 34.277 142.765, 35.416 144.500 C 37.007 146.923, 40.141 147.530, 43.043 145.977 C 48.392 143.114, 55.309 117.139, 55.551 99 C 55.628 93.225, 56.200 87.263, 56.821 85.750 C 57.913 83.091, 58.208 82.998, 65.725 82.940 C 70.001 82.908, 75.750 82.438, 78.500 81.897 C 89.061 79.820, 94.632 79.717, 100.005 81.502 C 104.333 82.939, 106.156 83.050, 110.853 82.163 C 122.955 79.877, 132.732 78.794, 140.270 78.904 C 145.240 78.977, 148.811 78.545, 149.973 77.732 C 151.724 76.505, 151.686 76.296, 149.155 73.290 C 146.778 70.467, 145.802 70.086, 139.836 69.650 C 136.171 69.382, 132.263 68.676, 131.152 68.081 C 129.126 66.997, 113.798 66.536, 112.804 67.529 M 103.733 86.743 C 100.482 90.335, 99.006 95.437, 100.086 99.350 C 100.766 101.811, 100.752 103.595, 100.043 104.920 C 99.469 105.992, 98.999 108.136, 98.997 109.684 C 98.996 111.233, 97.421 115.110, 95.497 118.300 C 93.574 121.490, 92 124.487, 92 124.959 C 92 125.432, 89.621 128.334, 86.713 131.409 C 82.613 135.745, 80.761 137.001, 78.463 137.004 C 73.047 137.011, 63 144.556, 63 148.616 C 63 150.850, 65.353 154, 67.022 154 C 71.506 154, 78.868 151.206, 83.754 147.651 C 86.914 145.350, 90.754 142.667, 92.286 141.688 C 93.818 140.708, 96.293 138.641, 97.786 137.093 C 100.770 133.999, 106.024 131, 108.460 131 C 109.318 131, 113.428 134.160, 117.593 138.022 C 126.361 146.152, 129.763 148.058, 139.843 150.490 C 146.045 151.986, 147.831 152.069, 151.343 151.027 C 156.395 149.528, 158 148.311, 158 145.981 C 158 143.357, 151.566 138.180, 147.521 137.549 C 145.585 137.247, 142.328 136.736, 140.285 136.414 C 135.687 135.689, 130.922 133.299, 129.193 130.851 C 128.475 129.833, 126.780 129, 125.427 129 C 123.597 129, 122.537 128.097, 121.284 125.469 C 120.300 123.406, 118.633 121.695, 117.274 121.354 C 113.744 120.468, 113.273 118.520, 113.451 105.571 C 113.592 95.310, 113.327 93.074, 111.558 89.571 C 109.239 84.983, 106.290 83.917, 103.733 86.743 M 67.551 103.344 C 66.148 105.184, 65.015 107.096, 65.033 107.594 C 65.166 111.202, 75.281 117.297, 80.324 116.808 C 83.400 116.510, 83.509 116.337, 83.801 111.299 L 84.101 106.098 78.801 103.058 C 75.885 101.387, 72.735 100.015, 71.801 100.009 C 70.866 100.004, 68.954 101.505, 67.551 103.344 M 132.984 103.861 C 128.507 106.252, 127.682 110.968, 131.103 114.609 C 132.338 115.924, 133.739 117, 134.217 117 C 134.695 117, 137.495 115.181, 140.438 112.959 C 146.599 108.308, 146.810 106.234, 141.388 103.648 C 137.104 101.605, 137.214 101.602, 132.984 103.861" stroke="none" fill="black" fill-rule="evenodd"/>
</svg>