<svg xmlns="http://www.w3.org/2000/svg" width="256" height="256" viewBox="0 0 256 256" version="1.1">
	<path d="M 118.571 27.571 C 117.707 28.436, 117 29.604, 117 30.167 C 117 30.730, 116.078 32.486, 114.951 34.069 C 113.321 36.358, 113.123 37.362, 113.986 38.974 C 114.582 40.088, 114.734 41, 114.323 41 C 113.912 41, 115.647 43.138, 118.180 45.750 C 126.603 54.438, 127.955 60.467, 121.694 61.413 C 114.360 62.520, 107.055 62.959, 105.552 62.382 C 104.668 62.042, 103.493 60.922, 102.942 59.891 C 101.639 57.457, 104.322 47.982, 107.803 42.722 C 110.020 39.372, 110.151 38.722, 108.870 37.441 C 108.066 36.638, 104.729 35.498, 101.454 34.909 C 98.179 34.319, 94.118 33.424, 92.429 32.918 C 87.275 31.377, 84.064 31.845, 81.381 34.528 C 79.313 36.596, 78.976 37.641, 79.526 40.278 C 80.408 44.505, 83.416 49.566, 84.859 49.250 C 86.371 48.919, 86.305 49.838, 84.701 51.442 C 82.324 53.819, 77.558 55.721, 72.295 56.392 C 69.432 56.758, 65.177 57.732, 62.840 58.557 C 55.893 61.008, 55.606 60.544, 56.361 48.098 C 56.948 38.448, 56.817 36.995, 55.179 34.973 C 53.759 33.219, 52.733 32.850, 50.698 33.361 C 46.891 34.317, 46.259 36.208, 45.470 49.019 C 44.803 59.846, 43.190 66, 41.019 66 C 40.507 66, 38.431 64.875, 36.405 63.500 C 32.791 61.047, 28.552 60.310, 26.427 61.765 C 23.987 63.436, 24.147 66.107, 26.966 70.740 C 28.588 73.406, 30.138 77.694, 30.491 80.488 C 31.301 86.903, 33.211 89, 38.245 89 C 44.846 89, 45.968 91.367, 45.354 104 C 44.921 112.910, 44.383 115.513, 41.803 121.188 C 40.130 124.866, 37.705 128.868, 36.413 130.081 C 33.081 133.212, 30.654 140.960, 31.944 144.352 C 33.380 148.129, 35.289 147.655, 40.195 142.307 C 49.770 131.870, 51.517 130.936, 57.108 133.270 C 58.974 134.049, 62.224 135.009, 64.330 135.403 C 67.560 136.008, 68.462 135.774, 70.080 133.907 C 74.009 129.378, 71.387 123.832, 63.442 119.864 C 60.348 118.319, 58.760 116.817, 58.361 115.058 C 58.042 113.651, 57.155 110.572, 56.390 108.215 C 53.190 98.350, 55.445 88.321, 60.575 89.608 C 61.926 89.947, 66.937 90.287, 71.710 90.362 C 80.352 90.499, 80.397 90.514, 82.247 93.682 C 83.335 95.546, 84.355 99.846, 84.708 104.060 C 85.228 110.254, 85.798 111.892, 88.811 115.840 C 91.975 119.984, 92.344 121.148, 92.656 127.962 C 92.847 132.108, 93.196 136.019, 93.432 136.653 C 94.514 139.551, 91.308 141.301, 83.788 141.916 C 79.653 142.255, 75.534 143.142, 74.635 143.888 C 71.960 146.108, 72.647 149.355, 76.250 151.531 C 79.319 153.384, 81.628 153.500, 117.656 153.609 C 155.106 153.723, 155.862 153.686, 158.469 151.607 C 162.005 148.787, 161.102 146.858, 154.881 143.944 C 150.964 142.110, 148.443 141.646, 143.396 141.832 C 136.077 142.103, 130.413 139.786, 131.633 137.023 C 132.002 136.185, 132.510 134.037, 132.762 132.250 C 133.013 130.463, 133.542 129, 133.936 129 C 134.331 129, 134.467 127.731, 134.240 126.181 C 133.966 124.318, 134.939 121.239, 137.104 117.107 C 140.283 111.044, 140.347 110.685, 139.216 105.292 C 138.574 102.233, 138.336 99.265, 138.687 98.697 C 139.039 98.129, 139.408 95.946, 139.507 93.846 C 139.737 89.009, 137.925 87.313, 131.154 86.029 C 128.290 85.486, 124.990 84.530, 123.822 83.905 C 122.229 83.052, 118.096 83.081, 107.271 84.020 C 94.533 85.125, 92.663 85.092, 91.310 83.739 C 90.038 82.467, 89.975 81.606, 90.940 78.683 C 92.378 74.324, 96.483 72.540, 101.897 73.922 C 110.749 76.181, 117.563 76.242, 122.621 74.108 C 128.993 71.420, 134.890 70.218, 137.986 70.975 C 140.077 71.487, 140.679 72.531, 141.774 77.542 C 143.236 84.236, 144.754 85.920, 148.751 85.286 C 156.014 84.133, 158.750 79.285, 155.589 73.171 C 153.591 69.309, 153.556 65.614, 155.500 64 C 157.247 62.550, 157.435 59.682, 155.964 56.933 C 154.549 54.289, 148.429 51.894, 143.790 52.167 C 141.284 52.315, 139.379 51.808, 138.268 50.697 C 137.335 49.763, 137.063 49, 137.664 49 C 138.970 49, 141.235 43.905, 140.804 41.936 C 140.450 40.318, 138.462 38, 137.430 38 C 137.037 38, 135.530 36.763, 134.080 35.250 C 129.883 30.874, 123.349 26, 121.678 26 C 120.833 26, 119.436 26.707, 118.571 27.571 M 41 68.500 C 41 69.325, 41.436 70, 41.969 70 C 42.501 70, 42.678 69.325, 42.362 68.500 C 42.045 67.675, 41.609 67, 41.393 67 C 41.177 67, 41 67.675, 41 68.500 M 55.235 69.384 C 54.395 71.228, 54.484 72.247, 55.631 73.884 C 57.344 76.329, 57.870 76.412, 61.685 74.839 C 63.233 74.200, 64.838 73.750, 65.250 73.839 C 65.662 73.927, 66 73.534, 66 72.965 C 66 72.263, 66.644 72.274, 68 73 C 69.100 73.589, 70 73.774, 70 73.413 C 70 73.051, 70.657 73.300, 71.459 73.966 C 73.755 75.871, 78.886 74.302, 79.595 71.477 C 80.769 66.801, 77.837 66.031, 69.342 68.784 C 66.956 69.557, 65.522 69.464, 63.477 68.404 C 59.413 66.295, 56.484 66.643, 55.235 69.384 M 40.229 72.188 C 40.847 74.042, 43 74.349, 43 72.583 C 43 71.713, 42.288 71, 41.417 71 C 40.546 71, 40.011 71.534, 40.229 72.188 M 103.534 98.130 C 96.076 98.945, 94.246 101.246, 98.039 105.039 C 99.923 106.923, 101.013 107.045, 112.289 106.643 C 119.005 106.404, 125.243 105.905, 126.151 105.535 C 128.522 104.569, 129.060 101.363, 127.142 99.636 C 125.253 97.936, 112.661 97.133, 103.534 98.130 M 105.323 120.647 C 101.356 121.509, 100.810 123.199, 102.091 130.654 C 103.925 141.325, 109.350 144.607, 117.949 140.248 C 121.560 138.418, 122.630 136.158, 123.600 128.312 C 124.043 124.725, 123.786 123.908, 121.809 122.628 C 119.400 121.067, 109.087 119.828, 105.323 120.647" stroke="none" fill="black" fill-rule="evenodd"/>
</svg>