<svg xmlns="http://www.w3.org/2000/svg" width="256" height="256" viewBox="0 0 256 256" version="1.1">
	<path d="M 71.732 32.090 C 70.759 32.656, 67.964 36.155, 65.520 39.864 C 61.236 46.368, 57.506 50.337, 50.058 56.321 C 43.239 61.799, 41.093 67.964, 44.829 71.345 C 45.835 72.255, 47.884 73, 49.384 73 C 53.423 73, 63 66.022, 66.705 60.381 C 68.467 57.696, 71.392 53.905, 73.205 51.955 C 82.970 41.450, 84.136 38.046, 79.545 33.455 C 76.927 30.836, 74.588 30.428, 71.732 32.090 M 109.710 32.644 C 106.649 34.248, 106.363 35.868, 108.435 39.875 C 110.116 43.126, 117.446 49.995, 119.253 50.012 C 120.685 50.026, 128 60.399, 128 62.415 C 128 64.595, 130.502 66.042, 135.657 66.847 C 142.298 67.883, 146.828 66.748, 149.517 63.377 C 152.414 59.743, 151.787 58.351, 146.122 55.845 C 138.686 52.556, 137.608 51.977, 135.500 50.143 C 134.400 49.186, 133.027 47.565, 132.448 46.542 C 131.870 45.519, 129.871 43.864, 128.005 42.863 C 126.140 41.863, 122.563 39.073, 120.057 36.663 C 114.516 31.335, 113.190 30.820, 109.710 32.644 M 67.670 69.252 C 64.535 71.544, 64.668 75.751, 68.081 82.310 C 69.821 85.652, 71.864 89.007, 72.622 89.765 C 73.380 90.523, 74 92.461, 74 94.071 C 74 95.746, 74.535 97.001, 75.250 97.002 C 77.257 97.006, 82.049 108.015, 82.023 112.561 C 81.997 117.230, 79.180 120.998, 75.711 121.004 C 74.495 121.006, 71.341 122.104, 68.703 123.442 C 66.065 124.781, 62.247 126.423, 60.219 127.093 C 57.368 128.034, 56.935 128.451, 58.310 128.933 C 59.966 129.514, 59.945 129.693, 58.009 131.529 C 56.866 132.613, 55.171 134.287, 54.243 135.250 C 53.315 136.213, 52.140 137, 51.633 137 C 51.125 137, 48.751 138.238, 46.357 139.750 C 42.880 141.947, 42.003 143.074, 42.002 145.354 L 42 148.208 49.880 147.617 C 54.213 147.291, 58.610 146.682, 59.650 146.262 C 64.302 144.387, 73.124 137.513, 77.847 132.082 C 82.991 126.168, 85.600 124.728, 93.055 123.686 C 96.136 123.255, 96.871 123.577, 98.555 126.092 C 99.625 127.688, 101.203 128.996, 102.061 128.997 C 102.920 128.999, 104.495 129.802, 105.561 130.782 C 109.085 134.020, 114.428 136.739, 119.662 137.956 C 122.729 138.670, 126.381 140.472, 128.662 142.399 C 133.729 146.679, 141.493 150.319, 145.324 150.210 C 147.017 150.162, 150.112 149.351, 152.201 148.409 C 159.618 145.065, 156.302 139.886, 144.251 135.993 C 140.585 134.809, 135.991 132.592, 134.043 131.066 C 132.094 129.541, 129.796 128.302, 128.935 128.313 C 127.224 128.335, 121 124.076, 121 122.883 C 121 122.096, 110.642 118.822, 109.295 119.183 C 107.697 119.612, 104.169 117.883, 103.596 116.390 C 102.908 114.598, 104.840 106.217, 106.123 105.424 C 106.605 105.126, 107 104.082, 107 103.105 C 107 101.364, 113.169 92.543, 115.868 90.427 C 118.584 88.297, 122.587 74.476, 121.613 70.593 C 121.112 68.597, 120.457 68.324, 116.501 68.458 C 112.783 68.583, 111.561 69.130, 109.732 71.488 C 108.504 73.071, 106.037 76.026, 104.250 78.054 C 102.463 80.083, 101 82.558, 101 83.555 C 101 86.791, 97.099 93.470, 94.517 94.656 C 93.133 95.292, 92 95.404, 92 94.906 C 92 94.408, 91.377 94, 90.616 94 C 89.855 94, 87.673 92.274, 85.767 90.164 C 83.160 87.278, 82.135 85.075, 81.631 81.273 C 80.872 75.555, 78.397 71.844, 73.822 69.561 C 70.047 67.678, 69.837 67.667, 67.670 69.252" stroke="none" fill="black" fill-rule="evenodd"/>
</svg>