<svg xmlns="http://www.w3.org/2000/svg" width="256" height="256" viewBox="0 0 256 256" version="1.1">
	<path d="M 108 35.579 C 101.125 36.288, 84.700 37.359, 71.500 37.960 C 45.422 39.147, 40.496 40.174, 39.371 44.659 C 37.674 51.419, 41.445 52.498, 61.500 50.987 C 88.719 48.936, 87.895 48.620, 86.134 60.460 C 85.510 64.652, 84.999 69.976, 84.998 72.291 C 84.998 74.606, 84.210 78.075, 83.248 80 L 81.500 83.500 72.500 83.562 C 56.927 83.670, 49.377 86.248, 47.101 92.235 C 46.307 94.322, 46.502 95.144, 48.141 96.627 C 50.431 98.700, 53.083 98.818, 69.795 97.597 C 85.695 96.434, 85.081 95.638, 84.536 116.728 C 84.219 128.992, 83.735 133.756, 82.632 135.439 C 80.371 138.889, 67.140 141.222, 53.557 140.564 C 42.125 140.010, 39.008 140.747, 37.011 144.479 C 32.215 153.441, 44.858 155.348, 80.500 151.036 C 84.350 150.571, 101.900 150.406, 119.500 150.671 C 153.880 151.188, 157.403 150.822, 156.819 146.790 C 156.642 145.566, 154.719 143.357, 152.500 141.828 C 148.863 139.323, 147.456 139.024, 136.987 138.535 C 130.655 138.239, 124.123 137.609, 122.471 137.135 C 118.936 136.121, 108.508 136.489, 103.779 137.795 C 101.951 138.300, 99.510 138.363, 98.353 137.935 C 95.972 137.054, 93.795 131.834, 94.472 128.631 C 95.630 123.161, 95.834 111.228, 94.838 107.271 C 93.528 102.068, 94.745 98.426, 98.238 97.102 C 101.015 96.049, 113.408 97.989, 115.158 99.750 C 116.101 100.699, 116.111 101, 115.200 101 C 114.540 101, 114.053 101.338, 114.118 101.750 C 114.402 103.549, 113.896 104.962, 112.446 106.411 C 110.169 108.688, 109.862 111.860, 111.654 114.595 C 113.358 117.195, 126.969 124.793, 130.399 125.059 C 135.114 125.424, 137 124.953, 137 123.410 C 137 120.610, 131.635 114.111, 128.795 113.471 C 127.308 113.135, 125.842 112.077, 125.538 111.119 C 125.234 110.162, 123.466 107.905, 121.608 106.105 C 116.308 100.968, 118.854 96.894, 128.243 95.486 C 131.571 94.987, 132.956 94.275, 133.322 92.876 C 134.192 89.551, 132.170 84.417, 129.500 83.169 C 119.030 78.273, 116.589 77.764, 113.784 79.890 C 112.528 80.842, 109.475 82.203, 107 82.914 C 104.525 83.625, 102.001 84.612, 101.391 85.108 C 99.856 86.358, 95.387 82.677, 94.591 79.507 C 94.219 78.024, 94.791 74.445, 95.979 70.826 C 97.142 67.284, 98 61.994, 98 58.370 C 98 53.122, 98.330 51.894, 99.973 51.014 C 103.179 49.299, 111.546 48.029, 126.756 46.948 C 143.828 45.736, 146.006 45.093, 145.985 41.275 C 145.961 36.983, 144.815 36.028, 138.426 34.982 C 131.102 33.783, 124.086 33.920, 108 35.579 M 116.250 192.689 C 117.213 192.941, 118.787 192.941, 119.750 192.689 C 120.713 192.438, 119.925 192.232, 118 192.232 C 116.075 192.232, 115.287 192.438, 116.250 192.689" stroke="none" fill="black" fill-rule="evenodd"/>
</svg>