<svg xmlns="http://www.w3.org/2000/svg" width="256" height="256" viewBox="0 0 256 256" version="1.1">
	<path d="M 116.006 26.315 C 114.705 26.967, 113.263 28.850, 112.802 30.500 C 112.032 33.258, 112.457 43.393, 113.566 48.735 C 114.188 51.727, 110.800 55, 107.082 55 C 101.951 55, 101 54.144, 101 49.528 C 101 41.335, 93.520 36.788, 88.867 42.153 C 86.831 44.501, 86.628 45.487, 86.939 51.552 C 87.114 54.976, 86.514 56.370, 83.073 60.534 C 78.452 66.127, 78.345 66.700, 80.705 73.284 C 81.970 76.814, 83.065 78.229, 84.884 78.686 C 86.952 79.205, 88.090 78.458, 91.969 74.035 C 96.059 69.372, 97.191 68.671, 101.811 67.941 C 108.108 66.945, 112.563 68.243, 113.386 71.313 C 113.709 72.516, 113.979 76.094, 113.986 79.265 C 113.999 84.689, 113.808 85.150, 110.750 87.074 C 107.925 88.850, 106.258 89.067, 98 88.726 C 92.775 88.511, 87.281 88.747, 85.791 89.251 C 81.092 90.840, 81.204 95.433, 86.006 98.003 C 86.925 98.495, 91.437 99.369, 96.035 99.945 C 100.632 100.522, 104.820 101.420, 105.341 101.941 C 106.323 102.923, 104.375 109, 103.078 109 C 102.704 109, 101.072 111.138, 99.449 113.750 C 95.687 119.809, 88.350 127.768, 84.865 129.570 C 83.205 130.428, 81.912 132.126, 81.504 133.983 C 81.139 135.642, 80.427 137, 79.921 137 C 79.414 137, 79 138.135, 79 139.521 C 79 141.214, 79.791 142.403, 81.405 143.138 C 84.768 144.671, 93.766 140.484, 97.428 135.683 C 101.176 130.769, 108.353 125.058, 111.164 124.753 L 113.500 124.500 113.500 138.500 C 113.500 150.513, 113.765 152.890, 115.365 155.250 C 117.827 158.880, 120.558 158.755, 122.540 154.922 C 123.841 152.407, 124.033 149.607, 123.590 139.586 C 123.054 127.468, 123.078 127.291, 125.668 124.165 L 128.288 121.002 129.644 123.615 C 130.390 125.053, 131 126.852, 131 127.614 C 131 128.421, 132.031 129, 133.467 129 C 135.693 129, 144.594 135.794, 147.527 139.731 C 149.044 141.768, 155.701 143.065, 156.945 141.567 C 158.660 139.500, 157.005 130.117, 154.633 128.455 C 153.490 127.655, 152.898 127, 153.318 127 C 153.738 127, 153.050 125.900, 151.790 124.556 C 149.496 122.108, 147.393 121.044, 139.002 118.086 C 135.827 116.967, 134.088 115.626, 133.092 113.531 C 131.376 109.922, 127.951 106.901, 126.250 107.498 C 125.563 107.740, 124.936 107.389, 124.859 106.719 C 124.608 104.557, 124.921 100.746, 125.388 100.279 C 126.584 99.082, 134.360 98.045, 142.298 98.024 C 150.512 98.002, 151.258 97.825, 153.548 95.354 C 156.982 91.648, 156.744 88.436, 152.889 86.442 C 150.268 85.087, 148.795 85.004, 143.557 85.917 C 140.135 86.513, 134.796 87, 131.691 87 C 124.182 87, 122.888 85.168, 124.015 76.131 C 125.131 67.189, 126.080 66.500, 137.287 66.500 C 145.496 66.500, 146.854 66.234, 149.750 64.062 C 156.498 59, 152.003 54.637, 138.977 53.605 C 127.658 52.708, 125.380 51.729, 124.688 47.463 C 124.385 45.597, 124.386 41.663, 124.690 38.719 C 125.587 30.026, 121.177 23.726, 116.006 26.315 M 65 42.172 C 55.771 44.722, 49.599 45.329, 44.265 44.210 C 37.050 42.697, 31.638 44.311, 31.197 48.107 C 30.957 50.177, 31.491 50.961, 33.789 51.913 C 36.213 52.917, 37.518 52.795, 41.803 51.167 C 46.074 49.544, 47.215 49.436, 48.693 50.518 C 50.324 51.710, 50.350 52.198, 49.024 56.657 C 48.215 59.378, 47.565 65.810, 47.542 71.338 C 47.503 80.445, 47.325 81.318, 45.139 83.088 C 43.841 84.140, 41.971 85, 40.984 85 C 38.180 85, 31.084 89.160, 30.443 91.180 C 30.125 92.181, 29.416 93, 28.866 93 C 28.317 93, 28.010 94.237, 28.184 95.750 C 28.457 98.126, 29 98.542, 32.174 98.806 C 35.230 99.060, 36.449 98.528, 39.416 95.647 C 46.146 89.111, 48.863 92.669, 49.115 108.348 C 49.310 120.492, 47.983 123.802, 41.800 126.590 C 33.350 130.401, 30.074 137.165, 36.096 138.369 C 39.830 139.116, 55.212 135.564, 59.501 132.964 C 61.857 131.535, 63.791 131.259, 68.501 131.677 C 73.631 132.132, 74.848 131.904, 76.903 130.104 C 78.225 128.947, 78.836 128, 78.262 128 C 77.687 128, 76.532 126.287, 75.694 124.193 C 73.513 118.742, 71.654 117.464, 67.682 118.683 C 63.634 119.925, 60.177 118.552, 59.382 115.387 C 58.846 113.251, 59.025 111.031, 60.600 100.282 C 61.354 95.131, 62.994 93.638, 67.704 93.815 C 70.360 93.915, 71.914 93.306, 73.576 91.513 C 75.577 89.354, 75.711 88.669, 74.750 85.537 L 73.664 82 67.484 82 L 61.304 82 59.451 77.891 L 57.598 73.782 60.575 68.141 C 63.247 63.078, 63.455 62.049, 62.603 58.100 C 61.743 54.117, 61.869 53.524, 63.937 51.850 C 65.194 50.832, 66.890 50, 67.706 50 C 70.595 50, 75 46.612, 75 44.391 C 75 41.001, 71.803 40.292, 65 42.172" stroke="none" fill="black" fill-rule="evenodd"/>
</svg>