<svg xmlns="http://www.w3.org/2000/svg" width="256" height="256" viewBox="0 0 256 256" version="1.1">
	<path d="M 110.500 35.693 C 104.450 36.350, 87.934 37.340, 73.798 37.893 C 46.768 38.951, 43.362 39.586, 40.994 44.010 C 38.483 48.703, 45.312 52.742, 53.861 51.619 C 56.412 51.284, 64.003 50.563, 70.728 50.016 C 87.676 48.640, 90.140 49.952, 88.057 59.248 C 87.504 61.712, 86.598 67.727, 86.043 72.614 C 84.829 83.307, 84.012 84.181, 75.500 83.894 C 67.804 83.635, 55.590 85.568, 52.616 87.516 C 49.843 89.333, 47.829 93.390, 48.644 95.516 C 49.801 98.530, 52.754 99.080, 63.744 98.329 C 88.765 96.618, 88.343 96.302, 87.049 115.818 C 85.911 132.974, 85.776 133.182, 73.893 135.971 C 67.739 137.416, 63.402 137.906, 60.741 137.456 C 58.558 137.087, 52.919 136.769, 48.211 136.749 C 40.430 136.717, 39.479 136.926, 37.764 139.044 C 34.420 143.172, 36.853 148.237, 43.032 150.009 C 47.151 151.191, 69.653 150.463, 73.433 149.026 C 76.053 148.029, 91.560 145.791, 95.500 145.840 C 96.600 145.854, 104.475 146.331, 113 146.900 C 132.773 148.220, 148.160 148.270, 151.435 147.025 C 153.480 146.247, 154 145.374, 154 142.716 C 154 136.221, 152.855 135.699, 137.095 135.004 C 124.042 134.429, 122.762 134.200, 120.718 132.073 C 119.173 130.465, 118.879 129.624, 119.750 129.300 C 121.898 128.498, 121.120 126.484, 118.243 125.398 C 115.560 124.385, 112.849 124.974, 109.139 127.375 C 108.082 128.059, 108.057 128.417, 109.025 129.016 C 109.913 129.565, 109.590 130.217, 107.882 131.323 C 104.720 133.370, 100.800 134.216, 99.233 133.191 C 97.335 131.948, 96.937 101.206, 98.795 99.348 C 100.407 97.736, 99.535 97.881, 110 97.487 C 118.598 97.163, 131.272 95.089, 132.546 93.797 C 133.766 92.560, 132.006 86, 130.455 86 C 129.655 86, 129.112 85.472, 129.250 84.828 C 129.387 84.183, 127.925 83.166, 126 82.568 C 124.075 81.970, 121.517 80.922, 120.316 80.240 C 117.566 78.679, 116.480 78.681, 114.821 80.250 C 113.322 81.669, 104.781 85.036, 100.963 85.714 C 95.926 86.608, 94.313 79.170, 97.340 69 C 98.240 65.975, 98.982 60.924, 98.988 57.776 C 98.999 52.544, 99.237 51.930, 101.750 50.645 C 105.078 48.943, 118.867 47.009, 127.909 46.976 C 140.014 46.932, 146.312 44.320, 144.132 40.247 C 141.428 35.194, 129.719 33.608, 110.500 35.693" stroke="none" fill="black" fill-rule="evenodd"/>
</svg>