<svg xmlns="http://www.w3.org/2000/svg" width="256" height="256" viewBox="0 0 256 256" version="1.1">
	<path d="M 132.430 26.033 C 131.291 26.456, 129.596 27.968, 128.663 29.392 C 127.118 31.750, 127.102 32.307, 128.483 35.613 C 131.608 43.092, 129.856 44.725, 117.322 46.018 C 104.275 47.364, 101.860 45.765, 102.250 36.037 C 102.477 30.344, 102.268 29.603, 99.930 27.829 C 97.759 26.181, 96.958 26.062, 94.765 27.061 C 91.578 28.513, 91.116 30.110, 91.966 36.735 C 92.331 39.581, 92.239 42.609, 91.760 43.464 C 91.282 44.318, 88.440 46.828, 85.445 49.040 C 81.038 52.296, 80 53.613, 80 55.950 C 80 60.677, 80.992 61.975, 85.105 62.633 C 88.638 63.198, 89.093 63.629, 90.113 67.377 C 91.614 72.892, 92.011 107.729, 90.611 111 C 89.028 114.698, 88.014 115.125, 82.360 114.475 L 77.220 113.884 75.360 117.692 L 73.500 121.500 67 121.188 C 58.166 120.764, 56.886 119.259, 57.651 110.192 C 58.412 101.164, 60.651 96.898, 65.595 95.056 C 71.570 92.830, 74.799 88.219, 73.806 83.329 C 73.481 81.734, 72.566 81.541, 66.651 81.817 C 62.427 82.015, 59.327 81.686, 58.434 80.945 C 56.218 79.106, 56.708 72.457, 59.438 67.329 C 61.422 63.602, 61.769 61.842, 61.300 57.881 C 60.727 53.048, 60.749 53.003, 64.325 51.508 C 68.123 49.922, 70 47.472, 70 44.101 C 70 40.876, 66.693 39.728, 60.702 40.872 C 57.841 41.418, 51.675 42.149, 47 42.496 C 35.351 43.361, 31.300 44.648, 30.723 47.666 C 30.080 51.033, 32.880 52.248, 40.334 51.838 L 46.471 51.500 46.474 67.703 C 46.477 86.053, 46.110 87.006, 38.486 88.437 C 29.256 90.168, 23.267 98.021, 30.041 99.509 C 33.343 100.234, 35.664 99.106, 40.149 94.594 L 42.799 91.929 44.899 94.599 C 46.769 96.976, 47 98.592, 47 109.297 C 47 120.223, 46.778 121.703, 44.575 125.462 C 42.985 128.176, 40.438 130.532, 37.180 132.306 C 32.073 135.085, 30.191 137.591, 31.914 139.314 C 33.215 140.615, 49.578 137.523, 57.500 134.479 C 60.800 133.211, 64.847 131.874, 66.494 131.507 C 68.141 131.140, 70.072 130.355, 70.786 129.763 C 71.517 129.156, 76.966 128.628, 83.291 128.553 C 89.456 128.479, 93.707 128.584, 92.738 128.785 C 91.769 128.987, 91.239 129.578, 91.561 130.099 C 92.226 131.175, 89.891 137, 88.794 137 C 87.598 137, 79.186 145.559, 78.887 147.080 C 78.366 149.733, 80.057 152.778, 82.282 153.194 C 90.238 154.682, 100 144.376, 100 134.490 C 100 132.033, 100.730 130.570, 102.750 128.979 C 105.355 126.927, 106.134 126.851, 117.481 127.531 C 131.195 128.353, 132.107 128.889, 131.883 136 C 131.663 143.019, 131.878 144.019, 133.750 144.684 C 134.713 145.025, 137.716 146.867, 140.425 148.777 C 148.959 154.792, 154.735 156.407, 157.571 153.571 C 160.642 150.501, 158.696 145, 154.540 145 C 153.407 145, 151.311 143.916, 149.882 142.592 C 148.454 141.267, 144.983 139.366, 142.170 138.367 C 139.357 137.368, 136.089 135.822, 134.909 134.931 C 133.097 133.565, 132.942 132.976, 133.916 131.156 C 134.938 129.247, 134.809 128.989, 132.785 128.902 C 129.529 128.762, 142.766 126.136, 147.101 126.062 C 154.912 125.928, 160 121.979, 160 116.050 C 160 113.778, 159.920 113.754, 151.678 113.511 C 146.638 113.363, 145.530 112.961, 143.428 110.515 C 140.698 107.338, 140.801 107.818, 140.982 99 C 141.057 95.355, 140.498 91.031, 139.709 89.157 C 138.804 87.007, 138.546 84.482, 138.985 82.080 C 139.361 80.027, 139.520 77.481, 139.339 76.423 C 138.533 71.722, 138.825 65.558, 139.869 65.210 C 140.491 65.003, 141 63.816, 141 62.572 C 141 59.301, 143.720 57.367, 150.173 56.049 C 153.293 55.412, 156.307 54.335, 156.871 53.656 C 158.708 51.442, 155.734 47.637, 149.874 44.705 C 145.167 42.350, 144.110 41.310, 143.145 38.089 C 142.515 35.988, 142 33.386, 142 32.308 C 142 30.306, 138.695 26.711, 136 25.780 C 135.175 25.496, 133.568 25.609, 132.430 26.033 M 104.082 60.401 C 102.213 62.653, 103.398 69.057, 106.090 71.257 C 108.149 72.940, 108.377 72.930, 111.469 71.019 C 113.918 69.505, 116.147 69.081, 120.695 69.262 C 128.154 69.558, 130.225 68.153, 129.801 63.086 C 129.506 59.575, 129.416 59.505, 125.500 59.729 C 123.300 59.855, 119.925 60.047, 118 60.154 C 116.075 60.262, 112.458 59.998, 109.961 59.568 C 106.333 58.943, 105.153 59.110, 104.082 60.401 M 104.250 84.116 C 101.721 86.714, 103.498 92.529, 107 93.111 C 107.825 93.248, 110.075 92.902, 112 92.341 C 113.925 91.781, 117.198 91.525, 119.272 91.773 C 124.038 92.343, 129 90.374, 129 87.914 C 129 85.254, 125.819 83.939, 119.778 84.101 C 116.875 84.178, 112.475 83.924, 110 83.536 C 106.850 83.043, 105.125 83.217, 104.250 84.116 M 102.524 104.974 C 100.502 107.208, 100.602 109.287, 102.865 112.081 C 104.671 114.312, 104.905 114.342, 110.330 113.041 C 114.731 111.985, 116.243 111.957, 117.392 112.910 C 118.196 113.577, 120.756 114.150, 123.082 114.182 C 126.392 114.227, 127.706 113.725, 129.133 111.870 C 131.324 109.021, 131.491 106.652, 129.612 105.093 C 128.788 104.409, 123.310 103.809, 116.136 103.615 C 105.805 103.337, 103.826 103.535, 102.524 104.974" stroke="none" fill="black" fill-rule="evenodd"/>
</svg>