<svg xmlns="http://www.w3.org/2000/svg" width="256" height="256" viewBox="0 0 256 256" version="1.1">
	<path d="M 109 27.678 C 103.775 28.493, 96.800 29.301, 93.500 29.473 C 90.200 29.645, 87.231 29.834, 86.903 29.893 C 84.993 30.235, 81.676 34.467, 79.371 39.501 C 76.768 45.187, 76.750 45.368, 78.320 50.391 C 79.198 53.201, 79.897 57.750, 79.875 60.500 C 79.792 70.596, 81.849 72.274, 95.710 73.414 C 102.678 73.987, 108 75.556, 108 77.038 C 108 78.039, 105.785 79.771, 103.997 80.168 C 103.173 80.351, 102.198 80.920, 101.828 81.432 C 101.459 81.945, 98.034 82.307, 94.218 82.236 C 90.402 82.165, 84.920 82.730, 82.037 83.490 C 78.375 84.456, 76.026 84.580, 74.241 83.902 C 72.837 83.368, 68.551 83.038, 64.718 83.170 C 58.390 83.387, 57.568 83.185, 55.775 80.970 C 53.597 78.280, 53.732 75.142, 56.387 66.780 C 57.863 62.133, 57.839 61.969, 54.816 56.107 C 51.826 50.310, 51.420 49.987, 45 48.291 C 42.108 47.527, 35.133 47.826, 33.415 48.788 C 31.804 49.689, 31.823 49.835, 33.681 50.829 C 34.782 51.418, 37.479 52.006, 39.674 52.136 L 43.667 52.371 41.901 57.018 C 39.900 62.284, 40.363 65.987, 43.948 73.394 C 46.043 77.720, 46.065 78.060, 44.475 81.412 C 42.842 84.852, 37.329 89, 34.389 89 C 32.123 89, 26 94.266, 26 96.215 C 26 99.671, 32.467 101.111, 37.562 98.790 C 41.809 96.855, 43 99.517, 42.998 110.941 C 42.997 122.674, 41.387 126.625, 35.500 129.354 C 30.345 131.743, 28 133.858, 28 136.120 C 28 139.313, 31.528 140.312, 36.802 138.612 C 39.386 137.779, 43.300 136.794, 45.500 136.423 C 52.633 135.218, 68.383 130.927, 69.709 129.826 C 70.419 129.237, 71 126.893, 71 124.618 C 71 118.751, 68.758 117.507, 62.074 119.665 C 55.316 121.848, 54 120.750, 54 112.927 C 54 105.897, 55.679 97.511, 57.367 96.110 C 58.727 94.981, 60.270 94.915, 77.167 95.261 C 88.806 95.499, 92.020 96.290, 88.761 98.114 C 87.814 98.644, 85.862 101.086, 84.424 103.540 C 81.919 107.814, 81.851 108.317, 82.814 115.520 C 83.366 119.656, 84.752 124.830, 85.893 127.020 C 87.077 129.290, 87.500 131, 86.878 131 C 86.278 131, 84.083 132.350, 82 134 C 79.917 135.650, 77.766 137, 77.221 137 C 75.958 137, 73 141.471, 73 143.381 C 73 144.180, 72.477 145.008, 71.837 145.221 C 69.765 145.912, 70.141 148.784, 72.608 151.101 C 74.938 153.290, 75.127 153.310, 78.484 151.709 C 91.453 145.525, 96.763 138.319, 91.438 134.130 C 88.058 131.471, 88.382 130.364, 92.750 129.642 C 100.299 128.394, 105.892 128.892, 108 131 C 110.367 133.367, 110.441 134.014, 108.634 136.486 C 107.882 137.514, 107.446 139.737, 107.665 141.427 C 108.025 144.215, 107.682 144.658, 103.971 146.201 C 99.989 147.857, 99.889 148.017, 100.190 152.201 L 100.500 156.500 106.411 156.805 C 114.884 157.241, 117.228 155.951, 120.238 149.190 C 124.004 140.731, 124.143 140.038, 122.814 136.361 C 120.974 131.273, 123.043 129.723, 131.976 129.498 C 138.239 129.340, 139.394 128.997, 141.973 126.525 C 144.204 124.389, 145.047 122.470, 145.560 118.366 C 145.929 115.415, 146.629 113, 147.115 113 C 148.496 113, 148.156 109.202, 146.486 105.973 C 145.053 103.202, 136.823 98.482, 131.500 97.379 C 124.073 95.839, 114.386 95.004, 110.767 95.591 C 104.190 96.659, 99.593 96.074, 101.282 94.385 C 102.874 92.793, 143.859 91.874, 149.262 93.310 C 151.592 93.929, 152.200 93.656, 153.153 91.563 C 154.626 88.330, 152.138 84.254, 148.237 83.509 C 146.732 83.221, 142.575 82.310, 139 81.484 C 135.425 80.659, 130.123 79.987, 127.218 79.992 C 124.313 79.996, 120.282 79.309, 118.261 78.465 L 114.587 76.929 118.043 74.824 C 119.967 73.652, 124.382 72.376, 128 71.946 C 131.575 71.521, 136.587 70.434, 139.139 69.531 C 143.319 68.050, 144.035 67.314, 146.389 62.069 C 147.830 58.858, 149 54.417, 149 52.160 C 149 49.910, 149.714 45.968, 150.586 43.399 C 152.765 36.979, 151.803 32.459, 147.728 29.981 C 142.204 26.621, 123.068 25.483, 109 27.678 M 94.602 40.549 C 92.582 42.026, 92.508 46.874, 94.494 47.636 C 95.316 47.952, 95.740 48.612, 95.435 49.105 C 95.131 49.597, 95.584 50, 96.441 50 C 97.298 50, 98 49.601, 98 49.113 C 98 47.520, 111.081 45.712, 122.411 45.739 C 133.556 45.765, 137 45.032, 137 42.634 C 137 39.825, 132.415 39.142, 114.352 39.260 C 102.235 39.338, 95.672 39.767, 94.602 40.549 M 94.655 56.829 C 90.687 61.213, 93.737 62.932, 103.293 61.697 C 110.933 60.710, 118.305 60.476, 126.500 60.960 C 135.378 61.485, 136.223 61.286, 134.979 58.961 C 133.959 57.054, 133.033 56.932, 120.694 57.079 C 113.245 57.168, 105.979 56.750, 104.007 56.118 C 99.061 54.535, 96.559 54.725, 94.655 56.829 M 100.979 111.807 C 95.441 114.489, 98.038 118.355, 105.236 118.143 C 107.370 118.081, 125.718 117.170, 127.179 117.054 C 127.552 117.024, 128.579 116.278, 129.461 115.396 C 130.934 113.923, 130.894 113.643, 128.980 111.983 C 127.213 110.450, 125.144 110.188, 115.426 110.269 C 107.650 110.333, 102.999 110.829, 100.979 111.807 M 133.600 137.250 C 129.542 140.887, 130.934 144.228, 137.849 147.442 C 140.957 148.887, 145.075 150.966, 147 152.062 C 148.925 153.158, 151.607 153.930, 152.960 153.777 C 157.936 153.216, 156.844 145, 151.793 145 C 150.579 145, 149.515 143.906, 148.838 141.964 C 148.154 140.003, 146.416 138.233, 143.929 136.964 C 138.951 134.424, 136.684 134.487, 133.600 137.250" stroke="none" fill="black" fill-rule="evenodd"/>
</svg>