<svg xmlns="http://www.w3.org/2000/svg" width="256" height="256" viewBox="0 0 256 256" version="1.1">
	<path d="M 119.098 25.265 C 115.208 27.265, 114.336 29.465, 115.940 33.225 C 118.024 38.108, 117.727 42.993, 115.223 45.021 C 113.110 46.732, 113.110 46.734, 115.054 50.363 C 116.351 52.781, 117 55.958, 117 59.882 C 117 65.546, 117.125 65.831, 120.250 67.304 C 122.822 68.516, 124.592 68.635, 128.736 67.875 C 136.303 66.487, 142 69.747, 142 75.466 C 142 81.296, 136.149 85.006, 132.582 81.439 C 131.723 80.580, 129.503 79.631, 127.647 79.330 C 124.891 78.883, 123.676 79.317, 121.001 81.708 L 117.728 84.633 117.720 111.066 C 117.715 125.605, 117.866 139.251, 118.056 141.391 C 118.580 147.320, 122.852 151.151, 132.503 154.348 C 142.340 157.607, 145.787 157.653, 154.401 154.641 C 162.578 151.782, 164.494 150.105, 163.611 146.585 C 162.896 143.737, 156.282 139, 153.020 139 C 150.568 139, 150.534 138.641, 152.678 135.369 C 155.059 131.734, 154.999 128.063, 152.536 126.785 C 151.416 126.204, 149.723 124.920, 148.773 123.931 C 147.132 122.222, 147.178 122.037, 149.707 120.195 C 152.944 117.837, 153.704 112.625, 151.085 110.738 C 148.329 108.751, 147.943 106.361, 150.067 104.439 C 151.130 103.477, 151.985 101.747, 151.967 100.595 C 151.919 97.608, 148.607 94.028, 145.666 93.784 C 143.005 93.564, 138 95.774, 138 97.169 C 138 97.626, 137.325 98, 136.500 98 C 135.675 98, 135 97.550, 135 97 C 135 96.450, 134.373 96, 133.607 96 C 130.490 96, 131.019 89.900, 134.239 88.707 C 134.932 88.450, 137.576 88.466, 140.112 88.743 C 145.788 89.362, 150.938 87.760, 154.103 84.390 C 156.279 82.072, 156.506 80.947, 156.565 72.169 C 156.643 60.714, 155.808 58.856, 149.505 56.449 C 145.108 54.770, 144.706 54.775, 139.367 56.590 L 133.807 58.480 131.923 56.153 C 130.212 54.040, 130.173 53.566, 131.504 50.992 L 132.969 48.158 142.237 48.711 C 151.497 49.264, 151.508 49.262, 154.753 46.231 C 156.539 44.563, 158 42.669, 158 42.022 C 158 41.375, 156.631 39.477, 154.957 37.803 C 151.720 34.566, 150.591 34.488, 137.705 36.606 C 134.857 37.074, 133.429 36.793, 131.979 35.481 C 130.916 34.519, 130.248 33.408, 130.493 33.011 C 131.105 32.021, 124.128 23.996, 122.672 24.015 C 122.027 24.023, 120.419 24.585, 119.098 25.265 M 87 26.750 C 84.158 27.659, 83.060 30.159, 83.641 34.399 C 84.129 37.961, 83.834 38.893, 81.466 41.262 C 79.958 42.769, 77.100 44.490, 75.113 45.086 C 73.126 45.683, 70.456 47.018, 69.179 48.053 L 66.859 49.935 70.929 54.047 C 75.740 58.906, 75.931 60.749, 72.500 69.192 C 71.125 72.576, 70 77.067, 70 79.172 L 70 83 79.679 83 C 85.002 83, 90.830 82.468, 92.629 81.817 C 95.033 80.948, 96.831 80.919, 99.406 81.710 C 104.856 83.383, 106.256 81.730, 107.327 72.356 C 107.820 68.035, 108.184 62.105, 108.135 59.178 C 108.068 55.170, 108.588 53.123, 110.242 50.887 C 113.073 47.058, 111.896 44.969, 105.908 43.191 C 103.484 42.472, 100.848 41.537, 100.050 41.114 C 97.918 39.984, 95.047 35.841, 94.528 33.147 C 93.737 29.039, 89.937 25.810, 87 26.750 M 35.835 46.673 C 32.718 47.498, 32.711 50.308, 35.819 52.979 C 38.317 55.127, 38.934 56.685, 39.988 63.500 C 42.674 80.867, 42.656 81.083, 38.082 85.797 C 35.838 88.109, 33.664 89.895, 33.251 89.765 C 32.838 89.635, 31.052 90.609, 29.281 91.930 C 23.122 96.523, 26.965 100.484, 35.338 98.172 C 38.460 97.310, 38.883 97.449, 39.890 99.658 C 40.501 100.998, 41 106.616, 41 112.143 C 41 123.958, 39.847 126.688, 33.637 129.576 C 30.202 131.173, 29.447 132.046, 29.189 134.716 C 28.922 137.485, 29.251 138.025, 31.565 138.606 C 35.056 139.482, 54.201 135.529, 59.750 132.786 C 66.136 129.630, 65.141 126.664, 56.159 122.081 C 51.337 119.621, 50.831 117.809, 52.106 107.581 C 53.203 98.782, 54.971 95, 57.986 95 C 59.974 95, 67.995 102.566, 68.006 104.451 C 68.010 105.028, 68.625 106.674, 69.374 108.109 C 70.955 111.140, 70.527 126.311, 68.395 142.795 C 67.492 149.779, 69.102 153, 73.495 153 C 77.927 153, 81 149.482, 81 144.408 C 81 137.977, 83.077 135.997, 89.807 136.015 C 92.938 136.024, 96.138 136.434, 96.917 136.927 C 98.620 138.005, 98.818 144.227, 97.167 144.778 C 95.852 145.216, 95.618 149.850, 96.815 151.735 C 97.246 152.414, 99.022 153.254, 100.760 153.602 C 103.400 154.130, 104.420 153.734, 106.960 151.194 C 108.632 149.522, 109.996 147.332, 109.990 146.327 C 109.985 145.322, 110.230 137.075, 110.535 128 C 111.234 107.209, 111.240 108.892, 110.426 99.737 C 109.785 92.536, 109.489 91.758, 106.321 88.977 C 103.435 86.443, 102.584 86.152, 100.816 87.099 C 99.665 87.714, 97.436 88.394, 95.862 88.609 C 94.288 88.824, 91.537 89.210, 89.750 89.468 C 87.963 89.725, 82.569 90.239, 77.764 90.610 C 69.437 91.253, 68.842 91.161, 65.036 88.642 C 62.840 87.189, 60.679 86, 60.234 86 C 59.789 86, 57.941 84.762, 56.129 83.249 C 53.295 80.883, 52.834 79.867, 52.839 75.999 C 52.843 73.524, 53.369 70.150, 54.009 68.500 C 55.484 64.696, 55.531 59.131, 54.100 57.700 C 52.284 55.884, 52.755 50.877, 54.792 50.344 C 55.777 50.086, 56.649 49.004, 56.730 47.938 C 56.865 46.137, 56.192 46.008, 47.188 46.116 C 41.860 46.180, 36.751 46.430, 35.835 46.673 M 87.389 54.980 C 84.291 56.231, 83.957 58.187, 86.042 62.845 C 87.499 66.100, 88.439 67, 90.380 67 C 93.784 67, 95.690 64.794, 96.518 59.896 C 97.027 56.881, 96.847 55.518, 95.859 54.892 C 94.161 53.816, 90.166 53.858, 87.389 54.980 M 88.096 101.283 C 86.224 101.952, 84.199 103.316, 83.596 104.313 C 81.949 107.036, 86.038 110, 91.442 110 C 94.848 110, 95.905 109.547, 96.920 107.649 C 97.612 106.356, 98.026 104.219, 97.839 102.899 C 97.433 100.028, 93.455 99.368, 88.096 101.283 M 134.244 104.105 C 132.927 104.593, 132 105.775, 132 106.968 C 132 108.526, 132.642 108.993, 134.750 108.968 C 136.262 108.951, 138.227 108.383, 139.116 107.706 C 140.579 106.592, 140.531 106.324, 138.610 104.875 C 137.138 103.765, 135.801 103.529, 134.244 104.105 M 88 117.987 C 87.175 118.465, 85.713 119.099, 84.750 119.396 C 83.787 119.694, 83.007 120.514, 83.015 121.219 C 83.046 123.783, 84.795 125.163, 88.675 125.683 C 93.752 126.364, 98.692 122.755, 97.561 119.191 C 97.006 117.442, 96.122 117.012, 93.183 117.059 C 91.157 117.091, 88.825 117.509, 88 117.987 M 131.115 121.784 C 129.579 124.655, 131.743 127.029, 135.250 126.322 C 137.326 125.903, 138 125.182, 138 123.383 C 138 121.993, 137.409 121, 136.582 121 C 135.802 121, 134.486 120.740, 133.658 120.422 C 132.765 120.080, 131.731 120.633, 131.115 121.784 M 131.392 137.573 C 130.401 141.521, 132.269 142.507, 139.488 141.848 C 143.754 141.459, 145.659 137, 141.559 137 C 140.216 137, 138.840 136.550, 138.500 136 C 138.160 135.450, 136.567 135, 134.960 135 C 132.655 135, 131.902 135.543, 131.392 137.573" stroke="none" fill="black" fill-rule="evenodd"/>
</svg>