<svg xmlns="http://www.w3.org/2000/svg" width="256" height="256" viewBox="0 0 256 256" version="1.1">
	<path d="M 93.500 30.163 C 86.350 30.528, 79.375 31.038, 78 31.297 C 76.625 31.555, 71.225 32.344, 66 33.050 C 54.334 34.626, 50.495 36.142, 48.524 39.954 C 46.816 43.256, 46.517 48.108, 47.933 49.550 C 48.446 50.072, 49.154 55, 49.506 60.500 C 49.857 66, 50.602 72.268, 51.159 74.429 C 51.717 76.590, 51.885 80.278, 51.533 82.626 C 50.844 87.222, 52.834 92.637, 55.885 94.470 C 58.879 96.268, 71.141 95.903, 75.877 93.875 C 83.310 90.691, 85 91.522, 85 98.359 C 85 104.283, 83.018 105.709, 73.768 106.439 C 69.221 106.798, 62.585 107.041, 59.022 106.980 C 47.341 106.777, 40.616 110.230, 42.604 115.410 C 43.392 117.464, 52.387 119.373, 57.335 118.536 C 66.925 116.913, 68.097 116.810, 70.247 117.398 C 71.486 117.737, 73.297 118.631, 74.272 119.384 C 76.588 121.173, 75.431 124.354, 70.688 129.239 C 68.762 131.222, 66.783 133.565, 66.290 134.446 C 65.732 135.443, 62.992 136.435, 59.027 137.073 C 53.834 137.909, 51.723 138.871, 47.580 142.285 C 41.320 147.445, 41.125 147.714, 41.750 150.361 C 42.408 153.147, 44.794 155, 47.724 155 C 52.314 155, 66.108 146.572, 76.787 137.244 C 79.144 135.185, 82.408 132.375, 84.040 131 C 85.773 129.539, 87.532 126.669, 88.270 124.096 C 90.346 116.853, 92.196 116.097, 109.669 115.346 C 125.456 114.668, 132.603 115.612, 135.177 118.713 C 136.562 120.383, 136.398 127.926, 134.870 132.758 C 133.493 137.113, 127.407 143.752, 124.135 144.469 C 122.686 144.786, 118.790 145.232, 115.478 145.461 C 106.962 146.048, 103.991 147.335, 104.524 150.207 C 105.169 153.675, 109.570 156.976, 113.806 157.167 C 126.566 157.743, 131.193 156.332, 138.182 149.738 C 143.912 144.330, 147.703 133.179, 148.633 118.999 C 149.099 111.888, 148.947 111.050, 146.723 108.464 C 144.445 105.816, 143.651 105.603, 132.903 104.765 C 117.899 103.595, 110.821 103.528, 103.303 104.482 C 97.142 105.264, 97.101 105.252, 96.427 102.567 C 96.054 101.081, 96.164 98.433, 96.671 96.683 C 97.548 93.652, 97.804 93.514, 102.046 93.798 C 114.798 94.653, 121.595 94.318, 124.700 92.684 C 126.461 91.758, 128.816 91, 129.935 91 C 131.053 91, 133.351 89.763, 135.041 88.250 C 137.898 85.694, 138.143 84.935, 138.521 77.478 C 138.745 73.067, 139.537 67.667, 140.283 65.478 C 141.214 62.746, 141.537 57.764, 141.313 49.572 C 140.960 36.615, 140.454 35.320, 134.561 32.273 C 130.752 30.303, 110.822 29.279, 93.500 30.163 M 97.994 44.507 C 97.306 45.336, 96.695 47.852, 96.636 50.098 C 96.485 55.845, 98.758 57.392, 106 56.475 C 109.025 56.092, 114.454 55.856, 118.064 55.950 C 123.222 56.085, 125.135 55.711, 126.999 54.202 C 129.087 52.511, 129.255 51.879, 128.401 48.904 C 126.981 43.952, 124.241 43.032, 110.872 43.015 C 101.719 43.003, 98.979 43.321, 97.994 44.507 M 68.692 44.984 C 62.059 45.857, 59 48.310, 59 52.758 C 59 57.394, 60.466 58, 71.684 58 C 81.553 58, 82.096 57.886, 85.126 55.179 C 88.077 52.542, 88.223 52.101, 87.358 48.429 L 86.432 44.500 80.466 44.360 C 77.185 44.284, 71.886 44.565, 68.692 44.984 M 102 68.719 C 96.947 70.544, 95.444 76.419, 98.886 80.895 C 100.565 83.079, 101.160 83.221, 105.614 82.497 C 108.301 82.061, 113.495 81.774, 117.155 81.859 C 123.446 82.007, 123.951 81.847, 126.405 78.931 C 129.334 75.449, 129.563 74.152, 127.698 71.601 C 126.640 70.155, 124.555 69.750, 116.592 69.444 C 111.200 69.237, 106.049 68.867, 105.144 68.623 C 104.240 68.378, 102.825 68.422, 102 68.719 M 70 70.979 C 63.121 71.836, 61.505 72.555, 60.271 75.308 C 59.011 78.118, 60.512 82.639, 62.914 83.267 C 63.898 83.525, 66.923 83.522, 69.636 83.261 C 72.349 83, 76.274 83.258, 78.359 83.833 C 83.257 85.186, 84.751 84.532, 86.537 80.257 C 90.407 70.994, 86.677 68.902, 70 70.979" stroke="none" fill="black" fill-rule="evenodd"/>
</svg>