<svg xmlns="http://www.w3.org/2000/svg" width="256" height="256" viewBox="0 0 256 256" version="1.1">
	<path d="M 84.928 24.577 C 82.831 26.809, 82.502 28.133, 82.473 34.460 C 82.451 39.183, 81.948 42.358, 81.049 43.441 C 78.248 46.816, 72.793 48.297, 62.500 48.478 C 57 48.575, 51.535 49.172, 50.355 49.806 C 47.479 51.350, 46.170 55.509, 46.662 61.532 C 47.838 75.914, 48.317 103.971, 47.736 124.500 C 47.374 137.299, 47.574 140.124, 49.099 143.750 C 51.121 148.556, 50.938 148.469, 55.282 146.659 C 57.801 145.610, 65.993 145.370, 93 145.556 C 111.975 145.687, 128.175 146.052, 129 146.367 C 135.698 148.928, 136.108 148.975, 138.444 147.445 C 141.522 145.428, 142.366 140.535, 140.631 134.769 C 139.868 132.232, 139.593 129.784, 140.020 129.329 C 140.448 128.873, 141.079 125.125, 141.423 121 C 142.237 111.222, 142.226 111.962, 141.855 94 C 141.631 83.141, 141.899 77.855, 142.752 76.345 C 143.421 75.160, 144.256 71.097, 144.607 67.317 C 145.144 61.537, 144.898 59.633, 143.060 55.361 C 140.224 48.769, 138.469 48.225, 116.130 47.014 C 96.474 45.949, 93.470 44.999, 94.647 40.219 C 95.015 38.724, 95.988 36.463, 96.809 35.196 C 102.219 26.842, 91.663 17.408, 84.928 24.577 M 86.500 56.905 C 85.400 57.360, 79.550 58.961, 73.500 60.461 C 59.092 64.036, 58.522 64.649, 57.679 77.474 C 56.808 90.746, 58.020 92.682, 66.075 90.872 C 70.057 89.977, 104.324 89.436, 120.341 90.015 C 130.479 90.381, 131.217 89.367, 131.690 74.424 C 132.155 59.706, 131.712 59, 122.029 59 C 118.365 59, 112.922 58.583, 109.934 58.074 C 101.447 56.628, 88.705 55.993, 86.500 56.905 M 59.857 105.233 L 56.753 107.121 57.194 118.639 C 57.507 126.808, 58.025 130.397, 58.977 130.986 C 60.514 131.936, 80.156 131.580, 87.227 130.474 C 89.827 130.067, 91.713 129.344, 91.418 128.867 C 91.123 128.390, 92.960 128, 95.500 128 C 98.040 128, 99.870 128.401, 99.568 128.890 C 98.802 130.130, 105.549 131.258, 109.084 130.482 C 110.688 130.129, 112 129.411, 112 128.885 C 112 128.282, 112.651 128.278, 113.766 128.875 C 115.357 129.726, 121.621 130.336, 126.275 130.093 C 128.476 129.978, 130.360 125.784, 130.585 120.500 C 130.678 118.300, 131.086 114.435, 131.491 111.912 C 132.170 107.680, 132.014 107.156, 129.474 105.158 C 126.769 103.031, 126.154 102.995, 94.840 103.169 C 65.540 103.332, 62.709 103.499, 59.857 105.233" stroke="none" fill="black" fill-rule="evenodd"/>
</svg>