<svg xmlns="http://www.w3.org/2000/svg" width="256" height="256" viewBox="0 0 256 256" version="1.1">
	<path d="M 118.558 27.585 C 116.654 29.489, 113 37.273, 113 39.425 C 113 41.966, 109.821 49.413, 108.166 50.750 C 105.817 52.646, 82.999 52.467, 80.441 50.532 C 79.374 49.724, 78.803 49.049, 79.173 49.032 C 79.543 49.014, 78.141 44.612, 76.057 39.250 C 73.008 31.401, 71.771 29.321, 69.712 28.584 C 65.573 27.102, 62 30.052, 62 34.952 C 62 37.100, 62.663 39.520, 63.473 40.330 C 64.283 41.140, 65.309 43.535, 65.753 45.651 C 67.645 54.663, 64.906 56.839, 53.989 54.998 C 50.011 54.327, 45.231 54.025, 43.368 54.328 C 38.736 55.079, 33.996 58.622, 34.015 61.318 C 34.036 64.307, 34.934 65.431, 38.938 67.483 C 42.649 69.386, 49.182 69.181, 59.812 66.829 C 63.927 65.919, 66.197 65.929, 69.878 66.872 C 73.291 67.747, 75.407 67.796, 77.379 67.046 C 78.891 66.471, 87.286 65.706, 96.035 65.345 C 114 64.605, 114.386 64.761, 112.062 71.824 C 111.166 74.545, 111.136 76.244, 111.945 78.365 C 113.017 81.175, 113.162 81.223, 119.461 80.822 C 125.408 80.443, 125.977 80.589, 127.159 82.797 C 127.861 84.108, 130.250 86.101, 132.467 87.225 C 134.685 88.349, 137.978 90.559, 139.785 92.135 C 143.964 95.780, 146.404 95.750, 150.147 92.007 C 152.427 89.727, 152.976 88.477, 152.451 86.757 C 151.294 82.960, 148.887 81, 145.383 81 C 143.564 81, 138.758 79.425, 134.703 77.500 C 130.647 75.575, 126.849 74, 126.262 74 C 125.676 74, 124.738 72.687, 124.178 71.082 C 123.330 68.650, 123.487 67.870, 125.116 66.395 C 126.682 64.978, 129.403 64.540, 138.785 64.192 C 152.025 63.701, 156 62.386, 156 58.497 C 156 53.818, 152.103 52.513, 137.853 52.421 C 129.364 52.366, 124.619 51.929, 123.633 51.111 C 121.617 49.437, 122.465 45.526, 126.061 39.912 C 129.534 34.491, 129.620 33.529, 127.011 29.250 C 124.795 25.616, 121.229 24.914, 118.558 27.585 M 71.396 71.354 C 69.689 72.534, 66.367 75.188, 64.016 77.250 C 61.664 79.313, 58.986 81, 58.066 81 C 55.279 81, 47.210 86.694, 45.609 89.790 C 43.613 93.649, 44.515 96.516, 48.458 98.843 C 52.612 101.293, 53.418 105.128, 51.496 113.281 C 50.689 116.701, 50.021 123.550, 50.011 128.500 C 49.987 139.965, 48.019 144, 42.449 144 C 37.712 144, 35 145.564, 35 148.295 C 35 152.547, 37.093 152.836, 63.576 152.232 C 77.284 151.919, 91.200 151.698, 94.500 151.739 C 127.065 152.153, 155.375 151.405, 157.878 150.065 C 160.451 148.688, 160.643 145.226, 158.250 143.344 C 155.551 141.220, 150.012 139, 147.413 139 C 144.349 139, 142.753 135.989, 141.848 128.500 C 140.480 117.168, 139.851 113.526, 139.176 113.013 C 138.804 112.731, 138.451 111.015, 138.391 109.200 C 138.154 102.017, 127.359 96.496, 108.859 94.096 C 99.237 92.847, 91.229 93.915, 88.306 96.836 C 87.010 98.131, 84.520 98.533, 77.071 98.650 C 71.807 98.733, 65.330 99.133, 62.679 99.538 L 57.858 100.276 58.569 96.388 C 59.444 91.602, 63.286 87.904, 71.647 83.800 C 76.677 81.331, 77.901 80.243, 78.388 77.809 C 78.999 74.757, 78.103 72.146, 75.805 70.272 C 74.848 69.492, 73.672 69.781, 71.396 71.354 M 88 111.041 C 84.975 112.051, 83.420 112.905, 84.543 112.939 C 87.316 113.022, 88.521 117.907, 88.880 130.513 C 89.246 143.349, 91.426 146.388, 97.440 142.447 C 100.292 140.578, 101.102 137.819, 101.625 128.178 C 101.844 124.151, 102.711 119.525, 103.552 117.899 C 104.394 116.272, 104.812 114.504, 104.482 113.971 C 104.124 113.392, 105.925 113, 108.941 113 L 114 113 114.015 119.250 C 114.024 122.688, 114.417 126.110, 114.889 126.855 C 115.379 127.628, 115.319 129.609, 114.751 131.461 C 113.332 136.083, 115.454 140.115, 119.906 141.261 C 128.665 143.516, 130.929 139.664, 130.322 123.538 C 130.095 117.509, 129.680 112.347, 129.400 112.066 C 129.119 111.786, 122.952 111.541, 115.695 111.522 C 107.069 111.500, 101.744 111.057, 100.316 110.244 C 97.468 108.622, 94.711 108.801, 88 111.041 M 63.659 112.655 C 61.949 113.144, 61.859 114.154, 62.399 126.841 C 62.878 138.099, 63.279 140.720, 64.681 141.750 C 66.937 143.408, 68.075 143.328, 71.027 141.308 C 74.668 138.816, 74.999 138.035, 74.965 132 C 74.931 126.072, 75.509 120.144, 76.399 117.285 C 76.704 116.303, 76.563 114.876, 76.084 114.113 C 75.182 112.677, 66.957 111.712, 63.659 112.655" stroke="none" fill="black" fill-rule="evenodd"/>
</svg>