<svg xmlns="http://www.w3.org/2000/svg" width="256" height="256" viewBox="0 0 256 256" version="1.1">
	<path d="M 56.713 29.250 C 55.277 31.929, 55.017 34.666, 55.235 44.820 C 55.542 59.119, 54.945 60.217, 47 59.965 C 39.247 59.719, 38.341 59.932, 35.636 62.636 C 32.540 65.732, 32.189 69.956, 34.829 72.345 C 37.114 74.413, 39.834 74.460, 42.033 72.470 C 45.139 69.659, 49.598 68.977, 51.751 70.982 C 53.295 72.421, 53.621 73.910, 53.404 78.521 C 53.255 81.681, 52.653 84.747, 52.066 85.334 C 51.480 85.920, 51 87.015, 51 87.767 C 51 88.518, 49.875 90.608, 48.500 92.411 C 47.125 94.214, 46 96.209, 46 96.844 C 46 97.480, 45.539 98, 44.976 98 C 43.200 98, 32.135 109.514, 30.971 112.574 C 28.780 118.328, 31.922 130, 35.660 130 C 38.443 130, 41.618 125.408, 43.958 118 C 46.625 109.554, 49.401 105.869, 51.394 108.126 C 52.061 108.882, 53.433 111.911, 54.443 114.858 C 56.052 119.555, 56.192 122.098, 55.579 135.497 C 54.781 152.950, 55.707 157.328, 60.385 158.223 C 65.410 159.183, 67.143 153.859, 67.075 137.674 C 67.047 131.170, 66.781 125.455, 66.483 124.973 C 66.021 124.224, 65.807 107.562, 66.201 102.950 C 66.443 100.122, 70.063 101.064, 74.304 105.058 C 79.074 109.551, 80.200 109.800, 83.015 106.985 C 84.508 105.492, 84.857 104.261, 84.361 102.235 C 83.504 98.731, 78.071 89, 76.972 89 C 76.511 89, 75.856 88.123, 75.516 87.051 C 74.950 85.268, 71.533 83.333, 69.769 83.796 C 69.367 83.901, 68.298 82.858, 67.393 81.477 C 66.205 79.664, 65.883 77.568, 66.233 73.925 C 66.877 67.225, 67.684 66.557, 73.603 67.820 C 80.314 69.251, 84 67.364, 84 62.497 C 84 57.716, 80.400 55.419, 73.402 55.733 C 70.241 55.875, 67.816 55.484, 67.192 54.731 C 66.499 53.896, 66.484 50.743, 67.145 44.998 C 67.683 40.324, 67.890 34.982, 67.605 33.126 C 66.466 25.725, 59.862 23.375, 56.713 29.250 M 110.500 37.044 C 108.300 37.506, 104.790 37.911, 102.700 37.942 C 94.633 38.065, 89.048 43.892, 90.826 50.331 C 91.388 52.368, 91.342 55.751, 90.704 59.274 C 89.867 63.887, 89.985 65.895, 91.338 70.084 C 92.678 74.234, 92.999 79.417, 92.994 96.865 C 92.991 108.764, 92.536 121.200, 91.984 124.500 C 90.632 132.578, 91.765 146.488, 94.001 149.249 C 95.279 150.828, 97.469 151.584, 102.608 152.220 C 114.242 153.659, 119.423 153.844, 121.219 152.883 C 122.165 152.376, 129.309 151.936, 137.093 151.904 C 150.710 151.848, 151.337 151.753, 153.676 149.415 C 156.082 147.008, 156.098 146.865, 155.310 134.742 C 154.873 128.009, 154.615 120.700, 154.738 118.500 C 154.860 116.300, 155.152 107.750, 155.386 99.500 C 155.620 91.250, 156.303 79.325, 156.903 73 C 158.235 58.967, 157.760 42.620, 155.957 40.448 C 155.246 39.592, 153.809 38.433, 152.764 37.873 C 150.367 36.591, 115.873 35.914, 110.500 37.044 M 138.007 49.238 C 136.086 49.758, 132.941 49.928, 131.019 49.616 C 125.852 48.777, 107.213 50.124, 105.375 51.468 C 103.256 53.017, 101.639 68.114, 103.220 71.583 C 104.420 74.218, 104.694 74.285, 113.500 74.112 C 116.800 74.047, 123.947 74.597, 129.382 75.335 C 138.999 76.641, 139.330 76.621, 141.734 74.552 C 143.847 72.735, 144.340 71.125, 145.131 63.463 C 146.513 50.077, 145.128 47.312, 138.007 49.238 M 105.726 88.417 C 103.976 90.167, 102.444 99.672, 103.417 102.739 C 103.970 104.482, 105.311 104.764, 115.769 105.331 C 122.221 105.681, 130.200 106.223, 133.500 106.535 C 136.800 106.848, 140.092 106.698, 140.816 106.202 C 143.146 104.606, 144.717 98.224, 143.978 93.356 C 143.166 88.008, 141.842 86.898, 137.692 88.088 C 134.644 88.963, 116.236 88.510, 110.413 87.418 C 108.291 87.020, 106.807 87.336, 105.726 88.417 M 104.750 120.173 C 102.316 122.539, 102 123.580, 102 129.235 C 102 134.281, 102.428 136.082, 104.039 137.811 C 106.253 140.188, 106.126 140.134, 110.500 140.557 C 124.800 141.940, 137.824 142.164, 139.881 141.064 C 143.100 139.341, 144.980 134.418, 143.881 130.586 C 143.397 128.896, 143 125.878, 143 123.879 C 143 121.880, 142.438 119.780, 141.750 119.212 C 141.042 118.627, 133.342 118.032, 124 117.840 L 107.500 117.500 104.750 120.173" stroke="none" fill="black" fill-rule="evenodd"/>
</svg>