<svg xmlns="http://www.w3.org/2000/svg" width="256" height="256" viewBox="0 0 256 256" version="1.1">
	<path d="M 99.614 32.901 L 94.940 36.947 89.720 34.872 C 86.849 33.730, 83.458 32.392, 82.185 31.898 C 78.886 30.619, 74.912 30.797, 71.918 32.360 C 70.431 33.136, 65.557 33.793, 60.418 33.909 C 49.586 34.156, 47.157 34.666, 44.250 37.306 C 41.279 40.003, 41.369 44.059, 44.464 46.966 C 46.545 48.922, 47.615 49.188, 51.345 48.676 C 53.773 48.343, 57.906 46.930, 60.529 45.536 C 63.152 44.141, 66.160 43, 67.215 43 C 70.287 43, 73 44.908, 73 47.068 C 73 50.654, 68.081 59.019, 65.366 60.051 C 62.174 61.264, 56.227 59.798, 53.004 57.004 C 49.858 54.275, 46.397 54.391, 45.630 57.250 C 44.525 61.373, 44.979 63.706, 47.353 66.114 C 51.477 70.297, 52.251 72.613, 50.596 75.814 C 48.839 79.211, 47.327 80.513, 44 81.489 C 35.221 84.065, 31.633 88.265, 34.489 92.623 C 36.405 95.548, 38.428 95.598, 45.213 92.890 C 48.121 91.729, 52.072 90.617, 53.993 90.418 C 57.899 90.014, 58.917 88.939, 63.032 80.876 C 66.284 74.503, 67.690 73.884, 77.341 74.574 C 83.771 75.034, 90 77.486, 90 79.557 C 90 81.163, 92.010 80.824, 98.098 78.190 C 102.208 76.413, 111.746 74.431, 120.694 73.495 C 124.547 73.092, 126.066 74.663, 127.578 80.616 C 128.576 84.550, 128.478 85.142, 126.515 86.986 C 125.325 88.104, 124.126 88.793, 123.851 88.518 C 123.576 88.243, 119.234 87.798, 114.203 87.530 C 109.172 87.262, 103.095 86.549, 100.698 85.946 C 97.191 85.063, 95.186 85.169, 90.421 86.491 C 79.804 89.438, 77.516 89.906, 71.970 90.270 C 68.962 90.468, 65.083 90.321, 63.352 89.943 C 57.941 88.763, 57.618 89.560, 58.398 102.153 C 59.417 118.625, 59.867 120.165, 64.261 122.246 C 69.619 124.783, 71.223 127.737, 70.447 133.640 C 69.553 140.442, 67.254 144.977, 64.636 145.103 C 58.818 145.385, 46.382 144.731, 45.500 144.097 C 44.178 143.145, 42.965 143.313, 40.250 144.821 C 38.458 145.816, 38 146.948, 38 150.378 C 38 154.260, 38.339 154.868, 41.440 156.538 C 44.517 158.195, 45.549 158.264, 51.190 157.196 C 63.044 154.952, 72.498 154.309, 86.763 154.776 C 97.806 155.137, 103.075 154.845, 110.097 153.481 C 117.460 152.051, 120.140 151.926, 124.334 152.816 C 127.175 153.419, 132.650 154.177, 136.500 154.501 C 140.350 154.825, 144.327 155.337, 145.337 155.640 C 148.293 156.525, 153.853 155.074, 155.892 152.885 C 158.024 150.597, 157.681 147.926, 154.937 145.443 C 152.885 143.586, 141.301 141.870, 129.174 141.628 C 120.187 141.448, 119.472 140.596, 120.346 131.105 C 120.896 125.139, 121.301 124.190, 124.533 121.299 C 128.675 117.593, 130.147 113.468, 129.352 107.791 C 128.948 104.897, 129.450 102.088, 131.145 97.763 C 134.055 90.340, 135.985 89.236, 143.248 90.843 C 149.218 92.163, 153.992 91.220, 157.897 87.949 C 159.895 86.276, 160.122 85.563, 159.259 83.670 C 158.008 80.923, 147.272 75, 143.544 75 C 139.635 75, 137 73.250, 137 70.653 C 137 67.788, 139.735 64.825, 145.499 61.448 C 149.232 59.260, 150 58.303, 150 55.839 C 150 50.624, 146.175 45.645, 143.042 46.782 C 142.194 47.089, 140.436 48.380, 139.135 49.649 C 136.153 52.560, 128.277 57, 126.097 57 C 123.293 57, 120 54.023, 120 51.488 C 120 49.624, 121.282 48.340, 125.749 45.730 C 132.869 41.569, 134.204 38.680, 131.429 33.430 C 130.368 31.423, 128.936 29.556, 128.248 29.282 C 126.053 28.409, 121.806 30.026, 121.310 31.924 C 120.909 33.454, 117.217 36, 115.397 36 C 115.116 36, 113.675 34.682, 112.194 33.072 C 107.751 28.242, 105.039 28.206, 99.614 32.901 M 90.553 45.250 C 86.156 49.432, 80.565 59.965, 81.988 61.388 C 83.277 62.677, 104.836 62.965, 107.357 61.727 C 108.716 61.060, 109.070 60.102, 108.680 58.151 C 108.067 55.086, 101.612 44.006, 99.750 42.824 C 97.207 41.210, 93.879 42.088, 90.553 45.250 M 104 100.085 C 102.075 100.569, 95.775 100.743, 90 100.473 C 77.965 99.909, 73.379 101.049, 71.067 105.182 C 69.941 107.194, 69.812 108.567, 70.553 110.682 C 71.736 114.059, 74.668 114.730, 80.456 112.948 C 82.974 112.173, 89.658 111.761, 98.168 111.856 L 111.837 112.010 114.918 108.928 C 118.807 105.040, 118.846 102.489, 115.050 100.526 C 111.812 98.851, 109.304 98.751, 104 100.085 M 86.500 124.359 C 82.766 126.105, 80.698 129.438, 81.564 132.313 C 84.301 141.401, 87.601 143.586, 97.270 142.709 C 102.497 142.235, 103.837 141.703, 105.801 139.323 C 107.794 136.909, 108.058 135.720, 107.623 131.108 C 107.344 128.142, 106.656 125.256, 106.094 124.694 C 104.405 123.005, 89.924 122.757, 86.500 124.359" stroke="none" fill="black" fill-rule="evenodd"/>
</svg>