<svg xmlns="http://www.w3.org/2000/svg" width="256" height="256" viewBox="0 0 256 256" version="1.1">
	<path d="M 133 27.636 C 129.731 29.706, 126 35.509, 126 38.522 C 126 43.956, 122.630 47.617, 116.319 49.041 C 112.298 49.948, 109.207 47.050, 108.312 41.534 C 107.373 35.747, 102.134 28.572, 98.549 28.164 C 93.007 27.534, 91.559 32.489, 95.008 40.286 C 96.521 43.705, 96.783 45.441, 96.070 47.316 C 94.867 50.481, 94.284 50.813, 87.827 52.011 C 83.955 52.729, 81.887 53.750, 80.255 55.749 C 77.214 59.475, 77.424 61.807, 81.095 65.085 C 84.370 68.009, 87.064 68.157, 89.924 65.569 C 92.705 63.052, 98.881 60.929, 103.706 60.833 C 109.839 60.709, 112.055 63.344, 110.888 69.369 C 110.447 71.641, 110.068 73.805, 110.044 74.179 C 110.020 74.552, 109.293 75.564, 108.429 76.429 C 106.341 78.517, 101.866 78.400, 94.162 76.057 C 90.676 74.997, 87.230 74.358, 86.504 74.637 C 83.925 75.626, 81.668 84.123, 80.521 97.152 C 79.464 109.162, 82.876 113.845, 91.718 112.520 C 95.543 111.946, 96.562 112.180, 98.604 114.097 C 101.580 116.893, 101.578 116.977, 98.361 125.177 C 96.332 130.349, 95.002 132.279, 92.611 133.525 C 85.938 137.002, 84.439 137.997, 82.750 140.072 C 80.723 142.562, 80.473 146.073, 82.200 147.800 C 84.631 150.231, 88.476 149.043, 94.838 143.895 C 99.098 140.448, 102.355 138.628, 104.865 138.291 C 109.309 137.695, 110.090 138.485, 112.496 146 C 115.533 155.487, 119.623 158.112, 122.375 152.340 C 124.386 148.123, 124.437 144.172, 122.544 139.270 C 120.957 135.161, 119.116 126.908, 118.317 120.322 C 117.830 116.307, 117.972 116.043, 121.988 113.507 C 125.858 111.065, 126.533 110.949, 131.132 111.935 C 133.864 112.521, 137.582 113, 139.394 113 C 144.796 113, 146.552 115.878, 146.231 124.210 C 146.083 128.056, 145.464 132.170, 144.856 133.351 C 143.279 136.415, 139.852 140, 138.500 140 C 137.867 140, 136.304 141.112, 135.028 142.471 C 131.736 145.974, 133.532 147.876, 139.814 147.537 C 145.356 147.238, 149.579 145.267, 153.869 140.977 C 157.724 137.122, 159.314 131.743, 159.626 121.500 C 159.912 112.111, 158.306 107.342, 153.719 103.950 C 150.856 101.834, 149.702 101.681, 137.400 101.786 C 122.863 101.911, 122.191 101.664, 121.465 95.925 C 121.010 92.331, 123.475 87.301, 126.100 86.468 C 127.017 86.177, 129.789 86.393, 132.262 86.947 C 135.675 87.711, 138.122 87.598, 142.427 86.477 C 145.546 85.665, 148.258 85, 148.454 85 C 149.393 85, 154.302 75.368, 154.525 73.090 C 154.664 71.665, 155.104 67.752, 155.502 64.392 C 156.189 58.600, 156.078 58.120, 153.363 55.100 C 151.788 53.349, 148.710 51.305, 146.523 50.559 C 140.898 48.639, 139.758 46.515, 141.663 41.500 C 144.229 34.744, 144.188 31.495, 141.498 28.593 C 138.750 25.627, 136.562 25.381, 133 27.636 M 63.500 38.142 C 61.850 38.675, 56.203 39.481, 50.951 39.933 C 41.985 40.704, 34.221 43.215, 32.577 45.876 C 31.605 47.449, 30.982 62.917, 31.204 80 C 31.322 89.075, 31.305 100.325, 31.165 105 C 31.026 109.675, 31.364 116.200, 31.917 119.500 C 32.772 124.606, 33.839 134.607, 33.964 138.679 C 34.079 142.454, 41.497 144.516, 44.022 141.474 C 44.913 140.399, 46.946 139.992, 50.894 140.096 C 57.418 140.269, 66.799 137.768, 69.674 135.089 C 71.539 133.351, 71.719 131.466, 72.345 107.128 C 72.778 90.258, 72.649 79.394, 71.978 76.402 C 71.273 73.255, 71.263 70.029, 71.947 66.328 C 72.639 62.587, 72.620 59.328, 71.888 55.915 C 71.128 52.367, 71.134 50.054, 71.911 47.824 C 73.479 43.328, 73.266 41.266, 71 39 C 68.804 36.804, 67.943 36.705, 63.500 38.142 M 50.754 49.599 C 47.935 50.466, 45.360 52.047, 44.412 53.494 C 42.948 55.728, 42.952 56.341, 44.462 60.886 C 45.986 65.474, 46.398 65.892, 50.012 66.502 C 52.159 66.865, 54.793 66.883, 55.864 66.543 C 58.011 65.862, 60.626 60.193, 61.598 54.111 C 62.125 50.815, 61.899 50.016, 60.178 49.095 C 57.628 47.731, 56.661 47.782, 50.754 49.599 M 126.022 61.976 C 122.862 65.359, 121.754 69.330, 123.389 71.413 C 125.596 74.223, 132.341 78, 135.154 78 C 140.860 78, 143.552 69.060, 139.702 62.895 C 138.478 60.935, 134.032 59, 130.752 59 C 129.680 59, 127.551 60.339, 126.022 61.976 M 44.627 82.250 C 42.174 86.140, 41.760 89.070, 43.024 93.586 C 44.822 100.008, 46.047 100.666, 52.450 98.647 C 58.798 96.646, 61.436 93.359, 61.474 87.404 C 61.513 81.302, 59.917 80, 52.401 80 C 46.898 80, 45.856 80.302, 44.627 82.250 M 97.163 90.516 C 93.846 93.307, 93.678 94.386, 95.566 100.750 C 96.119 102.616, 96.939 102.998, 100.367 102.986 C 108.107 102.961, 110.096 101.599, 111.355 95.467 C 112.219 91.254, 110.033 88.871, 104.758 88.276 C 101.076 87.861, 99.910 88.205, 97.163 90.516 M 45.389 109.529 C 44.187 111.364, 43.625 114.312, 43.574 119.060 C 43.513 124.770, 43.856 126.291, 45.601 128.040 C 48.509 130.955, 53.953 129.853, 58.683 125.392 C 62.102 122.168, 62.231 121.797, 61.789 116.463 C 61.535 113.403, 60.691 110.295, 59.914 109.558 C 59.136 108.821, 55.942 107.915, 52.815 107.545 C 47.426 106.907, 47.039 107.011, 45.389 109.529" stroke="none" fill="black" fill-rule="evenodd"/>
</svg>