<svg xmlns="http://www.w3.org/2000/svg" width="256" height="256" viewBox="0 0 256 256" version="1.1">
	<path d="M 113 33.143 C 108.875 33.611, 101.300 34.338, 96.167 34.760 C 87.093 35.506, 86.755 35.625, 83.981 39.014 C 81.158 42.464, 81.132 42.618, 81.462 54 C 81.645 60.325, 82.286 67.606, 82.886 70.180 C 83.772 73.981, 83.643 82.352, 82.586 89.604 C 82.498 90.211, 82.892 94.563, 83.463 99.276 C 84.458 107.498, 83.870 133.612, 82.489 142.500 C 81.779 147.070, 83.395 150.103, 86.519 150.066 C 87.609 150.052, 93.780 149.675, 100.233 149.228 C 110.370 148.525, 112.240 148.120, 113.983 146.249 C 115.092 145.058, 116 142.956, 116 141.577 C 116 137.742, 112.870 136.636, 103.957 137.324 C 96.483 137.900, 96.253 137.850, 95.141 135.411 C 93.666 132.173, 93.804 116.667, 95.353 111.500 C 96.343 108.199, 97.050 107.443, 99.397 107.172 C 103.436 106.706, 115.750 109.907, 116.396 111.590 C 116.694 112.365, 116.531 113, 116.035 113 C 114.802 113, 115.789 117.997, 117.558 120.715 C 118.351 121.933, 119 124.295, 119 125.965 C 119 127.634, 119.450 129, 120 129 C 120.550 129, 121 130.559, 121 132.465 C 121 135.865, 121.820 137.165, 128.177 143.851 C 133.735 149.695, 151.900 153.941, 158.915 151.035 C 162.442 149.574, 163.777 145.289, 162.023 141.055 C 160.295 136.884, 157.525 136.057, 150.653 137.659 C 145.997 138.744, 143.994 138.779, 140.820 137.828 C 135.650 136.279, 130.463 130.029, 129.027 123.618 C 128.435 120.978, 127.312 117.289, 126.531 115.420 C 125.186 112.200, 125.250 111.850, 127.755 108.761 C 129.210 106.967, 130.503 105.344, 130.629 105.154 C 130.756 104.963, 135.597 104.738, 141.387 104.654 C 150.641 104.519, 152.098 104.258, 153.426 102.500 C 155.396 99.892, 155.343 99.004, 153.036 96 C 151.248 93.673, 150.369 93.465, 140.317 93 C 129.842 92.515, 129.481 92.421, 128.256 89.858 C 127.562 88.404, 126.921 85.356, 126.832 83.084 C 126.599 77.124, 130.196 73.644, 138.321 71.971 C 141.719 71.271, 145.683 70.108, 147.130 69.386 C 151.339 67.285, 154.018 61.606, 155.055 52.587 C 156.555 39.538, 156.388 38.165, 152.894 34.901 L 149.788 32 135.144 32.147 C 127.090 32.227, 117.125 32.676, 113 33.143 M 54.500 39.032 C 42.481 39.978, 34.225 42.842, 32.108 46.799 C 30.831 49.185, 30.577 63.738, 31.328 91.500 C 32.068 118.899, 33.989 132.295, 37.862 137.078 C 39.596 139.220, 39.948 139.274, 44.255 138.069 C 46.942 137.316, 50.462 137.071, 52.831 137.472 C 55.313 137.891, 57.700 137.696, 59.072 136.962 C 60.293 136.308, 63.321 135.262, 65.799 134.636 C 72.295 132.998, 74.033 130.174, 74.214 120.966 C 74.562 103.160, 73.935 83.113, 72.883 78.391 C 71.565 72.473, 73.154 49.725, 75.045 47.445 C 75.661 46.703, 75.880 45.197, 75.531 44.098 C 74.708 41.506, 68.935 37.954, 65.882 38.162 C 64.572 38.251, 59.450 38.642, 54.500 39.032 M 115 45.066 C 113.075 45.540, 108.720 45.661, 105.323 45.334 C 99.497 44.773, 99 44.897, 96.573 47.515 C 94.621 49.621, 94 51.352, 94 54.681 C 94 59.336, 96.310 64, 98.615 64 C 99.377 64, 100 64.394, 100 64.875 C 100 65.356, 101.912 64.793, 104.250 63.625 C 108.067 61.717, 109.966 61.522, 122.884 61.713 C 130.795 61.831, 138.088 61.488, 139.090 60.952 C 140.939 59.963, 142.984 54.355, 142.994 50.250 C 142.997 49.013, 142.100 47.100, 141 46 C 139.244 44.244, 137.747 44.013, 128.750 44.102 C 123.112 44.159, 116.925 44.593, 115 45.066 M 52.009 48.607 C 45.660 50.313, 45.256 50.620, 44.111 54.612 C 43.523 56.663, 43.717 58.740, 44.736 61.294 C 46.046 64.579, 46.611 65, 49.706 65 C 54.403 65, 59.470 62.459, 60.861 59.405 C 62.732 55.300, 62.307 49.235, 60.066 48.035 C 59.002 47.466, 57.989 47.030, 57.816 47.066 C 57.642 47.102, 55.029 47.796, 52.009 48.607 M 97.820 74.750 C 93.871 79.387, 92.657 88.502, 95.306 93.624 C 96.914 96.735, 100.081 98.432, 101.666 97.032 C 102.125 96.626, 104.657 95.715, 107.293 95.006 C 112.928 93.489, 114.899 91.155, 114.286 86.720 C 113.673 82.280, 113.279 79.613, 113.128 78.881 C 112.992 78.223, 101.411 73, 100.089 73 C 99.661 73, 98.639 73.787, 97.820 74.750 M 52.242 78.798 C 47.073 79.044, 45.737 79.479, 44.571 81.298 C 42.089 85.170, 42.208 92.800, 44.800 96.002 C 46.500 98.101, 46.910 98.160, 52.166 97.069 C 59.602 95.526, 62.380 92.590, 62.282 86.379 C 62.179 79.883, 60.238 78.417, 52.242 78.798 M 45.487 107.656 C 44.444 108.699, 44 111.310, 44 116.397 C 44 122.707, 44.304 123.937, 46.337 125.847 C 48.562 127.937, 48.929 127.977, 53.980 126.684 C 63.190 124.328, 65.047 121.059, 63.176 110.500 L 62.467 106.500 54.720 106.334 C 49.025 106.213, 46.580 106.563, 45.487 107.656" stroke="none" fill="black" fill-rule="evenodd"/>
</svg>