<svg xmlns="http://www.w3.org/2000/svg" width="256" height="256" viewBox="0 0 256 256" version="1.1">
	<path d="M 44 26.938 C 41.640 28.776, 41.491 29.467, 41.336 39.326 C 41.163 50.364, 40.686 51.700, 33.923 60.105 C 32.770 61.537, 31.753 64.237, 31.663 66.105 C 31.525 68.977, 31.867 69.552, 33.881 69.837 C 35.191 70.022, 37.732 69.898, 39.528 69.561 C 42.347 69.032, 43.240 68.050, 46.057 62.385 C 49.936 54.585, 51.362 53, 54.504 53 C 57.332 53, 58.135 55.032, 58.544 63.222 C 58.705 66.442, 59.137 70.849, 59.503 73.017 C 60.325 77.882, 58.746 82.950, 55.444 86.053 C 53.062 88.290, 52.724 88.337, 48.223 87.062 C 39.374 84.554, 38.467 84.591, 36.145 87.543 C 33.283 91.181, 33.440 93.189, 36.872 96.863 L 39.745 99.938 45.496 97.917 C 52.643 95.405, 56.352 96.021, 57.997 99.992 C 58.652 101.574, 58.928 104.135, 58.611 105.684 C 58.293 107.233, 57.773 110.932, 57.455 113.905 C 56.803 120.001, 52.692 129, 50.560 129 C 48.559 129, 43.347 133.604, 41.734 136.797 C 40.983 138.284, 39.723 140.518, 38.936 141.762 C 37.685 143.738, 37.698 144.371, 39.036 146.755 C 41.130 150.486, 43.114 150.606, 48.181 147.310 C 53.388 143.922, 54.949 142.204, 59.542 134.805 C 61.487 131.673, 63.901 128.849, 64.907 128.530 C 67.382 127.744, 71.137 129.293, 74.617 132.536 C 79.449 137.038, 83.763 138.094, 86.429 135.429 C 89.649 132.208, 88.407 128.218, 82.381 122.428 C 79.290 119.459, 76.473 117.208, 76.120 117.426 C 75.162 118.018, 72.485 115.798, 71.163 113.316 C 68.777 108.835, 70.258 92, 73.038 92 C 73.433 92, 75.371 92.675, 77.346 93.500 C 82.410 95.616, 84.528 95.381, 87.541 92.368 C 89.774 90.135, 90.071 89.187, 89.502 86.118 C 88.724 81.918, 84.575 76, 82.409 76 C 81.589 76, 79.675 76.920, 78.155 78.044 C 73.652 81.373, 72 79.893, 72 72.533 C 72 69.093, 71.728 64.293, 71.395 61.865 C 70.845 57.851, 71.024 57.325, 73.365 56.072 C 74.782 55.314, 77.416 54.738, 79.220 54.791 C 81.047 54.845, 84.351 53.805, 86.678 52.444 C 94.593 47.814, 96.507 49.689, 97.448 63 C 97.818 68.225, 98.089 74.075, 98.050 76 C 98.011 77.925, 97.974 88.275, 97.967 99 C 97.961 109.725, 97.533 123.875, 97.016 130.444 C 95.450 150.361, 95.461 150.368, 131 150.150 C 160.181 149.971, 161 149.858, 161 145.993 C 161 142.610, 157.324 139.316, 152.649 138.509 C 150.166 138.081, 129.390 137.306, 113.199 137.038 C 110.422 136.992, 108.412 132.668, 108.105 126.079 C 107.731 118.058, 111.232 113.781, 116.948 115.276 C 119.107 115.841, 129.352 114.050, 138.812 111.455 C 147.658 109.027, 153.171 103.088, 154.087 95 C 154.616 90.320, 152.917 80.512, 150.858 76.366 C 148.709 72.039, 145.660 70, 141.338 70 C 139.926 70, 136.597 68.817, 133.941 67.372 C 128.997 64.681, 125.618 64.537, 115.300 66.579 C 112.446 67.144, 111.879 66.850, 110.054 63.856 C 107.459 59.601, 107.355 53.018, 109.833 49.958 C 111.560 47.826, 112.810 47.627, 131.280 46.550 C 147.373 45.611, 151.237 45.096, 152.804 43.678 C 155.301 41.417, 154.555 37.410, 151.230 35.231 C 147.522 32.802, 129.104 33.309, 100.238 36.635 C 97.165 36.989, 94.738 38.197, 91.541 40.964 L 87.106 44.803 82.803 43.316 C 79.514 42.179, 76.232 41.990, 68.881 42.513 C 59.705 43.165, 59.163 43.091, 57.131 40.910 C 55.693 39.367, 54.993 37.301, 54.978 34.561 C 54.937 27.191, 48.985 23.057, 44 26.938 M 117.500 79.441 C 116.950 79.652, 115.233 80.105, 113.684 80.448 C 111.707 80.886, 110.441 82.094, 109.434 84.503 C 107.868 88.251, 107.518 98.692, 108.886 100.850 C 110.197 102.919, 115.147 103.552, 125.460 102.968 C 135.839 102.381, 138.379 101.104, 139.523 95.895 C 140.321 92.263, 137.634 83.884, 134.870 81.383 C 133.347 80.004, 130.991 79.469, 125.662 79.293 C 121.723 79.163, 118.050 79.229, 117.500 79.441" stroke="none" fill="black" fill-rule="evenodd"/>
</svg>