<svg xmlns="http://www.w3.org/2000/svg" width="256" height="256" viewBox="0 0 256 256" version="1.1">
	<path d="M 44.275 29.094 C 41.581 30.091, 40.013 35.417, 40.006 43.601 C 39.999 51.101, 38.690 55.049, 34.850 59.161 C 30.503 63.814, 26.547 70.947, 27.684 72.084 C 28.207 72.607, 30.036 73.437, 31.750 73.928 C 36.542 75.303, 40.930 72.527, 44.090 66.124 C 49.159 55.851, 52.287 55.238, 54.943 64 C 57.198 71.437, 57.392 77.684, 55.522 82.582 C 53.379 88.192, 51.139 89.409, 44.410 88.618 C 41.509 88.277, 37.992 88.433, 36.595 88.964 C 31.627 90.853, 32.252 98.791, 37.560 101.209 C 39.794 102.227, 40.847 102.016, 45.216 99.672 C 50.015 97.098, 50.412 97.040, 52.753 98.574 C 55.186 100.168, 55.213 100.335, 54.509 109.722 C 53.857 118.423, 53.508 119.628, 50.499 123.569 C 48.687 125.944, 45.427 129.599, 43.256 131.693 C 34.820 139.828, 32.124 148.391, 37.153 151.082 C 40.050 152.632, 42.249 151.478, 47.353 145.728 C 52.952 139.420, 62 127.391, 62 126.254 C 62 125.804, 63.035 125.351, 64.301 125.246 C 65.907 125.113, 67.133 125.954, 68.360 128.033 C 70.445 131.561, 74.743 134, 78.879 134 C 81.786 134, 85 131.836, 85 129.879 C 85 127.998, 82.169 123.481, 79.595 121.257 C 78.168 120.023, 77 118.556, 77 117.997 C 77 117.438, 74.862 115.967, 72.250 114.727 L 67.500 112.474 66.813 105.536 C 66.235 99.695, 66.414 98.203, 67.945 96.101 C 69.523 93.935, 70.424 93.640, 74.756 93.870 C 79.150 94.103, 80.004 93.811, 81.874 91.433 C 84.023 88.701, 84.844 80.828, 83.235 78.385 C 81.635 75.956, 78.118 75.853, 75.020 78.143 C 72.205 80.225, 71.845 80.273, 70.345 78.774 C 68.395 76.823, 67.539 68.980, 68.694 63.645 C 69.397 60.401, 70.320 59.347, 74.515 57 C 84.180 51.592, 80.615 46.128, 68.495 47.776 C 61.397 48.741, 56.096 47.852, 54.299 45.394 C 53.584 44.417, 53 41.329, 53 38.531 C 53 30.938, 49.506 27.159, 44.275 29.094 M 141.917 34.385 C 141.688 34.598, 131.375 35.293, 119 35.930 C 106.625 36.568, 95.519 37.295, 94.320 37.546 C 91.062 38.229, 89 40.778, 89 44.122 C 89 46.605, 89.608 47.356, 92.645 48.625 C 95.029 49.621, 97.882 49.955, 100.895 49.590 C 103.428 49.284, 115.400 48.780, 127.500 48.471 C 139.600 48.163, 150.723 47.432, 152.217 46.848 C 159.665 43.934, 153.712 34, 144.517 34 C 143.316 34, 142.146 34.173, 141.917 34.385 M 95.909 59.665 C 91.492 64.499, 89.517 72.187, 89.844 83.268 C 90.029 89.536, 93.575 100.342, 96.643 103.987 C 100.387 108.436, 105.618 111.313, 108.605 110.563 C 110.003 110.212, 114.075 109.713, 117.653 109.453 C 126.143 108.837, 130.924 110.829, 130.520 114.815 C 130.370 116.292, 129.898 121.923, 129.471 127.328 C 128.470 139.993, 127.423 141.468, 119.565 141.284 C 111.911 141.105, 111.134 140.277, 111.517 132.712 C 111.736 128.386, 111.177 124.450, 109.679 119.750 C 107.715 113.592, 107.287 113, 104.798 113 C 101.235 113, 100 115.446, 100 122.504 C 100 127.130, 100.537 128.921, 103 132.500 C 104.650 134.898, 106 137.180, 106 137.570 C 106 139.322, 102.105 140.939, 97.815 140.968 C 87.023 141.041, 82.555 146.416, 88.582 152.076 L 91.164 154.500 111.332 154.132 C 137.598 153.654, 140.191 153.680, 148.500 154.507 C 154.863 155.140, 155.818 154.986, 158.993 152.816 C 162.867 150.170, 163.838 147.695, 161.802 145.660 C 159.036 142.893, 155.936 142, 149.101 142 C 140.598 142, 139.320 140.698, 141.041 133.790 C 141.629 131.430, 142.773 125.900, 143.585 121.500 C 145.653 110.278, 145.800 109.932, 150.255 105.791 L 154.244 102.082 154.186 89.521 C 154.115 74.264, 151.970 63.114, 148.696 60.987 C 145.796 59.104, 136.204 58.064, 115.500 57.386 L 98.500 56.830 95.909 59.665 M 103.141 71.493 C 99.685 75.428, 99.545 78.079, 102.480 84 C 103.162 85.375, 104.008 87.706, 104.361 89.180 C 105.317 93.172, 107.689 95, 111.912 95 C 113.986 95, 117.891 95.670, 120.591 96.489 C 123.291 97.308, 128.295 97.983, 131.711 97.989 C 140.521 98.005, 141.962 96.283, 142.115 85.561 C 142.332 70.377, 142.681 70.745, 127.228 69.840 C 120.778 69.463, 113.452 68.846, 110.948 68.469 C 106.599 67.815, 106.251 67.950, 103.141 71.493" stroke="none" fill="black" fill-rule="evenodd"/>
</svg>