<svg xmlns="http://www.w3.org/2000/svg" width="256" height="256" viewBox="0 0 256 256" version="1.1">
	<path d="M 117.500 20.110 C 113.139 21.473, 98.997 23.961, 95.500 23.979 C 93.850 23.988, 89.575 24.638, 86 25.424 C 76.242 27.570, 61.830 30.014, 58.982 30.007 C 55.121 29.996, 49 34.592, 49 37.501 C 49 41.602, 52.051 42.414, 62.231 41.023 C 71.050 39.817, 78 40.246, 78 41.994 C 78 43.407, 71.825 47.652, 68.500 48.526 C 66.850 48.960, 62.696 49.215, 59.269 49.093 C 53.784 48.898, 52.736 49.173, 50.519 51.390 C 47.131 54.778, 47.348 57.428, 51.351 61.550 C 55.268 65.583, 56.177 65.770, 57.513 62.820 C 59.144 59.216, 69.336 56.662, 72.954 58.950 C 75.037 60.268, 72.647 64.437, 68.250 67.154 C 65.265 68.999, 64.276 69.122, 59.688 68.213 C 55.686 67.420, 53.586 67.504, 50.500 68.578 C 48.300 69.344, 45.725 69.977, 44.777 69.985 C 41.313 70.015, 34.144 74.292, 33.542 76.687 C 32.232 81.908, 36.313 84.774, 42.701 83.119 C 50.452 81.110, 68.223 79.890, 69.606 81.273 C 70.031 81.698, 69.376 82.749, 68.150 83.607 C 64.628 86.075, 59 93.956, 59 96.422 C 59 98.167, 57.734 99.153, 50.339 103.164 C 42.886 107.209, 35 114.373, 35 117.101 C 35 120.278, 39.432 124.001, 43.205 123.993 C 47.057 123.986, 50.732 121.774, 55.254 116.742 C 57.039 114.755, 59.676 112.842, 61.114 112.491 C 63.274 111.962, 63.836 112.255, 64.350 114.176 C 65.410 118.131, 65.067 122.970, 63.515 125.971 C 62.406 128.116, 62.334 128.945, 63.231 129.244 C 64.031 129.510, 64.482 132.647, 64.583 138.640 C 64.724 146.979, 65.878 151.570, 68.219 153.102 C 69.093 153.674, 91.542 154.394, 106.500 154.329 C 114.548 154.295, 133.432 153.108, 136.732 152.430 C 140.799 151.594, 141.800 147.671, 141.310 134.500 C 141.065 127.900, 140.721 118.542, 140.546 113.704 C 140.312 107.239, 139.786 104.421, 138.562 103.069 C 137.544 101.943, 136.767 99.048, 136.562 95.617 C 136.181 89.221, 134.001 86.599, 128 85.320 C 124.579 84.590, 108.462 84.535, 86.584 85.179 C 78.478 85.417, 75.560 85.177, 75.249 84.244 C 75.018 83.553, 74.418 83.242, 73.915 83.553 C 73.412 83.864, 73 83.416, 73 82.559 C 73 81.555, 73.907 81, 75.550 81 C 76.952 81, 79.350 80.353, 80.878 79.563 C 83.071 78.429, 90.401 78.040, 115.593 77.718 C 150.465 77.273, 151.353 77.125, 152.629 71.529 C 154.094 65.106, 153.783 64.130, 149.751 62.517 C 146.542 61.233, 144.818 61.176, 138.868 62.159 C 133.484 63.048, 130.690 63.049, 127.149 62.161 C 124.592 61.520, 120.475 60.944, 118 60.881 C 111.814 60.723, 96.271 61.932, 91.914 62.909 C 88.513 63.672, 85 62.483, 85 60.568 C 85 57.772, 88.395 57.053, 104.141 56.519 C 129.519 55.657, 135.087 54.720, 140.215 50.449 C 143.116 48.033, 142.941 47.637, 137.841 45.089 C 134.879 43.608, 101.237 42.980, 95 44.289 C 92.293 44.857, 91.223 44.646, 90.276 43.356 C 89.265 41.979, 89.423 41.368, 91.184 39.841 C 94.021 37.380, 98.149 36.478, 112.710 35.137 C 122.207 34.262, 126.151 33.429, 130.460 31.389 C 136.293 28.627, 136.842 27.697, 134.484 24.580 C 130.651 19.515, 124.544 17.907, 117.500 20.110 M 105.674 98.432 C 102.261 99.350, 97.870 99.523, 90.674 99.024 C 77.554 98.114, 74 98.970, 74 103.043 C 74 105.321, 78.254 106.335, 84.715 105.597 C 87.347 105.296, 96.499 104.798, 105.054 104.491 C 125.587 103.753, 129.488 102.631, 125.473 98.616 C 123.471 96.613, 112.809 96.514, 105.674 98.432 M 109 116.157 C 102.105 117.094, 84.196 117.239, 82.788 116.369 C 80.999 115.263, 76.222 117.216, 74.964 119.568 C 72.853 123.512, 74.842 124.618, 80.622 122.715 C 84.349 121.489, 89.028 121.218, 102.433 121.453 C 111.820 121.617, 120.850 122.058, 122.500 122.433 C 125.096 123.022, 125.663 122.755, 126.709 120.444 C 129.114 115.133, 124.590 114.038, 109 116.157 M 122.467 131.593 C 121.385 132.304, 114.650 133.388, 107.500 134.002 C 100.350 134.616, 92.590 135.479, 90.257 135.919 C 87.451 136.448, 85.239 136.318, 83.729 135.535 C 77.905 132.513, 76 133.148, 76 138.108 C 76 139.846, 76.666 140.034, 82.250 139.878 C 89.818 139.667, 112.350 140.651, 120.153 141.534 C 128.757 142.508, 133.107 138.865, 129.647 133.585 C 127.742 130.676, 125.013 129.919, 122.467 131.593" stroke="none" fill="black" fill-rule="evenodd"/>
</svg>