<svg xmlns="http://www.w3.org/2000/svg" width="256" height="256" viewBox="0 0 256 256" version="1.1">
	<path d="M 130.272 29.977 C 126.948 31.383, 108.284 34.839, 97.750 35.999 C 89.784 36.876, 88.188 37.371, 86.250 39.564 C 83.630 42.530, 83.334 46.203, 85.566 48.054 C 87.487 49.649, 96.457 49.580, 102.927 47.922 C 107.040 46.868, 107.975 46.938, 110.318 48.473 C 113.609 50.629, 113.756 53.274, 110.697 55.279 C 108.958 56.419, 105.466 56.779, 96.447 56.749 C 83.433 56.706, 80.984 57.319, 75.732 61.931 C 73.058 64.278, 72.008 64.703, 71.246 63.748 C 69.349 61.371, 67 56.091, 67 54.205 C 67 53.163, 66.093 51.489, 64.984 50.486 C 63.031 48.718, 62.923 48.721, 61.517 50.581 C 60.719 51.636, 59.307 54.075, 58.379 56 C 57.451 57.925, 55.566 60.985, 54.190 62.799 C 50.713 67.383, 48.113 66.784, 45.223 60.734 C 42.643 55.333, 43.100 53.483, 48.144 48.911 C 53.382 44.162, 50.479 41.214, 43 43.688 C 37.014 45.668, 35.306 47.509, 33.412 54.026 C 31.704 59.902, 29.977 76.819, 30.534 82.212 C 30.720 84.021, 30.874 91.125, 30.876 98 C 30.881 116.565, 30.949 118.015, 32.089 124 C 34.775 138.096, 36.004 139.682, 43.281 138.453 C 45.553 138.069, 49.457 137.805, 51.956 137.866 C 54.455 137.927, 58.680 137.203, 61.344 136.257 C 67.955 133.910, 69.107 131.401, 68.932 119.731 C 68.685 103.382, 68.748 101.651, 69.937 92.015 C 70.765 85.301, 70.799 81.855, 70.054 80.218 C 67.921 75.537, 69.321 67, 72.221 67 C 72.853 67, 74.419 67.985, 75.700 69.188 C 78.450 71.772, 84.040 71.992, 98.909 70.103 C 104.084 69.446, 108.942 69.147, 109.704 69.440 C 110.467 69.733, 111.784 71.632, 112.631 73.660 C 113.927 76.760, 114.058 80.270, 113.454 95.662 C 112.941 108.716, 112.362 114.284, 111.437 115.052 C 109.677 116.513, 104.898 116.551, 102.234 115.125 C 99.467 113.644, 92.100 115.327, 89.096 118.125 C 86.554 120.494, 85.365 124.765, 86.837 126.237 C 87.437 126.837, 92.646 127.901, 98.413 128.602 C 110.773 130.103, 113.393 131.171, 112.413 134.311 C 111.517 137.185, 110.391 137.826, 105 138.527 C 79.760 141.812, 70.511 146.183, 78.327 151.133 C 81.303 153.017, 82.526 153.098, 98 152.443 C 107.075 152.059, 117.650 151.914, 121.500 152.122 C 133.925 152.793, 152.423 152.245, 155.276 151.122 C 158.539 149.838, 159.881 147.171, 157.896 145.914 C 157.128 145.428, 156.950 145.010, 157.500 144.985 C 160.190 144.862, 153.773 142.534, 146.156 140.869 C 136.887 138.844, 130.446 138.470, 129.558 139.906 C 128.928 140.925, 125.154 140.223, 123.250 138.733 C 121.452 137.326, 121.711 132.146, 123.679 130.179 C 124.981 128.876, 127.278 128.491, 133.929 128.458 C 140.539 128.425, 143.244 127.976, 145.750 126.492 C 147.537 125.434, 149 124.091, 149 123.507 C 149 118.949, 139.217 114.702, 130.961 115.677 C 124.448 116.446, 123.556 115.022, 124.427 105.240 C 125.267 95.817, 125.267 95.960, 124.422 83.178 C 123.399 67.709, 123.106 68, 139.714 68 C 152.679 68, 153.168 67.922, 155.612 65.479 C 159.095 61.996, 158.423 59.076, 153.500 56.293 C 148.708 53.586, 139.769 53.239, 133.254 55.508 C 129.456 56.831, 128.587 56.818, 125.004 55.385 C 120.805 53.705, 120.206 52.218, 121.916 47.721 C 123.043 44.756, 126.737 43.262, 134.235 42.739 C 143.346 42.102, 146.188 38.261, 141.650 32.717 C 139.142 29.652, 133.978 28.408, 130.272 29.977 M 90.441 79.468 C 89.374 80.276, 88.938 80.951, 89.473 80.968 C 90.007 80.986, 89.445 81.701, 88.223 82.557 C 87 83.413, 86 84.675, 86 85.361 C 86 86.048, 84.425 88.329, 82.500 90.430 C 77.344 96.060, 77.721 97.295, 85.893 101.551 C 89.084 103.213, 93.455 104.539, 96.600 104.800 C 101.468 105.204, 102.169 104.985, 104.957 102.197 C 108.594 98.560, 108.708 97.269, 105.750 93.203 C 104.513 91.501, 102.016 88.060, 100.202 85.555 C 98.388 83.050, 97.263 80.986, 97.702 80.968 C 98.915 80.920, 94.782 78, 93.500 78 C 92.885 78, 91.509 78.661, 90.441 79.468 M 46.299 80.503 C 42.895 82.887, 41.547 88.310, 43.035 93.626 C 44.448 98.673, 46.812 100.420, 50.987 99.503 C 55.156 98.587, 59.396 90.306, 58.479 84.874 C 58.096 82.611, 57.046 80.560, 55.976 79.987 C 53.274 78.541, 48.756 78.782, 46.299 80.503 M 144.750 80.662 C 145.438 80.940, 146.563 80.940, 147.250 80.662 C 147.938 80.385, 147.375 80.158, 146 80.158 C 144.625 80.158, 144.063 80.385, 144.750 80.662 M 138.981 86.615 C 131.253 93.843, 130.905 100.923, 138.045 105.648 C 141.684 108.057, 142.401 108.196, 145.843 107.165 C 151.568 105.450, 156.971 100.244, 157.672 95.769 C 158.214 92.305, 157.895 91.679, 153.210 87.019 C 150.327 84.151, 147.254 82, 146.039 82 C 144.871 82, 141.694 84.077, 138.981 86.615 M 47.235 107.037 C 44.441 108.159, 42.992 111.774, 42.852 117.968 C 42.626 128.014, 47.480 131.604, 53.959 126.182 C 57.203 123.468, 57.443 122.847, 57.817 116.225 C 58.214 109.203, 58.199 109.154, 55.158 107.582 C 51.730 105.809, 50.502 105.724, 47.235 107.037" stroke="none" fill="black" fill-rule="evenodd"/>
</svg>