<svg xmlns="http://www.w3.org/2000/svg" width="256" height="256" viewBox="0 0 256 256" version="1.1">
	<path d="M 113.683 27.650 C 113.325 28.008, 108.239 28.427, 102.380 28.581 L 91.727 28.861 88.071 32.430 C 84.033 36.373, 82.112 36.775, 78.525 34.425 C 75.968 32.749, 71.937 33.091, 52.900 36.599 C 48.720 37.370, 44.250 38, 42.966 38 C 39.324 38, 32.275 41.839, 31.670 44.153 C 31.371 45.295, 31.661 47.116, 32.313 48.199 C 33.292 49.822, 34.317 50.092, 38.153 49.740 C 40.713 49.505, 43.525 49.714, 44.403 50.206 C 46.477 51.366, 46.467 56.486, 44.381 62.124 C 43.490 64.531, 42.690 69.875, 42.602 74 C 42.437 81.784, 39.236 90.900, 35.612 93.907 C 34.725 94.643, 34 95.759, 34 96.387 C 34 97.016, 33.075 99.255, 31.945 101.363 C 30.665 103.752, 30.006 106.572, 30.195 108.848 C 30.471 112.156, 30.804 112.529, 33.726 112.812 C 39.063 113.327, 40.974 117.195, 42.538 130.646 C 43.983 143.082, 45.349 146, 49.722 146 C 51.048 146, 53.732 144.781, 55.686 143.290 C 58.694 140.996, 60.090 140.616, 64.787 140.813 C 67.838 140.940, 71.851 140.544, 73.705 139.932 C 76.718 138.938, 77.436 139.095, 80.471 141.410 C 86.187 145.770, 89.646 144.572, 94.650 136.500 C 97.197 132.392, 98.669 132.420, 99.451 136.591 C 100.372 141.502, 103.288 144.208, 106.765 143.377 C 110.872 142.396, 111.749 141.324, 111.787 137.230 C 111.868 128.587, 111.656 129, 116.008 129 C 119.751 129, 120.122 129.265, 121.617 133 C 123.092 136.687, 123.516 137, 127.027 137 C 130.281 137, 131.143 136.504, 132.939 133.599 C 135.363 129.676, 136.700 129, 142.036 129 C 145.664 129, 145.951 129.220, 146.560 132.467 C 146.937 134.480, 146.642 137.726, 145.855 140.205 C 144.785 143.577, 143.607 144.966, 140.250 146.812 C 136.812 148.703, 136 149.687, 136 151.961 C 136 154.175, 136.722 155.115, 139.401 156.386 C 144.545 158.827, 146.624 158.388, 151.587 153.813 C 157.115 148.717, 158.394 145.825, 159.932 134.939 C 162.008 120.248, 161.789 111.381, 159.150 103.330 C 156.221 94.390, 155.165 93.864, 140.726 94.134 C 131.518 94.306, 129.740 94.074, 127.969 92.472 C 123.367 88.307, 127.884 83.552, 137.986 81.925 C 141.541 81.352, 144.555 80.778, 144.685 80.648 C 144.815 80.519, 144.671 79.457, 144.365 78.288 C 143.730 75.859, 140.454 74.385, 134.057 73.649 C 129.373 73.111, 126.543 70.623, 125.721 66.321 C 125.177 63.474, 126.512 63, 135.082 63 C 140.667 63, 142.385 62.615, 144 61 C 146.242 58.758, 146.443 57.296, 145.025 53.565 C 144.251 51.530, 143.373 51.001, 140.775 51.006 C 138.974 51.010, 136.279 51.649, 134.786 52.428 C 132.333 53.708, 131.823 53.648, 129.483 51.808 C 128.059 50.688, 127.128 49.539, 127.412 49.255 C 127.697 48.970, 127.478 47.893, 126.926 46.862 C 126.134 45.382, 126.447 44.462, 128.411 42.498 C 130.713 40.196, 131.547 40.023, 139.484 40.193 C 147.089 40.357, 148.313 40.131, 150.231 38.214 C 152.329 36.116, 152.343 35.943, 150.703 32.502 C 149.772 30.551, 147.854 28.515, 146.440 27.977 C 143.606 26.900, 114.722 26.611, 113.683 27.650 M 101.500 42.133 C 98.789 43.754, 98.028 45.048, 98.047 48 C 98.080 52.922, 101.759 55.306, 105.764 53 C 106.719 52.451, 108.716 51.570, 110.202 51.043 C 113.754 49.785, 116.546 44.698, 114.580 43.066 C 112.525 41.361, 103.829 40.741, 101.500 42.133 M 77.016 45.057 C 74.696 46.351, 71.612 47, 67.791 47 C 62.446 47, 61.946 47.203, 60.526 49.950 C 59.687 51.573, 59 54.230, 59 55.855 C 59 57.479, 57.824 62.114, 56.387 66.154 C 52.629 76.716, 52.378 79.378, 54.902 81.902 C 57.525 84.525, 60.003 84.549, 65 82 C 73.808 77.506, 77.283 80.149, 76.906 91.054 C 76.734 95.998, 78.198 121.307, 79.201 130.750 C 79.440 133.002, 80.738 132.060, 81.305 129.223 C 81.611 127.696, 82.864 125.171, 84.091 123.612 C 86.050 121.121, 86.827 120.833, 90.477 121.244 C 92.762 121.502, 95.932 122.565, 97.521 123.606 C 101.477 126.197, 106.902 127.968, 107.570 126.886 C 107.872 126.399, 110.454 125.968, 113.309 125.930 C 117.132 125.878, 117.973 125.633, 116.500 125 C 115.078 124.389, 116.233 124.125, 120.500 124.086 C 124.723 124.047, 126.056 124.318, 125 125 C 123.910 125.704, 123.858 125.974, 124.809 125.985 C 125.529 125.993, 125.859 126.419, 125.543 126.931 C 125.226 127.443, 125.425 128.144, 125.984 128.490 C 126.845 129.023, 127.450 127.145, 127.153 124.855 C 127.075 124.248, 128.544 123.892, 136.914 122.487 C 138.978 122.140, 140.606 122.363, 141.030 123.049 C 142.309 125.117, 145.782 121.851, 147.025 117.412 C 148.375 112.589, 147.689 109.439, 144.971 107.985 C 142.660 106.747, 126.679 106.473, 106.258 107.320 C 91.262 107.943, 90.992 107.917, 89.584 105.726 C 87.997 103.257, 85.339 60.657, 86.537 56.884 C 87.483 53.904, 86.149 46.292, 84.369 44.512 C 82.441 42.584, 81.301 42.668, 77.016 45.057 M 102.150 65.679 C 100.418 67.035, 99 69.035, 99 70.122 C 99 72.866, 101.794 78.003, 103.276 77.984 C 103.949 77.976, 106.682 76.009, 109.348 73.614 C 115.232 68.329, 115.243 66.093, 109.395 64.399 C 105.618 63.306, 105.056 63.405, 102.150 65.679 M 101.104 85.535 C 97.593 89.533, 97.222 92.069, 99.722 94.989 C 102.569 98.314, 106.185 97.235, 114.774 90.501 C 115.844 89.662, 113.075 86.654, 109.280 84.533 C 106.787 83.140, 104.626 82, 104.478 82 C 104.329 82, 102.811 83.591, 101.104 85.535 M 56.128 94.880 C 52.288 98.468, 50.587 106.179, 51.221 117.128 C 51.756 126.359, 53.110 130.187, 56.664 132.516 C 59.885 134.626, 62.242 133.198, 65.025 127.449 C 66.837 123.706, 67.107 122.003, 66.493 118.182 C 66.079 115.607, 65.596 110.007, 65.419 105.738 C 64.900 93.201, 61.801 89.581, 56.128 94.880" stroke="none" fill="black" fill-rule="evenodd"/>
</svg>