<svg xmlns="http://www.w3.org/2000/svg" width="256" height="256" viewBox="0 0 256 256" version="1.1">
	<path d="M 131.336 27.573 C 129.149 29.760, 128.865 30.700, 129.445 33.823 C 130.123 37.473, 130.353 40.462, 130.121 42.629 C 129.911 44.593, 123.951 46.355, 117.273 46.429 C 108.741 46.523, 106.984 44.692, 108.081 36.845 C 108.687 32.513, 108.494 31.026, 107.064 29 C 104.750 25.722, 101.644 25.356, 98.956 28.044 C 97.027 29.973, 96.862 30.888, 97.452 36.397 C 98.031 41.806, 97.844 42.928, 95.965 45.317 C 94.783 46.821, 92.169 48.733, 90.158 49.568 C 86.788 50.967, 79.787 57.496, 78.644 60.305 C 78.335 61.064, 78.118 60.952, 78.048 60 C 77.988 59.175, 74.722 56.700, 70.790 54.500 C 66.858 52.300, 63.562 49.825, 63.465 49 C 63.368 48.175, 62.976 44.350, 62.593 40.500 C 62.210 36.650, 61.235 32.487, 60.425 31.250 C 57.550 26.853, 50.834 29.441, 49.094 35.617 C 48.365 38.204, 48.704 39.562, 51.091 43.617 C 52.672 46.302, 53.974 49.088, 53.983 49.806 C 53.992 50.525, 52.550 52.437, 50.777 54.056 C 48.331 56.290, 46.583 57.001, 43.527 57.006 C 37.422 57.014, 32.319 58.779, 30.045 61.669 C 27.232 65.246, 27.468 66.697, 31.250 69.063 C 34.964 71.386, 39.313 71.152, 43.507 68.403 C 44.975 67.441, 47.470 66.513, 49.051 66.340 C 50.631 66.167, 52.279 65.966, 52.712 65.894 C 55.194 65.481, 58.043 66.215, 59.946 67.755 L 62.114 69.510 59.480 75.505 C 58.031 78.802, 55.952 83.188, 54.859 85.250 C 53.766 87.313, 53.136 89, 53.459 89 C 53.782 89, 53.346 90.069, 52.490 91.374 C 51.543 92.820, 49.590 93.967, 47.497 94.307 C 42.798 95.069, 30.449 103.232, 28.608 106.792 C 26.660 110.559, 27.551 113.717, 31.077 115.540 C 34.542 117.331, 35.489 117.358, 37.179 115.714 C 43.803 109.265, 50 107.262, 51.965 110.934 C 53.363 113.547, 53.279 134.428, 51.834 143.172 C 50.803 149.416, 50.872 150.606, 52.429 153.497 C 54.820 157.938, 58.260 159.475, 60.434 157.073 C 63.184 154.034, 64.071 148.892, 63.465 139.500 C 62.797 129.148, 64.203 109.397, 65.715 107.885 C 66.392 107.208, 68.468 107.176, 71.847 107.790 C 78.046 108.917, 81 107.403, 81 103.098 C 81 100.073, 79.267 98.136, 74.321 95.632 C 70.161 93.525, 69.495 91.035, 71.489 85.032 C 72.676 81.461, 72.845 79.578, 72.104 78.194 C 70.186 74.611, 70.393 68.919, 72.484 67.749 C 73.532 67.162, 75.380 65.614, 76.591 64.308 C 78.768 61.959, 78.838 61.951, 83.025 63.627 C 86.348 64.956, 87.657 65.071, 89.115 64.160 C 95.097 60.425, 96.116 63.547, 95.855 84.804 C 95.734 94.592, 95.902 103.033, 96.228 103.561 C 96.991 104.795, 94.770 110.087, 92.564 112.293 C 91.625 113.232, 89.609 114, 88.084 114 C 82.301 114, 79.352 122.416, 83.521 127.023 C 85.218 128.899, 86.141 129.072, 91.471 128.515 C 95.791 128.063, 97.075 128.180, 96 128.927 C 95.175 129.500, 94.839 129.976, 95.253 129.985 C 96.884 130.018, 93.259 136.148, 88.919 140.698 C 80.259 149.776, 79.567 154.314, 86.672 155.445 C 89.091 155.830, 92.881 153.843, 96.400 150.343 C 100.922 145.847, 101.827 143.898, 102.365 137.513 C 102.926 130.839, 105.160 128.002, 109.861 127.997 C 111.312 127.995, 118.800 127.792, 126.500 127.545 C 156.696 126.578, 159.357 125.945, 160.579 119.433 C 161.582 114.086, 160.807 113.651, 149.306 113.104 C 148.099 113.047, 145.849 111.914, 144.306 110.586 C 141.628 108.283, 141.488 107.724, 141.234 98.336 C 140.477 70.392, 140.984 61.088, 143.371 59.107 C 144.005 58.581, 147.098 57.187, 150.243 56.010 C 153.389 54.833, 156.222 53.451, 156.539 52.937 C 157.483 51.410, 153.800 46.133, 151.051 45.075 C 146.231 43.219, 144.141 40.496, 143.318 35 C 142.630 30.404, 140.887 27.270, 138.385 26.130 C 134.892 24.538, 134.237 24.673, 131.336 27.573 M 109.823 60.205 C 108.121 61.519, 107.677 63.346, 107.885 68.183 C 108.034 71.651, 110.634 72.469, 115.307 70.516 C 117.303 69.682, 121.145 69, 123.845 69 C 129.113 69, 131.190 67.558, 131.730 63.525 C 132.174 60.208, 129.716 58.656, 125.264 59.444 C 119.802 60.409, 116.827 60.461, 114 59.638 C 112.441 59.185, 110.869 59.398, 109.823 60.205 M 109.945 82.835 C 107.913 83.489, 107.033 85.079, 107.015 88.128 C 106.991 92.302, 108.764 92.994, 117.987 92.413 C 127.958 91.785, 130.379 90.784, 129.413 87.689 C 128.428 84.531, 127.011 83.854, 122.500 84.385 C 120.300 84.644, 116.900 84.296, 114.945 83.613 C 112.990 82.929, 110.740 82.579, 109.945 82.835 M 107.750 104.616 C 104.714 106.214, 104.024 109.945, 106.399 111.916 C 107.168 112.555, 109.981 113.043, 112.649 113.002 C 115.317 112.961, 119.670 113.216, 122.322 113.570 C 126.477 114.124, 127.481 113.897, 129.572 111.932 C 132.620 109.069, 132.665 106.482, 129.701 104.540 C 126.632 102.529, 111.615 102.581, 107.750 104.616 M 130.600 129.765 C 131.205 130.169, 131.914 131.163, 132.175 131.974 C 132.509 133.012, 132.822 132.790, 133.231 131.224 C 133.700 129.431, 133.395 129.003, 131.656 129.015 C 130.403 129.024, 129.961 129.338, 130.600 129.765 M 131.505 137.978 C 130.645 141.892, 131.530 144.425, 134.269 145.888 C 138.866 148.343, 141.037 149.724, 142.780 151.301 C 145.635 153.885, 152.074 156.198, 154.627 155.558 C 158.769 154.518, 158.983 147.830, 154.933 145.978 C 154.145 145.618, 152.150 144.588, 150.500 143.690 C 147.071 141.824, 132.901 135, 132.455 135 C 132.292 135, 131.865 136.340, 131.505 137.978" stroke="none" fill="black" fill-rule="evenodd"/>
</svg>