<svg xmlns="http://www.w3.org/2000/svg" width="256" height="256" viewBox="0 0 256 256" version="1.1">
	<path d="M 40.636 23.277 C 36.850 26.046, 36.867 36.442, 40.682 51 C 43.858 63.118, 50.266 67.514, 63.771 66.837 C 70.430 66.503, 70.503 66.528, 70.811 69.193 C 71.185 72.432, 67.591 74.683, 60.490 75.656 C 57.990 75.999, 55.706 76.666, 55.414 77.140 C 55.121 77.613, 53.554 78, 51.930 78 C 48.344 78, 40 81.768, 40 83.388 C 40 84.030, 40.701 85.555, 41.557 86.777 C 42.865 88.645, 44.051 89, 48.989 89 C 54.189 89, 54.953 89.259, 55.631 91.250 C 56.052 92.487, 56.245 93.950, 56.060 94.500 C 55.875 95.050, 55.799 96.944, 55.890 98.708 C 56.014 101.093, 55.447 102.316, 53.683 103.472 C 51.533 104.881, 50.952 104.878, 47.502 103.436 C 44.001 101.973, 43.343 101.979, 39.335 103.510 C 34.775 105.251, 32.902 107.592, 32.363 112.220 C 31.856 116.570, 35.585 118.468, 42.783 117.521 C 52.568 116.234, 55.474 116.343, 55.557 118 C 55.694 120.722, 54.122 122.708, 50.788 124.025 C 48.980 124.739, 46.600 126.092, 45.500 127.031 C 44.400 127.969, 42.366 129.004, 40.980 129.330 C 37.200 130.219, 34.175 133.548, 33.402 137.673 C 32.800 140.878, 33.060 141.655, 35.411 143.677 C 36.896 144.955, 38.737 146, 39.501 146 C 40.941 146, 50 135.537, 50 133.873 C 50 132.390, 53.823 134.800, 55.020 137.038 C 55.607 138.134, 56.263 140.711, 56.479 142.765 C 57.646 153.882, 60.603 159.818, 64.054 157.971 C 66.102 156.875, 68.057 148.765, 67.785 142.500 C 67.523 136.492, 68.739 133.050, 71.491 132.004 C 74.968 130.682, 79.757 132.629, 81.549 136.094 C 83.348 139.573, 87.506 140.923, 89.691 138.738 C 90.814 137.615, 91.034 136.163, 90.533 133.197 C 89.779 128.734, 87.371 125.979, 84.002 125.725 C 82.768 125.632, 80.050 123.591, 77.888 121.135 C 73.275 115.895, 73.931 114.008, 80.372 113.986 C 87.672 113.962, 88.838 113.260, 89.559 108.458 C 90.715 100.744, 87.248 95.115, 82.982 97.779 C 79.829 99.748, 72.418 100.486, 71.455 98.927 C 70.990 98.175, 71.105 97.465, 71.726 97.258 C 72.321 97.060, 71.692 95.783, 70.330 94.421 C 68.299 92.390, 67.979 91.365, 68.552 88.722 C 69.409 84.772, 70.229 84.205, 76.272 83.384 C 78.897 83.028, 81.291 82.338, 81.592 81.852 C 81.892 81.365, 82.526 81.207, 83 81.500 C 83.990 82.112, 85.319 80.290, 85.709 77.785 C 85.857 76.841, 86.068 75.716, 86.179 75.285 C 86.290 74.853, 86.028 73.007, 85.596 71.183 C 85.012 68.712, 85.218 67.416, 86.406 66.104 C 88.184 64.139, 88.502 58.451, 87.048 54.626 C 85.488 50.522, 83.089 49.888, 76.415 51.816 C 68.109 54.216, 53.169 54.171, 51.621 51.741 C 50.762 50.394, 50.861 49.342, 52.046 47.241 L 53.592 44.500 67.789 44.789 C 83.838 45.116, 86 44.532, 86 39.869 C 86 32.963, 80.550 28.700, 74.609 30.959 C 71.131 32.281, 57.955 32.314, 54.524 31.009 C 53.090 30.464, 51.154 28.687, 50.220 27.061 C 48.716 24.440, 45.305 22, 43.144 22 C 42.725 22, 41.597 22.575, 40.636 23.277 M 135.917 27.387 C 135.688 27.600, 131.900 28.083, 127.500 28.460 C 123.100 28.838, 117.700 29.553, 115.500 30.049 C 113.300 30.545, 109.384 30.962, 106.797 30.976 C 97.767 31.022, 93.287 35.739, 97.903 40.341 C 99.754 42.186, 101.057 42.467, 106.874 42.273 C 114.989 42.002, 117.470 43.278, 116.482 47.217 C 115.698 50.341, 114.185 51.073, 107.500 51.563 C 103.321 51.870, 102.035 52.470, 99.668 55.215 L 96.835 58.500 97.636 69.500 C 98.454 80.742, 98.581 85.142, 98.847 111.705 C 98.996 126.494, 99.068 126.977, 101.500 129.409 C 104.670 132.579, 104.742 135.768, 101.670 136.935 C 98.523 138.132, 95.359 146.268, 96.628 149.900 C 97.819 153.309, 102.388 153.807, 108.335 151.176 C 112.036 149.539, 112.840 148.667, 113.399 145.685 C 113.765 143.736, 113.539 140.055, 112.897 137.505 C 112.162 134.588, 112.081 132.519, 112.677 131.923 C 114.153 130.447, 127.397 130.005, 131.665 131.289 C 137.054 132.910, 138.318 134.330, 135.913 136.063 C 134.648 136.975, 134.002 138.636, 134.007 140.971 C 134.012 143.872, 134.629 144.919, 137.472 146.855 C 139.374 148.150, 142.633 149.801, 144.715 150.524 C 146.797 151.246, 149.850 152.546, 151.500 153.412 C 155.676 155.605, 158.729 155.429, 159.516 152.951 C 160.257 150.616, 157.790 146.230, 155.192 145.263 C 154.261 144.917, 151.209 142.916, 148.409 140.817 C 145.609 138.718, 142.990 137, 142.588 137 C 141.551 137, 139 134.319, 139 133.230 C 139 132.728, 141.661 131.511, 144.914 130.526 C 151.987 128.385, 153.150 126.585, 155.523 114.107 C 157.198 105.297, 157.615 81.927, 156.376 66.241 C 155.740 58.196, 155.621 57.890, 151.723 54.369 L 147.722 50.754 140.026 51.259 C 130.907 51.857, 129 51.067, 129 46.691 C 129 42.364, 131.953 40.624, 138.989 40.807 C 149.456 41.078, 155.895 37.701, 154.617 32.610 C 153.469 28.035, 151.435 27, 143.595 27 C 139.601 27, 136.146 27.174, 135.917 27.387 M 126 62 C 124.625 62.440, 121.222 62.845, 118.439 62.900 C 112.297 63.021, 108.714 65.711, 109.193 69.843 C 109.499 72.495, 109.523 72.502, 121 73.284 C 140.535 74.617, 140.002 74.649, 141.964 72.048 C 144.605 68.546, 143.361 66.077, 137.604 63.396 C 132.278 60.916, 130.174 60.663, 126 62 M 112.571 85.571 C 110.876 87.267, 110.507 91.673, 111.879 93.839 C 112.492 94.806, 116.603 95.331, 126.680 95.730 L 140.633 96.282 142.873 93.434 C 145.199 90.477, 145.102 86.322, 142.671 84.775 C 142.027 84.366, 135.345 84.024, 127.821 84.015 C 116.705 84.003, 113.848 84.294, 112.571 85.571 M 112.020 108.476 C 110.623 110.160, 110.347 115.747, 111.599 116.999 C 112.098 117.498, 119.191 117.986, 127.362 118.084 C 139.061 118.225, 142.405 117.969, 143.094 116.881 C 144.397 114.825, 144.180 109.390, 142.750 108.240 C 142.055 107.681, 135.215 107.203, 127.335 107.163 C 116.418 107.108, 112.905 107.409, 112.020 108.476" stroke="none" fill="black" fill-rule="evenodd"/>
</svg>