<svg xmlns="http://www.w3.org/2000/svg" width="256" height="256" viewBox="0 0 256 256" version="1.1">
	<path d="M 56.724 30.250 C 54.528 31.905, 52.560 37.040, 51.070 45 C 50.401 48.575, 49.672 52.437, 49.450 53.582 C 49.228 54.727, 46.786 58.726, 44.023 62.469 C 41.260 66.211, 39 69.600, 39 69.999 C 39 70.398, 37.649 72.425, 35.998 74.502 C 34.347 76.580, 32.470 80.039, 31.825 82.189 C 30.774 85.697, 30.866 86.311, 32.724 88.168 C 33.862 89.307, 36.177 90.399, 37.866 90.596 C 40.490 90.902, 41.492 90.287, 44.720 86.391 C 46.799 83.882, 48.407 81.477, 48.294 81.046 C 48.181 80.616, 49.896 79.449, 52.105 78.453 C 54.314 77.457, 56.566 75.812, 57.109 74.797 C 58.020 73.094, 58.220 73.077, 59.722 74.579 C 60.616 75.474, 61.692 78.297, 62.113 80.853 C 62.887 85.561, 62.521 104.879, 61.380 119.500 C 60.596 129.555, 60.597 128.043, 61.365 137.924 C 62.121 147.656, 64.253 152.341, 68.134 152.801 C 73.009 153.378, 73.425 151.557, 73.769 128.126 C 73.944 116.232, 74.121 104.925, 74.162 103 C 74.202 101.075, 74.658 95.900, 75.174 91.500 C 75.935 85.019, 75.817 82.669, 74.556 79.124 C 71.417 70.297, 73.075 67.522, 81.415 67.643 C 87.132 67.725, 91 69.288, 91 71.514 C 91 72.308, 90.041 75.881, 88.868 79.453 C 86.862 85.564, 86.834 86.097, 88.391 88.474 C 89.608 90.331, 90.920 91, 93.349 91 C 98.158 91, 100.844 87.602, 102.545 79.368 C 104.463 70.081, 106.817 68, 115.407 68 C 118.869 68, 123.119 68.494, 124.851 69.098 L 128 70.196 128.190 84.348 C 128.294 92.132, 128.474 101.650, 128.591 105.500 C 129.500 135.595, 129.493 135.936, 127.888 137.541 C 126.999 138.430, 123.752 139.365, 120.408 139.694 C 114.715 140.255, 109.724 142.019, 108.577 143.875 C 107.338 145.880, 112.083 149.821, 117.243 151.073 C 126.511 153.321, 134.601 151.773, 137.917 147.116 C 140.051 144.120, 141.497 131.375, 141.164 118.500 C 140.629 97.816, 139.166 77.102, 138.032 74.164 C 136.142 69.268, 138.171 67.592, 145.713 67.817 C 153.031 68.035, 156.593 66.605, 157.872 62.938 C 158.676 60.632, 158.517 59.625, 157.068 57.836 C 155.061 55.357, 155.927 55.424, 132.766 55.942 C 113.503 56.373, 112.768 55.826, 117.379 44.492 C 119.209 39.995, 119.558 37.946, 118.891 35.619 C 117.723 31.546, 115.736 29.750, 112.400 29.750 C 108.410 29.750, 106.402 32.861, 105.672 40.173 C 104.683 50.093, 104.061 52.336, 101.617 54.809 C 100.063 56.382, 98.246 57.091, 95.918 57.030 C 94.038 56.982, 86.329 56.842, 78.787 56.721 C 60.985 56.434, 60.718 56.229, 64.698 45.890 C 66.262 41.826, 67.477 37.938, 67.396 37.250 C 67.316 36.563, 67.194 35.410, 67.125 34.689 C 66.909 32.419, 63.018 29, 60.652 29 C 59.404 29, 57.636 29.563, 56.724 30.250" stroke="none" fill="black" fill-rule="evenodd"/>
</svg>