<svg xmlns="http://www.w3.org/2000/svg" width="256" height="256" viewBox="0 0 256 256" version="1.1">
	<path d="M 132 25.431 C 127.056 28.104, 104.871 35.001, 97.760 36.077 C 93.767 36.681, 89.545 37.784, 88.378 38.527 C 85.400 40.424, 84.918 44.376, 87.155 48.550 C 88.617 51.278, 89.050 54.242, 89.087 61.783 C 89.113 67.127, 89.353 72.268, 89.621 73.207 C 90.254 75.428, 100.010 81, 103.265 81 C 105.339 81, 107 82.582, 107 84.556 C 107 85.976, 99.822 88.240, 95.554 88.167 C 92.474 88.114, 88.937 88.827, 86.500 89.993 L 82.500 91.906 80.263 87.203 C 79.032 84.616, 78.020 81.949, 78.013 81.276 C 77.998 79.818, 72.852 76.987, 70.300 77.032 C 67.015 77.089, 62.812 81.766, 62.649 85.545 C 62.567 87.453, 62.182 88.898, 61.793 88.757 C 61.404 88.615, 60.504 89.232, 59.793 90.126 C 57.863 92.554, 52.284 93.330, 51.163 91.327 C 50.667 90.441, 50.401 88.992, 50.571 88.108 C 51.811 81.656, 52.129 81, 54.019 81 C 55.109 81, 56 80.507, 56 79.904 C 56 78.593, 65.968 67.015, 71.250 62.192 C 77.094 56.856, 75.624 50, 68.636 50 C 64.823 50, 61.992 52.135, 56.597 59.083 C 53.022 63.687, 51.382 65.052, 49.712 64.813 C 46.428 64.344, 46.503 61.591, 49.960 55.750 C 51.668 52.862, 53.464 49.825, 53.950 49 C 60.030 38.681, 59.587 30, 52.981 30 C 49.107 30, 44.457 35.606, 42.402 42.754 C 41.493 45.915, 38.957 51.589, 36.765 55.363 C 30.480 66.186, 30.608 73.352, 37.134 76.055 C 38.710 76.708, 40.007 77.751, 40.015 78.371 C 40.024 78.992, 40.467 78.825, 41 78 C 41.784 76.787, 41.972 76.931, 41.985 78.750 C 41.994 80.090, 41.393 81, 40.500 81 C 39.675 81, 39 81.417, 39 81.926 C 39 82.435, 36.724 85.247, 33.943 88.176 C 25.842 96.705, 25.599 97, 26.679 97 C 27.245 97, 28.910 98.114, 30.378 99.475 C 32.514 101.454, 34.339 102.024, 39.490 102.323 C 43.032 102.529, 46.720 103.328, 47.684 104.099 C 48.648 104.869, 50.238 106.163, 51.218 106.972 C 53.386 108.763, 53.557 112.572, 51.505 113.360 C 50.683 113.675, 49.284 115.748, 48.397 117.967 C 46.565 122.544, 46.566 122.543, 42.513 120.430 C 40.027 119.134, 38.820 119.070, 35.313 120.052 C 28.736 121.894, 27.556 123.867, 27.143 133.719 C 26.750 143.078, 27.710 146.091, 31.657 147.890 C 34.539 149.203, 37.676 149.333, 38.395 148.171 C 38.676 147.715, 39.381 144.227, 39.961 140.421 C 41.781 128.470, 41.588 128.843, 45.775 129.192 L 49.482 129.500 49.491 140.643 C 49.499 150.189, 49.773 152.088, 51.405 153.893 C 53.588 156.308, 55.842 156.567, 58.398 154.698 C 62.025 152.046, 62.577 129, 59.014 129 C 58.514 129, 58.685 127.323, 59.395 125.273 C 60.277 122.726, 61.447 121.361, 63.093 120.961 L 65.500 120.376 63 119.697 C 60.576 119.039, 57 113.207, 57 109.911 C 57 109.123, 58.507 106.734, 60.349 104.603 C 63.613 100.825, 63.819 100.746, 68.500 101.448 C 72.119 101.990, 74.252 101.739, 77.159 100.428 C 80.334 98.997, 81.680 98.884, 84.759 99.790 C 86.836 100.402, 91.233 100.636, 94.646 100.316 C 102.533 99.578, 103.680 101.051, 101.511 109.137 C 99.639 116.120, 94.855 128.156, 93.207 130.030 C 89.755 133.956, 85 142.732, 85 145.177 C 85 150.688, 91.898 153.861, 96.647 150.534 C 97.798 149.728, 99.768 146.466, 101.026 143.284 C 104.239 135.153, 107.754 130.551, 109.588 132.073 C 110.365 132.718, 111 134.052, 111 135.039 C 111 136.026, 111.506 137.002, 112.125 137.208 C 114.185 137.895, 112.056 144.028, 109.407 145.035 C 108.083 145.539, 106.966 146.299, 106.923 146.725 C 106.881 147.151, 106.701 148.252, 106.524 149.170 C 106.139 151.156, 108.371 154.593, 110.937 155.966 C 112.377 156.737, 114.124 156.073, 119.071 152.876 C 126.168 148.289, 126.442 148.280, 141.723 152.136 C 147.826 153.676, 150.894 153.987, 153.623 153.342 C 157.697 152.378, 159.656 150.151, 158.676 147.598 C 157.954 145.718, 148.578 141.027, 145.500 141.006 C 144.400 140.999, 142.072 140.122, 140.327 139.058 C 136.524 136.739, 136.760 134.221, 141.126 130.548 C 143.407 128.628, 144.190 126.901, 144.862 122.310 C 145.912 115.133, 146.292 113.655, 147.271 112.928 C 149.166 111.522, 144.016 108.200, 137.500 106.625 C 131.952 105.283, 129.410 105.142, 125.248 105.941 C 118.999 107.140, 115 106.018, 115 103.063 C 115 99.865, 121.376 98.791, 138.133 99.167 C 152.197 99.483, 153.046 99.392, 155.100 97.341 C 157.882 94.563, 157.105 91.084, 153.183 88.767 C 150.876 87.404, 147.600 87.031, 137.129 86.937 C 118.109 86.767, 114.888 85.475, 121.299 80.586 C 124.414 78.210, 125.751 77.942, 137.028 77.429 C 150.314 76.825, 154.319 75.588, 156.175 71.516 C 157.583 68.424, 156.782 66.491, 153.406 64.835 C 149.178 62.761, 148.343 60.703, 149.941 56.294 C 152.513 49.195, 152.281 47.377, 148.388 44.169 C 144.857 41.257, 144.841 41.209, 146.414 38.166 C 148.155 34.799, 148.539 30, 147.067 30 C 146.554 30, 145.880 29.212, 145.569 28.250 C 144.351 24.483, 136.697 22.893, 132 25.431 M 125.250 42.965 C 121.534 45.258, 121.387 45.915, 123.623 50.238 C 124.516 51.964, 125.201 55.429, 125.145 57.938 C 125.090 60.447, 125.290 63.288, 125.590 64.250 C 126.927 68.542, 132.463 64.140, 133.508 57.954 C 133.862 55.855, 135.647 52.036, 137.473 49.467 C 142.164 42.870, 141.677 41.562, 134.408 41.230 C 129.902 41.024, 127.729 41.436, 125.250 42.965 M 104.315 46.983 C 100.712 48.474, 99.931 51.077, 101.121 57.632 C 102.582 65.678, 104.058 68.440, 107.084 68.797 C 111.820 69.356, 113.114 66.424, 112.789 55.878 L 112.500 46.500 109.500 46.290 C 107.850 46.174, 105.517 46.486, 104.315 46.983 M 69.242 116.522 L 66.249 120.154 68.483 128.933 C 69.711 133.761, 71.552 139.127, 72.574 140.856 C 74.885 144.769, 78.204 145.042, 79.839 141.453 C 81.330 138.181, 81.206 122.699, 79.647 117.500 C 78.619 114.071, 78.004 113.457, 75.342 113.195 C 72.801 112.946, 71.690 113.552, 69.242 116.522 M 115.169 119.512 C 112.950 122.334, 112.416 124.525, 113.750 125.341 C 114.162 125.594, 117.041 126.116, 120.148 126.502 C 125.097 127.118, 126.055 126.945, 127.898 125.102 C 132.029 120.971, 130.141 118.077, 122.825 117.321 C 117.711 116.794, 117.190 116.942, 115.169 119.512" stroke="none" fill="black" fill-rule="evenodd"/>
</svg>