<svg xmlns="http://www.w3.org/2000/svg" width="256" height="256" viewBox="0 0 256 256" version="1.1">
	<path d="M 112.581 26.317 C 111.305 27.250, 110.574 29.622, 110.075 34.445 C 109.227 42.633, 107.837 44, 100.356 44 C 90.691 44, 86.499 48.003, 90.050 53.842 C 92.456 57.797, 95.887 58.663, 101.021 56.608 C 105.666 54.750, 109.674 54.521, 110.195 56.086 C 110.394 56.683, 110.306 59.801, 109.999 63.014 C 109.271 70.623, 106.961 73.396, 102.020 72.593 C 89.714 70.592, 90.301 70.545, 87.048 73.798 C 80.642 80.204, 84.025 83.210, 98.500 83.973 C 108.318 84.490, 108.505 84.547, 108.797 87.052 C 109.181 90.344, 106.921 92.253, 100 94.481 C 96.975 95.455, 93.466 96.645, 92.203 97.126 C 88.815 98.415, 82.240 98.188, 81.309 96.750 C 80.864 96.063, 80.275 92.611, 80 89.080 C 79.525 82.984, 79.323 82.562, 76 80.708 C 69.378 77.013, 65 78.947, 65 85.569 C 65 87.321, 64.438 89.187, 63.750 89.714 C 62.358 90.782, 54.442 91.391, 53.060 90.537 C 50.904 89.205, 54.471 82.842, 61.500 75.482 C 63.150 73.755, 64.989 71.477, 65.586 70.421 C 66.183 69.364, 68.042 67.600, 69.717 66.500 C 71.392 65.400, 73.710 63.129, 74.870 61.454 C 76.626 58.916, 76.816 57.845, 76.007 55.025 C 75.473 53.163, 74.543 51.336, 73.940 50.963 C 70.652 48.931, 60.503 55.074, 56.117 61.750 C 54.655 63.975, 53.196 65, 51.491 65 C 47.548 65, 48.308 61.475, 55.119 48.167 C 60.447 37.756, 61.115 35.843, 60.290 33.356 C 59.058 29.643, 55.532 27.801, 52.393 29.231 C 49.151 30.708, 45.308 36.600, 43.403 43.016 C 42.516 46.002, 39.767 52.219, 37.294 56.830 C 29.442 71.475, 29.426 74.590, 37.197 75.620 C 40.111 76.007, 42.399 76.877, 42.723 77.722 C 43.480 79.693, 39.338 86.986, 35.847 89.827 C 31.841 93.088, 30.806 95.359, 31.952 98.374 C 32.968 101.046, 37.843 102.984, 43.576 102.994 C 49.897 103.006, 51.790 107.537, 52.561 124.500 C 52.760 128.900, 53.004 132.950, 53.101 133.500 C 53.199 134.050, 52.938 138.879, 52.522 144.230 L 51.765 153.960 54.448 154.980 C 58.328 156.456, 60.476 156.245, 63.083 154.134 C 64.950 152.622, 65.465 151.054, 65.793 145.884 C 66.015 142.373, 65.663 136.800, 65.009 133.500 C 64.356 130.200, 63.685 126.570, 63.519 125.434 C 63.353 124.298, 61.811 120.735, 60.094 117.517 C 58.377 114.298, 57.205 110.930, 57.490 110.031 C 57.775 109.133, 59.765 106.683, 61.911 104.587 C 65.737 100.851, 65.869 100.807, 68.657 102.349 C 73.747 105.163, 84.387 108.775, 89.427 109.400 C 96.841 110.318, 97.474 111.324, 99.089 124.759 C 99.865 131.217, 100.360 137.850, 100.189 139.500 C 99.546 145.706, 101.102 153.193, 103.543 155.634 C 106.534 158.625, 110.959 158.691, 128 156 C 134.875 154.914, 142.075 154.018, 144 154.009 C 148.315 153.989, 153.740 150.813, 154.965 147.592 C 156.246 144.222, 156.609 128.047, 155.618 118.500 C 154.352 106.312, 152.017 102.753, 142.500 98.505 C 137.329 96.197, 135.649 95.911, 130.340 96.432 C 122.443 97.208, 120.546 95.720, 121.267 89.319 C 121.933 83.417, 123.225 82.232, 129.820 81.474 C 132.944 81.115, 137.272 80.372, 139.437 79.822 C 141.603 79.272, 146.471 78.851, 150.256 78.886 C 158.591 78.964, 160.450 77.799, 158.385 73.788 C 157.412 71.900, 155.701 70.734, 152.744 69.946 C 146.539 68.292, 145.561 67.597, 144.929 64.393 C 144.158 60.489, 145.956 57.226, 151.332 52.771 C 158.476 46.849, 159.622 39.515, 154.159 34.676 C 150.261 31.223, 146.898 32.647, 142.270 39.711 C 140.763 42.011, 140.155 42.191, 135.556 41.698 C 132.775 41.400, 128.700 40.558, 126.500 39.828 C 122.578 38.526, 122.494 38.398, 122.198 33.271 C 121.967 29.249, 121.395 27.690, 119.726 26.521 C 117.059 24.653, 114.940 24.592, 112.581 26.317 M 123.245 54.155 C 120.877 56.523, 122.766 68, 125.524 68 C 127.919 68, 130.386 63.051, 130.445 58.128 C 130.498 53.702, 130.369 53.487, 127.495 53.205 C 125.842 53.043, 123.930 53.470, 123.245 54.155 M 112.338 106.894 C 108.169 109.491, 106.939 111.773, 108.209 114.558 C 110.015 118.522, 117.670 119.725, 132.294 118.344 C 137.733 117.831, 139.308 117.293, 140.188 115.649 C 140.935 114.253, 140.955 113.485, 140.250 113.250 C 139.679 113.060, 139.426 112.088, 139.687 111.090 C 140.406 108.339, 133.473 106.086, 122 105.344 C 116.771 105.006, 114.882 105.309, 112.338 106.894 M 71.779 116.880 C 69.981 121.458, 70.322 128.041, 72.419 129.214 C 73.233 129.670, 74.926 133.234, 76.183 137.135 C 77.828 142.244, 79.071 144.457, 80.626 145.048 C 83.866 146.280, 86.753 145.119, 87.461 142.300 C 88.282 139.030, 87.097 131.240, 85.542 129.685 C 84.873 129.016, 84.070 126.676, 83.757 124.485 C 83.444 122.293, 82.464 118.813, 81.580 116.750 C 80.182 113.488, 79.540 113, 76.638 113 C 73.693 113, 73.125 113.454, 71.779 116.880 M 36.321 121.189 C 33.389 122.606, 32.261 125.981, 31.539 135.500 C 31.002 142.568, 31.198 144.024, 33.216 147.999 C 35.675 152.843, 40.009 155.391, 42.149 153.251 C 43.134 152.266, 44.610 140.568, 45.224 128.890 C 45.444 124.710, 42.758 119.968, 40.227 120.068 C 39.277 120.105, 37.520 120.609, 36.321 121.189 M 119.282 129.717 C 115.125 130.024, 113.652 130.627, 112.032 132.686 C 104.865 141.798, 119.308 148.701, 137 144.619 C 142.195 143.421, 145.313 136.653, 142.587 132.493 C 141.138 130.281, 140.253 129.998, 134.727 129.986 C 131.302 129.979, 127.600 129.829, 126.500 129.653 C 125.400 129.477, 122.152 129.506, 119.282 129.717" stroke="none" fill="black" fill-rule="evenodd"/>
</svg>