<svg xmlns="http://www.w3.org/2000/svg" width="256" height="256" viewBox="0 0 256 256" version="1.1">
	<path d="M 118.003 23.724 C 116.901 25.124, 115.948 27.672, 115.885 29.385 C 115.742 33.247, 115.589 34.056, 114.589 36.242 C 113.419 38.800, 104.749 41, 95.842 41 C 88.636 41, 87.923 41.189, 86.413 43.493 C 84.498 46.415, 85.152 50.396, 87.741 51.591 C 88.709 52.037, 93.546 52.649, 98.490 52.951 C 106.207 53.422, 107.530 53.763, 107.834 55.356 C 108.411 58.385, 102.320 63.765, 96.347 65.502 C 90.062 67.328, 88.623 69.367, 89.829 74.733 C 91 79.945, 88.966 84.374, 84.255 86.874 C 82.238 87.944, 81.812 87.739, 80.057 84.853 C 78.983 83.087, 78.324 81.285, 78.593 80.850 C 78.862 80.415, 77.826 79.783, 76.291 79.446 C 74.756 79.109, 72.879 78.637, 72.119 78.398 C 69.923 77.705, 64.229 82.683, 63.519 85.915 C 62.930 88.597, 59.132 92.157, 56.384 92.603 C 52.366 93.254, 52.499 87.098, 56.598 82.677 C 57.919 81.253, 59 79.668, 59 79.155 C 59 78.277, 66.067 70.928, 72.914 64.687 C 78.307 59.771, 76.623 51, 70.286 51 C 67.829 51, 62.511 55.693, 56.326 63.319 C 54.987 64.970, 53.162 66, 51.576 66 C 47.724 66, 48.192 61.655, 52.820 54.449 C 57.235 47.573, 61.250 38.063, 61.250 34.481 C 61.250 31.097, 59.273 28.994, 56.128 29.032 C 51.378 29.089, 48.443 32.703, 44.997 42.735 C 43.819 46.164, 40.413 53.424, 37.428 58.867 C 31.384 69.889, 30.484 74.600, 34.250 75.499 C 35.487 75.794, 38.075 76.150, 40 76.290 C 42.761 76.491, 43.567 77.015, 43.820 78.772 C 43.995 79.997, 43.705 81, 43.174 81 C 42.643 81, 41.334 82.768, 40.265 84.930 C 39.195 87.091, 36.898 90.056, 35.160 91.519 C 32.914 93.409, 32 95.040, 32 97.160 C 32 101.903, 34.391 103.482, 41.328 103.323 C 46.450 103.205, 47.831 103.577, 50.669 105.842 C 52.501 107.304, 53.994 109.175, 53.987 110 C 53.967 112.325, 48.623 122.579, 47.500 122.449 C 45.253 122.187, 41 119.985, 41 119.082 C 41 116.721, 31.681 120.859, 30.024 123.956 C 29.454 125.021, 28.932 129.916, 28.863 134.835 C 28.726 144.746, 30.028 147.854, 35.251 150.074 C 38.887 151.620, 41 149.911, 41 145.426 C 41 141.528, 43.598 131.002, 44.875 129.725 C 45.360 129.240, 47.049 128.991, 48.628 129.172 C 51.454 129.495, 51.498 129.596, 51.354 135.500 C 51.274 138.800, 51.049 144.347, 50.854 147.827 C 50.554 153.183, 50.798 154.373, 52.441 155.577 C 55.142 157.557, 57.276 157.358, 60.495 154.825 L 63.260 152.650 62.773 140.825 L 62.286 129 65.022 129 C 67.792 129, 68.770 130.419, 70.537 137 C 72.575 144.591, 77.423 146.343, 80.514 140.605 C 82.271 137.341, 82.275 136.826, 80.608 127.336 C 79.324 120.028, 79.143 116.755, 79.909 114.740 C 80.944 112.016, 80.472 109, 79.010 109 C 77.465 109, 77.222 103.470, 78.647 100.717 C 80.527 97.081, 82.155 96.518, 85.660 98.296 C 87.222 99.088, 89.400 99.529, 90.500 99.276 C 91.600 99.024, 96.987 98.620, 102.472 98.379 C 112.454 97.941, 118 99.012, 118 101.377 C 118 103.018, 113.153 104.916, 107.445 105.509 C 100.088 106.274, 94.393 107.985, 92.103 110.119 C 90.187 111.904, 90.102 112.800, 90.678 125.258 C 91.449 141.955, 91.808 143.007, 96.725 142.978 C 98.801 142.966, 102.525 142.009, 105 140.851 C 107.841 139.523, 112.381 138.560, 117.314 138.241 C 127.110 137.607, 127.943 136.588, 129.125 123.773 C 129.931 115.033, 129.856 114.431, 127.453 110.330 C 126.069 107.969, 124.051 105.563, 122.969 104.983 C 121.886 104.404, 121 103.045, 121 101.965 C 121 99.867, 123.953 99.322, 132.500 99.842 C 139.003 100.238, 139.270 100.944, 139.633 118.691 C 140.061 139.588, 139.826 140.833, 134.428 146.308 C 128.227 152.597, 128.737 155.282, 136.538 157.437 C 139.242 158.184, 146.857 154.222, 149.385 150.753 C 151.222 148.231, 151.413 146.137, 151.711 125.282 C 151.999 105.155, 152.230 102.451, 153.734 101.609 C 157.876 99.291, 160 96.074, 160 92.118 C 160 88.748, 159.435 87.680, 156.272 85.073 C 152.586 82.035, 147.733 81.005, 146.500 83 C 146.160 83.550, 145.046 84, 144.024 84 C 143.003 84, 142.017 84.441, 141.833 84.981 C 141.366 86.356, 126.007 87.901, 123.185 86.857 C 121.912 86.386, 117.412 85.978, 113.185 85.952 C 100.681 85.874, 95.291 81.758, 101.151 76.763 C 102.272 75.808, 105.059 74.543, 107.345 73.953 C 109.630 73.363, 113.408 72.007, 115.739 70.940 C 120.811 68.619, 120.533 68.631, 126.635 70.449 C 129.311 71.247, 134.200 72.681, 137.500 73.637 C 140.800 74.593, 143.788 75.800, 144.140 76.319 C 144.492 76.837, 145.109 75.316, 145.511 72.938 C 146.146 69.178, 145.950 68.378, 144.010 66.807 C 142.783 65.813, 141.041 64.998, 140.139 64.995 C 139.238 64.993, 136.765 63.397, 134.644 61.449 C 132.523 59.501, 129.514 57.653, 127.958 57.342 C 124.841 56.718, 123.329 54.273, 125.015 52.583 C 125.609 51.987, 131.166 51.252, 137.363 50.950 C 146.935 50.482, 149.110 50.058, 151.815 48.131 C 153.567 46.884, 155 45.204, 155 44.397 C 155 41.833, 151.989 38.217, 149.197 37.427 C 145.833 36.474, 145.937 36.474, 137.604 37.454 C 131.066 38.222, 130.616 38.142, 128.932 35.910 C 127.956 34.615, 127.379 33.196, 127.651 32.755 C 128.250 31.786, 125.115 22.032, 124.170 21.923 C 123.801 21.881, 122.714 21.696, 121.753 21.512 C 120.780 21.326, 119.118 22.306, 118.003 23.724 M 61.077 105.159 C 58.835 107.447, 57 109.870, 57 110.545 C 57 113.896, 64.220 123.427, 66.247 122.751 C 67.616 122.295, 72.701 113.059, 73.165 110.188 C 73.390 108.792, 72.228 106.943, 69.624 104.555 C 67.493 102.600, 65.615 101, 65.451 101 C 65.288 101, 63.319 102.872, 61.077 105.159 M 108.500 116.302 C 104.260 117.731, 101.800 120.758, 103.023 123.042 C 104.582 125.956, 110.103 129.786, 112.020 129.284 C 113.900 128.793, 116.456 121.575, 115.846 118.483 C 115.370 116.064, 112.093 115.092, 108.500 116.302" stroke="none" fill="black" fill-rule="evenodd"/>
</svg>