<svg xmlns="http://www.w3.org/2000/svg" width="256" height="256" viewBox="0 0 256 256" version="1.1">
	<path d="M 117 25 C 114.622 27.378, 114.756 26.503, 114.481 41.439 C 114.262 53.326, 114.247 53.390, 111.262 56.057 C 109.094 57.995, 106.666 58.936, 102.497 59.457 C 94.579 60.446, 91.550 63.404, 92.415 69.304 C 93.385 75.922, 93.419 85.014, 92.496 91 C 91.339 98.498, 91.575 100.576, 94.031 104.551 C 97.163 109.618, 100.509 111.803, 107.133 113.106 C 113.780 114.414, 115.594 116.307, 114.062 120.337 C 112.646 124.060, 111.284 124.474, 101.471 124.163 C 92.557 123.879, 92.408 123.914, 89.782 126.860 C 86.405 130.650, 83.369 130.144, 82.519 125.648 C 80.948 117.347, 79.683 114, 78.117 114 C 77.224 114, 74.277 115.576, 71.567 117.503 C 66.994 120.754, 66.492 120.896, 64.570 119.480 C 59.604 115.819, 56.584 114.139, 55.821 114.611 C 55.369 114.890, 55 114.485, 55 113.711 C 55 112.282, 65.689 101, 67.043 101 C 67.449 101, 69.673 101.847, 71.985 102.882 C 79.904 106.428, 82.021 104.064, 82.307 91.358 L 82.500 82.799 79.038 79.899 C 76.593 77.852, 74.493 77, 71.895 77 C 67.571 77, 66.643 78.465, 66.950 84.803 C 67.206 90.107, 65.750 92, 61.413 92 C 59.062 92, 57.743 91.389, 56.969 89.941 C 55.459 87.120, 56.750 81.878, 59.106 81.262 C 60.148 80.990, 61.010 80.257, 61.023 79.633 C 61.058 77.858, 70.116 68.490, 74.017 66.195 C 80.567 62.340, 82.335 59.663, 81.751 54.480 C 81.182 49.437, 77.915 45, 74.769 45 C 72.697 45, 67.673 49.957, 65.410 54.236 C 64.615 55.740, 62.841 57.253, 61.469 57.597 C 60.097 57.941, 58.643 58.736, 58.237 59.362 C 57.004 61.267, 53.628 63.724, 51.250 64.449 C 49.413 65.009, 49 64.749, 49 63.034 C 49 60.256, 53.236 51.995, 55.892 49.595 C 57.051 48.547, 58 47.323, 58 46.874 C 58 46.426, 59.332 44.133, 60.959 41.779 C 65.010 35.920, 65.464 33.181, 63.037 29.250 C 58.515 21.928, 51.658 26.677, 45.594 41.332 C 43.812 45.639, 41.900 49.464, 41.344 49.832 C 40.789 50.199, 38.685 53.337, 36.668 56.804 C 33.041 63.036, 31.955 68.805, 33.846 71.786 C 35.143 73.830, 39.974 74.247, 42.579 72.540 C 46.139 70.207, 46.624 70.585, 46.865 75.881 C 47.070 80.357, 46.877 80.814, 44.544 81.400 C 43.145 81.751, 42 82.643, 42 83.383 C 42 84.123, 39.750 87.014, 37 89.808 C 32.176 94.709, 30.902 97, 33 97 C 33.550 97, 34 97.640, 34 98.422 C 34 100.267, 40.392 102.369, 43.574 101.571 C 47.018 100.706, 49.422 102.278, 51.885 107.005 C 54.558 112.132, 54.562 115.932, 51.901 120.443 C 49.563 124.405, 48.487 124.751, 45.869 122.382 C 43.484 120.223, 36.706 120.392, 33.553 122.687 C 31.251 124.363, 31.060 125.126, 31.031 132.782 C 30.989 143.914, 34.418 152, 39.180 152 C 41.705 152, 42.774 148.766, 43.713 138.281 C 44.436 130.216, 44.683 129.474, 46.750 129.180 C 47.987 129.005, 49 128.438, 49 127.922 C 49 127.406, 49.946 127.549, 51.102 128.242 C 53.094 129.434, 53.171 130.049, 52.572 140 C 51.846 152.041, 52.904 155, 57.934 155 C 61.647 155, 63.299 152.827, 63.597 147.552 C 63.731 145.178, 64.247 141.720, 64.743 139.868 C 65.239 138.016, 65.320 135.375, 64.922 134 C 63.657 129.623, 63.895 129, 66.839 129 C 69.645 129, 72 131.952, 72 135.470 C 72 136.227, 73.327 138.173, 74.948 139.794 C 78.528 143.374, 81.913 143.111, 84.301 139.067 L 85.934 136.304 99.717 136.636 C 111.477 136.920, 113.689 137.228, 114.789 138.730 C 115.499 139.698, 115.993 141.392, 115.888 142.495 C 115.783 143.598, 116.215 145.767, 116.849 147.315 C 117.482 148.863, 118 150.704, 118 151.405 C 118 152.105, 119.132 153.195, 120.515 153.825 C 122.636 154.791, 123.340 154.660, 125.015 152.985 C 126.107 151.893, 127.070 150.213, 127.157 149.250 C 127.243 148.287, 127.399 146.360, 127.504 144.967 C 127.610 143.574, 128.010 140.762, 128.393 138.717 C 129.077 135.073, 129.183 134.998, 133.795 134.899 C 136.383 134.843, 139.954 134.877, 141.731 134.974 C 143.507 135.071, 147.445 134.634, 150.481 134.004 C 155.810 132.898, 156 132.746, 156 129.598 C 156 127.226, 155.387 126.023, 153.750 125.183 C 151.109 123.827, 141.094 122.196, 138.382 122.680 C 134.480 123.376, 128.808 123.206, 128.031 122.369 C 127.588 121.891, 126.934 120.535, 126.578 119.355 C 125.687 116.398, 128.053 114.323, 133.230 113.522 C 143.906 111.872, 152.096 107.507, 154.023 102.441 C 156.053 97.100, 156.653 84.236, 155.489 71 C 154.469 59.413, 153.174 58.450, 137 57.268 C 126.681 56.513, 126.495 56.456, 126.199 53.914 C 125.680 49.448, 127.881 48.685, 140.668 48.897 C 151.423 49.075, 152.450 48.926, 154.638 46.870 C 158.598 43.150, 157.143 38.245, 151.136 35.061 C 148.409 33.615, 141.691 34.340, 135.738 36.721 C 132.056 38.195, 131.803 38.164, 129.455 35.958 C 128.109 34.693, 127.212 33.455, 127.461 33.206 C 128.301 32.365, 124.011 25.076, 122.062 24.033 C 119.486 22.654, 119.313 22.687, 117 25 M 120.024 68.115 C 118.661 68.658, 116.555 68.854, 115.343 68.550 C 112.601 67.862, 108.211 69.467, 105.250 72.241 C 102.425 74.888, 102.440 75.788, 105.375 79.456 L 107.741 82.413 113.120 80.600 C 118.185 78.893, 118.951 78.881, 126.208 80.393 C 130.447 81.277, 134.975 82, 136.269 82 C 138.963 82, 142.536 79.037, 143.498 76.006 C 145.245 70.500, 128.311 64.808, 120.024 68.115 M 106.246 92.154 C 104.583 93.817, 104.657 99.470, 106.361 100.884 C 107.272 101.641, 111.873 101.883, 120.303 101.617 C 134.282 101.175, 140.236 99.353, 140.807 95.342 C 141.217 92.469, 137.971 91.796, 125.316 92.129 C 119.917 92.271, 113.698 92.054, 111.496 91.647 C 108.757 91.141, 107.099 91.301, 106.246 92.154" stroke="none" fill="black" fill-rule="evenodd"/>
</svg>