<svg xmlns="http://www.w3.org/2000/svg" width="256" height="256" viewBox="0 0 256 256" version="1.1">
	<path d="M 122 25.034 C 119.167 26.765, 111.495 29.873, 107 31.111 C 104.525 31.792, 102.050 32.679, 101.500 33.081 C 100.950 33.484, 98.250 34.137, 95.500 34.534 C 92.750 34.931, 89.674 35.684, 88.665 36.208 C 85.882 37.653, 84.051 43.118, 83.989 50.164 C 83.958 53.649, 83.865 57.850, 83.784 59.500 C 83.702 61.150, 84.211 67.079, 84.914 72.675 C 86.221 83.066, 86.017 90.683, 84.261 97.108 C 83.531 99.778, 83.643 101.806, 84.693 104.911 C 85.938 108.595, 85.918 109.769, 84.528 114.553 C 82.671 120.938, 81.298 121.347, 76.335 116.990 C 72.639 113.744, 71.149 113.920, 66.624 118.135 C 64.369 120.236, 62.716 120.454, 60.010 119.005 C 57.669 117.753, 55.110 112.749, 56.154 111.466 C 63.359 102.613, 62.783 102.976, 69.193 103.247 C 74.484 103.471, 75.402 103.219, 77.146 101.066 C 80.925 96.402, 77.615 78.927, 72.593 77.028 C 68.185 75.361, 64.816 79.535, 64.414 87.158 C 64.135 92.450, 62.217 96.969, 61.051 95.082 C 60.647 94.429, 59.908 93.991, 59.408 94.109 C 58.909 94.227, 57.251 93.807, 55.725 93.177 C 53.279 92.167, 52.997 91.598, 53.350 88.393 C 53.591 86.213, 54.795 83.704, 56.357 82.128 C 57.790 80.683, 61.221 76.842, 63.982 73.594 C 66.742 70.345, 69.828 67.108, 70.839 66.400 C 71.849 65.693, 73.917 63.486, 75.435 61.497 C 77.935 58.219, 78.078 57.601, 76.959 54.902 C 74.182 48.196, 67.962 48.676, 62.276 56.036 C 60.199 58.725, 57.672 62.092, 56.661 63.519 C 55.228 65.540, 54.123 66.046, 51.661 65.807 C 48.975 65.546, 48.550 65.144, 48.833 63.133 C 49.016 61.832, 49.986 59.306, 50.989 57.520 C 51.991 55.735, 53.417 53.200, 54.156 51.887 C 54.895 50.574, 55.725 49.275, 56 49 C 57.353 47.647, 61 38.672, 61 36.696 C 61 33.611, 58.292 30, 55.978 30 C 52.635 30, 47.348 35.639, 45.557 41.115 C 44.638 43.925, 41.212 51.459, 37.943 57.858 C 29.668 74.057, 30.095 77, 40.721 77 C 44.858 77, 45.597 77.295, 45.725 79 C 45.809 80.114, 45.259 81, 44.485 81 C 43.720 81, 42.315 82.688, 41.364 84.750 C 40.412 86.813, 38.148 90.181, 36.332 92.236 C 33.401 95.553, 33.159 96.254, 34.176 98.486 C 34.806 99.869, 35.740 101, 36.253 101 C 36.765 101, 38.329 101.900, 39.727 103 C 41.126 104.100, 43.295 105, 44.549 105 C 45.803 105, 48.434 106.560, 50.397 108.466 L 53.966 111.931 51.233 116.523 L 48.500 121.114 43.272 120.632 C 40.397 120.366, 36.505 120.574, 34.625 121.093 C 29.336 122.554, 28 125.514, 28 135.776 C 28 145.435, 29.351 148.297, 34.525 149.596 C 38.363 150.559, 39.995 149.431, 40.044 145.781 C 40.068 143.977, 40.640 139.843, 41.316 136.595 C 42.667 130.096, 44.815 127.765, 47.750 129.610 C 49.191 130.516, 49.588 132.677, 50 141.829 C 50.394 150.580, 50.882 153.393, 52.296 155.039 C 54.069 157.103, 54.133 157.106, 57.296 155.262 C 60.339 153.487, 60.540 152.993, 61.286 145.447 C 62.029 137.936, 61.868 134.136, 60.535 127.750 C 60.206 126.173, 60.396 125, 60.980 125 C 61.541 125, 61.947 124.662, 61.882 124.250 C 61.601 122.474, 62.066 121, 62.906 121 C 63.405 121, 63.577 121.900, 63.290 123 C 62.997 124.118, 63.259 125, 63.883 125 C 64.498 125, 64.947 125.338, 64.882 125.750 C 64.565 127.754, 65.127 129, 66.348 129 C 67.090 129, 68.474 130.725, 69.425 132.834 C 70.376 134.943, 72.686 138.390, 74.558 140.494 C 76.430 142.598, 78.983 145.820, 80.231 147.653 C 82.971 151.678, 86.661 152.199, 87.543 148.686 C 87.862 147.413, 87.983 145.926, 87.812 145.381 C 87.640 144.837, 88.390 142.729, 89.477 140.696 C 91.103 137.658, 92.005 137, 94.546 137 L 97.637 137 97.681 146.325 C 97.728 156.351, 99.426 161, 103.042 161 C 105.280 161, 108.953 156.487, 109.682 152.840 C 110.527 148.617, 112.557 148.692, 114.508 153.018 C 115.466 155.143, 116.959 157.154, 117.826 157.487 C 120.676 158.580, 124.429 154.674, 125.358 149.645 C 126.257 144.782, 128.368 143.434, 129.500 147 C 129.849 148.100, 130.554 149, 131.067 149 C 131.580 149, 132 149.627, 132 150.393 C 132 151.822, 133.841 152.861, 137.673 153.595 C 139.790 154, 143 151.791, 143 149.929 C 143 147.899, 145.597 149.183, 147.203 152.006 C 149.369 155.813, 153.666 156.051, 157.694 152.588 C 160.388 150.273, 160.497 149.822, 160.429 141.338 C 160.233 116.906, 157.751 100.238, 153.791 96.763 C 150.832 94.168, 146.004 93.208, 130 92.033 C 116.987 91.078, 114.731 91.159, 108 92.823 C 100.141 94.765, 97.184 94.644, 96.301 92.343 C 95.742 90.886, 97.800 85.003, 98.871 84.996 C 125.110 84.812, 140.278 83.013, 145.732 79.440 C 148.840 77.404, 151.636 71.522, 152.955 64.247 C 154.131 57.761, 153.019 52.876, 149.585 49.442 C 147.681 47.538, 115.373 46.494, 111.168 48.201 C 109.700 48.796, 106.523 50.152, 104.108 51.214 C 100.084 52.982, 99.582 53.010, 98.117 51.546 C 96.676 50.105, 96.669 49.680, 98.044 47.224 C 99.390 44.819, 100.327 44.431, 106.034 43.915 C 109.590 43.593, 115.650 42.185, 119.500 40.786 C 123.350 39.387, 128.399 37.926, 130.721 37.538 C 139.060 36.147, 142.436 30.638, 137.686 26.174 C 135.826 24.427, 134.205 24.012, 129.436 24.059 C 126.171 24.091, 122.825 24.530, 122 25.034 M 120.500 60.193 C 116.100 60.735, 109.779 61.132, 106.453 61.075 C 101.644 60.993, 99.956 61.392, 98.203 63.025 C 95.253 65.774, 95.205 71.330, 98.115 73.368 C 100.320 74.912, 101.229 74.797, 106.979 72.237 C 110.938 70.475, 120.447 70.106, 130.025 71.342 C 135.794 72.087, 136.834 71.955, 139.002 70.200 C 141.188 68.429, 141.314 67.960, 140.171 65.857 C 136.502 59.113, 134.333 58.488, 120.500 60.193 M 131.500 104.680 C 124.573 105.123, 104.824 106.927, 103 107.284 C 102.175 107.446, 100.708 108.031, 99.740 108.584 C 98.217 109.455, 98.471 109.769, 101.619 110.907 C 104.309 111.879, 104.898 112.450, 103.879 113.096 C 102.892 113.721, 103.258 113.974, 105.167 113.985 C 106.633 113.993, 107.993 113.522, 108.188 112.937 C 108.599 111.702, 126.268 110.125, 133.282 110.698 C 138.502 111.124, 144.068 112.820, 140.628 112.937 C 137.768 113.033, 140.611 116, 143.563 116 C 146.079 116, 148.092 113.864, 146.178 113.226 C 145.316 112.939, 145.373 112.306, 146.391 110.852 C 149.246 106.777, 145.541 103.594, 138.625 104.180 C 137.456 104.279, 134.250 104.504, 131.500 104.680 M 122.593 130.498 C 121.258 131.833, 120.319 133.729, 120.506 134.712 C 120.694 135.696, 120.881 137.255, 120.923 138.179 C 121.129 142.691, 127.319 144.515, 130.500 141 C 131.495 139.900, 133.094 139, 134.052 139 C 136.126 139, 142 143.925, 142 145.664 C 142 147.541, 143.932 148.302, 145.466 147.029 C 146.672 146.027, 148.178 140.471, 148.455 136 C 148.631 133.166, 145.982 129, 144.005 129 C 142.936 129, 140.458 129.900, 138.500 131 C 134.092 133.476, 132.194 133.517, 130.117 131.181 C 127.346 128.063, 125.221 127.870, 122.593 130.498 M 96.079 130.583 C 96.127 131.748, 96.364 131.985, 96.683 131.188 C 96.972 130.466, 96.936 129.603, 96.604 129.271 C 96.272 128.939, 96.036 129.529, 96.079 130.583 M 108.041 130.975 C 106.198 132.114, 105.997 136.066, 107.654 138.595 C 109.573 141.524, 112.082 141.672, 114.500 139 C 115.884 137.471, 115.979 136.996, 114.905 136.985 C 113.753 136.972, 113.740 136.817, 114.835 136.123 C 116.655 134.969, 116.703 134.552, 115.219 132.764 C 113.755 131, 109.654 129.977, 108.041 130.975" stroke="none" fill="black" fill-rule="evenodd"/>
</svg>