<svg xmlns="http://www.w3.org/2000/svg" width="256" height="256" viewBox="0 0 256 256" version="1.1">
	<path d="M 39.422 24.853 C 36.811 25.333, 34 27.958, 34 29.916 C 34 30.800, 35.558 33.768, 37.462 36.511 C 41.729 42.661, 42.840 45.087, 43.552 49.809 C 44.005 52.815, 43.634 54.039, 41.554 56.406 C 40.146 58.008, 39 60.538, 39 62.047 C 39 65.525, 41.516 66.244, 50.715 65.393 C 56.607 64.848, 57.828 65.032, 59.996 66.791 L 62.492 68.817 58.912 69.489 C 56.943 69.858, 54.063 71.172, 52.512 72.409 C 49.849 74.532, 49.699 75.069, 49.815 82.079 C 49.964 91.074, 50.862 97, 52.076 97 C 52.571 97, 53.256 98.750, 53.598 100.890 C 54.276 105.131, 58.241 108.159, 60.352 106.048 C 62.490 103.910, 64.516 105.011, 65.757 108.984 C 66.440 111.176, 67 113.651, 67 114.484 C 67 116.438, 63.617 116.448, 62 114.500 C 61.282 113.634, 59.100 113, 56.842 113 C 52.888 113, 49.555 114.617, 45.010 118.741 C 43.105 120.469, 42.902 121, 44.144 121 C 45.036 121, 45.986 121.839, 46.254 122.864 C 46.568 124.064, 48.037 124.972, 50.371 125.410 C 52.367 125.784, 54 126.547, 54 127.104 C 54 127.662, 54.450 127.840, 55 127.500 C 55.550 127.160, 56 127.359, 56 127.941 C 56 128.523, 56.675 129, 57.500 129 C 58.333 129, 59 128.111, 59 127 C 59 125.900, 59.645 125, 60.433 125 C 61.221 125, 62.151 124.100, 62.500 123 C 64.070 118.055, 68.505 123.466, 67.121 128.639 C 66.333 131.588, 63.469 132.396, 59.750 130.719 C 58.616 130.208, 58 130.353, 58 131.131 C 58 131.793, 57.716 132.049, 57.369 131.702 C 57.021 131.355, 56.009 131.451, 55.119 131.917 C 52.617 133.226, 49.012 131.402, 48.921 128.782 C 48.878 127.527, 48.615 127.063, 48.338 127.750 C 48.039 128.489, 46.001 129, 43.351 129 C 36.782 129, 35 130.288, 35 135.035 C 35 141.138, 37.726 143.303, 44.366 142.473 C 48.492 141.958, 49.883 142.154, 50.915 143.398 C 52.019 144.728, 51.939 145.086, 50.404 145.675 C 47.816 146.668, 44.069 151.167, 44.032 153.327 C 43.983 156.129, 49.411 161, 52.581 161 C 54.626 161, 57.016 159.297, 62.050 154.250 C 70.995 145.284, 77.955 141.186, 86.500 139.856 C 95.767 138.413, 108.656 139.101, 112.904 141.266 C 117.612 143.665, 129.059 143.545, 138.243 141 C 142.212 139.900, 146.866 139, 148.585 139 C 152.693 139, 157.454 133.717, 155.924 130.857 C 155.377 129.836, 153.910 129, 152.665 129 C 151.419 129, 149.905 128.505, 149.300 127.900 C 148.695 127.295, 146.693 126.864, 144.850 126.942 C 143.007 127.020, 138.050 127.178, 133.833 127.292 C 129.616 127.406, 125.829 127.838, 125.417 128.250 C 123.280 130.387, 119.753 126.847, 120.903 123.721 C 121.619 121.773, 122.690 121.416, 129.610 120.816 C 141.582 119.777, 144.410 119.269, 144.805 118.084 C 145.004 117.488, 145.917 116.993, 146.833 116.985 C 149.684 116.959, 146.152 115.234, 140.509 113.897 C 137.754 113.244, 135.230 112.295, 134.900 111.788 C 133.944 110.320, 130.593 110.189, 129.500 111.577 C 128.069 113.393, 118 113.898, 118 112.153 C 118 109.214, 124.415 105, 128.889 105 C 135.761 105, 140.356 95.177, 141.519 78 C 141.863 72.917, 142.423 71.118, 144.090 69.750 C 145.262 68.787, 146.734 67.985, 147.361 67.967 C 149.197 67.913, 152.729 64.544, 154.780 60.889 C 156.227 58.311, 156.851 54.463, 157.386 44.816 L 158.089 32.132 155.295 29.047 C 151.480 24.837, 148.758 24.309, 132 24.535 C 100.073 24.964, 93.854 28.105, 102.500 39.432 C 105.257 43.044, 106 44.938, 106 48.354 C 106 53.189, 104.368 55.278, 99.179 57.087 C 97.078 57.820, 95.819 59.020, 95.494 60.600 C 95.222 61.920, 94.786 64.046, 94.525 65.325 C 94.194 66.946, 92.952 67.986, 90.421 68.763 L 86.791 69.877 87.480 66.688 C 88.568 61.651, 87.923 29.849, 86.692 27.879 C 84.692 24.676, 81.209 23.810, 75.485 25.091 C 72.297 25.804, 68.336 25.967, 65.372 25.507 C 60.196 24.703, 42.648 24.261, 39.422 24.853 M 63 35.683 C 54.044 37.153, 52.333 41.451, 58.535 46.896 C 60.479 48.603, 62.511 50, 63.049 50 C 64.861 50, 67.808 56.112, 67.362 58.944 C 67.118 60.491, 67.502 62.171, 68.239 62.783 C 69.243 63.617, 70.108 63.056, 71.939 60.385 C 74.026 57.339, 74.338 55.694, 74.414 47.369 C 74.523 35.251, 73.295 33.993, 63 35.683 M 131 35.540 C 130.175 35.723, 127.400 36.148, 124.833 36.485 C 121.411 36.934, 119.744 37.742, 118.583 39.514 C 117.079 41.809, 117.145 42.095, 119.897 45.230 C 121.721 47.308, 124.437 48.969, 127.227 49.716 C 130.622 50.624, 132.320 51.854, 134.480 54.970 C 136.718 58.201, 137.732 58.909, 139.400 58.407 C 142.768 57.393, 143.259 56.459, 143.923 49.803 C 144.625 42.756, 143.501 37.436, 141.097 36.425 C 139.167 35.613, 133.077 35.080, 131 35.540 M 121.233 62.498 C 117.942 63.928, 117.699 64, 116.148 64 C 115.680 64, 113.884 65.350, 112.157 67 C 108.567 70.431, 107.915 70.172, 120.376 70.266 C 126.494 70.312, 127.456 70.053, 129.103 67.909 C 131.630 64.622, 131.462 63.126, 128.435 61.975 C 125.251 60.765, 125.215 60.767, 121.233 62.498 M 77 74.500 C 77 75.325, 76.546 76, 75.991 76 C 75.436 76, 73.629 77.292, 71.976 78.872 L 68.971 81.744 71.745 82.299 C 73.270 82.604, 75.865 84.018, 77.509 85.441 C 79.154 86.865, 81.172 87.905, 81.992 87.752 C 84.320 87.321, 85.739 82.959, 85.247 77.750 L 84.799 73 80.899 73 C 78.100 73, 77 73.423, 77 74.500 M 106.615 79.465 C 104.471 82.737, 104.578 84, 107 84 C 108.100 84, 109 84.482, 109 85.071 C 109 85.661, 109.711 85.432, 110.581 84.562 C 111.450 83.693, 112.524 83.206, 112.967 83.480 C 114.479 84.414, 115.794 81.563, 114.917 79.250 C 113.699 76.035, 108.779 76.163, 106.615 79.465 M 121.813 81.683 C 122.534 81.972, 123.397 81.936, 123.729 81.604 C 124.061 81.272, 123.471 81.036, 122.417 81.079 C 121.252 81.127, 121.015 81.364, 121.813 81.683 M 77 91 C 77 92.100, 76.550 93, 76 93 C 73.535 93, 75.257 96.700, 78.381 98.116 C 82.786 100.112, 84.491 98.833, 84.867 93.250 L 85.153 89 81.076 89 C 77.667 89, 77 89.327, 77 91 M 64.215 94.552 C 62.959 96.491, 62.198 98.511, 62.524 99.039 C 63.305 100.302, 66.712 100.275, 67.500 99 C 67.840 98.450, 68.991 98, 70.059 98 C 71.150 98, 72 97.318, 72 96.441 C 72 95.584, 72.450 95.160, 73 95.500 C 73.550 95.840, 74 95.599, 74 94.965 C 74 94.331, 73.100 93.577, 72 93.290 C 70.900 93.002, 70 92.369, 70 91.883 C 70 89.656, 66.273 91.375, 64.215 94.552 M 120.459 96.067 C 119.506 97.608, 120.145 97.891, 123.238 97.297 C 124.744 97.008, 125.730 96.373, 125.429 95.886 C 124.667 94.652, 121.256 94.776, 120.459 96.067 M 106.762 97.707 C 108.006 97.946, 109.806 97.937, 110.762 97.687 C 111.718 97.437, 110.700 97.241, 108.500 97.252 C 106.300 97.263, 105.518 97.468, 106.762 97.707 M 88.457 108.069 C 88.141 108.581, 87.057 109, 86.048 109 C 84.106 109, 82.392 111.907, 83.717 112.952 C 84.148 113.292, 87.763 113.405, 91.750 113.203 C 98.018 112.886, 99 112.584, 99 110.977 C 99 109.955, 98.571 108.853, 98.047 108.529 C 96.328 107.467, 89.045 107.117, 88.457 108.069 M 87.954 124.087 C 84.954 125.066, 83.063 125.897, 83.750 125.934 C 84.438 125.970, 84.888 126.560, 84.750 127.243 C 84.572 128.127, 86.742 128.584, 92.250 128.821 C 97.944 129.067, 100 128.825, 100 127.911 C 100 127.227, 100.284 126.951, 100.631 127.298 C 100.979 127.645, 102.148 127.456, 103.229 126.877 C 105.156 125.846, 105.151 125.794, 102.980 124.273 C 99.851 122.082, 94.307 122.013, 87.954 124.087 M 126 147 C 126 148.100, 126.461 149, 127.025 149 C 127.588 149, 128.469 150.103, 128.982 151.452 C 131.862 159.028, 148 158.150, 148 150.416 C 148 146.017, 145.639 145, 135.429 145 C 126.667 145, 126 145.141, 126 147" stroke="none" fill="black" fill-rule="evenodd"/>
</svg>