<svg xmlns="http://www.w3.org/2000/svg" width="256" height="256" viewBox="0 0 256 256" version="1.1">
	<path d="M 118 21.022 C 115.525 21.446, 99.100 22.304, 81.500 22.929 C 63.900 23.554, 47.639 24.295, 45.365 24.576 C 38.723 25.398, 37.492 27.579, 37.546 38.425 C 37.587 46.611, 37.895 48.146, 40.338 52.314 C 41.849 54.891, 43.632 57, 44.302 57 C 44.971 57, 46.085 57.907, 46.777 59.015 C 48.528 61.818, 46.237 66.032, 39.273 72.817 C 34.570 77.399, 33.907 78.503, 34.469 80.817 C 35.413 84.700, 38.865 87.157, 42.500 86.534 C 44.150 86.251, 46.529 85.850, 47.787 85.643 C 49.268 85.399, 50.585 85.997, 51.525 87.340 C 52.808 89.171, 54.020 89.415, 61.932 89.434 C 69.832 89.453, 71.165 89.193, 73.258 87.228 C 76.267 84.400, 78.739 84.406, 81.763 87.247 C 83.769 89.132, 85.279 89.495, 91.114 89.497 C 98.525 89.500, 99.955 90.347, 99.985 94.750 C 99.993 95.987, 100.436 97, 100.968 97 C 101.500 97, 102.581 98.232, 103.370 99.737 C 104.667 102.213, 104.580 103.070, 102.455 108.715 C 100.819 113.062, 100.257 116.208, 100.603 119.079 C 100.876 121.347, 100.593 125.644, 99.973 128.629 C 99.163 132.533, 99.144 135.446, 99.908 139.005 C 101.408 146, 105.160 149.224, 115.833 152.687 C 123.210 155.081, 126.063 155.487, 135 155.415 C 145.199 155.332, 149.226 154.364, 156.949 150.139 C 159.403 148.797, 159.929 144.630, 157.952 142.190 C 155.837 139.577, 151.807 139.347, 146.560 141.539 C 143.578 142.785, 141.806 142.881, 137.255 142.039 C 134.163 141.468, 128.215 141, 124.039 141 C 114.317 141, 112 139.592, 112 133.684 C 112 127.221, 112.970 126.908, 137.451 125.459 C 142.924 125.135, 147.761 124.648, 148.201 124.376 C 149.812 123.380, 148.936 119.288, 146.651 117.142 C 144.671 115.282, 142.746 114.841, 134.401 114.341 C 128.506 113.988, 122.953 114.179, 120.675 114.814 C 118.572 115.400, 116.250 115.649, 115.516 115.368 C 113.352 114.538, 112.735 110.053, 114.428 107.469 C 116.156 104.833, 118.989 104.325, 138.670 103.122 C 150.732 102.385, 154 101.373, 154 98.378 C 154 97.620, 154.443 97, 154.984 97 C 155.525 97, 155.227 95.447, 154.322 93.548 C 152.512 89.754, 150.661 89.103, 144.500 90.096 C 138.315 91.093, 114.043 90.443, 112.848 89.248 C 112.234 88.634, 112.089 86.873, 112.499 85.006 C 113.409 80.863, 116.901 79.415, 128 78.581 C 147.437 77.121, 147.695 77.067, 147.559 74.536 C 147.492 73.268, 146.882 71.563, 146.205 70.747 C 143.982 68.068, 122.777 63.934, 121.538 65.938 C 120.866 67.026, 116.104 66.977, 115.423 65.875 C 115.125 65.394, 115.921 64.997, 117.191 64.994 C 119.309 64.988, 119.252 64.859, 116.500 63.431 C 114.850 62.575, 113.089 61.470, 112.587 60.975 C 111.220 59.626, 116.800 57.789, 122 57.876 C 124.475 57.918, 128.975 57.293, 132 56.488 C 135.025 55.683, 138.850 54.997, 140.500 54.964 C 145.660 54.861, 150.364 51.887, 151.669 47.904 C 153.477 42.387, 154.276 31.842, 153.118 28.802 C 151.451 24.431, 147.929 22.931, 135.793 21.422 C 129.582 20.650, 124.050 20.070, 123.500 20.134 C 122.950 20.198, 120.475 20.597, 118 21.022 M 118.250 34.989 C 116.463 36.079, 114.966 37.315, 114.923 37.735 C 114.881 38.156, 114.708 39.209, 114.538 40.076 C 114.104 42.285, 117.192 46.070, 119.539 46.205 C 124.411 46.485, 138 42.596, 138 40.921 C 138 40.505, 138.266 39.470, 138.591 38.623 C 138.987 37.591, 138.078 36.408, 135.841 35.045 C 131.335 32.297, 122.709 32.270, 118.250 34.989 M 87.015 34.891 C 85.648 35.272, 83.848 36.836, 83.015 38.367 C 81.548 41.063, 81.606 41.240, 84.843 43.975 C 91.952 49.984, 100.927 47.613, 102.593 39.287 C 103.138 36.561, 102.878 36.153, 99.949 35.132 C 96.416 33.901, 90.940 33.799, 87.015 34.891 M 53.268 36.212 C 50.664 37.469, 49.090 43.490, 50.894 45.294 C 52.357 46.757, 59.699 48.965, 63.168 48.985 C 67.614 49.010, 72.418 39.561, 69.463 36.605 C 67.584 34.727, 56.885 34.467, 53.268 36.212 M 66 59.260 C 63.727 60.476, 63.509 61.159, 63.597 66.799 C 63.688 72.666, 63.567 73, 61.347 73 C 60.056 73, 59 73.418, 59 73.929 C 59 74.439, 58.280 75.577, 57.401 76.456 C 54.852 79.005, 57.317 81, 63.015 81 C 66.616 81, 67.949 80.576, 68.450 79.269 C 68.816 78.317, 68.686 77.395, 68.163 77.221 C 67.640 77.047, 67.442 76.026, 67.723 74.952 C 68.072 73.618, 67.728 73, 66.638 73 C 63.415 73, 67.012 68.267, 71.554 66.533 C 80.245 63.213, 88 68.054, 88 76.797 C 88 80.697, 88.036 80.733, 92.489 81.343 C 98.645 82.187, 102.430 80.685, 101.586 77.732 C 99.084 68.970, 100.187 61.041, 103.919 60.970 C 105.140 60.946, 105.045 60.665, 103.500 59.733 C 100.478 57.911, 69.259 57.517, 66 59.260 M 51.500 95.260 C 49.850 95.969, 47.038 97.145, 45.250 97.873 C 43.462 98.600, 42 99.645, 42 100.193 C 42 100.742, 41.069 102.498, 39.932 104.096 C 38.794 105.693, 38.108 107, 38.407 107 C 38.706 107, 38.493 108.205, 37.933 109.677 C 36.808 112.634, 35.057 127.067, 34.304 139.588 C 33.852 147.111, 33.990 147.877, 36.292 150.554 L 38.767 153.431 40.880 149.965 C 42.042 148.059, 42.994 145.993, 42.996 145.372 C 43.006 142.573, 46.434 141.500, 55.407 141.487 C 61.029 141.478, 65.645 140.944, 67.500 140.085 C 71.840 138.077, 73.620 138.255, 75.940 140.931 C 78.390 143.755, 78.418 143.957, 76.563 145.390 C 75.773 146, 74.823 148.184, 74.453 150.242 C 73.859 153.548, 74.051 154.083, 76.103 154.842 C 79.506 156.101, 81.695 155.192, 85.054 151.126 C 88.555 146.888, 90.313 141.309, 90.136 135 C 90.067 132.525, 90.535 127.039, 91.176 122.808 C 91.991 117.429, 92.026 114.723, 91.293 113.808 C 90.717 113.089, 90.237 108.928, 90.227 104.563 C 90.207 95.659, 88.742 93.310, 84 94.581 C 82.625 94.950, 81.050 95.219, 80.500 95.180 C 65.501 94.120, 54.081 94.151, 51.500 95.260 M 59.749 108.413 C 54.052 109.946, 51 112.472, 51 115.655 C 51 118.554, 52.871 118.659, 57.226 116.004 C 61.115 113.633, 64.563 113.419, 65.362 115.500 C 65.678 116.325, 66.626 117, 67.469 117 C 68.311 117, 69 117.465, 69 118.032 C 69 118.600, 70.013 119.471, 71.250 119.969 C 72.487 120.466, 72.972 120.902, 72.327 120.937 C 71.491 120.982, 71.577 121.849, 72.625 123.950 C 73.589 125.883, 74.612 126.702, 75.591 126.327 C 76.414 126.011, 76.858 125.524, 76.578 125.245 C 76.299 124.966, 76.520 123.896, 77.070 122.869 C 77.764 121.573, 77.735 121, 76.976 121 C 76.374 121, 76.165 120.543, 76.510 119.984 C 79.479 115.181, 76.400 109.959, 69.500 108.093 C 64.836 106.832, 65.738 106.802, 59.749 108.413 M 49.912 122.750 C 49.470 131.550, 49.461 131.499, 51.500 131.530 C 54.533 131.575, 56.203 128.598, 55.436 124.513 C 54.901 121.660, 54.329 121, 52.389 121 C 50.814 121, 49.970 121.596, 49.912 122.750" stroke="none" fill="black" fill-rule="evenodd"/>
</svg>