<svg xmlns="http://www.w3.org/2000/svg" width="256" height="256" viewBox="0 0 256 256" version="1.1">
	<path d="M 56.447 25.721 C 55.466 27.218, 54.465 30.516, 54.221 33.050 C 53.661 38.884, 51.577 40.297, 43.792 40.121 C 34.621 39.914, 29 43.181, 29 48.719 C 29 50.979, 33.843 54, 37.466 54 C 38.928 54, 42.380 53.262, 45.137 52.360 C 49.671 50.877, 50.298 50.869, 51.704 52.276 C 55.126 55.697, 49.520 64, 43.788 64 C 36.247 64, 33.559 68.846, 33.805 82 C 33.902 87.225, 34.436 93.072, 34.991 94.993 C 35.546 96.915, 36 100.122, 36 102.121 C 36 104.120, 36.667 107.353, 37.483 109.305 C 38.938 112.788, 40.245 113.633, 45.710 114.624 C 50.037 115.408, 51.267 116.969, 50.633 120.873 C 50.324 122.779, 49.556 124.656, 48.927 125.045 C 48.298 125.434, 44.898 125.521, 41.373 125.238 C 34.212 124.663, 31 126.318, 31 130.582 C 31 135.795, 39.176 138.512, 46.689 135.796 C 51.624 134.011, 53.294 136.159, 54.049 145.260 C 55.690 165.052, 65 164.878, 65 145.055 C 65 137.620, 65.179 136.929, 67.495 135.411 C 70.005 133.767, 72.534 133.795, 87.034 135.627 C 90.725 136.094, 93.015 135.593, 99.343 132.937 L 107.118 129.673 109.295 131.851 C 111.113 133.668, 111.267 134.314, 110.230 135.764 C 109.546 136.719, 108.689 138.175, 108.325 139 C 107.961 139.825, 106.388 141.978, 104.831 143.785 C 101.791 147.312, 100.980 152.939, 103.250 154.755 C 105.646 156.672, 109.167 157.173, 112 156 C 114.981 154.765, 120 145.937, 120 141.927 C 120 140.817, 121.105 138.805, 122.455 137.455 C 124.480 135.429, 125.894 135, 130.550 135 C 134.654 135, 136.984 134.435, 139.101 132.928 C 142.383 130.591, 144.774 130.687, 146.369 133.220 C 147.185 134.516, 146.861 137.293, 145.056 144.485 C 142.701 153.866, 142.693 154.056, 144.580 155.497 C 148.029 158.131, 156.431 154.876, 157.475 150.500 C 158.289 147.086, 158.914 136.994, 159.053 125 C 159.126 118.675, 159.581 109.962, 160.062 105.637 C 160.637 100.474, 160.555 95.312, 159.824 90.605 C 158.916 84.767, 159.016 81.306, 160.362 71.968 C 161.270 65.660, 162.011 59.558, 162.007 58.406 C 161.998 55.775, 154.789 48.492, 149.500 45.770 C 147.300 44.638, 144.150 42.703, 142.500 41.470 C 140.850 40.237, 137.599 38.274, 135.276 37.107 C 132.418 35.672, 129.944 33.254, 127.624 29.626 C 122.044 20.904, 116.120 21.324, 111.500 30.769 C 109.189 35.494, 95.074 50.524, 92.046 51.485 C 90.921 51.843, 90 52.537, 90 53.028 C 90 56.476, 79.150 60.490, 71.594 59.837 C 68.049 59.531, 67.563 59.136, 66.328 55.552 C 65.160 52.163, 65.173 51.398, 66.420 50.152 C 67.678 48.893, 68.714 48.885, 74.186 50.088 C 81.348 51.662, 84.478 51.598, 87.845 49.807 C 89.830 48.752, 90.104 48.017, 89.629 45.030 C 89.296 42.938, 87.965 40.542, 86.360 39.149 C 83.866 36.982, 83.088 36.851, 76.461 37.471 C 68.367 38.230, 67.950 37.916, 67.448 30.680 C 66.934 23.279, 60.073 20.187, 56.447 25.721 M 109.534 51.645 C 105.852 55.850, 102.414 60.411, 101.893 61.780 C 100.451 65.574, 102.962 68.651, 108.211 69.525 C 110.570 69.918, 114.224 71.113, 116.331 72.181 C 119.572 73.824, 121.346 74.020, 127.852 73.453 C 133.808 72.933, 136.403 73.142, 139.361 74.378 C 142.099 75.522, 143.709 75.691, 145.047 74.975 C 147.809 73.497, 148.478 67.954, 146.582 62.248 C 145.277 58.319, 144.073 56.813, 140.359 54.465 C 137.827 52.865, 135.108 50.569, 134.319 49.363 C 132.229 46.174, 126.916 44, 121.213 44 C 116.252 44, 116.197 44.036, 109.534 51.645 M 83.996 70.505 C 82.326 72.517, 80.862 87.507, 82.034 90.589 C 83.146 93.513, 85.341 93.630, 90.425 91.038 C 95.216 88.596, 97.029 89.399, 101.058 95.752 C 103.792 100.064, 103.875 100.481, 102.336 102.181 C 100.092 104.661, 96.953 104.466, 90.745 101.462 L 85.500 98.923 83.255 101.712 C 82.020 103.245, 81.008 104.978, 81.005 105.563 C 81.002 106.148, 79.641 107.928, 77.980 109.519 C 75.824 111.585, 73.608 112.568, 70.230 112.956 C 65.801 113.465, 65.481 113.699, 65.196 116.625 C 64.749 121.219, 67.250 123.302, 72.208 122.465 C 74.372 122.099, 77.686 121.860, 79.572 121.933 C 81.457 122.007, 83.563 122.088, 84.250 122.115 C 85.698 122.170, 102.654 119.161, 105.248 118.388 C 107.765 117.637, 108.347 113.989, 106.991 107.459 C 105.966 102.521, 106.038 101.241, 107.527 97.941 C 108.786 95.148, 109.064 92.909, 108.564 89.576 C 107.642 83.430, 105.890 81.834, 100.934 82.627 C 96.262 83.374, 94.002 81.908, 93.996 78.128 C 93.990 74.068, 90.459 69, 87.637 69 C 86.321 69, 84.683 69.677, 83.996 70.505 M 54.508 72.176 C 48.509 73.319, 46 75.358, 46 79.088 C 46 82.620, 48.542 83.517, 53.956 81.895 C 57.150 80.938, 58.881 80.947, 62.192 81.939 C 65.937 83.061, 66.523 83.005, 67.692 81.407 C 69.330 79.167, 69.393 73.793, 67.800 72.200 C 66.419 70.819, 61.668 70.810, 54.508 72.176 M 138.827 85.734 C 136.997 87.238, 135.226 88.850, 134.890 89.316 C 134.555 89.783, 133.037 89.012, 131.518 87.605 C 128.700 84.993, 122.984 83.274, 121.065 84.460 C 120.479 84.822, 120 86.172, 120 87.461 C 120 89.162, 120.817 90.089, 122.978 90.842 C 124.616 91.413, 126.190 91.502, 126.476 91.040 C 127.200 89.868, 134.385 90.656, 134.818 91.955 C 135.013 92.539, 136.721 94.870, 138.613 97.136 C 141.148 100.169, 141.877 101.812, 141.382 103.373 C 139.761 108.479, 133.425 109.456, 127.595 105.500 C 125.569 104.125, 123.743 103, 123.538 103 C 122.822 103, 120.135 111.533, 119.601 115.500 C 118.708 122.146, 121.800 124.163, 128.018 120.991 C 132.933 118.483, 134.334 118.499, 139.759 121.125 C 143.060 122.723, 144.434 122.966, 145.296 122.104 C 146.005 121.395, 146.723 114.401, 147.179 103.762 C 147.827 88.667, 147.719 86.347, 146.303 84.783 C 144.108 82.356, 142.722 82.533, 138.827 85.734 M 61.516 92.188 C 58.145 93.965, 56.938 94.130, 53.680 93.260 C 48.418 91.856, 46.328 92.610, 45.616 96.170 C 44.462 101.939, 48.771 105.611, 54.491 103.735 C 56.146 103.192, 59.616 102.815, 62.203 102.897 C 65.815 103.011, 67.129 102.627, 67.873 101.237 C 68.871 99.372, 68.645 92.853, 67.519 91.031 C 66.664 89.647, 66.150 89.746, 61.516 92.188" stroke="none" fill="black" fill-rule="evenodd"/>
</svg>