<svg xmlns="http://www.w3.org/2000/svg" width="256" height="256" viewBox="0 0 256 256" version="1.1">
	<path d="M 56.782 26.261 C 52.411 30.632, 50.495 31.825, 46.928 32.394 C 44.493 32.783, 41.452 33.787, 40.172 34.625 C 38.174 35.932, 37.923 36.724, 38.409 40.192 C 38.807 43.038, 38.466 45.095, 37.259 47.138 C 35.856 49.514, 35.767 50.398, 36.772 52.007 C 38.495 54.766, 38.270 57.098, 36 60 C 34.013 62.540, 33.623 66.483, 34.913 71 C 35.398 72.697, 34.884 75.196, 33.314 78.779 C 32.041 81.682, 31 84.679, 31 85.439 C 31 86.199, 32.800 89.098, 35 91.881 C 37.200 94.664, 39 97.844, 39 98.948 C 39 101.609, 42.433 103.689, 48.218 104.531 C 50.813 104.908, 53.413 105.792, 53.996 106.495 C 55.025 107.735, 55.473 117.888, 55.155 132.760 C 54.987 140.617, 53.321 143.414, 48.711 143.579 C 40.801 143.861, 39.988 144.089, 38.440 146.451 C 36.692 149.119, 37.211 152.483, 39.507 153.364 C 40.295 153.667, 44.996 153.185, 49.955 152.294 C 57.618 150.917, 59.776 150.867, 64.335 151.960 C 69.105 153.105, 87.902 153.434, 121.500 152.961 C 124.800 152.914, 129.300 152.962, 131.500 153.068 C 136.303 153.297, 154.564 151.388, 155.990 150.506 C 156.546 150.163, 157 148.820, 157 147.523 C 157 144.280, 151.507 141, 146.075 141 C 140.376 141, 132.947 139.024, 132.299 137.337 C 132.007 136.576, 132.193 134.277, 132.711 132.227 C 133.374 129.609, 133.289 127.607, 132.425 125.501 C 131.585 123.451, 131.508 121.919, 132.181 120.662 C 133.203 118.752, 132.828 112.149, 131.583 110.135 C 130.370 108.171, 132.043 104.936, 134.836 103.843 C 136.301 103.270, 139.975 102.831, 143 102.868 C 149.691 102.950, 152.551 101.231, 151.390 97.823 C 150.497 95.203, 150.303 93.701, 150.125 88.017 C 150.008 84.295, 149.679 83.871, 145.104 81.552 C 140.902 79.423, 136 74.052, 136 71.577 C 136 71.199, 138.457 69.804, 141.459 68.476 C 146.279 66.344, 147.173 65.469, 149.094 61.003 C 150.291 58.220, 152.585 55.008, 154.191 53.864 C 158.635 50.699, 157.778 47.175, 151.796 44.016 C 148.373 42.208, 146.603 40.447, 145.296 37.548 C 144.308 35.357, 143.444 33.213, 143.375 32.782 C 143.306 32.352, 143.194 31.647, 143.125 31.216 C 143.056 30.784, 141.688 29.656, 140.083 28.708 C 137.736 27.321, 134.956 27.015, 125.833 27.135 C 111.255 27.328, 109.219 28.219, 105.478 36.046 C 103.907 39.334, 101.131 43.379, 99.311 45.036 C 95.427 48.570, 95.383 48.870, 98 54 C 99.100 56.156, 100 59.048, 100 60.427 C 100 61.981, 101.714 64.863, 104.511 68.012 C 109.561 73.698, 109.496 74.959, 103.933 79.166 C 98.401 83.349, 95.881 85.998, 96.492 86.988 C 97.573 88.736, 95.002 91.971, 91.214 93.630 C 88.281 94.914, 84.433 95.226, 72.922 95.112 C 62.346 95.007, 57.202 95.370, 54.183 96.435 C 46.140 99.273, 39.822 94.130, 45.428 89.309 C 48.208 86.917, 49.050 86.809, 67.500 86.472 C 76.497 86.308, 88.759 84.650, 89.926 83.440 C 90.688 82.650, 91.584 61.737, 91.059 57 C 90.968 56.175, 91.193 53.649, 91.560 51.388 C 92.055 48.334, 91.787 46.605, 90.521 44.672 C 88.891 42.185, 88.908 41.938, 90.907 39.130 C 95.699 32.401, 92.510 28.312, 83.316 29.393 C 77.387 30.090, 73.772 28.798, 69.782 24.556 C 68.527 23.221, 66.309 21.838, 64.854 21.482 C 62.595 20.930, 61.415 21.628, 56.782 26.261 M 70.048 38.442 C 68.984 39.724, 68.999 40.003, 70.128 40.015 C 71.225 40.028, 71.207 40.216, 70.034 40.958 C 67.956 42.272, 73.265 44.204, 76.829 43.431 C 78.298 43.112, 80.063 42.810, 80.750 42.759 C 82.427 42.635, 82.363 42.454, 79.702 39.795 C 76.890 36.986, 71.844 36.279, 70.048 38.442 M 118.309 40.947 C 114.731 42.571, 113.955 43.483, 113.009 47.175 C 112.400 49.554, 111.725 52.030, 111.510 52.677 C 110.691 55.140, 114.212 56.452, 121.233 56.302 C 129.371 56.128, 133.640 54.646, 134.663 51.642 C 136.140 47.304, 134.513 42.317, 131.035 40.518 C 127.147 38.507, 123.404 38.633, 118.309 40.947 M 49 42 C 49 42.550, 49.337 43.034, 49.750 43.077 C 50.163 43.119, 51.256 43.299, 52.181 43.478 C 53.105 43.657, 54.104 43.172, 54.399 42.401 C 54.786 41.393, 54.104 41, 51.969 41 C 50.336 41, 49 41.450, 49 42 M 52 52.833 C 51.450 53.017, 51 54.071, 51 55.177 C 51 56.980, 51.437 57.117, 55.250 56.516 C 59.177 55.896, 61.800 55.867, 72.400 56.330 C 75.428 56.462, 76.359 56.108, 76.562 54.750 C 76.739 53.565, 76.125 52.968, 74.662 52.900 C 68.031 52.593, 52.855 52.548, 52 52.833 M 70.597 68.731 C 67.614 69.174, 65 71.096, 65 72.848 C 65 73.392, 67.119 74.290, 69.709 74.842 C 76.897 76.375, 80.448 73.525, 76.171 69.655 C 75.165 68.745, 74.153 68.067, 73.921 68.150 C 73.690 68.232, 72.194 68.494, 70.597 68.731 M 51.308 70.260 C 48.727 71.430, 47.469 74.054, 49.028 75.017 C 50.903 76.176, 58.891 73.880, 58.305 72.352 C 58.019 71.608, 56.972 71, 55.976 71 C 54.981 71, 54.017 70.610, 53.833 70.133 C 53.650 69.656, 52.514 69.713, 51.308 70.260 M 116.331 85.937 C 111.245 88.246, 109.102 91.463, 111.737 92.831 C 114.454 94.242, 130.269 94.290, 133.326 92.897 C 136.362 91.514, 136.635 90.493, 134.534 88.391 C 133.044 86.901, 124.736 84.012, 122 84.033 C 121.175 84.039, 118.624 84.896, 116.331 85.937 M 74.500 104.674 C 67.832 105.506, 66.858 105.987, 67.185 108.285 C 67.474 110.317, 67.995 110.483, 73.500 110.300 C 82.092 110.013, 86 109.134, 86 107.490 C 86 104.606, 82.301 103.700, 74.500 104.674 M 103.210 105.460 L 100.920 106.724 103.811 107.922 C 106.492 109.032, 109.978 109.434, 114.250 109.126 C 116.446 108.968, 116.578 105.436, 114.418 104.607 C 111.859 103.625, 105.683 104.095, 103.210 105.460 M 71.323 120.810 C 70.125 120.981, 68.579 121.802, 67.887 122.636 C 65.739 125.225, 68.756 126.041, 77.500 125.236 C 85.738 124.478, 95.764 124.405, 109.188 125.004 C 117.238 125.363, 121.344 123.933, 118.983 121.592 C 117.980 120.598, 77.482 119.933, 71.323 120.810 M 104.512 136.821 C 104.304 137.029, 96.348 137.267, 86.831 137.349 C 70.848 137.489, 69.500 137.641, 69.170 139.352 C 68.843 141.054, 69.372 141.158, 75.657 140.627 C 79.421 140.309, 83.785 139.752, 85.356 139.388 C 87.214 138.958, 88.487 139.170, 88.998 139.997 C 90.185 141.917, 116.060 142.001, 118.377 140.092 C 119.336 139.301, 119.706 138.306, 119.221 137.821 C 118.372 136.972, 105.253 136.081, 104.512 136.821" stroke="none" fill="black" fill-rule="evenodd"/>
</svg>