<svg xmlns="http://www.w3.org/2000/svg" width="256" height="256" viewBox="0 0 256 256" version="1.1">
	<path d="M 115.414 34.765 C 113.290 36.203, 110.987 48.824, 111.042 58.730 C 111.168 81.541, 110.399 85.440, 106.003 84.291 C 103.586 83.658, 101 75.265, 101 68.051 C 101 63.925, 100.515 62.424, 98.545 60.455 C 95.295 57.204, 90.527 56.865, 86.285 59.582 C 81.882 62.402, 81.792 64.230, 85.747 70.553 C 88.514 74.976, 89.594 77.999, 90.179 82.951 C 91.023 90.108, 93.497 93.438, 98.797 94.556 C 100.284 94.869, 102.439 95.312, 103.587 95.541 C 106.815 96.184, 107.895 99.713, 106.491 105.035 C 105.830 107.542, 104.777 110.549, 104.151 111.718 C 103.525 112.887, 101.894 116.947, 100.526 120.740 C 97.567 128.943, 92.128 138.378, 87.353 143.590 C 84.545 146.657, 83.957 148.026, 84.200 150.930 C 84.477 154.231, 84.768 154.523, 88.051 154.798 C 90.879 155.036, 92.202 154.496, 94.551 152.142 C 100.028 146.655, 102.703 143.292, 104.099 140.139 C 104.863 138.413, 105.828 137, 106.244 137 C 106.660 137, 107 136.166, 107 135.146 C 107 134.126, 108.058 132.151, 109.351 130.756 C 110.644 129.360, 112.705 126.595, 113.932 124.610 C 115.322 122.361, 116.937 121, 118.215 121 C 120.413 121, 127.998 127.723, 127.999 129.673 C 128 130.319, 129.125 132.184, 130.500 133.818 C 131.875 135.452, 133 137.987, 133 139.451 C 133 144.099, 144.378 153.025, 150.230 152.968 C 153.961 152.932, 157 151.018, 157 148.704 C 157 146.856, 149.206 138, 147.580 138 C 145.609 138, 136.073 128.558, 135.722 126.260 C 135.535 125.037, 134.461 123.015, 133.335 121.768 C 132.210 120.521, 130.470 118.070, 129.471 116.321 C 128.471 114.573, 126.786 112.916, 125.726 112.639 C 124.666 112.361, 124.046 111.735, 124.348 111.246 C 124.650 110.757, 124.212 109.039, 123.373 107.428 C 122.354 105.472, 122.071 103.339, 122.519 101 C 122.887 99.075, 123.145 95.025, 123.091 92 C 122.860 79.023, 122.894 74.589, 123.351 58.109 C 123.756 43.523, 123.575 40.176, 122.231 37.359 C 120.658 34.059, 117.970 33.036, 115.414 34.765 M 54.500 37.940 C 43.858 38.374, 39.728 38.932, 37.280 40.266 C 32.041 43.121, 31.527 45.160, 34.376 51.771 C 35.733 54.922, 37.143 60.650, 37.507 64.500 C 38.915 79.381, 37.480 121.397, 35.339 127.954 C 33.697 132.986, 34.201 136.504, 36.762 137.869 C 37.818 138.432, 43.407 138.449, 51 137.912 C 62.173 137.123, 63.633 137.207, 64.750 138.706 C 65.438 139.628, 66 141.116, 66 142.013 C 66 145.551, 69.323 153.109, 71.702 154.980 C 76.794 158.985, 80.359 152.760, 77.996 143.986 C 77.023 140.370, 76.500 103.521, 77.160 85 C 77.229 83.075, 76.956 79.250, 76.554 76.500 C 75.970 72.505, 76.233 70.596, 77.863 67.001 C 79.153 64.156, 79.553 62.153, 78.951 61.551 C 77.301 59.901, 77.917 52.802, 80.102 48.290 C 83.730 40.795, 80.846 36.750, 72.185 37.185 C 70.158 37.287, 62.200 37.627, 54.500 37.940 M 56.282 49.326 C 49.539 51.786, 47.610 56.635, 51.230 62.025 C 54.703 67.196, 58.782 67.301, 62.882 62.327 C 66.371 58.094, 66.929 53.771, 64.443 50.223 C 62.720 47.762, 61.066 47.581, 56.282 49.326 M 145.500 55.033 C 136.545 57.165, 134.628 59.949, 133.505 72.461 C 133.111 76.840, 132.408 81.428, 131.940 82.657 C 131.333 84.253, 131.577 85.490, 132.796 86.990 L 134.500 89.089 137.917 86.565 C 141.832 83.673, 144.691 79.683, 145.505 75.978 C 145.814 74.570, 147.852 71.523, 150.034 69.207 C 153.950 65.049, 155.218 60.370, 153.235 57.400 C 151.861 55.343, 148.509 54.317, 145.500 55.033 M 54.225 78.004 C 49.050 81.160, 47.449 88.101, 50.526 94.050 C 51.779 96.474, 52.683 97, 55.591 97 C 60.210 97, 62.623 95.630, 64.543 91.917 C 67.533 86.135, 64.160 75.993, 59.250 76.004 C 58.288 76.006, 56.026 76.906, 54.225 78.004 M 54.210 106.129 C 50.138 107.303, 49 110.012, 49 118.530 C 49 125.621, 50.119 127, 55.869 127 C 63.583 127, 67.694 122.079, 66.607 114.146 C 65.429 105.556, 62.582 103.715, 54.210 106.129" stroke="none" fill="black" fill-rule="evenodd"/>
</svg>