<svg xmlns="http://www.w3.org/2000/svg" width="256" height="256" viewBox="0 0 256 256" version="1.1">
	<path d="M 80.114 25.879 C 77.707 27.730, 77.658 28, 77.981 37.823 C 78.059 40.201, 77.593 42.785, 76.945 43.566 C 75.247 45.612, 69.813 46.794, 59.203 47.426 C 54.090 47.731, 49.058 48.434, 48.021 48.989 C 43.738 51.281, 44.930 56.942, 50.458 60.565 C 53.529 62.577, 58.262 62.144, 67.847 58.974 C 75.022 56.601, 75.226 56.588, 76.581 58.442 C 77.491 59.686, 77.780 61.747, 77.422 64.420 C 75.896 75.788, 74.887 76.440, 59.130 76.237 C 52.734 76.155, 45.426 75.810, 42.892 75.470 C 38.963 74.943, 37.877 75.202, 35.521 77.228 C 33.043 79.360, 32.830 80.033, 33.457 83.745 C 33.842 86.022, 34.840 88.453, 35.676 89.146 C 37.566 90.715, 55.296 90.447, 58.366 88.804 C 62.304 86.696, 66.839 86.250, 72.166 87.445 C 78.662 88.903, 79.582 91.305, 75.306 95.645 C 71.679 99.326, 68.759 100.863, 62 102.644 C 58.975 103.442, 54.025 105.273, 51 106.713 C 47.975 108.154, 44.069 109.868, 42.321 110.524 C 37.297 112.407, 36.151 114.008, 37.486 117.274 C 39.076 121.164, 41.692 122.693, 48.137 123.498 C 54.253 124.262, 57.874 123.034, 61.502 118.964 C 64.051 116.107, 69.390 113.829, 71.576 114.667 C 73.055 115.235, 73.181 116.402, 72.597 124.136 C 71.898 133.395, 73.649 142.792, 76.629 145.772 C 77.383 146.526, 78 147.528, 78 147.998 C 78 148.468, 80.588 150.123, 83.750 151.676 C 89.373 154.438, 89.864 154.499, 106 154.441 C 120.233 154.391, 124.149 154.008, 134.500 151.655 C 148.948 148.370, 151.747 147.331, 153.498 144.597 C 156.733 139.546, 154.763 132, 150.210 132 C 147.802 132, 142.430 134.393, 141.840 135.729 C 141.653 136.153, 139.250 137.583, 136.500 138.906 C 131.910 141.115, 129.881 141.361, 111.763 141.906 C 91.370 142.520, 86.679 142.167, 84.508 139.854 C 83.799 139.099, 83.003 134.813, 82.707 130.162 C 82.233 122.699, 82.391 121.609, 84.215 119.785 C 86.047 117.953, 87.018 117.816, 93.809 118.432 C 98.115 118.822, 104.404 118.645, 108.432 118.019 C 112.320 117.415, 118.347 116.472, 121.826 115.922 C 129.298 114.741, 132 113.282, 132 110.428 C 132 105.147, 113.095 102.137, 97.953 105.009 C 95.026 105.564, 91.815 105.759, 90.816 105.442 C 88.613 104.742, 88.434 101.131, 90.468 98.441 C 91.276 97.374, 91.951 95.743, 91.968 94.818 C 92.001 93.085, 96.913 89, 98.963 89 C 99.598 89, 101.901 87.566, 104.081 85.814 C 107.889 82.755, 109.797 82.268, 118.809 82.055 C 120.225 82.021, 120.855 81.574, 120.438 80.900 C 119.944 80.101, 120.319 80.100, 121.810 80.898 C 122.938 81.502, 126.255 82.138, 129.181 82.312 C 132.106 82.485, 135.400 83.092, 136.500 83.660 C 141.596 86.291, 148.042 87.304, 152.049 86.104 C 156.468 84.779, 157.040 82.911, 154.517 78.034 C 152.438 74.013, 147.731 72.763, 135.280 72.927 C 123.500 73.082, 120.889 72.030, 121.760 67.475 C 122.020 66.114, 122.605 65, 123.059 65 C 123.513 65, 123.721 64.146, 123.520 63.102 C 123.083 60.832, 125.484 58.498, 133.437 53.460 C 136.703 51.391, 140.381 48.613, 141.612 47.285 C 143.610 45.129, 143.716 44.554, 142.601 41.903 C 141.366 38.965, 139.108 36.915, 135.777 35.708 C 134.625 35.291, 132.842 36.226, 130.400 38.530 C 126.038 42.644, 121.664 44.036, 116.225 43.041 C 114.021 42.638, 107.483 42.508, 101.697 42.753 C 91.604 43.180, 91.128 43.107, 89.978 40.959 C 89.211 39.527, 89.018 36.921, 89.442 33.729 C 90.014 29.418, 89.801 28.417, 87.877 26.370 C 85.218 23.538, 83.314 23.418, 80.114 25.879 M 89.655 57.829 C 87.758 59.924, 87.366 68.946, 89.035 72.066 C 90.550 74.897, 92.730 74.457, 97.897 70.276 C 107.396 62.592, 110.218 58.065, 106.418 56.607 C 105.548 56.273, 101.793 56, 98.073 56 C 92.791 56, 90.948 56.400, 89.655 57.829 M 77.525 110.960 C 76.677 112.332, 77.428 113.362, 78.905 112.854 C 79.511 112.646, 79.588 111.940, 79.093 111.143 C 78.468 110.137, 78.063 110.090, 77.525 110.960" stroke="none" fill="black" fill-rule="evenodd"/>
</svg>