<svg xmlns="http://www.w3.org/2000/svg" width="256" height="256" viewBox="0 0 256 256" version="1.1">
	<path d="M 64.251 26.776 C 61.075 29.220, 59.879 34.377, 60.601 42.500 C 61.450 52.044, 60.101 53.294, 48.146 54.039 C 37.807 54.684, 31.995 57.094, 30.528 61.347 C 29.713 63.708, 29.876 64.436, 31.477 65.607 C 35.292 68.397, 39.933 68.992, 45.850 67.451 C 52.465 65.728, 57.480 66.420, 59.524 69.338 C 62.580 73.700, 60.469 86.573, 55.902 91.428 C 54.484 92.935, 52.853 93.323, 48.425 93.207 C 41.693 93.030, 39.572 93.993, 37.384 98.224 C 35.240 102.370, 35.466 109.518, 37.982 117.185 C 39.092 120.565, 40 125.520, 40 128.197 C 40 134.818, 42.141 139.505, 46.103 141.553 C 50.070 143.605, 63.938 143.061, 70.842 140.583 C 73.230 139.725, 77.580 138.829, 80.510 138.591 C 86.799 138.080, 90 136.594, 90 134.187 C 90 133.229, 90.630 131.546, 91.399 130.448 C 92.505 128.869, 92.738 124.473, 92.512 109.475 C 92.355 99.039, 91.901 89.709, 91.503 88.741 C 90.542 86.407, 86.614 85.513, 83.231 86.861 C 73.664 90.669, 71.954 89.031, 72.668 76.744 C 73.382 64.482, 74.322 63.555, 85.071 64.506 C 92.552 65.169, 92.756 65.126, 94.856 62.456 C 97.392 59.232, 97.542 56.950, 95.482 52.965 C 93.536 49.202, 90.073 48.353, 84.979 50.392 C 82.769 51.276, 79.420 52, 77.539 52 C 72.279 52, 71.412 49.704, 73.106 40.255 C 74.566 32.107, 73.722 27.650, 70.436 26.153 C 67.199 24.678, 66.943 24.703, 64.251 26.776 M 119.500 36.045 C 111.049 36.863, 109.609 37.422, 107.446 40.722 C 106.002 42.927, 105.712 47.432, 105.328 73.646 C 104.991 96.628, 104.516 105.291, 103.376 109.258 C 102.547 112.141, 100.958 118.515, 99.845 123.421 C 98.731 128.328, 97.323 133.503, 96.715 134.921 C 95.277 138.275, 95.159 140.210, 96.300 141.737 C 96.808 142.418, 97.008 143.543, 96.743 144.237 C 95.824 146.653, 97.848 150.001, 100.218 149.985 C 101.473 149.976, 102.962 149.639, 103.528 149.235 C 105.954 147.500, 109.201 136.693, 111.464 122.822 C 111.794 120.799, 113.287 117.847, 114.782 116.263 L 117.500 113.383 129.611 113.547 C 136.273 113.637, 142.291 114.062, 142.986 114.491 C 143.888 115.049, 144.108 117.241, 143.757 122.159 C 143.486 125.946, 143.654 129.286, 144.132 129.582 C 145.764 130.590, 145.003 135.700, 142.714 139.102 C 141.457 140.971, 138.931 143.211, 137.100 144.079 C 133.221 145.919, 131.634 148.271, 132.477 150.928 C 133.387 153.794, 135.441 154.101, 142.605 152.439 C 152.419 150.163, 152.702 149.896, 154.701 141 C 154.886 140.175, 155.229 125.550, 155.463 108.500 C 155.697 91.450, 156.313 74.800, 156.831 71.500 C 157.733 65.768, 157.484 44.961, 156.459 40.268 C 155.605 36.363, 151.586 35.255, 138.500 35.314 C 131.900 35.343, 123.350 35.673, 119.500 36.045 M 130.103 46.999 C 120.183 47.477, 119.613 47.626, 117.654 50.255 C 115.734 52.833, 115.685 53.413, 116.890 59.255 C 117.598 62.690, 118.642 66.063, 119.211 66.750 C 119.780 67.438, 122.230 68, 124.656 68 C 127.400 68, 130.966 68.962, 134.095 70.548 C 142.737 74.928, 144.699 72.414, 144.571 57.128 C 144.481 46.494, 144.230 46.319, 130.103 46.999 M 118.550 79.340 C 117.070 80.422, 116.547 82.731, 115.906 91.009 C 115.406 97.454, 115.475 102.019, 116.088 103.165 C 117.254 105.343, 120.533 105.482, 124 103.500 C 125.558 102.609, 129.429 102.058, 134.275 102.035 C 141.686 102.002, 142.095 101.880, 143.025 99.435 C 143.561 98.024, 144 94.944, 144 92.590 C 144 87.689, 141.801 85, 137.793 85 C 134.935 85, 128.287 82.474, 126 80.519 C 123.508 78.389, 120.501 77.913, 118.550 79.340 M 69.204 98.196 C 68.733 98.667, 66 99.331, 63.131 99.671 C 58.542 100.214, 57.441 100.829, 53.958 104.785 C 50.080 109.191, 50 109.437, 50 116.975 C 50 124.259, 50.160 124.812, 52.991 127.335 C 55.803 129.840, 56.575 130, 65.869 130 C 76.903 130, 77.094 129.897, 78.808 123 C 80.995 114.203, 81.294 106.468, 79.575 103.144 C 77.301 98.747, 71.446 95.954, 69.204 98.196" stroke="none" fill="black" fill-rule="evenodd"/>
</svg>