<svg xmlns="http://www.w3.org/2000/svg" width="256" height="256" viewBox="0 0 256 256" version="1.1">
	<path d="M 51.557 27.937 C 48.808 30.974, 45.813 43.682, 46.547 49.192 C 47.293 54.794, 46.493 57.895, 44.382 57.586 C 42.160 57.259, 41.033 55.021, 41.015 50.896 C 40.996 46.414, 37.066 41.709, 33.735 42.182 C 30.478 42.645, 27.919 48.230, 29.091 52.316 C 29.591 54.060, 30 57.567, 30 60.109 C 30 63.225, 30.655 65.563, 32.012 67.288 C 34.288 70.181, 39.607 71.793, 41.299 70.101 C 44.528 66.872, 48.406 70.843, 47.031 75.972 C 46.438 78.184, 45.781 78.514, 41.785 78.614 C 34.651 78.793, 32.300 79.739, 29.334 83.628 L 26.579 87.241 29.539 89.565 C 36.938 95.372, 36.720 94.926, 35.875 102.536 C 35.450 106.366, 35.080 113, 35.051 117.277 C 35.014 122.931, 34.281 127.184, 32.365 132.859 C 29.984 139.914, 29.864 140.946, 31.125 143.582 C 33.856 149.299, 38.720 147.263, 43.227 138.515 C 44.589 135.871, 45.912 129.644, 47.158 120.015 C 48.190 112.032, 49.282 104.713, 49.585 103.750 C 50.403 101.147, 49.157 98.185, 46.949 97.484 C 43.967 96.537, 44.359 92.199, 47.498 91.411 C 48.872 91.066, 50.672 91.044, 51.498 91.361 C 52.796 91.859, 53.610 95.524, 53.065 98.411 C 52.970 98.912, 53.900 101.612, 55.133 104.411 C 57.160 109.017, 57.364 110.999, 57.279 125.288 C 57.187 140.920, 57.210 141.092, 59.599 142.657 C 61.619 143.981, 62.499 144.036, 65.006 142.998 C 66.653 142.315, 68 141.339, 68 140.828 C 68 139.528, 74.370 137.005, 77.718 136.978 C 79.248 136.966, 81.625 136.088, 83 135.028 C 85.479 133.116, 85.483 133.087, 83.500 131.491 C 82.400 130.605, 79.182 128.770, 76.349 127.413 C 69.626 124.191, 68.803 123.048, 69.066 117.305 C 69.188 114.662, 68.950 109.067, 68.537 104.872 C 67.615 95.485, 68.068 93.957, 72.476 91.583 C 79.676 87.705, 80.721 81.533, 75.461 73.944 C 73.498 71.111, 73.076 69.705, 73.777 68.332 C 74.291 67.324, 75.256 64.250, 75.921 61.500 C 78.144 52.308, 81.289 49.739, 84.437 54.543 C 85.928 56.820, 85.949 57.396, 84.633 60.033 C 82.103 65.105, 81.728 68.585, 83.519 70.376 C 84.412 71.269, 85.673 72.034, 86.321 72.077 C 86.970 72.119, 88.385 72.318, 89.466 72.520 C 90.547 72.721, 93.640 72.413, 96.339 71.834 C 101.707 70.683, 103.698 71.826, 101.965 75.065 C 101.473 75.984, 101.355 77.021, 101.702 77.369 C 102.049 77.716, 101.830 78, 101.215 78 C 100.599 78, 98.661 80.138, 96.906 82.750 C 95.152 85.362, 92.005 89.300, 89.912 91.500 C 85.280 96.370, 79.580 108.100, 80.475 110.920 C 80.822 112.014, 82.961 113.942, 85.229 115.204 C 90.762 118.284, 91.811 121.571, 89.464 128.476 L 87.682 133.717 90.341 137.203 C 92.197 139.637, 93 141.898, 93 144.697 C 93 147.216, 93.850 149.966, 95.288 152.102 C 97.399 155.236, 98.117 155.562, 104.538 156.301 C 108.367 156.742, 113.750 156.852, 116.500 156.546 C 119.250 156.240, 129.375 155.587, 139 155.096 C 157.688 154.143, 158.298 154.064, 161.750 152.167 C 164.518 150.645, 164.542 149.232, 161.856 146.002 C 159.885 143.633, 159.225 143.501, 149.013 143.425 C 138.133 143.344, 132.626 142.074, 131.603 139.409 C 130.623 136.853, 137.638 134.757, 143.188 135.947 C 150.393 137.492, 154 135.505, 154 129.991 C 154 128.976, 152.780 127.185, 151.288 126.012 C 149.007 124.218, 147.632 123.954, 142.638 124.354 C 137.262 124.785, 133 123.708, 133 121.920 C 133 120.406, 138.018 119.314, 143.201 119.699 C 150.690 120.256, 153 118.989, 153 114.325 C 153 109.375, 150.901 108.070, 142.872 108.032 C 135.407 107.996, 132.726 106.404, 135.754 103.804 C 138.630 101.334, 140.655 101.033, 146.358 102.229 C 151.054 103.214, 152.141 103.137, 154.394 101.661 C 157.637 99.537, 157.719 96.628, 154.624 93.533 C 152.637 91.546, 151.568 91.248, 148.089 91.715 C 143.498 92.331, 136 89.665, 136 87.416 C 136 85.485, 130.550 82, 127.530 82 C 124.093 82, 121.161 83.546, 117.806 87.125 C 114.965 90.158, 109.571 91.122, 108.716 88.750 C 108.252 87.465, 110.910 81.762, 112.250 81.167 C 112.662 80.983, 113 79.994, 113 78.968 C 113 77.941, 114.505 75.954, 116.344 74.551 C 119.276 72.315, 120.665 71.999, 127.594 71.994 C 131.942 71.991, 137.218 71.512, 139.318 70.929 C 144.010 69.626, 145.516 70.631, 146.323 75.605 C 147.392 82.189, 150.077 83.505, 155.118 79.916 C 161.108 75.651, 162.387 71.252, 162.813 53.443 C 163.150 39.388, 162.967 36.896, 161.347 33.456 C 158.977 28.422, 155.752 26.810, 150.477 28.022 C 148.290 28.524, 143.479 28.662, 139.787 28.328 C 135.636 27.952, 131.394 28.190, 128.676 28.951 C 124.960 29.991, 123.344 29.919, 118.246 28.489 C 112.616 26.909, 111.833 26.907, 106.531 28.448 C 102.741 29.550, 99.371 29.878, 96.411 29.434 C 91.900 28.758, 86 30.321, 86 32.193 C 86 32.715, 85.438 33.770, 84.750 34.537 C 84.063 35.303, 82.939 36.600, 82.254 37.419 C 81.321 38.533, 79.765 38.760, 76.060 38.321 C 71.505 37.781, 70.868 37.978, 68.056 40.790 C 65.521 43.325, 65 44.642, 65 48.515 C 65 51.509, 64.363 53.959, 63.226 55.342 C 59.192 60.248, 57.178 57.033, 59.049 48.674 C 60.626 41.625, 59.965 28.222, 57.978 26.965 C 55.660 25.500, 53.462 25.832, 51.557 27.937 M 143.584 39.352 C 140.926 41.471, 140.754 42.026, 141.178 47.136 C 141.630 52.588, 144.477 58.214, 146.500 57.657 C 148.437 57.123, 150.997 50.447, 150.998 45.924 C 151 42.455, 150.450 40.832, 148.723 39.209 L 146.445 37.070 143.584 39.352 M 99.365 40.169 C 95.750 41.920, 94.648 45.092, 96.039 49.737 C 97.663 55.155, 101.036 59.307, 103.154 58.494 C 106.263 57.301, 108.366 42.766, 105.800 40.200 C 104.370 38.770, 102.275 38.760, 99.365 40.169 M 121.536 40.888 C 120.627 43.752, 119.619 51.975, 119.586 56.804 C 119.541 63.261, 123.447 64.561, 128.638 59.816 C 130.887 57.760, 130.818 55.793, 128.331 51.027 C 127.606 49.637, 127.010 47.074, 127.006 45.332 C 127.003 43.589, 126.727 41.452, 126.393 40.582 C 125.552 38.389, 122.263 38.596, 121.536 40.888 M 60.516 69.250 C 59.258 72.984, 59.687 76.943, 61.422 77.608 C 63.047 78.232, 69 73.331, 69 71.370 C 69 68.597, 61.378 66.693, 60.516 69.250 M 108.269 103.013 C 99.776 104.250, 102.177 107.382, 111 106.575 C 114.025 106.298, 116.838 106.056, 117.250 106.036 C 117.662 106.016, 118 105.130, 118 104.067 C 118 101.981, 116.483 101.817, 108.269 103.013 M 104.070 119.935 C 100.651 122.099, 102.841 126.250, 107.402 126.250 C 111.206 126.250, 121.105 122.814, 120.710 121.630 C 119.955 119.365, 107.049 118.050, 104.070 119.935 M 105.412 139.441 C 103.812 140.611, 103.842 140.842, 105.860 142.860 C 108.245 145.245, 109.955 145.182, 120.250 142.329 C 123.689 141.377, 126 140.184, 126 139.362 C 126 137.519, 107.946 137.588, 105.412 139.441" stroke="none" fill="black" fill-rule="evenodd"/>
</svg>