<svg xmlns="http://www.w3.org/2000/svg" width="256" height="256" viewBox="0 0 256 256" version="1.1">
	<path d="M 55 24.271 C 54.725 24.533, 50.983 25.044, 46.684 25.406 C 37.985 26.140, 35.450 27.267, 34.159 30.979 C 33.018 34.258, 33.732 107.673, 34.980 115.500 C 35.507 118.800, 36.244 126.351, 36.618 132.280 C 37.199 141.488, 37.674 143.639, 39.873 147.030 C 43.012 151.871, 46.591 152.479, 47.628 148.347 C 48.393 145.297, 47.362 112.753, 46.381 109 C 46.021 107.625, 45.785 100.441, 45.856 93.036 C 46.023 75.498, 46.016 75.507, 58.395 77.294 L 67.249 78.572 63.625 81.337 C 61.371 83.056, 60 84.944, 60 86.328 C 60 89.011, 62.620 93, 64.382 93 C 65.080 93, 66.618 94.029, 67.799 95.286 C 69.955 97.580, 70.085 100.360, 68.501 110.211 C 68.262 111.702, 68.423 113.143, 68.859 113.413 C 70.201 114.242, 68.945 124.254, 66.919 128.877 C 64.539 134.306, 64.495 136.563, 66.750 137.561 C 69.543 138.798, 81.622 140.087, 93 140.362 C 98.775 140.502, 105.768 140.957, 108.539 141.373 C 112.568 141.978, 114.737 141.696, 119.358 139.967 C 122.537 138.778, 125.402 137.115, 125.726 136.272 C 126.332 134.693, 123.269 128, 121.940 128 C 120.456 128, 119.011 121.570, 118.374 112.136 C 118.017 106.836, 117.112 101.287, 116.365 99.805 C 115.124 97.345, 115.200 96.974, 117.225 95.555 C 118.446 94.700, 120.695 94, 122.223 94 C 126.582 94, 129 90.834, 129 85.125 C 129 80.479, 129.145 80.221, 132.084 79.633 C 133.780 79.294, 136.437 78.113, 137.989 77.008 C 141.344 74.619, 142.360 74.523, 143.957 76.448 C 146.191 79.139, 146.757 89.412, 145.864 111 C 145.374 122.825, 144.842 133.175, 144.682 134 C 143.881 138.127, 139.837 145.230, 138.017 145.706 C 135.752 146.298, 135.273 149.873, 137.200 151.800 C 140.360 154.960, 151.924 151.084, 153.874 146.212 C 154.471 144.720, 155.444 138.325, 156.036 132 C 156.628 125.675, 157.295 119.825, 157.518 119 C 158.694 114.656, 157.331 32.486, 156.043 30.080 C 154.628 27.437, 150.615 26.240, 140.500 25.445 C 129.836 24.606, 124.165 24.626, 113.825 25.536 C 101.314 26.637, 100.117 29.168, 100.044 54.677 C 100.001 69.562, 100.047 69.891, 102.418 71.757 C 103.748 72.803, 107.798 74.460, 111.418 75.440 C 116.920 76.930, 118 77.573, 118 79.361 C 118 81.477, 117.794 81.499, 98.515 81.378 C 87.154 81.306, 77.878 80.802, 76.265 80.168 C 74.744 79.570, 72.150 78.934, 70.500 78.753 C 67.807 78.460, 68.318 78.041, 75.500 74.659 C 79.900 72.587, 84.513 70.390, 85.750 69.777 C 87.713 68.804, 88.001 67.886, 88.008 62.581 C 88.012 59.236, 88.425 53.800, 88.926 50.500 C 89.427 47.200, 90.135 41.464, 90.498 37.752 C 91.140 31.195, 91.074 30.920, 88.141 27.987 C 85.412 25.258, 84.522 24.973, 78.812 25.004 C 75.340 25.022, 68.675 24.758, 64 24.416 C 59.325 24.074, 55.275 24.009, 55 24.271 M 59.637 35.945 C 51.561 36.507, 50.562 36.808, 48.387 39.337 C 45.579 42.601, 45.479 43.336, 47.560 45.417 C 48.874 46.731, 51.038 46.880, 61.310 46.365 C 68.473 46.006, 74.024 45.266, 74.770 44.571 C 77.807 41.743, 76.293 36, 72.510 36 C 71.770 36, 70.564 35.849, 69.832 35.664 C 69.099 35.479, 64.512 35.606, 59.637 35.945 M 119 36.841 C 115.418 37.330, 113 39.867, 113 43.136 C 113 46.623, 113.550 46.760, 129.819 47.306 C 141.997 47.715, 142.156 47.692, 143.744 45.267 C 145.220 43.015, 145.220 42.599, 143.743 40.158 C 142.207 37.618, 141.677 37.478, 131.818 37 C 126.143 36.725, 120.375 36.654, 119 36.841 M 68.996 55.942 C 68.169 56.427, 63.308 57.016, 58.193 57.250 C 47.801 57.727, 44.929 59.131, 46.882 62.779 C 47.884 64.651, 48.830 64.775, 60.429 64.560 C 73.656 64.314, 76 63.564, 76 59.578 C 76 55.671, 72.531 53.870, 68.996 55.942 M 139 56.500 C 135.901 58.271, 128.506 58.395, 122.457 56.777 C 118.621 55.751, 117.451 55.797, 115.192 57.061 C 113.712 57.889, 112.385 59.452, 112.244 60.533 C 111.705 64.680, 113.413 65.451, 124.708 66.160 C 130.644 66.532, 136.907 67.141, 138.626 67.514 C 141.199 68.071, 142.041 67.780, 143.376 65.873 C 145.283 63.152, 145.512 57.912, 143.800 56.200 C 142.317 54.717, 142.095 54.731, 139 56.500 M 84.026 93.469 C 81.383 96.653, 83.386 97.523, 93.177 97.442 C 102.192 97.368, 105 96.812, 105 95.101 C 105 92.164, 86.316 90.709, 84.026 93.469 M 84.980 110.524 C 84.284 111.362, 83.904 112.238, 84.136 112.469 C 84.845 113.178, 103.026 113.308, 103.725 112.608 C 104.086 112.248, 103.698 111.270, 102.864 110.435 C 101.766 109.337, 100.676 109.160, 98.923 109.795 C 97.590 110.277, 95.375 110.341, 94 109.936 C 89.793 108.697, 86.308 108.924, 84.980 110.524 M 99 124 C 98.175 124.533, 96.094 124.976, 94.375 124.985 C 89.321 125.009, 85 126.157, 85 127.475 C 85 128.814, 101.675 130.446, 104.455 129.379 C 105.305 129.053, 106 127.757, 106 126.500 C 106 123.320, 102.170 121.952, 99 124" stroke="none" fill="black" fill-rule="evenodd"/>
</svg>