<svg xmlns="http://www.w3.org/2000/svg" width="256" height="256" viewBox="0 0 256 256" version="1.1">
	<path d="M 119.073 24.635 C 117.933 26.084, 116.943 27.997, 116.872 28.885 C 116.259 36.647, 115.525 37.308, 108.352 36.550 C 104.525 36.146, 102.103 36.499, 98.913 37.927 C 94.661 39.831, 94.588 39.830, 90.669 37.831 C 86.799 35.857, 85.677 35.832, 77.463 37.535 C 74.205 38.210, 72.836 36.658, 71.590 30.876 C 71.280 29.433, 70.168 27.194, 69.120 25.900 C 67.370 23.739, 67.003 23.661, 64.607 24.943 C 63.173 25.710, 62 26.852, 62 27.481 C 62 29.436, 57.802 37.425, 56.133 38.645 C 55.261 39.282, 51.385 39.964, 47.519 40.159 C 36.035 40.739, 29.917 47.095, 36.617 51.485 C 39.729 53.524, 44.139 53.662, 50.889 51.932 C 58.087 50.087, 61.885 51.429, 64.434 56.718 C 65.538 59.008, 67.320 61.112, 68.395 61.393 C 70.396 61.916, 72.909 59.621, 72.968 57.215 C 72.986 56.508, 73.727 54.820, 74.615 53.465 C 76.003 51.347, 77.023 50.989, 81.865 50.924 C 84.964 50.882, 89.075 50.262, 91 49.546 C 94.117 48.386, 94.862 48.462, 97.810 50.240 C 100.435 51.824, 102.299 52.137, 106.810 51.753 C 109.940 51.487, 113.467 51.630, 114.648 52.071 C 115.937 52.552, 118.935 52.292, 122.148 51.420 C 125.278 50.571, 132.017 49.964, 138.380 49.959 C 147.726 49.952, 149.665 49.663, 152.130 47.907 C 155.187 45.730, 155.696 43.490, 153.718 40.913 C 151.142 37.558, 147.936 36.730, 140.222 37.429 C 133.970 37.996, 132.469 37.830, 130.886 36.397 C 129.849 35.458, 129 33.872, 129 32.872 C 129 29.621, 124.705 22, 122.873 22 C 121.923 22, 120.212 23.186, 119.073 24.635 M 88.507 58.992 C 87.515 60.088, 86.336 63.313, 85.886 66.158 C 85.436 69.004, 84.689 71.711, 84.227 72.173 C 83.764 72.636, 79.136 73.484, 73.942 74.058 C 68.749 74.631, 62.475 75.328, 60 75.607 C 57.525 75.886, 54.530 76.591, 53.344 77.175 C 50.497 78.578, 49.809 82.542, 51.953 85.191 C 53.545 87.157, 53.969 87.207, 58.930 86.017 C 63.217 84.988, 64.949 84.993, 68.127 86.042 C 71.253 87.074, 73.095 87.090, 77.271 86.122 C 82.392 84.936, 82.545 84.967, 84.657 87.605 C 87.082 90.635, 86.904 94.339, 84.187 97.354 C 82.774 98.922, 81.577 99.130, 76.811 98.634 C 72.377 98.174, 70.171 98.475, 66.811 100 C 63.492 101.506, 60.198 101.969, 52.500 102.014 C 43.686 102.065, 42.188 102.334, 39.867 104.286 C 36.487 107.128, 35.610 110.085, 37.417 112.552 C 38.674 114.270, 39.872 114.464, 47.563 114.197 C 52.359 114.031, 58.357 113.528, 60.892 113.079 C 66.273 112.127, 77.493 113.093, 79.041 114.641 C 80.427 116.027, 79.190 121, 77.459 121 C 76.731 121, 75.841 121.926, 75.482 123.057 C 75.123 124.188, 73.312 125.837, 71.457 126.722 C 69.603 127.606, 68.301 128.678, 68.565 129.105 C 69.485 130.594, 62.863 137, 60.403 137 C 57.972 137, 47.432 146.412, 45.286 150.500 C 43.803 153.326, 45.342 156.618, 48.519 157.415 C 51.356 158.127, 52.434 157.485, 64 148.185 C 72.151 141.631, 79.268 134.859, 81.273 131.750 C 82.248 130.238, 83.685 129, 84.466 129 C 85.247 129, 86.475 128.200, 87.193 127.222 C 89.304 124.352, 94.120 121, 96.135 121 C 97.644 121, 98 121.763, 98 125 C 98 127.200, 98.388 129, 98.861 129 C 99.335 129, 101.897 131.025, 104.555 133.500 C 107.212 135.975, 109.681 138, 110.040 138 C 110.400 138, 111.746 138.912, 113.031 140.027 C 114.317 141.142, 116.523 142.288, 117.934 142.573 C 119.345 142.858, 122.750 144.025, 125.500 145.166 C 128.250 146.307, 132.525 147.818, 135 148.523 C 137.475 149.229, 140.830 150.324, 142.455 150.957 C 145.605 152.182, 153 151.450, 153 149.912 C 153 149.410, 153.645 149, 154.433 149 C 156.347 149, 157.453 145.250, 156.040 143.549 C 154.354 141.517, 144.643 137.003, 141.900 136.976 C 139.323 136.951, 125.612 133.496, 123.907 132.443 C 123.340 132.092, 122.475 130.749, 121.983 129.457 C 121.366 127.834, 119.762 126.744, 116.795 125.932 C 109.236 123.864, 99 120.729, 99 120.483 C 99 119.044, 102.231 113.131, 103.213 112.773 C 104.534 112.291, 105.843 112.221, 133.894 111.135 C 147.816 110.596, 150.450 110.243, 151.361 108.795 C 152.205 107.453, 151.930 106.554, 150.069 104.574 C 146.894 101.194, 143.263 100.201, 132 99.634 C 126.775 99.370, 120.990 98.609, 119.144 97.943 C 116.909 97.135, 113.144 96.951, 107.878 97.390 L 99.969 98.049 98.939 95.341 C 98.205 93.410, 98.249 91.813, 99.092 89.778 C 100.815 85.617, 103.475 84.507, 108.077 86.025 C 110.273 86.750, 113.679 87.016, 116.182 86.659 C 123.777 85.575, 130.964 84.140, 131.997 83.502 C 133.394 82.638, 133.250 78.710, 131.750 76.746 C 129.691 74.050, 120.895 71.101, 118.070 72.159 C 115.099 73.271, 101.363 73.696, 100.373 72.706 C 99.980 72.313, 99.622 69.565, 99.579 66.600 C 99.523 62.784, 98.944 60.594, 97.595 59.104 C 95.192 56.450, 90.856 56.396, 88.507 58.992" stroke="none" fill="black" fill-rule="evenodd"/>
</svg>