<svg xmlns="http://www.w3.org/2000/svg" width="256" height="256" viewBox="0 0 256 256" version="1.1">
	<path d="M 55.750 27.931 C 54.237 30.070, 52.984 32.198, 52.964 32.660 C 52.944 33.122, 50.619 35.075, 47.797 37 C 40.681 41.854, 38.500 44.995, 39.709 48.646 C 40.405 50.747, 41.402 51.588, 43.489 51.832 C 46.838 52.224, 53.781 49.155, 54.496 46.966 C 55.212 44.775, 60.317 42, 63.631 42 C 65.184 42, 70.005 42.763, 74.345 43.696 C 82.190 45.381, 82.222 45.401, 80.007 47.196 C 78.397 48.499, 78.200 49, 79.298 49 C 80.587 49, 80.520 49.618, 78.862 53.050 C 76.052 58.865, 74.377 59.081, 70.287 54.157 C 67.718 51.064, 66.106 50, 63.988 50 C 61.217 50, 58 52.193, 58 54.082 C 58 56.319, 53.655 64, 52.390 64 C 51.625 64, 51.053 64.337, 51.118 64.750 C 51.427 66.705, 50.870 67.137, 49.505 66.004 C 48.297 65.002, 47.491 65.104, 45.305 66.536 L 42.600 68.308 44.985 69.190 C 46.296 69.675, 48.074 69.760, 48.935 69.377 C 49.796 68.995, 50.810 68.745, 51.189 68.821 C 51.568 68.897, 52.177 68.018, 52.542 66.867 C 53.110 65.077, 53.672 65.614, 56.420 70.577 C 59.238 75.666, 59.501 76.757, 58.559 79.440 C 56.086 86.480, 52.935 87.932, 46.495 84.998 C 38.937 81.554, 35.501 82.428, 33.950 88.186 C 33.072 91.447, 33.170 92.610, 34.492 94.628 C 36.060 97.022, 36.400 97.083, 46.631 96.795 C 56.091 96.530, 57.301 96.697, 58.579 98.441 C 59.360 99.509, 59.630 100.634, 59.177 100.941 C 58.724 101.248, 58.052 102.175, 57.683 103 C 57.315 103.825, 56.608 105.175, 56.113 106 C 55.618 106.825, 54.725 108.737, 54.128 110.250 C 53.077 112.913, 52.042 113.240, 45.490 112.980 C 43.413 112.897, 38.914 116.494, 38.367 118.673 C 37.417 122.457, 38.999 124.258, 44.788 125.983 C 47.589 126.817, 50.207 127.838, 50.607 128.250 C 51.006 128.662, 52.133 129, 53.110 129 C 55.752 129, 58.002 132.911, 57.985 137.473 C 57.965 142.569, 56.990 144.078, 52.847 145.422 C 49.362 146.553, 48.412 148.520, 49.417 152.525 C 49.980 154.768, 50.196 154.828, 53.565 153.661 C 56.710 152.572, 67.440 143.834, 79.242 132.750 C 81.438 130.688, 83.653 129, 84.163 129 C 84.682 129, 84.801 127.455, 84.433 125.492 C 83.897 122.635, 84.259 121.349, 86.387 118.560 C 93.356 109.423, 100.404 115.900, 95.009 126.482 C 93.914 128.630, 92.752 131.807, 92.426 133.541 C 91.891 136.393, 92.168 136.852, 95.329 138.352 C 98.133 139.682, 100.176 139.856, 105.662 139.229 C 113.266 138.360, 122.385 139.896, 126.801 142.789 C 128.911 144.172, 129.080 144.553, 127.700 144.819 C 126.765 144.999, 126 145.284, 126 145.451 C 126 146.835, 129.227 153, 129.951 153 C 130.460 153, 132.339 150.962, 134.128 148.471 C 136.070 145.768, 138.412 143.727, 139.940 143.406 C 145.841 142.170, 156.021 138.679, 156.934 137.580 C 158.330 135.897, 154.824 130.477, 151.090 128.547 C 149.320 127.631, 146.353 127.134, 143.843 127.333 C 140.049 127.633, 139.242 127.285, 136.302 124.084 C 132.400 119.837, 132.207 118.094, 135.314 115.174 C 137.019 113.573, 138.879 113, 142.368 113 C 148.238 113, 153.688 109.657, 153.203 106.353 C 152.847 103.926, 148.252 102.888, 143.496 104.159 C 140.653 104.920, 138.313 103.867, 132.673 99.293 C 129.887 97.033, 122.575 96.024, 121.833 97.797 C 121.650 98.236, 119.273 99.630, 116.550 100.896 C 112.598 102.734, 110.492 103.093, 106.101 102.676 C 102.219 102.308, 99.715 102.613, 97.585 103.714 C 93.604 105.774, 74.871 104.805, 68.935 102.233 C 64.248 100.202, 64.179 98.384, 68.689 95.749 C 72.482 93.534, 71.628 93.569, 104.852 94.296 C 119.346 94.613, 132.239 94.479, 133.504 93.998 C 134.820 93.498, 138.478 93.502, 142.056 94.008 C 147.024 94.710, 148.918 94.577, 151.274 93.358 C 153.997 91.950, 154.195 91.493, 153.696 87.768 C 153.396 85.537, 152.555 83.302, 151.826 82.802 C 151.097 82.301, 147.475 82.143, 143.778 82.450 C 137.118 83.004, 137.042 82.981, 135.528 80.054 C 131.719 72.689, 134.362 68.679, 142.897 68.872 C 148.091 68.989, 148.789 68.759, 149.772 66.602 C 152.022 61.663, 148.018 57.183, 142.310 58.252 C 139.610 58.758, 135.574 57.917, 136.111 56.961 C 136.846 55.652, 133.832 49.936, 131.654 48.509 C 128.577 46.493, 121.345 46.775, 121.798 48.894 C 122.308 51.278, 120.959 55.741, 119.071 57.918 C 116.980 60.329, 113.333 60.699, 113.333 58.500 C 113.333 57.675, 113.763 57, 114.289 57 C 114.879 57, 114.867 56.522, 114.257 55.750 C 112.729 53.818, 112.118 49.010, 113.389 48.930 C 115.733 48.781, 110.338 47.137, 107.289 47.070 C 103.610 46.990, 100.535 49.702, 99.638 53.819 C 98.693 58.159, 97.588 59.186, 94.655 58.450 C 93.195 58.083, 92 57.186, 92 56.457 C 92 55.727, 91.475 53.863, 90.834 52.315 C 90.192 50.767, 89.630 49.146, 89.584 48.714 C 89.538 48.281, 88.860 47.532, 88.079 47.049 C 87.001 46.382, 87.543 45.800, 90.323 44.639 C 93.185 43.443, 97.989 43.122, 112.244 43.177 C 131.144 43.249, 139.957 41.900, 143.457 38.400 C 145.406 36.452, 144.685 34.989, 140.304 32 C 136.680 29.528, 136.429 29.502, 117.570 29.710 C 107.081 29.826, 96.925 30.130, 95 30.386 C 80.826 32.270, 76.378 32.233, 72.432 30.200 C 70.269 29.086, 67.506 27.235, 66.292 26.087 C 62.742 22.732, 58.959 23.394, 55.750 27.931 M 114 71.288 C 110.978 72.808, 110.084 77.941, 112.432 80.289 C 115.625 83.482, 123.870 79.604, 123.967 74.864 C 123.985 73.964, 122.469 72.502, 120.599 71.614 C 116.565 69.700, 117.102 69.726, 114 71.288 M 71.686 72.116 C 67.774 74.391, 67.886 79.626, 71.913 82.718 C 74.272 84.529, 75.790 84.260, 77.373 81.750 C 80.102 77.423, 80.221 75.283, 77.854 73.079 C 75.355 70.751, 74.313 70.588, 71.686 72.116 M 90.632 74.115 C 88.348 77.375, 90.586 82, 94.448 82 C 96.986 82, 101 78.153, 101 75.721 C 101 71.910, 93.040 70.677, 90.632 74.115 M 62.571 114.571 C 60.293 116.850, 60.641 120.321, 63.452 123.354 C 66.620 126.772, 68.958 126.697, 72.438 123.065 C 74.624 120.783, 75.104 119.551, 74.597 117.530 C 73.542 113.329, 65.735 111.408, 62.571 114.571 M 111.806 116.040 C 109.316 118.530, 108.875 119.626, 109.370 122.098 C 109.702 123.758, 110.623 125.766, 111.417 126.560 C 115.455 130.598, 127.496 118.713, 123.836 114.302 C 123.241 113.586, 120.976 113, 118.801 113 C 115.729 113, 114.168 113.678, 111.806 116.040" stroke="none" fill="black" fill-rule="evenodd"/>
</svg>