<svg xmlns="http://www.w3.org/2000/svg" width="256" height="256" viewBox="0 0 256 256" version="1.1">
	<path d="M 70 24.500 C 70 25.325, 69.622 26, 69.161 26 C 68.092 26, 66 30.540, 66 32.858 C 66 33.829, 65.033 35.661, 63.851 36.930 C 61.803 39.128, 61.250 39.206, 52.101 38.599 C 43.292 38.015, 42.178 38.149, 38.596 40.231 C 31.422 44.400, 31.252 47.906, 38.069 51.115 C 41.074 52.530, 42.743 52.584, 51.500 51.551 C 67.775 49.630, 69.680 51.915, 60.043 61.794 C 56.719 65.201, 54 68.882, 54 69.974 C 54 73.471, 50.919 79.806, 47.409 83.528 C 45.534 85.516, 44 87.757, 44 88.508 C 44 89.259, 42.043 92.733, 39.650 96.227 C 33.248 105.579, 35.264 109.070, 45.538 106.424 C 51.227 104.959, 54.518 106.231, 55.537 110.290 C 55.849 111.535, 57.463 113.442, 59.123 114.527 C 62.985 117.051, 65 120.892, 65 125.728 C 65 130.724, 63.823 132.260, 52.564 141.945 C 47.365 146.418, 42.839 150.932, 42.508 151.976 C 41.710 154.488, 43.926 157.929, 46.812 158.661 C 49.485 159.340, 56.580 156.437, 58.323 153.951 C 58.970 153.028, 61.850 149.623, 64.723 146.386 C 72.740 137.352, 73 137.039, 73 136.430 C 73 136.117, 74.350 133.898, 76 131.500 C 77.650 129.102, 79 126.642, 79 126.035 C 79 124.624, 81.505 120.601, 85.584 115.460 C 89.729 110.236, 93 99.603, 93 91.353 C 93 86.293, 93.429 84.456, 95.006 82.764 C 96.262 81.415, 97.362 80.964, 97.951 81.556 C 98.469 82.075, 99.105 94.200, 99.365 108.500 C 99.846 134.905, 100.786 142.617, 103.853 145.337 C 106.644 147.811, 112.955 151, 115.063 151 C 116.163 151, 118.679 151.675, 120.653 152.499 C 125.441 154.500, 130.523 154.648, 142.500 153.135 C 154.302 151.645, 160.222 150.226, 161.235 148.647 C 162.631 146.467, 161.991 143.101, 159.667 140.399 C 156.841 137.114, 152.496 136.916, 147.725 139.853 C 144.710 141.710, 143.753 141.771, 133 140.791 C 118.235 139.446, 114.320 138.466, 112.869 135.755 C 112.071 134.264, 111.716 126.008, 111.744 109.579 L 111.785 85.581 114.588 83.171 C 117.021 81.078, 118.086 80.832, 122.677 81.306 C 128.695 81.927, 135.684 85.429, 136.588 88.277 C 136.923 89.333, 136.835 92.291, 136.392 94.849 C 135.949 97.407, 135.696 100.510, 135.830 101.744 C 136.004 103.348, 134.495 105.457, 130.537 109.141 C 125.969 113.392, 125 114.875, 125 117.612 C 125 121.923, 127.495 123.401, 132.151 121.848 C 133.993 121.234, 136.400 119.882, 137.500 118.844 C 138.600 117.806, 140.727 116.042, 142.227 114.924 C 147.017 111.353, 151.857 97.385, 149.999 92.497 C 149.449 91.052, 149 87.681, 149 85.006 C 149 81.742, 148.435 79.578, 147.282 78.425 C 145.191 76.333, 138.166 73.052, 135.715 73.022 C 134.733 73.010, 132.822 72.274, 131.468 71.387 C 129.648 70.195, 125.909 69.684, 117.103 69.425 L 105.199 69.076 101.969 73.038 C 100.193 75.217, 98.236 77, 97.620 77 C 97.004 77, 95.243 75.425, 93.707 73.500 C 90.588 69.591, 88.240 69.166, 82.654 71.500 C 77.453 73.673, 71.290 73.491, 70.545 71.141 C 69.870 69.015, 70.783 66, 72.102 66 C 73.030 66, 76.170 59.609, 77.725 54.553 C 78.532 51.930, 79.394 51.413, 85.566 49.857 C 93.402 47.882, 97 47.581, 97 48.902 C 97 50.307, 102.839 52, 107.684 52 C 110.097 52, 113.067 52.653, 114.286 53.451 C 116.258 54.744, 116.978 54.689, 120.860 52.951 C 124.421 51.357, 127.476 51, 137.553 51 C 148.996 51, 150.083 50.833, 152.572 48.691 C 154.631 46.921, 155.090 45.859, 154.543 44.134 C 153.479 40.783, 149.703 39.673, 137.285 39.056 C 125.950 38.494, 123.317 37.569, 122.590 33.897 C 121.652 29.163, 120.528 26.921, 118.391 25.521 C 116.110 24.026, 115.835 24.074, 113.527 26.382 C 112.182 27.727, 110.800 30.104, 110.457 31.664 C 110.114 33.224, 109.693 34.976, 109.522 35.557 C 109.223 36.574, 98.509 40, 95.627 40 C 94.856 40, 91.288 38.626, 87.699 36.947 C 82.208 34.377, 80.933 33.289, 79.648 30.079 C 78.809 27.981, 77.388 25.530, 76.490 24.633 C 74.411 22.554, 70 22.464, 70 24.500 M 63.913 78.282 C 60.159 81.164, 56.916 91.545, 57.892 97.553 C 58.387 100.595, 59.388 102.029, 62.590 104.279 C 68.036 108.107, 73.017 108.467, 76.454 105.280 C 78.473 103.408, 79.027 102.011, 78.874 99.176 C 78.753 96.939, 79.465 94.217, 80.694 92.222 C 82.946 88.565, 82.690 84.429, 80.128 83.086 C 79.232 82.616, 76.628 81.922, 74.339 81.543 C 72.051 81.164, 69.393 79.987, 68.434 78.927 C 66.412 76.693, 66.050 76.641, 63.913 78.282" stroke="none" fill="black" fill-rule="evenodd"/>
</svg>