<svg xmlns="http://www.w3.org/2000/svg" width="256" height="256" viewBox="0 0 256 256" version="1.1">
	<path d="M 70.968 25.878 C 69.385 27.461, 67.582 30.773, 66.962 33.238 C 66.341 35.703, 64.858 38.613, 63.667 39.705 C 56.270 46.483, 50.658 52.858, 48.342 57.112 C 46.879 59.801, 45.301 62, 44.834 62 C 43.703 62, 39.676 66.680, 38.809 69.002 C 37.618 72.195, 40.268 73.276, 47.477 72.541 L 54 71.875 54 76.271 C 54 78.689, 53.663 81.006, 53.250 81.420 C 52.573 82.101, 52.304 91.024, 52.163 117.500 C 52.103 128.756, 53.536 139.362, 55.528 142.402 C 56.366 143.681, 60.232 146.194, 64.119 147.985 C 71.174 151.237, 71.227 151.245, 93.130 152.049 C 105.198 152.492, 116.068 152.705, 117.286 152.522 C 118.504 152.339, 121.975 151.905, 125 151.558 C 130.770 150.897, 142.825 147.375, 144.450 145.876 C 144.972 145.394, 145.965 145, 146.655 145 C 149.939 145, 155.789 136.205, 156.159 130.710 C 156.461 126.219, 153.251 123, 148.469 123 C 144.263 123, 142.507 125.271, 142.472 130.755 C 142.439 135.991, 140.966 137.422, 134.140 138.856 C 124.184 140.946, 80.112 139.986, 67.733 137.409 C 63.802 136.591, 61.795 132.093, 61.633 123.742 C 61.519 117.795, 61.798 116.593, 63.646 115.092 C 66.212 113.007, 84.296 110.784, 96.500 111.054 C 116.727 111.501, 133.546 110.863, 135.520 109.574 C 136.631 108.849, 138.551 105.385, 139.787 101.878 C 141.756 96.288, 141.959 94.265, 141.432 85.500 C 141.035 78.894, 140.181 74.061, 138.915 71.261 C 137.862 68.929, 137 66.577, 137 66.034 C 137 65.491, 135.781 64.248, 134.291 63.273 C 132.091 61.833, 129.654 61.531, 121.332 61.666 C 110.223 61.846, 109.451 61.449, 110.483 56.088 C 110.975 53.535, 114.703 49, 116.310 49 C 118.301 49, 122 43.813, 122 41.021 C 122 37.939, 118.109 34, 115.065 34 C 114.149 34, 112.908 33.508, 112.306 32.906 C 111.604 32.204, 108.932 32.034, 104.856 32.432 C 101.360 32.773, 95.350 33.279, 91.500 33.557 L 84.500 34.061 80.575 28.531 C 78.416 25.489, 76.019 23, 75.248 23 C 74.477 23, 72.551 24.295, 70.968 25.878 M 70.926 49.832 C 63.935 54.266, 61 58.344, 61 63.627 L 61 68.100 69.716 67.455 C 82.772 66.489, 93.184 62.027, 97.005 55.759 C 99.407 51.821, 99.477 50.620, 97.429 48.571 C 96.205 47.348, 93.594 47, 85.624 47 C 76.107 47, 75.079 47.198, 70.926 49.832 M 102.153 76.067 C 98.551 77.510, 94.774 80.758, 96.160 81.220 C 96.821 81.440, 97.478 83.618, 97.622 86.060 C 97.929 91.279, 101.339 99.532, 103.536 100.375 C 104.381 100.700, 106.744 100.391, 108.786 99.689 C 110.909 98.959, 113.892 98.698, 115.750 99.080 C 124.497 100.876, 129.169 96.714, 129.816 86.546 C 130.198 80.557, 130.036 79.938, 127.467 77.557 C 124.874 75.154, 124.099 75.004, 114.604 75.063 C 109.047 75.098, 103.444 75.550, 102.153 76.067 M 62.919 83.135 C 62.218 84.436, 61.669 88.390, 61.699 91.923 C 61.767 100.095, 62.858 101, 72.644 101 C 84.268 101, 85.954 99.341, 85.989 87.872 C 86.004 83.037, 84.499 82.043, 77.440 82.221 C 74.173 82.304, 69.856 82.011, 67.847 81.571 C 64.612 80.862, 64.047 81.041, 62.919 83.135" stroke="none" fill="black" fill-rule="evenodd"/>
</svg>