<svg xmlns="http://www.w3.org/2000/svg" width="256" height="256" viewBox="0 0 256 256" version="1.1">
	<path d="M 85.400 26.765 C 83.449 28.068, 82.173 31.454, 82.664 34.025 C 82.928 35.402, 82.636 42.147, 82.016 49.014 C 80.471 66.138, 80.457 66.019, 84.473 69.750 C 87.532 72.592, 88.655 73, 93.429 73 C 97.935 73, 99.158 73.387, 100.443 75.223 C 103.799 80.013, 101.265 94.345, 96.372 98.253 C 94.439 99.797, 94.311 100.365, 95.306 103 C 96.249 105.497, 96.152 106.277, 94.720 107.709 C 93.274 109.155, 91.169 109.400, 81.351 109.265 C 72.674 109.145, 68.955 109.489, 66.786 110.611 C 59.849 114.198, 53.272 109.585, 55.985 103.035 C 57.220 100.054, 60.018 99.014, 66.875 98.985 C 71.687 98.964, 72.964 98.005, 73.618 93.919 C 74.076 91.052, 73.687 90.045, 71.206 87.681 C 68.666 85.261, 67.734 84.959, 64.613 85.545 C 62.614 85.920, 60.731 86.626, 60.430 87.113 C 60.129 87.601, 58.997 88, 57.916 88 C 55.326 88, 54.010 84.343, 54.714 79.098 C 55.482 73.367, 57.574 72.116, 65.347 72.740 L 71.590 73.241 72.700 69.627 C 73.671 66.463, 73.533 65.607, 71.596 62.756 C 69.494 59.663, 69.061 59.497, 62.942 59.433 C 54.020 59.340, 53.998 59.332, 54.015 56.250 C 54.041 51.442, 56.265 48.623, 62.500 45.500 C 67.405 43.043, 68.590 41.957, 69.052 39.500 C 70.041 34.239, 67.110 29, 63.178 29 C 62.654 29, 60.036 30.470, 57.362 32.266 C 54.688 34.062, 51.277 36.156, 49.781 36.918 C 45.320 39.193, 42.668 42.747, 42.065 47.260 C 41.460 51.790, 42.267 66.600, 44.094 84.500 C 46.473 107.813, 46.486 107.222, 43.558 109.958 C 41.864 111.541, 39.288 112.609, 36.318 112.958 C 30.816 113.605, 29.119 115.592, 30.562 119.697 L 31.548 122.500 45.306 122.654 C 60.320 122.822, 62.331 123.468, 61.598 127.886 C 61.360 129.324, 61.127 130.817, 61.082 131.205 C 60.918 132.615, 56.006 136.862, 53.782 137.517 C 51.209 138.275, 41.992 147.526, 42.015 149.328 C 42.056 152.436, 44.015 153.499, 49.598 153.445 C 54.402 153.398, 55.550 153.016, 57.122 150.945 C 60.657 146.289, 62.156 145.198, 66.535 144.096 C 68.954 143.486, 71.891 141.978, 73.063 140.744 C 74.893 138.815, 75.126 137.639, 74.720 132.359 C 74.460 128.981, 74.539 125.746, 74.894 125.171 C 76.179 123.093, 80.764 122.218, 94.109 121.503 C 112.056 120.542, 113.465 121.150, 113.115 129.719 C 112.903 134.920, 113.214 136.101, 115.524 138.847 C 116.984 140.581, 119.123 142, 120.279 142 C 121.434 142, 125.332 143.762, 128.940 145.916 C 137.201 150.847, 146.858 153.682, 149.882 152.063 C 152.660 150.577, 152.597 146.889, 149.750 144.312 C 146.264 141.157, 136.171 137, 131.998 137 C 128.383 137, 128.194 136.828, 127.119 132.557 C 124.766 123.215, 125.311 122.713, 139 121.597 C 152.689 120.480, 155.157 120.021, 157.537 118.149 C 160.325 115.957, 159.137 113, 155.469 113 C 152.563 113, 145.995 106.981, 146.012 104.333 C 146.018 103.325, 146.701 100.025, 147.528 97 C 148.355 93.975, 149.044 87.674, 149.057 82.998 C 149.071 78.322, 149.626 70.897, 150.291 66.498 C 151.935 55.626, 151.419 43.167, 149.206 40.260 C 145.768 35.747, 127.776 34.699, 119.785 38.548 C 116.633 40.066, 115.478 40.160, 112.169 39.169 C 110.023 38.526, 105.833 38, 102.856 38 C 97.631 38, 93 36.087, 93 33.929 C 93 32.368, 88.585 26.025, 87.500 26.028 C 86.950 26.029, 86.005 26.361, 85.400 26.765 M 111 49.073 C 109.625 49.473, 106.108 49.845, 103.184 49.900 C 96.038 50.034, 94 51.250, 94 55.380 C 94 60.208, 96.801 62.378, 101.916 61.514 C 106.861 60.679, 112 61.689, 112 63.496 C 112 64.232, 112.399 64.983, 112.887 65.167 C 113.375 65.350, 113.994 72.025, 114.263 80 C 114.777 95.249, 114.495 96.707, 109.801 103.055 C 108.763 104.460, 108.188 106.326, 108.524 107.203 C 109.769 110.447, 126.492 112.389, 131.316 109.850 C 137.697 106.491, 135.604 101.604, 127.099 100.008 C 124.129 99.451, 121.091 98.491, 120.349 97.875 C 116.481 94.664, 121.082 89.979, 129.500 88.556 C 135.287 87.579, 137.156 85.798, 137.729 80.715 C 138.168 76.820, 137.912 76.076, 135.477 74.161 C 133.757 72.807, 131.310 72, 128.930 72 C 123.053 72, 119.801 70.420, 120.181 67.748 C 120.462 65.769, 121.389 65.367, 127.930 64.387 C 136.520 63.101, 139.009 61.018, 138.985 55.139 C 138.959 49.099, 138.507 48.881, 125.396 48.600 C 118.853 48.459, 112.375 48.672, 111 49.073 M 81.782 82.750 C 79.582 85.268, 78.730 91.314, 80.139 94.405 C 81.587 97.584, 88.212 99.998, 90.843 98.307 C 92.184 97.445, 92.433 95.931, 92.150 90.371 C 91.958 86.592, 91.340 82.938, 90.778 82.250 C 89.267 80.403, 83.554 80.721, 81.782 82.750" stroke="none" fill="black" fill-rule="evenodd"/>
</svg>