<svg xmlns="http://www.w3.org/2000/svg" width="256" height="256" viewBox="0 0 256 256" version="1.1">
	<path d="M 119.282 24.615 C 119.621 24.954, 118.283 26.754, 116.309 28.615 C 113.411 31.349, 111.916 32, 108.542 32 C 106.243 32, 101.992 32.704, 99.095 33.564 C 94.316 34.984, 93.401 34.984, 89.235 33.564 C 86.710 32.704, 82.654 32, 80.223 32 C 76.573 32, 75.300 31.462, 72.920 28.914 C 71.335 27.217, 69.241 25.704, 68.269 25.552 C 66.339 25.250, 60.743 30.779, 61.278 32.460 C 61.459 33.032, 60.649 34.417, 59.477 35.539 C 57.651 37.286, 56.072 37.572, 48.423 37.539 C 40.550 37.505, 39.127 37.780, 36.334 39.876 C 33.101 42.302, 31.733 45.142, 32.649 47.527 C 33.242 49.072, 38.235 51, 41.645 51 C 44.174 51, 55.818 47.270, 57.561 45.902 C 58.658 45.041, 66 49.615, 66 51.160 C 66 51.622, 66.717 52, 67.594 52 C 68.470 52, 69.423 52.900, 69.710 54 C 69.998 55.100, 70.735 56, 71.349 56 C 73.604 56, 65.219 60.868, 61.887 61.493 C 56.283 62.545, 54.145 66.738, 53.983 77 C 53.734 92.770, 55.103 106.862, 57.137 109.447 C 59.186 112.052, 67.639 114, 76.898 114 C 82.964 114, 86 115.305, 86 117.913 C 86 121.139, 83.387 122.150, 74.302 122.439 C 69.461 122.593, 59.304 123.075, 51.731 123.510 C 38.411 124.275, 37.943 124.378, 37.373 126.651 C 36.497 130.138, 37.732 133.780, 40.039 134.512 C 41.157 134.867, 51.535 135.280, 63.100 135.429 C 87.267 135.740, 87.538 135.830, 87.144 143.438 C 86.749 151.069, 90.818 156.380, 95.039 153.743 C 97.157 152.421, 97.950 149.439, 98.351 141.279 C 98.492 138.408, 98.874 135.792, 99.200 135.467 C 99.862 134.805, 130.182 133.617, 139.500 133.888 C 147.286 134.115, 151.670 133.301, 152.361 131.501 C 153.242 129.205, 151.109 124.385, 148.702 123.234 C 144.460 121.206, 142.891 121.045, 137.878 122.120 C 134.130 122.923, 130.296 122.881, 123.026 121.954 C 115.670 121.017, 112.125 120.983, 108.808 121.818 C 102.786 123.335, 98.593 122.147, 98.196 118.812 C 97.809 115.562, 99.178 115.001, 110 113.977 C 120.022 113.029, 127.143 111.552, 129.852 109.861 C 131.814 108.635, 133.459 102.539, 134.399 93 C 134.858 88.354, 135.738 83.412, 136.486 81.279 C 136.722 80.607, 136.215 79.358, 135.359 78.502 C 134.503 77.646, 133.594 75.045, 133.339 72.723 C 132.597 65.961, 132.162 64.493, 130.244 62.281 C 127.616 59.251, 120.762 57.606, 110.500 57.543 C 70.011 57.294, 70.021 57.296, 75.750 51.018 L 78.500 48.005 95.060 47.355 C 109.499 46.789, 111.944 46.917, 114.144 48.359 C 116.857 50.136, 119.937 49.616, 126.629 46.249 C 129.364 44.874, 130.707 44.838, 137.295 45.965 C 145.257 47.327, 151.071 46.825, 152.903 44.617 C 154.580 42.596, 153.054 37.081, 150.321 35.291 C 148.438 34.057, 146.274 33.842, 140.288 34.295 L 132.656 34.872 127.870 30.060 C 125.238 27.414, 123.365 24.968, 123.709 24.625 C 124.052 24.281, 123.058 24, 121.500 24 C 119.942 24, 118.944 24.277, 119.282 24.615 M 101.796 70.509 C 101.409 70.911, 94.363 71.383, 86.138 71.557 C 64.815 72.009, 59.626 73.859, 63.755 79.537 C 65.847 82.415, 66.193 82.433, 77 80.232 C 83.635 78.880, 89.322 78.572, 102.919 78.828 C 115.474 79.065, 120.990 78.808, 122.669 77.909 C 128.480 74.800, 122.441 70.987, 110.563 70.266 C 106.128 69.997, 102.183 70.107, 101.796 70.509 M 71 93.153 C 66.352 94.514, 64.085 96.997, 65.067 99.652 C 66.145 102.567, 70.145 102.886, 94.661 102.012 C 118.004 101.180, 121.764 100.323, 121.152 95.974 C 120.961 94.613, 120.587 93.275, 120.321 93 C 119.355 92.001, 74.459 92.140, 71 93.153" stroke="none" fill="black" fill-rule="evenodd"/>
</svg>