<svg xmlns="http://www.w3.org/2000/svg" width="256" height="256" viewBox="0 0 256 256" version="1.1">
	<path d="M 64.403 29.443 C 63.249 30.575, 62.017 32.682, 61.665 34.127 C 60.571 38.610, 57.136 39.977, 46.282 40.252 C 37.840 40.466, 36.047 40.823, 33.195 42.858 C 28.948 45.887, 29.229 48.842, 34 51.312 C 37.503 53.125, 44.286 53.153, 56.520 51.408 C 61.027 50.764, 62.208 51.642, 65.994 58.450 C 67.848 61.784, 68.092 63.342, 67.562 68.450 C 67.217 71.777, 66.705 76.975, 66.424 80 C 65.800 86.711, 63.536 89.400, 58.508 89.400 C 53.554 89.400, 51.836 87.253, 51.466 80.597 C 51.269 77.043, 50.363 73.706, 48.996 71.493 C 46.036 66.704, 44.455 66.865, 40.216 72.385 C 38.333 74.836, 38 76.532, 38 83.675 C 38 93.127, 40.003 98.593, 44.313 100.900 C 46.356 101.993, 47.696 102.007, 51.724 100.974 C 57.761 99.427, 61.872 100.547, 63.998 104.318 C 65.220 106.484, 65.266 107.345, 64.248 108.974 C 63.562 110.073, 63 111.627, 63 112.427 C 63 114.812, 61.211 115.260, 52.377 115.086 C 45.899 114.958, 42.939 115.376, 39.485 116.904 C 34.301 119.197, 33.879 120.943, 37.116 126.706 C 39.551 131.042, 39.318 138.551, 36.584 143.838 C 33.434 149.929, 35.337 156, 40.397 156 C 44.667 156, 52 145.579, 52 139.511 C 52 131.440, 54.407 127.124, 60.210 124.785 C 62.883 123.708, 65.057 128.836, 65.979 138.390 C 66.941 148.367, 68.193 151.675, 71.589 153.223 C 73.865 154.259, 74.412 154.157, 75.653 152.460 C 78.178 149.008, 78.352 145.841, 76.609 135.055 C 74.890 124.415, 74.868 115.738, 76.485 84.668 C 76.887 76.943, 76.710 71.650, 75.974 69.420 C 75.354 67.542, 74.789 63.563, 74.719 60.578 C 74.547 53.215, 76.886 51.235, 86 51.032 C 89.575 50.952, 96.325 50.732, 101 50.543 C 106.335 50.327, 111.176 50.712, 114 51.576 C 117.792 52.737, 119.510 52.742, 124.923 51.611 C 128.456 50.872, 135.431 50.180, 140.423 50.073 C 153.385 49.795, 159.367 45.785, 154.117 40.894 C 150.635 37.651, 147.010 36.828, 139.356 37.546 L 132.176 38.219 127.838 33.769 C 121.888 27.667, 120.539 27.345, 118.543 31.550 C 116.388 36.091, 114.299 37.050, 105.175 37.686 C 96.083 38.319, 77.250 38.127, 74.719 37.375 C 73.739 37.084, 72.019 34.891, 70.896 32.502 C 68.455 27.309, 67.188 26.712, 64.403 29.443 M 113.150 64.234 C 109.808 66.296, 109.801 66.317, 110.397 72.401 C 110.884 77.375, 110.580 79.497, 108.747 83.907 C 105.531 91.645, 102.546 93.545, 94.014 93.287 C 88.441 93.119, 86.687 93.458, 84.584 95.113 C 81.599 97.461, 81.316 100.026, 83.649 103.586 C 85.258 106.043, 85.549 106.097, 96.082 105.874 C 103.345 105.720, 107.343 106.039, 108.322 106.852 C 110.600 108.743, 112.774 132.686, 110.973 136.050 C 109.849 138.151, 105.823 139.738, 100 140.376 C 94.092 141.023, 87.995 142.605, 86.800 143.800 C 86.274 144.326, 85.991 146.031, 86.172 147.589 C 86.407 149.616, 87.211 150.617, 89 151.111 C 92.624 152.111, 106.309 152.056, 115 151.007 C 119.801 150.427, 128.451 150.501, 139.034 151.213 C 148.128 151.825, 156.790 152.019, 158.284 151.644 C 161.937 150.727, 162.017 146.712, 158.428 144.361 C 155.471 142.423, 144.797 140.210, 134.184 139.333 C 127.771 138.803, 126.661 138.412, 125.187 136.162 C 124.262 134.751, 123.435 131.549, 123.349 129.048 C 123.263 126.547, 122.930 123.150, 122.608 121.500 C 122.286 119.850, 121.743 115.800, 121.401 112.500 C 120.852 107.198, 121.028 106.276, 122.912 104.575 C 124.797 102.873, 126.448 102.672, 137.189 102.840 C 148.332 103.013, 149.609 102.842, 152.660 100.764 C 156.427 98.200, 156.750 96.533, 154.136 93.134 C 152.406 90.885, 151.661 90.755, 138.946 90.481 C 126.544 90.215, 125.446 90.034, 123.788 87.986 C 122.140 85.951, 121.519 83.827, 121.926 81.618 C 122.394 79.076, 122.029 65.238, 121.454 63.740 C 120.581 61.465, 117.322 61.658, 113.150 64.234" stroke="none" fill="black" fill-rule="evenodd"/>
</svg>