<svg xmlns="http://www.w3.org/2000/svg" width="256" height="256" viewBox="0 0 256 256" version="1.1">
	<path d="M 115.881 25 C 112.627 28.598, 110.618 30, 108.717 30 C 107.263 30, 103.791 30.900, 101 32 C 98.209 33.100, 95.127 34, 94.151 34 C 93.174 34, 90.513 33.100, 88.236 32 C 85.959 30.900, 82.128 30, 79.723 30 C 76.438 30, 74.805 29.421, 73.165 27.676 C 71.964 26.398, 71.269 25.064, 71.620 24.713 C 71.971 24.362, 71.075 23.536, 69.629 22.877 C 66.750 21.565, 62 22.940, 62 25.084 C 62 25.704, 60.872 27.552, 59.493 29.190 C 58.115 30.829, 57.212 32.534, 57.488 32.980 C 58.327 34.339, 55.179 35, 47.869 35 C 38.532 35, 33.152 37.927, 31.726 43.783 C 30.378 49.319, 42.814 50.783, 51.527 46.114 C 56.128 43.648, 60.310 43.393, 62.179 45.465 C 65.153 48.764, 66 49.962, 66 50.874 C 66 51.402, 66.563 52.043, 67.250 52.300 C 68.124 52.626, 67.846 53.446, 66.325 55.030 C 63.990 57.461, 58.016 58.840, 49.385 58.940 C 43.503 59.009, 40.122 61.116, 37.699 66.223 C 36.187 69.408, 36.349 71.711, 38.824 82.250 C 38.921 82.662, 39 83.395, 39 83.879 C 39 84.362, 40.301 85.296, 41.891 85.955 C 44.188 86.906, 45.216 86.882, 46.891 85.836 C 49.298 84.333, 49.478 83.142, 47.841 79.551 C 46.235 76.026, 48.467 73.781, 55.779 71.567 C 60.463 70.149, 63.928 69.925, 74.513 70.358 C 81.656 70.651, 88.400 70.907, 89.500 70.927 C 92.917 70.992, 110.996 70.127, 122 69.374 C 134.594 68.511, 135.668 68.627, 139.354 71.252 C 142.151 73.244, 145.571 79.354, 145.166 81.636 C 144.929 82.970, 147.764 84.264, 149.107 83.434 C 149.616 83.119, 149.753 82.410, 149.412 81.857 C 149.070 81.304, 149.681 79.873, 150.770 78.676 C 155.339 73.655, 156.119 68.837, 153.446 62.156 C 151.446 57.159, 148.746 56, 139.102 56 C 129.602 56, 125.662 54.748, 124.054 51.220 C 122.936 48.765, 123.095 48.305, 125.941 45.761 C 128.928 43.092, 129.431 42.991, 138.775 43.173 C 150.310 43.398, 152.011 42.944, 154.324 39.028 C 155.987 36.214, 155.989 35.913, 154.366 33.436 C 152.201 30.132, 148.591 28.737, 144.045 29.448 C 132.924 31.186, 132.013 31.117, 129.440 28.340 C 128.087 26.881, 127.214 25.453, 127.499 25.167 C 128.352 24.315, 123.783 20, 122.027 20 C 121.134 20, 118.368 22.250, 115.881 25 M 76 47.314 C 71.297 51.548, 70.634 52.777, 72.207 54.350 C 72.981 55.123, 74.994 56.059, 76.681 56.430 C 79.410 57.029, 80.095 56.667, 82.875 53.158 C 86.339 48.784, 86.801 46.522, 84.418 45.607 C 81.444 44.466, 78.501 45.063, 76 47.314 M 103.750 46.162 C 102.237 46.715, 101 47.579, 101 48.083 C 101 48.587, 100.325 49, 99.500 49 C 97.763 49, 97.516 52.227, 99.035 55.066 C 99.893 56.669, 101.166 57, 106.478 57 C 111.967 57, 113.110 56.681, 114.443 54.777 C 116.297 52.131, 116.474 47.874, 114.800 46.200 C 113.374 44.774, 107.605 44.754, 103.750 46.162 M 87.842 73.458 C 87.654 73.628, 85.079 74.054, 82.120 74.405 C 79.160 74.756, 76.460 75.214, 76.120 75.423 C 75.779 75.631, 73.777 76.075, 71.671 76.408 C 65.350 77.409, 60 81.122, 60 84.509 C 60 87.277, 65.888 88.995, 71.369 87.826 C 74.549 87.148, 81.273 87.115, 91.332 87.730 C 116.383 89.260, 122.136 88.302, 123.261 82.416 C 123.612 80.577, 122.985 79.324, 120.789 77.476 C 118.216 75.311, 116.821 74.986, 109.673 74.889 C 99.497 74.750, 93.140 74.350, 90.342 73.673 C 89.154 73.385, 88.029 73.289, 87.842 73.458 M 87.541 91.792 C 87.364 91.969, 81.810 92.274, 75.199 92.468 C 60.331 92.905, 56.433 94.328, 56.631 99.245 C 56.702 101.035, 57.106 103.805, 57.527 105.401 C 57.964 107.056, 57.860 108.994, 57.286 109.914 C 56.312 111.474, 56.326 114.387, 57.368 126 C 58.144 134.656, 57.973 134.437, 67 138.290 C 70.579 139.818, 73.395 139.851, 94 138.611 C 114.739 137.362, 119.383 136.866, 122.418 135.578 C 126.201 133.972, 131.338 128.322, 130.648 126.525 C 130.370 125.800, 131.010 123.586, 132.071 121.607 C 133.132 119.627, 134 116.881, 134 115.504 C 134 114.127, 134.553 113, 135.228 113 C 135.903 113, 134.805 111.639, 132.788 109.977 C 129.136 106.966, 129.127 106.940, 130.782 104.058 C 133.072 100.067, 131.571 96.035, 126.977 93.836 C 124.295 92.553, 121.099 92.226, 113 92.406 C 107.225 92.534, 99.207 92.376, 95.182 92.054 C 91.157 91.733, 87.719 91.615, 87.541 91.792 M 82.500 104.925 C 72.085 105.612, 69 106.405, 69 108.392 C 69 109.268, 75.355 109.541, 93.750 109.455 C 107.363 109.391, 118.950 109.210, 119.500 109.051 C 120.050 108.893, 120.838 108.816, 121.250 108.882 C 122.959 109.151, 121.826 107.884, 119.602 107.039 C 114.121 104.955, 96.912 103.975, 82.500 104.925 M 88.525 122.813 C 88.350 122.986, 84.673 123.133, 80.353 123.140 C 71.893 123.155, 69 123.631, 69 125.009 C 69 126.107, 118.803 126.128, 119.481 125.031 C 119.754 124.589, 119.326 123.686, 118.530 123.025 C 117.508 122.177, 112.928 121.923, 102.963 122.162 C 95.197 122.348, 88.700 122.641, 88.525 122.813 M 57.020 142.722 C 53.196 143.495, 50.116 143.614, 48.620 143.046 C 43.660 141.160, 38.540 143.012, 37.073 147.222 C 35.888 150.620, 37.161 152.299, 42 153.719 C 44.689 154.508, 94.774 154.513, 130.245 153.728 C 153.243 153.219, 158 152.375, 158 148.807 C 158 146.594, 156.569 144.925, 152.979 142.955 C 149.577 141.087, 66.101 140.884, 57.020 142.722" stroke="none" fill="black" fill-rule="evenodd"/>
</svg>