<svg xmlns="http://www.w3.org/2000/svg" width="256" height="256" viewBox="0 0 256 256" version="1.1">
	<path d="M 67.384 21.765 C 65.923 22.728, 62 30.494, 62 32.425 C 62 35.402, 58.373 36.193, 50.664 34.898 C 42.076 33.455, 38.742 34.104, 34.872 37.974 C 31.507 41.339, 31.277 43.277, 33.928 45.928 C 37.352 49.352, 43.950 49.563, 53.595 46.556 C 62.856 43.668, 63.298 43.732, 68.512 48.712 C 69.618 49.769, 71.294 51.065, 72.235 51.592 C 73.783 52.458, 73.805 52.821, 72.473 55.389 C 69.614 60.900, 71.125 64.920, 76.905 67.184 C 78.332 67.743, 84.450 68.319, 90.500 68.464 C 103.947 68.786, 104 68.792, 104 69.879 C 104 71.715, 98.169 72.907, 89.323 72.880 C 84.275 72.864, 79.217 73.349, 78.083 73.956 C 75.212 75.492, 73.377 79.652, 73.090 85.275 C 72.955 87.902, 72.496 91.277, 72.069 92.775 C 71.113 96.131, 71.910 111.854, 73.159 114.250 C 74.618 117.051, 80.531 116.557, 83.257 113.408 C 86.663 109.472, 88.518 108.793, 92.754 109.932 C 94.814 110.486, 99.801 111.407, 103.836 111.978 C 110.388 112.906, 111.658 112.802, 115.713 111.009 C 121.463 108.465, 126.170 108.425, 128.410 110.901 C 129.853 112.495, 129.961 113.433, 129.076 116.716 C 128.497 118.869, 126.857 121.726, 125.432 123.065 C 123.032 125.322, 122.098 125.497, 112.671 125.464 C 107.077 125.445, 96.084 124.833, 88.242 124.104 C 75.398 122.911, 73.741 122.939, 71.528 124.390 C 68.058 126.663, 66.818 126.425, 63.716 122.890 C 61.273 120.106, 60.595 119.852, 57.244 120.471 C 52.162 121.409, 49.361 124.274, 48.698 129.211 C 48.396 131.464, 47.292 134.475, 46.245 135.904 C 43.163 140.108, 40.749 149.349, 42.323 150.923 C 44.249 152.849, 48.970 152.121, 51.600 149.491 C 53.516 147.575, 54.010 146.216, 53.692 143.741 C 53.428 141.687, 54.049 139.035, 55.387 136.500 C 57.892 131.758, 58.387 131.336, 63.181 129.859 C 66.598 128.806, 67.166 128.949, 71.128 131.862 C 73.474 133.588, 76.117 135, 77.001 135 C 77.885 135, 80.725 136.342, 83.312 137.983 C 90.280 142.402, 92.075 142.577, 98.700 139.486 C 107.748 135.266, 123.921 134.745, 125.410 138.627 C 126.060 140.321, 125.252 142.035, 120.316 149.419 C 117.923 153, 117.330 154.719, 117.929 156.342 C 119.625 160.936, 125.026 159.711, 131.469 153.269 C 136.604 148.134, 138 145.509, 138 140.982 C 138 136.021, 139.967 133.260, 145.065 131.067 C 147.708 129.930, 150.283 129, 150.786 129 C 151.290 129, 151.614 127.763, 151.507 126.250 C 151.227 122.276, 151.184 122.193, 149.108 121.534 C 146.835 120.813, 145.906 117.920, 147.202 115.603 C 147.720 114.679, 148.331 112.029, 148.562 109.714 C 148.792 107.400, 149.437 105.354, 149.996 105.168 C 150.555 104.982, 150.723 104.361, 150.369 103.789 C 150.016 103.216, 149.627 101.107, 149.506 99.101 C 149.385 97.095, 148.537 94.006, 147.623 92.237 C 146.708 90.468, 146.037 88.904, 146.131 88.760 C 146.225 88.617, 145.992 86.435, 145.614 83.911 C 145.102 80.500, 144.202 78.786, 142.108 77.238 C 137.898 74.125, 131.535 72.669, 127.685 73.937 C 122.910 75.509, 119.739 75.549, 116.195 74.081 C 106.961 70.256, 118.104 65.072, 135.500 65.099 C 140.450 65.107, 145.504 65.088, 146.731 65.057 C 148.253 65.018, 149.162 64.205, 149.590 62.497 C 150.107 60.439, 149.400 59.188, 145.609 55.451 C 139.091 49.025, 139.503 47.498, 148.693 44.043 C 151.722 42.904, 154.055 41.238, 155 39.540 C 156.457 36.921, 156.387 36.745, 152.500 33.330 C 148.746 30.033, 148.192 29.855, 143.500 30.441 C 127.209 32.477, 128.390 32.590, 124.422 28.622 C 122.430 26.630, 121.125 25, 121.522 25 C 122.963 25, 119.881 22.202, 117.857 21.673 C 116.483 21.314, 114.970 21.939, 113.391 23.518 C 108.507 28.402, 101.898 32.797, 98.470 33.440 C 94.362 34.210, 80.767 30.533, 78.531 28.047 C 73.202 22.122, 71.890 21.002, 70.295 21.015 C 69.308 21.024, 67.998 21.361, 67.384 21.765 M 88 44.653 C 79.782 45.514, 78.413 46.031, 76.712 48.910 C 75.771 50.504, 75 52.039, 75 52.322 C 75 52.604, 77.003 53.599, 79.450 54.534 C 83.355 56.026, 85.080 56.095, 93.526 55.099 C 104.899 53.757, 111.109 51.133, 110.293 48.013 C 110.001 46.894, 108.802 45.784, 107.631 45.546 C 104.075 44.824, 91.724 44.262, 88 44.653 M 123.768 47 C 123.081 48.100, 121.982 49, 121.327 49 C 119.498 49, 118.548 53.099, 120.143 54.110 C 122.842 55.819, 126.102 54.932, 129.765 51.491 C 133.379 48.096, 133.437 47.934, 131.559 46.491 C 128.838 44.401, 125.244 44.636, 123.768 47 M 48.308 58.010 C 47.103 58.495, 45.372 60.028, 44.463 61.417 C 42.900 63.802, 42.922 64.085, 44.851 66.537 C 47.784 70.267, 53.991 75, 55.949 75 C 58.720 75, 62 71.184, 62 67.961 C 62 66.332, 61.550 65, 61 65 C 60.450 65, 60 64.462, 60 63.805 C 60 61.767, 54.737 56.997, 52.563 57.063 C 51.428 57.098, 49.514 57.524, 48.308 58.010 M 119 84.298 C 115.765 86.976, 115.095 89.486, 116.718 92.837 C 117.561 94.577, 118.644 96, 119.125 96 C 119.606 96, 119.947 96.338, 119.882 96.750 C 119.547 98.868, 120.221 99.809, 122.365 100.219 C 125.146 100.750, 129.142 98.324, 127.330 97.204 C 126.613 96.761, 127.692 95.746, 130.154 94.549 C 134.738 92.319, 137.203 89, 134.276 89 C 133.289 89, 131.954 88.156, 131.310 87.124 C 130.665 86.093, 128.500 84.941, 126.498 84.566 C 124.496 84.190, 122.327 83.697, 121.679 83.470 C 121.031 83.242, 119.825 83.615, 119 84.298 M 88.591 87.173 C 86.233 90.541, 86.632 92.483, 90.250 95.236 C 93.761 97.908, 95.042 97.770, 99.459 94.244 C 101.989 92.224, 102.189 91.647, 101.360 88.744 C 100.488 85.688, 100.138 85.483, 95.308 85.201 C 90.924 84.945, 89.952 85.230, 88.591 87.173 M 34.223 88.557 C 32.672 89.643, 32 91.134, 32 93.489 C 32 98.130, 35.678 100.540, 45.910 102.602 C 53.645 104.160, 54.173 104.154, 56.035 102.468 C 57.116 101.490, 58 99.592, 58 98.249 C 58 94.862, 54.926 89.992, 52.510 89.551 C 51.405 89.350, 48.103 88.693, 45.174 88.093 C 38.157 86.653, 36.862 86.708, 34.223 88.557" stroke="none" fill="black" fill-rule="evenodd"/>
</svg>