<svg xmlns="http://www.w3.org/2000/svg" width="256" height="256" viewBox="0 0 256 256" version="1.1">
	<path d="M 64.500 23.226 C 63.400 23.858, 61.673 25.424, 60.662 26.707 C 57.575 30.624, 53.560 32.089, 46.615 31.833 C 39.744 31.579, 35.135 33.514, 34.848 36.773 C 34.764 37.723, 34.621 39.175, 34.531 40 C 34.441 40.825, 35.263 42.513, 36.358 43.750 C 38.880 46.600, 43.304 46.663, 51.898 43.969 C 57.732 42.140, 58.502 42.099, 60.648 43.505 C 62.680 44.837, 63.168 46.158, 62.956 49.750 C 62.931 50.163, 61.608 50.362, 60.014 50.194 C 55.468 49.713, 51.632 52.386, 47.453 58.946 C 45.188 62.501, 42.887 65, 41.880 65 C 38.681 65, 37.004 66.204, 33.998 70.658 C 30.760 75.457, 29.957 81, 32.500 81 C 33.325 81, 34 81.374, 34 81.831 C 34 82.288, 35.075 83.238, 36.390 83.941 C 39.800 85.766, 41.212 89.324, 39.886 92.746 C 38.715 95.769, 38.099 113.001, 39.162 113 C 39.526 113, 40.145 114.897, 40.536 117.215 C 41.491 122.866, 46.214 127.468, 49.925 126.361 C 53.040 125.432, 57.619 125.471, 65.136 126.491 C 70.057 127.159, 71.308 126.955, 74.998 124.881 L 79.224 122.506 81.862 125.625 C 83.313 127.340, 85.471 129.043, 86.658 129.410 C 87.844 129.776, 89.051 130.691, 89.339 131.442 C 90.018 133.210, 89.025 137, 87.883 137 C 87.398 137, 87 137.675, 87 138.500 C 87 139.325, 86.213 139.993, 85.250 139.985 C 83.754 139.972, 83.718 139.828, 85 139 C 86.236 138.201, 86.139 138.028, 84.446 138.015 C 83.317 138.007, 80.842 136.388, 78.946 134.418 C 73.635 128.897, 72.027 128.313, 69.900 131.131 C 68.301 133.249, 67.232 133.524, 59.806 133.729 C 55.238 133.855, 50.375 134.007, 49 134.068 C 47.625 134.128, 44.355 133.610, 41.734 132.916 C 37.076 131.684, 36.900 131.722, 33.897 134.578 C 31.263 137.083, 30.895 138.035, 31.317 141.250 C 31.609 143.474, 31.391 145, 30.780 145 C 28.867 145, 30.942 151.451, 33.610 153.798 C 35.944 155.850, 36.449 155.946, 38.333 154.695 C 39.494 153.924, 41.281 151.765, 42.304 149.897 C 44.281 146.290, 47.738 143.059, 49.661 143.022 C 50.299 143.010, 51.848 145.137, 53.103 147.750 C 57.160 156.195, 59.585 156.392, 62.316 148.498 C 63.077 146.299, 64.458 144.351, 65.387 144.170 C 66.336 143.984, 68.858 145.623, 71.155 147.920 C 73.399 150.164, 75.563 152, 75.965 152 C 77.847 152, 81.209 147.907, 80.754 146.168 C 79.465 141.237, 84.795 139.298, 88.964 143.181 C 91.213 145.276, 91.420 145.296, 94.233 143.681 C 95.844 142.756, 98.363 141.997, 99.831 141.994 C 105.490 141.983, 109.774 139.982, 113.267 135.719 C 115.180 133.385, 118.040 130.805, 119.623 129.987 C 121.205 129.169, 123.088 127.712, 123.807 126.750 C 125.537 124.432, 129.669 124.513, 130.941 126.890 C 131.762 128.424, 131.562 128.881, 129.875 129.322 C 128.733 129.621, 128.086 130.330, 128.437 130.898 C 128.788 131.467, 128.106 133.832, 126.921 136.155 C 124.311 141.270, 124.762 148.260, 128.043 153.569 C 130.731 157.918, 133.445 158.030, 134.902 153.851 C 136.309 149.815, 136.328 139.321, 134.930 138.457 C 133.069 137.306, 132.227 133.595, 133.296 131.250 C 134.176 129.319, 135.090 129, 139.753 129 C 143.670 129, 145.893 129.558, 147.727 131 C 150.162 132.916, 156.890 133.813, 157.101 132.250 C 158.169 124.359, 158.004 123.806, 153.186 119.088 C 150.203 116.167, 147.017 114.105, 144.529 113.483 C 141.309 112.679, 139.862 111.434, 136.594 106.656 L 132.598 100.812 135.049 98.928 C 136.832 97.557, 139.187 97.038, 143.694 97.022 C 148.729 97.004, 150.398 96.561, 152.612 94.658 C 155.883 91.844, 155.470 90.223, 150.522 86.449 C 147.207 83.921, 144.538 83.244, 137.143 83.059 C 135.542 83.019, 134.959 82.549, 135.326 81.594 C 135.622 80.821, 134.942 79.358, 133.815 78.344 C 127.716 72.860, 131.891 65, 140.903 65 C 144.793 65, 149 63.064, 149 61.274 C 149 55.777, 141.831 53.008, 133.657 55.350 C 127.160 57.210, 120.371 58.792, 111.751 60.453 C 103.629 62.018, 101.332 63.475, 103.528 65.671 C 104.338 66.480, 105 67.464, 105 67.856 C 105 69.558, 111.170 72, 115.470 72 C 123.663 72, 125.620 74.444, 122.475 80.749 C 120.518 84.673, 118.960 85.208, 111.837 84.402 C 107.777 83.943, 106 84.085, 106 84.871 C 106 85.492, 105.438 86.015, 104.750 86.033 C 101.905 86.109, 99 89.819, 99 93.375 C 99 98.186, 101.291 99.254, 110.714 98.835 C 120.359 98.406, 121.275 99.430, 118.144 107.144 C 116.941 110.110, 114.617 114.104, 112.980 116.018 C 111.344 117.933, 110.004 119.838, 110.002 120.250 C 110.001 120.662, 109.521 121, 108.935 121 C 108.349 121, 105.410 123.539, 102.404 126.643 C 97.069 132.152, 96.896 132.241, 95.122 130.393 C 93.669 128.879, 93.492 127.900, 94.239 125.500 C 97.062 116.431, 97.298 114.713, 96.154 111.550 C 95.519 109.795, 95 107.640, 95 106.762 C 95 105.885, 94.560 105.017, 94.022 104.833 C 93.413 104.626, 93.545 102.606, 94.372 99.477 C 95.716 94.391, 95.870 90.536, 94.773 89.439 C 94.251 88.918, 94.587 83.281, 95.265 81.182 C 95.704 79.825, 87.270 73, 85.154 73 C 83.321 73, 83.129 72.581, 83.662 69.750 C 83.999 67.963, 84.881 65.797, 85.622 64.939 C 86.680 63.712, 86.726 62.734, 85.834 60.371 C 84.838 57.731, 83.836 57.138, 77.600 55.492 C 73.695 54.462, 69.713 53.733, 68.750 53.872 C 67.787 54.012, 67 53.647, 67 53.063 C 67 52.478, 67.863 52, 68.917 52 C 69.971 52, 72.337 50.190, 74.174 47.979 C 77.020 44.553, 78.107 43.947, 81.507 43.886 C 83.703 43.847, 86.963 43.372, 88.750 42.830 C 91.562 41.978, 92 41.400, 92 38.541 C 92 34.360, 87.342 30.532, 80.352 28.970 C 77.684 28.373, 74.375 26.836, 73 25.555 C 69.775 22.549, 67.001 21.789, 64.500 23.226 M 122.015 24.750 C 122.007 25.438, 121.274 26, 120.386 26 C 119.499 26, 117.136 26.867, 115.136 27.926 C 113.136 28.986, 108.932 30.616, 105.793 31.550 C 102.655 32.483, 99.411 33.994, 98.584 34.907 C 97.236 36.396, 97.316 36.863, 99.352 39.417 C 101.449 42.047, 102.383 42.340, 111.562 43.244 C 117.028 43.782, 122.625 44.181, 124 44.131 C 125.375 44.081, 132.488 43.918, 139.806 43.770 C 152.673 43.509, 153.176 43.417, 155.034 41 C 157.532 37.750, 157.485 35.886, 154.819 32.496 L 152.637 29.723 143.042 30.352 C 133.985 30.945, 133.169 30.833, 128.474 28.349 C 125.738 26.902, 123.169 25.219, 122.765 24.609 C 122.252 23.835, 122.026 23.877, 122.015 24.750 M 57.500 67.412 C 54.361 68.307, 53.437 69.090, 53.206 71.045 C 52.949 73.226, 53.487 73.707, 57.512 74.895 C 61.614 76.107, 62.538 76.061, 66.056 74.475 C 70.519 72.462, 70.691 72.043, 68.250 69.142 C 66.036 66.512, 62.595 65.958, 57.500 67.412 M 74.500 82.949 C 72.404 83.810, 67 89.430, 67 90.748 C 67 91.732, 74.237 94, 77.377 94 C 81.028 94, 82.445 87.488, 79.608 83.750 C 78.151 81.830, 77.479 81.725, 74.500 82.949 M 51.559 86.532 C 50.491 87.339, 50.041 88.007, 50.559 88.015 C 51.076 88.024, 50.825 88.461, 50 88.987 C 48.842 89.725, 48.751 90.349, 49.601 91.722 C 50.781 93.628, 56.893 94.746, 57.895 93.239 C 58.228 92.738, 59.400 91.835, 60.500 91.232 C 62.456 90.159, 62.458 90.118, 60.576 89.394 C 59.518 88.986, 57.831 87.831, 56.826 86.826 C 54.646 84.646, 54.092 84.615, 51.559 86.532 M 51.615 107.465 C 48.321 112.491, 49.278 113.392, 57.500 113.006 C 63.576 112.721, 64.647 111.285, 61.352 107.845 C 57.879 104.220, 53.844 104.063, 51.615 107.465 M 71.250 107.641 C 70.013 108.977, 69 110.415, 69 110.836 C 69 111.257, 71.084 112.614, 73.631 113.852 L 78.263 116.102 80.631 113.877 C 83.010 111.642, 83.521 109.522, 82.393 106.582 C 81.392 103.973, 73.996 104.676, 71.250 107.641" stroke="none" fill="black" fill-rule="evenodd"/>
</svg>