<svg xmlns="http://www.w3.org/2000/svg" width="256" height="256" viewBox="0 0 256 256" version="1.1">
	<path d="M 88.343 22.249 C 85.699 23.442, 84.403 28.130, 84.120 37.518 C 83.890 45.149, 82.602 49.143, 79.810 50.886 C 78.815 51.508, 74.047 52.425, 69.215 52.925 C 56.220 54.270, 42.257 58.282, 41.895 60.776 C 41.837 61.174, 41.689 69.600, 41.567 79.500 C 41.358 96.437, 37.915 127.577, 36.094 129 C 34.331 130.378, 31.837 135.526, 30.561 140.426 C 28.895 146.825, 29.968 152.922, 32.797 153.118 C 38.292 153.501, 40.385 151.318, 41.847 143.681 C 43.080 137.240, 47.059 130.650, 51.195 128.200 C 53.771 126.674, 54.178 126.748, 60.401 129.875 C 63.982 131.675, 67.165 133.943, 67.473 134.916 C 68.229 137.295, 63.842 144.922, 58.845 149.919 C 56.320 152.445, 54.999 154.556, 55.359 155.492 C 56.276 157.882, 62.510 157.353, 66.788 154.522 C 68.848 153.159, 72.034 151.743, 73.868 151.376 C 77.576 150.635, 89.107 152.044, 105 155.180 C 119.791 158.099, 130.838 158.740, 142.517 157.356 C 153.832 156.015, 157.234 154.799, 159.023 151.457 C 160.718 148.290, 159.824 146.545, 154.919 143.449 C 150.995 140.972, 150.472 140.888, 146.286 142.060 C 141.800 143.316, 111.241 142.797, 107.609 141.404 C 105.180 140.471, 105.665 138.624, 108.983 136.170 C 113.142 133.096, 115.248 128.504, 115.384 122.210 C 115.516 116.093, 117.318 114, 122.451 114 C 125.975 114, 128.966 117.434, 127.082 119.318 C 125.544 120.856, 125.743 125.188, 127.465 127.647 C 129.394 130.400, 134.999 133, 139.007 133 C 140.966 133, 143.366 133.972, 145.182 135.500 C 148.932 138.655, 150.823 138.647, 154.260 135.460 C 160.353 129.810, 154.918 120.729, 146.831 123.048 C 144.896 123.603, 143.993 123.425, 143.604 122.409 C 143.306 121.634, 142.406 121, 141.604 121 C 140.801 121, 139.351 119.200, 138.380 117 C 137.409 114.800, 136.243 113, 135.788 113 C 135.333 113, 135.166 111.867, 135.417 110.482 C 135.908 107.777, 131.916 103.069, 129.010 102.926 C 126.765 102.815, 122.705 102.053, 121 101.421 C 118.036 100.323, 123.118 98.748, 133.870 97.432 C 144.961 96.075, 147.899 94.548, 146.054 91.100 C 144.929 88.999, 136.534 86.322, 126.777 84.954 C 119.081 83.875, 118.092 83.940, 108.373 86.169 C 99.807 88.133, 93.847 84.112, 99.671 80.296 C 101.597 79.034, 102.789 78.961, 106.447 79.882 C 108.888 80.497, 112.989 81, 115.560 81 C 119.670 81, 120.712 80.523, 124.182 77.054 C 127.304 73.931, 127.934 72.731, 127.199 71.304 C 126.688 70.312, 126.441 69.030, 126.650 68.455 C 126.859 67.880, 126.058 66.366, 124.870 65.091 C 122.016 62.027, 116.470 62.600, 107.613 66.872 C 99.957 70.564, 98.598 70.691, 96.643 67.901 C 95.521 66.298, 95.412 65.116, 96.184 62.901 C 96.741 61.305, 97.489 59.941, 97.848 59.868 C 98.207 59.795, 107.170 59.646, 117.767 59.536 C 137.851 59.328, 139.217 59.592, 138.853 63.617 C 138.505 67.471, 139.069 68.712, 141.750 69.993 C 148.079 73.017, 153 71.148, 153 65.720 C 153 63.942, 153.379 61.140, 153.842 59.493 C 154.848 55.915, 152.764 50, 150.497 50 C 149.674 50, 149 49.648, 149 49.217 C 149 48.024, 129.770 45.999, 118.441 46 C 111.145 46, 107.849 46.403, 106.441 47.468 C 105.374 48.276, 102.975 48.951, 101.110 48.968 C 95.210 49.024, 93.632 43.781, 98.575 40.543 C 100.719 39.138, 101.324 39.146, 105.031 40.629 C 109.321 42.346, 120.190 42.050, 131.475 39.910 C 138.146 38.645, 139.345 37.374, 137.779 33.225 C 135.666 27.628, 126.025 25.968, 110.957 28.606 L 100.683 30.404 97.092 26.349 C 92.937 21.657, 91.326 20.903, 88.343 22.249 M 63.601 65.105 C 53.246 66.615, 51.860 68.585, 54.030 78.705 C 54.861 82.581, 54.670 85.436, 53.039 93.504 C 51.015 103.521, 50.471 111.458, 51.607 114.418 C 53.007 118.067, 59.267 114.533, 60.428 109.437 C 60.796 107.822, 62.331 104.700, 63.839 102.500 C 67.487 97.178, 70.636 96.810, 75.952 101.082 C 79.401 103.853, 81.009 104.386, 87.723 104.978 C 92.001 105.355, 96.513 106.298, 97.750 107.073 C 100.169 108.587, 100.867 113, 98.687 113 C 97.965 113, 96.117 114.313, 94.580 115.917 C 92.158 118.444, 91.836 119.469, 92.164 123.600 C 92.477 127.527, 92.144 128.765, 90.272 130.637 C 87.073 133.836, 87.419 136.232, 91.385 138.368 C 96.644 141.200, 98.473 140.333, 98.642 134.927 C 98.720 132.427, 99.980 127.392, 101.442 123.737 C 103.943 117.486, 104.008 116.917, 102.550 114.096 C 100.290 109.726, 100.593 108.857, 105.695 105.101 C 109.850 102.041, 110.140 101.576, 108.597 100.447 C 107.653 99.757, 104.143 98.710, 100.797 98.121 C 93.713 96.873, 91.733 95.388, 90.163 90.149 C 88.275 83.849, 82.464 82.372, 74.264 86.107 C 67.704 89.096, 59 87.634, 59 83.544 C 59 82.878, 60.690 80.502, 62.756 78.264 C 65.890 74.870, 67.340 74.092, 71.506 73.569 C 77.639 72.798, 83.363 70.093, 83.811 67.753 C 84.483 64.242, 76.596 63.208, 63.601 65.105 M 71.315 117.405 C 68.650 119.698, 68.599 119.900, 70.235 121.707 C 73.853 125.705, 83.486 121.314, 81.641 116.508 C 80.710 114.081, 74.558 114.616, 71.315 117.405" stroke="none" fill="black" fill-rule="evenodd"/>
</svg>