<svg xmlns="http://www.w3.org/2000/svg" width="256" height="256" viewBox="0 0 256 256" version="1.1">
	<path d="M 123.229 22.742 C 121.073 23.486, 119 28.680, 119 33.340 C 119 36.304, 118.342 38.563, 117.019 40.139 L 115.037 42.500 111.375 38.178 C 107.229 33.282, 105.101 33.177, 99.317 37.578 C 95.451 40.519, 94.006 40.584, 89.774 38.004 C 85.204 35.217, 82.872 35.495, 79.306 39.250 C 74.845 43.948, 74.405 46.314, 77.428 49.337 C 81.315 53.224, 83.478 53.463, 88.647 50.574 C 94.188 47.477, 94.957 47.437, 99.739 50 C 101.791 51.100, 104.463 52, 105.676 52 C 108.192 52, 109.256 53.206, 108.462 55.160 C 108.163 55.897, 104.591 58.723, 100.524 61.440 L 93.130 66.379 95.815 68.688 C 97.292 69.958, 98.822 70.998, 99.215 70.999 C 99.608 70.999, 100.455 71.982, 101.098 73.183 C 102.092 75.040, 101.934 75.635, 100.036 77.172 C 98.097 78.742, 96.376 78.914, 86.820 78.495 C 78.961 78.151, 74.505 78.420, 71.167 79.439 C 68.600 80.223, 62.824 81.074, 58.331 81.332 C 51.370 81.731, 49.870 81.528, 48.188 79.960 C 47.101 78.948, 45.940 78.393, 45.606 78.727 C 45.273 79.060, 45 78.808, 45 78.167 C 45 75.955, 42.668 77.010, 39.290 80.750 C 36.534 83.802, 36.009 85.058, 36.470 87.500 C 36.781 89.150, 37.307 92.750, 37.638 95.500 C 38.187 100.065, 41.036 105, 43.123 105 C 44.283 105, 49 100.417, 49 99.290 C 49 95.810, 62.725 90.564, 69.859 91.318 C 72.256 91.571, 75.796 91.343, 77.725 90.810 C 79.654 90.278, 82.306 90.111, 83.616 90.440 C 85.608 90.940, 86 91.667, 86 94.864 C 86 100.413, 83.721 102.070, 76.408 101.834 C 69.530 101.612, 59.777 104.223, 56.961 107.039 C 54.584 109.416, 54.514 111.905, 56.591 120.169 C 58.636 128.310, 60.093 130.497, 65.210 133.107 C 68.815 134.947, 70.396 135.149, 76.685 134.579 C 84.946 133.831, 88 134.851, 88 138.361 C 88 139.621, 86.926 141.660, 85.614 142.893 C 83.317 145.051, 82.781 145.108, 71.067 144.422 C 62.067 143.896, 57.870 144.053, 54.923 145.026 C 51.882 146.029, 50.663 146.063, 49.770 145.170 C 49.126 144.526, 46.954 144, 44.942 144 L 41.284 144 41.601 148.170 C 42.036 153.918, 42.353 154.476, 46.158 156.194 C 48.897 157.431, 51.845 157.565, 62.500 156.938 C 69.650 156.518, 83.600 156.115, 93.500 156.043 C 103.400 155.971, 114.875 155.475, 119 154.940 C 136.271 152.702, 136.177 152.701, 143 155.212 C 146.575 156.527, 150.063 157.524, 150.750 157.427 C 151.438 157.330, 152.589 157.194, 153.309 157.125 C 154.029 157.056, 155.436 156.402, 156.435 155.671 C 158.003 154.525, 158.078 154.014, 156.980 151.962 C 155.183 148.606, 152.337 146.514, 146 143.892 C 142.975 142.641, 139.905 141.028, 139.179 140.308 C 138.452 139.589, 137.457 139, 136.969 139 C 136.481 139, 134.967 137.799, 133.606 136.331 C 131.310 133.855, 131.154 133.043, 131.439 125.081 C 131.609 120.362, 132.318 115.281, 133.015 113.791 C 134.094 111.487, 134.027 110.689, 132.564 108.457 C 131.618 107.014, 129.192 105.188, 127.172 104.399 C 125.152 103.610, 122.071 102.245, 120.323 101.365 C 118.219 100.305, 115.940 99.973, 113.573 100.382 C 111.608 100.722, 108.498 101.266, 106.662 101.591 C 102.545 102.319, 100 100.148, 100 95.907 C 100 91.211, 102.306 90.763, 121.229 91.781 C 139.344 92.755, 140.040 92.986, 142.833 98.940 C 144.271 102.006, 145.044 102.544, 148.400 102.819 C 152.791 103.179, 154.256 101.802, 152.999 98.497 C 152.436 97.016, 152.799 94.931, 154.143 91.929 C 156.623 86.389, 156.284 81.434, 153.135 77.196 C 151.320 74.753, 150.722 72.768, 150.843 69.584 C 151.105 62.656, 147.249 59.280, 135.481 56.133 C 133.270 55.542, 130.606 54.432, 129.560 53.668 C 127.710 52.315, 127.707 52.105, 129.435 45.947 C 131.541 38.441, 131.791 31.324, 130.093 27.225 C 128.826 24.167, 125.464 21.971, 123.229 22.742 M 60.493 25.651 C 59.538 27.109, 58.565 30.596, 58.331 33.401 C 57.717 40.755, 57.418 42.076, 55.422 46.250 C 54.430 48.326, 52.931 49.965, 52.065 49.921 C 51.110 49.873, 50.968 49.652, 51.700 49.354 C 52.837 48.892, 47.077 39.584, 44.529 37.765 C 41.189 35.381, 34.848 39.646, 33.476 45.200 C 32.650 48.541, 36.598 53, 40.383 53 C 42.462 53, 46 55.218, 46 56.521 C 46 56.729, 44.650 58.900, 43 61.345 C 39.757 66.151, 39.120 71.257, 41.392 74.250 C 43.168 76.590, 44.713 76.456, 48.406 73.642 C 52.357 70.631, 62.043 65.554, 64 65.467 C 64.825 65.431, 66.978 66.661, 68.785 68.201 C 73.410 72.142, 79.102 72.338, 86.773 68.821 C 89.373 67.629, 91.648 66.546, 91.830 66.414 C 92.011 66.282, 91.389 64.998, 90.448 63.561 C 87.413 58.930, 83.310 56.802, 75.826 55.981 C 71.968 55.557, 68.373 54.773, 67.837 54.237 C 67.205 53.605, 67.411 51.952, 68.423 49.530 C 69.281 47.477, 69.896 44.380, 69.790 42.648 C 69.684 40.917, 69.941 36.941, 70.363 33.813 C 70.977 29.248, 70.797 27.620, 69.449 25.563 C 67.145 22.046, 62.827 22.088, 60.493 25.651 M 140.400 38.400 C 138.303 40.497, 137 42.782, 137 44.361 C 137 50.852, 147.214 53.513, 152.364 48.364 C 155.846 44.881, 155.692 43.150, 151.502 38.708 C 147.168 34.113, 144.754 34.046, 140.400 38.400 M 115 69.309 C 110.862 71.793, 109.423 73.263, 109.189 75.248 C 108.852 78.112, 108.767 78.080, 120.500 79.496 C 123.250 79.828, 127.382 80.345, 129.683 80.646 C 135.227 81.370, 140.222 78.635, 139.793 75.110 C 139.632 73.785, 138.825 72.400, 138 72.031 C 137.175 71.662, 134.137 70.155, 131.249 68.680 C 124.429 65.199, 121.671 65.305, 115 69.309 M 100.655 112.829 C 99.745 113.835, 99 116.073, 99 117.803 C 99 120.275, 99.632 121.275, 101.951 122.475 C 107.608 125.400, 117 122.318, 117 117.536 C 117 114.608, 116.526 114.288, 109.463 112.448 C 102.505 110.636, 102.645 110.630, 100.655 112.829 M 73.169 114.665 C 69.249 116.073, 68.900 116.465, 69.486 118.798 C 70.277 121.952, 72.498 123.738, 76.650 124.561 C 81.176 125.458, 83.018 124.862, 85.338 121.752 C 86.984 119.545, 87.198 118.463, 86.425 116.252 C 85.612 113.927, 84.845 113.470, 81.481 113.305 C 79.292 113.198, 75.551 113.810, 73.169 114.665 M 98.174 135.314 C 95.307 138.366, 95.431 140.407, 98.635 142.927 C 101.813 145.427, 105.821 145.558, 112.500 143.379 C 120.917 140.633, 122 140.093, 122 138.643 C 122 136.966, 118.610 135.641, 110.440 134.125 C 101.979 132.555, 100.646 132.684, 98.174 135.314" stroke="none" fill="black" fill-rule="evenodd"/>
</svg>