<svg xmlns="http://www.w3.org/2000/svg" width="256" height="256" viewBox="0 0 256 256" version="1.1">
	<path d="M 89.557 28.223 C 87.833 30.683, 87.561 34.941, 88.836 39.507 C 89.879 43.243, 88.515 48.659, 86.227 49.863 C 85.277 50.363, 76.397 51.279, 66.493 51.899 C 56.589 52.519, 46.725 53.513, 44.572 54.108 C 40.004 55.369, 34.705 60.231, 35.185 62.722 C 36.057 67.250, 48.799 68.420, 60 65 C 67.558 62.692, 69.925 62.553, 73.551 64.205 C 75.853 65.254, 76.124 65.849, 75.644 68.807 C 75.322 70.788, 72.678 75.392, 69.296 79.858 C 66.108 84.069, 62.600 88.773, 61.500 90.313 C 60.187 92.152, 56.091 94.641, 49.570 97.565 C 38.866 102.363, 36.275 104.180, 34.860 107.882 C 33.624 111.115, 34.538 113.469, 37.566 114.848 C 41.787 116.771, 44.241 116.193, 51.783 111.500 C 63.708 104.079, 65.150 105.083, 64.930 120.652 C 64.771 131.951, 64.102 134.345, 59.352 140.594 C 56.767 143.996, 56.352 146.952, 58.200 148.800 C 60.399 150.999, 68.417 150.191, 74.920 147.115 C 78.704 145.326, 83.577 143.975, 87.760 143.557 C 100.120 142.323, 103.796 139.902, 102.472 133.872 C 101.099 127.623, 94.727 125.085, 89.885 128.859 C 86.358 131.608, 81.365 134, 79.157 134 C 75.769 134, 74.359 126.872, 75.866 117.366 C 76.565 112.955, 76.453 110.508, 75.412 107.500 C 72.609 99.395, 74.066 93.872, 81.807 83.263 C 89.417 72.832, 92.062 71.155, 95.234 74.750 C 96.083 75.713, 97.091 78.075, 97.474 80 C 98.772 86.521, 103.165 96.274, 108.593 104.689 C 111.567 109.298, 114 113.684, 114 114.434 C 114 118.122, 127.310 133.826, 130.547 133.957 C 131.123 133.981, 133.373 135.849, 135.547 138.108 C 143.360 146.228, 156 148.870, 156 142.384 C 156 140.270, 151.279 134, 149.687 134 C 149.359 134, 147.966 132.875, 146.591 131.500 C 145.216 130.125, 143.246 129, 142.214 129 C 141.182 129, 139.777 127.951, 139.091 126.669 C 137.748 124.160, 133.097 121, 130.747 121 C 129.953 121, 128.596 119.200, 127.732 117 C 126.600 114.119, 125.579 113, 124.080 113 C 122.936 113, 122 112.732, 122 112.404 C 122 111.144, 126.493 105.386, 129.339 103 C 136.702 96.826, 143.439 89.254, 144.217 86.277 C 144.670 84.544, 144.183 83.911, 141.742 83.060 C 137.180 81.470, 136.528 81.664, 131.886 85.993 C 126.911 90.632, 120.211 93.521, 116.556 92.603 C 113.185 91.757, 111.156 88.431, 109.388 80.849 C 108.582 77.397, 107.306 73.882, 106.550 73.037 C 105.795 72.191, 105.029 69.731, 104.848 67.569 C 104.428 62.553, 104.425 62.554, 128.749 60.876 C 146.503 59.651, 147.600 59.456, 149.741 57.146 C 152.589 54.072, 152.591 52.637, 149.750 51.199 C 146.736 49.674, 123.454 49.037, 113.619 50.211 C 103.609 51.406, 101.646 50.881, 99.543 46.449 C 98.188 43.595, 98.064 42.255, 98.924 39.789 C 99.516 38.091, 100 35.194, 100 33.351 C 100 26.972, 92.881 23.476, 89.557 28.223" stroke="none" fill="black" fill-rule="evenodd"/>
</svg>