<svg xmlns="http://www.w3.org/2000/svg" width="256" height="256" viewBox="0 0 256 256" version="1.1">
	<path d="M 84.242 30.250 C 82.534 32.075, 79.186 41.535, 77.631 48.931 C 76.611 53.781, 64.624 58.450, 55.577 57.521 C 50.856 57.036, 45.577 59.053, 44.039 61.928 C 43.216 63.464, 43.208 65.633, 44.008 70.043 C 44.617 73.405, 44.828 79.690, 44.486 84.281 C 44.149 88.801, 43.773 101.600, 43.652 112.723 C 43.450 131.242, 43.261 133.173, 41.415 135.645 C 39.126 138.711, 37.653 139.639, 33.779 140.452 C 30.206 141.203, 28.460 144.317, 30.481 146.338 C 31.563 147.420, 34.704 147.865, 42.229 148.005 C 59.476 148.324, 105.198 147.996, 105.922 147.548 C 106.297 147.316, 117.980 147.544, 131.884 148.054 C 148.999 148.683, 157.784 148.651, 159.082 147.956 C 163.739 145.464, 158.872 138.775, 151.213 137.141 C 148.657 136.596, 146.194 136.380, 145.740 136.661 C 145.285 136.942, 143.412 136.026, 141.576 134.626 C 138.372 132.182, 138.250 131.842, 138.530 126.126 C 138.691 122.851, 139.331 117.720, 139.953 114.724 C 140.575 111.728, 141.026 104.602, 140.954 98.888 C 140.882 93.175, 141.035 82.200, 141.294 74.500 C 141.553 66.800, 141.384 59.771, 140.917 58.880 C 139.030 55.277, 133.517 53.898, 121.244 53.960 C 114.785 53.993, 107.925 54.228, 106 54.482 C 104.075 54.737, 99.575 54.620, 96 54.223 C 89.981 53.553, 89.478 53.309, 89.200 50.924 C 89.007 49.260, 90.183 46.443, 92.523 42.966 C 95.490 38.557, 96.034 36.994, 95.532 34.321 C 94.416 28.370, 88.126 26.102, 84.242 30.250 M 113.250 67.068 C 111.463 67.612, 109.944 68.494, 109.875 69.029 C 109.806 69.563, 109.666 70.563, 109.564 71.250 C 109.462 71.938, 109.867 74.300, 110.464 76.500 C 111.146 79.011, 111.278 83.663, 110.819 89 C 110.417 93.675, 109.901 105.463, 109.672 115.195 C 109.270 132.240, 109.333 132.960, 111.377 134.781 C 114.426 137.496, 119.650 136.915, 122.551 133.539 C 125.281 130.362, 126.427 122.468, 126.295 107.745 C 126.247 102.379, 126.612 97.740, 127.107 97.434 C 127.608 97.124, 127.635 96.131, 127.169 95.189 C 125.987 92.800, 126.560 83.713, 128.409 75.541 C 129.274 71.714, 129.649 68.258, 129.241 67.860 C 127.948 66.599, 116.631 66.038, 113.250 67.068 M 86.315 68.007 C 85.114 68.491, 83.683 69.723, 83.136 70.745 C 82.540 71.860, 82.170 83.829, 82.213 100.667 C 82.252 116.102, 82.036 129.133, 81.732 129.625 C 80.621 131.422, 83.795 136.833, 86.168 137.189 C 92.847 138.189, 97.044 133.819, 97.703 125.179 C 98.524 114.415, 97.915 70.709, 96.918 68.846 C 95.841 66.834, 90.312 66.397, 86.315 68.007 M 59.692 70.028 C 56.640 72.428, 56.304 74.434, 55.419 95.500 C 54.532 116.612, 54.981 135.315, 56.410 136.743 C 57.970 138.302, 67.325 137.119, 69.335 135.109 C 71.456 132.988, 71.477 132.466, 71.074 92.500 C 70.979 83.150, 71.122 74.494, 71.391 73.265 C 72.431 68.507, 64.437 66.295, 59.692 70.028 M 115 192 C 113.922 192.697, 114.907 192.969, 118.500 192.969 C 122.093 192.969, 123.078 192.697, 122 192 C 121.175 191.467, 119.600 191.031, 118.500 191.031 C 117.400 191.031, 115.825 191.467, 115 192" stroke="none" fill="black" fill-rule="evenodd"/>
</svg>