<svg xmlns="http://www.w3.org/2000/svg" width="256" height="256" viewBox="0 0 256 256" version="1.1">
	<path d="M 89.211 22.345 C 87.985 23.962, 86.079 29.066, 85.695 31.764 C 85.080 36.087, 83.668 36.476, 66.593 37.025 C 50.908 37.529, 50.120 37.655, 46.140 40.289 C 41.726 43.210, 40.894 45.841, 43.661 48.128 C 44.938 49.183, 49.643 49.500, 64.003 49.500 C 78.365 49.500, 83.067 49.817, 84.342 50.872 C 86.594 52.737, 86.449 53.303, 83.235 55.202 C 81.546 56.200, 76.972 57.082, 71.485 57.467 C 56.348 58.531, 54 59.547, 54 65.036 C 54 69.592, 56.572 70.325, 70.658 69.782 C 81.292 69.373, 83.175 69.536, 84.484 70.983 C 85.318 71.904, 86 73.152, 86 73.756 C 86 76.027, 80.860 78.787, 75.350 79.475 C 72.227 79.866, 68.991 80.866, 68.159 81.698 C 66.972 82.885, 65.554 83.040, 61.573 82.417 C 55.898 81.529, 48.650 81.564, 42.197 82.508 C 36.465 83.348, 34.637 86.700, 37.689 90.779 C 39.518 93.223, 40.385 93.512, 46.226 93.622 C 49.802 93.689, 55.151 93.328, 58.114 92.819 C 65.996 91.465, 67.992 91.564, 69.826 93.397 C 71.355 94.927, 71.304 95.362, 69.110 99.498 C 67.785 101.996, 64.403 105.760, 61.407 108.071 C 56.732 111.679, 55.098 112.319, 48.283 113.215 C 37.840 114.589, 34.310 118.310, 39 123 C 41.299 125.299, 48.867 125.720, 55.381 123.911 C 61.820 122.124, 63.011 124.856, 61.880 138.819 C 61.585 142.464, 61.917 143.434, 64.015 145.046 C 68.311 148.347, 89.116 147.580, 96.640 143.843 C 101.428 141.465, 101.414 135.630, 96.615 133.061 C 94.479 131.918, 93.052 131.875, 88.920 132.829 C 78.826 135.159, 74.056 134.071, 74.121 129.454 C 74.136 128.379, 73.828 124.924, 73.437 121.776 C 72.735 116.129, 72.791 115.954, 77.580 108.776 C 80.249 104.774, 83.686 100.259, 85.217 98.741 C 86.748 97.224, 88 95.699, 88 95.352 C 88 92.814, 97.102 90.738, 98.476 92.962 C 98.843 93.555, 99.979 93.578, 101.439 93.023 C 106.767 90.998, 117.052 89.866, 132.348 89.624 C 141.244 89.483, 149.226 88.947, 150.086 88.434 C 152.774 86.830, 153.099 84.170, 150.861 82.085 C 148.768 80.135, 148.083 80.031, 127 78.448 C 122.325 78.097, 118.072 77.403, 117.550 76.905 C 115.932 75.364, 112.545 75.896, 107.419 78.496 C 101.434 81.532, 100.019 81.589, 96.635 78.927 C 93.266 76.277, 93.238 72.671, 96.563 69.346 L 99.125 66.784 111.813 67.477 C 124.582 68.174, 128.538 67.605, 131.497 64.646 C 136.578 59.565, 130.787 55.803, 117.711 55.690 C 112.645 55.647, 106.828 55.888, 104.785 56.227 C 100.359 56.961, 95.877 54.186, 96.659 51.195 C 97.402 48.355, 102.277 47.101, 110.272 47.694 C 117.843 48.255, 131.995 46.873, 140.500 44.741 C 144.940 43.628, 145.462 43.219, 145.160 41.082 C 144.540 36.702, 142.233 35.453, 132.105 34.013 C 128.472 33.496, 123.873 32.814, 121.883 32.496 C 119.641 32.138, 115.469 32.694, 110.904 33.960 C 101.581 36.543, 100.153 36.518, 99.070 33.750 C 98.586 32.513, 97.623 30.150, 96.929 28.500 C 96.235 26.850, 95.630 25.185, 95.584 24.800 C 95.276 22.231, 90.649 20.449, 89.211 22.345 M 96.534 97.944 C 96.213 98.464, 96.676 102.077, 97.562 105.974 C 99.101 112.738, 99.566 113.473, 107.837 122.197 C 112.602 127.223, 117.918 132.835, 119.650 134.668 C 121.383 136.501, 123.645 138, 124.677 138 C 125.710 138, 128.192 139.411, 130.194 141.135 C 135.970 146.112, 145.533 149.939, 152.271 149.972 C 157.485 149.997, 158.154 149.756, 159.193 147.475 C 160.224 145.213, 159.989 144.584, 156.937 141.435 C 155.063 139.502, 152.399 137.646, 151.015 137.311 C 149.632 136.976, 147.612 136.094, 146.527 135.351 C 145.443 134.608, 143.636 134, 142.513 134 C 141.389 134, 137.695 132.646, 134.304 130.991 C 127.686 127.763, 126.631 125.943, 128.328 120.692 C 128.945 118.784, 130.969 116.906, 134.641 114.834 C 142.669 110.303, 143.429 107.691, 138 103.282 C 135.600 101.332, 133.633 101.754, 125.173 106.033 C 120.787 108.251, 116.625 109.939, 115.924 109.783 C 114.171 109.394, 109.625 104.180, 107.613 100.250 C 106.115 97.325, 105.507 97, 101.533 97 C 99.105 97, 96.855 97.425, 96.534 97.944 M 97.189 165.744 C 97.650 168.139, 100.632 168.516, 101.223 166.254 C 101.585 164.870, 101.102 164.362, 99.280 164.211 C 97.463 164.061, 96.939 164.445, 97.189 165.744" stroke="none" fill="black" fill-rule="evenodd"/>
</svg>