<svg xmlns="http://www.w3.org/2000/svg" width="256" height="256" viewBox="0 0 256 256" version="1.1">
	<path d="M 119.500 24.482 C 117.850 25.208, 111.775 26.757, 106 27.924 C 100.225 29.092, 91.225 30.924, 86 31.996 C 80.775 33.067, 72.900 34.434, 68.500 35.033 C 54.030 37.002, 43.680 39.164, 41.321 40.709 C 36.500 43.868, 40.109 49, 47.151 49 C 51.241 49, 54 51.070, 54 54.137 C 54 55.234, 54.481 57.031, 55.070 58.131 C 56.618 61.022, 56.950 63.309, 57.485 74.732 C 57.755 80.501, 57.522 86.126, 56.952 87.627 C 56.395 89.091, 55.905 97.099, 55.863 105.422 C 55.784 121.059, 57.074 129, 59.693 129 C 62.017 129, 66 132.131, 66 133.958 C 66 135.638, 59.616 141.635, 53.898 145.326 C 52.342 146.331, 50.101 148.718, 48.919 150.632 C 46.875 153.938, 46.857 154.175, 48.545 155.409 C 52.353 158.194, 65.717 151.483, 73.483 142.887 C 75.417 140.746, 77.034 138.658, 77.077 138.247 C 77.597 133.167, 78.528 132.129, 83.628 130.946 C 90.534 129.344, 96.490 129.780, 98.533 132.036 C 100.137 133.809, 100.218 134.508, 99.158 137.441 C 98.149 140.231, 98.212 141.488, 99.524 144.769 C 101.368 149.377, 103.820 150.746, 111.788 151.614 C 114.929 151.956, 119.525 153.341, 122 154.691 C 127.477 157.680, 134.500 158.642, 140.227 157.188 C 142.577 156.591, 146.128 155.845, 148.118 155.531 C 150.109 155.216, 152.986 153.886, 154.512 152.574 C 156.834 150.579, 157.184 149.670, 156.652 147.010 C 155.789 142.693, 152.289 138, 149.932 138 C 148.869 138, 147.130 138.870, 146.067 139.933 C 141.497 144.503, 139.300 145.265, 132.748 144.556 C 124.477 143.660, 115.976 140.689, 113.723 137.907 C 111.346 134.971, 111.878 131.852, 115 130.420 C 129.463 123.783, 129.878 123.306, 130.239 112.941 C 130.614 102.142, 129.141 79.964, 127.829 76.685 C 125.970 72.036, 128.567 60.884, 132.763 55.498 C 134.645 53.083, 135.891 50.633, 135.533 50.054 C 135.175 49.474, 135.443 49, 136.128 49 C 136.813 49, 136.081 47.650, 134.500 46 C 132.730 44.152, 130.641 43.015, 129.063 43.040 C 124.982 43.103, 117.407 50.826, 113.951 58.448 L 110.980 65 106.151 65 C 102.027 65, 101.162 64.650, 100.231 62.607 C 99.631 61.291, 99.343 58.929, 99.591 57.357 C 99.857 55.663, 99.218 52.888, 98.020 50.539 C 95.521 45.638, 95.522 45.523, 98.112 43.110 C 100.946 40.470, 112.582 38.581, 121.122 39.375 C 128.552 40.065, 134.790 38.171, 138.409 34.126 C 144.041 27.830, 129.154 20.238, 119.500 24.482 M 74 45.131 C 64.865 47.611, 62.190 50.342, 65.410 53.900 C 66.284 54.867, 67 56.030, 67 56.485 C 67 56.940, 68.765 59.042, 70.921 61.156 C 74.425 64.591, 75.381 65, 79.898 65 C 84.150 65, 85.207 64.613, 86.548 62.567 C 87.667 60.859, 87.862 59.593, 87.203 58.317 C 86.687 57.318, 85.708 54.128, 85.027 51.229 C 83.379 44.205, 81.414 43.118, 74 45.131 M 94.870 75.464 C 94.615 75.719, 89.027 76.178, 82.453 76.484 C 75.879 76.790, 69.736 77.280, 68.801 77.572 C 66.736 78.217, 65.638 81.285, 66.500 84 C 67.277 86.449, 71.977 86.716, 75.353 84.504 C 77.123 83.344, 81.665 82.951, 95.568 82.754 L 113.500 82.500 113.500 79.517 C 113.500 76.822, 113.114 76.466, 109.500 75.825 C 104.898 75.008, 95.555 74.778, 94.870 75.464 M 67.447 97.440 C 66.111 99.479, 66.013 100.311, 66.972 101.466 C 68.938 103.835, 71.402 104.122, 75.959 102.514 C 78.320 101.682, 82.955 101, 86.260 101 C 92.309 101, 100 99.300, 100 97.963 C 100 96.036, 93.726 94.785, 87.745 95.521 C 79.332 96.555, 76.088 96.583, 72.316 95.654 C 69.556 94.975, 68.907 95.213, 67.447 97.440 M 105.250 96.262 C 102.912 96.824, 101 97.619, 101 98.028 C 101 98.437, 102.619 99.540, 104.597 100.479 C 110.905 103.473, 118.596 100.454, 114.669 96.526 C 112.964 94.821, 111.423 94.778, 105.250 96.262 M 67.429 114.300 C 65.347 115.465, 65.681 117.764, 68.042 118.513 C 69.165 118.870, 71.978 118.828, 74.292 118.419 C 76.606 118.011, 87.024 117.753, 97.442 117.845 C 118.745 118.034, 120.498 117.798, 118.976 114.955 C 118.007 113.145, 116.673 113.057, 93.406 113.273 C 79.905 113.398, 68.215 113.860, 67.429 114.300" stroke="none" fill="black" fill-rule="evenodd"/>
</svg>