<svg xmlns="http://www.w3.org/2000/svg" width="256" height="256" viewBox="0 0 256 256" version="1.1">
	<path d="M 116.027 23.467 C 115.357 24.274, 114.269 27.054, 113.608 29.644 C 111.750 36.927, 108.927 38.498, 97.676 38.510 C 92.239 38.515, 87.612 39.024, 86.320 39.757 C 83.506 41.356, 80.158 46.139, 80.726 47.750 C 81.048 48.664, 79.465 49.003, 74.833 49.011 C 71.350 49.017, 66.857 49.294, 64.848 49.626 C 61.747 50.139, 60.966 49.873, 59.669 47.865 C 58.828 46.564, 57.867 43.475, 57.533 41 C 56.316 31.992, 53.721 28.091, 48.905 28.032 C 43.119 27.961, 40.218 36.315, 43.876 42.515 C 45.044 44.494, 46 46.977, 46 48.031 C 46 50.640, 41.101 53, 35.685 53 C 30.169 53, 25.993 55.946, 26.015 59.823 C 26.052 66.197, 30.491 67.328, 40.173 63.430 L 47.191 60.605 51.346 62.805 C 56.311 65.435, 59.560 65.609, 60.844 63.315 C 61.696 61.792, 62.324 61.758, 67.343 62.962 C 72.286 64.148, 73.182 64.111, 75.450 62.625 C 76.853 61.706, 78.070 60.402, 78.157 59.727 C 78.243 59.052, 78.400 57.314, 78.506 55.864 C 78.914 50.283, 79.239 50.101, 87.691 50.689 C 95.684 51.245, 100 52.928, 100 55.489 C 100 57.780, 96.710 64.160, 94.250 66.641 C 91.594 69.319, 91.490 70.499, 93.562 74.472 C 94.995 77.221, 94.976 77.538, 93.306 78.688 C 92.313 79.372, 90.956 80.397, 90.292 80.966 C 89.628 81.535, 88.503 82.014, 87.792 82.032 C 84.468 82.114, 80.074 88.069, 80.051 92.524 C 80.018 98.964, 80.748 111.803, 81.473 117.514 C 81.907 120.938, 81.758 127.919, 81.127 133.722 C 79.836 145.589, 80.575 149, 84.436 149 C 87.384 149, 90.994 145.467, 91.015 142.561 C 91.023 141.428, 91.717 138.525, 92.557 136.112 C 93.797 132.553, 93.974 128.556, 93.498 114.970 L 92.910 98.216 95.590 96.108 C 97.917 94.278, 99.610 94, 108.444 94 C 115.456 94, 119.197 94.424, 120.482 95.363 C 122.254 96.659, 122.202 96.819, 119.423 98.590 C 117.816 99.615, 116.275 100.741, 116 101.093 C 115.725 101.444, 113.475 102.744, 111 103.982 C 108.525 105.220, 105.713 106.925, 104.750 107.771 C 102.203 110.010, 102.562 113.667, 105.519 115.605 C 108.843 117.783, 113.558 116.983, 122.150 112.785 C 128.389 109.736, 128.979 109.156, 131.064 104.010 C 135.201 93.806, 139.265 91.311, 152.125 91.082 C 156.319 91.008, 156.898 90.697, 158.330 87.750 C 160.290 83.718, 159.184 82.278, 153.075 80.905 C 150.762 80.386, 147.667 78.845, 146.195 77.480 C 144.724 76.116, 143.022 75, 142.412 75 C 141.803 75, 141.266 73.649, 141.219 71.998 C 141.093 67.581, 140.057 65, 138.410 65 C 137.137 65, 137.136 64.717, 138.403 62.750 C 139.200 61.513, 140.165 58.790, 140.547 56.701 C 141.193 53.163, 141.776 52.632, 148.993 49.003 C 156.884 45.036, 158.461 43.368, 157.267 40.250 C 155.289 35.084, 149.172 33.284, 139.268 34.955 C 130.543 36.426, 127.934 35.515, 126.135 30.367 C 125.392 28.240, 124.147 25.488, 123.369 24.250 C 121.750 21.676, 117.858 21.261, 116.027 23.467 M 118 47.847 C 112.178 50.012, 111 50.805, 111 52.559 C 111 53.705, 112.810 54, 119.845 54 C 127.420 54, 128.950 53.713, 130.500 52 C 132.247 50.070, 132.247 49.930, 130.500 48 C 128.309 45.579, 124.234 45.529, 118 47.847 M 64.431 70.601 L 58.500 73.983 46.163 73.742 C 34.225 73.508, 33.764 73.577, 31.890 75.889 C 28.637 79.904, 31.258 84.775, 37.840 86.947 C 40.988 87.986, 42.681 87.948, 47.576 86.727 C 53.622 85.218, 62.752 85.084, 66.694 86.446 C 68.361 87.022, 69.528 86.563, 71.559 84.532 C 73.972 82.119, 74.190 81.299, 73.810 76.054 C 73.568 72.704, 72.750 69.607, 71.876 68.733 C 70.524 67.381, 69.728 67.581, 64.431 70.601 M 118.406 68.906 C 113.248 69.409, 111.575 70.104, 107.518 73.430 L 102.725 77.359 104.974 79.180 C 106.427 80.357, 108.689 80.955, 111.362 80.870 C 113.638 80.798, 117.640 81.084, 120.255 81.506 C 124.249 82.150, 125.755 81.892, 129.679 79.887 C 132.248 78.574, 135.207 76.676, 136.255 75.669 C 138.099 73.898, 138.102 73.792, 136.331 72.402 C 131.717 68.783, 127.702 68, 118.406 68.906 M 58.837 91.115 C 58.101 91.576, 54.125 92.695, 50 93.600 C 42.082 95.337, 35.978 98.921, 36.032 101.801 C 36.049 102.735, 36.708 104.351, 37.495 105.391 C 39.393 107.898, 44.638 107.185, 57.967 102.607 C 70.513 98.299, 71.681 97.289, 68.698 93.332 C 66.443 90.341, 61.749 89.285, 58.837 91.115 M 137 110.742 C 133.975 110.947, 131.072 111.539, 130.550 112.057 C 130.028 112.576, 128.995 113, 128.256 113 C 127.517 113, 125.100 114.677, 122.884 116.727 C 117.120 122.061, 114.197 123.831, 108.251 125.589 C 96.923 128.939, 97.400 134.902, 109 134.967 C 113.014 134.990, 116.123 134.231, 120.509 132.156 C 123.814 130.592, 128.178 129.002, 130.207 128.621 C 133.450 128.013, 145.234 120.338, 147.235 117.531 C 149.085 114.935, 146.420 109.705, 143.500 110.200 C 142.950 110.294, 140.025 110.538, 137 110.742 M 59 113.489 C 57.075 114.236, 51.828 114.882, 47.339 114.924 C 39.625 114.996, 39.046 115.157, 36.765 117.867 C 32.268 123.212, 31.590 126.236, 32.857 135.305 C 33.487 139.812, 34.002 145.433, 34.001 147.795 C 34 151.085, 34.607 152.698, 36.591 154.682 C 39.015 157.106, 39.607 157.233, 45.803 156.654 C 52.630 156.016, 65.593 152.795, 70 150.642 L 72.500 149.420 72.255 134.960 C 71.990 119.382, 71.531 115.669, 69.686 114.185 C 67.514 112.438, 62.542 112.115, 59 113.489 M 51.751 122.689 C 50.789 122.941, 49.709 124.351, 49.351 125.823 C 48.994 127.295, 48.094 129.388, 47.351 130.473 C 46.608 131.557, 46 134.045, 46 136 C 46 146.166, 57.133 146.962, 60.115 137.009 C 61.106 133.704, 61.032 132.698, 59.645 130.581 C 58.740 129.200, 58 127.412, 58 126.607 C 58 125.059, 55.328 121.919, 54.179 122.116 C 53.805 122.180, 52.713 122.438, 51.751 122.689 M 147.500 128.685 C 143 129.263, 139.998 131.102, 138.350 134.291 C 136.573 137.727, 128.091 141.978, 123 141.985 C 121.075 141.988, 117.475 142.628, 115 143.408 C 112.525 144.188, 109.197 145.202, 107.604 145.663 C 103.981 146.710, 102.520 148.952, 103.338 152.211 C 103.830 154.169, 105.011 155.023, 108.630 156.036 C 116.054 158.115, 125.319 155.664, 135 149.060 C 136.375 148.122, 139.975 146.351, 143 145.124 C 151.732 141.582, 152.807 140.889, 153.883 138.116 C 155.626 133.625, 154.089 127.645, 151.321 128.150 C 150.870 128.232, 149.150 128.473, 147.500 128.685" stroke="none" fill="black" fill-rule="evenodd"/>
</svg>