<svg xmlns="http://www.w3.org/2000/svg" width="256" height="256" viewBox="0 0 256 256" version="1.1">
	<path d="M 52.061 30.939 C 49.258 33.742, 49.092 36.210, 51.161 44.380 C 52.334 49.013, 52.279 49.355, 50.087 51.130 C 48.502 52.414, 46.167 53, 42.639 53.002 C 36.363 53.003, 30.963 55.530, 29.172 59.302 C 27.414 63.004, 28.696 64.488, 34.952 65.988 C 39.098 66.983, 40.283 66.905, 43.094 65.452 C 48.986 62.404, 52.200 61.893, 57.314 63.190 C 61.267 64.193, 62.277 64.169, 62.963 63.060 C 63.578 62.065, 64.944 61.902, 68.149 62.439 C 70.542 62.841, 73.903 63.398, 75.618 63.678 C 79.419 64.300, 85.002 61.648, 84.996 59.224 C 84.990 56.521, 81.232 51.037, 78.750 50.109 C 77.512 49.647, 73.988 49.483, 70.917 49.744 C 65.517 50.204, 65.298 50.126, 64.249 47.360 C 63.652 45.787, 63.202 42.345, 63.248 39.712 C 63.399 31.239, 56.876 26.124, 52.061 30.939 M 112.500 36.533 C 101.988 37.136, 93.573 38.082, 92.273 38.806 C 87.172 41.646, 86.823 48.415, 91.713 49.643 C 95.390 50.566, 100.770 50.553, 120 49.575 C 129.075 49.113, 137.542 48.345, 138.815 47.868 C 145.154 45.492, 147.460 49.056, 146.383 59.565 C 146.008 63.231, 146.232 67.797, 146.930 70.708 C 148.310 76.459, 149.094 126.514, 147.921 133.934 C 146.733 141.452, 142.630 149.259, 139.040 150.834 C 134.594 152.785, 135.294 154.346, 141.574 156.480 C 146.901 158.291, 147.289 158.298, 150.324 156.634 C 157.067 152.939, 158.402 148.536, 159.515 126.319 C 160.252 111.620, 158.473 46.995, 157.208 42.517 C 155.321 35.839, 146.100 34.605, 112.500 36.533 M 99.852 58.967 C 95.646 59.394, 91.371 60.364, 90.352 61.122 C 87.608 63.164, 88.039 66.925, 91.297 69.366 C 93.748 71.202, 95.788 71.507, 107.797 71.832 C 129.400 72.418, 138.411 69.841, 136.091 63.740 C 135.544 62.300, 134.093 60.585, 132.868 59.929 C 130.148 58.474, 110.382 57.898, 99.852 58.967 M 74.741 65.659 C 76.544 66.388, 74.445 68.234, 68.239 71.379 C 63.371 73.845, 62.544 73.948, 51.394 73.468 C 40.338 72.992, 39.535 73.088, 37.334 75.156 C 33.879 78.402, 34.265 82.338, 38.344 85.449 C 40.184 86.852, 42.517 88, 43.529 88 C 47.153 88, 57.539 84.664, 59.564 82.850 C 60.777 81.763, 63.139 81, 65.289 81 C 68.330 81, 69.206 81.499, 70.474 83.950 C 73.587 89.970, 71.388 92.278, 63.376 91.403 C 59.591 90.989, 57.717 91.327, 55 92.914 C 53.075 94.038, 49.405 95.904, 46.845 97.061 C 44.285 98.218, 41.996 99.915, 41.758 100.832 C 40.829 104.416, 41.980 105, 49.982 105 C 56.718 105, 58.578 104.589, 63.457 102.023 C 66.570 100.385, 70.891 98.514, 73.059 97.864 C 76.825 96.736, 78.127 94.814, 76.010 93.506 C 75.427 93.146, 75.775 92.084, 76.860 90.920 C 81.165 86.299, 82.232 75.533, 78.923 70.105 C 77.266 67.387, 77.117 66.542, 78.176 65.870 C 79.052 65.315, 78.485 65.052, 76.500 65.094 C 74.850 65.129, 74.058 65.384, 74.741 65.659 M 97.692 87.391 L 93.884 90.780 93.871 99.640 C 93.851 112.297, 95.428 127.121, 97.073 129.750 C 98.802 132.513, 102.340 132.660, 104.924 130.076 C 107.703 127.297, 109.975 126.362, 114.500 126.132 C 116.700 126.020, 120.879 125.045, 123.788 123.964 C 126.696 122.884, 130.194 122, 131.562 122 C 133.312 122, 134.339 121.239, 135.025 119.435 C 136.290 116.108, 136.293 93.417, 135.029 91.055 C 133.598 88.381, 127.202 86.200, 121.500 86.440 C 118.750 86.557, 114.983 86.055, 113.128 85.326 C 107.001 82.917, 101.961 83.591, 97.692 87.391 M 110.361 97.500 C 105.881 100.185, 104.637 102.933, 105.637 107.933 C 106.535 112.425, 110.595 115.325, 115 114.621 C 119.117 113.962, 121.687 111.187, 122.578 106.435 C 123.513 101.450, 122.367 98.241, 119.035 96.518 C 115.264 94.568, 115.250 94.569, 110.361 97.500 M 70.955 112.434 C 66.608 116.845, 66.571 116.860, 63.793 115.218 C 62.257 114.311, 61 113.165, 61 112.671 C 61 111.820, 59.471 111.961, 52.500 113.451 C 38.829 116.374, 34.602 122.528, 36.812 136.296 C 38.105 144.349, 38.780 148.213, 39.594 152.223 C 40.261 155.505, 45.312 160, 48.335 160 C 50.971 160, 65.880 154.945, 71.672 152.087 C 78.520 148.708, 79.841 145.928, 80.553 133.392 C 81.418 118.177, 79.577 108.111, 75.912 108.015 C 75.589 108.007, 73.358 109.995, 70.955 112.434 M 61 122.957 C 48.881 127.719, 46.739 145.200, 58.275 145.200 C 63.534 145.200, 65.375 144.327, 67.420 140.866 C 69.408 137.501, 69.928 130.201, 68.255 129.143 C 67.695 128.789, 67.240 127.229, 67.244 125.675 C 67.253 121.526, 66.015 120.987, 61 122.957" stroke="none" fill="black" fill-rule="evenodd"/>
</svg>