<svg xmlns="http://www.w3.org/2000/svg" width="256" height="256" viewBox="0 0 256 256" version="1.1">
	<path d="M 56.174 28.314 C 53.363 31.307, 53.337 36.666, 56.107 41.981 C 58.119 45.840, 58.137 46.143, 56.505 48.632 C 54.827 51.193, 54.652 51.228, 46.814 50.544 C 38.185 49.791, 37.312 50.183, 34.944 55.872 C 33.810 58.597, 34.865 60.327, 39.317 63.042 C 42.234 64.821, 42.813 64.770, 52.699 61.853 C 56.049 60.865, 60.122 60.873, 72.849 61.895 C 87.332 63.058, 89.033 63.025, 91.317 61.528 C 94.695 59.315, 95.170 57.678, 93.721 53.242 L 92.499 49.500 81.710 49 C 70.084 48.461, 69.044 47.952, 69.015 42.785 C 68.976 35.777, 63.502 26, 59.619 26 C 58.920 26, 57.370 27.042, 56.174 28.314 M 122.169 34.296 C 121.521 35.077, 121.088 41.116, 121.076 49.544 C 121.037 75.117, 119.480 78.885, 110.807 74.400 C 105.967 71.897, 100.984 72.317, 98.284 75.456 C 94.970 79.309, 95.355 82.655, 99.571 86.632 C 103.763 90.585, 104.224 90.636, 111.415 87.946 C 116.512 86.039, 117.080 86.006, 119.348 87.492 C 120.692 88.373, 121.957 89.860, 122.160 90.797 C 122.363 91.733, 122.206 98.575, 121.810 106 C 119.495 149.463, 119.476 148.333, 122.573 151.430 C 123.436 152.294, 125.181 153, 126.449 153 C 131.216 153, 131.422 151.740, 131.735 120.645 C 132.088 85.629, 131.318 87.642, 144.399 87.556 C 151.367 87.510, 153.350 87.131, 155.677 85.401 C 159.477 82.576, 159.838 78.747, 156.610 75.519 C 153.619 72.528, 149.529 72.260, 142.654 74.602 C 136.788 76.601, 133.249 75.840, 132.384 72.393 C 132.028 70.976, 132.136 66.370, 132.623 62.158 C 133.758 52.348, 132.153 39.829, 129.169 35.214 C 127.977 33.370, 123.432 32.774, 122.169 34.296 M 76 67.932 C 74.625 68.350, 72.713 68.576, 71.750 68.434 C 70.787 68.293, 70 68.512, 70 68.922 C 70 69.331, 69.438 69.696, 68.750 69.731 C 56.962 70.337, 46.944 71.557, 44.780 72.648 C 40.813 74.649, 39.607 77.418, 41.241 80.769 C 42.531 83.412, 42.813 83.493, 50.037 83.296 C 54.142 83.184, 59.407 82.564, 61.738 81.919 C 65.041 81.005, 66.639 81.022, 68.988 81.995 C 70.644 82.681, 72 83.665, 72 84.180 C 72 84.696, 72.563 84.794, 73.250 84.398 C 73.938 84.002, 73.409 84.875, 72.076 86.339 C 69.999 88.618, 68.844 89, 64.022 89 C 57.209 89, 49.089 92.662, 45.865 97.189 C 43.005 101.206, 44.333 101.981, 54 101.931 C 67.214 101.863, 76.920 100.463, 78.897 98.341 C 80.636 96.474, 80.695 95.707, 79.575 89.500 C 78.913 85.838, 79.569 84.756, 83.750 82.614 C 86.546 81.182, 86.997 80.428, 86.978 77.224 C 86.954 73.264, 84.891 69.945, 81.316 68.117 C 80.114 67.503, 78.989 67.039, 78.816 67.086 C 78.642 67.133, 77.375 67.514, 76 67.932 M 72 108.197 C 70.625 108.786, 65 109.358, 59.500 109.467 C 44.114 109.774, 40.861 112.314, 39.610 125 C 39.169 129.475, 39.438 133.214, 40.473 137 C 41.300 140.025, 41.982 144.387, 41.988 146.694 C 42.003 152.064, 45.330 156.268, 49.564 156.269 C 58.996 156.270, 81.773 151.093, 85.332 148.140 C 89.260 144.880, 89.923 125.854, 86.370 118.367 C 85.495 116.524, 85.004 114.431, 85.279 113.716 C 86.321 110.999, 81.163 106.944, 76.816 107.063 C 75.542 107.098, 73.375 107.609, 72 108.197 M 64 120.181 C 62.625 120.755, 59.925 121.870, 58 122.657 C 54.535 124.075, 54.497 124.155, 54.242 130.794 C 53.929 138.953, 55.476 141.436, 62.120 143.436 C 66.018 144.609, 67.108 144.603, 69.592 143.394 C 73.813 141.340, 75.801 137.330, 74.744 133 C 74.274 131.075, 73.929 127.874, 73.977 125.886 C 74.045 123.081, 73.506 121.907, 71.568 120.636 C 68.730 118.777, 67.530 118.705, 64 120.181" stroke="none" fill="black" fill-rule="evenodd"/>
</svg>