<svg xmlns="http://www.w3.org/2000/svg" width="256" height="256" viewBox="0 0 256 256" version="1.1">
	<path d="M 116.554 26.246 C 113.619 29.181, 113.138 30.296, 113.381 33.603 C 113.906 40.733, 110.252 43.710, 98.779 45.499 C 94.274 46.202, 92 49.087, 92 54.100 C 92 59.534, 90.323 60.396, 81.335 59.581 C 77.138 59.201, 72.083 58.095, 70.102 57.123 C 66.116 55.168, 63.569 55.371, 60.972 57.853 C 57.991 60.701, 57.573 63.895, 59.914 65.926 C 62.513 68.180, 62.557 69.632, 60.066 70.965 C 54.609 73.885, 48.652 70.652, 49.623 65.297 C 49.872 63.922, 49.554 62.168, 48.916 61.399 C 46.749 58.788, 49.552 54.448, 54.314 53.043 C 56.616 52.363, 59.850 51.006, 61.500 50.027 C 63.150 49.047, 66.810 47.497, 69.632 46.582 C 72.455 45.666, 75.512 44.092, 76.425 43.083 C 78.971 40.270, 79.559 34.503, 77.605 31.519 C 74.957 27.478, 71.291 28.286, 64.178 34.478 C 61.509 36.801, 57.463 38.369, 47.295 41.018 C 39.457 43.060, 35.504 45.189, 33.865 48.253 C 32.981 49.904, 33.431 50.858, 36.655 54.161 C 40.320 57.916, 40.503 58.415, 40.564 64.800 C 40.600 68.485, 41.215 73.404, 41.931 75.732 L 43.234 79.963 38.630 84.232 C 34.173 88.364, 32.428 92.345, 33.662 95.562 C 34.024 96.504, 35.697 97, 38.517 97 C 42.061 97, 43.763 96.257, 48.160 92.792 C 51.097 90.477, 54.372 87.777, 55.439 86.792 C 56.505 85.806, 58.367 85, 59.577 85 C 61.293 85, 61.920 85.758, 62.423 88.440 C 63.734 95.429, 60.699 100.300, 54.236 101.581 C 52.441 101.937, 50.641 102.739, 50.236 103.364 C 49.831 103.989, 47.313 105.601, 44.640 106.948 C 39.148 109.713, 35.792 114.861, 37.606 117.737 C 39.897 121.369, 41.391 121.322, 49.434 117.363 C 56.161 114.053, 57.586 112.890, 59.392 109.241 C 61.395 105.194, 61.699 104.994, 65.500 105.241 C 69.201 105.481, 69.599 105.799, 70.823 109.500 C 71.985 113.014, 71.936 113.895, 70.416 116.750 C 69.464 118.537, 68.279 120, 67.784 120 C 67.288 120, 67.160 120.450, 67.500 121 C 67.840 121.550, 67.416 122, 66.559 122 C 65.702 122, 65 121.495, 65 120.878 C 65 120.087, 64.569 120.113, 63.544 120.964 C 62.743 121.628, 61.654 121.904, 61.124 121.577 C 60.072 120.926, 57.721 122.969, 55.337 126.609 C 54.231 128.297, 52.190 129.255, 47.910 130.098 C 41.578 131.343, 38.701 133.187, 37.588 136.712 C 35.103 144.583, 47.457 145.324, 58.750 137.982 C 59.988 137.177, 61 136.013, 61 135.394 C 61 132.857, 65.192 129, 67.950 129 C 72.200 129, 73.356 131.135, 72.747 137.856 C 72.110 144.881, 70.530 147.673, 66.333 149.194 C 60.989 151.131, 60.041 157.429, 65 158.049 C 68.699 158.512, 70.386 157.661, 76 152.500 C 82.186 146.813, 85.644 145.661, 88 148.500 C 90.322 151.298, 96.249 149.843, 102.252 145 C 107.238 140.977, 116 118.939, 116 110.420 C 116 107.323, 119.299 103.517, 121.314 104.290 C 123.594 105.165, 124.505 109.715, 123.149 113.463 C 122.521 115.202, 121.719 120.027, 121.367 124.184 C 120.819 130.675, 121.020 132.293, 122.789 135.622 C 123.922 137.755, 125.095 140.649, 125.395 142.054 C 125.812 144.008, 128.005 145.772, 134.720 149.554 C 142.776 154.092, 144.036 154.498, 150 154.473 C 157.347 154.443, 161.621 152.360, 162.636 148.315 C 163.370 145.391, 160.297 138, 158.348 138 C 157.607 138, 157 137.550, 157 137 C 157 134.489, 148.873 137.038, 146.055 140.434 C 144.087 142.806, 141.402 142.325, 137.992 138.992 C 135.049 136.116, 134.933 135.690, 135.320 129.242 C 135.543 125.534, 135.434 121.392, 135.077 120.038 C 134.720 118.684, 135.019 114.634, 135.741 111.038 C 137.199 103.776, 139.001 101.615, 144.936 100.017 C 151.845 98.157, 153.160 95.271, 155.422 77.015 C 157.764 58.116, 158.238 49.312, 157.034 47.064 C 155.186 43.610, 150.383 41.760, 145.141 42.481 C 139.372 43.274, 131.999 41.707, 130.208 39.306 C 129.358 38.167, 129.068 36.162, 129.422 33.875 C 129.851 31.103, 129.471 29.572, 127.806 27.375 C 126.608 25.794, 125.598 24.424, 125.562 24.331 C 125.526 24.238, 124.262 23.853, 122.755 23.475 C 120.482 22.904, 119.422 23.378, 116.554 26.246 M 115.027 53.158 C 110.366 54.773, 105.754 56.818, 104.777 57.702 C 102.302 59.942, 102.445 66.027, 105.039 68.811 C 107.588 71.547, 108.823 71.546, 114.475 68.800 C 118.416 66.885, 119.434 66.755, 122.323 67.800 C 124.148 68.460, 126.201 69, 126.885 69 C 127.569 69, 130.622 70.141, 133.670 71.535 C 139.906 74.387, 141.220 73.979, 142.902 68.670 C 146.649 56.843, 144.933 53.656, 133.657 51.499 C 124.163 49.682, 125.365 49.575, 115.027 53.158 M 82.500 72.205 C 76.190 74.292, 74.503 75.536, 74.178 78.342 C 74.001 79.870, 74.345 81.711, 74.943 82.432 C 75.542 83.153, 76.738 86.163, 77.601 89.121 C 78.464 92.080, 79.892 95.625, 80.774 97 C 81.655 98.375, 82.939 101.750, 83.627 104.500 C 84.315 107.250, 85.590 111.450, 86.462 113.832 C 88.122 118.369, 87.725 127.248, 85.751 129.742 C 84.511 131.309, 85.756 142, 87.178 142 C 87.747 142, 89.097 140.875, 90.179 139.500 C 91.260 138.125, 92.678 137, 93.330 137 C 95.451 137, 99.743 128.453, 101.895 119.942 C 104.895 108.079, 104.710 106.077, 100.097 100.494 C 95.850 95.356, 95.301 93.513, 94.431 81.500 C 94.113 77.100, 93.675 72.938, 93.457 72.250 C 92.993 70.779, 86.886 70.754, 82.500 72.205 M 107.127 80.763 C 105.529 83.748, 104.958 88.326, 105.977 89.969 C 108.106 93.399, 136.408 93.021, 139.912 89.516 C 142.905 86.524, 140.563 77.458, 137.463 80.031 C 136.101 81.161, 115.596 80.753, 110.839 79.501 C 108.771 78.957, 107.943 79.239, 107.127 80.763" stroke="none" fill="black" fill-rule="evenodd"/>
</svg>