<svg xmlns="http://www.w3.org/2000/svg" width="256" height="256" viewBox="0 0 256 256" version="1.1">
	<path d="M 61.046 28.935 C 59.897 30.549, 59.020 32.237, 59.097 32.685 C 59.988 37.871, 54.964 44.280, 50.251 43.970 C 44.349 43.580, 42.191 44.100, 38.709 46.750 C 34.744 49.767, 34.663 51.447, 38.283 55.610 C 40.855 58.569, 44.713 58.697, 50 56 C 57.575 52.136, 60.309 54.051, 59.035 62.331 C 57.974 69.236, 55.038 71.833, 47.487 72.549 C 33.645 73.862, 28 76.040, 28 80.066 C 28 81.881, 31.962 85.683, 36.879 88.588 L 39.694 90.251 37.289 98.375 C 35.295 105.110, 34.998 107.698, 35.553 113.500 C 36.853 127.081, 36.604 134.676, 34.792 136.678 C 32.166 139.579, 30.938 146.651, 32.324 150.896 C 33.238 153.696, 34.099 154.569, 36.187 154.810 C 39.553 155.199, 41.738 152.146, 43.377 144.770 C 44.303 140.596, 45.117 139.231, 47.301 138.184 C 51.720 136.067, 61.033 139.773, 68.006 146.425 C 73.298 151.472, 73.843 151.731, 81.766 152.964 C 87.661 153.881, 93.511 154.010, 102.258 153.416 C 108.991 152.959, 121.350 152.727, 129.723 152.899 C 139.432 153.099, 146.857 152.763, 150.223 151.972 C 163.381 148.879, 164.736 144.591, 153.500 141.602 C 152.400 141.309, 144.525 140.824, 136 140.524 C 127.475 140.223, 119.150 139.608, 117.500 139.156 C 115.564 138.626, 112.727 138.832, 109.500 139.738 C 103.717 141.361, 85.879 141.494, 77.862 139.974 C 71.027 138.678, 69.559 137.291, 71.002 133.495 C 71.598 131.927, 72.179 127.365, 72.293 123.357 C 72.547 114.398, 73.493 113.291, 82.061 111.918 C 85.602 111.351, 89.505 110.232, 90.734 109.431 C 95.390 106.396, 94.371 98.633, 89.144 97.321 C 87.755 96.973, 84.733 97.409, 82.306 98.308 C 79.913 99.195, 77.328 99.679, 76.560 99.385 C 74.480 98.587, 72.671 89.996, 73.901 86.762 C 75.372 82.892, 78.423 81.657, 84.690 82.393 C 89.517 82.961, 90.317 82.774, 92.533 80.558 C 95.458 77.633, 95.784 73.020, 93.229 70.708 C 89.722 67.534, 86.799 67.132, 81.713 69.124 C 75.714 71.475, 75.514 71.468, 73.039 68.811 C 70.455 66.038, 70.436 61.438, 72.989 57.250 C 74.917 54.089, 75.159 54, 81.875 54 C 89.504 54, 92.337 52.505, 93.367 47.934 C 94.680 42.111, 89.370 39.400, 80.235 41.228 C 73.257 42.625, 71 40.858, 71 34 C 71 26.174, 65.137 23.191, 61.046 28.935 M 112.711 34.910 C 104.654 35.520, 104.489 35.614, 101.421 41.283 C 99.711 44.441, 99.715 44.350, 100.494 64 C 100.810 71.975, 101.167 85.025, 101.287 93 C 101.482 105.958, 101.753 107.984, 103.833 112.056 C 105.851 116.006, 107.331 117.238, 114.945 121.306 C 123.605 125.934, 123.861 126, 133.049 126 C 149.736 126, 159 121.590, 159 113.646 C 159 106.007, 153.268 103.802, 147.218 109.113 C 143.733 112.173, 143.553 112.213, 136.586 111.474 C 128.063 110.568, 124.545 110.702, 120.270 112.092 C 116.482 113.323, 115.251 112.761, 113.838 109.153 C 112.162 104.875, 111.786 90.873, 113.269 88 C 114.509 85.600, 114.959 85.495, 124.530 85.385 C 142.159 85.182, 150.454 81.538, 153.509 72.652 C 155.203 67.723, 156.362 44.081, 155.074 40.696 C 153.074 35.435, 149.509 34.345, 134.268 34.331 C 126.696 34.325, 116.995 34.585, 112.711 34.910 M 114.439 48.453 C 112.487 51.432, 110.622 63.170, 111.422 67.436 C 111.757 69.220, 113.148 71.730, 114.513 73.012 C 116.845 75.203, 117.304 75.273, 122.074 74.172 C 124.867 73.528, 129.749 73, 132.921 73 C 140.952 73, 141.637 71.989, 142.515 58.846 C 143.175 48.951, 143.089 48.118, 141.300 47.160 C 140.240 46.593, 134.110 46.123, 127.677 46.116 C 116.493 46.102, 115.912 46.205, 114.439 48.453 M 49.178 85.945 C 46.251 87.521, 43.604 89.063, 43.295 89.372 C 42.986 89.680, 44.137 91.531, 45.852 93.485 C 49.779 97.957, 50.421 100.553, 49.653 108.852 C 48.819 117.878, 49.705 122.577, 52.601 124.474 C 54.849 125.947, 55.142 125.830, 59.394 121.757 L 63.837 117.499 63.487 104.500 C 63.295 97.350, 63.107 90.487, 63.069 89.250 C 62.979 86.312, 59.598 82.989, 56.750 83.040 C 55.513 83.062, 52.105 84.369, 49.178 85.945" stroke="none" fill="black" fill-rule="evenodd"/>
</svg>