<svg xmlns="http://www.w3.org/2000/svg" width="256" height="256" viewBox="0 0 256 256" version="1.1">
	<path d="M 92.005 28.837 C 89.699 32.586, 88.151 33.938, 85.133 34.842 C 82.990 35.484, 80.679 36.682, 79.996 37.505 C 77.938 39.985, 75.507 39.214, 72.128 35.009 C 68.150 30.059, 65.628 29.385, 58.665 31.409 C 55.655 32.284, 50.854 33, 47.997 33 C 34.253 33, 31.102 39.242, 31.775 65.139 C 32.065 76.291, 33.383 78.212, 40.700 78.156 C 44.587 78.125, 46.447 78.651, 48.404 80.333 C 50.902 82.479, 50.993 82.965, 51.242 95.525 C 51.384 102.661, 51.118 110.689, 50.652 113.365 C 50.084 116.625, 50.208 119.673, 51.029 122.602 C 52.396 127.486, 51.370 131.450, 47.934 134.560 C 46.143 136.180, 46.004 136.142, 45.106 133.779 C 44.586 132.412, 44.165 128.190, 44.168 124.397 C 44.180 113.604, 43.223 101.717, 42.107 98.782 C 41.547 97.309, 39.886 95.316, 38.415 94.352 C 35.792 92.634, 35.697 92.650, 33.479 95.230 C 30.458 98.741, 29.531 108.643, 31.113 120.500 C 31.773 125.450, 32.242 132.793, 32.154 136.818 C 31.986 144.491, 32.697 146.134, 36.741 147.418 C 38.370 147.935, 39.790 147.250, 42.610 144.591 C 46.200 141.205, 46.422 141.136, 48.964 142.638 C 51.747 144.282, 53.602 143.801, 61 139.517 C 62.375 138.721, 65.588 137.809, 68.140 137.490 C 72.543 136.940, 72.830 136.712, 73.771 133.003 C 74.897 128.570, 73.491 126.493, 68.451 125.145 C 64.826 124.176, 62 118.836, 62 112.957 C 62 108.026, 62.970 106.308, 67.250 103.657 C 68.763 102.720, 69.988 101.402, 69.974 100.727 C 69.960 100.052, 68.385 97.046, 66.474 94.046 C 63.647 89.608, 63 87.619, 63 83.363 C 63 78.394, 63.219 77.954, 67.411 74.519 C 72.685 70.197, 72.772 70.002, 73.491 60.766 C 73.802 56.770, 74.298 51.993, 74.592 50.151 C 75.120 46.850, 75.188 46.811, 79.314 47.396 C 81.616 47.722, 85.975 48.269, 89 48.611 C 96.068 49.410, 101 52.864, 101 57.016 C 101 60.743, 98.675 62.002, 92.069 61.853 C 83.857 61.668, 80.141 67.141, 85.107 72.107 C 86.996 73.996, 87.957 74.150, 94.357 73.592 C 100.368 73.068, 101.867 73.258, 103.818 74.790 C 109.012 78.870, 103.016 85.981, 94.346 86.024 C 87.645 86.057, 81.796 87.559, 80.277 89.636 C 79.575 90.597, 79 92.860, 79 94.665 C 79 97.325, 79.588 98.253, 82.098 99.551 C 84.747 100.921, 85.934 100.975, 90.293 99.930 C 99.299 97.769, 103.406 98.770, 102.319 102.861 C 101.863 104.575, 92.146 110.803, 85.817 113.438 C 81.903 115.067, 79 118.347, 79 121.140 C 79 122.366, 80.396 123.134, 84.049 123.917 C 86.826 124.513, 89.911 125, 90.904 125 C 92.704 125, 97.936 130.434, 98.071 132.443 C 99.127 148.147, 99.735 151.114, 102.489 153.988 C 106.124 157.783, 113.610 159.375, 124.951 158.767 C 135.565 158.197, 145.592 154.408, 151.123 148.877 C 154.594 145.406, 154.817 144.848, 153.946 141.811 C 152.544 136.923, 152.798 131.345, 154.500 129.643 C 156.582 127.561, 156.373 124.373, 154 122 C 152.900 120.900, 152 119.550, 152 119 C 152 118.450, 151.662 117.997, 151.250 117.994 C 150.838 117.990, 149.725 116.625, 148.777 114.960 C 144.935 108.209, 130.830 104.883, 123.500 109 C 118.695 111.699, 117.324 111.528, 115.500 108 C 114.647 106.350, 114.368 105, 114.881 105 C 115.393 105, 115.600 104.187, 115.340 103.193 C 114.372 99.490, 118.028 97.087, 127.872 94.957 C 136.559 93.078, 137.626 93.040, 142.453 94.443 C 147.458 95.898, 149.760 95.728, 155.250 93.497 C 158.014 92.374, 157.300 89.331, 153.611 86.517 C 150.856 84.416, 149.357 83.997, 145.598 84.280 C 142.092 84.544, 140.576 84.189, 139.332 82.814 C 138.429 81.816, 138.142 81, 138.695 81 C 139.276 81, 139.521 79.210, 139.277 76.750 C 138.625 70.185, 140.031 67.715, 145.307 66.162 C 148.919 65.098, 149.775 64.430, 149.482 62.908 C 148.597 58.313, 145.298 57.711, 139.558 61.098 C 136.554 62.871, 135.513 63.026, 132.852 62.098 C 131.119 61.494, 128.531 60.990, 127.101 60.978 C 121.295 60.929, 111 54.491, 111 50.909 C 111 49.951, 110.438 48.960, 109.750 48.707 C 109.063 48.454, 109.839 47.892, 111.475 47.458 C 113.219 46.996, 117.357 47.203, 121.475 47.958 C 132.002 49.888, 140.405 50.465, 139.626 49.204 C 139.220 48.547, 141.153 47.731, 144.737 47.047 C 151.513 45.754, 157 43.219, 157 41.381 C 157 39.361, 152.874 36, 150.393 36 C 146.815 36, 145.025 34.948, 143.464 31.931 C 142.660 30.376, 140.428 27.903, 138.504 26.435 C 135.097 23.836, 134.936 23.812, 132.359 25.501 C 130.903 26.454, 127.006 29.891, 123.698 33.138 C 120.390 36.385, 116.701 39.288, 115.501 39.589 C 113.084 40.196, 107.059 37.264, 105.992 34.961 C 101.200 24.627, 100.734 24, 97.852 24 C 95.497 24, 94.447 24.869, 92.005 28.837 M 52.242 43.617 C 46.396 46.445, 45.789 47.263, 44.056 54.652 C 43.026 59.042, 43.083 60.261, 44.442 62.888 C 47.409 68.625, 56.367 68.378, 60.026 62.457 C 62.695 58.140, 62.975 47.138, 60.513 43.380 C 58.613 40.480, 58.732 40.477, 52.242 43.617 M 115.572 75.323 C 113.990 76.481, 113.933 76.920, 115.122 78.823 C 117.641 82.857, 125 80.509, 125 75.671 C 125 73.575, 118.302 73.328, 115.572 75.323 M 109.141 119.801 C 105.991 124.226, 107.827 125.547, 118.168 126.296 C 130.171 127.165, 138 125.270, 138 121.496 C 138 119.801, 131.417 118.290, 120.401 117.455 L 111.303 116.766 109.141 119.801 M 117.565 137.724 C 112.491 138.136, 110.093 139.895, 110.032 143.250 C 109.998 145.135, 113.476 145.455, 129.966 145.085 C 137.902 144.907, 138.997 144.269, 138.555 140.081 C 138.288 137.556, 138.111 137.498, 130.391 137.412 C 126.051 137.364, 120.279 137.504, 117.565 137.724" stroke="none" fill="black" fill-rule="evenodd"/>
</svg>