<svg xmlns="http://www.w3.org/2000/svg" width="256" height="256" viewBox="0 0 256 256" version="1.1">
	<path d="M 119.924 22.581 C 118.591 24, 117.725 25.252, 118 25.363 C 119.182 25.840, 114.601 33.871, 112.891 34.318 C 111.855 34.589, 108.361 34.571, 105.127 34.278 C 99.755 33.791, 98.710 34.048, 93.013 37.258 L 86.779 40.771 81.152 38.793 C 77.864 37.638, 74.213 37.028, 72.370 37.327 C 67.904 38.052, 65 35.760, 65 31.508 C 65 24.256, 61.084 19.681, 57.039 22.207 C 54.629 23.713, 51.717 30.533, 52.471 32.908 C 53.591 36.437, 50.692 38.313, 43.502 38.714 C 36.125 39.125, 31.669 40.882, 29.974 44.048 C 27.337 48.976, 33.214 53.748, 40.413 52.525 C 50.745 50.770, 50.698 50.770, 51.347 52.463 C 52.089 54.394, 49.801 60.387, 47.866 61.583 C 47.131 62.037, 45.037 62.281, 43.213 62.124 C 39.158 61.774, 35.622 63.956, 33.271 68.259 C 31.830 70.896, 31.517 73.800, 31.590 83.842 C 31.652 92.400, 32.054 96.415, 32.901 96.939 C 33.573 97.354, 34.266 99.900, 34.441 102.597 C 34.616 105.294, 34.813 108.255, 34.879 109.179 C 35.149 112.931, 37.906 114.169, 44.433 113.470 C 50.247 112.848, 50.653 112.944, 51.674 115.184 C 52.493 116.982, 52.400 118.447, 51.286 121.240 C 49.662 125.311, 47.112 126.666, 44.104 125.055 C 43.019 124.475, 40.087 124, 37.589 124 C 31.961 124, 29.205 127.102, 30.733 131.718 C 32.342 136.581, 42.742 138.426, 46.053 134.436 C 47.927 132.178, 51.760 132.704, 53.570 135.467 C 54.752 137.271, 55.002 139.026, 54.501 141.996 C 53.205 149.666, 57.646 160.840, 61.416 159.394 C 63.652 158.536, 65.212 153.540, 65.035 147.803 C 64.720 137.585, 64.890 135.686, 66.190 134.862 C 66.910 134.405, 70.650 134.027, 74.500 134.022 C 78.350 134.017, 84.998 133.481, 89.273 132.830 C 98.388 131.443, 98.787 131.657, 101.004 139.137 C 102.211 143.208, 103.242 144.635, 106.219 146.356 L 109.930 148.500 112.146 146.291 C 114.216 144.228, 114.284 143.743, 113.181 138.965 C 112.532 136.150, 112 133.261, 112 132.545 C 112 130.762, 116.323 129.243, 123.564 128.483 C 130.423 127.763, 132.781 129.167, 131.561 133.245 C 131.190 134.485, 130.651 137.750, 130.363 140.500 C 129.796 145.920, 128.298 148.020, 122.958 150.881 C 116.809 154.175, 118.027 158.327, 125.470 159.443 C 137.117 161.190, 144.938 150.134, 141.941 136.159 C 140.539 129.621, 141.514 128.173, 147.297 128.206 C 152.297 128.235, 156.826 126.617, 157.633 124.513 C 158.673 121.803, 157.056 118.146, 154.026 116.356 C 149.948 113.948, 149.674 112.541, 152.602 109.061 C 155.829 105.226, 156.650 101.836, 156.009 95 C 155.724 91.975, 155.826 87.925, 156.235 86 C 157.555 79.777, 158.329 72.650, 158.415 65.928 C 158.486 60.475, 158.074 58.731, 156 55.693 C 152.864 51.099, 150.413 50.285, 140.900 50.680 C 134.622 50.940, 132.926 50.670, 131.150 49.130 C 128.392 46.738, 128.439 45.638, 131.368 44.071 C 133.239 43.069, 134.926 43.051, 139.413 43.982 C 153.249 46.854, 162.279 39.620, 153.782 32.470 C 150.354 29.585, 150.970 29.617, 135.286 31.520 C 132.597 31.846, 131.703 31.391, 129.813 28.737 C 128.570 26.992, 127.470 24.996, 127.368 24.302 C 127.143 22.772, 124.487 20, 123.246 20 C 122.752 20, 121.258 21.161, 119.924 22.581 M 105 47.214 C 100.312 48.874, 98.712 49.004, 94.168 48.098 C 88.608 46.988, 89.013 46.881, 80.693 51.680 C 79.031 52.639, 77.936 52.498, 74.863 50.930 C 70.437 48.672, 65.441 48.408, 64.680 50.391 C 64.386 51.157, 64.901 53.294, 65.823 55.141 C 67.583 58.665, 68.803 58.990, 75.683 57.763 C 82.353 56.574, 85 63.293, 85 81.409 C 85 88.819, 85.396 95.127, 85.881 95.426 C 86.365 95.726, 86.985 97.139, 87.257 98.567 C 87.639 100.560, 86.826 102.247, 83.760 105.831 C 78.408 112.087, 75.644 113.242, 70.727 111.274 C 67.228 109.874, 66.774 109.895, 64.964 111.532 C 62.576 113.694, 62.529 114.749, 64.633 118.967 L 66.267 122.241 77.383 121.813 C 85.532 121.498, 89.180 120.937, 91.046 119.710 C 93.804 117.898, 116.505 115.408, 120.691 116.459 C 123.953 117.277, 130.239 114.468, 129.827 112.376 C 129.220 109.289, 126.456 108.446, 121.793 109.926 C 119.432 110.675, 113.672 111.477, 108.994 111.709 C 101.332 112.088, 100.142 111.896, 97.001 109.780 C 91.208 105.876, 91.872 102.637, 99.234 98.881 C 102.624 97.151, 103.533 97.063, 106.595 98.171 C 108.921 99.011, 110.601 99.111, 111.622 98.467 C 114.292 96.782, 112.661 95.503, 107.732 95.416 C 102.590 95.325, 101.573 94.533, 98.002 87.839 C 95.908 83.912, 94.459 78.896, 92.784 69.779 C 91.533 62.966, 92.683 59.286, 97.271 55.425 C 99.971 53.153, 100.839 52.961, 105.658 53.563 C 110.316 54.145, 111.498 53.918, 114.510 51.867 C 116.740 50.349, 117.989 48.693, 117.993 47.250 C 117.999 45.292, 117.513 45.017, 114.250 45.133 C 112.188 45.206, 108.025 46.143, 105 47.214 M 131.526 61.266 C 130.733 62.399, 130.356 63.767, 130.689 64.307 C 132.169 66.701, 132.110 73.004, 130.588 75.178 C 128.552 78.084, 128.580 80.481, 130.691 84.054 C 132.625 87.328, 135.786 87.497, 140.260 84.565 C 144.515 81.777, 144.688 79.305, 140.901 75.398 C 138.340 72.755, 137.871 71.729, 138.802 70.798 C 139.461 70.139, 140 68.838, 140 67.907 C 140 66.976, 140.675 65.955, 141.500 65.638 C 144.885 64.340, 142.551 61.359, 137.210 60.159 C 133.455 59.315, 132.804 59.441, 131.526 61.266 M 110.750 62.572 C 107.826 64.158, 107.358 65.931, 109.035 69.066 C 110.550 71.896, 112.766 71.434, 114.958 67.829 C 116.376 65.497, 116.628 64.173, 115.908 62.829 C 114.743 60.651, 114.328 60.631, 110.750 62.572 M 63.422 70.750 C 61.083 74.307, 61.386 77.329, 64.489 81.396 C 65.865 83.200, 66.693 84.974, 66.329 85.338 C 65.965 85.702, 66.192 86, 66.833 86 C 68.666 86, 68.210 87.671, 65.612 90.474 C 62.607 93.716, 61.872 97.372, 63.699 99.981 C 65.696 102.832, 69.413 102.544, 71.487 99.379 C 73.529 96.263, 73.917 90.185, 72.144 89.089 C 71.220 88.518, 71.060 86.357, 71.538 80.906 C 72.327 71.921, 71.143 68, 67.640 68 C 66.116 68, 64.565 69.011, 63.422 70.750 M 46.189 73.039 C 43.660 75.395, 43.342 79.615, 45.465 82.646 C 46.270 83.796, 46.645 85.021, 46.298 85.369 C 45.951 85.716, 46.192 86, 46.833 86 C 47.475 86, 48 86.675, 48 87.500 C 48 88.325, 47.605 89, 47.121 89 C 46.274 89, 43.603 94.452, 43.447 96.500 C 43.305 98.367, 45.919 102.755, 47.545 103.379 C 49.970 104.309, 50.426 104.183, 52.870 101.906 C 54.671 100.229, 54.981 99.185, 54.431 96.656 C 54.053 94.920, 53.127 92.612, 52.372 91.527 C 50.480 88.807, 50.655 85.066, 52.890 80.472 C 54.872 76.397, 54.661 74.309, 52.062 72.282 C 49.854 70.560, 48.688 70.710, 46.189 73.039 M 107.844 78.156 C 105.946 80.054, 105.949 80.120, 108.066 83.093 C 109.274 84.789, 110.927 85.968, 111.848 85.791 C 113.861 85.403, 116.222 80.743, 115.440 78.703 C 114.512 76.286, 110.036 75.964, 107.844 78.156 M 130.951 94.283 C 129.303 96.052, 129.267 96.478, 130.592 98.500 C 133.564 103.037, 142.002 100.293, 139.818 95.500 C 138.372 92.326, 133.409 91.645, 130.951 94.283" stroke="none" fill="black" fill-rule="evenodd"/>
</svg>