<svg xmlns="http://www.w3.org/2000/svg" width="256" height="256" viewBox="0 0 256 256" version="1.1">
	<path d="M 55.944 23.652 C 53.757 24.242, 50.760 29.676, 50.295 33.894 C 49.695 39.344, 47.597 41, 41.295 41 C 34.672 41, 30.543 43.004, 29.194 46.873 C 28.353 49.286, 28.505 50.165, 30.052 51.825 C 32.947 54.933, 35.602 55.311, 41.498 53.457 C 48.270 51.327, 50 51.912, 50 56.334 C 50 61.634, 46.757 65, 41.650 65 C 32.833 65, 30 69.947, 30 85.345 C 30 93.379, 30.342 96.039, 31.500 97 C 32.403 97.749, 33 99.937, 33 102.497 C 33 113.150, 36.092 117.228, 42.645 115.217 C 44.589 114.620, 46.797 114.369, 47.552 114.658 C 50.660 115.851, 51.122 123.574, 48.318 127.470 C 46.660 129.774, 46.049 129.943, 41.371 129.398 C 34.900 128.643, 32 130.041, 32 133.913 C 32 135.476, 32.744 137.373, 33.654 138.128 C 35.634 139.771, 44.237 139.788, 44.784 138.149 C 45.462 136.115, 49.601 136.875, 50.772 139.250 C 51.383 140.488, 52.042 144.533, 52.238 148.239 C 52.623 155.544, 55.033 160.249, 58.669 160.796 C 61.600 161.236, 63 157.106, 63 148.020 C 63 139.135, 62.537 139.614, 72.186 138.518 C 77.108 137.959, 78.149 138.149, 79.936 139.936 C 81.270 141.270, 82.011 143.327, 82.032 145.750 C 82.070 150.209, 83.920 153, 86.837 153 C 89.587 153, 91.747 149.604, 92.918 143.441 C 93.434 140.724, 94.561 137.150, 95.422 135.500 C 96.283 133.850, 96.990 130.319, 96.994 127.654 C 97.002 121.273, 99.566 116.807, 102.991 117.207 L 105.500 117.500 105.295 129.500 C 105.182 136.100, 104.789 143.610, 104.421 146.190 C 103.777 150.717, 103.870 150.953, 107.127 152.998 C 111.491 155.739, 119.188 155.077, 126.983 151.289 C 132.962 148.384, 138.434 147.998, 144.633 150.044 C 149.944 151.797, 158.899 151.529, 160.870 149.559 C 162.341 148.088, 162.041 147.535, 157.237 142.854 C 154.356 140.049, 152 137.166, 152 136.449 C 152 135.732, 153.125 134.260, 154.500 133.179 C 155.875 132.097, 157 130.714, 157 130.106 C 157 129.498, 157.450 129, 158 129 C 158.550 129, 159 128.518, 159 127.929 C 159 125.564, 155.812 123.938, 150.353 123.520 C 144.674 123.084, 139 121.375, 139 120.101 C 139 119.740, 139.701 118.445, 140.557 117.223 C 141.923 115.272, 143.004 115, 149.402 115 C 156.965 115, 160 113.509, 160 109.794 C 160 107.718, 155.524 104.131, 150.783 102.408 C 148.164 101.456, 147.848 98.960, 149.588 92.965 C 152.603 82.582, 152.577 80.060, 149.428 77.354 C 145.354 73.853, 142.794 73.555, 137.375 75.952 C 130.706 78.902, 126.173 78.932, 123.832 76.041 C 121.010 72.556, 120.461 69.109, 122.418 67.165 C 123.823 65.771, 125.972 65.542, 135.625 65.761 C 149.075 66.065, 151.879 65.014, 154.937 58.522 C 157.154 53.817, 159.396 38.078, 158.458 33.808 C 158.058 31.988, 156.598 30.116, 154.655 28.931 C 151.895 27.249, 149.557 27.010, 136 27.028 C 127.475 27.039, 118.700 27.534, 116.500 28.128 C 114.300 28.721, 109.350 29.647, 105.500 30.185 C 91.835 32.094, 87.417 36.342, 88.532 46.500 C 88.894 49.800, 89.182 65.573, 89.173 81.551 C 89.156 108.328, 88.990 111.113, 87.050 117.119 C 85.892 120.703, 84.031 124.771, 82.914 126.159 C 81.044 128.482, 80.489 128.620, 75.933 127.900 C 73.211 127.470, 69.995 127.308, 68.787 127.541 C 65.244 128.223, 61.997 124.404, 62.015 119.576 C 62.024 117.334, 62.434 114.863, 62.927 114.085 C 63.798 112.708, 70.068 112.306, 72.003 113.502 C 73.670 114.532, 78.040 112.793, 79.210 110.635 C 79.898 109.364, 80.644 100.439, 81.051 88.583 C 81.688 70.056, 81.602 68.439, 79.822 65.422 C 77.092 60.796, 74.646 59.844, 69.162 61.273 C 65.035 62.348, 63.079 60.302, 63.032 54.857 C 62.992 50.272, 64.748 49.496, 70.633 51.494 C 76.778 53.580, 77.797 53.429, 81.048 49.949 C 84.243 46.529, 84.089 45.013, 80.103 40.650 C 77.664 37.980, 77.139 37.837, 71.783 38.381 C 63.797 39.193, 63 38.707, 63 33.028 C 63 28.586, 60.172 22.774, 58.177 23.116 C 57.805 23.180, 56.800 23.421, 55.944 23.652 M 120.500 41.474 C 117.200 42.243, 112.333 42.900, 109.684 42.936 C 103.898 43.013, 101 44.381, 101 47.035 C 101 48.116, 100.612 49, 100.139 49 C 98.229 49, 100.405 54.228, 102.762 55.301 C 104.876 56.264, 105.977 56.038, 109.937 53.827 C 114.484 51.289, 115.008 51.227, 128.670 51.626 C 140.255 51.965, 142.942 51.775, 143.960 50.548 C 145.354 48.869, 145.806 42.473, 144.615 41.281 C 143.236 39.899, 126.691 40.031, 120.500 41.474 M 104.960 66.723 C 104.112 66.911, 102.586 68.613, 101.568 70.504 C 99.903 73.595, 99.834 74.678, 100.885 81.221 C 101.719 86.413, 101.760 90.044, 101.027 93.886 C 99.428 102.273, 99.680 105.764, 101.937 106.480 C 107.032 108.097, 110.265 101.949, 109.005 93.039 C 108.349 88.396, 108.578 85.543, 110.067 79.810 C 112.664 69.813, 112.570 68.384, 109.250 67.287 C 107.737 66.788, 105.807 66.534, 104.960 66.723 M 62.686 72.439 C 60.381 74.186, 60.185 79.442, 62.336 81.819 C 64.868 84.617, 65.555 89.729, 63.678 91.803 C 62.807 92.765, 61.801 95.394, 61.441 97.645 C 60.873 101.197, 61.094 101.952, 63.116 103.369 C 64.397 104.266, 65.740 105, 66.101 105 C 67.713 105, 69.169 98.776, 68.608 94.292 C 67.804 87.875, 67.802 87.314, 68.579 81.266 C 69.096 77.238, 68.872 75.453, 67.603 73.516 C 65.721 70.645, 65.202 70.531, 62.686 72.439 M 44.655 74.829 C 42.810 76.867, 42.514 80.223, 43.943 82.893 C 45.750 86.270, 45.719 90.503, 43.860 94.210 C 41.414 99.089, 41.514 101.194, 44.314 103.826 C 47.273 106.605, 49.115 106.571, 51.826 103.686 C 54.333 101.016, 54.599 98.742, 52.598 97.081 C 51.827 96.442, 50.919 94.811, 50.579 93.459 C 50.240 92.107, 49.494 91, 48.922 91 C 48.350 91, 48.160 90.550, 48.500 90 C 48.840 89.450, 48.529 88.993, 47.809 88.985 C 47.007 88.975, 46.888 88.685, 47.503 88.235 C 49.319 86.904, 54 79.424, 54 77.851 C 54 75.748, 50.786 73, 48.326 73 C 47.217 73, 45.565 73.823, 44.655 74.829 M 124.067 94.611 C 120.031 101.452, 124.481 105.437, 132.376 102.053 C 134.798 101.015, 137.068 99.699, 137.420 99.129 C 138.715 97.034, 131.462 91, 127.648 91 C 126.850 91, 125.239 92.625, 124.067 94.611 M 119.081 117.585 L 116.009 120.170 116.440 129.022 C 116.720 134.770, 117.424 138.718, 118.449 140.283 C 120.187 142.934, 123.981 145, 127.113 145 C 128.223 145, 129.992 145.460, 131.043 146.023 C 132.560 146.835, 132.840 146.747, 132.400 145.600 C 132.077 144.758, 132.713 143.689, 133.922 143.042 C 136.276 141.782, 136.751 137.502, 134.628 136.688 C 132.217 135.762, 129.118 127.801, 129.220 122.793 C 129.381 114.862, 124.995 112.609, 119.081 117.585" stroke="none" fill="black" fill-rule="evenodd"/>
</svg>