<svg xmlns="http://www.w3.org/2000/svg" width="256" height="256" viewBox="0 0 256 256" version="1.1">
	<path d="M 108.423 24.720 C 107.574 25.569, 106.121 28.016, 105.192 30.160 C 103.223 34.705, 101.108 35.482, 88.302 36.364 C 78.744 37.023, 73.834 38.797, 71.436 42.457 C 70.067 44.546, 69.940 45.573, 70.812 47.487 C 72.419 51.014, 77.435 51.566, 90.417 49.644 C 102.452 47.863, 106 48.192, 106 51.091 C 106 54.470, 96.490 57.382, 86.500 57.062 C 82.081 56.921, 74.421 61.099, 73.441 64.186 C 73.139 65.139, 73.859 69.170, 75.043 73.143 C 76.859 79.241, 77.117 82.046, 76.695 91.124 L 76.197 101.879 80.848 103.469 C 83.407 104.343, 89.775 105.502, 95 106.045 C 109.176 107.516, 109.859 107.905, 105.487 112.012 C 103.210 114.151, 101.874 114.413, 91.237 114.809 C 82.346 115.140, 78.591 115.706, 75.750 117.143 C 71.634 119.226, 70.924 121.743, 73.750 124.229 C 76.180 126.367, 89.967 127.290, 97.190 125.799 C 104.273 124.337, 107.448 125.488, 108.317 129.833 C 109.400 135.249, 117 135.388, 117 129.992 C 117 125.597, 116.551 125.722, 136.500 124.545 C 152.759 123.585, 153 123.510, 153 119.370 C 153 116.353, 152.545 115.708, 149.532 114.449 C 147.625 113.652, 144.706 113, 143.046 113 C 141.387 113, 138.040 112.468, 135.608 111.818 C 131.914 110.830, 130.337 110.910, 126.010 112.308 C 120.604 114.054, 118.648 113.690, 115.950 110.440 C 114.740 108.982, 114.874 108.520, 117.007 106.793 C 119.102 105.097, 120.343 104.911, 125.719 105.487 C 131.349 106.089, 132.561 105.869, 137.607 103.329 C 141.094 101.573, 143.608 99.552, 144.236 98 C 145.589 94.653, 147.102 83.227, 147.415 74 C 147.554 69.875, 147.996 65.583, 148.395 64.462 C 148.886 63.087, 148.469 61.595, 147.112 59.869 C 145.482 57.798, 143.393 56.983, 136.097 55.573 C 131.145 54.616, 125.610 53.936, 123.797 54.062 C 118.107 54.457, 117 54.109, 117 51.929 C 117 47.702, 118.863 47.171, 133.088 47.340 C 150.640 47.549, 155.007 45.858, 153.404 39.473 C 152.233 34.808, 149.301 34, 133.535 34 C 122.409 34, 119 33.700, 119 32.723 C 119 32.020, 117.699 30.021, 116.109 28.281 C 114.519 26.540, 113.412 24.922, 113.649 24.685 C 113.886 24.448, 113.154 24.012, 112.022 23.716 C 110.857 23.411, 109.296 23.847, 108.423 24.720 M 39.790 37.058 C 38.850 37.606, 37.798 39.562, 37.452 41.406 C 36.597 45.959, 39.026 50.355, 44.547 54.246 C 48.673 57.155, 54 63.728, 54 65.911 C 54 66.436, 54.900 67.151, 56 67.500 C 57.100 67.849, 58 68.459, 58 68.855 C 58 70.019, 62.293 70.002, 63.704 68.831 C 65.889 67.017, 65.174 65.009, 61.010 61.271 C 57.076 57.741, 57.028 57.612, 57.647 52.350 L 58.274 47.012 52.724 41.506 C 47.023 35.850, 43.777 34.733, 39.790 37.058 M 121.324 66.731 C 113.314 67.701, 115.396 75.304, 124.283 77.535 C 126.263 78.032, 127.514 77.419, 130.387 74.547 C 132.374 72.559, 134 70.553, 134 70.088 C 134 68.248, 126.093 66.154, 121.324 66.731 M 93.465 68.952 C 89.354 70.618, 88.598 72.632, 90.735 76.229 C 93.085 80.184, 95.415 80.185, 101.674 76.231 C 107.071 72.821, 107.585 69.567, 102.875 68.625 C 98.857 67.821, 96.010 67.920, 93.465 68.952 M 52.416 77.272 C 51.269 77.947, 47.824 80.175, 44.759 82.221 C 39.824 85.517, 39.105 86.433, 38.487 90.221 C 38.103 92.575, 36.919 95.930, 35.857 97.678 C 33.562 101.455, 34.110 104.815, 37.548 108.045 C 39.761 110.124, 40.239 110.193, 44.385 109.032 C 50.872 107.216, 51.289 107.816, 50.573 117.932 C 50.234 122.715, 49.753 127.725, 49.504 129.064 C 49.046 131.531, 45.165 135.444, 38.657 140 C 32.442 144.352, 31.330 150.205, 36.199 152.938 C 38.476 154.216, 39.617 154.254, 43.692 153.187 C 46.337 152.494, 50.795 150.819, 53.600 149.464 C 59.529 146.599, 61.068 146.467, 64.968 148.483 C 66.546 149.299, 71.361 151.125, 75.668 152.541 C 94.324 158.672, 144.693 158.403, 157 152.107 C 161.799 149.651, 162.103 146.643, 157.816 144.029 C 153.871 141.624, 150.507 141.472, 145.697 143.482 C 143.093 144.570, 138.340 144.947, 127.825 144.900 C 119.946 144.865, 110.103 144.890, 105.951 144.955 C 96.152 145.109, 81.416 142.700, 76.430 140.129 C 74.268 139.014, 70.420 137.220, 67.878 136.142 C 64.001 134.497, 63.156 133.643, 62.634 130.841 C 62.291 129.003, 62.318 126.375, 62.693 125 C 63.442 122.253, 63.444 113.484, 62.696 108 C 62.434 106.075, 62.170 104.006, 62.110 103.403 C 62.049 102.800, 61.100 101.268, 60 100 C 57.507 97.126, 57.491 94.794, 59.913 87.754 C 61.672 82.642, 61.698 82.007, 60.244 79.848 C 59.375 78.556, 58.626 77.443, 58.582 77.374 C 57.948 76.397, 54.011 76.332, 52.416 77.272 M 117.507 86.587 C 114.329 90.017, 114.354 91.497, 117.646 94.548 C 121.201 97.843, 128.931 98.216, 132.250 95.253 C 135.257 92.568, 134.419 89.604, 129.943 87.088 C 123.601 83.524, 120.463 83.398, 117.507 86.587 M 91.751 86.635 C 89.500 87.293, 88.448 91.492, 89.793 94.445 C 91.118 97.354, 94.994 98.348, 99.879 97.033 C 105.821 95.433, 108.494 91.094, 105.426 88.026 C 104.310 86.910, 94.297 85.891, 91.751 86.635" stroke="none" fill="black" fill-rule="evenodd"/>
</svg>