<svg xmlns="http://www.w3.org/2000/svg" width="256" height="256" viewBox="0 0 256 256" version="1.1">
	<path d="M 77.489 30.424 C 75.283 31.746, 69.208 33.781, 63.989 34.945 C 48.672 38.362, 46.645 39.048, 43.736 41.793 C 40.980 44.393, 40.972 44.442, 40.983 57.951 C 40.989 65.403, 40.741 78.475, 40.431 87 C 40.122 95.525, 39.749 108.575, 39.601 116 C 39.454 123.425, 38.733 131.568, 38 134.096 C 35.950 141.167, 36.685 141.983, 45.219 142.101 C 59.110 142.295, 65.917 141.263, 79.500 136.905 C 82.800 135.846, 87.892 134.984, 90.816 134.990 C 96.570 135.001, 99.449 133.886, 102.144 130.603 C 103.851 128.523, 103.886 128.521, 105.324 130.459 C 106.124 131.536, 107.089 135.981, 107.469 140.337 C 108.353 150.475, 109.476 153, 113.101 153 C 116.483 153, 117.063 152.162, 117.437 146.728 C 117.915 139.776, 120.266 130.835, 121.767 130.259 C 122.539 129.963, 124.975 130.683, 127.180 131.860 C 132.200 134.540, 135.173 134.571, 137.529 131.968 C 138.541 130.850, 142.548 128.399, 146.434 126.521 C 155.237 122.266, 156.222 121.454, 158.589 116.500 C 159.967 113.617, 160.490 110.379, 160.464 104.901 C 160.423 96.166, 158.752 92.627, 153.672 90.513 C 150.051 89.006, 141.988 87.605, 143.500 88.746 C 144.050 89.161, 144.581 91.300, 144.681 93.500 C 144.780 95.700, 145.133 101.550, 145.466 106.500 C 145.994 114.359, 145.836 115.770, 144.222 117.631 C 141.977 120.217, 135.691 121.398, 131.196 120.079 C 128.531 119.296, 127.562 119.437, 126.186 120.804 C 125.248 121.737, 123.376 122.500, 122.026 122.500 C 118.680 122.500, 117.039 118.915, 116.990 111.500 C 116.969 108.200, 116.537 103.700, 116.031 101.500 C 114.507 94.874, 114.462 86.007, 115.903 76.534 C 116.734 71.077, 117.054 63.972, 116.720 58.383 C 116.076 47.595, 116.997 45.487, 122.744 44.594 C 127.879 43.796, 142.080 46.176, 143.237 48.028 C 144.832 50.583, 142.301 54.895, 137.513 57.780 C 135.030 59.276, 132.734 61.480, 132.409 62.678 C 132.085 63.875, 131.185 65.099, 130.410 65.396 C 129.634 65.694, 129 67.275, 129 68.910 C 129 70.544, 128.550 72.160, 128 72.500 C 126.628 73.348, 126.738 80.640, 128.163 83.316 C 130.012 86.788, 132.198 87.944, 136.657 87.809 C 141.302 87.668, 140.977 88.918, 139.481 76.932 C 138.695 70.630, 140.125 67.446, 144.443 65.885 C 146.399 65.177, 148 64.287, 148 63.907 C 148 63.527, 150.014 60.977, 152.475 58.239 C 157.568 52.575, 159 49.473, 159 44.109 C 159 40.247, 156.974 37.524, 152.316 35.125 C 149.492 33.671, 113.638 33.588, 110.945 35.030 C 109.886 35.596, 108.229 37.508, 107.260 39.280 C 105.666 42.197, 105.488 46.421, 105.375 84.143 C 105.306 107.047, 104.941 126.286, 104.564 126.897 C 103.769 128.183, 99.242 127.343, 97 125.493 C 96.175 124.812, 93.859 123.494, 91.854 122.563 C 87.228 120.416, 87.045 119.419, 87.746 100.217 C 88.286 85.416, 88.387 84.840, 90.787 82.953 C 92.153 81.879, 93.813 81, 94.477 81 C 95.140 81, 96.203 79.264, 96.839 77.143 C 97.748 74.110, 97.708 72.455, 96.652 69.393 C 94.706 63.751, 91.782 63.645, 86.852 69.039 C 83.116 73.126, 82.867 73.230, 78.749 72.438 C 76.412 71.988, 69.830 71.564, 64.122 71.495 C 55.214 71.388, 53.549 71.104, 52.372 69.494 C 50.661 67.154, 50.607 58.334, 52.284 55.021 C 54.151 51.331, 60.352 48.340, 68.713 47.096 C 72.804 46.488, 76.987 45.542, 78.010 44.995 C 79.032 44.448, 81.044 44, 82.480 44 C 88.762 44, 92.506 34.506, 88 30 C 85.368 27.368, 82.386 27.488, 77.489 30.424 M 54.108 84.750 C 51.020 87.306, 50.279 93.478, 50.928 111.216 C 51.370 123.276, 51.852 127.276, 53.002 128.411 C 54.213 129.606, 56.203 129.756, 63.385 129.195 C 72.240 128.502, 72.276 128.488, 74.212 125 C 75.908 121.944, 76.060 120.422, 75.409 113 C 74.747 105.460, 74.201 95.910, 74.051 89.235 C 73.930 83.850, 59.197 80.536, 54.108 84.750" stroke="none" fill="black" fill-rule="evenodd"/>
</svg>