<svg xmlns="http://www.w3.org/2000/svg" width="256" height="256" viewBox="0 0 256 256" version="1.1">
	<path d="M 60.073 27.635 C 58.817 29.231, 58 31.740, 58 34 C 58 36.260, 57.183 38.769, 55.927 40.365 C 54.106 42.680, 53.138 43, 47.950 43 C 42.746 43, 41.851 43.298, 40.398 45.515 C 38.175 48.907, 38.322 52.766, 40.766 55.211 C 42.559 57.003, 43.183 57.095, 46.391 56.036 C 48.376 55.381, 50 54.403, 50 53.862 C 50 53.322, 51.688 53.019, 53.750 53.190 C 57.196 53.475, 57.526 53.771, 57.820 56.835 C 58.268 61.513, 55.146 69.729, 52.674 70.375 C 51.583 70.660, 48.563 70.402, 45.961 69.802 C 41.761 68.832, 40.705 68.964, 36.536 70.983 C 30.818 73.751, 29.221 76.603, 31.143 80.613 C 33.279 85.069, 36.860 85.770, 44.238 83.179 C 50.981 80.811, 56.969 80.378, 60.066 82.035 C 64.331 84.318, 61.534 92.278, 55.750 94.320 C 54.788 94.659, 54 95.362, 54 95.881 C 54 96.400, 50.923 98.001, 47.163 99.438 C 40.701 101.907, 35.960 105.580, 34.754 109.052 C 34.457 109.906, 34.808 112.018, 35.535 113.744 C 36.516 116.079, 37.834 117.159, 40.677 117.959 C 42.780 118.551, 45.497 119.874, 46.715 120.899 C 49.069 122.881, 50.782 129, 48.982 129 C 48.298 129, 48.034 132.974, 48.218 140.474 C 48.471 150.749, 48.730 152.177, 50.697 154.143 C 52.856 156.301, 52.982 156.310, 58.062 154.669 C 60.904 153.751, 65.547 153, 68.380 153 C 71.554 153, 74.909 152.261, 77.124 151.073 C 80.555 149.234, 80.930 149.223, 85.362 150.817 C 90.944 152.824, 92.616 152.100, 95.500 146.431 C 97.342 142.810, 97.478 140.848, 97.216 121.522 C 96.913 99.156, 96.625 97.766, 91.623 94.489 C 90.331 93.642, 87.525 92.894, 85.387 92.827 C 79.580 92.645, 77.326 91.488, 76.733 88.383 C 75.727 83.121, 80.589 79, 87.804 79 C 96.491 79, 101.407 75.794, 99.980 71.060 C 98.534 66.262, 97.787 65, 96.393 65 C 94.720 65, 94.638 62.866, 96.105 57.500 C 97.417 52.702, 99.455 50.235, 103.492 48.561 C 107.085 47.070, 111 48.384, 111 51.080 C 111 52.047, 110.294 55.596, 109.430 58.966 C 108.193 63.796, 108.065 66.513, 108.825 71.797 C 109.355 75.484, 109.698 93.943, 109.586 112.817 C 109.450 135.782, 109.740 147.851, 110.463 149.301 C 111.057 150.492, 112.778 151.901, 114.287 152.432 C 118.804 154.021, 120.158 151.649, 121.099 140.497 C 121.547 135.191, 122.165 130.056, 122.473 129.086 C 122.781 128.116, 122.433 125.787, 121.700 123.911 C 120.687 121.319, 120.536 117.257, 121.070 107 C 121.456 99.575, 121.565 83.986, 121.312 72.359 L 120.851 51.218 123.148 49.609 C 124.805 48.448, 127.728 48, 133.641 48 C 138.148 48, 142.548 48.273, 143.418 48.607 C 145.427 49.378, 145.471 53.867, 143.507 57.636 C 142.686 59.211, 141.725 62.661, 141.371 65.303 C 140.855 69.163, 140.086 70.596, 137.454 72.603 C 133.500 75.618, 131 80.554, 131 85.342 C 131 89.500, 131.794 90.144, 138.652 91.546 L 143.804 92.599 144.879 89.008 C 145.471 87.033, 145.677 83.067, 145.337 80.194 L 144.718 74.971 149.609 70.236 C 153.893 66.088, 154.838 64.383, 157.225 56.500 C 160.337 46.222, 160.095 43.099, 155.911 39.578 C 152.133 36.399, 145.242 35.027, 129.446 34.305 C 118.599 33.810, 115.508 34.003, 111.167 35.445 C 107.514 36.658, 104.520 36.984, 101.212 36.529 C 97.020 35.953, 95.971 36.225, 91.991 38.921 C 86.614 42.564, 82.530 42.816, 76.710 39.866 C 71.809 37.381, 71.036 36.434, 71.015 32.885 C 70.995 29.333, 67.414 25, 64.500 25 C 63.147 25, 61.263 26.121, 60.073 27.635 M 67.987 51.516 C 67.189 52.477, 67.313 54.269, 68.446 58.166 C 69.299 61.100, 69.885 63.898, 69.748 64.385 C 69.398 65.633, 73.426 66.963, 75.731 66.360 C 76.917 66.050, 78.300 64.060, 79.333 61.178 C 82.227 53.103, 81.458 51.775, 73.289 50.736 C 70.463 50.377, 68.719 50.633, 67.987 51.516 M 145.804 95.250 C 145.578 95.938, 145.868 101.774, 146.447 108.221 L 147.500 119.942 145 122.885 C 142.778 125.502, 141.755 125.871, 135.788 126.210 C 132.097 126.419, 128.803 126.864, 128.469 127.198 C 128.134 127.533, 128.883 129.762, 130.132 132.153 C 131.382 134.544, 132.313 136.838, 132.202 137.250 C 131.589 139.525, 135.811 137.401, 139.657 133.500 C 142.988 130.121, 144.852 129, 147.142 129 C 148.819 129, 151.511 128.061, 153.123 126.912 C 157.067 124.104, 161 116.108, 161 110.899 C 161 106.272, 159.146 99.093, 157.515 97.408 C 154.365 94.152, 146.632 92.727, 145.804 95.250 M 62 105.211 C 57.850 108, 56.746 112.957, 59.578 116.086 C 61.070 117.734, 62.548 117.952, 70.812 117.742 C 77.943 117.561, 80.439 117.829, 80.768 118.811 C 81.106 119.820, 81.645 119.727, 83.104 118.406 C 84.453 117.185, 84.991 115.365, 84.968 112.095 C 84.918 104.898, 83.472 103.759, 73.776 103.273 C 66.358 102.902, 65.137 103.103, 62 105.211 M 63.823 128.809 C 60.409 129.204, 59.424 130.507, 58.636 135.678 C 57.662 142.067, 59.021 142.859, 70.214 142.430 C 75.322 142.235, 80.197 142.058, 81.049 142.037 C 83.753 141.972, 86.037 133.183, 84.130 130.176 C 83.321 128.901, 70.500 128.038, 63.823 128.809" stroke="none" fill="black" fill-rule="evenodd"/>
</svg>