<svg xmlns="http://www.w3.org/2000/svg" width="256" height="256" viewBox="0 0 256 256" version="1.1">
	<path d="M 62 26 C 59.818 28.182, 59.821 28.170, 59.631 35.645 C 59.438 43.226, 57.442 44.999, 49.095 45.004 C 44.263 45.006, 41.622 45.543, 39.216 47.009 C 34.920 49.629, 34.476 51.080, 35.953 57.682 C 37.778 65.837, 38.144 128.870, 36.401 134.664 C 35.175 138.738, 35.237 139.164, 37.437 141.722 C 39.445 144.056, 40.461 144.415, 44.555 144.237 C 47.181 144.122, 49.928 144.525, 50.659 145.132 C 51.390 145.739, 53.004 146.012, 54.244 145.740 C 56.409 145.264, 72.169 139.571, 78.580 136.949 C 81.304 135.836, 82.207 135.963, 86.390 138.052 C 92.463 141.085, 94.582 140.056, 94.320 134.201 C 94.164 130.738, 90.348 122.727, 88.030 121 C 87.661 120.725, 86.662 118.700, 85.811 116.500 C 84.205 112.352, 80.364 109.539, 77.701 110.561 C 76.400 111.061, 73.754 118.549, 74.110 120.725 C 74.635 123.937, 73.532 124.998, 67.250 127.319 C 63.538 128.690, 58.405 130.065, 55.844 130.374 C 51.720 130.872, 51.010 130.664, 49.626 128.552 C 48.347 126.600, 48.194 124.482, 48.782 116.845 L 49.500 107.521 54.500 106.717 C 57.250 106.275, 63.379 106.149, 68.120 106.437 C 75.667 106.895, 77.018 106.719, 78.973 105.024 C 80.201 103.959, 82.847 102.562, 84.853 101.921 C 89.762 100.350, 92.823 97.371, 93.994 93.024 C 94.528 91.041, 95.211 82.011, 95.512 72.959 C 95.813 63.907, 96.287 55.061, 96.565 53.303 C 97.202 49.273, 94.858 43.529, 91.937 41.966 C 90.238 41.057, 88.795 41.045, 85.891 41.915 C 83.793 42.543, 81.040 42.797, 79.774 42.479 C 76.935 41.767, 73.001 36.229, 72.996 32.938 C 72.994 31.597, 72.101 29.038, 71.011 27.250 C 68.677 23.422, 65.077 22.923, 62 26 M 119.664 37 C 111.393 37.468, 110.659 37.692, 108.164 40.500 L 105.500 43.500 105.572 86 C 105.651 132.105, 106.360 147.236, 108.607 150.750 C 109.650 152.381, 111.009 153, 113.548 153 C 116.445 153, 117.229 152.527, 118.092 150.258 C 119.252 147.207, 118.456 130.706, 116.874 125 C 116.340 123.075, 115.645 112.275, 115.329 101 C 114.848 83.856, 115.038 79.113, 116.489 72.027 C 117.630 66.452, 118.005 61.699, 117.586 58.134 C 116.683 50.447, 118.208 48.968, 126.905 49.100 C 130.532 49.155, 134.625 49.510, 136 49.891 C 139.198 50.775, 139.677 53.913, 137.073 56.916 C 135.965 58.193, 134.760 60.197, 134.395 61.369 C 134.029 62.541, 132.705 64.535, 131.452 65.799 C 128.911 68.364, 127.408 76.030, 128.485 80.933 C 129.350 84.869, 133.934 88.644, 138.860 89.476 C 142.674 90.121, 142.832 90.309, 144.246 95.923 C 145.047 99.103, 145.729 105.828, 145.761 110.866 C 145.828 121.452, 145.405 122, 137.148 122 C 130.778 122, 129.244 122.627, 127.536 125.930 C 125.957 128.985, 126.606 130.564, 130.210 132.434 C 133.224 133.997, 135.165 133.130, 139.434 128.312 C 141.048 126.490, 142.960 125, 143.684 125 C 144.408 125, 145 124.608, 145 124.128 C 145 123.648, 146.831 122.963, 149.068 122.605 C 156.646 121.393, 159.984 115.400, 159.994 102.990 C 159.999 97.422, 159.637 96.088, 157.494 93.777 C 156.115 92.290, 153.249 90.606, 151.124 90.033 C 146.158 88.696, 142.603 85.869, 140.989 81.975 C 139.195 77.641, 141.196 68.778, 144.567 66.126 C 145.905 65.073, 147 63.728, 147 63.136 C 147 61.729, 150.517 55.500, 153.577 51.487 C 156.645 47.466, 156.713 43.010, 153.750 40.264 C 149.402 36.234, 143.381 35.658, 119.664 37 M 62.734 52.088 C 57.411 53.342, 51.250 56.665, 50.033 58.938 C 49.465 60, 49 62.196, 49 63.819 C 49 67.364, 52.659 70.330, 55.246 68.882 C 56.143 68.380, 60.193 67.935, 64.246 67.894 C 69.888 67.836, 72.458 68.292, 75.213 69.839 C 80.759 72.954, 82.263 71.273, 82.395 61.811 C 82.534 51.891, 81.737 50.970, 73.128 51.100 C 69.482 51.156, 64.806 51.600, 62.734 52.088 M 74.737 81.596 C 74.409 81.924, 69.155 82.282, 63.061 82.391 C 51.088 82.605, 49.803 83.128, 48.600 88.271 C 47.719 92.034, 51.493 95.942, 55.614 95.534 C 57.201 95.376, 63 94.909, 68.500 94.495 C 81.639 93.506, 84.497 91.189, 82.370 83.250 C 81.903 81.508, 81.041 81, 78.550 81 C 76.781 81, 75.065 81.268, 74.737 81.596" stroke="none" fill="black" fill-rule="evenodd"/>
</svg>