<svg xmlns="http://www.w3.org/2000/svg" width="256" height="256" viewBox="0 0 256 256" version="1.1">
	<path d="M 64.923 22.983 C 64.056 23.490, 62.540 25.839, 61.553 28.203 C 58.267 36.080, 57.758 36.844, 55.400 37.436 C 54.111 37.759, 50.681 37.757, 47.778 37.430 C 43.390 36.936, 41.741 37.242, 38 39.247 C 32.548 42.168, 30.460 46.401, 33.407 48.556 C 34.431 49.304, 37.721 50.466, 40.719 51.136 C 45.393 52.182, 46.907 52.115, 51.335 50.663 C 62.046 47.150, 67.236 46.265, 71.445 47.233 C 73.675 47.746, 77.975 47.966, 81 47.723 C 84.228 47.463, 88.101 47.842, 90.376 48.640 C 95.981 50.607, 98.764 50.327, 101.578 47.513 C 103.898 45.193, 103.968 44.841, 102.617 42.263 C 101.821 40.743, 100.162 38.432, 98.930 37.126 C 96.838 34.908, 96.213 34.795, 89.401 35.413 C 79.948 36.269, 75.740 34.690, 73.897 29.592 C 73.183 27.616, 72.212 26, 71.740 26 C 71.268 26, 71.161 25.549, 71.501 24.998 C 71.842 24.447, 70.939 23.547, 69.495 22.998 C 66.422 21.830, 66.892 21.831, 64.923 22.983 M 115.462 36.109 C 113.792 36.570, 111.119 38.310, 109.524 39.975 C 106.724 42.898, 106.663 43.168, 107.772 47.752 C 108.537 50.908, 108.908 64.904, 108.880 89.500 C 108.817 145.155, 108.858 146.725, 110.464 150.568 C 112.259 154.864, 115.797 156.518, 118.134 154.154 C 119.331 152.942, 119.972 149.560, 120.532 141.500 C 121.467 128.044, 121.434 126.314, 120.077 117.500 C 119.484 113.650, 119.198 109.969, 119.441 109.321 C 119.684 108.672, 120.180 95.397, 120.542 79.821 C 120.989 60.645, 121.574 51.107, 122.355 50.282 C 123.749 48.809, 125.276 48.637, 135.183 48.842 C 144.223 49.028, 145.423 50.386, 142.137 56.708 C 141.053 58.794, 139.674 61.625, 139.072 63 C 138.007 65.435, 136.516 67.832, 132.575 73.443 C 129.809 77.381, 129.200 86.458, 131.529 89.032 C 132.508 90.114, 134.089 91, 135.040 91 C 136.967 91, 143.234 93.443, 142.962 94.088 C 142.867 94.315, 143.329 96.509, 143.991 98.965 C 144.652 101.420, 145.262 107.249, 145.346 111.917 L 145.500 120.403 139.803 121.552 C 134.425 122.636, 130.170 124.703, 127.179 127.683 C 126.083 128.774, 126.099 129, 127.271 129 C 128.049 129, 129.533 130.575, 130.570 132.500 C 131.607 134.425, 133.019 136, 133.708 136 C 134.397 136, 137.423 134.425, 140.433 132.500 C 143.442 130.575, 146.723 129, 147.724 129 C 148.725 129, 151.218 127.621, 153.263 125.935 C 156.193 123.520, 157.430 121.396, 159.090 115.930 C 160.971 109.735, 161.063 108.429, 159.947 103.746 C 159.259 100.861, 157.787 97.706, 156.677 96.734 C 154.935 95.211, 147.278 93.176, 146.090 93.922 C 144.908 94.664, 143.879 90.105, 143.481 82.367 L 143.036 73.685 147.992 69.007 C 153.315 63.984, 159 52.716, 159 47.190 C 159 43.510, 155.781 39.353, 151.568 37.593 C 147.720 35.985, 120.033 34.847, 115.462 36.109 M 69.833 54.500 C 69.559 54.775, 63.894 55.140, 57.245 55.312 C 49.498 55.513, 44.618 56.072, 43.657 56.870 C 40.583 59.421, 39.754 76.025, 42.311 83.856 C 44.329 90.039, 51.059 92.242, 62.649 90.513 C 66.609 89.923, 68.304 90.099, 69.986 91.278 L 72.174 92.810 69.837 93.558 C 68.552 93.970, 64.125 94.359, 60 94.422 C 49.959 94.577, 42.997 97.556, 43.007 101.694 C 43.012 103.749, 43.881 105.071, 46.257 106.634 C 49.132 108.526, 50.492 108.710, 58.235 108.259 C 65.279 107.849, 67.458 108.070, 69.485 109.398 C 72.716 111.515, 72.659 112.567, 69.250 113.792 C 67.737 114.336, 65.108 116.164, 63.407 117.855 C 58.774 122.462, 55.717 123.275, 45.854 122.524 C 37.610 121.897, 37.133 121.973, 35.604 124.156 C 33.319 127.417, 33.618 130.709, 36.455 133.545 C 38.476 135.567, 39.897 136, 44.509 136 C 47.931 136, 51.774 135.242, 54.389 134.050 C 59.947 131.519, 62.427 132.225, 63.811 136.735 C 64.714 139.677, 64.566 141.283, 62.979 145.799 C 61.919 148.817, 60.353 152.058, 59.500 153 C 57.592 155.108, 58.884 156.412, 63.809 157.346 C 66.500 157.856, 67.585 157.506, 69.623 155.467 C 73.327 151.764, 75.786 145.327, 76.265 138.085 C 76.605 132.932, 77.134 131.310, 78.955 129.835 C 81.744 127.577, 83.489 127.552, 91.379 129.654 C 96.803 131.099, 97.959 131.130, 100.543 129.897 C 104.417 128.048, 105.147 122.420, 102.072 118.101 C 99.070 113.885, 95.368 113.274, 92.056 116.446 C 89.433 118.959, 86.696 119.588, 83.582 118.393 C 81.539 117.609, 81.469 113, 83.500 113 C 84.325 113, 85 112.266, 85 111.368 C 85 110.471, 86.516 108.307, 88.368 106.559 C 90.728 104.334, 91.869 102.249, 92.179 99.595 C 92.685 95.255, 91.556 94.495, 82.706 93.222 C 79.948 92.825, 77.696 92.050, 77.702 91.500 C 77.707 90.950, 81.264 88.617, 85.606 86.315 C 89.948 84.014, 94.030 81.314, 94.677 80.315 C 95.325 79.317, 96.528 75.205, 97.350 71.177 C 100.108 57.668, 96.467 54, 80.299 54 C 74.818 54, 70.108 54.225, 69.833 54.500 M 70.500 66.067 C 60.270 67.014, 54.122 68.884, 52.351 71.587 C 50.970 73.695, 50.999 74.078, 52.666 75.828 C 55.284 78.575, 58.109 79.215, 68.964 79.521 C 79.200 79.809, 80.794 79.279, 82.551 75 C 85.364 68.151, 81.216 65.076, 70.500 66.067" stroke="none" fill="black" fill-rule="evenodd"/>
</svg>