<svg xmlns="http://www.w3.org/2000/svg" width="256" height="256" viewBox="0 0 256 256" version="1.1">
	<path d="M 52.248 25.250 C 51.093 26.488, 49.828 28.850, 49.436 30.500 C 48.537 34.291, 47.200 35.998, 45.128 36.006 C 44.232 36.009, 41.878 36.462, 39.895 37.013 C 31.718 39.284, 29.488 45.242, 35.060 49.927 L 38.119 52.500 36.317 56 C 34.476 59.576, 34.460 59.894, 34.799 86.847 C 34.863 91.988, 35.341 96.713, 35.860 97.347 C 36.380 97.981, 37.320 100.525, 37.949 103 C 40.464 112.890, 42.453 114.994, 49.297 115.006 C 54.066 115.014, 60 116.909, 60 118.425 C 60 121.073, 56.739 122.442, 50.027 122.610 C 42.919 122.789, 34.800 126.125, 34.221 129.103 C 33.571 132.447, 36.560 134.342, 43.116 134.745 C 52.344 135.312, 52.534 135.438, 49.839 139.246 C 47.056 143.178, 43.129 147.777, 40.750 149.890 C 38.368 152.006, 38.540 155.683, 41.083 157.045 C 42.629 157.872, 44.499 157.847, 48.333 156.948 C 55.106 155.359, 56.935 154.349, 62.475 149.143 C 66.376 145.477, 67.018 144.359, 66.522 142.099 C 66.080 140.090, 66.508 138.885, 68.216 137.321 C 71.597 134.225, 74.478 133.679, 77.950 135.474 C 81.347 137.231, 81.515 137.775, 79.819 141.499 C 78.773 143.793, 78.939 144.393, 81.254 146.708 C 83.277 148.731, 85.142 149.430, 89.480 149.790 C 94.816 150.232, 95.186 150.444, 97.065 154.128 C 99.303 158.514, 99.992 158.772, 102.394 156.118 C 104.954 153.289, 103.551 149.257, 99.405 147.525 C 96.033 146.116, 92.011 140.888, 92.004 137.905 C 91.997 134.908, 95.604 132.703, 99.362 133.408 C 105.003 134.466, 107.833 130.063, 104.537 125.356 C 102.998 123.159, 98.678 122.235, 86 121.392 C 77.786 120.846, 75 120.227, 75 118.950 C 75 118.393, 75.787 117.660, 76.750 117.321 C 77.713 116.982, 80.388 115.872, 82.695 114.853 C 85.002 113.834, 87.365 113, 87.945 113 C 88.525 113, 89 112.100, 89 111 C 89 109.871, 88.333 109, 87.469 109 C 86.626 109, 85.689 108.352, 85.385 107.561 C 85.081 106.770, 83.521 105.834, 81.916 105.482 C 80.312 105.129, 79 104.647, 79 104.410 C 79 104.172, 79.927 102.007, 81.059 99.598 C 82.934 95.609, 82.990 94.912, 81.690 91.800 C 80.370 88.641, 80.433 88.076, 82.534 84.337 C 84.673 80.529, 84.729 79.963, 83.495 74.653 C 81.470 65.944, 82.660 63.901, 89.217 64.832 C 90.805 65.057, 92.190 66.025, 92.551 67.159 C 93.708 70.807, 93.348 103.052, 92.136 104.264 C 91.511 104.889, 91 106.567, 91 107.993 C 91 110.217, 91.634 110.755, 95.458 111.777 C 104.242 114.127, 104.803 112.661, 106.013 84.185 C 106.943 62.310, 106.907 61.440, 104.898 57.289 C 103.756 54.930, 102.412 52.944, 101.911 52.875 C 101.410 52.806, 100.438 52.682, 99.750 52.598 C 99.063 52.515, 97.375 53.018, 96 53.717 C 92.419 55.537, 89.652 55.300, 86.931 52.940 C 84.703 51.008, 84.649 50.715, 86.060 48.190 C 88.215 44.332, 93.643 43.988, 97.756 47.448 C 101.570 50.658, 104.018 50.674, 106.991 47.510 C 110.174 44.122, 108.831 41.410, 101.594 36.606 C 98.517 34.564, 96 32.483, 96 31.981 C 96 30.276, 89.800 24, 88.146 24.032 C 85.528 24.082, 82.850 26.619, 80.961 30.837 C 78.986 35.249, 76.315 36.158, 69.500 34.739 C 66.397 34.093, 64.771 32.917, 62.250 29.495 C 60.462 27.069, 59 24.615, 59 24.042 C 59 22.139, 54.381 22.965, 52.248 25.250 M 123.029 36.280 C 121.097 36.776, 119.127 38.416, 117.623 40.780 L 115.257 44.500 115.529 75 C 115.679 91.775, 116.072 106.625, 116.402 108 C 117.134 111.046, 118.043 125.969, 118.322 139.500 C 118.549 150.556, 120.111 155.299, 123.692 155.811 C 126.718 156.243, 127.914 153.492, 128.336 145.123 C 128.764 136.626, 129.891 135.003, 135.372 134.991 C 137.718 134.986, 141.658 133.920, 144.500 132.522 C 147.250 131.169, 150.400 130.042, 151.500 130.018 C 158.062 129.870, 160.617 126.489, 161.902 116.251 C 162.493 111.545, 162.367 107.053, 161.501 102.007 C 160.404 95.613, 159.774 94.225, 156.747 91.531 C 153.017 88.211, 149 81.294, 149 78.189 C 149 77.149, 150.141 74.153, 151.535 71.531 C 154.951 65.105, 158.824 53.810, 159.590 48.037 C 160.280 42.835, 158.453 37.893, 155.287 36.399 C 153.027 35.332, 127.095 35.237, 123.029 36.280 M 44.740 47.540 C 41.525 50.521, 41.552 50.409, 43.571 52.429 C 45.910 54.767, 50.046 54.288, 54.112 51.208 L 57.725 48.471 55.424 46.735 C 52.129 44.250, 47.949 44.565, 44.740 47.540 M 61 48.654 C 61 49.394, 61.900 50, 63 50 C 64.100 50, 65 50.360, 65 50.800 C 65 52.088, 69.894 51.718, 70.403 50.392 C 70.662 49.718, 69.680 48.853, 68.183 48.436 C 63.584 47.155, 61 47.233, 61 48.654 M 134.376 48.063 C 129.863 49.405, 128.793 51.234, 128.413 58.252 C 128.227 61.689, 127.877 67.299, 127.636 70.720 C 127.394 74.141, 127.560 78.549, 128.003 80.515 C 128.457 82.528, 128.330 88.419, 127.711 93.991 C 126.767 102.497, 126.866 105.238, 128.417 113.469 C 129.697 120.267, 130.727 123.319, 131.966 123.982 C 134.810 125.504, 146.094 124.243, 147.621 122.232 C 149.570 119.665, 149.429 101.188, 147.413 95.025 C 145.946 90.538, 145.462 90.054, 140.975 88.587 C 138.307 87.714, 135.407 87, 134.531 87 C 130.748 87, 131.901 82.835, 137.647 75.745 C 138.884 74.218, 140.158 70.875, 140.506 68.245 C 140.851 65.635, 142.262 61.177, 143.642 58.338 C 145.050 55.440, 146.007 51.931, 145.825 50.338 C 145.533 47.785, 145.099 47.482, 141.500 47.317 C 139.300 47.216, 136.094 47.552, 134.376 48.063 M 65.709 65.624 C 65.319 66.014, 65 67.615, 65 69.182 C 65 74.092, 61.824 83.882, 60.098 84.290 C 59.219 84.498, 56.813 83.760, 54.750 82.650 C 51.357 80.824, 51.001 80.245, 51.015 76.566 C 51.024 74.330, 51.442 71.849, 51.946 71.054 C 53.005 69.380, 51.417 65.694, 49.860 66.213 C 48.374 66.709, 48.044 101.679, 49.508 103.679 C 50.392 104.889, 51.654 105.091, 55.076 104.570 C 60.882 103.687, 64.772 103.676, 68.750 104.529 C 71.339 105.085, 72 104.906, 72 103.649 C 72 101.855, 69.062 100, 66.219 100 C 63.789 100, 60 96.758, 60 94.680 C 60 93.808, 60.514 91.966, 61.142 90.588 C 62.104 88.475, 62.597 88.249, 64.279 89.149 C 66.694 90.442, 73.023 89.568, 74.154 87.785 C 75.465 85.719, 75.127 81.223, 73.359 77.218 C 72.457 75.173, 71.445 71.700, 71.109 69.500 C 70.650 66.485, 69.997 65.428, 68.459 65.208 C 67.336 65.047, 66.099 65.235, 65.709 65.624" stroke="none" fill="black" fill-rule="evenodd"/>
</svg>