<svg xmlns="http://www.w3.org/2000/svg" width="256" height="256" viewBox="0 0 256 256" version="1.1">
	<path d="M 86.114 26.582 C 84.997 28.003, 83.774 30.140, 83.397 31.332 C 82.449 34.332, 78.307 39.821, 73.792 44.060 C 71.706 46.018, 70 47.938, 70 48.327 C 70 49.542, 60.709 58, 59.375 58 C 57.671 58, 43.141 65.562, 40.835 67.649 C 39.826 68.563, 39 70.541, 39 72.047 C 39 75.564, 41.893 76.376, 49.148 74.893 C 52.092 74.291, 56.271 73.439, 58.435 73 C 63.639 71.943, 65.725 72.853, 68.922 77.570 C 70.627 80.086, 72.469 81.594, 74.043 81.763 C 80.173 82.418, 84.108 84.155, 85.045 86.619 C 86.566 90.619, 86.160 95.451, 84.119 97.642 C 81.940 99.980, 66.294 103.387, 58.901 103.132 C 53.170 102.935, 49 105.780, 49 109.888 C 49 112.055, 49.855 113.112, 53.062 114.915 C 57.286 117.289, 59 120.174, 59 124.911 C 59 127.425, 60.406 131.325, 63.112 136.313 C 65.025 139.839, 62.252 143.489, 56.873 144.524 C 55.774 144.736, 52.414 144.454, 49.405 143.898 C 46.395 143.341, 43.048 143.167, 41.966 143.511 C 39.163 144.400, 37.717 147.675, 38.435 151.504 C 38.908 154.029, 39.901 155.200, 42.689 156.523 C 46.132 158.156, 46.706 158.157, 53.413 156.528 C 59.503 155.049, 67.091 154.768, 107.336 154.532 C 147.612 154.295, 154.385 154.044, 155.689 152.740 C 159.211 149.218, 153.240 143.574, 145 142.636 C 142.525 142.355, 137.688 142.096, 134.250 142.062 C 127.456 141.995, 123.808 139.845, 124.514 136.324 C 125.776 130.025, 126.162 129, 127.270 129 C 128.427 129, 128.481 127.847, 127.924 114.890 C 127.835 112.828, 124.665 112.982, 122.109 115.172 C 121.036 116.092, 119.300 117.304, 118.251 117.866 C 116.263 118.930, 114.284 125.971, 113.858 133.500 C 113.467 140.407, 107.956 144.655, 101.646 142.913 C 96.962 141.619, 96.021 139.686, 97.019 133.409 C 97.465 130.609, 97.515 124.657, 97.130 120.182 L 96.431 112.046 99.465 110.956 C 105.017 108.962, 116.054 108.713, 124 110.403 C 133.514 112.427, 134.224 112.408, 136.933 110.058 C 140.285 107.151, 138.269 101.813, 133.071 99.837 C 127.791 97.830, 116.214 96.319, 109.432 96.753 C 102.558 97.193, 102.312 97.127, 100.458 94.353 C 98.121 90.856, 98.044 90.173, 99.617 86.933 C 100.895 84.298, 104.554 82.370, 113.748 79.486 C 117.746 78.233, 119.880 76.762, 122.702 73.319 L 126.407 68.797 132.954 69.382 C 136.554 69.704, 141.418 70.247, 143.763 70.590 C 149.035 71.360, 153 69.175, 153 65.500 C 153 62.333, 150.085 60.463, 142.330 58.654 C 135.001 56.944, 126.712 52.635, 123.570 48.901 C 121.103 45.969, 117.118 43.669, 112.640 42.594 C 107.199 41.287, 101.078 37.820, 100.391 35.658 C 100.015 34.471, 99.864 33.500, 100.057 33.500 C 101.182 33.500, 96.257 26.899, 94.784 26.431 C 93.803 26.120, 93 25.446, 93 24.933 C 93 22.918, 88.067 24.100, 86.114 26.582 M 90 46.695 C 86.867 47.818, 75.717 59.685, 73.899 63.833 C 72.855 66.216, 72 68.548, 72 69.016 C 72 70.798, 75.947 70.958, 85.798 69.576 C 91.409 68.789, 98.400 68.392, 101.335 68.695 C 106.936 69.273, 111.512 67.799, 110.716 65.673 C 110.474 65.028, 110.600 63.600, 110.994 62.500 C 112.200 59.138, 110.095 55.246, 105.667 52.651 C 103.374 51.307, 100.641 49.261, 99.594 48.104 C 97.750 46.066, 93.498 45.442, 90 46.695 M 75 112.727 C 71.976 113.278, 69 115.775, 69 117.762 C 69 119.071, 70.783 127.426, 73.134 137.131 C 74.938 144.582, 84.589 144.485, 86.154 137 C 87.433 130.880, 86.583 113.981, 84.944 112.944 C 83.464 112.008, 79.436 111.920, 75 112.727" stroke="none" fill="black" fill-rule="evenodd"/>
</svg>