<svg xmlns="http://www.w3.org/2000/svg" width="256" height="256" viewBox="0 0 256 256" version="1.1">
	<path d="M 53.687 24.605 C 52.015 25.511, 50.092 27.953, 48.948 30.620 C 47.890 33.090, 44.770 37.448, 42.016 40.305 C 34.475 48.127, 32.658 52.099, 32.572 60.947 C 32.504 68.020, 32.635 68.470, 35.191 69.919 C 37.386 71.163, 38.653 71.239, 42.056 70.330 C 45.385 69.442, 46.561 69.494, 47.865 70.589 C 48.764 71.344, 50.371 72.588, 51.435 73.353 C 53.931 75.147, 54.466 82.548, 52.338 85.849 C 51.051 87.845, 50.274 88.106, 47.162 87.586 C 40.719 86.508, 38.574 86.893, 36.250 89.544 C 33.806 92.333, 33.251 97.732, 35.061 101.114 C 36.334 103.493, 38.905 102.963, 43.771 99.317 C 50.341 94.394, 55.259 98.783, 53.391 107.901 C 52.795 110.811, 52.736 113.079, 53.252 113.251 C 53.744 113.415, 54.227 117.873, 54.324 123.158 C 54.473 131.313, 54.216 133.082, 52.619 134.857 C 51.546 136.049, 49.828 136.808, 48.619 136.623 C 46.930 136.365, 46.479 135.558, 46.397 132.650 C 46.327 130.186, 46.736 129, 47.655 129 C 48.644 129, 48.759 128.521, 48.075 127.250 C 47.557 126.287, 46.633 123.310, 46.022 120.632 C 44.784 115.204, 38.742 106.520, 36.165 106.464 C 35.249 106.444, 33.807 107.695, 32.959 109.243 C 31.548 111.822, 31.592 112.746, 33.484 120.279 C 34.620 124.800, 36.504 130.302, 37.670 132.504 L 39.790 136.509 36.936 140.504 C 33.705 145.028, 33.278 148.135, 35.571 150.429 C 37.575 152.432, 41.264 152.432, 45.136 150.430 C 46.806 149.566, 51.102 148.246, 54.683 147.497 C 61.339 146.105, 64.490 144.181, 65.542 140.868 C 65.868 139.841, 66.779 139, 67.567 139 C 69.464 139, 69.412 136.372, 67.500 135.638 C 65.229 134.767, 65.605 130.336, 68.004 129.709 C 70.342 129.098, 71.615 132.415, 70.597 136.469 C 69.213 141.985, 79.825 143.908, 83.897 138.879 C 85.406 137.015, 85.717 134.653, 85.781 124.575 C 85.884 108.456, 83.590 103.631, 76.653 105.372 C 74.415 105.934, 70.574 112.619, 71.987 113.492 C 73.078 114.166, 72.244 119.834, 70.762 121.814 C 69.424 123.601, 66.053 124.632, 65.923 123.294 C 65.881 122.857, 65.681 121.612, 65.479 120.527 C 64.526 115.415, 64.189 106.063, 64.811 102 C 65.391 98.213, 65.890 97.445, 67.963 97.152 C 72.529 96.508, 85.010 98.152, 86.444 99.587 C 87.221 100.364, 88.227 101.016, 88.679 101.036 C 89.130 101.056, 90.761 102.734, 92.301 104.763 C 94.230 107.305, 94.925 109.162, 94.532 110.727 C 94.124 112.356, 94.399 113, 95.506 113 C 97.646 113, 99.238 117.715, 98.713 122.500 C 98.235 126.857, 99.596 140.263, 101.125 146.254 C 102.883 153.145, 104.209 153.441, 127.283 152.093 C 138.402 151.443, 148.935 150.456, 150.689 149.898 C 155.685 148.311, 157.663 142.900, 158.394 128.817 C 158.728 122.391, 158.602 116.084, 158.115 114.802 C 157.627 113.519, 156.936 110.227, 156.580 107.485 C 155.704 100.745, 153.304 97.693, 148.197 96.821 C 145.940 96.435, 143.115 95.597, 141.919 94.957 C 140.724 94.317, 136.205 93.551, 131.877 93.254 C 122.967 92.643, 120.931 91.366, 122.927 87.636 C 123.603 86.373, 126.557 84.163, 129.491 82.724 C 132.425 81.285, 135.652 78.934, 136.663 77.501 C 137.673 76.067, 140.215 73.006, 142.311 70.697 C 144.407 68.389, 148.063 63.575, 150.435 60 C 152.808 56.425, 155.689 52.850, 156.837 52.056 C 159.737 50.051, 160.466 45.802, 158.546 42.090 C 156.076 37.312, 152.887 36.288, 140.417 36.268 C 129.058 36.249, 124.626 35.137, 125.617 32.555 C 126.393 30.534, 123.146 24.181, 120.989 23.496 C 115.920 21.888, 110 26.739, 110 32.500 C 110 35.920, 107.581 39.646, 102.395 44.216 C 100.688 45.721, 98.253 48.466, 96.986 50.316 C 95.718 52.166, 93.065 54.740, 91.090 56.035 C 89.116 57.331, 86.501 59.268, 85.281 60.340 L 83.062 62.290 86.072 66.091 C 89.725 70.704, 91.888 71.495, 96.766 70.003 C 103.334 67.994, 104.797 66.895, 105.435 63.494 C 106.285 58.966, 110.980 52.299, 115.073 49.807 C 121.106 46.134, 123.720 45.857, 131.127 48.107 C 139.104 50.530, 139.927 51.927, 137.410 58.772 C 133.388 69.709, 124.478 74.292, 113.409 71.117 C 108.951 69.839, 107 71.306, 107 75.935 C 107 78.045, 107.663 81.049, 108.473 82.610 C 110.568 86.648, 108.716 88.961, 102.017 90.675 C 99.062 91.431, 96.064 92.532, 95.353 93.122 C 93.712 94.484, 85.703 93.609, 85.170 92.010 C 84.949 91.348, 83.424 89.275, 81.781 87.403 C 79.024 84.264, 78.341 84, 72.968 84 C 66.522 84, 64 82.453, 64 78.500 C 64 75.389, 66.500 73.010, 69.821 72.959 C 73.556 72.902, 80.366 66.483, 81.979 61.500 C 82.691 59.300, 84.315 55.421, 85.588 52.880 L 87.902 48.260 82.701 42.679 C 79.840 39.610, 75.700 36.364, 73.500 35.466 C 71.300 34.568, 67.223 31.396, 64.440 28.417 C 59.009 22.603, 58.024 22.254, 53.687 24.605 M 57.728 43.304 C 56.204 43.962, 54.179 45.664, 53.228 47.087 C 52.278 48.510, 50.038 51.861, 48.250 54.533 C 46.462 57.205, 45.007 60.316, 45.015 61.446 C 45.031 63.558, 46.957 67.397, 46.985 65.371 C 46.993 64.751, 48.462 63.659, 50.250 62.947 C 52.038 62.234, 54.625 60.910, 56 60.004 C 57.782 58.830, 60.145 58.451, 64.229 58.686 C 69.589 58.994, 69.997 58.858, 70.569 56.580 C 71.196 54.082, 70.437 50.489, 68.877 48.577 C 68.394 47.985, 67.212 46.527, 66.250 45.337 C 63.955 42.500, 61.144 41.829, 57.728 43.304 M 121.500 106.588 C 119.148 107.470, 115.916 107.871, 113.654 107.561 C 107.255 106.681, 103.863 110.005, 107.474 113.616 C 109.616 115.759, 110.925 121.599, 110.879 128.802 C 110.805 140.120, 114.114 142.442, 129.333 141.746 C 138.580 141.323, 139.335 141.124, 142.022 138.398 C 144.792 135.588, 144.882 135.168, 145.025 124.500 C 145.237 108.625, 145.390 109.408, 141.750 107.725 C 136.718 105.398, 126.238 104.809, 121.500 106.588" stroke="none" fill="black" fill-rule="evenodd"/>
</svg>