<svg xmlns="http://www.w3.org/2000/svg" width="256" height="256" viewBox="0 0 256 256" version="1.1">
	<path d="M 56.222 26.264 C 55.052 27.509, 53.395 30.203, 52.539 32.251 C 51.684 34.300, 47.918 39.028, 44.172 42.760 C 36.471 50.430, 31.934 58.735, 31.669 65.645 C 31.476 70.690, 32.704 71.961, 37.795 71.985 C 41.822 72.003, 46 68.216, 46 64.548 C 46 60.406, 56.841 46.272, 61.223 44.701 C 64.387 43.567, 72.913 51.862, 72.967 56.128 C 73.019 60.232, 70.995 61.212, 64.077 60.429 C 59.823 59.948, 58 60.080, 58 60.871 C 58 61.492, 57.373 62, 56.606 62 C 55.839 62, 53.812 63.308, 52.101 64.906 C 48.754 68.032, 48.768 69.990, 52.160 73.289 C 53.172 74.273, 54.070 76.298, 54.157 77.789 C 54.243 79.280, 54.400 81.695, 54.506 83.155 C 54.617 84.675, 53.682 87.111, 52.320 88.850 C 50.008 91.804, 49.835 91.853, 46.220 90.579 C 44.091 89.829, 41.619 89.595, 40.439 90.032 C 38.029 90.925, 36 96.792, 36 102.866 C 36 105.140, 35.637 107, 35.193 107 C 34.749 107, 33.935 108.237, 33.384 109.750 C 32.604 111.892, 32.912 114.270, 34.777 120.500 C 36.095 124.900, 37.808 129.497, 38.586 130.715 C 40.673 133.984, 40.314 137.643, 37.500 141.785 C 33.978 146.969, 34.179 150.417, 38.099 152.041 C 40.723 153.128, 41.910 153.068, 45.855 151.649 C 48.416 150.728, 53.159 149.544, 56.394 149.017 C 62.286 148.058, 66 145.865, 66 143.345 C 66 141.517, 70.450 141.632, 72 143.500 C 73.514 145.325, 80.554 145.506, 81.691 143.750 C 82.784 142.062, 84.659 116.158, 84.106 110.396 C 84.048 109.789, 82.809 108.007, 81.353 106.435 C 78.788 103.668, 78.756 103.490, 80.353 100.708 C 82.430 97.090, 82.473 91.120, 80.443 88.223 C 79.113 86.323, 77.964 86, 72.550 86 C 67.695 86, 66.072 85.630, 65.607 84.418 C 63.364 78.572, 67.066 73.437, 72.860 74.358 C 74.862 74.676, 77.006 74.613, 77.625 74.218 C 78.837 73.444, 83 66.068, 83 64.695 C 83 64.236, 84.350 61.898, 86 59.500 C 89.376 54.593, 89.854 51.071, 87.250 50.284 C 86.287 49.993, 83.228 46.998, 80.451 43.628 C 77.673 40.257, 73.744 36.601, 71.719 35.502 C 69.694 34.403, 67.502 32.212, 66.848 30.634 C 65.843 28.206, 60.835 24.016, 58.924 24.004 C 58.608 24.002, 57.392 25.019, 56.222 26.264 M 113.350 37.943 C 98.950 38.553, 98.079 38.899, 93.881 45.692 C 92.221 48.379, 91.973 49.829, 92.589 53.258 C 93.008 55.591, 93.255 60.222, 93.138 63.549 C 93.020 66.875, 93.810 73.400, 94.893 78.049 C 96.648 85.583, 96.761 88.021, 95.930 100.517 C 94.756 118.201, 95.313 138.285, 97.121 143.404 C 97.879 145.552, 99.633 148.149, 101.017 149.176 C 103.344 150.901, 104.366 150.960, 114.517 149.948 C 120.558 149.345, 126.175 148.863, 127 148.877 C 127.825 148.890, 134.383 149.144, 141.572 149.441 C 151.133 149.835, 155.098 149.647, 156.332 148.740 C 157.827 147.641, 158.010 145.105, 157.938 126.500 C 157.893 114.950, 157.968 100.100, 158.103 93.500 C 158.786 60.256, 158.188 45.088, 156.036 41.067 C 155.399 39.878, 153.751 38.476, 152.374 37.952 C 149.795 36.972, 136.350 36.968, 113.350 37.943 M 136.578 49.120 C 130.423 50.564, 129.700 51.596, 130.388 57.960 C 130.756 61.366, 130.412 66.196, 129.493 70.500 C 127.334 80.620, 127.528 85.482, 130.189 87.961 C 133.298 90.858, 139.950 90.746, 142.766 87.750 C 145.237 85.119, 147.222 77.345, 146.303 73.898 C 145.951 72.579, 145.627 66.648, 145.582 60.717 C 145.482 47.513, 145.166 47.107, 136.578 49.120 M 111.028 50.185 C 107.518 51.484, 107.033 52.675, 107.015 60.026 C 107.007 63.616, 106.524 70.346, 105.943 74.981 C 104.737 84.600, 105.184 87.606, 107.952 88.485 C 110.642 89.338, 115.859 86.437, 116.499 83.732 C 116.789 82.504, 116.919 77, 116.787 71.500 C 116.654 66, 116.925 59.233, 117.387 56.463 C 118.174 51.747, 118.077 51.356, 115.864 50.348 C 114.345 49.656, 112.616 49.598, 111.028 50.185 M 45.150 101.006 C 40.383 104.459, 39.679 108.051, 42.952 112.212 C 44.867 114.646, 47.618 121.288, 48.564 125.759 C 48.827 127.001, 48.373 129.312, 47.555 130.894 C 46.193 133.528, 46.229 133.958, 47.980 135.977 C 50.182 138.515, 51.398 138.065, 53.542 133.919 C 54.776 131.532, 54.983 128.141, 54.621 116.233 C 54.375 108.130, 54.134 101.420, 54.087 101.321 C 53.675 100.473, 50.691 98, 50.079 98 C 49.650 98, 47.433 99.353, 45.150 101.006 M 68.392 99.033 C 65.226 100.231, 64.126 108.343, 65.636 119.360 C 66.108 122.805, 66.708 124, 67.967 124 C 70.045 124, 71.632 121.048, 73.020 114.602 C 73.600 111.908, 75.031 108.361, 76.199 106.720 C 77.758 104.531, 78.058 103.316, 77.327 102.157 C 75.870 99.848, 70.864 98.097, 68.392 99.033 M 135.024 99.005 C 129.313 100.377, 128.184 102.646, 129.223 110.654 C 129.712 114.419, 129.837 122.037, 129.500 127.581 C 128.790 139.286, 129.318 140.251, 136.516 140.405 C 145.659 140.601, 148.905 132.080, 146.955 113 C 145.584 99.586, 143.377 96.997, 135.024 99.005 M 108.783 101.973 C 106.600 103.738, 106.486 104.537, 106.185 120.206 C 105.872 136.535, 105.879 136.597, 108.224 137.852 C 111.213 139.452, 115.372 138.026, 117.130 134.798 C 118.520 132.246, 118.993 109.331, 117.748 104.850 C 116.687 101.030, 111.862 99.482, 108.783 101.973 M 66 133.383 C 66 136.084, 69.522 137.689, 70.404 135.389 C 71.239 133.214, 69.973 131, 67.893 131 C 66.565 131, 66 131.712, 66 133.383" stroke="none" fill="black" fill-rule="evenodd"/>
</svg>