<svg xmlns="http://www.w3.org/2000/svg" width="256" height="256" viewBox="0 0 256 256" version="1.1">
	<path d="M 57.901 27.106 C 56.306 28.814, 55 30.901, 55 31.745 C 55 32.588, 51.714 36.717, 47.699 40.920 C 38.464 50.586, 34 58.163, 34 64.172 C 34 69.305, 35.291 71, 39.200 71 C 41.928 71, 46 68.006, 46 66 C 46 65.450, 46.675 65, 47.500 65 C 48.325 65, 48.947 64.662, 48.882 64.250 C 48.542 62.102, 49.273 60.210, 51.488 57.500 C 52.836 55.850, 55.653 52.025, 57.749 49 C 60.825 44.559, 62.166 43.441, 64.718 43.191 C 67.264 42.942, 68.226 43.427, 69.675 45.691 C 70.665 47.236, 72.042 49.095, 72.737 49.821 C 73.432 50.548, 74.053 52.348, 74.118 53.821 C 74.393 60.019, 73.536 60.949, 67.500 61.009 C 61.743 61.065, 55.734 62.643, 54.417 64.445 C 53.791 65.300, 52.767 66, 52.140 66 C 50.427 66, 50.743 71.964, 52.491 72.635 C 53.311 72.950, 54.503 74.946, 55.139 77.071 C 56.099 80.275, 56.007 81.693, 54.599 85.379 C 52.621 90.560, 51.427 91.233, 46.589 89.897 C 44.222 89.243, 42.394 89.254, 41.135 89.928 C 38.254 91.470, 35.815 98.523, 36.485 103.376 C 36.840 105.952, 36.550 108.438, 35.712 110 C 34.538 112.186, 34.670 113.442, 36.768 120 C 38.087 124.125, 39.893 128.938, 40.781 130.696 C 42.522 134.139, 41.818 136.671, 37.975 140.796 C 30.236 149.103, 36.316 155.140, 47.261 150.015 C 49.592 148.923, 53.961 147.566, 56.968 146.999 C 63.908 145.692, 69.192 141.063, 68.954 136.500 C 68.868 134.850, 68.850 132.375, 68.914 131 C 69.087 127.292, 70.965 130.594, 70.985 134.641 C 70.998 137.370, 71.528 137.994, 75.020 139.391 C 79.783 141.297, 82.900 141.393, 85.122 139.702 C 86.507 138.647, 86.708 136.350, 86.500 123.927 C 86.257 109.341, 85.668 105, 83.933 105 C 82.548 105, 82.801 101.720, 84.500 97.654 C 86.561 92.722, 86.384 90.440, 83.750 87.961 C 81.770 86.098, 80.757 85.922, 75.320 86.494 C 69.592 87.097, 69.032 86.974, 67.655 84.822 C 64.515 79.914, 68.036 73, 73.677 73 C 77.550 73, 79.856 71.265, 83.452 65.643 C 85.292 62.767, 87.518 59.815, 88.399 59.084 C 89.279 58.353, 90 57.135, 90 56.378 C 90 54.054, 92.610 54.849, 93.839 57.547 C 94.478 58.948, 95 62.213, 95 64.804 C 95 67.394, 95.463 71.085, 96.030 73.007 C 96.596 74.928, 97.005 81.450, 96.938 87.500 C 96.583 119.489, 96.154 134.955, 95.510 139.012 C 94.934 142.640, 95.156 143.971, 96.647 145.811 C 99.291 149.075, 105.481 150.293, 110.500 148.538 C 112.700 147.768, 115.751 146.870, 117.281 146.543 C 120.170 145.923, 123.989 140.935, 123.996 137.773 C 124.001 135.800, 120.080 132.905, 117.341 132.858 C 116.329 132.840, 113.859 133.142, 111.854 133.527 C 108.605 134.152, 108.123 133.970, 107.437 131.864 C 105.768 126.743, 106.985 102.765, 109.116 98.784 C 111.369 94.574, 115.546 98.374, 118.961 107.740 C 120.213 111.173, 122.758 116.121, 124.618 118.737 C 126.478 121.353, 128 124.451, 128 125.621 C 128 128.713, 130.775 136.092, 132.776 138.320 C 135.294 141.124, 144.001 146.515, 148.307 147.936 C 153.113 149.522, 161.058 149.524, 162.037 147.940 C 163.823 145.050, 158.219 137, 154.422 137 C 151.652 137, 146.112 132.756, 144.530 129.422 C 141.975 124.038, 142.811 120.927, 147.500 118.363 C 149.700 117.160, 152.287 115.383, 153.250 114.413 C 156.648 110.990, 154.738 106.222, 149.307 104.569 C 147.909 104.143, 145.554 104.697, 142.812 106.096 C 137.402 108.856, 133.069 108.803, 130.758 105.949 C 126.906 101.192, 129.796 95.615, 136.694 94.492 C 148.008 92.650, 153.937 88.108, 155.857 79.814 C 156.533 76.891, 157.351 65.725, 157.675 55 L 158.262 35.500 155.679 32.750 C 153.148 30.056, 152.847 29.997, 140.798 29.872 C 134.034 29.802, 127.375 29.605, 126 29.433 C 121.751 28.904, 102.970 31.973, 100.482 33.604 C 99.187 34.453, 97.822 36.576, 97.449 38.324 C 97.077 40.071, 96.079 43.075, 95.232 45 C 94.384 46.925, 93.765 48.850, 93.855 49.278 C 93.945 49.706, 93.326 50.321, 92.480 50.646 C 91.085 51.181, 79.860 40.393, 68.391 27.496 C 64.531 23.154, 61.691 23.049, 57.901 27.106 M 117.776 42.907 C 109.920 43.600, 106.917 45.806, 106.662 51.076 C 106.432 55.819, 109.483 57.154, 117.500 55.819 C 123.182 54.874, 135.976 55.286, 139.188 56.519 C 140.003 56.831, 141.742 56.220, 143.052 55.159 C 144.968 53.608, 145.400 52.379, 145.261 48.884 C 145.148 46.066, 144.477 44.091, 143.353 43.269 C 141.538 41.942, 130.500 41.786, 117.776 42.907 M 107.841 70.401 C 105.628 72.777, 105.489 76.111, 107.446 79.896 C 108.826 82.565, 109.313 82.723, 118.100 83.346 C 130.983 84.261, 137.830 84.161, 139.945 83.029 C 142.251 81.795, 145.258 74.389, 144.466 71.894 C 143.380 68.470, 140.488 67.922, 124.842 68.177 C 111.214 68.399, 109.497 68.624, 107.841 70.401 M 46.019 101.097 C 43.809 103.243, 42 105.782, 42 106.740 C 42 107.699, 43.688 110.934, 45.750 113.929 C 49.360 119.172, 49.500 119.692, 49.500 127.853 C 49.500 136.640, 50.395 138.462, 53.290 135.568 C 54.420 134.437, 54.832 131.660, 54.890 124.773 C 54.934 119.673, 55.253 112.529, 55.599 108.898 C 56.679 97.587, 52.849 94.469, 46.019 101.097 M 68.088 100.335 C 66.538 103.233, 66.114 109.078, 67.333 110.750 C 67.899 111.525, 67.827 112.503, 67.146 113.324 C 65.862 114.871, 66.446 119.040, 68.090 120.055 C 68.807 120.499, 68.852 120.895, 68.212 121.129 C 67.611 121.349, 67.756 122.014, 68.567 122.760 C 69.693 123.796, 70.223 123.469, 71.536 120.931 C 72.415 119.231, 73.019 116.639, 72.879 115.170 C 72.575 111.983, 74.771 105, 76.078 105 C 77.687 105, 77.072 101.375, 75.171 99.655 C 72.583 97.312, 69.550 97.603, 68.088 100.335" stroke="none" fill="black" fill-rule="evenodd"/>
</svg>