<svg xmlns="http://www.w3.org/2000/svg" width="256" height="256" viewBox="0 0 256 256" version="1.1">
	<path d="M 81.762 28.572 C 81.523 28.810, 73.492 29.195, 63.914 29.426 C 45.564 29.869, 42.729 30.400, 39.500 34 C 37.589 36.131, 37.508 37.499, 37.687 64.865 C 38.027 116.945, 39.008 145.083, 40.616 148.932 C 43.116 154.916, 47.027 155.783, 49.545 150.912 C 51.291 147.536, 51.275 146.457, 48.977 112.580 L 47.693 93.661 50.230 91.479 C 51.965 89.986, 55.727 88.767, 62.133 87.619 C 74.045 85.486, 85.765 81.310, 87.489 78.585 C 89.164 75.937, 89.802 71.350, 90.490 57 C 90.794 50.675, 91.293 44.264, 91.600 42.753 C 92.328 39.167, 90.514 33.809, 87.721 31.296 C 85.359 29.171, 82.479 27.854, 81.762 28.572 M 106 31.294 C 101.529 33.556, 100.935 36.492, 100.758 57.217 C 100.567 79.538, 101.088 81.461, 108.223 84.792 C 114.062 87.519, 132.708 88.567, 137.769 86.452 C 142.271 84.571, 142.549 84.599, 144.953 87.180 C 146.885 89.253, 146.978 90.523, 146.851 112.930 C 146.721 135.811, 146.647 136.624, 144.327 140.732 C 141.358 145.989, 140.245 146.585, 130.993 147.867 C 125.960 148.564, 123.134 149.463, 122.274 150.641 C 120.493 153.075, 120.653 153.727, 123.483 155.581 C 125.474 156.885, 127.724 157.109, 134.845 156.712 C 144.489 156.175, 147.132 155.222, 151.093 150.852 C 156.055 145.379, 158.187 131.833, 157.997 107 C 157.932 98.475, 157.882 90.150, 157.886 88.500 C 158.033 33.156, 158.209 34.855, 151.999 31.752 C 149.015 30.260, 145.558 30.005, 128.500 30.016 C 114.385 30.026, 107.764 30.402, 106 31.294 M 63.500 41.028 C 54.955 42.102, 51.103 43.743, 50.382 46.613 C 49.371 50.642, 51.338 51.870, 57.854 51.279 C 63.652 50.754, 70 52.712, 70 55.026 C 70 55.562, 70.787 56.007, 71.750 56.015 C 73.246 56.028, 73.282 56.172, 72 57 C 71.175 57.533, 70.907 57.976, 71.403 57.985 C 71.900 57.993, 70.685 59.575, 68.703 61.500 C 65.292 64.813, 64.731 65, 58.205 65 C 52.795 65, 50.953 65.394, 49.655 66.829 C 47.322 69.407, 47.598 71.690, 50.470 73.572 C 52.551 74.936, 54.482 75.067, 62.720 74.406 C 68.099 73.975, 73.042 73.722, 73.705 73.844 C 74.368 73.967, 75.603 73.009, 76.451 71.715 C 77.999 69.352, 77.782 63.204, 75.982 58.458 C 75.510 57.214, 75.739 55.455, 76.568 53.958 C 77.317 52.606, 77.945 49.378, 77.965 46.785 C 78.016 39.925, 76.637 39.376, 63.500 41.028 M 123.264 42.744 C 116.158 43.034, 114.876 43.364, 113.922 45.146 C 112.675 47.476, 113.502 53.667, 115.133 54.211 C 115.721 54.407, 119.563 53.917, 123.670 53.121 C 130.982 51.706, 131.241 51.726, 136.054 54.088 C 138.757 55.414, 140.976 56.837, 140.984 57.250 C 140.993 57.663, 141.525 58, 142.167 58 C 142.808 58, 143.032 57.699, 142.664 57.331 C 142.297 56.963, 142.710 55.873, 143.583 54.909 C 146.018 52.218, 146.570 45.713, 144.536 43.679 C 142.800 41.943, 142.829 41.944, 123.264 42.744 M 139.688 62.592 C 137.369 64.587, 135.804 65, 130.570 65 C 127.095 65, 122.412 64.351, 120.165 63.558 C 116.441 62.244, 115.882 62.275, 113.872 63.902 C 111.051 66.187, 110.892 71.450, 113.583 73.486 C 114.848 74.443, 118.031 74.947, 122.940 74.968 C 127.032 74.986, 133.002 75.542, 136.208 76.204 C 141.677 77.333, 142.168 77.276, 144.170 75.274 C 146.196 73.248, 146.238 72.836, 145.009 67.041 C 144.297 63.686, 143.438 60.771, 143.101 60.562 C 142.764 60.354, 141.228 61.267, 139.688 62.592" stroke="none" fill="black" fill-rule="evenodd"/>
</svg>