<svg xmlns="http://www.w3.org/2000/svg" width="256" height="256" viewBox="0 0 256 256" version="1.1">
	<path d="M 48 26.013 C 37.770 26.726, 36.785 27.131, 34.714 31.474 C 33.315 34.406, 33.096 40.003, 33.076 73.180 C 33.043 129.270, 35.278 151.836, 41.367 156.890 C 43.924 159.012, 46.976 154.957, 47.118 149.250 C 47.184 146.637, 47.138 144.050, 47.017 143.500 C 46.896 142.950, 46.584 136.200, 46.324 128.500 C 46.064 120.800, 45.499 112.375, 45.067 109.778 C 44.636 107.180, 44.463 99.080, 44.684 91.778 C 45.210 74.348, 45.241 74.311, 57.820 76.030 L 66.876 77.267 72.897 74.134 C 76.209 72.410, 80.032 71, 81.394 71 C 82.756 71, 85.024 70.561, 86.435 70.025 C 88.697 69.165, 88.999 68.485, 88.989 64.275 C 88.982 61.649, 89.498 54.074, 90.135 47.441 C 91.098 37.410, 91.058 34.903, 89.896 32.531 C 87.204 27.034, 84.776 26.212, 70 25.799 C 62.575 25.591, 52.675 25.688, 48 26.013 M 113.957 26.960 C 110.358 27.327, 106.899 27.945, 106.270 28.333 C 103.140 30.267, 102.035 35.456, 101.470 50.860 C 100.964 64.677, 101.107 66.908, 102.698 70 C 105.464 75.373, 112.090 78.084, 124.072 78.744 L 133.779 79.279 137.952 75.385 C 142.682 70.974, 142.627 69.632, 137.575 66.184 C 133.960 63.715, 130.496 63.376, 120.847 64.546 C 115.640 65.178, 115.098 65.052, 113.978 62.960 C 112.922 60.985, 113.059 60.464, 115.028 58.979 C 117.364 57.217, 120.290 57.162, 125.500 58.782 C 129.002 59.871, 136.349 59.332, 136.833 57.951 C 137.017 57.428, 137.819 57, 138.616 57 C 139.412 57, 140.455 55.987, 140.933 54.750 C 141.625 52.958, 141.267 51.991, 139.175 50 C 136.743 47.685, 135.788 47.492, 126.295 47.389 C 113.435 47.251, 109.948 45.075, 115.103 40.405 C 116.825 38.845, 119.408 38.382, 129.353 37.850 C 141.215 37.215, 141.553 37.255, 143.750 39.556 C 146.332 42.261, 146.527 44.454, 144.500 48 C 142.611 51.305, 142.636 54.453, 144.564 56.053 C 146.422 57.595, 146.311 64.154, 144.359 68.136 C 143.236 70.427, 143.311 71.053, 144.936 72.926 C 147.753 76.174, 149.482 90.048, 148.010 97.594 C 147.218 101.654, 147.163 104.843, 147.833 107.798 C 148.982 112.860, 148.344 134.112, 146.907 138.653 C 145.720 142.404, 141.699 147, 139.604 147 C 138.784 147, 137.316 145.650, 136.341 144 C 135.366 142.350, 133.999 141, 133.303 141 C 132.074 141, 131.700 139.936, 130.611 133.350 C 130.324 131.618, 128.945 128.964, 127.545 127.454 C 126.145 125.944, 124.963 123.986, 124.919 123.104 C 124.874 122.222, 124.747 120.263, 124.636 118.750 C 124.442 116.114, 124.627 116, 129.102 116 C 133.079 116, 134.034 115.597, 135.553 113.279 C 136.534 111.782, 137.537 108.467, 137.782 105.913 C 138.200 101.570, 137.999 101.085, 134.705 98.456 C 130.232 94.887, 128.301 94.629, 124.193 97.050 C 118.662 100.311, 116.808 99.699, 113.465 93.513 C 111.834 90.495, 109.826 87.766, 109.002 87.449 C 107.531 86.883, 104.452 89.715, 100.777 95.015 C 99.090 97.448, 99.022 97.459, 97.527 95.559 C 96.687 94.491, 96 92.189, 96 90.444 C 96 86.793, 92.667 82, 90.127 82 C 87.635 82, 86 84.002, 86 87.054 C 86 88.515, 84.850 90.949, 83.443 92.467 C 81.344 94.731, 80.329 95.116, 77.788 94.608 C 73.101 93.670, 71.868 92.219, 72.572 88.467 C 73.499 83.529, 71.675 81, 67.187 81 C 62.006 81, 59 83.318, 59 87.315 C 59 89.075, 57.838 92.698, 56.419 95.365 C 54.782 98.439, 54.048 101.055, 54.413 102.511 C 54.953 104.662, 55.652 104.852, 65.467 105.521 C 71.230 105.914, 77.420 105.959, 79.222 105.621 C 88.225 103.935, 89.851 103.850, 91.916 104.955 C 95.232 106.730, 94.346 110.872, 90.150 113.207 C 86.975 114.974, 82.363 114.840, 83.492 113.013 C 83.778 112.550, 82.792 111.764, 81.301 111.267 C 78.081 110.194, 68.963 111.441, 67.941 113.095 C 67.441 113.904, 65.257 114.046, 60.744 113.563 C 53.074 112.742, 52.697 113.176, 53.579 121.830 C 54.367 129.573, 55.528 131.542, 60.117 132.917 C 65.891 134.647, 70.851 139.331, 70.248 142.484 C 69.407 146.882, 73.297 145.479, 80.148 138.911 L 86.500 132.823 92.166 133.219 C 99.709 133.747, 101.030 134.919, 99.876 140.058 C 99.123 143.408, 99.288 144.393, 100.890 146.112 C 103.795 149.231, 107.112 148.232, 109.561 143.500 C 112.217 138.368, 115.222 136.826, 121 137.630 C 127.110 138.480, 129 139.629, 129 142.496 C 129 145.326, 132.164 148.661, 136.695 150.608 C 138.452 151.363, 141.019 153.110, 142.400 154.490 C 145.507 157.598, 147.739 157.650, 152.102 154.713 C 156.707 151.613, 157.765 148.991, 159.086 137.410 C 160.410 125.794, 160.521 112.248, 159.553 80 C 159.166 67.075, 158.766 51.244, 158.665 44.820 C 158.495 34.047, 158.297 32.945, 156.115 30.622 C 154.814 29.237, 152.568 27.867, 151.124 27.577 C 146.676 26.685, 120.870 26.256, 113.957 26.960 M 53.284 36.714 C 51.122 37.120, 46 42.272, 46 44.042 C 46 45.642, 50.133 47.184, 52.698 46.540 C 54.080 46.193, 59.387 45.909, 64.491 45.909 C 72.186 45.909, 74.053 45.599, 75.415 44.094 C 77.770 41.492, 76.044 37.358, 72.310 36.660 C 69.092 36.059, 56.588 36.095, 53.284 36.714 M 67.032 57.582 C 64.195 58.813, 62.332 58.895, 56.783 58.034 C 51.579 57.227, 49.536 57.273, 48.001 58.232 C 43.658 60.944, 47.254 63.791, 53.272 62.407 C 57.302 61.480, 58.949 61.483, 66.776 62.437 C 73.499 63.257, 76 62.321, 76 58.985 C 76 55.824, 72.389 55.259, 67.032 57.582 M 112.074 105.634 L 110.002 108.267 112.154 110.134 C 113.338 111.160, 115.025 112.003, 115.903 112.006 C 116.781 112.010, 118.789 112.685, 120.364 113.506 C 121.940 114.328, 123.344 115, 123.485 115 C 123.627 115, 123.659 113.359, 123.556 111.354 C 123.419 108.650, 122.612 107.100, 120.435 105.359 C 116.640 102.322, 114.627 102.388, 112.074 105.634 M 102.091 118.133 C 98.314 122.187, 100.146 130.077, 104.664 129.213 C 107.857 128.603, 109.375 124.745, 108.266 120.056 C 107.256 115.787, 104.947 115.068, 102.091 118.133" stroke="none" fill="black" fill-rule="evenodd"/>
</svg>