<svg xmlns="http://www.w3.org/2000/svg" width="256" height="256" viewBox="0 0 256 256" version="1.1">
	<path d="M 49.395 27.007 C 33.243 27.907, 33.959 25.347, 34.394 80.661 C 34.610 108.141, 35.183 127.823, 35.874 131.500 C 36.494 134.800, 37.270 140.616, 37.599 144.425 C 38.105 150.290, 38.637 151.791, 41.071 154.225 C 43.463 156.617, 44.284 156.918, 45.961 156.021 C 48.995 154.397, 49.443 150.711, 48.145 138.033 C 47.496 131.690, 47.022 123.350, 47.092 119.500 C 47.162 115.650, 46.737 110.475, 46.147 108 C 45.510 105.327, 45.322 99.377, 45.683 93.344 C 46.226 84.304, 46.524 83.083, 48.396 82.236 C 49.553 81.713, 51.400 81.639, 52.500 82.072 C 57.778 84.150, 68.081 82.683, 77.713 78.483 C 89.881 73.178, 89.740 73.393, 90.087 59.649 C 90.200 55.167, 90.758 48.719, 91.325 45.319 C 93.421 32.774, 88.666 26.408, 78 27.481 C 74.975 27.786, 69.350 27.690, 65.500 27.267 C 61.650 26.845, 54.403 26.728, 49.395 27.007 M 112.533 28.850 C 107.278 29.422, 106.311 29.879, 104.432 32.677 C 102.532 35.505, 102.220 37.827, 101.588 53.857 C 100.978 69.297, 101.103 72.299, 102.464 74.931 C 103.337 76.619, 104.152 78.003, 104.276 78.007 C 104.399 78.011, 107.806 79.136, 111.846 80.507 C 117.621 82.467, 121.203 83, 128.596 83 C 134.199 83, 138 82.596, 138 82 C 138 81.450, 139.028 81, 140.284 81 C 144.411 81, 146.468 86.176, 146.444 96.500 C 146.409 111.535, 144.824 136.376, 143.764 138.500 C 142.322 141.389, 138.840 143.952, 136.323 143.978 C 134.296 143.998, 130 148.182, 130 150.135 C 130 150.611, 130.900 151.900, 132 153 C 134.572 155.572, 140.190 155.586, 145.500 153.033 C 151.769 150.019, 152.865 148.710, 154.399 142.403 C 156.765 132.683, 157.304 121.538, 157.513 78 C 157.728 33.274, 157.589 31.935, 152.544 30.017 C 149.492 28.856, 120.290 28.005, 112.533 28.850 M 59 37.963 C 52.043 38.689, 48.326 40.399, 47.406 43.296 C 46.281 46.839, 48.688 47.933, 57.537 47.900 C 62.130 47.883, 66.700 48.286, 67.694 48.796 C 68.687 49.306, 70.690 50.007, 72.144 50.354 C 74.373 50.886, 74.885 50.595, 75.413 48.492 C 75.757 47.122, 76.480 46, 77.019 46 C 78.727 46, 78.078 40.381, 76.171 38.655 C 74.228 36.897, 70.608 36.751, 59 37.963 M 118.728 39.819 C 114.724 40.279, 112.557 43.934, 114.179 47.494 C 115.420 50.217, 115.471 50.229, 123.025 49.622 C 128.357 49.194, 132.371 49.466, 136.481 50.537 C 142.583 52.126, 144.008 51.735, 144.762 48.260 C 145.423 45.217, 145.141 42.741, 144.005 41.601 C 142.927 40.519, 124.155 39.195, 118.728 39.819 M 67.649 59.165 C 64.860 60.574, 61.744 61.111, 56.353 61.111 C 49.324 61.111, 48.855 61.251, 47.954 63.621 C 46.908 66.373, 47.988 69.398, 50.341 70.301 C 52.090 70.972, 69.799 69.455, 72.500 68.403 C 76.611 66.801, 78.515 60.915, 75.800 58.200 C 74.201 56.601, 72.269 56.829, 67.649 59.165 M 115.009 60.991 C 113.904 62.096, 113 63.830, 113 64.845 C 113 68.275, 116.191 69.698, 126.406 70.822 C 131.854 71.422, 136.782 72.382, 137.356 72.956 C 140.678 76.278, 145 70.986, 145 63.596 C 145 59.299, 144.829 59, 142.368 59 C 140.920 59, 138.208 59.944, 136.341 61.099 C 132.414 63.525, 126.809 63.366, 120.759 60.657 C 117.166 59.047, 116.940 59.060, 115.009 60.991 M 86.500 90.116 C 84.850 90.635, 80.575 90.790, 77 90.460 C 71.286 89.933, 70.228 90.116, 68.250 91.969 C 67.013 93.129, 66 94.543, 66 95.110 C 66 96.812, 68.544 98.834, 72.857 100.559 C 77.928 102.589, 78.560 104.480, 76.056 110.139 C 74.218 114.295, 73.797 114.621, 69.969 114.847 C 63.932 115.203, 56.562 118.346, 56.201 120.718 C 56.032 121.828, 57.187 124.059, 58.852 125.842 C 61.523 128.701, 62.365 129, 67.748 129 C 75.549 129, 76.689 130.899, 73.749 139 C 72.651 142.025, 71.359 144.927, 70.877 145.450 C 69.213 147.253, 69.965 150.663, 72.250 151.681 C 73.989 152.455, 75.389 152.208, 78.415 150.591 C 84.337 147.428, 86.418 143.982, 86.462 137.270 C 86.498 131.940, 86.712 131.443, 89.898 129.293 C 97.690 124.035, 103 127.860, 103 138.731 C 103 143.007, 103.573 146.161, 104.694 148.059 C 106.862 151.729, 111.375 152.875, 114.067 150.439 C 116.358 148.366, 116.501 145.672, 114.606 140.299 C 113.177 136.250, 113.471 131.507, 115.294 129.205 C 116.051 128.250, 118.081 128.084, 123.042 128.573 C 129.055 129.165, 129.988 129.012, 131.882 127.118 C 137.174 121.826, 132.158 115.604, 121.695 114.484 C 115.870 113.860, 115.218 113.546, 113.743 110.652 C 110.741 104.760, 110.720 103.365, 113.599 101.100 C 115.068 99.945, 116.997 98.984, 117.885 98.965 C 118.773 98.945, 120.539 98.353, 121.809 97.648 C 124.060 96.399, 124.072 96.311, 122.309 94.140 C 119.085 90.172, 94.944 87.459, 86.500 90.116 M 89.133 103.049 C 86.811 109.710, 90.512 114.913, 96.504 113.410 C 98.814 112.830, 101 108.744, 101 105.006 C 101 102.316, 97.655 100, 93.769 100 C 90.685 100, 90.050 100.417, 89.133 103.049" stroke="none" fill="black" fill-rule="evenodd"/>
</svg>