<svg xmlns="http://www.w3.org/2000/svg" width="256" height="256" viewBox="0 0 256 256" version="1.1">
	<path d="M 115 25.540 C 111.425 26.292, 106.250 26.929, 103.500 26.957 C 95.766 27.035, 88.862 32.084, 86.992 39.029 C 86.198 41.978, 86.224 44.650, 87.090 49.050 C 87.739 52.349, 88.026 58.076, 87.728 61.775 C 87.376 66.152, 87.635 69.575, 88.470 71.578 C 90.119 75.531, 95.948 78.432, 100.695 77.662 C 103.118 77.269, 105.210 77.716, 107.813 79.184 C 111.138 81.058, 112.530 81.200, 122 80.629 C 129.902 80.152, 133.119 79.540, 135 78.153 C 136.375 77.139, 139.240 75.681, 141.366 74.912 C 148.160 72.456, 149.575 70.364, 150.475 61.449 C 150.917 57.077, 151.375 51.700, 151.494 49.500 C 151.612 47.300, 152.301 43.572, 153.023 41.215 C 155.808 32.134, 149.340 26.686, 134.500 25.614 C 130.100 25.296, 125.375 24.842, 124 24.605 C 122.625 24.368, 118.575 24.789, 115 25.540 M 53.224 35.600 C 41.765 36.998, 37.547 38.424, 34.182 42.035 C 31.222 45.213, 30.625 67.724, 32.698 98 C 33.620 111.475, 34.403 129.044, 34.438 137.042 C 34.490 149.316, 34.782 152.015, 36.308 154.346 C 38.973 158.415, 42.070 159.345, 44.302 156.748 C 45.891 154.897, 46.055 153.087, 45.694 141.357 C 45.160 124.034, 45.397 123.538, 54.297 123.382 C 60.489 123.274, 61.514 122.930, 66.927 119.132 C 70.167 116.860, 73.044 115, 73.321 115 C 73.598 115, 74.141 116.872, 74.527 119.160 C 75.363 124.108, 79.041 128.293, 81.694 127.314 C 82.688 126.947, 85.476 124.927, 87.891 122.824 C 91.979 119.264, 96.214 117.919, 97.383 119.810 C 97.658 120.256, 97.405 122.506, 96.820 124.810 C 96.045 127.865, 95.248 129, 93.878 129 C 92.036 129, 91.422 129.514, 85.638 135.898 C 82.439 139.429, 80.797 144.885, 82.185 147.366 C 82.692 148.273, 84.349 149, 85.907 149 C 88.104 149, 90.972 146.826, 99.099 139 C 107.258 131.143, 110.090 129, 112.309 129 C 115.424 129, 115.430 128.274, 112.224 138.500 C 111.361 141.250, 109.593 144.505, 108.294 145.734 C 106.039 147.867, 106.007 148.080, 107.581 150.484 C 110.561 155.032, 119.384 153.120, 125.634 146.573 C 127.268 144.861, 127.534 143.918, 126.767 142.548 C 126.024 141.220, 126.328 139.633, 127.947 136.391 C 130.589 131.102, 133.368 129, 137.723 129 C 139.525 129, 140.998 128.662, 140.995 128.250 C 140.988 127.121, 135.039 121, 133.949 121 C 133.427 121, 133.875 120.125, 134.944 119.056 C 137.391 116.609, 143.523 115.359, 145.408 116.923 C 146.835 118.108, 146.501 121.491, 144.733 123.750 C 144.195 124.438, 144.051 125, 144.413 125 C 144.774 125, 144.589 125.900, 144 127 C 143.130 128.626, 143.240 129, 144.589 129 C 145.986 129, 146.177 129.858, 145.797 134.433 C 145.431 138.845, 144.590 140.865, 141.321 145.183 C 139.107 148.107, 137.035 151.245, 136.715 152.156 C 135.977 154.263, 138.740 156.798, 142.619 157.574 C 145.066 158.063, 146.410 157.507, 150.053 154.499 C 156.040 149.556, 157.641 146.320, 158.469 137.488 C 158.854 133.377, 159.542 129.783, 159.997 129.502 C 160.452 129.221, 160.667 127.755, 160.475 126.245 C 160.284 124.735, 159.844 120.935, 159.498 117.800 C 159.129 114.457, 157.951 110.737, 156.648 108.800 L 154.428 105.500 141.964 104.831 C 120.557 103.681, 115.646 103.687, 110.719 104.872 C 105.286 106.179, 101.428 105.558, 100.536 103.232 C 99.157 99.641, 102.477 98.526, 115.278 98.284 C 128.223 98.039, 152.159 97.261, 153 97.057 C 153.275 96.991, 154.328 96.309, 155.341 95.542 C 157.829 93.656, 156.749 90.624, 152.698 88.128 C 149.833 86.363, 147.520 86.143, 130.500 86.024 C 83.515 85.696, 83.167 85.712, 78.438 88.484 C 76.076 89.868, 73.669 91, 73.089 91 C 71.592 91, 67.167 81.898, 66.434 77.310 C 65.593 72.053, 69.300 56.869, 72.839 51.073 C 76.856 44.493, 77.161 43.212, 75.483 39.966 C 72.668 34.524, 68.593 33.725, 53.224 35.600 M 107.655 39.917 C 103.547 40.354, 101.393 41.110, 100.405 42.461 C 98.459 45.122, 98.588 45.570, 102.004 48.003 C 104.549 49.815, 105.097 49.911, 105.588 48.632 C 106.467 46.341, 111.411 45.570, 123.177 45.891 C 129.049 46.050, 134.786 45.885, 135.927 45.523 C 138.795 44.613, 138.525 41.560, 135.453 40.161 C 132.796 38.950, 117.954 38.820, 107.655 39.917 M 52.500 46.659 C 51.400 46.896, 49.375 47.944, 48 48.988 C 45.647 50.774, 45.488 51.491, 45.288 61.193 C 45.172 66.862, 44.805 79.600, 44.474 89.500 C 43.906 106.459, 43.989 107.687, 45.909 110.730 C 47.714 113.592, 48.321 113.891, 51.223 113.352 C 54.937 112.663, 57.827 110.018, 60.128 105.201 C 61.701 101.907, 61.555 97, 59.883 97 C 59.398 97, 59 95.403, 59 93.450 C 59 90.084, 57.093 85.145, 54.625 82.121 C 54.006 81.363, 53.024 78.888, 52.442 76.621 C 50.861 70.463, 52.465 63.548, 57.155 56.302 C 61.793 49.137, 61.880 46.563, 57.492 46.364 C 55.846 46.289, 53.600 46.422, 52.500 46.659 M 102.751 58.692 C 100.124 59.374, 99.410 63.691, 101.536 66.040 C 103.758 68.495, 104.081 68.485, 109.805 65.785 C 115.135 63.271, 123.656 62.826, 124.995 64.992 C 126.150 66.861, 133.886 66.413, 136.171 64.346 C 137.177 63.435, 138 61.916, 138 60.970 C 138 58.480, 133.418 57.877, 123.759 59.096 C 116.726 59.984, 110.276 59.786, 105.622 58.538 C 105.005 58.373, 103.713 58.442, 102.751 58.692 M 73.632 100.516 C 73.284 101.422, 73 104.816, 73 108.057 L 73 113.950 76.210 113.308 C 79.741 112.602, 87.471 107.199, 90.309 103.454 C 92.084 101.112, 92.075 101.059, 89.809 100.585 C 88.539 100.319, 84.522 99.825, 80.882 99.486 C 75.294 98.965, 74.166 99.125, 73.632 100.516 M 110.787 118.553 C 107.888 120.126, 107.950 121.406, 111.137 125.843 C 112.715 128.040, 112.905 128.066, 116.476 126.574 C 118.513 125.724, 121.401 123.999, 122.896 122.741 C 125.426 120.612, 125.500 120.337, 123.972 118.728 C 121.925 116.571, 114.616 116.474, 110.787 118.553" stroke="none" fill="black" fill-rule="evenodd"/>
</svg>