<svg xmlns="http://www.w3.org/2000/svg" width="256" height="256" viewBox="0 0 256 256" version="1.1">
	<path d="M 94.224 22.113 C 93.073 22.539, 91.640 23.803, 91.041 24.923 C 89.895 27.064, 90.639 32.061, 92.261 33.125 C 93.840 34.161, 92.132 37.619, 89.434 38.848 C 88.043 39.482, 83.832 40, 80.075 40 C 72.229 40, 69.971 38.554, 71.744 34.663 C 72.941 32.035, 71.165 26.661, 68.798 25.753 C 64.140 23.965, 59.322 27.848, 58.322 34.194 C 57.608 38.732, 56.267 41.002, 52.272 44.439 C 50.393 46.055, 48.229 48.530, 47.462 49.939 C 46.695 51.347, 44.472 54.243, 42.522 56.374 C 38.814 60.425, 37.310 64.075, 38.533 66.054 C 39.003 66.814, 41.309 67.073, 45.140 66.796 C 49.816 66.458, 51.346 66.725, 52.587 68.097 C 54.108 69.777, 54.165 70.619, 53.730 85 C 53.655 87.475, 53.771 94.225, 53.988 100 C 54.446 112.208, 54.363 112.633, 50.812 116.199 C 46.595 120.434, 45.960 122.368, 45.540 132.246 C 45.072 143.244, 46.391 151.430, 49.099 154.336 C 53.594 159.161, 57.164 150.507, 56.817 135.629 C 56.569 125, 57.662 123.470, 64.833 124.414 C 69.948 125.087, 72.577 127.775, 73.536 133.308 C 74.824 140.742, 79.464 143.420, 95.500 145.983 C 104.470 147.417, 111.713 142.725, 112.723 134.828 C 113.600 127.959, 117.756 125, 126.528 125 C 131.346 125, 132.265 125.297, 132.710 127 C 132.998 128.100, 133.816 129, 134.529 129 C 137.714 129, 137.070 142.988, 133.708 146.822 C 130.941 149.977, 130.753 152.692, 133.146 154.921 C 135.949 157.533, 138.592 157.546, 142.818 154.970 C 147.723 151.979, 150.423 145.282, 150.465 136 C 150.484 131.875, 149.921 126.925, 149.214 125 C 148.507 123.075, 147.667 120.713, 147.347 119.750 C 147.028 118.787, 146.343 118, 145.824 118 C 145.306 118, 145.139 117.584, 145.453 117.076 C 145.767 116.569, 144.689 115.203, 143.059 114.042 C 140.646 112.324, 137.792 111.768, 127.736 111.055 C 116.939 110.290, 114.704 110.408, 110.036 111.988 C 104.005 114.029, 103.519 114.631, 102.567 121.227 C 102.191 123.826, 101.460 126.215, 100.942 126.536 C 100.424 126.856, 100 127.922, 100 128.904 C 100 131.376, 96.839 134, 93.862 134 C 90.607 134, 88.086 132.069, 87.526 129.148 C 87.278 127.854, 86.667 126.279, 86.169 125.648 C 85.670 125.017, 85.027 122.307, 84.740 119.626 C 84.453 116.946, 83.606 114.365, 82.859 113.892 C 82.112 113.418, 81.924 113.024, 82.441 113.015 C 82.959 113.007, 82.540 112.384, 81.511 111.632 C 79.687 110.298, 79.688 110.238, 81.570 109.251 C 85.613 107.130, 97.720 105.718, 105.632 106.444 C 116.230 107.417, 117.561 107.393, 132.230 105.952 C 142.670 104.926, 145.058 104.394, 145.503 102.992 C 146.402 100.157, 145.181 98.609, 140.224 96.300 C 134.004 93.403, 119.456 92.368, 113 94.363 C 109.149 95.553, 108.103 95.552, 105.750 94.351 C 102.298 92.591, 102.289 91.511, 105.708 89.273 C 107.907 87.833, 110.595 87.500, 120.023 87.500 C 132.318 87.500, 135.047 86.554, 134.965 82.321 C 134.810 74.365, 125.335 71.457, 112.898 75.549 C 104.799 78.213, 98.976 73.998, 104.359 69.367 C 106.925 67.160, 107.565 67.079, 117.777 67.653 C 127.466 68.198, 128.655 68.075, 130.109 66.378 C 136.238 59.224, 130.269 54.245, 117.739 56.057 C 109.227 57.288, 108.381 57.238, 106.532 55.389 C 105.051 53.908, 105.065 53.669, 106.711 52.421 C 108.008 51.437, 112.224 51.055, 122.038 51.032 C 135.392 51, 135.621 50.962, 138.943 48.188 C 141.785 45.817, 142.203 44.946, 141.620 42.622 C 141.147 40.738, 139.822 39.406, 137.422 38.403 C 133.363 36.707, 119.641 36.146, 112.807 37.397 C 107.047 38.452, 105 36.899, 105 31.476 C 105 24.775, 99.633 20.112, 94.224 22.113 M 63.851 52.168 C 62.944 52.900, 61.919 54.455, 61.574 55.623 C 61.063 57.350, 61.620 58.066, 64.558 59.460 C 67.972 61.081, 68.453 61.080, 73.335 59.443 C 76.176 58.490, 81.200 57.627, 84.500 57.525 C 90.874 57.327, 95.378 55.635, 94.727 53.682 C 94.464 52.892, 91.377 52.495, 85.416 52.486 C 80.512 52.479, 74.025 52.104, 71 51.654 C 66.904 51.044, 65.079 51.176, 63.851 52.168 M 63.724 73.549 C 60.379 76.894, 60.351 77.529, 63.461 79.566 C 65.698 81.032, 66.537 81.040, 72.711 79.658 C 76.445 78.821, 81.750 78.025, 84.500 77.889 C 90.276 77.602, 94 76.234, 94 74.399 C 94 72.252, 92.562 71.958, 79.268 71.381 L 66.447 70.825 63.724 73.549 M 71 89.908 C 62.861 90.815, 60.931 92.818, 64.811 96.329 C 66.265 97.645, 67.300 97.774, 70.055 96.984 C 71.942 96.443, 76.922 96, 81.121 96 C 88.352 96, 96 94.040, 96 92.187 C 96 89.078, 86.337 88.197, 71 89.908 M 64.380 110.452 C 63.509 112.721, 64.940 114.152, 67.334 113.406 C 70.088 112.547, 71.246 110.776, 69.697 109.792 C 67.744 108.550, 64.978 108.894, 64.380 110.452" stroke="none" fill="black" fill-rule="evenodd"/>
</svg>