<svg xmlns="http://www.w3.org/2000/svg" width="256" height="256" viewBox="0 0 256 256" version="1.1">
	<path d="M 72.217 24.561 C 69.246 26.642, 67.275 30.818, 67.527 34.500 C 67.780 38.195, 66.458 40, 63.500 40 C 60.504 40, 58.885 37.870, 58.802 33.819 C 58.683 27.969, 55.648 23.846, 52.357 25.064 C 49.939 25.958, 46 30.648, 46 32.632 C 46 34.627, 38.179 49.084, 35.522 52 C 32.297 55.540, 31 58.396, 31 61.959 C 31 65.683, 33.718 67.056, 40.504 66.761 C 47.145 66.472, 48.710 68.413, 47.180 75.042 C 46.531 77.853, 46 81.446, 46 83.027 C 46 88.292, 48.085 95.714, 50.202 97.987 C 52.141 100.067, 52.855 100.184, 59.917 99.568 C 65.525 99.078, 68.437 99.280, 70.936 100.331 C 73.889 101.573, 74.788 101.569, 77.828 100.299 C 79.966 99.405, 82.625 99.082, 84.676 99.467 C 89.357 100.345, 94.198 97.464, 93.793 94.041 C 93.454 91.172, 87.067 86.273, 85.974 88.042 C 85.090 89.473, 79.202 89.602, 77.821 88.221 C 75.833 86.233, 77.733 84, 81.410 84 C 83.319 84, 85.165 84.457, 85.510 85.016 C 87.306 87.922, 90.430 81.103, 89.521 76.260 C 88.958 73.259, 88.607 73, 85.110 73 C 82.611 73, 80.705 72.332, 79.543 71.047 C 77.840 69.166, 77.862 69.074, 80.138 68.521 C 85.229 67.286, 99.860 67.480, 101.190 68.800 C 102.143 69.746, 102.493 73.760, 102.475 83.522 L 102.451 96.944 105.348 98.144 C 107.393 98.991, 109.609 99.069, 112.873 98.407 C 115.662 97.842, 119.171 97.827, 121.706 98.368 C 124.757 99.019, 127.639 98.834, 132.206 97.695 C 136.221 96.693, 140.672 96.317, 144.500 96.658 C 149.749 97.124, 150.794 96.913, 152.845 94.968 C 155.184 92.751, 155.184 92.740, 153.206 90.761 C 151.573 89.129, 149.961 88.796, 144.111 88.885 C 137.839 88.981, 137 88.777, 137 87.157 C 137 85.062, 140.810 83.015, 144.797 82.968 C 146.284 82.951, 148.264 82.356, 149.197 81.646 C 150.786 80.439, 150.771 80.152, 148.962 77.178 C 147.899 75.430, 146.685 73.958, 146.265 73.907 C 145.844 73.855, 143.531 73.670, 141.124 73.495 C 136.383 73.150, 133.389 71.035, 134.296 68.672 C 134.856 67.211, 136.473 66.713, 144.619 65.488 C 147.665 65.030, 149.026 64.239, 149.839 62.454 C 151.462 58.891, 147.858 55.033, 142.500 54.597 C 140.300 54.419, 137.722 54.211, 136.771 54.136 C 135.350 54.024, 135.225 53.600, 136.069 51.750 C 137.447 48.728, 141.424 47, 146.999 47 C 153.896 47, 156.007 43.947, 151.811 40.039 C 150.608 38.918, 148.339 38, 146.770 38 C 143.869 38, 139.578 34.892, 139.457 32.704 C 139.179 27.657, 133.532 22.399, 129.484 23.415 C 126.976 24.044, 124.359 29.887, 125.386 32.564 C 126.035 34.256, 122.716 38, 120.567 38 C 119.025 38, 117.519 34.587, 118.419 33.130 C 119.314 31.682, 115.994 26.010, 114.177 25.882 C 109.528 25.553, 106.456 27.746, 105.604 32 C 104.487 37.574, 104.095 38.954, 103.108 40.798 C 101.770 43.299, 96.186 45.651, 94.511 44.420 C 83.686 36.466, 82 34.818, 82 32.191 C 82 29.547, 79.757 25.293, 77.558 23.765 C 75.956 22.653, 74.667 22.845, 72.217 24.561 M 61.813 41.683 C 62.534 41.972, 63.397 41.936, 63.729 41.604 C 64.061 41.272, 63.471 41.036, 62.417 41.079 C 61.252 41.127, 61.015 41.364, 61.813 41.683 M 59.500 47 C 58.505 48.100, 57.085 49, 56.345 49 C 55.605 49, 55 49.420, 55 49.933 C 55 50.446, 54.100 51.151, 53 51.500 C 51.900 51.849, 51 52.738, 51 53.475 C 51 55.218, 60.479 55.870, 65.911 54.500 C 69.469 53.603, 69.763 53.298, 68.768 51.534 C 67.318 48.964, 63.334 45, 62.200 45 C 61.711 45, 60.495 45.900, 59.500 47 M 113.975 50.674 C 112.339 52.051, 111 53.540, 111 53.982 C 111 56.758, 120.156 55.205, 122.683 52 C 125.653 48.233, 118.221 47.101, 113.975 50.674 M 80.148 51.134 C 78.504 53.767, 79.893 54.961, 84.625 54.985 C 90.473 55.013, 93.738 53.869, 94.865 51.398 L 95.957 49 88.719 49 C 82.413 49, 81.310 49.275, 80.148 51.134 M 59.500 68.178 C 56.815 69.677, 56.988 69.466, 56.538 71.800 C 56.108 74.034, 57.298 75.388, 60.571 76.388 C 62.067 76.845, 63.734 76.067, 66.571 73.587 C 70.411 70.231, 70.455 70.118, 68.500 68.608 C 66.148 66.792, 62.311 66.608, 59.500 68.178 M 117.250 68.220 C 113.437 70.060, 114.901 74.100, 119.332 73.964 C 119.974 73.944, 121.850 72.813, 123.500 71.450 C 126.007 69.380, 126.254 68.813, 125 68.002 C 123.080 66.759, 120.107 66.843, 117.250 68.220 M 115.585 85.182 C 112.516 89.563, 118.186 91.740, 123 88.028 C 125.474 86.120, 125.479 86.084, 123.500 84.582 C 120.635 82.407, 117.355 82.655, 115.585 85.182 M 59.797 84.658 C 55.655 85.803, 57.008 92, 61.400 92 C 67.561 92, 70.534 84.658, 64.500 84.344 C 62.850 84.258, 60.734 84.399, 59.797 84.658 M 94.382 103.346 C 92.247 103.812, 84.650 104.578, 77.500 105.049 C 58.823 106.279, 54.986 106.889, 50.500 109.340 C 47.626 110.911, 46.413 112.271, 46.192 114.171 C 45.930 116.427, 46.352 116.919, 49.070 117.515 C 50.821 117.900, 54.559 118.306, 57.377 118.417 C 60.195 118.528, 63.481 119.154, 64.681 119.807 C 66.523 120.812, 66.729 121.457, 66.010 123.966 C 65.542 125.599, 64.871 127.400, 64.520 127.967 C 64.169 128.535, 64.505 129, 65.267 129 C 67.180 129, 71 133.250, 71 135.380 C 71 140.519, 66.375 143, 56.796 143 C 53.016 143, 49.306 143.722, 46.490 145.005 C 42.842 146.666, 41.978 147.600, 41.442 150.457 C 40.946 153.103, 41.299 154.612, 42.964 156.950 C 46.106 161.362, 49.263 161.797, 55.383 158.661 C 58.197 157.219, 64.044 154.935, 68.376 153.586 C 72.831 152.198, 77.939 149.777, 80.136 148.011 C 86.748 142.697, 94.320 140.970, 97.450 144.062 C 97.973 144.578, 99.813 145, 101.541 145 C 103.269 145, 106.891 145.701, 109.591 146.557 C 124.933 151.423, 131.965 152.976, 138.716 152.988 C 147.980 153.004, 153 150.859, 153 146.887 C 153 144.351, 152.566 144.054, 147.250 142.963 C 144.088 142.314, 139.925 141.215, 138 140.522 C 136.075 139.829, 132.250 138.961, 129.500 138.593 C 120.675 137.413, 119.004 136.876, 117.936 134.881 C 116.653 132.483, 117.619 129, 119.567 129 C 120.865 129, 121.505 126.549, 121.072 123.237 C 120.981 122.542, 121.633 121.695, 122.520 121.354 C 125.479 120.218, 133 112.268, 133 110.275 C 133 108.029, 130.055 105, 127.871 105 C 127.062 105, 125.899 104.499, 125.286 103.886 C 123.933 102.533, 100.029 102.115, 94.382 103.346 M 83.374 115.625 C 82.205 115.890, 80.265 117.153, 79.063 118.433 L 76.878 120.759 79.574 122.879 C 82.608 125.266, 86.557 125.535, 95.566 123.968 C 108.721 121.681, 112.706 119.660, 109.428 116.941 C 107.952 115.716, 87.526 114.684, 83.374 115.625" stroke="none" fill="black" fill-rule="evenodd"/>
</svg>