<svg xmlns="http://www.w3.org/2000/svg" width="256" height="256" viewBox="0 0 256 256" version="1.1">
	<path d="M 115.774 24.559 C 115.467 24.867, 110.104 25.805, 103.857 26.644 C 95.165 27.812, 87.637 28.024, 71.776 27.546 C 49.032 26.861, 46.549 27.305, 44.195 32.472 C 41.198 39.049, 44.002 40.652, 55.909 39.174 C 60.634 38.587, 69.256 38.125, 75.068 38.147 C 84.501 38.183, 85.769 38.400, 86.875 40.172 C 87.859 41.747, 87.860 42.464, 86.880 43.645 C 85.933 44.786, 83.761 45.066, 77.572 44.847 C 69.878 44.575, 55.444 45.440, 48.055 46.616 C 43.632 47.319, 36.070 51.154, 33.503 53.994 C 31.014 56.747, 30.065 70.329, 32.030 75.072 C 34.606 81.291, 39.067 81.228, 44.077 74.903 C 47.138 71.038, 47.198 70.778, 45.998 66.492 C 45.317 64.059, 45.010 61.417, 45.315 60.621 C 45.621 59.824, 48.395 58.607, 51.481 57.917 C 56.344 56.829, 57.297 56.868, 58.644 58.215 C 60.006 59.577, 60.021 60.061, 58.766 62.134 C 57.979 63.436, 57.428 65.063, 57.542 65.750 C 57.656 66.438, 57.806 67.450, 57.875 68 C 57.944 68.550, 58.697 69, 59.550 69 C 62.402 69, 67.135 72.063, 66.812 73.699 C 66.635 74.596, 64.548 75.857, 62 76.608 C 56.192 78.319, 52.932 80.081, 53.593 81.151 C 53.882 81.618, 53.754 82, 53.309 82.001 C 52.864 82.001, 52.391 83.885, 52.258 86.188 C 52.093 89.039, 51.233 91.192, 49.561 92.937 C 46.011 96.644, 44 102.171, 44 108.224 C 44 113.761, 44.520 115.983, 47.913 124.954 C 50.201 131, 50.892 131.604, 58.916 134.551 C 63.136 136.101, 64.424 137.034, 64.191 138.368 C 63.790 140.658, 58.456 145.487, 54 147.594 C 48.337 150.272, 44 153.955, 44 156.086 C 44 159.383, 46.988 163, 49.711 163 C 52.699 163, 57.656 159.660, 58.469 157.098 C 58.792 156.081, 61.724 153.827, 64.985 152.088 C 70.863 148.956, 74.082 145.612, 75.445 141.223 C 77.220 135.507, 90.862 131.249, 99.761 133.633 C 102.526 134.374, 103.563 137.945, 102.173 141.935 C 101.313 144.401, 101.478 145.338, 103.146 147.459 C 105.953 151.027, 108.516 152.190, 115.468 153.048 C 118.785 153.458, 123.975 154.510, 127 155.385 C 137.498 158.422, 154.965 156.489, 159.687 151.768 C 161.804 149.650, 161.965 149.016, 160.946 146.781 C 158.890 142.269, 155.877 141.418, 149.160 143.452 C 144.210 144.950, 142.919 145.024, 140.897 143.925 C 139.579 143.209, 134.344 142.343, 129.265 142 C 121.509 141.476, 119.637 141.008, 117.578 139.073 C 115.536 137.155, 115.322 136.458, 116.294 134.902 C 117.937 132.270, 124.191 130, 131.740 129.295 C 137.184 128.787, 138.711 128.196, 141.591 125.479 C 144.913 122.346, 145.423 120.669, 145.085 114 C 145.015 112.625, 145.571 108.053, 146.319 103.840 C 147.158 99.118, 147.336 95.566, 146.784 94.578 C 146.291 93.697, 143.649 91.842, 140.912 90.456 C 137.043 88.495, 135.805 87.275, 135.343 84.967 C 135.017 83.335, 134.244 81.993, 133.625 81.985 C 132.973 81.976, 133.076 81.604, 133.870 81.102 C 135.243 80.231, 132.625 79.093, 125.750 77.571 C 121.844 76.706, 122.331 74.659, 127.462 70.370 C 132.927 65.801, 133.522 64.428, 130.979 62.250 C 127.272 59.076, 128.448 57.311, 135.045 56.149 C 144.461 54.490, 146.603 55.968, 146.067 63.755 C 145.820 67.338, 149.034 73.413, 152.024 75.013 C 157.606 78, 160.698 73.362, 160.848 61.777 C 160.983 51.335, 159.108 47.861, 152.081 45.527 C 149.419 44.643, 146.850 44.018, 146.371 44.137 C 145.892 44.257, 141 44.023, 135.500 43.616 C 118.422 42.355, 116.629 42.327, 112 43.246 C 103.959 44.844, 101.155 44.891, 99.956 43.448 C 99.068 42.377, 99.153 41.704, 100.325 40.532 C 103.209 37.648, 107.169 37, 121.916 37 C 138.774 37, 143 36.065, 143 32.336 C 143 28.607, 141.385 26.330, 137.872 25.105 C 134.646 23.981, 116.794 23.539, 115.774 24.559 M 101.104 56.375 C 100.274 57.375, 100.010 59.036, 100.410 60.744 C 102.019 67.617, 102.054 70.303, 100.601 75.299 C 97.615 85.572, 92.244 86.764, 88.125 78.068 C 85.361 72.232, 85.237 70.086, 87.319 64.132 C 89.121 58.981, 88.664 57.205, 85.319 56.365 C 81.565 55.423, 73.650 56.810, 72.285 58.650 C 71.254 60.039, 71.553 60.530, 74.265 61.894 C 78.012 63.777, 82 69.308, 82 72.619 C 82 73.897, 80.937 77.348, 79.637 80.287 L 77.273 85.631 80.637 89.301 C 86.861 96.093, 83.932 100.113, 72.902 99.917 C 64.647 99.770, 60.749 101.211, 61.181 104.252 C 61.448 106.133, 62.215 106.551, 65.886 106.814 C 68.298 106.987, 70.751 106.649, 71.336 106.064 C 73.076 104.324, 80.534 104.802, 83.016 106.812 C 88.236 111.039, 81.857 115.617, 69.834 116.271 C 61.959 116.700, 58.218 118.519, 59.317 121.384 C 60.038 123.262, 65.205 124.088, 69.151 122.957 C 70.986 122.430, 76.090 121.991, 80.493 121.980 C 93.806 121.947, 106 119.541, 106 116.948 C 106 116.634, 105.100 115.411, 104 114.230 C 101.709 111.772, 101.377 107.762, 103.330 106.141 C 104.062 105.534, 110.024 104.835, 116.580 104.588 C 123.136 104.341, 128.838 104.107, 129.250 104.069 C 129.662 104.031, 130 103.361, 130 102.579 C 130 100.533, 125.915 99.946, 114.045 100.288 C 105.067 100.547, 103.336 100.336, 101.795 98.795 C 97.259 94.259, 101.020 88.949, 109.240 88.281 C 112.133 88.046, 115.771 87.368, 117.325 86.774 L 120.151 85.695 117.619 83.347 C 116.227 82.056, 114.505 80.990, 113.794 80.978 C 113.082 80.966, 111.382 80.096, 110.015 79.046 C 108.041 77.529, 107.552 76.297, 107.637 73.050 C 107.729 69.551, 108.511 68.153, 113.074 63.328 C 118.323 57.778, 118.367 57.680, 116.022 56.813 C 114.713 56.328, 111.122 55.669, 108.042 55.347 C 103.605 54.883, 102.165 55.096, 101.104 56.375 M 116.131 116.214 C 108.334 117.632, 111.162 119.605, 122.250 120.485 C 130.636 121.151, 131 121.094, 131 119.125 C 131 115.159, 126.633 114.304, 116.131 116.214" stroke="none" fill="black" fill-rule="evenodd"/>
</svg>