<svg xmlns="http://www.w3.org/2000/svg" width="256" height="256" viewBox="0 0 256 256" version="1.1">
	<path d="M 85.500 32.116 C 82.750 32.550, 76.225 33.168, 71 33.489 C 59.101 34.219, 45.247 35.979, 42.112 37.157 C 38.804 38.401, 35.038 42.154, 35.017 44.227 C 35.008 45.177, 36.027 46.627, 37.282 47.449 C 39.321 48.785, 41.260 48.734, 55.472 46.972 C 75.625 44.474, 78.474 44.474, 80.979 46.979 C 82.486 48.486, 82.810 49.740, 82.338 52.229 C 81.390 57.236, 80.305 57.999, 74.128 58.008 C 71.032 58.012, 64.698 58.452, 60.051 58.986 C 50.339 60.103, 43.120 63.715, 41.965 68.035 C 41.593 69.429, 40.985 82.704, 40.615 97.535 C 39.852 128.106, 40.802 142.918, 43.782 146.910 C 46.066 149.970, 49.605 151.030, 53 149.672 C 54.375 149.122, 62.925 148.514, 72 148.321 C 81.075 148.128, 96.150 147.514, 105.500 146.957 C 117.096 146.266, 124.026 146.271, 127.299 146.972 C 132.608 148.109, 139.321 148.289, 142.693 147.385 C 145.650 146.592, 146.318 143.194, 146.604 127.500 C 146.943 108.942, 147.522 98.144, 148.216 97.450 C 148.547 97.120, 148.371 95.421, 147.825 93.675 C 147.279 91.929, 146.635 88.700, 146.393 86.500 C 145.232 75.941, 144.760 73.845, 143.430 73.335 C 142.587 73.011, 142 71.422, 142 69.466 C 142 65.438, 139.021 62.767, 132.797 61.214 C 126.446 59.630, 109.367 57.953, 102.551 58.245 C 97.271 58.471, 96.474 58.249, 95.470 56.274 C 93.750 52.888, 94.861 48.137, 97.828 46.193 C 100.076 44.721, 103.612 44.496, 124.956 44.471 C 138.455 44.454, 150.243 44.086, 151.151 43.651 C 155.161 41.734, 153.436 34.535, 148.737 33.574 C 141.231 32.039, 93.026 30.928, 85.500 32.116 M 89.500 70.486 C 88.950 70.679, 86.870 71.108, 84.879 71.439 C 82.887 71.771, 80.230 72.933, 78.976 74.021 C 76.304 76.338, 73.480 76.489, 70 74.500 C 66.544 72.525, 59.411 72.650, 55.794 74.750 C 52.807 76.484, 52.784 76.562, 53.333 83.264 C 53.702 87.775, 53.443 91.107, 52.558 93.264 C 51.084 96.854, 50.366 134.635, 51.734 136.600 C 54.122 140.030, 60.600 140.964, 64.460 138.434 C 68.585 135.731, 69.001 132.453, 68.409 107.326 L 67.855 83.843 71.378 80.422 C 73.316 78.540, 75.318 77, 75.827 77 C 76.337 77, 77.717 79.238, 78.893 81.974 C 81.445 87.905, 83.190 89, 90.089 89 C 95.190 89, 95.455 88.852, 101.631 82.554 L 107.952 76.107 105.374 74.080 C 103.957 72.965, 101.155 71.785, 99.149 71.459 C 91.971 70.291, 90.486 70.141, 89.500 70.486 M 118 73.061 C 116.075 73.426, 113.272 74.222, 111.771 74.829 L 109.043 75.934 111.052 80.620 C 113.106 85.413, 113.875 94.286, 114.421 119.500 C 114.552 125.550, 114.969 131.175, 115.347 132 C 115.726 132.825, 117.242 134.063, 118.717 134.750 C 125.374 137.853, 131.496 134.933, 132.743 128.059 C 133.730 122.623, 133.599 96.780, 132.546 89 C 131.898 84.212, 132.073 83.189, 133.901 81.097 C 136.168 78.502, 136.312 77.976, 135.403 75.609 C 134.532 73.339, 124.377 71.853, 118 73.061 M 81.648 101.093 C 80.741 102.386, 80 104.823, 80 106.507 C 80 110.977, 83.696 112.805, 92.388 112.635 C 98.542 112.514, 99.480 112.226, 101.201 109.927 C 103.671 106.625, 102.750 102.236, 99.311 100.928 C 97.972 100.419, 93.821 99.718, 90.086 99.371 C 83.735 98.781, 83.189 98.893, 81.648 101.093 M 82.062 124.938 C 79.053 127.947, 78.423 131.705, 80.536 134.040 C 84.078 137.953, 101.577 136.152, 103.286 131.698 C 103.576 130.942, 103.500 128.788, 103.118 126.911 L 102.423 123.500 93.248 123.213 C 85.165 122.960, 83.835 123.165, 82.062 124.938" stroke="none" fill="black" fill-rule="evenodd"/>
</svg>