<svg xmlns="http://www.w3.org/2000/svg" width="256" height="256" viewBox="0 0 256 256" version="1.1">
	<path d="M 60.179 21.796 C 59.118 22.733, 57.674 25.750, 56.970 28.500 C 55.121 35.723, 54.733 36, 46.483 36 C 39.839 36, 38.944 36.250, 36.106 38.901 C 34.398 40.497, 33 42.677, 33 43.746 C 33 45.756, 35.886 49, 37.674 49 C 41.994 49, 43.731 60.984, 40.083 65.622 C 39.028 66.962, 36.755 72.336, 35.030 77.564 C 31.952 86.895, 31.906 87.312, 32.558 100.285 C 32.932 107.709, 32.734 119.966, 32.106 128.255 C 30.919 143.953, 31.320 146.332, 35.369 147.617 C 38.786 148.702, 41.823 144.285, 43.012 136.500 C 43.600 132.650, 44.464 127.250, 44.931 124.500 C 45.399 121.750, 45.555 117.250, 45.277 114.500 C 44.874 110.502, 45.170 109.009, 46.756 107.052 L 48.740 104.603 52.065 107.401 C 55.913 110.639, 58.778 110.540, 68.143 106.846 C 72.854 104.987, 74.109 103.949, 75.738 100.560 C 76.986 97.966, 77.532 95.199, 77.253 92.895 C 76.887 89.883, 77.263 88.938, 79.542 87.145 C 81.042 85.965, 83.447 84.986, 84.885 84.968 C 86.323 84.951, 88.708 83.873, 90.184 82.573 C 93.054 80.046, 93.089 78.397, 90.401 72.349 C 89.630 70.616, 89 68.286, 89 67.171 C 89 65.028, 84.670 61, 82.365 61 C 81.394 61, 81 59.558, 81 56 C 81 47.186, 85.902 44.327, 103.643 42.794 C 114.491 41.856, 116.344 41.915, 117.669 43.240 C 118.873 44.444, 118.957 45.212, 118.068 46.873 C 116.812 49.220, 112.064 51.998, 109.300 52.004 C 106.142 52.010, 100.921 55.936, 99.634 59.272 C 98.854 61.293, 98.493 66.240, 98.671 72.500 C 100.154 124.896, 100.363 127.469, 103.368 130.385 C 105.722 132.670, 105.811 137, 103.503 137 C 102.756 137, 101.351 138.800, 100.380 141 C 99.409 143.200, 98.079 145, 97.424 145 C 95.545 145, 95.077 148.665, 96.667 150.935 C 97.619 152.294, 99.205 152.996, 101.307 152.989 C 105.054 152.976, 113.689 150.503, 115.641 148.883 C 117.592 147.263, 117.309 143.019, 114.996 139.226 C 113.898 137.425, 113 135.071, 113 133.995 C 113 130.160, 121.115 130.198, 133.927 134.091 C 137.462 135.165, 140.612 135.658, 140.927 135.186 C 141.242 134.714, 143.035 133.802, 144.911 133.160 C 151.523 130.896, 154.765 127.506, 155.821 121.754 C 158.940 104.763, 158.956 104.360, 157.499 79.658 C 156.898 69.459, 156.323 65.678, 155.316 65.291 C 154.299 64.901, 154.232 64.426, 155.051 63.438 C 157.050 61.030, 155.583 57.652, 151.033 54.188 C 146.958 51.086, 146.168 50.849, 142.033 51.484 C 139.540 51.867, 136.508 52.323, 135.295 52.497 C 131.778 53.002, 129.332 48.894, 130.629 44.659 C 131.438 42.018, 137.041 40, 143.567 40 C 151.126 40, 156 37.671, 156 34.060 C 156 32.471, 154.980 30.390, 153.535 29.033 C 151.109 26.754, 150.836 26.728, 136.210 27.425 C 128.036 27.814, 119.583 28.541, 117.424 29.042 C 115.266 29.543, 111.643 29.963, 109.374 29.976 C 107.105 29.989, 102.677 31.137, 99.534 32.528 C 94.258 34.861, 93.357 34.971, 87.821 33.968 C 84.522 33.369, 80.851 32.957, 79.662 33.051 C 72.732 33.598, 71.982 33.202, 69.445 27.661 C 66.524 21.280, 63.168 19.156, 60.179 21.796 M 58.775 44.559 C 55.883 46.128, 53.649 49.315, 54.702 50.369 C 56.237 51.904, 71 49.853, 71 48.104 C 71 47.741, 70.299 46.445, 69.443 45.223 C 67.603 42.595, 62.929 42.304, 58.775 44.559 M 123 62.635 C 113.656 63.450, 111 65.101, 111 70.096 C 111 73.968, 114.139 75.260, 119.959 73.782 C 123.075 72.992, 125.914 73.039, 130.838 73.964 C 137.963 75.302, 142.490 75.123, 142.515 73.500 C 142.524 72.950, 142.890 71.933, 143.330 71.241 C 144.664 69.140, 143.075 66.185, 139.698 64.483 C 136.190 62.716, 129.968 62.028, 123 62.635 M 55.923 67.923 C 51.681 72.165, 52.029 74.660, 56.978 75.496 C 61.232 76.215, 66.706 75.409, 68.750 73.762 C 70.732 72.165, 70.205 68.257, 67.777 66.557 C 64.150 64.016, 59.267 64.579, 55.923 67.923 M 114.088 87.500 C 111.154 90.777, 110.901 91.758, 112.562 93.419 C 113.785 94.643, 116.333 95, 123.828 95 C 129.155 95, 135.030 95.435, 136.884 95.967 C 142.680 97.629, 147.284 92.912, 144.923 87.730 C 143.923 85.535, 143.470 85.468, 129.886 85.484 C 117.155 85.499, 115.716 85.682, 114.088 87.500 M 53.147 88.075 C 47.755 89.135, 44.781 92.239, 45.661 95.886 C 47.394 103.058, 48.641 104.342, 51.055 101.434 C 52.844 99.279, 57.461 97, 60.040 97 C 62.458 97, 65.917 93.373, 65.967 90.785 C 66.034 87.327, 61.658 86.402, 53.147 88.075 M 75.187 110 C 73.739 111.650, 71.564 113, 70.354 113 C 69.144 113, 66.881 114.042, 65.327 115.315 C 63.772 116.589, 60.780 118.671, 58.677 119.942 C 55.353 121.952, 53 125.268, 53 127.944 C 53 128.858, 57.450 130.768, 60.500 131.164 C 61.600 131.307, 65.256 130.829, 68.625 130.102 C 74.422 128.851, 74.808 128.583, 75.852 125.100 C 76.729 122.172, 77.885 120.969, 81.511 119.207 C 87.748 116.177, 88.767 113.345, 84.915 109.750 C 81.117 106.205, 78.457 106.273, 75.187 110 M 114.756 107.865 C 111.251 108.884, 109.919 114.139, 112.330 117.436 C 113.468 118.993, 115.003 119.230, 123.020 119.084 C 128.169 118.990, 134.593 119.480, 137.296 120.173 C 141.801 121.327, 142.327 121.273, 143.605 119.525 C 145.672 116.698, 145.437 109.391, 143.250 108.503 C 141.438 107.767, 116.976 107.219, 114.756 107.865 M 77.786 133.438 C 76.051 135.397, 74.112 137, 73.477 137 C 72.841 137, 70.656 138.800, 68.620 141 C 66.474 143.319, 63.991 145.006, 62.710 145.015 C 59.622 145.037, 58.029 146.255, 57.500 148.999 C 56.386 154.787, 61.609 155.470, 70.885 150.749 C 74.396 148.962, 79.633 146.291, 82.522 144.812 C 85.411 143.334, 88.784 140.708, 90.018 138.975 L 92.260 135.826 90.281 133.163 C 88.882 131.282, 87.221 130.408, 84.620 130.188 C 81.468 129.920, 80.487 130.387, 77.786 133.438 M 136.509 140.622 C 134.819 144.183, 134.830 144.285, 137.145 146.584 C 139.821 149.241, 155.849 155.995, 157.750 155.266 C 158.437 155.002, 159 153.652, 159 152.266 C 159 150.449, 157.118 147.976, 152.250 143.399 C 146.542 138.030, 144.939 137.046, 141.864 137.025 C 138.658 137.003, 138.025 137.429, 136.509 140.622" stroke="none" fill="black" fill-rule="evenodd"/>
</svg>