<svg xmlns="http://www.w3.org/2000/svg" width="256" height="256" viewBox="0 0 256 256" version="1.1">
	<path d="M 80 29.626 C 78.625 29.820, 73.675 30.457, 69 31.042 C 43.900 34.179, 42.862 35.290, 43.790 58 C 44.535 76.215, 44.516 77.398, 43.176 95 C 40.760 126.738, 40.831 126.238, 37.864 132.576 C 33.632 141.617, 33.353 144.136, 36.216 147.465 C 41.066 153.103, 46.937 147.310, 49.356 134.500 C 54.781 105.776, 55.039 102.957, 55.366 68.745 C 55.555 49.028, 55.671 47.884, 57.699 45.857 C 59.760 43.795, 60.861 43.707, 90.166 43.239 C 125.228 42.679, 128.584 43.109, 129.476 48.278 C 129.782 50.050, 129.998 55.550, 129.956 60.500 C 129.779 81.379, 129.753 85.185, 129.690 99 C 129.630 112.151, 130.362 127.672, 131.411 135.500 C 132.449 143.247, 132.914 143.850, 141.360 148.409 C 152.484 154.413, 155.106 154.857, 160.061 151.579 C 163.329 149.416, 164 148.407, 164 145.660 C 164 140.629, 160.356 137.733, 153.772 137.531 C 142.707 137.193, 141.817 135.139, 141.635 109.500 C 141.561 99.050, 141.803 78.800, 142.173 64.500 C 142.901 36.352, 142.880 36.207, 137.521 33.427 C 134.560 31.890, 130.753 31.286, 116 30.010 C 105.817 29.129, 85.079 28.908, 80 29.626 M 67.254 55.263 C 62.019 58.943, 61.658 66.195, 66.647 67.447 C 68.063 67.803, 71.653 67.550, 74.624 66.885 C 79.690 65.751, 80.172 65.813, 82.371 67.879 C 85.027 70.374, 85.098 74.129, 82.543 76.952 C 81.392 78.224, 78.901 78.881, 73.863 79.242 C 68.165 79.650, 66.338 80.208, 64.420 82.125 C 62.259 84.286, 62 85.553, 61.581 96.002 C 61.156 106.601, 61.291 107.754, 63.310 110.744 C 65.870 114.536, 70.312 115.784, 75.195 114.082 C 78.262 113.013, 78.624 113.152, 81.800 116.619 C 84.935 120.040, 85.130 120.653, 84.700 125.738 C 84.072 133.168, 82.736 134.228, 73.109 134.936 C 66.539 135.418, 64.687 135.945, 62.569 137.935 C 56.795 143.360, 61.337 147.869, 71.262 146.563 C 74.143 146.184, 79.200 145.482, 82.500 145.002 C 103.037 142.018, 108.305 141.663, 114.133 142.867 C 118.320 143.731, 120.554 143.774, 121.972 143.015 C 124.483 141.671, 126.547 137.969, 125.257 137.123 C 123.499 135.970, 121.532 126.051, 121.513 118.250 C 121.506 115.362, 121.216 113, 120.868 113 C 120.520 113, 120.838 111.313, 121.574 109.250 C 122.310 107.188, 122.932 101.583, 122.956 96.795 C 122.997 88.777, 122.800 87.891, 120.459 85.550 C 116.748 81.839, 113.198 80.289, 106.962 79.659 C 97.698 78.723, 94.646 76.655, 95.664 72 C 96.642 67.528, 99.831 65.705, 105.509 66.372 C 111.484 67.074, 121.173 66.089, 120.411 64.857 C 120.115 64.378, 120.618 63.700, 121.528 63.351 C 122.903 62.823, 122.618 62.221, 119.841 59.784 C 113.087 53.857, 113.717 53.996, 91.366 53.495 C 70.933 53.037, 70.360 53.079, 67.254 55.263 M 98.051 90.445 C 96.084 92.540, 95.810 93.667, 96.223 97.965 C 96.490 100.745, 97.485 103.879, 98.435 104.928 C 99.964 106.617, 100.511 106.689, 103.216 105.551 C 106.840 104.027, 107.957 102.281, 108.572 97.175 C 108.937 94.146, 108.571 92.957, 106.765 91.303 C 103.055 87.907, 100.658 87.671, 98.051 90.445 M 75.596 93.166 C 72.675 97.336, 74.582 108.613, 77.864 106.584 C 78.413 106.245, 79.154 106.440, 79.511 107.017 C 79.899 107.645, 80.952 107.060, 82.130 105.561 C 83.681 103.590, 84.037 101.824, 83.801 97.278 C 83.505 91.601, 83.445 91.495, 80.346 91.194 C 77.982 90.964, 76.792 91.459, 75.596 93.166 M 98.068 116.904 C 95.516 120.489, 95.513 120.986, 98.017 126.313 C 99.787 130.078, 100.449 130.616, 103.412 130.700 C 106.648 130.792, 106.862 130.567, 108.497 125.371 C 110.494 119.022, 109.921 115.480, 106.761 114.633 C 102.293 113.436, 100.137 114, 98.068 116.904" stroke="none" fill="black" fill-rule="evenodd"/>
</svg>