<svg xmlns="http://www.w3.org/2000/svg" width="256" height="256" viewBox="0 0 256 256" version="1.1">
	<path d="M 69.500 28.058 C 65.650 28.957, 59.350 30.461, 55.500 31.400 C 51.650 32.338, 46.925 33.476, 45 33.928 C 39.557 35.206, 38.524 35.842, 36.592 39.113 C 35.026 41.764, 34.735 45.332, 34.368 66.332 C 33.606 110.001, 33.218 118.418, 31.641 125.500 C 29.101 136.908, 29.182 144.941, 31.883 149.311 C 33.137 151.340, 34.769 153, 35.510 153 C 37.747 153, 40 150.029, 40 147.078 C 40 145.549, 40.440 142.994, 40.977 141.399 C 41.882 138.714, 42.702 132.143, 42.912 125.886 C 42.997 123.354, 48.952 115.305, 48.984 117.679 C 48.993 118.327, 49.784 119.641, 50.742 120.600 C 52.120 121.977, 52.548 124.452, 52.788 132.421 C 53.134 143.955, 55.264 155.917, 57.189 157.138 C 58.811 158.166, 64.123 158.228, 65.573 157.235 C 67.329 156.032, 68.059 152.979, 67.044 151.082 C 64.897 147.071, 65.079 144.016, 67.631 141.232 C 69.314 139.396, 70.305 138.910, 70.651 139.750 C 70.935 140.438, 72.029 141, 73.083 141 C 75.049 141, 75.337 141.973, 75.037 147.602 C 74.818 151.718, 77.422 152.687, 91 153.540 C 112.025 154.860, 114.178 154.741, 117.750 152.062 C 121.726 149.079, 122.239 143.947, 118.914 140.409 C 116.616 137.962, 114.392 138.190, 107.942 141.535 C 106.010 142.536, 101.867 143.423, 98.500 143.556 C 95.200 143.686, 91.896 143.951, 91.157 144.146 C 90.418 144.341, 89.312 143.739, 88.699 142.809 C 87.826 141.485, 87.989 140.670, 89.447 139.059 C 90.472 137.926, 91.843 137, 92.494 137 C 93.146 137, 94.186 135.887, 94.806 134.526 C 95.828 132.284, 95.596 131.794, 92.346 129.315 C 88.806 126.615, 88.767 126.505, 89.351 120.918 C 89.846 116.181, 89.637 114.982, 88.071 113.564 C 87.042 112.633, 85.970 110.992, 85.689 109.918 C 85.184 107.986, 87.253 105, 89.096 105 C 89.621 105, 90.497 103.823, 91.044 102.385 C 91.867 100.219, 91.567 99.025, 89.295 95.434 C 87.786 93.049, 85.574 90.575, 84.380 89.936 C 81.709 88.506, 76.148 87.952, 75.470 89.048 C 75.196 89.491, 73.405 90.371, 71.491 91.003 C 67.510 92.317, 65.573 91.132, 64.462 86.704 C 63.849 84.263, 64.043 84.139, 69.505 83.456 C 72.629 83.066, 77.570 83.027, 80.486 83.369 C 84.258 83.813, 86.610 83.563, 88.643 82.502 C 90.214 81.683, 92.003 81.010, 92.618 81.006 C 93.703 81, 96.223 73.241, 97.530 65.885 C 98.411 60.923, 94.755 52.442, 90.867 50.431 C 87.308 48.591, 72.987 46.603, 68.705 47.354 C 66.942 47.664, 63.250 48.368, 60.500 48.920 C 47.871 51.456, 49 51.474, 49 48.736 C 49 44.087, 53.196 42.510, 68.500 41.404 C 78.868 40.655, 87.469 38.217, 87.565 36 C 87.648 34.070, 85.347 29.332, 83.889 28.431 C 81.040 26.671, 75.998 26.540, 69.500 28.058 M 137.788 28.545 C 137.625 28.708, 130.969 29.376, 122.996 30.030 C 107.716 31.284, 103 32.698, 103 36.026 C 103 40.264, 107.654 42.709, 114.633 42.136 C 115.807 42.040, 117.976 42.421, 119.455 42.983 C 121.612 43.803, 122.080 44.547, 121.824 46.752 C 121.435 50.099, 118.684 51.917, 113.937 51.965 C 111.337 51.990, 109.621 52.786, 107.588 54.908 L 104.801 57.817 104.606 79.158 C 104.421 99.296, 105.289 120.229, 106.554 126.166 C 107.526 130.728, 112.542 131.928, 132.870 132.462 C 150.314 132.920, 150.762 132.880, 152.734 130.715 C 153.843 129.497, 155.227 127.572, 155.810 126.438 C 158.062 122.054, 159.752 102.398, 159.604 82.294 C 159.467 63.556, 159.306 61.885, 157.386 59.294 C 153.532 54.092, 149.289 51.984, 142.962 52.127 C 135.871 52.287, 135 51.772, 135 47.416 C 135 43.381, 136.723 42.403, 145.682 41.350 C 160.025 39.664, 158.699 29.185, 144.059 28.521 C 140.773 28.372, 137.951 28.383, 137.788 28.545 M 58.532 59.748 C 48.559 60.122, 46 61.405, 46 66.033 C 46 70.777, 47.971 71.473, 57.284 70.019 C 65.996 68.659, 70.854 68.555, 77.750 69.579 L 82 70.210 82 66.605 C 82 61.156, 79.244 58.951, 72.750 59.206 C 69.862 59.319, 63.464 59.563, 58.532 59.748 M 118.250 65.584 C 114.292 68.703, 114.009 72.177, 117.453 75.369 C 119.339 77.117, 120.785 77.552, 123.703 77.249 C 125.792 77.033, 127.970 76.813, 128.545 76.761 C 129.119 76.709, 132.630 77.490, 136.346 78.496 C 142.468 80.153, 143.250 80.178, 144.664 78.765 C 146.458 76.970, 147.021 71.648, 145.801 68 C 144.552 64.265, 140.682 62.999, 130.551 63.011 C 122.360 63.021, 121.191 63.266, 118.250 65.584 M 46.611 84.532 C 44.864 86.279, 43.475 92.341, 44.458 93.931 C 44.818 94.515, 45.289 95.902, 45.503 97.014 C 45.717 98.125, 46.556 99.699, 47.368 100.511 C 48.669 101.812, 48.926 101.603, 49.537 98.743 C 49.919 96.960, 50.570 95.050, 50.985 94.500 C 51.400 93.950, 52.289 91.795, 52.960 89.711 C 53.917 86.742, 53.918 85.607, 52.968 84.461 C 51.395 82.566, 48.545 82.597, 46.611 84.532 M 140.500 87.134 C 138.451 89.198, 133.911 89.297, 124 87.493 C 121.244 86.991, 120.022 87.304, 118.250 88.967 C 115.499 91.548, 115.428 93.074, 117.917 96.139 C 119.654 98.278, 120.665 98.511, 128.667 98.616 C 133.525 98.679, 139.129 99.059, 141.119 99.460 C 144.550 100.150, 144.798 100.019, 145.869 96.945 C 147.301 92.838, 147.294 90.740, 145.839 87.547 C 144.459 84.518, 143.194 84.420, 140.500 87.134 M 62.614 108.077 C 60.832 111.093, 60.838 111.199, 62.932 113.427 C 64.176 114.752, 66.156 115.659, 67.674 115.600 C 69.865 115.516, 70.490 114.792, 71.588 111.070 C 72.307 108.633, 72.667 106.271, 72.389 105.820 C 72.110 105.369, 70.206 105, 68.157 105 C 65.057 105, 64.126 105.517, 62.614 108.077 M 139.686 109.594 C 136.351 112.462, 134.845 112.537, 126.314 110.264 L 119.800 108.529 117.900 110.875 C 115.465 113.883, 115.490 116.490, 117.979 118.979 C 119.535 120.535, 120.658 120.802, 123.229 120.229 C 127.342 119.312, 134.329 119.425, 139.400 120.491 C 144.256 121.511, 146 119.623, 146 113.344 C 146 107.615, 143.626 106.205, 139.686 109.594 M 66.975 123.025 C 65.326 124.674, 65.017 125.821, 65.550 128.315 C 65.925 130.067, 66.684 132.063, 67.238 132.750 C 68.781 134.665, 71.790 134.236, 72.500 132 C 72.849 130.900, 73.554 130, 74.067 130 C 76.304 130, 74.860 125.037, 72.040 123.028 L 69.080 120.920 66.975 123.025 M 145.655 141.829 C 142.308 145.528, 144.558 150.332, 150.861 152.943 C 154.708 154.536, 157 153.752, 157 150.843 C 157 147.941, 153.158 142.393, 150.221 141.055 C 147.305 139.726, 147.604 139.676, 145.655 141.829" stroke="none" fill="black" fill-rule="evenodd"/>
</svg>