<svg xmlns="http://www.w3.org/2000/svg" width="256" height="256" viewBox="0 0 256 256" version="1.1">
	<path d="M 126 29.079 C 121.325 29.482, 113 30.136, 107.500 30.532 C 102 30.927, 97.050 31.598, 96.500 32.021 C 95.950 32.445, 93.859 33.240, 91.854 33.787 C 88.693 34.649, 87.640 34.442, 83.930 32.230 C 80.005 29.890, 79.292 29.775, 75.311 30.839 C 72.924 31.478, 67.715 32.010, 63.736 32.022 C 59.756 32.033, 52.479 32.648, 47.566 33.386 C 39.623 34.580, 38.319 35.079, 35.816 37.880 C 32.478 41.615, 32.308 43.308, 35 46 C 37.283 48.283, 38.621 48.400, 46.114 46.976 C 51.709 45.912, 54.198 45.649, 75 43.919 C 87.624 42.869, 108.086 42.686, 111.176 43.595 C 112.377 43.948, 112.719 44.854, 112.383 46.794 C 111.785 50.249, 109.455 52, 105.457 52 C 103.718 52, 100.801 53.013, 98.975 54.250 C 94.626 57.196, 93.381 61.026, 94.853 66.929 C 95.498 69.513, 95.974 79.056, 95.949 88.884 C 95.908 105.032, 96.336 114.404, 97.581 124.617 C 98.024 128.253, 98.541 128.940, 102.011 130.505 C 105.293 131.985, 106.645 132.096, 110.220 131.180 C 115.474 129.834, 121.633 129.823, 129.421 131.145 C 134.307 131.974, 136.458 131.831, 141.729 130.325 C 145.243 129.321, 148.987 127.575, 150.049 126.445 C 151.112 125.315, 152.931 120.815, 154.092 116.445 C 155.956 109.423, 156.196 105.822, 156.152 85.449 C 156.124 72.659, 155.658 61.230, 155.103 59.772 C 154.545 58.302, 152.065 55.951, 149.472 54.431 C 145.170 51.910, 144.283 51.759, 137.038 52.318 C 128.326 52.989, 126 51.811, 126 46.728 C 126 42.438, 129.254 41.001, 138.973 40.996 C 145.709 40.993, 148.183 40.576, 150.750 39.011 C 154.064 36.991, 154.409 36.126, 153.402 32.372 C 152.238 28.037, 146.313 27.325, 126 29.079 M 52.500 55.745 C 48.100 56.526, 43.493 57.360, 42.262 57.599 C 38.779 58.273, 36.002 64.746, 35.992 72.210 C 35.982 79.637, 38.394 90.376, 41.752 97.853 C 44.132 103.152, 44.136 103.227, 42.227 105.353 C 39.152 108.776, 38.840 110.937, 40.562 116.902 C 42.481 123.553, 45.624 129, 47.543 129 C 48.301 129, 49.840 128.015, 50.961 126.811 C 53.684 123.889, 53.713 115.789, 51.022 109.859 C 48.565 104.445, 48.478 101.338, 50.750 100.172 C 51.712 99.678, 56.407 98.987, 61.182 98.636 C 69.052 98.058, 69.920 98.171, 70.449 99.838 C 70.770 100.850, 70.350 103.311, 69.516 105.307 C 68.682 107.303, 67.991 110.638, 67.979 112.718 C 67.955 117.009, 63.673 129.966, 61.920 131.049 C 61.285 131.442, 57.494 132.291, 53.497 132.936 C 47.386 133.922, 45.257 134.831, 40.115 138.652 C 33.420 143.627, 32.404 146.316, 36.511 148.187 C 38.522 149.103, 40.766 148.913, 47.761 147.231 C 66.557 142.715, 69.386 141.807, 72.810 139.199 C 75.707 136.992, 77.318 136.524, 81.648 136.629 C 85.869 136.732, 87.054 136.406, 87.494 135.020 C 88.254 132.624, 87.241 130.388, 84.617 128.669 C 83.398 127.870, 81.561 125.352, 80.533 123.073 C 78.765 119.153, 78.755 118.738, 80.339 115.416 C 82.082 111.761, 81.825 108.805, 79.352 104.067 C 77.562 100.637, 77.645 99.721, 80.019 96.703 C 81.956 94.241, 82.902 89.476, 84.628 73.500 C 84.984 70.200, 85.687 66.698, 86.191 65.717 C 87.712 62.752, 85.097 57.274, 81.300 55.472 C 77.229 53.541, 64.219 53.664, 52.500 55.745 M 124.500 62.135 C 122.300 62.547, 118.879 62.911, 116.898 62.942 C 111.673 63.026, 106.579 66.755, 106.187 70.782 C 105.827 74.475, 105.210 74.274, 117.500 74.460 C 122.882 74.541, 128.182 75.224, 130.684 76.158 C 134.445 77.563, 135.185 77.566, 138.022 76.192 C 141.422 74.546, 143.171 71.369, 142.368 68.299 C 141.364 64.460, 131.060 60.905, 124.500 62.135 M 58.500 66.690 C 50.861 67.685, 47.147 71.362, 48.410 76.678 C 48.779 78.230, 49.137 80.101, 49.207 80.836 C 49.276 81.571, 50.362 82.847, 51.620 83.671 C 54.415 85.502, 65.620 87.912, 68.202 87.237 C 72.971 85.990, 74.794 73.550, 70.927 68.635 C 68.814 65.949, 66.717 65.620, 58.500 66.690 M 109.156 87.294 C 106.546 90.117, 106.909 93.887, 109.817 94.156 C 110.743 94.241, 113.300 94.415, 115.500 94.542 C 117.700 94.669, 124.067 95.094, 129.648 95.488 C 139.139 96.157, 139.933 96.067, 141.898 94.102 C 145.648 90.352, 143.748 86.891, 137.716 86.480 C 109.916 84.590, 111.703 84.540, 109.156 87.294 M 109.750 109.250 C 107.710 111.290, 107.449 115.298, 109.258 116.799 C 111.103 118.331, 140.657 118.743, 142.141 117.259 C 143.448 115.952, 143.567 110.157, 142.313 108.932 C 141.866 108.495, 134.750 107.994, 126.500 107.819 C 113.282 107.538, 111.292 107.708, 109.750 109.250 M 104.362 135.500 C 104.041 136.335, 102.555 137, 101.008 137 C 98.145 137, 95 140.385, 95 143.465 C 95 144.309, 94.152 145, 93.117 145 C 90.927 145, 89.850 147.981, 91.180 150.358 C 92.253 152.274, 95.827 152.445, 102.939 150.920 C 109.927 149.421, 112.200 147.353, 112.200 142.494 C 112.200 139.486, 111.580 138.035, 109.544 136.284 C 106.446 133.619, 105.158 133.424, 104.362 135.500 M 133.035 138.934 C 131.400 141.991, 131.813 144.806, 134 145.500 C 135.100 145.849, 136 146.498, 136 146.942 C 136 147.386, 140.499 149.437, 145.997 151.499 C 154.171 154.565, 156.269 155.022, 157.497 154.002 C 158.324 153.316, 159 152.010, 159 151.100 C 159 148.803, 156.180 145, 154.477 145 C 153.702 145, 150.283 143.200, 146.879 141 C 139.866 136.467, 134.763 135.706, 133.035 138.934" stroke="none" fill="black" fill-rule="evenodd"/>
</svg>