<svg xmlns="http://www.w3.org/2000/svg" width="256" height="256" viewBox="0 0 256 256" version="1.1">
	<path d="M 59.896 28.999 C 59.013 29.514, 57.064 33.301, 55.564 37.413 C 54.064 41.526, 52.199 45.420, 51.419 46.068 C 50.638 46.715, 50 47.865, 50 48.622 C 50 49.380, 49.586 50, 49.080 50 C 47.991 50, 38 63.511, 38 64.985 C 38 65.543, 37.610 66, 37.133 66 C 35.888 66, 31.447 73.007, 30.647 76.235 C 29.669 80.183, 33.067 83.437, 37.289 82.592 C 38.983 82.253, 41.073 81.375, 41.934 80.640 C 45.331 77.741, 46.880 77.946, 48.574 81.516 C 50.735 86.068, 54.245 86.665, 66.528 84.571 C 76.322 82.902, 79.902 81.503, 80.125 79.259 C 80.194 78.567, 80.306 77.581, 80.375 77.069 C 80.508 76.081, 85.678 72.124, 90.233 69.526 C 92.771 68.078, 93.104 68.104, 94.903 69.903 C 96.727 71.727, 96.839 73.472, 96.831 99.872 L 96.822 127.905 100.411 131.056 C 103.939 134.154, 105.109 137, 102.853 137 C 101.438 137, 90.766 147.677, 89.151 150.708 C 88.153 152.581, 88.270 153.074, 89.922 153.958 C 92.733 155.463, 95.281 155.259, 102.395 152.961 C 111.224 150.108, 113.406 147.877, 112.517 142.612 C 111.490 136.529, 111.510 136.605, 110.622 135.183 C 110.170 134.459, 110.017 133.650, 110.281 133.385 C 111.527 132.140, 124.952 131.829, 128.397 132.966 L 132.120 134.195 131.531 139.347 C 131.066 143.418, 131.320 144.976, 132.738 146.766 C 134.338 148.786, 147.377 154.337, 153.856 155.757 C 156.375 156.309, 157.959 154.754, 157.985 151.705 C 158.005 149.278, 153.577 145, 151.045 145 C 149.920 145, 148.201 144.213, 147.223 143.250 C 146.246 142.287, 143.912 140.221, 142.037 138.658 C 137.976 135.272, 138.481 133.774, 144.754 130.606 C 149.347 128.286, 150.688 125.867, 153.419 114.971 C 155.569 106.394, 155.841 102.755, 154.914 94.969 C 154.461 91.161, 154.565 86.523, 155.167 83.693 C 156.387 77.962, 154.629 62.814, 152.321 59.166 C 150.019 55.529, 144.787 53.815, 138.182 54.536 C 131.492 55.266, 128.750 53.826, 128.750 49.583 C 128.750 44.549, 131.015 43.472, 140.881 43.816 C 149.183 44.106, 149.884 43.968, 152.850 41.473 C 156.725 38.212, 156.769 37.111, 153.167 33.660 C 149.779 30.414, 148.910 30.353, 129.500 31.992 C 121.250 32.689, 110.675 33.461, 106 33.707 C 100.175 34.014, 96.949 34.651, 95.750 35.732 C 93.383 37.866, 93.497 43.235, 95.958 45.462 C 97.731 47.067, 98.517 47.114, 104.291 45.967 C 111.763 44.481, 115.544 45.148, 116.312 48.086 C 117.508 52.659, 114.294 55, 106.821 55 C 102.911 55, 95 58.469, 95 60.184 C 95 61.952, 91.480 60.841, 87.286 57.750 C 79.190 51.784, 77 49.832, 77 48.580 C 77 47.897, 75.898 46.748, 74.552 46.028 C 71.928 44.623, 69 38.534, 69 34.480 C 69 29.773, 63.862 26.680, 59.896 28.999 M 62.500 54.567 C 59.651 56.013, 51.928 66.500, 50.576 70.760 C 49.703 73.511, 52.210 74.008, 63.916 73.409 C 76.312 72.774, 77.350 71.848, 75.259 63.288 C 74.120 58.625, 73.163 56.965, 70.601 55.210 C 66.804 52.608, 66.422 52.578, 62.500 54.567 M 117.852 65.894 C 109.585 66.642, 107 67.978, 107 71.500 C 107 75.024, 109.355 76.183, 118.363 77.096 C 122.960 77.562, 127.938 78.406, 129.426 78.972 C 136.250 81.566, 142 78.327, 142 71.888 C 142 66.120, 134.875 64.351, 117.852 65.894 M 110.250 89.497 C 107.499 91.474, 107.367 94.117, 109.905 96.414 C 111.397 97.764, 114.274 98.238, 123.155 98.596 C 129.395 98.847, 135.404 99.247, 136.508 99.485 C 138.570 99.928, 141.436 98.686, 141.582 97.286 C 141.626 96.854, 142.021 95.230, 142.458 93.677 C 142.918 92.046, 142.846 90.446, 142.289 89.889 C 141.758 89.358, 134.839 88.689, 126.912 88.402 C 114.668 87.959, 112.162 88.123, 110.250 89.497 M 70 94.260 C 66.425 94.710, 59.867 95.223, 55.427 95.399 C 46.459 95.756, 42.112 97.361, 40.873 100.774 C 39.436 104.730, 42.530 106.597, 51.589 107.241 C 55.940 107.550, 61.819 107.483, 64.652 107.093 C 74.242 105.773, 75.991 108.185, 71.401 116.399 C 67.781 122.875, 63.472 125.982, 59 125.343 C 49.316 123.958, 45 125.081, 45 128.988 C 45 131.993, 48.715 135.621, 53.701 137.486 C 59.626 139.702, 61 140.747, 61 143.034 C 61 145.207, 66.204 149.762, 69.684 150.636 C 73.154 151.506, 74.038 149.662, 73.343 143.004 C 72.671 136.581, 73.763 133.534, 80.244 123.744 C 81.248 122.228, 82.949 118.140, 84.024 114.659 C 85.099 111.177, 86.883 107.510, 87.989 106.510 C 91.971 102.906, 89.068 96.086, 82.734 94.162 C 79.190 93.086, 79.330 93.085, 70 94.260 M 109.657 110.827 C 108.487 112.119, 107.971 113.981, 108.180 116.156 L 108.500 119.500 123.391 119.778 C 136.338 120.019, 138.531 119.830, 140.188 118.330 C 141.339 117.288, 141.977 115.593, 141.797 114.052 C 141.518 111.651, 141.145 111.492, 135.500 111.359 C 128.874 111.204, 118.452 110.240, 114.198 109.390 C 112.239 108.998, 110.940 109.409, 109.657 110.827" stroke="none" fill="black" fill-rule="evenodd"/>
</svg>