<svg xmlns="http://www.w3.org/2000/svg" width="256" height="256" viewBox="0 0 256 256" version="1.1">
	<path d="M 112.213 21.628 C 110.468 23.074, 109.221 24.549, 109.442 24.906 C 109.663 25.264, 109.038 26.624, 108.052 27.930 C 106.552 29.920, 105.063 30.408, 98.881 30.942 C 94.821 31.292, 90.517 32.123, 89.316 32.789 C 86.895 34.131, 82.080 34.373, 80.443 33.235 C 79.369 32.488, 76.678 26.564, 76.932 25.507 C 77.244 24.213, 73.992 22.002, 71.821 22.032 C 68.146 22.082, 66.297 24.171, 64.521 30.278 C 63.613 33.405, 62.464 36.213, 61.970 36.519 C 61.475 36.825, 58.194 37.174, 54.680 37.295 C 47.648 37.538, 45 38.984, 45 42.583 C 45 45.482, 48.623 49, 51.608 49 C 53.684 49, 53.770 49.248, 52.852 52.575 C 52.052 55.473, 52.229 56.885, 53.789 60.039 C 55.077 62.642, 55.348 64.080, 54.607 64.385 C 53.998 64.637, 55.188 64.878, 57.250 64.921 C 59.313 64.964, 61 64.523, 61 63.941 C 61 63.359, 60.550 63.160, 60 63.500 C 59.450 63.840, 59 63.447, 59 62.626 C 59 60.624, 62.138 59.748, 66.429 60.553 C 68.363 60.916, 72.248 60.660, 75.062 59.985 C 79.151 59.004, 80.654 59.012, 82.546 60.025 C 84.512 61.077, 84.734 61.628, 83.853 63.275 C 82.898 65.059, 82.127 65.191, 76.146 64.592 C 72.491 64.227, 69.050 63.887, 68.500 63.837 C 67.134 63.712, 64.609 64.384, 64 65.033 C 63.207 65.879, 50.900 68.387, 46.500 68.599 C 44.300 68.705, 41.972 68.839, 41.327 68.896 C 40.681 68.953, 38.769 70.165, 37.077 71.589 C 33.349 74.726, 32.957 78.522, 36.250 79.605 C 39.861 80.793, 51.429 80.247, 56.866 78.632 C 61.125 77.368, 62.047 77.352, 63.024 78.529 C 64.433 80.227, 63.481 82, 61.159 82 C 59.532 82, 53.251 88.216, 48.222 94.804 C 46.827 96.631, 44.650 98.031, 42.609 98.414 C 36.625 99.536, 33.448 105.448, 36.949 108.949 C 39.398 111.398, 42.451 111.545, 47.451 109.456 C 49.484 108.607, 51.945 108.165, 52.922 108.475 C 55.361 109.249, 56.832 112.962, 55.958 116.140 C 55.559 117.592, 55.365 122.542, 55.527 127.140 C 55.690 131.738, 55.378 137.300, 54.835 139.500 C 52.875 147.439, 54.722 152.605, 59.728 153.183 C 65.586 153.859, 83.601 150.418, 89.008 147.591 C 92.678 145.672, 95.096 145.013, 96.900 145.442 C 98.330 145.781, 102.650 146.241, 106.500 146.463 C 115.680 146.993, 136.964 150.725, 138.614 152.095 C 139.325 152.685, 142.066 153.243, 144.704 153.334 L 149.500 153.500 149.466 149 C 149.388 138.639, 148.404 134.750, 145.116 131.812 C 141.239 128.348, 138.736 128.288, 132.419 131.507 C 127.853 133.834, 115.336 136.669, 114.282 135.615 C 114.026 135.360, 114.098 134.265, 114.442 133.183 C 115.123 131.038, 119.701 128.725, 122.650 129.035 C 123.667 129.143, 126.051 129.178, 127.946 129.115 L 131.392 129 128.179 125.684 C 126.411 123.861, 125.184 122.149, 125.453 121.880 C 125.721 121.612, 126.152 119.234, 126.411 116.595 C 126.933 111.262, 130.573 105.017, 133.167 105.007 C 134.083 105.003, 135.013 104.460, 135.234 103.799 C 135.530 102.911, 136.527 103.017, 139.067 104.210 C 145.893 107.413, 152.481 106.497, 153.296 102.230 C 153.921 98.960, 153.200 97, 151.372 97 C 150.594 97, 149.495 95.988, 148.931 94.750 C 147.827 92.329, 143.786 90, 140.690 90 C 139.639 90, 136.783 87.975, 134.343 85.500 C 130.225 81.323, 129.537 81, 124.753 81 C 119.523 81, 119.037 79.525, 124 78.715 C 125.375 78.491, 127.175 78.053, 128 77.742 C 133.672 75.603, 136.823 75.152, 142.443 75.677 L 148.820 76.272 150.865 72.265 C 153.959 66.200, 152.575 65.024, 141.733 64.507 C 136.927 64.277, 131.533 63.818, 129.747 63.487 C 123.745 62.373, 122.797 62.347, 118.140 63.180 C 115.588 63.636, 110.280 64.283, 106.345 64.616 C 99.783 65.171, 99.096 65.048, 98.072 63.134 C 97.158 61.427, 97.323 60.677, 98.977 59.023 C 101.391 56.609, 101.938 56.589, 114.363 58.454 C 123.053 59.759, 124.559 59.745, 128.959 58.324 C 132.691 57.119, 134.153 56.045, 135.067 53.838 C 135.728 52.242, 136.048 50.714, 135.777 50.444 C 135.506 50.173, 133.019 49.153, 130.251 48.178 C 125.325 46.444, 118.369 46.526, 111 48.407 C 109.625 48.758, 106.588 49.321, 104.250 49.658 C 100.404 50.214, 100 50.072, 100 48.171 C 100 45.444, 101.795 44.586, 111.600 42.622 C 121.238 40.692, 126.671 40.611, 129.804 42.349 C 132.630 43.918, 141.450 42.998, 143.462 40.924 C 147.963 36.283, 143.938 32.888, 134.241 33.148 C 127.934 33.317, 126.768 32.955, 126.417 30.721 C 126.311 30.049, 125.987 28.028, 125.696 26.228 C 125.072 22.365, 121.532 19.080, 117.943 19.033 C 116.536 19.015, 113.958 20.183, 112.213 21.628 M 59.250 45.275 C 56.379 48.204, 56.405 49.772, 59.348 51.113 C 61.136 51.927, 62.859 51.788, 66.567 50.529 C 69.348 49.584, 73.779 48.984, 76.897 49.128 C 81.162 49.326, 82.591 49.005, 83.429 47.662 C 84.943 45.232, 82.676 44.036, 76.500 44.007 C 73.750 43.993, 69.250 43.757, 66.500 43.481 C 62.225 43.052, 61.174 43.312, 59.250 45.275 M 90.564 76.049 C 88.950 76.532, 85.217 76.863, 82.270 76.785 C 76.297 76.628, 72.348 79.138, 73.568 82.317 C 74.374 84.417, 75.817 84.437, 79.891 82.405 C 82.101 81.302, 85.160 80.900, 89.794 81.101 C 93.482 81.262, 100.550 81.284, 105.500 81.150 L 114.500 80.906 109 78 C 103.224 74.948, 96.595 74.247, 90.564 76.049 M 104.750 91.729 C 102.688 92.687, 101 93.742, 101 94.075 C 101 96.993, 118.861 98.077, 121.168 95.298 C 124.437 91.359, 111.569 88.561, 104.750 91.729 M 69.182 93.030 C 65.048 95.551, 65.326 98.069, 69.868 99.246 C 72.267 99.867, 74.132 99.702, 76.366 98.670 C 78.090 97.874, 80.513 96.917, 81.750 96.544 C 84.886 95.598, 84.567 94.641, 80.466 92.685 C 75.849 90.483, 73.228 90.564, 69.182 93.030 M 89.677 92.703 C 88.551 92.995, 88.072 93.746, 88.427 94.669 C 88.742 95.491, 89 96.321, 89 96.514 C 89 97.324, 97.457 95.943, 98.425 94.975 C 100.603 92.797, 94.970 91.335, 89.677 92.703 M 88 108.381 C 86.075 109.110, 83.713 109.587, 82.750 109.441 C 81.787 109.296, 81 109.767, 81 110.488 C 81 111.286, 82.274 111.829, 84.250 111.875 C 86.037 111.916, 88.398 112.116, 89.496 112.320 C 90.593 112.523, 93.565 112.142, 96.100 111.474 C 98.635 110.805, 101.337 110.606, 102.105 111.032 C 103.534 111.826, 107.746 112.295, 111.750 112.106 C 114.511 111.976, 114.807 109, 112.059 109 C 110.991 109, 109.840 108.550, 109.500 108 C 108.718 106.735, 104.310 106.690, 103.538 107.939 C 103.219 108.455, 101.955 108.625, 100.729 108.318 C 95.863 107.096, 91.334 107.119, 88 108.381 M 72.172 111.661 C 71.051 112.861, 71.389 113.036, 74.427 112.832 C 76.392 112.700, 78 112.064, 78 111.421 C 78 109.782, 73.764 109.957, 72.172 111.661 M 105.863 123.894 C 107.014 124.623, 107.014 124.842, 105.863 125.300 C 105.113 125.598, 105.737 125.878, 107.250 125.921 C 109.063 125.973, 110 125.489, 110 124.500 C 110 123.527, 109.035 123.005, 107.250 123.015 C 105.317 123.026, 104.905 123.287, 105.863 123.894 M 111.015 124.750 C 111.024 125.749, 111.351 126.071, 111.777 125.500 C 112.187 124.950, 112.931 124.162, 113.428 123.750 C 113.926 123.338, 113.583 123, 112.667 123 C 111.740 123, 111.007 123.777, 111.015 124.750 M 73.296 125.630 C 74.017 126.350, 87.115 126.219, 87.849 125.484 C 88.116 125.218, 84.808 125, 80.500 125 C 76.192 125, 72.950 125.283, 73.296 125.630 M 72.651 134.468 C 72.018 136.116, 73.492 137.432, 74.956 136.527 C 76.018 135.871, 75.239 133, 74 133 C 73.568 133, 72.960 133.661, 72.651 134.468" stroke="none" fill="black" fill-rule="evenodd"/>
</svg>