<svg xmlns="http://www.w3.org/2000/svg" width="256" height="256" viewBox="0 0 256 256" version="1.1">
	<path d="M 53.329 24.750 C 51.913 26.262, 50.345 28.651, 49.846 30.058 C 49.347 31.465, 45.690 35.473, 41.719 38.964 C 30.975 48.412, 28.829 53.234, 32.757 59.107 C 34.905 62.318, 36.936 62.103, 42.555 58.068 C 44.905 56.380, 47.538 55, 48.407 55 C 49.877 55, 56 62.329, 56 64.089 C 56 64.904, 48.631 66.261, 40.883 66.872 C 39.993 66.943, 38.023 68.878, 36.504 71.173 C 33.897 75.113, 33.790 75.712, 34.591 81.923 C 35.057 85.540, 35.480 101.298, 35.530 116.941 L 35.622 145.382 38.322 148.329 C 40.809 151.043, 41.414 151.230, 45.980 150.689 C 49.246 150.302, 52.878 148.860, 56.624 146.464 C 60.294 144.116, 63.053 143.010, 64.405 143.344 C 65.557 143.629, 68.523 144.370, 70.996 144.991 C 75.278 146.067, 75.591 145.996, 77.579 143.503 C 79.720 140.819, 80.253 138.269, 79.044 136.500 C 78.668 135.950, 77.736 133.524, 76.974 131.110 C 75.603 126.768, 71.451 123.012, 68.014 123.004 C 65.466 122.997, 55.477 128.465, 57.369 128.831 C 58.618 129.073, 58.901 129.737, 58.413 131.276 C 57.769 133.302, 54.237 136.897, 52.821 136.967 C 51.980 137.008, 49.016 134.103, 48.956 133.179 C 48.932 132.805, 48.541 130.574, 48.085 128.221 C 47.104 123.144, 49.204 119.590, 53.731 118.669 C 73.075 114.731, 75.163 113.841, 76.925 108.785 C 78.350 104.699, 78.260 101.334, 76.601 96.567 C 75.246 92.674, 75.895 88.016, 78.136 85.550 C 79.109 84.480, 79.324 70.008, 78.403 67.609 C 78.075 66.754, 75.391 64.831, 72.439 63.336 C 68.988 61.589, 67.377 60.240, 67.926 59.559 C 69.397 57.734, 68.866 52.884, 67.125 52.244 C 66.231 51.915, 65.233 51.250, 64.906 50.767 C 64.580 50.283, 61.767 49.625, 58.656 49.304 C 55.545 48.983, 53.014 48.446, 53.032 48.110 C 53.089 47.011, 55.439 44.499, 58.914 41.822 C 64.211 37.742, 67.420 40.007, 69.438 49.250 C 69.972 51.698, 70.482 52, 74.085 52 C 79.446 52, 81.613 50.702, 82.934 46.700 C 83.770 44.167, 83.709 42.453, 82.676 39.442 C 81.532 36.107, 80.287 34.930, 74.599 31.799 C 70.901 29.763, 66.313 26.726, 64.403 25.049 C 60.077 21.251, 56.692 21.159, 53.329 24.750 M 115.277 25.973 C 113.504 27.054, 111.782 29.022, 111.449 30.347 C 110.435 34.386, 97.534 45.844, 90.392 49.049 C 86.280 50.893, 84 52.504, 84 53.565 C 84 54.472, 85.346 58.035, 86.992 61.482 C 89.236 66.186, 90.758 68.071, 93.087 69.036 C 94.795 69.743, 98.022 72.275, 100.259 74.661 C 103.603 78.229, 104.967 79, 107.940 79 C 115.173 79, 117.554 83.453, 113.572 89.531 C 111.927 92.041, 111.604 92.117, 105.420 91.455 C 98.784 90.744, 94.339 91.764, 90.750 94.820 C 88.640 96.617, 88.474 100.899, 90.412 103.549 C 91.993 105.711, 97.365 106.073, 107 104.667 C 113.986 103.648, 116.335 105.107, 116.618 110.640 C 117.213 122.254, 116.978 137.884, 116.170 140.500 C 115.660 142.150, 114.443 144.875, 113.464 146.556 C 109.867 152.738, 114.368 157.773, 121.737 155.811 C 127.247 154.344, 127.849 151.826, 128.055 129.423 C 128.156 118.465, 128.140 108.442, 128.020 107.150 C 127.652 103.203, 129.376 102.569, 140.607 102.520 C 149.864 102.480, 151.356 102.234, 152.590 100.546 C 157.084 94.400, 150.720 90, 137.335 90 L 129.968 90 128.342 86.591 C 126.271 82.248, 126.899 80.739, 132.201 77.326 C 134.565 75.803, 137.850 73.135, 139.500 71.396 C 141.398 69.396, 143.926 67.982, 146.383 67.547 C 151.928 66.565, 160 58.242, 160 53.506 C 160 49.429, 155.191 44.972, 148.694 43.029 C 146.387 42.339, 143.375 40.996, 142 40.045 C 140.625 39.093, 137.147 37.053, 134.270 35.510 C 131.394 33.967, 128.788 31.908, 128.479 30.935 C 128.170 29.961, 127.003 28.003, 125.886 26.582 C 123.418 23.444, 119.768 23.234, 115.277 25.973 M 117.500 43.060 C 115.850 43.544, 113.493 44.966, 112.262 46.220 C 111.031 47.474, 107.779 50.703, 105.033 53.396 C 99.534 58.790, 98.409 61.027, 99.846 63.712 C 100.884 65.654, 106.617 65.857, 114.500 64.233 C 116.839 63.751, 120.368 63.827, 123 64.415 C 130.585 66.111, 139.038 65.668, 140.630 63.491 C 143.060 60.169, 142.271 56.307, 138.250 51.839 C 130.166 42.857, 125.265 40.783, 117.500 43.060 M 56 76.355 C 50.586 78.126, 46.197 81.134, 46.450 82.900 C 46.808 85.407, 51.039 87.094, 55.276 86.418 C 57.353 86.086, 59.685 85.722, 60.458 85.609 C 61.232 85.496, 63.255 84.250, 64.955 82.842 C 68.611 79.813, 68.229 77.624, 63.771 76.070 C 60.273 74.851, 60.639 74.837, 56 76.355 M 53.674 99.221 C 45.897 101.282, 48.074 106.065, 56.565 105.575 C 64.059 105.143, 66.694 102.837, 63.429 99.571 C 61.671 97.814, 59.304 97.729, 53.674 99.221 M 141.242 114.043 C 138.353 115.192, 136.561 119.116, 137.400 122.457 C 137.760 123.890, 140.339 127.411, 143.132 130.281 C 145.925 133.152, 148.905 136.536, 149.754 137.801 C 150.602 139.067, 152.476 140.712, 153.917 141.457 C 158.061 143.600, 160.334 141.336, 160.427 134.975 C 160.467 132.200, 160.007 129.607, 159.404 129.215 C 158.801 128.822, 158.025 127.340, 157.678 125.922 C 157.332 124.504, 155.912 122.119, 154.524 120.621 C 153.136 119.123, 152 117.546, 152 117.117 C 152 115.017, 144.316 112.821, 141.242 114.043 M 96.045 117.836 C 88.951 125.001, 85.815 133.215, 88.970 136.370 C 89.472 136.872, 92.067 137.492, 94.737 137.749 C 98.926 138.151, 100.030 137.846, 102.795 135.519 C 104.558 134.036, 106 132.210, 106 131.461 C 106 130.712, 106.694 129.711, 107.542 129.237 C 111.080 127.256, 105.678 114, 101.333 114 C 100.513 114, 98.134 115.726, 96.045 117.836" stroke="none" fill="black" fill-rule="evenodd"/>
</svg>