<svg xmlns="http://www.w3.org/2000/svg" width="256" height="256" viewBox="0 0 256 256" version="1.1">
	<path d="M 69 29.051 C 66.525 29.491, 62.222 29.885, 59.439 29.926 C 55.809 29.979, 53.761 30.574, 52.199 32.029 C 46.895 36.971, 45.093 44.893, 46.989 54.940 C 48.096 60.811, 48.050 62.334, 46.632 66.604 C 45.510 69.982, 45.261 72.449, 45.836 74.507 C 46.812 78.003, 45.654 83.212, 43.504 84.997 C 42.677 85.683, 42 87.343, 42 88.685 C 42 90.713, 43.055 91.598, 48.250 93.924 C 53.426 96.242, 55.531 96.653, 60.500 96.318 C 68.344 95.788, 69.606 96.633, 68.044 101.366 C 66.182 107.009, 63.319 108.574, 52.285 109.982 C 41.359 111.375, 38 112.888, 38 116.416 C 38 119.363, 39.603 120, 47.017 120 C 59.871 120, 61.215 123.390, 51.859 132.211 C 48.481 135.395, 45.393 138, 44.995 138 C 44.597 138, 43.050 139.763, 41.557 141.918 C 39.350 145.102, 39.044 146.213, 39.920 147.850 C 42 151.736, 45.903 151.503, 55.236 146.934 C 58.657 145.259, 60.252 143.766, 60.983 141.558 C 62.669 136.455, 68.673 132.506, 74.168 132.885 C 76.313 133.033, 80 138.978, 80 142.288 C 80 144.451, 79.262 145.084, 75.153 146.449 C 69.328 148.384, 67.049 151.618, 68.802 155.464 C 71.035 160.367, 78.954 159.706, 88.187 153.847 C 91.967 151.448, 94.727 150.656, 102.454 149.752 C 113.014 148.516, 120.078 149.575, 125.184 153.158 C 129.873 156.449, 136.268 158.194, 144.214 158.349 C 150.810 158.478, 152.231 158.199, 154.014 156.422 C 156.029 154.416, 156.038 154.276, 154.300 152.326 C 153.310 151.215, 150.475 149.751, 148 149.073 C 145.525 148.395, 141.250 146.930, 138.500 145.818 C 135.750 144.706, 131.618 143.362, 129.317 142.832 C 127.017 142.301, 124.639 141.269, 124.033 140.539 C 122.555 138.759, 122.424 129.692, 123.869 129.210 C 124.491 129.003, 125 128.380, 125 127.827 C 125 126.512, 120.863 123.076, 119.228 123.033 C 118.529 123.015, 115.449 125.508, 112.384 128.573 C 107.717 133.240, 105.935 134.329, 101.415 135.277 C 95.503 136.517, 90.726 135.450, 86.115 131.858 C 84.803 130.836, 83.136 130, 82.411 130 C 80.973 130, 76 125.415, 76 124.089 C 76 123.639, 76.844 122.197, 77.876 120.885 L 79.752 118.500 111.126 118.819 C 128.382 118.994, 144.412 119.207, 146.749 119.292 C 152.419 119.499, 155.678 116.583, 153.970 112.833 C 152.501 109.609, 148.654 107.403, 143 106.540 C 140.525 106.163, 137.705 105.629, 136.733 105.354 C 134.229 104.646, 130.824 97.471, 131.192 93.676 C 131.522 90.273, 132.381 89.668, 144.282 84.448 C 147.462 83.053, 149.827 81.529, 149.538 81.061 C 149.248 80.593, 149.714 79.940, 150.573 79.610 C 153.371 78.537, 151.893 73.932, 148.100 71.906 C 144.187 69.817, 142.770 70.286, 137.056 75.561 C 129.458 82.577, 129.239 82.690, 122.091 83.289 C 118.273 83.609, 113.789 84.575, 112.125 85.436 C 107.827 87.658, 101.484 87.400, 96.886 84.816 C 92.702 82.464, 91.957 80.165, 94.750 78.228 C 105.275 70.928, 105.352 70.900, 110.603 72.493 C 117.597 74.614, 121.883 74.358, 127.894 71.459 C 130.791 70.061, 135.938 68.220, 139.331 67.368 C 150.429 64.581, 152.326 61.975, 146.928 56.933 C 140.603 51.024, 134.128 51.954, 120.714 60.698 C 109.407 68.068, 106.739 68.759, 98.267 66.511 C 88.935 64.035, 88.712 63.785, 89.531 56.731 C 90.174 51.193, 90.046 50.657, 87.421 47.917 C 85.871 46.300, 83.569 45, 82.254 45 C 79.096 45, 80.257 43.337, 84.716 41.474 C 89.193 39.604, 90.927 37.366, 90.968 33.411 C 90.992 31.054, 90.396 30.046, 88.453 29.161 C 85.626 27.873, 75.929 27.818, 69 29.051 M 125.413 36.581 C 121.743 38.460, 117.033 40.509, 114.944 41.135 C 110.334 42.516, 105 47.176, 105 49.821 C 105 54.969, 112.589 55.899, 121.025 51.785 C 124.036 50.316, 127.799 48.883, 129.386 48.599 C 133.528 47.859, 139.932 43.120, 140.648 40.267 C 141.385 37.330, 139.642 35.331, 135.245 34.070 C 132.575 33.305, 131.050 33.694, 125.413 36.581 M 61.411 42.144 C 60.410 43.764, 60.690 49.090, 61.836 50.236 C 63.550 51.950, 66.569 50.080, 67.863 46.502 C 68.557 44.582, 68.846 42.559, 68.504 42.006 C 67.652 40.628, 62.283 40.733, 61.411 42.144 M 61 60.531 C 61 61.339, 61.675 62, 62.500 62 C 63.325 62, 64 61.598, 64 61.107 C 64 60.616, 63.325 59.955, 62.500 59.638 C 61.586 59.288, 61 59.637, 61 60.531 M 63.252 76.710 C 60.176 77.297, 59.202 81.460, 61.536 84.040 C 63.700 86.431, 65.681 86.494, 71.230 84.350 C 76.855 82.176, 77.425 81.568, 75.573 79.716 C 74.407 78.549, 74.328 78.035, 75.259 77.659 C 75.942 77.384, 74.624 77.122, 72.332 77.079 C 70.039 77.036, 67.564 76.838, 66.832 76.640 C 66.099 76.443, 64.488 76.474, 63.252 76.710 M 79.463 97.060 C 78.416 98.754, 80.965 103.745, 83.851 105.656 C 85.964 107.055, 89.132 107.469, 99.500 107.704 C 114.026 108.032, 118.296 107.076, 117.801 103.608 C 117.175 99.224, 105.077 96, 89.249 96 C 83.894 96, 79.847 96.438, 79.463 97.060" stroke="none" fill="black" fill-rule="evenodd"/>
</svg>