<svg xmlns="http://www.w3.org/2000/svg" width="256" height="256" viewBox="0 0 256 256" version="1.1">
	<path d="M 102.871 25.250 C 100.196 27.463, 97.580 32.360, 98.847 32.782 C 100.471 33.324, 100.283 37.520, 98.570 38.941 C 97.784 39.594, 94.853 40.298, 92.056 40.507 C 82.920 41.187, 78.279 47.021, 82.468 52.559 C 83.389 53.777, 83.960 56.922, 84.001 61 C 84.036 64.575, 84.503 70.650, 85.038 74.500 C 85.573 78.350, 86.420 84.865, 86.921 88.979 C 87.707 95.446, 88.214 96.761, 90.665 98.702 C 97.298 103.953, 97.173 103.715, 96.509 109.814 C 95.794 116.386, 92.132 129, 90.939 129 C 90.493 129, 89.116 130.800, 87.880 133 C 86.627 135.229, 84.875 137, 83.923 137 C 81.839 137, 81.160 138.631, 80.452 145.335 C 79.860 150.930, 80.417 152.393, 83.503 153.354 C 86.901 154.412, 91.316 150.764, 94.949 143.897 C 96.810 140.379, 98.648 137.275, 99.032 137 C 101.531 135.213, 108 118.185, 108 113.395 C 108 110.063, 111.283 104.957, 112.589 106.258 C 113.007 106.675, 113.175 111.850, 112.962 117.758 C 112.749 123.666, 112.598 132.509, 112.626 137.409 L 112.678 146.317 116.324 149.659 C 118.330 151.496, 120.990 153.003, 122.235 153.008 C 123.481 153.012, 127.425 153.908, 131 155 C 138.434 157.270, 141.691 157.436, 149.174 155.924 C 159.409 153.857, 162.019 152.901, 163.470 150.686 C 165.464 147.644, 164.520 145.013, 160.264 141.750 C 156.273 138.689, 153.713 138.378, 150 140.500 C 148.567 141.319, 144.727 141.947, 141 141.971 C 137.425 141.994, 133.286 142.646, 131.803 143.420 C 129.325 144.712, 128.897 144.634, 126.553 142.461 C 125.149 141.160, 124 139.339, 124 138.414 C 124 135.599, 126.258 129, 127.221 129 C 128.224 129, 127.892 124.798, 126.825 123.987 C 126.454 123.706, 125.888 118.734, 125.568 112.939 C 124.797 99.010, 125.335 98.161, 133.798 99.957 C 141.608 101.615, 144.008 100.923, 146.650 96.252 C 148.774 92.496, 150.650 82.847, 150.198 78 C 150.069 76.625, 150.703 72.285, 151.607 68.356 C 152.802 63.156, 152.998 60.163, 152.329 57.356 C 151.757 54.960, 151.774 51.889, 152.374 49.245 C 153.239 45.433, 153.095 44.730, 150.994 42.493 C 146.821 38.051, 137.279 36.848, 124.238 39.119 C 115.518 40.638, 113 39.371, 113 33.466 C 113 26.262, 107.268 21.613, 102.871 25.250 M 40.750 47.712 C 39.237 48.675, 38 50.043, 38 50.751 C 38 53.490, 42.926 59.765, 45.605 60.437 C 47.110 60.815, 49.451 61.996, 50.806 63.062 C 52.250 64.198, 54.824 65, 57.024 65 C 60.525 65, 60.822 64.764, 61.437 61.483 C 61.800 59.549, 61.836 57.544, 61.517 57.027 C 61.198 56.511, 63.378 54.934, 66.361 53.522 C 70.718 51.461, 71.758 50.507, 71.644 48.676 C 71.463 45.773, 67.937 45.334, 63.910 47.712 C 61.369 49.213, 60.508 49.260, 56.761 48.102 C 49.611 45.892, 43.830 45.751, 40.750 47.712 M 97.630 52.281 C 95.038 54.177, 95.350 59.011, 98.376 63.804 C 100.631 67.376, 101.451 67.957, 103.665 67.556 C 107.473 66.865, 110.641 63.440, 111.883 58.671 C 112.860 54.920, 112.758 54.324, 110.874 52.750 C 108.373 50.661, 100.240 50.373, 97.630 52.281 M 124.207 52.119 C 122.904 52.601, 122 53.784, 122 55.008 C 122 57.384, 125.720 65.139, 127.384 66.233 C 128.848 67.196, 134.930 66.132, 137.634 64.441 C 142.129 61.629, 142.395 54.352, 138.086 52.046 C 135.812 50.829, 127.578 50.872, 124.207 52.119 M 101.370 73.795 C 99.508 74.987, 96.331 82.386, 96.791 84.458 C 97.780 88.904, 100.105 91, 104.047 91 C 107.119 91, 108.268 90.433, 109.932 88.096 C 111.069 86.498, 111.967 84.586, 111.927 83.846 C 111.692 79.527, 103.942 72.149, 101.370 73.795 M 69.787 74.547 C 69.326 75.007, 54.026 75.687, 39.396 75.898 C 33.322 75.985, 31.908 76.355, 29.646 78.452 C 28.191 79.801, 27 81.358, 27 81.913 C 27 83.946, 31.463 86.993, 36.650 88.501 C 40.853 89.723, 42.105 90.570, 42.595 92.524 C 43.328 95.441, 41.067 101.567, 37.111 107.389 C 32.153 114.684, 30.537 122.541, 33.491 124.992 C 34.311 125.673, 38.178 126.580, 42.085 127.009 C 45.992 127.438, 49.687 128.287, 50.295 128.895 C 50.903 129.503, 52.228 130, 53.240 130 C 55.301 130, 62.652 126.510, 65.087 124.376 C 67.318 122.420, 72.760 123.704, 74.683 126.639 C 75.626 128.079, 77.206 129, 78.731 129 L 81.233 129 80.800 119.250 C 80.118 103.864, 75.152 94.278, 68.500 95.506 C 63.691 96.394, 62.075 96.218, 60.490 94.633 C 58.287 92.430, 58.654 90.706, 62.008 87.492 C 64.389 85.211, 65.811 84.657, 68.826 84.835 C 73.823 85.130, 76.516 82.486, 75.076 78.701 C 74.130 76.212, 70.764 73.569, 69.787 74.547 M 125.766 77.228 C 122.111 80.002, 121.840 86.982, 125.300 89.220 C 127.065 90.362, 135.223 88.998, 137.250 87.223 C 139.285 85.440, 139.556 81.679, 137.750 80.268 C 137.063 79.730, 135.150 78.821, 133.500 78.247 C 131.850 77.674, 129.812 76.924, 128.971 76.580 C 128.131 76.237, 126.688 76.528, 125.766 77.228 M 55.728 101.450 C 49.351 111.520, 49.863 114.730, 58.157 116.667 C 67.691 118.894, 68.833 117.982, 65.322 110.944 C 64.399 109.094, 63.612 105.203, 63.572 102.296 C 63.504 97.337, 63.346 97.014, 61 97.043 C 59.152 97.065, 57.777 98.215, 55.728 101.450 M 135.972 116.750 C 135.163 117.713, 133.947 119.737, 133.271 121.250 C 132.596 122.763, 131.681 124, 131.240 124 C 130.798 124, 130.361 125.013, 130.269 126.250 C 130.057 129.113, 135.441 132, 140.994 132 C 145.088 132, 150 133.724, 150 135.161 C 150 136.809, 152.689 135.959, 154.892 133.614 C 156.693 131.698, 157.005 130.542, 156.478 127.736 C 155.787 124.051, 153.872 122.580, 148.362 121.503 C 146.636 121.166, 143.936 119.577, 142.362 117.973 C 139.022 114.568, 137.976 114.368, 135.972 116.750" stroke="none" fill="black" fill-rule="evenodd"/>
</svg>