<svg xmlns="http://www.w3.org/2000/svg" width="256" height="256" viewBox="0 0 256 256" version="1.1">
	<path d="M 57.946 25.250 C 56.833 27.038, 55.652 29.773, 55.321 31.328 C 54.575 34.832, 51.762 36, 44.070 36 C 39.712 36, 37.613 36.517, 35.629 38.078 C 29.522 42.881, 29.884 46.970, 36.682 49.977 L 41.241 51.994 40.794 58.172 C 40.434 63.153, 39.910 64.655, 38.093 65.925 C 36.853 66.791, 34.413 68.741, 32.669 70.257 L 29.500 73.013 31.987 75.109 C 34.158 76.938, 35.238 77.116, 40.487 76.508 C 47.824 75.657, 65.991 74.448, 83.914 73.617 C 89.675 73.350, 91.625 72.866, 92.664 71.445 C 94.866 68.433, 94.225 66.669, 89.591 62.995 C 84.522 58.977, 82 55.242, 82 51.754 C 82 49.800, 82.750 49.092, 85.786 48.182 C 90.340 46.818, 94 43.625, 94 41.017 C 94 39.969, 92.955 37.897, 91.679 36.413 C 89.622 34.022, 88.681 33.724, 83.429 33.796 C 73.820 33.928, 72.453 33.381, 69.015 28.023 C 64.458 20.921, 61.157 20.094, 57.946 25.250 M 104.050 24.907 C 103.489 25.955, 102.810 34.433, 102.541 43.747 C 101.921 65.262, 101.748 64.972, 115.289 65.060 C 131.522 65.165, 137.300 66.945, 134.736 71.051 C 133.545 72.958, 126.908 74.024, 113.732 74.424 C 106.777 74.635, 105.663 74.949, 103.081 77.422 C 100.483 79.911, 100.131 81.043, 99.521 88.842 C 98.467 102.326, 98.537 113.241, 99.779 129.294 C 101.077 146.071, 101.417 146.840, 110.326 153.096 C 116.785 157.632, 125.775 159.507, 137.287 158.718 C 143.970 158.260, 146.634 157.517, 152.921 154.362 C 157.090 152.271, 160.831 150.096, 161.235 149.530 C 163.089 146.930, 161.318 141.421, 157.263 137.179 C 156.568 136.452, 156 135.016, 156 133.988 C 156 132.959, 155.526 131.825, 154.947 131.467 C 154.368 131.110, 154.075 130.295, 154.296 129.658 C 155.070 127.421, 149.717 125.013, 144 125.026 C 136.248 125.044, 119.204 127.586, 117.533 128.973 C 115.600 130.577, 112.549 125.995, 113.518 122.943 C 114.152 120.946, 114.652 120.836, 120.351 121.429 C 123.852 121.794, 128.653 121.583, 131.500 120.939 C 134.250 120.317, 138.975 119.513, 142 119.154 C 149.569 118.254, 151.360 117.078, 150.122 113.821 C 148.881 110.558, 147.775 110.179, 137.226 109.406 C 130.144 108.886, 127.742 109.092, 124.498 110.493 C 118.547 113.066, 113.150 113.555, 112.396 111.591 C 111.479 109.200, 112.832 105, 114.519 105 C 115.334 105, 116 104.460, 116 103.800 C 116 102.867, 116.267 102.867, 117.200 103.800 C 119.039 105.639, 126.379 105.231, 133.281 102.905 C 139.355 100.859, 141.370 99.408, 140.375 97.798 C 140.104 97.359, 141.146 96.975, 142.691 96.945 C 144.330 96.913, 142.375 96.064, 138 94.908 C 132.656 93.496, 128.056 93.008, 122 93.213 C 113.916 93.486, 113.485 93.393, 113.189 91.313 C 112.827 88.775, 116.679 85.773, 120.234 85.822 C 121.481 85.839, 124.823 85.912, 127.662 85.984 C 131.738 86.088, 133.976 85.466, 138.294 83.029 C 141.302 81.332, 144.604 78.781, 145.631 77.361 C 146.659 75.940, 147.950 74.266, 148.500 73.639 C 150.120 71.794, 152.042 65.496, 152.191 61.548 C 152.419 55.480, 150.056 54.044, 137.910 52.868 C 130.147 52.116, 126.174 52.171, 122.285 53.081 C 116.354 54.470, 113.821 53.402, 114.737 49.899 C 115.737 46.075, 118.849 45.261, 135 44.600 C 147.775 44.076, 150.939 43.643, 153 42.134 C 156.512 39.561, 156.690 35.995, 153.457 32.967 C 151.153 30.808, 149.992 30.521, 144.162 30.666 C 140.498 30.757, 133.504 31.544, 128.619 32.416 C 119.003 34.131, 116.311 34.356, 117.307 33.360 C 117.921 32.746, 112.648 25.285, 110.526 23.765 C 108.591 22.380, 105.070 23, 104.050 24.907 M 58.283 44.656 C 54.651 46.419, 53.787 48.368, 53.546 55.339 C 53.410 59.278, 53.769 60.445, 55.439 61.482 C 62.325 65.759, 66.932 62.972, 68.413 53.633 C 68.750 51.507, 69.243 49.416, 69.508 48.987 C 70.288 47.725, 66.708 44.258, 64 43.653 C 62.625 43.345, 60.052 43.797, 58.283 44.656 M 72.793 81.540 C 72.438 81.896, 66.075 82.564, 58.654 83.026 C 41.132 84.116, 36.492 86.435, 37.075 93.813 C 37.191 95.291, 37.035 97.175, 36.727 98 C 36.420 98.825, 35.909 107.671, 35.593 117.658 C 35.277 127.645, 34.520 138.140, 33.911 140.979 C 31.847 150.604, 34.780 156.424, 40.403 153.862 C 42.404 152.951, 43.037 151.770, 43.489 148.108 C 44.716 138.167, 47.264 135.334, 53.362 137.126 C 56.611 138.081, 62.132 137.594, 67.734 135.858 C 74.705 133.697, 76.407 136.515, 73.422 145.274 C 72.079 149.215, 72.044 150.320, 73.182 152.702 C 76.164 158.944, 83.958 155.393, 86.505 146.631 C 88.461 139.902, 89.515 101.899, 87.955 94.325 C 87.075 90.050, 86.143 88.539, 82.596 85.632 C 78.303 82.114, 74.011 80.323, 72.793 81.540 M 55.767 96.359 C 48.448 97.816, 46.173 99.890, 47.852 103.575 C 49.004 106.104, 49.302 106.193, 54.457 105.549 C 59.769 104.885, 65.265 106.451, 66.160 108.884 C 66.496 109.799, 69.065 110.338, 72.034 110.115 C 73.876 109.977, 77.059 101.943, 76.349 99.226 C 75.998 97.885, 74.343 96.961, 70.847 96.154 C 65.011 94.807, 63.460 94.828, 55.767 96.359 M 65.427 114.716 C 63.889 116.254, 60.988 116.748, 52.317 116.949 C 49.828 117.007, 48.521 119.916, 49.541 123.129 C 50.162 125.085, 50.674 125.201, 55.858 124.568 C 58.961 124.189, 63.616 123.927, 66.203 123.986 C 71.792 124.115, 75.574 121.266, 74.606 117.658 C 74.288 116.471, 74.021 114.938, 74.014 114.250 C 73.993 112.359, 67.428 112.715, 65.427 114.716 M 132 137.135 C 129.525 137.517, 125.130 137.580, 122.233 137.275 C 116.237 136.644, 113 138.530, 113 142.655 C 113 144.852, 113.375 145, 118.941 145 C 122.287 145, 125.188 144.505, 125.582 143.867 C 126.065 143.086, 128.955 142.924, 134.891 143.346 C 141.351 143.804, 143.941 143.620, 145.267 142.605 C 150.121 138.895, 142.077 135.578, 132 137.135" stroke="none" fill="black" fill-rule="evenodd"/>
</svg>