<svg xmlns="http://www.w3.org/2000/svg" width="200" height="200" viewBox="0 0 200 200" version="1.1">
	<path d="M 119 14.027 C 119 14.592, 121.681 19.655, 124.957 25.277 C 128.233 30.900, 131.894 37.864, 133.091 40.752 L 135.269 46.005 132.667 49.752 C 131.236 51.814, 127.481 56.610, 124.323 60.411 L 118.581 67.322 117.707 63.951 C 117.183 61.927, 117.267 56.144, 117.917 49.487 C 119.920 28.970, 118.971 24.637, 111.612 20.700 C 107.882 18.704, 106.108 18.506, 92.500 18.560 C 83.808 18.595, 72.664 19.341, 66 20.333 C 59.675 21.276, 53.019 22.204, 51.210 22.397 C 45.234 23.033, 45.646 25.722, 51.736 25.832 C 55.549 25.900, 77.268 30.047, 84.370 32.062 C 86.567 32.685, 87.863 33.537, 87.369 34.031 C 86.563 34.837, 62.337 36.968, 53.719 36.990 C 51.240 36.997, 49.733 37.532, 49.345 38.543 C 49.019 39.392, 48.951 40.284, 49.193 40.526 C 49.435 40.768, 54.328 41.453, 60.067 42.048 C 76.276 43.728, 76.698 44.043, 65.337 45.995 C 50.907 48.475, 41.786 50.844, 38.146 53.057 C 30.358 57.794, 36.517 60.306, 61.476 62.574 L 68.451 63.208 60.476 66.442 C 40.463 74.558, 29.755 82.501, 31.484 87.949 C 31.841 89.074, 33.228 90.270, 34.567 90.606 C 37.930 91.450, 37.610 92.707, 33.819 93.540 C 30.881 94.185, 21 102.967, 21 104.932 C 21 105.372, 24.038 105.949, 27.750 106.216 C 36.716 106.860, 43.743 110.292, 53.411 118.751 C 57.653 122.463, 64.134 128.114, 67.812 131.310 C 71.490 134.505, 77.417 138.555, 80.982 140.310 C 87.175 143.357, 87.980 143.497, 98.982 143.425 C 106.729 143.374, 111.809 142.850, 114.500 141.823 C 118.322 140.365, 118.875 140.424, 126.956 143.155 C 131.607 144.727, 135.823 146.423, 136.325 146.925 C 136.875 147.475, 125.766 147.969, 108.369 148.169 C 81.376 148.478, 79.240 148.636, 75.500 150.592 C 70.876 153.010, 70.098 155.519, 72.308 160.891 C 73.125 162.876, 74.294 166.370, 74.908 168.655 C 77.376 177.847, 88.888 186.473, 102.133 189.053 C 108.026 190.201, 130.229 190.483, 137.748 189.505 C 158.271 186.837, 181 182.548, 181 181.344 C 181 174.901, 164.143 171.077, 135.026 170.912 C 126.487 170.864, 117.250 170.507, 114.500 170.119 L 109.500 169.414 122.697 166.212 C 133.670 163.549, 136.367 163.201, 138.697 164.148 C 140.239 164.774, 145.325 165.318, 150 165.359 C 156.911 165.418, 159.279 165.022, 162.666 163.238 C 175.774 156.338, 175.686 136.816, 162.495 125.204 L 157.906 121.165 161.918 115.864 C 166.533 109.766, 170.150 100.689, 172.698 88.805 C 175.202 77.124, 175.192 51.481, 172.678 40.746 C 170.386 30.962, 164.979 20.067, 160.434 16.076 C 156.469 12.595, 155.469 12.335, 154.614 14.564 C 154.284 15.423, 152.179 19.269, 149.936 23.109 L 145.859 30.091 143.057 25.918 C 139.656 20.854, 133.393 16.491, 126.652 14.489 C 120.743 12.734, 119 12.629, 119 14.027 M 126.593 22.393 C 128.543 25.752, 131.742 31.781, 133.701 35.792 L 137.262 43.084 140.719 37.951 L 144.176 32.818 141.302 28.159 C 138.375 23.414, 130.467 17.705, 125.507 16.757 C 123.050 16.287, 123.052 16.298, 126.593 22.393 M 151.775 25.157 C 147.108 33.163, 147.065 33.319, 148.230 37.881 C 149.013 40.948, 149.268 48.718, 148.988 61 C 148.015 103.595, 148.371 107.650, 153.712 114.799 C 155.801 117.595, 156.413 117.902, 157.724 116.814 C 161.721 113.497, 166.766 102.399, 169.686 90.500 C 170.985 85.210, 171.415 78.982, 171.449 65 C 171.498 45.039, 170.556 39.276, 165.401 28 C 163.136 23.045, 158.512 16.959, 157.063 17.026 C 156.753 17.041, 154.374 20.700, 151.775 25.157 M 73.500 22.071 C 60.707 23.731, 60.639 24.032, 72.500 26.508 C 86.334 29.395, 92 31.593, 92 34.070 C 92 36.599, 87.193 37.765, 73 38.677 C 62.065 39.380, 61.770 39.455, 67 40.204 C 70.025 40.637, 77.081 41.120, 82.681 41.278 C 91.078 41.515, 93.236 41.904, 94.996 43.497 C 97.574 45.829, 103.551 58.137, 104.469 63 C 105.362 67.735, 108.250 76, 109.010 76 C 109.349 76, 110.778 74.762, 112.187 73.250 C 114.708 70.544, 114.759 70.178, 115.406 50.262 C 116.133 27.904, 115.713 25.653, 110.325 22.997 C 106.887 21.303, 83.880 20.724, 73.500 22.071 M 141.603 41.596 L 138.743 46.116 140.825 53.308 C 143.609 62.926, 144.970 70.995, 145.145 78.934 C 145.246 83.510, 145.565 81.560, 146.197 72.500 C 147.176 58.472, 146.732 41.131, 145.331 38.626 C 144.637 37.387, 143.888 37.983, 141.603 41.596 M 90 45.378 C 90 46.135, 90.713 47.347, 91.584 48.070 C 92.456 48.793, 94.524 51.355, 96.181 53.763 C 99.623 58.766, 100.971 58.813, 98.456 53.843 C 94.758 46.537, 90 41.773, 90 45.378 M 69.560 48.028 C 50.991 51.154, 37.541 54.875, 39.116 56.449 C 40.327 57.660, 51.863 59.171, 64.848 59.819 C 82.033 60.676, 82.621 61.858, 68.211 66.573 C 51.818 71.937, 34 82.300, 34 86.471 C 34 90.856, 46.745 89.394, 68.722 82.487 L 79.943 78.960 86.164 81.055 C 96.279 84.463, 101.624 82.225, 102.710 74.129 C 103.334 69.473, 101.194 65.202, 92.249 53.250 C 85.973 44.864, 86.980 45.096, 69.560 48.028 M 135 50.828 C 135 51.284, 131.400 56.003, 127 61.316 C 122.600 66.629, 119 71.861, 119 72.942 C 119 74.024, 120.080 77.886, 121.401 81.524 C 123.043 86.047, 123.438 88.244, 122.651 88.472 C 122.018 88.655, 119.322 89.368, 116.659 90.058 C 113.967 90.754, 111.581 92.019, 111.285 92.905 C 109.384 98.591, 105.882 104.964, 103.167 107.679 C 99.393 111.453, 99.322 112.014, 102.264 114.778 C 107.479 119.677, 117.586 121.456, 124.282 118.653 C 136.705 113.452, 145.001 87.248, 140.988 65.886 C 139.415 57.514, 137.043 50, 135.972 50 C 135.437 50, 135 50.373, 135 50.828 M 112.713 76.569 C 110.147 78.778, 109.978 79.356, 110.580 83.891 L 111.233 88.815 114.367 87.819 C 116.090 87.272, 118.023 86.668, 118.662 86.477 C 119.502 86.226, 119.350 84.598, 118.112 80.599 C 117.171 77.557, 116.198 74.866, 115.951 74.619 C 115.703 74.372, 114.246 75.249, 112.713 76.569 M 104.731 77.920 C 104.296 79.583, 104.426 79.974, 105.168 79.232 C 105.750 78.650, 106.028 77.585, 105.788 76.863 C 105.538 76.114, 105.085 76.568, 104.731 77.920 M 66.500 86.047 C 59.900 88.151, 51.800 90.230, 48.500 90.668 L 42.500 91.464 49 92.115 C 67.696 93.988, 79.986 92.817, 90 88.208 L 95.500 85.677 90.429 84.970 C 87.640 84.580, 84.407 83.753, 83.245 83.131 C 80.430 81.625, 80.310 81.645, 66.500 86.047 M 103.003 84.144 C 99.771 86.832, 90.970 91.217, 84 93.611 C 79.185 95.265, 75.908 95.469, 57.701 95.250 C 35.524 94.983, 33.717 95.292, 28.248 100.294 L 25.995 102.353 33.148 104.170 C 42.040 106.428, 46.400 108.967, 56.300 117.655 C 80.168 138.600, 82.789 140.138, 95.778 140.819 C 101.712 141.131, 106.597 140.734, 111.987 139.503 C 119.365 137.818, 119.940 137.818, 125.102 139.514 C 138.742 143.996, 143.472 147.282, 139.750 149.691 C 139.063 150.136, 126.350 150.525, 111.500 150.555 C 84.551 150.611, 78.848 151.197, 74.525 154.358 C 72.767 155.644, 72.736 155.950, 74.141 158.129 C 74.983 159.433, 76.218 162.702, 76.886 165.393 C 80.249 178.938, 91.884 186.026, 113.221 187.528 C 118.325 187.888, 127.225 187.704, 133 187.119 C 146.905 185.713, 177 180.780, 177 179.907 C 177 178.574, 169.267 176.144, 161.659 175.085 C 157.432 174.497, 142.949 173.716, 129.476 173.348 C 111.544 172.859, 104.696 172.339, 103.923 171.407 C 102.144 169.264, 106.514 167.331, 121.350 163.697 C 134.836 160.394, 135.333 160.345, 141.340 161.752 C 148.817 163.503, 157.768 162.891, 162.244 160.322 C 165.833 158.263, 170 151.089, 170 146.970 C 170 141.132, 166.853 133.757, 162.273 128.860 C 152.701 118.628, 139.485 118.854, 125.575 129.489 L 120.649 133.254 107.075 130.474 C 79.427 124.812, 76.367 122.069, 89.276 114.518 L 95.726 110.745 95.308 106.622 C 94.781 101.415, 97.302 97.156, 103.496 92.790 C 107.490 89.974, 108 89.184, 108 85.807 C 108 81.450, 106.744 81.032, 103.003 84.144 M 144.133 88.145 C 143.944 91.912, 140.180 103.701, 137.475 109 C 130.997 121.693, 118.165 126.375, 106.200 120.412 C 103.344 118.989, 100.148 116.733, 99.099 115.398 L 97.190 112.972 91.095 116.603 C 87.743 118.600, 85 120.559, 85 120.956 C 85 122.268, 89.604 123.811, 101.126 126.362 C 120.715 130.699, 118.897 130.742, 126.151 125.776 C 133.862 120.496, 139.733 118.693, 147.704 119.155 L 153.657 119.500 150.884 115.676 C 147.823 111.457, 146.283 105.583, 145.070 93.500 C 144.628 89.100, 144.206 86.690, 144.133 88.145 M 102.594 97.256 C 99.026 100.674, 98 102.366, 98 104.829 C 98 106.573, 98.427 108, 98.949 108 C 101.123 108, 109.017 94.684, 107.652 93.319 C 107.397 93.063, 105.120 94.835, 102.594 97.256" stroke="none" fill="black" fill-rule="evenodd"/>
</svg>