<svg xmlns="http://www.w3.org/2000/svg" width="200" height="200" viewBox="0 0 200 200" version="1.1">
	<path d="M 146.669 11.665 C 146.303 12.030, 141.390 12.259, 135.752 12.173 C 121.648 11.958, 61.926 15.674, 60.761 16.839 C 57.408 20.192, 74.090 33.022, 87.799 37.636 L 94.213 39.794 90.857 40.590 C 89.010 41.028, 79.505 41.286, 69.733 41.164 L 51.967 40.942 49.352 43.557 C 47.016 45.893, 46.796 46.721, 47.284 51.336 C 47.584 54.176, 48.282 57.670, 48.833 59.101 L 49.837 61.702 60.169 59.887 C 65.851 58.889, 72.975 58.069, 76 58.065 L 81.500 58.059 78.407 60.875 C 76.706 62.424, 69.281 67.423, 61.907 71.984 C 45.416 82.185, 39.295 86.581, 37.865 89.252 C 36.781 91.277, 36.906 91.299, 46.132 90.699 C 51.809 90.331, 62.001 88.491, 72 86.031 C 101.371 78.805, 112.653 78.483, 125.759 84.495 C 132.955 87.796, 132.230 88.257, 116.500 90.386 C 90.883 93.854, 85.775 94.251, 63.500 94.508 C 50.850 94.653, 39.600 95.130, 38.500 95.566 C 34.921 96.987, 29.165 101.129, 28.552 102.724 C 27.537 105.371, 30.699 108.742, 35.712 110.357 C 38.345 111.205, 46.773 113.076, 54.439 114.515 C 68.840 117.218, 75 119.141, 75 120.935 C 75 121.505, 72.188 123.378, 68.750 125.098 C 61.254 128.848, 59 130.705, 59 133.132 C 59 136.191, 63.351 138.077, 79.576 142.050 C 96.706 146.244, 100 147.771, 100 151.517 C 100 154.822, 94.342 158.910, 81.196 165.101 C 68.699 170.987, 62.549 175.259, 60.922 179.189 C 59.843 181.794, 59.945 182.389, 61.789 184.233 C 63.460 185.905, 65.078 186.312, 69.864 186.267 C 80.845 186.164, 95.060 179.889, 106.974 169.885 C 110.829 166.648, 114.958 164, 116.148 164 C 118.185 164, 123.423 166.493, 147.462 178.905 C 163.700 187.288, 171.299 188.641, 172.619 183.383 C 173.589 179.518, 172.259 175.018, 167.650 166.575 L 163.325 158.650 154.912 156.411 C 137.576 151.797, 130.214 147.857, 132.893 144.628 C 134.698 142.454, 142.412 139.448, 157.531 135.027 C 165.130 132.805, 171.513 130.820, 171.717 130.617 C 171.920 130.413, 170 128.864, 167.450 127.175 C 160.999 122.901, 153.784 121.618, 140.500 122.379 C 134.450 122.726, 124.737 123.288, 118.915 123.629 C 103.675 124.520, 102.027 123.148, 105.630 112.573 C 106.958 108.675, 107.930 107.509, 110.880 106.276 C 120.754 102.146, 132.074 103.061, 145.066 109.036 C 156.084 114.104, 159.232 114.733, 162.582 112.538 C 169.489 108.013, 171.504 95.466, 171.502 57 C 171.500 27.999, 171.460 27.419, 169.137 22.744 C 166.317 17.068, 162.289 13.452, 157.219 12.044 C 152.990 10.869, 147.656 10.678, 146.669 11.665 M 145.500 14.438 C 144.950 14.651, 143.341 15.078, 141.924 15.388 L 139.348 15.951 142.589 31.847 C 147.901 57.899, 149.326 80.786, 146.021 86.962 C 145.092 88.697, 139.179 89.836, 104 95.056 C 99.875 95.669, 84.070 96.410, 68.877 96.705 C 41.410 97.237, 41.226 97.255, 36.377 99.874 C 27.122 104.873, 30.130 106.875, 53.968 111.584 C 72.134 115.172, 74.929 116.005, 76.938 118.425 C 79.277 121.244, 76.808 124.473, 69.772 127.798 C 66.271 129.452, 62.846 131.480, 62.162 132.304 C 61.108 133.574, 61.574 134.042, 65.209 135.362 C 67.569 136.219, 75.453 138.327, 82.730 140.046 C 97.860 143.621, 102.346 145.997, 102.806 150.680 C 103.277 155.485, 97.774 160.033, 82.445 167.509 C 70.016 173.570, 63 178.410, 63 180.923 C 63 183.465, 67.830 184.377, 74.648 183.121 C 86.080 181.014, 98.173 174.549, 108.245 165.160 C 112.572 161.125, 113.319 160.790, 116.745 161.344 C 118.810 161.679, 129.758 166.653, 141.073 172.397 C 161.842 182.943, 168.521 185.393, 169.995 183.008 C 171.122 181.184, 169.325 175.453, 165.230 167.812 L 161.646 161.124 153.573 158.950 C 137.245 154.553, 129 150.195, 129 145.962 C 129 142.782, 135.227 139.146, 147.094 135.396 C 153.367 133.414, 160.300 131.214, 162.500 130.508 L 166.500 129.223 162.500 127.377 C 159.241 125.872, 156 125.528, 145 125.520 C 137.575 125.514, 126.312 125.908, 119.971 126.395 C 106.865 127.401, 102.601 126.244, 101.373 121.351 C 100.559 118.108, 103.458 108.542, 106.035 105.965 C 109.255 102.745, 118.364 100.715, 127.409 101.201 C 134.391 101.576, 136.960 102.289, 146.148 106.401 C 152.005 109.022, 157.809 111.016, 159.048 110.833 C 164.356 110.048, 168.477 97.935, 168.176 84 C 168.075 79.325, 168.475 68.010, 169.064 58.856 C 171.129 26.794, 166.702 15.065, 152.263 14.340 C 149.094 14.181, 146.050 14.225, 145.500 14.438 M 97.500 16.443 C 82.698 17.371, 80.388 17.707, 84.500 18.337 C 110.021 22.247, 108.392 21.564, 107.764 28.107 C 107.410 31.786, 107.646 33.311, 108.626 33.687 C 110.785 34.515, 118.151 29.626, 126.120 22.076 L 133.500 15.084 124.500 15.199 C 119.550 15.262, 107.400 15.822, 97.500 16.443 M 130.572 21.927 C 127.903 24.637, 123.317 28.574, 120.381 30.677 C 117.445 32.780, 115.033 34.807, 115.022 35.183 C 115.010 35.558, 115.888 36.147, 116.974 36.492 C 120.073 37.475, 123 41.930, 123 45.665 C 123 47.532, 121.850 51.793, 120.444 55.132 C 119.021 58.513, 118.024 62.585, 118.194 64.320 C 118.591 68.365, 123.254 71.561, 131.129 73.188 C 134.658 73.916, 137 74.919, 137 75.700 C 137 77.326, 135.777 77.317, 129.500 75.644 C 119.626 73.013, 115 69.251, 115 63.853 C 115 62.367, 116.407 57.638, 118.126 53.345 C 120.951 46.289, 121.118 45.297, 119.862 43.019 C 119.097 41.634, 116.798 39.679, 114.752 38.675 C 111.058 36.863, 110.985 36.869, 104.544 39.446 C 94.637 43.409, 88.979 44.131, 70.404 43.802 C 49.958 43.441, 49.553 43.599, 50.226 51.710 C 50.467 54.618, 50.963 57.296, 51.328 57.662 C 51.693 58.027, 57.056 57.538, 63.246 56.574 C 76.235 54.553, 81.820 54.738, 83.388 57.241 C 85.036 59.873, 80.861 63.424, 63 74.581 C 54.475 79.906, 46.375 85.166, 45 86.270 L 42.500 88.276 49 87.678 C 52.575 87.348, 63.150 85.260, 72.500 83.036 C 93.861 77.956, 104.810 76.623, 113.785 78.011 C 121.324 79.176, 133.652 84.766, 133.225 86.825 C 133.051 87.662, 133.605 87.971, 134.725 87.663 C 135.701 87.394, 138.133 86.900, 140.130 86.565 C 144.453 85.838, 145.002 84.150, 144.995 71.625 C 144.988 59.269, 138.086 17, 136.075 17 C 135.717 17, 133.241 19.217, 130.572 21.927 M 69 24.050 C 78.192 32.150, 95.870 38.913, 100.626 36.149 C 102.456 35.086, 102.456 35.060, 100.618 35.030 C 99.583 35.014, 91.987 31.625, 83.739 27.500 C 66.510 18.884, 61.916 17.808, 69 24.050 M 87.995 26.502 C 93.767 29.492, 99.842 32.064, 101.495 32.219 C 104.367 32.488, 104.514 32.312, 104.807 28.250 C 104.977 25.913, 104.752 23.986, 104.307 23.968 C 103.863 23.951, 99 23.285, 93.500 22.488 C 76.538 20.030, 76.106 20.345, 87.995 26.502" stroke="none" fill="black" fill-rule="evenodd"/>
</svg>