<svg xmlns="http://www.w3.org/2000/svg" width="200" height="200" viewBox="0 0 200 200" version="1.1">
	<path d="M 127.968 12.538 C 126.928 13.792, 126.984 15.126, 128.274 19.761 L 129.857 25.446 125.495 30.109 L 121.134 34.771 118.817 32.288 C 113.303 26.379, 100.264 22.503, 80.957 21.034 C 60.550 19.481, 43 21.826, 43 26.106 C 43 27.362, 61.920 36.263, 72.363 39.920 C 77.237 41.627, 82.994 43.093, 85.156 43.177 C 87.318 43.262, 89.276 43.638, 89.508 44.013 C 89.740 44.388, 83.983 44.979, 76.715 45.327 C 61.522 46.055, 44.882 48.389, 37.556 50.821 C 31.689 52.769, 30.707 55.614, 35.164 57.750 C 37.925 59.073, 52.035 61.349, 64.893 62.544 L 72.285 63.232 65.255 65.967 C 50.598 71.669, 36.383 81.248, 33.985 87.036 C 32.735 90.054, 32.803 90.422, 34.930 92.144 C 39.046 95.478, 48.869 93.847, 66.723 86.866 L 77.220 82.762 84.360 85.111 C 88.287 86.403, 91.666 87.560, 91.868 87.681 C 92.070 87.803, 91.402 90.221, 90.383 93.055 L 88.530 98.207 84.015 97.584 C 62.067 94.556, 50.156 94.577, 39.765 97.662 C 34.020 99.369, 29 103.748, 29 107.055 C 29 112.591, 40.404 118.660, 54.252 120.494 L 59.004 121.123 58.395 124.934 C 56.955 133.934, 63.318 139.613, 83.260 147.128 C 90.542 149.872, 97.555 152.804, 98.844 153.643 L 101.189 155.170 98.932 157.573 C 97.045 159.581, 81.579 166.391, 74.500 168.331 C 73.400 168.633, 68.594 170.049, 63.819 171.479 L 55.139 174.079 55.710 177.789 C 56.572 183.384, 58.558 186.574, 62.089 188.037 C 66.782 189.981, 73.280 188.284, 92.452 180.110 C 111.882 171.825, 117.657 170, 124.447 170 C 131.381 170, 135.921 172.612, 138.840 178.281 C 141.099 182.667, 141.397 182.863, 147.340 183.884 C 170.492 187.858, 180.980 185.614, 177.536 177.422 C 175.309 172.127, 160.559 161.045, 143.562 151.896 L 135.623 147.623 146.062 145.397 C 162.708 141.846, 170 138.680, 170 135.003 C 170 130.683, 158.409 127.907, 139.343 127.658 L 127.187 127.500 130.963 123.684 C 136.898 117.687, 142.744 103.577, 143.115 94.356 C 143.178 92.785, 143.796 95.120, 144.490 99.545 C 146.688 113.577, 151.801 119.943, 159.827 118.641 C 164.389 117.900, 170.181 112.250, 173.188 105.607 C 175.223 101.111, 175.500 98.945, 175.500 87.500 C 175.500 79.706, 175.009 73.165, 174.273 71.166 C 173.214 68.291, 173.310 67.312, 174.968 64.063 C 183.232 47.865, 176.702 21.875, 162.661 15.078 C 156.923 12.300, 149.871 12.391, 143.529 15.325 L 138.558 17.625 135.246 14.312 C 131.583 10.650, 129.880 10.235, 127.968 12.538 M 130.045 15.750 C 130.070 16.712, 130.637 18.780, 131.305 20.344 L 132.520 23.188 134.425 21.083 C 136.303 19.008, 136.297 18.945, 133.990 16.490 C 131.240 13.562, 129.983 13.326, 130.045 15.750 M 144.299 17.897 L 140.097 19.859 143.049 25.179 C 147.404 33.030, 151.054 45.420, 151.687 54.500 C 152.118 60.691, 151.718 64.988, 149.918 73.500 C 148.408 80.637, 147.575 88.012, 147.546 94.500 C 147.506 103.221, 147.820 105.139, 150 109.500 C 155.406 120.312, 165.721 117.228, 171.064 103.202 C 173.634 96.456, 173.964 81.992, 171.753 73 C 170.478 67.814, 170.535 67.202, 172.755 62.290 C 179.076 48.305, 174.998 27.440, 164.358 19.324 C 159.541 15.650, 150.489 15.006, 144.299 17.897 M 135.491 24.010 C 133.783 25.897, 133.812 26.195, 136.247 31.736 C 141.720 44.192, 143.941 56.862, 144.160 76.881 C 144.248 84.921, 144.481 89.925, 144.679 88 C 144.876 86.075, 145.982 79.775, 147.136 74 C 150.541 56.974, 148.716 42.240, 141.420 27.842 C 138.470 22.021, 137.726 21.540, 135.491 24.010 M 58.400 23.765 C 57.795 24.169, 57.082 25.175, 56.816 26 C 56.451 27.134, 59.877 28.892, 70.871 33.212 C 78.867 36.353, 85.569 38.765, 85.763 38.570 C 85.958 38.375, 83.522 36.030, 80.351 33.358 C 77.179 30.686, 73.293 27.262, 71.715 25.750 C 69.414 23.544, 67.921 23.003, 64.173 23.015 C 61.603 23.024, 59.005 23.361, 58.400 23.765 M 73.500 23.835 C 74.050 24.353, 77.270 27.057, 80.656 29.846 C 86.620 34.758, 88.751 37.299, 96.761 49.053 C 102.326 57.219, 105.224 60.628, 105.642 59.500 C 105.846 58.950, 108.935 53.834, 112.506 48.130 C 116.078 42.427, 119 37.411, 119 36.984 C 119 35.010, 111.574 30.025, 105.843 28.151 C 96.374 25.055, 71.228 21.700, 73.500 23.835 M 127.032 32.210 C 124.165 35.661, 123.450 37.485, 122.907 42.732 C 122.440 47.245, 121.381 50.476, 119.243 53.916 L 116.236 58.754 119.193 64.915 C 121.488 69.696, 122.151 72.468, 122.154 77.288 C 122.162 88.110, 118.795 94.519, 105.489 109.012 C 100.368 114.589, 97.996 117.936, 98.199 119.295 C 98.607 122.025, 104.251 123.850, 115.278 124.817 C 126.053 125.763, 128.404 124.696, 132.967 116.791 C 142.226 100.750, 144.399 70.518, 138.070 45.775 C 136.026 37.780, 132.196 27.987, 131.127 28.018 C 130.782 28.028, 128.939 29.915, 127.032 32.210 M 116.312 47.203 C 114.153 50.666, 111.217 55.531, 109.789 58.014 L 107.193 62.528 110.653 68.405 C 115.089 75.939, 117.327 84.372, 116.062 88.784 C 114.466 94.348, 116.607 91.380, 118.476 85.437 C 120.727 78.282, 120.026 72.528, 115.911 64.366 L 112.819 58.233 115.912 53.962 C 118.805 49.969, 121.687 42.354, 120.685 41.352 C 120.440 41.106, 118.472 43.739, 116.312 47.203 M 77.500 47.668 C 58.606 49.235, 39.389 52.172, 36.055 54.004 C 33.216 55.564, 48.833 58.309, 73.250 60.542 C 77.397 60.921, 79.996 61.611, 79.989 62.330 C 79.983 62.973, 75.623 65.075, 70.299 67 C 53.626 73.029, 34.915 85.208, 36.221 89.181 C 37.405 92.782, 49.126 90.746, 66.644 83.897 L 77.157 79.787 85.044 82.393 C 89.381 83.827, 93.090 85, 93.285 85 C 93.480 85, 95.580 80.721, 97.952 75.491 L 102.265 65.982 100.465 61.269 C 99.475 58.677, 96.654 54.406, 94.196 51.778 C 89.399 46.651, 89.493 46.673, 77.500 47.668 M 105.412 67.586 C 105.826 68.639, 106.381 71.750, 106.644 74.500 C 107.277 81.097, 104.709 85.408, 99.156 87.071 C 95.532 88.157, 95.007 88.788, 92.583 94.967 L 89.948 101.682 82.724 100.200 C 71.944 97.990, 45.853 98.064, 40.050 100.322 C 31.339 103.710, 29.842 107.252, 35.347 111.451 C 38.855 114.126, 52.003 118, 57.578 118 C 63.148 118, 64.037 118.703, 62.410 121.820 C 60.463 125.553, 60.657 129.709, 62.926 132.897 C 65.449 136.439, 72.047 139.953, 86.401 145.400 C 100.486 150.744, 103 152.264, 103 155.434 C 103 160.418, 94.767 164.642, 69.750 172.497 C 63.288 174.526, 58 176.608, 58 177.125 C 58 180.178, 61.123 184.993, 63.488 185.586 C 68.573 186.863, 71.608 185.882, 102 173.145 C 123.446 164.157, 134.046 165.192, 141.502 177.003 C 143.732 180.536, 144.125 180.714, 152.159 181.837 C 166.500 183.841, 176 183.096, 176 179.968 C 176 177.740, 168.007 170.450, 159.081 164.535 C 146.566 156.243, 130.645 147.815, 128.818 148.516 C 128.024 148.821, 126.545 148.155, 125.532 147.035 C 124.519 145.916, 123.872 144.949, 124.095 144.887 C 124.318 144.824, 127.875 144.670, 132 144.544 C 143.883 144.180, 167 137.924, 167 135.072 C 167 133.420, 160.493 131.881, 148.746 130.755 C 134.624 129.400, 115.294 130.869, 105.987 134.004 L 99.990 136.025 93.577 131.975 C 85.957 127.162, 80 120.892, 80 117.684 C 80 114.327, 84.278 110.815, 94.695 105.620 C 105.916 100.025, 110.349 96.270, 112.554 90.497 C 114.610 85.114, 113.983 80.891, 109.942 72.885 C 107.144 67.343, 103.761 63.385, 105.412 67.586 M 100.184 77.394 C 98.408 81.186, 97.176 84.509, 97.446 84.779 C 97.716 85.050, 99.069 84.529, 100.453 83.623 C 103.307 81.753, 104.313 78.809, 103.780 73.888 C 103.420 70.561, 103.355 70.625, 100.184 77.394 M 106.885 101.869 C 105.573 102.897, 100.675 105.644, 96 107.975 C 86.666 112.629, 83 115.463, 83 118.028 C 83 120.450, 86.961 124.372, 94.005 128.925 C 99.364 132.389, 100.488 132.762, 102.824 131.857 C 104.296 131.286, 108.425 130.256, 112 129.569 L 118.500 128.319 113 127.593 C 103.839 126.383, 97.148 124.145, 95.939 121.886 C 94.139 118.522, 95.573 115.660, 103.090 107.611 C 110.271 99.922, 111.238 98.457, 106.885 101.869" stroke="none" fill="black" fill-rule="evenodd"/>
</svg>