<svg xmlns="http://www.w3.org/2000/svg" width="200" height="200" viewBox="0 0 200 200" version="1.1">
	<path d="M 128 9.500 C 128 10.325, 128.433 11, 128.962 11 C 130.511 11, 136.582 24.806, 138.875 33.544 C 144.316 54.271, 145.653 82.361, 142.033 99.903 C 140.966 105.075, 139.721 109.679, 139.265 110.135 C 138.810 110.590, 137.041 111.242, 135.335 111.583 L 132.232 112.204 129.593 104.352 C 128.141 100.033, 125.691 93.912, 124.147 90.748 C 121.412 85.143, 121.373 84.836, 122.649 78.748 C 124.660 69.151, 124.193 60.998, 121.633 61.001 C 120.875 61.002, 120.500 63.900, 120.500 69.751 C 120.500 74.563, 120.183 79.271, 119.795 80.214 C 119.163 81.751, 118.807 81.781, 116.343 80.503 C 112.906 78.720, 111.040 72.952, 111.004 64 C 110.951 50.820, 110.845 50.618, 100.325 43.730 L 90.930 37.579 94.514 35.741 C 98.249 33.824, 106 26.653, 106 25.113 C 106 24.626, 96.662 24, 85.250 23.723 C 65.151 23.235, 60 22.668, 60 20.945 C 60 18.163, 90.357 17.725, 101.259 20.349 C 110.359 22.539, 117.634 26.376, 120.099 30.285 C 121.758 32.915, 122.025 34.560, 121.570 39.331 C 120.925 46.096, 122.846 46.946, 124.356 40.563 C 126.922 29.714, 117.976 20.972, 100.601 17.350 C 90.928 15.333, 68.256 15.444, 61 17.543 C 57.975 18.418, 54.277 19.378, 52.782 19.676 C 48.553 20.519, 47.599 22.324, 49.470 25.942 C 53.667 34.058, 68.867 40.638, 81.349 39.741 L 88.500 39.227 97.684 45.173 C 107.464 51.506, 107.160 51.048, 108.524 61.500 L 109.176 66.500 106.241 62.500 C 98.219 51.570, 86.262 43.896, 73.969 41.788 C 67.905 40.748, 65.678 40.816, 58.685 42.255 C 45.812 44.904, 43.907 49.656, 51.546 60.063 C 54.255 63.753, 55.049 65.667, 54.605 67.436 C 53.640 71.282, 45.599 77.522, 33.896 83.509 C 27.228 86.919, 23 89.674, 23 90.608 C 23 91.592, 23.623 91.952, 24.750 91.620 C 36.774 88.083, 56.104 84.645, 79 81.968 C 98.977 79.633, 102.699 78.811, 106.367 75.926 L 108.996 73.858 110.086 76.679 C 111.752 80.991, 110.171 84.271, 105.990 85.183 C 104.070 85.601, 92.150 87.102, 79.500 88.519 C 39.993 92.944, 30 95.077, 30 99.086 C 30 100.113, 31.012 101.613, 32.250 102.419 C 34.204 103.691, 43.605 106.517, 52.211 108.419 L 54.922 109.018 52.835 112.555 C 50.179 117.057, 50.787 122.720, 54.440 127.511 C 55.882 129.400, 61.660 133.996, 67.281 137.723 L 77.500 144.500 65 145 L 52.500 145.500 50.285 152 C 47.894 159.019, 47.353 168.155, 49.061 172.685 C 50.617 176.812, 55.863 181.925, 61 184.321 C 67.689 187.442, 87.578 187.419, 97.559 184.279 C 117.043 178.149, 116.135 169.874, 95.791 168.187 L 87.500 167.500 96.550 158.350 C 103.460 151.365, 106.625 148.893, 109.930 147.903 C 114.191 146.626, 114.302 146.654, 117.027 149.704 C 120.597 153.700, 122.612 162.708, 123.525 178.754 L 124.222 191.009 129.776 192.623 C 137.866 194.975, 149.146 194.142, 156.248 190.667 C 162.413 187.651, 170.720 179.429, 173.899 173.198 C 184.030 153.339, 177.795 129.142, 160.293 120.395 C 157.107 118.803, 154.417 117.492, 154.315 117.482 C 154.214 117.472, 153.856 114.997, 153.520 111.982 L 152.910 106.500 154.951 110.196 C 157.396 114.623, 163.676 119.724, 165.023 118.377 C 166.641 116.759, 173.708 93.923, 175.942 83.096 C 182.734 50.166, 180.322 28.953, 168.461 17.315 C 162.625 11.589, 156.241 9, 147.957 9 C 143.500 9, 143.300 9.119, 143.757 11.509 L 144.237 14.018 138.517 11.009 C 132.254 7.714, 128 7.104, 128 9.500 M 134 12.540 C 134 12.837, 134.851 14.749, 135.892 16.790 C 139.975 24.796, 146 49.226, 146 57.777 C 146 59.733, 146.273 61.060, 146.606 60.727 C 147.179 60.154, 145.651 34.707, 144.350 23.165 C 143.810 18.375, 143.338 17.533, 139.724 14.915 C 135.893 12.140, 134 11.354, 134 12.540 M 147.035 15.750 C 147.456 17.813, 148.836 22.200, 150.102 25.500 C 152.284 31.192, 152.435 33.247, 153.040 65.500 C 153.649 97.973, 154.061 102.394, 157.015 108.111 C 158.490 110.964, 162.050 115, 163.092 115 C 163.501 115, 165.202 110.838, 166.874 105.750 C 177.964 71.989, 179.967 41.616, 172.116 26.228 C 167.959 18.079, 158.410 12, 149.768 12 L 146.269 12 147.035 15.750 M 51.804 24.621 C 53.436 27.650, 57.116 30.586, 63 33.553 C 67.245 35.694, 70.326 36.425, 76.500 36.757 C 85.855 37.259, 85.673 36.955, 72.500 30.075 C 65.063 26.191, 60.812 24.661, 53.646 23.289 C 51.096 22.801, 50.900 22.943, 51.804 24.621 M 79.979 30.852 L 88.459 35.875 93.207 33.291 C 95.819 31.869, 98.711 29.872, 99.633 28.853 C 101.258 27.058, 100.901 27, 88.237 27 C 81.047 27, 74.339 26.736, 73.332 26.414 C 72.324 26.092, 75.316 28.089, 79.979 30.852 M 148.703 41.500 C 149.008 48.100, 149.424 53.688, 149.629 53.917 C 150.355 54.732, 149.749 35.448, 148.956 32.500 C 148.500 30.805, 148.390 34.722, 148.703 41.500 M 55.500 45.729 C 49.009 48.028, 48.528 50.635, 53.312 57.590 C 57.819 64.143, 58.414 66.305, 56.641 69.700 C 54.526 73.749, 50.455 77.294, 42.500 82.015 C 38.650 84.300, 36.400 85.921, 37.500 85.618 C 42.710 84.181, 64.256 80.836, 80.377 78.961 C 106.654 75.905, 110.255 73.947, 104.958 65.595 C 100.407 58.419, 93.600 52.406, 85.488 48.397 C 79.074 45.226, 76.983 44.704, 69.311 44.357 C 62.629 44.054, 59.292 44.385, 55.500 45.729 M 147.150 75.619 C 147.007 87.150, 145.196 101.200, 142.825 109.165 C 141.879 112.346, 141.171 112.971, 137.467 113.904 L 133.200 114.978 136.409 125.739 C 139.549 136.272, 139.690 136.518, 143.058 137.344 C 145.236 137.877, 147.557 137.777, 149.377 137.070 L 152.254 135.953 151.474 127.726 C 151.046 123.202, 150.712 118.600, 150.734 117.500 C 150.787 114.787, 148.030 69.135, 147.624 66 C 147.445 64.625, 147.232 68.954, 147.150 75.619 M 114 86.134 C 114 95.320, 107.444 104.337, 98.500 107.454 C 95.750 108.412, 92.625 109.524, 91.555 109.925 C 89.948 110.527, 91.235 111.724, 98.963 116.815 C 114.178 126.838, 136 137.465, 136 134.850 C 136 133.712, 130.966 116.725, 130.463 116.164 C 130.297 115.979, 126.834 116.568, 122.768 117.473 C 118.701 118.377, 112.928 118.979, 109.937 118.809 C 104.808 118.518, 104.482 118.341, 104.178 115.691 C 103.952 113.724, 105.512 109.978, 109.382 103.191 C 116.883 90.038, 118.420 86.211, 116.927 84.413 C 115.049 82.149, 114 82.765, 114 86.134 M 104.953 88.043 C 103.001 88.506, 89.276 90.267, 74.453 91.957 C 26.972 97.370, 23.208 99.413, 50.250 105.087 L 60.935 107.329 57.468 111.167 C 50.236 119.173, 53.358 125.433, 70 136.298 C 76.381 140.464, 79.599 143.196, 79.802 144.620 C 80.208 147.459, 77.949 147.970, 64.908 147.986 L 54.317 148 52.535 153.886 C 50.156 161.743, 50.710 171.380, 53.791 175.707 C 55.014 177.424, 58.148 179.867, 60.757 181.138 C 70.461 185.862, 94.160 184.501, 104.583 178.622 C 112.452 174.183, 109.025 171.833, 93.750 171.193 C 87.838 170.946, 83 170.405, 83 169.992 C 83 168.148, 98.195 152.110, 103.223 148.647 C 110.608 143.560, 115.099 143.308, 119.074 147.757 C 123.354 152.547, 125.100 159.743, 125.722 175.158 L 126.273 188.817 130.563 190.018 C 137.121 191.854, 149.575 190.921, 155.193 188.173 C 168.678 181.575, 176.956 165.902, 175.707 149.333 C 175.410 145.391, 174.280 140.161, 173.196 137.710 C 170.680 132.023, 164.705 125.400, 159.858 122.928 C 154.880 120.388, 153.844 120.455, 154.898 123.250 C 155.365 124.487, 155.466 136.879, 155.123 150.787 C 154.617 171.330, 154.228 176.243, 153.048 176.971 C 152.249 177.464, 151.186 177.615, 150.686 177.306 C 149.003 176.266, 145.333 166.590, 141.403 152.834 L 137.500 139.167 133.920 138.094 C 120.913 134.197, 84 111.908, 84 107.952 C 84 107.581, 86.681 107.035, 89.957 106.738 C 100.255 105.804, 109.356 98.744, 110.666 90.673 C 111.320 86.641, 111.163 86.569, 104.953 88.043 M 115.529 97.531 C 105.422 116.157, 105.783 115.299, 107.613 116.323 C 109.037 117.120, 124.398 114.903, 128.693 113.280 C 129.849 112.844, 126.858 103.381, 122.154 92.593 L 120.396 88.562 115.529 97.531 M 146.250 139.802 C 143.363 139.969, 141 140.463, 141 140.901 C 141 142.649, 149.132 169.373, 150.400 171.795 C 151.660 174.199, 151.800 173.745, 152.354 165.442 C 152.682 160.524, 152.624 152.675, 152.225 148 L 151.500 139.500 146.250 139.802" stroke="none" fill="black" fill-rule="evenodd"/>
</svg>