<svg xmlns="http://www.w3.org/2000/svg" width="200" height="200" viewBox="0 0 200 200" version="1.1">
	<path d="M 129.068 8.418 C 128.199 9.466, 128.448 11.563, 130.113 17.224 L 132.299 24.655 125.999 36.843 C 122.534 43.547, 119.583 48.912, 119.441 48.766 C 119.300 48.620, 118.451 44.240, 117.555 39.033 C 114.655 22.185, 112.976 16, 111.303 16 C 110.188 16, 109.941 16.617, 110.403 18.250 C 111.829 23.292, 114.186 35.031, 115.473 43.500 L 116.841 52.500 113.866 57.173 C 109.553 63.946, 108.580 64.534, 106.624 61.550 C 105.729 60.183, 104.080 56.617, 102.961 53.625 C 100.508 47.069, 94.762 41.423, 86.084 37.042 C 81.641 34.799, 80 33.423, 80 31.938 C 80 30.820, 77.836 27.741, 75.191 25.096 C 67.008 16.912, 54.387 13.814, 47.860 18.386 C 45.257 20.209, 47.043 21.314, 50.481 20.007 C 54.925 18.318, 60.349 18.871, 65.759 21.567 C 70.562 23.961, 77 29.919, 77 31.971 C 77 32.467, 73.063 31.540, 68.250 29.910 C 58.353 26.558, 32.503 20, 29.186 20 C 24.668 20, 27.319 22.289, 37.250 26.963 C 56.940 36.230, 71.507 40.275, 76.996 38.002 C 79.377 37.016, 80.481 37.209, 84.639 39.339 L 89.500 41.829 78 41.288 C 54.946 40.205, 40.333 45.223, 42.413 53.511 C 43.363 57.295, 49.266 60.214, 57.100 60.775 L 64.010 61.269 49.520 69.056 C 34.326 77.221, 29.304 80.325, 27.282 82.802 C 24.056 86.755, 29.115 86.912, 49 83.475 C 65.503 80.622, 83.875 79.333, 88.913 80.674 L 92.326 81.582 87.194 84.875 C 74.712 92.885, 62.424 94.731, 46.336 91.013 C 34.990 88.392, 32.105 88.225, 30.902 90.125 C 29.594 92.190, 29.961 97.804, 31.830 104.328 L 33.500 110.155 39.276 110.498 C 49.508 111.104, 56.810 117.063, 65.595 131.979 C 68.018 136.093, 70 139.774, 70 140.159 C 70 140.544, 67.886 141.904, 65.302 143.180 C 50.976 150.254, 48.211 160.118, 57.807 169.917 C 65.569 177.844, 81.913 185.999, 97 189.474 C 106.972 191.770, 107.364 191.661, 114.258 184.679 C 119.548 179.321, 121.425 178.101, 126.566 176.679 C 134.516 174.478, 142.242 174.560, 156.129 176.990 C 162.383 178.084, 168.872 178.984, 170.550 178.990 C 177.512 179.013, 177.736 173.934, 171.217 163.878 C 167.801 158.609, 165.934 154.350, 164.686 148.979 C 156.523 113.863, 139.766 116.497, 120.017 156 C 117.680 160.675, 115.660 164.622, 115.529 164.771 C 115.398 164.920, 111.513 165.707, 106.896 166.520 C 97.493 168.174, 89 168.456, 89 167.113 C 89 166.625, 92.938 162.743, 97.750 158.486 C 112.549 145.395, 116.536 139.122, 113.980 132.952 C 112.571 129.550, 105.346 125.652, 97.301 123.954 C 93.266 123.102, 91.313 121.982, 88.575 118.951 C 84.135 114.037, 84.665 112.122, 92.102 106.205 C 109.060 92.711, 112.934 87.732, 112.978 79.376 C 112.990 77.107, 112.365 73.450, 111.588 71.249 C 110.205 67.329, 110.245 67.149, 113.526 62.534 L 116.876 57.822 117.572 61.531 C 118.518 66.577, 117.409 92.629, 116.056 97.146 C 115.014 100.624, 114.686 100.842, 108.966 101.849 C 102.033 103.070, 98.137 104.772, 96.597 107.250 C 93.671 111.960, 103.332 117.209, 116.046 117.817 C 127.944 118.385, 134.684 116.368, 140.576 110.476 C 143.009 108.043, 145 105.366, 145 104.526 C 145 103.687, 145.450 103, 146 103 C 146.550 103, 147 103.758, 147 104.684 C 147 107.845, 151.024 114.690, 153.562 115.846 C 157.352 117.573, 160.075 117.265, 165.669 114.478 L 170.730 111.956 170.274 105.228 C 170.015 101.403, 170.742 91.164, 171.959 81.500 C 175.220 55.604, 175.882 45.918, 174.957 37.671 C 172.889 19.227, 163.051 9.555, 145.556 8.768 C 140.258 8.529, 139.488 8.745, 138.463 10.752 L 137.314 13.004 135.418 10.909 C 132.478 7.660, 130.380 6.837, 129.068 8.418 M 132.132 14.547 C 133.644 20.070, 134.200 20.692, 135.203 17.982 C 135.900 16.096, 135.571 15.116, 133.563 13.108 L 131.049 10.595 132.132 14.547 M 140.443 13.370 C 139.907 15.505, 140.464 16.771, 143.336 19.950 C 148.981 26.198, 149.481 29.402, 148.964 56 C 148.113 99.758, 148.692 107.692, 153.053 112.053 C 155.466 114.466, 159.436 114.538, 163.938 112.248 L 167.375 110.500 167.602 100.500 C 167.727 95, 168.830 83.300, 170.054 74.500 C 172.515 56.805, 173.053 36.675, 171.231 30.485 C 170.581 28.276, 168.733 24.394, 167.124 21.857 C 163.502 16.146, 156.235 12.301, 147.303 11.371 C 141.218 10.738, 141.095 10.774, 140.443 13.370 M 136.869 21.155 C 135.506 24.032, 135.578 24.957, 137.744 32.395 C 141.101 43.923, 143.267 59.344, 142.535 66.500 C 142.071 71.035, 142.385 73.843, 143.819 78 L 145.716 83.500 146.465 61.850 C 147.476 32.654, 146.285 26.064, 138.590 18.260 C 138.460 18.128, 137.685 19.431, 136.869 21.155 M 46 27.845 C 51.591 30.882, 64.714 35.070, 70.333 35.611 C 75.218 36.080, 75.364 36.029, 73 34.666 C 70.444 33.191, 52.304 27.770, 46 26.596 L 42.500 25.944 46 27.845 M 129.054 36.935 C 126.710 41.573, 123.695 47.107, 122.354 49.231 C 119.981 52.991, 119.933 53.454, 120.558 66.796 C 121.186 80.211, 120.255 92.284, 117.978 100.250 C 117.056 103.476, 116.500 104, 114.002 104 C 109.234 104, 101.215 106.035, 99.943 107.569 C 95.251 113.223, 118.266 117.735, 130.703 113.600 C 136.609 111.637, 141.126 107.178, 143.018 101.444 C 144.571 96.740, 143.820 86.172, 141.459 79.500 C 140.193 75.922, 139.644 71.086, 139.529 62.500 C 139.373 50.849, 137.357 38.254, 134.573 31.535 L 133.315 28.500 129.054 36.935 M 94.500 47 C 96.648 49.200, 98.631 51, 98.906 51 C 99.181 51, 97.648 49.200, 95.500 47 C 93.352 44.800, 91.369 43, 91.094 43 C 90.819 43, 92.352 44.800, 94.500 47 M 55.316 45.391 C 44.682 48.044, 41.994 52.691, 49 56.306 C 51.861 57.782, 54.372 58.052, 62.750 57.781 C 75.386 57.372, 75.967 58.497, 65.750 63.586 C 61.763 65.573, 52.313 70.596, 44.750 74.750 C 32.053 81.723, 28.360 84.394, 32.750 83.428 C 33.712 83.216, 41.250 81.942, 49.500 80.598 C 69.207 77.386, 80.983 76.578, 88.948 77.890 C 96.937 79.207, 98.265 78.283, 99.869 70.296 C 101.976 59.808, 101.679 58.735, 94.599 51.259 L 88.198 44.500 74.349 44.299 C 65.685 44.173, 58.559 44.581, 55.316 45.391 M 103.445 66.444 C 102.598 70.957, 103.253 71.789, 105.252 68.738 C 106.528 66.790, 106.561 66.120, 105.452 64.604 C 104.248 62.956, 104.068 63.121, 103.445 66.444 M 104.250 73.988 C 101.915 76.773, 101 78.870, 101 81.433 C 101 85.319, 100.457 85.661, 97.655 83.538 C 96.015 82.296, 95.292 82.508, 91.155 85.450 C 76.337 95.988, 62.474 98.167, 43 93.017 C 32.262 90.178, 32.631 90.037, 33.266 96.750 C 33.565 99.912, 34.291 103.737, 34.880 105.250 C 35.819 107.662, 36.483 108, 40.279 108 C 50.196 108, 60.369 116.657, 69.059 132.489 L 73.101 139.856 76.659 138.369 C 78.615 137.552, 80.345 137.022, 80.502 137.191 C 81.239 137.987, 78.304 144.430, 76.769 145.387 C 75.440 146.215, 74.643 146.072, 73.341 144.769 C 71.745 143.174, 71.294 143.259, 65.771 146.203 C 58.054 150.316, 55 153.985, 55 159.142 C 55 165.210, 62.557 172.285, 76.088 178.885 C 85.847 183.646, 99.457 188, 104.580 188 C 106.001 188, 109.005 185.837, 112.670 182.176 C 122.430 172.426, 132.771 170.369, 154.272 173.902 C 167.438 176.065, 172.225 176.442, 173.269 175.397 C 174.228 174.439, 172.211 170.052, 167.928 163.777 C 165.395 160.067, 163.417 155.609, 162.448 151.430 C 158.908 136.166, 153.504 127, 148.046 127 C 141.419 127, 131.528 138.853, 121.665 158.616 L 117.115 167.731 106.621 169.366 C 93.784 171.365, 89.946 171.412, 87.468 169.601 C 85.769 168.358, 85.706 167.919, 86.904 165.680 C 87.646 164.293, 92.073 159.860, 96.741 155.829 C 109.776 144.574, 113.459 138.965, 111.377 133.539 C 110.518 131.303, 104.658 128.494, 97.556 126.916 C 89.846 125.202, 83 119.162, 83 114.071 C 83 110.293, 85.398 107.667, 97.007 98.735 C 107.424 90.720, 109.500 87.420, 109.500 78.873 C 109.500 70.078, 108.392 69.047, 104.250 73.988" stroke="none" fill="black" fill-rule="evenodd"/>
</svg>