<svg xmlns="http://www.w3.org/2000/svg" width="200" height="200" viewBox="0 0 200 200" version="1.1">
	<path d="M 134 8.867 C 134 9.343, 126.013 10.035, 116.250 10.404 C 92.815 11.289, 65.956 12.936, 63.678 13.628 C 62.669 13.934, 62.086 14.782, 62.372 15.528 C 62.693 16.363, 62.055 16.994, 60.695 17.188 C 56.737 17.751, 57.419 21.399, 62.195 25.219 C 67.964 29.831, 76.662 35.005, 77.403 34.264 C 78.625 33.042, 77.913 32.008, 74.750 30.409 C 69.367 27.690, 60.905 20.963, 61.551 19.917 C 62.638 18.159, 78.608 21.879, 92.808 27.198 C 101.484 30.447, 101.815 31.349, 94.770 32.539 C 92.491 32.924, 91 33.734, 91 34.588 C 91 36.465, 92.612 36.370, 99.207 34.101 L 104.726 32.202 105.770 35.601 L 106.813 39 90.656 39.004 C 65.743 39.010, 47 42.837, 47 47.918 C 47 49.131, 48.129 50.532, 49.804 51.399 C 53.325 53.219, 66.460 55.741, 76.998 56.620 C 81.422 56.989, 84.818 57.515, 84.544 57.789 C 84.270 58.063, 81.557 59.299, 78.516 60.535 C 63.159 66.777, 46 79.874, 46 85.355 C 46 90.890, 50.764 91.049, 66.500 86.038 C 74.756 83.409, 77.153 83.123, 95.500 82.582 C 106.500 82.258, 117.722 81.542, 120.438 80.992 C 124.202 80.228, 125.571 80.289, 126.197 81.245 C 127.235 82.832, 128.360 86.986, 127.870 87.423 C 127.100 88.108, 100.864 91.002, 85.500 92.096 C 76.700 92.723, 59.488 93.042, 47.250 92.804 C 35.012 92.566, 25 92.546, 25 92.760 C 25 92.974, 27.564 95.837, 30.698 99.122 C 40.875 109.791, 49.186 113.775, 75.500 120.598 C 84.850 123.022, 95.295 126.413, 98.711 128.133 C 104.784 131.190, 105.169 131.250, 115.961 130.805 L 127 130.350 127 133.526 L 127 136.701 121.750 135.745 C 113.261 134.198, 81.709 134.584, 72.079 136.352 C 62.364 138.135, 58.692 140.549, 61.470 143.327 C 63.571 145.428, 68.372 146.680, 81.281 148.492 C 92.771 150.105, 95.946 151.025, 97.821 153.284 C 100.486 156.495, 92.729 162.569, 70.658 174.553 C 64.695 177.791, 58.672 181.502, 57.272 182.799 C 54.958 184.944, 54.870 185.299, 56.302 186.730 C 57.475 187.904, 59.735 188.270, 65.188 188.171 C 71.240 188.061, 95.254 185.303, 95.556 184.683 C 95.606 184.582, 96.288 182.748, 97.074 180.607 C 99.349 174.405, 102.725 172.535, 111.410 172.667 C 117.390 172.758, 121.220 173.643, 132.123 177.453 C 158.627 186.714, 163.841 188.257, 166.435 187.606 C 171.332 186.377, 170.612 179.682, 164.550 170.079 C 162.392 166.661, 161.109 165.873, 153.800 163.477 C 142.142 159.656, 131 154.979, 131 153.907 C 131 153.408, 131.113 152.995, 131.250 152.988 C 131.387 152.982, 137.518 151.878, 144.874 150.535 C 165.626 146.746, 171.597 142.639, 167.804 134.764 L 166.232 131.500 165.303 134.998 C 163.461 141.931, 159.440 139.400, 151.377 126.233 L 147.255 119.500 151.157 118.797 C 162.364 116.778, 170.170 103.749, 171.625 84.635 C 171.973 80.070, 171.745 73.301, 171.107 69.212 C 170.359 64.415, 170.302 61.303, 170.943 60.107 C 171.478 59.107, 172.401 55.248, 172.995 51.531 C 174.372 42.910, 172.916 31.681, 169.436 24.079 C 166.333 17.301, 164.467 15.133, 160.173 13.316 C 155.137 11.186, 150.484 13.830, 146.056 21.341 L 142.612 27.182 140.306 18.496 C 139.038 13.719, 137.749 9.403, 137.441 8.905 C 136.727 7.750, 134 7.720, 134 8.867 M 119 13.110 C 109.925 13.458, 95.525 14.104, 87 14.543 L 71.500 15.343 84 17.114 C 103.183 19.833, 112 22.733, 112 26.326 C 112 26.885, 111.293 28.123, 110.430 29.077 C 108.972 30.688, 109.355 31.133, 115.777 35.287 C 126.721 42.367, 129.441 47.839, 124.556 52.945 L 122.111 55.500 127.447 61.049 L 132.783 66.598 134.897 55.371 C 136.060 49.196, 137.879 41.353, 138.940 37.944 L 140.870 31.744 138.456 22.226 C 137.128 16.991, 135.919 12.656, 135.771 12.592 C 135.622 12.528, 128.075 12.761, 119 13.110 M 152.598 17.102 C 151.129 18.257, 148.527 21.970, 146.818 25.352 L 143.709 31.500 145.361 43.500 C 147.006 55.463, 147.451 80.151, 146.108 85 C 145.524 87.110, 144.538 87.656, 139.783 88.500 C 136.684 89.050, 133.915 89.739, 133.628 90.030 C 133.341 90.322, 135.895 96.172, 139.303 103.030 C 145.363 115.225, 145.578 115.507, 149.032 115.797 C 153.407 116.166, 158.308 113.073, 162.205 107.485 C 167.784 99.486, 170.543 80.408, 168.034 67.178 C 167.292 63.269, 167.399 61.289, 168.492 58.672 C 173.407 46.911, 169.701 24.133, 161.790 17.477 C 158.193 14.450, 156.079 14.364, 152.598 17.102 M 90.500 23.455 C 95.450 25.301, 100.926 27.389, 102.670 28.094 C 105.264 29.145, 106.127 29.140, 107.420 28.067 C 109.746 26.136, 109.378 25.280, 105.700 24.066 C 101.780 22.772, 86.351 19.982, 83.500 20.051 C 82.400 20.078, 85.550 21.610, 90.500 23.455 M 113.269 44.414 C 117.471 54.262, 118.113 54.746, 122.250 51.193 C 124.541 49.225, 124.463 46.859, 122.003 43.731 C 120.083 41.290, 111.403 35, 109.955 35 C 109.569 35, 111.060 39.236, 113.269 44.414 M 139.193 48.575 C 137.155 57.760, 134.985 70.847, 133.620 82.183 L 133.057 86.865 136.778 86.293 C 143.235 85.302, 143.641 84.778, 144.337 76.540 C 144.984 68.891, 143.633 46.941, 142.185 41.575 C 141.501 39.039, 141.102 39.972, 139.193 48.575 M 79 41.632 C 65.363 42.604, 50 45.979, 50 48.003 C 50 50.044, 63.207 52.657, 82 54.334 C 92.340 55.256, 95.500 55.866, 95.500 56.940 C 95.500 57.829, 93.387 58.822, 89.720 59.655 C 74.207 63.178, 49 79.283, 49 85.671 C 49 87.897, 55.621 86.907, 66.803 83.007 C 74.911 80.179, 76.321 80, 90.488 80 C 105.386 80, 121.805 78.571, 123.243 77.149 C 123.651 76.745, 120.776 68.929, 116.852 59.780 C 111.349 46.948, 109.237 43.026, 107.609 42.619 C 104.494 41.840, 85.347 41.179, 79 41.632 M 119 57.313 C 119 57.909, 125.758 73.799, 126.570 75.114 C 127.558 76.713, 131 74.003, 131 71.626 C 131 70.359, 129.789 67.787, 128.308 65.911 C 125.582 62.456, 119 56.376, 119 57.313 M 129.205 78.253 C 128.474 79.134, 128.576 80.247, 129.547 82.003 C 130.923 84.489, 130.929 84.483, 130.965 80.750 C 131.003 76.674, 130.779 76.356, 129.205 78.253 M 114.500 92.034 C 95.222 94.626, 64.311 96.338, 46.556 95.798 L 30.900 95.322 34.952 99.451 C 43.389 108.048, 51.761 111.758, 77 118.089 C 85.525 120.227, 95.255 123.331, 98.623 124.988 C 104.199 127.731, 105.642 128, 114.791 128 C 127.064 128, 128.006 127.689, 127.980 123.643 C 127.960 120.635, 127.492 120.277, 117.060 115.291 C 105.067 109.560, 102.897 107.121, 106.904 103.876 C 109.191 102.025, 116.537 100.269, 124 99.789 C 128.911 99.474, 129.817 98.475, 129.930 93.250 C 129.974 91.208, 129.535 90.053, 128.750 90.144 C 128.063 90.223, 121.650 91.073, 114.500 92.034 M 132 100.717 C 132 105.341, 132.338 106.073, 136.003 109.384 C 138.204 111.373, 140.234 113, 140.514 113 C 140.967 113, 133.332 97.113, 132.384 96.083 C 132.173 95.854, 132 97.939, 132 100.717 M 118.390 103.089 C 111.879 104.178, 108 105.652, 108 107.039 C 108 107.925, 125.518 117, 127.228 117 C 128.332 117, 128.975 105.822, 127.978 103.959 C 126.849 101.849, 126.170 101.787, 118.390 103.089 M 131.008 113.646 C 131.015 118.269, 131.208 118.610, 135.069 120.815 C 140.547 123.944, 140.241 126.949, 134.250 128.845 L 130 130.190 130 135.211 C 130 140.165, 129.963 140.225, 127.250 139.646 C 113.611 136.731, 86.694 136.452, 72.500 139.078 C 59.753 141.436, 61.680 142.804, 82.055 145.860 C 96.561 148.036, 100.267 149.731, 100.826 154.448 C 101.303 158.471, 94.795 164.180, 80.961 171.876 C 63.348 181.673, 59 184.342, 59 185.355 C 59 186.324, 65.914 185.894, 83.217 183.848 L 92.933 182.699 95.217 178.099 C 98.185 172.120, 102.315 170.004, 111.020 170.002 C 118.812 170, 126.919 172.145, 144.999 178.993 C 152.423 181.806, 160.411 184.369, 162.749 184.689 C 166.729 185.235, 166.999 185.120, 166.978 182.886 C 166.952 180.009, 161.902 169.938, 159.917 168.804 C 159.138 168.359, 153.313 166.185, 146.974 163.973 C 134.534 159.632, 129.295 156.931, 128.304 154.350 C 127.300 151.735, 130.410 150.284, 140.836 148.504 C 152.697 146.478, 165.428 142.771, 162.322 142.247 C 159.183 141.718, 152.921 134.504, 147.613 125.301 C 144.991 120.756, 141.989 116.860, 140.630 116.241 C 139.319 115.644, 136.616 113.724, 134.623 111.974 L 131 108.793 131.008 113.646 M 131 122.918 C 131 123.423, 130.701 124.616, 130.336 125.568 C 129.765 127.054, 130.084 127.196, 132.584 126.568 C 136.474 125.592, 136.690 125.234, 134.427 123.521 C 132.190 121.829, 131 121.619, 131 122.918" stroke="none" fill="black" fill-rule="evenodd"/>
</svg>