<svg xmlns="http://www.w3.org/2000/svg" width="200" height="200" viewBox="0 0 200 200" version="1.1">
	<path d="M 162.753 1.721 C 159.633 5.167, 151.904 39.790, 143.415 88.340 L 140.645 104.179 137.573 103.555 C 130.612 102.142, 116.267 101.777, 111.115 102.882 C 104.747 104.248, 103.768 103.701, 101.697 97.624 L 100.248 93.371 107.898 92.256 C 122.799 90.084, 133.414 83.913, 138.221 74.628 C 140.817 69.613, 141.794 55.931, 140.115 48.101 C 139.002 42.910, 139.006 42.894, 143.139 37.033 C 146.289 32.567, 147.394 29.952, 147.765 26.091 C 148.230 21.254, 148.070 20.835, 144.332 17.096 C 137.784 10.549, 132.514 9.495, 106.500 9.529 C 83.811 9.558, 70.506 11.135, 63.833 14.586 C 62.274 15.393, 59.946 15.774, 58.618 15.440 C 55.509 14.660, 54.326 16.598, 56.466 18.963 C 58.362 21.057, 80.981 32.809, 88.484 35.598 L 93.468 37.450 80.484 38.732 C 49.832 41.757, 37.159 45.613, 42.017 50.435 C 43.938 52.342, 53.745 54.911, 62 55.671 C 65.575 55.999, 69.102 56.585, 69.837 56.973 C 71.660 57.933, 65.197 63.518, 51.392 72.912 C 32.230 85.953, 29.044 89.226, 34.250 90.522 C 36.788 91.154, 49.701 87.957, 67.500 82.289 C 79.421 78.494, 79.548 78.477, 86.889 79.707 C 90.954 80.388, 94.512 81.179, 94.797 81.463 C 95.081 81.748, 95.615 83.964, 95.983 86.389 L 96.652 90.797 78.076 91.429 C 31.719 93.008, 27 93.752, 27 99.486 C 27 103.250, 34.239 109.433, 44.755 114.652 L 54.083 119.282 48.985 122.194 C 44.639 124.675, 43.230 125.007, 39.443 124.439 C 36.999 124.073, 35 124.107, 35 124.515 C 35 124.924, 36.463 126.954, 38.250 129.028 C 45.649 137.610, 47.475 141.810, 47.805 151 C 48.023 157.071, 47.555 161.575, 46.167 166.760 C 45.098 170.753, 44.529 174.209, 44.902 174.439 C 46.205 175.245, 65.599 179.917, 78 182.414 C 104.609 187.771, 135.614 189.998, 156.933 188.083 C 163.772 187.469, 169.578 186.755, 169.837 186.496 C 170.741 185.592, 167.879 168.751, 165.940 163.570 C 164.864 160.694, 162.375 156.462, 160.409 154.164 L 156.833 149.987 159.417 146.917 C 160.838 145.228, 164.813 142.418, 168.250 140.673 C 173.367 138.075, 174.557 137.002, 174.816 134.750 C 175.282 130.707, 172.270 130, 154.592 130 L 139.315 130 139.917 126.293 C 140.466 122.918, 140.879 122.515, 144.510 121.797 C 152.185 120.280, 153 119.950, 153 118.356 C 153 117.099, 152.347 116.886, 150 117.375 C 139.777 119.505, 140.710 119.638, 141.388 116.147 C 141.725 114.416, 142.261 111.650, 142.579 110 C 143.142 107.086, 143.323 107, 148.845 107 C 156.566 107, 160.820 104.587, 164 98.402 C 166.411 93.714, 166.488 92.968, 166.172 77.520 C 165.992 68.709, 165.790 58.350, 165.723 54.500 C 165.656 50.650, 165.965 37.600, 166.409 25.500 C 167.078 7.305, 166.976 3.186, 165.824 1.684 C 164.478 -0.069, 164.372 -0.068, 162.753 1.721 M 161.268 13.502 C 156.628 30.135, 143.104 102.438, 144.392 103.725 C 145.650 104.983, 153.559 104.279, 156.759 102.625 C 161.696 100.071, 163.442 95.052, 163.830 82.300 C 164.017 76.140, 163.681 67.949, 163.083 64.097 C 162.307 59.096, 162.299 52.861, 163.055 42.296 C 163.638 34.158, 163.976 22.550, 163.807 16.500 L 163.500 5.500 161.268 13.502 M 92.676 12.062 C 82.677 12.949, 70 14.950, 70 15.642 C 70 15.895, 72.467 16.003, 75.483 15.881 C 81.550 15.635, 81.139 15.395, 92 25.538 C 95.575 28.877, 99.963 32.201, 101.750 32.926 C 103.537 33.650, 105 34.638, 105 35.121 C 105 35.605, 105.675 36, 106.500 36 C 107.325 36, 108 36.675, 108 37.500 C 108 38.420, 107.064 39, 105.580 39 C 103.406 39, 103.001 39.700, 101.589 45.908 C 99.395 55.556, 98.043 65.501, 98.020 72.171 C 98.001 77.551, 98.141 77.872, 100.750 78.441 C 104.895 79.345, 112.953 77.491, 115.365 75.079 C 118.223 72.218, 118.036 66.514, 114.640 53 C 111.736 41.442, 111.431 38.644, 113.136 39.212 C 114.768 39.756, 119.913 61.481, 119.960 68.027 C 120.027 77.319, 115.471 81, 103.907 81 L 97.750 81 98.375 84.125 C 98.719 85.844, 99 87.934, 99 88.770 C 99 90.030, 100.066 90.188, 105.250 89.698 C 130.901 87.270, 141.812 73.942, 137.608 50.171 L 136.134 41.841 139.675 37.203 C 143.904 31.662, 145 29.025, 145 24.387 C 145 14.118, 124.345 9.253, 92.676 12.062 M 72.585 18.891 C 71.088 19.478, 72.495 20.390, 79.034 23.071 C 83.634 24.957, 87.871 26.637, 88.449 26.805 C 89.027 26.972, 87.262 25.060, 84.527 22.555 C 79.560 18.005, 76.915 17.194, 72.585 18.891 M 64 20.535 C 64 21.409, 83.866 30.934, 89.997 32.999 C 96.673 35.248, 99.008 35.082, 94.343 32.690 C 86.570 28.705, 64 19.664, 64 20.535 M 99.500 36 C 99.160 36.550, 99.610 37, 100.500 37 C 101.390 37, 101.840 36.550, 101.500 36 C 101.160 35.450, 100.710 35, 100.500 35 C 100.290 35, 99.840 35.450, 99.500 36 M 78.500 41.607 C 63.442 43.333, 50.102 45.615, 46.370 47.102 L 43.500 48.246 46.817 49.653 C 48.641 50.427, 54.716 51.774, 60.317 52.647 C 71.040 54.319, 73.154 54.961, 73.742 56.727 C 74.486 58.957, 67.574 65.044, 52.569 75.373 C 37.880 85.484, 34.735 88, 36.781 88 C 38.786 88, 53.265 83.951, 65.430 79.989 C 78.696 75.668, 78.783 75.659, 90.593 77.550 L 94.686 78.205 95.315 69.353 C 95.875 61.481, 98.206 46.524, 99.617 41.750 C 100.063 40.244, 99.464 40.016, 95.317 40.116 C 92.668 40.179, 85.100 40.850, 78.500 41.607 M 64.917 94.381 C 64.688 94.591, 57.857 95.054, 49.739 95.410 C 35.011 96.057, 30 96.978, 30 99.041 C 30 102.975, 38.603 109.331, 51.012 114.564 C 58.647 117.784, 58.742 117.797, 64.600 116.373 C 67.845 115.584, 75.107 114.731, 80.738 114.476 C 90.957 114.015, 90.986 114.006, 96.855 109.686 C 102.261 105.706, 102.622 105.204, 101.338 103.448 C 100.570 102.398, 99.434 99.842, 98.813 97.769 L 97.683 94 81.508 94 C 72.612 94, 65.146 94.171, 64.917 94.381 M 110.500 105.713 C 106.781 106.608, 106.858 107.719, 110.856 110.886 C 116.773 115.572, 123.646 118.242, 131.182 118.781 C 138.709 119.319, 138.775 119.252, 139.273 110.506 L 139.500 106.512 134.500 105.843 C 128.781 105.079, 113.481 104.996, 110.500 105.713 M 99.197 111.087 C 96.889 112.784, 95 114.315, 95 114.489 C 95 114.663, 98.158 115.764, 102.018 116.937 C 107.273 118.533, 110.148 120.133, 113.457 123.305 L 117.878 127.541 125.157 125.114 L 132.436 122.688 125.647 120.828 C 116.886 118.428, 112.322 116.031, 108.054 111.588 C 106.158 109.614, 104.335 108, 104.001 108 C 103.667 108, 101.505 109.389, 99.197 111.087 M 70.652 118.049 C 67.986 118.496, 65.592 119.074, 65.333 119.333 C 64.512 120.155, 74.887 122, 80.327 122 C 85.359 122, 90 120.054, 90 117.943 C 90 116.824, 77.544 116.892, 70.652 118.049 M 90.921 121.233 C 87.347 125.492, 80.410 126.034, 67.539 123.060 L 58.075 120.873 53.287 123.072 L 48.500 125.270 52 126.045 C 62.513 128.375, 115 131.026, 115 129.228 C 115 127.166, 106.947 121.287, 101.881 119.651 C 95.085 117.456, 93.953 117.619, 90.921 121.233 M 128 127 L 120.500 129.883 128.750 129.942 L 137 130 137 127 C 137 125.350, 136.662 124.026, 136.250 124.058 C 135.838 124.091, 132.125 125.414, 128 127 M 44.760 129.198 C 44.028 131.132, 48.582 137.733, 51.797 139.395 C 54.711 140.902, 64.408 144.106, 71.750 145.988 C 75.561 146.965, 76 147.386, 76 150.071 C 76 153.989, 78.171 159.007, 80.930 161.467 C 84.308 164.478, 91.680 163.893, 103 159.715 C 119.981 153.448, 133.004 148.329, 133.676 147.657 C 134.038 147.296, 130.154 147, 125.045 147 C 115.684 147, 96.931 144.685, 92.430 142.973 C 86.303 140.644, 91.472 136.799, 103.702 134.589 C 107.991 133.814, 110.150 133.130, 108.500 133.071 C 86.006 132.254, 55.527 129.911, 47.877 128.411 C 46.240 128.090, 45.068 128.386, 44.760 129.198 M 156.622 134.415 C 158.339 135.174, 160.484 136.854, 161.390 138.147 L 163.037 140.498 167.684 137.999 C 170.239 136.624, 172.368 135.050, 172.415 134.500 C 172.465 133.912, 168.583 133.404, 163 133.267 C 154.181 133.051, 153.724 133.133, 156.622 134.415 M 114.500 135.676 C 107.912 136.503, 95.451 139.188, 94.671 139.950 C 94.215 140.394, 96.690 141.271, 100.171 141.899 C 108.942 143.479, 132.876 145.458, 133.665 144.668 C 134.022 144.311, 134.622 141.990, 134.999 139.510 L 135.683 135 126.591 135.150 C 121.591 135.232, 116.150 135.469, 114.500 135.676 M 137.986 137.250 C 137.979 138.488, 137.701 140.512, 137.370 141.750 C 136.811 143.836, 137.091 144, 141.200 144 C 145.370 144, 155.825 142.483, 158.886 141.433 C 160.012 141.047, 159.954 140.606, 158.575 139.082 C 156.478 136.766, 149.765 135, 143.057 135 C 138.483 135, 137.999 135.215, 137.986 137.250 M 50.773 149.357 C 51.091 154.313, 50.680 159.340, 49.538 164.472 C 48.598 168.701, 47.979 172.291, 48.164 172.449 C 48.349 172.608, 54.314 174.173, 61.419 175.927 C 94.580 184.116, 128.560 187.429, 157.972 185.341 L 167.252 184.683 166.666 179.076 C 165.695 169.791, 162.268 160.303, 158.299 155.909 C 154.943 152.194, 154.584 152.039, 152.608 153.441 C 151.449 154.264, 147.277 156.857, 143.337 159.203 C 136.260 163.418, 136.159 163.537, 134.979 169.101 C 133.524 175.954, 132.487 177.887, 131.040 176.440 C 130.316 175.716, 130.455 171.922, 131.496 164.029 C 132.321 157.777, 132.779 152.446, 132.514 152.181 C 132.038 151.704, 124.354 154.425, 106 161.569 C 94.494 166.048, 84.517 167.224, 80.479 164.578 C 77.117 162.375, 74.281 157.621, 73.471 152.831 C 72.947 149.726, 72.315 148.882, 70.162 148.409 C 67.768 147.883, 54.145 143.508, 51.398 142.383 C 50.629 142.069, 50.440 144.178, 50.773 149.357 M 150 145.950 L 146.500 146.637 150 147.661 C 153.946 148.815, 155.596 148.495, 156.391 146.423 C 156.982 144.883, 155.860 144.800, 150 145.950 M 137.258 150.820 C 136.574 151.253, 135.715 153.803, 135.347 156.485 L 134.679 161.362 138.589 158.990 C 148.350 153.070, 150 151.913, 150 150.987 C 150 149.820, 139.059 149.675, 137.258 150.820" stroke="none" fill="black" fill-rule="evenodd"/>
</svg>