<svg xmlns="http://www.w3.org/2000/svg" width="200" height="200" viewBox="0 0 200 200" version="1.1">
	<path d="M 173.647 14.188 C 172.207 16.436, 169.307 25.342, 155.475 70 C 151.812 81.825, 148.569 91.725, 148.268 92 C 147.243 92.937, 148.986 77.529, 150.983 68 C 155.139 48.166, 152.287 32.705, 142.324 21.066 C 137.950 15.955, 130.897 12.450, 128.053 13.972 C 123.749 16.275, 126.172 22.181, 135.861 33.002 L 142.222 40.106 141.748 64.803 C 141.245 90.949, 140.002 99.195, 135.121 108.764 C 130.910 117.018, 123.539 120.982, 114.955 119.609 C 110.709 118.930, 100.601 114.781, 99.720 113.356 C 98.748 111.783, 103.466 107.547, 109.304 104.750 C 124.671 97.388, 126.686 80.126, 117.037 38.500 C 115.380 31.350, 114.018 23.967, 114.012 22.093 L 114 18.687 86.250 19.377 C 50.476 20.267, 48.128 20.534, 46.864 23.858 C 46.328 25.268, 46.142 27.430, 46.451 28.661 C 47.324 32.140, 57.867 43.002, 60.358 42.989 C 61.536 42.983, 67.225 41.902, 73 40.587 L 83.500 38.196 86.750 40.180 C 88.538 41.271, 89.996 42.239, 89.990 42.332 C 89.985 42.424, 86.497 42.615, 82.240 42.755 C 67.116 43.253, 42.297 48.846, 38.541 52.602 C 36.206 54.937, 36.645 55.951, 40.750 57.701 C 43.691 58.955, 48.418 59.322, 62.665 59.400 C 72.657 59.455, 80.757 59.548, 80.665 59.608 C 80.574 59.667, 72.850 62.544, 63.500 66 C 35.232 76.451, 28.162 80.313, 33.528 82.373 C 34.369 82.695, 42.807 82.299, 52.278 81.492 C 72.954 79.731, 86.116 79.613, 94.723 81.112 C 98.235 81.724, 101.392 81.941, 101.738 81.595 C 103.271 80.062, 99.645 78.902, 89.942 77.821 C 81.374 76.866, 75.739 76.951, 58.544 78.290 C 47.019 79.187, 37.445 79.779, 37.271 79.604 C 36.869 79.202, 58.103 70.795, 76.788 63.958 C 84.647 61.082, 90.920 58.260, 90.729 57.686 C 90.503 57.008, 82.348 56.586, 67.440 56.482 C 37.777 56.276, 34.618 55.347, 49 51.058 C 61.656 47.284, 84.268 44.097, 89.348 45.373 C 92.102 46.064, 98.227 54.939, 102.983 65.131 C 105.925 71.435, 108.928 83.405, 107.841 84.492 C 107.562 84.772, 95.445 86.363, 80.916 88.029 C 43.004 92.374, 30.542 94.601, 27.587 97.555 C 23.976 101.167, 29.478 104.026, 45.468 106.847 L 55.399 108.600 56.281 112.050 C 58.991 122.649, 73.268 126.031, 87.789 119.514 C 93.039 117.158, 94.090 116.983, 96.147 118.122 C 98.357 119.345, 98.143 119.470, 92.627 120.191 C 80.022 121.839, 81.393 126.861, 96.586 134.700 L 103.672 138.357 117.010 135.686 C 124.346 134.216, 130.482 133.149, 130.646 133.313 C 131.190 133.857, 124.878 140.995, 122.931 142.037 C 121.551 142.775, 120.249 142.672, 118.259 141.667 C 111.498 138.250, 72.084 136.030, 68.655 138.872 C 64.659 142.186, 68.134 145.943, 83.471 154.890 C 89.262 158.268, 94 161.235, 94 161.484 C 94 161.733, 89.837 164.705, 84.750 168.090 C 65.096 181.167, 62.049 184.100, 65.497 186.621 C 67.589 188.151, 68.035 188.084, 93 182.456 C 122.323 175.846, 135.948 174.979, 140.924 179.407 C 142.790 181.067, 160.335 184, 168.401 184 C 174.480 184, 176.006 182.748, 174.151 179.281 C 173.599 178.250, 166.238 173.296, 157.794 168.271 C 140.741 158.123, 137 155.474, 137 153.543 C 137 151.617, 145.853 150.891, 157 151.903 C 163.154 152.461, 167.204 152.409, 168.500 151.754 C 177.064 147.425, 175.429 140.671, 164.500 135.228 C 162.300 134.132, 156 131.818, 150.500 130.084 C 145 128.351, 139.964 126.747, 139.309 126.521 C 138.500 126.240, 139.447 122.891, 142.262 116.072 L 146.407 106.037 148.846 110.472 C 154.932 121.538, 166.275 119.313, 172.956 105.742 C 178.140 95.210, 179.128 81.153, 175.643 67.492 C 174.653 63.611, 174.756 59.670, 176.217 45.629 C 178.176 26.796, 178.216 12.898, 176.314 12.268 C 175.661 12.052, 174.461 12.916, 173.647 14.188 M 129 17.860 C 129 20.427, 133.203 26.492, 139.343 32.785 L 144.500 38.069 144.498 62.285 C 144.496 81.699, 144.147 88.064, 142.741 94.390 C 139.351 109.633, 133.586 118.659, 125.453 121.455 L 121.656 122.760 126.877 123.880 C 135.685 125.769, 135.220 126.123, 140.217 113.750 C 144.516 103.105, 144.788 101.855, 145.273 90.500 C 145.572 83.515, 146.704 74.530, 147.983 69 C 151.019 55.867, 150.518 41.996, 146.706 33.669 C 143.170 25.946, 140.525 22.393, 135.719 18.911 C 131.077 15.549, 129 15.224, 129 17.860 M 173.669 21.250 C 172.787 23.587, 168.205 38.100, 163.487 53.500 C 158.769 68.900, 153.389 85.900, 151.532 91.278 C 147.985 101.552, 147.967 103.167, 151.328 109.668 C 153.095 113.084, 157.821 115.509, 160.844 114.550 C 172.387 110.886, 178.147 88.357, 172.885 67.457 C 171.925 63.645, 172.012 59.285, 173.328 45.111 C 175.173 25.244, 175.807 17, 175.489 17 C 175.370 17, 174.550 18.913, 173.669 21.250 M 66.500 22.822 L 59.500 23.253 71 25.062 C 84.552 27.193, 89.900 28.832, 91.402 31.313 C 92.294 32.786, 92.052 33.493, 90.108 35.088 C 88.793 36.167, 87.893 37.224, 88.108 37.436 C 88.324 37.649, 92.742 40.607, 97.926 44.009 C 103.111 47.411, 109.976 52.697, 113.183 55.756 L 119.013 61.317 118.382 57.909 C 118.034 56.034, 116.500 48.875, 114.973 42 C 113.446 35.125, 111.907 27.813, 111.553 25.750 L 110.909 22 92.205 22.196 C 81.917 22.304, 70.350 22.586, 66.500 22.822 M 49 27.385 C 49 28.147, 51.122 31.348, 53.715 34.498 L 58.430 40.225 63.465 39.597 C 66.234 39.252, 70.975 38.387, 74 37.674 L 79.500 36.378 74.035 33.563 C 61.299 27.004, 49 23.969, 49 27.385 M 76.689 31.748 C 83.129 34.998, 84.161 35.248, 86.591 34.140 C 90.328 32.438, 88.781 31.272, 80.437 29.504 C 69.761 27.243, 68.847 27.789, 76.689 31.748 M 95 45.404 C 95 45.695, 96.801 48.719, 99.003 52.125 C 104.324 60.358, 107.489 67.313, 108.958 74 C 109.623 77.025, 110.538 80.967, 110.993 82.760 C 111.447 84.553, 111.444 87.253, 110.986 88.760 C 108.607 96.587, 107.093 102.426, 107.370 102.704 C 107.542 102.875, 109.189 101.999, 111.032 100.758 C 115.715 97.601, 119.109 90.508, 119.749 82.539 L 120.275 75.987 116.734 77.467 C 113.631 78.763, 113.124 78.765, 112.632 77.483 C 112.263 76.523, 112.892 75.814, 114.462 75.420 C 115.777 75.090, 117.614 73.979, 118.545 72.950 C 121.311 69.894, 119.526 66.140, 111.674 58.500 C 105.045 52.050, 95 44.161, 95 45.404 M 78.500 91.045 C 53.166 94.033, 39.106 96.197, 32.500 98.124 L 28.500 99.290 31.805 100.670 C 35.201 102.089, 45.038 104.292, 53 105.418 C 57.318 106.029, 57.561 106.245, 59 110.762 C 61.263 117.865, 65.425 120.287, 74.500 119.779 C 78.854 119.536, 83.442 118.530, 86.637 117.119 C 92.944 114.334, 92.848 112.524, 86.119 107.318 L 81.500 103.744 86.116 104.234 C 90.450 104.694, 90.840 104.534, 92.507 101.612 C 93.484 99.900, 96.776 96.138, 99.824 93.250 C 102.871 90.362, 104.720 88.048, 103.932 88.107 C 103.145 88.166, 91.700 89.488, 78.500 91.045 M 102 94.788 C 99.525 96.983, 96.687 100.178, 95.693 101.889 L 93.887 105 97.999 105 C 102.011 105, 102.172 104.867, 104.629 99.500 C 108.345 91.383, 107.516 89.897, 102 94.788 M 93 108.893 C 93 110.625, 96.362 111.067, 97.892 109.537 C 99.274 108.154, 99.106 108, 96.214 108 C 94.446 108, 93 108.402, 93 108.893 M 88 123.947 C 86.718 124.860, 86.863 125.305, 89 127.016 C 90.375 128.116, 94.369 130.453, 97.875 132.207 L 104.250 135.398 118.679 132.516 C 126.615 130.930, 133.304 129.316, 133.544 128.929 C 133.784 128.541, 128.697 127.227, 122.240 126.008 C 108.675 123.447, 90.261 122.339, 88 123.947 M 134.609 133.607 C 125.418 144.271, 124.187 145.251, 120.757 144.642 C 103.979 141.664, 98.687 141.021, 86.500 140.483 C 65.355 139.548, 65.075 140.840, 84 152 C 96.046 159.104, 98.979 161.488, 97.408 162.901 C 96.908 163.350, 90.631 167.579, 83.458 172.300 C 70.222 181.011, 65.385 185.007, 68.095 184.993 C 68.868 184.988, 76.475 183.382, 85 181.423 C 119.685 173.452, 133.041 172.162, 140.539 176.059 C 145.344 178.556, 158.315 181.008, 166.500 180.967 C 173.867 180.929, 174.178 181.221, 154 169.250 C 138.515 160.064, 134 156.407, 134 153.052 C 134 149.634, 138.178 148.808, 153.644 149.170 C 166.422 149.468, 167.992 149.316, 169.894 147.595 C 171.052 146.547, 172 145.327, 172 144.884 C 172 143.550, 167.744 139.952, 163.700 137.867 C 158.904 135.395, 142.493 130, 139.769 130 C 138.640 130, 136.318 131.623, 134.609 133.607" stroke="none" fill="black" fill-rule="evenodd"/>
</svg>