<svg xmlns="http://www.w3.org/2000/svg" width="200" height="200" viewBox="0 0 200 200" version="1.1">
	<path d="M 110 11.105 C 100.925 11.550, 86.097 12.396, 77.049 12.986 L 60.598 14.058 57.839 17.279 C 54.375 21.325, 54.367 22.021, 57.750 25.253 C 63.911 31.139, 83.320 37.630, 92.265 36.796 L 96.029 36.444 91.765 40.658 L 87.500 44.872 80.288 42.424 C 76.321 41.078, 70.471 39.707, 67.288 39.377 C 57.009 38.312, 48 42.335, 48 47.991 C 48 52.465, 48.951 53.929, 53.373 56.266 C 56.773 58.062, 59.174 58.447, 67 58.452 C 72.225 58.455, 77.850 58.120, 79.500 57.708 L 82.500 56.958 79.377 59.851 C 77.659 61.443, 71.584 65.330, 65.877 68.489 C 41.581 81.939, 37 85.181, 37 88.929 C 37 92.004, 41.116 94.069, 49.469 95.185 L 57.020 96.194 61.557 91.147 C 70.795 80.873, 81.888 78.229, 100 81.986 C 117.047 85.521, 120.606 85.948, 124.372 84.908 C 128.768 83.694, 133 78.797, 133 74.923 C 133 71.132, 131.122 71.138, 130.364 74.931 C 129.629 78.605, 126.732 81.778, 123.333 82.631 C 121.866 82.999, 115.847 82.283, 109.610 80.999 C 93.135 77.606, 87.051 76.854, 81.500 77.524 C 74.169 78.410, 64.808 83.275, 60.062 88.667 L 56.019 93.260 49.808 92.558 C 42.771 91.762, 40 90.600, 40 88.445 C 40 86.675, 49.123 80.728, 65.339 71.926 C 79.352 64.320, 85.241 59.691, 84.803 56.626 C 84.533 54.729, 84.016 54.554, 80 55 C 71.289 55.968, 58.526 55.511, 55.212 54.113 C 50.749 52.230, 49.405 49.557, 51.394 46.522 C 54.932 41.121, 67.528 40.693, 80.881 45.519 L 88.261 48.187 94.881 41.783 C 104.664 32.318, 104.198 32.550, 108.768 34.882 C 113.274 37.181, 119 43.271, 119 45.765 C 119 46.698, 117.394 50.062, 115.432 53.241 C 113.428 56.488, 112.003 59.989, 112.182 61.227 C 112.505 63.464, 118.175 68, 120.648 68 C 123.169 68, 121.973 65.508, 118.728 64 C 116.953 63.175, 115.370 61.795, 115.212 60.934 C 115.054 60.073, 116.542 56.698, 118.520 53.434 C 121.289 48.864, 121.983 46.817, 121.538 44.527 C 120.864 41.058, 116.264 35.996, 111.409 33.381 C 109.534 32.371, 108 31.250, 108 30.890 C 108 29.108, 129.442 17.037, 132.656 17.010 C 134.086 16.998, 140.490 43.117, 142.094 55.500 C 142.735 60.450, 143.009 68.711, 142.703 73.857 C 142.103 83.957, 140.850 86.447, 134.775 89.608 C 125.351 94.511, 99.915 97.141, 59.500 97.391 C 40.390 97.509, 31.862 97.914, 30.318 98.778 C 16.551 106.474, 52.110 127.804, 70.250 122.731 C 72.772 122.026, 73 122.191, 73.006 124.731 C 73.015 129.387, 74.872 134.531, 77.402 136.908 C 80.975 140.265, 85.837 140.989, 94.156 139.404 C 98.120 138.649, 101.504 138.170, 101.674 138.341 C 101.845 138.512, 98.254 142.892, 93.695 148.076 C 87.887 154.678, 82.857 159.184, 76.896 163.126 C 63.240 172.154, 59.316 178.295, 64.404 182.671 C 66.562 184.527, 68.282 185, 72.874 185 C 86.938 185, 99.649 178.016, 111.610 163.718 C 114.343 160.451, 115.259 160, 119.169 160 C 124.300 160, 129.315 162.740, 143.500 173.294 C 153.579 180.793, 159.648 184.002, 163.739 183.996 C 170.639 183.987, 175.867 177.151, 178.385 164.844 L 179.684 158.500 170.092 157.893 C 159.006 157.192, 156.221 156.573, 149.868 153.400 C 144.696 150.816, 140.570 146.096, 136.596 138.214 C 133.191 131.463, 127.714 125.405, 122.705 122.850 C 120.543 121.747, 114.996 120.329, 110.378 119.699 C 105.546 119.040, 102.123 118.118, 102.314 117.527 C 102.873 115.801, 110.242 112.172, 116.496 110.543 C 124.744 108.395, 136.433 108.559, 141.579 110.896 C 149.722 114.595, 152.373 121.242, 149.633 131.098 C 148.735 134.327, 148 137.211, 148 137.505 C 148 137.800, 149.743 137.151, 151.874 136.064 C 158.752 132.556, 163.087 125.896, 166.604 113.437 C 167.891 108.878, 168.481 100.420, 169.148 77 C 169.626 60.225, 170.262 42.675, 170.561 38 C 171.066 30.102, 170.906 29.111, 168.302 24.006 C 166.465 20.404, 164.008 17.477, 161.166 15.506 C 157.204 12.757, 156.006 12.471, 147.166 12.163 C 141.850 11.978, 137.072 11.416, 136.550 10.913 C 135.509 9.912, 134.142 9.922, 110 11.105 M 103.500 14.137 C 93.600 14.596, 83.025 15.283, 80 15.663 L 74.500 16.354 84.500 17.515 C 102.133 19.561, 101.832 19.447, 103.116 24.545 C 103.733 26.995, 104.434 29, 104.674 29 C 104.913 29, 107.836 27.148, 111.169 24.886 C 114.501 22.623, 120.889 19.035, 125.364 16.913 L 133.500 13.055 127.500 13.178 C 124.200 13.246, 113.400 13.677, 103.500 14.137 M 141.500 14.680 C 139.850 14.941, 138.124 15.517, 137.665 15.962 C 137.206 16.406, 138.431 23.684, 140.387 32.135 C 146.951 60.495, 147.492 81.575, 141.815 87.752 C 133.913 96.349, 107.983 100.193, 57.792 100.210 C 29.989 100.220, 28.243 100.578, 31.027 105.694 C 34.496 112.069, 53.365 121.029, 63.215 120.978 C 65.572 120.966, 69.365 120.109, 71.646 119.074 L 75.791 117.191 76.162 124.532 C 76.776 136.698, 81.127 139.437, 95.056 136.427 C 103.567 134.588, 105.746 135.095, 104.604 138.649 C 103.379 142.465, 86.482 160.393, 81.030 163.664 C 63.415 174.229, 60.114 182.660, 73.749 182.258 C 85.626 181.907, 98.984 174.887, 106.713 164.933 C 115.808 153.222, 122.125 153.988, 142.579 169.282 C 154.439 178.150, 159.738 181, 164.371 181 C 168.739 181, 172.324 177.016, 174.475 169.771 C 176.987 161.315, 177.030 161.378, 168.250 160.684 C 152.591 159.447, 143.419 154.853, 137.805 145.434 C 128.245 129.392, 127.390 128.338, 121.656 125.532 C 117.560 123.529, 113.977 122.672, 107.966 122.260 C 102.267 121.870, 99.660 121.277, 99.280 120.287 C 96.892 114.064, 113.880 106.044, 129.500 106.020 C 137.027 106.009, 142.574 107.497, 146.751 110.650 C 151.516 114.246, 153.180 118.192, 153.122 125.757 L 153.072 132.281 155.554 129.950 C 158.476 127.204, 162.262 119.400, 163.853 112.842 C 166.003 103.976, 167.170 83.770, 166.471 67.500 C 165.978 56.019, 166.131 50.229, 167.014 47 C 169.856 36.607, 167.804 24.652, 162.356 19.871 C 157.604 15.699, 148.849 13.521, 141.500 14.680 M 59.216 19.787 C 56.995 21.297, 58.932 23.685, 65.003 26.921 C 71.753 30.518, 84.348 34, 90.613 34 C 94.885 34, 100 32.339, 100 30.951 C 100 29.894, 70.091 20.101, 64.899 19.458 C 62.480 19.159, 59.922 19.307, 59.216 19.787 M 90 23.891 C 95.775 25.970, 100.634 27.573, 100.799 27.453 C 100.963 27.334, 100.815 26.112, 100.471 24.739 C 99.892 22.433, 99.175 22.156, 91.104 21.121 C 78.463 19.500, 78.380 19.707, 90 23.891" stroke="none" fill="black" fill-rule="evenodd"/>
</svg>