<svg xmlns="http://www.w3.org/2000/svg" width="200" height="200" viewBox="0 0 200 200" version="1.1">
	<path d="M 138.565 11.928 C 136.253 14.483, 136.613 19.427, 140.572 39.441 C 144.076 57.158, 144.138 57.889, 143.822 78.047 C 143.545 95.735, 143.252 98.972, 141.714 101.316 C 139.752 104.308, 132.931 110.930, 131.767 110.973 C 131.364 110.988, 129.848 108.638, 128.399 105.750 C 126.951 102.862, 124.312 98.458, 122.537 95.962 C 118.024 89.620, 117.303 82.982, 120.688 78.959 C 123.787 75.276, 122.764 72.934, 119.425 76.070 L 117.061 78.291 116.027 75.570 C 115.458 74.073, 113.703 70.970, 112.127 68.674 C 110.552 66.378, 108.736 62.035, 108.093 59.023 C 106.928 53.564, 103.845 47.386, 99.244 41.288 C 97.688 39.225, 94.835 37.334, 91.267 35.999 C 85.848 33.971, 67 23.275, 67 22.227 C 67 21.107, 93.887 22.923, 101 24.523 C 123.936 29.683, 131.125 39.904, 123.059 55.884 C 119.570 62.795, 119.520 63, 121.336 63 C 123.509 63, 128.309 52.319, 128.801 46.390 C 129.362 39.616, 127.923 36.106, 122.558 31.160 C 114.992 24.186, 101.185 20.417, 79.500 19.404 C 58.140 18.407, 45.348 21.062, 49.151 25.703 C 52.012 29.195, 82.953 42, 88.530 42 C 89.834 42, 91.336 41.223, 91.867 40.272 C 92.725 38.740, 93.230 38.964, 96.337 42.258 C 99.641 45.762, 104.025 53.677, 105.509 58.819 C 106.123 60.945, 105.694 60.810, 100.339 57.186 C 86.846 48.057, 75.937 44.544, 61 44.518 C 51.624 44.502, 50.034 44.767, 46.152 46.989 C 41.718 49.528, 39 53.301, 39 56.918 C 39 58.867, 39.428 58.914, 51.828 58.321 C 59.545 57.952, 65.351 58.097, 66.402 58.685 C 67.959 59.557, 67.762 60.002, 64.572 62.802 C 62.605 64.529, 54.546 69.758, 46.662 74.421 C 31.513 83.382, 29.424 85.056, 30.357 87.487 C 31.186 89.647, 36.738 89.421, 51.743 86.614 C 58.760 85.302, 69.011 83.743, 74.525 83.151 C 91.144 81.365, 102.391 76.991, 105.808 70.985 C 106.739 69.350, 107.725 68.011, 108 68.008 C 108.914 68, 113.839 76.457, 114.523 79.208 C 115.006 81.152, 114.603 82.749, 113.093 84.869 C 110.734 88.182, 112.844 87.880, 77 90.027 C 43.425 92.037, 30 95.714, 30 102.899 C 30 105.618, 36.517 111.081, 42.257 113.174 C 49.114 115.674, 60.181 122.646, 67.159 128.860 C 71.645 132.855, 78 141.320, 78 143.299 C 78 143.856, 76.318 143.987, 73.976 143.612 C 70.517 143.059, 69.219 143.438, 64.726 146.314 C 59.025 149.964, 53.569 155.630, 52.493 159.021 C 49.566 168.245, 61.466 178.939, 80.201 183.920 C 94.982 187.850, 104.831 187.696, 109.870 183.456 L 112.598 181.161 118.562 184.023 C 134.408 191.629, 150.852 189.385, 163.415 177.904 C 179.158 163.515, 180.557 140.853, 166.704 124.609 L 163.386 120.718 155.693 121.664 L 148 122.610 147.820 112.555 C 147.721 107.025, 147.586 92.375, 147.520 80 C 147.454 67.625, 147.088 47.825, 146.706 36 L 146.011 14.500 148.255 19 C 150.423 23.346, 150.484 24.238, 150.032 45 C 148.839 99.768, 149.442 106.056, 156.650 114.034 C 159.744 117.459, 167.250 121.226, 168.358 119.910 C 169.098 119.032, 177.988 73.033, 178.965 65.026 C 181.971 40.410, 178.101 23.432, 167.779 15.955 C 162.836 12.374, 159.036 11.347, 148.315 10.696 C 141.415 10.276, 139.885 10.469, 138.565 11.928 M 140.331 14.579 C 139.532 16.663, 140.635 27.106, 142.384 34 L 143.779 39.500 143.889 29.375 C 144.007 18.565, 143.312 13, 141.844 13 C 141.345 13, 140.665 13.710, 140.331 14.579 M 149 13.335 C 149 13.532, 149.669 15.033, 150.486 16.671 C 153.379 22.470, 154.197 34.072, 153.066 53.267 C 151.068 87.175, 151.767 99.755, 156.151 108.813 C 158.153 112.947, 163.370 117.364, 165.445 116.681 C 166.611 116.297, 173.278 84.715, 175.566 68.737 C 177.580 54.676, 177.122 36.980, 174.560 29.867 C 172.245 23.437, 166.867 17.474, 161.739 15.648 C 157.615 14.180, 149 12.615, 149 13.335 M 61.083 25.355 C 61.858 26.015, 71 28.882, 71 28.465 C 71 27.572, 64.975 25, 62.883 25 C 61.664 25, 60.854 25.160, 61.083 25.355 M 59.038 28.295 C 59.836 29.206, 81.023 37.581, 84.500 38.359 C 91.230 39.866, 83.584 36.027, 72.607 32.388 C 66.498 30.363, 60.825 28.476, 60 28.194 C 59.175 27.912, 58.742 27.957, 59.038 28.295 M 48.331 48.873 C 44.757 50.550, 42 53.410, 42 55.439 C 42 55.753, 46.431 55.720, 51.846 55.365 C 63.585 54.595, 68.579 55.345, 70.052 58.097 C 71.727 61.227, 65.792 66.319, 48.500 76.590 C 30.877 87.058, 31.188 87.570, 52.789 83.656 C 60.330 82.290, 70.775 80.696, 76 80.113 C 91.891 78.343, 100.179 74.986, 104.038 68.759 L 106.058 65.500 102.287 62.185 C 92.171 53.291, 78.079 47.969, 63 47.348 C 54.070 46.980, 51.876 47.208, 48.331 48.873 M 111.675 93.555 L 109.962 97.147 112.231 96.439 C 114.866 95.616, 116.101 94.088, 115.749 92.083 C 115.264 89.324, 113.366 90.010, 111.675 93.555 M 85.500 92.093 C 50.057 94.122, 33 97.450, 33 102.336 C 33 104.673, 38.403 108.825, 44.304 111.023 C 55.316 115.124, 72.775 128.661, 77.905 137.076 C 81.912 143.649, 79.950 148.029, 73.701 146.461 C 68.852 145.244, 56.836 153.821, 55.406 159.519 C 53.930 165.397, 57.882 171.071, 66.699 175.736 C 83.393 184.567, 107.775 186.728, 109.580 179.536 C 110.338 176.516, 109.575 174.278, 106.510 170.534 C 104.216 167.734, 103.894 167.637, 100.720 168.784 C 95.804 170.562, 91.245 170.326, 90.126 168.236 C 88.666 165.507, 91.214 160.677, 97.719 153.843 C 108.034 143.008, 118.052 139.097, 121.604 144.519 C 124.067 148.278, 122.991 160.244, 119.194 171.322 L 116.170 180.144 120.835 182.148 C 140.621 190.649, 161.370 183.050, 170.388 164 C 176.117 151.897, 174.136 137.381, 165.360 127.165 L 162.495 123.830 155.116 124.557 L 147.738 125.284 148.119 145.871 C 148.455 164.019, 148.313 166.495, 146.922 166.769 C 145.665 167.017, 144.583 164.017, 141.601 152.012 C 139.543 143.724, 137.061 134.595, 136.086 131.726 L 134.312 126.510 120.203 125.348 C 104.277 124.036, 97.621 122.811, 91.346 120.035 C 85.807 117.585, 84.018 114.147, 86.395 110.520 C 88.407 107.449, 95.786 102.675, 102.016 100.413 C 105.662 99.089, 106.852 98.024, 108.192 94.887 L 109.851 91 104.676 91.146 C 101.829 91.226, 93.200 91.652, 85.500 92.093 M 117.707 96.322 C 117.376 97.183, 115.282 98.434, 113.053 99.102 C 108.862 100.358, 108.373 101.473, 108.928 108.500 C 109.550 116.374, 117.237 118.960, 126.282 114.337 L 129.065 112.915 125.511 106.208 C 120.627 96.989, 118.490 94.282, 117.707 96.322 M 98.500 105.055 C 90.586 109.052, 87.152 112.415, 88.591 114.761 C 90.980 118.654, 111.540 123, 127.568 123 C 132.553 123, 133.130 122.795, 132.494 121.250 C 132.097 120.287, 131.547 118.713, 131.270 117.750 C 130.667 115.652, 129.343 115.589, 126 117.500 C 124.625 118.286, 121.093 118.945, 118.150 118.965 C 113.376 118.996, 112.434 118.634, 109.400 115.600 C 106.422 112.622, 106 111.567, 106 107.100 C 106 104.295, 105.662 102.006, 105.250 102.013 C 104.838 102.020, 101.800 103.389, 98.500 105.055 M 138.675 108.563 L 132.851 114.052 134.254 118.276 C 135.610 122.361, 135.810 122.510, 140.328 122.805 L 145 123.110 145 113.055 C 145 107.525, 144.887 103.016, 144.750 103.036 C 144.613 103.057, 141.879 105.543, 138.675 108.563 M 138.245 129.250 C 138.872 131.037, 140.841 137.900, 142.621 144.500 C 145.799 156.282, 145.859 156.400, 145.924 151 C 145.960 147.975, 145.699 141.113, 145.344 135.750 L 144.698 126 140.901 126 L 137.104 126 138.245 129.250 M 108.877 147.863 C 103.616 151.200, 97.803 156.919, 94.214 162.290 C 90.694 167.557, 92.147 168.669, 99.275 166.163 L 104.834 164.210 107.973 168.116 C 109.700 170.265, 111.680 173.661, 112.373 175.664 L 113.634 179.306 116.246 171.401 C 120.101 159.740, 121.606 150.625, 120.191 147.519 C 118.629 144.092, 114.631 144.214, 108.877 147.863" stroke="none" fill="black" fill-rule="evenodd"/>
</svg>