<svg xmlns="http://www.w3.org/2000/svg" width="200" height="200" viewBox="0 0 200 200" version="1.1">
	<path d="M 155.997 38.691 C 155.993 66.126, 154.912 83.361, 152.467 94.954 C 151.200 100.960, 151.144 99.728, 151.793 80 C 152.767 50.392, 152.364 38.091, 150.230 32.258 C 148.661 27.969, 147.504 26.836, 138.495 20.771 C 128.789 14.237, 124.979 12.676, 125.020 15.250 C 125.031 15.938, 127.738 20.972, 131.035 26.437 C 134.351 31.932, 138.185 39.979, 139.612 44.437 C 142.454 53.319, 143.676 66.188, 142.277 72.500 C 141.566 75.704, 141.844 77.794, 143.674 83 C 147.889 94.996, 146.299 107.850, 139.648 115.544 C 136.644 119.019, 136.261 119.182, 134.142 117.890 C 132.889 117.125, 129.847 113.480, 127.381 109.789 L 122.898 103.078 124.056 96.789 C 125.989 86.294, 124.543 73.838, 117.360 39.135 C 114.628 25.934, 114.618 25.752, 116.547 24.277 C 118.298 22.939, 117.207 22.853, 106 23.439 C 72.650 25.183, 55.991 25.946, 50.667 25.972 C 46.455 25.992, 44.948 26.348, 45.247 27.250 C 45.530 28.106, 49.417 28.704, 57.580 29.148 C 77.561 30.235, 90 34.161, 90 39.380 L 90 41.790 83.835 39.871 C 76.190 37.492, 62.169 35, 56.428 35 C 48.522 35, 49.727 38.759, 58.433 41.256 L 63.366 42.670 58.433 43.911 C 55.720 44.594, 50.912 46.531, 47.750 48.215 C 39.159 52.792, 40.029 56.289, 52.067 65.552 C 56.207 68.737, 58 70.798, 58 72.371 C 58 76.596, 49.711 82.575, 34 89.681 C 28.775 92.045, 24.500 94.546, 24.500 95.239 C 24.500 95.933, 25.002 96.408, 25.615 96.295 C 30.755 95.350, 47.140 93.800, 65.500 92.523 C 97.124 90.323, 106.920 88.385, 107.063 84.301 C 107.119 82.712, 107.222 82.735, 107.936 84.500 C 108.381 85.600, 109.050 88.313, 109.423 90.528 L 110.101 94.556 102.800 94.601 C 98.114 94.631, 91.023 95.761, 83 97.757 C 76.125 99.468, 67.830 101.347, 64.566 101.934 C 56.142 103.448, 39.719 103.224, 31.500 101.483 C 27.651 100.667, 24.195 100, 23.821 100 C 22.234 100, 28.747 109.704, 33.571 114.528 C 43.837 124.793, 59.995 130.309, 73.118 128.026 C 81.545 126.560, 90.721 122.018, 97.224 116.094 C 100.126 113.451, 103.949 110.544, 105.720 109.634 C 108.965 107.967, 110.758 105.550, 111.890 101.319 L 112.505 99.021 115.752 100.996 C 119.591 103.330, 119.680 103.866, 116.832 107.486 C 114.239 110.783, 109.336 113, 104.639 113 C 100.824 113, 100 114.181, 100 119.648 C 100 124.230, 101.383 126.630, 105.146 128.576 C 111.632 131.930, 126.885 129.543, 133.975 124.065 C 136.301 122.267, 136.616 122.251, 139.225 123.792 C 140.751 124.693, 142 125.749, 142 126.137 C 142 126.525, 139.985 128.857, 137.523 131.319 C 128.845 139.997, 120.021 140.905, 97.947 135.391 C 76.104 129.935, 70.502 130.429, 64.600 138.334 C 59.561 145.083, 65.423 165.264, 75.165 174.699 C 85.436 184.648, 96.396 187, 132.489 187 L 158.802 187 164.853 182.451 C 171.313 177.595, 176 172.622, 176 170.623 C 176 166.592, 169.720 166.109, 148.500 168.510 C 122.434 171.458, 108.749 170.056, 103.575 163.907 C 100.476 160.224, 100.121 155.414, 102.884 154.537 C 107.234 153.156, 122.528 152.013, 137 151.987 C 161.576 151.944, 169 150.178, 169 144.378 C 169 141.355, 163.829 136.266, 154.122 129.735 L 146.341 124.500 148.229 120.203 L 150.117 115.906 152.333 120.098 C 155.076 125.285, 160.009 128.162, 165.500 127.779 L 169.500 127.500 171.239 117 C 176.455 85.512, 177.279 78.137, 177.327 62.500 C 177.369 48.758, 177.051 45.332, 175.072 38.225 C 171.755 26.314, 165.426 17.210, 157.250 12.589 C 156.264 12.031, 155.999 17.534, 155.997 38.691 M 158.990 39.576 C 158.976 70.198, 157.426 88.158, 153.365 104.745 C 151.970 110.440, 151.982 111.428, 153.494 115.982 C 155.447 121.861, 158.970 125, 163.616 125 C 167.598 125, 166.970 127.036, 171.173 100.500 C 173.799 83.924, 174.354 77.504, 174.420 63 C 174.492 47.341, 174.255 44.711, 172.166 38 C 169.702 30.078, 165.702 22.948, 161.519 19.018 L 159 16.651 158.990 39.576 M 131.382 21.461 C 142.220 38.001, 147.890 58.664, 145.250 72 C 144.567 75.452, 144.756 77.645, 146.063 81.418 C 147.712 86.178, 147.786 86.243, 148.344 83.418 C 148.661 81.813, 149.211 72.625, 149.567 63 C 150.236 44.864, 149.264 34.685, 146.443 30.308 C 145.194 28.371, 131.862 19, 130.354 19 C 130.033 19, 130.496 20.107, 131.382 21.461 M 89.295 26.950 C 83.133 27.294, 77.770 27.896, 77.379 28.288 C 76.987 28.680, 77.529 29.010, 78.583 29.022 C 81.329 29.053, 88.460 32.460, 90.911 34.911 C 92.095 36.095, 93 38.291, 93 39.980 C 93 42.429, 93.684 43.308, 96.845 44.921 C 105.887 49.534, 109.411 57.666, 104.869 63.439 L 102.739 66.148 106.826 74.824 C 109.074 79.596, 111.415 86.452, 112.027 90.060 C 113.041 96.040, 113.443 96.784, 116.576 98.471 C 118.466 99.489, 120.309 100.025, 120.671 99.662 C 121.960 98.373, 122.219 83.225, 121.102 74.431 C 120.478 69.519, 118.367 57.625, 116.411 48 C 114.456 38.375, 112.654 29.488, 112.409 28.250 C 111.908 25.727, 111.552 25.707, 89.295 26.950 M 60.500 39.087 C 66.245 40.840, 88.131 45.202, 88.638 44.695 C 89.846 43.487, 65.942 37.999, 60 38.121 C 57.668 38.168, 57.701 38.233, 60.500 39.087 M 53.724 48.361 C 43.221 52.792, 42.833 54.089, 50.184 60.195 C 62.773 70.650, 63.555 72.987, 56.619 79.430 C 54.209 81.669, 48.696 85.435, 44.369 87.799 L 36.500 92.098 41.500 91.561 C 44.250 91.266, 53.700 90.560, 62.500 89.992 C 91.921 88.093, 104 86.196, 104 83.476 C 104 82.680, 101.300 80.666, 98 79 C 91.713 75.826, 89.876 73.260, 94.750 74.460 C 98.585 75.404, 106 79.852, 106 81.209 C 106 81.827, 106.254 82.079, 106.565 81.768 C 107.326 81.007, 101.573 69.720, 99.582 68.068 C 98.712 67.346, 98 66.234, 98 65.596 C 98 63.335, 86.761 53.151, 80.701 49.922 C 72.180 45.380, 62.166 44.800, 53.724 48.361 M 90.456 47.071 C 90.046 47.734, 88.218 47.890, 85.647 47.481 L 81.500 46.821 86 49.758 C 88.475 51.373, 92.909 55.260, 95.854 58.397 C 100.815 63.682, 101.307 63.967, 102.572 62.300 C 104.199 60.154, 104.398 55.612, 102.982 52.966 C 101.936 51.012, 94.194 46, 92.221 46 C 91.614 46, 90.820 46.482, 90.456 47.071 M 88 99.481 C 67.032 104.896, 57.290 106.298, 45 105.670 C 38.675 105.346, 32.487 104.786, 31.250 104.424 C 27.560 103.346, 28.604 105.546, 34.750 111.803 C 45.009 122.246, 59.686 127.488, 72.517 125.290 C 81.253 123.794, 88.473 120.272, 96.135 113.773 C 99.697 110.751, 103.638 107.729, 104.891 107.058 C 107.182 105.832, 110.618 99.285, 109.538 98.204 C 107.885 96.552, 96.798 97.209, 88 99.481 M 147.181 108.176 C 146.473 110.197, 144.385 113.828, 142.540 116.243 C 139.310 120.473, 139.259 120.680, 141.134 121.852 C 142.205 122.520, 143.455 122.837, 143.911 122.555 C 145.490 121.579, 149.154 110.224, 148.812 107.368 L 148.468 104.500 147.181 108.176 M 119.170 108.983 C 116.510 112.581, 112.939 114.524, 107.247 115.470 C 102.210 116.307, 100.719 119.396, 103.386 123.466 C 106.851 128.755, 117.402 129.012, 128.555 124.079 C 133.147 122.048, 134.157 120.381, 131.431 119.335 C 130.568 119.004, 128.053 115.868, 125.842 112.367 C 123.630 108.865, 121.721 106, 121.598 106 C 121.476 106, 120.384 107.343, 119.170 108.983 M 138.998 133.046 C 129.191 143.301, 120.975 144.124, 94.598 137.494 C 86.952 135.572, 79.370 134, 77.749 134 C 73.440 134, 68.668 136.600, 66.623 140.061 C 65.033 142.752, 64.963 143.852, 65.991 149.947 C 68.236 163.254, 74.962 173.429, 84.783 178.375 C 94.151 183.093, 101.622 184, 131.103 184 L 158.311 184 161.906 181.348 C 166.628 177.864, 173 171.804, 173 170.797 C 173 169.538, 161.980 169.862, 145.590 171.604 C 126.355 173.648, 113.710 173.063, 107.190 169.826 C 101.483 166.994, 98 162.095, 98 156.899 C 98 153.361, 98.263 153.018, 101.750 152.015 C 107.332 150.408, 125.633 149.035, 141.701 149.016 C 157.214 148.998, 165.497 147.754, 166.439 145.299 C 167.218 143.267, 161.576 137.878, 152.204 131.704 C 148.277 129.117, 144.938 127.066, 144.782 127.146 C 144.627 127.226, 142.024 129.881, 138.998 133.046" stroke="none" fill="black" fill-rule="evenodd"/>
</svg>