<svg xmlns="http://www.w3.org/2000/svg" width="200" height="200" viewBox="0 0 200 200" version="1.1">
	<path d="M 100 12.530 C 62.678 15.655, 62 15.751, 62 17.936 C 62 23.039, 81.341 35.593, 93.082 38.111 C 96.917 38.933, 99.269 38.905, 102.516 37.995 C 104.895 37.329, 107.385 37.120, 108.049 37.531 C 111.034 39.375, 104.309 40.242, 80.670 41.059 C 53.102 42.013, 50.956 42.286, 48.343 45.173 C 46.745 46.940, 46.714 47.394, 48.033 49.697 C 48.840 51.105, 52.283 53.932, 55.685 55.980 C 61.415 59.428, 62.225 59.644, 66.685 58.911 C 69.333 58.475, 74.425 58.107, 78 58.091 L 84.500 58.063 81.796 60.444 C 80.309 61.753, 71.975 67.104, 63.276 72.334 C 47.241 81.975, 38 89.013, 38 91.585 C 38 93.760, 38.809 93.357, 44.228 88.485 C 46.990 86.001, 56.385 79.679, 65.106 74.436 C 73.827 69.193, 82.320 63.760, 83.981 62.363 C 87.271 59.594, 87.915 56.565, 85.418 55.607 C 83.075 54.708, 75.301 54.880, 68.579 55.981 C 62.969 56.900, 62.384 56.794, 57.446 53.969 C 50.414 49.946, 49.005 48.201, 51.384 46.461 C 53.629 44.819, 60.398 44.203, 84 43.491 C 94.175 43.184, 104.140 42.692, 106.144 42.397 L 109.788 41.860 112.894 51.182 C 114.602 56.310, 116 62.050, 116 63.938 C 116 66.017, 116.804 68.227, 118.040 69.542 C 120.706 72.381, 121.572 77.925, 119.733 80.389 C 118.415 82.156, 117.787 82.199, 110.004 81.061 C 86.176 77.577, 76.282 77.893, 66.313 82.457 C 58.354 86.101, 51.615 91.015, 52.864 92.264 C 53.589 92.989, 54.914 92.542, 57.204 90.798 C 66.417 83.783, 78.258 80.455, 90.500 81.440 C 98.012 82.044, 117.152 84.819, 117.720 85.387 C 117.862 85.529, 117.257 87.482, 116.375 89.726 C 114.936 93.391, 114.351 93.867, 110.636 94.394 C 97.938 96.196, 81.365 97.087, 64.968 96.848 L 46.436 96.577 38.468 100.539 C 32.585 103.463, 30.419 105.071, 30.189 106.682 C 29.724 109.954, 32.288 110.826, 50.265 113.510 C 67.888 116.141, 71.989 117.107, 75.623 119.488 C 78.020 121.059, 78.898 125.327, 77.058 126.464 C 75.292 127.556, 74.860 135.482, 75.911 147.513 C 77.769 168.780, 82.363 181.632, 89.929 186.731 C 94.437 189.769, 98.677 189.589, 105.358 186.075 C 110.917 183.151, 110.927 183.149, 128.210 183.269 C 147.835 183.405, 155.122 182.076, 162.464 177.024 C 170.521 171.482, 173.704 159.362, 171.052 144.331 C 169.339 134.622, 168.243 132.315, 164.132 129.759 C 160.983 127.800, 159.150 127.500, 150.335 127.500 L 140.170 127.500 137.620 119.048 C 136.217 114.400, 135.237 110.429, 135.442 110.224 C 135.647 110.019, 140.153 112.135, 145.456 114.926 C 156.971 120.986, 159.933 121.271, 164.441 116.750 C 169.563 111.613, 172.266 102.048, 172.073 89.745 C 171.986 84.217, 172.684 71.178, 173.625 60.770 C 175.553 39.431, 174.850 30.166, 170.684 22.009 C 167.773 16.309, 161.669 11.942, 155.667 11.266 L 151.108 10.752 146.814 19.411 L 142.519 28.071 140.782 21.285 C 139.827 17.553, 139.035 13.488, 139.023 12.250 C 139.002 10.167, 138.574 10.008, 133.250 10.113 C 130.088 10.176, 115.125 11.263, 100 12.530 M 102.651 15.049 C 90.634 16.067, 80.284 17.072, 79.651 17.284 C 79.018 17.495, 83.450 17.979, 89.500 18.359 C 99.984 19.018, 107.532 20.199, 108.695 21.361 C 108.989 21.656, 109.231 24.190, 109.231 26.993 C 109.231 32.310, 110.771 34.997, 113.821 35.004 C 116.620 35.010, 121.988 38.839, 123.026 41.570 C 123.782 43.556, 123.423 45.865, 121.446 51.755 C 119.163 58.557, 119.012 59.881, 120.033 64.136 C 122.059 72.584, 123.218 72.093, 128.027 60.743 C 130.414 55.109, 134.209 46.450, 136.461 41.500 L 140.555 32.500 138.444 23 L 136.333 13.500 130.417 13.349 C 127.162 13.266, 114.668 14.031, 102.651 15.049 M 148.030 23.434 L 143.768 32.868 146.018 43.684 C 148.490 55.564, 149.787 80.574, 148.290 87.500 L 147.426 91.500 138.713 92.943 C 133.921 93.737, 130.035 94.862, 130.078 95.443 C 130.120 96.024, 130.908 98.584, 131.828 101.131 C 133.433 105.578, 133.930 105.986, 144.290 111.381 C 150.224 114.472, 156.379 117, 157.968 117 C 164.930 117, 169.383 106.213, 169.115 90 C 169.029 84.775, 169.641 73.525, 170.476 65 C 172.399 45.364, 172.395 36.936, 170.458 29.499 C 168.625 22.463, 165.388 17.887, 160.655 15.641 C 153.748 12.363, 152.755 12.976, 148.030 23.434 M 66 20.355 C 66 21.328, 78.676 29.417, 84.201 31.970 C 90.910 35.069, 99.286 37.085, 97.499 35.170 C 96.024 33.590, 69.076 20, 67.418 20 C 66.638 20, 66 20.160, 66 20.355 M 88.500 26.983 C 95.650 30.804, 102.299 33.946, 103.275 33.965 C 105.206 34.003, 107 30.365, 107 26.410 C 107 24.770, 106.240 23.662, 104.719 23.083 C 102.801 22.354, 81.031 19.961, 76.828 20.018 C 76.098 20.028, 81.350 23.162, 88.500 26.983 M 112 38.271 C 112 38.943, 113.183 43.047, 114.630 47.390 L 117.260 55.287 118.587 52.131 C 121.070 46.225, 121.305 42.586, 119.318 40.788 C 116.595 38.324, 112 36.743, 112 38.271 M 137.551 45.799 C 135.416 50.585, 131.996 58.397, 129.950 63.160 L 126.230 71.820 130.558 72.910 C 132.938 73.510, 136.261 74, 137.943 74 C 139.624 74, 141 74.398, 141 74.884 C 141 76.622, 133.166 82.805, 130.112 83.475 C 126.622 84.242, 126.555 84.425, 128.119 88.912 C 128.760 90.750, 129.761 91.922, 130.462 91.653 C 131.136 91.394, 134.255 90.862, 137.393 90.470 C 140.532 90.078, 143.698 89.160, 144.428 88.429 C 146.399 86.458, 147.218 73.798, 146.072 63 C 145.128 54.101, 142.414 38.081, 141.736 37.402 C 141.568 37.235, 139.685 41.013, 137.551 45.799 M 124.605 75.587 C 124.303 76.374, 124.473 78.113, 124.982 79.452 C 125.798 81.600, 126.263 81.785, 128.922 81.022 C 130.580 80.547, 132.916 79.472, 134.112 78.634 L 136.288 77.110 133.394 76.472 C 131.802 76.122, 129.297 75.457, 127.827 74.996 C 125.849 74.376, 125.011 74.530, 124.605 75.587 M 119.710 88.750 L 118.206 92.500 121.230 92.823 C 125.296 93.257, 126.260 92.044, 124.915 88.187 C 123.440 83.956, 121.551 84.160, 119.710 88.750 M 120.335 95.717 C 117.215 96.108, 116.583 96.871, 114.991 102.162 L 114.190 104.824 122.083 104.789 L 129.977 104.755 129.342 102.127 C 128.043 96.749, 127.023 95.002, 125.275 95.160 C 124.299 95.248, 122.076 95.499, 120.335 95.717 M 103 98.159 C 99.975 98.642, 85.995 99.211, 71.934 99.425 L 46.368 99.813 39.684 102.844 C 29.264 107.568, 29.457 107.691, 52.500 111.014 C 67.844 113.226, 74.540 115.064, 78.443 118.134 C 81.435 120.487, 81.800 124.413, 79.353 127.906 C 77.955 129.902, 77.801 132.022, 78.335 141.945 C 79.485 163.335, 83.411 177.519, 89.711 183.051 C 92.883 185.836, 93.856 186.164, 97.680 185.733 C 100.076 185.463, 103.847 184.043, 106.060 182.579 C 110.075 179.922, 110.115 179.918, 123.792 180.584 C 146.727 181.702, 160.104 178.333, 165.579 170.060 C 168.946 164.973, 169.921 154.409, 168.020 143.632 C 166.435 134.646, 165.638 133.165, 161.452 131.415 C 158.630 130.236, 141 129.263, 141 130.286 C 141 130.444, 142.375 134.607, 144.056 139.536 C 145.737 144.466, 147.090 149.539, 147.063 150.808 C 146.951 155.974, 136.508 165.479, 126.958 169.108 C 109.330 175.806, 100.218 164.580, 103.091 139.702 C 104.109 130.881, 104.052 129.715, 102.514 128.015 C 100.391 125.670, 100.202 120.921, 101.979 114.574 C 103.138 110.434, 103.898 109.468, 107.055 108.120 C 110.128 106.808, 111.030 105.713, 112.292 101.767 L 113.816 97 111.158 97.141 C 109.696 97.218, 106.025 97.676, 103 98.159 M 117 107.679 C 112.989 108.502, 112.328 109.579, 109.965 119.143 C 107.349 129.731, 107.487 129.978, 116 129.954 C 121.962 129.937, 136.026 128.307, 136.789 127.545 C 137.326 127.007, 132.173 109.871, 131.148 108.787 C 130.242 107.828, 120.130 107.037, 117 107.679 M 106.645 111.497 C 104.512 113.631, 102.699 120.665, 103.481 123.779 C 104.349 127.237, 105.377 125.669, 107.465 117.706 C 109.372 110.432, 109.178 108.965, 106.645 111.497 M 124.500 132.144 C 120.650 132.629, 115.193 132.769, 112.373 132.456 C 106.438 131.797, 106.508 131.686, 105.401 143.593 C 104.540 152.858, 106.283 161.021, 109.964 164.962 C 112.417 167.587, 113.504 168, 117.963 168 C 124.090 168, 131.570 164.772, 137.799 159.440 C 143.655 154.427, 144.291 152.940, 142.455 148.546 C 141.620 146.547, 141.188 144.505, 141.496 144.007 C 141.804 143.509, 141.255 140.379, 140.278 137.052 C 138.254 130.165, 138.820 130.341, 124.500 132.144" stroke="none" fill="black" fill-rule="evenodd"/>
</svg>