<svg xmlns="http://www.w3.org/2000/svg" width="200" height="200" viewBox="0 0 200 200" version="1.1">
	<path d="M 128.729 10.264 C 128.462 10.959, 129.754 16.471, 131.600 22.514 C 143.888 62.737, 143.749 84.386, 131.089 101.746 C 127.415 106.785, 120.545 112.003, 117.600 111.993 C 116.445 111.988, 112.858 109.884, 109.628 107.315 L 103.757 102.645 104.304 97.344 C 104.905 91.518, 109.877 82.181, 115.691 75.958 C 118.873 72.551, 119.929 70, 118.155 70 C 117.690 70, 116.481 70.916, 115.468 72.035 C 113.646 74.048, 113.589 73.990, 110.047 66.598 C 108.078 62.488, 105.545 58.085, 104.418 56.813 C 103.292 55.541, 101.558 52.620, 100.566 50.323 C 97.198 42.524, 89.028 37.374, 78.259 36.263 L 72.669 35.686 86.084 30.750 L 99.500 25.814 105.765 29.024 C 114.668 33.586, 116.512 36.557, 116.452 46.250 C 116.403 54.185, 117.295 55.984, 119.025 51.435 C 120.410 47.793, 120.232 41.491, 118.637 37.673 C 116.686 33.005, 108.940 26.593, 102.246 24.106 C 91.251 20.021, 82.347 18.688, 66 18.682 C 51.089 18.675, 45 19.620, 45 21.940 C 45 24.539, 50.252 25.378, 69.983 25.928 L 90.466 26.500 75.737 31.500 C 67.635 34.250, 61.006 37.015, 61.004 37.645 C 61.001 38.417, 64.821 38.918, 72.750 39.185 C 85.328 39.609, 89.959 41.082, 94.702 46.166 C 96.961 48.588, 100.755 56.527, 99.306 55.800 C 73.647 42.927, 69.458 41.605, 57.182 42.501 C 38.428 43.870, 35.780 46.905, 46.920 54.261 C 50.451 56.592, 54.232 59.712, 55.322 61.193 C 57.226 63.778, 57.235 63.992, 55.558 66.552 C 53.522 69.660, 41.067 75.760, 30.250 78.948 C 25.864 80.241, 23 81.620, 23 82.441 C 23 86.859, 66.354 84.140, 87 78.426 C 95.887 75.967, 100.261 74.054, 104.255 70.881 L 108.010 67.897 109.005 70.514 C 109.552 71.953, 110 74.059, 110 75.193 C 110 77.916, 105.022 86.423, 100.286 91.794 L 96.500 96.088 92.629 93.426 C 78.583 83.765, 57.264 84.335, 28.572 95.138 C 16.228 99.786, 16.354 100.935, 29.183 100.752 C 45.171 100.523, 48.035 103.165, 49.483 119.479 C 50.249 128.105, 53.127 133.666, 58.338 136.589 L 62.171 138.739 57.835 140.855 C 37.710 150.676, 52.945 180.956, 80.606 186.113 C 88.044 187.500, 97.388 185.995, 105.675 182.076 L 111.549 179.298 116.758 183.963 C 126.617 192.795, 137.955 196.135, 146.272 192.660 L 149.980 191.110 152.585 195.555 C 154.018 198, 155.822 200, 156.595 200 C 158.510 200, 158.423 199.674, 155.076 194.297 L 152.153 189.600 154.826 186.508 L 157.500 183.416 158.157 185.958 C 158.519 187.356, 159.114 191.088, 159.479 194.250 C 159.942 198.255, 160.577 200, 161.572 200 C 163.292 200, 163.295 200.676, 161.521 189.018 C 160.240 180.602, 160.251 179.029, 161.614 175.018 C 163.849 168.441, 163.673 158.904, 161.230 154.217 L 159.236 150.391 164.800 147.477 C 180.078 139.478, 179.661 135, 163.638 135 L 155.144 135 154.528 129.250 C 154.190 126.088, 153.659 121.321, 153.350 118.658 C 152.800 113.932, 152.839 113.843, 154.961 114.979 C 159.813 117.576, 164.375 110.818, 171.697 90.185 C 175.706 78.889, 176.256 76.284, 176.720 66.396 C 177.565 48.382, 172.726 30.001, 165 21.880 C 160.792 17.455, 159.326 17.169, 155.657 20.055 C 152.604 22.457, 150.316 29.322, 149.382 38.884 C 148.186 51.136, 146.842 49.139, 147.441 36 L 148.011 23.500 140.401 16.250 C 133.081 9.276, 129.761 7.573, 128.729 10.264 M 131.953 14.727 C 132.407 16.252, 134.379 22.731, 136.334 29.124 C 138.289 35.518, 140.587 44.743, 141.441 49.624 C 143.251 59.973, 143.481 78.597, 141.893 86.201 C 140.043 95.059, 131.651 107.363, 124.265 112.047 L 119.938 114.791 124.614 116.384 C 127.186 117.260, 132.832 118.273, 137.162 118.634 C 146.117 119.381, 146.315 119.619, 146.437 129.749 C 146.498 134.793, 146.607 134.998, 149.250 134.999 C 150.791 135, 151.994 134.450, 151.987 133.750 C 151.949 130.027, 148.792 101.090, 147.487 92.500 C 146.553 86.353, 145.740 71.327, 145.376 53.500 L 144.783 24.500 140.642 20.169 C 138.364 17.786, 135.291 14.964, 133.813 13.896 L 131.126 11.954 131.953 14.727 M 54.500 22 C 54.097 22.653, 59.373 22.954, 69.691 22.866 C 81.252 22.769, 84.157 22.524, 80.500 21.954 C 73.105 20.802, 55.221 20.834, 54.500 22 M 156.687 22.793 C 155.795 23.779, 154.263 27.492, 153.282 31.043 C 151.744 36.615, 151.500 41.884, 151.500 69.500 C 151.500 93.686, 151.836 102.655, 152.875 106.231 C 154.577 112.091, 156.329 113.796, 158.672 111.872 C 161.082 109.893, 166.205 98.275, 170.520 85 C 173.819 74.850, 174.258 72.326, 174.261 63.500 C 174.268 48.200, 169.737 31.595, 163.551 24.242 C 160.443 20.549, 158.995 20.243, 156.687 22.793 M 52 45.656 C 44.395 46.823, 43 47.154, 43.002 47.795 C 43.003 48.183, 45.140 49.850, 47.752 51.500 C 58.096 58.036, 60.569 61.748, 58.380 67.453 C 57.358 70.115, 49.625 74.831, 40.285 78.487 L 31.500 81.926 37.500 81.960 C 57.082 82.069, 86.543 77.033, 96.860 71.813 C 104.827 67.782, 106.182 65.963, 103.460 62.956 C 100.433 59.611, 89.312 53.366, 78.571 48.979 C 70.099 45.518, 67.896 45.018, 61.665 45.136 C 57.724 45.211, 53.375 45.445, 52 45.656 M 54.500 90.426 C 50.650 91.180, 43.675 93.065, 39 94.614 C 32.110 96.898, 31.068 97.488, 33.500 97.730 C 40.795 98.455, 43.255 99.285, 46.461 102.100 C 50.036 105.239, 51.113 108.630, 52.484 121.066 C 53.722 132.289, 59.557 136.882, 73.702 137.764 C 79.738 138.141, 82 138.649, 82 139.629 C 82 140.666, 79.899 140.960, 72.898 140.906 C 65.237 140.846, 63.079 141.204, 59.266 143.167 C 47.667 149.140, 48.848 162.485, 62.023 174.330 C 73.899 185.009, 90.119 186.681, 105.747 178.839 L 111.994 175.704 117.330 180.750 C 120.264 183.526, 125.069 187.015, 128.007 188.504 C 132.548 190.805, 134.298 191.150, 139.672 190.808 C 143.149 190.587, 146.475 189.925, 147.062 189.338 C 147.819 188.581, 145.024 183.064, 137.460 170.385 C 131.592 160.548, 126.651 152.351, 126.481 152.169 C 126.310 151.987, 121.970 154.102, 116.836 156.870 C 96.233 167.976, 84 170.162, 84 162.738 C 84 154.870, 102.152 145.045, 116.750 145.012 C 119.638 145.005, 122 144.716, 122 144.368 C 122 144.020, 121.073 142.236, 119.939 140.402 C 118.400 137.911, 116.946 136.912, 114.189 136.452 C 102.875 134.564, 95.398 131.095, 92.304 126.298 C 91.312 124.759, 88.813 121.882, 86.750 119.905 C 81.382 114.759, 81.934 111.304, 89.548 102.392 L 93.991 97.192 90.519 95.144 C 81.365 89.743, 67.352 87.907, 54.500 90.426 M 99.531 96.293 C 99.103 97.279, 99.034 98.367, 99.376 98.710 C 100.392 99.725, 101.211 98.299, 100.743 96.328 C 100.329 94.581, 100.275 94.580, 99.531 96.293 M 92.857 102.750 C 84.671 111.693, 84.190 114.451, 90 119.120 C 92.200 120.888, 94 122.894, 94 123.578 C 94 125.651, 99.646 129.727, 104.719 131.318 C 110.397 133.098, 116 134.153, 116 133.442 C 116 133.162, 114.875 130.713, 113.500 128 C 110.813 122.697, 110.225 117.998, 112.250 118.004 C 113.902 118.009, 117.721 120.552, 128 128.493 C 135.247 134.091, 137.016 135.018, 140 134.780 C 144.001 134.460, 144.640 132.751, 143.529 125.343 L 142.877 121 136.189 120.967 C 132.008 120.947, 127.438 120.173, 124 118.902 C 120.975 117.784, 116.412 116.484, 113.861 116.012 C 107.546 114.846, 105.423 113.317, 102.767 108.020 C 98.345 99.203, 96.837 98.402, 92.857 102.750 M 105.649 108.528 C 105.971 109.368, 107.195 110.554, 108.368 111.163 C 110.329 112.183, 110.306 112.060, 108.076 109.636 C 105.287 106.604, 104.831 106.396, 105.649 108.528 M 114 122.395 C 114 122.703, 115.212 125.426, 116.692 128.445 C 119.187 133.532, 119.692 133.981, 123.575 134.564 C 131.419 135.740, 131.373 134.795, 123.279 128.500 C 115.304 122.298, 114 121.440, 114 122.395 M 123.269 140.876 C 126.005 145.915, 129.010 146.716, 138.695 144.985 C 143.618 144.105, 146.555 144.059, 149.306 144.819 L 153.109 145.869 152.804 141.684 C 152.530 137.908, 152.256 137.519, 150 137.691 C 141.113 138.372, 137.553 138.357, 129.769 137.607 L 121.038 136.767 123.269 140.876 M 155.687 142.250 C 156.013 145.137, 156.396 147.641, 156.538 147.814 C 157.009 148.390, 170.596 141.191, 171.820 139.717 C 172.827 138.503, 172.408 138.164, 169.262 137.644 C 167.193 137.302, 163.159 137.017, 160.297 137.011 L 155.094 137 155.687 142.250 M 139.579 147.872 C 139.283 148.351, 141.078 149.522, 143.569 150.473 C 147.448 151.955, 148.547 152.016, 151.239 150.901 L 154.381 149.599 151.441 148.345 C 148.043 146.895, 140.372 146.589, 139.579 147.872 M 104.487 149.799 C 95.469 152.917, 86 159.688, 86 163.018 C 86 164.534, 89.733 164.670, 95.045 163.348 C 100.903 161.890, 125 150.214, 125 148.833 C 125 147.283, 109.675 148.005, 104.487 149.799 M 130.748 150.121 C 129.370 150.892, 130.710 153.694, 139.816 169.092 L 150.500 187.159 153.750 183.413 C 155.654 181.218, 156.987 178.597, 156.968 177.083 C 156.925 173.564, 154.271 153.937, 153.770 153.437 C 153.549 153.216, 151.953 153.569, 150.224 154.222 C 147.583 155.218, 146.473 155.117, 143.290 153.586 C 136.365 150.255, 132.444 149.172, 130.748 150.121 M 157.577 158.500 C 157.942 161.800, 158.565 166.300, 158.960 168.500 L 159.679 172.500 160.426 167.929 C 161.171 163.374, 160.039 156.991, 157.956 154 C 157.209 152.926, 157.101 154.205, 157.577 158.500" stroke="none" fill="black" fill-rule="evenodd"/>
</svg>