<svg xmlns="http://www.w3.org/2000/svg" width="200" height="200" viewBox="0 0 200 200" version="1.1">
	<path d="M 131 7.882 C 130.175 8.334, 120.725 9.232, 110 9.877 C 99.275 10.522, 83.598 11.563, 75.162 12.190 C 60.148 13.307, 59.804 13.384, 58.867 15.849 C 55.880 23.707, 68.773 33.592, 85.374 36.173 C 93.099 37.374, 93.132 37.392, 90.823 39.150 C 87.089 41.993, 79.804 43.151, 73.779 41.859 C 66.419 40.281, 61.005 37.781, 51.436 31.544 L 43.119 26.122 41.318 30.811 C 35.773 45.250, 42.324 52.678, 63.229 55.654 C 81.181 58.211, 80.253 57.990, 79.065 59.422 C 78.470 60.139, 73.149 63.128, 67.241 66.064 C 55.271 72.012, 38.435 83.951, 36.726 87.703 C 35.846 89.634, 35.915 90.341, 37.057 91.093 C 38.983 92.360, 42.315 91.702, 63.500 85.868 C 73.400 83.141, 84.214 80.650, 87.531 80.331 C 93.588 79.749, 116.742 82.454, 118.286 83.924 C 118.719 84.336, 119.331 86.268, 119.648 88.218 L 120.223 91.763 114.362 92.875 C 111.138 93.486, 96.575 94.446, 82 95.008 C 36.936 96.745, 24.958 98.060, 23.673 101.411 C 22.423 104.667, 26.225 106.517, 47.480 112.994 C 65.251 118.409, 72.008 121.242, 71.988 123.270 C 71.981 123.947, 68.943 125.729, 65.238 127.232 C 58.396 130.006, 53 134.033, 53 136.366 C 53 138.382, 56.842 141.339, 65.292 145.825 C 76.028 151.526, 79.692 154.536, 83.075 160.433 C 85.393 164.475, 85.983 166.715, 85.991 171.507 C 85.996 174.810, 85.556 179.062, 85.013 180.955 C 83.809 185.151, 84.744 185.963, 90.800 185.985 C 100.820 186.020, 106.961 178.856, 109.188 164.532 C 111.426 150.135, 107.052 130.292, 100.008 122.888 L 96.257 118.944 100.584 115.135 C 106.384 110.029, 116.016 105.009, 120.548 104.728 L 124.234 104.500 126.593 112.500 C 127.891 116.900, 128.963 121.308, 128.976 122.295 C 128.989 123.283, 130.123 125.214, 131.495 126.586 C 133.814 128.905, 133.918 129.414, 132.963 133.791 C 130.075 147.038, 125.436 157.653, 116.619 171.195 C 109.098 182.747, 105.304 190.704, 106.668 192.068 C 107.439 192.839, 108.350 192.170, 109.866 189.717 C 112.850 184.888, 121.351 177.176, 125.771 175.286 C 133.911 171.807, 141.782 173.292, 161.707 182.067 C 166.067 183.988, 167.330 184.171, 169.477 183.192 C 172.650 181.747, 174 178.366, 174 171.865 C 174 167.888, 173.347 165.900, 170.817 162.180 C 164.760 153.273, 156.070 143.254, 146.970 134.688 L 137.832 126.085 138.534 119.529 C 138.920 115.923, 139.635 112.726, 140.123 112.424 C 140.610 112.123, 143.256 114.183, 146.002 117.002 C 150.260 121.373, 151.468 122.081, 154.215 121.814 C 158.133 121.432, 160.899 117.717, 163.916 108.782 C 165.588 103.831, 166 100.139, 166 90.098 C 166 83.216, 166.721 71.996, 167.602 65.165 C 168.587 57.523, 169.053 48.274, 168.814 41.123 C 168.364 27.674, 166.662 22.710, 160.386 16.539 C 156.457 12.677, 146.394 7.273, 145.253 8.414 C 144.738 8.929, 143.609 25.916, 142.988 42.500 C 142.883 45.319, 142.288 43.401, 140.974 36 C 139.948 30.225, 137.959 21.556, 136.555 16.735 C 135.150 11.914, 134 7.752, 134 7.485 C 134 6.774, 132.711 6.945, 131 7.882 M 102.754 12.935 C 89.144 13.883, 77.706 14.961, 77.337 15.329 C 76.968 15.698, 78.111 16, 79.875 16 C 84.949 16, 98.040 18.980, 102.127 21.065 C 106.576 23.334, 107.761 26.189, 105.615 29.465 C 104.101 31.775, 104.186 31.911, 109.090 35.058 C 112.464 37.223, 113.786 38.614, 113.110 39.290 C 112.434 39.966, 111.264 39.748, 109.551 38.626 C 108.148 37.706, 107.007 37.077, 107.017 37.227 C 107.026 37.377, 108.084 40.378, 109.368 43.895 C 110.837 47.920, 111.987 49.830, 112.471 49.048 C 112.893 48.364, 115.297 46.499, 117.812 44.904 C 121.043 42.855, 122.598 42.349, 123.110 43.178 C 123.562 43.909, 122.263 45.354, 119.668 47.005 C 112.685 51.450, 112.447 52.039, 114.510 59.774 C 116.103 65.750, 116.956 67.103, 122.152 71.908 C 128.852 78.104, 129.855 81.553, 125.250 82.568 C 123.737 82.902, 122.227 83.248, 121.894 83.337 C 121.561 83.427, 121.786 85.211, 122.394 87.303 L 123.500 91.105 129.655 88.022 C 133.040 86.326, 136.531 83.839, 137.412 82.495 C 142.694 74.433, 141.369 44.656, 134.620 19.783 C 132.613 12.385, 132.113 11.485, 129.936 11.356 C 128.596 11.276, 116.364 11.987, 102.754 12.935 M 146.136 35.750 C 144.927 59.552, 142.763 87.390, 141.104 100.500 L 140.218 107.500 145.359 112.824 C 152.606 120.328, 153.855 120.870, 156.583 117.698 C 157.799 116.284, 159.816 112.061, 161.064 108.314 C 162.913 102.764, 163.292 99.646, 163.109 91.500 C 162.985 86, 163.658 75.425, 164.604 68 C 167.802 42.918, 166.745 29.068, 161.019 21.027 C 158.907 18.060, 150.502 12, 148.500 12 C 147.689 12, 146.980 19.125, 146.136 35.750 M 61 18.671 C 61 21.560, 69.434 28.644, 75.656 30.981 C 82.978 33.732, 94.764 34.747, 97.260 32.843 C 98.844 31.635, 98.091 30.980, 89.760 26.323 C 75.076 18.113, 61 14.368, 61 18.671 M 91.989 24.432 C 98.934 28.395, 101.816 29.567, 102.739 28.802 C 106.299 25.847, 101.999 22.744, 91.164 20.447 C 87.499 19.670, 84.050 19.030, 83.500 19.025 C 82.950 19.020, 86.770 21.452, 91.989 24.432 M 43.074 33.217 C 41.058 39.001, 41.713 42.913, 45.297 46.497 C 49.248 50.448, 52.888 51.591, 67.964 53.618 C 79.488 55.167, 83 56.210, 83 58.083 C 83 60.216, 77.177 64.320, 66.950 69.393 C 57.473 74.094, 41.282 85.116, 39.414 88.138 C 38.448 89.703, 42.963 88.781, 60.316 83.872 C 86.552 76.450, 89.345 76.161, 107.810 78.955 C 112.381 79.647, 116.360 79.973, 116.653 79.680 C 117.605 78.729, 114.013 68.107, 111.474 64.366 C 109.709 61.766, 109 59.372, 109 56.017 C 109 49.212, 103.884 35, 101.434 35 C 100.749 35, 98.234 36.640, 95.845 38.645 C 89.921 43.615, 86.165 45.006, 78.782 44.966 C 71.068 44.923, 61.534 41.383, 51.294 34.759 L 44.148 30.136 43.074 33.217 M 118.397 73.593 C 118.733 74.469, 119.280 76.269, 119.613 77.593 C 120.088 79.487, 120.876 80, 123.311 80 L 126.406 80 122.500 76 C 118.228 71.625, 117.472 71.182, 118.397 73.593 M 137.071 86.424 C 135.823 87.753, 132.384 89.889, 129.429 91.170 C 123.756 93.631, 123.788 93.547, 126.109 99.750 C 126.572 100.987, 127.766 102, 128.764 102 C 129.761 102, 132.194 102.824, 134.170 103.832 L 137.764 105.664 138.939 95.222 C 139.585 89.479, 139.940 84.606, 139.727 84.394 C 139.515 84.182, 138.320 85.095, 137.071 86.424 M 113.500 95.637 C 109.488 96.420, 93.590 97.409, 76.259 97.953 C 47.798 98.846, 32.664 100.079, 27.724 101.906 C 25.889 102.585, 26.415 103.011, 31.382 104.870 C 34.573 106.064, 42.655 108.657, 49.342 110.633 C 62.187 114.429, 73.240 118.961, 74.458 120.933 C 76.147 123.665, 74.053 126.708, 69.267 128.478 C 62.503 130.978, 56 134.857, 56 136.391 C 56 137.110, 60.564 140.128, 66.142 143.099 C 77.291 149.036, 83.531 154.380, 86.459 160.500 C 88.770 165.329, 89.587 174.215, 88.186 179.290 L 87.161 183 91.546 183 C 96.968 183, 101.946 179.060, 104.514 172.737 C 108.208 163.644, 107.203 142.909, 102.526 131.716 C 100.324 126.446, 96.084 121.869, 93.719 122.208 C 89.804 122.770, 90.968 120.197, 97.168 114.586 C 103.682 108.691, 115.595 102, 119.575 102 C 120.844 102, 122.132 101.596, 122.437 101.103 C 123.122 99.993, 121.985 93.949, 121.125 94.135 C 120.781 94.209, 117.350 94.885, 113.500 95.637 M 129.682 113.348 C 133.183 126.220, 134.286 127.039, 135.993 118.037 C 137.788 108.573, 137.068 107.027, 129.915 104.976 L 127.193 104.195 129.682 113.348 M 136.576 131.179 C 136.347 131.906, 135.005 136.662, 133.593 141.749 C 130.844 151.656, 125.991 162.128, 120.038 171 C 114.474 179.293, 114.381 179.574, 118.148 176.701 C 127.100 169.873, 138.076 169.173, 151 174.607 C 168.118 181.805, 167.952 181.760, 169.572 179.559 C 170.373 178.469, 171 175.357, 171 172.466 C 171 167.873, 170.435 166.509, 165.800 159.907 C 160.513 152.377, 144.756 135.391, 139.746 131.820 C 137.645 130.323, 136.893 130.171, 136.576 131.179" stroke="none" fill="black" fill-rule="evenodd"/>
</svg>