<svg xmlns="http://www.w3.org/2000/svg" width="200" height="200" viewBox="0 0 200 200" version="1.1">
	<path d="M 130.405 14.504 C 129.010 16.633, 128.939 17.700, 129.928 21.627 C 131.280 26.999, 134.991 34.637, 139.309 40.933 L 142.349 45.367 142.101 72.433 C 141.850 99.928, 141.157 106.739, 137.974 113 C 136.194 116.501, 131.353 121.714, 130.618 120.921 C 130.404 120.689, 127.695 115.431, 124.598 109.235 L 118.968 97.970 120.984 88.078 C 125.440 66.213, 121.813 34.816, 113.852 26.342 C 108.556 20.706, 90.850 17.330, 72 18.363 C 56.429 19.216, 50.920 20.668, 49.141 24.387 C 47.947 26.883, 47.970 27.715, 49.316 30.537 C 53.989 40.335, 71.647 45.719, 85.468 41.560 C 89.711 40.283, 90.522 40.296, 92.626 41.675 C 93.932 42.530, 95 43.317, 95 43.423 C 95 43.529, 89.492 43.710, 82.760 43.825 C 64.129 44.145, 40.166 48.349, 27.039 53.601 C 19.634 56.564, 22.502 57.459, 41.581 58.138 C 61.049 58.831, 67 59.958, 67 62.950 C 67 65.338, 59.777 70.115, 45 77.499 C 38.675 80.660, 32.263 84.121, 30.750 85.191 C 27.713 87.339, 27.127 90.451, 29.582 91.393 C 33.546 92.914, 45.403 91.861, 56.482 89.005 C 62.872 87.357, 73.815 85.330, 80.800 84.501 C 95.676 82.734, 101.912 81.381, 104.043 79.457 C 105.404 78.229, 106.090 79.080, 109.844 86.649 C 112.185 91.370, 113.966 95.341, 113.800 95.474 C 113.635 95.607, 103.375 95.326, 91 94.849 C 42.203 92.969, 25.055 96.884, 30.629 108.630 C 32.736 113.071, 38.351 117.465, 40.740 116.542 C 41.708 116.168, 44.701 115.442, 47.390 114.930 C 56.586 113.178, 62.795 116.708, 66.863 126 C 68.753 130.317, 69.380 133.201, 74.043 159 C 77.183 176.372, 81.415 184.404, 89.325 188.005 C 93.072 189.711, 93.299 189.694, 100.325 187.204 C 107.022 184.830, 109.232 184.611, 133.500 183.916 C 147.800 183.506, 161.075 182.687, 163 182.094 C 167.844 180.603, 172.598 177.543, 174.442 174.729 C 178.528 168.492, 178.113 154.961, 173.500 143.999 C 170.175 136.101, 170.189 126.002, 173.557 102.411 C 176.667 80.620, 177.389 63.066, 176.297 35.784 C 175.413 13.714, 174.776 11.082, 171.120 14.392 C 168.795 16.496, 165.543 26.478, 157.892 55 L 152.124 76.500 152.149 62 C 152.178 45.185, 150.607 36.147, 145.872 25.872 C 142.699 18.990, 136.476 12, 133.520 12 C 132.709 12, 131.308 13.127, 130.405 14.504 M 132.667 15.667 C 130.547 17.786, 134.432 28.418, 141.020 38.531 L 145.244 45.014 145.066 71.352 C 144.839 105.137, 143.427 112.598, 135.722 120.719 L 132.668 123.938 134.528 128.061 C 136.803 133.108, 136.218 134.362, 143.561 108.686 L 148.941 89.871 149.153 67.686 C 149.344 47.767, 149.149 44.718, 147.248 37.846 C 144.716 28.692, 141.209 21.482, 137.470 17.742 C 134.625 14.898, 133.795 14.539, 132.667 15.667 M 170.610 21.016 C 168.750 25.666, 163.296 45.249, 156.691 71 C 152.461 87.488, 152.168 89.512, 151.615 106 C 150.993 124.586, 149.413 134.452, 145.947 141.392 L 143.815 145.661 148.734 154.581 C 151.439 159.486, 153.936 164.273, 154.283 165.218 C 155.566 168.717, 152.706 168.047, 145.700 163.206 C 141.740 160.470, 136.900 157.564, 134.945 156.748 L 131.389 155.265 127.528 162.766 C 118.659 179.994, 110.620 181.446, 104.081 167 C 101.227 160.694, 101.455 159.407, 106.018 156.102 C 110.916 152.554, 118.514 150.603, 125.005 151.227 C 128.974 151.608, 129.928 151.384, 130.294 149.984 C 130.677 148.520, 129.653 148.191, 123.120 147.674 C 112.900 146.867, 106.389 144.775, 99.247 140.006 C 89.194 133.293, 84.338 123.489, 86.875 115.024 C 88.487 109.641, 93.886 103.734, 99.960 100.707 L 104.791 98.300 91.237 97.650 C 56.345 95.977, 34.676 98.190, 32.584 103.641 C 31.890 105.450, 34.042 109.823, 36.900 112.410 C 38.745 114.079, 39.483 114.172, 42.869 113.157 C 48.138 111.579, 56.525 111.701, 59.800 113.405 C 63.374 115.265, 66.337 118.611, 68.740 123.500 C 71.216 128.541, 72.220 132.744, 75.546 152 C 78.484 169.013, 80.828 176.454, 84.697 181.052 C 88.243 185.265, 92.497 187.340, 94.927 186.039 C 100.990 182.794, 109.128 181.773, 134.500 181.072 C 157.546 180.436, 161.011 180.123, 165 178.322 C 170.721 175.739, 172.578 173.606, 174.118 167.847 C 175.159 163.958, 175.084 161.835, 173.648 154.530 C 172.709 149.750, 171.190 144.693, 170.272 143.293 C 167.296 138.751, 167.487 125.955, 170.909 100.500 C 172.609 87.850, 174.096 72.100, 174.212 65.500 C 174.411 54.259, 173.141 17.850, 172.529 17.209 C 172.376 17.048, 171.512 18.762, 170.610 21.016 M 62.500 21.833 L 58.500 22.500 62.500 23.714 C 68.330 25.483, 83.938 26.199, 96 25.250 L 106.500 24.425 101 23.087 C 94.973 21.620, 68.875 20.771, 62.500 21.833 M 51 27.599 C 51 30.153, 57.024 35.764, 62.116 37.955 C 65.102 39.239, 69.600 40.226, 72.874 40.314 C 79.156 40.484, 86 39.333, 86 38.107 C 86 36.349, 67.492 28, 63.500 27.956 C 61.300 27.932, 57.587 27.543, 55.250 27.091 C 51.967 26.456, 51 26.571, 51 27.599 M 104.444 30.393 C 101.709 32.785, 98.005 35.634, 96.214 36.724 L 92.956 38.705 96.978 41.367 C 100.995 44.025, 102.155 46, 99.700 46 C 98.985 46, 97.860 45.460, 97.200 44.800 C 96.267 43.867, 96 43.961, 96 45.227 C 96 46.121, 95.372 46.999, 94.604 47.177 C 93.588 47.412, 94.822 50.639, 99.123 59 C 104.474 69.404, 104.976 70.072, 104.391 66.013 C 104.035 63.545, 103.151 59.845, 102.426 57.789 C 101.072 53.952, 102.292 51.261, 104.089 54.122 C 105.636 56.585, 108.241 70.043, 107.706 72.808 C 107.021 76.353, 116.400 95.538, 117.314 92.461 C 120.186 82.791, 121.045 60.276, 118.976 48.869 C 117.200 39.076, 114.206 30.542, 111.728 28.214 L 109.417 26.043 104.444 30.393 M 82.389 32.521 L 90.278 37.027 94.389 34.543 C 96.650 33.177, 99.625 31.156, 101 30.052 L 103.500 28.044 89 28.030 L 74.500 28.015 82.389 32.521 M 69.768 47.112 C 60.304 48.025, 44.198 51.106, 37 53.380 L 32.500 54.802 41 54.932 C 52.418 55.106, 63.332 56.603, 66.996 58.498 C 74.232 62.240, 68.859 68.367, 49.945 77.943 C 43.100 81.408, 35.965 85.170, 34.090 86.302 C 31.052 88.136, 30.888 88.443, 32.590 89.110 C 36.040 90.463, 42.682 90.033, 49.145 88.038 C 58.377 85.188, 67.966 83.309, 82.590 81.484 C 89.691 80.598, 96.927 79.428, 98.670 78.885 C 104.745 76.993, 104.683 76.388, 96.809 60.595 L 89.532 46 84.016 46.135 C 80.982 46.209, 74.571 46.649, 69.768 47.112 M 108.301 100.077 C 101.732 102.158, 95.055 106.653, 91.593 111.323 C 90.038 113.421, 89.500 115.627, 89.500 119.909 C 89.500 127.249, 93.060 132.775, 101.169 138.025 C 108.533 142.792, 114.661 144.497, 124.443 144.499 L 132.386 144.500 133.809 139.941 C 135.162 135.608, 135.109 135.139, 132.744 130.485 L 130.255 125.588 121.378 125.808 C 113.600 126.001, 111.339 125.624, 103.133 122.764 C 97.982 120.969, 93.804 119.050, 93.851 118.500 C 93.897 117.950, 95.862 117.258, 98.217 116.963 C 103.813 116.262, 107.221 113.895, 110.877 108.169 C 113.464 104.118, 115.916 97.890, 114.858 98.056 C 114.661 98.087, 111.710 98.996, 108.301 100.077 M 148.014 102.250 C 148.021 102.938, 145.927 110.618, 143.360 119.317 L 138.694 135.135 140.449 138.814 L 142.203 142.494 144.009 138.974 C 145.002 137.038, 146.320 132.765, 146.939 129.477 C 148.292 122.284, 149.573 101, 148.653 101 C 148.294 101, 148.006 101.563, 148.014 102.250 M 115.206 106.250 C 112.170 111.884, 110.033 114.359, 105.620 117.354 L 101.951 119.844 107.726 121.546 C 113.334 123.200, 126.304 124.030, 127.521 122.813 C 128.023 122.310, 118.478 102, 117.739 102 C 117.606 102, 116.466 103.912, 115.206 106.250 M 136.314 141.750 C 135.972 142.713, 135.550 143.772, 135.376 144.106 C 135.203 144.439, 136.161 144.501, 137.506 144.244 C 139.552 143.853, 139.786 143.468, 138.940 141.888 C 137.685 139.544, 137.110 139.513, 136.314 141.750 M 134.278 148.250 C 131.791 151.464, 132.079 152.871, 135.450 153.984 C 137.288 154.590, 141.352 156.880, 144.481 159.072 L 150.170 163.057 145.893 155.029 C 141.917 147.566, 141.390 147, 138.430 147 C 136.678 147, 134.810 147.563, 134.278 148.250 M 113.500 155.222 C 111.850 155.807, 109.228 157.176, 107.673 158.266 C 104.382 160.571, 104.564 162.797, 108.611 169.750 C 113.196 177.628, 118.399 174.881, 125.593 160.783 C 126.917 158.189, 128 155.602, 128 155.033 C 128 153.689, 117.436 153.826, 113.500 155.222" stroke="none" fill="black" fill-rule="evenodd"/>
</svg>