<svg xmlns="http://www.w3.org/2000/svg" width="200" height="200" viewBox="0 0 200 200" version="1.1">
	<path d="M 124 10.564 C 124 10.873, 125.770 16.386, 127.934 22.814 C 136.218 47.420, 140.235 73.429, 138.160 89.017 C 136.949 98.111, 134.994 104.834, 132.418 108.766 L 130.912 111.064 125.978 105.667 C 123.265 102.698, 118.627 99.003, 115.671 97.455 L 110.297 94.641 114.526 85.571 C 119.725 74.419, 121 69.289, 121 59.526 C 121 51.289, 118.639 42.653, 114.418 35.450 C 113.077 33.163, 112 29.727, 112 27.739 C 112 23.147, 108.414 18.783, 102.794 16.534 C 90.594 11.653, 68.128 14.781, 60.483 22.426 C 57.812 25.097, 57.172 29.772, 59.200 31.800 C 60.768 33.368, 60.120 33.320, 52.983 31.335 C 41.721 28.204, 44.438 32.415, 56.104 36.173 L 62.807 38.332 56.412 40.566 C 44.493 44.731, 35.249 53.860, 37.912 58.835 C 40.097 62.919, 48.515 64.003, 59.750 61.649 C 63.188 60.928, 66 60.439, 66 60.561 C 66 60.684, 60.487 63.823, 53.750 67.537 C 37.169 76.679, 30 81.659, 30 84.036 C 30 86.890, 34.403 87.052, 54.769 84.950 C 76.081 82.751, 103.977 82.534, 105.914 84.552 C 106.462 85.124, 106.216 86.999, 105.292 89.280 C 104.127 92.158, 103.337 92.924, 101.978 92.493 C 93.160 89.694, 67.104 89.167, 51.780 91.477 C 40.723 93.144, 28.218 96.175, 22.437 98.591 L 18.509 100.232 23.366 104.630 C 45.815 124.954, 78.257 124.214, 99.226 102.899 L 105.952 96.062 102.476 102.614 C 95.258 116.219, 98.732 120.981, 115.882 120.994 C 121.540 120.999, 124.024 120.530, 126.519 118.989 L 129.773 116.977 130.422 120.435 C 130.961 123.311, 131.991 124.420, 136.535 127.020 C 141.937 130.111, 143.702 133, 140.187 133 C 139.190 133, 130.303 131.682, 120.437 130.071 C 85.329 124.338, 62.960 123.133, 52.500 126.411 C 49.750 127.273, 45.868 127.983, 43.872 127.989 C 39.968 128.001, 37.340 130.108, 38.613 132.206 C 39.045 132.918, 42.283 136.816, 45.808 140.869 C 49.333 144.922, 53.630 151.222, 55.358 154.869 C 58.301 161.081, 58.500 162.211, 58.500 172.749 C 58.500 178.936, 58.593 183.998, 58.706 183.999 C 58.819 184, 60.535 182.898, 62.519 181.552 C 69.508 176.809, 82.149 176.891, 100.500 181.798 C 133.976 190.750, 135.585 191.102, 143.308 191.156 C 154.340 191.233, 159.372 188.580, 163.497 180.512 C 166.358 174.916, 166.500 174.052, 166.500 162.209 L 166.500 149.779 172.983 147.431 C 180.184 144.823, 182.450 142.709, 180.982 139.967 C 179.562 137.312, 174.814 136.072, 161.715 134.935 C 150.778 133.985, 149.640 133.693, 147.584 131.303 C 145.373 128.733, 145.365 128.605, 146.838 120.102 C 147.657 115.371, 148.489 111.302, 148.687 111.060 C 148.884 110.819, 149.738 111.609, 150.584 112.816 C 152.606 115.703, 156.500 117.597, 161.808 118.275 C 167.241 118.969, 167.395 118.617, 169.409 100.813 C 173.403 65.500, 174.166 21.732, 170.846 18.416 C 169.936 17.507, 168.696 17.070, 168.089 17.445 C 164.682 19.550, 160.616 34.045, 153.507 69.421 C 149.830 87.719, 148.124 94.483, 147.705 92.421 C 147.378 90.814, 147.364 77.125, 147.674 62 C 148.153 38.586, 147.993 33.471, 146.592 27.576 C 143.602 14.983, 138.694 10.010, 129.250 10.004 C 126.362 10.002, 124 10.254, 124 10.564 M 130.639 22.129 C 137.717 42.979, 141.240 62.229, 141.230 80 C 141.222 93.358, 139.342 102.127, 134.944 109.318 C 132.508 113.303, 132.106 114.813, 132.624 118.053 C 133.159 121.399, 133.910 122.338, 137.777 124.499 C 140.267 125.891, 142.439 126.894, 142.604 126.730 C 142.768 126.565, 143.772 121.585, 144.835 115.663 C 146.189 108.111, 146.510 103.792, 145.907 101.198 C 145.434 99.164, 145.037 82.857, 145.024 64.960 C 145.005 38.849, 144.694 31.243, 143.449 26.460 C 141.002 17.056, 137.772 13.486, 130.665 12.333 L 127.119 11.758 130.639 22.129 M 73.997 18.814 C 58.946 22.744, 56.728 29.866, 68.709 35.792 C 70.794 36.824, 75.084 38.224, 78.242 38.904 C 84.092 40.163, 87.857 42.440, 98.970 51.437 C 106.756 57.740, 109.463 61.958, 108.506 66.292 C 108.116 68.056, 107.918 71.525, 108.067 74 C 108.609 82.996, 108.483 89.553, 107.724 92 C 106.123 97.155, 113.969 81.028, 116.012 74.965 C 117.536 70.442, 118.139 66.197, 118.130 60.070 C 118.116 50.990, 117.054 46.892, 112.390 37.929 C 110.837 34.943, 109.523 30.819, 109.471 28.764 C 109.346 23.848, 106.028 20.383, 99.627 18.482 C 93.108 16.546, 82.136 16.688, 73.997 18.814 M 165.561 29.217 C 160.062 47.264, 149.323 102.168, 150.430 106.577 C 151.589 111.196, 156.282 115, 160.820 115 L 164.793 115 165.910 106.750 C 168.228 89.611, 169.086 76.677, 169.679 49.899 C 170.369 18.726, 169.732 15.526, 165.561 29.217 M 57.283 43.277 C 49.791 45.956, 42.402 51.024, 40.772 54.601 C 39.743 56.860, 39.848 57.423, 41.540 58.706 C 44.298 60.799, 57.935 59.779, 69.500 56.614 C 74.914 55.133, 78.872 54.513, 79.433 55.059 C 80.626 56.219, 82.253 55.182, 61.642 66.402 C 41.668 77.275, 32.200 83.233, 33.963 83.821 C 34.612 84.037, 42.423 83.385, 51.321 82.372 C 61.562 81.206, 74.575 80.530, 86.778 80.530 L 106.056 80.530 105.412 77.515 C 105.059 75.857, 104.311 73.931, 103.750 73.236 C 103.190 72.540, 102.640 70.462, 102.528 68.617 C 102.416 66.773, 100.755 62.403, 98.836 58.907 C 95.032 51.975, 92.051 49.728, 79.129 44.057 C 70.770 40.388, 65.851 40.212, 57.283 43.277 M 102.812 60.500 C 103.863 62.700, 104.974 65.175, 105.282 66 C 105.608 66.873, 105.875 66.374, 105.921 64.806 C 105.967 63.233, 104.939 60.944, 103.451 59.306 L 100.901 56.500 102.812 60.500 M 63 93.036 C 49.768 94.074, 34.285 97.040, 26.346 100.058 C 23.796 101.028, 23.778 101.098, 25.567 103.074 C 28.383 106.186, 38.211 111.836, 44.680 114.063 C 62.620 120.238, 82.375 115.562, 96.357 101.830 C 102.259 96.035, 102.410 95.763, 100.206 94.915 C 97.861 94.012, 78.111 91.885, 74.500 92.146 C 73.400 92.226, 68.225 92.626, 63 93.036 M 104.418 105.334 C 99.258 116.200, 100.811 118, 115.343 118 C 123.822 118, 128 116.497, 128 113.446 C 128 109.758, 114.111 98, 109.755 98 C 108.435 98, 106.898 100.113, 104.418 105.334 M 64.500 127.822 C 66.708 128.784, 104.825 131.508, 105.576 130.757 C 106.303 130.030, 86.806 127.981, 74 127.438 C 67.042 127.143, 63.290 127.294, 64.500 127.822 M 42.733 130.789 C 41.307 131.083, 42.008 132.346, 46.364 137.327 C 57.098 149.603, 62 160.539, 62 172.212 C 62 177.525, 62.201 178.134, 63.750 177.521 C 73.836 173.528, 84.929 174.549, 112 181.960 C 140.294 189.707, 148.460 190.439, 155.926 185.899 C 161.998 182.206, 165.273 169.343, 163.583 155.821 L 162.912 150.446 156.075 151.391 L 149.239 152.336 148.659 157.232 C 147.834 164.194, 144.206 170.415, 140.737 170.816 C 137.171 171.229, 135.869 168.091, 137.055 161.945 C 137.527 159.500, 137.932 156.969, 137.956 156.320 C 137.984 155.578, 134.935 156.300, 129.750 158.263 C 122.390 161.050, 120.313 161.393, 110.500 161.443 C 100.468 161.495, 99.009 161.259, 93.919 158.758 C 90.850 157.249, 83.425 151.895, 77.419 146.858 C 71.414 141.822, 63.737 136.399, 60.360 134.808 C 54.277 131.942, 46.142 130.087, 42.733 130.789 M 64 133.371 C 66.475 134.726, 73.175 139.721, 78.889 144.471 C 94.719 157.630, 103.265 160.990, 115.750 158.961 C 122.076 157.932, 132.890 154.763, 131.425 154.366 C 130.916 154.229, 124.895 153.628, 118.045 153.032 C 105 151.897, 97.088 150.242, 89.832 147.130 L 85.500 145.272 89.452 143.603 C 96.080 140.803, 110.981 136.005, 113.307 135.921 C 115.351 135.847, 115.330 135.785, 113 135.007 C 111.625 134.547, 102.175 133.661, 92 133.037 C 81.825 132.413, 70.350 131.679, 66.500 131.406 L 59.500 130.908 64 133.371 M 118 137.707 C 112.930 138.588, 103.612 141.173, 98.174 143.208 C 92.949 145.163, 92.742 145.361, 95.040 146.214 C 101.027 148.436, 112.529 150.150, 125.166 150.703 L 138.832 151.300 139.528 146.662 C 139.910 144.112, 139.973 141.372, 139.667 140.575 C 138.578 137.737, 126.798 136.178, 118 137.707 M 144 138.132 C 144 139.436, 147.905 146, 148.681 146 C 150.202 146, 160.876 138.608, 160.420 137.871 C 159.590 136.527, 144 136.775, 144 138.132 M 164.394 142.064 C 164.778 144.462, 165.219 146.553, 165.376 146.709 C 165.946 147.280, 175.591 144.019, 177.517 142.605 C 179.452 141.185, 179.434 141.124, 176.789 140.114 C 175.298 139.545, 171.742 138.769, 168.888 138.391 L 163.697 137.702 164.394 142.064 M 155.146 145.462 C 148.829 149.488, 147.785 150.441, 150.500 149.708 C 151.600 149.411, 154.637 148.878, 157.250 148.523 C 161.693 147.919, 162 147.687, 162 144.939 C 162 143.322, 161.662 142.012, 161.250 142.026 C 160.838 142.040, 158.091 143.586, 155.146 145.462 M 142.524 145.892 C 141.676 149.753, 142.080 150.411, 144.273 148.740 C 145.674 147.672, 145.715 147.163, 144.569 145.071 L 143.238 142.641 142.524 145.892 M 140.127 160.063 C 138.954 167.165, 139.257 169.577, 141.173 168.393 C 142.934 167.305, 145.955 159.671, 145.978 156.250 C 145.997 153.498, 145.640 153, 143.647 153 C 141.508 153, 141.187 153.644, 140.127 160.063" stroke="none" fill="black" fill-rule="evenodd"/>
</svg>