<svg xmlns="http://www.w3.org/2000/svg" width="200" height="200" viewBox="0 0 200 200" version="1.1">
	<path d="M 154.164 4.694 C 151.806 9.100, 151.215 14.859, 147.458 70.073 C 145.946 92.281, 144.282 104.082, 144.083 94 C 144.034 91.525, 144.487 81.400, 145.089 71.500 L 146.183 53.500 142.566 40.500 C 140.576 33.350, 138.411 23.563, 137.753 18.750 C 136.959 12.934, 136.129 10, 135.279 10 C 134.576 10, 134 10.374, 134 10.832 C 134 11.289, 124.662 12.438, 113.250 13.386 C 78.338 16.284, 57.742 18.829, 56.125 20.446 C 55.323 21.248, 54.667 23.290, 54.667 24.983 C 54.667 33.747, 77.371 45.170, 91.827 43.678 C 94.780 43.374, 98.390 43.611, 99.848 44.205 L 102.500 45.286 99 46.252 C 97.075 46.784, 85.375 47.346, 73 47.503 C 44.876 47.858, 39.311 49.157, 40.173 55.167 C 40.987 60.839, 61.498 66.728, 76.750 65.670 C 81.288 65.355, 85 65.435, 85 65.849 C 85 66.795, 75.938 78.233, 71.124 83.362 C 69.131 85.486, 59.625 94.311, 50 102.972 C 40.375 111.634, 31.653 119.672, 30.618 120.835 C 28.757 122.926, 28.768 122.962, 31.618 124.144 C 33.203 124.801, 37.200 125.339, 40.500 125.338 C 48.269 125.336, 54.229 122.432, 68.691 111.600 C 81.517 101.994, 85.336 100, 90.910 100 C 94.477 100, 95.774 100.696, 100.766 105.285 C 106.941 110.962, 113.792 115.850, 118.297 117.793 C 122.754 119.716, 125.652 119.256, 128.030 116.250 C 130.819 112.723, 130.246 106.419, 126.427 98.620 C 121.667 88.898, 113.924 81.774, 107.093 80.832 C 102.997 80.267, 103.714 82.598, 108.034 83.892 C 113.905 85.651, 119.431 91.139, 123.480 99.233 C 128.400 109.068, 128.237 116, 123.084 116 C 119.480 116, 109.684 110.026, 103.500 104.056 C 97.366 98.135, 95.230 97, 90.215 97 C 85.215 97, 79.902 99.850, 67.002 109.450 C 51.738 120.810, 43.501 124.346, 36.435 122.573 C 33.817 121.916, 33.805 121.873, 35.638 119.830 C 36.662 118.689, 44.938 111.097, 54.028 102.960 C 69.527 89.087, 76.314 82.097, 83.602 72.500 C 87.571 67.275, 91.337 61.003, 90.817 60.484 C 90.592 60.258, 88.178 60.768, 85.453 61.617 C 75.308 64.780, 50.607 61.551, 43.996 56.198 C 42.107 54.669, 42.001 54.244, 43.247 53.210 C 46.017 50.911, 55.291 49.904, 67.500 50.576 C 78.050 51.157, 98.459 49.907, 102.289 48.445 C 103.003 48.173, 105.692 51.882, 108.838 57.481 L 114.177 66.978 111.962 70.562 C 110.460 72.992, 110.074 74.474, 110.763 75.163 C 111.453 75.853, 112.358 75.202, 113.574 73.145 C 114.560 71.475, 115.691 70.309, 116.088 70.554 C 116.485 70.800, 118.266 73.588, 120.047 76.750 C 121.827 79.913, 127.545 89.418, 132.753 97.872 C 143.181 114.802, 143.256 115.111, 139.166 124.357 C 136.885 129.514, 134.525 131.150, 131.185 129.890 C 127.264 128.410, 68.888 127.869, 66.091 129.287 C 61.601 131.562, 61.260 133.489, 64.531 138.114 C 69.422 145.029, 72.071 146.443, 80.881 146.843 C 85.142 147.037, 96.433 146.459, 105.973 145.560 C 115.514 144.661, 125.385 144.219, 127.910 144.578 C 134.137 145.463, 138.782 147.749, 139.627 150.346 C 140.013 151.531, 140.367 158.800, 140.414 166.500 C 140.484 177.976, 140.824 181.094, 142.298 183.793 C 145.933 190.451, 151.369 190.466, 158.559 183.839 C 166.655 176.376, 171.666 162.027, 169.940 151.244 C 169.096 145.968, 158.680 123, 157.132 123 C 156.590 123, 156.001 123.714, 155.823 124.588 C 155.561 125.874, 155.066 125.712, 153.210 123.730 L 150.920 121.286 155.873 121.762 C 160.546 122.211, 160.912 122.072, 162.346 119.298 C 164.452 115.226, 167.672 102.072, 168.906 92.500 C 169.474 88.100, 170.015 73.250, 170.109 59.500 L 170.280 34.500 167.049 23.500 C 162.991 9.682, 160.057 3.601, 157.251 3.189 C 155.993 3.005, 154.741 3.615, 154.164 4.694 M 155.089 11.250 C 153.947 16.945, 152.929 29.165, 150.451 66.913 C 149.569 80.341, 148.238 95.412, 147.492 100.405 C 146.293 108.428, 146.317 109.866, 147.698 112.776 C 149.691 116.976, 152.600 119, 156.642 119 C 159.570 119, 159.973 118.598, 161.424 114.229 C 165.406 102.240, 166.167 95.598, 166.947 66 L 167.724 36.500 164.818 26.084 C 161.662 14.769, 158.226 6, 156.948 6 C 156.504 6, 155.668 8.362, 155.089 11.250 M 119.500 15.637 C 83.619 18.772, 68.003 20.336, 68.419 20.752 C 68.668 21.001, 75.866 21.616, 84.416 22.120 C 104.342 23.293, 105.001 23.536, 104.996 29.725 C 104.994 32.773, 104.251 35.716, 102.942 37.863 C 101.815 39.712, 101.029 41.339, 101.196 41.477 C 101.363 41.615, 105.208 42.949, 109.739 44.442 C 121.868 48.439, 124.238 52.470, 119.978 61.859 C 118.890 64.257, 118 66.640, 118 67.156 C 118 68.236, 139.070 103.495, 141.511 106.500 C 143.094 108.448, 143.121 108.430, 142.569 105.831 C 141.714 101.801, 141.687 86.329, 142.506 69 C 143.231 53.645, 143.209 53.397, 140.134 42.500 C 138.427 36.450, 136.395 27.759, 135.619 23.187 C 134.842 18.615, 134.048 14.770, 133.854 14.644 C 133.659 14.517, 127.200 14.964, 119.500 15.637 M 57.441 24.095 C 54.485 28.878, 71.991 39.252, 85.414 40.671 L 90.500 41.208 82.279 37.154 C 77.757 34.924, 70.690 30.827, 66.574 28.050 C 58.353 22.503, 58.410 22.527, 57.441 24.095 M 68 25.965 C 70.682 28.149, 91.032 38.446, 94.733 39.493 C 96.348 39.949, 97.679 39.412, 99.540 37.551 C 101.637 35.454, 102.057 34.196, 101.807 30.761 C 101.510 26.687, 101.365 26.523, 97.500 25.894 C 95.300 25.537, 87.200 24.948, 79.500 24.587 L 65.500 23.930 68 25.965 M 108.390 51.250 C 109.751 53.587, 111.977 57.472, 113.338 59.883 L 115.811 64.266 117.406 61.183 C 119.499 57.135, 119.431 52.670, 117.250 50.848 C 114.881 48.870, 110.344 47, 107.911 47 C 105.992 47, 106.011 47.164, 108.390 51.250 M 144.046 118.500 C 143.935 121.897, 139.285 130.777, 136.968 132.017 C 135.759 132.664, 133.359 132.954, 131.635 132.662 C 125.895 131.688, 67.523 130.989, 66.143 131.877 C 64.086 133.201, 65.564 136.373, 70.180 140.544 L 74.275 144.244 88.388 143.634 C 96.149 143.298, 108.850 142.738, 116.610 142.388 C 132.636 141.666, 136.508 142.438, 140.467 147.143 C 142.917 150.054, 143 150.620, 143.002 164.327 C 143.004 184.004, 145.570 188.840, 153.690 184.468 C 157.470 182.432, 163.205 174.506, 165.605 168 C 166.518 165.525, 167.307 160.350, 167.358 156.500 C 167.440 150.257, 166.972 148.445, 163.032 139.750 C 159.975 133.004, 158.093 130, 156.923 130 C 155.307 130, 151.004 125.719, 146.306 119.435 C 144.400 116.886, 144.103 116.763, 144.046 118.500" stroke="none" fill="black" fill-rule="evenodd"/>
</svg>