<svg xmlns="http://www.w3.org/2000/svg" width="200" height="200" viewBox="0 0 200 200" version="1.1">
	<path d="M 66.012 13.954 C 63.334 23.902, 70.959 32.936, 83.483 34.653 C 87.102 35.149, 88 35.664, 88 37.243 C 88 38.742, 87.581 39.033, 86.250 38.457 C 83.191 37.134, 65.693 36.736, 61.401 37.892 C 59.147 38.499, 55.772 40.027, 53.901 41.288 C 50.991 43.249, 50.500 44.152, 50.500 47.540 C 50.500 51.226, 50.809 51.656, 54.962 53.750 C 58.685 55.627, 61.003 55.993, 68.962 55.956 C 74.208 55.932, 80.523 55.523, 82.996 55.046 C 88.009 54.079, 88.960 54.743, 88.985 59.230 C 89.004 62.588, 87.902 63.181, 63.500 72.951 C 39.243 82.663, 32 86.042, 32 87.648 C 32 89.405, 32.368 89.363, 36.815 87.094 C 38.870 86.046, 50.125 81.321, 61.827 76.593 C 73.528 71.866, 84.394 67.330, 85.973 66.514 L 88.844 65.029 89.530 71.439 C 89.908 74.965, 90.036 78.392, 89.815 79.056 C 89.123 81.130, 57.935 89.947, 45.750 91.512 C 43.138 91.848, 41 92.611, 41 93.208 C 41 95.406, 55.791 93.023, 73.035 88.047 C 82.573 85.295, 90.454 83.146, 90.549 83.271 C 90.644 83.397, 91.013 86.762, 91.368 90.750 L 92.014 98 64.257 98.020 C 37.490 98.039, 26.789 98.784, 18.762 101.189 C 15.181 102.262, 15.069 102.419, 16.635 104.150 C 21.952 110.025, 35.104 115.626, 45.937 116.628 C 52.172 117.205, 55.071 116.891, 83.500 112.559 C 88.450 111.805, 92.706 111.389, 92.957 111.634 C 93.461 112.126, 95.941 135.334, 95.537 135.774 C 95.399 135.924, 88.359 133.620, 79.893 130.654 C 71.427 127.687, 62.604 124.940, 60.286 124.548 C 56.563 123.919, 55.764 124.145, 53.425 126.485 C 51.207 128.702, 50.897 129.650, 51.520 132.316 C 51.929 134.067, 52.317 142.475, 52.382 151 C 52.490 165.154, 52.706 166.918, 54.871 171.316 C 57.380 176.412, 62.183 180.314, 68.082 182.048 C 73.225 183.560, 89.685 183.277, 103.093 181.447 C 114.018 179.955, 115.411 179.952, 119.688 181.409 C 125.053 183.237, 133.581 183.487, 137.685 181.936 C 148.571 177.823, 153.826 162.434, 150.687 143.855 C 149.801 138.610, 147.890 131.119, 146.439 127.206 L 143.803 120.093 139.151 119.486 C 132.575 118.628, 129.794 117.309, 130.192 115.239 C 130.492 113.684, 132.189 113.482, 146.253 113.329 C 175.466 113.010, 187.402 109.314, 181.050 102.554 C 178.895 100.259, 167.554 95.181, 160.800 93.486 C 159.025 93.040, 157.775 91.792, 157.066 89.759 C 156.480 88.077, 156 86.615, 156 86.509 C 156 86.403, 157.912 85.746, 160.250 85.049 C 166.853 83.078, 170 81.136, 170 79.031 C 170 76.244, 166.661 74.326, 158.426 72.385 L 151.156 70.671 148.720 64.086 C 146.299 57.542, 146.296 57.483, 148.203 54.760 C 149.259 53.252, 150.377 50.452, 150.688 48.536 C 151.803 41.663, 144.778 37.426, 123.271 32.001 L 119.042 30.934 122.172 28.137 C 128.113 22.829, 124.007 18.207, 111.299 15.900 C 108.110 15.320, 104.306 14.206, 102.846 13.423 C 101.386 12.640, 99.023 12, 97.596 12 C 95.074 12, 91 15.048, 91 16.935 C 91 17.449, 90.558 19.033, 90.017 20.455 L 89.034 23.040 81.175 19.088 C 76.852 16.915, 71.917 13.960, 70.209 12.522 L 67.102 9.908 66.012 13.954 M 95.789 15.058 C 94.158 16.009, 91.569 22.903, 92.495 23.829 C 92.738 24.071, 97.532 25.560, 103.149 27.137 L 113.361 30.004 117.681 27.913 C 125.512 24.122, 122.514 20.884, 108.500 17.995 C 105.200 17.315, 101.612 16.137, 100.527 15.379 C 98.215 13.762, 98.033 13.750, 95.789 15.058 M 68 17.532 C 68 24.901, 73.528 30.038, 83.452 31.892 C 87.424 32.634, 87.896 32.512, 88.407 30.606 C 89.566 26.291, 89.024 25.404, 84.165 23.656 C 81.505 22.700, 76.966 20.361, 74.077 18.459 C 71.189 16.556, 68.640 15, 68.413 15 C 68.186 15, 68 16.139, 68 17.532 M 91.667 27.667 C 91.300 28.033, 91 29.383, 91 30.667 C 91 32.648, 91.491 32.989, 94.250 32.926 C 99.693 32.802, 106.622 31.378, 105 30.717 C 103.741 30.204, 92.954 27, 92.485 27 C 92.402 27, 92.033 27.300, 91.667 27.667 M 105.500 34.105 C 102.750 34.568, 98.362 35.212, 95.750 35.535 C 91.919 36.009, 91 36.498, 91 38.061 C 91 40.575, 92.852 40.531, 110 37.614 C 123.292 35.353, 123.438 35.300, 119.500 34.164 C 115.053 32.882, 112.816 32.873, 105.500 34.105 M 112 39.978 C 106.775 40.958, 99.912 42.071, 96.750 42.452 L 91 43.144 91 46.871 C 91 50.524, 91.068 50.590, 94.412 50.200 C 97.218 49.872, 98.126 50.263, 99.527 52.401 C 101.093 54.790, 101.102 55.196, 99.638 57.430 C 98.762 58.766, 96.635 60.679, 94.911 61.680 L 91.777 63.500 92.319 70.847 C 92.617 74.888, 93.049 78.383, 93.280 78.613 C 93.511 78.844, 98.005 78.489, 103.268 77.825 C 115.748 76.248, 125.615 77.669, 135.846 82.514 C 141.855 85.360, 143.907 85.879, 147.118 85.365 C 149.278 85.020, 151.292 84.336, 151.595 83.846 C 151.898 83.356, 151.405 80.724, 150.499 77.996 C 148.990 73.454, 148.501 72.947, 144.676 71.963 C 135.824 69.687, 131.167 67.842, 129.431 65.923 C 127.685 63.995, 127.699 63.857, 129.839 61.715 C 131.055 60.497, 134.476 58.594, 137.439 57.486 L 142.827 55.472 139.578 48.986 C 133.942 37.734, 130.306 36.547, 112 39.978 M 138.850 42.281 C 140.463 44.626, 142.550 48.335, 143.488 50.523 L 145.194 54.500 146.731 51.351 C 149.423 45.834, 147.061 42.255, 138.609 39.041 L 135.916 38.018 138.850 42.281 M 64.326 40.006 C 56.635 41.597, 51.200 45.474, 52.374 48.532 C 53.566 51.638, 59.977 53.312, 70 53.134 C 75.225 53.041, 81.300 52.628, 83.500 52.216 L 87.500 51.466 87.500 46.555 C 87.500 42.083, 87.262 41.580, 84.840 40.932 C 80.023 39.644, 68.576 39.127, 64.326 40.006 M 91.667 53.667 C 90.643 54.690, 90.876 60, 91.944 60 C 93.788 60, 98.319 55.325, 97.601 54.164 C 96.828 52.912, 92.762 52.571, 91.667 53.667 M 137.657 60.450 C 134.444 61.771, 131.620 63.046, 131.383 63.284 C 130.418 64.249, 133.936 65.975, 140.676 67.843 L 147.808 69.819 145.812 63.910 C 144.714 60.659, 143.745 58.011, 143.658 58.024 C 143.571 58.037, 140.871 59.129, 137.657 60.450 M 153.451 78.198 C 154.132 80.507, 155.208 82.569, 155.841 82.780 C 157.772 83.424, 167.128 79.885, 166.721 78.664 C 166.342 77.527, 156.980 74.177, 153.856 74.061 C 152.392 74.007, 152.348 74.462, 153.451 78.198 M 98.329 81.183 L 93.158 82.127 93.642 87.814 C 94.573 98.765, 93.755 98, 104.550 98 C 110.419 98, 119.244 97.043, 127.597 95.500 C 143.430 92.576, 151.501 92.257, 152.370 94.523 C 153.123 96.484, 151.157 98.391, 141.504 105.056 L 133.621 110.500 141.560 110.806 C 150.654 111.156, 170.699 109.509, 176.250 107.956 C 183.418 105.949, 180.484 103.366, 164.585 97.685 C 156.609 94.835, 155.556 94.166, 154.585 91.322 C 153.075 86.899, 152.860 86.799, 147.454 88.010 C 142.971 89.015, 142.258 88.883, 136.990 86.075 C 126.305 80.380, 112.370 78.617, 98.329 81.183 M 132 97.667 C 124.575 99.049, 113.213 100.411, 106.750 100.695 C 95.557 101.186, 95.001 101.312, 95.015 103.355 C 95.042 107.144, 96.316 107.698, 106.500 108.348 C 112 108.699, 119.429 109.267, 123.009 109.611 L 129.518 110.235 139.229 103.368 C 144.570 99.590, 148.953 96.162, 148.970 95.750 C 149.014 94.652, 146.937 94.887, 132 97.667 M 38 100.941 C 27.341 101.895, 21 102.979, 21 103.845 C 21 104.213, 22.999 105.722, 25.443 107.198 C 37.201 114.300, 48.244 115.351, 71.630 111.592 C 80.502 110.167, 88.940 109, 90.380 109 C 92.575 109, 92.998 108.554, 92.985 106.250 C 92.976 104.737, 92.639 102.989, 92.235 102.364 C 91.308 100.931, 50.173 99.852, 38 100.941 M 96.351 114.250 C 96.667 116.037, 97.231 121.470, 97.606 126.322 C 98.009 131.545, 98.836 135.694, 99.634 136.491 C 101.015 137.872, 112.207 139.505, 115.606 138.821 C 117.307 138.479, 117.484 137.544, 117.346 129.665 C 117.145 118.262, 119.006 118.174, 123.272 129.384 C 125.928 136.368, 126.090 137.370, 124.685 138.156 C 121.583 139.893, 120.268 141.920, 119.621 145.966 C 119.197 148.619, 117.762 151.379, 115.558 153.783 C 112.363 157.267, 111.784 157.498, 106.325 157.470 L 100.500 157.441 100.500 168.221 C 100.500 174.150, 100.639 179.001, 100.808 179.001 C 100.978 179, 104.207 178.521, 107.983 177.935 C 113.678 177.051, 115.655 177.143, 119.576 178.474 C 124.960 180.302, 133.306 180.644, 137 179.187 C 140.473 177.818, 144.586 173.237, 146.538 168.564 C 150.319 159.513, 149.121 141.734, 143.831 128.401 C 141.520 122.579, 141.454 122.518, 136.687 121.836 C 130.292 120.922, 126.668 118.519, 127.232 115.569 C 127.639 113.437, 127.193 113.253, 118.968 112.158 C 114.186 111.521, 107.012 111, 103.025 111 L 95.777 111 96.351 114.250 M 55.141 127.841 C 54.118 128.527, 53.985 129.833, 54.602 133.126 C 55.053 135.532, 55.277 143.192, 55.100 150.150 C 54.762 163.475, 55.599 168.108, 59.297 173.376 C 63.142 178.854, 74.447 181.828, 86.511 180.536 L 92.837 179.858 89.890 175.493 C 86.775 170.877, 82.330 161.548, 75.917 146.163 L 72.025 136.827 76.762 140.443 C 79.368 142.431, 84.875 146.080, 89 148.551 L 96.500 153.043 96.835 150.330 C 97.019 148.838, 96.886 145.726, 96.539 143.414 L 95.909 139.210 79.847 133.600 C 62.793 127.643, 57.335 126.371, 55.141 127.841 M 121.015 134.750 C 121.007 135.988, 121.450 137, 122 137 C 123.253 137, 123.253 135.939, 122 134 C 121.216 132.787, 121.028 132.931, 121.015 134.750 M 99.551 146.725 C 99.944 150.451, 100.768 153.831, 101.383 154.235 C 101.997 154.639, 104.328 154.976, 106.561 154.985 C 112.384 155.007, 115.399 151.925, 117.310 144 C 117.895 141.576, 117.754 141.500, 112.707 141.500 C 109.843 141.500, 105.550 141.151, 103.168 140.725 L 98.835 139.950 99.551 146.725 M 79 146.494 C 79 147.877, 88.651 168.260, 91.668 173.250 C 97.014 182.091, 98 180.968, 98 166.040 L 98 156.243 94.909 154.962 C 93.209 154.258, 89.144 151.954, 85.875 149.841 C 79.964 146.020, 79 145.551, 79 146.494" stroke="none" fill="black" fill-rule="evenodd"/>
</svg>