<svg xmlns="http://www.w3.org/2000/svg" width="200" height="200" viewBox="0 0 200 200" version="1.1">
	<path d="M 86.804 12.515 C 86.422 12.905, 81.703 13.287, 76.318 13.362 C 66.754 13.497, 66.497 13.562, 65.248 16.167 C 64.116 18.530, 64.372 19.960, 67.485 28.667 C 69.418 34.075, 71 38.776, 71 39.112 C 71 39.449, 68.638 40.002, 65.750 40.342 C 50.095 42.182, 41.432 48.476, 49.822 51.915 C 52.968 53.204, 65.524 54.925, 72.109 54.969 L 76.717 55 78.747 60.510 C 79.863 63.540, 80.485 66.200, 80.128 66.421 C 79.771 66.641, 73.713 69.122, 66.665 71.934 C 45.412 80.413, 37 85.375, 37 89.431 C 37 90.269, 38.151 91.708, 39.557 92.629 C 41.855 94.135, 42.997 94.175, 50.807 93.021 C 55.588 92.315, 65.549 90.218, 72.943 88.361 C 80.336 86.504, 86.693 85.326, 87.070 85.743 C 87.446 86.159, 88.550 88.975, 89.523 92 C 90.495 95.025, 91.508 98.085, 91.772 98.800 C 92.161 99.853, 86.205 100.043, 60.376 99.800 C 24.818 99.465, 21.617 99.892, 22.197 104.893 C 22.573 108.133, 28.041 111.040, 39.500 114.094 C 50.517 117.030, 73.374 117.900, 81.079 115.677 C 84.060 114.817, 88.777 113.816, 91.561 113.453 L 96.621 112.793 97.874 117.146 C 98.564 119.541, 99.375 122.354, 99.678 123.398 C 100.167 125.083, 99.851 125.217, 96.864 124.591 C 76.926 120.416, 57.326 123.445, 54.628 131.117 C 50.959 141.549, 66.042 146.563, 87.657 142.098 C 93.243 140.944, 99.393 140, 101.324 140 L 104.833 140 107.020 149.250 C 109.464 159.588, 110.581 169.042, 109.648 171.476 C 108.667 174.030, 105.817 171.955, 92.350 158.883 C 77.071 144.050, 72.735 142.595, 70.609 151.585 C 70.048 153.955, 67.228 158.494, 63.373 163.230 C 56.025 172.258, 53.994 175.832, 54.015 179.700 C 54.035 183.348, 54.933 184.644, 58.335 185.937 C 62.531 187.532, 69.062 187.230, 80.343 184.919 C 89.076 183.130, 92.463 182.933, 104.500 183.513 C 127.347 184.614, 151.421 181.507, 155.571 176.922 C 158.422 173.771, 156.708 170.651, 150.268 167.270 C 147.096 165.604, 142.700 163.684, 140.500 163.003 C 138.300 162.323, 134.759 160.131, 132.630 158.133 C 128.522 154.275, 124.026 145.992, 124.010 142.250 C 124.001 140.227, 124.485 140, 128.818 140 C 141.438 140, 150.142 133.683, 153.369 122.182 L 155.008 116.339 162.887 114.646 C 173.905 112.278, 180.728 107.127, 182.523 99.821 L 183.181 97.143 177.390 98.655 C 169.545 100.703, 164.247 99.793, 159.366 95.558 L 155.500 92.204 158.179 90.086 C 162.309 86.819, 165.176 81.515, 164.815 77.808 C 164.413 73.673, 160.015 70.571, 152.188 68.904 C 149.060 68.238, 146.001 67.200, 145.391 66.597 C 144.781 65.994, 143.147 61.789, 141.760 57.253 L 139.237 49.005 145.019 45.826 C 151.296 42.376, 151.775 40.550, 146.624 39.714 C 144.834 39.423, 137.887 37.054, 131.185 34.449 C 120.398 30.256, 119 29.443, 119 27.359 C 119 23.694, 112.579 17.360, 106.591 15.120 C 101.025 13.038, 87.976 11.319, 86.804 12.515 M 84.550 15.898 C 85.930 17.203, 115.268 28.065, 115.848 27.486 C 116.835 26.498, 113.535 21.876, 110.505 20.003 C 108.789 18.943, 104.729 17.383, 101.482 16.537 C 95.067 14.866, 82.976 14.410, 84.550 15.898 M 72.233 18.113 C 69.549 18.896, 69.133 19.373, 69.906 20.783 C 71.836 24.307, 79.720 31.060, 83.051 32.043 C 88.780 33.734, 105.044 34.367, 109.750 33.083 C 114.228 31.861, 115.171 30.587, 112.250 29.705 C 111.287 29.415, 103.975 26.706, 96 23.686 C 79.449 17.418, 76.769 16.790, 72.233 18.113 M 70.868 30.009 C 71.928 33.029, 73.114 36.288, 73.504 37.250 C 74.122 38.774, 75.719 39.003, 85.857 39.024 C 92.261 39.037, 99.231 39.449, 101.347 39.940 C 104.722 40.724, 105.755 40.477, 109.773 37.929 C 112.292 36.331, 115.908 34.733, 117.809 34.376 C 120.462 33.878, 120.903 33.525, 119.705 32.855 C 118.660 32.270, 116.980 32.669, 114.615 34.065 C 109.537 37.061, 98.750 37.653, 87.500 35.553 C 79.046 33.975, 78.210 33.589, 73.721 29.195 L 68.942 24.518 70.868 30.009 M 117.499 37.377 C 115.299 38.073, 111.612 39.890, 109.307 41.416 C 107.002 42.941, 104.668 43.913, 104.121 43.575 C 102.039 42.288, 86.256 40.896, 80.841 41.522 L 75.181 42.175 76.708 46.657 C 77.726 49.644, 79.030 51.441, 80.618 52.045 C 83.260 53.049, 83.843 55, 81.500 55 C 79.669 55, 79.663 54.654, 81.594 60.322 C 82.471 62.895, 83.606 65, 84.116 65 C 85.816 65, 101 56.992, 101 56.096 C 101 55.611, 100.250 54.926, 99.333 54.574 C 98.159 54.124, 97.979 53.621, 98.725 52.875 C 99.472 52.128, 100.408 52.148, 101.893 52.943 C 106.471 55.393, 103.641 59.135, 93.635 63.863 C 89.983 65.588, 86.546 67, 85.997 67 C 85.449 67, 85 67.595, 85 68.322 C 85 70.039, 88.058 79.268, 88.962 80.279 C 89.345 80.708, 93.898 80.319, 99.079 79.416 C 114.914 76.654, 129.820 78.853, 144.111 86.059 L 149.723 88.889 147.508 83.194 C 146.290 80.062, 144.659 75.734, 143.884 73.576 C 142.567 69.909, 142.099 69.567, 136.729 68.347 C 126.359 65.992, 122.506 62.660, 124.925 58.140 C 125.495 57.075, 128.052 54.364, 130.607 52.115 C 135.041 48.211, 135.198 47.893, 134.054 45.130 C 132.401 41.139, 128.091 37.319, 124.500 36.661 C 122.850 36.359, 119.700 36.681, 117.499 37.377 M 135.673 42.083 C 137.099 44.237, 138.543 45.997, 138.883 45.993 C 139.222 45.990, 140.705 45.192, 142.178 44.220 L 144.857 42.454 138.969 40.310 L 133.081 38.165 135.673 42.083 M 62.963 43.481 C 59.367 44.204, 54.642 45.544, 52.463 46.459 C 49.206 47.827, 48.792 48.288, 50.141 49.050 C 52.302 50.271, 64.137 51.955, 70.732 51.980 L 75.965 52 74.204 47.258 C 73.236 44.650, 71.781 42.438, 70.972 42.341 C 70.162 42.245, 66.558 42.758, 62.963 43.481 M 131.478 55.127 C 126.442 59.769, 125.993 61.385, 129.250 63.145 C 133.035 65.189, 142.233 67.057, 141.726 65.678 C 141.488 65.030, 140.290 61.462, 139.065 57.750 C 137.839 54.038, 136.639 51, 136.396 51 C 136.154 51, 133.940 52.857, 131.478 55.127 M 65.500 75.335 C 50.705 81.430, 41.738 85.998, 40.439 88.099 C 37.893 92.219, 49.317 91.387, 72 85.800 C 78.875 84.107, 84.838 82.424, 85.251 82.059 C 86.091 81.319, 82.193 68.956, 81.158 69.078 C 80.796 69.121, 73.750 71.936, 65.500 75.335 M 146 71.096 C 146 73.114, 152.134 87.866, 153.415 88.930 C 154.454 89.792, 155.476 89.222, 157.955 86.398 C 163.018 80.632, 163.755 78.311, 161.302 75.857 C 159.040 73.595, 146 69.538, 146 71.096 M 97.791 82.388 C 94.101 83.046, 90.843 83.824, 90.551 84.116 C 90.258 84.408, 91.180 88.102, 92.600 92.324 L 95.181 100 101.340 99.996 C 114.101 99.988, 140.921 97.515, 151.311 95.389 L 154.122 94.814 150.811 92.878 C 143.213 88.434, 132.757 83.919, 126.832 82.522 C 119.381 80.766, 107.204 80.710, 97.791 82.388 M 142.500 99.546 C 138.100 100.243, 125.887 101.380, 115.360 102.073 L 96.219 103.331 97.456 106.916 L 98.693 110.500 109.097 111.140 C 114.818 111.492, 126.967 112.122, 136.093 112.541 L 152.687 113.303 153.343 108.512 C 153.704 105.877, 154 102.434, 154 100.860 C 154 97.610, 154.418 97.657, 142.500 99.546 M 156.651 103.228 C 155.453 113.199, 155.491 113.314, 159.750 112.547 C 167.246 111.197, 171.094 109.612, 175.008 106.262 C 177.203 104.382, 179 102.477, 179 102.028 C 179 101.580, 177.093 101.641, 174.761 102.165 C 170.122 103.207, 163.484 102.018, 159.549 99.440 C 157.313 97.975, 157.276 98.023, 156.651 103.228 M 27.169 103.071 C 22.870 104.398, 24.146 106.164, 31.341 108.850 C 45.782 114.239, 72.266 116.223, 81.876 112.634 C 84.282 111.735, 88.276 111, 90.751 111 L 95.250 111 94.606 107.781 C 94.252 106.011, 93.633 104.248, 93.231 103.863 C 91.977 102.663, 30.862 101.930, 27.169 103.071 M 100 114.322 C 100 115.049, 100.679 117.636, 101.509 120.072 L 103.018 124.500 114.459 124.500 C 128.510 124.500, 129.204 124.933, 126.652 132.118 C 125.662 134.905, 125.015 137.348, 125.213 137.547 C 126.086 138.419, 138.451 135.962, 141.718 134.267 C 145.577 132.264, 150.288 125.021, 151.485 119.250 L 152.159 116 144.829 115.972 C 140.798 115.956, 129.400 115.291, 119.500 114.493 C 109.600 113.695, 101.162 113.033, 100.750 113.021 C 100.338 113.010, 100 113.595, 100 114.322 M 68.326 125.979 C 59.652 127.830, 54.858 131.997, 56.936 135.880 C 59.568 140.799, 74.316 142.505, 87 139.358 C 90.575 138.471, 95.862 137.809, 98.750 137.888 C 101.638 137.966, 103.993 137.911, 103.985 137.765 C 103.976 137.619, 103.364 135.475, 102.625 133 C 101.325 128.653, 101.096 128.458, 95.890 127.277 C 88.531 125.607, 73.407 124.894, 68.326 125.979 M 104.015 127.750 C 104.024 128.162, 104.634 130.525, 105.373 133 L 106.715 137.500 114.109 137.788 L 121.504 138.075 123.252 133.153 C 124.213 130.446, 125 127.954, 125 127.616 C 125 127.277, 120.275 127, 114.500 127 C 108.725 127, 104.007 127.338, 104.015 127.750 M 108.320 142.594 C 113.361 165.774, 113.819 169.601, 111.965 173.066 C 110.596 175.624, 106.953 175.518, 103.385 172.815 C 101.798 171.614, 95.472 165.764, 89.327 159.815 C 76.560 147.456, 73 146.186, 73 153.991 C 73 154.996, 70.344 158.997, 67.098 162.883 C 53.545 179.104, 53.054 184, 64.983 184 C 68.196 184, 74.351 183.276, 78.662 182.390 C 84.406 181.211, 93.314 180.713, 112 180.529 C 142.783 180.225, 154 178.320, 154 173.394 C 154 171.837, 146.921 168.069, 139.327 165.583 C 131.491 163.019, 123.533 153.473, 121.543 144.250 C 120.924 141.383, 120.453 141, 117.546 141 C 115.733 141, 112.773 140.705, 110.969 140.344 C 107.769 139.704, 107.703 139.759, 108.320 142.594" stroke="none" fill="black" fill-rule="evenodd"/>
</svg>