<svg xmlns="http://www.w3.org/2000/svg" width="200" height="200" viewBox="0 0 200 200" version="1.1">
	<path d="M 95 11.043 C 88.675 11.440, 78.404 12.551, 72.176 13.513 C 61.857 15.106, 60.769 15.477, 59.926 17.696 C 55.245 30.006, 69.113 39.119, 87.916 36.091 C 91.436 35.524, 96.382 34.034, 98.907 32.780 C 102.816 30.839, 103.500 30.059, 103.500 27.540 C 103.500 22.597, 98.335 20.132, 80.132 16.390 C 78.830 16.122, 77.940 15.727, 78.155 15.511 C 78.370 15.296, 85.401 14.580, 93.778 13.919 C 110.560 12.597, 125.889 13.645, 132.781 16.586 L 136.500 18.174 134 19.777 C 132.625 20.659, 127.030 25.790, 121.566 31.179 C 112.244 40.375, 111.522 40.878, 109.844 39.359 C 108.192 37.864, 107.348 37.912, 98.778 39.994 C 92.880 41.426, 84.217 42.525, 75 43.009 C 57.079 43.951, 47 46.844, 47 51.046 C 47 52.637, 52.248 54.693, 62 56.922 C 73.801 59.619, 81 61.911, 81 62.970 C 81 64.583, 72.185 67.863, 59.477 70.979 C 52.340 72.729, 45.755 74.367, 44.843 74.618 C 42.865 75.164, 40 81.868, 40 85.949 C 40 93.241, 45.636 93.655, 66.288 87.879 C 74.421 85.604, 81.332 83.999, 81.646 84.313 C 82.091 84.758, 76.216 95.633, 74.251 98 C 74.023 98.275, 66.097 98.738, 56.639 99.029 C 41.793 99.486, 38.967 99.834, 35.971 101.580 C 31.360 104.266, 31 107.264, 34.857 110.867 C 38.273 114.058, 48.343 117.670, 56.491 118.628 C 64.364 119.553, 63.791 123.062, 55.560 124.329 C 53.393 124.663, 50.713 125.842, 49.605 126.950 L 47.591 128.964 50.256 131.746 C 51.722 133.276, 57.224 136.962, 62.483 139.938 C 72.864 145.813, 74.886 147.514, 73.334 149.066 C 72.061 150.339, 57.664 151.983, 47.705 151.992 L 39.909 152 40.589 155.750 C 43.642 172.604, 53.891 182.362, 71.916 185.577 C 81.954 187.368, 85.488 187.348, 112.275 185.347 C 133.668 183.750, 135.490 183.749, 142.275 185.336 C 160.404 189.576, 169.495 185.735, 169.226 173.948 C 168.935 161.183, 153.688 141.060, 146.126 143.460 C 143.902 144.166, 142 148.090, 142 151.975 C 142 154.849, 141.987 154.854, 136.750 154.342 C 132.337 153.909, 128.950 154.639, 115.500 158.917 C 98.310 164.385, 88.447 166.780, 87.406 165.740 C 87.049 165.382, 87.925 163.097, 89.353 160.661 C 95.603 149.997, 111.919 139.852, 123.912 139.175 C 128.183 138.934, 131.762 139.311, 134.013 140.241 C 137.229 141.568, 138.347 141.459, 148.387 138.839 C 154.375 137.277, 161.125 134.980, 163.387 133.734 C 168.387 130.982, 169.254 127.892, 165.506 126.185 C 160.663 123.978, 139.193 122.719, 116.750 123.326 C 104.787 123.649, 95 123.730, 95 123.506 C 95 119.809, 97.565 112.768, 99.238 111.872 C 102.296 110.236, 119.992 110.603, 132 112.552 C 154.725 116.240, 161.344 114.686, 166.500 104.454 C 169.440 98.619, 169.504 98.170, 169.688 82 C 169.791 72.925, 170.380 62.350, 170.996 58.500 C 173.436 43.243, 168.841 25.458, 160.586 18.209 C 156.237 14.391, 151.371 13.376, 144.634 14.881 C 140.169 15.878, 138.760 15.768, 133.825 14.032 C 125.229 11.008, 111.907 9.982, 95 11.043 M 144.192 17.860 C 143.157 18.517, 143.338 19.459, 145.063 22.382 C 148.098 27.527, 147.404 34.823, 143.067 43.368 L 139.791 49.822 142.538 56.661 C 146.099 65.529, 146.906 75.339, 144.576 81.440 C 140.880 91.117, 131.144 96.199, 111.500 98.703 C 104.900 99.544, 99.439 100.292, 99.364 100.366 C 99.290 100.440, 98.929 102.312, 98.564 104.527 L 97.900 108.554 108.200 108.178 C 115.235 107.921, 123.042 108.467, 132.830 109.901 C 150.274 112.456, 152.370 112.469, 157.691 110.053 C 160.690 108.692, 162.539 106.920, 164.191 103.825 C 166.302 99.871, 166.520 98.073, 166.736 82.850 C 166.866 73.692, 167.520 63.007, 168.189 59.105 C 169.116 53.698, 169.139 49.897, 168.285 43.131 C 166.903 32.184, 163.955 25.096, 158.878 20.508 C 155.578 17.527, 154.281 17.002, 150.247 17.015 C 147.636 17.024, 144.911 17.404, 144.192 17.860 M 62.667 18.667 C 61.434 19.900, 61.986 25.535, 63.561 27.783 C 64.419 29.009, 66.433 30.690, 68.036 31.518 C 74.934 35.086, 91.893 34.176, 98.995 29.857 C 102.082 27.979, 102.145 27.817, 100.491 25.990 C 98.233 23.496, 91.148 21.197, 80.277 19.432 C 70.846 17.901, 63.741 17.593, 62.667 18.667 M 135.453 22.302 C 128.841 27.072, 124.271 31.195, 119.169 36.993 L 113.837 43.051 119.930 55.275 C 123.281 61.999, 126.693 70.182, 127.512 73.460 C 129.080 79.741, 129.521 89.013, 128.250 88.982 C 127.838 88.972, 125.526 87.626, 123.113 85.991 C 118.033 82.548, 113.191 81.013, 107.388 81.006 L 103.276 81 101.730 88.750 C 100.879 93.013, 100.345 96.665, 100.542 96.867 C 101.368 97.712, 120.278 94.849, 126.442 92.945 C 133.771 90.681, 139.955 85.938, 141.994 81.015 C 143.981 76.218, 142.823 64.576, 139.567 56.611 L 136.752 49.722 140.464 42.506 C 144.868 33.944, 145.501 27.487, 142.348 23.265 C 139.757 19.794, 139.064 19.698, 135.453 22.302 M 97 43.153 C 92.125 44.423, 84.931 45.254, 76.444 45.526 C 66.900 45.832, 61.536 46.517, 56.499 48.073 C 51.536 49.606, 50.033 50.439, 51.126 51.051 C 51.960 51.518, 58.554 53.305, 65.779 55.022 C 77.828 57.887, 84 60.600, 84 63.034 C 84 66.465, 71.276 71.561, 52.818 75.522 C 45.742 77.041, 45.052 77.412, 44.068 80.234 C 42.396 85.032, 42.699 88.982, 44.750 89.106 C 49.313 89.382, 53.402 88.642, 64.500 85.530 C 71.100 83.679, 78.347 81.678, 80.605 81.083 C 84.487 80.060, 85.347 79.050, 96.429 62.501 C 102.935 52.784, 107.998 44.228, 107.812 43.262 C 107.356 40.894, 105.731 40.878, 97 43.153 M 110.578 47 C 110.268 47.825, 108.915 53.927, 107.573 60.561 C 106.231 67.194, 104.846 73.765, 104.495 75.163 C 103.880 77.614, 104.058 77.726, 109.432 78.281 C 112.497 78.597, 117.480 79.989, 120.503 81.373 L 126 83.889 126 81.050 C 126 74.836, 117.875 54.410, 112.654 47.500 C 111.403 45.845, 111.046 45.758, 110.578 47 M 97.803 65.227 C 93.687 71.427, 89.992 77.070, 89.590 77.767 C 89.020 78.758, 90.129 78.891, 94.681 78.378 C 97.881 78.017, 100.665 77.582, 100.867 77.411 C 101.480 76.891, 106.092 54.759, 105.675 54.341 C 105.461 54.128, 101.919 59.026, 97.803 65.227 M 89.581 81.868 C 87.275 82.367, 85.753 84.040, 82.331 89.835 C 79.949 93.869, 78 97.357, 78 97.585 C 78 98.213, 87.905 97.942, 92.960 97.176 L 97.420 96.500 98.666 90.500 C 100.606 81.164, 100.559 80.982, 96.250 81.118 C 94.188 81.183, 91.187 81.521, 89.581 81.868 M 80.017 100.900 C 75.680 101.480, 75.410 101.726, 71.767 108.402 C 69.695 112.198, 68 115.707, 68 116.201 C 68 117.573, 79.612 116.014, 87.466 113.587 L 94.431 111.435 95.576 105.718 L 96.722 100 90.611 100.150 C 87.250 100.233, 82.482 100.570, 80.017 100.900 M 46.400 102.066 C 38.312 102.867, 34.734 104.381, 35.201 106.804 C 35.852 110.188, 47.246 114.659, 59.680 116.412 L 63.859 117.001 67.930 109.627 C 70.168 105.572, 71.998 102.084, 71.994 101.877 C 71.985 101.206, 53.711 101.341, 46.400 102.066 M 87.500 116.608 C 85.300 117.416, 80.800 118.308, 77.500 118.591 C 66.151 119.566, 65.309 119.840, 64.014 122.966 C 63.187 124.963, 61.889 126.060, 59.903 126.442 C 58.306 126.749, 55.650 127.261, 54 127.579 C 52.350 127.898, 51 128.526, 51 128.975 C 51 129.834, 55.676 132.878, 67.807 139.917 C 76.486 144.953, 78.662 148.235, 75.188 151.049 C 72.907 152.896, 69.933 153.387, 52.862 154.738 L 43.224 155.500 45.082 161.535 C 49.674 176.447, 63.496 183.938, 86.500 183.983 C 91.450 183.992, 104.485 183.264, 115.466 182.363 C 134.400 180.811, 135.785 180.818, 142.279 182.502 C 160.660 187.270, 168.914 183.130, 166.100 170.555 C 164.029 161.303, 155.828 149.414, 149.790 146.913 C 145.904 145.303, 145.036 146.628, 145.015 154.199 L 145 159.898 141.532 158.449 C 136.131 156.192, 132.124 156.669, 116.774 161.394 C 88.655 170.049, 86.807 170.376, 85.008 167.014 C 82.737 162.772, 90.138 152.764, 101.388 144.863 C 112.583 137.002, 125.140 134.176, 134.325 137.452 C 137.781 138.684, 139.024 138.582, 147.232 136.385 C 158.848 133.276, 165.699 130.299, 164.346 128.946 C 162.268 126.868, 144.099 125.794, 118.250 126.222 C 88.939 126.707, 91.339 127.368, 92.909 119.250 C 93.836 114.462, 93.627 114.360, 87.500 116.608" stroke="none" fill="black" fill-rule="evenodd"/>
</svg>