<svg xmlns="http://www.w3.org/2000/svg" width="200" height="200" viewBox="0 0 200 200" version="1.1">
	<path d="M 68.392 13.967 C 64.840 15.422, 64.710 20.035, 67.963 29.228 C 71.144 38.217, 71.072 38.468, 65.020 39.505 C 56.761 40.919, 48.119 47.540, 49.576 51.336 C 50.936 54.882, 55.960 56.384, 66.938 56.528 L 77.377 56.664 78.612 60.082 C 79.292 61.962, 79.882 64, 79.924 64.611 C 79.966 65.222, 74.938 67.659, 68.750 70.027 C 39.133 81.359, 31.651 86.754, 37.816 92.333 C 42.038 96.154, 50.494 95.229, 73.090 88.473 C 79.479 86.563, 85.181 85, 85.761 85 C 86.342 85, 87.748 87.760, 88.888 91.133 L 90.959 97.266 59.229 96.638 C 41.778 96.293, 24.912 95.646, 21.750 95.202 C 18.587 94.758, 16 94.549, 16 94.737 C 16 96.389, 20.837 103.837, 23.897 106.897 C 29.173 112.173, 37.203 115.846, 51.317 119.439 C 57.930 121.122, 63.524 123.052, 63.747 123.727 C 64.301 125.407, 59.986 129.222, 50.736 135.233 C 46.456 138.013, 43.227 140.561, 43.559 140.894 C 43.892 141.227, 57.740 141.725, 74.332 142 L 104.500 142.500 106.671 152 C 107.864 157.225, 108.877 164.139, 108.921 167.365 L 109 173.230 106.250 171.490 C 104.737 170.533, 98.550 164.712, 92.500 158.555 C 80.265 146.103, 76.487 143.796, 72.553 146.374 C 70.962 147.416, 69.870 149.312, 69.459 151.742 C 69.111 153.809, 68.590 156.400, 68.303 157.500 C 68.016 158.600, 63.286 163.834, 57.794 169.130 C 47.223 179.323, 46.324 181.268, 51.009 183.792 C 52.963 184.844, 57.059 184.986, 70 184.447 C 79.075 184.069, 97.525 183.657, 111 183.533 C 135.359 183.307, 152.065 181.613, 157.349 178.833 C 165.448 174.571, 159.948 170.354, 139.377 165.054 C 135.571 164.073, 135.204 163.678, 134.602 159.915 C 134.050 156.459, 132.872 153.153, 128.255 142.098 C 127.761 140.916, 130.354 140.781, 144.835 141.237 C 158.313 141.661, 162 141.505, 162 140.509 C 162 139.812, 158.139 137.074, 153.419 134.426 C 144.083 129.186, 136 122.673, 136 120.390 C 136 118.303, 139.281 117.345, 152.622 115.537 C 168.842 113.338, 174.253 111.676, 177.413 107.921 C 180.445 104.318, 180.572 103.007, 178.345 98.314 C 176.918 95.307, 176.332 94.911, 174.095 95.445 C 166.778 97.188, 163.476 97.094, 160.216 95.049 C 155.540 92.115, 155.238 90.394, 158.748 86.684 C 162.640 82.569, 164 79.840, 164 76.138 C 164 71.988, 160.490 69.522, 151.597 67.425 L 144.270 65.698 140.988 57.672 L 137.707 49.646 140.603 47.271 C 142.197 45.966, 145.413 43.753, 147.750 42.353 C 151.866 39.890, 152.542 38, 149.308 38 C 148.442 38, 141.476 35.917, 133.827 33.372 C 122.209 29.506, 119.694 28.313, 118.555 26.122 C 116.554 22.278, 113.118 19.391, 107.488 16.823 C 103.193 14.865, 100.676 14.525, 89.372 14.381 C 82.152 14.288, 74.952 13.963, 73.372 13.659 C 71.793 13.354, 69.551 13.493, 68.392 13.967 M 68.500 17 C 67.769 18.183, 68.748 18.183, 71.500 17 C 73.428 16.171, 73.421 16.138, 71.309 16.070 C 70.104 16.032, 68.840 16.450, 68.500 17 M 100.500 21.355 C 107.100 23.784, 113.340 26.115, 114.366 26.537 C 116.005 27.210, 116.097 27.050, 115.122 25.228 C 113.180 21.599, 103.775 17.774, 95.711 17.334 L 88.500 16.940 100.500 21.355 M 73.750 19.203 C 71.688 19.750, 70 20.507, 70 20.883 C 70 21.260, 72.373 23.912, 75.273 26.776 C 79.842 31.288, 81.346 32.136, 86.523 33.123 C 96.091 34.947, 108.901 34.694, 112.865 32.604 C 114.716 31.628, 115.841 30.471, 115.365 30.032 C 113.876 28.658, 81.975 17.995, 79.681 18.103 C 78.481 18.160, 75.813 18.655, 73.750 19.203 M 70.534 28 C 70.948 29.375, 71.828 32.075, 72.490 34 L 73.695 37.500 82.598 38.168 C 87.494 38.536, 93.460 39.545, 95.856 40.411 C 100.090 41.942, 100.330 41.916, 104.356 39.503 L 108.500 37.019 100.582 37.009 C 96.227 37.004, 89.702 36.502, 86.082 35.892 C 80.302 34.920, 78.908 34.219, 74.641 30.142 C 70.501 26.187, 69.894 25.870, 70.534 28 M 116.750 33.083 C 115.054 34.941, 115.109 35, 118.540 35 C 123.390 35, 129.271 38.210, 133.061 42.926 L 136.227 46.865 141.016 43.696 L 145.806 40.527 132.153 35.785 C 124.644 33.177, 118.500 31.071, 118.500 31.105 C 118.500 31.139, 117.713 32.029, 116.750 33.083 M 106.610 41.407 L 100.074 44.813 93.948 42.907 C 88.692 41.271, 75 40.190, 75 41.411 C 75 41.637, 75.981 44.386, 77.181 47.521 L 79.362 53.219 83.623 52.739 C 89.652 52.060, 90.458 54.554, 84.499 55.448 L 80.139 56.102 81.206 59.301 C 81.793 61.060, 82.602 62.868, 83.005 63.318 C 83.841 64.254, 89.498 62.068, 95.809 58.371 C 99.256 56.352, 99.889 55.571, 98.973 54.467 C 97.372 52.538, 98.728 50.530, 100.589 52.074 C 104.326 55.175, 100.954 59.259, 90.690 64.059 C 86.944 65.811, 84.074 67.752, 84.311 68.372 C 84.549 68.993, 85.559 72.091, 86.557 75.259 C 87.982 79.782, 88.730 80.903, 90.045 80.486 C 96.136 78.553, 106.792 77.032, 114.356 77.017 C 124.634 76.997, 132.864 78.877, 142 83.331 C 145.575 85.074, 148.810 86.641, 149.188 86.813 C 149.566 86.985, 148.174 82.949, 146.093 77.844 L 142.310 68.563 136.569 66.858 C 125.647 63.616, 124.187 58.935, 131.608 50.960 L 133.971 48.421 130.896 44.689 C 124.489 36.917, 117.131 35.923, 106.610 41.407 M 63.148 42.895 C 57.002 45.039, 52.500 48.088, 52.500 50.108 C 52.500 52.304, 58.775 53.882, 67.750 53.944 C 76.992 54.007, 76.802 54.229, 74.091 46.500 C 72.030 40.625, 70.808 40.222, 63.148 42.895 M 132.783 53.750 C 129.577 57.426, 128.897 59.754, 130.547 61.404 C 132.108 62.965, 139.840 65.494, 140.631 64.702 C 141.236 64.098, 135.895 52, 135.024 52 C 134.631 52, 133.623 52.788, 132.783 53.750 M 75.500 70.279 C 72.750 71.390, 64.987 74.531, 58.249 77.259 C 51.511 79.987, 44.115 83.583, 41.814 85.250 L 37.629 88.281 39.925 90.141 C 43.774 93.257, 50.006 92.375, 73.645 85.366 L 85.790 81.765 83.764 75.633 C 82.650 72.260, 81.459 69.221, 81.119 68.879 C 80.779 68.538, 78.250 69.168, 75.500 70.279 M 146 69.816 C 146 71.195, 152.017 85.307, 153.087 86.437 C 155.037 88.497, 162.761 78.427, 161.584 75.359 C 160.573 72.723, 146 67.539, 146 69.816 M 107 79.965 C 97.544 81.260, 90 83.102, 90 84.114 C 90 84.649, 90.787 87.804, 91.750 91.126 L 93.500 97.166 111.500 96.695 C 127.750 96.269, 130.461 95.936, 139.383 93.271 L 149.265 90.319 144.383 87.579 C 133.265 81.338, 118.670 78.365, 107 79.965 M 141.500 95.586 C 131.873 98.242, 117.918 99.853, 103.750 99.944 C 98.938 99.975, 95 100.370, 95 100.822 C 95 101.274, 95.717 103.749, 96.594 106.322 C 97.770 109.772, 98.706 111, 100.160 111 C 102.758 111, 105.577 112.518, 110.767 116.713 L 115.034 120.162 122.767 115.948 C 138.671 107.281, 153 96.926, 153 94.099 C 153 92.587, 151.819 92.740, 141.500 95.586 M 151.946 99.594 C 147.853 103.861, 134.324 112.934, 123.835 118.446 L 116.326 122.391 121.370 130.196 L 126.415 138 136.068 138 C 141.377 138, 147.921 138.268, 150.610 138.595 L 155.500 139.190 149.500 135.491 C 141.884 130.795, 135.313 125.453, 133.896 122.806 C 132.167 119.574, 134.222 116.282, 138.706 115.102 C 140.792 114.553, 147.662 113.394, 153.971 112.526 C 172.934 109.917, 177.770 107.601, 176.588 101.692 C 175.785 97.675, 175.633 97.584, 171.902 98.884 C 167.363 100.467, 164.975 100.282, 160.500 98 C 158.342 96.900, 156.311 96, 155.985 96 C 155.659 96, 153.842 97.617, 151.946 99.594 M 21 98.926 C 21 101.112, 29.693 108.709, 35.146 111.289 C 38.183 112.726, 45.580 115.106, 51.584 116.578 C 63.643 119.535, 67 121.129, 67 123.896 C 67 125.995, 60.469 132.332, 54.500 136.025 L 50.500 138.500 61 139.109 C 66.775 139.444, 78.608 139.485, 87.295 139.201 L 103.089 138.683 102.415 135.592 C 100.908 128.682, 100.809 128.598, 94.516 128.890 L 88.715 129.158 89.234 125.329 C 89.753 121.500, 91.974 115.837, 94.076 112.985 C 94.914 111.849, 94.786 110.073, 93.566 105.876 L 91.940 100.282 61.220 99.604 C 44.324 99.232, 28.363 98.673, 25.750 98.363 C 22.560 97.984, 21 98.169, 21 98.926 M 99.322 115.396 C 99.616 116.164, 100.397 118.592, 101.056 120.792 L 102.254 124.792 106.627 123.302 C 109.032 122.482, 111 121.407, 111 120.912 C 111 120.417, 109.132 118.660, 106.850 117.006 C 102.461 113.827, 98.385 112.955, 99.322 115.396 M 94.747 117.021 C 93.868 118.384, 92.830 121.236, 92.442 123.358 L 91.737 127.217 95.118 126.492 C 96.978 126.093, 98.674 125.608, 98.886 125.413 C 99.099 125.219, 98.615 122.694, 97.810 119.801 L 96.347 114.541 94.747 117.021 M 107.500 125.763 C 105.300 126.638, 103.397 127.415, 103.271 127.489 C 103.145 127.563, 103.771 130.184, 104.661 133.312 C 106.471 139.675, 106.201 139.576, 117.798 138.151 L 123.097 137.500 118.736 131.002 C 116.337 127.428, 113.728 124.429, 112.938 124.338 C 112.147 124.246, 109.700 124.888, 107.500 125.763 M 107.017 141.750 C 107.027 142.162, 107.918 145.875, 108.999 150 C 110.079 154.125, 111.255 160.275, 111.611 163.666 C 113.314 179.872, 108.086 179.073, 90.674 160.467 C 81.086 150.222, 76.089 146.852, 73.577 148.936 C 72.710 149.656, 71.998 151.652, 71.996 153.372 C 71.991 158.058, 68.781 162.635, 59.248 171.554 C 53.177 177.234, 50.884 180.003, 51.469 180.949 C 52.138 182.033, 55.783 182.161, 70.399 181.617 C 80.355 181.247, 99.525 180.788, 113 180.598 C 136.264 180.270, 147.457 179.280, 154.750 176.904 C 156.537 176.321, 158 175.485, 158 175.046 C 158 173.763, 149.133 170.327, 140.920 168.426 L 133.340 166.672 131.747 159.881 C 130.870 156.147, 128.932 150.370, 127.440 147.045 L 124.727 141 115.863 141 C 110.989 141, 107.008 141.338, 107.017 141.750" stroke="none" fill="black" fill-rule="evenodd"/>
</svg>