<svg xmlns="http://www.w3.org/2000/svg" width="200" height="200" viewBox="0 0 200 200" version="1.1">
	<path d="M 131.411 12.144 C 130.978 12.845, 130.737 15.267, 130.876 17.527 C 131.074 20.750, 129.638 25.072, 124.217 37.568 C 120.416 46.331, 116.340 55.300, 115.159 57.500 L 113.013 61.500 113.650 47.793 C 114.363 32.448, 113.781 30.395, 108.050 28.021 C 104.449 26.529, 97.990 27.513, 89 30.923 C 82.105 33.539, 80.580 34.511, 81.371 35.791 C 81.761 36.422, 84.690 35.676, 89.107 33.820 C 98.537 29.858, 105.666 29.097, 108.891 31.709 C 111.611 33.913, 111.710 35.307, 110.613 55.911 C 109.965 68.091, 109.876 68.457, 105.845 75.542 C 102.323 81.732, 101.195 82.925, 97.932 83.902 C 93.550 85.215, 86.868 90.247, 75.500 100.794 C 61.339 113.933, 50.674 119.892, 40.597 120.296 C 36.099 120.476, 35.465 120.253, 35.199 118.395 C 34.855 115.980, 39.235 111.270, 57.305 94.627 C 67.312 85.410, 69.063 83.355, 68.805 81.127 C 68.422 77.831, 65.268 77.305, 55.858 78.969 C 49.482 80.096, 49.001 80.035, 43.858 77.460 C 40.911 75.984, 36.992 73.644, 35.149 72.260 C 30.748 68.956, 32.227 68.038, 42 68.007 C 55.323 67.964, 71.696 66.086, 77.425 63.942 C 83.693 61.597, 88 57.168, 88 53.067 C 88 50.359, 87.823 50.271, 81.129 49.649 C 66.542 48.293, 42.347 40.257, 44.961 37.636 C 45.646 36.949, 51.015 36.369, 58.547 36.168 C 68.476 35.904, 71 35.549, 71 34.418 C 71 33.286, 68.935 33.001, 60.750 33.006 C 46.376 33.013, 39.963 35.135, 41.580 39.347 C 42.947 42.909, 61.451 49.488, 77.250 52.028 C 85.918 53.422, 86.660 54.425, 81.955 58.385 C 76.945 62.600, 64.930 64.833, 46 65.069 C 34.190 65.216, 31.159 65.800, 29.628 68.228 C 28.067 70.703, 31.713 74.107, 41.227 79.057 L 49.181 83.196 57.168 81.586 C 61.560 80.701, 65.577 80.239, 66.095 80.558 C 67.565 81.467, 63.821 85.579, 51.406 96.689 C 32.255 113.828, 28.904 118.926, 34.415 122.536 C 36.469 123.882, 37.757 123.951, 43.035 122.994 C 55.045 120.816, 63.638 115.529, 80.377 100.020 C 88.883 92.138, 97.864 85.531, 98.799 86.465 C 99.442 87.109, 90.739 98.993, 87.102 102.437 C 82.503 106.792, 82.858 110.514, 88.471 116.756 C 94.779 123.772, 101.028 126.303, 110.914 125.846 C 116.744 125.576, 119.846 124.835, 124.313 122.643 C 127.509 121.075, 130.330 119.997, 130.581 120.247 C 130.831 120.498, 129.790 123.080, 128.268 125.987 C 122.559 136.885, 115.515 137.470, 96.232 128.647 C 76.100 119.435, 73.045 119.222, 66.065 126.545 C 63.730 128.995, 61.426 131, 60.945 131 C 59.507 131, 57.846 134.940, 58.464 136.886 C 59.347 139.669, 63.157 140.916, 77.395 143.086 C 92.556 145.396, 96.818 146.415, 99.491 148.370 C 101.110 149.554, 101.241 150.176, 100.305 152.231 C 98.775 155.588, 89.458 161.573, 78.032 166.538 C 61.657 173.654, 58 176.204, 58 180.504 C 58 183.834, 61.111 185.250, 68.418 185.248 C 81.191 185.245, 95.921 179.414, 106.100 170.332 C 110.309 166.576, 112.905 165, 114.881 165 C 119.331 165, 127.284 168.151, 144.855 176.878 C 163.305 186.041, 168.091 187.090, 170.211 182.435 C 171.632 179.318, 170.288 173.492, 166.210 165.086 L 163.500 159.500 150.684 156.304 C 131.589 151.541, 127.417 148.473, 135.296 144.987 C 139.784 143.002, 163.049 136.330, 167.615 135.718 C 173.806 134.889, 170.282 132.739, 148.174 123.855 L 134.848 118.500 135.483 114 C 135.831 111.525, 136.510 105.518, 136.990 100.652 C 137.470 95.786, 138.101 91.566, 138.391 91.275 C 138.682 90.985, 141.137 95.482, 143.846 101.270 C 151.876 118.422, 155.355 117.086, 162.778 94 C 165.418 85.790, 165.946 82.260, 166.666 68 C 168.365 34.390, 167.229 26.150, 159.997 19.616 C 155.354 15.422, 149.709 13.718, 141.939 14.165 C 137.481 14.422, 135.759 14.092, 134.202 12.683 C 132.648 11.276, 132.022 11.155, 131.411 12.144 M 135.556 17.909 C 135.247 18.409, 136.659 23.696, 138.693 29.659 C 141.958 39.229, 142.397 41.672, 142.446 50.500 C 142.494 59.320, 142.234 60.872, 140.250 63.654 C 138.309 66.376, 138 68.070, 138 76 C 138 83.536, 138.354 85.689, 139.967 87.953 C 141.048 89.472, 143.947 95.054, 146.409 100.357 C 148.870 105.661, 151.367 110, 151.957 110 C 153.808 110, 156.803 103.968, 159.875 94.057 C 162.504 85.571, 162.975 82.017, 164.076 62.350 C 165.399 38.720, 164.896 32.275, 161.165 25.087 C 158.392 19.744, 152.366 17, 143.402 17 C 139.396 17, 135.865 17.409, 135.556 17.909 M 126.582 39.118 C 123.886 45.378, 119.905 54.071, 117.735 58.437 C 114.017 65.916, 113.894 66.449, 115.586 67.687 C 116.574 68.409, 117.943 69, 118.629 69 C 120.800 69, 133.470 65.891, 134.192 65.180 C 134.936 64.450, 133.360 38.054, 132.190 31.618 L 131.483 27.736 126.582 39.118 M 135.459 34 C 135.727 37.025, 136.250 44.548, 136.622 50.717 C 136.993 56.887, 137.668 61.705, 138.121 61.425 C 138.575 61.145, 139.440 59.081, 140.043 56.839 C 141.327 52.073, 139.918 41.756, 136.867 33.578 L 134.972 28.500 135.459 34 M 129.500 69.643 C 123.004 71.157, 114.303 71.299, 113.442 69.906 C 112.874 68.987, 106.125 79.192, 106.030 81.114 C 105.954 82.660, 115.251 82.922, 118.090 81.453 C 121.704 79.585, 128.875 79.328, 131.921 80.958 C 133.158 81.620, 134.380 81.954, 134.634 81.699 C 134.889 81.445, 134.962 78.366, 134.798 74.858 L 134.500 68.479 129.500 69.643 M 119.335 83.887 C 116.137 85.376, 113.817 85.706, 109.335 85.309 C 103.623 84.802, 103.461 84.858, 101.657 87.957 C 100.644 89.698, 97.640 93.960, 94.981 97.429 L 90.147 103.735 95.525 104.290 C 98.483 104.596, 105.159 104.592, 110.361 104.281 C 120.351 103.685, 128.168 104.948, 131.151 107.640 C 132.059 108.460, 133.052 108.725, 133.359 108.229 C 133.665 107.733, 134.223 102.580, 134.598 96.778 C 135.278 86.262, 135.272 86.224, 132.746 84.569 C 128.748 81.950, 124.012 81.709, 119.335 83.887 M 116.929 111.510 C 126.466 114.985, 129.545 115.744, 130.164 114.770 C 131.450 112.743, 131.145 111.441, 128.909 109.418 C 127.167 107.841, 124.957 107.480, 115.659 107.254 L 104.500 106.982 116.929 111.510 M 87.316 110.609 C 91.495 118.592, 99.985 123.341, 110.025 123.312 C 116.751 123.292, 126.725 119.982, 125.591 118.147 C 124.421 116.254, 99.416 108.719, 92.651 108.221 L 85.802 107.717 87.316 110.609 M 132.095 124.615 C 130.131 130.044, 124.438 135.805, 119.801 137.054 C 114.243 138.550, 107.879 137, 94.639 130.923 C 76.978 122.817, 71.762 122.209, 68.418 127.870 C 67.489 129.442, 65.440 131.490, 63.864 132.421 C 57.964 135.907, 60.847 137.773, 75.500 139.953 C 95.812 142.974, 102.243 145.040, 103.483 148.945 C 105.349 154.826, 96.533 161.274, 70.849 172.814 C 63.955 175.912, 59.516 179.409, 60.487 180.979 C 61.656 182.870, 69.623 183.111, 77.430 181.491 C 87.446 179.412, 96.211 175.155, 104.424 168.380 C 107.962 165.462, 111.983 162.791, 113.359 162.446 C 117.360 161.442, 126.192 164.584, 142.926 172.963 C 163.884 183.457, 168 184.504, 168 179.337 C 168 176.478, 163.324 164.047, 161.630 162.403 C 161.009 161.800, 157.800 160.737, 154.500 160.041 C 144.218 157.873, 133.130 154.016, 130.380 151.650 C 124.475 146.571, 130.451 142.413, 151.572 136.907 C 158.133 135.196, 163.618 133.688, 163.761 133.554 C 164.034 133.300, 134.783 121, 133.906 121 C 133.628 121, 132.814 122.627, 132.095 124.615" stroke="none" fill="black" fill-rule="evenodd"/>
</svg>