<svg xmlns="http://www.w3.org/2000/svg" width="200" height="200" viewBox="0 0 200 200" version="1.1">
	<path d="M 98 8.674 C 95.209 9.754, 92.107 13.237, 91.508 15.963 L 90.913 18.675 83.160 16.429 C 71.271 12.986, 66.162 12.414, 65.385 14.439 C 64.396 17.016, 67.825 19.881, 80.417 27 C 86.740 30.575, 92.121 34.004, 92.375 34.619 C 92.689 35.380, 89.425 35.954, 82.168 36.412 C 63.897 37.566, 51.856 40.292, 48.463 44.041 C 46.772 45.909, 46.772 46.090, 48.444 47.938 C 50.823 50.567, 58.134 52.002, 72.750 52.710 C 81.395 53.129, 85 52.978, 85 52.197 C 85 50.833, 81.268 50.236, 69 49.637 C 59.449 49.170, 50 47.383, 50 46.042 C 50 43.382, 68.005 39.806, 82.268 39.633 L 93.281 39.500 95.039 44.630 C 96.751 49.628, 96.748 49.747, 94.898 49.263 C 91.680 48.422, 92.725 51.458, 96.091 52.728 C 102.024 54.968, 98.230 57.046, 70.104 66.969 C 46.943 75.140, 40.189 78.106, 36.989 81.511 C 34.412 84.255, 34.815 86.177, 38.466 88.570 C 40.751 90.067, 42.046 90.128, 49.970 89.111 C 54.882 88.481, 68.485 85.557, 80.200 82.612 C 111.134 74.836, 107.357 74.774, 111.564 83.127 C 113.524 87.020, 114.837 90.496, 114.481 90.852 C 114.125 91.209, 91.933 91.500, 65.167 91.500 C 32.924 91.500, 15.902 91.855, 14.729 92.551 C 13.215 93.451, 14.735 94.834, 25.229 102.105 C 51.869 120.562, 65.362 126.894, 88.776 131.928 C 96.432 133.574, 99.051 133.743, 103.776 132.894 C 110.754 131.641, 116.792 129.894, 123.804 127.100 C 129.367 124.883, 131.065 125.133, 135.250 128.783 C 137.874 131.072, 137.458 131.687, 132.082 133.473 C 123.170 136.433, 110.972 137.085, 87.135 135.875 C 52.016 134.092, 42.690 135.159, 36.260 141.695 L 33.500 144.500 47 145.138 C 69.937 146.222, 85 149.481, 85 153.359 C 85 155.797, 76.741 162.299, 63.872 169.994 C 48.780 179.019, 44 183.152, 44 187.178 C 44 190.114, 44.014 190.121, 48.750 189.485 C 57.547 188.305, 70.419 184.776, 83.555 179.943 C 101.753 173.248, 111.422 171.396, 120.676 172.835 C 129.816 174.256, 138.943 177.913, 147.644 183.641 C 155.073 188.532, 156.416 188.525, 158.840 183.584 C 162.343 176.442, 155.007 168.948, 136.500 160.763 C 132.100 158.817, 125.688 155.988, 122.250 154.476 C 118.813 152.964, 116 151.287, 116 150.748 C 116 150.130, 123.537 149.912, 136.500 150.156 L 157 150.543 157 147.967 C 157 143.661, 151.660 136.626, 144.154 131.045 C 137.928 126.415, 134.912 122.755, 136.233 121.434 C 136.462 121.205, 143.094 117.432, 150.972 113.050 C 163.157 106.272, 179.761 99, 183.052 99 C 183.574 99, 184 98.376, 184 97.614 C 184 96.741, 182.363 95.982, 179.583 95.565 C 174.035 94.733, 168.433 90.721, 163.569 84.095 C 159.818 78.985, 159.805 78.931, 161.397 75.575 C 162.279 73.718, 163 71.314, 163 70.234 C 163 67.119, 159.350 63.299, 154.664 61.509 C 150.992 60.107, 149.934 59.014, 147.569 54.181 C 146.040 51.056, 143.461 46.527, 141.837 44.115 L 138.885 39.729 141.534 36.964 L 144.183 34.199 140.842 33.514 C 131.772 31.655, 130.034 30.733, 127.528 26.458 C 121.386 15.977, 104.857 6.022, 98 8.674 M 96.159 13.525 C 92.148 18.624, 92.751 19.118, 109.271 24.253 C 117.670 26.864, 124.885 29, 125.306 29 C 126.709 29, 124.243 25.542, 119.520 20.886 C 114.217 15.657, 107.628 12.028, 102.091 11.285 C 98.856 10.852, 98.011 11.171, 96.159 13.525 M 69 16.390 C 69 17.045, 77.247 22.329, 85.250 26.803 L 91 30.017 91 25.665 L 91 21.314 83.250 19.241 C 73.176 16.547, 69 15.712, 69 16.390 M 93.933 27.192 C 94.491 31.317, 94.594 31.412, 100.365 33.123 C 110.742 36.201, 113.075 36.298, 118.514 33.875 L 123.500 31.653 110 27.347 C 102.575 24.978, 95.795 23.031, 94.933 23.020 C 93.667 23.004, 93.475 23.807, 93.933 27.192 M 95.500 36 C 95.840 36.550, 97.554 36.968, 99.309 36.930 C 101.999 36.870, 102.186 36.724, 100.500 36 C 97.709 34.801, 94.759 34.801, 95.500 36 M 121.813 35.683 C 122.534 35.972, 123.397 35.936, 123.729 35.604 C 124.061 35.272, 123.471 35.036, 122.417 35.079 C 121.252 35.127, 121.015 35.364, 121.813 35.683 M 135.500 36 C 135.840 36.550, 136.568 37, 137.118 37 C 137.668 37, 137.840 36.550, 137.500 36 C 137.160 35.450, 136.432 35, 135.882 35 C 135.332 35, 135.160 35.450, 135.500 36 M 126 37.500 C 124.625 38.286, 121.475 38.959, 119 38.996 C 116.525 39.033, 113.696 39.673, 112.714 40.418 C 111.418 41.401, 109.909 41.536, 107.214 40.910 C 105.171 40.436, 101.989 40.037, 100.142 40.024 C 96.979 40.001, 96.822 40.161, 97.450 42.750 C 97.817 44.263, 98.991 47.330, 100.059 49.566 C 101.126 51.802, 102 54.155, 102 54.795 C 102 55.434, 103.688 59.743, 105.750 64.369 L 109.500 72.781 120 72.816 C 131.767 72.856, 138.952 74.432, 147.864 78.932 C 152.251 81.146, 154.001 81.599, 154.858 80.742 C 156.531 79.069, 156.363 78.366, 152.283 69.935 L 148.566 62.254 141.819 60.081 C 131.298 56.692, 128.858 52.118, 133.119 43.766 L 135.239 39.612 133.009 37.806 C 130.353 35.656, 129.306 35.610, 126 37.500 M 135.618 44.773 C 132.222 51.339, 134.196 55.051, 142.397 57.519 L 146.983 58.899 144.543 54.200 C 143.201 51.615, 141.007 47.733, 139.669 45.572 L 137.235 41.645 135.618 44.773 M 93.500 61.027 C 90.200 62.542, 80.075 66.353, 71 69.497 C 50.860 76.474, 38 82.288, 38 84.416 C 38 88.690, 49.514 87.399, 80.685 79.630 C 92.683 76.639, 103.487 74.036, 104.694 73.846 C 106.888 73.500, 106.888 73.500, 103.831 66.500 C 102.150 62.650, 100.488 59.224, 100.137 58.887 C 99.787 58.550, 96.800 59.513, 93.500 61.027 M 153.849 66.800 C 154.787 68.835, 156.176 71.616, 156.936 72.979 L 158.316 75.459 159.282 73.293 C 160.820 69.847, 159.405 66.564, 155.603 64.750 L 152.143 63.100 153.849 66.800 M 112.791 75.682 C 111.290 76.076, 111.518 77.013, 114.650 83.344 L 118.220 90.557 125.360 89.840 C 135.635 88.809, 147.257 88.877, 149 89.979 C 151.765 91.728, 148.065 93.715, 136.118 96.898 C 129.858 98.566, 124.523 100.143, 124.263 100.404 C 123.660 101.006, 133.238 119, 134.162 119 C 134.540 119, 139.721 116.226, 145.675 112.835 C 155.452 107.268, 169.410 100.358, 174.429 98.601 C 176.058 98.030, 175.713 97.607, 172.199 95.869 C 168.164 93.872, 164.794 90.643, 160.340 84.504 C 158.231 81.597, 158.132 81.570, 156.162 83.354 C 154.195 85.133, 153.956 85.088, 146.822 81.577 C 136.217 76.358, 120.543 73.643, 112.791 75.682 M 123.750 92.728 C 119.643 93.158, 119.543 93.277, 120.997 95.994 C 121.960 97.794, 122.307 97.774, 131.247 95.404 C 136.336 94.055, 140.950 92.773, 141.500 92.555 C 142.746 92.060, 128.837 92.196, 123.750 92.728 M 22.260 94.850 C 20.355 95.403, 22.073 96.865, 33.760 104.640 C 55.385 119.025, 67.795 124.509, 88.998 129.048 L 99.128 131.217 108.314 129.074 C 113.366 127.895, 119.300 126.124, 121.500 125.137 L 125.500 123.343 119.515 121.097 C 108.860 117.100, 102.704 115.809, 91.750 115.271 C 85.838 114.981, 81 114.368, 81 113.911 C 81 110.652, 89.203 106.884, 107.500 101.736 C 113.550 100.034, 118.649 98.536, 118.831 98.406 C 119.013 98.277, 118.660 97.233, 118.046 96.086 C 116.938 94.015, 116.589 94.001, 70.715 94.100 C 45.297 94.155, 23.492 94.492, 22.260 94.850 M 118.500 101.498 C 117.950 101.685, 112.427 103.247, 106.226 104.970 C 100.025 106.693, 93.050 108.948, 90.726 109.981 L 86.500 111.859 91 111.943 C 97.902 112.071, 112.613 115.408, 121.471 118.856 C 125.954 120.600, 129.821 121.579, 130.307 121.093 C 131.141 120.259, 121.250 100.916, 120.072 101.079 C 119.757 101.122, 119.050 101.311, 118.500 101.498 M 137.856 134.232 C 129.079 138.643, 121.748 139.237, 85.369 138.490 C 54.076 137.847, 50.751 137.939, 45.369 139.596 L 39.500 141.403 50 142.229 C 84.971 144.980, 93.948 150.012, 82.596 160.500 C 80.215 162.700, 72.336 168.097, 65.088 172.493 C 52.670 180.024, 45.956 185.289, 47.192 186.525 C 48.685 188.018, 65.276 183.486, 89.500 174.967 C 112.771 166.783, 129.289 168.528, 149.214 181.274 C 155.124 185.054, 157 184.828, 157 180.335 C 157 174.743, 147.340 168.263, 123.683 157.988 C 118.284 155.643, 113.189 153.047, 112.362 152.219 C 111.022 150.879, 111.034 150.538, 112.470 149.107 C 113.847 147.735, 117.002 147.507, 134.042 147.549 C 148.454 147.584, 154 147.278, 154 146.447 C 154 144.417, 149.621 138.806, 145.500 135.556 L 141.500 132.401 137.856 134.232" stroke="none" fill="black" fill-rule="evenodd"/>
</svg>