<svg xmlns="http://www.w3.org/2000/svg" width="200" height="200" viewBox="0 0 200 200" version="1.1">
	<path d="M 131 13.385 C 127.975 14.650, 123.121 16.897, 120.213 18.378 C 117.304 19.860, 114.466 20.788, 113.906 20.442 C 112.103 19.327, 108.154 20.941, 107.478 23.068 C 107.062 24.380, 104.218 26.334, 99.662 28.438 C 95.723 30.257, 89.575 33.118, 86 34.797 C 82.425 36.475, 77.319 38.396, 74.654 39.067 C 68.632 40.582, 55.488 39.734, 44.720 37.137 L 36.940 35.261 35.011 37.713 C 32.124 41.384, 31.736 43.588, 33.407 46.820 C 35.308 50.497, 41.255 53.340, 53.841 56.590 C 66.793 59.934, 72.175 61.969, 71.726 63.352 C 70.579 66.884, 55.475 71.983, 46.040 72.024 C 35.425 72.070, 29.173 74.681, 30.624 78.462 C 31.501 80.747, 42.961 85.994, 53.711 89.031 L 61.923 91.351 51.506 102.133 C 39.878 114.168, 35.024 121.549, 35.009 127.215 C 34.993 133.760, 40.190 134.744, 49.693 129.996 C 57.398 126.145, 71.589 114.189, 70.155 112.755 C 69.451 112.051, 67.191 113.451, 62.979 117.203 C 54.971 124.337, 47.112 129.041, 42.075 129.717 C 38.919 130.140, 37.899 129.900, 37.407 128.617 C 35.801 124.432, 47.314 108.790, 61.750 95.544 C 67.257 90.490, 68.080 89, 65.362 89 C 64.460 89, 59.038 87.646, 53.312 85.992 C 41.116 82.468, 32.270 78.330, 33.756 76.844 C 34.305 76.295, 40.389 75.259, 47.276 74.542 C 63.496 72.854, 75 68.011, 75 62.871 C 75 60.363, 71.066 58.551, 57.836 54.966 C 38.520 49.732, 33.156 46.313, 35.980 41.038 C 37.293 38.583, 37.867 38.561, 47.185 40.603 C 58.604 43.107, 72.073 42.948, 80.450 40.212 C 86.461 38.248, 88.083 38.084, 92.450 38.997 C 100.351 40.649, 100.515 40.870, 100.392 49.717 C 100.312 55.529, 99.587 59.400, 97.531 65 C 93.821 75.107, 86.649 88.899, 81.382 96.053 C 79.006 99.280, 77.498 102.190, 78.031 102.519 C 79.550 103.458, 80.501 102.482, 85.580 94.773 C 96.045 78.889, 104.703 56.166, 103.819 46.903 C 103.615 44.756, 103.589 43, 103.763 43 C 103.937 43, 105.807 43.881, 107.919 44.959 C 111.636 46.855, 111.781 47.126, 112.463 53.501 C 112.851 57.122, 112.849 68.503, 112.459 78.792 C 111.675 99.442, 112.441 105.934, 116.668 114.500 C 118.025 117.250, 120.792 121.244, 122.817 123.376 L 126.500 127.253 122 126.530 C 116.561 125.657, 91.624 124.530, 80.356 124.649 C 71.100 124.746, 65.436 126.855, 63.110 131.069 C 60.986 134.919, 62.381 138.562, 67.199 141.748 C 71.124 144.343, 72.005 144.500, 82.681 144.500 C 88.907 144.500, 94.001 144.534, 94.001 144.575 C 94 144.616, 92.840 147.991, 91.421 152.075 C 88.306 161.047, 87.101 174.416, 88.997 178.993 C 93.023 188.712, 104.480 188.222, 111.874 178.015 C 117.438 170.334, 118.212 159.927, 113.944 150.182 L 112.052 145.864 116.776 143.768 C 127.309 139.092, 135.251 140.867, 140.183 149 C 141.684 151.475, 144.794 159.800, 147.095 167.500 C 151.685 182.864, 154.720 190, 156.664 190 C 157.361 190, 159.538 188.588, 161.503 186.863 C 170.101 179.314, 174.501 165.248, 173.797 147.562 C 173.142 131.118, 168.882 123, 160.909 123 C 157.643 123, 157.063 122.621, 156.098 119.851 C 155.494 118.119, 155 116.551, 155 116.367 C 155 116.183, 156.605 116.798, 158.567 117.734 C 161.750 119.251, 162.424 119.276, 164.817 117.967 C 166.370 117.118, 168.736 114.027, 170.432 110.632 C 173.051 105.391, 173.389 103.630, 173.598 94.132 C 173.728 88.285, 174.578 75.850, 175.489 66.500 C 178.107 39.616, 175.983 26.646, 167.397 17.097 C 164.877 14.294, 162.495 12, 162.104 12 C 161.712 12, 161.583 22.462, 161.816 35.250 C 162.284 60.894, 160.994 81.216, 157.944 96.240 C 155.826 106.671, 154.201 111.242, 152.896 110.436 C 151.691 109.691, 144.328 86.447, 143.059 79.383 C 141.565 71.065, 142.810 68.049, 147.750 68.015 C 149.058 68.006, 150 67.383, 150 66.527 C 150 65.064, 142.775 60.544, 123.579 50 L 113.567 44.500 111.845 39 C 109.212 30.592, 109.434 26.579, 112.611 25.131 C 114.978 24.053, 115.658 24.293, 119.861 27.691 C 122.413 29.754, 128.325 35.088, 133 39.544 C 142.942 49.023, 146.377 51.453, 148.617 50.593 C 149.909 50.098, 150.118 49.138, 149.616 46 C 149.267 43.819, 148.287 36.064, 147.438 28.767 C 146.569 21.298, 145.252 14.517, 144.424 13.250 C 142.507 10.316, 138.235 10.359, 131 13.385 M 136 14.345 C 134.075 15.036, 129.228 17.113, 125.228 18.959 L 117.956 22.316 123.724 27.408 C 126.897 30.209, 133.252 36.018, 137.845 40.318 C 142.439 44.618, 146.386 47.947, 146.617 47.716 C 147.432 46.901, 143.015 15.723, 141.893 14.371 C 140.539 12.740, 140.470 12.739, 136 14.345 M 164.740 34.719 C 165.602 62.545, 162.725 93.768, 158.046 107.366 L 156.118 112.969 158.282 114.485 C 162.447 117.402, 164.908 116.089, 168.564 109 C 169.941 106.330, 170.539 101.942, 171.086 90.500 C 171.481 82.250, 172.389 68.858, 173.104 60.740 C 174.624 43.487, 173.606 33.103, 169.624 25.245 C 164.594 15.318, 164.165 16.148, 164.740 34.719 M 99.941 31.434 L 93.383 34.500 101.840 38.858 C 108.506 42.294, 110.141 42.823, 109.558 41.358 C 109.152 40.336, 108.297 36.995, 107.660 33.934 L 106.500 28.368 99.941 31.434 M 115.500 77.239 L 115.500 105.500 118.297 111.473 C 119.835 114.758, 121.808 118.235, 122.680 119.199 C 124.392 121.091, 126 120.741, 126 118.478 C 126 115.690, 130.211 105.902, 132.667 102.984 C 135.723 99.352, 140.439 98.984, 144.365 102.073 C 145.814 103.212, 147 103.928, 147 103.663 C 147 103.397, 145.624 98.977, 143.943 93.840 C 140.790 84.205, 139.270 74.044, 140.343 69.768 C 140.681 68.424, 141.939 66.887, 143.140 66.351 C 145.079 65.486, 143.826 64.526, 131.911 57.753 C 124.535 53.559, 117.825 49.870, 117 49.553 C 115.688 49.051, 115.500 52.530, 115.500 77.239 M 134.776 104.750 C 132.316 107.555, 130.277 112.144, 128.581 118.689 C 126.062 128.409, 126.040 128.365, 132.935 127.740 C 140.003 127.099, 145.950 124.027, 149.337 119.267 C 151.465 116.275, 151.627 115.467, 150.635 112.796 C 149.189 108.906, 142.055 103, 138.802 103 C 137.431 103, 135.619 103.787, 134.776 104.750 M 149.437 123.092 C 142.758 130.122, 136.083 131.642, 121.437 129.468 C 115.539 128.592, 107.515 127.950, 103.606 128.042 C 99.698 128.134, 92.381 127.873, 87.346 127.462 C 73.568 126.336, 65 129.067, 65 134.582 C 65 140.180, 76.515 143.986, 87.605 142.055 C 91.146 141.438, 95.159 140.510, 96.522 139.992 C 99.553 138.839, 99.552 138.749, 96.592 145.782 C 91.204 158.583, 89.231 172.327, 91.868 178.685 C 94.521 185.083, 102.512 184.724, 108.313 177.947 C 114.608 170.593, 115.526 160.743, 110.915 150.024 C 108.807 145.124, 108.792 144.872, 110.538 143.596 C 113.951 141.100, 122.494 138.594, 127.627 138.583 C 134.311 138.568, 139.577 141.963, 143.179 148.608 C 144.637 151.299, 147.705 159.780, 149.996 167.456 C 152.287 175.132, 154.833 182.710, 155.653 184.296 C 157.121 187.135, 157.178 187.151, 159.306 185.340 C 162.868 182.308, 164.005 180.739, 166.435 175.498 C 173.009 161.325, 172.678 134.678, 165.845 127.845 C 164.209 126.209, 162.937 125.879, 159.859 126.292 C 156.169 126.787, 155.870 126.625, 154.526 123.408 C 153.743 121.534, 152.938 120, 152.738 120 C 152.538 120, 151.052 121.391, 149.437 123.092" stroke="none" fill="black" fill-rule="evenodd"/>
</svg>