<svg xmlns="http://www.w3.org/2000/svg" width="200" height="200" viewBox="0 0 200 200" version="1.1">
	<path d="M 132.183 14.305 C 129.370 17.299, 126.376 29.158, 125.428 41.058 L 124.676 50.500 122.458 40 C 119.933 28.044, 115.983 13, 115.369 13 C 113.427 13, 106.368 19.223, 104.292 22.765 C 101.750 27.102, 101.711 27.453, 102.282 40.844 L 102.864 54.500 98.759 46.500 C 96.502 42.100, 94.103 36.935, 93.428 35.023 C 92.754 33.111, 91.181 30.868, 89.934 30.040 C 87.737 28.581, 87.687 28.618, 88.341 31.221 C 88.963 33.699, 88.724 33.966, 85.257 34.670 C 81.280 35.478, 46.997 35.769, 33.500 35.109 L 25.500 34.718 25.792 38.609 C 26.181 43.806, 28.620 47.007, 34.395 49.901 C 38.854 52.135, 40.352 52.308, 56.043 52.401 C 66.891 52.465, 73.294 52.894, 74.006 53.605 C 75.596 55.196, 74.393 58.815, 70.496 64.170 L 67.096 68.840 55.798 68.319 C 37.668 67.481, 20.907 72.151, 20.190 78.240 C 19.968 80.118, 20.556 81.318, 22.236 82.419 C 25.722 84.703, 39.270 86.303, 48.750 85.551 C 55.472 85.017, 57 85.155, 57 86.298 C 57 88.934, 50.637 96.502, 34.819 112.676 C 24.679 123.045, 19 129.597, 19 130.926 C 19 133.927, 20.705 133.471, 22.506 129.988 C 23.363 128.332, 31.137 119.759, 39.782 110.938 C 54.125 96.303, 60.007 89.186, 59.980 86.500 C 59.946 83.163, 58.209 82.754, 43.365 82.588 C 32.571 82.467, 27.678 82.018, 25.500 80.947 C 21.788 79.123, 21.940 77.985, 26.189 75.788 C 33.062 72.234, 41.784 70.773, 53.424 71.226 C 59.516 71.463, 65.123 71.847, 65.884 72.079 C 67.642 72.614, 75.722 62.458, 76.952 58.166 C 77.720 55.489, 77.506 54.537, 75.647 52.376 C 73.441 49.811, 73.312 49.791, 59.301 49.904 C 51.534 49.966, 42.843 49.516, 39.988 48.904 C 34.231 47.669, 29.405 43.932, 28.490 40 L 27.908 37.500 44.704 38.361 C 60.336 39.162, 84.960 38.161, 89.025 36.560 C 90.542 35.962, 93.461 40.960, 99.555 54.585 L 101.828 59.669 99.586 65.186 C 97.108 71.283, 85.437 87.044, 75.263 98.033 C 64.868 109.260, 48.653 121.065, 32.128 129.436 C 28.375 131.337, 27.073 132.473, 27.808 133.208 C 30.060 135.460, 55.502 119.834, 69.121 107.833 C 77.897 100.099, 96.232 77.749, 100.832 69.177 L 103.814 63.619 105.307 67.060 C 115.340 90.188, 119.117 99.999, 119.929 105.037 C 120.461 108.342, 121.820 112.342, 122.948 113.927 C 124.077 115.512, 125 118.153, 125 119.796 C 125 122.352, 124.387 123.051, 120.750 124.641 C 116.879 126.334, 113.996 126.473, 88.424 126.199 C 62.057 125.916, 60.010 126.024, 54.810 127.970 C 51.764 129.110, 48.532 130.859, 47.628 131.859 C 46.096 133.551, 46.120 133.799, 47.971 135.474 C 50.861 138.089, 53.517 146.036, 55.500 158 C 57.746 171.551, 60.224 178.112, 64.522 181.885 C 70.767 187.368, 78.692 188.276, 91.570 184.982 C 97.955 183.349, 100.035 183.180, 102.480 184.094 C 107.067 185.811, 130.612 186.447, 138.527 185.069 C 146.527 183.676, 150.380 181.876, 152.593 178.498 C 154.092 176.211, 154.073 175.806, 152.323 172.769 C 151.288 170.971, 147.580 167.574, 144.083 165.219 C 138.104 161.193, 137.600 161.031, 135.613 162.502 C 128.312 167.906, 117.573 170.448, 105 169.749 C 95.640 169.228, 86.973 166.227, 84.458 162.636 C 81.585 158.535, 83.195 151.884, 88.155 147.362 C 90.349 145.361, 91.848 145.189, 111.500 144.685 C 139.888 143.958, 149.928 141.353, 149.985 134.702 C 150.017 130.868, 137.876 123.032, 131.867 123.010 C 130.159 123.003, 129.065 122.355, 128.754 121.167 C 128.344 119.599, 128.897 119.333, 132.574 119.333 C 141.729 119.333, 148.368 110.147, 148.288 97.590 C 148.264 93.690, 147.726 89.200, 147.094 87.611 C 146.461 86.023, 146.086 84.581, 146.259 84.408 C 146.432 84.234, 150.157 84.731, 154.537 85.511 C 169.291 88.140, 177.746 86.847, 180.138 81.597 C 183.306 74.644, 170.972 63.580, 158.622 62.297 L 153.500 61.764 153.312 54.985 C 152.919 40.818, 145.510 18.906, 139.520 14.194 C 136 11.425, 134.873 11.442, 132.183 14.305 M 133.689 16.791 C 129.054 21.913, 126.585 48.714, 127.193 87.327 C 127.660 116.963, 127.657 116.949, 132.602 116.985 C 135.955 117.009, 141.329 112.816, 143.494 108.487 C 146.039 103.396, 146.094 92.525, 143.609 85.655 C 142.645 82.991, 142.001 80.668, 142.178 80.493 C 142.355 80.318, 146.550 81.028, 151.500 82.071 C 172.848 86.566, 183.029 82.797, 174.814 73.441 C 168.685 66.460, 156.341 62.851, 150.715 66.395 C 149.348 67.256, 147.734 67.494, 146.500 67.017 C 144.634 66.295, 144.686 66.157, 147.274 64.950 C 150.709 63.349, 151.442 60.615, 150.610 52.501 C 149.258 39.301, 143.567 22.361, 138.768 17.253 C 136.213 14.534, 135.768 14.493, 133.689 16.791 M 110.163 19.751 C 105.057 24.059, 104.152 28.228, 104.697 44.946 L 105.170 59.500 112.313 76.189 C 116.241 85.368, 119.565 92.768, 119.700 92.633 C 119.836 92.498, 120.633 89.121, 121.473 85.128 C 124.391 71.257, 122.749 50.516, 116.927 27.716 C 114.064 16.502, 114.043 16.478, 110.163 19.751 M 122.702 94.239 C 122.187 98.360, 122.387 100.897, 123.411 103.239 L 124.837 106.500 124.844 102 C 124.848 99.525, 124.529 95.475, 124.136 93 L 123.419 88.500 122.702 94.239 M 121.268 127.164 C 115.266 129.853, 104.053 130.441, 84.777 129.079 C 67.331 127.846, 58.772 128.515, 52.860 131.572 L 50.135 132.981 53.053 138.741 C 54.958 142.500, 56.665 148.434, 57.968 155.829 C 59.067 162.060, 60.435 168.902, 61.009 171.034 C 62.326 175.924, 66.445 180.870, 70.671 182.636 C 75.129 184.498, 84.090 184.255, 92.500 182.044 C 98.942 180.350, 99.972 180.323, 105.426 181.705 C 109.826 182.819, 115.232 183.105, 126.426 182.814 C 139.182 182.482, 142.231 182.090, 146.250 180.267 C 148.863 179.082, 151 177.473, 151 176.691 C 151 174.384, 147.049 170.034, 142.229 167.034 L 137.737 164.238 134.222 166.624 C 123.281 174.049, 99.854 174.855, 87.674 168.226 C 78.153 163.044, 77.479 153.664, 86.037 145.464 L 88.982 142.643 105.741 142.424 C 123.995 142.185, 137.104 140.743, 143.203 138.302 C 148.696 136.104, 148.055 133.451, 141 129.186 C 136.491 126.460, 134.747 125.940, 131.319 126.300 C 129.020 126.541, 126.770 126.408, 126.319 126.004 C 125.869 125.599, 123.596 126.122, 121.268 127.164" stroke="none" fill="black" fill-rule="evenodd"/>
</svg>