<svg xmlns="http://www.w3.org/2000/svg" width="200" height="200" viewBox="0 0 200 200" version="1.1">
	<path d="M 122.193 18 C 116.700 20.750, 111.393 23, 110.400 23 C 109.408 23, 107.195 24.357, 105.484 26.015 C 103.773 27.674, 98.127 31.611, 92.937 34.765 C 83.953 40.224, 83.260 40.472, 78.500 39.911 C 71.996 39.145, 64.511 40.869, 54.033 45.546 C 46.595 48.866, 44.379 49.382, 35.783 49.796 C 25.700 50.282, 23.173 51.432, 29.750 52.543 C 44.965 55.113, 58.916 60.735, 63.451 66.125 C 66.862 70.178, 66.426 72.044, 61.500 74.471 C 58.336 76.029, 55.097 76.488, 46 76.667 C 39.675 76.792, 34.243 76.918, 33.930 76.947 C 33.616 76.976, 31.479 78.610, 29.180 80.578 C 24.300 84.755, 23.688 88.081, 27.480 89.809 C 28.844 90.430, 33.906 91.422, 38.730 92.014 C 50.516 93.458, 54.764 94.690, 56.013 97.025 C 57.560 99.915, 54.856 104.405, 47.620 110.964 C 31.516 125.561, 26.785 132.037, 28.874 136.622 C 29.751 138.547, 30.717 139, 33.941 139 C 46.406 139, 67.500 124.409, 75.757 110.074 C 77.206 107.558, 80.034 103.603, 82.041 101.284 C 89.498 92.673, 96.103 75.570, 98.177 59.500 C 98.816 54.550, 99.446 50.354, 99.577 50.176 C 99.707 49.998, 101.225 50.582, 102.950 51.474 C 106.541 53.331, 107.545 55.441, 108.466 63.065 L 109.123 68.500 94.950 87.500 C 87.155 97.950, 76.748 112.216, 71.824 119.203 C 66.900 126.190, 62 132.183, 60.936 132.520 C 58.237 133.377, 58.514 135, 61.358 135 C 63.573 135, 63.792 135.557, 64.969 144.172 C 68.111 167.164, 74.562 180.247, 85.292 185.391 C 92.583 188.886, 98.117 189.436, 107 187.547 C 112.859 186.302, 117.564 186.092, 128.500 186.591 C 143.572 187.278, 162.097 185.915, 170.574 183.495 C 180.344 180.706, 181.468 175.482, 173.480 169.987 C 164.541 163.836, 163.452 163.676, 151.300 166.721 C 142.009 169.048, 138.400 169.431, 125.475 169.463 C 111.281 169.498, 110.176 169.358, 105.475 166.941 C 98.726 163.469, 96 159.233, 96 152.218 C 96 149.201, 96.517 145.007, 97.149 142.898 C 98.036 139.935, 98.018 138.727, 97.068 137.582 C 94.866 134.929, 87.293 131.913, 80.826 131.114 C 76.123 130.532, 75.013 130.124, 76.500 129.522 C 77.600 129.076, 85.278 125.708, 93.562 122.037 L 108.625 115.361 109.623 123.956 C 110.649 132.791, 113.208 139.578, 116.197 141.393 C 120.761 144.164, 124.654 139.778, 136.932 118.033 C 138.820 114.690, 140.820 112.107, 141.378 112.293 C 143.114 112.871, 143.977 118.018, 144.661 131.868 L 145.321 145.236 148.863 146.716 C 156.847 150.052, 164.454 145.125, 167.500 134.647 C 170.361 124.808, 170.996 118.832, 171.656 95.584 C 172.253 74.525, 172.172 72.720, 170.653 73.303 C 168.385 74.173, 168.460 69.248, 170.984 51.471 C 173.199 35.876, 173.500 26.339, 171.951 20.762 C 169.362 11.439, 159.333 13.610, 146.168 26.343 L 140.835 31.500 141.534 24.752 C 142.095 19.333, 141.910 17.511, 140.593 15.502 C 138.058 11.633, 133.742 12.219, 122.193 18 M 125.005 19.548 C 120.883 21.533, 117.310 23.357, 117.065 23.601 C 116.821 23.846, 118.664 26.173, 121.161 28.773 C 123.659 31.373, 126.970 35.217, 128.519 37.315 L 131.337 41.130 134.701 37.765 C 137.974 34.493, 138.072 34.156, 138.283 25.450 L 138.500 16.500 135.500 16.219 C 133.638 16.045, 129.657 17.308, 125.005 19.548 M 160.353 18.927 C 158.072 19.963, 152.748 24.095, 148.520 28.111 L 140.835 35.411 141.500 39.956 C 142.148 44.380, 144.707 50.798, 147.167 54.166 C 148.624 56.161, 146.811 59, 144.081 59 C 142.432 59, 137.313 54.145, 133.269 48.746 L 131.205 45.991 125.957 52.050 C 123.039 55.418, 121.106 58.462, 121.604 58.906 C 125.854 62.689, 145.398 74.785, 146.548 74.343 C 148.091 73.751, 148.387 74.828, 147.393 77.418 C 147.059 78.288, 146.149 79, 145.371 79 C 143.458 79, 137.857 88, 138.214 90.500 C 138.421 91.944, 139.472 92.639, 142 93 C 144.565 93.366, 145.579 94.049, 145.794 95.557 C 146.046 97.314, 143.580 98.811, 128.896 105.818 L 111.704 114.021 112.296 122.409 C 112.906 131.052, 114.561 136.564, 117.204 138.755 C 119.711 140.834, 123.080 137.184, 129.533 125.397 C 135.903 113.762, 139.398 109, 141.566 109 C 144.810 109, 146.155 113.720, 147.180 128.702 C 147.799 137.735, 148.643 143.786, 149.347 144.235 C 149.981 144.639, 152.141 144.976, 154.146 144.985 C 164.145 145.027, 168.973 128.078, 168.992 92.872 C 168.998 80.194, 168.717 77.010, 167.500 76 C 165.502 74.342, 165.601 70.256, 168.085 51.905 C 170.645 32.991, 170.449 20.533, 167.559 18.419 C 165.157 16.663, 165.371 16.648, 160.353 18.927 M 109.031 28.338 C 107.101 29.661, 105.120 32.158, 104.470 34.088 C 103.451 37.114, 103.643 38.179, 106.160 43.500 C 107.721 46.800, 108.999 50.020, 108.999 50.655 C 109 52.233, 118.020 57.412, 118.920 56.350 C 125.420 48.687, 129 44.148, 129 43.572 C 129 40.911, 115.936 26, 113.604 26 C 112.966 26, 110.908 27.052, 109.031 28.338 M 96.300 35.795 C 92.328 38.431, 92.208 38.649, 94.086 39.821 C 95.177 40.503, 96.593 42.208, 97.232 43.611 C 97.871 45.013, 100.096 47.029, 102.176 48.090 L 105.958 50.019 105.001 47.503 C 104.475 46.119, 103.317 43.580, 102.428 41.861 C 101.539 40.142, 101.001 37.445, 101.233 35.868 C 101.464 34.290, 101.394 33.002, 101.077 33.004 C 100.760 33.007, 98.610 34.263, 96.300 35.795 M 135.138 41.353 L 132.928 43.706 137.549 49.853 C 143.205 57.377, 146.143 58.255, 142.455 51.319 C 141.086 48.744, 139.691 44.919, 139.355 42.819 C 138.642 38.361, 138.119 38.180, 135.138 41.353 M 88.550 41.888 C 90.063 43.301, 94 44.231, 94 43.174 C 94 42.082, 91.620 41, 89.218 41 C 88.229 41, 87.969 41.345, 88.550 41.888 M 65.500 43.934 C 62.750 44.961, 56.574 47.343, 51.775 49.226 L 43.051 52.651 48.377 54.330 C 51.307 55.253, 56.445 57.781, 59.796 59.947 C 69.731 66.368, 71.335 72.707, 63.987 76.507 C 60.187 78.472, 48.166 79.915, 41.185 79.244 C 36.654 78.808, 35.559 79.094, 32.260 81.571 C 25.082 86.961, 25.486 87.365, 40.135 89.438 C 56.545 91.760, 59 93.146, 59 100.092 C 59 102.907, 57.299 104.988, 45.548 116.543 C 32.278 129.592, 29.091 134.202, 32.068 136.042 C 34.253 137.392, 38.994 136.109, 47.782 131.788 C 57.759 126.882, 68.004 117.758, 72.963 109.363 C 74.868 106.138, 78.073 101.590, 80.084 99.256 C 87.549 90.594, 94.626 71.174, 95.689 56.432 L 96.271 48.363 91.386 46.291 C 85.979 43.999, 77.368 41.982, 73.201 42.033 C 71.715 42.051, 68.250 42.906, 65.500 43.934 M 110.393 57.582 C 110.727 58.452, 111 60.579, 111 62.309 L 111 65.455 113.750 62.685 L 116.500 59.916 114 57.980 C 110.951 55.620, 109.582 55.468, 110.393 57.582 M 115.500 64.750 L 112.500 68.500 112 88.500 C 111.725 99.500, 111.641 109.012, 111.814 109.638 C 112.002 110.318, 118.127 107.923, 127.038 103.687 C 141.781 96.678, 141.916 96.584, 139.009 95.362 C 133.734 93.144, 134.416 87.207, 140.888 79.028 L 142.844 76.555 131.172 68.779 C 124.752 64.502, 119.275 61.002, 119 61.002 C 118.725 61.001, 117.150 62.688, 115.500 64.750 M 95.955 90.522 C 82.644 108.537, 72.462 122.693, 69.509 127.291 L 67.716 130.083 72.665 128.132 C 85.343 123.135, 108.217 112.599, 108.609 111.576 C 108.850 110.949, 108.924 102.135, 108.773 91.990 L 108.500 73.544 95.955 90.522 M 68.788 133.653 C 66.475 134.056, 66.143 134.521, 66.536 136.813 C 66.789 138.291, 67.666 143.527, 68.483 148.448 C 73.437 178.281, 86.212 190.147, 107.516 184.708 C 112.208 183.509, 117.061 183.298, 130 183.727 C 153.805 184.517, 172.692 182.021, 175.400 177.728 C 176.792 175.520, 174.386 173.028, 167.497 169.543 L 162.019 166.771 153.260 168.879 C 141.013 171.825, 132.722 172.986, 124 172.977 C 102.685 172.954, 91.907 164.733, 93.321 149.578 C 93.633 146.235, 94.191 142.487, 94.561 141.248 C 95.153 139.269, 94.567 138.691, 89.715 136.470 C 84.227 133.958, 74.528 132.652, 68.788 133.653" stroke="none" fill="black" fill-rule="evenodd"/>
</svg>