<svg xmlns="http://www.w3.org/2000/svg" width="200" height="200" viewBox="0 0 200 200" version="1.1">
	<path d="M 140.443 12.092 C 140.072 12.693, 140.787 19.168, 142.033 26.481 C 144.210 39.254, 144.217 43, 142.066 43 C 140.219 43, 133.934 36.751, 126.824 27.848 C 119.333 18.467, 117.548 17.527, 113.117 20.631 C 109.947 22.851, 108 27.927, 108 33.968 C 108 36.736, 107.715 39, 107.366 39 C 104.228 39, 98.671 36.265, 97.949 34.365 C 97.476 33.122, 95.978 31.377, 94.621 30.487 C 92.422 29.046, 91.842 29.030, 89.310 30.340 C 87.747 31.148, 81.525 32.309, 75.484 32.919 C 54.960 34.993, 38.146 39.572, 36.639 43.497 C 35.004 47.758, 43.053 50.971, 61.871 53.570 C 68.267 54.453, 73.634 55.308, 73.798 55.469 C 73.962 55.630, 70.587 57.010, 66.298 58.536 C 34.018 70.016, 30 71.772, 30 74.401 C 30 77.787, 33.116 78.494, 50.267 79 L 67.230 79.500 60.365 84.188 C 48.286 92.438, 37 105.399, 37 111.022 C 37 111.962, 37.933 113.916, 39.073 115.365 C 44.674 122.486, 60.653 115.323, 72.232 100.500 C 74.380 97.750, 78.973 92.538, 82.437 88.918 C 93.105 77.772, 100 60.453, 100 44.805 C 100 40.624, 100.266 39.888, 101.593 40.397 C 102.469 40.733, 104.269 41.280, 105.593 41.613 C 106.917 41.945, 108.003 42.506, 108.007 42.858 C 108.010 43.211, 109.585 52.890, 111.507 64.367 C 114.071 79.685, 115 88.260, 115 96.617 C 115 109.614, 115.961 110.895, 120 103.282 C 122.282 98.979, 128.309 93.976, 129.624 95.291 C 129.915 95.582, 129.390 98.544, 128.456 101.872 C 126.794 107.797, 126.802 108, 128.879 111.519 C 130.045 113.497, 131 115.201, 131.001 115.307 C 131.001 115.413, 115.597 115.365, 96.770 115.200 C 77.942 115.034, 61.517 115.155, 60.269 115.469 C 58.381 115.942, 58 116.713, 58 120.056 C 58 123.485, 58.638 124.693, 62.346 128.287 C 64.736 130.604, 70.131 134.300, 74.335 136.500 C 78.539 138.700, 81.983 140.780, 81.989 141.122 C 82.003 141.937, 52.393 143.361, 51.168 142.604 C 48.044 140.673, 49.744 156.469, 53.520 164.450 C 57.102 172.022, 62.893 178.130, 70.179 182.022 C 75.614 184.924, 77.691 185.453, 85 185.795 C 97.384 186.373, 103.264 183.970, 112.623 174.503 L 119.746 167.298 121.503 171.278 C 124.105 177.177, 129.936 182.486, 136.037 184.512 C 142.957 186.811, 153.189 186.073, 164.549 182.456 L 173 179.765 173 160.455 C 173 137.485, 171.954 128.782, 167.628 115.737 L 164.389 105.975 166.682 104.473 C 169.811 102.422, 172.865 96.107, 174.578 88.144 C 176.399 79.676, 175.979 28.799, 174.035 22.500 C 171.577 14.533, 167.713 12.955, 163.005 17.994 C 159.682 21.552, 152.428 35.331, 147.999 46.500 C 146.254 50.900, 144.659 54.669, 144.455 54.875 C 144.250 55.082, 140.352 53.449, 135.791 51.247 C 131.231 49.045, 123.830 45.798, 119.345 44.033 C 111.884 41.096, 111.142 40.553, 110.640 37.661 C 109.398 30.518, 113.164 21.534, 117.119 22.206 C 118.070 22.368, 122.595 26.954, 127.174 32.398 C 131.753 37.842, 137.169 43.242, 139.210 44.398 C 142.746 46.401, 143.002 46.418, 144.677 44.747 C 146.811 42.619, 146.739 36.462, 144.436 24.076 C 143.575 19.443, 143.133 14.606, 143.454 13.326 C 143.866 11.687, 143.607 11, 142.578 11 C 141.775 11, 140.814 11.492, 140.443 12.092 M 163.750 21.261 C 160.625 25.359, 154.328 37.991, 150.074 48.700 C 147.019 56.389, 146.915 57.040, 148.408 59.172 C 150.795 62.580, 150.342 65.535, 147 68.347 C 143.251 71.501, 143.245 72.698, 146.961 75.927 C 148.589 77.342, 152.623 83.450, 155.925 89.500 C 164.338 104.914, 163.474 103.993, 166.443 100.715 C 171.768 94.834, 172.501 89.419, 172.493 56 C 172.487 29.503, 172.264 25.008, 170.794 21.750 C 168.716 17.144, 166.982 17.024, 163.750 21.261 M 91 32.893 C 91 33.384, 91.712 34.059, 92.582 34.393 C 95.028 35.332, 95.351 35.128, 94 33.500 C 92.620 31.838, 91 31.510, 91 32.893 M 74.500 35.618 C 56.594 38.117, 40.802 41.893, 39.510 43.985 C 38.706 45.285, 43.494 47.544, 49.953 48.911 C 54.844 49.947, 78.211 52.952, 81.994 53.032 C 83.135 53.056, 83.016 53.443, 81.500 54.631 C 78.631 56.880, 73.477 59.011, 56.500 64.968 C 48.250 67.863, 39.544 71.149, 37.153 72.271 C 33.302 74.078, 33.017 74.431, 34.653 75.359 C 35.747 75.979, 44.043 76.425, 55 76.453 C 68.598 76.488, 73.500 76.815, 73.500 77.689 C 73.500 78.342, 70.575 80.762, 67 83.066 C 56.790 89.645, 48.412 96.671, 44.626 101.828 C 38.225 110.548, 38.817 115.008, 46.372 114.991 C 52.232 114.977, 59.577 110.431, 66.626 102.455 C 69.857 98.800, 75.650 92.351, 79.500 88.124 C 83.350 83.897, 87.974 77.669, 89.775 74.283 C 93.998 66.344, 97 54.506, 97 45.789 L 97 38.898 93.250 37.277 C 89.500 35.656, 80.154 34.829, 74.500 35.618 M 111.467 47.250 C 111.774 49.038, 113.162 57.025, 114.550 65 C 115.939 72.975, 117.352 84.116, 117.689 89.757 C 118.237 98.927, 118.450 99.802, 119.702 98.015 C 121.373 95.630, 124.451 93.869, 128.353 93.065 C 131.032 92.514, 131.564 91.471, 137.071 75.989 C 140.296 66.920, 142.950 59.201, 142.967 58.835 C 143.021 57.748, 135.067 53.638, 123.288 48.666 C 117.208 46.100, 111.936 44, 111.572 44 C 111.207 44, 111.160 45.462, 111.467 47.250 M 144.098 64.149 C 142.614 68.404, 142.687 68.593, 145 66.500 C 147.024 64.668, 147.756 61, 146.098 61 C 145.602 61, 144.702 62.417, 144.098 64.149 M 137.401 83.233 L 134.382 92.466 145.109 97.640 C 157.092 103.419, 160 104.523, 160 103.294 C 160 101.048, 147.432 80.098, 144.376 77.250 C 142.458 75.463, 140.784 74, 140.655 74 C 140.526 74, 139.062 78.155, 137.401 83.233 M 131.351 101.554 C 129.602 107.105, 129.602 107.111, 132.044 111.580 L 134.487 116.052 145.993 115.369 C 152.322 114.993, 158.127 114.644, 158.892 114.593 C 161.760 114.402, 160.935 116.778, 157.282 119.234 C 152.550 122.414, 147.219 127.641, 144.980 131.294 C 143.326 133.994, 143.367 134.372, 146.188 142.559 C 148.204 148.406, 149.014 152.497, 148.804 155.765 C 148.516 160.254, 148.349 160.500, 145.598 160.500 C 143.242 160.500, 142.319 159.773, 140.690 156.635 C 138.155 151.749, 137.420 144.360, 138.889 138.525 C 139.970 134.232, 139.837 133.608, 136.264 126.251 L 132.500 118.500 96.500 118.500 L 60.500 118.500 60.778 120.974 C 61.199 124.718, 65.192 128.238, 75.493 133.944 C 80.629 136.790, 85.067 139.733, 85.356 140.486 C 86.563 143.631, 82.957 144.495, 67.244 144.822 L 51.788 145.144 52.495 150.804 C 55.441 174.389, 76.695 188.865, 97.762 181.637 C 103.149 179.788, 111.979 172.647, 116.192 166.730 L 118.365 163.679 114.432 164.339 C 102.191 166.391, 92.348 167.094, 89.750 166.101 C 84.258 164.001, 86.499 160.755, 102.083 148.236 C 110.979 141.090, 115.727 135.934, 116.594 132.482 C 116.937 131.117, 117.731 130, 118.358 130.001 C 119.157 130.001, 119.520 134.250, 119.567 144.131 C 119.620 155.147, 119.950 158.506, 121.067 159.380 C 121.872 160.009, 122.390 161.815, 122.248 163.500 C 121.883 167.851, 126.693 175.860, 131.835 179.463 C 135.937 182.337, 136.687 182.500, 145.835 182.500 C 153.140 182.500, 157.293 181.937, 162.841 180.193 L 170.183 177.887 169.752 154.193 C 169.380 133.728, 169.023 129.439, 167.136 122.709 C 163.573 110.006, 162.120 107.052, 159.138 106.446 C 157.687 106.152, 151.882 103.681, 146.238 100.955 C 140.594 98.230, 135.329 96, 134.539 96 C 133.673 96, 132.407 98.204, 131.351 101.554 M 136 118.410 C 136 118.636, 137.261 121.488, 138.803 124.747 L 141.606 130.674 147.381 124.337 L 153.155 118 144.578 118 C 139.860 118, 136 118.185, 136 118.410 M 114 141.499 C 112.625 142.971, 106.662 148.070, 100.750 152.831 C 94.838 157.593, 90 162.054, 90 162.744 C 90 163.530, 91.404 163.998, 93.750 163.994 C 97.325 163.988, 117.187 161.272, 117.470 160.749 C 117.544 160.612, 117.356 155.623, 117.053 149.662 L 116.500 138.824 114 141.499 M 141 144.840 C 141 149.216, 141.631 152.316, 143.111 155.217 C 146.424 161.712, 147.434 158.015, 144.974 148.397 C 142.327 138.049, 141 136.861, 141 144.840" stroke="none" fill="black" fill-rule="evenodd"/>
</svg>