<svg xmlns="http://www.w3.org/2000/svg" width="200" height="200" viewBox="0 0 200 200" version="1.1">
	<path d="M 128.898 17.449 C 121.529 20.996, 113.706 24.186, 111.514 24.539 C 108.688 24.993, 106.504 26.271, 104.014 28.928 C 99.831 33.392, 85.935 42.889, 81 44.658 C 79.075 45.348, 75.164 45.932, 72.309 45.956 C 69.454 45.980, 66.838 46.453, 66.496 47.007 C 65.334 48.886, 69.273 49.332, 76.399 48.128 C 87.828 46.197, 93.710 46.881, 98.849 50.739 C 102.140 53.209, 102.187 53.352, 101.522 58.877 C 98.433 84.533, 73.213 124.262, 50.054 139.955 C 40.066 146.723, 33 149.629, 33 146.968 C 33 144.167, 36.367 138.635, 42.158 131.924 C 55.357 116.627, 61 107.485, 61 101.398 C 61 93.962, 54.819 91.896, 40.361 94.499 C 29.643 96.429, 29.044 96.206, 29.015 90.285 C 28.992 85.406, 31.341 84.687, 49.575 83.991 C 62.921 83.482, 66.307 83.037, 69.518 81.370 C 75.431 78.302, 77.469 74.918, 77.453 68.199 C 77.430 59.146, 77.013 58.664, 71.370 61.160 C 67.611 62.823, 65.479 63.126, 60.896 62.647 C 50.421 61.552, 38 55.264, 38 51.056 C 38 48.421, 39.872 48, 51.582 48 C 57.312 48, 62 47.602, 62 47.117 C 62 45.702, 58.066 45.028, 49.718 45.014 C 36.394 44.990, 31.830 48.700, 37.038 55.321 C 39.799 58.831, 50.143 63.680, 57.654 64.984 C 63.268 65.959, 65.196 65.820, 73 63.874 C 74.983 63.379, 75.522 70.530, 73.758 73.945 C 71.067 79.156, 66.987 80.354, 49.545 81.056 C 29.490 81.863, 26 83.256, 26 90.460 C 26 91.723, 26.692 94.411, 27.537 96.434 C 28.663 99.130, 29.531 99.971, 30.787 99.585 C 41.482 96.302, 51.009 95.293, 55.435 96.975 C 61.182 99.160, 57.628 108.649, 45.500 123.500 C 41.650 128.214, 37.056 133.866, 35.290 136.061 C 31.943 140.220, 29.738 146.153, 30.652 148.537 C 31.781 151.479, 35.164 151.223, 42.354 147.653 C 50.878 143.420, 64.184 132.975, 70.288 125.723 C 85.465 107.695, 98.208 84.787, 102.124 68.495 C 105.419 54.782, 104.876 55.533, 109.250 58.648 L 113 61.319 113.006 105.910 C 113.012 156.711, 113.779 164.913, 119.282 173.099 C 123.872 179.926, 129.834 176.880, 134.449 165.351 C 136.543 160.122, 137 157.315, 137 149.700 C 137 136.299, 140.669 124, 144.666 124 C 145.456 124, 146.811 125.688, 147.677 127.750 C 149.011 130.927, 149.149 134.403, 148.580 150.500 C 148.019 166.374, 148.170 170.366, 149.497 174.764 C 152.833 185.817, 160.933 190.412, 166.498 184.408 C 173.127 177.254, 175.138 159.458, 175.582 104 C 175.769 80.625, 176.234 54.210, 176.616 45.299 C 177.217 31.251, 177.080 28.498, 175.583 24.578 C 172.680 16.977, 165.576 12.448, 154.788 11.320 L 149 10.715 148.993 19.108 L 148.987 27.500 147.023 24.500 C 145.944 22.850, 143.858 20.532, 142.388 19.349 L 139.716 17.198 142.858 15.573 C 146.299 13.794, 147.088 11, 144.148 11 C 143.129 11, 136.267 13.902, 128.898 17.449 M 151.679 23.479 C 151.328 28.818, 151.310 36.407, 151.638 40.343 C 152.020 44.929, 151.654 51.135, 150.617 57.619 C 148.187 72.826, 148.314 73.925, 153.047 78.546 C 155.273 80.720, 159.376 85.799, 162.165 89.832 C 169.221 100.040, 167.635 100.971, 156.577 93.112 C 151.847 89.750, 147.795 87, 147.572 87 C 147.348 87, 146.678 89.272, 146.083 92.050 C 144.466 99.587, 142.329 103.187, 139.692 102.812 C 136.463 102.352, 134.322 92.795, 135.651 84.764 L 136.620 78.905 126.560 71.551 C 121.027 67.507, 116.412 64.278, 116.305 64.377 C 116.198 64.475, 116.032 84.118, 115.935 108.028 C 115.752 153.548, 116.192 159.890, 120.177 169.178 C 122.653 174.948, 124.410 175.739, 127.454 172.455 C 131.550 168.035, 134.758 157.457, 134.264 150 C 133.428 137.387, 138.219 122.736, 143.623 121.380 C 149.824 119.823, 152.709 129.054, 151.474 146.500 C 150.326 162.708, 150.533 169.079, 152.390 174.668 C 154.410 180.751, 158.916 185.479, 161.817 184.558 C 170.003 181.960, 172.980 158.148, 173.022 94.925 C 173.036 74.891, 173.527 53.254, 174.113 46.842 C 175.315 33.716, 174.311 25.936, 170.847 21.533 C 168.212 18.182, 162.147 15.119, 156.662 14.367 L 152.317 13.772 151.679 23.479 M 127.250 21.211 C 124.912 22.412, 123 23.720, 123 24.118 C 123 24.516, 124.388 25.146, 126.085 25.519 C 127.781 25.891, 131.112 28.065, 133.487 30.348 C 138.821 35.478, 140.514 40.744, 139 47.499 C 137.326 54.971, 141.099 64.685, 144.777 62.372 C 146.941 61.011, 147.831 55.371, 147.926 42.407 C 147.990 33.729, 147.679 31.708, 145.711 27.986 C 141.367 19.771, 134.767 17.349, 127.250 21.211 M 110.250 30.153 C 106.724 32.195, 105 33.840, 105 35.162 C 105 36.245, 107.475 39.605, 110.500 42.630 C 115.979 48.110, 116 48.154, 116.004 54.315 L 116.007 60.500 125.754 67.580 C 138.323 76.712, 137.540 76.347, 140.464 74.432 C 141.850 73.523, 143.663 73.040, 144.492 73.359 C 145.555 73.766, 146.004 73.282, 146.014 71.719 C 146.021 70.498, 146.284 68.543, 146.598 67.373 C 147.088 65.549, 146.818 65.312, 144.710 65.715 C 139.656 66.681, 134.027 55.879, 136 48.999 C 137.470 43.874, 137.239 41.126, 134.939 36.375 C 133.353 33.097, 131.699 31.530, 127.743 29.559 C 121.067 26.233, 116.768 26.378, 110.250 30.153 M 98 37.665 C 96.075 39.012, 93.825 40.530, 93 41.038 C 90.373 42.658, 93.950 44.154, 99.145 43.607 L 103.791 43.119 104.451 47.519 C 104.982 51.060, 105.881 52.530, 109.055 55.044 L 113 58.168 113 53.632 C 113 49.521, 112.530 48.626, 108 44.095 C 105.250 41.345, 103 38.425, 103 37.607 C 103 35.094, 101.651 35.110, 98 37.665 M 99.597 46.844 C 99.251 47.404, 99.455 48.163, 100.050 48.531 C 101.588 49.481, 102.580 48.180, 101.296 46.896 C 100.578 46.178, 100.019 46.161, 99.597 46.844 M 141.406 77.152 C 141.015 77.785, 141.541 78.922, 142.575 79.678 C 144.214 80.877, 144.538 80.825, 145.102 79.277 C 145.458 78.299, 145.554 77.162, 145.316 76.750 C 144.654 75.605, 142.207 75.857, 141.406 77.152 M 148 80.647 C 148 83.266, 148.894 84.338, 154.161 88.032 L 160.322 92.354 158.441 89.169 C 157.406 87.417, 154.633 84.094, 152.280 81.784 L 148 77.584 148 80.647 M 138.439 84.474 C 137.577 89.069, 138.378 97.778, 139.792 99.192 C 140.558 99.958, 141.336 98.652, 142.501 94.645 C 144.512 87.728, 144.169 84.168, 141.311 82.282 C 139.217 80.900, 139.091 80.996, 138.439 84.474" stroke="none" fill="black" fill-rule="evenodd"/>
</svg>