<svg xmlns="http://www.w3.org/2000/svg" width="200" height="200" viewBox="0 0 200 200" version="1.1">
	<path d="M 132 16.503 C 123.358 20.923, 118.329 22.912, 115.705 22.948 C 112.114 22.997, 108.022 25.661, 106.898 28.682 C 105.724 31.834, 83.892 42.632, 71.068 46.403 C 63.471 48.637, 62 48.501, 62 45.563 C 62 43.324, 61.695 43.167, 58.250 43.627 C 43.346 45.621, 34 49.193, 34 52.896 C 34 57.775, 45.284 62.848, 60.889 64.985 C 66.790 65.793, 70.062 65.791, 73.078 64.979 C 75.346 64.368, 76.923 63.590, 76.582 63.249 C 76.242 62.908, 71.809 62.538, 66.731 62.425 C 53.769 62.138, 37 57.069, 37 53.436 C 37 51.293, 42.143 49.128, 50.702 47.668 C 57.320 46.540, 58.551 46.548, 58.834 47.726 C 59.018 48.489, 60.277 49.535, 61.632 50.050 C 64.677 51.208, 70.098 50.068, 80.380 46.109 C 84.578 44.493, 87.790 43.531, 87.518 43.972 C 87.245 44.413, 87.689 45.327, 88.505 46.004 C 89.556 46.876, 91.921 47.027, 96.631 46.523 L 103.275 45.811 102.553 54.085 C 100.871 73.368, 93.900 88.922, 75.700 114 C 66.126 127.193, 40.792 148.542, 35.593 147.799 C 33.830 147.547, 33.537 146.887, 33.736 143.612 C 33.943 140.209, 35.069 138.590, 42.783 130.613 C 51.745 121.343, 58.999 111.641, 61.573 105.479 C 65.838 95.271, 59.947 91.582, 46.208 95.858 L 40.238 97.716 35.246 93.909 C 30.009 89.916, 28.371 87.507, 30.146 86.409 C 30.729 86.049, 38.022 85.188, 46.353 84.495 C 54.684 83.802, 63.439 82.653, 65.809 81.941 C 70.114 80.649, 75 76.121, 75 73.423 C 75 71.095, 72.265 71.808, 71.640 74.300 C 70.712 77.996, 64.944 80.007, 52.096 81.112 C 30.757 82.949, 29.912 83.088, 27.901 85.099 C 26.115 86.885, 26.082 87.259, 27.479 89.959 C 28.311 91.567, 31.495 94.676, 34.555 96.868 L 40.118 100.852 45.716 98.926 C 48.794 97.867, 53.268 97, 55.657 97 C 59.766 97, 60 97.154, 60 99.851 C 60 105.780, 50.813 119.075, 37.981 131.717 C 32.061 137.548, 31.643 138.264, 31.229 143.256 C 30.473 152.365, 34.797 153.205, 45.701 146.067 C 68.589 131.085, 92.698 99.814, 101.440 73.774 C 104.205 65.535, 106.895 44.495, 105.376 42.976 C 104.767 42.367, 103.165 42.379, 100.966 43.010 C 99.067 43.554, 95.948 44, 94.034 44 C 90.596 44, 90.578 43.978, 92.528 42.116 C 94.554 40.179, 106.790 34.395, 107.360 35.104 C 107.534 35.322, 109.438 41.350, 111.589 48.500 C 115.990 63.129, 115.967 62.690, 114.064 96.500 C 112.331 127.295, 114.662 163.927, 118.977 173.680 C 123.517 183.945, 131.035 176.118, 136.693 155.236 C 139.062 146.492, 139.339 143.666, 139.415 127.500 C 139.482 113.284, 139.815 109.022, 141 107.227 C 143.011 104.180, 145.121 104.774, 147.308 109.003 C 148.947 112.173, 149.056 114.415, 148.474 133 C 147.488 164.492, 150.068 182.808, 156.116 187.263 C 158.581 189.079, 158.913 189.096, 161.886 187.559 C 166.825 185.005, 170.638 178.899, 171.931 171.474 C 175.767 149.444, 176.316 137.413, 176.158 78.687 C 176.057 40.992, 175.642 20.200, 174.966 18.937 C 172.026 13.442, 161.612 12.257, 148.500 15.923 C 143.574 17.300, 141.204 17.565, 140.500 16.815 C 139.833 16.105, 139.833 15.620, 140.500 15.359 C 145.327 13.474, 147.729 10.971, 145.325 10.330 C 144.871 10.209, 138.875 12.987, 132 16.503 M 155.500 17.035 C 153.300 17.553, 149.680 18.465, 147.456 19.061 L 143.413 20.144 146.217 25.822 C 150.797 35.098, 152.262 44.400, 151.675 60.500 C 151.394 68.200, 150.538 76.750, 149.773 79.500 C 148.465 84.199, 148.166 84.518, 144.823 84.802 C 141.850 85.055, 140.818 84.572, 138.537 81.862 L 135.808 78.619 136.527 58.946 C 137.329 36.973, 136.809 33.700, 131.857 29.533 C 128.006 26.293, 127.077 26.335, 117.774 30.164 C 108.849 33.838, 109.163 31.826, 114.760 49.500 C 118.764 62.144, 119.100 67.813, 117.071 88.500 C 114.776 111.914, 117.243 162.794, 121.136 172.296 C 123.516 178.108, 128.391 172.819, 132.425 160.049 C 136.351 147.619, 137.179 141, 136.423 128.073 C 135.632 114.557, 136.833 107.445, 140.486 104.014 C 143.329 101.342, 145.664 101.664, 148.210 105.077 C 151.476 109.456, 152.007 114.662, 151.366 136 C 150.333 170.307, 153.916 188.791, 160.876 185.066 C 162 184.465, 164.119 182.399, 165.586 180.476 C 171.550 172.656, 174.275 134.994, 173.811 66.777 C 173.508 22.218, 173.448 21.002, 171.449 19.003 C 169.012 16.568, 161.442 15.633, 155.500 17.035 M 130.650 20.169 C 123.475 23.805, 123.739 24.804, 131.093 21.842 C 137.141 19.406, 138.566 18.464, 137.337 17.715 C 136.877 17.434, 133.867 18.539, 130.650 20.169 M 139 21.782 C 138.175 22.045, 136.053 22.847, 134.285 23.564 L 131.069 24.869 134.445 28.245 C 139.522 33.322, 140.382 37.943, 139.428 55 C 138.115 78.477, 138.346 80.228, 142.972 81.840 C 145.855 82.846, 145.988 82.757, 146.944 79.190 C 149.093 71.170, 150.030 57.096, 149.013 48.116 C 147.352 33.454, 142.491 20.669, 139 21.782" stroke="none" fill="black" fill-rule="evenodd"/>
</svg>