<svg xmlns="http://www.w3.org/2000/svg" width="200" height="200" viewBox="0 0 200 200" version="1.1">
	<path d="M 109 8.675 C 107.625 8.897, 99.975 10.685, 92 12.650 C 78.421 15.995, 76.849 16.179, 67.250 15.544 L 57 14.866 57 17.211 C 57 20.501, 59.184 23.259, 65.784 28.306 C 75.065 35.402, 77 36.506, 77 34.703 C 77 33.863, 74.188 31.160, 70.750 28.696 C 64.135 23.955, 59.330 19.337, 60.154 18.513 C 61.528 17.138, 80.862 23.864, 92.607 29.803 L 98.484 32.775 93.992 34.056 C 89.084 35.456, 87.266 36.600, 88.302 37.636 C 88.670 38.004, 91.900 37.512, 95.479 36.543 C 101.662 34.869, 105 34.945, 105 36.760 C 105 37.212, 102.412 38.914, 99.250 40.541 C 94.132 43.175, 92.510 43.500, 84.500 43.500 C 77.113 43.500, 74.030 42.979, 67.302 40.595 L 59.104 37.690 53.820 39.886 C 44.272 43.854, 39.847 46.916, 40.191 49.318 C 40.682 52.757, 44.548 53.838, 62.438 55.538 C 81.488 57.349, 84.913 58.194, 82.923 60.592 C 82.212 61.450, 75.247 65.260, 67.446 69.060 C 52.601 76.291, 42.301 83.084, 39.348 87.592 C 37.649 90.185, 37.664 90.309, 39.911 92.129 C 42.717 94.401, 44.468 94.438, 54.953 92.449 C 64.889 90.565, 77.973 86.041, 87.837 81.079 L 95.175 77.389 106.504 81.444 C 116.545 85.039, 117.894 85.800, 118.368 88.133 C 118.663 89.582, 119.184 91.883, 119.526 93.248 C 119.990 95.094, 119.683 95.908, 118.327 96.428 C 117.324 96.813, 106.153 97.524, 93.502 98.008 C 80.851 98.493, 69.150 99.298, 67.500 99.798 C 65.685 100.348, 61.537 100.336, 57 99.767 C 48.225 98.668, 36.656 99.284, 32.769 101.057 C 26.603 103.871, 28.919 109.592, 38.099 114.226 C 51.043 120.759, 68.811 121.739, 81 116.592 C 92.806 111.607, 97.523 110.721, 109 111.332 C 123.097 112.083, 123.876 112.371, 124.635 117.118 C 125.027 119.572, 125.793 121, 126.716 121 C 128.401 121, 127.996 124.561, 124.895 137 C 122.291 147.449, 119.155 153.923, 116.358 154.625 C 112.138 155.684, 103.332 147.092, 97.479 136.203 C 93.780 129.323, 89.147 124.203, 85.957 123.471 C 82.123 122.591, 78.834 125.817, 73.975 135.224 C 62.576 157.294, 53.834 169.082, 45.566 173.534 C 41.207 175.882, 41.114 177.268, 45.048 181.202 C 50.396 186.550, 55.641 184.785, 77.027 170.441 C 91.148 160.970, 95.129 159.504, 97.039 163.072 C 98.727 166.228, 97.723 177.262, 94.701 188.750 C 93.362 193.838, 92.434 198, 92.638 198 C 92.842 198, 98.498 194.146, 105.207 189.436 C 135.318 168.294, 148.254 165.200, 167.774 174.470 C 171.934 176.446, 175.687 177.711, 176.113 177.281 C 176.539 176.851, 173.715 171.325, 169.839 165 C 149.224 131.365, 142.884 122.706, 135.985 118.767 C 130.703 115.750, 130.963 114.700, 136.750 115.689 C 150.144 117.976, 159.031 115.700, 164.116 108.681 C 166.819 104.949, 167 104.096, 167 95.073 C 167 89.778, 167.959 78.933, 169.130 70.973 C 171.962 51.731, 172.144 35.350, 169.606 28.058 C 167.148 20.996, 160.242 13.952, 153.537 11.667 C 150.846 10.750, 148.093 10, 147.420 10 C 146.668 10, 145.928 12.315, 145.500 16.002 C 144.675 23.111, 143.486 24.439, 142.646 19.189 C 141.982 15.035, 138.210 10.773, 133.685 9.064 C 131.029 8.060, 114.436 7.799, 109 8.675 M 115.500 10.628 C 109.116 11.590, 92.289 15.106, 88.079 16.359 L 83.657 17.674 93.093 19.855 C 106.922 23.050, 112.179 27.117, 107.500 31 C 106.675 31.685, 106 32.544, 106 32.910 C 106 33.276, 108.888 35.474, 112.417 37.795 C 123.580 45.134, 127.209 51.829, 121.252 54.094 C 116.322 55.969, 114.901 57.942, 115.620 61.918 C 116.534 66.977, 118.099 69.620, 124.437 76.814 C 131.893 85.276, 131.897 89.170, 124.448 87.113 L 120.869 86.125 121.509 89.312 C 122.906 96.267, 122.606 96.013, 127.481 94.352 C 129.899 93.528, 132.283 92.325, 132.779 91.677 C 134.084 89.977, 138.780 57.507, 139.675 44 C 141.281 19.759, 140.596 15.394, 134.710 12.350 C 131.752 10.821, 120.764 9.836, 115.500 10.628 M 148.553 14.250 C 148.341 14.938, 146.712 24.899, 144.933 36.386 C 141.724 57.105, 141.712 57.328, 143.362 64.386 C 146.409 77.417, 145.113 85.290, 138.977 91.022 C 136.381 93.446, 135.694 95.181, 134.407 102.551 C 133.574 107.322, 133.124 111.458, 133.407 111.740 C 134.287 112.621, 142.287 113.912, 147 113.934 C 152.523 113.961, 158.929 111.177, 161.829 107.491 C 163.687 105.129, 164 103.450, 164 95.857 C 164 90.977, 164.974 80.350, 166.165 72.242 C 168.964 53.182, 169.176 35.439, 166.690 28.313 C 164.709 22.631, 159.137 16.791, 153.422 14.403 C 149.319 12.689, 149.036 12.680, 148.553 14.250 M 82 21.721 C 98.851 29.862, 102.012 31.131, 103.929 30.522 C 111.132 28.236, 100.229 23.195, 82.500 20.613 L 78.500 20.030 82 21.721 M 99.571 43.346 C 94.247 46.178, 92.767 46.500, 85.071 46.500 C 78.326 46.500, 74.626 45.886, 67.707 43.618 L 58.915 40.736 52.546 43.443 C 45.308 46.519, 42.198 48.531, 43.174 49.507 C 44.382 50.716, 51.280 51.828, 64.971 53.022 C 79.521 54.291, 84.709 55.545, 86.360 58.191 C 88.064 60.921, 84.598 63.797, 73 69.280 C 54.440 78.054, 40.022 87.608, 41.567 90.109 C 43.807 93.733, 71.598 86.523, 87.494 78.193 L 94.996 74.263 105.616 78.180 C 111.457 80.334, 116.449 81.884, 116.709 81.625 C 116.968 81.365, 116.188 77.406, 114.974 72.826 C 113.760 68.247, 112.418 62.025, 111.992 59 C 110.539 48.687, 107.846 39.877, 106.215 40.096 C 105.822 40.149, 102.832 41.612, 99.571 43.346 M 111.398 43.750 C 112.119 45.813, 113.015 49.163, 113.389 51.196 L 114.070 54.891 117.535 52.847 C 119.441 51.722, 121 50.210, 121 49.486 C 121 48.127, 112.351 40, 110.904 40 C 110.455 40, 110.678 41.688, 111.398 43.750 M 138.571 76.457 C 137.568 82.850, 136.969 88.302, 137.239 88.572 C 137.508 88.842, 138.564 87.811, 139.585 86.281 C 141.675 83.148, 142.746 71.051, 141.277 67.166 C 140.586 65.341, 139.997 67.363, 138.571 76.457 M 119.170 78.277 C 120.263 83.164, 120.559 83.520, 124.250 84.390 C 127.962 85.265, 127.681 84.326, 122.573 78.777 L 118.225 74.055 119.170 78.277 M 127.250 97.247 C 123.636 98.406, 123.544 98.775, 125.083 105.951 C 125.922 109.863, 126.593 111, 128.064 111 C 130.052 111, 130.302 110.355, 131.840 101.250 C 132.807 95.527, 132.755 95.481, 127.250 97.247 M 116.500 99.555 C 114.291 100.433, 67.553 102.313, 53.775 102.079 C 38.677 101.822, 32 102.880, 32 105.527 C 32 107.660, 37.853 111.536, 45 114.136 C 50.421 116.108, 53.408 116.500, 63 116.500 C 74.026 116.500, 74.881 116.343, 83.745 112.702 C 94.369 108.336, 105.059 107.067, 115.941 108.878 C 119.484 109.468, 122.531 109.802, 122.712 109.621 C 122.893 109.440, 122.545 106.976, 121.938 104.146 C 120.864 99.139, 119.803 98.243, 116.500 99.555 M 127 115.500 C 127 116.325, 127.450 117, 128 117 C 128.550 117, 129 116.325, 129 115.500 C 129 114.675, 128.550 114, 128 114 C 127.450 114, 127 114.675, 127 115.500 M 129.539 128.750 C 125.259 150.334, 120.602 158.950, 114 157.500 C 109.657 156.546, 99.958 146.422, 95.421 138.107 C 91.239 130.441, 87.366 126, 84.864 126 C 82.660 126, 79.176 130.584, 74.981 139 C 65.721 157.580, 56.537 170.033, 48.373 175.079 C 45.053 177.131, 44.973 177.313, 46.603 179.114 C 50.388 183.296, 56.787 180.872, 75.911 168.008 C 89.603 158.799, 93.934 157.071, 97.491 159.402 C 101.025 161.718, 101.630 166.840, 99.688 178 C 98.779 183.225, 97.744 188.533, 97.389 189.796 C 96.849 191.716, 98.117 191.106, 105.121 186.077 C 116.900 177.620, 128.347 171.302, 136.329 168.853 C 145.696 165.978, 157.128 166.532, 165.250 170.254 C 168.412 171.704, 171 172.732, 171 172.540 C 171 171.798, 152.499 142.125, 147.710 135.186 C 142.646 127.849, 134.782 120, 132.496 120 C 131.758 120, 130.586 123.468, 129.539 128.750" stroke="none" fill="black" fill-rule="evenodd"/>
</svg>