<svg xmlns="http://www.w3.org/2000/svg" width="200" height="200" viewBox="0 0 200 200" version="1.1">
	<path d="M 162 15.767 C 160.075 16.713, 155.309 20.517, 151.409 24.220 L 144.318 30.952 140.741 22.999 L 137.165 15.046 132.332 16.508 C 129.675 17.313, 124.125 18.912, 120 20.063 C 110.372 22.748, 91.381 28.891, 87.500 30.576 C 85.850 31.292, 78.425 32.831, 71 33.997 C 44.429 38.168, 36.500 40.699, 36.500 45.008 C 36.500 49.490, 44.235 52.041, 74.500 57.543 C 78.190 58.214, 77.462 58.488, 65.110 61.080 C 49.375 64.382, 39.382 67.305, 36.250 69.521 C 33.218 71.667, 33.415 75.080, 36.750 78.191 C 41.232 82.371, 55.289 90.111, 56.394 89.006 C 57.586 87.814, 58.088 88.213, 48.815 82.998 C 39.029 77.494, 35.483 74.328, 37.025 72.469 C 38.914 70.194, 50.575 66.839, 69.943 62.997 C 87.362 59.543, 92.130 57.726, 86.821 56.567 C 85.544 56.288, 77.300 54.885, 68.500 53.448 C 50.642 50.533, 39.500 47.303, 39.500 45.041 C 39.500 44.135, 41.672 42.921, 45.229 41.838 C 50.932 40.102, 79.721 35, 83.816 35 C 84.998 35, 87.956 36.913, 90.389 39.250 C 96.098 44.734, 97.062 49.693, 94.130 58.500 C 89.260 73.128, 87.838 76.453, 84.520 80.972 C 77.060 91.136, 57.498 107.206, 44.808 113.597 C 38.709 116.668, 34 117.911, 34 116.450 C 34 114.992, 37.483 109.484, 41.611 104.416 C 44.590 100.759, 45.851 98.451, 45.216 97.816 C 44.029 96.629, 35.691 106.537, 32.697 112.692 C 30.953 116.276, 30.856 117.121, 32.024 118.528 C 33.396 120.182, 37.461 120.189, 41.250 118.545 C 42.524 117.992, 43 118.244, 43 119.470 C 43 120.396, 44.377 122.531, 46.059 124.213 C 48.952 127.106, 49.430 127.240, 54.838 126.675 C 59.940 126.141, 61.119 126.397, 65.744 129.039 C 72.038 132.633, 73.675 135.095, 71.218 137.266 C 70.273 138.101, 64.775 141.035, 59 143.786 C 53.225 146.537, 47.641 149.738, 46.592 150.898 C 44.855 152.818, 44.793 153.499, 45.907 158.474 C 47.688 166.432, 52.544 175.454, 57.185 179.426 C 65.704 186.718, 75.927 187.616, 103.673 183.509 C 123.149 180.626, 127.913 180.487, 137.500 182.517 C 145.700 184.254, 155.697 184.443, 159.685 182.936 C 166.837 180.234, 171.340 173.123, 171.361 164.499 C 171.384 154.773, 165.506 144.197, 155.444 135.861 L 151.052 132.223 158.135 131.823 C 169.349 131.189, 170.481 127.529, 161.936 119.537 C 156.137 114.112, 156.920 114.175, 125.357 116.623 C 96.692 118.846, 92.019 117.730, 99.118 110.354 C 103.363 105.943, 111.916 99.582, 112.635 100.301 C 112.932 100.599, 113.923 102.340, 114.838 104.171 C 116.186 106.872, 117.167 107.556, 120.032 107.797 C 122.961 108.044, 124.252 107.445, 127.584 104.297 C 129.795 102.209, 132.753 98.990, 134.159 97.145 L 136.715 93.791 139.016 97.145 C 144.758 105.516, 150.532 110, 155.568 110 C 159.396 110, 165.243 103.710, 167.797 96.846 C 172.505 84.191, 174.501 65.023, 173.093 46 C 172.869 42.975, 173.042 36.640, 173.477 31.922 C 174.353 22.425, 173.172 16.698, 169.986 14.992 C 167.445 13.632, 166.069 13.766, 162 15.767 M 159.340 20.884 C 156.678 23.020, 152.538 26.800, 150.141 29.284 L 145.781 33.799 147.936 39.559 C 151.267 48.462, 149.017 50.558, 142.051 45.040 L 138.314 42.081 134.973 45.528 L 131.632 48.975 137.849 54.602 C 145.293 61.338, 147.231 64.761, 147.231 71.173 C 147.231 75.432, 147.482 76.001, 149.365 76.010 C 150.645 76.016, 147.293 78.471, 141 82.137 C 135.225 85.502, 127.196 90.295, 123.157 92.789 C 116.133 97.126, 115.841 97.456, 116.430 100.398 C 118.012 108.310, 122.743 106.924, 131.608 95.952 L 137.293 88.916 139.815 93.208 C 152.121 114.150, 162.749 110.854, 168.629 84.272 C 169.991 78.116, 170.394 70.678, 170.567 48.500 C 170.690 32.740, 170.379 19.735, 169.857 18.750 C 168.366 15.937, 164.536 16.714, 159.340 20.884 M 125.672 21.319 L 118.844 23.500 122.097 25.410 C 123.886 26.460, 128.147 29.692, 131.565 32.592 L 137.779 37.864 140.036 35.461 L 142.293 33.059 139.270 26.279 C 137.205 21.651, 135.652 19.443, 134.373 19.319 C 133.343 19.220, 129.427 20.120, 125.672 21.319 M 110.235 26.037 C 106.537 27.523, 105.498 31.810, 107.843 35.913 C 109.456 38.735, 111.592 40.144, 119.604 43.670 L 129.394 47.978 132.447 44.274 C 134.126 42.237, 135.500 40.248, 135.500 39.854 C 135.500 38.719, 123.169 29.127, 118.928 26.963 C 114.698 24.805, 113.593 24.688, 110.235 26.037 M 96.250 30.092 C 92.813 31.181, 90 32.412, 90 32.827 C 90 33.242, 92.892 34.352, 96.427 35.294 C 99.963 36.236, 103.675 37.307, 104.677 37.673 C 106.415 38.308, 106.413 38.240, 104.636 36.215 C 103.087 34.449, 102.952 33.578, 103.834 31.046 C 105.109 27.388, 104.878 27.359, 96.250 30.092 M 141.706 37.772 C 139.969 39.691, 140.011 39.832, 143.083 42.417 C 144.826 43.883, 146.454 44.879, 146.703 44.631 C 146.951 44.383, 146.331 42.293, 145.325 39.986 C 143.527 35.861, 143.468 35.825, 141.706 37.772 M 95.584 40.718 C 98.904 45.611, 98.923 54.753, 95.632 63.329 C 94.330 66.723, 92.523 71.558, 91.616 74.074 C 88.173 83.634, 71.151 100.416, 53.661 111.496 C 44.900 117.046, 44.918 117.288, 54.310 120.480 L 59.736 122.324 63.118 119.957 C 72.647 113.288, 86.611 98.955, 105.424 76.535 L 111.269 69.569 110.656 60.934 C 110.319 56.185, 109.540 49.954, 108.926 47.088 C 107.721 41.474, 107.733 41.483, 98.252 38.667 L 93.167 37.157 95.584 40.718 M 111.312 45.219 C 111.611 46.473, 112.114 49.638, 112.428 52.250 C 112.743 54.862, 113.254 59.033, 113.564 61.518 L 114.128 66.036 120.564 58.462 C 124.104 54.297, 127 50.701, 127 50.470 C 127 49.857, 121.933 47.339, 115.974 44.990 L 110.768 42.938 111.312 45.219 M 121.649 61.250 L 113.889 70.500 114.498 81.971 C 114.834 88.279, 115.242 93.575, 115.406 93.739 C 115.570 93.903, 122.342 90.093, 130.455 85.272 L 145.207 76.508 144.775 71.306 C 144.256 65.040, 140.863 59.677, 134.550 55.143 C 132.143 53.414, 130.001 52, 129.791 52 C 129.581 52, 125.917 56.163, 121.649 61.250 M 99.804 87.170 C 89.505 99.159, 71.566 117.304, 65.500 121.868 C 63.747 123.187, 62.982 124.329, 63.658 124.616 C 64.295 124.885, 66.885 126.476, 69.414 128.151 C 74.186 131.312, 76.061 135.018, 74.347 137.905 C 73.826 138.782, 68.057 142.200, 61.526 145.500 C 54.996 148.800, 49.185 152.265, 48.613 153.200 C 47.846 154.454, 48.159 156.716, 49.806 161.830 C 54.012 174.890, 60.400 181.043, 71.735 182.955 C 78.910 184.165, 85.899 183.634, 106 180.350 C 118.881 178.246, 131.720 178.277, 141.968 180.436 C 149.086 181.936, 151.277 182.032, 155.711 181.040 C 171.138 177.588, 173.222 160.723, 160.239 144.392 C 156.599 139.814, 144.314 130.353, 143.310 131.356 C 143.091 131.575, 143.831 136.261, 144.953 141.769 C 148.304 158.212, 147.934 166.885, 143.877 166.985 C 142.967 167.007, 136.311 159.463, 130 151.256 C 124.055 143.524, 120.674 140.926, 118.886 142.714 C 118.295 143.305, 117.682 147.013, 117.524 150.954 C 117.286 156.873, 116.824 158.561, 114.868 160.655 C 111.548 164.210, 105.338 167.659, 99.750 169.053 C 91.011 171.232, 81.202 167.173, 78.986 160.459 C 76.652 153.386, 83.388 146.116, 96.531 141.526 C 102.504 139.439, 103.514 138.744, 103.599 136.660 C 103.761 132.713, 104.705 131.208, 108.199 129.329 C 110.930 127.861, 113.830 127.574, 125 127.666 C 132.883 127.730, 138.757 127.368, 139.117 126.794 C 139.498 126.188, 140.915 126.422, 142.818 127.406 C 146.475 129.297, 163.457 129.688, 164.558 127.907 C 164.929 127.305, 163.287 124.830, 160.908 122.407 L 156.584 118 148.542 118.001 C 144.119 118.001, 135.619 118.464, 129.654 119.030 C 110.863 120.812, 98.704 120.691, 95.653 118.692 C 90.559 115.355, 93.166 110.724, 105.313 101.533 L 112.291 96.253 112.082 87.541 C 111.734 73.083, 111.901 73.088, 99.804 87.170 M 47.315 121.787 C 49.401 124.102, 52.737 125.235, 53.558 123.906 C 53.866 123.408, 53.921 123, 53.681 123 C 53.441 123, 51.502 122.274, 49.372 121.387 C 45.512 119.778, 45.506 119.779, 47.315 121.787 M 111.376 131.086 C 106.804 132.412, 105.379 134.515, 106.694 137.999 L 107.765 140.838 99.442 143.432 C 81.078 149.158, 75.355 159.731, 87.670 165.178 C 95.428 168.610, 104.540 166.534, 111.750 159.692 C 114.714 156.879, 115.001 156.076, 115.015 150.554 C 115.032 143.421, 116.653 139.628, 119.883 139.166 C 122.899 138.735, 126.183 141.868, 135.752 154.303 C 140.831 160.903, 143.625 163.775, 144.305 163.095 C 145.422 161.978, 143.949 149.235, 141.392 137.887 L 139.902 131.275 133.804 130.637 C 125.558 129.775, 115.180 129.983, 111.376 131.086" stroke="none" fill="black" fill-rule="evenodd"/>
</svg>