<svg xmlns="http://www.w3.org/2000/svg" width="200" height="200" viewBox="0 0 200 200" version="1.1">
	<path d="M 105.500 13.059 C 100.550 13.552, 89.975 14.857, 82 15.959 C 74.025 17.061, 64.837 18.308, 61.583 18.731 C 58.328 19.154, 55.515 19.953, 55.331 20.506 C 55.147 21.059, 56.808 22.077, 59.023 22.769 C 65.463 24.778, 91.409 35.117, 92.427 36.078 C 93.973 37.539, 86.490 40, 80.501 40 C 74.794 40, 64.679 37.146, 60.363 34.318 C 59.029 33.444, 57.671 32.996, 57.345 33.321 C 54.469 36.198, 67.994 42.073, 79 42.728 C 85.683 43.126, 87.034 42.887, 91.408 40.532 C 95.683 38.229, 96.683 38.040, 99.158 39.065 C 100.721 39.713, 101.988 40.526, 101.974 40.871 C 101.960 41.217, 98.201 43.188, 93.620 45.250 C 80.778 51.032, 72.392 50.449, 62.234 43.065 C 58.034 40.012, 57.919 39.990, 54.734 41.623 C 44.862 46.684, 37.773 53.250, 38.201 56.935 C 38.639 60.698, 43.054 61.735, 62.148 62.559 C 78.792 63.278, 84.990 64.401, 85.789 66.842 C 86.478 68.948, 77.139 76.969, 66.975 83 C 46.889 94.919, 35.926 109.629, 43.453 114.561 C 45.695 116.030, 46.365 116.033, 51.203 114.599 C 57.931 112.605, 64.640 108.719, 75.522 100.512 C 80.271 96.930, 84.683 94.007, 85.328 94.015 C 86.881 94.034, 97.784 97.451, 98.465 98.132 C 98.758 98.425, 98.290 102.480, 97.425 107.144 L 95.852 115.623 84.524 115.189 C 70.062 114.636, 59.044 116.802, 54.816 121.030 C 52.564 123.282, 52.172 124.304, 52.845 126.170 C 54.007 129.392, 62.080 133.619, 70.831 135.588 C 74.864 136.495, 77.789 137.561, 77.331 137.957 C 76.874 138.353, 73.490 139.206, 69.812 139.852 C 61.061 141.389, 51.316 144.464, 47.241 146.974 C 43.414 149.331, 40.009 154.488, 40.004 157.934 C 39.992 165.518, 51.770 179.121, 62.849 184.318 C 68.458 186.949, 70.675 187.436, 77 187.426 C 85.983 187.411, 90.683 186.145, 97.966 181.778 C 106.851 176.450, 110.356 168.808, 106.463 163.250 C 104.828 160.917, 96.706 158.030, 91.568 157.956 L 88.500 157.912 92 156.053 C 93.925 155.031, 99.100 151.007, 103.500 147.112 C 107.900 143.217, 111.950 140.177, 112.500 140.358 C 113.122 140.562, 113.500 148.169, 113.500 160.478 L 113.500 180.269 116.010 182.151 C 120.122 185.233, 129.909 186.566, 138.856 185.262 C 164.949 181.459, 178.348 165.097, 171.065 145.929 C 169.571 141.997, 169.252 139.318, 169.666 134.168 C 170.139 128.297, 169.922 127.093, 167.851 124.092 C 166.558 122.218, 164.375 119.859, 163 118.851 C 160.231 116.821, 151.980 115, 145.555 115 L 141.383 115 139.638 77.250 C 138.679 56.487, 137.626 34.213, 137.298 27.750 L 136.703 16 139.101 16.004 C 142.532 16.009, 148 19.616, 148 21.873 C 148 22.919, 146.484 25.979, 144.632 28.672 L 141.264 33.568 142.008 65.534 C 142.779 98.617, 143.247 102.256, 147.313 106.750 C 151.206 111.053, 156.722 109.212, 164.340 101.068 C 168.877 96.217, 169.085 95.749, 168.484 91.730 C 168.137 89.404, 168.600 78.275, 169.514 67 C 171.329 44.613, 170.959 35.638, 167.880 27.409 C 165.563 21.217, 159.879 15.621, 154.321 14.061 C 149.161 12.613, 116.669 11.946, 105.500 13.059 M 102.443 16.113 C 98.012 16.579, 91.937 17.334, 88.943 17.791 L 83.500 18.621 88.778 20.946 C 95.065 23.715, 98.399 27.830, 97.778 32.057 C 97.372 34.828, 97.800 35.258, 104.788 39.094 C 113.053 43.630, 120.591 50.520, 121.574 54.439 C 123.010 60.162, 119.536 65.551, 111.480 70.098 C 105.442 73.506, 103.438 77.528, 106.669 79.755 C 107.676 80.449, 113.368 84.209, 119.318 88.111 C 129.886 95.041, 132.878 98.270, 131.663 101.436 C 130.820 103.634, 122.728 103.449, 111.550 100.978 C 106.628 99.890, 102.313 99.337, 101.961 99.750 C 101.316 100.508, 99 112.540, 99 115.138 C 99 115.993, 100.842 116.973, 103.696 117.635 C 108.004 118.634, 119.427 117.852, 135.500 115.455 L 138.500 115.008 138.227 107.254 C 138.077 102.989, 137.063 81.275, 135.974 59 C 134.885 36.725, 133.995 17.712, 133.997 16.750 C 134 15.175, 132.826 15.013, 122.250 15.133 C 115.787 15.206, 106.874 15.647, 102.443 16.113 M 149.186 18.038 C 151.746 21.500, 151.108 24.950, 146.937 30.191 L 144 33.883 144.034 55.691 C 144.085 89.127, 146.111 104.677, 150.641 106.416 C 152.798 107.244, 156.911 104.779, 161.628 99.830 L 165.756 95.500 166.601 76.500 C 167.986 45.373, 167.773 34.207, 165.692 28.814 C 164.103 24.696, 157.350 17.043, 155.247 16.976 C 154.836 16.963, 152.838 16.566, 150.808 16.094 L 147.115 15.237 149.186 18.038 M 65.500 22.018 C 66.600 22.504, 73.688 25.342, 81.250 28.326 C 94.969 33.738, 95 33.744, 95 31.329 C 95 25.285, 85.110 20.954, 71.568 21.068 C 66.011 21.114, 64.122 21.410, 65.500 22.018 M 49.584 48.072 C 40.347 54.250, 38.730 56.567, 42.621 58.046 C 44.107 58.611, 53.462 59.463, 63.411 59.940 C 81.807 60.822, 85.512 61.502, 87.953 64.444 C 91.265 68.435, 83.431 76.660, 67.645 85.765 C 59.157 90.661, 47.792 100.568, 45.435 105.126 C 43.591 108.692, 43.603 111.910, 45.463 112.624 C 49.412 114.139, 65.739 105.284, 79.295 94.274 L 84.089 90.380 91.176 92.690 C 95.073 93.960, 98.573 95, 98.953 95 C 99.888 95, 102.085 80.568, 101.200 80.245 C 100.815 80.104, 98.700 78.899, 96.500 77.566 L 92.500 75.144 95.500 74.088 C 103.863 71.144, 104.505 69.918, 104.977 56 C 105.304 46.366, 105.057 44, 103.722 44 C 103.019 44, 99.081 45.620, 94.972 47.601 C 82.787 53.473, 71.872 53.284, 63.202 47.052 C 61.166 45.588, 58.978 44.076, 58.339 43.691 C 57.699 43.306, 53.774 45.270, 49.584 48.072 M 107.690 56.241 C 107.353 62.935, 107.262 68.595, 107.486 68.820 C 108.208 69.541, 114.900 64.943, 116.984 62.294 C 120.814 57.424, 119.349 52.821, 112.156 47.123 L 108.302 44.071 107.690 56.241 M 101.250 74.662 C 99.509 75.365, 99.684 77, 101.500 77 C 102.325 77, 103 76.325, 103 75.500 C 103 74.675, 102.888 74.036, 102.750 74.079 C 102.612 74.122, 101.938 74.385, 101.250 74.662 M 103.289 88.806 C 102.725 92.487, 102.426 95.684, 102.624 95.909 C 102.823 96.134, 106.701 97.136, 111.243 98.136 C 120.137 100.093, 129 100.566, 129 99.084 C 129 97.451, 115.701 88, 107.265 83.637 L 104.314 82.111 103.289 88.806 M 64 119.604 C 57.424 121.364, 54.053 124.154, 55.864 126.336 C 57.620 128.452, 65.595 131.657, 73.686 133.497 C 81.827 135.348, 85.122 137.234, 83.353 139.030 C 82.722 139.670, 77.097 141.224, 70.853 142.483 C 51.388 146.406, 43 150.981, 43 157.676 C 43 164.707, 52.718 176.260, 62.811 181.226 C 68.785 184.166, 70.334 184.496, 77.982 184.457 C 84.595 184.424, 87.606 183.914, 91.445 182.177 C 98.281 179.084, 102.839 175.405, 104.719 171.463 C 106.182 168.395, 106.178 167.920, 104.665 165.612 C 102.474 162.268, 97.454 161.012, 86.250 161.006 C 78.697 161.001, 77 160.725, 77 159.500 C 77 158.611, 77.917 158, 79.250 157.999 C 83.554 157.998, 93.555 152.193, 102.383 144.573 C 107.269 140.355, 111.983 137.043, 112.858 137.211 C 116.565 137.925, 117.146 141.683, 116.486 160.679 L 115.854 178.858 118.633 180.679 C 122.950 183.508, 140.310 183.260, 149 180.246 C 157.257 177.382, 164.700 171.741, 167.677 166.093 C 170.463 160.807, 170.729 152.537, 168.308 146.500 C 167.256 143.876, 166.778 140.033, 166.919 135.329 C 167.288 123.009, 163.137 119.044, 149 118.212 L 141.500 117.770 141.814 141.710 C 142.080 161.994, 141.900 165.838, 140.634 166.889 C 139.406 167.908, 138.940 167.756, 138.020 166.037 C 136.685 163.544, 132.818 138.103, 133.585 136.863 C 135.016 134.547, 135.888 136.853, 137.138 146.250 L 138.500 156.500 138.773 137.606 C 138.923 127.214, 138.873 118.540, 138.663 118.330 C 138.218 117.884, 119.212 119.904, 117.007 120.631 C 116.057 120.945, 117.320 122.039, 120.482 123.642 C 126.105 126.492, 135 132.789, 135 133.919 C 135 135.978, 133.400 135.527, 129.159 132.272 C 122.413 127.093, 110.897 121.898, 104.256 121.038 C 101.090 120.628, 97.233 119.776, 95.685 119.146 C 91.664 117.509, 70.694 117.812, 64 119.604" stroke="none" fill="black" fill-rule="evenodd"/>
</svg>