<svg xmlns="http://www.w3.org/2000/svg" width="200" height="200" viewBox="0 0 200 200" version="1.1">
	<path d="M 129.833 12.946 C 129.650 13.466, 113.525 15.070, 94 16.511 C 56.507 19.279, 48.729 20.407, 48.206 23.153 C 47.449 27.124, 60.668 37.570, 72.557 42.395 C 81.062 45.847, 86.819 46.520, 91.414 44.600 C 94.351 43.373, 95.648 43.277, 97.303 44.162 L 99.426 45.298 97.234 46.109 C 96.029 46.555, 91.142 47.439, 86.376 48.073 C 79.152 49.034, 76.443 48.968, 70.105 47.673 C 58.571 45.317, 51.841 44.801, 46.941 45.899 C 41.487 47.121, 38.033 50.720, 38.744 54.440 C 39.438 58.070, 46.437 63.755, 52.388 65.523 C 58.205 67.250, 68.862 67.444, 74.344 65.922 C 76.458 65.335, 78.451 65.118, 78.773 65.440 C 79.870 66.537, 75.994 73.092, 71.241 78.178 C 68.634 80.968, 60.063 88.429, 52.196 94.758 C 38.574 105.716, 33 111.597, 33 115.010 C 33 117.823, 36.019 120.925, 39.883 122.083 C 43.678 123.220, 43.735 123.194, 53.068 116.109 C 78.163 97.056, 94.745 94.702, 121.250 106.430 L 127 108.975 126.997 113.737 L 126.995 118.500 100.747 118.596 C 73.150 118.697, 66.939 119.509, 64.599 123.322 C 62.947 126.016, 68.067 130.087, 77.767 133.791 C 85.650 136.801, 85.934 136.835, 91.160 135.402 C 98.640 133.352, 116.477 132.477, 121.705 133.905 C 129.911 136.145, 131.100 140.216, 124.500 143.475 C 118.397 146.489, 104.133 146.106, 93.198 142.635 C 82.929 139.376, 74.886 139.162, 70.190 142.026 C 60.303 148.053, 63.045 166.132, 75.654 178.058 C 84.978 186.876, 85.346 186.954, 117.500 186.970 C 156.139 186.989, 168.104 185.410, 171.051 179.906 C 172.742 176.744, 170.217 172.339, 163.989 167.590 L 159.137 163.889 155.319 165.797 C 146.925 169.990, 133.065 171.774, 121.987 170.088 C 112.363 168.622, 105.691 166.421, 103.486 163.984 C 101.803 162.125, 101.839 162.012, 104.430 161.026 C 105.912 160.463, 110.809 159.728, 115.312 159.393 C 122.367 158.869, 124.261 159.094, 129 161.019 C 135.850 163.802, 147.003 164.182, 151.521 161.787 C 160.191 157.191, 164.216 149.781, 164.800 137.342 C 165.185 129.149, 164.965 127.603, 162.709 122.676 C 160.052 116.872, 156.906 114.067, 152.530 113.600 C 151.078 113.445, 149.233 112.662, 148.430 111.859 C 147.150 110.578, 147.476 110.175, 151.081 108.584 C 160.250 104.539, 167.098 87.571, 166.882 69.432 C 166.817 63.969, 166.457 58.150, 166.082 56.500 C 165.672 54.691, 165.956 52.129, 166.800 50.045 C 167.694 47.837, 168.069 44.049, 167.841 39.545 C 167.139 25.715, 159.010 15, 149.218 15 C 145.277 15, 144.226 15.512, 140.501 19.250 L 136.266 23.500 135.080 19.039 C 133.514 13.144, 130.853 10.054, 129.833 12.946 M 97 19.045 C 85.175 20.021, 73.925 20.918, 72 21.040 C 70.007 21.166, 71.945 21.646, 76.500 22.155 C 87.276 23.359, 96.106 25.684, 98.339 27.905 C 100.051 29.607, 100.078 30.125, 98.731 35.414 L 97.284 41.095 99.892 42.427 C 101.326 43.160, 103.930 44.067, 105.677 44.443 C 112.647 45.943, 116.069 52.746, 114.219 61.423 C 113.263 65.902, 113.346 66.148, 118.204 73.248 C 126.012 84.662, 125.706 84.657, 126.421 73.363 C 127.363 58.479, 129.786 41.905, 132.126 34.328 C 133.966 28.370, 134.076 26.917, 133.037 22.277 L 131.857 17 125.178 17.136 C 121.505 17.211, 108.825 18.070, 97 19.045 M 147.311 17.772 C 144.377 18.243, 137.995 25.440, 138.018 28.253 C 138.029 29.489, 138.767 34.325, 139.660 39 C 140.868 45.329, 141.311 54.012, 141.391 73 C 141.488 95.650, 141.706 98.915, 143.346 102.213 C 144.362 104.256, 146.033 106.193, 147.059 106.519 C 151.728 108.001, 157.748 100.594, 161.631 88.590 C 163.793 81.909, 164.241 78.672, 164.208 70 C 164.185 64.225, 163.755 58.150, 163.251 56.500 C 162.592 54.344, 162.753 52.515, 163.821 50 C 166.216 44.359, 165.697 34.946, 162.647 28.711 C 158.613 20.465, 153.454 16.786, 147.311 17.772 M 55.362 28.553 C 66.096 38.431, 85.195 45.695, 90.914 42.074 C 93.454 40.466, 58.457 23.938, 52.727 24.040 C 50.803 24.074, 51.160 24.687, 55.362 28.553 M 78.899 31.473 C 87.368 35.669, 94.646 38.742, 95.071 38.301 C 95.496 37.861, 96.139 35.896, 96.499 33.936 C 96.972 31.355, 96.735 30.025, 95.640 29.116 C 93.958 27.720, 82.487 25.587, 71 24.533 L 63.500 23.844 78.899 31.473 M 134.284 36.597 C 131.397 46.617, 129.002 66.649, 129.001 80.787 C 129 88.065, 129.006 88.080, 134.174 94.530 C 137.019 98.080, 139.469 100.864, 139.618 100.716 C 139.766 100.567, 139.421 98.433, 138.851 95.973 C 138.199 93.160, 138.066 85.155, 138.492 74.399 C 139.127 58.374, 138.214 43.187, 136.153 35.478 L 135.408 32.694 134.284 36.597 M 104 47.607 C 104 49.190, 110.217 61, 111.051 61 C 111.573 61, 112 58.954, 112 56.452 C 112 52.819, 111.468 51.411, 109.354 49.452 C 106.907 47.184, 104 46.183, 104 47.607 M 45.357 49.025 C 39.785 50.756, 40.138 54.761, 46.263 59.336 C 53.522 64.756, 66.936 66.027, 76.750 62.226 L 82 60.192 82 63.636 C 82 71.778, 75.929 79.037, 54.878 96.066 C 37.066 110.475, 33.593 114.757, 37.256 117.797 C 40.935 120.851, 43.346 120.201, 51.463 113.971 C 70.996 98.980, 86.563 93.902, 102.500 97.324 C 106.350 98.151, 110.348 99.163, 111.385 99.573 C 113.054 100.232, 112.978 99.811, 110.731 95.909 C 107.135 89.665, 106.583 84.580, 108.431 74.720 L 110.011 66.286 105.527 57.497 C 103.060 52.664, 100.916 48.583, 100.763 48.430 C 100.609 48.276, 97.787 48.784, 94.492 49.559 C 87.496 51.205, 73.016 51.441, 67.993 49.992 C 62.813 48.498, 48.960 47.906, 45.357 49.025 M 111.104 74.953 C 108.208 88.455, 111.999 97.697, 122.959 103.857 L 127.120 106.196 126.420 97.348 C 125.725 88.550, 125.687 88.452, 119.697 80 C 116.385 75.325, 113.344 71.119, 112.941 70.654 C 112.537 70.188, 111.711 72.123, 111.104 74.953 M 129.541 106.750 L 130.256 121 105.312 121 C 81.799 121, 69.717 121.985, 67.554 124.077 C 66.165 125.421, 69.386 127.522, 78.017 130.902 C 85.393 133.790, 85.648 133.818, 91.517 132.409 C 101.642 129.978, 115.707 129.482, 122.068 131.332 C 129.202 133.405, 132.751 136.961, 131.432 140.712 C 129.728 145.557, 124.805 147.437, 112.729 147.852 C 103.397 148.173, 100.859 147.886, 93.729 145.702 C 81.911 142.083, 79.646 141.749, 75.137 142.963 C 69.515 144.477, 67 148.008, 67.001 154.385 C 67.002 164.678, 75.886 177.850, 85.778 182.226 C 90.068 184.123, 92.201 184.239, 119.927 184.080 C 154.456 183.881, 166.237 182.661, 168.467 179.053 C 169.700 177.058, 167.877 173.998, 163.436 170.607 L 159.011 167.228 153.162 169.590 C 138.026 175.704, 109.501 173.655, 101.742 165.896 C 96.454 160.608, 100.494 157.908, 115.750 156.533 C 122.048 155.965, 124.013 156.229, 130.723 158.545 C 144.815 163.409, 154.178 160.467, 159.550 149.487 C 166.132 136.035, 161.062 116, 151.078 116 C 148.924 116, 146.751 113.978, 139.525 105.250 C 134.630 99.338, 130.220 94.050, 129.725 93.500 C 129.191 92.906, 129.116 98.290, 129.541 106.750" stroke="none" fill="black" fill-rule="evenodd"/>
</svg>