<svg xmlns="http://www.w3.org/2000/svg" width="200" height="200" viewBox="0 0 200 200" version="1.1">
	<path d="M 135.500 12.050 C 133.648 12.896, 88.787 21.198, 70.500 24.077 C 60.435 25.663, 59.263 26.597, 60.821 31.796 C 64.793 45.055, 77.369 51.084, 93.825 47.619 C 99.615 46.400, 101.553 46.328, 103.075 47.279 C 104.134 47.940, 105 48.846, 105 49.293 C 105 49.740, 101.963 51.544, 98.250 53.303 C 92.326 56.109, 90.522 56.490, 83.500 56.417 C 79.100 56.372, 72.575 55.539, 69 54.567 C 57.455 51.429, 48.141 52.511, 44.026 57.468 C 40.750 61.417, 48.909 68.012, 59.434 69.923 C 62.697 70.515, 70.460 71, 76.684 71 C 82.908 71, 88 71.382, 88 71.848 C 88 73.466, 76.433 83.658, 64 92.995 C 48.125 104.917, 39 113.542, 39 116.623 C 39 120.266, 42.039 121.259, 49.262 119.974 C 61.580 117.783, 65.368 116.222, 70.056 111.403 C 77.056 104.208, 81.056 102.493, 90.500 102.636 C 97.133 102.736, 100.892 103.548, 112.500 107.391 C 126.963 112.178, 137 114.150, 137 112.205 C 137 111.038, 135.589 110.528, 129.500 109.498 C 127.300 109.125, 119.200 106.794, 111.500 104.316 C 88.988 97.074, 79.598 98.098, 68.500 109.006 C 63.990 113.439, 62.668 114.119, 55 115.953 C 44.973 118.351, 42 118.502, 42 116.615 C 42 114.534, 52.876 104.796, 68.679 92.729 C 76.437 86.804, 84.633 79.952, 86.892 77.501 C 94.381 69.376, 92.845 68.308, 73 67.838 C 59.330 67.514, 56.949 67.201, 52.831 65.185 C 46.105 61.893, 44.977 60.247, 47.854 57.917 C 51.680 54.819, 56.110 54.628, 67.192 57.081 C 84.259 60.859, 94.623 59.770, 104.400 53.172 L 108.636 50.313 113.863 52.620 C 116.737 53.888, 120.610 55.211, 122.470 55.560 L 125.850 56.195 119.925 68.234 C 113.481 81.329, 112.733 85.411, 115.950 89.930 C 119.253 94.568, 139.262 104.138, 141.331 102.069 C 142.028 101.372, 141.104 100.539, 138.427 99.452 C 128.736 95.518, 121.833 91.923, 119.513 89.604 C 115.524 85.615, 116.175 81.896, 123.499 66.851 C 129.780 53.950, 131.481 49.119, 128.800 51.800 C 126.990 53.610, 122.659 53.250, 116.626 50.788 L 111.206 48.575 117.496 41.781 C 120.956 38.044, 126.190 31.390, 129.128 26.994 C 132.066 22.597, 134.754 19, 135.102 19 C 136.111 19, 142.926 37.525, 144.417 44.318 C 145.434 48.951, 145.712 58.405, 145.525 82.044 C 145.296 111.080, 145.118 113.941, 143.283 118.044 C 139.619 126.237, 136.353 127.468, 122 126.065 C 120.075 125.877, 112.650 126.478, 105.500 127.401 C 97.925 128.378, 81.650 129.304, 66.500 129.618 C 52.200 129.915, 39.253 130.630, 37.730 131.208 C 35.031 132.232, 30 137.304, 30 139 C 30 141.489, 35.424 145.859, 40.491 147.453 C 52.493 151.229, 73.695 150.998, 82.747 146.994 C 86.151 145.488, 90.041 144.856, 97.439 144.606 C 103.924 144.388, 111.587 143.286, 119 141.507 C 125.325 139.989, 133.352 138.691, 136.838 138.623 C 142.463 138.514, 143.403 138.780, 145.192 140.989 C 147.378 143.688, 147.355 145.749, 144.970 161 C 141.397 183.847, 150.972 195.433, 162.812 182.588 C 167.577 177.418, 169.257 174.363, 171.415 166.941 C 172.761 162.311, 173.164 151.875, 173.885 102.954 C 174.359 70.804, 174.390 41.895, 173.955 38.712 C 171.219 18.730, 161.658 8.996, 147.549 11.828 C 144.471 12.446, 142.129 12.482, 141.550 11.921 C 140.384 10.791, 138.150 10.838, 135.500 12.050 M 143 15.602 C 140.525 16.490, 138.402 17.303, 138.282 17.410 C 138.162 17.516, 139.827 22.150, 141.983 27.708 C 147.538 42.034, 149.467 52.377, 148.464 62.456 C 148.024 66.880, 147.792 79.581, 147.949 90.679 C 148.286 114.575, 147.473 119.367, 142.129 124.985 C 137.911 129.419, 132.314 130.774, 125.032 129.126 C 121.750 128.383, 118.031 128.496, 111.032 129.549 C 98.021 131.507, 61.470 133.369, 50.688 132.623 C 41.357 131.977, 38.339 132.758, 34.724 136.753 C 32.224 139.515, 33.399 141.495, 38.958 143.886 C 50.670 148.925, 72.975 148.813, 83 143.666 C 86.479 141.880, 88.181 141.545, 90.500 142.189 C 94.455 143.288, 101.666 142.412, 117.628 138.894 C 124.849 137.302, 133.757 136, 137.424 136 C 143.139 136, 144.436 136.345, 146.505 138.414 C 150.095 142.004, 150.451 145.170, 148.509 156.228 C 144.254 180.452, 150.211 192.088, 160.921 180.470 C 167.975 172.817, 169.165 168.842, 170.043 150 C 170.466 140.925, 170.960 111.675, 171.141 85 C 171.435 41.505, 171.293 35.926, 169.761 30.937 C 167.791 24.521, 164.660 19.543, 160.791 16.678 C 157.181 14.003, 148.859 13.500, 143 15.602 M 104.198 20.856 L 73.896 26.453 83.198 27.678 C 100.819 29.997, 104.732 30.779, 107.362 32.502 C 111.098 34.950, 110.947 39.240, 107.022 42.142 C 104.071 44.324, 104.063 44.356, 106.117 45.794 C 108.049 47.148, 108.555 46.884, 113.632 41.873 C 116.626 38.918, 121.727 32.675, 124.966 28 C 128.206 23.325, 131.860 18.488, 133.086 17.250 C 134.313 16.012, 135.133 15.058, 134.908 15.129 C 134.684 15.200, 120.864 17.777, 104.198 20.856 M 63.022 29.384 C 63.079 32.281, 67.136 39.002, 70.272 41.394 C 74.761 44.817, 82.837 46.509, 90.250 45.578 C 93.412 45.181, 96 44.519, 96 44.107 C 96 43.388, 84.407 36.668, 75 31.934 C 69.508 29.170, 62.990 27.782, 63.022 29.384 M 89.026 36.391 C 99.704 42.338, 100.678 42.689, 103.073 41.457 C 108.670 38.575, 109.093 35.746, 104.204 33.888 C 102.019 33.057, 81.879 30, 78.589 30 C 78.018 30, 82.715 32.876, 89.026 36.391" stroke="none" fill="black" fill-rule="evenodd"/>
</svg>