<svg xmlns="http://www.w3.org/2000/svg" width="200" height="200" viewBox="0 0 200 200" version="1.1">
	<path d="M 129 12.024 C 128.175 12.519, 111.750 14.317, 92.500 16.020 C 73.250 17.722, 56.487 19.364, 55.250 19.666 C 52.896 20.242, 52.083 22.978, 54.250 23.030 C 54.944 23.047, 54.721 23.514, 53.750 24.080 C 51.114 25.616, 51.615 27.529, 55.689 31.487 C 61.869 37.488, 71.330 42.105, 82.250 44.448 C 84.691 44.972, 85 45.486, 85 49.019 C 85 51.209, 84.782 53, 84.515 53 C 84.248 53, 80.242 51.902, 75.613 50.561 C 60.020 46.042, 49.634 46.275, 44.250 51.264 C 40.892 54.375, 41.230 59.174, 45.031 62.373 C 50.641 67.093, 60.253 68.236, 71.500 65.520 C 79.389 63.615, 79 63.523, 79 67.304 C 79 74.295, 73.179 80.590, 48.958 99.794 C 33.719 111.877, 30.562 116.156, 33.536 120.695 C 37.232 126.336, 39.062 125.751, 67 110 C 81.297 101.940, 86.835 100, 95.547 100 C 100.608 100, 102.982 100.628, 108.616 103.460 C 112.402 105.363, 117.212 108.341, 119.303 110.077 C 122.609 112.820, 123.067 113.709, 122.803 116.867 L 122.500 120.500 100.500 120.549 C 82.653 120.588, 77.378 120.925, 72.559 122.336 C 61.811 125.481, 58.030 128.463, 61.017 131.441 C 64.388 134.800, 89.985 138.500, 98.500 136.858 C 100.700 136.434, 107.112 136.068, 112.750 136.044 L 123 136 123 147.375 C 123 153.631, 123.237 160.044, 123.527 161.625 C 123.817 163.206, 123.616 165.164, 123.079 165.975 C 121.658 168.124, 115.541 164.856, 105 156.313 C 91.691 145.526, 87.530 142.834, 83.900 142.659 C 81.178 142.529, 80.334 143.005, 79.210 145.303 C 78.034 147.709, 78.071 149.246, 79.474 156.166 C 80.372 160.599, 80.970 164.327, 80.803 164.450 C 80.637 164.573, 77.246 165.236, 73.268 165.924 C 60.571 168.121, 55.782 173.473, 62.193 178.303 C 71.705 185.469, 95.694 187.621, 109.836 182.575 C 113.141 181.396, 115.160 181.257, 118.336 181.990 C 124.749 183.470, 144.652 183.170, 151.800 181.485 C 162.260 179.019, 169 174.675, 169 170.398 C 169 167.056, 162.945 162.621, 154.685 159.912 C 150.733 158.617, 146.950 157.162, 146.279 156.680 C 143.671 154.808, 139 143.679, 139 139.340 L 139 135 143.750 134.992 C 150.683 134.981, 161.156 133.111, 163.750 131.420 C 168.379 128.403, 165.386 123.944, 154.750 118.015 C 149.160 114.899, 147.522 113, 150.423 113 C 155.444 113, 163.650 99.453, 166.565 86.353 C 168.374 78.222, 168.106 67.471, 165.939 61.256 C 164.978 58.500, 165.139 57.344, 167.025 53.448 C 168.933 49.507, 169.177 47.676, 168.795 40.188 C 168.426 32.962, 167.826 30.471, 165.229 25.383 C 160.381 15.887, 154.786 12.067, 147.680 13.400 C 144.486 13.999, 139.362 18.422, 137.261 22.394 C 136.419 23.987, 135.960 23.285, 134.375 17.975 C 132.427 11.452, 131.558 10.490, 129 12.024 M 100.827 17.879 C 85.607 19.320, 72.885 20.772, 72.556 21.104 C 72.227 21.437, 75.455 22.005, 79.729 22.368 C 84.003 22.730, 89.891 23.662, 92.813 24.439 C 102.978 27.143, 105.003 30.202, 100.987 36.790 L 98.981 40.080 101.740 42.499 C 103.258 43.830, 105.228 44.700, 106.118 44.434 C 108.069 43.849, 113.164 45.661, 114.214 47.313 C 114.630 47.966, 114.976 50.868, 114.985 53.762 C 114.998 58.357, 115.602 59.929, 119.744 66.159 L 124.488 73.293 125.240 68.397 C 127.883 51.173, 129.201 44.489, 131.528 36.500 C 134.126 27.578, 134.134 27.446, 132.463 21.250 C 131.536 17.813, 130.265 15.058, 129.639 15.129 C 129.013 15.199, 116.047 16.437, 100.827 17.879 M 144.033 18.626 C 142.317 20.070, 140.071 22.901, 139.043 24.916 C 137.222 28.485, 137.221 28.816, 139.007 37.541 C 142.080 52.554, 142.939 64.255, 142.366 83.311 C 141.834 100.971, 141.887 101.631, 144.159 106 C 146.957 111.379, 148.748 111.924, 152.700 108.599 C 162.425 100.416, 167.913 76.119, 163.150 62.334 C 161.436 57.375, 161.436 57.075, 163.150 54.834 C 167.889 48.639, 167.646 36.156, 162.593 26.183 C 157.584 16.300, 150.315 13.340, 144.033 18.626 M 65.688 25.905 C 68.542 26.967, 75.292 29.862, 80.688 32.339 C 93.164 38.064, 96.406 38.686, 98.466 35.746 C 99.310 34.541, 100 32.732, 100 31.726 C 100 28.143, 89.153 25.425, 71.230 24.517 L 60.500 23.974 65.688 25.905 M 55.886 27.787 C 57.532 30.863, 67.560 37.047, 75.221 39.712 C 82.750 42.330, 86.310 42.391, 86.783 39.909 C 86.998 38.779, 84.765 37.257, 79.093 34.664 C 68.685 29.907, 62.289 27.419, 58.162 26.525 C 55.056 25.853, 54.898 25.940, 55.886 27.787 M 133.621 39 C 131.877 44.637, 128.693 62.184, 127.634 72.001 C 127.057 77.350, 127.203 77.774, 132.880 87.299 L 138.719 97.095 139.408 80.297 C 140.071 64.127, 138.935 49.097, 136.134 37 L 135.324 33.500 133.621 39 M 91.033 43.887 C 88.276 44.655, 86.738 49.438, 87.700 54.250 C 88.025 55.877, 87.814 57, 87.182 57 C 86.594 57, 81.995 55.620, 76.962 53.934 C 65.153 49.978, 55.633 49.105, 49.567 51.421 C 44.059 53.525, 42.902 56.202, 46.053 59.556 C 47.285 60.868, 49.876 62.464, 51.809 63.102 C 56.247 64.567, 69.985 63.725, 75.740 61.635 C 79.819 60.154, 80.024 60.176, 81.104 62.194 C 83.142 66.002, 81.579 72.551, 77.275 78.246 C 73.309 83.491, 68.538 87.707, 49.302 102.959 C 35.254 114.097, 32.658 118.141, 37.791 120.888 C 39.349 121.722, 43.126 120.009, 58.597 111.455 C 68.994 105.707, 80.371 100.047, 83.881 98.877 C 95.414 95.032, 107.156 97.571, 119 106.469 L 122.500 109.099 122.810 104.991 C 123.072 101.534, 122.698 100.550, 120.453 98.784 C 112.020 92.151, 109.536 86.901, 109.674 76 C 109.732 71.325, 110.233 65.585, 110.785 63.245 C 111.767 59.086, 111.681 58.850, 106.932 52.698 C 104.201 49.161, 100.510 45.660, 98.503 44.703 C 94.646 42.864, 94.688 42.868, 91.033 43.887 M 108.568 50.500 C 111.789 54.723, 113.480 55.048, 112.529 51.260 C 111.768 48.229, 110.414 47.038, 107.699 47.015 C 106.133 47.002, 106.246 47.455, 108.568 50.500 M 113.310 64.556 C 112.884 65.625, 112.527 70.550, 112.517 75.500 C 112.502 83.502, 112.801 85.011, 115.209 89.108 C 116.699 91.643, 119.004 94.428, 120.331 95.298 C 122.742 96.877, 122.745 96.875, 123.372 92.300 C 124.921 81.001, 124.341 78.019, 119.041 70.056 C 114.842 63.747, 113.968 62.908, 113.310 64.556 M 126.648 86.184 C 125.356 91.008, 125.927 98.860, 127.640 99.819 C 128.543 100.324, 128.962 101.253, 128.571 101.885 C 128.181 102.516, 127.443 102.774, 126.931 102.457 C 125.560 101.610, 125.785 112.385, 127.167 113.767 C 128.057 114.657, 127.938 115.087, 126.667 115.574 C 125.750 115.926, 125 116.985, 125 117.928 C 125 119.446, 125.966 119.591, 133.484 119.196 C 144.449 118.621, 144.652 118.975, 140.191 130.909 C 139.753 132.081, 141.162 132.220, 148.582 131.735 C 158.452 131.090, 163 129.789, 163 127.611 C 163 125.864, 153.752 120, 150.998 120 C 148.771 120, 147.436 118.057, 136.362 98.705 C 132.206 91.442, 128.460 85.133, 128.037 84.684 C 127.614 84.235, 126.989 84.910, 126.648 86.184 M 132.500 121.674 C 124.925 122.619, 124.867 122.667, 125.197 127.782 C 125.490 132.344, 125.612 132.511, 128.888 132.824 C 134.780 133.386, 136.579 132.390, 138.431 127.540 C 139.375 125.069, 139.863 122.587, 139.515 122.024 C 138.883 121.002, 138.168 120.967, 132.500 121.674 M 86.877 122.969 C 77.733 123.893, 69.567 125.728, 65.561 127.757 L 62.623 129.246 65.061 130.520 C 71.015 133.630, 88.194 134.774, 109.750 133.497 L 123 132.713 123 128.060 L 123 123.407 116.750 123.454 C 113.313 123.479, 106.900 123.207, 102.500 122.849 C 98.100 122.492, 91.070 122.546, 86.877 122.969 M 125.890 135.750 C 125.829 136.162, 125.870 143.289, 125.981 151.587 C 126.154 164.498, 125.943 166.914, 124.520 168.337 C 123.605 169.252, 122.320 170, 121.664 170 C 119.148 170, 112.057 165.385, 100.535 156.249 C 87.639 146.023, 84.982 144.409, 82.564 145.337 C 80.527 146.119, 80.601 148.766, 82.929 158.496 C 83.981 162.893, 84.697 166.637, 84.519 166.814 C 84.342 166.991, 80.890 167.585, 76.848 168.132 C 68.749 169.230, 62.500 171.739, 62.500 173.892 C 62.500 180.993, 92.734 185.198, 107.926 180.210 C 111.461 179.049, 114.651 178.285, 115.016 178.510 C 115.381 178.736, 119.802 179.421, 124.840 180.034 C 144.045 182.369, 168.195 176.162, 165.655 169.543 C 164.770 167.236, 159.277 164.194, 151.900 161.926 C 147.329 160.520, 144.679 159.057, 143.282 157.167 C 139.431 151.958, 136.826 145.716, 136.275 140.372 L 135.720 135 130.860 135 C 128.187 135, 125.950 135.338, 125.890 135.750" stroke="none" fill="black" fill-rule="evenodd"/>
</svg>