<svg xmlns="http://www.w3.org/2000/svg" width="200" height="200" viewBox="0 0 200 200" version="1.1">
	<path d="M 65.657 12.486 C 63.313 14.830, 63.584 16.964, 66.872 22.054 C 71.184 28.727, 73.398 30.639, 78.948 32.483 C 82.501 33.663, 84 34.690, 84 35.944 C 84 37.495, 82.654 37.817, 73.647 38.421 C 40.764 40.623, 37.337 48.470, 66.653 54.434 C 73.485 55.823, 75.895 55.903, 81.518 54.923 C 87.062 53.958, 88.382 53.993, 89.100 55.127 C 91.226 58.484, 89.892 59.728, 78.250 65.248 C 64.335 71.846, 54.705 75.403, 42.647 78.401 L 33.795 80.602 36.516 83.837 C 43.810 92.505, 51.212 92.280, 82.415 82.442 C 88.418 80.549, 93.640 79, 94.019 79 C 94.730 79, 97 91.221, 97 95.052 C 97 97.123, 96.679 97.196, 89.750 96.699 C 85.763 96.413, 78.900 95.645, 74.500 94.992 C 64.195 93.462, 39.811 94.273, 30.354 96.460 C 18.987 99.089, 16.990 103.339, 25.378 107.049 C 29.460 108.855, 50.378 113, 55.408 113 C 56.623 113, 58.322 113.562, 59.183 114.250 C 60.597 115.380, 60.558 116.290, 58.770 123.704 C 56.836 131.725, 56.833 131.993, 58.646 135.704 C 60.048 138.575, 61.475 139.827, 64.500 140.841 C 69.173 142.408, 79.970 141.807, 90 139.422 C 94.016 138.467, 98.219 138.120, 101 138.514 C 108.193 139.533, 118 142.168, 118 143.083 C 118 147.471, 73.039 148.632, 58.016 144.632 C 54.999 143.829, 52.249 143.346, 51.903 143.560 C 50.314 144.542, 48.805 153.548, 49.165 159.906 C 49.492 165.701, 50.079 167.651, 52.556 171.175 C 61.475 183.866, 79.111 189.702, 105.500 188.696 C 144.156 187.222, 151.775 186.157, 154.047 181.912 C 155.613 178.986, 152.915 175.292, 147.447 172.873 C 135.575 167.622, 115.709 168.090, 101.845 173.947 L 94.500 177.050 90.250 172.583 C 85.503 167.594, 84.844 164.546, 88.250 163.335 C 89.487 162.895, 101.525 162.528, 115 162.518 C 137.484 162.501, 139.828 162.335, 143.486 160.500 C 151.634 156.412, 151.764 150.423, 143.933 140.021 C 137.818 131.901, 135.844 127.502, 136.196 122.783 C 136.625 117.027, 139.104 115.574, 155.236 111.617 C 171.978 107.511, 179.109 104.213, 183.073 98.741 C 186.670 93.776, 186.747 92.765, 183.435 94.025 C 182.024 94.561, 178.406 95, 175.395 95 C 168.753 95, 163.610 92.594, 158.957 87.309 L 155.603 83.500 158.552 83.226 C 164.307 82.690, 166 81.981, 166 80.103 C 166 77.659, 164.889 76.824, 155.408 72.142 L 147.413 68.194 144.798 61.604 C 143.319 57.874, 142.429 54.074, 142.749 52.850 C 143.126 51.410, 142.943 50.917, 142.201 51.376 C 141.514 51.800, 139.900 49.670, 137.988 45.818 C 136.284 42.382, 134.372 38.948, 133.740 38.187 C 132.407 36.581, 135.544 37.776, 145.222 42.560 C 148.369 44.116, 151.264 45.069, 151.655 44.678 C 152.893 43.441, 150.813 42.209, 134.464 34.499 L 118.500 26.971 118.394 23.512 C 118.157 15.734, 113.687 13.810, 93.500 12.797 C 84.700 12.355, 75.208 11.732, 72.407 11.411 C 68.441 10.957, 66.948 11.195, 65.657 12.486 M 67 15.741 C 67 19.092, 73.762 27.512, 77.553 28.883 C 79.531 29.598, 81.387 29.946, 81.678 29.656 C 82.436 28.898, 77.917 15.643, 76.602 14.765 C 75.996 14.361, 73.588 14.024, 71.250 14.015 C 67.871 14.003, 67 14.357, 67 15.741 M 91.038 15.317 C 91.333 15.642, 96.698 17.967, 102.958 20.483 C 110.954 23.697, 114.656 24.744, 115.398 24.002 C 116.935 22.465, 115.048 19.842, 110.931 17.791 C 107.762 16.212, 89.824 13.981, 91.038 15.317 M 81.409 17.750 C 81.708 18.712, 82.764 22.183, 83.755 25.461 C 85.474 31.145, 85.744 31.463, 89.529 32.288 C 95.127 33.509, 104.290 32.403, 109.158 29.919 L 113.292 27.810 109.109 25.937 C 103.292 23.333, 83.241 16, 81.937 16 C 81.348 16, 81.110 16.788, 81.409 17.750 M 113 30.894 C 108.884 33.919, 102.951 35.337, 94.750 35.254 C 88.705 35.193, 87 35.486, 87 36.588 C 87 37.728, 89.387 38, 99.400 38 L 111.799 38 116.847 34.603 C 120.621 32.063, 121.467 31.082, 120.198 30.716 C 119.264 30.447, 117.825 29.963, 117 29.641 C 116.175 29.319, 114.375 29.883, 113 30.894 M 120.500 35.403 C 118.850 36.131, 116.614 37.720, 115.532 38.933 C 113.709 40.977, 112.748 41.128, 102.532 40.986 C 88.642 40.793, 88.999 40.760, 89.006 42.250 C 89.023 46.092, 91.228 51, 92.936 51 C 93.949 51, 95.776 51.808, 96.996 52.796 L 99.214 54.592 96.478 57.844 L 93.742 61.096 95.171 67.796 L 96.600 74.497 108.550 74.506 C 119.399 74.515, 121.007 74.759, 126 77.156 C 130.132 79.139, 133.800 79.964, 140.750 80.473 C 146.965 80.928, 150 80.806, 150 80.102 C 150 77.128, 145.400 69.994, 142.784 68.910 C 138.045 66.948, 132.321 62.336, 131.707 59.986 C 131.125 57.763, 134.024 53.825, 136.965 52.845 C 139.086 52.138, 131.352 38.186, 127.557 35.871 C 123.978 33.689, 124.329 33.713, 120.500 35.403 M 60.729 42.559 C 55.905 43.310, 51.216 44.339, 50.308 44.848 C 48.893 45.639, 49.075 45.984, 51.579 47.261 C 57.562 50.312, 72.900 53.170, 79.500 52.463 C 88.076 51.545, 88.354 51.291, 86.935 45.658 L 85.763 41 77.631 41.097 C 73.159 41.150, 65.553 41.808, 60.729 42.559 M 92.192 55.075 C 92.389 55.666, 92.977 56.150, 93.500 56.150 C 94.023 56.150, 94.611 55.666, 94.808 55.075 C 95.005 54.484, 94.417 54, 93.500 54 C 92.583 54, 91.995 54.484, 92.192 55.075 M 136.223 56.557 C 135 57.413, 134 58.535, 134 59.050 C 134 60.390, 142.400 66.299, 142.762 65.214 C 143.053 64.342, 139.391 55, 138.758 55 C 138.586 55, 137.445 55.701, 136.223 56.557 M 83 66.114 C 72.890 71.226, 56.349 77.679, 46.813 80.231 C 42.516 81.381, 39 82.688, 39 83.135 C 39 83.583, 40.462 84.709, 42.250 85.637 C 47.423 88.326, 55.818 87.654, 69.500 83.456 C 76.100 81.431, 83.975 79.081, 87 78.233 C 90.025 77.385, 92.849 76.389, 93.277 76.019 C 94.041 75.357, 92.372 65.538, 91.134 63.411 C 90.722 62.703, 87.875 63.649, 83 66.114 M 152 77 C 154.124 81.163, 155.558 81.653, 161 80.076 C 163.313 79.405, 163.034 79.113, 157.279 76.176 C 153.857 74.429, 150.810 73, 150.508 73 C 150.206 73, 150.878 74.800, 152 77 M 99.431 77.629 C 97.401 78.083, 97.388 78.260, 98.735 86.767 C 99.491 91.539, 100.296 95.629, 100.523 95.857 C 100.910 96.244, 105.420 95.718, 138.271 91.452 C 152.304 89.630, 156 89.954, 156 93.007 C 156 95.222, 151.076 98.665, 142.454 102.478 C 137.208 104.798, 136.220 104.897, 124.145 104.320 C 115.475 103.905, 109.731 104.105, 106.238 104.943 C 101.106 106.174, 101.095 106.186, 100.467 110.838 C 99.107 120.919, 96.859 124.725, 92.991 123.497 C 87.534 121.765, 88.480 112.223, 94.609 107.170 C 97.148 105.078, 98.074 103.585, 97.835 101.968 C 97.527 99.883, 96.939 99.686, 90.500 99.503 C 86.650 99.394, 80.800 98.788, 77.500 98.158 C 64.713 95.715, 34.226 97.192, 26.011 100.652 C 22.783 102.011, 22.644 102.237, 24.288 103.453 C 26.718 105.251, 36.286 107.544, 49.456 109.484 C 55.482 110.371, 60.995 111.581, 61.706 112.171 C 63.427 113.600, 63.354 116.096, 61.338 124.718 C 59.379 133.093, 60.204 136.346, 64.738 138.123 C 68.196 139.478, 81.128 138.664, 90.342 136.512 C 96.620 135.045, 97.894 135.047, 105.790 136.526 C 117.657 138.750, 121.232 140.344, 120.822 143.229 C 120.573 144.987, 119.257 145.924, 115 147.377 C 106.960 150.121, 77.083 150.848, 64.250 148.612 C 59.162 147.725, 54.581 147, 54.070 147 C 53.560 147, 52.622 149.504, 51.987 152.564 C 48.779 168.017, 59.449 179.739, 81 184.439 C 90.725 186.561, 102.188 186.781, 125 185.286 C 148.246 183.762, 154.197 182.086, 150.575 178.083 C 147.784 174.999, 140.335 172.912, 129.912 172.295 C 118.499 171.619, 107.821 173.623, 99.490 178.005 L 94.078 180.852 88.539 174.869 C 84.462 170.465, 83 168.119, 83 165.978 C 83 160.910, 84.881 160.549, 114.179 160 C 139.325 159.529, 141.020 159.379, 143.679 157.394 C 148.551 153.757, 148.146 150.196, 141.926 141.984 C 132.841 129.988, 130.730 121.116, 135.764 116.082 C 138.784 113.062, 143.515 111.339, 158 107.985 C 167.835 105.707, 176.891 102.041, 179.020 99.476 C 180.071 98.209, 179.554 97.999, 175.372 97.990 C 168.386 97.976, 161.248 94.339, 156.005 88.121 L 151.687 83 141.310 83 C 132.008 83, 130.393 82.722, 125.717 80.311 C 121.280 78.024, 119.080 77.588, 111 77.394 C 105.775 77.268, 100.569 77.374, 99.431 77.629 M 143 93.544 C 142.175 93.715, 132.162 95.090, 120.750 96.598 C 101.750 99.109, 100 99.505, 100 101.298 C 100 103.072, 100.398 103.173, 104.250 102.378 C 106.588 101.896, 115.250 101.501, 123.500 101.501 L 138.500 101.500 145.750 97.737 C 149.738 95.668, 153 93.756, 153 93.487 C 153 92.972, 145.548 93.014, 143 93.544 M 95.186 110.302 C 92.628 113.025, 91.526 117.898, 92.992 120 C 93.908 121.313, 94.206 121.281, 95.384 119.744 C 96.625 118.125, 98.436 109.103, 97.674 108.341 C 97.491 108.158, 96.371 109.040, 95.186 110.302" stroke="none" fill="black" fill-rule="evenodd"/>
</svg>