<svg xmlns="http://www.w3.org/2000/svg" width="200" height="200" viewBox="0 0 200 200" version="1.1">
	<path d="M 91.914 11.896 C 90.491 12.360, 88.145 13.514, 86.701 14.461 C 84.456 15.931, 83.334 16.023, 78.988 15.091 C 62.528 11.561, 58.161 16.809, 70.203 25.649 C 72.841 27.586, 75 29.290, 75 29.436 C 75 29.582, 74.506 31.119, 73.902 32.851 L 72.804 36 65.370 36 C 54.094 36, 49 38.890, 49 45.288 C 49 50.163, 56.578 55.679, 64.903 56.864 L 69.500 57.519 69.790 64.573 L 70.080 71.628 56.290 76.933 C 48.706 79.851, 39.456 83.819, 35.736 85.751 C 27.924 89.807, 28.014 91.036, 36.301 93.497 C 43.283 95.570, 51.249 95.378, 60.590 92.911 C 71.925 89.917, 71.408 89.811, 72.040 95.250 L 72.592 100 57.546 100.020 C 40.599 100.042, 30.197 101.244, 25.017 103.779 C 17.534 107.441, 21.176 112.609, 34.993 117.937 L 43.022 121.033 52.761 119.063 C 58.117 117.980, 65.419 116.960, 68.988 116.797 L 75.475 116.500 77.054 123.500 C 77.923 127.350, 79.427 132.260, 80.398 134.412 C 84.306 143.077, 79.588 149.825, 58.785 165.327 C 44.336 176.093, 41.171 179.397, 42.353 182.478 C 43.096 184.413, 48.918 187, 52.532 187 C 53.960 187, 63.949 182.493, 74.729 176.984 C 97.003 165.601, 101.460 163.863, 108.549 163.791 C 116.925 163.707, 123.164 168.471, 128.519 179.037 L 131.034 184 140.074 184 C 155.522 184, 162.044 181.008, 160.449 174.652 C 159.045 169.059, 143.693 156.711, 124.351 145.616 C 118.104 142.032, 116.047 140.307, 115.538 138.221 C 113.656 130.513, 105.144 123.937, 95.015 122.365 L 90.530 121.669 100.515 118.209 C 114.181 113.473, 130.727 112.250, 142 115.143 C 164.302 120.866, 178.232 117.222, 176.734 106.057 C 175.451 96.485, 164.709 90.476, 155.886 94.393 C 154.618 94.956, 154.052 94.247, 153.252 91.094 C 152.241 87.111, 152.259 87.069, 155.566 85.978 C 158.717 84.938, 165 78.979, 165 77.030 C 165 72.348, 158.256 67.017, 152.290 66.985 C 148.265 66.963, 147.387 66.088, 145.780 60.500 C 144.557 56.248, 144.547 55.126, 145.713 53 C 147.726 49.327, 146.739 42.657, 143.566 38.497 C 140.536 34.525, 133.595 30.558, 131.250 31.457 C 130.395 31.786, 128.268 31.583, 126.523 31.008 C 123.782 30.103, 123.409 29.576, 123.769 27.121 C 124.321 23.360, 119.452 17.771, 112.590 14.288 C 107.132 11.517, 96.754 10.317, 91.914 11.896 M 92 14.713 C 87.230 16.479, 88.513 17.335, 103.787 22.573 C 112.429 25.536, 119.838 27.970, 120.250 27.981 C 122.009 28.026, 120.785 24.055, 118.250 21.493 C 113.725 16.918, 106.359 14.010, 99.500 14.089 C 96.200 14.127, 92.825 14.408, 92 14.713 M 67.040 16.941 C 65.791 17.742, 65.854 18.181, 67.474 19.971 C 69.505 22.216, 75.927 26.467, 76.376 25.864 C 78.209 23.404, 81 19.084, 81 18.707 C 81 18.441, 79.313 17.932, 77.250 17.577 C 75.188 17.222, 72.375 16.723, 71 16.468 C 69.625 16.212, 67.843 16.425, 67.040 16.941 M 81.391 23.554 C 78.052 27.932, 78.593 28.618, 88.456 32.494 C 96.500 35.656, 104.018 36.895, 108.976 35.875 C 112.576 35.135, 116.676 31.261, 115.290 29.910 C 114.145 28.793, 88.091 20, 85.928 20 C 84.923 20, 82.882 21.599, 81.391 23.554 M 76.422 33.456 C 76.058 34.906, 76.007 36.340, 76.309 36.642 C 77.830 38.163, 92.172 40.988, 97.932 40.900 C 108.151 40.745, 110.946 39.468, 102.500 38.813 C 96.510 38.348, 88.748 35.956, 78.292 31.350 C 77.586 31.039, 76.809 31.914, 76.422 33.456 M 116.642 34.424 C 115.768 35.757, 114.107 37.149, 112.951 37.515 C 111.795 37.882, 111.050 38.383, 111.295 38.628 C 111.540 38.873, 113.936 38.228, 116.620 37.195 C 119.304 36.162, 122.387 34.996, 123.472 34.604 C 125.124 34.008, 125.205 33.742, 123.972 32.962 C 121.370 31.316, 118.273 31.934, 116.642 34.424 M 135 35.560 C 135 35.907, 135.894 37.447, 136.986 38.981 C 138.079 40.515, 139.863 43.847, 140.951 46.385 C 142.039 48.923, 143.228 51, 143.595 51 C 145.253 51, 143.078 41.711, 140.866 39.346 C 138.364 36.671, 135 34.500, 135 35.560 M 115.500 40.195 C 104.424 44.283, 95.925 44.803, 84.573 42.088 C 79.664 40.914, 75.300 40.301, 74.876 40.727 C 74.452 41.152, 73.791 44.570, 73.407 48.323 L 72.709 55.145 76.604 54.481 C 78.747 54.116, 81.963 53.445, 83.750 52.989 C 86.240 52.355, 87 52.482, 87 53.534 C 87 55.080, 81.123 56.986, 76.329 56.994 C 73.642 56.999, 73.061 57.444, 72.518 59.916 C 72.166 61.520, 72.183 64.459, 72.556 66.446 C 73.337 70.608, 73.533 70.597, 83.606 65.862 C 92.156 61.842, 97.968 57.391, 99.170 53.941 C 99.734 52.324, 100.602 51, 101.098 51 C 102.766 51, 102.019 55.706, 99.930 58.362 C 97.507 61.442, 86.952 67.771, 78.750 71.061 L 73 73.368 73 78.102 C 73 86.187, 72.972 86.175, 83.265 82.349 C 103.277 74.909, 111.992 74.168, 122.951 78.978 C 131.159 82.581, 140.091 85, 145.185 85 C 148.899 85, 148.941 84.956, 148.304 81.750 C 147.948 79.963, 147.133 76.475, 146.492 74 L 145.327 69.500 138.913 69.799 C 135.386 69.963, 129.660 70.751, 126.188 71.549 C 118.545 73.306, 119 73.300, 119 71.650 C 119 70.907, 121.995 68.779, 125.656 66.921 C 129.317 65.063, 134.356 61.691, 136.855 59.429 L 141.398 55.316 139.148 49.435 C 137.910 46.201, 135.773 42.080, 134.398 40.277 C 132.233 37.438, 131.337 37.016, 127.699 37.121 C 125.390 37.188, 119.900 38.571, 115.500 40.195 M 58.982 39.216 C 56.675 39.610, 54.160 40.452, 53.393 41.089 C 51.264 42.856, 51.731 46.822, 54.380 49.471 C 56.482 51.573, 65.276 55, 68.566 55 C 69.285 55, 70.047 52.682, 70.459 49.250 C 70.838 46.087, 71.377 42.536, 71.656 41.357 C 72.108 39.445, 71.680 39.176, 67.670 38.857 C 65.199 38.661, 61.290 38.822, 58.982 39.216 M 138.485 61.779 C 136.827 63.276, 134.373 65.216, 133.033 66.090 C 130.714 67.603, 130.902 67.645, 136.863 66.942 C 140.310 66.535, 143.329 66.004, 143.572 65.761 C 144.199 65.134, 142.879 58.994, 142.125 59.029 C 141.781 59.045, 140.143 60.283, 138.485 61.779 M 148.318 70.385 C 148.640 71.225, 149.470 74.656, 150.163 78.011 C 151.342 83.720, 151.576 84.072, 153.816 83.510 C 159.371 82.116, 163.436 77.132, 161.531 74.050 C 160.525 72.423, 155.936 70.346, 151.616 69.563 C 148.372 68.975, 147.828 69.110, 148.318 70.385 M 54 80.849 C 46.025 84.022, 38.186 87.319, 36.581 88.175 L 33.662 89.733 37.489 90.996 C 42.856 92.768, 56.910 91.718, 64.868 88.951 L 71.236 86.737 70.618 82.229 C 70.278 79.749, 70 77.109, 70 76.360 C 70 75.612, 69.662 75.018, 69.250 75.040 C 68.838 75.062, 61.975 77.676, 54 80.849 M 101.500 79.435 C 95.057 80.914, 75.985 87.615, 74.775 88.825 C 74.372 89.228, 74.328 91.978, 74.679 94.935 L 75.316 100.312 101.908 99.644 C 127.118 99.011, 149.735 97.598, 150.740 96.594 C 150.992 96.341, 150.906 94.401, 150.548 92.282 L 149.897 88.429 141.453 87.278 C 136.087 86.546, 129.998 84.833, 124.746 82.577 C 114.841 78.323, 109.494 77.600, 101.500 79.435 M 157.222 97.526 C 156.519 98.324, 154.719 99.234, 153.222 99.548 C 151.725 99.863, 144.120 102.456, 136.323 105.310 L 122.146 110.500 131.323 111.096 C 136.370 111.423, 143.425 112.429, 147 113.331 C 161.784 117.060, 174 114.632, 174 107.965 C 174 101.179, 168.661 95.959, 161.800 96.038 C 159.985 96.059, 157.925 96.729, 157.222 97.526 M 114 102.044 C 104.925 102.418, 92.657 102.786, 86.738 102.862 L 75.976 103 76.616 107.250 C 76.968 109.588, 77.536 111.791, 77.878 112.147 C 78.220 112.503, 86.375 112.432, 96 111.989 L 113.500 111.183 125.459 106.549 C 132.036 104.001, 137.624 101.709, 137.876 101.458 C 138.127 101.206, 136.571 101.082, 134.417 101.182 C 132.262 101.282, 123.075 101.670, 114 102.044 M 42.250 103.057 C 31.003 104.110, 25.087 105.609, 24.323 107.600 C 23.532 109.662, 26.162 111.435, 35.341 115.026 L 43.181 118.095 50.902 116.520 C 55.149 115.654, 62.112 114.554, 66.375 114.076 C 70.639 113.598, 74.284 113.048, 74.477 112.853 C 75.011 112.313, 73.350 104.017, 72.546 103.210 C 71.497 102.158, 52.863 102.064, 42.250 103.057 M 79.380 115.619 C 77.971 116.199, 80.203 127.563, 82.653 132.284 C 85.492 137.751, 84.850 143.248, 80.663 149.328 C 76.866 154.841, 71.424 159.566, 54.750 171.827 C 49.388 175.770, 45 179.683, 45 180.523 C 45 182.242, 48.860 184, 52.634 184 C 54.011 184, 63.544 179.671, 73.819 174.380 C 95.458 163.237, 101.289 161, 108.696 161 C 117.829 161, 125.330 166.451, 130.315 176.711 L 132.496 181.200 143.718 180.844 C 157.020 180.422, 159.197 179.305, 157.010 174.025 C 154.867 168.850, 138.572 156.570, 120.262 146.330 C 115.670 143.762, 113.827 142.113, 113.369 140.162 C 112.240 135.358, 108.903 131.028, 104.212 128.279 C 100.311 125.992, 98.163 125.512, 90.299 125.168 C 77.369 124.603, 77.714 123.518, 92.478 118.329 L 101.500 115.157 91 115.157 C 85.225 115.158, 79.996 115.365, 79.380 115.619" stroke="none" fill="black" fill-rule="evenodd"/>
</svg>