<svg xmlns="http://www.w3.org/2000/svg" width="200" height="200" viewBox="0 0 200 200" version="1.1">
	<path d="M 127 10.671 C 124.525 10.885, 109.320 12.846, 93.211 15.030 C 77.102 17.213, 62.380 19, 60.496 19 C 56.569 19, 54.458 21.705, 55.414 25.513 C 56.309 29.081, 64.031 36.205, 71.066 39.954 C 78.846 44.101, 89.106 45.236, 95.324 42.638 C 98.821 41.177, 99.343 41.179, 101.600 42.658 C 102.954 43.545, 103.899 44.435, 103.699 44.635 C 103.498 44.835, 98.872 45.671, 93.417 46.493 C 81.297 48.320, 63.829 48.377, 54.747 46.619 L 47.995 45.312 43.971 48.757 C 41.758 50.651, 39.293 53.466, 38.493 55.013 C 37.189 57.535, 37.218 58.047, 38.769 59.962 C 41.276 63.056, 46.656 63.949, 63 63.982 C 85.271 64.027, 89.006 65.898, 80.841 72.922 C 78.553 74.890, 72.815 80.159, 68.091 84.631 C 63.366 89.103, 54.657 96.884, 48.737 101.922 C 36.599 112.253, 31.982 118.068, 33.994 120.493 C 35.878 122.763, 43.006 122.357, 54.231 119.340 L 64.128 116.681 66.562 111.877 C 69.548 105.985, 74.362 100.381, 78.099 98.449 C 83.981 95.407, 89.578 96.498, 104 103.500 C 117.929 110.262, 122.219 111.224, 127.570 108.786 C 129.932 107.710, 130.445 107.831, 132.083 109.854 C 133.584 111.708, 133.709 112.492, 132.751 114.028 C 131.643 115.801, 132.324 120.180, 136.155 135.918 C 136.382 136.851, 135.171 137.666, 132.620 138.298 C 126.976 139.698, 119.737 137.750, 110.415 132.323 C 95.759 123.793, 85.936 119, 83.107 119 C 79.261 119, 73.909 122.805, 71.512 127.243 C 69.641 130.708, 69.621 131.089, 71.166 133.712 C 74.012 138.546, 75.871 147.025, 77.430 162.289 C 79.687 184.373, 82.616 189.525, 92.881 189.469 C 97.327 189.444, 100.262 188.622, 106.523 185.646 L 114.500 181.855 134 181.929 C 160.102 182.027, 166.589 180.455, 172.438 172.612 C 175.487 168.523, 175.181 160.173, 171.705 152.629 C 169.570 147.996, 168.999 145.256, 168.994 139.629 C 168.986 129.070, 167.425 121.082, 164.833 118.322 C 162.716 116.069, 162.196 115.989, 153.806 116.622 C 143.962 117.365, 144.332 117.676, 145.639 109.769 L 146.256 106.037 149.242 108.550 C 151.310 110.290, 152.884 110.866, 154.364 110.423 C 157.992 109.336, 163.398 103.336, 167.362 95.997 C 170.914 89.419, 171.075 88.756, 169.941 85.322 C 169.109 82.801, 168.939 78.210, 169.394 70.580 C 171.649 32.782, 171.440 29.403, 166.377 21.674 C 163.428 17.171, 155.452 13.025, 149.713 13.010 L 145.926 13 146.622 30.150 L 147.318 47.301 144.047 45.400 C 139.394 42.697, 134.137 36.248, 133.405 32.344 C 132.581 27.952, 133.407 24.994, 137.161 18.894 C 139.823 14.566, 140.069 13.640, 138.871 12.443 C 137.188 10.760, 133.078 10.146, 127 10.671 M 124.500 13.654 C 122.850 13.849, 110.738 15.457, 97.585 17.227 L 73.669 20.445 84.533 22.229 C 102.242 25.138, 107.728 29.181, 103.637 36.310 C 102.014 39.137, 102.036 39.304, 104.303 41.405 C 105.593 42.600, 108.494 44.131, 110.750 44.807 C 113.087 45.507, 116.006 47.407, 117.534 49.223 C 119.796 51.911, 120.128 53.053, 119.653 56.517 C 119.343 58.777, 118.150 62.818, 117.001 65.497 L 114.913 70.370 118.510 79.435 C 124.576 94.722, 127.970 100.273, 131.855 101.260 C 135.061 102.074, 135.134 102.194, 133.511 103.988 C 131.891 105.777, 132.034 106.086, 136.565 110.618 C 141.150 115.203, 141.348 115.292, 142.150 113.124 C 143.518 109.426, 143.562 98.019, 142.240 89.678 C 140.707 80.005, 140.655 67.885, 142.099 57.149 L 143.199 48.979 137.704 43.571 C 129.063 35.068, 128.087 28.525, 134.013 18.847 C 135.580 16.289, 136.593 13.926, 136.264 13.597 C 135.655 12.988, 129.900 13.016, 124.500 13.654 M 148.991 43.250 C 148.986 58.238, 148.527 76.800, 147.970 84.500 C 147.413 92.200, 147.214 99.677, 147.529 101.115 C 148.199 104.186, 151.486 108, 153.462 108 C 155.693 108, 160.701 102.359, 164.499 95.568 C 167.940 89.415, 167.997 89.138, 166.832 84.093 C 165.908 80.088, 165.908 75.722, 166.833 64.712 C 169.041 38.424, 168.127 27.170, 163.345 21.793 C 161.111 19.280, 154.345 16.052, 151.250 16.022 L 149 16 148.991 43.250 M 58 24.396 C 58 27.176, 66.268 34.514, 73.300 37.976 C 78.594 40.582, 81.233 41.262, 86.235 41.309 C 89.691 41.342, 93.355 40.900, 94.378 40.328 C 96.017 39.411, 95.538 38.864, 90.324 35.697 C 74.358 25.998, 58 20.279, 58 24.396 M 83.500 28.868 C 88.450 31.525, 93.987 34.554, 95.803 35.599 L 99.107 37.500 101.039 35.157 C 104.741 30.668, 100.078 27.623, 85.566 25.051 C 74.200 23.037, 73.848 23.688, 83.500 28.868 M 108 48.188 C 108 48.959, 109.268 53.365, 110.818 57.978 L 113.637 66.365 115.318 62.162 C 117.620 56.411, 117.456 52.503, 114.811 50.039 C 113.608 48.918, 112.295 48, 111.893 48 C 111.492 48, 110.452 47.727, 109.582 47.393 C 108.603 47.017, 108 47.320, 108 48.188 M 44.147 52.457 C 41.866 54.931, 40 57.380, 40 57.900 C 40 59.880, 47.097 60.870, 64 61.249 C 83.284 61.681, 88 62.865, 88.001 67.276 C 88.001 69.810, 75.138 82.530, 54.909 100 C 40.385 112.543, 35.413 117.813, 36.797 119.197 C 37.919 120.319, 45.977 118.985, 55.865 116.040 C 62.122 114.177, 62.729 113.738, 64.724 109.631 C 67.651 103.606, 72.513 98.289, 77.353 95.820 C 83.919 92.470, 90.127 93.614, 104.887 100.892 C 117.358 107.042, 123.229 108.405, 126.992 106.026 C 128.959 104.782, 127.974 103.902, 120.029 99.806 C 111.811 95.568, 109 91.661, 109 84.478 C 109 81.603, 109.673 77.345, 110.494 75.016 C 111.940 70.919, 111.870 70.403, 108.366 59.278 L 104.744 47.776 99.622 48.486 C 84.334 50.604, 80.816 50.936, 73.500 50.947 C 66.136 50.959, 53.733 49.651, 49.897 48.457 C 48.882 48.141, 46.772 49.609, 44.147 52.457 M 144.750 57.390 C 144.338 60.079, 144.053 67.954, 144.117 74.890 C 144.221 86.065, 144.337 86.874, 145.145 82 C 145.646 78.975, 145.931 71.100, 145.778 64.500 C 145.553 54.784, 145.357 53.431, 144.750 57.390 M 112.402 77.500 C 110.894 82.982, 111.373 88.683, 113.594 91.677 C 115.457 94.188, 122.992 99.341, 123.728 98.606 C 123.885 98.449, 122.069 94.086, 119.694 88.910 C 117.318 83.735, 114.891 78.375, 114.301 77 L 113.227 74.500 112.402 77.500 M 138.789 117.674 C 139.306 118.678, 139.937 120.163, 140.190 120.974 C 140.510 122, 140.827 121.768, 141.235 120.211 C 141.653 118.613, 141.253 117.670, 139.834 116.911 C 138.098 115.982, 137.967 116.078, 138.789 117.674 M 135 117.886 C 135 118.557, 135.736 122.343, 136.636 126.300 C 138.005 132.319, 138.412 133.118, 139.125 131.191 C 139.711 129.607, 139.363 127.139, 138.015 123.303 C 135.991 117.544, 135 115.763, 135 117.886 M 143.483 124.167 C 143.127 126.733, 143.138 131.258, 143.509 134.222 C 144.401 141.366, 142.644 147.556, 138.566 151.634 C 136.776 153.424, 133.779 157.452, 131.906 160.587 C 127.269 168.345, 122.138 172, 115.885 172 C 111.883 172, 110.447 171.454, 107.386 168.766 C 100.715 162.908, 98.981 154.733, 103.635 151.073 C 106.926 148.483, 109.539 148.469, 116.740 151 C 123.150 153.253, 131.259 153.633, 132.736 151.750 C 133.496 150.781, 137 141.478, 137 140.428 C 137 140.310, 135.151 140.628, 132.890 141.136 C 129.872 141.814, 127.151 141.642, 122.648 140.488 C 116.704 138.966, 113.384 137.328, 96.532 127.606 C 84.355 120.581, 79.679 120.481, 74.734 127.140 L 72.774 129.779 75.338 136.187 C 76.836 139.932, 78.347 146.522, 78.974 152.047 C 82.198 180.455, 82.707 182.452, 87.540 185.618 C 91.144 187.980, 97.322 186.980, 106.895 182.488 L 114.937 178.714 128.719 179.255 C 166.752 180.748, 177.845 173.986, 169.331 154.500 C 167.210 149.647, 166.571 146.206, 165.988 136.500 C 165.591 129.900, 164.694 123.284, 163.994 121.797 C 162.734 119.120, 162.630 119.096, 153.426 119.297 L 144.131 119.500 143.483 124.167 M 138.804 143.820 C 137.496 148.269, 137.442 149.083, 138.554 147.576 C 139.963 145.668, 141.593 139.260, 140.857 138.523 C 140.646 138.313, 139.722 140.696, 138.804 143.820 M 104.993 153.508 C 101.709 157.466, 107.740 168.125, 114.048 169.510 C 118.337 170.453, 123.475 167.691, 127.408 162.329 C 129.356 159.673, 130.962 157.162, 130.975 156.750 C 130.989 156.338, 129.189 156, 126.975 156 C 124.761 156, 120.389 155.100, 117.260 154 C 110.468 151.613, 106.692 151.462, 104.993 153.508" stroke="none" fill="black" fill-rule="evenodd"/>
</svg>