<svg xmlns="http://www.w3.org/2000/svg" width="200" height="200" viewBox="0 0 200 200" version="1.1">
	<path d="M 136 9.900 C 136 10.395, 133.637 11.353, 130.750 12.027 C 120.718 14.372, 102.786 20.077, 96.661 22.874 C 93.272 24.421, 88.656 27.490, 86.401 29.695 C 82.327 33.680, 82.246 33.708, 72.401 34.411 C 50.654 35.965, 30.202 39.894, 29.268 42.697 C 29.025 43.426, 30.674 44.073, 33.690 44.433 C 44.282 45.694, 50.756 47.287, 55.952 49.909 C 66.520 55.242, 67.813 61.350, 59.213 65.323 C 55.011 67.264, 52.855 67.495, 39.333 67.458 L 24.167 67.415 23.611 70.197 C 22.325 76.625, 26.034 80.355, 36.954 83.611 C 55.105 89.025, 56.206 89.767, 53.589 94.827 C 51.921 98.053, 43.677 105.959, 35.826 111.860 C 29.957 116.272, 28 119.671, 28 125.449 C 28 129.565, 29.573 131, 34.084 131 C 42.583 131, 65.024 116.135, 73.907 104.621 C 77.943 99.389, 81.568 90.728, 80.467 88.946 C 80.187 88.494, 81.881 86.802, 84.229 85.185 C 89.510 81.550, 97.518 73.094, 98.445 70.174 C 98.824 68.978, 99.480 68, 99.901 68 C 101.612 68, 108.840 83.202, 109.524 88.242 C 111.470 102.561, 116.215 110.713, 121.934 109.562 C 124.082 109.129, 125.034 109.774, 127.781 113.522 L 131.062 117.998 129.533 126.812 C 126.452 144.570, 122.860 152.261, 117.396 152.800 C 112.808 153.253, 98 141.963, 98 138.013 C 98 136.962, 96.882 132.565, 95.516 128.241 C 92.798 119.637, 89.675 115.750, 85.479 115.750 C 79.469 115.750, 71.488 128.238, 66.554 145.360 C 64.141 153.735, 63.589 154.658, 56.462 162.233 C 48.260 170.952, 45.709 174.946, 46.189 178.318 C 47.158 185.120, 68.406 176.033, 87.011 160.861 L 92.522 156.367 92.535 165.933 C 92.561 185.356, 100.045 191.315, 115.014 183.835 C 121.896 180.396, 136.451 166.859, 141.494 159.206 L 144.324 154.913 148.833 162.692 C 154.642 172.716, 162.763 181, 166.780 181 C 171.936 181, 173.500 178.007, 173.500 168.142 C 173.500 160.559, 173.139 158.788, 170.557 153.692 C 167.640 147.934, 161.952 141.847, 157.665 139.893 C 156.440 139.335, 154.148 136.543, 152.572 133.689 C 147.680 124.828, 140.920 115.028, 138.987 113.993 C 137.612 113.257, 136.706 113.437, 135.449 114.694 C 133.862 116.280, 133.796 116.020, 134.361 110.442 C 134.692 107.174, 135.233 101.350, 135.563 97.500 C 136.138 90.800, 138.593 81.998, 139.886 82.001 C 140.224 82.002, 141.326 84.815, 142.336 88.251 C 146.678 103.031, 154.217 115, 159.183 115 C 162.436 115, 166.546 109.878, 168.821 102.987 C 171.706 94.251, 173.929 80.932, 172.855 78.816 C 172.385 77.889, 172 67.449, 172 55.615 C 172 43.781, 171.505 31.714, 170.901 28.799 C 167.855 14.119, 157.888 8.120, 143.659 12.402 C 139.484 13.659, 137.366 13.128, 140.016 11.490 C 140.575 11.144, 140.774 10.443, 140.457 9.931 C 139.719 8.737, 136 8.711, 136 9.900 M 124.500 16.521 C 119.550 17.840, 113.700 19.572, 111.500 20.371 L 107.500 21.822 113.125 21.809 C 122.254 21.788, 129.509 25.943, 133.368 33.401 C 134.799 36.167, 134.884 35.781, 135.185 25.149 C 135.383 18.142, 135.128 14.020, 134.500 14.060 C 133.950 14.094, 129.450 15.202, 124.500 16.521 M 143.250 15.247 C 141.463 15.820, 140 16.913, 140 17.676 C 140 18.439, 141.288 23.437, 142.863 28.782 C 148.887 49.231, 149.301 59.045, 144.308 62.972 C 142.890 64.088, 140.666 65, 139.365 65 C 137.124 65, 137 65.336, 137 71.418 C 137 74.948, 136.862 78.436, 136.694 79.168 C 136.526 79.901, 137.037 79.037, 137.830 77.250 C 138.623 75.463, 139.777 74, 140.394 74 C 141.011 74, 142.483 77.713, 143.664 82.250 C 146.639 93.683, 149.582 101.149, 153.317 106.738 C 157.284 112.672, 160.336 113.109, 163.636 108.213 C 166.088 104.574, 169.964 89.468, 169.848 84 C 169.808 82.075, 169.678 69.700, 169.560 56.500 C 169.339 31.610, 168.674 26.532, 164.812 20.226 C 163.709 18.425, 161.523 16.287, 159.953 15.476 C 156.722 13.805, 148.113 13.687, 143.250 15.247 M 99.611 24.530 C 96.372 25.875, 92.187 28.145, 90.312 29.576 C 87.484 31.733, 87.113 32.431, 88.137 33.665 C 89.120 34.850, 89.107 35.316, 88.073 35.955 C 86.699 36.804, 88.803 41.035, 95.706 51.302 C 97.482 53.943, 99.342 57.579, 99.840 59.383 C 100.338 61.186, 102.597 66, 104.859 70.081 L 108.974 77.500 109.004 72.500 C 109.021 69.750, 109.693 64.391, 110.498 60.591 L 111.962 53.682 108.052 49.441 C 102.831 43.777, 100 37.975, 100 32.940 C 100 29.565, 100.628 28.172, 103.400 25.400 C 107.415 21.385, 107.266 21.351, 99.611 24.530 M 110 24.600 C 105.619 26.196, 103.950 27.623, 102.962 30.615 C 101.548 34.901, 104.179 41.152, 110.522 48.578 L 115.017 53.838 113.508 59.629 C 112.679 62.814, 112 69.411, 112 74.288 L 112 83.155 118.118 93.622 C 121.482 99.378, 124.721 103.926, 125.314 103.729 C 125.907 103.531, 127.916 100.592, 129.779 97.197 C 133.027 91.278, 133.190 90.474, 133.727 77.656 L 134.287 64.289 131.719 63.644 L 129.151 63 131.170 57.255 C 132.701 52.900, 133.105 49.656, 132.841 43.844 C 132.532 37.027, 132.149 35.752, 129.391 32.339 C 127.684 30.227, 124.947 27.714, 123.307 26.753 C 120.163 24.911, 112.535 23.676, 110 24.600 M 138.059 31.500 C 138.021 35.900, 137.699 44.563, 137.343 50.750 L 136.694 62 139.291 62 C 145.405 62, 146.453 54.487, 142.567 38.500 C 138.825 23.103, 138.139 22.038, 138.059 31.500 M 57.500 38.560 C 51.450 39.300, 44.700 40.312, 42.500 40.809 L 38.500 41.712 41.500 42.392 C 55.362 45.534, 63.853 50.084, 66.588 55.834 C 71.230 65.594, 57.331 72.093, 35.250 70.487 L 26 69.813 26 72.318 C 26 76.384, 30.776 79.474, 40.949 81.987 C 62.547 87.324, 62.426 94.407, 40.446 111.571 C 33.861 116.713, 32.120 118.655, 31.128 121.968 C 30.457 124.208, 30.180 126.482, 30.513 127.021 C 31.579 128.746, 37.344 128.053, 42.709 125.555 C 60.077 117.469, 76.726 100.875, 77.469 90.910 C 77.774 86.830, 78.229 86.216, 84.461 81.494 C 92.145 75.672, 97 69.118, 97 64.567 C 97 61.307, 91.671 50.341, 86.812 43.600 C 85.265 41.455, 84 39.092, 84 38.350 C 84 36.603, 72.774 36.692, 57.500 38.560 M 113.493 94.500 C 114.291 99.479, 116.956 105.032, 119.202 106.396 C 122.664 108.498, 122.130 105.876, 117.553 98.290 C 113.067 90.855, 112.881 90.682, 113.493 94.500 M 129.652 102.825 C 126.978 107.157, 126.897 107.594, 128.339 109.970 C 129.183 111.361, 130.240 112.500, 130.687 112.500 C 131.315 112.500, 133.163 98.994, 132.622 98.355 C 132.555 98.276, 131.218 100.287, 129.652 102.825 M 136.698 117.344 C 136.349 118.255, 135.432 119, 134.661 119 C 133.689 119, 133.050 120.844, 132.578 125.012 C 130.930 139.579, 125.797 152.372, 120.600 154.863 C 116.402 156.875, 111.842 155.135, 103.338 148.276 C 97.572 143.626, 96.056 141.818, 95.562 139 C 94.258 131.564, 90.696 122.063, 88.404 119.910 C 86.327 117.958, 85.699 117.823, 83.693 118.896 C 78.872 121.477, 72.215 134.449, 68.500 148.500 C 66.812 154.884, 65.968 156.217, 58.907 163.641 C 51.499 171.430, 47.477 177.144, 48.607 178.274 C 49.417 179.084, 55.939 177.055, 61.500 174.264 C 69.254 170.371, 81.978 161.844, 89.298 155.635 C 92.951 152.536, 96.110 150, 96.319 150 C 96.527 150, 96.275 152.588, 95.759 155.750 C 93.814 167.668, 96.250 181.731, 100.545 183.379 C 109.441 186.793, 124.936 176.504, 138.995 157.846 L 144.909 149.997 149.705 158.663 C 161.045 179.158, 171.523 184.198, 171.434 169.116 C 171.382 160.299, 168.532 153.401, 162.412 147.282 C 159.507 144.377, 156.475 142, 155.674 142 C 154.873 142, 151.492 137.327, 148.161 131.616 C 144.829 125.904, 141.030 119.984, 139.718 118.459 C 137.690 116.101, 137.239 115.934, 136.698 117.344" stroke="none" fill="black" fill-rule="evenodd"/>
</svg>