<svg xmlns="http://www.w3.org/2000/svg" width="200" height="200" viewBox="0 0 200 200" version="1.1">
	<path d="M 125 9.936 C 125 10.451, 126.321 14.302, 127.935 18.494 L 130.869 26.115 123.892 45.807 C 120.055 56.638, 116.716 66.082, 116.473 66.793 C 116.138 67.770, 115.537 67.823, 114.015 67.008 C 110.482 65.117, 108.981 61.520, 107.074 50.376 C 104.874 37.520, 104.120 35.383, 100.505 31.774 C 97.278 28.552, 92.884 27.547, 85.151 28.264 C 77.716 28.953, 63 33.848, 63 35.632 C 63 37.394, 62.410 37.495, 73.141 33.899 C 88.509 28.751, 97.815 29.876, 101.342 37.308 C 102.228 39.176, 103.644 45.304, 104.489 50.925 C 106.491 64.257, 107.412 66.012, 114.799 70.579 C 114.963 70.681, 114.813 71.897, 114.465 73.282 C 113.843 75.762, 113.718 75.792, 106.081 75.268 C 95.500 74.543, 91.907 75.909, 84.488 83.475 C 77.274 90.832, 66.817 98.063, 54.298 104.350 C 44.792 109.124, 33.518 112.851, 32.292 111.625 C 30.192 109.525, 44.587 93.508, 53.089 88.484 C 57.092 86.119, 57.960 82.740, 55.330 79.763 C 54.324 78.623, 48.775 75.457, 43 72.728 C 30.480 66.811, 30.767 66.471, 49.160 65.438 C 66.866 64.444, 81 59.797, 81 54.969 C 81 51.483, 76.323 49.945, 50.771 45.031 C 44.871 43.895, 38.796 42.493, 37.271 41.913 C 34.618 40.904, 34.585 40.811, 36.500 39.729 C 37.600 39.107, 41.176 37.862, 44.446 36.962 C 51.306 35.074, 53.707 32.270, 47.461 33.441 C 41.250 34.607, 33.230 37.959, 32.575 39.664 C 31.130 43.430, 36.183 45.425, 56.173 48.984 C 70.926 51.610, 78.245 53.757, 77.740 55.308 C 77.526 55.963, 74.710 57.559, 71.481 58.853 C 65.939 61.075, 63.186 61.470, 38.241 63.621 C 31.875 64.170, 28.662 65.956, 29.607 68.419 C 29.894 69.167, 34.809 71.920, 40.528 74.536 C 46.248 77.153, 51.851 80.276, 52.979 81.478 C 55.331 83.981, 55.254 84.087, 47.199 89.469 C 41.865 93.033, 32.347 103.205, 30.269 107.563 C 28.061 112.192, 29.090 114, 33.934 114 C 45.519 114, 71.665 99.773, 86.021 85.658 C 91.571 80.200, 93.358 79.063, 98.026 78.019 C 105.521 76.341, 112.466 78.016, 111.703 81.317 C 111.426 82.517, 110.264 87.550, 109.121 92.500 C 107.978 97.450, 107.034 103.412, 107.022 105.750 C 106.984 113.074, 111.500 115.541, 119.301 112.459 C 120.862 111.842, 121.011 112.130, 120.422 114.624 C 120.048 116.206, 119.419 117.858, 119.025 118.296 C 118.631 118.733, 114.030 117.721, 108.801 116.046 C 98.392 112.711, 94.521 112.288, 93.300 114.349 C 92.685 115.386, 91.108 115.521, 86.500 114.934 C 77.762 113.820, 60.030 113.844, 56.083 114.976 C 51.775 116.212, 48 119.716, 48 122.480 C 48 125.294, 52.027 130.646, 56.581 133.887 L 60.239 136.489 56.023 137.209 C 49.753 138.279, 45.768 141.017, 43.250 145.985 C 37.343 157.639, 43.649 175.561, 56.440 183.468 C 60.778 186.151, 62.223 186.500, 68.974 186.500 C 75.712 186.500, 77.412 186.091, 83.512 183 C 89.984 179.721, 90.990 179.508, 99.460 179.624 C 106.331 179.718, 111.838 180.618, 122.413 183.374 C 137.390 187.277, 146.704 187.988, 152.282 185.653 C 159.642 182.572, 164.849 173.667, 166.811 160.805 L 167.680 155.110 163.070 150.569 C 160.534 148.072, 155.628 144.515, 152.167 142.666 L 145.875 139.304 153.258 138.680 C 166.817 137.534, 174 135.205, 174 131.954 C 174 129.553, 161.729 126.099, 152.566 125.921 L 148.500 125.842 151.500 124.784 C 153.150 124.202, 154.644 123.606, 154.820 123.460 C 154.995 123.314, 154.151 120.897, 152.943 118.090 C 148.787 108.429, 140.945 104.114, 130.979 106.004 C 128.062 106.557, 125.536 106.870, 125.365 106.699 C 125.194 106.528, 125.463 104.838, 125.963 102.944 C 126.463 101.050, 127.383 97.534, 128.007 95.131 L 129.141 90.761 131.821 93.253 C 145.844 106.295, 152.855 104.857, 158.428 87.795 C 160.940 80.105, 161.177 77.897, 161.684 57.500 C 162.402 28.613, 160.628 16.130, 155.668 15.175 C 151.492 14.370, 147.827 20.350, 141.374 38.500 C 137.140 50.407, 137.106 50.461, 137.039 45.500 C 137.001 42.750, 136.298 37.648, 135.476 34.161 C 134.654 30.675, 134.058 26.625, 134.152 25.161 C 134.329 22.386, 127.501 9, 125.908 9 C 125.409 9, 125 9.421, 125 9.936 M 152.639 19.847 C 148.712 24.186, 139.153 51.654, 131.996 79.167 L 129.741 87.834 133.524 91.167 C 139.809 96.704, 143.737 99, 146.924 99 C 150.556 99, 152.188 96.830, 155.787 87.219 C 158.180 80.828, 158.321 79.279, 158.678 55.500 C 159.156 23.694, 157.579 14.387, 152.639 19.847 M 131 33.278 C 131 33.431, 128.309 41.306, 125.020 50.778 C 119.746 65.966, 119.256 68, 120.872 68 C 124.113 68, 129.436 63.610, 131.750 59.030 C 133.453 55.658, 133.997 52.866, 133.989 47.538 C 133.976 39.178, 133.075 33, 131.869 33 C 131.391 33, 131 33.125, 131 33.278 M 129.005 67.125 C 127.083 68.736, 123.846 70.321, 121.811 70.646 C 118.832 71.123, 117.908 71.826, 117.056 74.268 C 116.475 75.935, 116 77.381, 116 77.483 C 116 78.014, 127.108 85.221, 127.416 84.890 C 128.008 84.254, 133.149 64.814, 132.810 64.491 C 132.640 64.328, 130.927 65.514, 129.005 67.125 M 113.587 86.250 C 110.417 97.579, 110.011 99.682, 110.006 104.781 C 109.999 111.027, 111.077 111.798, 117.357 110.040 L 121.645 108.839 123.921 99.398 C 125.173 94.205, 125.958 89.334, 125.666 88.573 C 125.174 87.289, 116.812 81, 115.598 81 C 115.300 81, 114.395 83.362, 113.587 86.250 M 128.729 109.208 C 124.731 110.269, 123.649 111.576, 122.557 116.666 C 121.880 119.825, 121.892 119.836, 127.189 120.861 C 136.635 122.689, 142.675 123.171, 147.356 122.469 L 151.939 121.782 150.352 118.641 C 145.655 109.339, 139.065 106.464, 128.729 109.208 M 96 116.034 C 96 116.518, 99.177 119.481, 103.061 122.618 C 109.813 128.074, 110.282 128.283, 113.811 127.412 C 116.785 126.677, 117.500 126.035, 117.500 124.101 C 117.500 122.236, 116.684 121.419, 113.839 120.434 C 105.570 117.571, 96 115.211, 96 116.034 M 61.247 117.098 C 54.615 117.732, 51 119.869, 51 123.155 C 51 126.190, 58.003 132.258, 66.768 136.818 C 71.295 139.174, 75 141.528, 75 142.051 C 75 143.302, 74.392 143.249, 68.591 141.489 C 53.215 136.825, 44.011 142.257, 44.005 156 C 43.999 167.652, 52.002 179.866, 61.751 183.083 C 67.507 184.982, 75.704 183.803, 83.502 179.954 C 93.264 175.136, 101.062 175.204, 121.322 180.284 C 152.320 188.056, 160.233 184.124, 164.444 158.855 C 165.020 155.395, 164.785 154.997, 159.776 150.972 C 148.949 142.273, 137.646 139.646, 128.813 143.776 L 125.127 145.500 131.537 155 C 138.405 165.178, 140.225 169.018, 139.068 170.890 C 137.711 173.086, 134.975 170.793, 126.828 160.634 C 122.358 155.060, 118.340 150.357, 117.900 150.183 C 117.459 150.009, 113.276 152.383, 108.605 155.460 C 92.704 165.931, 81.806 169.499, 71.584 167.582 L 67.970 166.904 70.944 162.582 C 78.134 152.131, 91.320 143.673, 106.360 139.865 L 115.052 137.664 112.313 134.805 C 110.807 133.233, 108.766 132.071, 107.779 132.223 C 106.645 132.398, 103.681 130.041, 99.742 125.834 C 95.086 120.862, 92.483 118.910, 89.500 118.154 C 84.454 116.875, 69.441 116.314, 61.247 117.098 M 120.675 124.404 C 120.174 125.711, 120.826 125.997, 124.281 125.985 C 126.602 125.976, 129.175 125.533, 130 125 C 131.227 124.207, 131.114 124.028, 129.375 124.015 C 128.206 124.007, 125.909 123.732, 124.269 123.404 C 122.076 122.965, 121.126 123.230, 120.675 124.404 M 122.545 128.870 C 119.719 129.476, 118.394 131.601, 118.098 136 C 117.901 138.940, 167.582 135.751, 170.710 132.624 C 171.498 131.835, 164.535 130.012, 156.995 129.034 C 148.776 127.968, 127.232 127.865, 122.545 128.870 M 113 130.878 C 113 131.360, 113.620 132.270, 114.378 132.899 C 115.460 133.797, 115.869 133.609, 116.284 132.021 C 116.678 130.515, 116.327 130, 114.906 130 C 113.858 130, 113 130.395, 113 130.878 M 121.939 141.427 C 122.857 142.532, 123.783 142.623, 126.061 141.829 C 130.044 140.440, 129.759 140, 124.878 140 C 121.421 140, 120.946 140.230, 121.939 141.427 M 104 143.366 C 99.875 144.609, 94.156 146.833, 91.291 148.309 C 86.051 151.008, 73 162.367, 73 164.228 C 73 164.832, 75.664 165.072, 79.750 164.835 C 87.685 164.376, 95.600 161.004, 107.643 152.952 C 111.964 150.063, 115.695 147.534, 115.933 147.333 C 116.172 147.131, 115.834 146.434, 115.183 145.783 C 114.532 145.132, 114 143.790, 114 142.800 C 114 140.544, 113.225 140.588, 104 143.366 M 117 142.227 C 117 144.050, 118.773 145.561, 119.757 144.576 C 120.100 144.233, 119.620 143.192, 118.690 142.262 C 117.132 140.703, 117 140.700, 117 142.227 M 121 148.094 C 121 149.130, 133.904 166, 134.697 166 C 135.347 166, 132.850 161.737, 127.815 154.250 C 123.284 147.513, 121 145.450, 121 148.094" stroke="none" fill="black" fill-rule="evenodd"/>
</svg>