<svg xmlns="http://www.w3.org/2000/svg" width="200" height="200" viewBox="0 0 200 200" version="1.1">
	<path d="M 88.622 13.474 L 85.774 16.114 77.013 14.057 C 65.524 11.359, 64.995 11.390, 65.022 14.750 C 65.076 21.568, 71.627 29.878, 78.250 31.531 C 80.324 32.048, 81 32.825, 81 34.690 L 81 37.163 77.705 35.127 C 74.612 33.215, 74.012 33.173, 67.933 34.445 C 57.112 36.709, 53.453 37.894, 49.908 40.283 C 40.949 46.321, 49.003 51.854, 69.928 54.038 C 75.113 54.579, 79.498 55.165, 79.673 55.340 C 79.848 55.515, 80.268 57.675, 80.606 60.141 L 81.220 64.623 64.639 70.917 C 44.289 78.642, 37.630 82.375, 37.178 86.314 C 37.001 87.858, 37.393 89.769, 38.050 90.560 C 40.618 93.654, 57.313 91.712, 74.314 86.341 C 78.644 84.973, 82.315 83.999, 82.471 84.177 C 82.627 84.355, 83.204 87.156, 83.752 90.402 L 84.749 96.304 58.624 95.671 C 44.256 95.322, 29.934 94.743, 26.798 94.384 L 21.096 93.730 19.358 97.375 C 17.137 102.032, 18.251 105.579, 22.925 108.728 C 27.422 111.759, 33.635 113.529, 50.500 116.583 C 58.200 117.977, 64.876 119.489, 65.335 119.944 C 66.226 120.826, 61.124 122.925, 51.709 125.551 C 46.527 126.996, 45.985 127.394, 46.556 129.333 C 47.970 134.135, 52.004 138.824, 56.684 141.107 C 63.220 144.295, 77.687 144.786, 97.945 142.506 C 113.241 140.785, 118.915 140.988, 120.858 143.328 C 122.501 145.309, 121.006 149.043, 118.113 150.185 C 116.676 150.753, 102.440 151.532, 86.478 151.918 C 60.659 152.541, 57.016 152.832, 53.478 154.559 C 46.463 157.982, 47.713 163.137, 57.385 170.672 L 61.799 174.111 72.150 172.114 C 113.528 164.132, 132.871 169.014, 138.658 188.901 L 140.230 194.302 143.563 188.901 C 151.596 175.887, 154.812 157.138, 151.604 142.035 C 149.752 133.318, 144.569 121.857, 140.259 116.948 L 137.232 113.500 149.866 113.453 C 164.092 113.400, 169.649 112.179, 174.206 108.107 C 182.603 100.605, 172.269 88.741, 156.057 87.271 C 151.219 86.833, 150 86.378, 150 85.009 C 150 83.589, 151.342 83.193, 157.861 82.690 C 176.614 81.244, 175.169 75.860, 153.746 67.360 C 147.384 64.837, 146.930 64.442, 145.941 60.590 C 143.195 49.888, 141.784 45.793, 139.057 40.608 C 137.434 37.524, 136.326 35, 136.593 35 C 137.844 35, 145.742 39.447, 147.738 41.275 C 149.401 42.800, 149.700 43.657, 148.901 44.619 C 147.697 46.070, 148.629 48.348, 150.064 47.461 C 150.573 47.146, 151.432 46.062, 151.973 45.051 C 154.149 40.985, 146.486 35.587, 129.787 29.423 C 123.001 26.917, 122.239 26.391, 123.447 25.038 C 124.805 23.516, 125.348 21.646, 125.118 19.276 C 124.897 16.987, 118.526 14.692, 108.500 13.292 C 103 12.523, 96.918 11.656, 94.985 11.365 C 92.139 10.936, 90.928 11.337, 88.622 13.474 M 90.525 15.336 C 88.654 16.725, 88.786 16.863, 93.025 17.972 C 95.486 18.616, 102.127 20.503, 107.783 22.165 C 117.463 25.010, 118.210 25.093, 120.533 23.571 C 121.890 22.681, 123 21.491, 123 20.926 C 123 19.147, 116.114 16.926, 107.652 15.976 C 103.168 15.472, 97.925 14.792, 96 14.465 C 93.680 14.070, 91.834 14.364, 90.525 15.336 M 68.437 17.750 C 69.400 21.802, 72.187 25.214, 76.594 27.734 C 78.742 28.962, 80.766 29.975, 81.091 29.984 C 81.744 30.002, 84.380 19.026, 83.839 18.541 C 83.469 18.209, 69.517 15, 68.444 15 C 68.081 15, 68.077 16.238, 68.437 17.750 M 86.098 23.149 C 85.494 24.881, 85 27.356, 85 28.649 C 85 30.895, 85.316 31, 92.053 31 C 99.262 31, 113 28.438, 113 27.093 C 113 26.307, 91.447 20, 88.760 20 C 87.900 20, 86.702 21.417, 86.098 23.149 M 111.500 30.865 C 106.022 32.752, 102.272 33.301, 94.257 33.388 L 84.014 33.500 84.007 36.162 C 84.001 38.465, 84.510 38.910, 87.787 39.464 C 92.557 40.270, 98.793 38.881, 110.216 34.470 C 115.158 32.561, 120.082 31, 121.159 31 C 122.237 31, 122.873 30.604, 122.575 30.121 C 121.456 28.310, 118.298 28.523, 111.500 30.865 M 109.684 37.595 C 100.315 41.148, 96.546 42.085, 91.479 42.124 C 87.965 42.151, 84.619 41.883, 84.045 41.528 C 83.366 41.108, 83 42.850, 83 46.502 L 83 52.123 87.750 51.466 C 92.438 50.818, 101.263 48.855, 105.864 47.436 C 108.001 46.777, 108.158 46.937, 107.504 49.104 C 106.257 53.228, 100.874 57.887, 92.286 62.273 C 83.246 66.890, 83.129 67.101, 84.619 76.109 L 85.216 79.719 92.858 77.159 C 99.328 74.992, 102.341 74.594, 112.500 74.565 C 123.857 74.532, 124.905 74.705, 132.058 77.779 C 137.835 80.261, 140.397 80.871, 142.928 80.364 L 146.240 79.702 145.621 74.436 C 144.755 67.064, 144.619 66.861, 138.224 63.419 C 133.685 60.976, 132.500 59.837, 132.500 57.919 C 132.500 55.948, 133.293 55.249, 136.784 54.144 C 141.668 52.599, 141.676 52.373, 137.135 43.032 C 134.111 36.811, 129.286 32.971, 124.602 33.057 C 122.896 33.089, 116.183 35.131, 109.684 37.595 M 64.143 38.055 C 55.728 39.954, 49.995 42.515, 49.266 44.701 C 48.383 47.350, 58.275 50.307, 72.250 51.574 L 80 52.276 80 47.720 C 80 45.214, 80.223 42.564, 80.494 41.832 C 80.953 40.596, 75.032 35.889, 73.264 36.084 C 72.844 36.131, 68.740 37.017, 64.143 38.055 M 97.500 52.523 C 94.750 53.230, 90.362 53.851, 87.750 53.904 L 83 54 83 58.500 C 83 61.115, 83.462 63, 84.104 63 C 86.151 63, 98.752 55.893, 101.060 53.436 C 102.319 52.096, 103.158 51.053, 102.924 51.119 C 102.691 51.184, 100.250 51.816, 97.500 52.523 M 136.750 56.689 C 135.787 56.941, 135 57.555, 135 58.053 C 135 58.948, 142.957 63.439, 143.446 62.820 C 143.585 62.644, 143.304 61.038, 142.821 59.250 C 141.950 56.026, 140.932 55.597, 136.750 56.689 M 63.238 74.404 C 47.841 80.413, 39 84.968, 39 86.892 C 39 91.413, 54.252 89.886, 74.250 83.363 C 81.356 81.046, 81.999 80.614, 81.989 78.168 C 81.973 74.203, 80.828 67.996, 80.119 68.029 C 79.779 68.045, 72.182 70.914, 63.238 74.404 M 148.326 74.104 L 149.314 80.234 157.679 79.795 C 169.743 79.162, 170.176 77.881, 159.930 73.130 C 146.550 66.924, 147.162 66.873, 148.326 74.104 M 106.347 77.132 C 102.963 77.531, 97 78.809, 93.097 79.971 C 85.237 82.312, 85.364 82.084, 86.656 91.504 L 87.311 96.287 105.906 95.611 C 120.785 95.070, 126.852 94.396, 136.269 92.238 C 145.031 90.231, 147.906 89.196, 147.519 88.189 C 147.234 87.445, 147 86.013, 147 85.007 C 147 83.497, 145.995 83.101, 141.250 82.740 C 138.088 82.500, 132.350 81.158, 128.500 79.760 C 120.307 76.782, 114.824 76.132, 106.347 77.132 M 156.310 91.867 C 155.656 92.919, 149.581 96.829, 142.810 100.556 C 118.405 113.991, 110.001 120.340, 107.892 126.938 C 106.529 131.201, 103.282 135, 101 135 C 96.724 135, 91.810 125.776, 87.977 110.555 L 85.192 99.500 75.846 99.271 C 70.706 99.145, 56.631 98.576, 44.568 98.006 C 21.156 96.900, 21.049 96.916, 21.015 101.677 C 20.980 106.731, 28.333 109.697, 51.487 113.966 C 68.673 117.136, 71.658 118.511, 68.625 121.862 C 67.182 123.456, 62.691 125.190, 51.250 128.568 C 46.883 129.858, 54.200 137.944, 61.655 140.066 C 67.811 141.819, 81.472 141.666, 99.500 139.643 C 121.143 137.213, 126.165 139.326, 123.386 149.689 C 122.467 153.115, 115.294 154.121, 88 154.650 C 63.942 155.117, 54.913 155.998, 52.345 158.129 C 50.475 159.680, 52.771 163.678, 57.895 167.796 L 61.996 171.091 77.748 168.440 C 98.036 165.025, 116.286 165.214, 124.727 168.927 C 130.578 171.501, 137.332 178.201, 139.730 183.810 L 141.307 187.500 144.564 180.508 C 148.576 171.896, 150 165.092, 150 154.543 C 150 144.727, 148.114 136.833, 143.538 127.500 C 140.290 120.876, 133.916 113, 131.803 113 C 131.270 113, 131.016 112.451, 131.240 111.779 C 131.538 110.885, 136.051 110.550, 148.074 110.529 C 162.800 110.503, 164.988 110.275, 169.213 108.323 C 177.210 104.628, 176.627 98.745, 167.757 93.645 C 161.564 90.083, 157.786 89.496, 156.310 91.867 M 136.500 94.937 C 126.707 97.215, 121.214 97.836, 106.633 98.314 C 96.807 98.636, 88.589 99.078, 88.372 99.295 C 87.495 100.172, 93.253 119.912, 96.089 125.750 C 100.048 133.899, 101.879 133.981, 105.270 126.163 C 109.015 117.527, 115.244 112.710, 141.500 98.140 C 147.550 94.783, 151.600 92.061, 150.500 92.091 C 149.400 92.121, 143.100 93.402, 136.500 94.937" stroke="none" fill="black" fill-rule="evenodd"/>
</svg>