<svg xmlns="http://www.w3.org/2000/svg" width="200" height="200" viewBox="0 0 200 200" version="1.1">
	<path d="M 132.783 15.750 C 130.071 18.860, 128.665 22.328, 126.518 31.208 L 124.412 39.916 123.045 35.288 C 121.175 28.955, 113.859 21.421, 108.639 20.452 C 102.940 19.395, 98.429 21.836, 96.948 26.780 C 95.943 30.135, 96.077 31.307, 97.968 35.704 C 99.165 38.487, 101.462 42.027, 103.073 43.570 C 104.683 45.112, 105.997 46.852, 105.994 47.437 C 105.970 51.799, 78.877 88.280, 78.211 84.848 C 78.052 84.029, 80.017 76.191, 82.577 67.430 C 85.137 58.668, 88.530 47.054, 90.116 41.621 C 91.702 36.187, 93 30.675, 93 29.371 C 93 25.489, 89.437 26.383, 86.356 31.038 C 83.701 35.050, 83.656 35.070, 79.092 34.288 C 76.567 33.854, 67.750 33.523, 59.500 33.552 C 45.928 33.599, 43.938 33.837, 38.594 36.052 C 31.933 38.813, 29.905 41.041, 31.605 43.735 C 33.225 46.304, 40.172 47.970, 52.199 48.674 C 63.302 49.323, 70.500 51.796, 70.500 54.960 C 70.500 56.974, 66.848 57.696, 47.635 59.477 C 23.078 61.753, 16.885 63.929, 19.006 69.535 C 20.690 73.983, 22.563 74.500, 36.999 74.500 C 52.797 74.500, 54.953 75.257, 52.525 79.952 C 51.742 81.466, 47.816 85.553, 43.801 89.035 C 26.737 103.831, 20 111.308, 20 115.450 C 20 117.924, 21.957 117.243, 23.041 114.392 C 24.588 110.322, 28.678 105.881, 39.500 96.519 C 56.487 81.823, 59.256 77.180, 53.344 73.306 C 51.111 71.843, 48.582 71.598, 37.489 71.772 C 25.577 71.958, 24.120 71.790, 22.547 70.052 C 19.120 66.265, 22.953 64.760, 40.500 62.999 C 69.057 60.133, 73.138 59.238, 73.820 55.694 C 74.296 53.225, 72.419 51.242, 67.063 48.556 C 63.448 46.744, 60.214 46.154, 51.500 45.720 C 40.806 45.188, 34 43.713, 34 41.928 C 34 39.648, 43.550 36.850, 56 35.481 C 61.025 34.929, 74.050 35.975, 81.532 37.532 C 84.216 38.090, 84.877 37.724, 87.282 34.343 C 88.777 32.243, 90.001 30.968, 90.001 31.512 C 90.002 32.055, 87.094 42.400, 83.540 54.500 C 79.985 66.600, 76.270 79.644, 75.283 83.486 L 73.488 90.472 65.494 96.215 C 61.097 99.374, 52.040 104.769, 45.368 108.204 C 37.643 112.181, 33.411 114.908, 33.720 115.712 C 34.379 117.429, 55.644 106.540, 65.649 99.361 C 72.151 94.696, 73.169 94.236, 72.643 96.201 C 72.304 97.465, 72.021 100.188, 72.014 102.250 C 72.004 104.842, 71.555 106, 70.559 106 C 67.678 106, 68.022 108.011, 71.845 113.521 C 78.580 123.228, 85.565 126.520, 97.881 125.791 C 103.300 125.471, 107.036 124.602, 110.819 122.783 L 116.138 120.226 115.449 124.363 C 113.261 137.498, 107.930 147, 102.749 147 C 99.227 147, 92.957 142.092, 87.624 135.161 L 83.006 129.160 76.351 128.447 C 63.280 127.047, 49.677 129.292, 48.485 133.046 C 47.479 136.216, 49.745 138.778, 56.261 141.837 C 63.663 145.311, 69.727 146.810, 80.317 147.782 L 88.133 148.500 80.495 154.500 C 76.294 157.800, 66.521 164.550, 58.776 169.500 C 43.623 179.185, 41.821 180.874, 43.930 183.416 C 44.999 184.703, 47.537 185, 57.483 185 C 64.214 185, 71.794 184.716, 74.328 184.369 C 78.815 183.753, 79.009 183.579, 81.801 177.612 C 85.277 170.183, 89.819 165.434, 94.905 163.910 C 100.570 162.213, 107.476 164.641, 121.009 173.087 C 136.622 182.831, 141.420 184.978, 147.602 184.990 C 153.051 185.001, 157.987 182.497, 160.707 178.344 C 162.068 176.266, 161.568 175.814, 147.012 165.942 C 129.895 154.334, 121.629 147.165, 122.163 144.390 C 122.702 141.595, 129.491 140.707, 141.817 141.821 C 150.975 142.648, 152.750 142.565, 154.250 141.238 C 159.906 136.234, 151.407 129.382, 130.500 122.089 C 125.550 120.363, 120.967 118.762, 120.316 118.532 C 119.479 118.236, 119.401 117.289, 120.051 115.307 C 120.557 113.763, 121.266 107.550, 121.626 101.500 L 122.281 90.500 124.477 97.596 C 128.072 109.208, 132.789 113.573, 138.975 111.010 C 142.245 109.656, 148.565 103.239, 151.467 98.324 C 153.184 95.419, 153.932 95.095, 161.412 94.020 C 173.613 92.265, 181.680 90.012, 183.682 87.798 C 185.426 85.872, 185.399 85.740, 182.807 83.510 C 181.335 82.245, 175.040 79.525, 168.816 77.466 C 156.683 73.453, 150 70.482, 150 69.102 C 150 67.512, 152.455 66.252, 165.620 61.090 C 172.836 58.260, 179.580 55.017, 180.607 53.882 C 182.342 51.965, 182.355 51.733, 180.798 50.595 C 179.877 49.921, 174.708 48.591, 169.312 47.638 C 149.786 44.193, 143.477 37.629, 147.111 24.540 C 148.176 20.702, 148.099 20.479, 144.620 17.290 C 140.500 13.515, 135.321 12.841, 132.783 15.750 M 134.464 18.445 C 130.203 22.706, 127.188 37.130, 124.886 64.269 C 123.835 76.662, 123.892 79.757, 125.325 88.230 C 129.214 111.217, 136.639 114.857, 147.513 99.108 L 152.070 92.508 163.453 90.802 C 169.713 89.863, 176.560 88.367, 178.668 87.476 L 182.500 85.857 180 84.529 C 178.625 83.799, 172.623 81.570, 166.663 79.576 C 153.149 75.056, 148.335 72.629, 147.468 69.899 C 146.412 66.573, 149.258 64.629, 163.288 59.098 C 180.219 52.423, 180.386 52.320, 175.471 51.556 C 165.345 49.983, 154.317 46.814, 150.746 44.451 C 148.190 42.759, 146.103 40.226, 144.757 37.183 C 142.917 33.024, 142.816 31.911, 143.834 27.058 C 144.885 22.044, 144.810 21.427, 142.903 19.397 C 139.777 16.069, 137.137 15.772, 134.464 18.445 M 101 25 C 97.332 28.668, 98.844 34.298, 105.802 42.884 L 109.354 47.269 106.942 51.816 C 101.576 61.930, 92.124 74.976, 84.220 83.176 L 75.857 91.853 75.291 99.340 L 74.724 106.828 79.112 107.728 C 82.504 108.424, 84.040 108.285, 85.877 107.116 C 88.815 105.247, 111.006 104.978, 115.196 106.762 C 118.195 108.039, 117.709 109.400, 119.547 94.596 C 120.425 87.521, 122.334 53.040, 122.202 46.637 C 122.061 39.823, 120.625 34.866, 117.415 30.112 C 112.798 23.273, 105.118 20.882, 101 25 M 90 108.870 C 87.576 109.637, 87.607 109.684, 91 110.429 C 92.925 110.851, 99.184 112.485, 104.909 114.059 C 110.633 115.634, 115.642 116.721, 116.039 116.476 C 116.436 116.230, 116.981 114.882, 117.249 113.479 C 117.608 111.598, 117.181 110.629, 115.618 109.786 C 113.107 108.431, 93.591 107.733, 90 108.870 M 76.813 110.683 C 77.534 110.972, 78.397 110.936, 78.729 110.604 C 79.061 110.272, 78.471 110.036, 77.417 110.079 C 76.252 110.127, 76.015 110.364, 76.813 110.683 M 81.014 113.118 C 79.647 113.664, 77.742 113.904, 76.782 113.653 C 75.358 113.281, 75.216 113.536, 76.015 115.029 C 78.538 119.742, 87.127 123.391, 95.514 123.312 C 102.045 123.250, 112.773 120.329, 111.340 119.002 C 110.367 118.102, 87 111.969, 84.904 112.063 C 84.132 112.098, 82.381 112.573, 81.014 113.118 M 118.466 123.693 C 118.136 125.237, 116.771 130.164, 115.434 134.643 C 111.505 147.799, 105.875 152.126, 97.851 148.156 L 93.692 146.098 86.985 152.299 C 80.162 158.608, 74.713 162.523, 56 174.562 C 45.646 181.223, 45.542 181.329, 48.500 182.145 C 50.150 182.600, 57.192 182.686, 64.149 182.337 L 76.798 181.702 79.149 176.607 C 81.862 170.727, 87.119 164.507, 91.125 162.435 C 92.652 161.646, 96.286 161.004, 99.200 161.010 C 105.520 161.021, 110.865 163.325, 124.116 171.750 C 137.777 180.434, 141.859 182.323, 147.175 182.417 C 151.649 182.496, 156.898 180.002, 157.649 177.439 C 157.801 176.923, 152.948 173.173, 146.865 169.108 C 124.542 154.186, 117.326 146.996, 119.881 142.222 C 121.457 139.277, 126.027 138.624, 140.648 139.255 C 152.339 139.760, 153 139.686, 153 137.872 C 153 135.209, 145.700 130.801, 133.548 126.127 C 118.453 120.321, 119.163 120.436, 118.466 123.693 M 54.185 132.136 C 42.710 135.442, 66.834 145.493, 84.559 144.790 L 91.865 144.500 86.309 137.750 L 80.754 131 69.127 131.090 C 62.732 131.140, 56.008 131.610, 54.185 132.136" stroke="none" fill="black" fill-rule="evenodd"/>
</svg>