<svg xmlns="http://www.w3.org/2000/svg" width="200" height="200" viewBox="0 0 200 200" version="1.1">
	<path d="M 153.311 22.066 C 141.389 41.098, 142.289 39.926, 141.456 37.500 C 141.078 36.400, 139.483 32.663, 137.912 29.196 L 135.054 22.891 138.527 19.842 C 142.703 16.175, 142.927 13.652, 139.287 11.273 C 133.680 7.609, 101.194 9.890, 71.259 16.050 C 57.399 18.901, 56.980 19.787, 67.189 24.654 C 71.760 26.832, 78.537 29.927, 82.250 31.530 C 85.963 33.133, 89 34.795, 89 35.223 C 89 35.650, 85.963 35.990, 82.250 35.978 C 74.037 35.951, 68.391 33.636, 64.428 28.670 C 61.860 25.451, 60 24.742, 60 26.982 C 60 29.088, 65.852 34.488, 70.459 36.633 C 76.052 39.237, 83.325 39.702, 90.440 37.911 C 94.080 36.994, 95.441 37.116, 99.035 38.684 L 103.304 40.546 94.477 43.479 C 84.120 46.920, 75.254 47.298, 67.340 44.635 C 62.550 43.023, 61.740 43.013, 56.059 44.485 C 45.642 47.184, 40.667 49.968, 41.656 52.546 C 42.391 54.461, 46.784 55.652, 60 57.520 C 80.542 60.424, 84.310 62.038, 79.455 65.857 C 78.013 66.991, 74.387 68.834, 71.396 69.953 C 53.681 76.581, 42 85.770, 42 93.077 C 42 103.064, 58.893 99.661, 78.073 85.810 L 85.645 80.342 88.893 82.567 C 90.679 83.791, 95.030 85.620, 98.563 86.631 C 103.325 87.995, 104.873 88.862, 104.552 89.985 C 104.314 90.818, 103.820 94.046, 103.456 97.158 C 102.826 102.532, 102.634 102.845, 99.646 103.379 C 90.723 104.974, 59.674 106.155, 42.749 105.543 L 23.998 104.864 24.977 107.439 C 27.007 112.778, 28.989 115.757, 32.805 119.204 C 41.204 126.793, 50.230 127.245, 79.237 121.530 C 90.093 119.391, 99.301 117.967, 99.699 118.366 C 100.098 118.765, 99.892 119.943, 99.242 120.983 C 97.912 123.113, 99.485 129.436, 101.097 128.440 C 102.403 127.633, 102.303 128.041, 99.038 136.898 C 95.021 147.791, 92.369 152.879, 88.642 156.839 C 85.226 160.469, 78.316 164.361, 73.401 165.423 C 68.221 166.542, 59 177.961, 59 183.257 C 59 190.679, 71.716 188.194, 95.919 176.043 C 101.649 173.166, 109.753 168.694, 113.926 166.106 L 121.514 161.400 126.083 165.950 C 137.938 177.757, 164.293 186.894, 171.434 181.672 C 176.353 178.075, 171.898 170.762, 159.215 161.613 C 154.554 158.251, 141.641 148.750, 130.520 140.500 C 119.399 132.250, 109.521 125.049, 108.569 124.498 C 106.480 123.288, 107.358 118, 109.648 118 C 110.436 118, 112.860 117.092, 115.037 115.981 C 125.921 110.428, 132.945 112.711, 144.698 125.622 C 153.053 134.801, 155.885 136.319, 159.143 133.371 C 162.078 130.715, 163.601 127.405, 166.520 117.344 C 169.019 108.732, 169.099 107.526, 169.579 71.356 C 169.896 47.442, 169.692 31.832, 169.005 27.533 C 167.773 19.819, 164.091 8, 162.921 8 C 162.482 8, 158.157 14.330, 153.311 22.066 M 107.500 13.061 C 103.100 13.544, 94.550 14.715, 88.500 15.665 C 78.427 17.245, 77.837 17.454, 81.500 18.138 C 83.700 18.549, 87.300 18.913, 89.500 18.948 C 98.235 19.086, 105 22.634, 105 27.077 C 105 28.219, 103.650 30.504, 102 32.154 C 100.350 33.804, 99 35.263, 99 35.396 C 99 35.530, 102.487 37.155, 106.750 39.008 C 126.453 47.573, 127.777 51.349, 115.708 64.563 L 110.170 70.627 116.499 72.313 C 119.980 73.241, 123.087 74, 123.404 74 C 123.721 74, 125.964 70.062, 128.388 65.250 C 130.813 60.438, 134.464 53.575, 136.501 50 L 140.206 43.500 138.110 37 C 136.958 33.425, 134.932 28.721, 133.609 26.546 L 131.203 22.592 135.351 18.880 C 138.773 15.819, 139.273 14.934, 138.203 13.834 C 136.614 12.201, 119.315 11.766, 107.500 13.061 M 154.898 24.522 C 142.335 44.497, 142.931 43.274, 143.974 46.908 C 144.485 48.691, 145.417 54.569, 146.045 59.970 C 148.006 76.840, 144.537 90.817, 136.728 97.501 C 132.864 100.809, 130.503 101.601, 118.067 103.765 C 113.954 104.481, 113.493 104.880, 111.680 109.298 C 110.605 111.917, 109.969 114.302, 110.266 114.599 C 110.563 114.896, 112.762 114.137, 115.153 112.911 C 118.119 111.391, 121.288 110.681, 125.128 110.675 C 132.700 110.664, 137.744 113.732, 146.962 123.958 C 151.123 128.573, 155.010 132, 156.086 132 C 158.604 132, 161.431 126.240, 164.548 114.754 C 166.725 106.731, 166.978 104.236, 166.447 96 C 166.110 90.775, 166.313 77.489, 166.898 66.476 C 168.081 44.199, 167.190 28.174, 164.226 18.439 L 162.432 12.545 154.898 24.522 M 74.813 18.683 C 75.534 18.972, 76.397 18.936, 76.729 18.604 C 77.061 18.272, 76.471 18.036, 75.417 18.079 C 74.252 18.127, 74.015 18.364, 74.813 18.683 M 70.619 21.807 C 69.151 22.440, 71.551 23.850, 81.567 28.238 C 95.041 34.141, 95.674 34.208, 100.250 30.217 C 103.144 27.692, 102.403 25.066, 98.313 23.358 C 94.185 21.633, 73.687 20.485, 70.619 21.807 M 95 46.036 C 85.031 49.412, 75.710 49.864, 66.922 47.398 C 61.666 45.923, 60.766 45.926, 55.571 47.436 C 45.982 50.224, 44.293 51.025, 46 51.977 C 46.825 52.437, 52.675 53.563, 59 54.479 C 79.434 57.441, 84 59.096, 84 63.545 C 84 65.430, 82.856 66.770, 79.347 68.995 C 76.787 70.618, 73.075 72.470, 71.097 73.110 C 60.137 76.659, 47.740 85.009, 45.491 90.360 C 43.595 94.867, 44.514 96, 50.066 96 C 55.800 96, 67.967 90.194, 77.567 82.876 C 85.908 76.518, 85.491 76.619, 89.979 79.870 C 93.977 82.766, 103.512 85.821, 104.735 84.598 C 105.769 83.564, 106.832 73.566, 106.003 72.668 C 105.581 72.210, 105.806 70.635, 106.504 69.168 C 108.103 65.804, 109.172 51.635, 108.177 47 C 107.211 42.498, 105.763 42.392, 95 46.036 M 111.045 54.730 L 111.090 65.500 115.581 60.500 C 122.673 52.606, 122.528 49.840, 114.817 45.907 L 111 43.959 111.045 54.730 M 133.728 60.855 C 130.028 67.926, 127.003 74.113, 127.008 74.605 C 127.012 75.097, 128.812 76.526, 131.008 77.780 C 138.426 82.016, 135.593 86.854, 124.773 88.428 C 119.424 89.206, 119.835 88.809, 117.025 95.935 L 114.924 101.268 120.212 100.596 C 134.876 98.734, 140.497 93.295, 143.079 78.469 C 144.530 70.133, 143.091 48, 141.097 48 C 140.745 48, 137.428 53.785, 133.728 60.855 M 108.989 76.250 C 108.983 77.487, 108.699 80.188, 108.358 82.250 L 107.738 86 113.119 85.990 C 118.472 85.980, 118.509 85.959, 120.230 81.862 C 121.182 79.598, 121.752 77.408, 121.497 76.995 C 120.990 76.175, 113.048 74, 110.557 74 C 109.612 74, 108.996 74.885, 108.989 76.250 M 123.305 81.487 C 122.390 83.406, 121.901 85.235, 122.219 85.552 C 123.076 86.409, 129.630 84.991, 131.655 83.510 C 133.270 82.330, 133.129 82.049, 129.958 80.115 C 128.056 78.956, 126.155 78.006, 125.734 78.004 C 125.312 78.002, 124.219 79.569, 123.305 81.487 M 106.636 93.640 C 105.481 102.063, 105.648 102.705, 108.869 102.232 C 111.343 101.869, 112.089 100.927, 114.280 95.406 L 116.822 89 112.047 89 L 107.272 89 106.636 93.640 M 104.630 107.250 C 102.494 115.220, 105.816 117.923, 108.406 110.322 C 110.377 104.536, 110.446 105, 107.617 105 C 105.990 105, 105.042 105.715, 104.630 107.250 M 89 107.177 C 84.875 107.675, 69.448 108.117, 54.718 108.159 L 27.936 108.236 30.352 112.368 C 31.733 114.729, 34.822 117.786, 37.558 119.500 C 42.040 122.307, 42.964 122.496, 51.924 122.440 C 58.479 122.400, 66.389 121.394, 77 119.252 C 85.525 117.530, 94.412 115.830, 96.750 115.473 C 99.213 115.097, 101 114.283, 101 113.537 C 101 112.829, 101.281 110.844, 101.625 109.125 C 102.343 105.533, 102.465 105.551, 89 107.177 M 103 120.059 C 103 121.191, 103.450 121.840, 104 121.500 C 104.550 121.160, 105 120.234, 105 119.441 C 105 118.648, 104.550 118, 104 118 C 103.450 118, 103 118.927, 103 120.059 M 102.079 125.583 C 102.127 126.748, 102.364 126.985, 102.683 126.188 C 102.972 125.466, 102.936 124.603, 102.604 124.271 C 102.272 123.939, 102.036 124.529, 102.079 125.583 M 105.124 128.196 C 104.647 129.463, 103.089 133.748, 101.661 137.718 C 94.795 156.814, 88.545 163.771, 74.474 167.978 C 71.393 168.900, 69.462 170.510, 66.242 174.841 C 61.414 181.336, 60.720 185, 64.318 185 C 72.528 185, 103.538 170.448, 120.100 158.823 C 121.419 157.897, 122.769 158.769, 127.794 163.794 C 134.195 170.195, 145.938 176.755, 155.018 179.002 C 161.607 180.633, 170.393 179.963, 170.805 177.797 C 171.303 175.175, 163.822 167.778, 153.678 160.863 C 148.630 157.422, 138.875 150.301, 132 145.038 C 125.125 139.776, 116.461 133.315, 112.746 130.681 C 106.048 125.933, 105.984 125.912, 105.124 128.196" stroke="none" fill="black" fill-rule="evenodd"/>
</svg>