<svg xmlns="http://www.w3.org/2000/svg" width="200" height="200" viewBox="0 0 200 200" version="1.1">
	<path d="M 126.500 15.115 C 97.957 23.573, 87.934 27.484, 84.500 31.503 C 82.700 33.609, 80.725 34.057, 64.779 35.978 C 36.224 39.418, 28.089 42.325, 33.830 47.038 C 36.768 49.450, 40.529 50.509, 55.500 53.144 C 62.100 54.306, 68.175 55.470, 69 55.731 C 69.825 55.992, 64.650 57.902, 57.500 59.976 C 34.143 66.752, 26.211 70.773, 28.577 74.638 C 30.228 77.337, 34.203 78.067, 50.695 78.700 L 65.890 79.283 57.309 84.392 C 40.671 94.296, 30.637 104.585, 33.110 109.205 C 34.731 112.235, 38.590 113.177, 44.727 112.043 C 53.788 110.368, 62.695 105.325, 70.750 97.311 C 76.974 91.118, 79.625 87, 77.387 87 C 77.050 87, 73.870 90.137, 70.320 93.972 C 65.389 99.298, 61.995 101.879, 55.942 104.909 C 45.011 110.380, 35 111.576, 35 107.410 C 35 103.389, 51.355 90.391, 67.749 81.384 C 70.636 79.798, 72.998 77.985, 72.999 77.356 C 73 76.552, 67.277 76.082, 53.750 75.774 C 28.152 75.192, 26.030 74.256, 38.523 69.055 C 44.935 66.386, 57.121 62.770, 75.815 57.991 C 81.370 56.571, 80.775 54.738, 74.418 53.686 C 54.239 50.344, 41.330 47.738, 38.187 46.372 L 34.500 44.770 37.500 43.468 C 40.512 42.162, 53.299 40.083, 73.167 37.671 L 83.833 36.376 84.504 46.438 C 85.289 58.225, 84.799 75.744, 83.614 78.250 C 83.032 79.480, 83.204 80, 84.193 80 C 85.244 80, 85.915 82.843, 86.851 91.250 L 88.104 102.500 85.302 104.800 C 78.329 110.523, 65.985 117.229, 58 119.631 C 53.325 121.038, 48.862 122.387, 48.083 122.627 C 45.689 123.367, 48.049 124.728, 57.500 128.057 C 68.957 132.092, 76 135.653, 76 137.411 C 76 138.280, 72.209 139.997, 65.750 142.056 C 57.220 144.775, 54.787 146.029, 51.250 149.530 C 47.293 153.447, 47.001 154.108, 47.010 159.118 C 47.024 167.068, 51.330 175.108, 63.209 189.366 L 65.597 192.232 71.548 189.242 C 83.770 183.100, 88.576 182.538, 129.043 182.518 C 162.243 182.502, 165.833 182.339, 168.277 180.737 C 173.792 177.125, 172.880 168.244, 165.450 153.192 C 159.906 141.961, 153.737 135, 149.326 135 C 144.838 135, 142.965 137.819, 141.763 146.381 L 140.707 153.905 136.713 150.486 C 134.516 148.606, 130.486 146.326, 127.757 145.419 C 115.221 141.256, 107.071 148.217, 107.022 163.130 L 107 169.760 99.250 168.353 C 90.452 166.756, 82.103 164.305, 80.238 162.772 C 78.371 161.238, 80.007 159.676, 91.173 152.338 C 102.637 144.803, 108.763 138.337, 109.641 132.844 C 109.979 130.730, 110.536 129.005, 110.878 129.011 C 111.220 129.017, 113.750 129.704, 116.500 130.539 C 134.493 135.999, 167 130.481, 167 121.967 C 167 117.833, 164.983 117.525, 134.099 116.935 C 101.873 116.319, 99.437 115.914, 95.146 110.459 C 90.877 105.031, 91.161 104.325, 102.143 93.048 L 112.321 82.597 111.646 90.697 L 110.970 98.797 114.014 101.359 C 118.171 104.856, 122.893 105.615, 127.129 103.467 C 128.983 102.527, 133.936 98.437, 138.135 94.379 C 146.181 86.603, 149.259 85.374, 152.231 88.750 C 154.564 91.399, 158.453 99.683, 161.004 107.435 L 163.286 114.370 165.202 109.493 C 173.179 89.185, 177.237 53.222, 173.528 35.716 C 170.848 23.070, 163.668 13.632, 155.749 12.347 C 152.199 11.771, 152.113 11.839, 149.161 17.631 C 146.714 22.435, 146.056 23.137, 145.537 21.500 C 145.188 20.400, 144.137 17.925, 143.201 16 C 141 11.471, 139.130 11.372, 126.500 15.115 M 118 20.591 C 97.825 26.580, 87 31.046, 87 33.381 C 87 34.198, 89.002 36.507, 91.449 38.512 C 96.218 42.419, 100 48.963, 100 53.305 C 100 57.546, 96.486 65.675, 92.195 71.358 L 88.247 76.587 89.190 87.001 C 89.708 92.729, 90.478 98.032, 90.900 98.786 C 91.456 99.779, 94.479 97.191, 101.834 89.430 C 109.907 80.912, 112 78.107, 112 75.810 C 112 74.219, 110.829 65.174, 109.398 55.709 C 107.966 46.244, 107.002 36.348, 107.254 33.717 C 108.198 23.871, 114.861 21.551, 127.575 26.640 C 134.764 29.518, 134.809 29.573, 135.852 36.650 L 136.567 41.500 140.214 35 C 143.611 28.945, 143.799 28.174, 142.958 23.736 C 141.799 17.618, 140.362 14.987, 138.215 15.050 C 137.272 15.077, 128.175 17.571, 118 20.591 M 150.215 21.519 C 147.444 27.137, 146.997 29.106, 146.980 35.769 C 146.957 44.904, 145.513 55.781, 143.834 59.465 C 141.779 63.975, 138.810 62.455, 136.643 55.785 L 134.787 50.070 129.775 57.785 C 127.019 62.028, 122.629 68.425, 120.019 72 C 115.319 78.439, 115.269 78.591, 114.672 88.127 C 114.011 98.699, 114.595 100.119, 120.178 101.512 C 124.459 102.581, 126.929 101.208, 135.500 93 C 143.932 84.925, 146.563 83.423, 150.530 84.418 C 153.498 85.163, 157.910 91.524, 161.218 99.827 L 163.739 106.154 165.916 98.089 C 170.662 80.500, 171.347 75.136, 171.425 55 C 171.495 36.807, 171.344 35.114, 169.172 29.734 C 165.740 21.232, 159.646 15, 154.764 15 C 154.030 15, 151.983 17.934, 150.215 21.519 M 111.035 28.934 C 109.467 31.864, 109.819 41.169, 112 54.500 C 113.080 61.100, 113.972 67.963, 113.982 69.750 C 114.016 75.808, 115.502 74.406, 126.433 58 L 134.096 46.500 133.476 40.500 C 132.562 31.656, 132.429 31.442, 126.384 29.129 C 119.168 26.367, 112.455 26.282, 111.035 28.934 M 140.232 40.552 C 137.186 45.856, 137.092 46.337, 138.138 51.302 C 139.755 58.986, 140.614 60.138, 142.013 56.500 C 143.136 53.582, 144.730 35, 143.858 35 C 143.618 35, 141.986 37.498, 140.232 40.552 M 87.519 55.161 C 87.916 64.147, 88.346 71.622, 88.474 71.770 C 88.602 71.919, 89.934 70.188, 91.432 67.923 C 96.521 60.233, 98.260 52.314, 95.875 47.684 C 94.390 44.800, 90.955 41.061, 88.649 39.819 C 86.869 38.860, 86.825 39.451, 87.519 55.161 M 79.551 112.065 C 74.629 115.350, 67.322 119.266, 63.312 120.768 C 59.302 122.271, 56.017 123.725, 56.012 124 C 56.007 124.275, 60.104 126.072, 65.117 127.993 C 77.483 132.732, 81.335 136.522, 77.591 140.266 C 76.817 141.041, 71.743 143.082, 66.317 144.802 C 51.451 149.514, 47.445 154.514, 50.472 164.575 C 51.933 169.427, 56.817 177.432, 62.798 184.773 C 66.009 188.715, 66.443 188.941, 68.390 187.678 C 71.736 185.507, 81.121 182.258, 88.095 180.857 C 92.578 179.956, 105.183 179.559, 130.094 179.535 C 158.752 179.507, 166.010 179.233, 167.344 178.128 C 170.806 175.258, 168.528 164.425, 161.795 151.743 C 158.422 145.389, 151.252 137, 149.194 137 C 148.563 137, 147.248 138.219, 146.273 139.709 C 144.849 141.884, 144.497 144.590, 144.486 153.459 C 144.472 164.409, 143.403 167.496, 141.787 161.256 C 139.410 152.086, 122.527 143.804, 115.540 148.382 C 111.146 151.261, 109.823 155.260, 110.179 164.590 C 110.356 169.218, 110.275 173.003, 110 173.001 C 107.954 172.986, 91.511 169.713, 87.039 168.431 C 79.766 166.346, 77 164.478, 77 161.651 C 77 158.791, 79.338 156.649, 89.500 150.195 C 102.487 141.948, 108.959 133.669, 107.370 127.336 C 106.761 124.912, 106.907 124.748, 109.103 125.387 C 124.020 129.723, 127.608 130.251, 138.480 129.714 C 153.846 128.953, 166.722 124.322, 163.216 120.816 C 162.481 120.081, 152.750 119.639, 133.808 119.482 C 115.774 119.332, 104.150 118.824, 101.781 118.085 C 97.032 116.602, 92.606 112.877, 91.008 109.020 C 90.320 107.359, 89.474 106.021, 89.129 106.047 C 88.783 106.072, 84.473 108.781, 79.551 112.065" stroke="none" fill="black" fill-rule="evenodd"/>
</svg>