<svg xmlns="http://www.w3.org/2000/svg" width="200" height="200" viewBox="0 0 200 200" version="1.1">
	<path d="M 139.500 11.483 C 136.750 12.226, 130.675 14.273, 126 16.030 C 121.325 17.788, 115.925 19.819, 114 20.544 C 112.075 21.268, 105.425 24.598, 99.223 27.943 C 90.391 32.706, 87.376 33.882, 85.318 33.365 C 83.055 32.797, 82.761 32.979, 83.203 34.670 C 83.694 36.544, 82.837 36.687, 64.609 37.769 C 50.767 38.592, 43.673 39.470, 38.870 40.955 C 27.968 44.328, 28.300 44.999, 43.298 49.928 C 57.189 54.492, 66.736 58.772, 68.932 61.418 C 71.705 64.759, 67.185 66.827, 51.500 69.393 C 34.232 72.217, 22.658 77.058, 25.758 80.158 C 26.408 80.808, 33.112 82.395, 40.656 83.686 C 61.233 87.208, 65.230 90.685, 56.933 97.847 C 40.143 112.340, 34 119.768, 34 125.573 C 34 134.698, 47.047 132.621, 62.108 121.099 C 71.596 113.840, 76.830 107.828, 85.265 94.500 C 94.301 80.221, 98.138 73.069, 101.057 65.064 L 103.223 59.123 108.419 65.176 L 113.614 71.228 112.348 77.364 C 109.135 92.931, 118.484 119, 127.279 119 C 130.941 119, 134.618 114.104, 136.095 107.262 C 136.780 104.093, 137.508 101.293, 137.714 101.039 C 137.920 100.786, 139.117 101.868, 140.373 103.443 C 142.570 106.199, 142.611 106.580, 141.423 113.404 C 139.625 123.731, 137.126 132.833, 134.879 137.237 L 132.912 141.093 126.751 140.797 C 120.862 140.513, 120.456 140.323, 117.545 136.474 C 115.870 134.260, 113.825 131.418, 113 130.158 C 108.945 123.969, 79.056 125.396, 68.976 132.260 C 64.049 135.616, 63.207 137.466, 65.468 139.965 C 69.251 144.144, 77.026 145.532, 94.500 145.148 C 103.300 144.954, 112.975 144.752, 116 144.699 C 119.025 144.645, 122.986 145.249, 124.802 146.040 C 127.760 147.328, 128.420 147.296, 131.151 145.728 C 133.733 144.246, 134.789 144.156, 138.064 145.137 C 140.189 145.774, 142.957 147.391, 144.214 148.731 C 147.779 152.529, 147.354 162.139, 143.169 172.392 C 140.066 179.992, 140.012 180.356, 141.723 182.248 C 146.681 187.730, 155.998 189.518, 161.650 186.072 C 165.634 183.643, 170.491 173.977, 172.489 164.500 C 174.742 153.817, 174.221 131.888, 171.654 129.321 C 171.367 129.034, 170.670 129.086, 170.105 129.435 C 169.404 129.868, 169.422 130.937, 170.160 132.785 C 171.849 137.017, 171.488 157.443, 169.582 165.500 C 167.440 174.558, 163.386 181.896, 159.175 184.341 C 156.323 185.997, 155.312 186.110, 152.060 185.136 C 149.976 184.512, 147.131 183.105, 145.739 182.009 L 143.207 180.018 146.041 172.719 C 149.597 163.563, 150.613 156.387, 149.033 151.600 C 147.727 147.643, 143.106 143.556, 138.690 142.454 C 136.594 141.931, 136.055 141.340, 136.568 140.127 C 139.892 132.263, 141.483 127.238, 143.056 119.639 C 144.064 114.765, 145.092 110.574, 145.340 110.326 C 145.588 110.078, 148.591 113.728, 152.012 118.438 C 157.785 126.383, 160 128.480, 160 126 C 160 125.450, 160.506 125.113, 161.125 125.250 C 161.744 125.388, 162.456 124.938, 162.708 124.250 C 162.960 123.563, 162.627 123, 161.967 123 C 161.307 123, 162.343 121.256, 164.268 119.125 C 171.455 111.170, 173.308 106.700, 173.593 96.627 C 173.734 91.607, 174.389 78.500, 175.046 67.500 C 177.227 31.034, 172.761 11.197, 162.596 12.201 C 158.529 12.602, 155.685 16.998, 153.520 26.231 C 152.583 30.229, 151.589 34.328, 151.312 35.340 C 150.939 36.702, 150.184 35.832, 148.402 31.986 L 145.996 26.793 148.968 23.040 C 151.426 19.936, 154 15.060, 154 13.506 C 154 13.306, 153.293 12.436, 152.429 11.571 C 150.542 9.685, 146.260 9.656, 139.500 11.483 M 140 14.133 C 138.075 14.657, 133.134 16.290, 129.019 17.761 C 120.580 20.779, 119.903 20.132, 135.352 23.813 L 143.204 25.683 147.102 20.752 C 149.246 18.040, 151 15.186, 151 14.410 C 151 12.766, 145.528 12.628, 140 14.133 M 160.576 15.916 C 158.064 18.691, 155.311 28.342, 153.504 40.709 C 151.228 56.283, 148.116 84.379, 148.583 85.135 C 148.803 85.490, 150.068 92.018, 151.394 99.640 C 152.720 107.263, 154.292 114.749, 154.887 116.276 C 157.209 122.227, 160.597 120.657, 167.153 110.595 C 170.764 105.052, 170.999 104.225, 170.988 97.095 C 170.982 92.918, 171.522 79.928, 172.188 68.228 C 173.883 38.484, 171.552 19.602, 165.679 15.488 C 162.964 13.586, 162.662 13.611, 160.576 15.916 M 112.757 24.313 C 111.248 24.901, 109.758 26.186, 109.446 27.170 C 109.134 28.154, 110.480 35.381, 112.439 43.229 C 114.397 51.078, 116.059 60.342, 116.132 63.816 L 116.264 70.132 125.882 81.587 C 135.305 92.810, 135.510 92.981, 136 90.005 C 136.635 86.151, 141.509 80, 143.929 80 C 145.876 80, 146.181 78.770, 147.605 65.220 L 148.265 58.941 145.237 60.679 C 142.728 62.119, 141.760 62.211, 139.585 61.220 C 138.141 60.563, 136.519 58.865, 135.980 57.447 C 134.407 53.311, 134.843 43.932, 137 35.500 C 138.100 31.199, 139 27.592, 139 27.485 C 139 27.142, 123.653 24.157, 119.500 23.693 C 117.300 23.446, 114.266 23.726, 112.757 24.313 M 140.624 32.221 C 136.170 47.542, 137.060 59.920, 142.538 58.844 C 148.302 57.712, 150.715 45.572, 147.091 35.940 C 145.940 32.882, 144.380 29.535, 143.625 28.502 C 142.366 26.780, 142.115 27.091, 140.624 32.221 M 98.837 31.126 L 93.173 34.200 97.482 38.350 C 101.771 42.481, 103.983 47.520, 103.994 53.189 C 103.999 55.491, 107.738 60.899, 113.196 66.500 C 114.773 68.118, 113.066 56.691, 109.880 44.304 C 108.296 38.146, 107 31.958, 107 30.554 C 107 27.280, 105.765 27.367, 98.837 31.126 M 93.157 43.102 C 95.546 45.909, 98.277 49.171, 99.228 50.352 C 100.670 52.145, 100.959 52.222, 100.978 50.815 C 101.047 45.603, 95.257 38, 91.220 38 C 88.932 38, 89.026 38.250, 93.157 43.102 M 69.571 40.091 C 53.957 40.864, 40.873 42.483, 38.107 43.984 C 37.215 44.468, 40.275 45.926, 46.607 48.036 C 64.365 53.951, 73 58.853, 73 63.016 C 73 66.018, 68.337 68.798, 60.683 70.357 C 56.732 71.162, 49.689 72.579, 45.030 73.506 C 36.934 75.118, 28.513 77.847, 29.278 78.611 C 29.476 78.810, 34.889 79.870, 41.305 80.967 C 58.244 83.862, 64 86.673, 64 92.049 C 64 95.222, 61.346 98.235, 51.828 105.871 C 44.493 111.754, 39.956 116.927, 37.367 122.357 C 31.743 134.149, 51.078 128.305, 66.860 113.442 C 77.999 102.952, 95.188 75.372, 99.307 61.381 L 100.814 56.263 93.359 47.631 C 89.259 42.884, 85.813 39.068, 85.702 39.151 C 85.591 39.234, 78.332 39.657, 69.571 40.091 M 114.486 80.267 C 113.345 89.400, 117.480 106.007, 122.550 112.655 C 127.675 119.373, 131.834 115.924, 134.246 102.954 C 135.252 97.543, 135.173 96.800, 133.372 94.752 C 132.284 93.513, 128.106 88.563, 124.088 83.750 C 120.071 78.938, 116.415 75, 115.964 75 C 115.513 75, 114.848 77.370, 114.486 80.267 M 140.852 85.750 C 139.984 87.263, 139.004 90.256, 138.675 92.401 C 138.187 95.582, 138.514 96.822, 140.445 99.117 C 143.328 102.544, 143.599 102.016, 144.549 91.126 C 145.131 84.456, 145.005 83, 143.845 83 C 143.067 83, 141.721 84.237, 140.852 85.750 M 146.724 96.500 C 145.575 103.048, 145.887 106.041, 148 108.727 C 150.413 111.795, 150.464 111.111, 148.650 100 C 147.454 92.670, 147.410 92.591, 146.724 96.500 M 81.389 130.488 C 74.097 132.075, 66.715 135.635, 67.258 137.304 C 68.290 140.473, 79.288 143.082, 91.500 143.054 C 98.944 143.036, 115.864 141.469, 116.605 140.728 C 116.786 140.548, 115.354 138.172, 113.424 135.450 C 111.213 132.330, 108.914 130.266, 107.208 129.868 C 102.455 128.760, 87.708 129.114, 81.389 130.488" stroke="none" fill="black" fill-rule="evenodd"/>
</svg>