<svg xmlns="http://www.w3.org/2000/svg" width="200" height="200" viewBox="0 0 200 200" version="1.1">
	<path d="M 124.407 9.383 C 124.115 10.143, 125.096 13.631, 126.587 17.133 C 132.002 29.852, 131.954 30.490, 124.292 47.750 C 120.568 56.138, 117.288 63, 117.001 63 C 115.470 63, 113.608 57.591, 111.990 48.441 C 108.882 30.874, 105.672 27.011, 94.176 27.004 C 88.115 27, 73.842 30.817, 71.567 33.051 C 69.398 35.179, 72.371 35.046, 79.687 32.686 C 90.231 29.284, 94.246 28.720, 98.935 29.982 C 104.767 31.553, 106.811 35.142, 109.059 47.756 C 110.112 53.665, 110.979 58.803, 110.987 59.173 C 110.994 59.544, 112.147 61.209, 113.548 62.875 L 116.097 65.904 113.937 70.925 L 111.777 75.946 105.897 75.331 C 96.393 74.338, 90.194 78.023, 71.963 95.503 C 54.238 112.498, 48.493 116, 38.340 116 C 33.553 116, 32 115.655, 32 114.591 C 32 112.900, 38.599 106.106, 53.852 92.095 C 60.082 86.372, 65.530 80.747, 65.958 79.595 C 67.825 74.575, 64.494 73.506, 53.739 75.673 L 45.864 77.260 37.432 73.081 C 25.134 66.988, 25.532 66.612, 46 64.987 C 68.281 63.219, 79.095 59.972, 83.479 53.735 C 85.049 51.500, 85.049 51.500, 78.254 50.872 C 65.139 49.661, 41.138 42.281, 37.995 38.494 C 36.362 36.526, 41.850 35.263, 55.750 34.408 C 71.771 33.422, 70.157 31.676, 53.670 32.158 C 39.339 32.577, 35 33.943, 35 38.038 C 35 42.407, 50.936 48.661, 75 53.738 L 79.500 54.687 74.923 56.814 C 69.619 59.278, 56.584 61.608, 43 62.520 C 30.665 63.348, 26 64.540, 26 66.864 C 26 69.560, 29.676 72.477, 38.123 76.485 L 45.745 80.101 54.324 78.335 C 59.042 77.364, 63.201 76.868, 63.565 77.232 C 64.584 78.251, 60.615 82.859, 52.694 89.852 C 39.784 101.251, 29.950 111.350, 29.321 113.856 C 28.419 117.452, 31.198 119, 38.557 119 C 48.880 119, 55.841 114.766, 73.973 97.461 C 90.325 81.853, 96.135 77.990, 103.217 78.015 C 110.726 78.042, 110.726 78.115, 103.192 95.489 L 96.325 111.323 91.842 112.461 C 87.528 113.557, 78 118.497, 78 119.638 C 78 119.942, 78.841 121.386, 79.869 122.846 C 82.281 126.270, 86 133.619, 86 134.960 C 86 137.196, 82.364 135.694, 69.039 127.952 C 54.210 119.337, 49.338 117.683, 47.017 120.479 C 45.861 121.873, 45.841 122.852, 46.903 126.327 C 47.605 128.622, 48.566 138.967, 49.038 149.316 C 49.973 169.796, 51.410 176.957, 55.582 181.915 C 61.122 188.499, 70.681 187.851, 86.752 179.803 C 91.290 177.530, 95.150 175.857, 95.328 176.085 C 95.507 176.313, 96.663 178.179, 97.897 180.232 C 100.967 185.339, 105 188.001, 109.654 187.995 C 114.393 187.989, 118.401 185.604, 128.978 176.500 C 138.125 168.627, 142.355 166, 145.889 166 C 149.552 166, 155.269 172.670, 157.980 180.108 C 159.262 183.624, 160.637 186.874, 161.036 187.331 C 162.002 188.436, 168.904 184.833, 171.832 181.696 C 177.685 175.423, 175.221 167.445, 162.967 153 C 148.695 136.176, 145.823 129.698, 149.506 122.636 C 150.328 121.060, 151 119.428, 151 119.008 C 151 118.085, 141.059 114.339, 135.500 113.168 C 133.079 112.657, 131.613 111.822, 131.787 111.050 C 133.748 102.355, 135.013 95.278, 135.070 92.685 L 135.141 89.500 136.472 93.116 C 137.204 95.105, 138.308 99.166, 138.926 102.141 C 139.543 105.117, 140.931 109.002, 142.010 110.775 C 146.147 117.578, 151.264 113.819, 159.468 97.949 C 163.705 89.753, 163.842 89.216, 162.776 85.016 C 161.952 81.770, 161.970 76.984, 162.845 66.566 C 165.235 38.117, 164.050 25.778, 158.267 18.905 C 155.024 15.051, 148.782 12.052, 143.943 12.022 C 140.488 12.001, 140.294 12.206, 137.198 19.172 C 135.446 23.117, 133.747 26.080, 133.423 25.756 C 133.099 25.432, 132.422 21.867, 131.919 17.834 C 131.304 12.910, 130.447 10.089, 129.311 9.250 C 127.088 7.609, 125.066 7.663, 124.407 9.383 M 127.015 11.691 C 127.024 12.136, 127.467 13.175, 128 14 C 128.835 15.293, 128.971 15.266, 128.985 13.809 C 128.993 12.879, 128.550 11.840, 128 11.500 C 127.450 11.160, 127.007 11.246, 127.015 11.691 M 140.619 18.250 C 139.844 20.038, 138.281 23.550, 137.145 26.055 C 135.217 30.306, 135.176 30.935, 136.539 35.464 C 138.290 41.281, 138.375 51.418, 136.705 55.304 C 135.854 57.284, 135.681 61.988, 136.117 71.304 C 136.623 82.136, 137.360 86.709, 140.232 96.829 C 142.156 103.610, 144.396 109.824, 145.210 110.638 C 146.516 111.944, 147.061 111.695, 149.859 108.507 C 151.603 106.521, 154.782 101.411, 156.924 97.152 C 160.551 89.937, 160.756 89.076, 159.914 84.568 C 159.312 81.346, 159.509 73.343, 160.505 60.614 C 162.051 40.854, 161.849 34.750, 159.387 26.911 C 157.197 19.937, 151.005 15, 144.448 15 C 142.672 15, 141.652 15.866, 140.619 18.250 M 134.176 39.500 C 134.143 40.600, 134.488 43.300, 134.943 45.500 C 135.638 48.863, 135.769 49.022, 135.767 46.500 C 135.763 42.997, 134.269 36.425, 134.176 39.500 M 125.271 52.250 C 121.436 60.783, 120.558 63.579, 121.635 63.829 C 123.385 64.234, 131.601 59.530, 132.207 57.777 C 132.891 55.800, 131.874 41, 131.054 41 C 130.654 41, 128.052 46.063, 125.271 52.250 M 129.302 63.635 C 127.543 65.033, 124.353 66.411, 122.213 66.698 C 118.852 67.149, 118.131 67.716, 116.916 70.860 C 116.143 72.862, 115.361 74.829, 115.178 75.231 C 114.995 75.633, 116.441 75.296, 118.391 74.481 C 123.137 72.498, 125.864 72.620, 129.750 74.989 L 133 76.971 133 68.985 C 133 64.593, 132.887 61.021, 132.750 61.047 C 132.613 61.073, 131.061 62.237, 129.302 63.635 M 116.981 78.292 C 112.815 80.495, 112.391 81.176, 105.972 95.991 L 99.296 111.399 102.398 112.949 C 104.614 114.057, 106.079 115.958, 107.525 119.601 L 109.549 124.702 115.025 119.729 C 118.036 116.994, 122.378 113.906, 124.673 112.866 C 128.657 111.060, 128.914 110.671, 130.368 104.237 C 131.205 100.532, 132.200 94.038, 132.578 89.806 C 133.260 82.174, 133.241 82.087, 130.210 79.056 C 126.478 75.324, 122.975 75.122, 116.981 78.292 M 89.560 116.069 C 81.656 119.080, 81.298 119.842, 84.858 126.076 C 87.796 131.220, 87.930 131.316, 88.840 128.949 C 89.358 127.602, 90.962 123.843, 92.404 120.596 C 93.846 117.349, 94.908 114.579, 94.763 114.440 C 94.618 114.302, 92.277 115.035, 89.560 116.069 M 94.685 122.316 C 88.809 136.074, 80.170 158.328, 79.475 161.500 L 78.817 164.500 80.960 161.500 C 82.138 159.850, 84.186 156.412, 85.512 153.861 C 86.837 151.309, 88.546 148.597, 89.309 147.834 C 90.072 147.071, 94.379 142.202, 98.881 137.014 C 106.253 128.518, 107.004 127.278, 106.434 124.540 C 105.509 120.093, 102.810 115.835, 100.340 114.926 C 98.379 114.204, 97.860 114.883, 94.685 122.316 M 123.357 116.617 C 121.236 118.031, 117.362 121.267, 114.750 123.807 L 110 128.425 110 145.778 C 110 162.368, 110.678 167, 113.105 167 C 116.078 167, 129.602 131.949, 130.717 121.354 C 131.186 116.899, 130.987 116.063, 129.236 115.126 C 127.600 114.251, 126.479 114.535, 123.357 116.617 M 133.526 121.651 C 132.490 129.950, 126.797 146.754, 120.956 158.750 C 116.304 168.302, 115.764 169, 113.017 169 C 108.306 169, 107.560 166.434, 107 148.298 L 106.500 132.095 98.444 141.798 C 94.013 147.134, 88.302 154.894, 85.753 159.042 C 83.203 163.190, 80.255 167.364, 79.202 168.317 C 77.523 169.837, 77.136 169.868, 76.059 168.571 C 74.603 166.817, 75.958 161.497, 81.354 147.783 C 84.761 139.121, 84.770 139.062, 82.642 138.406 C 81.464 138.043, 74.784 134.421, 67.797 130.357 C 53.508 122.046, 49 120.487, 49 123.855 C 49 125.012, 49.643 127.656, 50.428 129.730 C 51.387 132.261, 52.017 139.414, 52.346 151.500 C 52.884 171.270, 53.719 175.536, 57.982 180.303 C 60.593 183.224, 61.344 183.495, 66.670 183.446 C 72.731 183.390, 80.211 180.648, 90.294 174.787 C 92.931 173.254, 95.406 172.001, 95.794 172.003 C 96.182 172.004, 97.625 174.110, 99 176.682 C 103.325 184.772, 109.073 187.163, 115.666 183.612 C 117.225 182.772, 122.959 178.238, 128.409 173.535 C 139.925 163.598, 144.152 161.749, 149.507 164.302 C 153.661 166.283, 158.179 172.276, 160.605 179.023 C 161.590 181.760, 162.966 184, 163.663 184 C 164.360 184, 166.521 182.603, 168.465 180.896 C 175.102 175.069, 173.338 169.749, 159.059 152.526 C 146.479 137.351, 143.882 131.293, 146.279 122.711 C 146.987 120.174, 146.734 119.787, 143.476 118.425 C 141.506 117.602, 138.625 116.675, 137.074 116.365 C 134.298 115.810, 134.244 115.890, 133.526 121.651" stroke="none" fill="black" fill-rule="evenodd"/>
</svg>