<svg xmlns="http://www.w3.org/2000/svg" width="200" height="200" viewBox="0 0 200 200" version="1.1">
	<path d="M 131 17.173 C 131 19.560, 131.451 23.085, 132.003 25.007 C 132.555 26.928, 134.146 36.135, 135.540 45.468 L 138.074 62.435 135.787 64.201 C 134.529 65.172, 131.525 66.734, 129.112 67.672 C 124.818 69.341, 124.687 69.331, 123 67.249 C 121.937 65.935, 120.837 61.689, 120.127 56.154 C 118.781 45.658, 116.800 39.486, 113.716 36.183 C 111.177 33.464, 106.819 31, 104.550 31 C 102.020 31, 102.785 32.968, 105.750 34.088 C 109.602 35.544, 113.772 39.769, 114.954 43.415 C 115.505 45.112, 116.612 50.924, 117.416 56.331 C 118.219 61.739, 119.590 67.251, 120.461 68.581 C 122.598 71.842, 128.055 71.802, 133.859 68.484 L 138.219 65.992 137.681 68.246 C 137.386 69.486, 136.605 73.303, 135.946 76.728 L 134.748 82.957 131.940 80.957 C 121.407 73.457, 104.013 74.161, 94.293 82.481 C 92.099 84.359, 88.380 88.506, 86.027 91.698 C 80.984 98.539, 75.020 103.670, 65.082 109.718 C 53.184 116.958, 37.158 122.683, 35.645 120.234 C 34.460 118.318, 40.615 111.028, 50 103.231 C 60.729 94.317, 68 86.769, 68 84.545 C 68 82.103, 63.983 80.295, 56 79.145 C 46.441 77.768, 39.549 75.669, 34.533 72.608 L 30.566 70.188 35.033 69.667 C 67.258 65.914, 75.072 64.461, 82.127 60.910 C 92.948 55.464, 83.395 49.134, 61.156 47.015 C 50.326 45.983, 43.446 44.531, 42.556 43.090 C 41.772 41.821, 50.579 38.336, 57.922 37.010 C 65.767 35.593, 80.162 35.216, 85.250 36.295 C 88.205 36.922, 89 36.788, 89 35.662 C 89 33.599, 85.819 33.029, 74.208 33.014 C 55.346 32.989, 37.676 38.386, 39.664 43.566 C 40.959 46.941, 46.694 48.527, 62.718 49.943 C 72.392 50.798, 84 54.172, 84 56.128 C 84 60.111, 48.927 67, 28.652 67 L 23.651 67 26.076 69.595 C 31.555 75.461, 42.748 80.123, 56.009 82.062 C 60.419 82.706, 64.300 83.677, 64.635 84.218 C 65.385 85.432, 55.376 95.616, 46.174 103 C 29.675 116.239, 28.154 126.382, 43.247 122.515 C 60.092 118.200, 82.849 102.939, 89.589 91.439 C 92.113 87.131, 98.136 82.321, 104 79.928 C 109.822 77.553, 120.612 78.180, 126.563 81.241 C 134.526 85.335, 134.363 84.575, 131.210 103.002 C 128.608 118.204, 128.255 119.364, 125.960 120.253 C 124.433 120.844, 116.862 120.882, 106 120.353 C 66.822 118.444, 61 119.288, 61 126.876 C 61 129.540, 61.912 131.959, 64.006 134.850 C 67.567 139.766, 64.549 139.539, 98.885 137.468 C 112.847 136.626, 124.512 136.179, 124.808 136.475 C 125.341 137.007, 122.792 153.130, 120.741 162.203 L 119.678 166.905 111.829 159.521 C 92.343 141.190, 77.006 141.811, 75.266 161.002 L 74.751 166.680 67.128 167.865 C 55.295 169.705, 52.908 173.849, 61.339 177.914 C 74.922 184.463, 105.580 185.950, 115.871 180.559 C 117.760 179.570, 118.980 179.570, 121.871 180.560 C 135.678 185.286, 161.672 181.423, 167.311 173.807 C 169.222 171.226, 169.233 171.005, 167.568 168.464 C 165.554 165.389, 159.945 162.730, 151.645 160.915 C 147.207 159.945, 144.715 158.651, 141.349 155.567 C 136.495 151.122, 135.196 147.102, 136.450 140.413 L 137.144 136.715 146.524 137.374 C 151.683 137.737, 158.249 138.478, 161.114 139.022 C 163.979 139.565, 166.522 139.811, 166.765 139.569 C 167.409 138.924, 163.101 126.258, 160.407 120.875 C 157.573 115.211, 155.198 114.037, 152.734 117.080 C 150.718 119.570, 150.497 119.490, 149.736 116 C 149.286 113.935, 149.908 112.975, 153.308 110.486 C 158.853 106.426, 162.623 100.729, 164.549 93.500 C 165.932 88.305, 167.188 68.236, 168.301 33.500 C 168.372 31.300, 167.615 27.034, 166.619 24.020 C 160.400 5.192, 152.208 10.667, 144.227 38.984 L 142.400 45.468 139.531 38.484 C 137.954 34.643, 135.951 27.486, 135.081 22.581 C 133.357 12.853, 131 9.731, 131 17.173 M 153.738 20.750 C 151.059 25.682, 145 44.760, 145 48.262 C 145 49.363, 145.964 51.824, 147.143 53.731 L 149.286 57.199 145.114 60.850 L 140.942 64.500 144.471 86.429 C 146.412 98.489, 148 108.727, 148 109.179 C 148 112.234, 156.256 105.384, 158.947 100.095 C 162.467 93.177, 163.163 88.311, 164.184 63.500 C 165.694 26.772, 165.746 28.287, 162.748 21.750 C 159.386 14.421, 157.301 14.189, 153.738 20.750 M 138.605 47.500 C 139.333 53.288, 140.533 55.221, 141.208 51.691 C 141.466 50.344, 140.844 47.725, 139.826 45.871 L 137.976 42.500 138.605 47.500 M 142.770 56.420 C 142.443 58.135, 142.695 58.671, 143.656 58.302 C 145.173 57.720, 145.458 55.401, 144.114 54.571 C 143.627 54.270, 143.022 55.102, 142.770 56.420 M 138.233 79.317 C 137.116 84.763, 137.183 85.329, 139.270 88.167 C 141.137 90.706, 141.544 90.898, 141.771 89.350 C 141.921 88.332, 141.454 84.350, 140.734 80.500 L 139.426 73.500 138.233 79.317 M 134.054 102.613 C 132.799 110.213, 131.522 117.082, 131.217 117.876 C 130.790 118.989, 131.219 119.168, 133.081 118.653 C 134.412 118.286, 138.103 117.698, 141.285 117.346 C 144.837 116.954, 146.924 116.282, 146.692 115.604 C 146.484 114.997, 145.374 114.636, 144.224 114.802 C 142.269 115.084, 142.170 114.755, 142.689 109.727 C 143.309 103.713, 141.198 95.028, 138.171 91.147 C 136.345 88.806, 136.326 88.861, 134.054 102.613 M 153.850 121 C 152.862 123.836, 149 125.428, 149 123 C 149 120.772, 147.140 122.279, 143.666 127.323 C 141.650 130.251, 140 132.893, 140 133.194 C 140 133.863, 161.974 136.359, 162.576 135.757 C 163.542 134.792, 156.777 118, 155.422 118 C 155.133 118, 154.425 119.350, 153.850 121 M 135 121.168 C 130.427 122.459, 130.322 122.604, 129.508 128.750 L 128.812 134 132.369 134 C 135.584 134, 136.296 133.448, 139.789 128.250 C 145.627 119.560, 145.521 119.989, 141.809 120.090 C 139.989 120.140, 136.925 120.625, 135 121.168 M 66.836 123.062 C 63.042 124.553, 62.648 126.634, 65.261 131.364 L 67.546 135.500 76.523 135.460 C 96.708 135.371, 126.001 133.676, 126.044 132.595 C 126.068 131.993, 126.442 129.669, 126.876 127.432 L 127.665 123.364 117.582 123.432 C 112.037 123.469, 98.950 123.166, 88.500 122.757 C 75.886 122.264, 68.605 122.367, 66.836 123.062 M 127.533 140.750 C 125.836 152.371, 121.896 169.532, 120.636 170.793 C 119.461 171.968, 118.840 171.601, 116.474 168.337 C 110.024 159.436, 94.833 149.065, 88.184 149.022 C 81.243 148.976, 78.895 152.102, 78.061 162.500 L 77.500 169.500 70.231 170.225 C 62.750 170.971, 58.536 172.440, 59.483 173.972 C 60.295 175.286, 71.614 178.773, 79.263 180.066 C 82.983 180.695, 91.308 181.048, 97.763 180.850 C 107.299 180.557, 110.312 180.085, 113.832 178.330 C 117.965 176.269, 118.331 176.245, 121.832 177.803 C 127.690 180.410, 148.652 180.029, 156.476 177.174 C 159.763 175.974, 163.334 174.110, 164.413 173.032 C 166.328 171.116, 166.330 171.023, 164.509 169.010 C 162.884 167.214, 154.920 164.309, 146.973 162.613 C 143.366 161.843, 136.564 155.709, 134.504 151.368 C 133.164 148.544, 132.894 146.291, 133.359 141.835 L 133.969 136 131.098 136 C 128.437 136, 128.176 136.347, 127.533 140.750" stroke="none" fill="black" fill-rule="evenodd"/>
</svg>