<svg xmlns="http://www.w3.org/2000/svg" width="200" height="200" viewBox="0 0 200 200" version="1.1">
	<path d="M 97.500 10.625 C 88.990 11.304, 70.668 14.025, 67.250 15.117 C 62.989 16.478, 63.084 18.737, 67.435 19.554 C 71.190 20.258, 73 19.609, 73 17.556 C 73 15.532, 83.798 14.396, 85.330 16.259 C 85.973 17.042, 90.133 19.775, 94.574 22.333 C 99.015 24.891, 104.415 28.590, 106.574 30.554 L 110.500 34.125 106.500 33.621 C 104.300 33.344, 95.589 31.536, 87.142 29.604 C 65.858 24.734, 63 24.356, 63 26.411 C 63 27.312, 64.237 28.534, 65.750 29.127 C 71.191 31.259, 91.122 35.957, 97.494 36.610 C 101.072 36.976, 104 37.575, 104 37.941 C 104 38.905, 95.389 41.821, 89 43.020 C 81.598 44.409, 71.059 42.769, 59.362 38.407 C 54.336 36.533, 49.997 35, 49.720 35 C 49.444 35, 48.472 36.864, 47.560 39.141 C 43.452 49.409, 49.484 54.380, 71.121 58.558 C 81.753 60.611, 83.261 61.428, 80.500 63.641 C 77.319 66.191, 61.700 73.262, 46.500 79.032 C 38.800 81.956, 32.050 84.753, 31.500 85.248 C 30.037 86.566, 35.470 90.592, 40.681 92.051 C 46.671 93.728, 54.876 92.728, 73.361 88.066 C 94.029 82.855, 102.406 81.609, 112.267 82.282 C 125.594 83.191, 132 86.341, 132 91.985 C 132 93.289, 119.781 95.773, 107.500 96.967 C 81.134 99.528, 75.470 99.712, 67.389 98.270 C 57.638 96.530, 43.687 97.076, 39.247 99.372 C 33.286 102.455, 32.584 106.318, 37.060 111.416 C 41.886 116.912, 49.362 119.291, 62 119.351 C 73.393 119.406, 82.504 117.414, 94.316 112.285 C 99.841 109.886, 101.618 109.616, 111 109.751 C 116.775 109.835, 125.550 110.715, 130.500 111.708 L 139.500 113.514 139.805 118.257 C 140.048 122.037, 139.790 123, 138.533 123 C 137.666 123, 136.437 124.142, 135.800 125.539 C 135.004 127.286, 134.154 127.870, 133.072 127.414 C 121.164 122.387, 107.183 120.590, 85.500 121.300 C 63.060 122.034, 53 124.835, 53 130.349 C 53 134.640, 61.795 140.182, 71.270 141.860 L 75.500 142.610 70.591 146.055 C 59.272 153.998, 55.767 157.271, 53.784 161.754 C 52.049 165.679, 51.934 166.835, 52.944 170.208 C 54.402 175.074, 59.713 180.466, 68.017 185.510 L 74.402 189.389 85.309 187.160 C 96.933 184.784, 103.303 182.171, 104.945 179.104 C 106.470 176.254, 103.125 172.702, 93.906 167.385 C 89.558 164.877, 86 162.262, 86 161.573 C 86 159.696, 90.152 158.158, 99.732 156.487 C 104.471 155.661, 108.424 154.876, 108.517 154.742 C 108.609 154.609, 109.394 152.025, 110.262 149 L 111.839 143.500 111.919 149.526 C 112.042 158.716, 113.837 171.262, 116.057 178.450 C 120.958 194.315, 132.513 197.586, 147.695 187.406 C 151.720 184.706, 155.395 183, 157.182 183 C 162.812 183, 168.666 178.451, 171.355 171.986 C 177.745 156.622, 169.627 124.935, 157.124 116.438 C 153.646 114.075, 153.616 114, 156.120 114 C 159.453 114, 164.853 110.342, 167.651 106.190 C 170.403 102.107, 172 94.833, 172 86.389 C 172 82.807, 172.742 77.608, 173.649 74.835 C 176.969 64.683, 173.507 29.794, 168.134 19.262 C 164.322 11.790, 160.066 12.769, 156.080 22.036 C 153.773 27.399, 149.525 44.462, 148.434 52.750 C 148.053 55.638, 147.463 57.997, 147.121 57.993 C 146.780 57.989, 144.686 54.446, 142.469 50.120 L 138.437 42.255 143.680 36.622 C 149.972 29.862, 152.159 24.140, 149.942 20.235 C 146.078 13.427, 137.973 11.009, 117.500 10.557 C 109.250 10.375, 100.250 10.405, 97.500 10.625 M 92.500 13.918 L 86.500 14.500 92.500 17.892 C 107.428 26.329, 114.688 32.712, 112.195 35.205 C 111.391 36.009, 112.264 37.612, 115.415 41.117 C 121.010 47.340, 126.928 58.831, 131.318 72 C 135.639 84.960, 136.827 90.629, 134.984 89.490 C 134.127 88.961, 133.935 89.086, 134.414 89.861 C 135.321 91.328, 140.581 88.485, 142.616 85.430 C 143.374 84.291, 144.498 79.616, 145.114 75.041 C 146.454 65.083, 145.804 62.242, 139.411 50.131 L 134.993 41.762 140.983 35.359 C 147.188 28.725, 148.644 25.702, 147.612 21.591 C 146.828 18.467, 140.512 15.419, 132 14.056 C 125.268 12.978, 102.995 12.900, 92.500 13.918 M 160.537 19.303 C 156.034 26.175, 149.984 53.790, 149.539 69.500 C 149.369 75.497, 148.660 80.901, 147.768 83 C 146.127 86.863, 143.490 109.366, 144.489 110.982 C 144.835 111.542, 147.007 112, 149.316 112 C 163.096 112, 168.669 104.745, 169.378 85.886 C 169.551 81.274, 170.259 76.150, 170.951 74.500 C 172.645 70.458, 171.671 43.115, 169.472 33 C 167.629 24.526, 164.622 17, 163.079 17 C 162.511 17, 161.367 18.037, 160.537 19.303 M 50.013 39.975 C 48.195 43.372, 48.867 46.711, 51.880 49.246 C 54.805 51.707, 60.411 53.523, 74.109 56.449 C 83.901 58.540, 85.839 59.864, 84.240 63.373 C 82.818 66.495, 67.149 74.315, 47.772 81.575 C 35.457 86.189, 35.117 86.394, 37.272 87.922 C 41.458 90.887, 55.255 89.862, 73.637 85.219 C 100.169 78.517, 111.836 77.639, 124.344 81.403 C 129.909 83.078, 130.022 84.759, 123.340 66.500 C 117.839 51.471, 114.211 44.227, 110.979 41.825 C 108.488 39.973, 108.359 39.987, 99.731 42.976 C 85.796 47.805, 71.529 46.871, 55.725 40.096 C 51.131 38.127, 51.004 38.124, 50.013 39.975 M 140.237 90.954 C 138.992 91.993, 137.473 93.009, 136.862 93.213 C 136.114 93.462, 136.512 95.947, 138.077 100.807 C 139.420 104.976, 140.694 107.496, 141.091 106.765 C 141.821 105.423, 143.456 88.977, 142.854 89.033 C 142.659 89.052, 141.481 89.916, 140.237 90.954 M 124.500 97.156 C 113.531 100.087, 78.458 102.588, 68.448 101.154 C 56.345 99.420, 45.182 99.663, 41 101.752 C 36.487 104.006, 35.957 107.129, 39.525 110.435 C 44.197 114.765, 51.230 116.513, 63.500 116.391 C 74.686 116.280, 79.047 115.247, 97 108.454 C 102.883 106.228, 115.629 106.249, 127.803 108.504 C 132.920 109.452, 137.304 110.029, 137.546 109.787 C 138.251 109.082, 133.449 95.635, 132.427 95.452 C 131.917 95.361, 128.350 96.127, 124.500 97.156 M 143 115.573 C 143 116.505, 143.680 117.015, 144.667 116.823 C 147.176 116.337, 147.520 114, 145.083 114 C 143.855 114, 143 114.646, 143 115.573 M 148.241 118.325 C 146.999 119.015, 145.283 120.579, 144.427 121.801 C 142.987 123.857, 143.078 124.522, 145.650 130.761 C 148.071 136.633, 148.433 138.852, 148.464 148 C 148.496 157.209, 148.221 158.948, 146.234 162.144 C 144.310 165.238, 137.548 169.889, 136.506 168.835 C 136.152 168.478, 138.629 134.729, 139.411 129.250 C 139.666 127.463, 139.501 126, 139.044 126 C 137.939 126, 137 128.586, 137 131.633 L 137 134.102 133.750 131.677 C 130.749 129.437, 124.557 127.077, 117.691 125.555 C 110.806 124.029, 90.650 123.241, 79.678 124.069 C 66.995 125.027, 60.887 126.273, 57.156 128.666 L 54.811 130.170 57.011 132.512 C 59.414 135.070, 67.387 138.497, 73.153 139.450 C 75.279 139.802, 77.083 140.774, 77.467 141.776 C 78.219 143.733, 76.012 145.872, 65.656 153.226 C 58.517 158.294, 55.010 162.886, 55.004 167.172 C 54.998 171.192, 60.693 177.781, 68 182.211 C 75.190 186.570, 75.993 186.618, 89.709 183.498 C 97.662 181.689, 103.209 178.708, 102.425 176.664 C 102.131 175.899, 97.860 172.908, 92.934 170.016 C 86.755 166.389, 83.797 164.039, 83.395 162.436 C 82.297 158.061, 84.414 156.839, 97.923 154.055 L 106.345 152.319 108.022 146.193 C 109.839 139.557, 111.789 136.389, 113.194 137.794 C 113.677 138.277, 114.486 144.832, 114.991 152.359 C 115.495 159.887, 116.422 168.659, 117.051 171.853 C 118.664 180.054, 122.700 187.067, 127.191 189.474 C 130.502 191.249, 131.361 191.321, 135.687 190.190 C 138.334 189.498, 143.490 186.907, 147.145 184.431 C 150.800 181.956, 154.175 179.999, 154.645 180.084 C 161.070 181.236, 167.272 176.311, 169.636 168.179 C 174.013 153.123, 165.417 123.887, 155.035 118.518 C 151.543 116.712, 151.165 116.702, 148.241 118.325 M 142.053 131.500 C 141.970 132.600, 141.300 140.475, 140.566 149 C 139.831 157.525, 139.392 164.677, 139.591 164.893 C 140.302 165.666, 142.845 162.847, 144.408 159.553 C 146.609 154.914, 146.418 142.119, 144.041 135 C 143.032 131.975, 142.137 130.400, 142.053 131.500" stroke="none" fill="black" fill-rule="evenodd"/>
</svg>