<svg xmlns="http://www.w3.org/2000/svg" width="200" height="200" viewBox="0 0 200 200" version="1.1">
	<path d="M 138.017 8.167 C 138.027 8.900, 138.700 13.550, 139.514 18.500 C 140.327 23.450, 140.980 30.875, 140.964 35 C 140.938 41.970, 140.827 42.359, 139.386 40.500 C 138.534 39.400, 136.342 35.561, 134.516 31.970 C 131.287 25.618, 131.022 25.378, 124.848 23.209 C 116.695 20.346, 110.700 20.300, 107.921 23.079 C 106.137 24.863, 105.889 26.142, 106.171 32.081 C 106.352 35.889, 106.140 39.003, 105.700 39.002 C 103.694 38.997, 99.288 35.906, 97.156 33.010 C 94.886 29.927, 94.631 29.844, 89.156 30.403 C 86.045 30.720, 77.425 31.372, 70 31.850 C 52.975 32.947, 43.931 35.149, 39.250 39.336 C 36.530 41.769, 36.351 45.103, 38.820 47.337 C 41.797 50.031, 51.850 53.008, 62.179 54.255 C 67.502 54.897, 71.651 55.756, 71.399 56.163 C 71.147 56.571, 62.558 59.651, 52.313 63.008 C 30.806 70.055, 28 71.322, 28 73.987 C 28 76.747, 33.214 77.902, 49.607 78.771 L 63.341 79.500 57.421 83.423 C 44.252 92.147, 34 104.236, 34 111.041 C 34 119.005, 42.055 120.233, 52.578 113.873 C 59.716 109.560, 79.409 90.312, 84.677 82.500 C 92.572 70.793, 98.027 57.210, 99.437 45.750 C 99.826 42.587, 100.321 40, 100.538 40 C 100.755 40, 102.453 40.725, 104.311 41.611 C 107.641 43.199, 107.722 43.394, 109.809 54.861 C 112.946 72.096, 113.364 77.915, 112.031 85.815 C 110.946 92.248, 111.005 93.132, 112.668 95.348 C 115.604 99.261, 120.264 101.951, 126.301 103.217 C 134.523 104.942, 134.881 106.331, 131.543 123.557 C 128.599 138.753, 125.029 150.880, 122.101 155.634 C 121.039 157.358, 118.479 160.058, 116.413 161.634 C 113.217 164.072, 111.747 164.496, 106.578 164.477 C 97.589 164.442, 81.994 161.918, 84.500 160.903 C 85.600 160.458, 90.032 158.662, 94.348 156.913 C 103.223 153.316, 109.420 148.985, 112.739 144.060 C 117.497 136.999, 114.472 123.158, 107.099 118.257 C 101.746 114.698, 96.374 113.612, 84 113.587 C 65.678 113.549, 51.025 117.941, 50.189 123.721 C 49.766 126.642, 53.049 128.623, 61.566 130.588 C 73.499 133.340, 82.090 136.046, 81.569 136.888 C 81.294 137.334, 77.333 137.962, 72.768 138.284 C 58.670 139.279, 50.492 141.612, 45.945 145.938 C 39.646 151.929, 40.847 157.747, 50.846 169.679 C 56.662 176.619, 64.148 181.325, 72.943 183.570 C 80.877 185.595, 87.256 185.006, 101.322 180.948 C 112.621 177.689, 119.633 177.242, 124.002 179.501 L 126.905 181.002 128.885 176.528 C 133.503 166.088, 142.991 165.348, 160.963 174.027 C 177.303 181.918, 178.640 180.122, 168.337 164.123 L 161.675 153.776 161.571 145.138 C 161.492 138.505, 160.954 135.380, 159.256 131.673 C 157.203 127.192, 155.218 125.064, 141.673 112.823 C 137.538 109.087, 136.941 108.083, 137.508 105.825 C 138.318 102.597, 140.215 102.031, 150.290 102.014 C 157.903 102, 164.703 104.093, 166.501 107.002 C 167.769 109.053, 169 106.786, 169 102.400 C 169 99.934, 170.204 89.723, 171.676 79.709 C 175.224 55.558, 175.398 38.912, 172.185 30.853 C 170.946 27.747, 168.100 23.123, 165.858 20.576 C 161.048 15.112, 153.141 9.418, 152.059 10.640 C 151.640 11.113, 149.450 21.794, 147.190 34.375 C 144.931 46.956, 142.866 57.468, 142.600 57.733 C 142.335 57.999, 139.503 56.641, 136.309 54.716 C 133.114 52.791, 125.922 48.931, 120.327 46.138 C 109.206 40.586, 108.922 40.224, 108.714 31.357 C 108.506 22.446, 112.226 21.213, 124.591 26.093 C 129.180 27.905, 129.961 28.687, 132.515 34.031 C 134.073 37.292, 136.653 41.206, 138.249 42.730 C 141.075 45.430, 141.185 45.451, 142.574 43.559 C 143.536 42.249, 143.969 39.159, 143.904 34.059 C 143.782 24.406, 140.896 7.776, 139.250 7.240 C 138.563 7.016, 138.008 7.433, 138.017 8.167 M 153.611 15.734 C 152.708 18.718, 146 56.250, 146 58.316 C 146 59.384, 148.025 62.144, 150.500 64.449 C 157.777 71.226, 156.196 75.378, 146.021 76.214 L 142.543 76.500 140.834 86.500 C 138.328 101.162, 137.597 99.829, 147.816 99.246 C 155.223 98.824, 157.364 99.068, 161.213 100.770 L 165.795 102.797 166.452 97.148 C 166.813 94.042, 168.260 83.175, 169.668 73 C 172.903 49.608, 172.639 37.869, 168.695 29.808 C 166.033 24.367, 161.868 19.466, 156.901 15.930 C 154.309 14.084, 154.113 14.072, 153.611 15.734 M 91 33 C 91.825 33.533, 92.950 33.969, 93.500 33.969 C 94.050 33.969, 93.825 33.533, 93 33 C 92.175 32.467, 91.050 32.031, 90.500 32.031 C 89.950 32.031, 90.175 32.467, 91 33 M 53.369 36.493 C 47.025 37.872, 41.019 40.472, 39.801 42.367 C 38.638 44.175, 42.029 46.930, 47.414 48.551 C 53.596 50.411, 70.736 52.957, 77.250 52.982 C 79.862 52.992, 82 53.405, 82 53.900 C 82 55.099, 67.921 60.933, 55.500 64.881 C 34.760 71.472, 30.593 73.193, 32.618 74.326 C 33.638 74.897, 42.916 75.566, 53.236 75.813 C 63.556 76.060, 72 76.548, 72 76.898 C 72 77.247, 69.412 79.066, 66.250 80.939 C 48.627 91.379, 34.506 106.718, 36.560 113.191 C 37.619 116.525, 45.582 115.225, 52.587 110.574 C 60.612 105.245, 76.221 89.733, 82.106 81.238 C 90.456 69.184, 97 51.933, 97 41.976 C 97 38.535, 96.696 38.156, 92.717 36.636 C 87.335 34.581, 62.574 34.491, 53.369 36.493 M 111.003 45.750 C 111.005 46.163, 111.905 51.130, 113.004 56.789 C 115.149 67.841, 115.692 79.073, 114.520 88.168 L 113.790 93.835 117.932 96.836 C 121.599 99.492, 129.407 101.926, 130.560 100.773 C 130.794 100.539, 131.442 97.941, 132 95 C 132.558 92.059, 134.777 85.794, 136.932 81.077 C 139.127 76.269, 141.145 70.036, 141.522 66.894 L 142.195 61.287 134.347 56.772 C 126.277 52.128, 112.458 45, 111.525 45 C 111.236 45, 111.001 45.337, 111.003 45.750 M 144.660 65.751 C 142.692 73.012, 142.689 73.001, 146.731 72.985 C 152.427 72.962, 153.482 71.883, 150.952 68.666 C 147.885 64.767, 145.257 63.549, 144.660 65.751 M 136.231 89.275 C 134.440 94.289, 133.508 101.422, 134.744 100.658 C 135.756 100.033, 138.469 87.136, 137.741 86.408 C 137.545 86.211, 136.865 87.501, 136.231 89.275 M 135.047 120.250 C 132.815 132.956, 128.325 149.426, 125.655 154.695 C 124.232 157.501, 121.366 161.206, 119.284 162.927 C 113.271 167.899, 110.151 168.410, 96.984 166.579 C 81.753 164.459, 79.500 163.798, 79.500 161.448 C 79.500 159.961, 81.379 158.858, 88 156.459 C 99.195 152.402, 102.739 150.508, 107.272 146.166 C 113.117 140.565, 113.972 133.856, 109.900 125.540 C 106.910 119.433, 97.834 116.045, 84.381 116.016 C 75.646 115.996, 61.317 118.404, 56.502 120.700 C 51.163 123.246, 52.324 125.174, 60.513 127.364 C 84.412 133.754, 89.931 136.153, 86.768 138.778 C 86.062 139.364, 80.088 140.343, 73.492 140.955 C 52.616 142.890, 45.113 146.144, 45.032 153.300 C 44.965 159.172, 53.141 170.196, 61.555 175.578 C 73.061 182.938, 83.031 183.546, 101.879 178.035 C 112.531 174.920, 118.998 174.288, 123.339 175.939 C 125.523 176.769, 125.952 176.531, 127.051 173.878 C 127.734 172.228, 129.805 169.725, 131.653 168.316 C 138.323 163.228, 147.846 164.381, 163.288 172.145 C 167.643 174.335, 171.435 175.898, 171.715 175.619 C 171.994 175.340, 169.225 170.537, 165.562 164.947 L 158.903 154.782 158.701 145.609 C 158.431 133.289, 156.152 128.850, 145.442 119.781 C 141.074 116.082, 137.235 113.043, 136.910 113.028 C 136.586 113.013, 135.747 116.263, 135.047 120.250" stroke="none" fill="black" fill-rule="evenodd"/>
</svg>