<svg xmlns="http://www.w3.org/2000/svg" width="200" height="200" viewBox="0 0 200 200" version="1.1">
	<path d="M 134.500 13 C 134.160 13.550, 134.144 14.423, 134.463 14.941 C 134.783 15.458, 134.549 22.321, 133.943 30.191 C 132.942 43.198, 132.417 45.701, 128.171 57.701 C 123.672 70.415, 123.408 70.880, 121 70.332 C 119.625 70.018, 117.487 69.130, 116.250 68.358 C 112.024 65.721, 113.982 57.994, 120.684 50.860 C 122.525 48.900, 122.841 48.020, 121.910 47.444 C 121.099 46.943, 119.483 48.053, 117.342 50.584 C 111.449 57.547, 109.622 63.557, 112.030 68.055 C 113.267 70.368, 118.073 73, 121.057 73 C 122.492 73, 123.035 73.467, 122.678 74.396 C 122.384 75.164, 121.597 77.614, 120.929 79.842 C 119.739 83.816, 119.611 83.904, 114.108 84.575 C 102.995 85.928, 96.504 88.639, 90.034 94.629 C 86.730 97.688, 81.987 103.259, 79.494 107.008 C 77.002 110.758, 73.291 115.293, 71.249 117.087 C 63.866 123.568, 41.172 132.431, 36.525 130.648 C 33.670 129.553, 37.521 124.718, 48.710 115.348 C 67.360 99.730, 73.901 88.838, 67.894 83.405 C 65.312 81.070, 55.818 81.001, 46.290 83.249 C 40.294 84.663, 40.014 84.641, 38.165 82.607 C 34.454 78.524, 33.624 75.947, 35.438 74.133 C 36.827 72.744, 39.939 72.484, 56.286 72.391 C 76.199 72.278, 80.563 71.515, 85.177 67.339 C 87.739 65.021, 90.345 57.511, 89.607 54.572 C 88.519 50.233, 85.777 49.581, 66.284 49.022 C 45.161 48.417, 43.913 47.950, 45.574 41.280 C 46.626 37.056, 46.030 37.173, 58 38.838 C 62.948 39.526, 68.563 39.562, 74.500 38.942 C 90.879 37.233, 111.259 36.690, 115.500 37.849 C 120.736 39.280, 121.393 39.322, 121.751 38.247 C 122.341 36.478, 116.369 34.756, 107.897 34.251 C 102.875 33.952, 92.510 34.460, 82.995 35.470 C 66.023 37.272, 57.059 36.991, 49.797 34.428 L 45.881 33.047 43.963 37.273 C 41.628 42.417, 41.526 44.878, 43.529 47.739 C 45.847 51.048, 51.076 51.988, 67.185 51.994 C 75.262 51.997, 83.024 52.439, 84.435 52.975 C 87.649 54.197, 87.862 58.075, 84.974 62.810 C 81.522 68.473, 77.922 69.339, 56 69.779 C 34.724 70.206, 32 70.864, 32 75.573 C 32 78.736, 34.093 82.830, 37.185 85.718 C 39.464 87.846, 39.776 87.878, 44.914 86.523 C 56.793 83.389, 66.189 83.445, 67.421 86.656 C 69.143 91.142, 61.284 100.844, 41.872 118.199 C 32.868 126.249, 31.342 128.718, 33.525 131.704 C 37.571 137.236, 64.352 127.775, 74.781 117.129 C 77.377 114.480, 81.750 109.103, 84.500 105.180 C 92.455 93.832, 100.081 89.123, 113.134 87.499 L 118.768 86.799 114.928 101.522 C 112.816 109.620, 110.956 116.354, 110.794 116.488 C 110.632 116.621, 108.132 117.504, 105.237 118.450 C 89.448 123.608, 79.058 136.118, 79.032 150 C 79.003 165.434, 92.921 180.619, 111.542 185.469 C 123.399 188.557, 138.465 186.888, 146.922 181.549 C 152.344 178.127, 161.979 167.240, 164.635 161.536 C 173.375 142.768, 158.067 120.006, 134.679 116.992 C 124.599 115.694, 125.050 116.513, 127.645 104.217 C 128.888 98.322, 130.173 91.813, 130.498 89.750 C 131.077 86.086, 131.190 86, 135.414 86 L 139.737 86 140.211 93.250 C 141.007 105.433, 148.805 118, 155.570 118 C 164.056 118, 170.953 102.352, 169.465 86.473 C 169.059 82.136, 169.457 72.223, 170.481 61.205 C 172.817 36.061, 171.118 25.898, 163.041 16.699 C 157.352 10.220, 151.414 12.009, 144.490 22.290 C 142.305 25.535, 140.909 26.846, 140.614 25.930 C 139.731 23.195, 138.176 17.483, 137.571 14.750 C 136.951 11.953, 135.617 11.192, 134.500 13 M 151.785 17.901 C 149.978 19.496, 147.046 23.216, 145.270 26.167 L 142.039 31.533 144.554 43.516 C 146.034 50.567, 146.826 56.862, 146.478 58.810 C 145.772 62.761, 140.166 69.274, 135.976 71.010 C 133.010 72.239, 132.480 73.328, 131.727 79.750 L 131.346 83 137.423 82.998 L 143.500 82.996 143.167 89.455 C 142.729 97.935, 144.972 105.439, 149.541 110.777 C 155.616 117.874, 160.067 116.385, 164.226 105.862 C 166.036 101.285, 166.374 98.157, 166.536 84.500 C 166.641 75.700, 167.292 63.550, 167.984 57.500 C 169.398 45.124, 168.853 34.825, 166.405 27.662 C 164.783 22.915, 158.397 15, 156.190 15 C 155.574 15, 153.591 16.305, 151.785 17.901 M 137.092 27 C 137.029 28.375, 136.733 31.300, 136.435 33.500 L 135.891 37.500 137.524 34.661 C 138.810 32.425, 138.950 31.045, 138.182 28.161 C 137.394 25.203, 137.185 24.980, 137.092 27 M 137.481 41.185 C 135.853 45.113, 132.573 67.906, 133.502 68.835 C 133.718 69.051, 135.446 68.270, 137.341 67.098 C 140.761 64.984, 144 59.805, 144 56.449 C 144 53.516, 140.830 38.554, 140.025 37.685 C 139.609 37.236, 138.465 38.811, 137.481 41.185 M 129.179 62.854 C 128.452 65.249, 127.616 67.836, 127.322 68.604 C 127.004 69.431, 127.422 70, 128.348 70 C 130.042 70, 131.415 64.971, 130.837 60.881 C 130.564 58.956, 130.247 59.334, 129.179 62.854 M 125.557 74.250 C 125.347 74.938, 124.687 77.030, 124.088 78.899 C 122.570 83.642, 122.671 84, 125.531 84 C 128.290 84, 128.545 83.559, 129.428 77.250 C 129.962 73.443, 129.811 73, 127.980 73 C 126.857 73, 125.766 73.563, 125.557 74.250 M 124.500 86.971 C 121.551 87.498, 121.438 87.749, 117.851 101.754 L 114.202 116 118.073 116 C 121.887 116, 121.966 115.923, 123.431 110.750 C 125.255 104.309, 128.255 88.186, 127.819 87.174 C 127.643 86.768, 126.150 86.677, 124.500 86.971 M 125 118.537 C 125 118.951, 127.709 124.737, 131.020 131.395 C 137.194 143.809, 139.882 153.349, 138.622 158.370 C 137.051 164.629, 130.189 167.545, 120.236 166.184 L 114.213 165.360 111.518 168.738 C 109.676 171.046, 108.138 172.018, 106.661 171.808 C 104.585 171.512, 104.503 171.049, 104.567 160 C 104.616 151.741, 105.406 144.592, 107.370 134.636 C 108.874 127.011, 109.912 120.579, 109.676 120.343 C 108.858 119.524, 99.286 123.707, 94.599 126.932 C 84.963 133.562, 79.926 144.510, 81.974 154.375 C 82.956 159.107, 86.128 165.165, 90.194 170.078 C 93.029 173.502, 101.217 178.937, 106.543 180.930 C 118.856 185.537, 133.328 185.407, 142.785 180.603 C 148.895 177.500, 159.478 166.432, 162.196 160.302 C 166.724 150.089, 163.879 137.902, 155.034 129.629 C 148.957 123.944, 143.994 121.444, 135.946 120.013 C 132.401 119.382, 128.488 118.623, 127.250 118.325 C 126.013 118.027, 125 118.122, 125 118.537 M 110.662 132.750 C 107.207 150.558, 105.609 164.837, 106.735 167.842 C 107.589 170.122, 107.686 170.073, 110.374 166.011 C 112.231 163.205, 113.632 162.029, 114.653 162.420 C 121.518 165.055, 133.032 163.677, 135.008 159.986 C 137.722 154.914, 134.862 144.202, 126.669 128.755 L 121.500 119.011 117.415 119.005 L 113.331 119 110.662 132.750" stroke="none" fill="black" fill-rule="evenodd"/>
</svg>