<svg xmlns="http://www.w3.org/2000/svg" width="200" height="200" viewBox="0 0 200 200" version="1.1">
	<path d="M 130.097 14.590 C 116.005 18.755, 92.092 31.051, 85.750 37.393 C 83.587 39.556, 71.851 40.994, 50.750 41.683 C 29.530 42.376, 29.127 42.576, 35.945 49.062 C 40.418 53.318, 46.433 55.812, 61.222 59.546 C 66.875 60.973, 71.889 62.520, 72.365 62.985 C 74.493 65.064, 56.242 71.768, 43.500 73.588 C 30.752 75.408, 27 76.632, 27 78.969 C 27 81.047, 30.549 82.664, 42.363 85.968 C 56.477 89.917, 62.158 93.187, 60.329 96.311 C 59.873 97.089, 56.558 100.210, 52.962 103.246 C 43.058 111.608, 35 122.882, 35 128.379 C 35 134.213, 41.073 135.581, 49.500 131.646 C 65.429 124.207, 86.466 99.510, 96.464 76.510 L 99.717 69.028 107.437 86.264 C 111.683 95.744, 115.569 104.528, 116.073 105.785 C 116.698 107.343, 116.480 109.901, 115.388 113.828 L 113.787 119.586 107.536 121.376 C 90.146 126.356, 81.885 136.768, 83.263 151.965 C 84.269 163.063, 92.481 175.681, 102.527 181.569 C 107.492 184.478, 120.827 187.968, 127 187.973 C 142.104 187.984, 161.361 176.014, 167.520 162.786 C 170.623 156.121, 170.827 147.420, 168.027 141.250 C 166.966 138.912, 165.701 137, 165.216 137 C 163.245 137, 163.273 138.349, 165.316 141.812 C 166.819 144.358, 167.467 147.124, 167.467 150.991 C 167.467 162.609, 158.617 173.889, 144 180.902 C 137.103 184.211, 135.776 184.500, 127.500 184.500 C 120.857 184.500, 116.551 183.888, 111.060 182.164 C 104.505 180.105, 102.829 179.034, 96.969 173.164 C 89.061 165.241, 86 158.437, 86 148.778 C 86 137.426, 91.540 130.261, 103.998 125.501 C 107.598 124.125, 111.020 123, 111.603 123 C 112.256 123, 111.559 127.903, 109.791 135.750 C 107.894 144.167, 106.741 152.579, 106.399 160.500 C 105.777 174.875, 106.597 177.336, 112.158 177.804 C 115.339 178.071, 116.487 177.444, 121.769 172.554 C 125.068 169.499, 128.405 167, 129.183 167 C 129.962 167, 132.502 165.766, 134.827 164.259 C 146.492 156.695, 145.187 139.932, 131.972 127.571 L 127.288 123.190 129.691 122.095 C 134.720 119.804, 141.310 121.345, 151.171 127.120 C 154.777 129.232, 155.961 129.544, 156.365 128.491 C 156.700 127.618, 155.021 126.083, 151.694 124.221 C 140.917 118.189, 135.653 117.112, 128.441 119.462 C 126.854 119.979, 126.113 119.544, 125.212 117.567 C 124.180 115.301, 124.266 115, 125.945 115 C 128.936 115, 133.704 110.345, 135.449 105.722 C 136.326 103.400, 137.826 97.675, 138.784 93 C 140.307 85.566, 140.809 84.460, 142.784 84.178 C 145.915 83.731, 147.283 87.428, 150.311 104.520 C 153.245 121.087, 154.138 123.650, 157.509 125.186 C 160.992 126.773, 164.136 124.360, 170.221 115.429 L 174.941 108.500 175.221 72 C 175.439 43.500, 175.186 33.884, 174.068 28.128 C 170.814 11.376, 163.401 9.644, 153.372 23.293 C 150.863 26.707, 148.598 29.718, 148.337 29.985 C 148.076 30.252, 147.047 29.388, 146.049 28.066 C 144.295 25.740, 144.297 25.560, 146.114 22.580 C 148.573 18.547, 148.552 14.366, 146.066 13.035 C 143.159 11.480, 139.373 11.848, 130.097 14.590 M 128.159 18.116 C 123.022 19.786, 119.083 21.416, 119.406 21.739 C 119.729 22.063, 122.270 23.129, 125.053 24.109 C 127.835 25.089, 132.971 27.489, 136.466 29.444 L 142.820 32.997 141.422 38.249 C 139.300 46.220, 139.790 47.075, 143 41 C 146.621 34.147, 146.653 32.930, 143.322 28.971 C 141.147 26.385, 140.863 25.480, 141.809 24.144 C 144.464 20.399, 146.045 16.881, 145.482 15.971 C 144.389 14.202, 137.623 15.040, 128.159 18.116 M 160.609 19.093 C 159.146 20.244, 156.131 23.862, 153.910 27.133 C 150.117 32.718, 149.941 33.291, 151.016 36.550 C 152.609 41.376, 152.398 51.112, 150.608 55.397 C 147.550 62.715, 142.042 65.899, 138.524 62.381 C 137.633 61.490, 136.763 60.928, 136.590 61.131 C 135.848 62.002, 129.362 79.609, 124.898 92.872 C 119.692 108.339, 119.658 110.374, 124.584 111.610 C 129.830 112.927, 134.741 103.925, 136.513 89.744 C 137.254 83.812, 137.964 82.716, 141.835 81.528 C 143.553 81.001, 144.809 81.411, 146.587 83.081 C 149.502 85.821, 150.384 88.783, 153.107 104.999 C 155.278 117.924, 157.059 123, 159.422 123 C 161.016 123, 165.986 117.566, 169.535 111.944 L 172.003 108.035 172.252 70.767 C 172.440 42.483, 172.177 32.054, 171.158 27.500 C 168.832 17.095, 166.009 14.845, 160.609 19.093 M 112.098 26.816 C 110.483 29.835, 110.690 32.228, 114.074 49.663 C 116.614 62.744, 117.022 66.718, 116.419 72.500 C 115.174 84.429, 115.387 96.231, 116.911 99.847 L 118.323 103.194 124.012 86.847 C 127.141 77.856, 131.052 67.125, 132.703 63 C 135.513 55.979, 139.576 35.741, 138.519 34.031 C 137.319 32.090, 122.245 25.634, 117.947 25.221 C 113.913 24.833, 113.031 25.074, 112.098 26.816 M 103.500 28.803 C 94.654 33.697, 90.640 36.852, 90.479 39.038 C 90.335 40.987, 90.676 41.095, 95.058 40.492 L 99.792 39.841 101.013 43.539 C 101.800 45.924, 102.046 50.479, 101.705 56.368 L 101.178 65.500 106.310 76.838 L 111.442 88.176 112.883 81.338 C 114.830 72.092, 114.484 66.214, 110.917 48 C 109.097 38.710, 108.124 31.198, 108.486 29.250 C 108.819 27.462, 108.958 26.008, 108.795 26.018 C 108.633 26.028, 106.250 27.281, 103.500 28.803 M 143.064 46.869 C 139.813 53.502, 138.884 56.401, 139.378 58.369 C 140.852 64.241, 146.615 59.857, 148.983 51.062 C 150.155 46.712, 149.595 38, 148.144 38 C 147.741 38, 145.455 41.991, 143.064 46.869 M 74 43.050 C 70.975 43.473, 61.182 44.155, 52.238 44.567 C 36.111 45.309, 35.990 45.332, 37.738 47.302 C 40.403 50.307, 48.681 53.635, 61.624 56.906 C 78.413 61.149, 80.022 63.863, 68.759 68.937 C 59.725 73.007, 49.762 75.806, 39.750 77.087 C 34.938 77.703, 31 78.527, 31 78.918 C 31 79.309, 36.512 81.319, 43.250 83.385 C 57.807 87.848, 63 90.826, 63 94.709 C 63 96.799, 60.711 99.603, 52.605 107.444 C 42.352 117.363, 38 123.593, 38 128.353 C 38 133.300, 44.010 132.372, 54.106 125.865 C 63.498 119.812, 73.671 108.915, 82.768 95.166 C 90.144 84.019, 96.947 70.360, 97.272 66.044 C 97.345 65.076, 94.983 59.270, 92.023 53.142 L 86.643 42 83.071 42.141 C 81.107 42.218, 77.025 42.627, 74 43.050 M 91.049 44.190 C 91.077 44.910, 92.830 48.875, 94.945 53 L 98.791 60.500 99.452 56 C 99.815 53.525, 99.732 49.700, 99.267 47.500 C 98.482 43.788, 98.154 43.478, 94.711 43.190 C 92.142 42.975, 91.015 43.283, 91.049 44.190 M 118.063 114.333 C 116.412 118.676, 116.729 119.426, 120.741 120.681 C 122.798 121.325, 124.516 121.773, 124.558 121.676 C 124.601 121.579, 123.396 119.258, 121.881 116.518 L 119.127 111.536 118.063 114.333 M 114.949 126.189 C 108.562 149.910, 106.768 171.168, 110.813 175.213 C 112.168 176.568, 115.561 174.662, 121 169.491 C 123.475 167.138, 126.625 164.888, 128 164.492 C 132.345 163.240, 136.996 159.909, 138.524 156.953 C 140.554 153.027, 140.337 145.339, 138.054 140.310 C 134.484 132.446, 126.358 125.110, 118.827 122.950 C 116.197 122.196, 115.974 122.382, 114.949 126.189" stroke="none" fill="black" fill-rule="evenodd"/>
</svg>