<svg xmlns="http://www.w3.org/2000/svg" width="200" height="200" viewBox="0 0 200 200" version="1.1">
	<path d="M 138.366 11.769 C 137.742 12.171, 137.067 13.358, 136.866 14.406 C 136.565 15.972, 134.275 16.798, 124 19.045 C 102.752 23.693, 91.378 28.161, 87.166 33.516 C 85.309 35.876, 85.270 35.880, 79.400 34.332 C 67.699 31.244, 56.127 32.874, 54.554 37.831 C 54.121 39.194, 51.692 40.245, 45.358 41.808 C 32.438 44.998, 28.770 48.299, 34.750 51.353 C 36.263 52.126, 43.682 54.148, 51.238 55.847 C 64.969 58.935, 71 61.142, 71 63.081 C 71 65.514, 59.956 69.158, 49.740 70.097 C 22.752 72.576, 20.347 75.160, 39.061 81.566 C 56.244 87.447, 60.163 92.320, 52.737 98.568 C 50.668 100.309, 50.037 101.437, 50.740 102.140 C 51.442 102.842, 52.926 102.007, 55.438 99.495 C 58.524 96.410, 59.061 95.245, 58.805 92.204 C 58.382 87.187, 53.116 83.401, 40.530 79.062 C 28.811 75.023, 29.084 74.807, 48.095 73.072 C 61.034 71.891, 68.094 69.658, 71.987 65.514 C 76.628 60.573, 71.816 57.726, 50.736 52.940 C 43.648 51.331, 37.094 49.593, 36.174 49.077 C 34.722 48.265, 34.848 48.008, 37.126 47.142 C 39.536 46.226, 41.365 45.712, 52.190 42.910 C 54.522 42.307, 56.121 41.194, 56.536 39.886 C 57.561 36.656, 63.513 34.667, 69.904 35.419 C 80.836 36.703, 83.932 37.950, 85.955 41.880 C 86.980 43.871, 90.095 48.324, 92.877 51.776 C 95.659 55.228, 98.486 59.889, 99.158 62.134 C 101.008 68.308, 97.750 73.765, 88.288 80.343 C 83.162 83.907, 81 86.032, 81 87.508 C 81 91.319, 75.789 100.153, 69.701 106.660 C 58.743 118.375, 37.207 130.379, 34.629 126.210 C 33.833 124.920, 36.973 119.312, 41.147 114.570 C 43.390 112.022, 44.609 109.877, 44.021 109.513 C 42.485 108.564, 41.253 109.651, 36.416 116.221 C 30.494 124.265, 30.597 130, 36.663 130 C 42.947 130, 59.046 120.822, 68.776 111.691 C 75.362 105.512, 81.681 96.153, 83.116 90.453 C 83.864 87.485, 85.034 85.822, 87.326 84.471 C 93.108 81.063, 99.861 73.931, 101.588 69.407 C 103.174 65.255, 103.170 64.734, 101.520 60.412 C 100.556 57.889, 97.644 53.273, 95.048 50.153 C 90.213 44.343, 87.438 40, 88.562 40 C 88.909 40, 93.702 41.906, 99.211 44.237 C 106.880 47.480, 109.467 49.063, 110.244 50.987 C 111.490 54.071, 111.708 80.231, 110.589 92.500 C 109.619 103.142, 110.855 109.203, 114.477 111.577 C 116.686 113.025, 117.216 112.994, 121.188 111.186 C 123.560 110.107, 127.070 108.034, 128.989 106.579 C 130.908 105.124, 132.607 104.322, 132.765 104.795 C 133.175 106.026, 126.279 125.516, 123.476 131.047 L 121.118 135.700 114.309 136.338 C 106.476 137.072, 106.226 136.888, 101.433 126.861 C 98.361 120.432, 97.088 119.875, 85.480 119.875 C 71.206 119.875, 65.815 128.081, 69.425 144.309 C 71.428 153.311, 80.144 171.179, 86.711 179.748 L 91.500 185.995 123.198 186.580 C 158.870 187.237, 164.480 186.674, 169.187 181.967 C 171.237 179.917, 172 178.170, 172 175.527 C 172 172.644, 170.106 167.084, 168.479 165.189 C 168.332 165.018, 164.901 165.918, 160.856 167.189 C 154.342 169.235, 151.496 169.500, 136 169.500 C 119.289 169.500, 108 168.089, 108 166 C 108 163.995, 127.394 161.125, 134 162.152 C 158.369 165.941, 173.543 157.708, 161.569 147.195 C 153.882 140.445, 139.621 140.802, 125.022 148.109 C 120.746 150.249, 116.836 152, 116.332 152 C 114.983 152, 107 143.628, 107 142.212 C 107 140.748, 108.640 140.608, 109.500 142 C 110.535 143.675, 116.582 143.116, 119.133 141.110 C 121.250 139.445, 123.848 139.167, 141.018 138.768 C 162.253 138.274, 167.005 137.286, 172.236 132.274 C 175.929 128.736, 175.728 128, 171.070 128 C 167.730 128, 166.340 127.249, 161.820 123.004 C 157.021 118.497, 156.677 117.901, 158.310 116.921 C 162.787 114.232, 167.126 109.442, 169.521 104.547 C 173.989 95.414, 175.122 85.410, 174.794 58 C 174.632 44.525, 174.871 31.625, 175.324 29.334 C 176.096 25.428, 175.918 24.915, 172.457 21.084 C 164.617 12.406, 157.610 18.097, 151.015 38.500 C 148.143 47.384, 147 48.651, 146.999 42.950 C 146.997 38.310, 144.878 24.975, 143.083 18.307 C 141.786 13.490, 139.852 10.810, 138.366 11.769 M 131.989 20.011 C 117.461 23.207, 117.937 22.503, 127.071 27.272 L 135.169 31.500 139.198 40.750 C 141.414 45.837, 143.678 50, 144.230 50 C 145.885 50, 142 20.697, 140.110 18.929 C 139.775 18.615, 136.120 19.102, 131.989 20.011 M 161.034 22.952 C 157.495 27.923, 154.113 36.568, 149.957 51.274 L 145.983 65.336 148.014 67.227 C 150.367 69.420, 149.867 71.040, 147.064 70.307 C 145.034 69.776, 144.984 69.892, 141.916 82.322 C 140.431 88.340, 142.001 95, 144.905 95 C 149.181 95, 155.887 103.769, 155.993 109.500 C 156.014 110.600, 156.454 112.170, 156.972 112.988 C 157.752 114.223, 158.520 113.889, 161.467 111.032 C 170.248 102.521, 171.822 94.268, 172.104 55.229 C 172.320 25.507, 172.285 24.913, 170.169 22.479 C 167.221 19.089, 163.653 19.274, 161.034 22.952 M 102.179 27.770 C 98.153 29.222, 93.270 31.783, 91.329 33.461 L 87.800 36.512 98.650 41.044 L 109.500 45.576 109.152 37.405 C 108.945 32.546, 109.264 28.376, 109.937 27.117 C 111.334 24.507, 111.193 24.519, 102.179 27.770 M 112.908 27.611 C 111.610 29.174, 111.332 42.314, 112.517 46.053 C 112.788 46.907, 115.145 48.638, 117.755 49.900 C 120.365 51.161, 126.997 54.737, 132.493 57.847 C 137.990 60.956, 142.769 63.631, 143.115 63.790 C 143.614 64.021, 146 56.481, 146 54.674 C 146 54.432, 145.089 53.995, 143.976 53.704 C 142.236 53.249, 136.258 42.285, 133.737 34.926 C 133.034 32.874, 119.935 26, 116.726 26 C 115.361 26, 113.643 26.725, 112.908 27.611 M 113.727 54.250 C 114.595 58.419, 114.535 79.331, 113.614 93.500 C 112.861 105.079, 113.740 109.134, 117.147 109.790 C 118.025 109.959, 122.289 107.671, 126.622 104.705 C 134.244 99.487, 134.551 99.121, 136.075 93.442 C 137.260 89.025, 137.424 86.331, 136.737 82.552 C 135.636 76.494, 137.067 70.767, 140.236 68.547 C 142.383 67.044, 142.386 67.003, 140.456 65.587 C 137.907 63.716, 114.603 51, 113.724 51 C 113.354 51, 113.355 52.462, 113.727 54.250 M 139.974 73.049 C 139.370 74.177, 139.017 76.314, 139.188 77.799 C 139.443 80.005, 139.704 79.630, 140.611 75.750 C 141.823 70.572, 141.663 69.894, 139.974 73.049 M 138.600 94.600 C 138.244 95.527, 138.178 96.511, 138.453 96.786 C 138.728 97.061, 139.244 96.527, 139.600 95.600 C 139.956 94.673, 140.022 93.689, 139.747 93.414 C 139.472 93.139, 138.956 93.673, 138.600 94.600 M 145.453 99.750 C 146.832 103.373, 153.203 114.131, 153.684 113.650 C 154.636 112.698, 150.916 101.916, 148.961 99.961 C 146.511 97.511, 144.555 97.394, 145.453 99.750 M 138.187 100.275 C 137.605 100.976, 135.349 106.968, 133.175 113.590 C 131.001 120.212, 128.039 127.963, 126.594 130.815 L 123.966 136 140.302 136 C 152.376 136, 158.054 135.581, 162.068 134.395 C 169.499 132.199, 169.620 132.050, 165.833 129.792 C 158.441 125.384, 150.435 115.744, 144.622 104.250 C 141.963 98.994, 140.169 97.886, 138.187 100.275 M 79.445 123.017 C 68.681 126.326, 68.403 140.949, 78.714 161.425 C 82.526 168.995, 90.540 181.598, 92.190 182.618 C 92.749 182.963, 97.773 183.186, 103.353 183.113 C 108.934 183.040, 120.631 183.403, 129.347 183.919 C 146.050 184.908, 159.985 184.078, 164.695 181.813 C 166.198 181.091, 168.059 179.374, 168.830 177.997 C 170.046 175.828, 170.026 174.999, 168.683 171.785 L 167.134 168.076 162.817 169.496 C 149.585 173.850, 122.345 174.008, 109.500 169.807 C 104.047 168.023, 103.414 164.561, 108.178 162.570 C 114.755 159.823, 127.431 158.667, 138.335 159.821 C 149.380 160.990, 156.363 160.303, 160.414 157.649 C 168.541 152.324, 156.010 143.783, 142.415 145.381 C 135.747 146.165, 127.882 149.055, 121.634 153.017 L 116.866 156.041 114.087 154.062 C 112.558 152.973, 109.617 150.212, 107.552 147.926 C 104.398 144.435, 103.894 143.280, 104.406 140.721 C 104.796 138.768, 104.514 137.105, 103.619 136.087 C 102.852 135.214, 101.021 132.175, 99.551 129.334 C 98.081 126.492, 96.261 123.930, 95.506 123.641 C 92.588 122.521, 82.352 122.123, 79.445 123.017 M 112.250 140.080 C 113.439 140.772, 114.561 140.772, 115.750 140.080 C 117.178 139.249, 116.855 139.061, 114 139.061 C 111.145 139.061, 110.822 139.249, 112.250 140.080" stroke="none" fill="black" fill-rule="evenodd"/>
</svg>