<svg xmlns="http://www.w3.org/2000/svg" width="200" height="200" viewBox="0 0 200 200" version="1.1">
	<path d="M 137.256 11.953 C 133.049 12.980, 131 14.737, 131 17.319 C 131 20.055, 135.188 25.883, 139.378 28.977 C 142.638 31.383, 142.751 31.706, 143.366 40.380 C 144.616 57.986, 143.796 80.538, 141.834 82.499 C 140.958 83.376, 125.080 84.238, 121.652 83.594 C 119.679 83.224, 117.375 82.232, 116.532 81.389 C 114.241 79.099, 114.698 72.322, 117.602 65.500 C 121.251 56.928, 121.462 56, 119.758 56 C 117.664 56, 112 70.802, 112 76.275 C 112 81.524, 114.779 84.678, 120.653 86.095 C 126.142 87.419, 140.600 86.150, 143.062 84.128 C 146.275 81.491, 147.150 72.692, 146.407 50.500 L 145.736 30.500 141.093 26.854 C 128.956 17.325, 133.196 11.950, 150.207 15.301 C 161.383 17.503, 167.197 20.564, 168.631 25 C 169.433 27.481, 169.664 43.935, 169.424 81.500 C 169.089 134.009, 168.132 151.924, 164.886 166.500 C 163.656 172.020, 158.490 183.349, 156.418 185.068 C 154.153 186.948, 150.894 185.014, 148.960 180.642 C 147.317 176.929, 147.067 172.599, 146.633 140.332 C 146.097 100.606, 145.884 99.201, 140.076 97.176 C 136.885 96.064, 131.899 96.986, 126.735 99.644 C 124.182 100.958, 123.610 100.856, 119.282 98.319 C 115.803 96.280, 113.258 95.571, 109.419 95.571 C 102.342 95.571, 97.609 98.892, 89.205 109.753 C 73.070 130.603, 50.401 148, 39.366 148 C 36.965 148, 35.002 147.662, 35.004 147.250 C 35.016 144.784, 40.736 137.931, 52.324 126.500 C 62.502 116.460, 66.467 111.768, 69.737 105.894 C 76.673 93.437, 75.676 90.518, 65.296 92.895 C 57.659 94.644, 47.905 95.392, 43.506 94.567 C 39.776 93.867, 33 88.021, 33 85.502 C 33 82.156, 37.028 81.518, 56.673 81.751 L 75.846 81.979 80.780 78.080 C 87.441 72.815, 90.006 69.334, 89.968 65.615 C 89.929 61.780, 88.506 59.827, 84.085 57.543 C 79.780 55.318, 67.949 55.159, 62.925 57.258 C 59.748 58.586, 58.821 58.564, 53.941 57.047 C 46.333 54.682, 44 53.244, 44 50.916 C 44 46.005, 58.847 43.446, 72.083 46.076 C 76.751 47.004, 79.211 46.797, 89.881 44.576 C 108.335 40.736, 113.237 41.283, 119.437 47.877 C 122.619 51.261, 124 51.787, 124 49.616 C 124 47.380, 116.466 41.223, 112.321 40.072 C 106.825 38.546, 104.962 38.684, 90.428 41.687 C 78.119 44.231, 76.943 44.310, 70.266 43.050 C 56.693 40.489, 42.876 43.660, 41.365 49.683 C 40.468 53.255, 44.919 57.242, 52.454 59.617 C 57.803 61.303, 58.328 61.300, 65.051 59.557 C 72.706 57.571, 78.942 57.884, 84.017 60.509 C 86.433 61.758, 87 62.692, 87 65.425 C 87 68.245, 86.083 69.637, 81.419 73.900 L 75.839 79 56.669 79.002 C 40.421 79.003, 36.967 79.270, 34.003 80.752 C 29.676 82.915, 29.173 85.170, 32.074 89.403 C 37.715 97.636, 46.257 99.641, 62.038 96.438 C 66.945 95.441, 71.228 94.895, 71.556 95.222 C 71.883 95.550, 70.245 99.347, 67.914 103.659 C 64.474 110.023, 61.096 114.043, 49.979 125 C 36.871 137.919, 31.208 145.494, 32.378 148.542 C 33.175 150.620, 39.862 151.452, 44.913 150.101 C 47.383 149.440, 51.900 147.380, 54.952 145.523 C 63.707 140.195, 82.590 122.765, 89.862 113.299 C 99.091 101.286, 102.772 98.500, 109.416 98.500 C 113.486 98.500, 115.597 99.129, 118.933 101.337 L 123.220 104.174 128.985 101.587 C 137.788 97.637, 141.308 98.445, 142.832 104.767 C 143.327 106.820, 143.782 123.125, 143.844 141 C 143.972 177.780, 144.441 181.424, 149.630 185.980 C 154.762 190.486, 156.930 190.007, 160.817 183.509 C 169.932 168.270, 171.785 151.787, 172.288 81.500 C 172.492 52.900, 172.316 27.960, 171.896 26.077 C 171.476 24.195, 170.315 21.562, 169.316 20.226 C 165.609 15.267, 145.227 10.008, 137.256 11.953" stroke="none" fill="black" fill-rule="evenodd"/>
</svg>