<svg xmlns="http://www.w3.org/2000/svg" width="200" height="200" viewBox="0 0 200 200" version="1.1">
	<path d="M 131 16.441 C 131 19.434, 130.516 22.181, 129.925 22.546 C 129.226 22.978, 129.543 23.962, 130.830 25.355 C 132.419 27.076, 133.257 31.009, 135.072 45.258 L 137.334 63.016 134.917 65.637 C 130.528 70.397, 123.559 72.062, 115.105 70.371 L 111.959 69.742 114.526 66.377 C 118.163 61.609, 120.952 55.055, 120.978 51.218 C 121.071 37.305, 103.625 28.991, 83.660 33.432 C 76.647 34.992, 73.999 36.332, 75.319 37.652 C 75.605 37.938, 79.038 37.394, 82.948 36.444 C 95.841 33.310, 108.646 35.675, 114.866 42.340 C 119.967 47.806, 118.329 58, 111.011 66.334 C 109.209 68.387, 107.906 70.216, 108.117 70.398 C 111.421 73.253, 121.795 74.674, 127.705 73.081 C 130.017 72.457, 133.229 70.837, 134.842 69.480 L 137.775 67.012 138.438 71.756 C 138.803 74.365, 139.353 77.963, 139.662 79.750 L 140.223 83 128.861 83.020 C 101.356 83.068, 90.174 88.073, 78.210 105.691 C 75.936 109.039, 71.731 113.830, 68.864 116.337 C 57.371 126.391, 37 132.606, 37 126.058 C 37 123.375, 40.674 119.313, 51.618 109.899 C 65.767 97.726, 70.615 90.415, 66.692 87.160 C 65.973 86.563, 59.895 84.915, 53.186 83.499 C 46.476 82.082, 38.914 80.035, 36.381 78.949 C 32.357 77.224, 31.943 76.774, 33.097 75.383 C 35.487 72.504, 39.300 71.785, 56.500 70.972 C 65.850 70.530, 75.246 69.586, 77.381 68.876 C 85.722 66.100, 89.811 58.649, 88.547 48.533 C 87.847 42.927, 87.814 42.881, 85.669 44.465 C 79.554 48.979, 74.598 50.500, 66 50.500 C 58.685 50.500, 56.693 50.104, 51.713 47.658 C 45.248 44.484, 41.926 40.674, 43.901 38.699 C 45.230 37.370, 56.567 37.069, 61.750 38.225 C 64.210 38.774, 65 38.611, 65 37.554 C 65 35.199, 51.884 33.416, 46.071 34.981 C 30.364 39.210, 50.743 55.526, 69.343 53.612 C 74.158 53.117, 78.689 51.580, 85.250 48.218 C 86.638 47.506, 86.015 57.070, 84.479 60.040 C 81.526 65.751, 76.531 67.208, 56.806 68.114 C 37.637 68.994, 33.336 70.031, 30.423 74.476 C 28.877 76.836, 28.854 77.282, 30.204 78.633 C 32.508 80.937, 43.572 84.637, 53.747 86.507 C 58.764 87.429, 63.598 88.716, 64.488 89.368 C 65.942 90.431, 65.808 90.966, 63.166 94.612 C 61.549 96.845, 57.137 101.333, 53.362 104.586 C 36.616 119.018, 32.141 124.830, 34.679 128.853 C 38.471 134.864, 58.598 129.068, 70.703 118.478 C 73.534 116.002, 78.350 110.409, 81.405 106.049 C 87.710 97.051, 93.658 92.055, 101.847 88.878 C 106.590 87.039, 110.138 86.611, 123.884 86.222 C 134.110 85.933, 140.046 86.116, 139.679 86.710 C 139.356 87.233, 138.873 91.586, 138.606 96.383 C 137.992 107.395, 136.395 114.558, 133.070 121.214 C 128.011 131.339, 121.772 132.992, 105.477 128.525 C 95.872 125.893, 91.651 125.526, 80.500 126.356 C 76.650 126.643, 72.692 126.905, 71.705 126.939 C 70.717 126.972, 68.805 128.105, 67.455 129.455 C 65.428 131.481, 65 132.894, 65 137.557 C 65 147.068, 72.443 166.381, 81.685 180.848 L 85.101 186.197 127.301 185.778 C 150.510 185.547, 170.254 185.018, 171.174 184.601 C 174.966 182.886, 170.581 170.761, 165 167.528 C 160.411 164.869, 150.423 164.985, 135.500 167.870 C 123.432 170.203, 112.056 170.613, 107.119 168.892 C 102.150 167.159, 98.180 157.649, 100.113 152.106 C 102.305 145.818, 111.920 143.992, 139.144 144.695 C 158.059 145.184, 159.167 144.860, 162.808 137.785 C 166.920 129.794, 164.001 125.392, 153.761 124.142 C 148.711 123.526, 148.487 123.369, 148.187 120.250 C 147.922 117.510, 148.205 117, 149.986 117 C 154.934 117, 160.166 112.564, 164.137 105 C 166.372 100.743, 166.487 99.636, 166.252 84.500 C 166.100 74.699, 166.621 63.076, 167.598 54.500 C 169.978 33.604, 168.146 24.264, 160.528 18.453 C 157.043 15.795, 147.836 13.071, 142.166 13.021 L 139.831 13 140.489 24.250 L 141.146 35.500 138.073 30.285 C 136.383 27.417, 135 23.993, 135 22.675 C 135 16.887, 133.671 11, 132.364 11 C 131.379 11, 131 12.512, 131 16.441 M 143.719 53.270 C 143.878 80.268, 144.361 93.546, 145.469 101.444 C 146.311 107.441, 147 112.720, 147 113.174 C 147 115.058, 153.026 113.849, 155.967 111.374 C 162.887 105.551, 165.449 96.076, 163.773 82.500 C 162.865 75.144, 162.968 70.760, 164.338 58.500 C 167.113 33.645, 166.442 28.040, 159.947 21.845 C 156.493 18.550, 149.843 16, 144.701 16 C 143.784 16, 143.552 24.813, 143.719 53.270 M 137.628 43.292 C 138.344 48.356, 138.952 53.625, 138.980 55 C 139.074 59.649, 140.968 54.859, 140.985 49.932 C 141.001 45.200, 138.560 35.464, 137.137 34.585 C 136.691 34.309, 136.912 38.227, 137.628 43.292 M 141.683 100.727 C 140.950 101.892, 142.709 110.625, 143.514 109.819 C 143.724 109.609, 143.572 107.201, 143.176 104.468 C 142.747 101.516, 142.141 99.998, 141.683 100.727 M 138.077 116.267 C 135.316 124.567, 131.811 129.545, 127.006 131.997 C 121.685 134.712, 118.051 134.535, 102.890 130.822 C 91.007 127.912, 89.503 127.749, 85.062 128.887 C 82.350 129.582, 78.621 129.832, 76.602 129.453 C 72.236 128.634, 68.550 130.674, 67.607 134.430 C 66.043 140.662, 72.800 160.334, 81.743 175.588 L 85.899 182.677 111.807 183.324 C 134.312 183.887, 168.501 182.832, 169.799 181.534 C 170.033 181.301, 169.611 179.212, 168.862 176.894 C 165.945 167.864, 159.668 166.570, 137.367 170.401 C 106.801 175.651, 98.600 172.766, 97.200 156.272 C 96.786 151.398, 96.985 150.815, 100.145 147.655 C 104.950 142.850, 110.266 142, 135.513 142 L 156.928 142 159.464 138.268 C 164.788 130.433, 161.837 127, 149.777 127 C 143.531 127, 142 126.705, 142 125.500 C 142 124.675, 142.872 124, 143.937 124 C 145.612 124, 145.793 123.500, 145.275 120.305 C 144.945 118.273, 143.662 115.117, 142.423 113.292 L 140.172 109.974 138.077 116.267" stroke="none" fill="black" fill-rule="evenodd"/>
</svg>