<svg xmlns="http://www.w3.org/2000/svg" width="200" height="200" viewBox="0 0 200 200" version="1.1">
	<path d="M 151.295 17.145 C 148.541 25.590, 144.819 36.016, 143.025 40.312 L 139.762 48.125 137.386 45.893 C 136.079 44.665, 133.883 41.399, 132.505 38.634 C 129.105 31.812, 129.162 25.065, 132.686 16.938 C 135.322 10.861, 135.336 10.718, 133.436 9.286 C 130.823 7.317, 123.723 7.999, 90.859 13.377 C 76.361 15.750, 62.802 17.485, 60.728 17.234 C 58.653 16.982, 55.636 17.322, 54.023 17.990 C 51.436 19.062, 51.159 19.576, 51.667 22.352 C 52.793 28.500, 57.349 33.584, 65.500 37.788 C 69.522 39.862, 72.326 40.452, 79.836 40.806 C 86.108 41.102, 89.928 40.841, 91.477 40.012 C 93.070 39.160, 94.331 39.086, 95.559 39.773 C 97.087 40.628, 96.578 41.200, 91.923 43.859 C 83.179 48.853, 77.043 49.082, 64.850 44.867 C 59.438 42.996, 58.786 42.980, 49.350 44.497 C 37.886 46.339, 32.636 48.541, 32.187 51.698 C 31.634 55.583, 40.272 58.900, 62.888 63.487 C 76.974 66.345, 78.321 66.464, 77.769 64.806 C 77.550 64.149, 70.425 62.175, 61.935 60.419 C 45.470 57.013, 34.667 53.499, 35.253 51.740 C 35.785 50.146, 41.941 48.264, 50.918 46.952 C 58.099 45.902, 59.466 45.986, 65.180 47.827 C 77.642 51.843, 85.624 51.451, 93.229 46.451 C 98.187 43.191, 99.464 43.351, 101.423 47.479 C 106.985 59.200, 107.811 63.037, 107.260 74.604 C 106.915 81.847, 107.167 87.527, 107.985 90.939 L 109.240 96.170 105.560 99.939 L 101.879 103.708 95.190 101.232 C 85.755 97.741, 76.386 97.708, 69 101.139 C 62.016 104.384, 53.743 111.159, 48.088 118.264 L 43.676 123.807 39.092 122.427 C 28.071 119.111, 30.204 115.152, 52.716 97.133 C 70.685 82.752, 83.061 68.661, 80.219 65.819 C 79.487 65.087, 78.692 65.695, 77.588 67.829 C 74.223 74.337, 65.664 83.082, 50.609 95.395 C 41.994 102.441, 33.832 109.665, 32.472 111.448 C 27.181 118.385, 30.126 123.446, 40.861 125.857 L 44.932 126.772 49.130 121.332 C 58.063 109.753, 68.745 102.528, 78.670 101.353 C 82.384 100.913, 85.737 101.354, 91.359 103.023 C 95.562 104.271, 98.982 105.563, 98.961 105.896 C 98.895 106.921, 90.455 112.788, 83.716 116.492 C 76.478 120.470, 65.984 124.254, 57.335 126.003 C 50.698 127.345, 47 129.341, 47 131.581 C 47 132.426, 48.986 135.218, 51.413 137.787 L 55.826 142.458 60.663 140.724 C 67.466 138.285, 70.642 138.510, 73.538 141.636 C 76.790 145.145, 77.862 149.283, 79.072 163 C 80.247 176.328, 81.590 183.800, 83.145 185.675 C 83.750 186.404, 85.424 187, 86.865 187 C 90.384 187, 102.792 174.168, 106.397 166.801 C 112.017 155.314, 110.820 146.651, 101.485 131.240 C 98.405 126.156, 96.162 121.546, 96.501 120.998 C 97.304 119.699, 106.806 119.725, 116.678 121.051 C 127.220 122.469, 127.601 122.623, 129.030 126.073 C 130.995 130.816, 128.004 139.633, 118.848 156.091 C 109.404 173.066, 107 178.712, 107 183.915 C 107 187.981, 107.961 189.274, 112.172 190.875 C 114.646 191.816, 114.868 191.626, 116.517 187.183 C 123.955 167.145, 134.061 165.155, 156.227 179.361 C 166.490 185.939, 170.159 186.106, 171.488 180.055 C 172.566 175.149, 169.216 160.207, 165.423 153 C 158.664 140.159, 138.440 119.838, 130.922 118.334 C 128.102 117.770, 126.776 116, 129.174 116 C 129.820 116, 129.430 114.987, 128.306 113.750 C 127.183 112.513, 124.673 106.397, 122.728 100.160 L 119.192 88.821 123.736 82.321 C 126.235 78.746, 130.511 71.924, 133.238 67.161 C 135.965 62.397, 137.893 59.625, 137.523 61 C 135.871 67.133, 135.795 88.588, 137.393 97.767 C 141.273 120.061, 149.922 125.383, 159.836 111.579 C 162.827 107.414, 163 106.681, 163 98.182 C 163 93.237, 163.724 80.711, 164.610 70.346 C 167.142 40.694, 165.602 24.295, 158.721 7.645 L 156.301 1.791 151.295 17.145 M 154.610 16.179 C 153.648 19.639, 150.392 28.700, 147.375 36.315 C 143.339 46.502, 142.171 50.501, 142.955 51.446 C 143.722 52.370, 143.604 53.535, 142.533 55.599 C 139.638 61.180, 138.738 69.129, 139.262 84.500 C 140.118 109.581, 145.310 120.374, 153.695 114.501 C 154.873 113.676, 156.851 111.359, 158.091 109.352 C 160.066 106.157, 160.373 104.197, 160.557 93.601 C 160.672 86.946, 161.329 75.084, 162.016 67.242 C 163.649 48.595, 162.863 29.852, 160.036 20.062 C 156.914 9.246, 156.600 9.022, 154.610 16.179 M 119 11.691 C 117.625 11.922, 106.873 13.650, 95.107 15.532 C 83.340 17.414, 73.478 19.189, 73.190 19.477 C 72.902 19.765, 74.429 20.008, 76.583 20.017 C 81.871 20.041, 93.121 22.494, 96.899 24.448 C 101.092 26.616, 101.897 30.295, 99.029 34.175 L 96.801 37.188 99.800 39.844 C 101.627 41.462, 103.878 45.334, 105.558 49.750 C 107.075 53.738, 108.501 57, 108.727 57 C 108.953 57, 109.029 53.989, 108.895 50.308 C 108.743 46.113, 109.064 43.479, 109.756 43.248 C 111.351 42.716, 112.365 51.058, 111.564 58.133 C 110.978 63.316, 111.324 65.484, 114.066 73.824 C 115.817 79.146, 117.579 83.864, 117.984 84.309 C 118.897 85.315, 128.435 70.709, 134.143 59.561 L 138.409 51.230 135.073 47.430 C 126.951 38.180, 125.103 28.220, 129.519 17.500 C 130.879 14.200, 131.993 11.387, 131.995 11.250 C 132.002 10.870, 121.842 11.215, 119 11.691 M 55 23.656 C 55 26.889, 60.067 31.908, 66.558 35.103 C 72.173 37.867, 74.229 38.339, 81 38.413 C 91.882 38.533, 92.769 37.274, 85.347 32.245 C 72.605 23.612, 68.881 22, 61.669 22 C 56.129 22, 55 22.280, 55 23.656 M 77.083 23.382 C 77.313 23.592, 81.264 26.315, 85.864 29.433 C 93.842 34.841, 94.316 35.024, 96.114 33.397 C 100.432 29.489, 97.336 26.267, 87.201 24.122 C 82.058 23.033, 76.238 22.608, 77.083 23.382 M 109.669 74.905 C 108.745 79.525, 108.826 82.092, 110.083 87.951 C 111.296 93.609, 112.061 94.083, 114.347 90.593 C 115.818 88.349, 115.735 87.622, 113.131 79.872 C 110.460 71.923, 110.309 71.706, 109.669 74.905 M 114.476 94.397 C 112.789 96.971, 112.823 97.084, 116.973 102.580 C 119.287 105.645, 121.411 107.922, 121.693 107.640 C 122.282 107.052, 118.150 93.935, 116.969 92.643 C 116.539 92.172, 115.416 92.961, 114.476 94.397 M 107.605 101.890 C 104.457 105.176, 104.400 105.111, 113.526 108.546 L 120.169 111.047 115.437 105.023 C 112.834 101.710, 110.631 99, 110.540 99 C 110.449 99, 109.128 100.301, 107.605 101.890 M 96.480 111.533 C 87.444 118.382, 73.925 124.695, 62 127.634 C 56.225 129.057, 51.065 130.629, 50.533 131.128 C 49.927 131.696, 50.898 133.365, 53.139 135.605 L 56.711 139.177 61.589 137.521 C 67.631 135.470, 71.821 136.160, 75.286 139.777 C 79.227 143.891, 80.812 149.641, 82.038 164.277 C 83.876 186.217, 85.216 187.792, 94.208 178.574 C 102.035 170.549, 106.069 163.330, 106.716 156.191 C 107.390 148.758, 105.540 142.898, 99.364 132.910 C 92.986 122.595, 92.610 121.390, 95.018 118.982 C 97.378 116.622, 103.686 116.449, 117.250 118.372 C 124.191 119.356, 126 119.358, 126 118.378 C 126 116.604, 123.146 114.003, 121.179 113.983 C 120.035 113.972, 103.339 107.751, 102.480 107.017 C 102.470 107.008, 99.770 109.040, 96.480 111.533 M 130.639 122.750 C 131.108 123.713, 131.493 127.425, 131.496 131 C 131.500 138.124, 129.804 142.167, 117.024 165.500 C 110.079 178.179, 108.414 183.036, 109.998 185.996 C 111.732 189.236, 113.414 188.327, 115.250 183.158 C 117.470 176.908, 124.015 169.480, 128.649 167.951 C 135.759 165.604, 144.254 168.386, 158.905 177.859 C 165.874 182.365, 167.737 182.849, 168.677 180.399 C 169.803 177.466, 166.876 162.244, 164.044 156.301 C 159.063 145.847, 148.151 133.215, 136.673 124.616 C 131.358 120.634, 129.297 119.996, 130.639 122.750" stroke="none" fill="black" fill-rule="evenodd"/>
</svg>