<svg xmlns="http://www.w3.org/2000/svg" width="200" height="200" viewBox="0 0 200 200" version="1.1">
	<path d="M 86.500 12.359 C 85.650 13.657, 85.238 15.457, 85.584 16.359 C 86.386 18.447, 86.805 18.520, 77.615 14.981 C 73.303 13.321, 67.688 11.858, 65.137 11.731 C 60.797 11.515, 60.480 11.670, 60.194 14.147 C 59.945 16.296, 61.261 18.148, 67.194 23.997 C 75.948 32.627, 80.444 35.105, 88.522 35.754 C 93.935 36.188, 94.784 36.558, 96.255 39.121 L 97.907 42 93.203 42.043 C 90.617 42.067, 80.945 42.048, 71.712 42.002 C 55.267 41.918, 54.822 41.972, 49.938 44.630 C 41.740 49.092, 42.123 53.407, 50.954 56.100 C 55.957 57.625, 85.121 58.392, 93.500 57.218 C 97.350 56.679, 100.664 56.386, 100.864 56.566 C 101.584 57.216, 93.345 64.199, 86.026 69.141 C 76.148 75.811, 60.461 83.239, 46.124 88.037 C 33.920 92.121, 32.685 93.174, 35.011 97.521 C 39.023 105.016, 54.693 103.372, 81.748 92.615 C 89.312 89.608, 97.855 86.129, 100.733 84.883 L 105.966 82.617 115.733 85.424 C 121.105 86.968, 126.260 88.630, 127.189 89.118 C 129.712 90.443, 137 105.669, 137 109.616 C 137 112.717, 136.746 113, 133.970 113 C 132.303 113, 128.267 111.875, 125 110.500 C 119.061 108, 119.059 108, 85.326 108 C 65.966 108, 47.046 107.494, 40.923 106.814 L 30.254 105.627 24.427 108.564 C 17.261 112.176, 15.878 114.102, 18.428 116.921 C 21.163 119.942, 29.579 122.742, 47.375 126.550 C 56.128 128.423, 63.436 130.103, 63.617 130.284 C 63.798 130.465, 63.418 132.387, 62.773 134.556 C 60.898 140.860, 61.256 160.445, 63.375 167.500 C 69.677 188.484, 82.520 187.245, 88.096 165.114 C 89.614 159.089, 89.600 158.453, 87.852 153.853 C 85.671 148.113, 85.454 140.243, 87.351 135.702 C 90.194 128.899, 100.289 123.030, 106.478 124.584 C 109.729 125.400, 112.768 129.248, 113.580 133.575 C 113.951 135.552, 113.468 140.164, 112.412 144.723 C 111.421 149.001, 110.588 156.325, 110.559 161 C 110.516 168.126, 110.911 170.308, 113.004 174.499 C 120.958 190.428, 135.657 184.702, 139.153 164.312 C 140.258 157.870, 140.172 156.597, 138.179 149.874 C 135.175 139.737, 135.254 131.978, 138.401 128.321 C 140.793 125.540, 140.857 125.528, 156.747 124.921 C 174.068 124.259, 178.629 123.014, 182.103 118 C 185.832 112.618, 185.551 111.313, 180.060 108.530 C 177.284 107.124, 171.297 105.092, 166.756 104.015 C 160.411 102.510, 157.939 101.414, 156.076 99.279 L 153.653 96.500 158.935 95.962 C 167.087 95.132, 168.777 91.513, 164.950 83.078 C 162.396 77.448, 160.143 78.704, 162.533 84.425 C 165.422 91.339, 162.972 94.383, 155.412 93.274 C 152.671 92.871, 152.169 92.158, 149.707 85.166 C 148.115 80.643, 147.260 76.578, 147.621 75.250 C 148.052 73.665, 147.802 73, 146.775 73 C 145.861 73, 144.639 70.763, 143.503 67.011 L 141.690 61.021 146.845 55.570 C 152.790 49.284, 153.399 46.201, 149.423 42.516 C 146.970 40.243, 135.930 36.780, 131.500 36.894 C 129.255 36.952, 119 32.963, 119 32.032 C 119 31.701, 120.323 30.650, 121.939 29.695 C 128.915 25.575, 125.832 20.142, 115 17.467 C 111.425 16.584, 105.269 14.543, 101.320 12.931 C 92.432 9.303, 88.599 9.155, 86.500 12.359 M 88.528 13.954 C 88.204 14.479, 88.206 15.941, 88.533 17.204 C 89.333 20.295, 112.569 30.588, 116.174 29.448 C 119.679 28.339, 123 25.929, 123 24.494 C 123 23.103, 117.553 20.653, 112 19.546 C 110.075 19.162, 105.269 17.532, 101.320 15.924 C 93.979 12.935, 89.577 12.257, 88.528 13.954 M 63 14.998 C 63 17.003, 76.127 29.087, 80.500 31.108 C 84.083 32.764, 92 33.737, 92 32.522 C 92 32.259, 90.816 29.631, 89.370 26.682 C 86.779 21.399, 86.611 21.271, 78.120 18.144 C 67.449 14.214, 63 13.288, 63 14.998 M 91 23.536 C 91 23.762, 91.990 25.984, 93.199 28.473 C 95.344 32.889, 95.510 32.998, 99.949 32.900 C 102.452 32.845, 105.625 32.459, 107 32.041 L 109.500 31.281 106.952 30.242 C 105.551 29.671, 101.388 27.836, 97.702 26.164 C 94.016 24.493, 91 23.310, 91 23.536 M 106 34.897 C 101.875 35.714, 98.352 36.482, 98.170 36.604 C 97.989 36.726, 98.641 38.049, 99.620 39.542 L 101.399 42.258 110.950 41.578 C 116.202 41.203, 122.075 40.535, 124 40.093 L 127.500 39.289 122.500 37.049 C 114.399 33.418, 113.840 33.345, 106 34.897 M 127.025 42.114 C 125.663 42.658, 119.698 43.596, 113.769 44.200 L 102.989 45.297 105.495 48.582 C 106.873 50.388, 108 52.092, 108 52.368 C 108 53.249, 127.690 83.416, 129.682 85.586 C 131.421 87.481, 147.582 92.752, 148.583 91.750 C 148.802 91.531, 147.808 87.862, 146.374 83.597 C 143.961 76.422, 143.590 75.886, 141.411 76.433 C 135.369 77.949, 125 75.040, 125 71.829 C 125 70.647, 129.986 65.591, 134.754 61.937 L 138.007 59.444 134.914 50.222 C 133.213 45.150, 131.299 41.029, 130.661 41.063 C 130.022 41.098, 128.386 41.571, 127.025 42.114 M 135.247 42.250 C 135.500 42.938, 136.710 46.538, 137.935 50.250 C 139.161 53.962, 140.485 57, 140.879 57 C 141.272 57, 143.260 55.294, 145.297 53.208 C 150.323 48.061, 150.182 45.439, 144.750 42.973 C 139.836 40.743, 134.543 40.340, 135.247 42.250 M 52.250 46.549 C 41.732 51.818, 47.081 54.078, 71.624 54.735 C 86.447 55.132, 102.296 54.037, 103.822 52.511 C 104.045 52.288, 103.240 50.507, 102.033 48.553 L 99.837 45 80.668 44.986 C 70.126 44.979, 60.600 44.736, 59.500 44.446 C 58.388 44.154, 55.169 45.087, 52.250 46.549 M 98.429 62.426 C 87.879 72.981, 68.850 83.378, 46.080 91.030 C 41.361 92.616, 37.545 94.383, 37.600 94.957 C 37.655 95.530, 37.768 96.433, 37.850 96.961 C 37.933 97.490, 39.702 98.381, 41.781 98.941 C 49.316 100.970, 66.544 96.367, 92.078 85.504 C 99.194 82.477, 105.412 80, 105.896 80 C 106.380 80, 110.711 81.140, 115.521 82.534 C 120.330 83.928, 124.465 84.869, 124.708 84.625 C 125.230 84.104, 106.736 55.043, 106 55.227 C 105.725 55.297, 102.318 58.536, 98.429 62.426 M 132.480 67.388 C 129.741 69.809, 127.821 72.121, 128.214 72.526 C 128.607 72.931, 132.088 73.488, 135.949 73.764 L 142.969 74.267 141.159 68.941 C 140.163 66.013, 138.924 63.475, 138.404 63.301 C 137.885 63.128, 135.219 64.967, 132.480 67.388 M 133 91.312 C 133 91.601, 134.575 95.124, 136.500 99.140 C 140.088 106.626, 140.969 112.631, 138.800 114.800 C 136.875 116.725, 131.435 116.196, 124.730 113.432 L 118.500 110.864 85.825 110.962 C 65.570 111.022, 49.606 110.601, 43.825 109.854 C 38.696 109.191, 33.487 108.680, 32.249 108.719 C 29.455 108.805, 20.708 113.103, 20.258 114.611 C 19.674 116.565, 29.031 119.734, 46.412 123.469 C 65.108 127.487, 67.353 128.305, 66.565 130.811 C 62.498 143.743, 63.433 163.001, 68.625 173.248 C 74.260 184.367, 81.100 180.868, 85.319 164.709 C 86.703 159.411, 86.673 158.645, 84.905 153.991 C 78.880 138.135, 88.378 122, 103.738 122 C 114.924 122, 118.453 130.640, 114.560 148.500 C 111.606 162.056, 113.354 173.595, 119.093 178.425 C 122.943 181.664, 126.030 181.687, 129.813 178.504 C 136.241 173.095, 138.425 160.906, 135.095 149.020 C 132.405 139.418, 132.382 132.525, 135.026 128.190 C 138.080 123.180, 142.085 122, 156.025 122 C 170.694 122, 176.157 120.791, 179.514 116.801 C 180.881 115.176, 182 113.486, 182 113.046 C 182 111.709, 172.197 107.933, 164.633 106.358 C 157.165 104.803, 153.954 102.707, 152.057 98.151 C 151.121 95.902, 149.803 95.224, 143.364 93.675 C 139.189 92.672, 135.150 91.611, 134.387 91.318 C 133.624 91.026, 133 91.022, 133 91.312" stroke="none" fill="black" fill-rule="evenodd"/>
</svg>