<svg xmlns="http://www.w3.org/2000/svg" width="200" height="200" viewBox="0 0 200 200" version="1.1">
	<path d="M 156.702 36.206 C 156.151 62.303, 154.783 77.083, 151.847 88.659 L 150.618 93.500 147.859 78 C 145.688 65.799, 145.208 60.584, 145.605 53.500 C 146.071 45.191, 145.867 43.847, 142.946 36 C 141.206 31.325, 139.176 23.732, 138.434 19.126 C 137.693 14.521, 136.820 10.487, 136.495 10.162 C 135.554 9.221, 132.534 11.541, 132.149 13.501 C 131.956 14.484, 132.974 18.261, 134.411 21.894 C 135.916 25.699, 138.010 34.750, 139.350 43.241 C 141.575 57.334, 141.600 58.052, 139.905 59.586 C 137.233 62.004, 131.070 63.907, 125.750 63.956 L 121 64 120.985 58.750 C 120.968 52.648, 118.708 42.304, 116.386 37.700 C 114.258 33.483, 110.206 29.190, 106.549 27.281 C 100.925 24.346, 89.824 25.956, 81.393 30.930 C 78.768 32.479, 77.437 32.634, 73.373 31.865 C 66.675 30.596, 53.076 30.596, 49.802 31.865 C 48.319 32.440, 46.377 34.022, 45.487 35.379 C 44.023 37.615, 44.015 38.128, 45.408 40.821 C 46.331 42.607, 48.854 44.735, 51.723 46.148 C 55.940 48.224, 57.906 48.498, 68.500 48.487 C 80.345 48.474, 88 47.025, 88 44.795 C 88 44.088, 86.609 44.032, 83.750 44.622 C 81.412 45.105, 74.325 45.500, 68 45.500 C 58.752 45.500, 55.759 45.132, 52.715 43.620 C 47.448 41.003, 46.061 38.179, 48.910 35.872 C 52.277 33.145, 59.238 32.568, 69.310 34.181 L 78.354 35.628 84.783 32.393 C 93.716 27.899, 99.713 27.198, 105.455 29.978 C 112.934 33.599, 116.797 42.028, 117.839 57 L 118.500 66.500 126.188 66.383 C 131.923 66.296, 134.917 65.724, 137.970 64.133 C 140.976 62.566, 142.172 62.332, 142.476 63.250 C 142.703 63.937, 144.068 71.475, 145.508 80 C 146.948 88.525, 148.381 96.625, 148.692 98 C 149.907 103.367, 147.161 98.235, 144.535 90.230 C 137.947 70.146, 128.879 65.051, 112.806 72.403 C 109.683 73.831, 106.494 75, 105.719 75 C 102.990 75, 92.385 82.773, 82 92.384 C 64.871 108.237, 52.883 115.056, 39.346 116.647 L 33.755 117.304 35.434 114.741 C 36.357 113.332, 44.083 105.551, 52.603 97.450 C 61.122 89.350, 68.787 81.379, 69.636 79.737 C 71.026 77.049, 71.027 76.598, 69.640 75.212 C 67.765 73.337, 61.697 73.437, 54.063 75.470 C 48.684 76.902, 48.566 76.886, 43.063 73.930 C 40.003 72.286, 36.380 70.085, 35.012 69.037 L 32.523 67.132 35.037 66.176 C 36.419 65.650, 42.039 64.918, 47.525 64.548 C 62.311 63.550, 72.899 62.106, 78.341 60.345 C 83.964 58.526, 90 53.634, 90 50.896 C 90 48.170, 88.157 48.562, 86.782 51.580 C 84.303 57.020, 75.860 59.361, 51.329 61.412 C 42.533 62.148, 34.361 63.272, 33.168 63.910 C 28.350 66.489, 32.087 71.495, 42.899 76.945 L 48.500 79.769 55.500 77.942 C 63.848 75.763, 67.998 75.534, 68.006 77.250 C 68.009 77.938, 59.978 86.375, 50.160 96 C 33.534 112.298, 29.328 117.662, 31.484 119.817 C 32.566 120.900, 47.984 118.086, 53.767 115.750 C 62.222 112.335, 69.690 107.023, 83.326 94.725 C 96.622 82.733, 101.414 79.302, 107.500 77.418 C 109.700 76.738, 113.705 75.189, 116.399 73.977 C 120.051 72.335, 122.542 71.894, 126.182 72.243 C 134.337 73.027, 137.280 76.943, 143.073 94.717 L 146.404 104.934 143.394 108.717 C 141.738 110.798, 138.385 113.550, 135.942 114.834 C 131.779 117.021, 130.872 117.117, 121.500 116.368 C 116 115.928, 101.375 115.553, 89 115.534 C 67.915 115.502, 66.202 115.638, 61.755 117.691 C 53.354 121.572, 53.141 126.963, 61.233 130.860 C 66.013 133.161, 76.217 136, 79.710 136 C 84.106 136, 81.958 137.748, 76.750 138.408 C 70.583 139.189, 62.452 141.688, 59.199 143.802 C 51.800 148.609, 52.568 159.262, 61.606 177.210 C 64.547 183.051, 65.757 184.441, 69.298 186.048 C 77.862 189.936, 92.569 187.993, 107.713 180.972 C 116.977 176.677, 121 173.241, 121 169.623 C 121 165.887, 116.084 164.657, 104.592 165.519 C 97.299 166.065, 94.033 165.861, 89.631 164.581 C 86.534 163.681, 84 162.525, 84 162.013 C 84 161.501, 88.927 158.562, 94.948 155.482 C 110.256 147.652, 114.558 142.290, 112.305 133.849 L 111.299 130.078 115.755 129.410 C 121.969 128.478, 131.601 129.509, 134.515 131.418 C 139.481 134.672, 140.356 138.135, 141.099 157.500 C 141.857 177.257, 142.737 181.224, 147.598 186.793 L 150.834 190.500 156.287 184.905 C 160.031 181.064, 162.436 177.461, 163.963 173.405 C 172.796 149.935, 169.554 119.980, 157.405 112.812 C 153.167 110.311, 153.139 109.395, 157.250 107.637 C 159.037 106.872, 161.698 104.953, 163.163 103.373 C 165.606 100.737, 166.040 98.907, 168.413 81.206 C 173.504 43.234, 170.817 21.556, 159.734 11.206 L 157.277 8.912 156.702 36.206 M 159.669 38.751 C 158.975 63.250, 157.416 77.591, 153.911 91.704 C 151.657 100.778, 151.821 106, 154.358 106 C 157.007 106, 162.829 100.521, 163.389 97.500 C 168.406 70.464, 169.292 36.773, 165.275 25.804 C 160.653 13.183, 160.375 13.825, 159.669 38.751 M 145.133 110.985 C 143.352 113.200, 140.007 115.999, 137.698 117.205 C 132.725 119.801, 128.947 119.900, 99 118.223 C 77.856 117.040, 69.369 117.566, 62.360 120.494 C 51.927 124.853, 60.446 130.276, 83 133.635 C 88.775 134.495, 94.544 135.395, 95.821 135.636 C 100.155 136.453, 97.372 138.496, 90.918 139.235 C 71.219 141.492, 60.293 144.716, 58.033 148.938 C 55.501 153.670, 57.602 163.325, 63.864 175.730 C 67.796 183.521, 70.407 185, 80.220 185 C 89.184 185, 100.075 182.120, 109.152 177.351 C 122.930 170.111, 122.027 167.576, 105.976 168.441 C 98.185 168.861, 93.914 168.608, 89.533 167.467 C 77.241 164.265, 77.839 161.515, 92.500 153.802 C 108.880 145.184, 112.639 140.004, 108.426 131.857 C 107.561 130.184, 107.043 128.624, 107.275 128.391 C 107.508 128.159, 111.253 127.454, 115.599 126.825 C 129.378 124.831, 137.096 127.367, 141.120 135.211 C 143.059 138.991, 143.399 141.693, 143.986 158 C 144.569 174.203, 144.920 177.019, 146.812 180.682 C 148 182.982, 149.467 185.170, 150.072 185.545 C 151.849 186.643, 157.621 180.236, 160.367 174.117 C 164.576 164.737, 166 157.479, 166 145.395 C 166 132.856, 163.832 123.727, 159.612 118.500 L 157.190 115.501 157.721 122.114 C 158.070 126.459, 157.867 128.964, 157.130 129.420 C 155.553 130.394, 154.215 126.959, 152.114 116.551 C 151.121 111.630, 149.872 107.457, 149.339 107.280 C 148.806 107.102, 146.913 108.769, 145.133 110.985" stroke="none" fill="black" fill-rule="evenodd"/>
</svg>