<svg xmlns="http://www.w3.org/2000/svg" width="200" height="200" viewBox="0 0 200 200" version="1.1">
	<path d="M 125.917 13.320 C 122.847 14.596, 117.374 17.297, 113.755 19.320 C 110.136 21.344, 105.799 23, 104.116 23 C 101.635 23, 100.910 23.519, 100.279 25.750 C 99.850 27.262, 97.025 30.800, 94 33.611 C 88.735 38.504, 86 39.463, 86 36.417 C 86 34.686, 87.054 34.680, 69.222 36.517 C 52.187 38.271, 39.044 40.537, 34.230 42.549 C 31.597 43.649, 30.926 44.457, 31.178 46.229 C 31.631 49.426, 36.698 51.623, 50.678 54.684 C 57.180 56.108, 62.917 57.651, 63.427 58.113 C 64.776 59.337, 58.779 61.617, 39.500 67.211 C 30.150 69.924, 21.698 72.868, 20.719 73.755 C 19.102 75.217, 19.082 75.511, 20.504 76.933 C 21.807 78.237, 25.746 78.558, 44.008 78.848 L 65.946 79.195 53.763 87.321 C 47.062 91.790, 38.299 98.612, 34.290 102.481 C 28.282 108.278, 27 110.067, 27 112.651 C 27 116.193, 28.285 117, 33.925 117 C 48.451 117, 73.662 99.769, 77.453 87.250 C 78.633 83.353, 75.659 84.707, 73.700 88.958 C 69.408 98.273, 50.762 111.138, 37.692 113.802 C 32.967 114.765, 29 114.435, 29 113.078 C 29 108.594, 48.448 93.165, 73 78.171 L 76.500 76.034 50.750 76.017 C 36.587 76.008, 25 75.616, 25 75.146 C 25 74.676, 28.487 73.294, 32.750 72.075 C 50.443 67.014, 62.635 62.978, 64.750 61.480 C 69.612 58.037, 66.248 54.788, 56 53.030 C 47.580 51.586, 35.090 47.954, 34.334 46.731 C 34.009 46.206, 34.342 45.407, 35.072 44.955 C 37.174 43.656, 52.259 41.123, 67.368 39.532 C 79.470 38.257, 81.592 38.255, 84.032 39.517 L 86.828 40.962 83.992 46.231 C 80.419 52.869, 79.541 57.582, 80.922 62.710 C 82.268 67.708, 85.867 72.533, 87.231 71.169 C 87.862 70.538, 87.378 69.076, 85.852 67.011 C 84.008 64.514, 83.513 62.604, 83.562 58.163 C 83.627 52.292, 86.758 44.414, 89.434 43.387 C 90.173 43.103, 93.753 44.322, 97.389 46.095 L 104 49.318 104.015 60.409 C 104.036 76.606, 108.200 91.081, 114.553 97.050 C 116.625 98.996, 116.709 99.456, 115.525 102.341 C 114.812 104.078, 113.931 106.895, 113.568 108.599 L 112.907 111.699 120.622 112.351 C 124.865 112.709, 128.497 113.164, 128.693 113.360 C 128.890 113.557, 128.752 116.256, 128.388 119.359 L 127.725 125 122.830 125 C 116.573 125, 111.322 122.801, 109.846 119.562 C 108.925 117.539, 109.010 116.203, 110.264 113.010 C 111.691 109.378, 111.692 109, 110.275 109 C 107.206 109, 51.406 119.050, 46.500 120.486 C 43.750 121.291, 40.380 122.074, 39.010 122.225 C 34.817 122.688, 35.454 125.623, 41.084 131.774 C 48.208 139.558, 50.403 144.714, 50.333 153.500 C 50.274 160.922, 47.337 169.909, 42.964 176.051 C 41.764 177.736, 40.943 179.269, 41.141 179.458 C 41.338 179.647, 56.575 180.297, 75 180.904 C 109.756 182.048, 120.690 183.034, 149.730 187.640 C 159.207 189.143, 167.307 190.027, 167.730 189.603 C 168.154 189.180, 168.500 183.134, 168.500 176.167 C 168.500 164.788, 168.260 163.042, 166.137 159 C 163.245 153.492, 160.389 150.272, 156.686 148.346 C 152.608 146.225, 153.877 144.586, 160.124 143.904 C 163.128 143.576, 166.916 142.672, 168.543 141.894 C 173.710 139.425, 172.770 133.108, 166.579 128.701 C 163.902 126.794, 162.424 126.594, 152.544 126.800 L 141.500 127.030 147 124.265 C 156.792 119.342, 153.942 114.422, 139.837 111.902 C 136.077 111.230, 133 110.302, 133 109.840 C 133 109.378, 136.945 109, 141.766 109 C 152.372 109, 155.997 107.394, 160.655 100.635 C 177.255 76.547, 173.108 23.748, 153.845 13.921 C 151.624 12.788, 149.512 12.153, 149.153 12.510 C 148.794 12.867, 147.359 18.584, 145.965 25.215 L 143.430 37.271 138.835 29.386 L 134.241 21.500 136.190 18.748 C 141.018 11.932, 135.840 9.196, 125.917 13.320 M 125.842 16.375 C 119.532 18.970, 110.630 23.964, 111.235 24.568 C 112.914 26.248, 139.705 43, 140.711 43 C 141.420 43, 142 42.427, 142 41.726 C 142 40.612, 135.932 29.430, 132.048 23.387 C 130.838 21.504, 130.992 20.877, 133.464 17.637 L 136.237 14 133.869 14.024 C 132.566 14.037, 128.954 15.095, 125.842 16.375 M 150.535 17.250 C 150.313 17.938, 149.622 20.975, 148.999 24 C 148.375 27.025, 146.095 37.972, 143.930 48.328 C 140.356 65.432, 140.133 67.352, 141.498 69.300 C 143.683 72.420, 143.361 74.518, 140.127 78.215 C 137.685 81.007, 136.951 83.299, 135.232 93.500 C 134.121 100.100, 133.423 105.722, 133.682 105.993 C 133.941 106.264, 137.606 106.453, 141.826 106.411 C 151.300 106.319, 155.065 104.544, 159.023 98.303 C 164.960 88.941, 168.009 75.419, 167.983 58.566 C 167.962 45.379, 166.106 35.727, 161.974 27.312 C 158.025 19.270, 151.681 13.690, 150.535 17.250 M 105.732 27.454 C 103.519 29.072, 103.553 29.810, 106.109 35.667 C 107.268 38.325, 108.281 42.258, 108.359 44.407 C 108.499 48.290, 108.561 48.347, 118.500 53.764 C 124 56.762, 130.466 60.537, 132.870 62.154 C 135.273 63.771, 137.361 64.960, 137.509 64.797 C 137.909 64.357, 141 49.004, 141 47.460 C 141 46.731, 140.165 45.870, 139.145 45.546 C 138.125 45.222, 131.793 41.362, 125.073 36.967 C 108.761 26.299, 107.894 25.873, 105.732 27.454 M 95.518 35.982 C 93.380 38.172, 91.826 40.090, 92.065 40.245 C 92.954 40.822, 104.058 46, 104.406 46 C 104.604 46, 105.003 45.095, 105.293 43.989 C 105.917 41.600, 102.083 32, 100.504 32 C 99.900 32, 97.656 33.792, 95.518 35.982 M 107.194 64.176 C 107.563 75.618, 107.990 78.389, 110.214 83.795 C 111.638 87.257, 113.805 91.551, 115.029 93.337 L 117.254 96.584 126.178 87.660 C 134.145 79.693, 135.203 78.203, 136.045 73.763 C 136.564 71.028, 136.753 68.410, 136.466 67.945 C 135.745 66.778, 120.861 57.908, 113.132 54.039 L 106.764 50.852 107.194 64.176 M 139.079 73.583 C 139.127 74.748, 139.364 74.985, 139.683 74.188 C 139.972 73.466, 139.936 72.603, 139.604 72.271 C 139.272 71.939, 139.036 72.529, 139.079 73.583 M 128.835 88.437 C 126.326 90.841, 123.323 94.142, 122.162 95.773 C 120.172 98.567, 120.150 98.823, 121.776 100.248 C 123.745 101.974, 130.060 105.311, 130.435 104.824 C 130.847 104.290, 133.942 84.609, 133.659 84.326 C 133.515 84.182, 131.345 86.032, 128.835 88.437 M 117.295 105.390 C 116.339 108.505, 116.440 108.883, 118.370 109.401 C 119.541 109.715, 122.638 109.979, 125.250 109.986 C 131.584 110.005, 131.390 108.173, 124.726 105.053 C 121.852 103.707, 119.241 102.458, 118.925 102.278 C 118.609 102.098, 117.876 103.498, 117.295 105.390 M 79.751 116.768 C 65.590 119.280, 54.170 121.503, 54.374 121.707 C 54.746 122.079, 100.666 124.954, 106.716 124.984 L 109.933 125 107.882 121.524 C 106.414 119.037, 106.020 117.188, 106.495 115.024 C 106.860 113.361, 106.786 112.045, 106.329 112.099 C 105.873 112.154, 93.913 114.255, 79.751 116.768 M 131.459 116.904 C 131.143 118.882, 130.677 121.513, 130.423 122.750 C 130.033 124.655, 130.387 124.998, 132.731 124.988 C 138.735 124.962, 150 121, 150 118.914 C 150 117.453, 144.108 115.201, 137.621 114.184 L 132.033 113.308 131.459 116.904 M 42.721 129.313 C 44.908 131.685, 48.002 135.848, 49.598 138.563 C 52.278 143.122, 52.500 144.265, 52.500 153.500 C 52.500 162.931, 52.298 163.913, 48.946 170.750 L 45.392 178 66.890 178 C 78.713 178, 94.712 178.476, 102.443 179.057 C 114.073 179.932, 146.025 184.043, 161.200 186.618 C 164.595 187.194, 164.955 187.026, 165.568 184.586 C 166.801 179.674, 165.508 163.754, 163.571 160 C 161.271 155.540, 158.211 152.180, 154.865 150.439 C 152.243 149.074, 152.209 149.105, 147.607 157.025 C 141.734 167.133, 135.297 174, 131.694 174 C 127.357 174, 125.643 170.152, 125.171 159.355 C 124.946 154.210, 124.392 150, 123.940 150 C 119.678 150, 93.889 161.645, 84.136 167.974 C 80.635 170.246, 77.646 171.968, 77.492 171.802 C 77.339 171.636, 77.858 168.393, 78.646 164.595 C 82.258 147.176, 73.526 136.126, 49.371 127.551 C 38.984 123.863, 37.950 124.137, 42.721 129.313 M 52 125.293 C 52.275 125.590, 54.927 126.789, 57.894 127.959 C 66.558 131.373, 73.832 136.778, 77.793 142.744 C 81.101 147.726, 81.426 148.873, 81.812 156.949 L 82.232 165.735 88.866 161.857 C 96.233 157.551, 114.174 149.778, 120.750 148.044 C 123.087 147.427, 124.998 146.378, 124.996 145.711 C 124.993 144.829, 121.665 144.500, 112.746 144.498 C 98.802 144.497, 93.693 143.149, 94.199 139.608 C 94.685 136.205, 102.743 133.061, 115.612 131.252 C 121.868 130.373, 126.770 129.437, 126.506 129.173 C 126.242 128.909, 114.658 128.113, 100.763 127.405 C 86.868 126.696, 70.100 125.810, 63.500 125.435 C 56.900 125.060, 51.725 124.996, 52 125.293 M 138.500 130.039 C 143.450 130.552, 149.525 131.400, 152 131.924 C 156.028 132.777, 159.338 132.005, 157.886 130.552 C 157.621 130.288, 151.126 129.854, 143.452 129.588 C 130.642 129.145, 130.237 129.182, 138.500 130.039 M 159.244 135.267 C 158.003 138.145, 156.991 140.770, 156.994 141.101 C 156.997 141.431, 159.292 141.339, 162.093 140.896 C 167.157 140.096, 170 138.623, 170 136.801 C 170 135.352, 164.338 129.998, 162.827 130.017 C 162.097 130.026, 160.485 132.389, 159.244 135.267 M 113.340 134.096 C 106.202 135.288, 97.461 138.298, 97.689 139.485 C 98.033 141.281, 103.905 142.071, 114.769 141.784 L 125.500 141.500 125.807 137.250 L 126.115 133 122.307 133.117 C 120.213 133.181, 116.178 133.622, 113.340 134.096 M 129 137 L 129 141 134.250 141.007 C 137.137 141.011, 142.494 141.297, 146.154 141.643 L 152.808 142.271 154.401 139.192 C 155.276 137.499, 155.624 135.886, 155.173 135.607 C 153.551 134.604, 141.370 133.015, 135.250 133.008 L 129 133 129 137 M 128 144.750 C 128 145.162, 133.174 145.500, 139.498 145.500 C 145.821 145.500, 150.997 145.162, 150.998 144.750 C 150.999 144.338, 145.825 144, 139.500 144 C 133.175 144, 128 144.338, 128 144.750 M 137.500 147.764 C 135.850 147.909, 132.996 148.275, 131.158 148.577 L 127.816 149.125 128.158 159.029 C 128.425 166.771, 128.878 169.310, 130.233 170.663 C 131.876 172.304, 132.194 172.155, 136.393 167.773 C 140.198 163.802, 149 150.550, 149 148.793 C 149 148.067, 141.591 147.404, 137.500 147.764" stroke="none" fill="black" fill-rule="evenodd"/>
</svg>