<svg xmlns="http://www.w3.org/2000/svg" width="200" height="200" viewBox="0 0 200 200" version="1.1">
	<path d="M 133.196 24.750 C 125.688 40.132, 123.055 44.724, 123.017 42.500 C 122.953 38.773, 120.542 27.186, 118.419 20.406 C 116.427 14.044, 112.636 9.024, 111.018 10.607 C 110.395 11.216, 108.327 19.316, 106.422 28.607 C 102.592 47.288, 100.091 55.756, 95.970 64.003 C 93.030 69.886, 88.323 76.089, 89.439 72.609 C 91.331 66.710, 95 45.374, 95 40.274 C 95 25.362, 89.489 22.688, 73 29.599 C 50.849 38.883, 41.979 39.499, 36.402 32.143 C 35.783 31.327, 34.767 31.026, 34.076 31.453 C 32.419 32.477, 36.415 36.795, 40.718 38.629 C 47.525 41.529, 55.183 40.092, 73.371 32.499 C 83.625 28.218, 88.529 27.666, 90.706 30.549 C 93.140 33.772, 91.879 50.017, 87.927 66.355 L 84.575 80.210 79.038 84.500 C 75.992 86.860, 72.150 90.249, 70.500 92.031 C 65.605 97.317, 53.689 104.562, 44.298 107.960 C 35.901 110.998, 26.048 112.372, 24.403 110.734 C 22.108 108.447, 35.067 97.369, 48.184 90.402 C 66.292 80.786, 63.423 76.117, 36.565 71.494 C 28.594 70.122, 21.831 69, 21.536 69 C 21.241 69, 21 68.589, 21 68.087 C 21 66.868, 40.708 62.327, 49.500 61.521 C 60.822 60.482, 69.339 58.891, 71.767 57.360 C 76.262 54.528, 73.148 52.413, 57.226 47.485 C 49.127 44.979, 39.094 41.594, 34.931 39.964 C 26.569 36.689, 26 36.563, 26 37.980 C 26 40.079, 38.720 44.814, 68.250 53.706 C 73.322 55.234, 66.233 57.075, 48 58.968 C 38.195 59.985, 24.896 62.982, 20.201 65.232 C 16.494 67.009, 16.276 69.467, 19.704 70.832 C 21.242 71.445, 27.900 72.856, 34.500 73.969 C 48.495 76.328, 52.875 77.457, 55.508 79.383 C 58.164 81.324, 56.665 82.892, 47.765 87.484 C 35.241 93.944, 25.213 101.754, 22.363 107.266 C 17.056 117.527, 39.547 115.626, 58.804 104.186 C 62.550 101.960, 69.380 96.736, 73.981 92.576 C 78.582 88.417, 82.463 85.130, 82.605 85.272 C 82.747 85.414, 82.133 88.155, 81.240 91.362 C 79.678 96.975, 79.416 97.283, 74.308 99.542 C 68.472 102.123, 68.577 101.935, 70.045 107.223 C 71.339 111.882, 79.234 117.828, 88.574 121.178 C 96.454 124.003, 97.467 126.610, 90.304 125.628 C 87.722 125.274, 85.289 124.468, 84.899 123.836 C 84.393 123.018, 81.205 122.881, 73.844 123.361 C 58.767 124.344, 51.284 125.852, 48.170 128.533 L 45.500 130.832 47.898 133.388 C 51.660 137.398, 59.801 139.359, 73 139.434 C 79.325 139.470, 86.300 139.187, 88.500 138.803 L 92.500 138.107 88.416 139.442 C 76.015 143.496, 67.404 153.365, 65.415 165.807 C 63.992 174.703, 70.216 183.502, 79.982 186.402 C 82.738 187.221, 90.960 188.200, 98.252 188.578 C 110.624 189.220, 111.862 189.115, 116.733 187.020 C 125.755 183.138, 133 172.663, 133 163.500 C 133 155.087, 126.620 145.058, 118.722 141.057 L 114.500 138.918 120 139.429 C 136.088 140.923, 153 134.127, 153 126.168 C 153 121.931, 150.758 120.632, 143.164 120.470 C 135.364 120.303, 120.751 115.202, 117.500 111.510 C 115.155 108.847, 110.782 106.517, 106.334 105.559 L 103.168 104.878 105.939 96.681 C 109.513 86.107, 121.021 57, 121.628 57 C 121.884 57, 122.022 65.475, 121.935 75.833 C 121.763 96.275, 122.166 98.227, 127.801 104.250 C 133.171 109.990, 137.999 107.321, 151.787 90.988 C 156.797 85.054, 163.155 78.759, 166.389 76.532 C 171.290 73.157, 173.046 72.528, 178.558 72.177 C 183.491 71.863, 185 71.409, 185 70.239 C 185 68.953, 183.804 68.802, 177.439 69.283 C 165.094 70.217, 157.139 67.125, 153.551 60 C 151.420 55.768, 150.044 48.640, 148.490 33.771 C 146.588 15.581, 144.837 4, 143.989 4 C 143.623 4, 138.766 13.337, 133.196 24.750 M 135.264 26.671 C 123.520 51.085, 124.378 47.368, 124.630 72.731 C 124.839 93.793, 124.970 95.175, 127.127 99.012 C 129.696 103.583, 132.913 104.920, 136.597 102.948 C 137.941 102.229, 143.536 96.434, 149.031 90.070 C 154.525 83.707, 160.816 77.176, 163.010 75.559 C 166.949 72.654, 166.911 71.054, 162.900 71.015 C 160.396 70.991, 153.235 65.354, 151.536 62.070 C 148.862 56.898, 147.219 48.707, 145.496 31.963 C 144.576 23.016, 143.502 14.828, 143.110 13.768 C 142.565 12.295, 140.717 15.334, 135.264 26.671 M 112.044 14.184 C 111.831 17.477, 104.647 49.724, 103.173 54.004 C 100.370 62.142, 95.743 70.776, 90.791 77.110 C 87.473 81.354, 85.813 84.830, 83.973 91.388 C 81.562 99.985, 81.508 100.067, 77.521 101.279 L 73.500 102.500 80 103.133 C 83.575 103.481, 89.650 103.817, 93.500 103.878 L 100.500 103.990 103.860 94.245 C 105.708 88.885, 110.381 76.684, 114.245 67.130 L 121.270 49.761 120.079 41.130 C 118.584 30.288, 116.384 21.625, 113.964 17.048 C 112.933 15.097, 112.069 13.808, 112.044 14.184 M 73 107.449 C 73 110.237, 86.111 118.272, 92.865 119.623 C 95.797 120.209, 95.957 120.058, 97.068 115.644 C 97.703 113.121, 98.286 110.735, 98.362 110.342 C 98.602 109.099, 84.741 106.047, 78.750 106.023 C 74.385 106.006, 73 106.349, 73 107.449 M 107 109.500 C 111.566 111.258, 113.362 111.232, 109.500 109.464 C 107.850 108.708, 105.825 108.104, 105 108.121 C 104.175 108.138, 105.075 108.759, 107 109.500 M 99.974 115.594 C 98.364 121.342, 99.419 122.316, 106.449 121.571 C 111.666 121.019, 115.685 118.227, 114.754 115.802 C 114.290 114.592, 104.969 111, 102.292 111 C 101.724 111, 100.681 113.067, 99.974 115.594 M 116.575 119.490 C 114.500 123.344, 112.799 123.968, 104.309 123.986 C 100.784 123.994, 97.816 124.489, 97.417 125.135 C 96.915 125.947, 97.965 126.103, 101.108 125.683 C 103.523 125.361, 111.918 124.534, 119.762 123.845 C 134.964 122.510, 135.039 122.430, 124.712 118.544 L 118.370 116.157 116.575 119.490 M 139.042 124.921 C 138.207 126.482, 125.497 132.178, 116 135.248 C 115.175 135.515, 117.138 136.076, 120.362 136.496 C 131.420 137.934, 146.106 133.820, 149.746 128.264 C 151.290 125.909, 151.275 125.674, 149.503 124.379 C 146.618 122.269, 140.286 122.597, 139.042 124.921 M 62.173 127.075 C 55.267 127.971, 49 129.761, 49 130.837 C 49 133.787, 62.712 136.989, 75 136.908 C 87.145 136.829, 92.111 135.417, 93.088 131.765 C 93.763 129.241, 93.562 129.016, 90.156 128.473 C 88.145 128.153, 85.719 127.465, 84.764 126.945 C 82.729 125.838, 71.196 125.904, 62.173 127.075 M 116 127.042 C 112.975 127.460, 107.511 127.847, 103.857 127.901 C 98.785 127.977, 97.070 128.374, 96.607 129.582 C 95.796 131.695, 95.842 132.216, 96.788 131.631 C 97.222 131.363, 100.034 131.951, 103.038 132.938 L 108.500 134.731 118.500 131.269 C 124 129.365, 129.175 127.414, 130 126.934 C 131.823 125.873, 124.021 125.933, 116 127.042 M 96.200 135.200 C 94.874 136.526, 94.570 139.044, 95.750 138.924 C 96.162 138.882, 98.075 138.259, 100 137.540 L 103.500 136.232 100.685 135.116 C 97.262 133.759, 97.648 133.752, 96.200 135.200 M 110.269 138.693 C 111.242 138.947, 112.592 138.930, 113.269 138.656 C 113.946 138.382, 113.150 138.175, 111.500 138.195 C 109.850 138.215, 109.296 138.439, 110.269 138.693 M 106.276 143.575 C 110.738 146.862, 111.432 149.029, 110.748 157.547 C 109.468 173.494, 98.974 180.385, 93.250 169.037 C 91.313 165.197, 91 163.006, 91 153.288 C 91 140.756, 91.082 140.872, 84.399 143.906 C 75.695 147.859, 69.138 157.231, 68.292 166.928 C 67.883 171.624, 68.175 173.036, 70.153 175.908 C 74.801 182.657, 78.436 184.045, 96.500 185.965 C 111.252 187.533, 120.300 184.614, 125.867 176.489 C 136.045 161.636, 126.652 143.016, 108.122 141.312 L 102.500 140.795 106.276 143.575 M 93.563 149.648 C 92.829 158.347, 93.866 165.620, 96.388 169.470 C 100.996 176.502, 108 167.501, 108 154.546 C 108 148.117, 107.949 147.994, 104.234 145.536 C 102.162 144.165, 99.063 142.763, 97.347 142.419 L 94.226 141.795 93.563 149.648" stroke="none" fill="black" fill-rule="evenodd"/>
</svg>