<svg xmlns="http://www.w3.org/2000/svg" width="200" height="200" viewBox="0 0 200 200" version="1.1">
	<path d="M 91.857 11.030 C 89.748 13.246, 87.744 16.171, 87.403 17.530 C 87.062 18.888, 86.399 20, 85.929 20 C 83.233 20, 73.621 15.448, 70.849 12.859 C 67.766 9.979, 67.533 9.918, 66.257 11.662 C 60.976 18.882, 66.150 28.054, 77.526 31.640 C 85.889 34.276, 84.488 35.548, 73.250 35.522 C 64.622 35.503, 62.858 35.815, 57.926 38.238 C 41.255 46.425, 52.163 57.768, 74.683 55.665 L 81.098 55.066 80.799 60.682 L 80.500 66.299 71 70.147 C 65.775 72.264, 55.088 76.096, 47.250 78.663 C 39.412 81.230, 33 83.653, 33 84.047 C 33 85.859, 39.823 91.147, 43.458 92.151 C 48.799 93.626, 58.165 92.056, 71.352 87.474 C 76.844 85.566, 81.427 84.116, 81.536 84.252 C 81.646 84.388, 82.036 87.262, 82.405 90.639 L 83.074 96.778 54.787 96.639 C 24.254 96.489, 15 97.186, 15 99.637 C 15 100.458, 17.376 103.507, 20.281 106.411 C 26.613 112.743, 32.421 115.186, 49.461 118.682 C 56.039 120.032, 62.089 121.510, 62.905 121.967 C 64.782 123.017, 59.420 126.488, 45.140 133.466 C 39.550 136.197, 35.131 138.897, 35.319 139.466 C 35.519 140.071, 41.429 140.755, 49.580 141.115 C 83.085 142.597, 92.550 154.315, 69.500 165.777 C 63.452 168.784, 45.248 175, 42.488 175 C 40.735 175, 40.388 181.988, 41.992 184.986 C 45.451 191.449, 58.630 188.957, 85.500 176.760 C 102.358 169.107, 110.084 166, 112.253 166 C 113.341 166, 117.217 167.972, 120.866 170.382 C 139.103 182.427, 151.721 184.917, 154.954 177.110 C 156.556 173.244, 155.455 169.799, 151.003 164.741 C 144.756 157.644, 135.734 153.635, 122.717 152.174 C 117.744 151.616, 116.357 151.026, 114.658 148.747 C 113.067 146.613, 112.874 145.726, 113.800 144.800 C 114.547 144.053, 121.827 143.193, 133.247 142.503 C 143.738 141.870, 152.457 140.875, 153.750 140.165 C 159.120 137.216, 154.982 131.137, 141.562 122.263 L 134.500 117.593 139 116.405 C 141.475 115.751, 149.575 113.780, 157 112.024 C 177.426 107.192, 184.455 103.587, 182.084 99.157 C 180.838 96.828, 173.096 93.710, 164.232 91.966 C 156.525 90.450, 155.436 88.411, 159.930 83.916 C 166.405 77.441, 161.823 66.305, 150.989 62.186 C 149.423 61.591, 147.984 59.843, 147.143 57.518 C 145.837 53.907, 145.890 53.709, 149.025 50.475 C 156.510 42.752, 151.713 37.528, 132 31.934 C 123.517 29.526, 122.488 28.984, 122.392 26.869 C 122.332 25.566, 122.219 23.770, 122.142 22.878 C 121.961 20.814, 111.997 11.084, 107.735 8.810 C 105.956 7.861, 102.518 7.065, 100.095 7.042 C 96.226 7.005, 95.224 7.491, 91.857 11.030 M 98 9.709 C 94.354 11.050, 87.878 20.193, 89.757 21.347 C 91.768 22.580, 117.170 28.149, 118.486 27.644 C 121.377 26.534, 120.015 22.970, 114.750 17.867 C 109.970 13.235, 103.017 8.957, 100.500 9.101 C 99.950 9.132, 98.825 9.406, 98 9.709 M 67 17.865 C 67 21.738, 70.033 25.325, 75.467 27.879 C 81.803 30.858, 83.619 30.657, 84.371 26.897 C 85.067 23.415, 84.531 22, 82.514 22 C 81.761 22, 78.124 20.425, 74.431 18.500 C 70.737 16.575, 67.555 15, 67.358 15 C 67.161 15, 67 16.289, 67 17.865 M 87.217 27.163 C 86.627 29.387, 86.693 30.745, 87.416 31.235 C 88.772 32.154, 108.617 32.047, 112 31.103 C 113.929 30.564, 111.757 29.757, 102.500 27.571 C 95.900 26.012, 89.961 24.532, 89.301 24.281 C 88.604 24.016, 87.732 25.222, 87.217 27.163 M 113.500 33.213 C 109.632 34.597, 105.966 34.951, 97.307 34.778 C 91.151 34.654, 85.764 34.903, 85.336 35.331 C 82.734 37.933, 96.115 38.831, 109.500 36.952 C 124.753 34.811, 130.279 34.750, 134 36.682 C 136.864 38.170, 143.116 45.847, 144.261 49.284 C 144.741 50.722, 147.664 48.996, 149.010 46.481 C 150.071 44.498, 150.064 43.782, 148.968 42.461 C 146.663 39.684, 140.250 36.993, 129.190 34.161 C 118.550 31.436, 118.477 31.432, 113.500 33.213 M 61.158 39.910 C 52.568 42.877, 50.435 46.670, 55.292 50.342 C 57.623 52.105, 59.764 52.505, 68.292 52.771 C 73.906 52.947, 78.998 52.732, 79.606 52.295 C 80.214 51.858, 81.018 48.744, 81.392 45.376 C 82.035 39.574, 81.951 39.220, 79.785 38.640 C 75.410 37.467, 66.465 38.077, 61.158 39.910 M 114.500 39.136 C 111.750 39.632, 104.100 40.141, 97.500 40.269 C 90.900 40.396, 85.169 40.950, 84.765 41.500 C 84.361 42.050, 84.024 44.646, 84.015 47.269 C 84.001 51.703, 84.158 52.002, 86.250 51.527 C 96.115 49.287, 97.560 49.159, 99.979 50.314 C 105.954 53.169, 102.350 58.380, 90.288 64.329 L 84 67.429 84 73.715 C 84 77.172, 84.155 80, 84.343 80 C 84.532 80, 87.120 79.168, 90.093 78.151 C 106.105 72.673, 116.623 72.853, 129.691 78.827 C 139.058 83.109, 150.467 85.933, 152.041 84.359 C 152.607 83.793, 151.719 79.650, 149.752 73.678 C 145.990 62.256, 145.690 62.068, 134.170 63.859 C 126.727 65.016, 124.786 64.807, 126.567 63.041 C 127.888 61.732, 139.902 59.937, 142.681 60.635 C 145.125 61.248, 145.333 60.844, 144.387 57.317 C 143.877 55.413, 143.494 55.274, 141.397 56.229 C 138.053 57.752, 137.010 56.225, 139.832 53.937 L 142.164 52.047 139.853 47.419 C 136.171 40.047, 133.016 37.978, 125.673 38.118 C 122.278 38.182, 117.250 38.641, 114.500 39.136 M 90 53.437 L 84.500 54.598 84.195 59.299 C 84.028 61.885, 84.190 64, 84.555 64 C 85.991 64, 96.983 57.676, 98.542 55.953 C 99.452 54.948, 99.900 53.648, 99.539 53.063 C 98.770 51.818, 97.417 51.871, 90 53.437 M 150.396 66.591 C 150.732 67.465, 152.018 71.511, 153.253 75.581 C 154.489 79.651, 155.972 82.985, 156.550 82.991 C 158.639 83.009, 160 80.521, 160 76.682 C 160 73.465, 159.306 72.071, 156.118 68.882 C 152.116 64.881, 149.309 63.756, 150.396 66.591 M 72 72.707 C 67.325 74.612, 57.875 78.069, 51 80.390 C 44.125 82.712, 38.375 85.036, 38.221 85.555 C 38.068 86.075, 39.418 87.320, 41.221 88.323 C 45.976 90.968, 55.419 89.987, 68.739 85.466 C 74.658 83.457, 79.862 81.471, 80.304 81.052 C 80.747 80.634, 80.972 77.806, 80.804 74.768 L 80.500 69.245 72 72.707 M 95.253 79.488 C 84.188 82.348, 84.182 82.351, 84.592 85.226 C 84.770 86.477, 85.188 89.638, 85.519 92.250 L 86.123 97 97.311 96.979 C 103.465 96.967, 116.600 96.305, 126.500 95.507 C 148.156 93.762, 150 93.721, 150 94.981 C 150 95.520, 148.762 96.234, 147.250 96.566 C 128.254 100.736, 118.224 105.137, 114.165 111.081 C 112.219 113.931, 111.934 115.289, 112.448 119.237 C 113.157 124.674, 111.799 128.047, 106.952 132.894 C 100.059 139.787, 93.225 134.671, 88.163 118.826 C 86.524 113.697, 84.872 107.404, 84.492 104.842 L 83.801 100.185 72.460 99.476 C 59.014 98.636, 20.446 99.221, 19.386 100.281 C 18.481 101.186, 23.402 106.464, 27.500 108.985 C 31.634 111.528, 41.784 114.610, 52.435 116.557 C 64.411 118.746, 66 119.426, 66 122.360 C 66 125.173, 64.107 126.588, 51.663 133.079 L 42.825 137.689 53.163 138.286 C 66.878 139.079, 76.209 141.974, 81.228 146.993 C 83.976 149.741, 85 151.610, 85 153.879 C 85 160.915, 73.198 168.892, 54.500 174.493 C 49.550 175.976, 44.938 177.358, 44.250 177.563 C 40.777 178.602, 44.899 186, 48.951 186 C 55.527 186, 70.609 180.787, 89.500 171.984 C 100.962 166.643, 110.496 163, 113.013 163 C 114.095 163, 117.977 165.051, 121.639 167.558 C 137.879 178.677, 150.940 182.070, 152.566 175.592 C 153.909 170.243, 145.995 161.638, 136.447 158.066 C 133.249 156.869, 127.677 155.620, 124.066 155.288 C 116.720 154.615, 113.582 153.026, 111.449 148.901 C 109.465 145.064, 109.600 144.308, 112.624 142.327 C 114.711 140.959, 118.677 140.465, 131.981 139.916 C 150.570 139.149, 153 138.698, 153 136.018 C 153 133.900, 145.506 127.640, 136.583 122.304 C 133.237 120.303, 130.302 118.505, 130.060 118.309 C 128.363 116.935, 135.057 114.498, 151.332 110.569 C 169.693 106.135, 178.061 103.329, 179.404 101.156 C 180.374 99.586, 175.581 97.488, 166.500 95.505 C 162.100 94.545, 157.916 93.594, 157.203 93.393 C 156.489 93.191, 155.453 91.728, 154.899 90.141 C 153.942 87.396, 153.545 87.231, 146.697 86.745 C 141.045 86.344, 137.247 85.247, 129 81.634 C 119.746 77.578, 117.670 77.037, 111.500 77.066 C 107.471 77.084, 100.575 78.113, 95.253 79.488 M 116 99.056 C 111.325 99.466, 102.888 99.846, 97.250 99.901 C 85.270 100.017, 85.753 99.284, 89.078 112.306 C 91.527 121.898, 95.626 130.729, 98.290 132.155 C 101.155 133.688, 104.602 132.368, 107.184 128.748 C 109.042 126.143, 109.500 124.198, 109.500 118.922 C 109.500 110.501, 112.119 106.794, 121.670 101.701 C 125.427 99.697, 127.600 98.115, 126.500 98.184 C 125.400 98.253, 120.675 98.645, 116 99.056" stroke="none" fill="black" fill-rule="evenodd"/>
</svg>