<svg xmlns="http://www.w3.org/2000/svg" width="200" height="200" viewBox="0 0 200 200" version="1.1">
	<path d="M 130.289 11.160 C 129.681 11.897, 129.048 16.134, 128.882 20.575 C 128.584 28.537, 128.631 28.713, 132.165 33.075 C 136.257 38.128, 137.932 45.501, 137.224 55.350 L 136.803 61.199 132.152 63.288 C 125.913 66.089, 117.986 66.124, 114.275 63.365 C 109.262 59.639, 110.285 53.509, 117.395 44.659 L 120.481 40.819 117.263 37.944 C 112.182 33.404, 104.481 31.668, 90 31.799 C 83.125 31.860, 73.225 32.373, 68 32.938 C 62.775 33.503, 52.987 33.973, 46.250 33.983 C 35.054 33.999, 31.459 34.811, 35.582 36.393 C 38.356 37.457, 53.355 37.049, 71.700 35.409 C 95.528 33.279, 108.760 34.504, 115.314 39.446 C 117.028 40.739, 116.932 41.071, 113.593 45.447 C 106.701 54.475, 106.469 61.378, 112.911 65.719 C 117.315 68.687, 126.574 68.830, 132.750 66.027 L 137 64.098 137 69.896 L 137 75.695 128.250 75.630 C 108.568 75.485, 93.427 82.899, 72.893 102.738 C 63.715 111.604, 60.999 113.598, 52.887 117.424 C 42.709 122.223, 36.646 123.854, 35.554 122.087 C 33.571 118.878, 49.306 99.408, 61.459 90.032 C 71.338 82.410, 69.101 80.760, 38.205 72.874 C 33.643 71.709, 30.137 70.529, 30.415 70.251 C 31.573 69.093, 40.433 67.962, 55.050 67.105 C 70.654 66.191, 76.239 64.904, 80.213 61.307 C 84.830 57.129, 79.914 49.730, 69.920 45.812 C 63.022 43.109, 40 41.822, 40 44.140 C 40 45.219, 42.137 45.529, 49.750 45.553 C 71.222 45.622, 86.671 55.512, 74.550 61.428 C 71.529 62.902, 67.292 63.527, 56.550 64.084 C 40.521 64.914, 29.956 66.543, 27.317 68.592 C 25.577 69.941, 25.593 70.081, 27.701 71.871 C 28.949 72.932, 36.434 75.367, 45 77.500 C 53.304 79.568, 60.966 81.989, 62.027 82.880 C 63.883 84.440, 63.675 84.736, 56.386 90.891 C 47.937 98.026, 37.025 110.321, 34.594 115.444 C 30.661 123.731, 33.923 127.103, 43.205 124.346 C 53.780 121.206, 62.137 116.072, 73 106.044 C 90.834 89.580, 100.598 83.300, 113.483 80.004 C 121.305 78.004, 131.517 77.375, 133.601 78.765 C 134.207 79.169, 135.004 82.508, 135.372 86.184 C 135.741 89.860, 136.641 94.585, 137.374 96.684 C 138.106 98.783, 139.011 103.934, 139.384 108.130 L 140.062 115.760 133.741 116.437 C 130.265 116.810, 120.689 116.611, 112.461 115.996 C 79.941 113.564, 68.877 114.659, 67.422 120.454 C 66.502 124.121, 68.751 128.804, 72.391 130.797 C 75.145 132.306, 78.685 132.470, 103.409 132.233 C 118.759 132.086, 132.147 132.229, 133.159 132.551 C 135.887 133.416, 135.416 135.204, 131.446 139.054 L 127.892 142.500 117.696 142.464 C 112.088 142.445, 99.850 142.253, 90.500 142.037 C 75.811 141.699, 72.918 141.890, 69.221 143.443 C 61.562 146.660, 60.912 152.164, 67 162.258 C 69.200 165.906, 71 169.974, 71 171.297 C 71 172.621, 72.023 175.223, 73.274 177.078 C 78.508 184.845, 87.372 187.643, 103.500 186.620 C 134.442 184.658, 139.572 184.645, 144.774 186.516 C 149.747 188.304, 149.853 188.299, 156.147 185.996 C 174.140 179.413, 179.413 173.897, 171.250 170.199 C 165.661 167.667, 134.732 167.781, 123.383 170.376 L 115.266 172.232 109.186 169.503 C 102.558 166.529, 99.082 163.514, 100.574 162.034 C 102.812 159.813, 112.122 158.797, 134.862 158.292 L 159.225 157.750 161.855 152.125 C 165.703 143.894, 165.520 134.844, 161.323 125.877 C 159.618 122.234, 156.668 117.509, 154.767 115.377 C 149.755 109.755, 149.469 107.511, 153.464 105.154 C 165.063 98.310, 169.247 77.320, 162.496 59.840 C 162.055 58.698, 162.510 57.973, 163.954 57.514 C 167.494 56.391, 169.327 52.420, 169.266 46.002 C 169.163 35.009, 162.442 20.069, 155.771 16.002 C 151.611 13.465, 149.919 13.489, 146.560 16.131 C 143.455 18.574, 142.351 20.917, 140.025 30 L 138.360 36.500 136.054 24.768 C 133.574 12.156, 132.181 8.867, 130.289 11.160 M 148.289 17.800 C 146.351 19.032, 143.251 26.966, 142.013 33.861 C 141.056 39.196, 141.124 40.853, 142.436 44.131 C 144.208 48.561, 144.453 53.285, 143.047 55.912 C 142.388 57.144, 143.263 64.676, 145.889 80.356 C 147.977 92.820, 149.983 103.317, 150.348 103.682 C 151.863 105.196, 159.631 95.304, 161.437 89.560 C 163.758 82.182, 163.170 69.979, 160.110 62 C 157.505 55.207, 157.485 55.530, 160.522 55.354 C 166.055 55.035, 167.864 50.170, 166.081 40.413 C 163.492 26.252, 153.991 14.177, 148.289 17.800 M 131.693 23.949 C 131.168 26.454, 131.385 27.814, 132.485 28.914 C 133.838 30.267, 133.987 30.219, 133.882 28.464 C 133.817 27.384, 133.460 25.150, 133.089 23.500 L 132.415 20.500 131.693 23.949 M 140.199 73 C 140.193 77.675, 140.484 85.703, 140.846 90.840 C 141.424 99.056, 141.791 100.412, 143.893 102.115 C 145.208 103.179, 146.425 103.908, 146.599 103.734 C 146.772 103.561, 145.406 94.662, 143.563 83.959 L 140.211 64.500 140.199 73 M 142.385 111.454 L 143.046 117.901 139.305 118.603 C 137.247 118.989, 126.099 118.904, 114.532 118.414 C 76.690 116.813, 70 117.367, 70 122.101 C 70 129.504, 74.340 130.421, 105.274 129.554 C 131.467 128.821, 136.340 129.345, 137.508 133.024 C 138.251 135.366, 137.066 137.649, 133.196 141.332 C 128.586 145.718, 123.953 146.266, 102.509 144.964 C 76.841 143.406, 67.098 144.693, 65.758 149.819 C 65.089 152.375, 67.213 158.276, 70.232 162.252 C 71.588 164.038, 73.032 167.300, 73.441 169.500 C 74.502 175.216, 76.729 178.473, 81.410 181.156 C 85.125 183.285, 86.693 183.500, 98.500 183.500 C 105.650 183.500, 117.615 183.098, 125.088 182.606 C 136.968 181.824, 139.387 181.936, 144.334 183.492 C 149.919 185.248, 150.072 185.242, 156.246 183.024 C 164.606 180.020, 172 175.976, 172 174.408 C 172 172.645, 168.948 171.842, 159.425 171.102 C 148.593 170.260, 131.669 171.373, 122.505 173.531 L 115.108 175.273 107.634 171.724 C 96.058 166.226, 94.105 160.783, 102.778 158.185 C 109.125 156.283, 124.411 155.036, 141.598 155.017 L 157.696 155 159.598 150.775 C 160.897 147.890, 161.493 144.321, 161.478 139.525 C 161.450 130.853, 158.270 123.341, 151.613 116.224 C 148.325 112.709, 147.234 110.820, 147.627 109.319 C 148.056 107.679, 147.505 107.023, 144.946 106.131 L 141.725 105.008 142.385 111.454" stroke="none" fill="black" fill-rule="evenodd"/>
</svg>