<svg xmlns="http://www.w3.org/2000/svg" width="200" height="200" viewBox="0 0 200 200" version="1.1">
	<path d="M 63.163 13.250 C 65.290 22.760, 73.191 31.007, 81.704 32.604 C 83.546 32.950, 85.470 34.011, 85.979 34.961 C 86.805 36.505, 85.973 36.808, 78.202 37.792 C 66.563 39.266, 59.585 41.500, 55.709 44.994 C 51.847 48.474, 52.507 50.430, 58.569 53.474 C 61.784 55.089, 65.080 55.519, 76.662 55.833 C 89.587 56.184, 90.867 56.385, 91.323 58.129 C 91.928 60.442, 91.878 60.469, 69.500 70.004 C 48.542 78.934, 42.055 82.167, 39.567 84.922 C 37.738 86.946, 37.727 87.155, 39.355 88.781 C 40.806 90.231, 42.812 90.464, 52.192 90.268 C 63.903 90.024, 67 89.518, 67 87.845 C 67 87.169, 62.998 87.063, 55.134 87.533 C 42.473 88.288, 39.782 87.500, 44.493 84.413 C 49.995 80.807, 92.140 63.202, 92.540 64.342 C 93.728 67.718, 94.961 75.254, 94.460 76.065 C 94.142 76.579, 92.896 77.010, 91.691 77.022 C 89.001 77.049, 81.513 80.362, 80.523 81.962 C 79.173 84.148, 80.882 84.235, 85.198 82.202 C 87.564 81.087, 90.946 79.878, 92.713 79.516 C 95.639 78.916, 95.983 79.109, 96.563 81.679 C 97.645 86.466, 99.094 92.415, 99.627 94.250 C 100.103 95.891, 98.063 96.003, 66.817 96.044 C 31.466 96.090, 25.997 96.558, 22.735 99.821 C 20.797 101.759, 20.775 102.007, 22.334 104.388 C 23.286 105.839, 27.903 108.825, 33.242 111.440 L 42.500 115.976 53.500 114.092 C 59.550 113.056, 67.200 111.940, 70.500 111.612 L 76.500 111.017 69 113.077 C 64.875 114.210, 57.038 116.887, 51.584 119.025 C 46.129 121.163, 41.289 122.678, 40.826 122.393 C 36.250 119.564, 43.288 153.704, 50.038 167.076 C 53.465 173.863, 59.025 180.445, 63.125 182.565 C 67.138 184.640, 75.600 184.374, 80.434 182.021 C 82.670 180.932, 86.940 178.033, 89.923 175.578 L 95.345 171.115 98.757 175.494 C 103.023 180.970, 110.878 186.360, 117.823 188.578 C 139.006 195.343, 164.756 176.684, 157.653 159.718 C 156.299 156.484, 148.858 149, 146.997 149 C 146.449 149, 146 148.616, 146 148.147 C 146 147.677, 149.474 147, 153.720 146.641 C 157.966 146.282, 161.951 145.428, 162.575 144.744 C 164.135 143.034, 167 135.401, 167 132.955 C 167 129.699, 162.705 128.796, 150.505 129.486 L 139.500 130.109 145 127.031 C 151.110 123.611, 164.401 114.068, 163.838 113.505 C 163.640 113.307, 158.983 113.546, 153.489 114.037 C 139.979 115.243, 112.269 115.244, 111.524 114.038 C 111.197 113.509, 112.727 112.159, 114.925 111.038 C 118.442 109.244, 120.692 109.011, 133.710 109.090 C 141.845 109.139, 153.900 109.501, 160.500 109.895 C 168.095 110.348, 172.991 110.243, 173.838 109.610 C 174.899 108.816, 174.733 108.445, 173.035 107.817 C 171.571 107.276, 169.173 103.361, 165.447 95.432 C 162.451 89.056, 160 83.457, 160 82.989 C 160 82.522, 161.012 81.995, 162.250 81.820 C 166.275 81.248, 164.979 77.822, 159.292 74 C 155.284 71.306, 152.916 68.552, 149.015 62.046 C 144.467 54.460, 144.052 53.289, 144.973 50.647 C 145.538 49.027, 146 46.645, 146 45.354 C 146 41.201, 139.373 35.226, 129.369 30.360 C 120.847 26.214, 120.181 25.683, 121.284 23.917 C 125.303 17.482, 110.810 12.712, 88.216 13.033 C 80.954 13.137, 76.733 12.645, 71.503 11.086 C 61.946 8.237, 62.037 8.213, 63.163 13.250 M 66 13.915 C 66 16.465, 70.167 23.026, 73.309 25.422 C 75.140 26.819, 78.575 28.644, 80.944 29.480 L 85.250 30.999 84.598 27.750 C 84.240 25.962, 83.679 22.828, 83.351 20.785 C 82.792 17.299, 82.427 16.975, 77.410 15.517 C 68.790 13.011, 66 12.619, 66 13.915 M 103.500 20.438 C 116.325 24.692, 119 24.875, 119 21.499 C 119 18.869, 107.006 15.956, 96.614 16.063 L 90.500 16.126 103.500 20.438 M 86 19.356 C 86 20.176, 86.541 23.189, 87.201 26.051 L 88.402 31.254 96.951 30.757 C 101.908 30.468, 107.181 29.517, 109.500 28.494 L 113.500 26.728 102 23 C 95.675 20.950, 89.487 18.956, 88.250 18.569 C 86.608 18.055, 86 18.268, 86 19.356 M 113.500 29.800 C 109.200 32.043, 100.351 33.966, 94.250 33.984 C 90.257 33.996, 89 34.359, 89 35.500 C 89 36.630, 90.294 37.024, 94.250 37.099 C 97.138 37.153, 101.975 37.493, 105 37.854 C 108.576 38.280, 111.888 38.046, 114.468 37.185 C 121.566 34.814, 129.677 37.887, 137.413 45.876 C 141.702 50.306, 143 50.349, 143 46.060 C 143 42.039, 138.042 37.579, 128.500 33.015 C 118.338 28.154, 117.146 27.899, 113.500 29.800 M 114.500 40.030 C 113.400 40.519, 107.438 40.651, 101.250 40.324 C 95.063 39.996, 90.019 39.902, 90.042 40.114 C 90.066 40.326, 90.671 42.975, 91.388 46 L 92.691 51.500 100.345 51.263 C 104.555 51.132, 108 51.423, 108 51.909 C 108 53.317, 101.693 58.471, 98.196 59.919 C 94.479 61.458, 94.524 61.193, 96.600 69.460 L 98.201 75.831 105.350 75.306 C 111.606 74.848, 136.126 76.658, 150.353 78.628 L 155.207 79.300 153.577 76.150 C 152.423 73.918, 149.901 71.968, 144.929 69.464 C 141.069 67.520, 137.659 65.274, 137.352 64.474 C 137.044 63.673, 137.605 60.759, 138.598 57.998 L 140.403 52.978 135.452 47.874 C 128.068 40.263, 120.418 37.399, 114.500 40.030 M 73.500 41.050 C 64.424 42.614, 56 46.438, 56 48.994 C 56 51.119, 62.604 52.383, 75.816 52.788 L 90.133 53.226 89.411 49.363 C 87.761 40.541, 87.741 40.513, 82.933 40.345 C 80.495 40.259, 76.250 40.577, 73.500 41.050 M 97.750 54.728 C 94.826 55.034, 94 55.552, 94 57.081 C 94 59.014, 94.055 59.013, 98 57 C 100.200 55.878, 102 54.743, 102 54.480 C 102 54.216, 101.888 54.076, 101.750 54.168 C 101.612 54.261, 99.813 54.513, 97.750 54.728 M 140.998 59.505 C 139.545 63.327, 139.585 63.400, 144.500 65.788 C 146.975 66.990, 149 67.812, 149 67.613 C 149 66.738, 143.748 57.963, 142.918 57.449 C 142.411 57.136, 141.547 58.061, 140.998 59.505 M 157 76.996 C 157 78.209, 159.805 79.529, 160.629 78.705 C 160.927 78.406, 160.233 77.660, 159.086 77.046 C 157.639 76.272, 157 76.257, 157 76.996 M 99.017 79.250 C 99.038 80.797, 102.708 95.042, 103.217 95.550 C 103.420 95.753, 107.617 95.496, 112.543 94.978 C 126.745 93.484, 137.520 93.717, 139.042 95.550 C 140.766 97.628, 139.016 99.335, 131.484 102.926 L 125.714 105.676 140.107 106.334 C 148.023 106.696, 157.497 106.994, 161.160 106.996 L 167.821 107 162.160 94.616 L 156.500 82.231 147.500 81.094 C 121.555 77.816, 98.986 76.958, 99.017 79.250 M 111 97.742 C 104.421 98.188, 103.588 98.846, 104.478 102.901 L 105.159 106 112.329 105.950 C 118.800 105.904, 120.330 105.470, 128 101.500 L 136.500 97.100 126.500 97.235 C 121 97.309, 114.025 97.538, 111 97.742 M 35.500 98.947 C 27.689 99.728, 24 100.707, 24 101.999 C 24 103.326, 29.189 106.726, 36.271 110.039 L 42.669 113.033 54.584 111.024 C 61.138 109.918, 72.575 108.534, 80 107.948 C 103.339 106.105, 102.320 106.350, 101.599 102.745 C 101.258 101.041, 100.871 99.561, 100.740 99.458 C 99.942 98.832, 41.251 98.372, 35.500 98.947 M 94.318 109.651 C 94.746 110.080, 97.121 110.944, 99.594 111.572 C 103.561 112.579, 104.056 112.524, 103.787 111.107 C 103.566 109.941, 102.117 109.414, 98.510 109.186 C 95.776 109.013, 93.889 109.222, 94.318 109.651 M 106.769 111.570 C 107.158 113.607, 107.492 113.866, 108.380 112.820 C 108.996 112.094, 110.149 110.938, 110.941 110.250 C 112.142 109.208, 111.874 109, 109.330 109 C 106.591 109, 106.328 109.264, 106.769 111.570 M 71.500 115.447 C 66.550 116.738, 59.600 118.890, 56.056 120.228 L 49.612 122.660 53.056 124.390 C 56.450 126.096, 72.541 127.921, 98.398 129.533 C 107.359 130.092, 109.205 129.972, 108.783 128.856 C 108.502 128.110, 107.535 124.955, 106.635 121.844 C 105.074 116.447, 104.784 116.115, 100.321 114.594 C 93.602 112.304, 82.256 112.640, 71.500 115.447 M 116.500 122.112 C 122.911 128.027, 124.873 129, 130.380 129 C 134.941 129, 146.540 123.867, 152.406 119.253 L 154.949 117.253 133.224 117.376 L 111.500 117.500 116.500 122.112 M 109.015 119.605 C 109.024 120.097, 109.633 122.525, 110.370 125 C 111.699 129.462, 111.751 129.503, 116.586 129.814 C 119.268 129.987, 121.245 129.961, 120.981 129.755 C 120.716 129.550, 117.912 126.981, 114.750 124.046 C 111.588 121.111, 109.007 119.113, 109.015 119.605 M 42 127.512 C 42 127.725, 42.902 132.574, 44.005 138.290 C 47.519 156.495, 52.210 168.018, 59.193 175.594 C 67.657 184.775, 77.535 183.401, 91 171.170 L 95.500 167.082 91.151 167.041 C 82.219 166.957, 76.817 162.112, 67.500 145.827 C 60.693 133.931, 56.618 129.181, 52.715 128.593 C 45.408 127.491, 42 127.147, 42 127.512 M 64.291 135.661 C 66.725 139.423, 70.820 145.960, 73.391 150.189 C 75.962 154.418, 79.415 159.013, 81.064 160.400 C 88.989 167.069, 98.516 165.119, 110.836 154.306 C 114.532 151.061, 115.073 150.109, 114.503 147.851 C 113.938 145.613, 113.116 145.095, 109.206 144.508 C 101.367 143.333, 94 140.133, 94 137.903 C 94 135.368, 97.593 134.032, 104.815 133.882 L 110.500 133.764 106 132.957 C 103.525 132.513, 92.950 131.640, 82.500 131.016 C 72.050 130.392, 62.682 129.644, 61.683 129.352 C 60.332 128.959, 61.001 130.576, 64.291 135.661 M 129.500 133 C 112.998 133.557, 112.851 133.580, 124.500 133.795 C 131.100 133.918, 138.793 134.293, 141.597 134.630 C 145.747 135.129, 146.809 134.941, 147.315 133.621 C 147.657 132.730, 147.614 132.096, 147.219 132.213 C 146.823 132.331, 138.850 132.685, 129.500 133 M 156.393 133.500 C 156.727 134.325, 157.273 135.675, 157.607 136.500 C 158.098 137.714, 157.263 138, 153.224 138 C 148.894 138, 148.153 138.298, 147.630 140.250 C 146.622 144.012, 146.905 144.736, 149.250 144.403 C 150.488 144.228, 153.562 143.824, 156.082 143.506 C 160.097 142.999, 160.870 142.495, 162.332 139.430 C 165.148 133.524, 164.648 132, 159.893 132 C 156.639 132, 155.912 132.312, 156.393 133.500 M 150.500 134 C 150.160 134.550, 150.835 135, 152 135 C 153.165 135, 153.840 134.550, 153.500 134 C 153.160 133.450, 152.485 133, 152 133 C 151.515 133, 150.840 133.450, 150.500 134 M 101.750 136.728 C 99.688 136.944, 98 137.494, 98 137.949 C 98 138.937, 110.792 142.541, 111.563 141.770 C 111.857 141.476, 111.802 140.058, 111.440 138.618 C 110.748 135.859, 110.508 135.812, 101.750 136.728 M 114 136.788 C 114 137.383, 114.429 138.999, 114.954 140.379 C 115.824 142.668, 116.417 142.884, 121.704 142.844 C 124.892 142.819, 129.525 143.283, 132 143.875 C 134.475 144.467, 138.131 144.962, 140.125 144.976 C 143.406 144.998, 143.810 144.698, 144.387 141.816 C 145.215 137.673, 144.086 137.034, 135.901 137.015 C 132.271 137.007, 125.859 136.709, 121.651 136.353 C 116.433 135.912, 114 136.051, 114 136.788 M 117 147.059 C 117 147.641, 117.450 147.840, 118 147.500 C 118.550 147.160, 119 146.684, 119 146.441 C 119 146.198, 118.550 146, 118 146 C 117.450 146, 117 146.477, 117 147.059 M 119.819 149.497 C 118.871 151.578, 119.136 153.151, 121.405 158.936 C 124.322 166.370, 129.272 174, 131.178 174 C 133.865 174, 136.231 170.070, 139.098 160.841 C 140.773 155.451, 141.869 150.598, 141.535 150.057 C 140.529 148.428, 133.886 147.011, 127.229 147.006 C 121.509 147, 120.857 147.220, 119.819 149.497 M 144.566 152.207 C 144.343 152.918, 142.932 157.483, 141.431 162.351 C 138.514 171.806, 135.092 177, 131.779 177 C 128.470 177, 123.398 170.610, 119.883 162.013 C 118.081 157.606, 116.319 154, 115.967 154 C 115.616 154, 112.633 156.163, 109.339 158.806 C 106.046 161.449, 101.810 164.227, 99.926 164.979 C 98.041 165.730, 96.324 166.481, 96.110 166.646 C 95.895 166.812, 97.579 169.410, 99.852 172.420 C 109.384 185.045, 123.202 189.802, 137.774 185.474 C 151.854 181.293, 160.351 166.907, 153.773 158.385 C 149.774 153.203, 145.212 150.142, 144.566 152.207" stroke="none" fill="black" fill-rule="evenodd"/>
</svg>