<svg xmlns="http://www.w3.org/2000/svg" width="200" height="200" viewBox="0 0 200 200" version="1.1">
	<path d="M 106.172 16.828 C 102.689 20.311, 95.286 31.778, 96.143 32.362 C 96.339 32.496, 97.775 33.404, 99.334 34.380 C 104.333 37.512, 106.423 46.053, 103.705 52.245 C 102.542 54.895, 102.311 54.539, 97.045 41.995 C 93.709 34.047, 91.042 29, 90.179 29 C 89.259 29, 88.949 29.697, 89.290 31 C 89.923 33.423, 91.835 33.264, 60.500 33.398 C 38.621 33.491, 36.147 33.677, 32.500 35.500 C 28.347 37.576, 27.397 39.463, 28.430 43.579 C 28.991 45.811, 29.524 46.003, 35.269 46.035 C 49.066 46.112, 66.460 51.254, 69.004 56.007 C 71.236 60.178, 64.172 62.986, 51.419 62.994 C 42.576 63.001, 23.755 66.037, 19.395 68.161 C 12.909 71.322, 16.677 74.301, 30.672 77.078 C 51.646 81.239, 55.320 82.184, 53.904 83.059 C 51.492 84.550, 54.314 86.437, 56.893 85.057 C 62.414 82.103, 57.342 79.532, 39.034 76.007 C 22.049 72.736, 20 72.206, 20 71.087 C 20 69.542, 35.791 66.835, 49.500 66.029 C 63.846 65.185, 67.454 64.403, 70.345 61.512 C 77.819 54.039, 60.821 44.381, 39.061 43.737 C 30.679 43.489, 28.403 42.169, 31.323 39.249 C 33.885 36.687, 40.314 36.079, 65.979 35.974 L 91.457 35.870 96.266 47.116 C 98.911 53.302, 100.828 59.007, 100.526 59.793 C 97.697 67.166, 74.817 93.938, 62.518 104.268 C 47.407 116.959, 24 124.658, 24 116.938 C 24 114.086, 31.965 105.909, 39.569 100.955 C 43.106 98.651, 46 96.143, 46 95.383 C 46 93.382, 45.537 93.561, 38.707 98.199 C 21.856 109.642, 16.626 119.071, 25.503 122.001 C 31.648 124.029, 44.473 120.126, 55.743 112.797 C 67.130 105.393, 89.728 81.741, 99.227 67.286 L 102.653 62.072 109.341 77.286 L 116.028 92.500 116.014 106.781 C 116.002 119.088, 115.773 121.150, 114.360 121.692 C 113.458 122.038, 105.020 121.723, 95.610 120.991 C 60.321 118.247, 51 119.608, 51 127.505 C 51 128.243, 52.562 130.893, 54.471 133.395 C 57.922 137.915, 57.936 137.977, 56.861 143.721 C 54.449 156.601, 57.888 169.832, 65.580 177.268 C 72.718 184.167, 86.696 187.650, 103.437 186.699 C 110.964 186.271, 114.864 186.519, 118.915 187.682 C 126.593 189.888, 138.470 189.109, 143.375 186.077 C 152.604 180.373, 152.102 170.114, 142.412 166.413 C 137.130 164.396, 131.285 164.863, 121.917 168.049 C 116.458 169.906, 114.157 170.142, 106.500 169.632 C 97.031 169.002, 90 167.481, 90 166.062 C 90 164.422, 98.121 162, 107.470 160.851 C 117.666 159.598, 129.953 160.661, 137.973 163.490 L 142.010 164.915 144.639 159.726 C 147.556 153.969, 148.169 148.113, 146.113 145.636 C 143.158 142.075, 137.559 141.671, 117.362 143.560 C 100.457 145.141, 97.608 145.183, 92.942 143.925 C 90.037 143.141, 87.484 141.968, 87.269 141.318 C 86.284 138.337, 91.507 137.536, 115.500 136.992 C 136.694 136.511, 139.968 136.216, 143.500 134.474 C 146.983 132.755, 147.540 132.011, 147.812 128.719 C 148.134 124.822, 146.581 121.584, 141.474 115.500 L 138.955 112.500 139.540 121 L 140.125 129.500 137.015 126 C 135.305 124.075, 130.552 115.805, 126.453 107.621 L 119 92.743 119.131 84.121 L 119.262 75.500 120.154 83.500 C 121.476 95.364, 124.445 103.386, 129.445 108.603 C 134.593 113.977, 137.914 114.374, 141.912 110.094 C 145.053 106.732, 147.013 100.912, 147.755 92.750 L 148.278 87 154.457 87 C 167.601 87, 177.473 81.079, 177.438 73.218 C 177.400 64.808, 169.518 59.558, 156.900 59.538 L 149.300 59.526 150.843 56.013 C 151.829 53.767, 152.369 49.615, 152.340 44.500 C 152.267 31.496, 146.965 19.858, 139.488 16.293 C 136.401 14.821, 135.948 14.843, 132.838 16.619 C 130.592 17.900, 128.459 20.570, 126.319 24.778 C 124.569 28.218, 122.941 30.687, 122.700 30.266 C 122.460 29.845, 121.941 27.721, 121.548 25.547 C 121.155 23.372, 119.990 19.940, 118.959 17.920 C 115.785 11.698, 111.654 11.346, 106.172 16.828 M 107.009 19.990 C 104.983 22.184, 102.487 25.537, 101.463 27.440 L 99.599 30.899 102.350 33.449 C 105.567 36.430, 108.014 41.774, 107.967 45.718 C 107.949 47.248, 107.119 50.860, 106.123 53.745 L 104.311 58.990 109.799 71.518 C 112.818 78.408, 115.497 83.837, 115.752 83.581 C 116.008 83.326, 116.627 77.578, 117.128 70.808 C 117.629 64.039, 118.725 54.225, 119.563 49 C 121.067 39.628, 120.958 36.330, 118.819 26.500 C 116.338 15.096, 113.150 13.338, 107.009 19.990 M 132.084 20.762 C 129.023 23.823, 125.213 33.048, 124.390 39.390 C 124.097 41.650, 124.298 48.038, 124.836 53.584 C 125.601 61.464, 125.510 64.962, 124.423 69.584 C 121.126 83.599, 124.161 99.102, 131.797 107.250 C 138.424 114.321, 143.165 107.937, 145.536 88.750 L 146.123 84 154.311 83.990 C 167.993 83.974, 176.552 78.322, 174.611 70.586 C 173.134 64.700, 161.679 60.845, 150.942 62.621 C 143.965 63.775, 142.381 62.654, 145.803 58.982 C 152.626 51.657, 150.441 30.801, 141.905 21.794 C 137.623 17.276, 135.766 17.081, 132.084 20.762 M 120.713 60.500 C 120.329 64.350, 120.048 69.300, 120.089 71.500 C 120.153 74.965, 120.364 74.564, 121.667 68.500 C 122.714 63.625, 122.904 60.286, 122.291 57.500 C 121.419 53.531, 121.407 53.554, 120.713 60.500 M 118.794 111.430 L 118.500 123.359 115.500 124.214 C 113.670 124.736, 103.950 124.425, 90.583 123.417 C 55.688 120.785, 48.454 122.856, 57.514 132.884 C 61.020 136.765, 61.025 136.784, 59.895 142.054 C 56.933 155.863, 60.968 170.862, 69.291 176.983 C 76.316 182.149, 81.626 183.299, 99.702 183.570 C 109.232 183.713, 117.451 184.324, 119.662 185.054 C 125.259 186.901, 135.881 186.625, 140.324 184.517 C 144.988 182.303, 147 179.514, 147 175.263 C 147 168.075, 136.776 166.012, 123.405 170.500 C 119.309 171.875, 114.055 172.991, 111.729 172.980 C 105.895 172.953, 94.059 171.209, 90.822 169.900 C 85.046 167.564, 86.840 163.345, 94.851 160.424 C 101.818 157.883, 124.361 157.313, 133.484 159.446 C 141.445 161.308, 142.019 161.007, 144.165 153.844 C 146.926 144.628, 142.327 143.706, 109.854 146.962 C 96.550 148.296, 87.532 146.756, 84.045 142.555 C 82.991 141.285, 82.993 140.713, 84.055 139.434 C 87.638 135.116, 90.563 134.624, 116.044 134.052 C 137.563 133.568, 140.933 133.274, 143.382 131.669 C 145.681 130.163, 146.059 129.365, 145.517 127.169 C 144.504 123.063, 143 122.131, 143 125.609 C 143 129.366, 140.809 132.524, 138.750 131.734 C 136.179 130.748, 132.151 124.705, 125.462 111.798 L 119.089 99.500 118.794 111.430" stroke="none" fill="black" fill-rule="evenodd"/>
</svg>