<svg xmlns="http://www.w3.org/2000/svg" width="200" height="200" viewBox="0 0 200 200" version="1.1">
	<path d="M 100 9.651 C 99.175 9.980, 97.303 11.364, 95.840 12.726 L 93.180 15.202 81.336 13.100 C 69.432 10.988, 66.396 11.112, 61.139 13.925 C 57.901 15.658, 58.402 19.449, 62.250 22.339 C 65.986 25.145, 76.869 29.221, 85.250 30.953 C 89.201 31.770, 91 32.616, 91 33.659 C 91 34.890, 90.200 35.040, 86.750 34.454 C 80.115 33.327, 64.950 33.586, 60.197 34.908 C 48.512 38.159, 49.739 47.043, 62.500 51.583 C 66.333 52.947, 70.602 53.363, 80.795 53.367 C 93.654 53.373, 94.081 53.441, 93.795 55.437 C 93.560 57.084, 90.776 58.561, 80 62.757 C 72.575 65.648, 61.184 70.088, 54.686 72.625 C 43.022 77.178, 37 80.892, 37 83.532 C 37 85.381, 40.941 88, 43.723 88 C 44.975 88, 46 88.385, 46 88.856 C 46 89.327, 42.953 89.996, 39.230 90.342 C 20.541 92.079, 14.730 98.139, 27.262 102.823 C 33.065 104.991, 49.383 108.557, 58.297 109.605 C 65.503 110.452, 66.332 111.546, 60.386 112.361 C 53.567 113.295, 47.157 116.457, 46.021 119.446 C 44.501 123.443, 46.393 126.834, 54.254 134.204 C 58.965 138.621, 60.909 141.047, 59.952 141.317 C 59.153 141.543, 56.356 142.238, 53.736 142.863 C 47.027 144.464, 42.319 147.813, 39.935 152.683 C 38.143 156.342, 38.031 157.402, 39.042 161.157 C 43.125 176.320, 65.582 190.190, 83.695 188.736 C 90.551 188.186, 97.379 184.876, 100.905 180.394 L 102.956 177.786 106.007 180.352 C 107.685 181.764, 112.503 184.622, 116.715 186.704 C 123.439 190.027, 125.353 190.514, 132.421 190.698 C 136.947 190.816, 140.622 191.366, 140.818 191.954 C 141.010 192.529, 141.834 193, 142.651 193 C 143.659 193, 143.939 192.385, 143.526 191.081 C 143.072 189.652, 143.710 188.695, 146.026 187.331 C 150.308 184.810, 154.679 177.862, 156.006 171.471 C 157.711 163.258, 155.719 155.655, 150.358 149.917 L 147.945 147.333 151.837 146.167 C 157.662 144.422, 161 141.401, 161 137.876 C 161 135.423, 160.389 134.643, 157.532 133.449 C 155.625 132.652, 152.025 132, 149.532 132 C 147.039 132, 145 131.778, 145 131.506 C 145 131.235, 147.042 126.470, 149.537 120.917 C 152.033 115.364, 154.845 108.414, 155.787 105.472 C 156.947 101.850, 158.146 99.945, 159.500 99.575 C 160.600 99.274, 166.563 99.021, 172.750 99.014 C 183.586 99.001, 187.393 97.829, 181.250 96.397 C 176.170 95.213, 169.060 89.854, 164.471 83.749 L 159.917 77.691 163.958 73.690 C 166.181 71.489, 168 69.309, 168 68.844 C 168 67.246, 165.069 68.003, 164.076 69.858 C 163.529 70.880, 161.956 72.454, 160.581 73.355 C 158.107 74.976, 158.054 74.948, 155.540 70.659 C 154.143 68.275, 153 65.351, 153 64.162 C 153 62.973, 152.430 62, 151.734 62 C 151.037 62, 148.991 59.532, 147.187 56.516 L 143.907 51.031 146.453 47.284 C 150.125 41.880, 149.858 37.545, 145.606 33.535 C 142.047 30.179, 134.924 26.469, 126.500 23.584 C 122.833 22.328, 120.700 20.780, 118.500 17.775 C 116.850 15.522, 114.375 12.853, 113 11.845 C 110.393 9.933, 102.594 8.617, 100 9.651 M 98.636 13.849 C 96.804 15.875, 96.819 15.915, 99.638 16.559 C 101.212 16.918, 105.859 18.043, 109.964 19.059 C 114.069 20.074, 117.548 20.785, 117.696 20.638 C 117.843 20.490, 116.200 18.648, 114.045 16.544 C 110.869 13.443, 109.216 12.631, 105.312 12.256 C 101.359 11.876, 100.164 12.161, 98.636 13.849 M 64.130 15.542 C 61.222 16.804, 60.939 17.221, 62.067 18.580 C 64.190 21.139, 72.190 24.760, 80.563 26.953 C 84.861 28.079, 88.909 29, 89.560 29 C 90.777 29, 92.562 19.229, 91.533 18.199 C 90.867 17.534, 72.426 14.088, 69.500 14.082 C 68.400 14.080, 65.983 14.737, 64.130 15.542 M 94.630 21.250 C 94.299 22.488, 94.021 24.904, 94.014 26.621 C 94 29.692, 94.095 29.752, 99.938 30.413 C 107.941 31.319, 115.828 30.172, 118.249 27.751 C 121.020 24.980, 119.701 24.134, 108.331 21.382 C 96.223 18.453, 95.382 18.445, 94.630 21.250 M 122 26.997 C 122 28.036, 121 29.587, 119.777 30.443 C 117.572 31.988, 117.580 32, 120.817 32 C 125.828 32, 131.231 35.316, 137.274 42.100 L 142.774 48.275 144.512 45.622 C 146.772 42.174, 146.719 38.453, 144.375 35.859 C 142.142 33.388, 134.579 29.435, 127.272 26.922 C 122.129 25.152, 122 25.154, 122 26.997 M 94 34.303 C 94 35.060, 96.065 36.028, 98.936 36.616 C 103.350 37.520, 104.276 37.383, 107.686 35.319 L 111.500 33.010 102.750 33.005 C 96.226 33.001, 94 33.331, 94 34.303 M 115.589 35.143 C 113.438 35.634, 110.156 36.977, 108.294 38.127 C 105.489 39.861, 103.997 40.105, 99.583 39.554 L 94.256 38.888 94.689 41.694 C 95.894 49.511, 95.691 49.273, 100.553 48.544 C 104.258 47.989, 105.128 48.171, 105.683 49.618 C 106.167 50.878, 105.165 52.413, 102.065 55.165 L 97.777 58.970 99.496 65.985 L 101.215 73 106.358 73.023 C 109.186 73.036, 117.350 73.925, 124.500 75 C 138.021 77.032, 151.563 77.564, 153.793 76.149 C 154.789 75.517, 154.353 74.054, 151.895 69.774 C 148.891 64.545, 148.431 64.182, 144.066 63.603 C 135.350 62.447, 132.442 57.751, 137.500 53 C 138.875 51.708, 140 50.316, 140 49.906 C 140 49.496, 137.684 46.628, 134.854 43.531 C 127.537 35.525, 122.853 33.485, 115.589 35.143 M 62.690 37.028 C 56.788 38.524, 55 39.817, 55 42.591 C 55 44.679, 55.984 45.572, 60.750 47.805 C 66.046 50.287, 67.501 50.500, 79.165 50.500 C 86.131 50.500, 92.071 50.260, 92.365 49.967 C 92.660 49.673, 92.639 46.905, 92.320 43.816 C 91.772 38.499, 91.573 38.164, 88.620 37.558 C 82.901 36.384, 66.551 36.050, 62.690 37.028 M 98.280 51.850 C 96.727 52.305, 96.313 52.907, 96.904 53.855 C 97.599 54.971, 98.213 54.907, 100.374 53.490 C 104.250 50.951, 103.460 50.332, 98.280 51.850 M 139.145 55.345 C 137.965 56.601, 137 57.893, 137 58.217 C 137 59.001, 142.828 61, 145.115 61 C 146.824 61, 146.809 60.791, 144.866 57.497 C 142.120 52.844, 141.658 52.670, 139.145 55.345 M 89 62.161 C 86.525 63.267, 77.300 66.867, 68.500 70.161 C 49.217 77.377, 39.757 81.770, 40.258 83.274 C 40.768 84.803, 44.760 85.754, 54.086 86.568 L 61.974 87.256 66.114 83.516 C 72.270 77.955, 81.465 74.012, 89.938 73.302 C 93.858 72.973, 97.235 72.429, 97.443 72.092 C 98.095 71.037, 95.426 60.638, 94.439 60.388 C 93.922 60.257, 91.475 61.055, 89 62.161 M 88.043 76.139 C 85.041 76.636, 80.220 78.126, 77.330 79.449 C 72.256 81.772, 65 86.865, 65 88.103 C 65 88.435, 69.162 88.963, 74.250 89.277 C 79.338 89.591, 85.221 90.577, 87.325 91.469 C 91.696 93.321, 104.005 94.743, 103.989 93.395 C 103.983 92.903, 103.296 90.250, 102.461 87.500 C 101.627 84.750, 100.489 80.813, 99.933 78.750 C 98.804 74.559, 98.273 74.443, 88.043 76.139 M 102 75.664 C 102 76.067, 103.157 80.189, 104.571 84.825 L 107.141 93.252 111.700 92.628 C 114.207 92.284, 122.987 89.977, 131.211 87.501 C 148.036 82.437, 153.891 81.891, 157.090 85.090 C 158.773 86.773, 159.114 88.154, 158.840 92.166 L 158.500 97.151 161.375 96.575 C 162.956 96.259, 166.199 96, 168.582 96 L 172.914 96 167.834 91.250 C 165.040 88.638, 161.470 84.633, 159.899 82.351 C 157.044 78.203, 157.043 78.203, 152.772 79.197 C 148.056 80.294, 136.930 79.709, 122.157 77.586 C 106.223 75.297, 102 74.894, 102 75.664 M 144.500 86.445 C 141.750 87.145, 134.325 89.307, 128 91.247 C 121.675 93.188, 114.571 95.093, 112.213 95.482 C 107.300 96.292, 107.254 94.909, 112.686 110 C 114.567 115.225, 117.013 122.347, 118.123 125.826 L 120.140 132.152 124.320 131.477 C 130.228 130.522, 136.638 127.544, 137.913 125.163 C 138.509 124.049, 139.707 120.069, 140.575 116.319 C 142.989 105.882, 144.603 103.241, 150.650 99.828 C 155.985 96.818, 156 96.795, 156 91.880 C 156 87.509, 155.710 86.840, 153.435 85.975 C 150.441 84.837, 150.901 84.813, 144.500 86.445 M 36 93.456 C 27.167 95.031, 22.657 96.635, 23.451 97.920 C 24.247 99.209, 35.049 102.614, 44 104.398 C 50.906 105.775, 78.851 110, 81.048 110 C 81.572 110, 82 110.617, 82 111.371 C 82 112.380, 79.593 112.930, 72.888 113.455 C 62.846 114.240, 53.719 116.304, 50.250 118.574 C 46.363 121.117, 47.496 123.748, 56.095 132.152 C 61.581 137.515, 63.998 140.564, 63.595 141.614 C 63.268 142.466, 63 143.324, 63 143.521 C 63 143.717, 60.862 144.190, 58.250 144.571 C 48.280 146.028, 40.983 151.796, 41.009 158.200 C 41.024 161.828, 46.522 170.480, 51.216 174.263 C 60.927 182.089, 71.054 186.016, 81.432 185.978 C 89.136 185.950, 94.732 183.460, 98.985 178.168 L 102.241 174.117 107.370 177.942 C 116.622 184.841, 124.797 188.110, 132.845 188.130 C 135.785 188.137, 138.380 187.953, 138.612 187.721 C 138.844 187.489, 136.326 181.405, 133.017 174.200 C 129.708 166.996, 127 160.187, 127 159.071 C 127 157.954, 126.276 155.231, 125.391 153.020 C 124.133 149.875, 123.255 149, 121.359 149 C 117.736 149, 112.799 151.346, 106.311 156.150 C 91.352 167.225, 76.159 172.222, 74.081 166.750 C 72.059 161.424, 78.704 152.753, 88.509 147.923 C 96.029 144.219, 102.845 143.378, 112.602 144.952 C 117.138 145.684, 120.585 145.815, 121.123 145.277 C 122.635 143.765, 120.063 137.851, 118.141 138.420 C 112.541 140.076, 110.898 140.048, 106.788 138.230 C 101.502 135.892, 95.433 130.737, 93.449 126.901 C 92.652 125.360, 92 122.007, 92 119.450 C 92 115.463, 92.503 114.297, 95.525 111.275 C 98.813 107.987, 99.384 107.782, 104.025 108.228 C 109.627 108.767, 109.637 108.746, 107.153 101.698 L 105.460 96.897 98.952 96.520 C 95.372 96.312, 90.431 95.370, 87.972 94.426 C 81.959 92.116, 47.154 91.467, 36 93.456 M 150.893 102.538 C 147.131 104.524, 145.490 107.544, 143.575 116.009 C 141.389 125.666, 139.076 129.235, 133.034 132.271 C 132.083 132.748, 132.451 132.848, 134 132.534 C 135.375 132.255, 137.651 132.021, 139.057 132.014 C 141.315 132.002, 142.095 130.919, 145.728 122.750 C 151.274 110.283, 154.137 102.893, 153.788 101.946 C 153.630 101.515, 152.327 101.781, 150.893 102.538 M 100.500 110.955 C 95.793 112.859, 93.594 117.945, 95.107 123.426 C 96.182 127.319, 102.580 133.509, 107.772 135.678 C 112.351 137.591, 118.341 136.686, 117.587 134.195 C 113.193 119.665, 111.758 116.148, 109.272 113.821 C 105.986 110.744, 103.240 109.846, 100.500 110.955 M 141.248 138.426 C 140.012 140.971, 139 143.246, 139 143.481 C 139 144.664, 146.664 145.118, 149.961 144.130 C 153.922 142.943, 159 139.478, 159 137.963 C 159 136.411, 155.597 135.167, 149.449 134.471 L 143.497 133.798 141.248 138.426 M 128.164 136.209 C 123.043 137.141, 122.855 137.287, 123.485 139.840 C 124.448 143.741, 125.035 144.020, 130.833 143.333 C 135.709 142.756, 136.257 142.417, 138.074 138.854 L 140.041 135 136.770 135.119 C 134.972 135.184, 131.099 135.675, 128.164 136.209 M 130.269 146.693 C 131.242 146.947, 132.592 146.930, 133.269 146.656 C 133.946 146.382, 133.150 146.175, 131.500 146.195 C 129.850 146.215, 129.296 146.439, 130.269 146.693 M 92.357 149.082 C 83.041 152.665, 73.238 163.594, 77.090 166.102 C 77.866 166.607, 79.625 166.776, 81 166.479 C 88.996 164.749, 114.673 148.856, 111.463 147.624 C 108.084 146.327, 97.400 147.143, 92.357 149.082 M 139.676 148.892 C 136.418 149.410, 135.460 150.193, 133.206 154.175 L 130.561 158.850 136.007 172.425 C 139.002 179.891, 142.011 186, 142.693 186 C 145.047 186, 150.754 179.170, 152.375 174.414 C 155.333 165.733, 153.971 158.187, 148.317 151.929 C 146.365 149.768, 144.482 148.064, 144.134 148.142 C 143.785 148.220, 141.779 148.557, 139.676 148.892 M 127.035 149.750 C 127.055 150.162, 127.646 151.537, 128.350 152.805 L 129.629 155.110 130.815 152.508 C 132.394 149.041, 132.379 149, 129.500 149 C 128.125 149, 127.016 149.338, 127.035 149.750" stroke="none" fill="black" fill-rule="evenodd"/>
</svg>