<svg xmlns="http://www.w3.org/2000/svg" width="200" height="200" viewBox="0 0 200 200" version="1.1">
	<path d="M 133.425 21.162 C 123.713 42.072, 124.726 41.241, 122.029 30.500 C 121.184 27.131, 120.074 25.889, 114.989 22.624 C 107.989 18.130, 101.258 16.779, 99.061 19.427 C 96.837 22.106, 96.762 29.896, 98.876 38.496 C 99.957 42.893, 100.749 46.584, 100.635 46.698 C 100.522 46.812, 97.323 40.192, 93.528 31.988 C 89.732 23.783, 86.036 16.844, 85.313 16.567 C 83.300 15.794, 83.740 18.554, 86.500 24 C 87.875 26.713, 89 29.588, 89 30.387 C 89 32.782, 84.261 33.157, 58.254 32.821 C 35.845 32.531, 33.166 32.672, 30.715 34.273 C 26.455 37.055, 27.128 40.268, 33.319 46.711 L 38.638 52.246 46.237 49.623 C 54.379 46.813, 63.137 46.194, 67.385 48.130 C 70.968 49.762, 72.581 54.184, 70.992 58.020 C 67.969 65.318, 57.790 69.244, 47.065 67.249 C 42.136 66.333, 39.741 66.477, 31.857 68.164 C 21.899 70.296, 18 72.099, 18 74.574 C 18 76.682, 22.995 78.573, 33.552 80.462 C 45.900 82.672, 57 85.062, 57 85.511 C 57 85.717, 52.561 90.524, 47.136 96.193 C 26.505 117.752, 20.634 125.649, 23.063 128.576 C 24.744 130.602, 28.031 130.347, 35.240 127.634 C 47.582 122.988, 53.584 119.233, 63.333 110.055 C 81.494 92.958, 90.074 82.681, 98.807 67.562 L 103.392 59.624 106.610 66.362 L 109.828 73.100 103.576 88.300 C 100.138 96.660, 95.829 107.775, 94 113 C 92.171 118.225, 90.375 122.851, 90.008 123.279 C 89.641 123.708, 85.102 123.326, 79.921 122.430 C 67.569 120.293, 61.372 120.866, 58.309 124.427 C 55.485 127.710, 55.426 130.428, 57.882 144.057 C 58.917 149.801, 60.078 159.450, 60.460 165.500 C 61.326 179.185, 62.758 182.563, 68.826 185.247 C 74.141 187.599, 79.200 187.249, 97 183.299 C 111.349 180.114, 123.930 179.718, 129.088 182.287 C 133.583 184.526, 136.369 183.621, 140.910 178.449 C 147.632 170.794, 151.574 156.204, 150.763 141.984 C 150.039 129.289, 145.545 121.943, 137.589 120.451 C 135.191 120.001, 134.089 119.074, 133.222 116.778 C 132.585 115.089, 132.304 113.316, 132.599 112.839 C 133.732 111.006, 140.943 108.103, 151.923 105.060 C 165.975 101.166, 173.102 97.869, 178.778 92.637 C 183.045 88.704, 187.164 82.615, 188.422 78.381 L 189.051 76.263 181.276 78.185 C 170.709 80.798, 154.149 81.685, 151.633 79.774 C 149.909 78.464, 149.882 78.129, 151.285 75.428 C 154.722 68.808, 170.399 61.026, 185.347 58.518 C 189.160 57.879, 189.178 57.854, 187.347 55.790 C 183.723 51.705, 174.908 46.928, 165.279 43.831 C 149.666 38.810, 146.650 34.119, 145.358 12.847 C 144.913 5.513, 144.315 2, 143.512 2 C 142.859 2, 138.320 10.623, 133.425 21.162 M 133.205 28.104 L 124.909 45.970 125.205 73.235 C 125.487 99.299, 125.602 100.726, 127.825 105.638 L 130.150 110.776 134.325 108.458 C 136.621 107.183, 144.107 104.502, 150.959 102.499 C 170.285 96.850, 178.027 92.183, 183.405 82.941 C 185.183 79.885, 185.191 79.713, 183.529 80.350 C 180.220 81.620, 164.771 84, 159.837 84 C 157.141 84, 153.375 83.348, 151.468 82.551 C 148.490 81.307, 148 80.629, 148 77.754 C 148 70.806, 162.176 61.248, 178.780 57.001 C 181.134 56.399, 182.789 55.468, 182.457 54.931 C 181.406 53.230, 170.764 48.307, 163.402 46.118 C 154.909 43.591, 150.293 40.667, 147.647 36.135 C 145.343 32.191, 143.067 23.169, 142.945 17.500 C 142.757 8.718, 141.643 9.930, 133.205 28.104 M 101.674 21.162 C 99.203 22.545, 99.529 29.940, 102.578 41.622 C 103.995 47.055, 105.148 52.806, 105.140 54.402 C 105.126 57.127, 110.675 69.659, 111.521 68.813 C 111.735 68.598, 114.188 63.311, 116.972 57.062 C 122.359 44.972, 122.298 45.480, 119.803 33.402 C 118.872 28.896, 118.213 27.956, 114.125 25.310 C 108.052 21.379, 103.811 19.967, 101.674 21.162 M 86 35.119 C 84.034 35.632, 72.417 35.765, 59.500 35.422 C 35.385 34.783, 31 35.297, 31 38.767 C 31 39.766, 32.922 42.470, 35.271 44.775 L 39.542 48.967 46.521 46.505 C 61.797 41.115, 74 44.677, 74 54.526 C 74 65.420, 61.393 72.610, 46.900 69.982 C 42.159 69.122, 39.612 69.286, 32.052 70.936 C 16.973 74.227, 17.370 74.762, 37.614 78.430 C 53.589 81.324, 59.378 83.079, 59.785 85.151 C 59.942 85.949, 56.187 90.630, 51.440 95.551 C 39.140 108.306, 28.058 120.988, 26.385 124.223 C 25.046 126.813, 25.084 127, 26.951 127 C 29.419 127, 39.835 123.131, 46.611 119.697 C 60.935 112.439, 88.246 82.306, 98.314 62.652 L 101.784 55.878 96.642 44.948 C 93.814 38.937, 91.050 34.060, 90.500 34.111 C 89.950 34.163, 87.925 34.616, 86 35.119 M 117.161 63.362 L 112.821 73.225 117.161 82.519 L 121.500 91.813 121.786 82.406 C 121.944 77.233, 121.944 68.612, 121.786 63.250 L 121.500 53.500 117.161 63.362 M 110.113 79.637 C 106.856 86.747, 93 122.442, 93 123.723 C 93 123.910, 97.612 123.770, 103.250 123.413 C 120.682 122.306, 125.999 125.221, 126.001 135.885 C 126.002 138.973, 125.255 146.787, 124.341 153.250 L 122.680 165 119.329 165 C 117.486 165, 111.625 165.701, 106.305 166.557 C 95.008 168.375, 90.120 167.821, 86.863 164.354 C 83.313 160.575, 83.095 149.537, 86.325 137 C 87.670 131.775, 88.663 127.378, 88.530 127.228 C 87.753 126.351, 73.628 124.032, 68.973 124.017 C 58.738 123.985, 57.434 126.868, 60.543 142.662 C 61.391 146.973, 62.458 156.125, 62.915 163 C 63.826 176.732, 65.004 180.434, 69.145 182.575 C 73.225 184.685, 78.883 184.324, 95 180.929 C 111.909 177.366, 123.420 176.861, 129.481 179.414 C 134.358 181.469, 136.749 180.488, 140.431 174.925 C 146.575 165.641, 149.936 144.810, 147.024 134.060 C 145.434 128.193, 140.281 123, 136.049 123 C 133.358 123, 132.671 122.457, 131.345 119.282 C 129.883 115.784, 129.710 115.676, 128.406 117.459 C 127.644 118.501, 126.817 119.150, 126.568 118.902 C 126.320 118.653, 125.327 114.411, 124.362 109.475 C 123.145 103.249, 120.896 96.867, 117.016 88.637 C 111.438 76.802, 111.421 76.780, 110.113 79.637 M 95.812 126.725 C 92.399 127.084, 92.012 127.465, 90.645 131.807 C 87.922 140.450, 86.652 147.450, 86.639 153.890 C 86.626 159.626, 86.906 160.522, 89.368 162.640 C 92.689 165.497, 96.347 165.587, 110.500 163.162 L 120.500 161.449 122.339 147.796 C 124.377 132.660, 123.907 129.776, 119 127.294 C 116.627 126.094, 104.602 125.799, 95.812 126.725" stroke="none" fill="black" fill-rule="evenodd"/>
</svg>