<svg xmlns="http://www.w3.org/2000/svg" width="200" height="200" viewBox="0 0 200 200" version="1.1">
	<path d="M 133.717 10.250 C 132.802 10.938, 131.294 13.525, 130.368 16 C 127.798 22.864, 127.334 60.166, 129.463 88.856 C 130.375 101.152, 130.873 111.460, 130.569 111.764 C 130.265 112.068, 128.422 108.865, 126.472 104.647 L 122.929 96.977 124.094 88.238 C 125.582 77.085, 124.727 50.673, 122.469 38 C 120.582 27.415, 116.365 11.995, 114.970 10.582 C 113.465 9.057, 99.762 16.422, 97.750 19.838 C 95.262 24.062, 95.528 26.206, 99.680 35.374 C 102.881 42.443, 105.394 54, 103.731 54 C 102.958 54, 94 33.204, 94 31.409 C 94 30.555, 93.304 29.161, 92.452 28.310 C 90.888 26.745, 89.500 27.214, 89.500 29.306 C 89.500 31.531, 80.152 32.333, 53.250 32.416 L 26 32.500 26 36.563 C 26 39.716, 26.633 41.232, 28.825 43.333 C 32.916 47.252, 36.777 48.103, 53 48.660 C 68.035 49.177, 74 50.247, 74 52.428 C 74 53.845, 69.121 60.872, 66.917 62.630 C 66.077 63.299, 59.185 63.982, 50 64.306 C 29.514 65.029, 18 68.124, 18 72.909 C 18 76.838, 31.772 80.233, 47.250 80.120 C 52.063 80.085, 56 80.298, 56 80.594 C 56 82.580, 51.852 87.420, 38.083 101.500 C 22.710 117.220, 18.783 122.453, 19.707 125.988 C 20.140 127.644, 20.558 127.667, 25.836 126.326 C 33.828 124.294, 50.309 115.999, 58.070 110.103 C 64.953 104.873, 91 78.673, 91 76.980 C 91 74.349, 87.754 76.875, 80 85.541 C 66.414 100.726, 55.605 109.702, 42.842 116.400 C 34.344 120.859, 24.287 124.620, 23.354 123.688 C 22.133 122.466, 26.243 117.538, 41.128 102.370 C 56.462 86.746, 59.566 82.639, 58.380 79.547 C 57.584 77.473, 55.719 77.131, 45.500 77.184 C 37.533 77.225, 22.641 74.974, 21.174 73.507 C 17.964 70.297, 45.921 65.328, 59.888 66.626 L 66.628 67.253 70.801 62.376 C 81.368 50.026, 77.322 46.139, 53.799 46.044 C 36.883 45.975, 29.903 43.716, 28.477 37.850 L 27.833 35.200 44.167 35.737 C 53.771 36.053, 65.856 35.773, 73.500 35.058 C 80.650 34.389, 87.560 33.765, 88.856 33.671 C 90.955 33.519, 91.803 34.849, 96.606 45.829 C 99.573 52.611, 102 58.524, 102 58.971 C 102 59.418, 99.964 62.049, 97.475 64.817 C 91.715 71.223, 93.436 72.686, 99.451 66.497 L 103.928 61.891 105.322 65.195 C 106.089 67.013, 109.930 75.512, 113.858 84.083 C 117.786 92.653, 121 100.883, 121 102.372 C 121 105.706, 124.380 112.548, 126.412 113.328 C 128.062 113.961, 132.452 121.882, 131.616 122.717 C 131.328 123.005, 128.484 123.865, 125.296 124.627 C 118.201 126.324, 101.060 126.477, 82.876 125.007 C 66.886 123.715, 56.464 124.685, 44.865 128.546 C 31.411 133.025, 30.968 136.477, 43.382 140.099 C 58.564 144.529, 62.911 146.188, 65.409 148.504 C 68.581 151.443, 68.727 154.935, 65.888 159.985 C 63.923 163.482, 63.859 164.237, 64.971 170.828 C 66.481 179.783, 69.607 186.076, 73.450 187.901 C 76.083 189.150, 76.778 189.097, 79.912 187.401 C 87.935 183.058, 94 169.953, 94 156.960 C 94 153.204, 93.562 148.977, 93.026 147.568 C 92.131 145.214, 92.355 144.876, 95.776 143.415 C 101.506 140.968, 110.040 140.452, 113.679 142.334 C 118.934 145.051, 121.013 151.734, 124.397 176.781 C 125.235 182.986, 126.190 188.499, 126.519 189.031 C 128.185 191.727, 136.472 188.135, 141.169 182.682 C 144.310 179.036, 147.761 171.708, 149.531 164.929 C 151.707 156.593, 151.156 138.584, 148.530 132.227 C 146.969 128.450, 139.298 120.369, 138.259 121.408 C 138.042 121.625, 138.545 124.097, 139.378 126.901 C 140.211 129.706, 140.699 132, 140.463 132 C 139.497 132, 135.247 122.239, 134.714 118.795 C 134.238 115.721, 134.470 114.986, 136.076 114.476 C 139.358 113.434, 143.983 108.949, 146.235 104.624 C 148.515 100.245, 149.254 90.206, 147.705 84.647 L 146.910 81.793 153.205 82.529 C 166.923 84.133, 176.993 82.750, 179.008 78.986 C 182.914 71.688, 171.860 60.451, 158.856 58.501 L 154.274 57.814 153.713 51.122 C 152.469 36.283, 145.116 15.596, 139.520 11.194 C 136.273 8.640, 135.935 8.585, 133.717 10.250 M 134.147 13.750 C 131.612 18.555, 130.655 28.446, 130.738 49 C 130.848 76.731, 133.246 112, 135.021 112 C 135.475 112, 137.295 110.781, 139.066 109.291 C 145.766 103.654, 147.834 92.848, 144.096 83.011 C 143.049 80.255, 142.379 78, 142.607 78 C 142.835 78, 147.404 78.715, 152.761 79.588 C 162.550 81.184, 171.396 80.929, 175.105 78.944 C 177.561 77.630, 177.546 73.576, 175.074 70.103 C 170.674 63.925, 155.146 58.710, 152.094 62.386 C 150.645 64.133, 146 64.618, 146 63.023 C 146 62.486, 147.125 61.309, 148.500 60.408 C 150.607 59.028, 151 57.995, 151 53.843 C 151 42.741, 144.514 21.142, 139.332 14.982 C 136.442 11.548, 135.435 11.309, 134.147 13.750 M 105.784 16.548 C 97.779 20.716, 97.227 24.058, 102.656 35.491 C 106.540 43.669, 107.864 51.065, 106.270 55.684 C 105.426 58.132, 106.287 60.687, 112.850 75.216 C 117.003 84.410, 120.549 91.784, 120.731 91.603 C 120.912 91.421, 121.472 86.599, 121.975 80.886 C 123.467 63.943, 120.550 36.316, 115.458 19.171 C 113.676 13.171, 112.752 12.921, 105.784 16.548 M 128.500 126.802 C 120.371 128.979, 105.784 129.383, 85.768 127.984 C 69.322 126.835, 65.838 126.864, 57.744 128.217 C 47.194 129.981, 36.334 133.734, 37.732 135.132 C 38.237 135.637, 42.892 137.177, 48.075 138.553 C 68.731 144.038, 74.790 150.271, 68.883 159.960 C 67.175 162.762, 66.890 164.379, 67.382 168.460 C 68.656 179.018, 72.101 186, 76.038 186 C 79.038 186, 84.696 180.335, 87.396 174.628 C 91.949 165.004, 92.628 155.496, 89.486 145.355 C 88.903 143.473, 89.536 142.932, 94.661 140.936 C 98.518 139.433, 102.771 138.634, 107.192 138.581 C 113.505 138.505, 114.084 138.694, 117.419 141.924 C 121.978 146.340, 123.539 151.260, 126 168.980 C 128.797 189.113, 128.562 188.670, 134.493 185.004 C 146.601 177.521, 152.574 149.276, 145.585 132.548 C 143.605 127.811, 142.687 128.282, 144.078 133.320 C 145.148 137.197, 144.705 139, 142.682 139 C 141.422 139, 140.258 137.417, 136.055 129.981 L 133.500 125.462 128.500 126.802" stroke="none" fill="black" fill-rule="evenodd"/>
</svg>