<svg xmlns="http://www.w3.org/2000/svg" width="200" height="200" viewBox="0 0 200 200" version="1.1">
	<path d="M 134.005 15.184 C 131.597 19.085, 129.475 25.946, 126.991 37.866 C 126.002 42.615, 125.149 45.712, 125.096 44.750 C 125.043 43.788, 124.388 43, 123.639 43 C 121.830 43, 121.014 50.207, 121.032 66 C 121.047 78.588, 118.181 109, 116.981 109 C 116.152 109, 111.074 92.557, 106.170 74 C 103.296 63.124, 102.545 58.755, 103.166 56.519 C 103.620 54.880, 104.646 46.091, 105.444 36.988 C 106.903 20.347, 107.507 17, 109.052 17 C 109.813 17, 114.918 22.661, 119.874 29 C 120.948 30.375, 122.167 31.162, 122.582 30.748 C 123.648 29.686, 121.492 26.028, 116.308 20.102 C 112.915 16.224, 111.168 15, 109.020 15 C 105.179 15, 104.177 18.216, 102.946 34.500 C 101.464 54.114, 101.352 54.246, 97.370 41.120 C 92.941 26.523, 91.537 23.783, 88.692 24.188 C 87.080 24.417, 86.248 25.519, 85.550 28.348 C 84.627 32.084, 84.495 32.179, 81.050 31.591 C 60.486 28.082, 40.297 29.299, 32.316 34.529 C 29.106 36.632, 29.614 39.888, 33.500 42.126 C 36.690 43.963, 49.002 46, 56.913 46 C 60.236 46, 63.546 46.932, 67.840 49.078 C 77.858 54.084, 76.973 54.533, 53.075 56.570 C 25.287 58.938, 18.843 60.705, 18.199 66.134 C 17.670 70.601, 19.744 71.224, 34.566 71.056 C 49.069 70.892, 55.019 71.991, 54.973 74.828 C 54.935 77.183, 51.049 81.389, 39.287 91.803 C 25.838 103.711, 20 110.497, 20 114.223 C 20 116.469, 24.899 116.587, 33.500 114.548 C 50.952 110.412, 65.105 100.335, 87.010 76.449 C 93.793 69.052, 99.615 63, 99.947 63 C 100.278 63, 101.842 68.062, 103.422 74.250 C 107.724 91.096, 112.834 107.754, 115.007 112.014 C 116.915 115.754, 116.915 115.954, 114.996 129.024 C 112.878 143.457, 112.286 146, 111.041 146 C 110.588 146, 109.912 147.238, 109.540 148.750 C 108.211 154.150, 103.987 159.923, 99.399 162.612 C 94.075 165.732, 83.935 166.882, 77.381 165.108 C 73.232 163.985, 68 160.581, 68 159.005 C 68 157.380, 75.264 155.773, 83.690 155.534 C 91.761 155.305, 92.256 155.159, 94.011 152.483 C 97.271 147.513, 100.306 136.407, 99.750 131.479 C 98.292 118.542, 84.556 112.050, 61.452 113.378 C 51.923 113.926, 36.303 116.363, 35.191 117.476 C 34.054 118.613, 37.159 123.102, 41.012 125.894 C 43.258 127.521, 50.036 130.999, 56.074 133.622 C 63.160 136.700, 66.575 138.658, 65.706 139.145 C 64.966 139.559, 57.734 139.583, 49.636 139.199 L 34.912 138.500 34.329 140.823 C 34.009 142.101, 33.959 146.454, 34.218 150.496 C 35.098 164.200, 43.491 176.039, 56.759 182.289 C 62.578 185.030, 64.595 185.465, 71.500 185.465 C 78.507 185.466, 80.185 185.092, 85.018 182.455 L 90.535 179.444 93.916 181.722 C 99.984 185.811, 103.972 184.382, 118.024 173.078 C 129.159 164.121, 134.104 161.972, 138.955 163.981 C 143.481 165.856, 148.183 171.189, 151.996 178.771 C 156.130 186.992, 155.816 186.584, 157.061 185.339 C 157.766 184.634, 157.602 181.051, 156.543 173.966 C 153.575 154.116, 148.371 138.840, 140.591 127.136 C 136.212 120.550, 125.107 109, 123.154 109 C 122.607 109, 121.855 110.382, 121.484 112.072 C 120.038 118.659, 119.842 113.536, 121.095 101.881 L 122.410 89.649 124.098 96.336 C 126.146 104.451, 128.178 107.756, 131.656 108.629 C 135.360 109.558, 138.787 107.197, 143.339 100.580 L 147.177 95 155.039 95 C 174.011 95, 182.789 89.129, 175.250 81.484 C 171.952 78.139, 161.736 73.301, 156.052 72.392 C 150.339 71.479, 150.232 70.431, 155.713 69.051 C 164.011 66.961, 175.440 62.113, 178.923 59.205 C 181.650 56.929, 182.190 55.891, 181.687 53.890 C 180.848 50.546, 175.958 48.022, 161.750 43.599 C 150.996 40.252, 150 39.737, 150 37.522 C 150 33.752, 145.265 19.690, 142.722 15.907 C 139.569 11.218, 136.604 10.972, 134.005 15.184 M 134.958 19.363 C 132.095 25.834, 129.409 38.306, 126.503 58.618 C 124.206 74.676, 124.034 77.729, 124.996 85.467 C 126.268 95.700, 128.816 103.908, 131.172 105.361 C 133.854 107.014, 137.299 104.763, 141.294 98.745 L 144.907 93.302 154.644 92.617 C 165.711 91.839, 172.430 90.392, 174.052 88.437 C 178.626 82.926, 160.522 74, 144.772 74 C 139.498 74, 138 73.677, 138 72.539 C 138 71.653, 139.676 70.656, 142.250 70.009 C 153.264 67.242, 172.009 60.678, 175.318 58.430 C 182.073 53.840, 180.417 52.390, 161.804 46.602 C 149.374 42.737, 147 41.274, 147 37.480 C 147 34.216, 142.415 20.008, 140.472 17.250 C 138.199 14.025, 137.139 14.431, 134.958 19.363 M 87.540 31.579 C 87.097 34.535, 86.428 35.994, 85.651 35.696 C 76.644 32.240, 49.400 31.396, 39.881 34.278 C 32.665 36.463, 30.916 38.341, 34.734 39.805 C 39.621 41.680, 41.356 41.978, 52.684 42.888 C 62.344 43.665, 64.613 44.209, 69.878 47.016 C 76.046 50.303, 78.050 53.030, 76.060 55.427 C 74.529 57.273, 71.050 57.848, 51.248 59.528 C 27.670 61.529, 20.518 63.257, 21.197 66.786 C 21.477 68.237, 23.045 68.401, 34.085 68.134 C 51.986 67.701, 58.948 70.007, 57.506 75.894 C 56.737 79.032, 51.684 84.377, 39 95.468 C 33.775 100.036, 28.010 105.850, 26.188 108.387 L 22.876 113 25.544 113 C 30.286 113, 40.317 109.949, 47.776 106.239 C 57.916 101.194, 68.478 92.402, 82.500 77.333 C 101.459 56.957, 99.579 59.807, 98.069 53.738 C 95.681 44.130, 89.911 27, 89.063 27 C 88.603 27, 87.918 29.061, 87.540 31.579 M 124.232 50 C 124.232 51.925, 124.438 52.712, 124.689 51.750 C 124.941 50.788, 124.941 49.212, 124.689 48.250 C 124.438 47.288, 124.232 48.075, 124.232 50 M 121.849 116.194 C 119.953 118.151, 119.010 120.438, 118.541 124.216 C 117.165 135.288, 114.797 146.558, 113.542 148 C 112.824 148.825, 111.899 150.625, 111.487 152 C 109.797 157.636, 105.332 162.532, 98.500 166.238 C 95.314 167.967, 92.771 168.417, 86 168.451 C 76.286 168.501, 69.408 166.079, 66.453 161.568 C 64.826 159.086, 64.830 158.846, 66.518 156.980 C 68.986 154.253, 74.167 153.012, 83.113 153.006 L 90.727 153 93.551 146.750 C 101.057 130.140, 96.305 120.287, 79.175 116.944 C 72.113 115.567, 54.678 116.141, 44.014 118.103 L 37.528 119.297 41.164 122.398 C 43.163 124.104, 50.807 128.216, 58.150 131.536 C 68.702 136.307, 71.500 137.984, 71.500 139.536 C 71.500 141.412, 70.727 141.500, 54.313 141.500 L 37.127 141.500 36.553 144.561 C 35.803 148.570, 37.508 157.353, 40.062 162.627 C 43.443 169.612, 49.521 175.639, 56.788 179.213 C 62.682 182.112, 64.417 182.497, 71.485 182.473 C 79.382 182.446, 82.714 181.378, 89.144 176.811 C 90.481 175.862, 91.383 176.145, 93.971 178.322 C 99.588 183.048, 103.080 181.945, 115.562 171.500 C 124.306 164.183, 127.768 162.075, 132.978 160.895 C 139.092 159.511, 145.713 163.683, 152.227 173.024 C 153.952 175.497, 153.953 175.495, 153.344 171 C 150.404 149.293, 139.056 125.162, 127.370 115.765 L 124.500 113.458 121.849 116.194" stroke="none" fill="black" fill-rule="evenodd"/>
</svg>