<svg xmlns="http://www.w3.org/2000/svg" width="200" height="200" viewBox="0 0 200 200" version="1.1">
	<path d="M 89.128 8.449 C 86.724 9.225, 83.042 11.239, 80.947 12.922 C 77.342 15.819, 76.806 15.949, 70.966 15.339 C 65.263 14.743, 64.822 14.838, 65.159 16.597 C 65.360 17.644, 67.208 19.400, 69.268 20.500 C 71.911 21.912, 72.812 22.941, 72.332 24 C 71.958 24.825, 70.742 28.254, 69.629 31.621 L 67.607 37.741 59.931 38.267 C 44.442 39.329, 43.837 43.779, 58.371 49.736 C 62.081 51.256, 65.090 52.837, 65.058 53.250 C 65.026 53.663, 65 57.505, 65 61.790 L 65 69.580 56.250 73.308 C 41.098 79.764, 34.032 85.313, 35.636 89.494 C 36.242 91.073, 37.218 91.197, 44.409 90.607 C 48.859 90.242, 55.421 89.314, 58.990 88.545 C 62.560 87.777, 65.617 87.284, 65.783 87.450 C 65.949 87.616, 66.350 89.383, 66.674 91.376 L 67.262 95 55.881 95.008 C 42.531 95.018, 27.714 96.549, 24.071 98.295 C 17.481 101.453, 23.013 106.021, 38.971 110.599 C 47.885 113.156, 48.970 113.253, 58.456 112.336 C 63.980 111.801, 68.670 111.490, 68.877 111.643 C 69.084 111.796, 69.579 113.698, 69.976 115.871 L 70.699 119.821 59.543 119.271 C 47.585 118.682, 44 119.535, 44 122.968 C 44 125.172, 48.982 129.336, 61.250 137.386 C 66.063 140.543, 70 143.498, 70 143.952 C 70 145.515, 63.479 145.941, 54 144.999 C 48.775 144.479, 44.165 144.042, 43.756 144.027 C 42.170 143.969, 37.130 152.271, 36.505 155.970 C 34.087 170.283, 55.971 185.008, 79.644 184.996 C 92.053 184.990, 96.811 180.771, 94.118 172.159 C 92.045 165.531, 90.749 164.574, 85.602 165.870 C 79.602 167.381, 75.328 167.297, 74.698 165.655 C 73.131 161.573, 83.996 147.974, 93 142.749 C 100.115 138.619, 102.525 138.346, 104.553 141.440 C 106.442 144.323, 105.931 149.309, 102.502 161.479 C 96.759 181.864, 115.018 193.351, 143.733 187.420 C 157.369 184.604, 164.797 179.075, 161.035 174.542 C 159.414 172.589, 151.756 170.187, 144.501 169.354 L 138.502 168.666 142.611 167.296 C 148.138 165.454, 151.437 161.878, 150.619 158.617 C 150.253 157.162, 146.847 153.552, 142.444 149.954 C 137.688 146.068, 135.007 143.178, 135.198 142.143 C 135.391 141.097, 137.946 139.707, 142.230 138.317 C 153.762 134.575, 159.499 128.419, 155.536 124.040 C 152.158 120.307, 145.035 119.494, 116.750 119.610 C 102.037 119.671, 90 119.604, 90 119.461 C 90 119.318, 95.622 117.131, 102.492 114.601 C 114.457 110.194, 115.438 110, 125.723 110 C 131.629 110, 143.783 110.511, 152.732 111.135 L 169.003 112.270 172.910 109.562 C 177.580 106.326, 179.494 102.429, 178.150 98.895 C 177.011 95.899, 171.010 90.355, 163.532 85.390 C 160.489 83.370, 157.996 80.993, 157.990 80.108 C 157.967 76.362, 152.854 68.123, 147.184 62.697 C 143.615 59.282, 140.633 55.417, 139.935 53.303 C 138.796 49.852, 139.041 43.460, 140.594 36.095 C 141.100 33.694, 140.983 32.892, 140.197 33.378 C 138.782 34.253, 125.850 30.857, 125.459 29.508 C 125.299 28.953, 124.886 27.224, 124.543 25.664 C 124.199 24.104, 121.905 20.674, 119.444 18.043 C 111.599 9.657, 98.359 5.467, 89.128 8.449 M 88.684 11.389 C 83.005 13.503, 78.659 18, 82.294 18 C 83.006 18, 92.053 20.503, 102.398 23.562 C 112.744 26.622, 121.441 28.893, 121.724 28.609 C 122.900 27.433, 120.814 23.116, 117.343 19.541 C 110.131 12.115, 96.867 8.343, 88.684 11.389 M 72 19 C 73.958 20.266, 75.282 20.266, 74.500 19 C 74.160 18.450, 73.121 18.007, 72.191 18.015 C 70.734 18.029, 70.707 18.165, 72 19 M 77.599 20.840 C 76.647 22.380, 98.124 31.970, 105.007 33.080 C 110.947 34.037, 117.087 33.682, 119.409 32.247 C 120.259 31.722, 82.019 20.061, 79.309 20.019 C 78.654 20.008, 77.884 20.378, 77.599 20.840 M 73.072 29.538 C 69.906 38, 70.059 38.392, 76.250 37.648 C 79.138 37.301, 87.800 36.970, 95.500 36.913 C 109.499 36.808, 109.500 36.808, 103 35.598 C 99.024 34.857, 92.526 32.370, 86.268 29.194 C 80.641 26.337, 75.835 24, 75.590 24 C 75.345 24, 74.211 26.492, 73.072 29.538 M 121 34.577 L 118.500 36.083 121 35.427 C 122.375 35.065, 123.931 34.709, 124.459 34.635 C 124.986 34.561, 125.737 37.200, 126.128 40.500 C 127.473 51.851, 134.676 63.394, 146.151 72.586 C 155.128 79.778, 155.394 79.879, 153.513 75.377 C 152.639 73.284, 148.833 68.385, 145.055 64.489 C 136.877 56.055, 135.346 52.017, 136.715 42.496 L 137.600 36.340 131.050 34.662 C 123.335 32.685, 124.130 32.691, 121 34.577 M 113.500 39.038 C 110.200 39.448, 99.115 39.832, 88.867 39.891 C 70.431 39.999, 70.227 40.024, 69.630 42.250 C 68.611 46.054, 68.934 50.806, 70.250 51.354 C 71.160 51.733, 71.023 52.262, 69.750 53.297 C 68.402 54.394, 68 56.245, 68 61.360 C 68 65.012, 68.216 68, 68.480 68 C 69.559 68, 89.525 59.768, 94.236 57.380 C 100.602 54.154, 99.325 53.037, 89.250 53.015 C 83.188 53.003, 82 52.730, 82 51.351 C 82 49.906, 83.017 49.775, 90.250 50.286 C 100.079 50.981, 102 51.603, 102 54.093 C 102 56.801, 96.395 60.046, 81.250 66.104 L 68 71.404 68.015 75.952 C 68.042 83.745, 67.872 83.710, 85.135 79.470 C 105.343 74.505, 121.217 73.717, 136.681 76.908 C 142.280 78.064, 147.680 79.321, 148.681 79.702 C 149.681 80.084, 146.450 76.528, 141.500 71.801 C 130.956 61.734, 126.603 55.021, 124.226 45.169 C 122.998 40.080, 122.067 38.055, 121 38.154 C 120.175 38.231, 116.800 38.629, 113.500 39.038 M 53.029 41.888 L 50.557 42.577 52.984 44.276 C 55.500 46.039, 64.868 49.470, 65.476 48.852 C 65.666 48.658, 66.137 46.813, 66.522 44.750 L 67.223 41 61.361 41.100 C 58.138 41.155, 54.388 41.509, 53.029 41.888 M 55.778 76.499 C 47.004 80.408, 41.153 83.902, 38.985 86.526 C 37.573 88.236, 37.846 88.296, 44.500 87.737 C 55.241 86.836, 65.155 84.761, 65.717 83.295 C 66.371 81.590, 65.091 72.991, 64.189 73.029 C 63.810 73.045, 60.025 74.607, 55.778 76.499 M 101.500 78.696 C 99.850 78.914, 91.811 80.702, 83.635 82.668 L 68.769 86.244 69.301 90.205 C 69.593 92.383, 70.009 94.342, 70.225 94.558 C 70.441 94.775, 82.067 95.068, 96.059 95.210 C 119.915 95.452, 122.483 95.298, 137.283 92.734 C 155.496 89.579, 158 89.426, 158 91.465 C 158 93.391, 156.438 94.166, 138.607 101.085 C 128.615 104.962, 124.516 106.953, 126.500 106.964 C 128.150 106.974, 138.336 107.503, 149.135 108.140 C 168.608 109.290, 168.796 109.281, 171.826 107.124 C 177.950 102.763, 176.886 99.080, 167.341 91.588 C 161.309 86.853, 149.522 82.288, 136.185 79.519 C 129.413 78.113, 109.489 77.640, 101.500 78.696 M 132 96.162 C 118.438 98.411, 103.926 98.843, 84.093 97.588 L 69.685 96.677 70.343 99.963 C 70.704 101.771, 71 104.310, 71 105.605 L 71 107.961 93.250 107.362 L 115.500 106.764 131.468 100.830 C 140.251 97.567, 147.639 94.695, 147.885 94.448 C 148.658 93.675, 143.897 94.189, 132 96.162 M 46.500 98.037 C 38.800 98.438, 30.486 99.313, 28.025 99.982 C 23.794 101.132, 23.658 101.277, 25.525 102.645 C 27.494 104.088, 44.703 109.751, 48.500 110.206 C 49.600 110.338, 54.674 110.072, 59.775 109.615 L 69.050 108.784 68.467 105.142 C 67.157 96.951, 67.180 96.990, 63.731 97.154 C 61.954 97.239, 54.200 97.636, 46.500 98.037 M 76.184 110.735 C 72.007 111.109, 71.886 111.216, 72.434 114.061 C 72.745 115.677, 73.253 118.313, 73.562 119.919 L 74.123 122.838 60.562 122.269 C 52.026 121.911, 47 122.062, 47 122.676 C 47 124.209, 50.871 127.376, 59 132.495 C 78.345 144.674, 77.639 148.664, 56.302 147.743 L 43.986 147.211 41.892 150.152 C 33.284 162.241, 46.131 176.539, 70.172 181.625 C 78.329 183.351, 85.957 182.913, 89.626 180.509 C 92.537 178.602, 92.857 173.263, 90.250 170.094 C 88.722 168.236, 88.058 168.096, 85.007 168.984 C 68.390 173.818, 67.662 162.001, 83.645 146.875 C 93.506 137.544, 102.398 134.467, 106.477 138.974 C 108.945 141.701, 108.736 149.765, 105.963 158.897 C 102.164 171.403, 104.268 178.204, 113.390 182.898 C 122.659 187.668, 143.865 186.681, 155.085 180.957 C 160.166 178.365, 159.955 175.986, 154.486 174.192 C 149.783 172.650, 138.454 171.074, 131.750 171.031 C 124.257 170.982, 125.542 168.546, 134.077 166.619 C 143.272 164.542, 148 162.273, 148 159.936 C 148 158.926, 145.879 156.390, 143.287 154.300 C 135.298 147.858, 132 144.289, 132 142.085 C 132 139.492, 136.997 136.222, 142.284 135.354 C 147.051 134.572, 154 129.641, 154 127.041 C 154 123.458, 148.319 122.745, 116 122.276 C 99.225 122.032, 85.073 121.420, 84.550 120.916 C 82.962 119.385, 85.223 118.026, 96.142 113.949 L 106.500 110.081 93.500 110.215 C 86.350 110.289, 78.558 110.523, 76.184 110.735" stroke="none" fill="black" fill-rule="evenodd"/>
</svg>