<svg xmlns="http://www.w3.org/2000/svg" width="200" height="200" viewBox="0 0 200 200" version="1.1">
	<path d="M 136.754 12.750 C 133.747 16.133, 132.896 22.753, 131.901 50.500 C 131.349 65.900, 130.651 82.265, 130.349 86.866 L 129.801 95.231 126.905 90.866 L 124.009 86.500 123.984 68 C 123.949 40.438, 121.215 26.052, 114.547 18.338 L 111.322 14.608 105.707 17.355 C 99.801 20.245, 95 24.967, 95 27.887 C 95 28.840, 96.641 32.951, 98.647 37.023 C 100.722 41.234, 102.447 46.381, 102.650 48.963 C 103 53.411, 102.909 53.303, 98.020 43.500 C 95.277 38, 93.025 32.938, 93.016 32.250 C 92.994 30.563, 91.521 30.677, 87.700 32.665 C 85.072 34.031, 81.013 34.359, 65 34.494 C 49.440 34.626, 44.404 35.015, 40.078 36.420 C 32.661 38.827, 29.832 40.825, 30.200 43.398 C 30.744 47.210, 36.947 49.220, 49.864 49.768 C 61.601 50.267, 66.578 51.664, 71.250 55.771 C 73.898 58.100, 73.381 59.532, 69.250 61.311 C 63.384 63.836, 58.339 64.886, 39.327 67.538 C 22.938 69.824, 14.977 71.597, 15.016 72.951 C 15.024 73.253, 19.942 75.030, 25.944 76.900 C 47.978 83.765, 50.972 87.261, 42.163 95.841 C 39.430 98.503, 33.325 103.309, 28.597 106.521 C 20.751 111.851, 20 112.646, 20 115.624 C 20 119.413, 22.912 122, 27.177 122 C 37.982 122, 64.559 105.691, 79.412 89.946 C 89.832 78.900, 86.103 79.192, 74.921 90.297 C 60.559 104.560, 40.329 117.171, 29.410 118.667 C 24.996 119.272, 22 118.036, 22 115.609 C 22 114.978, 25.953 111.672, 30.785 108.262 C 46.487 97.179, 51.927 90.158, 48.811 84.997 C 47.302 82.499, 38.997 78.078, 31 75.516 C 27.975 74.547, 25.147 73.434, 24.716 73.043 C 24.285 72.652, 28.560 71.760, 34.216 71.060 C 58.338 68.077, 69.702 65.387, 73.750 61.700 C 76.492 59.203, 76.557 57.977, 74.110 54.867 C 70.404 50.155, 64.499 48.241, 50.314 47.151 C 31.861 45.735, 28.497 43.472, 39.069 39.590 C 43.712 37.885, 47.440 37.556, 64.754 37.327 C 79.711 37.129, 85.706 36.694, 87.672 35.664 L 90.335 34.269 96.063 45.879 L 101.791 57.490 99.803 61.387 C 98.709 63.530, 95.756 67.485, 93.240 70.175 C 90.119 73.511, 88.991 75.391, 89.689 76.089 C 90.894 77.294, 99.136 68.591, 101.908 63.189 L 103.668 59.758 106.500 64.629 C 108.058 67.308, 112.061 73.550, 115.395 78.500 C 121.145 87.037, 121.488 87.886, 122.052 95 C 122.471 100.287, 123.467 104.162, 125.428 108.133 C 128.207 113.760, 128.208 113.772, 126.587 119.348 C 125.695 122.418, 123.881 126.183, 122.556 127.715 L 120.148 130.500 116.430 128.515 C 114.386 127.423, 111.793 125.286, 110.668 123.765 C 108.857 121.316, 107.989 121.002, 103.062 121.020 C 94.641 121.051, 84.860 122.711, 83.175 124.397 C 80.969 126.602, 82.749 128.260, 93.023 133.566 C 102.344 138.380, 108.510 143.245, 109.419 146.503 C 111.061 152.385, 98.010 161.204, 87.439 161.357 C 79.957 161.465, 76.846 158.678, 69.052 144.884 C 61.990 132.384, 51.769 120.888, 46.573 119.599 C 43.096 118.737, 39.260 121.129, 37.123 125.492 C 33.297 133.301, 35.390 151.767, 41.561 164.660 C 45.763 173.437, 51.909 179.251, 58.758 180.927 C 61.366 181.565, 65.075 182.833, 67 183.745 C 75.130 187.597, 90.295 186.060, 103.576 180.038 C 111.847 176.288, 122.116 169.026, 125.592 164.469 C 127.047 162.561, 128.521 161.003, 128.869 161.008 C 129.216 161.012, 130.492 162.754, 131.705 164.878 C 134.657 170.048, 143.611 179.748, 147.096 181.550 C 153.013 184.609, 158.198 182.961, 160.019 177.442 C 163.397 167.207, 154.252 153.131, 140.628 147.593 L 135.214 145.393 142.698 143.070 C 151.912 140.209, 158 135.085, 158 130.190 C 158 126.501, 153.488 120.859, 149.077 119.032 C 147.465 118.364, 144.941 116.080, 143.469 113.956 L 140.793 110.094 145.506 102.297 C 152.359 90.960, 156.321 86.517, 162.186 83.595 C 168.168 80.613, 171.049 80.401, 177 82.500 C 179.338 83.325, 181.420 84, 181.626 84 C 181.832 84, 182 81.586, 182 78.635 C 182 69.688, 178.319 66.501, 164.500 63.481 C 160.100 62.520, 154.795 61.063, 152.712 60.243 C 145.487 57.400, 144.144 49.446, 148.639 36.128 L 151.278 28.310 147.973 21.597 C 145.054 15.667, 141.111 11, 139.020 11 C 138.630 11, 137.610 11.787, 136.754 12.750 M 137.617 15.554 C 135.908 20.008, 134.959 32.805, 133.994 64.395 L 132.929 99.289 135.600 103.145 C 137.070 105.265, 138.556 107, 138.902 107 C 139.249 107, 141.072 104.412, 142.954 101.250 C 153.775 83.064, 163.268 76.475, 174.886 79.086 C 177.294 79.627, 179.472 79.861, 179.727 79.606 C 179.982 79.351, 179.889 77.773, 179.522 76.099 C 178.477 71.341, 174.034 68.354, 165.256 66.507 C 143.501 61.931, 139.654 56.235, 145.483 37.233 L 148.209 28.346 145.491 22.923 C 141.342 14.647, 138.858 12.322, 137.617 15.554 M 106.557 20.047 C 101.437 22.601, 98 25.877, 98 28.201 C 98 29.220, 99.688 33.278, 101.750 37.217 C 104.996 43.417, 105.500 45.280, 105.500 51.069 C 105.500 57.475, 105.745 58.153, 111.302 67.129 C 121.739 83.987, 120.958 84.241, 120.943 64 C 120.928 43.440, 119.407 33.300, 114.991 24.331 C 113.277 20.849, 111.565 18.018, 111.187 18.040 C 110.809 18.062, 108.726 18.965, 106.557 20.047 M 125.062 97 C 125.057 98.925, 125.904 102.300, 126.945 104.500 C 128.608 108.014, 128.850 108.196, 128.933 106 C 128.985 104.625, 129.258 102.600, 129.539 101.500 C 129.857 100.261, 129.104 98.358, 127.562 96.500 L 125.072 93.500 125.062 97 M 131.617 107.993 C 130.812 113.029, 132.367 114.882, 135.227 112.294 C 137.478 110.257, 137.461 110.089, 134.651 106.576 L 132.311 103.653 131.617 107.993 M 137 114.500 C 136.315 115.325, 134.554 116, 133.085 116 C 130.746 116, 130.258 116.587, 129.149 120.732 C 125.975 132.599, 119.452 135.223, 111.454 127.850 L 106.952 123.701 96.807 124.319 C 91.228 124.659, 86.308 125.292, 85.874 125.726 C 85.440 126.160, 89.382 128.708, 94.636 131.387 C 110.524 139.490, 114.843 145.379, 110.405 152.891 C 107.059 158.556, 95.519 164, 86.857 164 C 77.985 164, 74.787 160.885, 63.999 141.732 C 59.614 133.949, 53.477 126.669, 48.612 123.481 C 40.096 117.902, 35.509 131.522, 39.511 150.500 C 42.540 164.864, 50.236 175.636, 59.188 178.041 C 61.560 178.679, 65.349 180.055, 67.610 181.100 C 82.633 188.045, 115.993 175.692, 126.018 159.471 C 127.198 157.562, 128.471 156, 128.848 156 C 129.225 156, 131.076 158.588, 132.961 161.750 C 137.365 169.137, 145.582 177.891, 149.773 179.663 C 157.488 182.924, 160.539 174.994, 155.626 164.444 C 151.368 155.301, 141.107 148.853, 128.443 147.364 C 125.086 146.970, 123.072 146.283, 123.297 145.608 C 123.500 144.999, 127.430 143.719, 132.031 142.765 C 143.627 140.359, 149.374 138.309, 152.408 135.498 C 156.216 131.968, 155.878 127.978, 151.440 124.082 C 149.482 122.362, 147.481 121.203, 146.992 121.505 C 146.504 121.807, 144.618 120.034, 142.802 117.566 C 139.116 112.556, 138.767 112.371, 137 114.500" stroke="none" fill="black" fill-rule="evenodd"/>
</svg>