<svg xmlns="http://www.w3.org/2000/svg" width="200" height="200" viewBox="0 0 200 200" version="1.1">
	<path d="M 130.069 14.567 C 128.182 15.386, 124.698 17.646, 122.326 19.589 C 118.251 22.928, 117.891 23.037, 115.784 21.561 C 112.547 19.294, 105.825 19.563, 102.615 22.088 C 96.651 26.780, 95.741 33.019, 100.125 39.175 L 102.266 42.182 98.286 47.841 C 92.467 56.115, 84.729 68.566, 75.191 85 C 70.563 92.975, 67.027 98.825, 67.334 98 C 67.641 97.175, 73.317 83.089, 79.946 66.697 C 90.748 39.989, 92.887 34, 91.622 34 C 91.414 34, 89.609 34.683, 87.609 35.519 C 81.545 38.053, 63.813 39.386, 53.982 38.047 C 35.217 35.492, 25.390 42.625, 34.762 51.997 C 41.871 59.106, 54.190 59.447, 67.198 52.894 C 73.597 49.671, 74.150 49.952, 74.249 56.487 C 74.384 65.453, 68.242 69.525, 52.175 71.121 C 27.356 73.586, 24.702 73.990, 21.665 75.756 C 17.933 77.928, 16.816 82.307, 19.696 83.477 C 26.753 86.344, 36.445 89.165, 44.018 90.557 C 48.911 91.456, 53.380 92.753, 53.948 93.438 C 55.724 95.578, 49.717 103.132, 35.901 116.131 C 28.784 122.828, 22.695 129.368, 22.369 130.666 C 20.675 137.417, 29.935 137.633, 43.291 131.154 C 47.806 128.964, 51.600 127.271, 51.722 127.391 C 51.844 127.512, 50.667 130.312, 49.106 133.613 L 46.267 139.615 48.987 142.659 C 51.613 145.598, 53.746 150.563, 59.637 167.443 C 65.231 183.474, 71.955 189.503, 83.971 189.263 C 87.562 189.191, 92.975 188.268, 96 187.213 C 100.971 185.479, 102.598 185.395, 112.913 186.334 C 126.102 187.536, 146.479 186.109, 154.262 183.438 C 158.848 181.864, 162 178.949, 162 176.280 C 162 174.314, 155.590 167.718, 151.639 165.619 C 148.110 163.744, 148.046 163.748, 132.043 166.869 C 114.205 170.348, 99.352 171.030, 93.718 168.629 C 87.459 165.962, 85.627 162.814, 85.034 153.706 C 84.428 144.397, 82.658 142.715, 82.187 151 C 81.741 158.854, 82.679 162.565, 86.096 166.457 C 92.595 173.859, 107.536 174.856, 132.888 169.579 C 139.701 168.160, 146.036 167, 146.966 167 C 147.896 167, 150.738 168.378, 153.281 170.063 C 165.371 178.071, 157.386 182.730, 130 183.644 C 121.475 183.929, 111.605 183.739, 108.066 183.221 C 102.675 182.433, 100.766 182.585, 96.289 184.158 C 93.351 185.191, 88.371 186.286, 85.223 186.591 C 80.490 187.049, 78.721 186.743, 75 184.823 C 68.934 181.692, 65.314 175.958, 60.584 161.994 C 56.521 149.997, 53.725 143.593, 51.382 140.919 C 50.164 139.530, 50.671 138.839, 55.585 135.198 C 64.727 128.425, 70.207 128.384, 77.421 135.034 C 82.087 139.335, 83 139.753, 83 137.585 C 83 136.807, 80.936 134.354, 78.414 132.133 C 71.061 125.661, 63.919 125.649, 54.866 132.096 L 51.848 134.245 54.872 128.254 C 57.154 123.734, 60.517 119.836, 68.568 112.381 C 81.760 100.166, 93.297 85.052, 100.537 70.500 C 106.659 58.196, 110.205 45.159, 108.271 42.062 C 107.341 40.574, 108 39.235, 112.238 33.997 C 116.754 28.416, 117.457 27.905, 118.556 29.407 C 121.587 33.552, 122.162 43.510, 121.830 86.076 C 121.501 128.332, 121.509 128.522, 123.787 134.157 C 126.839 141.705, 130.128 146.436, 132.571 146.792 C 135.668 147.243, 138.413 143.454, 143.598 131.576 C 146.840 124.149, 149.694 119.268, 152.512 116.326 C 157.257 111.374, 159.933 110.905, 165.947 113.973 L 169.815 115.946 176.907 109.379 C 188.494 98.652, 186.697 95.755, 167.500 94.210 C 149.103 92.730, 144.488 89.772, 147.280 81.251 L 148.509 77.500 158.505 77.439 C 172.524 77.353, 179 73.901, 179 66.516 C 179 57.427, 167.308 50.313, 156.133 52.602 L 151.224 53.608 150.740 41.054 C 150.173 26.352, 148.445 20.476, 143.381 16.030 C 139.480 12.604, 135.580 12.176, 130.069 14.567 M 127.845 18.979 C 119.963 24.200, 119.708 24.740, 122.146 31.055 C 124.180 36.323, 124.242 37.942, 124.064 80.814 C 123.887 123.184, 123.970 125.399, 125.943 131.314 C 128.393 138.660, 131.472 144, 133.258 144 C 134.686 144, 135.885 141.871, 142.266 127.991 C 149.680 111.866, 155.756 107.108, 164.613 110.490 C 168.765 112.076, 169.232 112.078, 171.598 110.528 C 174.906 108.360, 182 101.253, 182 100.107 C 182 98.580, 179.130 97.991, 166.761 96.980 C 153.960 95.935, 147.005 93.746, 145.086 90.160 C 143.513 87.221, 143.753 81.585, 145.619 77.674 L 147.237 74.279 157.869 74.390 C 166.906 74.483, 169.025 74.193, 172 72.451 C 174.794 70.815, 175.560 69.695, 175.799 66.898 C 176.604 57.448, 162.580 51.831, 151.141 57.022 C 145.679 59.500, 145.834 59.530, 147.170 56.250 C 147.786 54.737, 148.289 49, 148.289 43.500 C 148.287 20.011, 140.461 10.623, 127.845 18.979 M 106.388 22.959 C 103.305 24.236, 100 28.868, 100 31.912 C 100 34.535, 102.430 39, 103.857 39 C 104.266 39, 107.155 35.896, 110.276 32.102 C 114.569 26.884, 115.651 24.955, 114.720 24.182 C 112.807 22.595, 108.717 21.994, 106.388 22.959 M 80.500 40.063 C 76.915 40.809, 67.161 40.970, 45.260 40.644 C 39.039 40.552, 37.708 40.848, 35.809 42.747 C 33.992 44.564, 33.768 45.433, 34.549 47.634 C 36.054 51.870, 42.183 54.500, 50.553 54.500 C 56.789 54.500, 58.524 54.037, 65.553 50.500 C 69.924 48.300, 73.786 46.367, 74.136 46.205 C 75.266 45.680, 77 52.165, 76.996 56.899 C 76.991 62.802, 74.250 67.322, 69.072 69.963 C 63.666 72.721, 58.024 73.758, 41.648 75.004 C 28.529 76.003, 21 77.761, 21 79.826 C 21 81.476, 30.208 84.732, 42.388 87.390 C 48.926 88.817, 54.889 90.493, 55.638 91.114 C 56.387 91.736, 57 93.471, 57 94.970 C 57 98.341, 47.235 110.084, 37.930 117.902 C 30.410 124.221, 25.036 129.983, 25.015 131.750 C 24.971 135.430, 38.703 131.577, 48.731 125.096 L 54.670 121.257 64.752 96.878 C 72.826 77.353, 80.600 58.186, 87.718 40.250 C 88.275 38.847, 86.553 38.803, 80.500 40.063 M 100.855 49 C 92.700 60.412, 79.446 82.474, 66.912 105.500 L 62.557 113.500 66.736 110.199 C 84.736 95.984, 107.333 58.438, 105.818 45.262 C 105.518 42.655, 105.239 42.865, 100.855 49" stroke="none" fill="black" fill-rule="evenodd"/>
</svg>