<svg xmlns="http://www.w3.org/2000/svg" width="200" height="200" viewBox="0 0 200 200" version="1.1">
	<path d="M 135.917 10.393 C 135.688 10.609, 122.225 11.512, 106 12.399 C 62.814 14.761, 64.708 14.505, 63.060 18.227 C 61.145 22.553, 62.898 25.399, 70.708 30.650 C 76.806 34.750, 82.709 37.118, 90.500 38.589 L 94.500 39.345 89 40.173 C 85.777 40.658, 77.830 40.547, 69.804 39.905 C 53.166 38.574, 49.592 39.339, 47.345 44.717 C 46.331 47.144, 46.084 49.820, 46.538 53.454 C 47.551 61.562, 47.341 61.463, 58.614 59.135 C 71.702 56.432, 82 55.399, 82 56.789 C 82 58.873, 74.454 64.011, 56.599 74.083 C 46.645 79.698, 37.375 84.991, 36 85.844 L 33.500 87.395 37.500 88.276 C 45.924 90.133, 60.528 88.484, 76.500 83.873 C 90.428 79.853, 92.357 79.542, 103.500 79.522 C 114.858 79.501, 115.821 79.661, 121.488 82.500 C 124.781 84.150, 127.818 85.650, 128.238 85.833 C 128.657 86.017, 129 85.537, 129 84.767 C 129 82.901, 122.880 79.578, 115.533 77.456 C 106.615 74.880, 94.939 75.936, 77.054 80.938 C 61.153 85.385, 47.732 87.577, 44.264 86.293 C 42.310 85.570, 43.382 84.719, 52.764 79.543 C 82.419 63.184, 89.820 56.783, 82.360 53.947 C 79.478 52.851, 68.351 54.033, 57.132 56.626 C 53.630 57.436, 50.565 57.898, 50.321 57.654 C 50.077 57.410, 49.641 54.801, 49.353 51.855 C 48.424 42.375, 48.092 42.500, 74.171 42.500 C 94.900 42.500, 96.894 42.341, 102 40.285 C 106.425 38.503, 108.477 38.214, 112.500 38.803 L 117.500 39.536 117.500 51.018 C 117.500 63.898, 118.538 67.021, 124.277 71.398 C 127.796 74.082, 135.700 77.942, 137.750 77.978 C 140.610 78.028, 138.709 75.229, 135.161 74.166 C 129.918 72.596, 123.418 67.709, 121.412 63.830 C 120.043 61.182, 119.864 58.860, 120.390 50.560 C 120.741 45.027, 120.669 39.957, 120.231 39.293 C 119.794 38.630, 117.964 37.468, 116.165 36.711 L 112.894 35.336 117.197 32.506 C 119.564 30.949, 124.762 26.523, 128.749 22.670 C 132.736 18.817, 136.262 15.929, 136.585 16.252 C 137.743 17.409, 141.914 35.709, 143.480 46.500 C 144.448 53.171, 144.962 62.208, 144.788 69.462 L 144.500 81.425 141.088 83.722 C 132.278 89.653, 115.637 91.854, 71.500 92.926 C 49.872 93.451, 36.408 94.177, 34.500 94.921 C 24.890 98.667, 29.935 105.276, 47.144 111.484 C 55.540 114.513, 66.553 117, 71.565 117 C 73.454 117, 75 117.205, 75 117.456 C 75 117.706, 73.907 119.521, 72.572 121.489 C 67.424 129.075, 68.405 135.636, 75.208 139.106 C 82.070 142.607, 93.651 143.484, 116.721 142.252 C 138.719 141.076, 138.952 141.112, 138.985 145.636 C 138.995 147.097, 137.907 148.291, 135.545 149.412 C 128.263 152.867, 121.182 153.502, 91.872 153.325 L 63.245 153.152 64.099 156.826 C 64.568 158.847, 64.963 160.836, 64.976 161.247 C 64.989 161.658, 66.625 163.793, 68.611 165.991 C 75.214 173.300, 84.908 174.502, 109 171 C 125.286 168.633, 135.053 168.459, 138.938 170.468 C 140.911 171.488, 142.330 173.476, 143.593 176.989 C 150.645 196.598, 162.924 191.679, 170.216 166.323 C 172.063 159.899, 172.468 155.997, 172.483 144.500 C 172.498 132.149, 172.258 130.088, 170.442 127 L 168.383 123.500 138.442 123.500 C 114.891 123.500, 107.925 123.204, 105.805 122.115 C 100.708 119.494, 101.288 116.559, 108.357 109.217 C 113.131 104.259, 119.297 102, 128.056 102 C 135.442 102, 140.769 103.947, 150.058 110.041 C 157.781 115.108, 159.773 115.727, 162.925 114.040 C 165.518 112.653, 168.807 104.317, 171.547 92.192 C 173.481 83.634, 173.742 80.853, 172.923 77.563 C 172.255 74.880, 172.228 68.194, 172.843 57.873 C 174.763 25.634, 170.677 14.054, 156.292 10.969 C 152.790 10.218, 149.513 10.184, 145.845 10.860 C 142.578 11.463, 140.131 11.487, 139.550 10.923 C 138.574 9.975, 136.657 9.695, 135.917 10.393 M 144 13.721 C 142.625 13.968, 141.137 14.517, 140.692 14.942 C 140.248 15.367, 140.784 19.267, 141.882 23.608 C 145.533 38.033, 147.122 49.348, 147.624 64.500 C 148.204 82.025, 147.835 83.200, 140.475 87.213 C 130.128 92.856, 114.880 94.707, 69 95.892 C 50.065 96.380, 36.411 97.150, 34.769 97.820 C 30.503 99.563, 32.341 101.821, 41.534 106.129 C 51.887 110.981, 65.194 114.203, 73.615 113.898 C 77.127 113.771, 80.264 113.931, 80.587 114.253 C 80.909 114.576, 79.371 117.119, 77.169 119.905 C 70.219 128.698, 70.425 133.966, 77.849 137.270 C 83.698 139.874, 101.553 140.619, 123.500 139.175 C 138.243 138.205, 138.530 138.225, 140.228 140.344 C 142.622 143.332, 142.423 147.255, 139.750 149.759 C 134.256 154.906, 124.411 156.231, 92.640 156.099 L 66.781 155.991 67.460 158.745 C 68.423 162.653, 73.461 167.522, 77.926 168.860 C 83.645 170.573, 95.195 170.241, 111.170 167.903 C 127.885 165.456, 136.710 165.667, 140.739 168.610 C 142.258 169.719, 144.869 173.466, 146.543 176.936 C 148.216 180.407, 150.618 184.082, 151.880 185.104 C 153.963 186.791, 154.436 186.826, 157.020 185.490 C 164.814 181.459, 172.634 151.872, 170.086 136.052 C 168.423 125.725, 168.154 125.536, 155.916 126.057 C 150.187 126.300, 137.383 126.500, 127.463 126.500 C 112.057 126.500, 108.829 126.230, 105.328 124.650 C 98.027 121.354, 97.803 116.660, 104.587 109.115 C 110.226 102.843, 115.958 100.055, 124.725 99.320 C 133.825 98.557, 140.543 100.564, 150.377 106.983 C 154.604 109.742, 158.939 112, 160.011 112 C 162.642 112, 165.193 106.655, 167.885 95.500 C 169.730 87.858, 170.117 82.803, 170.453 62 C 170.878 35.696, 170.132 27.682, 166.677 21.446 C 162.934 14.688, 154.542 11.830, 144 13.721 M 101.500 15.414 L 83.500 16.500 90.736 17.757 C 100.243 19.409, 106.973 21.716, 109.750 24.275 C 112.510 26.819, 112.535 27.504, 109.986 30.745 C 104.287 37.990, 115.351 31.663, 125.363 21.951 L 133.500 14.058 126.500 14.193 C 122.650 14.267, 111.400 14.816, 101.500 15.414 M 77 19.703 C 77.825 20.003, 84.529 22.972, 91.899 26.300 L 105.297 32.351 107.149 30.065 C 108.167 28.807, 109 27.434, 109 27.012 C 109 25.419, 98.884 21.990, 89.869 20.528 C 80.662 19.034, 73.984 18.607, 77 19.703 M 65 21.411 C 65 22.187, 66.389 23.991, 68.088 25.420 C 76.804 32.754, 89.393 37.081, 97.059 35.378 L 101.500 34.391 92.500 29.822 C 82.775 24.885, 70.062 20, 66.940 20 C 65.873 20, 65 20.635, 65 21.411" stroke="none" fill="black" fill-rule="evenodd"/>
</svg>