<svg xmlns="http://www.w3.org/2000/svg" width="200" height="200" viewBox="0 0 200 200" version="1.1">
	<path d="M 113.823 11.664 C 113.645 12.580, 114.030 19.442, 114.678 26.914 C 115.325 34.386, 116.131 49.275, 116.468 60 L 117.080 79.500 110.641 66.967 L 104.203 54.435 106.223 48.273 C 109.755 37.499, 106.795 31.450, 96.529 28.466 C 92.260 27.224, 90.195 27.073, 88.179 27.852 C 83.870 29.519, 66.033 31.087, 44.250 31.715 C 33.112 32.036, 24 32.500, 24 32.745 C 24 34.581, 27.999 39.161, 31.858 41.745 C 37.561 45.564, 46.160 48.225, 60.250 50.533 C 66.162 51.501, 71 52.641, 71 53.066 C 71 53.491, 68.862 54.523, 66.250 55.359 C 53.754 59.358, 46.700 60.848, 37.500 61.432 C 24.465 62.259, 20 63.448, 20 66.090 C 20 68.709, 23.822 70.279, 40.976 74.705 C 48.414 76.625, 54.609 78.298, 54.742 78.423 C 54.875 78.548, 51.275 81.176, 46.742 84.263 C 35.442 91.958, 27.816 98.986, 24.994 104.304 C 22.739 108.557, 22.704 108.899, 24.287 111.315 C 26.260 114.326, 28.613 114.811, 36 113.728 C 42.237 112.813, 51.318 108.860, 58.886 103.763 C 70.895 95.675, 91.624 74.132, 99.391 61.667 L 102.402 56.834 109.759 71.667 L 117.116 86.500 116.480 94.500 C 115.670 104.700, 114.229 111.560, 111.950 116.067 C 107.736 124.400, 103.561 124.417, 86.285 116.169 C 66.550 106.747, 60.723 106.265, 52.426 113.367 C 49.718 115.686, 46.666 117.135, 42.806 117.936 C 36.164 119.315, 34.346 120.910, 35.967 123.937 C 37.236 126.309, 42.441 129.099, 56.540 134.964 C 62.018 137.243, 66.950 139.589, 67.500 140.178 C 68.209 140.937, 64.388 141.056, 54.351 140.585 C 40.576 139.940, 40.132 139.983, 37.549 142.211 C 28.430 150.077, 36.453 173.023, 51.756 182.843 C 58.813 187.372, 65.394 188.527, 73.012 186.575 C 76.377 185.713, 81.013 183.932, 83.315 182.617 C 85.617 181.302, 89.975 179.438, 93 178.476 C 101.596 175.741, 106.174 173.141, 105.801 171.205 C 105.242 168.305, 100.976 167.162, 84.610 165.527 C 75.894 164.656, 67.804 163.430, 66.631 162.802 C 64.654 161.743, 64.935 161.456, 70.500 158.833 C 73.800 157.278, 77.055 156.005, 77.733 156.003 C 78.411 156.001, 80.064 153.834, 81.405 151.187 C 85.526 143.054, 94.486 136.150, 104.203 133.619 C 111.356 131.756, 116.535 132.817, 120.188 136.894 C 124.039 141.191, 124.988 145.813, 124.994 160.307 C 125.001 175.291, 126.210 181.233, 129.832 184.082 C 134.828 188.013, 141.568 183.466, 146.808 172.629 C 153.350 159.100, 154.094 146.456, 149.129 133.210 C 143.572 118.388, 141.143 114, 138.495 114 C 137.033 114, 135.350 112.896, 134.068 111.096 C 131.447 107.415, 131.475 107, 134.343 107 C 138.311 107, 146.813 103.585, 163.580 95.258 C 172.425 90.866, 181.987 86.676, 184.830 85.947 C 190.218 84.566, 191.645 82.408, 187.750 81.531 C 186.512 81.253, 180.325 79.888, 174 78.498 C 161.163 75.677, 153 73.201, 153 72.127 C 153 71.736, 156.871 69.672, 161.601 67.541 C 171.480 63.092, 179.702 56.205, 182.475 50.055 C 183.486 47.814, 184.109 45.776, 183.860 45.526 C 183.611 45.277, 181.219 45.732, 178.544 46.537 C 172.394 48.388, 164.695 48.413, 161.200 46.595 C 157.192 44.510, 154.611 41.290, 150.702 33.500 C 143.031 18.212, 136.614 13.145, 123.750 12.218 C 120.037 11.950, 117 11.342, 117 10.866 C 117 9.265, 114.150 9.982, 113.823 11.664 M 117 15.761 C 117 16.327, 118.559 24.600, 120.464 34.145 C 124.805 55.890, 126.309 71.382, 125.426 85.256 C 124.754 95.825, 124.789 96.083, 127.471 100.135 L 130.200 104.259 135.721 103.689 C 139.963 103.252, 145.787 100.903, 160.871 93.550 C 171.667 88.287, 181.175 83.956, 182 83.926 C 182.825 83.896, 176.619 82.140, 168.209 80.024 C 159.799 77.908, 152.262 75.632, 151.459 74.966 C 148.012 72.106, 149.760 70.143, 160.250 65.089 C 169.920 60.432, 176.726 55.249, 179.170 50.682 C 180.067 49.007, 179.967 48.799, 178.531 49.350 C 174.687 50.825, 166.119 51.194, 162.609 50.036 C 156.753 48.103, 153.320 44.437, 148.343 34.800 C 142.704 23.882, 140.025 20.564, 134.624 17.806 C 130.102 15.497, 117 13.976, 117 15.761 M 75.500 32.549 C 69.450 33.238, 56.513 34.142, 46.750 34.557 C 36.987 34.972, 29 35.632, 29 36.023 C 29 37.404, 36.921 41.952, 42.674 43.874 C 45.878 44.944, 54.097 46.749, 60.938 47.884 C 74.554 50.143, 78.129 51.915, 74.500 54.605 C 73.400 55.420, 67.550 57.679, 61.500 59.625 C 53.102 62.326, 47.662 63.385, 38.500 64.100 C 24.898 65.163, 21.867 65.786, 24.134 67.055 C 24.937 67.504, 31.943 69.471, 39.704 71.425 C 56.459 75.645, 59.001 76.541, 58.998 78.225 C 58.997 78.926, 54.770 82.302, 49.605 85.726 C 38.292 93.226, 30.099 100.534, 27.454 105.485 C 25.520 109.104, 25.520 109.156, 27.441 110.571 C 29.891 112.375, 31.193 112.361, 38.540 110.451 C 50.773 107.271, 64.238 97.914, 78.954 82.367 C 87.331 73.518, 93.913 65.339, 98.347 58.269 L 101.001 54.038 95.751 42.547 C 91.510 33.267, 90.115 31.079, 88.500 31.176 C 87.400 31.242, 81.550 31.860, 75.500 32.549 M 94.050 32.250 C 94.078 32.938, 96.033 37.287, 98.395 41.916 L 102.689 50.331 103.844 47.016 C 105.276 42.911, 105.326 38.478, 103.970 35.945 C 102.085 32.422, 93.935 29.387, 94.050 32.250 M 119.737 64.500 C 120.261 86.244, 121.070 92.553, 122.570 86.577 C 123.556 82.650, 122.225 58.149, 120.557 49.500 C 119.304 43.007, 119.245 44.092, 119.737 64.500 M 118.983 96.750 C 118.957 102.306, 116.432 113.233, 114.132 117.741 C 109.293 127.226, 103.315 127.391, 85.096 118.546 C 77.784 114.997, 69.856 111.801, 67.476 111.444 C 61.777 110.590, 56.798 112.327, 53.198 116.427 C 50.793 119.167, 49.332 119.853, 44.664 120.436 C 34.501 121.706, 36.050 123.280, 55.624 131.571 C 77.793 140.961, 77.672 143.629, 55.092 143.254 C 41.727 143.032, 40.139 143.189, 38.608 144.880 C 35.816 147.966, 35.608 152.900, 37.975 159.926 C 42.013 171.911, 50.273 180.861, 59.875 183.652 C 66.932 185.703, 72.268 184.930, 80.770 180.625 C 84.472 178.750, 88.850 176.907, 90.500 176.528 C 95.591 175.358, 103.151 171.751, 102.299 170.899 C 101.855 170.455, 94.743 169.382, 86.496 168.516 C 69.782 166.762, 64.825 165.699, 62.978 163.474 C 61.156 161.278, 63.814 158.735, 71.371 155.443 C 76.632 153.151, 77.962 152.023, 80.263 147.900 C 85.945 137.725, 100.438 129.460, 111.263 130.223 C 118.320 130.721, 121.578 132.940, 124.994 139.576 C 127.291 144.038, 127.542 145.828, 128 161.019 C 128.410 174.626, 128.818 178.078, 130.273 180.297 C 132.492 183.679, 134.023 183.693, 137.976 180.367 C 144.747 174.669, 150.649 157.657, 149.682 146.623 C 149.361 142.960, 147.398 136.294, 144.472 128.929 C 140.327 118.497, 139.478 117.075, 137.231 116.806 C 135.322 116.576, 133.331 114.521, 129.268 108.584 C 126.289 104.230, 123.161 98.943, 122.317 96.834 C 120.370 91.968, 119.005 91.933, 118.983 96.750" stroke="none" fill="black" fill-rule="evenodd"/>
</svg>