<svg xmlns="http://www.w3.org/2000/svg" width="200" height="200" viewBox="0 0 200 200" version="1.1">
	<path d="M 121.409 10.149 C 116.959 10.530, 103.234 12.852, 90.909 15.308 C 73.291 18.819, 67.105 19.669, 61.974 19.285 C 55.675 18.813, 55.397 18.891, 53.988 21.523 C 52.567 24.179, 52.648 24.357, 57.094 28.375 C 59.605 30.644, 65.513 35.238, 70.225 38.584 L 78.790 44.669 65.145 45.796 C 49.737 47.068, 41.859 49.050, 38.380 52.529 C 33.987 56.922, 35.011 57.661, 46.563 58.435 C 82.033 60.811, 83.633 71.491, 52.030 94.934 C 41.943 102.417, 33 111.899, 33 115.112 C 33 120.458, 39.832 118.381, 67.900 104.503 C 79.583 98.726, 89.560 94, 90.071 94 C 92.107 94, 90.823 99.961, 86.913 108.652 L 82.796 117.805 67.148 117.300 C 54.530 116.893, 51.137 117.073, 49.623 118.227 C 48.113 119.379, 47.959 120.054, 48.833 121.688 C 50.132 124.114, 51.709 125.184, 64.033 131.990 C 79.708 140.648, 80.060 141.958, 66.718 141.985 C 53.177 142.011, 48.491 145.457, 48.516 155.368 C 48.544 166.629, 57.267 179.458, 69.089 185.627 C 73.602 187.981, 75.745 188.454, 82 188.475 C 88.400 188.496, 90.253 188.083, 94.630 185.656 C 97.451 184.093, 101.868 180.673, 104.444 178.056 L 109.130 173.300 99.041 169.515 C 93.492 167.434, 88.737 165.384, 88.476 164.960 C 88.214 164.537, 89.637 162.235, 91.638 159.845 C 97.042 153.392, 100.062 148.301, 103.116 140.500 C 105.719 133.849, 105.905 133.630, 106.851 136.114 C 107.399 137.551, 109.270 145.426, 111.009 153.614 C 116.029 177.245, 120.982 185.161, 132.931 188.658 C 139.346 190.535, 146.552 190.029, 158.216 186.881 C 164.283 185.244, 166.468 184.152, 168.012 181.983 C 173.645 174.073, 168.416 169.363, 149.052 164.905 C 144.073 163.759, 140 162.648, 140 162.436 C 140 160.659, 167.876 152.620, 186.750 148.954 C 190.313 148.262, 193 147.219, 193 146.527 C 193 145.632, 186.959 145.134, 169.913 144.626 C 146.134 143.917, 138 143.252, 138 142.017 C 138 141.626, 143.063 139.390, 149.250 137.050 C 164.014 131.465, 168.224 128.776, 167.811 125.195 C 167.462 122.168, 165.361 120.893, 152.674 116.011 C 142.583 112.128, 134.604 111.991, 122.863 115.499 C 104.663 120.937, 101.113 121.573, 98.173 119.928 C 95.019 118.163, 93.135 113.328, 93.056 106.797 C 93 102.126, 94.598 97, 96.110 97 C 96.545 97, 101.085 98.816, 106.200 101.035 C 121.997 107.888, 128 109.051, 128 105.258 C 128 104.418, 125.120 99.853, 121.601 95.115 C 110.393 80.026, 107.817 73.767, 110.335 67.740 C 111.841 64.137, 117.272 59, 119.577 59 C 120.360 59, 121 58.276, 121 57.392 C 121 56.178, 120.390 55.936, 118.517 56.406 L 116.035 57.029 119.127 51.785 C 120.828 48.900, 124.758 42.814, 127.860 38.260 L 133.500 29.979 134.185 35.948 C 135.054 43.523, 137.648 49.310, 142.706 54.959 L 146.699 59.419 143.814 65.583 C 136.960 80.231, 138.525 95.986, 147.629 103.979 C 152.123 107.925, 155.390 108.661, 159.568 106.669 C 164.937 104.108, 167.245 98.421, 167.750 86.500 C 167.983 81, 167.738 73.816, 167.205 70.535 C 166.400 65.585, 166.510 64.151, 167.849 62.108 C 169.949 58.902, 170.656 41.652, 169.070 32.301 C 167.662 24, 163.849 15.787, 160.336 13.484 C 156.282 10.828, 148.935 11.914, 143.971 15.903 C 140.036 19.065, 140 19.073, 140 16.738 C 140 10.822, 134.849 8.996, 121.409 10.149 M 118.500 13.105 C 103.745 15.224, 78.911 20.471, 80.645 21.104 C 81.665 21.477, 85.973 22.541, 90.217 23.468 C 103.283 26.324, 108.001 31.314, 102.477 36.434 L 99.819 38.897 103.159 40.289 C 104.997 41.055, 108.862 42.464, 111.750 43.421 C 114.638 44.378, 117 45.500, 117 45.914 C 117 47.604, 115.630 47.781, 112.122 46.543 C 106.219 44.460, 104.667 46.449, 101.130 60.622 C 97.710 74.328, 94.680 89.014, 95.172 89.505 C 95.358 89.691, 98.422 84.141, 101.981 77.172 C 111.022 59.470, 121.292 42.415, 129.389 31.654 C 134.705 24.590, 136.389 21.535, 136.766 18.274 C 137.213 14.407, 137.026 13.960, 134.562 13.024 C 131.482 11.852, 127.071 11.875, 118.500 13.105 M 149.500 15.897 C 147.300 16.917, 143.702 19.329, 141.505 21.257 L 137.509 24.763 137.506 33.632 C 137.502 43.810, 138.572 46.490, 145.664 54.072 L 150.115 58.830 147.195 64.665 C 141.460 76.128, 140.654 87.480, 144.974 95.948 C 147.427 100.756, 152.419 105, 155.622 105 C 158.899 105, 162.582 101.169, 163.912 96.378 C 165.268 91.493, 165.319 74.956, 163.999 67.997 C 163.129 63.406, 163.226 62.555, 164.749 61.443 C 166.214 60.374, 166.555 58.190, 166.834 48.086 C 167.321 30.430, 164.115 18.662, 157.947 15.473 C 154.405 13.641, 154.365 13.643, 149.500 15.897 M 63 23.230 C 63.275 23.509, 70.769 26.756, 79.653 30.445 C 95.567 37.053, 95.851 37.129, 98.903 35.550 C 105.092 32.350, 101.975 29.202, 89.456 26.013 C 82.211 24.168, 61.811 22.021, 63 23.230 M 58.966 26.459 C 61.220 29.175, 79.560 42, 81.190 42 C 81.989 42, 84.815 41.260, 87.469 40.356 L 92.293 38.712 77.397 32.473 C 69.204 29.041, 61.379 25.891, 60.008 25.473 C 57.721 24.774, 57.635 24.856, 58.966 26.459 M 89.500 42.611 L 83.500 44.881 92.691 44.941 C 97.808 44.974, 102.156 44.557, 102.500 44 C 102.840 43.450, 102.921 43, 102.681 43 C 102.441 43, 100.727 42.402, 98.872 41.670 C 95.859 40.482, 94.862 40.582, 89.500 42.611 M 57.168 49.177 C 49.137 50.184, 40.749 52.925, 40.880 54.500 C 40.925 55.050, 45.162 55.781, 50.295 56.125 C 79.152 58.057, 85.270 69.842, 66.275 86.909 C 62.549 90.257, 56.386 95.135, 52.580 97.748 C 45.763 102.429, 35.110 113.443, 36.274 114.607 C 37.444 115.777, 47.289 111.694, 68.063 101.422 C 79.656 95.690, 89.723 91, 90.434 91 C 91.262 91, 92.342 87.853, 93.438 82.250 C 94.380 77.438, 96.466 68.239, 98.075 61.808 C 99.684 55.378, 101 49.641, 101 49.058 C 101 47.745, 67.878 47.835, 57.168 49.177 M 101.647 84.025 C 99.115 89.205, 97.371 93.748, 97.772 94.122 C 99.788 95.999, 123.966 105.367, 124.756 104.577 C 124.992 104.341, 122.146 100.178, 118.432 95.324 C 114.718 90.471, 110.458 83.824, 108.965 80.554 L 106.251 74.607 101.647 84.025 M 86.960 115.250 C 85.651 118.138, 84.514 120.623, 84.434 120.772 C 84.354 120.922, 78.711 120.637, 71.894 120.139 C 65.077 119.641, 57.475 119.537, 55 119.908 L 50.500 120.583 56 124.152 C 59.025 126.116, 63.525 128.746, 66 129.998 C 72.627 133.349, 78.668 137.692, 79.416 139.643 C 80.723 143.048, 77.637 144.304, 66.461 144.917 C 56.260 145.476, 55.724 145.619, 53.304 148.432 C 46.409 156.449, 55.868 175.781, 70.189 182.936 C 78.045 186.862, 85.205 187.074, 92.500 183.597 C 97.126 181.393, 104.710 175.356, 103.867 174.549 C 103.665 174.357, 99.785 172.771, 95.245 171.025 C 90.705 169.279, 86.564 167.054, 86.042 166.079 C 85.068 164.258, 85.891 162.753, 92.177 154.861 C 95.765 150.358, 100.425 140.801, 102.472 133.750 C 103.391 130.588, 104.329 128, 104.557 128 C 104.785 128, 106.117 129.731, 107.517 131.847 C 109.344 134.607, 111.035 140.307, 113.508 152.039 C 117.351 170.269, 120.300 177.450, 125.814 182.004 C 130.679 186.023, 135.976 187.351, 144.500 186.687 C 155.012 185.870, 164.657 182.565, 166.407 179.181 C 168.982 174.200, 165.505 171.792, 150.278 168.013 C 139.499 165.337, 137 164.333, 137 162.680 C 137 159.266, 145.195 155.967, 166 151.004 C 171.225 149.758, 175.928 148.347, 176.450 147.869 C 176.992 147.373, 171.196 146.997, 162.950 146.992 C 148.316 146.985, 136.307 145.684, 134.522 143.914 C 133.886 143.283, 133.923 142.345, 134.629 141.227 C 135.690 139.544, 139.387 137.815, 153.500 132.400 C 157.350 130.922, 161.776 128.820, 163.335 127.728 C 166.988 125.170, 165.924 124.039, 156.500 120.468 C 139.634 114.076, 137.739 114.026, 119 119.490 C 104.217 123.800, 102.125 124.177, 98.500 123.184 C 94.897 122.197, 91 116.829, 91 112.852 C 91 108.573, 89.617 109.394, 86.960 115.250" stroke="none" fill="black" fill-rule="evenodd"/>
</svg>