<svg xmlns="http://www.w3.org/2000/svg" width="200" height="200" viewBox="0 0 200 200" version="1.1">
	<path d="M 106 11.675 C 104.625 11.897, 96.869 13.186, 88.763 14.539 C 80.658 15.893, 72.108 17.006, 69.763 17.014 C 62.484 17.037, 61.014 17.787, 61.420 21.269 C 61.617 22.961, 62.828 25.158, 64.138 26.199 C 67.270 28.687, 86.171 40, 87.196 40 C 87.638 40, 88 40.388, 88 40.863 C 88 41.338, 83.838 41.721, 78.750 41.714 C 62.723 41.693, 44 44.969, 44 47.794 C 44 50.244, 49.012 52.261, 64.526 56.055 C 73.862 58.338, 82.130 60.553, 82.899 60.976 C 83.878 61.515, 83.128 62.126, 80.399 63.012 C 74.720 64.855, 61.491 71.606, 54 76.484 C 42.627 83.890, 40.460 88.016, 46.438 90.881 C 48.958 92.089, 50.691 92.058, 59.264 90.651 C 68.386 89.153, 83.938 84.533, 93.382 80.515 C 96.063 79.374, 96.942 78.542, 96.225 77.825 C 95.508 77.108, 93.227 77.566, 88.844 79.305 C 70.680 86.512, 48.387 91.053, 46.461 87.937 C 45.630 86.593, 48.327 83.576, 53.632 79.917 C 59.477 75.885, 77.924 66.362, 81.494 65.534 C 87.897 64.049, 88.823 60.660, 83.442 58.411 C 81.485 57.594, 73.325 55.355, 65.309 53.437 C 50.077 49.793, 47.023 48.722, 48.776 47.638 C 50.474 46.589, 74.928 44.112, 83 44.173 C 88.634 44.215, 92.615 43.532, 99 41.430 C 103.675 39.891, 108.175 38.752, 109 38.900 C 109.825 39.047, 113.561 40.856, 117.303 42.919 L 124.105 46.670 120.647 49.039 C 114 53.594, 112.173 60.492, 115.967 66.714 C 117.045 68.481, 120.531 72.531, 123.713 75.714 L 129.500 81.500 124.123 81.807 C 121.165 81.975, 115.090 81.668, 110.623 81.123 C 105.697 80.523, 102.133 80.494, 101.567 81.050 C 101.053 81.554, 100.858 82.192, 101.134 82.467 C 102.121 83.454, 125.559 85.333, 128.293 84.644 C 133.201 83.407, 132.648 81.415, 125.230 73.605 C 114.014 61.798, 113.710 55.916, 124.022 50.229 C 126.744 48.728, 128.978 47.230, 128.986 46.900 C 128.994 46.570, 125.140 44.133, 120.421 41.485 L 111.843 36.670 125.141 31.333 C 132.456 28.397, 139.245 25.739, 140.230 25.427 C 141.896 24.898, 142.009 25.815, 141.859 38.679 C 141.680 53.957, 142.554 58.626, 147.121 66.809 L 150.084 72.118 146.494 77.008 C 142.380 82.612, 133.218 89.119, 126.263 91.376 C 118.121 94.018, 109.336 94.871, 84.500 95.428 C 60.907 95.958, 37.830 97.974, 32.604 99.961 C 28.886 101.374, 28.170 103.909, 30.870 106.096 C 32.082 107.077, 40.820 110.385, 50.287 113.447 C 73.237 120.869, 77.859 123.803, 71.225 126.740 C 55.322 133.780, 69.712 179.614, 90.293 187.474 C 93.664 188.761, 96.367 189.035, 101.141 188.572 C 108.020 187.904, 108.533 187.898, 128.250 188.254 C 143.164 188.524, 153.054 186.779, 163.591 182.020 C 170.605 178.853, 172.047 176.603, 169.012 173.567 C 167.132 171.685, 165.760 171.501, 153.723 171.506 C 146.450 171.509, 134.425 171.669, 127 171.862 C 108.827 172.334, 103.679 170.937, 111.750 167.724 C 121.577 163.813, 143.227 162.503, 156.942 164.989 C 164.039 166.276, 164.969 165.714, 167.118 158.841 C 170.763 147.183, 162.566 144.632, 130.663 147.498 C 109.844 149.368, 103.639 149.062, 104.215 146.193 C 104.512 144.711, 105.795 144.542, 114.527 144.834 C 130.396 145.365, 151.774 142.436, 161.580 138.387 C 167.743 135.842, 168.529 131.915, 163.276 129.911 C 159.136 128.332, 140.585 127.075, 136.260 128.081 C 120.278 131.797, 108.508 130.942, 104.679 125.786 C 102.693 123.112, 102.691 123.012, 104.532 118.929 C 108.370 110.419, 119.911 104.581, 133 104.529 C 143.860 104.487, 145.228 105.082, 148.030 111.064 C 150.583 116.515, 155.034 121, 157.890 121 C 162.949 121, 167.901 110.525, 170.653 94 C 172.389 83.576, 172.756 57.470, 171.236 52.500 C 170.553 50.266, 170.803 48.096, 172.216 44 C 173.260 40.975, 174.344 35.575, 174.625 32 C 175.599 19.599, 169.439 15.287, 155 18.262 C 150.875 19.112, 146.713 20.124, 145.750 20.511 C 144.575 20.983, 144 20.748, 144 19.794 C 144 17.605, 138.740 13.072, 134.931 11.980 C 131.667 11.044, 111.250 10.829, 106 11.675 M 110 14.041 C 99.012 15.374, 82.803 18.134, 80.500 19.065 C 78.844 19.734, 79.044 19.884, 81.662 19.937 C 86.874 20.041, 99.740 22.783, 103.589 24.609 C 107.967 26.687, 109.684 29.854, 108.068 32.874 C 107.442 34.043, 107.283 35.008, 107.715 35.019 C 108.147 35.029, 115.995 32.031, 125.155 28.357 C 141.313 21.877, 141.779 21.609, 140.767 19.387 C 140.193 18.127, 138.228 16.387, 136.401 15.520 C 132.236 13.544, 119.829 12.849, 110 14.041 M 152.009 21.554 C 148.989 22.395, 146.143 23.457, 145.685 23.915 C 145.226 24.374, 144.795 31.442, 144.725 39.624 C 144.589 55.715, 145.380 59.413, 150.671 67.428 C 153.237 71.315, 153.245 71.389, 151.477 74.673 C 148.584 80.044, 138.609 88.821, 131.788 91.998 C 122.474 96.336, 110.756 98, 89.530 98 C 62.565 98, 30.865 101.355, 32.521 104.034 C 32.841 104.551, 39.717 107.069, 47.801 109.629 C 71.022 116.983, 77 120.055, 77 124.635 C 77 126.335, 75.939 127.501, 73.048 128.975 C 70.006 130.527, 68.856 131.856, 68.054 134.746 C 65.737 143.086, 67.602 153.527, 73.602 165.815 C 80.828 180.614, 93.234 189.006, 103.343 185.932 C 105.629 185.237, 109.750 184.843, 112.500 185.055 C 124.610 185.992, 143.703 185.270, 150.500 183.617 C 158.412 181.693, 168 177.599, 168 176.143 C 168 174.248, 159.557 173.814, 136.589 174.529 C 112.385 175.282, 106.871 174.713, 105.571 171.325 C 103.443 165.779, 118.867 160.995, 138.838 161.006 C 144.702 161.009, 152.191 161.452, 155.479 161.991 C 162.752 163.182, 164.277 162.128, 164.410 155.822 C 164.495 151.790, 164.292 151.463, 161 150.324 C 156.202 148.664, 147.123 148.724, 127.089 150.549 C 114.389 151.706, 109.072 151.827, 106.100 151.027 C 101.662 149.832, 100.347 147.527, 102.016 143.865 C 103.089 141.509, 103.163 141.500, 120.797 141.476 C 139.560 141.450, 150.870 139.834, 159.928 135.886 C 166.061 133.212, 164.365 132.107, 152.162 130.825 C 143.724 129.938, 140.695 130.031, 133.997 131.380 C 124.801 133.233, 112.448 133.499, 108.315 131.933 C 97.819 127.957, 98.821 116.753, 110.410 108.514 C 118.947 102.444, 129.236 100.184, 140.041 102.007 L 147.068 103.192 149.925 108.846 C 155.025 118.940, 158.794 120.416, 162.284 113.686 C 167.894 102.870, 171.138 77.015, 169.183 58.698 C 168.135 48.876, 168.188 46.947, 169.612 43 C 170.505 40.525, 171.460 35.575, 171.733 32 C 172.148 26.571, 171.909 25.104, 170.281 23.096 C 167.792 20.026, 159.895 19.360, 152.009 21.554 M 77 22.639 C 105.140 33.658, 106 33.891, 106 30.467 C 106 28.525, 101.298 26.261, 93.790 24.587 C 87.171 23.111, 74.431 21.633, 77 22.639 M 65 23.439 C 65 23.983, 80.671 33.665, 87.619 37.413 L 92.737 40.175 96.988 38.006 C 99.325 36.814, 100.847 35.482, 100.369 35.047 C 99.205 33.988, 79.880 26.587, 73.068 24.591 C 67.618 22.994, 65 22.621, 65 23.439" stroke="none" fill="black" fill-rule="evenodd"/>
</svg>