<svg xmlns="http://www.w3.org/2000/svg" width="200" height="200" viewBox="0 0 200 200" version="1.1">
	<path d="M 139.786 11.143 C 139.576 11.772, 134.366 13.302, 128.208 14.544 C 106.601 18.901, 94.544 23.598, 88.671 29.945 L 85.304 33.585 68.402 35.338 C 47.491 37.506, 38.133 39.427, 35.500 42.092 C 33.507 44.109, 33.507 44.120, 35.483 45.588 C 39.334 48.449, 61.992 53.341, 63.661 51.672 C 64.920 50.414, 63.107 49.768, 53.300 47.982 C 41.068 45.753, 36.813 44.244, 39.122 42.952 C 41.282 41.743, 56.004 39.316, 69 38.027 C 74.775 37.454, 80.963 36.743, 82.750 36.447 C 85.682 35.962, 86 36.150, 86 38.372 C 86 39.726, 87.651 43.909, 89.669 47.667 C 97.785 62.782, 98.428 65.337, 95.526 70.949 C 93.585 74.703, 87.098 80.180, 80.502 83.634 C 76.056 85.961, 74.999 87.061, 73.999 90.396 C 72.385 95.785, 62.269 105.668, 54.500 109.445 C 50.773 111.258, 46.322 112.529, 42.750 112.802 C 37.214 113.224, 37 113.150, 37 110.822 C 37 106.173, 51.555 93.727, 68.845 83.591 C 73.378 80.934, 76.919 78.258, 76.715 77.645 C 76.462 76.885, 70.499 76.504, 57.922 76.445 C 37.552 76.349, 33.161 75.725, 35.223 73.217 C 35.925 72.363, 45.690 67.227, 56.922 61.804 C 70.392 55.300, 77.007 51.607, 76.354 50.954 C 75.702 50.302, 69.941 52.540, 59.432 57.529 C 36.704 68.320, 35.036 69.224, 32.869 71.934 C 30.937 74.350, 30.938 74.382, 32.988 76.434 C 34.876 78.324, 36.566 78.543, 52.776 79 L 70.500 79.500 64.696 82.854 C 55.629 88.095, 43.959 97.122, 38.750 102.925 C 30.820 111.759, 32.758 116.821, 43.639 115.698 C 55.099 114.515, 70.811 103.375, 75.848 92.861 C 77.647 89.107, 79.329 87.486, 84.668 84.364 C 92.509 79.779, 98.700 73.116, 99.605 68.290 C 100.461 63.731, 98.700 58.075, 93.821 49.706 C 91.642 45.969, 89.609 41.368, 89.303 39.482 L 88.747 36.052 96.623 38.656 C 100.956 40.088, 104.880 41.604, 105.344 42.024 C 106.271 42.863, 114.950 82.173, 114.981 85.669 C 114.996 87.367, 113.164 88.839, 106.541 92.449 C 93.750 99.421, 92 101.174, 92 107.011 C 92 111.432, 92.349 112.143, 96.102 115.355 C 98.712 117.589, 102.894 119.701, 107.602 121.163 C 111.671 122.426, 115 123.806, 115 124.230 C 115 124.653, 112.188 125.008, 108.750 125.017 C 105.313 125.027, 98.324 125.475, 93.219 126.012 C 74.125 128.024, 63.754 131.804, 65.970 135.944 C 67.466 138.738, 75.074 140.177, 92.500 140.960 C 101.300 141.355, 107.126 141.751, 105.446 141.839 C 101.048 142.071, 92.908 146.413, 87.592 151.363 C 83.325 155.338, 83.002 155.988, 83.022 160.570 C 83.077 172.928, 92.826 182.425, 109.156 186.028 C 116.730 187.699, 132.972 186.801, 139.358 184.358 C 148.954 180.687, 155.947 172.113, 155.963 164 C 155.972 159.298, 155.425 158.640, 148.484 155.006 C 141.274 151.231, 135 145.388, 135 142.448 C 135 140.370, 135.492 140.283, 150.312 139.742 C 179.561 138.675, 180.530 134.139, 154.250 121.299 C 144.396 116.484, 141 114.354, 141 112.985 C 141 110.048, 136.376 107.191, 130.419 106.447 C 125.486 105.830, 125.005 105.559, 125.589 103.718 C 127.199 98.647, 129.179 94.869, 130.490 94.365 C 133.452 93.229, 138.968 96.299, 146.980 103.542 C 151.535 107.659, 156.390 111.311, 157.771 111.657 C 164.097 113.245, 168.483 108.527, 172.499 95.814 C 175.842 85.231, 176.629 80.007, 175.029 79.018 C 174.019 78.393, 174.013 73.754, 175 55.496 C 176.929 19.825, 174.778 10.302, 165.868 15.071 C 163.015 16.598, 155.467 28.665, 148.615 42.655 L 142.730 54.670 136.115 51.328 C 132.477 49.490, 125.225 46.346, 120 44.340 C 108.477 39.917, 107.999 39.569, 108.006 35.628 C 108.017 29.132, 109.920 24.931, 113.537 23.420 C 115.406 22.639, 117.304 22, 117.753 22 C 118.202 22, 120.980 25.369, 123.925 29.487 C 130.908 39.251, 139.085 47, 142.405 47 C 145.780 47, 147.010 44.384, 146.956 37.316 C 146.910 31.339, 143.906 13.275, 142.609 11.176 C 141.684 9.680, 140.279 9.663, 139.786 11.143 M 131.500 16.563 C 118.496 19.117, 119.294 18.169, 124.207 25.227 C 130.457 34.206, 139.871 44, 142.251 44 C 144.173 44, 144.246 43.544, 143.734 34.750 C 143.119 24.196, 141.166 14.956, 139.578 15.094 C 138.985 15.146, 135.350 15.807, 131.500 16.563 M 167.306 17.498 C 164.323 19.587, 157.869 30.125, 150.904 44.276 C 145.885 54.475, 145.185 56.524, 146.472 57.244 C 147.312 57.714, 148.652 59.360, 149.449 60.901 C 150.721 63.361, 150.713 63.964, 149.388 65.857 C 148.558 67.042, 146.443 68.769, 144.689 69.694 L 141.500 71.376 146.270 72.752 C 148.893 73.508, 150.841 74.448, 150.599 74.839 C 150.358 75.230, 146.541 77.080, 142.119 78.950 C 134.908 81.998, 133.919 82.746, 132.539 86.195 C 130.439 91.443, 130.566 92, 133.860 92 C 137.393 92, 142.799 95.530, 150 102.537 C 153.025 105.481, 156.771 108.366, 158.324 108.948 C 162.801 110.626, 166.099 106.518, 169.975 94.432 C 172.732 85.833, 173.014 84.013, 172.075 80.869 C 171.309 78.304, 171.283 72.433, 171.987 60.869 C 173.637 33.730, 173.095 19.695, 170.287 16.887 C 169.796 16.396, 168.501 16.661, 167.306 17.498 M 100.500 25.384 C 94.269 28.332, 88.962 32.399, 90.089 33.363 C 90.315 33.556, 93.200 34.630, 96.500 35.749 C 99.800 36.868, 103.195 38.070, 104.044 38.420 C 105.321 38.946, 105.611 38.074, 105.721 33.372 C 105.816 29.318, 106.457 26.874, 107.957 24.845 C 110.704 21.129, 109.274 21.232, 100.500 25.384 M 109.483 45.291 C 114.752 68.535, 117.003 79.254, 117.015 81.162 C 117.049 86.242, 118.324 86.589, 125.335 83.428 L 131.832 80.500 136.765 68.836 L 141.697 57.173 134.178 53.505 C 126.796 49.903, 120.200 47.112, 112.741 44.433 C 109.082 43.118, 108.996 43.141, 109.483 45.291 M 142.079 63.333 C 139.463 69.415, 139.449 69.336, 142.823 67.592 C 147.570 65.137, 148.315 63.608, 146.094 60.879 L 144.157 58.500 142.079 63.333 M 137.118 75.091 C 136.124 77.942, 136.191 78.076, 138.282 77.436 C 142.901 76.024, 143.287 75.418, 140.665 73.700 C 138.228 72.103, 138.149 72.134, 137.118 75.091 M 123.750 87.115 C 118.039 90.012, 118 90.062, 118 94.516 C 118 96.982, 118.450 99, 119 99 C 119.550 99, 120 98.608, 120 98.129 C 120 97.650, 121.569 96.187, 123.486 94.879 C 126.374 92.908, 130.868 85.493, 129.792 84.474 C 129.631 84.322, 126.912 85.510, 123.750 87.115 M 106.500 95.593 C 102.100 98.086, 97.646 100.963, 96.603 101.987 C 94.748 103.808, 94.792 103.838, 98.603 103.327 C 100.746 103.040, 105.164 103.298, 108.419 103.900 C 111.675 104.502, 114.498 104.835, 114.694 104.640 C 115.546 103.788, 116.204 91.003, 115.395 91.031 C 114.903 91.048, 110.900 93.101, 106.500 95.593 M 121.121 100.848 C 117.492 105.430, 117.351 106, 119.848 106 C 121.089 106, 122.236 104.627, 123.338 101.823 C 124.240 99.525, 124.813 97.479, 124.610 97.276 C 124.407 97.074, 122.837 98.681, 121.121 100.848 M 94 108.809 C 94 110.764, 100.957 115.840, 106.456 117.897 C 114.719 120.989, 115.744 120.763, 118.071 115.335 C 119.170 112.769, 119.717 110.345, 119.285 109.947 C 118.003 108.767, 94 107.686, 94 108.809 M 131.500 111 C 136.057 113.109, 138 113.422, 138 112.047 C 138 111.059, 131.632 108.959, 129 109.080 C 128.175 109.117, 129.300 109.982, 131.500 111 M 121.112 114.686 C 120.429 116.784, 119.637 119.063, 119.352 119.750 C 118.969 120.674, 120.505 121, 125.242 121 C 130.776 121, 131.970 120.660, 133.986 118.515 L 136.321 116.029 131.910 114.088 C 123.405 110.344, 122.511 110.394, 121.112 114.686 M 135.902 120.601 C 132.710 123.894, 132.365 124, 124.804 124 C 120.512 124, 117 124.401, 117 124.891 C 117 126.586, 124.553 126.736, 136.803 125.285 C 153.863 123.263, 156.369 124.554, 146.056 130.051 C 142.787 131.793, 139.299 134.129, 138.306 135.241 L 136.500 137.264 151.500 136.749 C 166.156 136.245, 170 135.661, 170 133.935 C 170 132.770, 162.566 128.496, 149.850 122.351 L 139.196 117.202 135.902 120.601 M 135.500 128.188 C 131.650 128.703, 125.700 128.963, 122.277 128.766 L 116.054 128.409 114.527 132.225 C 113.687 134.323, 113 136.256, 113 136.520 C 113 136.784, 117.430 137, 122.845 137 C 131.664 137, 132.889 136.776, 134.595 134.849 C 135.643 133.665, 138.501 131.415, 140.946 129.849 C 143.391 128.282, 144.741 127.057, 143.946 127.126 C 143.151 127.196, 139.350 127.674, 135.500 128.188 M 86.541 129.586 C 76.528 131.142, 67.731 133.755, 68.471 134.954 C 68.739 135.387, 70.430 136.049, 72.229 136.425 C 77.171 137.457, 105.043 139.027, 107.496 138.412 C 108.832 138.076, 110.143 136.478, 110.963 134.186 C 111.689 132.159, 112.492 129.938, 112.748 129.250 C 113.384 127.543, 98.456 127.734, 86.541 129.586 M 111.039 141.250 C 111.060 141.938, 112.516 143.406, 114.276 144.512 C 118.884 147.411, 122.146 153.949, 122.752 161.499 C 123.393 169.491, 122.570 173, 120.054 173 C 116.265 173, 113.659 167.394, 109.011 149.250 C 108.096 145.677, 107.526 145, 105.429 145 C 101.703 145, 97.111 147.228, 91.250 151.880 C 86.138 155.937, 86 156.182, 86 161.185 C 86 174.718, 100.132 184.178, 120.500 184.280 C 139.730 184.376, 153.017 176.232, 152.992 164.364 C 152.983 160.626, 152.768 160.386, 146.390 157 C 138.662 152.897, 132 146.195, 132 142.522 L 132 140 121.500 140 C 113.746 140, 111.010 140.327, 111.039 141.250 M 111 146.257 C 111 147.061, 115.935 163.930, 116.820 166.153 C 119.235 172.216, 121.704 169.209, 120.469 161.708 C 119.553 156.147, 117.396 151.051, 114.778 148.264 C 112.989 146.360, 111 145.303, 111 146.257" stroke="none" fill="black" fill-rule="evenodd"/>
</svg>