<svg xmlns="http://www.w3.org/2000/svg" width="200" height="200" viewBox="0 0 200 200" version="1.1">
	<path d="M 135.819 10.514 C 135.235 11.098, 114.410 15.753, 81.967 22.552 L 59.812 27.194 57.006 24.505 L 54.199 21.817 53.507 24.968 C 53.053 27.033, 51.964 28.443, 50.347 29.058 C 47.925 29.979, 47.928 32, 50.352 32 C 51.030 32, 52.147 34.102, 52.835 36.672 C 55.277 45.802, 65.194 51.562, 80.403 52.683 C 84.856 53.011, 89.979 54.022, 91.787 54.930 L 95.074 56.582 92.453 59.041 L 89.831 61.500 66.666 61.169 C 42.429 60.823, 38.998 61.266, 36.998 65.003 C 36.106 66.671, 36.247 67.737, 37.688 70.195 C 39.682 73.600, 42.529 75.805, 43.576 74.757 C 43.946 74.387, 43.068 72.681, 41.624 70.966 C 38.546 67.307, 38.450 66.701, 40.656 64.872 C 41.985 63.771, 47.150 63.564, 66.784 63.822 L 91.256 64.144 94.508 60.992 C 97.573 58.021, 97.983 57.902, 101.630 58.914 C 103.759 59.505, 106.912 59.991, 108.637 59.994 C 111.842 60, 120.500 65.105, 122.291 68.045 C 122.994 69.201, 121.654 71.979, 116.987 79.045 C 105.514 96.414, 102.813 104.870, 106.476 111.953 C 108.198 115.284, 113.412 118.745, 119.324 120.482 C 122.853 121.519, 124.037 122.611, 126.967 127.531 C 129.677 132.082, 130.441 134.461, 130.467 138.426 L 130.500 143.500 126.191 143.810 C 120.255 144.238, 114.207 141.101, 108.113 134.434 C 103.494 129.379, 102.103 126.672, 100.571 119.750 C 100.009 117.214, 99.586 117, 95.141 117 C 88.440 117, 80.970 121.009, 67.115 132.039 C 53.498 142.880, 47.249 146.298, 40.835 146.415 C 38.269 146.462, 35.822 146.154, 35.398 145.730 C 33.306 143.642, 37.351 138.821, 50.016 128.307 C 64.466 116.312, 69.462 111.259, 71.577 106.500 C 72.311 104.850, 75.241 101.250, 78.089 98.500 C 91.979 85.087, 92.405 75.344, 79.181 73.525 C 70.941 72.392, 52 76.008, 52 78.715 C 52 79.639, 52.577 79.992, 53.505 79.636 C 58.464 77.734, 72.026 75.815, 77.202 76.285 C 84.038 76.904, 86 78.184, 86 82.023 C 86 85.380, 78.651 95.524, 72.947 100.042 C 70.776 101.761, 69 103.949, 69 104.904 C 69 107.751, 62.720 114.242, 48.718 125.866 C 32.221 139.561, 29.574 143.495, 34.101 147.592 C 39.602 152.570, 51.778 147.868, 69 134.114 C 81.992 123.739, 88.667 120, 94.196 120 C 97.195 120, 98 120.382, 98 121.804 C 98 125.335, 103.157 133.873, 108.058 138.457 C 123.032 152.464, 139.183 148.341, 132.452 132.230 C 129.002 123.974, 125.204 119.377, 120.747 118.061 C 111.002 115.184, 106.244 109.845, 107.492 103.190 C 108.386 98.426, 112.591 90.424, 119.940 79.500 C 123.271 74.550, 125.997 69.990, 125.998 69.368 C 126.001 67.695, 117.939 59.931, 115.020 58.796 C 113.634 58.257, 109.865 57.435, 106.644 56.969 C 103.424 56.503, 100.499 55.821, 100.144 55.453 C 98.937 54.200, 131.475 25, 134.078 25 C 135.222 25, 142.970 42.722, 144.590 49.044 C 145.646 53.168, 145.956 56.954, 145.516 60.370 C 144.450 68.654, 143.433 148.453, 144.235 160.942 C 144.639 167.235, 145.678 174.819, 146.543 177.795 C 148.205 183.512, 151.760 188, 154.626 188 C 157.282 188, 164.781 179.539, 165.899 175.282 C 167.285 170.001, 169.735 152.657, 171.023 139 C 172.299 125.476, 171.347 28.633, 169.881 22.803 C 168.673 17.997, 164.021 13.414, 159.489 12.564 C 155.144 11.749, 146.401 14.095, 140.166 17.749 C 136.573 19.855, 135.650 20.057, 134.918 18.902 C 133.069 15.982, 133.945 14.212, 137.673 13.330 C 142.267 12.244, 143.329 10, 139.250 10 C 137.646 10, 136.102 10.231, 135.819 10.514 M 95.500 22.370 C 58.971 30.250, 59.453 29.895, 82.567 31.908 C 96.919 33.159, 102.545 34.895, 106.250 39.216 L 109 42.425 113.750 37.844 C 118.716 33.056, 128.746 24.801, 131.410 23.310 C 132.685 22.597, 132.778 21.779, 131.933 18.721 C 131.368 16.675, 130.365 15.056, 129.703 15.125 C 129.041 15.194, 113.650 18.454, 95.500 22.370 M 152 15.632 C 148.537 16.728, 137 22.440, 137 23.059 C 137 23.429, 139.041 28.041, 141.535 33.306 C 147.454 45.802, 149.788 56.211, 148.281 63.396 C 146.711 70.880, 145.724 151.099, 147.043 163.957 C 148.175 174.981, 150.496 182.658, 153.214 184.367 C 154.586 185.230, 155.522 184.874, 157.917 182.579 C 162.470 178.217, 163.609 174.820, 166.154 158 C 168.429 142.966, 168.495 140.733, 168.345 83.743 C 168.197 27.771, 168.098 24.810, 166.254 21.243 C 163.499 15.913, 157.981 13.740, 152 15.632 M 55.004 33.831 C 55.013 40.347, 61.303 45.838, 71.856 48.542 C 83.866 51.619, 83.990 50.428, 72.602 41.349 C 66.974 36.862, 60.720 32.741, 58.689 32.180 C 55.103 31.190, 55 31.236, 55.004 33.831 M 70.357 35.840 C 75.722 41.460, 88.552 50.001, 91.612 49.989 C 99.114 49.960, 102.124 48.808, 103.782 45.330 C 105.318 42.110, 105.296 41.851, 103.316 39.871 C 100.758 37.314, 92.247 35.255, 81 34.473 C 76.325 34.148, 71.375 33.649, 70 33.365 L 67.500 32.847 70.357 35.840 M 95 53 C 95 53.550, 95.423 54, 95.941 54 C 96.459 54, 97.160 53.550, 97.500 53 C 97.840 52.450, 97.416 52, 96.559 52 C 95.702 52, 95 52.450, 95 53" stroke="none" fill="black" fill-rule="evenodd"/>
</svg>