<svg xmlns="http://www.w3.org/2000/svg" width="200" height="200" viewBox="0 0 200 200" version="1.1">
	<path d="M 128.170 11.990 C 122.145 14.157, 107.888 21.610, 94.448 29.617 L 85.396 35.010 80.144 33.450 C 72.935 31.309, 66.598 31.817, 66.205 34.566 C 65.938 36.430, 64.636 36.798, 52.903 38.324 C 39.959 40.008, 33 41.967, 33 43.926 C 33 45.596, 37.115 47.688, 43 49.010 C 53.441 51.355, 66.689 55.998, 68.432 57.925 C 70.560 60.276, 69.780 63.509, 66.682 65.178 C 65.334 65.904, 60.826 66.256, 54.889 66.101 C 44.297 65.823, 38.622 66.936, 34.631 70.076 C 26.568 76.418, 38.274 86.727, 54.750 87.794 C 58.737 88.052, 61.989 88.541, 61.976 88.882 C 61.963 89.222, 60.120 90.850, 57.879 92.500 C 47.302 100.290, 35 116.170, 35 122.032 C 35 131.867, 47.754 129.374, 61.397 116.873 C 65.029 113.546, 68 110.413, 68 109.911 C 68 108.021, 65.268 109.113, 62.437 112.135 C 54.997 120.076, 43.263 126.806, 39.425 125.333 C 33.095 122.904, 46.208 104.547, 63.651 91.419 C 67.693 88.377, 71 85.801, 71 85.694 C 71 85.587, 66.387 85.453, 60.750 85.395 C 52.847 85.314, 49.226 84.798, 44.936 83.143 C 34.582 79.147, 32.190 74.154, 39 70.752 C 41.755 69.375, 45.086 69.003, 54.646 69.002 L 66.793 69 69.896 65.465 C 73.543 61.312, 73.687 60.143, 70.977 56.698 C 68.584 53.656, 61.776 50.961, 47.341 47.344 C 39.854 45.468, 37.240 44.445, 38.349 43.825 C 39.688 43.075, 65.096 39.061, 68.785 39.016 C 69.747 39.004, 69.809 38.511, 69.032 37.061 C 68.398 35.874, 68.359 34.896, 68.932 34.542 C 70.298 33.698, 78.246 35.586, 88.193 39.118 C 98.465 42.765, 98.836 43.464, 96.621 55.016 C 94.088 68.221, 87.069 83.672, 78.920 93.982 C 74.582 99.470, 74.361 100, 76.415 100 C 78.549 100, 86.609 88.700, 90.982 79.579 C 96.381 68.316, 99.030 59.719, 99.708 51.250 C 100.027 47.263, 100.428 44, 100.597 44 C 103.256 44, 106.576 47.396, 109.473 53.082 C 112.347 58.721, 112.765 60.333, 112.023 62.919 C 108.154 76.412, 111.165 106.507, 117.014 112.784 C 122.325 118.486, 129.220 113.131, 136.557 97.607 L 140.861 88.500 140.931 104.691 C 140.982 116.609, 140.670 121.095, 139.750 121.691 C 139.063 122.136, 124.550 122.508, 107.500 122.518 C 74.203 122.537, 69.333 123.109, 64.525 127.565 C 63.098 128.887, 62 131.013, 62 132.452 L 62 135 71.750 135.012 C 96.505 135.042, 107.852 144.840, 96.090 156.030 C 91.684 160.220, 79.659 166.591, 68.869 170.451 C 63.214 172.474, 60.949 173.817, 60.119 175.637 C 58.280 179.673, 58.768 182.802, 61.518 184.603 C 66.397 187.800, 78.080 184.625, 107.718 172.048 L 124.937 164.741 130.552 169.873 C 147.241 185.126, 173 187.470, 173 173.735 C 173 168.328, 165.706 162.204, 149.592 154.080 C 136.547 147.504, 127 141.163, 127 139.073 C 127 138.649, 134.762 138.044, 144.250 137.727 C 163.165 137.096, 168.201 135.993, 171.313 131.799 C 172.955 129.586, 173.147 128.503, 172.373 125.806 C 171.775 123.720, 170.709 122.405, 169.465 122.218 C 164.178 121.422, 162.553 120.629, 158.441 116.839 C 153.967 112.714, 152.679 110.279, 155.556 111.383 C 160.057 113.110, 167.721 106.273, 171.302 97.335 C 173.703 91.341, 174.679 76.392, 173.137 69.205 C 172.149 64.595, 172.247 63.644, 174.008 60.755 C 179.185 52.264, 173.827 24.709, 165.256 15.750 C 160.778 11.069, 155.763 12.637, 152.014 19.892 C 150.140 23.517, 147.231 34.305, 146.458 40.491 C 145.729 46.327, 144.444 47.617, 143.421 43.541 C 142.450 39.671, 142.438 36.241, 143.359 25.240 C 144.093 16.460, 143.982 14.621, 142.586 12.490 C 140.550 9.383, 135.868 9.220, 128.170 11.990 M 127 15.360 C 123.975 16.639, 119.025 18.972, 116 20.545 L 110.500 23.406 115.555 24.070 C 122.565 24.991, 129.033 28.068, 134.446 33.057 C 136.973 35.387, 139.232 37.101, 139.466 36.867 C 139.700 36.633, 140.029 31.280, 140.196 24.971 L 140.500 13.500 136.500 13.268 C 134.090 13.128, 130.313 13.960, 127 15.360 M 158.223 15.671 C 154.620 17.120, 149.995 32.665, 147.490 51.748 C 146.122 62.170, 146.130 62.285, 148.305 64.116 L 150.500 65.965 148.250 66.599 C 147.012 66.948, 145.976 67.293, 145.946 67.367 C 145.916 67.440, 145.499 72.859, 145.020 79.410 C 144.223 90.290, 144.328 91.803, 146.234 96.910 C 148.447 102.842, 153.674 109, 156.496 109 C 160.249 109, 164.170 105.397, 167.270 99.102 C 169.964 93.632, 170.480 91.340, 170.832 83.307 C 171.058 78.139, 170.719 71.249, 170.079 67.997 C 169.002 62.523, 169.067 61.933, 170.958 60.042 C 176.422 54.578, 170.915 24.915, 162.959 16.959 C 160.940 14.940, 160.404 14.794, 158.223 15.671 M 100 29.499 C 96.975 31.398, 94.050 33.188, 93.500 33.476 C 92.913 33.784, 93.047 34.251, 93.825 34.608 C 94.554 34.943, 96.676 36.743, 98.542 38.608 C 103.241 43.308, 104.203 43.008, 103.417 37.088 C 102.952 33.577, 103.205 31.295, 104.306 29.088 C 105.153 27.390, 105.769 26.010, 105.673 26.023 C 105.578 26.035, 103.025 27.599, 100 29.499 M 111 26.712 C 110.175 27.014, 108.713 27.947, 107.750 28.785 C 104.094 31.970, 106.559 44.093, 111.159 45.548 C 112.446 45.955, 120.321 49.548, 128.658 53.531 L 143.817 60.773 144.166 56.387 C 144.357 53.974, 144.192 52, 143.798 52 C 143.404 52, 142.276 49.672, 141.291 46.827 C 139.060 40.382, 132.091 33.139, 124.801 29.687 C 119.189 27.030, 113.488 25.801, 111 26.712 M 112.959 53.772 C 115.677 58.870, 115.943 60.020, 114.989 62.529 C 113.232 67.150, 112.636 83.747, 113.891 93.137 C 115.935 108.445, 119.262 114.727, 123.818 111.882 C 126.793 110.024, 131.694 102.165, 135.489 93.166 C 138.434 86.185, 139 83.652, 139 77.468 C 139 70.324, 140.375 65, 142.220 65 C 142.714 65, 142.818 64.515, 142.452 63.923 C 141.877 62.993, 123.103 53.648, 113.165 49.346 L 109.831 47.902 112.959 53.772 M 141.556 72.556 C 141.179 74.562, 141.096 76.429, 141.371 76.704 C 141.646 76.979, 142.179 75.562, 142.556 73.556 C 142.932 71.549, 143.015 69.682, 142.740 69.407 C 142.465 69.132, 141.932 70.549, 141.556 72.556 M 144.011 105.500 C 143.997 108.250, 143.701 113.519, 143.352 117.210 L 142.718 123.920 138.109 124.616 C 135.574 125, 120.225 125.355, 104 125.407 C 75.847 125.496, 74.283 125.600, 69.750 127.694 C 67.138 128.900, 65 130.363, 65 130.944 C 65 131.583, 67.711 132, 71.864 132 C 86.083 132, 98.769 136.501, 102.375 142.825 C 104.024 145.717, 104.116 146.669, 103.079 150.131 C 100.764 157.858, 88.736 166.189, 70.735 172.533 C 62.735 175.353, 60.810 177.458, 62.414 181.635 C 63.927 185.579, 78.453 181.578, 107.189 169.303 L 124.877 161.747 131.689 167.420 C 141.241 175.376, 149.258 179.142, 157.964 179.765 C 166.491 180.375, 170 178.688, 170 173.976 C 170 169.557, 163.934 164.280, 152.355 158.623 C 128.342 146.893, 119.129 138.802, 126.565 135.975 C 127.976 135.439, 134.838 134.997, 141.815 134.994 C 162.294 134.985, 170 132.950, 170 127.552 C 170 125.865, 169.055 125.162, 165.510 124.214 C 159.459 122.595, 153.784 117.226, 148.448 108.070 L 144.036 100.500 144.011 105.500" stroke="none" fill="black" fill-rule="evenodd"/>
</svg>