<svg xmlns="http://www.w3.org/2000/svg" width="200" height="200" viewBox="0 0 200 200" version="1.1">
	<path d="M 88 6.648 C 87.175 6.979, 85.275 8.391, 83.777 9.786 C 81.344 12.052, 80.322 12.298, 74.162 12.098 C 64.281 11.778, 61.733 14.769, 65.969 21.716 C 67.399 24.062, 77.473 31.966, 79.669 32.466 C 79.762 32.487, 80.148 33.741, 80.527 35.252 L 81.217 38 69.358 38.022 C 53.055 38.052, 47.604 40.505, 46.325 48.387 C 45.801 51.614, 46.019 52.063, 48.623 53.110 C 50.205 53.747, 59.568 54.545, 69.429 54.884 L 87.359 55.500 88.679 58.742 L 89.999 61.984 79 67.500 C 72.950 70.534, 68 73.463, 68 74.008 C 68 75.725, 69.767 75.135, 80 70 C 85.480 67.250, 90.190 65, 90.467 65 C 90.745 65, 92.308 67.648, 93.942 70.886 L 96.913 76.771 89.918 79.899 C 73.667 87.165, 42.079 92.172, 39.439 87.901 C 38.719 86.737, 46.522 81.853, 54.556 78.439 C 60.733 75.813, 61.989 74.729, 60.161 73.599 C 58.606 72.639, 39.093 82.929, 37.310 85.649 C 35.659 88.170, 35.679 88.322, 37.911 90.129 C 43.909 94.986, 76.475 89.843, 93.182 81.401 L 97.865 79.035 102.932 88.661 C 105.720 93.956, 108 98.478, 108 98.710 C 108 99.220, 51.561 98.232, 37.500 97.475 C 28.647 96.999, 27.127 97.168, 24.250 98.954 C 21.739 100.512, 21 101.662, 21 104.008 C 21 108.389, 27.493 115.035, 35.253 118.597 C 40.867 121.174, 42.573 121.466, 52.086 121.482 C 62.172 121.499, 62.974 121.342, 69.086 118.145 L 75.500 114.790 96.150 114.256 L 116.799 113.721 119.460 117.937 C 120.924 120.255, 122.352 122.754, 122.634 123.489 C 123.387 125.451, 114.856 126.100, 84 126.426 C 56.269 126.718, 51.496 127.348, 47.250 131.270 C 45.051 133.302, 44.357 137.162, 45.607 140.418 C 46.091 141.679, 47.867 142.004, 54.357 142.020 C 71.079 142.060, 82 144.910, 82 149.233 C 82 152.626, 71.069 162.468, 56.314 172.360 C 41.963 181.982, 38.829 184.671, 41.114 185.401 C 50.844 188.511, 58.897 186.630, 80.446 176.216 C 96.619 168.400, 99.064 167.505, 105.204 167.158 C 114.165 166.652, 120.846 169.762, 127.974 177.761 C 130.738 180.862, 133 183.759, 133 184.200 C 133 185.333, 145.705 185.194, 152.044 183.992 C 157.630 182.932, 161 180.735, 161 178.152 C 161 175.222, 150.439 166.443, 136.500 157.786 C 128.800 153.003, 120.952 147.792, 119.060 146.205 L 115.620 143.319 126.560 142.621 C 149.045 141.186, 152.276 138.220, 148.480 122.500 C 147.683 119.200, 147.024 116.162, 147.016 115.750 C 147.007 115.338, 154.575 115, 163.833 115 C 173.092 115, 180.914 114.753, 181.216 114.451 C 182.310 113.357, 179.828 105.464, 177.383 102.258 C 175.751 100.119, 171.682 97.427, 165.690 94.523 C 160.636 92.073, 155.150 89.156, 153.500 88.041 L 150.500 86.013 157.550 86.007 C 171.953 85.993, 170.091 80.082, 152.207 69.044 C 145.172 64.701, 143.412 64.020, 140.597 64.548 C 138.182 65.001, 137.127 64.773, 136.719 63.710 C 136.411 62.907, 139.046 57.131, 142.576 50.875 C 149.847 37.985, 150.713 33.738, 146.465 31.802 C 144.528 30.919, 142.433 30.945, 137.581 31.909 C 132.048 33.009, 130.831 32.964, 128.116 31.560 C 126.185 30.561, 125 29.179, 125 27.925 C 125 22.363, 116.961 14.618, 105.959 9.582 C 100.499 7.082, 90.847 5.505, 88 6.648 M 86.750 10.572 C 85.237 11.393, 84 12.391, 84 12.791 C 84 13.192, 87.234 14.569, 91.188 15.852 C 95.141 17.135, 103.547 20.403, 109.867 23.116 C 116.188 25.828, 121.754 27.915, 122.236 27.755 C 123.956 27.181, 118.352 20.471, 113.076 16.785 C 103.026 9.763, 92.722 7.332, 86.750 10.572 M 68.750 14.679 C 64.774 15.742, 67.539 21.211, 74.460 25.972 L 78.830 28.979 79.196 22.240 C 79.398 18.533, 79.549 15.445, 79.531 15.378 C 79.410 14.905, 70.149 14.304, 68.750 14.679 M 82.587 16.746 C 82.264 17.069, 82 20.194, 82 23.691 C 82 29.699, 82.152 30.109, 84.750 31.130 C 89.873 33.142, 99.533 33.383, 104.884 31.633 C 107.630 30.735, 111.591 29.980, 113.688 29.956 L 117.500 29.912 113.762 27.938 C 104.513 23.055, 83.737 15.596, 82.587 16.746 M 114.500 33.038 C 110.650 33.431, 105.475 34.299, 103 34.966 C 98.785 36.102, 90.467 35.840, 85.318 34.409 C 83.476 33.897, 83.222 34.131, 83.687 35.912 C 84.346 38.431, 85.628 38.737, 98.074 39.348 C 112.490 40.057, 128 37.803, 128 35 C 128 34.229, 123.275 31.915, 122.203 32.162 C 121.816 32.251, 118.350 32.645, 114.500 33.038 M 135.141 35.278 L 131.781 36.352 132.462 42.426 C 132.836 45.767, 133.607 50.681, 134.175 53.346 L 135.207 58.192 140.597 48.846 C 143.562 43.706, 145.990 38.263, 145.994 36.750 C 145.999 34.220, 145.700 34.008, 142.250 34.102 C 140.188 34.158, 136.988 34.687, 135.141 35.278 M 123.500 40.225 C 119.285 41.745, 115.872 41.982, 101.754 41.739 C 82.976 41.416, 84.301 40.761, 87.569 48.750 C 88.776 51.703, 89.291 52.001, 93.199 52.014 C 99.325 52.033, 102 52.949, 102 55.028 C 102 56.797, 96.719 62, 94.923 62 C 93.334 62, 93.905 64.880, 96.517 70.033 C 98.399 73.747, 99.597 75.002, 101.267 75.009 C 102.495 75.013, 111.544 76.588, 121.376 78.509 C 131.208 80.429, 140.165 82, 141.281 82 C 143.133 82, 143.176 81.847, 141.771 80.250 C 140.925 79.287, 139.228 76.475, 138 74 C 136.772 71.525, 135.202 68.825, 134.511 68 C 133.820 67.175, 132.991 64.475, 132.670 62 C 131.692 54.468, 129.081 38.739, 128.781 38.576 C 128.627 38.491, 126.250 39.233, 123.500 40.225 M 60.239 40.976 C 57.346 41.421, 53.865 42.513, 52.505 43.405 C 50.206 44.911, 48.137 49.470, 49.248 50.581 C 50.051 51.385, 73.031 52.615, 79.661 52.209 L 85.821 51.831 84.278 47.166 C 83.429 44.600, 82.456 42.208, 82.117 41.851 C 81.060 40.739, 65.767 40.127, 60.239 40.976 M 90.714 57.016 C 91.498 60.014, 92.670 60.308, 95.998 58.342 C 100.138 55.897, 99.761 55, 94.594 55 C 90.668 55, 90.245 55.220, 90.714 57.016 M 139.732 67.693 C 138.142 68.107, 138.279 68.743, 141.092 74.021 C 145.691 82.650, 146.785 83.368, 155.449 83.439 C 159.505 83.473, 163.200 83.118, 163.661 82.650 C 164.802 81.495, 157.666 75.319, 149.911 70.750 C 143.533 66.993, 143.015 66.837, 139.732 67.693 M 101 78.298 C 101 78.824, 103.362 83.695, 106.250 89.124 L 111.500 98.993 118 98.425 C 129.740 97.399, 146.538 95.007, 150.924 93.737 L 155.229 92.490 149.791 88.745 C 146.801 86.685, 143.262 84.984, 141.927 84.965 C 140.592 84.946, 130.838 83.223, 120.250 81.136 C 109.662 79.050, 101 77.773, 101 78.298 M 154.887 96.750 C 150.697 101.383, 149.882 102.741, 148.464 107.454 L 147.096 112 163.061 112 L 179.027 112 177.475 108.287 C 175.221 102.891, 173.435 101.297, 165.329 97.451 C 161.329 95.553, 157.903 94, 157.716 94 C 157.528 94, 156.255 95.237, 154.887 96.750 M 139.884 98.600 C 135.695 99.361, 127.941 100.324, 122.651 100.741 L 113.035 101.500 116.038 106.750 L 119.040 112 132.020 112 C 144.947 112, 145 111.990, 145 109.669 C 145 108.388, 146.123 105.125, 147.496 102.419 C 148.869 99.714, 149.994 97.388, 149.996 97.250 C 150.002 96.857, 148.058 97.117, 139.884 98.600 M 29.413 99.917 C 24.956 101.020, 24 101.826, 24 104.482 C 24 107.731, 29.356 112.814, 35.994 115.864 C 40.122 117.760, 43.660 118.498, 50.132 118.813 C 59.463 119.267, 64.246 118.237, 70.032 114.525 C 73.293 112.434, 75.152 112.203, 94.217 111.522 L 114.869 110.785 112.735 106.392 L 110.601 102 82.051 101.976 C 66.348 101.962, 51.700 101.556, 49.500 101.074 C 43.151 99.681, 32.779 99.083, 29.413 99.917 M 121 114.493 C 121 114.925, 122.361 117.491, 124.025 120.195 C 125.688 122.899, 126.820 125.482, 126.540 125.936 C 125.424 127.741, 119.233 128.216, 88.500 128.853 C 59.336 129.458, 56.145 129.694, 52.500 131.509 C 49.310 133.097, 48.439 134.119, 48.201 136.555 C 47.915 139.484, 48.042 139.593, 51.289 139.214 C 57.663 138.470, 75.806 140.860, 79.991 142.995 C 90.292 148.250, 84.668 156.376, 58.500 174.046 L 44.500 183.500 48.332 183.815 C 55.271 184.386, 62.277 182.090, 80.159 173.383 C 95.400 165.962, 98.720 164.712, 104.407 164.255 C 109.269 163.865, 112.183 164.180, 115.526 165.457 C 121.265 167.648, 128.772 173.551, 132.004 178.412 L 134.500 182.168 144.500 181.708 C 150 181.454, 155.287 180.918, 156.250 180.517 C 161.289 178.413, 155.363 172.738, 134.801 159.976 C 118.331 149.753, 112.642 145.103, 113.178 142.303 C 113.480 140.723, 115.073 140.419, 126.068 139.844 C 139.006 139.168, 145.496 137.477, 146.644 134.484 C 146.983 133.601, 146.665 128.856, 145.936 123.939 L 144.612 115 140.457 115 C 138.172 115, 132.859 114.709, 128.651 114.353 C 124.443 113.998, 121 114.060, 121 114.493" stroke="none" fill="black" fill-rule="evenodd"/>
</svg>