<svg xmlns="http://www.w3.org/2000/svg" width="200" height="200" viewBox="0 0 200 200" version="1.1">
	<path d="M 130.434 13.750 C 129.060 20.002, 126.622 24.750, 122.606 29 C 120.266 31.475, 117.215 34.918, 115.824 36.650 L 113.297 39.801 111.618 35.995 C 109.169 30.445, 105.724 28.523, 98.500 28.678 C 91.972 28.818, 87 30.291, 87 32.087 C 87 32.883, 88.120 32.969, 90.750 32.374 C 92.813 31.908, 96.816 31.520, 99.646 31.513 C 105.750 31.498, 108.458 33.459, 110.156 39.126 C 111.187 42.567, 111.061 43.236, 108.827 46.213 C 105.458 50.703, 96.350 65.697, 90.735 76 C 87.793 81.397, 84.897 85.308, 82.801 86.714 C 80.985 87.932, 74.100 93.444, 67.500 98.964 C 57.003 107.743, 54.561 109.301, 48 111.403 C 38.821 114.344, 31 115.633, 31 114.205 C 31 112.855, 38.899 104.847, 52.779 92.126 C 65.415 80.544, 67.921 77.064, 65.421 74.564 C 64.502 73.645, 62.134 72.999, 59.679 72.999 C 55.694 72.997, 38.286 69.201, 33 67.181 C 30.544 66.242, 30.561 66.215, 34 65.608 C 35.925 65.268, 43.525 64.092, 50.888 62.996 C 66.712 60.640, 75.982 58.049, 81.581 54.419 C 85.394 51.946, 88.623 48.290, 87.758 47.424 C 87.548 47.215, 84.851 47.455, 81.764 47.957 C 73.268 49.340, 59.564 46.900, 51 42.480 C 47.196 40.517, 43.454 36.146, 44.598 35.002 C 46.519 33.081, 56.527 31.925, 65.380 32.600 C 72.725 33.161, 74.179 33.038, 73.793 31.889 C 73.426 30.795, 70.448 30.500, 59.766 30.500 C 47.832 30.500, 45.952 30.729, 44.102 32.405 C 42.946 33.453, 42 35.281, 42 36.468 C 42 43.036, 59.930 50.959, 74.960 51.032 C 80.994 51.061, 81.346 51.180, 79.514 52.564 C 75.266 55.775, 61.611 58.947, 38.812 62.019 C 34.033 62.662, 29.308 63.822, 28.312 64.595 C 26.581 65.939, 26.600 66.086, 28.748 67.909 C 31.064 69.875, 53.233 75.673, 60.500 76.213 L 64.500 76.511 55.466 85.505 C 50.497 90.452, 42.557 98.230, 37.822 102.788 C 29.291 111.002, 27.537 113.632, 29.005 116.009 C 30.196 117.936, 37.246 117.360, 47.071 114.533 C 55.747 112.037, 56.565 111.539, 69.251 101.016 C 76.496 95.007, 82.569 90.236, 82.748 90.414 C 82.926 90.593, 80.420 96.535, 77.179 103.619 L 71.286 116.500 58.610 117.068 C 48.771 117.509, 45.570 118.002, 44.303 119.268 C 41.263 122.308, 44.923 124.798, 63.039 132.015 C 68.681 134.263, 74.658 136.806, 76.320 137.666 C 79.151 139.129, 79.221 139.298, 77.421 140.324 C 76.346 140.937, 69.914 141.477, 62.816 141.551 C 48.717 141.698, 46.338 142.511, 43.400 148.194 C 38.235 158.181, 49.280 179.476, 63.230 186.428 C 71.933 190.764, 82.314 189.712, 90.446 183.669 C 93.435 181.448, 93.817 181.418, 108.500 182.247 C 131.813 183.565, 159.605 182.773, 164.465 180.652 C 170.919 177.836, 171.632 174.950, 167.150 169.785 C 165.090 167.412, 164.129 165.021, 163.688 161.173 C 162.965 154.880, 158.945 145.607, 155.279 141.773 C 151.453 137.773, 146.579 136.390, 143.476 138.424 C 138.640 141.593, 137.500 144.684, 137.500 154.635 L 137.500 163.857 133 154.718 C 130.525 149.692, 126.814 143.803, 124.754 141.631 C 121.144 137.826, 120.938 137.747, 119.072 139.435 C 117.867 140.525, 116.343 144.633, 115.035 150.312 C 111.176 167.074, 105.835 172.169, 96 168.474 C 93.525 167.544, 88.453 166.447, 84.728 166.037 C 81.004 165.626, 77.677 165.011, 77.336 164.669 C 76.128 163.461, 79.029 161.353, 92.062 153.968 C 106.277 145.912, 115 138.629, 115 134.815 C 115 132.504, 115.023 132.500, 129.250 132.490 C 141.121 132.482, 144.832 132.097, 151.478 130.181 C 160.778 127.500, 166 124.573, 166 122.041 C 166 118.224, 163.323 117.501, 149.072 117.472 C 136.353 117.446, 135.193 117.281, 131.477 114.972 C 128.159 112.909, 126.258 112.503, 120 112.518 C 113.135 112.535, 111.664 112.937, 102.616 117.268 C 97.180 119.871, 92.567 122, 92.366 122 C 91.186 122, 92.386 115.238, 94.862 107.938 C 98.701 96.616, 105.979 78.792, 107.379 77.281 C 109.293 75.217, 122.045 73.932, 130.161 74.985 C 134.197 75.509, 137.776 75.952, 138.114 75.969 C 138.452 75.986, 138.703 80.838, 138.672 86.750 C 138.625 95.601, 138.986 98.324, 140.714 102.164 C 144.390 110.337, 150.114 110.936, 156.542 103.822 C 164.615 94.886, 167.556 84.091, 166.566 67.027 C 165.629 50.855, 165.620 51.239, 167.097 43.683 C 168.280 37.630, 168.233 36.116, 166.681 30.183 C 162.597 14.574, 151.634 9.276, 138.084 16.361 L 132.971 19.034 133.613 15.017 C 134.140 11.726, 133.965 11, 132.647 11 C 131.705 11, 130.788 12.140, 130.434 13.750 M 140.233 18.415 C 137.337 19.795, 134.715 21.579, 134.408 22.379 C 133.673 24.296, 137.241 36.866, 141.566 47.593 C 143.465 52.305, 144.799 56.516, 144.531 56.950 C 143.317 58.914, 128.266 65.364, 123.924 65.781 C 119.774 66.180, 118.806 65.897, 116.523 63.613 L 113.896 60.987 111.448 66.522 C 110.102 69.566, 109 72.190, 109 72.353 C 109 72.516, 113.846 72.450, 119.769 72.206 C 125.865 71.955, 132.926 72.258, 136.042 72.905 L 141.547 74.048 141.524 86.274 C 141.503 96.832, 141.780 98.977, 143.554 101.997 C 147.078 107.996, 151.839 106.977, 157.051 99.109 C 163.531 89.326, 166.253 73.113, 163.641 59.851 C 162.300 53.038, 162.300 51.672, 163.641 47.351 C 164.596 44.277, 164.992 40.119, 164.724 36 C 163.655 19.610, 153.314 12.185, 140.233 18.415 M 129.288 26.250 C 127.787 28.210, 116 55.648, 116 57.182 C 116 60.252, 119.079 63, 122.520 63 C 126.150 63, 133.807 60.311, 138.699 57.319 L 141.672 55.500 137.878 45.500 C 135.792 40, 133.544 33.138, 132.883 30.250 C 131.649 24.855, 130.950 24.078, 129.288 26.250 M 118.032 38.341 C 113.955 43.741, 113.236 46.270, 115 49 C 115.533 49.825, 115.976 50.202, 115.985 49.839 C 115.993 49.475, 117.558 45.537, 119.462 41.089 C 121.366 36.640, 122.731 33, 122.494 33 C 122.258 33, 120.250 35.403, 118.032 38.341 M 105.913 55.503 C 99.281 66.182, 91.614 80, 92.320 80 C 92.595 80, 95.627 78.673, 99.058 77.050 L 105.295 74.101 108.975 65.300 C 112.115 57.790, 112.570 55.767, 112.078 51.503 L 111.500 46.505 105.913 55.503 M 95.509 81.855 L 88.580 85.605 80.604 102.803 L 72.627 120 61.064 120.070 C 45.623 120.164, 44.052 120.857, 51.624 124.234 C 54.856 125.675, 61.045 128.255, 65.378 129.968 C 77.491 134.755, 82 137.509, 82 140.122 C 82 142.602, 74.312 144.260, 62.141 144.406 C 49.816 144.553, 49.774 144.561, 47.283 147.457 C 45.108 149.986, 44.842 151.079, 45.225 155.930 C 45.837 163.676, 49.354 170.445, 56.514 177.656 C 66.605 187.818, 76.790 189.371, 87.238 182.340 L 92.301 178.933 117.165 179.623 L 142.029 180.314 139.553 174.715 C 132.545 158.869, 122.701 141, 120.979 141 C 120.564 141, 119.209 145.162, 117.969 150.250 C 115.266 161.335, 113.131 165.870, 108.967 169.374 C 105.304 172.456, 99.098 172.903, 93.346 170.500 C 91.371 169.675, 87.898 168.975, 85.628 168.944 C 79.462 168.859, 74.556 166.895, 74.196 164.365 C 73.802 161.605, 76.283 159.695, 91.211 151.264 C 105.852 142.996, 112 137.924, 112 134.115 C 112 132.622, 111.511 130.911, 110.913 130.313 C 109.025 128.425, 111.598 127.870, 116.505 129.106 C 124.456 131.108, 144.051 129.765, 153.500 126.570 C 167.962 121.681, 166.179 119.799, 147.466 120.203 C 135.215 120.467, 134.258 120.348, 131.553 118.220 C 125.080 113.129, 116.376 113.792, 102.272 120.452 C 93.787 124.458, 91.784 125.066, 90.522 124.018 C 87.413 121.438, 88.938 114.736, 97.659 92.647 C 100.667 85.029, 102.973 78.640, 102.783 78.450 C 102.593 78.260, 99.320 79.792, 95.509 81.855 M 143.736 141.250 C 138.654 145.109, 138.832 160.462, 144.150 176.890 L 145.247 180.280 153.442 179.701 C 166.188 178.802, 170.275 175.721, 164.622 171.274 C 162.880 169.904, 162.045 167.944, 161.503 163.952 C 160.376 155.646, 157.109 147.918, 152.964 143.750 C 149.072 139.835, 146.512 139.142, 143.736 141.250" stroke="none" fill="black" fill-rule="evenodd"/>
</svg>