<svg xmlns="http://www.w3.org/2000/svg" width="200" height="200" viewBox="0 0 200 200" version="1.1">
	<path d="M 125.850 9.815 C 125.657 10.319, 114.700 11.264, 101.500 11.917 C 75.995 13.178, 56.271 14.630, 51.750 15.581 C 48.675 16.227, 48.058 18.581, 50.750 19.393 C 51.713 19.683, 58.125 20.628, 65 21.494 C 88.610 24.466, 100 27.039, 100 29.400 C 100 30.140, 97.940 31.637, 95.423 32.726 L 90.846 34.708 81.776 30.797 C 63.379 22.866, 50.291 19.336, 47.324 21.505 C 45.767 22.643, 45.860 22.965, 48.423 25.341 C 49.962 26.767, 57.216 30.956, 64.543 34.650 L 77.864 41.366 83.917 39.683 C 91.891 37.466, 93.410 37.620, 88.500 40.148 C 86.300 41.281, 83.375 42.942, 82 43.840 C 79.903 45.210, 76.320 45.475, 59.783 45.487 C 40.852 45.499, 39.978 45.587, 37.875 47.685 C 35.797 49.759, 35.769 49.998, 37.330 52.380 C 39.284 55.363, 51.834 61.737, 64.856 66.362 L 74.211 69.685 63.856 77.690 C 44.016 93.027, 32 105.754, 32 111.430 C 32 117.014, 41.862 113.992, 62.117 102.203 C 74.353 95.081, 79.821 93.743, 94.852 94.191 L 105.205 94.500 107.028 99.308 C 111.185 110.272, 118.096 114.852, 128.619 113.615 L 134.231 112.955 133.526 116.728 C 133.139 118.802, 132.650 120.675, 132.439 120.888 C 132.229 121.102, 122.916 118.941, 111.745 116.087 C 100.573 113.232, 90.660 111.193, 89.716 111.555 C 87.714 112.324, 87.498 114.098, 89.200 115.800 C 90.710 117.310, 89.921 117.272, 82.500 115.480 C 74.764 113.612, 59.679 113.590, 53.539 115.438 C 43.619 118.424, 40.955 125.119, 47.426 130.801 C 50.934 133.881, 52.518 134.402, 61.897 135.561 L 67.294 136.228 59.897 139.079 C 50.963 142.521, 47.403 144.454, 43.661 147.892 C 33.989 156.777, 36.476 167.461, 51.596 181.977 L 60.112 190.152 63.572 187.513 C 74.306 179.326, 84.713 178.577, 108.500 184.282 C 116.750 186.260, 125.638 188.182, 128.250 188.553 C 132.699 189.184, 133 189.415, 133 192.197 C 133 195.857, 135.359 195.527, 135.804 191.804 C 136.076 189.523, 136.668 189.197, 141.572 188.621 C 148.948 187.754, 155.893 184.983, 162.088 180.436 L 167.237 176.656 166.785 168.843 C 165.847 152.641, 157.859 143.885, 143.347 143.152 C 133.116 142.636, 133.934 140.779, 144.250 141.103 C 151.774 141.339, 153.283 141.040, 161.395 137.701 C 166.288 135.687, 171.350 133.345, 172.645 132.497 C 175.215 130.813, 175.707 128.555, 173.766 127.356 C 172.387 126.503, 143.045 126.699, 138.750 127.589 C 136.651 128.024, 136 127.777, 136 126.545 C 136 125.187, 136.791 125.036, 140.982 125.592 C 144.773 126.095, 146.567 125.858, 148.482 124.603 C 152.202 122.166, 151.649 118.980, 146.381 112.513 C 142.509 107.759, 141.377 106.939, 139.381 107.440 C 137.051 108.025, 137 107.895, 137 101.369 L 137 94.700 139.929 98.744 C 143.005 102.990, 146.621 106, 148.646 106 C 151.595 106, 155.929 100.720, 157.905 94.722 C 162.062 82.098, 163.370 70.813, 163.437 47 L 163.500 24.500 160.719 19.768 C 154.973 9.995, 148.447 10.902, 144.469 22.028 C 142.563 27.359, 139.085 43.269, 138.900 47.500 C 138.828 49.150, 137.980 45.775, 137.016 40 C 135.145 28.795, 132.083 17.003, 129.859 12.438 C 128.446 9.536, 126.455 8.233, 125.850 9.815 M 104 14.504 C 66.933 16.615, 57.884 17.217, 58.217 17.551 C 58.395 17.729, 64.153 18.606, 71.011 19.501 C 93.310 22.412, 101.169 24.672, 102.680 28.609 C 103.418 30.531, 99.560 34.643, 96.236 35.477 C 93.826 36.082, 94.075 36.370, 100.161 40.015 C 106.320 43.704, 115 51.836, 115 53.919 C 115 56.214, 113.049 55.768, 111.347 53.084 C 109.621 50.360, 100.919 42.748, 100.272 43.395 C 100.110 43.556, 100.635 45.548, 101.437 47.822 C 102.239 50.096, 103.201 54.657, 103.575 57.958 C 103.948 61.260, 104.629 63.729, 105.087 63.446 C 105.546 63.163, 108.655 66.372, 111.997 70.577 C 124.777 86.659, 125.208 92.830, 113.673 94.536 C 109.083 95.215, 108.877 95.379, 109.484 97.875 C 110.512 102.106, 114.742 107.815, 118.156 109.581 C 120.393 110.738, 123.026 111.094, 127.139 110.796 C 130.340 110.565, 133.150 110.178, 133.384 109.938 C 133.797 109.514, 134.125 93.177, 133.906 84 C 133.847 81.525, 134.114 72.075, 134.499 63 C 135.054 49.954, 134.864 44.450, 133.591 36.704 C 131.835 26.015, 128.087 13.724, 126.500 13.451 C 125.950 13.357, 115.825 13.831, 104 14.504 M 150.247 17.250 C 145.254 23.508, 141.384 42.682, 138.849 73.725 C 137.457 90.770, 137.753 92.232, 144.032 99.384 C 147.734 103.600, 148.906 103.808, 151.725 100.750 C 157.498 94.486, 160.414 76.689, 160.462 47.431 L 160.500 24.362 157.736 20.181 C 154.946 15.961, 152.149 14.867, 150.247 17.250 M 52.016 24.519 C 52.674 25.313, 58.764 28.725, 65.548 32.103 C 76.105 37.359, 78.392 38.149, 81.407 37.583 C 83.345 37.220, 85.162 36.548, 85.445 36.089 C 86.060 35.094, 67.918 27.816, 57.909 25.042 C 52.308 23.490, 51.071 23.380, 52.016 24.519 M 87.500 43.665 C 85.850 44.537, 83.666 45.981, 82.647 46.874 C 81.045 48.276, 78.189 48.453, 61.647 48.176 C 46.036 47.913, 42.138 48.124, 40.541 49.316 C 38.669 50.714, 38.800 50.917, 43.489 53.891 C 48.037 56.775, 65.643 64.018, 75.907 67.227 L 80.314 68.605 68.407 77.544 C 56.603 86.406, 37.288 104.478, 35.121 108.689 C 34.502 109.893, 34.342 111.093, 34.767 111.356 C 36.330 112.322, 46.823 107.795, 58.500 101.116 C 65.100 97.341, 72.300 93.651, 74.500 92.916 C 77.002 92.080, 83.464 91.565, 91.758 91.540 C 102.225 91.508, 104.911 91.226, 104.519 90.197 C 104.246 89.481, 103.325 82.056, 102.474 73.697 C 99.381 43.355, 97.026 38.632, 87.500 43.665 M 105.106 71 C 105.119 73.475, 105.663 79.100, 106.315 83.500 C 107.484 91.391, 107.542 91.504, 110.556 91.799 C 115.304 92.263, 119 90.460, 119 87.680 C 119 85.164, 113.273 75.828, 108.155 70 L 105.081 66.500 105.106 71 M 137.571 111.571 C 136.621 112.522, 136 114.875, 136 117.526 C 136 121.711, 136.152 121.938, 139.369 122.541 C 148.161 124.191, 150.055 121.214, 144.515 114.453 C 140.487 109.538, 139.864 109.279, 137.571 111.571 M 93.500 116.328 C 95.150 117.716, 99.764 120.717, 103.753 122.996 C 110.737 126.986, 111.412 127.161, 122.003 127.719 C 132.346 128.265, 132.999 128.187, 132.991 126.400 C 132.983 124.777, 130.320 123.809, 114.741 119.767 C 104.708 117.164, 95.150 114.758, 93.500 114.419 L 90.500 113.803 93.500 116.328 M 59.427 116.984 C 53.372 117.884, 47.386 120.551, 46.555 122.718 C 45.830 124.606, 48.195 128.450, 51.264 130.374 C 52.494 131.145, 56.354 132.078, 59.843 132.448 C 71.915 133.728, 74.481 136.574, 66.250 139.554 C 48.130 146.113, 41 151.658, 41 159.187 C 41 165.295, 44.244 171.038, 52.179 178.972 C 59.012 185.805, 61.212 187.084, 62.512 184.981 C 62.858 184.421, 65.472 182.761, 68.321 181.292 C 72.589 179.092, 75.171 178.551, 83 178.214 C 91.242 177.860, 94.486 178.272, 107.500 181.322 C 115.750 183.256, 124.613 185.147, 127.196 185.524 L 131.892 186.211 132.196 171.855 C 132.480 158.447, 132.344 157.183, 130.134 152.696 C 127.959 148.282, 127.537 147.943, 124.932 148.515 C 120.274 149.538, 108.380 154.365, 93.292 161.357 C 85.477 164.978, 77.940 168.228, 76.542 168.579 C 74.125 169.186, 74 169.013, 74 165.059 C 74 159.855, 75.851 156.216, 80.634 152.017 C 87.166 146.282, 98.147 142.432, 116.500 139.443 L 120.500 138.792 115.539 134.406 C 112.811 131.994, 108.476 129.322, 105.907 128.469 C 103.337 127.616, 100.446 126.045, 99.482 124.980 C 94.703 119.700, 71.847 115.137, 59.427 116.984 M 146.250 129.746 L 136 130.070 136 133.897 L 136 137.724 143.347 138.390 C 150.356 139.025, 151.147 138.871, 160.555 135.028 C 165.979 132.813, 170.548 131, 170.708 131 C 170.869 131, 171 130.550, 171 130 C 171 129.406, 168.057 129.086, 163.750 129.211 C 159.762 129.327, 151.887 129.568, 146.250 129.746 M 119.683 134.487 C 122.806 137.361, 125.438 138.935, 127.168 138.960 C 131.826 139.030, 133 138.058, 132.995 134.143 L 132.989 130.500 123.928 130.277 L 114.866 130.054 119.683 134.487 M 127.244 142.250 C 127.881 144.191, 133 144.472, 133 142.566 C 133 141.483, 132.049 141, 129.917 141 C 127.898 141, 126.975 141.432, 127.244 142.250 M 109.342 143.479 C 95.836 145.930, 88.151 149.062, 81.996 154.623 C 78.606 157.685, 75.049 164.382, 76.201 165.534 C 76.420 165.754, 84.003 162.550, 93.050 158.414 C 102.098 154.277, 112.875 149.716, 117 148.277 C 125.986 145.142, 125.587 145.412, 124.020 143.524 C 122.527 141.725, 119.071 141.714, 109.342 143.479 M 135.346 154.250 C 135.699 158.787, 135.991 167.787, 135.994 174.250 L 136 186 139.532 186 C 144.827 186, 154.866 182.269, 160.297 178.282 L 165.112 174.747 164.416 169.124 C 162.380 152.668, 155.861 146.067, 141.602 146.022 L 134.704 146 135.346 154.250 M 131.095 148.750 C 131.831 149.713, 132.561 150.688, 132.717 150.917 C 132.873 151.146, 133 150.358, 133 149.167 C 133 147.835, 132.375 147, 131.378 147 C 129.989 147, 129.948 147.252, 131.095 148.750" stroke="none" fill="black" fill-rule="evenodd"/>
</svg>