<svg xmlns="http://www.w3.org/2000/svg" width="200" height="200" viewBox="0 0 200 200" version="1.1">
	<path d="M 117.250 15.709 C 114.362 16.560, 112 17.586, 112 17.989 C 112 18.393, 110.909 18.514, 109.575 18.259 C 102.888 16.981, 94.997 23.245, 95.004 29.827 C 95.010 35.529, 97.851 39.316, 106.929 45.722 C 107.607 46.200, 103.983 57, 103.145 57 C 102.731 57, 100.210 51.713, 97.542 45.250 C 90.420 27.998, 86.241 20, 84.348 20 C 82.970 20, 82.818 20.807, 83.355 25.250 C 83.705 28.138, 84.268 31.726, 84.607 33.225 L 85.224 35.951 70.862 35.353 C 54.723 34.682, 36.527 36.159, 31.980 38.510 C 26.210 41.494, 28.654 45.777, 39.152 51.077 L 45.361 54.211 53.305 52.495 C 64.714 50.030, 71 51.448, 71 56.488 C 71 59.619, 67.560 63.655, 62.655 66.278 C 56.739 69.442, 39.980 69.413, 32.299 66.226 L 27.098 64.068 23.512 68.257 C 17.572 75.196, 17.460 79.503, 23.147 82.283 C 25.769 83.565, 30.829 84.312, 41.147 84.939 C 54.955 85.778, 59 86.446, 59 87.884 C 59 89.751, 55.143 93.483, 47.546 98.967 C 28.815 112.489, 19.808 128.222, 28.525 132.193 C 31.646 133.615, 37.525 132.016, 44.250 127.915 C 49.191 124.902, 49.655 124.908, 48.021 127.961 C 47.315 129.280, 47.440 130.120, 48.468 130.974 C 50.897 132.990, 52.902 139.969, 54.938 153.500 C 57.366 169.631, 59.357 175.889, 63.661 180.917 C 68.449 186.510, 74.201 188.496, 82.768 187.514 C 86.471 187.090, 98.275 186.629, 109 186.491 C 132.939 186.183, 144.808 184.299, 150.369 179.924 C 155.617 175.796, 152.600 170.680, 141.669 165.168 L 135.839 162.228 130.169 165.109 C 112.863 173.904, 88.036 169.731, 83.947 157.339 C 83.009 154.496, 83.158 153.305, 84.907 149.692 C 86.046 147.339, 88.471 143.966, 90.296 142.198 L 93.613 138.983 99.057 141.915 C 109.396 147.485, 122.542 148.179, 135.500 143.839 C 146.377 140.196, 151.782 134.368, 148.677 129.630 C 146.823 126.800, 142.836 125.283, 134.508 124.239 L 128.611 123.500 124.457 113.128 L 120.304 102.755 119.707 81.128 C 119.379 69.232, 118.381 51.917, 117.489 42.649 C 116.598 33.381, 116.061 25.605, 116.298 25.369 C 116.534 25.133, 117.648 27.090, 118.773 29.720 C 121.977 37.205, 123.162 53.155, 121.898 71.762 C 119.840 102.048, 123.387 115.807, 134.315 119.936 C 139.451 121.877, 141 121.364, 141 117.723 C 141 109.719, 147.393 105.248, 167.123 99.454 C 173.930 97.455, 180.512 95.175, 181.750 94.387 C 187.207 90.911, 183.150 87.879, 165 81.867 C 151.463 77.383, 147 75.446, 147 74.057 C 147 73.030, 152.298 71, 163 67.927 C 172.208 65.283, 179.585 61.644, 180.964 59.067 C 183.190 54.908, 181.346 49.767, 176.486 46.583 C 174.280 45.137, 173.759 45.204, 169.160 47.513 C 162.988 50.613, 157.435 50.757, 154.389 47.896 C 153.116 46.700, 150.550 41.119, 148.443 34.964 C 144.410 23.183, 140.680 17.600, 135.357 15.376 C 131.134 13.611, 123.915 13.744, 117.250 15.709 M 118.250 18.119 C 114.888 19.090, 114.055 20.423, 116.278 21.276 C 116.980 21.546, 118.807 24.067, 120.338 26.879 C 124.164 33.910, 125.122 44.500, 124.778 76 C 124.573 94.843, 124.842 102.631, 125.810 105.830 C 127.238 110.550, 132.254 116.491, 135.620 117.449 C 137.369 117.947, 137.844 117.530, 138.337 115.065 C 139.899 107.254, 150.146 100.927, 169.275 95.961 C 174.101 94.709, 178.800 93.136, 179.716 92.466 C 181.207 91.375, 181.074 91.090, 178.440 89.731 C 176.823 88.896, 169.875 86.367, 163 84.111 C 148.738 79.431, 144 76.920, 144 74.040 C 144 71.473, 146.827 70.076, 161 65.640 C 178.966 60.017, 182.267 56.851, 176.750 50.536 L 174.500 47.961 170.144 50.137 C 167.748 51.334, 163.597 52.525, 160.919 52.782 C 156.435 53.213, 155.783 52.983, 152.685 49.875 C 150.310 47.493, 148.496 43.998, 146.522 38 C 142.851 26.847, 140.751 22.810, 136.967 19.626 C 134.299 17.380, 132.952 17.013, 127.673 17.090 C 124.278 17.140, 120.037 17.603, 118.250 18.119 M 101.077 23.589 C 95.102 28.616, 98.024 37.467, 107.309 42.467 C 110.611 44.245, 110.711 44.464, 109.771 47.867 C 109.232 49.818, 107.781 53.699, 106.546 56.492 L 104.300 61.570 110.680 77.535 L 117.061 93.500 116.594 75 C 116.035 52.858, 113.234 22.802, 111.634 21.765 C 109.169 20.168, 104.101 21.044, 101.077 23.589 M 86.052 27 C 86.032 27.354, 88.878 38.500, 88.988 38.500 C 88.995 38.500, 78.088 38.502, 64.750 38.505 C 30.846 38.512, 25.429 40.443, 38.774 47.764 L 45.048 51.206 53.436 49.541 C 62.724 47.698, 67.645 48.146, 71.509 51.186 C 76.760 55.316, 73.212 63.453, 63.972 68.472 C 59.073 71.132, 57.558 71.446, 49.500 71.472 C 43.361 71.491, 38.472 70.881, 34.121 69.553 L 27.742 67.605 24.871 70.818 C 21.472 74.623, 21.137 78.468, 24.067 80.036 C 25.205 80.645, 32.790 81.541, 40.925 82.028 C 49.059 82.514, 56.879 83.443, 58.302 84.092 C 64.456 86.896, 62.077 91.536, 49.760 100.754 C 34.489 112.182, 26.224 122.929, 28.382 128.553 C 29.213 130.719, 34.389 130.030, 40.356 126.959 C 57.302 118.238, 87.629 87.067, 97.913 67.800 L 101.276 61.500 95.038 46.500 C 89.247 32.577, 86.120 25.791, 86.052 27 M 98.640 72.033 C 90.621 85.495, 76.123 102.182, 61 115.359 C 55.068 120.528, 54.768 120.970, 57.566 120.423 C 61.913 119.573, 67.253 121.249, 81.863 128.049 C 92.422 132.963, 95.574 134, 99.957 134 C 104.684 134, 105.610 133.633, 108.430 130.642 C 111.956 126.905, 114.508 119.442, 116.005 108.500 L 116.962 101.500 110.354 84.500 C 106.719 75.150, 103.419 67.139, 103.021 66.698 C 102.622 66.257, 100.651 68.658, 98.640 72.033 M 118.524 111.500 C 117.290 118.680, 114.864 126.434, 112.798 129.801 C 110.115 134.176, 106.660 136.314, 101.086 137.049 L 96.500 137.653 102.500 140.576 C 108.001 143.255, 109.374 143.494, 119 143.446 C 130.849 143.387, 138.671 141.073, 144.361 135.944 C 146.954 133.606, 147.309 132.800, 146.402 131.307 C 144.759 128.601, 138.251 126.754, 132.381 127.328 L 127.262 127.828 123.237 117.664 L 119.212 107.500 118.524 111.500 M 53.461 125.280 L 50.555 127.780 52.726 132.640 C 55.522 138.899, 55.569 139.098, 57.947 154.770 C 60.239 169.868, 62.770 176.713, 67.645 180.993 C 72.007 184.823, 74.672 185.435, 82.836 184.482 C 86.501 184.055, 95.800 183.810, 103.500 183.939 C 126.566 184.326, 146.664 181.201, 149.373 176.809 C 150.807 174.483, 148.006 171.542, 140.975 167.990 C 136.150 165.552, 135.213 165.371, 133.579 166.566 C 132.550 167.319, 128.736 168.927, 125.104 170.141 C 110.859 174.901, 92.999 172.167, 84.750 163.964 C 81.460 160.693, 81 159.649, 81 155.456 C 81 149.715, 84.257 143.582, 89.680 139.112 C 92.985 136.388, 93.165 136.007, 91.431 135.400 C 90.369 135.028, 84.142 132.238, 77.594 129.200 C 63.108 122.479, 57.732 121.606, 53.461 125.280" stroke="none" fill="black" fill-rule="evenodd"/>
</svg>