<svg xmlns="http://www.w3.org/2000/svg" width="200" height="200" viewBox="0 0 200 200" version="1.1">
	<path d="M 127.113 12.070 C 114.722 14.261, 93.980 22.780, 87.252 28.441 C 85.415 29.987, 83.554 30.766, 82.587 30.395 C 81.437 29.954, 81.143 30.208, 81.556 31.286 C 82.043 32.555, 80.260 32.908, 70.318 33.510 C 54.605 34.461, 42.169 36.351, 37.712 38.466 C 31.151 41.580, 31.882 46.067, 39.767 51.067 C 44.008 53.757, 45.185 54.008, 53.946 54.100 C 59.201 54.155, 64.625 54.521, 66 54.914 C 68.272 55.563, 67.999 55.815, 63 57.677 C 59.975 58.804, 53 61.201, 47.500 63.003 C 29.957 68.753, 22.982 73.185, 24.647 77.524 C 25.120 78.755, 26.040 79.042, 28.158 78.618 C 35.306 77.189, 46.745 76.837, 50.750 77.924 C 58.409 80.002, 56.613 83.764, 39.148 102.230 C 28.110 113.901, 26.537 117.344, 31.656 118.628 C 36.969 119.962, 45.697 117.392, 52.611 112.458 C 68.031 101.455, 86.666 80.798, 93.289 67.369 L 96.348 61.165 103.548 74.358 C 107.823 82.190, 111.031 89.368, 111.444 92.025 C 113.025 102.193, 115.952 106.552, 120.442 105.425 C 121.920 105.054, 123.517 105.940, 126.008 108.514 L 129.500 112.122 129.357 122.311 C 128.983 148.879, 117.975 167.886, 102.909 167.978 C 98.528 168.005, 90.831 165.774, 87.283 163.450 L 84.662 161.733 87.581 160.208 C 97.393 155.082, 110.733 141.885, 113.545 134.522 C 116.830 125.920, 112.212 118.629, 100.904 114.563 C 96.475 112.970, 93.816 112.794, 81.633 113.289 C 73.314 113.626, 65.408 114.504, 62.414 115.421 C 49.009 119.530, 52.272 127.311, 70.259 134.128 L 76.500 136.494 70.500 137.098 C 62.805 137.873, 58.090 139.916, 54.703 143.941 C 51.311 147.973, 50.596 150.796, 51.283 157.452 C 52.131 165.670, 60.668 180.597, 69.153 188.695 L 72.500 191.890 77.971 188.434 C 80.979 186.534, 85.929 184.044, 88.971 182.901 C 94.614 180.780, 97.447 180.745, 113.787 182.598 C 116.695 182.928, 120.140 182.931, 121.441 182.604 C 125.380 181.615, 133.157 174.779, 139.468 166.756 L 145.435 159.170 149.576 165.335 C 154.882 173.233, 162.186 180, 165.405 180 C 169.400 180, 172.003 175.696, 171.985 169.115 C 171.953 156.937, 168.009 146.243, 157.016 128.525 C 148.064 114.099, 144.692 111, 137.944 111 C 130.387 111, 129.903 109.086, 133.863 94.859 C 135.586 88.669, 137.436 83.164, 137.974 82.626 C 139.621 80.979, 142.495 84.530, 148.015 95.028 C 154.790 107.914, 158.714 112.540, 162.144 111.679 C 164.949 110.975, 167.325 106.523, 168.949 98.932 C 170.837 90.109, 173 63.575, 172.969 49.610 C 172.916 25.246, 170.402 13.838, 164.948 13.203 C 161.913 12.849, 160.140 14.611, 156.034 22.061 C 153.068 27.442, 153.036 27.465, 153.018 24.200 C 152.993 19.607, 150.536 15.329, 146.821 13.407 C 142.932 11.396, 134.254 10.808, 127.113 12.070 M 124.500 15.487 C 113.178 17.994, 94.283 25.784, 89.633 29.862 C 87.856 31.420, 87.973 31.524, 92.038 32 C 95.960 32.459, 96.428 32.828, 97.741 36.500 C 98.779 39.403, 99.011 42.944, 98.585 49.414 L 97.999 58.328 103.611 68.914 C 106.699 74.736, 109.659 79.950, 110.189 80.500 C 110.810 81.143, 110.918 76.861, 110.491 68.500 C 109.618 51.382, 108.354 43.401, 105.792 38.844 C 103.740 35.193, 103.732 34.991, 105.438 30.523 C 107.746 24.481, 112.943 19, 116.365 19 C 121.550 19, 126.530 25.152, 134.298 41.157 C 138.259 49.317, 141.746 55.995, 142.046 55.997 C 143.111 56.003, 146.948 42.548, 146.118 41.718 C 145.654 41.254, 146.327 38.315, 147.613 35.187 C 150.118 29.097, 150.675 22.130, 148.920 18.850 C 146.437 14.212, 136.464 12.839, 124.500 15.487 M 161.700 18.201 C 156.320 25.369, 146.658 49.061, 146.833 54.658 C 146.888 56.395, 146.112 58.870, 145.109 60.158 C 144.106 61.446, 142.262 65.967, 141.011 70.204 L 138.736 77.907 141.648 80.357 C 143.249 81.704, 147.182 87.688, 150.387 93.653 C 156.397 104.837, 159.436 109, 161.592 109 C 166.408 109, 170.663 74.046, 169.724 42.200 C 169.202 24.529, 168.204 18.244, 165.571 16.059 C 164.461 15.137, 163.673 15.573, 161.700 18.201 M 111.555 25.339 C 107.569 30.564, 106.589 34.302, 108.321 37.667 C 111.196 43.252, 112.058 48.786, 113.043 67.987 C 114.040 87.416, 114.053 87.490, 117.272 92.806 C 122.664 101.712, 123.103 101.859, 127.709 96.290 C 130.997 92.315, 132.468 88.905, 136.357 76.244 L 141.044 60.988 133.104 44.744 C 122.113 22.257, 117.248 17.876, 111.555 25.339 M 87.050 35.750 C 87.078 36.163, 89.080 40.325, 91.500 45 L 95.900 53.500 95.936 46.500 C 95.991 36.063, 95.523 35, 90.883 35 C 88.748 35, 87.023 35.337, 87.050 35.750 M 59.450 37.030 C 41.976 38.469, 34.372 41.018, 36.594 44.691 C 39.360 49.266, 43.369 50.672, 55.325 51.261 C 66.862 51.829, 71 52.925, 71 55.413 C 71 57.720, 68.879 58.737, 52.378 64.341 C 36.179 69.842, 28.698 73.062, 27.461 75.063 C 26.986 75.832, 28.223 75.934, 31.643 75.409 C 34.314 75, 39.994 74.657, 44.265 74.648 C 50.528 74.635, 52.559 75.025, 54.765 76.666 C 60.668 81.057, 58.856 84.985, 43.415 101.260 C 37.137 107.878, 32 113.902, 32 114.646 C 32 116.212, 36.534 116.409, 42.210 115.091 C 50.011 113.278, 75.436 90.101, 84.861 76.209 C 89.654 69.146, 93.975 60.399, 93.990 57.732 C 93.996 56.759, 91.746 51.472, 88.991 45.982 L 83.982 36 76.241 36.143 C 71.983 36.221, 64.428 36.620, 59.450 37.030 M 115.462 97.494 C 116.218 100.734, 117.725 103, 119.122 103 C 120.614 103, 120.107 101.530, 117.382 97.944 L 114.764 94.500 115.462 97.494 M 126.977 100.525 C 124.803 102.838, 124.742 103.171, 126.223 104.652 C 127.704 106.132, 127.919 105.954, 128.890 102.437 C 129.471 100.334, 129.810 98.476, 129.644 98.310 C 129.477 98.144, 128.277 99.140, 126.977 100.525 M 131.739 125.500 C 130.877 145.834, 124.413 160.760, 113.565 167.465 C 109.321 170.088, 107.734 170.492, 101.876 170.444 C 96.059 170.397, 94.026 169.845, 87.549 166.557 C 83.397 164.450, 80.023 162.225, 80.050 161.613 C 80.078 161.001, 82.665 159.270, 85.800 157.766 C 97.830 151.996, 110.604 138.368, 111.710 130.126 C 112.231 126.243, 111.988 125.678, 108.269 122.141 C 102.461 116.616, 97.798 115.620, 80.725 116.255 C 65.894 116.807, 59.473 118.213, 57.598 121.317 C 56.689 122.822, 57.015 123.554, 59.500 125.576 C 63.394 128.744, 75.846 133.548, 88.750 136.861 C 94.902 138.440, 99 139.993, 99 140.746 C 99 141.436, 98.854 142, 98.676 142 C 98.498 142, 93.661 141.293, 87.926 140.428 C 71.946 138.020, 62.282 139.637, 57.050 145.596 C 54.411 148.602, 54 149.839, 54.001 154.785 C 54.002 161.637, 57.661 170.121, 64.361 178.804 C 72.212 188.978, 71.339 188.745, 81.625 183.423 C 92.414 177.841, 99.744 176.809, 109.859 179.451 C 113.428 180.383, 117.492 180.831, 119.124 180.473 C 123.661 179.476, 131.192 172.896, 138.489 163.551 C 142.161 158.848, 145.466 155.016, 145.833 155.036 C 146.200 155.055, 148.300 158.007, 150.500 161.596 C 155.848 170.320, 162.299 177, 165.376 177 C 168.352 177, 169 175.413, 169 168.128 C 169 156.526, 164.611 145.086, 153.797 128.500 C 145.464 115.718, 143.853 114.281, 137.374 113.845 L 132.248 113.500 131.739 125.500" stroke="none" fill="black" fill-rule="evenodd"/>
</svg>