<svg xmlns="http://www.w3.org/2000/svg" width="200" height="200" viewBox="0 0 200 200" version="1.1">
	<path d="M 98.500 9.581 C 93.550 10.344, 84.734 11.876, 78.908 12.984 C 73.082 14.093, 66.461 15, 64.193 15 C 61.191 15, 59.799 15.508, 59.070 16.869 C 57.647 19.527, 58.467 19.871, 63.608 18.775 C 67.437 17.958, 69.421 18.207, 76.396 20.382 C 85.983 23.371, 94.647 27.112, 97.500 29.494 L 99.500 31.163 97.500 30.461 C 82.488 25.193, 62 22.015, 62 24.955 C 62 25.952, 64.609 26.500, 74.304 27.537 C 81.267 28.281, 93.278 31.503, 96.894 33.595 C 99.287 34.980, 98.477 35.059, 87 34.558 C 80.125 34.258, 72.588 33.726, 70.250 33.375 C 66.871 32.867, 66 33.041, 66 34.222 C 66 36.744, 93.862 39.047, 100.688 37.090 C 102.971 36.435, 104.373 36.552, 105.680 37.508 C 106.679 38.239, 107.208 39.125, 106.856 39.478 C 106.061 40.272, 91.823 41.601, 69.500 42.963 C 60.150 43.534, 50.788 44.479, 48.695 45.063 C 40.213 47.429, 43.811 52.072, 57.621 56.583 C 65.088 59.021, 67.843 59.437, 74.943 59.199 L 83.386 58.916 81.469 61.034 C 80.415 62.199, 72.086 67.382, 62.959 72.552 C 38.180 86.589, 34.115 89.973, 37.710 93.567 C 39.198 95.055, 41.007 95.204, 51.875 94.735 L 64.335 94.197 67.418 90.671 C 72.467 84.894, 78.017 82.759, 89.429 82.201 C 94.890 81.934, 104.473 82.286, 110.725 82.982 L 122.093 84.249 124.546 89.091 C 125.896 91.755, 127 94.127, 127 94.364 C 127 95.650, 110.695 97.241, 89.042 98.069 C 38.665 99.995, 31.086 101.004, 29.502 105.994 C 27.288 112.969, 46.044 119.960, 67 119.971 C 78.482 119.977, 84.308 118.743, 93.500 114.361 C 99.432 111.532, 99.709 111.500, 118 111.500 L 136.500 111.500 136.824 114.888 C 137.002 116.752, 136.894 119.287, 136.584 120.522 L 136.020 122.767 116.760 122.258 C 96.801 121.731, 76.245 123.020, 71.717 125.083 C 64.413 128.411, 69.749 133.819, 86.536 140.099 C 91.986 142.139, 92.323 142.148, 101.160 140.524 C 110.618 138.786, 125.003 138.231, 128.861 139.456 C 132.484 140.606, 130.960 143.263, 125.492 145.331 C 115.234 149.211, 98.729 148.620, 82.115 143.780 C 74.771 141.640, 74.711 141.639, 71.146 143.564 C 66.005 146.341, 62.995 151.281, 63.022 156.898 C 63.101 173.479, 85.738 192, 105.924 192 C 111.863 192, 120.976 189.801, 124.590 187.497 C 126.340 186.381, 128.293 186.409, 136.590 187.673 C 147.950 189.403, 159.217 188.940, 164.286 186.535 C 172.088 182.832, 170.805 175.631, 161.593 171.414 C 150.605 166.383, 136.475 167.505, 122.547 174.512 C 115.939 177.837, 115.525 177.919, 113.153 176.365 C 108.939 173.604, 102 166.814, 102 165.452 C 102 163.302, 106.475 162.957, 131 163.217 C 152.949 163.450, 154.797 163.330, 159 161.396 C 165.272 158.510, 166.350 156.926, 165.558 151.769 C 165.197 149.421, 164.585 142.697, 164.198 136.827 C 163.406 124.838, 162.270 122.722, 154.500 118.772 C 152.300 117.654, 149.170 115.801, 147.545 114.655 L 144.590 112.572 150.953 111.284 C 164.036 108.636, 167.295 103.451, 167.785 84.500 C 168.026 75.215, 168.585 70.500, 169.741 68 C 171.913 63.307, 172.543 49.680, 171.027 40.195 C 166.621 12.629, 156.174 6.580, 149.150 27.528 C 147.396 32.758, 143.893 48.381, 142.765 56 C 142.437 58.219, 142.248 58.050, 141.085 54.500 C 140.294 52.086, 139.628 43.851, 139.405 33.736 C 138.992 14.919, 138.256 12.299, 132.643 9.635 C 128.323 7.585, 111.619 7.559, 98.500 9.581 M 112 10.656 C 106.945 11.125, 75.650 16.060, 75.228 16.456 C 75.078 16.596, 78.925 18.130, 83.775 19.865 C 93.831 23.462, 103.606 29.183, 104.498 31.994 C 104.831 33.043, 106.768 34.928, 108.802 36.183 C 122.893 44.879, 127.346 55.614, 120.555 64.517 C 118.062 67.786, 118.019 68.033, 119.715 69.418 C 120.697 70.220, 124.113 72.975, 127.306 75.539 C 131.621 79.004, 133.034 80.754, 132.806 82.351 C 132.576 83.965, 131.690 84.578, 129.250 84.813 C 127.463 84.986, 126 85.341, 126 85.603 C 126 85.865, 126.919 87.880, 128.041 90.081 L 130.082 94.082 134.166 91.791 C 136.412 90.531, 138.427 89.041, 138.644 88.481 C 138.860 87.920, 139.613 82.348, 140.318 76.097 C 141.497 65.634, 141.451 64.295, 139.740 59.224 C 137.205 51.716, 135.902 39.152, 136.649 29.422 C 137.404 19.586, 136.043 14.591, 132.046 12.524 C 128.974 10.935, 119.008 10.007, 112 10.656 M 156.111 19.586 C 149.242 28.319, 144.881 52.148, 146.063 74.500 C 146.377 80.440, 146.038 82.333, 143.829 87 C 141.965 90.937, 141.060 94.844, 140.644 100.750 L 140.063 109 145.382 109 C 155.220 109, 159.963 106.364, 163.376 99 C 165.137 95.200, 165.464 92.540, 165.481 81.905 C 165.495 72.280, 165.849 68.890, 166.980 67.526 C 169.184 64.868, 169.589 47.446, 167.682 37.332 C 165.898 27.875, 162.476 19.325, 159.930 17.963 C 158.534 17.215, 157.695 17.572, 156.111 19.586 M 110.548 43.250 C 113.812 54.007, 117.170 64, 117.521 64 C 118.507 64, 121 57.897, 121 55.484 C 121 52.023, 119.517 49.288, 115.179 44.750 C 111.099 40.482, 109.556 39.982, 110.548 43.250 M 101.917 43.412 C 101.688 43.639, 92.050 44.333, 80.500 44.955 C 60.133 46.051, 48.357 47.310, 47.147 48.520 C 46.150 49.517, 49.113 50.893, 59 54.024 C 67.196 56.619, 69.461 56.949, 75.500 56.429 C 80.941 55.961, 82.945 56.167, 84.500 57.355 C 86.074 58.558, 86.276 59.268, 85.446 60.691 C 84.087 63.023, 72.186 70.789, 57.539 78.902 C 51.182 82.424, 44.316 86.743, 42.282 88.502 L 38.583 91.699 42.042 92.331 C 43.944 92.678, 49.405 92.552, 54.178 92.050 C 62.441 91.182, 63.053 90.947, 66.985 87.130 C 73.086 81.209, 78.995 79.510, 93.500 79.504 C 100.100 79.502, 108.986 79.890, 113.246 80.367 L 120.991 81.234 118.905 76.367 C 117.758 73.690, 115.888 70.695, 114.749 69.710 C 113.361 68.509, 113.011 67.589, 113.686 66.914 C 114.361 66.239, 113.519 62.138, 111.126 54.454 C 107.771 43.681, 107.404 43, 104.946 43 C 103.509 43, 102.146 43.185, 101.917 43.412 M 143.252 76.500 C 143.263 78.700, 143.468 79.482, 143.707 78.238 C 143.946 76.994, 143.937 75.194, 143.687 74.238 C 143.437 73.282, 143.241 74.300, 143.252 76.500 M 121 74.382 C 121 74.685, 121.758 76.522, 122.685 78.466 C 124.037 81.301, 124.939 82, 127.244 82 C 128.825 82, 129.860 81.583, 129.545 81.073 C 128.742 79.773, 121 73.711, 121 74.382 M 134.750 94.572 C 133.238 95.393, 132 96.284, 132 96.553 C 132 97.979, 137.531 105.133, 137.701 103.927 C 138.257 99.985, 138.453 93.005, 138.007 93.040 C 137.728 93.062, 136.262 93.751, 134.750 94.572 M 120.579 98.519 C 116.773 99.207, 104.848 100.064, 94.079 100.425 C 52.567 101.817, 34 103.573, 32.337 106.264 C 31.254 108.016, 36.458 111.659, 43.186 113.860 C 59.046 119.047, 77.445 118.692, 89.829 112.961 C 98.683 108.862, 106.910 107.677, 122.944 108.189 L 136.641 108.626 132.629 102.813 C 130.423 99.616, 128.367 97.061, 128.059 97.135 C 127.752 97.209, 124.386 97.832, 120.579 98.519 M 139.367 118.464 L 138.500 124.929 108.500 125.323 C 80.049 125.696, 71 126.561, 71 128.908 C 71 129.911, 80.845 135.126, 87.181 137.480 C 91.566 139.109, 92.460 139.117, 101.305 137.610 C 118.069 134.752, 132.159 135.774, 133.482 139.943 C 134.415 142.882, 133.051 144.797, 128.433 147.033 C 118.881 151.656, 100.553 151.859, 85 147.512 C 73.784 144.377, 73.404 144.396, 69.527 148.273 C 66.474 151.326, 66 152.443, 66 156.584 C 66 159.447, 66.879 163.203, 68.187 165.934 C 71.331 172.497, 80.651 181.240, 88.698 185.174 C 95.089 188.299, 96.135 188.500, 106 188.500 C 115.400 188.500, 117.024 188.225, 121.500 185.873 L 126.500 183.246 135.500 184.709 C 145.520 186.338, 159.021 185.998, 163.195 184.012 C 171.712 179.958, 163.314 172.129, 149.480 171.225 C 140.824 170.660, 132.519 172.642, 122.491 177.667 L 115.204 181.320 110.183 177.634 C 104.380 173.375, 99 167.554, 99 165.537 C 99 163.525, 101.789 161.035, 104.321 160.785 C 105.520 160.667, 117.300 160.554, 130.500 160.535 C 150.286 160.506, 155.115 160.220, 158 158.905 C 163.759 156.280, 164.546 154.718, 162.632 149.705 C 161.605 147.016, 161 142.406, 161 137.264 C 161 132.770, 160.492 127.980, 159.872 126.618 C 159.226 125.200, 156.201 122.787, 152.790 120.969 C 149.516 119.224, 145.351 116.491, 143.536 114.897 L 140.234 111.998 139.367 118.464" stroke="none" fill="black" fill-rule="evenodd"/>
</svg>