<svg xmlns="http://www.w3.org/2000/svg" width="200" height="200" viewBox="0 0 200 200" version="1.1">
	<path d="M 132.849 14.529 C 130.199 15.959, 126.738 21.946, 125.418 27.381 C 125.033 28.965, 123.883 30.479, 122.864 30.746 C 121.261 31.165, 121.088 31.927, 121.590 36.365 C 121.910 39.189, 121.680 45.325, 121.079 50 C 120.479 54.675, 119.747 64.350, 119.452 71.500 C 119.157 78.650, 118.669 86.932, 118.367 89.904 L 117.818 95.308 115.814 90.904 C 114.712 88.482, 111.166 79.903, 107.935 71.840 L 102.060 57.181 103.664 52.472 C 104.934 48.746, 105.142 45.441, 104.662 36.632 C 104.329 30.509, 103.766 24.262, 103.411 22.750 C 102.577 19.190, 104.281 19.148, 109.365 22.602 C 112.013 24.401, 113.516 24.884, 114.233 24.167 C 115.527 22.873, 106.659 17, 103.411 17 C 100.352 17, 99.732 19.426, 101.130 25.923 C 102.673 33.089, 102.802 47.931, 101.344 50.431 C 100.379 52.086, 99.701 50.765, 96.609 41.200 C 94.624 35.060, 93 29.354, 93 28.518 C 93 26.515, 91.028 26.580, 89.526 28.633 C 87.694 31.140, 80.434 31.875, 56.899 31.940 C 35.480 31.999, 29.702 32.728, 28.636 35.506 C 27.748 37.820, 31.598 41.541, 38.793 45.322 C 45.656 48.928, 45.693 48.935, 55.586 48.405 C 67.894 47.745, 69.961 48.693, 65.370 52.893 C 63.649 54.468, 59.374 56.700, 55.870 57.853 C 43.399 61.956, 32.499 62.697, 17.500 60.462 L 13.500 59.866 18 64.043 C 23.332 68.993, 30.470 72.720, 41.740 76.438 C 46.271 77.934, 50.238 79.576, 50.554 80.088 C 52.439 83.138, 44.495 90.265, 23.288 104.549 C 13.665 111.031, 13.170 111.530, 14.697 113.218 C 17.207 115.991, 22.960 117.145, 28.777 116.042 C 46.853 112.614, 74.981 93.567, 88.649 75.500 C 91.561 71.650, 95.443 66.784, 97.276 64.686 L 100.607 60.872 104.427 70.686 C 106.528 76.084, 110.441 85.420, 113.123 91.433 L 118 102.365 118 113.683 C 118 119.907, 117.812 125, 117.583 125 C 117.354 125, 115.147 124.135, 112.681 123.077 C 110.214 122.020, 103.314 119.883, 97.348 118.327 C 86.721 115.558, 86.004 115.504, 62.109 115.719 C 35.303 115.959, 31 116.631, 31 120.571 C 31 123.640, 35.485 126.944, 50.883 135.218 C 64.209 142.379, 63.813 143.062, 47.809 140.518 C 37.987 138.956, 37.521 138.966, 35.057 140.794 C 26.692 146.999, 30.088 166.696, 41.655 179.063 C 48.629 186.518, 52.867 188.472, 62 188.441 C 68.734 188.418, 70.214 188.032, 76.500 184.660 C 80.350 182.595, 85.658 178.971, 88.296 176.608 L 93.092 172.311 86.623 171.239 C 74.661 169.257, 70.134 165.505, 71.972 159.097 C 72.451 157.428, 73.507 155.114, 74.320 153.954 C 77.088 150.001, 92.283 134.950, 92.893 135.556 C 93.227 135.888, 93.755 145.462, 94.066 156.830 C 94.669 178.826, 95.405 182.505, 100.078 186.858 C 104.098 190.603, 112.162 189.165, 119.797 183.341 C 122.897 180.977, 123.539 180.845, 126.967 181.872 C 145.643 187.467, 155.237 174.987, 153.699 147.098 C 153.115 136.501, 149.551 119.838, 146.707 114.409 L 145.250 111.629 143.604 117.291 C 142.699 120.404, 141.173 123.372, 140.213 123.886 C 136.708 125.762, 131.886 121.161, 124.990 109.360 C 121.197 102.869, 121.005 102.136, 121.096 94.516 L 121.192 86.500 122.386 93 C 123.741 100.371, 125.196 103.499, 127.957 104.977 C 133.101 107.730, 139.100 105.167, 147.509 96.623 C 150.282 93.805, 157.339 88.240, 163.192 84.257 C 169.044 80.273, 175.221 75.625, 176.917 73.930 C 184.287 66.559, 178.545 63.164, 155.768 61.423 L 148.035 60.833 149.421 58.153 C 154.318 48.684, 150.575 26.373, 142.615 17.581 C 138.843 13.414, 136.354 12.636, 132.849 14.529 M 133.884 17.005 C 132.995 17.524, 131.308 20.180, 130.135 22.907 C 125.847 32.875, 125.055 39.322, 124.771 66.567 C 124.476 94.836, 125.119 99.721, 129.517 102.603 C 131.785 104.089, 132.252 104.055, 136.227 102.113 C 138.577 100.965, 142.952 97.535, 145.949 94.491 C 148.946 91.446, 156.679 85.334, 163.134 80.908 C 169.589 76.482, 175.400 72.223, 176.047 71.443 C 179.473 67.315, 172.657 65.168, 153.357 64.295 C 143.507 63.850, 140 63.356, 140 62.415 C 140 61.713, 140.967 60.995, 142.150 60.820 C 143.332 60.644, 145.244 59.230, 146.400 57.677 C 151.261 51.141, 147.910 28.200, 140.842 19.624 C 137.732 15.852, 136.592 15.423, 133.884 17.005 M 87.500 33.230 C 85.850 33.747, 73.475 34.378, 60 34.633 C 46.525 34.888, 34.437 35.321, 33.138 35.595 C 30.910 36.066, 30.871 36.199, 32.444 37.938 C 33.361 38.951, 36.809 41.219, 40.106 42.976 C 45.917 46.073, 46.357 46.150, 54.452 45.475 C 78.839 43.444, 74.776 56.549, 49.122 62.668 C 45.480 63.536, 37.902 64.286, 32.282 64.334 C 26.533 64.384, 22.597 64.785, 23.282 65.251 C 26.865 67.691, 34.461 71.035, 42 73.490 C 51.460 76.572, 54 78.268, 54 81.502 C 54 85.383, 44.095 93.991, 25.250 106.486 C 21.262 109.130, 18 111.657, 18 112.101 C 18 113.970, 25.370 114.197, 31.570 112.518 C 48.299 107.990, 76.457 88.355, 85.926 74.615 C 87.485 72.352, 90.427 68.700, 92.462 66.500 C 99.666 58.715, 99.692 58.482, 94.947 44.674 C 92.647 37.978, 90.705 32.453, 90.632 32.395 C 90.559 32.337, 89.150 32.713, 87.500 33.230 M 121.030 118.143 C 121.006 125.953, 121.295 127.899, 122.551 128.381 C 123.911 128.903, 124.018 127.896, 123.423 120.238 C 122.452 107.755, 121.067 106.543, 121.030 118.143 M 60.500 118.012 C 57.750 118.459, 51 118.871, 45.500 118.928 C 40 118.984, 34.933 119.391, 34.239 119.831 C 32.186 121.135, 36.304 124.190, 50 131.524 C 64.314 139.189, 67.533 141.652, 65.865 143.663 C 64.418 145.406, 61.116 145.349, 48.353 143.361 C 37.838 141.724, 37.831 141.724, 35.666 143.895 C 33.824 145.742, 33.509 147.166, 33.559 153.424 C 33.609 159.664, 34.122 161.806, 36.933 167.515 C 43.219 180.283, 50.454 185.462, 62 185.457 C 70.056 185.453, 73.914 184.008, 82.797 177.663 L 87.094 174.593 80.980 172.920 C 69.061 169.657, 65.839 162.571, 71.962 153.088 C 75.210 148.059, 90.998 132, 92.695 132 C 95.864 132, 96.466 135.383, 97.028 156.381 C 97.503 174.135, 97.889 178.111, 99.450 181.333 C 102.715 188.074, 107.988 188.096, 117.699 181.407 L 122.918 177.813 129.218 179.392 C 144.312 183.178, 151.015 174.764, 150.987 152.068 C 150.974 141.349, 148.109 123.709, 146.047 121.647 C 145.318 120.918, 145 120.964, 145 121.800 C 145 123.951, 141.064 127, 138.288 127 C 136.448 127, 134.172 125.633, 131.212 122.750 L 126.849 118.500 127.425 122 C 130.356 139.813, 130.976 165.303, 128.559 168.559 C 126.678 171.091, 124.325 169.750, 121.266 164.404 C 119.311 160.986, 119.031 159.055, 119.016 148.890 C 119.007 142.504, 118.715 135.201, 118.367 132.661 L 117.734 128.043 110.040 125.075 C 95.779 119.576, 71.858 116.165, 60.500 118.012 M 121.352 139.904 C 121.708 145.076, 122.002 151.826, 122.004 154.904 C 122.006 158.882, 122.631 161.512, 124.164 164 L 126.320 167.500 127.218 164.500 C 128.320 160.815, 127.300 142.627, 125.966 142.167 C 125.435 141.983, 125 140.141, 125 138.072 C 125 135.481, 124.331 133.717, 122.852 132.405 L 120.704 130.500 121.352 139.904" stroke="none" fill="black" fill-rule="evenodd"/>
</svg>