<svg xmlns="http://www.w3.org/2000/svg" width="200" height="200" viewBox="0 0 200 200" version="1.1">
	<path d="M 131.758 13.171 C 131.418 16.706, 131.819 20.069, 132.983 23.461 C 133.935 26.233, 135.783 36.979, 137.090 47.343 C 139.456 66.102, 139.458 66.192, 137.483 67.670 C 136.057 68.737, 133.619 69.053, 128.804 68.797 C 125.121 68.601, 121.833 68.167, 121.498 67.832 C 121.164 67.497, 120.070 63.235, 119.069 58.361 C 114.957 38.350, 107.615 29.483, 95.296 29.651 C 89.885 29.725, 78.860 33.259, 76.982 35.521 C 75.068 37.828, 77.585 38.019, 81.972 35.900 C 101.344 26.540, 112.653 35.160, 117.108 62.683 L 118.271 69.866 123.217 71.052 C 125.938 71.705, 130.377 72.026, 133.082 71.766 C 136.292 71.458, 137.993 71.677, 137.981 72.397 C 137.938 74.829, 135.420 83.112, 134.754 83.012 C 134.362 82.954, 131.895 81.933, 129.271 80.743 C 122.670 77.751, 110.925 77.200, 103.847 79.551 C 99.448 81.012, 96.755 83.112, 87.812 92.055 C 65.608 114.259, 46.408 125.229, 37.418 120.849 C 35.894 120.107, 34.516 119.050, 34.355 118.500 C 34.193 117.950, 36.500 116.024, 39.480 114.220 C 42.460 112.416, 48.490 107.560, 52.881 103.430 C 66.158 90.940, 70.011 83.019, 64.551 79.442 C 62.444 78.061, 61.301 78.003, 56.368 79.027 C 53.215 79.682, 48.804 80.872, 46.567 81.671 L 42.500 83.124 38.250 78.465 C 35.721 75.693, 34 72.833, 34 71.403 C 34 70.081, 34.112 68.937, 34.250 68.860 C 34.388 68.783, 43.277 68.442, 54.005 68.104 C 73.105 67.501, 73.632 67.426, 79.460 64.494 C 86.064 61.171, 88.720 58.174, 89.969 52.636 C 90.762 49.121, 90.693 48.968, 88.653 49.713 C 87.469 50.146, 81.775 50.459, 76 50.409 C 67.502 50.335, 63.975 49.813, 57.500 47.675 C 49.953 45.182, 42.806 40.881, 44.076 39.597 C 45.093 38.569, 55.100 37, 60.636 37 C 63.844 37, 66 36.561, 66 35.909 C 66 35.169, 62.633 34.928, 55.525 35.159 C 46.347 35.458, 44.781 35.770, 42.868 37.685 C 40.807 39.748, 40.776 40.009, 42.306 42.344 C 46.133 48.185, 62.577 53.420, 77.249 53.468 C 82.611 53.486, 86.998 53.803, 86.999 54.173 C 86.999 54.544, 85.877 56.182, 84.504 57.813 C 79.897 63.288, 75.552 64.312, 54.277 64.936 C 36.392 65.461, 34.906 65.648, 32.922 67.633 C 29.876 70.680, 31.098 74.880, 36.853 81.138 L 41.538 86.233 49.820 83.617 C 63.275 79.366, 66.529 80.403, 62.880 87.778 C 60.155 93.286, 43.965 108.605, 36.224 113 C 32.833 114.925, 30.046 117.022, 30.030 117.661 C 30.013 118.300, 31.385 119.987, 33.077 121.411 C 35.663 123.587, 37.142 124, 42.355 124 C 54.020 124, 67.179 115.807, 87.543 95.865 C 99.843 83.819, 103.096 81.692, 111 80.527 C 119.300 79.303, 134 84.201, 134 88.190 C 134 90.914, 128.460 109.760, 125.913 115.704 C 123.084 122.303, 119.309 127, 116.834 127 C 115.699 127, 113.340 125.439, 111.592 123.530 C 108.900 120.592, 107.043 119.735, 99.457 117.932 C 87.568 115.105, 79.009 115.536, 75.404 119.142 C 71.827 122.718, 70.891 127.946, 72.025 138 C 72.552 142.675, 72.987 150.591, 72.992 155.590 C 72.999 163.737, 73.320 165.322, 76.085 170.854 C 79.309 177.306, 82.920 180.747, 89.554 183.687 C 92.897 185.169, 95.793 185.375, 108.500 185.035 C 138.187 184.239, 147.251 184.492, 151.200 186.229 C 154.834 187.827, 154.966 187.807, 158.700 185.092 C 165.273 180.311, 170.158 174.195, 169.810 171.181 C 169.330 167.026, 163.970 165.667, 151 166.413 C 145.225 166.745, 133.269 167.302, 124.430 167.650 L 108.360 168.284 107.021 165.050 C 105.886 162.310, 105.896 161.677, 107.090 160.908 C 107.866 160.409, 118.625 160.113, 131 160.250 C 156.075 160.528, 159.394 159.886, 164.557 153.750 C 168.229 149.386, 167.555 146.028, 162.500 143.500 C 157.935 141.217, 147.461 140.915, 122 142.330 C 104.685 143.293, 103.506 142.908, 106.519 137.274 C 108.843 132.930, 110.046 132.772, 119.500 135.564 C 128.229 138.142, 145.286 137.901, 154.204 135.073 C 169.927 130.089, 171.187 122.001, 156.993 117.176 L 151.607 115.345 154.819 113.448 C 165.171 107.333, 168.776 91.447, 169.104 50.500 C 169.262 30.830, 169.133 29.183, 167.069 24.500 C 164.520 18.717, 161.363 15, 159 15 C 154.903 15, 151.151 21.824, 146.662 37.441 L 143.371 48.893 140.540 39.196 C 138.984 33.863, 136.977 24.809, 136.081 19.075 C 134.261 7.432, 132.535 5.075, 131.758 13.171 M 155.689 20.949 C 152.913 25.649, 151.069 31.380, 146.576 49.274 L 142.364 66.048 144.120 79.872 C 145.536 91.019, 146.455 94.840, 148.865 99.598 C 150.509 102.844, 152.165 106.757, 152.546 108.294 C 153.430 111.861, 154.814 111.363, 158.275 106.234 C 163.677 98.229, 165.110 89.422, 165.962 59 C 166.673 33.583, 166.592 31.142, 164.891 26.777 C 161.178 17.249, 158.774 15.727, 155.689 20.949 M 139.107 80.414 C 138.400 83.572, 137.974 86.238, 138.161 86.338 C 138.347 86.439, 139.436 87.304, 140.579 88.261 L 142.658 90.001 141.790 83.250 C 140.597 73.974, 140.557 73.933, 139.107 80.414 M 135.974 93.153 C 132.841 104.943, 127.746 119.009, 125.094 123.191 C 120.063 131.124, 115.546 131.816, 109.661 125.554 C 107.131 122.861, 105.064 121.872, 99.303 120.595 C 90.818 118.715, 82.116 118.534, 78.538 120.165 C 74.523 121.994, 73.580 126.832, 74.890 138.877 C 75.501 144.488, 76 152.609, 76 156.925 C 76 163.572, 76.427 165.589, 78.793 170.119 C 84.860 181.731, 92.492 183.951, 119.928 182.084 C 138.281 180.835, 148.172 181.416, 153.057 184.031 C 154.234 184.660, 155.973 183.813, 159.520 180.882 C 171.957 170.605, 169.653 168.169, 148.621 169.357 C 142.504 169.703, 130.680 170.280, 122.345 170.640 L 107.191 171.294 105.046 167.090 C 100.354 157.894, 103.692 156.575, 129.253 157.529 C 150.798 158.332, 157.462 157.330, 161.887 152.620 C 165.070 149.232, 164.279 146.772, 159.486 145.155 C 155.504 143.811, 147.380 143.904, 117.832 145.631 C 107.323 146.246, 107.126 146.216, 104.587 143.678 C 102.341 141.432, 102.147 140.743, 103.074 138.305 C 103.659 136.767, 105.222 134.086, 106.548 132.348 L 108.960 129.186 115.761 131.552 C 129.145 136.206, 147.802 135.705, 158.750 130.398 C 166.589 126.598, 165.549 122.901, 155.715 119.604 C 149.072 117.377, 148.479 117.512, 148.490 121.250 C 148.497 123.411, 148.019 124.500, 147.065 124.500 C 145.237 124.500, 142.583 114.876, 144.145 113.910 C 145.513 113.065, 144.222 98.426, 142.478 94.998 C 141.778 93.621, 140.288 91.665, 139.167 90.651 C 137.154 88.829, 137.115 88.860, 135.974 93.153 M 147.481 106.500 C 147.754 108.700, 147.983 111.513, 147.989 112.750 C 147.996 114.156, 148.610 115, 149.625 115 C 151.524 115, 151.092 111.371, 148.538 105.856 L 146.983 102.500 147.481 106.500" stroke="none" fill="black" fill-rule="evenodd"/>
</svg>