<svg xmlns="http://www.w3.org/2000/svg" width="200" height="200" viewBox="0 0 200 200" version="1.1">
	<path d="M 108 9.607 C 87.818 11.344, 55.571 16.072, 50.343 18.060 C 46.010 19.707, 48.714 20.717, 56.217 20.254 C 64.862 19.720, 75.483 21.921, 81.622 25.519 C 86.209 28.207, 91.812 34.229, 90.219 34.760 C 89.665 34.945, 85.226 33.970, 80.356 32.592 C 71.442 30.072, 56.372 27, 52.921 27 C 51.759 27, 51.260 27.513, 51.588 28.369 C 51.894 29.165, 54.335 29.999, 57.422 30.362 C 64.840 31.234, 86.127 36.715, 87.426 38.087 C 89.042 39.795, 68.955 38.567, 61.189 36.483 C 55.037 34.832, 52.628 35.028, 54.616 37.016 C 56.269 38.669, 73.105 41.956, 80 41.972 C 83.951 41.982, 87.664 41.380, 89.470 40.439 C 92.335 38.945, 92.727 39.033, 100.637 42.953 C 109.362 47.276, 114 51.646, 114 55.542 C 114 58.234, 108.115 65.538, 106.943 64.301 C 106.525 63.861, 105.061 59.810, 103.688 55.301 C 101.938 49.548, 101.537 46.975, 102.347 46.676 C 103.154 46.378, 103.185 45.913, 102.453 45.128 C 101.700 44.321, 99.170 44.277, 93.453 44.970 C 80.752 46.512, 54.655 48, 40.326 48 C 33.062 48, 26.864 48.411, 26.553 48.914 C 25.548 50.540, 37.970 57.904, 45.843 60.351 C 50.054 61.659, 57.649 63.519, 62.721 64.483 C 67.792 65.448, 72.742 66.838, 73.721 67.574 C 75.416 68.848, 75.400 69.090, 73.387 72.705 C 70.491 77.908, 54.756 91.617, 44.460 97.909 C 26.066 109.150, 23.595 116.895, 38.763 115.765 C 52.104 114.771, 71.795 104.494, 79.213 94.654 L 82.477 90.324 88.183 95.073 C 91.322 97.685, 95.264 100.634, 96.945 101.626 C 98.625 102.619, 100 103.813, 100 104.280 C 100 104.747, 99.035 107.372, 97.856 110.113 C 95.873 114.722, 95.504 115.050, 92.929 114.484 C 88.990 113.619, 84.145 116.409, 82.421 120.534 C 81.640 122.405, 81 127.169, 81 131.120 L 81 138.304 75.205 132.777 C 53.410 111.988, 41.946 124.612, 47.436 163.358 C 49.803 180.068, 53.115 181.762, 82 181.034 C 92.175 180.778, 106.429 180.553, 113.676 180.534 L 126.852 180.500 127.420 177.656 C 127.732 176.092, 129.574 173.226, 131.513 171.287 C 134.916 167.884, 135.247 167.778, 141.128 168.203 C 146.223 168.571, 149.382 169.758, 160.470 175.466 C 176.746 183.846, 178.750 183.419, 173.384 172.717 C 171.946 169.848, 168.854 164.350, 166.515 160.500 C 163.283 155.183, 161.987 151.763, 161.124 146.272 C 158.681 130.724, 154.570 124.533, 145 121.987 C 142.525 121.329, 139.270 120.155, 137.766 119.378 C 130.621 115.686, 121.100 102.524, 119.849 94.610 C 119.423 91.916, 117.933 87.986, 116.537 85.877 C 115.142 83.768, 114 81.580, 114 81.014 C 114 79.922, 132.407 35.833, 134.001 33.105 C 134.517 32.222, 135.020 31.725, 135.118 32 C 135.217 32.275, 135.568 47.575, 135.899 66 C 136.462 97.357, 136.633 99.756, 138.585 103.500 C 141.378 108.859, 144.683 110.432, 150.094 108.975 C 155.366 107.555, 159 103.971, 159 100.191 C 159 98.597, 159.926 91.264, 161.057 83.896 C 166.760 46.755, 165.199 30.974, 154.668 19.318 C 150.147 14.314, 141.113 9.199, 139.993 11.011 C 139.393 11.982, 138.485 12.016, 136.035 11.162 C 132.564 9.952, 115.186 8.988, 108 9.607 M 98.744 13.114 C 93.929 13.579, 85.412 14.643, 79.818 15.479 C 74.224 16.316, 68.939 17.020, 68.074 17.045 C 67.208 17.069, 69.724 18.134, 73.664 19.410 C 85.099 23.114, 92.999 29.208, 93.001 34.327 C 93.002 36.065, 94.506 37.176, 100.510 39.876 C 109.011 43.698, 115.480 49.355, 116.462 53.828 C 117.278 57.544, 115.274 61.750, 110.956 65.383 L 107.841 68.005 109.556 73.168 C 111.241 78.242, 111.293 78.289, 112.557 75.875 C 114.404 72.350, 138 15.852, 138 14.955 C 138 13.620, 125.575 11.996, 116.418 12.135 C 111.513 12.209, 103.560 12.650, 98.744 13.114 M 143 14.509 C 143 14.851, 143.483 16.034, 144.073 17.137 C 145.406 19.627, 143.924 24.388, 140.771 27.744 C 138.605 30.049, 138.584 30.409, 138.754 62.287 C 138.859 81.941, 139.361 96.320, 140.043 99.167 C 141.521 105.345, 143.872 107.434, 148.389 106.587 C 154.973 105.352, 155.452 104.265, 158.352 84 C 161.902 59.199, 162.541 48.935, 161.067 40.442 C 159.551 31.704, 157.187 26.315, 152.706 21.378 C 149.354 17.685, 143 13.189, 143 14.509 M 139.222 19.674 C 138.657 21.228, 137.458 24.300, 136.558 26.500 L 134.921 30.500 137.959 27 C 141.400 23.037, 142.732 19.332, 141.251 17.851 C 140.581 17.181, 139.908 17.786, 139.222 19.674 M 76.732 49.138 C 71.360 49.612, 59.210 50.366, 49.732 50.814 L 32.500 51.628 39 54.688 C 45.314 57.660, 50.162 59.047, 66.227 62.477 C 78.104 65.012, 80.001 68.670, 73.792 77.067 C 70.222 81.896, 54.041 95.457, 46.967 99.550 C 34.856 106.556, 28.846 112.738, 33.750 113.145 C 48.140 114.341, 71.796 102.385, 79.110 90.221 C 80.341 88.174, 81.487 86.319, 81.658 86.099 C 81.829 85.878, 84.114 87.697, 86.735 90.140 C 91.100 94.210, 100.220 101, 101.321 101 C 101.575 101, 103.674 96.687, 105.986 91.415 L 110.189 81.830 107.878 79.370 C 106.606 78.016, 103.639 75.692, 101.285 74.205 C 98.930 72.717, 97.003 71.217, 97.002 70.871 C 97.001 70.526, 98.360 69.679, 100.021 68.991 C 101.683 68.303, 103.272 67.369, 103.551 66.917 C 103.831 66.464, 102.841 62.023, 101.352 57.047 L 98.643 48 92.572 48.137 C 89.232 48.213, 82.105 48.663, 76.732 49.138 M 102.662 70.750 C 102.411 71.162, 103.364 72.368, 104.779 73.429 C 107.112 75.179, 107.289 75.194, 106.676 73.597 C 106.304 72.629, 106 71.423, 106 70.918 C 106 69.818, 103.311 69.683, 102.662 70.750 M 108.195 93.212 C 106.435 97.220, 104.996 101.042, 104.998 101.705 C 105.001 103.189, 111.069 104.430, 113.911 103.528 C 117.255 102.467, 117.356 99.056, 114.245 92.203 L 111.395 85.924 108.195 93.212 M 116.755 104.673 C 114.956 106.472, 110.146 106.943, 105.824 105.742 C 103.320 105.047, 102.980 105.363, 100.568 110.632 L 97.989 116.265 102.017 120.634 C 104.232 123.037, 106.536 126.081, 107.136 127.398 L 108.227 129.793 116.363 124.265 C 126.573 117.329, 127.371 115.339, 122.859 108.079 C 121.122 105.286, 119.415 103, 119.065 103 C 118.715 103, 117.676 103.753, 116.755 104.673 M 87.292 118.508 C 84.519 120.450, 82.774 128.804, 83.764 135.398 L 84.500 140.296 89.234 129.526 C 91.837 123.603, 93.723 118.361, 93.425 117.878 C 92.593 116.533, 89.685 116.832, 87.292 118.508 M 130.553 123.735 C 127.400 154.287, 117.641 170.689, 103.142 169.805 L 98.147 169.500 101.541 164 C 106.792 155.492, 109.418 142.489, 107.090 136.531 C 106.416 134.806, 105.149 135.753, 96.910 144.140 C 91.734 149.408, 84.800 157.133, 81.500 161.306 C 78.089 165.619, 74.716 168.917, 73.683 168.947 C 71.415 169.013, 71.758 167.817, 77.642 155.139 C 80.039 149.975, 82 145.191, 82 144.508 C 82 142.069, 66.469 128.345, 61.610 126.489 C 57.010 124.732, 56.830 124.736, 54.268 126.649 C 50.484 129.474, 49.162 134.191, 49.076 145.178 C 49.006 154.045, 50.312 167.830, 51.651 172.350 C 51.952 173.368, 54.291 175.159, 56.849 176.331 C 61.999 178.691, 71.558 179.009, 107.002 177.999 L 124.503 177.500 126.502 173.552 C 129.602 167.427, 132.992 165.496, 140.607 165.520 C 146.597 165.538, 147.990 166.020, 160.030 172.250 C 167.163 175.941, 173 178.729, 173 178.447 C 173 177.397, 167.587 167.298, 163.860 161.396 C 160.840 156.614, 159.672 153.379, 158.464 146.452 C 156.644 136.018, 154.100 129.767, 150.790 127.598 C 149.472 126.734, 145.812 125.140, 142.658 124.054 C 139.503 122.969, 135.623 121.156, 134.035 120.025 L 131.148 117.969 130.553 123.735 M 126 120.635 C 125.175 121.442, 122.025 123.714, 119 125.684 C 109.534 131.847, 109.141 132.386, 110.170 137.795 C 111.383 144.173, 109.537 154.653, 105.947 161.771 C 104.378 164.882, 103.215 167.548, 103.363 167.696 C 104.088 168.421, 110.575 165.799, 113.414 163.634 C 120.069 158.557, 125.970 143.065, 127.462 126.750 C 127.852 122.487, 128.020 119.037, 127.835 119.083 C 127.651 119.129, 126.825 119.827, 126 120.635 M 88.472 137.690 C 84.087 147.420, 80.166 156.225, 79.757 157.258 C 79.349 158.290, 84.974 152.961, 92.257 145.415 C 100.030 137.362, 105.360 131.056, 105.160 130.147 C 104.600 127.594, 98.997 120, 97.674 120 C 96.998 120, 92.857 127.961, 88.472 137.690" stroke="none" fill="black" fill-rule="evenodd"/>
</svg>