<svg xmlns="http://www.w3.org/2000/svg" width="200" height="200" viewBox="0 0 200 200" version="1.1">
	<path d="M 168.373 9.202 C 163.861 16.349, 154.717 40.822, 150.888 56 L 149.500 61.500 148.994 57.500 C 148.716 55.300, 148.918 53.193, 149.443 52.818 C 150.996 51.709, 148.590 22.041, 146.640 18.272 C 144.460 14.055, 141.297 11.996, 137.027 12.017 C 132.126 12.040, 119.828 17.266, 104.627 25.786 C 97.547 29.753, 90.883 33, 89.819 33 C 87.539 33, 28.542 40.798, 25.250 41.535 C 21.672 42.335, 22.581 44.703, 26.750 45.443 C 28.813 45.809, 37.025 47.698, 45 49.640 C 60.244 53.352, 69.654 56.759, 68.304 58.077 C 67.862 58.508, 60.799 60.700, 52.608 62.947 C 35.854 67.544, 26.883 71.422, 22.563 75.933 C 19.150 79.497, 19.206 79.506, 31.500 77.486 C 41.984 75.764, 53.302 75.556, 56.066 77.035 C 58.651 78.419, 58.538 82.418, 55.804 86.346 C 54.597 88.081, 48.747 94.820, 42.804 101.323 C 34.253 110.681, 32 113.752, 32 116.054 C 32 119.889, 34.741 120.562, 42.785 118.704 C 51.658 116.654, 58.966 111.854, 70.502 100.500 C 82.628 88.566, 90.811 77.892, 96.457 66.642 L 100.613 58.361 105.745 66.080 C 110.292 72.919, 111.003 74.715, 111.978 81.842 C 115.322 106.263, 121.951 114.763, 130.432 105.504 L 133.634 102.009 136.337 104.830 L 139.039 107.650 137.841 117.141 L 136.642 126.632 129.512 122.943 C 118.505 117.247, 107.340 115.596, 84.678 116.313 C 74.656 116.630, 63.135 117.580, 59 118.430 C 49.779 120.324, 39.603 124.013, 40.693 125.066 C 41.137 125.494, 44.412 126.593, 47.972 127.507 C 56.240 129.631, 75.590 135.493, 79.500 137.058 C 82.338 138.194, 81.862 138.388, 70.704 140.633 C 64.216 141.939, 57.171 143.893, 55.048 144.975 C 46.272 149.453, 44.526 156.910, 50.250 165.467 C 52.037 168.138, 54.974 172.713, 56.777 175.632 C 62.486 184.879, 69.548 188.516, 80.446 187.823 C 92.286 187.069, 106 177.764, 106 170.485 C 106 165.494, 99.122 161, 91.484 161 L 88.700 161 92.600 158.148 C 96.734 155.125, 104.744 146.823, 109.145 141 C 110.600 139.075, 112.175 137.877, 112.645 138.337 C 113.115 138.797, 113.500 148.112, 113.500 159.036 C 113.500 171.001, 113.898 179.262, 114.500 179.813 C 118.178 183.176, 135.732 184.897, 148.244 183.121 C 162.099 181.154, 170.992 176.909, 176.382 169.690 C 179.217 165.893, 179.164 157.810, 176.263 151.424 C 174.989 148.618, 172.997 140.154, 171.635 131.749 C 170.319 123.636, 168.720 116.368, 168.081 115.598 C 167.223 114.564, 165.376 114.337, 161.024 114.732 C 154.957 115.282, 151.320 113.880, 144.226 108.257 L 141.952 106.455 143.976 96.617 C 145.089 91.207, 146.024 86.492, 146.054 86.140 C 146.083 85.788, 146.908 87.975, 147.886 91 C 152.988 106.781, 159.171 111.125, 165.794 103.582 C 172.535 95.905, 176.558 77.550, 175.689 58.437 C 175.387 51.802, 175.571 43.027, 176.097 38.937 C 177.607 27.203, 177.579 8.403, 176.050 6.560 C 173.810 3.861, 171.171 4.769, 168.373 9.202 M 169.727 12.250 C 164.442 21.368, 154.358 51.158, 149.498 72.010 C 147.780 79.381, 147.787 79.666, 149.891 87.334 C 152.499 96.840, 155.308 102.559, 158.105 104.056 C 159.878 105.005, 160.652 104.750, 163.099 102.405 C 169.502 96.271, 173.232 79.911, 172.880 59.500 C 172.747 51.800, 173.241 38.749, 173.977 30.498 C 175.254 16.189, 174.916 8, 173.050 8 C 172.577 8, 171.082 9.912, 169.727 12.250 M 131 15.732 C 130.175 16.048, 126.125 17.860, 122 19.758 L 114.500 23.210 118.253 24.554 C 126.218 27.405, 138.757 37.808, 145.310 47 C 147.049 49.440, 147.079 49.211, 146.552 37.500 C 145.974 24.667, 144.847 18.990, 142.391 16.534 C 140.876 15.019, 134.106 14.543, 131 15.732 M 109.008 27.491 C 107.263 29.593, 108.465 36.357, 111.865 43.568 C 114.545 49.253, 114.643 49.990, 114.204 61.272 L 113.747 73.044 120.782 82.272 C 124.652 87.347, 128.938 92.548, 130.308 93.829 L 132.797 96.158 134.815 90.765 C 135.925 87.799, 138.108 80.110, 139.666 73.678 C 141.817 64.800, 142.861 62.048, 144 62.251 C 144.974 62.424, 145.679 64.092, 146.012 67.009 C 146.469 71.017, 146.603 71.214, 147.258 68.843 C 147.661 67.381, 148.274 65.451, 148.618 64.552 C 149.026 63.490, 148.777 63.020, 147.906 63.209 C 146.969 63.413, 146.379 61.844, 145.939 57.977 C 145.564 54.671, 144.286 50.830, 142.757 48.407 C 137.422 39.956, 125.386 29.988, 117.101 27.160 C 112.569 25.613, 110.496 25.698, 109.008 27.491 M 99.699 31.636 L 94.898 34.090 97.363 37.020 C 100.588 40.852, 102.308 46.244, 101.767 50.821 C 101.402 53.907, 102.071 55.615, 105.916 61.413 L 110.500 68.326 111.245 59.913 C 111.930 52.187, 111.779 50.992, 109.393 45.274 C 107.965 41.850, 106.279 36.829, 105.648 34.116 L 104.500 29.182 99.699 31.636 M 90 35.903 C 90 37.092, 97.865 50, 98.590 50 C 99.920 50, 98.649 43.782, 96.750 41 C 94.191 37.253, 90 34.087, 90 35.903 M 59.158 39.562 C 45.769 41.392, 34.069 43.043, 33.158 43.232 C 32.246 43.421, 35.775 44.571, 41 45.788 C 61.818 50.639, 72 54.655, 72 58.016 C 72 59.916, 67.187 61.931, 54.459 65.359 C 39.604 69.360, 30.347 72.629, 29.363 74.222 C 28.908 74.957, 29.475 75.100, 31.094 74.658 C 32.417 74.297, 38 73.743, 43.500 73.427 C 51.978 72.939, 54.033 73.130, 57 74.676 C 59.757 76.113, 60.567 77.196, 60.815 79.776 C 61.235 84.139, 58.817 87.855, 47.824 99.746 C 36.949 111.509, 33.509 115.843, 34.366 116.699 C 35.944 118.277, 48.509 114.771, 53.913 111.245 C 61.648 106.198, 80.408 87.095, 86.818 77.738 C 91.840 70.409, 98 58.388, 98 55.918 C 98 53.615, 86.462 36.074, 85 36.153 C 84.175 36.198, 72.546 37.732, 59.158 39.562 M 142.566 74 C 142.139 75.925, 140.220 82.398, 138.301 88.384 L 134.813 99.268 137.233 101.687 L 139.652 104.106 142.317 90.803 C 144.232 81.243, 144.751 76.515, 144.163 74 L 143.344 70.500 142.566 74 M 115.159 84.500 C 116.642 94.243, 119.095 101.811, 121.671 104.590 C 123.809 106.897, 124.309 107.039, 126.104 105.845 C 127.217 105.105, 128.840 103.326, 129.710 101.892 C 131.259 99.336, 131.183 99.153, 125.896 92.831 C 122.928 89.283, 119.093 84.606, 117.373 82.440 L 114.245 78.500 115.159 84.500 M 140.130 119.692 C 139.006 128.835, 139.049 129.493, 140.886 131.330 C 142 132.445, 143.511 133.018, 144.417 132.670 C 146.916 131.711, 146.708 113.951, 144.171 111.655 C 143.165 110.745, 142.113 110, 141.832 110 C 141.551 110, 140.785 114.361, 140.130 119.692 M 149.739 123.209 C 149.503 127.219, 149.987 140.081, 150.815 151.790 C 152.515 175.843, 152.442 176.201, 146.312 173.868 C 138.590 170.929, 136 163.182, 136 143.019 L 136 130.136 133.044 128.031 C 123.751 121.414, 111.619 118.768, 90.500 118.750 C 75.041 118.737, 61.254 120.290, 51.500 123.141 L 47.500 124.311 54 126.191 C 79.402 133.541, 87.295 137.105, 84.457 139.943 C 83.909 140.491, 77.961 142.035, 71.240 143.372 C 58.365 145.935, 53.964 147.816, 50.749 152.130 C 48.209 155.538, 49.003 159.353, 53.578 165.723 C 55.466 168.350, 58.470 172.744, 60.255 175.487 C 64.740 182.380, 69.974 185.125, 78.629 185.125 C 93.160 185.125, 108.074 172.902, 101.168 166.652 C 98.793 164.502, 89.171 162.746, 82.080 163.168 C 74.983 163.590, 74.327 161.915, 81 160.412 C 88.361 158.755, 96.118 152.925, 103.709 143.345 C 107.394 138.696, 111.083 135, 112.039 135 C 115.693 135, 116.084 137.232, 116.046 157.929 L 116.010 178.053 118.755 179.240 C 120.489 179.990, 127.208 180.422, 137 180.411 C 150.449 180.397, 153.335 180.099, 158.812 178.166 C 174.695 172.558, 179.114 164.890, 173.671 152.382 C 172.189 148.975, 170.429 141.870, 169.490 135.500 C 168.598 129.450, 167.461 122.925, 166.964 121 C 166.061 117.508, 166.045 117.500, 160.279 117.500 C 157.101 117.500, 153.525 117.144, 152.334 116.709 C 150.259 115.952, 150.149 116.228, 149.739 123.209 M 138.410 137.627 C 137.480 142.586, 138.638 156.417, 140.511 162.727 C 141.960 167.604, 145.692 172, 148.385 172 C 149.194 172, 149.106 166.914, 148.066 153.491 C 146.754 136.553, 146.481 135.030, 144.854 135.546 C 143.876 135.857, 142.180 135.631, 141.085 135.045 C 139.304 134.092, 139.022 134.364, 138.410 137.627" stroke="none" fill="black" fill-rule="evenodd"/>
</svg>