<svg xmlns="http://www.w3.org/2000/svg" width="200" height="200" viewBox="0 0 200 200" version="1.1">
	<path d="M 112.651 12.087 C 111.743 13.384, 111 15.227, 111 16.184 C 111 17.140, 110.142 18.727, 109.094 19.711 C 108.045 20.695, 105.191 26.900, 102.751 33.500 C 98.189 45.841, 89.914 65.248, 89.424 64.757 C 89.272 64.606, 89.999 57.961, 91.038 49.991 C 94.619 22.526, 93.873 20.241, 83.526 26.983 C 75.215 32.398, 68.466 34.414, 61.542 33.549 C 54.978 32.728, 46.125 28.582, 39.207 23.089 L 33.914 18.885 31.934 21.193 C 28.540 25.149, 26 30.777, 26 34.342 C 26 36.875, 26.834 38.578, 29.216 40.907 C 33.882 45.469, 43.281 47.911, 62.500 49.554 C 74.259 50.559, 74.550 51.236, 64.896 55.121 C 57.019 58.291, 55.882 58.482, 46.500 58.208 C 33.840 57.838, 22.675 58.786, 20.438 60.422 C 19.215 61.316, 18.893 62.436, 19.342 64.228 C 19.822 66.137, 21.904 67.761, 27.740 70.779 C 36.024 75.062, 52.318 82, 54.095 82 C 57.488 82, 52.952 79.122, 42.458 74.617 C 35.881 71.794, 28.318 68.205, 25.650 66.641 C 18.231 62.293, 20.265 61.529, 39.799 61.329 C 55.164 61.172, 57.050 60.949, 63.371 58.542 C 72.530 55.055, 75.641 53.379, 76.342 51.552 C 77.303 49.047, 73.747 47.983, 59.347 46.466 C 36.957 44.107, 29 40.838, 29 33.998 C 29 30.656, 31.002 26.073, 33.291 24.173 C 34.427 23.230, 35.501 23.619, 38.607 26.098 C 48.233 33.779, 60.812 37.742, 70.021 35.996 C 75.496 34.958, 79.316 33.213, 85.750 28.811 L 90 25.904 90 31.301 C 90 34.269, 88.892 45.076, 87.538 55.315 C 85.070 73.970, 82.899 81.334, 79.478 82.647 C 78.691 82.949, 76.508 85.338, 74.627 87.957 C 68.325 96.728, 49.291 107.370, 34.292 110.508 C 30.726 111.254, 26.959 111.551, 25.922 111.167 C 24.075 110.484, 24.075 110.405, 25.929 107.357 C 26.970 105.645, 31.912 101.190, 36.911 97.457 C 45.527 91.024, 47.433 89, 44.877 89 C 43.112 89, 31.671 97.487, 26.599 102.559 C 21.733 107.425, 20.410 112.176, 23.582 113.393 C 30.957 116.223, 54.940 108.136, 67.250 98.667 C 69.862 96.657, 72 95.206, 72 95.441 C 72 95.676, 69.308 99.257, 66.017 103.398 C 56.440 115.450, 45.687 123, 38.099 123 C 34.298 123, 32.037 124.371, 33.472 125.805 C 33.842 126.175, 36.250 126.538, 38.822 126.611 C 44.488 126.773, 51.831 129.523, 62.500 135.476 L 70.500 139.941 61.788 139.970 C 32.483 140.070, 26.987 159.686, 48.102 188.812 L 49.704 191.022 56.292 188.542 C 59.915 187.178, 67.517 185.117, 73.184 183.962 C 82.759 182.011, 86.107 181.885, 120.472 182.181 L 157.456 182.500 158.802 179.709 C 159.867 177.502, 159.915 175.830, 159.035 171.709 C 156.630 160.463, 143.985 139.465, 137.543 136.021 C 134.808 134.559, 134.865 134.529, 142.430 133.359 C 155.030 131.411, 157.874 128.026, 154.094 119.479 C 152.425 115.706, 151.669 114.926, 150.258 115.521 C 144.420 117.980, 86.338 116.678, 83.641 114.027 C 83.164 113.558, 83.754 105.773, 84.970 96.498 L 87.158 79.814 92.058 73.733 C 101.124 62.482, 107.266 48.403, 110.601 31.227 C 111.533 26.427, 112.734 21.938, 113.270 21.250 C 115.166 18.818, 116.814 20.057, 117.926 24.750 C 120.403 35.205, 121.058 42.722, 121.993 71.404 C 123.274 110.713, 123.315 110.899, 129.452 105.140 C 133.011 101.801, 135.297 100.560, 156 90.721 C 176.901 80.788, 181.846 75.403, 177.602 67.198 C 176.834 65.711, 175.280 63.659, 174.151 62.636 C 172.147 60.823, 172.016 60.826, 168.798 62.767 C 164.138 65.579, 158.288 67.289, 155.618 66.619 C 151.644 65.622, 150.738 61.693, 150.049 42.482 C 149.481 26.636, 149.132 23.904, 147.152 19.815 C 142.567 10.344, 137.404 9.370, 119.332 14.567 C 117.652 15.050, 116.842 14.576, 115.733 12.460 L 114.303 9.730 112.651 12.087 M 125.500 15.654 C 122.750 16.487, 120.159 17.495, 119.742 17.893 C 119.325 18.291, 119.899 22.190, 121.017 26.558 C 123.142 34.856, 124.960 58.464, 124.986 78.099 C 124.994 83.929, 125.287 92.096, 125.638 96.248 L 126.276 103.798 131.005 100.401 C 133.606 98.532, 140.320 94.970, 145.925 92.485 C 162.196 85.271, 169.518 81.328, 172.870 77.976 C 176.564 74.282, 176.936 70.459, 173.969 66.687 L 171.937 64.105 168.719 65.988 C 166.948 67.023, 163.364 68.403, 160.754 69.053 C 156.662 70.073, 155.652 70.002, 153.421 68.540 C 148.955 65.614, 147.874 61.106, 147.070 42.056 C 146.240 22.412, 145.123 18.149, 140.128 15.566 C 136.409 13.643, 132.052 13.669, 125.500 15.654 M 103.097 40.176 C 100.703 46.404, 96.551 56.179, 93.872 61.897 C 91.192 67.616, 89 72.565, 89 72.894 C 89 74.633, 96.765 62.414, 100.054 55.500 C 103.749 47.731, 108.504 32.013, 107.799 29.898 C 107.607 29.322, 105.491 33.947, 103.097 40.176 M 76.468 93.686 C 68.602 105.634, 57.805 117.275, 50.767 121.398 L 46.033 124.171 57.267 129.854 C 63.445 132.980, 70.412 136.772, 72.750 138.281 C 77.716 141.487, 78.553 144.465, 74.250 143.617 C 66.670 142.124, 61.882 141.964, 55.500 142.989 C 47.239 144.316, 43.362 146.354, 40.156 151.054 C 38.147 154, 37.873 155.381, 38.273 160.573 C 38.756 166.832, 43.513 177.991, 48.508 184.580 L 50.843 187.660 60.466 184.437 C 76.009 179.231, 85.708 178.495, 120.500 179.880 C 137.640 180.562, 151.786 180.708, 153.500 180.221 C 157.519 179.078, 157.781 176.046, 154.640 167.016 C 151.552 158.135, 145.572 147.965, 139.784 141.750 C 131.813 133.191, 129.082 136.429, 130.954 152.216 C 132.205 162.761, 131.515 166, 128.020 166 C 126.069 166, 122.753 162.420, 112.046 148.750 C 103.908 138.360, 102.503 138.441, 103.349 149.250 C 103.704 153.787, 104.276 159.380, 104.619 161.679 L 105.244 165.857 100.872 167.150 C 98.467 167.860, 91.472 168.455, 85.326 168.471 C 75.512 168.496, 73.809 168.244, 71.326 166.400 C 69.125 164.764, 68.431 163.352, 68.186 160.011 C 67.892 156.005, 68.196 155.419, 72.793 151.111 C 75.500 148.575, 81.042 144.936, 85.108 143.024 C 89.173 141.112, 92.627 139.486, 92.781 139.409 C 92.936 139.333, 92.262 137.875, 91.283 136.170 C 89.574 133.193, 89.575 132.997, 91.301 131.284 C 92.913 129.684, 94.666 129.549, 108.299 129.972 C 116.660 130.231, 128.675 130.456, 135 130.472 C 151.048 130.511, 155.007 128.260, 151.936 120.844 C 150.947 118.458, 150.266 117.976, 148.597 118.482 C 144.099 119.844, 114.798 120.221, 100.954 119.095 C 79.951 117.388, 74.062 115.666, 78.364 112.489 C 79.838 111.401, 80.611 108.232, 82.058 97.333 C 83.064 89.755, 83.786 83.452, 83.662 83.328 C 83.538 83.204, 80.301 87.865, 76.468 93.686 M 94.250 132.589 C 92.428 133.431, 92.691 134.480, 95.589 137.923 C 97.143 139.771, 97.661 141, 96.885 141 C 96.174 141, 91.521 142.988, 86.546 145.417 C 68.447 154.255, 65.061 163.689, 79.174 165.958 C 82.670 166.520, 87.470 166.503, 91.674 165.913 C 102.677 164.370, 102.201 164.778, 101.291 157.670 C 98.322 134.501, 102.573 132.050, 115.870 149.264 C 124.433 160.350, 127.637 163.696, 128.685 162.649 C 129.054 162.279, 128.841 158.044, 128.210 153.238 C 127.056 144.440, 127.650 138.332, 129.928 135.587 C 130.810 134.524, 130.560 134.107, 128.777 133.663 C 125.451 132.834, 95.720 131.909, 94.250 132.589" stroke="none" fill="black" fill-rule="evenodd"/>
</svg>