<svg xmlns="http://www.w3.org/2000/svg" width="200" height="200" viewBox="0 0 200 200" version="1.1">
	<path d="M 131.597 10.844 C 130.782 12.162, 132.932 18.915, 136.263 25.500 C 141.796 36.438, 143.314 45.920, 140.579 52.466 C 138.566 57.284, 132.177 61.238, 125.512 61.791 C 120.713 62.189, 119.860 61.951, 117.455 59.545 C 115.065 57.156, 114.813 56.271, 115.199 51.618 C 115.447 48.621, 116.994 43.472, 118.816 39.579 C 120.567 35.837, 122 32.376, 122 31.888 C 122 31.391, 109.049 31, 92.588 31 C 61.224 31, 51.954 31.942, 44.153 35.922 C 40.457 37.808, 37 41.336, 37 43.223 C 37 43.650, 41.388 44.016, 46.750 44.035 C 63.794 44.096, 80.964 48.594, 81.818 53.223 C 82.557 57.225, 72.831 60.270, 55.250 61.543 C 50.162 61.911, 46 62.615, 46 63.106 C 46 64.504, 62.768 64.120, 70.164 62.553 C 78.038 60.884, 82.531 58.744, 84.026 55.952 C 87.792 48.915, 74.634 42.900, 51.778 41.209 L 41.500 40.448 44.710 38.719 C 52.738 34.395, 60.031 33.587, 89.386 33.767 C 104.723 33.861, 117.442 34.109, 117.650 34.317 C 117.858 34.525, 116.880 37.204, 115.476 40.271 C 114.073 43.337, 112.663 48.050, 112.344 50.744 C 110.677 64.816, 124.955 69.624, 138.522 59.559 C 140.532 58.068, 140.539 58.123, 139.671 68.779 C 139.190 74.676, 138.686 79.619, 138.551 79.764 C 138.415 79.910, 135.757 78.862, 132.642 77.437 C 118.817 71.107, 95.399 74.533, 90.517 83.599 C 85.982 92.020, 68.782 104.701, 52.711 111.473 C 45.775 114.395, 38.007 115.370, 37.320 113.405 C 37.109 112.803, 38.427 110.148, 40.247 107.506 C 42.718 103.922, 46.073 101.153, 53.462 96.601 C 62.929 90.769, 73.017 82.415, 72.985 80.434 C 72.924 76.752, 67.204 75.216, 53 75.067 C 39.519 74.926, 34.909 72.568, 36.908 66.834 C 37.589 64.880, 37.666 63.266, 37.106 62.706 C 35.659 61.259, 33.847 65.635, 34.192 69.743 C 34.695 75.721, 38.324 77.150, 55.082 77.970 C 62.728 78.345, 69.325 78.999, 69.742 79.424 C 70.944 80.650, 62.124 87.983, 51.858 94.291 C 42.502 100.040, 38.851 103.521, 35.621 109.766 C 32.220 116.342, 37.041 119.281, 46.681 116.508 C 63.329 111.718, 87.072 95.710, 92.513 85.606 C 95.534 79.996, 102.765 77.500, 116 77.500 C 125.667 77.500, 126.976 77.738, 132.500 80.500 L 138.500 83.500 138.136 99 C 137.936 107.525, 137.631 114.655, 137.458 114.845 C 137.285 115.034, 120.799 115.569, 100.822 116.033 C 80.546 116.504, 62.512 117.370, 60 117.994 C 51.588 120.083, 48.789 123.689, 52.777 127.298 C 55.820 130.052, 65.193 133.858, 72.953 135.490 C 77.042 136.350, 80.541 137.208, 80.729 137.395 C 80.917 137.583, 77.117 138.711, 72.285 139.901 C 51.611 144.992, 44.561 151.696, 49.095 161.949 C 50.202 164.452, 52.150 167.625, 53.424 169 C 54.698 170.375, 56.003 173.235, 56.324 175.356 C 57.546 183.420, 62.402 187.010, 73.126 187.777 C 89.547 188.952, 112.967 178.746, 111.834 170.909 C 111.310 167.288, 106.200 165.053, 95.344 163.695 L 85.500 162.463 97.541 150.232 C 109.132 138.457, 112.708 136.101, 114.526 139.042 C 114.880 139.615, 114.396 144.384, 113.449 149.639 C 107.941 180.231, 121.266 192.011, 150.562 182.448 C 154.679 181.104, 160.737 178.647, 164.024 176.988 L 170 173.971 170 166.942 C 170 149.815, 165.248 120.079, 161.627 114.554 C 159.685 111.590, 158.737 111.406, 156.571 113.571 C 155.593 114.549, 155 114.699, 155 113.968 C 155 113.322, 157.001 110.568, 159.446 107.849 C 164.008 102.775, 167.340 95.463, 169.160 86.534 C 169.724 83.765, 170.256 67.180, 170.343 49.677 L 170.500 17.854 167.291 15.871 C 165.526 14.780, 162.471 13.626, 160.501 13.306 C 157.246 12.778, 156.533 13.130, 152.664 17.168 C 149.730 20.229, 147.764 23.572, 146.337 27.925 C 145.194 31.411, 143.952 33.731, 143.565 33.104 C 143.178 32.480, 141.547 28.077, 139.940 23.322 C 136.092 11.937, 133.404 7.919, 131.597 10.844 M 155.738 17.087 C 151.747 19.410, 146 35.065, 146 43.611 C 146 45.916, 146.868 52.908, 147.929 59.151 C 148.990 65.393, 150.799 78.150, 151.949 87.500 C 153.099 96.850, 154.295 105.625, 154.607 107 L 155.174 109.500 157.642 106.500 C 166.127 96.186, 167.353 89.275, 167.513 50.861 L 167.645 19.221 164.918 17.611 C 161.822 15.782, 158.323 15.582, 155.738 17.087 M 143.675 56.405 C 143.360 57.225, 142.792 63.479, 142.413 70.302 L 141.724 82.708 144.385 85.694 C 145.848 87.336, 147.690 89.540, 148.477 90.590 C 149.795 92.348, 149.873 92.222, 149.464 89 C 148.266 79.578, 144.725 55.465, 144.501 55.207 C 144.361 55.046, 143.990 55.585, 143.675 56.405 M 141.654 88.460 C 141.294 89.397, 141 95.878, 141 102.863 L 141 115.562 144 116.694 C 147.881 118.159, 147.948 121.268, 144.250 128.283 C 141.571 133.365, 141.487 134.030, 141 154 C 140.581 171.171, 140.261 174.500, 139.026 174.500 C 136.650 174.500, 133.698 162.774, 133.613 153 C 133.554 146.223, 133.991 143.511, 135.769 139.623 C 137.503 135.832, 138 132.906, 138 126.482 L 138 118.219 104.941 118.600 C 66.826 119.039, 53.119 120.567, 54.203 124.256 C 54.748 126.112, 66.718 131.731, 71.728 132.482 C 80.278 133.764, 86.149 135.986, 85.801 137.807 C 85.562 139.060, 82.620 140.217, 74.489 142.258 C 60.180 145.849, 53.364 149.169, 51.265 153.570 C 49.779 156.686, 49.793 157.213, 51.451 160.891 C 52.434 163.070, 54.534 166.096, 56.119 167.614 C 58.246 169.652, 59 171.314, 59 173.965 C 59 181.371, 64.510 185, 75.758 185 C 90.028 185, 109 177.266, 109 171.449 C 109 168.685, 102.104 166.764, 90.257 166.229 C 82.515 165.880, 78.662 165.298, 77.884 164.361 C 76.984 163.276, 77.253 163, 79.209 163 C 81.046 163, 84.274 160.197, 92.056 151.843 C 107.549 135.213, 112.990 132.002, 116.528 137.402 C 117.962 139.591, 117.954 140.587, 116.439 148.652 C 114.509 158.925, 114.885 169.973, 117.324 174.671 C 122.670 184.971, 138.552 185.460, 159.750 175.976 L 167 172.732 167 164.586 C 167 149.339, 162.561 120.517, 159.586 116.449 C 158.404 114.832, 158.141 115.076, 156.827 119.018 C 154.715 125.355, 153.261 125.113, 152.558 118.307 C 150.835 101.623, 149.060 95.466, 144.146 89.128 C 142.522 87.033, 142.231 86.955, 141.654 88.460 M 141.035 123.281 C 141.070 128.311, 141.123 128.409, 142.500 126 C 144.375 122.719, 144.375 119.358, 142.500 118.638 C 141.282 118.171, 141.007 119.045, 141.035 123.281 M 136.725 145 C 135.601 149.026, 136.040 159.208, 137.500 163 C 138.787 166.341, 138.846 166.092, 138.806 157.500 C 138.782 152.550, 138.462 147.150, 138.093 145.500 L 137.423 142.500 136.725 145" stroke="none" fill="black" fill-rule="evenodd"/>
</svg>