<svg xmlns="http://www.w3.org/2000/svg" width="200" height="200" viewBox="0 0 200 200" version="1.1">
	<path d="M 135.711 39.250 C 135.041 66.382, 133.169 82.323, 129.237 94.379 L 126.588 102.500 125.893 97 C 125.511 93.975, 125.153 81.970, 125.099 70.322 C 124.955 39.517, 122.904 28.184, 115.947 19.750 C 113.395 16.655, 112.212 16.001, 109.177 16.004 C 104.466 16.009, 99.241 19.191, 98.392 22.574 C 97.966 24.273, 98.702 28.281, 100.466 33.855 C 103.454 43.297, 104.914 55.317, 103.202 56.375 C 102.067 57.077, 96.946 44.731, 94.538 35.486 C 93.749 32.455, 92.834 29.540, 92.504 29.006 C 92.160 28.450, 89.687 29.267, 86.702 30.923 C 79.206 35.083, 76.412 35.398, 67.923 33.046 C 50.031 28.088, 33 32.261, 33 41.603 C 33 49.313, 43.180 52.588, 58 49.645 L 65.500 48.157 69.372 50.799 C 74.389 54.223, 76.112 57.714, 73.665 59.503 C 71.396 61.162, 66.953 61.763, 47.696 63.016 C 29.270 64.215, 23.067 65.358, 20.129 68.094 C 17.669 70.386, 17.474 71.898, 19.315 74.416 C 20.452 75.972, 22.372 76.233, 33.565 76.360 C 50.582 76.551, 54.381 78.360, 52.609 85.423 C 51.614 89.385, 44.516 97.251, 34.531 105.458 C 29.205 109.834, 24.432 114.192, 23.924 115.142 C 22.490 117.821, 22.834 123.617, 24.510 125.008 C 26.927 127.014, 33.692 125.524, 42.544 121.036 C 57.749 113.326, 85.015 90.615, 82.312 87.912 C 81.502 87.102, 80.574 87.657, 78.858 89.978 C 73.429 97.321, 49.706 114.971, 37.840 120.494 C 24.735 126.595, 20.677 120.393, 31.876 111.377 C 46.441 99.651, 56 88.396, 56 82.974 C 56 76.024, 50.580 73.690, 34 73.500 C 22.382 73.366, 21.500 73.220, 21.500 71.432 C 21.500 68.430, 27.270 67.132, 45.804 65.966 C 64.925 64.763, 72.366 63.645, 75.672 61.479 C 79.195 59.171, 78.583 55.967, 73.750 51.403 C 66.606 44.656, 66.986 44.791, 59.876 46.467 C 44.056 50.197, 31.838 46.475, 36.507 39.349 C 37.414 37.965, 39.808 36.123, 41.828 35.254 C 47.209 32.941, 59.843 33.276, 68.301 35.957 C 74.833 38.027, 75.324 38.048, 80.691 36.487 C 83.765 35.594, 87.285 34.204, 88.513 33.399 C 90.683 31.978, 90.780 32.072, 91.936 36.718 C 92.590 39.348, 94.919 45.991, 97.113 51.481 C 99.318 57, 100.869 62.365, 100.583 63.481 C 100.299 64.591, 97.972 67.884, 95.414 70.798 C 92.855 73.711, 91.021 76.354, 91.338 76.671 C 92.511 77.845, 94.989 75.972, 98.693 71.110 C 100.787 68.362, 102.737 66.088, 103.027 66.057 C 103.317 66.026, 105.493 69.937, 107.862 74.750 C 110.232 79.563, 114.832 88.303, 118.085 94.173 C 121.338 100.043, 124 105.296, 124 105.846 C 124 108.005, 118.334 113.409, 114.033 115.352 C 110.111 117.124, 108.018 117.342, 98.500 116.977 C 92.450 116.744, 80.525 116.542, 72 116.527 C 54.722 116.497, 50 117.557, 50 121.466 C 50 124.478, 52.509 126.534, 59.795 129.495 C 73.947 135.245, 96.400 136.507, 107.750 132.189 L 113 130.192 115.070 133.098 C 118.135 137.402, 117.306 140.225, 112.500 141.854 C 109.308 142.935, 104.357 143.039, 88 142.369 C 62.057 141.306, 51.379 141.287, 50.366 142.300 C 49.926 142.741, 49.600 145.485, 49.642 148.400 C 49.875 164.505, 61.794 180.564, 77.651 186.137 C 85.244 188.806, 96.633 188.850, 104.063 186.238 C 109.476 184.336, 109.577 184.336, 115.013 186.319 C 118.956 187.758, 123.173 188.346, 130 188.410 C 138.491 188.490, 140.108 188.201, 145.226 185.688 C 148.375 184.142, 151.863 181.597, 152.976 180.034 C 157.184 174.124, 154.487 167.745, 147.201 166.378 C 142.008 165.404, 129.488 166.552, 120.500 168.828 C 109.169 171.696, 102.099 172.373, 97.212 171.057 C 91.407 169.494, 90.276 167.014, 93.579 163.089 C 98.337 157.434, 111.055 155.475, 123.500 158.480 C 138.172 162.023, 146.048 158.249, 147.593 146.935 C 149.178 135.330, 140.929 113.500, 134.960 113.500 C 133.358 113.500, 131.889 112.532, 130.750 110.726 C 128.655 107.405, 128.607 107, 130.303 107 C 133.166 107, 147.987 98.922, 156 92.994 C 170.227 82.469, 185.901 68.905, 185.386 67.562 C 185.010 66.584, 183.082 66.737, 176.702 68.251 C 165.761 70.847, 157.880 70.335, 154.342 66.797 C 151.112 63.567, 150.099 58.414, 150.044 44.932 C 149.986 30.861, 148.189 24.842, 142.380 19.250 C 139.952 16.913, 137.592 15, 137.137 15 C 136.682 15, 136.040 25.913, 135.711 39.250 M 107.256 18.994 C 100.255 20.614, 99.571 23.449, 103.437 34.816 C 106.843 44.830, 107.458 50.131, 106.005 56.975 L 104.764 62.823 113.563 79.897 C 118.403 89.287, 122.437 96.865, 122.528 96.735 C 122.619 96.606, 122.376 83.450, 121.989 67.500 C 121.357 41.473, 121.058 37.799, 119.075 31.662 C 117.706 27.426, 115.654 23.571, 113.683 21.534 C 110.896 18.653, 110.097 18.337, 107.256 18.994 M 138.840 25.463 C 139.384 34.191, 137.181 70.701, 135.544 80.089 C 134.216 87.702, 131.640 97.176, 129.518 102.250 C 126.528 109.399, 155.965 91.569, 173.500 75.611 L 178.500 71.060 175 71.780 C 173.075 72.176, 168.270 72.500, 164.323 72.500 C 158.650 72.500, 156.555 72.067, 154.323 70.435 C 149.126 66.635, 147.984 62.649, 147.131 45.329 C 146.660 35.780, 145.835 28.508, 145.051 27 C 143.626 24.262, 139.990 20.001, 139.076 19.999 C 138.759 19.998, 138.653 22.457, 138.840 25.463 M 123.225 111.994 C 121.973 113.580, 118.541 116.056, 115.597 117.496 L 110.245 120.115 85.373 119.431 C 57.280 118.658, 50.289 119.452, 53.539 123.044 C 57.551 127.476, 75.853 132, 89.776 132 C 98.173 132, 108.261 130.004, 110.450 127.909 C 112.244 126.192, 113.833 127.008, 116.956 131.250 C 121.116 136.900, 120.823 140.628, 116 143.451 C 112.712 145.376, 111.260 145.476, 92 145.096 C 80.725 144.874, 67.225 144.649, 62 144.596 L 52.500 144.500 52.714 150.484 C 52.876 155.025, 53.776 158.185, 56.448 163.593 C 60.722 172.240, 66.690 178.012, 75.820 182.329 C 81.766 185.140, 83.434 185.477, 91 185.396 C 96.952 185.332, 101.027 184.706, 104.595 183.307 L 109.690 181.310 114.595 183.331 C 118.337 184.874, 121.874 185.371, 129.516 185.427 C 138.325 185.491, 140.119 185.198, 144.412 182.994 C 152.860 178.656, 155.211 172.789, 149.687 169.832 C 146.100 167.913, 134.241 168.583, 122.322 171.378 C 101.685 176.219, 89 174.438, 89 166.702 C 89 157.452, 105.302 151.873, 122 155.410 C 133.312 157.806, 137.361 157.543, 141.138 154.168 C 143.812 151.779, 144.380 150.461, 144.771 145.743 C 145.027 142.666, 144.672 137.753, 143.984 134.825 C 141.762 125.367, 135 112.283, 135 117.441 C 135 120.546, 132.357 118.892, 129.500 114 C 127.894 111.250, 126.337 109.025, 126.040 109.055 C 125.743 109.086, 124.476 110.408, 123.225 111.994" stroke="none" fill="black" fill-rule="evenodd"/>
</svg>