<svg xmlns="http://www.w3.org/2000/svg" width="200" height="200" viewBox="0 0 200 200" version="1.1">
	<path d="M 106.973 13.719 C 103.644 16.034, 101.619 18.562, 98.384 24.443 C 95.790 29.159, 95.750 29.435, 97.524 30.443 C 103.883 34.059, 105.955 38.930, 104.118 45.941 C 102.329 52.769, 89.096 72.789, 88.183 70.049 C 88.002 69.507, 89.237 60.324, 90.927 49.642 C 92.617 38.960, 94 29.319, 94 28.217 C 94 25.007, 91.599 24.956, 86.900 28.066 C 80.086 32.578, 73.431 33.684, 65.701 31.592 C 62.212 30.647, 58.093 29.045, 56.547 28.031 C 53.955 26.330, 53.335 26.299, 48.618 27.630 C 33.254 31.963, 28 34.658, 28 38.206 C 28 40.841, 32.272 42.420, 48.987 45.963 C 65.445 49.451, 72.320 52.091, 71.816 54.728 C 71.533 56.212, 69.985 56.605, 62.302 57.147 C 46.036 58.293, 29.121 62.618, 23.791 66.994 C 21.937 68.516, 21.709 69.220, 22.598 70.687 C 24.318 73.528, 29.724 74.806, 43.739 75.686 L 56.713 76.500 42.723 89.443 C 27.853 103.200, 23 108.894, 23 112.583 C 23 115.296, 25.745 116.435, 30.022 115.495 C 32.323 114.990, 33 115.192, 33 116.386 C 33 118.834, 38.977 125, 41.354 125.003 C 43.891 125.007, 58.500 136.946, 58.500 139.016 C 58.500 140.798, 52.204 143.234, 40.362 146.034 L 31.224 148.195 30.670 151.847 C 29.502 159.552, 32.238 167.202, 38.592 173.995 C 46.768 182.736, 57.465 187.329, 69.649 187.332 C 83.586 187.335, 92.834 180.045, 93.809 168.287 C 94.266 162.784, 94.235 162.706, 91.886 163.390 C 90.574 163.772, 85.112 164.356, 79.750 164.688 C 72.217 165.154, 70 165.002, 70 164.021 C 70 163.322, 75.569 157.294, 82.377 150.625 L 94.753 138.500 95.320 146.637 C 96.787 167.696, 104.242 181.168, 116.795 185.446 C 123.208 187.631, 135.969 187.433, 145.590 184.999 C 154.184 182.824, 157 180.615, 157 176.044 C 157 170.942, 152.087 168.486, 136 165.548 C 130.775 164.594, 125.871 163.462, 125.102 163.034 C 122.956 161.838, 132.492 158.641, 154.018 153.340 C 166.825 150.186, 173 148.232, 173 147.332 C 173 146.600, 172.544 146, 171.987 146 C 168.333 146, 133.766 141.719, 130.572 140.870 L 126.645 139.827 129.572 138.066 C 131.183 137.098, 134.694 135.060, 137.375 133.538 C 143.439 130.094, 149.675 124.529, 151.565 120.875 C 152.354 119.348, 153 117.924, 153 117.709 C 153 117.495, 142.988 117.027, 130.750 116.670 C 109.851 116.060, 83.008 114.341, 82.230 113.563 C 82.037 113.371, 82.816 106.172, 83.960 97.565 L 86.040 81.916 98.688 63.708 C 105.645 53.694, 113.164 43.025, 115.398 40 L 119.458 34.500 120.288 39.500 C 120.744 42.250, 121.021 52.600, 120.904 62.500 C 120.491 97.339, 120.966 100.966, 126.412 104.534 C 130.252 107.050, 134.790 105.740, 144.005 99.454 C 153.255 93.144, 165.250 85.225, 174.227 79.500 C 179.037 76.433, 180.572 74.873, 180.810 72.813 C 181.217 69.290, 179.086 67.946, 166.259 63.635 C 154.331 59.626, 149.508 56.883, 147.476 52.953 C 145.373 48.888, 145.653 45.287, 148.557 39.049 C 150.691 34.465, 150.994 32.718, 150.468 28.049 C 149.181 16.635, 146.676 12, 141.795 12 C 137.469 12, 134.158 14.113, 127.324 21.236 L 121.148 27.672 119.036 21.879 C 117.063 16.469, 113.242 12, 110.588 12 C 109.959 12, 108.332 12.774, 106.973 13.719 M 137.325 15.943 C 134.178 17.862, 124.281 27.746, 122.728 30.521 C 122.284 31.315, 122.451 35.910, 123.100 40.732 C 123.877 46.511, 124.071 56.489, 123.670 70 C 122.560 107.407, 125.663 110.096, 149.549 92.431 C 153.812 89.279, 161.845 83.949, 167.400 80.588 C 180.376 72.737, 180.569 71.557, 169.500 67.745 C 154.960 62.739, 152.821 61.782, 149.344 58.729 C 142.421 52.650, 141.545 47.991, 145.620 38.911 C 147.919 33.789, 148.157 32.290, 147.558 26.698 C 146.861 20.189, 144.035 13.997, 141.765 14.004 C 141.069 14.006, 139.071 14.879, 137.325 15.943 M 106.139 17.852 C 104.673 19.420, 102.589 22.349, 101.506 24.359 L 99.537 28.015 102.379 30.651 C 106.196 34.190, 108.281 39.411, 107.451 43.354 C 107.033 45.341, 107.137 46.132, 107.733 45.500 C 108.924 44.237, 117.423 32.882, 118.306 31.373 C 119.250 29.761, 116.379 20.752, 113.930 17.638 C 111.272 14.259, 109.447 14.309, 106.139 17.852 M 44.975 31.683 C 40.507 32.973, 35.228 34.861, 33.242 35.880 C 29.929 37.580, 29.791 37.818, 31.566 38.766 C 32.630 39.335, 40.250 41.219, 48.500 42.953 C 66.115 46.656, 74.342 50.138, 74.801 54.086 C 75.263 58.061, 72.919 59.131, 61.777 60.029 C 46.229 61.282, 27.369 65.975, 25.459 69.067 C 24.261 71.004, 30.977 72.222, 45.750 72.746 C 56.875 73.141, 61 73.621, 61 74.520 C 61 75.197, 53.688 82.735, 44.750 91.270 C 35.813 99.805, 27.646 108.256, 26.601 110.050 L 24.702 113.313 29.324 112.679 C 31.866 112.331, 37.446 110.710, 41.723 109.077 C 51.340 105.406, 52.148 105.224, 52.666 106.622 C 52.906 107.270, 49.220 109.173, 43.950 111.122 L 34.818 114.500 39.159 118.247 C 41.547 120.308, 44.220 121.996, 45.100 121.997 C 47.343 122.001, 54.276 116.796, 60.177 110.677 C 64.555 106.137, 80.169 86.111, 82.535 82 C 83.010 81.175, 78.021 85.559, 71.449 91.743 C 60.880 101.689, 57 104.536, 57 102.348 C 57 101.990, 63.096 95.802, 70.546 88.598 L 84.092 75.500 87.546 53.571 C 89.446 41.511, 91 31.029, 91 30.279 C 91 29.309, 89.749 29.649, 86.662 31.458 C 78.237 36.395, 68.053 36.496, 58.115 31.740 L 53.097 29.338 44.975 31.683 M 75.500 96.336 C 67.789 106.798, 56.679 118.567, 51.222 122.054 L 46.943 124.788 51.722 128.303 C 61.540 135.526, 63.152 139.338, 58 143.149 C 56.625 144.166, 50.657 146.235, 44.738 147.748 C 32.815 150.795, 32.357 151.229, 33.442 158.461 C 34.422 164.996, 39.657 172.771, 46 177.114 C 60.435 186.997, 80.835 187.074, 87.802 177.273 C 89.509 174.871, 92.359 166.980, 91.723 166.414 C 91.600 166.305, 89.250 166.591, 86.500 167.048 C 77.751 168.505, 71.447 168.182, 68.937 166.150 L 66.652 164.300 68.791 160.900 C 69.968 159.030, 74.830 153.927, 79.597 149.559 C 89.430 140.550, 94 134.772, 94 131.350 C 94 129.928, 94.592 129, 95.500 129 C 96.622 129, 97.002 130.198, 97.008 133.750 C 97.023 142.039, 98.952 156.271, 100.981 163.060 C 105.841 179.316, 117.407 186.509, 134.853 184.122 C 151.014 181.912, 157.662 178.218, 153.310 173.866 C 151.589 172.144, 146.510 170.690, 128.593 166.787 C 121.769 165.300, 119.294 162.779, 122.396 160.474 C 124.954 158.574, 134.915 155.315, 150 151.442 C 164.099 147.823, 164.276 147.990, 143.722 145.527 C 136.144 144.619, 128.582 143.402, 126.918 142.821 C 121.910 141.076, 123.410 138.310, 131.917 133.604 C 135.996 131.347, 141.616 127.416, 144.406 124.868 L 149.479 120.236 129.989 119.499 C 119.270 119.093, 103.300 118.253, 94.500 117.631 C 79.413 116.565, 78.513 116.386, 78.735 114.500 C 78.865 113.400, 79.676 107.616, 80.539 101.647 C 81.401 95.677, 81.970 90.209, 81.803 89.495 C 81.637 88.780, 78.800 91.859, 75.500 96.336" stroke="none" fill="black" fill-rule="evenodd"/>
</svg>