<svg xmlns="http://www.w3.org/2000/svg" width="200" height="200" viewBox="0 0 200 200" version="1.1">
	<path d="M 130.713 13.368 C 128.396 15.770, 125.150 20.036, 123.500 22.848 C 121.850 25.660, 120.199 27.969, 119.830 27.980 C 118.724 28.013, 115.800 18.140, 115.800 14.372 C 115.800 11.686, 115.453 10.996, 114.321 11.430 C 110.758 12.798, 101.715 19.522, 98.984 22.836 C 94.654 28.088, 94.975 31.840, 100.551 41.211 C 103.055 45.418, 105.357 50.424, 105.667 52.337 C 106.447 57.140, 102.687 64.929, 95.896 72.578 C 92.928 75.921, 89.096 80.421, 87.379 82.578 L 84.258 86.500 84.696 81 C 85.794 67.203, 88.246 50.630, 90.591 41.159 C 91.999 35.472, 92.882 30.549, 92.553 30.220 C 92.224 29.891, 89.602 30.470, 86.727 31.507 C 82.277 33.112, 78.377 33.408, 60.500 33.500 C 39.180 33.609, 34.873 34.231, 30.750 37.797 C 26.917 41.111, 30.201 45.534, 40.289 50.646 C 45.225 53.148, 45.368 53.160, 50.962 51.591 C 59.153 49.292, 68.205 49.464, 70.464 51.960 C 72.942 54.699, 71.745 58.601, 67.058 63.060 C 62.231 67.651, 55.724 69.595, 49.236 68.384 C 40.998 66.846, 23.943 67.414, 20.250 69.349 C 16.633 71.243, 16.062 73.865, 18.750 76.229 C 23.743 80.618, 38.016 85.359, 50.382 86.734 L 57.264 87.500 52.768 93 C 50.294 96.025, 44.967 101.425, 40.929 105 C 26.193 118.046, 20 124.845, 20 127.975 C 20 131.768, 21.324 132.470, 28.197 132.320 C 33.338 132.207, 34.755 131.636, 42.697 126.481 C 53.883 119.219, 63.433 111.609, 73.250 102.134 L 81 94.653 81 106.434 C 81 116.494, 81.219 118.130, 82.500 117.638 C 83.325 117.322, 83.997 117.386, 83.993 117.781 C 83.989 118.177, 81.935 124.800, 79.429 132.500 C 74.178 148.627, 74.763 147.849, 55.228 164.693 C 40.597 177.309, 38.056 180.274, 39.671 182.851 C 40.988 184.953, 43.852 185.356, 51.584 184.528 C 58.969 183.737, 65.107 180.371, 78.847 169.574 C 83.987 165.534, 90.519 161.053, 93.361 159.615 C 102.185 155.150, 109.502 156.613, 115.072 163.954 C 123.943 175.644, 131.743 182.137, 139.365 184.175 C 143.281 185.223, 144.442 185.159, 147.425 183.737 C 154.655 180.289, 155.971 170.700, 150.321 162.637 C 146.910 157.769, 138.721 152.562, 131 150.353 C 124.057 148.366, 121.668 146.109, 111.973 132.380 C 103.268 120.051, 97.365 114.347, 92.337 113.403 C 90.502 113.059, 89 112.691, 89 112.585 C 89 111.814, 96.721 89.956, 101.033 78.519 C 106.167 64.903, 117.414 38.253, 118.472 37.195 C 119.477 36.190, 119.937 37.643, 122.130 48.760 C 124.204 59.273, 124.256 60.597, 123.012 71.393 C 121.451 84.948, 122.273 110.712, 124.553 119.683 C 126.088 125.725, 130.352 131, 133.700 131 C 136.846 131, 143.542 127.043, 147.886 122.616 L 152.232 118.188 148.616 110.959 C 141.206 96.147, 144.255 91.444, 163.819 87.512 C 179.184 84.424, 184 80.718, 184 71.982 C 184 69.307, 183.591 66.865, 183.090 66.556 C 182.590 66.247, 180.187 66.848, 177.750 67.893 C 165.370 73.199, 156.374 72.524, 152.551 66 C 150.713 62.863, 150.447 60.323, 149.989 41.500 C 149.534 22.794, 149.244 19.991, 147.333 15.836 C 143.468 7.430, 137.320 6.517, 130.713 13.368 M 135.492 12.842 C 132.188 14.857, 129.108 18.663, 124.098 26.920 L 120.809 32.340 122.890 39.420 C 125.662 48.851, 126.868 60.919, 125.896 69.500 C 125.460 73.350, 125.093 82.800, 125.082 90.500 C 125.048 114.049, 127.592 126.358, 132.763 127.655 C 135.935 128.452, 140.558 126.062, 145.352 121.148 L 148.911 117.500 145.879 111.386 C 142.016 103.598, 141.261 98.331, 143.411 94.173 C 145.569 90, 150.433 87.664, 162.332 85.086 C 170.301 83.360, 180 79.867, 180 78.723 C 180 78.593, 180.401 77.088, 180.892 75.377 C 182.324 70.383, 181.209 69.833, 174.125 72.038 C 166.520 74.405, 158.980 74.558, 154.863 72.429 C 152.938 71.434, 151.045 69.143, 149.697 66.179 C 147.816 62.040, 147.507 59.077, 147.025 40.500 C 146.448 18.258, 145.659 14.493, 141.055 12.030 C 138.641 10.737, 139.038 10.680, 135.492 12.842 M 106.839 19.292 C 102.553 22.561, 98 28.283, 98 30.400 C 98 31.008, 100.250 35.328, 103 40 C 105.750 44.672, 108.028 49.396, 108.063 50.498 C 108.097 51.599, 110.311 47.901, 112.983 42.279 L 117.840 32.058 115.208 24.029 C 113.760 19.613, 112.256 16, 111.866 16 C 111.475 16, 109.213 17.481, 106.839 19.292 M 85.010 35.120 C 83.640 35.666, 72.615 36.227, 60.510 36.365 C 38.474 36.618, 32 37.539, 32 40.424 C 32 42.186, 35.811 45.428, 40.866 47.967 C 45.169 50.127, 45.330 50.135, 52.165 48.460 C 62.014 46.046, 69.569 46.798, 72.762 50.509 C 74.640 52.693, 75.046 54.019, 74.568 56.409 C 73.678 60.859, 69.027 66.110, 63.420 68.996 C 59.372 71.079, 57.456 71.442, 52.027 71.156 C 30.118 70.003, 19.455 70.717, 20.218 73.287 C 21.389 77.228, 42.845 84, 54.160 84 C 57.922 84, 61 84.247, 61 84.550 C 61 86.114, 57.466 91.534, 53.633 95.850 C 51.254 98.529, 43.793 105.846, 37.053 112.111 C 25.493 122.854, 21.270 127.936, 22.707 129.373 C 24.152 130.819, 30.952 129.825, 35.554 127.496 C 46.568 121.921, 69.935 103.183, 78.250 93.258 C 81.518 89.358, 82 88.120, 82 83.635 C 82 75.628, 84.825 53.422, 87.018 44.187 C 89.713 32.842, 89.795 33.212, 85.010 35.120 M 96.362 75.923 C 94.636 77.890, 91.204 82.200, 88.737 85.500 L 84.250 91.500 83.800 102.750 C 83.364 113.670, 84.027 116.383, 86.002 111.750 C 88.088 106.852, 100.097 72.769, 99.808 72.565 C 99.639 72.445, 98.088 73.956, 96.362 75.923 M 87.694 116.750 C 87.460 117.162, 85.126 124.025, 82.507 132 C 79.888 139.975, 76.631 147.993, 75.269 149.819 C 73.908 151.644, 68.244 157.044, 62.683 161.819 C 49.506 173.132, 42 180.107, 42 181.038 C 42 182.494, 44.576 182.731, 50.930 181.860 C 58.578 180.812, 62.890 178.462, 76.681 167.827 C 93.735 154.676, 100.812 152.054, 109.218 155.772 C 111.757 156.895, 114.991 159.433, 116.615 161.575 C 130.065 179.326, 142.076 186.015, 148.666 179.425 C 150.896 177.195, 151.178 176.209, 150.779 172.053 C 149.947 163.391, 142.911 156.910, 130.012 152.923 C 122.223 150.516, 119.833 148.368, 111.209 136.026 C 103.286 124.685, 98.615 119.369, 94.875 117.435 C 91.870 115.882, 88.374 115.548, 87.694 116.750" stroke="none" fill="black" fill-rule="evenodd"/>
</svg>