<svg xmlns="http://www.w3.org/2000/svg" width="200" height="200" viewBox="0 0 200 200" version="1.1">
	<path d="M 116.750 9.580 C 116.338 9.994, 116 11.162, 116 12.175 C 116 13.723, 115.702 13.831, 114.132 12.851 C 113.105 12.209, 111.530 11.966, 110.632 12.311 C 108.481 13.136, 108.462 20.713, 110.581 32.619 C 111.568 38.166, 111.937 43.814, 111.562 47.665 C 110.672 56.807, 107.305 68.941, 104.469 73.227 C 102.385 76.375, 101.402 77, 98.533 77 C 96.642 77, 93.918 76.464, 92.480 75.809 C 90.021 74.689, 89.902 74.315, 90.490 69.559 C 91.462 61.701, 93.906 48.374, 96.152 38.688 C 97.910 31.109, 98.547 29.743, 100.707 28.921 C 102.784 28.132, 103.005 27.711, 101.986 26.483 C 100.572 24.780, 98.722 24.600, 96.236 25.927 C 95.281 26.436, 84.150 27.322, 71.500 27.895 C 41.654 29.247, 33 31.417, 33 37.551 C 33 41.613, 45.731 50.669, 48.104 48.296 C 48.956 47.444, 48.017 46.533, 44.372 44.677 C 41.692 43.314, 38.481 41.104, 37.234 39.768 C 35.070 37.447, 35.049 37.266, 36.751 35.726 C 37.731 34.839, 40.609 33.648, 43.148 33.079 C 53.386 30.785, 95 28.921, 95 30.757 C 95 31.173, 93.894 36.460, 92.543 42.507 C 91.191 48.553, 89.470 57.775, 88.718 63 C 87.695 70.107, 86.991 72.453, 85.925 72.314 C 85.141 72.212, 81.356 70.943, 77.513 69.495 C 69.080 66.316, 59.324 65.964, 50.246 68.511 C 44.541 70.112, 43.857 70.113, 39.103 68.534 C 36.318 67.609, 33.018 66.016, 31.770 64.994 L 29.500 63.136 33 61.668 C 36.906 60.031, 50.879 57.733, 67.500 55.994 C 80.950 54.587, 86 53.366, 86 51.520 C 86 49.493, 85.214 49.202, 75.382 47.583 C 57.774 44.683, 58 44.700, 58 46.318 C 58 47.369, 59.556 48.010, 63.250 48.478 C 72.567 49.659, 81.542 51.374, 80 51.679 C 79.175 51.843, 70.730 52.878, 61.234 53.980 C 34.077 57.131, 25.546 59.768, 27.345 64.457 C 28.155 66.567, 33.502 69.705, 39.592 71.644 C 44.252 73.128, 45.101 73.131, 49.592 71.686 C 60.789 68.081, 69.433 68.643, 81.187 73.740 L 87 76.261 87 83.124 L 87 89.986 74.524 83.493 C 62.592 77.283, 57.355 75.792, 54.400 77.765 C 52.265 79.191, 51 82.924, 51 87.797 L 51 92.725 45.250 93.391 C 21.540 96.138, 15.678 106.003, 33.563 113.058 C 38.751 115.105, 41.202 115.401, 53 115.403 C 67.259 115.406, 73.478 114.260, 85.318 109.449 L 91.154 107.078 94.827 110.922 L 98.500 114.767 89.534 115.436 C 78.481 116.260, 57.274 120.116, 46.289 123.299 C 41.081 124.807, 37.729 125.329, 37.124 124.724 C 35.623 123.223, 33.178 129.029, 34.059 132 C 34.467 133.375, 34.845 136.804, 34.900 139.619 C 35.182 154.071, 40.643 171.828, 46.810 178.342 C 52.539 184.393, 60.656 186.836, 69.166 185.069 C 73.649 184.139, 76.513 184.297, 86.518 186.028 C 103.184 188.912, 124.137 189.655, 135 187.746 C 158.966 183.535, 164.170 172.037, 150.689 153.084 C 146.356 146.993, 146.818 145.350, 153.107 144.485 C 155.853 144.108, 157.950 143.506, 157.768 143.149 C 154.378 136.517, 154.396 136.917, 157.380 134.349 C 161.221 131.046, 160.229 129.001, 154.781 128.995 L 150.500 128.990 150.271 124.968 C 149.806 116.808, 146.016 114.694, 140.805 119.687 L 138 122.374 138 119.222 C 138 114.658, 135.360 113.599, 125.815 114.335 C 118.205 114.922, 118 114.879, 118 112.694 C 118 110.669, 118.753 110.331, 125.750 109.218 C 135.879 107.606, 144.189 103.570, 162.578 91.329 C 170.785 85.866, 179.682 80.137, 182.350 78.598 C 188.680 74.944, 187.338 73.264, 179.833 75.446 C 161.560 80.758, 155.626 76.022, 153.879 54.728 C 151.999 31.817, 151.146 26.709, 148.255 21.033 C 146.179 16.959, 144.221 14.794, 140.567 12.533 C 136.220 9.844, 134.634 9.462, 126.582 9.164 C 121.587 8.979, 117.162 9.166, 116.750 9.580 M 121.250 11.677 C 118.051 12.334, 118.263 17.671, 121.929 28.693 C 126.454 42.302, 128.218 52.331, 128.319 65.013 C 128.405 75.928, 128.249 76.863, 125.303 83.013 C 123.595 86.581, 121.013 90.825, 119.566 92.444 C 118.119 94.063, 117.174 96.012, 117.467 96.775 C 117.760 97.539, 118 100.152, 118 102.582 C 118 106.911, 118.066 107, 121.290 107 C 130.910 107, 141.114 102.400, 160.823 89.179 L 174.147 80.242 167.606 79.826 C 155.383 79.048, 152.461 73.735, 150.473 48.669 C 148.555 24.480, 146.010 17.624, 137.592 13.973 C 133.226 12.078, 124.956 10.917, 121.250 11.677 M 112.047 20.750 C 112.072 23.913, 112.655 29.425, 113.342 33 L 114.591 39.500 115.289 30.188 C 115.844 22.782, 115.676 20.274, 114.468 17.938 C 113.632 16.322, 112.735 15, 112.474 15 C 112.213 15, 112.021 17.587, 112.047 20.750 M 118.096 36.500 C 118.041 42, 117.700 56.288, 117.338 68.250 C 116.870 83.760, 116.996 90, 117.778 90 C 118.381 90, 120.301 87.103, 122.044 83.562 C 124.593 78.385, 125.310 75.496, 125.703 68.812 C 126.276 59.087, 124.196 44.799, 120.619 33.887 L 118.197 26.500 118.096 36.500 M 112.735 57.172 C 110.658 67.784, 106.984 76.125, 103.336 78.515 C 100.771 80.196, 95.954 80.186, 91.750 78.492 C 90.184 77.860, 90 78.515, 90 84.735 L 90 91.683 95.911 93.473 C 102.066 95.337, 112.134 95.266, 114.055 93.345 C 114.658 92.742, 114.935 83.804, 114.770 70.259 L 114.500 48.157 112.735 57.172 M 54.420 82.463 C 54.080 83.817, 53.959 87.193, 54.151 89.965 C 54.493 94.896, 54.436 95.014, 51.500 95.440 C 36.599 97.603, 33.322 98.305, 29.851 100.076 C 19.415 105.400, 32.990 112.948, 53.066 112.984 C 63.729 113.004, 70.988 111.690, 81.763 107.791 C 89.308 105.061, 90.103 104.533, 89.532 102.625 C 89.182 101.456, 88.647 98.906, 88.344 96.958 C 87.814 93.556, 87.269 93.147, 74.646 86.674 C 60.022 79.175, 55.483 78.229, 54.420 82.463 M 91 96.351 C 91 97.094, 91.469 99.046, 92.041 100.689 C 93.018 103.490, 93.625 103.780, 101.791 105.345 C 115.243 107.922, 115 107.993, 115 101.525 C 115 96.061, 114.995 96.051, 112.435 97.025 C 108.722 98.437, 102.052 98.223, 96.409 96.511 C 90.464 94.707, 91 94.723, 91 96.351 M 96.500 108.981 C 99.628 112.471, 105.494 115, 110.460 115 C 114.636 115, 115 114.800, 115 112.500 C 115 111.125, 114.662 109.997, 114.250 109.992 C 113.176 109.982, 101.057 108.074, 97.500 107.356 L 94.500 106.750 96.500 108.981 M 95.500 117.668 C 81.481 118.482, 55.341 123.063, 45 126.519 L 40.500 128.022 45.730 127.660 C 50.128 127.355, 51.053 127.592, 51.547 129.149 C 52.103 130.900, 53.872 131, 84.206 131 L 116.278 131 115.727 124.921 C 115.423 121.578, 115.023 118.715, 114.838 118.560 C 114.185 118.015, 100.446 117.381, 95.500 117.668 M 127.188 119.004 C 129.216 120.093, 131.568 121.973, 132.415 123.182 C 134.294 125.865, 134.856 125.418, 135.219 120.947 L 135.500 117.500 129.500 117.262 L 123.500 117.024 127.188 119.004 M 118 121.375 C 118 122.681, 118.281 125.156, 118.625 126.875 C 119.247 129.983, 119.285 130, 125.625 130 C 132.542 130, 133.266 129.253, 130.367 125.114 C 128.800 122.876, 121.850 119.068, 119.250 119.022 C 118.563 119.010, 118 120.069, 118 121.375 M 141.908 122.750 C 140.552 124.263, 138.598 126.513, 137.566 127.750 L 135.690 130 141.376 130 C 147.799 130, 148.623 129.133, 147.565 123.492 C 146.775 119.285, 145.201 119.078, 141.908 122.750 M 138.703 132.737 C 134.706 133.051, 133.710 133.542, 132.736 135.681 C 131.613 138.144, 131.311 138.225, 125.283 137.662 C 121.827 137.339, 119.006 137.396, 119.014 137.788 C 119.021 138.179, 119.299 139.512, 119.630 140.750 C 120.176 142.787, 120.841 143, 126.649 143 C 130.177 143, 134.598 142.359, 136.473 141.576 C 139.422 140.344, 140.040 140.344, 141.063 141.576 C 143.145 144.085, 145.696 143.268, 146.375 139.875 C 147.492 134.292, 147.154 131.984, 145.250 132.180 C 144.287 132.279, 141.341 132.530, 138.703 132.737 M 150 133.875 C 150 134.906, 149.719 137.156, 149.375 138.875 C 148.834 141.579, 149.032 142, 150.845 142 C 152.591 142, 152.918 141.427, 152.809 138.546 C 152.738 136.646, 153.257 134.396, 153.962 133.546 C 155.064 132.218, 154.875 132, 152.622 132 C 150.725 132, 150 132.518, 150 133.875 M 111.250 133.689 C 112.213 133.941, 113.787 133.941, 114.750 133.689 C 115.713 133.438, 114.925 133.232, 113 133.232 C 111.075 133.232, 110.287 133.438, 111.250 133.689 M 120 134 C 121.976 135.277, 129.711 135.277, 130.500 134 C 130.887 133.373, 128.764 133.006, 124.809 133.015 C 120.367 133.026, 118.944 133.317, 120 134 M 38.131 143.250 C 40.159 170.879, 50.306 184.725, 66.894 182.497 C 75.235 181.377, 77.638 181.481, 87.500 183.386 C 99.563 185.716, 125.467 186.646, 134.499 185.074 C 143.192 183.560, 150.482 180.473, 153.037 177.226 C 156.703 172.565, 154.495 161.900, 148.268 154.191 L 146.402 151.882 144.581 157.691 C 143.579 160.886, 141.640 165.750, 140.272 168.500 C 133.681 181.752, 126.899 182.501, 122.166 170.500 C 121.147 167.914, 118.068 154.791, 118.017 152.817 C 118.008 152.442, 113.612 153.924, 108.250 156.111 C 95.664 161.244, 85.069 164, 77.926 164 C 66.035 164, 56.563 155.600, 51.808 140.836 L 49.606 134 43.529 134 L 37.452 134 38.131 143.250 M 53.421 136.541 C 56.245 147.794, 61.752 156.075, 68.429 159.107 C 73.492 161.406, 82.139 161.537, 90.245 159.437 C 96.392 157.844, 115.922 150.404, 117.208 149.165 C 118.965 147.474, 115.783 145.954, 108.452 144.983 C 97.906 143.586, 87.061 140.322, 86.289 138.312 C 85.922 137.355, 86.421 136.165, 87.529 135.355 C 89.113 134.197, 86.726 134, 71.083 134 L 52.783 134 53.421 136.541 M 91 136.944 C 88.692 137.631, 88.845 137.786, 93 138.961 C 98.388 140.484, 111.598 142.916, 114.750 142.965 C 116.567 142.993, 117 142.450, 117 140.142 C 117 137.379, 116.798 137.264, 110.853 136.642 C 103.143 135.837, 94.265 135.971, 91 136.944 M 120 147 C 120 148.253, 121.061 148.253, 123 147 C 124.213 146.216, 124.069 146.028, 122.250 146.015 C 121.013 146.007, 120 146.450, 120 147 M 126.250 148.501 C 123.330 149.828, 121 151.549, 121 152.378 C 121 156.001, 124.162 168.398, 126.011 172.022 C 129.515 178.889, 133.571 176.635, 138.914 164.850 C 143.141 155.527, 144.582 149.406, 142.997 147.497 C 141.068 145.172, 132.436 145.690, 126.250 148.501" stroke="none" fill="black" fill-rule="evenodd"/>
</svg>