<svg xmlns="http://www.w3.org/2000/svg" width="200" height="200" viewBox="0 0 200 200" version="1.1">
	<path d="M 139.407 18.070 C 137.155 18.495, 133.555 19.606, 131.407 20.539 C 128.321 21.879, 122.983 22.367, 106 22.863 C 74.310 23.788, 66.159 23.653, 59.462 22.094 C 54.267 20.884, 53.011 20.885, 50.462 22.101 C 44.204 25.087, 46.818 34.114, 55.760 40.399 C 58.992 42.670, 61.347 43.456, 65.745 43.730 C 71.593 44.093, 74.776 43.064, 73.615 41.185 C 73.232 40.567, 71.868 40.449, 70.237 40.893 C 61.054 43.395, 45.929 31.582, 50.432 25.424 C 51.523 23.932, 52.465 23.814, 57.101 24.593 C 60.071 25.092, 77.317 25.401, 95.426 25.281 C 123.113 25.096, 128.884 24.808, 131.698 23.473 C 133.538 22.600, 137.428 21.385, 140.342 20.774 C 144.966 19.804, 146.139 19.907, 149.570 21.581 C 152.705 23.112, 153.776 24.374, 154.868 27.822 C 156.055 31.576, 156.022 33.024, 154.615 38.822 C 153.724 42.495, 152.996 47.605, 152.997 50.178 C 152.999 52.969, 151.166 60.630, 148.452 69.178 C 142.794 86.995, 141.661 92.498, 143.098 95.184 C 144.279 97.390, 145.419 97.311, 153 94.489 C 162.275 91.038, 175.511 94.927, 179.495 102.274 L 181.491 105.953 179.346 108.098 C 177.512 109.933, 176.137 110.224, 169.851 110.111 C 133.571 109.461, 122.391 109.710, 118.828 111.248 C 112.831 113.836, 112.304 115.540, 111.632 134.500 C 110.966 153.285, 108.797 165.978, 104.670 175.250 C 101.895 181.482, 101.818 181.530, 97.119 179.892 C 91.418 177.904, 90.507 174.645, 90.443 156 C 90.404 144.980, 89.979 138.755, 89.161 137.258 C 88.151 135.406, 88.307 133.801, 90.057 128.039 C 91.849 122.138, 91.995 120.516, 91.005 117.514 C 88.626 110.307, 81.473 109.010, 60.095 111.910 C 51.623 113.060, 43.041 114, 41.024 114 C 31.317 114, 20.599 106.790, 21.193 100.660 L 21.500 97.500 27.500 97.844 C 30.800 98.033, 48.801 98.295, 67.501 98.426 C 91.102 98.591, 102.170 99.021, 103.686 99.832 C 108.647 102.487, 116.130 100.729, 120.701 95.833 C 123.957 92.345, 127.175 84.377, 127.247 79.622 C 127.375 71.166, 123.485 68.298, 114.128 69.950 C 111.032 70.496, 101.525 71.419, 93 72 C 76.654 73.116, 65.155 74.522, 59.793 76.059 C 57.110 76.829, 55.506 76.489, 50.286 74.047 C 42.544 70.424, 40.451 67.104, 43.799 63.756 C 46.442 61.114, 56.611 60.161, 63.542 61.906 C 66.773 62.720, 69.850 62.755, 74.285 62.030 C 77.703 61.471, 88.377 60.354, 98.005 59.549 C 116.663 57.987, 124.739 56.642, 127.477 54.640 C 129.539 53.133, 129.901 45.553, 128.075 42.139 C 125.239 36.842, 118.386 36.045, 97.050 38.531 C 89.823 39.374, 83.481 39.797, 82.955 39.472 C 82.430 39.148, 82 39.645, 82 40.577 C 82 42.100, 82.993 42.206, 91.750 41.617 C 123.136 39.508, 124.394 39.642, 126.269 45.293 C 128.664 52.512, 125.828 54.073, 107 55.902 C 101.225 56.463, 91.100 57.495, 84.500 58.195 C 77.900 58.896, 70.250 59.300, 67.500 59.092 C 53.408 58.030, 46.194 58.461, 43.424 60.531 C 36.148 65.968, 39.653 72.898, 52.284 78.048 C 55.733 79.454, 56.832 79.443, 64.304 77.930 C 68.828 77.015, 79.947 75.750, 89.014 75.121 C 98.081 74.491, 109.067 73.468, 113.427 72.847 C 121.206 71.739, 121.389 71.762, 123.280 74.097 C 128.028 79.962, 121.072 95.171, 112.321 98.059 C 109.497 98.991, 108.296 98.837, 104.662 97.078 C 100.685 95.153, 99.472 95.059, 88.926 95.854 C 78.007 96.677, 37.770 95.734, 27.731 94.420 C 21.220 93.568, 18 95.635, 18 100.666 C 18 106.080, 25.406 113.190, 33.494 115.541 C 39.284 117.224, 40.056 117.207, 58.484 114.979 C 78.791 112.523, 83.729 112.729, 87.175 116.175 C 88.871 117.871, 89.132 119.024, 88.636 122.637 C 88.305 125.056, 87.308 128.437, 86.422 130.151 C 84.942 133.012, 84.942 133.687, 86.411 138.384 C 87.629 142.276, 87.954 146.968, 87.773 158 C 87.574 170.104, 87.818 173.022, 89.247 175.662 C 91.827 180.424, 95.671 183, 100.198 183 C 104.058 183, 104.176 182.890, 107.036 176.581 C 111.239 167.312, 113.934 152.155, 114.775 133.053 L 115.500 116.606 119 114.553 C 122.339 112.595, 123.781 112.513, 150.287 112.790 L 178.073 113.080 181.139 110.015 C 183.597 107.557, 184.078 106.410, 183.566 104.225 C 182.548 99.872, 175.065 93.394, 168.963 91.582 C 162.098 89.543, 158.750 89.626, 152 92 C 148.975 93.064, 146.105 93.949, 145.622 93.967 C 144.181 94.021, 145.681 87.349, 150.558 72 C 156.775 52.440, 159.583 30.094, 156.535 24.436 C 153.627 19.034, 147.118 16.616, 139.407 18.070" stroke="none" fill="black" fill-rule="evenodd"/>
</svg>