<svg xmlns="http://www.w3.org/2000/svg" width="200" height="200" viewBox="0 0 200 200" version="1.1">
	<path d="M 142 9.990 C 142 10.615, 143.781 16.386, 145.957 22.814 C 150.961 37.594, 153.786 54.222, 151 52.500 C 150.450 52.160, 149.996 50.671, 149.990 49.191 C 149.974 44.668, 145.328 36.189, 140.047 31.046 C 131.242 22.470, 118.287 18.028, 113.547 21.961 C 110.854 24.195, 111.943 31.678, 115.846 37.760 C 118.869 42.471, 119 43.108, 118.997 53.088 L 118.994 63.500 115.093 57.633 C 112.712 54.052, 110.924 49.976, 110.503 47.172 C 109.471 40.292, 106.114 32.121, 103.657 30.511 C 102.460 29.727, 100.135 29.239, 98.491 29.428 C 96.184 29.692, 95.550 30.229, 95.719 31.777 C 96.034 34.661, 93.899 34.971, 73.582 34.986 C 53.512 35.002, 44.524 36.172, 39.744 39.394 C 36.897 41.312, 36.500 42.125, 36.500 46.040 L 36.500 50.500 52.500 51.122 C 61.300 51.465, 70.006 52.233, 71.847 52.830 C 75.558 54.034, 78 55.758, 78 57.173 C 78 60.487, 59.143 62.975, 47.208 61.236 L 40.915 60.319 38.102 63.910 C 32.385 71.207, 31.598 74.905, 35.223 77.443 C 38.111 79.466, 41.925 79.383, 56.500 76.980 C 71.245 74.548, 81.686 74.392, 84.777 76.557 C 87.627 78.553, 87.707 83.846, 84.978 89.859 C 83.890 92.257, 83 94.455, 83 94.745 C 83 95.035, 85.101 94.984, 87.669 94.632 C 100.608 92.858, 109.246 81.256, 110.729 63.661 L 111.305 56.821 115.289 63.087 L 119.273 69.353 118.700 77.927 C 117.605 94.298, 112.403 103.615, 102.758 106.479 C 96.793 108.251, 90.318 108.317, 84.047 106.670 C 79.661 105.517, 79.537 105.367, 75.762 96.605 C 71.220 86.062, 68.520 82, 66.054 82 C 63.636 82, 62.562 83.444, 58.076 92.721 C 54.193 100.749, 49.842 105.500, 45.334 106.631 C 43.952 106.978, 40.155 107.020, 36.896 106.724 C 31.646 106.248, 30.846 106.420, 29.875 108.233 C 27.493 112.685, 27.053 116.192, 28.457 119.552 C 30.544 124.546, 34.855 126.317, 46.121 126.805 C 57.080 127.280, 67.141 126.132, 88.318 121.988 L 103.136 119.088 108.556 123.502 C 121.869 134.346, 130.885 130.885, 138.496 112.011 L 141.792 103.837 144.701 108.168 C 147.466 112.285, 147.590 112.931, 147.205 121.181 C 146.886 128.017, 146.450 130.021, 145.150 130.609 C 144.243 131.020, 128.875 131.644, 111 131.997 C 78.088 132.647, 74.835 133.029, 70.752 136.725 C 69.745 137.636, 69 139.739, 69 141.670 C 69 144.369, 69.622 145.407, 72.161 146.951 C 77.560 150.235, 87.254 151.289, 100.124 149.991 C 106.381 149.360, 116.973 148.594, 123.662 148.290 C 134.761 147.785, 136.218 147.927, 140.322 149.914 C 145.663 152.500, 147.988 157.137, 148.021 165.270 C 148.048 172.140, 150.177 182.096, 152.318 185.363 C 161.088 198.747, 179.489 171.055, 177.772 147.059 C 177.180 138.789, 173.838 132.299, 168.456 128.973 C 166.497 127.762, 164.662 127.005, 164.378 127.289 C 164.093 127.573, 164.839 129.762, 166.035 132.153 C 168.525 137.132, 166.961 135.777, 161.673 128.374 L 158.011 123.248 161.036 122.643 C 166.777 121.495, 173.631 110.907, 176.494 98.760 C 178.254 91.298, 178.460 75.617, 176.858 71.024 C 175.897 68.266, 176.011 67.256, 177.580 64.625 C 181.745 57.638, 180.145 31.129, 174.905 20.305 C 172.499 15.334, 168.863 12.977, 166.172 14.645 C 163.117 16.539, 159.852 23.926, 157.072 35.232 L 154.324 46.410 153.626 40.475 C 153.242 37.210, 151.413 30.010, 149.561 24.475 C 147.708 18.940, 146.037 13.310, 145.846 11.966 C 145.506 9.562, 142 7.762, 142 9.990 M 165.561 19.266 C 160.962 26.285, 156.483 47.572, 153.627 75.978 C 151.754 94.606, 153.382 113.037, 157.382 118.508 C 159.716 121.700, 163.884 119.483, 167.781 112.978 C 173.967 102.652, 176.984 87.469, 175.052 76.380 C 174.407 72.675, 173.437 68.817, 172.897 67.807 C 172.165 66.439, 172.296 65.824, 173.409 65.397 C 179.242 63.158, 178.289 33.327, 171.989 20.979 C 169.694 16.479, 167.730 15.956, 165.561 19.266 M 115.674 24.469 C 114.753 25.390, 114 26.269, 114 26.422 C 114 27.880, 116.923 34.380, 119.183 37.946 C 121.902 42.237, 122 42.847, 122 55.462 L 122 68.533 131.383 82.926 L 140.765 97.319 142.810 92.697 C 144.215 89.520, 145.618 87.883, 147.296 87.462 C 149.538 86.899, 149.793 86.222, 150.415 79.174 C 150.788 74.954, 151.363 69.700, 151.692 67.500 L 152.292 63.500 148.329 67.922 C 142.956 73.919, 141.330 72.684, 144.786 65.231 C 150.132 53.702, 147.236 40.779, 137.356 32.082 C 129.122 24.834, 118.899 21.244, 115.674 24.469 M 100.444 34.554 C 101.443 36.080, 103.190 38.902, 104.326 40.827 C 107.247 45.779, 107.660 42.901, 104.843 37.222 C 103.480 34.475, 101.690 32.350, 100.563 32.141 C 98.675 31.790, 98.672 31.850, 100.444 34.554 M 93.500 37.117 C 91.300 37.539, 81.310 37.911, 71.299 37.942 C 50.912 38.007, 43.829 39.080, 40.263 42.646 C 36.049 46.860, 37.456 47.454, 53.080 48.055 C 72.915 48.818, 82.337 52.212, 80.519 57.939 C 78.983 62.780, 65.453 65.625, 51 64.146 C 41.521 63.177, 40.654 63.514, 37.487 69.394 C 33.597 76.617, 36.800 77.332, 57.728 73.914 C 80.971 70.117, 90 72.157, 90 81.206 C 90 83.328, 89.348 86.625, 88.551 88.532 C 86.843 92.619, 87.565 92.849, 93.500 90.110 C 102.261 86.066, 107.086 76.543, 107.791 61.901 L 108.258 52.187 103.521 44.585 C 100.915 40.405, 98.494 36.841, 98.141 36.666 C 97.789 36.492, 95.700 36.694, 93.500 37.117 M 150.158 57 C 150.158 58.375, 150.385 58.938, 150.662 58.250 C 150.940 57.563, 150.940 56.438, 150.662 55.750 C 150.385 55.063, 150.158 55.625, 150.158 57 M 121.573 80.057 C 120.564 88.975, 117.493 97.976, 114.031 102.160 C 109.250 107.938, 103.067 110.409, 93.521 110.355 C 84.721 110.305, 77.008 108.606, 76.986 106.711 C 76.960 104.531, 67.140 85, 66.069 85 C 65.495 85, 63.395 88.263, 61.403 92.250 C 54.144 106.783, 49.250 110.504, 38.312 109.807 L 31.960 109.403 30.866 113.054 C 28.508 120.925, 33.628 124, 49.090 124 C 60.041 124, 73.523 122.263, 92.374 118.424 L 104.276 116 108.698 120.076 C 121.715 132.074, 130.367 128.157, 137.452 107.059 L 139.654 100.500 130.960 87.220 L 122.265 73.940 121.573 80.057 M 145.652 92.750 C 142.837 98.284, 142.766 99.885, 145.161 103.761 L 147.467 107.492 148.176 103.496 C 149.225 97.581, 149.141 90, 148.026 90 C 147.490 90, 146.422 91.237, 145.652 92.750 M 149.767 124.010 C 149.486 127.933, 148.828 131.572, 148.305 132.095 C 146.284 134.116, 134.507 134.989, 109.193 134.994 C 80.373 135.001, 74.893 135.708, 72.235 139.764 C 70.684 142.132, 70.713 142.349, 72.812 144.049 C 77.809 148.095, 88.358 148.830, 108 146.500 C 130.839 143.791, 139.810 144.691, 145.842 150.298 C 149.330 153.539, 150.180 156.387, 151.053 167.754 C 152.299 183.995, 156.092 189.159, 162.695 183.603 C 166.476 180.421, 171.494 171.039, 173.469 163.458 C 174.311 160.225, 175 153.988, 175 149.599 C 175 142.487, 174.847 141.828, 173.590 143.546 C 172.233 145.402, 172.107 145.407, 170.200 143.681 C 169.111 142.695, 164.487 136.626, 159.925 130.194 C 155.364 123.762, 151.327 118.135, 150.954 117.689 C 150.582 117.243, 150.048 120.087, 149.767 124.010 M 172.080 138 C 173.538 141.061, 174 141.628, 174 140.358 C 174 139.821, 173.300 138.509, 172.445 137.441 C 170.978 135.611, 170.958 135.643, 172.080 138" stroke="none" fill="black" fill-rule="evenodd"/>
</svg>