<svg xmlns="http://www.w3.org/2000/svg" width="200" height="200" viewBox="0 0 200 200" version="1.1">
	<path d="M 129.012 10.177 C 129.019 10.905, 130.144 13.458, 131.512 15.852 C 132.880 18.246, 134.002 20.721, 134.005 21.352 C 134.008 21.983, 131.446 28.271, 128.312 35.324 L 122.613 48.148 120.665 44.009 C 119.594 41.733, 117.332 38.486, 115.639 36.793 C 108.657 29.811, 100.391 28.590, 73 30.492 C 60.576 31.354, 49.447 31.618, 44.750 31.160 C 39.001 30.600, 37 30.713, 37 31.596 C 37 32.250, 37.712 33.059, 38.582 33.393 C 41.156 34.381, 62.332 34.090, 79.116 32.836 C 105.725 30.849, 114.561 34.310, 119.491 48.653 C 120.638 51.989, 120.554 52.865, 118.719 56.641 C 116.962 60.258, 115.914 61.125, 111.588 62.540 C 104.655 64.808, 98.201 68.737, 96.244 71.882 C 82.679 93.686, 50.330 116.424, 35.288 114.729 C 31.057 114.252, 26.312 111.212, 28.501 110.380 C 30.660 109.559, 54.743 93.594, 58.766 90.316 C 61.112 88.405, 63.728 85.492, 64.581 83.844 C 65.982 81.135, 65.980 80.619, 64.568 78.463 C 62.918 75.946, 61.039 75.291, 46.328 72.108 C 35.454 69.754, 28.053 66.749, 24.921 63.416 L 22.645 60.994 29.073 61.747 C 32.608 62.161, 43.375 62.499, 53 62.499 C 68.914 62.497, 70.932 62.298, 75.264 60.299 C 84.465 56.052, 83.077 48.859, 72.152 44.162 C 62.998 40.226, 39.996 38.910, 40.002 42.322 C 40.004 43.150, 43.196 43.512, 50.752 43.542 C 63.373 43.591, 71.446 45.627, 76.273 49.978 C 80.436 53.730, 79.378 55.777, 71.915 58.411 C 67.442 59.990, 63.890 60.305, 51.500 60.223 C 43.250 60.169, 32.338 59.505, 27.250 58.748 C 22.163 57.991, 18 57.536, 18 57.736 C 18 59.391, 21.608 64.353, 24.249 66.330 C 29.922 70.577, 33.859 72.074, 47.344 75.113 C 62.241 78.470, 64.164 79.575, 61.685 83.358 C 59.458 86.757, 50.683 93.353, 37 101.914 C 30.675 105.872, 25.093 109.515, 24.596 110.009 C 22.950 111.646, 29.741 116.839, 34.451 117.545 C 42.645 118.774, 56.122 113.251, 70 102.976 C 77.728 97.255, 92.318 82.457, 96.935 75.657 C 99.556 71.799, 101.660 70.126, 107.296 67.425 C 111.186 65.561, 114.526 64.192, 114.717 64.383 C 114.908 64.575, 113.005 68.954, 110.489 74.116 C 106.445 82.408, 105.608 83.500, 103.294 83.500 C 101.854 83.500, 100.486 84.063, 100.254 84.750 C 100.023 85.437, 100.519 86, 101.358 86 C 104.415 86, 103.938 88.103, 98.316 99.396 L 92.586 110.908 87.043 111.557 C 74.490 113.028, 58.745 116.080, 55.725 117.627 C 47.578 121.801, 49.819 126.580, 63.879 135.017 L 70.500 138.989 63 139.011 C 57.121 139.028, 54.636 139.517, 51.500 141.271 C 39.497 147.985, 40.787 166.107, 54.150 178.478 C 63.790 187.403, 74.686 189.334, 86.922 184.286 C 92.984 181.785, 94.598 181.569, 107.500 181.537 C 115.200 181.518, 127.125 182.050, 134 182.718 C 153.031 184.569, 166.118 181.826, 172.950 174.553 L 175.290 172.063 171.845 168.250 C 169.950 166.153, 165.095 159.726, 161.056 153.968 C 151.974 141.021, 147.301 136, 144.332 136 C 140.296 136, 139.498 139.255, 139.519 155.647 L 139.538 170.795 136.450 162.647 C 133.063 153.712, 130.770 148.977, 127.758 144.694 C 125.065 140.865, 121.240 141.328, 118.514 145.811 C 106.575 165.445, 105.786 166, 89.769 166 C 80.672 166, 77.929 165.703, 78.237 164.750 C 78.459 164.063, 83.224 160.331, 88.826 156.457 C 106.955 143.921, 111.775 138.834, 110.726 133.347 C 110.372 131.494, 110.634 131.061, 111.884 131.438 C 121.525 134.351, 135 135.459, 144.044 134.084 C 157.080 132.102, 167.724 125.089, 165.110 120.205 C 162.622 115.556, 151.020 114.924, 135.008 118.566 L 128.004 120.159 123.857 116.609 C 121.575 114.657, 118.149 112.544, 116.242 111.915 C 111.427 110.326, 103.117 111.216, 98.032 113.866 C 95.682 115.091, 93.547 115.880, 93.287 115.620 C 93.027 115.360, 94.093 114.484, 95.657 113.672 C 97.694 112.615, 100.150 109.052, 104.324 101.098 C 107.526 94.994, 110.357 90, 110.613 90 C 111.699 90, 119.431 94.338, 128.247 99.891 C 143.120 109.262, 148.960 110.909, 154.891 107.405 C 161.035 103.776, 166.526 90.071, 166.273 79 C 166.191 75.425, 166.602 62.825, 167.185 51 C 168.391 26.591, 167.648 19.194, 163.585 15.131 C 161.753 13.298, 160.567 12.892, 158.536 13.402 C 155.333 14.206, 148.296 20.523, 144.496 26.006 C 142.974 28.202, 141.397 30, 140.992 30 C 140.587 30, 139.975 28.242, 139.631 26.093 C 138.790 20.837, 132.870 9.599, 130.724 9.185 C 129.776 9.003, 129.005 9.449, 129.012 10.177 M 153.832 19.750 C 147.900 25.081, 141.219 34.473, 139.915 39.316 C 139.278 41.682, 137.379 44.792, 135.477 46.586 C 131.998 49.868, 126 58.902, 126 60.861 C 126 61.487, 126.591 62, 127.313 62 C 129.257 62, 133.760 67.104, 134.516 70.165 C 136.138 76.732, 128.943 83.747, 118.227 86.045 C 115.352 86.661, 113 87.344, 113 87.563 C 113 87.781, 114.801 88.878, 117.001 90.001 C 119.202 91.123, 124.039 93.999, 127.751 96.392 C 141.728 105.400, 148.892 107.734, 154.067 104.964 C 156.358 103.738, 160.307 96.285, 162.005 89.983 C 163.209 85.516, 164.343 60.199, 164.446 35.500 C 164.528 15.778, 162.162 12.266, 153.832 19.750 M 133.753 30.012 C 126.607 45.662, 125.158 49, 125.516 49 C 127.761 49, 131.166 45.836, 134.250 40.883 C 137.955 34.933, 138.553 31.956, 137.035 27 C 136.320 24.665, 136.104 24.863, 133.753 30.012 M 125.223 51.671 C 124.101 52.122, 120 59.024, 120 60.460 C 120 60.757, 120.563 60.994, 121.250 60.986 C 121.938 60.978, 123.737 58.728, 125.250 55.986 C 127.917 51.150, 127.913 50.590, 125.223 51.671 M 116.062 68.750 C 112.307 76.382, 108.993 84, 109.426 84 C 109.889 84, 120 65.415, 120 64.565 C 120 62.627, 118.060 64.688, 116.062 68.750 M 118.146 74.121 L 112.792 84.211 117.146 83.486 C 126.028 82.006, 132 76.987, 132 71.002 C 132 68.582, 127.470 63.993, 125.104 64.015 C 124.099 64.025, 121.502 67.796, 118.146 74.121 M 105.564 90.707 C 105.022 92.132, 105.136 92.247, 106.124 91.267 C 106.808 90.588, 107.115 89.781, 106.807 89.474 C 106.499 89.166, 105.940 89.721, 105.564 90.707 M 84 114.654 C 59.393 118.405, 54 119.910, 54 123.023 C 54 125.448, 61.013 130.449, 75.708 138.503 C 83.464 142.754, 87.694 145.633, 87.382 146.447 C 87.009 147.418, 85.515 147.168, 81.142 145.401 C 64.361 138.623, 50.202 140.798, 46.949 150.653 C 43.457 161.236, 50.412 175.051, 62.196 180.940 C 69.851 184.766, 78.213 185.120, 85.434 181.926 C 93.539 178.341, 105.320 177.494, 123.500 179.191 C 132.300 180.013, 139.634 180.585, 139.797 180.462 C 140.393 180.015, 130.862 155.356, 128.216 150.500 C 124.445 143.579, 122.540 143.835, 117.996 151.876 C 109.567 166.789, 105.980 169, 90.210 169 C 81.080 169, 78.842 168.693, 76.978 167.183 C 73.577 164.429, 75.295 162.397, 88.924 153.052 C 107.285 140.462, 111.341 134.774, 105.329 130.044 C 100.772 126.460, 103.831 125.932, 113 128.721 C 119.984 130.846, 123.640 131.324, 133.500 131.403 C 147.474 131.516, 155.162 129.666, 160.273 124.960 C 163.451 122.033, 163.470 121.965, 161.500 120.397 C 158.966 118.381, 145.014 119.002, 134.317 121.606 L 127.135 123.354 123.015 119.633 C 117.956 115.062, 115.293 114, 108.895 114 C 103.738 114, 98.205 116.229, 92.406 120.644 C 90.704 121.940, 89.016 123, 88.656 123 C 87.514 123, 87.945 120.008, 89.526 116.950 C 91.003 114.094, 90.979 114.004, 88.776 114.136 C 87.524 114.211, 85.375 114.444, 84 114.654 M 142.625 142.125 C 141.859 145.955, 142.005 165.148, 142.867 174 L 143.500 180.500 149.766 180.325 C 157.114 180.120, 164.329 177.930, 168.402 174.669 L 171.305 172.345 166.311 165.923 C 163.565 162.390, 159.382 156.618, 157.017 153.096 C 151.757 145.264, 146.199 139, 144.509 139 C 143.816 139, 142.969 140.406, 142.625 142.125" stroke="none" fill="black" fill-rule="evenodd"/>
</svg>