<svg xmlns="http://www.w3.org/2000/svg" width="200" height="200" viewBox="0 0 200 200" version="1.1">
	<path d="M 131.500 13.979 C 118.547 16.911, 113.874 19.903, 115.526 24.207 C 115.840 25.025, 120.116 28.291, 125.027 31.463 C 138.466 40.142, 144 46.834, 144 54.405 C 144 57.572, 138.549 70, 137.160 70 C 136.784 70, 133.196 63.110, 129.186 54.688 C 120.444 36.328, 112.313 22.262, 109.294 20.278 C 106.081 18.165, 104.678 19.562, 105.306 24.247 C 105.945 29.007, 111.762 41.246, 113.164 40.779 C 114.519 40.327, 114.523 40.342, 110.985 32.782 C 106.599 23.409, 107.430 20.763, 112.329 28.500 C 118.673 38.517, 134.047 70.656, 133.952 73.699 C 133.903 75.240, 134.841 79.200, 136.035 82.500 C 138.726 89.934, 138.222 96.070, 134.272 103.961 C 129.870 112.756, 122.514 116.435, 118.405 111.896 C 116.047 109.291, 115.216 95.881, 116.921 87.931 C 117.537 85.059, 117.770 82.436, 117.437 82.104 C 117.105 81.772, 113.158 81.519, 108.667 81.542 C 94.814 81.614, 88.371 85.660, 73.004 103.941 C 62.193 116.803, 54.861 123.199, 46.500 127.062 C 38.288 130.857, 34 131.687, 34 129.484 C 34 127.310, 36.449 123.879, 47.551 110.500 C 61.836 93.284, 64.259 88.659, 60.800 85.200 C 59.388 83.788, 53.768 83.632, 49.404 84.884 C 46.952 85.587, 44.704 85.154, 38.411 82.763 C 27.370 78.568, 26.378 77.396, 33.144 76.536 C 60.338 73.081, 67.541 71.242, 72.611 66.460 C 75.176 64.041, 75.996 62.442, 75.985 59.882 C 75.976 58.022, 75.639 56.044, 75.235 55.486 C 74.797 54.882, 68.820 54.477, 60.460 54.486 C 48.587 54.498, 45.994 54.221, 43.657 52.692 C 42.136 51.697, 40.635 50.212, 40.320 49.391 C 39.497 47.247, 43.435 43.486, 47.902 42.148 C 52.585 40.744, 66.931 40.687, 72.833 42.048 C 76.427 42.877, 78.138 42.693, 82.869 40.967 C 93.300 37.164, 96.669 40.979, 99.571 59.882 C 101.141 70.113, 102.627 74, 104.968 74 C 107.286 74, 120 54.516, 120 50.964 C 120 48.196, 117.298 51.238, 113.253 58.560 C 109.134 66.018, 105.110 71.444, 104.301 70.634 C 104.104 70.437, 103.284 65.892, 102.480 60.533 C 100.521 47.482, 99.157 43.311, 95.730 39.884 C 92.360 36.514, 87.230 36.041, 81.230 38.548 C 78.093 39.859, 76.508 39.915, 70.896 38.912 C 62.016 37.325, 49.466 38.115, 44.512 40.573 C 42.377 41.633, 39.709 43.758, 38.585 45.296 C 36.713 47.857, 36.666 48.315, 38.031 50.746 C 41.121 56.251, 45.137 57.500, 59.750 57.500 L 73 57.500 73 60.095 C 73 62.930, 71.195 64.901, 66.352 67.352 C 62.127 69.491, 56.941 70.577, 41.500 72.554 C 28.013 74.281, 25 75.162, 25 77.380 C 25 79.706, 28.505 81.959, 36.881 85.016 C 44.148 87.668, 45.865 87.934, 52.038 87.360 C 58.752 86.736, 59 86.792, 59 88.926 C 59 91.727, 55.430 96.909, 44.442 110.057 C 33.378 123.297, 30.759 127.266, 31.170 130.170 C 31.470 132.291, 31.996 132.499, 37.020 132.486 C 47.725 132.458, 58.523 124.791, 75.526 105.146 C 87.232 91.622, 92.133 87.599, 99.518 85.452 C 106.239 83.498, 114.659 83.813, 114.154 86 C 113.963 86.825, 113.569 91.775, 113.278 97 C 112.678 107.786, 114.032 112.665, 118.428 115.545 C 126.873 121.078, 139.984 107.074, 140.327 92.154 C 140.403 88.842, 140.535 86.215, 140.620 86.316 C 141.735 87.640, 146.931 101.877, 147.872 106.184 C 148.602 109.523, 150.328 113.397, 152.057 115.572 C 153.676 117.609, 155 119.840, 155 120.531 C 155 123.287, 142.818 124.308, 106 124.636 C 85.925 124.815, 68.180 125.332, 66.568 125.785 C 64.955 126.237, 62.759 127.782, 61.687 129.217 C 58.805 133.078, 60.030 136.373, 65.246 138.786 C 67.586 139.868, 73.239 142.467, 77.809 144.562 C 91.173 150.688, 94.956 156.954, 91.640 167.473 C 90.740 170.327, 88.232 175.192, 86.067 178.284 L 82.129 183.905 87.315 185.818 C 98.109 189.802, 103.885 189.401, 109.211 184.297 C 112.830 180.830, 114.644 174.489, 116.016 160.500 C 117.339 147.014, 118.629 142.437, 121.814 139.932 C 124.930 137.481, 127.584 137.498, 134.308 140.014 C 140.664 142.392, 140.383 141.884, 146.480 162.043 C 151.371 178.211, 153.002 182.153, 156.291 185.750 C 162.243 192.259, 167.485 185.509, 172.476 164.907 C 177.509 144.133, 175.130 132.398, 164.288 124.525 C 160.058 121.454, 158.805 119, 161.465 119 C 164.156 119, 169.722 113.074, 172.025 107.757 C 174.667 101.657, 175.810 86.728, 174.271 78.406 C 173.452 73.973, 173.584 72.999, 175.292 70.906 C 177.065 68.732, 177.200 67.437, 176.688 57.500 C 176.377 51.450, 175.398 42.675, 174.512 38 C 169.749 12.845, 163.058 5.100, 159.436 20.548 C 157.174 30.191, 155.702 65.043, 156.429 91.750 C 156.791 105.088, 156.905 116, 156.681 116 C 156.457 116, 154.585 111.973, 152.521 107.051 C 148.977 98.598, 148.804 97.697, 149.416 90.801 C 151.701 65.018, 151.177 51.713, 147.016 29.963 C 144.174 15.104, 143.162 11.988, 141.211 12.084 C 140.270 12.131, 135.900 12.983, 131.500 13.979 M 132.500 16.582 C 123.811 18.630, 118 20.977, 118 22.438 C 118 23.137, 122.224 26.461, 127.387 29.823 C 137.460 36.383, 144.473 43.414, 145.921 48.403 C 146.796 51.419, 146.822 51.431, 146.910 48.849 C 147.012 45.848, 143.489 24.530, 141.941 18.781 C 140.810 14.580, 140.900 14.601, 132.500 16.582 M 163.193 17.137 C 162.611 18.588, 161.633 23.088, 161.019 27.137 C 159.586 36.597, 158.565 101.310, 159.705 110.500 L 160.573 117.500 164.699 113.455 C 167.699 110.514, 169.290 107.809, 170.532 103.538 C 172.198 97.808, 172.222 94.125, 170.735 72 C 170.537 69.051, 170.799 68.552, 172.399 68.828 C 174.206 69.140, 174.268 68.558, 173.694 56.828 C 173.006 42.780, 169.962 26.839, 166.565 19.500 C 164.256 14.511, 164.249 14.506, 163.193 17.137 M 146.261 57.500 C 145.514 61.118, 143.637 65.556, 141.532 68.680 L 138.042 73.859 141.914 82.555 C 144.649 88.699, 145.943 90.701, 146.324 89.376 C 148.006 83.513, 149.027 68.613, 148.303 60.500 L 147.500 51.500 146.261 57.500 M 148.500 125.788 C 143.367 126.813, 131.594 127.227, 104.355 127.343 C 69.354 127.491, 67.088 127.610, 65.105 129.405 C 60.689 133.402, 62.722 135.372, 77.116 141.046 C 95.958 148.473, 100.322 160.119, 90.422 176.560 C 86.474 183.115, 86.559 183.287, 94.603 185.101 C 98.480 185.976, 100.561 185.970, 103.271 185.076 C 109.506 183.018, 111.311 178.412, 113.421 159.175 C 115.082 144.023, 116.852 139.428, 122.069 136.716 C 125.988 134.679, 129.876 135.048, 137.091 138.141 C 142.583 140.496, 143.444 142.068, 148.381 158.735 C 153.183 174.948, 155.596 181.189, 158.102 183.879 C 160.086 186.009, 160.300 186.039, 162.079 184.429 C 163.112 183.493, 164.902 180.206, 166.055 177.124 C 172.717 159.318, 173.823 141.473, 168.793 132.930 C 166.332 128.750, 160.939 124.394, 159.726 125.607 C 159.421 125.912, 158.345 125.764, 157.336 125.277 C 156.194 124.726, 152.854 124.920, 148.500 125.788" stroke="none" fill="black" fill-rule="evenodd"/>
</svg>