<svg xmlns="http://www.w3.org/2000/svg" width="200" height="200" viewBox="0 0 200 200" version="1.1">
	<path d="M 128.500 15.874 C 111.901 21.508, 105.195 24.791, 101.630 29.028 C 98.129 33.188, 98.310 36.128, 102.611 45.028 C 107.318 54.769, 108.052 62.131, 105.137 70.379 C 103.995 73.613, 102.262 77.438, 101.286 78.879 C 99.526 81.477, 99.501 81.377, 98.337 67.500 C 97.692 59.800, 97.122 49.675, 97.071 45 C 96.956 34.446, 96.073 28.809, 94.613 29.296 C 94.001 29.501, 93.640 31.031, 93.811 32.697 C 94.088 35.394, 93.773 35.795, 90.936 36.363 C 89.184 36.713, 82.969 37.015, 77.125 37.033 C 60.477 37.084, 36.398 38.717, 34.093 39.950 C 28.641 42.868, 33.681 46.920, 48.413 51.463 C 54.989 53.491, 62.959 55.165, 68 55.577 C 78.466 56.434, 77.068 57.090, 58.702 59.943 C 42.491 62.460, 33.699 64.995, 30.389 68.104 C 26.276 71.968, 27.249 72.650, 37.872 73.346 C 60.674 74.841, 83.972 81.859, 92.214 89.717 C 94.384 91.786, 95.214 92.067, 96.359 91.117 C 97.569 90.113, 97.900 91.026, 98.502 97.024 C 98.894 100.926, 98.912 104.422, 98.541 104.793 C 98.170 105.163, 95.307 105.467, 92.179 105.467 C 82.251 105.467, 76.201 99.567, 74.395 88.125 L 73.704 83.750 67.573 84.242 C 56.673 85.117, 50.824 89.411, 41.282 103.543 C 34.846 113.075, 32.245 115.867, 27.588 118.241 L 24.676 119.726 29.113 122.326 C 40.625 129.072, 51.730 129.390, 77 123.697 C 85.525 121.776, 94.546 119.920, 97.046 119.572 L 101.592 118.939 104.188 125.546 C 106.603 131.691, 106.698 132.524, 105.549 137.467 C 103.975 144.238, 99.912 149.212, 85.548 161.957 C 71.954 174.019, 66 180.360, 66 182.778 C 66 187.392, 71.057 188.082, 84.834 185.347 C 92.781 183.770, 93.285 183.509, 95.669 179.732 C 99.548 173.587, 106.010 167.036, 110.401 164.795 C 113.627 163.149, 115.676 162.851, 121.092 163.239 C 126.957 163.658, 129.207 164.488, 139.146 169.901 C 157.669 179.988, 166.554 184.122, 173.726 185.994 L 180.500 187.762 180.802 183.438 C 181.442 174.300, 173.572 163.364, 162.214 157.609 C 159.436 156.201, 152.514 153.200, 146.832 150.941 C 126.463 142.842, 119.166 137.390, 116.786 128.490 C 116.126 126.020, 115.004 124, 114.293 124 C 113.582 124, 113 124.364, 113 124.809 C 113 125.254, 112.351 126.491, 111.558 127.559 C 110.272 129.291, 110.231 129.043, 111.180 125.250 C 112.325 120.673, 113.135 120.290, 117 122.500 C 125.085 127.122, 131.463 122.116, 140.234 104.263 C 143.701 97.206, 146.681 92.281, 147.180 92.780 C 147.661 93.261, 148.339 101.860, 148.687 111.888 L 149.319 130.122 153.120 132.061 C 157.917 134.508, 160.664 134.502, 164.710 132.035 C 168.526 129.708, 171.435 124.371, 173.569 115.781 C 175.624 107.508, 176.563 79.128, 175.157 67.767 C 174.239 60.344, 174.318 58.394, 175.686 54.767 C 178.260 47.939, 177.958 32.803, 175.119 26.368 C 172.013 19.328, 168.200 15.889, 162.826 15.284 C 159.098 14.865, 157.774 15.286, 153.252 18.330 L 148.004 21.862 147.361 19.181 C 146.516 15.653, 144.138 10.984, 143.224 11.061 C 142.826 11.094, 136.200 13.260, 128.500 15.874 M 129.500 18.473 C 109.257 25.075, 102 29.419, 102 34.935 C 102 36.507, 103.587 41.133, 105.526 45.217 C 110.217 55.096, 110.842 60.873, 108.169 69.651 C 107.022 73.418, 104.680 78.708, 102.965 81.406 L 99.846 86.312 100.924 94.324 C 101.517 98.730, 102.203 102.537, 102.449 102.782 C 103.141 103.474, 109.198 99.456, 112.191 96.320 C 116.287 92.028, 118.953 85.249, 118.978 79.063 C 118.996 74.688, 118.125 71.755, 114.516 64.034 C 112.050 58.758, 109.577 52.044, 109.021 49.113 C 104.983 27.817, 124.449 13.213, 135.867 28.975 C 137.512 31.245, 139.170 33.116, 139.551 33.133 C 139.933 33.149, 141.484 31.290, 142.998 29.002 C 145.442 25.312, 145.649 24.382, 144.834 20.758 C 143.264 13.768, 143.720 13.836, 129.500 18.473 M 153.828 21.313 C 148.885 25.098, 149.148 23.094, 150.454 47 C 151.011 57.191, 150.902 62.763, 150.085 65.750 C 148.786 70.501, 146.833 71.211, 144.586 67.750 C 142.629 64.737, 139 51.375, 139 47.187 C 139 45.239, 138.549 43.984, 137.925 44.192 C 136.287 44.738, 130.365 58.839, 124.987 75 C 120.221 89.320, 112.546 116.917, 113.176 117.469 C 113.354 117.626, 115.390 118.707, 117.699 119.872 C 120.816 121.443, 122.508 121.757, 124.261 121.091 C 128.333 119.543, 133.184 112.906, 138.651 101.405 C 144.649 88.786, 146.263 86.835, 148.694 89.265 C 149.959 90.530, 150.496 94.775, 151.300 109.840 C 152.292 128.440, 152.360 128.843, 154.703 129.911 C 163.283 133.820, 169.194 126.733, 171.888 109.308 C 173.232 100.614, 173.345 72.677, 172.067 64.877 C 171.337 60.419, 171.484 58.348, 172.779 54.877 C 175.111 48.627, 175.057 33.942, 172.678 27.778 C 168.866 17.899, 161.560 15.394, 153.828 21.313 M 118.832 26.709 C 115.203 28.960, 112.034 34.916, 111.338 40.795 C 110.639 46.692, 112.738 54.543, 117.583 64.165 C 119.462 67.897, 121 71.726, 121 72.675 C 121 75.792, 122.684 72.717, 126.025 63.500 C 127.819 58.550, 131.051 50.771, 133.209 46.213 C 136.770 38.688, 137.027 37.611, 136.004 34.513 C 133.446 26.761, 124.962 22.906, 118.832 26.709 M 142.695 34.258 C 140.247 38.435, 140.224 38.668, 141.489 46.568 C 143.036 56.229, 146.016 66.108, 147.168 65.396 C 148.866 64.347, 147.682 30, 145.948 30 C 145.531 30, 144.067 31.916, 142.695 34.258 M 65.883 40.029 C 40.081 40.869, 34.370 41.535, 36.011 43.513 C 38.247 46.207, 58.066 51.834, 69.431 53.001 C 80.127 54.099, 84 55.156, 84 56.976 C 84 58.577, 82.466 58.961, 65.842 61.517 C 46.001 64.567, 31.723 68.056, 33.169 69.502 C 33.414 69.748, 38.089 70.435, 43.557 71.031 C 62.628 73.107, 81.274 78.669, 90.867 85.143 C 96.303 88.812, 97.323 87.896, 96.599 80 C 96.321 76.975, 95.544 66.513, 94.871 56.750 L 93.649 39 90.574 39.162 C 88.883 39.251, 77.772 39.641, 65.883 40.029 M 65.723 87.098 C 56.320 88.562, 50.879 93.189, 42.092 107.194 C 39.781 110.876, 36.341 115.250, 34.446 116.914 C 32.551 118.578, 31 120.140, 31 120.387 C 31 120.633, 33.138 121.659, 35.750 122.667 C 43.723 125.744, 59.434 125.132, 76 121.100 C 83.425 119.293, 91.876 117.567, 94.779 117.264 C 97.683 116.962, 100.307 116.312, 100.611 115.820 C 100.915 115.329, 100.881 113.256, 100.537 111.213 L 99.910 107.500 94.897 107.850 C 92.140 108.043, 88.326 107.908, 86.421 107.551 C 79.731 106.296, 72.080 96.868, 72.022 89.809 C 71.994 86.395, 71.528 86.194, 65.723 87.098 M 112.972 99.533 C 112.250 100.403, 109.660 102.287, 107.216 103.719 C 102.783 106.317, 102.774 106.334, 103.394 110.857 C 104.056 115.690, 105.320 117.167, 108.441 116.756 C 109.999 116.551, 110.828 114.725, 112.634 107.526 C 113.872 102.590, 114.750 98.417, 114.585 98.252 C 114.420 98.087, 113.694 98.663, 112.972 99.533 M 105.616 121.750 C 106.819 126.807, 107.714 127.577, 108.458 124.192 C 109.233 120.662, 108.582 119, 106.422 119 C 105.337 119, 105.130 119.707, 105.616 121.750 M 111.323 131.884 C 110.126 132.884, 108.828 135.456, 108.440 137.601 C 107.041 145.317, 104.479 148.352, 81.250 169.822 C 74.512 176.049, 69 181.786, 69 182.572 C 69 184.516, 76.104 184.455, 84.991 182.434 C 91.538 180.945, 92.030 180.628, 95.009 175.987 C 101.418 165.999, 110.569 160.043, 119.500 160.046 C 125.694 160.048, 131.985 162.582, 148.677 171.796 C 161.659 178.963, 168.845 182.177, 174.750 183.455 C 177.820 184.120, 177.999 184.002, 177.978 181.329 C 177.913 172.913, 169.011 163.429, 155.821 157.721 C 151.244 155.741, 143.114 152.245, 137.753 149.953 C 126.108 144.973, 119.976 140.522, 116.433 134.475 C 114.990 132.014, 113.740 130.015, 113.655 130.033 C 113.570 130.052, 112.520 130.884, 111.323 131.884" stroke="none" fill="black" fill-rule="evenodd"/>
</svg>