<svg xmlns="http://www.w3.org/2000/svg" width="200" height="200" viewBox="0 0 200 200" version="1.1">
	<path d="M 163.039 13.584 C 160.783 15.622, 157.251 20.105, 155.189 23.548 L 151.441 29.807 148.152 25.888 C 143.818 20.726, 137.933 17.843, 130.529 17.256 C 119.543 16.383, 110.603 20.822, 116.233 24.354 C 117.480 25.136, 120.300 26.085, 122.500 26.462 C 132.366 28.156, 138.068 34.587, 139.492 45.628 C 140.210 51.187, 139.906 52.224, 130.393 76.738 C 127.781 83.470, 125.437 88.770, 125.183 88.517 C 124.930 88.264, 123.886 81.407, 122.863 73.278 C 118.448 38.198, 113.337 19, 108.412 19 C 103.844 19, 106.680 32.689, 112.556 39 C 113.836 40.375, 115.293 43.328, 115.794 45.563 C 116.618 49.247, 116.283 50.532, 112.208 59.313 C 109.736 64.641, 107.405 69, 107.029 69 C 106.654 69, 105.798 65.422, 105.129 61.048 C 103.403 49.775, 101.376 44.537, 97.381 41.030 C 95.483 39.364, 93.384 38.002, 92.715 38.004 C 86.547 38.022, 58.198 40.258, 53.500 41.098 C 46.329 42.379, 38.353 45.637, 37.603 47.592 C 35.884 52.073, 42.012 54.599, 59.230 56.505 C 64.134 57.048, 65.636 57.751, 69.656 61.390 C 77.579 68.563, 75.005 70.088, 51.848 71.943 C 37.088 73.125, 32.736 74.159, 29.250 77.313 C 26.754 79.571, 26.450 81.700, 28.106 85.333 C 29.191 87.714, 29.437 87.758, 40.944 87.630 C 54.824 87.476, 56.502 88.221, 55.703 94.181 C 55.043 99.098, 49.844 106.310, 37.084 120.007 C 31.404 126.103, 26.925 131.229, 27.129 131.397 C 27.333 131.565, 29.030 132.220, 30.899 132.852 C 45.070 137.639, 60.627 127.195, 83.825 97.318 C 91.854 86.977, 94.810 83.888, 97.534 82.989 C 105.249 80.443, 110.562 84.593, 115.850 97.295 C 119.422 105.875, 119.541 107.518, 117.090 114.500 L 115.335 119.500 108.869 120.064 C 93.374 121.415, 84 133.130, 84 151.144 C 84 166.032, 90.599 175.529, 106 182.809 C 114.373 186.766, 116.511 187.354, 124.028 187.761 C 131.273 188.154, 133.621 187.853, 139.630 185.763 C 162.692 177.743, 176.608 156.216, 168.953 140.403 C 162.856 127.809, 146.367 118, 131.290 118 C 126.171 118, 125.622 116.245, 129.943 113.693 C 131.562 112.736, 134.989 108.581, 137.558 104.460 C 142.125 97.131, 142.204 96.867, 141.114 92.540 C 139.689 86.879, 139.696 76.418, 141.134 64.230 C 142.048 56.478, 143.058 52.962, 146.356 46.059 L 150.446 37.500 150.772 41.578 C 150.951 43.822, 150.483 48.772, 149.732 52.578 C 148.668 57.965, 148.521 65.156, 149.070 85 C 149.825 112.307, 150.867 118.393, 155.321 121.512 C 158.017 123.401, 163.286 123.421, 166.893 121.555 C 169.303 120.309, 169.915 119.039, 171.346 112.305 C 174.590 97.041, 175.188 88.063, 175.343 52.329 C 175.496 17.021, 175.450 16.090, 173.400 13.329 C 170.347 9.218, 167.802 9.280, 163.039 13.584 M 163.831 16.513 C 161.999 18.445, 158.848 22.742, 156.829 26.063 C 153.271 31.915, 153.158 32.398, 153.151 41.800 C 153.147 47.135, 152.744 52.850, 152.256 54.500 C 151.036 58.621, 152.466 109.520, 153.934 114.259 C 155.563 119.515, 158.870 121.528, 163.414 120.028 C 167.258 118.760, 167.222 118.835, 169.477 107.646 C 172.101 94.631, 173.142 75.050, 172.812 44.902 C 172.568 22.490, 172.203 15.946, 171.128 14.652 C 169.098 12.209, 167.535 12.608, 163.831 16.513 M 119.750 20.689 C 117.373 21.311, 117.528 23, 119.962 23 C 123.828 23, 132.660 27.054, 135.751 30.248 C 139.474 34.095, 141.981 39.656, 142.049 44.218 C 142.094 47.323, 142.280 47.150, 145.500 41 C 147.372 37.425, 148.925 33.728, 148.951 32.785 C 149.025 30.189, 143.028 23.918, 138.509 21.865 C 134.706 20.137, 124.347 19.488, 119.750 20.689 M 109.052 25 C 109.044 27.399, 112.413 36, 113.361 36 C 114.033 36, 111.439 26.594, 110.157 24.388 C 109.151 22.654, 109.060 22.705, 109.052 25 M 72.500 42.018 C 65.350 42.406, 56.800 43.288, 53.500 43.978 C 46.531 45.434, 40 47.869, 40 49.011 C 40 50.403, 46.207 52.033, 55.995 53.211 C 64.459 54.229, 65.970 54.730, 69.795 57.781 C 77.752 64.129, 78.778 68.512, 73.006 71.497 C 71.409 72.323, 64.728 73.425, 57.827 74.002 C 43.389 75.209, 34.465 76.692, 31.863 78.318 C 30.747 79.015, 30 80.635, 30 82.359 L 30 85.237 38.275 84.547 C 48.401 83.704, 55.422 85.189, 57.693 88.655 C 61.274 94.120, 56.889 102.428, 41.676 119 C 36.375 124.775, 32.029 129.838, 32.019 130.250 C 32.008 130.662, 34.403 131, 37.340 131 C 49.182 131, 60.592 122.069, 80.030 97.583 C 93.529 80.579, 95.014 79.490, 104.173 79.885 C 109.431 80.111, 115.459 87.609, 119.519 98.971 L 120.779 102.500 121.844 99.804 C 122.917 97.088, 121.727 83.495, 118.621 63 L 117.333 54.500 115.479 58.947 C 110.908 69.913, 107.254 74.674, 105.093 72.478 C 104.565 71.940, 103.413 67.225, 102.535 62 C 100.621 50.616, 99.489 47.379, 96.153 43.750 C 93.348 40.698, 94.816 40.806, 72.500 42.018 M 131.515 81.250 C 125.990 95.962, 125.807 96.759, 126.324 103.847 C 126.619 107.888, 127.087 111.420, 127.364 111.697 C 128.360 112.693, 130.270 110.646, 134.631 103.904 L 139.067 97.047 137.902 90.360 C 137.193 86.286, 136.998 80.220, 137.405 74.836 C 137.772 69.976, 137.885 66, 137.657 66 C 137.429 66, 134.665 72.862, 131.515 81.250 M 123.158 107 C 123.158 108.375, 123.385 108.938, 123.662 108.250 C 123.940 107.563, 123.940 106.438, 123.662 105.750 C 123.385 105.063, 123.158 105.625, 123.158 107 M 119.995 114.516 C 118.577 118.812, 119.978 120.655, 123.153 118.672 C 125.114 117.448, 124.831 114.604, 122.504 112.147 C 121.444 111.028, 121.011 111.436, 119.995 114.516 M 128 121.826 C 128 122.280, 129.168 123.742, 130.595 125.076 C 134.252 128.492, 137.914 135.049, 140.116 142.125 C 146.139 161.477, 136.453 172.658, 119 166.500 C 116.662 165.675, 113.499 165, 111.972 165 C 106.263 165, 106.141 156.595, 111.524 134.159 C 112.889 128.471, 113.726 123.366, 113.384 122.813 C 112.520 121.414, 104.381 122.765, 99.899 125.051 C 90.277 129.961, 84.733 143.499, 87.070 156.384 C 89.286 168.605, 94.745 174.793, 108.813 181.029 C 117.098 184.702, 118.976 185.158, 125.815 185.158 C 147.212 185.158, 167.959 167.857, 167.990 149.985 C 168.011 138.052, 158.446 127.730, 142.875 122.884 C 136.689 120.959, 128 120.341, 128 121.826 M 117.596 122.844 C 115.231 126.672, 109.191 157.449, 110.259 160.232 C 110.571 161.045, 112.328 161.995, 114.163 162.342 C 115.998 162.690, 119.975 163.663, 123 164.504 C 129.863 166.412, 133.213 165.724, 136.589 161.712 C 139.048 158.790, 139.202 158.044, 138.795 151.016 C 138.294 142.364, 135.256 134.639, 130 128.653 C 125.322 123.325, 119.100 120.411, 117.596 122.844" stroke="none" fill="black" fill-rule="evenodd"/>
</svg>