<svg xmlns="http://www.w3.org/2000/svg" width="200" height="200" viewBox="0 0 200 200" version="1.1">
	<path d="M 168.894 8.373 C 164.813 11.506, 154.878 22.530, 148.309 31.214 C 145.200 35.324, 144.011 35.883, 143.978 33.250 C 143.966 32.288, 143.039 29.475, 141.919 27 C 136.166 14.291, 126.208 10.828, 113.160 17.001 C 109.673 18.650, 106.707 20, 106.568 20 C 106.430 20, 105.777 18.200, 105.118 16 C 103.848 11.759, 102 10.609, 102 14.058 C 102 15.191, 103.337 21.412, 104.971 27.884 C 108.627 42.368, 109.782 51, 108.063 51 C 107.396 51, 103.846 49.071, 100.175 46.713 C 84.893 36.897, 78.132 33.893, 68.260 32.536 C 62.489 31.742, 53.400 33.285, 48 35.975 C 46.075 36.934, 42.531 38.021, 40.125 38.391 C 34.419 39.268, 32 40.629, 32 42.963 C 32 45.812, 35.871 48.324, 48.262 53.514 C 63.906 60.068, 65.609 61.001, 63.896 62.086 C 63.128 62.572, 56.575 62.976, 49.333 62.985 C 35.251 63.001, 29.606 64.385, 25.670 68.787 C 22.770 72.032, 24.883 74.276, 35.729 79.472 C 41.103 82.046, 46.512 85.097, 47.750 86.251 C 53.804 91.896, 47.642 98.726, 27.673 108.501 L 14.845 114.780 18.173 117.230 C 23.470 121.131, 27.445 122.287, 33.748 121.759 C 36.911 121.495, 40.244 120.959, 41.154 120.569 C 43.067 119.749, 44.078 123.584, 48.513 148.500 C 51.527 165.426, 54.647 175.538, 58.359 180.404 C 64.368 188.282, 74.940 189.054, 88.365 182.597 L 95.957 178.945 101.032 180.605 C 107.606 182.756, 116.971 182.076, 122.976 179.012 C 125.406 177.773, 131.644 173.896, 136.840 170.398 C 147.242 163.394, 151.193 162.142, 157.209 163.945 C 161.112 165.114, 170.659 173.463, 174.264 178.858 C 175.131 180.156, 176.290 180.939, 176.841 180.598 C 177.438 180.229, 176.504 177.413, 174.522 173.611 C 172.696 170.108, 168.857 159.876, 165.990 150.873 C 158.384 126.985, 154.199 119.545, 145.497 114.445 C 143.136 113.062, 138.909 111.658, 136.102 111.326 C 133.296 110.993, 131 110.330, 131 109.852 C 131 109.374, 132.119 102.349, 133.487 94.241 C 136.306 77.529, 137.957 63.099, 137.983 54.944 C 137.996 50.687, 138.554 48.637, 140.371 46.175 L 142.742 42.961 143.244 48.183 C 143.520 51.056, 143.311 58.602, 142.780 64.953 C 141.081 85.269, 142.512 99.238, 147.043 106.569 C 154.406 118.484, 166.567 103.328, 170.217 77.687 C 171.414 69.278, 170.434 60.581, 167.664 55.027 C 166.300 52.293, 166.514 51.379, 171.576 38.317 C 178.138 21.387, 180.714 10.863, 179.142 7.411 C 177.592 4.011, 174.156 4.333, 168.894 8.373 M 171.322 9.881 C 167.182 12.881, 157.065 24.026, 150.054 33.312 L 145.986 38.701 145.414 57.600 C 144.636 83.289, 144.807 89.355, 146.516 96.724 C 148.334 104.565, 150.581 108.205, 153.353 107.800 C 156.626 107.323, 161.706 99.628, 164.632 90.715 C 166.866 83.911, 167.343 80.611, 167.408 71.500 C 167.476 61.960, 167.192 59.947, 165.266 56.334 L 163.045 52.167 166.082 44.834 C 174.054 25.586, 179.068 7, 176.288 7 C 175.745 7, 173.510 8.297, 171.322 9.881 M 115.500 18.874 L 111.500 20.696 116 21.468 C 126.088 23.198, 132.570 29.273, 135.657 39.891 L 137.261 45.410 139.680 42.455 C 141.659 40.037, 141.993 38.774, 141.518 35.500 C 140.612 29.244, 136.335 21.370, 132.584 19.052 C 128.394 16.462, 120.966 16.385, 115.500 18.874 M 108 24.462 C 108 25.297, 120.155 68.489, 120.482 68.816 C 120.658 68.992, 122.949 66.068, 125.572 62.318 C 128.196 58.568, 131.348 54.123, 132.578 52.440 C 134.535 49.760, 134.702 48.788, 133.924 44.625 C 131.930 33.951, 126.828 27.157, 119.219 25.044 C 115.457 23.999, 108 23.612, 108 24.462 M 53.500 36.896 C 43.925 40.401, 42.477 40.850, 38.750 41.468 C 31.639 42.648, 33.600 44.264, 51.476 51.954 C 65.806 58.118, 69.218 60.268, 68.333 62.574 C 67.435 64.914, 61.065 65.989, 48.066 65.994 C 37.506 65.999, 34.981 66.315, 31.316 68.089 C 28.942 69.238, 27 70.537, 27 70.974 C 27 72.163, 30.692 74.292, 38.431 77.567 C 47.355 81.343, 53 86.507, 53 90.893 C 53 96.056, 45.698 102.466, 31.650 109.632 L 19.801 115.678 23.301 117.339 C 28.718 119.909, 36.623 119.489, 43.054 116.291 C 48.795 113.434, 60.741 102.091, 77.744 83.351 C 87.092 73.048, 94.944 67.544, 97.149 69.749 C 97.816 70.416, 96.679 71.461, 93.738 72.885 C 89.382 74.993, 82.810 81.409, 65.776 100.178 C 60.978 105.465, 54.415 111.773, 51.192 114.196 L 45.331 118.602 52.806 119.791 C 57.636 120.560, 64.377 122.798, 71.859 126.117 C 81.083 130.209, 83.600 130.973, 84.237 129.877 C 84.677 129.119, 88.849 121.808, 93.508 113.629 L 101.980 98.758 97.118 93.438 C 90.533 86.234, 89.881 81.175, 94.820 75.610 C 96.949 73.210, 105.788 69.023, 108.750 69.010 C 112.747 68.992, 111.148 70.678, 105.063 72.897 C 97.675 75.590, 93.548 79.991, 94.403 84.263 C 95.047 87.483, 97.627 91.132, 101.309 94.028 L 103.736 95.938 110.325 85.663 C 113.949 80.012, 117.210 74.616, 117.572 73.673 C 117.934 72.729, 116.990 67.354, 115.474 61.728 C 112.856 52.012, 111 47.642, 111 51.193 C 111 53.121, 108.643 54.169, 106.250 53.306 C 105.287 52.958, 101.360 50.666, 97.523 48.211 C 77.797 35.590, 65.618 32.460, 53.500 36.896 M 128.111 63.445 C 120.829 74.176, 120.978 71.999, 126.233 90.946 L 129.437 102.500 131.651 89 C 133.706 76.473, 135.789 53.981, 134.892 54.015 C 134.677 54.023, 131.625 58.266, 128.111 63.445 M 114.763 83.644 C 112.365 87.415, 109.409 92.134, 108.194 94.131 L 105.984 97.761 111.242 99.855 C 115.716 101.637, 123.889 103.893, 126.173 103.976 C 126.782 103.998, 120.280 77.986, 119.466 77.144 C 119.277 76.949, 117.161 79.874, 114.763 83.644 M 101.071 105.679 C 98.688 109.662, 98.040 111.513, 98.925 111.808 C 101.772 112.757, 106.767 118.166, 108.522 122.201 C 109.551 124.565, 110.526 126.684, 110.689 126.909 C 110.852 127.134, 113.576 124.884, 116.743 121.909 C 119.909 118.934, 123.964 115.375, 125.754 114 C 130.124 110.642, 129.411 107.312, 124.140 106.463 C 120.958 105.951, 110.356 102.544, 105.992 100.633 C 104.904 100.156, 103.533 101.561, 101.071 105.679 M 96.122 119.768 C 94.702 126.967, 91.746 131.892, 87.998 133.307 C 85.724 134.165, 84.349 136.041, 81.658 141.951 C 75.348 155.814, 73.055 166.010, 76.250 165.994 C 78.261 165.984, 83.422 162.997, 84.377 161.291 C 85.827 158.699, 97.977 142.898, 103.160 136.864 C 105.822 133.765, 108 130.365, 108 129.311 C 108 125.914, 103.139 117.513, 100.152 115.749 L 97.253 114.036 96.122 119.768 M 126.964 116.869 C 124.509 118.459, 120.025 122.402, 117 125.630 L 111.500 131.500 112 150 L 112.500 168.500 115.151 165 C 120.194 158.343, 128.882 141.471, 131.103 134.023 C 133.448 126.158, 134.223 114.953, 132.464 114.338 C 131.895 114.139, 129.420 115.278, 126.964 116.869 M 136.408 119.756 C 136.262 128.885, 132.446 140.743, 125.825 152.651 C 112.449 176.704, 108.207 177.195, 109.324 154.562 C 109.652 147.928, 109.595 140.716, 109.199 138.536 L 108.478 134.572 102.428 142.036 C 99.100 146.141, 93.579 153.204, 90.158 157.731 C 86.738 162.258, 83.082 166.421, 82.035 166.981 C 79.450 168.365, 74.667 168.267, 73.200 166.800 C 70.509 164.109, 72.584 155.071, 79.172 140.777 C 80.897 137.035, 82.126 133.830, 81.904 133.654 C 81.682 133.477, 76.775 131.267, 71 128.742 C 59.265 123.611, 54.084 122.014, 49.143 122.006 C 46.481 122.001, 45.913 122.330, 46.398 123.594 C 46.734 124.470, 48.574 133.623, 50.488 143.934 C 54.812 167.239, 57.030 174.553, 61.232 179.376 C 66.998 185.991, 75.293 185.993, 88.672 179.383 C 95.946 175.788, 95.993 175.780, 100.008 177.387 C 102.226 178.274, 106.844 178.996, 110.270 178.990 C 117.863 178.978, 122.693 176.881, 136.057 167.794 C 141.314 164.219, 147.270 160.984, 149.292 160.605 C 154.114 159.700, 159.707 161.281, 164.838 164.998 L 168.984 168.001 167.543 164.251 C 166.750 162.188, 164.674 155.775, 162.929 150 C 156.844 129.864, 150.694 119.584, 142.509 115.865 C 140.304 114.863, 138.050 114.037, 137.500 114.028 C 136.950 114.019, 136.459 116.596, 136.408 119.756 M 89.431 126.136 C 87.376 130.192, 87.157 131.115, 88.519 129.985 C 90.458 128.377, 93.427 122.093, 92.626 121.292 C 92.356 121.022, 90.918 123.202, 89.431 126.136" stroke="none" fill="black" fill-rule="evenodd"/>
</svg>