<svg xmlns="http://www.w3.org/2000/svg" width="200" height="200" viewBox="0 0 200 200" version="1.1">
	<path d="M 122.564 16.788 L 120.740 22.811 117.025 18.906 C 111.123 12.701, 104.999 14.013, 100.455 22.456 C 99.089 24.996, 96.995 26.795, 93.500 28.431 C 86.049 31.921, 83.035 32.272, 71.222 31.023 C 53.467 29.147, 31.724 32.297, 28.647 37.191 C 26.207 41.074, 32.642 44.310, 49.041 47.447 C 54.994 48.586, 58.519 48.660, 66.500 47.812 C 74.078 47.006, 77.227 47.040, 79.500 47.952 L 82.500 49.155 80.209 51.021 C 72.738 57.106, 51.370 59.994, 39.453 56.529 L 33.559 54.816 31.282 57.658 C 25.288 65.142, 24.819 71.084, 30.017 73.714 C 33.364 75.408, 45.992 75.322, 60.538 73.508 C 67.117 72.687, 75.356 72.012, 78.846 72.008 L 85.192 72 84.480 82.450 C 84.088 88.197, 83.459 94.385, 83.081 96.200 L 82.393 99.500 79.197 96.327 C 75.859 93.014, 75.131 89.493, 77.044 85.918 C 77.966 84.195, 77.528 83.723, 73.294 81.881 C 70.657 80.734, 66.102 79.729, 63.171 79.648 C 58.351 79.514, 57.569 79.806, 54.978 82.703 C 53.360 84.512, 51.224 88.863, 50.070 92.703 C 47.343 101.779, 44.709 105.806, 40.291 107.652 C 35.743 109.552, 29.239 108.873, 19.555 105.486 C 15.735 104.150, 12.485 103.181, 12.333 103.334 C 12.181 103.486, 13.339 106.286, 14.906 109.555 C 22.356 125.091, 33.549 128.199, 60.027 122.083 C 66.916 120.492, 74.679 118.871, 77.277 118.481 L 82 117.773 82 123.886 C 82 128.619, 82.335 130, 83.481 130 C 84.295 130, 85.236 128.908, 85.571 127.572 C 86.243 124.896, 89 123.207, 89 125.472 C 89 127.502, 84.149 140.719, 81.465 146 C 78.482 151.871, 74.382 155.618, 64 161.962 C 47.369 172.124, 46.146 173.136, 45.205 177.500 C 44.308 181.663, 45.224 185.886, 47.313 187.214 C 52.339 190.411, 65.200 185.443, 93.724 169.289 L 106.948 161.799 112.224 166.450 C 121.359 174.502, 139.214 182, 149.256 182 C 154.412 182, 158.500 178.142, 157.522 174.200 C 155.901 167.660, 139.983 152, 134.956 152 C 129.984 152, 120.488 146.030, 107 134.425 C 99.575 128.037, 93.545 122.403, 93.600 121.905 C 93.655 121.407, 93.767 120.645, 93.850 120.211 C 94.104 118.874, 104.313 113.216, 107.747 112.510 C 111.764 111.684, 117.039 113.338, 119.765 116.279 C 120.897 117.501, 124.147 122.300, 126.986 126.944 C 132.369 135.749, 134.370 137.915, 137.173 137.968 C 140.307 138.028, 144.839 132.966, 149.097 124.650 L 153.348 116.350 151.174 111.859 C 148.402 106.134, 148.418 102.023, 151.227 98.385 C 154.686 93.903, 155.682 93.255, 169 86.827 C 175.875 83.508, 182.287 80.095, 183.250 79.242 C 187.321 75.632, 184.500 72.051, 175.076 68.868 C 169.462 66.972, 168.258 66.884, 163.054 67.988 C 156.698 69.337, 153.176 68.385, 152.792 65.215 C 152.678 64.272, 152.566 54.950, 152.542 44.500 C 152.503 26.706, 152.356 25.230, 150.230 21.251 C 146.709 14.660, 141.473 11.755, 132.140 11.214 L 124.388 10.765 122.564 16.788 M 126.515 14.157 C 122.372 25.433, 122.091 26.973, 123.543 30.449 C 127.726 40.459, 128.800 59.142, 125.778 69.314 C 124.849 72.443, 124.926 73.612, 126.207 75.814 C 128.599 79.926, 129.276 84.633, 128.023 88.431 C 125.707 95.448, 114.996 102.003, 103.313 103.553 L 98.457 104.197 96.847 109.642 C 95.961 112.637, 95.521 114.933, 95.868 114.743 C 111.908 105.984, 118.719 108.091, 129.022 125 C 132.729 131.085, 135.516 134.609, 136.772 134.802 C 139.248 135.183, 143.129 130.668, 147.120 122.763 L 150.118 116.823 147.925 111.532 C 145.115 104.752, 145.847 100.282, 150.636 94.982 C 154.681 90.503, 159.403 87.693, 172.607 81.902 C 178.237 79.433, 182 77.203, 182 76.336 C 182 74.680, 172.537 70.044, 168.916 69.926 C 167.587 69.883, 164.506 70.352, 162.068 70.970 C 158.811 71.794, 156.925 71.797, 154.952 70.980 C 149.994 68.927, 149.467 66.405, 149.841 46.520 C 150.124 31.460, 149.905 27.709, 148.553 24.473 C 145.532 17.242, 141.922 14.815, 132.254 13.518 C 128.277 12.984, 126.889 13.138, 126.515 14.157 M 105.368 20.571 C 103.516 22.535, 102 24.470, 102 24.870 C 102 25.271, 103.562 26.163, 105.470 26.853 C 109.216 28.207, 112.463 32.013, 113.542 36.311 C 114.558 40.361, 115.501 39.601, 117.451 33.162 C 119.080 27.782, 119.094 27.082, 117.629 24.250 C 116.006 21.112, 111.528 17, 109.733 17 C 109.185 17, 107.221 18.607, 105.368 20.571 M 97.204 35.250 C 93.518 44.207, 90.604 56.690, 88.422 72.865 C 86.566 86.624, 86.668 86.956, 92.765 86.985 C 95.096 86.996, 97.002 86.071, 99.432 83.750 C 102.372 80.942, 103.534 78.203, 107.980 63.604 C 113.558 45.291, 113.746 42.418, 109.870 34.771 C 108.184 31.443, 103.746 28, 101.143 28 C 100.617 28, 98.844 31.262, 97.204 35.250 M 88.500 33.177 C 83.173 34.933, 81.602 35.034, 74.500 34.076 C 64.384 32.712, 56.220 32.711, 46.427 34.073 C 27.065 36.766, 27.130 40.143, 46.623 44.125 C 54.457 45.726, 57.582 45.901, 65.006 45.157 C 74.073 44.247, 81.303 44.903, 83.207 46.807 C 85.422 49.022, 83.085 52.923, 78.002 55.499 C 66.323 61.417, 49.080 62.704, 36.319 58.609 C 34.490 58.022, 33.722 58.617, 31.569 62.292 C 30.156 64.703, 29 67.408, 29 68.303 C 29 72.768, 38.759 73.409, 62.486 70.504 C 70.179 69.562, 78.564 68.992, 81.120 69.238 L 85.767 69.684 87.895 58.383 C 89.065 52.167, 91.303 43.463, 92.868 39.041 C 94.433 34.618, 95.440 31.045, 95.107 31.100 C 94.773 31.155, 91.800 32.090, 88.500 33.177 M 117.673 41.349 C 116.203 46.438, 115 52.089, 115 53.906 C 115 59.343, 112.118 69.023, 108.124 77 C 104.212 84.814, 99.363 99.696, 100.393 100.727 C 101.461 101.794, 112.384 98.855, 117.416 96.147 C 125.969 91.544, 128.049 85.126, 123.542 77.243 C 121.175 73.102, 121.154 72.883, 122.774 69.243 C 125.754 62.551, 124.459 34.638, 121.072 32.545 C 120.672 32.298, 119.143 36.259, 117.673 41.349 M 57.829 83.913 C 56.032 85.331, 54.311 88.557, 52.575 93.761 C 49.282 103.632, 46.908 107.478, 42.794 109.609 C 37.813 112.188, 26.956 111.606, 18.336 108.299 C 15.696 107.285, 19.293 113.128, 23.837 117.234 C 31.138 123.830, 39.493 124.125, 63 118.617 C 68.775 117.264, 75.638 115.845, 78.250 115.465 L 83 114.773 83 108.485 C 83 102.381, 82.900 102.138, 79.562 100.169 C 75.148 97.564, 72.629 92.793, 73.426 88.545 C 73.947 85.764, 73.674 85.173, 71.387 84.130 C 66.089 81.717, 60.721 81.631, 57.829 83.913 M 97.598 88.651 C 95.751 89.652, 93.323 90.038, 90.915 89.715 C 86.617 89.139, 86 89.925, 86 95.975 C 86 100.252, 87.031 101, 92.925 101 L 96.686 101 98.728 94 C 99.851 90.150, 100.709 87.018, 100.635 87.040 C 100.561 87.062, 99.194 87.787, 97.598 88.651 M 86 104.244 C 86 105.056, 85.714 107.809, 85.364 110.360 L 84.728 115 88.614 114.998 C 92.461 114.996, 92.516 114.941, 94.119 109.498 L 95.738 104 93.119 103.986 C 91.678 103.979, 89.487 103.701, 88.250 103.370 C 86.660 102.944, 86 103.200, 86 104.244 M 85 120.414 C 85 122.558, 85.306 122.745, 87.750 122.092 C 91.781 121.013, 92.020 118, 88.073 118 C 85.491 118, 85 118.386, 85 120.414 M 91.593 127.207 C 87.896 139.875, 83.028 150.288, 78.699 154.786 C 76.960 156.594, 69.570 161.752, 62.276 166.248 C 51.191 173.082, 48.838 174.960, 47.935 177.696 C 47.341 179.496, 47.160 181.928, 47.532 183.100 C 49.265 188.562, 65.447 182.577, 94.478 165.736 L 107.457 158.208 113.283 163.602 C 122.498 172.133, 138.086 178.913, 148.628 178.976 C 157.723 179.029, 156.567 173.412, 145.187 162.250 C 139.789 156.956, 137.081 154.997, 135.148 154.990 C 131.888 154.978, 123.238 151.033, 118.261 147.288 C 116.223 145.755, 110.268 140.748, 105.028 136.161 C 94.166 126.656, 92.147 125.309, 91.593 127.207" stroke="none" fill="black" fill-rule="evenodd"/>
</svg>