<svg xmlns="http://www.w3.org/2000/svg" width="200" height="200" viewBox="0 0 200 200" version="1.1">
	<path d="M 115.612 12.735 C 114.796 15.441, 115.575 28.195, 117.368 41.500 C 118.960 53.317, 120.998 76.225, 120.507 76.789 C 120.369 76.947, 118.812 73.496, 117.048 69.118 C 113.897 61.302, 113.860 61.023, 114.984 53.603 C 116.208 45.531, 115.651 38.817, 113.253 32.731 C 111.208 27.541, 107.682 25, 102.526 25 C 99.011 25, 98.134 24.590, 97.182 22.500 C 95.360 18.501, 93 19.303, 93 23.921 C 93 28.999, 93.474 28.906, 62.360 29.923 C 43.382 30.543, 36.613 31.109, 33.750 32.317 C 26.917 35.198, 29.482 39.816, 41.712 46.656 L 47.954 50.147 55.727 48.376 C 63.729 46.552, 79.212 45.882, 80.630 47.298 C 82.173 48.839, 79.257 51.522, 73.539 53.823 C 63.451 57.881, 47.012 57.728, 32.320 53.440 C 30.522 52.915, 29.800 53.477, 28.192 56.652 C 25.136 62.688, 24.578 66.707, 26.408 69.499 C 29.055 73.540, 34.328 74.462, 47.279 73.149 C 74.977 70.341, 85 72.414, 85 80.949 C 85 83.622, 90.431 86.991, 94.747 86.996 C 99.550 87.002, 105.587 81.107, 109.593 72.500 L 112.850 65.500 113.972 68.500 C 114.589 70.150, 116.448 75.037, 118.102 79.361 C 119.757 83.684, 120.973 88.180, 120.805 89.352 C 120.590 90.851, 118.486 92.508, 113.710 94.936 C 107.997 97.841, 105.856 98.392, 100.210 98.412 C 91.995 98.441, 87.868 96.494, 76.500 87.229 C 67.106 79.573, 62.996 77.591, 58.331 78.466 C 53.881 79.301, 46.559 86.204, 47.264 88.900 C 48.190 92.444, 44.909 95.144, 32.613 100.952 C 25.951 104.098, 19.862 107.446, 19.082 108.391 C 17.841 109.895, 17.908 110.352, 19.617 112.062 C 21.730 114.175, 31.303 116.515, 42.246 117.593 C 48.609 118.220, 50.304 119.076, 48 120.500 C 46.685 121.313, 46.721 127.132, 48.064 130.685 C 50.840 138.034, 58.860 142.002, 70.932 141.998 C 74.544 141.997, 83.925 141.319, 91.779 140.491 C 106.525 138.936, 112.217 139.202, 117.673 141.701 C 120.921 143.189, 122.681 145.787, 121.283 147.031 C 118.324 149.663, 111.858 150.328, 83.500 150.915 C 52.165 151.564, 49.243 151.988, 46.592 156.261 C 44.761 159.214, 48.629 165.068, 54.257 167.859 C 60.350 170.882, 71.552 170.942, 88 168.041 C 103.900 165.237, 113.667 165.309, 118.102 168.263 C 122.457 171.164, 124.828 176.057, 125.639 183.820 L 126.285 190 129.908 190 C 142.380 190, 150.725 176.035, 151.718 153.500 C 152.568 134.231, 148.577 122.891, 139.592 119.039 C 135.648 117.349, 134 115.511, 134 112.803 C 134 112.235, 135.138 112.515, 136.528 113.427 C 140.035 115.724, 140.969 114.715, 139.757 109.940 C 138.440 104.754, 139.983 99.227, 144.036 94.612 C 147.503 90.664, 156.706 85.731, 170.233 80.571 C 185.009 74.934, 186.722 71.433, 177.847 65.004 C 172.238 60.941, 170.596 60.607, 165.607 62.512 C 155.354 66.428, 153.262 62.981, 152.039 40.163 C 151.058 21.866, 149.437 16.501, 143.818 12.965 C 139.537 10.270, 132.263 10.817, 124.376 14.428 C 121.286 15.843, 118.588 17, 118.379 17 C 118.171 17, 118 15.902, 118 14.559 C 118 11.573, 116.344 10.308, 115.612 12.735 M 126.601 16.473 C 123.357 17.806, 120.341 19.259, 119.899 19.701 C 119.458 20.142, 120.648 26.578, 122.543 34.002 C 129.251 60.273, 130.483 74.116, 126.992 84 L 125.050 89.500 128.275 98.350 C 130.694 104.987, 132.134 107.528, 134.036 108.515 C 136.561 109.825, 136.573 109.811, 136.769 105.310 C 137.235 94.612, 144.780 87.701, 164.462 79.946 C 182.711 72.756, 183.539 71.749, 175.425 66.616 L 170.874 63.737 165.822 65.368 C 159.335 67.464, 157.806 67.422, 154.814 65.068 C 151.413 62.393, 150.243 57.527, 149.506 43 C 149.158 36.125, 148.402 28.054, 147.827 25.063 C 145.742 14.226, 138.850 11.437, 126.601 16.473 M 96.044 28.143 C 95.963 31.151, 91.973 31.661, 58.500 32.945 C 46.400 33.409, 35.690 34.118, 34.701 34.520 C 31.485 35.828, 33.383 38.408, 40.846 42.874 L 48.165 47.254 56.283 45.500 C 60.748 44.535, 67.902 43.694, 72.181 43.630 C 78.950 43.530, 80.245 43.801, 82.160 45.715 C 85.399 48.954, 83.471 52.440, 76.745 55.507 C 66.474 60.190, 52.026 60.918, 37.297 57.494 C 30.841 55.993, 30.749 56.046, 28.810 62.343 C 26.348 70.344, 30.116 71.824, 48.758 70.179 C 68.551 68.433, 75.562 68.609, 80.456 70.979 C 84.479 72.926, 88 77.309, 88 80.369 C 88 82.380, 91.060 84, 94.857 84 C 100.048 84, 106.974 75.036, 109.848 64.597 C 110.845 60.977, 110.533 59.735, 105.517 47.410 C 99.444 32.484, 96.110 25.703, 96.044 28.143 M 100.755 27.578 C 100.378 27.955, 100.561 29.181, 101.162 30.302 C 101.762 31.424, 104.407 37.541, 107.039 43.896 L 111.825 55.450 112.544 51.618 C 114.007 43.820, 111.588 32.393, 107.810 29.258 C 106.032 27.782, 101.605 26.728, 100.755 27.578 M 120.487 41 C 120.727 43.475, 121.424 52.250, 122.035 60.500 C 122.646 68.750, 123.402 77.525, 123.715 80 L 124.283 84.500 125.257 81 C 126.826 75.360, 125.388 56.658, 122.566 46 C 120.867 39.587, 120.192 37.962, 120.487 41 M 56.500 82.167 C 52.105 84.598, 50 87.350, 50 90.668 C 50 94.930, 46.277 97.721, 31.693 104.390 C 25.812 107.079, 21 109.608, 21 110.010 C 21 110.884, 27.090 112.546, 36 114.104 C 47.134 116.051, 57.326 115.405, 82.500 111.160 C 95.700 108.934, 109.537 106.826, 113.250 106.477 L 120 105.841 120 102.002 C 120 99.891, 120.303 97.374, 120.674 96.408 C 121.165 95.128, 120.962 94.820, 119.924 95.270 C 108.927 100.036, 105.273 101.143, 100.526 101.143 C 90.809 101.143, 89.326 100.394, 70.037 85.750 C 63.639 80.893, 60.368 80.027, 56.500 82.167 M 122.876 99.741 C 122.493 106.099, 122.967 107, 126.690 107 C 128.467 107, 128.072 104.681, 125.138 97.876 L 123.251 93.500 122.876 99.741 M 109 109.626 C 93.706 111.787, 67.191 116.569, 67.764 117.063 C 69.314 118.399, 91.738 126.937, 96.500 128.004 C 107.975 130.576, 114.551 125.571, 118.512 111.250 C 119.083 109.186, 118.819 109.011, 115.317 109.136 C 113.218 109.211, 110.375 109.431, 109 109.626 M 120.624 114.220 C 118.673 120.933, 115.496 125.741, 110.976 128.822 C 107.889 130.926, 106.662 131.141, 100 130.745 C 93.803 130.376, 89.980 129.288, 78 124.482 C 61.761 117.968, 55.809 117.056, 52.004 120.497 C 48.895 123.309, 49.676 130.008, 53.588 134.092 C 58.742 139.471, 60.237 139.578, 99.675 137.374 C 113.326 136.611, 117.070 137.244, 121.405 141.051 C 126.006 145.090, 126.547 147.667, 123.162 149.410 C 116.797 152.685, 111.897 153.218, 82.285 153.852 C 55.197 154.433, 51.885 154.684, 50.294 156.276 C 48.679 157.892, 48.655 158.298, 50.024 160.776 C 50.851 162.274, 53.322 164.398, 55.514 165.496 C 60.856 168.170, 73.637 168.041, 88.965 165.157 C 103.176 162.483, 112.087 162.402, 117.579 164.896 C 124.154 167.883, 126.506 171.853, 128.451 183.250 C 129.175 187.496, 131.056 188.057, 135.998 185.501 C 145.290 180.696, 151.238 160.395, 148.879 141.536 C 147.891 133.639, 143.777 124.432, 140.228 122.173 C 138.031 120.775, 137.964 120.829, 138.228 123.810 C 138.724 129.433, 136.658 127.605, 133.357 119.500 C 131.565 115.100, 129.964 111.200, 129.799 110.834 C 129.635 110.467, 127.857 109.863, 125.848 109.491 L 122.196 108.814 120.624 114.220" stroke="none" fill="black" fill-rule="evenodd"/>
</svg>