<svg xmlns="http://www.w3.org/2000/svg" width="200" height="200" viewBox="0 0 200 200" version="1.1">
	<path d="M 102 9.570 C 102 11.525, 108.598 25.766, 110.077 27 C 111.064 27.825, 117.991 41.325, 125.470 57 C 138.672 84.674, 139.048 85.645, 138.451 90.500 C 137.460 98.551, 135.373 105.688, 132.652 110.330 C 128.377 117.626, 127.719 117.803, 122.372 113.096 C 119.802 110.834, 113.994 106.493, 109.465 103.448 C 104.935 100.403, 100.448 97.048, 99.494 95.993 C 95.674 91.773, 99.972 89.137, 115.250 86.329 C 120.612 85.343, 124.997 84.079, 124.994 83.518 C 124.981 81.559, 117.035 73.245, 113.632 71.630 C 109.400 69.621, 103.783 69.535, 100.200 71.423 C 95.713 73.788, 87.715 82.807, 78.407 96 C 65.160 114.775, 62.895 116.878, 47.638 124.573 C 28.968 133.989, 29.033 133.702, 52.517 103 C 62.136 90.424, 64.117 86.717, 62.230 84.830 C 61.666 84.266, 54.975 83.155, 47.361 82.361 C 39.746 81.566, 33.167 80.567, 32.741 80.141 C 32.315 79.715, 37.971 77.494, 45.310 75.205 C 52.649 72.916, 61.192 69.920, 64.294 68.549 C 69.538 66.230, 78 59.728, 78 58.017 C 78 57.605, 73.612 57.041, 68.250 56.764 C 57.687 56.218, 49.491 53.749, 45.360 49.869 C 42.301 46.995, 42.382 45.451, 45.706 43.273 C 48.052 41.735, 51.073 41.485, 68.456 41.388 C 91.207 41.260, 92.516 41.597, 103.235 50.327 C 111.034 56.680, 113.788 58.295, 115.620 57.592 C 116.894 57.104, 117.123 56.138, 116.655 53.232 C 115.598 46.678, 109.700 29.933, 108.579 30.307 C 107.074 30.809, 107.161 31.274, 110.827 42.400 C 112.621 47.846, 113.956 52.939, 113.794 53.720 C 113.598 54.668, 111.010 53.144, 106 49.129 C 95.338 40.587, 90.837 38.489, 83.500 38.644 C 80.200 38.713, 75.250 38.709, 72.500 38.635 C 51.219 38.060, 44.253 39.157, 41.384 43.536 C 36.940 50.319, 49.043 58.081, 66.807 59.838 L 73.493 60.500 66.496 64.153 C 62.648 66.162, 52.975 69.875, 45 72.404 C 27.974 77.804, 27.077 78.259, 28.600 80.722 C 29.927 82.868, 37.715 84.567, 50.678 85.539 C 55.805 85.923, 60 86.666, 60 87.189 C 60 88.577, 54.662 96.188, 46.189 106.880 C 34.654 121.436, 31 127.038, 31 130.166 C 31 132.695, 31.349 133, 34.241 133 C 36.194 133, 42.024 130.716, 48.914 127.250 C 63.140 120.095, 68.189 115.334, 81.498 96.524 C 95.826 76.276, 101.707 71.266, 109.416 72.739 C 112.964 73.418, 122.076 81.653, 120 82.306 C 119.175 82.565, 114.450 83.725, 109.500 84.884 C 99.741 87.168, 95.686 89.446, 95.170 92.933 C 94.720 95.968, 96.962 98.219, 107.500 105.315 C 112.450 108.648, 118.872 113.616, 121.772 116.354 L 127.044 121.332 130.078 118.425 C 134.098 114.574, 138.667 105.044, 140.351 97 C 141.598 91.044, 141.779 90.745, 142.509 93.426 C 143.535 97.195, 139.959 118.860, 136.509 129.783 L 133.955 137.867 130.728 137.374 C 128.952 137.102, 125.354 137.541, 122.731 138.348 L 117.961 139.816 115.609 136.658 C 114.315 134.921, 112.032 131.615, 110.535 129.310 C 108.039 125.468, 107.366 125.065, 102.407 124.445 C 92.646 123.226, 75.766 126.294, 67.521 130.787 C 61.517 134.058, 59.334 138.308, 62.477 140.607 C 65.910 143.117, 71.260 143.989, 83.270 143.994 L 95.041 144 93.131 147.750 C 88.022 157.781, 86.806 167.817, 89.890 174.500 C 94.703 184.929, 104.554 187.688, 110.953 180.401 C 116.273 174.341, 117.207 166.610, 114.158 153.868 L 112.331 146.236 114.976 144.673 C 117.421 143.229, 117.843 143.257, 120.560 145.049 C 124.589 147.704, 128.266 147.488, 131.961 144.379 C 134.963 141.854, 135.147 141.823, 137.039 143.535 C 139.796 146.030, 143.213 153.749, 146.978 165.984 C 150.680 178.018, 153.746 184.516, 157.273 187.804 L 159.743 190.108 163.235 186.804 C 171.149 179.315, 174.598 167.303, 173.744 150.203 C 173.164 138.578, 170.068 127.830, 166.077 123.582 L 163.969 121.338 166.180 121.419 C 168.127 121.490, 168.599 120.603, 170.126 114 C 174.926 93.247, 176.509 65.365, 174.630 34.633 L 173.783 20.765 170.275 16.883 C 165.818 11.950, 162.276 11.695, 158.615 16.046 C 155.905 19.266, 152.705 28.351, 151.385 36.569 L 150.593 41.500 149.843 35.119 C 148.409 22.923, 140.900 16.555, 127.907 16.519 C 120.132 16.497, 116 18.276, 116 21.646 C 116 25.396, 121.018 27.565, 136.647 30.573 C 138.769 30.982, 138.794 31.253, 138.828 54.743 L 138.863 78.500 135.936 72.500 C 134.326 69.200, 126.741 53.563, 119.079 37.750 C 109.584 18.152, 104.648 9, 103.575 9 C 102.709 9, 102 9.256, 102 9.570 M 160.184 18.493 C 157.865 21.442, 154.737 32.595, 152.330 46.500 C 151.027 54.023, 150.586 62.445, 150.549 80.500 C 150.501 104.147, 150.537 104.573, 153 109.500 C 154.976 113.453, 156.503 114.998, 160.291 116.876 C 162.926 118.182, 165.320 119.014, 165.610 118.723 C 166.633 117.700, 168.912 107.380, 170.628 96 C 172.574 83.099, 173.094 50.064, 171.643 31.598 C 170.900 22.132, 170.477 20.387, 168.439 18.348 C 165.412 15.321, 162.641 15.369, 160.184 18.493 M 120.070 20.036 C 117.950 20.937, 117.824 21.253, 119.087 22.516 C 120.671 24.100, 134.766 28, 138.910 28.001 L 141.500 28.001 141.679 56.963 C 141.783 73.735, 142.273 86.665, 142.843 87.683 C 144.009 89.768, 144.201 88.857, 146.555 70.073 C 148.410 55.269, 147.722 33.577, 145.226 28.161 C 142.787 22.867, 137.210 19.798, 129.249 19.368 C 125.537 19.168, 121.407 19.468, 120.070 20.036 M 146.079 93.583 C 146.127 94.748, 146.364 94.985, 146.683 94.188 C 146.972 93.466, 146.936 92.603, 146.604 92.271 C 146.272 91.939, 146.036 92.529, 146.079 93.583 M 144.123 108.138 C 142.680 117.742, 139.507 130.850, 137.413 135.862 C 136.082 139.048, 136.123 139.398, 137.974 140.694 C 141.280 143.010, 144.565 149.803, 149.004 163.500 C 155.465 183.438, 158.241 187.901, 162.043 184.461 C 165.739 181.116, 169.912 170.924, 170.830 163 C 172.778 146.189, 167.382 124, 161.345 124 C 160.605 124, 160 124.886, 160 125.969 C 160 128.601, 157.361 127.575, 156.629 124.657 C 156.325 123.448, 153.670 117.356, 150.729 111.118 L 145.380 99.776 144.123 108.138 M 158.510 121.016 C 158.856 121.575, 159.557 121.774, 160.069 121.457 C 161.456 120.600, 161.198 120, 159.441 120 C 158.584 120, 158.165 120.457, 158.510 121.016 M 84.763 128.033 C 74.668 129.733, 64 134.549, 64 137.408 C 64 140.213, 70.931 141.452, 85.659 141.281 L 99.819 141.117 95.820 148.998 C 90.874 158.747, 89.807 166.588, 92.477 173.578 C 94.258 178.242, 98.630 181.989, 102.300 181.996 C 111.591 182.016, 115.425 169.056, 111.024 152.500 C 109.028 144.990, 109.073 144.832, 113.960 142.024 C 115.146 141.343, 114.592 139.994, 111.013 134.843 C 108.589 131.354, 106.132 128.169, 105.553 127.765 C 104.203 126.824, 90.930 126.994, 84.763 128.033 M 123.024 141.115 C 121.002 141.922, 120.819 142.274, 122.024 143.036 C 124.508 144.607, 128.593 144.107, 130.500 142 C 132.277 140.037, 132.248 140.001, 128.905 140.063 C 127.032 140.098, 124.386 140.571, 123.024 141.115" stroke="none" fill="black" fill-rule="evenodd"/>
</svg>