<svg xmlns="http://www.w3.org/2000/svg" width="200" height="200" viewBox="0 0 200 200" version="1.1">
	<path d="M 121 19.179 C 108.621 22.396, 103.560 23.236, 95.863 23.353 C 87.825 23.476, 85.892 23.199, 84.212 21.685 C 82.842 20.450, 81.980 20.224, 81.513 20.979 C 80.426 22.738, 82.883 24.891, 87.366 26.106 C 93.273 27.707, 102.103 26.627, 120.816 22.015 C 129.775 19.807, 138.207 18, 139.553 18 C 144.194 18, 142.201 21.717, 131.680 32.678 C 126.897 37.661, 126.622 37.799, 124.377 36.327 C 122.394 35.028, 120.812 34.964, 113.862 35.899 C 89.494 39.179, 52.500 35.019, 52.500 29 C 52.500 28.131, 55.640 25.945, 59.967 23.802 C 65.367 21.128, 66.968 19.925, 65.749 19.457 C 61.576 17.856, 48.442 25.907, 49.172 29.618 C 50.731 37.548, 82.473 42.212, 112.017 38.853 C 119.635 37.987, 122.388 37.988, 123.260 38.860 C 125.335 40.935, 121.729 43.034, 113.408 44.596 C 108.287 45.557, 95.532 46.292, 77.217 46.682 L 48.934 47.284 46.900 50.140 C 44.576 53.404, 44.120 58.234, 45.929 60.414 C 48.305 63.277, 54.303 64.424, 66.500 64.349 C 73.100 64.308, 82.721 63.747, 87.880 63.101 C 93.040 62.456, 97.473 62.140, 97.732 62.399 C 97.992 62.658, 97.483 63.900, 96.602 65.158 C 95.502 66.728, 95 69.648, 94.998 74.473 C 94.997 82.205, 92.768 88.258, 89.712 88.828 C 88.541 89.046, 85.684 86.742, 81.431 82.148 C 70.868 70.739, 66.470 70.560, 54.393 81.045 C 44.939 89.253, 40.168 91.439, 32.009 91.304 C 28.429 91.245, 23.531 90.477, 21.124 89.598 C 18.718 88.719, 16.359 88, 15.884 88 C 14.354 88, 20.973 97.769, 24.747 101.083 C 34.108 109.302, 45.903 110.705, 71.500 106.644 C 95.619 102.818, 100.341 102.551, 111.601 104.371 C 117.046 105.251, 123.300 106.090, 125.500 106.235 L 129.500 106.500 125.508 110.292 C 120.542 115.011, 112.840 117.492, 106.153 116.526 C 103.594 116.157, 97.044 114.737, 91.597 113.371 C 79.749 110.400, 70.111 110.078, 64.500 112.466 C 62.300 113.403, 57.878 114.551, 54.674 115.019 C 48.305 115.949, 44 118.188, 44 120.571 C 44 123.034, 48.183 126.233, 59.508 132.434 C 65.357 135.636, 69.769 138.631, 69.311 139.089 C 68.853 139.547, 62.652 139.456, 55.530 138.887 C 39.819 137.631, 39.575 137.778, 40.268 148.100 C 41.327 163.860, 56.609 179.685, 74 183.030 C 84.278 185.007, 97.494 180.587, 106.250 172.246 C 112.260 166.520, 109.167 164.278, 90.120 160.558 C 83.311 159.228, 77.253 157.653, 76.659 157.059 C 74.849 155.249, 78.764 152.357, 89.524 147.554 C 98.325 143.625, 99.718 142.654, 101.350 139.301 C 106.593 128.529, 113.838 128.159, 122.464 138.224 C 130.709 147.842, 134.499 160.199, 133.780 175.118 L 133.304 185 136.402 184.984 C 143.980 184.943, 152.249 176.459, 155.759 165.124 C 158.193 157.262, 158.198 133.830, 155.767 125.937 C 153.478 118.507, 150.110 113.722, 146.292 112.474 C 143.169 111.454, 139 108.321, 139 106.995 C 139 106.613, 143.838 106, 149.750 105.632 C 167.034 104.556, 178.865 101.401, 180.375 97.465 C 181.518 94.487, 178.858 91.804, 171.298 88.311 C 161.481 83.775, 158.478 83.375, 153.539 85.941 C 149.606 87.985, 143 88.758, 143 87.174 C 143 84.771, 148.296 71.746, 151.300 66.759 C 153.203 63.601, 156.037 57.076, 157.600 52.259 C 159.970 44.951, 160.445 41.761, 160.470 33 C 160.489 26.288, 160.005 21.328, 159.129 19.250 C 157.525 15.449, 156 15.004, 156 18.337 C 156 21.610, 151.373 46.332, 148.297 59.500 C 146.049 69.119, 145.295 70.908, 142.292 73.750 C 140.403 75.537, 137.811 77, 136.532 77 C 132.876 77, 128.546 71.195, 126.463 63.502 L 124.633 56.739 116.886 57.270 L 109.139 57.801 115.689 51.651 C 119.291 48.268, 122.974 45.050, 123.873 44.500 C 126.195 43.080, 137.051 31.394, 141.362 25.673 C 145.441 20.262, 145.918 17.562, 143.066 16.035 C 140.148 14.474, 137.838 14.803, 121 19.179 M 154.730 42.120 C 153.207 50.029, 151.728 57.625, 151.443 59 C 151.159 60.375, 151.814 59.475, 152.899 57 C 155.860 50.248, 158.156 39.045, 157.809 33.057 C 157.527 28.213, 157.254 29.019, 154.730 42.120 M 108.500 48.090 C 105.750 48.543, 91.422 49.228, 76.659 49.613 L 49.819 50.312 48.247 53.608 C 46.148 58.010, 47.500 59.545, 54.827 61.075 C 60.914 62.346, 72.268 61.979, 92.322 59.864 L 104.144 58.616 110.322 52.852 C 113.720 49.682, 115.825 47.129, 115 47.178 C 114.175 47.227, 111.250 47.638, 108.500 48.090 M 109 60.685 C 107.625 60.912, 105.967 61.276, 105.315 61.493 C 104.074 61.906, 117.497 75.324, 124.648 80.819 C 128.711 83.941, 136.467 87.935, 138.552 87.978 C 139.446 87.997, 143.020 79.850, 143.005 77.827 C 143.002 77.456, 141.683 77.811, 140.072 78.614 C 133.927 81.679, 127.715 76.739, 124.417 66.164 L 122.500 60.017 117 60.145 C 113.975 60.215, 110.375 60.458, 109 60.685 M 105.999 68.619 C 109.347 71.643, 124.593 88.991, 131.782 97.955 L 133.750 100.410 135.875 96.245 C 138.402 91.292, 138.523 90, 136.460 90 C 132.015 90, 119.113 80.863, 109.034 70.578 C 106.028 67.510, 103.214 65, 102.781 65 C 102.348 65, 103.797 66.628, 105.999 68.619 M 97.994 73.250 C 97.987 81.173, 96.484 86.607, 93.463 89.628 C 89.623 93.468, 86.882 92.731, 81.932 86.527 C 76.612 79.860, 72.916 77.023, 68.648 76.330 C 66.004 75.901, 64.595 76.455, 60.956 79.355 C 42.757 93.857, 41.205 94.543, 28.500 93.705 L 20.500 93.177 25.791 98.062 C 35.155 106.708, 46.415 107.974, 73.853 103.466 C 90.828 100.676, 105.351 100.134, 114.500 101.948 C 117.800 102.603, 123.114 102.994, 126.308 102.819 L 132.116 102.500 123.346 92 C 112.705 79.259, 100.872 67, 99.216 67 C 98.392 67, 97.998 69.013, 97.994 73.250 M 154.654 88.573 C 153.089 89.448, 149.443 90.408, 146.551 90.707 C 141.343 91.244, 141.270 91.300, 138.647 96.647 C 137.191 99.615, 136 102.259, 136 102.522 C 136 103.595, 154.130 102.890, 162.834 101.478 C 172.672 99.883, 178.361 97.679, 177.778 95.691 C 177.280 93.993, 165.131 88.042, 160.985 87.466 C 158.833 87.167, 156.411 87.590, 154.654 88.573 M 128.978 110.522 C 119.887 119.786, 110.996 121.176, 92 116.305 C 79.643 113.137, 69.157 112.753, 64.336 115.294 C 62.596 116.212, 58.660 117.258, 55.590 117.618 C 52.519 117.979, 49.218 118.860, 48.253 119.576 C 46.694 120.734, 46.666 121.045, 48 122.391 C 48.825 123.224, 54.225 126.448, 60 129.555 C 72.045 136.037, 74.568 138.079, 73.611 140.572 C 73.003 142.156, 71.623 142.253, 57.972 141.662 L 43 141.014 43.010 146.757 C 43.033 160.470, 55.626 174.999, 71.425 179.541 C 78.778 181.654, 86.023 181.051, 93.299 177.721 C 98.455 175.360, 106 169.588, 106 168.003 C 106 166.765, 103.390 166.018, 90.129 163.459 C 83.325 162.146, 76.688 160.370, 75.379 159.513 C 69.879 155.909, 73.636 151.689, 88.247 145.063 C 96.825 141.173, 98.007 140.311, 99.591 136.797 C 110.088 113.521, 138.188 141.319, 136.846 173.651 C 136.468 182.775, 136.781 183.199, 141.931 180.536 C 151.378 175.651, 156.561 158.984, 154.870 138.928 C 153.649 124.439, 149.556 115, 144.494 115 C 142.910 115, 140.922 113.521, 138.446 110.500 C 136.418 108.025, 134.457 106, 134.088 106 C 133.719 106, 131.419 108.035, 128.978 110.522" stroke="none" fill="black" fill-rule="evenodd"/>
</svg>