<svg xmlns="http://www.w3.org/2000/svg" width="200" height="200" viewBox="0 0 200 200" version="1.1">
	<path d="M 134.750 17.563 C 131.037 19.469, 128 21.396, 128 21.847 C 128 23.813, 129.440 23.572, 134.796 20.707 C 140.036 17.905, 140.337 17.845, 138.500 19.976 C 137.400 21.252, 132.814 25.533, 128.309 29.491 L 120.119 36.685 113.809 35.762 C 105.446 34.538, 83.956 35.547, 76.753 37.501 L 71.007 39.061 63.401 35.894 C 59.218 34.153, 54.604 31.699, 53.148 30.441 L 50.500 28.154 53.302 27.082 C 58.167 25.221, 72.892 24.017, 91 24 C 109.615 23.982, 119 23.265, 119 21.861 C 119 20.664, 80.820 20.782, 67.774 22.019 C 61.875 22.578, 55.350 23.592, 53.274 24.272 C 50.039 25.332, 49.500 25.931, 49.500 28.465 C 49.500 32.058, 52.673 34.428, 63.538 38.952 C 71.025 42.068, 71.029 42.069, 76.264 40.454 C 82.182 38.628, 105.113 37.340, 112.358 38.426 L 117.016 39.125 111.307 43.996 C 104.380 49.907, 100.439 50.703, 86.679 48.971 C 71.441 47.053, 54.214 50.365, 47.615 56.481 C 44.497 59.371, 44.322 61.322, 46.947 63.947 C 50.024 67.024, 56.541 68.246, 69.804 68.234 C 81.882 68.222, 82.077 68.258, 80.368 70.145 C 79.023 71.632, 78.613 73.946, 78.564 80.327 C 78.489 89.986, 76.890 93.312, 71.174 95.701 C 64.711 98.401, 50.774 95.880, 38.727 89.830 L 34.954 87.936 30.592 90.937 C 23.742 95.649, 20.842 99.640, 21.198 103.864 C 21.450 106.862, 22.144 107.810, 25.425 109.645 C 31.475 113.028, 40.972 114.408, 57.500 114.306 C 68.582 114.237, 75.895 113.598, 85.500 111.857 C 98.191 109.556, 121.855 108.516, 123.520 110.185 C 123.896 110.562, 123.469 113.084, 122.570 115.789 L 120.937 120.707 108.718 122.104 C 92.110 124.002, 74.592 123.857, 69.851 121.783 C 66.242 120.204, 66.116 120.229, 58.113 124.123 C 51.868 127.162, 49.877 128.640, 49.385 130.603 C 47.967 136.251, 52.570 137.126, 86.800 137.717 C 111.112 138.137, 114.847 138.400, 113.300 139.584 C 111.875 140.675, 111.773 141.142, 112.811 141.827 C 113.872 142.529, 113.721 144.258, 112.013 150.947 C 110.854 155.487, 109.630 162.154, 109.293 165.762 L 108.681 172.323 105.603 168.411 C 95.450 155.509, 86.949 149, 80.249 149 C 75.509 149, 72.472 150.494, 63.617 157.182 C 59.152 160.554, 53.588 164.163, 51.250 165.203 C 46.483 167.324, 45.800 169.779, 48.517 175.033 C 52.042 181.850, 63.016 183.349, 88.060 180.434 C 97.197 179.370, 108.399 178.754, 115.500 178.925 C 150.091 179.757, 154.672 179.610, 156.897 177.595 C 162.892 172.166, 155.195 163.983, 129.820 148.810 C 123.319 144.923, 118 141.156, 118 140.439 C 118 138.597, 119.828 138.214, 134.500 136.982 C 155.526 135.215, 156.633 132.958, 142.947 119.750 L 133.880 111 149.190 110.994 C 166.769 110.988, 171.113 110.087, 175.703 105.497 C 178.327 102.873, 179 101.388, 179 98.222 C 179 95.865, 178.374 93.726, 177.464 92.970 C 175.103 91.011, 161.995 90.576, 147.771 91.985 C 140.705 92.685, 134.759 93.087, 134.558 92.879 C 134.357 92.670, 135.771 88.563, 137.701 83.750 C 140.798 76.025, 141.502 75, 143.705 75 C 148.711 75, 152.236 69.656, 157.885 53.500 C 165.826 30.786, 167.617 24.217, 166.243 22.843 C 165.365 21.965, 164.688 22.014, 163.450 23.042 C 161.548 24.620, 151.198 45.026, 144.957 59.500 C 142.586 65, 140.276 69.927, 139.824 70.449 C 139.328 71.022, 134.538 69.126, 127.751 65.670 C 115.843 59.607, 108.116 57.516, 101.500 58.569 C 99.231 58.930, 97.933 58.833, 98.500 58.345 C 99.050 57.872, 100.888 56.237, 102.585 54.713 C 104.838 52.689, 107.400 51.671, 112.085 50.937 C 120.917 49.554, 127.415 47.304, 129.623 44.864 C 131.446 42.850, 131.428 42.765, 128.685 40.405 C 127.147 39.082, 125.175 38, 124.303 38 C 123.377 38, 124.751 36.240, 127.609 33.766 C 138.241 24.563, 145 17.596, 145 15.841 C 145 13.175, 142.471 13.600, 134.750 17.563 M 155.249 43.750 C 148.581 57.660, 143 70.289, 143 71.470 C 143 72.824, 145.867 71.770, 147.811 69.701 C 150.441 66.902, 164.287 29, 162.679 29 C 162.482 29, 159.139 35.638, 155.249 43.750 M 115.500 44 C 110.539 48.294, 111.128 48.871, 118.500 46.942 C 124.265 45.434, 128 43.875, 128 42.977 C 128 42.245, 122.653 40, 120.912 40 C 120.477 40, 118.042 41.800, 115.500 44 M 63.718 52.471 C 55.901 54.102, 48.675 57.736, 48.184 60.282 C 47.529 63.686, 54.148 65.366, 68.500 65.436 C 80.718 65.496, 81.831 65.336, 87 62.768 C 90.025 61.266, 94.441 58.337, 96.813 56.259 L 101.126 52.482 96.313 52.376 C 93.666 52.318, 86.775 51.997, 81 51.663 C 73.672 51.239, 68.451 51.483, 63.718 52.471 M 98.622 61.714 C 96.934 62.147, 96.811 62.871, 97.401 68.848 C 99.209 87.139, 106.539 94, 124.274 94 L 130.662 94 134.331 84.731 C 136.349 79.632, 138 75.163, 138 74.799 C 138 74.435, 133.814 71.873, 128.698 69.107 C 116.133 62.313, 105.996 59.821, 98.622 61.714 M 90.872 64.750 C 89.603 66.369, 89.650 66.390, 91.500 65.033 C 92.600 64.226, 93.688 63.439, 93.917 63.283 C 94.146 63.127, 93.863 63, 93.289 63 C 92.715 63, 91.627 63.788, 90.872 64.750 M 88.281 70.283 C 85.411 72.052, 83.060 73.725, 83.057 74 C 83.051 74.553, 97.372 84.912, 97.713 84.601 C 97.831 84.494, 97.268 82.219, 96.463 79.544 C 95.658 76.870, 95 72.954, 95 70.841 C 95 68.728, 94.662 67.015, 94.250 67.033 C 93.838 67.050, 91.152 68.513, 88.281 70.283 M 82 81.562 C 82 84.427, 81.137 88.151, 79.863 90.782 C 74.795 101.251, 62.936 102.500, 43.334 94.630 L 34.859 91.226 30.772 94.363 C 24.726 99.004, 22.547 102.285, 23.869 104.755 C 27.906 112.299, 57.309 113.904, 90.190 108.377 C 102.511 106.306, 107.251 105.930, 114.469 106.454 C 119.402 106.812, 123.227 106.920, 122.969 106.693 C 122.711 106.467, 113.950 100.085, 103.500 92.510 C 93.050 84.936, 83.938 78.293, 83.250 77.747 C 82.286 76.982, 82 77.854, 82 81.562 M 141.626 95.382 L 132.752 96.500 130.832 101.406 C 129.771 104.114, 129.293 106.693, 129.765 107.165 C 130.878 108.278, 161.393 108.735, 166.221 107.710 C 171.774 106.531, 176 102.559, 176 98.518 C 176 96.428, 175.419 94.991, 174.418 94.607 C 171.948 93.659, 151.453 94.143, 141.626 95.382 M 114 96.438 C 114 97.049, 124.917 105, 125.756 105 C 126.608 105, 129.473 98.094, 128.842 97.563 C 128.343 97.145, 114 96.057, 114 96.438 M 125.655 115.500 L 124.121 120 129.438 120 C 138.761 120, 139.010 123.296, 130.269 130.998 L 125.500 135.201 131.250 134.601 C 134.412 134.270, 139.468 133.744, 142.484 133.430 C 148.788 132.775, 149.778 131.823, 147.868 128.250 C 146.575 125.832, 129.401 111, 127.893 111 C 127.505 111, 126.498 113.025, 125.655 115.500 M 59.231 126.526 C 51.017 130.331, 49.975 132.480, 55.750 133.705 C 57.813 134.142, 72.281 134.500, 87.903 134.500 L 116.306 134.500 118.141 129.107 L 119.976 123.713 113.238 124.381 C 88.466 126.839, 83.432 127.066, 76.735 126.027 C 72.903 125.432, 69.023 124.548, 68.114 124.061 C 66.959 123.443, 64.287 124.184, 59.231 126.526 M 121.157 129 C 120.043 132.300, 119.497 135, 119.945 135 C 121.142 135, 132.338 126.148, 133.287 124.451 C 133.953 123.261, 133.118 123, 128.641 123 L 123.184 123 121.157 129 M 114.669 151.306 C 112.583 160.294, 110.721 173.740, 111.409 174.853 C 112.046 175.883, 131.464 177.458, 143 177.414 C 151.678 177.381, 156 176.080, 156 173.500 C 156 169.193, 138.013 155.711, 117.926 144.960 C 116.602 144.252, 116.063 145.302, 114.669 151.306 M 66.340 158.600 C 61.478 162.230, 55.813 166.064, 53.750 167.120 C 49.856 169.115, 49.245 170.722, 51.080 174.150 C 53.847 179.320, 65.351 180.235, 91.500 177.368 C 99.750 176.463, 106.660 175.587, 106.856 175.422 C 107.479 174.896, 98.350 163.653, 93.844 159.398 C 87.263 153.184, 85.028 152, 79.868 152 C 75.651 152, 74.293 152.663, 66.340 158.600" stroke="none" fill="black" fill-rule="evenodd"/>
</svg>