<svg xmlns="http://www.w3.org/2000/svg" width="200" height="200" viewBox="0 0 200 200" version="1.1">
	<path d="M 117 14.943 C 117 16.012, 118.546 23.184, 120.436 30.881 C 122.326 38.577, 124.410 48.551, 125.067 53.044 C 126.450 62.504, 125.878 78.491, 124.033 81.938 C 122.845 84.157, 122.484 83.554, 118.320 72.404 C 113.969 60.752, 113.871 60.225, 113.688 47.500 C 113.539 37.207, 113.121 33.738, 111.680 30.842 C 109.653 26.770, 105.361 24.433, 101.916 25.527 C 100.246 26.057, 99.255 25.664, 97.971 23.961 C 95.420 20.580, 93 21.991, 93 26.859 L 93 30.780 72.250 31.391 C 49.194 32.070, 35.130 33.325, 32.043 34.977 C 26.785 37.791, 31.102 43.502, 42.197 48.408 C 47.727 50.854, 47.892 50.866, 56.645 49.445 C 66.733 47.807, 75.817 47.598, 77.960 48.954 C 82.199 51.635, 68.934 57.612, 56.500 58.623 C 50.198 59.135, 39.187 57.639, 33.962 55.560 C 32.855 55.120, 31.806 56.219, 30.223 59.478 C 24.959 70.314, 26.686 75.879, 35.580 76.734 C 38.635 77.027, 45.855 76.211, 54.421 74.605 C 72.048 71.299, 81.152 71.152, 84.127 74.127 C 85.943 75.943, 86.172 77.040, 85.699 81.630 C 85.062 87.802, 86.172 89, 92.530 89 C 99.237 89, 105.986 81.723, 109.591 70.605 C 110.501 67.797, 111.532 65.181, 111.881 64.792 C 112.230 64.403, 114.477 69.494, 116.873 76.105 L 121.230 88.126 118.920 90.585 C 117.650 91.937, 114.216 94.215, 111.290 95.647 C 100.448 100.951, 89.405 98.650, 75.111 88.107 C 62.533 78.830, 59.351 77.560, 55.583 80.315 C 54.594 81.039, 53.229 83.820, 52.549 86.497 L 51.314 91.363 45.062 92.638 C 33.399 95.017, 24 103.336, 24 111.280 C 24 122.115, 39.547 124.616, 65.500 117.957 C 79.579 114.345, 92.039 113, 111.435 113 L 126.949 113 128.519 116.037 L 130.089 119.073 125.524 121.092 C 117.686 124.560, 110.871 125.109, 84.462 124.404 C 62.756 123.824, 58.665 123.956, 53.717 125.394 C 48.433 126.930, 41 132.021, 41 134.104 C 41 134.597, 45.163 135.005, 50.250 135.012 C 63.825 135.029, 73.533 138.049, 77.912 143.615 C 84.792 152.361, 73.091 164.359, 51.195 171.010 C 43.362 173.389, 42 174.776, 42 180.378 C 42 184.601, 44.824 187, 49.796 187 C 57.596 187, 81.851 176.273, 100.099 164.754 L 108.698 159.325 117.225 167.913 C 126.645 177.400, 134.851 182.902, 140.762 183.695 C 143.916 184.118, 145.185 183.745, 147.569 181.693 C 150.090 179.523, 150.488 178.495, 150.417 174.335 C 150.212 162.370, 140.081 152.323, 125.661 149.784 C 120.790 148.926, 118.788 147.987, 116.100 145.299 C 113.600 142.800, 112.995 141.605, 113.814 140.786 C 114.483 140.117, 121.507 139.405, 131.382 139.005 C 149.503 138.271, 153 137.215, 153 132.480 C 153 129.419, 147.464 123.111, 139.827 117.467 L 134.153 113.275 140.719 112.662 C 144.330 112.325, 147.477 111.857, 147.712 111.622 C 147.946 111.387, 147.586 109.351, 146.911 107.097 C 144.018 97.442, 150.280 90.093, 167.788 82.592 C 181.524 76.708, 183.073 75.878, 184.401 73.689 C 185.303 72.203, 185.002 71.446, 182.716 69.458 C 180.228 67.294, 165.713 62.173, 157.383 60.518 C 154.368 59.920, 154.244 59.686, 153.599 53.395 C 152.033 38.110, 147.134 19.429, 143.618 15.343 C 138.847 9.795, 135.687 15.025, 133.430 32.202 C 132.094 42.371, 130.159 78, 129.939 96.500 L 129.843 104.500 127.099 96.536 L 124.355 88.572 126.287 83.536 C 128.806 76.971, 129.567 64.371, 128.079 53.874 C 127.117 47.087, 121.610 22.320, 119.381 14.750 C 118.685 12.387, 117 12.524, 117 14.943 M 139.012 17.977 C 136.103 23.414, 133 63.238, 133 95.147 L 133 110 138.628 110 L 144.256 110 143.650 106.212 C 141.798 94.628, 149.342 86.973, 171.500 77.954 C 179.730 74.604, 182 73.315, 182 71.994 C 182 70.949, 173.046 67.481, 164.020 65.031 C 154.754 62.515, 154 62.513, 154 65 C 154 68.733, 150.365 67.371, 148.609 62.980 C 146.559 57.858, 146.575 57.730, 149.150 58.548 C 151.250 59.214, 151.284 59.073, 150.598 52.365 C 149.167 38.373, 143.240 16, 140.963 16 C 140.472 16, 139.594 16.890, 139.012 17.977 M 96.420 29.178 L 96.851 32.857 90.676 33.378 C 87.279 33.665, 73.925 34.327, 61 34.850 C 48.075 35.372, 36.203 36.307, 34.618 36.925 C 31.904 37.985, 31.832 38.157, 33.388 39.876 C 34.296 40.880, 37.931 43.111, 41.465 44.834 L 47.891 47.967 57.696 46.490 C 70.010 44.633, 74.168 44.625, 78.532 46.449 C 88.259 50.513, 75.420 59.467, 57 61.466 C 53.751 61.818, 48.021 61.443, 43 60.550 C 38.325 59.718, 34.211 59.029, 33.859 59.018 C 32.862 58.990, 30 66.753, 30 69.485 C 30 74.725, 36.297 75.213, 56 71.500 C 63.297 70.125, 71.727 69, 74.732 69 C 85.007 69, 89.953 73.636, 88.614 82.011 C 87.936 86.254, 88.501 86.639, 94.500 86.026 C 99.280 85.537, 104.690 77.519, 108.095 65.880 L 110.324 58.260 106.104 47.880 C 103.783 42.171, 100.557 34.800, 98.936 31.500 C 96.158 25.844, 96.014 25.711, 96.420 29.178 M 101.702 28.750 C 101.473 29.163, 103.359 34.360, 105.893 40.300 L 110.500 51.101 110.818 44.800 C 111.165 37.939, 109.828 31.971, 107.402 29.545 C 105.787 27.930, 102.418 27.460, 101.702 28.750 M 56.041 84.393 C 55.540 85.710, 54.828 88.398, 54.459 90.368 C 53.863 93.545, 53.376 94.014, 50.143 94.526 C 36.822 96.635, 28.339 102.235, 26.458 110.163 C 25.248 115.266, 32.107 119.026, 42.500 118.955 C 48.308 118.915, 58.225 117.139, 69.331 114.149 C 78.340 111.723, 96.979 110, 114.204 110 C 123.046 110, 125.932 109.698, 125.395 108.830 C 124.909 108.043, 125.217 107.869, 126.336 108.299 C 127.251 108.650, 128 108.527, 128 108.026 C 128 107.239, 123.018 92.983, 122.477 92.223 C 122.369 92.071, 119.935 93.525, 117.068 95.454 C 110.368 99.963, 105.119 101.337, 96.837 100.751 C 89.400 100.225, 81.256 96.376, 71.070 88.573 C 61.441 81.197, 57.656 80.145, 56.041 84.393 M 134.345 118.625 C 136.120 124.572, 136.195 126, 134.730 126 C 133.913 126, 132.576 124.994, 131.759 123.764 C 130.598 122.015, 129.972 121.776, 128.887 122.669 C 128.124 123.297, 124.800 124.635, 121.500 125.643 C 116.240 127.248, 111.675 127.476, 84.500 127.487 C 55.516 127.499, 53.272 127.628, 50 129.471 L 46.500 131.442 54.807 132.159 C 73.344 133.761, 84.444 141.487, 82.569 151.484 C 81.113 159.246, 68.190 168.721, 52.528 173.511 C 46.852 175.246, 45.441 176.094, 44.935 178.071 C 42.605 187.181, 54.756 185.628, 78.385 173.796 C 86.650 169.658, 100.479 161.484, 107.135 156.805 C 108.513 155.836, 110.333 157.229, 118.729 165.678 C 133.045 180.085, 143.197 184.510, 146.866 177.942 C 148.755 174.560, 147.779 169.620, 144.065 163.764 C 140.380 157.952, 133.992 154.162, 125.405 152.691 C 119.883 151.745, 118.139 150.930, 114.892 147.780 C 110.449 143.468, 109.778 139.724, 113.128 137.932 C 114.298 137.305, 122.587 136.474, 131.548 136.085 C 150.225 135.273, 152.071 134.622, 149.250 129.846 C 148.299 128.236, 145.041 124.991, 142.010 122.634 C 134.426 116.738, 133.663 116.339, 134.345 118.625" stroke="none" fill="black" fill-rule="evenodd"/>
</svg>