<svg xmlns="http://www.w3.org/2000/svg" width="200" height="200" viewBox="0 0 200 200" version="1.1">
	<path d="M 128.059 10.198 C 127.438 12.014, 125.832 14.843, 124.491 16.483 L 122.053 19.467 124.428 21.483 C 126.779 23.480, 126.794 23.618, 125.946 35.372 C 125.474 41.902, 124.847 47.487, 124.551 47.783 C 124.255 48.078, 122.259 47.795, 120.116 47.153 C 113.781 45.255, 108.440 38.038, 105.457 27.342 C 105.237 26.554, 103.838 26.826, 101.072 28.194 C 95.448 30.977, 85.723 31.631, 63.403 30.726 C 41.173 29.825, 36.722 30.568, 36.182 35.271 C 35.669 39.728, 42.437 49.084, 45.019 47.488 C 45.799 47.006, 45.382 45.939, 43.711 44.140 C 42.363 42.688, 40.459 40.239, 39.481 38.699 C 36.298 33.685, 37.480 33.464, 65.405 33.847 C 86.139 34.132, 91.813 33.907, 96.926 32.597 C 100.356 31.719, 103.278 31, 103.421 31 C 103.563 31, 104.284 32.830, 105.022 35.066 C 106.899 40.755, 113.155 47.512, 118.398 49.514 L 122.759 51.180 120.383 55.430 C 118.594 58.632, 117.081 59.963, 114.254 60.824 C 109.095 62.394, 101.465 68.898, 92.930 79 C 88.980 83.675, 80.505 92.911, 74.096 99.523 C 64.392 109.535, 61.109 112.239, 54.471 115.683 C 41.854 122.229, 32 124.392, 32 120.616 C 32 116.873, 41.846 106.792, 55.599 96.453 C 69.854 85.737, 72.756 81.545, 67.766 78.875 C 66.530 78.213, 58.823 77.362, 50.516 76.970 C 42.067 76.570, 34.327 75.709, 32.818 75 C 29.309 73.353, 27.578 69.239, 28.915 65.724 L 29.920 63.080 35.710 65.174 C 43.882 68.129, 59.332 68.290, 66.990 65.500 C 74.297 62.838, 82 55.571, 82 51.339 C 82 45.453, 75.530 42.536, 64.750 43.561 C 59.973 44.015, 58 44.608, 58 45.589 C 58 46.702, 59.464 46.851, 65.449 46.345 C 75.035 45.535, 79 46.945, 79 51.167 C 79 54.963, 75.532 58.392, 68.232 61.814 C 63.135 64.202, 61.336 64.497, 52 64.474 C 43.647 64.453, 40.193 63.981, 35.108 62.166 C 30.849 60.645, 28.383 60.217, 27.717 60.883 C 27.167 61.433, 26.498 64.171, 26.229 66.969 C 25.310 76.536, 30.159 79.052, 51.173 79.912 C 59.243 80.242, 66.142 80.808, 66.504 81.170 C 68 82.666, 64.300 86.492, 53.694 94.419 C 36.346 107.384, 26.936 118.489, 29.642 122.804 C 33.723 129.314, 58.571 119.743, 70.500 107.066 C 72.700 104.728, 76.468 100.944, 78.874 98.657 C 81.279 96.371, 87.730 89.222, 93.210 82.772 C 98.689 76.322, 105.271 69.531, 107.836 67.680 C 112.376 64.406, 116 62.570, 116 63.545 C 116 63.810, 112.921 70.208, 109.158 77.763 C 105.395 85.318, 99.259 98.109, 95.522 106.187 L 88.727 120.873 84.091 120.324 C 73.034 119.015, 55.983 124.188, 51.664 130.163 C 49.066 133.757, 50.084 137.475, 54.257 139.633 C 58.277 141.712, 68.661 142.469, 76.250 141.236 C 79.412 140.723, 82 140.572, 81.999 140.901 C 81.999 141.231, 81.115 143.826, 80.034 146.669 C 75.151 159.517, 75.582 171.177, 81.176 177.548 C 86.465 183.572, 93.815 183.420, 100.078 177.158 C 104.580 172.655, 107 165.317, 107 156.163 C 107 150.103, 106.703 149.254, 102.358 142.895 C 94.764 131.781, 95.214 122.898, 103.546 119.416 C 115.140 114.572, 124.541 122.708, 124.440 137.500 C 124.382 145.931, 122.172 151.267, 112.015 167.500 C 104.530 179.464, 103.081 183.188, 105.011 185.513 C 106.690 187.536, 111.098 187.292, 119.907 184.689 L 127.314 182.500 129.024 177.226 C 133.167 164.450, 138.406 164.741, 158.117 178.841 C 169.996 187.338, 174.327 186.889, 172.537 177.346 C 171.061 169.480, 163.674 149.394, 160.323 144.136 C 152.636 132.073, 139.960 120.188, 131.778 117.371 L 128.500 116.243 128.209 107.456 C 127.899 98.126, 128.369 97.045, 132.750 97.015 C 134.528 97.003, 135 97.563, 135 99.684 C 135 105.368, 138.216 114.004, 141.298 116.597 C 146.841 121.261, 152.841 117.383, 158.467 105.500 C 162.587 96.798, 164.154 90.153, 164.164 81.340 C 164.168 77.578, 164.230 67.525, 164.303 59 C 164.643 19.150, 164.199 14.875, 159.319 11.036 C 154.798 7.480, 148.858 11.040, 140.733 22.176 L 135.704 29.069 132.822 25.785 C 130.117 22.701, 129.976 22.111, 130.511 16.129 C 130.824 12.626, 131.175 9.307, 131.290 8.754 C 131.406 8.202, 130.980 7.558, 130.345 7.323 C 129.709 7.088, 128.681 8.382, 128.059 10.198 M 150.586 15.059 C 148.670 16.741, 144.864 21.137, 142.128 24.827 C 137.189 31.490, 137.162 31.566, 138.301 35.832 C 139.300 39.574, 139.193 40.603, 137.474 43.814 C 136.291 46.022, 133.996 48.235, 131.750 49.332 C 128.214 51.060, 128 51.431, 128 55.834 C 128 60.382, 128.123 60.569, 132.724 63.002 C 137.329 65.437, 150.472 76.862, 149.633 77.700 C 149.402 77.931, 146.127 78.557, 142.356 79.090 C 138.585 79.624, 133.813 80.514, 131.750 81.069 L 128 82.077 128 88.652 L 128 95.227 132.467 94.557 C 137.472 93.807, 137.301 93.555, 138.428 103.332 C 139.711 114.475, 144.595 118.656, 150.158 113.375 C 156.913 106.962, 161.323 93.921, 161.275 80.500 C 161.258 75.550, 161.288 66.325, 161.342 60 C 161.682 20.711, 161.418 16.561, 158.389 13.532 C 156.158 11.301, 154.495 11.626, 150.586 15.059 M 128.804 32.750 C 128.602 36.462, 128.498 39.622, 128.572 39.770 C 128.647 39.919, 129.916 38.214, 131.394 35.981 L 134.080 31.922 131.972 28.961 C 130.813 27.332, 129.708 26, 129.517 26 C 129.327 26, 129.006 29.038, 128.804 32.750 M 131.409 41.240 C 127.618 48.068, 127.642 48, 128.994 48 C 131.441 48, 136 42.194, 136 39.077 C 136 34.662, 134.728 35.261, 131.409 41.240 M 123.035 55.934 C 121.589 58.637, 121.745 60, 123.500 60 C 124.500 60, 125 59, 125 57 C 125 53.516, 124.480 53.234, 123.035 55.934 M 114.008 73.985 C 110.703 80.576, 108 86.212, 108 86.508 C 108 86.804, 109.013 86.407, 110.250 85.625 C 111.487 84.844, 115.313 83.198, 118.750 81.968 L 125 79.732 125 71.473 C 125 63.247, 124.464 62, 120.926 62 C 120.425 62, 117.312 67.393, 114.008 73.985 M 127.835 70.602 C 127.651 74.234, 127.725 77.566, 128 78.006 C 128.275 78.447, 132.008 78.110, 136.296 77.257 L 144.092 75.705 141.320 72.812 C 138.719 70.097, 130.020 64, 128.748 64 C 128.430 64, 128.020 66.971, 127.835 70.602 M 117.108 85.443 C 114.142 86.691, 110.317 88.857, 108.608 90.256 L 105.500 92.801 108.315 93.900 C 109.863 94.505, 114.251 95, 118.065 95 L 125 95 125 89 C 125 82.145, 124.974 82.133, 117.108 85.443 M 97.888 107.832 C 94.641 114.799, 91.650 121.096, 91.242 121.825 C 90.717 122.763, 87.434 123.232, 80 123.433 C 68.211 123.751, 60.717 125.684, 56.047 129.614 C 54.371 131.024, 53 133.061, 53 134.140 C 53 138.543, 65.718 140.327, 79.723 137.888 C 83.235 137.276, 86.313 136.980, 86.563 137.230 C 86.813 137.480, 85.664 140.670, 84.010 144.318 C 79.821 153.555, 78.253 163.260, 79.962 169.364 C 83.218 180.993, 95.039 182.392, 100.965 171.849 C 102.882 168.438, 103.496 165.656, 103.818 158.927 L 104.228 150.352 99.660 143.680 C 92.747 133.582, 92.237 125.916, 98.091 120.063 C 103.519 114.635, 111.880 113.798, 118.759 117.994 C 123.014 120.589, 125.462 124.755, 127.005 132.023 C 129.059 141.704, 126.237 149.829, 114.020 169.399 C 110.159 175.584, 107 181.400, 107 182.323 C 107 184.628, 111.149 184.507, 119.395 181.960 C 124.890 180.262, 126.008 179.548, 126.048 177.710 C 126.120 174.396, 129.157 168.931, 132.159 166.711 C 136.934 163.181, 142.247 164.901, 156.791 174.685 C 169.445 183.197, 169.501 183.223, 169.826 180.522 C 170.314 176.456, 162.601 153.414, 158.283 146.038 C 153.495 137.859, 140.010 124.260, 133.536 121.083 C 130.192 119.441, 128.487 119.040, 128.222 119.833 C 128.008 120.475, 127.196 121, 126.417 121 C 125.277 121, 125 118.755, 125 109.500 L 125 98 118.250 97.956 C 114.537 97.932, 109.766 97.294, 107.646 96.538 L 103.792 95.164 97.888 107.832" stroke="none" fill="black" fill-rule="evenodd"/>
</svg>