<svg xmlns="http://www.w3.org/2000/svg" width="200" height="200" viewBox="0 0 200 200" version="1.1">
	<path d="M 133.500 18.799 C 125.384 22.043, 123.542 22.401, 114.750 22.448 C 105.047 22.500, 102.737 23.546, 108.565 25.248 C 113.258 26.619, 123.406 25.303, 132.618 22.128 C 137.308 20.511, 141 19.318, 140.823 19.477 C 140.645 19.636, 136.225 23.417, 131 27.878 L 121.500 35.990 108.376 35.995 C 98.742 35.999, 94.088 36.432, 90.876 37.623 C 88.356 38.557, 83.107 39.299, 78.500 39.372 C 71.592 39.481, 69.713 39.112, 64.733 36.667 C 55.820 32.292, 53.889 26.303, 60.273 22.836 C 63.309 21.188, 77.069 21.455, 84.750 23.312 C 89.981 24.576, 91 24.599, 91 23.450 C 91 21.171, 83.144 19.617, 71.329 19.557 C 61.495 19.507, 59.820 19.751, 57.329 21.599 C 50.757 26.476, 54.592 35.427, 65.211 39.995 C 71.511 42.705, 82.779 42.962, 90.500 40.570 C 93.752 39.563, 99.345 39.027, 106.500 39.038 L 117.500 39.054 113.830 42.467 C 107.518 48.338, 95.077 50.354, 71.026 49.403 C 54.236 48.740, 48.609 49.372, 44.492 52.382 C 41.350 54.680, 43.503 58.937, 49.429 62.147 C 56.074 65.746, 64.700 67.500, 75.750 67.500 C 80.838 67.500, 85 67.638, 85 67.806 C 85 67.975, 82.922 69.032, 80.382 70.155 L 75.765 72.198 76.218 76.917 C 76.467 79.513, 77.607 82.956, 78.751 84.568 C 82.256 89.508, 82.441 91.665, 79.524 93.576 C 76.216 95.744, 68.616 95.849, 46.141 94.037 C 31.126 92.826, 28.222 92.830, 24.641 94.069 C 21.059 95.307, 20.458 95.938, 20.187 98.748 C 19.714 103.647, 24.948 110.456, 30.350 111.972 C 38.562 114.276, 58.341 114.351, 80.500 112.163 C 114.899 108.765, 115.706 108.716, 116.472 109.954 C 117.377 111.419, 114.883 115.177, 108.580 121.847 C 99.711 131.232, 95.226 132.219, 89.287 126.094 C 84.716 121.380, 77.588 118.998, 68.068 119.004 C 49.673 119.014, 47.393 132.389, 59.675 168.250 C 64.073 181.092, 64.553 182.001, 66.942 182.013 C 68.349 182.021, 77.600 182.693, 87.500 183.507 C 121.011 186.262, 135.466 185.228, 144.241 179.448 C 148.071 176.925, 152.253 171.364, 153.511 167.121 C 154.176 164.880, 154.021 164.775, 150.858 165.317 C 139.392 167.283, 116.210 168.233, 104.954 167.198 C 98.359 166.592, 92.458 165.783, 91.839 165.401 C 90.281 164.438, 94.195 162.522, 101.686 160.581 C 107.307 159.125, 108.624 159.127, 117.408 160.611 C 133.451 163.322, 144.106 160.465, 144.810 153.264 C 145.239 148.874, 143.644 146.385, 138.717 143.758 C 135.250 141.910, 132.988 141.523, 126 141.583 C 116.771 141.662, 110.812 143.508, 101.660 149.123 L 96.819 152.093 92.408 148.478 C 87.177 144.191, 85.209 141.107, 86.999 140 C 89.122 138.689, 100.706 137.929, 108.726 138.576 C 118.147 139.336, 136.792 137.667, 143.093 135.499 C 148.376 133.681, 153.543 128.792, 154.566 124.642 C 155.239 121.915, 155.167 121.840, 152.992 123.004 C 151.659 123.718, 148.527 124.043, 145.444 123.787 C 139.786 123.318, 131.940 119.260, 125.150 113.292 C 120.809 109.476, 121.995 109.155, 131.356 111.614 C 142.829 114.627, 160.869 113.510, 169.500 109.252 C 173.988 107.037, 178 102.901, 178 100.487 C 178 91.965, 155.113 88.478, 136.282 94.130 C 133.961 94.827, 131.780 95.114, 131.435 94.768 C 131.089 94.422, 132.537 90.961, 134.653 87.077 C 138.129 80.695, 138.797 80.013, 141.576 80.007 C 147.620 79.994, 151.134 73.637, 157.430 51.325 C 163.288 30.564, 164.026 27.134, 162.799 26.376 C 161.043 25.290, 159.320 28.191, 151.734 45 C 147.639 54.075, 142.720 64.607, 140.803 68.404 L 137.318 75.309 131.076 69.570 C 123.086 62.224, 116.337 59.023, 108.815 59.010 C 105.688 59.004, 101.913 59.463, 100.426 60.028 C 98.939 60.593, 97.565 60.899, 97.373 60.707 C 97.181 60.514, 99.954 57.914, 103.535 54.929 C 107.754 51.411, 112.560 48.549, 117.188 46.799 C 126.203 43.391, 127.978 41.796, 126.104 38.795 C 124.913 36.888, 124.982 36.432, 126.670 35.061 C 150.560 15.660, 152.417 11.239, 133.500 18.799 M 119.322 41.473 L 116.500 43.975 119.752 42.889 C 123.313 41.700, 124.554 40.460, 123.089 39.555 C 122.570 39.234, 120.875 40.097, 119.322 41.473 M 153.271 48.254 C 151.032 53.339, 147.152 61.874, 144.647 67.220 C 142.143 72.566, 140.482 77.180, 140.956 77.473 C 144.366 79.580, 148.621 71.705, 153.884 53.548 C 156.108 45.874, 157.796 39.463, 157.635 39.301 C 157.473 39.140, 155.510 43.169, 153.271 48.254 M 99.500 51.189 C 97.300 51.717, 85.846 52.111, 74.046 52.064 C 51.586 51.976, 45.619 52.783, 46.206 55.832 C 46.685 58.320, 54.015 61.899, 62.188 63.636 C 71.278 65.568, 86.783 65.060, 90.210 62.718 C 92.811 60.940, 104.765 50.055, 104 50.161 C 103.725 50.199, 101.700 50.662, 99.500 51.189 M 105.500 61.658 C 99.133 63.151, 90.256 66.464, 88.725 67.919 C 87.041 69.519, 87.374 69.899, 95.225 75.340 C 99.776 78.494, 105.975 82.835, 109 84.987 C 115.208 89.403, 124.095 94, 126.426 94 C 127.365 94, 129.584 90.806, 132.047 85.906 L 136.117 77.812 130.308 72.472 C 121.135 64.039, 112.116 60.107, 105.500 61.658 M 83 72.250 C 83 73.210, 117.209 106.535, 118.482 106.815 C 119.305 106.996, 121.185 105.090, 122.897 102.339 L 125.880 97.548 119.500 94.393 C 115.991 92.658, 110.168 89.160, 106.560 86.619 C 89.840 74.846, 87.357 73.208, 85.250 72.558 C 84.013 72.177, 83 72.039, 83 72.250 M 78.623 76.750 C 78.986 78.263, 80.345 81.340, 81.642 83.588 C 84.587 88.693, 84.680 93.074, 81.897 95.595 C 79.600 97.675, 72.620 97.895, 39.313 96.937 C 28.437 96.624, 23.785 96.836, 22.929 97.684 C 21.046 99.547, 26.144 107.478, 30.231 109.044 C 36.236 111.345, 60.675 111.366, 82.537 109.088 C 93.557 107.939, 105.032 106.996, 108.037 106.992 L 113.500 106.984 96.940 90.492 C 87.831 81.421, 79.835 74, 79.171 74 C 78.359 74, 78.179 74.902, 78.623 76.750 M 140 96 C 136.975 97.027, 133.150 97.901, 131.500 97.942 C 129.041 98.003, 128.092 98.768, 126.234 102.189 C 123.587 107.064, 123.724 107.219, 132.384 109.142 C 140.923 111.038, 156.168 110.820, 163.183 108.700 C 169.472 106.800, 175 102.767, 175 100.080 C 175 94.687, 151.823 91.985, 140 96 M 116.519 116.973 C 112.636 122.576, 104.610 129.847, 100.337 131.633 C 95.616 133.605, 92.535 132.748, 87.427 128.039 C 84.130 125.001, 81.800 123.887, 75.954 122.558 C 67.392 120.610, 62.060 121.184, 58.248 124.463 C 55.993 126.403, 55.549 127.712, 55.180 133.514 C 54.661 141.657, 55.784 147.161, 61.649 165.244 C 65.410 176.840, 66.450 179.054, 68.303 179.405 C 75.448 180.757, 120.350 182.727, 126.785 181.971 C 136.036 180.883, 143.884 177.330, 147.496 172.594 C 149.027 170.587, 150.104 168.786, 149.889 168.592 C 149.675 168.397, 146.350 168.673, 142.500 169.205 C 138.650 169.736, 126.050 169.995, 114.500 169.779 C 91.831 169.355, 87.637 168.526, 88.204 164.578 C 88.554 162.141, 91.730 160.488, 101.228 157.800 C 107.070 156.147, 108.951 156.002, 112.604 156.922 C 124.913 160.021, 137.727 159.169, 141.500 155 C 145.779 150.272, 137.540 144.064, 126.932 144.022 C 119.501 143.993, 111.940 146.310, 103.738 151.130 C 99.861 153.408, 96.448 154.792, 95.738 154.372 C 92.035 152.186, 85.687 146.295, 84.444 143.891 C 82.702 140.523, 83.470 138.152, 86.701 136.923 C 88.037 136.416, 97.168 136, 106.993 136 C 127.680 136, 138.695 134.731, 144.929 131.630 C 150.324 128.946, 151.305 127, 147.261 127 C 142.185 127, 135.131 123.943, 127.390 118.389 C 123.259 115.425, 119.742 113, 119.575 113 C 119.408 113, 118.033 114.788, 116.519 116.973" stroke="none" fill="black" fill-rule="evenodd"/>
</svg>