<svg xmlns="http://www.w3.org/2000/svg" width="200" height="200" viewBox="0 0 200 200" version="1.1">
	<path d="M 127.971 9.442 C 126.030 10.157, 122.205 11.885, 119.471 13.282 C 105.447 20.448, 98.325 33.177, 104.514 40.016 C 105.662 41.284, 105.857 43.079, 105.360 47.829 L 104.716 53.995 99.728 42.748 C 96.985 36.561, 93.868 30.263, 92.802 28.750 C 89.443 23.984, 86.431 25.906, 87.657 32.035 L 88.260 35.048 82.380 34.274 C 60.054 31.335, 38 36.450, 38 44.566 C 38 50.045, 46.078 52.221, 66.232 52.170 C 74.335 52.149, 81.200 52.515, 81.488 52.981 C 82.810 55.120, 72.559 57.349, 46.588 60.571 C 39.487 61.452, 32.624 62.573, 31.338 63.062 C 28.178 64.263, 28.386 66.813, 31.750 68.110 C 35.771 69.661, 50.291 72.705, 59.500 73.928 C 65.884 74.776, 69.766 76.102, 78.720 80.495 C 84.891 83.523, 91.269 86, 92.893 86 C 97.955 86, 101.687 81.820, 104.352 73.165 L 106.712 65.500 107.968 69.596 L 109.224 73.691 98.955 88.596 C 93.306 96.793, 88.603 103.616, 88.502 103.757 C 88.402 103.898, 86.960 103.742, 85.298 103.410 C 82.670 102.884, 81.841 101.815, 78.938 95.209 C 73.766 83.441, 68.788 78.946, 64.169 81.875 C 63.437 82.339, 59.837 86.454, 56.169 91.020 C 47.712 101.547, 41.918 105.090, 33.089 105.133 C 29.751 105.149, 25.410 104.630, 23.443 103.981 C 21.476 103.332, 19.670 102.996, 19.431 103.235 C 19.192 103.475, 19.634 105.790, 20.414 108.380 C 25.036 123.739, 37.923 127.960, 63.967 122.645 C 70.824 121.246, 76.599 120.266, 76.800 120.466 C 77.001 120.667, 74.443 124.880, 71.116 129.827 C 66.345 136.923, 64.343 139.062, 61.639 139.954 C 58.902 140.858, 57.784 142.074, 56.104 145.980 C 51.288 157.175, 54.020 158.763, 61.302 149 C 67.099 141.227, 67.772 140.787, 71.997 141.999 C 79.057 144.024, 82.076 149.309, 85.599 165.812 C 88.414 178.999, 90.531 184.679, 93.156 186.084 C 96.093 187.655, 101.106 184.826, 106.800 178.385 C 111.869 172.651, 111.986 172.584, 111.371 175.777 C 110.448 180.563, 112.998 183.003, 118.905 182.988 C 124.564 182.974, 131.568 181.155, 144.214 176.416 L 153.929 172.776 157.714 175.762 C 163.147 180.047, 169.048 183, 172.178 183 C 183.085 183, 177.845 157.312, 162.853 137.290 L 159.701 133.081 162.209 129.790 C 167.794 122.461, 172.220 111.207, 173.924 100 C 174.468 96.425, 174.999 76.275, 175.105 55.223 L 175.297 16.945 172.974 14.473 C 168.999 10.241, 162.195 11.797, 154.955 18.593 L 152.410 20.982 151.205 16.476 C 149.573 10.374, 145.673 7.983, 137.500 8.074 C 134.200 8.111, 129.912 8.726, 127.971 9.442 M 131.500 11.402 C 128.750 12.080, 125.150 13.373, 123.500 14.277 L 120.500 15.920 123.115 15.960 C 124.553 15.982, 126.885 16.908, 128.296 18.018 C 130.842 20.021, 137 31.087, 137 33.660 C 137 36.185, 138.807 34.995, 143.901 29.114 C 147.730 24.694, 149 22.436, 149 20.048 C 149 15.578, 147.379 13.056, 143.452 11.415 C 139.482 9.757, 138.184 9.755, 131.500 11.402 M 158.159 19.462 C 153.123 23.169, 151.912 24.650, 151.002 28.212 C 149.257 35.043, 147.860 38, 146.379 38 C 144.668 38, 144.666 38.043, 146.559 33.514 C 147.416 31.462, 147.938 29.605, 147.720 29.386 C 147.501 29.168, 145.409 31.258, 143.071 34.031 L 138.820 39.072 141.616 50.536 C 143.154 56.841, 144.718 62, 145.092 62 C 145.467 62, 146.085 59.917, 146.467 57.372 C 147.363 51.395, 147.981 49.870, 149.201 50.624 C 151.261 51.898, 147.458 67, 145.077 67 C 143.347 67, 141.348 61.949, 139.041 51.750 C 137.828 46.388, 136.696 42, 136.525 42 C 136.354 42, 132.791 46.466, 128.607 51.924 L 121 61.849 121 70.981 C 121 76.005, 120.514 82.046, 119.919 84.407 C 118.903 88.444, 119.122 89.368, 123.594 99.906 L 128.349 111.112 131.208 108.253 C 132.781 106.681, 136.438 102.043, 139.334 97.947 C 142.546 93.405, 145.414 90.381, 146.685 90.196 C 150.963 89.571, 154.614 97.622, 158.614 116.500 C 159.546 120.900, 160.675 124.914, 161.123 125.419 C 162.421 126.882, 168.728 112.279, 170.591 103.500 C 172.023 96.752, 172.285 89.438, 172.269 56.753 C 172.255 27.286, 171.952 17.647, 171.003 16.503 C 168.762 13.803, 164.518 14.780, 158.159 19.462 M 118.200 19.679 C 116.386 20.569, 113.408 23.042, 111.583 25.174 L 108.266 29.050 112.644 37.775 C 115.052 42.574, 117.608 48.884, 118.324 51.798 C 119.039 54.712, 119.880 57.187, 120.192 57.298 C 120.504 57.409, 124.138 53.178, 128.267 47.896 L 135.774 38.293 134.046 33.396 C 129.448 20.368, 124.872 16.406, 118.200 19.679 M 90.693 34.085 L 91.227 38.669 83.363 37.263 C 68.374 34.582, 47.595 37.002, 42.165 42.061 C 36.912 46.954, 44.934 49.451, 66 49.479 C 74.525 49.491, 82.063 49.864, 82.750 50.309 C 85.005 51.769, 84.095 54.972, 80.866 56.935 C 77.259 59.129, 71.432 60.250, 49.487 62.970 C 40.829 64.044, 33.532 65.135, 33.271 65.395 C 32.350 66.317, 49.540 69.895, 62.810 71.544 C 66.191 71.964, 72.116 74.165, 79.119 77.602 C 85.168 80.571, 91.401 83, 92.970 83 C 97.329 83, 100.550 78.412, 102.573 69.316 C 104.191 62.043, 104.191 61.343, 102.563 56.560 C 101.615 53.777, 98.437 46.550, 95.500 40.500 C 90.526 30.254, 90.197 29.814, 90.693 34.085 M 105 33.306 C 105 34.639, 105.821 36.803, 106.824 38.115 C 108.443 40.231, 108.562 41.629, 107.879 50.500 C 107.176 59.644, 107.301 60.922, 109.338 65.427 L 111.566 70.355 114.668 66.137 C 117.507 62.276, 117.692 61.563, 116.852 57.710 C 115.362 50.872, 112.912 43.880, 109.883 37.823 C 106.621 31.298, 105 29.799, 105 33.306 M 115.230 69.903 C 114.003 71.562, 113 73.260, 113 73.676 C 113 75.340, 116.322 83, 117.043 83 C 118.016 83, 118.775 72.284, 118.022 69.194 C 117.464 66.906, 117.442 66.911, 115.230 69.903 M 101.082 90.154 C 96.051 97.482, 92.426 103.642, 93.027 103.842 C 94.865 104.455, 103.301 101.972, 106.871 99.768 C 108.725 98.623, 111.513 95.684, 113.065 93.237 L 115.887 88.787 113.872 83.643 C 112.764 80.815, 111.491 78.124, 111.043 77.665 C 110.596 77.205, 106.113 82.825, 101.082 90.154 M 58.876 92.081 C 49.022 104.819, 41.972 108.624, 29.833 107.756 C 23.185 107.280, 22.971 107.336, 23.590 109.382 C 24.787 113.330, 29.250 118.210, 33.384 120.087 C 39.339 122.791, 49.879 122.557, 66.252 119.357 L 80.004 116.669 83.002 111.997 C 86.628 106.347, 86.660 106, 83.559 106 C 80.717 106, 80.400 105.584, 76.792 97.115 C 73.013 88.242, 69.956 84.015, 67.314 84.007 C 65.758 84.002, 63.326 86.329, 58.876 92.081 M 115.497 94.644 C 111.028 101.465, 104.306 105.332, 95 106.435 C 90.114 107.015, 89.241 107.484, 87.178 110.639 C 85.902 112.592, 85.067 114.400, 85.324 114.657 C 85.581 114.914, 89.442 114.624, 93.905 114.013 C 102.104 112.890, 110.664 113.680, 114.905 115.949 C 116.209 116.647, 117.850 116.616, 120.151 115.851 C 126.360 113.786, 126.400 113.418, 121.628 102.190 L 117.271 91.937 115.497 94.644 M 144.808 94.750 C 143.983 95.713, 141.801 98.732, 139.960 101.461 C 138.120 104.189, 135.103 108.094, 133.257 110.137 L 129.901 113.852 133.483 120.965 C 136.878 127.707, 139 129.236, 139 124.941 C 139 121.266, 146.572 123.178, 154.367 128.820 L 159.234 132.342 158.541 128.921 C 156.362 118.162, 152.485 102.802, 150.800 98.250 C 148.754 92.722, 147.284 91.864, 144.808 94.750 M 89.164 117.451 C 85.130 118.214, 81.708 118.987, 81.562 119.169 C 80.177 120.886, 69 138.052, 69 138.462 C 69 138.758, 70.058 139, 71.352 139 C 75.388 139, 80.328 143.154, 83.243 149 C 84.751 152.025, 87.164 159.900, 88.606 166.500 C 91.509 179.790, 93.222 184, 95.727 184 C 98.069 184, 107.489 173.973, 113.805 164.755 L 119.111 157.013 112.264 150.256 C 97.861 136.045, 97.160 123.992, 110.534 120.506 L 115.500 119.212 112.500 117.993 C 107.956 116.145, 97.366 115.899, 89.164 117.451 M 121.726 117.968 L 116.951 119.669 121.032 120.891 C 129.122 123.315, 135 132.166, 135 141.924 C 135 145.596, 134.247 147.007, 128.929 153.308 C 112.550 172.712, 109.930 182.286, 121.500 180.457 C 125.239 179.865, 139.617 175.288, 150.101 171.351 L 154.703 169.623 159.101 173.187 C 172.298 183.880, 177.765 181.876, 174.535 167.530 C 170.390 149.122, 155.183 128.587, 144.047 126.359 C 141.462 125.842, 141 126.054, 141 127.753 C 141 128.854, 140.342 130.301, 139.537 130.969 C 137.621 132.560, 134.463 129.246, 130.578 121.567 C 129.029 118.505, 127.478 116.060, 127.131 116.134 C 126.784 116.207, 124.352 117.033, 121.726 117.968 M 106.750 124.976 C 102.785 128.104, 102.920 134.027, 107.101 140.338 C 109.824 144.449, 121.653 156.064, 123 155.948 C 123.275 155.925, 125.508 153.397, 127.962 150.331 C 131.857 145.466, 132.400 144.200, 132.234 140.381 C 131.990 134.783, 128.932 128.800, 124.815 125.868 C 120.066 122.486, 110.505 122.014, 106.750 124.976 M 59.153 145.564 C 58.486 147.028, 58.415 147.862, 58.987 147.508 C 60.455 146.601, 62.219 143, 61.196 143 C 60.715 143, 59.795 144.154, 59.153 145.564" stroke="none" fill="black" fill-rule="evenodd"/>
</svg>