<svg xmlns="http://www.w3.org/2000/svg" width="200" height="200" viewBox="0 0 200 200" version="1.1">
	<path d="M 119.384 14.456 C 115.598 16.356, 108.700 21.194, 104.055 25.206 L 95.609 32.500 91.125 27.704 C 88.082 24.450, 85.975 23.003, 84.570 23.204 C 81.603 23.628, 81.553 26.515, 84.360 35.355 C 86.496 42.082, 86.598 43.012, 85.156 42.587 C 72.565 38.874, 43.946 35.888, 40.194 37.896 C 33.760 41.340, 43.104 49.314, 60.938 55.599 C 66.941 57.714, 67.178 57.909, 64.438 58.479 C 50.157 61.455, 43.207 64.450, 39.742 69.125 C 38.174 71.241, 38.013 72.156, 38.915 73.841 C 41.529 78.725, 53.090 78.926, 70.977 74.399 C 76.189 73.079, 80.512 72, 80.582 72 C 80.652 72, 80.966 75.056, 81.279 78.790 C 82.203 89.810, 85.495 96, 90.431 96 C 95.836 96, 105.054 81.020, 108.852 66.064 L 110.734 58.651 113.957 63.075 C 119.716 70.983, 120.304 72.732, 119.580 79.800 C 118.083 94.404, 110.618 101, 95.584 101 C 83.007 101, 66.199 94.360, 57.452 85.935 C 53.556 82.183, 52 82.212, 52 86.040 C 52 92.255, 47.509 97.933, 32.116 111.177 C 28.962 113.891, 27.928 115.463, 28.171 117.177 C 28.651 120.561, 33.949 121.922, 49.369 122.625 C 61.740 123.189, 62.944 123.072, 70.176 120.612 C 76.586 118.431, 79.639 118, 88.676 117.997 C 94.629 117.996, 104.285 118.494, 110.133 119.105 C 120.238 120.161, 126.404 119.701, 132.252 117.457 C 133.829 116.852, 134 117.592, 134 125 C 134 131.809, 133.749 133.118, 132.533 132.651 C 128.505 131.106, 106.036 126.939, 98.768 126.390 C 88.688 125.628, 83.432 126.896, 79.452 131.048 C 76.717 133.902, 76.476 134.768, 76.176 142.814 C 75.858 151.318, 78.318 166.023, 82.484 180.533 L 83.930 185.566 98.215 186.880 C 119.886 188.875, 146.296 189.431, 155 188.077 C 169.326 185.848, 176.987 180.297, 176.996 172.139 C 177 168.794, 176.981 168.781, 173.250 169.491 C 154.322 173.090, 126.769 172.725, 117.018 168.747 L 114.500 167.719 117 166.959 C 118.375 166.541, 125.226 166.155, 132.224 166.100 C 143.895 166.008, 145.574 165.751, 152.512 162.995 C 163.610 158.587, 172.006 154.148, 172.708 152.318 C 174.135 148.600, 170.629 148, 147.456 148 C 123.647 148, 111.212 147.209, 114.543 145.906 C 115.619 145.485, 119.909 145.109, 124.076 145.070 C 143.090 144.894, 167.196 140.942, 171.164 137.352 C 175.385 133.532, 172.006 129.502, 161.696 126.057 L 155.500 123.986 148.750 112.852 C 145.037 106.728, 142.005 100.993, 142.012 100.109 C 142.019 99.224, 143.177 100.525, 144.586 103 C 148.204 109.353, 150.661 111.705, 155.684 113.623 C 170.385 119.238, 180.552 100.769, 177.089 74.742 C 176.095 67.274, 176.164 65.245, 177.574 60.392 C 179.890 52.427, 179.147 36.620, 176.087 28.742 C 173.548 22.206, 168.640 16.450, 164.781 15.481 C 161.025 14.538, 155.674 17.419, 152.396 22.150 L 149.622 26.153 147.696 22.327 C 141.718 10.453, 132.477 7.884, 119.384 14.456 M 127.438 13.938 C 125.754 14.341, 122.075 15.923, 119.263 17.453 C 113.923 20.360, 101 30.593, 101 31.915 C 101 32.335, 102.126 33.192, 103.502 33.819 C 104.879 34.446, 106.902 36.431, 107.999 38.230 C 109.926 41.390, 109.993 41.416, 110.018 39 C 110.062 34.719, 113.688 28.161, 117.192 26.024 C 121.077 23.655, 126.956 23.409, 130.901 25.449 C 134.977 27.556, 139.489 33.094, 141.569 38.542 L 143.384 43.294 145.675 36.503 L 147.966 29.711 145.929 25.106 C 143.277 19.107, 139.479 15.228, 135.057 13.999 C 133.101 13.456, 131.275 13.055, 131 13.108 C 130.725 13.161, 129.122 13.535, 127.438 13.938 M 158.238 19.546 C 157.024 20.396, 154.887 23.042, 153.491 25.426 C 151.041 29.606, 150.986 30.067, 151.939 38.450 C 152.596 44.238, 152.588 49.838, 151.914 55.216 C 150.403 67.264, 147.132 72.240, 143.114 68.604 C 141.381 67.035, 141.251 67.489, 140.083 79.232 C 139.412 85.980, 138.667 92.485, 138.428 93.689 C 138.189 94.893, 138.444 96.157, 138.996 96.498 C 139.629 96.889, 140 94.665, 140 90.476 C 140 85.610, 140.334 83.943, 141.250 84.244 C 141.938 84.470, 142.634 85.970, 142.798 87.577 C 144.288 102.204, 153.295 113.293, 162.312 111.601 C 166.567 110.803, 171.391 105.707, 173.033 100.277 C 174.854 94.253, 175.346 81.793, 174.099 73.264 C 173.114 66.530, 173.182 64.757, 174.568 60.949 C 176.999 54.271, 176.767 40.178, 174.088 31.793 C 170.497 20.550, 163.986 15.519, 158.238 19.546 M 85 27.235 C 85 28.120, 86.350 32.813, 88 37.664 C 89.650 42.515, 91 46.524, 91 46.573 C 91 46.621, 84.813 45.368, 77.250 43.788 C 62.116 40.626, 41 38.912, 41 40.845 C 41 45.947, 71.325 58, 84.160 58 C 87.602 58, 89 58.397, 89 59.376 C 89 60.461, 85.872 60.854, 74.250 61.233 C 61.587 61.645, 58.522 62.078, 52.588 64.291 C 44.891 67.162, 39.844 71.244, 41.699 73.099 C 44.761 76.161, 59.621 75.030, 74.974 70.566 L 82.718 68.315 83.876 77.741 C 85.700 92.582, 88.641 96.039, 94.520 90.250 C 98.520 86.311, 104.535 72.863, 106.570 63.314 C 108.590 53.829, 109.251 55.578, 97.942 40.500 C 90.037 29.962, 85 24.799, 85 27.235 M 120.270 27.483 C 110.789 31.604, 110.487 47.409, 119.587 63.322 C 120.901 65.620, 121.981 68.120, 121.988 68.877 C 121.995 69.634, 125.037 74.996, 128.750 80.791 L 135.500 91.329 136.304 85.414 C 136.746 82.161, 138.054 73.425, 139.209 66 C 140.365 58.575, 141.272 51.022, 141.224 49.215 C 140.992 40.429, 134.888 30.105, 128.298 27.351 C 124.393 25.719, 124.323 25.720, 120.270 27.483 M 98.167 35.765 C 98.350 36.186, 100.525 39.374, 103 42.851 C 105.893 46.914, 107.616 48.602, 107.825 47.577 C 108.392 44.798, 105.949 39.105, 103.293 37.016 C 100.788 35.045, 97.504 34.244, 98.167 35.765 M 146.661 42.500 C 144.464 51.289, 144.593 69.091, 146.826 65.174 C 148.914 61.512, 150.480 46.310, 149.367 40.500 L 148.410 35.500 146.661 42.500 M 111 53.441 C 111 54.234, 111.408 55.134, 111.907 55.442 C 112.405 55.751, 112.578 55.102, 112.290 54.001 C 111.679 51.666, 111 51.371, 111 53.441 M 122 80.575 C 122 90.158, 114.903 100.248, 106.384 102.778 C 93.832 106.505, 74.069 101.703, 59.815 91.463 L 54.960 87.975 53.980 90.552 C 53.441 91.970, 53 93.502, 53 93.957 C 53 95.501, 43.920 104.891, 37.446 110.043 C 33.901 112.864, 31 115.788, 31 116.541 C 31 118.649, 37.186 119.502, 52 119.436 C 63.046 119.387, 66.863 118.963, 73 117.106 C 79.989 114.990, 81.522 114.888, 95.500 115.609 C 122.390 116.995, 128.466 116.791, 131.678 114.396 C 134.321 112.425, 134.518 111.772, 134.792 104.070 L 135.083 95.849 129.456 86.931 C 126.361 82.026, 123.417 77.758, 122.914 77.447 C 122.412 77.136, 122 78.544, 122 80.575 M 138.079 102.583 C 138.127 103.748, 138.364 103.985, 138.683 103.188 C 138.972 102.466, 138.936 101.603, 138.604 101.271 C 138.272 100.939, 138.036 101.529, 138.079 102.583 M 139.077 109.848 C 137.397 113.141, 136.997 115.793, 136.985 123.710 C 136.976 129.095, 136.615 134.059, 136.181 134.741 C 135.571 135.702, 132.354 135.307, 121.946 132.993 C 107.602 129.804, 93.501 128.308, 87.824 129.373 C 79.977 130.845, 77.204 137.429, 78.939 150.469 C 79.959 158.129, 85.240 181.573, 86.151 182.485 C 86.377 182.711, 94.860 183.642, 105.002 184.555 C 130.623 186.860, 156.188 186.233, 164.227 183.103 C 170.038 180.841, 174 177.148, 174 173.994 C 174 172.447, 173.485 172.369, 169.250 173.279 C 161.939 174.851, 129.612 174.751, 122.500 173.135 C 115.857 171.626, 111 169.456, 111 167.997 C 111 167.474, 112.150 166.292, 113.557 165.371 C 115.530 164.078, 119.690 163.536, 131.807 162.996 C 148.526 162.251, 151.740 161.406, 165.498 154.141 L 170.500 151.500 143.500 150.884 C 114.786 150.228, 108.214 149.347, 102.921 145.442 L 99.611 143 108.056 142.985 C 137.970 142.930, 170 138.300, 170 134.031 C 170 132.462, 166.052 130.250, 159.838 128.336 C 153.946 126.522, 153.812 126.397, 148.766 118 C 140.601 104.410, 141.476 105.147, 139.077 109.848" stroke="none" fill="black" fill-rule="evenodd"/>
</svg>