<svg xmlns="http://www.w3.org/2000/svg" width="200" height="200" viewBox="0 0 200 200" version="1.1">
	<path d="M 126.944 14.105 C 126.313 15.284, 126.097 17.703, 126.453 19.602 C 126.803 21.467, 126.605 25.807, 126.012 29.246 C 124.130 40.173, 120.860 54, 120.159 54 C 119.786 54, 118.651 50.288, 117.636 45.750 C 113.183 25.842, 109.088 17.193, 105.258 19.609 C 104.365 20.173, 103.151 22.067, 102.561 23.818 L 101.489 27.002 80.495 27.382 C 65.477 27.654, 57.706 28.223, 53.200 29.381 C 44.795 31.541, 41 33.601, 41 36.003 C 41 40.230, 49.282 42.767, 72 45.498 C 79.425 46.390, 87.075 47.466, 89 47.888 L 92.500 48.656 89.500 49.322 C 87.850 49.688, 77.255 51.337, 65.955 52.987 C 46.131 55.881, 37.160 57.855, 34 60.020 C 32.736 60.886, 32.972 61.438, 35.500 63.531 C 37.150 64.897, 40.975 66.987, 44 68.175 C 51.219 71.010, 64.025 70.989, 81 68.116 C 95.780 65.614, 99.871 65.501, 104.568 67.464 C 108.278 69.014, 111 73.671, 111 78.468 C 111 82.710, 112.711 81.332, 116.171 74.304 L 119.467 67.609 121.143 76.658 C 124.058 92.401, 124.240 91.303, 118.500 92.642 C 115.750 93.283, 111.117 93.851, 108.205 93.904 C 102.407 94.009, 102.419 94.017, 94.322 84.307 C 89.790 78.871, 84.912 76, 80.209 76 C 77.342 76, 75.413 77.254, 60.646 88.719 C 55.646 92.601, 49.105 95, 43.518 95 C 39.235 95, 32.358 98.597, 28.670 102.766 C 25.930 105.863, 26.883 109.198, 31.096 111.259 C 41.971 116.577, 86.399 114.901, 104 108.507 C 106.475 107.608, 112.366 106.615, 117.092 106.299 L 125.683 105.724 126.342 113.513 C 127.924 132.228, 126.514 144.106, 121.547 153.907 C 116.579 163.711, 106.607 169.066, 96.215 167.511 C 89.600 166.521, 89.332 166.080, 93.953 163.793 C 104.934 158.360, 113.147 140.687, 110.045 129.166 C 108.606 123.822, 103.906 118.454, 99.351 116.951 C 97.168 116.230, 93.242 116.017, 89.151 116.397 C 85.493 116.737, 75.975 117.401, 68 117.873 C 52.103 118.814, 48 119.998, 48 123.648 C 48 126.585, 51.724 128.972, 67.250 135.986 C 73.713 138.906, 79 141.745, 79 142.295 C 79 142.941, 75.289 143.055, 68.510 142.616 C 55.995 141.807, 52.856 142.876, 50.972 148.585 C 47.396 159.420, 57.771 177.316, 71.565 184.106 C 77.343 186.951, 78.658 187.221, 84.461 186.755 C 89.093 186.383, 92.408 185.398, 96.165 183.275 L 101.407 180.313 102.954 183.407 C 105.972 189.444, 110.169 188.255, 125.690 176.963 C 140.445 166.229, 148.194 164.719, 155.519 171.150 C 157.430 172.829, 160.387 177.121, 162.090 180.688 L 165.185 187.174 167.725 184.837 C 173.658 179.376, 175.325 170.827, 172.388 160.932 C 166.965 142.664, 151.105 123.776, 132.476 113.399 C 130.899 112.520, 128.927 107, 130.191 107 C 130.369 107, 134.561 108.119, 139.507 109.488 C 144.453 110.856, 150.222 111.981, 152.327 111.988 C 163.216 112.023, 167.297 96.275, 167.351 54 C 167.383 29.552, 166.108 19.397, 162.481 15.189 L 160.163 12.500 157.424 14.539 C 154.046 17.054, 150.083 24.611, 145.779 36.748 C 142.611 45.684, 141 48.138, 141 44.028 C 141 39.327, 137.631 27, 136.346 27 C 134.699 27, 134.691 26.544, 136.475 34.236 C 140.387 51.105, 140.338 52.986, 135.518 70.495 C 132.163 82.681, 130.565 86.934, 128.807 88.358 L 126.500 90.228 123.880 76.402 L 121.260 62.576 124.519 49.538 C 127.986 35.671, 131.423 14.494, 130.460 12.936 C 129.515 11.406, 128.144 11.862, 126.944 14.105 M 157.769 17.750 C 152.130 24.154, 143.529 49.083, 142.675 61.500 C 141.939 72.208, 140.230 78.368, 136.222 84.769 C 133.101 89.752, 129.340 102.832, 130.701 103.969 C 132.367 105.361, 149.732 109.144, 153.009 108.829 C 159.633 108.193, 162.132 101.076, 164.012 77.500 C 165.804 55.016, 164.835 28.296, 161.900 19.250 C 160.698 15.548, 159.948 15.276, 157.769 17.750 M 105.709 22.662 C 105.419 23.131, 104.862 25.219, 104.471 27.301 L 103.761 31.087 99.131 30.324 C 92.505 29.232, 68.745 29.609, 60.500 30.937 C 52.026 32.301, 44 34.816, 44 36.105 C 44 38.355, 52.320 40.242, 74.500 43.023 C 91.317 45.131, 95.970 46.327, 96.757 48.744 C 97.414 50.760, 93.328 51.736, 68.782 55.429 C 41.480 59.536, 37.355 60.517, 39.011 62.513 C 43.256 67.629, 60.173 68.907, 79 65.536 C 99.435 61.876, 108.007 63.209, 111.819 70.638 L 113.666 74.240 115.984 68.043 L 118.301 61.847 116.039 51.173 C 112.091 32.544, 107.475 19.804, 105.709 22.662 M 138.079 71.583 C 138.127 72.748, 138.364 72.985, 138.683 72.188 C 138.972 71.466, 138.936 70.603, 138.604 70.271 C 138.272 69.939, 138.036 70.529, 138.079 71.583 M 71.942 83.250 C 60.394 92.622, 58.295 94.049, 53.212 95.985 C 50.304 97.093, 45.994 98, 43.634 98 C 38.052 98, 29.735 103.162, 30.197 106.339 C 30.745 110.109, 37.422 111.305, 58 111.323 C 78.572 111.341, 88.180 110.240, 101.500 106.339 C 107.504 104.581, 113.078 103.670, 118.244 103.602 L 125.989 103.500 125.416 100 C 124.442 94.038, 124.421 94.016, 120.802 95.092 C 118.986 95.633, 113.705 96.117, 109.066 96.170 C 101.315 96.257, 100.481 96.072, 98.761 93.882 C 85.791 77.378, 81.349 75.617, 71.942 83.250 M 128.250 91.720 C 126.819 92.231, 126.558 95.609, 127.886 96.429 C 128.373 96.730, 129.008 95.744, 129.297 94.238 C 129.901 91.098, 129.913 91.126, 128.250 91.720 M 132.589 118.371 C 132.878 119.125, 132.414 120.443, 131.558 121.300 C 130.540 122.318, 129.998 124.701, 129.994 128.179 C 129.967 153.379, 118.195 170.267, 100.676 170.241 C 91.100 170.226, 76 165.349, 76 162.270 C 76 161.260, 76.559 161.007, 77.750 161.478 C 84.912 164.310, 91.432 163.132, 97.331 157.940 C 104.662 151.486, 109.213 139.278, 107.563 130.485 C 106.707 125.923, 101.764 120.327, 97.826 119.462 C 94.186 118.662, 59.205 120.801, 53.720 122.158 C 51.430 122.725, 50.202 123.518, 50.606 124.171 C 50.972 124.764, 58.194 128.552, 66.654 132.589 C 75.114 136.626, 82.312 140.650, 82.651 141.532 C 83.892 144.767, 81.252 145.500, 68.368 145.500 C 57.011 145.500, 55.702 145.687, 54.335 147.500 C 52.196 150.339, 53.194 158.476, 56.476 164.953 C 66.173 184.090, 85.406 189.674, 99.792 177.530 C 101.603 176.002, 103.208 174.920, 103.358 175.126 C 103.509 175.332, 104.052 177.300, 104.566 179.500 C 105.892 185.178, 108.883 185.302, 116.564 179.997 C 119.829 177.743, 125.425 173.877, 129 171.406 C 144.290 160.839, 155.194 162.514, 163.175 176.656 C 164.834 179.595, 166.601 181.746, 167.103 181.437 C 169.779 179.782, 171.228 174.430, 170.762 167.914 C 169.707 153.171, 154.631 130.842, 138.579 120.248 C 133.219 116.711, 131.779 116.259, 132.589 118.371" stroke="none" fill="black" fill-rule="evenodd"/>
</svg>