<svg xmlns="http://www.w3.org/2000/svg" width="200" height="200" viewBox="0 0 200 200" version="1.1">
	<path d="M 141.196 15.790 C 139.687 17.406, 136.213 23.058, 133.476 28.351 C 130.739 33.645, 128.275 37.961, 128 37.943 C 127.725 37.925, 123.900 32.986, 119.500 26.968 C 115.100 20.949, 111.237 16.020, 110.917 16.013 C 109.476 15.981, 109.423 17.403, 110.648 23.248 C 112.407 31.639, 112.330 40.480, 110.417 49.792 C 106.655 68.106, 102.777 72.522, 91.194 71.680 C 87.726 71.428, 84.698 71.031, 84.465 70.798 C 83.654 69.987, 97.794 26.885, 99.484 25.017 C 100.708 23.665, 100.999 22.273, 100.517 20.079 C 99.501 15.451, 98.382 15.566, 97.018 20.437 C 96.074 23.806, 95.167 25.023, 93.143 25.630 C 91.689 26.067, 78.575 26.464, 64 26.512 C 49.425 26.561, 36.600 26.984, 35.500 27.452 C 28.363 30.491, 28.144 35.203, 34.814 42.195 L 39.628 47.242 49.564 45.681 C 64.203 43.382, 70.151 42.939, 73.503 43.898 L 76.500 44.756 70.991 47.341 C 62.944 51.117, 52.464 53, 39.494 53 C 28.557 53, 23.984 54.205, 29.585 55.611 C 33.861 56.684, 55.957 55.240, 62.446 53.463 C 71.932 50.866, 78 47.404, 78 44.590 C 78 43.283, 77.288 41.941, 76.418 41.607 C 73.548 40.506, 60.658 40.982, 51.014 42.546 C 40.538 44.245, 39.193 43.944, 35.257 39.012 C 31.665 34.510, 31.568 33.329, 34.628 31.324 C 37.140 29.679, 40.081 29.489, 64.574 29.391 C 79.512 29.331, 92.244 28.967, 92.867 28.582 C 93.490 28.197, 94 28.332, 94 28.883 C 94 30.398, 81.881 68.396, 81.141 69.202 C 80.787 69.588, 75.547 68.401, 69.498 66.565 C 55.341 62.267, 45.698 60.783, 34.500 61.181 C 20.998 61.660, 23.830 63.403, 39.238 64.097 C 46.624 64.430, 55.380 65.458, 59 66.417 C 67.317 68.621, 79.392 72.193, 79.863 72.588 C 80.509 73.130, 77.825 83, 77.031 83 C 76.608 83, 73.952 81.162, 71.131 78.915 C 66.752 75.428, 66 75.118, 66 76.794 C 66 79.187, 64.203 79.927, 48.500 84.006 C 28.622 89.170, 22 93.105, 22 99.753 C 22 102.495, 22.953 104.058, 27.067 108.065 L 32.133 113 39.317 112.994 C 43.314 112.991, 52.710 111.707, 60.500 110.100 C 74.003 107.315, 77.426 107.063, 73.742 109.125 C 70.350 111.023, 71.749 113.881, 78.066 117.964 C 81.403 120.121, 86.128 122.647, 88.566 123.578 C 93.191 125.345, 93.486 125.687, 92.169 127.761 C 91.530 128.768, 89.339 128.784, 81.311 127.842 C 65.988 126.044, 55.342 128.341, 51.616 134.247 C 49.809 137.112, 52.108 141.244, 57.021 143.964 C 60.914 146.119, 62.775 146.447, 71.245 146.472 C 76.604 146.487, 80.992 146.576, 80.995 146.668 C 80.998 146.761, 79.400 147.826, 77.445 149.034 C 75.490 150.242, 72.115 153.582, 69.945 156.456 C 66.586 160.905, 66.002 162.411, 66.016 166.591 C 66.049 176.306, 73.503 184.273, 86.156 188.116 C 92.068 189.912, 94.868 190.171, 103.840 189.757 C 119.080 189.053, 128.668 185.235, 134.544 177.531 C 138.507 172.335, 138.879 166.540, 135.678 159.849 C 132.225 152.632, 131.232 151.633, 126 150.116 C 120.589 148.546, 114.998 146.014, 115.007 145.136 C 115.010 144.786, 119.848 144.451, 125.757 144.391 C 134.244 144.304, 137.702 143.818, 142.227 142.077 C 148.002 139.855, 152 136.158, 152 133.039 C 152 128.594, 144.213 125.104, 132.092 124.117 C 125.568 123.585, 124.472 123.224, 124.159 121.500 C 123.959 120.400, 122.886 117.362, 121.775 114.750 L 119.754 110 110.877 110 C 105.995 110, 102 109.830, 102 109.622 C 102 109.414, 102.681 107.614, 103.513 105.622 C 104.918 102.261, 105.332 102.002, 109.263 102.022 C 117.541 102.065, 125.275 107.588, 128.136 115.500 C 129.785 120.060, 130.598 119.918, 131.395 114.929 C 132.168 110.097, 138.133 103.667, 147.500 97.570 C 164.962 86.202, 168.868 83.438, 172.830 79.645 C 178.295 74.414, 180 71.169, 180 66 C 180 61.520, 178.297 57.484, 175.238 54.716 C 173.338 52.996, 173.212 53.027, 171.506 55.632 C 167.697 61.444, 161.743 67, 159.322 67 C 154.819 67, 153.574 61.582, 152.009 35.179 C 151.468 26.053, 150.477 17.677, 149.761 16.179 C 147.935 12.357, 144.547 12.203, 141.196 15.790 M 141.178 20.250 C 139.574 22.587, 136.159 28.688, 133.591 33.808 L 128.922 43.115 130.094 49.074 C 133.501 66.388, 126.599 83.086, 113.700 88.741 C 110.754 90.033, 109.210 91.562, 107.888 94.500 L 106.087 98.500 111.077 99.247 C 117.638 100.228, 123.127 103.118, 126.727 107.485 L 129.647 111.028 131.039 108.426 C 132.939 104.877, 139.513 99.550, 152 91.441 C 168.643 80.632, 173.555 76.550, 176.005 71.490 C 178.337 66.672, 178.174 63.524, 175.369 59.188 L 173.873 56.876 171.005 60.835 C 164.803 69.396, 157.592 72.359, 154.488 67.623 C 151.728 63.409, 150.943 58.867, 149.543 39 C 148.788 28.275, 147.858 18.712, 147.478 17.750 C 146.353 14.904, 144.285 15.724, 141.178 20.250 M 114.562 31.013 C 115.372 38.933, 113.850 49.671, 110.336 60.831 C 108.078 68.004, 107.208 69.496, 104.074 71.570 C 99.711 74.457, 93.024 75.513, 87.353 74.211 L 83.205 73.259 81.616 78.843 C 80.743 81.915, 80.359 84.722, 80.764 85.081 C 84.097 88.039, 103.429 90.402, 106.562 88.235 C 107.146 87.831, 108.681 84.800, 109.973 81.500 C 111.265 78.200, 115.437 68.167, 119.243 59.205 C 127.594 39.544, 127.716 40.462, 114.761 25.500 C 114.270 24.932, 114.183 27.316, 114.562 31.013 M 125.199 51.674 C 124.621 53.228, 121.184 61.656, 117.560 70.402 C 113.937 79.149, 111.138 86.471, 111.341 86.674 C 111.544 86.877, 113.875 85.571, 116.521 83.771 C 119.668 81.631, 122.385 78.613, 124.379 75.044 C 127.030 70.297, 127.479 68.372, 127.835 60.217 C 128.268 50.326, 127.102 46.550, 125.199 51.674 M 65.915 81.698 C 64.493 82.387, 57.293 84.550, 49.915 86.503 C 35.399 90.347, 26.568 94.070, 24.994 97.011 C 23.576 99.661, 25.137 103.035, 29.591 106.946 L 33.375 110.268 43.437 109.678 C 48.972 109.353, 57.999 108.055, 63.497 106.793 L 73.495 104.500 74.221 98.677 C 74.620 95.474, 75.331 91.424, 75.800 89.677 C 76.594 86.726, 76.364 86.285, 72.577 83.472 C 68.913 80.751, 68.238 80.571, 65.915 81.698 M 78.547 89.738 C 78.180 90.693, 77.623 94.234, 77.308 97.605 L 76.736 103.735 85.118 102 C 89.728 101.046, 95.681 99.868, 98.348 99.382 C 102.517 98.623, 103.385 98.046, 104.549 95.250 L 105.903 92 99.041 92 C 94.986 92, 89.584 91.187, 85.839 90.013 C 82.353 88.920, 79.436 88.020, 79.357 88.013 C 79.278 88.006, 78.914 88.782, 78.547 89.738 M 87 104.199 C 81.775 105.296, 77.302 106.386, 77.060 106.621 C 76.817 106.855, 77.300 107.728, 78.131 108.560 C 79.855 110.284, 95.709 111.673, 97.711 110.275 C 98.377 109.810, 99.621 107.758, 100.475 105.715 L 102.027 102 99.263 102.103 C 97.744 102.159, 92.225 103.102, 87 104.199 M 76.036 113.463 C 78.504 115.928, 93.251 123.151, 94.079 122.300 C 94.974 121.381, 96.434 116, 95.788 116 C 95.552 116, 91.147 115.100, 86 114 C 74.817 111.610, 74.145 111.574, 76.036 113.463 M 104.750 112.735 C 102.138 112.941, 100 113.495, 100 113.966 C 100 114.437, 104.725 116.405, 110.500 118.339 C 121.931 122.167, 122.406 122.016, 119.315 115.534 C 117.483 111.692, 117.627 111.720, 104.750 112.735 M 97.806 120.527 C 96.208 124.034, 97.294 124.795, 106.669 126.733 C 113.484 128.142, 115.130 128.189, 117.884 127.048 C 119.659 126.313, 120.749 125.384, 120.306 124.984 C 119.333 124.105, 101.642 118, 100.068 118 C 99.457 118, 98.439 119.137, 97.806 120.527 M 123.813 126.683 C 124.534 126.972, 125.397 126.936, 125.729 126.604 C 126.061 126.272, 125.471 126.036, 124.417 126.079 C 123.252 126.127, 123.015 126.364, 123.813 126.683 M 95 128.299 C 95 129.213, 96.114 129.467, 98.750 129.156 C 101.807 128.795, 102.131 128.568, 100.500 127.927 C 97.398 126.707, 95 126.870, 95 128.299 M 133.178 128.591 C 133.423 129.990, 131.587 131.463, 125.505 134.746 C 112.428 141.805, 112.461 142.279, 126 141.780 C 137.983 141.338, 144.770 139.420, 147.942 135.579 C 150.747 132.182, 146.393 128.739, 137.678 127.459 C 133.343 126.823, 132.888 126.937, 133.178 128.591 M 61 131.103 C 53.397 133.421, 52.011 137.949, 57.862 141.357 C 61.703 143.594, 72.719 144.640, 81.234 143.576 L 86.641 142.901 88.447 137.877 C 89.612 134.638, 89.910 132.510, 89.285 131.885 C 87.864 130.464, 65.157 129.836, 61 131.103 M 104.652 131.390 C 93.003 132.582, 92.707 132.757, 90.569 139.713 L 89.889 141.925 95.176 140.355 C 99.592 139.044, 101.344 138.983, 105.819 139.984 C 110.791 141.097, 111.338 141.031, 113.426 139.069 C 114.664 137.907, 118.562 135.401, 122.088 133.500 L 128.500 130.045 122 130.163 C 118.425 130.228, 110.618 130.780, 104.652 131.390 M 93.655 143.627 L 88.811 145.116 93.141 147.308 C 95.523 148.514, 98.936 151.442, 100.727 153.816 C 106.562 161.552, 108.511 173.337, 104.193 174.771 C 101.950 175.515, 95.710 167.793, 90.596 157.945 C 87.898 152.750, 85.556 148.333, 85.391 148.129 C 84.495 147.021, 75.408 153.808, 71.981 158.143 C 67.685 163.578, 67.461 164.517, 69.072 170.321 C 72.408 182.333, 89.249 189.441, 108.569 186.991 C 129.858 184.292, 139.803 172.596, 132.390 158.975 C 129.963 154.515, 129.297 154.025, 122.867 151.957 C 118.333 150.500, 115.149 148.777, 113.613 146.952 C 111.248 144.142, 105.599 141.957, 101 142.075 C 99.625 142.110, 96.320 142.809, 93.655 143.627 M 89 148.606 C 89 150.309, 97.862 165.645, 100.708 168.868 C 103.889 172.469, 103.917 172.478, 103.958 169.928 C 104.025 165.802, 101.191 158.688, 97.882 154.673 C 95.046 151.232, 89 147.102, 89 148.606" stroke="none" fill="black" fill-rule="evenodd"/>
</svg>