<svg xmlns="http://www.w3.org/2000/svg" width="200" height="200" viewBox="0 0 200 200" version="1.1">
	<path d="M 140.450 14.914 C 138.054 17.219, 90.284 20.490, 75.118 19.388 C 67.318 18.822, 65.815 18.942, 66.206 20.103 C 66.595 21.255, 71.227 21.480, 92.589 21.388 C 106.840 21.327, 122.093 20.795, 126.484 20.206 C 130.876 19.617, 134.590 19.257, 134.738 19.405 C 134.887 19.553, 131.518 22.596, 127.253 26.166 L 119.498 32.657 95.499 33.967 C 66.831 35.532, 58.569 34.723, 53.722 29.876 C 51.473 27.627, 50.911 26.250, 51.144 23.554 C 51.480 19.650, 50.352 17.829, 48.961 20.029 C 47.449 22.420, 47.868 26.272, 50.026 29.810 C 54.236 36.716, 65.073 38.549, 92 36.912 C 116.791 35.405, 116.474 35.318, 108.816 41.500 L 102.622 46.500 69.893 47 C 51.892 47.275, 36.899 47.766, 36.575 48.090 C 35.686 48.981, 41.404 56.440, 44.867 58.905 C 52.445 64.301, 56.789 65.453, 69.655 65.477 C 81.392 65.499, 83.475 66.109, 78.403 68.037 C 75.567 69.115, 75.373 71.363, 77.511 78.409 C 79.458 84.827, 79.399 89.424, 77.347 91.128 C 74.937 93.129, 66.696 92.744, 57.590 90.205 C 38.910 84.997, 24 89.274, 24 99.840 C 24 104.412, 29.862 110.343, 36.036 112.020 C 41.385 113.472, 52.735 112.777, 58.705 110.632 C 64.253 108.638, 80.590 107.201, 107.157 106.370 L 128.814 105.693 133.907 109.432 C 136.708 111.488, 139 113.602, 139 114.131 C 139 115.860, 134.074 120.064, 129.744 122.030 C 124.038 124.620, 116.964 124.494, 106.862 121.624 C 94.394 118.082, 93.360 117.913, 90.608 118.959 C 87.581 120.110, 86.168 124.535, 86.956 130.395 L 87.500 134.441 94.817 135.665 C 107.890 137.852, 114 140.983, 114 145.496 C 114 150.716, 103.173 157.827, 91.725 160.126 C 83.533 161.771, 77.359 160.559, 73.310 156.510 C 70.064 153.264, 70 153.029, 69.990 144.350 C 69.974 129.938, 65.207 122.341, 55.492 121.246 C 50.861 120.724, 45.043 123.151, 41.298 127.166 C 35.577 133.299, 34.125 144.959, 37.990 153.727 C 42.012 162.853, 44.588 165.462, 56.810 172.792 C 76.343 184.505, 76.292 184.485, 86.500 184.493 C 94.782 184.499, 96.098 184.213, 103 180.903 C 107.125 178.925, 112.726 175.888, 115.446 174.153 C 121.425 170.341, 122.729 170.307, 140.552 173.496 C 163.253 177.558, 167.935 176.705, 164.286 169.171 C 162.642 165.776, 151.245 154.643, 142.231 147.625 L 136.932 143.500 140.216 142.658 C 152.652 139.471, 157 135.773, 157 128.383 C 157 120.576, 152.183 113.841, 147.801 115.523 C 146.987 115.835, 145.744 115.396, 145.039 114.546 C 144.002 113.298, 143.999 112.418, 145.019 109.954 L 146.281 106.907 153.391 107.499 C 157.301 107.825, 161.905 108.306, 163.621 108.567 C 166.123 108.948, 167.796 108.251, 172.048 105.056 C 174.966 102.864, 178.222 99.698, 179.283 98.022 C 181.075 95.192, 181.099 94.799, 179.614 92.534 C 177.600 89.459, 173.221 88.500, 161.204 88.500 L 151.909 88.500 152.546 86 C 153.484 82.317, 155.933 61.151, 155.969 56.410 C 155.986 54.160, 156.900 48.801, 158 44.500 C 161.938 29.104, 159.824 16, 153.402 16 C 153.164 16, 153.251 21.512, 153.597 28.250 C 154.468 45.209, 153.172 53.152, 147.697 64.407 C 141.231 77.699, 136.335 82.097, 133.956 76.750 C 133.406 75.513, 132.628 71.144, 132.228 67.043 L 131.500 59.586 127.500 58.705 C 122.924 57.696, 105.118 58.440, 97.088 59.975 C 94.112 60.544, 91.506 60.839, 91.297 60.631 C 91.089 60.422, 94.023 57.637, 97.817 54.442 C 103.517 49.641, 105.744 48.422, 110.641 47.423 C 113.900 46.758, 118.730 45.197, 121.374 43.954 C 126.219 41.677, 133.748 35.415, 132.792 34.458 C 132.508 34.175, 130.367 33.617, 128.033 33.219 L 123.791 32.494 131.868 25.733 C 136.311 22.014, 141.083 18.539, 142.473 18.010 C 143.863 17.482, 145 16.363, 145 15.525 C 145 13.859, 141.970 13.452, 140.450 14.914 M 156.233 30 L 156.263 38.500 157.273 33.241 C 157.964 29.649, 157.955 26.955, 157.244 24.741 C 156.355 21.969, 156.208 22.729, 156.233 30 M 114.075 40.585 C 109.239 44.632, 108.968 45.052, 111.575 44.446 C 115.941 43.431, 125.809 38.935, 127.108 37.370 C 128.041 36.245, 127.463 36.004, 123.872 36.022 C 120.163 36.040, 118.677 36.732, 114.075 40.585 M 68.750 49.749 C 53.487 49.905, 41 50.386, 41 50.820 C 41 52.513, 47.742 58.004, 52.282 60.010 C 58.013 62.541, 67.987 63.524, 78.095 62.553 C 85.462 61.845, 85.536 61.808, 92.500 55.447 C 96.350 51.931, 98.825 49.147, 98 49.260 C 97.175 49.374, 84.013 49.594, 68.750 49.749 M 97.500 62.659 C 87.320 64.128, 83 65.875, 83 68.523 C 83 70.208, 82.676 70.163, 94 70.038 C 106.953 69.895, 111.706 73.670, 112.725 84.909 C 113.062 88.615, 113.785 91.087, 114.628 91.411 C 116.781 92.237, 148.425 88.800, 149.173 87.658 C 149.778 86.735, 151.196 77.265, 152.566 65 L 153.068 60.500 149.436 67.500 C 147.439 71.350, 144.182 76.188, 142.199 78.250 C 135.566 85.149, 131.640 82.482, 129.784 69.815 C 129.194 65.792, 128.214 62.169, 127.606 61.765 C 125.819 60.579, 108.322 61.098, 97.500 62.659 M 91.937 72.884 C 89.592 73.447, 90.252 74.112, 99.687 80.682 L 110 87.864 109.985 84.682 C 109.946 76.270, 101.317 70.630, 91.937 72.884 M 80.598 78.659 C 83.582 88.574, 81.686 93.385, 74.125 95.083 C 70.506 95.896, 68.055 95.628, 59.941 93.533 C 41.049 88.654, 27.972 90.732, 27.190 98.736 C 26.756 103.179, 28.287 105.476, 33.299 107.903 C 38.618 110.478, 48.051 110.681, 56 108.393 C 65.524 105.651, 73.763 104.867, 100.334 104.174 L 126.167 103.500 120.373 99.250 C 116.698 96.554, 113.516 95, 111.673 95 C 109.286 95, 108.858 94.652, 109.276 93.054 C 110.014 90.231, 87.151 74, 82.437 74 L 79.196 74 80.598 78.659 M 151.477 92.250 C 150.645 94.513, 148.022 103.487, 148.011 104.111 C 148.005 104.448, 152.162 104.962, 157.250 105.255 L 166.500 105.788 171.267 102.296 C 176.222 98.667, 178.509 95.633, 177.510 94.016 C 175.743 91.158, 152.461 89.578, 151.477 92.250 M 128.533 93.386 L 118.565 94.500 124.970 99.250 C 131.119 103.810, 131.645 104, 138.094 104 L 144.812 104 146.406 99.322 C 147.283 96.749, 148 94.049, 148 93.322 C 148 91.743, 143.099 91.759, 128.533 93.386 M 136 107.477 C 136 107.739, 137.163 108.716, 138.585 109.648 C 140.786 111.090, 141.304 111.131, 142.070 109.921 C 143.590 107.519, 143.133 107, 139.500 107 C 137.575 107, 136 107.215, 136 107.477 M 136.727 120.473 C 128.460 128.083, 121.503 128.550, 100.674 122.896 C 91.971 120.534, 91.827 120.527, 90.424 122.441 C 87.129 126.933, 89.649 132.989, 94.821 133.012 C 101.765 133.043, 112.786 137.429, 115.439 141.217 C 117.882 144.704, 117.304 147.658, 113.313 152.075 C 108.712 157.168, 101.779 160.737, 92.880 162.592 C 82.538 164.749, 75.273 163.158, 70.082 157.602 C 67.927 155.295, 67.641 154.009, 67.453 145.757 C 67.111 130.714, 63.117 124, 54.513 124 C 43.234 124, 35.682 136.537, 39.361 149.153 C 42.315 159.288, 45.431 162.774, 58.572 170.647 C 74.211 180.018, 76.275 181.006, 82.155 181.935 C 90.788 183.300, 102.370 179.658, 113.293 172.142 C 115.677 170.502, 119.173 168.883, 121.063 168.544 C 123.098 168.179, 131.562 169.122, 141.809 170.855 C 158.500 173.678, 163 173.875, 163 171.786 C 163 169.983, 149.918 157.228, 139.442 148.819 L 129.080 140.500 136.947 139.823 C 149.033 138.784, 154.280 135.219, 154.182 128.114 C 154.099 122.054, 150.042 115.375, 148.767 119.199 C 148.495 120.014, 147.380 119.695, 145.279 118.199 C 143.581 116.990, 142.036 116.018, 141.846 116.040 C 141.656 116.062, 139.352 118.057, 136.727 120.473" stroke="none" fill="black" fill-rule="evenodd"/>
</svg>