<svg xmlns="http://www.w3.org/2000/svg" width="200" height="200" viewBox="0 0 200 200" version="1.1">
	<path d="M 141.667 13.667 C 141.300 14.033, 141 15.327, 141 16.541 L 141 18.749 136.874 16.708 C 131.233 13.917, 121.948 13.905, 118.212 16.684 C 111.034 22.022, 116.590 28.335, 131.619 31.917 L 136.738 33.137 137.360 38.318 C 137.702 41.168, 137.985 49.575, 137.988 57 L 137.993 70.500 123.747 45.290 C 115.911 31.425, 108.879 20.062, 108.120 20.040 C 106.570 19.995, 106.588 20.204, 109.924 42 C 112.127 56.388, 112.487 62, 111.208 62 C 109.954 62, 103 49.543, 103 47.297 C 103 41.638, 93.976 36.699, 81.419 35.486 C 66.193 34.015, 40.320 39.235, 36.073 44.634 C 32.427 49.269, 34.245 50.350, 49.071 52.358 C 63.094 54.258, 69.500 55.872, 69.500 57.504 C 69.500 58.052, 64.325 59.995, 58 61.821 C 27.075 70.753, 25 71.595, 25 75.226 C 25 76.951, 25.458 77.137, 28.367 76.591 C 34.535 75.434, 52.371 75.748, 55.250 77.064 C 60.726 79.567, 58.657 83.893, 44.467 99.607 C 34.011 111.186, 31.820 114.905, 33.698 117.883 C 34.774 119.589, 40.495 121.131, 42.661 120.300 C 44.861 119.456, 44.178 118, 41.582 118 C 33.773 118, 34.290 115.075, 43.993 104.342 C 57.090 89.854, 60.262 85.408, 60.388 81.363 C 60.477 78.523, 59.910 77.326, 57.679 75.636 C 55.288 73.825, 53.084 73.424, 43.179 73 C 29.633 72.420, 29.528 72.497, 52 66.503 C 67.934 62.252, 72.386 60.299, 72.803 57.380 C 73.302 53.880, 64.858 51.471, 41.512 48.451 L 36.524 47.806 39.206 45.500 C 45.232 40.316, 73.083 36.468, 86.396 38.980 C 95.382 40.676, 98.907 43.232, 100.948 49.534 C 102.733 55.049, 107.511 62.699, 110.222 64.384 C 114.734 67.189, 115.599 57.861, 112.488 39.932 C 111.614 34.892, 111.090 30.576, 111.325 30.342 C 111.726 29.941, 124.520 51.938, 133.981 69.295 L 138.230 77.089 137.131 84.295 C 134.427 102.039, 130.448 106.869, 122.094 102.548 C 119.599 101.258, 119.225 100.414, 118.729 94.953 C 117.971 86.587, 114.524 80.036, 109.609 77.615 C 101.179 73.465, 89.163 79.666, 68.250 98.958 C 57.761 108.634, 54.132 113, 56.576 113 C 56.892 113, 61.955 108.500, 67.826 103 C 85.435 86.504, 94.885 80.218, 103.543 79.242 C 107.370 78.811, 108.264 79.110, 110.838 81.684 C 113.650 84.497, 114.694 87.687, 116.503 99 C 117.559 105.609, 126.913 109.230, 132.187 105.072 C 135.277 102.636, 138.439 94.886, 139.484 87.186 C 140.321 81.021, 141.537 81.098, 141.168 87.293 C 140.279 102.226, 135.392 117.203, 130.324 120.523 C 126.466 123.051, 119.724 121.889, 110.062 117.031 C 97.581 110.756, 92.128 108.889, 86.031 108.802 C 79.758 108.713, 75.935 110.312, 71.659 114.811 C 69.707 116.864, 67.450 118.005, 64.452 118.455 C 62.051 118.815, 59.107 119.903, 57.910 120.872 C 53.492 124.449, 57.754 127.720, 78.284 136.507 C 83.115 138.574, 86.889 140.444, 86.672 140.661 C 86.455 140.879, 79.851 140.518, 71.998 139.860 C 55.110 138.445, 55 138.501, 55 148.510 C 55 159.773, 59.209 170.169, 67.184 178.601 C 78.060 190.100, 90.561 191.616, 106 183.307 C 109.575 181.383, 115.131 178.428, 118.346 176.740 C 125.203 173.141, 127.530 169.592, 124.491 167.370 C 121.531 165.206, 116.587 164.155, 101.481 162.480 C 93.851 161.634, 87.440 160.773, 87.234 160.567 C 86.809 160.143, 97.124 157.732, 107.312 155.874 C 113.973 154.659, 114.107 154.575, 113.342 152.066 C 112.912 150.655, 112.560 147.541, 112.560 145.146 C 112.559 141.419, 113.081 140.314, 116.185 137.469 C 122.420 131.755, 130.682 130.538, 138.030 134.250 C 144.603 137.571, 147.010 141.790, 146.956 149.898 C 146.932 153.529, 146.264 158.300, 145.471 160.500 C 143.442 166.133, 143.597 167.437, 147.166 174.685 C 150.710 181.885, 153.970 185, 157.961 185 C 166.298 185, 173.565 164.104, 174.680 136.919 L 175.279 122.339 168.898 118.169 C 165.388 115.876, 161.714 114, 160.734 114 C 159.386 114, 156.993 110.593, 157.001 108.685 C 157.001 108.583, 158.171 108.432, 159.600 108.350 C 162.729 108.168, 168.223 103.105, 171.725 97.173 C 174.134 93.094, 174.312 91.831, 174.822 75.173 C 175.810 42.878, 175.600 34.998, 173.595 29.130 C 171.154 21.988, 165.691 16.580, 158.874 14.555 C 153.590 12.986, 142.899 12.434, 141.667 13.667 M 144 18.434 C 144 19.772, 145.346 23.035, 146.990 25.684 C 151.118 32.331, 152.296 39.599, 151.034 50.616 C 148.356 73.992, 151.474 102.042, 157.084 105.045 C 159.379 106.273, 161.435 105.325, 165.121 101.336 C 170.804 95.185, 171.499 93.200, 171.523 83.037 C 171.535 77.792, 171.933 65.625, 172.407 56 C 173.172 40.444, 173.066 37.785, 171.451 32.067 C 168.376 21.179, 161.181 16, 149.134 16 C 144.362 16, 144 16.171, 144 18.434 M 120.836 18.134 C 114.540 20.439, 117.688 24.897, 127.823 28.027 C 131.336 29.112, 135.258 30, 136.538 30 C 138.062 30, 139.108 30.764, 139.568 32.215 C 139.955 33.433, 140.587 44.120, 140.973 55.965 L 141.676 77.500 141.838 50.973 C 142.022 20.866, 142.110 21.248, 134.334 18.598 C 129.111 16.818, 124.829 16.671, 120.836 18.134 M 144.678 55.507 C 144.828 79.241, 145.115 84.322, 146.454 86.911 C 147.333 88.610, 148.169 90, 148.314 90 C 148.458 90, 148.177 85.612, 147.689 80.250 C 147.103 73.803, 147.206 65.190, 147.994 54.826 C 149.042 41.038, 148.993 38.486, 147.580 33.627 C 146.696 30.588, 145.642 27.897, 145.237 27.647 C 144.832 27.396, 144.580 39.934, 144.678 55.507 M 144.044 89.119 C 143.729 93.527, 140.547 108.136, 139.001 112.267 C 135.488 121.656, 128.692 126.360, 121.257 124.548 C 119.740 124.179, 113.234 121.441, 106.799 118.465 C 86.975 109.297, 82.106 109.015, 74.032 116.567 C 70.958 119.442, 68.385 121, 66.711 121 C 65.292 121, 62.863 121.485, 61.315 122.078 L 58.500 123.155 60.698 124.946 C 61.907 125.931, 67.307 128.659, 72.698 131.009 C 89.985 138.542, 91 139.102, 91 141.110 C 91 142.831, 90.172 142.995, 81.750 142.949 C 76.662 142.920, 69.436 142.557, 65.690 142.141 C 61.509 141.676, 58.649 141.759, 58.281 142.355 C 57.951 142.889, 57.705 145.920, 57.735 149.091 C 57.857 162.111, 65.999 176.944, 76.069 182.493 C 80.641 185.013, 82.607 185.487, 88.500 185.491 C 94.395 185.495, 96.526 184.984, 102 182.254 C 113.578 176.481, 122.359 171.422, 122.729 170.312 C 123.332 168.505, 117.540 167.119, 102.153 165.387 C 86.241 163.595, 83 162.793, 83 160.646 C 83 158.505, 93.368 155.163, 105.357 153.439 L 110.214 152.741 109.624 149.053 C 106.416 128.988, 139.523 121.526, 148.087 140.384 C 150.407 145.494, 150.503 152.576, 148.355 160.231 C 146.462 166.977, 147.207 170.629, 151.878 177.500 C 157.234 185.380, 162.770 181.959, 167.041 168.133 C 170.235 157.790, 172 145.628, 172 133.955 L 172 123.172 167.250 120.251 C 164.637 118.644, 161.257 116.916, 159.737 116.411 C 157.500 115.666, 156.157 113.688, 152.670 105.996 C 148.057 95.823, 144.116 88.111, 144.044 89.119" stroke="none" fill="black" fill-rule="evenodd"/>
</svg>