<svg xmlns="http://www.w3.org/2000/svg" width="200" height="200" viewBox="0 0 200 200" version="1.1">
	<path d="M 138.873 14.507 C 134.946 16.642, 109.394 19.017, 84 19.608 C 71.625 19.896, 61.364 20.511, 61.197 20.976 C 60.300 23.472, 101.416 22.801, 124.873 19.936 C 129.479 19.373, 133.404 19.070, 133.596 19.263 C 133.788 19.455, 131.145 22.339, 127.723 25.673 L 121.500 31.733 101 33.373 C 75.609 35.405, 66.802 35.427, 60.236 33.478 C 54.291 31.712, 51.455 28.653, 50.495 22.971 C 50.126 20.787, 49.414 19, 48.912 19 C 47.219 19, 47.992 26.474, 50.030 29.818 C 54.655 37.404, 66.585 39.211, 94.798 36.601 C 104.312 35.720, 113.530 35, 115.282 35 L 118.467 35 114.855 38.612 C 112.498 40.969, 109.723 42.560, 106.871 43.190 C 104.467 43.722, 89.900 44.363, 74.500 44.616 C 59.100 44.869, 45.487 45.292, 44.250 45.557 C 41.242 46.200, 41.242 50.561, 44.251 55.102 C 49.363 62.817, 61.923 65.283, 83 62.709 C 89.325 61.937, 94.708 61.482, 94.962 61.698 C 95.216 61.914, 94.879 62.964, 94.212 64.032 C 92.360 66.998, 92.754 71.724, 95.412 78.422 C 96.739 81.765, 97.976 85.625, 98.162 87 C 98.739 91.272, 93.695 89.989, 81.477 82.758 C 62.464 71.504, 58.765 70.168, 55.964 73.543 C 54.974 74.737, 54.927 76.151, 55.756 79.777 C 56.346 82.356, 56.646 84.763, 56.423 85.125 C 56.199 85.486, 49.036 88.144, 40.504 91.031 C 23.774 96.691, 19.132 99.510, 20.950 102.906 C 21.975 104.822, 28.316 107.307, 35 108.412 C 48.940 110.718, 54.432 110.935, 62.628 109.506 C 67.266 108.697, 79.709 107.582, 90.280 107.027 C 118.556 105.544, 116.740 105.386, 118.703 109.502 C 120.282 112.815, 120.254 113.804, 118.188 127.752 C 115.607 145.177, 114.660 148.891, 111.912 152.384 C 110.408 154.296, 108.933 155, 106.427 155 C 103.323 155, 103 154.730, 103 152.140 C 103 143.811, 88.570 125.440, 77.801 120.058 C 69.796 116.058, 66.692 116.108, 62.497 120.303 C 59.826 122.974, 59.056 124.706, 58.476 129.348 C 58.081 132.505, 58.029 136.779, 58.359 138.844 C 58.936 142.449, 58.663 142.903, 51.591 150.114 C 40.612 161.309, 35.866 172.095, 39.489 177.623 C 41.015 179.952, 41.686 180.183, 45.635 179.738 C 51.778 179.045, 59.587 173.628, 70.691 162.356 L 79.882 153.027 84.874 161.263 C 89.764 169.333, 96.341 176.663, 100.684 178.883 C 104.860 181.018, 110.450 180.219, 115.594 176.750 C 119.928 173.827, 128.037 165.176, 132 159.246 C 133.480 157.031, 133.592 157.116, 140.451 165.640 C 154.444 183.030, 163.324 184.925, 161.588 170.150 C 160.667 162.312, 154.479 144.317, 150.133 136.836 C 146.571 130.703, 146.302 130.483, 141.736 129.955 C 138.137 129.539, 136.173 128.591, 133.453 125.955 C 128.134 120.800, 124 113.825, 124 110.005 L 124 106.686 141.750 107.549 C 164.002 108.631, 169.834 108.540, 174.377 107.041 C 178.176 105.787, 181 102.723, 181 99.854 C 181 97.205, 176.383 92.362, 171.727 90.126 C 160.938 84.946, 147.543 85.560, 134.750 91.823 C 130.488 93.909, 127 95.214, 127 94.722 C 127 94.230, 127.972 90.484, 129.159 86.397 C 130.980 80.131, 131.603 79.056, 133.133 79.542 C 134.132 79.859, 136.539 79.363, 138.484 78.441 C 146.023 74.863, 154.406 59.926, 159.046 41.800 C 161.069 33.898, 162.784 19, 161.671 19 C 160.412 19, 149.883 33.900, 144.274 43.619 C 141.098 49.122, 136.700 57.974, 134.500 63.292 C 132.300 68.609, 130.078 72.828, 129.563 72.667 C 128.656 72.385, 125.851 64.542, 124.531 58.600 L 123.887 55.701 112.875 56.331 L 101.863 56.961 104.832 53.231 C 109.854 46.921, 112.614 44.871, 119.178 42.575 C 127.174 39.779, 134.619 35.009, 132.795 33.852 C 132.083 33.400, 130.262 33.024, 128.750 33.015 C 127.237 33.007, 126 32.612, 126 32.138 C 126 31.664, 129.825 27.603, 134.500 23.115 C 144.246 13.759, 145.769 10.760, 138.873 14.507 M 154.242 32.673 C 145.334 45.859, 133 70.650, 133 75.371 C 133 80.021, 141.341 74.343, 146.092 66.460 C 148.067 63.182, 150.938 57.352, 152.472 53.505 C 155.197 46.667, 159.539 28.206, 158.635 27.302 C 158.384 27.051, 156.408 29.468, 154.242 32.673 M 120 37.500 C 118.708 38.875, 117.973 40, 118.366 40 C 119.428 40, 127 36.036, 127 35.480 C 127 33.942, 121.982 35.390, 120 37.500 M 97 47.036 C 93.425 47.437, 80.263 47.819, 67.750 47.883 C 46.257 47.994, 45 48.103, 45 49.865 C 45 52.448, 48.557 56.719, 52.333 58.672 C 56.967 61.069, 71.356 61.490, 85.372 59.641 L 97.244 58.074 100.872 53.865 C 102.868 51.550, 105.088 48.834, 105.807 47.828 C 107.287 45.756, 107.894 45.811, 97 47.036 M 108.313 59.392 C 103.260 60.024, 98.775 60.891, 98.348 61.319 C 97.920 61.746, 98.052 62.862, 98.641 63.798 C 99.420 65.036, 101.780 65.690, 107.305 66.198 C 118.554 67.232, 123.339 70.437, 126.092 78.777 C 127.209 82.163, 127.357 82.267, 128.118 80.210 C 128.709 78.612, 128.266 76.725, 126.536 73.471 C 125.214 70.985, 123.581 66.487, 122.907 63.476 C 121.514 57.251, 122.726 57.590, 108.313 59.392 M 95.718 68.970 C 95.396 70.202, 96.227 73.439, 97.684 76.621 C 100.844 83.523, 101.727 89.419, 99.927 91.588 C 97.730 94.236, 92.883 92.663, 80.231 85.197 C 65.147 76.296, 62.567 75, 59.919 75 C 57.630 75, 57.612 75.492, 59.579 84.090 C 60.114 86.428, 59.702 86.878, 55.336 88.716 C 52.676 89.836, 46 92.220, 40.500 94.014 C 28.820 97.825, 22.697 100.701, 23.501 102.001 C 24.377 103.419, 30.439 104.903, 42.195 106.578 C 51.876 107.957, 53.867 107.950, 63.195 106.501 C 68.863 105.620, 82.838 104.631, 94.250 104.302 C 105.662 103.973, 115 103.501, 115 103.254 C 115 101.733, 99.561 70.165, 98.084 68.666 C 96.333 66.889, 96.260 66.898, 95.718 68.970 M 107.857 81.113 C 116.529 99.459, 118.932 104, 119.970 104 C 121.464 104, 123.078 97.161, 123.628 88.500 C 124.457 75.439, 120.372 70.201, 108.621 69.258 L 102.001 68.726 107.857 81.113 M 145.251 90.482 C 139.115 92.208, 132.822 95.238, 128.250 98.665 C 122.422 103.035, 123.585 103.609, 140.250 104.591 C 163.444 105.957, 172.238 105.730, 175.363 103.682 C 186.022 96.698, 161.445 85.925, 145.251 90.482 M 120.673 129.939 C 118.415 145.395, 116.497 151.656, 112.931 155.223 C 110.509 157.645, 109.357 158.067, 105.865 157.808 L 101.693 157.500 99.972 151.190 C 96.156 137.207, 79.113 120, 69.079 120 C 63.066 120, 60.233 126.742, 61.225 138.695 L 61.689 144.301 54.345 151.277 C 46.226 158.989, 40.592 168.551, 41.172 173.630 C 41.475 176.279, 41.812 176.494, 45.562 176.428 C 51.205 176.327, 57.243 172.024, 70.043 158.977 L 80.587 148.230 84.310 155.038 C 89.318 164.195, 96.159 173.114, 99.814 175.250 C 103.450 177.375, 109.117 177.508, 112.889 175.558 C 116.403 173.740, 125.725 163.727, 129.574 157.635 C 131.183 155.088, 132.862 153.124, 133.304 153.270 C 133.746 153.416, 137.378 157.578, 141.375 162.518 C 148.946 171.875, 156.426 178.473, 158.212 177.369 C 161.311 175.453, 156.265 155.230, 149.136 141 C 145.520 133.782, 145.225 133.479, 141.291 132.946 C 136.368 132.279, 131.246 128.563, 126.887 122.492 C 125.113 120.022, 123.381 118, 123.039 118 C 122.697 118, 121.632 123.373, 120.673 129.939" stroke="none" fill="black" fill-rule="evenodd"/>
</svg>