<svg xmlns="http://www.w3.org/2000/svg" width="200" height="200" viewBox="0 0 200 200" version="1.1">
	<path d="M 137.163 14.516 C 134.227 16.987, 128 29.973, 128 33.626 C 128 34.688, 126.861 33.620, 125.141 30.946 C 121.518 25.312, 118.444 22.501, 113.768 20.548 C 106.670 17.582, 100 19.395, 100 24.290 C 100 26.899, 88.515 29.009, 66 30.535 C 58.448 31.048, 37.864 29.963, 31.737 28.730 C 31.107 28.604, 29.904 30.430, 29.063 32.790 C 27.703 36.606, 27.700 37.379, 29.031 39.790 C 32.002 45.168, 36.409 46.272, 58.245 47.106 C 69.169 47.523, 79.433 48.156, 81.054 48.512 C 85.100 49.401, 84.823 51.791, 80.142 56.361 L 76.284 60.128 69.892 58.396 C 62.040 56.268, 45.124 55.962, 39.725 57.851 C 34.117 59.813, 30 63.658, 30 66.934 C 30 72.550, 37.312 75.556, 48.914 74.710 C 59.690 73.923, 67 72.161, 67 70.350 C 67 69.408, 66.360 69.052, 65.250 69.376 C 59.199 71.140, 50.127 72.175, 43.593 71.845 C 37.429 71.533, 35.606 71.051, 33.811 69.256 L 31.605 67.049 34.006 64.493 C 39.362 58.792, 56.396 57.455, 71.467 61.553 L 77.435 63.176 82.217 58.162 C 87.455 52.671, 88.067 50.275, 84.950 47.455 C 83.165 45.839, 80.332 45.504, 63.015 44.856 C 37.372 43.897, 31 42.219, 31 36.427 C 31 31.827, 31.742 31.273, 36.794 32.106 C 44.741 33.415, 73.865 33.046, 85.500 31.489 C 91.550 30.679, 96.787 30.013, 97.139 30.008 C 97.490 30.004, 98.028 31.462, 98.335 33.250 C 98.642 35.038, 100.317 44.475, 102.058 54.222 L 105.222 71.945 102.612 76.399 C 98.961 82.629, 95.311 85.312, 91.516 84.554 C 87.782 83.808, 85.088 81.133, 80.723 73.837 C 78.574 70.246, 76.908 68.439, 76.168 68.896 C 74.635 69.844, 80.887 80.504, 85.115 84.151 C 91.124 89.336, 97.680 88.186, 102.856 81.040 C 104.495 78.777, 106.050 77.280, 106.310 77.713 C 107.121 79.059, 110.191 95.143, 109.726 95.608 C 109.483 95.850, 105.959 96.744, 101.893 97.595 C 87.399 100.627, 77 96.328, 77 87.303 C 77 82.978, 72.884 80.826, 63.500 80.242 C 54.348 79.673, 51.576 81.517, 43.238 93.718 C 35.109 105.612, 32.610 107.380, 23.254 107.852 C 18.291 108.103, 16 108.615, 16 109.475 C 16 111.237, 28.388 116.582, 35.890 118.058 C 45.204 119.891, 61.908 118.655, 77.500 114.981 C 85.379 113.124, 94.735 111.681, 101.250 111.317 L 112 110.717 111.990 113.108 C 111.978 116.160, 107.163 142.170, 106.485 142.849 C 105.672 143.661, 99.228 140.304, 89.279 133.885 C 76.091 125.375, 70.598 123.021, 63.900 123.010 C 59.239 123.002, 57.596 123.510, 54.103 126.040 C 48.678 129.970, 48.301 131.208, 51.309 135.201 C 54.915 139.987, 56.791 146.454, 59.039 161.853 C 60.136 169.359, 61.729 177.617, 62.581 180.203 C 64.268 185.326, 69.331 190.543, 73.674 191.633 C 77.801 192.669, 87.222 190.471, 94.687 186.732 C 101.341 183.398, 101.675 183.339, 109 184.187 C 117.898 185.217, 127.480 184.514, 134.818 182.293 C 141.436 180.290, 149.144 173.596, 151.440 167.859 C 155.274 158.275, 154.224 140.857, 149.262 131.740 C 147.797 129.049, 144.676 124.783, 142.327 122.260 L 138.055 117.672 140.433 115.295 C 141.740 113.987, 144.045 109.898, 145.555 106.209 C 153.067 87.850, 154.653 85.306, 160.500 82.234 C 163.984 80.403, 174.038 80.227, 178.372 81.921 L 181.243 83.043 180.821 77.206 C 180.196 68.558, 177.844 65.909, 165.570 60.033 C 154.234 54.606, 149.525 50.315, 148.415 44.398 C 147.751 40.857, 148.408 28.817, 149.623 22.262 C 150.137 19.491, 149.716 18.516, 146.712 15.512 C 142.534 11.334, 141.120 11.187, 137.163 14.516 M 138.291 17.250 C 137.160 18.488, 135.517 20.920, 134.640 22.656 C 132.136 27.613, 128.008 42.798, 127.923 47.362 C 127.881 49.638, 127.314 53.264, 126.664 55.420 C 125.587 58.989, 125.728 59.830, 128.240 64.811 C 133.080 74.405, 131.236 83.102, 122.786 90.539 C 118.818 94.032, 118.161 95.213, 117.243 100.501 C 115.732 109.201, 117.189 112.179, 124.252 114.821 C 128.491 116.407, 130.548 116.666, 133.548 115.989 C 138.353 114.905, 140.165 112.589, 144.098 102.500 C 150.120 87.051, 152.690 83.246, 159.440 79.785 C 162.699 78.115, 164.728 77.843, 171.168 78.216 L 178.954 78.667 178.358 76.083 C 176.904 69.787, 174.619 67.600, 163.959 62.298 C 146.177 53.455, 142.857 46.860, 146.151 26.917 C 147.257 20.216, 147.212 19.855, 144.976 17.475 C 142.106 14.419, 140.916 14.379, 138.291 17.250 M 103 24.373 C 103 26.922, 110.039 34.149, 114.502 36.183 C 116.265 36.986, 117 38.113, 117 40.013 C 117 43.687, 112.250 62.250, 109.918 67.691 C 108.047 72.055, 108.049 72.243, 110.046 81.308 C 111.160 86.364, 112.303 91.265, 112.587 92.199 C 113.522 95.280, 115.781 92.949, 116.480 88.183 C 116.858 85.607, 118.970 74.275, 121.173 63 C 123.680 50.171, 125.004 40.906, 124.711 38.239 C 123.783 29.790, 115.431 22, 107.300 22 C 103.442 22, 103 22.244, 103 24.373 M 102.643 42.250 C 106.583 64.523, 107.093 66.586, 108.173 64.656 C 109.458 62.360, 114 44.316, 114 41.508 C 114 40.041, 112.670 38.350, 110.133 36.592 C 108.007 35.119, 105.228 32.807, 103.959 31.456 C 102.690 30.105, 101.347 29, 100.975 29 C 100.603 29, 101.353 34.962, 102.643 42.250 M 123.662 64.562 C 123.118 66.344, 119 88.691, 119 89.862 C 119 90.986, 125.269 84.326, 126.589 81.800 C 128.539 78.068, 128.286 70.195, 126.085 66.062 C 124.501 63.088, 124.174 62.886, 123.662 64.562 M 57.001 83.078 C 53.191 84.666, 50.386 87.698, 44.402 96.690 C 38.307 105.850, 34.768 108.860, 28.102 110.553 L 23.582 111.700 29.041 113.600 C 33.497 115.151, 37.256 115.491, 49.500 115.451 C 62.907 115.407, 65.986 115.050, 78.500 112.084 C 87.397 109.974, 96.236 108.578, 102.750 108.251 C 109.342 107.921, 112.998 107.339, 112.994 106.619 C 112.988 105.376, 111.023 97.994, 110.703 98.011 C 110.591 98.017, 108.291 98.692, 105.591 99.511 C 97.945 101.830, 87.208 101.473, 82.013 98.725 C 77.559 96.370, 74 91.314, 74 87.343 C 74 85.756, 73.107 84.867, 70.750 84.107 C 65.449 82.397, 59.671 81.965, 57.001 83.078 M 114.079 97.583 C 114.127 98.748, 114.364 98.985, 114.683 98.188 C 114.972 97.466, 114.936 96.603, 114.604 96.271 C 114.272 95.939, 114.036 96.529, 114.079 97.583 M 114.650 115.558 C 112.246 127.490, 109.857 143.190, 110.368 143.702 C 111.302 144.636, 118.586 142.204, 120.016 140.481 C 121.022 139.269, 121.008 137.441, 119.948 131.235 C 119.220 126.981, 118.559 122.375, 118.479 121 C 118.398 119.625, 117.637 117.176, 116.788 115.558 L 115.243 112.616 114.650 115.558 M 121 117.393 C 121 117.609, 121.698 118.054, 122.552 118.382 C 123.442 118.723, 123.843 118.555, 123.493 117.989 C 122.906 117.038, 121 116.583, 121 117.393 M 126.500 120.310 C 124.300 120.892, 122.367 121.455, 122.205 121.562 C 122.043 121.669, 123.124 124.785, 124.606 128.488 C 127.180 134.920, 127.227 135.345, 125.650 138.015 C 124.743 139.551, 123.997 142.764, 123.994 145.154 C 123.986 151.838, 122.252 156.610, 118.767 159.543 C 116.028 161.848, 114.898 162.156, 110.525 161.794 L 105.457 161.373 103.262 168.497 C 102.055 172.415, 99.936 177.288, 98.553 179.326 L 96.039 183.031 98.770 181.711 C 100.638 180.808, 103.079 180.617, 106.500 181.108 C 119.559 182.980, 131.070 181.625, 139.208 177.255 C 148.169 172.445, 151.675 163.852, 150.716 149.053 C 150.404 144.235, 149.425 138.559, 148.540 136.441 C 146.230 130.914, 139.452 122.285, 136.028 120.515 C 132.757 118.823, 132.173 118.810, 126.500 120.310 M 60.500 125.718 C 59.400 125.985, 57.043 127.301, 55.263 128.643 L 52.026 131.082 54.462 134.791 C 57.464 139.363, 60.503 150.581, 61.968 162.500 C 63.210 172.599, 65.404 181.161, 67.617 184.539 C 70.835 189.449, 79.446 190.206, 88.927 186.413 L 93.246 184.685 90.738 183.371 C 87.588 181.720, 84.867 177.140, 81.491 167.806 C 78.353 159.129, 72.759 137.908, 73.432 137.235 C 73.691 136.975, 76.288 138.758, 79.202 141.196 C 88.269 148.783, 100.839 157, 103.377 157 C 103.747 157, 106 147.977, 106 146.498 C 106 146.275, 104.088 145.243, 101.750 144.204 C 99.412 143.165, 92.356 139.087, 86.069 135.142 C 79.782 131.198, 72.388 127.302, 69.638 126.485 C 64.471 124.951, 63.867 124.900, 60.500 125.718 M 123.079 134.583 C 123.127 135.748, 123.364 135.985, 123.683 135.188 C 123.972 134.466, 123.936 133.603, 123.604 133.271 C 123.272 132.939, 123.036 133.529, 123.079 134.583 M 77.999 145.294 C 77.996 148.775, 84.537 169.308, 87.304 174.500 C 90.880 181.213, 93.100 182.086, 96.162 177.985 C 97.634 176.013, 103 162.230, 103 160.421 C 103 160.208, 100.862 158.949, 98.250 157.624 C 95.638 156.299, 90.013 152.711, 85.750 149.651 C 81.487 146.591, 78 144.630, 77.999 145.294 M 116 145.563 C 114.075 146.291, 111.730 146.913, 110.789 146.944 C 109.671 146.980, 108.740 148.300, 108.104 150.750 C 106.157 158.252, 106.206 158.472, 109.888 158.824 C 115.265 159.337, 117.637 158.284, 119.381 154.610 C 121.023 151.149, 121.624 143.901, 120.250 144.119 C 119.838 144.185, 117.925 144.835, 116 145.563" stroke="none" fill="black" fill-rule="evenodd"/>
</svg>