<svg xmlns="http://www.w3.org/2000/svg" width="200" height="200" viewBox="0 0 200 200" version="1.1">
	<path d="M 149.572 13.750 C 143.809 24.994, 131.730 45.615, 129.667 47.731 C 128.729 48.693, 127.422 45.308, 123.679 32.231 C 121.046 23.029, 118.474 15.080, 117.962 14.567 C 115.520 12.113, 116.025 16.124, 119.749 28.740 C 121.983 36.308, 124.353 44.882, 125.016 47.794 L 126.220 53.087 118.860 62.767 C 114.812 68.091, 107.313 76.814, 102.196 82.151 L 92.893 91.856 88.628 89.201 C 83.993 86.315, 84.112 86.939, 86.149 76.223 L 87.153 70.946 89.663 74.723 C 92.900 79.594, 94.771 81, 98.017 81 C 104.598 81, 110.680 67.205, 113.990 44.775 C 115.456 34.835, 115.545 18.775, 114.146 16.368 C 112.778 14.012, 112.873 13.355, 112.538 27.500 C 112.249 39.689, 110.297 53.221, 107.407 63.063 C 105.423 69.819, 101.243 77.693, 99.232 78.465 C 96.711 79.432, 93.320 76.370, 90.641 70.706 L 88.103 65.341 90.959 52.420 C 95.909 30.034, 95.739 30.495, 99.728 28.593 C 102.384 27.326, 103.004 26.604, 102.159 25.759 C 101.315 24.915, 97.391 25.203, 86.763 26.890 C 70.006 29.550, 47.983 30.614, 39.500 29.174 C 34.301 28.292, 33.327 28.379, 32.207 29.828 C 28.186 35.025, 29.743 40.628, 36.082 43.775 C 41.921 46.675, 49.029 47.817, 66.500 48.666 L 80.500 49.346 72 51.750 C 66.432 53.324, 58.794 54.469, 49.857 55.067 C 33.778 56.145, 28.643 57.496, 28.177 60.775 C 27.916 62.619, 28.671 63.408, 32.177 64.952 C 39.942 68.372, 53.446 70.370, 69.249 70.437 C 77.492 70.472, 83.999 70.905, 83.999 71.418 C 84.003 75.534, 81.589 85.012, 80.639 84.606 C 70.040 80.078, 58.708 79.951, 49.894 84.263 C 42.608 87.828, 23.876 101.968, 22.151 105.206 C 17.831 113.314, 28.250 117.664, 49.786 116.743 C 55.994 116.478, 60.944 116.377, 60.786 116.519 C 60.629 116.662, 56.450 119.140, 51.500 122.026 C 40.734 128.305, 39 129.717, 39 132.211 C 39 134.552, 45.593 137.661, 53.776 139.177 C 63.712 141.019, 64.145 141.462, 57.981 143.482 C 39.146 149.655, 32.149 157.782, 36.746 168.148 C 38.770 172.710, 44.877 179.543, 51.288 184.416 C 55.074 187.294, 55.084 187.296, 65.788 186.631 C 93.447 184.914, 97.480 180.179, 81 168.773 C 76.325 165.537, 72.369 162.522, 72.209 162.072 C 71.827 160.999, 75.575 160.031, 80.177 160.014 C 83.609 160.001, 84.067 159.618, 87.065 154.250 C 88.832 151.088, 91.665 146.281, 93.360 143.568 C 96.283 138.890, 96.477 138.761, 97.121 141.068 C 97.495 142.406, 97.861 146.200, 97.935 149.500 C 98.278 164.804, 102.979 178.654, 109.474 183.496 C 115.271 187.818, 118.959 188.349, 134.380 187.077 C 165.209 184.534, 167.405 180.411, 143.576 169.807 C 137.018 166.888, 131.485 163.987, 131.280 163.361 C 130.824 161.967, 141.341 160, 149.250 160 C 160.139 160, 161.162 157.274, 151.250 154.670 C 142.804 152.451, 135.588 148.979, 135.216 146.956 C 135.045 146.022, 137.526 143.546, 141.487 140.696 C 149.207 135.143, 151.794 130.824, 150.408 125.803 C 149.663 123.107, 148.403 121.954, 143.552 119.530 C 134.694 115.104, 127.602 115.492, 109.229 121.406 C 94.337 126.200, 91.204 126.715, 87.850 124.920 C 85.470 123.646, 83 118.223, 83 114.273 C 83 111.744, 83.609 111.264, 89.496 109.152 C 93.068 107.871, 96.209 106.471, 96.475 106.041 C 96.740 105.611, 101.128 107.339, 106.225 109.880 C 114.924 114.217, 115.983 114.500, 123.496 114.500 C 133.322 114.500, 135.364 113.214, 143.513 101.897 C 153 88.720, 159.577 84.372, 171.854 83.157 L 178.500 82.500 178.796 77.436 C 179.321 68.452, 178.050 66.893, 163 58.057 C 154.121 52.843, 150.999 47.140, 151.001 36.136 C 151.002 29.085, 154.114 13.063, 156.902 5.750 C 157.744 3.541, 157.668 3, 156.516 3 C 155.701 3, 152.703 7.642, 149.572 13.750 M 144.552 28.815 C 141.850 33.592, 137.391 40.875, 134.643 45 L 129.647 52.500 129.513 63.500 C 129.350 76.868, 127.251 82.621, 120.092 89.317 C 113.101 95.856, 98.734 100.795, 96.063 97.576 C 95.344 96.709, 94.186 96, 93.491 96 C 91.838 96, 82 105.247, 82 106.801 C 82 108.790, 86.180 108.071, 91.937 105.091 L 97.373 102.277 105.490 106.523 C 109.954 108.858, 116.153 111.338, 119.265 112.035 C 124.232 113.146, 125.482 113.088, 129.498 111.554 C 133.348 110.084, 135.256 108.245, 141.532 99.958 C 151.937 86.219, 158.443 81.788, 170.253 80.400 C 174.857 79.859, 175.943 79.362, 176.388 77.591 C 177.831 71.840, 174.438 67.390, 164.712 62.279 C 150.265 54.688, 145.603 43.912, 149.005 25.975 C 149.557 23.061, 149.887 20.554, 149.737 20.403 C 149.587 20.253, 147.253 24.039, 144.552 28.815 M 80.500 30.521 C 68.616 32.426, 50.505 33.214, 42 32.196 C 33.815 31.217, 33.041 31.564, 33.015 36.227 C 32.983 41.989, 42.332 44.761, 64.500 45.563 C 82.972 46.231, 86 46.654, 86 48.570 C 86 50.439, 83.262 51.500, 69.143 55.102 C 61.415 57.074, 55.308 58, 50.030 58 C 42.619 58, 32.265 59.401, 31.105 60.561 C 30.091 61.575, 33.452 62.929, 42.500 65.150 C 49.808 66.945, 54.539 67.373, 67.663 67.430 C 76.553 67.469, 84.109 67.219, 84.454 66.876 C 85.029 66.304, 91.301 39.889, 92.677 32.250 C 93.360 28.453, 93.386 28.456, 80.500 30.521 M 119.011 67.079 C 114.892 72.260, 107.753 80.424, 103.148 85.220 C 94.793 93.919, 94.779 93.942, 97.267 95.076 C 99.215 95.963, 100.947 95.867, 105.188 94.634 C 119.727 90.407, 127.538 79.300, 126.800 63.902 L 126.500 57.658 119.011 67.079 M 59.650 84.089 C 52.954 85.157, 46.128 88.827, 35.096 97.288 C 24.410 105.484, 22.989 107.173, 24.613 109.748 C 26.382 112.553, 32.682 113.841, 45 113.917 C 61.962 114.022, 66.924 112.959, 73.781 107.750 C 79.495 103.409, 79.501 103.400, 80.323 96.614 C 80.776 92.879, 80.920 89.235, 80.644 88.516 C 80.128 87.170, 72.817 84.519, 67.500 83.749 C 65.850 83.510, 62.317 83.663, 59.650 84.089 M 83.453 93.400 C 82.284 99.633, 83.073 100.448, 87 97.063 L 90.500 94.046 88 92.045 C 84.616 89.337, 84.191 89.463, 83.453 93.400 M 76.865 108.908 L 74.508 110.817 77.254 110.292 C 78.764 110.003, 80 109.144, 80 108.383 C 80 106.578, 79.676 106.632, 76.865 108.908 M 70.500 114.882 C 64.738 116.976, 42.827 130.019, 42.271 131.686 C 41.821 133.038, 52.486 136.611, 59.673 137.516 C 62.518 137.874, 65.668 138.776, 66.673 139.522 C 68.291 140.723, 68.329 141.038, 67 142.282 C 66.175 143.055, 62.575 144.715, 59 145.972 C 44.449 151.087, 38 156.133, 38 162.405 C 38 166.830, 42.952 174.035, 49.876 179.683 L 55.500 184.272 67 183.672 C 73.325 183.343, 80.525 182.474, 83 181.742 C 89.601 179.791, 89.052 177.591, 80.500 171.728 C 71.412 165.498, 68.750 162.816, 69.559 160.706 C 70.230 158.959, 75.724 157.015, 80.019 157.006 C 82.078 157.001, 83.159 155.858, 85.936 150.750 C 90.872 141.672, 94.905 136, 96.426 136 C 99.019 136, 99.798 138.646, 100.844 151 C 102.508 170.670, 105.661 178.338, 113.972 182.926 L 118.367 185.353 133.934 184.193 C 149.647 183.022, 157 181.679, 157 179.979 C 157 179.469, 153.756 177.578, 149.792 175.776 C 131.870 167.630, 128.500 165.622, 128.500 163.083 C 128.500 160.257, 132.654 158.588, 142.444 157.480 L 148.389 156.808 142.944 154.900 C 131.144 150.764, 129.465 147.147, 136.656 141.347 C 146.363 133.517, 148.158 131.338, 147.816 127.797 C 147.555 125.094, 146.717 124.088, 143 122.013 C 136.017 118.113, 126.931 118.599, 111 123.724 C 94.751 128.951, 91.939 129.419, 87.619 127.614 C 83.847 126.038, 81.573 122.569, 80.474 116.715 C 79.655 112.345, 78.211 112.080, 70.500 114.882" stroke="none" fill="black" fill-rule="evenodd"/>
</svg>