<svg xmlns="http://www.w3.org/2000/svg" width="200" height="200" viewBox="0 0 200 200" version="1.1">
	<path d="M 159.347 12.248 C 156.813 14.584, 152.714 19.980, 150.240 24.239 L 145.740 31.982 143.038 27.721 C 136.314 17.119, 124.144 11.595, 122.442 18.373 C 121.801 20.929, 123.801 26.507, 126.938 30.913 C 128.034 32.452, 129.225 35.557, 129.586 37.813 C 130.369 42.707, 129.189 55.235, 128.013 54.508 C 127.559 54.228, 123.928 45.786, 119.943 35.749 C 110.775 12.658, 110.935 13, 109.339 13 C 107.613 13, 107.528 12.579, 110.942 20.859 L 113.883 27.992 111.692 29.246 C 110.094 30.160, 102.318 30.516, 82.981 30.557 C 58.823 30.610, 56.108 30.788, 52.486 32.557 C 47.537 34.976, 46.141 38.369, 47.903 43.702 C 50.337 51.070, 50.887 51.374, 59.184 49.930 C 72.681 47.581, 90.910 48.606, 96 52 C 97.293 52.862, 97.302 53.127, 96.069 53.921 C 93.419 55.626, 82.601 57.058, 66.201 57.873 C 52.228 58.567, 49.516 58.970, 47.201 60.692 C 39.138 66.689, 48.056 74.938, 64.388 76.591 C 71.347 77.295, 79.009 76.104, 87 73.075 C 93.894 70.463, 95.420 69.489, 94.629 68.209 C 94.241 67.580, 91.239 68.384, 86.751 70.317 C 80.185 73.145, 78.508 73.443, 69 73.470 C 60.030 73.496, 57.729 73.152, 53.210 71.110 C 47.809 68.669, 45.590 66.282, 46.840 64.259 C 48.313 61.875, 53.997 60.825, 68 60.350 C 90.323 59.592, 101.311 56.581, 99.451 51.732 C 98.109 48.236, 90.327 46.500, 76 46.500 C 68.575 46.500, 60.386 46.861, 57.803 47.303 C 53.264 48.080, 53.054 48.006, 51.553 45.103 C 49.196 40.544, 49.577 37.322, 52.716 35.273 C 55.162 33.677, 57.830 33.530, 79.494 33.805 C 94.777 33.999, 105.186 33.706, 108.027 33.003 C 110.487 32.394, 113.083 31.806, 113.795 31.698 C 114.589 31.577, 117.404 37.101, 121.060 45.949 L 127.029 60.397 125.503 64.949 C 121.738 76.182, 114.226 86.068, 110.533 84.651 C 108.411 83.837, 106.027 78.020, 105.300 71.887 C 104.900 68.509, 104.266 67, 103.247 67 C 100.298 67, 103.841 82.562, 107.592 86.087 C 112.406 90.609, 118.744 85.765, 125.060 72.735 C 129.773 63.013, 130.689 64.744, 126.503 75.463 C 124.777 79.883, 122.099 87.157, 120.553 91.626 L 117.740 99.752 112.620 100.367 C 109.804 100.706, 104.739 100.987, 101.364 100.991 L 95.227 101 94.541 96.250 C 93.622 89.881, 89.703 81.447, 86.989 79.994 C 81.366 76.985, 72.953 83.261, 63.116 97.803 L 58.853 104.107 51.989 103.430 C 37.125 101.966, 27.457 105.519, 30.160 111.452 C 30.798 112.852, 33.385 115.312, 35.910 116.920 C 49.797 125.766, 73.159 127.613, 84.084 120.727 C 86.540 119.179, 91.012 118.119, 100 116.953 C 106.875 116.061, 112.570 115.369, 112.656 115.416 C 112.741 115.462, 112.073 118.324, 111.170 121.776 L 109.529 128.052 105.015 127.276 C 102.532 126.849, 96.595 126.500, 91.822 126.500 C 82.442 126.500, 79.906 127.567, 75.612 133.318 C 72.606 137.345, 73.058 147.053, 76.809 159 C 78.450 164.225, 80.055 170.969, 80.377 173.986 C 81.051 180.314, 83.224 183.777, 88.071 186.248 C 92.869 188.695, 98.481 188.449, 116.500 185 C 133.110 181.821, 143.230 181.267, 150.274 183.151 C 159.853 185.713, 168.679 180.352, 171.638 170.174 C 175.752 156.020, 167.103 127.448, 157.488 123.431 C 155.289 122.512, 153.873 120.905, 152.756 118.060 C 151.879 115.827, 151.589 114, 152.113 114 C 154.591 114, 160.727 117.316, 162.698 119.721 L 164.896 122.403 166.036 119.451 C 171.666 104.876, 173.237 88.350, 172.829 48 C 172.542 19.603, 172.284 15.105, 170.787 12.371 C 169.202 9.477, 167.212 8, 164.896 8 C 164.379 8, 161.882 9.911, 159.347 12.248 M 160.146 14.842 C 158.106 17.051, 154.467 22.303, 152.059 26.511 L 147.681 34.163 147.770 44.832 C 147.819 50.699, 148.300 59.325, 148.838 64 C 150.159 75.466, 148.877 83.324, 144.704 89.341 L 142.734 92.182 146.418 101.489 C 149.840 110.136, 150.330 110.839, 153.319 111.400 C 155.089 111.732, 158.225 112.909, 160.288 114.014 L 164.040 116.025 164.959 113.609 C 168.666 103.859, 169.289 96.570, 169.713 58 C 170.045 27.894, 169.850 18.631, 168.819 15.514 C 167.015 10.062, 164.722 9.885, 160.146 14.842 M 125 19.849 C 125 20.866, 126.683 24.804, 128.740 28.599 C 132.136 34.866, 132.476 36.189, 132.433 43 C 132.408 47.125, 131.796 52.899, 131.074 55.831 C 130.106 59.763, 130.055 61.455, 130.881 62.281 C 131.706 63.106, 132 63.069, 132 62.139 C 132 61.446, 134.685 55.005, 137.967 47.826 C 143.754 35.170, 143.888 34.685, 142.411 31.827 C 137.752 22.819, 125 14.046, 125 19.849 M 140.327 49.250 C 138.031 54.338, 135.384 60.439, 134.445 62.809 L 132.736 67.118 137.023 78.059 C 139.381 84.077, 141.457 89, 141.635 89 C 141.813 89, 142.887 87.181, 144.021 84.958 C 146.748 79.614, 147.444 70.242, 145.801 61 C 144.891 55.880, 144.749 51.970, 145.355 48.679 C 145.861 45.930, 145.868 43.029, 145.371 41.929 C 144.655 40.344, 143.755 41.650, 140.327 49.250 M 126.095 84.252 C 123.672 90.988, 121.467 97.113, 121.195 97.862 C 120.568 99.588, 125.387 98.679, 132.219 95.782 C 139.653 92.629, 139.716 92.349, 135.433 81.525 C 133.359 76.286, 131.401 72.001, 131.081 72.002 C 130.762 72.003, 128.518 77.516, 126.095 84.252 M 78.664 83.883 C 75.325 86.084, 71.212 90.915, 64.984 99.949 L 60.468 106.500 49.820 106.144 C 39.278 105.792, 32 107.030, 32 109.176 C 32 111.439, 38.347 115.897, 45.168 118.425 C 58.254 123.276, 73.537 123.607, 81.264 119.207 C 82.912 118.268, 85.215 116.944, 86.381 116.265 C 87.546 115.585, 90.300 114.983, 92.500 114.927 C 94.700 114.871, 100.313 114.296, 104.974 113.649 L 113.448 112.472 115.203 107.746 L 116.958 103.019 105.036 103.660 L 93.114 104.301 92.642 101.901 C 90.423 90.600, 89.716 88.062, 87.995 85.232 C 85.713 81.479, 82.922 81.076, 78.664 83.883 M 135.582 97.252 C 133.427 98.418, 128.944 100.082, 125.621 100.951 C 119.741 102.488, 119.545 102.649, 118.301 106.944 C 117.599 109.371, 117.150 111.484, 117.305 111.638 C 117.460 111.793, 121.617 111.496, 126.543 110.978 C 131.469 110.459, 138.057 110.028, 141.181 110.018 L 146.863 110 143.808 102.500 C 142.128 98.375, 140.471 95.030, 140.127 95.067 C 139.782 95.104, 137.737 96.087, 135.582 97.252 M 123.197 113.973 C 119.731 114.376, 116.530 115.109, 116.083 115.603 C 115.637 116.096, 114.769 118.580, 114.154 121.121 C 113.539 123.663, 112.764 126.452, 112.431 127.320 C 111.985 128.482, 112.704 129.128, 115.163 129.772 C 117.820 130.469, 119.620 130.154, 124 128.225 C 140.279 121.059, 151.053 126.452, 149.724 141.104 C 149.189 147.005, 145.643 155.767, 142.206 159.682 C 139.498 162.766, 133.034 167, 131.035 167 C 130.107 167, 128.284 168.134, 126.982 169.519 C 123.042 173.713, 115.551 178, 112.162 178 C 108.165 178, 105.317 175.204, 104.414 170.396 C 103.420 165.094, 104.674 148.912, 106.825 139.292 C 109.016 129.493, 109.633 130.061, 95.936 129.277 C 85.091 128.656, 80.358 130.082, 77.895 134.712 C 75.620 138.986, 76.415 149.301, 79.804 159.500 C 81.449 164.450, 83.008 170.948, 83.269 173.941 C 83.663 178.466, 84.272 179.854, 86.887 182.191 C 89.622 184.634, 90.843 184.999, 96.266 184.996 C 99.695 184.994, 109.250 183.653, 117.500 182.016 C 133.667 178.809, 144.281 178.296, 150.272 180.434 C 156.149 182.531, 162.065 180.688, 166 175.536 C 172.007 167.669, 171.081 150.328, 163.863 135.525 C 159.945 127.490, 157.684 125.187, 155.495 127.004 C 154.646 127.709, 153.776 128.108, 153.561 127.893 C 153.347 127.677, 152.081 124.350, 150.749 120.500 L 148.327 113.500 138.914 113.370 C 133.736 113.299, 126.664 113.570, 123.197 113.973 M 125.500 130.560 C 120.913 132.480, 118.499 132.931, 115.250 132.475 C 112.912 132.146, 110.999 132.018, 110.997 132.189 C 110.995 132.360, 110.077 137.221, 108.957 142.992 C 106.876 153.713, 106.125 167.715, 107.416 171.751 C 109.229 177.420, 114.866 176.391, 123.468 168.819 C 125.953 166.632, 129.592 164.399, 131.557 163.857 C 139.287 161.722, 147 149.514, 147 139.413 C 147 134.432, 144.957 129.581, 142.455 128.621 C 138.931 127.269, 131.267 128.145, 125.500 130.560" stroke="none" fill="black" fill-rule="evenodd"/>
</svg>