<svg xmlns="http://www.w3.org/2000/svg" width="200" height="200" viewBox="0 0 200 200" version="1.1">
	<path d="M 127.658 17.129 C 110.295 23.018, 103.861 24.014, 99.091 21.547 C 95.023 19.444, 93.878 20.322, 96.834 23.278 C 98.726 25.168, 100.074 25.483, 105.867 25.385 C 111.246 25.294, 115.756 24.210, 127.338 20.224 C 135.402 17.448, 142 15.502, 142 15.898 C 142 16.499, 132.057 25.737, 124.423 32.228 C 122.631 33.752, 121.151 33.859, 111.945 33.131 C 103.718 32.480, 100.757 32.606, 98 33.728 C 88.465 37.608, 76.213 37.296, 64.394 32.874 C 58.450 30.651, 52 25.705, 52 23.372 C 52 20.747, 57.114 19.769, 68.002 20.312 C 73.778 20.599, 79.122 20.984, 79.877 21.167 C 80.632 21.350, 81.446 20.969, 81.685 20.320 C 82.284 18.694, 74.565 17.500, 63.455 17.500 C 50.007 17.500, 45.814 21.060, 51.417 27.719 C 59.473 37.293, 82.577 42.005, 96.775 36.970 C 101.504 35.292, 103.848 35.054, 110.250 35.599 C 114.513 35.961, 118 36.608, 118 37.036 C 118 37.464, 115.862 39.594, 113.250 41.769 C 106.977 46.992, 103.856 47.452, 74.500 47.478 C 52.138 47.499, 50.261 47.640, 47 49.549 C 44.355 51.097, 43.424 52.368, 43.190 54.749 C 42.924 57.462, 43.472 58.330, 47.127 60.977 C 53.343 65.480, 60.860 67.426, 72.190 67.466 C 77.746 67.485, 81.008 67.823, 79.836 68.256 C 78.378 68.796, 77.998 69.514, 78.511 70.756 C 81.473 77.932, 81.650 85.971, 78.975 91.866 C 77.282 95.596, 76.667 96.139, 74.747 95.593 C 63.545 92.412, 58.800 91.830, 46.945 92.185 C 35.422 92.531, 33.900 92.806, 28.445 95.531 C 20.773 99.362, 19.091 102.962, 23.286 106.570 C 26.419 109.265, 30.433 110.505, 40.750 111.966 C 46.701 112.809, 50.197 112.648, 60.250 111.069 C 73.829 108.936, 80 108.216, 80 108.765 C 80 109.464, 73.638 114.530, 68.091 118.248 C 61.626 122.581, 56.871 123.804, 53.501 122.001 C 51.486 120.922, 50.735 121.053, 48.079 122.944 C 44.473 125.511, 42.782 128.267, 43.562 130.302 C 44.161 131.862, 45.961 132.852, 59 138.793 C 69.288 143.481, 73.147 146.606, 76.049 152.600 C 77.884 156.392, 78.175 158.356, 77.789 164.327 C 77.512 168.607, 76.448 173.478, 75.150 176.405 C 73.954 179.102, 73.244 181.577, 73.571 181.905 C 73.899 182.232, 76.804 182.500, 80.028 182.500 C 85.333 182.500, 86.220 182.179, 89.378 179.118 C 100.420 168.416, 103.792 133.922, 94.980 121.803 C 93.901 120.320, 93.352 118.901, 93.759 118.651 C 95.776 117.411, 107.494 115.803, 111.043 116.279 C 116.796 117.051, 119.746 119.344, 121.006 124.024 C 122.338 128.971, 121.163 136.177, 117.591 144.969 C 114.796 151.846, 105.620 166.161, 101.594 169.924 C 96.711 174.488, 98.977 184, 104.948 184 C 107.836 184, 110.813 182.110, 124.154 171.807 C 142.192 157.878, 150.625 158.594, 158.500 174.722 C 160.700 179.228, 162.950 182.786, 163.500 182.629 C 165.353 182.100, 165.129 172.948, 163.064 164.782 C 157.674 143.465, 141.588 121.692, 127.370 116.468 C 123.210 114.939, 114.416 108.251, 115.345 107.322 C 115.514 107.152, 125.969 107.531, 138.577 108.164 C 151.184 108.796, 163.725 109.223, 166.443 109.112 C 187.118 108.269, 181.805 90.847, 159.884 87.601 C 151.448 86.352, 137.031 90.650, 127.788 97.169 L 125.075 99.082 122.642 94.291 C 121.303 91.656, 118.398 87.447, 116.185 84.938 L 112.161 80.376 118.434 73.456 L 124.707 66.535 131.486 71.767 C 141.809 79.737, 146.847 78.733, 151.477 67.785 C 152.473 65.428, 156.595 56.395, 160.636 47.712 C 164.677 39.028, 168.994 29.027, 170.230 25.486 C 172.333 19.459, 172.369 18.941, 170.798 17.370 C 169.263 15.835, 168.915 15.825, 166.722 17.263 C 163.020 19.688, 155.967 27.001, 139.730 45.250 C 131.534 54.462, 124.558 62, 124.229 62 C 123.901 62, 121.577 60.987, 119.066 59.750 C 115.511 57.998, 112.770 57.500, 106.685 57.500 L 98.869 57.500 104.185 52.818 C 107.509 49.890, 111.142 47.718, 113.884 47.020 C 123.547 44.560, 129.700 39.656, 126.478 36.982 C 125.227 35.944, 126.648 34.184, 135.683 25.576 C 143.631 18.003, 146.199 14.962, 145.715 13.699 C 145.356 12.764, 144.486 12.021, 143.781 12.047 C 143.077 12.073, 135.821 14.359, 127.658 17.129 M 161.278 25.664 C 157.493 29.424, 148.135 39.650, 140.483 48.390 L 126.572 64.279 130.036 67.236 C 131.941 68.862, 135.199 71.341, 137.275 72.746 C 142.482 76.267, 145.250 74.931, 148.675 67.245 C 150.082 64.085, 154.728 53.850, 158.998 44.500 C 166.981 27.019, 169.586 20.253, 168.680 19.347 C 168.395 19.062, 165.064 21.904, 161.278 25.664 M 119 40.500 C 117.708 41.875, 117.067 42.998, 117.576 42.996 C 118.736 42.992, 125 39.210, 125 38.515 C 125 37.020, 121.037 38.332, 119 40.500 M 56.316 49.979 C 50.532 50.638, 45 53.019, 45 54.849 C 45 55.290, 46.062 56.649, 47.360 57.869 C 53.267 63.418, 69.265 66.309, 81.400 64.019 C 87.311 62.904, 88.924 62.039, 96.001 56.195 C 100.377 52.581, 103.855 49.542, 103.729 49.440 C 103.603 49.339, 100.125 49.683, 96 50.205 C 91.040 50.832, 84.553 50.789, 76.843 50.077 C 70.431 49.485, 64.581 49.062, 63.843 49.137 C 63.104 49.212, 59.717 49.591, 56.316 49.979 M 95.450 62.290 C 92.673 63.506, 89.113 65.447, 87.540 66.604 L 84.681 68.708 91.639 70.822 C 95.466 71.984, 101.140 74.292, 104.249 75.951 L 109.900 78.967 115.700 72.417 C 118.890 68.814, 121.633 65.497, 121.796 65.045 C 121.959 64.593, 120.129 63.273, 117.730 62.112 C 111.765 59.224, 102.284 59.300, 95.450 62.290 M 85.132 72.701 C 85.334 73.202, 88.650 77.265, 92.500 81.729 L 99.500 89.845 103.250 86.220 C 105.313 84.226, 107 82.081, 107 81.455 C 107 80.828, 103.513 78.706, 99.250 76.740 C 91.206 73.028, 84.487 71.106, 85.132 72.701 M 83.433 79.402 C 84.320 85.319, 82.692 92.600, 79.619 96.453 L 77.340 99.311 69.420 97.219 C 53.694 93.066, 38.792 93.458, 29 98.283 C 20.384 102.528, 23.450 106.201, 37.691 108.695 C 44.982 109.971, 47.793 110.033, 54 109.055 C 58.125 108.405, 66.629 107.261, 72.898 106.512 L 84.295 105.149 90.648 98.854 C 94.141 95.391, 97 92.161, 97 91.676 C 97 91.190, 93.786 87.151, 89.857 82.700 L 82.714 74.608 83.433 79.402 M 105.644 87.521 L 101.865 92.042 104.973 95.967 C 112.013 104.855, 111.265 104.619, 135.156 105.492 C 166.757 106.647, 169.206 106.624, 172.717 105.142 C 179.043 102.473, 177.437 96.894, 169.188 92.882 C 165.414 91.046, 162.842 90.606, 156 90.624 C 145.887 90.651, 139.165 92.920, 129.408 99.600 C 125.884 102.013, 122.996 103.427, 122.990 102.743 C 122.958 98.687, 112.713 83, 110.095 83 C 109.726 83, 107.723 85.034, 105.644 87.521 M 94.034 99.431 L 88.568 105 93.034 104.901 C 95.490 104.847, 99.877 104.509, 102.783 104.151 L 108.066 103.500 103.783 98.681 L 99.500 93.863 94.034 99.431 M 89.882 107.730 C 86.112 108.031, 84.277 108.946, 79.882 112.715 C 67.733 123.134, 58.537 127.477, 53.492 125.178 C 51.578 124.306, 50.655 124.484, 48.568 126.125 C 45.294 128.700, 45.333 129.764, 48.750 131.194 C 58.678 135.348, 68.422 140.220, 71.502 142.569 C 81.281 150.028, 83.376 162.827, 77.376 178.463 C 76.907 179.684, 77.589 180, 80.697 180 C 90.087 180, 96.953 165.373, 96.985 145.299 C 97.005 133.060, 95.489 126.335, 91.901 122.747 C 89.565 120.411, 88.702 120.089, 87.088 120.953 C 84.991 122.075, 82.963 120.526, 84.637 119.081 C 86.092 117.824, 95.980 115.022, 103.118 113.843 C 108.652 112.929, 110.705 112.995, 114.374 114.203 L 118.861 115.680 115.181 111.373 L 111.500 107.066 103 107.213 C 98.325 107.294, 92.422 107.527, 89.882 107.730 M 122.443 120.223 C 124.856 123.667, 124.432 134.156, 121.551 142.321 C 118.661 150.510, 112.797 160.611, 106.308 168.577 C 101.399 174.603, 100.631 177.915, 103.465 180.848 C 105.203 182.647, 107.054 181.621, 118.911 172.283 C 129.696 163.789, 136.203 160.198, 142.256 159.402 C 148.533 158.576, 154.552 162.084, 158.835 169.065 L 162.171 174.500 161.479 170 C 158.553 150.974, 143.094 127.287, 128.790 119.913 C 126.749 118.861, 124.136 118, 122.983 118 C 121.016 118, 120.983 118.138, 122.443 120.223" stroke="none" fill="black" fill-rule="evenodd"/>
</svg>