<svg xmlns="http://www.w3.org/2000/svg" width="200" height="200" viewBox="0 0 200 200" version="1.1">
	<path d="M 133.768 12.460 C 121.440 15.158, 116.088 18.461, 117.611 22.429 C 117.943 23.295, 121.767 26.311, 126.108 29.131 C 130.448 31.951, 133.990 34.538, 133.978 34.879 C 133.966 35.221, 131.266 43.813, 127.978 53.974 C 124.690 64.135, 122 73.098, 122 73.891 C 122 74.684, 121.735 75.069, 121.412 74.745 C 120.162 73.496, 118.046 54.223, 118.585 49 C 119.002 44.966, 118.605 41.767, 117.099 37 C 115.969 33.425, 114.533 27.013, 113.907 22.750 C 113.060 16.979, 112.382 15, 111.249 15 C 110.019 15, 109.848 15.871, 110.352 19.552 C 110.719 22.229, 110.597 23.869, 110.057 23.535 C 107.995 22.261, 108.162 25.044, 110.392 29.140 C 112.814 33.587, 115.512 49.503, 114.355 52.518 C 113.568 54.568, 109.348 55.480, 106.549 54.204 C 102.630 52.419, 97.322 47.182, 93.897 41.722 C 92.095 38.850, 90.526 36.358, 90.411 36.184 C 90.296 36.011, 88.420 36.348, 86.242 36.935 C 84.064 37.521, 73.781 38.922, 63.391 40.048 C 42.807 42.277, 37.862 43.256, 36.030 45.463 C 33.584 48.411, 37.836 50.965, 52 55.055 C 62.718 58.150, 69.394 60.649, 72.857 62.863 C 75.020 64.246, 75.075 64.472, 73.521 65.608 C 72.590 66.289, 67.479 67.600, 62.164 68.521 C 28.231 74.402, 23.393 76.372, 27.500 82.641 C 28.944 84.844, 29.670 85, 38.503 85 C 48.984 85, 55.504 86.863, 56.549 90.155 C 57.555 93.325, 52.729 101.683, 43.935 112 C 31.710 126.344, 26.816 132.894, 27.500 134 C 28.951 136.348, 41.678 134.171, 49.500 130.236 C 64.365 122.759, 81.613 103.728, 92.507 82.781 C 95.293 77.424, 95.785 76.997, 100.290 76.031 C 106.136 74.777, 116 74.673, 116 75.865 C 116 77.725, 111.480 82.297, 103.423 88.589 C 98.790 92.206, 95 95.642, 95 96.223 C 95 96.804, 95.602 97.779, 96.337 98.390 C 100.318 101.695, 110.147 108.882, 111.138 109.213 C 111.923 109.474, 112.065 111.079, 111.586 114.275 C 110.932 118.635, 110.629 119.023, 107.133 119.964 C 98.938 122.171, 89.862 130.376, 83.534 141.297 C 81.115 145.473, 80.841 146.746, 81.423 151.132 C 83.232 164.765, 92.132 176.697, 105 182.738 C 121.181 190.335, 135.952 189.768, 151.039 180.971 C 164.465 173.142, 170.547 163.544, 169.838 151.302 C 169.347 142.834, 166.477 136.650, 159.907 129.904 C 152.717 122.522, 145.554 119.500, 135.250 119.500 C 130.426 119.500, 126.994 119.085, 126.986 118.500 C 126.979 117.950, 126.714 116.536, 126.398 115.357 C 125.922 113.583, 126.438 113.011, 129.395 112.035 C 133.809 110.578, 139.220 104.422, 141.067 98.758 C 141.930 96.109, 142.463 89.964, 142.477 82.500 C 142.498 71.348, 142.685 70.196, 145.113 66.192 L 147.727 61.884 148.363 65.067 C 149.356 70.029, 149.129 75.821, 147.430 88.914 C 145.533 103.539, 146.455 110.171, 151.125 115.490 C 155.076 119.990, 158.865 120.737, 164.264 118.080 C 171.819 114.362, 176.376 105.343, 176.145 94.568 C 176.073 91.231, 176.034 76.898, 176.057 62.718 C 176.104 34.034, 175.153 27.314, 170.155 21 C 165.568 15.206, 159.852 12.887, 150.699 13.109 C 145.911 13.225, 142.455 12.855, 141.749 12.149 C 141.117 11.517, 140.352 11.046, 140.050 11.102 C 139.748 11.159, 136.921 11.770, 133.768 12.460 M 131.285 16.001 C 123.317 18.089, 120 19.571, 120 21.042 C 120 22.025, 133.351 31, 134.813 31 C 135.250 31, 136.655 27.738, 137.936 23.750 C 139.217 19.763, 140.479 15.938, 140.740 15.250 C 141.359 13.617, 139.959 13.728, 131.285 16.001 M 145.389 18.250 C 150.387 36.318, 152.135 71.115, 149.400 98.085 C 148.360 108.348, 152.707 117.005, 158.896 116.996 C 169.037 116.982, 176.063 101.091, 173.109 84.850 C 172.306 80.437, 172.203 73.522, 172.770 62.178 C 174.049 36.603, 172.357 26.371, 165.847 20.317 C 162.399 17.110, 158.665 16, 151.318 16 C 145.006 16, 144.789 16.082, 145.389 18.250 M 140.019 25.945 L 137.576 32.992 141.975 37.475 C 144.395 39.941, 146.474 41.855, 146.594 41.729 C 146.909 41.400, 144.169 25.029, 143.242 21.699 C 142.517 19.095, 142.291 19.393, 140.019 25.945 M 136 36.311 C 136 36.652, 132.831 47.185, 128.958 59.716 L 121.917 82.500 123.583 95.500 C 124.500 102.650, 125.651 108.936, 126.143 109.468 C 128.038 111.522, 133.906 106.890, 136.755 101.090 C 139.311 95.885, 139.503 94.605, 139.544 82.500 C 139.587 70.138, 139.719 69.304, 142.244 65.500 C 143.705 63.300, 145.453 59.412, 146.128 56.860 C 147.905 50.145, 145.233 43.640, 138.212 37.595 C 136.995 36.547, 136 35.969, 136 36.311 M 84.966 40.103 C 83.022 40.530, 72.999 41.800, 62.694 42.926 C 32.797 46.192, 32.474 46.595, 54.639 52.989 C 69.729 57.342, 76.408 60.746, 76.819 64.293 C 77.260 68.103, 74.054 69.275, 53 73 C 43.571 74.668, 34.275 76.694, 32.340 77.502 C 26.362 80, 28.644 81.441, 39.580 82.075 C 45.036 82.391, 50.625 83.005, 52 83.440 C 56.259 84.786, 59 88.026, 59 91.714 C 59 97.520, 57.157 100.277, 37.053 124.543 L 30.606 132.325 36.053 131.685 C 53.204 129.669, 75.489 109.066, 89.437 82.330 L 93.515 74.513 100.007 73.303 C 108.258 71.766, 113.574 71.702, 116.201 73.108 C 118.067 74.106, 118.216 73.983, 117.711 71.858 C 117.403 70.561, 116.837 66.436, 116.453 62.690 C 115.858 56.888, 115.513 55.992, 114.127 56.636 C 108.229 59.375, 100.380 55.245, 93.381 45.720 C 90.868 42.299, 88.741 39.461, 88.656 39.413 C 88.570 39.366, 86.910 39.676, 84.966 40.103 M 117.226 79.730 C 116.525 80.956, 112.250 84.948, 107.726 88.601 C 103.201 92.254, 99.500 95.744, 99.500 96.357 C 99.500 97.702, 112.013 107.320, 112.773 106.560 C 113.941 105.393, 119.022 83.310, 118.769 80.500 C 118.504 77.546, 118.480 77.534, 117.226 79.730 M 117.514 100.581 C 116.587 104.750, 116.012 108.345, 116.237 108.570 C 116.462 108.795, 118.142 109.278, 119.970 109.644 C 123.097 110.269, 123.260 110.166, 122.708 107.904 C 122.386 106.582, 121.812 102.688, 121.432 99.250 C 121.052 95.813, 120.395 93, 119.971 93 C 119.547 93, 118.442 96.411, 117.514 100.581 M 114.607 113.340 C 113.450 117.652, 113.923 118.724, 117.250 119.330 C 119.037 119.656, 121.447 120.200, 122.605 120.540 C 124.551 121.111, 124.664 120.871, 124.095 117.370 C 123.542 113.964, 123.061 113.461, 119.333 112.381 C 115.432 111.252, 115.152 111.309, 114.607 113.340 M 131.750 121.782 C 128.060 122.253, 128.278 123.493, 132.937 128.548 C 137.211 133.184, 141.054 140.090, 143.021 146.666 C 144.145 150.428, 144.060 151.167, 142.140 154.273 C 139.208 159.018, 130.670 166.822, 126.511 168.560 C 118.239 172.016, 111.436 168.836, 109.100 160.421 C 107.722 155.459, 107.693 137.485, 109.049 129.125 C 109.618 125.619, 109.877 122.544, 109.625 122.292 C 108.723 121.389, 100.425 125.819, 96.322 129.393 C 94.024 131.395, 90.263 135.838, 87.966 139.267 C 83.988 145.203, 83.813 145.777, 84.304 151.307 C 85.618 166.086, 99.225 180.046, 116.112 183.939 C 122.664 185.450, 134.325 185.205, 139.499 183.449 C 145.829 181.300, 154.766 175.861, 159.325 171.383 C 164.932 165.876, 167.317 160.599, 167.416 153.479 C 167.660 135.965, 149.195 119.554, 131.750 121.782 M 112.627 124.250 C 110.844 130.870, 109.790 149.022, 110.842 154.993 C 112.857 166.434, 116.787 169.438, 125.075 165.872 C 130.613 163.490, 141 153.119, 141 149.972 C 141 144.513, 131.102 128, 127.830 128 C 126.824 128, 126 127.376, 126 126.614 C 126 124.813, 120.035 122, 116.216 122 C 113.969 122, 113.084 122.555, 112.627 124.250" stroke="none" fill="black" fill-rule="evenodd"/>
</svg>