<svg xmlns="http://www.w3.org/2000/svg" width="200" height="200" viewBox="0 0 200 200" version="1.1">
	<path d="M 98.384 8.606 C 98.024 10.039, 98.034 14.852, 98.405 19.301 C 99.069 27.267, 99.154 27.469, 103.950 32.541 C 109.016 37.898, 110.985 42.575, 110.994 49.282 C 111.004 55.720, 106.781 63.415, 101.750 66.127 C 95.418 69.540, 92.298 55.762, 95.629 39.105 L 96.196 36.268 87.848 35.766 C 69.690 34.672, 39.909 37.864, 34.363 41.498 C 28.789 45.150, 32.454 48.650, 45.272 51.915 C 57.439 55.014, 69 60.414, 69 62.997 C 69 64.126, 61.405 65.605, 46 67.474 C 39.125 68.308, 31.880 69.445, 29.900 70.001 C 25.341 71.280, 22.609 74.192, 23.457 76.866 C 24.131 78.990, 32.417 85, 34.671 85 C 37.264 85, 35.934 83.258, 31 80.191 C 21.882 74.523, 24.439 72.958, 47.634 70.014 C 65.485 67.748, 67.926 67.230, 70.250 65.211 C 72.784 63.009, 72.422 61.424, 68.744 58.618 C 65.721 56.312, 51.398 50, 49.189 50 C 46.729 50, 35 45.813, 35 44.935 C 35 42.296, 50.053 39.523, 70.145 38.462 C 77.649 38.066, 85.882 38.055, 88.440 38.439 C 92.393 39.031, 93.002 39.418, 92.496 41.012 C 91.514 44.107, 91.762 60.306, 92.835 63.095 C 96.306 72.122, 105.685 70.351, 111.213 59.624 L 113.339 55.500 115.189 62.776 L 117.039 70.053 112.982 76.026 C 110.751 79.312, 108.772 82, 108.585 82 C 108.398 82, 106.555 81.294, 104.491 80.432 C 99.161 78.205, 92.830 79.935, 84.241 85.967 C 76.763 91.219, 61.292 107.010, 55.920 114.874 C 52.893 119.305, 51.581 120.246, 44.500 123.064 C 36.606 126.206, 29 127.924, 29 126.566 C 29 124.864, 31.898 120.779, 40.147 110.854 C 52.297 96.235, 56 90.532, 56 86.435 C 56 82.504, 53.943 81, 48.566 81 C 43.170 81, 43.770 83.796, 49.250 84.193 C 53.121 84.473, 53.476 84.723, 53.228 87 C 52.885 90.164, 48.424 96.625, 37.107 110.347 C 27.796 121.639, 25.338 125.832, 26.403 128.608 C 27.279 130.890, 34.632 130.073, 42.687 126.798 L 48.875 124.283 50.073 127.175 C 51.515 130.657, 55.524 134, 58.257 134 C 61.181 134, 72.513 143.595, 77.744 150.500 C 84.047 158.819, 87.752 167.162, 90.851 180.013 C 92.308 186.054, 93.774 190.998, 94.109 190.998 C 94.444 190.999, 96.830 189.141, 99.411 186.870 C 104.691 182.222, 109.198 174.096, 110.875 166.201 C 113.275 154.896, 111.377 137.871, 106.537 127.300 L 104.014 121.789 111.757 122.180 C 135.218 123.366, 135.586 136.318, 113.166 171.758 C 105.344 184.120, 102.643 188.977, 103.251 189.584 C 103.470 189.804, 110.591 187.366, 119.075 184.168 C 138.576 176.817, 146.371 174.878, 156.532 174.850 C 165.605 174.825, 171.200 176.054, 178.233 179.618 C 180.855 180.947, 183 181.779, 183 181.469 C 183 180.229, 163.318 146.950, 157.727 138.735 C 149.148 126.132, 139.520 118, 133.174 118 C 130.136 118, 128.936 110.618, 131.142 105.500 C 135.076 96.373, 137.334 81.295, 137.551 62.694 C 137.756 45.244, 137.812 44.815, 140.380 41.206 C 141.821 39.181, 143.076 37.743, 143.168 38.012 C 143.260 38.280, 143.624 53.800, 143.976 72.500 C 144.572 104.153, 144.772 106.972, 146.876 113.341 C 149.044 119.901, 149.247 120.156, 151.818 119.530 C 159.827 117.583, 165.879 109.553, 168.589 97.280 C 169.529 93.023, 170.493 79.523, 171.181 61 C 172.970 12.828, 172.891 11.764, 167.442 10.396 C 163.853 9.495, 158.292 13.684, 150.641 23.050 L 144.293 30.820 141.964 25.200 C 139.060 18.192, 130.502 9, 126.882 9 C 125.504 9, 123.413 9.898, 122.235 10.996 C 116.402 16.430, 119.599 30.074, 129.652 42.649 L 132.969 46.798 126.127 56.884 L 119.285 66.970 115.035 50.235 C 105.335 12.030, 100.536 0.032, 98.384 8.606 M 101.316 18.761 C 101.538 25.205, 101.879 26.329, 104.345 28.761 L 107.123 31.500 106.394 28.500 C 105.993 26.850, 104.630 22.350, 103.366 18.500 L 101.066 11.500 101.316 18.761 M 122.915 14.159 C 120.240 19.158, 124.661 32.804, 131.530 40.750 L 134.688 44.403 138.345 39.452 C 142.468 33.870, 142.467 32.740, 138.342 24.171 C 133.432 13.976, 125.699 8.957, 122.915 14.159 M 158.640 18.250 C 155.764 21.138, 151.529 26.001, 149.230 29.058 L 145.049 34.616 146.037 40.749 C 146.580 44.121, 146.948 59.395, 146.854 74.690 C 146.703 99.304, 146.903 103.296, 148.592 109.429 C 149.641 113.239, 150.981 116.512, 151.568 116.701 C 153.598 117.355, 159.508 112.408, 161.922 108.035 C 166.213 100.263, 167.094 94.003, 168.124 64 C 168.662 48.325, 169.334 31.671, 169.618 26.990 C 170.536 11.834, 167.466 9.390, 158.640 18.250 M 128 58.970 C 124.425 64.178, 121.166 68.969, 120.759 69.615 C 120.351 70.262, 121.899 78.601, 124.198 88.146 L 128.379 105.500 130.160 99.712 C 133.105 90.147, 135.101 73.451, 134.788 61 L 134.500 49.500 128 58.970 M 113.712 79.612 C 110.578 84.059, 110.108 85.333, 110.991 86.982 C 111.578 88.079, 112.996 92.019, 114.142 95.738 C 116.578 103.644, 119.199 109.090, 121.477 110.981 C 122.851 112.121, 123.351 112.077, 124.734 110.694 C 126.246 109.183, 126.083 107.844, 122.547 92.780 C 120.446 83.826, 118.450 75.991, 118.113 75.368 C 117.762 74.719, 115.884 76.529, 113.712 79.612 M 91.095 85.110 C 83.576 88.868, 69.474 101.970, 60.287 113.736 C 56.743 118.275, 53.204 122.346, 52.424 122.783 C 51.359 123.379, 52.246 124.503, 55.976 127.288 C 58.711 129.330, 61.783 131, 62.803 131 C 65.967 131, 73.589 125.217, 81.480 116.827 C 89.440 108.366, 106 86.966, 106 85.141 C 106 83.678, 102.648 82, 99.725 82 C 98.402 82, 94.519 83.400, 91.095 85.110 M 99.100 99.569 C 86.277 117.005, 72.438 131.021, 65.892 133.203 C 65.383 133.372, 68.951 137.558, 73.820 142.505 C 84.252 153.104, 89.691 162.949, 93.302 177.767 L 95.560 187.034 99.228 183.267 C 101.245 181.195, 104.122 176.814, 105.622 173.530 C 110.864 162.050, 109.909 140.993, 103.521 127.232 L 101.075 121.964 96.806 122.647 L 92.537 123.330 94.147 120.915 C 95.676 118.620, 96.198 118.515, 104.628 118.804 C 122.527 119.417, 129.756 122.668, 132.034 131.128 C 134.112 138.843, 128.550 152.699, 114.624 174.500 C 111.111 180, 108.345 184.624, 108.478 184.777 C 108.611 184.929, 114.283 182.972, 121.082 180.429 C 127.881 177.886, 136.791 174.949, 140.882 173.902 C 149.983 171.575, 162.711 171.428, 169.917 173.568 C 172.821 174.430, 175.386 174.947, 175.618 174.716 C 176.290 174.043, 159.225 145.158, 153.793 137.773 C 145.437 126.413, 137.053 120.042, 131.986 121.202 C 130.739 121.487, 128.715 118.510, 127.570 114.707 C 127.151 113.316, 126.620 113.133, 125.202 113.892 C 120.590 116.360, 115.730 110.134, 111.433 96.250 C 110.028 91.713, 108.569 88.033, 108.189 88.074 C 107.810 88.115, 103.720 93.288, 99.100 99.569" stroke="none" fill="black" fill-rule="evenodd"/>
</svg>