<svg xmlns="http://www.w3.org/2000/svg" width="200" height="200" viewBox="0 0 200 200" version="1.1">
	<path d="M 157.564 7.262 C 155.576 10.296, 153.643 19.108, 150.495 39.481 C 149.052 48.820, 147.762 56.571, 147.628 56.705 C 147.400 56.933, 143.819 38.106, 142.495 29.722 C 141.787 25.233, 138.470 14.425, 136.827 11.250 C 135.643 8.964, 133 8.134, 133 10.050 C 133 10.627, 133.678 12.410, 134.506 14.012 C 136.680 18.215, 139.989 32.739, 139.971 38 C 139.959 41.686, 136.959 51, 135.784 51 C 135.611 51, 132.651 48.318, 129.207 45.041 C 118.018 34.394, 100.936 28.089, 87 29.462 C 77.566 30.391, 72 31.974, 72 33.727 C 72 34.865, 72.650 35.042, 74.750 34.477 C 85.385 31.615, 93.584 31.342, 102.907 33.540 C 112.279 35.749, 120.592 40.549, 128.373 48.243 C 135.843 55.629, 136.245 55.675, 139.562 49.515 C 140.603 47.582, 141.715 46, 142.034 46 C 142.835 46, 146.003 62.902, 145.986 67.086 C 145.979 68.964, 145.726 71.417, 145.425 72.537 C 144.919 74.421, 144.586 74.296, 140.994 70.880 C 134.306 64.517, 121.120 60.820, 112.929 63.011 C 107.420 64.484, 100.937 70.930, 99.228 76.633 C 98.316 79.677, 95.253 83.471, 87.018 91.759 C 74.426 104.431, 65.291 111.655, 56.021 116.273 C 50.654 118.946, 48.389 119.500, 42.821 119.500 C 39.124 119.500, 35.638 119.038, 35.073 118.473 C 34.369 117.769, 36.322 115.718, 41.262 111.973 C 52.027 103.810, 66.679 88.935, 68.953 83.860 C 70.635 80.108, 70.718 79.221, 69.553 77.500 C 67.786 74.890, 59.882 75.062, 51.766 77.886 L 46.031 79.881 40.470 74.798 C 31.392 66.501, 33.125 65.258, 54 65.092 C 70.077 64.964, 79.071 63.663, 84.476 60.681 C 88.606 58.403, 91.227 53.827, 89.432 52.032 C 88.906 51.506, 79.409 48.817, 68.328 46.057 C 38.522 38.634, 36.555 37.166, 53.975 35.345 C 58.329 34.890, 60 34.307, 60 33.242 C 60 32.037, 58.956 31.893, 54.250 32.452 C 46.208 33.406, 41.443 34.762, 39.994 36.507 C 37.039 40.067, 42.732 42.563, 68.492 49 C 88.585 54.021, 89.741 54.894, 81.629 58.915 C 77.158 61.131, 75.130 61.384, 56.952 62.002 C 35.866 62.718, 32 63.645, 32 67.988 C 32 70.222, 36.507 75.649, 41.926 79.942 L 45.657 82.896 53.367 80.448 C 61.478 77.872, 66.480 77.349, 67.482 78.971 C 68.729 80.988, 64.434 86.829, 54.593 96.500 C 48.996 102, 41.193 108.750, 37.252 111.500 C 33.311 114.250, 30.067 116.807, 30.043 117.182 C 29.925 119.041, 36.746 122.396, 41.408 122.773 C 47.990 123.304, 55.576 120.491, 65.804 113.725 C 74.567 107.927, 102 81.254, 102 78.530 C 102 77.563, 102.983 75.024, 104.184 72.886 C 107.315 67.316, 113.348 64.572, 120.950 65.262 C 130.953 66.169, 142 72.617, 142 77.549 C 142 80.355, 139.393 81.213, 125.500 82.983 C 113.493 84.512, 107.607 85.832, 105.360 87.498 C 103.622 88.787, 103.610 88.989, 105.169 90.572 C 106.087 91.504, 112.478 93.767, 119.372 95.600 C 136.789 100.232, 139.315 101.372, 138.503 104.230 C 137.270 108.568, 131.968 118.798, 130.738 119.212 C 130.057 119.440, 120.275 119.367, 109 119.049 C 68.829 117.914, 59.547 120.366, 67.634 129.977 C 70.123 132.935, 80.241 140.388, 83.428 141.611 C 84.236 141.921, 85.869 141.268, 87.058 140.161 C 90.376 137.070, 98.316 135.566, 111.500 135.533 C 123.916 135.502, 135.571 137.220, 138.701 139.543 C 140.299 140.728, 140.332 141.043, 139 142.350 C 138.175 143.160, 134.350 144.846, 130.500 146.095 C 124.167 148.151, 120.927 148.422, 96.500 148.944 C 66.495 149.584, 63.775 150.110, 63.171 155.385 C 62.917 157.603, 63.711 159.152, 66.671 162.210 C 68.777 164.385, 71.715 166.803, 73.200 167.582 C 77.382 169.777, 90.022 169.315, 104.557 166.436 C 133.985 160.607, 140.339 162.194, 141.735 175.725 C 142.249 180.701, 142.669 181.472, 146.301 184.103 C 153.382 189.232, 160.090 187.230, 163.381 179.006 C 165.770 173.034, 167.751 160.117, 168.443 146 C 168.779 139.125, 169.285 130.800, 169.566 127.500 L 170.078 121.500 165.694 118.756 C 163.282 117.247, 159.889 115.728, 158.154 115.381 C 153.803 114.511, 154.146 112.357, 159.451 107.234 C 167.258 99.695, 169.905 88.040, 170.065 60.500 C 170.109 52.800, 170.500 44.025, 170.932 41 C 171.549 36.680, 171.196 33.176, 169.288 24.668 C 166.183 10.826, 163.746 5, 161.059 5 C 159.952 5, 158.379 6.018, 157.564 7.262 M 159.116 10.250 C 157.461 14.709, 155.898 22.870, 152.595 44.293 L 149.234 66.086 151.613 81.293 C 152.922 89.657, 154.002 98.300, 154.012 100.500 C 154.022 102.700, 154.487 105.175, 155.044 106 C 156.649 108.375, 161.689 101.709, 164.117 94 C 165.802 88.650, 166.314 83.255, 167.011 63.500 C 167.477 50.300, 168.133 38.790, 168.470 37.923 C 169.119 36.247, 165.981 20.698, 163.388 12.750 C 161.691 7.546, 160.399 6.790, 159.116 10.250 M 145.107 88.606 L 142.769 100.166 145.740 103.333 C 147.374 105.075, 148.987 107.287, 149.324 108.250 C 150.194 110.732, 152 110.422, 152 107.790 C 152 103.735, 148.826 79.518, 148.131 78.273 C 147.754 77.598, 146.394 82.248, 145.107 88.606 M 139.500 83.536 C 137.850 84.292, 134.700 84.932, 132.500 84.958 C 127.665 85.016, 111.124 87.831, 109.162 88.929 C 108.254 89.437, 110.719 90.481, 116.129 91.880 C 120.733 93.071, 127.875 95.115, 132 96.423 C 136.125 97.730, 139.684 98.623, 139.909 98.407 C 140.686 97.662, 143.792 82, 143.147 82.081 C 142.791 82.126, 141.150 82.781, 139.500 83.536 M 140.999 105.250 C 140.998 107.611, 135.262 118.501, 132.881 120.662 C 130.525 122.801, 130.283 122.813, 110 121.844 C 81.950 120.504, 68 121.671, 68 125.359 C 68 127.044, 74.332 132.922, 80.006 136.504 L 84.085 139.079 86.603 137.098 C 94.132 131.175, 130.127 131.142, 139.839 137.049 C 145.344 140.396, 143.422 144.518, 134.950 147.529 C 124.802 151.136, 117.127 151.999, 94.685 152.056 C 72.864 152.112, 66.163 152.926, 65.282 155.630 C 64.878 156.869, 69.842 162.195, 73.847 164.819 C 77.319 167.094, 88.582 166.824, 102 164.145 C 128.483 158.855, 134.206 158.970, 140.146 164.911 C 143.192 167.957, 143.921 169.523, 144.519 174.303 C 145.388 181.264, 148.346 184.274, 153.847 183.799 C 161.668 183.122, 164.527 171.900, 166.453 134.327 L 167.026 123.155 164.043 121.030 C 162.402 119.862, 159.133 118.579, 156.779 118.179 C 153.349 117.596, 152.435 116.998, 152.172 115.164 C 151.891 113.197, 151.435 112.965, 148.932 113.515 C 146.168 114.122, 146.048 114.011, 146.578 111.327 C 146.981 109.288, 146.550 107.873, 145.030 106.250 C 142.694 103.757, 141 103.336, 140.999 105.250" stroke="none" fill="black" fill-rule="evenodd"/>
</svg>