<svg xmlns="http://www.w3.org/2000/svg" width="200" height="200" viewBox="0 0 200 200" version="1.1">
	<path d="M 142.837 14.877 C 141.848 16.032, 138.780 17.181, 134.865 17.861 C 123.836 19.778, 94.049 21.238, 79.750 20.562 C 67.740 19.994, 66 20.107, 66 21.456 C 66 22.806, 69.043 22.997, 90.250 22.974 C 112.551 22.950, 131.336 21.908, 136.437 20.411 C 137.644 20.056, 135.325 23.017, 130.848 27.546 L 123.197 35.287 118.530 34.112 C 114.940 33.208, 112.437 33.213, 107.682 34.133 C 97.777 36.050, 67.825 35.758, 60.043 33.669 C 53.992 32.044, 50 29.743, 50 27.880 C 50 27.434, 51.410 25.464, 53.133 23.501 C 56.298 19.896, 56.338 17.679, 53.202 19.629 C 51.451 20.718, 47 26.735, 47 28.013 C 47 28.408, 47.930 29.912, 49.066 31.356 C 53.370 36.829, 73.410 39.410, 97.389 37.581 C 120.301 35.833, 123.261 36.436, 117.752 41.728 C 113.422 45.889, 105.370 47.028, 76.500 47.565 C 64.400 47.791, 53.150 48.260, 51.500 48.608 C 38.038 51.449, 39.820 59.898, 55 65.202 C 64.088 68.378, 79.061 68.332, 87 65.104 C 90.025 63.874, 94.172 62.248, 96.215 61.490 L 99.931 60.113 97.037 64.108 C 94.814 67.176, 94.261 68.846, 94.652 71.302 C 95.028 73.659, 94.177 76.568, 91.415 82.365 L 87.668 90.231 86.056 85.865 C 84.616 81.966, 83.666 81.100, 77.152 77.750 C 64.422 71.203, 58.466 73.090, 55.917 84.481 C 55.205 87.662, 53.670 91.667, 52.505 93.382 C 50.566 96.238, 49.928 96.499, 44.925 96.486 C 40.576 96.474, 37.664 95.608, 30.635 92.236 C 25.780 89.906, 21.604 88, 21.355 88 C 20.326 88, 17.043 96.723, 17.026 99.500 C 17 103.733, 20.137 108.363, 24.402 110.386 C 35.252 115.535, 58.774 116.362, 80.750 112.368 C 85.026 111.591, 84.979 113.074, 80.515 119.702 L 77.030 124.876 80.015 127.861 C 83.914 131.760, 83.961 136.099, 80.169 142.054 C 77.096 146.881, 72.063 151.375, 56.232 163.426 C 42.382 173.969, 39.502 178.360, 43.692 182.549 C 45.057 183.914, 46.682 184.148, 52.093 183.761 C 60.921 183.130, 68.620 179.456, 81.931 169.524 C 93.799 160.667, 98.879 158.053, 104.282 158.022 C 110.216 157.988, 114.164 160.216, 123.455 168.844 C 132.470 177.217, 140.392 182, 145.246 182 C 152.403 182, 157.750 175.514, 156.423 168.442 C 154.528 158.339, 140.361 149.055, 126.775 149.012 C 123.126 149, 123.061 148.934, 123.612 145.750 C 123.920 143.963, 124.363 141.889, 124.596 141.143 C 125.447 138.414, 122.893 132.088, 119.936 129.600 C 116.809 126.968, 115.332 126.454, 101.006 123.013 C 94.668 121.491, 91.785 120.247, 89.652 118.114 C 87.209 115.671, 86.959 114.945, 87.932 113.127 C 89.032 111.072, 89.708 111.001, 107.785 111.024 C 125.558 111.047, 152.749 112.164, 170.738 113.611 L 178.976 114.273 180.966 109.887 C 182.967 105.475, 183.531 100.549, 182.379 97.545 C 180.425 92.452, 170.085 91.573, 146.552 94.499 C 133.635 96.105, 126.637 95.839, 125.309 93.692 C 124.924 93.068, 124.709 91.239, 124.831 89.629 C 125.184 85.006, 122.271 76.501, 119.215 73.230 L 116.421 70.239 118.549 67.133 L 120.677 64.028 122.664 66.264 C 123.756 67.494, 126.301 70.807, 128.319 73.626 C 132.829 79.927, 136.587 81.748, 141.802 80.158 C 149.353 77.857, 150.646 75.869, 155.554 59 C 164.436 28.471, 164.653 17.364, 156.326 19.454 C 152.443 20.429, 139.832 33.571, 129.375 47.542 L 120.362 59.584 116.431 57.818 C 114.269 56.847, 111.394 56.041, 110.042 56.026 C 107.702 56.001, 107.788 55.791, 111.843 51.660 C 115.069 48.373, 117.352 47.031, 121.255 46.130 C 129.184 44.300, 132.174 40.636, 128.078 37.767 C 126.277 36.506, 126.775 35.798, 136.032 26.461 C 141.463 20.982, 145.927 15.713, 145.953 14.750 C 146.014 12.480, 144.849 12.527, 142.837 14.877 M 149.383 28.175 C 140.244 36.933, 122.302 60.735, 123.551 62.445 C 124.073 63.159, 126.422 66.491, 128.771 69.848 C 135.002 78.753, 138.575 80.012, 145.080 75.592 C 148.415 73.325, 148.871 72.309, 152.825 58.342 C 163.045 22.238, 162.309 15.788, 149.383 28.175 M 121.679 41.546 L 119.859 44.063 123.027 42.771 C 126.258 41.452, 127.150 39.689, 124.803 39.264 C 124.086 39.134, 122.681 40.161, 121.679 41.546 M 103.500 49.099 C 100.200 49.560, 87.375 50.102, 75 50.304 C 57.125 50.596, 51.729 51.003, 48.750 52.285 C 44.343 54.181, 44.119 55.279, 47.497 58.410 C 53.856 64.303, 75.843 66.692, 86 62.594 C 88.475 61.596, 93.699 59.591, 97.608 58.139 C 102.699 56.249, 105.637 54.436, 107.961 51.750 C 109.747 49.688, 110.823 48.059, 110.354 48.131 C 109.884 48.203, 106.800 48.639, 103.500 49.099 M 102.196 62.298 C 100.438 64.111, 99 66.099, 99 66.716 C 99 67.404, 101.792 67.983, 106.250 68.219 C 113.004 68.576, 113.653 68.428, 115.745 66.051 C 118.639 62.763, 118.580 61.585, 115.453 60.161 C 110.524 57.915, 105.689 58.694, 102.196 62.298 M 102.390 70.658 C 100.497 71.057, 100.209 72.029, 99.603 80.066 C 99.230 84.996, 98.659 89.810, 98.333 90.765 C 98.007 91.719, 100.956 87.820, 104.887 82.101 C 108.818 76.381, 111.914 71.583, 111.767 71.440 C 111.134 70.820, 104.317 70.252, 102.390 70.658 M 103.268 89.750 C 97.227 98.963, 92.001 107.012, 91.653 107.639 C 91.192 108.466, 93.270 108.642, 99.260 108.283 C 107.114 107.811, 150.781 109.287, 169.167 110.645 L 177.834 111.285 179.006 107.375 C 179.650 105.224, 180.025 102.122, 179.839 100.482 C 179.549 97.931, 178.855 97.296, 175.035 96.088 C 171.128 94.852, 168.690 94.886, 155.535 96.361 C 147.266 97.288, 137.238 98.036, 133.250 98.023 C 124.269 97.994, 122 96.305, 122 89.649 C 122 87.256, 121.481 83.769, 120.847 81.899 C 119.535 78.032, 116.261 73, 115.057 73 C 114.613 73, 109.308 80.537, 103.268 89.750 M 61.215 78.250 C 60.649 78.938, 59.180 82.969, 57.950 87.209 C 55.010 97.351, 52.757 99.511, 45.167 99.467 C 40.704 99.441, 37.724 98.600, 31.140 95.507 C 23.067 91.716, 22.732 91.647, 21.390 93.482 C 19.754 95.718, 19.566 101.320, 21.033 104.062 C 22.560 106.914, 28.795 109.732, 36.580 111.087 C 46.872 112.880, 80.166 111.168, 82.613 108.720 C 82.907 108.427, 83.812 104.973, 84.625 101.044 C 86.008 94.362, 85.979 93.567, 84.178 88.701 C 82.429 83.973, 81.688 83.204, 76.039 80.250 C 69.533 76.847, 63.087 75.978, 61.215 78.250 M 93.200 84.860 C 89.657 92.784, 89.306 95.179, 91.430 96.942 C 92.571 97.889, 93.072 97.735, 93.903 96.181 C 95.115 93.917, 97.338 80.513, 96.779 78.838 C 96.571 78.214, 94.961 80.923, 93.200 84.860 M 87.658 99.632 C 86.390 103.928, 85.837 108.999, 86.639 108.988 C 87.112 108.981, 88.555 107.348, 89.844 105.359 C 92.183 101.749, 92.183 101.739, 90.198 99.754 C 88.280 97.836, 88.190 97.831, 87.658 99.632 M 83.052 120.928 L 80.864 124 82.993 126.990 C 89.946 136.755, 85.112 144.732, 61.248 162.875 C 48.517 172.554, 45 176.050, 45 179.028 C 45 181.732, 47.530 182.125, 54.965 180.575 C 63.658 178.762, 67.131 176.943, 80 167.465 C 93.796 157.304, 99.674 154.564, 106.061 155.321 C 112.857 156.126, 116.077 158.067, 125.785 167.212 C 134.616 175.530, 140.339 178.940, 145.527 178.978 C 154.764 179.045, 156.667 167.908, 148.731 160.229 C 143.781 155.439, 136.669 152.730, 127.644 152.196 L 119.787 151.731 120.596 147.615 C 121.041 145.352, 121.413 141.539, 121.423 139.141 C 121.448 132.843, 117.638 129.698, 107.331 127.510 C 95.756 125.053, 90.902 123.280, 87.915 120.418 L 85.239 117.855 83.052 120.928" stroke="none" fill="black" fill-rule="evenodd"/>
</svg>