<svg xmlns="http://www.w3.org/2000/svg" width="200" height="200" viewBox="0 0 200 200" version="1.1">
	<path d="M 137.994 11.934 C 134.427 13.019, 129.012 15.907, 125.406 18.648 C 123.217 20.312, 120.992 21, 117.805 21 C 112.799 21, 107 22.684, 107 24.138 C 107 24.656, 107.876 26.796, 108.946 28.894 C 110.756 32.443, 110.779 32.870, 109.274 35.020 C 108.383 36.291, 106.214 39.724, 104.453 42.649 L 101.250 47.967 100.599 43.892 C 99.763 38.664, 96.648 32.567, 93.791 30.566 C 89.867 27.817, 85.991 28.729, 72.216 35.640 C 60.304 41.616, 58.186 42.351, 51.716 42.751 C 45.162 43.157, 43.979 42.922, 38.824 40.191 C 33.568 37.407, 32 37.154, 32 39.090 C 32 40.382, 45.253 48.731, 51.020 51.073 C 54.034 52.297, 59.181 54.059, 62.458 54.990 L 68.416 56.681 61.958 57.285 C 26.876 60.567, 19 61.436, 19 62.026 C 19 62.402, 22.938 64.540, 27.752 66.776 C 43.281 73.991, 61.462 77.727, 85.750 78.694 L 101 79.301 101 85.919 C 101 91.354, 100.547 93.202, 98.464 96.268 C 96.124 99.712, 95.564 99.996, 91.214 99.942 C 88.621 99.911, 84.755 99.573, 82.622 99.192 C 78.985 98.543, 78.643 98.172, 77.122 93.227 C 72.261 77.423, 61.538 76.017, 47.318 89.319 C 40.566 95.635, 33.762 104.488, 30.151 111.652 C 28.356 115.215, 28.262 115.973, 29.489 116.991 C 33.556 120.366, 56.789 120.184, 79 116.602 C 83.675 115.848, 87.646 115.362, 87.824 115.522 C 88.002 115.683, 87.458 117.147, 86.615 118.777 L 85.083 121.740 73.722 121.238 C 61.571 120.702, 58 121.549, 58 124.965 C 58 127.082, 62.861 131.442, 73.932 139.255 C 78.019 142.140, 81.544 145.063, 81.765 145.750 C 82.227 147.186, 71.198 147.380, 62.154 146.094 C 56.810 145.334, 56.806 145.336, 54.508 148.917 C 49.193 157.200, 48.795 165.420, 53.415 171.477 C 56.934 176.091, 66.674 180.608, 76.298 182.089 C 93.244 184.698, 111.500 181.042, 111.500 175.040 C 111.500 171.940, 106.825 168.649, 99.115 166.322 C 96.027 165.390, 93.126 164.315, 92.669 163.933 C 90.031 161.728, 102.047 147.608, 109.723 143.892 C 118.251 139.764, 121.064 144.454, 118.604 158.705 C 117.769 163.546, 116.391 169.474, 115.543 171.879 C 114.694 174.284, 114 176.803, 114 177.478 C 114 179.050, 125.850 184.411, 133 186.074 C 140.167 187.742, 153.129 187.761, 159.732 186.114 C 167.201 184.251, 173 179.828, 173 175.994 C 173 170.482, 167.610 167.070, 155.425 164.869 C 151.616 164.181, 149.400 163.450, 150.500 163.245 C 155.849 162.249, 164.952 158.710, 166.464 157.040 C 170.211 152.899, 168.310 150.737, 153.818 142.656 L 150.511 140.812 153.027 139.494 C 155.560 138.166, 166.229 135.793, 175.500 134.495 L 180.500 133.794 177 130.856 C 169.584 124.631, 154.047 122.037, 123.526 121.930 C 112.512 121.891, 102.669 121.532, 101.653 121.133 C 99.976 120.473, 99.953 120.284, 101.403 119.080 C 102.281 118.352, 103 116.733, 103 115.485 C 103 112.572, 103.506 112.410, 117.117 110.956 C 124.971 110.117, 129.958 110.042, 133.124 110.718 L 137.722 111.698 138.340 102.984 C 139.417 87.823, 140.457 87.579, 149.840 100.283 C 157.543 110.713, 162.082 115, 165.422 115 C 173.199 115, 176.302 99.199, 176.422 59 C 176.490 35.998, 176.258 31.717, 174.670 26.570 C 172.453 19.386, 167.594 13.995, 163.350 14.009 C 158.752 14.025, 150.750 19.356, 143.652 27.133 C 140.016 31.116, 136.902 34.178, 136.731 33.938 C 132.605 28.141, 130.231 25.503, 127.814 24.033 L 124.859 22.236 127.857 20.102 C 131.709 17.359, 138.997 14.050, 141.250 14.022 C 143.288 13.996, 143.649 17.919, 141.907 21.173 C 141.131 22.623, 141.125 23.525, 141.884 24.284 C 142.644 25.044, 143.396 24.297, 144.477 21.709 C 146.567 16.708, 146.389 14.386, 143.777 12.557 C 141.327 10.840, 141.522 10.861, 137.994 11.934 M 155.946 19.821 C 151.805 22.449, 139 35.423, 139 36.991 C 139 39.053, 146.919 61.130, 146.956 59.172 C 147.042 54.616, 149.116 32.476, 149.587 31.083 C 149.905 30.142, 150.400 30, 151.062 30.662 C 152.049 31.649, 149.637 64.160, 148.432 66.109 C 147.090 68.282, 145.001 66.710, 143.969 62.750 C 142.096 55.564, 139.004 45.651, 137.676 42.575 L 136.413 39.649 128.839 51.075 L 121.265 62.500 120.711 71 C 120.406 75.675, 119.412 81.613, 118.503 84.195 C 116.531 89.796, 110.259 97.236, 106.034 98.986 C 103.242 100.143, 103 100.631, 103 105.121 C 103 107.805, 103.112 109.997, 103.250 109.994 C 103.388 109.991, 106.200 109.537, 109.500 108.984 C 112.800 108.432, 119.840 107.940, 125.145 107.891 L 134.790 107.802 135.395 104.776 C 135.728 103.112, 136 100.217, 136 98.343 C 136 93.908, 138.495 88, 140.367 88 C 143.509 88, 145.114 89.504, 152.677 99.534 C 163.998 114.550, 166.926 115.401, 170.204 104.632 C 174.380 90.916, 175.366 35.993, 171.615 26.028 C 168.106 16.704, 163.644 14.936, 155.946 19.821 M 111.302 24.645 C 110.399 25.012, 110.377 25.734, 111.212 27.566 C 112.627 30.671, 113.003 30.629, 116.187 27 L 118.820 24 115.660 24.079 C 113.922 24.122, 111.961 24.377, 111.302 24.645 M 118.887 27.750 C 113.867 33.301, 113.912 33.054, 116.448 41.051 C 117.747 45.148, 119.134 50.677, 119.531 53.338 C 120.389 59.087, 120.174 59.249, 128.949 46.271 L 135.189 37.043 133.039 33.564 C 130.387 29.272, 125.434 25, 123.110 25 C 122.155 25, 120.255 26.238, 118.887 27.750 M 74.968 37.354 C 64.150 42.985, 55.890 45.940, 50.568 46.082 C 47.738 46.158, 47.926 46.358, 53 48.673 C 56.025 50.053, 62.325 52.197, 67 53.438 C 72.510 54.901, 75.605 56.229, 75.797 57.213 C 76.128 58.900, 76.930 58.783, 45.654 61.618 C 24.579 63.529, 24.432 63.681, 39.089 68.415 C 52.655 72.796, 67.382 75.150, 84.913 75.739 C 100.755 76.271, 101.296 76.224, 100.484 74.395 C 100.022 73.353, 99.513 67.354, 99.354 61.064 C 99.010 47.465, 97.680 40.308, 94.660 35.812 C 91.118 30.538, 87.521 30.820, 74.968 37.354 M 110.178 38.286 C 109.591 38.993, 107.668 42.479, 105.905 46.033 C 102.859 52.172, 102.709 53.011, 102.892 62.893 C 102.999 68.612, 103.581 74.217, 104.186 75.348 C 104.997 76.863, 104.986 77.505, 104.143 77.786 C 103.491 78.003, 103.025 80.172, 103.059 82.833 C 103.102 86.246, 103.381 87.097, 104.096 86 C 104.635 85.175, 108.009 79.550, 111.595 73.500 C 117.722 63.164, 118.077 62.228, 117.489 58 C 116.599 51.604, 112.727 37, 111.922 37 C 111.549 37, 110.765 37.579, 110.178 38.286 M 110.250 81.119 C 106.263 88.059, 103 94.472, 103 95.369 C 103 98.177, 105.200 97.174, 110.028 92.165 C 113.698 88.358, 115.059 85.960, 116.432 80.888 C 117.391 77.345, 118.024 73.109, 117.838 71.473 C 117.538 68.832, 116.691 69.908, 110.250 81.119 M 55.946 85.851 C 47.932 90.989, 32 110.097, 32 114.570 C 32 116.326, 45.052 117.426, 55.865 116.582 C 64.133 115.937, 83.135 113.489, 87.652 112.488 C 89.309 112.121, 95.003 104.630, 94.999 102.822 C 94.999 102.645, 92.861 102.463, 90.249 102.417 C 87.637 102.371, 83.409 102.013, 80.853 101.621 C 76.474 100.949, 76.166 100.696, 75.517 97.239 C 74.688 92.821, 72.498 88.301, 69.709 85.250 C 66.778 82.045, 61.523 82.275, 55.946 85.851 M 96.212 106.500 L 94.026 111 97.013 111 C 99.886 111, 100 110.829, 100 106.500 C 100 104.025, 99.640 102, 99.199 102 C 98.759 102, 97.415 104.025, 96.212 106.500 M 95.206 113.727 C 92.371 114.077, 91.553 114.866, 89.330 119.399 L 86.748 124.664 73.874 124.199 C 62.977 123.806, 61 123.961, 61 125.211 C 61 126.024, 65.388 129.759, 70.750 133.513 C 82.872 141.998, 85 143.884, 85 146.139 C 85 149.407, 81.314 150.324, 71.058 149.609 C 65.801 149.243, 60.648 148.843, 59.607 148.721 C 57.033 148.420, 53.065 156.190, 53.028 161.602 C 52.971 169.919, 59.642 175.640, 72.848 178.598 C 86.744 181.711, 110.115 179.169, 108.770 174.691 C 108.246 172.948, 98.078 168, 95.021 168 C 89.288 168, 88.209 161.758, 92.842 155.400 C 96.429 150.478, 103.837 143.653, 107.836 141.585 C 111.032 139.932, 116.706 139.500, 118.600 140.765 C 122.472 143.351, 123.048 153.083, 120.063 165.500 C 119.005 169.900, 117.834 174.290, 117.461 175.255 C 116.918 176.660, 117.887 177.517, 122.313 179.543 C 138.372 186.895, 162.749 186.219, 169.019 178.248 C 170.792 175.995, 170.868 175.433, 169.651 173.593 C 167.527 170.381, 159.637 167.961, 147.250 166.722 C 140.237 166.021, 136 165.172, 136 164.470 C 136 163.843, 140.771 162.346, 146.750 161.097 C 158.874 158.563, 166.383 155.670, 165.770 153.767 C 165.546 153.070, 161.793 150.446, 157.431 147.936 C 148.190 142.619, 146.976 140.202, 152.009 137.141 C 153.736 136.090, 157.928 134.712, 161.325 134.078 C 164.721 133.443, 168.824 132.662, 170.442 132.341 L 173.384 131.757 170.765 130.385 C 163.740 126.704, 156.624 125.804, 128.500 125.037 C 113.100 124.618, 99.713 123.940, 98.750 123.530 C 96.605 122.618, 96.472 119.683, 98.500 118 C 100.023 116.736, 100.623 112.867, 99.250 113.160 C 98.838 113.248, 97.018 113.503, 95.206 113.727" stroke="none" fill="black" fill-rule="evenodd"/>
</svg>