<svg xmlns="http://www.w3.org/2000/svg" width="200" height="200" viewBox="0 0 200 200" version="1.1">
	<path d="M 140.496 14.919 C 138.920 16.472, 135.662 17.221, 125 18.478 C 108.023 20.481, 74.793 21.485, 65.286 20.283 C 59.723 19.579, 57.961 19.659, 57.588 20.632 C 57.263 21.477, 58.652 22.158, 61.802 22.697 C 69.279 23.975, 106.188 23.333, 121.479 21.657 C 129.168 20.815, 135.551 20.217, 135.663 20.330 C 135.776 20.442, 132.653 23.833, 128.724 27.864 C 121.970 34.794, 121.388 35.162, 118.051 34.621 C 116.110 34.306, 106.192 34.984, 96.011 36.128 C 76.031 38.374, 65.830 38.209, 59.436 35.538 C 54.326 33.404, 50.324 29.511, 48.946 25.335 C 47.478 20.889, 44.764 20.691, 46.035 25.123 C 47.889 31.587, 53.076 36.599, 60.500 39.100 C 65.846 40.901, 83.313 40.682, 98.458 38.625 C 111.667 36.830, 119 36.553, 119 37.848 C 119 38.314, 116.333 41.239, 113.074 44.348 L 107.148 50 87.824 50.026 C 65.805 50.055, 50.686 51.269, 45.538 53.420 C 37.949 56.590, 42.113 62.370, 56.938 69.244 L 65.376 73.157 69.155 71.033 C 73.042 68.849, 84.309 66.048, 89.336 66.017 C 92.070 66.001, 91.910 66.285, 84.836 73.990 L 77.500 81.981 52 82.240 C 28.807 82.477, 26.138 82.681, 22.500 84.500 C 20.300 85.600, 18.362 87.246, 18.194 88.158 C 17.702 90.829, 22.860 94.738, 31.990 98.614 C 41.393 102.606, 42.608 102.767, 52 101.268 C 55.575 100.697, 58.702 100.418, 58.949 100.647 C 59.196 100.877, 54.949 105.531, 49.510 110.990 L 39.623 120.914 33.561 121.207 C 26.887 121.530, 25.883 123.024, 31.450 124.352 L 35.021 125.204 30.011 130.988 C 25.192 136.550, 23.946 139, 25.937 139 C 26.452 139, 29.693 135.850, 33.140 132 C 39.381 125.030, 39.430 125, 44.622 125 C 53.282 125, 53.485 125.302, 49.567 132.354 C 42.319 145.399, 40.398 155.946, 43.896 163.500 C 49.172 174.895, 62.690 179.746, 86.402 178.751 C 93.056 178.471, 100.567 177.703, 103.094 177.042 C 107.617 175.860, 107.784 175.904, 114.047 179.952 C 122.222 185.236, 129.421 187.334, 137.592 186.813 C 145.680 186.298, 151.274 182.555, 155.250 174.998 C 160.420 165.173, 157.984 149.797, 150.379 144.258 L 147.503 142.163 150.502 141.505 C 163.205 138.719, 171 135.120, 171 132.039 C 171 128.939, 162.245 125.008, 155.307 124.994 C 150.498 124.985, 145.576 123.070, 143.702 120.480 C 141.984 118.107, 141.980 117.625, 143.611 109.748 C 144.550 105.212, 145.915 101.006, 146.643 100.401 C 147.372 99.797, 152.363 99.009, 157.734 98.649 C 174.704 97.514, 181.678 94.612, 177.776 90.309 C 176.874 89.314, 172.079 86.302, 167.121 83.617 C 162.162 80.931, 156.642 77.512, 154.855 76.020 L 151.605 73.307 156.938 49.589 C 160.824 32.306, 161.971 25.571, 161.168 24.768 C 159.775 23.375, 159.911 22.956, 155.704 41.681 C 153.040 53.545, 151.716 57.549, 149.647 60.007 C 147.699 62.323, 147 64.268, 147 67.377 C 147 69.700, 147.386 72.028, 147.858 72.550 C 148.343 73.087, 147.647 78.496, 146.257 85 L 143.799 96.500 131.230 96.143 C 112.674 95.615, 106.880 98.046, 112.751 103.895 C 115.189 106.324, 118.760 108.559, 134.618 117.586 C 138.090 119.562, 138.660 120.327, 138.251 122.465 C 137.770 124.982, 137.692 125, 127.540 125 C 112.314 125, 108.931 123.573, 85.350 107.205 C 79.267 102.982, 73.983 100.424, 67.054 98.346 C 66.065 98.049, 67.500 96.020, 71.595 91.925 L 77.583 85.937 91.541 85.592 C 112.271 85.078, 127.114 80.668, 127.805 74.817 C 128.371 70.024, 119.684 65.701, 106.719 64.323 C 103.539 63.985, 100.729 63.371, 100.474 62.957 C 100.218 62.544, 102.074 59.910, 104.597 57.103 C 108.517 52.743, 109.718 51.998, 112.843 51.986 C 114.854 51.979, 117.533 51.696, 118.795 51.358 C 121.931 50.518, 125.374 43.621, 124.597 39.736 C 124.064 37.070, 124.836 35.883, 132.148 28.133 C 136.627 23.385, 141.351 19.125, 142.646 18.667 C 145.331 17.716, 145.507 17.076, 143.746 14.667 C 142.571 13.061, 142.366 13.076, 140.496 14.919 M 117.042 44.448 L 112.584 49 115.766 49 C 118.306 49, 119.269 48.381, 120.535 45.933 C 123.465 40.267, 121.821 39.568, 117.042 44.448 M 76 53.032 C 56.199 53.667, 45.733 55.005, 44.461 57.063 C 43.549 58.539, 48.360 62.088, 56.660 66.063 L 64.821 69.971 70.404 67.415 C 74.104 65.721, 79.277 64.493, 85.743 63.773 C 96.106 62.619, 98.332 61.465, 103.159 54.750 L 105.136 52 101.318 52.171 C 99.218 52.265, 87.825 52.652, 76 53.032 M 88.500 74.150 L 80.500 82.473 86 83.122 C 94.408 84.113, 115.476 80.750, 122.250 77.335 C 129.680 73.589, 120.354 68.369, 102.912 66.511 L 96.500 65.828 88.500 74.150 M 149.079 67.583 C 149.127 68.748, 149.364 68.985, 149.683 68.188 C 149.972 67.466, 149.936 66.603, 149.604 66.271 C 149.272 65.939, 149.036 66.529, 149.079 67.583 M 150.690 77.771 C 149.908 79.187, 146.690 96.023, 147.119 96.452 C 147.775 97.108, 167.952 95.076, 172.280 93.918 C 174.359 93.362, 175.802 92.489, 175.486 91.978 C 175.170 91.467, 171.894 89.404, 168.206 87.395 C 164.518 85.385, 159.158 82.233, 156.296 80.391 C 153.434 78.548, 150.911 77.369, 150.690 77.771 M 39.500 85.110 C 26.955 85.698, 21 86.916, 21 88.894 C 21 90.328, 26.660 93.524, 35.395 97.022 C 42.508 99.870, 43.675 100.067, 47.574 99.086 C 49.945 98.489, 54.062 98, 56.722 98 C 61.341 98, 61.843 97.712, 67.935 91.565 L 74.313 85.130 63.406 84.815 C 57.408 84.642, 46.650 84.774, 39.500 85.110 M 114.239 99.831 C 112.318 101.050, 115.953 103.906, 128.289 110.869 C 135.311 114.833, 139.216 116.530, 139.473 115.730 C 139.975 114.167, 143 100.290, 143 99.553 C 143 98.677, 115.640 98.942, 114.239 99.831 M 54.124 110.080 C 49.518 115.031, 46.048 119.381, 46.413 119.746 C 46.778 120.111, 49.979 120.595, 53.526 120.821 C 57.073 121.047, 59.772 121.561, 59.523 121.963 C 58.998 122.812, 79.724 123.994, 95 123.986 L 105.500 123.981 99.500 120.151 C 96.200 118.045, 90.008 113.804, 85.740 110.729 C 78.005 105.155, 68.914 100.965, 64.712 101.039 C 63.240 101.064, 59.698 104.089, 54.124 110.080 M 141 123.559 C 141 124.416, 141.457 124.835, 142.016 124.490 C 142.575 124.144, 142.774 123.443, 142.457 122.931 C 141.600 121.544, 141 121.802, 141 123.559 M 58.062 127.761 C 58.853 128.839, 63.158 135.089, 67.629 141.651 C 76.770 155.064, 81.299 159.590, 86.575 160.580 C 93.331 161.847, 102.623 157.520, 112.946 148.297 L 117.392 144.325 108.946 143.728 C 104.301 143.400, 99.696 142.822, 98.713 142.444 C 96.609 141.636, 94.078 137.052, 94.728 135.229 C 95.900 131.941, 108.134 129.168, 122.822 128.860 L 129.500 128.720 122 128.002 C 117.875 127.607, 101.478 126.950, 85.562 126.543 C 56.939 125.810, 56.640 125.823, 58.062 127.761 M 130.813 128.683 C 131.534 128.972, 132.397 128.936, 132.729 128.604 C 133.061 128.272, 132.471 128.036, 131.417 128.079 C 130.252 128.127, 130.015 128.364, 130.813 128.683 M 140.813 128.683 C 141.534 128.972, 142.397 128.936, 142.729 128.604 C 143.061 128.272, 142.471 128.036, 141.417 128.079 C 140.252 128.127, 140.015 128.364, 140.813 128.683 M 146.750 128.662 C 147.438 128.940, 148.563 128.940, 149.250 128.662 C 149.938 128.385, 149.375 128.158, 148 128.158 C 146.625 128.158, 146.063 128.385, 146.750 128.662 M 159.628 129.527 C 159.206 130.627, 157.321 131, 152.190 131 L 145.317 131 144.089 135.097 C 143.414 137.351, 143.019 139.353, 143.213 139.546 C 143.799 140.132, 160.445 136.259, 164.349 134.628 C 166.357 133.789, 168 132.629, 168 132.051 C 168 131.473, 167.830 131, 167.622 131 C 167.414 131, 165.658 130.337, 163.719 129.527 C 160.614 128.230, 160.126 128.230, 159.628 129.527 M 51.702 133.983 C 44.988 145.938, 43.198 157.532, 47.082 163.903 C 49.906 168.536, 52.528 170.567, 59 173.140 C 66.693 176.197, 88.225 176.946, 99.978 174.565 L 108.154 172.908 113.327 176.277 C 127.414 185.450, 139.208 186.892, 147.628 180.470 C 155.216 174.683, 157.803 160.807, 152.938 151.993 C 150.570 147.704, 144.608 142.631, 142.687 143.271 C 142.165 143.445, 140.517 147.705, 139.026 152.738 C 134.010 169.664, 131.943 173.621, 130.322 169.396 C 129.750 167.906, 132.440 148.622, 133.666 145.428 C 134.091 144.320, 133.197 144, 129.672 144 C 123.388 144, 120.819 145.180, 113.396 151.478 C 97.669 164.820, 87.419 166.939, 77.648 158.868 C 75.529 157.118, 70.767 151.116, 67.066 145.530 C 59.090 133.492, 55.827 129, 55.062 129.001 C 54.753 129.002, 53.241 131.244, 51.702 133.983 M 119 132.010 C 101.197 132.991, 94.683 135.112, 98.316 138.745 C 101.025 141.454, 129.552 141.749, 133.817 139.113 C 134.507 138.687, 135.339 136.687, 135.666 134.669 C 136.217 131.276, 136.083 131.012, 133.881 131.161 C 132.571 131.249, 125.875 131.631, 119 132.010 M 138.625 134.125 C 137.757 138.466, 137.842 140, 138.953 140 C 139.477 140, 140.375 138.313, 140.947 136.250 C 142.294 131.401, 142.269 131, 140.625 131 C 139.869 131, 138.969 132.406, 138.625 134.125 M 136.527 145.250 C 133.524 158.461, 133.488 162.449, 136.468 151.830 C 137.428 148.406, 138.439 145.019, 138.714 144.303 C 138.989 143.586, 138.724 143, 138.126 143 C 137.528 143, 136.808 144.012, 136.527 145.250" stroke="none" fill="black" fill-rule="evenodd"/>
</svg>