<svg xmlns="http://www.w3.org/2000/svg" width="200" height="200" viewBox="0 0 200 200" version="1.1">
	<path d="M 126.562 8.347 C 122.917 11.993, 120.607 25.418, 119.228 50.990 L 118.500 64.480 113.920 65.133 C 105.119 66.387, 99.487 70.250, 82.850 86.441 C 61.685 107.037, 52.428 113.509, 39.907 116.460 C 36.383 117.291, 32.900 117.977, 32.166 117.985 C 30.418 118.005, 34.997 112.279, 47.195 99.192 C 56.356 89.363, 61 82.490, 61 78.761 C 61 76.125, 56.190 71.218, 52.372 69.958 C 50.413 69.311, 45.383 68.252, 41.195 67.605 L 33.580 66.427 47.040 64.107 C 69.100 60.305, 80 56.467, 80 52.500 C 80 48.743, 70.252 45.343, 49.656 41.917 C 34.541 39.402, 34.470 39.136, 48.215 36.504 C 67.375 32.835, 91.938 32.826, 102.950 36.483 C 108.533 38.338, 113 42.824, 113 46.577 C 113 49.269, 114.465 49.835, 115.365 47.491 C 116.126 45.508, 114.394 41.063, 111.769 38.260 C 107.386 33.581, 99.795 31.730, 83 31.245 C 58.953 30.549, 31 35.230, 31 39.952 C 31 41.386, 31.994 41.975, 35.250 42.471 C 61.628 46.485, 71.931 48.764, 75.498 51.374 C 78.034 53.229, 77.415 53.799, 70.298 56.162 C 65.725 57.681, 23.932 65.975, 20.750 65.995 C 20.337 65.998, 20 66.675, 20 67.500 C 20 68.624, 21.197 69, 24.776 69 C 32.361 69, 46.125 70.890, 50.628 72.550 C 61.900 76.706, 60.692 80.708, 42.140 100.664 C 33.206 110.273, 27 118.261, 27 120.150 C 27 120.618, 28.462 121.032, 30.250 121.070 C 32.930 121.128, 33.149 121.284, 31.500 121.960 C 29.599 122.739, 29.624 122.827, 32 123.745 C 33.375 124.276, 39.165 125.006, 44.866 125.368 C 50.567 125.729, 55.598 126.252, 56.046 126.528 C 56.494 126.805, 55.592 129.837, 54.041 133.266 C 47.357 148.046, 45.119 162.669, 48.377 170.282 C 53.138 181.410, 65.514 184.500, 93.322 181.504 L 109.708 179.739 116.104 183.283 C 132.467 192.351, 145.095 192.045, 154.017 182.366 C 158.681 177.306, 160.509 173.538, 161.473 167 C 162.738 158.420, 158.694 148.063, 152.490 143.993 L 149.852 142.263 159.430 140.538 C 169.958 138.643, 173.648 136.618, 172.599 133.312 C 171.871 131.019, 161.239 124.977, 159.229 125.714 C 158.530 125.971, 155.975 125.360, 153.550 124.358 C 149.587 122.718, 149.197 122.263, 149.683 119.834 C 150.389 116.306, 146.725 112.542, 141.115 111.031 C 137.156 109.965, 137 109.770, 137 105.878 C 137 103.653, 137.338 102.006, 137.750 102.218 C 147.430 107.179, 148.277 107.369, 151.919 105.392 C 156.298 103.016, 159.494 96.938, 161.591 87 C 163.241 79.178, 164.862 27.572, 163.614 22.600 C 162.660 18.797, 158.125 14, 155.484 14 C 148.470 14, 142.375 34.299, 137.918 72.500 C 136.762 82.400, 135.653 91.400, 135.453 92.500 C 135.120 94.328, 134.506 94.457, 128.294 94 L 121.500 93.500 121.500 88.133 L 121.500 82.765 126.500 80.809 C 132.307 78.537, 136 75.428, 136 72.811 C 136 70.720, 131.300 67.518, 125.750 65.826 L 122 64.683 122.003 56.092 C 122.010 38.323, 125.322 13.727, 128.168 10.297 C 132.445 5.144, 137.188 34.583, 133.956 46.221 C 132.654 50.907, 129.695 53.089, 125.721 52.294 C 123.432 51.836, 122.840 52.025, 123.193 53.098 C 123.778 54.877, 129.268 55.462, 131.943 54.030 C 135.414 52.173, 137.245 47.114, 137.768 37.939 C 138.333 28.029, 136.781 17.358, 133.900 11.339 C 131.403 6.124, 129.544 5.365, 126.562 8.347 M 153.183 18.494 C 148.330 24.664, 142.961 49.457, 139.438 81.971 L 137.766 97.402 140.875 100.180 C 150.215 108.525, 156.348 102.328, 159.495 81.369 C 161.257 69.626, 162.508 37.571, 161.552 28.642 C 160.976 23.261, 160.251 21.193, 158.093 18.778 L 155.363 15.723 153.183 18.494 M 110.500 68.802 C 102.951 71.425, 97.697 75.512, 79.722 92.744 C 70.682 101.410, 60.743 110.020, 57.635 111.877 C 51.115 115.773, 40.143 119.968, 36.205 120.070 C 33.794 120.133, 33.717 120.234, 35.500 121 C 40.050 122.955, 46.892 122.027, 56.730 118.120 C 77.133 110.016, 88.883 106.703, 98 106.483 C 102.675 106.370, 109.313 105.707, 112.750 105.009 L 119 103.740 119 100.012 L 119 96.284 110.003 95.054 C 104.208 94.263, 100.203 93.167, 98.753 91.977 C 96.629 90.235, 96.598 90.030, 98.202 88.398 C 99.139 87.446, 104.089 85.279, 109.202 83.583 L 118.500 80.500 118.796 73.750 C 119.136 65.982, 118.946 65.868, 110.500 68.802 M 121.667 68.667 C 121.300 69.033, 121 71.508, 121 74.167 C 121 77.757, 121.379 79, 122.473 79 C 125.046 79, 133 74.657, 133 73.252 C 133 72.510, 131.088 71.034, 128.750 69.973 C 124.170 67.894, 122.709 67.625, 121.667 68.667 M 108.250 86.662 C 104.263 88.040, 101 89.533, 101 89.981 C 101 90.852, 111.907 93, 116.332 93 C 118.827 93, 119 92.709, 119 88.500 C 119 83.120, 118.669 83.063, 108.250 86.662 M 121.420 96.913 C 121.189 97.144, 121 99.275, 121 101.648 C 121 105.540, 120.731 106.021, 118.250 106.568 C 116.737 106.902, 115.050 107.298, 114.500 107.449 C 113.950 107.600, 117.907 108.066, 123.294 108.484 C 128.681 108.902, 133.342 108.991, 133.652 108.681 C 133.962 108.371, 134.280 105.728, 134.358 102.809 L 134.500 97.500 128.170 96.996 C 124.689 96.719, 121.651 96.682, 121.420 96.913 M 84 111.601 C 79.325 112.973, 71 115.748, 65.500 117.769 L 55.500 121.442 60 122.088 C 62.475 122.443, 73.275 123.030, 84 123.391 C 94.725 123.753, 107.100 124.300, 111.500 124.608 L 119.500 125.166 116.301 123.129 C 114.542 122.008, 111.392 118.865, 109.301 116.143 C 107.211 113.421, 104.466 110.700, 103.203 110.097 C 99.620 108.386, 93.257 108.884, 84 111.601 M 111.574 114.854 C 114.818 119.471, 121.958 123.546, 128.609 124.575 L 132.718 125.210 133.420 119 C 133.807 115.584, 133.905 112.571, 133.637 112.304 C 133.370 112.037, 127.638 111.564, 120.899 111.254 L 108.647 110.689 111.574 114.854 M 136.636 114.507 C 136.286 115.418, 136 118.404, 136 121.142 L 136 126.121 139.750 125.810 C 142.506 125.582, 143.762 124.904, 144.487 123.250 C 145.030 122.013, 145.818 121, 146.237 121 C 146.657 121, 147 120.110, 147 119.023 C 147 115.342, 137.846 111.354, 136.636 114.507 M 65.891 129.592 C 69.358 132.709, 73.410 138.172, 77.980 145.890 C 85.024 157.785, 88.786 162.257, 92.758 163.457 C 97.404 164.861, 112.036 155.376, 117.875 147.175 L 119.818 144.446 110.238 145.218 C 101.082 145.955, 100.464 145.876, 96.321 143.448 C 91.430 140.582, 88.488 136.776, 89.376 134.463 C 90.683 131.056, 96.978 129.746, 115.500 129.025 C 125.400 128.639, 131.694 128.251, 129.486 128.162 C 96.455 126.830, 76.874 125.954, 69.588 125.482 L 60.677 124.904 65.891 129.592 M 55.633 136.522 C 51.140 147.254, 48.695 158.758, 49.601 164.897 C 50.127 168.462, 51.207 170.429, 54.390 173.620 C 61.079 180.324, 69.537 181.298, 96.105 178.422 L 110.711 176.841 115.817 179.983 C 128.159 187.576, 140.773 189.063, 148.647 183.852 C 154.025 180.293, 158.123 172.464, 158.704 164.636 C 159.098 159.338, 158.774 157.749, 156.330 153 C 154.307 149.068, 152.368 146.874, 149.529 145.304 C 147.345 144.097, 145.376 143.291, 145.154 143.513 C 144.931 143.736, 143.917 149.534, 142.900 156.398 C 140.545 172.296, 138.205 182.585, 136.652 183.874 C 135.904 184.495, 134.866 184.536, 133.966 183.981 C 132.778 183.247, 132.438 179.375, 132.174 163.538 C 131.923 148.546, 131.551 144, 130.573 144 C 126.712 144, 121.669 147.195, 114.871 153.947 C 106.285 162.475, 100.224 166, 94.143 166 C 88.382 166, 83.880 161.657, 77 149.462 C 71.626 139.936, 64.557 130.903, 60.976 128.987 C 59.417 128.153, 58.731 129.121, 55.633 136.522 M 156 130.074 C 154.625 130.548, 151.860 131.187, 149.856 131.493 C 146.563 131.997, 146.173 132.390, 145.800 135.586 C 145.573 137.530, 145.638 139.250, 145.944 139.406 C 146.846 139.868, 164.784 137.033, 167.504 135.998 C 171.007 134.667, 170.622 133.358, 166.040 131.020 C 161.826 128.870, 159.994 128.698, 156 130.074 M 98.072 133.088 C 90.528 134.568, 90.410 136.618, 97.611 141.069 C 100.901 143.102, 101.435 143.128, 116.249 141.964 C 124.637 141.306, 131.592 140.690, 131.704 140.596 C 131.817 140.502, 132.212 138.529, 132.582 136.212 L 133.256 132 117.878 132.110 C 109.420 132.170, 100.507 132.610, 98.072 133.088 M 135 136 L 135 140 139 140 L 143 140 143 136 L 143 132 139 132 L 135 132 135 136 M 135.063 161.750 C 135.134 182.687, 135.754 182.945, 138.951 163.366 C 142.678 140.543, 142.722 143, 138.588 143 L 135 143 135.063 161.750" stroke="none" fill="black" fill-rule="evenodd"/>
</svg>