<svg xmlns="http://www.w3.org/2000/svg" width="200" height="200" viewBox="0 0 200 200" version="1.1">
	<path d="M 161.557 15.250 C 160.820 17.038, 157.424 31.100, 154.010 46.500 C 150.597 61.900, 147.623 74.687, 147.402 74.917 C 147.181 75.146, 146.992 67.046, 146.983 56.917 C 146.956 29.053, 144.311 19.794, 135.227 15.776 C 129.529 13.256, 124.713 13.912, 115.095 18.522 C 111.147 20.414, 106.942 21.858, 105.749 21.731 C 102.336 21.367, 102.524 24.176, 106.539 33.524 L 110.217 42.088 109.074 50.294 C 106.985 65.301, 107.155 65.112, 103.977 55.933 C 100.938 47.157, 97.363 41.898, 91.907 38.176 C 89.022 36.208, 87.657 35.935, 83 36.397 C 79.975 36.697, 70.462 37.344, 61.861 37.836 C 49.931 38.517, 45.306 39.176, 42.361 40.615 C 37.952 42.768, 36.962 45.767, 39.421 49.519 C 41.306 52.396, 52.627 57.967, 63 61.123 L 70.500 63.405 61.500 64.700 C 45.048 67.068, 32.500 71.829, 29.897 76.693 C 28.406 79.478, 29.189 81.305, 33.138 84.253 C 35.909 86.322, 51.145 89.286, 56.552 88.809 C 62.648 88.270, 60.321 86.523, 52.650 85.880 C 38.900 84.728, 31.467 82.008, 32.165 78.384 C 32.951 74.303, 48.639 69.002, 65.985 66.957 C 71.218 66.339, 76.513 65.638, 77.750 65.398 C 80.460 64.873, 80.780 62, 78.129 62 C 75.062 62, 56.561 56.403, 50.586 53.668 C 43.585 50.463, 39.360 46.476, 40.943 44.569 C 42.858 42.261, 50.431 41, 62.378 41 C 68.698 41, 75.137 40.515, 76.685 39.923 C 80.686 38.392, 87.288 38.579, 90.639 40.319 C 95.173 42.674, 98.237 47.711, 102.001 59 C 107.160 74.475, 108.521 73.548, 111.548 52.500 L 113.131 41.500 110.065 34.772 C 103.196 19.695, 108.653 27.842, 118.949 48.033 C 122.744 55.477, 127.673 65.712, 129.902 70.778 L 133.956 79.990 132.443 88.668 C 130.746 98.396, 128.661 103.576, 125.832 105.090 C 122.129 107.071, 120.311 105.595, 106.072 89.041 C 99.372 81.250, 93.651 78.300, 88.526 79.991 C 83.825 81.543, 78.788 87.475, 73.891 97.229 C 66.853 111.246, 51.272 124.081, 39.354 125.679 C 30.129 126.917, 32.433 119.668, 45.608 106.001 C 51.431 99.961, 54.008 96.608, 53.342 95.942 C 52.675 95.275, 49.478 97.912, 43.752 103.852 C 31.270 116.799, 28.149 124.086, 33.564 127.634 C 35.783 129.088, 36.820 129.154, 41.272 128.126 C 54.844 124.994, 68.950 113.035, 76.272 98.455 C 83.689 83.685, 88.857 79.768, 95.879 83.594 C 97.803 84.642, 103.469 90.197, 108.469 95.938 C 120.289 109.509, 123.754 110.997, 129.521 104.979 C 131.409 103.008, 132.803 99.783, 134.074 94.449 C 135.081 90.221, 136.093 86.574, 136.322 86.345 C 136.551 86.116, 137.737 88.388, 138.957 91.394 L 141.175 96.859 138.405 103.180 C 134.876 111.234, 131.230 116.777, 127.782 119.330 C 125.077 121.333, 125.028 121.333, 116.782 119.421 C 95.707 114.533, 66.043 119.281, 67.195 127.358 C 68.009 133.069, 85.534 136.013, 107.083 134.059 C 121.192 132.780, 129.151 133.272, 131.035 135.542 C 133.267 138.231, 124.015 142.355, 112.086 143.988 C 103.369 145.182, 101.157 145.033, 86.698 142.276 C 78.882 140.785, 77.437 140.760, 73.789 142.049 C 64.977 145.162, 63.075 154.184, 68.708 166.153 C 77.313 184.438, 96.233 193.856, 111.126 187.269 C 114.911 185.594, 116.043 185.486, 119.022 186.514 C 128.726 189.863, 146.667 188.965, 161.093 184.410 C 174.839 180.069, 179.517 174.875, 172.812 171.398 C 167.909 168.855, 152.305 168.315, 143.247 170.376 C 128.891 173.641, 114.172 171.831, 107.709 166.006 C 105.058 163.617, 104.690 162.800, 105.592 161.307 C 106.193 160.313, 107.951 158.879, 109.498 158.121 C 113.753 156.035, 128.860 156.441, 141.393 158.978 C 148.306 160.378, 153.532 160.917, 156.054 160.491 C 164.350 159.089, 168.818 150.944, 167.530 139.564 C 166.617 131.490, 163.228 121.539, 159.510 116.014 L 156.440 111.453 159.160 109.200 C 167.097 102.627, 174.949 70.943, 171.972 57.500 C 171.363 54.750, 170.448 45.750, 169.939 37.500 C 168.741 18.071, 167.536 12, 164.878 12 C 163.586 12, 162.432 13.129, 161.557 15.250 M 161.690 25.500 C 160.225 31.550, 157.223 44.600, 155.020 54.500 C 152.817 64.400, 150.181 75.501, 149.163 79.170 C 147.739 84.303, 147.494 87.183, 148.100 91.670 C 149.717 103.636, 152.670 109.847, 156.105 108.502 C 163.684 105.535, 172.692 68.834, 168.994 55.993 C 168.441 54.072, 167.532 45.300, 166.974 36.500 C 165.492 13.099, 164.961 11.994, 161.690 25.500 M 120.035 19.202 L 114.570 21.300 118.920 22.584 C 130.982 26.146, 136.902 40.662, 137.032 67 C 137.094 79.641, 137.278 80.882, 139.912 86.500 L 142.726 92.500 143.449 88.885 C 143.847 86.896, 144.021 73.171, 143.836 58.385 C 143.502 31.688, 143.481 31.460, 140.838 25.821 C 136.646 16.879, 130.872 15.042, 120.035 19.202 M 110 25.520 C 110 25.806, 111.203 27.943, 112.673 30.270 C 114.143 32.596, 119.491 42.951, 124.557 53.279 C 134.937 74.440, 135.690 74.740, 134.004 57.037 C 132.448 40.713, 129.934 33.783, 123.524 28.155 C 120.524 25.521, 119.110 25, 114.965 25 C 112.234 25, 110 25.234, 110 25.520 M 144.575 94.879 C 144.231 95.435, 144.621 97.378, 145.441 99.195 L 146.932 102.500 146.333 98.500 C 145.647 93.912, 145.438 93.482, 144.575 94.879 M 140.095 106.214 C 137.100 113.523, 131.588 120.752, 127.538 122.683 C 124.379 124.190, 123.698 124.177, 117.821 122.502 C 104.956 118.836, 82.991 119.503, 74 123.833 C 69.396 126.050, 69.568 128.149, 74.500 129.958 C 77.623 131.103, 84.220 131.433, 104.592 131.462 C 132.566 131.503, 134 131.751, 134 136.554 C 134 139.351, 130.374 142.104, 123.500 144.524 C 116.224 147.086, 97.497 147.663, 88.688 145.598 C 78.944 143.312, 74.678 143.513, 71.306 146.413 C 62.868 153.672, 73.463 176.177, 88.875 183.733 C 96.104 187.277, 104.447 187.502, 110.832 184.325 C 114.964 182.269, 115.332 182.245, 118.832 183.803 C 124.492 186.322, 145.055 185.939, 155.500 183.121 C 164.293 180.748, 172.210 177.166, 172.770 175.306 C 173.785 171.935, 153.432 170.676, 142 173.402 C 124.605 177.551, 105.399 172.679, 102.597 163.407 C 101.703 160.448, 105.276 156.295, 109.795 155.040 C 115.671 153.408, 129.667 153.853, 140 156 C 151.523 158.394, 155.177 158.477, 159.128 156.434 C 166.826 152.453, 166.858 136.494, 159.200 121.089 C 156.204 115.061, 154.323 113.697, 153.827 117.192 C 153.171 121.824, 150.662 119.456, 147.079 110.823 C 145.099 106.050, 143.205 101.871, 142.870 101.537 C 142.535 101.202, 141.287 103.307, 140.095 106.214 M 149.035 108.528 C 149.055 109.063, 149.666 110.573, 150.393 111.885 C 151.331 113.577, 151.937 113.911, 152.479 113.034 C 152.931 112.302, 152.378 110.934, 151.121 109.677 C 149.955 108.510, 149.016 107.993, 149.035 108.528" stroke="none" fill="black" fill-rule="evenodd"/>
</svg>