<svg xmlns="http://www.w3.org/2000/svg" width="200" height="200" viewBox="0 0 200 200" version="1.1">
	<path d="M 135.530 16.164 C 127.847 18.180, 114.915 20, 108.276 20 C 104.991 20, 104 20.378, 104 21.629 C 104 23.063, 105.047 23.175, 112.750 22.564 C 117.563 22.182, 124.650 21.270, 128.500 20.536 C 132.350 19.802, 135.589 19.282, 135.697 19.381 C 135.805 19.480, 131.406 22.984, 125.922 27.168 L 115.949 34.776 107.725 34.278 C 101.969 33.931, 97.655 34.265, 93.356 35.391 C 75.705 40.014, 54.142 34.309, 55.180 25.291 C 55.837 19.585, 67.199 17.637, 83 20.520 C 88.225 21.474, 93.795 22.481, 95.377 22.759 C 97.526 23.136, 98.139 22.914, 97.797 21.882 C 97.095 19.763, 82.741 16.965, 71.500 16.757 C 63.493 16.608, 60.734 16.944, 57.656 18.444 C 47.381 23.451, 51.948 33.775, 66.386 38.178 C 72.081 39.914, 74.849 40.179, 82.386 39.706 C 87.399 39.391, 92.894 38.633, 94.598 38.022 C 96.302 37.411, 101.136 37.043, 105.341 37.205 L 112.987 37.500 108.448 41.175 C 104.635 44.262, 102.835 44.972, 97.204 45.611 C 89.560 46.479, 75.229 46.639, 63.500 45.988 C 56.773 45.615, 54.567 45.917, 49.635 47.887 C 43.881 50.185, 40 53.041, 40 54.977 C 40 58.849, 53.656 61.901, 71.250 61.960 C 77.713 61.982, 83.004 62.337, 83.009 62.750 C 83.014 63.163, 81.650 64.625, 79.977 66 L 76.937 68.500 84.718 68.525 C 92.760 68.551, 98.219 70.520, 106.498 76.378 C 108.147 77.545, 112.486 80.076, 116.139 82.001 L 122.782 85.502 120.141 91.358 L 117.500 97.214 110 97.528 C 105.875 97.700, 95.872 98.112, 87.770 98.444 L 73.041 99.046 73.646 95.773 C 74.406 91.664, 77.037 84.070, 80.066 77.249 C 81.777 73.396, 82.102 71.702, 81.286 70.886 C 79.535 69.135, 78.250 70.609, 75.895 77.068 C 73.419 83.860, 69.696 87.591, 64.408 88.583 C 56.003 90.160, 46.627 86.957, 36.072 78.903 L 30.644 74.761 27.834 78.130 C 24.044 82.676, 21 89.029, 21 92.393 C 21 94.087, 22.087 96.241, 23.813 97.967 C 27.961 102.115, 35.372 103.314, 53.799 102.819 L 69.166 102.406 68.521 106.707 C 67.894 110.891, 68.021 111.150, 73.147 116.143 C 79.404 122.237, 83.112 123.966, 90.218 124.099 C 93.123 124.153, 97.975 124.567, 101 125.018 C 104.280 125.507, 97.420 125.633, 84 125.331 C 60.217 124.794, 50.105 125.690, 46.866 128.621 C 43.680 131.504, 44.565 134.706, 50.015 140.015 L 55.031 144.900 59.235 143.417 C 66.344 140.909, 79.768 139, 90.298 139 C 101.331 139, 102.852 140.096, 92.542 140.617 C 82.614 141.119, 70.463 148.337, 66.435 156.125 C 61.870 164.954, 67.889 175.332, 81.137 181.473 C 93.217 187.073, 110.200 187.583, 120.285 182.649 C 128.819 178.474, 131.001 175.320, 130.994 167.173 C 130.987 158.483, 129.602 153.755, 125.790 149.414 C 121.980 145.074, 117.341 142.645, 109.500 140.884 L 103.500 139.536 120 138.927 C 137.273 138.289, 142.395 137.354, 150.162 133.418 C 155.653 130.635, 156.751 129.272, 154.868 127.574 C 154.116 126.895, 145.732 123.924, 136.239 120.972 C 124.483 117.317, 118.301 114.885, 116.855 113.346 L 114.733 111.086 116.895 105.759 L 119.057 100.432 127.279 101.171 C 131.800 101.578, 141.205 102.410, 148.177 103.020 C 175.982 105.452, 184.800 99.213, 179.394 80.932 C 176.534 71.261, 177.006 71.476, 168.218 75.864 C 155.127 82.401, 147.715 84.470, 137.336 84.486 C 132.295 84.494, 127.876 84.206, 127.516 83.847 C 127.155 83.488, 127.801 81.350, 128.951 79.097 C 130.779 75.513, 131.467 75, 134.443 75 C 141.478 75, 151.944 63.921, 156.487 51.666 C 161.094 39.237, 161.607 25.854, 157.759 18.509 C 156.437 15.987, 155.960 16.788, 142.616 43.944 C 127.579 74.547, 128.549 73.401, 122.822 67.336 C 121.349 65.776, 118.963 62.138, 117.520 59.251 L 114.896 54.002 112.081 55.458 C 109.311 56.890, 98.732 58.978, 94.167 58.992 C 92.224 58.999, 92.925 58.057, 98.377 53.346 C 104.297 48.228, 105.798 47.469, 114.176 45.351 C 124.351 42.779, 128.254 40.216, 126.045 37.555 C 125.336 36.700, 124.162 36, 123.437 36 C 119.821 36, 121.959 33.494, 131.910 26.067 C 137.906 21.592, 143.316 17.324, 143.932 16.582 C 145.812 14.316, 143.090 14.181, 135.530 16.164 M 144.051 47.330 C 137.327 60.986, 132.003 72.337, 132.219 72.553 C 133.527 73.861, 140.197 70.365, 144.216 66.266 C 153.344 56.956, 159.956 36.859, 157.300 26.500 L 156.275 22.500 144.051 47.330 M 113.500 40.469 C 111.475 42.129, 111.011 42.940, 112.072 42.964 C 114.591 43.022, 123 39.899, 123 38.906 C 123 36.983, 116.436 38.063, 113.500 40.469 M 51.134 50.419 C 47.632 51.746, 44.322 53.278, 43.776 53.824 C 41.213 56.387, 52.824 58.781, 72.150 59.672 C 87.402 60.376, 85.633 60.948, 95.565 52.107 C 99.948 48.205, 100.191 47.788, 97.741 48.378 C 94.107 49.253, 74.474 49.399, 65 48.621 C 58.556 48.092, 56.603 48.345, 51.134 50.419 M 108.276 59.528 C 105.953 60.259, 100.448 61.172, 96.042 61.557 C 86.755 62.367, 83.490 64.439, 89.677 65.598 C 95.168 66.626, 99.573 68.632, 107.274 73.611 C 110.999 76.020, 116.299 79.131, 119.052 80.526 L 124.056 83.062 125.876 78.781 L 127.696 74.500 125.055 72.891 C 121.744 70.873, 117.238 65.567, 115.193 61.279 C 114.333 59.475, 113.375 58.044, 113.065 58.099 C 112.754 58.153, 110.599 58.796, 108.276 59.528 M 168 79.016 C 158.480 84.074, 147.385 87.214, 138.500 87.365 C 134.100 87.439, 129.341 87.174, 127.924 86.775 C 125.533 86.101, 125.183 86.447, 123.057 91.575 C 121.798 94.614, 120.932 97.257, 121.134 97.448 C 121.335 97.639, 129.588 98.572, 139.473 99.521 C 164.283 101.904, 173.951 100.697, 177.094 94.824 C 179.050 91.170, 176.597 75.846, 174.089 76.047 C 173.765 76.073, 171.025 77.409, 168 79.016 M 27.517 83.153 C 22.084 91.364, 23.136 96.251, 30.899 98.858 C 35.001 100.236, 66.837 100.389, 68.968 99.041 C 70.057 98.352, 73.433 88, 72.568 88 C 72.488 88, 70.658 88.900, 68.500 90 C 60.743 93.955, 50.477 91.883, 38.655 83.975 C 34.564 81.239, 31.002 79, 30.741 79 C 30.480 79, 29.029 80.869, 27.517 83.153 M 90.500 101.055 C 83.350 101.449, 76.263 101.823, 74.750 101.886 C 73.181 101.951, 72 102.573, 72 103.335 C 72 104.377, 73.783 104.566, 80.134 104.198 C 89.111 103.679, 99.930 105.243, 107.286 108.124 L 112.072 109.999 114.036 105.417 C 115.116 102.896, 116 100.646, 116 100.417 C 116 99.903, 107.564 100.115, 90.500 101.055 M 98.402 109.509 C 103.298 110.895, 107.509 111.825, 107.759 111.574 C 108.345 110.988, 98.708 108.263, 93.500 107.542 C 91.300 107.238, 93.506 108.123, 98.402 109.509 M 71 108.789 C 71 110.461, 75.523 115.398, 79.689 118.273 C 83.067 120.604, 84.823 120.982, 95.140 121.592 C 106.256 122.249, 106.830 122.187, 107.890 120.206 C 110.183 115.921, 109.440 115.374, 96.750 111.996 C 83.770 108.540, 71 106.950, 71 108.789 M 111.604 118.590 C 110.723 120.885, 111.422 121.362, 114.524 120.583 C 117.508 119.834, 117.363 117.651, 114.299 117.197 C 113.094 117.019, 111.987 117.590, 111.604 118.590 M 118.486 121.015 C 117.483 122.123, 114.939 123.306, 112.831 123.643 C 110.724 123.980, 109 124.713, 109 125.271 C 109 125.929, 112.708 126.098, 119.507 125.751 C 125.286 125.456, 130.244 125.586, 130.525 126.040 C 130.805 126.494, 126.865 128.882, 121.767 131.347 L 112.500 135.828 122.066 135.914 C 127.328 135.961, 134.288 135.509, 137.532 134.909 C 144.343 133.650, 153.337 129.463, 151 128.639 C 148.576 127.785, 120.833 119, 120.559 119 C 120.422 119, 119.489 119.907, 118.486 121.015 M 53.413 128.866 C 46.736 130.628, 46.230 133.239, 51.644 137.993 C 54.421 140.430, 55.909 141.059, 57.894 140.634 C 59.327 140.327, 63.650 139.367, 67.500 138.502 C 71.350 137.637, 80.666 136.654, 88.203 136.318 L 101.907 135.707 102.958 132.691 C 103.536 131.033, 103.830 129.496, 103.610 129.277 C 102.796 128.462, 56.384 128.083, 53.413 128.866 M 106.093 132.162 C 105.487 133.901, 105.106 135.411, 105.245 135.516 C 105.385 135.621, 108.650 134.229, 112.500 132.422 L 119.500 129.136 113.348 129.068 C 107.318 129.001, 107.174 129.063, 106.093 132.162 M 87.500 143.935 C 79.846 145.798, 69.883 153.794, 67.962 159.615 C 66.970 162.620, 67.126 163.679, 69.161 167.738 C 77.032 183.445, 110.452 188.867, 124.458 176.709 C 127.987 173.646, 128.159 173.205, 128.243 167 C 128.291 163.425, 127.797 158.893, 127.146 156.928 C 124.987 150.413, 117.850 145.211, 108.864 143.603 L 105.227 142.952 107.225 146.990 C 109.706 152.004, 109.090 157.518, 105.201 165.119 C 101.877 171.616, 97.831 174.935, 95.546 173.038 C 93.235 171.120, 93.603 162.599, 96.417 152.883 C 97.746 148.294, 98.619 144.193, 98.358 143.770 C 97.781 142.837, 91.626 142.931, 87.500 143.935 M 99.240 152.750 C 95.088 168.261, 95.193 173.046, 99.595 168.910 C 102.440 166.238, 106 157.220, 106 152.685 C 106 149.542, 103.695 145, 102.100 145 C 101.668 145, 100.380 148.488, 99.240 152.750" stroke="none" fill="black" fill-rule="evenodd"/>
</svg>