<svg xmlns="http://www.w3.org/2000/svg" width="200" height="200" viewBox="0 0 200 200" version="1.1">
	<path d="M 129.770 14.535 C 118.303 16.344, 113.506 17.685, 111.994 19.507 C 110.062 21.835, 112.168 23.575, 123.474 28.988 C 143.946 38.788, 147.612 47.456, 136.975 60.912 L 133.115 65.796 134.922 70.648 C 136.951 76.093, 138.629 88.063, 137.143 86.487 C 136.632 85.944, 131.259 73.575, 125.204 59 C 108.435 18.638, 106.466 14.679, 104.683 17.750 C 104.443 18.163, 106.329 24.575, 108.874 32 C 112.228 41.788, 113.927 45.471, 115.053 45.394 C 116.167 45.318, 119.470 52.176, 126.743 69.661 L 136.881 94.035 135.405 99.702 C 132.536 110.720, 125.756 119.995, 121.708 118.442 C 119.277 117.509, 117 108.810, 117 100.455 L 117 93.274 111.920 88.522 C 106.889 83.816, 106.786 83.775, 101.073 84.188 C 93.099 84.765, 87.976 88.757, 72.475 106.470 C 65.603 114.323, 57.898 122.370, 55.352 124.354 C 50.648 128.019, 42.139 131.747, 36.250 132.723 C 30.964 133.599, 31.610 132.331, 44.516 116.500 C 54.308 104.489, 57.734 99.414, 58.977 95.079 C 59.776 92.296, 59.577 91.486, 57.616 89.525 C 56.304 88.213, 53.433 86.927, 50.910 86.522 C 44.169 85.441, 29.872 81.794, 30.381 81.286 C 30.629 81.038, 36.832 79.361, 44.166 77.559 C 61.007 73.421, 67.028 70.819, 71.683 65.665 L 75.383 61.570 67.204 60.301 C 58.126 58.892, 46.987 54.319, 42.754 50.264 C 36.485 44.258, 40.233 42.521, 57.754 43.313 C 69.946 43.864, 71.439 43.739, 75.034 41.865 C 87.807 35.208, 94.865 40.070, 100.441 59.367 C 101.850 64.244, 103.568 69.413, 104.259 70.855 C 105.683 73.827, 108.403 74.740, 110.542 72.965 C 112.302 71.504, 118 61.697, 118 60.128 C 118 57.350, 115.286 59.517, 113.072 64.064 C 110.345 69.664, 108.346 71.776, 107.068 70.408 C 106.602 69.908, 105.016 65.260, 103.544 60.079 C 102.071 54.897, 100.023 49.004, 98.992 46.984 C 96.611 42.317, 91.024 37.384, 87.158 36.535 C 84.089 35.861, 77.058 37.311, 73.500 39.353 C 72.237 40.077, 65.922 40.500, 56.362 40.500 C 42.881 40.500, 40.992 40.709, 39.112 42.405 C 36.352 44.894, 36.444 47.186, 39.449 50.757 C 43.842 55.978, 59.748 63, 67.182 63 C 71.180 63, 70.677 64.529, 65.750 67.344 C 60.540 70.322, 51.422 73.297, 39.430 75.932 C 27.856 78.475, 27 78.829, 27 81.072 C 27 83.557, 28.810 84.381, 40 86.991 C 58.496 91.306, 57.263 90.798, 56.547 93.813 C 55.740 97.215, 49.021 106.932, 39.478 118.500 C 30.933 128.858, 29.135 132.252, 31.001 134.501 C 32.768 136.630, 35.424 136.396, 44.271 133.331 C 49.337 131.576, 53.693 129.222, 56.785 126.570 C 61.364 122.640, 63.884 119.984, 81.758 100.255 C 87.688 93.709, 91.550 90.389, 95.455 88.478 C 101.834 85.357, 104.975 85.664, 110.057 89.906 C 113.329 92.638, 113.452 93.010, 114.122 102.170 C 114.906 112.891, 116.684 118.092, 120.398 120.525 C 122.819 122.112, 123.146 122.099, 126.231 120.307 C 129.857 118.201, 135.274 109.920, 137.553 103 L 139.034 98.500 138.517 106.401 C 138.233 110.746, 138 117.573, 138 121.571 L 138 128.841 134.884 129.526 C 133.170 129.902, 121.081 129.413, 108.020 128.440 C 82.752 126.556, 74.837 127.028, 70.827 130.656 C 67.907 133.299, 68.514 138.211, 72.388 143.286 C 75.687 147.607, 75.751 147.869, 74.789 153.113 C 72.696 164.524, 75.891 174.735, 83.213 180.040 C 91.507 186.048, 94.923 186.500, 132 186.500 C 163.986 186.500, 165.658 186.407, 168.995 184.447 C 176.553 180.007, 174.993 173.850, 165.020 168.750 C 160.625 166.503, 158.325 166, 152.446 166 C 143.998 166, 138.522 167.719, 131.967 172.429 L 127.204 175.850 119.126 171.823 C 110.800 167.672, 104 161.517, 104 158.132 C 104 152.385, 113.022 147.624, 127.335 145.816 C 136.690 144.635, 139.015 144.794, 155.181 147.721 C 157.408 148.125, 158.899 147.197, 164.009 142.228 C 169.067 137.309, 170.099 135.757, 169.828 133.474 C 169.414 129.973, 165.618 127.106, 160.477 126.409 C 152.883 125.380, 152.218 125.064, 151.137 121.962 L 150.074 118.913 152.672 120.956 C 156.199 123.731, 158.327 123.530, 162.297 120.044 C 172.136 111.405, 178.145 82.081, 172.761 68.973 C 171.447 65.773, 171.498 65.278, 173.413 62.671 C 174.992 60.523, 175.573 57.998, 175.826 52.171 C 176.601 34.389, 168.300 14, 160.287 14 C 156.745 14, 152.643 18.648, 150.126 25.512 C 148.919 28.806, 147.657 32.175, 147.321 33 C 146.985 33.825, 145.750 29.775, 144.576 24 C 142.109 11.861, 143.023 12.445, 129.770 14.535 M 131 17.122 C 120.425 18.828, 115 20.149, 115 21.015 C 115 21.496, 119.620 24.117, 125.266 26.841 C 132.951 30.548, 136.723 33.065, 140.266 36.854 C 142.870 39.637, 145 41.731, 145 41.508 C 145 40.642, 140.873 19.404, 140.383 17.750 C 139.819 15.844, 139.181 15.801, 131 17.122 M 156.693 18.787 C 154.260 21.475, 151.230 28.884, 149.483 36.416 C 148.183 42.020, 148.114 44.502, 149.066 51.320 C 150.689 62.948, 150.698 82.124, 149.085 91.543 C 147.855 98.720, 147.890 100.408, 149.407 107.226 C 151.194 115.259, 153.970 120, 156.885 120 C 161.346 120, 167.780 108.818, 170.604 96.159 C 172.794 86.339, 172.183 73.881, 169.232 68.220 C 167.179 64.282, 167.166 64.082, 168.936 63.520 C 172.235 62.473, 173.301 57.764, 172.738 46.729 C 171.716 26.720, 163.097 11.710, 156.693 18.787 M 146.127 53.500 C 145.312 58.386, 143.035 80.608, 142.489 89 C 141.849 98.845, 141.962 99.843, 144.308 105 C 146.772 110.417, 146.800 110.440, 146.155 106.500 C 145.252 100.985, 145.430 95.719, 146.796 87.500 C 148.082 79.766, 148.183 67.724, 147.038 58.500 C 146.629 55.200, 146.219 52.950, 146.127 53.500 M 139.461 62.070 L 136.422 66.066 138.461 72.607 L 140.500 79.148 141.200 71.324 C 141.585 67.021, 142.137 62.263, 142.425 60.750 C 142.714 59.237, 142.849 58.017, 142.725 58.037 C 142.601 58.058, 141.133 59.873, 139.461 62.070 M 140.985 117.250 C 140.976 123.438, 140.581 129.113, 140.106 129.862 C 138.447 132.481, 130.877 132.916, 112.500 131.449 C 83.258 129.115, 74.320 129.665, 72.035 133.935 C 70.976 135.913, 72.531 139.465, 76.542 144.232 C 78.093 146.075, 78.859 147.916, 78.481 148.890 C 77.151 152.314, 76.817 163.675, 77.927 167.763 C 79.551 173.745, 84.099 178.489, 90.810 181.200 C 96.365 183.444, 97.322 183.499, 131.043 183.499 C 162.428 183.500, 165.833 183.338, 168.293 181.727 C 171.594 179.565, 171.743 177.047, 168.736 174.222 C 160 166.015, 143.271 166.871, 131.720 176.117 L 127.940 179.142 119.720 175.132 C 97.637 164.359, 95.147 152.953, 113.388 146.128 C 124.529 141.959, 139.535 141.404, 154.182 144.619 C 156.405 145.106, 157.740 144.388, 161.978 140.424 C 170.144 132.786, 167.734 129.355, 153.444 128.274 C 146.072 127.717, 144.536 126.919, 147.566 125.223 C 148.933 124.458, 148.665 123.178, 145.462 115.173 C 143.442 110.128, 141.612 106, 141.395 106 C 141.178 106, 140.993 111.063, 140.985 117.250" stroke="none" fill="black" fill-rule="evenodd"/>
</svg>