<svg xmlns="http://www.w3.org/2000/svg" width="200" height="200" viewBox="0 0 200 200" version="1.1">
	<path d="M 141.200 16.050 C 135.451 18.356, 123.841 19.222, 88 20.017 C 66.825 20.487, 48.487 21.178, 47.250 21.552 C 46.013 21.927, 45 22.882, 45 23.676 C 45 24.521, 45.483 24.819, 46.169 24.396 C 46.812 23.998, 65.149 23.294, 86.919 22.829 C 108.688 22.365, 128.659 21.607, 131.299 21.144 C 136.945 20.154, 136.980 20.109, 125.617 28.387 L 116.792 34.816 105.401 35.527 C 88.563 36.579, 63.397 35.609, 58.340 33.713 C 54.385 32.229, 53 32.339, 53 34.139 C 53 34.582, 55.587 35.744, 58.750 36.722 C 63.595 38.220, 68.238 38.494, 88.250 38.462 C 101.313 38.442, 112 38.516, 112 38.628 C 112 38.740, 110.107 40.332, 107.793 42.166 L 103.587 45.500 77.043 46.024 C 53.265 46.494, 50.083 46.754, 46.500 48.524 C 39.260 52.100, 40.935 57.444, 51.494 64.452 L 57.005 68.110 69.598 65.984 C 76.524 64.814, 82.485 64.154, 82.845 64.518 C 83.205 64.882, 82.263 66.168, 80.750 67.377 C 78.294 69.340, 78 70.223, 78 75.638 C 78 83.514, 76.474 87.703, 72.941 89.530 C 69.119 91.507, 67.095 91.381, 56.053 88.481 C 35.569 83.101, 20.307 86.787, 23.903 96.245 C 25.295 99.906, 32.215 104.716, 38.877 106.652 C 46.681 108.921, 60.766 108.113, 67.513 105.009 C 71.987 102.950, 74.404 102.666, 91 102.246 L 109.500 101.777 112.900 106.016 L 116.300 110.256 114.695 115.276 C 113.123 120.189, 113.140 120.383, 115.493 124.398 C 120.718 133.315, 119.700 141.780, 112.431 149.865 C 104.486 158.703, 89.525 164.447, 79.401 162.547 C 75.949 161.900, 71 158.139, 71 156.165 C 71 155.655, 75.182 155.056, 80.293 154.832 C 90.835 154.371, 94.994 152.617, 98.747 147.048 C 105.027 137.729, 97.998 121.221, 84.855 114.425 C 79.969 111.898, 70.426 111.451, 65 113.495 C 62.525 114.427, 57.668 115.582, 54.206 116.061 C 37.027 118.441, 38.123 123.624, 58 134.004 C 70.754 140.664, 70.950 140.553, 52 137.414 C 40.795 135.558, 40.511 135.583, 39.161 138.547 C 35.191 147.258, 40.458 161.522, 51.434 171.789 C 59.588 179.417, 67.390 183.303, 75.601 183.826 C 83.224 184.311, 87.498 182.977, 92.763 178.470 C 96.495 175.277, 97.339 175, 103.361 175 C 108.172 175, 113.157 173.976, 122.202 171.130 C 128.966 169.001, 136.760 166.974, 139.523 166.625 C 145.700 165.846, 154.943 168.062, 160.339 171.617 C 167.938 176.623, 167.535 174.414, 156.813 152.301 C 140.219 118.073, 134.607 111, 124.050 111 C 119.490 111, 119.574 111.154, 121.186 105.775 L 122.371 101.817 130.936 102.378 C 135.646 102.687, 148.725 103.066, 160 103.220 L 180.500 103.500 180.803 97.655 C 181.149 90.973, 179.732 88.027, 174.696 84.956 C 170.348 82.305, 162.239 82.424, 143.500 85.414 C 135.250 86.730, 128.396 87.709, 128.269 87.589 C 128.142 87.469, 129.698 83.201, 131.727 78.104 C 135.628 68.308, 136.785 68.006, 136.930 76.750 C 136.993 80.547, 137.255 81, 139.394 81 C 148.131 81, 160.302 52.966, 160.439 32.523 C 160.493 24.605, 160.285 23.503, 158.676 23.185 C 157.672 22.987, 155.940 23.649, 154.827 24.656 C 151.835 27.365, 145.532 38.585, 139.889 51.250 C 137.151 57.395, 134.762 62.571, 134.581 62.752 C 134.400 62.933, 132.508 62.050, 130.376 60.791 C 126.749 58.647, 125.419 58.500, 109.635 58.500 L 92.771 58.500 98.494 53.381 C 103.685 48.739, 104.783 48.203, 110.285 47.628 C 114.187 47.220, 118.164 45.973, 121.426 44.134 C 127.403 40.766, 128.483 37.841, 124.518 35.763 L 121.913 34.399 133.629 25.932 C 140.073 21.275, 145.530 16.911, 145.756 16.233 C 146.232 14.804, 144.479 14.734, 141.200 16.050 M 154.579 29.308 C 151.838 32.901, 143.874 48.552, 139.592 58.760 C 137.074 64.764, 137.026 65.214, 138.436 69.760 C 139.245 72.367, 140.051 75.400, 140.228 76.500 C 140.527 78.365, 140.739 78.312, 143.356 75.714 C 149.230 69.884, 156.703 48.946, 158.473 33.362 C 159.318 25.920, 158.117 24.669, 154.579 29.308 M 113.388 41.087 C 108.014 45.354, 108.014 45.353, 112.500 44.547 C 116.761 43.783, 124 40.175, 124 38.816 C 124 36.684, 117.063 38.169, 113.388 41.087 M 73 48.998 C 51.713 49.582, 48.202 49.995, 45.271 52.260 C 43.393 53.712, 45.295 56.403, 51.524 61.106 L 56.988 65.231 70.744 62.977 C 78.310 61.737, 85.400 60.345, 86.500 59.884 C 87.600 59.424, 91.200 56.562, 94.500 53.525 C 99.712 48.729, 100.172 48.028, 98 48.192 C 96.625 48.296, 85.375 48.659, 73 48.998 M 99.500 61.104 C 90.659 62.044, 86.944 63.556, 84.688 67.134 C 83.944 68.313, 84.734 69.612, 88.107 72.759 C 92.962 77.287, 92.512 77.255, 105.250 73.970 L 112 72.229 112 77.440 C 112 83.740, 114.401 86.561, 120.610 87.554 L 124.697 88.207 128.853 77.854 C 131.139 72.159, 133.007 66.912, 133.004 66.194 C 132.997 63.875, 124.767 61.101, 116.446 60.613 C 112.075 60.357, 104.450 60.578, 99.500 61.104 M 81.362 72.500 C 80.315 75.227, 81.810 77, 85.156 77 L 88.374 77 85.500 74 C 82.176 70.531, 82.124 70.512, 81.362 72.500 M 100.884 77.820 L 94.269 79.386 102.384 89.167 L 110.500 98.948 115.598 98.974 C 120.611 99, 120.722 98.934, 122.242 95.066 C 123.949 90.720, 123.408 90, 118.434 90 C 114.502 90, 109.964 85.152, 109.307 80.250 C 108.993 77.912, 108.458 76.057, 108.118 76.127 C 107.778 76.197, 104.523 76.959, 100.884 77.820 M 80.383 81.969 C 78.503 90.692, 75.377 93.317, 67.009 93.198 C 63.909 93.154, 59.376 92.379, 56.936 91.476 C 50.927 89.251, 32.400 88.421, 29 90.224 C 25.256 92.210, 25.329 95.256, 29.198 98.519 C 38.251 106.152, 54.751 107.604, 67.944 101.929 C 71.598 100.357, 75.983 99.813, 89.725 99.230 L 106.931 98.500 99.174 89.500 C 91.537 80.638, 91.337 80.492, 86.173 79.969 C 81.188 79.464, 80.901 79.563, 80.383 81.969 M 144.500 88.048 C 139 89.053, 132.850 89.904, 130.833 89.938 C 127.424 89.996, 127.044 90.318, 125.438 94.522 C 124.488 97.010, 123.889 99.199, 124.106 99.387 C 124.323 99.576, 136.483 100.038, 151.130 100.413 L 177.759 101.096 178.351 98.737 C 179.362 94.708, 177.217 89.163, 174.003 87.502 C 170.084 85.475, 157.280 85.712, 144.500 88.048 M 115.010 104.511 C 116.764 106.377, 117.574 106.698, 118.169 105.761 C 119.769 103.240, 118.997 102, 115.826 102 L 112.651 102 115.010 104.511 M 117.157 116.980 C 116.292 119.461, 116.507 120.673, 118.447 124.230 C 121.796 130.371, 122.384 135.166, 120.561 141.440 C 118.362 149.003, 111.776 156.013, 102.615 160.541 C 89.132 167.204, 76.936 167.355, 70.936 160.932 C 68.450 158.271, 66.542 152.361, 67.917 151.581 C 68.238 151.399, 70.975 151.590, 74 152.005 C 80.448 152.889, 89.266 151.711, 92.613 149.518 C 101.005 144.019, 99.751 130.392, 90.050 121.653 C 87.701 119.537, 84.268 117.174, 82.422 116.403 C 77.553 114.369, 68.336 114.665, 63.141 117.022 C 60.743 118.110, 57.098 119, 55.040 119 C 50.810 119, 45 120.763, 45 122.047 C 45 123.634, 51.461 127.768, 62.750 133.402 C 73.324 138.679, 75.929 141.046, 72.579 142.331 C 71.319 142.815, 57.880 141.342, 46.376 139.459 C 41.415 138.648, 40.769 139.401, 40.769 145.999 C 40.769 158.068, 54.318 174.639, 68.239 179.599 C 73.164 181.353, 81.293 181.601, 85.198 180.116 C 86.681 179.551, 89.606 177.559, 91.698 175.690 C 95.285 172.482, 95.924 172.286, 103 172.225 C 108.893 172.174, 112.857 171.365, 121.500 168.449 C 138.053 162.865, 147.296 162.633, 159.257 167.504 C 161.331 168.348, 159.674 164.396, 147.938 140.500 C 142.113 128.638, 139.403 124.297, 134.987 119.750 C 129.498 114.099, 129.306 114, 123.799 114 C 118.481 114, 118.143 114.152, 117.157 116.980" stroke="none" fill="black" fill-rule="evenodd"/>
</svg>