<svg xmlns="http://www.w3.org/2000/svg" width="200" height="200" viewBox="0 0 200 200" version="1.1">
	<path d="M 136.500 16.628 C 123.246 19.168, 103.468 20.998, 89.250 20.999 C 77.251 21, 75 21.237, 75 22.500 C 75 23.755, 77.079 23.998, 87.750 23.989 C 94.763 23.983, 106.768 23.313, 114.428 22.501 C 122.088 21.688, 128.508 21.175, 128.694 21.360 C 128.880 21.546, 124.867 24.965, 119.777 28.959 L 110.522 36.219 86.511 35.728 C 62.809 35.243, 56.121 34.386, 53.067 31.443 C 51.825 30.246, 51.865 29.807, 53.370 28.144 C 54.325 27.088, 57.286 25.190, 59.950 23.925 C 62.928 22.512, 64.604 21.131, 64.300 20.340 C 63.241 17.580, 50.786 24.947, 49.463 29.117 C 49.008 30.549, 49.414 31.859, 50.716 33.161 C 54.359 36.804, 62.360 38.118, 85.193 38.827 L 106.887 39.500 102.715 43 L 98.543 46.500 70.522 47 L 42.500 47.500 42.228 51.500 C 41.890 56.451, 44.626 61.217, 49.206 63.660 C 51.609 64.942, 55.537 65.525, 63.728 65.816 C 73.782 66.173, 74.863 66.387, 74.073 67.864 C 72.888 70.077, 74.718 75.118, 79.302 82.269 C 81.336 85.443, 83 88.143, 83 88.269 C 83.001 88.396, 73.213 88.500, 61.250 88.500 C 37.290 88.500, 27.544 89.768, 23.275 93.440 C 18.381 97.650, 22.772 101.785, 36.557 105.947 C 43.452 108.029, 43.879 108.041, 55.057 106.486 C 67.100 104.812, 125.346 103.151, 128.576 104.391 C 130.108 104.979, 129.897 105.515, 126.915 108.620 C 118.979 116.882, 110.209 118.325, 94 114.036 C 82.512 110.997, 70.554 110.277, 64.316 112.249 C 61.667 113.087, 57.067 114.073, 54.094 114.441 C 37.718 116.468, 39.531 123.484, 59.139 133.972 C 63.762 136.444, 66.784 138.588, 65.898 138.766 C 65.016 138.944, 60.159 138.230, 55.104 137.179 L 45.913 135.269 44.338 138.313 C 41.711 143.393, 42.918 155.361, 46.866 163.380 C 50.588 170.939, 56.929 177.867, 63.137 181.155 C 66.752 183.069, 69.043 183.469, 76.500 183.483 C 84.525 183.498, 86.204 183.164, 92 180.395 C 98.958 177.070, 108.818 170.077, 110.313 167.406 C 112.639 163.249, 104.769 160.507, 83.250 157.979 C 77.612 157.317, 73 156.404, 73 155.951 C 73 155.497, 79.331 153.649, 87.070 151.843 L 101.140 148.559 100.527 145.294 C 99.082 137.589, 103.983 129.990, 110.385 130.010 C 118.678 130.036, 130.261 139.449, 133.425 148.734 C 135.601 155.122, 135.413 163.895, 132.952 170.775 C 131.826 173.924, 130.813 176.906, 130.702 177.402 C 130.332 179.053, 137.249 183, 140.513 183 C 149.566 183, 156.599 168.405, 157.704 147.325 C 158.318 135.606, 157.099 126.027, 154.306 120.625 C 152.233 116.616, 148.122 113.004, 145.604 112.979 C 144.447 112.968, 141.250 110.921, 138.500 108.430 C 135.358 105.585, 134.243 104.079, 135.500 104.379 C 136.600 104.642, 144.250 105.158, 152.500 105.526 C 165.396 106.100, 168.100 105.953, 171.779 104.477 C 174.133 103.532, 176.495 101.943, 177.029 100.945 C 179.897 95.586, 176.427 88.880, 168.624 84.706 C 165.138 82.841, 162.908 82.500, 154.204 82.500 L 143.909 82.500 144.497 80 C 144.820 78.625, 146.233 75.250, 147.636 72.500 C 149.040 69.750, 151.719 64.504, 153.591 60.842 C 160.762 46.810, 162.771 29.263, 158.214 20.461 C 155.776 15.752, 155.883 15.516, 152.994 32 C 151.789 38.875, 149.448 50.350, 147.793 57.500 C 145.257 68.454, 144.297 71.011, 141.696 73.750 C 135.272 80.511, 130.881 77.278, 129.064 64.451 C 128.545 60.786, 127.900 57.567, 127.631 57.298 C 127.103 56.769, 111.173 58.350, 96.250 60.413 C 91.162 61.116, 87 61.366, 87 60.968 C 87 60.570, 89.813 57.778, 93.250 54.764 C 98.870 49.837, 100.105 49.211, 105.500 48.558 C 119.084 46.914, 126 44.155, 126 40.380 C 126 37.848, 120.929 33.892, 118.587 34.597 C 116.041 35.363, 116.337 35.073, 126 27.326 C 134.678 20.369, 136.995 19.006, 140.184 18.985 C 143.293 18.964, 145.777 17.349, 144.492 16.185 C 143.901 15.650, 140.668 15.829, 136.500 16.628 M 156.215 31.500 C 155.508 34.800, 153.821 42.638, 152.466 48.918 C 151.111 55.197, 150.165 60.498, 150.365 60.698 C 151.073 61.406, 155.020 51.037, 156.544 44.467 C 157.394 40.800, 157.957 35.032, 157.795 31.650 L 157.500 25.500 156.215 31.500 M 115.428 37.882 C 113.738 38.222, 110.363 40.215, 107.928 42.311 L 103.500 46.122 108 45.493 C 115.447 44.453, 123 42.025, 123 40.672 C 123 39.072, 120.939 36.957, 119.550 37.132 C 118.972 37.204, 117.117 37.542, 115.428 37.882 M 45 52.777 C 45 56.561, 47.558 59.917, 51.790 61.686 C 55.832 63.375, 77.111 63.689, 81.105 62.119 C 82.422 61.602, 85.960 58.663, 88.966 55.589 L 94.432 50 69.716 50 L 45 50 45 52.777 M 101.604 62.518 C 85.253 64.652, 80.652 65.975, 82.634 67.971 C 82.923 68.262, 89.761 68.743, 97.830 69.039 C 113.649 69.621, 117.446 70.698, 120.591 75.498 C 122.986 79.153, 123.974 84.817, 123.065 89.682 C 122.621 92.057, 122.386 94, 122.542 94 C 122.698 94, 125.227 92.416, 128.163 90.479 C 131.098 88.542, 134.948 86.432, 136.718 85.790 C 138.849 85.016, 140.285 83.621, 140.968 81.661 C 141.536 80.033, 142 78.583, 142 78.438 C 142 78.292, 140.729 78.653, 139.176 79.240 C 134.571 80.978, 131.445 79.550, 129.058 74.619 C 127.889 72.205, 126.660 67.928, 126.327 65.115 C 125.599 58.969, 127.369 59.155, 101.604 62.518 M 76.547 71.250 C 77.344 73.884, 79.891 78.289, 85.186 86.195 C 87.284 89.327, 89 92.073, 89 92.296 C 89 92.519, 86.638 92.291, 83.750 91.789 C 76.101 90.460, 44.580 90.548, 37 91.921 C 20.055 94.988, 19.881 97.583, 36.263 102.954 C 43.007 105.165, 43.065 105.167, 57.263 103.516 C 65.093 102.605, 81.923 101.599, 94.662 101.279 L 117.824 100.699 118.266 98.390 C 118.643 96.415, 116.886 94.732, 106.104 86.740 C 92.405 76.587, 90.238 75.134, 83.310 71.450 C 77.420 68.319, 75.643 68.266, 76.547 71.250 M 94.076 71.826 L 90.651 72.500 96.576 76.396 C 99.834 78.539, 106.241 83.198, 110.813 86.750 C 115.385 90.301, 119.337 92.997, 119.594 92.739 C 119.852 92.482, 120.300 90.073, 120.590 87.386 C 121.265 81.134, 118.853 76.159, 114 73.796 C 110.056 71.876, 99.249 70.808, 94.076 71.826 M 152.500 84.489 C 151.950 84.683, 149.385 85.127, 146.800 85.475 C 143.136 85.968, 141.950 86.591, 141.417 88.304 C 141.041 89.512, 139.668 92.722, 138.367 95.437 C 137.065 98.153, 136 100.692, 136 101.081 C 136 101.469, 143.348 102.111, 152.330 102.507 C 166.318 103.124, 169.103 102.998, 171.759 101.625 C 173.463 100.743, 175.144 99.122, 175.493 98.023 C 176.529 94.759, 173.016 90.147, 167.508 87.540 C 162.827 85.325, 154.768 83.686, 152.500 84.489 M 131.441 91.566 C 128.174 93.528, 125.135 95.490, 124.690 95.927 C 123.867 96.733, 129.395 102, 131.064 102 C 131.565 102, 133.561 98.850, 135.500 95 C 137.439 91.150, 138.656 88, 138.204 88 C 137.752 88, 134.709 89.605, 131.441 91.566 M 120 100 C 118.835 100.753, 119.128 100.973, 121.309 100.985 C 122.930 100.994, 123.857 100.577, 123.500 100 C 122.733 98.758, 121.921 98.758, 120 100 M 128.330 110.867 C 120.993 119.428, 110.820 121.013, 92.186 116.499 C 80.512 113.670, 69.065 113.241, 63.270 115.414 C 61.197 116.191, 57.150 117.069, 54.279 117.363 C 51.407 117.658, 48.049 118.439, 46.817 119.098 C 44.596 120.287, 44.611 120.327, 48.667 123.898 C 50.916 125.879, 56.939 129.750, 62.052 132.500 C 67.164 135.250, 71.948 138.099, 72.683 138.831 C 76.200 142.335, 70.377 142.899, 56.669 140.383 C 50.601 139.270, 47.515 139.085, 46.806 139.794 C 45.011 141.589, 45.689 153.101, 47.938 159.009 C 55.466 178.781, 73.722 186.638, 91.500 177.755 C 96.572 175.221, 108 167.154, 108 166.108 C 108 164.767, 101.058 163.172, 88 161.514 C 81.125 160.641, 74.037 159.458, 72.250 158.886 C 68.877 157.805, 68.094 155.982, 70.250 154.227 C 71.917 152.870, 82.903 149.581, 91.144 147.972 L 97.788 146.675 98.189 140.370 C 98.654 133.070, 101.053 129.664, 106.980 127.888 C 117.257 124.809, 132.673 136.187, 136.620 149.764 C 138.560 156.439, 138.025 166.192, 135.352 172.868 C 133.664 177.085, 133.669 177.285, 135.493 178.618 C 138.411 180.753, 143.346 180.333, 145.713 177.750 C 152.105 170.774, 155.407 156.970, 154.830 139.640 C 154.482 129.189, 154.071 126.726, 151.962 122.469 C 149.956 118.421, 148.781 117.265, 145.618 116.233 C 143.483 115.535, 139.595 113.173, 136.979 110.983 C 134.363 108.792, 132.060 107.038, 131.861 107.085 C 131.663 107.131, 130.074 108.833, 128.330 110.867" stroke="none" fill="black" fill-rule="evenodd"/>
</svg>