<svg xmlns="http://www.w3.org/2000/svg" width="200" height="200" viewBox="0 0 200 200" version="1.1">
	<path d="M 123.296 13.442 C 118.253 15.790, 118.073 15.806, 117.479 13.933 C 116.575 11.087, 115.450 11.499, 109.870 16.719 C 104.277 21.950, 102 25.627, 102 29.427 C 102 32.665, 99.225 34.470, 90.986 36.589 C 83.251 38.579, 71.763 38.824, 44.101 37.589 L 23.703 36.679 24.359 39.295 C 26.384 47.361, 31.017 53.077, 37.555 55.574 C 42.112 57.314, 46.135 57.297, 72.500 55.424 C 79.349 54.937, 81.069 55.153, 84.454 56.924 C 89.530 59.579, 91.673 57.988, 86.916 55.095 C 81.835 52.005, 76.769 51.685, 61.252 53.471 C 40.108 55.905, 34.026 54.004, 28.599 43.264 L 26.963 40.028 58.232 40.264 C 91.388 40.514, 90.260 40.633, 102 35.673 C 103.046 35.231, 104.989 37.017, 108.422 41.577 C 114.975 50.279, 115.615 55.648, 111.144 64.433 C 108.930 68.783, 108.375 70.832, 109.063 72.117 C 110.491 74.787, 110.183 82.374, 108.428 87.715 C 105.397 96.939, 95.614 109, 91.163 109 C 88.774 109, 87.842 103.635, 88.469 93.500 C 89.117 83.037, 88.877 82.024, 85.316 80.150 C 81.962 78.385, 78.683 78.730, 63 82.500 C 41.499 87.669, 29.761 86.958, 26.729 80.305 C 24.229 74.819, 30.535 73.040, 56.500 71.904 C 77.979 70.964, 86.991 69.581, 87.807 67.098 C 88.171 65.992, 87.555 65.850, 84.884 66.425 C 77.212 68.078, 67.854 68.938, 57 68.987 C 36.201 69.082, 25.463 71.736, 23.561 77.252 C 22.730 79.663, 23.036 80.441, 26.021 83.522 C 27.945 85.506, 31.188 87.517, 33.465 88.135 C 39.254 89.709, 50.581 88.598, 64.811 85.060 C 71.581 83.377, 78.637 82, 80.489 82 C 85.004 82, 87.322 84.422, 86.617 88.404 C 85.096 97.006, 84.903 101.925, 85.935 105.758 C 88.124 113.887, 93.638 113.534, 101.527 104.758 C 109.888 95.459, 115.011 80.235, 112.213 73 C 111.445 71.014, 111.775 69.472, 113.818 65.500 C 115.714 61.812, 116.403 58.907, 116.444 54.431 C 116.503 48.018, 116.131 47.231, 107.779 36.148 L 104.500 31.796 110.297 26.398 C 113.485 23.429, 116.504 21, 117.006 21 C 117.509 21, 118.826 23.936, 119.935 27.524 C 124.027 40.773, 124.605 47.520, 124.388 79.500 C 124.351 85, 124.335 93.775, 124.353 99 C 124.397 111.935, 121.410 117.646, 112 122.614 C 109.166 124.110, 106.215 124.465, 96.500 124.481 L 84.500 124.500 78.346 112.655 C 69.839 96.281, 65.418 92, 57.016 92 C 53.143 92, 46.003 94.982, 41.624 98.428 C 39.837 99.835, 40.010 100.206, 45.243 106.203 C 51.237 113.072, 54 117.741, 54 121.001 C 54 124.077, 49 125.770, 36.389 126.965 C 30.439 127.529, 24.131 128.260, 22.372 128.590 C 19.129 129.198, 15 132.263, 15 134.061 C 15 136.097, 23.343 143.989, 27.831 146.200 C 34.154 149.315, 47.453 149.272, 61.500 146.093 C 67 144.849, 75.325 143.475, 80 143.042 C 84.675 142.608, 91.875 141.480, 96 140.535 C 118.917 135.286, 128.251 144.624, 123.868 168.415 C 122.828 174.060, 122.918 174.925, 124.978 179.030 C 131.584 192.199, 138.727 192.391, 144.602 179.558 C 150.456 166.771, 152.718 150.978, 151.263 133.046 C 150.250 120.549, 151.122 111.677, 153.716 108.113 C 156.759 103.931, 163.177 101.342, 176.271 99.014 C 193.522 95.946, 192.904 96.341, 188.822 90.989 C 182.021 82.072, 174.507 79.020, 159.323 79.006 C 153.783 79.001, 152.920 78.716, 150.964 76.250 C 149.052 73.840, 148.856 72.696, 149.375 67 C 149.702 63.425, 150.930 56.698, 152.106 52.051 C 154.583 42.256, 154.269 35.467, 150.924 26.527 C 145.673 12.492, 135.592 7.718, 123.296 13.442 M 124.250 15.973 C 121.912 17.034, 120 18.163, 120 18.483 C 120 18.802, 120.943 21.861, 122.095 25.282 C 125.950 36.719, 127.122 45.624, 126.930 62 C 126.694 82.170, 126.697 82.681, 127.130 95 C 127.615 108.759, 126.148 113.947, 120.050 120.045 C 114.256 125.839, 107.218 128, 94.139 128 C 85.664 128, 84.708 127.799, 82.446 125.537 C 81.092 124.183, 78.387 119.570, 76.435 115.287 C 67.319 95.281, 60.578 90.978, 48.313 97.334 C 46.561 98.243, 44.839 99.451, 44.488 100.020 C 44.136 100.589, 46.062 103.476, 48.767 106.435 C 53.891 112.042, 57 117.439, 57 120.727 C 57 123.304, 53.107 126.820, 48.910 128.034 C 47.035 128.576, 40.469 129.465, 34.321 130.008 C 23.116 130.998, 18 132.193, 18 133.822 C 18 135.492, 24.796 141.675, 28.634 143.497 C 34.992 146.515, 44.743 146.524, 59.500 143.525 C 66.650 142.072, 76.325 140.497, 81 140.024 C 85.675 139.550, 93.017 138.403, 97.315 137.475 C 110.569 134.610, 119.377 136.983, 124.676 144.847 C 127.772 149.441, 128.516 156.023, 127.084 166.155 C 125.941 174.247, 125.994 175.069, 127.903 178.810 C 130.729 184.350, 134.593 187.288, 137.211 185.887 C 139.745 184.531, 144.169 174.702, 146.612 165 C 148.219 158.616, 148.458 154.408, 148.221 136.715 C 148.058 124.607, 148.373 114.329, 148.974 112.095 C 151.364 103.219, 156.415 100.142, 174.656 96.449 C 181.710 95.021, 187.615 93.718, 187.780 93.554 C 187.944 93.390, 185.825 91.230, 183.072 88.755 C 177.292 83.558, 172.460 82, 162.122 82 C 153.711 82, 150.689 80.981, 148.302 77.338 C 145.871 73.628, 146.126 64.970, 149.006 53.478 C 151.955 41.706, 151.374 33.233, 147.010 24.368 C 142.057 14.307, 134.257 11.431, 124.250 15.973 M 110.673 19.529 C 104.451 25.572, 104.219 27.822, 110.359 22.576 C 115.641 18.064, 117.145 16, 115.153 16 C 114.688 16, 112.672 17.588, 110.673 19.529" stroke="none" fill="black" fill-rule="evenodd"/>
</svg>