<svg xmlns="http://www.w3.org/2000/svg" width="200" height="200" viewBox="0 0 200 200" version="1.1">
	<path d="M 139.500 16.088 C 137.850 16.591, 131.100 17.731, 124.500 18.621 C 114.838 19.923, 107.533 20.118, 87 19.624 C 72.975 19.286, 60.487 18.730, 59.250 18.388 C 57.626 17.940, 57 18.193, 57 19.298 C 57 21.589, 68.306 22.448, 97.500 22.375 C 115.154 22.331, 124.791 21.878, 130.298 20.833 L 138.096 19.353 131.325 26.177 L 124.554 33 113.527 33.032 C 107.462 33.049, 97.775 33.710, 92 34.500 C 65.553 38.119, 54.450 35.608, 48.882 24.750 C 47.064 21.205, 45 19.764, 45 22.040 C 45 24.522, 49.263 31.099, 52.446 33.526 C 60.226 39.460, 68.543 40.129, 95.500 36.985 C 114.336 34.789, 119.610 34.560, 120.441 35.904 C 120.748 36.401, 119.087 38.901, 116.750 41.461 L 112.500 46.114 102.500 47.158 C 96.839 47.749, 85.912 47.925, 77.317 47.564 C 60.862 46.872, 52.893 47.973, 44.917 52.042 C 41.511 53.780, 40.926 54.527, 41.189 56.802 C 41.904 62.999, 59.531 67.321, 82 66.808 L 95.500 66.500 95.813 71 C 95.985 73.475, 96.548 75.927, 97.063 76.450 C 98.297 77.701, 98.265 86.172, 97.015 89.461 C 94.948 94.898, 90.416 94.058, 82.410 86.752 C 79.246 83.863, 74.197 78.178, 71.191 74.117 L 65.725 66.735 62.453 74.972 C 57.521 87.386, 51.612 93.678, 42.599 96.111 C 36.155 97.850, 27.140 98.958, 19.250 98.980 C 15.262 98.991, 12 99.226, 12 99.503 C 12 99.779, 13.860 101.692, 16.133 103.753 C 29.980 116.307, 40.319 118.466, 64.693 113.898 C 75.517 111.869, 81.558 111.571, 100.500 112.135 C 101.600 112.168, 105.987 111.792, 110.250 111.300 C 114.513 110.808, 117.973 110.652, 117.941 110.953 C 117.908 111.254, 116.894 114.200, 115.687 117.500 C 113.529 123.400, 113.418 123.511, 108.996 124.185 C 106.523 124.562, 95.612 124.401, 84.748 123.829 C 58.140 122.426, 49.028 124.057, 47.407 130.513 C 46.251 135.122, 47.650 137.595, 52.453 139.429 C 62.576 143.295, 70.618 143.387, 99.500 139.967 C 113.532 138.306, 121.486 140.233, 125.429 146.251 C 126.814 148.365, 126.808 149.435, 125.370 157.049 C 122.069 174.537, 126.492 185.252, 136.210 183.308 C 140.932 182.364, 148.225 174.595, 151.105 167.441 C 153.271 162.062, 153.488 160.113, 153.397 146.846 C 153.263 127.236, 153.490 127.600, 133.520 115.062 C 130.508 113.170, 128.219 111.447, 128.434 111.232 C 128.649 111.018, 135.757 111.382, 144.229 112.042 C 162.387 113.457, 171.374 112.443, 177.842 108.249 C 185.911 103.017, 185.435 98.325, 176.392 93.948 C 170.312 91.004, 161.835 91.006, 145.190 93.953 C 134.122 95.912, 127 96.005, 127 94.190 C 127 93.832, 128.419 89.571, 130.154 84.722 L 133.307 75.906 136.451 78.953 C 138.180 80.629, 140.546 82, 141.709 82 C 146.813 82, 153.761 69.111, 157.352 52.980 C 161.810 32.955, 161.882 22, 157.554 22 C 153.993 22, 147.202 33.937, 138.498 55.500 C 135.834 62.100, 133.337 67.872, 132.950 68.327 C 132.563 68.782, 131.261 67.771, 130.058 66.081 C 126.417 60.968, 119.693 57.667, 112.922 57.667 C 109.005 57.667, 107.299 57.311, 107.730 56.583 C 110.091 52.601, 114.631 48, 116.199 48 C 118.972 48, 125.159 45.200, 127.736 42.778 C 130.122 40.537, 130.805 35.616, 128.894 34.435 C 128.224 34.020, 131.188 30.337, 136.426 25.074 C 145.913 15.543, 146.453 13.965, 139.500 16.088 M 153.255 30.250 C 151.512 33.138, 148.881 38.200, 147.406 41.500 C 143.328 50.629, 135 71.253, 135 72.223 C 135 73.996, 139.440 79, 141.014 79 C 145.374 79, 151.228 67.839, 154.587 53.123 C 157.251 41.449, 158.874 25, 157.361 25 C 156.845 25, 154.997 27.362, 153.255 30.250 M 121.609 40.011 C 117.349 44.727, 117.193 45.257, 120.433 44.025 C 124.681 42.410, 127 40.572, 127 38.818 C 127 35.622, 125.218 36.016, 121.609 40.011 M 107.679 49.654 C 107.320 50.014, 95.657 50.391, 81.763 50.492 C 55.864 50.681, 49.851 51.464, 44.559 55.333 C 42.712 56.684, 42.728 56.776, 45.077 58.312 C 49.790 61.397, 59.328 63.171, 74.153 63.722 C 91.768 64.375, 93.917 64.015, 93.248 60.515 C 92.669 57.487, 94.929 57.014, 95.710 60 C 96.312 62.303, 96.707 62.374, 99.663 60.715 C 102.181 59.301, 110.612 49, 109.252 49 C 108.747 49, 108.039 49.294, 107.679 49.654 M 106.447 61.015 C 102.161 62.335, 98.904 68.408, 100.379 72.331 C 101.276 74.718, 101.867 75.077, 104.154 74.619 C 108.005 73.849, 122.261 68.261, 124.441 66.667 C 126.144 65.421, 126.012 65.171, 122.510 63.006 C 118.347 60.433, 111.210 59.549, 106.447 61.015 M 126.148 71.185 C 124.185 77.380, 123.018 86.490, 123.812 89.423 C 124.545 92.132, 124.836 91.693, 127.801 83.404 C 131.534 72.970, 131.636 71.885, 129.099 69.590 C 127.275 67.939, 127.156 68.003, 126.148 71.185 M 114.500 74.064 C 110.650 75.635, 106.439 76.939, 105.143 76.960 C 103.322 76.991, 102.935 77.398, 103.442 78.750 C 105.090 83.149, 112.686 95.335, 116.440 99.601 L 120.589 104.315 121.869 100.044 C 122.877 96.679, 122.893 95.156, 121.944 92.865 C 120.738 89.954, 121.106 77.951, 122.545 73.250 C 123.387 70.496, 123.197 70.515, 114.500 74.064 M 63.544 79.659 C 59.678 88.533, 53.306 95.073, 45.853 97.816 C 42.747 98.960, 35.369 100.457, 29.457 101.145 L 18.709 102.394 22.105 105.229 C 27.021 109.333, 33.121 112.029, 40.263 113.252 C 45.713 114.186, 48.526 113.971, 62.011 111.588 C 74.035 109.464, 80.297 108.886, 90 109.006 C 103.842 109.176, 119 108.117, 119 106.980 C 119 106.575, 118.284 105.651, 117.410 104.925 C 115.151 103.050, 107.354 91.958, 103.932 85.752 C 101.053 80.531, 101.036 80.519, 101.018 83.782 C 100.970 92.437, 95.950 97.129, 89.142 94.882 C 85.567 93.702, 75.108 84.054, 69.428 76.696 L 66.492 72.892 63.544 79.659 M 149.500 96.040 C 144 97.127, 136.378 97.938, 132.562 97.842 L 125.625 97.668 124.107 101.829 C 123.147 104.463, 122.941 106.330, 123.545 106.915 C 125.353 108.665, 158.161 110.485, 166.009 109.270 C 173.518 108.108, 181 104.230, 181 101.500 C 181 100.691, 179.258 98.876, 177.129 97.467 C 171.760 93.914, 162.641 93.443, 149.500 96.040 M 120.693 111.750 C 120.459 112.162, 119.281 115.508, 118.074 119.184 C 116.173 124.979, 115.503 125.950, 113.033 126.493 C 111.467 126.837, 97.867 126.979, 82.811 126.809 C 57.974 126.529, 55.183 126.664, 52.718 128.273 C 50.943 129.431, 50 130.925, 50 132.579 C 50 138.683, 65.958 141.266, 87.163 138.595 C 113.718 135.250, 123.892 137.072, 128.495 145.998 C 129.554 148.050, 129.542 149.759, 128.430 155.500 C 125.707 169.551, 127.253 179.272, 132.415 180.568 C 138.004 181.971, 146.694 173.301, 149.552 163.469 C 151.788 155.777, 151.252 133.559, 148.738 129.722 C 147.176 127.339, 123.712 111, 121.851 111 C 121.448 111, 120.927 111.338, 120.693 111.750" stroke="none" fill="black" fill-rule="evenodd"/>
</svg>