<svg xmlns="http://www.w3.org/2000/svg" width="200" height="200" viewBox="0 0 200 200" version="1.1">
	<path d="M 142.605 14.831 C 141.891 15.986, 133.179 17.787, 122.500 18.987 C 117.550 19.543, 100.549 20.297, 84.721 20.661 C 64.693 21.122, 56.050 21.654, 56.299 22.412 C 56.496 23.010, 59.097 23.641, 62.079 23.814 C 70.332 24.291, 121.573 22.136, 129.400 20.983 C 133.194 20.423, 136.443 20.109, 136.618 20.284 C 136.793 20.460, 133.575 23.464, 129.468 26.961 L 121.999 33.320 115.249 33.103 C 111.537 32.984, 101.381 33.812, 92.681 34.943 C 73.865 37.390, 67.074 37.508, 60.335 35.507 C 53.842 33.579, 50.323 30.238, 48.804 24.559 C 47.362 19.165, 44.406 17.980, 45.541 23.250 C 48.737 38.093, 60.449 41.971, 90.288 38.066 C 98.972 36.930, 108.974 36, 112.516 36 L 118.955 36 114.728 39.757 C 105.119 48.295, 108.947 47.440, 77.646 48.032 C 52.287 48.510, 49.111 48.758, 45.569 50.532 C 43.407 51.614, 41.169 53.271, 40.597 54.214 C 38.969 56.894, 44.072 61.424, 52.050 64.382 C 59.757 67.238, 74.610 69.528, 79.322 68.586 L 82.457 67.959 78.112 72.386 C 73.494 77.091, 73.142 80.447, 77.571 77.545 C 79.853 76.050, 79.986 76.094, 80.601 78.545 C 81.619 82.604, 80.447 90.982, 78.602 92.825 C 77.132 94.293, 74.124 94.500, 54.213 94.500 C 30.412 94.500, 24.867 95.280, 21.398 99.113 C 17.397 103.534, 23.873 109.525, 36.922 113.476 C 42.647 115.210, 43.087 115.201, 54.149 113.138 C 66.923 110.756, 81.206 109.020, 88.141 109.008 C 93.161 108.999, 92.571 108.329, 96.717 118.750 C 97.056 119.604, 96.127 120, 93.788 120 C 84.986 120, 70.389 126.706, 62.908 134.187 C 54.223 142.872, 52.781 152.907, 58.564 164.401 C 65.719 178.620, 79.059 185.347, 100 185.297 C 120.206 185.249, 132.784 179, 140.237 165.306 C 147.113 152.672, 145.780 143.369, 135.669 133.445 C 127.374 125.304, 113.980 119.052, 104.750 119.012 L 102.001 119 104.750 113.915 L 107.500 108.830 124 109.569 C 153.172 110.876, 163.831 110.670, 171.152 108.659 C 178.258 106.706, 182 104.082, 182 101.050 C 182 98.165, 176.574 94.258, 169.560 92.091 C 158.506 88.677, 156.923 88.622, 148.299 91.346 C 137.754 94.677, 129.479 95.554, 123.080 94.019 C 120.283 93.348, 117.763 92.426, 117.482 91.971 C 117.200 91.515, 119.557 86.424, 122.718 80.658 L 128.467 70.173 132.080 74.087 C 137.077 79.500, 141.481 79.548, 146.945 74.250 C 150.234 71.061, 151.340 68.779, 154.339 59 C 161.533 35.536, 163.640 24.240, 161.266 21.866 C 158.025 18.625, 151.672 26.010, 137.461 49.538 L 128.211 64.853 125.855 62.329 C 120.230 56.301, 110.465 54.358, 101.500 57.482 L 97.500 58.875 102.309 54.472 C 105.490 51.559, 108.367 49.867, 110.809 49.474 C 122.915 47.524, 129 44.816, 129 41.380 C 129 40.568, 127.891 38.877, 126.536 37.621 L 124.073 35.338 135.066 25.621 C 141.112 20.277, 145.794 15.476, 145.471 14.952 C 144.745 13.779, 143.293 13.717, 142.605 14.831 M 153.699 29.518 C 150.013 34.214, 134.664 58.805, 131.116 65.699 C 130.125 67.625, 130.464 68.404, 133.837 71.949 C 135.956 74.177, 138.419 76, 139.310 76 C 140.201 76, 142.520 74.605, 144.462 72.899 C 147.426 70.297, 148.551 68.004, 151.453 58.649 C 158.277 36.652, 161.070 24, 159.103 24 C 158.512 24, 156.080 26.483, 153.699 29.518 M 116.125 42.178 L 111.749 46.306 116.247 45.690 C 124.468 44.563, 127.706 42.106, 124.800 39.200 C 122.767 37.167, 120.675 37.885, 116.125 42.178 M 74 51.010 C 49.434 51.634, 43 52.569, 43 55.516 C 43 60.626, 68.074 67.221, 81.247 65.575 C 86.041 64.976, 87.211 64.264, 94.502 57.505 C 99.982 52.426, 101.870 50.139, 100.500 50.241 C 99.400 50.322, 87.475 50.668, 74 51.010 M 105.718 59.061 C 101.500 60.088, 96 62.708, 96 63.690 C 96 64.041, 98.092 68.056, 100.649 72.611 C 105.166 80.659, 113.284 91.010, 114.286 90 C 114.559 89.725, 117.506 84.550, 120.836 78.500 L 126.890 67.500 124.195 64.661 C 119.155 59.351, 112.638 57.376, 105.718 59.061 M 87.744 69.818 C 83.399 73.181, 83.029 73.798, 83.462 76.940 C 83.723 78.833, 86.249 86.145, 89.076 93.190 L 94.217 106 100.017 106 L 105.816 106 109.376 99.525 L 112.935 93.050 108.117 88.025 C 105.468 85.262, 101.153 79.175, 98.529 74.500 C 95.905 69.825, 93.475 66.030, 93.129 66.068 C 92.783 66.105, 90.360 67.793, 87.744 69.818 M 82.129 92.071 C 79.665 97.637, 76.002 98.515, 60.777 97.189 C 41.124 95.478, 23 97.962, 23 102.367 C 23 104.272, 27.858 107.226, 36 110.272 L 42.500 112.703 53.698 110.441 C 59.856 109.196, 70.649 107.658, 77.681 107.023 C 84.713 106.387, 90.578 105.756, 90.713 105.620 C 91.109 105.224, 84.552 89.013, 83.994 89.006 C 83.716 89.003, 82.876 90.382, 82.129 92.071 M 150.465 93.497 C 140.821 97.734, 126.075 98.660, 118.415 95.509 L 115.330 94.240 112.151 100.021 L 108.973 105.803 122.236 106.380 C 129.531 106.697, 140.776 107.239, 147.224 107.585 C 159.779 108.259, 169.601 107.112, 175.543 104.278 C 182.054 101.173, 179.261 97.981, 166.645 94.106 C 158.883 91.722, 154.850 91.570, 150.465 93.497 M 96.495 110.750 C 96.885 111.713, 97.665 113.773, 98.228 115.329 L 99.251 118.157 101.625 113.977 C 102.931 111.677, 104 109.617, 104 109.398 C 104 109.179, 102.152 109, 99.893 109 C 96.378 109, 95.888 109.252, 96.495 110.750 M 101.562 125.983 C 101.738 129.612, 102.302 130.376, 107.922 134.600 C 119.556 143.346, 122.250 151.458, 115.647 157.857 C 109.274 164.034, 96.151 165.879, 87.962 161.750 C 80.038 157.754, 79.099 150.961, 85.338 142.773 C 87.128 140.423, 90.554 134.944, 92.951 130.597 L 97.309 122.694 91.112 123.256 C 83.762 123.923, 72.576 128.945, 66.338 134.379 C 55.614 143.722, 55.305 156.935, 65.492 170.526 C 71.993 179.200, 93.510 184.858, 109.443 182.083 C 124.577 179.448, 132.314 174.361, 138.478 162.992 C 142.058 156.387, 142.554 147.634, 139.655 142.197 C 134.395 132.332, 116.777 122, 105.216 122 L 101.369 122 101.562 125.983 M 96.969 129.074 C 96.269 130.765, 93.218 135.827, 90.190 140.324 C 83.487 150.275, 82.751 154.913, 87.323 158.367 C 89.670 160.140, 91.526 160.500, 98.323 160.500 C 108.115 160.500, 113.375 158.378, 115.707 153.488 C 117.095 150.577, 117.076 149.962, 115.486 146.612 C 113.595 142.627, 107.725 137.096, 101.739 133.659 C 98.467 131.781, 98.054 131.142, 98.568 128.750 C 99.353 125.095, 98.550 125.258, 96.969 129.074" stroke="none" fill="black" fill-rule="evenodd"/>
</svg>