<svg xmlns="http://www.w3.org/2000/svg" width="200" height="200" viewBox="0 0 200 200" version="1.1">
	<path d="M 139.808 17.544 C 132.430 21.543, 123.643 22.419, 90.500 22.460 C 55.780 22.503, 54.182 22.731, 52.022 27.946 C 50.884 30.693, 51.799 34.848, 54.171 37.706 C 56.055 39.976, 57.035 37.969, 55.496 34.993 C 53.030 30.224, 53.561 28.081, 57.632 26.380 C 60.656 25.117, 66.310 24.904, 91.382 25.111 C 118.903 25.339, 122.276 25.180, 130.500 23.274 C 135.450 22.126, 139.579 21.261, 139.675 21.352 C 139.772 21.443, 138.342 26.495, 136.497 32.579 C 134.653 38.664, 132.073 50.040, 130.764 57.861 C 128.479 71.512, 128.314 72.004, 126.644 70.159 C 120.638 63.523, 89.701 62.439, 70.180 68.180 L 62.861 70.333 54.884 66.443 C 46.621 62.415, 43.366 59.835, 44.411 58.144 C 45.761 55.959, 56.731 54.773, 80 54.296 C 103.884 53.805, 104.732 53.717, 113.735 50.775 C 122.318 47.970, 128 44.503, 128 42.071 C 128 39.917, 123.013 37.944, 114.914 36.895 C 97.402 34.626, 60.415 38.748, 64.212 42.545 C 64.530 42.864, 68.325 42.388, 72.645 41.489 C 88.074 38.278, 120.922 38.522, 124.273 41.873 C 125.467 43.067, 121.071 45.415, 111.633 48.625 C 105.592 50.679, 102.750 51.001, 90.575 51.009 C 69.539 51.022, 49.281 52.693, 45.047 54.765 C 37.912 58.255, 40.510 62.596, 53.542 68.963 C 62.849 73.510, 63.338 73.593, 68.419 71.469 C 73.198 69.473, 89.667 67.013, 98.308 67.006 C 110.985 66.995, 123.509 69.778, 125.535 73.056 C 126.442 74.525, 123.303 77.783, 118.500 80.356 C 114.577 82.459, 113.616 82.500, 68.500 82.500 C 43.200 82.500, 20.826 82.885, 18.779 83.356 L 15.058 84.212 16.643 87.356 C 22.308 98.593, 33.792 102.999, 52.137 100.973 C 72.699 98.703, 79.358 98.602, 83.357 100.499 C 87.701 102.561, 90 106.395, 90 111.580 L 90 115.260 85.250 114.624 C 76.382 113.436, 57.362 112.719, 52.818 113.400 C 47.861 114.143, 44 117.017, 44 119.962 C 44 122.776, 48.638 127.753, 54.242 130.953 L 59.207 133.789 55.270 134.454 C 43.145 136.503, 38.277 146.469, 42.484 160.633 C 45.548 170.951, 56.085 181.855, 64.520 183.438 C 71.253 184.701, 97.817 176.080, 100.050 171.907 C 102.681 166.991, 99.447 164.485, 84.500 159.859 C 79 158.157, 74.130 156.424, 73.677 156.009 C 72.777 155.184, 75.063 154.494, 82.022 153.492 C 86.517 152.845, 86.561 152.801, 89.369 145.975 C 90.923 142.198, 93.656 137.418, 95.442 135.352 L 98.689 131.595 100.296 134.048 C 102.688 137.698, 104.951 152.543, 105.678 169.357 L 106.324 184.261 113.912 183.612 C 139.885 181.390, 152.400 174.162, 157.247 158.585 C 159.059 152.764, 159.456 149.066, 159.476 137.855 C 159.498 125.602, 159.296 123.982, 157.500 121.975 C 154.862 119.028, 149.043 116.591, 139.658 114.503 C 135.446 113.566, 132 112.603, 132 112.363 C 132 112.124, 132.951 108.136, 134.113 103.501 L 136.227 95.075 139.863 96.927 C 159.651 107.005, 180.623 100.885, 179.022 85.500 C 178.286 78.421, 167.525 74.821, 154.948 77.445 C 150.851 78.299, 147.378 78.999, 147.230 78.999 C 147.081 79, 147.817 77.313, 148.864 75.250 C 151.789 69.492, 155.646 56.462, 157.933 44.610 C 161.223 27.559, 160.361 21.554, 155.443 27.272 C 153.075 30.024, 144.869 54.175, 138.420 77.371 C 135.233 88.834, 134.166 91.423, 132.277 92.283 C 131.020 92.856, 129.739 93.072, 129.430 92.763 C 128.650 91.983, 132.584 61.869, 135.068 49.605 C 136.194 44.047, 138.675 35, 140.581 29.500 C 142.488 24, 144.150 18.873, 144.274 18.108 C 144.602 16.089, 142.890 15.873, 139.808 17.544 M 155.634 32.500 C 152.223 40.547, 136.562 91.896, 137.296 92.629 C 137.463 92.796, 140.277 94.137, 143.550 95.609 C 152.020 99.418, 163.165 100.067, 169.280 97.107 C 178.640 92.576, 179.235 83.783, 170.410 80.413 C 165.503 78.538, 157.868 78.959, 149.001 81.592 C 146.226 82.416, 143.559 82.845, 143.074 82.546 C 142.589 82.246, 143.463 79.638, 145.017 76.750 C 148.660 69.979, 152.382 58.189, 155.011 45.099 C 157.125 34.570, 157.438 28.245, 155.634 32.500 M 125.932 78.582 C 125.210 79.451, 122.017 81.477, 118.835 83.083 L 113.050 86.003 71.775 85.424 C 49.074 85.106, 27.827 85.217, 24.560 85.672 L 18.621 86.500 22.060 90.417 C 29.082 98.412, 37.490 100.003, 59.461 97.494 C 75.428 95.671, 81.408 95.946, 86.104 98.720 C 90.125 101.096, 93 107.417, 93 113.883 C 93 118.416, 92.760 119.064, 91.250 118.616 C 87.011 117.358, 71.712 115.834, 62.800 115.782 C 52.234 115.720, 47 117.123, 47 120.018 C 47 124.208, 60.732 132.615, 74.750 137.007 C 78.737 138.256, 82 139.639, 82 140.080 C 82 141.906, 79.918 141.862, 74.367 139.921 C 65.819 136.931, 55.418 136.378, 51.071 138.682 C 45.749 141.504, 43.728 144.972, 43.784 151.185 C 43.898 163.941, 54.390 178.669, 64.746 180.612 C 71.474 181.874, 98 173.002, 98 169.490 C 98 167.592, 92.128 164.831, 81.033 161.510 C 71.129 158.545, 68.796 157.299, 69.202 155.188 C 69.500 153.641, 72.819 152.451, 82.091 150.568 C 84.147 150.150, 85.238 148.734, 87.374 143.709 C 93.145 130.129, 99.496 126.398, 103.364 134.316 C 105.683 139.063, 107.599 151.612, 108.545 168.250 L 109.271 181 112.728 181 C 118.712 181, 136.034 177.017, 141.006 174.497 C 147.112 171.403, 152.613 164.962, 154.631 158.544 C 155.590 155.492, 156.414 148.168, 156.717 140 C 157.182 127.459, 157.071 126.316, 155.158 123.905 C 152.824 120.964, 141.698 117.007, 134.880 116.694 L 130.674 116.500 128.847 123.500 L 127.019 130.500 129.510 141.070 C 132.241 152.665, 132.517 155.562, 130.979 156.513 C 129.658 157.329, 127.830 152.850, 124.522 140.690 C 122.795 134.341, 122.185 130.461, 122.791 129.690 C 123.307 129.036, 123.985 125.272, 124.300 121.327 L 124.871 114.154 121.185 113.503 C 114.754 112.368, 110.535 109.795, 110.188 106.797 C 109.939 104.640, 110.656 103.537, 113.781 101.274 C 115.928 99.719, 119.537 97.611, 121.801 96.590 C 125.530 94.908, 125.968 94.323, 126.459 90.367 C 126.756 87.965, 127.253 83.975, 127.561 81.500 C 128.171 76.609, 127.929 76.176, 125.932 78.582 M 130.865 95.735 C 128.960 96.163, 127.988 100.158, 128.030 107.375 C 128.050 110.646, 128.361 111.957, 128.891 111 C 130.026 108.952, 133.403 96.045, 132.902 95.670 C 132.681 95.504, 131.764 95.533, 130.865 95.735 M 120 100.591 C 113.529 104.282, 111.783 106.034, 113.053 107.564 C 114.062 108.780, 123.783 111.601, 124.421 110.863 C 125.195 109.967, 126.013 98.001, 125.300 98.012 C 124.860 98.019, 122.475 99.179, 120 100.591" stroke="none" fill="black" fill-rule="evenodd"/>
</svg>