<svg xmlns="http://www.w3.org/2000/svg" width="200" height="200" viewBox="0 0 200 200" version="1.1">
	<path d="M 125.014 11.750 C 125.033 15.631, 117.668 45.973, 116.703 45.988 C 116.265 45.994, 115.140 44.637, 114.203 42.970 C 110.186 35.825, 94.690 31.918, 70.500 31.951 C 46.698 31.983, 35 34.990, 35 41.077 C 35 43.019, 42.573 50, 44.680 50 C 47.028 50, 46.085 48.216, 42.599 46.061 C 33.064 40.168, 39.966 36.005, 61.812 34.472 C 71.694 33.778, 90.681 35.171, 99 37.198 C 104.372 38.508, 111 41.681, 111 42.944 C 111 43.440, 112.182 45.251, 113.627 46.969 C 116.192 50.017, 116.224 50.231, 115.001 55.993 C 113.850 61.420, 113.497 61.949, 110.624 62.556 C 103.486 64.062, 95.601 69.571, 82.145 82.453 C 62.329 101.424, 57.839 104.521, 44 108.766 C 33.820 111.888, 29 112.491, 29 110.641 C 29 109.798, 35.194 103.750, 42.765 97.203 C 59.756 82.509, 63.218 78.701, 62.807 75.150 C 62.520 72.674, 62.129 72.481, 56.857 72.203 C 53.754 72.040, 48.213 72.603, 44.545 73.453 C 35.531 75.544, 34.531 75.446, 30.803 72.115 L 27.574 69.230 30.921 67.194 C 34.527 65.001, 43.951 63.108, 64.483 60.453 C 71.623 59.529, 78.518 58.373, 79.805 57.884 C 82.768 56.757, 82.353 53.934, 78.988 52.328 C 75.870 50.840, 56.821 46.992, 55.774 47.639 C 53.677 48.936, 55.786 49.902, 64.250 51.523 C 73.692 53.332, 78.590 54.744, 77.881 55.453 C 77.662 55.671, 69.104 57.014, 58.862 58.436 C 39.443 61.134, 32.614 62.713, 28.391 65.479 C 24.595 67.967, 25.492 71.714, 30.769 75.413 C 34.978 78.363, 35.117 78.387, 40.769 77.146 C 53.278 74.398, 59.073 73.673, 60.122 74.722 C 61.572 76.172, 56.886 81.255, 43.021 93.270 C 29.273 105.183, 26 108.707, 26 111.596 C 26 114.643, 28.758 115.072, 37.166 113.332 C 54.654 109.712, 63.230 104.485, 83.236 85.254 C 93.896 75.007, 99.472 70.421, 104.057 68.129 C 111.225 64.547, 113.367 64.203, 112.624 66.750 C 112.344 67.713, 111.573 71.345, 110.913 74.821 C 110.013 79.558, 109.121 81.530, 107.356 82.686 C 104.716 84.416, 104.298 87.544, 106.389 89.921 C 107.458 91.136, 107.587 92.867, 106.950 97.432 C 106.089 103.607, 106.582 108.610, 108.263 110.750 C 109.559 112.400, 113.582 112.331, 119.473 110.558 L 124.265 109.116 123.663 114.194 C 123.333 116.986, 122.811 119.523, 122.503 119.830 C 122.036 120.297, 116.542 118.870, 93.745 112.363 C 90.890 111.548, 90.462 114.798, 93.060 117.564 L 95.373 120.026 92.187 118.915 C 90.434 118.304, 89 117.194, 89 116.447 C 89 114.266, 82.703 113.667, 67.591 114.413 C 48.046 115.377, 39.662 117.337, 38.427 121.232 C 37.337 124.664, 42.698 128.779, 54.368 133.470 L 65.003 137.744 60.751 138.403 C 53.219 139.570, 46.297 143.636, 43.384 148.607 C 41.133 152.448, 40.827 153.945, 41.175 159.414 C 41.789 169.050, 46.425 177.320, 57.749 188.978 C 66.348 197.830, 67.082 198.360, 68.183 196.511 C 70.948 191.866, 78.636 184.836, 83.613 182.401 C 91.968 178.313, 99.979 178.708, 118.575 184.125 C 145.216 191.885, 154.635 189.726, 165.890 173.280 C 167.871 170.385, 167.977 169.629, 166.942 165.786 C 164.083 155.168, 158.561 147.604, 151.212 144.240 C 146.197 141.943, 144.934 141.776, 136.906 142.346 C 131.499 142.730, 127.865 142.591, 127.491 141.986 C 127.103 141.358, 131.536 140.993, 139.691 140.980 C 164.106 140.942, 175.562 137.593, 170.481 131.979 C 168.426 129.709, 160.116 127.163, 152.059 126.336 L 145.618 125.675 150.260 124.322 C 152.813 123.577, 155.157 122.554, 155.470 122.048 C 156.338 120.644, 146.023 110.663, 141.500 108.530 C 139.300 107.493, 135.137 106.443, 132.250 106.198 C 127.058 105.757, 127 105.716, 127 102.424 L 127 99.096 131.250 100.409 C 150.697 106.418, 150.193 106.304, 151.099 104.881 C 153.733 100.743, 158.466 87.428, 160.609 78.127 C 165.853 55.363, 164.699 33.723, 157.685 23.298 C 153.781 17.495, 147.407 12.882, 142.991 12.663 C 138.983 12.465, 139.555 10.776, 133.398 41 C 130.878 53.375, 128.707 63.612, 128.574 63.750 C 127.858 64.493, 117.001 61.548, 117.006 60.612 C 117.009 60, 117.475 57.830, 118.042 55.788 C 119.011 52.300, 119.222 52.144, 121.536 53.199 C 124.817 54.693, 128.653 52.950, 130.197 49.262 C 132.353 44.113, 131.237 20.447, 128.381 10.750 C 127.540 7.897, 124.998 8.651, 125.014 11.750 M 141.564 16.181 C 139.904 21.316, 132 60.644, 132 63.769 C 132 64.859, 135.109 67.580, 140.206 70.952 C 149.493 77.094, 149.504 77.070, 136.698 78.442 C 133.026 78.835, 129.832 79.463, 129.600 79.838 C 129.369 80.212, 128.862 84.153, 128.475 88.595 L 127.770 96.672 133.635 98.338 C 136.861 99.254, 141.639 100.657, 144.254 101.455 L 149.007 102.906 150.896 99.203 C 151.934 97.166, 153.935 91.675, 155.340 87 C 162.924 61.781, 162.988 36.206, 155.495 24.831 C 151.421 18.645, 142.548 13.136, 141.564 16.181 M 123.099 34.029 C 119.648 48.869, 119.783 51, 124.173 51 C 127.848 51, 129.335 44.865, 128.642 32.563 C 128.303 26.547, 127.653 21.253, 127.197 20.797 C 126.741 20.341, 124.897 26.296, 123.099 34.029 M 115.100 68.750 C 114.562 70.813, 113.810 74.236, 113.429 76.358 L 112.737 80.217 116.118 79.526 C 127.225 77.258, 127.952 76.663, 127.986 69.797 C 127.998 67.521, 127.408 66.929, 124.250 66.053 C 117.542 64.190, 116.184 64.590, 115.100 68.750 M 130.630 71.250 C 129.250 76.402, 129.601 76.764, 135.126 75.891 C 137.946 75.445, 140.441 74.892, 140.672 74.662 C 141.061 74.272, 132.696 69, 131.689 69 C 131.438 69, 130.962 70.013, 130.630 71.250 M 118.500 81.738 C 115.200 82.585, 112.392 83.361, 112.260 83.462 C 112.129 83.563, 111.736 85.068, 111.389 86.806 C 110.787 89.814, 110.985 90.065, 115.471 91.988 C 124.655 95.924, 124.660 95.923, 125.435 89.327 C 125.811 86.122, 126.347 82.713, 126.627 81.750 C 127.229 79.674, 126.546 79.673, 118.500 81.738 M 107.500 86 C 107.160 86.550, 107.359 87, 107.941 87 C 108.523 87, 109 86.550, 109 86 C 109 85.450, 108.802 85, 108.559 85 C 108.316 85, 107.840 85.450, 107.500 86 M 109.483 99.319 C 108.768 105.991, 110.021 110.575, 112.327 109.720 C 112.972 109.481, 115.862 108.686, 118.750 107.953 C 123.476 106.755, 124 106.349, 124 103.893 C 124 102.392, 124.231 100.562, 124.513 99.827 C 124.862 98.917, 122.876 97.696, 118.275 95.996 C 114.563 94.623, 111.220 93.363, 110.848 93.195 C 110.476 93.027, 109.861 95.783, 109.483 99.319 M 126.630 111.250 C 126.299 112.487, 126.021 115.179, 126.014 117.231 C 126.002 120.468, 126.364 121.056, 128.750 121.671 C 132.566 122.654, 145.891 122.669, 149.398 121.694 L 152.296 120.888 148.590 117.092 C 143.642 112.025, 137.349 109, 131.757 109 C 127.911 109, 127.143 109.337, 126.630 111.250 M 96 117.231 C 100.152 121.304, 110.271 129, 111.476 129 C 112.230 129, 115.132 128.473, 117.924 127.828 C 126.387 125.875, 124.778 124.019, 111.237 120.119 C 104.782 118.260, 98.375 116.518, 97 116.249 C 94.788 115.816, 94.673 115.929, 96 117.231 M 54.173 118.075 C 45.991 119.136, 41 120.812, 41 122.496 C 41 125.458, 55.845 131.961, 76.500 138.046 C 82.550 139.829, 87.742 141.657, 88.038 142.110 C 88.334 142.562, 90.673 142.301, 93.236 141.530 C 95.798 140.758, 102.487 139.571, 108.099 138.890 L 118.304 137.654 115.402 135.332 C 113.806 134.055, 112.208 133.008, 111.850 133.005 C 111.493 133.002, 108.872 131.433, 106.026 129.517 C 103.179 127.602, 96.587 124.002, 91.376 121.517 L 81.902 117 71.201 117.127 C 65.315 117.197, 57.653 117.623, 54.173 118.075 M 126 125 C 126 125.550, 127.688 125.955, 129.750 125.900 C 133.097 125.811, 133.231 125.715, 131 125 C 127.425 123.855, 126 123.855, 126 125 M 128.250 128.706 C 126.475 129.048, 126.003 129.810, 126.015 132.320 C 126.044 138.295, 126.073 138.304, 145.139 137.784 C 157.369 137.451, 163.534 136.871, 166 135.822 L 169.500 134.333 166.340 132.687 C 159.860 129.313, 137.326 126.958, 128.250 128.706 M 116.612 130.882 C 114.964 131.529, 115.284 132.037, 119.112 134.861 L 123.500 138.099 123.825 135.465 C 124.455 130.346, 121.982 128.774, 116.612 130.882 M 55.759 142.423 C 47.064 145.526, 43.593 150.172, 43.672 158.603 C 43.753 167.328, 48.711 176.074, 60.197 187.754 L 66.348 194.009 71.054 188.729 C 78.154 180.762, 84.560 177.683, 95 177.218 C 102.639 176.878, 104.918 177.256, 117.500 180.949 C 141.207 187.909, 149.295 187.469, 158.016 178.748 C 163.997 172.768, 165.149 170.126, 163.844 165.384 C 159.953 151.236, 152.688 145, 140.099 145 C 136.259 145, 132.881 145.383, 132.592 145.851 C 132.303 146.319, 133.212 148.231, 134.612 150.101 C 142.730 160.939, 145.106 172.267, 139.852 175.079 C 135.185 177.577, 128.468 167.579, 125.990 154.447 C 124.869 148.504, 124.578 147.996, 122.631 148.579 C 121.459 148.930, 111.349 153.893, 100.164 159.608 C 88.979 165.324, 79.016 170, 78.023 170 C 75.869 170, 72.998 163.554, 73.004 158.730 C 73.009 154.259, 76.146 149.548, 80.942 146.809 C 83.165 145.539, 84.988 144.225, 84.992 143.888 C 85.007 142.746, 73.701 141, 66.583 141.044 C 62.687 141.068, 57.817 141.689, 55.759 142.423 M 103.831 142.004 C 91.495 144.136, 81.528 148.242, 78.095 152.607 C 75.681 155.675, 75.254 162.598, 77.306 165.403 C 78.931 167.626, 80.577 167.010, 97.037 158.018 C 103.342 154.573, 111.875 150.264, 116 148.442 C 121.360 146.074, 123.500 144.611, 123.500 143.314 C 123.500 141.737, 122.522 141.480, 116 141.349 C 111.875 141.265, 106.399 141.560, 103.831 142.004 M 128.485 151.835 C 129.632 161.927, 135.867 174.437, 138.836 172.601 C 142.130 170.566, 137.500 157.133, 131.046 150 L 127.880 146.500 128.485 151.835" stroke="none" fill="black" fill-rule="evenodd"/>
</svg>