<svg xmlns="http://www.w3.org/2000/svg" width="200" height="200" viewBox="0 0 200 200" version="1.1">
	<path d="M 141.597 17.250 C 139.416 20.637, 136.404 30.771, 132.470 47.951 C 130.524 56.449, 128.722 63.611, 128.466 63.867 C 128.210 64.124, 128 62.733, 128 60.777 C 128 55.660, 125.245 41.880, 122.460 33.064 C 120.542 26.992, 119.160 24.592, 115.529 21.029 C 111.580 17.153, 110.813 16.766, 109.592 18.039 C 108.399 19.283, 108.389 20.812, 109.526 28.330 C 111.447 41.026, 112.413 55, 111.370 55 C 110.882 55, 109.404 51.963, 108.086 48.250 C 104.842 39.110, 98.377 25.558, 96.530 24.025 C 94.150 22.050, 92.337 23.488, 91.630 27.914 L 90.976 32 75.738 32.020 C 60.035 32.040, 42.451 33.862, 35.598 36.180 C 31.295 37.635, 29.356 39.879, 30.292 42.319 C 32.001 46.773, 49.526 51.479, 67.956 52.434 C 84.981 53.316, 85.390 53.936, 70.908 56.916 C 59.296 59.305, 36.690 61.997, 28.224 61.999 L 21.949 62 23.595 65.250 C 25.926 69.852, 27.955 71.935, 32.238 74.120 C 38.343 77.237, 45.940 77.455, 62.809 74.998 C 71.575 73.721, 80.720 72.956, 84.207 73.209 C 89.519 73.593, 90.662 74.057, 93.149 76.840 C 95.549 79.527, 96 80.899, 96 85.516 C 96 89.724, 96.349 91, 97.500 91 C 99.468 91, 99.544 83.238, 97.621 78.636 C 94.085 70.172, 87.714 68.829, 65.500 71.864 C 47.806 74.282, 42.308 74.491, 36.781 72.956 C 33.138 71.944, 27 67.597, 27 66.029 C 27 65.593, 30.938 64.929, 35.750 64.553 C 54.050 63.124, 78.235 58.964, 83.213 56.390 C 84.746 55.597, 86 54.303, 86 53.513 C 86 51.436, 80.220 50.241, 66.500 49.483 C 49.673 48.552, 32.187 43.939, 33.262 40.713 C 34.340 37.480, 53.173 35.007, 76.750 35.003 L 94 35 94.032 30.250 C 94.062 25.759, 94.149 25.609, 95.620 27.500 C 97.657 30.118, 101.210 38.030, 106.173 51 C 110.728 62.907, 110.789 65.901, 106.642 74.280 C 104.200 79.213, 104.015 81.727, 106.192 80.381 C 106.772 80.023, 108.443 77.092, 109.907 73.869 L 112.567 68.007 116.379 79.588 L 120.190 91.169 117.845 93.679 C 113.870 97.935, 110.064 99.323, 102.352 99.328 C 95.257 99.333, 95.164 99.298, 89.852 94.632 C 81.427 87.231, 74.983 84.497, 66 84.514 C 57.048 84.530, 53.624 86.083, 33.272 99.354 C 18.330 109.097, 16.558 111.503, 21.313 115.593 C 25.589 119.271, 33.476 120.288, 53.473 119.741 C 69.048 119.315, 72.860 118.875, 81.500 116.511 C 88.857 114.498, 94.738 113.641, 103.749 113.267 L 115.999 112.759 114.385 116.629 C 109.553 128.222, 104.260 135.051, 100.173 134.965 C 97.670 134.912, 94.559 132.874, 91.638 129.372 C 88.975 126.181, 85.111 124.751, 74.389 122.990 C 61.522 120.876, 53 127.378, 53 139.308 C 53 149.650, 59.922 167.970, 69.050 181.785 C 72.631 187.206, 73.498 187.964, 75.351 187.296 C 76.533 186.869, 91.675 186.516, 109 186.510 C 144.018 186.499, 147.128 186.072, 152.690 180.510 C 156.476 176.724, 156.766 174.233, 154.087 168.500 C 150.323 160.443, 150.715 160.558, 140 164.375 C 134.775 166.236, 127.305 168.323, 123.400 169.013 C 115.140 170.472, 100.574 169.945, 97.090 168.061 C 92.424 165.539, 97.344 164.501, 114 164.493 C 129.410 164.487, 129.540 164.468, 136.431 161.224 C 144.542 157.406, 150 153.483, 150 151.472 C 150 150.688, 148.784 149.248, 147.297 148.273 C 144.926 146.718, 141.199 146.438, 117.047 146 C 99.726 145.686, 90.031 145.158, 90.930 144.580 C 91.716 144.074, 104.091 143.114, 118.430 142.448 C 132.768 141.781, 145.400 140.889, 146.500 140.466 C 155.988 136.815, 153.018 130.149, 137.229 119.652 C 133.253 117.009, 130 114.493, 130 114.061 C 130 113.629, 132.497 112.775, 135.549 112.162 C 146.510 109.960, 150.911 106.329, 159.450 92.441 C 163.301 86.177, 163.886 85.688, 171.358 82.484 C 180.443 78.588, 183.206 76.431, 182.794 73.555 C 182.555 71.887, 180.239 70.742, 170.500 67.476 C 155.769 62.535, 152.457 60.798, 149.960 56.701 C 147.343 52.410, 147.495 48.875, 150.593 41.972 L 153.186 36.193 151.613 28.585 C 148.981 15.857, 145.229 11.611, 141.597 17.250 M 142.502 21.250 C 141.219 24.223, 139.346 31.741, 128.013 79.393 L 124.234 95.286 126.745 102.755 L 129.256 110.224 134.273 109.558 C 144.159 108.247, 149.458 103.914, 157.027 90.954 C 160.290 85.367, 161.989 83.495, 164.848 82.337 C 174.655 78.364, 181.263 74.870, 180.422 74.099 C 179.915 73.634, 174.431 71.640, 168.237 69.666 C 162.042 67.692, 155.015 64.730, 152.622 63.084 C 144.711 57.641, 143.225 50.363, 148.008 40.484 C 149.653 37.086, 150.045 34.993, 149.557 32.217 C 148.352 25.360, 145.954 18, 144.924 18 C 144.363 18, 143.273 19.462, 142.502 21.250 M 111.419 23 C 113.204 30.895, 114.078 40.791, 113.931 51.437 C 113.771 62.976, 113.931 64.009, 117.632 75.216 C 119.759 81.660, 121.779 86.948, 122.120 86.966 C 123.771 87.056, 125.493 76.614, 125.413 67 C 125.268 49.497, 120.094 29.410, 114.288 23.812 C 110.965 20.607, 110.872 20.580, 111.419 23 M 54.500 89.800 C 51.200 91.399, 42.538 96.617, 35.250 101.395 C 19.639 111.631, 18.915 113.011, 27.750 115.684 C 39.249 119.163, 74.375 117.213, 85.742 112.463 C 88.046 111.501, 94.428 110.716, 103.195 110.317 L 117.016 109.688 119.008 103.239 C 121.616 94.796, 121.544 94.364, 118.025 97.325 C 113.681 100.981, 108.762 102.257, 100.602 101.845 C 93.603 101.492, 93.197 101.327, 87.936 96.715 C 80.451 90.154, 74.874 87.626, 67 87.225 C 61.461 86.942, 59.613 87.323, 54.500 89.800 M 121.695 103.750 C 121.390 105.263, 120.835 107.287, 120.463 108.250 C 119.905 109.691, 120.346 110, 122.960 110 C 126.350 110, 126.368 109.871, 123.891 103.250 C 122.793 100.316, 122.369 100.412, 121.695 103.750 M 115.513 120.678 C 111.224 129.961, 107.908 134.479, 103.841 136.582 C 99.682 138.733, 96.491 137.733, 90.942 132.543 C 87.140 128.986, 85.102 127.956, 79.222 126.619 C 70.358 124.603, 68.049 124.597, 63.097 126.578 C 53.050 130.598, 53.765 146.767, 64.965 168.806 C 73.016 184.650, 72.771 184.403, 80.186 184.067 C 83.659 183.910, 99.100 183.718, 114.500 183.640 C 139.469 183.515, 142.963 183.298, 146.779 181.630 C 153.416 178.729, 154.417 175.558, 150.953 168.403 L 148.906 164.174 141.075 167.032 C 119.929 174.749, 93 174.730, 93 166.997 C 93 162.380, 103.907 160.122, 118.333 161.752 C 126.074 162.626, 126.267 162.592, 134.725 158.845 C 144.456 154.534, 147.612 152.213, 145.975 150.574 C 145.286 149.884, 134.381 149.302, 115.481 148.946 C 99.299 148.642, 85.765 148.098, 85.406 147.739 C 84.183 146.516, 85.890 144.108, 89.199 142.391 C 91.893 140.992, 96.849 140.534, 116.172 139.898 C 146.790 138.890, 151.599 137.615, 147.629 131.556 C 146.228 129.418, 134.085 120, 132.729 120 C 132.445 120, 132.674 121.816, 133.237 124.036 C 133.801 126.256, 134.008 128.326, 133.697 128.636 C 132.446 129.887, 131.207 127.717, 129.076 120.538 L 126.838 113 122.949 113 C 119.077 113, 119.046 113.032, 115.513 120.678" stroke="none" fill="black" fill-rule="evenodd"/>
</svg>