<svg xmlns="http://www.w3.org/2000/svg" width="200" height="200" viewBox="0 0 200 200" version="1.1">
	<path d="M 140.615 15.729 C 130.454 19.150, 119.322 20.204, 87.750 20.734 C 70.287 21.027, 56 21.593, 56 21.991 C 56 25.288, 115.530 24.230, 132.823 20.627 L 139.146 19.309 131.451 27.050 C 124.109 34.435, 123.612 34.749, 120.634 33.895 C 115.912 32.541, 108.919 32.830, 93.529 35.016 C 67.707 38.683, 57.858 37.190, 50.156 28.440 C 46.543 24.335, 44 22.840, 44 24.820 C 44 27.015, 51.671 34.181, 56.603 36.594 C 64.433 40.425, 73.019 40.780, 92.130 38.061 C 107.137 35.927, 120.500 35.609, 120.500 37.388 C 120.500 37.876, 118.475 39.988, 116 42.081 C 109.792 47.330, 104.789 48.018, 67.750 48.709 C 50.660 49.028, 37 49.682, 37 50.181 C 37 52.363, 41.193 58.984, 44.150 61.473 C 48.045 64.750, 50.828 65.889, 57.719 67.025 C 62.409 67.798, 76.343 66.965, 83.824 65.464 C 86.253 64.977, 86.328 65.046, 84.631 66.214 C 78.334 70.549, 78.496 70.072, 81.384 75.770 C 82.823 78.610, 84 81.545, 84 82.292 C 84 84.373, 80.014 87.661, 74.488 90.139 C 67.149 93.430, 49.030 93.925, 36 91.192 C 30.775 90.096, 25.710 88.880, 24.745 88.490 C 23.380 87.939, 22.656 88.578, 21.495 91.359 C 17.983 99.763, 21.111 106.549, 29.579 108.900 C 34.435 110.248, 53.998 110.319, 68 109.038 C 73.775 108.510, 84.204 107.832, 91.176 107.532 L 103.851 106.987 110.676 110.743 L 117.500 114.500 117.217 125.186 L 116.934 135.872 111.717 136.951 C 104.740 138.393, 97.082 136.376, 86.613 130.338 C 67.930 119.561, 60.388 117.721, 52.143 121.927 C 46.469 124.822, 45.572 126.303, 48.106 128.596 C 52.837 132.877, 54.357 138.497, 56.556 159.828 C 58.335 177.082, 60.020 182.998, 64.147 186.470 C 69.406 190.895, 79.040 189.398, 90.171 182.426 L 94.842 179.500 107.671 180.188 C 121.853 180.948, 136.297 179.865, 142.858 177.550 C 151.931 174.349, 156 169.112, 156 160.636 C 156 156.332, 152.788 145.622, 150.877 143.550 C 150.394 143.027, 149.989 140.327, 149.976 137.550 C 149.942 130.672, 148.341 124.067, 145.887 120.686 C 143.900 117.948, 143.892 117.742, 145.573 113.066 L 147.302 108.260 155.901 107.742 C 166.284 107.116, 174.707 104.163, 180.158 99.238 C 183.839 95.913, 183.962 95.616, 182.391 93.880 C 179.323 90.489, 170.144 87.785, 161.204 87.637 C 153.340 87.507, 152.936 87.392, 153.430 85.425 C 154.822 79.874, 158.044 57.183, 158.955 46.500 C 160.408 29.478, 160.319 23, 158.634 23 C 157.609 23, 157.131 25.439, 156.723 32.750 C 155.943 46.747, 151.772 60.692, 145.683 69.666 C 141.654 75.603, 137.905 78.422, 135.187 77.559 C 132.688 76.766, 129.477 70.381, 127.927 63.121 L 126.779 57.743 113.890 58.208 C 106.800 58.464, 101 58.561, 101 58.423 C 101 58.285, 103.813 55.953, 107.250 53.241 C 111.234 50.097, 115.266 47.874, 118.373 47.109 C 123.732 45.790, 133 41.411, 133 40.199 C 133 39.777, 131.600 38.604, 129.890 37.594 L 126.780 35.757 136.361 26.128 C 146.394 16.046, 147.467 13.422, 140.615 15.729 M 121.234 41.029 C 117.538 44.392, 118.182 44.711, 123.980 42.391 C 128.268 40.676, 128.970 39.586, 126.418 38.607 C 124.441 37.848, 125.037 37.570, 121.234 41.029 M 87 51.041 C 80.675 51.424, 67.737 51.796, 58.250 51.868 C 48.467 51.943, 41 52.400, 41 52.923 C 41 54.792, 46.371 60.151, 50.376 62.278 C 53.859 64.127, 56.054 64.458, 64.500 64.403 C 70 64.367, 78.655 63.541, 83.734 62.568 C 91.983 60.987, 93.664 60.272, 99.484 55.865 C 103.068 53.153, 106 50.723, 106 50.466 C 106 49.954, 103.967 50.015, 87 51.041 M 151.519 64.716 C 149.929 68.366, 146.764 73.299, 144.485 75.677 C 139.152 81.243, 134.578 81.664, 130.614 76.953 C 128.316 74.222, 125 65.624, 125 62.398 C 125 60.623, 119.768 59.721, 113.710 60.452 C 98.368 62.304, 94.480 63.297, 89.532 66.629 L 84.527 70 89.431 70 C 92.129 70, 97.143 70.489, 100.573 71.086 C 106.675 72.149, 106.824 72.250, 107.488 75.790 C 109.497 86.498, 114.820 90.991, 125.500 90.995 C 131.908 90.997, 148.687 88.647, 149.733 87.600 C 150.817 86.517, 155.509 59.176, 154.743 58.410 C 154.560 58.227, 153.110 61.065, 151.519 64.716 M 85.508 74.750 C 85.905 75.713, 86.566 77.895, 86.976 79.600 C 87.906 83.467, 94.801 93.714, 100.416 99.573 C 104.643 103.985, 104.681 104, 111.670 104 C 115.528 104, 124.759 104.291, 132.183 104.647 L 145.683 105.295 147.384 98.523 C 148.319 94.799, 148.922 91.589, 148.724 91.391 C 148.525 91.192, 144.569 91.697, 139.931 92.513 C 128.449 94.534, 120.450 94.387, 115.328 92.062 C 110.588 89.910, 108.363 86.982, 105.876 79.628 C 104.279 74.905, 103.841 74.445, 100.321 73.808 C 98.220 73.427, 93.864 73.089, 90.643 73.058 C 85.445 73.006, 84.867 73.197, 85.508 74.750 M 82.173 88.928 C 76.313 93.941, 69.331 95.515, 53.500 95.389 C 43.037 95.305, 37.542 94.772, 31.751 93.276 L 24.003 91.276 22.941 95.221 C 19.979 106.218, 31.754 109.478, 63.954 106.574 C 73.554 105.708, 84.804 104.968, 88.954 104.930 C 100.377 104.823, 100.709 104.485, 95.524 98.246 C 93.123 95.356, 90.186 91.419, 88.998 89.496 C 87.809 87.573, 86.536 86.018, 86.168 86.041 C 85.801 86.063, 84.003 87.362, 82.173 88.928 M 152.489 91.250 C 152.242 91.938, 151.160 95.373, 150.083 98.885 L 148.126 105.270 156.813 104.773 C 166.338 104.228, 174.221 101.523, 177.996 97.505 C 180.175 95.185, 180.176 95.165, 178.176 94.094 C 171.599 90.574, 153.452 88.565, 152.489 91.250 M 109 106.467 C 109 107.908, 120.554 112.260, 127.777 113.540 C 132.025 114.293, 136.859 115.190, 138.521 115.534 C 141.266 116.101, 141.653 115.849, 142.771 112.758 C 143.447 110.888, 144 109.099, 144 108.781 C 144 108.464, 137.813 107.913, 130.250 107.557 C 122.688 107.201, 114.813 106.665, 112.750 106.367 C 110.688 106.068, 109 106.114, 109 106.467 M 121 115.814 C 121 116.335, 122.125 119.751, 123.500 123.404 C 124.875 127.057, 126 130.706, 126 131.514 C 126 132.321, 124.431 133.998, 122.512 135.241 C 120.485 136.554, 119.010 138.337, 118.990 139.500 C 118.932 142.900, 115.395 149.544, 112.376 151.925 C 108.375 155.081, 99.642 154.527, 91.637 150.611 C 86.082 147.893, 85.822 147.858, 84.444 149.645 C 78.693 157.106, 83.342 163.575, 94.330 163.404 C 108.990 163.175, 125.534 148.947, 136.417 127.209 C 138.424 123.198, 139.825 119.526, 139.530 119.048 C 139.235 118.570, 135.732 117.656, 131.746 117.015 C 127.761 116.375, 123.713 115.630, 122.750 115.358 C 121.787 115.087, 121 115.292, 121 115.814 M 138.190 129.470 C 130.842 143.820, 120.680 155.575, 110.413 161.600 C 103.840 165.458, 94.302 167.428, 89.046 166.012 C 83.710 164.575, 79 160.129, 79 156.527 C 79 153.343, 81.058 149.162, 83.885 146.604 C 85.944 144.741, 86.066 144.758, 92.263 147.809 C 99.824 151.531, 105.577 152.559, 108.904 150.783 C 111.816 149.228, 114.700 145.390, 115.501 142 L 116.091 139.500 107.140 139.500 C 98.461 139.500, 97.935 139.365, 89.844 135.047 C 69.079 123.966, 66.325 122.773, 61.358 122.713 C 58.571 122.679, 55.076 123.398, 53.160 124.399 C 50.150 125.972, 49.966 126.310, 51.290 127.822 C 55.572 132.713, 57.228 139.327, 59.470 160.500 C 61.243 177.242, 62.185 180.886, 65.559 184.056 C 69.997 188.225, 77.392 186.859, 89.291 179.671 L 94.083 176.778 108.791 177.480 C 132.269 178.602, 146.187 175.759, 151.118 168.834 C 154.284 164.388, 153.866 156.448, 150.036 148.264 C 147.939 143.781, 147 140.247, 147 136.831 C 147 131.020, 145.266 123.465, 143.618 122.098 C 142.790 121.410, 141.237 123.519, 138.190 129.470 M 120.070 127.750 C 120.030 130.735, 120.445 133, 121.031 133 C 122.867 133, 123.080 130.528, 121.594 126.468 L 120.141 122.500 120.070 127.750" stroke="none" fill="black" fill-rule="evenodd"/>
</svg>