<svg xmlns="http://www.w3.org/2000/svg" width="200" height="200" viewBox="0 0 200 200" version="1.1">
	<path d="M 165.836 15.750 C 160.761 21.181, 147.538 38.776, 137.376 53.618 L 130.449 63.736 125.474 60.876 C 119.302 57.328, 111.608 57.017, 103.761 59.999 C 100.867 61.099, 98.116 61.999, 97.647 61.999 C 96.669 62, 109.760 51.734, 112.835 50.088 C 113.954 49.490, 115.911 48.990, 117.184 48.978 C 120.691 48.945, 127.695 45.438, 128.955 43.085 C 129.761 41.578, 129.770 40.438, 128.985 38.972 C 128.035 37.196, 128.620 36.298, 133.700 31.737 C 145.928 20.758, 152.279 14.261, 151.699 13.322 C 151.336 12.734, 147.800 13.448, 142.798 15.118 C 129.106 19.691, 122.762 20.348, 91.500 20.427 C 72.882 20.474, 62.500 20.858, 62.500 21.500 C 62.500 22.148, 74.114 22.472, 95.500 22.420 C 125.625 22.348, 129.153 22.161, 136 20.273 C 140.125 19.137, 143.623 18.320, 143.773 18.459 C 143.923 18.599, 140.257 22.152, 135.626 26.356 L 127.207 34 119.654 34 C 115.499 34, 104.090 34.717, 94.300 35.592 C 75.454 37.279, 64.230 36.959, 58.520 34.573 C 54.226 32.778, 51.009 27.718, 51.004 22.750 C 51.001 19.943, 50.588 19, 49.361 19 C 47.980 19, 47.815 19.793, 48.318 24.035 C 49.941 37.739, 59.744 41.014, 91.500 38.460 C 101.400 37.664, 112.638 37.010, 116.473 37.006 L 123.445 37 118.473 41.471 C 115.738 43.930, 111.925 46.375, 110 46.903 C 108.075 47.432, 94.575 48.173, 80 48.550 C 54.595 49.208, 53.280 49.339, 48.180 51.724 C 41.747 54.732, 39.764 57.976, 42.505 61.006 C 45.605 64.430, 53.493 66.141, 68.914 66.733 C 81.377 67.212, 83.077 67.471, 81.473 68.643 C 80.453 69.390, 78.627 70, 77.416 70 C 73.057 70, 73.618 76.401, 78.622 83.776 C 79.930 85.703, 81 88.325, 81 89.604 C 81 93.890, 77.968 94.544, 60.500 94.025 C 30.993 93.149, 22.827 93.405, 19.250 95.315 C 17.462 96.270, 16 97.784, 16 98.681 C 16 101.217, 23.798 108.017, 29.943 110.840 C 37.824 114.461, 48.690 114.822, 65.500 112.020 C 80.428 109.533, 96.534 108.414, 99.603 109.652 C 101.671 110.486, 101.648 110.606, 98.251 116.773 L 94.796 123.045 75.974 122.370 C 61.602 121.854, 56.417 121.999, 54.038 122.984 C 47.801 125.568, 47.481 130.108, 52.905 139.100 C 56.529 145.109, 56.747 145.895, 55.948 150.037 C 54.718 156.411, 54.809 166.131, 56.136 170.101 C 56.761 171.970, 58.410 174.727, 59.801 176.227 C 64.003 180.758, 67.685 181.390, 84.460 180.459 C 99.860 179.604, 109.603 179.531, 125.578 180.149 C 134.220 180.483, 134.890 180.355, 139.523 177.491 C 149.264 171.470, 152.377 159.311, 149.941 136.808 L 148.500 123.500 145.205 123.335 C 143.392 123.245, 140.692 122.390, 139.205 121.437 C 134.981 118.730, 123.966 109.700, 124.381 109.285 C 124.586 109.080, 132.943 109.650, 142.951 110.550 C 165.121 112.545, 171.892 111.825, 176.250 107.008 C 179.175 103.775, 179.825 99.300, 178.048 94.625 C 176.112 89.534, 162.847 88.625, 140.599 92.057 C 125.279 94.420, 116.440 94.376, 116.608 91.937 C 116.731 90.152, 130.030 69, 131.030 69 C 131.391 69, 133.535 71.192, 135.794 73.870 C 138.052 76.549, 140.817 78.981, 141.938 79.274 C 146.234 80.397, 150.391 74.645, 154.815 61.455 C 155.913 58.180, 159.943 48.975, 163.771 41 C 171.885 24.092, 175.479 14.691, 174.652 12.536 C 173.583 9.749, 170.338 10.931, 165.836 15.750 M 166.468 19.211 C 158.442 28.078, 133 63.422, 133 65.706 C 133 66.208, 135.188 69.062, 137.862 72.047 C 142.226 76.920, 142.898 77.330, 144.435 76.054 C 146.672 74.197, 149.136 69.243, 152.417 60 C 153.882 55.875, 157.796 46.952, 161.115 40.171 C 167.315 27.502, 172.396 15.063, 171.667 14.334 C 171.441 14.107, 169.101 16.302, 166.468 19.211 M 121.462 42.621 C 118.034 45.630, 117.837 46.011, 120 45.445 C 123.209 44.606, 127 42.219, 127 41.036 C 127 38.851, 125.157 39.378, 121.462 42.621 M 80 50.959 C 55.087 51.488, 54.385 51.559, 49.500 54.072 C 46.750 55.486, 44.500 57.280, 44.500 58.058 C 44.500 61.804, 55.827 64.051, 74.743 64.058 L 88.985 64.063 97.993 57.451 C 106.279 51.369, 108.233 49.656, 106.250 50.209 C 105.838 50.325, 94.025 50.662, 80 50.959 M 111 60.705 C 109.625 60.940, 105.274 62.227, 101.332 63.566 C 97.390 64.905, 93.393 66, 92.450 66 C 91.507 66, 89.108 67.013, 87.118 68.250 L 83.500 70.500 91.168 71.123 C 95.385 71.466, 100.405 72.041, 102.323 72.401 C 105.739 73.042, 105.824 73.177, 106.503 79.025 C 107.202 85.046, 110.590 91.785, 112.494 90.941 C 114.016 90.266, 128.886 66.625, 128.342 65.745 C 126.600 62.926, 116.014 59.850, 111 60.705 M 77.520 75.092 C 77.897 76.810, 79.265 79.776, 80.560 81.683 C 87.116 91.345, 83.813 96.620, 70.922 97.074 C 67.940 97.179, 56.680 96.923, 45.900 96.505 C 31.502 95.947, 25.331 96.066, 22.650 96.950 C 20.643 97.613, 19 98.524, 19 98.974 C 19 100.315, 25.742 105.824, 30.278 108.190 C 36.676 111.527, 50.910 111.814, 67 108.931 C 75.087 107.482, 83.843 106.658, 91.803 106.596 L 104.107 106.500 106.234 102.778 C 108.338 99.096, 108.340 99.033, 106.430 96.883 C 102.359 92.301, 84.028 76.214, 80.517 74.143 L 76.834 71.970 77.520 75.092 M 86.550 74.842 C 87.073 75.306, 92.585 80.308, 98.799 85.960 C 105.014 91.611, 110.378 95.955, 110.720 95.613 C 111.062 95.272, 110.421 93.981, 109.296 92.746 C 106.150 89.292, 104.795 86.107, 104.119 80.580 C 103.554 75.959, 103.239 75.463, 100.500 74.878 C 95.961 73.908, 85.466 73.881, 86.550 74.842 M 156.500 92.671 C 154.850 92.876, 146.975 93.961, 139 95.083 C 129.672 96.395, 122.498 96.893, 118.888 96.479 C 111.431 95.624, 110.631 97.432, 116.352 102.214 L 120.533 105.709 138.516 107.364 C 163.951 109.704, 170.513 109.344, 174.466 105.391 C 176.088 103.769, 176.525 97.375, 175.161 95.226 C 174.402 94.031, 164.295 91.839, 161 92.156 C 160.175 92.235, 158.150 92.467, 156.500 92.671 M 108.659 104 C 106.693 107.329, 107.067 107.537, 112.923 106.365 L 116.096 105.731 113.874 103.365 C 111.046 100.355, 110.794 100.386, 108.659 104 M 107.500 110.074 C 105.234 110.748, 103.674 112.477, 101.126 117.137 L 97.752 123.306 110.252 122.612 L 122.752 121.917 125.336 124.988 C 133.850 135.106, 125.737 157.616, 111.422 163.597 C 107.593 165.197, 99.988 165.430, 95.320 164.092 C 93.129 163.464, 90.972 163.596, 88.326 164.520 C 85.191 165.615, 84.139 165.624, 82.500 164.565 C 78.296 161.849, 79.993 153.542, 88.450 135.445 L 92.784 126.170 83.142 125.385 C 68.654 124.205, 56.816 124.381, 54.250 125.814 C 50.429 127.948, 51.686 133.750, 57.679 141.635 C 59.816 144.446, 59.958 145.220, 59.055 149.135 C 57.294 156.773, 57.745 168.070, 59.956 171.696 C 64.261 178.756, 69.148 179.609, 92.851 177.442 C 107.459 176.106, 111.748 176.039, 117.743 177.054 C 140.891 180.973, 149.177 171.666, 147.611 143.500 C 146.738 127.786, 146.327 126, 143.579 126 C 140.808 126, 134.324 121.806, 126 114.631 C 120.119 109.561, 119.072 109.035, 115 109.104 C 112.525 109.146, 109.150 109.582, 107.500 110.074 M 114.500 125 C 112.850 125.420, 108.086 125.817, 103.913 125.882 L 96.327 126 92.037 134.750 C 86.149 146.757, 83 155.390, 83 159.523 C 83 163.415, 83.755 163.695, 88.133 161.431 C 90.520 160.197, 91.820 160.090, 94.233 160.931 C 98.011 162.248, 107.016 162.324, 110.324 161.067 C 111.674 160.554, 114.432 158.682, 116.453 156.907 C 126.352 148.215, 129.401 128.004, 121.279 124.916 C 118.637 123.911, 118.785 123.910, 114.500 125" stroke="none" fill="black" fill-rule="evenodd"/>
</svg>