<svg xmlns="http://www.w3.org/2000/svg" width="200" height="200" viewBox="0 0 200 200" version="1.1">
	<path d="M 154.500 15.733 C 151.029 16.602, 146.859 20.152, 143.984 24.687 L 141.205 29.068 139.006 25.510 C 134.918 18.896, 126.962 16.947, 122.455 21.455 C 118.593 25.316, 119.006 32.525, 123.563 40.816 C 126.618 46.373, 127.029 47.871, 126.445 51.325 C 125.765 55.351, 125.763 55.349, 120.489 42.157 C 117.588 34.900, 114.661 28.296, 113.984 27.481 C 112.011 25.103, 109.017 25.752, 104.931 29.443 C 99.209 34.613, 95.963 34.885, 74 32.034 C 59.021 30.089, 48.072 32.048, 46.515 36.951 C 45.061 41.534, 51.250 47.084, 61.317 50.223 C 69.915 52.904, 83.676 53.094, 91.453 50.638 C 97.118 48.849, 98.225 49.224, 95.444 51.990 C 92.448 54.970, 83.248 56.793, 62.561 58.505 C 52.144 59.367, 42.469 60.623, 41.061 61.296 C 36.967 63.251, 37.222 66.487, 41.687 69.280 C 48.163 73.329, 56.910 76.955, 57.581 75.869 C 58.377 74.581, 58.849 74.908, 49.182 70.071 C 44.463 67.710, 41.035 65.394, 41.260 64.719 C 41.781 63.156, 46.304 62.460, 65 61.062 C 80.098 59.933, 91.154 58.059, 95.069 55.963 C 98.148 54.315, 100.166 50.511, 99.458 47.690 L 98.825 45.168 93.163 47.230 C 84.843 50.261, 68.732 50.247, 60.511 47.202 C 53.861 44.739, 48.379 40.061, 49.307 37.642 C 50.344 34.939, 57.716 33.710, 69 34.357 C 74.775 34.688, 81.072 35.418, 82.993 35.980 C 87.926 37.420, 96.476 37.246, 100.355 35.625 C 102.165 34.869, 105.274 32.820, 107.265 31.072 L 110.885 27.894 112.347 30.197 C 114.709 33.918, 123.200 56.188, 123.710 60 C 124.658 67.081, 117.363 81, 112.704 81 C 111.540 81, 105.842 78.638, 100.043 75.750 C 89.622 70.561, 89.393 70.500, 80.299 70.500 C 74.338 70.500, 70.664 70.934, 69.866 71.733 C 67.826 73.775, 69.577 74.256, 74.893 73.116 C 82.051 71.581, 88.787 73.092, 99.717 78.684 C 115.263 86.637, 118.461 85.324, 125.645 68.039 C 126.635 65.657, 126.718 65.724, 128.205 70.089 C 129.480 73.830, 129.572 76.325, 128.744 84.688 L 127.746 94.775 122.206 95.887 C 109.065 98.527, 100.111 96.363, 93.953 89.059 C 89.800 84.134, 82.466 80, 77.880 80 C 73.284 80, 67.330 84.130, 59.187 92.967 C 54.616 97.929, 48.766 103.229, 46.187 104.745 C 41.975 107.221, 40.554 107.500, 32.152 107.500 L 22.805 107.500 27.432 111.689 C 34.822 118.380, 41.299 120.426, 55 120.400 C 64.697 120.381, 70.027 119.654, 89 115.763 C 101.375 113.225, 115.008 110.850, 119.296 110.485 L 127.091 109.821 126.796 117.160 L 126.500 124.500 117 125.215 C 111.775 125.608, 100.975 125.495, 93 124.964 C 77.186 123.912, 68.006 124.780, 64.862 127.625 C 62.227 130.010, 62.523 131.374, 66.418 134.794 C 76.094 143.289, 102.295 146.724, 116.500 141.359 C 125.558 137.938, 125.596 137.987, 126.370 154.195 C 126.740 161.948, 126.808 168.526, 126.520 168.813 C 125.438 169.895, 118.532 166.943, 106.221 160.136 C 91.675 152.094, 85.489 150, 81.563 151.790 C 78.135 153.351, 75.291 158.246, 74.510 163.931 C 73.892 168.423, 73.708 168.634, 68.949 170.325 C 66.242 171.286, 62.784 173.154, 61.264 174.476 C 58.999 176.445, 58.699 177.203, 59.599 178.674 C 61.963 182.535, 68.106 183.333, 95.500 183.341 C 109.800 183.345, 125.325 183.362, 130 183.378 C 134.675 183.394, 144.371 183.428, 151.547 183.454 C 166.457 183.507, 170 182.300, 170 177.171 C 170 173.264, 166.688 169.139, 153.282 156.348 C 143.079 146.613, 141.762 144.992, 142.919 143.598 C 143.648 142.719, 145.510 142, 147.057 142 C 150.807 142, 154.997 140.338, 157.750 137.759 C 162.019 133.760, 159.914 124.743, 153.850 121.055 C 151.036 119.344, 150.956 119.149, 152.821 118.557 C 155.798 117.612, 161.925 110.424, 164.268 105.128 C 168.536 95.479, 169.277 90.958, 169.614 72.500 C 169.893 57.214, 170.265 53.595, 172.077 48.500 C 176.422 36.285, 171.143 20.573, 161.282 16.371 C 157.920 14.939, 157.740 14.922, 154.500 15.733 M 152.229 19.959 C 150.430 21.079, 147.589 24.134, 145.914 26.748 C 143.318 30.799, 142.970 32.090, 143.550 35.500 C 143.925 37.700, 144.371 42.875, 144.542 47 C 144.753 52.090, 145.576 56.106, 147.105 59.500 C 151.678 69.649, 149.722 81.130, 142.157 88.553 L 139.153 91.500 143.982 103.968 C 146.638 110.826, 149.272 116.591, 149.836 116.779 C 151.710 117.403, 158.905 109.895, 161.447 104.661 C 165.695 95.914, 167.175 86.294, 166.857 69.500 C 166.611 56.485, 166.818 54.043, 168.418 51.045 C 171.313 45.624, 171.604 36.573, 169.096 29.934 C 165.327 19.953, 158.614 15.983, 152.229 19.959 M 124.245 23.250 C 121.063 27.227, 122.030 33.502, 127.041 41.404 C 130.131 46.276, 130.132 46.280, 128.907 53.135 C 127.918 58.668, 127.933 60.814, 128.988 64.246 L 130.294 68.500 132.671 57.276 C 133.978 51.103, 136.094 42.959, 137.373 39.178 C 139.666 32.400, 139.673 32.252, 137.858 28.714 C 136.845 26.740, 135.012 24.422, 133.786 23.562 C 131.110 21.688, 125.638 21.509, 124.245 23.250 M 138.186 45.545 C 137.007 49.920, 135.269 58.040, 134.324 63.588 L 132.605 73.676 135.137 80.588 C 136.589 84.552, 138.254 87.500, 139.042 87.500 C 139.797 87.500, 141.784 85.283, 143.457 82.574 C 146.059 78.361, 146.494 76.696, 146.457 71.074 C 146.427 66.508, 145.740 63.010, 144.207 59.623 C 142.684 56.258, 141.978 52.692, 141.930 48.123 C 141.814 37.199, 140.651 36.398, 138.186 45.545 M 131.688 84.030 C 131.325 85.389, 131.021 87.953, 131.014 89.729 C 131.001 92.811, 131.113 92.905, 133.500 91.818 C 136.398 90.498, 136.379 90.696, 134.100 85.530 C 132.422 81.728, 132.320 81.664, 131.688 84.030 M 71.773 84.811 C 70.273 85.800, 64.648 91.143, 59.273 96.684 C 51.054 105.157, 48.580 107.096, 43.712 108.879 C 40.529 110.046, 36.254 111.003, 34.212 111.007 L 30.500 111.013 33.429 112.944 C 35.040 114.006, 39.198 115.644, 42.670 116.583 C 51.820 119.060, 64.154 118.023, 90.498 112.561 C 104.672 109.622, 115.039 108, 119.647 108 L 126.799 108 127.223 103.250 C 127.457 100.638, 127.549 98.359, 127.428 98.187 C 127.307 98.015, 124.356 98.391, 120.871 99.023 C 108.606 101.247, 97.688 98.230, 91.893 91.014 C 85.929 83.587, 77.548 81.003, 71.773 84.811 M 133.204 95.022 C 130.134 96.889, 130 97.239, 130 103.391 L 130 109.812 134.730 112.944 C 139.498 116.103, 143.100 117.488, 144.881 116.848 C 145.649 116.571, 138.076 94.743, 136.753 93.420 C 136.563 93.230, 134.966 93.951, 133.204 95.022 M 129.641 115.210 C 129.303 116.470, 129.021 119.003, 129.014 120.840 L 129 124.180 137.496 123.472 C 144.522 122.887, 146.424 123.048, 148.496 124.405 C 151.638 126.464, 151.645 128.490, 148.528 134.351 L 146.056 139 148.893 139 C 153.207 139, 157 135.520, 157 131.562 C 157 127.363, 153.505 122.705, 150.960 123.513 C 149.733 123.902, 148.757 123.415, 148.026 122.048 C 147.423 120.922, 145.933 119.990, 144.715 119.978 C 142.111 119.952, 134.248 116.534, 131.895 114.405 C 130.424 113.074, 130.191 113.157, 129.641 115.210 M 131.750 126.716 C 129.140 127.112, 129 127.408, 129 132.547 C 129 138.760, 129.913 139.369, 138.389 138.812 C 142.882 138.517, 143.290 138.246, 145.742 133.913 C 149.462 127.341, 148.582 125.964, 140.781 126.150 C 137.327 126.232, 133.262 126.487, 131.750 126.716 M 70.739 128.013 C 68.670 128.385, 66.702 128.964, 66.365 129.301 C 64.096 131.571, 72.752 136.720, 83.460 139.470 C 92.221 141.719, 107.128 141.442, 114 138.901 C 117.025 137.783, 120.963 136.912, 122.750 136.965 C 125.978 137.062, 126 137.030, 125.995 132.281 L 125.990 127.500 100.245 127.418 C 86.085 127.374, 72.808 127.641, 70.739 128.013 M 129.155 155.901 C 129.488 170.546, 129.426 171.108, 127.440 171.605 C 124.290 172.395, 118.401 169.978, 103.901 161.945 C 93.171 156.001, 89.803 154.594, 86.204 154.552 C 80.499 154.485, 78.131 157.330, 77.315 165.234 C 76.798 170.246, 76.454 170.920, 74.118 171.506 C 69.952 172.550, 62 176.172, 62 177.025 C 62 180.397, 90.479 182.742, 111.100 181.069 C 128.255 179.677, 124.799 179.731, 145 180.547 C 163.797 181.308, 167 180.696, 167 176.347 C 167 174.194, 164.131 170.819, 152.899 159.762 C 142.140 149.168, 138.919 145.419, 139.306 143.939 C 139.698 142.439, 139.297 142, 137.531 142 C 136.277 142, 133.801 141.710, 132.030 141.356 L 128.811 140.712 129.155 155.901" stroke="none" fill="black" fill-rule="evenodd"/>
</svg>