<svg xmlns="http://www.w3.org/2000/svg" width="200" height="200" viewBox="0 0 200 200" version="1.1">
	<path d="M 139.367 16.921 C 134.218 19.259, 105.274 21.225, 75.192 21.281 L 54.883 21.318 51.942 24.887 C 48.524 29.034, 48.209 32.209, 50.945 34.945 C 55.578 39.578, 73.138 41.921, 89.418 40.077 C 101.998 38.652, 104 38.131, 104 36.283 C 104 35.206, 103.334 34.950, 101.637 35.376 C 82.206 40.253, 52 37.656, 52 31.109 C 52 30.097, 52.933 28.084, 54.073 26.635 L 56.145 24 74.323 24.015 C 104.050 24.039, 134.789 22.069, 139.210 19.857 C 143.274 17.823, 148.117 17.457, 150.945 18.971 C 154.184 20.704, 156.210 27.751, 156.129 37 C 156.053 45.643, 153.104 59.898, 150.740 63.052 C 150.058 63.962, 148.037 66.640, 146.250 69.003 C 140.767 76.252, 142.133 81.145, 150.274 83.416 C 153.148 84.219, 160.204 85.361, 165.953 85.955 C 176.165 87.011, 181 88.728, 181 91.301 C 181 92.834, 178.264 97.050, 176.167 98.747 C 174.982 99.706, 169.289 99.844, 151.536 99.344 C 125.160 98.601, 120.354 99.253, 114.420 104.383 C 111.146 107.213, 110.644 108.257, 110.253 113.050 C 109.859 117.878, 110.093 118.766, 112.307 120.834 C 115.972 124.255, 121.117 125.102, 134 124.404 C 148.082 123.640, 153.304 124.754, 155.493 128.987 C 157.528 132.921, 157.414 134.587, 154.473 143.897 C 152.241 150.962, 152.079 152.428, 153.088 156.436 C 155.956 167.826, 149.572 179.400, 140.420 179.400 C 131.762 179.400, 129.101 168.538, 133.724 152.065 L 135.250 146.629 130.763 142.391 C 125.660 137.569, 120.257 135.646, 111.867 135.666 C 98.106 135.698, 91.840 146.301, 96.621 161.465 C 98.178 166.405, 98.160 166.767, 96.155 170.695 C 95.008 172.944, 92.508 176.440, 90.598 178.464 C 86.515 182.794, 82.776 182.980, 79.876 179 C 75.002 172.310, 73.470 153.094, 76.925 141.992 L 78.851 135.806 76.675 136.439 C 71.992 137.801, 60.339 138.188, 56.381 137.113 C 44.259 133.819, 43.597 124.238, 55.359 122.329 C 57.373 122.002, 62.162 122.511, 66.343 123.496 C 73.356 125.147, 74.036 125.149, 78.909 123.530 C 90.615 119.642, 93.381 113.050, 85.968 106.705 C 78.001 99.885, 62.656 97.927, 53.500 102.562 C 50.049 104.309, 48.555 104.477, 42.623 103.784 C 30.722 102.395, 22.824 97.279, 24.488 92.038 C 26.214 86.601, 39.271 85.046, 50.739 88.911 C 56.173 90.742, 57.591 90.864, 61.739 89.857 C 64.403 89.210, 76.192 88.591, 88.512 88.453 C 101.752 88.304, 112.310 87.724, 115.006 86.998 C 121.442 85.265, 126.723 82.353, 128.587 79.508 C 130.004 77.344, 130.037 76.517, 128.851 72.771 C 127.743 69.269, 126.696 68.095, 123.038 66.250 C 116.899 63.154, 111.262 63.304, 87.694 67.189 L 67.888 70.454 59.430 68.268 C 54.779 67.066, 48.870 65.151, 46.299 64.014 C 42.169 62.187, 41.797 61.774, 43.108 60.464 C 46.064 57.508, 57.845 55.883, 79.500 55.443 C 102.519 54.977, 112.911 53.889, 122.423 50.951 C 135.727 46.842, 134.658 41.754, 119.505 37.074 C 114.091 35.402, 112.477 35.224, 111.844 36.228 C 111.266 37.144, 112.366 37.859, 115.771 38.782 C 118.372 39.488, 122.518 40.996, 124.984 42.133 L 129.469 44.202 127.218 46.024 C 122.271 50.030, 100.721 52.932, 76 52.921 C 47.482 52.909, 33.672 57.877, 42.633 64.926 C 45.528 67.203, 59.066 71.779, 65.448 72.638 C 67.898 72.967, 76.434 71.960, 87.040 70.091 C 114.425 65.265, 124.237 66.180, 126.375 73.759 C 127.577 78.018, 125.623 80.230, 118.114 83.114 C 113.122 85.030, 109.673 85.348, 87 85.977 C 72.975 86.366, 60.701 87.033, 59.724 87.459 C 58.646 87.930, 55.225 87.358, 51.017 86.006 C 42.069 83.128, 30.614 83.410, 26.301 86.614 C 21.720 90.017, 20.434 93.049, 22.103 96.520 C 24.824 102.178, 32.205 105.591, 44.040 106.663 C 49.501 107.157, 51.268 106.904, 54.750 105.127 C 64.358 100.226, 83.446 104.118, 86.899 111.682 C 88.289 114.728, 85.239 118.361, 79.430 120.580 C 75.123 122.225, 74.408 122.226, 65.990 120.607 C 58.867 119.236, 56.272 119.119, 52.935 120.017 C 44.809 122.206, 41.642 128.732, 46.011 134.287 C 49.194 138.333, 56.225 140.512, 65.821 140.425 C 73.784 140.353, 74.116 140.438, 73.543 142.425 C 73.213 143.566, 72.670 148.363, 72.335 153.084 C 71.327 167.289, 75.465 181.432, 81.424 184.147 C 86.579 186.496, 92.923 182.043, 98.715 172.012 L 101.729 166.792 99.758 161.646 C 96.003 151.838, 97.378 144.419, 103.721 140.264 C 109.897 136.219, 126.675 139.523, 130.633 145.563 C 131.959 147.586, 131.951 148.426, 130.563 153.101 C 128.495 160.062, 128.529 171.205, 130.630 175.633 C 132.794 180.193, 135.591 182.001, 140.473 181.996 C 151.008 181.986, 158.403 169.958, 155.969 156.791 C 155.124 152.220, 155.285 150.486, 157.023 145.448 C 159.371 138.637, 159.792 130.241, 157.934 127.266 C 154.909 122.422, 151.705 121.659, 134.053 121.577 C 122.571 121.524, 116.814 121.108, 115.262 120.221 C 109.589 116.980, 112.382 108.046, 120.296 104.122 C 125.705 101.440, 132.501 101.088, 161.260 102 L 177.019 102.500 179.460 99.500 C 187.936 89.081, 184.267 85.217, 163.500 82.690 C 156.900 81.887, 150.262 80.739, 148.750 80.140 C 144.633 78.508, 145.035 74.382, 149.847 68.891 C 155.524 62.413, 159 50.041, 159 36.317 C 159 26.546, 157.468 21.619, 153.293 17.952 C 149.315 14.460, 145.421 14.172, 139.367 16.921" stroke="none" fill="black" fill-rule="evenodd"/>
</svg>