<svg xmlns="http://www.w3.org/2000/svg" width="200" height="200" viewBox="0 0 200 200" version="1.1">
	<path d="M 124.032 10.601 C 116.057 12.744, 112.563 15.056, 112.169 18.450 C 111.890 20.854, 112.750 22.105, 117.639 26.402 C 120.829 29.206, 126.889 34.898, 131.106 39.052 C 137.405 45.257, 139.085 47.594, 140.522 52.154 C 142.721 59.129, 141.976 64.942, 137.886 72.717 C 136.244 75.839, 133.961 82.805, 132.813 88.196 C 130.841 97.456, 129 100.994, 129 95.523 C 129 90.698, 122.076 58.333, 118.580 46.816 C 113.096 28.750, 108.777 20, 105.345 20 C 104.605 20, 104 20.947, 104 22.105 C 104 24.190, 107.690 32.291, 110.405 36.168 C 111.645 37.938, 111.475 39.444, 108.990 48.707 C 107.436 54.497, 105.767 59.633, 105.280 60.120 C 104.767 60.633, 103.421 57.960, 102.074 53.752 C 98.992 44.124, 96.885 40.182, 92.644 36.109 C 87.917 31.569, 81.473 30.807, 74.399 33.953 C 70.193 35.823, 67.449 36.161, 55 36.336 C 39.208 36.559, 36 37.422, 36 41.449 C 36 43.215, 37.240 44.592, 40.809 46.787 C 45.096 49.425, 58.335 55.084, 66.500 57.767 L 69.500 58.753 67 59.293 C 65.625 59.589, 58.967 60.552, 52.205 61.433 C 38.052 63.276, 30.319 65.634, 28.260 68.735 C 26.951 70.706, 27.035 71.126, 29.161 73.252 C 30.450 74.541, 36.229 77.320, 42.003 79.426 C 58.153 85.319, 57.777 83.715, 45.680 95.108 C 34.005 106.104, 30.704 110.571, 31.182 114.729 C 31.485 117.367, 31.741 117.494, 36.537 117.378 C 46.852 117.129, 68.401 103.269, 76.877 91.432 C 80.784 85.976, 82.143 82.433, 80.048 83.167 C 79.525 83.350, 77.383 85.957, 75.289 88.959 C 70.018 96.518, 59.237 105.268, 48.684 110.551 C 40.477 114.659, 33 116.375, 33 114.150 C 33 111.553, 48.733 94.828, 57.458 88.149 C 59.778 86.373, 60.198 85.537, 59.402 84.275 C 58.843 83.390, 52.677 80.548, 45.698 77.959 C 31.731 72.779, 29.397 71.431, 31.015 69.482 C 33.008 67.080, 42.436 65.298, 73.750 61.406 C 76.088 61.115, 77.996 60.343, 77.992 59.689 C 77.988 59.035, 73.375 57.033, 67.741 55.239 C 56.527 51.669, 38.387 43.090, 38.691 41.500 C 39.025 39.753, 43.148 39.202, 56.641 39.100 C 67.451 39.018, 70.555 38.649, 74.141 37.022 C 79.469 34.604, 86.213 34.438, 89.576 36.642 C 92.995 38.882, 96.378 44.971, 99.448 54.410 C 102.310 63.207, 103.490 65.133, 105.536 64.348 C 107.166 63.722, 110.230 55.904, 112.041 47.750 C 112.744 44.587, 113.598 42, 113.939 42 C 115.543 42, 124.475 80.761, 126.590 96.901 C 127.497 103.825, 126.613 103.281, 119.688 92.657 C 113.554 83.246, 107.967 77.359, 103.282 75.368 C 97.077 72.730, 86 74.268, 86 77.768 C 86 78.751, 86.560 78.985, 87.750 78.499 C 99.608 73.651, 105.515 76.696, 117.009 93.582 C 121.007 99.455, 125.064 104.465, 126.025 104.717 C 127.162 105.014, 127.994 106.562, 128.408 109.147 C 128.964 112.630, 129.305 113.038, 131.158 112.450 C 132.992 111.868, 133.194 112.092, 132.681 114.139 C 132.356 115.438, 130.712 122.963, 129.028 130.863 C 123.860 155.109, 121.086 160.844, 112.517 164.992 C 106.168 168.065, 94.542 167.552, 87.933 163.906 C 78.644 158.783, 83.719 155.152, 100.303 155.056 L 110.105 155 113.148 148.497 C 121.202 131.286, 116.353 120.441, 98.666 116.112 C 89.962 113.982, 61.746 114.821, 47.667 117.630 C 44.126 118.337, 43.807 118.104, 62.500 128.460 C 78.990 137.596, 80.018 138.385, 77.314 139.832 C 75.334 140.892, 64.936 143.054, 52.250 145.044 L 45 146.181 45 152.912 C 45 161.433, 47.173 167.841, 51.611 172.411 C 58.768 179.780, 66.333 181.976, 87 182.681 C 100.673 183.148, 102.678 183.435, 104.012 185.116 C 105.473 186.956, 105.708 186.884, 110.851 183.020 C 125.048 172.352, 135.061 170.282, 154.596 173.976 C 165.391 176.017, 174.272 176.186, 177.152 174.406 C 177.573 174.146, 176.154 171.602, 173.998 168.753 C 171.842 165.905, 165.070 153.475, 158.950 141.132 C 149.398 121.871, 147.037 117.906, 142.283 113.153 L 136.745 107.614 140.504 90.557 C 142.572 81.176, 144.602 72.600, 145.017 71.500 C 145.431 70.400, 145.807 75.961, 145.853 83.858 C 145.931 97.193, 146.110 98.512, 148.373 102.358 C 151.227 107.209, 154.612 110.501, 157.712 111.440 C 165.793 113.889, 170.391 100.149, 173.085 65.500 C 174.725 44.397, 174.641 36.603, 172.680 27.990 C 167.857 6.805, 160.364 10.033, 151.533 37.099 L 148.401 46.697 147.221 38.032 C 145.208 23.251, 141.280 15.212, 134.100 11.176 C 131.970 9.979, 130.064 9.030, 129.864 9.066 C 129.664 9.102, 127.039 9.793, 124.032 10.601 M 122.374 14.054 C 119.005 15.123, 115.685 16.675, 114.997 17.503 C 113.624 19.158, 114.705 20.341, 130.745 34.738 C 138.859 42.022, 144 49.739, 144 54.637 C 144 55.872, 144.502 57.192, 145.117 57.572 C 145.927 58.073, 146.041 55.688, 145.533 48.881 C 144.097 29.622, 140.423 18.550, 134.043 14.250 C 130.081 11.580, 130.175 11.581, 122.374 14.054 M 162.771 18.750 C 159.369 22.620, 154.174 36.250, 149.431 53.748 C 147.155 62.144, 147.737 95.749, 150.241 100.500 C 152.503 104.793, 157.496 109.244, 159.597 108.839 C 164.768 107.843, 168.230 92.972, 170.532 61.865 C 172.019 41.774, 172.017 39.447, 170.506 31.381 C 168.894 22.777, 166.734 17, 165.129 17 C 164.679 17, 163.618 17.788, 162.771 18.750 M 139.235 76.290 C 138.037 78.606, 136.369 84.035, 135.528 88.355 C 134.688 92.675, 133.202 98.075, 132.226 100.355 C 130.306 104.836, 130.384 109, 132.387 109 C 133.189 109, 135.091 102.484, 137.713 90.750 C 139.957 80.713, 141.707 72.406, 141.603 72.290 C 141.499 72.175, 140.434 73.975, 139.235 76.290 M 135.610 113.750 C 135.322 114.713, 133.538 122.700, 131.647 131.500 C 129.756 140.300, 127.210 150.139, 125.989 153.365 C 121.603 164.960, 112.168 170.710, 99.069 169.773 C 87.639 168.955, 77.565 162.132, 80.592 157.259 C 82.654 153.939, 87.197 152.650, 97.979 152.327 L 108.458 152.013 110.878 147.257 C 112.445 144.176, 113.469 140.127, 113.782 135.766 L 114.267 129.031 110.339 125.103 C 104.832 119.597, 97.836 117.710, 82.500 117.592 C 68.696 117.486, 52.760 118.802, 53.493 119.988 C 53.767 120.432, 59.177 123.611, 65.515 127.051 C 77.624 133.624, 82.422 137.234, 81.746 139.263 C 80.834 141.998, 74.494 144.198, 61.483 146.293 L 47.806 148.495 48.195 155.498 C 48.675 164.143, 51.058 169.305, 56.333 173.126 C 62.758 177.780, 68.853 179.114, 87.246 179.888 C 97.280 180.310, 104.439 181.039, 105.107 181.707 C 105.925 182.525, 107.962 181.652, 112.789 178.415 C 126.399 169.287, 136.153 167.484, 153.217 170.941 C 159.112 172.135, 165.950 172.974, 168.413 172.806 L 172.891 172.500 169.399 167 C 167.479 163.975, 161.481 152.500, 156.072 141.500 C 149.769 128.683, 144.727 119.794, 142.033 116.750 C 137.457 111.579, 136.408 111.089, 135.610 113.750" stroke="none" fill="black" fill-rule="evenodd"/>
</svg>