<svg xmlns="http://www.w3.org/2000/svg" width="200" height="200" viewBox="0 0 200 200" version="1.1">
	<path d="M 159.185 19.442 C 157.522 21.336, 154.494 25.869, 152.454 29.516 L 148.745 36.147 147.027 32.324 C 146.082 30.221, 144.021 26.973, 142.445 25.107 C 135.243 16.574, 118 14.003, 118 21.463 C 118 24.458, 121.142 26.972, 129.358 30.552 L 135.734 33.329 136.367 40.816 C 137.435 53.453, 136.998 63.173, 135.176 67.262 L 133.500 71.023 128.068 58.762 C 120.740 42.221, 110.674 22.046, 108.272 19.083 C 105.763 15.991, 102.992 16.854, 103.021 20.719 C 103.033 22.248, 104.200 26.650, 105.614 30.500 C 110.687 44.306, 112.279 50.121, 111.264 51.136 C 110.620 51.780, 105.840 49.855, 97.390 45.547 C 90.301 41.932, 82.297 38.576, 79.605 38.089 C 72.418 36.790, 39.814 39.761, 34.451 42.204 C 33.103 42.818, 32 44.065, 32 44.975 C 32 47.076, 35.866 48.892, 48.998 52.960 C 59.789 56.303, 66.369 59.170, 67.518 61.030 C 68.446 62.531, 66.269 64.822, 61.698 67.154 C 58.977 68.542, 58.083 69.483, 58.800 70.200 C 59.518 70.918, 61.148 70.507, 64.079 68.869 C 69.226 65.993, 70.499 64.124, 69.640 60.702 C 68.831 57.477, 61.108 53.642, 46.250 49.085 C 40.612 47.356, 36 45.557, 36 45.087 C 36 43.850, 39.480 43.292, 58.668 41.455 C 79.170 39.491, 80.273 39.700, 98.357 48.969 C 108.270 54.049, 110.454 54.827, 112.193 53.897 C 114.002 52.928, 114.186 52.154, 113.674 47.646 C 113.353 44.816, 111.473 38.277, 109.498 33.115 C 107.522 27.953, 106.048 23.003, 106.223 22.115 C 106.624 20.077, 114.675 35.678, 124.504 57.543 L 132.085 74.405 127.120 87.452 C 124.389 94.629, 121.636 101.850, 121.003 103.500 C 120.013 106.078, 119.685 106.282, 118.675 104.949 C 117.994 104.051, 114.555 102.937, 110.500 102.302 C 94.867 99.855, 94.093 98.128, 104.338 88.557 C 110.643 82.668, 112 80.861, 112 78.355 C 112 76.680, 111.190 74.577, 110.200 73.681 C 107.953 71.647, 101.565 69.357, 95.674 68.474 L 91.182 67.800 89.096 72.516 C 82.421 87.606, 60.766 110.481, 46.389 117.631 C 37.143 122.228, 31.138 122.464, 26.892 118.396 C 25.301 116.873, 24 115.295, 24 114.890 C 24 114.486, 25.688 113.610, 27.750 112.944 C 35.557 110.421, 46.456 104.621, 50.648 100.757 C 58.999 93.060, 55.994 87.456, 39.204 79.415 C 28.220 74.154, 28.336 73.679, 40.896 72.442 C 46.160 71.923, 48 71.361, 48 70.273 C 48 69.065, 46.888 68.924, 41.750 69.481 C 33.429 70.383, 28.486 71.709, 27.066 73.421 C 25.441 75.378, 26.510 76.189, 39.500 82.855 C 51.369 88.946, 53.696 91.378, 51.747 95.656 C 49.918 99.670, 35.620 107.621, 21.715 112.356 C 20.077 112.914, 20.053 113.202, 21.429 115.863 C 29.100 130.697, 48.124 125.142, 71.090 101.360 C 79.647 92.500, 87.050 82.793, 90.624 75.750 C 91.949 73.137, 93.559 71, 94.201 71 C 97.294 71, 107.090 74.442, 108.532 76.035 C 110.750 78.486, 109.614 80.339, 101.554 87.415 C 94.278 93.803, 92.770 96.983, 95.557 100.064 C 97.457 102.162, 104.419 104.429, 112.168 105.470 C 118.984 106.387, 119.704 107.768, 117.057 114.847 L 114.870 120.695 100.436 121.351 C 78.731 122.337, 65.663 124.479, 62.587 127.555 C 58.712 131.431, 65.273 134.862, 83.382 138.429 C 102.780 142.250, 103 142.275, 103 140.662 C 103 138.833, 106.064 138.031, 113.113 138.014 L 118.726 138 120.389 146.371 C 121.303 150.975, 122.320 157.837, 122.649 161.621 L 123.248 168.500 113.125 157.840 C 99.842 143.851, 93.391 140.678, 86.002 144.499 C 82.734 146.189, 78 151.918, 78 154.183 C 78 155.005, 75.309 160.138, 72.020 165.589 C 62.138 181.965, 64.043 186.364, 80.937 186.175 C 85.647 186.122, 94.461 185.226, 100.525 184.183 C 109.505 182.639, 112.844 182.473, 118.521 183.289 C 126.889 184.492, 154.743 182.765, 165.153 180.397 C 181.018 176.789, 179.005 171.598, 159.978 167.054 C 150.684 164.834, 147.795 162.725, 143.703 155.177 C 140.822 149.862, 139.503 144.116, 140.371 140.658 C 140.932 138.425, 141.497 138.273, 151.363 137.714 C 162.881 137.062, 168.605 135.243, 169.867 131.832 C 171.147 128.369, 170.072 125.977, 164.918 120.823 C 160.868 116.773, 160.400 115.913, 161.671 114.858 C 164.651 112.385, 168.348 103.227, 171.636 90.174 C 175.429 75.113, 175.680 72.475, 173.398 71.599 C 171.993 71.060, 171.877 69.355, 172.454 57.742 C 173.245 41.838, 171.892 23.626, 169.589 19.173 C 167.277 14.701, 163.257 14.805, 159.185 19.442 M 160.806 21.914 C 158.921 24.116, 155.520 29.648, 153.248 34.209 C 149.448 41.836, 149.034 43.461, 148.088 54.500 C 146.480 73.249, 149.110 97.678, 153.903 108.513 C 154.932 110.839, 156.303 113.069, 156.950 113.469 C 158.724 114.566, 161.556 111.460, 164.034 105.698 C 167.284 98.145, 172.199 77.949, 171.113 76.612 C 170.617 76, 170.007 64.475, 169.757 51 C 169.307 26.636, 168.315 19.247, 165.366 18.282 C 164.742 18.078, 162.690 19.712, 160.806 21.914 M 121 21.515 C 121 23.296, 125.675 26.334, 132 28.663 C 138.040 30.887, 138.987 32.331, 139.074 39.441 C 139.115 42.774, 139.452 47.520, 139.824 49.989 L 140.500 54.477 143.253 47.989 C 146.476 40.392, 146.612 37.916, 144.104 32.500 C 140.626 24.989, 133.015 20, 125.032 20 C 122.097 20, 121 20.412, 121 21.515 M 142.631 56.066 C 140.288 61.467, 139.999 63.413, 139.991 73.816 L 139.982 85.500 144.630 96.277 C 147.187 102.205, 149.385 106.930, 149.516 106.777 C 149.647 106.625, 148.854 102.450, 147.753 97.500 C 146.169 90.375, 145.726 84.490, 145.626 69.251 C 145.557 58.664, 145.446 50.002, 145.381 50.001 C 145.315 50.001, 144.078 52.730, 142.631 56.066 M 135.771 72.766 C 135.517 73.737, 135.658 75.425, 136.085 76.516 C 136.675 78.027, 136.876 77.606, 136.930 74.750 C 137.005 70.732, 136.520 69.902, 135.771 72.766 M 128.111 92.750 C 125.283 100.313, 122.977 107.054, 122.985 107.731 C 122.993 108.408, 124.202 109.264, 125.671 109.632 C 127.802 110.167, 128.807 109.763, 130.637 107.635 C 134.797 102.799, 137.660 87.660, 135.437 82.250 C 134.703 80.463, 133.911 79, 133.677 79 C 133.443 79, 130.939 85.188, 128.111 92.750 M 138.528 93.569 C 135.234 109.650, 130.688 114.874, 122.865 111.566 C 121.583 111.024, 120.883 111.895, 119.618 115.607 C 118.731 118.210, 118.213 120.547, 118.467 120.800 C 118.721 121.054, 124.059 121.213, 130.329 121.153 C 140.401 121.058, 141.934 121.270, 143.476 122.974 C 145.107 124.776, 145.116 125.211, 143.611 129.629 C 142.725 132.229, 142 134.561, 142 134.812 C 142 135.878, 161.799 134.203, 164.450 132.913 C 168.282 131.047, 168.483 130.004, 165.773 126.037 C 162.897 121.828, 154.333 114.706, 155.319 117.343 C 157.270 122.559, 157.303 124.205, 155.449 123.848 C 154.172 123.602, 151.475 118.613, 146.380 107.068 C 140.029 92.678, 139.054 91.002, 138.528 93.569 M 89 124.668 C 78.839 125.677, 69.160 127.311, 66.500 128.467 L 63.500 129.770 67.500 131.526 C 69.700 132.491, 77.758 134.532, 85.407 136.061 C 98.202 138.618, 99.504 138.716, 101.689 137.284 C 102.995 136.429, 107.232 135.502, 111.105 135.225 C 118.008 134.731, 118.135 134.672, 117.525 132.244 C 117.183 130.881, 116.644 128.469, 116.327 126.883 L 115.750 124 104.125 124.160 C 97.731 124.248, 90.925 124.476, 89 124.668 M 119.006 125.750 C 119.009 126.713, 119.480 129.188, 120.053 131.250 L 121.094 135 129.938 135 L 138.783 135 140.391 130.980 C 143.220 123.911, 143.347 124, 130.500 124 C 120.212 124, 119.001 124.184, 119.006 125.750 M 121.990 138.750 C 121.984 139.162, 122.951 145.164, 124.139 152.087 C 127.832 173.610, 125.610 174.955, 111.218 159.909 C 97.414 145.479, 91.454 143.029, 84.661 148.993 C 82.787 150.638, 80.986 153.319, 80.660 154.950 C 80.334 156.581, 77.778 161.567, 74.981 166.030 C 66.690 179.259, 66.496 181.249, 73.320 183.086 C 78.038 184.357, 87.523 183.692, 102.482 181.041 C 109.160 179.858, 113.462 179.559, 115.476 180.136 C 124.406 182.698, 166.575 179.225, 171.655 175.510 C 173.132 174.430, 172.652 174.013, 167.878 172.227 C 164.870 171.102, 159.599 169.628, 156.164 168.953 C 150.632 167.864, 149.466 167.198, 145.949 163.112 C 140.094 156.312, 137.800 150.965, 137.734 143.967 L 137.677 138 129.839 138 C 125.527 138, 121.995 138.338, 121.990 138.750" stroke="none" fill="black" fill-rule="evenodd"/>
</svg>