<svg xmlns="http://www.w3.org/2000/svg" width="200" height="200" viewBox="0 0 200 200" version="1.1">
	<path d="M 162.635 15.700 C 162.323 18.340, 161.798 24.325, 161.468 29 C 159.832 52.190, 154.974 83.399, 150.994 96.284 C 149.853 99.978, 148.735 103, 148.509 103 C 148.283 103, 145.506 102.325, 142.339 101.500 C 133.598 99.223, 128.580 99.491, 103.136 103.589 C 99.168 104.228, 98.821 104.120, 99.308 102.396 C 99.602 101.353, 100.547 97.980, 101.406 94.900 L 102.969 89.300 108.729 91.245 C 117.493 94.203, 127.628 93.462, 136.022 89.247 C 146.510 83.981, 145.634 87.310, 144.902 55.500 C 144.180 24.137, 143.325 19.134, 137.907 14.575 C 132.992 10.439, 127.727 11.470, 118.787 18.319 C 116.195 20.305, 113.806 21.496, 113.478 20.965 C 112.261 18.996, 107.975 20.136, 97.379 25.248 C 87.230 30.143, 85.996 30.496, 79 30.498 C 72.621 30.500, 70.802 30.090, 66.834 27.757 C 64.267 26.248, 60.311 22.873, 58.041 20.257 L 53.915 15.500 50.413 19.500 C 41.342 29.860, 40.363 38.131, 47.766 41.853 C 53.361 44.665, 57.708 45.239, 78.419 45.898 C 91.397 46.311, 97.459 46.864, 97.722 47.659 C 97.933 48.296, 96.620 49.932, 94.803 51.294 L 91.500 53.770 82.500 51.902 C 72.253 49.775, 58.597 49.441, 52.807 51.176 C 48.479 52.473, 44 57.039, 44 60.154 C 44 63.046, 49.027 67.636, 53.579 68.900 C 61.637 71.137, 74.566 69.830, 83.886 65.835 C 90.491 63.003, 87.748 61.692, 80.500 64.216 C 73.278 66.732, 58.776 67.741, 53.739 66.079 C 45.651 63.410, 44.886 57.487, 52.241 54.488 C 57.695 52.264, 70.646 52.260, 81.301 54.478 C 85.592 55.371, 89.669 56.320, 90.362 56.586 C 92.520 57.414, 101 50.213, 101 47.552 C 101 43.936, 96.613 43.001, 79.601 42.992 C 56.854 42.981, 46.739 40.792, 45.435 35.598 C 44.790 33.025, 47.296 27.442, 51.270 22.601 L 53.649 19.702 58.378 24.431 C 69.889 35.941, 80.615 36.475, 101.007 26.550 C 109.750 22.294, 110.579 22.071, 111.741 23.660 C 113.258 25.735, 113.305 28.436, 111.975 37 C 110.824 44.413, 103.976 75.258, 103.323 75.971 C 102.474 76.898, 101.013 73.404, 99.886 67.750 C 99.172 64.169, 98.233 62, 97.395 62 C 96.433 62, 96.204 62.926, 96.591 65.250 C 97.703 71.930, 98.189 73.602, 100.207 77.670 C 101.344 79.964, 101.986 82.593, 101.633 83.513 C 101.064 84.997, 100.458 84.872, 96.246 82.400 C 86.126 76.459, 80.414 74.025, 76.566 74.013 C 73.158 74.002, 72.001 74.655, 67.908 78.902 C 65.135 81.778, 59.912 85.505, 55.267 87.922 C 45.574 92.965, 35.850 100.641, 34.580 104.254 C 33.381 107.662, 35.746 110.557, 40.900 111.989 C 45.747 113.335, 62.346 113.150, 73.992 111.620 C 84.293 110.266, 85.965 110.730, 85.200 114.734 C 84.610 117.822, 90.878 123.851, 98.358 127.390 C 104.604 130.344, 114.592 132.915, 120.500 133.088 L 124.500 133.205 121 134.115 C 118.813 134.684, 112.061 134.603, 103 133.900 C 89.629 132.861, 87.577 132.940, 76.649 134.913 C 65.267 136.968, 59 139.095, 59 140.903 C 59 143.008, 62.839 144.267, 77.646 147.021 C 96.796 150.583, 100.153 151.493, 103.170 153.940 L 105.500 155.830 103.225 158.256 C 100.692 160.958, 96.308 163.071, 81.270 168.841 C 64.755 175.177, 58.358 180.279, 60.367 185.513 C 61.775 189.182, 72.315 190.050, 84.500 187.501 C 93.603 185.596, 106.415 179.231, 112.923 173.379 L 118.089 168.735 120.294 170.754 C 127.561 177.408, 143.474 183.074, 155.500 183.288 C 164.761 183.453, 168.962 181.893, 170.420 177.746 C 171.617 174.344, 169.523 171.175, 162.589 165.898 C 157.598 162.099, 144.076 155.110, 137.750 153.060 C 135.688 152.392, 134 151.462, 134 150.994 C 134 150.527, 138.387 149.164, 143.750 147.967 C 149.113 146.769, 157.392 144.910, 162.149 143.835 C 178.756 140.082, 177.654 135.334, 159.056 130.515 C 155.637 129.628, 150.423 127.835, 147.470 126.529 L 142.102 124.155 146.152 116.328 C 148.380 112.022, 150.712 108.500, 151.334 108.500 C 151.956 108.500, 154.033 110.619, 155.949 113.208 C 158.312 116.401, 159.687 117.527, 160.219 116.708 C 161.794 114.285, 166.873 97.280, 168.495 89 C 172.064 70.773, 171.230 37.038, 166.715 17.082 C 165.127 10.059, 163.371 9.465, 162.635 15.700 M 127.202 16.049 C 125.939 16.556, 123.336 18.167, 121.418 19.630 L 117.931 22.290 121.999 24.111 C 131.828 28.512, 132.667 45.339, 123.968 63.568 C 120.197 71.468, 113.165 79.317, 108.008 81.380 C 102.142 83.727, 102.556 86.360, 109.134 88.545 C 119.188 91.884, 134.067 89.561, 140.425 83.660 L 142.752 81.500 142.014 54 C 141.530 35.938, 140.838 25.299, 140 23 C 137.400 15.875, 133.252 13.621, 127.202 16.049 M 114.807 36.250 C 113.905 42.438, 111.510 54.393, 109.484 62.817 C 107.458 71.241, 106.049 78.383, 106.353 78.687 C 107.696 80.029, 113.764 74.916, 117.569 69.237 C 125.651 57.173, 129.451 38.640, 125.434 30.872 C 124.216 28.517, 119.018 25, 116.756 25 C 116.586 25, 115.709 30.063, 114.807 36.250 M 164.750 26.577 C 164.338 26.993, 164 29.197, 164 31.474 C 164 43.881, 157.367 85.180, 153.227 98.548 L 151.384 104.500 155.225 108.122 C 158.670 111.370, 159.164 111.562, 160.006 109.988 C 161.834 106.574, 165.819 89.371, 167.041 79.621 C 168.891 64.860, 167.134 24.173, 164.750 26.577 M 71.925 78.282 C 71.059 78.952, 69.524 80.768, 68.516 82.318 C 67.462 83.936, 63.662 86.653, 59.591 88.699 C 46.985 95.036, 37 102.726, 37 106.098 C 37 108.824, 42.357 110, 54.771 110 C 67.937 110, 85.080 107.721, 91.816 105.075 C 96.348 103.295, 96.465 103.135, 98.194 96.381 C 99.162 92.596, 99.965 89.037, 99.977 88.472 C 99.990 87.906, 95.563 85.094, 90.139 82.222 C 80.063 76.886, 75.114 75.815, 71.925 78.282 M 109 105.518 C 85.740 109.595, 85.823 109.544, 101.186 110.338 C 122.534 111.440, 132.959 114.146, 134.495 118.984 C 134.847 120.094, 135.975 121.451, 137 122 C 138.517 122.812, 139.252 122.454, 140.937 120.088 C 143.716 116.186, 148.007 106.820, 147.438 105.899 C 146.594 104.533, 136.956 102.999, 129.701 103.076 C 125.740 103.118, 116.425 104.217, 109 105.518 M 88 114.911 C 88 117.249, 92.648 121.281, 99.126 124.564 C 111.995 131.085, 129.319 131.985, 131.923 126.269 C 132.557 124.879, 132.946 123.622, 132.787 123.475 C 132.629 123.329, 128.531 121.814, 123.680 120.108 C 110.736 115.557, 99.910 113, 93.583 113 C 88.753 113, 88 113.258, 88 114.911 M 123.424 116.994 C 127.782 118.639, 131.564 119.769, 131.829 119.505 C 132.594 118.740, 123.891 115.289, 119.500 114.616 C 116.531 114.161, 117.543 114.774, 123.424 116.994 M 135 126.059 C 135 126.641, 135.450 126.840, 136 126.500 C 136.550 126.160, 137 125.684, 137 125.441 C 137 125.198, 136.550 125, 136 125 C 135.450 125, 135 125.477, 135 126.059 M 137.478 129.025 C 136.470 130.138, 132.788 132.456, 129.295 134.175 L 122.945 137.301 104.223 136.617 C 87.455 136.004, 84.404 136.153, 75.009 138.041 C 64.789 140.095, 63.223 140.576, 64.083 141.398 C 64.312 141.617, 71.250 143.020, 79.500 144.517 C 96.889 147.670, 104.420 150.186, 106.647 153.584 C 108.094 155.793, 108.090 156.213, 106.599 158.489 C 104.497 161.698, 96.251 166.408, 88 169.113 C 78.598 172.196, 65.191 178.889, 63.455 181.367 C 62.114 183.282, 62.136 183.627, 63.672 184.750 C 66.307 186.676, 78.580 186.266, 86.849 183.975 C 97.056 181.146, 104.837 176.970, 111.659 170.660 L 117.500 165.258 121.860 168.609 C 130.527 175.271, 146.631 181, 156.692 181 C 162.521 181, 168 178.664, 168 176.178 C 168 171.784, 153.850 162.603, 134.750 154.603 C 129.864 152.557, 129.645 149.460, 134.250 147.551 C 136.037 146.810, 143.575 144.987, 151 143.500 C 158.425 142.013, 166.075 140.140, 168 139.337 C 171.197 138.004, 171.335 137.784, 169.592 136.801 C 168.543 136.209, 163.984 134.706, 159.462 133.462 C 154.940 132.218, 149.104 130.255, 146.493 129.100 C 140.617 126.501, 139.768 126.493, 137.478 129.025" stroke="none" fill="black" fill-rule="evenodd"/>
</svg>