<svg xmlns="http://www.w3.org/2000/svg" width="200" height="200" viewBox="0 0 200 200" version="1.1">
	<path d="M 108.526 16.750 C 107.120 18.262, 104.113 23.100, 101.842 27.500 C 99.572 31.900, 97.570 35.671, 97.393 35.881 C 97.216 36.090, 94.693 35.305, 91.786 34.136 C 77.502 28.392, 62.625 26.566, 54.991 29.620 C 45.981 33.225, 47.201 42.420, 57.231 46.507 C 65.511 49.881, 83.350 48.201, 95.783 42.877 L 100.066 41.043 101.005 43.513 C 103.823 50.925, 97.265 52.703, 59.342 54.808 C 42.865 55.723, 39 56.960, 39 61.320 C 39 63.796, 44.057 69.113, 50.403 73.311 C 54.116 75.767, 54.454 75.817, 57.316 74.337 C 67.435 69.104, 79.691 67.569, 87.984 70.494 C 90.314 71.316, 94.871 73.599, 98.111 75.567 C 103.446 78.808, 103.943 79.398, 103.386 81.823 C 103.047 83.295, 101.647 86.171, 100.274 88.214 L 97.778 91.928 94.139 90.061 C 89.508 87.686, 86.509 84.462, 84.534 79.736 C 82.759 75.487, 81 74.831, 81 78.418 C 81 84.780, 77.780 86.716, 57.704 92.426 C 41.165 97.130, 38.802 98.064, 35.250 101.299 C 31.886 104.363, 32.409 107.644, 36.992 112.227 L 40.984 116.220 59.599 115.851 L 78.214 115.482 73.357 119.881 C 70.686 122.299, 67.023 125.406, 65.217 126.783 L 61.935 129.287 53.830 126.115 C 49.372 124.370, 45.530 123.137, 45.292 123.374 C 44.465 124.201, 49.020 131.940, 50.938 132.967 C 53.371 134.269, 57.579 134.295, 59.957 133.023 C 61.342 132.282, 63.318 132.825, 68.141 135.273 C 71.639 137.048, 74.456 138.950, 74.401 139.500 C 74.347 140.050, 70.972 141.723, 66.901 143.218 C 58.164 146.426, 52.534 151.634, 51.428 157.533 C 49.876 165.806, 56.800 178.447, 65.775 183.722 C 70.045 186.233, 71.414 186.500, 80 186.500 C 88.362 186.500, 90.249 186.154, 95.747 183.615 C 103.481 180.043, 110.271 173.134, 109.812 169.304 C 109.639 167.861, 108.239 165.761, 106.677 164.599 C 104.303 162.835, 102.430 162.500, 94.927 162.500 C 90.017 162.500, 86 162.447, 86 162.383 C 86 162.318, 87.748 161.109, 89.884 159.695 C 92.021 158.282, 97.026 154.397, 101.007 151.062 C 104.988 147.728, 108.876 145, 109.647 145 C 111.989 145, 113.009 149.594, 114.233 165.651 L 115.404 181.007 120.858 183.048 C 133.352 187.723, 151.718 187.496, 162.664 182.531 C 176.268 176.361, 169.188 168.684, 147.171 165.732 L 138.842 164.615 149.420 162.834 C 164.658 160.268, 169.609 157.165, 165.316 152.871 C 164.237 151.792, 158.485 149.196, 152.534 147.102 C 146.583 145.008, 142.202 142.993, 142.799 142.624 C 143.395 142.256, 148.203 141.670, 153.482 141.324 C 162.511 140.730, 163.226 140.520, 165.540 137.770 C 167.938 134.920, 168.714 130.625, 167.235 128.390 C 166.831 127.779, 164.925 126.429, 163 125.390 C 159.796 123.660, 156.899 123.492, 128.744 123.411 C 111.829 123.362, 97.716 123.049, 97.382 122.715 C 97.048 122.381, 97.314 119.861, 97.972 117.115 C 98.977 112.929, 99.601 112.034, 101.835 111.579 C 109.504 110.019, 133.200 107.010, 137.853 107.005 C 142.793 107, 143.593 107.348, 148.211 111.500 C 152.290 115.167, 153.920 116, 157.019 116 C 163.710 116, 167.461 109.235, 170.048 92.500 C 170.644 88.650, 171.387 70.552, 171.701 52.281 C 172.214 22.419, 172.104 18.807, 170.613 16.531 C 167.211 11.340, 161.314 13.676, 151.067 24.274 L 144.742 30.817 141.606 26.658 C 137.565 21.298, 130.748 17.696, 126 18.412 C 117.036 19.763, 116.644 29.355, 125.054 41.579 C 127.253 44.775, 128.539 45.861, 129.264 45.136 C 129.989 44.411, 129.543 43.086, 127.802 40.796 C 122.160 33.374, 120.178 25.900, 122.962 22.546 C 124.717 20.431, 129.849 20.610, 133.634 22.919 C 137.056 25.005, 142 30.937, 142 32.955 C 142 33.652, 138.929 38.110, 135.176 42.861 C 131.424 47.612, 123.917 57.350, 118.495 64.500 C 113.073 71.650, 108.493 77.687, 108.318 77.917 C 107.118 79.488, 107.479 75.958, 109.574 65.647 C 112.610 50.704, 115.987 27.840, 115.995 22.184 C 116.005 14.063, 113.032 11.900, 108.526 16.750 M 160.712 19.067 C 158.165 20.754, 153.849 24.711, 151.121 27.860 L 146.161 33.586 146.639 41.543 C 146.903 45.919, 146.734 51.525, 146.265 54 C 145.688 57.043, 145.838 60.281, 146.729 64 C 150.017 77.736, 143.354 89.651, 129.381 95.017 C 124.732 96.802, 121.305 97.299, 113.023 97.388 L 102.547 97.500 101.331 102.974 C 100.662 105.985, 100.226 108.559, 100.361 108.694 C 100.496 108.829, 108.233 107.830, 117.553 106.474 C 126.874 105.117, 136.771 104.006, 139.547 104.004 C 144.106 104, 144.966 104.380, 148.439 107.937 C 150.554 110.103, 153.581 112.412, 155.167 113.069 C 157.639 114.093, 158.348 113.995, 160.128 112.384 C 166.351 106.753, 167.981 96.223, 168.929 55.528 C 169.693 22.714, 169.597 19.632, 167.733 17.250 C 166.364 15.500, 165.926 15.614, 160.712 19.067 M 108.739 20.818 C 104.396 27.382, 99.787 37.249, 100.766 37.889 C 102.447 38.988, 104 42.808, 104 45.845 C 104 49.868, 99.533 53.501, 92.779 54.970 C 89.876 55.601, 78.500 56.522, 67.500 57.016 C 49.239 57.835, 41 59.041, 41 60.895 C 41 61.843, 47.790 68.202, 51.523 70.750 C 54.218 72.589, 54.816 72.662, 57.023 71.424 C 61.712 68.794, 72.221 66, 77.424 66 C 84.265 66, 91.142 68.142, 98.373 72.527 C 101.603 74.485, 104.369 75.955, 104.520 75.794 C 105.008 75.270, 108.918 54.838, 110.986 42 C 113.080 29.002, 113.631 17, 112.133 17 C 111.656 17, 110.129 18.718, 108.739 20.818 M 55.400 32.428 C 51.463 34.142, 50.506 36.597, 52.555 39.724 C 57.169 46.765, 72.313 47.599, 90.726 41.826 L 97.500 39.702 92.377 37.343 C 80.242 31.753, 62.397 29.382, 55.400 32.428 M 136.405 45.548 C 131.813 51.374, 128.678 56.481, 127.517 60.025 C 123.056 73.644, 116.935 82, 111.419 82 C 107.751 82, 105.189 85.062, 104.306 90.502 C 103.767 93.820, 103.795 93.847, 108.472 94.548 C 111.062 94.936, 115.606 94.969, 118.570 94.621 C 138.245 92.308, 148.691 78.907, 143.607 62.500 C 142.800 59.895, 142.667 57.372, 143.226 55.267 C 143.698 53.489, 143.953 48.549, 143.792 44.290 L 143.500 36.547 136.405 45.548 M 116.617 71.474 C 112.906 76.404, 111.478 79, 112.476 79 C 113.314 79, 114.885 78.115, 115.966 77.034 C 118.155 74.845, 123.376 65.042, 122.708 64.375 C 122.473 64.140, 119.732 67.335, 116.617 71.474 M 80.405 86.145 C 77.650 89.247, 72.030 91.498, 57.152 95.460 C 36.369 100.993, 32.840 103.714, 37.978 110.245 C 39.706 112.442, 41.001 112.844, 48.228 113.427 C 57.786 114.199, 79.695 112.498, 81.707 110.828 C 82.459 110.204, 85.967 106.197, 89.503 101.922 L 95.933 94.151 91.540 91.576 C 89.123 90.160, 86.261 87.876, 85.179 86.501 C 82.795 83.470, 82.782 83.469, 80.405 86.145 M 93.500 101.220 C 84.837 111.970, 85.034 111.193, 91.161 110.411 C 94.097 110.036, 96.643 109.610, 96.817 109.464 C 97.236 109.114, 99.919 97.852, 99.964 96.250 C 100.033 93.854, 98.467 95.058, 93.500 101.220 M 85.855 113.722 C 83.122 114.012, 81.242 115.159, 78.347 118.304 C 76.223 120.612, 72.366 124.343, 69.777 126.595 L 65.070 130.691 70.034 133.016 C 80.541 137.937, 80.331 140.939, 69.183 145.193 C 57.234 149.753, 54 153.026, 54 160.555 C 54 164.528, 57.862 173.121, 61.308 176.812 C 66.963 182.872, 76.258 185.658, 85.177 183.966 C 96.020 181.910, 107 174.654, 107 169.544 C 107 165.781, 102.524 164.612, 90.688 165.285 C 85.084 165.604, 79.713 166.168, 78.750 166.539 C 77.569 166.995, 77 166.734, 77 165.739 C 77 164.927, 79.957 162.534, 83.571 160.421 C 87.186 158.307, 93.823 153.511, 98.321 149.763 C 102.820 146.016, 107.588 142.668, 108.919 142.324 C 113.896 141.037, 115.761 147.177, 117.583 170.848 L 118.226 179.196 121.723 180.658 C 128.120 183.331, 141.132 184.493, 149.741 183.160 C 158.216 181.848, 166.500 178.337, 166.500 176.056 C 166.500 171.897, 152.530 168.243, 132.583 167.185 C 123.999 166.730, 119.529 166.100, 119.267 165.307 C 118.828 163.983, 119.452 163.861, 138.604 161.507 C 158.110 159.109, 166.847 156.411, 162.992 153.974 C 162.171 153.456, 157.225 151.623, 152 149.901 C 132.571 143.499, 133.068 140.160, 153.709 138.435 C 161.981 137.744, 163.874 136.820, 165.306 132.779 C 165.641 131.832, 165.239 130.382, 164.413 129.555 C 161.091 126.234, 155.059 125.681, 124.333 125.882 C 107.741 125.990, 93.925 125.687, 93.630 125.210 C 93.334 124.732, 93.747 122.168, 94.546 119.512 C 95.346 116.855, 96 114.304, 96 113.841 C 96 113.009, 92.928 112.973, 85.855 113.722 M 51 129.500 C 51.685 130.325, 53.652 130.966, 55.372 130.924 L 58.500 130.848 55 129.500 C 50.342 127.706, 49.511 127.706, 51 129.500" stroke="none" fill="black" fill-rule="evenodd"/>
</svg>