<svg xmlns="http://www.w3.org/2000/svg" width="200" height="200" viewBox="0 0 200 200" version="1.1">
	<path d="M 142 11.549 C 142 12.401, 143.413 18.954, 145.140 26.111 C 147.907 37.580, 148.138 39.595, 147.091 43.091 C 145.672 47.825, 144.009 47.344, 143.978 42.191 C 143.954 38.235, 140.966 30.725, 138.195 27.662 C 133.553 22.528, 123.809 20.496, 118.069 23.464 C 114.742 25.185, 110 30.540, 110 32.577 C 110 33.360, 109.550 34, 109 34 C 108.450 34, 108 33.550, 108 33 C 108 31.129, 104.009 28, 101.622 28 C 100.315 28, 98.659 28.706, 97.942 29.570 C 97.226 30.433, 95.829 30.927, 94.837 30.668 C 93.356 30.280, 93.210 30.524, 94.017 32.032 C 94.558 33.042, 95 34.058, 95 34.290 C 95 34.521, 88.362 35.030, 80.250 35.421 C 52.995 36.734, 40.853 39.037, 36.147 43.786 L 33.500 46.457 39 47.238 C 63.122 50.663, 81.807 56.556, 78.597 59.726 C 78.166 60.152, 68.374 60.500, 56.836 60.500 L 35.859 60.500 33.409 64.500 C 30.308 69.562, 30.538 73.944, 34 75.781 C 35.800 76.737, 39.021 76.953, 45.500 76.552 C 76.875 74.610, 78.349 74.618, 83.184 76.757 C 89.361 79.490, 90.855 83.546, 88.574 91.393 C 86.566 98.301, 86.508 98, 89.852 98 C 99.391 98, 108.787 82.987, 110.760 64.595 L 111.500 57.689 117.314 66.431 L 123.129 75.173 122.026 80.314 C 119.110 93.912, 106.420 105, 93.772 105 C 87.114 105, 81.515 100.870, 78.548 93.768 C 77.696 91.731, 77 88.925, 77 87.532 C 77 85.169, 76.675 85, 72.126 85 C 57.846 85, 44.734 95.643, 34.886 115.228 C 32.749 119.478, 31 123.153, 31 123.395 C 31 123.637, 33.137 124.659, 35.750 125.667 C 44.130 128.900, 60.854 128.119, 82.500 123.484 C 100.642 119.599, 115.749 118.324, 117.879 120.500 C 118.519 121.153, 118.478 123.149, 117.761 126.250 L 116.663 131 111.055 131 C 102.858 131, 89.667 129.177, 85.616 127.484 C 81.415 125.729, 77.773 126.741, 75.835 130.202 C 73.986 133.505, 74.335 148.137, 76.461 156.500 C 80.086 170.752, 86.351 182.414, 92.350 186.072 C 96.374 188.525, 99.087 188.506, 102.273 186 C 106.110 182.982, 110.096 183.448, 112.500 187.195 C 116.108 192.820, 121.545 192.642, 128.540 186.671 C 132.423 183.356, 132.725 183.279, 144 182.729 C 157.525 182.070, 164.655 180.120, 169.681 175.707 C 175.992 170.166, 178.889 159.964, 177.514 148.121 C 176.896 142.794, 176.321 141.709, 171.038 135.888 L 165.241 129.500 167.143 126.814 C 170.650 121.862, 174.922 111.567, 176.611 104 C 177.970 97.911, 178.313 90.293, 178.434 63.500 C 178.516 45.350, 178.938 28.700, 179.372 26.500 C 180.031 23.154, 179.779 21.943, 177.830 19.094 C 174.796 14.658, 172.897 13.558, 169.673 14.367 C 165.587 15.393, 160.500 20.453, 155.296 28.667 L 150.543 36.170 148.260 27.335 C 146.343 19.917, 145.378 14.915, 145.058 10.750 C 144.944 9.266, 142 10.036, 142 11.549 M 164.066 21.790 C 161.555 24.425, 157.784 29.487, 155.686 33.040 C 152.331 38.722, 151.941 40.042, 152.445 44 C 152.760 46.475, 153.299 51.927, 153.643 56.116 C 154.208 63.003, 154.065 63.935, 152.152 65.848 C 150.369 67.631, 149.600 67.799, 147.270 66.912 C 145.748 66.334, 143.772 65.198, 142.877 64.389 C 141.085 62.767, 140.708 63.461, 135.364 78.215 L 132.932 84.929 136.608 90.465 C 140.577 96.442, 141.109 96.778, 143 94.500 C 145.051 92.028, 148.573 92.748, 151.646 96.267 C 153.216 98.063, 156.975 104.801, 160 111.240 C 163.025 117.679, 165.776 122.959, 166.113 122.973 C 167.144 123.018, 171.825 111.800, 173.632 104.956 C 175.048 99.592, 175.364 93.087, 175.500 66.500 C 175.589 48.900, 176.009 31.967, 176.431 28.871 C 176.966 24.959, 176.819 22.519, 175.950 20.871 C 173.109 15.481, 169.840 15.734, 164.066 21.790 M 117.756 26.755 C 109.985 31.573, 110.356 43.911, 118.596 54.715 C 122.045 59.236, 124.952 65.931, 124.978 69.412 C 125 72.264, 129.394 81.013, 130.792 80.987 C 132.038 80.963, 140.197 58.721, 141.243 52.500 C 143.042 41.793, 139.483 31.094, 132.759 26.995 C 128.720 24.532, 121.526 24.417, 117.756 26.755 M 100.910 32.391 C 101.632 33.262, 101.940 34.715, 101.593 35.620 C 101.210 36.616, 102.251 39.281, 104.231 42.376 C 107.247 47.093, 107.523 47.290, 107.799 44.921 C 107.964 43.509, 107.289 39.911, 106.299 36.927 C 104.848 32.550, 104.025 31.433, 102.048 31.154 C 99.911 30.852, 99.765 31.012, 100.910 32.391 M 88 37.666 C 53.428 40.099, 44.961 41.192, 40.462 43.801 C 38.709 44.818, 38.857 44.942, 41.843 44.970 C 47.187 45.018, 64.361 48.805, 71.886 51.595 C 75.688 53.004, 79.833 55.258, 81.097 56.603 L 83.395 59.049 81.171 61.275 C 79.095 63.351, 78.059 63.500, 65.723 63.500 C 58.450 63.500, 49.159 63.279, 45.076 63.008 L 37.652 62.517 35.329 66.910 C 31.596 73.969, 32.645 74.467, 48.989 73.390 C 70.300 71.986, 80.859 72.290, 85.294 74.435 C 90.627 77.014, 92.365 80.860, 91.737 88.686 C 91.458 92.159, 91.447 95, 91.711 95 C 93.663 95, 98.596 90.737, 100.967 87.002 C 104.604 81.270, 106.774 73.822, 108.025 62.778 L 109.015 54.037 103.258 45.562 C 98.485 38.538, 97.072 37.110, 95 37.218 C 93.625 37.290, 90.475 37.492, 88 37.666 M 146.147 51.832 C 144.313 55.812, 143.055 59.701, 143.352 60.475 C 144.120 62.477, 148.713 65.295, 149.956 64.527 C 151.125 63.805, 151.256 54.592, 150.183 48.548 L 149.482 44.597 146.147 51.832 M 111 49.820 C 111 51.048, 113.514 55.753, 116.586 60.276 C 124.488 71.911, 122.850 66.394, 114.438 53.044 C 111.844 48.928, 111 48.136, 111 49.820 M 124.504 82.039 C 121.804 94.535, 109.540 105.885, 96.875 107.608 C 86.425 109.030, 77.359 102.118, 74.589 90.616 C 73.904 87.769, 73.821 87.739, 68.299 88.309 C 57.445 89.429, 46.514 98.882, 38.553 114.030 C 36.599 117.750, 35 121.244, 35 121.796 C 35 122.349, 37.316 123.356, 40.146 124.035 C 48.167 125.959, 64.177 124.711, 81 120.851 C 93.124 118.069, 97.487 117.522, 107.627 117.512 L 119.753 117.500 124.432 102.500 C 127.005 94.250, 129.323 86.825, 129.581 86 C 129.840 85.175, 128.972 83.168, 127.652 81.539 L 125.252 78.578 124.504 82.039 M 127.128 102.750 C 124.841 110.313, 122.976 117.236, 122.985 118.135 C 122.998 119.569, 127.775 123.696, 128.419 122.830 C 128.553 122.648, 129.714 119.800, 130.998 116.500 C 132.283 113.200, 134.633 107.877, 136.221 104.672 L 139.108 98.843 135.950 93.922 C 134.213 91.215, 132.453 89, 132.039 89 C 131.625 89, 129.415 95.188, 127.128 102.750 M 144.724 96.134 C 143.776 96.665, 143 97.729, 143 98.500 C 143 99.270, 146.389 105.098, 150.532 111.452 C 154.675 117.805, 158.294 123.565, 158.575 124.252 C 159.238 125.875, 163.986 129.347, 164.643 128.690 C 165.553 127.780, 150.142 97.146, 148.270 96.145 C 147.097 95.517, 145.834 95.513, 144.724 96.134 M 137.713 107.750 C 136.305 110.912, 133.921 116.650, 132.415 120.500 C 130.909 124.350, 129.518 127.694, 129.324 127.932 C 129.129 128.169, 127.409 126.850, 125.500 125 C 123.591 123.150, 121.819 121.848, 121.561 122.106 C 121.303 122.364, 120.790 124.463, 120.421 126.771 L 119.750 130.967 130.625 130.366 C 145.170 129.561, 152.547 130.928, 156.366 135.134 C 158.909 137.935, 159.163 138.796, 158.618 142.771 C 157.746 149.135, 149.905 163.400, 142.274 172.504 L 135.764 180.273 146.132 179.750 C 152.005 179.453, 158.449 178.509, 160.996 177.571 C 171.194 173.815, 175.617 165.219, 174.781 150.778 L 174.324 142.886 168.443 136.943 C 165.209 133.674, 161.773 131, 160.807 131 C 159.835 131, 158.306 129.548, 157.381 127.750 C 155.315 123.728, 141.213 102, 140.669 102 C 140.451 102, 139.121 104.588, 137.713 107.750 M 78.872 130.660 C 76.657 133.339, 77.194 148.966, 79.821 158.291 C 84.113 173.525, 91.684 185, 97.442 185 C 98.700 185, 100.874 184.100, 102.273 183 C 103.671 181.900, 105.982 181, 107.408 181 C 109.955 181, 110 180.876, 110 173.878 C 110 166.392, 112.223 149.479, 114.485 139.750 C 115.701 134.522, 115.672 133.999, 114.161 133.984 C 106.050 133.907, 88.364 131.722, 86.015 130.508 C 82.266 128.569, 80.572 128.605, 78.872 130.660 M 119.397 133.765 C 117.583 134.973, 113.856 156.636, 113.264 169.404 L 112.713 181.308 115.106 180.668 C 116.423 180.316, 120.877 180.021, 125.005 180.014 L 132.511 180 139.505 171.521 C 143.352 166.857, 148.637 158.975, 151.250 154.004 C 158.076 141.018, 157.603 136.372, 149.216 134.043 C 144.992 132.870, 121.076 132.647, 119.397 133.765 M 114 184.345 C 114 185.085, 114.847 186.457, 115.882 187.394 C 118.185 189.477, 121.458 188.828, 125.560 185.475 L 128.500 183.072 121.250 183.036 C 115.826 183.009, 114 183.339, 114 184.345" stroke="none" fill="black" fill-rule="evenodd"/>
</svg>