<svg xmlns="http://www.w3.org/2000/svg" width="200" height="200" viewBox="0 0 200 200" version="1.1">
	<path d="M 102 11.559 C 102 15.229, 105.860 28, 106.969 28 C 107.455 28, 108.014 27.212, 108.210 26.250 C 108.611 24.281, 134.895 89.581, 135.702 94.550 C 136.165 97.406, 134.752 105.490, 131.901 116.292 L 130.900 120.085 123.200 115.865 C 113.175 110.371, 102.853 103.599, 98.957 99.960 C 92.387 93.823, 97.373 90.251, 112.750 90.080 C 116.737 90.036, 120 89.830, 120 89.622 C 120 88.354, 116.461 81.129, 114.805 79.017 C 108.717 71.251, 101.066 72.758, 90.918 83.724 C 87.938 86.945, 81.147 95.187, 75.826 102.040 C 63.738 117.610, 62.893 118.396, 49.621 126.422 C 39.977 132.254, 33.981 134.492, 34.009 132.250 C 34.035 130.192, 41.426 119.114, 52.589 104.402 C 59.415 95.406, 65 87.811, 65 87.523 C 65 87.235, 61.962 86.996, 58.250 86.992 C 49.870 86.982, 34.254 85.242, 32.193 84.088 C 30.087 82.910, 33.094 81.448, 50.500 75.190 C 72.540 67.267, 76 65.809, 76 64.444 C 76 63.709, 73.769 62.696, 70.750 62.060 C 61.393 60.089, 53.250 56.961, 47.060 52.960 C 36.146 45.906, 39.304 43.635, 59.399 44.088 C 67.155 44.262, 75.161 44.044, 77.191 43.602 C 83.203 42.295, 89.417 45.062, 100.567 54.014 C 106.030 58.399, 111.007 61.991, 111.628 61.994 C 114.101 62.007, 115.271 58.993, 114.639 54.236 C 113.347 44.501, 110.665 35, 109.209 35 C 108.150 35, 107.964 35.708, 108.485 37.750 C 110.259 44.705, 111.967 53.753, 111.983 56.285 C 112.004 59.761, 111.040 59.310, 102 51.610 C 94.241 45.002, 86.470 40.866, 81.860 40.892 C 49.996 41.067, 42.170 41.538, 40.106 43.405 C 38.948 44.453, 38 46.087, 38 47.036 C 38 51.238, 49.927 59.128, 61.500 62.582 C 64.800 63.567, 67.841 64.652, 68.257 64.993 C 68.673 65.335, 61.529 68.288, 52.380 71.557 C 33.966 78.136, 28.682 80.700, 28.182 83.296 C 27.648 86.066, 33.605 87.878, 47.430 89.150 L 59.923 90.299 57.988 92.899 C 56.923 94.330, 51.747 101.125, 46.484 108 C 35.251 122.674, 30.060 132.162, 31.991 134.489 C 34.690 137.741, 40.607 135.596, 55.437 125.989 C 65.120 119.717, 67.806 116.978, 80.927 100 C 89.650 88.714, 97.474 80.387, 101.200 78.423 C 106.693 75.529, 111.319 77.300, 114.460 83.500 L 115.979 86.500 106.998 87.629 C 96.588 88.938, 93 90.780, 93 94.815 C 93 97.907, 98.304 103.582, 106 108.723 C 112.621 113.147, 132.094 124.240, 132.509 123.825 C 132.705 123.628, 134.150 118.347, 135.719 112.090 L 138.571 100.712 141.385 107.884 C 143.756 113.928, 143.995 115.326, 142.901 116.778 C 133.686 129.013, 125.368 131.940, 106.690 129.522 C 100.536 128.726, 91.804 127.972, 87.287 127.848 C 80.374 127.658, 78.730 127.929, 76.899 129.561 C 73.306 132.764, 71.867 137.610, 71.907 146.374 C 71.983 163.017, 79.731 178.787, 90.360 183.932 C 94.383 185.880, 96.344 186, 124.066 185.992 C 153.748 185.985, 163.700 185.185, 169.730 182.324 C 176.309 179.202, 174.932 172.498, 166.260 165.434 C 160.163 160.468, 159.054 160.178, 156.584 162.908 C 155.634 163.957, 152.527 165.860, 149.679 167.136 C 145.257 169.118, 142.891 169.454, 133.500 169.430 C 120.727 169.398, 112.816 166.990, 107.250 161.440 C 101.248 155.457, 104.039 150.376, 115.734 145.996 L 121.500 143.836 130.727 146.057 C 145.843 149.695, 156.081 147.789, 163.791 139.903 C 169.412 134.153, 168.992 126.939, 162.912 124.820 L 159.980 123.797 163.858 120.988 C 171.001 115.814, 172.321 112.946, 172.556 102.101 C 172.671 96.820, 173.324 85.861, 174.008 77.746 C 176.347 49.995, 174.346 28.839, 168.053 14.792 C 164.532 6.932, 163.396 9.135, 162.636 25.299 C 161.379 52.031, 156.878 82.412, 152.160 96 L 150.251 101.500 149.550 97 C 149.165 94.525, 149.272 81.568, 149.788 68.207 C 151.003 36.728, 150.271 32.812, 141.820 25.578 C 134.652 19.442, 120.773 16.997, 113.744 20.632 C 112.008 21.530, 110.428 21.867, 110.232 21.382 C 110.037 20.897, 108.667 18.048, 107.188 15.051 C 104.131 8.854, 102 7.420, 102 11.559 M 166.063 19.050 C 164.849 48.759, 158.902 86.711, 153.050 102.109 C 150.523 108.757, 150.510 111.323, 152.973 116.750 C 155.644 122.634, 158.448 122.502, 165.003 116.184 L 170 111.368 170 100.790 C 170 94.972, 170.504 85.552, 171.119 79.856 C 173.029 62.182, 172.638 40.846, 170.223 31 C 167.955 21.748, 166.163 16.603, 166.063 19.050 M 115.143 22.890 C 114.397 23.363, 114.172 23.987, 114.643 24.277 C 115.659 24.902, 126.223 26.879, 130.498 27.244 C 134.045 27.547, 135.961 30.971, 139.262 42.904 C 141.034 49.312, 141.358 53.237, 141.335 68 C 141.319 77.625, 140.853 87.599, 140.298 90.164 C 139.399 94.323, 139.615 95.678, 142.284 102.664 C 145.515 111.122, 145.751 111.582, 146.487 110.846 C 146.755 110.578, 147.051 94.191, 147.146 74.429 C 147.335 34.627, 147.307 34.418, 140.866 28.293 C 139.010 26.528, 135.525 24.391, 133.121 23.543 C 128.420 21.884, 117.364 21.483, 115.143 22.890 M 113.599 29.796 C 114.471 31.833, 120.198 46.100, 126.325 61.500 L 137.464 89.500 138.144 84.500 C 139.344 75.682, 139.044 56.402, 137.588 48.838 C 136.812 44.802, 135.220 38.955, 134.051 35.844 L 131.927 30.188 125.736 29.469 C 122.331 29.074, 117.850 28.153, 115.779 27.422 L 112.012 26.093 113.599 29.796 M 147.670 113.726 C 147.286 114.346, 147.923 117.392, 149.084 120.496 C 150.625 124.614, 151.597 125.985, 152.680 125.569 C 153.496 125.256, 154.914 124.982, 155.832 124.960 C 156.973 124.933, 156.673 124.471, 154.881 123.497 C 152.571 122.241, 150.137 118.457, 148.805 114.049 C 148.503 113.052, 148.148 112.951, 147.670 113.726 M 141.392 122.782 C 139.682 124.842, 135.857 127.872, 132.892 129.514 C 127.859 132.301, 126.800 132.499, 117 132.484 C 111.225 132.476, 100.650 131.959, 93.500 131.336 C 85.453 130.636, 79.841 130.555, 78.771 131.126 C 77.820 131.633, 76.292 134.625, 75.375 137.774 C 70.750 153.657, 81.527 179.458, 94.145 182.714 C 99.684 184.143, 161.761 182.604, 166.500 180.920 C 173.155 178.555, 172.487 173.991, 164.531 167.472 L 160.060 163.808 157.447 165.863 C 153.445 169.011, 144.681 171.926, 137.225 172.589 C 120.420 174.083, 101 164.915, 101 155.487 C 101 150.610, 108.740 144.763, 118.770 142.062 C 122.368 141.093, 124 141.228, 129.608 142.961 C 139.315 145.959, 149.132 145.735, 155.903 142.361 C 164.145 138.254, 167.829 130.246, 162.577 127.853 C 159.466 126.436, 153.344 127.566, 152.089 129.790 C 150.785 132.101, 149.635 130.700, 147.543 124.250 C 146.606 121.362, 145.538 119.008, 145.170 119.018 C 144.801 119.028, 143.101 120.722, 141.392 122.782" stroke="none" fill="black" fill-rule="evenodd"/>
</svg>