<svg xmlns="http://www.w3.org/2000/svg" width="200" height="200" viewBox="0 0 200 200" version="1.1">
	<path d="M 146.064 21.140 L 141.734 27.279 138.582 23.524 L 135.429 19.769 125.175 20.885 C 111.342 22.389, 111 22.368, 111 20 C 111 18.900, 110.374 18, 109.609 18 C 108.107 18, 105.654 23.359, 104.573 29 C 104.204 30.925, 102.284 37.158, 100.306 42.851 L 96.710 53.203 91.242 47.064 C 80.920 35.476, 72.133 33.665, 58.625 40.341 C 54.110 42.572, 47.959 44.595, 42.861 45.525 C 32.950 47.332, 30 48.451, 30 50.401 C 30 52.127, 33.215 53.233, 46.500 56.076 C 59.088 58.770, 66.569 61.546, 68.440 64.218 C 69.717 66.041, 69.715 66.650, 68.428 69.140 C 65.664 74.485, 62.781 75.502, 51.424 75.140 C 34.614 74.605, 24.902 77.792, 26.559 83.301 C 28.206 88.774, 40.246 96.830, 49.326 98.533 C 51.359 98.915, 53.243 99.585, 53.514 100.022 C 53.784 100.460, 51.815 103.447, 49.136 106.659 C 38.277 119.686, 29.971 135.155, 31.582 139.353 C 32.709 142.291, 36.426 142.324, 42.129 139.446 C 48.392 136.286, 65.231 123.882, 67.588 120.692 C 68.479 119.486, 69.040 118.950, 68.836 119.500 C 65.262 129.122, 64.333 130.941, 62.787 131.345 C 60.771 131.873, 60.324 134.032, 62.250 133.940 C 62.938 133.908, 65.638 133.529, 68.250 133.099 C 70.862 132.669, 73 132.618, 73 132.986 C 73 133.354, 71.898 136.366, 70.552 139.679 C 66.920 148.618, 65.508 157.546, 66.910 162.705 C 68.506 168.578, 71.578 171.839, 83.699 180.527 L 94.251 188.090 99.375 187.053 C 102.390 186.443, 116.237 186.115, 133 186.258 C 160.006 186.487, 161.769 186.389, 166.632 184.391 C 173.399 181.610, 178.246 177.816, 180.589 173.465 C 182.256 170.369, 182.308 169.804, 180.998 168.966 C 175.241 165.282, 162.320 165.131, 140.500 168.492 C 115.353 172.366, 106.725 171.757, 101.155 165.714 C 99.327 163.730, 98.599 161.335, 97.847 154.835 C 96.186 140.474, 90.909 132.961, 80.723 130.453 L 77.946 129.770 82.131 122.135 C 84.434 117.936, 87.511 112.578, 88.971 110.228 L 91.625 105.957 98.562 110.836 C 112.305 120.500, 116.793 127.595, 115.598 137.766 L 114.952 143.263 119.226 142.588 C 125.622 141.577, 130.402 137.930, 133.367 131.801 C 137.475 123.307, 138.263 115.216, 137.537 89 C 136.999 69.597, 137.165 64.059, 138.485 57.232 C 140.012 49.336, 139.824 43.613, 137.916 39.905 C 137.077 38.273, 139.292 34, 140.977 34 C 141.451 34, 142.594 37.263, 143.515 41.250 C 144.940 47.413, 145.180 54.422, 145.119 88 C 145.080 109.725, 145.303 129.633, 145.616 132.239 C 146.455 139.230, 149.632 143.423, 154.390 143.817 C 157.796 144.099, 158.684 143.644, 162.500 139.661 C 170.839 130.958, 174.118 116.889, 172.031 98.771 C 170.969 89.550, 170.958 83.985, 171.972 69.013 C 173.707 43.383, 172.372 32.473, 166.456 23.936 C 163.850 20.175, 155.478 15, 152.001 15 C 151.117 15, 148.445 17.763, 146.064 21.140 M 147.181 24.093 C 142.895 30.152, 142.873 30.226, 144.320 33.849 C 147.311 41.337, 148.056 52.677, 148.278 94.045 C 148.480 131.908, 148.657 135.831, 150.273 138.295 C 155.422 146.149, 164.995 136.831, 168.989 120.078 C 169.928 116.141, 170.059 111.759, 169.467 104.078 C 168.394 90.146, 168.381 82.980, 169.393 62 C 170.585 37.305, 168.171 26.754, 160.129 21.495 C 153.253 16.998, 152.026 17.245, 147.181 24.093 M 123 23.900 L 118.500 24.500 123.099 26.275 C 125.629 27.252, 129.590 29.669, 131.900 31.647 C 135.915 35.083, 136.165 35.160, 137.519 33.372 C 139.464 30.804, 139.345 29.293, 136.932 25.904 C 134.723 22.802, 133.047 22.561, 123 23.900 M 107.693 30.750 C 104.250 40.354, 106.657 53, 111.926 53 C 116.022 53, 115.317 56.753, 110.191 62.250 C 106.935 65.741, 103.412 65.769, 99.824 62.331 L 97.039 59.663 95.628 63.081 C 94.853 64.962, 91.921 72.125, 89.114 79 L 84.011 91.500 87.755 87.316 C 93.067 81.383, 98.574 78, 102.924 78 C 105.838 78, 106.896 77.449, 108.200 75.250 C 109.097 73.737, 115.331 64.641, 122.054 55.037 L 134.277 37.573 130.098 33.865 C 126.050 30.273, 115.948 26, 111.503 26 C 109.894 26, 108.992 27.124, 107.693 30.750 M 63.813 40.926 C 61.236 41.934, 57.636 43.665, 55.813 44.772 C 53.991 45.880, 49.125 47.342, 45 48.022 C 32.970 50.004, 32.712 50.473, 42.590 52.405 C 64.165 56.623, 72.029 60.462, 71.978 66.750 C 71.955 69.582, 70.471 71.778, 65.821 75.862 C 63.289 78.086, 62.454 78.207, 50.593 78.063 C 37.398 77.903, 30.286 79.092, 29.316 81.618 C 27.634 86.002, 44.183 95.753, 54.966 96.731 L 60.843 97.264 54.665 104.382 C 43.457 117.294, 34 132.254, 34 137.073 C 34 141.281, 41.154 138.078, 54.823 127.750 C 69.430 116.713, 74.316 108.601, 90.126 69.135 C 95.752 55.089, 95.877 56.179, 87.620 47.185 C 80.386 39.306, 72.954 37.352, 63.813 40.926 M 126.358 53.577 C 107.649 80.460, 108.546 78.869, 110.721 81.335 C 113.671 84.679, 115.505 87.999, 117.785 94.125 L 119.878 99.750 107.013 100.462 C 97.993 100.960, 94 101.557, 93.654 102.459 C 93.361 103.223, 96.096 105.795, 100.395 108.796 C 113.316 117.817, 118.312 124.880, 118.428 134.289 C 118.498 139.912, 118.570 140.061, 120.939 139.473 C 125.034 138.456, 128.724 135.203, 130.914 130.678 C 134.668 122.922, 135.292 116.128, 134.645 90 C 134.160 70.386, 134.335 64.104, 135.520 58.500 C 137.112 50.970, 137.308 45.646, 136.106 42.577 C 135.487 40.996, 133.749 42.957, 126.358 53.577 M 100.325 50.989 L 98.202 56.819 100.906 59.410 C 104.270 62.632, 106.024 62.668, 108.932 59.573 L 111.212 57.145 107.606 53.539 C 105.623 51.556, 104 49.075, 104 48.026 C 104 44.056, 102.372 45.369, 100.325 50.989 M 95.258 83.928 C 88.394 88.900, 79.408 102.137, 73.497 115.982 C 70.567 122.847, 68.382 128.810, 68.643 129.232 C 68.904 129.654, 70.434 130, 72.042 130 C 74.546 130, 75.330 129.282, 77.499 125.002 C 78.892 122.253, 82.049 116.591, 84.516 112.420 C 86.982 108.248, 89 103.777, 89 102.485 C 89 101.083, 89.741 99.900, 90.835 99.552 C 92.316 99.082, 97.368 92.097, 103.300 82.318 C 104.815 79.821, 99.443 80.896, 95.258 83.928 M 102.072 89.393 C 99.283 93.527, 97 97.155, 97 97.455 C 97 98.308, 113.352 98.063, 114.727 97.190 C 115.646 96.606, 115.247 94.917, 113.135 90.455 C 108.521 80.707, 107.969 80.654, 102.072 89.393 M 73.164 140.750 C 67.811 154.668, 67.804 162.430, 73.141 168.507 C 74.814 170.413, 80.442 174.921, 85.649 178.526 L 95.115 185.080 100.728 184.042 C 104.274 183.387, 115.392 183.239, 130.921 183.641 C 152.005 184.186, 156.413 184.040, 161.918 182.616 C 169.487 180.657, 174.176 177.966, 177.050 173.930 L 179.135 171.002 176.317 169.846 C 171.769 167.980, 156.688 168.616, 139.370 171.403 C 115.695 175.214, 107.450 174.774, 101.009 169.354 C 96.681 165.713, 95.811 163.620, 94.911 154.691 C 93.880 144.461, 90.880 138.271, 85.500 135.266 C 83.300 134.038, 80.295 133.025, 78.823 133.016 C 76.402 133.002, 75.859 133.743, 73.164 140.750" stroke="none" fill="black" fill-rule="evenodd"/>
</svg>