<svg xmlns="http://www.w3.org/2000/svg" width="200" height="200" viewBox="0 0 200 200" version="1.1">
	<path d="M 140.636 4.640 C 140.286 7.191, 140 11.916, 140 15.140 C 140 18.363, 139.887 21.063, 139.750 21.141 C 139.613 21.218, 121.725 21.584, 100 21.954 C 67.286 22.511, 59.255 22.930, 53.250 24.393 C 48.162 25.633, 46 26.619, 46 27.697 C 46 28.817, 46.609 29.056, 48.250 28.579 C 58.052 25.727, 67.374 25.082, 102.902 24.797 L 140.305 24.497 139.652 46.910 C 139.294 59.237, 139 75.499, 139 83.048 L 139 96.773 128.542 97.160 C 119.831 97.483, 117.617 97.900, 115.292 99.657 C 111.548 102.485, 111.522 108.374, 115.232 113.238 C 116.645 115.091, 119.133 119.508, 120.759 123.053 C 124.374 130.932, 127.882 134.447, 131.449 133.765 C 132.852 133.497, 133.999 133.327, 133.999 133.389 C 133.998 133.450, 133.323 137.325, 132.500 142 C 130.580 152.901, 130.545 159.612, 132.406 160.326 C 133.179 160.622, 134.475 160.108, 135.285 159.183 C 139.001 154.939, 139.793 151.414, 140.490 136 C 141.126 121.966, 141.421 120.145, 143.610 116.750 C 147.857 110.164, 152.129 112.246, 157.886 123.710 C 161.583 131.072, 160.468 154.286, 156.001 162.968 C 151.094 172.503, 139.845 177.453, 118.329 179.545 L 111.159 180.243 110.582 175.871 C 110.265 173.467, 109.303 164.750, 108.445 156.500 C 107.587 148.250, 106.448 139.542, 105.915 137.148 C 102.607 122.296, 96.644 124.076, 90.518 141.744 C 86.679 152.819, 87.061 152.403, 79.893 153.300 C 76.377 153.740, 72.433 154.798, 71.130 155.652 C 68.821 157.164, 68.808 157.249, 70.630 158.965 C 71.658 159.934, 76.959 162.236, 82.408 164.081 C 94.131 168.050, 97.089 169.983, 95.101 172.379 C 93.430 174.391, 79.206 178.981, 72.387 179.707 C 61.341 180.884, 50.656 174.141, 44.837 162.321 C 34.827 141.987, 47.738 131.521, 70.939 141.163 C 74.744 142.745, 76.387 143.013, 77.214 142.186 C 78.041 141.359, 77.832 140.890, 76.417 140.395 C 64.494 136.223, 49 126.126, 49 122.528 C 49 117.810, 60.778 115.394, 77.356 116.711 L 88.212 117.574 89.219 115.037 C 89.773 113.642, 90.456 110.609, 90.738 108.298 C 91.185 104.621, 90.877 103.724, 88.275 101.121 C 84.110 96.956, 80.136 96.494, 59.500 97.773 C 40.683 98.940, 33.846 98.445, 27.558 95.460 C 24.398 93.961, 20.002 88.682, 19.999 86.382 C 19.998 85.882, 28.330 85.768, 39.249 86.120 C 49.837 86.461, 72.433 86.406, 89.462 85.997 L 120.425 85.254 123.246 81.877 C 127.452 76.842, 128.725 71.755, 126.592 68.501 C 125.659 67.076, 123.681 65.421, 122.198 64.823 C 118.208 63.214, 102.863 63.674, 85.672 65.918 C 77.328 67.007, 67.124 68.189, 62.998 68.544 L 55.496 69.189 50.748 65.009 C 48.137 62.711, 46 60.012, 46 59.013 C 46 55.453, 51.220 54.745, 82.500 54.068 C 115.532 53.352, 115.246 53.406, 122.480 46.584 C 125.005 44.202, 126.052 42.420, 125.827 40.887 C 125.249 36.943, 121.411 36.552, 96.771 37.930 C 73.572 39.227, 64.103 38.851, 58.144 36.396 C 54.405 34.856, 52.276 35.423, 54.001 37.501 C 57.051 41.176, 71.125 42.077, 102.604 40.610 C 118.102 39.888, 121.863 39.969, 122.526 41.042 C 123.629 42.827, 116.797 48.684, 112.085 49.993 C 110.113 50.541, 98.600 51.016, 86.500 51.048 C 52.174 51.141, 43.840 52.549, 43.173 58.367 C 42.906 60.692, 43.783 62.123, 47.920 66.110 L 52.993 71 60.810 71 C 65.110 71, 73.549 70.355, 79.564 69.568 C 110.495 65.517, 120.190 65.333, 123.593 68.736 C 125.656 70.799, 124.806 75.255, 121.530 79.549 L 119.077 82.765 82.789 83.397 C 62.830 83.744, 39.862 83.684, 31.749 83.264 L 16.999 82.500 16.999 84.816 C 17.001 90.627, 23.441 97.491, 30.937 99.670 C 35.576 101.019, 39.816 101.151, 58.967 100.544 C 83.542 99.765, 86.512 100.207, 87.667 104.809 C 88.007 106.165, 87.884 108.839, 87.393 110.752 L 86.500 114.230 72.280 114.068 C 56.240 113.886, 51.028 114.878, 48.036 118.681 C 45.258 122.213, 46.064 124.488, 52.135 130.250 L 57.140 135 52.820 135.004 C 43.478 135.012, 38.549 141.116, 39.174 151.902 C 40.065 167.277, 52.723 180.895, 67.751 182.648 C 75.688 183.574, 94.845 177.693, 97.603 173.483 C 100.685 168.779, 96.502 165.649, 79.500 159.938 L 72.500 157.587 76.750 156.794 C 79.088 156.357, 82.813 155.662, 85.028 155.250 L 89.057 154.500 92.382 144.797 C 95.766 134.926, 98.296 130, 99.984 130 C 101.929 130, 104.125 141.195, 106.239 161.876 L 108.423 183.252 116.461 182.583 C 140.689 180.564, 154.589 174.100, 159.385 162.621 C 161.424 157.741, 163 146.484, 162.999 136.808 C 162.999 129.747, 162.571 127.600, 160.150 122.500 C 154.499 110.599, 148.580 107.173, 143.302 112.750 L 140.699 115.500 141.327 113 C 141.673 111.625, 142.473 108.204, 143.104 105.398 L 144.252 100.296 156.376 99.675 C 170.811 98.936, 177.902 97.033, 182.739 92.600 L 186.310 89.327 173.405 84.689 C 158.704 79.405, 154.112 77.220, 152.623 74.804 C 151.293 72.644, 152.240 68.032, 159.968 39.028 C 163.798 24.652, 165.609 16.209, 164.994 15.594 C 164.466 15.066, 163.854 14.828, 163.635 15.067 C 163.147 15.598, 151.519 52.946, 150.113 58.500 C 149.556 60.700, 148.891 64.975, 148.635 68 C 148.080 74.554, 143.129 95.078, 141.759 96.500 C 141.140 97.143, 140.999 95.717, 141.366 92.500 C 142.483 82.697, 143.282 -0, 142.260 -0 C 141.716 -0, 140.986 2.088, 140.636 4.640 M 149.074 80.760 C 148.525 82.817, 147.409 87.377, 146.593 90.893 L 145.111 97.286 157.305 96.716 C 169.408 96.150, 177.715 94.253, 179.966 91.541 C 180.832 90.498, 178.637 89.372, 169.278 86.063 C 162.800 83.772, 155.829 80.800, 153.786 79.458 L 150.072 77.019 149.074 80.760 M 118 101.290 C 114.491 103.059, 114.391 106.302, 117.676 111.786 C 119.229 114.378, 122.075 119.650, 124 123.500 C 128.063 131.625, 130.563 132.858, 133.747 128.305 C 136.410 124.496, 137.150 121.175, 137.879 109.750 L 138.501 100 129.500 100.015 C 124.280 100.023, 119.450 100.559, 118 101.290 M 135.662 140.308 C 134.748 145.427, 134.018 151.164, 134.040 153.058 L 134.080 156.500 135.530 153.831 C 136.878 151.348, 138.913 131, 137.813 131 C 137.545 131, 136.577 135.188, 135.662 140.308" stroke="none" fill="black" fill-rule="evenodd"/>
</svg>