<svg xmlns="http://www.w3.org/2000/svg" width="200" height="200" viewBox="0 0 200 200" version="1.1">
	<path d="M 145.695 10.079 C 143.138 11.772, 137.031 17.401, 132.123 22.587 L 123.199 32.016 120.553 27.500 C 117.033 21.494, 113.753 19.336, 110.439 20.846 C 109.075 21.467, 107.478 23.218, 106.889 24.738 C 105.477 28.382, 106.523 37.022, 109.103 43.018 L 111.161 47.802 105.739 55.151 C 102.757 59.193, 96.787 67.810, 92.471 74.300 C 84.974 85.575, 84.569 85.998, 83.374 83.800 C 79.892 77.398, 80.277 75.867, 91.976 49.555 C 99.113 33.503, 102.705 24.305, 102.081 23.681 C 101.457 23.057, 100.342 24.301, 98.943 27.180 C 95.632 33.996, 94.429 34.263, 64 34.924 C 39.902 35.448, 37.193 35.681, 34.110 37.500 C 29.787 40.051, 28.874 42.593, 30.541 47.441 C 32.629 53.516, 33.839 54.269, 39.481 53.004 C 47.376 51.235, 65.846 51.635, 72.107 53.712 C 75.439 54.817, 77.500 56.073, 77.500 57 C 77.500 60.784, 55.238 64.591, 43.500 62.813 C 20.470 59.325, 20.889 76.683, 43.938 81.001 C 53.026 82.703, 63.586 80.133, 72.390 74.076 C 78.331 69.988, 78.952 71.857, 74.834 81.433 L 71.687 88.751 66.315 86.376 C 63.285 85.036, 59.003 84, 56.495 84 C 47.655 84, 46.837 91.131, 53.853 107.029 L 57.702 115.751 49.601 112.771 C 40.343 109.365, 26.885 107.921, 23.129 109.931 C 19.361 111.948, 18.639 115.623, 21.039 120.580 C 25.008 128.779, 37.927 134.498, 47.521 132.302 C 49.984 131.739, 52 131.602, 52 131.998 C 52 132.394, 50.676 135.342, 49.059 138.549 C 46.312 143.994, 46.002 146, 47.907 146 C 48.341 146, 49.530 144.151, 50.549 141.891 C 52.294 138.022, 56.439 134.106, 57.581 135.248 C 57.866 135.533, 57.177 138.505, 56.050 141.852 C 53.315 149.970, 53.343 156.343, 56.125 159.125 C 57.578 160.578, 58.377 162.868, 58.650 166.360 C 58.869 169.170, 59.976 173.386, 61.110 175.728 C 66.242 186.328, 77.323 188.672, 109.363 185.934 C 118.754 185.132, 123.277 185.165, 127.668 186.068 C 134.478 187.468, 139.195 187.436, 147.575 185.931 C 170.389 181.833, 164.800 167.937, 138.972 164.540 C 132.096 163.635, 120.291 165.686, 113.138 169.028 C 99.607 175.349, 93.733 171.963, 80.700 150.332 C 74.205 139.552, 67.530 132, 64.497 132 C 62.745 132, 62.656 131.511, 63.964 129.068 C 64.664 127.759, 66.647 127.084, 71.214 126.599 C 74.671 126.232, 83.350 124.744, 90.500 123.294 C 98.281 121.715, 107.044 120.625, 112.327 120.578 C 121.142 120.500, 121.159 120.505, 124.197 123.900 C 127.156 127.206, 127.227 127.519, 126.780 135.236 C 126.337 142.888, 126.407 143.204, 128.726 144.086 C 134.477 146.273, 141.098 144.602, 144.734 140.046 C 146.788 137.472, 148.037 131.555, 149.541 117.279 C 151.617 97.572, 154.357 93.366, 164.429 94.428 C 167.140 94.714, 172.633 96.503, 176.634 98.403 C 183.877 101.843, 183.913 101.849, 184.601 99.680 C 184.982 98.482, 185.310 94.576, 185.330 91.001 C 185.401 78.580, 180.576 74.531, 164.394 73.427 C 159.502 73.093, 154.034 72.375, 152.242 71.830 C 145.549 69.795, 145.358 63.867, 151.435 46.737 C 158.522 26.761, 160.607 13.739, 157.443 9.223 C 155.261 6.106, 151.251 6.399, 145.695 10.079 M 147.946 11.829 C 145.501 13.385, 139.160 19.230, 133.856 24.816 L 124.211 34.974 125.696 40.038 C 126.889 44.109, 127.094 49.850, 126.740 69.301 C 126.284 94.322, 125.731 98.161, 121.740 104.026 C 118.070 109.417, 114.679 111.323, 107.882 111.815 C 98.752 112.475, 91.332 110.544, 89.517 107.033 C 88.716 105.484, 86.326 102.843, 84.207 101.164 L 80.354 98.113 73.677 110.357 C 70.005 117.091, 67 122.974, 67 123.430 C 67 124.593, 77.353 123.289, 91.489 120.346 C 105.817 117.364, 118.190 116.825, 122.410 119 C 127.778 121.767, 129.488 125.289, 129.607 133.822 L 129.714 141.500 133.819 141.806 C 142.296 142.437, 144.384 138.749, 146.534 119.350 C 147.379 111.732, 148.591 103.760, 149.228 101.634 C 150.694 96.738, 155.138 92.252, 159.289 91.476 C 163.296 90.727, 170.863 92.378, 177.100 95.363 L 181.861 97.641 182.417 95.571 C 184.234 88.801, 181.792 80.978, 177.104 78.554 C 175.346 77.645, 169.478 76.602, 163.275 76.095 C 157.349 75.612, 151.229 74.630, 149.675 73.913 C 143.572 71.099, 142.513 63.722, 146.602 52.500 C 154.306 31.354, 157.820 13.220, 154.800 10.200 C 153.169 8.569, 153.010 8.607, 147.946 11.829 M 109.923 25.143 C 108.459 27.880, 109.197 36.351, 111.335 41.351 L 112.982 45.202 117.046 40.061 C 121.581 34.324, 121.575 33.475, 116.959 27.101 C 113.640 22.521, 111.627 21.960, 109.923 25.143 M 87.500 37.096 C 84.750 37.570, 73.050 37.879, 61.500 37.784 C 43.906 37.638, 39.890 37.877, 36.736 39.260 C 32.046 41.315, 31.266 43.237, 33.348 47.604 C 34.937 50.935, 35.095 51.006, 39.240 50.263 C 41.583 49.844, 49.575 49.500, 57 49.500 C 69.400 49.500, 70.907 49.704, 75.500 52 C 81.608 55.054, 82.327 58.334, 77.500 61.119 C 73.129 63.640, 60.167 66.028, 51.778 65.858 C 33.185 65.480, 31.039 65.558, 29.949 66.649 C 26.614 69.989, 33.927 76.249, 43.384 78.148 C 53.431 80.166, 64.656 77.006, 74.160 69.485 C 77.841 66.573, 78.592 66.307, 79.346 67.654 C 80.145 69.082, 85.142 59.070, 93.524 39.250 C 95.055 35.628, 95.371 35.741, 87.500 37.096 M 118.274 42.809 C 115.908 45.753, 114.953 48.305, 114.064 54.059 C 112.314 65.387, 110.193 72.791, 106.460 80.604 C 100.671 92.718, 92.997 97.665, 86.548 93.440 C 84.360 92.006, 84.087 92.023, 83.174 93.653 C 82.358 95.113, 83.313 96.548, 88.558 101.742 C 94.171 107.300, 95.594 108.178, 100.441 109.074 C 110.531 110.939, 117.308 107.679, 121.386 99 C 123.323 94.876, 123.528 92.457, 123.830 70.082 C 124.150 46.354, 123.746 39, 122.122 39 C 121.689 39, 119.957 40.714, 118.274 42.809 M 98.202 70.783 C 91.491 80.723, 86 89.102, 86 89.403 C 86 89.703, 87.261 90.601, 88.803 91.398 C 91.266 92.672, 91.988 92.662, 94.768 91.316 C 98.572 89.473, 103.044 82.779, 106.364 73.956 C 109.029 66.877, 111.468 55.905, 110.814 53.943 C 110.588 53.264, 104.912 60.842, 98.202 70.783 M 76.107 85.198 C 73.870 90.579, 73.863 90.552, 78.148 93.014 C 79.402 93.735, 80.172 93.386, 81.375 91.551 C 82.778 89.409, 82.790 88.826, 81.483 86.320 C 80.674 84.769, 80.010 82.964, 80.006 82.309 C 79.990 79.121, 78.028 80.574, 76.107 85.198 M 53.057 87.432 C 50.984 89.929, 52.327 97.064, 56.500 105.717 L 60.252 113.500 64.492 104.460 C 70.939 90.714, 70.896 91.313, 65.610 89.047 C 58.692 86.082, 54.613 85.557, 53.057 87.432 M 67.245 105.076 C 62.857 115.129, 62.175 117.459, 63.109 119.203 C 64.097 121.049, 63.988 121.230, 62.178 120.757 C 60.883 120.418, 59.913 120.785, 59.541 121.754 C 58.773 123.756, 59.148 124.036, 61.704 123.367 C 63.012 123.025, 65.058 120.460, 67.058 116.657 C 68.839 113.271, 72.088 107.396, 74.278 103.603 L 78.260 96.705 75.880 94.875 C 74.571 93.868, 73.275 93.043, 73 93.041 C 72.725 93.039, 70.135 98.455, 67.245 105.076 M 25 112.230 C 21.677 113.985, 21.418 116.841, 24.208 120.981 C 28.760 127.736, 40.714 131.500, 49.822 129.048 C 53.503 128.057, 54.393 127.278, 55.938 123.694 C 56.932 121.387, 57.561 119.178, 57.336 118.785 C 56.610 117.520, 38.224 112.042, 32.774 111.467 C 29.336 111.104, 26.630 111.370, 25 112.230 M 59 127.842 C 54.732 130.614, 53.614 133.175, 57.064 132.273 C 59.002 131.766, 62.728 127.364, 61.885 126.578 C 61.673 126.380, 60.375 126.949, 59 127.842 M 61.142 135.750 C 59.229 139.355, 57 148.516, 57 152.775 C 57 156.237, 57.401 157.292, 58.862 157.674 C 60.371 158.069, 60.832 159.455, 61.297 165.005 C 61.953 172.826, 63.772 177.002, 67.735 179.782 C 74.130 184.269, 79.532 184.765, 108.548 183.525 C 122.712 182.920, 128.540 183.023, 131.279 183.927 C 137.534 185.991, 157.014 182.023, 159.374 178.204 C 161.568 174.653, 152.833 169.569, 141.516 167.810 C 132.192 166.360, 122.180 167.699, 114.598 171.408 C 107.589 174.837, 104.215 175.404, 99.066 174.018 C 93.105 172.413, 86.803 165.783, 79.094 153.006 C 71.631 140.638, 69.758 138.140, 66.177 135.778 C 62.837 133.576, 62.297 133.573, 61.142 135.750" stroke="none" fill="black" fill-rule="evenodd"/>
</svg>