<svg xmlns="http://www.w3.org/2000/svg" width="200" height="200" viewBox="0 0 200 200" version="1.1">
	<path d="M 143 13.618 C 141.075 14.465, 135.675 16.072, 131 17.190 C 123.727 18.930, 118.063 19.295, 91.750 19.717 C 74.838 19.989, 61 20.546, 61 20.954 C 61 21.926, 78.947 23, 95.195 23 C 110.385 23, 124.350 21.587, 134.318 19.041 C 138.268 18.032, 141.640 17.338, 141.812 17.498 C 141.983 17.659, 138.400 21.902, 133.848 26.928 C 125.984 35.609, 125.420 36.026, 122.536 35.282 C 118.701 34.294, 106.270 34.636, 94.114 36.064 C 78.737 37.871, 64.955 37.516, 59.668 35.177 C 54.438 32.864, 53 30.683, 53 25.066 C 53 22.118, 52.587 21, 51.500 21 C 49.402 21, 49.509 28.360, 51.660 32.001 C 52.573 33.547, 55.160 35.866, 57.410 37.156 C 61.146 39.297, 62.669 39.500, 75 39.500 C 82.425 39.500, 95.069 38.872, 103.098 38.103 C 111.127 37.335, 118.967 37.026, 120.521 37.416 L 123.346 38.125 119.333 42.138 L 115.319 46.151 104.410 47.110 C 98.409 47.637, 84.500 47.941, 73.500 47.784 C 51.907 47.477, 44.438 48.648, 40.544 52.951 C 38.836 54.839, 38.829 55.091, 40.433 57.538 C 46.262 66.435, 80.196 70.479, 96.813 64.257 C 98.266 63.713, 98.315 63.853, 97.167 65.265 C 96.424 66.180, 96.118 67.796, 96.476 68.923 C 97.333 71.626, 94.387 88.352, 92.363 92.265 C 90.813 95.263, 90.698 95.307, 89.330 93.440 C 88.548 92.373, 87.142 89.303, 86.204 86.619 C 84.915 82.926, 83.526 81.116, 80.500 79.187 C 71.343 73.348, 63.022 71.859, 59.987 75.515 C 59.354 76.278, 57.972 80.412, 56.915 84.701 C 54.698 93.704, 51.921 97, 46.550 97 C 41.729 97, 30.718 93.380, 21.602 88.799 L 13.705 84.829 14.370 90.488 C 15.585 100.826, 19.531 107.082, 27.500 111.301 C 32.951 114.187, 49.892 114.746, 68.054 112.639 C 93.916 109.638, 94.907 109.594, 95.601 111.403 C 95.946 112.301, 95.694 114.324, 95.042 115.899 C 94.045 118.306, 93.112 118.860, 89.178 119.382 C 81.304 120.427, 72.458 125.333, 65.052 132.762 C 57.547 140.290, 55 145.794, 55 154.482 C 55 165.023, 64.807 177.530, 76.525 181.933 C 96.934 189.602, 124.664 185.141, 135.893 172.384 C 141.131 166.434, 143.214 159.919, 143.330 149.135 C 143.501 133.169, 138.149 127.505, 120.500 124.974 C 107.618 123.126, 99.406 118.229, 100.168 112.848 C 100.497 110.521, 100.633 110.497, 115.500 110.161 C 123.750 109.974, 141.687 110.370, 155.361 111.040 C 183.028 112.396, 181.362 112.742, 182.460 105.419 C 183.293 99.865, 181.121 94.631, 177.128 92.566 C 172.961 90.412, 163.580 90.573, 147.683 93.074 C 134.291 95.180, 128.092 95.151, 125.461 92.967 C 123.704 91.509, 123.581 87.499, 125.156 82.983 C 126.240 79.873, 126.116 79.493, 123.156 76.848 C 121.420 75.297, 120.002 73.684, 120.005 73.264 C 120.008 72.844, 121.074 70.743, 122.374 68.595 L 124.738 64.690 130.454 72.847 C 138.733 84.662, 142.596 84.849, 149.980 73.791 C 157.074 63.168, 161.162 48.633, 161.373 33.281 C 161.486 25.074, 161.263 23.824, 159.341 21.899 C 153.896 16.447, 145.030 24.873, 130.039 49.750 C 124.078 59.642, 122.778 61.067, 121.542 59.068 C 121.225 58.555, 118.471 57.578, 115.422 56.895 L 109.879 55.655 113.189 52.380 C 115.013 50.577, 118.932 48.296, 121.915 47.303 C 128.101 45.243, 130.106 43.001, 128.320 40.140 C 127.300 38.507, 128.527 36.760, 138.146 26.153 C 150.202 12.856, 151.326 9.955, 143 13.618 M 151.153 25.525 C 147.108 28.928, 139.521 39.334, 132.074 51.691 L 125.933 61.883 132.015 70.441 C 139.342 80.751, 141.278 81.344, 146.087 74.750 C 153.346 64.795, 157.717 51.368, 158.716 35.959 C 159.530 23.391, 157.317 20.338, 151.153 25.525 M 122.500 43 C 121.505 44.100, 121.014 45, 121.411 45 C 122.838 45, 126 42.909, 126 41.965 C 126 40.396, 124.439 40.857, 122.500 43 M 109.820 49.513 C 109.538 49.796, 96.300 50.180, 80.403 50.368 C 52.932 50.692, 47.269 51.234, 43.040 53.943 C 41.782 54.748, 41.822 55.146, 43.329 56.811 C 47.855 61.812, 73.340 66.376, 85.302 64.327 C 95.293 62.615, 108.441 55.782, 111.022 50.959 C 111.960 49.206, 111.129 48.205, 109.820 49.513 M 106.500 59.954 C 104.387 60.828, 99.364 65.784, 100.079 66.289 C 100.311 66.452, 103.650 67.515, 107.500 68.652 C 111.350 69.788, 115.192 71.018, 116.038 71.385 C 117.166 71.873, 118.167 70.835, 119.788 67.499 C 121.005 64.995, 122 62.782, 122 62.582 C 122 62.381, 120.191 61.493, 117.980 60.609 C 113.634 58.870, 109.668 58.644, 106.500 59.954 M 98.697 80.290 C 96.633 93.039, 96.408 107, 98.265 107 C 99.248 107, 106.333 94.001, 115.775 74.875 C 116.205 74.004, 108.811 71.153, 104.212 70.418 L 100.393 69.807 98.697 80.290 M 62.185 77.277 C 61.602 77.979, 60.365 81.896, 59.436 85.980 C 56.628 98.329, 51.155 101.677, 38.870 98.562 C 35.367 97.673, 29.191 95.384, 25.146 93.473 C 21.102 91.563, 17.564 90, 17.285 90 C 16.127 90, 18.324 97.802, 20.573 101.676 C 22.379 104.787, 24.464 106.570, 28.749 108.669 C 34.100 111.290, 35.300 111.478, 46 111.377 C 52.325 111.317, 62.881 110.533, 69.458 109.634 C 76.036 108.735, 83.761 108, 86.627 108 C 94.286 108, 94.550 107.778, 94.166 101.645 C 93.858 96.717, 93.660 96.342, 91.574 96.741 C 88.567 97.316, 86.430 94.997, 84.274 88.822 C 82.363 83.345, 78.626 80.191, 70.760 77.415 C 65.795 75.664, 63.554 75.628, 62.185 77.277 M 110.655 90.825 C 106.445 99.058, 103 105.993, 103 106.236 C 103 106.479, 115.713 107.016, 131.250 107.428 C 146.787 107.841, 163.775 108.504, 169 108.902 C 174.225 109.301, 178.678 109.495, 178.895 109.335 C 179.112 109.175, 179.496 106.892, 179.749 104.261 C 180.327 98.245, 178.192 95.280, 172.334 93.964 C 168.101 93.013, 163.378 93.421, 143.500 96.458 C 125.357 99.231, 118.820 95.554, 121.921 84.324 C 122.863 80.911, 122.731 80.276, 120.641 78.187 L 118.311 75.856 110.655 90.825 M 97 117.819 C 97 119.027, 98.897 120.436, 99.591 119.743 C 99.842 119.491, 99.362 118.716, 98.524 118.020 C 97.574 117.231, 97 117.155, 97 117.819 M 83.906 123.464 C 74.034 127.099, 64.458 135.189, 60.288 143.418 C 58.187 147.564, 57.854 149.406, 58.175 155.090 C 58.508 160.989, 59.051 162.556, 62.484 167.541 C 69.249 177.364, 78.710 181.766, 95 182.671 C 111.663 183.596, 125.916 179.154, 133.829 170.570 C 138.809 165.167, 140.285 160.214, 140.407 148.500 C 140.560 133.690, 137.484 130.600, 119.570 127.573 C 114.109 126.651, 109.159 125.628, 108.570 125.301 C 107.982 124.974, 109.138 126.460, 111.140 128.603 C 116.316 134.145, 118.143 138.325, 118.143 144.625 C 118.143 151.497, 115.191 157.825, 109.854 162.393 C 100.378 170.504, 88.870 168.677, 83.651 158.232 C 79.359 149.643, 79.400 149.237, 85.985 135.367 C 89.293 128.400, 92 122.542, 92 122.349 C 92 121.572, 87.280 122.222, 83.906 123.464 M 89.154 135.074 C 85.769 142.265, 83.004 148.677, 83.010 149.324 C 83.037 152.580, 88.162 161.128, 91.195 162.978 C 95.262 165.457, 98.311 165.496, 103.509 163.135 C 114.127 158.311, 118.625 145.911, 113.413 135.831 C 110.698 130.582, 100.014 122, 96.194 122 C 95.706 122, 92.538 127.883, 89.154 135.074" stroke="none" fill="black" fill-rule="evenodd"/>
</svg>