<svg xmlns="http://www.w3.org/2000/svg" width="200" height="200" viewBox="0 0 200 200" version="1.1">
	<path d="M 161.005 16.250 C 159.195 17.488, 156.091 21.294, 154.107 24.709 C 152.123 28.124, 150.275 30.920, 150 30.921 C 149.725 30.923, 148.345 29.254, 146.932 27.212 C 141.990 20.066, 127.026 14.516, 119.448 17.017 C 112.394 19.345, 116.821 24.939, 129.483 29.699 C 137.997 32.900, 137.512 31.950, 138.550 47.447 L 139.216 57.393 132.358 78.696 C 126.371 97.292, 125.239 99.999, 123.446 99.999 C 121.317 100, 112.753 95.027, 111.560 93.098 C 111.187 92.494, 109.446 91.997, 107.691 91.994 C 105.936 91.991, 102.813 91.520, 100.750 90.947 C 94.887 89.319, 95.751 87.004, 106.192 76.357 C 117.646 64.678, 116.939 62.482, 103.396 67.678 C 101.526 68.396, 101.630 67.028, 104.052 59.054 C 105.947 52.817, 106.293 52.333, 108.558 52.766 C 113.405 53.693, 114.081 51.850, 113.940 38.099 C 113.806 25.105, 112.670 18.598, 110.655 19.297 C 109.910 19.556, 109.619 21.697, 109.835 25.339 C 110.125 30.223, 107.608 41.219, 105.259 45.328 C 104.999 45.783, 103.216 43.824, 101.297 40.974 C 98.955 37.497, 97.476 36.124, 96.801 36.799 C 96.125 37.475, 97.140 39.788, 99.886 43.832 L 103.979 49.859 101.928 56.679 C 100.800 60.431, 99.439 64.904, 98.904 66.620 C 98.048 69.363, 96.906 70.137, 89.465 73.013 C 82.110 75.857, 81 76.600, 81 78.683 C 81 81.978, 77.624 88.303, 73.328 93.059 C 68.656 98.230, 56.590 106.261, 49.516 108.908 C 44.362 110.837, 37 111.744, 37 110.450 C 37 107.125, 48.720 94.873, 61.292 85.055 C 65.027 82.138, 67.948 79.345, 67.783 78.848 C 67.617 78.350, 62.310 77.844, 55.991 77.722 C 46.459 77.538, 43.903 77.149, 41 75.444 C 36.637 72.881, 36.588 71.194, 40.794 68.360 C 45.329 65.304, 55.780 63.110, 72.159 61.778 C 80.972 61.061, 86 60.248, 86 59.540 C 86 58.928, 79.813 57.027, 72.250 55.316 C 57.002 51.864, 48.250 48.877, 44.791 45.944 C 42.579 44.068, 42.564 43.952, 44.360 42.560 C 47.220 40.344, 55.160 38.953, 70.500 37.980 C 78.200 37.492, 84.612 37.072, 84.750 37.047 C 84.888 37.021, 85 36.484, 85 35.853 C 85 35.016, 81.151 34.869, 70.750 35.311 C 45.545 36.379, 34.957 40.993, 42.250 47.730 C 45.330 50.575, 50.638 52.672, 63 55.926 L 73.500 58.691 66 59.411 C 56.118 60.360, 45.401 62.791, 40.765 65.136 C 28.678 71.250, 34.986 79.472, 52.817 80.844 L 61.347 81.500 54.374 87.200 C 45.470 94.477, 36.299 104.082, 35.006 107.485 C 34.310 109.316, 34.340 110.767, 35.104 112.195 C 36.809 115.380, 45.051 114.125, 55.285 109.120 C 69.906 101.971, 79.542 92.654, 83.060 82.264 C 84.532 77.916, 84.975 77.524, 90.929 75.298 C 95.938 73.424, 97.119 73.249, 96.660 74.444 C 95.478 77.524, 92 97.234, 92 100.851 C 92 102.913, 91.512 105.088, 90.915 105.685 C 89.157 107.443, 92.435 112.515, 97.645 116.100 C 102.319 119.316, 113.897 123.940, 117.372 123.979 C 118.923 123.996, 119.031 124.258, 118 125.500 C 116.428 127.394, 112.562 127.394, 102.662 125.500 C 98.351 124.675, 92.861 124, 90.461 124 C 74.577 124, 64.631 132.938, 73.323 139.401 C 77.643 142.614, 89.883 142.792, 101.500 139.810 C 112.279 137.044, 115.384 137.167, 114.431 140.325 C 113.406 143.724, 112.610 144.108, 109.117 142.891 C 107.325 142.266, 104.037 142, 101.809 142.299 C 95.233 143.181, 88.146 151.345, 84.393 162.361 C 82.844 166.907, 82.864 167.092, 85.386 171.396 C 92.546 183.613, 110.163 190.311, 128.942 187.954 C 148.323 185.521, 159.018 173.552, 153.536 160.431 C 150.558 153.305, 145.910 148.051, 141.574 146.910 C 132.243 144.453, 129.783 140.004, 137.750 139.994 C 144.708 139.985, 161.334 137.305, 165.672 135.492 C 170.123 133.633, 173 131.214, 173 129.330 C 173 127.296, 167.169 124.144, 162.033 123.404 C 159.540 123.044, 154.235 121.393, 150.244 119.734 C 144.780 117.462, 142.479 115.893, 140.924 113.377 C 138.401 109.294, 134.200 106.190, 130.084 105.367 C 128.388 105.028, 127 104.469, 127 104.125 C 127 103.781, 128.627 102.202, 130.616 100.615 C 132.605 99.028, 135.102 95.763, 136.165 93.359 C 138.728 87.566, 141 75.367, 141 67.401 C 141 62.422, 141.818 58.841, 144.642 51.464 C 146.645 46.231, 148.428 42.095, 148.605 42.272 C 148.782 42.448, 148.240 45.047, 147.401 48.047 C 145.040 56.490, 144.507 74.101, 146.351 82.759 C 149.184 96.064, 156.395 108, 161.601 108 C 166.038 108, 169.993 102.455, 172.026 93.383 C 173.503 86.794, 175.978 59.240, 175.968 49.500 C 175.952 33.454, 172.759 19.529, 168.289 16.013 C 165.103 13.507, 165.013 13.510, 161.005 16.250 M 160.418 20.518 C 155.196 26.055, 151.726 33.564, 151.416 40 C 151.270 43.025, 150.442 48.182, 149.575 51.460 C 147.309 60.036, 147.507 75.753, 150.005 85.520 C 153.870 100.632, 160.689 108.572, 165.111 103.111 C 169.422 97.788, 171.579 84.304, 172.564 56.544 C 173.394 33.137, 170.744 19.081, 165.149 17.216 C 164.472 16.991, 162.343 18.477, 160.418 20.518 M 119.459 20.067 C 119.096 20.653, 119.632 21.769, 120.650 22.546 C 122.570 24.011, 137.217 30, 138.882 30 C 139.709 30, 140.327 34.688, 141.256 48 C 141.482 51.246, 141.746 50.896, 144.896 43.167 C 148.200 35.059, 148.248 34.743, 146.675 31.445 C 144.628 27.151, 138.132 22.414, 131.655 20.490 C 125.776 18.744, 120.392 18.557, 119.459 20.067 M 108.812 43.910 C 107.497 48.021, 107.443 49.123, 108.515 50.012 C 109.234 50.609, 110.034 50.738, 110.293 50.299 C 111.466 48.312, 112 43.174, 111.246 41.136 C 110.511 39.148, 110.233 39.464, 108.812 43.910 M 104.020 70.409 C 101.145 71.447, 100.320 72.426, 99.271 76.047 L 98.003 80.429 103.728 74.964 C 106.877 71.959, 109.652 69.388, 109.893 69.250 C 111.209 68.502, 107.002 69.332, 104.020 70.409 M 134.620 80.119 C 133.036 85.278, 131.145 91.412, 130.418 93.750 C 129.691 96.088, 129.441 98, 129.864 98 C 131.521 98, 135.074 89.855, 136.569 82.629 C 138.985 70.945, 137.875 69.516, 134.620 80.119 M 95.639 92.694 C 95.288 93.046, 95 95.407, 95 97.941 L 95 102.549 102.750 103.984 C 111.277 105.563, 122.744 105.656, 124.241 104.159 C 124.850 103.550, 124.069 102.954, 122.094 102.521 C 120.387 102.146, 116.686 100.254, 113.869 98.316 C 110.439 95.956, 107.048 94.563, 103.598 94.094 C 100.766 93.710, 97.961 93.094, 97.364 92.725 C 96.767 92.356, 95.991 92.342, 95.639 92.694 M 96 106.965 C 96 108.775, 100.010 110.089, 103.525 109.429 C 108.370 108.520, 108.660 107.371, 104.230 106.639 C 98.844 105.748, 96 105.861, 96 106.965 M 121.500 108 C 121.160 108.550, 121.359 109, 121.941 109 C 122.523 109, 123 108.550, 123 108 C 123 107.450, 122.802 107, 122.559 107 C 122.316 107, 121.840 107.450, 121.500 108 M 126.575 107.758 C 126.259 108.074, 126 108.702, 126 109.153 C 126 110.051, 131.885 112.712, 135.942 113.649 L 138.500 114.239 135.971 111.613 C 133.470 109.017, 127.689 106.645, 126.575 107.758 M 111.500 110.255 C 109.850 110.753, 105.800 111.471, 102.500 111.849 L 96.500 112.537 104.092 116.342 C 108.268 118.435, 113.489 120.390, 115.695 120.686 L 119.706 121.224 120.898 116.490 C 121.554 113.887, 121.957 111.671, 121.795 111.566 C 119.775 110.259, 113.943 109.517, 111.500 110.255 M 124.708 113.682 C 124.436 114.132, 123.735 116.248, 123.150 118.385 L 122.086 122.271 127.293 121.731 C 132.443 121.197, 138 119.280, 138 118.037 C 138 117.684, 135.637 116.560, 132.750 115.538 C 129.863 114.517, 126.983 113.498, 126.351 113.273 C 125.719 113.048, 124.980 113.232, 124.708 113.682 M 138 121.609 L 133.500 123.894 142 124.197 C 152.117 124.558, 152.949 125.876, 145.977 130.500 C 135.385 137.526, 135.445 137.161, 145 136.503 C 156.549 135.708, 170 132.142, 170 129.875 C 170 128.528, 166.297 126.987, 160.470 125.910 C 157.425 125.347, 152.135 123.635, 148.716 122.105 L 142.500 119.325 138 121.609 M 129.750 124.662 C 130.438 124.940, 131.563 124.940, 132.250 124.662 C 132.938 124.385, 132.375 124.158, 131 124.158 C 129.625 124.158, 129.063 124.385, 129.750 124.662 M 121.750 125.662 C 122.438 125.940, 123.563 125.940, 124.250 125.662 C 124.938 125.385, 124.375 125.158, 123 125.158 C 121.625 125.158, 121.063 125.385, 121.750 125.662 M 134.500 127.088 C 120.825 128.494, 120.226 128.694, 119.477 132.103 C 119.110 133.775, 119.087 135.420, 119.426 135.759 C 119.765 136.098, 122.757 136.572, 126.075 136.812 C 131.110 137.176, 132.470 136.915, 134.303 135.233 C 135.512 134.125, 138.863 131.780, 141.750 130.023 C 144.637 128.266, 147 126.642, 147 126.414 C 147 125.909, 144.837 126.026, 134.500 127.088 M 79.741 128.429 C 74.683 130.234, 72.844 131.914, 73.202 134.403 C 73.920 139.410, 87.289 140.655, 101.410 137.030 C 105.760 135.914, 110.770 135, 112.543 135 C 115.041 135, 115.903 134.493, 116.370 132.750 C 117.274 129.375, 117.227 129.313, 114.089 129.774 C 112.488 130.009, 108.012 129.481, 104.142 128.600 C 95.664 126.672, 84.877 126.597, 79.741 128.429 M 116.581 142.422 C 115.998 145.528, 116.335 146.638, 118.814 149.790 C 125.202 157.907, 127.971 167.629, 124.800 170.800 C 122.724 172.876, 117.582 172.121, 112.696 169.022 C 110.113 167.384, 108 165.793, 108 165.486 C 108 165.179, 108.972 161.053, 110.160 156.317 C 112.255 147.963, 112.264 147.666, 110.468 146.353 C 108.035 144.574, 101.621 144.628, 98.082 146.458 C 94.772 148.169, 89.627 155.804, 87.422 162.276 C 86.029 166.364, 86.024 167.147, 87.382 169.772 C 93.002 180.639, 112.091 187.712, 129.018 185.200 C 142.966 183.130, 152 176.298, 152 167.820 C 152 159.575, 146.371 151.049, 139.761 149.281 C 134.443 147.859, 130 144.511, 130 141.927 C 130 140.715, 129.310 140, 128.140 140 C 127.116 140, 124.251 139.722, 121.773 139.382 L 117.267 138.765 116.581 142.422 M 114.679 150.711 C 114.404 151.155, 113.430 154.412, 112.514 157.948 L 110.848 164.377 113.174 166.187 C 116.348 168.656, 121.195 169.944, 122.750 168.730 C 124.672 167.231, 124.269 164.857, 120.971 158.258 C 117.866 152.044, 115.562 149.281, 114.679 150.711" stroke="none" fill="black" fill-rule="evenodd"/>
</svg>