<svg xmlns="http://www.w3.org/2000/svg" width="200" height="200" viewBox="0 0 200 200" version="1.1">
	<path d="M 128.607 10.582 C 127.702 12.939, 127.872 14.197, 129 13.500 C 129.652 13.097, 130 18.811, 130 29.906 C 130 46.090, 129.898 46.984, 127.933 48.036 C 124.017 50.132, 119.446 45.805, 111.890 32.851 C 107.352 25.071, 107.255 24.983, 105.768 27.223 C 104.268 29.484, 104.053 29.504, 74.875 30.050 C 48.454 30.544, 45.090 30.796, 41.496 32.550 C 37.093 34.699, 36.061 37.345, 38.395 40.507 C 39.497 42, 40.155 42.215, 41.020 41.363 C 41.841 40.554, 41.861 40.032, 41.087 39.554 C 40.489 39.184, 40 38.249, 40 37.476 C 40 34.163, 44.214 33.598, 74 32.910 C 90.225 32.536, 104.400 31.940, 105.500 31.586 C 107.157 31.052, 108.100 31.992, 111 37.070 C 115.851 45.563, 121.905 51, 126.512 51 L 130.069 51 129.399 56.250 C 129.031 59.138, 128.678 61.573, 128.615 61.662 C 128.552 61.750, 126.065 61.379, 123.089 60.837 C 116.711 59.675, 106.650 61.107, 101.102 63.967 C 94.857 67.187, 87 77.503, 87 82.483 C 87 85.051, 79.402 92.502, 71.195 97.981 C 59.940 105.494, 42.175 114.113, 36.664 114.734 C 31.664 115.298, 31.380 115.052, 33.145 111.684 C 35.933 106.363, 40.820 101.550, 49.328 95.744 C 60.431 88.169, 68 81.099, 68 78.305 C 68 75.366, 64.262 74.260, 51.982 73.563 C 35.111 72.607, 30 70.258, 30 63.461 C 30 61.557, 30.203 60, 30.451 60 C 30.699 60, 33.494 60.675, 36.661 61.500 C 47.571 64.341, 64.207 63.065, 72.500 58.751 C 75.853 57.006, 79.386 53.395, 80.314 50.763 C 81.415 47.644, 77.033 43.871, 71.599 43.258 C 64.538 42.462, 50 44.792, 50 46.720 C 50 47.860, 50.678 48.075, 52.750 47.590 C 58.432 46.262, 72.533 45.814, 75.250 46.876 C 78.916 48.308, 78.716 50.164, 74.496 53.870 C 67.406 60.094, 50.757 62.117, 36.125 58.531 C 32.154 57.558, 28.649 57.018, 28.335 57.331 C 28.022 57.645, 27.549 59.836, 27.285 62.201 C 26.907 65.589, 27.268 67.087, 28.991 69.270 C 32.643 73.899, 36.264 75.071, 50.339 76.183 C 57.578 76.755, 63.950 77.660, 64.500 78.194 C 65.841 79.496, 58.689 85.940, 47.080 93.891 C 34.180 102.726, 26.364 113.568, 30.450 116.958 C 33.071 119.134, 40.476 117.404, 51.892 111.951 C 71.540 102.566, 87.984 90.066, 89.617 83.275 C 91.447 75.663, 97.497 68.354, 104.325 65.506 C 109.621 63.297, 119.611 62.531, 124.796 63.937 L 129.093 65.102 128.796 71.301 L 128.500 77.500 117.667 79.627 C 96.970 83.692, 96.835 86.236, 117.015 92.004 C 122.654 93.616, 127.545 95.212, 127.884 95.551 C 129.052 96.719, 128.408 138.396, 127.096 146.500 C 125.471 156.539, 124.805 157.872, 123.049 154.591 L 121.719 152.106 117.485 156.463 C 111.904 162.204, 107.887 164.159, 100.440 164.757 C 93.581 165.307, 88.154 163.932, 85.466 160.962 C 83.773 159.091, 83.772 158.910, 85.444 157.062 C 87.688 154.582, 95.098 153, 104.466 153 L 111.834 153 112.917 147.951 C 115.594 135.467, 113.380 124.875, 107.125 120.250 C 100.704 115.503, 95.286 114.657, 75.656 115.335 C 65.670 115.680, 54.675 116.259, 51.223 116.622 C 45.174 117.259, 45.007 117.351, 46.635 119.149 C 48.576 121.294, 59.968 128.623, 71.250 134.986 C 75.513 137.390, 79 139.788, 79 140.314 C 79 140.903, 73.238 141.087, 64.038 140.791 L 49.076 140.311 48.409 144.760 C 45.433 164.604, 60.343 183.499, 80.655 185.622 C 87.287 186.315, 95.396 184.469, 101.474 180.883 L 104.986 178.811 108.070 181.405 C 113.646 186.097, 118.570 184.344, 130 173.595 C 136.935 167.074, 141.166 164.100, 145.122 162.965 C 152.295 160.908, 159.319 167.857, 165.151 182.780 C 169.345 193.510, 170.501 191.923, 170.454 175.500 C 170.415 161.578, 168.368 152.849, 161.913 139.074 C 158.196 131.142, 148.028 115.087, 142.632 108.630 L 140.234 105.761 138.996 109.630 C 138.315 111.759, 136.840 115.677, 135.718 118.338 C 134.085 122.211, 133.497 122.852, 132.769 121.552 C 131.879 119.962, 132.793 97, 133.746 97 C 134.007 97, 136.899 98.428, 140.174 100.173 C 146.161 103.364, 149.006 106.915, 148.250 110.250 C 146.989 115.812, 157.103 106.201, 160.640 98.476 C 165.473 87.918, 166.177 81.139, 165.824 48.575 L 165.500 18.651 161.600 15.825 C 150.454 7.751, 142.198 15.860, 136.985 40 C 135.976 44.675, 134.836 51.200, 134.453 54.500 C 133.408 63.496, 132.066 64.690, 132.030 56.655 C 132.012 52.469, 132.820 47.110, 134.112 42.858 C 137.803 30.704, 135.510 9, 130.534 9 C 129.808 9, 128.941 9.712, 128.607 10.582 M 147.571 19.319 C 143.293 24.927, 139.165 39.281, 136.956 56.227 C 135.879 64.488, 135.930 65.096, 137.909 67.612 C 140.663 71.113, 140.548 72.550, 137.256 75.795 C 134.791 78.225, 134.480 79.315, 134.194 86.500 L 133.875 94.500 139.430 96.870 C 142.525 98.191, 146.516 100.935, 148.443 103.069 L 151.902 106.898 154.922 102.791 C 162.205 92.888, 164.194 79.027, 163.305 44.358 L 162.679 19.907 159.935 17.954 C 158.426 16.879, 155.596 16, 153.647 16 C 150.807 16, 149.598 16.661, 147.571 19.319 M 133.272 28 C 133.272 30.475, 133.467 31.488, 133.706 30.250 C 133.944 29.012, 133.944 26.988, 133.706 25.750 C 133.467 24.512, 133.272 25.525, 133.272 28 M 132.195 68.500 C 132.215 70.150, 132.439 70.704, 132.693 69.731 C 132.947 68.758, 132.930 67.408, 132.656 66.731 C 132.382 66.054, 132.175 66.850, 132.195 68.500 M 135 71.500 C 135 72.991, 135.431 73.852, 136 73.500 C 136.550 73.160, 137 72.260, 137 71.500 C 137 70.740, 136.550 69.840, 136 69.500 C 135.431 69.148, 135 70.009, 135 71.500 M 116.500 82.633 C 106.148 84.464, 105.001 84.864, 107 85.948 C 109.287 87.188, 127.174 92.160, 127.647 91.687 C 127.875 91.458, 128.336 88.960, 128.670 86.136 C 129.381 80.138, 129.846 80.272, 116.500 82.633 M 138.579 118.579 C 136.633 123.046, 134.956 125.446, 133.356 126.055 C 131.299 126.837, 130.996 127.619, 130.969 132.225 C 130.930 138.943, 129.305 151.546, 127.948 155.657 C 126.747 159.297, 124.574 160.530, 122.767 158.596 C 121.738 157.494, 120.783 157.863, 117.315 160.705 C 106.146 169.857, 88.181 170.310, 82.463 161.584 C 80.872 159.156, 80.872 158.844, 82.463 156.416 C 84.925 152.658, 90.150 150.890, 100.647 150.264 L 109.921 149.711 110.672 145.105 C 114.512 121.566, 103.520 114.970, 66 118.298 L 51.500 119.584 59 124.361 C 63.125 126.988, 69.987 131.143, 74.250 133.593 C 79.849 136.812, 82 138.604, 82 140.049 C 82 143.428, 77.710 144.272, 63.750 143.641 L 51 143.065 51.001 150.283 C 51.002 159.494, 54.561 167.537, 61.424 173.839 C 68.656 180.481, 73.883 182.481, 84 182.478 C 92.858 182.476, 98.413 180.598, 103.603 175.851 C 105.696 173.937, 105.721 173.945, 108.404 177.463 C 112.989 183.475, 116.115 182.550, 128 171.665 C 140.696 160.036, 147.482 157.557, 154.650 161.928 C 158.058 164.006, 162.904 170.484, 166.115 177.254 L 168.129 181.500 167.671 171.464 C 166.924 155.112, 160.067 137.750, 147.049 119.250 C 144.244 115.263, 141.835 112, 141.696 112 C 141.558 112, 140.155 114.961, 138.579 118.579" stroke="none" fill="black" fill-rule="evenodd"/>
</svg>