<svg xmlns="http://www.w3.org/2000/svg" width="200" height="200" viewBox="0 0 200 200" version="1.1">
	<path d="M 145.750 13.600 C 141.748 14.830, 141 15.452, 141 17.547 L 141 20.034 136.033 17.517 C 126.111 12.489, 116.476 14.935, 117.191 22.302 C 117.478 25.262, 117.824 25.532, 122.097 26.138 C 137.279 28.292, 142.197 39.899, 138.997 66.023 L 137.730 76.364 135.847 72.693 C 134.811 70.674, 129.207 58.329, 123.393 45.261 C 117.580 32.192, 112.231 20.884, 111.508 20.132 C 108.758 17.272, 108.383 20.091, 110.625 26.775 C 115.257 40.586, 115.953 54.212, 112.524 63.932 C 111.213 67.647, 111.377 69, 113.139 69 C 114.953 69, 117.155 57.637, 117.136 48.368 C 117.125 43.096, 117.263 38.944, 117.441 39.142 C 117.620 39.339, 122.009 48.950, 127.193 60.500 L 136.620 81.500 136.197 92.257 C 135.784 102.728, 135.694 103.080, 132.810 105.507 C 131.136 106.915, 128.580 108, 126.936 108 C 123.563 108, 121.810 105.577, 115.356 92 C 113.133 87.325, 110.090 82.051, 108.593 80.279 C 105.407 76.509, 100.267 74.776, 95.945 76.016 C 89.228 77.942, 81.764 84.347, 80.634 89.154 C 78.902 96.524, 65.092 108.724, 49.648 116.527 C 41.469 120.660, 34 122.389, 34 120.150 C 34 117.309, 44.812 105.974, 53.684 99.514 C 58.460 96.036, 62 91.259, 62 88.292 C 62 83.305, 51.757 78.293, 35.739 75.443 C 33.670 75.074, 31.772 74.440, 31.521 74.034 C 31.269 73.627, 35.437 72.288, 40.782 71.059 C 56.279 67.497, 69.246 63.924, 72.170 62.412 C 79.425 58.660, 76.542 56.635, 58.975 53.145 C 42.370 49.846, 36.993 47.926, 37.015 45.301 C 37.052 41.022, 37.561 40.936, 64.082 40.713 C 88.269 40.510, 89.727 40.605, 94.179 42.662 C 101.799 46.184, 103.622 52.315, 100.518 63.980 C 99.708 67.025, 99.441 69.841, 99.917 70.317 C 101.076 71.476, 101.690 70.287, 103.479 63.419 C 105.495 55.680, 105.398 52.453, 103 47.500 C 98.756 38.732, 89.254 36.663, 57.876 37.676 C 38.156 38.312, 37.867 38.354, 35.946 40.795 C 33.400 44.033, 33.489 46.171, 36.278 48.792 C 39.409 51.733, 44.428 53.334, 58.757 55.965 C 65.499 57.202, 71.240 58.579, 71.515 59.024 C 72.179 60.099, 65.316 62.286, 49.500 66.040 C 30.771 70.485, 27 71.815, 27 73.973 C 27 76.165, 27.870 76.523, 39.430 79.088 C 61.614 84.010, 64.295 88.694, 50.545 98.505 C 43.194 103.751, 34.288 113.086, 32.439 117.483 C 29.235 125.102, 36.228 125.963, 49.629 119.599 C 64.632 112.474, 77.882 101.170, 82.384 91.654 C 85.961 84.093, 93.774 78, 99.891 78 C 103.841 78, 108.196 83.249, 113.640 94.571 C 119.542 106.847, 122.893 111.002, 126.886 110.996 C 131.908 110.989, 140.248 103.828, 138.510 101.016 C 138.145 100.426, 138.168 96.947, 138.560 93.285 L 139.273 86.627 140.759 90.351 C 143.813 98.008, 137.441 119.559, 130.675 124.455 C 125.324 128.328, 118.257 126.970, 99 118.370 C 87.787 113.363, 78.351 112.573, 73.015 116.195 C 66.364 120.708, 64.965 128.119, 69.842 132.996 C 75.300 138.453, 82.921 139.149, 120.250 137.593 C 140.566 136.747, 142 136.802, 142 138.421 C 142 141.348, 136.610 145.740, 130.915 147.454 C 123.542 149.672, 105.595 150.814, 87.362 150.224 C 79.036 149.956, 70.598 150.040, 68.612 150.413 C 65.091 151.074, 65 151.205, 65 155.645 C 65 159.468, 65.532 160.732, 68.310 163.510 C 70.203 165.403, 73.518 167.332, 76.053 168.014 C 82.712 169.807, 98.805 169.379, 114.500 166.990 C 122.200 165.818, 131.017 164.610, 134.093 164.305 L 139.687 163.751 142.358 172.320 C 149.619 195.607, 162.898 192.690, 171.133 166 C 172.949 160.112, 173.450 156.136, 173.463 147.500 L 173.480 136.500 168.427 127 C 163.982 118.643, 163.070 117.520, 160.846 117.667 C 158.734 117.806, 157.732 116.818, 154.758 111.667 C 152.800 108.275, 149.996 103.088, 148.527 100.141 L 145.855 94.781 145.606 62.141 L 145.357 29.500 147.262 33.853 C 150.045 40.218, 150.477 47.399, 148.618 56.392 C 144.366 76.949, 148.546 103.233, 157.227 110.537 C 161.829 114.410, 165.452 112.829, 169.062 105.373 C 173.586 96.027, 175.078 87.486, 176.027 65.500 C 177.313 35.730, 175.722 24.579, 169.197 17.627 C 163.917 12.002, 155.595 10.573, 145.750 13.600 M 146.750 16.162 C 144.510 16.980, 144 17.777, 144 20.461 C 144 22.273, 144.616 24.267, 145.370 24.892 C 146.123 25.517, 148.007 28.835, 149.556 32.265 C 151.903 37.464, 152.366 39.829, 152.340 46.500 C 152.323 50.900, 151.712 56.525, 150.982 59 C 149.156 65.190, 149.375 83.839, 151.372 92.259 C 153.448 101.011, 157.337 108.655, 160.171 109.554 C 163.135 110.495, 166.182 106.636, 168.820 98.597 C 171.915 89.169, 172.793 82.095, 173.487 61 C 174.663 25.246, 170.574 14.875, 155.382 15.079 C 152.147 15.122, 148.262 15.610, 146.750 16.162 M 123 17.662 C 121.413 18.263, 119 20.918, 119 22.063 C 119 22.438, 120.841 23.039, 123.092 23.399 C 127.862 24.162, 133.778 26.989, 136.195 29.662 C 137.127 30.692, 138.805 33.553, 139.923 36.018 L 141.956 40.500 141.978 33.473 C 141.993 28.683, 141.501 25.733, 140.434 24.209 C 137.560 20.106, 127.010 16.144, 123 17.662 M 141.142 70.931 C 140.026 80.481, 140.057 82.219, 141.392 84.681 C 142.826 87.328, 142.922 86.659, 142.960 73.750 C 142.982 66.188, 142.869 60, 142.710 60 C 142.550 60, 141.845 64.919, 141.142 70.931 M 143.541 102.658 C 142.492 109.766, 139.181 119.037, 136.363 122.751 C 130.732 130.174, 122.301 130.987, 109 125.389 C 91.920 118.200, 83.578 115.669, 79.492 116.435 C 73.896 117.485, 69.794 121.983, 70.189 126.635 C 70.906 135.084, 78.750 136.716, 110.500 135.018 C 123.150 134.342, 135.975 133.949, 139 134.144 L 144.500 134.500 144.350 137.773 C 144.145 142.257, 141.731 145.587, 136.898 148.052 C 129.348 151.904, 119.602 153, 92.912 153 L 68 153 68 156.411 C 68 160.565, 72.156 164.516, 77.779 165.710 C 84.568 167.151, 102.282 166.226, 119.338 163.539 C 128.600 162.080, 137.556 161.025, 139.242 161.193 C 142.119 161.481, 142.422 161.921, 144.175 168.341 C 147.375 180.061, 150.604 185, 155.066 185 C 163.183 185, 171.798 162.825, 170.783 144.548 C 170.396 137.590, 169.778 135.400, 166.221 128.378 C 162.565 121.162, 161.841 120.308, 159.724 120.713 C 156.948 121.243, 155.984 119.987, 148.932 106.658 L 144.255 97.816 143.541 102.658" stroke="none" fill="black" fill-rule="evenodd"/>
</svg>