<svg xmlns="http://www.w3.org/2000/svg" width="200" height="200" viewBox="0 0 200 200" version="1.1">
	<path d="M 131.460 15.250 C 131.842 16.488, 132.816 23.350, 133.626 30.500 C 135.228 44.646, 134.808 52, 132.399 52 C 130.096 52, 123.044 48.129, 117 43.547 C 104.345 33.953, 97.101 31.472, 84.055 32.265 C 73.186 32.925, 62 35.696, 62 37.729 C 62 38.640, 62.581 38.991, 63.505 38.636 C 68.968 36.540, 82.186 34.813, 89.877 35.191 C 99.714 35.675, 105.080 37.876, 115.424 45.671 C 118.766 48.189, 123.862 51.412, 126.750 52.833 C 132.299 55.564, 132.612 56.257, 130.967 62.180 L 129.945 65.860 125.431 64.322 C 114.937 60.746, 104.545 67.513, 85.999 90 C 78.108 99.567, 70.037 107.802, 65.500 110.913 C 61.031 113.978, 42.182 121, 38.425 121 C 33.672 121, 35.366 118.682, 54.645 98.807 C 68.081 84.955, 74.931 76.598, 73.789 75.455 C 73.511 75.178, 69.058 75.681, 63.892 76.572 C 52.656 78.511, 40.758 78.187, 38.449 75.878 C 37.002 74.431, 37.136 74.064, 39.979 71.671 C 44.997 67.449, 52.077 65.738, 65.485 65.506 L 77.469 65.299 81.172 61.899 C 85.951 57.511, 86.738 54.766, 83.959 52.176 C 81.123 49.534, 75.817 48.304, 61.468 46.961 C 41.011 45.045, 38.083 43.380, 46.500 38.447 C 52.225 35.092, 52.876 31.997, 47.250 34.882 C 42.376 37.382, 38.727 41.344, 39.172 43.653 C 39.743 46.622, 43.663 47.775, 58.885 49.453 C 82.824 52.093, 85.932 53.529, 80.169 59.292 C 77.084 62.378, 76.956 62.407, 65.778 62.605 C 48.406 62.913, 35 68.123, 35 74.566 C 35 79.924, 44.469 82.057, 59.420 80.067 C 64.264 79.423, 68.432 79.099, 68.682 79.348 C 68.931 79.598, 62.009 87.159, 53.298 96.151 C 35.576 114.447, 32.720 118.010, 33.181 121.252 C 33.425 122.969, 34.260 123.573, 36.721 123.811 C 40.793 124.205, 59.980 117.730, 66 113.932 C 71.045 110.749, 78.844 102.949, 87.433 92.500 C 97.592 80.140, 107.234 70.861, 112.500 68.378 C 118.144 65.716, 120.893 65.470, 125.679 67.201 C 129.370 68.536, 129.537 69.400, 127.654 77.405 L 126.500 82.309 117.541 84.685 C 98.131 89.831, 97.197 94.852, 114.787 99.495 C 118.479 100.470, 121.885 101.615, 122.356 102.040 C 123.081 102.694, 122.096 111.830, 120.457 119.666 C 120.008 121.812, 119.805 121.831, 98.752 121.666 C 74.660 121.478, 68.508 122.401, 61.888 127.196 L 57.629 130.281 59.856 132.084 C 61.080 133.076, 64.651 134.899, 67.791 136.137 C 72.715 138.077, 75.425 138.394, 87.500 138.443 C 95.200 138.474, 105.202 138.117, 109.727 137.648 L 117.953 136.796 117.777 143.648 C 117.680 147.417, 117.982 154.213, 118.449 158.750 C 118.960 163.729, 118.931 167, 118.375 167 C 117.868 167, 113.864 163.382, 109.477 158.961 C 99.206 148.610, 92.565 143.998, 87.666 143.814 C 81.749 143.591, 76.989 148.036, 75.556 155.122 C 75.055 157.604, 72.712 161.218, 65.250 171.028 C 59.923 178.030, 61.363 181.924, 70.015 183.918 C 75.678 185.222, 89.248 185.187, 99 183.842 C 103.125 183.273, 119.571 182.513, 135.547 182.154 C 160.968 181.582, 164.931 181.279, 167.297 179.727 C 171.168 177.188, 170.672 174.764, 165 168.500 C 162.250 165.463, 160 162.411, 160 161.717 C 160 158.868, 153.253 152.635, 142.555 145.600 C 136.310 141.493, 130.904 137.654, 130.541 137.067 C 129.526 135.424, 139.682 135.748, 146.032 137.562 C 155.780 140.346, 155.120 140.868, 157.269 128.672 C 159.582 115.549, 158.979 114.061, 154.414 121.628 C 153.403 123.303, 153.212 123.252, 151.678 120.912 C 150.771 119.528, 149.756 117.028, 149.422 115.358 C 148.881 112.655, 149.160 112.176, 151.947 111.022 C 156.059 109.319, 161.449 102.927, 163.659 97.133 C 165.073 93.425, 165.437 89.281, 165.481 76.382 C 165.520 65.175, 165.911 59.812, 166.765 58.783 C 170.050 54.824, 170.092 40.173, 166.846 30 C 160.378 9.726, 148.981 9.960, 140.608 30.539 L 138.357 36.072 137.089 27.790 C 136.392 23.235, 135.210 18.044, 134.462 16.254 C 132.907 12.533, 130.360 11.681, 131.460 15.250 M 150.621 19.288 C 147.193 22.716, 143.496 29.597, 140.513 38.102 L 137.846 45.704 139.383 58.951 C 140.228 66.237, 141.389 72.764, 141.963 73.456 C 142.538 74.148, 142.744 76.032, 142.421 77.643 C 141.851 80.496, 145.388 103.220, 147.112 107.782 C 147.934 109.956, 148.114 109.992, 150.897 108.553 C 155.571 106.136, 159.705 100.268, 161.559 93.420 C 162.919 88.394, 163.162 84.423, 162.759 73.809 C 162.481 66.489, 161.937 59.748, 161.550 58.830 C 161.027 57.587, 161.433 57.075, 163.133 56.830 C 167.131 56.253, 167.977 48.645, 165.420 36.267 C 162.999 24.548, 158.534 17, 154.020 17 C 153.409 17, 151.879 18.030, 150.621 19.288 M 134.147 60.330 C 132.564 66.617, 132.676 67.342, 135.422 68.615 L 137.828 69.731 137.281 64.115 C 136.500 56.091, 135.514 54.901, 134.147 60.330 M 131.618 71.758 C 130.215 76.536, 129.846 81, 130.855 81 C 132.503 81, 139 77.727, 139 76.897 C 139 74.827, 137.466 72.775, 134.944 71.471 C 132.392 70.151, 132.082 70.178, 131.618 71.758 M 133.323 82.821 L 129.146 84.388 127.547 92.944 L 125.948 101.500 128.724 103.747 C 132.405 106.727, 137.325 109.016, 141.505 109.694 L 144.907 110.247 143.960 106.817 C 143.439 104.931, 142.188 98.489, 141.180 92.501 C 140.172 86.514, 138.931 81.534, 138.424 81.435 C 137.916 81.335, 135.620 81.959, 133.323 82.821 M 116.188 88.012 C 105.727 91.058, 103.769 92.271, 106.743 93.862 C 108.785 94.955, 123.232 99.149, 123.534 98.736 C 123.959 98.156, 126.105 85.779, 125.819 85.553 C 125.644 85.415, 121.310 86.521, 116.188 88.012 M 124.521 111.651 C 124.126 115.335, 123.575 118.945, 123.295 119.674 C 122.919 120.653, 123.955 121, 127.257 121 C 131.452 121, 140.324 119.651, 144.250 118.416 C 145.366 118.065, 146 118.391, 146 119.316 C 146 120.144, 143.558 121.759, 140.319 123.074 C 134.792 125.317, 128 130.295, 128 132.104 C 128 132.597, 130.363 133.008, 133.250 133.017 C 136.137 133.027, 141.626 133.697, 145.448 134.506 C 152.877 136.080, 153.937 135.708, 153.998 131.500 C 154.014 130.400, 154.299 128.488, 154.630 127.250 C 155.118 125.432, 154.824 125, 153.102 125 C 150.790 125, 147.479 120.456, 146.481 115.915 C 146.005 113.745, 145.208 113.156, 142.198 112.748 C 137.993 112.179, 132.944 110.096, 128.369 107.043 L 125.238 104.954 124.521 111.651 M 73.134 125.540 C 69.633 126.300, 65.584 127.698, 64.137 128.646 L 61.505 130.370 67.003 132.878 C 71.601 134.976, 74.418 135.456, 84.223 135.815 C 90.671 136.051, 101.133 135.686, 107.473 135.003 C 118.934 133.768, 119 133.746, 119.014 131.131 C 119.021 129.684, 119.299 127.487, 119.630 126.250 L 120.233 124 99.867 124.079 C 86.567 124.131, 77.291 124.638, 73.134 125.540 M 122.607 125.582 C 121.407 128.709, 121.942 133, 123.531 133 C 124.374 133, 125.340 132.213, 125.678 131.250 C 126.016 130.287, 127.436 128.262, 128.834 126.750 L 131.374 124 127.294 124 C 124.496 124, 123.023 124.497, 122.607 125.582 M 120.462 141.458 C 120.087 144.460, 120.280 149.784, 120.890 153.290 C 122.124 160.377, 122.312 166.023, 121.393 168.418 C 120.107 171.770, 116.612 169.774, 106.173 159.724 C 96.221 150.143, 90.335 146, 86.676 146 C 83.829 146, 79.249 150.857, 78.543 154.625 C 77.793 158.620, 75.248 162.889, 69.076 170.500 C 61.778 179.500, 63.535 181.261, 80.378 181.821 C 87.793 182.068, 95.276 181.725, 99.525 180.944 C 103.528 180.208, 118.942 179.414, 135.702 179.081 C 156.713 178.663, 165.246 178.157, 166.125 177.277 C 167.899 175.500, 165.997 171.941, 161.699 168.996 C 159.652 167.593, 157.942 165.460, 157.635 163.927 C 156.764 159.571, 152.561 155.553, 140.411 147.462 C 134.070 143.240, 128.351 138.933, 127.701 137.892 C 127.018 136.798, 125.385 136, 123.831 136 C 121.326 136, 121.098 136.370, 120.462 141.458" stroke="none" fill="black" fill-rule="evenodd"/>
</svg>