<svg xmlns="http://www.w3.org/2000/svg" width="200" height="200" viewBox="0 0 200 200" version="1.1">
	<path d="M 138.743 16.084 C 133.620 19.068, 122.754 20.170, 92 20.827 L 60.500 21.500 54.750 24.324 C 51.536 25.902, 49 27.813, 49 28.657 C 49 29.487, 49.338 29.994, 49.750 29.782 C 61.237 23.895, 67.599 23.032, 98.500 23.165 C 116.333 23.242, 123.185 22.898, 129 21.633 C 133.125 20.736, 136.653 20.001, 136.839 20.001 C 137.026 20, 134.101 23.567, 130.339 27.926 L 123.500 35.851 91.857 35.926 C 64.699 35.989, 60.132 36.213, 59.638 37.500 C 59.134 38.813, 62.880 39, 89.718 39 L 120.374 39 117.512 41.988 C 115.938 43.631, 113.266 45.231, 111.575 45.544 C 109.884 45.857, 97.475 46.257, 84 46.432 C 58.653 46.762, 49.936 47.846, 44.621 51.329 C 38.877 55.093, 42.444 59.069, 55.651 63.624 L 63.712 66.404 75.606 64.233 C 82.148 63.039, 89.975 61.751, 93 61.371 C 98.087 60.733, 98.395 60.808, 97.103 62.370 C 96.001 63.702, 95.948 64.591, 96.853 66.577 C 97.484 67.961, 98 70.873, 98 73.047 C 98 84.980, 80.416 86.292, 59.802 75.897 C 53.441 72.689, 51.724 73.400, 54.937 77.911 C 60.120 85.191, 55.456 87.962, 33.543 90.625 C 26.369 91.497, 19.712 92.629, 18.750 93.140 C 13.701 95.824, 19.081 98.944, 38 104.306 C 48.849 107.381, 51.189 107.735, 55.718 106.990 C 64.601 105.527, 95.973 103.779, 106.702 104.148 C 112.965 104.364, 117.375 104.972, 118.125 105.723 C 119.085 106.685, 118.700 109.389, 116.313 118.430 L 113.282 129.915 115.203 135.607 C 116.541 139.570, 116.922 142.502, 116.457 145.256 C 115.049 153.588, 103.812 160.545, 89.876 161.714 C 82.115 162.364, 75.709 161.415, 76.238 159.693 C 76.439 159.037, 79.730 156.933, 83.552 155.019 C 96.503 148.529, 102.670 139.517, 100.078 130.867 C 98.421 125.336, 90.470 118.660, 82.222 115.875 C 74.532 113.278, 60.670 112.806, 53 114.879 C 46.907 116.527, 37.997 120.086, 38.012 120.866 C 38.018 121.215, 43.595 124.344, 50.404 127.821 C 62.912 134.207, 68.194 138.207, 66.437 139.962 C 65.032 141.364, 54.531 143.894, 47.080 144.625 C 37.417 145.573, 37 145.934, 37 153.354 C 37 166.586, 42.447 176.020, 51.685 178.787 C 57.394 180.498, 68.467 180.250, 82.861 178.088 C 96.748 176.003, 100.489 176.408, 100.522 180 C 100.561 184.228, 102.677 183.180, 105.420 177.574 C 106.902 174.544, 110.161 170.268, 112.670 168.060 C 120.902 160.813, 128.072 161.231, 145.516 169.976 C 158.050 176.260, 159.817 176.783, 161.800 174.800 C 166.161 170.439, 157.714 142.388, 148.773 131.540 C 147.127 129.543, 142.567 125.363, 138.640 122.250 C 130.592 115.872, 123.027 108.126, 123.011 106.250 C 122.998 104.721, 124.509 104.710, 142.352 106.110 C 155.565 107.147, 157.095 107.079, 165.500 105.074 C 175.443 102.702, 182.523 99.685, 183.379 97.454 C 184.240 95.211, 183.027 93.065, 180.021 91.511 C 175.036 88.933, 156.789 85.881, 142.777 85.282 C 135.199 84.958, 129 84.542, 129 84.358 C 129 82.468, 135.321 65, 136.005 65 C 137.720 65, 145 72.688, 145 74.500 C 145 76.217, 145.109 76.212, 147.109 74.405 C 153.074 69.018, 159.141 49.632, 159.284 35.500 C 159.377 26.325, 158.097 23, 154.471 23 C 150.104 23, 142.942 35.081, 136.422 53.448 C 134.339 59.313, 133.356 60.936, 132.112 60.561 C 126.614 58.902, 120.587 58.046, 114.250 58.024 C 110.263 58.011, 107 57.646, 107 57.212 C 107 55.017, 116.924 47.097, 121.545 45.604 C 127.029 43.834, 131 41.447, 131 39.922 C 131 39.391, 129.900 38.456, 128.556 37.844 C 126.124 36.735, 126.152 36.685, 134.437 27.136 C 139.016 21.860, 142.542 16.970, 142.274 16.271 C 141.693 14.757, 141.077 14.725, 138.743 16.084 M 151.095 28.607 C 148.499 31.906, 144.683 39.872, 139.888 52 L 136.131 61.500 138.316 62.972 C 139.517 63.782, 141.947 65.935, 143.716 67.757 L 146.931 71.069 149.354 66.285 C 154.233 56.649, 157.809 38.879, 156.553 30.505 C 155.773 25.304, 154.139 24.736, 151.095 28.607 M 122.011 41.487 C 120.936 42.782, 121.178 42.834, 123.888 41.889 C 127.429 40.655, 127.856 40, 125.122 40 C 124.090 40, 122.690 40.669, 122.011 41.487 M 59.279 50.128 C 51.533 51.255, 45.774 53.130, 45.263 54.691 C 44.788 56.141, 49.291 58.555, 57.872 61.450 L 64.299 63.618 75.799 61.380 C 82.123 60.150, 90.697 58.824, 94.852 58.435 C 101.978 57.767, 102.663 57.484, 106.953 53.428 L 111.500 49.130 88.500 49.176 C 75.850 49.202, 62.700 49.630, 59.279 50.128 M 103.112 61.205 C 99.768 63.018, 100.329 64.276, 105.206 65.902 C 109.397 67.299, 119.369 76.211, 123.696 82.428 L 125.734 85.355 128.867 75.271 C 130.590 69.725, 132 64.727, 132 64.165 C 132 61.647, 107.017 59.088, 103.112 61.205 M 102.537 71.750 C 106.084 80.256, 118.638 102, 120.001 102 C 121.310 102, 124.218 91.003, 123.580 88.464 C 122.006 82.192, 107.617 68, 102.832 68 C 101.073 68, 101.057 68.201, 102.537 71.750 M 98.173 80.086 C 94.254 84.754, 88.858 86.491, 81.100 85.581 C 76.435 85.034, 66.550 82.105, 60.699 79.537 C 59.172 78.867, 58.991 79.115, 59.506 81.167 C 60.441 84.892, 56.819 88.710, 50.684 90.466 C 47.833 91.282, 40.130 92.644, 33.566 93.492 C 27.002 94.341, 21.471 95.196, 21.274 95.392 C 20.075 96.592, 50.114 105.393, 52.766 104.619 C 57.251 103.310, 78.886 101.933, 96.514 101.834 C 110.705 101.755, 115.768 101.423, 115.103 100.613 C 114.600 100.001, 111.313 94.265, 107.799 87.866 L 101.409 76.231 98.173 80.086 M 127.681 88.750 C 126.773 90.311, 123.900 101.233, 124.294 101.627 C 124.521 101.854, 132.085 102.537, 141.103 103.145 C 156.453 104.179, 158.019 104.118, 165.627 102.190 C 176.172 99.517, 181.279 97.350, 180.772 95.764 C 179.678 92.346, 156.117 88, 138.681 88 C 132.871 88, 127.922 88.338, 127.681 88.750 M 118.779 120.044 C 116.376 129.294, 116.278 130.420, 117.597 133.578 C 119.728 138.679, 119.602 146.209, 117.310 150.690 C 114.978 155.249, 107.783 160.375, 100.651 162.559 C 88.170 166.380, 73 165.089, 73 160.206 C 73 157.637, 75.428 155.647, 82.199 152.665 C 85.333 151.285, 89.896 148.157, 92.339 145.713 C 99.267 138.786, 99.691 131.758, 93.552 125.619 C 87.006 119.072, 74.119 115.233, 62.375 116.329 C 55.517 116.970, 43.991 119.827, 44.012 120.882 C 44.019 121.222, 48.700 123.905, 54.415 126.844 C 60.130 129.783, 66.051 133.487, 67.572 135.075 C 73.309 141.064, 67.716 144.670, 48.782 147.191 L 40 148.360 40.044 154.930 C 40.150 170.814, 46.528 176.939, 63 176.974 C 67.675 176.984, 75.550 176.327, 80.500 175.514 C 90.917 173.802, 98.377 173.596, 100.908 174.951 C 102.359 175.727, 103.241 175.111, 105.720 171.595 C 109.711 165.933, 114.473 162.401, 120.170 160.877 C 126.677 159.137, 133.679 160.897, 146.873 167.588 C 157.905 173.184, 159.459 173.685, 160.509 171.986 C 162.060 169.475, 156.836 151.667, 151.418 141 C 147.548 133.379, 145.280 130.650, 138.500 125.454 C 135.750 123.347, 130.778 118.997, 127.450 115.789 L 121.401 109.955 118.779 120.044" stroke="none" fill="black" fill-rule="evenodd"/>
</svg>