<svg xmlns="http://www.w3.org/2000/svg" width="200" height="200" viewBox="0 0 200 200" version="1.1">
	<path d="M 124.445 13.068 C 120.004 14.359, 116.610 18.311, 117.364 21.314 C 117.699 22.648, 121.813 27.960, 126.507 33.120 C 137.366 45.055, 141.128 52.260, 141.116 61.098 C 141.107 68.177, 139.221 74.533, 135.424 80.285 C 133.225 83.616, 133.049 84.516, 133.957 87.785 C 137.042 98.891, 132.656 105.076, 122.807 103.511 C 117.504 102.668, 103.639 96.007, 99.276 92.206 C 96.218 89.542, 96.106 89.201, 97.102 85.593 L 98.152 81.789 103.444 82.450 L 108.735 83.111 109.867 78.613 C 111.442 72.357, 111.296 70.578, 109.040 68.536 C 107.681 67.306, 106.278 66.964, 104.461 67.421 C 102.265 67.972, 101.926 67.789, 102.368 66.289 C 102.657 65.305, 103.633 61.575, 104.536 58 C 105.439 54.425, 106.355 51.321, 106.571 51.101 C 106.787 50.882, 108.746 51.938, 110.923 53.447 C 116.203 57.106, 117.411 56.125, 114.884 50.229 C 112.059 43.639, 110.032 34.456, 110.015 28.167 C 109.993 20.209, 107.675 21.947, 106.794 30.581 C 105.851 39.818, 104.527 45.558, 103.412 45.239 C 102.911 45.095, 98.612 43.634, 93.860 41.993 C 77.599 36.375, 57.587 36.115, 38.013 41.266 C 26.051 44.414, 26.196 45.958, 38.717 48.815 C 49.786 51.340, 59.482 55.038, 62.225 57.781 C 67.406 62.961, 58.418 66.355, 36.193 67.611 C 18.783 68.595, 20.481 70.372, 38.250 69.764 C 54.517 69.208, 62.026 67.278, 65.321 62.807 C 67.218 60.232, 67.230 59.999, 65.579 57.480 C 63.495 54.300, 54.355 49.820, 45.206 47.493 C 35.179 44.943, 35.083 44.859, 40.500 43.394 C 56.877 38.965, 77.954 39.419, 93.125 44.529 C 104.544 48.374, 104.188 47.710, 101.241 59.712 L 98.733 69.924 92.116 74.861 C 88.477 77.576, 78.067 86.726, 68.982 95.195 L 52.463 110.592 44.691 112.422 C 40.417 113.429, 36.639 113.973, 36.297 113.631 C 35.126 112.459, 37.860 108.495, 46.044 99.500 C 63.271 80.565, 64.447 74, 50.612 74 C 43.780 74, 32.990 75.690, 31.663 76.968 C 29.864 78.700, 33.002 78.827, 41.477 77.364 C 61.570 73.897, 61.970 77.774, 43.615 98.124 C 31.337 111.737, 30.089 116, 38.380 116 C 40.823 116, 45.542 115.153, 48.867 114.119 C 54.310 112.425, 56.337 110.885, 69.206 98.675 C 83.997 84.640, 95.897 74.563, 96.713 75.380 C 97.729 76.396, 95.824 79.813, 93.972 80.297 C 91.283 81, 90.451 83.707, 91.814 87.317 C 92.753 89.806, 92.580 91.589, 90.831 97.420 C 89.662 101.314, 87.824 105.762, 86.746 107.305 L 84.786 110.110 88.819 113.805 C 91.038 115.837, 96.598 119.839, 101.176 122.697 L 109.500 127.894 120 126.056 C 125.775 125.045, 131.339 123.876, 132.365 123.458 C 133.973 122.802, 134.130 123.029, 133.498 125.099 C 130.066 136.345, 123.307 146, 118.868 146 C 115.751 146, 109.024 138.995, 104.251 130.780 C 101.764 126.501, 99.364 123, 98.916 123 C 96.171 123, 76.281 127.355, 71.476 129.008 C 64.723 131.331, 63 132.571, 63 135.102 C 63 137.748, 68.657 140.338, 83.655 144.558 C 90.720 146.545, 98.638 149.088, 101.250 150.209 L 106 152.246 96.704 156.433 C 77.583 165.044, 65 174.376, 65 179.945 C 65 183.814, 66.764 185, 72.518 185 C 82.578 185, 99.403 178.135, 107.951 170.544 L 113.302 165.791 120.057 166.173 C 127.179 166.575, 127.804 166.843, 154.282 180.832 C 159.662 183.674, 165.174 186, 166.532 186 C 170.619 186, 173 182.705, 173 177.049 C 173 171.415, 171.245 162.269, 170.018 161.511 C 169.566 161.232, 163.190 159.472, 155.848 157.600 C 141.641 153.978, 135 151.566, 135 150.027 C 135 149.013, 143.123 146.334, 154.527 143.587 C 164.588 141.163, 169.422 138.243, 169.803 134.359 C 170.043 131.920, 169.447 130.712, 166.977 128.634 C 165.255 127.185, 163.125 126, 162.244 126 C 161.362 126, 155.782 124.838, 149.844 123.418 L 139.047 120.837 139.375 116.668 C 139.555 114.376, 141.232 105.300, 143.101 96.500 C 146.205 81.887, 146.520 80.977, 146.734 86 C 146.862 89.025, 147.235 94.731, 147.562 98.680 C 148.135 105.588, 148.273 105.900, 151.228 106.930 C 158.903 109.605, 165.898 106.767, 168.991 99.723 C 172.226 92.354, 173.039 83.962, 173.380 54.363 C 173.694 27.216, 173.598 25.306, 171.767 22.237 C 168.167 16.202, 163.547 15.373, 159.608 20.054 C 157.374 22.710, 153.383 33.798, 150.271 46 C 149.452 49.212, 149.324 48.871, 148.710 41.842 C 147.870 32.222, 144.790 23.880, 140.204 18.804 C 134.462 12.448, 130.962 11.174, 124.445 13.068 M 123.250 16.648 C 121.406 17.556, 120 19.018, 120 20.024 C 120 21, 122.588 24.660, 125.750 28.159 C 141.478 45.555, 143.460 49.291, 143.483 61.586 C 143.499 70.100, 143.265 71.140, 139.773 78.086 C 136.325 84.944, 136.121 85.826, 137.050 89.848 C 139.717 101.395, 133.178 108.083, 121.377 105.878 C 115.200 104.724, 105.788 100.296, 99.896 95.771 L 95.291 92.235 93.646 97.456 C 91.360 104.706, 91.448 105, 95.901 105 C 102.094 105, 122.430 108.761, 130.043 111.314 C 133.869 112.597, 137 113.506, 137 113.332 C 137 113.159, 139.250 101.804, 142 88.098 C 147.261 61.880, 147.772 55.812, 145.972 40.974 C 144.669 30.234, 140.464 21.067, 135.200 17.490 C 130.969 14.615, 127.824 14.393, 123.250 16.648 M 161.589 21.902 C 159.347 24.379, 155.952 34.545, 152.372 49.500 C 149.691 60.701, 149.512 62.732, 149.682 80 C 149.782 90.175, 150.262 99.850, 150.749 101.500 C 151.542 104.187, 152.103 104.531, 156.123 104.797 C 168.004 105.583, 170.949 94.657, 170.982 49.654 C 170.999 27.135, 170.885 25.647, 168.932 22.904 C 166.539 19.543, 164.033 19.201, 161.589 21.902 M 107.579 43.453 C 106.976 46.649, 107.173 47.653, 108.608 48.703 C 111.442 50.775, 111.850 50.250, 110.512 46.250 C 109.822 44.188, 109.048 41.825, 108.791 41 C 108.535 40.175, 107.989 41.279, 107.579 43.453 M 102.736 71.250 C 101.073 72.513, 98.601 77.935, 99.348 78.681 C 99.570 78.904, 101.318 79.340, 103.231 79.650 C 106.270 80.143, 106.790 79.916, 107.342 77.857 C 108.585 73.214, 108.114 70, 106.191 70 C 105.196 70, 103.642 70.563, 102.736 71.250 M 93.500 84 C 93.160 84.550, 93.359 85, 93.941 85 C 94.523 85, 95 84.550, 95 84 C 95 83.450, 94.802 83, 94.559 83 C 94.316 83, 93.840 83.450, 93.500 84 M 100 109.132 C 101.925 109.656, 110.389 112.100, 118.809 114.565 C 133.533 118.874, 137.359 119.343, 135.047 116.556 C 132.958 114.039, 106.616 107.832, 99.119 108.090 C 96.822 108.169, 96.931 108.298, 100 109.132 M 89.830 111.286 C 90.562 112.173, 95.400 115.645, 100.583 119.002 L 110.005 125.106 119.204 123.518 C 128.085 121.986, 129.805 121.466, 128.917 120.588 C 128.173 119.853, 96.860 111.001, 92.618 110.327 C 88.909 109.738, 88.632 109.833, 89.830 111.286 M 136.715 123.709 C 136.466 124.144, 135.692 126.300, 134.995 128.500 C 131.583 139.264, 125.841 147.437, 120.932 148.515 C 115.393 149.732, 108.019 143.382, 101.847 132.080 L 98.500 125.951 94.500 126.550 C 86.143 127.801, 69.136 132.182, 67.357 133.543 C 64.840 135.466, 66.205 136.323, 77 139.595 C 101.417 146.996, 105.049 148.316, 107.671 150.746 L 110.440 153.313 106.970 154.834 C 84.622 164.629, 71.238 172.704, 68.466 178.066 C 66.997 180.907, 67.033 181.058, 69.446 182.157 C 74.956 184.668, 96.579 176.722, 105.514 168.903 C 116.339 159.430, 123.804 160.815, 154.500 177.987 C 160.734 181.474, 164.422 182.942, 166.500 182.761 C 169.413 182.508, 169.509 182.334, 169.799 176.788 C 169.963 173.646, 169.638 169.370, 169.077 167.286 L 168.056 163.496 155.049 160.277 C 139.750 156.491, 132.631 153.417, 132.202 150.412 C 132.038 149.264, 132.518 147.815, 133.269 147.192 C 134.020 146.568, 140.578 144.476, 147.842 142.542 C 161.130 139.004, 166.261 137.005, 167.596 134.844 C 168.701 133.056, 162.458 128, 159.144 128 C 156.774 128, 144.772 125.306, 138.834 123.442 C 137.918 123.154, 136.965 123.274, 136.715 123.709" stroke="none" fill="black" fill-rule="evenodd"/>
</svg>