<svg xmlns="http://www.w3.org/2000/svg" width="200" height="200" viewBox="0 0 200 200" version="1.1">
	<path d="M 121.363 8.993 C 118.554 10.422, 116.486 12.493, 114.918 15.449 C 113.122 18.833, 111.764 20.054, 108.805 20.940 C 106.712 21.567, 105 22.335, 105 22.646 C 105 22.957, 106.139 24.565, 107.531 26.220 C 108.923 27.874, 109.851 29.964, 109.592 30.864 C 109.334 31.764, 108.413 36.550, 107.546 41.500 C 105.723 51.908, 101.911 68.244, 101.420 67.753 C 101.235 67.569, 99.958 60.438, 98.581 51.907 C 95.340 31.826, 94.265 28.500, 91.015 28.500 C 89.126 28.500, 87.968 29.535, 86.132 32.863 C 83.768 37.150, 83.653 37.215, 79.613 36.592 C 77.351 36.244, 67.625 35.694, 58 35.370 C 39.110 34.736, 35 35.383, 35 38.990 C 35 42.412, 43.384 46.527, 60.309 51.414 L 68.118 53.668 52.889 57.396 C 36.741 61.349, 32 63.179, 32 65.458 C 32 67.364, 33.395 67.693, 49.111 69.492 C 80.148 73.045, 89.741 78.989, 84.475 91.405 C 83.681 93.278, 83.722 93.278, 86.939 91.405 C 88.739 90.357, 92.432 87.081, 95.147 84.124 C 97.861 81.168, 100.207 78.918, 100.360 79.124 C 100.513 79.331, 101.422 82.403, 102.379 85.950 L 104.120 92.401 101.810 94.163 C 93.704 100.346, 80.550 95.795, 68.214 82.541 C 65.377 79.494, 62.650 77, 62.154 77 C 59.772 77, 52.366 80.308, 47.221 83.671 C 44.074 85.727, 38.490 90.436, 34.811 94.136 C 24.617 104.388, 23.425 111.505, 31.207 115.664 C 37.254 118.897, 61.031 116.941, 106.612 109.463 C 110.598 108.809, 110.820 108.922, 113.864 113.144 C 119.091 120.394, 123.100 122.500, 131.672 122.500 L 138.995 122.500 138.998 125.696 L 139 128.892 133.750 127.389 C 130.863 126.562, 124.450 124.575, 119.500 122.974 C 103.193 117.699, 97 117.061, 97 120.655 C 97 121.845, 96.184 122.054, 93.250 121.617 C 78.887 119.477, 70.286 120.110, 63.058 123.838 C 57.989 126.453, 54.696 131.613, 55.376 135.874 C 55.672 137.730, 56.681 140.095, 57.618 141.130 C 59.623 143.346, 59.781 143.171, 53.778 145.394 C 41.354 149.997, 40.719 160.479, 52.133 172.548 C 64.898 186.044, 85.421 192.626, 97.556 187.114 C 101.361 185.386, 109 177.770, 109 175.705 C 109 175.191, 111.885 177.470, 115.412 180.769 C 123.328 188.174, 131.337 192.252, 139.059 192.811 C 146.639 193.359, 151.393 191.647, 157.087 186.322 C 163.258 180.549, 166.262 173.584, 166.349 164.843 C 166.406 159.046, 166.006 157.529, 163.251 153.097 L 160.087 148.007 164.482 146.900 C 169.423 145.656, 172.342 143.047, 171.838 140.324 C 171.364 137.768, 165.184 135.009, 156.744 133.587 C 152.340 132.845, 150.233 132.124, 151.286 131.721 C 153.961 130.694, 153.361 125.888, 149.906 120.671 C 146.783 115.956, 145.629 115.173, 144.500 117 C 143.392 118.793, 142.270 118.053, 142.606 115.750 C 144.705 101.398, 145.223 99.342, 147.018 98.221 C 148.699 97.171, 149.290 97.562, 152.009 101.514 C 160.441 113.768, 168.290 109.404, 172.720 90 C 174.086 84.013, 174.436 77.456, 174.452 57.500 C 174.472 32.364, 173.668 24.795, 169.991 15.500 L 168.804 12.500 165.847 20 C 157.178 41.984, 143 89.150, 143 96.003 C 143 98.124, 140.515 99.243, 129.961 101.875 C 122.338 103.776, 112.007 105.930, 111.995 105.621 C 111.993 105.554, 110.908 102.843, 109.585 99.595 L 107.180 93.690 110.580 88.747 C 119.988 75.071, 121.679 50.742, 114.524 32 C 113.153 28.408, 113.031 26.923, 113.920 24.642 C 114.948 22.001, 115.317 21.836, 118.766 22.466 C 130.392 24.592, 140.306 37.147, 145.070 55.775 C 147.155 63.925, 147.413 64.481, 148.738 63.662 C 149.217 63.366, 148.845 58.483, 147.910 52.812 C 146.976 47.140, 145.661 37.868, 144.988 32.206 C 144.180 25.409, 143.380 22.046, 142.632 22.307 C 141.431 22.726, 141.417 23.494, 142.413 34.500 L 143.047 41.500 140.581 36.901 C 135.788 27.961, 125.983 20, 119.766 20 C 116.325 20, 115.870 19.153, 117.557 15.890 C 120.550 10.101, 127.343 8.619, 135.928 11.881 C 139.823 13.361, 140.984 13.485, 141.375 12.464 C 141.975 10.900, 135.622 8.164, 129.646 7.412 C 126.624 7.031, 124.379 7.460, 121.363 8.993 M 163.229 35.010 C 156.805 52.953, 152.951 65.482, 149.687 79.038 C 146.206 93.498, 145.622 96.868, 146.924 95 C 147.499 94.175, 147.983 92.600, 148 91.500 C 148.019 90.264, 149.373 91.869, 151.546 95.701 C 155.241 102.219, 159.372 106.272, 161.827 105.788 C 169.113 104.351, 174.460 71.900, 172.098 43.459 C 171.443 35.571, 170.347 27.182, 169.662 24.818 L 168.418 20.519 163.229 35.010 M 109.500 24 C 109.840 24.550, 110.316 25, 110.559 25 C 110.802 25, 111 24.550, 111 24 C 111 23.450, 110.523 23, 109.941 23 C 109.359 23, 109.160 23.450, 109.500 24 M 87.861 35.582 L 85.834 40.165 81.167 39.554 C 71.936 38.345, 49.383 37.260, 43.709 37.752 C 40.058 38.069, 38.054 38.669, 38.284 39.377 C 38.824 41.032, 52.240 46.546, 62 49.126 C 69.609 51.136, 78.867 51.908, 83 50.875 C 83.958 50.635, 84.500 51.222, 84.500 52.500 C 84.500 54.232, 83.628 54.583, 78 55.117 C 67.659 56.097, 36.678 63.670, 37.508 65.013 C 37.748 65.402, 41.444 66.025, 45.722 66.398 C 57.297 67.409, 70.492 69.838, 76.385 72.043 C 82.197 74.217, 87.517 79.101, 88.523 83.183 C 89.425 86.849, 91.104 85.948, 95.639 79.362 L 99.409 73.889 96.625 56.694 C 93.367 36.570, 92.110 31, 90.825 31 C 90.309 31, 88.975 33.062, 87.861 35.582 M 111 36.949 C 111 40.517, 106.228 62.416, 104.186 68.219 C 102.185 73.903, 102.185 73.986, 104.100 81.649 C 105.160 85.890, 106.206 89.539, 106.425 89.759 C 107.120 90.454, 111.702 81.713, 113.637 76 C 117.083 65.826, 115.794 35, 111.922 35 C 111.415 35, 111 35.877, 111 36.949 M 52.927 83.673 C 43.190 88.544, 30.510 100.764, 29.477 106.273 C 29.018 108.717, 29.199 110.534, 29.995 111.494 C 31.656 113.495, 37.459 114.991, 43.500 114.977 C 50.977 114.958, 105.842 107.334, 107.972 106.017 C 108.692 105.572, 108.365 103.819, 106.975 100.677 C 105.837 98.105, 104.772 96, 104.607 96 C 104.442 96, 102.776 96.787, 100.904 97.750 C 92.106 102.274, 80.344 98.275, 68.958 86.889 C 65.169 83.100, 61.664 80, 61.169 80 C 60.674 80, 56.965 81.653, 52.927 83.673 M 137.764 102.568 C 135.710 103.293, 129.522 104.902, 124.014 106.144 C 118.506 107.386, 114 108.720, 114 109.109 C 114 109.498, 115.979 111.853, 118.399 114.342 C 123.559 119.652, 128.906 121.532, 135.268 120.274 L 139.449 119.447 140.639 110.473 C 141.294 105.538, 141.755 101.444, 141.665 101.376 C 141.574 101.307, 139.819 101.844, 137.764 102.568 M 143.354 120.765 C 142.724 121.169, 142.049 123.300, 141.854 125.500 L 141.500 129.500 145.750 129.807 C 149.529 130.081, 150 129.877, 150 127.962 C 150 125.367, 146.981 119.994, 145.534 120.015 C 144.965 120.024, 143.984 120.361, 143.354 120.765 M 100 121.953 C 100 122.809, 106.044 124.980, 108.466 124.994 C 108.997 124.997, 111.482 127.020, 113.988 129.488 L 118.545 133.976 128.272 133.337 C 133.623 132.986, 137.994 132.429, 137.987 132.099 C 137.972 131.349, 104.135 120.975, 101.750 120.989 C 100.787 120.995, 100 121.429, 100 121.953 M 68.534 124.468 C 62.816 126.002, 58 130.632, 58 134.593 C 58 136.104, 59.228 138.381, 60.996 140.149 C 63.837 142.991, 64.279 143.109, 69.593 142.445 C 74.727 141.804, 75.166 141.902, 74.837 143.623 C 74.529 145.240, 73.233 145.580, 65.489 146.075 C 52.397 146.913, 47 150.255, 47 157.524 C 47 166.388, 59.352 178.304, 74.288 183.851 C 80.633 186.207, 90.932 186.731, 95.685 184.939 C 99.613 183.458, 104.450 178.547, 106.535 173.922 L 108.296 170.017 115.929 177.310 C 125.534 186.487, 132.262 190, 140.228 190 C 143.438 190, 147.526 189.389, 149.312 188.643 C 160.272 184.064, 166.972 167.507, 162.216 156.755 C 159.350 150.276, 156.716 148.838, 148.382 149.202 L 141.560 149.500 141.862 154.355 C 142.028 157.025, 142.802 161.659, 143.582 164.653 C 145.231 170.985, 145.309 172, 144.142 172 C 143.670 172, 142.134 169.783, 140.728 167.074 C 137.684 161.207, 130.290 151, 129.083 151 C 128.614 151, 121.245 154.566, 112.709 158.925 C 103.815 163.466, 95.277 167.136, 92.709 167.521 C 78.649 169.629, 82.463 157.231, 98.091 150.028 C 104.096 147.260, 106.835 146.633, 115.186 146.116 L 125.131 145.500 121.651 141.441 C 118.532 137.803, 117.788 137.426, 114.483 137.812 C 111.060 138.212, 110.316 137.770, 104.147 131.671 C 97.855 125.450, 97.153 125.043, 91 124.057 C 82.441 122.685, 74.645 122.828, 68.534 124.468 M 104 127.804 C 104 129.651, 110.746 134.998, 113.048 134.975 C 115.362 134.951, 115.263 134.726, 111.289 130.975 C 107.422 127.326, 104 125.837, 104 127.804 M 129 135.742 C 125.975 135.947, 123.158 136.453, 122.741 136.867 C 122.323 137.280, 123.616 139.527, 125.613 141.861 C 128.932 145.739, 129.599 146.077, 133.372 145.802 L 137.500 145.500 137.802 140.250 C 138.065 135.693, 137.867 135.024, 136.302 135.185 C 135.311 135.287, 132.025 135.538, 129 135.742 M 141 139.646 L 141 144.500 145.500 144.667 C 147.975 144.758, 152.588 144.936, 155.750 145.061 C 162.060 145.311, 169.459 142.877, 168.761 140.782 C 168.139 138.918, 158.578 136.338, 149.250 135.518 L 141 134.792 141 139.646 M 111.263 149.188 C 103.009 150.098, 93.858 154.308, 89.395 159.248 C 80.255 169.365, 95.318 165.890, 119.864 152.219 L 125.228 149.232 121.364 148.866 C 119.239 148.665, 114.694 148.810, 111.263 149.188 M 133 149.696 C 133 150.079, 134.238 152.186, 135.750 154.378 L 138.500 158.364 138.820 155.087 C 138.997 153.284, 138.898 151.177, 138.602 150.405 C 138.066 149.008, 133 148.367, 133 149.696" stroke="none" fill="black" fill-rule="evenodd"/>
</svg>