<svg xmlns="http://www.w3.org/2000/svg" width="200" height="200" viewBox="0 0 200 200" version="1.1">
	<path d="M 123.308 13.010 C 119.666 14.477, 117.683 18.495, 118.226 23.310 C 118.954 29.773, 121.797 34.843, 128.640 41.882 L 134.844 48.264 127.056 61.882 C 122.773 69.372, 117.898 77.946, 116.223 80.935 L 113.178 86.370 112.514 81.435 C 111.556 74.305, 111.494 74.210, 107.051 73.014 C 104.573 72.347, 103 71.333, 103 70.404 C 103 67.188, 105.320 54.457, 106.056 53.635 C 106.482 53.159, 107.881 54.391, 109.165 56.372 C 110.449 58.354, 111.811 59.981, 112.191 59.988 C 114.098 60.022, 113.752 57.435, 110.897 50.318 L 107.760 42.500 109.006 31.799 C 109.691 25.914, 109.984 20.401, 109.657 19.549 C 108.462 16.435, 106.208 18.145, 103.472 24.242 L 100.670 30.485 102.785 36.291 C 105.739 44.402, 104.885 45.850, 99.649 41.605 C 90.549 34.227, 87.990 33.473, 73 33.747 C 54.023 34.095, 37 35.770, 34.270 37.558 C 29.433 40.728, 32.200 43.221, 47.500 49.475 C 63.789 56.133, 67.662 59.321, 63 62.232 C 60.950 63.512, 60.253 66, 61.944 66 C 62.464 66, 64.107 64.952, 65.596 63.671 C 67.711 61.852, 68.163 60.786, 67.663 58.794 C 66.815 55.415, 63.924 53.629, 48.641 47.042 C 41.568 43.994, 35.839 41.050, 35.910 40.500 C 36.141 38.696, 41.215 38.027, 62.792 36.952 L 84.085 35.892 89.292 38.301 C 92.157 39.626, 96.506 42.507, 98.958 44.703 L 103.415 48.696 101.586 60.360 C 99.840 71.495, 99.638 72.051, 97.129 72.654 C 89.786 74.419, 84.143 78.709, 68.563 94.371 C 50.117 112.916, 45.433 115.964, 34.217 116.731 C 30.362 116.994, 26.234 116.698, 24.529 116.036 L 21.558 114.882 30.873 109.962 C 63.289 92.840, 65.425 82.147, 38.054 74.012 C 29.537 71.480, 29.796 71.035, 41.250 68.509 C 46.618 67.325, 49 66.348, 49 65.332 C 49 64.421, 48.337 64.045, 47.250 64.341 C 46.288 64.602, 42.267 65.574, 38.316 66.500 C 24.700 69.690, 24.665 72.389, 38.178 76.897 C 50.662 81.062, 54 83.162, 54 86.850 C 54 92.695, 46.970 98.474, 27.490 108.642 L 14.705 115.315 19.602 117.316 C 22.883 118.656, 26.977 119.347, 32 119.408 C 45.352 119.571, 51.398 115.864, 72 94.879 C 83.626 83.037, 87.652 79.583, 92.314 77.452 C 95.512 75.991, 98.354 75.021, 98.631 75.298 C 98.908 75.574, 98.174 82.258, 97.001 90.150 C 95.827 98.043, 94.652 105.962, 94.388 107.750 C 93.926 110.887, 93.746 111, 89.205 111.006 C 82.125 111.015, 66.024 113.655, 60.467 115.719 C 57.345 116.878, 55.003 118.522, 54.047 120.226 C 52.660 122.697, 52.705 123.128, 54.624 125.704 C 55.770 127.242, 59.428 130.300, 62.753 132.500 C 66.079 134.700, 69.632 137.059, 70.650 137.743 C 72.243 138.813, 72.001 138.906, 68.909 138.412 C 64.299 137.674, 57.369 139.527, 53.339 142.575 C 46.400 147.823, 45.129 160.469, 50.468 171.147 C 55.385 180.985, 62.981 186.730, 72.348 187.697 C 76.673 188.143, 79.389 187.706, 85.571 185.572 L 93.351 182.885 127.426 183.185 C 164.853 183.515, 167.954 183.133, 170.932 177.817 C 172.284 175.403, 172.265 174.779, 170.738 171.578 C 169.805 169.621, 168.102 163.403, 166.954 157.760 C 161.449 130.712, 153.486 129.363, 141.309 153.417 L 137.807 160.333 134.635 154.395 C 125.203 136.743, 121.386 136.104, 116.623 151.381 C 110.564 170.813, 102.555 174.677, 85.210 166.537 C 76.416 162.411, 73.278 160, 76.699 160 C 77.769 160, 80.838 159.252, 83.520 158.339 C 87.260 157.064, 90.863 154.299, 98.990 146.465 C 111.905 134.016, 115.953 131.734, 124.943 131.838 C 128.549 131.880, 133.660 132.571, 136.301 133.375 C 140.847 134.757, 141.648 134.688, 151.399 132.072 C 164.446 128.572, 169.401 126.200, 169.819 123.252 C 170.051 121.620, 169.460 120.745, 167.664 120.062 C 163.172 118.354, 149.826 117.052, 125.512 115.948 L 101.524 114.859 99.267 117.680 L 97.010 120.500 97.005 116.750 C 97 113.328, 97.240 112.999, 99.750 112.988 C 102.178 112.977, 103.024 111.983, 106.978 104.488 C 109.440 99.819, 111.754 96, 112.119 96 C 112.484 96, 113.046 97.048, 113.367 98.328 C 114.336 102.187, 118.565 106, 121.876 106 C 133.475 106, 144.327 73.191, 140.053 51.043 C 139.271 46.989, 139.478 46.149, 142.346 41.762 L 145.500 36.939 146.082 61.720 C 146.706 88.246, 147.844 97.296, 151.343 103.554 C 153.121 106.734, 154.193 107.562, 156.863 107.820 C 159.618 108.086, 160.798 107.487, 163.861 104.267 C 165.887 102.137, 169.285 97.082, 171.412 93.035 C 175.035 86.141, 175.167 85.595, 173.504 84.380 C 171.861 83.178, 171.795 81.770, 172.615 65.291 C 174.776 21.857, 172.901 12.800, 162.299 15.461 C 159.560 16.148, 153.537 21.703, 148.806 27.903 L 146.210 31.306 144.498 27.996 C 141.997 23.160, 133.999 14.924, 130.282 13.357 C 126.623 11.814, 126.314 11.799, 123.308 13.010 M 122.655 16.829 C 120.383 19.340, 120.579 25.236, 123.102 30.290 C 125.128 34.347, 134.618 45, 136.206 45 C 136.631 45, 138.600 42.559, 140.581 39.576 C 143.083 35.808, 143.985 33.527, 143.534 32.108 C 142.229 27.995, 134.206 18.326, 130.731 16.677 C 126.223 14.538, 124.702 14.566, 122.655 16.829 M 161.437 18.875 C 159.752 19.903, 156.185 23.305, 153.510 26.436 L 148.646 32.129 148.740 55.815 C 148.791 68.842, 149.343 83.325, 149.968 88 C 151.110 96.553, 154.381 105.070, 156.807 105.808 C 158.610 106.356, 164.931 99.460, 168.243 93.332 C 170.658 88.862, 170.850 87.870, 169.855 85.015 C 169.015 82.605, 169.017 76.994, 169.863 63.128 C 171.687 33.214, 171.066 22.209, 167.343 18.485 C 165.455 16.598, 165.137 16.619, 161.437 18.875 M 104.949 27.776 C 104.153 30.433, 104.082 32.324, 104.735 33.491 C 105.505 34.867, 105.858 34.130, 106.405 30.001 C 107.261 23.554, 106.542 22.457, 104.949 27.776 M 131.832 58.815 C 129.319 63.042, 124.256 71.997, 120.581 78.715 C 113.972 90.795, 113.912 90.974, 115.119 95.001 C 116.858 100.809, 120.237 104.214, 123.192 103.139 C 126.958 101.769, 131.435 94.903, 134.423 85.919 C 136.683 79.123, 137.324 75.070, 137.749 64.894 C 138.057 57.513, 137.887 52.048, 137.338 51.709 C 136.823 51.390, 134.345 54.588, 131.832 58.815 M 101.592 77.645 C 101.004 80.387, 97.048 107.707, 97.016 109.250 C 97.007 109.662, 97.861 110, 98.914 110 C 100.304 110, 102.219 107.418, 105.918 100.557 L 111.009 91.113 109.981 83.867 C 109.416 79.881, 108.819 76.485, 108.654 76.320 C 108.489 76.156, 106.971 75.744, 105.279 75.406 C 102.507 74.851, 102.145 75.072, 101.592 77.645 M 82.500 114.171 C 65.464 116.108, 56 119.063, 56 122.445 C 56 124.700, 63 130.038, 74.954 136.898 C 81.154 140.456, 85.723 143.677, 85.246 144.154 C 84.769 144.631, 80.639 144.048, 75.944 142.842 C 62.725 139.446, 54.710 141.662, 51.379 149.636 C 46.672 160.901, 54.405 178.522, 66.218 183.449 C 71.545 185.671, 78.993 185.397, 85.213 182.750 C 90.368 180.556, 91.400 180.500, 126.500 180.500 C 163.553 180.500, 167.239 180.146, 168.657 176.451 C 168.990 175.583, 168.678 173.664, 167.963 172.186 C 167.248 170.709, 165.663 164.688, 164.441 158.806 C 162.090 147.493, 159.624 141.321, 156.761 139.581 C 154.214 138.033, 150.519 142.147, 144.482 153.250 C 141.697 158.372, 138.714 162.624, 137.779 162.804 C 136.590 163.033, 135.224 161.417, 133.141 157.314 C 131.517 154.116, 128.754 149.533, 127 147.129 C 123.043 141.703, 122.290 142.288, 118.554 153.699 C 115.431 163.238, 112.769 167.565, 108.078 170.726 C 103.640 173.717, 95.122 173.807, 87.849 170.941 C 83.006 169.032, 66 158.632, 66 157.579 C 66 157.323, 68.616 157.150, 71.814 157.195 C 82.714 157.350, 87.392 154.793, 100.500 141.512 C 104.900 137.054, 110.300 132.550, 112.500 131.502 C 117.949 128.906, 128.366 128.383, 135.177 130.363 C 140.383 131.877, 140.977 131.841, 150.336 129.466 C 176.384 122.857, 172.421 121.004, 127.698 118.879 L 102.895 117.701 100.075 121.079 C 97.623 124.016, 97.043 124.281, 95.628 123.106 C 94.578 122.235, 94 120.201, 94 117.378 C 94 113.825, 93.670 113.025, 92.250 113.131 C 91.287 113.203, 86.900 113.671, 82.500 114.171" stroke="none" fill="black" fill-rule="evenodd"/>
</svg>