<svg xmlns="http://www.w3.org/2000/svg" width="200" height="200" viewBox="0 0 200 200" version="1.1">
	<path d="M 132.996 8.750 C 132.994 9.162, 132.071 11.011, 130.945 12.859 C 129.036 15.989, 128.777 16.108, 127.120 14.609 C 126.142 13.724, 125.029 13, 124.646 13 C 123.644 13, 126.758 18.753, 127.980 19.160 C 129.106 19.535, 119.989 49.999, 118.750 50 C 118.338 50, 118 47.102, 118 43.559 C 118 37.301, 116.832 34.389, 115.605 37.588 C 114.443 40.616, 115.013 49.213, 116.550 51.846 C 117.964 54.267, 117.941 55.019, 116.283 60.422 C 114.581 65.968, 114.196 66.435, 110.242 67.753 C 105.219 69.427, 99.309 75.838, 98.420 80.577 C 97.556 85.182, 71.602 110.572, 59.763 118.394 C 51.635 123.765, 34.079 132.413, 33.164 131.497 C 31.392 129.726, 36.157 123.628, 51.617 107.881 C 68.606 90.576, 69.114 89.938, 68.812 86.297 C 68.347 80.709, 65.870 79.871, 56.776 82.224 C 44.991 85.274, 36.583 82.919, 37.191 76.737 C 37.879 69.740, 51.031 67.386, 64.786 71.797 L 71.072 73.813 77.894 68.377 C 85.029 62.693, 88.762 57.427, 87.671 54.585 C 86.633 51.881, 81.363 50.330, 67.107 48.534 C 51.412 46.556, 40.813 43.652, 41.619 41.550 C 41.914 40.782, 43.761 39.392, 45.725 38.460 C 48.767 37.017, 53.163 36.742, 75.398 36.605 C 94.385 36.488, 102.386 36.085, 104.749 35.125 C 108.262 33.698, 108.160 31.354, 104.637 32.554 C 103.462 32.954, 89.879 33.556, 74.453 33.891 C 43.955 34.553, 43.211 34.696, 39.319 40.635 C 37.691 43.121, 37.701 43.308, 39.538 44.652 C 42.603 46.893, 50.633 48.982, 62.500 50.627 C 84.940 53.736, 86.861 54.517, 83.747 59.258 C 82.937 60.491, 79.625 63.556, 76.387 66.070 L 70.500 70.639 65 68.881 C 56.813 66.263, 45.556 66.429, 39.963 69.250 C 32.753 72.886, 31.924 80.154, 38.277 84.027 C 42.198 86.418, 52.358 86.699, 59.300 84.610 C 62.944 83.513, 64.269 83.476, 65.577 84.433 C 67.117 85.558, 67.109 85.889, 65.464 89.072 C 64.490 90.958, 57.193 98.800, 49.250 106.500 C 41.307 114.200, 33.726 122.340, 32.404 124.588 C 29.779 129.052, 29.253 133.776, 31.294 134.559 C 32.889 135.171, 45.271 130.139, 53.519 125.527 C 63.814 119.769, 71.905 113.256, 86.151 99.258 C 97.653 87.956, 99.972 85.170, 100.882 81.556 C 101.618 78.633, 103.242 76.111, 105.984 73.634 C 109.680 70.295, 113.011 68.924, 112.992 70.750 C 112.959 74.045, 108.671 84.575, 106.570 86.522 C 103.842 89.051, 103.408 91.025, 104.947 93.900 C 105.620 95.158, 105.028 98.462, 102.900 105.334 C 100.181 114.116, 99.683 115, 97.454 115 C 94.479 115, 94.191 116.976, 97.057 117.725 C 98.409 118.079, 98.910 118.792, 98.519 119.810 C 98.193 120.661, 96.759 126.012, 95.333 131.702 C 91.449 147.205, 89.700 149.420, 71.480 161.915 C 67.619 164.563, 63.187 168.565, 61.632 170.809 C 58.413 175.454, 57.755 181.184, 60.164 183.592 C 62.590 186.019, 69.116 186.454, 74.793 184.569 C 79.905 182.871, 90.475 176.164, 92.770 173.161 C 96.633 168.109, 103.681 161.930, 106.729 160.924 C 111.671 159.293, 119.692 160.210, 125.449 163.063 C 128.153 164.403, 136.246 169.883, 143.433 175.241 C 150.620 180.599, 157.302 184.986, 158.282 184.991 C 164.046 185.020, 172 178.648, 172 174.002 C 172 167.239, 161.373 158.154, 141.476 147.908 C 129.928 141.961, 129.032 141.293, 129.016 138.616 C 128.952 127.302, 119.383 116.974, 107.451 115.338 C 104.750 114.968, 103.061 114.263, 103.302 113.607 C 103.525 112.998, 104.710 109.463, 105.935 105.750 C 107.161 102.038, 108.594 99, 109.121 99 C 109.648 99, 111.974 100.002, 114.290 101.227 C 120.316 104.414, 131.934 104.426, 137.307 101.250 C 139.401 100.012, 141.201 99, 141.307 98.999 C 141.413 98.999, 141.500 105.250, 141.500 112.891 C 141.500 125.147, 141.724 127.030, 143.405 128.891 C 144.541 130.149, 146.527 131, 148.326 131 C 152.510 131, 159.272 123.745, 163.599 114.613 C 168.266 104.765, 169.195 99.081, 167.463 90.996 C 165.658 82.574, 165.664 76.118, 167.492 61.462 C 169.281 47.122, 169.432 32.566, 167.841 27.899 C 167.204 26.030, 165.373 22.573, 163.771 20.218 C 160.503 15.412, 153.235 10.043, 152.173 11.650 C 151.803 12.210, 149.287 16.231, 146.582 20.584 C 140.704 30.044, 140.856 29.866, 140.221 28.073 C 139.943 27.289, 138.042 24.814, 135.997 22.573 C 132.398 18.631, 132.320 18.387, 133.563 15 C 135.150 10.676, 135.317 8, 134 8 C 133.450 8, 132.998 8.338, 132.996 8.750 M 148.088 23.246 C 143.455 30.755, 143 32.028, 142.995 37.496 C 142.988 45.928, 138.212 53.249, 131.308 55.411 C 129.635 55.935, 124 63.757, 124 65.555 C 124 65.722, 126.556 66.601, 129.680 67.509 C 142.201 71.149, 146.191 81.401, 137.410 87.368 C 134.201 89.548, 133.787 89.586, 126.786 88.358 C 115.310 86.344, 113.366 86.530, 112.200 89.750 C 111.653 91.263, 110.886 93.286, 110.496 94.247 C 109.930 95.646, 110.856 96.491, 115.144 98.487 C 125.305 103.217, 136.356 101.112, 143.112 93.160 L 146.222 89.500 145.548 94 C 142.678 113.172, 142.727 124.584, 145.693 127.550 C 147.779 129.636, 148.537 129.413, 152.977 125.402 C 160.731 118.396, 167.423 100.855, 165.241 93.252 C 162.931 85.198, 162.883 77.485, 165.027 59 C 167.343 39.029, 167.142 33.525, 163.812 25.784 C 161.916 21.378, 156.145 15, 154.053 15 C 153.571 15, 150.886 18.711, 148.088 23.246 M 127.085 34.730 C 124.845 41.855, 122.729 49.106, 122.381 50.843 C 121.807 53.716, 121.976 54, 124.266 54 C 126.407 54, 127.704 52.419, 132.968 43.394 C 139.871 31.562, 139.946 30.196, 134.006 24.505 L 131.156 21.776 127.085 34.730 M 139.288 38.226 C 136.551 41.726, 131.195 52, 132.108 52 C 134.258 52, 138.878 46.168, 139.985 42.057 C 141.198 37.551, 140.938 36.117, 139.288 38.226 M 119.119 60.443 C 117.728 65.967, 117.729 66.002, 119.250 65.992 C 119.938 65.987, 121.520 64.106, 122.766 61.811 C 124.517 58.587, 124.744 57.455, 123.766 56.834 C 121.272 55.251, 120.221 56.067, 119.119 60.443 M 115.281 73.241 C 114.659 75.574, 114.256 77.589, 114.386 77.719 C 114.516 77.850, 115.602 75.941, 116.798 73.478 C 118.340 70.305, 118.601 69, 117.694 69 C 116.989 69, 115.904 70.909, 115.281 73.241 M 118.504 76.123 L 114.963 83.500 118.232 84.162 C 130.127 86.573, 133.517 86.803, 135.796 85.354 C 137.058 84.551, 138.599 82.780, 139.219 81.418 C 140.153 79.368, 140.006 78.474, 138.359 76.221 C 136.051 73.062, 130.643 70.141, 125.584 69.320 L 122.044 68.745 118.504 76.123 M 100.988 121.281 C 94.097 148.403, 91.980 151.813, 75.384 162.538 C 64.363 169.659, 59.505 176.337, 61.980 180.962 C 63.761 184.291, 70.364 183.684, 78.918 179.405 C 84.122 176.801, 88.365 173.535, 94.302 167.562 C 103.476 158.332, 107.185 156.519, 115.488 157.207 C 122.719 157.807, 129.309 161.309, 144.393 172.569 C 158.488 183.089, 159.740 183.457, 166.084 178.940 C 174.496 172.951, 165.020 162.931, 137.829 149.065 L 127.172 143.630 126.503 139.065 C 124.673 126.564, 118.024 119.847, 105.280 117.624 C 102.190 117.085, 102.017 117.232, 100.988 121.281" stroke="none" fill="black" fill-rule="evenodd"/>
</svg>