<svg xmlns="http://www.w3.org/2000/svg" width="200" height="200" viewBox="0 0 200 200" version="1.1">
	<path d="M 141 20.432 C 135.077 23.634, 81.541 25.598, 56.250 23.540 C 48.479 22.908, 47 23.020, 47 24.242 C 47 25.382, 49.299 25.837, 57.656 26.348 C 81.453 27.804, 124 26.799, 138 24.450 C 141.494 23.863, 141.487 23.876, 133.747 31.706 L 125.994 39.550 115.723 39.170 C 110.008 38.959, 98.587 39.538, 89.976 40.477 C 71.392 42.504, 64.195 41.965, 56.243 37.954 C 53.034 36.335, 50.150 35.450, 49.665 35.935 C 48.664 36.936, 56.235 41.627, 61.166 43.061 C 66.312 44.557, 80.553 44.309, 97.858 42.423 C 108.807 41.230, 115.053 40.981, 118.407 41.604 L 123.225 42.500 119.363 46.731 C 115.640 50.810, 115.192 51.001, 107 52.027 C 102.325 52.612, 85.916 53.408, 70.536 53.796 L 42.572 54.500 41.658 58.370 C 40.956 61.345, 41.123 63.036, 42.382 65.676 C 44.755 70.651, 49.363 72.274, 61 72.236 C 69.267 72.208, 89.830 70.031, 96.874 68.437 C 98.704 68.023, 97.239 70.145, 90.481 77.700 C 85.659 83.090, 81.390 87.866, 80.994 88.313 C 80.597 88.761, 77.260 86.846, 73.577 84.058 C 66.732 78.877, 63.195 76.776, 59.297 75.574 C 57.222 74.934, 57.294 75.281, 60.547 81.520 C 66.382 92.714, 64.971 99.026, 56 101.859 C 54.075 102.467, 47.365 103.675, 41.090 104.543 C 28.713 106.257, 22.566 108.664, 20.829 112.477 C 19.210 116.028, 20.245 117.483, 26.596 120.591 C 31.200 122.843, 34.080 123.483, 41.123 123.820 L 49.908 124.240 46.454 128.764 C 44.554 131.252, 43 133.673, 43 134.144 C 43 135.673, 46.122 135.049, 48.727 133 C 51.156 131.089, 55.575 130.179, 54.794 131.750 C 47.074 147.290, 46.899 147.993, 49.742 152.027 C 50.993 153.803, 51.391 155.955, 51.155 159.660 C 50.746 166.083, 53.503 172.798, 57.808 175.863 C 65.121 181.070, 66.843 181.270, 107 181.580 C 127.625 181.739, 146.094 181.457, 148.043 180.952 C 156.395 178.789, 158.598 171.907, 152.750 166.247 C 145.173 158.914, 133.670 157.626, 122.487 162.860 C 118.832 164.570, 112.937 166.475, 109.387 167.093 C 95.092 169.582, 88.317 165.633, 82.935 151.672 C 81.202 147.177, 78.959 141.882, 77.951 139.905 C 75.456 135.013, 69.865 130.310, 64.979 128.994 L 60.932 127.905 62.945 125.078 C 64.688 122.630, 66.066 122.069, 73.229 120.890 C 80.937 119.622, 96.885 119.140, 108.500 119.824 C 111.250 119.986, 117.037 119.815, 121.359 119.445 C 126.379 119.014, 135.455 119.389, 146.477 120.484 C 160.340 121.860, 164.826 121.970, 169.285 121.045 C 176.949 119.454, 180 116.290, 180 109.935 C 180 107.010, 179.416 104.559, 178.501 103.643 C 176.144 101.287, 166.597 100.596, 155.035 101.945 C 135.114 104.270, 130.633 104.379, 127.229 102.618 C 123.953 100.924, 122.017 96.463, 122.006 90.582 C 121.998 86.729, 124.052 74.692, 124.870 73.793 C 125.224 73.405, 128.433 75.558, 132.001 78.578 C 139.159 84.637, 143.024 86.175, 147.369 84.697 C 151.153 83.410, 154.570 75.975, 156.097 65.703 C 157.117 58.851, 157.795 57.248, 162.060 51.614 C 168.475 43.140, 176.318 31.060, 177.927 27.175 C 179.364 23.708, 178.856 21.266, 176.511 20.366 C 171.911 18.601, 146.330 36.850, 123.405 58.250 C 117.499 63.763, 117.025 64, 111.907 64 L 106.568 64 111.915 58.586 C 115.913 54.538, 118.428 52.879, 121.881 52.015 C 124.422 51.379, 128.525 49.961, 131 48.864 L 135.500 46.869 132.124 43.836 L 128.749 40.804 135.202 34.152 C 138.751 30.493, 142.861 25.999, 144.334 24.165 C 148.147 19.419, 146.430 17.496, 141 20.432 M 167.688 26.429 C 160.958 30.481, 147.548 40.686, 136.838 49.905 C 129.651 56.091, 129.067 56.900, 127.422 62.954 L 125.668 69.407 131.584 74.704 C 139.091 81.426, 143.416 83.587, 146.526 82.170 C 149.415 80.854, 152.629 72.501, 153.561 63.886 C 154.200 57.982, 154.777 56.799, 161.207 48.222 C 168.585 38.381, 176 26.372, 176 24.266 C 176 22.202, 173.725 22.794, 167.688 26.429 M 123.039 46.458 C 120.342 49.330, 120.676 49.477, 126.162 47.833 C 130.182 46.629, 130.826 44.721, 127.385 44.208 C 126.292 44.046, 124.372 45.040, 123.039 46.458 M 104 55.042 C 100.975 55.460, 86.471 55.847, 71.769 55.901 L 45.038 56 44.375 58.640 C 43.416 62.463, 45.104 66.272, 48.523 67.998 C 52.755 70.133, 69.031 69.758, 87.445 67.100 C 95.665 65.914, 102.415 64.834, 102.445 64.700 C 102.475 64.567, 104.733 62.105, 107.462 59.229 C 110.192 56.353, 111.767 54.063, 110.962 54.141 C 110.158 54.218, 107.025 54.624, 104 55.042 M 122.143 64.907 C 121.137 65.532, 121.090 65.937, 121.960 66.475 C 123.332 67.323, 124.362 66.572, 123.854 65.095 C 123.646 64.489, 122.940 64.412, 122.143 64.907 M 101.150 70.661 C 98.954 72.863, 97.983 74.485, 98.711 74.731 C 99.824 75.107, 113 68.360, 113 67.414 C 113 67.186, 111.155 67, 108.900 67 C 105.511 67, 104.167 67.635, 101.150 70.661 M 116.178 68.869 C 115.451 69.330, 110.803 73.706, 105.849 78.593 C 97.636 86.698, 96.893 87.744, 97.413 90.490 C 97.726 92.145, 98.273 96.078, 98.628 99.229 C 99.485 106.830, 97.752 107.632, 91.313 102.616 C 88.760 100.627, 86.328 99, 85.908 99 C 85.183 99, 67.908 118.263, 68.310 118.623 C 68.414 118.717, 74.125 118.089, 81 117.228 C 91.300 115.937, 95.120 115.865, 102.706 116.822 C 108.933 117.608, 112.756 117.663, 114.521 116.992 C 118.226 115.583, 129.476 115.777, 144 117.500 C 166.397 120.157, 174.165 119.243, 176.489 113.681 C 177.220 111.931, 177.591 109.310, 177.313 107.855 C 176.467 103.432, 170.172 102.981, 146.426 105.643 C 131.765 107.287, 131.247 107.281, 127.491 105.417 C 121.458 102.422, 119.720 99.289, 119.673 91.319 C 119.651 87.569, 120.217 81.458, 120.931 77.741 C 121.964 72.365, 121.977 70.677, 120.992 69.491 C 119.605 67.819, 118.134 67.629, 116.178 68.869 M 100.500 77.528 C 98.850 78.278, 96.713 78.662, 95.750 78.379 C 93.787 77.803, 93.353 80.437, 94.988 83 C 95.778 84.238, 96.689 83.758, 100.208 80.250 C 102.552 77.912, 104.252 76.037, 103.985 76.081 C 103.718 76.126, 102.150 76.777, 100.500 77.528 M 64.262 82.241 C 67.711 91.230, 67.541 97.208, 63.735 100.773 C 60.436 103.863, 57.010 104.883, 42.642 107.054 C 28.956 109.122, 23.500 111.258, 23.500 114.551 C 23.500 118.570, 44.408 123.755, 50.768 121.313 C 52.016 120.834, 58.664 113.930, 65.543 105.971 L 78.049 91.500 73.998 87.950 C 68.409 83.052, 63.460 80.150, 64.262 82.241 M 87.250 85.235 C 82.603 89.981, 82.216 91.105, 84.561 93.050 C 85.886 94.150, 86.664 93.802, 89.725 90.742 C 92.975 87.492, 93.239 86.831, 92.414 84.016 L 91.500 80.894 87.250 85.235 M 90.672 93.820 L 87.970 96.641 92.051 99.921 C 94.296 101.725, 96.368 102.966, 96.655 102.678 C 97.345 101.988, 94.873 91, 94.028 91 C 93.668 91, 92.158 92.269, 90.672 93.820 M 68.551 106.547 C 62.081 114.012, 56.950 120.284, 57.150 120.484 C 57.350 120.683, 58.923 120.544, 60.647 120.173 C 63.031 119.661, 66.181 116.719, 73.833 107.853 C 83.342 96.837, 83.789 96.119, 82.100 94.591 C 80.421 93.071, 79.611 93.786, 68.551 106.547 M 55.248 123.706 C 54.009 123.945, 52.531 125.008, 51.963 126.070 C 51.036 127.802, 51.281 128, 54.350 128 C 56.895 128, 58.189 127.360, 59.408 125.500 C 61.200 122.765, 60.872 122.623, 55.248 123.706 M 54.624 137.896 C 50.576 145.599, 50.061 149.427, 52.869 150.930 C 54.496 151.801, 54.674 152.817, 54.248 158.780 C 53.464 169.735, 57.120 174.492, 68.627 177.493 C 73.163 178.675, 80.647 179.038, 101.500 179.088 C 116.350 179.124, 132.100 179.199, 136.500 179.256 C 149.992 179.429, 155.696 176.181, 152.558 170.111 C 150.264 165.676, 142.927 162.514, 135 162.545 C 129.686 162.566, 127.405 163.143, 122.500 165.708 C 112.794 170.784, 98.245 171.877, 91.123 168.066 C 87.291 166.015, 83.106 159.895, 80.023 151.836 C 75.275 139.419, 72.712 135.523, 67.698 133.096 C 60.232 129.482, 58.762 130.022, 54.624 137.896" stroke="none" fill="black" fill-rule="evenodd"/>
</svg>