<svg xmlns="http://www.w3.org/2000/svg" width="200" height="200" viewBox="0 0 200 200" version="1.1">
	<path d="M 145 10.676 C 145 12.264, 139.466 13.867, 130.234 14.954 C 114.412 16.817, 102.071 22.887, 100.376 29.638 C 99.974 31.239, 98.873 31.932, 96.166 32.288 C 94.150 32.552, 90.475 33.541, 88 34.484 C 84.873 35.676, 79.552 36.320, 70.561 36.595 C 47.323 37.306, 34 39.822, 34 43.500 C 34 45.966, 39.397 47.708, 59.478 51.722 C 76.603 55.146, 80.879 56.946, 71.975 56.985 C 68.073 57.002, 42.426 61.382, 37.153 62.932 C 29.312 65.237, 29.823 68.258, 38.327 69.872 C 41.172 70.412, 49.445 71.805, 56.711 72.967 C 77.527 76.298, 85.767 79.807, 84.513 84.806 C 83.921 87.164, 83.991 87.190, 89.206 86.520 C 100.881 85.021, 105.574 82.658, 108.637 76.735 C 110.576 72.985, 109.993 66.198, 106.981 57.449 C 104.279 49.604, 102.032 42, 102.414 42 C 102.582 42, 106.443 47.620, 110.993 54.489 C 118.980 66.548, 119.283 67.216, 119.761 73.900 C 120.420 83.116, 119.496 87.366, 115.955 91.398 C 110.224 97.926, 109.182 97.927, 90.294 91.431 C 75.506 86.346, 72.544 85.648, 65.500 85.591 C 56.418 85.516, 53.097 86.871, 40.403 95.829 C 34.152 100.240, 33.149 101.396, 31.995 105.519 C 30.321 111.498, 31.414 114.750, 36.005 117.447 C 40.990 120.375, 54.166 119.959, 81 116.025 C 95.300 113.928, 105.404 112.961, 111.171 113.136 L 119.842 113.399 126.738 108.813 C 135.881 102.733, 141.879 99.740, 143.597 100.399 C 144.685 100.816, 145 103.446, 145 112.119 L 145 123.301 134.250 122.635 C 109.067 121.074, 84.362 120.757, 77 121.901 C 67.636 123.355, 61.185 126.471, 58.193 130.984 C 55.479 135.080, 54.399 134.339, 69.880 139.008 C 75.590 140.730, 79.865 142.503, 79.380 142.947 C 78.896 143.391, 76.163 144.512, 73.306 145.439 C 62.210 149.038, 57.500 154.248, 57.500 162.924 C 57.500 167.551, 58.197 170.071, 61.001 175.578 C 64.451 182.355, 64.580 182.473, 70.001 183.815 C 73.025 184.563, 81.142 185.249, 88.037 185.338 C 98.610 185.475, 101.006 185.218, 103.332 183.698 C 109.597 179.603, 108.848 171.585, 101.516 164.253 L 97.259 159.996 102.031 152.248 C 107.203 143.849, 113.258 137, 115.510 137 C 117.402 137, 118.769 142.475, 120.026 155.084 C 120.597 160.813, 121.537 168.181, 122.114 171.458 C 124.614 185.653, 130.815 190.686, 140.019 185.990 C 143.502 184.214, 145.267 183.928, 149.497 184.456 C 161.388 185.942, 170.409 180.268, 173.609 169.289 C 176.795 158.357, 175.168 139.872, 169.835 126.398 C 167.865 121.423, 167.074 120.451, 164.774 120.186 C 162.696 119.946, 160.479 117.839, 155.449 111.323 C 151.820 106.622, 148.625 102.185, 148.348 101.464 C 148.071 100.742, 152.707 102.310, 158.673 104.957 C 174.717 112.073, 174 111.993, 174 106.668 C 174 104.211, 175.127 93.494, 176.505 82.851 C 180.504 51.963, 179.800 34.098, 174.228 25.078 C 169.834 17.964, 162.316 12.810, 154.445 11.514 C 152.275 11.157, 149.262 10.635, 147.750 10.353 C 146.238 10.072, 145 10.217, 145 10.676 M 149.393 15.814 C 152.200 21.282, 153.404 30.544, 153.383 46.500 C 153.362 62.866, 152.440 68, 149.525 68 C 148.226 68, 148.004 70.187, 148.029 82.750 L 148.058 97.500 159.127 102.319 C 165.215 104.969, 170.322 106.994, 170.477 106.819 C 170.631 106.643, 172.011 96.825, 173.543 85 C 177.174 56.966, 177.332 40.100, 174.041 31.619 C 170.092 21.445, 162.465 15.309, 151.757 13.693 L 148.015 13.128 149.393 15.814 M 142 15.960 C 141.175 16.423, 136.100 17.297, 130.722 17.902 C 113.870 19.798, 103.845 24.978, 102.430 32.520 C 101.924 35.217, 102.875 37.277, 109.050 46.871 C 113.016 53.032, 116.436 57.897, 116.650 57.683 C 116.865 57.469, 115.907 52.615, 114.521 46.897 C 111.650 35.044, 111.363 29.132, 113.463 25.072 C 115.169 21.772, 116.774 21, 121.925 21 C 125.702 21, 136.694 24.294, 138.310 25.910 C 140.145 27.745, 137.219 27.765, 131.972 25.954 C 124.514 23.380, 117.407 23.371, 116.035 25.934 C 114.225 29.317, 114.931 37.096, 118.374 51.671 L 121.722 65.843 133.111 81.479 L 144.500 97.114 144.774 79.348 C 144.993 65.152, 144.641 59.188, 143.024 49.666 C 140.612 35.467, 140.635 36, 142.434 36 C 143.230 36, 144.052 37.223, 144.284 38.750 C 144.513 40.263, 144.768 35.538, 144.850 28.250 C 144.933 20.962, 144.662 15.026, 144.250 15.059 C 143.838 15.091, 142.825 15.497, 142 15.960 M 148.118 41.500 C 148.028 63.124, 149.181 71.162, 150.545 58.424 C 151.372 50.702, 150.478 29.358, 149.103 24 C 148.483 21.584, 148.178 27.004, 148.118 41.500 M 91.971 36.163 C 88.440 37.775, 84.147 38.388, 71.551 39.082 C 54.796 40.004, 40.452 41.647, 38.209 42.903 C 36.328 43.955, 41.928 45.481, 62.782 49.597 C 72.524 51.520, 81.586 53.809, 82.920 54.683 C 85.133 56.133, 85.199 56.381, 83.671 57.499 C 82.749 58.173, 78.608 59.031, 74.470 59.406 C 64.983 60.266, 39.277 64.745, 37.219 65.898 C 36.144 66.499, 37.940 67.126, 43.085 67.946 C 65.194 71.472, 70.023 72.386, 75.500 74.083 C 82.694 76.311, 85.804 78.355, 87.071 81.687 C 87.937 83.964, 88.373 84.116, 92.258 83.501 C 98.413 82.526, 104.518 79.353, 105.846 76.438 C 107.738 72.286, 107.192 67.557, 103.504 56.148 C 101.581 50.199, 99.720 43.238, 99.369 40.677 C 98.504 34.367, 97.393 33.689, 91.971 36.163 M 122.994 77.550 C 122.983 87.840, 119.099 94.742, 111.404 98.145 L 107.242 99.986 90.371 94.347 C 68.480 87.030, 62.569 86.459, 53.745 90.809 C 46.199 94.528, 36.979 101.267, 35.298 104.292 C 33.086 108.272, 33.694 112.754, 36.713 114.727 C 40.743 117.360, 57.423 116.888, 78.500 113.544 C 87.850 112.060, 100.989 110.689, 107.698 110.496 L 119.896 110.145 125.698 106.213 C 128.889 104.051, 133.525 101.263, 136 100.018 C 138.475 98.773, 140.666 97.606, 140.868 97.425 C 141.182 97.146, 126.343 76.326, 123.853 73.550 C 123.369 73.012, 122.998 74.744, 122.994 77.550 M 148 114.769 L 148 122.538 154.368 122.519 L 160.737 122.500 154.744 114.750 C 151.447 110.487, 148.581 107, 148.375 107 C 148.169 107, 148 110.496, 148 114.769 M 165.071 124.872 C 165.020 126.588, 164.654 126.990, 163.750 126.326 C 163.063 125.820, 159.682 125.581, 156.237 125.793 C 151.140 126.107, 149.767 126.568, 148.857 128.268 C 148.242 129.417, 147.361 137.492, 146.898 146.213 C 145.770 167.508, 143.746 174.571, 140.870 167.250 C 139.467 163.678, 140.505 145.221, 142.519 137.945 C 143.347 134.950, 144.296 131.085, 144.626 129.356 L 145.227 126.212 133.364 125.356 C 126.839 124.885, 110.925 124.500, 98 124.500 C 78.031 124.500, 73.733 124.768, 69.394 126.283 C 63.756 128.251, 58.692 132.608, 61.100 133.419 C 61.870 133.679, 65.650 134.817, 69.500 135.950 C 86.219 140.869, 88.083 143.508, 77.300 146.991 C 68.412 149.863, 65.747 151.324, 62.619 155.041 C 60.777 157.230, 60 159.306, 60 162.039 C 60 166.696, 63.249 175.817, 65.935 178.700 C 70.108 183.179, 98.438 184.629, 102.898 180.592 C 105.340 178.383, 105.587 175.024, 103.589 171.200 C 101.705 167.593, 95.845 162.205, 95.332 163.608 C 95.110 164.218, 94.283 165.568, 93.496 166.608 C 92.168 168.363, 92.061 168.237, 92.032 164.872 C 92.014 162.877, 92.638 160.715, 93.419 160.067 C 94.199 159.420, 96.648 155.842, 98.861 152.117 C 103.530 144.258, 111.192 135.391, 114.117 134.463 C 116.830 133.602, 119.763 136.373, 120.940 140.909 C 121.453 142.884, 122.359 149.675, 122.954 156 C 124.387 171.244, 125.660 177.198, 128.340 181.188 C 131.092 185.286, 134.447 185.833, 139.866 183.068 C 143.163 181.386, 144.968 181.132, 149.928 181.650 C 160.711 182.777, 167.755 178.403, 171.106 168.500 C 174.140 159.531, 171.987 137.964, 166.912 126.500 C 165.464 123.230, 165.128 122.933, 165.071 124.872 M 143.286 152.500 C 143.294 155.250, 143.488 156.256, 143.718 154.736 C 143.947 153.216, 143.941 150.966, 143.704 149.736 C 143.467 148.506, 143.279 149.750, 143.286 152.500" stroke="none" fill="black" fill-rule="evenodd"/>
</svg>