<svg xmlns="http://www.w3.org/2000/svg" width="256" height="256" viewBox="0 0 256 256" version="1.1">
	<path d="M 78.044 75.939 C 76.893 77.555, 75.243 81.943, 74.378 85.689 C 70.523 102.381, 68.083 107.335, 62.750 109.294 C 60.020 110.297, 60.563 113.852, 63.561 114.605 C 65.461 115.081, 66.651 114.679, 68.174 113.044 C 69.752 111.350, 70.837 111.007, 72.863 111.560 C 84.470 114.731, 87.061 113.563, 84.579 106.279 C 82.507 100.196, 82.585 96.880, 85.073 85.395 C 86.214 80.132, 86.903 75.189, 86.605 74.413 C 85.599 71.792, 80.327 72.731, 78.044 75.939 M 105.477 77.037 C 105.125 77.607, 105.182 79.969, 105.603 82.287 C 106.677 88.189, 106.123 96.204, 104.519 97.993 C 101.456 101.408, 106.245 109, 111.461 109 C 115.606 109, 120 102.410, 120 96.193 C 120 86.773, 108.685 71.847, 105.477 77.037 M 96.079 97.583 C 96.127 98.748, 96.364 98.985, 96.683 98.188 C 96.972 97.466, 96.936 96.603, 96.604 96.271 C 96.272 95.939, 96.036 96.529, 96.079 97.583" stroke="none" fill="black" fill-rule="evenodd"/>
</svg>