<svg xmlns="http://www.w3.org/2000/svg" width="256" height="256" viewBox="0 0 256 256" version="1.1">
	<path d="M 100.583 32.244 C 99.775 33.485, 98.657 37.200, 98.100 40.500 C 97.543 43.800, 96.896 47.400, 96.661 48.500 C 96.427 49.600, 95.913 52.444, 95.518 54.819 C 94.707 59.703, 92.240 61.328, 87.923 59.823 C 86.301 59.258, 84.318 59.309, 82.603 59.961 C 78.791 61.410, 74.458 61.256, 73.103 59.624 C 71.756 58.001, 71.454 49.583, 72.487 42.431 C 73.078 38.341, 72.895 37.038, 71.538 35.681 C 69.123 33.266, 67.525 33.587, 64.589 37.077 C 62.667 39.361, 62 41.281, 62 44.528 C 62 49.576, 60.176 58.988, 58.886 60.599 C 58.402 61.203, 53.444 61.975, 47.869 62.315 C 37.220 62.964, 34 64.320, 34 68.155 C 34 72.074, 37.532 73.999, 44.750 74.015 C 48.463 74.023, 52.625 74.605, 54 75.308 C 56.816 76.748, 56.732 75.088, 55.137 97.799 C 54.448 107.606, 54.462 114.830, 55.182 120.799 C 55.758 125.584, 56.389 133.775, 56.584 139 C 57.007 150.347, 57.853 151.438, 67.066 152.508 C 74.255 153.342, 111.246 152.288, 122 150.943 C 126.125 150.427, 133.668 149.580, 138.762 149.062 C 150.064 147.911, 154 145.714, 154 140.554 C 154 138.734, 153.339 136.696, 152.532 136.026 C 150.756 134.553, 143.945 134.535, 134.500 135.980 C 120.259 138.158, 108.985 138.955, 88.596 139.224 L 67.693 139.500 67.151 122.500 C 66.347 97.268, 66.643 80.536, 67.937 78.118 C 68.567 76.940, 70.053 76, 71.285 75.999 C 72.503 75.999, 76.874 75.295, 80.997 74.434 C 89.151 72.733, 94.466 73.167, 95.403 75.609 C 95.732 76.464, 95.997 79.264, 95.994 81.832 C 95.987 87.784, 98.920 110.798, 100.057 113.709 C 100.532 114.924, 102.812 116.884, 105.125 118.064 C 108.822 119.950, 110.841 120.191, 121.809 120.058 C 143.215 119.799, 144.426 118.417, 142.972 95.900 C 141.285 69.753, 141.470 69, 149.617 69 C 153.034 69, 154.671 68.420, 156.545 66.545 C 162.876 60.215, 155.954 53.787, 145.604 56.384 C 141.108 57.513, 140 55.037, 140 43.863 C 140 38.366, 139.534 32.998, 138.965 31.934 C 137.528 29.250, 133.802 29.518, 130.993 32.507 C 128.910 34.724, 128.572 36.275, 128.069 45.926 C 127.756 51.927, 127.174 57.162, 126.775 57.560 C 125.792 58.541, 109.712 58.099, 108.669 57.063 C 108.211 56.609, 107.871 53.371, 107.913 49.869 C 108.049 38.501, 107.050 33.263, 104.417 31.537 C 102.206 30.089, 101.958 30.135, 100.583 32.244 M 107.899 73.621 C 107.048 74.648, 106.880 78.395, 107.311 86.778 C 107.968 99.575, 108.619 103.994, 110.060 105.450 C 111.559 106.965, 127.538 106.629, 129.449 105.042 C 130.818 103.906, 131.061 101.679, 130.937 91.444 C 130.856 84.712, 130.481 77.696, 130.104 75.852 L 129.419 72.500 119.255 72.343 C 111.497 72.224, 108.808 72.526, 107.899 73.621" stroke="none" fill="black" fill-rule="evenodd"/>
</svg>