<svg xmlns="http://www.w3.org/2000/svg" width="256" height="256" viewBox="0 0 256 256" version="1.1">
	<path d="M 91.204 27.750 C 87.628 32.840, 85 45.166, 85 56.854 C 85 63.120, 84.676 64.436, 82.580 66.697 C 81.249 68.132, 79.668 71.263, 79.066 73.653 C 78.464 76.044, 77.611 78, 77.171 78 C 76.731 78, 75.618 79.463, 74.698 81.250 C 73.779 83.037, 72.117 85.625, 71.006 87 C 69.895 88.375, 68.052 92.799, 66.912 96.831 C 65.771 100.863, 64.087 104.974, 63.169 105.966 C 62.251 106.958, 60.397 109.622, 59.049 111.885 C 57.701 114.148, 56.085 116, 55.458 116 C 53.880 116, 46.236 123.636, 44.592 126.855 C 43.849 128.310, 42.913 131.075, 42.512 133 C 42.112 134.925, 40.859 137.508, 39.728 138.740 C 37.735 140.909, 37.728 141.041, 39.491 142.990 C 40.519 144.126, 40.808 145, 40.155 145 C 38.374 145, 38.785 146.385, 40.970 147.749 C 42.586 148.759, 43.170 148.698, 44.220 147.414 C 47.676 143.188, 56.800 134.223, 59.137 132.756 C 60.587 131.847, 62.806 129.392, 64.068 127.301 C 65.330 125.210, 67.659 122.139, 69.243 120.475 C 70.827 118.812, 73.186 114.836, 74.484 111.640 C 75.783 108.445, 78.118 103.999, 79.673 101.761 C 81.228 99.523, 84.323 94.275, 86.552 90.099 C 88.781 85.924, 91.317 82.370, 92.188 82.202 C 93.220 82.003, 94.525 83.454, 95.936 86.368 C 97.127 88.827, 99.653 92.023, 101.550 93.471 C 103.648 95.071, 105 96.967, 105 98.311 C 105 99.526, 106.040 101.642, 107.311 103.012 C 109.903 105.808, 115.599 114.881, 119.641 122.652 C 121.512 126.249, 123.705 128.662, 126.910 130.648 C 129.435 132.212, 133.988 135.829, 137.028 138.686 C 142.297 143.637, 150.192 148, 153.883 148 C 156.095 148, 158 146.079, 158 143.847 C 158 140.101, 155.642 137.174, 150.792 134.903 C 148.044 133.615, 144.506 131.611, 142.931 130.449 C 139.214 127.707, 130.106 116.575, 126.500 110.366 C 124.945 107.690, 123.314 105.259, 122.875 104.965 C 122.437 104.671, 121.379 102.758, 120.525 100.715 C 119.672 98.672, 118.523 97, 117.974 97 C 116.755 97, 112.231 87.464, 111.806 84 C 111.560 81.989, 110.864 81.439, 108.250 81.187 C 106.463 81.014, 104.933 80.564, 104.852 80.187 C 104.770 79.809, 104.606 77.457, 104.486 74.960 C 104.367 72.464, 103.596 69.089, 102.773 67.460 C 101.098 64.147, 99.989 54.230, 99.696 39.955 C 99.419 26.485, 95.774 21.246, 91.204 27.750" stroke="none" fill="black" fill-rule="evenodd"/>
</svg>