<svg xmlns="http://www.w3.org/2000/svg" width="256" height="256" viewBox="0 0 256 256" version="1.1">
	<path d="M 70.497 34.003 C 68.341 35.716, 64.535 40.138, 62.038 43.828 C 56.614 51.849, 48.899 61.822, 43.782 67.427 C 41.736 69.667, 37.962 75.511, 35.395 80.414 C 30.390 89.971, 29.393 95.822, 32.278 98.707 C 33.680 100.108, 34.123 100.049, 36.875 98.089 C 40.895 95.226, 43.487 91.461, 45.063 86.191 C 46.582 81.113, 49.676 78.836, 51.558 81.411 C 53.532 84.110, 54.134 94.654, 53.047 107.500 C 52.489 114.100, 52.025 126.847, 52.016 135.827 L 52 152.154 54.923 155.077 C 56.531 156.685, 58.320 158, 58.900 158 C 63.254 158, 65.233 139.081, 65.544 94.500 C 65.666 76.900, 65.819 61.972, 65.883 61.327 C 65.947 60.681, 67.054 58.881, 68.342 57.327 C 69.630 55.772, 72.418 51.125, 74.539 47 C 76.660 42.875, 79.222 38.407, 80.232 37.071 C 82.345 34.277, 81.348 32.584, 76.958 31.510 C 75.034 31.039, 73.463 31.645, 70.497 34.003 M 114.637 57.188 C 112.096 61.131, 110.051 71.095, 110.878 75.500 C 111.292 77.700, 111.448 88.500, 111.225 99.500 C 110.960 112.630, 111.258 122.379, 112.092 127.881 C 113.284 135.738, 113.246 136.347, 111.490 137.631 C 110.376 138.445, 107.076 139, 103.344 139 C 98.147 139, 96.891 138.665, 96.027 137.050 C 95.350 135.785, 95.074 124.263, 95.242 104.263 C 95.477 76.165, 95.343 73.186, 93.727 70.713 C 91.619 67.487, 90.644 67.356, 88.053 69.947 C 84.007 73.993, 83.556 78.707, 83.748 114.915 C 83.848 133.843, 84.302 149.702, 84.756 150.156 C 86.591 151.991, 95.426 152.510, 113 151.817 C 123.175 151.415, 135.988 151.001, 141.474 150.896 C 151.008 150.715, 151.574 150.580, 154.320 147.834 L 157.193 144.961 156.657 114.675 C 155.965 75.544, 154.503 67, 148.500 67 C 145.114 67, 142.748 70.356, 142.705 75.221 C 142.684 77.574, 143.200 92.270, 143.851 107.877 C 144.743 129.265, 144.751 136.595, 143.885 137.639 C 142.991 138.716, 140.925 138.880, 134.617 138.377 C 130.153 138.021, 125.938 137.286, 125.250 136.743 C 123.596 135.436, 123.470 81.072, 125.106 74.764 C 126.150 70.744, 125.993 70.075, 122.356 63.064 C 120.235 58.974, 117.966 55.458, 117.314 55.252 C 116.661 55.045, 115.457 55.916, 114.637 57.188" stroke="none" fill="black" fill-rule="evenodd"/>
</svg>