<svg xmlns="http://www.w3.org/2000/svg" width="256" height="256" viewBox="0 0 256 256" version="1.1">
	<path d="M 56.230 32.006 C 52.085 34.527, 51.863 38.209, 55.705 40.727 C 58.026 42.249, 61.606 42.571, 80.955 43 C 99.827 43.419, 103.500 43.738, 103.500 44.960 C 103.500 45.763, 101.925 47.425, 100 48.654 C 93.365 52.888, 91.467 54.774, 89.126 59.462 C 86.490 64.740, 86.532 68.551, 89.416 86 C 91.250 97.099, 91.446 108.855, 89.889 114.462 C 89.271 116.689, 87.313 119.775, 85.418 121.511 C 82.247 124.416, 81.466 126.293, 81.842 130.112 C 82.061 132.348, 92.098 133.536, 95.827 131.768 C 99.216 130.160, 101.687 125.039, 102.469 118 C 102.806 114.975, 103.524 109.126, 104.065 105.003 C 105.109 97.046, 104.685 91.572, 102.405 83.568 C 100.523 76.961, 100.623 69.446, 102.640 66.033 L 104.280 63.256 106.769 65.378 C 108.138 66.545, 110.480 70.200, 111.975 73.500 C 113.469 76.800, 115.474 80.149, 116.430 80.942 C 119.643 83.608, 124 90.837, 124 93.501 C 124 96.803, 130.354 104.511, 136.784 109.010 C 143.202 113.500, 145.789 116.302, 146.617 119.662 C 148.346 126.677, 154.070 129.840, 155.406 124.518 C 156.211 121.310, 155.130 114.324, 153.236 110.500 C 151.621 107.239, 145.536 99.215, 143.242 97.322 C 142.456 96.673, 141.222 94.423, 140.499 92.322 C 138.942 87.796, 139.778 85.187, 145.592 76.427 C 150.084 69.660, 151.157 65.469, 149.339 61.800 C 146.664 56.405, 141.636 56.434, 138.879 61.860 C 132.399 74.613, 129.107 75.121, 121.157 64.592 C 118.871 61.563, 117 58.654, 117 58.126 C 117 57.598, 116.537 57.012, 115.970 56.823 C 115.386 56.629, 116.143 54.130, 117.720 51.048 C 120.017 46.561, 121.184 45.387, 124.434 44.297 C 129.887 42.468, 132 40.277, 132 36.454 C 132 33.611, 131.513 33.022, 128 31.617 C 124.619 30.264, 119.003 30.018, 91.730 30.029 C 61.432 30.042, 59.262 30.162, 56.230 32.006 M 71.500 59.523 C 68.750 60.230, 62.098 60.851, 56.717 60.904 C 48.362 60.986, 46.208 61.368, 41.967 63.517 C 36.668 66.202, 35.675 68.668, 38.429 72.301 C 39.559 73.790, 41.329 74.111, 48.648 74.150 C 53.516 74.176, 59.510 73.729, 61.967 73.156 C 67.392 71.892, 69.276 72.985, 68.356 76.864 C 68.012 78.314, 67.214 80.175, 66.582 81 C 65.949 81.825, 63.933 85.690, 62.101 89.588 C 60.269 93.487, 57.755 97.312, 56.515 98.088 C 49.994 102.171, 38.338 120.225, 39.425 124.558 C 40.623 129.329, 48.517 128.206, 51.903 122.784 C 52.584 121.693, 57.497 115.417, 62.821 108.838 C 73.434 95.723, 75.364 92.627, 77.453 85.368 C 78.223 82.691, 79.821 77.827, 81.003 74.561 C 83.341 68.098, 83.080 62.893, 80.260 59.750 C 78.482 57.768, 78.341 57.764, 71.500 59.523 M 58 137.927 C 51.034 138.948, 44 141.995, 44 143.991 C 44 146.518, 49.909 150.981, 53.443 151.122 C 55.124 151.190, 58.075 151.394, 60 151.577 C 65.159 152.067, 135.303 154.400, 143.701 154.360 C 151.828 154.322, 154 153.171, 154 148.901 C 154 142.030, 142.616 139.816, 105.500 139.466 C 90.650 139.327, 75.350 138.723, 71.500 138.126 C 67.650 137.528, 64.050 137.091, 63.500 137.153 C 62.950 137.216, 60.475 137.564, 58 137.927" stroke="none" fill="black" fill-rule="evenodd"/>
</svg>