<svg xmlns="http://www.w3.org/2000/svg" width="256" height="256" viewBox="0 0 256 256" version="1.1">
	<path d="M 78.353 34 C 49.527 34.463, 47.050 34.642, 45.103 36.405 C 42.515 38.749, 42.396 42.144, 44.826 44.343 C 47.701 46.945, 54.360 47.689, 70.648 47.228 C 78.959 46.992, 85.980 47.182, 86.251 47.650 C 86.522 48.117, 84.527 51.875, 81.817 56 C 79.107 60.125, 76.158 65.026, 75.264 66.890 C 74.370 68.755, 72.237 71.108, 70.524 72.119 C 67.059 74.163, 62.658 79.602, 62.477 82.065 C 62.412 82.944, 61.138 85.264, 59.645 87.222 C 55.112 93.164, 46 110.993, 46 113.919 C 46 117.466, 46.357 117.748, 50.146 117.192 C 52.456 116.853, 55.253 114.707, 60.574 109.194 C 64.573 105.049, 68.262 100.723, 68.771 99.579 C 73.496 88.975, 75.265 85.961, 77.977 83.893 C 79.704 82.577, 82.507 80.263, 84.206 78.750 C 87.910 75.454, 88.662 75.358, 89.523 78.073 C 89.959 79.446, 89.613 80.563, 88.499 81.377 C 87.076 82.417, 86.980 83.215, 87.873 86.553 C 88.454 88.724, 88.929 95.900, 88.930 102.500 C 88.931 115.254, 91.270 138.176, 93.164 144 C 93.790 145.925, 95.247 148.505, 96.401 149.733 C 98.893 152.384, 103.506 152.729, 104.426 150.333 C 104.778 149.416, 104.614 143.228, 104.063 136.583 C 103.512 129.937, 102.568 116.293, 101.967 106.261 C 100.950 89.300, 101 87.805, 102.687 84.918 C 104.415 81.958, 104.747 81.832, 109.749 82.238 C 113.756 82.564, 115.932 83.415, 118.941 85.832 C 121.109 87.575, 123.606 89, 124.491 89 C 126.692 89, 132.238 91.956, 133.691 93.904 C 134.346 94.782, 134.658 96.419, 134.385 97.543 C 134.051 98.911, 134.899 100.644, 136.952 102.793 C 138.638 104.557, 140.366 106, 140.793 106 C 141.220 106, 142.305 107.247, 143.205 108.770 C 144.105 110.294, 146.785 112.527, 149.160 113.733 C 152.876 115.620, 153.759 115.741, 155.489 114.599 C 158.753 112.443, 158.373 109.730, 154.045 104.294 C 151.820 101.500, 150 98.716, 150 98.107 C 150 97.498, 149.600 97, 149.111 97 C 148.623 97, 147.943 95.510, 147.601 93.689 C 147.204 91.571, 145.363 88.837, 142.490 86.099 C 140.021 83.745, 138 81.428, 138 80.948 C 138 80.469, 136.175 79.586, 133.944 78.985 C 131.714 78.384, 129.126 76.991, 128.194 75.888 C 127.262 74.786, 125.150 73.235, 123.500 72.442 C 121.850 71.649, 119.600 69.651, 118.500 68.003 C 116.903 65.609, 115.795 65.012, 113 65.038 C 111.075 65.056, 108.385 65.688, 107.021 66.443 C 104.914 67.609, 104.135 67.604, 101.821 66.407 C 100.324 65.633, 98.353 65, 97.441 65 C 95.376 65, 96.145 61.110, 98.995 57.150 C 100.043 55.692, 101.064 52.925, 101.264 51 L 101.628 47.500 124.243 47 C 145.220 46.536, 147.063 46.348, 149.680 44.401 C 152.936 41.978, 153.723 38.372, 151.624 35.499 C 150.245 33.614, 149.005 33.500, 129.831 33.500 C 118.649 33.500, 95.484 33.725, 78.353 34" stroke="none" fill="black" fill-rule="evenodd"/>
</svg>