<svg xmlns="http://www.w3.org/2000/svg" width="256" height="256" viewBox="0 0 256 256" version="1.1">
	<path d="M 71.279 33.517 C 70.088 34.351, 66.811 38.846, 63.996 43.506 C 61.182 48.166, 58.289 52.568, 57.569 53.288 C 56.849 54.008, 55.506 56.055, 54.585 57.835 C 51.926 62.978, 40.113 79.996, 35.152 85.830 C 30.609 91.174, 28.913 96.548, 29.813 102.750 C 30.609 108.236, 37.881 103.790, 45.626 93.081 C 51.594 84.829, 53.233 83.661, 54.508 86.750 C 54.906 87.713, 55.365 100.425, 55.528 115 C 55.814 140.414, 56.914 154.102, 58.980 157.963 C 61.053 161.837, 66.213 161.369, 67.897 157.155 C 69.301 153.642, 69.521 145.774, 68.742 127 C 68.389 118.475, 68.449 108.356, 68.876 104.512 C 69.304 100.667, 69.241 95.495, 68.737 93.012 C 68.233 90.531, 67.748 82.650, 67.660 75.500 L 67.500 62.500 72.831 52 C 75.764 46.225, 78.801 40.790, 79.581 39.921 C 81.505 37.781, 81.364 35.640, 79.171 33.655 C 76.893 31.593, 74.096 31.544, 71.279 33.517 M 118.717 43.582 C 101.351 44.727, 98.420 45.170, 94.717 47.208 C 90.082 49.760, 88.874 52.822, 91.609 55.088 C 92.869 56.131, 96.341 56.489, 104.907 56.456 C 111.283 56.432, 116.789 56.830, 117.142 57.340 C 117.495 57.850, 117.357 59.670, 116.835 61.384 C 116.314 63.098, 116.025 69.450, 116.193 75.500 L 116.500 86.500 105.759 86.617 C 93.365 86.753, 86.612 88.268, 82.825 91.762 C 77.576 96.606, 80.817 98.069, 101 99.963 C 107.875 100.609, 114.400 101.312, 115.500 101.526 C 117.409 101.897, 117.500 102.711, 117.500 119.421 C 117.500 133.658, 117.220 137.209, 115.998 138.430 C 114.949 139.479, 111.634 140.066, 104.998 140.376 C 94.955 140.846, 92.573 141.382, 89.750 143.807 C 87.853 145.436, 87.461 149.598, 88.978 152 C 90.972 155.157, 152.495 152.871, 157.722 149.446 C 160.947 147.334, 160.772 142.753, 157.365 140.073 C 155.022 138.230, 153.360 138, 142.365 138 C 135.564 138, 129.965 137.662, 129.922 137.250 C 129.879 136.838, 129.724 128.700, 129.579 119.166 L 129.314 101.831 131.722 100.916 C 133.046 100.412, 137.138 99.977, 140.815 99.949 C 152.980 99.855, 160.849 98.583, 162.463 96.449 C 164.503 93.751, 164.354 91.354, 162 89 C 160.167 87.167, 158.667 87, 144.049 87 L 128.097 87 128.582 78.250 C 129.697 58.145, 129.728 57.919, 131.588 56.559 C 132.582 55.832, 136.578 55.033, 140.467 54.784 C 149.817 54.184, 153.406 52.449, 153.806 48.339 C 154.035 45.983, 153.540 44.791, 151.834 43.596 C 149.182 41.739, 146.692 41.738, 118.717 43.582" stroke="none" fill="black" fill-rule="evenodd"/>
</svg>