<svg xmlns="http://www.w3.org/2000/svg" width="256" height="256" viewBox="0 0 256 256" version="1.1">
	<path d="M 88.138 31.862 C 87.034 32.966, 85.666 35.551, 85.099 37.605 C 83.757 42.464, 85.674 46.663, 91.626 51.902 C 94.032 54.020, 96 56.249, 96 56.857 C 96 58.505, 93.324 58.852, 72 59.968 C 61.275 60.529, 50.982 61.426, 49.127 61.960 C 41.381 64.190, 39.026 67.904, 43.049 71.545 C 44.936 73.252, 46.844 73.377, 66.976 73.118 L 88.853 72.836 89.380 77.168 C 90.492 86.312, 90.895 95.004, 90.212 95.108 C 89.821 95.168, 84.601 95.373, 78.613 95.566 C 66.122 95.966, 57.275 97.521, 54.750 99.759 C 52.371 101.867, 52.479 106.651, 54.934 107.965 C 55.998 108.534, 61.961 109.004, 68.184 109.009 C 74.408 109.013, 81.750 109.288, 84.500 109.618 L 89.500 110.218 89.150 124.359 C 88.950 132.432, 88.365 138.770, 87.786 139.129 C 87.229 139.475, 77.433 139.529, 66.016 139.249 C 45.587 138.748, 45.225 138.775, 43.043 140.957 C 40.487 143.513, 40.877 147.228, 44.040 150.450 C 46.478 152.932, 59.428 153.671, 97 153.471 C 111.575 153.393, 128 153.643, 133.500 154.026 C 145.658 154.872, 148.685 154.411, 150.651 151.410 C 155.343 144.250, 146.958 141.154, 117 138.985 C 106.240 138.206, 103.246 137.663, 102.250 136.313 C 101.410 135.174, 101 130.592, 101 122.344 C 101 111.427, 101.204 109.961, 102.850 109.081 C 103.922 108.506, 109.907 108.277, 117.100 108.534 C 131.939 109.065, 136.015 108.123, 135.968 104.172 C 135.928 100.796, 134.101 98.369, 130.599 97.038 C 127.706 95.938, 106.187 93.766, 105.063 94.461 C 104.701 94.685, 103.791 94.489, 103.040 94.025 C 101.065 92.804, 101.030 75.873, 102.998 73.503 C 104.288 71.948, 106.265 71.825, 122.886 72.263 L 141.342 72.749 143.767 70.324 C 145.637 68.454, 146.039 67.282, 145.525 65.200 C 145.158 63.715, 144.500 62.132, 144.061 61.682 C 142.749 60.336, 132.294 59.247, 119 59.073 C 106.620 58.910, 101.979 58.382, 102.022 57.142 C 102.034 56.789, 102.924 55.375, 104 54 C 106.929 50.255, 106.466 48.261, 101.250 42.161 C 98.638 39.106, 96.050 35.731, 95.500 34.661 C 94.950 33.591, 93.520 32.072, 92.323 31.285 C 90.375 30.003, 89.936 30.064, 88.138 31.862" stroke="none" fill="black" fill-rule="evenodd"/>
</svg>