<svg xmlns="http://www.w3.org/2000/svg" width="256" height="256" viewBox="0 0 256 256" version="1.1">
	<path d="M 95.913 26.256 C 90.764 30.292, 91.102 37.124, 96.687 41.895 L 100.322 45 97.411 45.152 C 95.810 45.236, 94.050 45.379, 93.500 45.469 C 92.950 45.560, 86.650 45.980, 79.500 46.403 C 59.792 47.568, 51.969 48.719, 46.735 51.222 C 41.222 53.858, 40.840 56.064, 45.321 59.400 C 48.674 61.896, 54.599 62.033, 79.500 60.189 C 88.300 59.538, 99.423 58.716, 104.218 58.363 C 115.379 57.542, 122 59.118, 122 62.595 C 122 63.879, 121.145 65.387, 120.101 65.946 C 117.621 67.273, 111.140 76.912, 107.626 84.500 C 104.184 91.929, 100.852 96.984, 99.391 96.993 C 98.781 96.997, 96.289 98.754, 93.854 100.898 C 91.418 103.041, 87.649 105.538, 85.476 106.445 C 80.105 108.690, 77.309 111.503, 73.990 118 C 69.828 126.149, 65.784 129.504, 56.490 132.518 C 46.016 135.915, 41.508 138.930, 39.980 143.561 C 38.892 146.859, 38.983 147.427, 40.908 149.352 C 42.959 151.403, 43.149 151.420, 45.771 149.779 C 54.962 144.027, 65.228 139.812, 71.599 139.173 C 76.925 138.639, 78.367 138.138, 78.569 136.748 C 79.139 132.826, 83.331 126.143, 88.997 120.121 C 92.299 116.613, 95 113.385, 95 112.949 C 95 112.512, 96.596 111.628, 98.546 110.985 C 100.795 110.243, 102.950 108.477, 104.438 106.157 C 105.728 104.146, 109.762 99.218, 113.401 95.207 C 117.041 91.195, 121.550 84.873, 123.421 81.157 C 125.292 77.441, 128.213 72.913, 129.912 71.094 C 131.610 69.276, 133 67.486, 133 67.117 C 133 65.945, 139.147 61, 140.603 61 C 142.406 61, 146 57.411, 146 55.611 C 146 50.947, 140.540 48.748, 122 45.946 C 113.132 44.606, 110.585 43.524, 111.384 41.441 C 111.646 40.760, 110.448 38.283, 108.722 35.937 C 106.997 33.591, 104.891 30.283, 104.043 28.586 C 102.346 25.192, 98.630 24.127, 95.913 26.256 M 90.376 138.462 C 90.068 139.266, 88.957 140.196, 87.908 140.529 C 85.233 141.378, 85.489 142.092, 89.657 145.418 C 93.026 148.106, 93.995 148.345, 101.975 148.452 C 109.180 148.550, 111.091 148.927, 113.337 150.693 C 114.831 151.869, 118.375 153.134, 121.269 153.526 C 124.146 153.915, 127.400 154.430, 128.500 154.669 C 129.600 154.909, 133.937 155.367, 138.138 155.687 C 145.540 156.252, 145.829 156.190, 147.471 153.684 C 148.403 152.262, 148.904 150.273, 148.584 149.265 C 147.041 144.403, 132.469 139.981, 116.037 139.388 C 109.733 139.161, 104.131 138.531, 103.587 137.987 C 101.959 136.359, 91.033 136.751, 90.376 138.462" stroke="none" fill="black" fill-rule="evenodd"/>
</svg>