<svg xmlns="http://www.w3.org/2000/svg" width="256" height="256" viewBox="0 0 256 256" version="1.1">
	<path d="M 55.507 35 C 49.219 36.126, 49.955 42.701, 56.685 45.513 C 62.681 48.018, 69.747 48.503, 99.500 48.451 C 124.041 48.408, 127.901 48.189, 130.750 46.675 C 133.954 44.973, 134.970 41.998, 133.235 39.400 C 131.045 36.121, 127.495 35.618, 107.500 35.757 C 96.500 35.834, 80.930 35.582, 72.900 35.198 C 64.870 34.814, 57.044 34.725, 55.507 35 M 69 76.090 C 43.859 77.790, 37.257 79.282, 35.585 83.639 C 34.716 85.904, 35.998 89.929, 37.916 90.955 C 38.901 91.482, 46.647 91.518, 56.551 91.042 C 65.873 90.594, 73.838 90.428, 74.250 90.673 C 75.752 91.564, 74.947 96.139, 72.910 98.292 C 71.761 99.506, 69.449 103.200, 67.773 106.500 C 66.096 109.800, 63.437 114.065, 61.863 115.978 C 60.288 117.891, 59 119.967, 59 120.593 C 59 121.218, 58.077 122.904, 56.949 124.338 C 54.620 127.298, 52.581 137.939, 53.452 142.589 C 54.267 146.941, 58.023 148.870, 61.388 146.665 C 63.465 145.305, 64.341 145.241, 66.783 146.270 C 71.762 148.370, 114.543 145.471, 121.505 142.563 C 126.544 140.457, 127.722 140.579, 130.298 143.476 C 132.790 146.279, 139.489 148.103, 142.795 146.880 C 144.573 146.223, 145 145.277, 145 142.001 C 145 139.034, 144.528 137.770, 143.250 137.317 C 142.287 136.976, 140.038 135.302, 138.251 133.598 C 136.464 131.894, 134.101 129.713, 133.001 128.750 C 130.904 126.916, 130.226 121.425, 132.024 120.825 C 133.019 120.494, 129.884 117.006, 123.250 111.065 C 121.253 109.276, 120 107.206, 120 105.694 C 120 102.751, 116.676 101.467, 114.554 103.589 C 113.778 104.365, 112.769 105, 112.312 105 C 110.821 105, 109.114 108.721, 109.656 110.792 C 109.947 111.905, 110.962 113.018, 111.912 113.267 C 113.969 113.805, 117 119.783, 117 123.302 C 117 125.096, 116.018 126.382, 113.524 127.853 C 110.669 129.538, 107.057 130.103, 93.274 131.022 C 84.049 131.637, 75.400 132.107, 74.056 132.066 C 71.615 131.990, 69.251 129.780, 70.976 129.185 C 71.477 129.012, 71.644 128.235, 71.345 127.458 C 70.793 126.018, 75.772 116.731, 80.972 109.500 C 82.554 107.300, 84.820 102.233, 86.008 98.240 C 87.260 94.033, 88.905 90.586, 89.923 90.041 C 92.040 88.908, 112.159 89.425, 124.157 90.921 C 128.919 91.515, 137.170 92.113, 142.493 92.250 C 151.606 92.485, 152.282 92.362, 154.085 90.139 C 156.599 87.040, 156.502 84.696, 153.729 81.472 C 151.478 78.854, 151.292 78.824, 131.979 77.916 C 121.266 77.413, 108.645 76.551, 103.932 76 C 94.489 74.898, 86.318 74.919, 69 76.090" stroke="none" fill="black" fill-rule="evenodd"/>
</svg>