<svg xmlns="http://www.w3.org/2000/svg" width="256" height="256" viewBox="0 0 256 256" version="1.1">
	<path d="M 89.500 26.945 C 88.400 27.396, 86.600 28.765, 85.500 29.988 C 84.400 31.212, 81.819 33.071, 79.765 34.119 C 77.710 35.168, 75.320 37.108, 74.453 38.432 C 73.586 39.755, 70.767 41.820, 68.188 43.021 C 65.610 44.222, 61.472 47.296, 58.993 49.852 C 56.513 52.408, 51.886 56.421, 48.710 58.770 C 41.429 64.153, 38.299 71.349, 41.470 75.416 C 42.833 77.164, 43.314 77.216, 46.969 76.010 C 49.173 75.283, 53.343 72.440, 56.238 69.693 C 59.132 66.946, 63.750 62.554, 66.500 59.934 C 69.250 57.314, 74.189 53.733, 77.475 51.976 C 80.761 50.219, 85.647 46.805, 88.333 44.391 C 91.019 41.976, 93.660 40, 94.202 40 C 95.245 40, 108.182 48.971, 113.861 53.632 C 115.709 55.149, 118.254 58.027, 119.517 60.027 C 121.288 62.832, 123.176 64.161, 127.770 65.836 C 131.047 67.031, 135.701 69.737, 138.114 71.849 C 146.036 78.788, 149.575 79.627, 152.927 75.365 C 155.771 71.750, 155.593 66.859, 152.484 63.163 C 151.100 61.519, 145.657 58.033, 140.388 55.419 C 135.119 52.804, 130.598 50.116, 130.341 49.446 C 129.755 47.920, 113.872 35.172, 108.505 31.920 C 99.299 26.344, 94.219 25.014, 89.500 26.945 M 98 64.861 C 98 65.655, 94.035 66, 84.904 66 C 74.300 66, 71.209 66.333, 68.657 67.750 C 62.811 70.996, 61.985 74.176, 65.919 78.287 C 67.462 79.899, 69.794 80.070, 89.832 80.042 C 115.825 80.007, 117.758 79.562, 120.379 73.011 C 123.029 66.387, 122.045 65.002, 114.683 64.991 C 111.282 64.987, 106.138 64.699, 103.250 64.352 C 99.620 63.916, 98 64.073, 98 64.861 M 82 87.518 C 64.065 88.697, 60.437 89.388, 56.750 92.326 C 54.299 94.279, 54.615 96.171, 57.781 98.500 C 60.233 100.303, 62.073 100.500, 76.500 100.500 C 85.300 100.500, 96.325 100.139, 101 99.698 C 111.930 98.666, 113.940 99.714, 109.250 104.001 C 107.463 105.635, 106 107.352, 106 107.816 C 106 108.281, 103.815 111.038, 101.144 113.943 C 95.636 119.934, 94.666 119.992, 87.349 114.767 C 83.175 111.787, 80.496 111.648, 77.250 114.245 C 74.935 116.097, 75.768 120.805, 78.750 122.719 C 86.383 127.619, 90.811 131.898, 92.011 135.534 C 94.189 142.132, 104.965 148.934, 108.541 145.966 C 111.062 143.874, 110.130 137, 107.326 137 C 105.213 137, 106.174 134.527, 114.270 119.117 C 118.650 110.781, 121.999 105.551, 123.151 105.250 C 124.168 104.984, 125 104.382, 125 103.913 C 125 103.443, 127.429 101.910, 130.398 100.505 C 138.347 96.744, 139.136 95.404, 135.375 92.044 C 133.009 89.930, 130.272 88.938, 123.266 87.656 C 113.109 85.798, 108.396 85.782, 82 87.518" stroke="none" fill="black" fill-rule="evenodd"/>
</svg>