<svg xmlns="http://www.w3.org/2000/svg" width="256" height="256" viewBox="0 0 256 256" version="1.1">
	<path d="M 51.096 43.231 C 46.936 44.782, 45.504 46.886, 46.340 50.219 C 47.308 54.075, 51.463 55.294, 61.187 54.575 C 65.759 54.237, 72.650 54.307, 76.500 54.731 L 83.500 55.502 83.149 64.501 C 82.956 69.450, 82.339 74.063, 81.777 74.750 C 81.192 75.466, 78.478 76, 75.427 76 C 67.564 76, 60.645 77.738, 59.182 80.081 C 58.122 81.777, 58.254 82.548, 60.032 85.045 C 61.189 86.670, 62.979 88, 64.009 88 C 65.039 88, 66.160 88.450, 66.500 89 C 66.840 89.550, 69.511 90, 72.437 90 C 80.385 90, 80.608 90.614, 77.963 105.216 C 76.738 111.972, 75.382 119.525, 74.948 122 C 73.310 131.355, 73.047 131.743, 68.264 131.842 C 66.194 131.886, 60.225 132.158, 55 132.448 C 49.775 132.738, 45.151 132.981, 44.725 132.988 C 43.431 133.008, 41.960 137.997, 42.564 140.319 C 43.622 144.385, 47.539 146.192, 56.338 146.674 C 60.827 146.920, 68.775 147.747, 74 148.513 C 85.659 150.221, 144.695 149.677, 149.341 147.819 C 152.731 146.462, 154.116 143.348, 152.704 140.251 C 151.590 137.804, 145.656 135.688, 136 134.294 L 130.500 133.500 130.581 122.500 C 130.625 116.450, 131.001 104.750, 131.416 96.500 C 132.139 82.120, 132.084 81.409, 130.081 79.287 C 127.281 76.322, 120.968 74.751, 114.665 75.451 C 111.824 75.767, 106.350 75.682, 102.500 75.263 L 95.500 74.500 95.748 66.604 C 95.885 62.262, 96.459 58.151, 97.025 57.470 C 97.777 56.563, 103.497 56.219, 118.401 56.182 C 142.608 56.122, 146 55.322, 146 49.673 C 146 43.687, 145.714 43.631, 114.667 43.486 C 99.175 43.414, 79.300 43.042, 70.500 42.659 C 58.565 42.139, 53.635 42.285, 51.096 43.231 M 101.523 89.747 C 91.810 90.241, 91.405 90.765, 90.696 103.778 C 90.375 109.675, 89.192 118.100, 88.068 122.500 C 85.139 133.963, 85.236 134.695, 89.800 135.466 C 91.890 135.819, 96.502 135.637, 100.050 135.062 C 103.597 134.486, 108.832 134.012, 111.683 134.008 C 115.756 134.002, 116.973 133.625, 117.368 132.250 C 118.237 129.230, 118.515 91.563, 117.678 90.250 C 117.211 89.517, 115.150 89.081, 112.691 89.196 C 110.386 89.304, 105.360 89.551, 101.523 89.747" stroke="none" fill="black" fill-rule="evenodd"/>
</svg>