<svg xmlns="http://www.w3.org/2000/svg" width="256" height="256" viewBox="0 0 256 256" version="1.1">
	<path d="M 114.254 29.102 C 111.894 29.975, 110.104 34.863, 110.629 39 C 111.711 47.531, 111.760 50.584, 110.835 51.699 C 110.036 52.661, 106.214 52.810, 94.606 52.331 C 78.584 51.670, 75 52.315, 75 55.861 C 75 60.620, 83.698 64, 95.945 64 C 101.799 64, 105.856 65.805, 104.594 67.848 C 104.202 68.482, 103.256 69, 102.491 69 C 98.931 69, 92.275 75.059, 89.090 81.200 C 87.292 84.665, 84.116 89.300, 82.032 91.500 C 79.948 93.700, 76.806 97.525, 75.050 99.999 L 71.857 104.498 74.576 105.609 C 76.072 106.221, 79.223 106.504, 81.580 106.238 L 85.863 105.755 86.582 109.585 C 86.977 111.691, 87.023 121.405, 86.685 131.171 L 86.069 148.929 88.623 151.964 C 91.929 155.893, 94.827 155.837, 98.162 151.779 C 100.794 148.577, 100.946 148.533, 111.387 148.020 C 120.191 147.587, 122.283 147.166, 123.951 145.497 C 126.818 142.625, 127.598 137.741, 125.521 135.664 C 123.268 133.411, 115.281 133.494, 106.754 135.859 C 103.067 136.881, 99.814 137.481, 99.525 137.192 C 99.236 136.903, 98.985 132.129, 98.966 126.583 C 98.948 121.038, 98.511 111.817, 97.995 106.092 L 97.057 95.685 100.629 88.887 C 103.529 83.367, 104.838 81.879, 107.585 80.972 C 113.285 79.091, 115.572 80.727, 116.499 87.350 C 117.651 95.580, 118.545 98.137, 122.031 103.171 C 125.216 107.771, 125.992 109.805, 126.138 113.938 C 126.315 118.932, 126.449 119.141, 132.909 124.442 C 142.259 132.113, 145.594 135.839, 147.853 141.133 C 151.118 148.788, 156.227 150.636, 159.656 145.402 C 161.032 143.302, 161.020 142.578, 159.539 138.117 C 158.536 135.098, 156.104 131.276, 153.312 128.332 C 145.006 119.574, 144 117.558, 144 109.672 C 144 104.009, 144.442 101.974, 146.250 99.319 C 147.488 97.501, 148.838 96.011, 149.250 96.007 C 150.414 95.996, 150.134 88.201, 148.943 87.465 C 147.171 86.370, 143.673 87.768, 140.188 90.963 C 135.518 95.246, 133.529 94.938, 130.741 89.500 C 129.894 87.850, 127.373 84.810, 125.138 82.744 C 120.558 78.511, 118.204 72.169, 119.666 68.001 C 120.626 65.267, 120.472 65.302, 141.878 62.906 C 149.586 62.043, 152.738 61.262, 154.128 59.872 C 156.562 57.438, 156.499 54.913, 153.937 52.163 C 152.188 50.286, 151.159 50.033, 147.187 50.507 C 144.609 50.815, 138.023 51.164, 132.550 51.283 L 122.600 51.500 122.518 43.483 C 122.395 31.418, 119.870 27.024, 114.254 29.102 M 64.874 31.750 C 59.841 37.285, 47 62.377, 47 66.675 C 47 67.482, 45.277 70.247, 43.171 72.821 C 29.008 90.126, 25.370 108.479, 37.203 102.921 C 39.380 101.899, 45.964 91.970, 46.032 89.606 C 46.087 87.680, 48.823 84.772, 49.933 85.459 C 51.297 86.301, 51.354 111.270, 50.011 119.468 C 49.474 122.751, 48.987 131.029, 48.930 137.863 C 48.839 148.690, 49.075 150.625, 50.762 152.895 C 53.018 155.931, 57.118 156.768, 58.945 154.566 C 60.284 152.952, 61.583 143.241, 62.363 129 C 62.620 124.325, 63.347 116.675, 63.979 112 C 64.837 105.653, 64.842 101.980, 63.999 97.500 C 62.365 88.820, 61.257 68.124, 62.194 63.780 C 62.948 60.287, 65.567 54.625, 72.926 40.582 C 77.003 32.803, 76.033 29.052, 69.937 29.015 C 68.400 29.006, 66.373 30.101, 64.874 31.750" stroke="none" fill="black" fill-rule="evenodd"/>
</svg>