<svg xmlns="http://www.w3.org/2000/svg" width="256" height="256" viewBox="0 0 256 256" version="1.1">
	<path d="M 73.238 29.634 C 71.452 30.399, 66.534 37.863, 65.159 41.897 C 64.523 43.765, 60.851 49.467, 57.001 54.567 C 53.150 59.668, 50 64.121, 50 64.464 C 50 64.807, 48.397 66.820, 46.437 68.938 C 44.478 71.056, 39.921 77.132, 36.312 82.440 C 30.259 91.342, 29.791 92.408, 30.296 96.167 C 30.596 98.408, 31.282 100.682, 31.820 101.220 C 34.516 103.916, 42.594 97.418, 47.133 88.902 C 53.527 76.906, 55.340 82.735, 54.582 112.844 C 53.927 138.870, 55.005 155.243, 57.558 158.064 C 59.831 160.576, 62.221 160.518, 64.595 157.895 C 66.280 156.034, 66.554 153.691, 66.966 137.645 C 67.549 114.941, 67.492 98.323, 66.771 81 C 66.461 73.575, 66.637 65.784, 67.160 63.686 C 67.683 61.589, 70.234 56.639, 72.829 52.686 C 75.423 48.734, 78.148 43.925, 78.883 42 C 80.987 36.489, 82.438 31.104, 81.948 30.621 C 81.145 29.828, 74.534 29.080, 73.238 29.634 M 119 42.109 C 112.675 42.602, 104.719 42.747, 101.319 42.430 C 91.327 41.501, 91.438 41.323, 90.562 59.701 C 90.148 68.390, 89.901 76.175, 90.014 77 C 90.127 77.825, 90.294 85.515, 90.385 94.090 C 90.596 113.844, 91.610 116.683, 99.902 120.742 C 105.044 123.259, 106.654 123.513, 119.659 123.850 C 130.044 124.120, 136.362 123.760, 143.366 122.498 C 156.029 120.219, 156.618 119.415, 155.416 106.073 C 154.941 100.808, 154.541 84.710, 154.526 70.300 C 154.506 50.193, 154.198 43.798, 153.203 42.800 C 151.582 41.176, 135.211 40.845, 119 42.109 M 138.938 52.395 C 138.697 52.636, 131.329 53.089, 122.564 53.402 C 113.799 53.716, 106.170 54.430, 105.610 54.990 C 104.276 56.324, 102.100 64.652, 102.044 68.636 C 102.003 71.577, 102.266 71.810, 106.250 72.362 C 112.613 73.243, 140.217 72.266, 140.916 71.135 C 141.993 69.393, 141.568 52.692, 140.438 52.314 C 139.853 52.118, 139.178 52.155, 138.938 52.395 M 106.248 85.820 C 102.836 86.304, 101.753 89.433, 102.166 97.609 C 102.703 108.246, 102.733 108.264, 121.564 109.410 C 131.119 109.990, 138.105 109.997, 139.724 109.427 C 143.357 108.148, 144.025 104.698, 142.655 94.282 L 141.500 85.500 125 85.500 C 115.925 85.500, 107.487 85.644, 106.248 85.820 M 121 136.167 C 103.906 137.689, 93.846 139.012, 92.044 139.976 C 90.992 140.539, 88.977 141, 87.566 141 C 84.049 141, 80.800 144.450, 81.189 147.771 C 81.440 149.908, 82.178 150.557, 85 151.123 C 86.925 151.509, 103.052 151.751, 120.839 151.662 L 153.177 151.500 155.089 149.139 C 157.371 146.320, 157.532 143.205, 155.544 140.366 C 154.345 138.654, 152.626 138.175, 145.794 137.648 C 141.232 137.296, 135.475 136.669, 133 136.254 C 130.525 135.839, 125.125 135.800, 121 136.167" stroke="none" fill="black" fill-rule="evenodd"/>
</svg>