<svg xmlns="http://www.w3.org/2000/svg" width="256" height="256" viewBox="0 0 256 256" version="1.1">
	<path d="M 92.592 30.502 C 91.107 31.878, 88.679 33.643, 87.196 34.424 C 81.425 37.462, 59.504 60.377, 57.709 65.247 C 57.355 66.208, 54.913 67.950, 52.282 69.118 C 40.289 74.444, 36.908 76.293, 35.505 78.296 C 33.351 81.371, 33.638 83.729, 36.517 86.608 C 39.349 89.440, 41.146 89.236, 46.987 85.418 C 51.899 82.207, 55.552 81.487, 58.257 83.197 C 62.690 85.997, 68.821 87.072, 77.472 86.563 C 87.966 85.947, 89 86.299, 89 90.496 C 89 96.545, 86.907 97.692, 73.500 98.996 C 56.667 100.632, 52.537 101.629, 51.046 104.414 C 50.055 106.266, 50.071 107.140, 51.126 108.831 C 52.929 111.717, 55.538 112.113, 71.064 111.851 C 89.661 111.538, 89 111.016, 89 126.044 C 89 137.984, 88.992 138.027, 86 141.157 C 82.233 145.099, 82.229 147.083, 85.983 151.216 C 87.624 153.022, 89.649 155.287, 90.483 156.250 C 92.429 158.495, 96.244 158.495, 98.270 156.250 C 102.110 151.996, 102.572 144.269, 100.394 120.769 C 99.798 114.343, 99.876 113.998, 102.135 113.157 C 103.436 112.672, 107.391 112.624, 110.924 113.049 C 117.925 113.892, 132.325 113.600, 138.187 112.496 C 141.002 111.965, 142.100 111.152, 142.831 109.054 C 143.672 106.641, 143.467 106.122, 141.145 104.789 C 136.756 102.271, 133.201 101.740, 116.500 101.107 L 100.500 100.500 100.206 95.486 C 99.969 91.441, 100.339 90.013, 102.121 88.101 C 104.217 85.851, 104.760 85.763, 112.794 86.381 L 121.258 87.032 124.748 83.120 L 128.237 79.209 134.368 80.965 C 137.741 81.931, 142.293 83.684, 144.485 84.861 C 149.439 87.520, 151.451 87.549, 154 85 C 157.142 81.858, 156.659 76.732, 152.923 73.589 C 151.231 72.165, 149.174 71, 148.351 71 C 146.996 71, 139.585 67.086, 136.098 64.528 C 133.777 62.826, 121 49.579, 121 48.875 C 121 48.515, 118.130 46.034, 114.621 43.361 C 111.113 40.687, 107.016 36.578, 105.516 34.229 C 101.153 27.394, 97.181 26.249, 92.592 30.502 M 89.682 47.974 C 87.819 49.610, 84.480 51.979, 82.262 53.239 C 80.045 54.499, 76.430 57.806, 74.230 60.589 C 72.031 63.372, 68.377 67.118, 66.111 68.912 C 63.845 70.707, 62.243 72.585, 62.552 73.084 C 62.865 73.591, 73.900 73.979, 87.460 73.962 C 100.851 73.945, 114.832 74.414, 118.531 75.005 C 122.229 75.596, 125.504 75.829, 125.809 75.525 C 126.114 75.220, 124.980 73.514, 123.290 71.735 C 121.600 69.956, 119.007 65.905, 117.528 62.734 C 115.702 58.818, 113.863 56.463, 111.795 55.394 C 110.120 54.528, 106.314 51.835, 103.336 49.410 C 96.942 44.202, 94.296 43.923, 89.682 47.974 M 118 120.885 C 114.951 121.421, 114.436 121.936, 114 124.884 C 113.588 127.669, 114.044 128.844, 116.579 131.524 C 118.272 133.314, 122.212 135.988, 125.334 137.465 C 128.456 138.942, 131.452 140.976, 131.992 141.986 C 133.283 144.397, 139.178 148, 141.833 148 C 147.176 148, 146.543 137.615, 141.001 134.341 C 139.382 133.385, 137.618 131.342, 137.081 129.801 C 136.543 128.261, 135.446 127, 134.641 127 C 133.836 127, 132.097 125.716, 130.777 124.147 C 128.141 121.014, 123.706 119.882, 118 120.885 M 61.500 122.545 C 56.076 124.027, 52.489 127.496, 51.440 132.274 C 51.100 133.822, 50.025 135.856, 49.052 136.794 C 45.025 140.675, 46.199 149.001, 50.773 148.999 C 52.597 148.998, 62.231 140.850, 70.229 132.545 C 75.625 126.941, 76.276 123.902, 72.453 122.161 C 69.346 120.745, 67.903 120.796, 61.500 122.545" stroke="none" fill="black" fill-rule="evenodd"/>
</svg>