<svg xmlns="http://www.w3.org/2000/svg" width="256" height="256" viewBox="0 0 256 256" version="1.1">
	<path d="M 66.351 33.744 C 63.048 37.051, 49.685 56.902, 44.238 66.593 C 42.406 69.854, 40.551 72.907, 35.277 81.344 C 29.710 90.251, 28.045 94.333, 28.022 99.128 C 27.998 104.214, 29.722 106.540, 32.794 105.565 C 35.925 104.572, 38.976 100.604, 43.354 91.831 C 45.640 87.249, 47.959 83.500, 48.506 83.500 C 50.533 83.500, 52.033 95.280, 51.434 106.500 C 51.111 112.550, 50.755 125.375, 50.642 135 C 50.437 152.526, 51.142 157.086, 54.390 159.235 C 56.401 160.566, 59.913 160.031, 60.858 158.250 C 61.368 157.287, 62.084 149.075, 62.449 140 C 62.813 130.925, 63.789 119.364, 64.617 114.310 C 65.777 107.231, 65.881 103.899, 65.068 99.810 C 64.487 96.889, 63.335 91.125, 62.507 87 C 59.965 74.330, 60.918 62.146, 64.843 57.142 C 65.982 55.689, 69.208 50.741, 72.011 46.146 C 76.106 39.435, 77.048 37.075, 76.804 34.146 C 76.530 30.865, 76.185 30.469, 73.351 30.194 C 70.815 29.948, 69.452 30.639, 66.351 33.744 M 90.442 41.064 C 88.857 42.815, 88.450 45.656, 87.754 59.814 C 87.227 70.546, 87.309 79.390, 87.984 84.600 C 88.562 89.056, 88.742 96.509, 88.384 101.164 L 87.734 109.627 90.970 113.314 C 92.751 115.341, 94.836 117, 95.604 117 C 97.064 117, 97.109 116.909, 97.493 113.208 C 97.764 110.600, 101.694 106, 103.651 106 C 104.368 106, 105.661 107.079, 106.525 108.398 C 108.139 110.860, 113.458 112.529, 116.264 111.452 C 117.126 111.121, 117.985 109.253, 118.227 107.183 C 118.579 104.164, 118.154 103, 115.863 100.709 C 113.620 98.466, 112.289 97.961, 109.117 98.148 C 104.194 98.439, 102 96.702, 102 92.514 C 102 90.731, 101.542 86.855, 100.981 83.900 C 100.247 80.030, 100.295 77.040, 101.152 73.209 C 102.097 68.987, 102.066 66.202, 101.001 59.696 C 100.263 55.188, 99.757 49.766, 99.876 47.646 C 100.292 40.268, 94.696 36.364, 90.442 41.064 M 146.025 41.975 C 143.816 44.184, 143.358 45.860, 142.605 54.500 C 141.828 63.415, 138.310 77.632, 135.058 85 C 133.413 88.729, 131.911 94.292, 131.537 98.048 C 131 103.438, 130.355 105.162, 127.891 107.798 C 126.245 109.559, 124.246 111, 123.449 111 C 121.705 111, 121.513 112.671, 123.193 113.231 C 123.960 113.487, 123.384 114.941, 121.574 117.314 C 120.028 119.341, 119.047 121, 119.395 121 C 120.504 121, 117.047 128.240, 115.239 129.702 C 114.283 130.476, 111.450 132.107, 108.945 133.327 C 103.470 135.992, 93.563 145.226, 91.919 149.197 C 90.918 151.612, 91.011 152.355, 92.523 154.026 C 93.506 155.111, 95.565 156, 97.098 156 C 99.832 156, 106.526 152.710, 108.500 150.396 C 109.050 149.752, 111.750 147.561, 114.500 145.529 C 121.619 140.267, 132 130.126, 132 128.433 C 132 127.560, 133.006 127, 134.577 127 C 138.443 127, 142.483 131.709, 144.465 138.528 C 147.460 148.831, 150.825 153.615, 155.773 154.605 C 158.323 155.115, 159.101 154.775, 160.588 152.506 C 162.148 150.125, 162.212 149.243, 161.120 145.160 C 160.438 142.609, 159.248 139.391, 158.476 138.011 C 157.704 136.630, 156.377 134.042, 155.527 132.261 C 154.677 130.479, 151.282 126.204, 147.983 122.761 C 141.676 116.179, 141.373 115.149, 143.868 108.769 C 145.342 105, 148.329 92.351, 152.053 74.114 C 155.556 56.957, 155.959 42.849, 153 40.979 C 150.633 39.482, 148.165 39.835, 146.025 41.975 M 111.576 58.093 C 105.262 65.596, 113.384 76.104, 124.518 74.839 C 128.993 74.330, 128.743 71.428, 123.542 63.509 C 121.044 59.706, 119 56.235, 119 55.797 C 119 53.703, 113.958 55.262, 111.576 58.093" stroke="none" fill="black" fill-rule="evenodd"/>
</svg>