<svg xmlns="http://www.w3.org/2000/svg" width="256" height="256" viewBox="0 0 256 256" version="1.1">
	<path d="M 68.817 32.469 C 67.353 33.827, 65.838 35.964, 65.451 37.219 C 65.064 38.473, 61.036 45.125, 56.500 52 C 51.964 58.875, 47.920 65.625, 47.514 67 C 47.108 68.375, 45.759 70.625, 44.517 72 C 43.275 73.375, 41.429 75.850, 40.415 77.500 C 39.401 79.150, 36.549 82.908, 34.077 85.852 C 30.146 90.533, 29.601 91.753, 29.727 95.592 C 29.906 101.096, 30.472 102, 33.739 102 C 36.710 102, 44.648 94.251, 45.612 90.410 C 45.925 89.164, 46.829 87.896, 47.622 87.591 C 50.400 86.526, 51.176 91.793, 50.335 105.993 C 49.895 113.422, 49.636 120.175, 49.759 121 C 49.883 121.825, 50.583 129.204, 51.314 137.398 C 52.597 151.769, 52.744 152.383, 55.467 154.725 L 58.290 157.154 60.395 155.049 C 62.253 153.191, 62.516 151.683, 62.636 142.222 C 62.711 136.325, 62.876 123.850, 63.003 114.500 C 63.133 104.860, 62.704 94.039, 62.011 89.507 C 59.940 75.958, 62.527 62.851, 68.646 55.886 C 70.800 53.434, 77 37.924, 77 34.988 C 77 29.735, 73.070 28.525, 68.817 32.469 M 127 32.955 C 124.525 33.409, 115.975 34.303, 108 34.943 C 89.365 36.438, 89.539 36.392, 87.064 40.396 C 85.174 43.455, 84.914 45.731, 84.472 63.148 C 84.009 81.385, 82.692 99.395, 81.411 105 C 81.097 106.375, 80.814 108.175, 80.782 109 C 80.751 109.825, 79.015 114.550, 76.926 119.500 C 72.239 130.601, 70.047 143.875, 71.886 150.015 C 72.926 153.486, 73.459 154, 76.017 154 C 80.127 154, 81.454 151.404, 83.865 138.653 C 84.993 132.688, 86.440 127.175, 87.080 126.403 C 88.658 124.502, 90.922 124.634, 91.705 126.674 C 92.058 127.594, 93.145 129.145, 94.119 130.119 C 95.556 131.556, 95.712 132.516, 94.946 135.189 C 93.526 140.139, 93.802 148.272, 95.469 150.653 C 97.342 153.326, 100.650 154.208, 102.366 152.491 C 103.544 151.313, 103.931 148.242, 105.321 129.028 C 105.460 127.108, 106.056 126.555, 107.989 126.555 C 110.116 126.556, 110.512 127.059, 110.716 130.028 C 111.417 140.210, 112.645 151.972, 113.044 152.326 C 113.295 152.547, 114.567 153.285, 115.872 153.965 C 119.610 155.913, 121.774 152.960, 122.441 145 C 122.919 139.309, 126.590 125.233, 127.071 127.250 C 127.466 128.905, 127.718 129.620, 128.922 132.500 C 129.646 134.233, 129.969 137.611, 129.687 140.500 C 129.011 147.429, 131.178 152, 135.139 152 C 139.010 152, 140.559 148.278, 139.100 142.483 C 138.538 140.249, 138.361 137.314, 138.707 135.960 C 139.592 132.506, 144.022 126, 145.489 126 C 147.094 126, 148.614 144.295, 147.053 144.816 C 145.856 145.215, 145.656 149.931, 146.765 151.615 C 149.124 155.196, 157.522 153.121, 158.435 148.732 C 160.210 140.204, 161.331 105.912, 160.039 99.687 C 157.935 89.552, 159.827 90.102, 126 89.794 C 107.546 89.626, 96.225 89.147, 95.765 88.513 C 92.514 84.030, 97.475 82.888, 117.840 83.432 C 127.553 83.691, 139.550 83.588, 144.500 83.202 L 153.500 82.500 155.359 78.694 C 156.382 76.600, 157.196 73.900, 157.169 72.694 C 156.820 57.142, 156.751 56.660, 154.538 54.447 C 151.585 51.494, 145.282 50.839, 119.050 50.756 C 104.792 50.711, 98.050 50.349, 98.286 49.641 C 98.778 48.167, 102.712 47.401, 116.500 46.094 C 138.390 44.019, 145.209 43.071, 146.612 41.907 C 148.571 40.282, 148.335 36.613, 146.145 34.631 C 143.934 32.630, 133.669 31.732, 127 32.955 M 99.180 64.057 C 97.536 64.716, 96.953 65.645, 97.180 67.244 C 97.482 69.375, 98.084 69.535, 108 70.127 C 113.775 70.473, 123.738 70.810, 130.139 70.877 C 140.265 70.984, 142.085 70.749, 144.139 69.071 C 147.606 66.238, 145.570 64.898, 136.324 63.928 C 125.770 62.822, 102.056 62.904, 99.180 64.057 M 104.199 103.087 C 100.850 103.778, 98.701 105, 100.833 105 C 101.475 105, 102 105.623, 102 106.385 C 102 108.417, 106.769 111.208, 109.019 110.494 C 110.080 110.157, 111.812 108.783, 112.868 107.441 C 115.499 104.097, 118.069 104.377, 122.570 108.500 C 124.671 110.425, 126.785 112, 127.267 112 C 128.995 112, 136.990 106.793, 136.494 105.990 C 136.215 105.540, 136.553 104.977, 137.244 104.740 C 140.494 103.624, 126.742 102.387, 121.549 103.329 C 117.924 103.986, 114.518 104, 111.747 103.370 C 109.411 102.839, 106.015 102.712, 104.199 103.087 M 141 103.977 C 139.625 104.430, 139.089 104.845, 139.809 104.900 C 140.529 104.955, 140.882 105.381, 140.595 105.847 C 140.307 106.313, 141.440 108, 143.114 109.597 L 146.157 112.500 148.126 110.081 C 150.975 106.580, 150.244 103.543, 146.500 103.327 C 144.850 103.232, 142.375 103.525, 141 103.977 M 126 114.059 C 126 114.641, 126.450 114.840, 127 114.500 C 127.550 114.160, 128 113.684, 128 113.441 C 128 113.198, 127.550 113, 127 113 C 126.450 113, 126 113.477, 126 114.059 M 143 115.378 C 143 116.685, 143.668 118.309, 144.483 118.986 C 145.714 120.008, 146.140 119.762, 146.983 117.544 C 148.473 113.625, 148.269 113, 145.500 113 C 143.534 113, 143 113.508, 143 115.378" stroke="none" fill="black" fill-rule="evenodd"/>
</svg>