<svg xmlns="http://www.w3.org/2000/svg" width="256" height="256" viewBox="0 0 256 256" version="1.1">
	<path d="M 56.518 33.320 C 54.201 35.738, 51.346 40.251, 50.034 43.570 C 45.759 54.386, 42.693 60.444, 38.840 65.688 C 33.286 73.248, 28.843 85.002, 28.239 93.731 C 27.806 99.999, 27.975 101.053, 29.506 101.641 C 30.477 102.013, 31.998 101.865, 32.886 101.311 C 35.795 99.496, 40.047 91.467, 40.876 86.222 C 41.988 79.186, 45.099 75.587, 46.434 79.792 C 47.859 84.283, 48.687 96.088, 47.918 100.954 C 46.772 108.208, 46.705 124.986, 47.765 139.397 C 48.590 150.613, 48.797 151.428, 51.376 153.647 C 56.965 158.454, 57.673 156.649, 58.297 136 C 58.588 126.375, 59.322 116.925, 59.928 115 C 61.193 110.982, 60.410 76.708, 58.923 71 C 58.421 69.075, 58.009 65.551, 58.006 63.168 C 58 58.982, 61.616 46.880, 64.556 41.244 C 66.688 37.158, 66.431 31.301, 64.066 30.035 C 61.233 28.519, 61.036 28.605, 56.518 33.320 M 108.500 34.909 C 102.500 35.661, 101.177 36.404, 99.912 39.732 C 99.192 41.624, 99.343 42.875, 100.504 44.647 C 101.952 46.856, 102.657 47.016, 110.455 46.906 C 115.071 46.841, 119.332 47.087, 119.924 47.453 C 120.516 47.819, 121 49.433, 121 51.040 C 121 54.696, 117.649 55.810, 111.865 54.078 C 102.569 51.293, 100.520 55.511, 102.023 74.338 C 102.781 83.832, 102.776 88.458, 102.006 90.485 C 100.655 94.038, 101.645 101.273, 104.167 106.280 C 105.574 109.074, 106.025 111.896, 105.893 117.102 C 105.758 122.447, 106.107 124.536, 107.342 125.771 C 109.798 128.227, 117.518 129.898, 127 130.027 C 131.675 130.090, 138.951 130.457, 143.168 130.841 C 156.308 132.039, 160.950 129.176, 159.564 120.729 C 159.182 118.403, 158.493 108.850, 158.032 99.500 C 156.098 60.298, 155.950 58.602, 154.290 56.768 C 152.969 55.308, 150.995 55, 142.967 55 C 132.511 55, 130.226 54.014, 131.485 50.047 C 132.506 46.831, 135.285 45.965, 144.209 46.085 C 153.093 46.205, 157.587 44.877, 158.548 41.848 C 159.461 38.974, 158.073 35.978, 155.349 34.943 C 152.653 33.918, 116.611 33.891, 108.500 34.909 M 74.783 45.750 C 71.196 49.863, 70.852 52.029, 70.952 69.866 C 71.007 79.612, 70.551 90.942, 69.940 95.044 C 67.475 111.591, 67.343 113.910, 68.683 117.097 C 69.912 120.021, 70.234 120.176, 73.748 119.539 C 77.301 118.895, 78.936 118.870, 88.500 119.314 C 92.319 119.492, 92.500 119.364, 92.500 116.500 C 92.500 113.577, 92.362 113.492, 87.130 113.194 L 81.761 112.887 82.372 104.194 C 83.899 82.455, 83.982 82.032, 86.867 81.430 C 91.289 80.508, 92.461 79.458, 93.457 75.528 C 94.330 72.079, 94.178 71.550, 91.693 69.413 C 90.197 68.126, 88.376 67.302, 87.647 67.582 C 85.428 68.434, 84.383 65.895, 83.221 56.824 C 81.686 44.844, 78.836 41.104, 74.783 45.750 M 123.542 66.800 C 119.715 66.966, 116.002 67.583, 115.292 68.173 C 113.642 69.542, 113.616 74.436, 115.251 75.793 C 116.668 76.970, 142.936 76.477, 144.128 75.252 C 145.704 73.630, 146.155 69.214, 144.831 68.370 C 143.050 67.234, 132.135 66.429, 123.542 66.800 M 127.346 88.723 C 115.459 89.086, 113.228 89.993, 114.484 93.950 C 115.298 96.514, 116.579 96.761, 132.304 97.379 C 144.739 97.868, 145.131 97.820, 145.908 95.719 C 146.348 94.530, 146.407 92.419, 146.038 91.028 C 145.275 88.152, 145.432 88.171, 127.346 88.723 M 117.006 109.833 C 115.156 110.446, 115.970 114.865, 118.223 116.443 C 119.964 117.663, 123.327 118, 133.755 118 C 146.578 118, 147.094 117.919, 147.883 115.787 C 148.861 113.145, 148.212 110.061, 146.633 109.845 C 144.287 109.525, 117.969 109.514, 117.006 109.833 M 114.743 137.128 C 112.751 138.149, 110.322 140.339, 109.345 141.993 C 108.368 143.647, 107.061 145, 106.439 145 C 104.472 145, 102.284 148.406, 102.906 150.500 C 104.522 155.940, 107.935 157.836, 112 155.551 C 113.375 154.778, 115.882 153.425, 117.570 152.544 C 121.215 150.643, 124.267 144.432, 123.815 139.833 C 123.396 135.576, 119.836 134.515, 114.743 137.128 M 139.065 137.876 C 137.858 138.693, 137.831 139.456, 138.897 142.674 C 140.458 147.388, 142.159 149.454, 148.427 154.250 C 155.260 159.478, 160 159.027, 160 153.148 C 160 151.005, 158.440 148.427, 152 139.926 C 150.293 137.672, 141.439 136.269, 139.065 137.876" stroke="none" fill="black" fill-rule="evenodd"/>
</svg>