<svg xmlns="http://www.w3.org/2000/svg" width="256" height="256" viewBox="0 0 256 256" version="1.1">
	<path d="M 92.611 29.532 C 88.988 33.155, 89.796 48.096, 93.928 53.900 C 95.068 55.500, 96 57.249, 96 57.788 C 96 59.826, 90.747 60.362, 65.275 60.923 C 40.423 61.470, 38.942 61.609, 36.966 63.588 C 34.523 66.032, 35.018 69.801, 38.153 72.638 C 39.908 74.226, 42.854 74.467, 64.813 74.813 C 86.673 75.158, 90.760 74.965, 100.500 73.123 C 109.696 71.384, 114.780 71.079, 131.500 71.265 C 149.589 71.466, 151.764 71.309, 154.262 69.621 C 158.098 67.028, 158.844 63.400, 156.104 60.659 C 154.094 58.648, 152.662 58.460, 135.223 57.922 C 124.925 57.604, 113.463 57.482, 109.750 57.651 C 106.037 57.820, 103.007 57.631, 103.015 57.229 C 103.023 56.828, 103.683 54.624, 104.481 52.332 C 105.825 48.477, 105.761 47.585, 103.634 40.430 C 100.392 29.530, 96.480 25.662, 92.611 29.532 M 74.312 87.191 C 73.745 87.911, 72.983 90.075, 72.618 92 C 71.486 97.966, 62.778 113.738, 57.287 119.766 C 54.414 122.920, 51.790 126.730, 51.456 128.234 C 51.101 129.829, 48.520 133.010, 45.257 135.872 C 40.179 140.326, 39.643 141.188, 39.412 145.278 C 39.153 149.875, 41.020 154.038, 43.307 153.959 C 45.692 153.877, 52.025 148.342, 57.561 141.500 C 60.675 137.650, 64.087 133.683, 65.141 132.684 C 68.248 129.740, 71.760 123.603, 73.025 118.908 C 74.463 113.569, 78.302 105.824, 80.358 104.118 C 81.190 103.427, 82.161 101.543, 82.515 99.931 C 82.869 98.319, 83.497 97, 83.911 97 C 84.325 97, 85.124 94.985, 85.688 92.522 C 86.829 87.534, 86.988 87.687, 79.421 86.514 C 76.610 86.078, 75.023 86.289, 74.312 87.191 M 113.446 93.510 C 112.806 97.782, 113.059 98.454, 118.260 106.260 C 121.280 110.792, 124.328 115.625, 125.035 117 C 125.742 118.375, 128.273 121.904, 130.660 124.842 C 133.047 127.780, 135 130.510, 135 130.909 C 135 131.309, 137.380 134.192, 140.288 137.318 C 144.945 142.321, 146.035 143, 149.413 143 C 153.106 143, 153.228 142.892, 152.675 140.124 C 152.358 138.542, 150.790 135.280, 149.190 132.874 C 147.590 130.468, 145.992 127.294, 145.639 125.820 C 145.286 124.346, 144.408 122.546, 143.688 121.820 C 142.968 121.094, 141.103 117.887, 139.544 114.692 C 137.781 111.081, 133.772 105.904, 128.940 101 C 124.668 96.664, 120.878 92.190, 120.518 91.058 C 120.059 89.610, 119.014 89, 116.994 89 C 114.357 89, 114.067 89.368, 113.446 93.510" stroke="none" fill="black" fill-rule="evenodd"/>
</svg>