<svg xmlns="http://www.w3.org/2000/svg" width="256" height="256" viewBox="0 0 256 256" version="1.1">
	<path d="M 71.306 28.498 C 68.686 30.334, 66.740 38.520, 67.618 44.013 C 67.960 46.154, 67.956 49.039, 67.609 50.424 L 66.977 52.942 55.029 52.721 C 43.877 52.515, 42.934 52.647, 40.853 54.715 C 38.825 56.732, 38.750 57.165, 40.023 59.543 C 42.150 63.517, 44.560 64.329, 56.349 65.044 C 63.970 65.507, 67.465 66.119, 68.094 67.101 C 69.454 69.224, 69.076 93.702, 67.666 94.817 C 67.025 95.325, 62.675 96.018, 58 96.358 C 39.995 97.665, 34.315 99.171, 32.036 103.241 C 30.149 106.609, 31.355 109.050, 35.446 110.144 C 39.558 111.244, 67.117 111.147, 74.837 110.006 C 78.501 109.465, 90.050 108.765, 100.500 108.453 C 110.950 108.140, 127.375 107.645, 137 107.352 C 156.100 106.771, 159 105.991, 159 101.431 C 159 100.044, 157.895 97.805, 156.545 96.455 C 154.187 94.096, 153.569 93.999, 140.795 93.985 C 122.750 93.965, 123.019 94.147, 122.414 81.535 C 121.886 70.522, 122.944 66.249, 126.377 65.530 C 127.544 65.286, 133.167 64.936, 138.871 64.753 C 148.674 64.438, 149.368 64.273, 151.538 61.750 C 152.958 60.100, 153.634 58.315, 153.309 57.073 C 152.261 53.067, 150.370 52.556, 137.452 52.793 C 128.574 52.956, 124.918 52.676, 124.370 51.790 C 123.952 51.114, 123.736 46.588, 123.890 41.734 C 124.221 31.283, 122.700 27.668, 118.195 28.190 C 114.033 28.672, 112.498 32.869, 112.513 43.724 L 112.526 52.948 108.463 53.558 C 103.746 54.265, 79.291 53.624, 78.437 52.771 C 78.120 52.454, 78.401 49.451, 79.061 46.097 C 80.517 38.696, 79.856 31.603, 77.463 28.959 C 75.335 26.608, 74.133 26.518, 71.306 28.498 M 80.693 66.688 C 80.414 67.139, 80.049 73.576, 79.880 80.993 L 79.574 94.478 83.537 95.181 C 88.560 96.073, 106.694 96.023, 110 95.109 C 113.081 94.257, 113.676 91.208, 111.561 87.117 C 109.827 83.764, 109.472 74.856, 110.961 72.072 C 113.041 68.187, 110.426 67.261, 95.349 66.543 C 87.566 66.173, 80.971 66.238, 80.693 66.688 M 116.065 118.878 C 115.479 119.973, 115 122.171, 115 123.763 C 115 127.130, 120.244 135.538, 123.360 137.165 C 124.537 137.780, 128.787 141.145, 132.804 144.642 C 143.647 154.081, 148.193 152.936, 144.032 141.816 C 141.694 135.567, 136.875 130.495, 132.379 129.552 C 129.904 129.033, 128.899 128.028, 127.527 124.699 C 124.672 117.772, 124.435 117.512, 120.714 117.194 C 117.964 116.958, 116.883 117.350, 116.065 118.878 M 68.639 121.504 C 67.910 122.233, 66.744 124.203, 66.049 125.882 C 65.354 127.560, 63.995 129.184, 63.029 129.491 C 61.394 130.010, 54.428 137.583, 51 142.568 C 50.175 143.768, 48.746 145.818, 47.824 147.125 C 45.244 150.781, 44.406 156.835, 46.376 157.591 C 48.854 158.542, 60.571 152.598, 62.638 149.341 C 63.629 147.779, 66.515 144.025, 69.051 141 C 74.476 134.527, 76.505 128.748, 74.935 124.242 C 73.748 120.837, 70.652 119.491, 68.639 121.504" stroke="none" fill="black" fill-rule="evenodd"/>
</svg>