<svg xmlns="http://www.w3.org/2000/svg" width="256" height="256" viewBox="0 0 256 256" version="1.1">
	<path d="M 61.243 32.750 C 60.014 35.536, 59.605 39.327, 59.654 47.500 C 59.718 58.070, 59.860 58.778, 63.306 65.617 C 66.837 72.626, 66.879 72.855, 66.092 80.659 C 65.653 85.017, 64.794 89.517, 64.183 90.658 C 63.572 91.799, 62.363 96.168, 61.496 100.366 C 60.201 106.637, 60.137 108.724, 61.137 112.064 C 62.198 115.605, 62.119 116.528, 60.523 119.230 C 58.712 122.296, 58.717 122.352, 60.956 124.166 C 63.308 126.070, 70.034 126.509, 75 125.082 C 78.526 124.070, 81 124.910, 81 127.120 C 81 129.038, 77.718 135.860, 76.285 136.919 C 74.589 138.174, 68.369 146.651, 67.240 149.246 C 65.904 152.320, 67.063 156.918, 69.225 157.118 C 72.417 157.415, 73.855 156.517, 79.112 150.947 C 84.153 145.605, 85.132 145, 88.736 145 C 90.943 145, 94.634 145.665, 96.939 146.478 C 99.244 147.292, 101.438 147.913, 101.815 147.860 C 105.140 147.390, 107.632 148.540, 110.705 151.964 C 114.921 156.660, 116.335 156.325, 119.864 149.795 C 121.165 147.389, 123.865 144.313, 125.864 142.960 C 130.699 139.689, 131 139.591, 131 141.298 C 131 142.845, 133.235 144.712, 144.390 152.478 C 152.597 158.193, 157.767 159.689, 161.907 157.548 C 166.352 155.249, 167.402 150.579, 164.138 147.625 C 163.114 146.698, 159.773 145.533, 156.714 145.035 C 145.400 143.193, 144 141.311, 144 127.940 C 144 117.392, 144.688 116.335, 151.890 115.814 C 159.182 115.287, 162 113.205, 162 108.345 C 162 106.505, 161.598 105, 161.107 105 C 158.731 105, 159.442 101.017, 163.651 90.738 L 168.251 79.507 166.376 76.003 C 164.529 72.554, 164.390 72.496, 157.341 72.208 C 152.113 71.995, 150.027 71.513, 149.609 70.423 C 148.626 67.863, 151.028 59.248, 153.401 56.818 C 157.246 52.881, 164.009 42.207, 164.632 39.092 C 165.091 36.797, 164.676 35.585, 162.785 33.694 C 160.383 31.293, 160.070 31.255, 141.816 31.169 C 117.200 31.054, 114 32.060, 114 39.915 C 114 44.020, 116.086 44.440, 132.113 43.569 C 143.346 42.959, 145.090 43.071, 145.616 44.442 C 146.739 47.368, 143.409 50.599, 137.334 52.477 C 129.259 54.974, 126.051 58.651, 129.200 61.800 C 129.860 62.460, 131.599 63, 133.065 63 C 136.732 63, 141.189 66.666, 140.804 69.365 C 140.511 71.420, 140.090 71.487, 129.615 71.164 C 117.372 70.786, 112.766 71.377, 110.532 73.611 C 108.686 75.456, 108.508 80.564, 110.250 81.691 C 110.938 82.136, 116.225 82.950, 122 83.500 L 132.500 84.500 132.323 88.500 C 131.971 96.448, 132.049 106.595, 132.497 111.164 C 132.749 113.729, 132.357 117.554, 131.626 119.664 L 130.297 123.500 128.257 119.500 C 127.068 117.170, 125.915 112.279, 125.494 107.785 C 125.097 103.542, 124.260 99.437, 123.636 98.663 C 122.283 96.987, 116.218 94.824, 115.637 95.810 C 114.677 97.439, 113.943 105.048, 114.076 112 C 114.412 129.622, 114.307 130.760, 112.046 133.935 C 109.382 137.677, 107.629 137.745, 100.527 134.383 C 96.261 132.363, 95 131.257, 95 129.538 C 95 126.686, 97.961 124, 101.106 124 C 104.309 124, 108 121.365, 108 119.078 C 108 118.084, 107.164 116.197, 106.141 114.885 C 105.119 113.573, 103.533 111.037, 102.616 109.250 C 101.450 106.976, 100.242 106, 98.596 106 C 96.908 106, 95.880 105.125, 94.962 102.908 C 93.448 99.254, 94.586 98.040, 99.550 98.015 C 103.758 97.994, 105 96.377, 105 90.922 C 105 85.087, 103.396 83.540, 98.264 84.431 C 96.194 84.791, 91.017 85.338, 86.759 85.648 C 78.759 86.230, 78.357 86.062, 77.612 81.828 C 77.484 81.098, 76.395 78.925, 75.193 77 C 72.765 73.112, 72.723 72.949, 73.765 71.427 C 75.228 69.291, 78.056 69.128, 86.241 70.706 C 96.385 72.661, 99.822 71.619, 101.399 66.109 C 102.250 63.138, 102.086 62.488, 100.074 60.859 C 98.164 59.312, 96.025 59, 87.344 59 C 77.521 59, 76.761 58.852, 74.386 56.477 C 72.998 55.089, 72.015 53.176, 72.202 52.227 C 72.508 50.674, 73.854 50.537, 85.577 50.869 C 98.306 51.230, 98.679 51.180, 101.532 48.726 C 104.265 46.375, 104.363 46.047, 103.053 43.599 C 101.113 39.974, 95.469 38.626, 85.197 39.336 C 75.148 40.031, 72.418 39.178, 71.513 35.061 C 70.791 31.773, 67.686 29, 64.726 29 C 63.574 29, 62.286 30.387, 61.243 32.750 M 31.058 36.431 C 28.962 38.956, 29.555 43.549, 32.469 47.370 C 35.845 51.796, 37.898 57.303, 37.956 62.089 C 37.991 64.943, 38.522 65.917, 40.547 66.839 C 49.244 70.802, 55.035 64.026, 50.004 55.774 C 48.829 53.847, 48.006 50.731, 48.004 48.200 C 48.002 45.836, 47.314 42.575, 46.476 40.954 C 43.957 36.083, 33.816 33.107, 31.058 36.431 M 144.924 86.141 C 143.502 88.799, 144.182 103.582, 145.801 105.201 C 146.659 106.059, 147.825 105.871, 150.472 104.445 C 153.803 102.651, 155.071 101, 153.117 101 C 151.682 101, 151.203 96.294, 152.132 91.325 C 152.718 88.185, 152.636 86.266, 151.875 85.350 C 150.149 83.269, 146.222 83.716, 144.924 86.141 M 74.486 101.015 C 73.377 102.241, 72.489 105.122, 72.219 108.368 C 71.801 113.417, 71.945 113.825, 74.890 115.922 C 79.358 119.103, 82.365 118.393, 83.029 114 C 83.733 109.348, 82.137 101.833, 80.119 100.296 C 77.826 98.550, 76.572 98.710, 74.486 101.015 M 42.797 126.295 C 41.310 126.958, 38.719 129.300, 37.038 131.500 C 35.358 133.700, 32.430 137.424, 30.531 139.775 C 25.722 145.733, 24.432 150.722, 26.854 154 C 30.169 158.487, 32.367 157.808, 40.378 149.822 C 48.357 141.866, 50.602 138.342, 51.578 132.236 C 52.125 128.817, 51.889 128.035, 49.884 126.631 C 47.156 124.720, 46.409 124.685, 42.797 126.295" stroke="none" fill="black" fill-rule="evenodd"/>
</svg>