<svg xmlns="http://www.w3.org/2000/svg" width="256" height="256" viewBox="0 0 256 256" version="1.1">
	<path d="M 146.488 36.655 C 145.577 37.566, 144.453 39.310, 143.988 40.531 C 143.517 41.771, 143.664 54.175, 144.322 68.626 C 144.970 82.857, 145.500 103.372, 145.500 114.215 C 145.500 136.194, 145.206 137.215, 138.774 137.555 C 136.973 137.650, 135.162 137.789, 134.750 137.864 C 134.338 137.939, 134 139.506, 134 141.347 C 134 143.737, 134.576 144.952, 136.015 145.597 C 137.123 146.094, 139.726 148.750, 141.798 151.500 C 144.705 155.356, 146.282 156.570, 148.692 156.807 C 156.029 157.526, 157.832 149.326, 158.105 114 C 158.283 91.047, 156.555 40.593, 155.498 37.849 C 154.909 36.320, 152.133 35.046, 149.321 35.014 C 148.673 35.006, 147.398 35.745, 146.488 36.655 M 39.280 39.988 C 36.343 41.212, 35.222 45.651, 37.320 47.748 C 38.225 48.654, 41.273 49.524, 44.468 49.789 C 47.531 50.043, 50.298 50.672, 50.616 51.188 C 51.220 52.165, 46.630 68.012, 44.733 71.500 C 41.034 78.302, 41.071 77.911, 43.596 83.621 C 44.918 86.611, 46 89.719, 46 90.529 C 46 92.797, 49.096 92.292, 55.833 88.925 C 65.411 84.139, 66.128 84.751, 64.437 96.264 C 63.659 101.556, 64.488 101.107, 52.052 102.969 C 43.521 104.246, 42 105.159, 42 109.001 C 42 112.795, 46.219 114.387, 56.441 114.450 L 64.500 114.500 64.173 123.500 C 63.803 133.663, 62.848 135.243, 56.340 136.464 C 50.164 137.623, 43.114 141.699, 42.405 144.521 C 40.780 150.998, 48.299 151.513, 68 146.276 C 74.325 144.595, 82.156 142.904, 85.403 142.518 C 92.422 141.685, 95.887 140.345, 98.228 137.557 C 100.176 135.238, 100.514 130.828, 98.965 127.934 C 97.262 124.752, 89 125.281, 82.524 128.986 C 79.654 130.628, 77.012 131.678, 76.653 131.319 C 76.294 130.960, 76 127.624, 76 123.906 C 76 117.793, 76.253 116.946, 78.635 115.073 C 80.227 113.820, 82.741 113, 84.986 113 C 93.125 113, 98.366 108.555, 95.003 104.504 C 93.208 102.341, 87.299 100.997, 82.483 101.657 C 80.162 101.975, 78.038 101.845, 77.761 101.368 C 77.485 100.891, 76.948 97.237, 76.569 93.250 L 75.879 86 83.189 85.921 C 87.210 85.878, 93.650 85.290, 97.500 84.615 L 104.500 83.389 104.500 79.446 C 104.500 75.348, 104.305 75.173, 95.134 71.064 C 94.334 70.705, 93.638 68.494, 93.453 65.726 C 93.270 62.988, 92.267 59.780, 91.068 58.096 C 88.519 54.515, 88.433 52.381, 90.814 51.759 C 92.905 51.212, 106.861 54.640, 108.675 56.145 C 111.322 58.342, 112.924 66.484, 112.877 77.500 C 112.831 88.430, 114.871 100.935, 117.150 103.681 C 120.292 107.466, 122.712 102.994, 124.012 91 C 124.985 82.024, 123.560 51.915, 122.026 49.049 C 120.475 46.151, 116.325 45.377, 112.968 47.360 C 109.109 49.639, 108.264 49.471, 103.942 45.567 C 101.852 43.678, 98.422 41.569, 96.321 40.881 C 91.674 39.357, 42.635 38.590, 39.280 39.988 M 69.413 50.921 C 64.850 52.044, 64.158 52.699, 63.001 56.997 C 62.421 59.149, 60.832 62.235, 59.469 63.855 C 58.105 65.475, 56.711 68.196, 56.370 69.900 C 55.657 73.466, 54.260 73.179, 71.500 73.008 C 84.978 72.874, 86.345 72.071, 82.569 66.506 C 79.842 62.488, 79.297 58.181, 81.093 54.827 C 81.694 53.704, 81.806 52.430, 81.343 51.996 C 80.003 50.740, 72.790 50.090, 69.413 50.921" stroke="none" fill="black" fill-rule="evenodd"/>
</svg>