<svg xmlns="http://www.w3.org/2000/svg" width="256" height="256" viewBox="0 0 256 256" version="1.1">
	<path d="M 64 34.945 C 51.446 35.316, 41.391 36.060, 39.836 36.733 C 35.572 38.577, 34.968 43.878, 38.827 45.585 C 39.747 45.992, 44.550 46.589, 49.500 46.912 C 58.389 47.493, 58.496 47.531, 58.178 50 C 57.773 53.143, 54.468 60.281, 51 65.500 C 49.539 67.700, 47.556 71.525, 46.596 74 C 44.515 79.360, 39.127 88.155, 37.190 89.352 C 35.192 90.588, 33 96.384, 33 100.433 C 33 106.834, 37.671 107.394, 47.736 102.202 C 52.359 99.817, 53.225 99.659, 55.142 100.856 C 56.335 101.602, 60.341 103.732, 64.043 105.590 C 67.745 107.448, 71.048 109.683, 71.383 110.556 C 72.078 112.366, 70.642 115.531, 68.595 116.707 C 65.649 118.399, 54 129.563, 54 130.695 C 54 131.352, 51.977 136.077, 49.505 141.195 C 42.581 155.531, 43.716 160.794, 52.678 155.907 C 56.040 154.074, 57.712 152.235, 59.691 148.195 C 61.120 145.277, 65.374 139.033, 69.144 134.319 C 72.915 129.606, 76 125.356, 76 124.875 C 76 124.394, 76.787 123.187, 77.750 122.193 C 83.094 116.674, 91.397 102.338, 94.497 93.275 C 96.336 87.899, 98.591 81.403, 99.509 78.839 C 101.076 74.464, 101.073 73.955, 99.452 70.539 C 96.870 65.099, 91.969 63.003, 81.790 62.986 C 77.230 62.979, 72.431 62.687, 71.125 62.337 C 68.899 61.741, 68.786 61.361, 69.314 56.248 C 70.194 47.724, 71.340 47, 83.964 47 C 96.058 47, 98.716 45.987, 97.660 41.782 C 96.580 37.480, 93.817 35.074, 89.500 34.677 C 87.300 34.475, 75.825 34.595, 64 34.945 M 148.261 35.529 C 144.949 37.849, 144.357 42.001, 144.771 60 C 145.612 96.626, 145.272 131.929, 144.049 134.882 C 142.867 137.736, 142.720 137.785, 136.921 137.259 C 131.029 136.725, 131 136.735, 131 139.410 C 131 141.376, 132.810 143.954, 137.751 149.023 C 145.801 157.284, 149.460 158.631, 153.332 154.759 C 155.421 152.670, 155.891 151.018, 156.419 143.898 C 157.553 128.612, 158.971 91.762, 158.457 90.930 C 158.179 90.481, 157.818 78.950, 157.655 65.306 C 157.437 47.081, 157.006 39.837, 156.029 38 C 153.743 33.699, 151.770 33.072, 148.261 35.529 M 109.180 44.283 C 106.797 47.155, 106.013 51.097, 106.974 55.384 C 107.503 57.743, 108.208 65.709, 108.542 73.086 C 109.267 89.127, 110.437 96.065, 112.702 97.750 C 115.067 99.509, 116.405 99.315, 118.595 96.894 C 120.356 94.948, 120.500 92.990, 120.500 70.999 C 120.500 49.008, 120.356 47.050, 118.595 45.105 C 116.441 42.725, 110.876 42.239, 109.180 44.283 M 60.339 76.250 C 56.617 80.417, 53.445 89.391, 54.616 92.442 C 54.991 93.420, 56.770 93.628, 61.509 93.247 C 67.335 92.780, 68.171 92.966, 71.025 95.367 C 72.745 96.815, 74.762 98, 75.505 98 C 77.418 98, 80 95.183, 80 93.095 C 80 92.126, 80.308 91.025, 80.685 90.648 C 81.769 89.564, 83.968 82.714, 83.985 80.371 C 84.003 77.789, 81.305 76.679, 71.231 75.123 C 61.984 73.694, 62.687 73.622, 60.339 76.250" stroke="none" fill="black" fill-rule="evenodd"/>
</svg>