<svg xmlns="http://www.w3.org/2000/svg" width="256" height="256" viewBox="0 0 256 256" version="1.1">
	<path d="M 69 30.051 C 47.764 32.883, 42.233 34.029, 39.525 36.159 C 36.615 38.448, 36.348 40.205, 38.571 42.429 C 39.753 43.610, 42.248 44, 48.637 44 C 57.305 44, 61 45.020, 61 47.413 C 61 50.617, 57.911 51.474, 47.377 51.193 C 34.273 50.844, 31.049 52.229, 31.015 58.227 C 30.994 61.978, 34.872 64.472, 39.248 63.521 C 41.037 63.132, 45.599 62.592, 49.387 62.320 C 55.984 61.846, 57.926 62.497, 57.985 65.203 C 58.017 66.679, 50.413 67.908, 44.850 67.327 C 41.105 66.935, 38.553 67.126, 37.665 67.863 C 36.623 68.728, 36.255 72.532, 36.154 83.474 C 36.028 97.137, 36.142 98.054, 38.199 99.971 C 39.397 101.087, 41.755 102.017, 43.439 102.038 C 46.593 102.077, 52.059 102.662, 57.750 103.571 C 61.130 104.111, 61.894 105.303, 59.750 106.691 C 59.063 107.136, 53.683 107.727, 47.795 108.005 C 37.006 108.514, 35.094 109.181, 34.580 112.619 C 34.088 115.913, 37.268 117.007, 47.582 117.089 C 57.475 117.169, 62 118.091, 62 120.026 C 62 121.616, 55.167 124.188, 52.876 123.461 C 51.789 123.116, 46.585 122.833, 41.311 122.833 C 33.055 122.833, 31.444 123.111, 29.722 124.833 C 27.080 127.475, 27.994 129.446, 33.059 132.030 C 36.647 133.861, 38.209 134.057, 44.486 133.469 C 51.766 132.787, 56 133.358, 56 135.022 C 56 136.145, 51.542 140.641, 49.807 141.268 C 49.088 141.528, 47.139 141.189, 45.475 140.515 C 41.707 138.989, 38.937 139.949, 36.430 143.651 C 31.615 150.759, 31.723 157.390, 36.674 158.633 C 40.502 159.594, 43.655 157.587, 45.027 153.317 C 45.701 151.218, 46.897 148.761, 47.683 147.858 C 49.743 145.495, 52.988 146.691, 53.662 150.061 C 53.970 151.601, 55.090 153.793, 56.150 154.931 C 60.582 159.687, 64.978 155.531, 62.657 148.779 C 60.928 143.751, 61.725 136.217, 64.121 134.935 C 66.828 133.486, 89.606 133.207, 91.005 134.606 C 91.813 135.413, 91.348 136.028, 89.278 136.885 C 83.248 139.383, 83.142 142.317, 88.812 149.798 C 91.085 152.798, 91.726 153.070, 95.891 152.798 L 100.470 152.500 100.142 148.024 C 99.962 145.562, 98.914 142.284, 97.814 140.739 C 95.628 137.669, 95.965 135.306, 98.727 134.325 C 101.519 133.334, 104 130.844, 104 129.032 C 104 128.120, 102.709 126.137, 101.131 124.625 L 98.261 121.876 87.254 122.573 C 75.015 123.347, 69 122.661, 69 120.490 C 69 117.849, 72.829 117, 84.734 117 C 96.920 117, 99 116.398, 99 112.873 C 99 111.922, 97.814 110.212, 96.365 109.073 C 94.184 107.357, 92.312 107, 85.490 107 C 76.458 107, 71 106.213, 71 104.910 C 71 103.175, 74.942 102.086, 83.585 101.432 C 94.758 100.588, 95.996 99.657, 96.011 92.095 C 96.017 89.018, 96.692 84.291, 97.511 81.591 C 99.407 75.340, 99.401 71.578, 97.493 69.994 C 96.596 69.250, 92.045 68.593, 86.258 68.372 C 76.841 68.012, 70.585 66.756, 69.505 65.008 C 69.217 64.542, 69.710 63.433, 70.600 62.542 C 71.971 61.172, 73.714 61.026, 81.954 61.594 C 89.796 62.134, 92.690 61.932, 96.844 60.552 C 102.686 58.611, 103.420 56.683, 99.660 53.150 C 95.586 49.323, 91.463 48.724, 82.244 50.619 C 72.976 52.523, 69 51.730, 69 47.976 C 69 44.234, 73.106 41.342, 79.565 40.535 C 88.181 39.459, 91 37.742, 91 33.572 C 91 30.684, 90.545 30.037, 87.851 29.098 C 86.119 28.494, 84.206 28.056, 83.601 28.125 C 82.995 28.194, 76.425 29.060, 69 30.051 M 127.693 32.787 C 124.343 36.489, 122.653 42.341, 122.725 50 C 122.767 54.620, 122.354 57.782, 121.647 58.235 C 121.016 58.639, 117.713 58.976, 114.307 58.985 C 109.050 58.998, 107.878 59.336, 106.557 61.223 C 105.701 62.445, 105 64.476, 105 65.737 C 105 68.744, 110.299 71.991, 115.215 71.996 C 117.862 71.999, 119.227 72.556, 119.965 73.934 C 121.496 76.795, 121.221 87.778, 119.462 94.032 C 118.616 97.039, 116.368 105.575, 114.466 113 C 112.564 120.425, 110.531 127.320, 109.950 128.322 C 108.384 131.022, 103 146.590, 103 148.420 C 103 150.925, 106.744 154.003, 109.750 153.969 C 113.378 153.927, 115.073 151.398, 118.444 141 C 119.960 136.325, 122.318 129.628, 123.684 126.119 C 125.051 122.609, 127.242 114.151, 128.553 107.324 C 129.865 100.496, 131.141 94.580, 131.391 94.177 C 131.640 93.774, 132.338 89.631, 132.941 84.972 C 134.715 71.284, 134.331 72, 139.897 72 C 147.430 72, 147.535 72.311, 147.286 93.909 C 147.097 110.353, 146.399 117.523, 143.418 133.624 C 143.202 134.792, 142.205 136.761, 141.201 138 C 139.579 140.003, 139.137 140.103, 137.214 138.901 C 134.370 137.126, 133.273 138.332, 132.498 144.087 C 131.946 148.182, 132.165 148.934, 134.534 151.087 C 135.994 152.414, 138.433 154.738, 139.953 156.250 C 143.034 159.316, 147.966 159.951, 149.967 157.540 C 151.524 155.664, 154.547 143.997, 156.455 132.500 C 158.651 119.271, 159.883 102.737, 160.128 83.219 C 160.407 60.973, 160.649 61.388, 146.535 59.971 C 141.055 59.421, 136.259 58.640, 135.879 58.235 C 135.499 57.831, 135.032 52.280, 134.842 45.901 C 134.498 34.390, 133.518 31, 130.533 31 C 129.860 31, 128.582 31.804, 127.693 32.787 M 51.250 78.662 C 49.556 79.346, 49.674 81.484, 51.489 82.991 C 52.308 83.671, 52.731 84.626, 52.430 85.113 C 51.257 87.011, 57.771 85.911, 59.586 83.905 C 61.455 81.840, 61.449 81.782, 59.131 79.905 C 56.867 78.072, 53.880 77.601, 51.250 78.662 M 71.495 79.389 C 70.358 80.227, 70.199 81.237, 70.848 83.500 C 71.321 85.150, 71.559 87.466, 71.376 88.646 C 70.961 91.328, 72.534 92.661, 76.917 93.345 C 80.251 93.865, 86 91.846, 86 90.155 C 86 89.132, 81.010 84.770, 80.970 85.757 C 80.953 86.165, 80.402 85.600, 79.746 84.500 C 78.595 82.572, 78.396 82.034, 78.125 80.117 C 77.924 78.699, 73.143 78.174, 71.495 79.389 M 49.739 88.400 C 48.134 89.618, 48.119 89.854, 49.573 91.061 C 50.451 91.789, 53.255 92.411, 55.806 92.442 C 59.449 92.488, 60.518 92.125, 60.795 90.750 C 61.011 89.676, 60.539 89, 59.573 89 C 58.708 89, 58 88.550, 58 88 C 58 86.538, 51.796 86.839, 49.739 88.400 M 70.021 138.474 C 68.569 140.225, 69.518 150.976, 71.340 153.419 C 71.978 154.274, 73.921 155.252, 75.658 155.593 C 78.195 156.091, 79.031 155.810, 79.912 154.165 C 81.302 151.568, 79.683 139.049, 77.803 137.857 C 75.709 136.529, 71.349 136.875, 70.021 138.474 M 95.473 200.044 C 95.148 200.570, 95.809 201, 96.941 201 C 99.356 201, 99.599 200.444, 97.532 199.651 C 96.725 199.341, 95.798 199.518, 95.473 200.044" stroke="none" fill="black" fill-rule="evenodd"/>
</svg>