<svg xmlns="http://www.w3.org/2000/svg" width="256" height="256" viewBox="0 0 256 256" version="1.1">
	<path d="M 118.253 31.066 C 114.817 31.513, 111.640 32.105, 111.191 32.382 C 109.439 33.465, 89.965 36.959, 80.144 37.952 C 74.448 38.529, 66.097 39, 61.585 39 C 51.733 39, 49.699 40.077, 50.171 45.044 C 50.713 50.745, 54.467 51.801, 71.500 51.046 C 79.200 50.705, 86.104 50.709, 86.843 51.055 C 87.856 51.529, 88.225 54.940, 88.343 64.917 L 88.500 78.151 63.775 78.398 C 41.414 78.622, 38.856 78.821, 37.025 80.478 C 34.399 82.854, 34.354 88.105, 36.939 90.445 C 38.681 92.021, 40.487 92.137, 54.689 91.583 C 63.385 91.243, 74.763 91.311, 79.973 91.733 L 89.446 92.500 89.157 109 C 88.895 123.994, 89.798 134.108, 92.514 146.623 C 93.184 149.714, 98.384 151.668, 101.499 150 C 104.505 148.392, 104.837 146.178, 103.297 138 C 101.815 130.129, 101.567 93.833, 102.985 92.415 C 104.041 91.359, 118.262 91.532, 136.500 92.822 C 142.550 93.251, 148.526 93.411, 149.780 93.178 C 152.786 92.621, 154.332 89.540, 153.560 85.645 C 152.238 78.972, 152.757 79.105, 126.717 78.788 C 110.303 78.588, 102.741 78.142, 101.924 77.325 C 101.152 76.552, 100.708 71.470, 100.629 62.491 C 100.488 46.371, 100.349 46.592, 111.267 45.594 C 123.800 44.447, 128.765 43.114, 130.980 40.298 C 133.694 36.848, 133.523 34.557, 130.365 32.073 C 127.533 29.844, 127.602 29.850, 118.253 31.066" stroke="none" fill="black" fill-rule="evenodd"/>
</svg>