<svg xmlns="http://www.w3.org/2000/svg" width="256" height="256" viewBox="0 0 256 256" version="1.1">
	<path d="M 91.518 24.332 C 90.678 25.614, 89.867 28.515, 89.715 30.779 C 89.563 33.042, 89.131 35.202, 88.754 35.579 C 88.377 35.956, 78.426 36.317, 66.640 36.382 C 47.067 36.490, 45.029 36.665, 43.105 38.405 C 40.388 40.863, 40.441 43.239, 43.287 46.547 L 45.574 49.206 62.037 49.132 C 84.745 49.029, 89 50.282, 89 57.069 C 89 62.030, 87.714 62.295, 64.729 62.087 C 47.335 61.930, 43.139 62.163, 41.500 63.375 C 39.582 64.795, 39.507 65.909, 39.674 90.677 C 39.857 117.675, 41.350 144.161, 43.145 152.250 C 44.295 157.430, 45.856 158.190, 49.749 155.463 C 53.560 152.794, 54.096 147.951, 53.024 125.869 C 52.481 114.666, 52.028 99.762, 52.018 92.750 C 51.995 76.512, 52.357 76, 63.845 76 C 68.771 76, 73.762 76.684, 77.259 77.838 C 81.168 79.127, 83.349 79.384, 84.571 78.700 C 85.650 78.097, 90.344 78.025, 96.906 78.512 C 109.984 79.482, 109.645 79.496, 120 77.598 C 138.721 74.167, 138.162 73.548, 138.507 98.072 C 138.658 108.757, 139.085 122.450, 139.456 128.500 C 139.863 135.140, 139.746 140.056, 139.161 140.903 C 138.629 141.675, 135.337 142.821, 131.846 143.450 C 126.396 144.432, 125.453 144.918, 125.168 146.895 C 124.969 148.267, 125.748 150.168, 127.098 151.604 C 130.184 154.889, 139.444 160, 142.311 160 C 144.762 160, 147.831 157.233, 150.076 153 C 151.815 149.721, 152.463 112.717, 151.253 85.745 C 150.251 63.394, 150.377 63.706, 141.927 62.585 C 135.913 61.787, 109.188 61.674, 105.980 62.433 C 102.652 63.220, 101.414 62.182, 100.637 57.951 C 99.507 51.803, 100.989 50.931, 113.538 50.364 C 119.567 50.091, 129.523 49.526, 135.661 49.107 C 150.987 48.062, 154.891 45.317, 150.033 39 L 148.111 36.500 129.306 36.414 C 118.962 36.366, 109.150 36.614, 107.500 36.964 C 102.144 38.102, 101.280 37.394, 100.789 31.465 C 100.087 23.010, 94.967 19.069, 91.518 24.332 M 75.028 82.947 C 73.716 85.399, 73.479 88.651, 74.332 92.500 C 75.188 96.363, 74.098 97.956, 70.267 98.441 C 64.169 99.213, 60.710 102.741, 63.160 105.693 C 65.099 108.029, 69.660 109.998, 73.200 110.026 C 76.524 110.053, 89.474 113.140, 90.479 114.146 C 90.777 114.443, 89.912 115.882, 88.558 117.343 C 86.293 119.787, 85.463 120, 78.187 120 C 73.838 120, 68.191 120.286, 65.640 120.636 C 61.216 121.242, 61 121.421, 61 124.481 C 61 126.272, 61.773 128.385, 62.750 129.262 C 64.943 131.232, 75.929 133.278, 80.254 132.522 C 82.039 132.209, 84.850 132.339, 86.500 132.810 C 89.365 133.627, 89.488 133.887, 89.229 138.583 C 88.961 143.440, 90.954 152.170, 92.304 152.058 C 92.687 152.026, 93.614 152, 94.364 152 C 96.288 152, 99 144.300, 99 138.839 C 99 135.915, 99.562 133.779, 100.546 132.962 C 102.451 131.381, 108.340 131.546, 117.357 133.434 C 124.942 135.022, 128.182 134.397, 130.002 130.996 C 131.615 127.982, 130.878 124.982, 127.997 122.840 C 126.128 121.450, 122.964 120.820, 115.497 120.352 C 104.377 119.655, 102 118.873, 102 115.909 C 102 114.442, 103.448 113.226, 107.290 111.467 C 111.866 109.373, 113.100 109.189, 116.429 110.108 C 121.465 111.499, 126.214 110.532, 129.999 107.347 C 132.488 105.253, 132.833 104.504, 131.851 103.321 C 129.865 100.927, 125.798 99.263, 120.500 98.678 C 117.750 98.374, 115.388 98.097, 115.250 98.062 C 114.080 97.770, 115.424 91.576, 117 90 C 119.321 87.679, 119.410 86.994, 117.839 83.547 C 116.777 81.216, 116.153 81, 110.469 81 L 104.260 81 103.153 85.250 C 102.544 87.588, 101.583 91.360, 101.016 93.634 C 99.633 99.181, 98.167 100.168, 91.848 99.805 C 86.731 99.511, 86.527 99.389, 86.332 96.500 C 86.221 94.850, 85.840 90.688, 85.486 87.250 L 84.841 81 80.456 81 C 77.134 81, 75.818 81.472, 75.028 82.947" stroke="none" fill="black" fill-rule="evenodd"/>
</svg>