<svg xmlns="http://www.w3.org/2000/svg" width="256" height="256" viewBox="0 0 256 256" version="1.1">
	<path d="M 52.354 34.212 C 47.847 36.314, 44.534 50.770, 43.581 72.500 C 43.291 79.100, 42.610 87.875, 42.068 92 C 41.525 96.125, 40.820 101.975, 40.502 105 C 39.178 117.578, 35.736 140.859, 34.485 145.690 C 32.919 151.738, 33.676 155.709, 36.788 157.776 C 38.819 159.124, 39.196 159.001, 41.880 156.129 C 45.106 152.675, 46.945 146.222, 49.611 129 C 50.505 123.225, 51.629 116.025, 52.108 113 C 53.103 106.717, 54.094 96.693, 56.460 69.010 C 57.636 55.236, 58.553 49.046, 59.585 47.906 C 61.401 45.900, 76.854 44.631, 87.607 45.606 C 94.211 46.204, 94.915 46.472, 94.640 48.277 C 94.140 51.552, 91.071 53, 84.625 53 C 78.060 53, 70.664 55.838, 69.519 58.796 C 69.156 59.733, 68.642 70.268, 68.376 82.206 L 67.893 103.912 71.334 107.668 C 74.526 111.150, 74.970 111.335, 77.443 110.208 C 79.572 109.238, 82.616 109.301, 92.499 110.519 C 102.379 111.737, 108.383 111.862, 122.150 111.134 C 139.323 110.227, 139.424 110.208, 141.815 107.429 C 143.943 104.955, 144.147 103.999, 143.598 99.068 C 142.855 92.381, 142.901 94.133, 142.960 74.608 C 143.023 53.845, 142.865 53.653, 125.500 53.386 C 112.838 53.191, 103.497 51.008, 102.727 48.065 C 102.268 46.307, 103.425 46.190, 124.871 45.825 C 150.387 45.390, 153.303 44.751, 153.761 39.493 C 154.307 33.211, 156.803 33.514, 103.286 33.355 C 72.512 33.264, 53.708 33.581, 52.354 34.212 M 90.103 65.992 C 81.989 66.549, 79.430 68.284, 81.612 71.750 C 83.019 73.984, 87.053 74.703, 94 73.956 C 97.025 73.630, 106.025 73.635, 114 73.967 C 121.975 74.298, 129.066 74.392, 129.759 74.174 C 131.080 73.760, 132.609 69.275, 131.729 68.396 C 131.448 68.114, 126.331 67.237, 120.359 66.447 C 109.719 65.039, 105.011 64.968, 90.103 65.992 M 81.585 88.835 C 80.408 91.112, 80.256 92.544, 80.988 94.469 C 82.036 97.225, 84.778 98.876, 85.851 97.396 C 86.849 96.019, 93 95.807, 93 97.150 C 93 98.004, 97.250 98.143, 109.250 97.680 C 118.188 97.335, 126.547 96.754, 127.827 96.390 C 131.032 95.476, 132.605 91.175, 130.501 89.077 C 129.170 87.749, 125.804 87.497, 109.210 87.480 C 98.370 87.469, 88.074 87.083, 86.332 86.621 C 83.445 85.857, 83.024 86.054, 81.585 88.835 M 101.678 116.848 C 100.710 119.266, 100.054 124.562, 99.911 131.098 C 99.787 136.819, 99.251 142.063, 98.720 142.750 C 98.189 143.438, 95.981 144, 93.812 144 C 88.975 144, 86 145.478, 86 147.880 C 86 150.370, 88.823 152.637, 93 153.502 C 94.925 153.900, 98.388 155.076, 100.695 156.113 C 106.373 158.667, 108.465 158.492, 111.034 155.250 C 113.135 152.599, 113.190 151.924, 112.574 136.500 C 112.223 127.700, 111.685 118.813, 111.380 116.750 C 110.850 113.171, 110.650 113, 107.021 113 C 103.542 113, 103.086 113.328, 101.678 116.848 M 128.370 119.597 C 125.985 120.768, 125.102 121.984, 124.660 124.707 C 124.005 128.743, 126.083 132.052, 131.747 135.994 C 133.532 137.236, 135.927 139.764, 137.068 141.610 C 139.772 145.985, 143.675 149, 146.635 149 C 149.254 149, 149.362 148.662, 149.019 141.507 C 148.842 137.807, 148.096 135.693, 146.140 133.346 C 144.688 131.603, 142.375 128.539, 141 126.535 C 135.229 118.127, 133.406 117.125, 128.370 119.597 M 72.089 120.668 C 69.832 123.215, 64.026 137.245, 64.012 140.185 C 63.951 153.603, 74.289 148.881, 79.330 133.188 C 80.799 128.617, 82 124.020, 82 122.973 C 82 119.285, 74.800 117.609, 72.089 120.668" stroke="none" fill="black" fill-rule="evenodd"/>
</svg>