<svg xmlns="http://www.w3.org/2000/svg" width="256" height="256" viewBox="0 0 256 256" version="1.1">
	<path d="M 103.327 40.419 C 102.131 41.292, 100.689 43.467, 100.122 45.253 C 96.583 56.403, 97.291 139.745, 101.008 149.522 C 103.476 156.011, 108.676 157.950, 111.609 153.473 C 112.964 151.406, 113.178 149.142, 112.786 141.011 C 112.523 135.547, 111.835 130.496, 111.257 129.788 C 110.679 129.080, 110.103 125.125, 109.978 121 C 109.852 116.875, 109.717 112.600, 109.677 111.500 C 109.637 110.400, 109.919 103.200, 110.305 95.500 C 110.690 87.800, 111.294 75.549, 111.647 68.275 C 112.480 51.102, 112.132 51.464, 126.943 52.364 C 140.602 53.194, 143.839 53.831, 144.952 55.910 C 145.865 57.616, 144.530 106.858, 143.472 110.517 C 142.978 112.223, 141.982 112.555, 137.007 112.670 C 129.703 112.837, 128.628 113.405, 130.114 116.311 C 131.718 119.447, 134.645 121.669, 141.636 125.061 C 148.512 128.396, 152.297 127.997, 153.890 123.768 C 156.489 116.871, 158 98.105, 158 72.742 C 158 40.242, 159.316 42.698, 141 41.019 C 117.159 38.833, 105.748 38.652, 103.327 40.419 M 49.721 40.927 C 43.198 41.494, 41.525 42.021, 39.358 44.188 C 37.909 45.636, 36.493 48.471, 36.137 50.636 C 35.786 52.761, 35.728 65.975, 36.006 80 C 36.574 108.561, 37.169 111.255, 43.898 115.737 C 47.511 118.143, 55.438 118.853, 58.764 117.068 C 60.626 116.068, 70.857 113.605, 77.661 112.519 C 84.101 111.490, 85.162 109.603, 86.236 97.255 C 86.750 91.340, 86.964 81.775, 86.712 76 C 86.459 70.225, 86.642 61.253, 87.118 56.062 C 87.848 48.104, 87.734 46.244, 86.392 44.194 C 85.024 42.107, 84.240 41.839, 80.839 42.295 C 78.661 42.587, 75.452 42.417, 73.708 41.916 C 69.067 40.585, 58.610 40.154, 49.721 40.927 M 52.354 53.190 C 49.355 54.619, 48.986 57.589, 49.100 79.375 C 49.210 100.586, 49.653 103.632, 52.569 103.241 C 53.631 103.098, 58.088 102.648, 62.473 102.241 C 73.384 101.227, 73.118 101.924, 72.774 75.251 C 72.623 63.563, 72.275 53.928, 72 53.838 C 71.725 53.748, 69.454 53.595, 66.953 53.497 C 64.453 53.400, 60.628 53.061, 58.453 52.744 C 56.279 52.427, 53.534 52.628, 52.354 53.190" stroke="none" fill="black" fill-rule="evenodd"/>
</svg>