<svg xmlns="http://www.w3.org/2000/svg" width="256" height="256" viewBox="0 0 256 256" version="1.1">
	<path d="M 93.961 33.372 C 93.667 33.667, 86.467 34.162, 77.963 34.473 C 63.140 35.015, 62.410 35.140, 60.317 37.497 C 58.604 39.427, 58.223 40.873, 58.547 44.227 C 58.773 46.577, 59.142 56.767, 59.366 66.871 C 59.678 80.958, 60.091 85.440, 61.136 86.093 C 61.886 86.562, 64.750 86.710, 67.500 86.422 C 70.250 86.134, 84.650 85.546, 99.500 85.114 C 134.067 84.109, 135.062 83.690, 134.873 70.238 C 134.828 67.074, 135.115 58.639, 135.510 51.493 C 136.525 33.115, 137.767 34.135, 113.498 33.407 C 103.047 33.094, 94.255 33.078, 93.961 33.372 M 79.030 46.745 C 76.022 46.951, 72.984 47.598, 72.280 48.182 C 71.501 48.829, 70.990 51.640, 70.976 55.372 C 70.962 58.743, 70.493 63.489, 69.932 65.921 C 68.467 72.277, 69.688 73.191, 78 71.958 C 81.575 71.428, 92.794 70.982, 102.932 70.968 C 113.070 70.954, 121.858 70.533, 122.461 70.033 C 124.100 68.672, 123.526 47.949, 121.819 46.867 C 120.548 46.061, 90.264 45.975, 79.030 46.745 M 135.500 96.092 C 133.300 96.567, 126.449 97.335, 120.275 97.800 C 112.022 98.421, 108.554 99.094, 107.178 100.339 C 103.388 103.769, 102.522 109.424, 102.792 129 L 103.047 147.500 105.699 149.853 C 108.125 152.006, 108.953 152.154, 115.425 151.594 C 119.316 151.257, 128.350 150.742, 135.500 150.448 C 142.650 150.155, 149.504 149.702, 150.732 149.443 C 155.076 148.525, 155.774 144.929, 154.895 128 C 153.385 98.950, 153.277 98.285, 149.764 96.532 C 146.442 94.875, 141.811 94.732, 135.500 96.092 M 81.651 97.682 C 80.912 98.421, 73.262 98.899, 54.500 99.378 C 47.900 99.547, 41.949 99.755, 41.276 99.842 C 34.472 100.719, 35.295 137.745, 42.351 148.183 C 45.113 152.269, 48.647 153.149, 57.965 152.069 C 62.109 151.588, 70 151.371, 75.500 151.587 C 81 151.803, 86.391 152.004, 87.481 152.034 C 90.192 152.110, 92.057 149.328, 91.075 146.673 C 90.641 145.500, 90.510 135.223, 90.783 123.834 L 91.280 103.127 88.217 100.063 C 85.239 97.085, 83.044 96.289, 81.651 97.682 M 126.500 109.979 C 116.071 111.149, 116.034 111.208, 116.014 126.643 C 116.003 134.363, 116.330 136.913, 117.383 137.317 C 120.178 138.389, 142.161 136.743, 142.668 135.423 C 143.558 133.104, 140.180 110.730, 138.808 109.860 C 137.374 108.951, 135.492 108.969, 126.500 109.979 M 69 111.063 C 66.525 111.497, 62.108 111.885, 59.184 111.926 C 50.163 112.052, 50 112.294, 50 125.560 C 50 136.563, 50.095 137.085, 52.250 137.879 C 54.196 138.596, 76.959 138.249, 77.811 137.489 C 77.982 137.337, 78.352 132.342, 78.635 126.391 C 78.917 120.439, 79.325 115.283, 79.542 114.932 C 80.192 113.881, 77.642 111.235, 75.500 110.738 C 74.400 110.483, 71.475 110.629, 69 111.063" stroke="none" fill="black" fill-rule="evenodd"/>
</svg>