<svg xmlns="http://www.w3.org/2000/svg" width="256" height="256" viewBox="0 0 256 256" version="1.1">
	<path d="M 64.073 28.635 C 62.795 30.259, 62 32.739, 62 35.100 C 62 37.919, 61.467 39.215, 59.979 40.011 C 58.868 40.606, 57.550 40.840, 57.050 40.531 C 56.551 40.222, 52.697 39.934, 48.485 39.891 C 41.800 39.822, 40.517 40.106, 38.369 42.123 C 35.258 45.045, 35.542 48.943, 39 50.787 C 40.804 51.748, 44.084 51.970, 50.784 51.584 L 60.068 51.049 61.060 53.657 C 62.171 56.580, 61.518 59.641, 59.227 62.250 C 58.022 63.622, 56.083 64, 50.246 64 C 41.891 64, 36.814 65.828, 34.235 69.765 C 32.809 71.940, 32.788 72.532, 34.059 74.794 C 34.852 76.204, 36.822 77.711, 38.438 78.143 C 41.046 78.839, 55.863 77.459, 56.908 76.422 C 57.929 75.409, 60 78.525, 60 81.075 C 60 85.550, 57.923 89.065, 54.925 89.665 C 51.550 90.340, 49.708 93.880, 51.475 96.296 C 52.160 97.233, 53.121 98.001, 53.610 98.001 C 54.100 98.002, 55.680 99.018, 57.123 100.258 C 59.282 102.115, 59.510 102.734, 58.415 103.757 C 57.683 104.441, 56.439 105, 55.649 105 C 54.860 105, 53.898 105.787, 53.512 106.750 C 52.306 109.753, 51.997 133.088, 53.044 142 C 53.909 149.363, 54.418 150.845, 56.844 153.078 L 59.646 155.655 79.573 155.377 C 90.533 155.224, 105.350 154.569, 112.500 153.920 C 127.418 152.567, 128.020 152.556, 133.772 153.539 C 140.303 154.655, 141.546 152.971, 142.497 141.723 C 142.925 136.650, 143.410 125.075, 143.573 116 C 143.737 106.925, 144.349 97.928, 144.935 96.007 C 145.521 94.085, 146 88.318, 146 83.191 C 146 71.697, 146.767 70, 151.964 70 C 156.190 70, 159 67.993, 159 64.976 C 159 61.783, 156.854 58.180, 154.625 57.629 C 151.131 56.765, 138.372 56.719, 123.750 57.518 L 110 58.270 110 55.790 C 110 51.647, 113.064 50.039, 125.792 47.501 C 143.591 43.953, 147.466 41.896, 146.822 36.342 C 146.384 32.560, 141.759 31.198, 135.204 32.920 C 129.828 34.333, 116.832 36.694, 109.587 37.574 C 106.107 37.997, 103.909 38.948, 102.049 40.836 C 99.546 43.375, 99.366 44.287, 98.204 60.308 C 97.342 72.185, 96.385 78.787, 94.941 82.808 C 90.569 94.988, 90.565 95.009, 91.726 98.085 C 92.652 100.538, 92.561 101.162, 91.167 101.896 C 88.953 103.060, 65.823 104.396, 63.059 103.519 L 60.890 102.830 63.195 100.888 C 73.019 92.613, 74.429 90.005, 73.484 81.864 C 72.693 75.051, 72.995 74.782, 82.417 73.906 C 89.954 73.206, 92 71.731, 92 67 C 92 61.748, 89.951 60.500, 81.330 60.500 L 73.500 60.500 73.178 57.690 C 72.667 53.235, 74.462 52, 81.448 52 C 86.681 52, 88 51.629, 89.877 49.630 C 92.609 46.723, 91.972 42.867, 88.370 40.507 C 86.487 39.273, 84.599 39.059, 80.095 39.569 C 73.466 40.319, 72.483 39.602, 72.842 34.275 C 73.002 31.896, 72.370 30.279, 70.578 28.487 C 67.447 25.356, 66.637 25.374, 64.073 28.635 M 112.359 71.461 C 111.115 72.332, 110.058 74.450, 109.740 76.711 C 108.875 82.842, 100.782 100.922, 98.587 101.625 C 96.736 102.218, 96.734 102.272, 98.526 103.275 C 99.816 103.996, 104.189 103.939, 112.939 103.085 C 135.914 100.842, 135.276 101.098, 133.793 94.721 C 132.849 90.660, 133.299 78.461, 134.605 72.750 L 135.233 70 124.839 70 C 117.342 70, 113.864 70.407, 112.359 71.461 M 123.856 116.478 C 123.593 116.740, 111.031 117.115, 95.939 117.310 C 80.848 117.505, 67.696 118.020, 66.713 118.454 C 65.100 119.166, 64.990 120.233, 65.586 129.371 C 65.949 134.942, 66.570 139.856, 66.965 140.292 C 69.770 143.383, 106.562 143.708, 117.584 140.739 C 120.931 139.838, 124.531 139.309, 125.584 139.563 C 129.343 140.471, 130.308 138.572, 131.038 128.836 C 131.425 123.663, 131.334 118.720, 130.833 117.750 C 130.009 116.153, 125.079 115.254, 123.856 116.478" stroke="none" fill="black" fill-rule="evenodd"/>
</svg>