<svg xmlns="http://www.w3.org/2000/svg" width="256" height="256" viewBox="0 0 256 256" version="1.1">
	<path d="M 39.063 31.192 C 36.416 32.613, 35.921 34.141, 33.991 46.872 C 32.203 58.670, 33.417 82.055, 37.398 112.500 C 38.189 118.550, 39.160 128.450, 39.556 134.500 C 40.423 147.759, 40.969 149.416, 45.199 151.603 C 49.099 153.620, 57.300 153.845, 83.500 152.657 C 103.930 151.731, 117.305 149.843, 123.800 146.970 C 129.125 144.615, 133.789 144.467, 138.654 146.500 C 143.574 148.556, 148.325 148.404, 150.387 146.125 C 153.010 143.226, 154.023 124.773, 155.281 57 C 155.531 43.549, 154.891 37.087, 153.089 34.861 L 151.177 32.500 104.839 31.836 C 79.352 31.471, 54.675 30.883, 50 30.528 C 43.849 30.062, 40.826 30.246, 39.063 31.192 M 48.938 45.039 C 45.880 46.928, 45.404 69.007, 47.945 91 C 48.485 95.675, 49.386 103.550, 49.946 108.500 C 50.506 113.450, 50.979 122, 50.998 127.500 C 51.016 133, 51.452 138.166, 51.967 138.980 C 53.079 140.740, 57.734 140.783, 89 139.319 C 108.308 138.415, 111.305 138.034, 118.395 135.583 C 126.462 132.794, 129.856 130.647, 128.008 129.505 C 126.326 128.466, 126.878 127, 128.950 127 C 130.023 127, 131.262 127.646, 131.704 128.436 C 132.146 129.225, 133.764 130.100, 135.301 130.378 C 138.500 130.958, 139.396 129.466, 140.335 121.985 C 141.038 116.393, 142.030 87.907, 142.293 65.781 C 142.467 51.116, 142.280 48.851, 140.766 47.337 C 139.226 45.797, 135.895 45.578, 109.770 45.298 C 93.672 45.125, 73.628 44.855, 65.228 44.697 C 56.828 44.538, 49.498 44.692, 48.938 45.039 M 101 59.991 C 97.975 60.437, 91.762 60.847, 87.193 60.901 C 75.401 61.041, 64.697 63.784, 63.437 66.987 C 63.110 67.819, 62.654 75.700, 62.424 84.500 C 61.861 106.029, 63.867 116.253, 69.215 119.115 C 71.924 120.565, 93.106 119.715, 106.895 117.603 C 119.870 115.616, 120.764 114.639, 122.653 100.370 C 123.444 94.392, 123.877 85.900, 123.614 81.500 C 123.101 72.898, 122.976 66.277, 123.299 64.763 C 123.410 64.245, 122.269 62.878, 120.763 61.726 C 117.645 59.337, 109.990 58.665, 101 59.991 M 95.500 73.046 C 92.750 73.474, 87.982 73.864, 84.905 73.912 C 76.445 74.045, 76 74.889, 76 90.794 C 76 103.202, 76.119 103.993, 78.145 105.078 C 80.651 106.419, 106.772 105.383, 108.635 103.868 C 109.323 103.309, 109.808 99.238, 109.866 93.542 C 109.918 88.370, 110.444 81.982, 111.035 79.346 C 111.971 75.167, 111.885 74.389, 110.363 73.276 C 108.474 71.895, 103.396 71.816, 95.500 73.046" stroke="none" fill="black" fill-rule="evenodd"/>
</svg>