<svg xmlns="http://www.w3.org/2000/svg" width="256" height="256" viewBox="0 0 256 256" version="1.1">
	<path d="M 82.679 27.038 C 80.029 29.122, 78.348 33.089, 77.610 39 C 76.715 46.177, 74.190 48.163, 68.646 46.055 C 67.119 45.475, 59.712 45.002, 52.185 45.005 C 39.489 45.010, 38.296 45.173, 35.683 47.264 C 33.211 49.242, 32.991 49.847, 33.885 52.198 C 35.530 56.524, 38.421 57.397, 53 57.969 C 66.199 58.488, 66.495 58.549, 66.268 60.714 C 66.053 62.766, 63.884 65.499, 55.123 74.754 C 53.265 76.716, 50.874 80.161, 49.808 82.411 C 42.821 97.161, 39.669 101.952, 35.255 104.530 C 31.835 106.528, 30.536 110.044, 31.168 115.592 C 31.479 118.318, 31.812 118.520, 36.500 118.827 C 39.874 119.048, 42.566 118.585, 44.778 117.405 C 47.067 116.183, 48.372 115.972, 49.105 116.705 C 51.025 118.625, 51.952 125.370, 51.976 137.601 C 52 149.730, 52.972 154.984, 55.797 158.250 C 57.557 160.285, 61.311 160.555, 62.755 158.750 C 64.562 156.492, 65.001 129.316, 63.357 121.500 C 62.548 117.650, 61.721 111.314, 61.520 107.420 C 61.319 103.526, 60.865 98.797, 60.511 96.912 C 59.841 93.338, 61.819 87.963, 66.921 79.500 C 70.968 72.786, 80.061 61.192, 81.830 60.489 C 82.749 60.125, 96.775 59.660, 113 59.456 C 149.259 59.002, 152.304 58.700, 154.982 55.295 C 157.514 52.077, 157.522 50.522, 155.017 48.017 C 153.119 46.119, 151.939 46.053, 127.496 46.471 C 113.451 46.711, 101.524 47.176, 100.992 47.505 C 100.461 47.833, 97.278 47.791, 93.920 47.411 C 87.055 46.635, 87.388 47.558, 90.034 36.631 C 91.354 31.178, 90.444 27.843, 87.156 26.084 C 85.647 25.276, 84.649 25.489, 82.679 27.038 M 113.250 68.674 C 111.236 70.079, 111 71.080, 111 78.221 C 111 83.397, 110.449 87.359, 109.430 89.506 C 107.918 92.693, 107.544 92.860, 99.180 94.081 C 89.265 95.529, 85.958 97.122, 86.731 100.077 C 87.497 103.009, 89.822 103.858, 99.120 104.601 C 108.743 105.371, 110.723 106.142, 112.053 109.640 C 113.690 113.944, 115.124 139.145, 113.822 140.714 C 112.949 141.766, 109.674 142.016, 99.487 141.809 C 88.034 141.576, 85.735 141.803, 82.153 143.520 C 77.432 145.783, 76.729 148.540, 80.096 151.587 C 82.836 154.066, 100.597 154.979, 132 154.254 C 155.550 153.711, 158 153.217, 158 149.019 C 158 144.971, 154 143.315, 140.039 141.582 C 132.636 140.663, 126.509 139.819, 126.424 139.706 C 126.340 139.593, 125.967 132.032, 125.595 122.905 C 124.843 104.409, 125.183 103.222, 130.875 104.473 C 134.376 105.242, 141.777 103.459, 144.250 101.252 C 146.692 99.073, 146.447 95.332, 143.750 93.607 C 142.512 92.815, 137.990 91.850, 133.699 91.462 C 124.806 90.657, 123.068 89.491, 122.846 84.179 C 122.216 69.125, 122.503 70.312, 119.050 68.526 C 115.572 66.727, 116.059 66.715, 113.250 68.674" stroke="none" fill="black" fill-rule="evenodd"/>
</svg>