<svg xmlns="http://www.w3.org/2000/svg" width="256" height="256" viewBox="0 0 256 256" version="1.1">
	<path d="M 110.917 28.414 C 110.369 28.957, 85.834 31.731, 75 32.474 C 58.219 33.626, 54 35.031, 54 39.466 C 54 44.161, 56.994 45, 73.755 45 C 88.713 45, 89.084 45.052, 89.914 47.250 C 90.398 48.531, 90.369 50.253, 89.847 51.250 C 89.015 52.837, 86.847 53, 66.530 53 C 39.262 53, 36.263 53.778, 37.601 60.500 C 38.816 66.608, 39.866 66.827, 65.299 66.278 C 83.954 65.876, 88.408 66.038, 89.100 67.142 C 89.940 68.481, 90.242 75.920, 90.413 99.500 L 90.500 111.500 78.724 111.776 L 66.949 112.053 67.519 109.776 C 68.227 106.949, 68.199 104.558, 67.402 99.750 C 66.715 95.603, 66.559 95.677, 75.500 95.926 C 80.787 96.073, 84.181 94.175, 85.154 90.527 C 85.815 88.046, 85.496 87.083, 83.228 84.716 C 80.964 82.353, 79.754 81.903, 76.004 82.028 C 69.668 82.239, 68.808 82.119, 69.429 81.115 C 70.542 79.314, 67.709 73.901, 64.892 72.444 C 63.301 71.622, 62 71.358, 62 71.858 C 62 72.358, 61.115 72.998, 60.033 73.281 C 58.913 73.574, 57.374 75.523, 56.461 77.806 C 54.846 81.841, 53.029 83.062, 46.500 84.497 C 40.536 85.807, 38.565 89.507, 41.557 93.777 C 42.905 95.703, 44.020 96, 49.902 96 C 57.088 96, 60 97.575, 60 101.463 C 60 102.456, 60.526 105.022, 61.168 107.166 C 62.614 111.991, 61.720 113.107, 55.296 114.500 C 50.269 115.590, 49.206 117.421, 51.608 120.851 C 54.741 125.324, 58.639 126.309, 73.596 126.407 C 90.089 126.516, 91.519 127.092, 90.688 133.291 C 90.402 135.422, 89.919 137.414, 89.615 137.718 C 88.919 138.414, 58.893 138.156, 53.500 137.408 C 48.551 136.722, 44.607 138.144, 42.487 141.379 C 41.012 143.631, 41.008 144.114, 42.441 146.885 C 43.534 149, 45.149 150.229, 47.756 150.929 C 58.502 153.817, 137.894 153.607, 143.908 150.674 C 147.356 148.993, 148.753 146.424, 147.403 144.250 C 145.072 140.498, 141.320 139.775, 122.644 139.479 L 104.547 139.192 103.705 135.940 C 101.654 128.025, 106.310 124.978, 117.479 126.923 C 127.017 128.584, 134.600 127.400, 138.138 123.698 C 139.712 122.051, 141 120.375, 141 119.974 C 141 118.663, 138.584 117.315, 133.750 115.927 C 128.543 114.432, 128.077 113.463, 130.844 109.885 C 131.859 108.573, 133.490 105.374, 134.470 102.776 C 136.219 98.138, 136.360 98.030, 142.109 96.899 C 148.774 95.588, 150.280 94.301, 149.822 90.310 C 149.554 87.975, 148.740 87.242, 145 85.975 C 138.624 83.814, 137.661 83.003, 136.122 78.500 C 134.271 73.087, 132.240 71, 128.820 71 C 126.489 71, 125.441 71.843, 123.234 75.498 C 120.782 79.558, 120.062 80.056, 115.832 80.617 C 110.242 81.358, 105.750 85.364, 105.750 89.607 C 105.750 93.335, 108.422 94.997, 114.441 95.014 C 122.972 95.037, 123.891 95.559, 122.914 99.834 C 122.454 101.850, 122.328 105.097, 122.634 107.048 C 123.427 112.101, 121.997 112.820, 111.500 112.648 L 102.500 112.500 102.289 89.785 C 102.174 77.291, 102.471 66.827, 102.951 66.531 C 103.430 66.234, 109.600 66.397, 116.661 66.893 C 125.984 67.548, 132.512 67.439, 140.500 66.495 C 153.547 64.952, 154.373 64.672, 155.925 61.265 C 156.938 59.041, 156.828 58.246, 155.201 56.070 L 153.281 53.500 128.191 53.500 C 111.815 53.500, 102.732 53.131, 102.038 52.437 C 100.436 50.836, 101.970 45.052, 104.389 43.577 C 105.550 42.869, 110.775 41.754, 116 41.100 C 121.225 40.446, 127.075 39.143, 129 38.205 C 131.952 36.767, 132.465 36.031, 132.279 33.507 C 131.945 28.997, 129.718 28, 119.976 28 C 115.222 28, 111.146 28.186, 110.917 28.414" stroke="none" fill="black" fill-rule="evenodd"/>
</svg>