<svg xmlns="http://www.w3.org/2000/svg" width="256" height="256" viewBox="0 0 256 256" version="1.1">
	<path d="M 58.659 28.933 C 42.953 29.462, 41.700 29.646, 40.067 31.665 C 37.876 34.376, 35.653 51.327, 35.564 66 C 35.469 81.590, 36.962 120.064, 38.104 131.500 C 40.343 153.907, 40.763 156.354, 42.597 157.694 C 44.983 159.439, 69.575 159.390, 85 157.611 C 97.315 156.189, 119.408 156.371, 137.134 158.039 C 150.259 159.273, 152.609 158.604, 153.595 153.345 C 154.161 150.328, 153.472 62.417, 152.695 38.500 C 152.392 29.176, 152.941 29.302, 110.500 28.789 C 91.250 28.556, 67.922 28.621, 58.659 28.933 M 63.829 41.976 C 56.860 42.264, 50.840 42.820, 50.450 43.212 C 48.562 45.111, 47.695 70.638, 48.868 89.791 C 49.532 100.631, 50.204 117.825, 50.363 128 L 50.650 146.500 66.075 146.147 C 74.850 145.946, 82.362 145.313, 83.500 144.679 C 86.290 143.125, 131.803 143.450, 136.677 145.058 C 139.856 146.108, 140.401 146.034, 141.296 144.435 C 142.882 141.601, 141.647 80.155, 139.888 74.394 C 139.273 72.378, 139.297 70.348, 139.958 68.610 C 140.576 66.986, 140.723 61.779, 140.332 55.386 C 139.768 46.175, 139.421 44.666, 137.586 43.464 C 135.952 42.394, 128.923 42.017, 105.993 41.770 C 89.772 41.595, 70.798 41.687, 63.829 41.976 M 93.500 46.685 C 91.850 47.568, 90.275 48.622, 90 49.026 C 89.725 49.430, 85.237 50.096, 80.026 50.505 C 70.254 51.271, 66.579 52.680, 65.713 55.990 C 64.773 59.585, 67.836 60.796, 78.788 61.159 C 88.771 61.490, 90.924 62.216, 90.985 65.275 C 91.020 67.077, 85.097 68, 73.500 68 C 59.883 68, 56.525 68.769, 55.458 72.134 C 54.896 73.903, 55.437 75.001, 57.994 77.286 C 60.793 79.787, 61.748 80.093, 64.872 79.487 C 66.868 79.101, 82.675 78.608, 100 78.392 C 119.336 78.150, 132.525 77.581, 134.155 76.917 C 138.110 75.307, 138.583 72.014, 135.278 69.107 C 132.620 66.770, 132.263 66.729, 119.894 67.355 C 102.202 68.251, 98.839 67.337, 102.317 62.582 C 103.449 61.033, 105.094 60.797, 114.067 60.891 C 120.751 60.962, 125.398 60.544, 127 59.728 C 130.317 58.037, 130.772 54.007, 127.935 51.448 C 126.037 49.736, 124.458 49.527, 114.888 49.720 C 108.571 49.847, 104 49.543, 104 48.995 C 104 48.044, 98.785 44.966, 97.300 45.040 C 96.860 45.062, 95.150 45.802, 93.500 46.685 M 66.736 82.809 C 64.124 85.819, 63.841 89.528, 66.011 92.287 C 67.105 93.678, 68 95.307, 68 95.908 C 68 96.508, 68.628 97, 69.396 97 C 70.164 97, 72.215 98.620, 73.953 100.599 C 76.843 103.890, 76.991 104.382, 75.690 106.349 C 74.524 108.111, 73.111 108.555, 67.883 108.803 C 64.372 108.969, 61.161 109.444, 60.746 109.857 C 59.177 111.420, 62.549 114.044, 66.309 114.185 C 71.394 114.376, 73.544 117.257, 74.427 125.059 C 74.808 128.429, 75.543 132.297, 76.058 133.654 C 76.993 136.112, 77.033 136.118, 86.748 135.449 C 97.525 134.707, 101 133.264, 101 129.534 C 101 126.040, 97.454 124, 91.384 124 C 85.519 124, 85 123.384, 85 116.418 C 85 110.735, 87.527 107.995, 92.750 108.014 C 99.067 108.037, 100.996 108.934, 101.032 111.867 C 101.081 115.938, 103.060 117.694, 110.861 120.585 C 116.183 122.558, 118.935 124.274, 121.406 127.161 C 125.368 131.790, 130.228 133.629, 132.499 131.358 C 134.417 129.440, 134.398 127.537, 132.429 124.532 C 131.237 122.713, 131.115 121.654, 131.922 120.146 C 133.794 116.649, 134.142 111.576, 132.650 109.537 C 131.347 107.755, 130.865 107.713, 125.738 108.943 C 119.986 110.323, 114.549 109.853, 111.639 107.726 C 110.147 106.634, 110.108 106.234, 111.337 104.554 C 112.454 103.026, 113.793 102.679, 117.847 102.864 C 123.622 103.127, 126.273 102.040, 128.632 98.439 C 130.152 96.118, 130.142 95.814, 128.477 93.974 C 127.494 92.888, 127.127 92, 127.661 92 C 128.195 92, 129.579 90.313, 130.737 88.250 C 134.531 81.494, 134.672 81.526, 99.351 81.309 C 71.201 81.137, 68.061 81.281, 66.736 82.809 M 79.250 91.789 C 78.250 92.452, 78.250 92.942, 79.250 94.239 C 81.067 96.597, 113.571 97.772, 116.531 95.588 C 118.148 94.395, 118.268 93.899, 117.203 92.817 C 115.705 91.297, 81.395 90.367, 79.250 91.789" stroke="none" fill="black" fill-rule="evenodd"/>
</svg>