<svg xmlns="http://www.w3.org/2000/svg" width="256" height="256" viewBox="0 0 256 256" version="1.1">
	<path d="M 102.449 33.154 C 97.576 37.645, 93.072 45.328, 92.307 50.452 C 92.057 52.128, 91.069 54.175, 90.112 55 C 87.482 57.266, 85 61.668, 85 64.065 C 85 65.239, 86.585 67.785, 88.522 69.722 C 91.620 72.820, 91.975 73.682, 91.465 76.872 C 90.344 83.881, 89.978 84.872, 87.369 87.973 C 85.296 90.437, 84.661 92.396, 84.377 97.208 C 84.179 100.568, 83.897 103.437, 83.749 103.584 C 83.602 103.731, 80.878 102.973, 77.697 101.899 C 72.880 100.273, 71.233 100.129, 67.851 101.040 C 65.618 101.641, 63.225 101.916, 62.533 101.651 C 60.988 101.058, 59.774 76.411, 61.159 73.750 C 61.859 72.405, 63.347 72, 67.583 72 C 72.260 72, 73.467 71.599, 75.548 69.354 C 78.288 66.397, 78.575 64.341, 76.608 61.750 C 75.600 60.422, 73.818 60, 69.222 60 C 60.239 60, 60 59.806, 60 52.528 C 60 47.711, 59.523 45.663, 57.927 43.635 C 53.356 37.824, 45.961 42.648, 47.431 50.482 C 47.768 52.281, 47.595 54.934, 47.047 56.377 C 46.096 58.879, 45.710 59, 38.713 59 C 32.651 59, 30.987 59.363, 29.131 61.092 C 26.334 63.698, 26.691 66.698, 30.100 69.233 C 32.055 70.687, 34.536 71.208, 40.100 71.333 L 47.500 71.500 48.151 77 C 48.509 80.025, 48.847 86.855, 48.901 92.179 C 49.014 103.228, 48.449 104.313, 41.705 105.997 C 30.164 108.878, 29.005 109.344, 27.435 111.740 C 25.893 114.094, 25.913 114.357, 27.780 116.225 C 29.043 117.487, 31.353 118.295, 34.132 118.444 C 39.632 118.741, 57.675 116.618, 61 115.284 C 62.375 114.732, 67.420 113.970, 72.210 113.591 C 79.660 113.002, 81.317 113.162, 83.657 114.695 C 86.176 116.345, 91.430 116.817, 109.250 116.993 C 110.605 117.006, 110.034 119.935, 108.250 122.129 C 105.465 125.552, 94.034 136.981, 87.109 143.265 C 81.267 148.566, 80.807 149.283, 81.384 152.170 C 82.148 155.989, 83.701 158.003, 85.872 157.991 C 90.693 157.963, 104.549 146.820, 112.728 136.394 C 114.500 134.135, 117.407 130.861, 119.190 129.119 L 122.431 125.950 124.214 129.426 C 125.195 131.338, 127.940 134.238, 130.313 135.872 C 132.687 137.505, 138.414 142.477, 143.041 146.920 C 151.332 154.884, 154.255 156.345, 156.800 153.800 C 158.684 151.916, 158.210 147.586, 155.750 144.191 C 149.592 135.693, 147.425 133.041, 146.626 133.021 C 146.145 133.010, 143.956 130.960, 141.762 128.466 C 137.337 123.439, 132.792 120.649, 130.200 121.369 C 129.265 121.629, 127.487 122.132, 126.250 122.488 C 124.449 123.006, 124 122.734, 124 121.126 C 124 118.072, 125.610 117.618, 135.506 117.882 C 144.333 118.117, 153.185 116.741, 155.750 114.733 C 157.766 113.156, 157.192 109.529, 154.529 107.028 C 152.143 104.786, 151.629 104.725, 139.508 105.248 C 125.235 105.865, 124.298 105.393, 125.588 98.236 C 126.593 92.657, 127.525 92, 134.444 92 C 140.933 92, 149.099 89.791, 150.977 87.528 C 151.809 86.526, 151.501 85.531, 149.717 83.457 C 147.389 80.751, 147.127 80.701, 130.928 79.837 C 112.977 78.880, 107.753 77.597, 103.815 73.177 L 101.352 70.413 103.853 68.526 C 105.987 66.916, 108.557 66.589, 121.427 66.286 C 129.717 66.092, 138.300 65.835, 140.500 65.716 C 142.700 65.597, 146.355 65.834, 148.622 66.241 C 152.262 66.896, 153.052 66.675, 155.372 64.355 C 160.376 59.351, 157.675 54.366, 148.594 51.847 C 145.855 51.087, 143.560 49.827, 143.396 48.993 C 141.545 39.534, 138.301 33, 135.456 33 C 132.427 33, 129.938 36.574, 129.329 41.794 C 128.769 46.594, 128.960 47.348, 131.369 49.864 C 132.832 51.390, 133.722 52.945, 133.347 53.319 C 132.337 54.330, 106.729 54.115, 105.098 53.082 C 103.948 52.353, 104.199 51.337, 106.497 47.415 C 108.038 44.786, 110.831 41.102, 112.706 39.228 C 115.390 36.544, 116.048 35.149, 115.807 32.660 C 115.521 29.719, 115.208 29.479, 111.288 29.194 C 107.527 28.921, 106.581 29.345, 102.449 33.154 M 99.607 93.095 C 96.992 95.152, 93 101.793, 93 104.087 C 93 104.933, 95.408 105.090, 101.750 104.658 C 106.563 104.330, 111.045 104.048, 111.711 104.031 C 113.618 103.982, 115.377 96.122, 114.105 93.332 C 113.184 91.309, 112.328 91, 107.656 91 C 103.703 91, 101.561 91.557, 99.607 93.095" stroke="none" fill="black" fill-rule="evenodd"/>
</svg>