<svg xmlns="http://www.w3.org/2000/svg" width="256" height="256" viewBox="0 0 256 256" version="1.1">
	<path d="M 91.220 22.250 C 90.657 22.938, 89.702 25.300, 89.098 27.500 C 88.494 29.700, 87.663 31.959, 87.250 32.520 C 86.803 33.127, 80.993 33.531, 72.858 33.520 C 61.067 33.503, 58.943 33.746, 57.208 35.315 C 54.459 37.799, 53.938 40.466, 55.708 42.993 C 57.116 45.004, 57.938 45.105, 71.466 44.918 C 79.316 44.809, 86.247 45.035, 86.869 45.419 C 87.491 45.803, 88 47.054, 88 48.199 C 88 52.430, 85.643 52.934, 65.700 52.968 C 44.209 53.005, 41 53.787, 41 58.990 C 41 62.628, 42.693 63.601, 50.500 64.451 C 59.761 65.461, 61 65.863, 61 67.866 C 61 70.344, 57.696 73.986, 55.383 74.059 C 54.347 74.091, 51.475 75.108, 49 76.318 C 40.706 80.374, 43.469 86, 53.754 86 C 57.666 86, 59.222 86.415, 59.668 87.578 C 60.892 90.767, 57.440 92.379, 48.163 92.953 C 39.065 93.515, 36 94.778, 36 97.967 C 36 98.915, 36.949 100.547, 38.109 101.595 C 40.069 103.365, 41.819 103.484, 62.745 103.276 C 75.135 103.152, 87.673 102.607, 90.608 102.065 C 94.892 101.273, 96.688 101.392, 99.722 102.669 C 103.013 104.055, 105.047 104.113, 115.500 103.119 C 122.100 102.491, 131.388 101.982, 136.139 101.989 C 143.002 101.998, 145.239 101.627, 147.016 100.188 C 152.055 96.108, 145.816 90.974, 135.690 90.869 C 132.836 90.840, 130.050 90.910, 129.500 91.026 C 127.319 91.486, 126.024 90.913, 125.026 89.048 C 124.193 87.492, 124.417 86.689, 126.127 85.097 C 127.990 83.360, 129.222 83.166, 135.495 83.618 C 143.409 84.189, 146.015 82.962, 145.985 78.679 C 145.950 73.776, 141.249 71.505, 133.197 72.501 C 127.214 73.241, 125 72.137, 125 68.413 C 125 65.014, 127.807 64, 137.212 64 C 143.145 64, 146.197 63.550, 147.777 62.443 C 150.316 60.665, 150.656 57.279, 148.581 54.441 C 147.310 52.704, 145.789 52.486, 134.090 52.370 C 126.901 52.299, 116.289 51.918, 110.509 51.524 C 100.236 50.824, 100 50.753, 100 48.372 C 100 45.095, 102.674 44.259, 110.545 45.074 C 117.006 45.742, 130 44.846, 133.250 43.507 C 135.186 42.709, 135.527 39.853, 134.021 37.039 C 132.426 34.060, 124.052 32.645, 111.830 33.290 L 101.003 33.861 100.409 31.180 C 99.190 25.686, 98.726 24.458, 97.227 22.750 C 95.429 20.703, 92.676 20.474, 91.220 22.250 M 90.228 64.080 C 77.560 64.619, 74.619 65.035, 72.978 66.520 C 70.859 68.438, 70.362 71.488, 72.004 72.503 C 72.557 72.844, 75.906 73.208, 79.448 73.312 C 84.652 73.464, 86.281 73.923, 87.943 75.708 C 90.626 78.589, 90.539 79.596, 87.354 82.548 C 85.090 84.646, 83.736 85, 77.976 85 C 73.238 85, 70.879 85.440, 70.011 86.487 C 67.380 89.657, 69.486 90.738, 79.172 91.189 C 85.292 91.474, 89.608 92.208, 91.722 93.323 C 95.069 95.088, 96.068 94.934, 111.250 90.301 C 112.385 89.954, 113 88.760, 113 86.902 C 113 83.811, 112.656 83.646, 103.850 82.508 C 99.808 81.986, 92.733 78, 95.847 78 C 96.481 78, 97 77.155, 97 76.122 C 97 73.077, 99.725 71.653, 105.306 71.781 C 111.144 71.915, 115 70.012, 115 66.996 C 115 63.730, 110.606 63.213, 90.228 64.080 M 34.750 108.811 C 32.487 109.076, 32 109.625, 32 111.911 C 32 113.440, 32.788 115.362, 33.750 116.183 C 36.574 118.591, 46.686 120.405, 58.500 120.624 C 64.550 120.735, 69.838 120.866, 70.250 120.913 C 71.641 121.074, 71.014 123.916, 68.341 129.560 C 65.562 135.430, 63.897 136.833, 52.487 142.922 C 49.200 144.676, 45.496 147.064, 44.256 148.230 C 39.437 152.756, 43.217 158.677, 50.086 157.362 C 56.591 156.118, 69.040 148.570, 73.775 143 C 76.135 140.224, 81.026 130.024, 81.809 126.246 L 82.584 122.500 93.542 121.813 C 99.586 121.434, 104.901 121.521, 105.394 122.007 C 106.365 122.964, 104.287 129, 102.987 129 C 100.088 129, 101.609 141.303, 105.363 148.217 C 107.227 151.649, 108.586 152.594, 116 155.609 C 132.438 162.294, 152.847 162.339, 157.497 155.701 C 160.303 151.695, 158.720 140.570, 154.730 136.250 C 150.203 131.349, 145.080 135.304, 147.051 142.178 C 148.994 148.954, 148.025 149.463, 136.118 147.924 C 126.996 146.744, 120.562 144.785, 117.866 142.366 C 114.941 139.742, 112.271 125.129, 114.338 123.062 C 114.926 122.474, 119.314 122, 124.159 122 C 128.977 122, 136.376 121.486, 140.602 120.857 C 148.857 119.629, 152 117.667, 152 113.741 C 152 109.752, 148.991 108.923, 135.214 109.117 C 128.221 109.215, 120.475 109.263, 118 109.223 C 94.092 108.842, 36.905 108.558, 34.750 108.811" stroke="none" fill="black" fill-rule="evenodd"/>
</svg>