<svg xmlns="http://www.w3.org/2000/svg" width="256" height="256" viewBox="0 0 256 256" version="1.1">
	<path d="M 57.872 26.654 C 57.118 27.563, 56.493 30.376, 56.485 32.904 C 56.461 39.995, 55.934 40.365, 46.943 39.616 C 38.187 38.885, 34.839 39.864, 33.110 43.657 C 30.313 49.797, 33.338 52, 44.568 52 C 51.166 52, 53 52.343, 54.345 53.829 C 56.466 56.172, 56.430 57.300, 54.171 59.345 C 52.763 60.619, 50.332 61, 43.606 61 C 32.002 61, 28.098 63.151, 28.032 69.581 C 27.996 73.082, 30.480 74.905, 36.652 75.908 L 40.365 76.512 40.526 84.506 C 40.660 91.143, 40.280 93.322, 38.286 97.342 C 33.876 106.234, 36.946 110.141, 46.637 107.969 C 52.243 106.713, 55.574 107.990, 56.276 111.665 C 57.299 117.015, 56.102 117.671, 43.874 118.464 C 30.092 119.357, 28 120.169, 28 124.625 C 28 129.949, 29.937 130.506, 50 130.953 C 56.018 131.087, 56.267 131.605, 56.389 144.289 C 56.484 154.097, 56.780 156.099, 58.405 157.895 C 60.824 160.568, 63.175 160.569, 65.593 157.898 C 67.136 156.193, 67.590 153.741, 67.998 144.930 C 68.652 130.777, 68.834 130.579, 80.091 131.807 C 85.069 132.351, 89.214 132.359, 90.250 131.827 C 93.643 130.087, 91.601 121.619, 87.543 120.600 C 86.330 120.296, 82.224 119.793, 78.419 119.484 C 66.587 118.522, 63.489 116.072, 67.993 111.237 C 70.262 108.803, 75.128 107.179, 82.743 106.316 C 85.627 105.989, 88.490 105.115, 89.105 104.374 C 90.960 102.139, 89.315 98.305, 86.006 97.152 C 83.162 96.161, 83.003 95.818, 83.060 90.802 C 83.163 81.625, 84.497 76.134, 87.347 73.160 C 92.398 67.888, 89.937 61, 83.003 61 C 81.167 61, 76.789 60.499, 73.276 59.888 C 67.196 58.829, 66.904 58.649, 67.194 56.138 C 67.491 53.574, 67.741 53.482, 76.146 52.841 C 86.021 52.088, 88.711 50.999, 89.618 47.386 C 90.760 42.836, 88.149 41.500, 78.117 41.500 C 67.219 41.500, 65.549 40.496, 66.450 34.486 C 66.945 31.186, 66.646 29.820, 64.962 27.679 C 62.562 24.628, 59.876 24.239, 57.872 26.654 M 106.533 34.907 C 100 35.463, 99.425 35.711, 97.283 38.898 C 94.780 42.624, 94.447 45.098, 96.047 48.088 C 96.702 49.311, 97.232 63.814, 97.461 86.773 C 97.663 106.973, 98.141 125.131, 98.525 127.125 C 98.908 129.119, 98.699 134.670, 98.062 139.462 C 96.337 152.421, 98.383 157, 105.900 157 C 107.919 157, 109.955 155.999, 112 154 C 114.232 151.818, 116.027 151, 118.584 151 C 124.244 151, 128.611 148.176, 128.142 144.819 C 127.950 143.449, 134.217 139, 136.340 139 C 137.543 139, 140.771 140.489, 143.513 142.308 C 152.956 148.573, 158.843 151.154, 161.024 149.987 C 163.639 148.587, 163.615 143.732, 160.972 139.454 C 159.192 136.574, 152.749 131.658, 146.540 128.444 C 143.366 126.801, 144.176 117.960, 148.033 112.137 C 149.645 109.703, 151.226 106.090, 151.548 104.106 C 151.870 102.123, 153.170 98.291, 154.438 95.592 C 157.159 89.797, 156.678 86.596, 152.635 83.577 C 150.221 81.775, 147.855 81.435, 133.688 80.860 C 121.545 80.366, 116.842 80.518, 114.866 81.466 C 112.321 82.688, 112.188 82.599, 110.946 78.836 C 109.563 74.647, 108.971 48.706, 110.229 47.442 C 111.298 46.367, 139.048 46.955, 141.183 48.098 C 142.508 48.807, 143 50.238, 143 53.380 C 143 59.417, 140.958 61, 133.171 61 C 128.333 61, 126.568 61.432, 125 63 C 122.605 65.395, 122.518 66.912, 124.503 71.661 L 126.006 75.258 132.822 74.586 C 140.209 73.858, 149.857 71.587, 151.025 70.301 C 151.426 69.861, 152.709 66.686, 153.877 63.246 C 155.452 58.607, 156 54.545, 156 47.519 C 156 38.779, 155.826 37.937, 153.750 36.638 C 151.213 35.050, 118.814 33.862, 106.533 34.907 M 54.147 74.697 C 51.012 76.242, 50.841 76.581, 51.510 79.925 C 51.904 81.891, 52.512 85.731, 52.863 88.459 C 53.400 92.640, 53.892 93.525, 56 94.109 C 60.513 95.358, 67.790 95.067, 69.278 93.579 C 71.194 91.663, 72.500 76.308, 70.910 74.392 C 69.266 72.410, 58.387 72.609, 54.147 74.697 M 111.224 93 C 109.587 98.142, 109.378 116.253, 110.844 125.839 C 111.546 130.426, 111.845 135.430, 111.509 136.961 C 110.523 141.450, 111.853 145, 114.521 145 C 116.452 145, 116.940 144.313, 117.540 140.750 C 117.933 138.412, 119.503 134.684, 121.029 132.464 C 122.554 130.244, 123.938 127.544, 124.104 126.464 C 124.582 123.354, 123.056 118.778, 120.359 115.233 C 116.604 110.299, 113.903 103.469, 114.043 99.263 C 114.111 97.193, 113.756 94.150, 113.253 92.500 L 112.338 89.500 111.224 93 M 127.267 94.636 C 125.037 96.497, 125.036 96.507, 126.890 100.576 C 128.761 104.685, 133.494 107.792, 136.263 106.729 C 137.598 106.217, 141.533 95.200, 140.684 94.351 C 140.424 94.090, 137.801 93.629, 134.855 93.325 C 130.549 92.881, 129.063 93.138, 127.267 94.636" stroke="none" fill="black" fill-rule="evenodd"/>
</svg>