<svg xmlns="http://www.w3.org/2000/svg" width="256" height="256" viewBox="0 0 256 256" version="1.1">
	<path d="M 83.411 27.496 C 82.469 28.933, 81.758 31.547, 81.831 33.304 C 82.187 41.919, 78.534 45.586, 71.236 43.940 C 69.310 43.506, 62.084 43.578, 55.178 44.101 C 44.153 44.936, 42.222 45.356, 39.350 47.546 C 36.669 49.592, 36.226 50.442, 36.894 52.271 C 38.424 56.458, 41.454 57.172, 55.250 56.597 C 67.171 56.100, 68 56.185, 68 57.911 C 68 58.927, 65.808 62.055, 63.130 64.864 C 60.451 67.673, 56.700 71.696, 54.795 73.806 C 52.889 75.915, 49.343 79.171, 46.915 81.041 C 39.179 86.999, 36 90.335, 36 92.496 C 36 95.707, 37.961 97, 42.832 97 C 47.781 97, 52.867 94.378, 55.392 90.524 C 56.290 89.154, 58.815 87.537, 61.145 86.838 C 65.218 85.618, 65.349 85.655, 67.967 88.791 L 70.636 91.988 94.191 92.152 C 116.457 92.308, 117.904 92.205, 120.623 90.272 C 127.460 85.412, 136.859 85.486, 146.780 90.478 C 153.841 94.031, 155.418 93.620, 155.813 88.123 C 156.234 82.267, 154.142 80.194, 141.547 73.992 C 131.018 68.807, 127.951 66.564, 124.232 61.331 C 122.178 58.442, 122.119 58.023, 123.561 56.581 C 124.845 55.297, 127.654 55, 138.499 55 C 151.506 55, 151.906 54.936, 153.795 52.533 C 155.966 49.773, 155.710 45.829, 153.225 43.781 C 152.039 42.803, 144.562 42.500, 121.586 42.500 C 95.336 42.500, 91.550 42.309, 91.891 41 C 94.121 32.450, 94.217 31.224, 92.875 28.411 C 90.910 24.292, 85.832 23.801, 83.411 27.496 M 83.182 58.030 C 81.095 59.303, 79.096 61.805, 77.795 64.777 C 76.656 67.375, 74.437 70.665, 72.863 72.089 C 70.217 74.482, 68.997 77.927, 70.750 78.055 C 78.847 78.647, 112.109 78.314, 113.750 77.624 C 116.312 76.548, 116.482 75.761, 114.819 72.684 C 114.170 71.483, 113.382 67.578, 113.069 64.007 C 112.523 57.773, 112.380 57.488, 109.500 56.875 C 107.850 56.524, 102 56.185, 96.500 56.122 C 88.092 56.026, 85.972 56.330, 83.182 58.030 M 71.500 100.214 C 52.737 101.244, 52.154 101.529, 55.518 108.035 C 57.338 111.554, 58.153 111.750, 73.500 112.351 C 80.100 112.610, 86.682 113.279, 88.127 113.839 L 90.753 114.857 90.828 130.730 C 90.935 153.531, 92.623 160, 98.464 160 C 104.789 160, 105.343 158.430, 104.440 143.060 C 103.459 126.349, 103.757 116.879, 105.314 115.291 C 105.985 114.607, 113.188 113.412, 121.899 112.540 C 130.368 111.692, 137.855 110.535, 138.538 109.969 C 139.220 109.402, 139.995 107.809, 140.259 106.428 C 141.096 102.048, 137.275 101.015, 119.800 100.894 C 111.385 100.836, 100 100.498, 94.500 100.144 C 89 99.790, 78.650 99.821, 71.500 100.214 M 121.297 126.517 C 119.009 127.479, 118.101 128.648, 117.611 131.263 C 116.509 137.136, 117.998 138.731, 127.704 142.070 C 130.663 143.088, 134.251 144.839, 135.677 145.961 C 138.869 148.472, 145.496 148.755, 146.393 146.418 C 147.719 142.963, 146.817 140.601, 142.750 136.884 C 140.413 134.748, 138.075 133, 137.555 133 C 137.035 133, 135.460 131.917, 134.055 130.593 C 129.792 126.576, 124.885 125.009, 121.297 126.517 M 56.250 133.879 C 55.013 137.096, 53.986 140.802, 53.968 142.114 C 53.951 143.426, 53.293 145.350, 52.507 146.388 C 50.202 149.433, 52.249 152, 56.983 152 C 60.678 152, 61.035 151.722, 63.416 146.981 C 64.802 144.220, 67.358 140.193, 69.095 138.032 C 71.353 135.222, 72.116 133.385, 71.772 131.586 C 71.507 130.202, 71.788 128.865, 72.395 128.614 C 73.003 128.363, 70.125 128.129, 66 128.094 L 58.500 128.029 56.250 133.879" stroke="none" fill="black" fill-rule="evenodd"/>
</svg>