<svg xmlns="http://www.w3.org/2000/svg" width="256" height="256" viewBox="0 0 256 256" version="1.1">
	<path d="M 85.455 27.455 C 84.105 28.805, 83 30.360, 83 30.911 C 83 31.461, 81.580 34.294, 79.844 37.206 C 78.108 40.118, 76.158 43.492, 75.511 44.704 C 74.125 47.303, 68.984 53.813, 63.824 59.507 C 61.802 61.738, 59.850 64.749, 59.486 66.198 C 59.123 67.648, 57.245 70.558, 55.314 72.667 C 53.383 74.775, 50.774 78.758, 49.517 81.517 C 48.260 84.276, 45.585 88.504, 43.573 90.913 C 38.098 97.466, 37.909 98.081, 39.967 102.678 C 43.504 110.577, 46.849 109.794, 52.853 99.662 C 55.247 95.622, 59.907 89.486, 63.209 86.027 C 67.360 81.679, 70.372 77.232, 72.971 71.619 C 76.513 63.967, 78.874 60.725, 83.722 56.851 C 87.338 53.963, 89.666 53.787, 94.195 56.062 C 100.122 59.038, 104.597 59.922, 118.321 60.831 C 126.829 61.394, 130.413 62.018, 131.108 63.056 C 133.573 66.745, 128.809 76.639, 120.063 85.991 C 117.753 88.461, 114.666 92.680, 113.204 95.367 C 110.139 100.999, 106.998 103.451, 104.049 102.516 C 102.611 102.059, 102 101.010, 102 98.998 C 102 93.762, 100.329 91.239, 95.424 89.069 C 87.259 85.458, 80.701 87.104, 79.850 92.979 C 79.543 95.097, 80.429 95.863, 87 99.168 C 91.125 101.242, 95.387 103.202, 96.472 103.524 C 97.731 103.896, 98.035 104.360, 97.314 104.806 C 96.692 105.190, 95.865 107.202, 95.476 109.276 C 94.299 115.550, 91.171 119.100, 85.082 121.073 C 81.083 122.368, 78.463 124.120, 75.082 127.762 C 72.029 131.049, 68.831 133.303, 65.500 134.517 C 60.219 136.440, 51.184 142.258, 49.500 144.821 C 43.960 153.249, 44.406 156, 51.312 156 C 54.832 156, 56.906 155.058, 63.517 150.457 C 67.897 147.408, 72.610 143.858, 73.990 142.567 C 75.371 141.276, 78.402 139.266, 80.728 138.101 C 86.054 135.432, 91.063 131.895, 98.780 125.355 C 102.483 122.217, 106.928 119.532, 110.176 118.473 C 116.771 116.320, 117.693 115.594, 120.362 110.442 C 124.666 102.134, 128.582 95.670, 132.058 91.139 C 140.860 79.665, 143.681 74.476, 146.005 65.485 C 148.674 55.160, 148.287 51.703, 144.236 49.652 C 140.069 47.543, 135.180 46.928, 122.805 46.955 C 112.183 46.978, 93 44.405, 93 42.957 C 93 42.606, 93.670 40.109, 94.489 37.409 C 96.449 30.949, 96.381 28.655, 94.171 26.655 C 91.574 24.305, 88.305 24.605, 85.455 27.455" stroke="none" fill="black" fill-rule="evenodd"/>
</svg>