<svg xmlns="http://www.w3.org/2000/svg" width="256" height="256" viewBox="0 0 256 256" version="1.1">
	<path d="M 73 26.791 C 71.625 27.718, 69.838 29.382, 69.028 30.489 C 68.218 31.595, 65.856 34.350, 63.778 36.612 C 61.700 38.873, 60 41.054, 60 41.457 C 60 41.861, 58.988 43.611, 57.752 45.346 C 56.515 47.081, 55.502 48.806, 55.502 49.179 C 55.501 49.552, 53.138 52.966, 50.250 56.764 C 44.534 64.283, 43.923 66.715, 47.041 69.537 C 48.954 71.268, 49.063 72.351, 48.791 86.869 L 48.500 102.354 41.750 105.770 C 33.342 110.024, 32.861 112.166, 39.640 115.165 C 43.777 116.995, 46.154 117.205, 61.542 117.103 C 79.352 116.984, 82 117.296, 82 119.514 C 82 120.814, 72.902 129, 71.458 129 C 71.037 129, 69.045 130.687, 67.031 132.750 C 65.017 134.813, 62.274 137.467, 60.935 138.649 C 54.542 144.292, 48 152.007, 48 153.901 C 48 156.799, 51.505 160.115, 53.727 159.321 C 54.702 158.972, 58.624 156.170, 62.441 153.094 C 66.259 150.017, 70.389 146.815, 71.620 145.977 C 72.850 145.140, 75.669 142.777, 77.884 140.727 C 80.100 138.677, 82.304 137, 82.782 137 C 84.395 137, 87.852 132.530, 89.848 127.866 C 92.896 120.738, 95.170 120.007, 114.404 119.965 C 123.926 119.944, 133.767 119.340, 138.500 118.485 C 142.900 117.690, 148.987 117.030, 152.027 117.020 C 158.360 116.997, 162 115.025, 162 111.618 C 162 108.257, 158.006 105, 153.886 105 C 151.968 105, 149.860 104.460, 149.200 103.800 C 148.357 102.957, 147.993 97.227, 147.976 84.550 C 147.938 55.587, 147.599 55.008, 130.639 54.985 C 124.513 54.976, 118.941 54.614, 118.258 54.181 C 117.304 53.575, 117.484 52.475, 119.030 49.446 C 121.175 45.245, 120.956 41.389, 118.349 37.410 C 116.024 33.861, 108.101 32, 95.318 32 L 83.866 32 80.565 28.500 C 76.831 24.541, 76.461 24.457, 73 26.791 M 73.507 45.168 C 68.860 48.814, 65.061 53.332, 65.029 55.250 C 64.996 57.238, 65.875 57.340, 71.500 55.999 C 73.700 55.475, 81.993 55.008, 89.930 54.962 C 97.866 54.916, 105.179 54.440, 106.180 53.904 C 108.389 52.722, 108.515 50.180, 106.507 47.314 C 105.199 45.445, 103.748 45.116, 94.757 44.641 C 89.116 44.343, 82.695 43.814, 80.489 43.467 C 77.209 42.951, 75.937 43.260, 73.507 45.168 M 104 67.974 C 100.750 68.475, 100.512 68.756, 100.664 71.913 C 100.967 78.178, 102.560 79.754, 109.374 80.533 C 112.743 80.918, 116.699 81.847, 118.164 82.598 C 119.629 83.348, 123.334 84.257, 126.398 84.617 C 133.792 85.486, 135 84.426, 135 77.069 C 135 68.259, 134.587 68.001, 119.998 67.695 C 113.124 67.551, 105.925 67.677, 104 67.974 M 63.768 68.808 C 61.802 69.184, 59.998 74.024, 60.006 78.899 C 60.014 84.300, 61.863 90, 63.606 90 C 64.438 90, 64.840 89.550, 64.500 89 C 64.160 88.450, 64.363 88, 64.951 88 C 65.539 88, 68.160 86.537, 70.775 84.750 C 73.391 82.963, 77.122 80.690, 79.067 79.699 C 84.724 76.819, 89.245 72.505, 88.829 70.385 C 88.492 68.669, 87.426 68.500, 76.919 68.500 C 70.573 68.500, 64.655 68.639, 63.768 68.808 M 91.461 85.150 C 75.236 93.959, 72.079 94.974, 66.366 93.220 C 63.173 92.240, 62.869 92.353, 61.480 95.038 C 59.674 98.531, 59.548 102.951, 61.250 103.134 C 61.938 103.208, 64.300 103.179, 66.500 103.070 C 68.700 102.960, 72.714 103.369, 75.420 103.978 C 81.300 105.301, 85.696 104.534, 86.484 102.049 C 87.873 97.674, 90.547 95.999, 96.117 96.015 C 99.078 96.024, 101.050 96.361, 100.500 96.765 C 99.950 97.169, 99.456 98.400, 99.402 99.500 C 99.348 100.600, 99.123 102.625, 98.902 104 C 98.526 106.336, 98.827 106.533, 103.500 107 C 106.250 107.275, 110.975 107.172, 114 106.771 C 117.025 106.370, 123.202 105.745, 127.727 105.382 C 134.438 104.843, 136.060 104.387, 136.529 102.910 C 137.305 100.463, 135.223 93.034, 133.711 92.861 C 133.045 92.785, 128.675 92.670, 124 92.605 C 113.286 92.458, 107.911 90.844, 103.526 86.460 C 99.500 82.433, 96.973 82.159, 91.461 85.150 M 105.674 127.549 C 103.305 129.633, 102.958 130.532, 103.526 133.119 C 104.083 135.653, 105.202 136.661, 109.797 138.765 C 112.874 140.173, 116.888 142.342, 118.718 143.583 C 120.548 144.825, 125.072 146.815, 128.772 148.005 C 132.473 149.196, 137.750 151.874, 140.500 153.957 C 146.411 158.435, 147.913 159.032, 150.250 157.830 C 154.048 155.876, 150.926 147.168, 146.379 147.033 C 145.762 147.015, 144.212 145.474, 142.934 143.609 C 141.147 141.001, 137.115 138.458, 125.493 132.609 C 117.179 128.424, 109.954 125.014, 109.438 125.032 C 108.922 125.049, 107.228 126.182, 105.674 127.549" stroke="none" fill="black" fill-rule="evenodd"/>
</svg>