<svg xmlns="http://www.w3.org/2000/svg" width="256" height="256" viewBox="0 0 256 256" version="1.1">
	<path d="M 113 23.740 C 111.075 23.885, 107.024 24.454, 103.997 25.004 C 100.970 25.554, 90.882 26.872, 81.578 27.932 C 63.598 29.983, 59.854 31.315, 59.173 35.905 C 58.422 40.973, 63.488 42.423, 76.696 40.922 C 87.184 39.730, 89 40.186, 89 44.008 C 89 45.589, 88.543 47.165, 87.984 47.510 C 87.425 47.856, 87.218 48.544, 87.525 49.040 C 88.425 50.496, 84.568 50.879, 65 51.275 C 45.158 51.677, 40.771 52.626, 40.196 56.641 C 40.029 57.808, 40.953 59.997, 42.250 61.505 C 44.511 64.133, 45.092 64.268, 56.215 64.759 C 66.947 65.232, 72.313 66.407, 69.338 67.630 C 68.698 67.893, 66.988 69.209, 65.536 70.554 C 64.085 71.899, 62.081 73, 61.084 73 C 58.896 73, 44.554 84.114, 43.628 86.527 C 43.267 87.468, 43.652 89.601, 44.484 91.268 C 46.146 94.600, 45.381 96.427, 41.853 97.547 C 38.475 98.619, 39.764 103.916, 44 106.374 C 47.040 108.137, 49.301 108.410, 61.214 108.452 C 72.750 108.492, 75.199 108.770, 76.630 110.201 C 78.232 111.803, 78.139 112.008, 75.042 113.701 C 73.233 114.691, 69.744 117.502, 67.289 119.950 C 63.273 123.954, 62.995 124.523, 64.513 125.633 C 65.441 126.312, 65.880 127.386, 65.488 128.020 C 64.997 128.814, 65.820 129.114, 68.138 128.985 C 77.379 128.469, 80.043 128.942, 80.901 131.250 C 81.361 132.488, 81.537 134.026, 81.293 134.668 C 80.601 136.489, 72.170 138.102, 64.972 137.790 C 55.682 137.387, 52.857 140.857, 58.158 146.158 C 59.171 147.171, 60 148.620, 60 149.378 C 60 151.364, 62.326 153.002, 65.101 152.970 C 83.879 152.749, 85.893 152.115, 93.290 144.104 C 96.601 140.520, 97.626 140, 101.391 140 C 106.078 140, 111.625 141.554, 114 143.533 C 117.664 146.585, 134.532 146.384, 135.725 143.274 C 136.037 142.462, 135.728 141.450, 135.039 141.024 C 134.151 140.475, 134.108 140.051, 134.893 139.566 C 137.199 138.141, 135.820 136.236, 130.555 133.572 C 126.514 131.527, 124 130.905, 120.805 131.159 C 116.751 131.480, 116.482 131.339, 116.183 128.740 C 115.953 126.746, 116.693 125.153, 118.852 122.994 C 120.495 121.351, 122.157 118.543, 122.544 116.753 C 123.405 112.780, 126.446 108.306, 128.776 107.585 C 129.724 107.291, 134.775 106.579, 140 106.002 C 150.124 104.884, 152.065 103.792, 151.275 99.657 C 150.931 97.858, 149.284 96.684, 144.164 94.587 C 140.499 93.086, 136.316 91.361, 134.869 90.754 C 132.815 89.893, 131.060 90.020, 126.869 91.333 C 123.010 92.541, 118.265 92.979, 110 92.892 C 103.675 92.825, 98.050 92.875, 97.500 93.003 C 92.782 94.105, 92.588 90.973, 97.062 85.930 C 101.488 80.941, 102.618 76.220, 101.176 68.750 C 100.115 63.261, 98.958 63.709, 113.508 63.980 C 125.869 64.211, 146.762 62.175, 150.183 60.406 C 153.471 58.705, 153.775 56.179, 151.089 52.861 C 149.190 50.515, 149.033 50.499, 125.839 50.272 C 113.003 50.146, 102.162 50.033, 101.750 50.022 C 101.338 50.010, 101 47.975, 101 45.500 C 101 39.176, 103.024 37.474, 111.482 36.684 C 119.914 35.897, 125.385 33.275, 125.801 29.824 C 125.966 28.451, 125.516 26.852, 124.801 26.268 C 122.878 24.701, 116.991 23.439, 113 23.740 M 114.305 68.257 C 110.853 73.357, 110.647 74.647, 112.923 76.923 C 114.597 78.597, 116.253 79, 121.465 79 C 125.021 79, 129.858 79.651, 132.215 80.448 C 138.106 82.438, 149.954 84.228, 152.688 83.542 C 154.680 83.042, 154.903 82.451, 154.603 78.454 C 154.417 75.967, 154.093 73.819, 153.882 73.682 C 152.550 72.812, 145.535 70.965, 140 70.025 C 127.185 67.851, 123 66.842, 123 65.928 C 123 65.418, 121.537 65.003, 119.750 65.007 C 117.207 65.012, 116.023 65.719, 114.305 68.257 M 84.921 70.544 C 81.646 73.845, 76.181 77.879, 71.500 80.450 C 68.750 81.960, 65.150 84.214, 63.500 85.458 C 61.850 86.702, 57.688 89.139, 54.250 90.874 C 50.813 92.609, 48 94.677, 48 95.469 C 48 97.289, 54.128 98.528, 56.645 97.216 C 57.665 96.684, 61.650 95.473, 65.500 94.524 C 74.963 92.192, 79.820 90.125, 78.197 89.122 C 77.015 88.391, 79.132 87.236, 87.722 83.925 C 90.372 82.903, 91.464 79.287, 90.567 74.506 C 89.788 70.353, 87.030 68.418, 84.921 70.544 M 91.748 108.163 C 86.446 110.099, 87.241 116.522, 93.161 119.583 C 98.071 122.122, 104.214 120.771, 107.134 116.510 C 108.414 114.641, 110.297 112.894, 111.318 112.627 C 113.940 111.941, 113.046 108.742, 109.995 107.894 C 106.251 106.852, 94.878 107.020, 91.748 108.163" stroke="none" fill="black" fill-rule="evenodd"/>
</svg>