<svg xmlns="http://www.w3.org/2000/svg" width="256" height="256" viewBox="0 0 256 256" version="1.1">
	<path d="M 114.510 38.250 C 108.244 45.332, 104.574 53.476, 101.555 67 C 101.248 68.375, 98.972 71.666, 96.498 74.313 C 91.655 79.495, 90.483 84.496, 93.523 87.019 C 95.455 88.623, 108.115 88.744, 113.500 87.211 C 119.228 85.579, 142.182 83.624, 146.373 84.410 C 148.356 84.782, 150.762 86.154, 151.843 87.527 C 157.174 94.304, 165 91.121, 165 82.175 C 165 79.636, 162.761 75.286, 160.740 73.899 C 160.259 73.569, 158.433 70.438, 156.682 66.942 C 153.378 60.342, 147.305 54.617, 142.266 53.352 C 136.917 52.009, 135.811 58.360, 140.097 65.807 C 141.144 67.626, 142 69.503, 142 69.978 C 142 71.326, 137.394 71.926, 126 72.063 C 111.271 72.241, 111.661 72.293, 112.531 70.250 C 112.941 69.287, 114.739 64.675, 116.527 60 C 118.314 55.325, 121.026 48.467, 122.553 44.759 C 124.882 39.104, 125.145 37.613, 124.186 35.509 C 122.432 31.659, 119.642 32.450, 114.510 38.250 M 54.445 36.653 C 51.867 39.435, 49 47.512, 49 51.993 C 49 53.439, 48.028 55.666, 46.841 56.940 C 44.855 59.072, 44.134 59.207, 37.847 58.622 C 31.912 58.071, 30.759 58.241, 29.081 59.919 C 26.871 62.129, 27.247 65.008, 30.077 67.570 C 31.472 68.832, 33.022 69.126, 36.101 68.713 C 44.094 67.641, 44.384 68.637, 40.046 82.238 C 36.801 92.412, 34.128 103.291, 33.342 109.520 C 32.682 114.755, 34.570 116.484, 44.185 119.446 L 51.500 121.700 51.362 126.853 C 51.253 130.952, 50.360 133.488, 46.998 139.253 C 44.673 143.239, 41.308 147.850, 39.519 149.500 C 35.239 153.448, 34.306 157.306, 36.985 159.985 C 38.093 161.093, 39.804 162, 40.788 162 C 44.165 162, 54.629 150.646, 58.759 142.500 C 59.875 140.300, 61.715 137.661, 62.848 136.636 C 64.882 134.797, 64.964 134.832, 69.074 139.348 C 74.805 145.645, 78.261 146.656, 84.988 144.005 C 91.516 141.432, 93.666 142.047, 94.962 146.858 C 96.343 151.989, 100.484 155.574, 106.500 156.848 C 109.275 157.436, 120.274 157.817, 131.215 157.704 C 153.260 157.476, 153.417 157.428, 155.050 150.391 C 155.546 148.251, 155.963 137.449, 155.976 126.386 L 156 106.273 153.266 103.539 C 150.847 101.120, 150.010 100.872, 146.016 101.393 C 143.532 101.717, 132.500 102.227, 121.500 102.525 C 110.500 102.824, 100.735 103.301, 99.800 103.586 C 98.864 103.870, 97.167 105.612, 96.027 107.456 C 94.336 110.193, 94.051 111.883, 94.476 116.654 C 94.762 119.869, 94.713 125.544, 94.368 129.264 C 93.818 135.177, 93.457 136.098, 91.497 136.590 C 90.121 136.936, 87.179 136.121, 83.878 134.481 C 80.920 133.011, 76.999 131.064, 75.165 130.154 C 73.331 129.244, 71.095 127.272, 70.197 125.771 C 68.636 123.166, 68.686 122.792, 71.281 117.499 C 72.777 114.450, 74.004 110.953, 74.009 109.728 C 74.014 108.503, 75.162 102.550, 76.560 96.500 C 77.957 90.450, 79.551 82.830, 80.102 79.568 C 81.281 72.576, 83.140 69.091, 87.105 66.438 C 88.697 65.372, 90.739 62.947, 91.642 61.049 C 93.079 58.030, 93.108 57.283, 91.872 55.080 C 91.082 53.673, 88.973 52.137, 87.088 51.596 C 84.128 50.748, 83.487 50.915, 81.819 52.975 C 80.775 54.265, 79.536 56.007, 79.066 56.847 C 78.507 57.846, 75.937 58.610, 71.638 59.055 C 59.230 60.339, 56.857 58.513, 60.042 50.133 C 62.403 43.918, 62.539 39.214, 60.443 36.223 C 58.432 33.351, 57.440 33.422, 54.445 36.653 M 62 70.809 C 57.361 71.270, 55.445 73.176, 54.048 78.722 C 53.412 81.251, 51.798 85.916, 50.462 89.090 C 47.030 97.245, 46.179 105.435, 48.498 107.997 C 50.488 110.196, 55.796 111.517, 58.806 110.562 C 61.770 109.621, 64.395 101.465, 67.541 83.427 C 69.629 71.449, 69.041 70.109, 62 70.809 M 133.500 115.096 C 129.650 115.457, 122.393 115.807, 117.372 115.876 C 111.397 115.957, 107.904 116.432, 107.258 117.250 C 106.289 118.476, 107.884 143.250, 109 144.327 C 109.275 144.593, 116.794 145.033, 125.709 145.307 C 137.543 145.670, 142.184 145.483, 142.905 144.615 C 143.447 143.961, 143.910 137.268, 143.933 129.741 C 143.982 113.713, 144.250 114.090, 133.500 115.096" stroke="none" fill="black" fill-rule="evenodd"/>
</svg>