<svg xmlns="http://www.w3.org/2000/svg" width="256" height="256" viewBox="0 0 256 256" version="1.1">
	<path d="M 51.131 32.561 C 49.191 35.027, 46.753 44.055, 46.751 48.781 C 46.749 52.370, 43.371 54, 35.932 54 C 27.952 54, 25.256 55.913, 26.952 60.372 C 28.044 63.247, 30.385 64.529, 36.303 65.492 C 38.394 65.832, 40.336 66.713, 40.619 67.450 C 41.531 69.827, 37.316 94.389, 34.495 103.134 C 31.233 113.247, 32.519 115.432, 43.500 118.436 C 52.435 120.880, 54 121.888, 54 125.197 C 54 130.418, 46.543 143.371, 39.194 150.917 C 36.559 153.622, 35.996 154.871, 36.488 156.917 C 37.195 159.854, 39.568 162, 42.111 162 C 45.132 162, 54.340 152.524, 58.994 144.626 C 63.952 136.212, 66.327 135.080, 70.601 139.094 L 72.830 141.189 74.534 138.589 C 75.997 136.356, 76.057 135.552, 74.959 132.901 C 73.101 128.416, 73.233 119.060, 75.218 114.440 C 77.758 108.528, 79.829 95.675, 79.962 85 C 80.129 71.466, 81.053 68.359, 86.445 63.192 C 88.950 60.791, 91 58.364, 91 57.798 C 91 57.233, 89.361 55.269, 87.358 53.434 C 84.445 50.766, 83.551 49.052, 82.890 44.866 C 82.435 41.989, 81.381 38.952, 80.547 38.119 C 79.194 36.765, 78.701 36.971, 75.930 40.052 C 72.154 44.248, 69.831 48.497, 70.788 49.455 C 72.238 50.905, 67.454 53, 62.692 53 C 58.049 53, 57.806 52.871, 58.448 50.750 C 59.559 47.078, 60.308 35.364, 59.610 32.580 C 58.710 28.997, 53.943 28.985, 51.131 32.561 M 123.073 32.635 C 121.900 34.126, 121 36.744, 121 38.667 C 121 40.535, 120.327 43.676, 119.503 45.646 C 118.136 48.919, 117.726 49.184, 114.753 48.714 C 111.804 48.249, 105.972 49.518, 98.837 52.178 C 95.492 53.425, 94.207 57.636, 96.479 59.906 C 97.717 61.143, 100.250 61.504, 107.787 61.518 C 113.129 61.527, 118.125 61.930, 118.889 62.413 C 119.990 63.108, 120.145 65.177, 119.636 72.349 C 119.282 77.331, 118.657 81.715, 118.246 82.091 C 117.836 82.467, 111.200 83.269, 103.500 83.873 C 91.128 84.843, 89.294 85.221, 87.727 87.125 C 85.824 89.437, 86.171 92.407, 88.647 95 C 89.774 96.181, 92.806 96.500, 102.893 96.500 C 117.339 96.500, 116.678 95.840, 110.750 104.352 C 109.237 106.523, 107.999 109.020, 107.998 109.900 C 107.996 110.780, 106.616 113.075, 104.931 115 C 97.724 123.230, 95.092 126.787, 92.719 131.500 C 91.335 134.250, 88.806 138.249, 87.101 140.388 C 83.349 145.091, 83.195 147.426, 86.493 149.587 C 92.010 153.202, 97.866 148.671, 105.055 135.220 C 110.861 124.358, 113.487 121, 116.174 121 C 117.710 121, 118 121.834, 118.001 126.250 C 118.002 129.137, 117.487 135.189, 116.857 139.699 C 115.961 146.108, 115.986 148.879, 116.972 152.399 C 119.354 160.909, 124.119 162.318, 127.460 155.500 C 129.057 152.239, 129.480 148.919, 129.747 137.536 C 130.087 123.020, 130.393 122.046, 134.612 122.015 C 137.526 121.994, 149.995 131.875, 149.999 134.208 C 150.001 135.264, 158.425 140, 160.303 140 C 162.444 140, 164.314 136.389, 163.615 133.603 C 163.063 131.403, 159.893 127.326, 152.750 119.629 C 150.688 117.407, 149 115.006, 149 114.294 C 149 113.582, 148.550 113, 147.999 113 C 147.448 113, 145.251 111.200, 143.116 109 C 140.981 106.800, 138.844 104.997, 138.367 104.994 C 136.910 104.983, 134.036 99.069, 134.677 97.399 C 135.187 96.070, 137.069 95.882, 146.986 96.165 C 159.922 96.535, 162 95.827, 162 91.052 C 162 89.452, 160.966 87.377, 159.467 85.969 C 157.140 83.783, 155.920 83.555, 144.496 83.175 C 130.073 82.694, 130.347 82.921, 131.474 72.399 C 132.454 63.250, 133.599 62.293, 144.500 61.509 C 151.053 61.038, 153.840 60.421, 154.750 59.240 C 156.443 57.043, 156.323 53.906, 154.443 51.223 C 153.023 49.194, 152.066 49, 143.502 49 C 137.136 49, 133.873 48.603, 133.355 47.765 C 132.935 47.086, 132.502 43.762, 132.391 40.378 C 132.281 36.994, 131.682 33.275, 131.060 32.113 C 129.479 29.159, 125.608 29.412, 123.073 32.635 M 56.356 67.448 C 54.835 68.524, 53.892 70.789, 53.113 75.233 C 52.510 78.680, 51.112 84.649, 50.008 88.497 C 46.699 100.028, 47.570 104.266, 53.989 107.874 C 59.731 111.101, 61.601 110.695, 63.774 105.750 C 66.905 98.626, 68.135 90.163, 67.809 78 L 67.500 66.500 63 66.216 C 60.178 66.037, 57.701 66.497, 56.356 67.448" stroke="none" fill="black" fill-rule="evenodd"/>
</svg>