<svg xmlns="http://www.w3.org/2000/svg" width="256" height="256" viewBox="0 0 256 256" version="1.1">
	<path d="M 75.313 28.786 C 73.245 30.101, 71.978 34.979, 72.052 41.342 C 72.134 48.423, 69.790 61.343, 68.041 63.451 C 67.021 64.680, 66.406 64.608, 63.677 62.944 C 61.930 61.879, 59.719 61.006, 58.763 61.004 C 56.252 60.998, 54.260 55.402, 53.445 46.061 C 52.859 39.342, 52.330 37.602, 50.235 35.508 C 47.244 32.517, 43.470 32.253, 42.035 34.934 C 41.466 35.998, 40.985 40.386, 40.967 44.684 C 40.938 51.596, 39.106 59.884, 36.799 63.539 C 36.438 64.110, 37.864 66.441, 39.967 68.719 C 43.713 72.776, 51.025 76, 56.482 76 C 57.647 76, 59.148 76.548, 59.818 77.218 C 60.775 78.175, 61.776 78.037, 64.492 76.574 C 67.320 75.051, 68.226 74.943, 69.474 75.979 C 71.314 77.505, 71.484 84.130, 69.856 90.807 C 68.282 97.260, 67.370 98.273, 64.658 96.574 C 62.285 95.086, 58.737 95.290, 58.185 96.946 C 57.992 97.525, 57.392 98, 56.853 98 C 56.313 98, 53.412 99.125, 50.406 100.500 C 47.400 101.875, 44.664 103, 44.325 103 C 42.187 103, 34.867 108.942, 34.023 111.363 C 32.805 114.858, 33.399 116, 36.437 116 C 40.434 116, 41.231 118.082, 40.169 125.748 C 39.644 129.539, 38.266 134.722, 37.107 137.265 C 35.948 139.809, 35 142.490, 35 143.223 C 35 143.955, 34.297 145.559, 33.437 146.786 C 32.569 148.026, 32.014 150.457, 32.187 152.259 C 32.478 155.271, 32.787 155.521, 36.552 155.798 C 41.705 156.177, 42.702 155.053, 47.468 143.500 C 52.110 132.248, 54 125.655, 54 120.716 C 54 118.600, 54.466 115.997, 55.036 114.933 C 56.314 112.545, 65.938 107.533, 67.060 108.672 C 67.509 109.127, 68.096 118.950, 68.364 130.500 C 68.632 142.050, 69.306 152.692, 69.863 154.149 C 70.990 157.104, 74.573 160, 77.100 160 C 80.923 160, 81.258 157.816, 81.076 134.037 C 80.978 121.160, 81.344 109.417, 81.909 107.291 C 82.464 105.206, 83.129 96.467, 83.388 87.871 C 83.870 71.831, 85.387 62.390, 87.048 65.078 C 87.690 66.116, 90.240 66.523, 96.499 66.586 C 101.550 66.636, 105.547 67.147, 106.230 67.830 C 107.108 68.708, 106.865 71.108, 105.225 77.744 C 104.035 82.560, 102.353 90.325, 101.488 95 C 100.623 99.675, 99.522 105.226, 99.042 107.335 C 98.317 110.522, 98.493 111.493, 100.085 113.085 C 101.138 114.138, 102.338 115.033, 102.750 115.074 C 109.037 115.697, 113.517 119.135, 114.382 124 C 114.959 127.246, 114.620 127.863, 109.711 132.500 C 106.799 135.250, 102.336 139.179, 99.792 141.230 C 97.248 143.282, 94.483 146.330, 93.649 148.003 C 92.227 150.852, 92.265 151.169, 94.254 153.022 C 96.716 155.315, 97.153 155.361, 102.500 153.883 C 107.483 152.506, 114.341 146.301, 119.239 138.739 C 124.326 130.886, 126.572 129.973, 132.403 133.391 C 134.894 134.850, 140.423 139.656, 144.690 144.069 C 151.416 151.027, 152.847 152.054, 155.455 151.797 C 161.219 151.228, 161.472 143.885, 155.944 137.589 C 152.666 133.856, 145.106 129, 142.572 129 C 141.707 129, 141 128.281, 141 127.401 C 141 126.522, 140.273 124.270, 139.384 122.397 C 137.583 118.600, 137.485 119.114, 142.495 106 C 145.794 97.364, 148.946 87.277, 152.687 73.384 C 153.444 70.570, 155.880 65.257, 158.099 61.577 C 161.317 56.242, 162.003 54.291, 161.488 51.944 C 161.132 50.325, 160.427 49, 159.921 49 C 159.414 49, 159 48.178, 159 47.174 C 159 45.004, 155.424 41.510, 152.201 40.532 C 148.846 39.514, 145.226 42.277, 144.442 46.457 C 144.084 48.366, 143.275 50.345, 142.645 50.854 C 142.015 51.362, 137.350 52.100, 132.278 52.493 L 123.056 53.208 123.636 46.854 C 124.395 38.535, 123.125 33.608, 120.108 33.170 C 115.700 32.529, 112.929 37.164, 111.681 47.268 C 110.892 53.650, 109.979 54.109, 99.554 53.376 C 93.519 52.952, 89.658 53.113, 88.291 53.844 C 84.794 55.716, 83.763 53.122, 83.624 42.100 C 83.521 33.889, 83.176 31.851, 81.595 30.104 C 79.632 27.936, 77.389 27.465, 75.313 28.786 M 123.252 65.706 C 121.778 65.989, 120.820 67.062, 120.472 68.819 C 120.179 70.294, 119.081 74.425, 118.031 78 C 115.018 88.259, 114.038 95.236, 115.007 99.531 C 116.002 103.941, 122.035 110.332, 124.716 109.816 C 127.317 109.315, 133.773 97.177, 135.561 89.424 C 136.439 85.616, 137.840 80.475, 138.673 78 C 141.307 70.178, 141.463 67.812, 139.446 66.337 C 137.701 65.061, 128.466 64.701, 123.252 65.706" stroke="none" fill="black" fill-rule="evenodd"/>
</svg>