<svg xmlns="http://www.w3.org/2000/svg" width="256" height="256" viewBox="0 0 256 256" version="1.1">
	<path d="M 54.250 31.438 C 51.639 32.615, 51 33.489, 51 35.880 C 51 42.793, 56.225 44.144, 84.500 44.542 C 96.600 44.713, 106.838 44.885, 107.250 44.926 C 110.654 45.262, 101.816 53.755, 93.705 57.943 C 90.176 59.765, 88.072 64.170, 87.852 70.200 C 87.757 72.785, 87.351 75.432, 86.950 76.081 C 86.185 77.319, 73.869 79.857, 68.191 79.947 C 66.250 79.978, 65.138 80.414, 65.500 81 C 66.266 82.239, 62.230 82.441, 46.771 81.939 C 38.865 81.682, 36.755 82.882, 37.199 87.383 C 37.415 89.571, 38.492 91.109, 41 92.808 C 44.453 95.148, 44.744 95.172, 62.500 94.594 C 72.400 94.271, 82.825 93.739, 85.666 93.413 C 90.257 92.884, 90.961 93.058, 91.985 94.972 C 93.637 98.060, 92.968 130.130, 91.206 132.252 C 89.915 133.807, 87.679 134.012, 86.362 132.696 C 85.449 131.782, 80.801 131.829, 79.404 132.765 C 78.801 133.169, 78.003 134.747, 77.630 136.271 C 76.944 139.074, 77.089 139.283, 84.027 145.510 C 86.437 147.673, 94.889 151, 97.972 151 C 99.516 151, 101.841 150.140, 103.139 149.089 C 105.478 147.195, 105.502 146.976, 105.692 125.339 C 105.797 113.327, 105.507 101.810, 105.047 99.744 C 104.586 97.678, 104.571 95.765, 105.013 95.492 C 105.454 95.219, 114.933 95.483, 126.077 96.078 C 147.256 97.208, 151.927 96.930, 154.468 94.389 C 156.574 92.283, 156.391 87.391, 154.120 85.120 C 152.446 83.446, 151.001 83.287, 140.870 83.662 C 129.440 84.086, 113.568 82.515, 111.261 80.731 C 110.579 80.204, 108.376 80.082, 106.365 80.459 C 102.177 81.245, 101.037 80.188, 101.019 75.500 C 101.006 72.155, 104.205 66.242, 106.504 65.360 C 108.630 64.544, 117.750 52.842, 119.473 48.720 C 121.024 45.006, 123.049 44.036, 129.295 44.014 C 134.139 43.996, 138 40.439, 138 35.994 C 138 33.364, 137.436 32.661, 134.250 31.319 C 131.054 29.974, 128.210 29.867, 115 30.596 C 95.547 31.670, 86.862 31.697, 70.500 30.737 C 59.991 30.119, 56.877 30.254, 54.250 31.438" stroke="none" fill="black" fill-rule="evenodd"/>
</svg>