<svg xmlns="http://www.w3.org/2000/svg" width="256" height="256" viewBox="0 0 256 256" version="1.1">
	<path d="M 52.091 30.648 C 49.023 32.798, 47.867 36.257, 47.296 45 C 46.644 54.974, 45.649 56.029, 37.106 55.795 C 29.198 55.579, 25.940 56.973, 26.723 60.237 C 27.571 63.772, 31.012 65.953, 35.781 65.978 C 41.048 66.005, 41.628 67.172, 40.170 74.807 C 37.932 86.523, 34.825 100.675, 33.354 105.851 C 31.065 113.909, 31.841 115.423, 40.324 119.449 C 49.199 123.660, 51.008 126.211, 48.326 130.737 C 47.322 132.432, 45.067 136.276, 43.316 139.277 C 41.565 142.279, 39.453 144.996, 38.622 145.315 C 37.792 145.633, 36.585 147.652, 35.942 149.800 C 33.378 158.356, 40.010 161.172, 46.134 154.128 C 51.165 148.340, 57 139.921, 57 138.450 C 57 137.737, 58.165 135.769, 59.589 134.077 C 63.285 129.684, 66.103 130.046, 70.662 135.500 C 75.540 141.336, 79 141.723, 79 136.434 C 79 131.875, 77.453 129, 75.001 129 C 72.598 129, 68.001 122.447, 67.997 119.018 C 67.993 115.019, 70.915 103.066, 73.567 96.230 C 75.013 92.505, 76 87.880, 76 84.833 C 76 82.013, 76.932 77.150, 78.071 74.027 C 80.426 67.566, 83.643 65.038, 91 63.867 C 93.475 63.472, 97.351 62.840, 99.614 62.462 C 103.146 61.871, 103.944 62.081, 105.253 63.951 C 108.060 67.958, 105.099 72.519, 95.750 78.590 C 93.688 79.929, 92 81.408, 92 81.875 C 92 82.343, 90.641 84.435, 88.979 86.526 L 85.959 90.327 88.154 92.664 C 89.698 94.307, 91.461 95, 94.103 95 C 96.208 95, 98.559 95.702, 99.454 96.597 C 102.444 99.587, 110.892 100.976, 126.166 100.988 L 140.831 101 144.584 97.040 C 146.730 94.776, 150.372 92.348, 153.090 91.371 C 159.359 89.116, 161.154 86.022, 158.362 82.283 C 157.263 80.812, 155.045 79.255, 153.432 78.825 C 147.828 77.329, 144.089 74.680, 143.445 71.750 C 142.653 68.143, 144.162 66.331, 149.219 64.816 C 155.533 62.925, 157.686 57.508, 153.100 55.054 C 152.185 54.564, 146.500 53.843, 140.468 53.452 C 128.051 52.648, 126 51.944, 126 48.488 C 126 45.504, 128.600 43.744, 136.189 41.593 C 145.015 39.090, 147.673 34.797, 142.495 31.405 C 140.391 30.026, 138.425 29.878, 130.245 30.478 C 124.885 30.871, 118.041 32.050, 115.035 33.096 C 112.029 34.143, 108.296 35, 106.739 35 C 103.996 35, 99 38.798, 99 40.883 C 99 43.456, 102.159 44.940, 106.396 44.359 C 111.677 43.635, 115 45.201, 115 48.413 C 115 51.510, 112.960 53.061, 108.017 53.725 C 105.175 54.106, 103.436 53.813, 102.228 52.749 C 100.750 51.448, 99.849 51.412, 96 52.498 C 93.525 53.196, 90.104 54.343, 88.397 55.047 C 86.691 55.751, 84.556 56.044, 83.653 55.697 C 81.453 54.853, 78.008 49.062, 78.004 46.200 C 78.001 44.349, 75.780 38.692, 74.458 37.169 C 74.301 36.987, 73.287 37.311, 72.206 37.890 C 70.183 38.972, 66.999 45.677, 66.521 49.864 C 66.372 51.164, 65.631 52.619, 64.875 53.098 C 63.042 54.260, 58.265 54.238, 57.540 53.065 C 57.222 52.550, 57.462 48.905, 58.073 44.965 C 59.916 33.087, 57.357 26.961, 52.091 30.648 M 120.250 66.220 C 119.013 66.817, 118 68.148, 118 69.178 C 118 71.232, 120.333 72.386, 126.618 73.440 C 130.107 74.026, 131.163 73.764, 133.530 71.728 L 136.324 69.324 134.162 67.162 C 131.751 64.751, 124.338 64.249, 120.250 66.220 M 58.500 67.569 C 54.132 69.835, 54.078 69.927, 51.476 79.620 C 50.165 84.504, 48.402 90.975, 47.558 94 C 45.436 101.608, 45.590 106.209, 48.073 109.365 C 51.112 113.229, 54.375 112.836, 56.504 108.350 C 60.186 100.592, 66.860 70.683, 65.627 67.470 C 64.899 65.574, 62.274 65.611, 58.500 67.569 M 116.199 85.986 C 108.203 87.880, 111.312 89.874, 122.804 90.221 C 130.085 90.440, 132.262 90.186, 132.976 89.034 C 134.646 86.342, 132.126 84.994, 125.628 85.102 C 122.257 85.159, 118.015 85.556, 116.199 85.986 M 94.376 105.041 C 92.657 105.564, 90.812 106.556, 90.275 107.246 C 88.860 109.064, 86.581 133.981, 87.376 138.949 C 88.114 143.565, 92.001 151.926, 94.293 153.828 C 95.443 154.783, 96.197 154.661, 97.957 153.236 C 100.315 151.326, 100.481 149.356, 100.141 127.312 C 100.072 122.809, 100.286 118.417, 100.618 117.553 C 101.588 115.025, 105.119 114.731, 118.702 116.048 C 125.741 116.731, 133.975 117.241, 137 117.182 C 146.454 116.999, 146.012 116.251, 145.346 131.306 C 144.880 141.840, 144.434 144.756, 143.131 145.769 C 138.036 149.733, 137.903 149.947, 139.094 152.264 C 141.610 157.155, 145.251 160, 148.996 160 C 156.173 160, 156.721 158.430, 158.057 134 C 158.553 124.925, 159.243 116.277, 159.590 114.783 C 160.088 112.638, 159.619 111.466, 157.360 109.208 C 154.873 106.723, 153.326 106.212, 145.500 105.287 C 134.150 103.947, 98.532 103.775, 94.376 105.041 M 110.149 120.347 C 108.348 121.150, 108 122.149, 108 126.518 C 108 130.277, 107.422 132.465, 105.927 134.366 C 101.414 140.103, 105.809 143.787, 118 144.489 C 122.675 144.757, 128.363 145.172, 130.640 145.410 C 133.375 145.696, 135.536 145.313, 137.011 144.280 C 139.002 142.885, 139.175 142.146, 138.619 137.411 C 138.244 134.227, 138.447 131.114, 139.124 129.626 C 140.743 126.075, 139.511 122.441, 136.263 121.183 C 132.593 119.762, 112.875 119.130, 110.149 120.347 M 116.750 129.689 C 114.379 130.309, 114.550 131.804, 117.250 134.056 C 120.207 136.523, 125.210 136.531, 127.435 134.072 C 129.113 132.218, 129.063 132.084, 126.139 130.572 C 123.171 129.037, 120.284 128.766, 116.750 129.689" stroke="none" fill="black" fill-rule="evenodd"/>
</svg>