<svg xmlns="http://www.w3.org/2000/svg" width="256" height="256" viewBox="0 0 256 256" version="1.1">
	<path d="M 92.999 25.502 C 92.194 26.472, 91.915 28.964, 92.212 32.544 C 92.493 35.933, 92.250 38.352, 91.586 38.774 C 90.989 39.152, 84.650 39.528, 77.500 39.609 C 70.350 39.690, 59.642 39.811, 53.705 39.878 C 39.206 40.042, 38.588 40.614, 37.612 54.780 C 36.800 66.578, 37.547 69, 42 69 C 45.600 69, 47.214 66.438, 47.962 59.537 C 48.473 54.827, 48.678 54.536, 52 53.806 C 54.865 53.176, 66.839 53.011, 95 53.211 C 96.375 53.221, 107.044 52.882, 118.708 52.457 C 142.190 51.602, 142.355 51.637, 143.332 57.659 C 144.040 62.021, 147.506 66, 150.597 66 C 153.472 66, 154.654 62.411, 155.538 50.994 C 156.537 38.075, 157.648 38.551, 128.188 39.270 C 115.092 39.590, 103.856 39.529, 103.218 39.135 C 102.534 38.712, 102.150 36.332, 102.280 33.315 C 102.445 29.480, 102.026 27.687, 100.595 26.105 C 98.370 23.646, 94.776 23.361, 92.999 25.502 M 101.682 59.651 C 101.324 60.010, 92.330 60.355, 81.697 60.418 C 65.411 60.514, 61.959 60.797, 59.800 62.211 L 57.238 63.890 59.172 70.695 C 60.804 76.437, 61.112 80.836, 61.144 98.864 C 61.165 110.614, 60.643 126.364, 59.984 133.864 C 58.469 151.090, 59.278 156.888, 63.477 158.900 C 65.834 160.030, 67.255 160.079, 70.719 159.153 C 73.089 158.519, 76.963 158, 79.327 158 C 83.555 158, 114.591 155.242, 118.500 154.519 C 119.600 154.315, 123.280 154.115, 126.679 154.074 C 130.703 154.026, 133.371 153.486, 134.331 152.527 C 136.033 150.824, 137.682 133.429, 137.142 122.868 C 136.955 119.221, 137.256 115.390, 137.810 114.354 C 140.435 109.449, 131.368 106.373, 119.400 108.109 C 108.733 109.656, 86.621 110.867, 80 110.266 C 74.104 109.732, 74.032 109.687, 73.376 106.189 C 72.823 103.241, 73.096 102.340, 75.019 100.783 C 77.144 99.063, 79.272 98.926, 101.856 99.055 C 123.477 99.178, 126.526 99.001, 127.576 97.565 C 128.232 96.668, 129.298 92.687, 129.945 88.717 C 130.592 84.748, 131.281 80.600, 131.476 79.500 C 131.972 76.703, 134.668 66.865, 135.528 64.713 C 135.980 63.582, 135.590 62.204, 134.466 60.963 C 132.850 59.177, 131.324 59, 117.512 59 C 109.164 59, 102.040 59.293, 101.682 59.651 M 105 73.036 C 101.425 73.437, 93.213 73.819, 86.750 73.883 C 76.313 73.987, 74.770 74.230, 72.942 76.058 C 70.915 78.085, 70.912 78.165, 72.750 81.308 L 74.615 84.500 97.549 84.500 L 120.482 84.500 121.379 79.587 C 122.770 71.966, 120.960 71.242, 105 73.036 M 91.658 124.379 C 72.382 126.841, 71.751 127.188, 72.555 134.891 C 73.319 142.204, 73.855 143.729, 75.846 144.250 C 81.973 145.852, 113.474 141.958, 122.115 138.530 C 123.974 137.793, 126 133.823, 126 130.918 C 126 129.824, 126.706 127.853, 127.568 126.536 C 129.029 124.307, 128.999 124.070, 127.134 123.072 C 124.136 121.467, 110.534 121.969, 91.658 124.379" stroke="none" fill="black" fill-rule="evenodd"/>
</svg>