<svg xmlns="http://www.w3.org/2000/svg" width="256" height="256" viewBox="0 0 256 256" version="1.1">
	<path d="M 93.306 23.790 C 91.109 25.187, 90.127 32.394, 91.719 35.434 C 92.510 36.942, 92.887 38.447, 92.556 38.777 C 91.697 39.636, 72.526 40.863, 58.797 40.937 C 52.125 40.973, 45.989 41.504, 44.523 42.171 C 41.105 43.729, 40.335 47.369, 42.301 52.674 C 43.385 55.599, 43.717 58.598, 43.323 61.918 C 42.490 68.954, 43.455 72, 46.519 72 C 49.325 72, 52.924 68.879, 53.151 66.250 C 53.234 65.287, 53.346 62.493, 53.401 60.039 L 53.500 55.579 58 54.659 C 64.712 53.288, 137.282 53.545, 139.906 54.950 C 141.611 55.862, 141.872 56.602, 141.259 58.790 C 140.112 62.884, 140.617 68.767, 142.341 71.397 C 144.509 74.707, 148.647 75.296, 151.115 72.646 C 153.481 70.106, 153.673 69.303, 155.042 56.165 C 155.976 47.203, 155.909 45.510, 154.536 43.415 C 153.666 42.087, 151.952 40.971, 150.727 40.935 C 149.502 40.900, 138.825 40.785, 127 40.680 C 115.175 40.574, 104.714 40.106, 103.754 39.639 C 102.287 38.925, 102.108 37.930, 102.638 33.424 C 103.418 26.785, 101.446 22.992, 97.227 23.015 C 95.727 23.024, 93.963 23.372, 93.306 23.790 M 83.174 61.314 C 81.817 62.760, 80.998 64.919, 80.994 67.064 C 80.986 72.470, 79.229 77.440, 76.485 79.826 C 74.120 81.882, 73.060 82.010, 59.506 81.879 C 42.980 81.718, 40 82.653, 40 88 C 40 92.452, 42.928 93.693, 54.862 94.298 C 60.561 94.587, 65.678 95.278, 66.234 95.834 C 67.785 97.385, 68.177 103.243, 66.893 105.673 C 66.257 106.876, 66.046 109.049, 66.421 110.543 C 67.050 113.048, 67.377 113.195, 71.010 112.614 C 74.523 112.053, 75.258 112.332, 78.211 115.353 C 83.083 120.337, 83.874 122.058, 82.762 125.250 C 81.830 127.927, 81.587 128.004, 73.652 128.163 C 66.037 128.315, 65.862 128.365, 71 128.913 L 76.500 129.500 71.500 131.931 C 68.750 133.268, 66.275 134.622, 66 134.940 C 65.725 135.258, 63.869 136.609, 61.876 137.942 C 56.892 141.276, 55.640 143.459, 57.124 146.232 C 60.232 152.038, 65.058 153.325, 71.261 150 C 73.314 148.900, 75.657 148, 76.468 148 C 79.779 148, 88.873 143.009, 94.443 138.135 C 101.774 131.720, 103.565 131.220, 108.581 134.184 C 113.600 137.150, 124.565 141, 127.994 141 C 129.451 141, 132.411 142.337, 134.572 143.972 C 138.961 147.293, 144.395 148.019, 145.393 145.418 C 145.727 144.548, 146 142.246, 146 140.303 C 146 137.503, 145.222 136.051, 142.250 133.304 C 140.188 131.398, 138.591 129.489, 138.702 129.063 C 138.813 128.637, 137.035 127.728, 134.751 127.044 C 132.468 126.359, 129.010 124.720, 127.067 123.400 C 125.125 122.080, 122.230 121, 120.635 121 C 118.939 121, 116.983 120.133, 115.925 118.913 C 113.954 116.641, 113.995 116.436, 118.272 107 C 119.643 103.975, 121.060 100.531, 121.419 99.346 C 122.552 95.618, 128.315 93.674, 135.996 94.431 C 142.822 95.104, 146.544 94.247, 150.250 91.152 C 155.006 87.180, 148.415 82, 138.605 82 C 129.010 82, 126.399 79.802, 126.872 72.123 C 127.165 67.354, 124.716 65, 119.459 65 C 115.630 65, 115.075 65.323, 113.614 68.401 C 112.726 70.272, 112 72.422, 112 73.179 C 112 73.936, 111.299 75.555, 110.443 76.777 C 109.112 78.678, 107.965 79, 102.525 79 C 92.917 79, 92.939 79.021, 93.653 70.581 C 94.413 61.580, 93.296 59, 88.639 59 C 86.493 59, 84.593 59.805, 83.174 61.314 M 86.655 94.829 C 82.984 98.885, 86.495 104.870, 93.837 107.069 C 97.364 108.126, 98.266 108.056, 100.575 106.543 C 102.041 105.582, 103.930 103.042, 104.772 100.898 C 105.614 98.754, 106.910 97, 107.652 97 C 108.393 97, 109 96.381, 109 95.625 C 109 93.858, 104.595 93, 95.530 93 C 89.805 93, 87.967 93.379, 86.655 94.829 M 77.813 129.683 C 78.534 129.972, 79.397 129.936, 79.729 129.604 C 80.061 129.272, 79.471 129.036, 78.417 129.079 C 77.252 129.127, 77.015 129.364, 77.813 129.683" stroke="none" fill="black" fill-rule="evenodd"/>
</svg>