<svg xmlns="http://www.w3.org/2000/svg" width="256" height="256" viewBox="0 0 256 256" version="1.1">
	<path d="M 90.573 25.570 C 88.258 27.885, 87.541 31.945, 88.839 35.385 C 89.634 37.492, 89.665 38.734, 88.939 39.458 C 88.275 40.120, 79.496 40.500, 64.858 40.500 L 41.821 40.500 39.376 43.500 C 37.374 45.957, 37.059 47.134, 37.638 50 C 38.514 54.336, 38.502 55.819, 37.523 64.166 C 36.647 71.630, 37.350 76, 39.425 76 C 42.130 76, 49.072 71.563, 49.589 69.503 C 50.387 66.320, 50.366 60.756, 49.545 58.336 C 47.998 53.773, 50.086 53.581, 98.476 53.825 C 123.212 53.949, 143.836 54.436, 144.306 54.906 C 144.778 55.378, 144.680 57.490, 144.086 59.630 C 143.495 61.759, 143.009 65.132, 143.006 67.128 C 142.997 72.995, 141.599 73.494, 128.700 72.234 C 119.475 71.333, 116.089 71.406, 109.500 72.649 C 105.100 73.479, 100.665 74.910, 99.644 75.829 C 98.217 77.114, 95.558 77.543, 88.144 77.684 C 82.840 77.785, 77.375 78.010, 76 78.184 C 73.196 78.538, 73.121 78.028, 74.481 67.941 C 75.196 62.640, 75.106 62.299, 72.547 60.623 C 69.879 58.874, 69.846 58.884, 66.554 62.374 C 64.633 64.411, 62.947 67.467, 62.537 69.657 C 61.519 75.079, 59.684 78.168, 54.599 83.014 C 51.787 85.694, 49.289 89.376, 47.897 92.893 C 45.222 99.656, 43.619 101.642, 38.888 104.057 C 34.859 106.113, 31.508 111.875, 32.509 115.027 C 33.749 118.935, 36.196 119.092, 45.099 115.834 C 56.893 111.517, 57.718 111.416, 61.036 113.869 C 62.622 115.041, 64.387 116, 64.960 116 C 65.532 116, 66 118.025, 66 120.499 C 66 124.828, 65.589 125.446, 55.104 136.886 C 43.999 149.003, 41.484 153.468, 44.034 156.541 C 44.700 157.343, 46.274 158, 47.533 158 C 50.590 158, 58.826 151.367, 63.246 145.346 C 65.210 142.671, 68.637 139.019, 70.862 137.231 C 73.470 135.135, 76.033 131.621, 78.076 127.340 C 79.820 123.688, 83.152 118.179, 85.483 115.100 C 89.968 109.173, 91.182 106.139, 92.909 96.546 C 93.498 93.271, 94.611 89.960, 95.383 89.189 C 96.587 87.985, 97.086 88.086, 98.902 89.902 C 100.785 91.785, 100.997 93.037, 100.826 101.259 C 100.602 112.063, 102.290 127.601, 104.758 137.455 C 106 142.415, 107.374 145.283, 109.549 147.455 C 114.656 152.556, 128.553 156, 144.029 156 C 155.658 156, 156.514 155.116, 156.187 143.438 C 155.853 131.501, 153.743 127.110, 148.300 127.032 C 145.150 126.986, 144.147 129.534, 144.740 136.073 C 145.447 143.861, 143.894 144.745, 133.342 142.563 C 129.186 141.703, 124.742 141, 123.466 141 C 120.603 141, 117.215 136.889, 116.583 132.649 C 115.327 124.226, 114.026 110.315, 113.466 99.327 C 112.875 87.737, 112.944 87.101, 114.902 86.052 C 117.117 84.867, 120.852 85.450, 125.259 87.671 C 127.362 88.730, 128.514 88.796, 130.102 87.945 C 131.248 87.332, 133.269 87.102, 134.593 87.434 C 136.567 87.929, 137 88.673, 137 91.569 C 137 98.295, 134.141 101.622, 128.750 101.170 C 127.621 101.076, 127 101.729, 127 103.012 C 127 104.105, 126.377 105, 125.617 105 C 124.856 105, 124.023 105.804, 123.766 106.787 C 122.963 109.857, 124.796 112.935, 128.468 114.686 C 130.411 115.613, 132 116.720, 132 117.147 C 132 118.250, 139.497 120.130, 141.235 119.463 C 144.313 118.282, 147 111.482, 147.004 104.864 C 147.006 101.364, 147.673 94.450, 148.486 89.500 C 149.300 84.550, 149.973 79.259, 149.983 77.741 C 149.992 76.224, 151.303 73.184, 152.895 70.986 C 156.116 66.540, 159.816 50.386, 158.664 45.797 C 157.569 41.434, 154.551 41.001, 126.681 41.206 C 105.147 41.364, 100.715 41.156, 99.973 39.956 C 99.442 39.097, 99.470 38.130, 100.042 37.558 C 101.825 35.775, 101.136 28.523, 98.961 26.189 C 96.572 23.625, 92.797 23.346, 90.573 25.570 M 71.500 93.096 C 69.300 93.589, 66.500 94.224, 65.279 94.508 C 64.057 94.791, 62.569 95.938, 61.971 97.055 C 60.659 99.505, 62.871 101.743, 70.263 105.446 C 74.476 107.556, 75.197 107.660, 76.511 106.346 C 77.328 105.529, 78.250 103.654, 78.559 102.180 C 78.868 100.706, 79.295 98.640, 79.509 97.588 C 79.992 95.210, 78.340 91.966, 76.715 92.100 C 76.047 92.156, 73.700 92.604, 71.500 93.096" stroke="none" fill="black" fill-rule="evenodd"/>
</svg>