<svg xmlns="http://www.w3.org/2000/svg" width="256" height="256" viewBox="0 0 256 256" version="1.1">
	<path d="M 93.828 22.036 C 92.909 22.573, 91.871 24.313, 91.521 25.902 C 90.223 31.816, 89.165 32.105, 65.319 33.044 C 42.373 33.948, 36.672 34.876, 35.012 37.978 C 32.950 41.830, 34.766 55.844, 37.768 59.250 C 41.446 63.423, 47.340 58.588, 46.850 51.799 C 46.700 49.722, 47.010 47.596, 47.538 47.075 C 48.067 46.553, 57.725 45.613, 69 44.986 C 88.007 43.928, 101.605 44.114, 133 45.860 L 144.500 46.500 144.159 51.736 C 143.852 56.449, 144.119 57.273, 146.832 59.986 C 150.279 63.433, 152.056 63.738, 154.193 61.250 C 156.582 58.469, 157.158 56.063, 157.631 46.907 C 158.015 39.473, 157.812 37.989, 156.127 35.907 C 154.188 33.510, 154.076 33.498, 129.741 33 C 104.063 32.475, 102 32.090, 102 27.832 C 102 25.934, 97.838 20.971, 96.295 21.030 C 95.858 21.047, 94.748 21.500, 93.828 22.036 M 86.500 49.114 C 84.300 49.523, 78.424 49.781, 73.443 49.688 C 66.268 49.553, 63.826 49.884, 61.693 51.282 C 58.670 53.263, 58.185 56.540, 60.468 59.559 C 61.321 60.687, 61.963 63.804, 62 67 C 62.098 75.475, 65.005 78.035, 73.295 76.946 C 76.158 76.570, 85.171 76.455, 93.325 76.691 C 103.146 76.975, 108.593 76.753, 109.461 76.033 C 110.238 75.387, 114.301 75.043, 119.444 75.187 C 129.626 75.472, 130.093 75.105, 129.862 67 C 129.776 63.975, 130.188 60.046, 130.778 58.268 C 131.665 55.592, 131.545 54.660, 130.078 52.849 C 128.534 50.941, 126.847 50.552, 116.903 49.807 C 99.372 48.494, 90.875 48.300, 86.500 49.114 M 75.095 59.872 C 72.373 60.634, 70.164 63.498, 71.371 64.702 C 72.662 65.991, 82.673 65.516, 84.398 64.085 C 85.817 62.907, 85.732 62.577, 83.582 60.886 C 81.106 58.938, 79.232 58.715, 75.095 59.872 M 92.250 61.031 C 89.489 62.141, 89.372 63.594, 91.934 64.965 C 96.817 67.578, 103.822 64.901, 101 61.500 C 99.625 59.844, 95.724 59.635, 92.250 61.031 M 111.278 61.122 C 109.034 63.366, 111.069 65, 116.107 65 C 120.241 65, 121 64.706, 121 63.107 C 121 62.066, 120.288 60.941, 119.418 60.607 C 116.873 59.630, 112.493 59.907, 111.278 61.122 M 127.701 78.633 C 127.322 79.011, 112.722 79.468, 95.256 79.647 C 55.347 80.058, 45.604 81.226, 40.250 86.241 C 37.337 88.970, 37.409 90.567, 40.539 92.617 C 42.633 93.989, 44.518 94.162, 51.289 93.604 C 55.805 93.231, 61.088 92.503, 63.029 91.984 C 64.969 91.466, 81.619 90.878, 100.029 90.677 C 127.130 90.381, 135.023 89.980, 141.500 88.567 C 145.900 87.607, 149.595 86.730, 149.710 86.617 C 149.826 86.505, 149.666 85.439, 149.355 84.249 C 148.988 82.845, 147.333 81.566, 144.644 80.607 C 139.888 78.911, 128.723 77.610, 127.701 78.633 M 119 96.106 C 114.875 96.470, 101.871 96.632, 90.103 96.467 C 67.599 96.152, 59.355 96.830, 57.906 99.118 C 57.425 99.878, 57.024 103.278, 57.015 106.673 C 57.002 111.869, 57.410 113.334, 59.589 115.923 C 61.763 118.507, 62.925 119.016, 66.839 119.100 C 71.151 119.192, 78.078 120.675, 75.250 120.900 C 74.563 120.955, 74 121.622, 74 122.381 C 74 124.115, 67.410 125.822, 57.469 126.662 C 51.611 127.157, 48.918 127.934, 45.459 130.128 C 39.902 133.652, 39.653 136.133, 44.619 138.489 C 48.243 140.209, 56.043 140.187, 66.250 138.428 C 68.313 138.072, 70.031 138.168, 70.069 138.641 C 70.600 145.268, 73.026 151.412, 75.483 152.355 C 79.578 153.926, 87.070 154.013, 93.816 152.567 C 102.768 150.649, 104.409 149.809, 106.663 145.993 C 108.033 143.673, 109.142 143, 111.591 143 C 115.584 143, 124.877 147.074, 127.480 149.966 C 129.889 152.642, 134.845 154.811, 141.439 156.074 C 151.276 157.958, 156.569 154.935, 153.574 149.143 C 152.075 146.245, 148.917 145, 143.064 145 C 141.586 145, 139.371 144.063, 138.142 142.917 C 136.281 141.184, 135.975 140.030, 136.318 136.041 C 136.782 130.642, 137.513 129, 139.454 129 C 140.279 129, 140.934 127.493, 141.166 125.062 C 141.679 119.682, 141.301 119, 137.803 119 C 134.954 119, 134.802 118.806, 135.249 115.755 C 135.529 113.850, 135.130 111.602, 134.283 110.309 C 133.259 108.746, 133.127 107.595, 133.831 106.338 C 135.148 103.985, 132.003 97.747, 128.830 96.419 C 127.503 95.864, 123.272 95.729, 119 96.106 M 74.324 105.796 C 70.679 106.163, 67.445 108.985, 70.628 109.022 C 111.587 109.502, 121.226 109.443, 121.679 108.710 C 121.980 108.224, 121.806 107.406, 121.294 106.894 C 120.419 106.019, 81.223 105.103, 74.324 105.796 M 113.500 119.892 C 108.578 120.640, 107.454 123.835, 111.374 125.932 C 114.126 127.405, 128.880 126.561, 129.150 124.915 C 129.233 124.412, 129.345 123.487, 129.400 122.861 C 129.490 121.832, 120.935 118.948, 118.500 119.186 C 117.950 119.240, 115.700 119.557, 113.500 119.892 M 86.252 123.662 C 85.500 123.965, 85.234 125.084, 85.583 126.474 C 85.901 127.743, 85.676 129.082, 85.081 129.450 C 83.292 130.556, 83.863 135.863, 86 138 C 88.692 140.692, 97.457 140.757, 100.899 138.111 L 103.297 136.267 101.509 130.884 C 100.526 127.923, 99.573 124.938, 99.392 124.250 C 99.065 123.009, 88.987 122.558, 86.252 123.662" stroke="none" fill="black" fill-rule="evenodd"/>
</svg>