<svg xmlns="http://www.w3.org/2000/svg" width="256" height="256" viewBox="0 0 256 256" version="1.1">
	<path d="M 94.501 24.999 C 93.355 26.265, 92.629 28.764, 92.522 31.810 C 92.429 34.456, 92.022 37.156, 91.617 37.810 C 91.083 38.675, 84.506 39, 67.552 39 C 41.536 39, 41.363 39.043, 39.073 46 C 37.166 51.796, 36.508 67.398, 38.018 71.043 C 39.224 73.955, 39.614 74.162, 42.891 73.630 C 46.613 73.026, 50.620 70.549, 52.375 67.767 C 53.140 66.554, 52.804 64.851, 51.067 61.142 C 49.781 58.397, 49 55.441, 49.333 54.575 C 49.986 52.874, 53.522 52.669, 86.500 52.422 C 95.300 52.356, 110.867 51.955, 121.094 51.532 C 144.901 50.547, 146.203 51.064, 141.971 59.824 C 140.539 62.788, 140.217 64.538, 140.878 65.773 C 142.542 68.882, 145.669 71.072, 149.279 71.658 C 154.052 72.432, 154.832 70.726, 156.266 56.380 C 157.624 42.792, 156.816 40.104, 150.983 38.792 C 149.067 38.361, 138.275 38.039, 127 38.076 C 115.725 38.113, 105.738 38.112, 104.808 38.072 C 103.411 38.013, 103.149 37.058, 103.308 32.608 C 103.601 24.382, 98.807 20.240, 94.501 24.999 M 101.769 59.564 C 101.459 59.874, 93.622 60.481, 84.353 60.913 C 70.554 61.555, 66.914 62.042, 64.266 63.599 C 60.147 66.020, 59.662 67.361, 61.903 70.129 C 63.456 72.046, 65.079 72.458, 73.603 73.092 C 79.046 73.498, 83.612 73.868, 83.750 73.915 C 83.888 73.962, 84 75.035, 84 76.300 C 84 78.890, 82.295 81, 80.202 81 C 77.488 81, 62.443 89.127, 58.117 92.930 L 53.735 96.783 56.443 99.141 C 60.892 103.016, 62.003 102.966, 71.318 98.464 C 80.486 94.034, 88.418 91.522, 90.051 92.532 C 90.573 92.854, 91 93.991, 91 95.059 C 91 96.554, 90.303 97, 87.967 97 C 84.909 97, 75.778 101.079, 73.309 103.548 C 72.576 104.281, 69.932 105.188, 67.434 105.562 C 60.483 106.605, 52 115.030, 52 120.891 C 52 126.167, 58.703 125.518, 70.111 119.138 C 75.337 116.216, 81.191 113.706, 83.314 113.479 C 85.455 113.249, 88.449 111.958, 90.141 110.535 C 91.798 109.141, 94.033 108, 95.108 108 C 97.428 108, 98.727 110.673, 97.165 112.235 C 96.251 113.149, 90.982 115.389, 87.661 116.276 C 87.199 116.399, 85.464 117.737, 83.805 119.250 C 82.146 120.762, 80.481 122, 80.106 122 C 79.731 122, 77.059 124.220, 74.169 126.934 C 70.889 130.013, 67.054 132.486, 63.968 133.511 C 61.249 134.414, 58.767 135.569, 58.453 136.076 C 58.139 136.584, 56.868 137, 55.630 137 C 52.077 137, 49.206 140.445, 48.427 145.641 C 47.842 149.539, 48.031 150.550, 49.553 151.663 C 52.559 153.860, 55.924 153.210, 62.036 149.250 C 65.219 147.188, 71.798 143.250, 76.655 140.500 C 81.512 137.750, 86.839 134.345, 88.493 132.933 C 92.396 129.601, 99.870 125.801, 101.066 126.541 C 103.661 128.145, 98.978 139.226, 94.152 142.900 C 89.662 146.317, 90.051 149.024, 95.920 155.209 C 100.482 160.017, 101.025 160.310, 103.379 159.237 C 108.857 156.741, 113.704 140.709, 112.484 129.117 C 111.604 120.752, 112.540 120.237, 120.931 124.474 C 125.402 126.731, 130.231 130.507, 136.049 136.295 C 145.489 145.687, 150.736 148.353, 155.503 146.181 C 157.602 145.224, 158 144.358, 158 140.740 L 158 136.438 147 128.545 C 140.950 124.204, 136 120.371, 136 120.028 C 136 119.684, 134.193 117.522, 131.983 115.223 C 124.495 107.430, 124.123 102.749, 130.500 96.552 C 135.279 91.907, 136.247 88.227, 133.605 84.746 C 131.502 81.976, 126.577 80.626, 123.821 82.065 C 119.531 84.303, 110.176 94.962, 110.718 96.993 C 111.042 98.202, 108.510 98.933, 107.074 98.046 C 106.389 97.623, 105.868 96.989, 105.915 96.638 C 106.492 92.323, 105.590 90.354, 101 85.906 C 98.250 83.242, 96 80.623, 96 80.087 C 96 79.550, 97.063 77.876, 98.362 76.366 C 100.611 73.751, 101.290 73.587, 112.612 72.914 C 125.513 72.148, 128.696 71.316, 131.904 67.873 C 134.783 64.783, 134.596 61.593, 131.453 60.161 C 128.880 58.988, 102.868 58.465, 101.769 59.564" stroke="none" fill="black" fill-rule="evenodd"/>
</svg>