<svg xmlns="http://www.w3.org/2000/svg" width="256" height="256" viewBox="0 0 256 256" version="1.1">
	<path d="M 90.964 26.068 C 90.355 27.205, 89.979 30.115, 90.128 32.535 C 90.277 34.955, 90.048 37.287, 89.619 37.717 C 89.190 38.148, 78.260 38.725, 65.329 39 C 37.170 39.599, 38.762 38.789, 37.478 53.169 C 35.810 71.842, 36.290 78, 39.414 78 C 41.405 78, 50.269 71.087, 52.065 68.134 C 53.781 65.312, 53.765 65.086, 51.490 60.175 C 49.479 55.835, 49.351 54.953, 50.584 53.930 C 51.604 53.084, 64.788 52.442, 96.072 51.717 C 147.062 50.535, 144.250 50.078, 142.085 59.206 C 140.605 65.443, 141.580 69.024, 145.448 71.558 C 148.924 73.835, 152.581 72.789, 153.486 69.259 C 153.876 67.741, 154.509 62, 154.895 56.500 C 156.193 37.994, 157.215 38.634, 126.116 38.470 C 113.127 38.401, 101.946 38.268, 101.269 38.173 C 100.398 38.050, 100.217 36.694, 100.651 33.526 C 101.449 27.704, 99.257 24, 95.012 24 C 93.062 24, 91.697 24.697, 90.964 26.068 M 92.500 59.089 C 87 59.593, 81.533 59.782, 80.352 59.509 C 77.197 58.780, 67.914 60.768, 65.882 62.607 C 63.885 64.414, 64.578 67.376, 68.020 71.753 C 69.688 73.873, 70 75.817, 70 84.079 C 70 92.955, 70.225 94.150, 72.368 96.642 C 74.623 99.263, 74.929 99.338, 78.734 98.198 C 83.930 96.641, 89.171 96.674, 91.363 98.276 C 92.988 99.464, 92.906 99.829, 90.170 103.606 C 86.722 108.367, 84.333 109.388, 73.248 110.843 C 67.410 111.609, 64.357 112.521, 62.810 113.963 C 61.607 115.083, 60.122 116, 59.511 116 C 57.676 116, 54.056 124.635, 52.786 132.041 C 51.041 142.216, 52.990 155.554, 56.702 158.852 C 58.898 160.804, 59.960 161.079, 62.925 160.466 C 64.891 160.059, 72.575 159.591, 80 159.425 C 87.425 159.260, 98.867 158.591, 105.426 157.939 C 111.985 157.287, 120.992 157.049, 125.440 157.410 C 135.928 158.261, 137.122 157.462, 138.210 148.866 C 140.550 130.384, 140.084 117.217, 136.864 110.840 C 135.657 108.449, 129.305 107.500, 114.513 107.500 L 101.526 107.500 99.513 103.726 C 97.046 99.100, 97.437 98.765, 107.321 97.045 C 111.270 96.358, 115.761 95.328, 117.303 94.755 C 120.891 93.422, 123.783 87.791, 124.837 80.086 C 125.494 75.279, 126.482 73.060, 129.990 68.512 L 134.331 62.886 132.158 60.714 C 130.160 58.716, 128.884 58.527, 116.243 58.357 C 108.684 58.256, 98 58.585, 92.500 59.089 M 90.500 72.412 C 76.670 73.979, 75.481 75.043, 81.119 80.810 C 84.201 83.963, 84.350 84, 93.869 83.985 C 108.364 83.962, 115 80.792, 115 73.889 L 115 71 107.750 71.140 C 103.763 71.216, 96 71.789, 90.500 72.412 M 94.464 122.132 C 92.834 122.479, 89.185 122.817, 86.355 122.882 C 80.606 123.014, 68.784 126.334, 67.230 128.253 C 66.674 128.939, 66.058 133.325, 65.860 138 L 65.500 146.500 70 146.846 C 74.661 147.204, 93.830 145.822, 111.882 143.826 C 125.530 142.317, 127.043 141.133, 127.738 131.420 C 128.437 121.647, 128.190 121.500, 111.059 121.500 C 103.562 121.500, 96.095 121.784, 94.464 122.132" stroke="none" fill="black" fill-rule="evenodd"/>
</svg>