<svg xmlns="http://www.w3.org/2000/svg" width="256" height="256" viewBox="0 0 256 256" version="1.1">
	<path d="M 92.498 28.645 C 91.210 29.933, 90.996 31.337, 91.514 35.104 C 92.129 39.574, 92.009 39.959, 89.838 40.490 C 88.552 40.806, 77.228 40.937, 64.673 40.782 L 41.845 40.500 39.920 42.864 C 37.998 45.224, 37.851 46.755, 38.033 62.452 C 38.131 70.854, 41.167 72.223, 46.697 66.360 C 49.421 63.472, 50.070 62.032, 49.842 59.383 C 49.683 57.548, 50.128 55.473, 50.828 54.773 C 51.830 53.773, 61.770 53.552, 97.246 53.744 C 122.074 53.879, 142.778 54.378, 143.255 54.855 C 143.731 55.331, 143.981 57.911, 143.810 60.587 C 143.355 67.722, 141.847 68.269, 124.621 67.544 C 110.931 66.967, 110.698 66.993, 107.460 69.462 C 105.089 71.271, 104.325 72.525, 104.706 73.983 C 104.996 75.092, 105.631 76, 106.117 76 C 106.602 76, 107 76.873, 107 77.941 C 107 79.009, 107.450 80.160, 108 80.500 C 109.253 81.275, 109.287 88.998, 108.046 90.960 C 107.253 92.214, 106.841 92.166, 105.134 90.621 C 102.434 88.178, 97.019 87.037, 87.626 86.931 C 78.470 86.827, 77 86.424, 77 84.015 C 77 80.783, 79.403 79.762, 84.058 81.016 C 89.201 82.401, 92.191 81.731, 96.613 78.203 C 101.640 74.192, 101.066 72.358, 93.750 69.042 C 90.313 67.484, 85.475 65.672, 83 65.015 C 80.525 64.359, 77.491 62.886, 76.258 61.744 C 73.469 59.160, 68.690 59.066, 65.954 61.542 C 64.061 63.254, 63.936 64.154, 64.500 71.958 C 65.014 79.069, 64.815 81.086, 63.309 84 C 61.504 87.493, 61.487 87.499, 55.367 87.164 C 48.660 86.796, 44.604 88.260, 39.750 92.801 C 36.182 96.139, 36.282 97.587, 40.250 100.031 C 42.885 101.654, 45.075 102.005, 51.821 101.887 C 56.816 101.800, 60.589 102.189, 61.260 102.860 C 62.500 104.100, 63.650 131.275, 62.634 135.323 C 62.226 136.947, 60.546 138.463, 57.641 139.829 C 53.596 141.730, 52.057 143.882, 52.014 147.697 C 52.006 148.355, 54.454 150.522, 57.452 152.512 C 64.088 156.916, 68.455 157.363, 71.091 153.906 C 73.295 151.016, 73.856 147.261, 74.441 131.500 C 75.096 113.825, 76.134 102.664, 77.255 101.250 C 77.883 100.457, 80.885 100, 85.473 100 C 93.072 100, 97.194 99.056, 103.034 95.978 C 107.112 93.828, 108.764 94.460, 109.857 98.585 C 110.282 100.188, 111.725 102.035, 113.065 102.688 C 114.404 103.342, 117.065 105.494, 118.977 107.470 C 121.743 110.329, 122.455 111.865, 122.455 114.980 C 122.455 118.438, 121.843 119.444, 117.227 123.581 C 114.088 126.394, 111.991 129.111, 111.978 130.383 C 111.966 131.547, 111.076 133.625, 110 135 C 108.924 136.375, 108.034 137.993, 108.022 138.595 C 108.010 139.197, 107.100 140.505, 106 141.500 C 104.752 142.629, 104 144.580, 104 146.687 C 104 150.963, 106.764 152.231, 112.478 150.577 C 115.792 149.617, 116.969 148.512, 119.525 143.962 C 121.212 140.958, 123.306 136.700, 124.179 134.500 C 125.247 131.806, 126.474 130.393, 127.936 130.173 C 131.127 129.693, 138.236 135.984, 141.960 142.583 C 145.557 148.957, 152.450 156, 155.091 156 C 163.004 156, 160.048 142.356, 150.573 135.140 C 148.666 133.688, 146.576 131.260, 145.929 129.743 C 145.282 128.227, 143.539 125.597, 142.056 123.899 C 139.598 121.083, 139.423 120.351, 140.071 115.575 C 140.462 112.694, 141.931 107.899, 143.336 104.919 C 145.910 99.457, 147.012 95.495, 149.014 84.500 C 151.054 73.292, 152.853 65.511, 154.331 61.500 C 156.154 56.553, 157.416 46.887, 156.582 44.260 C 155.397 40.523, 152.379 40.169, 126.664 40.747 C 105.948 41.212, 101.985 41.077, 101.907 39.901 C 101.856 39.130, 101.886 36.650, 101.974 34.388 C 102.228 27.869, 96.653 24.490, 92.498 28.645 M 126 80.970 C 121.476 81.655, 121.123 84.121, 124.219 93.398 C 126.866 101.327, 129.126 103.542, 131.440 100.478 C 135.836 94.657, 138.574 83.091, 135.941 81.464 C 134.321 80.462, 130.583 80.277, 126 80.970 M 83.250 112.360 C 79.454 114.240, 80.315 118.267, 85.681 123.732 C 88.256 126.355, 90.253 129.096, 90.120 129.824 C 89.758 131.807, 91.938 133.961, 93.645 133.306 C 95.561 132.571, 100 122.600, 100 119.031 C 100 113.077, 89.914 109.060, 83.250 112.360 M 42.670 114.812 C 40.271 117.463, 36 129.893, 36 134.223 C 36 137.143, 36.568 138.326, 38.615 139.667 C 40.953 141.199, 41.507 141.226, 43.841 139.916 C 46.546 138.398, 47.252 137.287, 51.479 127.904 C 53.942 122.436, 54.613 117.762, 53.393 114.582 C 52.508 112.275, 44.816 112.441, 42.670 114.812" stroke="none" fill="black" fill-rule="evenodd"/>
</svg>