<svg xmlns="http://www.w3.org/2000/svg" width="256" height="256" viewBox="0 0 256 256" version="1.1">
	<path d="M 71.736 24.250 C 69.319 26.086, 68.024 30.371, 68.674 34.380 C 69.359 38.598, 69.110 38.688, 55 39.309 C 43.585 39.811, 38.371 41.674, 37.385 45.603 C 36.842 47.766, 37.192 48.737, 39.062 50.251 C 41.237 52.012, 42.515 52.108, 55.139 51.458 C 68.794 50.754, 82 51.473, 82 52.919 C 82 54.743, 75.657 56.434, 64.661 57.542 C 49.303 59.088, 49.293 59.098, 48.431 73 C 47.740 84.130, 49.818 100.778, 52.562 106.109 C 54.197 109.285, 59.043 111.457, 62.537 110.580 C 65.170 109.919, 86.354 109.805, 104.793 110.352 C 112.676 110.586, 115.468 111.040, 116.716 112.288 C 118.223 113.794, 118.141 113.996, 115.629 114.951 C 111.536 116.507, 85.892 117.040, 62.932 116.046 C 47.612 115.382, 42.333 115.453, 41.774 116.331 C 40.386 118.514, 40.992 122.615, 43.028 124.799 C 45.469 127.419, 46.459 127.656, 60.500 128.978 C 66.550 129.548, 71.630 130.402, 71.790 130.876 C 71.949 131.351, 73.863 131.124, 76.043 130.373 C 78.223 129.622, 85.293 128.563, 91.753 128.020 C 98.214 127.477, 105.651 126.757, 108.280 126.419 C 114.734 125.589, 115.815 126.648, 115 133 C 114.644 135.776, 113.936 138.445, 113.426 138.930 C 112.917 139.415, 109.800 140.936, 106.500 142.310 C 97.009 146.261, 97.792 151.136, 108.741 156.259 C 114.738 159.066, 115.531 159.211, 117.809 157.917 C 119.182 157.138, 121.136 155.375, 122.150 154 C 124.553 150.744, 127 141.187, 127 135.062 C 127 131.888, 127.621 129.455, 128.803 127.995 C 130.458 125.951, 131.392 125.781, 140.273 125.914 C 148.768 126.041, 150.188 125.812, 151.971 124.029 C 153.087 122.913, 154 121.335, 154 120.523 C 154 118.669, 149.455 115.601, 148.021 116.487 C 146.807 117.238, 134.173 115.486, 129.198 113.878 C 127.382 113.291, 126.055 112.336, 126.248 111.756 C 126.441 111.176, 129.620 109.722, 133.311 108.526 C 137.002 107.330, 140.667 105.485, 141.455 104.426 C 144.098 100.872, 145.155 93.291, 145.328 76.627 C 145.478 62.229, 145.278 59.850, 143.799 58.371 C 142.358 56.930, 139.811 56.657, 127.099 56.585 C 111.722 56.498, 107.974 55.626, 110.807 52.793 C 111.678 51.922, 117.095 51.645, 130.257 51.798 C 150.849 52.037, 153.301 51.474, 153.801 46.392 C 154.300 41.320, 152.357 40.584, 136.940 40.012 C 129.361 39.730, 122.826 39.164, 122.417 38.754 C 122.009 38.344, 122.198 36.860, 122.838 35.457 C 125.310 30.032, 123.008 24, 118.466 24 C 115.164 24, 112.900 27.789, 112.680 33.681 L 112.500 38.500 97.734 38.777 C 89.245 38.936, 82.176 38.629, 81.104 38.056 C 79.575 37.237, 79.331 36.246, 79.747 32.548 C 80.576 25.196, 76.310 20.777, 71.736 24.250 M 89.250 51.652 C 86.294 52.292, 86.406 53.565, 89.600 55.658 C 91.867 57.143, 92.796 57.202, 96.850 56.122 C 101.446 54.897, 103.823 53.489, 102.882 52.549 C 102.125 51.792, 91.757 51.110, 89.250 51.652 M 87.250 68.491 C 85.463 69.268, 83.996 70.488, 83.990 71.202 C 83.978 72.855, 79.588 81.904, 77.594 84.388 C 76.234 86.081, 75.740 86.139, 72.789 84.955 C 70.980 84.229, 68.424 82.815, 67.109 81.812 C 64.150 79.557, 62.326 80.743, 61.433 85.503 C 60.655 89.653, 63.435 96, 66.031 96 C 67.022 96, 67.983 96.417, 68.167 96.926 C 68.807 98.705, 85.654 100.190, 104.372 100.116 C 120.728 100.051, 123.661 99.799, 126.372 98.220 C 130.044 96.082, 131.955 92.583, 132.272 87.416 L 132.500 83.697 122 83.486 C 107.130 83.187, 103.201 81.061, 102.414 72.884 C 102.188 70.539, 101.440 68.262, 100.751 67.825 C 98.755 66.558, 90.795 66.950, 87.250 68.491 M 115.250 68.001 C 109.840 70.249, 114.727 73, 124.131 73 C 127.431 73, 131.002 72.534, 132.066 71.965 C 134.725 70.542, 134.525 68.009, 131.750 67.962 C 130.512 67.940, 126.800 67.730, 123.500 67.494 C 120.200 67.259, 116.487 67.487, 115.250 68.001 M 61.575 69.917 C 60.121 71.524, 60.039 72.211, 61.070 74.167 C 61.746 75.450, 62.767 76.804, 63.339 77.176 C 64.300 77.801, 72.469 72.669, 73.710 70.660 C 75.565 67.659, 64.246 66.966, 61.575 69.917 M 82.966 86.867 C 78.073 87.903, 77.103 88.680, 77.727 91.065 C 78.809 95.203, 81.879 96.021, 98.794 96.678 C 115.141 97.313, 120.168 96.610, 121.353 93.523 C 122.175 91.381, 119.283 88.307, 115.786 87.604 C 110.640 86.569, 86.891 86.036, 82.966 86.867 M 72.348 132.755 C 71.114 132.961, 69.686 134.344, 69.001 135.998 C 67.203 140.338, 69.245 145.472, 74.026 148.636 C 78.406 151.534, 81.170 151.197, 83.615 147.465 C 85.881 144.006, 84.595 139.806, 80.198 136.312 C 75.485 132.565, 74.949 132.323, 72.348 132.755" stroke="none" fill="black" fill-rule="evenodd"/>
</svg>