<svg xmlns="http://www.w3.org/2000/svg" width="256" height="256" viewBox="0 0 256 256" version="1.1">
	<path d="M 90.790 37.058 C 88.579 38.347, 88.201 40.795, 86.783 63 C 84.535 98.189, 85.867 110.986, 91.865 111.835 C 93.166 112.019, 94.683 111.717, 95.235 111.165 C 97.592 108.808, 101.002 57.173, 99.561 45.645 C 98.565 37.672, 95.270 34.446, 90.790 37.058 M 55.704 56.127 C 54.165 57.286, 51.384 61.258, 49.523 64.954 C 47.662 68.650, 44.083 74.082, 41.571 77.026 C 36.095 83.441, 32.405 92.309, 33.676 96 C 34.948 99.695, 38.722 99.711, 43.154 96.040 C 47.435 92.493, 57.590 77.473, 60.082 71 C 61.035 68.525, 62.399 65.054, 63.113 63.286 C 64.733 59.275, 63.373 54.611, 60.480 54.260 C 59.391 54.128, 57.242 54.968, 55.704 56.127 M 127.256 58.352 C 126.148 60.804, 126.400 61.614, 130.416 68.500 C 134.101 74.818, 136.594 77.649, 141 80.519 C 142.925 81.774, 146.242 84.470, 148.372 86.512 C 152.370 90.347, 153.948 90.095, 153.985 85.616 C 154.028 80.322, 151.383 75.847, 143.037 67.094 C 133.435 57.024, 128.975 54.553, 127.256 58.352 M 123.385 106.750 C 121.996 108.263, 120.192 110.236, 119.375 111.136 C 118.559 112.036, 116.677 113.025, 115.195 113.333 C 111.657 114.070, 102.409 122.286, 98.914 127.797 C 95.862 132.609, 86.950 139.786, 83.016 140.600 C 81.632 140.886, 79.600 141.371, 78.500 141.677 C 77.400 141.983, 69.171 142.519, 60.213 142.867 C 43.003 143.536, 41.691 143.949, 42.767 148.361 C 44.571 155.757, 53.167 157.478, 73.257 154.463 C 81.016 153.299, 85.440 151.986, 91.500 149.052 C 100.589 144.651, 103.057 142.757, 105.249 138.500 C 106.865 135.361, 113.185 129.784, 117.199 127.955 C 118.489 127.367, 120.435 125.241, 121.523 123.230 C 122.641 121.162, 124.500 119.341, 125.804 119.037 C 127.071 118.742, 129.007 116.925, 130.107 115 C 131.985 111.714, 132.011 111.271, 130.540 107.750 C 128.677 103.291, 126.801 103.029, 123.385 106.750" stroke="none" fill="black" fill-rule="evenodd"/>
</svg>