<svg xmlns="http://www.w3.org/2000/svg" width="256" height="256" viewBox="0 0 256 256" version="1.1">
	<path d="M 95.748 49.750 C 92.824 53.026, 92.200 59.483, 91.566 93 C 91.218 111.425, 90.796 127.400, 90.627 128.500 C 90.215 131.189, 83.978 131.835, 81.580 129.437 C 80.337 128.194, 76.953 127.548, 68.300 126.902 C 61.913 126.426, 55.926 125.794, 54.996 125.499 C 51.765 124.473, 51.422 83.518, 54.551 72.443 C 56.219 66.540, 44.857 63.006, 40.682 68.129 C 38.860 70.365, 38.792 71.612, 39.482 90 C 39.884 100.725, 40.137 113.695, 40.043 118.822 C 39.885 127.468, 40.062 128.393, 42.487 131.572 C 43.925 133.457, 45.772 135, 46.591 135 C 47.411 135, 49.300 135.893, 50.790 136.985 C 54.274 139.538, 62.384 141.972, 67.500 142.001 C 69.700 142.014, 73.975 142.688, 77 143.500 C 81.329 144.662, 89.653 144.979, 116.095 144.988 C 147.628 144.999, 149.794 144.885, 151.379 143.133 C 152.739 141.631, 153.189 138.342, 153.684 126.272 C 154.487 106.701, 152.292 67.435, 150.283 65.425 C 148.083 63.226, 144.178 63.731, 141.324 66.585 C 138.901 69.008, 138.779 69.585, 139.375 75.835 C 139.725 79.501, 140.301 93.401, 140.656 106.724 C 141.392 134.421, 141.794 133.198, 132.582 131.290 C 129.495 130.650, 125.144 130.553, 121.500 131.041 C 118.200 131.484, 112.800 131.543, 109.500 131.173 L 103.500 130.500 104 115.500 C 104.275 107.250, 104.445 90.825, 104.378 79 C 104.267 59.522, 104.059 57.053, 102.163 52.750 C 99.938 47.698, 98.274 46.920, 95.748 49.750" stroke="none" fill="black" fill-rule="evenodd"/>
</svg>