<svg xmlns="http://www.w3.org/2000/svg" width="256" height="256" viewBox="0 0 256 256" version="1.1">
	<path d="M 122.724 32.250 C 119.789 34.462, 117.685 41.180, 117.477 49 C 117.367 53.125, 117.215 56.837, 117.139 57.250 C 117.062 57.663, 112.838 58.007, 107.750 58.015 C 90.878 58.042, 90.637 58.493, 90.676 90 C 90.693 102.925, 91.069 117.100, 91.513 121.500 C 91.957 125.900, 92.360 134.443, 92.410 140.484 C 92.528 154.834, 91.163 154.157, 117.500 152.929 C 144.750 151.658, 148.068 151.656, 151.315 152.912 C 156.064 154.747, 158.943 154.281, 159.998 151.505 C 160.551 150.051, 160.764 138.061, 160.508 122.755 C 160.267 108.315, 160.054 88.787, 160.035 79.361 C 159.988 56.565, 160.703 57.500, 143.338 57.500 L 130.500 57.500 130.500 45.921 C 130.500 37.586, 130.116 33.875, 129.128 32.671 C 127.498 30.687, 125.015 30.523, 122.724 32.250 M 55.250 54.740 C 54.563 54.975, 54 55.747, 54 56.457 C 54 57.167, 52.814 59.870, 51.365 62.462 C 48.740 67.159, 48.733 67.232, 49.462 81.838 C 49.865 89.902, 50.263 99.425, 50.347 103 C 50.498 109.403, 50.459 109.505, 47.728 109.819 C 43.498 110.305, 41.975 105.442, 40.629 87.157 C 39.502 71.847, 39.494 71.812, 36.708 70.353 C 30.778 67.250, 28.657 70.331, 28.745 81.925 C 28.943 108.367, 29.229 112.528, 31.092 116.180 C 32.126 118.206, 33.487 120.183, 34.116 120.572 C 36.114 121.806, 62.001 121.244, 63.583 119.931 C 64.372 119.276, 65.293 117.021, 65.629 114.919 C 66.184 111.448, 66.384 111.241, 67.809 112.666 C 68.671 113.528, 70.130 115.644, 71.050 117.367 C 72.280 119.671, 73.538 120.582, 75.805 120.809 C 78.408 121.070, 79.168 120.604, 80.694 117.809 C 82.263 114.934, 82.500 111.904, 82.500 94.693 L 82.500 74.886 80 72.965 C 73.915 68.290, 71.571 71.254, 71.274 83.998 C 71.056 93.366, 69.255 103.935, 67.273 107.476 C 66.487 108.881, 66.105 108.405, 65.161 104.846 C 62.889 96.282, 62.685 94.306, 62.584 79.821 C 62.487 66.049, 62.335 64.944, 60.122 61.951 C 58.824 60.196, 57.479 57.760, 57.131 56.537 C 56.784 55.314, 55.938 54.505, 55.250 54.740 M 103.348 71.536 C 102.434 73.917, 103.990 92.283, 105.232 93.780 C 105.986 94.688, 107.684 94.882, 110.904 94.426 C 117.170 93.540, 118.131 92.444, 116.979 87.500 C 116.467 85.300, 116.037 80.939, 116.024 77.809 C 116.011 74.679, 115.642 71.897, 115.205 71.626 C 114.767 71.356, 112.058 70.866, 109.185 70.537 C 104.954 70.054, 103.844 70.244, 103.348 71.536 M 131.607 71.435 C 130.026 72.683, 129.804 73.813, 130.264 78.269 C 130.567 81.205, 130.420 85.720, 129.938 88.302 C 128.634 95.284, 129.364 96.356, 134.900 95.587 C 137.430 95.236, 141.075 94.847, 143 94.724 L 146.500 94.500 146.398 83.698 C 146.337 77.236, 145.849 72.449, 145.183 71.783 C 143.358 69.958, 133.788 69.712, 131.607 71.435 M 103.437 109.456 C 102.131 111.449, 101.986 112.386, 102.851 113.251 C 103.527 113.927, 104.049 118.126, 104.118 123.450 C 104.293 136.797, 104.793 138.390, 109.008 139.030 C 113.490 139.711, 118.815 138.159, 119.510 135.969 C 119.807 135.031, 119.533 132.967, 118.901 131.382 C 117.781 128.577, 117.632 127.401, 117.198 118 C 116.932 112.245, 113.831 108.334, 108.835 107.455 C 105.621 106.889, 104.958 107.134, 103.437 109.456 M 134.217 109.948 C 126.519 111.835, 124.139 113, 127.982 113 C 130.296 113, 130.297 113.006, 129.777 124.250 C 129.491 130.438, 129.462 136.063, 129.712 136.750 C 130.027 137.615, 132.755 138, 138.564 138 C 148.664 138, 148.161 138.929, 147.772 121 L 147.500 108.500 144.500 108.331 C 142.850 108.239, 138.222 108.966, 134.217 109.948" stroke="none" fill="black" fill-rule="evenodd"/>
</svg>