<svg xmlns="http://www.w3.org/2000/svg" width="256" height="256" viewBox="0 0 256 256" version="1.1">
	<path d="M 115 29.724 C 109.842 31.672, 99.129 44.515, 98.374 49.654 C 98 52.205, 95.867 53.959, 91.811 55.051 C 86.285 56.539, 84.562 60.561, 86.830 66.680 C 88.061 69.999, 88.947 71, 90.657 71 C 91.881 71, 93.160 70.550, 93.500 70 C 93.840 69.450, 94.983 69, 96.040 69 C 99.314 69, 99.805 75.934, 96.797 79.700 C 96.269 80.360, 93.837 81.869, 91.392 83.052 C 83.649 86.801, 82.404 93.912, 88.917 97.192 L 92.277 98.883 100.274 90.692 C 108.516 82.248, 110.635 78.791, 111.414 72.511 C 112.028 67.562, 113.583 65.997, 117.872 66.015 C 123.836 66.039, 126.199 67.863, 127.572 73.500 C 130.313 84.763, 132.153 90.482, 133.294 91.286 C 136.695 93.680, 141.406 94.862, 150.117 95.507 C 159.441 96.196, 159.784 96.147, 161.367 93.886 C 165.408 88.117, 160.899 83.098, 151.500 82.904 C 143.060 82.729, 141.645 81.977, 140.330 76.961 C 138.356 69.430, 138.643 67.086, 141.678 65.932 C 143.408 65.275, 145.892 65.242, 148.693 65.839 C 152.369 66.623, 153.409 66.466, 155.515 64.809 C 160.386 60.978, 158.094 55.610, 150.250 52.479 C 147.118 51.229, 145.994 50.219, 145.978 48.641 C 145.950 45.895, 142.799 38.942, 140.575 36.718 C 138.084 34.227, 136.259 34.599, 134.526 37.950 C 132.681 41.517, 132.604 44.262, 134.221 48.734 C 135.240 51.554, 135.199 52.262, 133.971 53.039 C 132.041 54.259, 110.290 54.278, 109.537 53.060 C 109.079 52.319, 112.824 47.080, 116.014 44 C 122.273 37.956, 123.726 32.108, 119.453 30.161 C 118.052 29.522, 116.815 29.036, 116.703 29.079 C 116.591 29.122, 115.825 29.413, 115 29.724 M 48.573 46.570 C 45.913 49.230, 45.696 52.390, 46.213 80.892 C 46.488 96.076, 46.515 109.063, 46.273 109.750 C 45.563 111.767, 42.169 111.185, 40.909 108.831 C 40.210 107.523, 39.593 99.876, 39.358 89.581 C 38.973 72.772, 38.927 72.464, 36.428 70.250 C 35.031 69.013, 33.086 68, 32.105 68 C 28.492 68, 27.605 72.566, 27.248 93 C 26.947 110.224, 27.117 112.908, 28.704 115.999 C 30.637 119.764, 34.858 122.349, 38.647 122.088 C 43.446 121.756, 45.621 121.944, 50.573 123.119 C 55.317 124.244, 55.850 124.170, 58.823 121.973 C 60.570 120.681, 62 119.034, 62 118.312 C 62 115.854, 65.407 116.992, 69.234 120.728 C 73.791 125.178, 75.351 124.690, 78.079 117.964 C 80.351 112.357, 80.449 106.036, 78.399 97.312 C 77.518 93.565, 76.455 86.482, 76.037 81.571 C 75.410 74.212, 74.901 72.338, 73.142 70.914 C 70.454 68.738, 67.575 69.442, 66.122 72.632 C 64.825 75.478, 64.745 91.652, 65.967 104 C 66.824 112.663, 65.994 115.851, 63.313 114.194 C 60.720 112.591, 58.072 90.354, 58.081 70.269 C 58.090 51.420, 57.568 47.747, 54.600 45.765 C 52.793 44.558, 50.244 44.899, 48.573 46.570 M 109.799 95.950 C 108.777 97.587, 102.061 100.208, 90.261 103.575 C 89.377 103.828, 89.286 104.623, 89.946 106.357 C 90.882 108.820, 90.337 113, 89.079 113 C 88.701 113, 88.286 114.783, 88.157 116.962 C 87.839 122.364, 90.818 125.453, 95.598 124.678 C 98.537 124.201, 99.553 124.672, 103.486 128.334 C 108.075 132.608, 108.998 134.981, 106.750 136.725 C 105.523 137.677, 100.943 140.077, 94 143.405 C 85.228 147.609, 83 149.697, 83 153.716 C 83 157.240, 87.140 158.470, 94 156.983 C 100.725 155.527, 104.924 153.115, 111.690 146.825 C 114.545 144.171, 117.740 142, 118.791 142 C 121.934 142, 127.191 144.109, 132.500 147.500 C 140.009 152.297, 150.137 157.581, 153.356 158.381 C 156.692 159.211, 160.455 157.190, 161.253 154.142 C 162.391 149.789, 158.575 146.311, 146.046 140.285 C 139.432 137.103, 133.780 133.775, 133.487 132.888 C 133.193 132.001, 134.538 128.470, 136.476 125.042 C 138.414 121.613, 140 118.422, 140 117.951 C 140 115.532, 142.698 111.786, 145.727 109.999 C 150.658 107.089, 149.930 104.183, 143.500 101.113 C 139.705 99.301, 137.018 98.766, 132.352 98.894 C 128.279 99.005, 125.741 98.599, 124.832 97.689 C 120.686 93.543, 111.935 92.531, 109.799 95.950 M 121 111.124 C 111.628 112.622, 108.488 113.220, 108.107 113.580 C 107.239 114.402, 110.440 117.040, 115.162 119.394 C 119.052 121.332, 120.641 121.663, 122.330 120.885 C 124.820 119.737, 130.416 112.346, 129.266 111.723 C 127.222 110.617, 125.126 110.465, 121 111.124 M 43 115.059 C 43 116.191, 43.430 116.852, 43.956 116.527 C 44.482 116.202, 44.659 115.275, 44.349 114.468 C 43.556 112.401, 43 112.644, 43 115.059" stroke="none" fill="black" fill-rule="evenodd"/>
</svg>