<svg xmlns="http://www.w3.org/2000/svg" width="256" height="256" viewBox="0 0 256 256" version="1.1">
	<path d="M 96.783 30.750 C 95.944 31.712, 94.687 33.599, 93.991 34.942 C 92.410 37.989, 90.758 80.913, 91.506 99.500 C 91.794 106.650, 91.685 117.675, 91.265 124 C 90.564 134.536, 90.334 135.500, 88.521 135.500 C 87.411 135.500, 85.654 134.142, 84.521 132.409 C 80.589 126.394, 74.840 125.750, 75.169 131.360 C 75.472 136.534, 78.499 141.328, 85.585 147.857 C 92.492 154.221, 92.519 154.229, 98.500 151.981 C 99.600 151.568, 101.357 150.278, 102.405 149.115 C 104.218 147.102, 104.329 144.341, 104.725 91.250 C 105.135 36.348, 105.111 35.451, 103.086 32.250 C 100.774 28.597, 99.025 28.181, 96.783 30.750 M 129 60 C 127.900 61.100, 127.003 62.563, 127.007 63.250 C 127.018 65.414, 130.941 70.719, 142 83.529 C 144.780 86.749, 147.243 90.989, 148.442 94.621 C 149.510 97.854, 150.939 101.339, 151.617 102.365 C 152.295 103.390, 152.607 104.861, 152.311 105.633 C 151.636 107.392, 153.770 112.698, 155.405 113.325 C 158.123 114.368, 162.164 112.699, 163.166 110.119 C 165.595 103.860, 159.953 87.595, 153.496 82.242 C 151.668 80.727, 148.846 76.592, 147.188 73 C 145.538 69.425, 143.359 65.757, 142.344 64.848 C 141.330 63.939, 139.440 62.027, 138.145 60.598 C 135.330 57.493, 131.742 57.258, 129 60 M 60.787 60.682 C 58.445 61.298, 52.819 69.351, 50.192 75.847 C 49.003 78.788, 46.786 83.159, 45.265 85.561 C 42.993 89.148, 41.950 89.933, 39.419 89.963 C 35.350 90.012, 33.680 93.153, 34.145 99.880 C 34.340 102.697, 34.172 105.001, 33.771 105.001 C 33.064 105, 34.748 109.727, 36.003 111.263 C 37.138 112.653, 43.440 109.792, 47.338 106.117 C 51.521 102.174, 55.440 95.123, 59.076 85 C 60.360 81.425, 62.285 76.998, 63.355 75.163 C 65.819 70.937, 67.109 64.072, 65.874 61.764 C 64.935 60.009, 64.057 59.823, 60.787 60.682 M 210 115.378 C 210 116.685, 210.644 118.289, 211.430 118.942 C 212.572 119.890, 213.075 119.728, 213.927 118.137 C 215.309 115.555, 214.297 113, 211.893 113 C 210.566 113, 210 113.711, 210 115.378 M 56.711 175.999 C 56.423 177.098, 56.600 178.253, 57.103 178.564 C 58.693 179.546, 61.764 178.012, 62.298 175.967 C 62.719 174.358, 62.305 174, 60.023 174 C 58.075 174, 57.076 174.603, 56.711 175.999" stroke="none" fill="black" fill-rule="evenodd"/>
</svg>