<svg xmlns="http://www.w3.org/2000/svg" width="256" height="256" viewBox="0 0 256 256" version="1.1">
	<path d="M 53.093 31.943 C 52.398 32.372, 51.902 33.018, 51.990 33.378 C 52.079 33.739, 51.919 35.263, 51.635 36.767 C 51.350 38.270, 50.860 45.125, 50.545 52 C 49.480 75.236, 48.125 96.232, 47.382 101 C 46.214 108.499, 39.890 138.396, 37.229 149 C 36.086 153.555, 37.531 158, 40.154 158 C 42.579 158, 47.687 152.680, 49.757 148 C 50.608 146.075, 52.074 140.900, 53.015 136.500 C 53.957 132.100, 55.464 125.575, 56.365 122 C 57.267 118.425, 58.487 112.277, 59.078 108.338 C 59.668 104.399, 60.680 100.510, 61.326 99.697 C 62.256 98.527, 66.600 98.082, 82.218 97.557 C 102.890 96.863, 106 97.307, 106 100.953 C 106 105.776, 105.438 106, 93.327 106 C 81.532 106, 78.729 106.688, 75.868 110.286 C 74.637 111.834, 74.450 113.082, 75.106 115.371 C 75.585 117.039, 75.688 121.506, 75.336 125.297 C 74.880 130.204, 75.229 134.903, 76.548 141.611 C 79.185 155.022, 79.703 155.265, 102.773 153.884 C 130.115 152.248, 139.934 151.400, 140.728 150.606 C 141.153 150.181, 141.821 145.484, 142.213 140.167 C 142.605 134.850, 143.191 128.025, 143.515 125 C 144.948 111.607, 144.831 110.839, 141 108.572 C 138.136 106.876, 135.744 106.489, 127.828 106.437 C 117.870 106.373, 114.985 105.402, 115.015 102.128 C 115.053 98.167, 116.310 97.798, 129.326 97.933 C 145.771 98.104, 151.016 96.184, 149.593 90.514 C 148.725 87.056, 140.740 85, 128.178 85 C 122.670 85, 117.452 84.727, 116.582 84.393 C 114.333 83.530, 114.392 74.747, 116.660 72.872 C 118.352 71.473, 131.090 71.309, 139.214 72.582 C 142.260 73.059, 143.358 72.732, 145.324 70.766 C 147.387 68.704, 147.897 66.735, 148.984 56.646 C 150.511 42.474, 150.013 35.221, 147.381 33.271 C 145.909 32.181, 143 32.009, 134 32.480 C 112.884 33.586, 94.569 33.781, 87.500 32.975 C 76.649 31.737, 54.501 31.073, 53.093 31.943 M 67.500 45.711 C 64.262 46.513, 62 49.113, 62 52.033 C 62 56.582, 64.249 57.499, 75.415 57.505 C 80.962 57.508, 96.923 57.663, 110.883 57.849 C 131.310 58.120, 136.438 57.924, 137.144 56.843 C 137.626 56.104, 137.904 53.475, 137.761 51 L 137.500 46.500 112.395 46.404 C 98.588 46.352, 83.288 46.063, 78.395 45.762 C 73.503 45.461, 68.600 45.438, 67.500 45.711 M 63.538 71.981 C 61.837 73.889, 60.618 84.027, 61.865 85.894 C 62.648 87.066, 63.572 87.083, 67.648 86.002 C 70.336 85.289, 78.993 84.635, 87.058 84.535 C 95.065 84.436, 102.152 84.024, 102.808 83.619 C 103.469 83.210, 104 80.695, 104 77.976 C 104 74.323, 103.553 72.834, 102.250 72.145 C 101.287 71.636, 92.488 71.049, 82.696 70.841 C 67.698 70.521, 64.679 70.701, 63.538 71.981 M 92.802 121.028 C 88.502 121.773, 85.990 123.568, 86.025 125.872 C 86.067 128.694, 89.974 139.365, 91.265 140.185 C 93.296 141.475, 102.034 141.073, 109.500 139.347 C 113.350 138.456, 119.547 137.821, 123.271 137.935 L 130.042 138.143 131.409 134.821 C 133.375 130.046, 134.180 123.744, 133.047 122 C 132.244 120.763, 128.954 120.490, 114.286 120.444 C 104.504 120.413, 94.836 120.676, 92.802 121.028" stroke="none" fill="black" fill-rule="evenodd"/>
</svg>