<svg xmlns="http://www.w3.org/2000/svg" width="256" height="256" viewBox="0 0 256 256" version="1.1">
	<path d="M 96.783 26.750 C 93.233 30.821, 92.962 32.394, 94.401 40.579 C 95.507 46.872, 94.601 47.199, 77.093 46.823 C 59.821 46.452, 58.119 45.795, 60.193 40.299 C 61.594 36.589, 60.117 34, 56.600 34 C 52.636 34, 50.302 36.598, 49.669 41.715 C 49.343 44.347, 48.787 48.543, 48.432 51.039 C 47.419 58.174, 48.059 58.404, 69.784 58.715 C 89.734 59.001, 92.328 59.674, 91.636 64.381 C 91.054 68.334, 87.731 68.918, 71 68.008 L 55.500 67.164 52.500 70.100 L 49.500 73.036 49.348 89.268 C 49.170 108.264, 49.953 111.247, 55.756 113.672 C 58.360 114.760, 61.274 115.057, 65.597 114.677 C 69.226 114.358, 72.159 114.559, 72.767 115.167 C 73.999 116.399, 67.465 128, 65.540 128 C 64.866 128, 63.241 130.088, 61.928 132.639 C 60.616 135.191, 57.095 139.353, 54.104 141.889 C 43.302 151.047, 41.839 152.744, 42.181 155.719 C 42.960 162.506, 56.406 158.052, 64.725 148.253 C 67.351 145.159, 70.570 141.474, 71.877 140.064 C 77.376 134.133, 82.510 126.202, 83.569 122 C 84.856 116.893, 87.397 115.038, 93.137 115.015 L 96.773 115 97.257 128.750 C 97.524 136.313, 98.298 144.075, 98.979 146 C 101.494 153.117, 103.578 156.457, 106.593 158.206 C 111.147 160.848, 124.753 162.336, 139.060 161.757 C 155.711 161.083, 160.018 158.940, 158.334 152.171 C 156.884 146.346, 149.807 140.495, 149.375 144.764 C 149.306 145.444, 149.194 146.378, 149.125 146.839 C 148.681 149.820, 137.066 150.727, 119.644 149.143 C 110.714 148.332, 108.512 146.688, 109.404 141.500 C 109.688 139.850, 109.592 133.871, 109.191 128.213 C 108.789 122.533, 108.859 117.217, 109.348 116.343 C 110.100 114.999, 111.573 114.865, 119.101 115.454 C 129.687 116.282, 138.323 115.369, 141.089 113.129 C 142.890 111.670, 143.136 110.119, 143.401 98.499 C 143.564 91.349, 144.215 84.233, 144.849 82.685 C 146.509 78.625, 146.232 74.859, 144.065 72.040 C 142.196 69.608, 141.964 69.576, 123.110 69.170 C 102.045 68.717, 100.769 68.341, 103.184 63.302 L 104.527 60.500 118.514 60.317 C 136.503 60.081, 142.301 59.337, 145.448 56.862 C 148.411 54.531, 148.543 53.566, 146.447 49.546 C 145.326 47.396, 145.085 45.169, 145.561 41.358 C 146.152 36.624, 145.970 35.879, 143.653 33.562 C 142.244 32.153, 140.150 31, 139 31 C 134.743 31, 129.938 38.608, 133 40.500 C 134.582 41.478, 134.163 45.724, 132.418 46.393 C 129.775 47.407, 106 47.071, 103.982 45.990 C 102.224 45.050, 102.195 44.700, 103.548 40.865 C 105.568 35.140, 105.361 30.728, 102.927 27.635 C 100.507 24.558, 98.898 24.326, 96.783 26.750 M 63.567 81.327 C 62.316 82.242, 61.908 83.318, 62.363 84.503 C 62.981 86.114, 63.976 86.230, 72.179 85.648 C 77.200 85.292, 83.519 85, 86.223 85 C 90.749 85, 91.114 84.822, 90.820 82.750 C 90.510 80.571, 90.106 80.491, 77.980 80.222 C 68.543 80.012, 64.993 80.284, 63.567 81.327 M 105.750 80.749 C 104.787 80.968, 104 81.789, 104 82.573 C 104 83.650, 105.655 84.044, 110.750 84.179 C 126.873 84.607, 134.847 83.771, 131.948 81.957 C 131.152 81.458, 125.750 81.120, 119.945 81.205 C 114.140 81.290, 108.965 81.132, 108.445 80.855 C 107.925 80.578, 106.713 80.531, 105.750 80.749 M 114.398 95.925 C 106.167 96.445, 102 97.783, 102 99.907 C 102 100.271, 103.369 101.378, 105.043 102.366 C 107.795 103.992, 108.966 104.054, 117.293 103.014 C 129.945 101.435, 130.693 101.242, 131.407 99.382 C 132.215 97.277, 129.289 95.018, 126 95.207 C 124.625 95.286, 119.404 95.609, 114.398 95.925 M 64.750 97.716 C 61.595 98.194, 61.120 100.459, 63.867 101.929 C 66.737 103.465, 91.167 103.516, 94.015 101.992 L 96.380 100.726 94.079 98.863 C 92.091 97.253, 90.132 97.020, 79.639 97.150 C 72.963 97.232, 66.263 97.487, 64.750 97.716 M 123.327 117.660 C 123.690 118.023, 123.088 118.951, 121.988 119.721 C 118.892 121.890, 117.144 126.140, 116.412 133.279 C 115.745 139.794, 115.753 139.821, 118.737 141.364 C 121.061 142.566, 122.539 142.690, 125.330 141.919 C 127.309 141.373, 129.173 140.529, 129.473 140.044 C 129.773 139.558, 134.289 139.416, 139.509 139.728 C 144.870 140.047, 148.990 139.904, 148.976 139.397 C 148.921 137.286, 142.342 125.498, 140.687 124.544 C 139.233 123.706, 138.477 123.994, 136.861 126 C 131.310 132.894, 130.813 133.314, 129.907 131.883 C 129.426 131.122, 128.517 127.912, 127.886 124.750 C 127.256 121.588, 126.322 119, 125.811 119 C 125.300 119, 125.160 118.550, 125.500 118 C 125.840 117.450, 125.341 117, 124.392 117 C 123.443 117, 122.964 117.297, 123.327 117.660" stroke="none" fill="black" fill-rule="evenodd"/>
</svg>