<svg xmlns="http://www.w3.org/2000/svg" width="256" height="256" viewBox="0 0 256 256" version="1.1">
	<path d="M 113 37.641 C 112.175 37.831, 97.325 38.393, 80 38.890 C 60.155 39.460, 47.295 40.239, 45.244 40.997 C 40.942 42.586, 39.889 46.334, 42.898 49.341 C 44.974 51.415, 45.917 51.503, 66.780 51.584 C 78.726 51.631, 89.304 51.743, 90.287 51.834 C 91.887 51.983, 92.016 52.810, 91.524 59.750 C 91.044 66.525, 89.715 109.483, 89.599 122 C 89.576 124.475, 89.769 128.952, 90.029 131.949 C 90.464 136.977, 90.307 137.497, 88 138.684 C 86.415 139.500, 81.476 139.976, 74.500 139.985 C 68.450 139.994, 60.125 140.619, 56 141.376 C 51.875 142.133, 45.826 142.834, 42.559 142.935 C 35.711 143.146, 35 143.435, 35 146.002 C 35 150.516, 48.717 155.392, 58.978 154.526 C 69.741 153.617, 82.114 153.141, 112.044 152.482 C 142.989 151.801, 154.481 150.779, 157.016 148.485 C 159.210 146.500, 158.403 141.296, 155.628 139.540 C 153.957 138.482, 148.270 138.260, 129.158 138.504 C 106.119 138.799, 104.711 138.711, 102.863 136.863 C 100.737 134.737, 100.791 131.273, 103.210 114.817 C 104.067 108.983, 104.042 104.048, 103.108 94.317 C 102.212 84.987, 102.166 80.034, 102.939 76.114 C 103.522 73.151, 104 66.522, 104 61.383 C 104 52.499, 104.111 52.015, 106.250 51.564 C 107.487 51.304, 118.275 50.796, 130.222 50.435 C 151.170 49.804, 152.035 49.697, 154.472 47.438 C 157.232 44.881, 157.508 43.467, 156.017 39.545 L 155.034 36.959 134.767 37.127 C 123.620 37.220, 113.825 37.451, 113 37.641 M 125.371 58.765 C 124.751 59.169, 123.021 63.325, 121.529 68 C 117.759 79.806, 116.157 83.984, 113.950 87.769 C 111.291 92.332, 108.996 101.816, 109.527 106.057 C 109.771 108.014, 110.551 111.290, 111.260 113.337 L 112.549 117.060 117.091 112.780 C 119.589 110.426, 123.102 106.342, 124.896 103.704 L 128.159 98.909 131.329 100.897 C 133.073 101.990, 136.384 103.773, 138.687 104.858 C 141.568 106.216, 143.499 108.057, 144.879 110.763 C 146.810 114.548, 150.710 118, 153.055 118 C 154.987 118, 157.932 113.629, 157.967 110.710 C 158.031 105.281, 150.430 93.579, 143.747 88.820 C 141.987 87.567, 138.512 86.305, 136.024 86.016 L 131.500 85.491 131.796 80.995 C 131.958 78.523, 132.746 74.572, 133.546 72.215 C 135.740 65.750, 135.422 62.477, 132.365 60.073 C 129.639 57.928, 127.322 57.495, 125.371 58.765 M 64.500 60.005 C 61.144 61.295, 57.949 66.744, 56.507 73.639 C 55.752 77.244, 54.481 80.937, 53.682 81.847 C 50.920 84.990, 45.150 97.520, 43.942 103 C 43.274 106.025, 41.890 110.170, 40.864 112.210 C 37.219 119.464, 39.152 127.595, 43.915 125.045 C 45.747 124.065, 54 112.990, 54 111.512 C 54 111.184, 55.814 108.459, 58.032 105.457 C 61.736 100.443, 65.258 98.465, 66.167 100.888 C 66.815 102.617, 79.524 110.571, 81.111 110.241 C 81.997 110.057, 83.180 108.901, 83.740 107.670 C 85.043 104.811, 84.637 97.712, 83.142 97.214 C 82.514 97.005, 82 95.955, 82 94.881 C 82 91.503, 78.999 88.165, 74.372 86.398 C 68.114 84.008, 67.565 82.489, 69.509 72.956 C 70.402 68.577, 70.848 64.095, 70.499 62.996 C 69.667 60.375, 66.998 59.045, 64.500 60.005" stroke="none" fill="black" fill-rule="evenodd"/>
</svg>