<svg xmlns="http://www.w3.org/2000/svg" width="256" height="256" viewBox="0 0 256 256" version="1.1">
	<path d="M 95.906 26.747 C 95.331 28.258, 95.118 30.508, 95.431 31.747 C 97.357 39.368, 97.737 38.661, 91.340 39.349 C 88.128 39.694, 76.697 39.921, 65.938 39.853 C 52.906 39.770, 45.660 40.112, 44.232 40.876 C 41.251 42.471, 40.022 47.816, 39.948 59.500 C 39.913 65, 39.461 74.675, 38.943 81 C 38.425 87.325, 37.384 102.400, 36.630 114.500 C 35.512 132.424, 34.863 137.480, 33.129 141.787 C 30.618 148.023, 30.380 154.670, 32.557 157.777 C 36.235 163.028, 40.919 159.112, 44.548 147.752 C 47.227 139.368, 48.094 132.423, 50.012 104 C 50.588 95.475, 51.517 84.450, 52.077 79.500 C 52.638 74.550, 53.200 67.022, 53.327 62.771 C 53.454 58.520, 54.004 54.596, 54.549 54.051 C 55.171 53.429, 72.671 53.010, 101.520 52.925 C 126.809 52.852, 149.138 52.384, 151.141 51.886 C 157.945 50.196, 159.890 43.089, 154.164 40.838 C 152.573 40.212, 142.644 39.818, 129.500 39.860 C 117.400 39.898, 106.873 39.541, 106.106 39.066 C 105.110 38.450, 104.889 37.097, 105.332 34.327 C 106.610 26.333, 98.533 19.838, 95.906 26.747 M 120.358 59.923 C 118.630 60.352, 115.652 61.670, 113.740 62.852 C 111.828 64.033, 109.290 65, 108.100 65 C 106.790 65, 105.578 65.888, 105.031 67.250 C 104.338 68.974, 104.112 69.091, 104.063 67.750 C 104.025 66.688, 103.214 66, 102 66 C 100.428 66, 100 66.667, 100 69.117 C 100 71.751, 100.312 72.152, 102.020 71.705 C 103.131 71.414, 105.719 71.777, 107.770 72.511 C 109.822 73.245, 113.660 74.395, 116.300 75.067 L 121.101 76.288 120.800 80.394 L 120.500 84.500 113.500 84.236 L 106.500 83.972 101.654 88.384 L 96.808 92.797 93.154 90.981 C 91.144 89.982, 88.666 88.899, 87.646 88.574 C 86.462 88.197, 86.011 87.414, 86.398 86.406 C 86.730 85.539, 87.280 82.281, 87.619 79.165 C 87.958 76.049, 88.858 72.503, 89.618 71.285 C 91.486 68.291, 91.356 65.633, 89.248 63.725 C 86.052 60.832, 82.571 60.187, 73.832 60.866 C 66.603 61.429, 64.860 61.919, 62.651 64.016 C 57.333 69.065, 60.076 73.273, 69.157 73.996 C 74.256 74.402, 75.548 74.854, 75.829 76.329 C 76.395 79.305, 75.233 82.432, 72.091 86.386 C 68.458 90.957, 67.349 95.415, 69.052 98.597 C 70.131 100.614, 71.029 100.941, 75.225 100.846 C 77.926 100.785, 80.619 101.219, 81.209 101.809 C 83.344 103.944, 77.912 123, 75.169 123 C 74.734 123, 73.777 120.638, 73.042 117.750 C 71.271 110.789, 69.948 108, 68.416 108 C 65.954 108, 61 113.122, 61 115.668 C 61 118.237, 65.572 130.764, 67.125 132.450 C 67.606 132.973, 68 134.607, 68 136.081 C 68 138.694, 63.897 142.781, 58.516 145.530 C 57.194 146.205, 56.500 147.559, 56.500 149.464 C 56.500 152.108, 56.943 152.482, 61.426 153.626 C 66.785 154.993, 68.222 154.598, 73.327 150.351 C 76.817 147.448, 81.508 147.308, 87.261 149.936 C 101.141 156.276, 108.764 157.491, 129.812 156.718 C 151.240 155.931, 155.830 154.239, 154.582 147.587 L 153.909 144 145.205 143.798 C 140.417 143.687, 135.150 143.645, 133.500 143.704 C 112.849 144.449, 110.962 144.293, 101 141.014 C 97.975 140.019, 93.744 138.821, 91.598 138.352 C 86.259 137.186, 84.965 134.900, 87.603 131.291 C 88.999 129.381, 90.195 124.871, 91.393 117 C 93.306 104.430, 94.624 99.960, 96.811 98.633 C 98.014 97.904, 98.023 97.619, 96.870 96.833 C 95.988 96.232, 97.458 96.109, 101 96.488 C 104.025 96.811, 109.650 97.324, 113.500 97.627 C 117.350 97.931, 121.014 98.603, 121.641 99.122 C 123.222 100.428, 124.055 107.691, 123.176 112.500 L 122.444 116.500 116.972 116.610 C 107.239 116.806, 106.167 116.976, 104.571 118.571 C 102.259 120.883, 102.603 124.716, 105.250 126.142 C 111.785 129.664, 120.338 130.896, 134.873 130.407 C 152.043 129.830, 156 128.644, 156 124.074 C 156 120.116, 153.199 118.356, 145.500 117.475 C 136.486 116.443, 135.522 115.519, 135.165 107.564 C 134.767 98.709, 135.610 97.743, 143.005 98.580 C 150.015 99.373, 153.006 98.065, 152.985 94.215 C 152.976 92.722, 152.639 91.011, 152.235 90.414 C 151.131 88.783, 145.199 87, 140.874 87 C 136.610 87, 134.717 84.998, 133.510 79.209 C 132.425 74.009, 134.955 71, 140.415 71 C 144.311 71, 144.855 70.713, 145.451 68.338 C 146.438 64.405, 143.542 62.068, 136.420 61.050 C 133.164 60.584, 128.925 59.965, 127 59.674 C 125.075 59.382, 122.086 59.495, 120.358 59.923" stroke="none" fill="black" fill-rule="evenodd"/>
</svg>