<svg xmlns="http://www.w3.org/2000/svg" width="256" height="256" viewBox="0 0 256 256" version="1.1">
	<path d="M 40.738 36.871 C 34.950 37.750, 32.502 39.879, 33.358 43.289 C 34.293 47.015, 39.035 48.467, 50 48.386 C 55.594 48.344, 59.782 48.746, 60.186 49.362 C 60.563 49.938, 60.255 51.555, 59.502 52.955 C 58.750 54.355, 57.002 57.975, 55.620 61 C 54.070 64.390, 50.167 69.570, 45.447 74.500 C 36.926 83.400, 34.547 87.659, 35.548 92.219 C 36.037 94.444, 35.509 96.616, 33.530 100.528 C 31.967 103.618, 30.986 107.007, 31.175 108.662 C 31.447 111.035, 32.238 111.746, 36 113 C 43.260 115.420, 45.047 117.389, 46.435 124.500 C 46.757 126.150, 47.246 128.488, 47.520 129.695 C 47.855 131.167, 47.196 132.713, 45.520 134.389 C 43.004 136.906, 42.970 137.973, 45.260 142.750 C 46.944 146.264, 50.459 145.660, 52.424 141.518 C 53.333 139.603, 53.947 137.760, 53.788 137.423 C 53.323 136.433, 60.283 133.088, 62.906 133.042 C 64.229 133.019, 66.704 134.061, 68.406 135.358 C 72.301 138.327, 82.876 144, 84.515 144 C 85.193 144, 87.731 145.108, 90.154 146.463 C 98.724 151.252, 109.480 152.985, 130.685 152.993 C 141.237 152.997, 151.046 152.553, 152.483 152.006 C 154.050 151.411, 155.699 149.571, 156.601 147.412 C 157.952 144.180, 157.944 143.564, 156.530 141.405 L 154.954 139 131.223 139 L 107.493 139 100.497 135.632 C 96.648 133.779, 91.700 131.688, 89.500 130.986 C 87.300 130.283, 82.238 128.312, 78.251 126.604 C 71.462 123.697, 71.002 123.302, 71.001 120.376 C 71 116.118, 73.511 109.330, 76.573 105.316 C 80.693 99.914, 81.455 96.565, 79.971 90.380 C 79.070 86.624, 78.966 83.982, 79.630 81.735 C 80.157 79.956, 80.340 77.150, 80.037 75.500 C 79.472 72.421, 79.111 72.250, 69.193 70.371 C 67.325 70.017, 67.020 69.512, 67.589 67.717 C 68.250 65.635, 72.934 55.831, 78.672 44.520 C 81.975 38.010, 81.079 36.395, 74.382 36.784 C 64.223 37.373, 59.289 37.370, 52.500 36.768 C 48.650 36.427, 43.357 36.473, 40.738 36.871 M 135.500 38.047 C 129.450 39.050, 122.007 39.899, 118.960 39.935 C 112.675 40.009, 102.605 42.379, 99.250 44.574 C 96.575 46.324, 96.212 51.069, 98.571 53.429 C 100.580 55.437, 106.495 55.445, 114.193 53.450 C 122.379 51.329, 123.030 51.995, 122.609 62.075 C 122.429 66.410, 121.766 70.577, 121.136 71.336 C 120.419 72.200, 116.952 72.923, 111.847 73.273 C 105.999 73.674, 102.970 74.378, 101.102 75.772 C 93.977 81.085, 100.723 85.982, 115.183 85.994 C 120.974 85.999, 121.949 86.265, 122.497 87.991 C 122.845 89.086, 122.887 90.374, 122.591 90.852 C 122.296 91.331, 121.987 95.374, 121.906 99.839 C 121.812 105.043, 121.300 108.336, 120.481 109.015 C 119.654 109.702, 114.681 109.895, 106.352 109.563 C 91.524 108.972, 88.657 109.757, 88.239 114.523 C 88.096 116.160, 88.384 118.121, 88.878 118.879 C 89.411 119.696, 95.225 121.247, 103.139 122.682 C 114.605 124.761, 117.493 124.960, 123.500 124.088 C 127.350 123.529, 135.512 122.844, 141.637 122.566 C 152.566 122.069, 157.987 120.753, 158.014 118.589 C 158.021 117.990, 158.268 116.600, 158.562 115.500 C 158.855 114.400, 158.436 112.600, 157.629 111.500 C 156.365 109.776, 154.667 109.431, 145.331 109 L 134.500 108.500 134.214 98.752 C 134.056 93.390, 134.384 88.151, 134.942 87.108 C 135.757 85.586, 137.590 85.070, 144.228 84.492 C 154.851 83.567, 156 82.940, 156 78.072 C 156 73.213, 155.046 72.753, 143.500 72.049 L 134.500 71.500 134.370 62.630 C 134.206 51.330, 135.091 50.200, 144.110 50.200 C 149.414 50.200, 150.705 49.848, 152.210 47.989 C 154.290 45.420, 154.543 41.093, 152.750 38.746 C 150.815 36.213, 147.403 36.074, 135.500 38.047 M 54.155 84.312 C 47.292 86.429, 41.945 94.777, 45.696 97.520 C 46.679 98.239, 47.949 100.737, 48.517 103.070 C 49.085 105.404, 50.214 107.623, 51.025 108.001 C 51.836 108.380, 53.506 109.209, 54.736 109.845 C 57.844 111.450, 58.995 111.291, 59.031 109.250 C 59.048 108.287, 60.169 105.250, 61.522 102.500 C 64.236 96.984, 64.462 94.198, 62.612 89.081 C 60.927 84.419, 58.410 83, 54.155 84.312" stroke="none" fill="black" fill-rule="evenodd"/>
</svg>