<svg xmlns="http://www.w3.org/2000/svg" width="256" height="256" viewBox="0 0 256 256" version="1.1">
	<path d="M 48.278 38.250 C 45.911 41.309, 46.028 43.182, 48.758 45.912 C 51.372 48.526, 52.177 48.709, 64.506 49.494 C 71.653 49.949, 79.880 50.401, 82.788 50.499 C 85.697 50.596, 88.541 51.141, 89.108 51.708 C 89.806 52.406, 89.827 54.996, 89.173 59.718 C 88.641 63.556, 88.446 69.690, 88.740 73.348 L 89.274 80 77.387 80.092 C 53.376 80.278, 42.436 80.788, 39.778 81.846 C 34.173 84.076, 35.199 92.428, 41.204 93.456 C 43.017 93.767, 54.850 94.128, 67.500 94.260 C 89.863 94.493, 90.492 94.555, 90.208 96.500 C 89.459 101.635, 90.130 127.044, 91.132 131.500 C 93.899 143.801, 95.094 147.015, 97.477 148.577 C 100.442 150.520, 103.803 149.657, 104.928 146.664 C 105.409 145.383, 105.129 141.235, 104.240 136.500 C 102.157 125.402, 101.093 96.161, 102.723 94.812 C 104.064 93.702, 118.501 93.623, 138.079 94.617 C 148.852 95.165, 151.185 95.006, 154.329 93.514 C 159.872 90.884, 159.006 85.140, 152.758 83.093 C 149.673 82.082, 145.696 81.778, 114.500 80.170 L 101.500 79.500 101.651 66.721 C 101.740 59.210, 102.251 53.402, 102.891 52.631 C 103.719 51.633, 108.790 51.305, 124.122 51.255 C 144.177 51.190, 144.275 51.179, 146.738 48.716 C 148.525 46.929, 149.023 45.647, 148.530 44.095 C 147.029 39.364, 146.029 39.239, 100.500 38.083 C 47.573 36.739, 49.451 36.733, 48.278 38.250" stroke="none" fill="black" fill-rule="evenodd"/>
</svg>