<svg xmlns="http://www.w3.org/2000/svg" width="256" height="256" viewBox="0 0 256 256" version="1.1">
	<path d="M 127.313 24.786 C 124.814 26.374, 124.051 30.738, 125.261 36.509 C 126.573 42.762, 125.872 43.956, 120.872 43.985 C 117.203 44.006, 115.746 41.873, 116.540 37.641 C 117.485 32.603, 115.449 27.151, 112.331 26.368 C 107.006 25.032, 104.127 31.945, 106.935 39.328 C 107.838 41.703, 107.639 42.135, 105.021 43.489 C 101.543 45.288, 98.442 45.399, 94.088 43.881 C 91.696 43.047, 91.049 42.346, 91.552 41.131 C 92.998 37.636, 93.203 35.895, 92.567 32.504 C 91.733 28.062, 88.082 25.350, 85.090 26.952 C 81.540 28.852, 80.920 31.265, 82.472 37.135 C 83.751 41.973, 83.730 42.623, 82.254 43.750 C 80.019 45.458, 72.911 45.326, 70.346 43.530 C 68.474 42.219, 68.342 41.551, 69.126 37.357 C 70.612 29.399, 66.183 25.386, 61.120 30.103 C 59.266 31.830, 58.910 33.099, 59.128 37.203 C 59.461 43.478, 58.001 44.485, 49 44.184 C 42.053 43.952, 38.600 45.154, 36.340 48.593 C 35.128 50.438, 35.221 51.011, 37.128 53.435 C 38.958 55.762, 39.806 56.094, 42.645 55.592 C 53.231 53.723, 52.957 53.724, 53.660 55.557 C 54.080 56.650, 53.283 59.352, 51.585 62.595 C 50.069 65.490, 48.589 69.644, 48.297 71.825 C 47.552 77.379, 50.336 78.218, 56.596 74.326 C 60.148 72.117, 61.781 70.142, 64.074 65.283 C 65.688 61.864, 67.877 58.601, 68.938 58.033 C 71.924 56.435, 79.624 56.767, 81.429 58.571 C 82.293 59.436, 83 60.253, 83 60.388 C 83 60.522, 82.529 63.181, 81.953 66.295 C 81.230 70.209, 81.227 72.555, 81.944 73.895 C 84.786 79.207, 106.617 81.226, 113.750 76.837 C 116.938 74.875, 117 74.697, 117 67.529 C 117 58.725, 118.945 55.268, 123.286 56.357 C 126.253 57.102, 127.985 61.596, 127.994 68.576 C 128.003 74.713, 130.556 76.464, 141.500 77.838 C 146.450 78.459, 151.400 79.133, 152.500 79.335 C 157.092 80.178, 161.248 74.200, 158.995 69.991 C 157.722 67.612, 154.312 66.634, 147.022 66.557 C 142.026 66.505, 141.425 66.252, 140.183 63.676 C 139.433 62.123, 139.081 59.814, 139.399 58.546 C 140.060 55.912, 142.497 55.033, 149.194 55.014 C 155.540 54.995, 159.615 51.747, 158.144 47.880 C 156.812 44.376, 154.975 43.701, 145 43.053 L 136.500 42.500 136 35.662 C 135.566 29.729, 135.129 28.506, 132.694 26.412 C 129.659 23.802, 129.117 23.639, 127.313 24.786 M 96.250 56.989 C 92.509 59.270, 92.170 61.170, 95 64 C 98.762 67.762, 106 65.741, 106 60.929 C 106 58.763, 102.664 54.998, 100.750 55.004 C 100.063 55.006, 98.037 55.899, 96.250 56.989 M 45.183 84.235 C 39.662 85.661, 38.678 87.922, 39.270 97.826 C 39.562 102.711, 40.370 107.620, 41.067 108.735 C 41.763 109.851, 44.263 111.701, 46.620 112.846 C 53.564 116.220, 54.488 118.502, 54.562 132.455 C 54.628 144.850, 55.223 147.275, 59.299 151.750 C 63.733 156.618, 66.720 152.895, 67.600 141.402 C 68.069 135.277, 67.839 132.550, 66.605 129.596 C 65.722 127.484, 65 124.438, 65 122.827 C 65 120.424, 65.629 119.635, 68.506 118.433 C 72.141 116.914, 86.942 116.728, 89.278 118.172 C 90.064 118.658, 90.370 121.229, 90.174 125.705 C 89.807 134.091, 92.314 150.023, 94.533 153.409 C 96.943 157.088, 99.983 157.740, 102.164 155.046 C 103.736 153.104, 103.888 151.368, 103.416 140.669 C 102.549 121.011, 102.564 120.230, 103.844 118.688 C 104.848 117.479, 107.350 117.306, 117.784 117.728 C 124.778 118.010, 130.889 118.599, 131.365 119.036 C 132.743 120.301, 129.017 129.231, 125.852 132.250 C 124.266 133.762, 122.165 135, 121.184 135 C 118.407 135, 114.016 137.353, 114.008 138.846 C 113.992 141.638, 117.479 145.912, 121.108 147.549 C 125.604 149.576, 132.690 148.881, 136.159 146.072 C 140.134 142.853, 142.435 127.243, 139.790 121.438 C 138.743 119.141, 138.837 118.592, 140.481 117.390 C 141.527 116.626, 144.343 116, 146.739 116 C 154.674 116, 157.984 109.917, 157.994 95.321 C 158.001 86.056, 156.909 84.078, 151.679 83.879 C 137.948 83.355, 47.420 83.657, 45.183 84.235 M 124.727 96.606 C 124.393 96.940, 108.681 97.170, 89.810 97.117 C 70.940 97.064, 54.038 97.291, 52.250 97.622 C 49.756 98.083, 49 98.732, 49 100.411 C 49 104.700, 50.392 105, 70.267 105 C 88.851 105, 89.183 104.963, 92.411 102.500 C 96.454 99.417, 97.490 99.393, 100.956 102.310 C 103.585 104.522, 104.475 104.627, 121.940 104.797 C 140.713 104.980, 143.083 104.581, 145.046 100.913 C 147.089 97.097, 144.743 96, 134.544 96 C 129.478 96, 125.060 96.273, 124.727 96.606" stroke="none" fill="black" fill-rule="evenodd"/>
</svg>