<svg xmlns="http://www.w3.org/2000/svg" width="256" height="256" viewBox="0 0 256 256" version="1.1">
	<path d="M 63.243 30.721 C 57.953 33.610, 51.567 39.135, 47.920 43.977 C 46.046 46.465, 44.282 48.725, 44.001 49 C 39.708 53.192, 30 71.226, 30 75.009 C 30 78.093, 32.548 79.648, 35.750 78.517 C 37.713 77.823, 49.268 63.894, 52.789 57.976 C 54.049 55.860, 57.649 51.803, 60.789 48.960 C 67.772 42.639, 73.005 36.267, 72.985 34.109 C 72.943 29.729, 68.127 28.054, 63.243 30.721 M 144.833 31.500 C 144.558 31.775, 133.024 32.017, 119.201 32.037 C 89.125 32.081, 90.337 31.624, 91.610 42.433 C 92.659 51.351, 92.349 69.075, 91.062 73.738 C 89.690 78.707, 91.006 80.501, 97.532 82.554 C 102.466 84.106, 105.713 84.225, 126.112 83.604 C 138.769 83.218, 150.160 82.509, 151.426 82.028 C 152.692 81.547, 154.034 80.354, 154.409 79.378 C 155.131 77.495, 156.500 52.156, 156.500 40.668 C 156.500 35.059, 156.153 33.583, 154.559 32.418 C 152.718 31.073, 145.903 30.430, 144.833 31.500 M 104.750 45.080 C 103.787 45.641, 103 46.736, 103 47.515 C 103 48.293, 103.787 49.350, 104.750 49.863 C 106.891 51.004, 142.553 51.780, 143.625 50.709 C 144.867 49.466, 144.968 46.667, 143.821 45.284 C 142.489 43.679, 107.469 43.496, 104.750 45.080 M 65.292 57.750 C 60.898 62.095, 55.279 69.906, 52.779 75.144 C 51.822 77.148, 49.486 80.298, 47.589 82.144 C 35.028 94.362, 31.646 97.904, 29.284 101.312 L 26.625 105.148 28.483 108.598 C 30.730 112.770, 33.531 113.641, 38.298 111.649 C 41.050 110.499, 42.366 109.033, 43.975 105.326 C 47.270 97.729, 47.479 97.500, 51.109 97.500 L 54.500 97.500 54.641 105 C 55.445 147.718, 57.369 159.658, 63.312 158.811 C 67.412 158.228, 68.280 152.729, 67.943 129.500 C 67.525 100.771, 67.553 100.112, 69.509 92.351 C 70.744 87.449, 71.068 83.488, 70.646 78.429 C 70.081 71.661, 70.182 71.210, 72.987 67.929 C 74.914 65.675, 75.933 63.363, 75.959 61.184 C 76.057 53.227, 71.386 51.724, 65.292 57.750 M 138.747 62.586 C 138.425 62.908, 131.038 63.261, 122.331 63.370 C 105.676 63.578, 102 64.415, 102 68 C 102 71.683, 105.139 72.179, 123.815 71.442 C 133.542 71.058, 142.063 70.297, 142.750 69.750 C 144.549 68.318, 144.288 65.571, 142.171 63.655 C 140.187 61.860, 139.644 61.690, 138.747 62.586 M 110 90.124 C 103.125 90.487, 96.289 91.105, 94.810 91.497 C 91.002 92.506, 88.792 95.316, 89.175 98.662 L 89.500 101.500 110.725 101.770 C 130.215 102.018, 132.032 102.191, 132.943 103.894 C 133.692 105.293, 133.499 106.144, 132.155 107.359 C 130.661 108.712, 126.715 109.041, 107.594 109.412 C 95.064 109.655, 84.657 110.010, 84.467 110.200 C 84.277 110.390, 83.893 111.804, 83.614 113.343 C 82.956 116.975, 84.683 120.680, 87.372 121.402 C 88.542 121.716, 98.789 121.979, 110.143 121.986 C 133.420 122.002, 132.442 121.641, 131.486 129.865 C 130.427 138.973, 129.935 140.749, 127.980 142.518 C 125.993 144.316, 125.213 149, 126.901 149 C 127.397 149, 128.723 150.560, 129.848 152.468 C 132.398 156.789, 136.243 157.995, 139.133 155.380 C 142.696 152.155, 143.164 150.126, 143.334 137.159 C 143.425 130.196, 143.864 123.938, 144.309 123.250 C 144.817 122.466, 147.490 122, 151.486 122 C 157.175 122, 158.076 121.719, 159.927 119.365 C 162.546 116.037, 162.519 115.161, 159.695 111.632 C 157.645 109.070, 156.662 108.721, 150.478 108.360 C 143.076 107.928, 141.613 107.239, 142.156 104.440 C 142.394 103.216, 144.344 102.178, 148.463 101.084 C 152.948 99.893, 154.793 98.847, 155.904 96.865 C 157.222 94.514, 157.205 93.962, 155.749 91.740 C 154.118 89.251, 154.104 89.249, 138.308 89.356 C 129.614 89.415, 116.875 89.761, 110 90.124 M 99.412 129.765 C 98.814 130.169, 98.077 131.481, 97.774 132.681 C 96.881 136.219, 100.989 139.252, 107.393 139.783 C 112.320 140.191, 112.950 140.006, 114.462 137.699 C 117.468 133.111, 112.832 128.986, 104.703 129.015 C 102.391 129.024, 100.011 129.361, 99.412 129.765" stroke="none" fill="black" fill-rule="evenodd"/>
</svg>