<svg xmlns="http://www.w3.org/2000/svg" width="256" height="256" viewBox="0 0 256 256" version="1.1">
	<path d="M 93.035 24.934 C 92.466 25.998, 92 28.643, 92 30.812 C 92 36.907, 91.127 37.189, 75.871 36.025 C 50.870 34.118, 46.666 34.800, 47.772 40.586 C 48.549 44.650, 51.979 46.069, 63.630 47.149 C 69.542 47.696, 75.698 48.827, 77.310 49.660 C 80.047 51.075, 80.206 51.478, 79.724 55.755 C 79.142 60.924, 77.096 63.010, 70.548 65.114 C 68.322 65.829, 64.475 67.406, 62 68.619 C 59.525 69.832, 54.990 71.548, 51.923 72.433 C 47.931 73.584, 45.696 74.920, 44.061 77.132 C 41.905 80.048, 41.816 80.792, 42.481 90.361 C 44.233 115.576, 44.098 118.782, 40.552 136 C 37.290 151.834, 37.555 158, 41.495 158 C 43.898 158, 47.744 152.974, 49.840 147.093 C 54.088 135.178, 55.360 126.246, 55.535 107.116 C 55.701 88.986, 55.737 88.707, 58.102 86.888 C 61.130 84.560, 62.433 84.564, 71.833 86.929 C 76.050 87.990, 84.148 89.312, 89.830 89.866 C 109.825 91.818, 110.149 97.758, 90.270 97.942 C 82.303 98.016, 76.393 100.296, 75.560 103.618 C 75.218 104.979, 75.205 106.522, 75.530 107.049 C 76.607 108.791, 84.835 112, 88.195 111.988 C 93.506 111.969, 101.894 109.346, 106.212 106.353 C 110.015 103.717, 110.189 103.370, 109.732 99.318 C 109.227 94.831, 110.766 93.206, 114.253 94.544 C 115.098 94.868, 118.368 93.757, 121.520 92.075 C 126.133 89.613, 127.993 89.135, 131.055 89.625 C 133.148 89.959, 137.144 89.685, 139.936 89.015 C 143.956 88.051, 145.138 87.298, 145.615 85.399 C 147.146 79.297, 144.695 77.215, 132.921 74.617 C 131.503 74.304, 129.864 72.997, 129.279 71.713 C 128.637 70.303, 126.047 68.442, 122.746 67.017 C 118.237 65.070, 117.057 64.028, 116.019 61.078 C 115.327 59.110, 113.838 56.489, 112.710 55.254 C 111.582 54.019, 110.861 52.806, 111.108 52.558 C 111.995 51.672, 125.681 49.868, 134.975 49.413 C 140.187 49.158, 144.832 48.568, 145.298 48.102 C 145.764 47.636, 146 45.738, 145.823 43.884 C 145.295 38.376, 142.422 37.579, 121 37 L 102.500 36.500 102.226 32 C 101.839 25.640, 100.267 23, 96.866 23 C 95.125 23, 93.680 23.730, 93.035 24.934 M 88.883 50.017 C 83.041 51.424, 95.897 54.507, 102.412 53.262 C 103.835 52.989, 105 52.181, 105 51.465 C 105 50.084, 93.060 49.011, 88.883 50.017 M 92.020 67.272 C 90.656 67.969, 88.985 69.652, 88.307 71.011 C 87.206 73.220, 87.322 73.613, 89.398 74.701 C 92.373 76.259, 106.764 76.636, 108.207 75.193 C 109.640 73.760, 107.406 68.236, 105.142 67.617 C 100.231 66.274, 94.278 66.117, 92.020 67.272 M 114.675 107.980 C 112.559 109.838, 109.253 111.396, 105.900 112.115 C 102.941 112.750, 99.567 113.893, 98.402 114.656 C 97.238 115.419, 93.299 116.403, 89.648 116.842 C 84.849 117.420, 82.333 118.278, 80.562 119.942 C 78.203 122.158, 78.175 122.340, 79.782 124.871 C 83.330 130.458, 87.844 131.466, 97.722 128.879 C 101.788 127.814, 106.770 126.055, 108.793 124.971 C 110.815 123.887, 113.179 123, 114.044 123 C 114.910 123, 116.491 122.339, 117.559 121.532 C 120.731 119.132, 125.491 119.588, 126.779 122.415 C 127.698 124.432, 127.517 125.252, 125.677 127.392 C 124.466 128.802, 121.906 130.243, 119.987 130.596 C 116.774 131.186, 110.307 134.792, 107.203 137.725 C 105.999 138.863, 102.281 140.714, 97.500 142.557 C 96.400 142.980, 93.926 143.520, 92.002 143.755 C 90.079 143.990, 88.279 144.522, 88.002 144.937 C 87.726 145.353, 86.251 145.998, 84.725 146.371 C 83.198 146.745, 81.061 147.939, 79.975 149.025 C 74.747 154.253, 80.826 160.739, 89.724 159.426 C 96.745 158.389, 109.069 154.539, 113.977 151.849 C 116.334 150.557, 119.441 148.888, 120.881 148.141 C 128.476 144.200, 130.754 141.994, 134.271 135.177 C 138.800 126.398, 138.581 122.130, 133.446 119.101 C 130.672 117.464, 130.034 116.383, 129.447 112.327 C 128.527 105.977, 127.589 105, 122.412 105 C 119.019 105, 117.327 105.652, 114.675 107.980" stroke="none" fill="black" fill-rule="evenodd"/>
</svg>