<svg xmlns="http://www.w3.org/2000/svg" width="256" height="256" viewBox="0 0 256 256" version="1.1">
	<path d="M 118.077 25.407 C 117.434 26.181, 116.207 30.344, 115.350 34.657 C 113.112 45.910, 112.753 46.154, 98.177 46.343 C 88.005 46.475, 85.824 46.231, 84.383 44.800 C 83.009 43.435, 82.913 42.810, 83.895 41.626 C 85.283 39.954, 84.539 34.095, 82.403 29.871 C 80.205 25.524, 75.747 24.724, 72.189 28.039 C 69.418 30.620, 69.338 35.480, 72 39.500 C 76.034 45.591, 74.409 47.524, 64.009 48.999 C 52.538 50.626, 46.417 55.490, 51.085 59.270 C 53.041 60.854, 54.788 60.995, 66.397 60.503 C 73.603 60.198, 82.272 59.727, 85.660 59.456 C 93.015 58.867, 95 60.226, 95 65.849 C 95 71.761, 92.742 74.083, 87.175 73.894 C 84.604 73.807, 78.527 74.089, 73.672 74.522 C 65.900 75.214, 64.387 75.678, 61.025 78.404 C 56.206 82.312, 55.008 84.865, 51.496 98.721 C 49.159 107.942, 48.858 110.392, 49.805 112.471 C 51.195 115.522, 52.950 115.627, 64.536 113.351 C 70.571 112.165, 74.112 111.954, 77.135 112.601 C 81.989 113.639, 83.199 115.575, 79.831 116.916 C 78.549 117.427, 75.321 119.674, 72.658 121.909 C 69.994 124.144, 66.057 126.446, 63.908 127.025 C 61.758 127.604, 60 128.583, 60 129.201 C 60 129.819, 58.685 132.389, 57.077 134.912 C 53.953 139.815, 52.436 145.715, 53.779 147.735 C 54.230 148.414, 55.927 149.235, 57.550 149.558 C 60.173 150.081, 61.012 149.552, 65.119 144.792 C 68.714 140.624, 71.423 138.691, 77.340 136.071 C 83.706 133.252, 85.111 132.195, 85.977 129.569 C 87.398 125.266, 90.194 122.911, 91.819 124.651 C 94.269 127.274, 95.164 131.571, 94.566 137.853 C 94.060 143.186, 94.318 144.917, 96.173 148.632 C 98.951 154.195, 102.412 155.444, 105.270 151.915 C 106.885 149.920, 107.104 148.544, 106.603 143.514 C 104.908 126.511, 104.722 115.476, 106.111 114.365 C 106.875 113.754, 110.875 112.972, 115 112.628 C 119.125 112.283, 125.964 111.477, 130.199 110.836 C 136.382 109.899, 138.205 109.925, 139.461 110.968 C 140.457 111.794, 140.693 112.671, 140.110 113.383 C 139.607 113.997, 138.710 116.315, 138.118 118.533 C 136.549 124.402, 132.415 129, 128.706 129 C 125.236 129, 118.654 134.987, 119.181 137.664 C 119.828 140.948, 126.245 144.902, 132.025 145.577 C 137.179 146.179, 137.761 146.025, 140.688 143.291 C 142.591 141.514, 144.263 138.617, 144.936 135.930 C 145.546 133.494, 146.472 130.740, 146.993 129.811 C 148.243 127.583, 151.975 113.856, 153.108 107.322 C 153.680 104.022, 153.639 101.181, 152.996 99.488 L 151.986 96.833 142.743 97.489 C 129.677 98.415, 113.190 99.943, 108.596 100.652 L 104.691 101.255 105.301 96.104 C 105.637 93.270, 106.183 90.513, 106.515 89.976 C 106.847 89.439, 109.967 89, 113.449 89 C 121.006 89, 138.476 85.573, 141.705 83.457 C 143.613 82.207, 144 81.073, 144.001 76.727 C 144.002 73.852, 144.652 67.809, 145.446 63.298 C 146.896 55.060, 146.612 48.627, 144.690 46.191 C 143.983 45.295, 141.263 44.923, 136.079 45.012 C 131.910 45.083, 127.876 45.109, 127.112 45.071 C 125.999 45.014, 125.884 43.863, 126.531 39.250 C 127.593 31.675, 127.402 27.189, 125.944 25.432 C 124.419 23.596, 119.593 23.580, 118.077 25.407 M 115.784 59.886 C 107.560 60.638, 105.667 62.209, 105.667 68.278 C 105.667 75.094, 105.768 75.144, 118.318 74.561 C 132.230 73.915, 133.220 73.276, 132.799 65.218 L 132.500 59.500 127.500 59.386 C 124.750 59.323, 119.478 59.548, 115.784 59.886 M 68.357 86.992 C 64.744 88.449, 63.023 91.766, 64.170 95.058 C 64.718 96.631, 65.917 98.136, 66.834 98.401 C 67.750 98.667, 73.810 99.012, 80.301 99.169 C 93.504 99.487, 93.958 99.275, 93.985 92.769 C 94.002 88.614, 94.834 89.015, 82.231 87.103 C 73.792 85.822, 71.304 85.802, 68.357 86.992" stroke="none" fill="black" fill-rule="evenodd"/>
</svg>