<svg xmlns="http://www.w3.org/2000/svg" width="256" height="256" viewBox="0 0 256 256" version="1.1">
	<path d="M 57.310 34.890 C 51.834 38.857, 37.594 54.915, 34.941 60.115 C 33.746 62.458, 32.145 64.997, 31.384 65.759 C 29.684 67.459, 29.556 75.156, 31.200 76.800 C 33.480 79.080, 36.680 78.109, 39.601 74.250 C 41.162 72.188, 43.291 69.600, 44.331 68.500 C 45.371 67.400, 48.056 64.025, 50.298 61 C 55.584 53.867, 63.097 46, 64.624 46 C 66.746 46, 71 39.969, 71 36.958 C 71 31.376, 63.687 30.271, 57.310 34.890 M 100.618 34.194 C 98.614 35.315, 91.509 47.547, 90.565 51.500 C 90.171 53.150, 88.606 56.525, 87.088 59 C 84.217 63.681, 82.844 68.430, 83.710 70.687 C 84.026 71.509, 85.948 72.001, 88.857 72.004 C 91.758 72.006, 94.750 72.770, 96.832 74.039 C 99.936 75.931, 100.119 76.336, 99.509 79.944 C 99.054 82.639, 99.349 84.774, 100.478 86.957 C 102.253 90.391, 102.269 100.935, 100.500 102.235 C 99.950 102.639, 100.862 102.976, 102.527 102.985 C 104.193 102.993, 106.529 103.682, 107.720 104.516 C 109.583 105.821, 109.742 106.440, 108.865 108.957 C 107.395 113.175, 103.212 117.035, 100.637 116.551 C 99.462 116.330, 97.518 116.115, 96.317 116.074 C 95.056 116.031, 93.867 115.156, 93.500 114 C 93.097 112.729, 91.987 112, 90.457 112 C 88.376 112, 88.164 112.305, 88.896 114.250 C 90.128 117.523, 89.039 123.053, 86.485 126.500 C 81.548 133.163, 82.898 137.384, 90.126 137.882 C 93.044 138.083, 94.168 137.602, 95.887 135.416 C 98.401 132.221, 102.820 129.717, 104.684 130.432 C 106.456 131.112, 106.513 144.358, 104.750 145.722 C 104.063 146.254, 101.250 147.292, 98.500 148.028 C 95.750 148.765, 91.109 150.416, 88.188 151.699 C 83.227 153.876, 82.896 154.239, 83.188 157.188 C 83.459 159.929, 84.073 160.536, 87.833 161.784 C 91.712 163.071, 92.759 163.040, 97.833 161.485 C 100.950 160.530, 105.750 158.614, 108.500 157.226 C 111.250 155.838, 115.166 153.870, 117.202 152.852 C 122.178 150.362, 125.918 150.519, 133.039 153.516 C 146.127 159.025, 155.710 159.805, 157.364 155.495 C 159.323 150.388, 156.032 146.816, 147.722 145.034 C 137.439 142.828, 135.943 139.708, 140.372 129.693 C 142.192 125.577, 143.647 123.862, 146.622 122.322 C 154.152 118.426, 151.401 112.769, 141.382 111.545 C 134.463 110.700, 124.061 108.395, 123.177 107.511 C 121.422 105.756, 126.555 105.041, 137.183 105.562 C 148.605 106.121, 148.899 106.082, 150.325 103.817 C 152.287 100.699, 153.073 94.445, 153.577 77.920 L 154 64.046 151.440 62.369 C 149.208 60.906, 145.824 60.709, 125.051 60.832 C 105.062 60.951, 101.024 60.734, 99.989 59.487 C 99.310 58.669, 98.923 57.997, 99.128 57.994 C 99.332 57.991, 102.081 57.566, 105.236 57.049 C 108.390 56.532, 121.665 55.808, 134.736 55.440 C 155.947 54.843, 158.708 54.572, 160.438 52.920 C 162.159 51.276, 162.223 50.785, 161.014 48.527 C 158.515 43.856, 152.888 43.355, 114 44.336 L 107.500 44.500 107.372 40.500 C 107.302 38.300, 107.189 35.990, 107.122 35.367 C 106.961 33.866, 102.606 33.081, 100.618 34.194 M 63.173 55.792 C 60.530 58.553, 59.838 59.617, 53 71.446 C 46.438 82.796, 43.688 86.455, 35.161 95.178 C 24.979 105.594, 24.429 106.451, 25.874 109.624 C 28.884 116.228, 38.254 114.007, 43.740 105.388 C 45.451 102.700, 47.667 99.605, 48.665 98.511 C 50.445 96.559, 50.492 96.614, 51.233 101.511 C 51.648 104.255, 51.904 117.300, 51.802 130.500 C 51.617 154.526, 52.151 159.204, 55.313 161.214 C 57.427 162.559, 60.906 162.045, 61.844 160.250 C 63.340 157.389, 64.036 145.286, 64.592 112.500 L 65.117 81.500 68.050 73.450 C 72.104 62.325, 72.888 56.123, 70.465 54.351 C 67.747 52.363, 66.155 52.677, 63.173 55.792 M 115 73.384 C 111.336 74.156, 109.500 75.037, 109.500 76.022 C 109.500 77.258, 111.958 77.510, 124.500 77.561 C 132.750 77.595, 140.063 77.202, 140.750 76.689 C 141.438 76.175, 142 74.910, 142 73.878 C 142 72.150, 141.139 72.009, 131.250 72.112 C 125.338 72.174, 118.025 72.746, 115 73.384 M 112.166 90.038 C 110.883 90.566, 110.019 91.561, 110.247 92.249 C 110.537 93.124, 114.848 93.712, 124.581 94.204 C 132.236 94.591, 139.094 94.705, 139.820 94.458 C 140.546 94.211, 140.996 92.994, 140.820 91.754 C 140.509 89.560, 140.155 89.494, 127.500 89.289 C 120.350 89.173, 113.450 89.510, 112.166 90.038 M 118.236 122.654 C 114.422 124.534, 112.978 128.406, 115.245 130.673 C 116.137 131.566, 118.694 132.206, 121.535 132.249 C 125.358 132.307, 126.691 131.865, 128.161 130.050 C 130.519 127.137, 130.482 125.482, 128 123 C 125.596 120.596, 122.625 120.491, 118.236 122.654" stroke="none" fill="black" fill-rule="evenodd"/>
</svg>