<svg xmlns="http://www.w3.org/2000/svg" width="256" height="256" viewBox="0 0 256 256" version="1.1">
	<path d="M 69 32.817 C 69 33.267, 65.737 37.021, 61.750 41.160 C 51.132 52.180, 48.341 56.567, 43.951 69.139 C 39.486 81.928, 38.987 86, 41.884 86 C 44.234 86, 50.206 79.491, 53.082 73.795 C 55.829 68.355, 61.720 60.027, 64.424 57.760 C 67.754 54.969, 72.258 54.108, 77.385 55.281 C 83.474 56.674, 83.323 59.677, 76.836 66.164 C 75.854 67.146, 74.766 69.086, 74.417 70.475 C 74.068 71.864, 73.437 73, 73.013 73 C 72.589 73, 71.675 74.371, 70.980 76.047 C 70.286 77.723, 66.863 82.111, 63.373 85.797 C 59.883 89.484, 56.987 92.950, 56.938 93.500 C 56.888 94.050, 56.696 95.287, 56.512 96.249 C 55.994 98.956, 59.347 102.340, 62.783 102.578 C 67.500 102.905, 67.711 103.341, 66.634 110.543 C 65.594 117.505, 65.909 119.466, 69.714 129.722 C 71.787 135.310, 79.879 145, 82.472 145 C 83.330 145, 87.512 146.765, 91.766 148.923 C 102.319 154.276, 110.061 156.145, 118.641 155.412 C 122.751 155.061, 130.411 155.476, 137.753 156.447 C 150.842 158.177, 152.542 157.920, 155.449 153.770 C 157.655 150.621, 157.379 146.839, 154.432 139.838 C 152.109 134.318, 151.972 133.285, 152.999 129.005 C 153.911 125.203, 153.838 123.139, 152.625 118.495 C 150.754 111.331, 150.023 110.585, 145.675 111.401 C 138.926 112.667, 138.530 116.392, 144 127.157 C 147.745 134.525, 147.761 136.897, 144.091 140.412 C 141.702 142.702, 140.633 143.078, 138.103 142.523 C 136.409 142.151, 134.766 141.431, 134.452 140.923 C 133.566 139.490, 127.642 139.834, 123.513 141.559 C 120.433 142.846, 118.367 142.947, 111.664 142.136 C 104.048 141.216, 103.368 140.934, 100.676 137.577 C 98.155 134.435, 97.262 134, 93.332 134 C 89.022 134, 86 132.381, 86 130.071 C 86 129.482, 85.564 129, 85.030 129 C 84.497 129, 84.100 127.537, 84.147 125.750 C 84.244 122.072, 79.531 113, 77.523 113 C 76.805 113, 75.932 111.864, 75.583 110.475 C 75.234 109.086, 74.132 107.132, 73.132 106.132 C 70.168 103.168, 69.885 99.941, 72.020 93.479 C 74.069 87.280, 76.638 83.992, 83.402 78.909 C 88.562 75.032, 91.854 70.439, 93.149 65.312 C 94.559 59.727, 96.514 58.197, 102.500 57.993 C 113.073 57.632, 113.293 57.693, 112.530 60.750 C 112.153 62.263, 111.254 64.175, 110.533 65 C 109.812 65.825, 107.575 69.795, 105.563 73.821 C 102.499 79.950, 101.300 81.383, 98.202 82.616 C 91.463 85.299, 90.105 86.261, 89.137 89.038 C 87.596 93.457, 91.823 99.890, 96.320 99.968 C 98.381 100.004, 105.394 95.402, 108.702 91.843 C 109.914 90.539, 111.608 87.904, 112.467 85.986 C 113.327 84.069, 115.881 79.575, 118.143 76 C 120.405 72.425, 123.161 67.355, 124.268 64.734 C 126.562 59.299, 127.792 58.744, 136.542 59.194 L 142.500 59.500 142.163 66 C 141.145 85.617, 140.079 88.417, 133.715 88.185 C 129.168 88.019, 124.163 89.827, 122.963 92.070 C 121.448 94.899, 124.465 98.842, 129.941 101.189 C 132.447 102.263, 135.931 104.235, 137.682 105.571 C 141.597 108.557, 142.130 108.571, 144.709 105.750 C 149.429 100.588, 152.104 91.869, 154.475 73.920 C 156.590 57.915, 156.482 52.482, 154 50 C 152.217 48.217, 149.295 47.413, 146.548 47.949 C 146.024 48.051, 142.874 47.672, 139.548 47.106 C 136.221 46.539, 124.500 45.810, 113.500 45.483 C 102.500 45.157, 90.205 44.465, 86.178 43.945 C 82.150 43.425, 78.663 43, 78.428 43 C 78.192 43, 78 41.065, 78 38.700 C 78 36.335, 77.460 33.860, 76.800 33.200 C 75.458 31.858, 69 31.542, 69 32.817 M 45.189 114.694 C 44.671 115.687, 43.266 119.650, 42.067 123.500 C 33.920 149.654, 33.585 153.926, 39.569 155.428 C 43.182 156.335, 44.372 155.047, 48.106 146.181 C 50.511 140.472, 51.566 136.061, 52.213 129 C 53.770 112.029, 53.999 113.542, 49.815 113.194 C 47.070 112.965, 45.891 113.347, 45.189 114.694" stroke="none" fill="black" fill-rule="evenodd"/>
</svg>