<svg xmlns="http://www.w3.org/2000/svg" width="256" height="256" viewBox="0 0 256 256" version="1.1">
	<path d="M 118.523 28.161 C 116.092 30.073, 115.833 30.823, 116.268 34.689 C 116.920 40.474, 115.897 40.942, 101.563 41.421 C 84.873 41.978, 79.093 45.358, 84.826 51.209 C 86.839 53.263, 90.332 53.516, 103.500 52.559 C 111.727 51.961, 113.855 52.102, 115.500 53.357 C 117.079 54.562, 117.273 55.253, 116.424 56.640 C 115.551 58.064, 113.754 58.432, 106.924 58.582 C 89.778 58.960, 86.906 61.524, 86.851 76.500 C 86.833 81.293, 88.560 92.058, 89.714 94.345 C 91.072 97.036, 91.401 97.153, 95.825 96.518 C 98.396 96.148, 103.425 95.795, 107 95.733 C 119.495 95.514, 151.519 93.964, 153.732 93.469 C 158.455 92.415, 160.199 82.623, 158.372 67.417 C 157.320 58.662, 156.501 58.177, 141.500 57.427 C 128.288 56.765, 125.569 56.033, 127.847 53.750 C 128.671 52.924, 133.967 52.312, 143.460 51.945 C 158.692 51.357, 161 50.639, 161 46.493 C 161 42.016, 157.415 41, 141.619 41 C 125.436 41, 124.853 40.725, 128.689 34.907 C 131.365 30.849, 131.022 28.787, 127.398 27.135 C 123.766 25.481, 121.614 25.729, 118.523 28.161 M 58.500 32.871 C 53.729 35.050, 49.242 39.470, 46.500 44.692 C 45.400 46.786, 42.857 50.178, 40.850 52.229 C 38.842 54.279, 36.212 57.879, 35.006 60.229 C 33.800 62.578, 32.168 65.625, 31.381 67 C 29.865 69.645, 30.231 74.369, 32.128 76.655 C 34.380 79.368, 37.547 78.159, 41.051 73.250 C 42.915 70.638, 46.269 66.475, 48.505 64 C 50.740 61.525, 53.903 57.511, 55.534 55.079 C 57.165 52.648, 61.087 47.802, 64.250 44.309 C 67.412 40.817, 70 37.722, 70 37.430 C 70 37.139, 69.313 35.573, 68.474 33.950 C 66.678 30.476, 64.305 30.219, 58.500 32.871 M 62.964 55.629 C 59.856 57.559, 56.369 63.295, 52.808 72.332 C 50.369 78.523, 47.037 83, 44.868 83 C 44.414 83, 42.084 85.918, 39.692 89.485 C 37.299 93.052, 33.577 97.252, 31.420 98.818 C 25.627 103.027, 24.790 104.317, 25.921 107.293 C 26.452 108.688, 27.699 110.078, 28.693 110.384 C 33.637 111.901, 44.119 106.220, 45.566 101.239 C 46.439 98.233, 51.582 94.515, 52.597 96.156 C 53.002 96.812, 53.712 106.608, 54.175 117.924 C 55.166 142.131, 56.394 154.057, 58.193 156.937 C 60.182 160.123, 62.826 160.506, 65.058 157.933 C 67.170 155.498, 67.580 146.936, 67.196 113.302 C 67.100 104.944, 67.412 97.863, 67.890 97.568 C 68.367 97.273, 68.528 91.265, 68.247 84.217 C 67.754 71.816, 67.823 71.242, 70.369 66.459 C 73.418 60.730, 73.573 59.262, 71.443 56.223 C 69.626 53.628, 66.534 53.411, 62.964 55.629 M 139.750 70.056 C 137.648 71.309, 137.575 73.191, 139.422 78.500 C 140.602 81.891, 141.243 82.500, 143.633 82.500 C 147.254 82.500, 148.790 78.772, 147.433 73.278 C 146.692 70.278, 145.985 69.450, 144 69.257 C 142.625 69.123, 140.713 69.483, 139.750 70.056 M 102.585 71.100 C 98.992 72.105, 97.910 73.730, 98.661 76.992 C 99.648 81.283, 101.898 84, 104.464 84 C 107.470 84, 107.654 83.693, 108.461 77.317 C 109.018 72.919, 108.844 71.993, 107.309 71.209 C 106.294 70.690, 104.220 70.642, 102.585 71.100 M 119.996 71.505 C 118.593 73.195, 119.359 80.523, 121.166 82.700 C 122.519 84.330, 126.214 84.386, 127.800 82.800 C 129.055 81.545, 129.438 74.305, 128.393 71.582 C 127.606 69.530, 121.679 69.477, 119.996 71.505 M 147.500 100.033 C 144.750 100.477, 129.450 101.162, 113.500 101.556 C 97.133 101.961, 83.955 102.702, 83.250 103.259 C 81.516 104.627, 81.689 107.665, 83.694 111.060 L 85.389 113.928 102.448 113.895 C 111.830 113.877, 120.630 114.289, 122.003 114.811 C 125.172 116.016, 126.089 116.023, 128.260 114.861 C 129.228 114.343, 136.521 113.334, 144.466 112.619 C 152.892 111.860, 159.555 110.784, 160.456 110.037 C 163.515 107.498, 161.451 100.030, 157.679 99.986 C 157.030 99.979, 155.600 99.805, 154.500 99.599 C 153.400 99.394, 150.250 99.589, 147.500 100.033 M 121.458 120.750 C 120.295 126.453, 120.900 130.132, 123.666 134.184 C 127.701 140.096, 130.701 136.751, 129.421 127.768 C 127.968 117.569, 122.999 113.190, 121.458 120.750 M 142.500 120.878 C 139.703 121.475, 139.490 121.841, 139.357 126.294 C 139.220 130.887, 139.363 131.144, 143.106 133.054 C 147.221 135.153, 151.458 140.625, 152.922 145.729 C 153.785 148.737, 153.743 148.786, 150.651 148.350 C 148.918 148.106, 146.195 147.477, 144.601 146.953 C 143.006 146.429, 137.381 145.993, 132.101 145.985 C 126.531 145.976, 120.821 145.386, 118.500 144.580 C 114.733 143.271, 114.489 142.942, 114.306 138.937 C 114.093 134.288, 112.270 129, 110.879 129 C 110.395 129, 110 128.395, 110 127.655 C 110 125.828, 106.947 123.232, 104.500 122.978 C 100.474 122.559, 99.027 123.056, 96.433 125.750 C 94.669 127.581, 93.625 128.082, 93.309 127.250 C 93.047 126.563, 92.196 126, 91.417 126 C 90.638 126, 90 125.571, 90 125.047 C 90 124.523, 88.394 123.332, 86.432 122.401 C 83.316 120.922, 82.680 120.891, 81.415 122.156 C 79.402 124.170, 78.987 135.388, 80.681 142.008 C 82.211 147.985, 82.779 148.957, 83.804 147.356 C 84.187 146.758, 85.502 145.957, 86.728 145.574 C 88.234 145.104, 89.299 143.604, 90.016 140.940 C 90.600 138.773, 91.510 137, 92.039 137 C 92.567 137, 93 135.200, 93 133 C 93 129.753, 93.354 129, 94.879 129 C 96.077 129, 97.206 130.176, 97.996 132.250 C 98.677 134.037, 99.857 136.918, 100.617 138.651 C 101.378 140.384, 102 142.522, 102 143.401 C 102 144.281, 102.338 145.001, 102.750 145.003 C 103.162 145.004, 104.352 146.277, 105.393 147.831 C 108.226 152.061, 112.808 154.717, 119.500 156.011 C 136.325 159.262, 140.916 159.962, 145.527 159.980 C 150.944 160.002, 154.467 158.228, 156.118 154.649 C 156.663 153.467, 157.963 150.925, 159.006 149 C 161.323 144.727, 161.490 140.109, 159.500 135.346 C 158.675 133.371, 158 130.663, 158 129.328 C 158 121.936, 152.241 118.796, 142.500 120.878" stroke="none" fill="black" fill-rule="evenodd"/>
</svg>