<svg xmlns="http://www.w3.org/2000/svg" width="256" height="256" viewBox="0 0 256 256" version="1.1">
	<path d="M 90.796 25.750 C 88.571 28.322, 88.119 31.256, 89.123 36.627 C 90.575 44.399, 90.521 44.418, 65.077 45 C 43.314 45.498, 43.213 45.511, 41.224 47.969 C 39.863 49.652, 39.463 51.085, 39.968 52.469 C 41.418 56.445, 44.459 56.970, 66.128 56.985 C 81.419 56.996, 87.012 57.323, 87.747 58.250 C 88.293 58.938, 89.038 62.245, 89.402 65.600 C 90.324 74.083, 89.693 74.484, 77.767 72.982 C 64.226 71.278, 57.748 73.442, 56.843 79.974 C 56.584 81.841, 57.148 82.761, 59.143 83.727 C 62.034 85.126, 86.165 87.400, 88.904 86.530 C 89.840 86.234, 91.428 86.593, 92.435 87.329 C 94.047 88.508, 94.122 89.099, 93.065 92.304 C 91.897 95.842, 91.966 96.032, 95.565 99.221 C 100.445 103.545, 101.525 104.119, 103.414 103.395 C 105.394 102.635, 105.586 95.730, 103.681 93.821 C 102.955 93.095, 102.091 91.462, 101.759 90.193 C 100.913 86.951, 103.041 86.306, 118.897 85.002 C 134.174 83.745, 138.008 82.384, 137.985 78.224 C 137.962 74.250, 136.964 73.230, 131.975 72.080 C 126.038 70.712, 120.142 70.737, 110.727 72.170 C 105.957 72.896, 102.601 72.995, 102.042 72.427 C 100.528 70.888, 99.763 58.264, 101.132 57.418 C 101.785 57.015, 111.135 56.530, 121.910 56.341 C 142.255 55.983, 151.820 54.884, 153.177 52.748 C 154.407 50.811, 154.143 47.577, 152.580 45.441 C 151.245 43.618, 149.671 43.492, 126.599 43.364 C 113.091 43.290, 101.322 42.954, 100.447 42.618 C 99.143 42.117, 98.976 41.039, 99.525 36.643 C 100.020 32.681, 99.788 30.490, 98.635 28.261 C 96.350 23.842, 93.293 22.863, 90.796 25.750 M 68.200 101.200 C 66.517 102.883, 66.684 118.225, 68.458 124.889 C 69.247 127.853, 70.970 131.453, 72.287 132.889 C 73.604 134.325, 75.629 137.089, 76.787 139.031 C 79.233 143.134, 87.810 147.793, 98 150.555 C 101.575 151.524, 106.212 153.167, 108.303 154.206 C 111.344 155.716, 114.453 156.110, 123.803 156.171 C 130.318 156.214, 136.747 155.750, 138.315 155.124 C 139.863 154.506, 143.560 154, 146.530 154 C 150.845 154, 152.138 153.611, 152.965 152.066 C 154.774 148.686, 154.136 147.313, 148.041 141.458 C 141.131 134.820, 140.461 132.455, 141.823 119.500 C 142.662 111.522, 141.508 105.589, 138.786 103.878 C 135.873 102.047, 128.123 106.244, 128.032 109.701 C 127.970 112.036, 130.855 121.818, 132.584 125.137 C 133.703 127.285, 134.256 130.307, 134.116 133.500 C 133.748 141.909, 133.457 142.312, 128.178 141.717 C 125.641 141.431, 123.402 140.706, 123.202 140.107 C 122.970 139.411, 122.301 139.556, 121.348 140.509 C 120.443 141.414, 117.981 142, 115.084 142 C 110.844 142, 107.409 141.101, 96.500 137.137 C 94.850 136.538, 91.863 135.801, 89.861 135.499 C 87.015 135.071, 85.954 134.303, 84.990 131.976 C 84.312 130.339, 83.398 129, 82.958 129 C 81.791 129, 80.256 120.800, 79.580 110.950 C 79.192 105.311, 77.409 102.338, 73.621 101.018 C 69.936 99.733, 69.657 99.743, 68.200 101.200 M 45.114 116.250 C 37.312 140.616, 36.802 154.852, 43.867 151.071 C 49.484 148.065, 53.904 134.794, 53.966 120.750 L 54 113 50.078 113 C 46.532 113, 46.055 113.313, 45.114 116.250" stroke="none" fill="black" fill-rule="evenodd"/>
</svg>