<svg xmlns="http://www.w3.org/2000/svg" width="256" height="256" viewBox="0 0 256 256" version="1.1">
	<path d="M 93.500 25.288 C 92.950 25.955, 91.375 28.184, 90 30.243 L 87.500 33.986 77.500 34.037 C 72 34.064, 62.861 34.471, 57.192 34.941 C 46.134 35.857, 42.635 37.478, 43.206 41.420 C 43.783 45.407, 47.282 46.034, 68.141 45.886 C 78.944 45.810, 88.281 46.056, 88.891 46.433 C 90.678 47.537, 90.166 50.841, 88.031 51.984 C 86.749 52.669, 84.149 52.737, 80.584 52.178 C 77.571 51.706, 73.844 51.399, 72.303 51.497 C 64.506 51.992, 53.258 53.372, 51.391 54.063 C 47.712 55.424, 46 63.128, 46 78.315 C 46 94.185, 46.161 94.464, 55.405 94.570 C 89.593 94.960, 88.344 94.849, 90.408 97.679 C 92.286 100.254, 92.286 100.319, 90.408 101.743 C 88.933 102.862, 86.686 103.048, 80.500 102.564 C 48.186 100.038, 43.607 99.948, 41.750 101.806 C 40.247 103.308, 40.138 104.098, 41.065 106.756 C 41.671 108.495, 42.917 110.132, 43.834 110.393 C 48.304 111.667, 62.163 114.066, 67.500 114.489 C 70.800 114.750, 75.300 115.258, 77.500 115.618 C 79.700 115.977, 90.275 116.432, 101 116.629 C 111.725 116.826, 121.625 117.022, 123 117.066 C 124.375 117.109, 128.974 116.829, 133.220 116.443 C 139.816 115.843, 141.165 115.397, 142.490 113.375 C 144.293 110.622, 143.600 106.383, 141.135 105.090 C 140.236 104.618, 137.556 103.910, 135.180 103.516 C 132.805 103.123, 130.639 102.223, 130.368 101.517 C 130.097 100.810, 131.320 97.884, 133.086 95.014 C 135.544 91.020, 136.614 87.660, 137.650 80.692 C 138.395 75.684, 138.687 70.667, 138.301 69.543 C 137.915 68.420, 137.576 65.326, 137.549 62.669 C 137.473 55.195, 135.272 54.354, 112.511 53.104 C 103.850 52.628, 101.467 52.182, 101.262 51 C 100.593 47.134, 101.968 46.889, 125.595 46.674 C 138.193 46.559, 149.287 46.087, 150.250 45.625 C 152.553 44.521, 152.477 40.811, 150.090 37.861 C 148.208 35.534, 147.855 35.493, 125.363 35 L 102.545 34.500 101.639 31.500 C 99.926 25.826, 98.687 24, 96.581 24.038 C 95.436 24.059, 94.050 24.621, 93.500 25.288 M 61.352 62.987 C 58.556 64.124, 57.422 66.025, 58.971 66.982 C 61.309 68.427, 86.963 69.276, 88.548 67.961 C 90.225 66.568, 90.301 66.023, 89.084 64.101 C 88.042 62.456, 64.943 61.528, 61.352 62.987 M 101.194 65.266 C 100.518 66.080, 100.265 67.527, 100.631 68.480 C 101.157 69.851, 102.050 70.089, 104.898 69.618 C 106.879 69.290, 112.470 69.017, 117.323 69.011 C 125.186 69.001, 126.110 68.809, 125.808 67.250 C 125.528 65.805, 124.251 65.467, 118.485 65.313 C 114.643 65.210, 109.458 64.825, 106.961 64.456 C 103.548 63.952, 102.118 64.153, 101.194 65.266 M 58.345 81.543 C 58.019 82.392, 58.071 83.404, 58.460 83.793 C 58.848 84.182, 65.698 84.535, 73.681 84.577 C 85.387 84.639, 88.301 84.378, 88.743 83.226 C 89.734 80.644, 86.673 80.031, 72.719 80.015 C 61.210 80.003, 58.840 80.255, 58.345 81.543 M 100.750 81.105 C 98.718 82.260, 98.438 84.579, 100.250 85.246 C 103.052 86.276, 123.978 84.731, 125.072 83.413 C 125.929 82.380, 125.653 81.976, 123.838 81.605 C 118.517 80.519, 102.396 80.169, 100.750 81.105 M 100.531 97.420 C 98.463 98.667, 97.362 99.961, 97.788 100.641 C 98.776 102.218, 105.644 103.988, 110.800 103.994 C 115.176 104, 121 101.720, 121 100 C 121 98.280, 115.595 96.260, 109.743 95.794 C 105.128 95.425, 103.301 95.748, 100.531 97.420 M 64 123.119 C 59.083 124.403, 54.772 124.898, 51.484 124.557 C 47.654 124.160, 45.731 124.485, 43.354 125.931 C 40.641 127.581, 40.017 128.826, 38.511 135.597 C 36.370 145.220, 36.913 151.702, 40.076 154.263 C 42.303 156.066, 42.397 156.056, 44.559 153.802 C 45.774 152.536, 48.229 147.565, 50.015 142.755 C 54.549 130.544, 58.620 126.695, 63.244 130.250 C 64.138 130.938, 65.548 134.152, 66.377 137.393 C 67.801 142.958, 70.115 146.345, 76.500 152.211 C 83.988 159.091, 96.704 161.040, 120 158.881 C 127.425 158.193, 137.046 157.601, 141.381 157.565 C 151.848 157.479, 152.377 156.663, 148.317 146.853 C 146.643 142.809, 144.725 137.700, 144.054 135.500 C 140.838 124.953, 137.806 122.315, 133 125.882 C 130.310 127.878, 129.910 131.797, 131.493 140.645 C 132.139 144.255, 131.980 144.872, 130.259 145.418 C 126.922 146.477, 125 145.076, 125 141.584 C 125 134.612, 118.746 132.235, 118.239 139.014 C 118.096 140.932, 117.908 143.270, 117.823 144.210 C 117.601 146.637, 112.793 148.088, 108.785 146.938 C 106.985 146.422, 101.724 146, 97.093 146 C 81.970 146, 79.465 143.639, 77.467 127.500 C 76.996 123.697, 74.862 120.906, 72.559 121.080 C 71.976 121.124, 68.125 122.041, 64 123.119 M 95.496 122.006 C 94.760 123.198, 96.473 129.092, 98.983 134 C 101.078 138.096, 105.077 140.011, 107.440 138.050 C 109.403 136.420, 109.512 130.134, 107.590 129.396 C 106.815 129.099, 105.879 127.653, 105.510 126.183 C 105.141 124.714, 104.370 122.946, 103.797 122.256 C 102.555 120.759, 96.382 120.573, 95.496 122.006" stroke="none" fill="black" fill-rule="evenodd"/>
</svg>