<svg xmlns="http://www.w3.org/2000/svg" width="256" height="256" viewBox="0 0 256 256" version="1.1">
	<path d="M 117.267 28.250 C 115.385 30.656, 115.085 34.500, 116.002 44.460 C 117.681 62.670, 117.791 66.907, 116.627 68.398 C 116.007 69.192, 113.250 70.055, 110.500 70.317 C 107.750 70.578, 102.575 71.560, 99 72.498 C 92.109 74.307, 78.098 74.130, 75.713 72.204 C 75.046 71.665, 72.135 70.906, 69.245 70.517 C 62.765 69.646, 62.576 69.116, 63.460 54.312 C 64.738 32.891, 64.708 32.262, 62.292 29.847 C 60.388 27.943, 59.733 27.800, 57.522 28.808 C 54.069 30.381, 53.261 32.940, 51.402 48.191 C 50.072 59.101, 49.989 63.946, 50.892 77.865 C 51.485 87.014, 51.985 103.950, 52.001 115.500 C 52.048 147.836, 53.624 157.164, 59.149 157.806 C 61.142 158.037, 62.318 157.362, 63.976 155.033 C 66.133 152.004, 66.155 151.621, 65.334 131.227 C 64.418 108.469, 64.438 91.229, 65.381 90.286 C 65.715 89.952, 66.863 90.471, 67.934 91.440 C 69.779 93.110, 70.145 93.113, 75.010 91.497 C 78.129 90.461, 81.368 88.443, 83.273 86.350 C 86.999 82.255, 91.074 82.016, 91.967 85.839 C 92.268 87.125, 91.952 95.900, 91.266 105.339 C 89.621 127.949, 90.614 148.099, 93.601 152.750 C 98.796 160.839, 107.514 145.325, 103.463 135.200 C 102.571 132.971, 101.990 130.101, 102.171 128.823 C 102.497 126.521, 102.628 126.500, 116.500 126.450 C 130.127 126.402, 137.887 125.613, 141.054 123.954 C 144.485 122.156, 145.340 124.369, 144.608 133.147 C 144.226 137.734, 143.590 141.810, 143.195 142.205 C 142.801 142.599, 140.725 143.139, 138.583 143.405 C 132.168 144.200, 131.102 148.337, 136.177 152.742 C 137.925 154.259, 140.142 156.255, 141.105 157.178 C 142.068 158.101, 144.873 159.158, 147.339 159.528 C 151.403 160.138, 151.979 159.962, 153.490 157.656 C 155.823 154.096, 156.174 150.429, 156.523 126 C 156.869 101.761, 155.631 76.479, 153.914 72.710 C 152.384 69.352, 145.906 67.573, 137.629 68.238 C 128.545 68.967, 128.098 68.529, 128.451 59.244 C 128.796 50.168, 126.824 32.408, 125.117 29.219 C 123.788 26.736, 118.922 26.135, 117.267 28.250 M 140.750 35.080 C 139.787 35.641, 139 36.768, 139 37.585 C 139 38.402, 138.263 40.196, 137.361 41.571 C 136.076 43.532, 135.861 45.414, 136.364 50.286 C 137.173 58.111, 139.430 61.392, 144.289 61.807 C 148.764 62.189, 150.698 59.621, 153.118 50.084 C 154.509 44.602, 154.578 42.990, 153.531 40.454 C 151.335 35.139, 145.129 32.529, 140.750 35.080 M 95.119 41.190 C 91.589 44.800, 91.384 45.662, 93.498 47.998 C 94.322 48.908, 95.397 51.803, 95.888 54.431 C 96.960 60.171, 98.483 61.880, 103.207 62.646 C 105.976 63.096, 107.231 62.769, 108.813 61.187 C 109.934 60.066, 110.685 58.328, 110.481 57.324 C 108.272 46.466, 107.639 44.878, 104.185 41.522 C 102.190 39.585, 100.036 38, 99.398 38 C 98.760 38, 96.834 39.435, 95.119 41.190 M 35.157 75.626 C 31.710 79.808, 29 89.622, 29 97.924 C 29 102.182, 29.383 103.205, 31.493 104.587 C 34.830 106.774, 38.471 105.754, 39.793 102.263 C 41.020 99.024, 43.674 87.233, 44.467 81.500 C 45.678 72.741, 40.321 69.361, 35.157 75.626 M 126.500 82.122 C 124.300 82.600, 119.288 82.993, 115.363 82.994 C 110.054 82.996, 107.673 83.445, 106.068 84.748 C 104.045 86.390, 103.983 86.841, 105.075 91.924 C 105.929 95.898, 105.953 98.705, 105.164 102.424 C 104.572 105.216, 103.956 109.022, 103.794 110.883 L 103.500 114.266 113.517 114.080 C 119.026 113.978, 125.326 113.479, 127.517 112.971 C 129.708 112.463, 133.217 112.037, 135.316 112.024 C 141.189 111.987, 143 110.579, 143 106.047 C 143 103.911, 142.722 101.439, 142.382 100.553 C 141.823 99.096, 141.463 99.119, 138.632 100.785 C 134.114 103.445, 116.720 103.241, 111.572 100.469 C 107.585 98.321, 107.302 97.442, 109.561 94.217 C 112.422 90.132, 116.633 88.670, 121.796 89.970 C 124.300 90.601, 128.030 90.833, 130.084 90.486 C 133.909 89.840, 140 92.014, 140 94.026 C 140 94.562, 140.623 95, 141.383 95 C 143.933 95, 144.960 86.590, 142.750 83.810 C 141.207 81.869, 132.042 80.917, 126.500 82.122" stroke="none" fill="black" fill-rule="evenodd"/>
</svg>