<svg xmlns="http://www.w3.org/2000/svg" width="256" height="256" viewBox="0 0 256 256" version="1.1">
	<path d="M 119.455 28.455 C 117.787 30.122, 117 32.027, 117 34.396 C 117 36.313, 116.452 38.221, 115.781 38.635 C 115.111 39.049, 109.780 39.704, 103.934 40.090 C 90.537 40.974, 84.551 43.567, 85.707 47.987 C 86.295 50.237, 97.554 52.199, 107.847 51.845 C 115.566 51.580, 118.690 53.039, 117.430 56.322 C 116.906 57.689, 115.367 58.002, 109.143 58.011 C 104.939 58.017, 99.291 58.692, 96.591 59.511 C 93.891 60.330, 89.924 61, 87.775 61 C 85.627 61, 83.111 61.392, 82.184 61.872 C 81.258 62.351, 78.243 62.950, 75.484 63.203 L 70.467 63.662 68.297 59.009 C 64.763 51.429, 64.682 49.968, 67.452 43.705 C 69.830 38.326, 69.904 37.707, 68.552 34.470 C 66.889 30.490, 63.595 29.812, 60.199 32.750 C 58.065 34.596, 55 45.266, 55 50.845 C 55 52.615, 54.096 56.747, 52.991 60.027 C 50.876 66.306, 50.233 80.850, 49.954 128.772 C 49.855 145.767, 50.058 148.413, 51.671 151.167 C 54.669 156.285, 56.472 156.862, 59.442 153.657 C 60.849 152.139, 62.069 150.808, 62.153 150.698 C 62.237 150.589, 62.574 135.650, 62.903 117.500 C 63.264 97.530, 63.911 83.808, 64.541 82.747 C 65.475 81.176, 65.974 81.408, 69.376 84.997 C 71.462 87.199, 73.918 89.025, 74.834 89.056 C 75.750 89.087, 91.800 89.261, 110.500 89.445 C 132.828 89.663, 145.358 90.163, 147 90.902 C 148.883 91.749, 150.733 91.715, 154.500 90.763 C 159.075 89.607, 159.526 89.229, 159.809 86.312 C 160.268 81.565, 157.186 80.045, 144.818 78.920 C 132.016 77.756, 129.437 77.232, 128.002 75.503 C 125.855 72.916, 130.644 71.084, 139 71.295 C 147.894 71.520, 150.011 70.842, 149.968 67.781 C 149.909 63.549, 147.567 61.946, 138.841 60.165 C 129.673 58.294, 128 57.571, 128 55.480 C 128 53.235, 135.538 51.751, 143.089 52.509 C 151.414 53.345, 153.555 52.715, 154.831 49.054 C 155.692 46.584, 155.486 45.866, 153.338 43.848 C 151.128 41.772, 149.615 41.450, 139.970 41.003 C 133.988 40.727, 128.614 40.019, 128.027 39.431 C 127.272 38.673, 127.381 37.170, 128.401 34.280 C 129.770 30.402, 129.730 30.095, 127.606 28.100 C 124.681 25.352, 122.461 25.448, 119.455 28.455 M 97.418 71.019 C 84.324 72.401, 80.164 73.159, 78.329 74.501 C 76.272 76.005, 76.850 77.133, 79.637 77.055 C 82.281 76.980, 102.266 77.175, 110.025 77.352 C 114.525 77.454, 117.032 77.049, 118.107 76.045 C 119.507 74.737, 119.389 74.357, 116.938 72.295 C 113.972 69.799, 110.889 69.597, 97.418 71.019 M 40.355 72.046 C 36.710 73.425, 33.244 79.152, 31.106 87.326 C 28.454 97.463, 29.066 103.479, 32.884 104.810 C 36.032 105.907, 39.501 104.802, 40.856 102.269 C 41.957 100.212, 44 83.530, 44 76.598 C 44 71.573, 43.443 70.878, 40.355 72.046 M 65 76.500 C 65 79.230, 65.936 79.664, 67.800 77.800 C 69.640 75.960, 69.228 74, 67 74 C 65.533 74, 65 74.667, 65 76.500 M 93.525 92.973 C 92.230 94.404, 91.913 95.815, 92.372 98.108 C 92.720 99.848, 92.596 102.897, 92.098 104.885 C 91.599 106.873, 90.933 112.550, 90.618 117.500 C 90.302 122.450, 89.584 128.072, 89.022 129.993 C 87.684 134.569, 87.712 146.875, 89.070 150.771 C 91.325 157.241, 93.027 155.610, 96.655 143.500 L 97.554 140.500 107.527 140.653 C 138.950 141.136, 141.211 141.337, 142.093 143.723 C 142.731 145.446, 142.426 146.289, 140.735 147.473 C 139.536 148.313, 137.560 149, 136.345 149 C 133.686 149, 132.441 152.088, 133.958 154.922 C 135.511 157.823, 141.195 161.889, 144.670 162.584 C 146.987 163.047, 148.340 162.611, 150.587 160.678 L 153.500 158.171 153.598 128.483 C 153.690 100.573, 153.583 98.689, 151.803 97.031 C 149.613 94.991, 143.026 94.028, 131 93.991 C 126.325 93.977, 118.450 93.300, 113.500 92.486 C 100.873 90.412, 95.729 90.537, 93.525 92.973 M 105.196 105.264 C 103.411 107.415, 107.285 108.633, 120 109.916 C 125.775 110.499, 132.863 111.269, 135.750 111.627 C 140.935 112.271, 141 112.246, 141 109.608 C 141 106.354, 140.827 106.296, 129 105.573 C 123.775 105.254, 116.558 104.721, 112.962 104.388 C 107.860 103.916, 106.155 104.108, 105.196 105.264 M 104.200 122.200 C 102.654 123.746, 102.673 125.495, 104.250 126.748 C 104.938 127.294, 110.784 128.038, 117.243 128.403 C 123.701 128.767, 131.468 129.524, 134.503 130.085 C 140.507 131.195, 142 130.808, 142 128.141 C 142 125.440, 139.932 124, 136.050 123.999 C 134.097 123.998, 128.675 123.323, 124 122.500 C 113.740 120.693, 105.827 120.573, 104.200 122.200" stroke="none" fill="black" fill-rule="evenodd"/>
</svg>