<svg xmlns="http://www.w3.org/2000/svg" width="256" height="256" viewBox="0 0 256 256" version="1.1">
	<path d="M 120.186 28.907 C 118.798 29.264, 116.997 31.192, 115.686 33.724 C 114.484 36.046, 112.079 39.645, 110.342 41.723 C 102.804 50.740, 96.840 58.690, 95.790 61.123 L 94.657 63.746 92.267 60.906 L 89.877 58.065 91.612 52.561 C 92.997 48.169, 93.114 46.546, 92.195 44.529 C 89.487 38.586, 82.377 43.206, 79.770 52.602 C 77.401 61.141, 75.619 86.609, 77.094 90.840 C 78.274 94.224, 81.153 96, 85.458 96 C 88.183 96, 89 94.341, 89 88.805 C 89 85.265, 92.465 68.675, 93.582 66.868 C 93.810 66.498, 95.982 66.792, 98.407 67.522 C 102.541 68.766, 103.012 68.704, 105.959 66.530 C 107.687 65.255, 111.234 61.856, 113.840 58.976 L 118.579 53.740 127.037 52.997 C 131.690 52.588, 136.024 52.456, 136.671 52.704 C 138.755 53.504, 139.020 56.037, 137.309 58.802 C 134.437 63.444, 133.102 64.104, 129.917 62.457 C 126.046 60.456, 125.019 60.638, 121.050 64.030 L 117.601 66.979 118.857 72.239 C 121.596 83.710, 121.718 83.088, 115.700 88.283 C 109.916 93.276, 108.226 97.084, 110.698 99.555 C 115.202 104.059, 122.195 101.140, 129.231 91.819 C 131.560 88.734, 135.821 89.094, 139.406 92.679 C 140.880 94.153, 142.905 95.840, 143.907 96.429 C 150.906 100.543, 154.300 102, 156.889 102 C 159.754 102, 163 99.839, 163 97.931 C 163 96.668, 155.995 89, 154.841 89 C 152.743 89, 143 80.832, 143 79.074 C 143 75.675, 150.740 57.543, 153.276 55 C 154.648 53.625, 157.172 51.453, 158.885 50.174 C 161.116 48.508, 162 47.028, 162 44.959 C 162 40.266, 159.425 39.568, 142 39.533 C 133.475 39.516, 126.203 39.090, 125.840 38.587 C 125.476 38.083, 125.405 36.278, 125.682 34.574 C 126.304 30.742, 123.658 28.014, 120.186 28.907 M 61.954 33.792 C 56.121 38.744, 52.396 43.575, 51.424 47.448 C 51.104 48.722, 48.425 51.505, 45.471 53.632 C 42.517 55.760, 39.575 58.625, 38.934 60 C 38.292 61.375, 37.378 63.268, 36.902 64.206 C 36.427 65.145, 35.747 67.732, 35.391 69.956 C 34.843 73.381, 35.011 74, 36.486 74 C 37.444 74, 39.864 72.230, 41.864 70.067 C 49.666 61.628, 51.774 63.763, 54.421 82.789 C 56.304 96.316, 57.333 100.104, 60.275 104.325 C 61.791 106.502, 62.124 108.205, 61.725 111.743 C 61.421 114.441, 61.827 118.434, 62.708 121.418 C 64.490 127.451, 69.973 137, 71.656 137 C 72.309 137, 74.342 138.733, 76.172 140.850 C 79.558 144.768, 94.210 154.015, 96.979 153.982 C 98.479 153.964, 118.194 158.301, 125 160.146 C 127.181 160.738, 130.949 160.746, 135 160.169 C 138.575 159.660, 143.890 159.408, 146.812 159.609 C 153.851 160.094, 160.912 157.191, 160.985 153.782 C 161.016 152.293, 149.985 145, 147.702 145 C 146.391 145, 143.334 145.563, 140.909 146.250 C 135.643 147.743, 123.629 147.684, 116 146.128 C 112.975 145.510, 108.862 144.768, 106.861 144.478 C 104.100 144.078, 101.263 142.147, 95.104 136.476 C 88.387 130.291, 86.409 129, 83.649 129 C 80.392 129, 80.256 128.827, 77.937 121.750 C 76.630 117.763, 74.985 114, 74.281 113.390 C 73.576 112.779, 73 111.814, 73 111.246 C 73 110.677, 71.717 108.838, 70.148 107.159 C 67.549 104.377, 67.224 103.193, 66.482 93.803 C 66.034 88.136, 65.567 76.075, 65.445 67 C 65.208 49.381, 65.494 47.982, 70.413 42.684 C 71.850 41.135, 73.902 38.151, 74.973 36.053 C 76.841 32.391, 76.847 32.172, 75.131 30.619 C 71.947 27.737, 67.953 28.699, 61.954 33.792 M 134.623 112.520 C 133.730 113.413, 132.969 114.448, 132.931 114.821 C 132.893 115.195, 132.699 116.737, 132.499 118.250 C 132.281 119.902, 132.608 121.001, 133.318 121.003 C 133.968 121.004, 135.400 122.683, 136.500 124.733 C 137.688 126.947, 139.659 128.866, 141.355 129.460 C 147.294 131.540, 149.910 122.868, 145.886 114.436 C 144.719 111.990, 143.798 111.450, 140.365 111.199 C 137.577 110.994, 135.722 111.421, 134.623 112.520 M 41.616 116.250 C 40.829 117.487, 39.910 121.758, 39.572 125.739 C 39.235 129.720, 38.558 134.032, 38.069 135.320 C 35.958 140.871, 33.900 151.110, 34.509 153.029 C 35.260 155.394, 39.198 157.245, 41.555 156.341 C 43.432 155.620, 48.414 145.353, 50.019 138.897 C 50.648 136.365, 50.984 132.540, 50.765 130.397 C 50.544 128.231, 51.140 124.279, 52.109 121.500 C 53.838 116.539, 53.834 116.491, 51.676 115.285 C 48.021 113.245, 43.234 113.704, 41.616 116.250 M 109.083 120.346 C 105.930 126.236, 115.224 140.192, 118.674 134.750 C 119.110 134.063, 119.550 131.377, 119.652 128.782 C 119.818 124.548, 119.483 123.753, 116.384 121.032 C 112.232 117.387, 110.741 117.246, 109.083 120.346" stroke="none" fill="black" fill-rule="evenodd"/>
</svg>