<svg xmlns="http://www.w3.org/2000/svg" width="256" height="256" viewBox="0 0 256 256" version="1.1">
	<path d="M 49.861 31.914 L 47.500 33.828 47.436 63.209 C 47.400 79.368, 47.086 93.051, 46.738 93.616 C 45.580 95.489, 49.721 100.756, 53.173 101.800 C 59.731 103.784, 99.449 105.249, 118.852 104.222 C 136.421 103.292, 137.310 103.145, 139.681 100.774 C 142.807 97.648, 143.555 91.838, 144.932 60.002 C 145.917 37.215, 145.888 36.444, 143.971 34.526 C 142.274 32.830, 139.615 32.378, 125.247 31.342 C 116.036 30.679, 95.837 30.105, 80.361 30.068 C 54.076 30.004, 52.066 30.126, 49.861 31.914 M 61.863 43.057 C 60.478 43.832, 60.254 46.382, 60.265 61.229 C 60.272 70.728, 59.939 80.642, 59.524 83.259 C 58.408 90.302, 59.383 90.998, 70.372 91.009 C 75.393 91.014, 86.700 91.455, 95.500 91.988 C 104.300 92.522, 115.259 93.067, 119.853 93.198 C 130.507 93.504, 131.160 92.814, 130.907 81.500 C 130.809 77.100, 131.059 71.842, 131.463 69.815 C 131.897 67.642, 131.726 64.700, 131.047 62.644 C 130.140 59.893, 130.202 57.989, 131.342 53.624 C 133.383 45.805, 132.649 45.116, 120.972 43.899 C 108.161 42.564, 63.871 41.933, 61.863 43.057 M 89.534 47.945 C 89.175 48.525, 89.246 49.014, 89.691 49.030 C 90.136 49.047, 89.600 49.601, 88.500 50.260 C 87.400 50.920, 82.796 51.720, 78.269 52.038 C 71.464 52.515, 69.602 53.025, 67.519 54.982 C 66.134 56.284, 65 57.913, 65 58.602 C 65 60.887, 70.149 63.951, 75.091 64.606 C 85.363 65.969, 85.139 69.855, 74.483 75.158 C 66.238 79.262, 65.994 81.428, 73.427 84.534 C 78.464 86.638, 80.908 85.910, 87.017 80.485 C 89.794 78.018, 92.926 76, 93.976 76 C 95.856 76, 100.347 78.332, 106.763 82.638 C 108.558 83.843, 111.909 85.147, 114.209 85.535 C 118.122 86.196, 118.603 86.010, 121.695 82.636 C 124.930 79.105, 125.929 75.692, 124.064 74.540 C 123.549 74.222, 120.028 73.572, 116.238 73.096 C 108.635 72.141, 103 69.748, 103 67.474 C 103 66.284, 104.742 66, 112.050 66 C 122.312 66, 126.595 64.462, 127.611 60.414 C 128.107 58.439, 127.718 57.485, 125.888 56.182 C 122.544 53.802, 119.684 53.253, 109.941 53.118 C 101.308 52.999, 97.500 51.687, 97.500 48.831 C 97.500 47.202, 90.476 46.421, 89.534 47.945 M 67 112.355 C 65.075 112.985, 62.938 113.864, 62.250 114.309 C 60.530 115.423, 60.676 120.486, 62.472 121.977 C 63.282 122.649, 65.012 125.530, 66.316 128.380 C 67.621 131.229, 69.937 134.897, 71.464 136.530 C 72.991 138.164, 75.320 140.905, 76.641 142.622 C 79.691 146.587, 89.273 151.724, 96 153 C 101.860 154.111, 130.617 155.505, 142 155.229 C 148.314 155.076, 149.777 154.709, 151.250 152.913 C 153.868 149.720, 153.404 145.813, 149.142 135.151 C 147.019 129.843, 144.998 124.310, 144.649 122.854 C 144.300 121.399, 142.578 118.587, 140.823 116.604 C 138.093 113.520, 137.012 113, 133.339 113 C 127.637 113, 125.468 115.965, 126.438 122.433 C 127.021 126.324, 127.633 127.181, 131.410 129.394 C 138.370 133.473, 141.052 139.697, 136.955 142.263 C 134.866 143.572, 128.070 138.851, 124.108 133.339 C 122.463 131.051, 119.447 127.901, 117.407 126.339 C 115.366 124.778, 111.069 121.138, 107.857 118.250 C 102.581 113.507, 98 111.498, 98 113.929 C 98 114.439, 97.332 115.525, 96.516 116.342 C 95.699 117.158, 94.912 119.301, 94.766 121.104 C 94.558 123.664, 95.001 124.638, 96.787 125.552 C 98.046 126.195, 100.119 127.702, 101.394 128.901 C 102.670 130.099, 105.322 131.340, 107.288 131.659 C 109.254 131.978, 112.356 133.501, 114.181 135.043 C 116.950 137.382, 117.318 138.150, 116.399 139.673 C 114.954 142.071, 111.060 142.460, 102.500 141.063 C 89.476 138.937, 87.820 138.211, 83.669 132.813 C 81.561 130.073, 79.362 126.407, 78.782 124.666 C 78.202 122.925, 77.338 121.073, 76.864 120.550 C 76.389 120.027, 76 118.583, 76 117.339 C 76 115.306, 72.464 110.843, 71.061 111.105 C 70.753 111.163, 68.925 111.725, 67 112.355 M 41.287 116.913 C 40.630 117.965, 39.789 121.227, 39.419 124.163 C 39.049 127.098, 37.676 131.880, 36.368 134.790 C 31.555 145.499, 31.245 152.522, 35.540 153.599 C 39.782 154.664, 41.463 153.557, 44.618 147.622 C 49.304 138.808, 52.405 121.494, 50.078 117.145 C 48.566 114.320, 42.997 114.173, 41.287 116.913" stroke="none" fill="black" fill-rule="evenodd"/>
</svg>