<svg xmlns="http://www.w3.org/2000/svg" width="256" height="256" viewBox="0 0 256 256" version="1.1">
	<path d="M 101.792 26.750 C 99.526 29.363, 98.902 34.443, 100.138 40.210 C 101.852 48.199, 101.914 48.180, 74 47.964 C 61.075 47.863, 49.724 47.830, 48.776 47.891 C 45.534 48.096, 44.287 52.946, 43.607 68 C 43.247 75.975, 42.530 87.675, 42.015 94 C 38.080 142.308, 37.953 146.754, 40.399 150.486 C 43.693 155.513, 46.874 152.688, 49.406 142.486 C 50.224 139.194, 51.157 133.800, 51.481 130.500 C 51.805 127.200, 52.469 122.925, 52.956 121 C 53.443 119.075, 54.145 112.775, 54.515 107 C 54.924 100.612, 55.757 95.605, 56.640 94.214 C 58.012 92.056, 58.628 91.945, 67.727 92.214 L 77.360 92.500 78.131 95.387 C 78.933 98.395, 76.966 115.629, 75.561 117.902 C 75.050 118.727, 73.706 118.991, 71.873 118.625 C 69.167 118.083, 63.942 119.610, 64.048 120.911 C 64.074 121.235, 64.862 123.060, 65.798 124.966 C 67.781 129.004, 74.569 133.893, 79.244 134.652 C 84.030 135.429, 87.992 132.056, 88.024 127.177 C 88.038 125.155, 88.514 121.483, 89.082 119.018 C 89.649 116.554, 90.736 110.104, 91.497 104.685 C 92.257 99.267, 93.516 93.858, 94.294 92.667 C 96.907 88.666, 94.561 81.889, 89.894 79.956 C 87.101 78.799, 72.177 79.127, 60.643 80.599 L 55.786 81.218 56.143 72.529 C 56.422 65.736, 56.877 63.563, 58.225 62.577 C 59.525 61.627, 64.949 61.415, 80.225 61.721 C 99.134 62.098, 100.651 62.267, 102.735 64.223 C 103.964 65.376, 105.227 67.935, 105.541 69.910 C 105.855 71.884, 106.967 77.100, 108.012 81.500 C 109.057 85.900, 110.652 92.650, 111.557 96.500 C 113.331 104.050, 113.491 113.393, 111.942 119 C 110.838 122.996, 105.774 129, 103.507 129 C 101.765 129, 98.260 132.702, 95.853 137.085 C 94.523 139.507, 94.421 140.655, 95.322 143.043 C 96.368 145.814, 100 147.333, 100 145 C 100 144.450, 101.525 144, 103.390 144 C 107.691 144, 118.141 136.548, 120.710 131.649 C 122.189 128.828, 122.863 128.373, 124.590 129.026 C 126.811 129.867, 131.118 138.009, 132.960 144.851 C 133.839 148.117, 134.951 149.473, 138.408 151.499 C 143.852 154.689, 146.041 154.017, 151.971 147.336 C 159.429 138.934, 160.745 133.227, 156.411 128.077 C 152.681 123.644, 149.096 123.888, 146.500 128.753 C 145.082 131.409, 143.731 132.589, 141.861 132.806 C 139.462 133.084, 139.065 132.614, 137.503 127.648 C 134.863 119.255, 136.292 111.813, 143.381 97.030 C 146.862 89.771, 147.259 83.570, 144.511 79.376 C 142.348 76.075, 139.965 76.686, 137.502 81.174 C 136.401 83.180, 134.037 87.330, 132.250 90.396 C 130.463 93.461, 129 96.234, 129 96.556 C 129 96.879, 128.370 97.773, 127.599 98.544 C 125.242 100.901, 123.901 97.966, 120.821 83.699 C 116.720 64.704, 116.553 63.394, 118.122 62.425 C 118.865 61.965, 125.104 61.248, 131.986 60.831 C 152.839 59.567, 156 58.519, 156 52.868 C 156 49.261, 153.114 47.414, 146.326 46.675 C 139.298 45.911, 137.298 44.456, 136.549 39.563 C 136.206 37.328, 134.705 33.250, 133.213 30.500 C 130.822 26.093, 130.075 25.464, 126.914 25.199 C 123.033 24.874, 121.642 25.961, 120.659 30.088 C 119.948 33.077, 124.493 41.123, 127.933 42.964 C 129.070 43.573, 130 44.730, 130 45.535 C 130 46.697, 128.396 46.997, 122.250 46.985 C 117.987 46.976, 113.988 46.639, 113.363 46.235 C 112.717 45.818, 112.063 41.888, 111.851 37.152 C 111.523 29.842, 111.184 28.568, 109.127 26.902 C 106.201 24.532, 103.760 24.481, 101.792 26.750" stroke="none" fill="black" fill-rule="evenodd"/>
</svg>