<svg xmlns="http://www.w3.org/2000/svg" width="256" height="256" viewBox="0 0 256 256" version="1.1">
	<path d="M 109 27.665 C 107.625 27.880, 102.900 28.895, 98.500 29.920 C 83.747 33.355, 75.546 34.885, 68.739 35.474 C 55.772 36.594, 54.447 38.255, 53.521 54.563 C 52.492 72.662, 49.614 102.023, 48.135 109.500 C 46.165 119.459, 43.094 129.003, 39.231 137.168 C 33.355 149.588, 32.596 152.382, 34.189 155.722 C 36.221 159.983, 40.641 159.997, 44.753 155.755 C 48.183 152.216, 54.915 134.848, 57.078 123.957 C 57.683 120.909, 58.948 117.395, 59.888 116.149 C 61.571 113.918, 61.775 113.898, 73.049 114.858 C 79.347 115.395, 86.300 115.653, 88.500 115.432 C 101.596 114.117, 119.318 113, 127.087 113 C 138.272 113, 142.371 111.494, 143.836 106.847 C 145.118 102.780, 147 84.026, 147 75.317 C 147 69.762, 146.661 68.632, 144.250 66.139 C 142.738 64.575, 140.584 62.815, 139.464 62.227 C 137.003 60.936, 84.522 62.396, 76 63.993 C 72.975 64.560, 69.487 64.785, 68.250 64.493 C 66.268 64.025, 66.002 63.338, 66.015 58.731 C 66.024 55.854, 66.361 53.005, 66.765 52.400 C 68.127 50.361, 71.878 48.980, 81.353 47.030 C 86.539 45.963, 95.300 43.945, 100.822 42.545 C 106.344 41.145, 112.806 39.997, 115.181 39.994 C 120.539 39.988, 126.411 38.415, 127.935 36.579 C 129.922 34.184, 128.085 29.933, 124.397 28.392 C 121.268 27.085, 114.679 26.774, 109 27.665 M 89 77.036 C 85.425 77.437, 79.082 77.819, 74.905 77.883 C 64.857 78.038, 64.005 78.974, 62.665 91.337 C 61.445 102.586, 61.933 104.500, 65.759 103.485 C 69.356 102.531, 72.868 102.240, 95.500 101.018 C 127.847 99.273, 131.836 98.869, 132.446 97.279 C 132.751 96.484, 133.291 92.058, 133.646 87.444 C 134.116 81.331, 133.947 78.641, 133.023 77.528 C 131.962 76.249, 128.796 76.025, 113.628 76.152 C 103.657 76.236, 92.575 76.634, 89 77.036" stroke="none" fill="black" fill-rule="evenodd"/>
</svg>