<svg xmlns="http://www.w3.org/2000/svg" width="256" height="256" viewBox="0 0 256 256" version="1.1">
	<path d="M 130.917 27.397 C 130.688 27.615, 121.725 28.288, 111 28.891 C 90.318 30.055, 55.479 33.677, 53.050 34.915 C 49.307 36.824, 48.050 40.491, 47.021 52.500 C 45.464 70.652, 44.121 80.869, 42.419 87.500 C 41.572 90.800, 40.485 98, 40.003 103.500 C 39.522 109, 38.645 115.075, 38.054 117 C 37.462 118.925, 36.057 126.008, 34.930 132.739 C 32.593 146.692, 33.225 150.234, 38.149 150.806 C 41.985 151.252, 44.486 147.088, 46.453 136.985 C 47.361 132.318, 48.980 124.225, 50.050 119 C 53.875 100.321, 55 93.732, 55 90.015 C 55 85.513, 56.959 83.564, 60.744 84.302 C 62.804 84.703, 109.251 83.643, 132.500 82.663 C 133.600 82.617, 136.573 82.881, 139.107 83.251 C 143.359 83.871, 143.802 83.729, 144.857 81.414 C 146.215 78.433, 146.358 66.114, 145.058 64.059 C 144.466 63.124, 144.668 61.608, 145.633 59.743 C 147.712 55.723, 147.037 51.817, 144 50.288 C 142.354 49.459, 136.888 49.035, 128 49.046 C 112.513 49.065, 76.484 50.576, 67.272 51.593 C 61.917 52.184, 60.952 52.040, 60.386 50.563 C 60.017 49.601, 60.337 48.250, 61.113 47.492 C 62.610 46.032, 79.756 44.057, 113 41.515 C 138.802 39.542, 140.591 39.256, 143.670 36.607 C 148.951 32.065, 144.390 27, 135.017 27 C 132.991 27, 131.146 27.179, 130.917 27.397 M 80 63.225 C 61.110 64.217, 57.603 65.196, 58.189 69.313 C 58.487 71.407, 58.925 71.494, 68.500 71.355 C 74 71.276, 89.750 71.117, 103.500 71.003 C 117.250 70.889, 129.854 70.393, 131.508 69.900 C 135.342 68.759, 137.610 65.440, 135.935 63.422 C 134.555 61.759, 109.602 61.671, 80 63.225 M 139.755 86.388 C 138.589 87.273, 132.787 87.953, 122.255 88.438 C 102.499 89.348, 103.712 89.346, 90 88.492 C 76.323 87.641, 64.191 89.019, 62.274 91.641 C 60.463 94.116, 60.689 95.763, 63.112 97.760 C 67.790 101.616, 68.118 102.188, 67.430 105.317 C 67.060 107.005, 66.136 109.007, 65.378 109.765 C 64.620 110.523, 64 111.811, 64 112.628 C 64 114.609, 69.990 120, 72.191 120 C 74.461 120, 73.621 122.492, 70 126.500 C 66.248 130.653, 65.668 132.844, 67.558 135.729 C 69.007 137.941, 69.657 138.125, 74.331 137.647 C 77.174 137.357, 81.188 136.818, 83.250 136.450 C 87.503 135.692, 87.757 136.253, 85.551 141.532 C 84.602 143.803, 83.431 145, 82.158 145 C 79.641 145, 78.763 147.386, 80.156 150.443 C 81.541 153.482, 89.644 155.796, 92.865 154.072 C 96.229 152.272, 98 148.810, 98.004 144.027 C 98.006 141.231, 98.790 138.216, 100.054 136.143 C 101.814 133.257, 102.479 132.881, 104.800 133.464 C 117.662 136.696, 123.315 136.520, 133.878 132.562 C 136.285 131.660, 138.498 131.164, 138.794 131.461 C 139.091 131.757, 139.333 133.320, 139.333 134.933 C 139.333 136.963, 138.234 138.966, 135.767 141.433 C 133.805 143.395, 131.705 145, 131.100 145 C 129.169 145, 129.920 148.998, 132.250 151.127 C 143.346 161.262, 148.138 161.358, 150.937 151.500 C 152.241 146.908, 154.194 107.500, 153.415 101.500 C 152.260 92.605, 151.887 91.177, 150.229 89.286 C 146.646 85.199, 142.743 84.120, 139.755 86.388 M 102.851 98.180 C 100.297 100.225, 98.950 123.169, 101.143 127.268 C 102.301 129.432, 102.942 129.358, 113 125.905 C 123.973 122.137, 124.053 122.085, 122.176 119.892 C 121.289 118.856, 119.102 117.735, 117.317 117.400 C 112.391 116.476, 111.963 115.341, 113.597 107.545 C 115.292 99.459, 114.778 98.444, 108.500 97.476 C 105.857 97.069, 103.940 97.308, 102.851 98.180 M 79 99.689 C 73.279 101.872, 72.415 107.261, 77.044 111.891 C 79.996 114.843, 80.038 115.012, 78.429 117.467 C 77.517 118.860, 76.259 120.007, 75.635 120.015 C 74.941 120.025, 75.019 120.359, 75.835 120.877 C 76.570 121.343, 77.132 122.011, 77.085 122.362 C 76.588 126.077, 80.216 128.701, 84.132 127.458 C 85.693 126.963, 86 125.840, 86 120.633 C 86 117.205, 86.415 113.972, 86.923 113.450 C 88.530 111.796, 88.551 103.119, 86.952 101.553 C 85.220 99.858, 81.093 98.890, 79 99.689 M 125.250 101.220 C 122.852 102.377, 122.162 104.992, 124.250 105.011 C 124.938 105.018, 126.337 106.772, 127.361 108.909 C 128.716 111.738, 130.007 112.951, 132.111 113.372 C 135.511 114.052, 135.782 115.784, 132.961 118.811 C 131.327 120.565, 131.228 121, 132.461 121 C 133.307 121, 134 121.434, 134 121.965 C 134 123.395, 138.082 125.320, 139.042 124.343 C 140.099 123.266, 140.616 102.806, 139.627 101.205 C 138.698 99.702, 128.376 99.713, 125.250 101.220" stroke="none" fill="black" fill-rule="evenodd"/>
</svg>