<svg xmlns="http://www.w3.org/2000/svg" width="256" height="256" viewBox="0 0 256 256" version="1.1">
	<path d="M 113.500 30.703 C 110.750 30.891, 103.550 31.696, 97.500 32.492 C 91.450 33.289, 80.689 34.427, 73.587 35.022 C 59.892 36.170, 57.498 36.856, 56.529 39.907 C 55.785 42.252, 54.423 53.586, 52.973 69.500 C 52.371 76.100, 51.476 82.850, 50.983 84.500 C 50.490 86.150, 49.837 90.425, 49.532 94 C 48.740 103.259, 48.295 105.622, 43.974 123.500 C 38.876 144.592, 37.489 154.164, 39.089 157.202 C 41.636 162.038, 44.585 161.564, 49.536 155.521 C 52.529 151.869, 53.002 150.560, 53.018 145.897 C 53.028 142.929, 54.145 135.775, 55.500 130 C 56.855 124.225, 57.972 118.122, 57.982 116.439 C 57.992 114.712, 58.934 112.375, 60.141 111.079 C 61.980 109.106, 62.936 108.864, 66.891 109.374 C 75.498 110.483, 103.362 110.207, 106.500 108.981 C 108.348 108.259, 116.601 107.749, 128 107.654 C 145.936 107.505, 146.599 107.426, 149.750 105.062 C 151.537 103.721, 153 101.864, 153 100.934 C 153 97.134, 150.323 96.512, 132.484 96.169 L 115.269 95.839 111.889 92.751 C 109.802 90.845, 108.985 89.505, 109.754 89.249 C 110.439 89.020, 111 88.235, 111 87.505 C 111 86.015, 113.443 85.539, 129.500 83.904 C 135.550 83.288, 141.326 82.346, 142.335 81.811 C 144.592 80.615, 147.948 73.464, 147.978 69.789 C 147.990 68.299, 147.402 66.520, 146.671 65.838 C 145.721 64.950, 145.558 63.442, 146.099 60.548 C 147.150 54.929, 145.304 52.318, 139.683 51.475 C 133.928 50.612, 90.286 51.761, 82 52.993 C 71.874 54.499, 66 54.300, 66 52.451 C 66 49.865, 73.776 47.047, 81 47.016 C 84.575 47.001, 90.200 46.535, 93.500 45.980 C 96.800 45.426, 106.127 44.296, 114.227 43.470 C 129.742 41.888, 132.776 41.180, 134.874 38.652 C 136.848 36.273, 135.859 33.926, 132.016 31.867 C 128.587 30.030, 125.850 29.858, 113.500 30.703 M 91.691 65.035 C 72.512 66.491, 68.913 67.087, 66.849 69.151 C 65.765 70.235, 65.027 71.883, 65.210 72.811 C 65.503 74.293, 66.829 74.460, 76.022 74.175 C 81.785 73.996, 91.450 73.438, 97.500 72.934 C 103.550 72.430, 113.450 71.994, 119.500 71.967 C 127.897 71.928, 131.260 71.511, 133.710 70.203 C 137.831 68.004, 136.792 66.075, 130.872 64.932 C 125.701 63.933, 105.515 63.986, 91.691 65.035 M 78.579 87.825 L 62.658 89.500 61.735 92.283 C 60.092 97.233, 61.201 98.126, 68.230 97.512 C 76.326 96.804, 88.206 96.144, 94.300 96.064 C 98.394 96.009, 99.632 95.483, 102.727 92.477 C 109.253 86.139, 104.082 85.143, 78.579 87.825 M 80.703 122.160 C 75.864 127.168, 70.961 133.118, 69.806 135.383 C 67.552 139.804, 62.277 147.248, 59.093 150.500 C 54.577 155.113, 56.846 156.753, 64.541 154.438 C 72.195 152.134, 77.031 148.864, 79.226 144.508 C 82.483 138.046, 95.794 124.385, 99.855 123.338 C 104.335 122.182, 125.785 127.638, 127.400 130.344 C 128.330 131.904, 127.900 132.676, 124.613 135.344 C 122.475 137.080, 118.667 140.366, 116.151 142.646 L 111.577 146.793 113.529 150.805 C 115.551 154.963, 123.110 161, 126.293 161 C 128.927 161, 133.621 152.844, 134.304 147.083 C 134.628 144.347, 135.592 140.756, 136.447 139.103 C 137.301 137.451, 138 135.022, 138 133.705 C 138 132.388, 138.920 130.477, 140.045 129.459 C 141.680 127.979, 142.032 126.614, 141.795 122.655 C 141.289 114.171, 140.576 113.944, 112.925 113.462 L 89.500 113.055 80.703 122.160" stroke="none" fill="black" fill-rule="evenodd"/>
</svg>