<svg xmlns="http://www.w3.org/2000/svg" width="256" height="256" viewBox="0 0 256 256" version="1.1">
	<path d="M 125.323 28.418 C 124.676 29.156, 123.718 32.176, 123.194 35.130 C 122.229 40.580, 122.477 109.880, 123.483 115.578 C 123.781 117.270, 124.445 125.274, 124.958 133.364 C 125.744 145.768, 126.254 148.733, 128.208 152.286 C 130.276 156.045, 130.966 156.532, 134.600 156.800 C 140.044 157.200, 141.034 155.824, 139.849 149.500 C 138.111 140.217, 137.648 127.129, 139 125.500 C 139.931 124.378, 142.427 124, 148.900 124 C 159.327 124, 162 122.667, 162 117.466 C 162 114.883, 161.361 113.628, 159.389 112.335 C 157.052 110.804, 155.815 110.747, 147.639 111.791 C 136.717 113.186, 136 112.707, 136 104 C 136 95.395, 137.052 94.543, 147.282 94.864 C 154.998 95.105, 155.935 94.931, 157.287 93 C 160.929 87.802, 155.971 83.670, 145.757 83.391 C 141.931 83.287, 138.338 82.738, 137.772 82.172 C 137.206 81.606, 136.537 78.073, 136.284 74.322 C 135.668 65.159, 136.493 64.226, 145.659 63.734 C 153.807 63.296, 158 61.235, 158 57.668 C 158 51.982, 154.503 50.740, 142.788 52.265 C 137.568 52.945, 136.976 52.823, 135.924 50.858 C 135.291 49.675, 134.438 44.660, 134.028 39.715 C 133.379 31.883, 132.974 30.485, 130.892 28.883 C 128.060 26.706, 126.909 26.610, 125.323 28.418 M 52.500 30.379 C 50.735 31.673, 50.510 32.943, 50.588 41.173 C 50.696 52.644, 50.431 52.925, 39.439 52.968 C 32.736 52.995, 31.008 53.344, 29.189 55.039 C 26.277 57.752, 26.427 60.404, 29.635 62.927 C 31.820 64.646, 33.687 65, 40.576 65 C 46.085 65, 49.139 65.416, 49.645 66.234 C 50.926 68.307, 50.014 91.262, 48.562 93.514 C 47.786 94.717, 43.947 96.648, 39.034 98.306 C 29.310 101.589, 25 104.463, 25 107.665 C 25 113.367, 33.950 114.427, 43.386 109.843 C 45.900 108.622, 48.129 107.820, 48.340 108.061 C 48.551 108.303, 49.016 115.582, 49.374 124.237 C 49.991 139.141, 49.918 140.082, 48.013 141.987 C 46.906 143.094, 46 144.450, 46 145 C 46 145.550, 45.550 146, 45 146 C 44.450 146, 44 147.096, 44 148.435 C 44 156.936, 53.927 164.867, 59.862 161.106 C 62.225 159.609, 62.613 153.154, 61.759 129.500 C 61.303 116.850, 61.191 105.037, 61.510 103.250 C 62.070 100.115, 62.261 100, 66.890 100 C 74.100 100, 76.899 96.156, 73.363 91.108 C 71.952 89.093, 71.114 88.840, 67.288 89.271 C 61.826 89.887, 61.533 89.308, 62.708 80.205 C 63.196 76.419, 63.249 72.022, 62.824 70.435 C 61.667 66.108, 63.079 65.459, 72.801 65.849 C 85.829 66.371, 89.030 66.315, 94.406 65.473 C 98.565 64.822, 99.516 64.985, 100.656 66.544 C 102.305 68.799, 102.410 76.006, 100.844 79.443 C 99.759 81.824, 99.363 81.943, 94.423 81.362 C 86.899 80.478, 84.137 81.427, 82.444 85.480 C 80.731 89.578, 81.403 91.812, 84.587 92.611 C 87.332 93.300, 94.709 92.692, 97.236 91.568 C 99.483 90.570, 101.006 94.326, 100.985 100.815 C 100.962 108.199, 99.383 110.319, 92.978 111.568 C 89.880 112.172, 88.152 112.898, 89 113.239 C 90.365 113.788, 88.881 113.975, 78 114.628 C 76.075 114.743, 73.968 114.874, 73.317 114.919 C 70.794 115.092, 70.681 122, 73.202 122 C 73.745 122, 77.297 124.085, 81.095 126.633 C 88.676 131.720, 89.244 133.088, 86.500 139.654 C 84.569 144.276, 84.503 143.922, 88.042 148 L 91.080 151.500 93.540 148.694 C 94.893 147.151, 96 145.334, 96 144.656 C 96 143.978, 98.026 141.730, 100.501 139.661 C 104.907 135.978, 109 129.344, 109 125.886 C 109 124.929, 109.920 119.501, 111.044 113.824 C 112.841 104.754, 113.084 99.795, 113.048 73 C 113.007 41.800, 112.424 35.514, 109.364 33.277 C 107.118 31.635, 106.474 31.669, 104.611 33.532 C 103.117 35.025, 102.697 36.719, 101.515 46 C 100.601 53.177, 100.284 53.381, 88.893 54.146 C 83.231 54.527, 77.616 54.424, 76.279 53.916 C 74.954 53.412, 71.446 53, 68.485 53 C 61.487 53, 60.830 51.843, 62.780 42.957 C 64.191 36.529, 64.166 35.969, 62.338 32.826 C 60.125 29.023, 55.811 27.950, 52.500 30.379" stroke="none" fill="black" fill-rule="evenodd"/>
</svg>