<svg xmlns="http://www.w3.org/2000/svg" width="256" height="256" viewBox="0 0 256 256" version="1.1">
	<path d="M 51.861 29.915 C 49.676 31.688, 49.505 32.524, 49.562 41.165 C 49.638 52.564, 49.314 52.925, 38.973 52.968 C 30.152 53.005, 27 54.576, 27 58.934 C 27 63.372, 29.287 64.448, 39.898 65 L 49.500 65.500 50.264 80 C 51.137 96.565, 51.243 96.312, 43.027 97.402 C 28.938 99.271, 20.805 106.205, 27.533 110.613 C 30.784 112.744, 39.493 111.987, 45.048 109.092 C 48.701 107.188, 49.016 107.167, 49.833 108.777 C 50.314 109.725, 50.436 116.558, 50.104 123.962 L 49.500 137.424 46.199 138.096 C 42.099 138.931, 41.750 139.281, 41.750 142.552 C 41.750 146.309, 44.873 150.016, 51.101 153.653 C 58.452 157.946, 60.437 158.420, 62.484 156.373 C 63.764 155.093, 64.034 153.676, 63.586 150.589 C 63.260 148.340, 62.723 137.605, 62.392 126.734 C 61.867 109.490, 61.998 106.652, 63.418 104.484 C 64.616 102.656, 65.932 102, 68.401 102 C 70.246 102, 73.396 101.315, 75.400 100.477 C 79.782 98.647, 79.849 98.758, 80.228 108.500 L 80.500 115.500 84.547 117.384 L 88.594 119.268 88.718 128.126 C 88.820 135.388, 89.262 137.739, 91.171 141.169 C 93.874 146.026, 94.859 146.555, 97.540 144.593 C 99.299 143.307, 99.500 141.923, 99.500 131.091 C 99.500 122.422, 99.849 118.888, 100.738 118.547 C 103.474 117.497, 112.003 116.799, 112.050 117.621 C 112.078 118.105, 112.275 123.900, 112.489 130.500 C 112.702 137.100, 112.918 143.784, 112.970 145.354 C 113.123 150.004, 115.917 152.932, 120.236 152.969 C 123.836 152.999, 124.012 152.837, 125.104 148.500 C 126.075 144.647, 126.616 143.983, 128.869 143.885 C 132.974 143.705, 135.416 144.092, 136.450 145.086 C 137.858 146.440, 142.598 146.195, 146.497 144.566 C 150.418 142.927, 151.650 139.840, 150.055 135.646 C 149.475 134.119, 149 129.520, 149 125.425 L 149 117.981 152.945 115.240 C 158.221 111.575, 159.452 108.471, 158.294 101.749 C 157.789 98.820, 157.714 95.160, 158.127 93.616 C 159.025 90.261, 157.790 86.517, 155.495 85.636 C 154.583 85.286, 141.321 85, 126.025 85 C 96.244 85, 85.042 86.250, 80.115 90.125 C 77.251 92.377, 64.890 92.836, 63.280 90.750 C 61.796 88.827, 62.614 65.861, 64.203 64.853 C 64.916 64.401, 67.975 63.944, 71 63.839 C 86.086 63.313, 96.234 63.103, 114.836 62.932 C 132.418 62.770, 135.392 62.964, 136.794 64.365 C 140.076 67.648, 136.974 68.347, 117.483 68.720 C 107.280 68.916, 97.846 69.488, 96.518 69.993 C 95.191 70.498, 93.354 72.056, 92.437 73.455 C 90.876 75.838, 90.881 76.169, 92.507 78.651 L 94.243 81.301 117.009 80.735 C 145.273 80.031, 148 79.035, 148 69.411 C 148 66.371, 148.732 64.994, 152 61.885 C 156.962 57.165, 157.105 54.483, 152.623 50.255 C 149.660 47.460, 149.191 46.323, 148.806 40.996 C 148.479 36.470, 147.808 34.364, 146.175 32.730 C 143.614 30.170, 141.360 30.076, 113.727 31.379 C 93.910 32.313, 91.821 33.017, 91.414 38.898 C 91.014 44.680, 92.846 45.072, 114.220 43.778 C 135.069 42.516, 138 42.972, 138 47.479 C 138 48.865, 137.438 50.034, 136.750 50.076 C 136.063 50.119, 127.557 50.329, 117.848 50.545 C 104.210 50.848, 98.472 51.400, 92.616 52.969 C 84.105 55.250, 77.973 55.573, 76.233 53.833 C 75.591 53.191, 72.013 52.403, 68.283 52.083 L 61.500 51.500 61.768 44.069 C 62.068 35.736, 60.747 30.470, 57.986 28.992 C 55.393 27.605, 54.553 27.731, 51.861 29.915 M 96.116 98.032 C 89.137 99.046, 87.394 101.237, 90.983 104.485 C 92.677 106.018, 94.253 106.206, 101.794 105.776 C 106.649 105.499, 111.577 104.762, 112.743 104.137 C 115.454 102.687, 116.685 99.049, 114.857 97.890 C 113.241 96.867, 103.637 96.939, 96.116 98.032 M 126.250 97.962 C 124.021 98.927, 123.349 101.478, 124.765 103.601 C 125.843 105.217, 137.895 106.159, 142.192 104.964 C 145.953 103.919, 148.100 100.700, 146.262 98.862 C 144.921 97.521, 128.930 96.802, 126.250 97.962 M 126 117.916 C 124.924 118.641, 124.500 120.765, 124.500 125.428 C 124.500 133.856, 125.947 135.586, 130.977 133.170 C 133.576 131.922, 135.168 130.011, 137.280 125.603 C 138.834 122.360, 139.739 119.339, 139.290 118.890 C 137.965 117.565, 127.643 116.809, 126 117.916" stroke="none" fill="black" fill-rule="evenodd"/>
</svg>