<svg xmlns="http://www.w3.org/2000/svg" width="256" height="256" viewBox="0 0 256 256" version="1.1">
	<path d="M 62.077 29.923 C 60.542 31.458, 60.273 32.719, 60.742 36.173 C 61.066 38.553, 61.368 41.850, 61.415 43.500 L 61.500 46.500 50.539 47.178 C 35.464 48.111, 33.517 48.571, 32.176 51.513 C 30.843 54.439, 32.021 58.410, 34.505 59.364 C 35.417 59.714, 39.187 60, 42.882 60 C 46.577 60, 50.112 60.512, 50.737 61.137 C 51.395 61.795, 51.698 64.217, 51.458 66.887 C 51.229 69.424, 50.834 74.525, 50.580 78.223 C 50.327 81.921, 49.420 86.421, 48.565 88.223 C 47.710 90.025, 46.379 96.225, 45.606 102 C 44.833 107.775, 43.038 116.024, 41.616 120.331 C 36.865 134.722, 35.849 146.704, 39.053 150.564 C 40.139 151.872, 40.509 151.849, 42.143 150.370 C 43.165 149.446, 44 148.241, 44 147.692 C 44 147.143, 45.350 143.836, 47 140.344 C 48.650 136.852, 50 133.376, 50 132.619 C 50 130.941, 52.491 124.529, 54.653 120.640 C 56.490 117.337, 59.612 105.406, 60.611 97.875 C 61.544 90.843, 63.895 88.568, 69.330 89.437 C 73.827 90.156, 74.919 91.215, 75.068 95 C 75.644 109.661, 75.158 128.435, 74.084 133 C 71.811 142.664, 70.435 145, 67.016 145 C 63.274 145, 63.202 146.341, 66.750 149.954 C 68.263 151.494, 70.269 154.047, 71.208 155.627 C 72.666 158.078, 73.518 158.487, 77.013 158.410 C 84.146 158.252, 84.204 158.064, 86.965 126.500 C 87.542 119.900, 88.520 111.265, 89.138 107.312 C 89.756 103.359, 89.909 99.309, 89.477 98.312 C 87.980 94.853, 87.901 91.702, 89.224 88.111 C 89.955 86.125, 90.481 83.825, 90.392 83 C 90.303 82.175, 90.179 80.240, 90.115 78.699 C 90.023 76.468, 89.257 75.588, 86.347 74.372 C 83.296 73.097, 81.365 73.024, 74.639 73.929 C 65.191 75.201, 64.300 74.723, 63.855 68.147 C 63.422 61.751, 65.076 60.910, 77.462 61.224 C 89.046 61.518, 92 60.488, 92 56.156 C 92 50.867, 90.051 49.635, 80.515 48.893 C 70.178 48.090, 68.851 47.215, 71.405 42.892 C 73.670 39.057, 73.013 33.707, 69.865 30.357 C 67.180 27.498, 64.643 27.357, 62.077 29.923 M 112.465 30.999 C 109.857 31.996, 108.734 33.557, 107.073 38.500 C 106.333 40.700, 104.890 43.694, 103.864 45.154 C 102.839 46.614, 102 48.418, 102 49.162 C 102 49.907, 100.808 52.755, 99.352 55.491 C 93.401 66.669, 93.411 66.196, 99.020 71.924 C 103.950 76.959, 104 77.075, 104 83.440 C 104 86.976, 103.489 91.137, 102.864 92.685 C 102.239 94.233, 101.794 96.708, 101.875 98.184 C 101.956 99.661, 101.567 101.150, 101.011 101.493 C 99.704 102.301, 99.696 107.694, 101 108.500 C 101.550 108.840, 102 109.954, 102 110.976 C 102 111.997, 102.454 112.985, 103.009 113.170 C 103.563 113.354, 104.654 116.879, 105.431 121.003 C 111.225 151.718, 115.826 157.243, 135.490 157.099 C 139.993 157.066, 146.993 157.670, 151.047 158.443 C 158.943 159.947, 161.135 159.485, 163.046 155.914 C 163.902 154.315, 163.562 151.995, 161.474 145.187 C 160.008 140.409, 158.629 135.906, 158.409 135.180 C 158.189 134.454, 157.010 134.004, 155.788 134.180 C 154.160 134.414, 153.338 135.474, 152.709 138.146 C 152.237 140.151, 150.860 142.722, 149.650 143.859 C 147.646 145.742, 146.827 145.848, 140.475 145.048 C 136.639 144.566, 131.025 143.559, 128 142.812 C 122.819 141.532, 122.494 141.270, 122.400 138.296 C 122.279 134.489, 120.138 129, 118.773 129 C 118.149 129, 118.010 124.703, 118.394 117.250 C 119.450 96.758, 119.333 97.500, 121.525 97.500 C 123.183 97.500, 123.740 98.703, 124.996 104.996 C 125.818 109.118, 127.107 113.230, 127.859 114.132 C 132.334 119.499, 134.032 120.925, 135.346 120.421 C 137.617 119.549, 137.913 116.725, 136.993 104.684 C 136.259 95.071, 136.375 93.018, 137.819 90.069 C 140.313 84.977, 142.663 83.937, 145.063 86.861 C 146.678 88.830, 147.017 90.905, 147.100 99.361 C 147.221 111.752, 147.808 114.046, 151.352 115.985 C 153.948 117.405, 154.236 117.360, 155.957 115.267 C 157.153 113.813, 158.040 110.497, 158.500 105.767 C 158.888 101.770, 159.352 97.261, 159.531 95.746 C 159.897 92.639, 160.250 82.765, 160.021 82 C 159.939 81.725, 159.721 79.940, 159.535 78.034 C 159.315 75.770, 158.243 73.746, 156.444 72.198 C 153.921 70.028, 153.119 69.886, 146.933 70.507 L 140.177 71.185 136.206 67.093 C 133.270 64.068, 131.439 63, 129.188 63 C 124.017 63, 122.800 65.196, 123.580 73.120 C 124.174 79.142, 124.051 80, 122.594 80 C 118.484 80, 110 70.811, 110 66.360 C 110 61.646, 112.623 61.116, 132.909 61.729 C 146.249 62.132, 153.110 61.933, 156.853 61.035 C 163.134 59.528, 165.592 56.687, 164.072 52.689 C 162.820 49.397, 161.341 49.169, 138 48.676 C 127.825 48.461, 118.671 47.932, 117.657 47.500 C 116.203 46.880, 115.951 46.061, 116.464 43.607 C 118.202 35.287, 118.182 33.475, 116.333 31.841 C 115.108 30.759, 113.825 30.480, 112.465 30.999" stroke="none" fill="black" fill-rule="evenodd"/>
</svg>