<svg xmlns="http://www.w3.org/2000/svg" width="256" height="256" viewBox="0 0 256 256" version="1.1">
	<path d="M 55 28.322 C 52.863 29.427, 52.529 30.238, 52.699 33.905 C 52.808 36.265, 53.632 39.316, 54.529 40.684 C 55.426 42.053, 56.011 43.299, 55.830 43.451 C 53.894 45.082, 50.123 46.004, 45.316 46.024 C 34.093 46.070, 29 48.415, 29 53.536 C 29 57.406, 32.506 59.407, 40.034 59.832 L 46.920 60.221 46.409 68.361 C 45.893 76.579, 45.195 79.991, 41.982 90 C 41.011 93.025, 39.907 98.875, 39.529 103 C 39.151 107.125, 38.424 111.850, 37.913 113.500 C 34.678 123.945, 31.981 135.069, 31.846 138.526 C 31.694 142.453, 33.299 147, 34.839 147 C 36.040 147, 41.477 140.777, 42.702 138 C 46.735 128.861, 51.006 113.416, 53.445 99.149 C 54.254 94.422, 55.619 89.974, 56.592 88.899 C 58.771 86.491, 62.129 86.474, 65.070 88.855 C 67.293 90.656, 67.358 91.184, 67.270 106.759 C 67.133 131.137, 65.497 141, 61.591 141 C 59.263 141, 59.022 146.193, 61.127 150.988 C 66.708 163.696, 73.845 162.836, 77.605 149 C 79.142 143.345, 79.360 138.064, 79.283 108.362 C 79.204 78.427, 78.990 73.915, 77.544 71.707 C 74.759 67.458, 69.065 67.141, 66.937 71.118 C 65.445 73.906, 60.199 73.659, 59.103 70.750 C 56.836 64.736, 56.825 62.175, 59.054 59.946 C 60.925 58.075, 61.904 57.860, 65.870 58.448 C 68.416 58.826, 72.933 59.489, 75.907 59.922 C 79.437 60.435, 81.770 61.366, 82.629 62.604 C 90.850 74.446, 92.642 75.899, 96.414 73.788 C 98.333 72.714, 106.034 77.826, 107.982 81.467 C 109.754 84.777, 109.037 114.046, 107.128 116.346 C 106.267 117.383, 104.215 118.012, 101.628 118.032 C 96.428 118.072, 94 119.876, 94 123.700 C 94 127.092, 96.956 129, 102.209 129 C 106.075 129, 116 132.053, 116 133.242 C 116 133.724, 115.550 133.840, 115 133.500 C 114.450 133.160, 114 133.304, 114 133.820 C 114 134.335, 112.656 135.314, 111.014 135.994 C 108.740 136.936, 107.178 138.999, 104.459 144.653 C 100.373 153.147, 100.507 156, 104.991 156 C 108.156 156, 112.339 152.884, 116.892 147.136 C 121.058 141.876, 121.691 138.691, 119.087 136.087 C 117.939 134.939, 117 133.631, 117 133.179 C 117 132.355, 135.546 132.664, 139.750 133.559 C 142.537 134.152, 142.666 135.654, 140.002 136.499 C 137.746 137.215, 136.496 140.887, 137.364 144.250 C 138.260 147.727, 145.129 155.714, 148.758 157.499 C 151.522 158.859, 152.430 158.903, 154.746 157.793 C 156.247 157.074, 157.610 155.784, 157.775 154.928 C 158.220 152.619, 148.415 138.146, 145.509 136.822 C 144.129 136.193, 143 135.337, 143 134.920 C 143 133.945, 151.220 131.254, 156.864 130.382 C 166.533 128.888, 169.010 121.822, 160.989 118.612 C 158.773 117.726, 155.870 117, 154.539 117 C 153.207 117, 151.853 116.571, 151.529 116.047 C 151.205 115.523, 150.795 107.535, 150.619 98.297 L 150.297 81.500 154.649 77.379 C 157.042 75.113, 158.998 72.413, 158.995 71.379 C 158.989 69.031, 153.273 62.710, 149.295 60.652 C 146.455 59.184, 146.112 59.238, 142.403 61.728 C 140.256 63.169, 138.259 64.703, 137.964 65.137 C 137.012 66.537, 122.595 66.619, 120.978 65.233 C 118.057 62.728, 112.466 58.983, 110.750 58.381 C 109.787 58.043, 109 57.384, 109 56.917 C 109 55.525, 102.651 59.720, 100.610 62.462 C 99.570 63.858, 98.333 65, 97.860 65 C 96.446 65, 96.887 58.606, 98.456 56.367 C 100.660 53.220, 112.259 51.752, 136 51.617 C 157.423 51.495, 160.234 50.990, 161.488 47.039 C 161.830 45.959, 161.651 44.216, 161.088 43.165 C 159.222 39.679, 152.087 38.801, 128.500 39.158 L 106.500 39.491 106.195 34.732 C 105.956 31.010, 105.367 29.632, 103.494 28.404 C 98.889 25.387, 97.066 27.146, 93.030 38.500 C 91.857 41.800, 89.800 45.757, 88.459 47.293 L 86.021 50.087 81.261 48.433 C 78.642 47.524, 73.437 46.429, 69.693 46 C 65.949 45.570, 62.574 44.906, 62.193 44.523 C 61.812 44.141, 62.513 43.007, 63.750 42.004 C 66.437 39.825, 66.660 35.997, 64.320 32.215 C 61.062 26.951, 59.176 26.163, 55 28.322 M 122.079 80.243 C 120.747 80.934, 119.485 82.024, 119.274 82.665 C 118.669 84.499, 121.891 84.961, 130 84.202 C 136.599 83.584, 137.500 83.260, 137.500 81.500 C 137.500 79.732, 136.748 79.470, 131 79.243 C 127.220 79.093, 123.487 79.511, 122.079 80.243 M 128.500 94.930 C 115.260 96.008, 114.343 99.770, 127.149 100.470 C 131.267 100.695, 135.056 100.959, 135.568 101.058 C 137.733 101.474, 138.798 100.880, 139.294 98.982 C 139.792 97.081, 137.655 93.788, 136.179 94.180 C 135.805 94.279, 132.350 94.617, 128.500 94.930 M 128.399 111.902 C 122.048 112.437, 118 114.001, 118 115.922 C 118 118.649, 136.504 120.832, 139.668 118.477 C 141.356 117.220, 141.380 116.893, 139.966 114.314 C 138.220 111.128, 138.041 111.091, 128.399 111.902" stroke="none" fill="black" fill-rule="evenodd"/>
</svg>