<svg xmlns="http://www.w3.org/2000/svg" width="256" height="256" viewBox="0 0 256 256" version="1.1">
	<path d="M 56.345 28.369 C 54.610 29.169, 52.895 30.754, 52.534 31.892 C 52.173 33.030, 52.392 41.114, 53.020 49.856 C 53.842 61.285, 53.861 66.839, 53.087 69.625 C 51.566 75.104, 51.724 76.724, 54.004 79.004 C 55.961 80.961, 56.914 80.994, 95.754 80.422 C 119.732 80.070, 136.606 79.419, 138.288 78.782 C 142.078 77.347, 142.994 75.228, 143.033 67.816 C 143.051 64.342, 143.508 58.350, 144.049 54.500 C 145.988 40.697, 146.250 37.144, 145.586 33.606 C 144.751 29.154, 143.639 28.822, 128.701 28.568 C 122.540 28.463, 104.450 28.048, 88.500 27.646 C 64.119 27.031, 58.998 27.146, 56.345 28.369 M 65.750 40.689 C 63.584 43.125, 63.547 44.379, 65.589 46.074 C 66.826 47.101, 74.186 47.409, 98.839 47.466 C 116.253 47.506, 131.063 47.137, 131.750 46.647 C 133.919 45.099, 133.167 42.014, 130.360 40.947 C 128.909 40.395, 114.171 39.668, 97.610 39.332 C 68.512 38.741, 67.441 38.786, 65.750 40.689 M 87.523 60 L 65.546 60.500 64.559 63.309 C 63.868 65.275, 63.908 66.325, 64.691 66.809 C 65.306 67.189, 80.590 67.500, 98.655 67.500 C 130.777 67.500, 131.506 67.456, 131.788 65.493 C 131.946 64.389, 131.459 62.642, 130.706 61.612 C 129.097 59.412, 123.144 59.190, 87.523 60 M 92.500 86.098 C 85.900 86.482, 72.175 87.110, 62 87.493 C 40.106 88.316, 36.465 89.010, 35.582 92.531 C 34.739 95.886, 36.262 98.452, 40.019 100.008 C 42.404 100.996, 46.832 101.097, 59.307 100.449 C 68.213 99.987, 80.675 99.584, 87 99.554 C 96.766 99.508, 98.434 99.726, 98.063 101 C 97.822 101.825, 97.597 108.575, 97.562 116 C 97.473 135.068, 96.768 135.899, 84 132 C 80.425 130.908, 76.653 130.012, 75.617 130.008 C 71.746 129.992, 67.870 121.435, 70.889 119.568 C 71.378 119.266, 72.089 117.782, 72.469 116.269 C 72.848 114.757, 73.685 113.171, 74.329 112.745 C 75.132 112.214, 74.473 111.031, 72.234 108.985 C 67.015 104.214, 61.620 105.107, 59.006 111.175 C 58.455 112.454, 57.454 114.400, 56.780 115.500 C 54.489 119.240, 47.608 129.498, 47.053 130 C 43.875 132.875, 35.994 148, 37.674 148 C 37.988 148, 37.744 148.604, 37.131 149.342 C 35.679 151.092, 36.678 152, 40.057 152 C 41.761 152, 45.118 150.224, 49.031 147.250 C 58.062 140.388, 60.280 139.011, 62.312 139.005 C 63.308 139.002, 67.358 140.557, 71.312 142.460 C 76.723 145.064, 81.219 146.310, 89.500 147.502 C 95.550 148.372, 104.550 150.078, 109.500 151.292 C 116.610 153.036, 121.336 153.490, 132 153.450 C 148.744 153.388, 152.541 152.321, 153.931 147.289 C 155.027 143.319, 154.114 140.641, 151.295 139.560 C 150.327 139.188, 144.521 139.193, 138.392 139.570 C 129.613 140.111, 125.628 139.896, 119.600 138.554 C 110.622 136.557, 108.345 134.308, 109.432 128.512 C 110.222 124.301, 110.514 124.217, 126.079 123.740 C 139.780 123.319, 144.288 121.544, 144.801 116.366 C 145.286 111.478, 143.362 110.728, 128.184 109.888 C 111.812 108.981, 110.510 108.645, 108.968 104.923 C 106.563 99.117, 107.534 98.719, 122.258 99.483 C 136.033 100.198, 151.153 98.948, 153.634 96.889 C 155.574 95.279, 155.325 91.622, 153.087 88.861 C 151.235 86.577, 150.676 86.496, 135.837 86.376 C 127.401 86.308, 116.900 86.060, 112.500 85.825 C 108.100 85.591, 99.100 85.713, 92.500 86.098" stroke="none" fill="black" fill-rule="evenodd"/>
</svg>