<svg xmlns="http://www.w3.org/2000/svg" width="256" height="256" viewBox="0 0 256 256" version="1.1">
	<path d="M 71.649 30.973 C 59.111 31.520, 58.739 31.602, 56.382 34.342 L 53.967 37.150 54.216 63.146 C 54.491 91.867, 54.346 91.257, 60.977 91.504 C 67.836 91.761, 72.415 96.751, 68.655 99.872 C 67.915 100.486, 65.777 101.283, 63.905 101.642 C 60.772 102.245, 55.929 104.956, 53.500 107.468 C 51.671 109.360, 44.526 118.309, 42.757 120.923 C 39.729 125.397, 40.929 135, 44.515 135 C 46.289 135, 53.264 127.552, 56.987 121.682 C 59.237 118.134, 60.830 116.934, 65.705 115.110 C 71.794 112.833, 76.386 112.958, 77.333 115.425 C 77.596 116.110, 76.058 118.881, 73.916 121.585 C 71.774 124.288, 70.016 126.900, 70.011 127.390 C 70.005 127.879, 69.396 128.779, 68.658 129.390 C 67.920 130, 66.291 132.975, 65.039 136 C 63.786 139.025, 61.240 143.585, 59.381 146.134 C 55.831 151, 55.199 153.799, 57.200 155.800 C 59.564 158.164, 61.969 156.887, 69.537 149.250 C 74.785 143.954, 78.241 139.397, 80.450 134.860 C 82.228 131.207, 84.664 126.972, 85.863 125.447 C 88.714 121.822, 89.530 118.343, 87.969 116.463 C 87.279 115.632, 86.892 114.783, 87.107 114.577 C 87.580 114.126, 100.184 113.593, 104.750 113.831 C 106.912 113.943, 108 114.507, 108 115.515 C 108 116.823, 101.559 127.585, 99.930 129 C 99.613 129.275, 99.049 130.175, 98.677 131 C 98.305 131.825, 96.425 134.525, 94.500 137 C 92.575 139.475, 90.696 142.175, 90.325 143 C 89.954 143.825, 89.054 144.860, 88.325 145.300 C 87.596 145.740, 87 146.729, 87 147.499 C 87 148.955, 92.954 154, 94.673 154 C 95.214 154, 97.717 152.636, 100.235 150.968 C 104.132 148.386, 105.663 146.270, 110.542 136.718 C 113.693 130.548, 116.806 123.250, 117.461 120.500 C 118.489 116.175, 119.045 115.415, 121.575 114.868 C 126.959 113.706, 137.807 113.921, 138.233 115.199 C 138.705 116.616, 136.810 127.538, 134.939 134.184 C 133.795 138.248, 133.084 139.089, 129.560 140.541 C 123.136 143.190, 119.596 145.147, 118.289 146.770 C 116.734 148.703, 118.770 150.319, 129.186 155.415 C 139.968 160.690, 142.060 159.754, 143.512 149.008 C 143.920 145.988, 145.513 140.363, 147.052 136.508 C 149.677 129.933, 152 115.878, 152 106.575 C 152 100.652, 151.514 100.576, 113 100.536 C 78.967 100.500, 78.496 100.472, 78.206 98.445 C 78.044 97.312, 78.877 95.517, 80.063 94.445 C 81.939 92.750, 83.837 92.485, 94.857 92.384 C 111.622 92.231, 135.549 91.110, 137.425 90.391 C 139.806 89.477, 140.312 86.335, 140.225 73 C 140.180 66.125, 140.543 55.963, 141.030 50.419 C 142.715 31.272, 142.785 31.315, 109 30.792 C 95.525 30.583, 78.717 30.665, 71.649 30.973 M 83.667 43.869 C 66.905 44.582, 66 45.016, 66 52.338 L 66 56.294 77.750 55.497 C 84.213 55.059, 98.275 54.431, 109 54.100 L 128.500 53.500 128.801 49.914 C 128.977 47.805, 128.550 45.872, 127.764 45.219 C 126.020 43.771, 102.719 43.058, 83.667 43.869 M 92.706 67.990 C 73.055 69.206, 67.717 69.832, 66.971 71.012 C 65.757 72.933, 65.760 74.683, 66.982 76.966 C 67.903 78.687, 69.766 78.792, 96.830 78.649 C 119.635 78.529, 126.044 78.209, 127.348 77.126 C 129.291 75.514, 129.554 69.685, 127.750 68.253 C 125.521 66.485, 117.952 66.428, 92.706 67.990" stroke="none" fill="black" fill-rule="evenodd"/>
</svg>