<svg xmlns="http://www.w3.org/2000/svg" width="256" height="256" viewBox="0 0 256 256" version="1.1">
	<path d="M 115.872 26.661 C 114.971 27.752, 114.557 30.583, 114.665 34.904 C 114.768 38.994, 114.389 41.767, 113.665 42.228 C 113.024 42.636, 108.675 42.979, 104 42.990 C 99.325 43.002, 93.892 43.458, 91.926 44.004 C 87.311 45.286, 83.597 49.156, 84.439 51.807 C 85.545 55.292, 90.174 56.354, 101.314 55.678 C 106.917 55.338, 112.156 55.468, 112.957 55.967 C 114.338 56.826, 116.034 67.398, 115.195 69.914 C 114.966 70.601, 111.063 71, 104.566 71 C 89.957 71, 84.996 73.214, 87.102 78.794 C 88.840 83.399, 93.748 84.323, 113.149 83.699 C 132.167 83.088, 133.722 83.407, 134.104 88 C 134.719 95.421, 133.418 95.823, 108.871 95.810 C 96.874 95.804, 88.468 96.214, 87.252 96.865 C 86.156 97.452, 84.806 99.723, 84.249 101.918 C 83.411 105.218, 83.518 106.145, 84.868 107.300 C 87.648 109.678, 88.887 109.757, 111.500 108.986 C 127.469 108.441, 133.834 108.547, 134.718 109.372 C 136.403 110.943, 136.641 131.623, 135.014 135.122 C 134.221 136.828, 132.469 138.142, 130.001 138.882 C 127.914 139.507, 125.946 140.698, 125.627 141.529 C 124.916 143.382, 132.640 155.292, 135.673 157.018 C 138.634 158.704, 142.613 157.521, 144.702 154.333 C 146.488 151.606, 146.625 150.133, 147.420 125 C 147.655 117.575, 147.882 110.730, 147.924 109.789 C 147.975 108.643, 149.404 107.707, 152.250 106.957 C 158.525 105.304, 161.001 103.398, 160.993 100.227 C 160.984 96.489, 155.796 93, 150.247 93 C 147.976 93, 145.834 92.541, 145.488 91.980 C 144.336 90.117, 147.102 84.063, 150.072 81.949 C 153.808 79.288, 153.954 75.671, 150.417 73.354 C 148.879 72.346, 143.922 71.224, 138.167 70.580 C 132.850 69.986, 128.019 69.186, 127.430 68.803 C 126.842 68.419, 126.287 65.430, 126.197 62.161 C 125.964 53.719, 126.462 53.459, 140.276 54.808 C 152.936 56.044, 156.435 55.645, 158.477 52.729 C 159.697 50.987, 159.700 50.321, 158.496 47.992 C 156.450 44.036, 152.944 43.025, 138.473 42.221 L 125.500 41.500 125.774 36.500 C 126.253 27.740, 120.063 21.589, 115.872 26.661 M 67.500 40.068 C 64.750 40.511, 55.976 41.342, 48.003 41.914 C 31.592 43.092, 30.313 43.723, 31.614 50 C 32.013 51.925, 32.426 66.325, 32.532 82 C 32.732 111.693, 33.516 118.843, 37.063 123.353 C 38.895 125.681, 39.428 125.778, 49.239 125.558 C 60.371 125.309, 71.642 123.466, 74.408 121.444 C 76.479 119.929, 76.873 115.846, 77.394 90.500 C 77.597 80.600, 78.329 65.646, 79.020 57.270 C 80.632 37.738, 80.762 37.932, 67.500 40.068 M 54.500 53.092 C 51.200 53.582, 48.003 54.659, 47.395 55.484 C 46.164 57.156, 44.784 69.274, 45.586 71.365 C 45.971 72.368, 48.278 72.642, 54.800 72.458 C 63.265 72.219, 63.539 72.135, 64.937 69.356 C 65.752 67.736, 66.402 63.470, 66.437 59.500 L 66.500 52.500 63.500 52.350 C 61.850 52.267, 57.800 52.601, 54.500 53.092 M 45.991 87.523 C 45.419 89.029, 45.328 94.775, 45.766 101.773 L 46.500 113.500 49 113.273 C 57.365 112.513, 62.658 111.604, 63.750 110.742 C 65.453 109.397, 65.497 87.897, 63.800 86.200 C 63.071 85.471, 59.528 85, 54.775 85 C 47.330 85, 46.904 85.122, 45.991 87.523 M 95.210 123.277 C 93.699 124.885, 93.249 126.280, 93.680 128.027 C 94.550 131.561, 95.584 132.615, 101.489 135.994 C 107.344 139.343, 109.535 139.642, 113.432 137.620 L 116.092 136.240 112.508 132.440 C 110.537 130.350, 109.141 128.075, 109.406 127.384 C 109.671 126.693, 108.981 124.974, 107.872 123.564 C 105.130 120.078, 98.359 119.925, 95.210 123.277" stroke="none" fill="black" fill-rule="evenodd"/>
</svg>