<svg xmlns="http://www.w3.org/2000/svg" width="256" height="256" viewBox="0 0 256 256" version="1.1">
	<path d="M 59.255 25.177 C 53.610 26.703, 52.709 29.351, 53.452 42.226 C 53.809 48.427, 54.285 57.269, 54.509 61.875 C 55.098 73.997, 55.037 73.957, 71.435 73.269 C 85.548 72.677, 90 73.191, 90 75.412 C 90 77.878, 86.804 78.317, 63.819 79.003 C 39.766 79.721, 36.991 80.302, 35.520 84.936 C 34.396 88.480, 36.614 90.781, 42.247 91.912 C 49.085 93.285, 127.924 93.186, 138 91.791 C 147.246 90.511, 150 88.961, 150 85.036 C 150 83.431, 149.438 81.754, 148.750 81.309 C 148.063 80.864, 141.425 80.453, 134 80.396 C 115.416 80.254, 106.482 79.227, 103.733 76.917 C 99.734 73.557, 102.942 72.864, 119.146 73.590 L 133.793 74.246 135.394 71.802 C 136.663 69.865, 137.120 65.309, 137.596 49.849 C 138.310 26.673, 138.439 27, 128.640 27 C 125.220 27, 114.549 26.335, 104.925 25.522 C 86.048 23.927, 64.480 23.765, 59.255 25.177 M 67.352 37.015 C 64.397 38.178, 63.716 39.602, 64.985 41.971 C 66.020 43.906, 66.975 43.979, 89.781 43.869 C 102.826 43.806, 115.542 44.072, 118.038 44.459 C 121.674 45.023, 123.029 44.797, 124.849 43.323 C 128.420 40.432, 126.803 38.221, 120.667 37.603 C 110.950 36.626, 69.504 36.168, 67.352 37.015 M 64.823 57.489 C 64.192 58.875, 63.926 60.259, 64.233 60.566 C 64.539 60.873, 77.919 61.154, 93.966 61.190 C 124.378 61.260, 126.722 60.955, 124.369 57.222 C 123.389 55.668, 120.482 55.474, 94.627 55.235 L 65.971 54.969 64.823 57.489 M 67 97.930 C 61.506 98.739, 58.297 100.680, 57.554 103.641 C 56.878 106.333, 58.293 113.209, 61.331 122 C 63.447 128.126, 63.771 128.519, 66.956 128.826 C 69.250 129.047, 70.619 128.645, 71.217 127.576 C 72.552 125.192, 85.403 125.394, 90.016 127.872 C 93.664 129.832, 94.284 131.713, 92.697 136 C 92.188 137.375, 91.809 139.963, 91.855 141.750 C 91.936 144.889, 91.803 145, 87.938 145 C 83.518 145, 82.180 146.600, 83.906 149.824 C 85.547 152.890, 94.473 159, 97.311 159 C 100.064 159, 103.771 155.140, 104.431 151.588 C 106.411 140.928, 106.771 136.690, 105.942 133.799 C 104.691 129.436, 105.968 128.429, 114.201 127.292 C 121.142 126.332, 125.730 127.290, 122.870 129.102 C 122.116 129.579, 120.509 129.976, 119.297 129.985 C 116.533 130.004, 112 132.021, 112 133.232 C 112 133.733, 111.335 134.808, 110.522 135.621 C 109.347 136.796, 109.286 137.486, 110.227 138.991 C 111.342 140.778, 118.134 144, 120.783 144 C 121.453 144, 122 144.420, 122 144.933 C 122 145.446, 122.930 146.160, 124.066 146.521 C 125.202 146.881, 127.651 148.511, 129.509 150.142 C 133.445 153.598, 139.193 154.914, 141.605 152.913 C 142.874 151.860, 143.098 150.473, 142.633 146.547 C 141.894 140.310, 139.634 137.196, 134.591 135.467 C 130.085 133.922, 125.775 130.036, 127.750 129.300 C 128.438 129.043, 129 127.854, 129 126.657 C 129 125.460, 129.880 123.931, 130.956 123.259 C 132.032 122.587, 133.413 120.179, 134.025 117.907 C 134.740 115.251, 135.827 113.597, 137.069 113.272 C 139.238 112.705, 139.623 111.374, 137.794 110.765 C 137.054 110.518, 136.682 108.757, 136.833 106.211 C 137.065 102.277, 136.878 101.973, 133.289 100.417 C 127.285 97.816, 79.857 96.036, 67 97.930 M 86 108.664 C 72.050 109.062, 70 109.475, 70 111.885 C 70 113.845, 69.315 113.788, 111 115.271 C 120.362 115.604, 124.620 114.811, 123.469 112.950 C 123.146 112.427, 123.359 112, 123.941 112 C 126.192 112, 124.859 110.132, 122.250 109.632 C 117.989 108.814, 98.735 108.300, 86 108.664 M 83.269 112.693 C 84.242 112.947, 85.592 112.930, 86.269 112.656 C 86.946 112.382, 86.150 112.175, 84.500 112.195 C 82.850 112.215, 82.296 112.439, 83.269 112.693 M 74.865 130.278 C 74.109 131.034, 72.022 131.946, 70.226 132.305 C 66.656 133.019, 65.954 133.492, 59.213 139.732 C 56.698 142.059, 53.168 144.449, 51.368 145.044 C 49.568 145.638, 47.819 146.996, 47.480 148.062 C 44.218 158.341, 63.138 157.324, 76.545 146.500 C 83.937 140.532, 84.242 139.812, 81.019 135.903 C 79.929 134.581, 78.666 133.050, 78.213 132.500 C 77.759 131.950, 77.338 131.125, 77.277 130.667 C 77.063 129.054, 76.224 128.919, 74.865 130.278" stroke="none" fill="black" fill-rule="evenodd"/>
</svg>