<svg xmlns="http://www.w3.org/2000/svg" width="256" height="256" viewBox="0 0 256 256" version="1.1">
	<path d="M 108.626 33.121 C 83.028 34.029, 80.221 34.723, 81.483 39.831 C 81.846 41.299, 83.187 43.625, 84.462 45 C 86.431 47.122, 86.855 48.862, 87.264 56.500 C 87.719 64.994, 87.608 65.648, 85.302 68.128 C 83.958 69.574, 82.725 71.599, 82.561 72.628 C 82.184 75.002, 84.661 79.973, 86.276 80.084 C 86.949 80.130, 90.019 80.242, 93.097 80.334 C 98.294 80.488, 102 82.059, 102 84.109 C 102 84.584, 100.313 85.696, 98.250 86.579 C 94.033 88.385, 82.003 88.055, 76.242 85.975 L 72.984 84.799 73.644 68.017 C 74.291 51.541, 74.261 51.175, 71.978 47.970 L 69.654 44.705 50.702 45.277 C 39.536 45.615, 31.317 46.283, 30.696 46.904 C 29.359 48.241, 29.350 93.194, 30.683 111.881 C 31.476 123.002, 31.946 125.488, 33.470 126.601 C 34.898 127.646, 38.962 127.829, 51.901 127.429 C 65.770 127.001, 68.780 126.636, 70.202 125.208 C 71.581 123.823, 71.938 121.323, 72.088 112 C 72.189 105.675, 72.644 100.024, 73.098 99.443 C 73.991 98.301, 93.471 99.885, 95.671 101.278 C 96.536 101.827, 96.321 103.516, 94.845 107.760 C 92.570 114.301, 90.843 117.234, 86.754 121.500 C 85.173 123.150, 82.826 126.525, 81.539 129 C 80.251 131.475, 78.028 134.591, 76.599 135.924 C 75.170 137.258, 74 138.945, 74 139.674 C 74 140.403, 73.622 141, 73.161 141 C 70.596 141, 68.722 152.882, 71.250 153.115 C 77.025 153.647, 85.341 147.471, 91.674 137.947 C 97.466 129.236, 99.710 128.840, 106.482 135.329 C 112.538 141.131, 112.719 144.534, 107.023 145.496 C 101.962 146.351, 96.592 149.935, 96.188 152.727 C 95.577 156.956, 105.732 159.573, 112.610 156.958 C 114.117 156.385, 117.120 154.317, 119.284 152.362 C 123.903 148.189, 123.431 148.139, 138.767 154.436 C 154.277 160.804, 160 160.673, 160 153.950 C 160 150.451, 156.474 147.515, 149.941 145.575 C 141.011 142.923, 137.843 139.822, 139.773 135.625 C 142.114 130.538, 143 127.748, 143 125.467 C 143 123.728, 144.152 122.266, 147.017 120.370 C 151.768 117.226, 153.024 113.790, 150.460 110.955 C 147.821 108.040, 143.210 107.213, 125.291 106.444 C 111.530 105.853, 108.836 105.477, 107.457 103.952 C 105.942 102.278, 106.006 102.042, 108.394 100.477 C 110.620 99.019, 111.979 98.936, 118.729 99.844 C 130.256 101.395, 152.815 100.321, 156 98.069 C 158.671 96.181, 159.857 91.457, 158.102 89.702 C 157.120 88.720, 141.099 88.006, 119.941 88.002 C 109.997 88, 106.230 86.411, 109.147 83.450 C 110.989 81.580, 121.782 81.090, 141.142 82 C 150.454 82.438, 152.034 82.273, 153.792 80.685 C 156.367 78.359, 157.146 75.366, 155.525 74.021 C 154.828 73.442, 151.926 72.276, 149.076 71.430 C 146.227 70.584, 143.657 69.271, 143.366 68.512 C 143.071 67.742, 145.305 64.222, 148.418 60.553 C 152.669 55.542, 154.003 53.201, 154.015 50.737 C 154.023 48.956, 154.712 45.538, 155.547 43.141 C 157.467 37.627, 156.687 35.185, 152.436 33.409 C 148.734 31.862, 144.809 31.836, 108.626 33.121 M 98 45.732 C 93.291 46.598, 93.015 47.815, 96.695 51.495 C 99.905 54.705, 100.129 55.340, 99.888 60.550 C 99.703 64.552, 100.039 66.412, 101.064 67.061 C 102.800 68.159, 109.710 68.301, 110.310 67.250 C 110.546 66.838, 110.260 63.679, 109.676 60.230 C 108.856 55.393, 108.910 53.137, 109.916 50.357 C 111.001 47.356, 110.991 46.609, 109.859 45.892 C 108.458 45.004, 102.403 44.922, 98 45.732 M 121.657 45.707 C 120.247 46.071, 119.996 46.690, 120.587 48.341 C 121.635 51.268, 121.661 61.863, 120.628 65.235 C 119.887 67.654, 120.115 68.093, 122.600 69.038 C 126.182 70.400, 132.657 69.336, 133.456 67.255 C 133.792 66.378, 133.688 65.399, 133.225 65.080 C 132.761 64.761, 132.768 62.612, 133.239 60.304 C 134.081 56.185, 137.641 51.388, 141.404 49.303 C 142.603 48.639, 143.078 47.646, 142.686 46.624 C 142.168 45.275, 140.493 45.020, 132.781 45.116 C 127.677 45.180, 122.671 45.446, 121.657 45.707 M 44.852 57.058 C 42.667 58.287, 41.242 71.215, 42.941 74.390 C 43.987 76.345, 44.898 76.564, 51.803 76.526 C 56.037 76.502, 60.122 76.086, 60.883 75.600 C 61.951 74.919, 62.142 72.899, 61.720 66.745 C 61.419 62.361, 60.797 58.432, 60.337 58.015 C 58.998 56.802, 46.662 56.039, 44.852 57.058 M 42.958 91.078 C 42.145 92.598, 42.142 94.946, 42.947 99.828 C 43.552 103.498, 44.150 108.750, 44.274 111.500 L 44.500 116.500 48.080 116.401 C 56.509 116.168, 60 113.061, 60 105.793 C 60 103.975, 60.388 101.136, 60.861 99.484 C 62.118 95.103, 60.705 92.499, 56.065 90.643 C 50.141 88.272, 44.357 88.465, 42.958 91.078 M 110.311 119.577 C 109.043 120.162, 112.554 125, 114.247 125 C 114.735 125, 116.566 126.069, 118.317 127.376 C 120.068 128.683, 123.182 130.052, 125.238 130.419 C 128.695 131.036, 129.129 130.838, 130.985 127.793 C 133.458 123.737, 133.541 121.436, 131.250 120.496 C 129.047 119.591, 111.910 118.839, 110.311 119.577" stroke="none" fill="black" fill-rule="evenodd"/>
</svg>