<svg xmlns="http://www.w3.org/2000/svg" width="256" height="256" viewBox="0 0 256 256" version="1.1">
	<path d="M 83.966 29.824 C 81.601 31.737, 81.487 32.363, 81.189 45.159 C 80.782 62.631, 80.683 62.489, 93.176 62.533 C 99.172 62.554, 103.825 63.110, 106.211 64.091 L 109.921 65.615 106.812 67.452 C 105.101 68.463, 100.731 69.861, 97.101 70.560 C 86.294 72.640, 84.821 73.462, 85.187 77.210 C 85.569 81.129, 87.330 81.760, 98.281 81.900 C 104.541 81.981, 106.187 82.324, 106.698 83.656 C 107.103 84.710, 106.524 85.967, 105.106 87.115 C 103.213 88.648, 100.941 88.915, 89.943 88.897 C 77.148 88.875, 77 88.848, 76.407 86.486 C 76.078 85.173, 75.739 75.936, 75.654 65.961 C 75.503 48.204, 75.451 47.784, 73.144 45.916 C 71.287 44.412, 69.698 44.107, 65.644 44.479 C 62.815 44.738, 54.203 45.200, 46.506 45.505 C 37.420 45.865, 32.120 46.487, 31.395 47.280 C 30.209 48.575, 31.209 116.009, 32.458 119 C 33.755 122.104, 37.936 124.042, 44.216 124.451 C 47.672 124.676, 54.775 125.291, 60 125.818 C 66.111 126.435, 71.195 126.430, 74.250 125.805 C 77.460 125.149, 80.637 125.185, 84.049 125.917 C 86.826 126.513, 90.674 127, 92.600 127 C 95.651 127, 96.289 127.447, 97.551 130.468 C 98.348 132.375, 99 136.091, 99 138.724 C 99 144.943, 100.443 149.832, 102.973 152.190 C 104.088 153.228, 105 154.470, 105 154.950 C 105 155.429, 107.086 156.832, 109.636 158.066 C 113.861 160.111, 115.587 160.296, 129.094 160.146 C 143.919 159.983, 147.607 159.393, 149.696 156.854 C 150.405 155.993, 150.975 147.689, 151.261 134.061 C 151.805 108.175, 152.253 109.160, 139 107.127 C 127.969 105.435, 127 105.138, 127 103.452 C 127 101.394, 130.469 100.820, 143.928 100.651 C 157.191 100.484, 159.860 99.429, 158.638 94.835 C 157.553 90.751, 156.358 89.795, 151.683 89.268 C 145.953 88.622, 145.192 86.806, 149.300 83.584 C 155.306 78.872, 156 77.999, 156 75.153 C 156 72.190, 153.126 68, 151.093 68 C 150.448 68, 148.077 68.940, 145.824 70.090 C 142.877 71.593, 140.573 72.040, 137.614 71.680 C 122.227 69.812, 116.473 68.779, 113.826 67.410 L 110.809 65.850 114.612 63.812 C 117.922 62.038, 119.066 61.908, 123.457 62.805 C 126.231 63.372, 130.750 63.531, 133.500 63.158 C 136.250 62.786, 141.351 62.878, 144.836 63.363 C 156.218 64.948, 158.445 61.891, 157.839 45.520 C 157.258 29.834, 159.067 30.760, 127.284 29.880 C 113.119 29.488, 98.133 28.866, 93.981 28.498 C 87.332 27.910, 86.137 28.068, 83.966 29.824 M 94.750 40.105 C 92.782 41.223, 92.400 46.011, 94.035 49.066 C 95.612 52.013, 101.319 51.689, 103.385 48.535 C 105.493 45.318, 105.438 42.295, 103.250 41.174 C 100.067 39.542, 96.525 39.097, 94.750 40.105 M 116.070 42.930 C 114.097 44.903, 114.062 45.219, 115.509 48.017 C 117.399 51.672, 121.163 52.033, 123.443 48.777 C 126.035 45.078, 125.135 42.574, 120.827 41.493 C 118.858 40.999, 117.630 41.370, 116.070 42.930 M 136.246 43.154 C 134.660 44.740, 134.633 49.233, 136.200 50.800 C 137.578 52.178, 141.875 52.365, 143.819 51.133 C 144.646 50.609, 145.019 48.841, 144.819 46.398 C 144.519 42.736, 144.287 42.482, 140.996 42.204 C 139.068 42.042, 136.931 42.469, 136.246 43.154 M 45.762 58.146 C 44.933 58.659, 44.500 61.424, 44.500 66.213 L 44.500 73.500 53.750 73.693 L 63 73.886 63 65.575 L 63 57.264 55.012 57.315 C 50.619 57.344, 46.457 57.718, 45.762 58.146 M 119.500 82.713 C 116.401 83.459, 115.869 84.439, 117.416 86.554 C 119.388 89.249, 127.687 89.146, 129.701 86.400 C 130.961 84.683, 130.826 84.384, 128.298 83.295 C 125.402 82.048, 122.941 81.885, 119.500 82.713 M 45.830 87.170 C 44.110 88.890, 43.900 90.361, 44.093 99.313 C 44.213 104.916, 44.680 110.236, 45.130 111.136 C 45.808 112.491, 47.420 112.730, 54.501 112.526 C 59.205 112.390, 63.320 112.014, 63.644 111.689 C 65.720 109.613, 64.955 90.568, 62.681 87.708 C 61.930 86.764, 59.004 86.039, 54.643 85.718 C 48.759 85.285, 47.509 85.491, 45.830 87.170 M 76.667 97.667 C 75.833 98.500, 75.784 112.274, 76.607 114.418 C 76.941 115.288, 78.073 116, 79.123 116 C 81.650 116, 89 113.683, 89 112.886 C 89 112.542, 90.912 111.722, 93.250 111.065 C 98.779 109.511, 104.545 104.862, 103.693 102.643 C 103.179 101.302, 101.539 100.999, 94.781 100.996 C 88.270 100.993, 85.800 100.566, 83.226 98.996 C 79.835 96.929, 77.814 96.519, 76.667 97.667 M 112.477 116.765 C 111.914 117.169, 110.653 118.758, 109.674 120.296 C 106.605 125.116, 109.810 129.455, 114.302 126.563 C 118.769 123.687, 123.357 123.641, 128.831 126.414 C 134.935 129.507, 136.595 129.626, 137.965 127.066 C 140.937 121.512, 137.803 118.559, 130.032 119.590 C 126.086 120.114, 124.131 119.812, 120.542 118.125 C 115.729 115.862, 114.114 115.590, 112.477 116.765 M 110.999 141.504 C 109.741 144.811, 109.714 144.572, 111.551 146.408 C 112.833 147.690, 114.863 147.856, 123.283 147.366 C 136.172 146.616, 138.235 145.890, 137.816 142.250 C 137.474 139.273, 137.673 139.308, 126 140.168 C 123.525 140.351, 119.362 140.135, 116.749 139.689 C 112.217 138.914, 111.951 138.998, 110.999 141.504" stroke="none" fill="black" fill-rule="evenodd"/>
</svg>