<svg xmlns="http://www.w3.org/2000/svg" width="256" height="256" viewBox="0 0 256 256" version="1.1">
	<path d="M 117.557 26.223 C 116.701 27.445, 116 30.343, 116 32.663 C 116 34.984, 115.484 37.201, 114.853 37.591 C 114.222 37.981, 109.384 38.404, 104.103 38.531 C 92.492 38.809, 86 40.950, 86 44.500 C 86 48.239, 92.535 50.290, 104.207 50.217 C 113.017 50.161, 113.972 50.338, 114.540 52.126 C 115.674 55.699, 113.468 56.824, 105.568 56.703 C 98.960 56.601, 97.857 56.872, 94.518 59.419 L 90.809 62.248 94.654 65.630 C 98.348 68.879, 98.796 69.006, 106 68.841 C 114.484 68.647, 117.536 69.350, 118.440 71.705 C 119.690 74.960, 117.255 75.509, 103.042 75.174 C 91.958 74.912, 88.592 75.160, 86.169 76.413 C 82.105 78.514, 81.090 81.844, 83.835 84.067 C 86.519 86.241, 93.966 86.888, 116.500 86.906 C 126.400 86.914, 137.786 87.390, 141.801 87.964 C 151.329 89.325, 156.646 88.470, 158.767 85.234 C 160.343 82.827, 160.294 82.652, 157.288 79.966 C 154.035 77.059, 154.741 77.190, 133.031 75.473 C 125.784 74.900, 123.968 73.856, 125.635 71.222 C 126.549 69.778, 128.445 69.486, 137.365 69.415 C 143.217 69.368, 148.164 69.143, 148.359 68.915 C 148.553 68.687, 148.986 67.064, 149.320 65.309 C 149.858 62.477, 149.547 61.883, 146.556 60.035 C 144.223 58.592, 140.703 57.760, 135.114 57.329 C 128.376 56.810, 126.942 56.392, 126.438 54.805 C 125.168 50.804, 127.443 50.039, 140.045 50.231 C 150.346 50.388, 152.156 50.169, 153.944 48.551 C 156.688 46.067, 156.535 43.851, 153.416 40.924 C 151.001 38.658, 150.107 38.500, 139.666 38.500 C 133.525 38.500, 127.935 38.134, 127.244 37.687 C 126.500 37.206, 126.057 35.071, 126.156 32.445 C 126.431 25.179, 121.027 21.268, 117.557 26.223 M 37.508 44.994 C 33.376 45.413, 32.332 45.931, 31.453 48 C 30.084 51.222, 31.343 114.048, 32.874 118.901 C 34.510 124.087, 37.328 126.187, 42.287 125.916 C 44.604 125.789, 48.847 126.021, 51.715 126.432 C 54.717 126.861, 58.324 126.750, 60.215 126.170 C 62.022 125.616, 65.640 124.872, 68.257 124.519 C 75.782 123.501, 76.048 122.486, 76.459 93.191 C 76.650 79.611, 77.113 67.130, 77.487 65.455 C 77.867 63.757, 77.487 59.114, 76.628 54.955 C 74.373 44.043, 73.933 43.807, 56.564 44.183 C 48.829 44.351, 40.253 44.716, 37.508 44.994 M 45.185 56.885 C 44.637 57.224, 43.868 61.604, 43.476 66.618 C 42.911 73.837, 43.048 75.915, 44.131 76.598 C 44.884 77.072, 49.456 77.518, 54.290 77.589 C 65.020 77.747, 65.195 77.541, 64.789 65.243 L 64.500 56.500 55.341 56.385 C 50.303 56.322, 45.733 56.547, 45.185 56.885 M 45.250 90.134 C 43.370 92.038, 43.615 109.907, 45.557 112.475 C 46.776 114.088, 47.388 114.239, 48.897 113.296 C 49.913 112.662, 53.304 112.143, 56.434 112.143 C 59.563 112.143, 62.770 111.606, 63.561 110.949 C 65.353 109.462, 65.552 96.305, 63.839 92.547 C 62.812 90.292, 62.082 90, 57.464 90 C 54.597 90, 50.956 89.745, 49.375 89.434 C 47.668 89.097, 45.992 89.382, 45.250 90.134 M 100.583 90.098 C 92.660 91.397, 92.343 91.915, 92.185 103.832 C 92.059 113.298, 91.247 122.144, 89.643 131.500 C 89.360 133.150, 88.818 137.706, 88.438 141.624 C 87.815 148.048, 87.954 148.954, 89.851 150.851 C 92.673 153.673, 94.466 152.746, 95.944 147.698 C 98.528 138.870, 102.526 135.910, 110 137.289 C 112.475 137.746, 119.995 138.363, 126.712 138.662 C 135.498 139.052, 139.254 139.601, 140.100 140.621 C 142.023 142.938, 138.483 146, 133.880 146 C 129.571 146, 127.482 148.322, 129.134 151.276 C 129.665 152.224, 129.782 153, 129.395 153 C 127.698 153, 132.865 157.450, 136.500 159.119 C 142.140 161.709, 146.164 161.519, 148.972 158.530 C 151.271 156.083, 151.295 155.793, 151.704 126.123 C 152.114 96.295, 152.108 96.178, 149.912 94.132 C 148.699 93.003, 145.861 91.837, 143.604 91.542 C 136.093 90.559, 104.282 89.491, 100.583 90.098 M 106 102.001 C 104.840 102.730, 104.750 103.346, 105.606 104.722 C 106.538 106.221, 108.890 106.620, 120.606 107.266 C 136.310 108.132, 139 107.808, 139 105.053 C 139 103.484, 138.065 103.050, 133.750 102.614 C 122.073 101.436, 107.415 101.113, 106 102.001 M 105.563 120.930 C 102.826 123.955, 104.386 124.899, 113.038 125.454 C 117.142 125.717, 124.090 126.621, 128.477 127.462 C 138.087 129.303, 140 128.889, 140 124.968 C 140 121.501, 137.981 120.199, 132.608 120.199 C 130.467 120.200, 123.937 119.888, 118.097 119.506 C 108.090 118.853, 107.369 118.934, 105.563 120.930" stroke="none" fill="black" fill-rule="evenodd"/>
</svg>