<svg xmlns="http://www.w3.org/2000/svg" width="256" height="256" viewBox="0 0 256 256" version="1.1">
	<path d="M 98.641 26.274 C 97.683 26.974, 95.792 31.362, 94.439 36.024 C 93.087 40.686, 91.293 45.953, 90.453 47.729 C 87.390 54.207, 84.176 63.711, 82.004 72.719 C 79.801 81.853, 79.798 81.969, 81.693 85.214 C 82.745 87.015, 84.707 88.791, 86.053 89.159 C 108.793 95.388, 121.540 95.599, 127.660 89.850 C 130.266 87.402, 130.716 83.839, 128.638 82.115 C 127.799 81.418, 121.098 80.830, 111.191 80.584 C 102.343 80.363, 94.631 79.890, 94.052 79.532 C 92.716 78.706, 92.721 75.546, 94.067 70.698 C 94.776 68.143, 96.169 66.258, 98.311 64.952 C 101.216 63.181, 103.476 63.007, 123.691 63.004 C 140.098 63.001, 146.079 63.319, 146.637 64.222 C 147.860 66.200, 147.075 99.135, 145.380 116.979 C 143.613 135.583, 142.471 139, 138.021 139 C 134.330 139, 130 140.930, 130 142.576 C 130 145.366, 142.158 158, 144.843 158 C 152.040 158, 157.315 137.996, 158.423 106.500 C 160.310 52.900, 160.314 55.601, 158.335 53.270 C 156.578 51.201, 155.448 51.080, 131.757 50.416 C 103.378 49.620, 103.785 49.751, 105.979 42.173 C 108.405 33.792, 108.438 29.438, 106.093 27.093 C 103.706 24.706, 101.166 24.427, 98.641 26.274 M 46 48.008 C 37.322 48.974, 34.202 50.347, 33.397 53.553 C 33.035 54.995, 32.703 69.074, 32.659 84.838 C 32.540 128.019, 32.030 127.138, 57.226 127.357 C 70.309 127.471, 74.049 127.202, 75.441 126.047 C 77.019 124.739, 77.166 122.656, 76.917 105.047 C 76.766 94.296, 76.987 77.494, 77.410 67.710 C 77.989 54.290, 77.881 49.561, 76.967 48.460 C 76.018 47.317, 73.231 47.031, 64.128 47.142 C 57.732 47.220, 49.575 47.610, 46 48.008 M 53.737 59.736 C 48.031 60.185, 46.514 62.034, 45.497 69.780 C 44.525 77.187, 45.290 77.803, 54.748 77.230 C 64.917 76.613, 65.821 75.781, 65.403 67.435 C 64.941 58.204, 65.820 58.784, 53.737 59.736 M 46.008 90.985 C 45.102 92.679, 45.060 108.747, 45.946 114.875 C 45.976 115.082, 49.862 115.048, 54.583 114.800 C 60.529 114.488, 63.443 113.912, 64.068 112.925 C 66.054 109.786, 64.577 92.051, 62.213 90.650 C 61.821 90.417, 58.276 89.909, 54.335 89.521 C 47.638 88.860, 47.094 88.956, 46.008 90.985 M 119.500 108.122 C 116.200 108.594, 109.532 108.710, 104.683 108.379 C 96.444 107.817, 95.707 107.927, 93.433 110.063 C 90.235 113.067, 90.360 115.408, 93.850 117.893 C 98.052 120.886, 104.115 121.948, 117.139 121.976 C 126.772 121.996, 129.145 121.698, 130.903 120.250 C 133.179 118.376, 135.200 112.842, 134.142 111.384 C 133.541 110.556, 126.188 106.845, 125.716 107.131 C 125.597 107.203, 122.800 107.649, 119.500 108.122" stroke="none" fill="black" fill-rule="evenodd"/>
</svg>