<svg xmlns="http://www.w3.org/2000/svg" width="256" height="256" viewBox="0 0 256 256" version="1.1">
	<path d="M 59.250 33.584 C 54.511 37.318, 54.680 41.551, 59.651 43.628 C 61.659 44.467, 65.963 45.622, 69.215 46.195 C 75.803 47.355, 80.040 50.268, 81.992 54.980 C 83.518 58.665, 84.573 58.752, 87.635 55.448 C 92.504 50.195, 89.719 43.546, 81 39.604 C 79.075 38.734, 74.800 36.447, 71.500 34.523 C 68.200 32.598, 64.825 31.023, 64 31.023 C 63.175 31.023, 61.038 32.175, 59.250 33.584 M 124 44.694 C 120.975 44.873, 117.458 45.255, 116.184 45.545 C 112.444 46.395, 111 51.493, 111 63.845 C 111 75.174, 110.083 77.929, 106.966 75.958 C 103.141 73.539, 95.020 76.476, 94.991 80.289 C 94.972 82.740, 90.409 90.869, 89.431 90.193 C 88.862 89.800, 88.426 84.735, 88.425 78.500 C 88.424 66.621, 86.861 59, 84.426 59 C 83.603 59, 81.784 59.750, 80.385 60.668 C 78.134 62.142, 77.104 62.189, 71.480 61.071 C 67.983 60.376, 64.756 60.032, 64.311 60.308 C 63.865 60.583, 59.541 61.072, 54.703 61.395 C 45.755 61.990, 42.088 63.104, 41.889 65.285 C 41.578 68.701, 42.313 71.630, 43.763 72.750 C 45.807 74.328, 69.240 74.477, 72.130 72.931 C 73.584 72.152, 74.518 72.185, 75.564 73.053 C 77.762 74.877, 77.399 85.525, 74.954 90.913 C 73.195 94.791, 73.107 95.760, 74.226 98.913 C 75.109 101.400, 75.487 108.939, 75.459 123.500 C 75.419 144.203, 75.380 144.582, 72.709 150.280 C 69.366 157.413, 69.318 159.507, 72.451 161.560 C 75.199 163.360, 77.567 162.915, 81.438 159.870 C 86.734 155.704, 87.789 151.577, 88.375 132.744 C 88.541 127.379, 88.863 122.830, 89.089 122.636 C 89.315 122.442, 91.167 122.026, 93.204 121.712 C 95.981 121.284, 97.529 121.628, 99.385 123.088 C 103.819 126.576, 109.884 128.751, 113.885 128.289 C 116.831 127.949, 117.667 128.197, 117.667 129.412 C 117.667 130.269, 116.865 131.226, 115.884 131.537 C 113.381 132.331, 112.656 135.429, 114.013 139.539 C 115.429 143.831, 120.343 146.615, 128.105 147.525 C 134.168 148.235, 136.740 149.062, 145.874 153.240 C 152.516 156.277, 155.820 156.323, 158.728 153.415 C 159.990 152.153, 160.017 151.447, 158.903 148.715 C 157.340 144.879, 155.674 143.446, 151 141.917 C 149.075 141.287, 145.457 139.487, 142.961 137.917 C 140.464 136.347, 135.964 134.554, 132.961 133.933 C 122.690 131.808, 119 130.563, 119 129.223 C 119 128.485, 119.414 128.138, 119.919 128.450 C 120.425 128.763, 121.438 128.433, 122.169 127.718 C 125.726 124.243, 128.708 123, 133.473 123.008 C 136.238 123.013, 141.425 122.341, 145 121.516 C 148.575 120.690, 152.729 119.780, 154.232 119.493 C 155.999 119.155, 157.563 117.829, 158.662 115.736 C 160.133 112.934, 160.402 108.324, 160.671 81.349 C 161.027 45.487, 161.227 46.372, 152.435 44.929 C 147.632 44.141, 135.136 44.038, 124 44.694 M 125.200 56.200 C 124.540 56.860, 123.980 58.998, 123.956 60.950 C 123.932 62.903, 123.514 66.525, 123.027 69 C 122.401 72.178, 122.488 73.852, 123.321 74.698 C 124.070 75.460, 128.491 75.962, 135.459 76.076 C 148.911 76.297, 149.034 76.185, 148.123 64.500 L 147.500 56.500 142.500 55.838 C 134.298 54.751, 126.485 54.915, 125.200 56.200 M 40 86.712 C 37.775 87.620, 36.068 90.207, 36.032 92.724 C 35.994 95.341, 39.509 97.433, 45.658 98.454 C 52.620 99.610, 53.413 100.692, 52.065 107.186 C 50.253 115.913, 44.924 126.072, 40.401 129.420 C 29.379 137.579, 27.844 140.998, 32.922 146.076 C 36.485 149.638, 37.723 149.298, 44.500 142.896 C 47.250 140.298, 51.348 136.446, 53.606 134.336 C 57.029 131.138, 58.234 128.889, 60.856 120.807 C 62.585 115.477, 64.014 109.627, 64.032 107.807 C 64.067 104.192, 65.528 101.741, 68.259 100.716 C 69.226 100.353, 70.527 98.937, 71.151 97.569 C 72.818 93.908, 70.228 90.550, 64.288 88.672 C 59.150 87.048, 42.475 85.702, 40 86.712 M 106.685 88.796 C 104.727 90.959, 99 103.356, 99 105.431 C 99 110.765, 105.584 116.358, 111.224 115.815 C 114.919 115.460, 114.717 116.960, 113.414 99.500 C 112.500 87.263, 110.685 84.376, 106.685 88.796 M 125.020 89.476 C 124.051 90.643, 124.078 93, 125.147 100.726 L 126.500 110.500 136 110.166 C 141.225 109.983, 145.927 109.421, 146.448 108.918 C 147.715 107.696, 149.037 95.330, 148.336 91.250 L 147.777 88 137.011 88 C 128.738 88, 125.961 88.342, 125.020 89.476 M 88.380 101.452 C 88.074 102.251, 88.114 103.376, 88.470 103.952 C 89.635 105.837, 91 105.053, 91 102.500 C 91 99.789, 89.282 99.102, 88.380 101.452" stroke="none" fill="black" fill-rule="evenodd"/>
</svg>