<svg xmlns="http://www.w3.org/2000/svg" width="256" height="256" viewBox="0 0 256 256" version="1.1">
	<path d="M 80.204 31.283 C 77.163 34.520, 76.469 42.824, 77.983 57.830 C 78.966 67.570, 78.960 71.294, 77.953 76.358 C 76.929 81.509, 76.951 86.705, 78.067 104.098 C 79.654 128.823, 79.737 135.312, 78.570 143.246 C 76.960 154.201, 82.191 161.648, 88.865 157.902 C 91.303 156.534, 91.373 156.183, 91.534 144.498 C 91.625 137.899, 92.206 131.262, 92.825 129.750 C 93.884 127.162, 94.320 127, 100.225 126.998 C 107.895 126.997, 113.065 124.691, 114.469 120.646 C 115.339 118.139, 115.120 117.500, 112.674 115.396 C 109.275 112.472, 107.091 112.415, 98.892 115.034 C 92.887 116.953, 92.452 116.970, 91.262 115.343 C 88.732 111.884, 90.613 100.254, 93.521 101.370 C 94.162 101.616, 97.161 102.126, 100.186 102.504 C 104.708 103.069, 106.625 102.787, 110.974 100.916 C 116.049 98.732, 116.318 98.714, 117.591 100.455 C 118.321 101.453, 119.213 104.347, 119.575 106.885 C 119.936 109.423, 121.731 114.701, 123.564 118.612 C 125.397 122.524, 126.819 126.748, 126.725 127.998 C 126.629 129.271, 125.054 131.421, 123.145 132.885 C 121.270 134.323, 118.558 136.642, 117.118 138.038 C 115.678 139.434, 113.263 141.357, 111.750 142.311 C 110.238 143.265, 109 144.727, 109 145.558 C 109 146.390, 108.292 148.151, 107.427 149.472 C 105.913 151.781, 105.968 151.932, 108.877 153.436 C 113.522 155.838, 116.121 155.344, 121.286 151.076 C 123.898 148.917, 127.381 146.856, 129.026 146.494 C 130.671 146.133, 131.801 145.487, 131.536 145.058 C 131.271 144.630, 132.794 143.495, 134.919 142.536 C 139.694 140.383, 143.910 141.130, 148.324 144.912 C 155.854 151.364, 162.148 153.663, 163.393 150.418 C 165.129 145.893, 164.001 143.502, 157 136.866 C 149.410 129.672, 148.366 126.778, 151.662 122.073 C 154.477 118.053, 157.957 110.739, 159.515 105.568 C 163.079 93.734, 160.490 89.006, 150.436 88.992 C 144.744 88.984, 129.961 87.616, 123.348 86.485 C 120.568 86.010, 119.939 86.362, 118.017 89.473 C 115.558 93.451, 113.159 93.939, 110.500 91 C 108.330 88.602, 104.207 88.432, 97.464 90.461 C 91.431 92.277, 90 91.326, 90 85.500 C 90 79.201, 92.813 77.773, 102.056 79.378 C 105.328 79.946, 108.216 79.702, 112.306 78.513 C 117.393 77.034, 118.559 77.012, 123.250 78.301 C 126.959 79.321, 132.755 79.670, 143 79.489 C 150.975 79.348, 157.783 79.181, 158.129 79.117 C 159.956 78.777, 160.904 71.691, 161.281 55.555 C 161.826 32.233, 162.878 33.543, 142.957 32.740 C 135.005 32.420, 126.281 32.574, 123.568 33.083 C 119.581 33.830, 117.665 33.650, 113.568 32.141 C 110.132 30.875, 104.296 30.060, 95.449 29.611 C 82.656 28.961, 82.355 28.994, 80.204 31.283 M 94.335 41.707 C 93.144 41.932, 91.863 42.878, 91.489 43.808 C 90.583 46.061, 90.861 60.854, 91.879 64.561 C 92.567 67.067, 93.114 67.454, 95.593 67.187 C 100.294 66.681, 101.189 64.937, 102.158 54.398 C 102.855 46.822, 102.769 44.357, 101.778 43.421 C 100.149 41.884, 97.105 41.183, 94.335 41.707 M 117.256 42.250 C 116.292 43.470, 114.876 55.114, 114.625 63.882 C 114.453 69.895, 116.138 70.854, 123.704 69.050 C 126.892 68.289, 133.775 67.405, 139 67.084 L 148.500 66.500 148.500 57.073 C 148.500 50.594, 148.087 47.232, 147.179 46.323 C 146.289 45.433, 143.019 44.993, 137.179 44.978 C 130.704 44.962, 127.393 44.454, 124.141 42.978 C 119.015 40.652, 118.558 40.604, 117.256 42.250 M 64.625 45.709 C 64.235 46.098, 57.182 46.680, 48.950 47.002 C 37.339 47.456, 33.637 47.934, 32.434 49.138 C 31.093 50.478, 30.868 55.631, 30.776 87.094 C 30.718 107.117, 30.979 124.447, 31.356 125.604 C 32 127.579, 32.929 127.741, 46.579 128.252 C 54.574 128.551, 62.320 128.474, 63.791 128.081 C 69.090 126.663, 69.738 123.732, 70.547 97.500 C 70.954 84.300, 71.294 67.696, 71.302 60.603 C 71.316 49.197, 71.104 47.549, 69.468 46.353 C 67.422 44.857, 65.705 44.629, 64.625 45.709 M 45.733 59.743 C 43.973 61.687, 43.014 73.596, 44.432 75.891 C 45.413 77.477, 54.258 77.263, 56.534 75.598 C 58.061 74.483, 58.529 72.649, 58.835 66.598 C 59.182 59.734, 59.039 58.995, 57.359 58.949 C 56.337 58.921, 53.685 58.666, 51.467 58.381 C 48.345 57.980, 47.049 58.288, 45.733 59.743 M 45 90 C 43.328 91.672, 43.012 93.272, 43.074 99.750 C 43.115 104.013, 43.462 109.525, 43.845 112 L 44.541 116.500 48.855 116.302 C 52.897 116.117, 56.689 114.355, 55.533 113.200 C 55.249 112.916, 55.576 112.010, 56.259 111.185 C 57.051 110.228, 57.478 106.504, 57.439 100.881 C 57.390 93.784, 57.020 91.680, 55.534 90.038 C 53.109 87.357, 47.662 87.338, 45 90 M 132.012 102.977 C 131.233 104.433, 131.329 105.852, 132.375 108.355 C 134.162 112.631, 135.333 113.348, 139.316 112.601 C 141.773 112.140, 143.017 111.030, 144.754 107.751 C 148.165 101.312, 147.947 101, 140.035 101 C 134.121 101, 132.911 101.298, 132.012 102.977 M 137 130.500 C 137 131.325, 137.395 132, 137.878 132 C 138.360 132, 139.315 131.325, 140 130.500 C 141.040 129.247, 140.896 129, 139.122 129 C 137.902 129, 137 129.638, 137 130.500" stroke="none" fill="black" fill-rule="evenodd"/>
</svg>