<svg xmlns="http://www.w3.org/2000/svg" width="256" height="256" viewBox="0 0 256 256" version="1.1">
	<path d="M 129.500 30.458 C 124.859 31.965, 120.909 33.023, 108.500 36.081 C 98.328 38.588, 93.435 41.084, 92.385 44.300 C 91.989 45.510, 91.764 52.373, 91.884 59.551 C 92.018 67.543, 91.656 73.745, 90.951 75.551 C 90.310 77.196, 89.619 86.240, 89.389 96 C 88.855 118.718, 88.532 122.340, 85.863 135.536 C 83.641 146.524, 83.640 146.590, 85.566 150.536 C 87.138 153.757, 88.097 154.558, 90.684 154.808 C 94.731 155.201, 95.666 153.546, 97.060 143.522 C 97.642 139.339, 98.773 134.061, 99.573 131.793 C 101.321 126.837, 102.727 114.130, 103.477 96.500 C 103.781 89.350, 104.177 82.600, 104.358 81.500 C 104.660 79.658, 105.746 79.444, 118.084 78.791 C 125.453 78.401, 131.801 78.401, 132.192 78.792 C 132.582 79.182, 132.486 81.301, 131.977 83.501 C 130.645 89.262, 130.668 145.996, 132.004 149.509 C 133.865 154.405, 138.480 156.536, 140.902 153.618 C 142.357 151.864, 142.822 144.218, 143.585 109.443 C 144.263 78.553, 144.495 77.447, 150.523 76.464 C 156.937 75.419, 157.984 74.913, 158.570 72.578 C 159.361 69.426, 157.633 66.379, 153.984 64.492 C 151.616 63.267, 148.690 63.075, 139.264 63.527 C 132.794 63.838, 125.925 64.497, 124 64.993 C 119.612 66.122, 107.341 66.675, 106.450 65.783 C 106.083 65.416, 105.823 62.300, 105.872 58.856 C 105.936 54.261, 106.430 52.142, 107.730 50.888 C 108.703 49.948, 115.988 47.565, 123.917 45.592 C 131.847 43.619, 139.947 41.216, 141.917 40.252 C 145.801 38.353, 147.092 34.950, 144.799 32.656 C 140.988 28.845, 136.463 28.195, 129.500 30.458 M 54.662 40.929 C 37.157 41.489, 36.785 41.547, 34.794 44 C 32.990 46.223, 32.851 47.277, 33.539 53.500 C 34.405 61.333, 34.359 75.929, 33.414 92.675 C 32.685 105.595, 34.196 119.454, 36.626 122.139 C 37.888 123.533, 39.832 123.941, 45.374 123.976 C 49.293 124, 54.975 124.041, 58 124.066 C 69.163 124.159, 76.139 123.290, 77.832 121.597 C 79.805 119.624, 80.768 109.379, 80.944 88.500 C 81.008 80.800, 81.541 68.875, 82.128 62 C 82.714 55.125, 83.164 48.150, 83.126 46.500 C 83.040 42.691, 79.785 39.943, 75.639 40.179 C 73.913 40.277, 64.473 40.614, 54.662 40.929 M 48.129 53.345 C 47.345 54.289, 47.014 57.441, 47.204 62.158 L 47.500 69.500 57.321 69.552 C 68.728 69.613, 68.529 69.780, 68.882 59.880 C 69.050 55.154, 68.743 53.128, 67.809 52.799 C 67.089 52.546, 62.641 52.234, 57.925 52.106 C 51.384 51.929, 49.060 52.223, 48.129 53.345 M 46.935 85.671 C 45.821 88.601, 46.196 109.529, 47.384 110.717 C 48.416 111.749, 65.334 111.003, 66.500 109.873 C 67.747 108.665, 69.007 85.882, 67.906 84.458 C 67.462 83.884, 62.797 83.305, 57.539 83.171 L 47.978 82.927 46.935 85.671" stroke="none" fill="black" fill-rule="evenodd"/>
</svg>