<svg xmlns="http://www.w3.org/2000/svg" width="256" height="256" viewBox="0 0 256 256" version="1.1">
	<path d="M 99.768 38.970 C 96.962 39.514, 93 42.342, 93 43.799 C 93 46.602, 96.023 48.261, 102.319 48.912 C 105.996 49.293, 109.502 50.102, 110.111 50.711 C 111.639 52.239, 107.866 62.963, 104.538 66.554 C 101.827 69.479, 95.688 81.388, 95.432 84.220 C 95.346 85.166, 96.019 86.613, 96.928 87.435 C 98.395 88.763, 98.913 88.759, 101.540 87.404 C 109.129 83.492, 115.346 75.048, 119.896 62.473 C 121.671 57.569, 123.600 52.982, 124.184 52.279 C 125.606 50.565, 144.097 50.497, 145.800 52.200 C 147.137 53.537, 147.256 60.668, 146.079 68.960 C 145.402 73.731, 144.737 74.931, 140.808 78.460 C 133.253 85.248, 133.433 88.089, 141.583 90.658 C 148.428 92.816, 151.060 91.626, 153.841 85.116 C 156.806 78.177, 157.805 73.588, 158.984 61.500 C 159.574 55.450, 160.313 48.857, 160.626 46.848 C 161.074 43.979, 160.746 42.746, 159.098 41.098 C 157.140 39.140, 155.812 38.988, 139.250 38.818 C 129.488 38.717, 117.225 38.591, 112 38.537 C 106.775 38.483, 101.271 38.678, 99.768 38.970 M 76.500 44.946 C 75.400 45.386, 70 45.793, 64.500 45.851 C 48.612 46.018, 35.076 47.495, 33.317 49.254 C 32.095 50.476, 31.827 52.930, 32.014 61.147 C 32.144 66.841, 32.309 80.500, 32.380 91.500 C 32.489 108.352, 32.790 112.124, 34.293 115.463 C 36.813 121.064, 38.747 122.879, 42.887 123.525 C 44.874 123.836, 48.857 124.836, 51.737 125.748 C 56.200 127.160, 57.835 127.228, 62.797 126.203 C 66 125.541, 70.877 125, 73.636 125 C 77.734 125, 79.095 124.528, 81.076 122.420 C 83.346 120.004, 83.521 119.004, 83.828 106.670 C 84.008 99.427, 84.375 86.226, 84.643 77.335 C 85.037 64.270, 83.971 46.463, 82.735 45.442 C 81.687 44.577, 78.130 44.293, 76.500 44.946 M 67 57.052 C 65.625 57.464, 61.045 57.845, 56.821 57.900 C 48.547 58.008, 46.044 59.256, 45.949 63.321 C 45.921 64.520, 45.686 67.300, 45.427 69.500 C 45.168 71.700, 45.325 74.053, 45.775 74.729 C 46.892 76.409, 70.726 77.254, 71.341 75.636 C 71.947 74.040, 70.879 57.629, 70.123 56.901 C 69.780 56.572, 68.375 56.640, 67 57.052 M 46.647 89.214 C 45.422 89.977, 44.989 111.323, 46.175 112.508 C 46.676 113.009, 59.155 113.336, 66.679 113.046 C 69.944 112.919, 71 109.888, 70.985 100.679 C 70.976 95.630, 70.631 90.969, 70.218 90.319 C 69.377 88.995, 48.565 88.020, 46.647 89.214 M 130 96.011 C 128.625 96.445, 121.368 96.845, 113.872 96.900 C 102.630 96.983, 100.010 97.283, 98.904 98.615 C 97.984 99.724, 97.498 103.878, 97.352 111.865 C 97.236 118.264, 96.730 127.325, 96.228 132 C 95.573 138.103, 95.659 141.865, 96.535 145.342 C 98.647 153.725, 97.869 153.501, 124.788 153.493 C 137.829 153.489, 149.767 153.136, 151.316 152.708 C 156.094 151.386, 156.626 148.121, 156.031 123.770 C 155.505 102.244, 155.477 102.017, 153 99.555 C 150.924 97.491, 149.232 96.978, 143.025 96.531 C 138.914 96.235, 134.864 95.819, 134.025 95.607 C 133.186 95.394, 131.375 95.576, 130 96.011 M 123.500 110.931 C 108.688 111.774, 108.971 111.466, 109.159 126.543 C 109.271 135.494, 109.688 139.326, 110.635 140.112 C 112.663 141.795, 138.923 142.350, 141.922 140.773 C 144.315 139.515, 144.340 139.350, 144.097 126.500 C 143.815 111.583, 143.084 109.880, 137.095 110.181 C 135.118 110.280, 129 110.618, 123.500 110.931" stroke="none" fill="black" fill-rule="evenodd"/>
</svg>