<svg xmlns="http://www.w3.org/2000/svg" width="256" height="256" viewBox="0 0 256 256" version="1.1">
	<path d="M 51.563 30.931 C 49.757 32.926, 49.736 33.535, 50.564 59.968 C 51.176 79.487, 52.200 84.936, 55.276 85.042 C 55.949 85.066, 64.180 85.048, 73.566 85.003 C 82.952 84.958, 91.361 85.201, 92.253 85.543 C 93.798 86.137, 93.855 87.965, 92.592 96.500 C 92.115 99.723, 90.799 99.954, 73.192 99.899 C 54.686 99.841, 51.921 100.125, 45.750 102.724 C 41.552 104.492, 41.392 104.924, 43.460 108.923 C 45.283 112.448, 47.230 112.969, 58.625 112.986 C 69.542 113.003, 74 113.769, 74 115.629 C 74 116.387, 73.100 118.686, 72 120.739 C 69.633 125.154, 69.424 131.371, 71.506 135.364 C 73.241 138.690, 73.435 141.613, 71.980 142.512 C 71.419 142.859, 64.624 143.106, 56.879 143.061 C 37.469 142.949, 31.779 144.999, 33.415 151.515 C 34.560 156.079, 38.431 156.506, 78 156.430 C 113.446 156.362, 140.048 155.006, 148.761 152.824 C 153.463 151.647, 155.046 148.824, 153.073 145.136 C 151.677 142.528, 148.727 142.046, 131.754 141.656 C 124.193 141.483, 117.770 141.103, 117.479 140.813 C 117.189 140.522, 117.863 136.378, 118.976 131.604 C 120.089 126.829, 121 121.188, 121 119.068 C 121 116.476, 121.518 115.015, 122.582 114.607 C 123.452 114.273, 128.836 114, 134.547 114 C 143.990 114, 145.029 113.814, 146.026 111.951 C 146.630 110.823, 146.983 108.686, 146.812 107.201 C 146.269 102.497, 142.099 101.319, 123.106 100.505 C 113.844 100.107, 105.768 99.475, 105.160 99.099 C 104.552 98.723, 103.930 95.760, 103.778 92.514 C 103.523 87.097, 103.705 86.507, 106 85.321 C 107.609 84.490, 112.597 84.022, 120 84.009 C 133.092 83.986, 138.421 82.860, 140.391 79.700 C 141.905 77.273, 143.567 36.344, 142.227 34.498 C 139.725 31.052, 129.156 30.235, 77.824 29.522 C 55.325 29.210, 53.008 29.334, 51.563 30.931 M 63.671 43.201 C 62.374 44.185, 61.938 45.593, 62.171 48.044 L 62.500 51.500 95.825 51.262 C 114.154 51.132, 129.567 50.768, 130.075 50.453 C 131.662 49.473, 131.090 46.391, 128.963 44.467 C 127.099 42.780, 124.319 42.589, 96.213 42.219 C 71.098 41.888, 65.167 42.067, 63.671 43.201 M 86.078 63.770 C 71.844 63.950, 64.193 64.425, 63.277 65.185 C 62.519 65.814, 62.034 67.492, 62.199 68.914 L 62.500 71.500 95 71.500 C 112.875 71.500, 128.287 71.147, 129.250 70.715 C 131.102 69.884, 131.515 67.360, 130.150 65.208 C 129.195 63.704, 118.641 63.359, 86.078 63.770 M 91.726 113.074 C 86.351 113.389, 81.509 114.091, 80.966 114.634 C 80.325 115.275, 80.313 117.378, 80.931 120.637 C 82.346 128.097, 82.464 137.264, 81.177 139.669 C 79.189 143.383, 81.741 144.283, 92.978 143.832 C 98.878 143.595, 103.459 142.941, 104.166 142.234 C 104.824 141.576, 105.678 138.366, 106.063 135.100 C 106.448 131.835, 107.990 125.951, 109.491 122.024 C 110.991 118.098, 111.938 114.605, 111.595 114.262 C 110.380 113.046, 101.371 112.508, 91.726 113.074" stroke="none" fill="black" fill-rule="evenodd"/>
</svg>