<svg xmlns="http://www.w3.org/2000/svg" width="256" height="256" viewBox="0 0 256 256" version="1.1">
	<path d="M 64.329 30.185 C 61.525 31.541, 60.891 34.304, 60.959 44.867 C 61.028 55.712, 59.643 73.150, 58.575 74.879 C 57.722 76.258, 57.546 83.879, 58.347 84.681 C 58.606 84.939, 61.671 85.753, 65.159 86.490 C 69.585 87.425, 80.744 87.863, 102.107 87.941 C 130.984 88.046, 132.850 87.942, 135.107 86.115 C 137.172 84.444, 137.482 83.377, 137.371 78.339 C 137.300 75.128, 137.075 64.525, 136.871 54.778 C 136.406 32.565, 136.867 33.270, 121.896 31.885 C 89.117 28.853, 68.351 28.240, 64.329 30.185 M 75.751 42.759 C 73.753 43.201, 72.693 46.437, 73.172 50.629 L 73.500 53.500 98.500 53.374 L 123.500 53.247 123.804 50.749 C 124.276 46.873, 121.902 45.451, 112.856 44.194 C 104.434 43.023, 78.996 42.039, 75.751 42.759 M 89.778 66.944 C 76.826 67.402, 73.700 67.807, 72.028 69.240 C 69.368 71.523, 69.455 73.669, 72.250 74.677 C 73.487 75.123, 85.525 75.342, 99 75.164 C 126.374 74.803, 127.887 74.456, 124.955 69.224 C 123.475 66.582, 123.158 66.498, 114.465 66.444 C 109.534 66.414, 98.425 66.639, 89.778 66.944 M 92.348 93.162 C 66.005 93.576, 49.458 94.220, 48.226 94.879 C 46.418 95.847, 46.248 97.081, 46.161 109.915 C 46.095 119.543, 46.519 125.393, 47.522 128.699 C 48.323 131.339, 48.986 135.075, 48.995 137 C 49.016 141.512, 50.746 147.725, 52.238 148.647 C 53.502 149.428, 76.701 150.321, 97.500 150.389 C 117.692 150.455, 141.303 148.980, 142.801 147.560 C 143.962 146.460, 144.966 140.332, 146.580 124.500 C 148.765 103.075, 148.982 99.083, 148.089 96.735 C 147.008 93.890, 142.265 91.887, 137.500 92.263 C 135.850 92.393, 115.532 92.798, 92.348 93.162 M 63.157 106.995 C 58.654 108.060, 57.233 109.561, 58.631 111.778 C 59.606 113.325, 62.391 113.527, 85.986 113.767 C 101.502 113.924, 112.722 113.646, 113.397 113.085 C 114.107 112.496, 117.186 112.478, 121.520 113.036 C 130.811 114.232, 131.323 114.216, 133.456 112.656 C 134.811 111.665, 135.119 110.612, 134.628 108.656 L 133.962 106 100.231 106.102 C 81.679 106.159, 64.996 106.560, 63.157 106.995 M 128.830 125.978 C 124.879 127.171, 89.462 127.625, 74.500 126.674 C 59.898 125.746, 57.149 126.497, 58.315 131.094 C 59.601 136.160, 60.901 136.335, 96.784 136.290 C 126.654 136.253, 130.260 136.074, 131.944 134.551 C 134.392 132.336, 135.399 128.185, 133.921 126.404 C 132.626 124.845, 132.593 124.842, 128.830 125.978" stroke="none" fill="black" fill-rule="evenodd"/>
</svg>