<svg xmlns="http://www.w3.org/2000/svg" width="256" height="256" viewBox="0 0 256 256" version="1.1">
	<path d="M 117.488 30.013 C 116.487 31.120, 115.542 33.194, 115.390 34.622 C 115.238 36.049, 114.468 37.956, 113.678 38.859 C 111.919 40.872, 107 50.129, 107 51.428 C 107 51.947, 106.055 53.377, 104.900 54.606 C 102.727 56.919, 102.223 61.187, 103.458 66.809 C 104.191 70.146, 107.987 72.307, 111.793 71.552 C 113.543 71.206, 114.314 71.695, 115.045 73.618 C 116.601 77.711, 115.093 80.936, 109.867 84.691 C 106.830 86.873, 105 88.940, 105 90.190 C 105 93.321, 101.894 97.801, 98.848 99.063 C 95.569 100.421, 83.574 99.467, 77.648 97.376 C 73.435 95.889, 66 95.510, 66 96.782 C 66 97.212, 64.851 97.659, 63.447 97.775 C 57.376 98.278, 54.653 102.295, 57.469 106.594 C 59.804 110.156, 61.991 110.716, 77.709 111.774 C 85.423 112.293, 92.244 113.033, 92.867 113.418 C 94.459 114.402, 94.275 117.162, 92.443 119.777 C 90.950 121.909, 90.263 122, 75.593 122 C 67.181 122, 58.946 122.472, 57.293 123.048 C 53.126 124.500, 51.230 128.193, 52.976 131.455 C 55.331 135.855, 59.108 136.697, 75.500 136.473 C 90.683 136.266, 94 136.828, 94 139.607 C 94 143.024, 91.573 143.688, 76.475 144.402 C 44.473 145.915, 38.969 146.430, 37.956 148 C 35.212 152.254, 40.633 157.441, 48.761 158.339 C 51.367 158.627, 72.625 158.737, 96 158.584 C 148.546 158.240, 150.948 157.810, 150.985 148.750 L 151 145 146.250 144.808 C 141.279 144.607, 139.407 144.631, 132 144.988 C 129.525 145.108, 122.786 144.909, 117.023 144.545 C 107.105 143.920, 105.031 143.220, 105.031 140.500 C 105.031 137.752, 107.234 137.123, 120.209 136.165 C 134.720 135.093, 138.799 133.884, 140.114 130.263 C 142.285 124.283, 130.884 120.311, 115.090 121.547 C 105.584 122.291, 103.521 121.396, 104.173 116.814 C 104.645 113.498, 109.327 111.643, 117.903 111.373 C 128.437 111.042, 138.723 108.352, 140.640 105.427 C 142.569 102.483, 141.644 99.401, 138.307 97.653 C 136.144 96.519, 134.660 96.558, 128.626 97.907 C 121.227 99.561, 113 99.580, 113 97.943 C 113 97.424, 113.845 97, 114.878 97 C 115.910 97, 117.318 96.322, 118.005 95.494 C 118.693 94.666, 122.798 91.505, 127.128 88.471 C 131.457 85.437, 135 82.564, 135 82.086 C 135 81.608, 136.961 79.030, 139.359 76.358 C 141.756 73.686, 144.674 69.618, 145.844 67.318 C 147.014 65.018, 148.397 62.873, 148.917 62.551 C 150.279 61.709, 160 41.628, 160 39.656 C 160 38.745, 159.071 37.071, 157.936 35.936 C 156.019 34.019, 154.907 33.894, 142.295 34.186 C 129.856 34.474, 128.696 34.349, 128.441 32.700 C 127.690 27.843, 120.949 26.189, 117.488 30.013 M 65.241 30.986 C 64.558 32.079, 64 34.499, 64 36.364 C 64 40.201, 62.436 41.931, 59.500 41.342 C 58.400 41.121, 53.434 40.842, 48.464 40.720 C 37.709 40.458, 34 42.065, 34 46.988 C 34 50.264, 36.251 52, 40.500 52 C 46.295 52, 46.960 53.187, 46.312 62.372 C 45.830 69.202, 46.108 71.997, 47.836 77.686 C 48.998 81.513, 50.748 85.367, 51.725 86.251 C 53.936 88.252, 68.337 93.025, 71.878 92.930 C 73.320 92.891, 75.400 92.495, 76.500 92.050 C 77.722 91.556, 79.811 91.778, 81.872 92.621 C 86.380 94.464, 88.365 94.359, 90.345 92.171 C 92.369 89.934, 92.437 87.747, 90.594 84.182 C 88.763 80.642, 82.098 78.353, 71.124 77.495 C 66.517 77.135, 62.133 76.605, 61.382 76.316 C 59.676 75.662, 57 66.877, 57 61.929 C 57 59.799, 57.795 57.240, 58.868 55.915 C 60.716 53.633, 60.837 53.621, 70.118 54.822 C 75.278 55.490, 81.750 55.916, 84.500 55.768 C 87.250 55.621, 90.904 55.861, 92.621 56.301 C 95.505 57.041, 95.911 56.816, 97.965 53.335 C 99.917 50.027, 100.050 49.109, 99.056 45.794 C 97.677 41.190, 96.748 40.921, 83.345 41.251 C 77.760 41.388, 72.907 41.222, 72.560 40.882 C 72.214 40.542, 72.343 38.427, 72.848 36.181 C 73.604 32.817, 73.464 31.825, 72.054 30.549 C 69.699 28.418, 66.726 28.609, 65.241 30.986 M 127.153 48.867 C 124.272 51.366, 124.396 51.664, 128.646 52.461 C 130.652 52.838, 133.330 53.825, 134.597 54.656 C 135.865 55.486, 137.776 55.889, 138.843 55.550 C 141.010 54.862, 143.554 49.705, 142.537 48.060 C 142.177 47.477, 139.052 47, 135.594 47 C 130.890 47, 128.764 47.470, 127.153 48.867 M 120.186 55.491 C 117.692 58.661, 116.597 64.378, 117.986 66.974 C 119.153 69.154, 123.106 70.557, 125.498 69.639 C 126.324 69.322, 127 68.058, 127 66.831 C 127 63.853, 123.744 53, 122.851 53 C 122.463 53, 121.263 54.121, 120.186 55.491" stroke="none" fill="black" fill-rule="evenodd"/>
</svg>