<svg xmlns="http://www.w3.org/2000/svg" width="256" height="256" viewBox="0 0 256 256" version="1.1">
	<path d="M 91.557 26.223 C 90.701 27.445, 90 30.354, 90 32.687 C 90 38.516, 88.573 39.092, 76.930 37.966 C 62.446 36.565, 48.478 36.773, 44.468 38.449 C 41.593 39.650, 41 40.416, 41 42.926 C 41 48.149, 44.212 49.331, 60.600 50.136 C 68.459 50.522, 75.627 51.252, 76.530 51.757 C 79.147 53.222, 73.341 58.259, 65.822 61.046 C 56.528 64.491, 43.760 71.607, 41.765 74.452 C 40.474 76.294, 40.945 79.238, 42.750 80.608 C 45.499 82.695, 51.274 82.228, 56.396 79.504 C 58.978 78.131, 64.302 75.642, 68.226 73.972 C 72.425 72.185, 77.328 69.096, 80.138 66.468 C 84.917 61.998, 88.171 60.902, 89.691 63.250 C 90.136 63.938, 90.513 68.100, 90.529 72.500 C 90.545 76.900, 90.770 81.161, 91.029 81.969 C 91.418 83.183, 89.942 83.450, 82.500 83.508 C 69.607 83.608, 66.038 85.796, 67.836 92.500 C 68.534 95.102, 69.228 95.590, 73.070 96.176 C 75.507 96.548, 80.676 96.885, 84.559 96.926 C 88.751 96.970, 92.358 97.542, 93.441 98.333 C 95.068 99.523, 95.130 100.091, 94.021 103.583 C 91.243 112.330, 92.177 111.984, 73.144 111.321 C 53.784 110.648, 47.212 111.643, 43.993 115.736 C 41.491 118.917, 41.448 122.190, 43.880 124.391 C 45.496 125.854, 48.774 126.146, 67.281 126.476 C 89.884 126.879, 92.371 127.358, 93.415 131.516 C 93.999 133.846, 92.366 140.796, 90.774 142.750 C 90.213 143.438, 88.451 144, 86.856 144 C 82.387 144, 81.079 147.774, 83.943 152.409 C 88.465 159.724, 95.676 162.169, 99.701 157.750 C 103.279 153.821, 104.085 151.177, 104.581 141.725 C 105.335 127.384, 105.215 127.637, 110.796 128.592 C 116.539 129.575, 139.454 129.623, 143.250 128.660 C 145.468 128.097, 146 127.393, 146 125.023 C 146 122.617, 145.229 121.639, 141.750 119.631 C 134.197 115.271, 114.759 113.192, 109.220 116.151 C 107.353 117.150, 106.666 117.094, 105.416 115.845 C 104.099 114.528, 104.058 113.377, 105.114 107.410 C 105.786 103.609, 106.764 99.939, 107.288 99.253 C 107.811 98.567, 110.494 97.337, 113.248 96.519 C 119.596 94.634, 121 93.441, 121 89.934 C 121 86.175, 117.725 84.004, 112.027 83.985 C 109.537 83.977, 106.453 83.415, 105.173 82.735 C 103.095 81.632, 102.819 80.698, 102.592 74 C 102.452 69.875, 102.534 65.938, 102.776 65.250 C 103.434 63.372, 105.910 63.740, 112 66.623 C 115.025 68.055, 121.775 70.475, 127 72 C 132.225 73.525, 139.225 75.806, 142.555 77.068 C 149.922 79.862, 152 79.321, 152 74.608 C 152 67.255, 144.144 62.096, 128.011 58.853 C 117.301 56.701, 113 55.097, 113 53.256 C 113 52.565, 113.210 52, 113.466 52 C 113.722 52, 118.784 51.357, 124.716 50.571 C 130.647 49.786, 138.005 48.863, 141.066 48.522 C 144.127 48.181, 148.108 47.004, 149.913 45.907 C 152.713 44.204, 153.099 43.514, 152.543 41.206 C 151.339 36.212, 149.718 35.748, 136 36.468 C 129.125 36.829, 119.225 37.671, 114 38.339 C 101.591 39.926, 101 39.777, 101 35.076 C 101 29.599, 99.225 25.295, 96.687 24.614 C 93.446 23.745, 93.249 23.807, 91.557 26.223" stroke="none" fill="black" fill-rule="evenodd"/>
</svg>