<svg xmlns="http://www.w3.org/2000/svg" width="256" height="256" viewBox="0 0 256 256" version="1.1">
	<path d="M 49.609 30.534 C 47.498 32.645, 46.012 38.491, 46.006 44.715 C 45.999 50.621, 44.330 52.275, 38.683 51.970 C 30.829 51.545, 28 53.022, 28 57.548 C 28 60.739, 31.300 62.773, 38.041 63.737 C 42.985 64.444, 43.529 64.770, 43.811 67.198 C 44.007 68.890, 43.361 70.639, 42.061 71.939 C 40.927 73.073, 40 74.480, 40 75.066 C 40 75.652, 39.463 77.114, 38.806 78.316 C 38.150 79.517, 37.726 81.661, 37.864 83.080 C 38.002 84.499, 37.414 86.241, 36.558 86.952 C 35.701 87.663, 35 88.855, 35 89.601 C 35 91.659, 30.044 105.990, 27.834 110.324 C 24.312 117.230, 26.608 123.068, 32.285 121.643 C 34.291 121.140, 35.787 119.179, 38.879 113.002 C 43.569 103.632, 45.709 100.376, 46.596 101.263 C 47.542 102.208, 49.121 140.720, 48.436 146.114 C 47.673 152.120, 49.431 158.684, 52.022 159.507 C 55.033 160.463, 58.007 159.112, 59.074 156.305 C 60.438 152.718, 60.439 106.214, 59.075 102.666 C 58.476 101.107, 58.266 99.378, 58.609 98.823 C 58.953 98.268, 59.209 96.065, 59.180 93.927 C 59.150 91.789, 59.555 89.775, 60.079 89.451 C 60.604 89.127, 60.774 88.443, 60.457 87.931 C 59.494 86.372, 63.667 86.894, 65 88.500 C 66.668 90.510, 72.412 90.413, 74.128 88.346 C 74.940 87.367, 75.500 84.346, 75.500 80.942 C 75.500 74.637, 74.088 72.619, 65.625 66.835 L 61.725 64.170 65.613 63.091 C 67.751 62.497, 70.651 62.009, 72.059 62.006 C 73.466 62.003, 75.432 61.405, 76.426 60.678 C 78.134 59.429, 78.142 59.175, 76.570 56.135 C 74.622 52.369, 71.682 51.037, 64.620 50.723 L 59.500 50.496 59 40.708 C 58.473 30.400, 57.816 29.047, 53.321 29.015 C 52.123 29.007, 50.453 29.690, 49.609 30.534 M 94.393 45.102 C 90.602 47.907, 85.609 52.030, 83.299 54.262 L 79.097 58.321 79.556 68.910 C 79.808 74.735, 80.480 84.225, 81.048 90 C 81.616 95.775, 82.400 105.354, 82.790 111.287 C 83.582 123.316, 83.959 123.940, 90.500 124.016 C 93.569 124.052, 94.918 124.637, 96.297 126.531 C 97.285 127.889, 97.622 129, 97.047 129 C 96.471 129, 96 130.035, 96 131.301 C 96 135.002, 93.824 138.586, 90.033 141.128 C 84.523 144.823, 83.850 145.757, 84.186 149.242 C 84.423 151.697, 85.033 152.576, 86.662 152.808 C 89.695 153.240, 95 145.453, 95 140.570 C 95 137.667, 95.374 137, 97 137 C 98.454 137, 99 136.333, 99 134.559 C 99 133.216, 99.474 131.825, 100.053 131.467 C 100.632 131.110, 100.953 130.359, 100.767 129.800 C 100.580 129.241, 101.944 127.145, 103.798 125.142 C 108.820 119.715, 110.605 115.518, 112.412 104.887 C 114.538 92.383, 114.110 68.342, 111.695 64.658 C 109.632 61.508, 104.750 59.725, 102.585 61.330 C 101.253 62.318, 100.940 66.004, 100.579 85 C 100.343 97.375, 99.845 108.707, 99.471 110.183 C 98.787 112.889, 96.579 114.476, 94.922 113.451 C 94.428 113.146, 94.042 106.957, 94.065 99.698 C 94.088 92.439, 93.860 80.515, 93.557 73.201 C 92.933 58.106, 92.263 59.649, 102.900 51.677 C 107.242 48.422, 108 47.360, 108 44.534 C 108 41.181, 106.714 40, 103.061 40 C 102.085 40, 98.184 42.296, 94.393 45.102 M 129.207 53.500 C 126.885 54.515, 125.380 56.202, 124.103 59.220 C 122.445 63.136, 122.358 65.498, 123.072 87 C 123.502 99.925, 124.287 112.407, 124.817 114.737 C 125.448 117.510, 125.420 122.693, 124.735 129.737 C 123.740 139.975, 123.801 140.757, 125.978 145.773 C 128.733 152.122, 133.203 156.231, 136.890 155.803 C 139.197 155.535, 139.536 154.997, 139.811 151.176 C 139.982 148.798, 139.682 146.322, 139.145 145.674 C 138.607 145.026, 137.849 139.747, 137.460 133.943 C 136.846 124.773, 136.974 123.169, 138.438 121.705 C 139.364 120.779, 140.379 118.441, 140.692 116.510 C 141.096 114.020, 141.780 113, 143.048 113 C 144.030 113, 145.062 112.438, 145.341 111.750 C 145.723 110.807, 146.053 110.787, 146.684 111.671 C 147.857 113.314, 152.532 114.334, 155.487 113.593 C 160.742 112.274, 161.435 109.448, 162.248 86.045 C 162.659 74.195, 162.998 63.375, 163.001 62 C 163.008 58.466, 161.110 54.256, 159.172 53.513 C 158.268 53.166, 151.896 52.697, 145.014 52.471 C 135.580 52.161, 131.690 52.414, 129.207 53.500 M 142.157 64.984 C 137.766 66.037, 136.927 67, 135.903 72.170 C 134.918 77.141, 135.633 93.271, 137.146 100.191 C 138.286 105.408, 142.265 109.358, 143.400 106.399 C 143.722 105.560, 144.388 105.122, 144.880 105.426 C 148.152 107.448, 150.057 95.309, 149.182 78.011 C 148.436 63.259, 148.542 63.454, 142.157 64.984" stroke="none" fill="black" fill-rule="evenodd"/>
</svg>