<svg xmlns="http://www.w3.org/2000/svg" width="256" height="256" viewBox="0 0 256 256" version="1.1">
	<path d="M 63.740 33.457 C 60.902 35.551, 60.236 38.798, 59.528 54 C 58.621 73.447, 58.379 77.032, 57.093 90 C 56.107 99.953, 52.574 115.190, 50.243 119.545 C 49.654 120.646, 48.422 124.461, 47.504 128.023 C 46.587 131.586, 44.455 136.750, 42.767 139.500 C 38.703 146.120, 36.766 153.391, 38.217 156.577 C 40.538 161.671, 44.712 160.456, 50.644 152.959 C 52.925 150.077, 55.476 143.923, 59.551 131.474 C 62.692 121.879, 65.878 113.517, 66.630 112.892 C 68.657 111.209, 99.097 109.911, 116.500 110.764 L 131.500 111.500 131.428 118.500 C 131.388 122.350, 131.203 128.279, 131.017 131.676 C 130.655 138.264, 130 138.953, 124.079 138.986 C 122.747 138.994, 120.849 139.732, 119.861 140.626 C 118.421 141.929, 118.281 142.673, 119.154 144.376 C 121.098 148.163, 125.403 152.116, 129.751 154.106 C 133.671 155.899, 134.234 155.930, 136.991 154.505 C 138.636 153.654, 140.656 151.928, 141.481 150.669 C 143.463 147.645, 144.728 124.390, 145.471 77.357 L 146.042 41.213 142.944 38.607 C 140.737 36.750, 138.698 36, 135.851 36 C 133.653 36, 123.900 35.345, 114.178 34.545 C 91.079 32.644, 65.588 32.094, 63.740 33.457 M 75.228 47.039 C 72.399 48.176, 72.285 48.560, 71.639 59.154 L 71.111 67.808 101.027 67.481 C 117.481 67.301, 131.406 66.867, 131.971 66.518 C 132.537 66.168, 133 62.317, 133 57.960 C 133 48.723, 134.848 49.854, 115.957 47.538 C 102.315 45.865, 78.866 45.578, 75.228 47.039 M 125.904 80.429 C 125.668 80.665, 114.615 80.961, 101.342 81.087 C 74.014 81.346, 71.290 81.588, 70.073 83.868 C 68.718 86.407, 67.831 96.347, 68.828 97.833 C 69.559 98.925, 70.929 98.793, 76.376 97.111 C 82.233 95.302, 84.799 95.117, 97.766 95.572 C 105.869 95.855, 116.445 96.810, 121.267 97.694 C 126.088 98.577, 130.272 99.061, 130.564 98.769 C 131.942 97.391, 133.153 84.630, 132.121 82.365 C 131.160 80.257, 127.283 79.050, 125.904 80.429" stroke="none" fill="black" fill-rule="evenodd"/>
</svg>