<svg xmlns="http://www.w3.org/2000/svg" width="256" height="256" viewBox="0 0 256 256" version="1.1">
	<path d="M 96.352 23.026 C 93.331 24.199, 92.593 25.724, 92.011 32 L 91.500 37.500 82 37.201 C 68.769 36.784, 46.366 38.451, 44.511 39.990 C 42.383 41.757, 42.602 47.330, 44.882 49.393 C 46.549 50.901, 49.131 51.065, 67.482 50.825 C 86.933 50.570, 88.287 50.671, 89.605 52.474 C 90.997 54.379, 90.649 57.568, 88.837 59.500 C 88.268 60.107, 81.925 60.388, 72.700 60.216 C 55.144 59.887, 53.211 60.453, 51.157 66.528 C 49.266 72.120, 50.251 101.088, 52.526 106.773 C 54.403 111.465, 55.673 111.967, 65.703 111.986 C 72.313 111.999, 78 113.378, 78 114.969 C 78 115.325, 76.178 116.940, 73.951 118.558 C 71.725 120.176, 68.262 122.758, 66.257 124.296 C 64.251 125.833, 61.101 127.807, 59.255 128.683 C 57.410 129.559, 54.235 132.296, 52.200 134.766 C 50.165 137.235, 47.025 140.778, 45.221 142.638 C 39.619 148.417, 38.305 154.536, 42.442 155.575 C 45.995 156.466, 54.318 151.592, 59.200 145.762 C 61.429 143.099, 66.205 138.814, 69.814 136.239 C 73.423 133.663, 77.448 130.563, 78.758 129.349 C 80.536 127.701, 82.200 127.193, 85.320 127.349 L 89.500 127.557 90.081 139.147 C 90.731 152.105, 92.478 156.741, 97.356 158.456 C 102.694 160.333, 105.221 156.290, 103.892 148 C 103.495 145.525, 102.922 140.447, 102.619 136.716 C 102.147 130.898, 102.343 129.657, 103.996 128.004 C 105.622 126.378, 106.401 126.244, 108.992 127.147 C 110.680 127.735, 112.676 129.407, 113.428 130.861 C 115.330 134.539, 117.445 136.235, 125.500 140.541 C 129.350 142.599, 132.735 144.642, 133.022 145.082 C 133.309 145.521, 135.109 146.936, 137.022 148.226 C 146.165 154.395, 151 154.002, 151 147.091 C 151 142.474, 147.091 137.789, 139.662 133.500 C 137.002 131.964, 134.591 130.098, 134.305 129.354 C 134.020 128.609, 133.266 128, 132.630 128 C 131.994 128, 129.203 126.471, 126.428 124.602 C 123.653 122.733, 119.609 120.581, 117.441 119.820 C 111.207 117.630, 112.249 116.337, 121.287 115.049 C 133.641 113.288, 136.974 112.214, 137.882 109.700 C 138.319 108.490, 138.597 101.875, 138.500 95 C 138.402 88.125, 138.748 80.208, 139.268 77.407 C 140.441 71.085, 138.458 66.507, 133.683 64.512 C 130.314 63.104, 107.196 60.470, 106.277 61.389 C 105.980 61.687, 104.896 61.480, 103.869 60.930 C 101.720 59.780, 101.239 53.589, 103.203 52.374 C 103.865 51.965, 113.245 51.750, 124.048 51.896 C 146.397 52.197, 151.616 51.380, 152.608 47.424 C 154.166 41.219, 147.239 39.366, 119.500 38.565 C 110.150 38.295, 102.424 38.057, 102.331 38.037 C 102.238 38.017, 102.148 35.223, 102.132 31.829 C 102.098 24.666, 100.073 21.582, 96.352 23.026 M 64.200 74.243 C 62.413 75.103, 61.966 76.037, 62.200 78.425 L 62.500 81.500 74.921 81.782 C 88.077 82.081, 88.953 81.801, 88.985 77.297 C 88.996 75.598, 88.142 74.856, 85.250 74.053 C 80.383 72.701, 67.154 72.820, 64.200 74.243 M 103.104 75.375 C 102.417 76.202, 102.001 78.144, 102.178 79.690 L 102.500 82.500 112 82.298 C 117.225 82.187, 123.188 82.074, 125.250 82.048 C 128.279 82.009, 129 81.627, 129 80.059 C 129 77.261, 127.647 76.750, 118.074 75.935 C 113.358 75.534, 108.342 74.905, 106.926 74.538 C 105.194 74.090, 103.943 74.363, 103.104 75.375 M 63.750 95.080 C 61.736 96.253, 61.453 98.544, 63.189 99.617 C 64.605 100.492, 86.927 101.880, 88.804 101.210 C 89.545 100.946, 89.977 99.612, 89.804 98.122 C 89.540 95.848, 88.904 95.410, 85 94.824 C 78.112 93.790, 65.709 93.939, 63.750 95.080 M 101 96.978 L 98.500 98.912 100.639 101.067 C 102.475 102.917, 103.838 103.206, 110.260 103.110 C 114.375 103.048, 120.111 102.548, 123.007 101.999 C 125.903 101.449, 128.468 101, 128.706 101 C 128.944 101, 128.995 99.987, 128.820 98.750 C 128.541 96.789, 127.729 96.418, 122.500 95.859 C 110.353 94.560, 103.677 94.907, 101 96.978" stroke="none" fill="black" fill-rule="evenodd"/>
</svg>