<svg xmlns="http://www.w3.org/2000/svg" width="256" height="256" viewBox="0 0 256 256" version="1.1">
	<path d="M 49.512 29.981 C 49.178 30.521, 48.719 33.519, 48.491 36.642 C 48.264 39.766, 47.637 42.763, 47.099 43.301 C 46.561 43.839, 43.741 44.656, 40.833 45.116 C 37.150 45.698, 35.024 46.641, 33.828 48.226 C 32.205 50.376, 32.205 50.662, 33.842 53.467 C 35.050 55.536, 36.911 56.821, 39.999 57.715 C 46.994 59.740, 47.442 60.605, 47.336 71.884 C 47.286 77.321, 46.661 84.042, 45.949 86.822 C 44.896 90.932, 44.891 92.937, 45.927 97.565 C 47.097 102.792, 47.041 103.468, 45.246 105.877 C 43.675 107.986, 42.175 108.622, 37.595 109.123 C 28.512 110.117, 24.073 116.041, 29.042 120.538 C 30.599 121.947, 32.917 122.439, 38.792 122.606 C 43.032 122.727, 55.275 123.352, 66 123.995 C 94.248 125.688, 92.996 125.723, 95.057 123.179 C 97.197 120.535, 96.278 115.839, 93.027 112.810 C 91.912 111.772, 91.005 109.702, 91.011 108.211 C 91.017 106.720, 90.795 97.400, 90.518 87.500 C 89.891 65.095, 90.892 59.317, 95.830 56.843 C 100.857 54.324, 103 51.970, 103 48.966 C 103 46.120, 100.394 44.436, 95 43.797 C 92.692 43.523, 92.492 43.083, 92.396 38.077 C 92.313 33.731, 91.844 32.292, 90.035 30.827 C 84.766 26.561, 81.100 29.294, 80.463 37.965 C 80.202 41.510, 79.579 44.821, 79.078 45.322 C 78.126 46.274, 60.359 46.340, 58.834 45.398 C 58.353 45.100, 58.247 42.049, 58.598 38.618 C 59.121 33.514, 58.930 32.073, 57.547 30.690 C 55.713 28.856, 50.492 28.396, 49.512 29.981 M 112.963 35.545 C 110.162 38.919, 109.356 47.627, 107.456 95 C 106.876 109.462, 104.691 125.922, 102.908 129.262 C 101.813 131.314, 99.499 138.279, 98.585 142.271 C 97.865 145.421, 99.250 148.703, 102.367 151.228 C 106.533 154.603, 110.180 152.509, 111.472 146 C 111.855 144.075, 113.515 136.650, 115.162 129.500 C 116.809 122.350, 118.358 115.476, 118.604 114.225 C 119.593 109.191, 122.235 108, 132.418 108 C 137.598 108, 142.548 108.273, 143.418 108.607 C 144.758 109.121, 145 111.387, 145 123.407 C 145 138.122, 144.517 140, 140.729 140 C 138.633 140, 136.719 141.626, 135.725 144.250 C 134.895 146.443, 135.820 149, 137.443 149 C 138.119 149, 140.268 150.778, 142.219 152.952 C 148.668 160.135, 154.451 159.391, 155.475 151.247 C 155.803 148.636, 156.531 143.899, 157.092 140.720 C 157.653 137.542, 158.009 128.767, 157.883 121.220 C 157.756 113.674, 158.012 91.685, 158.451 72.355 L 159.249 37.209 156.791 35.599 C 154.715 34.239, 151.195 34.011, 134.171 34.136 C 119.316 34.245, 113.734 34.615, 112.963 35.545 M 124.214 48.750 C 122.637 50.125, 122.080 52.215, 121.617 58.500 C 120.861 68.764, 121.262 69.401, 127.585 67.971 C 130.288 67.359, 135.650 67.003, 139.500 67.179 L 146.500 67.500 146.209 58.553 C 146.049 53.632, 145.431 49.020, 144.837 48.303 C 143.074 46.180, 126.757 46.534, 124.214 48.750 M 59.446 60.087 C 58.017 62.399, 61.218 63.730, 75.238 66.653 C 78.405 67.313, 79.590 65.489, 78.589 61.498 C 77.979 59.068, 77.721 59, 69.040 59 C 63.694 59, 59.849 59.436, 59.446 60.087 M 59.601 79.888 C 55.225 84.724, 61.275 87.937, 71.787 86.358 C 77.486 85.502, 77.500 85.491, 77.500 82 L 77.500 78.500 69.439 78.213 C 62.478 77.964, 61.135 78.193, 59.601 79.888 M 121.557 82.223 C 119.686 84.893, 119.496 92.337, 121.262 93.802 C 122.143 94.533, 123.787 94.512, 126.712 93.731 C 129.921 92.875, 132.459 92.923, 137.561 93.937 C 145.400 95.495, 145.961 95.089, 145.985 87.832 C 146.011 79.904, 146.158 80, 133.950 80 C 123.885 80, 123.003 80.158, 121.557 82.223 M 61 99.764 C 58.953 100.400, 57 103.015, 57 105.120 C 57 108.784, 59.759 110, 68.071 110 C 74.593 110, 76.345 109.655, 77.946 108.054 C 79.559 106.441, 79.730 105.545, 78.946 102.811 C 78.426 100.997, 78 99.480, 78 99.440 C 78 99.104, 62.154 99.406, 61 99.764 M 74.571 133.571 C 71.990 136.153, 72.730 138.483, 78.179 144.927 C 83.442 151.150, 86.208 152.704, 89.926 151.524 C 94.416 150.099, 93.266 140.637, 87.905 134.899 C 85.689 132.526, 84.376 132, 80.670 132 C 77.888 132, 75.537 132.606, 74.571 133.571 M 48 133.704 C 41.937 135.910, 38.617 144.440, 40.881 151.996 C 43.027 159.161, 46.455 157.991, 52.438 148.051 C 56.409 141.452, 57.687 136.532, 55.966 134.459 C 54.768 133.015, 50.900 132.648, 48 133.704" stroke="none" fill="black" fill-rule="evenodd"/>
</svg>