<svg xmlns="http://www.w3.org/2000/svg" width="256" height="256" viewBox="0 0 256 256" version="1.1">
	<path d="M 60.011 28.790 C 58.107 30.332, 57.736 31.820, 57.336 39.521 C 57.059 44.846, 56.392 48.766, 55.686 49.215 C 55.034 49.630, 51.125 49.979, 47 49.990 C 34.621 50.025, 30 52.175, 30 57.899 C 30 61.318, 33.693 62.487, 44.275 62.418 C 53.603 62.356, 54.076 62.456, 54.615 64.603 C 55.368 67.603, 52.976 72.384, 50.492 72.845 C 49.397 73.049, 47.932 73.676, 47.238 74.240 C 45.546 75.614, 42 83.753, 42 86.264 C 42 87.370, 38.850 94.288, 35 101.639 C 31.150 108.989, 28 115.866, 28 116.920 C 28 123.780, 33.141 123.921, 40.095 117.250 C 44.943 112.600, 46.800 108.675, 48.492 99.500 C 50.111 90.718, 50.605 89.496, 52.653 89.198 C 54.536 88.925, 54.788 89.536, 55.333 95.698 C 55.664 99.439, 55.932 113.465, 55.929 126.867 C 55.922 152.115, 56.562 157.160, 60.008 159.004 C 65.353 161.865, 68.179 155.464, 68.597 139.554 C 69.260 114.261, 69.106 102.380, 68.072 99.007 C 67.482 97.085, 67 93.200, 67 90.373 C 67 84.052, 69.147 82.920, 74.145 86.607 C 75.929 87.923, 78.157 89, 79.096 89 C 80.749 89, 83 84.491, 83 81.180 C 83 80.342, 83.641 78.947, 84.424 78.079 C 86.317 75.979, 84.973 74.271, 78.500 70.553 C 67.583 64.283, 67.073 62.346, 76.075 61.343 C 84.410 60.414, 88.310 55.541, 84.685 50.584 C 83.716 49.259, 81.773 48.716, 77.292 48.518 C 73.949 48.371, 70.731 47.952, 70.141 47.587 C 69.440 47.154, 69.276 44.229, 69.669 39.140 C 70.257 31.515, 70.212 31.312, 67.500 29.178 C 64.137 26.533, 62.878 26.468, 60.011 28.790 M 116.872 28.664 C 115.943 29.791, 115.557 32.694, 115.677 37.663 C 115.885 46.268, 116.098 46.123, 103.835 45.740 C 95.504 45.479, 91.825 47.076, 89.309 52.044 C 87.227 56.156, 90.632 57.474, 103.826 57.659 C 110.055 57.747, 115.381 58.047, 115.660 58.327 C 116.879 59.546, 116.967 66.708, 115.789 68.902 C 114.600 71.118, 113.843 71.321, 106 71.518 C 101.325 71.636, 96.252 72.320, 94.726 73.038 C 91.415 74.595, 89.990 78.788, 92.217 80.417 C 93.048 81.024, 95.641 83.250, 97.979 85.362 C 101.813 88.826, 102.173 89.544, 101.662 92.698 C 100.778 98.143, 105.434 109.444, 110.747 114.748 C 114.511 118.506, 114.783 120.030, 112 121.768 C 110.757 122.544, 110 124.100, 110 125.877 C 110 128.466, 109.614 128.788, 105.927 129.283 C 101.662 129.855, 96.902 132.700, 90.693 138.387 C 87.364 141.436, 87 142.271, 87 146.850 C 87 150.889, 87.406 152.147, 88.979 152.989 C 92.339 154.787, 95.616 153.090, 103.635 145.402 C 107.881 141.331, 111.725 138, 112.175 138 C 112.626 138, 114.793 136.375, 116.992 134.388 C 120.489 131.229, 121.427 130.857, 124.466 131.428 C 126.377 131.786, 129.192 133.125, 130.721 134.403 C 132.249 135.681, 134.481 137.033, 135.680 137.408 C 136.880 137.784, 138.680 139.351, 139.680 140.891 C 142.392 145.063, 151.784 153, 154.010 153 C 155.079 153, 156.690 151.877, 157.589 150.504 C 160.010 146.809, 158.701 141.775, 154.140 137.243 C 150.341 133.469, 145.113 129, 144.497 129 C 144.313 129, 142.290 127.200, 140 125 C 137.710 122.800, 135.026 121, 134.035 121 C 131.573 121, 130.827 116.587, 132.895 114.259 C 136.395 110.320, 140.911 103.202, 141.566 100.593 C 141.946 99.078, 142.874 97.602, 143.629 97.312 C 144.383 97.023, 145 95.510, 145 93.950 C 145 92.302, 145.792 90.559, 146.890 89.790 C 149.935 87.657, 151.550 80.779, 150.123 76.016 C 149.467 73.825, 148.136 71.608, 147.166 71.089 C 146.197 70.570, 141.826 70, 137.454 69.823 L 129.505 69.500 128.623 65.309 C 127.118 58.160, 127.385 58, 140.832 58 C 152.351 58, 152.811 57.917, 155.364 55.364 C 156.814 53.914, 158 52.198, 158 51.552 C 158 50.648, 155.100 46.797, 153.711 45.857 C 153.595 45.779, 147.650 45.441, 140.500 45.107 L 127.500 44.500 126.835 37.049 C 126.350 31.607, 125.691 29.247, 124.394 28.299 C 121.943 26.507, 118.515 26.673, 116.872 28.664 M 117.500 84.005 C 112.932 84.698, 108.786 87.004, 109.432 88.492 C 109.673 89.046, 110.421 91.188, 111.093 93.250 C 111.816 95.465, 112.968 97.015, 113.908 97.036 C 114.784 97.056, 116.791 98.128, 118.370 99.419 L 121.239 101.766 126.101 99.158 C 130.758 96.660, 134 91.917, 134 87.602 C 134 84.017, 127.197 82.534, 117.500 84.005" stroke="none" fill="black" fill-rule="evenodd"/>
</svg>