<svg xmlns="http://www.w3.org/2000/svg" width="256" height="256" viewBox="0 0 256 256" version="1.1">
	<path d="M 57.117 28.375 C 55.266 30.346, 54.786 32.305, 54.294 39.893 C 53.613 50.406, 54.637 49.589, 41.178 50.350 C 32.114 50.863, 29 52.457, 29 56.584 C 29 61.642, 33.730 63.564, 44.047 62.699 C 51.462 62.078, 52.395 62.658, 50.818 66.916 C 49.992 69.147, 46.909 72.482, 45.013 73.197 C 44.572 73.364, 43.095 77.550, 41.732 82.500 C 38.885 92.833, 32.893 107.356, 30.288 110.234 C 29.253 111.378, 28.655 113.301, 28.854 114.848 C 29.725 121.637, 34.529 121.838, 40.498 115.337 C 44.211 111.294, 45.144 109.299, 47.520 100.337 C 49.027 94.652, 50.625 90, 51.071 90 C 52.307 90, 53.474 92.217, 53.703 95 C 53.816 96.375, 54.160 100.200, 54.467 103.500 C 54.774 106.800, 55.244 114.450, 55.511 120.500 C 56.876 151.410, 57.512 157.804, 59.438 159.931 C 61.896 162.647, 65.611 162.595, 67.095 159.823 C 68.921 156.410, 68.789 120.594, 66.902 107.532 C 65.536 98.081, 65.006 85.502, 65.913 84.088 C 66.693 82.872, 67.012 82.872, 68.215 84.088 C 68.983 84.865, 69.888 86.231, 70.227 87.125 C 70.844 88.756, 75.023 89.850, 78.203 89.213 C 82.295 88.393, 82.794 73, 78.729 73 C 78.294 73, 76.553 71.421, 74.858 69.491 C 73.164 67.561, 70.702 65.712, 69.389 65.383 C 68.075 65.053, 67 64.412, 67 63.959 C 67 62.904, 69.025 62.308, 76.696 61.102 C 80.103 60.567, 83.752 59.668, 84.805 59.104 C 85.858 58.541, 88.245 58.318, 90.109 58.608 C 91.974 58.899, 98.900 59.218, 105.500 59.318 L 117.500 59.500 117.798 64.614 C 118.084 69.535, 117.971 69.784, 114.798 71.249 C 112.984 72.085, 109.267 73.089, 106.537 73.478 C 96.065 74.972, 90.174 79.045, 93.782 82.296 C 94.727 83.148, 96.737 84.104, 98.250 84.422 C 99.763 84.740, 102.146 85.239, 103.546 85.531 L 106.093 86.061 104.076 88.893 C 102.430 91.205, 102.233 92.325, 103.001 95.004 C 104.197 99.174, 103.827 99.699, 98.708 101.083 C 92.342 102.804, 90 104.156, 90 106.110 C 90 107.085, 89.521 108.178, 88.935 108.540 C 88.238 108.971, 88.464 109.855, 89.590 111.099 C 91.596 113.316, 98.875 113.719, 101.973 111.785 C 103.515 110.822, 104.708 110.849, 107.710 111.912 C 113.459 113.948, 113.774 114.420, 112.939 119.742 C 112.527 122.370, 112.598 124.925, 113.097 125.450 C 113.594 125.973, 114 127.806, 114 129.524 C 114 132.546, 113.748 132.726, 106.250 135.062 C 96.635 138.056, 89.869 143.547, 90.629 147.737 C 91.338 151.648, 91.775 152, 95.933 152 C 102.867 152, 117.973 145.497, 120.697 141.339 C 121.540 140.053, 123.110 139, 124.186 139 C 126.241 139, 129 141.185, 129 142.812 C 129 143.936, 135.940 150.362, 138.816 151.902 C 142.144 153.683, 154.170 154.280, 156.930 152.802 C 160.182 151.060, 161.124 146.950, 159.683 140.795 C 158.267 134.742, 155.755 133.030, 151.112 134.953 C 149.337 135.689, 148.338 136.718, 148.640 137.503 C 149.339 139.326, 145.801 140.255, 142.680 139.068 C 141.259 138.528, 139.411 136.762, 138.574 135.144 C 137.168 132.425, 137.202 132.012, 139.027 129.693 C 140.112 128.313, 141 126.495, 141 125.651 C 141 124.808, 141.450 123.840, 142 123.500 C 143.696 122.452, 143.106 118.406, 140.976 116.479 C 139.431 115.080, 139.253 114.456, 140.226 113.839 C 140.989 113.355, 139.780 113.024, 137.208 113.015 C 134.283 113.005, 132.233 113.637, 130.770 115 C 128.433 117.176, 126.332 117.495, 124.008 116.026 C 122.815 115.272, 122.767 114.833, 123.766 113.834 C 124.605 112.995, 130.094 112.407, 140.475 112.042 C 156.745 111.472, 158.011 111.094, 159.416 106.389 C 159.821 105.034, 159.351 103.424, 158.104 101.889 C 156.326 99.701, 155.513 99.519, 148.448 99.727 C 144.205 99.851, 140.374 99.731, 139.934 99.459 C 138.673 98.680, 142.120 89.730, 144.422 87.804 C 145.565 86.849, 147.519 86.052, 148.764 86.033 C 151.088 85.999, 154.166 84.571, 157.250 82.095 C 159.293 80.455, 159.577 75.138, 157.750 72.746 C 155.687 70.045, 151.457 69.543, 149.260 71.740 C 144.363 76.637, 140.920 74.549, 142.914 67.893 C 143.580 65.668, 143.854 62.613, 143.523 61.103 C 143.023 58.826, 143.361 58.156, 145.507 57.179 C 146.930 56.530, 149.085 55.998, 150.297 55.996 C 152.805 55.992, 159 52.504, 159 51.096 C 159 47.041, 154.320 44.036, 147.789 43.898 C 140.642 43.746, 140.500 43.620, 140.500 37.424 C 140.500 32.745, 140.112 31.509, 138.139 29.912 C 135.318 27.627, 130.728 27.418, 129.004 29.495 C 127.236 31.625, 127.560 38.856, 129.520 41.022 C 131.052 42.715, 131.015 42.985, 128.971 45.029 C 127.147 46.853, 126.085 47.112, 122.640 46.577 C 117.668 45.804, 116.432 44.365, 115.521 38.292 C 115.053 35.172, 113.909 32.755, 111.991 30.837 C 108.622 27.469, 107.648 27.352, 105 30 C 102.644 32.356, 102.435 36.394, 104.467 40.289 C 105.787 42.819, 105.748 43.252, 104.050 44.950 C 103.021 45.979, 99.551 47.337, 96.339 47.967 C 93.128 48.597, 89.296 49.579, 87.824 50.147 C 86.352 50.716, 84.102 50.836, 82.824 50.414 C 81.546 49.992, 77.350 49.389, 73.500 49.073 L 66.500 48.500 66.799 39.617 C 67.070 31.586, 66.885 30.507, 64.875 28.367 C 62.060 25.370, 59.938 25.373, 57.117 28.375 M 129.459 59.067 C 128.539 60.556, 129.606 61.365, 131.520 60.631 C 132.404 60.292, 132.847 59.561, 132.504 59.007 C 131.694 57.696, 130.289 57.723, 129.459 59.067 M 116.864 81.941 C 112.718 84.630, 111.995 87.137, 114.611 89.754 C 115.814 90.957, 116.072 92.454, 115.632 95.669 C 115.097 99.571, 115.259 100.027, 117.366 100.556 C 118.645 100.877, 121.448 100.995, 123.595 100.820 L 127.499 100.500 127.734 95.170 C 127.864 92.239, 128.624 87.637, 129.425 84.942 C 130.225 82.248, 130.533 79.829, 130.110 79.568 C 128.019 78.276, 120.416 79.638, 116.864 81.941" stroke="none" fill="black" fill-rule="evenodd"/>
</svg>