<svg xmlns="http://www.w3.org/2000/svg" width="256" height="256" viewBox="0 0 256 256" version="1.1">
	<path d="M 119.293 28.641 C 114.187 35.296, 113.050 36.166, 110.185 35.605 C 102.789 34.160, 96.360 34.009, 94 35.226 C 90.886 36.832, 88.354 41.992, 87.531 48.408 C 87.184 51.108, 86.518 54.033, 86.049 54.908 C 84.724 57.384, 84.742 57.951, 86.219 60.303 C 86.977 61.511, 88.693 65.313, 90.032 68.750 C 91.370 72.188, 92.811 75, 93.233 75 C 93.655 75, 94 75.900, 94 77 C 94 78.100, 93.558 79, 93.017 79 C 91.867 79, 86.596 88.993, 87.733 89.015 C 88.155 89.024, 87.901 89.411, 87.168 89.875 C 86.069 90.572, 86.060 91.469, 87.117 94.995 C 88.954 101.127, 92.229 102.860, 100.819 102.245 C 106.245 101.857, 107.823 102.082, 108.915 103.398 C 110.093 104.817, 109.891 105.361, 107.386 107.515 C 105.799 108.881, 103.857 109.998, 103.071 109.999 C 98.678 110.003, 93.448 112.876, 87.201 118.717 C 82.555 123.062, 83.387 124.898, 89.978 124.847 C 96.871 124.794, 98.141 126.055, 97.873 132.687 C 97.749 135.748, 98.159 138.559, 98.828 139.228 C 99.472 139.872, 100 141.435, 100 142.700 C 100 144.552, 99.455 145, 97.200 145 C 92.453 145, 90.238 149.381, 93.391 152.534 C 94.579 153.722, 95.487 153.585, 99.610 151.595 C 103.231 149.848, 105.143 149.467, 107.259 150.074 C 109.060 150.591, 111.459 150.397, 113.896 149.537 C 115.996 148.796, 120.609 147.880, 124.149 147.501 C 129.959 146.879, 131.504 147.150, 140.042 150.295 C 152.148 154.754, 154.588 155.154, 157.125 153.100 C 158.654 151.862, 158.988 150.799, 158.481 148.781 C 157.721 145.751, 155.297 143.906, 149.500 141.944 C 147.300 141.200, 144.442 139.670, 143.150 138.545 C 141.096 136.758, 140.871 135.884, 141.368 131.624 C 141.680 128.941, 142.670 125.627, 143.567 124.258 C 145.054 121.988, 145.628 121.826, 150.085 122.417 C 156.906 123.322, 161.005 121.182, 160.988 116.724 C 160.978 114.170, 160.277 113.048, 157.613 111.323 C 152.701 108.143, 142.132 107.298, 134.397 109.469 C 126.421 111.707, 121.608 111.264, 121.181 108.252 C 120.730 105.079, 123.241 104.403, 138.500 103.590 C 154.747 102.726, 154.864 102.640, 155.141 91.308 C 155.272 85.951, 154.909 82.595, 154.091 81.609 C 151.989 79.076, 145.909 77.639, 137.215 77.619 C 130.277 77.603, 128.979 77.348, 129.228 76.050 C 129.468 74.803, 131.262 74.470, 138.401 74.345 C 149.397 74.153, 151.733 73.027, 153.301 67.164 C 153.954 64.724, 156.178 60.807, 158.244 58.460 C 162.781 53.306, 162.957 50.544, 159.041 45.962 C 157.413 44.058, 156.063 41.959, 156.041 41.297 C 155.947 38.519, 153.555 35.058, 150.996 33.998 C 149.314 33.301, 145.304 33.071, 140.633 33.402 C 132.498 33.980, 130 33.539, 130 31.528 C 130 29.381, 125.953 25, 123.970 25 C 122.933 25, 120.829 26.638, 119.293 28.641 M 48.625 28.862 C 46.201 31.541, 44.857 36.923, 45.551 41.175 C 45.887 43.237, 45.648 45.789, 45.006 46.988 C 43.986 48.895, 43.301 49.057, 38.681 48.486 C 29.871 47.396, 24.671 50.990, 27.158 56.448 C 28.249 58.842, 30.705 59.974, 37.500 61.213 C 40.192 61.704, 39.782 67.100, 36.729 71.361 C 33.563 75.779, 32.058 78.843, 31.042 82.935 C 30.555 84.896, 28.959 90.550, 27.495 95.500 C 23.487 109.047, 23.311 111.502, 26.208 113.400 C 28.193 114.701, 29.155 114.768, 31.759 113.785 C 35.314 112.443, 38.834 105.681, 41.018 96 C 42.428 89.752, 44.948 84.817, 46.471 85.322 C 47.129 85.541, 47.755 97.617, 48.209 118.844 C 48.803 146.620, 49.188 152.593, 50.573 155.513 C 52.517 159.609, 55.655 160.147, 58.595 156.888 C 60.363 154.928, 60.494 153.040, 60.411 130.638 C 60.362 117.362, 59.779 102.532, 59.115 97.683 C 58.451 92.834, 58.184 87.996, 58.521 86.933 C 59.323 84.406, 63.255 84.409, 66.790 86.938 C 68.281 88.004, 70.850 89.017, 72.500 89.188 L 75.500 89.500 75.396 83.938 C 75.293 78.376, 72.963 73, 70.657 73 C 70.045 73, 67.959 71.283, 66.022 69.184 C 64.085 67.085, 61.675 65.060, 60.667 64.683 C 59.659 64.307, 59.024 63.437, 59.256 62.749 C 59.555 61.867, 62.475 61.500, 69.186 61.500 C 75.231 61.500, 79.608 61.011, 81.206 60.157 L 83.718 58.813 78.902 53.997 C 74.228 49.323, 73.885 49.169, 67.268 48.789 C 63.519 48.573, 59.899 48.056, 59.225 47.639 C 58.435 47.151, 58 44.228, 58 39.406 C 58 30.992, 56.243 27, 52.540 27 C 51.313 27, 49.552 27.838, 48.625 28.862 M 107.096 44.306 C 102.859 45.792, 100.825 48.626, 103 50.013 C 103.825 50.539, 106.790 50.976, 109.589 50.985 C 114.113 50.998, 114.811 50.710, 115.869 48.388 C 118.085 43.525, 114.320 41.773, 107.096 44.306 M 129.667 44.667 C 128.164 46.170, 129.100 48.982, 131.250 49.423 C 141.208 51.466, 145 51.110, 145 48.133 C 145 47.180, 144.460 45.860, 143.800 45.200 C 142.543 43.943, 130.832 43.501, 129.667 44.667 M 107.750 59.764 C 104.588 60.563, 102 61.511, 102 61.873 C 102 62.732, 111.220 66, 113.644 66 C 115.716 66, 118.407 62.467, 117.478 60.965 C 116.089 58.716, 113.278 58.369, 107.750 59.764 M 134.826 58.707 C 130.740 59.157, 128.055 61.455, 129.697 63.097 C 130.253 63.653, 133.362 63.972, 136.604 63.804 C 142.145 63.518, 142.500 63.350, 142.500 61 C 142.500 58.290, 141.453 57.977, 134.826 58.707 M 104.147 74.105 C 99.273 74.744, 95.958 76.292, 97.074 77.408 C 97.862 78.195, 114.917 78.416, 115.684 77.649 C 116.973 76.360, 114.391 73.502, 111.892 73.452 C 110.577 73.425, 107.091 73.719, 104.147 74.105 M 107 87.733 C 96.122 89.067, 95.322 90.670, 104.561 92.619 C 114.358 94.685, 115.178 94.536, 114.813 90.750 C 114.485 87.341, 113.451 86.942, 107 87.733 M 128.011 89.487 C 127.332 90.305, 127.037 91.655, 127.357 92.487 C 128.215 94.724, 142.221 94.644, 144.090 92.392 C 145.224 91.025, 145.138 90.574, 143.521 89.392 C 140.867 87.451, 129.643 87.520, 128.011 89.487 M 110.369 126.659 C 108.912 130.146, 108.931 130.478, 110.655 131.767 C 111.972 132.751, 114.887 133.053, 120.838 132.823 C 128.247 132.536, 129.395 132.230, 131.136 130.081 C 132.213 128.750, 132.961 126.725, 132.797 125.581 C 132.521 123.649, 131.763 123.480, 122.214 123.215 L 111.928 122.929 110.369 126.659" stroke="none" fill="black" fill-rule="evenodd"/>
</svg>