<svg xmlns="http://www.w3.org/2000/svg" width="256" height="256" viewBox="0 0 256 256" version="1.1">
	<path d="M 112.665 29.256 C 110.837 30.592, 108.032 39.651, 108.012 44.280 C 108.005 45.809, 106.858 49.772, 105.463 53.087 C 104.068 56.402, 102.513 61.294, 102.008 63.957 C 100.994 69.303, 96.958 74.582, 94.582 73.670 C 92.498 72.870, 91.755 67.646, 92.206 56.961 L 92.596 47.716 96.548 44.384 C 100.392 41.143, 100.459 40.978, 99 38.347 C 98.175 36.860, 96.150 35.241, 94.500 34.751 C 92.842 34.259, 78.996 34.125, 63.538 34.454 C 32.733 35.108, 31 35.451, 31 40.901 C 31 46.246, 32.200 46.500, 57.415 46.500 L 80.500 46.500 80.374 50.500 C 80.305 52.700, 80.109 62.082, 79.938 71.349 C 79.639 87.540, 79.539 88.256, 77.382 89.669 C 75.551 90.869, 71.258 91.092, 54.089 90.876 C 33.158 90.614, 33.027 90.626, 30.521 92.981 C 27.271 96.034, 27.326 98.512, 30.692 100.718 C 32.939 102.190, 35.217 102.432, 44.442 102.179 C 50.524 102.013, 57.736 102.378, 60.469 102.992 C 64.162 103.820, 67.205 103.809, 72.313 102.947 C 76.605 102.223, 79.541 102.141, 80.128 102.728 C 80.645 103.245, 81.165 112.706, 81.284 123.753 C 81.495 143.350, 81.445 143.895, 79.250 146.233 C 76.409 149.259, 76.412 151.205, 79.266 154.523 C 81.894 157.578, 87.323 159.044, 91.199 157.745 C 94.686 156.576, 96.476 151.419, 95.578 145.125 C 95.215 142.581, 94.729 137.125, 94.499 133 C 94.268 128.875, 93.808 120.693, 93.477 114.819 C 92.915 104.837, 93.006 104.067, 94.872 103.068 C 96.993 101.933, 101.253 102.983, 102.462 104.938 C 103.796 107.097, 106.146 105.894, 107.656 102.282 C 108.778 99.597, 109.029 96.977, 108.563 92.850 C 108.087 88.649, 108.344 86.126, 109.533 83.318 C 110.422 81.218, 112.244 76.065, 113.582 71.867 C 114.919 67.669, 116.674 63.686, 117.481 63.016 C 118.595 62.091, 120.827 62.042, 126.725 62.810 C 131.001 63.366, 136.844 63.582, 139.708 63.288 C 147.880 62.450, 148.518 63.044, 145.609 68.784 C 144.264 71.439, 142.867 75.193, 142.504 77.127 C 141.906 80.313, 142.174 80.895, 145.355 83.322 C 147.287 84.795, 149.459 85.999, 150.183 85.998 C 151.528 85.996, 157 78.152, 157 76.226 C 157 75.641, 157.632 73.888, 158.404 72.331 C 159.748 69.621, 161.801 62.297, 162.702 57 C 162.935 55.625, 162.459 53.600, 161.643 52.500 C 160.252 50.625, 158.998 50.500, 141.548 50.500 C 120.361 50.500, 120.650 50.613, 121.326 42.572 C 121.853 36.308, 120.525 31.481, 117.739 29.529 C 115.096 27.679, 114.841 27.665, 112.665 29.256 M 36.988 54.724 C 35.769 55.575, 35.059 57.858, 34.654 62.224 C 34.334 65.676, 33.806 70.975, 33.480 74 C 32.997 78.489, 33.264 80.097, 34.930 82.750 L 36.971 86 50.235 85.986 C 65.565 85.971, 67.351 85.639, 69.463 82.416 C 71.434 79.407, 71.568 76.359, 69.907 72.298 C 68.844 69.698, 68.833 68.175, 69.850 64.208 C 71.336 58.410, 69.987 54.113, 66.589 53.819 C 57.958 53.072, 38.501 53.667, 36.988 54.724 M 44.783 67.578 C 42.885 71.742, 44.717 73.448, 51.466 73.803 C 55.806 74.032, 57.690 73.686, 59.112 72.398 C 63.295 68.613, 59.458 65, 51.256 65 C 46.532 65, 45.830 65.280, 44.783 67.578 M 123.107 71.913 C 121.345 73.029, 120.136 80.287, 120.060 90.216 C 120.027 94.500, 119.373 99.393, 118.590 101.216 C 117.815 103.022, 115.322 109.450, 113.051 115.500 C 110.780 121.550, 108.475 127.175, 107.930 128 C 107.384 128.825, 105.347 132.650, 103.403 136.500 C 101.460 140.350, 99.268 144.566, 98.533 145.869 C 97.425 147.834, 97.421 148.772, 98.513 151.369 C 99.237 153.091, 100.093 154.387, 100.415 154.250 C 100.737 154.113, 101.987 154, 103.193 154 C 105.829 154, 114.745 145.068, 117.173 139.995 C 118.093 138.073, 120.040 133.910, 121.500 130.744 C 125.837 121.334, 129.069 120.947, 133.491 129.308 C 135.001 132.164, 137.719 136.075, 139.531 138 C 141.344 139.925, 144.781 143.666, 147.169 146.312 C 150.630 150.148, 152.330 151.235, 155.547 151.666 C 164.208 152.828, 164.207 145.118, 155.546 136.696 C 152.607 133.838, 148.958 129.025, 147.436 126 C 142.952 117.084, 137.308 112.129, 133.844 114.068 C 132.541 114.796, 132.139 114.269, 131.646 111.190 C 131.315 109.116, 131.451 104.738, 131.949 101.460 C 132.447 98.182, 133.158 90.933, 133.528 85.351 C 134.156 75.889, 134.059 75.059, 132.101 73.101 C 129.937 70.937, 125.561 70.359, 123.107 71.913 M 95.299 78.834 C 93.673 79.868, 90.008 86.311, 90.004 88.143 C 89.996 91.333, 95.242 91.923, 98.861 89.140 L 101.221 87.324 98.784 82.746 C 97.407 80.158, 95.891 78.457, 95.299 78.834 M 51.948 109.933 C 40.837 110.530, 36.097 112.256, 35.906 115.773 C 35.625 120.934, 35.082 126.197, 34.230 132 C 33.232 138.799, 33.751 141.718, 36.338 143.865 C 38.331 145.520, 68.363 143.773, 70.657 141.870 C 71.834 140.892, 72.001 139.186, 71.470 133.522 C 70.979 128.289, 71.226 124.977, 72.401 121.020 C 74.400 114.292, 74.404 112.547, 72.429 110.571 C 70.782 108.925, 70.744 108.923, 51.948 109.933 M 50.500 121.724 C 47.419 122.481, 46.257 123.796, 45.776 127.070 C 45.059 131.958, 46.725 133.238, 52.765 132.437 C 55.625 132.057, 58.368 131.241, 58.860 130.623 C 63.427 124.891, 58.585 119.736, 50.500 121.724" stroke="none" fill="black" fill-rule="evenodd"/>
</svg>