<svg xmlns="http://www.w3.org/2000/svg" width="256" height="256" viewBox="0 0 256 256" version="1.1">
	<path d="M 98.573 28.570 C 97.709 29.433, 96.815 31.121, 96.584 32.320 C 94.288 44.269, 93.770 50.018, 94.280 57.886 C 94.690 64.214, 94.513 67.149, 93.681 67.816 C 92.474 68.782, 70.563 67.897, 69.505 66.838 C 69.198 66.531, 68.789 60.142, 68.597 52.642 C 68.219 37.873, 67.593 36, 63.033 36 C 57.976 36, 56.577 38.971, 56.523 49.816 C 56.497 55.142, 56.117 60.063, 55.679 60.750 C 55.166 61.554, 52.396 62, 47.909 62 C 39.004 62, 34.468 63.802, 33.710 67.642 C 32.896 71.771, 35.226 74.794, 39.742 75.466 C 41.809 75.773, 47.376 76.920, 52.114 78.015 C 56.951 79.132, 62.056 79.739, 63.759 79.398 C 65.426 79.065, 69.964 79.514, 73.842 80.396 C 77.721 81.278, 82.917 82, 85.388 82 C 87.890 82, 90.236 82.554, 90.682 83.250 C 91.868 85.104, 91.841 129.243, 90.652 130.808 C 88.094 134.177, 78.196 136.742, 61.066 138.477 C 50.363 139.560, 48.387 140.039, 46.867 141.916 C 45.203 143.970, 45.200 144.217, 46.801 146.198 C 51.828 152.418, 51.280 152.238, 63.852 151.780 C 73.717 151.420, 76.854 150.872, 84.346 148.200 C 96.331 143.925, 99.440 141.808, 102.720 135.689 C 105.479 130.543, 105.545 130.498, 111.399 129.769 C 118.489 128.886, 119.168 128.453, 130.079 117.843 C 139.404 108.776, 142.503 104.404, 143.437 99 C 144.102 95.157, 143.524 93.838, 140.474 92.234 C 137.709 90.781, 135.783 92.031, 131.124 98.305 C 128.824 101.401, 124.925 104.914, 121.473 107 C 118.287 108.925, 113.962 112.251, 111.862 114.390 C 106.916 119.429, 105.420 118.393, 105.198 109.777 C 105.110 106.325, 104.541 100.193, 103.935 96.151 C 102.136 84.152, 103.867 81.632, 112.883 83.119 C 115.422 83.538, 124.763 83.908, 133.639 83.940 C 151.653 84.007, 153.425 83.447, 154.609 77.316 C 155.109 74.726, 154.725 73.634, 152.552 71.461 C 150.414 69.323, 149.343 68.935, 147.190 69.518 C 145.711 69.919, 136.062 70.452, 125.749 70.702 C 109.600 71.093, 106.916 70.945, 106.413 69.634 C 105.666 67.687, 107.794 53.806, 109.028 52.572 C 109.542 52.058, 115.614 51.282, 122.522 50.847 C 135.061 50.056, 142.388 48.716, 144.750 46.780 C 146.492 45.352, 146.309 41.886, 144.342 39.078 C 142.694 36.726, 142.606 36.716, 130.092 37.491 C 123.166 37.919, 115.250 38.322, 112.500 38.385 L 107.500 38.500 107.176 34.500 C 106.648 27.971, 102.222 24.920, 98.573 28.570 M 63.750 93.518 C 62.237 94.368, 60.999 95.387, 60.998 95.782 C 60.997 96.177, 59.017 97.847, 56.599 99.493 C 51.824 102.744, 47.890 108.225, 45.528 114.920 C 43.016 122.040, 46.048 124.622, 53.761 121.934 C 56.949 120.822, 60.534 116.322, 63.664 109.500 C 64.871 106.870, 66.613 105.010, 68.750 104.070 C 70.537 103.283, 72 102.270, 72 101.820 C 72 101.369, 72.900 100.100, 74 99 C 75.100 97.900, 75.993 96.662, 75.985 96.250 C 75.911 92.650, 68.312 90.953, 63.750 93.518 M 82 176 C 82 176.550, 83.013 176.993, 84.250 176.985 C 86.069 176.972, 86.213 176.784, 85 176 C 83.061 174.747, 82 174.747, 82 176" stroke="none" fill="black" fill-rule="evenodd"/>
</svg>