<svg xmlns="http://www.w3.org/2000/svg" width="256" height="256" viewBox="0 0 256 256" version="1.1">
	<path d="M 109.400 35.959 C 87.359 36.552, 86.923 36.673, 84.917 42.751 C 83.472 47.130, 84.549 78.301, 86.255 81.453 C 87.787 84.285, 87.440 100.549, 85.604 112 C 84.766 117.225, 82.493 127.800, 80.553 135.500 C 76.178 152.864, 76.021 156.597, 79.598 158.227 C 81.769 159.216, 82.797 159.089, 85.848 157.455 C 89.315 155.599, 89.590 155.069, 91.274 147 C 97.049 119.326, 99.057 106.037, 99.284 94 L 99.500 82.500 104.216 82.197 C 106.810 82.030, 109.837 82.378, 110.943 82.970 C 112.928 84.032, 112.929 84.071, 111.030 85.970 C 107.678 89.322, 106.819 94.958, 107.963 106.102 C 108.533 111.662, 109 119.582, 109 123.702 C 109 135.564, 111.062 141.007, 117.813 146.961 C 126.260 154.412, 130.644 156.146, 142.561 156.754 C 153.658 157.321, 159.308 155.757, 160.573 151.768 C 161.840 147.779, 159.948 129.443, 157.927 126.120 C 155.523 122.167, 151.762 121.907, 149.388 125.531 C 148.038 127.591, 147.856 129.450, 148.407 135.539 C 149.065 142.800, 149.015 143.044, 146.677 143.933 C 142.086 145.678, 127.611 141.256, 124.537 137.168 C 123.010 135.139, 122.484 132.515, 122.172 125.376 C 121.687 114.305, 121.430 114.540, 135 113.654 C 147.632 112.829, 151.813 111.595, 152.600 108.457 C 154.218 102.011, 150.423 100.591, 133.803 101.428 C 119.259 102.161, 119.771 102.442, 118.577 93.077 C 118.196 90.094, 117.455 86.851, 116.930 85.869 C 115.468 83.138, 118.277 82.188, 131.450 80.963 C 143.700 79.823, 151.121 77.511, 152.839 74.301 C 153.377 73.295, 153.867 67.135, 153.926 60.612 C 153.986 54.090, 154.298 48.327, 154.620 47.806 C 154.942 47.284, 154.906 44.862, 154.541 42.422 C 154.010 38.881, 153.293 37.686, 150.987 36.493 C 147.932 34.913, 148.166 34.916, 109.400 35.959 M 41.548 36.785 C 41.247 37.087, 41 38.165, 41 39.181 C 41 41.502, 45.860 44.533, 53 46.666 C 56.025 47.569, 60.449 48.921, 62.831 49.670 C 70.623 52.119, 75.506 47.519, 72.177 40.865 C 70.834 38.180, 69.703 37.368, 66.500 36.791 C 61.918 35.966, 42.372 35.961, 41.548 36.785 M 101.510 48.876 C 97.220 49.794, 96.017 53.039, 96.896 61.323 C 97.305 65.181, 98.192 68.500, 98.937 68.961 C 99.662 69.409, 101.885 69.593, 103.877 69.371 C 105.870 69.148, 114.250 68.553, 122.500 68.049 C 130.750 67.545, 138.243 66.846, 139.151 66.497 C 140.060 66.147, 141.066 64.880, 141.388 63.681 C 142.420 59.831, 142.039 50.439, 140.800 49.200 C 139.513 47.913, 107.253 47.648, 101.510 48.876 M 37.496 68.004 C 36.009 69.648, 35.884 70.450, 36.801 72.463 C 38.170 75.466, 44.318 78.734, 50.158 79.563 C 52.546 79.902, 55.986 80.632, 57.803 81.185 C 62.419 82.590, 65.533 81.542, 66.957 78.103 C 68.440 74.524, 67.034 71.249, 63.721 70.565 C 57.123 69.202, 40.416 65.999, 39.905 66 C 39.578 66, 38.494 66.902, 37.496 68.004 M 68.763 122.565 C 67.257 123.382, 65.754 125.131, 65.423 126.452 C 64.552 129.921, 62.761 131.228, 50.473 137.353 C 38.236 143.453, 35.667 145.641, 35.667 149.960 C 35.667 157.859, 43.789 157.864, 52.264 149.969 C 53.426 148.886, 55.080 147.987, 55.939 147.972 C 56.797 147.956, 59.975 147.126, 63 146.127 C 69.411 144.010, 70.964 141.780, 70.985 134.654 C 70.993 131.972, 71.737 128.562, 72.650 127.016 C 74.206 124.381, 73.995 120.952, 72.281 121.040 C 71.852 121.062, 70.268 121.748, 68.763 122.565" stroke="none" fill="black" fill-rule="evenodd"/>
</svg>