<svg xmlns="http://www.w3.org/2000/svg" width="256" height="256" viewBox="0 0 256 256" version="1.1">
	<path d="M 107.245 28.250 C 104.860 31.231, 104.798 34.299, 107.027 39.057 C 110.801 47.115, 110.304 47.399, 93.595 46.722 C 77.104 46.054, 75 46.697, 75 52.402 C 75 56.875, 77.343 58.683, 85.300 60.351 C 93.368 62.043, 95.639 63.504, 93.510 65.633 C 91.633 67.510, 89.952 73.693, 90.739 75.825 C 91.079 76.746, 92.852 79.477, 94.679 81.894 C 96.506 84.311, 98.472 88.136, 99.048 90.394 C 100.664 96.725, 104.116 105.132, 106.680 108.982 C 109.141 112.677, 109.979 121, 107.890 121 C 107.280 121, 104.242 123.601, 101.140 126.780 C 98.038 129.958, 92.040 135.138, 87.811 138.290 C 77.472 145.995, 74.727 149.912, 76.342 154.658 C 77.404 157.779, 79.991 158.383, 82.945 156.199 C 84.350 155.160, 86.920 153.576, 88.655 152.678 C 90.391 151.781, 92.416 150.467, 93.155 149.759 C 93.895 149.050, 96.569 147.389, 99.098 146.068 C 106.740 142.074, 109.927 138.567, 111.422 132.506 C 111.828 130.859, 112.630 128.946, 113.203 128.256 C 116.225 124.614, 123.733 129.075, 131.748 139.273 C 137.003 145.961, 147.319 154.169, 152.923 156.123 C 156.997 157.543, 159 155.946, 159 151.278 C 159 147.542, 157.545 145.813, 146.982 137 C 138.117 129.605, 132 123.046, 132 120.939 C 132 119.790, 130.939 118.474, 129.476 117.807 C 128.088 117.175, 126.680 115.572, 126.347 114.245 C 125.362 110.321, 126.715 102.492, 129.538 95.776 C 130.989 92.324, 132.571 87.925, 133.053 86 C 135.460 76.385, 139.907 65.476, 142.236 63.473 C 143.623 62.281, 146.855 61.018, 149.419 60.666 C 156.284 59.725, 158 58.510, 158 54.587 C 158 50.369, 156.895 49.503, 149.605 48.007 C 144.253 46.909, 139.936 47.019, 127.356 48.572 C 123.341 49.068, 121.929 47.367, 121.368 41.357 C 120.841 35.719, 118.513 30.473, 115.647 28.465 C 113.086 26.672, 108.600 26.557, 107.245 28.250 M 31.989 38.250 C 28.348 44.222, 29.562 45.987, 37.332 46.016 C 39.624 46.024, 44.200 46.683, 47.500 47.480 C 56.134 49.565, 63.291 49.441, 65.345 47.171 C 67.708 44.560, 67.462 40.318, 64.867 38.929 C 61.666 37.216, 48.396 35.074, 40.735 35.035 C 34.162 35.001, 33.915 35.092, 31.989 38.250 M 105.413 61.875 C 100.626 63.125, 99.617 63.983, 101.334 65.346 C 102.134 65.981, 103.280 69.407, 103.881 72.959 C 104.482 76.512, 106.073 81.687, 107.416 84.459 C 108.759 87.232, 110.412 91.412, 111.089 93.750 C 112.517 98.680, 114.507 99.219, 117.910 95.596 C 119.471 93.934, 120.869 89.994, 122.433 82.846 C 124.996 71.131, 127.309 65, 129.163 65 C 130.074 65, 130.005 64.576, 128.915 63.486 C 127.147 61.718, 110.407 60.570, 105.413 61.875 M 31.893 67.335 C 29.989 71.515, 31.436 74.515, 36.233 76.331 C 43.616 79.126, 57.913 83, 60.846 83 C 64.206 83, 66.329 79.770, 65.832 75.412 C 65.269 70.471, 55.932 67.056, 38.270 65.329 C 33.422 64.855, 32.957 65.001, 31.893 67.335 M 50.885 132.883 C 48.897 134.872, 44.942 138.275, 42.096 140.445 C 32.757 147.566, 30.956 154.200, 37.547 157.203 C 40.668 158.626, 44.107 157.035, 52.234 150.409 C 65.246 139.802, 66.150 137.927, 60.985 132.250 C 57.298 128.197, 55.453 128.313, 50.885 132.883" stroke="none" fill="black" fill-rule="evenodd"/>
</svg>