<svg xmlns="http://www.w3.org/2000/svg" width="256" height="256" viewBox="0 0 256 256" version="1.1">
	<path d="M 89.834 23.250 C 88.023 24.713, 84.835 32.502, 85.696 33.363 C 86.020 33.687, 85.686 34.673, 84.954 35.556 C 83.815 36.928, 81.403 37.112, 68.226 36.830 L 52.830 36.500 50.417 39.304 L 48.004 42.107 48.199 66.633 C 48.321 81.930, 48.791 91.688, 49.447 92.566 C 50.338 93.758, 53.248 93.806, 68.357 92.880 C 83.733 91.937, 86.418 91.989, 87.681 93.252 C 88.970 94.542, 88.925 95.190, 87.305 98.610 C 85.278 102.887, 85.311 102.880, 73 101.568 C 69.975 101.246, 62.325 100.483, 56 99.873 C 49.675 99.263, 43.600 98.657, 42.500 98.527 C 36.097 97.769, 31.816 102.811, 34.484 107.969 C 36.180 111.250, 40.450 112.490, 53.902 113.612 C 59.720 114.097, 62 114.669, 62 115.644 C 62 116.390, 61.581 117, 61.069 117 C 60.558 117, 55.980 120.937, 50.897 125.750 C 45.814 130.563, 40.157 135.918, 38.327 137.650 C 34.528 141.247, 34.120 144.120, 37 147 C 40.699 150.699, 43.650 149.492, 54.108 140 C 55.017 139.175, 58.696 136.025, 62.283 133 C 70.219 126.309, 71.650 124.043, 71.923 117.737 C 72.034 115.197, 80.510 111.207, 82.791 112.622 C 85.083 114.043, 87.893 119.844, 87.952 123.276 C 88.020 127.194, 83.981 142.346, 82.627 143.259 C 82.007 143.676, 80.375 144.299, 79 144.643 C 77.625 144.987, 75.741 145.927, 74.813 146.732 C 72.073 149.110, 75.141 154.400, 80.431 156.420 C 92.977 161.212, 99 155.693, 99 139.406 C 99 134.635, 99.519 129, 100.153 126.883 C 101.118 123.662, 101.845 122.932, 104.600 122.415 C 109.216 121.549, 113.425 123.145, 113.831 125.915 C 114.295 129.080, 119.371 133.422, 127 137.181 C 136.105 141.668, 143.978 146.366, 147.500 149.415 C 152.129 153.422, 154.034 153.662, 156.691 150.572 C 161.888 144.531, 158.349 135.583, 149.860 133.303 C 147.462 132.659, 144.400 131.103, 143.057 129.847 C 141.713 128.590, 138.532 126.857, 135.988 125.996 C 130.605 124.174, 126 120.838, 126 118.761 C 126 116.786, 128.561 114.697, 134.444 111.873 C 145.009 106.802, 145.004 106.806, 144.532 104.202 C 143.861 100.502, 141.070 98, 137.614 98 C 134.589 98, 128.449 100.117, 118.413 104.622 C 113.700 106.737, 112.958 106.808, 108.335 105.588 C 105.590 104.864, 102.102 103.457, 100.582 102.462 C 98.250 100.934, 97.915 100.174, 98.432 97.589 C 98.769 95.905, 99.597 93.995, 100.272 93.344 C 101.068 92.578, 107.611 91.956, 118.874 91.576 C 129.509 91.217, 137.245 90.507, 138.817 89.745 C 142.035 88.185, 142.705 85.462, 143.306 71.500 C 143.567 65.450, 144.371 56.105, 145.094 50.732 C 146.379 41.191, 146.359 40.915, 144.257 38.812 C 142.168 36.723, 141.454 36.667, 120.073 36.902 C 107.955 37.035, 97.581 36.859, 97.018 36.511 C 96.328 36.084, 96.353 35.208, 97.097 33.818 C 97.704 32.685, 98.200 30.152, 98.200 28.189 C 98.200 22.931, 93.595 20.213, 89.834 23.250 M 63.975 50.006 C 60.810 50.753, 59.075 55.181, 61.027 57.533 C 62.269 59.029, 65.590 59.134, 96.278 58.649 C 120.122 58.273, 130.579 57.765, 131.579 56.935 C 132.360 56.286, 133 54.460, 133 52.878 L 133 50 125.750 49.813 C 107.881 49.351, 66.198 49.481, 63.975 50.006 M 61.369 73.671 C 60.244 78.143, 61.252 79.513, 65.523 79.321 C 67.710 79.223, 83 78.773, 99.500 78.321 L 129.500 77.500 129.500 74.500 L 129.500 71.500 95.707 71.500 L 61.915 71.500 61.369 73.671" stroke="none" fill="black" fill-rule="evenodd"/>
</svg>