<svg xmlns="http://www.w3.org/2000/svg" width="256" height="256" viewBox="0 0 256 256" version="1.1">
	<path d="M 114.571 30.571 C 112.892 32.251, 112.487 40.827, 113.915 44.484 C 115.928 49.636, 112.475 52.060, 104.500 51.096 L 99.500 50.491 99.796 45.997 C 100.198 39.891, 99.462 37.532, 96.774 36.307 C 93.536 34.832, 90.184 36.380, 89.411 39.707 C 89.054 41.243, 88.108 43.546, 87.309 44.824 C 86.510 46.103, 85.676 48.088, 85.455 49.235 C 85.234 50.383, 83.815 53.162, 82.303 55.411 C 80.034 58.785, 79.487 60.839, 79.175 67.160 C 78.835 74.046, 79.001 74.930, 80.826 75.907 C 84.202 77.713, 85.175 76.874, 91.263 66.899 C 92.727 64.500, 93.567 64.244, 102.078 63.602 C 107.985 63.156, 111.674 63.274, 112.331 63.931 C 113.654 65.254, 113.302 78.931, 111.901 80.620 C 111.095 81.591, 106.813 81.858, 94.521 81.704 C 79.717 81.519, 78.016 81.676, 76.105 83.405 C 73.185 86.047, 73.433 89.399, 76.707 91.544 C 81.370 94.599, 92.538 95.146, 140.092 94.652 C 155.634 94.490, 158 93.823, 158 89.600 C 158 88.415, 157.318 86.471, 156.485 85.281 C 154.804 82.882, 152.329 82.414, 136.626 81.524 C 131.195 81.216, 126.406 80.751, 125.984 80.490 C 125.562 80.230, 125.294 76.613, 125.388 72.454 C 125.586 63.686, 126.133 63.047, 133.500 62.995 C 141.770 62.937, 151.087 61.231, 153.103 59.406 C 155.651 57.101, 155.500 53.464, 152.777 51.557 C 151.048 50.345, 147.727 50, 137.809 50 L 125.063 50 125.646 42.250 C 126.169 35.288, 126.006 34.220, 124.042 31.750 C 121.542 28.607, 117.090 28.053, 114.571 30.571 M 32.657 33.486 C 31.682 34.461, 31 36.745, 31 39.036 C 31 43.649, 32.355 44.597, 39.374 44.897 C 46.737 45.211, 55.935 47.799, 61.316 51.071 C 63.965 52.682, 66.752 54, 67.510 54 C 71.386 54, 73.614 43.757, 70.430 40.573 C 69.567 39.709, 67.654 38.749, 66.180 38.439 C 64.706 38.128, 60.125 36.822, 56 35.537 C 45.404 32.236, 34.836 31.307, 32.657 33.486 M 32.750 71.710 C 30.273 74.467, 30.514 78.643, 33.250 80.392 C 35.780 82.010, 53.750 86, 58.505 86 C 60.207 86, 62.140 85.460, 62.800 84.800 C 64.369 83.231, 64.339 77.825, 62.750 75.753 C 61.165 73.688, 50.593 70.969, 41.500 70.287 C 35.429 69.832, 34.268 70.020, 32.750 71.710 M 94.918 101.088 C 93.038 101.412, 89.752 102.730, 87.615 104.017 L 83.729 106.357 84.353 120.929 C 85.116 138.788, 86.779 147.233, 90.204 150.658 L 92.717 153.171 120.108 153.692 C 142.785 154.124, 147.818 153.969, 149.349 152.797 C 151.972 150.789, 152.828 145.021, 153.546 124.500 L 154.175 106.500 151.018 103.500 L 147.861 100.500 123.099 100.500 C 109.479 100.500, 96.798 100.765, 94.918 101.088 M 99.250 114.512 C 97.258 115.930, 97.009 116.939, 97.080 123.307 C 97.125 127.263, 97.687 132.520, 98.330 134.988 C 99.418 139.162, 99.780 139.525, 103.500 140.180 C 105.700 140.568, 114.307 140.911, 122.628 140.942 C 139.431 141.006, 139.584 140.951, 140.471 134.437 C 142.035 122.949, 142.239 115.266, 141.002 114.501 C 140.302 114.068, 131.127 113.533, 120.614 113.312 C 104.250 112.968, 101.176 113.140, 99.250 114.512 M 62.469 130.657 C 60.252 131.407, 56.266 133.816, 53.610 136.010 C 50.955 138.205, 48.433 140, 48.006 140 C 47.579 140, 45.348 141.912, 43.048 144.250 C 36.029 151.384, 34.559 156.129, 39.009 157.292 C 41.163 157.856, 49.872 154.078, 51.805 151.741 C 52.522 150.873, 56.252 148.265, 60.093 145.944 C 63.935 143.623, 67.510 140.915, 68.039 139.928 C 69.330 137.515, 69.195 133.960, 67.715 131.397 C 66.573 129.420, 66.257 129.376, 62.469 130.657" stroke="none" fill="black" fill-rule="evenodd"/>
</svg>