<svg xmlns="http://www.w3.org/2000/svg" width="256" height="256" viewBox="0 0 256 256" version="1.1">
	<path d="M 113.598 26.545 C 111.247 28.896, 109.721 35.920, 110.348 41.500 C 111.136 48.496, 109.784 50, 102.707 50 C 96.029 50, 95.321 48.861, 97.506 41.629 C 99.761 34.163, 97.662 29.109, 92.273 29.032 C 89.253 28.989, 87.763 31.601, 83.447 44.500 C 81.423 50.550, 79.202 56.175, 78.512 57 C 77.822 57.825, 76.282 61.365, 75.090 64.867 C 72.782 71.646, 73.258 76.116, 76.652 79.509 C 77.973 80.830, 77.920 81, 76.185 81 C 73.589 81, 70.437 87.423, 71.673 90.194 C 72.761 92.632, 80.751 95.391, 91.500 97.041 C 95.900 97.716, 99.881 98.611, 100.346 99.030 C 100.812 99.450, 100.519 101.302, 99.696 103.146 C 98.872 104.991, 97.671 108.750, 97.026 111.500 C 96.015 115.805, 90.838 126.493, 89.033 128 C 88.704 128.275, 86.761 130.811, 84.716 133.636 C 82.670 136.461, 79.912 139.483, 78.585 140.352 C 77.259 141.221, 75.855 143.384, 75.465 145.158 C 74.886 147.797, 75.163 148.714, 76.989 150.192 C 79.204 151.986, 83.434 152.538, 86.358 151.416 C 89.196 150.327, 102.027 132.640, 105.497 125.035 C 106.366 123.129, 107.416 121.329, 107.830 121.035 C 108.723 120.400, 112.031 106.430, 112.013 103.372 C 111.997 100.769, 113.549 99.461, 117.547 98.706 C 122.994 97.678, 123.483 98.717, 123.667 111.713 C 123.817 122.342, 124.142 124.286, 126.973 131.500 C 131.592 143.266, 134.402 146.847, 141.575 150.103 C 144.916 151.620, 150.395 153.172, 153.750 153.551 C 159.387 154.189, 160.039 154.052, 162.345 151.746 C 166.700 147.391, 167.146 133.780, 163.086 129.100 C 161.161 126.880, 157.503 126.383, 155 128 C 154.175 128.533, 153.847 128.976, 154.270 128.985 C 154.694 128.993, 154.180 130.688, 153.128 132.750 C 152.075 134.813, 151.166 136.950, 151.107 137.500 C 151.048 138.050, 150.550 138.455, 150 138.400 C 149.450 138.345, 148.073 138.233, 146.941 138.150 C 145.809 138.067, 145.160 137.550, 145.500 137 C 145.840 136.450, 145.268 136, 144.228 136 C 140.730 136, 138.972 128.838, 137.442 108.359 L 136.759 99.217 141.929 98.109 C 144.772 97.499, 149.465 97, 152.358 97 C 160.522 97, 163.962 92.764, 159.945 87.657 C 157.903 85.062, 157.594 85, 146.574 85 C 140.370 85, 132.527 84.711, 129.147 84.358 L 123 83.715 123 73.417 C 123 67.752, 123.379 62.884, 123.842 62.597 C 124.306 62.311, 128.987 61.864, 134.246 61.603 C 146.693 60.986, 151.766 59.607, 153.205 56.449 C 154.004 54.696, 154.018 53.335, 153.255 51.660 C 152.235 49.422, 151.583 49.290, 138.447 48.660 C 130.890 48.298, 124.107 47.504, 123.375 46.896 C 122.377 46.068, 122.198 43.955, 122.663 38.460 C 123.271 31.261, 123.227 31.074, 120.218 28.064 C 116.740 24.586, 115.778 24.365, 113.598 26.545 M 30.602 32.887 C 29.197 34.439, 28.877 35.855, 29.317 38.567 C 30.149 43.695, 31.606 45, 36.499 45 C 38.839 45, 45.140 46.350, 50.500 48 C 64.498 52.309, 68 51.883, 68 45.871 C 68 41.128, 65.207 39.249, 51.664 34.883 C 38.885 30.763, 33.027 30.208, 30.602 32.887 M 91.375 63.450 C 90.236 64.248, 88.309 67.630, 87.093 70.966 C 85.730 74.704, 83.921 77.661, 82.380 78.670 C 80.125 80.148, 80.032 80.460, 81.426 81.854 C 83.408 83.836, 109.465 85.935, 111.151 84.249 C 112.462 82.938, 110.673 68.051, 108.855 65.139 C 106.931 62.058, 95.007 60.906, 91.375 63.450 M 29.852 70.426 C 28.383 73.650, 29.485 77.616, 32.375 79.510 C 35.419 81.505, 47.093 83.961, 53.635 83.983 C 58.017 83.997, 59.010 83.634, 60.405 81.504 C 62.423 78.425, 61.643 74.662, 58.674 73.147 C 55.750 71.656, 38.423 68, 34.275 68 C 31.733 68, 30.699 68.567, 29.852 70.426 M 48.945 136.450 C 40.541 139.547, 34.246 143.804, 32.076 147.858 C 31.079 149.721, 31.146 150.573, 32.442 152.551 C 35.918 157.857, 39.966 156.850, 53.667 147.272 C 60.640 142.398, 62.068 139.837, 59.435 136.928 C 57.438 134.721, 54.058 134.567, 48.945 136.450" stroke="none" fill="black" fill-rule="evenodd"/>
</svg>