<svg xmlns="http://www.w3.org/2000/svg" width="256" height="256" viewBox="0 0 256 256" version="1.1">
	<path d="M 109.123 27.877 C 108.018 28.982, 106.835 31.984, 106.444 34.678 C 105.243 42.952, 105.175 43, 94.512 43 C 83.935 43, 80.441 44.106, 79.528 47.743 C 78.747 50.856, 80.976 53.507, 85.679 55.059 C 88.869 56.112, 89.068 56.421, 88.445 59.347 C 88.075 61.081, 85.574 66.898, 82.887 72.273 C 77.782 82.481, 77.172 84.982, 79.250 87.179 C 84.398 92.621, 86.090 96.801, 86.604 105.352 C 86.969 111.423, 86.656 115.793, 85.547 120.124 C 83.586 127.777, 78.379 137.706, 75.251 139.755 C 73.002 141.228, 72.718 141.130, 69.154 137.650 C 66.085 134.653, 64.683 134, 61.323 134 C 51.988 134, 39.357 140.450, 35.053 147.414 C 32.400 151.707, 32.466 153.150, 35.445 155.948 C 38.676 158.983, 40.964 158.310, 48.659 152.060 C 55.895 146.182, 61.066 143.898, 67.660 143.667 L 72.451 143.500 72.167 147.041 C 71.789 151.746, 75.170 156.239, 78.761 155.805 C 80.677 155.574, 82.718 153.397, 87.179 146.826 C 91.983 139.750, 93.513 136.435, 95.490 128.826 C 98.885 115.761, 99.741 104.333, 97.631 100.253 C 96.738 98.526, 96.343 96.914, 96.754 96.671 C 97.164 96.428, 99.975 95.899, 103 95.495 C 106.025 95.092, 111.418 93.865, 114.984 92.768 C 118.550 91.672, 124.189 90.627, 127.516 90.446 C 130.843 90.264, 134.817 89.640, 136.347 89.058 C 139.993 87.672, 144.918 87.718, 150.421 89.190 C 156.296 90.761, 159.572 89.371, 160.208 85.035 C 160.586 82.458, 160.090 81.408, 157.354 79.006 C 155.533 77.407, 152.346 75.826, 150.271 75.492 C 143.178 74.350, 141.919 73.941, 142.518 72.971 C 142.848 72.437, 142.731 72, 142.258 72 C 141.083 72, 137 63.420, 137 60.948 C 137 58.551, 139.999 57.253, 147.600 56.359 C 151.703 55.877, 153.549 55.118, 154.951 53.335 C 156.650 51.175, 156.689 50.683, 155.365 48.030 C 154.562 46.421, 152.915 44.762, 151.703 44.344 C 150.491 43.925, 142.550 43.660, 134.057 43.753 C 117.283 43.939, 115.489 43.475, 117.054 39.357 C 118.400 35.819, 118.225 29.425, 116.750 28.245 C 113.964 26.016, 111.121 25.879, 109.123 27.877 M 32.200 36.200 C 30.492 37.908, 30.715 42.519, 32.581 44.067 C 33.451 44.789, 36.263 45.689, 38.831 46.068 C 41.399 46.447, 47.887 47.538, 53.249 48.494 C 62.382 50.122, 63.159 50.126, 65.558 48.554 C 67.570 47.236, 68.052 46.196, 67.809 43.695 C 67.406 39.544, 65.040 38.459, 52.175 36.526 C 39.942 34.689, 33.811 34.589, 32.200 36.200 M 109.185 56.952 C 105.088 57.968, 101.541 61.198, 99.963 65.349 C 99.304 67.082, 98.084 70.043, 97.251 71.929 C 96.226 74.249, 96.046 75.850, 96.695 76.878 C 98.760 80.151, 107.648 80.682, 117 78.089 C 129.795 74.542, 128.671 75.329, 128.867 69.784 C 128.965 67.035, 129.516 63.905, 130.092 62.829 C 131.664 59.891, 129.752 58.334, 123.729 57.649 C 120.853 57.322, 117.150 56.846, 115.500 56.592 C 113.850 56.337, 111.008 56.499, 109.185 56.952 M 32.571 70.571 C 30.742 72.401, 30.674 73.013, 31.936 76.332 C 33.211 79.686, 44.181 83.078, 54.536 83.321 C 63.169 83.524, 65 82.303, 65 76.344 C 65 71.945, 63.589 71.357, 49.959 70.080 C 35.122 68.690, 34.433 68.710, 32.571 70.571 M 127.669 99.823 L 124.964 102.647 126.064 117.457 C 126.669 125.602, 126.939 133.127, 126.664 134.178 C 126.389 135.228, 126.690 137.086, 127.332 138.306 C 128.928 141.337, 137.393 149, 139.146 149 C 139.928 149, 143.012 150.575, 146 152.500 C 151.927 156.318, 155.510 156.822, 160.050 154.474 C 162.542 153.185, 163 152.351, 163 149.097 C 163 146.896, 162.358 144.712, 161.503 144.002 C 160.679 143.319, 156.517 142.476, 152.253 142.130 L 144.500 141.500 143.254 136.500 C 142.569 133.750, 141.778 124.975, 141.497 117 L 140.986 102.500 137.977 99.750 C 134.142 96.244, 131.077 96.266, 127.669 99.823 M 107.462 104.681 C 106.186 105.957, 105.910 107.464, 106.316 110.931 C 106.792 114.989, 106.439 121.317, 104.488 143.750 C 103.955 149.872, 103.995 150, 106.407 150 C 111.137 150, 113.664 148.245, 116.009 143.331 C 118.086 138.979, 118.338 136.884, 118.544 122.217 L 118.772 105.933 115.935 104.467 C 112.218 102.544, 109.531 102.612, 107.462 104.681" stroke="none" fill="black" fill-rule="evenodd"/>
</svg>