<svg xmlns="http://www.w3.org/2000/svg" width="256" height="256" viewBox="0 0 256 256" version="1.1">
	<path d="M 98.224 37.846 C 93.701 42.161, 90 46.427, 90 47.326 C 90 50.096, 86.851 57, 85.588 57 C 81.320 57, 74.878 70.034, 77.096 74.179 C 78.134 76.119, 83.805 76.744, 85.550 75.111 C 86.072 74.622, 89.078 73.487, 92.229 72.589 C 99.277 70.580, 100.664 71.254, 104.475 78.537 C 106.564 82.530, 106.968 84.191, 106.199 85.626 C 104.328 89.116, 92.529 99.621, 87.302 102.449 C 83.697 104.399, 81.788 106.170, 81.070 108.229 C 79.197 113.603, 82.928 116.714, 87.994 114.003 C 90.199 112.823, 99.601 112.268, 100.593 113.259 C 100.972 113.639, 100.745 117.283, 100.087 121.358 C 99.181 126.975, 99.165 130.911, 100.019 137.633 C 101.639 150.381, 101.595 150.261, 105.652 153 C 109.273 155.444, 109.772 155.500, 127.928 155.500 C 147.363 155.500, 155.255 154.305, 156.918 151.109 C 157.378 150.224, 158.045 142.750, 158.400 134.500 C 158.755 126.250, 159.316 116.750, 159.646 113.390 C 160.672 102.966, 157.282 96.960, 151.229 98.479 C 149.808 98.835, 144.771 98.598, 140.036 97.951 C 132.802 96.962, 129.928 97.032, 122.045 98.386 C 116.885 99.272, 112.447 99.780, 112.181 99.514 C 111.571 98.904, 122.530 84.536, 125.377 82.214 C 130.816 77.777, 147.460 55.990, 150.522 49.298 C 152.276 45.464, 151.246 41.829, 147.795 39.669 C 146.487 38.851, 141.628 37.988, 136.500 37.663 C 126.926 37.056, 118.846 35.150, 118.860 33.500 C 118.875 31.799, 114.695 30.073, 110.474 30.035 C 106.794 30.003, 105.739 30.676, 98.224 37.846 M 31.176 35.926 C 28.974 42.240, 31.003 44.730, 41.130 48.146 C 56.003 53.163, 67.017 52.804, 67.813 47.277 C 68.389 43.269, 66.435 41.330, 61.195 40.709 C 58.506 40.391, 51.560 38.526, 45.761 36.565 C 39.962 34.604, 34.537 33, 33.706 33 C 32.875 33, 31.737 34.317, 31.176 35.926 M 109.500 47.964 C 104.800 49.932, 102.467 53.643, 100.606 62.108 L 100.033 64.716 109.033 65.395 C 117.848 66.060, 118.118 66.015, 122.266 63.154 C 127.333 59.658, 129.529 57.271, 130.447 54.258 C 131.264 51.574, 129.752 50.768, 119.688 48.521 C 112.023 46.809, 112.231 46.821, 109.500 47.964 M 33.227 67.773 C 31.908 69.092, 31.396 70.619, 31.714 72.282 C 32.393 75.834, 40.755 78.862, 52.114 79.669 C 61.961 80.368, 64 79.583, 64 75.093 C 64 71.404, 59.857 69.187, 50.819 68.038 C 46.794 67.527, 41.637 66.809, 39.360 66.444 C 35.991 65.903, 34.849 66.151, 33.227 67.773 M 116.830 111.732 C 112.736 112.057, 112.037 112.456, 111.163 114.964 C 109.830 118.785, 110.679 134.295, 112.452 138.540 C 114.288 142.933, 116.498 143.500, 131.785 143.500 C 141.617 143.500, 144.260 143.200, 145.020 142 C 145.542 141.175, 145.976 134.563, 145.985 127.307 C 146.004 110.743, 146.160 110.917, 131.527 111.180 C 126.012 111.279, 119.398 111.528, 116.830 111.732 M 53.327 136.352 C 51.772 137.645, 47.800 140.185, 44.500 141.995 C 38.075 145.521, 33 150.358, 33 152.958 C 33 155.620, 35.976 159, 38.320 159 C 39.534 159, 42.938 157.313, 45.885 155.250 C 48.832 153.188, 52.426 150.724, 53.872 149.776 C 65.737 141.991, 67.174 140.222, 65.393 135.582 C 64.405 133.006, 56.762 133.493, 53.327 136.352" stroke="none" fill="black" fill-rule="evenodd"/>
</svg>