<svg xmlns="http://www.w3.org/2000/svg" width="256" height="256" viewBox="0 0 256 256" version="1.1">
	<path d="M 124 29.538 C 120.425 30.253, 111.425 31.165, 104 31.564 C 82.470 32.722, 83.644 30.218, 83.885 74.500 C 83.960 88.250, 83.619 101.975, 83.127 105 C 82.635 108.025, 81.455 115.450, 80.505 121.500 C 79.555 127.550, 77.703 136.906, 76.389 142.290 C 72.824 156.898, 73.301 160, 79.111 160 C 80.942 160, 82.711 158.944, 84.559 156.750 C 87.097 153.737, 87.742 153.500, 93.398 153.500 C 98.650 153.500, 100.149 153.049, 104.160 150.264 C 106.723 148.484, 109.835 145.334, 111.077 143.264 C 114.979 136.760, 120.064 131, 121.906 131 C 122.881 131, 125.093 132.462, 126.821 134.250 C 136.209 143.958, 151.284 156, 154.049 156 C 156.326 156, 159 152.798, 159 150.071 C 159 147.777, 156.236 144.760, 147.702 137.737 C 145.187 135.667, 141.173 131.169, 138.782 127.741 C 135.488 123.018, 133.716 121.385, 131.467 120.999 C 129.124 120.598, 128.433 119.909, 128.182 117.724 C 127.898 115.257, 128.168 114.972, 130.682 115.086 C 136.250 115.340, 154.537 113.707, 156.306 112.798 C 158.775 111.529, 159.993 107.937, 158.755 105.579 C 158.200 104.522, 156.457 102.572, 154.881 101.247 C 153.305 99.921, 151.240 97.523, 150.292 95.918 C 149.344 94.313, 148.090 93, 147.504 93 C 146.919 93, 144.969 94.560, 143.170 96.467 C 140.020 99.806, 134.941 101.983, 130.269 101.994 C 128.633 101.999, 127.892 101.267, 127.491 99.250 C 127.189 97.737, 126.507 95.162, 125.974 93.526 C 125.177 91.082, 125.353 90.203, 126.956 88.600 C 129.638 85.917, 137.443 85.850, 142.306 88.467 C 145.942 90.423, 145.970 90.423, 147.491 88.467 C 148.332 87.385, 150.650 83.180, 152.642 79.121 C 156.085 72.106, 156.231 71.397, 155.610 64.712 C 154.795 55.946, 153.341 52.867, 149.500 51.779 C 147.850 51.312, 135.257 51.058, 121.515 51.215 C 98.133 51.482, 96.508 51.385, 96.182 49.702 C 95.562 46.491, 97.810 45.292, 105.759 44.596 C 130.246 42.449, 143.135 39.698, 144.422 36.343 C 145.309 34.032, 143.976 30.057, 141.951 28.974 C 139.553 27.691, 132.060 27.926, 124 29.538 M 36.223 34.557 C 31.554 37.826, 34.173 40.352, 46 43.987 C 50.189 45.274, 56.344 46.338, 59.944 46.396 C 65.938 46.493, 66.493 46.313, 67.910 43.818 C 69.058 41.798, 69.191 40.441, 68.448 38.318 C 67.533 35.703, 66.886 35.414, 59.481 34.315 C 47.865 32.590, 38.897 32.684, 36.223 34.557 M 95.969 66.057 C 95.363 67.190, 95.158 69.441, 95.513 71.059 L 96.159 74 116.514 74 C 127.710 74, 137.967 73.583, 139.308 73.073 C 141.793 72.128, 143.815 67.347, 142.305 65.983 C 141.862 65.583, 131.504 64.972, 119.286 64.626 C 97.557 64.011, 97.048 64.042, 95.969 66.057 M 32.681 66.462 C 30.808 68.335, 30.769 68.537, 31.649 71.823 C 32.079 73.427, 34.007 74.920, 37.886 76.651 C 42.512 78.717, 45.236 79.188, 53.370 79.329 C 62.978 79.495, 63.293 79.429, 65.250 76.837 C 67.928 73.290, 67.015 69.475, 63.259 68.519 C 61.741 68.132, 56.675 67.409, 52 66.912 C 47.325 66.414, 41.444 65.731, 38.931 65.394 C 35.398 64.920, 33.981 65.162, 32.681 66.462 M 95.658 89.342 C 94.483 90.517, 94.025 91.967, 94.394 93.342 C 94.712 94.529, 94.986 96.400, 95.002 97.500 C 95.062 101.666, 96.399 102.306, 104.651 102.122 C 111.875 101.960, 112.679 101.729, 114.746 99.223 C 117.225 96.217, 118.744 90.322, 117.375 89.015 C 116.894 88.555, 112.225 88.026, 107 87.839 C 98.821 87.547, 97.244 87.756, 95.658 89.342 M 94.285 116.212 C 91.495 119.725, 87.493 149, 89.803 149 C 91.670 149, 101.034 137.619, 102.103 134.049 C 102.744 131.910, 104.521 129.252, 106.081 128.099 C 109.291 125.725, 112.338 120.001, 111.824 117.311 C 111.530 115.771, 110.270 115.457, 103.393 115.212 C 97.701 115.009, 95.005 115.305, 94.285 116.212 M 66 125.803 C 66 128.247, 65.198 129.001, 59.750 131.684 C 37.458 142.661, 33 145.769, 33 150.333 C 33 153.494, 35.745 157, 38.219 157 C 40.384 157, 48.945 151.977, 51 149.500 C 51.635 148.735, 54.257 147.408, 56.827 146.551 C 59.397 145.694, 62.850 143.912, 64.500 142.591 C 67.188 140.439, 67.510 139.582, 67.598 134.345 C 67.652 131.130, 68.030 127.734, 68.437 126.798 C 69.235 124.962, 68.462 123, 66.941 123 C 66.423 123, 66 124.261, 66 125.803" stroke="none" fill="black" fill-rule="evenodd"/>
</svg>