<svg xmlns="http://www.w3.org/2000/svg" width="256" height="256" viewBox="0 0 256 256" version="1.1">
	<path d="M 91.048 33.750 C 89.311 35.813, 86.975 38.594, 85.859 39.931 C 84.742 41.269, 81.984 45.079, 79.729 48.398 C 76.277 53.483, 75.601 55.306, 75.441 59.967 C 75.239 65.866, 76.181 68, 78.988 68 C 81.961 68, 85.513 64.391, 89.014 57.814 C 90.862 54.341, 94.568 49.177, 97.248 46.338 C 101.403 41.939, 102.131 40.572, 102.179 37.083 C 102.290 29.059, 96.469 27.316, 91.048 33.750 M 34.278 34.250 C 30.841 38.692, 32.479 42.575, 38.181 43.505 C 40.556 43.892, 44.957 44.837, 47.960 45.604 C 59.867 48.648, 69.869 46.361, 67.120 41.224 C 64.891 37.059, 51.722 33, 40.439 33 C 37.466 33, 34.831 33.535, 34.278 34.250 M 125.250 37.220 C 120.573 39.476, 122.902 42.774, 135 51.029 C 142.340 56.038, 145.607 58.655, 147.912 61.371 C 149.857 63.662, 159.780 68.254, 161.068 67.458 C 163.029 66.246, 161.846 61.997, 157.901 56.089 C 153.799 49.947, 150.129 46.633, 144.500 43.990 C 142.850 43.215, 139.415 41.100, 136.866 39.290 C 132.070 35.885, 129.112 35.358, 125.250 37.220 M 104.598 53.545 C 103.749 54.394, 102.536 56.982, 101.904 59.295 C 98.983 69.980, 97.703 71.981, 89.192 79.175 C 77.180 89.329, 73.179 93.742, 69.859 100.500 C 64.919 110.559, 63.866 119.241, 68.046 115.458 C 69.035 114.563, 71.678 113.585, 73.919 113.284 C 77.837 112.759, 78.050 112.875, 79.496 116.337 C 80.338 118.350, 81.028 123.143, 81.063 127.218 C 81.176 140.312, 82.566 150.863, 84.453 152.948 C 85.961 154.615, 87.731 154.903, 97.351 155.047 C 117.675 155.352, 141.283 155.045, 143.153 154.452 C 145.369 153.748, 145.585 152.812, 147.043 137.551 C 148.450 122.825, 148.375 109.157, 146.878 107.353 C 145.772 106.020, 147.055 105.388, 148.314 106.647 C 148.670 107.003, 151.247 108.068, 154.042 109.014 C 158.462 110.510, 159.310 110.547, 160.561 109.296 C 162.278 107.579, 162.246 108.244, 160.917 102.049 C 160.322 99.272, 159.478 97, 159.042 97 C 158.606 97, 157.983 95.667, 157.657 94.037 C 157.232 91.911, 155.996 90.523, 153.282 89.124 C 151.202 88.052, 148.558 86.283, 147.406 85.193 C 146.254 84.104, 143.969 82.518, 142.328 81.670 C 139.166 80.035, 133.465 73.598, 130.045 67.801 C 128.589 65.333, 126.825 63.965, 124.015 63.123 C 121.807 62.461, 119.256 60.784, 118.271 59.347 C 113.445 52.302, 108.107 50.036, 104.598 53.545 M 34.090 65.923 C 32.929 66.658, 32.898 67.339, 33.915 69.794 C 34.888 72.143, 37.431 73.958, 45.953 78.386 C 59.429 85.388, 64.685 85.847, 66.456 80.178 C 67.581 76.575, 66.252 73.182, 63.073 71.538 C 59.405 69.641, 41.645 64.995, 38.141 65.015 C 36.688 65.024, 34.866 65.432, 34.090 65.923 M 109.250 75.718 C 108.563 75.965, 108 76.609, 108 77.150 C 108 79.122, 97.358 90.290, 92.089 93.847 C 86.042 97.929, 84.394 99.979, 85.289 102.310 C 85.819 103.692, 88.766 103.877, 108.698 103.784 C 121.239 103.725, 134.761 104.020, 138.747 104.439 L 145.994 105.202 145.776 102.558 C 145.558 99.933, 139.188 93.628, 131 87.934 C 129.075 86.595, 127.275 85.232, 127 84.904 C 126.725 84.576, 125.337 84.024, 123.916 83.677 C 122.495 83.329, 119.570 81.642, 117.416 79.928 C 112.503 76.017, 110.827 75.153, 109.250 75.718 M 94.388 117.488 C 93.650 118.045, 92.923 119.850, 92.773 121.500 C 92.319 126.492, 94.081 139.823, 95.330 140.845 C 98.051 143.069, 132.426 144.089, 134.278 142 C 134.522 141.725, 134.998 136.447, 135.336 130.272 C 135.884 120.255, 135.763 118.944, 134.214 118.115 C 131.737 116.789, 96.060 116.228, 94.388 117.488 M 51.507 139.652 C 49.311 140.453, 46.611 141.934, 45.507 142.943 C 44.403 143.953, 41.138 145.962, 38.250 147.407 C 32.590 150.239, 31.867 151.937, 34.636 155.891 C 36.019 157.865, 36.884 158.145, 40.220 157.697 C 50.510 156.317, 60.442 148.116, 59.797 141.532 C 59.444 137.930, 57.464 137.481, 51.507 139.652" stroke="none" fill="black" fill-rule="evenodd"/>
</svg>