<svg xmlns="http://www.w3.org/2000/svg" width="256" height="256" viewBox="0 0 256 256" version="1.1">
	<path d="M 34.750 32.080 C 33.788 32.641, 33 34.193, 33 35.529 C 33 38.856, 37.698 41.077, 51.848 44.438 C 62.570 46.984, 63.300 47.039, 65.078 45.429 C 67.742 43.018, 68.675 37.247, 66.718 35.289 C 63.641 32.213, 38.803 29.719, 34.750 32.080 M 103.173 37.010 C 87.229 37.683, 86.784 37.761, 84.173 40.371 L 81.500 43.043 81.243 72.272 C 81.071 91.866, 80.500 104.631, 79.511 111 C 78.699 116.225, 77.544 123.875, 76.944 128 C 76.344 132.125, 75.210 138.425, 74.424 142 C 72.591 150.337, 72.613 155.434, 74.489 156.991 C 76.645 158.780, 82.708 157.385, 84.430 154.703 C 85.853 152.485, 89.291 134.072, 90.534 122 C 90.903 118.425, 91.457 115.086, 91.766 114.580 C 92.587 113.236, 94.105 90.663, 93.923 82.500 C 93.838 78.650, 93.707 70.176, 93.634 63.670 C 93.468 48.963, 93.435 49, 106.609 49 C 118.314 49, 119 49.274, 119 53.952 C 119 59.248, 116.681 61, 109.671 61 C 101.363 61, 99.919 62.775, 100.094 72.771 C 100.168 77.022, 100.162 86.297, 100.080 93.381 C 99.924 106.878, 100.984 112.563, 103.812 113.411 C 104.740 113.689, 108.726 114.160, 112.669 114.459 C 116.612 114.757, 120.515 115.260, 121.342 115.578 C 123.440 116.383, 124.177 118.801, 122.996 121.007 C 122.448 122.031, 121.997 125.936, 121.994 129.684 C 121.987 138.791, 120.618 143.397, 117.497 144.819 C 116.124 145.445, 115.001 146.529, 115.003 147.229 C 115.007 149.305, 122.334 156.899, 124.500 157.071 C 131.972 157.666, 134 155.228, 134 145.649 C 134 138.596, 135.407 132, 136.911 132 C 139.254 132, 147.959 137.288, 149.508 139.653 C 152.186 143.740, 155.147 145.929, 158.050 145.967 C 163.623 146.039, 164.466 141.625, 160.159 134.921 C 158.597 132.490, 156.103 128.363, 154.617 125.750 C 151.582 120.414, 150.685 120.176, 142.159 122.445 C 139.221 123.227, 136.201 123.630, 135.447 123.341 C 133.628 122.643, 132.547 119.053, 133.783 117.817 C 134.323 117.277, 139.428 116.184, 145.127 115.387 C 151.315 114.522, 156.096 113.332, 156.995 112.433 C 158.262 111.166, 158.445 107.649, 158.153 90.218 C 157.963 78.827, 157.364 68.680, 156.823 67.669 C 155.259 64.747, 149.652 63.001, 141.782 62.985 C 137.777 62.976, 133.953 62.622, 133.285 62.197 C 132.617 61.773, 131.555 59.024, 130.926 56.089 C 129.994 51.743, 130.034 50.593, 131.141 49.892 C 131.888 49.418, 137.980 49.024, 144.679 49.015 C 157.893 48.999, 160 48.236, 160 43.468 C 160 36.269, 149.377 35.062, 103.173 37.010 M 33.278 63.122 C 28.812 67.588, 43.724 77.246, 55.331 77.404 C 60.286 77.471, 61.477 77.130, 63.045 75.193 C 64.065 73.933, 64.676 72.320, 64.404 71.609 C 63.553 69.394, 56.842 66.250, 48.333 64.081 C 39.157 61.743, 34.927 61.473, 33.278 63.122 M 114.013 75.976 C 112.923 78.012, 113.434 81.902, 114.817 82.096 C 119.821 82.796, 143.796 82.527, 144.750 81.760 C 146.754 80.149, 146.201 77.025, 143.750 76.114 C 142.512 75.653, 135.568 74.962, 128.318 74.576 C 115.591 73.900, 115.098 73.948, 114.013 75.976 M 112.090 95.391 C 111.334 96.302, 111.035 98.002, 111.385 99.396 C 111.975 101.750, 112.364 101.842, 125.246 102.659 C 146.815 104.027, 149.320 103.453, 146.401 97.808 L 144.947 94.997 133.224 95.061 C 126.776 95.095, 119.678 94.828, 117.452 94.466 C 114.388 93.969, 113.084 94.194, 112.090 95.391 M 102.277 123.990 C 98.762 128.095, 95.998 142.609, 97.842 147.275 C 98.493 148.922, 98.769 148.884, 101.670 146.743 C 103.390 145.475, 106.693 142.037, 109.011 139.105 C 112.595 134.571, 113.144 133.272, 112.680 130.414 C 111.499 123.138, 105.943 119.707, 102.277 123.990 M 58.499 130.386 C 56.848 131.106, 52.231 133.788, 48.238 136.347 C 44.246 138.906, 40.422 141.002, 39.740 141.004 C 38.192 141.008, 31.755 144.861, 30.765 146.376 C 29.248 148.697, 30.006 152.891, 32.223 154.443 C 35.479 156.724, 38.693 156.361, 43.969 153.114 C 46.549 151.527, 51.802 149.001, 55.643 147.500 C 61.803 145.094, 62.826 144.313, 64.313 140.879 C 66.408 136.045, 66.406 135.496, 64.284 131.904 C 62.330 128.595, 62.504 128.641, 58.499 130.386" stroke="none" fill="black" fill-rule="evenodd"/>
</svg>