<svg xmlns="http://www.w3.org/2000/svg" width="256" height="256" viewBox="0 0 256 256" version="1.1">
	<path d="M 97.229 24.669 C 94.207 25.885, 92.851 30.954, 93.532 38.489 C 94.161 45.444, 94.076 45.889, 91.902 47.052 C 89.236 48.479, 71.380 47.725, 66.355 45.974 C 63.377 44.936, 63.285 44.721, 63.391 39.061 C 63.517 32.306, 61.417 29, 57 29 C 52.203 29, 51.024 31.582, 50.577 43.067 C 50.355 48.781, 50.581 54.218, 51.079 55.148 C 52.591 57.972, 57.661 58.868, 77.500 59.818 C 125.170 62.100, 150 59.276, 150 51.574 C 150 50.223, 149.550 48.840, 149 48.500 C 148.450 48.160, 148 44.334, 148 39.998 C 148 32.984, 147.755 31.942, 145.777 30.557 C 142.837 28.497, 140.723 28.593, 137.861 30.917 C 135.872 32.533, 135.500 33.748, 135.500 38.632 C 135.500 43.810, 135.233 44.565, 133 45.700 C 130.398 47.022, 108.626 47.561, 105.546 46.379 C 104.201 45.863, 104.039 44.776, 104.586 39.939 C 105.873 28.571, 102.894 22.390, 97.229 24.669 M 50.851 67.881 C 48.091 70.075, 45.980 76.737, 46.221 82.500 C 46.428 87.480, 43.012 120.281, 41.951 123.500 C 36.402 140.324, 34.884 150.456, 37.161 155.453 C 40.564 162.923, 46.633 153.063, 53.135 129.500 C 55.942 119.329, 58.889 99.588, 58.279 95.043 C 57.990 92.889, 58.052 89.538, 58.416 87.595 C 59.620 81.177, 60.208 80.993, 79.321 81.062 C 88.770 81.096, 99.875 81.483, 104 81.922 C 112.883 82.867, 151.950 81.151, 153.750 79.737 C 155.398 78.442, 155.346 73.855, 153.656 71.545 C 151.904 69.149, 140.525 68.294, 101 67.590 C 84.775 67.302, 67.450 66.775, 62.500 66.421 C 54.310 65.835, 53.262 65.966, 50.851 67.881 M 108.849 88.670 C 107.941 88.911, 106.717 90.322, 106.129 91.804 C 104.783 95.199, 104.390 104.462, 105.407 108.800 C 106.406 113.059, 104.155 118.059, 98.676 123.750 C 95.122 127.441, 93.986 128.020, 90.042 128.150 C 87.141 128.246, 86.484 128.449, 88.222 128.714 L 90.944 129.127 87.258 134.064 C 85.231 136.779, 82.952 139, 82.193 139 C 81.434 139, 77.273 141.363, 72.947 144.250 C 64.162 150.113, 62.753 152.688, 65.462 157.927 C 67.207 161.301, 68.185 161.686, 69.865 159.663 C 70.475 158.928, 74.109 157.096, 77.941 155.593 C 86.416 152.268, 94.517 147.116, 102.500 139.975 C 105.800 137.023, 109.505 133.724, 110.733 132.645 L 112.966 130.684 116.265 134.092 C 121.745 139.752, 127.181 143.493, 133.500 145.953 C 136.800 147.238, 141.652 149.630, 144.282 151.270 C 150.013 154.841, 153.713 155.072, 156.190 152.014 C 159.750 147.617, 157.500 142.333, 150.631 138.960 C 148.359 137.844, 144.925 136.069, 143 135.016 C 141.075 133.963, 139.050 132.927, 138.500 132.714 C 137.856 132.465, 137.913 131.468, 138.659 129.914 C 140.453 126.179, 141.284 123.688, 141.486 121.437 C 141.588 120.303, 142.858 117.153, 144.309 114.437 C 148.924 105.798, 149.235 104.278, 146.741 102.531 C 140.811 98.377, 131.017 103.336, 132.317 109.834 C 132.745 111.976, 132.393 113.240, 131.020 114.482 C 129.983 115.420, 129.360 116.775, 129.636 117.493 C 130.547 119.868, 128.206 120.054, 124.551 117.898 C 120.239 115.354, 119 113.290, 119 108.655 C 119 106.743, 118.106 102.326, 117.013 98.839 C 115.920 95.353, 115.020 91.761, 115.013 90.857 C 115.006 89.953, 114.288 88.941, 113.418 88.607 C 111.751 87.967, 111.483 87.971, 108.849 88.670 M 74.313 98.786 C 72.168 100.150, 70.893 104.932, 72.082 107.154 C 74.499 111.669, 80.262 117, 82.728 117 C 85.034 117, 85.173 116.737, 84.571 113.528 C 84.137 111.212, 84.443 109.044, 85.490 107.019 C 87.463 103.205, 86.293 100.646, 81.872 99.105 C 78.188 97.821, 75.977 97.727, 74.313 98.786" stroke="none" fill="black" fill-rule="evenodd"/>
</svg>