<svg xmlns="http://www.w3.org/2000/svg" width="256" height="256" viewBox="0 0 256 256" version="1.1">
	<path d="M 57.311 29.035 C 55.824 30.704, 54.498 32.815, 54.364 33.726 C 53.709 38.187, 52.444 40.111, 45.069 47.860 C 39.562 53.646, 36.634 57.626, 35.557 60.788 C 33.883 65.700, 33.541 70.207, 34.750 71.417 C 35.880 72.547, 35.698 74.378, 34.345 75.500 C 33.103 76.529, 32.675 78.208, 32.882 81.233 C 32.951 82.246, 35.064 84.012, 37.967 85.483 C 41.874 87.463, 44.434 88, 49.967 88 L 57 88 57 96.345 C 57 106.525, 56.380 107.269, 46.105 109.411 C 37.787 111.145, 34 113.176, 34 115.901 C 34 119.603, 36.739 120.509, 47.402 120.334 C 91.967 119.601, 134.971 119.290, 137.250 119.684 C 141.053 120.341, 140.758 122.818, 136.400 126.818 C 133.204 129.751, 132.873 130.507, 133.445 133.561 C 133.800 135.452, 134.498 137, 134.996 137 C 135.495 137, 137.558 139.962, 139.583 143.582 C 144.236 151.903, 147.515 155, 151.672 155 C 155.641 155, 156.489 152.888, 154.938 146.865 C 154.321 144.464, 153.580 141.014, 153.292 139.197 C 152.983 137.244, 151.815 135.270, 150.435 134.365 C 149.151 133.524, 147.605 131.334, 146.999 129.498 C 146.393 127.662, 145.246 125.619, 144.449 124.958 C 143.652 124.296, 143 122.919, 143 121.897 C 143 119.739, 145.981 118.738, 154.224 118.128 C 156.800 117.937, 159.204 112.668, 158.073 109.693 C 156.942 106.716, 155.195 106, 149.067 106 C 138.750 106, 136.690 103.894, 136.563 93.215 C 136.493 87.340, 137.083 86.636, 143.500 84.930 C 145.700 84.345, 148.576 83.559, 149.891 83.183 C 151.205 82.808, 152.663 81.462, 153.129 80.193 C 154.386 76.774, 150.634 73.472, 144.437 72.543 C 137.286 71.471, 135.715 70.395, 136.225 66.921 C 136.691 63.743, 134.185 60.682, 130.361 59.761 C 128.053 59.205, 127.205 59.598, 125.216 62.144 C 124.155 63.502, 124.238 64.432, 125.696 67.489 C 127.404 71.070, 127.399 71.235, 125.539 72.595 C 121.434 75.597, 110.576 73.085, 113.750 69.867 C 115.781 67.808, 115.253 63.290, 112.777 61.557 C 109.793 59.466, 106.677 59.594, 104.597 61.893 C 103.007 63.650, 102.999 64.062, 104.487 67.623 C 105.981 71.199, 105.972 71.547, 104.354 72.730 C 102.383 74.172, 96.183 74.402, 94.143 73.110 C 93.252 72.545, 92.994 71.263, 93.391 69.375 C 94.736 62.985, 88.356 58.157, 83.969 62.244 C 82.227 63.866, 81.904 65.002, 82.362 67.888 C 83.246 73.449, 82.065 74.457, 74.635 74.480 C 71.080 74.491, 67.867 74.196, 67.494 73.825 C 67.121 73.454, 67.405 71.521, 68.125 69.531 C 69.619 65.399, 68.785 63.261, 64.902 61.267 C 62.726 60.149, 62.194 60.355, 59.250 63.450 C 56.850 65.973, 56 67.784, 56 70.377 C 56 72.870, 55.356 74.337, 53.777 75.443 C 51.069 77.340, 44.334 77.464, 40.127 75.695 L 37.024 74.391 40.267 70.945 C 42.051 69.050, 44.858 65.356, 46.505 62.735 C 48.720 59.211, 50.411 57.715, 53 56.991 C 57.381 55.765, 61.063 55.754, 62.974 56.963 C 63.875 57.532, 64.669 57.535, 65.019 56.970 C 65.333 56.461, 72.995 55.784, 82.045 55.464 C 91.095 55.145, 99.850 54.696, 101.500 54.468 C 103.150 54.239, 114.625 54.020, 127 53.981 C 139.375 53.941, 150.496 53.660, 151.714 53.355 C 155.880 52.313, 155.938 45.108, 151.799 42.893 C 148.096 40.911, 133.025 40.653, 98.269 41.979 C 62.385 43.348, 60.670 43.184, 64.679 38.763 C 66.893 36.322, 68.294 31.060, 67.184 29.353 C 66.364 28.090, 62.555 26, 61.073 26 C 60.492 26, 58.799 27.366, 57.311 29.035 M 94.935 87.851 C 92.997 89.421, 92.638 90.689, 92.575 96.197 C 92.483 104.180, 93.834 106.226, 98.914 105.801 L 102.500 105.500 102.459 97.139 C 102.424 90.109, 102.116 88.558, 100.518 87.389 C 98.071 85.600, 97.675 85.633, 94.935 87.851 M 71.092 88.750 C 69.372 90.163, 68.931 91.706, 68.801 96.770 C 68.713 100.219, 69.059 103.445, 69.570 103.938 C 70.082 104.432, 72.630 105.147, 75.233 105.529 C 79.676 106.179, 80.025 106.065, 80.939 103.659 C 81.828 101.323, 81.538 91.268, 80.495 88.250 C 79.855 86.399, 73.545 86.734, 71.092 88.750 M 114.907 89.174 C 113.518 91.769, 114.369 103.535, 116.096 105.615 C 117.394 107.180, 121.773 107.429, 123.935 106.061 C 125.906 104.814, 126.059 90.987, 124.128 88.656 C 122.065 86.167, 116.344 86.488, 114.907 89.174 M 48.791 128.788 C 46.323 129.283, 43.342 134.755, 42.560 140.227 C 42.188 142.826, 41.460 145.215, 40.942 145.536 C 38.846 146.831, 40.627 156.533, 43.259 158.160 C 46.213 159.985, 50.049 154.996, 54.963 142.937 C 59.262 132.387, 58.974 129.619, 53.500 128.861 C 51.850 128.633, 49.731 128.600, 48.791 128.788 M 103.250 132.055 C 99.909 135.186, 99.342 136.475, 100.885 137.429 C 101.372 137.730, 102.750 141.919, 103.948 146.738 C 106.428 156.719, 107.989 159.456, 110.710 158.592 C 112.972 157.874, 115.966 153.032, 116.122 149.839 C 116.324 145.701, 114.717 135.598, 113.325 132.250 C 111.526 127.924, 107.736 127.851, 103.250 132.055 M 75.065 131.750 C 73.880 132.713, 72.877 134.400, 72.838 135.500 C 72.674 140.081, 75.022 155.322, 76.090 156.608 C 78.080 159.006, 81.764 158.238, 84.220 154.914 C 86.260 152.153, 86.464 150.915, 86.160 143.164 C 85.881 136.068, 85.442 134.093, 83.735 132.250 C 81.237 129.553, 78.003 129.366, 75.065 131.750" stroke="none" fill="black" fill-rule="evenodd"/>
</svg>