<svg xmlns="http://www.w3.org/2000/svg" width="256" height="256" viewBox="0 0 256 256" version="1.1">
	<path d="M 62.077 28.589 C 60.385 30.013, 59 31.790, 59 32.538 C 59 33.286, 57.425 35.100, 55.500 36.568 C 53.575 38.036, 51.990 39.971, 51.978 40.869 C 51.966 41.766, 51.076 43.625, 50 45 C 48.924 46.375, 48.027 47.950, 48.005 48.500 C 47.984 49.050, 46.174 51.267, 43.983 53.426 C 41.792 55.585, 40 57.654, 40 58.023 C 40 58.392, 39.112 59.718, 38.026 60.970 C 34.434 65.112, 29.008 82.973, 30.311 86.367 C 30.635 87.213, 32.611 88.768, 34.700 89.822 C 36.790 90.877, 40.004 92.527, 41.841 93.489 C 44.462 94.861, 45.693 95.005, 47.551 94.159 C 48.854 93.565, 52.254 92.770, 55.108 92.391 C 61.888 91.492, 64.077 89.336, 63.319 84.304 C 62.777 80.696, 59.830 77.071, 57.400 77.022 C 56.796 77.010, 54.321 78.342, 51.900 79.982 C 44.379 85.078, 41.822 83.679, 43.258 75.251 C 44.190 69.779, 47.091 65.871, 52.263 63.119 C 54.445 61.958, 55.577 61.950, 59.365 63.068 C 61.844 63.800, 63.667 64.730, 63.416 65.135 C 63.166 65.540, 65.108 66.182, 67.731 66.561 C 72.506 67.251, 78 69.741, 78 71.216 C 78 71.647, 79.013 72.036, 80.250 72.079 C 81.487 72.122, 81.963 72.376, 81.306 72.644 C 80.650 72.911, 79.569 74.788, 78.905 76.815 C 77.082 82.374, 75.089 84.914, 70.847 87.078 C 68.731 88.157, 67 89.407, 67 89.856 C 67 90.304, 64.862 92.865, 62.250 95.548 C 57.722 100.198, 54.526 102.480, 49.020 104.993 C 45.853 106.439, 45.031 107.781, 45.031 111.500 C 45.031 115.688, 46.119 116.983, 50.194 117.644 C 54.315 118.313, 56.715 117.209, 62.394 112.034 C 64.652 109.977, 68.750 106.605, 71.500 104.541 C 74.250 102.478, 77.478 99.197, 78.674 97.251 C 79.870 95.304, 81.267 93.439, 81.779 93.106 C 82.292 92.773, 84.852 89.350, 87.469 85.500 C 90.085 81.650, 92.829 78.152, 93.566 77.726 C 94.303 77.301, 96.566 74.264, 98.595 70.976 C 100.624 67.689, 102.558 64.963, 102.892 64.917 C 103.226 64.872, 106.875 64.685, 111 64.501 C 115.125 64.318, 119.175 64.018, 120 63.834 C 122.878 63.193, 122.405 68.906, 119.211 73.377 C 117.591 75.644, 115.487 80.200, 114.536 83.500 C 113.585 86.800, 111.287 92.650, 109.429 96.500 C 104.903 105.881, 104.182 110.778, 106.847 114.026 C 108.769 116.367, 109.030 116.419, 111.689 114.997 C 114.151 113.681, 119.334 105.198, 121.377 99.142 C 123.896 91.677, 128.905 81.475, 130.605 80.346 C 134.117 78.014, 137.118 81.613, 144.807 97.381 C 151.332 110.763, 152.087 111.874, 155.401 112.967 C 159.934 114.463, 162.844 113.540, 164.113 110.203 C 165.422 106.759, 164.501 103.300, 161.131 99 C 159.622 97.075, 157.240 93.475, 155.839 91 C 151.910 84.062, 146.170 74.621, 145.145 73.412 C 144.639 72.814, 144.010 70.476, 143.749 68.216 C 143.191 63.379, 143.762 63, 151.627 63 C 156.059 63, 157.544 62.547, 159.487 60.604 C 162.598 57.493, 161.664 53.318, 157.226 50.500 C 154.424 48.721, 154.073 47.973, 154.039 43.718 C 154.017 41.088, 153.325 37.319, 152.499 35.343 C 151.112 32.025, 150.754 31.799, 147.799 32.390 C 146.039 32.742, 144.214 33.586, 143.744 34.265 C 143.273 34.944, 143.152 39.017, 143.473 43.316 L 144.058 51.131 140.779 50.816 L 137.500 50.500 137.793 43.500 C 138.028 37.860, 137.691 35.869, 136.057 33.250 C 133.756 29.562, 131.533 29.205, 128.193 31.990 C 125.224 34.464, 124.035 38.722, 124.603 44.836 C 125.214 51.418, 123.991 52.344, 117.091 50.524 C 110.800 48.864, 110.949 48.990, 108.989 43.684 C 107.068 38.483, 103.757 36.738, 95.088 36.357 C 87.299 36.014, 78.259 34.229, 77.418 32.867 C 76.226 30.938, 68.681 26, 66.927 26 C 65.951 26, 63.769 27.165, 62.077 28.589 M 63.688 48.103 C 61.460 50.075, 60 52.275, 60 53.659 C 60 55.706, 60.274 55.846, 62.565 54.975 C 66.742 53.387, 72.259 53.861, 76 56.130 C 77.925 57.297, 79.772 58.677, 80.103 59.198 C 80.970 60.556, 86.182 60.959, 88.304 59.831 C 89.295 59.304, 90.957 57.474, 91.997 55.765 C 94.711 51.302, 93.241 49, 87.675 49 C 85.335 49, 80.738 48.271, 77.460 47.380 C 67.360 44.634, 67.622 44.620, 63.688 48.103 M 147.226 122.250 C 145.061 124.908, 144.049 131.255, 145.066 135.796 C 146.342 141.488, 147.588 143.816, 151.257 147.363 C 154.199 150.208, 154.231 150.213, 156.180 148.264 C 160.161 144.284, 160.371 137.113, 156.789 127.500 C 154.577 121.566, 149.884 118.989, 147.226 122.250 M 48.626 131.750 C 47.843 133.262, 45.968 135.828, 44.461 137.452 C 40.170 142.075, 38.104 147.527, 39.051 151.728 C 39.958 155.747, 41.348 156.962, 45.063 156.985 C 49.438 157.011, 55.717 148.432, 57.493 140 C 57.899 138.075, 58.639 135.992, 59.137 135.372 C 59.682 134.693, 59.646 133.199, 59.046 131.622 C 58.200 129.396, 57.445 129, 54.050 129 C 50.700 129, 49.820 129.446, 48.626 131.750 M 75.496 137.008 C 73.613 140.649, 73.604 143.333, 75.463 146.928 C 77.370 150.616, 78.993 151.144, 82.780 149.310 C 85.997 147.751, 87.689 143.730, 86.581 140.272 C 86.269 139.298, 83.983 137.513, 81.502 136.308 L 76.992 134.115 75.496 137.008 M 112.475 141.453 C 110.939 144.074, 109.634 148.143, 109.304 151.345 C 108.789 156.334, 108.927 156.842, 110.972 157.491 C 112.198 157.880, 113.564 157.816, 114.008 157.349 C 115.386 155.898, 120 144.165, 120 142.112 C 120 135.612, 116.098 135.270, 112.475 141.453" stroke="none" fill="black" fill-rule="evenodd"/>
</svg>