<svg xmlns="http://www.w3.org/2000/svg" width="256" height="256" viewBox="0 0 256 256" version="1.1">
	<path d="M 64.326 26.831 C 61.112 29.373, 59.055 34.282, 58.615 40.455 C 58.151 46.978, 56.668 49.217, 53.086 48.801 C 50.688 48.522, 50.490 48.114, 50.357 43.178 C 50.251 39.210, 49.657 37.264, 48.021 35.523 C 43.035 30.215, 37.900 32.480, 37.853 40.007 C 37.817 45.831, 36.374 52.485, 34.060 57.500 C 33.045 59.700, 31.951 63.957, 31.629 66.959 C 31.127 71.647, 31.349 72.742, 33.197 74.709 C 34.380 75.969, 36.140 77, 37.106 77 C 39.092 77, 42.394 72.758, 43.333 69 C 44.202 65.526, 47.710 60.049, 49.508 59.359 C 54.108 57.593, 58.007 61.951, 58.226 69.104 C 58.354 73.270, 57.028 94.724, 56.467 97.553 C 56.170 99.056, 54.747 99.943, 51.161 100.862 C 46.328 102.101, 42.409 105.233, 40.122 109.684 C 38.496 112.850, 38.731 114.351, 41.083 115.820 C 42.856 116.927, 44.114 116.781, 49.528 114.839 C 53.027 113.584, 56.093 112.769, 56.340 113.029 C 56.588 113.288, 56.980 122.845, 57.213 134.267 C 57.598 153.205, 57.814 155.275, 59.668 157.767 C 62.070 160.997, 64.755 161.631, 67.507 159.618 C 69.374 158.252, 69.508 156.906, 69.621 138.330 C 69.739 118.869, 70.881 108.053, 73.101 105.378 C 73.716 104.637, 76.246 103.019, 78.722 101.782 C 81.460 100.414, 84.417 97.801, 86.267 95.113 C 87.939 92.681, 90.115 89.885, 91.101 88.899 C 92.087 87.913, 93.647 85.620, 94.567 83.803 C 95.488 81.986, 96.821 79.825, 97.530 79 C 98.239 78.175, 99.576 75.170, 100.501 72.322 C 102.738 65.436, 104.684 63.795, 110.148 64.188 C 113.800 64.450, 114.552 64.866, 114.823 66.773 C 115.254 69.816, 112.200 79.003, 109.922 81.514 C 106.703 85.062, 104.985 90.772, 103.829 101.769 C 103.160 108.135, 102.119 113.178, 101.270 114.168 C 100.483 115.085, 99.988 116.856, 100.170 118.105 C 100.466 120.140, 100.657 120.216, 102.021 118.845 C 102.857 118.004, 104.544 116.779, 105.771 116.123 C 106.997 115.467, 108 114.316, 108 113.565 C 108 112.815, 109.813 109.793, 112.029 106.850 C 114.245 103.908, 116.540 99.700, 117.129 97.500 C 119.259 89.543, 121.305 84.458, 123.233 82.329 C 124.478 80.955, 125.463 77.921, 125.918 74.061 C 126.795 66.623, 127.727 65.539, 132.478 66.430 C 136.882 67.256, 137.746 69.085, 135.728 73.305 C 131.502 82.139, 129.164 87.808, 128.540 90.730 C 127.537 95.427, 121.409 110.041, 119.516 112.252 C 118.625 113.293, 117.510 115.159, 117.039 116.398 C 116.568 117.636, 114.341 121.499, 112.091 124.980 C 109.841 128.462, 108 131.828, 108 132.461 C 108 133.094, 106.875 135.136, 105.500 137 C 102.175 141.507, 102.327 142.402, 106.750 144.338 C 112.817 146.994, 115.724 145.623, 118.876 138.618 C 119.895 136.353, 121.914 133.409, 123.364 132.076 C 124.814 130.742, 126 129.122, 126 128.476 C 126 127.829, 127.377 125.399, 129.060 123.076 C 132.075 118.914, 138 105.471, 138 102.794 C 138 102.038, 139.390 96.974, 141.088 91.540 C 144.076 81.983, 146.434 77, 147.970 77 C 148.377 77, 149.262 80.938, 149.936 85.750 C 151.058 93.752, 150.945 95.961, 148.617 111.591 C 145.447 132.872, 144.709 134.959, 140.103 135.655 C 139.334 135.771, 138.017 136.555, 137.175 137.396 C 135.927 138.644, 135.862 139.402, 136.823 141.510 C 137.470 142.931, 138 144.725, 138 145.497 C 138 147.491, 143.688 155.666, 145.580 156.392 C 148.609 157.555, 150.963 156.986, 152.438 154.735 C 153.254 153.490, 155.757 143.256, 158.001 131.994 C 162.036 111.741, 162.292 109.262, 164.506 68.914 C 165.341 53.691, 166.097 54.258, 144 53.535 C 134.375 53.219, 123.125 52.396, 119 51.704 L 111.500 50.447 111.251 46.973 C 110.594 37.832, 109.771 33.070, 108.563 31.417 C 107.333 29.735, 107.073 29.722, 104.772 31.230 C 102.291 32.855, 100.713 37.148, 99.462 45.674 C 99.044 48.524, 97.787 50.943, 95.497 53.300 C 93.653 55.199, 91.644 58.609, 91.033 60.877 C 90.423 63.144, 89.508 65, 89.002 65 C 88.495 65, 87.541 66.800, 86.882 69 C 86.223 71.200, 85.355 73, 84.954 73 C 84.553 73, 83.176 76.198, 81.895 80.107 C 79.466 87.516, 77.886 89, 72.427 89 L 69.985 89 70.075 77.360 C 70.142 68.701, 69.826 65.510, 68.841 64.902 C 66.321 63.344, 69.471 62.019, 77.261 61.361 C 82.750 60.897, 85.510 60.173, 86.966 58.817 C 89.282 56.659, 89.429 55.528, 87.942 51.264 L 86.884 48.229 78.442 48.755 C 68.764 49.359, 69.306 50.083, 71.192 39.087 C 72.090 33.852, 72.102 31.519, 71.241 29.630 C 69.535 25.885, 66.880 24.811, 64.326 26.831" stroke="none" fill="black" fill-rule="evenodd"/>
</svg>