<svg xmlns="http://www.w3.org/2000/svg" width="256" height="256" viewBox="0 0 256 256" version="1.1">
	<path d="M 66.324 34.250 C 58.906 38.993, 54.671 43.047, 50.776 49.136 C 48.877 52.105, 46.623 55.234, 45.769 56.088 C 40.987 60.870, 36.790 74.871, 38.936 78.881 C 39.706 80.320, 39.655 80.972, 38.742 81.340 C 38.059 81.616, 38.457 81.878, 39.626 81.921 C 42.710 82.036, 57.181 66.956, 63.542 57 C 65.123 54.525, 68.777 49.755, 71.662 46.399 C 74.546 43.044, 77.474 39.054, 78.167 37.532 C 79.303 35.040, 79.197 34.578, 77.103 32.883 C 73.894 30.283, 72.190 30.500, 66.324 34.250 M 114.667 42.667 C 113.375 43.958, 114.065 49.525, 115.772 51.590 C 116.723 52.740, 118.963 54.203, 120.750 54.840 C 129.833 58.081, 129.842 58.087, 131.417 62.710 C 132.263 65.194, 133.858 68.009, 134.960 68.965 C 137.827 71.452, 152.989 74.635, 154.021 72.967 C 155.562 70.473, 152.702 65.935, 146.462 60.970 C 142.969 58.190, 139.086 54.248, 137.833 52.208 C 134.667 47.056, 132.406 45.441, 125.777 43.598 C 119.676 41.901, 115.760 41.573, 114.667 42.667 M 73.500 65.808 C 72.400 66.021, 71.062 66.611, 70.527 67.120 C 68.639 68.917, 70.141 75.436, 73.533 80.168 C 75.373 82.735, 77.348 86.560, 77.922 88.668 C 78.552 90.985, 81.158 94.868, 84.513 98.490 C 87.565 101.784, 89.598 104.634, 89.031 104.823 C 88.464 105.012, 88 106.524, 88 108.182 C 88 111.641, 83.685 116.269, 78.401 118.477 C 76.604 119.228, 74.443 121.177, 73.600 122.807 C 70.716 128.383, 56.940 141.059, 49.041 145.405 C 40.960 149.851, 39.401 152.430, 42.353 156.468 C 44.100 158.858, 49.915 158.898, 55.512 156.559 C 61.067 154.239, 78.500 137.650, 84.089 129.369 C 87.809 123.855, 89.651 122.016, 91.961 121.508 C 93.620 121.144, 95.234 120.431, 95.548 119.923 C 96.418 118.515, 99.749 118.819, 103.242 120.625 C 107.039 122.589, 117 131.844, 117 133.409 C 117 135.426, 126.604 143.754, 129.719 144.438 C 131.395 144.806, 134.562 146.645, 136.757 148.524 C 140.930 152.096, 148.513 154.785, 151.346 153.698 C 154.359 152.541, 153.451 146.654, 149.674 142.850 C 147.845 141.007, 145.932 138.801, 145.424 137.946 C 144.429 136.272, 136.893 131.014, 131.698 128.369 C 129.939 127.474, 126.215 124.662, 123.422 122.121 C 120.629 119.579, 116.804 116.326, 114.922 114.890 C 111.533 112.306, 111.501 112.207, 111.602 104.663 C 111.687 98.298, 112.119 96.419, 114.226 93.234 C 115.613 91.139, 117.074 87.866, 117.472 85.962 C 117.870 84.058, 119.277 80.620, 120.598 78.322 C 123.862 72.645, 123.676 70.383, 119.750 67.989 C 113.142 63.960, 108.959 66.137, 107.067 74.591 C 106.363 77.737, 104.485 82.109, 102.893 84.306 C 101.302 86.503, 100 89.032, 100 89.928 C 100 90.823, 99.284 92.577, 98.410 93.825 C 97.068 95.741, 96.575 95.893, 95.249 94.798 C 93.514 93.363, 84.547 75.075, 83.479 70.791 C 83.108 69.301, 82.285 67.674, 81.652 67.175 C 80.166 66.005, 76.054 65.316, 73.500 65.808" stroke="none" fill="black" fill-rule="evenodd"/>
</svg>