<svg xmlns="http://www.w3.org/2000/svg" width="256" height="256" viewBox="0 0 256 256" version="1.1">
	<path d="M 49.028 41.080 C 46.064 42.303, 45.036 43.749, 45.015 46.724 C 44.987 50.866, 48.935 51.767, 69.984 52.419 C 80.674 52.750, 89.706 53.354, 90.054 53.761 C 90.402 54.167, 90.420 59.900, 90.093 66.500 L 89.500 78.500 79.500 78.542 C 58.424 78.632, 51.988 81.504, 56.012 89.023 C 57.333 91.491, 67.582 92.897, 84.811 92.972 L 91.123 93 90.395 97.750 C 89.543 103.315, 89.517 113.494, 90.317 127.610 C 90.867 137.297, 90.799 137.768, 88.695 138.842 C 87.488 139.459, 85.150 139.781, 83.500 139.559 C 76.361 138.598, 52.954 139.212, 46.421 140.532 C 43.970 141.027, 41.788 145.229, 42.679 147.738 C 44.528 152.949, 44.776 153, 68.262 153 C 84.338 153, 92.624 152.559, 99.220 151.352 C 107.065 149.917, 109.872 149.862, 120.998 150.924 C 128.214 151.613, 136.883 151.837, 140.928 151.438 C 147.350 150.806, 148.230 150.457, 149.476 148.047 C 151.332 144.457, 149.569 140.831, 145.487 139.848 C 143.844 139.452, 140.360 138.590, 137.746 137.933 L 132.991 136.738 135.496 134.417 C 137.360 132.688, 138 131.078, 138 128.113 C 138 122.831, 136.892 120.262, 132.635 115.670 C 130.682 113.564, 128.824 111.022, 128.507 110.021 C 127.574 107.082, 122.911 103, 120.486 103 C 115.684 103, 114.192 109.451, 117.779 114.698 C 118.833 116.239, 120.776 119.188, 122.098 121.252 C 123.419 123.315, 125.246 125.244, 126.158 125.540 C 127.702 126.040, 132 133.727, 132 135.989 C 132 137.279, 127.631 137.269, 116.974 135.956 C 104.915 134.470, 103.750 134.214, 102.919 132.868 C 102.510 132.207, 102.248 123.085, 102.338 112.597 L 102.500 93.530 105.470 92.105 C 107.518 91.122, 113.002 90.590, 123.154 90.390 C 138.188 90.093, 141.417 89.338, 142.313 85.910 C 143.109 82.867, 141.336 81.756, 131.867 79.362 C 125.243 77.687, 119.713 77, 112.867 77 L 103.210 77 102.781 72.750 C 102.544 70.412, 102.559 65.445, 102.813 61.712 C 103.386 53.277, 104.463 52.465, 113.312 53.789 C 116.894 54.325, 122.869 54.361, 127.500 53.875 C 131.900 53.412, 137.378 53.297, 139.673 53.619 C 147.685 54.742, 153.765 48.321, 149.104 43.659 C 146.979 41.534, 146.389 41.498, 111.223 41.349 C 91.575 41.265, 70.100 40.942, 63.500 40.629 C 56.253 40.286, 50.521 40.464, 49.028 41.080" stroke="none" fill="black" fill-rule="evenodd"/>
</svg>