<svg xmlns="http://www.w3.org/2000/svg" width="256" height="256" viewBox="0 0 256 256" version="1.1">
	<path d="M 115.780 27.064 C 114.833 27.615, 113.596 29.739, 113.030 31.783 C 111.242 38.240, 110.828 38.500, 102.331 38.500 C 94.993 38.500, 94.520 38.637, 93.088 41.171 C 91.767 43.508, 91.758 44.179, 93.014 46.526 C 94.300 48.929, 94.871 49.153, 98.475 48.668 C 100.689 48.371, 103.445 47.839, 104.601 47.486 C 107.413 46.628, 110 49.328, 110 53.122 C 110 55.577, 109.389 56.357, 106.532 57.551 C 104.625 58.348, 100.554 59, 97.487 59 C 92.898 59, 91.474 59.435, 89.455 61.455 C 86.444 64.465, 86.361 66.361, 89.120 69.120 C 91.022 71.022, 91.967 71.175, 98.343 70.610 C 102.250 70.264, 116.963 69.974, 131.039 69.964 C 152.370 69.949, 156.996 69.691, 158.816 68.416 C 163.304 65.273, 160.026 58, 154.122 58 C 149.762 58, 148.715 56.094, 150.142 50.757 C 151.231 46.686, 151.136 45.956, 149.080 42.629 C 145.811 37.341, 143.918 36.655, 134.584 37.379 C 130.067 37.729, 125.860 37.593, 125.050 37.071 C 124.104 36.460, 123.683 34.743, 123.838 32.123 C 124.022 29.003, 123.636 27.876, 122.103 27.055 C 119.678 25.757, 118.017 25.759, 115.780 27.064 M 69 43 C 67.625 43.440, 61.325 43.854, 55 43.920 C 42.506 44.049, 34.259 45.642, 32.619 48.242 C 31.165 50.547, 32.947 55.165, 35.847 56.611 C 37.663 57.516, 39.208 57.430, 43.021 56.210 C 50.009 53.976, 51.381 55.303, 50.487 63.436 C 48.939 77.520, 48.016 79.031, 39.734 81.047 C 34.538 82.312, 32 84.929, 32 89.023 C 32 94.133, 35.368 95.171, 42.773 92.342 C 49.289 89.854, 49.900 90.933, 50.066 105.221 C 50.168 113.901, 49.853 117.278, 48.852 118.244 C 48.108 118.961, 44.205 120.637, 40.177 121.967 C 36.149 123.298, 32.257 124.862, 31.528 125.443 C 29.040 127.426, 28.878 130.492, 31.134 132.913 C 33.444 135.393, 32.120 135.365, 51.892 133.348 C 54.857 133.046, 58.682 131.946, 60.392 130.903 C 62.411 129.671, 65.363 129.006, 68.820 129.004 C 73.115 129.001, 74.997 128.410, 78.590 125.938 C 82.758 123.071, 83.587 121, 80.568 121 C 79.845 121, 77.112 120.052, 74.493 118.894 C 70.990 117.344, 68.682 116.955, 65.763 117.422 L 61.795 118.056 62.493 105.278 C 63.234 91.690, 63.910 90, 68.602 90 C 71.611 90, 76 84.601, 76 80.899 C 76 77.324, 72.478 75.572, 66.789 76.315 C 61.591 76.993, 60.611 75.432, 61.249 67.484 C 61.960 58.633, 63.811 56, 69.323 56 C 74.686 56, 76 54.697, 76 49.382 C 76 42.055, 74.947 41.095, 69 43 M 121.511 52.237 C 119.626 53.858, 118.880 55.245, 119.301 56.342 C 120.226 58.752, 139.748 58.820, 140.670 56.417 C 141.862 53.312, 137.566 50.631, 130.699 50.194 C 125.090 49.836, 124.027 50.073, 121.511 52.237 M 99.295 75.154 C 95.644 75.844, 93.914 76.695, 93.499 78.003 C 92.326 81.698, 92.569 102.446, 93.812 104.708 C 94.969 106.813, 95.543 106.900, 106.160 106.590 C 118.616 106.226, 120.597 106.508, 121.465 108.769 C 122.445 111.324, 120.420 111.761, 107.297 111.823 L 94.829 111.882 91.852 114.997 C 86.158 120.956, 90.435 125.644, 100.997 125.023 C 104.024 124.845, 109.875 124.654, 114 124.599 L 121.500 124.500 121.602 127.294 C 121.664 129.006, 121.028 130.450, 119.960 131.021 C 117.801 132.177, 104.659 131.483, 102.261 130.086 C 100.880 129.282, 100.823 129.051, 102 129.015 C 104.998 128.924, 100.668 127.031, 97.424 127.015 C 93.735 126.997, 90.376 130.206, 88.971 135.090 C 88.168 137.882, 88.328 138.953, 89.851 141 C 91.652 143.420, 92.137 143.509, 105.040 143.780 C 112.780 143.943, 118.920 144.519, 119.684 145.153 C 120.408 145.753, 121.025 148.102, 121.056 150.372 C 121.139 156.382, 123.113 161.444, 125.507 161.788 C 129.233 162.322, 131.059 159.858, 131.667 153.478 C 132.016 149.803, 132.842 147.019, 133.809 146.250 C 134.847 145.425, 139.038 145, 146.134 145 C 156.112 145, 156.999 144.840, 158.443 142.777 C 160.579 139.728, 160.406 138.315, 157.545 135.455 C 155.251 133.160, 154.406 133, 144.581 133 C 135.454 133, 133.943 132.761, 133.100 131.187 C 132.443 129.959, 132.521 128.586, 133.340 126.937 C 134.430 124.741, 135.339 124.446, 142.525 123.952 C 153.717 123.183, 157.068 120.939, 155.029 115.577 C 153.787 112.311, 151.177 111.688, 142.104 112.491 C 133.384 113.263, 130.958 112.145, 133.579 108.562 C 134.667 107.073, 136.657 106.499, 142.236 106.064 C 151.154 105.370, 151.583 104.721, 152.566 90.450 C 153.240 80.671, 153.192 80.334, 150.717 77.456 L 148.177 74.500 126.338 74.335 C 114.327 74.244, 102.158 74.612, 99.295 75.154 M 107.966 86.869 C 103.067 87.903, 102 88.742, 102 91.559 L 102 94 120.831 94 L 139.662 94 141.011 91.480 C 143.319 87.167, 141.481 86.548, 125.713 86.325 C 117.896 86.214, 109.910 86.459, 107.966 86.869" stroke="none" fill="black" fill-rule="evenodd"/>
</svg>