<svg xmlns="http://www.w3.org/2000/svg" width="256" height="256" viewBox="0 0 256 256" version="1.1">
	<path d="M 87.269 35.640 L 84.715 38.194 85.426 56.192 C 85.816 66.092, 86.355 74.762, 86.623 75.460 C 87.670 78.189, 91.996 79.010, 101.908 78.361 C 110.405 77.804, 112.134 77.966, 114.857 79.575 C 116.586 80.596, 118 81.687, 118 82 C 118 82.313, 116.763 83.293, 115.250 84.179 C 113.067 85.457, 108.751 85.862, 94.301 86.144 L 76.102 86.500 72.328 83.250 C 69.528 80.839, 67.592 80, 64.824 80 C 60.115 80, 56 78.164, 56 76.063 C 56 71.212, 58.282 57.365, 59.280 56.163 C 60.145 55.121, 61.899 54.914, 66.124 55.355 C 70.717 55.835, 71.920 55.651, 72.403 54.393 C 74.411 49.159, 71.710 46.483, 62.988 45.068 C 53.906 43.594, 35.099 43.728, 32 45.288 C 28.722 46.938, 28.300 50.841, 31.025 54.305 C 32.811 56.576, 33.916 57, 38.037 57 C 44.108 57, 44.540 57.721, 45.305 69.109 C 45.977 79.120, 45.489 80, 39.265 80 C 34.138 80, 30.509 82.101, 29.212 85.821 C 27.256 91.432, 31.613 95.728, 37.262 93.759 C 38.788 93.227, 41.111 93.062, 42.425 93.392 C 44.812 93.991, 44.814 94.005, 44.431 106.518 C 44.219 113.407, 43.596 119.887, 43.044 120.917 C 42.450 122.027, 40.001 123.280, 37.032 123.992 C 30.445 125.572, 27 128.328, 27 132.016 C 27 135.167, 30.060 137.998, 33.473 138.003 C 35.761 138.007, 47.586 134.813, 56.296 131.838 C 59.484 130.750, 63.309 129.938, 64.796 130.035 C 73.268 130.588, 76.461 128.820, 75.376 124.178 C 74.345 119.769, 71.286 118.125, 63.500 117.796 L 56.500 117.500 56.203 106.797 C 55.940 97.305, 56.125 95.875, 57.845 94.155 C 59.753 92.247, 59.915 92.246, 68.142 94.077 C 84.259 97.665, 92.583 98.225, 123.500 97.799 C 147.028 97.475, 154.147 97.073, 156.500 95.934 C 159.926 94.275, 160.743 91.394, 158.611 88.493 C 157.250 86.640, 156.121 86.517, 142.600 86.735 C 127.882 86.973, 123 86.202, 123 83.640 C 123 82.864, 124.237 81.401, 125.750 80.389 C 127.916 78.938, 130.690 78.506, 138.808 78.351 C 153.948 78.062, 153.613 78.439, 154.443 60.802 C 154.813 52.936, 155.335 44.821, 155.603 42.769 C 156.081 39.114, 154.788 35.233, 152.600 33.758 C 151.995 33.349, 137.623 33.031, 120.661 33.051 L 89.822 33.087 87.269 35.640 M 98.529 45.355 C 97.394 46.185, 96.920 47.348, 97.306 48.355 C 97.853 49.781, 100.039 50.010, 113.719 50.073 C 122.398 50.113, 131.883 50.485, 134.796 50.900 C 140.278 51.680, 142.206 50.992, 143.282 47.872 C 144.473 44.418, 142.067 44, 120.991 44 C 105.228 44, 99.946 44.319, 98.529 45.355 M 98.429 61.079 C 93.471 66.555, 101.284 68.327, 125.395 67.198 C 138.015 66.607, 140.457 66.233, 141.390 64.750 C 142.158 63.528, 142.176 62.503, 141.451 61.353 C 140.546 59.919, 137.803 59.693, 120.136 59.603 C 102.844 59.515, 99.649 59.732, 98.429 61.079 M 101.768 102.971 C 92.334 103.933, 90.772 105.524, 91.501 113.431 C 91.809 116.769, 92.562 122.768, 93.174 126.763 C 94.439 135.018, 93.532 137.009, 87.615 138.962 C 85.265 139.738, 83.921 141.197, 82.285 144.750 C 79.018 151.843, 78.991 154.201, 82.158 155.734 C 84.727 156.978, 89.501 156.141, 90.980 154.187 C 92.470 152.218, 98.210 149.002, 100.210 149.015 C 102.055 149.028, 102.209 149.219, 101 150 C 100.121 150.568, 99.988 150.976, 100.679 150.985 C 101.327 150.993, 102.518 151.660, 103.325 152.468 C 106.009 155.152, 116.469 160.995, 118.595 160.997 C 121.307 161.001, 123.447 158.492, 124.992 153.500 C 125.673 151.300, 127.078 147.575, 128.115 145.223 C 130.255 140.367, 130.525 137.342, 128.866 136.789 C 126.678 136.059, 131.101 133, 134.321 133.015 C 139.203 133.039, 140.597 134.407, 137.278 135.918 C 135.750 136.613, 133.792 137.926, 132.927 138.836 C 131.491 140.347, 131.548 140.643, 133.585 142.245 C 134.812 143.210, 136.025 144, 136.282 144 C 136.539 144, 138.043 145.111, 139.624 146.469 C 154.893 159.578, 154.471 159.347, 157.345 156.171 C 159.810 153.447, 159.363 150.980, 155.528 146.157 C 153.629 143.769, 151.817 141, 151.501 140.004 C 151.185 139.008, 149.358 137.449, 147.440 136.539 C 143.715 134.771, 143.758 133.808, 147.703 130.677 C 149.598 129.174, 150 127.896, 150 123.370 C 150 120.354, 150.513 115.847, 151.141 113.356 C 152.213 109.096, 152.131 108.676, 149.754 106.300 C 148.328 104.874, 145.327 103.406, 142.864 102.930 C 137.776 101.947, 111.548 101.973, 101.768 102.971 M 106.500 113.970 C 104.117 114.407, 103.500 115.032, 103.500 117.010 L 103.500 119.500 117 120.205 C 132.130 120.996, 137.872 120.498, 138.706 118.323 C 139.936 115.117, 136.803 114.218, 123 113.815 C 115.575 113.598, 108.150 113.668, 106.500 113.970 M 104.028 133.113 C 100.425 134.551, 100.001 135.882, 102.031 139.380 C 103.159 141.324, 103.685 143.772, 103.426 145.874 C 103.021 149.159, 103.090 149.232, 106.044 148.641 C 107.713 148.307, 110.127 147.243, 111.409 146.276 C 114.269 144.119, 117.305 135.086, 115.788 133.250 C 114.574 131.781, 107.570 131.700, 104.028 133.113" stroke="none" fill="black" fill-rule="evenodd"/>
</svg>