<svg xmlns="http://www.w3.org/2000/svg" width="256" height="256" viewBox="0 0 256 256" version="1.1">
	<path d="M 92.609 32.534 C 90.938 34.205, 89.014 40.181, 89.006 43.730 C 89.003 44.956, 89.747 47.825, 90.659 50.106 C 92.289 54.181, 92.279 54.281, 90.021 55.984 C 88.415 57.195, 84.962 57.898, 78.541 58.320 C 62.977 59.342, 59.880 57.005, 66.522 49.246 C 69.506 45.759, 70.070 44.393, 69.812 41.269 C 69.545 38.047, 69.121 37.456, 66.890 37.197 C 63.189 36.768, 58.318 41.182, 56.818 46.324 C 55.370 51.289, 53.791 54.056, 48.668 60.603 C 42.003 69.122, 35.340 80.376, 34.588 84.384 C 33.706 89.082, 35.468 94, 38.032 94 C 40.077 94, 43.837 89.840, 47.604 83.412 C 49.026 80.986, 50.521 79, 50.926 79 C 51.331 79, 52.238 77.925, 52.941 76.610 C 53.644 75.296, 55.408 73.673, 56.860 73.003 C 60.719 71.223, 88.906 69.677, 90.679 71.148 C 92.707 72.832, 92.146 94.639, 90.086 94.195 C 87.004 93.531, 65.520 96.337, 64.293 97.564 C 62.599 99.258, 62.643 102.459, 64.381 103.901 C 66.723 105.845, 76.771 108, 83.490 108 C 87.005 108, 90.165 108.458, 90.511 109.018 C 90.857 109.577, 91.221 117.115, 91.320 125.768 L 91.500 141.500 85 141.391 C 81.425 141.332, 71.624 140.925, 63.220 140.488 C 46.034 139.595, 42.982 140.264, 43.022 144.919 C 43.062 149.576, 45.871 151.817, 53 152.881 C 66.743 154.933, 91.744 156.245, 104 155.557 C 110.875 155.171, 122.800 154.893, 130.500 154.940 C 147.150 155.041, 151.281 153.757, 151.808 148.316 C 152.043 145.894, 151.604 144.858, 149.970 143.984 C 147.238 142.522, 122.983 140.729, 116.886 141.538 C 114.348 141.875, 110.466 141.664, 108.260 141.070 C 103.311 139.737, 103 138.571, 103 121.350 C 103 109.121, 103.034 108.938, 105.443 108.022 C 106.786 107.511, 112.974 107.141, 119.193 107.200 C 134.533 107.344, 138.849 105.353, 136.129 99.384 C 134.337 95.451, 129.366 94, 117.687 94 C 104.605 94, 104.476 93.880, 103.676 80.990 C 103.351 75.760, 103.413 70.950, 103.813 70.302 C 104.322 69.479, 110.524 69.029, 124.361 68.812 C 143.807 68.506, 144.217 68.456, 146.090 66.139 C 148.512 63.145, 148.487 62.678, 145.729 59.471 L 143.458 56.831 124.479 56.399 C 114.041 56.162, 104.713 55.720, 103.750 55.416 C 102.248 54.943, 102 53.546, 102 45.567 C 102 37.675, 101.687 35.871, 99.927 33.635 C 97.593 30.667, 94.884 30.259, 92.609 32.534" stroke="none" fill="black" fill-rule="evenodd"/>
</svg>