<svg xmlns="http://www.w3.org/2000/svg" width="256" height="256" viewBox="0 0 256 256" version="1.1">
	<path d="M 119 28.957 C 117.854 29.697, 117.473 32.175, 117.385 39.448 C 117.313 45.469, 116.808 49.526, 116.013 50.484 C 114.517 52.286, 110.091 52.454, 106.555 50.843 C 104.272 49.803, 104.029 49.150, 104.140 44.354 C 104.348 35.326, 100.183 33.429, 94.798 40.101 C 92.632 42.784, 91.650 45.407, 90.944 50.392 C 90.423 54.071, 89.066 59.650, 87.928 62.790 C 83.391 75.314, 83.293 76.009, 85.776 78.020 C 87.811 79.667, 88.295 79.700, 90.967 78.367 C 93.864 76.921, 98.593 71.632, 100.867 67.294 C 102.943 63.334, 115.102 61.397, 116.833 64.750 C 117.331 65.713, 117.970 69.542, 118.254 73.260 C 118.539 76.978, 119.302 80.659, 119.950 81.440 C 121.980 83.886, 118.410 84.689, 102.610 85.340 C 85.845 86.031, 83 86.990, 83 91.952 C 83 98.078, 82.484 98, 123 98 C 155.173 98, 160.057 97.800, 161.429 96.429 C 163.918 93.939, 163.324 90.450, 159.923 87.589 C 156.977 85.110, 156.323 85, 144.505 85 C 137.717 85, 131.533 84.758, 130.763 84.463 C 129.664 84.041, 129.453 82.048, 129.783 75.213 C 130.320 64.071, 131.044 63.251, 141 62.499 C 149.355 61.867, 153.338 59.808, 153.759 55.901 C 154.280 51.074, 152.936 50.500, 141.119 50.500 C 135.096 50.500, 129.814 50.146, 129.381 49.714 C 128.948 49.281, 128.463 45.456, 128.302 41.214 C 128.090 35.609, 127.503 32.817, 126.155 31 C 124.117 28.255, 121.323 27.457, 119 28.957 M 52.646 42.452 C 50.013 44.892, 49.635 46.113, 49.957 51.130 C 50.086 53.138, 49.315 54.260, 46.695 55.880 C 44.808 57.046, 42.101 58, 40.679 58 C 37.331 58, 33.263 59.871, 32.545 61.743 C 32.235 62.552, 32.465 65.013, 33.057 67.212 C 33.649 69.411, 33.896 71.828, 33.606 72.584 C 33.316 73.340, 32.997 84.100, 32.898 96.494 C 32.673 124.433, 31.975 123.115, 48.842 126.606 C 53.531 127.576, 58.051 127.924, 60.500 127.502 C 62.700 127.124, 66.746 126.519, 69.490 126.157 C 77.056 125.161, 77.104 124.949, 77.311 91.722 C 77.407 76.200, 77.143 62.263, 76.724 60.750 C 76.002 58.145, 75.649 58, 70.037 58 C 65.236 58, 63.586 57.548, 61.342 55.618 C 58.835 53.462, 58.687 52.981, 59.786 50.570 C 63.574 42.257, 58.761 36.785, 52.646 42.452 M 52.324 69.718 C 48.189 70.236, 47.442 71.308, 46.235 78.467 C 44.753 87.258, 44.738 87.245, 55.382 86.438 C 60.397 86.058, 64.697 85.569, 64.938 85.352 C 65.178 85.135, 65.571 82.251, 65.810 78.943 C 66.484 69.627, 64.405 68.205, 52.324 69.718 M 45.607 99.582 C 45.273 100.452, 45 103.547, 45 106.459 C 45 112.129, 46.507 114.556, 49.034 112.958 C 50.898 111.779, 57 111.715, 57 112.875 C 57 113.356, 58.461 114.042, 60.246 114.399 C 64.528 115.256, 66 113.207, 66 106.391 C 66 97.948, 66.065 98, 55.500 98 C 47.955 98, 46.100 98.297, 45.607 99.582 M 135.661 102.672 C 135.542 102.791, 127.132 103.117, 116.972 103.397 C 90.521 104.126, 88.807 105.074, 91.467 117.500 C 92.291 121.350, 92.979 129.675, 92.996 136 C 93.013 142.325, 93.278 148.434, 93.585 149.576 C 94.370 152.501, 98.582 154.660, 104.979 155.418 C 113.641 156.444, 143.738 156.148, 148.023 154.994 C 155.114 153.084, 154.895 153.960, 156.396 121.500 C 156.625 116.550, 156.907 112.050, 157.024 111.500 C 158.278 105.599, 154.317 103.034, 143.420 102.692 C 139.272 102.562, 135.780 102.553, 135.661 102.672 M 119.281 115.939 C 103.278 116.674, 103.210 116.734, 104.920 128.704 C 105.611 133.542, 106.255 138.172, 106.350 138.992 C 106.698 141.973, 112.073 143.276, 125.935 143.739 C 142.222 144.283, 143.353 143.811, 143.609 136.352 C 143.700 133.683, 144.120 128.394, 144.541 124.599 C 145.216 118.516, 145.089 117.538, 143.462 116.349 C 141.563 114.960, 140.875 114.949, 119.281 115.939" stroke="none" fill="black" fill-rule="evenodd"/>
</svg>