<svg xmlns="http://www.w3.org/2000/svg" width="256" height="256" viewBox="0 0 256 256" version="1.1">
	<path d="M 59.078 28.417 C 57.227 30.387, 56.728 32.266, 56.376 38.598 C 56.139 42.868, 55.452 46.956, 54.850 47.681 C 54.080 48.609, 50.847 49, 43.949 49 C 32.808 49, 31 49.913, 31 55.536 C 31 59.965, 32.949 60.960, 43.318 61.826 C 51.169 62.481, 51.489 62.604, 51.240 64.879 C 51.097 66.182, 49.410 68.686, 47.493 70.443 C 44.688 73.012, 43.796 74.797, 42.931 79.568 C 42.340 82.831, 41.439 86.281, 40.928 87.236 C 40.418 88.191, 40 89.626, 40 90.424 C 40 91.222, 37.300 97.143, 34 103.582 C 27.131 116.984, 26.143 122.496, 30.415 123.568 C 36.899 125.195, 43.499 117.692, 47.349 104.318 C 49.431 97.082, 49.781 96.525, 52.049 96.836 C 53.397 97.022, 54.809 97.472, 55.186 97.836 C 55.564 98.201, 56.162 106.375, 56.516 116 C 57.381 139.569, 59.426 156.708, 61.666 159.184 C 64.037 161.803, 68.777 161.212, 71.148 158 C 72.642 155.976, 72.815 154.833, 72.059 152 C 70.466 146.036, 69.049 127.686, 69.894 123.956 C 70.335 122.007, 70.309 119.364, 69.835 118.084 C 69.362 116.803, 68.867 109.848, 68.737 102.628 L 68.500 89.500 71.406 89.169 C 73.004 88.986, 76.046 89.619, 78.166 90.575 C 83.807 93.119, 86.384 91.630, 88.411 84.658 C 90.329 78.061, 90.341 77.034, 88.530 74.643 C 87.536 73.332, 85.709 72.744, 82.313 72.643 C 77.834 72.510, 77.365 72.242, 75.501 68.753 C 74.401 66.692, 72.837 65.004, 72.027 65.003 C 71.106 65.001, 71.468 64.361, 72.994 63.292 C 74.552 62.200, 77.611 61.527, 81.466 61.427 C 84.785 61.341, 87.807 61.209, 88.183 61.135 C 89.979 60.780, 89.912 56.748, 88.049 53.096 L 85.999 49.078 77.250 48.789 L 68.500 48.500 68.500 38.907 C 68.500 28.569, 67.515 26, 63.552 26 C 62.340 26, 60.327 27.087, 59.078 28.417 M 100.089 40.094 C 98.972 41.932, 97.734 45.475, 97.339 47.967 C 96.648 52.332, 96.733 71.275, 97.523 89 C 97.731 93.675, 98.157 103.575, 98.469 111 C 99.243 129.427, 101.036 144.019, 102.880 146.891 C 105.786 151.418, 109.263 152.721, 116.219 151.890 C 122.182 151.177, 143.042 150.817, 151.378 151.283 C 154.597 151.463, 155.617 151.021, 157.378 148.679 C 159.322 146.095, 159.551 144.164, 160.107 125.679 C 160.441 114.581, 161.261 92.921, 161.930 77.546 C 162.599 62.172, 162.883 48.187, 162.560 46.470 C 161.422 40.401, 160.325 39.811, 149.432 39.417 C 131.120 38.755, 115.554 37.966, 108.810 37.357 L 102.121 36.753 100.089 40.094 M 112.350 49.996 C 110.167 50.875, 109.303 54.066, 109.100 62 C 109.050 63.925, 108.743 67.190, 108.416 69.255 L 107.822 73.011 127.882 72.652 C 140.485 72.427, 148.434 71.885, 149.267 71.193 C 150.122 70.483, 150.678 67.273, 150.831 62.152 C 151.121 52.429, 149.962 50.663, 143.925 51.628 C 140.585 52.162, 134.060 51.641, 117.500 49.516 C 115.850 49.304, 113.532 49.520, 112.350 49.996 M 141.500 84.511 C 140.950 84.705, 134.052 85.038, 126.171 85.250 C 115.162 85.548, 111.627 85.969, 110.913 87.069 C 110.402 87.856, 110.100 91.422, 110.242 94.992 L 110.500 101.485 128.703 101.492 C 149.756 101.501, 148.529 102.154, 148.911 90.750 L 149.138 84 145.819 84.079 C 143.994 84.122, 142.050 84.317, 141.500 84.511 M 142.728 113.606 C 142.395 113.939, 136.357 114.193, 129.311 114.171 C 122.265 114.148, 115.723 114.353, 114.772 114.625 C 113.813 114.900, 112.614 116.761, 112.077 118.810 C 111.024 122.825, 112.041 134.479, 113.569 135.910 C 114.081 136.389, 121.700 136.944, 130.500 137.141 L 146.500 137.500 147.009 127 C 147.290 121.225, 147.350 115.713, 147.143 114.750 C 146.782 113.070, 143.988 112.346, 142.728 113.606" stroke="none" fill="black" fill-rule="evenodd"/>
</svg>