<svg xmlns="http://www.w3.org/2000/svg" width="256" height="256" viewBox="0 0 256 256" version="1.1">
	<path d="M 118.583 29.908 C 116.123 32.626, 114.051 39.689, 113.763 46.333 L 113.496 52.500 107.998 53.192 C 100.243 54.167, 80.852 54.357, 78.696 53.479 C 77.111 52.834, 77.255 52.523, 79.882 50.926 C 83.620 48.652, 85.319 45.581, 84.415 42.732 C 84.032 41.526, 81.645 38.174, 79.110 35.282 C 72.761 28.042, 69.149 28.210, 67.521 35.820 C 66.922 38.618, 67.376 39.993, 70.405 44.555 C 72.382 47.533, 74 50.426, 74 50.985 C 74 51.543, 74.563 52.029, 75.250 52.063 C 75.938 52.098, 75.375 52.592, 74 53.160 C 72.625 53.728, 66.550 54.374, 60.500 54.597 C 54.450 54.819, 47.149 55.257, 44.276 55.569 C 35.834 56.487, 32.092 61.408, 37.006 65.129 C 39.222 66.806, 41.359 67.027, 55.506 67.037 C 72.802 67.049, 78.004 67.587, 77.992 69.361 C 77.988 69.988, 76.975 70.995, 75.742 71.600 C 60.208 79.219, 47.426 87.403, 42.660 92.780 C 39.999 95.782, 41.279 98.774, 45.567 99.579 C 47.467 99.935, 49.333 100.730, 49.713 101.344 C 50.092 101.959, 50.470 111.349, 50.551 122.211 C 50.687 140.301, 50.550 142.008, 48.929 142.522 C 46.840 143.185, 45.129 143.506, 38.731 144.436 C 32.974 145.272, 30.377 148.232, 31.897 152.229 C 32.419 153.603, 33.567 155.004, 34.447 155.341 C 36.606 156.170, 120.392 156.035, 140.714 155.170 C 155.273 154.551, 157.082 154.277, 158.432 152.490 C 159.260 151.396, 159.951 149.476, 159.968 148.225 C 160.007 145.426, 156.926 144.104, 148.529 143.316 C 145.213 143.005, 141.938 142.302, 141.250 141.753 C 140.424 141.094, 139.998 137.825, 139.995 132.128 C 139.992 127.382, 139.698 119.088, 139.340 113.696 C 138.728 104.447, 138.544 103.816, 136.096 102.560 C 130.564 99.722, 121.523 98.907, 90.978 98.495 C 71.657 98.234, 59.282 97.682, 58.654 97.054 C 56.964 95.364, 64.915 88.757, 71.957 86 C 77.240 83.932, 78.678 82.849, 80.277 79.736 C 82.073 76.239, 82.097 75.797, 80.606 73.521 C 78.146 69.766, 78.594 68.152, 82.250 67.598 C 90.104 66.406, 119.122 65.995, 121.088 67.047 C 122.579 67.845, 123.500 67.830, 124.510 66.992 C 125.282 66.351, 131.943 65.500, 139.606 65.064 C 151.186 64.406, 153.527 63.999, 154.660 62.451 C 156.648 59.731, 156.302 57.632, 153.418 54.924 C 150.940 52.598, 150.326 52.508, 138.201 52.692 C 130.741 52.806, 125.060 52.465, 124.330 51.859 C 123.362 51.055, 123.517 49.763, 125.047 45.880 C 127.368 39.991, 127.560 34.244, 125.531 31.347 C 123.523 28.481, 120.451 27.845, 118.583 29.908 M 119.557 71.223 C 117.513 74.140, 117.612 78.957, 119.772 81.672 C 120.723 82.867, 123.420 84.349, 125.766 84.965 C 129.909 86.053, 141 93.446, 141 95.118 C 141 96.431, 146.637 99, 149.516 99 C 153.970 99, 156 97.286, 156 93.528 C 156 90.743, 155.048 89.194, 150.750 84.989 C 145.027 79.388, 140.764 76.821, 134.290 75.078 C 131.980 74.456, 128.768 72.834, 127.151 71.474 C 123.516 68.415, 121.568 68.351, 119.557 71.223 M 64.138 112.616 C 62.047 114.080, 61.887 114.761, 62.433 119.866 C 62.764 122.965, 62.634 128.875, 62.143 133 C 61.653 137.125, 61.539 140.821, 61.889 141.213 C 62.849 142.288, 73.493 143.344, 76.289 142.642 C 78.583 142.067, 78.685 141.761, 77.912 137.764 C 76.373 129.808, 76.840 120.233, 78.971 116.056 C 80.706 112.655, 80.757 112.121, 79.390 111.596 C 76.144 110.351, 66.446 110.999, 64.138 112.616 M 92.250 113.662 C 91.427 113.994, 91 116.423, 91 120.769 C 91 124.401, 90.268 130.290, 89.374 133.857 C 87.827 140.022, 87.837 140.408, 89.565 141.671 C 91.615 143.170, 98.772 143.430, 100.900 142.083 C 102.055 141.352, 102.101 140.176, 101.166 135.349 C 99.627 127.403, 99.470 118.859, 100.817 116.341 C 101.429 115.198, 101.645 113.979, 101.298 113.631 C 100.565 112.898, 94.088 112.921, 92.250 113.662 M 115.239 113.808 C 114.348 114.390, 113.907 118.580, 113.739 128.066 L 113.500 141.500 121 141.500 C 127.980 141.500, 128.470 141.361, 128.061 139.500 C 127.820 138.400, 127.762 133.900, 127.934 129.500 C 128.105 125.100, 128.302 119.700, 128.372 117.500 L 128.500 113.500 122.500 113.241 C 119.200 113.099, 115.932 113.354, 115.239 113.808" stroke="none" fill="black" fill-rule="evenodd"/>
</svg>