<svg xmlns="http://www.w3.org/2000/svg" width="256" height="256" viewBox="0 0 256 256" version="1.1">
	<path d="M 126.500 32.082 C 95.206 38.590, 92.500 39.580, 92.500 44.512 C 92.500 47.088, 93.002 47.558, 97 48.723 C 101.039 49.899, 106.011 49.811, 112.678 48.445 C 113.875 48.199, 115.563 48.706, 116.428 49.571 C 118.448 51.591, 118.458 55.887, 116.445 56.660 C 115.590 56.988, 108.502 57.311, 100.695 57.378 C 84.140 57.520, 80.690 58.569, 80.198 63.608 C 79.662 69.090, 82.700 70.107, 99.284 69.997 C 107.103 69.945, 114.256 69.925, 115.180 69.951 C 116.698 69.995, 116.861 72.060, 116.875 91.500 L 116.891 113 114.007 113 C 111.375 113, 111.066 112.624, 110.478 108.700 C 110.089 106.110, 110.395 102.234, 111.247 98.950 C 112.740 93.198, 112.223 89.033, 109.657 86.143 C 108.855 85.239, 107.501 82.810, 106.648 80.744 C 104.905 76.522, 101.371 74.624, 97.181 75.658 C 94.360 76.354, 91 79.507, 91 81.457 C 91 82.090, 89.425 84.134, 87.500 86 C 83.852 89.535, 83.263 91.754, 85.073 95.137 C 85.880 96.645, 87.059 97.101, 89.823 96.974 C 96.279 96.679, 97.002 96.928, 101.076 100.842 C 103.679 103.343, 105.266 105.874, 105.622 108.092 C 106.146 111.359, 106 111.552, 102.100 112.750 C 99.862 113.437, 97.106 114, 95.976 114 C 94.845 114, 92.138 114.909, 89.960 116.020 C 85.475 118.309, 84.893 120.689, 88.108 123.595 C 89.930 125.242, 91.816 125.500, 102.022 125.500 C 108.515 125.500, 114.182 125.853, 114.615 126.284 C 115.876 127.541, 116.789 138.279, 115.851 140.822 C 115.047 143.002, 114.650 143.100, 109.328 142.435 C 104.516 141.834, 89.144 141.501, 83.919 141.884 C 81.700 142.047, 79.645 146.305, 80.494 148.981 C 81.708 152.805, 88.583 154.997, 101.537 155.692 C 119.886 156.675, 149.935 153.197, 155.750 149.417 C 158.659 147.526, 158.673 143.585, 155.777 141.557 C 154.059 140.353, 150.771 140, 141.277 140 L 129 140 129 134.071 C 129 127.866, 130.739 124.579, 133.468 125.626 C 136.067 126.623, 145.973 123.893, 149.001 121.345 C 151.580 119.176, 151.830 118.543, 150.856 116.668 C 150.236 115.476, 148.859 113.667, 147.797 112.648 C 146.605 111.505, 146.122 110.164, 146.537 109.148 C 146.906 108.242, 147.499 105.308, 147.854 102.629 C 148.448 98.154, 148.784 97.666, 151.999 96.629 C 154.467 95.833, 156.087 94.376, 157.499 91.685 L 159.500 87.869 156.723 85.625 C 155.195 84.391, 152.793 81.158, 151.385 78.441 C 149.977 75.723, 148.035 72.810, 147.069 71.966 C 144.863 70.040, 145.984 68.887, 151.714 67.190 C 156.226 65.853, 159 62.887, 159 59.400 C 159 55.011, 156.892 54.519, 143.329 55.743 C 136.453 56.363, 130.141 56.607, 129.302 56.286 C 128.147 55.842, 127.909 54.715, 128.322 51.635 C 128.886 47.430, 130.838 45.250, 134.750 44.457 C 135.988 44.205, 138.094 43.774, 139.430 43.498 C 144.650 42.421, 147.544 36.363, 144.464 32.960 C 143.042 31.389, 141.481 31.025, 136.595 31.125 C 133.243 31.194, 128.700 31.625, 126.500 32.082 M 42.010 39 C 31.993 39.477, 31.465 39.614, 30.310 42.031 C 29.383 43.972, 29.329 50.036, 30.080 68.031 C 30.619 80.939, 31.275 98.250, 31.538 106.500 C 31.801 114.750, 32.512 122.463, 33.118 123.640 C 34.656 126.627, 38.065 127.935, 42.696 127.314 C 45.561 126.930, 47.093 127.235, 48.287 128.430 C 49.192 129.335, 51.185 130.020, 52.716 129.952 C 54.247 129.885, 58.875 129.716, 63 129.576 C 67.125 129.437, 70.990 129.250, 71.589 129.161 C 74.121 128.786, 77.337 116.999, 77.090 109 C 77.014 106.525, 76.846 97.525, 76.717 89 C 76.564 78.937, 76.048 72.737, 75.245 71.324 C 74.463 69.948, 73.976 64.617, 73.921 56.824 C 73.868 49.463, 73.331 43.292, 72.587 41.500 L 71.341 38.500 61.921 38.500 C 56.739 38.500, 47.779 38.725, 42.010 39 M 43 52 C 40.826 54.174, 40.368 58.951, 42.035 62.066 C 42.940 63.756, 44.195 64, 52 64 C 62.141 64, 63 63.383, 63 56.101 C 63 50.944, 61.308 50, 52.066 50 C 46.333 50, 44.623 50.377, 43 52 M 130.716 70.427 C 129.434 71.709, 129.164 75.312, 129.116 91.735 C 129.085 102.606, 129.383 112.006, 129.779 112.624 C 131.026 114.568, 134.673 112.386, 135.276 109.335 C 135.960 105.869, 135.517 96.531, 134.483 92.635 C 133.616 89.366, 135.623 76.908, 137.686 72.750 C 138.940 70.225, 138.892 70, 137.107 70 C 136.038 70, 134.510 69.749, 133.711 69.442 C 132.912 69.136, 131.564 69.579, 130.716 70.427 M 45.960 77.207 C 43.564 78.098, 42.524 82.071, 43.734 85.707 C 44.647 88.451, 44.814 88.504, 53.291 88.721 C 58.036 88.842, 62.103 88.617, 62.328 88.221 C 62.553 87.824, 63.025 85.903, 63.376 83.951 C 64.386 78.341, 62.663 76.907, 54.647 76.687 C 50.914 76.584, 47.005 76.818, 45.960 77.207 M 56 101.015 C 55.175 101.556, 52.805 101.911, 50.732 101.803 C 44.917 101.500, 43.602 103.460, 44.430 111.194 C 45.355 119.832, 46.014 120.754, 50.195 119.262 C 52.013 118.613, 55.420 117.976, 57.767 117.845 C 61.437 117.640, 62.312 117.136, 64.017 114.246 C 66.426 110.164, 66.474 108.826, 64.360 104.700 C 61.944 99.983, 59.329 98.831, 56 101.015" stroke="none" fill="black" fill-rule="evenodd"/>
</svg>