<svg xmlns="http://www.w3.org/2000/svg" width="256" height="256" viewBox="0 0 256 256" version="1.1">
	<path d="M 121.342 29.601 C 120.358 31.102, 119.535 34.589, 119.394 37.851 C 119.260 40.958, 119.116 43.849, 119.075 44.275 C 118.901 46.072, 113.914 46.636, 105.205 45.842 C 94.516 44.868, 90.516 46.095, 89.360 50.700 C 88.993 52.165, 88.969 63.544, 89.307 75.986 C 89.803 94.216, 89.637 99.666, 88.455 104.054 C 86.436 111.543, 83.826 126.463, 83.477 132.499 C 83.318 135.249, 82.887 140.717, 82.518 144.652 C 81.712 153.248, 83.471 158, 87.458 158 C 90.173 158, 90.367 157.568, 93.062 145.569 C 96.451 130.475, 96.842 128.502, 98.024 120.500 C 99.470 110.717, 101.982 101, 103.065 101 C 103.506 101, 104.010 99.811, 104.184 98.358 C 104.584 95.016, 107.735 93.737, 111.048 95.571 L 113.500 96.929 110.491 96.965 C 108.591 96.987, 107.020 97.738, 106.232 99 C 105.492 100.186, 105.394 101, 105.992 101 C 106.546 101, 107 101.943, 107 103.096 C 107 105.263, 109.651 109.654, 113.584 114 C 116.634 117.370, 120.092 126.786, 119.356 129.717 C 119.031 131.011, 117.489 132.730, 115.928 133.537 C 114.368 134.344, 110.842 137.253, 108.093 140.002 C 105.344 142.751, 102.640 145, 102.083 145 C 100.459 145, 98.832 148.894, 99.533 151.103 C 100.444 153.973, 103.544 154.807, 108.566 153.532 C 111.947 152.673, 114.438 150.834, 119.930 145.143 C 127.756 137.033, 128.449 136.888, 135 141.997 C 136.925 143.498, 140.058 145.524, 141.963 146.499 C 143.867 147.474, 146.270 149.344, 147.301 150.656 C 151.292 155.729, 159.040 157.663, 160.965 154.066 C 163.560 149.217, 160.228 143.845, 151.594 138.958 C 140.794 132.844, 138.089 128.375, 141.423 122.154 C 145.340 114.845, 150 102.431, 150 99.303 C 150 98.407, 151.398 95.497, 153.106 92.835 C 156.109 88.155, 156.164 87.874, 154.749 84.327 C 153.354 80.829, 153.418 80.408, 156.143 75.228 C 157.714 72.241, 159 68.454, 159 66.813 C 159 65.171, 159.774 60.924, 160.720 57.374 C 162.645 50.148, 162.154 48.402, 157.561 46.149 C 155.299 45.040, 153.057 45.013, 144.996 46.001 C 132.052 47.586, 131.546 47.292, 131.441 38.104 C 131.380 32.751, 130.919 30.568, 129.525 29.028 C 126.965 26.199, 123.407 26.449, 121.342 29.601 M 56 46.115 C 36.862 47.201, 33.225 47.775, 30.928 50.072 C 28.468 52.532, 28.488 54.488, 31 57 C 32.556 58.556, 34.333 59, 39 59 C 44.714 59, 45 59.118, 45 61.470 C 45 62.829, 43.919 66.317, 42.598 69.220 C 41.276 72.124, 39.022 77.401, 37.588 80.946 C 36.154 84.491, 34.138 88.316, 33.108 89.446 C 28.538 94.456, 25.145 105.534, 27.075 109.141 C 28.028 110.921, 28.777 111.111, 32.602 110.537 C 35.035 110.172, 37.905 110.152, 38.978 110.493 C 41.808 111.391, 42.606 117.028, 40.610 122.016 C 38.389 127.567, 38.538 128.308, 42.250 130.210 C 47.018 132.653, 53.080 133.307, 63.632 132.516 C 74.756 131.682, 77.042 130.353, 77.481 124.466 C 78.449 111.497, 79.202 83.941, 78.649 81.737 C 77.835 78.495, 76.705 78.140, 64.970 77.440 C 59.761 77.130, 55.078 76.459, 54.563 75.951 C 53.191 74.597, 56.546 64.774, 59.245 62.246 C 61.920 59.740, 66.169 58, 69.615 58 C 73.543 58, 77.602 55.374, 79.040 51.903 C 80.260 48.959, 80.185 48.568, 78.070 46.856 C 76.810 45.835, 74.591 45.066, 73.139 45.146 C 71.688 45.226, 63.975 45.662, 56 46.115 M 102.660 59.483 C 101.417 60.725, 101 62.974, 101 68.422 C 101 77.994, 103.289 84.577, 105.419 81.131 C 105.714 80.654, 107.758 79.975, 109.961 79.622 C 112.563 79.206, 114.456 78.197, 115.365 76.741 C 117.127 73.919, 118.400 60.366, 116.986 59.491 C 116.426 59.146, 113.348 58.629, 110.144 58.343 C 105.558 57.934, 103.966 58.177, 102.660 59.483 M 134.752 59.716 C 131.845 60.157, 131.743 60.379, 130.161 69.746 C 129.553 73.345, 129.624 75.437, 130.387 76.407 C 131.979 78.431, 143.309 79.556, 144.680 77.827 C 145.259 77.097, 145.984 72.989, 146.293 68.697 C 146.841 61.075, 146.796 60.873, 144.362 59.947 C 141.857 58.995, 139.832 58.946, 134.752 59.716 M 52.857 92.989 C 51.213 94.633, 50.100 96.353, 50.384 96.812 C 51.184 98.107, 53.244 110.204, 53.141 113 C 52.916 119.094, 53.676 120, 59.019 120 C 63.768 120, 64.004 119.872, 64.077 117.250 C 64.119 115.737, 64.347 113.600, 64.583 112.500 C 64.820 111.400, 65.123 106.835, 65.257 102.355 C 65.461 95.532, 65.191 93.869, 63.595 92.105 C 60.810 89.027, 56.461 89.385, 52.857 92.989 M 121.821 92.349 C 119.797 93.101, 117.402 94.455, 116.499 95.358 C 114.976 96.881, 114.990 97, 116.684 97 C 117.738 97, 119.054 98.225, 119.793 99.894 C 120.497 101.485, 122.148 103.947, 123.461 105.364 C 124.774 106.781, 126.423 109.528, 127.125 111.470 C 127.827 113.411, 128.810 115, 129.308 115 C 129.806 115, 129.960 114.337, 129.649 113.526 C 129.338 112.716, 129.685 111.703, 130.421 111.276 C 132.390 110.135, 138 100.901, 138 98.804 C 138 97.812, 138.450 97, 139 97 C 141.040 97, 139.905 95.002, 137.017 93.509 C 132.691 91.272, 126.079 90.767, 121.821 92.349" stroke="none" fill="black" fill-rule="evenodd"/>
</svg>