<svg xmlns="http://www.w3.org/2000/svg" width="256" height="256" viewBox="0 0 256 256" version="1.1">
	<path d="M 123.789 29.058 C 121.737 30.255, 120.013 35.965, 120.006 41.595 C 119.997 48.257, 117.789 49.509, 108.491 48.126 C 98.323 46.614, 97.321 46.679, 95 49 C 93.397 50.603, 92.999 52.338, 92.994 57.750 C 92.991 61.462, 92.538 67.200, 91.988 70.500 C 91.296 74.656, 91.341 80.192, 92.136 88.512 C 93.233 99.998, 93.190 100.707, 91.156 104.694 C 89.986 106.988, 88.595 109.132, 88.065 109.460 C 87.128 110.039, 90.494 116.861, 91.849 117.129 C 92.207 117.200, 97.978 117.341, 104.674 117.443 C 112.992 117.570, 117.346 118.042, 118.424 118.937 C 119.640 119.946, 120 122.253, 120 129.050 C 120 139.246, 121.633 152.427, 123.328 155.908 C 123.972 157.232, 125.315 158.807, 126.311 159.408 C 127.792 160.302, 128.553 160.004, 130.497 157.769 C 133.918 153.834, 134.447 147.933, 132.508 135.338 C 131.583 129.334, 130.978 123.107, 131.163 121.500 C 131.588 117.817, 133.536 117.231, 145.795 117.100 C 154.109 117.011, 155.336 116.755, 157.408 114.683 L 159.725 112.366 159.570 81.690 C 159.456 59.108, 159.094 50.694, 158.198 49.798 C 157.349 48.949, 153.378 48.654, 145.069 48.822 C 136.920 48.988, 132.932 48.700, 132.445 47.911 C 132.053 47.277, 131.681 43.177, 131.616 38.798 C 131.519 32.155, 131.179 30.603, 129.559 29.419 C 127.294 27.763, 126.135 27.691, 123.789 29.058 M 60 31.500 C 58.625 32.286, 57.806 32.945, 58.180 32.965 C 58.554 32.984, 58.446 34.445, 57.940 36.210 C 57.158 38.935, 57.424 40.004, 59.697 43.285 C 62.973 48.012, 62.003 49.010, 54.286 48.848 C 48.194 48.720, 38.765 52.072, 35 55.703 L 32.500 58.114 35.447 60.679 C 38.621 63.440, 37.264 63.395, 54.677 61.315 C 58.544 60.853, 58.971 61.044, 60.448 63.899 C 61.363 65.670, 61.786 68.005, 61.440 69.384 C 61.108 70.705, 54.405 78.349, 46.543 86.370 C 38.681 94.392, 31.422 102.653, 30.410 104.728 C 28.026 109.619, 27.139 123.840, 29.139 125.107 C 29.887 125.581, 31.049 125.976, 31.719 125.985 C 33.057 126.001, 38.003 118.601, 42.402 110 C 48.534 98.013, 50.829 95.687, 52.510 99.750 C 52.908 100.712, 53.156 111.850, 53.059 124.500 C 52.866 149.976, 53.697 156.506, 57.562 159.867 C 60.688 162.585, 62.165 162.558, 63.946 159.750 C 65.084 157.955, 65.385 152.171, 65.436 131.169 C 65.496 106.299, 65.608 104.760, 67.441 103.419 C 68.509 102.639, 69.694 102, 70.075 102 C 71.102 102, 78 109.843, 78 111.011 C 78 112.104, 81.995 110.188, 83.235 108.500 C 85.555 105.342, 81.264 88.255, 78.055 87.875 C 77.475 87.806, 76.438 87.666, 75.750 87.564 C 75.063 87.461, 74.035 87.717, 73.466 88.132 C 72.254 89.016, 68.933 88.687, 68.973 87.687 C 68.988 87.309, 69 86.605, 69 86.121 C 69 85.638, 70.367 84.676, 72.038 83.984 C 75.826 82.415, 77 80.282, 77 74.970 C 77 70.099, 74.332 65, 71.784 65 C 70.803 65, 70 64.516, 70 63.924 C 70 63.291, 71.749 62.939, 74.250 63.068 C 80.344 63.382, 84 61.404, 84 57.794 C 84 54.476, 80.334 47.126, 76.575 42.907 C 75.159 41.318, 73.986 39.226, 73.969 38.259 C 73.935 36.334, 66.155 29.979, 63.902 30.035 C 63.131 30.055, 61.375 30.714, 60 31.500 M 108.008 60.893 C 104.944 61.746, 103.034 65.302, 103.015 70.193 C 102.996 74.786, 105.756 77, 111.500 77 C 117.681 77, 120 74.863, 120 69.166 C 120 61.023, 116.419 58.552, 108.008 60.893 M 137.646 61.975 C 135.526 62.384, 133.395 63.345, 132.911 64.110 C 131.523 66.302, 131.854 70.711, 133.532 72.389 C 135.262 74.119, 140.549 75.342, 144.119 74.837 C 146.250 74.535, 146.533 73.925, 146.810 69.030 C 147.053 64.732, 146.745 63.287, 145.369 62.280 C 143.463 60.887, 143.309 60.881, 137.646 61.975 M 135.323 87.749 C 132.122 88.294, 131.300 89.820, 130.525 96.651 L 129.826 102.803 132.663 103.420 C 138.190 104.621, 146.179 104.325, 147.117 102.883 C 148.266 101.116, 147.145 90.858, 145.641 89.375 C 144.348 88.101, 138.589 87.194, 135.323 87.749 M 109.699 89.045 C 104.591 89.928, 103.747 91.005, 103.224 97.315 C 102.714 103.461, 102.888 103.617, 111.369 104.614 C 117.418 105.324, 118.999 104.150, 119.519 98.562 C 120.281 90.356, 117.532 87.691, 109.699 89.045" stroke="none" fill="black" fill-rule="evenodd"/>
</svg>