<svg xmlns="http://www.w3.org/2000/svg" width="256" height="256" viewBox="0 0 256 256" version="1.1">
	<path d="M 61.500 36.206 C 42.738 38.308, 38.617 39.906, 39.196 44.853 C 39.589 48.212, 43.092 49.962, 49.500 50.001 C 56.371 50.042, 57.536 50.991, 57.330 56.381 C 57.041 63.931, 55.937 65, 48.433 65 C 40.826 65, 35.826 66.809, 33.463 70.416 C 31.902 72.799, 31.895 73.191, 33.377 75.453 C 35.010 77.946, 37.036 78.577, 46.500 79.543 C 49.250 79.824, 52.063 80.117, 52.750 80.194 C 54.980 80.443, 53.670 85.429, 49.910 91 C 48.983 92.375, 47.539 95.807, 46.702 98.626 C 45.075 104.111, 42.357 108.845, 36.057 117.169 C 31.304 123.449, 29.955 129.188, 32.557 132.062 C 34.889 134.640, 38.190 134.513, 40.675 131.750 C 43.323 128.806, 48.922 120.022, 52.945 112.500 C 56.900 105.104, 58.082 103.814, 59.883 104.927 C 61.608 105.994, 61.927 110.047, 62.012 132 C 62.094 153.156, 62.555 156.662, 65.504 158.594 C 68.154 160.331, 72.308 159.161, 73.873 156.237 C 75.250 153.665, 75.661 132.531, 74.690 114.250 C 74.111 103.337, 74.193 99, 74.980 99 C 75.585 99, 77.844 99.900, 80 101 C 84.389 103.239, 89.982 103.618, 91.800 101.800 C 94.324 99.276, 91.864 89.027, 88.724 88.983 C 88.051 88.973, 86.440 87.848, 85.145 86.483 C 83.448 84.694, 81.736 84, 79.017 84 C 75.277 84, 72.292 81.955, 73.405 80.154 C 73.732 79.624, 77.680 79.451, 82.526 79.753 C 90.106 80.226, 91.232 80.073, 92.503 78.393 C 94.562 75.674, 94.323 71.724, 91.945 69.172 C 90.066 67.155, 89.082 66.989, 80.416 67.233 C 69.125 67.551, 69.037 67.475, 69.015 57.361 C 69.003 51.851, 69.428 49.692, 70.877 47.903 C 72.714 45.635, 72.899 45.613, 79.391 46.903 C 84.661 47.951, 86.333 47.968, 87.514 46.989 C 89.455 45.378, 89.416 40.039, 87.443 37.223 C 86.032 35.208, 85.119 35.014, 77.693 35.155 C 73.187 35.240, 65.900 35.713, 61.500 36.206 M 113.592 46.899 C 111.862 48.810, 107.846 58.555, 103.454 71.500 C 101.083 78.490, 99 91.773, 99 99.908 C 99 102.275, 98.282 106.976, 97.404 110.356 C 96.526 113.735, 95.439 118.525, 94.988 121 C 94.537 123.475, 93.413 127.525, 92.490 130 C 91.199 133.464, 90.969 136.109, 91.491 141.493 C 91.864 145.339, 92.645 148.780, 93.226 149.140 C 93.808 149.499, 96.256 148.744, 98.667 147.462 C 104.420 144.404, 110.722 143.275, 126.500 142.476 C 133.812 142.106, 141.250 141.173, 143.500 140.343 C 145.700 139.531, 148.224 138.636, 149.109 138.354 C 150.262 137.986, 151.623 139.443, 153.904 143.484 C 156.458 148.009, 157.526 149.065, 159.295 148.814 C 161.136 148.552, 161.553 147.758, 161.822 144 C 161.999 141.525, 161.475 136.575, 160.658 133 C 159.840 129.425, 158.898 124.931, 158.563 123.014 C 158.229 121.097, 156.690 117.947, 155.143 116.014 C 153.597 114.081, 151.337 109.216, 150.122 105.202 C 148.907 101.188, 147.258 97.652, 146.457 97.345 C 145.655 97.038, 145 96.175, 145 95.428 C 145 93.672, 141.575 91.842, 139.663 92.576 C 138.847 92.889, 137.925 94.164, 137.612 95.410 C 136.830 98.525, 139.453 113.830, 141.398 117.500 C 145.593 125.416, 141.512 128.188, 125.512 128.290 C 117.035 128.344, 115.246 128.641, 113.840 130.226 C 112.927 131.256, 110.919 132.189, 109.379 132.299 C 105.571 132.572, 105.340 130.671, 107.837 119.587 C 111.133 104.955, 112.820 95.030, 113.413 86.787 C 113.859 80.591, 114.798 77.246, 118.187 69.787 C 121.577 62.324, 122.411 59.351, 122.436 54.648 C 122.462 49.696, 122.106 48.505, 120.123 46.898 C 117.171 44.508, 115.755 44.508, 113.592 46.899" stroke="none" fill="black" fill-rule="evenodd"/>
</svg>