<svg xmlns="http://www.w3.org/2000/svg" width="256" height="256" viewBox="0 0 256 256" version="1.1">
	<path d="M 110.073 28.635 C 108.933 30.084, 108 32.694, 108 34.435 C 108 36.188, 106.780 39.481, 105.265 41.818 L 102.530 46.036 99.473 42.395 L 96.417 38.755 88.459 39.452 C 78.002 40.368, 61.126 40.459, 60.271 39.604 C 59.900 39.233, 59.704 37.328, 59.836 35.371 C 60.227 29.558, 59.308 28, 55.489 28 C 51.714 28, 49 30.830, 49 34.765 C 49 36.041, 47.270 39.429, 45.156 42.293 C 36.200 54.423, 33.028 70, 39.513 70 C 42.026 70, 47.364 64.231, 50.423 58.207 C 52.578 53.964, 55.694 52.852, 64.420 53.210 L 71.498 53.500 72.753 57.500 C 73.443 59.700, 74.983 63.638, 76.175 66.250 C 78.109 70.490, 78.689 71, 81.573 71 C 84.298 71, 84.976 70.507, 85.902 67.851 C 87.398 63.560, 87.283 61.362, 85.414 58.509 C 83.521 55.621, 84.257 54, 87.460 54 C 88.748 54, 92.200 52.889, 95.131 51.531 C 101.679 48.497, 102.879 49.264, 101.231 55.428 C 99.563 61.661, 101.166 66.234, 104.867 65.805 C 106.960 65.563, 108.128 64.270, 110.564 59.500 L 113.629 53.500 119.326 53.200 C 125.749 52.861, 125.218 52.208, 127.050 62.713 C 128.006 68.198, 128.029 70.261, 127.146 71.325 C 126.018 72.684, 121.181 73.501, 106.299 74.848 C 102.339 75.207, 98.537 76.063, 97.849 76.750 C 97.162 77.438, 95.002 77.991, 93.050 77.980 C 91.097 77.969, 84.235 78.979, 77.799 80.225 C 67.697 82.180, 65.955 82.804, 65.049 84.792 C 63.446 88.309, 63.769 89.802, 66.519 91.604 C 68.559 92.941, 70.507 93.135, 76.769 92.622 C 81.021 92.274, 85.850 91.879, 87.500 91.745 C 90.400 91.508, 90.510 91.655, 90.800 96.138 C 91.264 103.307, 89.233 104.397, 72.497 105.964 C 65 106.666, 56.656 106.947, 53.955 106.588 C 50.124 106.080, 48.214 106.365, 45.272 107.885 C 37.234 112.037, 37.776 117.557, 46.461 119.989 C 50.343 121.076, 52.693 121.030, 61.287 119.698 C 85.226 115.989, 86.205 116.151, 79.540 122.721 C 77.043 125.183, 75 127.603, 75 128.099 C 75 128.594, 74.469 129, 73.820 129 C 73.171 129, 70.808 130.912, 68.570 133.250 C 62.435 139.657, 54.380 146.217, 49.385 148.877 C 43.863 151.817, 41.295 156.158, 42.941 159.769 C 43.982 162.055, 44.457 162.209, 48.668 161.632 C 51.193 161.286, 54.889 160.005, 56.880 158.785 C 66.129 153.119, 83.057 137.727, 86.952 131.441 C 87.751 130.152, 89.864 128.311, 91.648 127.351 C 95.667 125.186, 97.362 125.945, 105.696 133.639 C 108.888 136.587, 111.771 138.999, 112.102 139 C 112.434 139, 114.847 141.726, 117.465 145.058 C 122.566 151.551, 126.364 154.330, 134.883 157.805 C 141.276 160.412, 147.624 160.650, 150.134 158.379 C 151.749 156.917, 151.783 156.482, 150.480 153.962 C 149.609 152.276, 147.908 150.919, 146.198 150.544 C 141.190 149.443, 130.897 141.998, 129.386 138.383 C 128.626 136.562, 127.125 134.602, 126.052 134.028 C 124.979 133.454, 123.516 131.796, 122.801 130.343 C 122.085 128.891, 120.002 126.907, 118.171 125.934 C 113.419 123.411, 111.051 121.031, 111.674 119.406 C 112.105 118.283, 115.462 117.985, 128.357 117.923 C 137.613 117.879, 146.161 117.345, 148.394 116.671 C 153.303 115.189, 156.507 111.156, 155.611 107.587 L 154.962 105 137.731 104.780 C 128.254 104.659, 116.675 104.546, 112 104.530 L 103.500 104.500 103.514 98.144 C 103.527 92.296, 103.767 91.597, 106.514 89.398 C 108.156 88.084, 110.850 86.822, 112.500 86.595 C 126.883 84.616, 129.302 84.007, 132.510 81.560 C 134.539 80.013, 135.702 78.388, 135.381 77.550 C 135.083 76.775, 135.778 72.723, 136.923 68.547 C 138.811 61.668, 138.870 60.625, 137.557 57.483 C 136.203 54.242, 136.240 53.942, 138.109 52.941 C 139.312 52.298, 142.237 52.136, 145.434 52.535 C 153.108 53.494, 156.954 51.242, 156.985 45.773 C 156.995 43.899, 156.151 42.491, 154.287 41.273 C 151.981 39.766, 149.217 39.500, 135.875 39.500 C 127.241 39.500, 119.818 39.143, 119.379 38.707 C 118.941 38.271, 118.713 36.098, 118.873 33.877 C 119.391 26.700, 114.082 23.537, 110.073 28.635" stroke="none" fill="black" fill-rule="evenodd"/>
</svg>