<svg xmlns="http://www.w3.org/2000/svg" width="256" height="256" viewBox="0 0 256 256" version="1.1">
	<path d="M 113 25.699 C 110.556 26.582, 108.046 30.310, 108.022 33.093 C 108.010 34.520, 107.178 38.120, 106.174 41.093 C 105.169 44.067, 103.776 49.776, 103.078 53.779 C 101.958 60.200, 101.999 61.349, 103.427 63.529 C 106.208 67.773, 110.751 66.003, 112.486 60 C 114.190 54.103, 115.658 52.999, 121.773 53.015 C 124.923 53.024, 128.004 53.361, 128.621 53.765 C 130.714 55.137, 133.329 81.277, 131.550 83.052 C 131.027 83.573, 129.002 84.014, 127.050 84.032 C 125.097 84.049, 118.875 84.682, 113.223 85.439 C 105.112 86.524, 100.836 86.580, 92.939 85.703 L 82.933 84.593 80.415 87.308 C 77.660 90.279, 77.704 90.456, 82.738 96.674 C 86.045 100.760, 86.185 100.821, 89.309 99.542 C 91.381 98.692, 99.093 98.077, 111.305 97.785 C 129.398 97.353, 130.150 97.413, 131.193 99.360 C 132.627 102.040, 131.439 125.014, 129.644 129.310 C 128.194 132.780, 128 133.459, 128 135.063 C 128 135.647, 127.213 136.028, 126.250 135.909 C 125.287 135.790, 123.825 135.951, 123 136.267 C 122.175 136.583, 120.150 137.252, 118.500 137.754 C 113.559 139.256, 114.219 141.564, 121.738 149.083 C 127.218 154.563, 129.278 156, 131.653 156 C 135.534 156, 138.636 152.656, 139.538 147.500 C 139.922 145.300, 140.922 141.025, 141.758 138 C 142.691 134.628, 143.515 125.728, 143.890 115 L 144.500 97.500 151.439 96.734 C 159.007 95.898, 162 94.088, 162 90.345 C 162 86.102, 158.695 84, 152.023 84 C 146.926 84, 145.830 83.669, 144.578 81.750 C 141.625 77.226, 140.266 57.334, 142.740 54.860 C 143.242 54.358, 146.094 53.697, 149.077 53.391 C 159.013 52.373, 162.519 49.707, 160.032 45.061 C 158.148 41.539, 155.535 41.023, 139.063 40.917 C 120.725 40.800, 120 40.522, 120 33.603 C 120 30.449, 119.401 28.786, 117.686 27.174 C 116.413 25.978, 115.175 25.036, 114.936 25.079 C 114.696 25.122, 113.825 25.402, 113 25.699 M 52.974 29.873 C 52.193 30.709, 50.866 32.609, 50.027 34.095 C 49.187 35.581, 47.185 38.755, 45.577 41.149 C 37.991 52.444, 34.899 62.318, 36.417 70.409 C 36.888 72.920, 37.621 74, 38.857 74 C 41.320 74, 44.849 70.471, 45.634 67.222 C 45.996 65.725, 47.030 63.375, 47.932 62 C 48.834 60.625, 50.216 58.222, 51.004 56.659 C 52.598 53.496, 58.587 50, 62.413 50 C 63.784 50, 66.086 50.538, 67.529 51.195 C 70.066 52.351, 70.128 52.586, 69.449 58.439 C 68.942 62.812, 67.204 67.612, 63.176 75.767 C 57.339 87.584, 56.560 88.640, 50.088 93.500 C 47.891 95.150, 46.072 97.024, 46.046 97.665 C 46.021 98.306, 43.052 101.419, 39.450 104.582 C 34.168 109.219, 32.957 110.826, 33.200 112.878 C 33.441 114.927, 34.340 115.666, 37.808 116.665 C 42.992 118.159, 45.650 117.347, 51.636 112.442 C 53.946 110.549, 56.044 109, 56.297 109 C 57.950 109, 58.933 117.177, 59.470 135.397 C 59.809 146.890, 60.533 157.127, 61.078 158.147 C 62.462 160.733, 66.636 160.506, 68.370 157.750 C 70.296 154.687, 73.228 137.795, 72.533 133.763 C 72.223 131.968, 71.781 124.363, 71.551 116.863 C 71.321 109.362, 70.829 101.606, 70.458 99.627 C 69.962 96.982, 70.309 95.020, 71.770 92.218 C 72.862 90.121, 74.084 85.145, 74.484 81.158 C 75.087 75.151, 75.795 73.106, 78.618 69.205 C 80.491 66.617, 82.902 62.587, 83.976 60.250 C 85.440 57.063, 86.501 55.999, 88.214 55.995 C 93.784 55.983, 100.031 46.662, 97.635 41.937 C 96.474 39.646, 95.955 39.514, 88.950 39.741 C 84.853 39.873, 77.100 39.484, 71.723 38.875 C 63.698 37.967, 61.758 37.416, 60.892 35.799 C 60.312 34.715, 60.084 33.583, 60.384 33.283 C 60.684 32.983, 60.509 31.951, 59.995 30.991 C 58.731 28.628, 54.731 27.992, 52.974 29.873 M 97.380 116.065 C 95.329 118.115, 95.328 118.156, 97.225 121.991 C 99.152 125.885, 103.579 128.483, 106.427 127.390 C 107.180 127.101, 107.992 125.207, 108.230 123.182 C 108.592 120.100, 108.185 119.052, 105.726 116.750 C 102.216 113.464, 100.150 113.294, 97.380 116.065 M 125.813 137.683 C 126.534 137.972, 127.397 137.936, 127.729 137.604 C 128.061 137.272, 127.471 137.036, 126.417 137.079 C 125.252 137.127, 125.015 137.364, 125.813 137.683" stroke="none" fill="black" fill-rule="evenodd"/>
</svg>