<svg xmlns="http://www.w3.org/2000/svg" width="256" height="256" viewBox="0 0 256 256" version="1.1">
	<path d="M 109.414 28.490 C 108.517 29.860, 107.571 32.672, 107.313 34.740 C 107.055 36.808, 105.954 40.988, 104.868 44.029 C 102.362 51.044, 102.567 61.706, 105.239 63.384 C 107.809 64.997, 111.538 62.340, 114.248 56.966 C 115.965 53.562, 117.142 52.426, 119.201 52.188 C 123.577 51.683, 126 53.576, 126 57.500 C 126 59.913, 126.923 61.982, 129.113 64.476 C 134.257 70.334, 133.435 70.554, 105.470 70.799 C 89.273 70.941, 80.107 71.408, 78.699 72.161 C 77.521 72.791, 72.618 73.350, 67.801 73.403 C 59.646 73.493, 58.856 73.689, 56.297 76.247 L 53.551 78.995 55.583 81.027 C 57.989 83.434, 67.358 85.195, 70.797 83.887 C 73.939 82.692, 87.235 82.759, 90.461 83.985 C 91.885 84.527, 93.338 85.717, 93.688 86.630 C 94.738 89.365, 91.368 90.859, 84.096 90.882 C 80.404 90.894, 76.143 91.375, 74.627 91.952 C 73.111 92.528, 70.691 93, 69.251 93 C 67.810 93, 64.689 93.940, 62.316 95.089 C 59.080 96.655, 58 97.755, 58 99.484 C 58 100.752, 57.076 104.781, 55.947 108.436 C 54.757 112.288, 54.021 117.031, 54.197 119.714 C 54.467 123.846, 54.819 124.449, 57.466 125.327 C 59.500 126.002, 62.244 125.937, 66.198 125.120 C 71.106 124.106, 72.416 124.164, 75.014 125.507 C 77.912 127.006, 78.284 129, 75.664 129 C 74.994 129, 72.051 130.800, 69.123 133 C 66.195 135.200, 63.255 137, 62.590 137 C 60.855 137, 52.218 147.285, 51.478 150.231 C 50.640 153.569, 53.402 156.367, 56.713 155.536 C 58.673 155.044, 68.569 149.395, 77 143.955 C 77.825 143.423, 79.954 142.236, 81.731 141.318 C 85.139 139.556, 87.359 134.923, 87.215 129.872 C 87.143 127.318, 89.504 125.171, 90.877 126.544 C 91.202 126.869, 91.632 132.167, 91.832 138.317 C 92.124 147.272, 92.591 150.148, 94.181 152.752 C 96.842 157.112, 100.712 158.074, 103.205 154.995 C 104.839 152.977, 105.056 151.005, 104.938 139.243 C 104.864 131.847, 105.185 125.437, 105.652 124.997 C 106.532 124.167, 111.484 123.547, 126.044 122.445 C 137.044 121.612, 137.929 122.402, 134.436 129.941 L 131.961 135.284 125.230 134.666 C 114.432 133.674, 110.552 137.365, 114.457 144.917 C 116.602 149.066, 120.111 150.608, 129.212 151.403 C 136.151 152.009, 137.128 151.872, 138.962 150.038 C 140.083 148.917, 141.056 147.550, 141.125 147 C 141.307 145.540, 141.547 144.789, 142.745 141.919 C 145.310 135.774, 149.666 112.887, 148.600 111.161 C 148.288 110.656, 146.433 109.484, 144.478 108.556 C 141.236 107.018, 140.289 106.999, 133.711 108.338 C 129.745 109.145, 121.493 109.870, 115.374 109.948 C 103.044 110.106, 101.423 109.274, 105.060 104.651 C 106.970 102.223, 107.283 102.175, 121.120 102.194 C 140.394 102.220, 139.674 103.092, 140.322 78.957 C 140.387 76.540, 139.555 74.284, 137.708 71.862 C 134.469 67.615, 134.457 67.499, 137 64.770 C 138.362 63.307, 139 61.241, 139 58.287 C 139 54.480, 139.336 53.821, 141.750 52.890 C 143.262 52.307, 146.249 52.059, 148.387 52.338 C 155.431 53.259, 158.860 50.381, 156.700 45.360 C 155.233 41.952, 152.011 41.138, 137.042 40.397 C 129.111 40.005, 122.283 39.196, 121.392 38.545 C 120.474 37.874, 119.724 35.668, 119.602 33.283 C 119.487 31.025, 118.799 28.463, 118.074 27.589 C 116.005 25.096, 111.319 25.584, 109.414 28.490 M 53.893 28.359 C 52.419 29.090, 50.915 31.264, 49.975 34.023 C 49.137 36.485, 46.983 41.425, 45.189 45 C 41.620 52.112, 38.575 62.450, 39.409 64.624 C 40.830 68.327, 49.113 64.659, 51.968 59.064 C 54.592 53.920, 59.180 50.785, 64.888 50.237 C 71.158 49.634, 73.792 51.819, 74.851 58.500 C 75.791 64.435, 77.813 68, 80.241 68 C 81.208 68, 82 68.532, 82 69.182 C 82 69.832, 83.575 68.594, 85.499 66.432 C 89.315 62.145, 89.504 61.455, 87.967 57.414 C 87.101 55.135, 87.289 54.321, 89.142 52.349 C 90.356 51.057, 92.138 50, 93.102 50 C 95.550 50, 99 45.284, 99 41.937 C 99 36.141, 94.084 34.631, 84.591 37.511 C 78.290 39.422, 70.231 39.412, 65.622 37.487 C 62.655 36.247, 62 35.455, 62 33.109 C 62 28.713, 57.958 26.344, 53.893 28.359 M 106.250 83.110 C 105.563 83.820, 105 85.224, 105 86.231 C 105 88.626, 105.531 88.747, 118.748 89.349 C 128.044 89.772, 130.265 89.592, 131.543 88.314 C 134.224 85.633, 132.574 84.520, 124.921 83.850 C 120.839 83.492, 115.250 82.890, 112.500 82.510 C 108.957 82.022, 107.136 82.197, 106.250 83.110 M 86.778 103.556 C 86.472 103.861, 82.832 104.111, 78.687 104.111 C 70.288 104.111, 68.343 105.247, 69.417 109.526 L 70.058 112.078 80.279 111.671 C 89.905 111.288, 90.583 111.120, 91.917 108.789 C 93.731 105.621, 92.726 103, 89.698 103 C 88.397 103, 87.083 103.250, 86.778 103.556" stroke="none" fill="black" fill-rule="evenodd"/>
</svg>