<svg xmlns="http://www.w3.org/2000/svg" width="256" height="256" viewBox="0 0 256 256" version="1.1">
	<path d="M 125.400 24.761 C 123.473 26.056, 122 29.760, 122 33.312 C 122 38.325, 120.177 39.307, 111.229 39.114 C 106.140 39.004, 101.112 39.616, 96.509 40.906 C 90.112 42.699, 89.245 42.736, 86.305 41.340 C 84.538 40.502, 82.566 39.182, 81.924 38.408 C 79.331 35.283, 76.886 37.847, 75.484 45.161 C 74.966 47.860, 73.996 48.911, 70.422 50.646 L 66 52.791 66 47.330 C 66 44.326, 66.518 40.900, 67.152 39.716 C 69.137 36.007, 68.670 32.668, 65.761 29.750 C 64.252 28.238, 62.051 27, 60.869 27 C 56.987 27, 53.934 32.657, 53.897 39.920 C 53.870 45.359, 52.277 50, 50.438 50 C 48.446 50, 47.375 48.045, 47.125 43.952 C 46.961 41.260, 42.294 37, 39.509 37 C 36.444 37, 34 40.057, 34 43.891 C 34 47.805, 36.784 56.898, 38.649 59.079 C 41.288 62.163, 39.554 66, 35.523 66 C 32.698 66, 28.997 68.734, 29.015 70.807 C 29.023 71.738, 30.486 74.205, 32.265 76.289 C 35.309 79.854, 35.914 80.111, 42.500 80.626 C 46.350 80.926, 49.819 81.475, 50.209 81.845 C 50.599 82.215, 51.049 85.664, 51.209 89.509 L 51.500 96.500 47 96.599 C 40.234 96.748, 40.212 96.759, 39.447 100.250 C 39.056 102.038, 37.220 105.871, 35.368 108.769 C 33.516 111.668, 32 115.329, 32 116.905 C 32 118.482, 31.328 121.060, 30.506 122.636 C 28.382 126.708, 28.631 128.565, 31.616 130.913 C 34.213 132.955, 34.253 132.956, 36.955 131.032 C 40.842 128.264, 41.367 127.431, 44.978 118.290 C 46.762 113.774, 48.799 109.290, 49.505 108.325 C 50.655 106.751, 50.901 106.979, 51.888 110.535 C 52.494 112.716, 52.991 119.413, 52.994 125.418 C 53.002 140.896, 55.485 155.285, 58.833 159.250 C 60.936 161.741, 63.682 161.415, 65.630 158.442 C 67.097 156.202, 67.215 154.054, 66.576 141.192 C 66.174 133.111, 65.666 124.250, 65.447 121.500 C 65.228 118.750, 64.892 113.013, 64.700 108.750 C 64.392 101.893, 64.555 101, 66.109 101 C 67.075 101, 68.151 101.900, 68.500 103 C 68.849 104.100, 69.892 105.003, 70.817 105.007 C 71.743 105.010, 73.850 105.907, 75.500 107 C 79.297 109.514, 81.224 109.515, 83.497 107.003 C 85.453 104.842, 85.784 99.384, 84.063 97.663 C 83.478 97.078, 83 96.038, 83 95.352 C 83 92.626, 78.324 89, 74.810 89 C 70.843 89, 66.355 85.124, 67.342 82.551 C 68.043 80.726, 68.547 80.698, 76.789 82.036 C 80.566 82.649, 83.719 82.697, 84.684 82.157 C 85.811 81.527, 87.306 81.947, 89.687 83.562 C 93.946 86.453, 98.634 87.004, 123 87.481 C 133.725 87.690, 143.948 88.171, 145.717 88.549 C 151.208 89.723, 157.819 88.206, 159.695 85.343 C 161.220 83.015, 161.224 82.605, 159.745 80.158 C 157.683 76.745, 152.537 75.179, 143 75.062 C 134.842 74.961, 132.372 74.078, 133.323 71.601 C 134.008 69.816, 134.849 69.682, 143.673 69.960 C 148.750 70.120, 150.214 69.786, 151.923 68.077 C 154.396 65.604, 154.590 62.733, 152.430 60.573 C 150.615 58.758, 148.898 58.340, 140.044 57.558 C 132.546 56.896, 131.324 56.088, 133.168 53.016 C 134.444 50.890, 134.907 50.824, 144.232 51.443 C 157.120 52.299, 160.756 50.297, 157.557 44.110 C 155.750 40.616, 147.628 38.528, 139.697 39.519 C 133.227 40.327, 131.427 38.868, 132.412 33.615 C 133.032 30.312, 131.496 25, 129.921 25 C 129.505 25, 128.564 24.780, 127.832 24.511 C 127.099 24.241, 126.005 24.354, 125.400 24.761 M 88.182 50.750 C 87.060 51.712, 85.406 54.739, 84.506 57.475 C 83.607 60.212, 82.476 62.927, 81.993 63.509 C 80.587 65.203, 85.946 76.143, 87.902 75.572 C 92.904 74.114, 97.735 73.942, 105.866 74.930 C 113.443 75.852, 115.564 75.791, 118.487 74.570 C 122.464 72.908, 122.976 70.797, 119.920 68.657 C 117.798 67.171, 113.031 67.379, 109.816 69.099 C 105.352 71.487, 100 68.071, 100 62.834 C 100 58.006, 104.824 56.033, 113.336 57.382 C 117.409 58.027, 118.389 57.861, 119.554 56.324 C 123.121 51.618, 119.908 49.808, 109.900 50.888 C 104.735 51.446, 100.839 51.292, 97 50.379 C 90.027 48.721, 90.573 48.698, 88.182 50.750 M 47.250 59.963 C 46.013 61.533, 45 63.255, 45 63.792 C 45 65.164, 49.489 65.866, 51.405 64.793 C 53.283 63.742, 53.512 59.912, 51.800 58.200 C 50.163 56.563, 49.831 56.691, 47.250 59.963 M 65.923 60.250 C 65.881 61.487, 65.705 63.227, 65.532 64.116 C 64.862 67.548, 66.415 68.077, 71.794 66.249 L 76.965 64.491 73.932 61.246 C 70.255 57.311, 66.041 56.787, 65.923 60.250 M 101.352 89.932 C 100.171 90.442, 98.865 91.409, 98.450 92.081 C 98.035 92.752, 97.550 101.671, 97.373 111.901 C 96.735 148.734, 96.911 152, 99.545 152 C 102.572 152, 107 145.587, 107 141.205 C 107 139.652, 107.631 137.519, 108.402 136.464 C 109.726 134.654, 110.133 134.627, 115.652 135.984 C 118.869 136.774, 126.203 137.519, 131.951 137.638 C 141.381 137.834, 142.475 138.050, 143.142 139.854 C 144.031 142.257, 142.701 143.512, 138.261 144.461 C 132.580 145.676, 132.958 147.404, 140.733 155.750 C 143.691 158.925, 145.451 160, 147.691 160 C 152.353 160, 153.799 157.469, 155.142 146.958 C 156.589 135.639, 156.962 98.406, 155.661 95.318 C 154.225 91.911, 150.754 91.206, 132.301 90.571 C 122.842 90.246, 112.492 89.761, 109.301 89.492 C 106.111 89.224, 102.534 89.422, 101.352 89.932 M 110 102.845 C 110 103.480, 110.638 104, 111.417 104 C 112.196 104, 112.983 104.398, 113.167 104.884 C 113.626 106.102, 142.685 107.318, 143.408 106.149 C 144.843 103.827, 140.458 102.879, 125.592 102.299 C 114.118 101.851, 110 101.995, 110 102.845 M 110.750 117.567 C 110.338 117.988, 110 119.551, 110 121.038 C 110 123.694, 110.139 123.754, 117.750 124.335 C 122.013 124.661, 127.975 125.455, 131 126.101 C 134.025 126.747, 138.300 127.326, 140.500 127.388 C 144.181 127.491, 144.526 127.274, 144.825 124.665 C 145.307 120.450, 142.895 119.345, 131.568 118.589 C 126.031 118.219, 119.250 117.665, 116.500 117.358 C 113.750 117.051, 111.162 117.145, 110.750 117.567" stroke="none" fill="black" fill-rule="evenodd"/>
</svg>