<svg xmlns="http://www.w3.org/2000/svg" width="256" height="256" viewBox="0 0 256 256" version="1.1">
	<path d="M 54.158 30.692 C 52.320 31.598, 49.170 34.385, 47.158 36.887 C 45.146 39.388, 41.099 43.900, 38.164 46.912 C 33.589 51.608, 32.909 52.796, 33.398 55.241 C 34.134 58.922, 38.163 64.172, 42.536 67.150 C 47.109 70.265, 46.945 72.747, 41.882 77.023 C 36.022 81.970, 33.413 84.807, 29.487 90.500 C 23.638 98.979, 26.079 101.713, 40.484 102.820 C 49.052 103.478, 49.369 103.591, 50.271 106.304 C 51.207 109.120, 50.653 114.427, 49.181 116.742 C 48.575 117.696, 47.486 117.522, 44.484 115.992 C 39.511 113.456, 35.541 113.459, 33 116 C 31.900 117.100, 30.989 118.337, 30.975 118.750 C 30.961 119.162, 30.695 122.650, 30.382 126.500 C 29.255 140.385, 30.108 144, 34.512 144 C 37.774 144, 40.179 140.146, 41.086 133.465 C 41.741 128.640, 46.064 121, 48.139 121 C 49.321 121, 50.128 128.128, 50.482 141.685 C 50.771 152.745, 51.145 155.503, 52.572 157.079 C 54.628 159.352, 57.859 159.555, 60.559 157.580 C 62.397 156.236, 62.487 154.930, 62.248 132.981 C 62.109 120.233, 61.751 109.406, 61.452 108.922 C 60.316 107.084, 63.188 104.026, 67.021 102.994 C 70.693 102.006, 71.284 102.141, 74.504 104.710 C 76.427 106.245, 78 107.838, 78 108.250 C 78 108.662, 80.651 109, 83.892 109 C 89.388 109, 89.827 109.173, 90.430 111.576 C 90.854 113.266, 90.203 116.335, 88.538 120.497 C 87.142 123.986, 86 127.287, 86 127.832 C 86 128.377, 85.251 128.713, 84.336 128.579 C 83.330 128.431, 82.171 126.638, 81.405 124.044 C 78.796 115.207, 71.009 111.005, 67.413 116.493 C 65.320 119.687, 66.072 122.725, 70.738 129.926 C 75.472 137.231, 77.996 139.999, 79.924 140.003 C 80.791 140.004, 82.625 142.142, 84 144.753 C 85.933 148.423, 87.050 149.500, 88.925 149.500 C 91.083 149.500, 91.738 148.431, 94.876 139.785 C 96.816 134.441, 98.561 130.228, 98.754 130.421 C 98.947 130.614, 99.557 135.210, 100.109 140.636 C 101.203 151.389, 102.777 155, 106.368 155 C 110.518 155, 111.727 152.282, 112.328 141.607 C 112.635 136.167, 113.361 131.239, 113.943 130.657 C 114.686 129.914, 115.023 130.328, 115.077 132.050 C 115.119 133.397, 115.420 135.400, 115.747 136.500 C 116.074 137.600, 116.262 141.480, 116.165 145.123 C 115.960 152.805, 117.170 154.561, 121.941 153.513 C 125.630 152.703, 127.092 148.357, 126.482 140.013 C 126.202 136.187, 126.548 133.813, 127.625 132.169 L 129.170 129.811 131.614 132.108 C 133.095 133.498, 133.816 135.014, 133.443 135.952 C 133.105 136.803, 132.659 138.333, 132.452 139.352 C 132.245 140.371, 131.551 141.836, 130.910 142.609 C 130.020 143.681, 130.040 145.071, 130.994 148.478 C 132.410 153.536, 134.119 154.494, 139.963 153.506 C 142.760 153.034, 144.545 153.311, 146.357 154.498 C 149.721 156.702, 153.895 156.061, 156.114 153 C 157.581 150.977, 158.059 147.641, 158.619 135.500 C 160.115 103.082, 159.506 98.417, 153.394 95.517 C 150.403 94.097, 146.519 93.874, 127.191 94.008 C 114.711 94.095, 103.938 94.128, 103.250 94.083 C 102.563 94.037, 102 92.902, 102 91.559 C 102 90.216, 102.563 88.755, 103.250 88.311 C 103.938 87.866, 114.644 87.661, 127.042 87.855 C 145.125 88.137, 149.792 87.938, 150.636 86.853 C 152.639 84.275, 155 73.338, 155 66.635 C 155 59.726, 153.304 54.714, 150.617 53.683 C 149.816 53.376, 139.337 53.025, 127.330 52.903 C 115.324 52.781, 104.938 52.480, 104.250 52.234 C 102.455 51.591, 102.710 49.572, 104.829 47.655 C 106.086 46.517, 108.507 45.990, 112.579 45.969 C 121.701 45.922, 132.098 44.313, 139.591 41.791 C 145.324 39.861, 146.509 39.067, 147.111 36.754 C 147.691 34.522, 147.348 33.632, 145.278 32.004 C 142.086 29.493, 140.068 29.502, 125.925 32.092 C 119.641 33.243, 110.011 34.553, 104.525 35.003 C 95.487 35.744, 94.337 36.069, 92.275 38.466 C 90.366 40.686, 89.981 42.348, 89.879 48.806 C 89.812 53.038, 89.634 60.550, 89.482 65.500 C 89.330 70.450, 89.805 77.200, 90.539 80.500 C 92.231 88.116, 92.293 96.844, 90.677 99.754 C 89.480 101.909, 89.257 101.697, 85.614 94.952 C 80.166 84.865, 76.357 80.990, 71.718 80.816 C 67.031 80.640, 66.500 81.201, 66.500 86.336 L 66.500 90.500 57.636 90.515 C 49.349 90.530, 48.716 90.384, 47.914 88.274 C 46.587 84.783, 47.852 83.032, 52.621 81.756 C 55.029 81.112, 57 80.018, 57 79.324 C 57 78.631, 59.468 76.240, 62.485 74.011 C 69.158 69.081, 71.208 65.456, 70.803 59.300 C 70.334 52.185, 67.959 51.408, 63.014 56.750 C 59.846 60.172, 58.407 61, 55.622 61 C 46.383 61, 46.554 57.004, 56.277 45.714 C 62.459 38.536, 64.551 33.303, 62.260 30.750 C 60.319 28.587, 58.458 28.574, 54.158 30.692 M 103.519 65.249 C 101.755 66.237, 101.403 73.513, 103.069 74.543 C 103.657 74.906, 112.490 75.241, 122.697 75.287 C 139.748 75.363, 141.368 75.217, 142.628 73.494 C 144.340 71.153, 144.400 67.568, 142.750 66.236 C 141.193 64.978, 105.602 64.083, 103.519 65.249 M 118.030 107.810 C 111.966 108.153, 110.063 109.192, 110.278 112.041 C 110.470 114.596, 112.287 115.145, 116.123 113.807 C 118.502 112.978, 120.511 113.009, 124.113 113.932 C 126.759 114.610, 129.351 114.901, 129.872 114.579 C 132.300 113.078, 138.884 113.764, 141.453 115.785 C 142.924 116.942, 144.765 117.644, 145.544 117.345 C 147.350 116.652, 149.292 109.892, 148.043 108.643 C 147.133 107.733, 128.514 107.216, 118.030 107.810 M 140.253 131.250 C 138.483 132.488, 137.027 134.358, 137.017 135.406 C 136.993 138.103, 141.745 144, 143.944 144 C 146.224 144, 147 142.095, 147 136.500 C 147 128.524, 145.653 127.476, 140.253 131.250" stroke="none" fill="black" fill-rule="evenodd"/>
</svg>