<svg xmlns="http://www.w3.org/2000/svg" width="256" height="256" viewBox="0 0 256 256" version="1.1">
	<path d="M 60.500 29.038 C 56.400 30.868, 53.041 34.713, 49.041 42.157 C 46.778 46.369, 44.249 50.074, 43.421 50.392 C 41.634 51.078, 38.053 58.573, 38.022 61.693 C 37.995 64.387, 41.511 67, 45.163 67 C 48.798 67, 49.262 68.058, 48.456 74.509 C 47.787 79.864, 47.653 80.052, 42.354 83.084 C 37.899 85.632, 36.409 87.228, 33.968 92.063 C 30.217 99.495, 30.142 103.495, 33.687 107.195 C 36.722 110.363, 41.381 110.936, 44.559 108.532 C 49.609 104.712, 54.137 108.898, 54.015 117.275 C 53.861 127.934, 54.842 154.926, 55.454 156.855 C 56.944 161.550, 63.869 161.778, 65.954 157.201 C 66.709 155.546, 67.077 149.996, 66.961 142.045 C 66.860 135.145, 67.094 128.111, 67.481 126.414 C 67.984 124.207, 67.736 122.879, 66.612 121.755 C 65.747 120.889, 64.751 117.734, 64.399 114.742 C 63.827 109.872, 64.008 109.066, 66.130 107.055 C 69.057 104.280, 72.498 102.870, 74.483 103.632 C 76.230 104.302, 79.177 113.375, 78.349 115.533 C 78.039 116.340, 77.197 117, 76.476 117 C 75.756 117, 74.298 118.193, 73.236 119.651 C 71.520 122.007, 71.457 122.609, 72.673 125.046 C 73.426 126.555, 74.712 128.346, 75.531 129.026 C 76.350 129.705, 77.722 132.677, 78.581 135.630 C 79.439 138.583, 80.769 141.561, 81.536 142.249 C 84.565 144.965, 85.942 146, 86.529 146 C 88.149 146, 89.773 143.001, 90.393 138.865 C 91.018 134.697, 90.812 134.010, 88.045 131.048 C 85.790 128.634, 85.164 127.195, 85.605 125.436 C 86.204 123.053, 84.159 117, 82.756 117 C 80.737 117, 82.388 114.783, 85.518 113.290 C 88.113 112.052, 89.329 110.635, 90.153 107.885 C 91.136 104.602, 91.015 103.834, 89.135 101.444 C 87.961 99.951, 87 97.700, 87 96.442 C 87 93.655, 91.272 88.364, 94.294 87.410 C 97.528 86.389, 100.806 82.313, 104.016 75.321 C 108.351 65.878, 108.729 65.744, 131.285 65.612 L 150.500 65.500 150.360 68 C 150.283 69.375, 149.739 74.325, 149.150 79 C 148.561 83.675, 147.621 92.900, 147.060 99.500 C 146.126 110.491, 143.912 119.583, 140.732 125.489 C 140.136 126.595, 139.743 129.134, 139.858 131.130 C 140.123 135.736, 138.383 136.489, 133.374 133.936 C 127.044 130.708, 123.655 131.497, 121.479 136.705 C 120.176 139.823, 120.205 140.404, 121.766 142.552 C 122.720 143.864, 125.300 145.864, 127.500 146.996 C 129.700 148.128, 133.525 150.155, 136 151.499 C 141.846 154.675, 142.579 154.621, 146.474 150.726 C 148.775 148.425, 149.954 146.122, 150.440 142.976 C 150.821 140.514, 152.620 132.875, 154.439 126 C 159.416 107.182, 161.753 91.433, 163.585 64.362 C 164.528 50.417, 165.839 51.034, 137.510 52.096 C 125.416 52.550, 115.162 52.562, 114.723 52.123 C 114.285 51.685, 114.384 50.121, 114.943 48.650 C 115.503 47.178, 116.410 43.185, 116.958 39.778 C 117.755 34.831, 117.670 33.146, 116.538 31.418 C 114.891 28.904, 111.078 29.151, 108.558 31.936 C 106.709 33.979, 102 47.031, 102 50.113 C 102 53.699, 98.151 58.816, 94.446 60.156 C 92.551 60.841, 90.973 61.874, 90.940 62.451 C 90.416 71.588, 90.074 74.080, 88.892 77.341 C 87.368 81.547, 88.376 81.359, 77.500 79.472 C 73.179 78.723, 69.939 81.572, 69.693 86.336 C 69.500 90.081, 69.162 90.369, 64 91.179 C 63.175 91.309, 61.263 91.088, 59.750 90.688 C 54.888 89.404, 55.722 87.443, 67.207 73.162 C 69.568 70.226, 72.850 66.891, 74.500 65.751 C 79.187 62.512, 83 58.748, 83 57.358 C 83 56.661, 81.855 54.945, 80.455 53.545 C 76.901 49.992, 71.851 50.052, 69.477 53.676 C 66.344 58.456, 62.919 60.890, 58.358 61.573 C 55.910 61.941, 53.663 61.996, 53.363 61.696 C 52.527 60.860, 57.619 51.288, 62.652 44.235 C 67.852 36.948, 69.371 32.833, 67.660 30.670 C 66.085 28.677, 62.923 27.957, 60.500 29.038 M 110.009 90.290 C 105.508 92.567, 106.205 94.563, 113.829 101.238 C 115.549 102.744, 117.251 105.219, 117.612 106.738 C 118.766 111.592, 120.977 113.259, 125.335 112.562 C 130.348 111.761, 133.929 109.103, 133.969 106.154 C 134.006 103.393, 130.432 98, 128.565 98 C 127.850 98, 126.117 96.265, 124.714 94.144 C 122.717 91.127, 121.329 90.150, 118.331 89.655 C 113.209 88.809, 112.888 88.833, 110.009 90.290 M 37.660 121.439 C 33.738 125.074, 30.968 144.847, 33.888 148.365 C 38.905 154.410, 47.460 142.299, 46.906 129.936 C 46.724 125.878, 45.128 120.032, 44.172 119.923 C 43.803 119.881, 42.732 119.699, 41.794 119.518 C 40.855 119.338, 38.995 120.202, 37.660 121.439" stroke="none" fill="black" fill-rule="evenodd"/>
</svg>