<svg xmlns="http://www.w3.org/2000/svg" width="256" height="256" viewBox="0 0 256 256" version="1.1">
	<path d="M 56.121 33.390 C 54.813 34.115, 51.873 37.776, 49.589 41.526 C 46.429 46.713, 44.645 48.609, 42.128 49.457 C 37.808 50.911, 34 54.641, 34 57.418 C 34 60.189, 38.195 64.071, 43.811 66.496 C 48.992 68.735, 50.572 71.112, 48.782 73.977 C 48.087 75.090, 47.230 76, 46.876 76 C 46.523 76, 46.009 76.859, 45.734 77.909 C 45.460 78.958, 43.270 81.191, 40.868 82.869 C 33.504 88.016, 32.144 89.354, 30.440 93.133 C 28.285 97.912, 29.265 100.656, 33.823 102.611 C 37.248 104.080, 45.041 104.708, 49.383 103.865 C 51.841 103.388, 51.878 103.629, 53.068 127.500 C 54.205 150.308, 54.180 148.390, 53.408 153.091 C 52.869 156.372, 53.078 156.789, 55.818 157.925 C 57.997 158.827, 59.364 158.876, 60.812 158.101 C 63.042 156.907, 63.467 154.376, 64.810 134.270 C 65.617 122.189, 66.533 118.497, 67.656 122.794 C 67.974 124.007, 68.856 125, 69.617 125 C 70.377 125, 71 125.383, 71 125.852 C 71 126.320, 72.237 128.070, 73.750 129.740 C 75.263 131.409, 77.509 133.985, 78.741 135.463 C 83.704 141.413, 87.510 135.631, 84.635 126.510 C 82.159 118.658, 79.545 116.004, 74.097 115.814 C 70.658 115.694, 69.306 116.139, 67.921 117.849 C 66.164 120.019, 66.143 119.991, 65.461 114.537 C 64.541 107.167, 65.358 104.560, 69.366 102.083 C 73.469 99.547, 74.496 99.501, 76.767 101.750 C 79.476 104.434, 83.752 107, 85.517 107 C 87.349 107, 89.570 101.679, 89.273 98 C 89.162 96.625, 88.059 93.321, 86.822 90.659 C 85.023 86.786, 83.597 85.323, 79.702 83.349 C 75.148 81.042, 74.674 80.984, 72.416 82.463 C 71.087 83.334, 70 84.881, 70 85.901 C 70 88.557, 67.250 90.468, 63.094 90.702 C 61.117 90.813, 57.587 91.197, 55.250 91.557 C 51.744 92.096, 51 91.929, 51 90.605 C 51 89.722, 51.450 89, 52 89 C 52.550 89, 53 88.206, 53 87.236 C 53 86.256, 54.782 84.371, 57.009 82.994 C 59.215 81.631, 61.263 79.746, 61.562 78.804 C 61.861 77.862, 63.994 76.051, 66.303 74.780 C 68.805 73.402, 71.308 70.957, 72.500 68.727 C 73.600 66.670, 75.285 64.735, 76.244 64.428 C 79.511 63.381, 81.093 61.043, 79.963 58.931 C 78.556 56.303, 69.754 56.244, 65.500 58.834 C 61.859 61.051, 55.846 62.144, 53.914 60.939 C 52.736 60.205, 52.901 59.298, 54.898 55.511 C 56.217 53.011, 58.958 49.464, 60.989 47.629 C 66.049 43.057, 68 40.048, 68 36.813 C 68 32.311, 61.464 30.428, 56.121 33.390 M 139 39.025 C 132.675 39.426, 121.425 40.063, 114 40.441 C 97.117 41.299, 96.589 41.411, 95.212 44.435 C 94.214 46.624, 94.401 47.171, 96.790 49.053 C 99.038 50.824, 100.313 51.080, 104.267 50.557 C 110.069 49.790, 111.153 51.332, 108.252 56.225 C 107.184 58.026, 105.714 61.075, 104.985 63 C 104.257 64.925, 102.387 68.276, 100.830 70.447 C 97.670 74.855, 97.184 79.078, 99.606 81.088 C 100.891 82.155, 101.053 83.330, 100.417 86.961 C 99.034 94.855, 99.354 129.861, 100.870 136.485 C 102.053 141.656, 103.025 143.245, 108.019 148.177 C 116.036 156.096, 120.853 157.500, 140 157.500 C 156.101 157.500, 159.739 156.879, 160.824 153.946 C 161.930 150.957, 159.606 134.574, 157.654 131.594 C 154.370 126.582, 151.018 129.708, 150.985 137.815 C 150.963 143.001, 149.883 144.179, 144.353 145.051 C 138.682 145.945, 120.569 143.597, 117.500 141.570 C 114.635 139.678, 111 128.613, 111 121.785 C 111 114.502, 111.869 114.006, 124.684 113.980 C 130.083 113.969, 137.392 113.542, 140.926 113.031 C 145.389 112.386, 148.676 112.456, 151.682 113.260 C 158.822 115.170, 159.432 113.887, 159.838 96.131 L 160.177 81.330 156.728 77.915 C 154.831 76.037, 152.511 73.891, 151.572 73.147 C 150.500 72.298, 150.130 71.182, 150.577 70.147 C 154.096 62.010, 159 47.467, 159 45.168 C 159 41.895, 156.630 39.350, 153 38.726 C 151.625 38.489, 145.325 38.624, 139 39.025 M 132.500 50.912 C 128.650 51.235, 124.970 51.844, 124.323 52.264 C 123.676 52.684, 122.601 54.709, 121.934 56.764 C 121.268 58.819, 119.885 61.694, 118.861 63.154 C 117.838 64.614, 117 66.232, 117 66.749 C 117 67.267, 116.100 68.505, 115 69.500 C 110.978 73.140, 112.349 74, 122.171 74 C 129.236 74, 131.755 73.627, 133.139 72.374 C 134.472 71.168, 134.687 70.283, 133.972 68.949 C 132.535 66.263, 134.117 63.219, 138.024 61.153 C 139.936 60.141, 142.400 57.657, 143.500 55.633 C 145.246 52.420, 145.309 51.829, 144 50.991 C 143.175 50.463, 141.825 50.096, 141 50.177 C 140.175 50.258, 136.350 50.588, 132.500 50.912 M 113.191 88.821 C 111.193 90.358, 110.923 91.334, 111.191 96.049 C 111.490 101.318, 111.602 101.510, 114.556 101.799 C 116.237 101.963, 118.771 101.657, 120.187 101.119 C 122.355 100.295, 122.771 99.497, 122.818 96.076 C 122.849 93.841, 123.129 91.600, 123.440 91.096 C 123.752 90.593, 123.732 89.465, 123.396 88.590 C 122.557 86.403, 116.145 86.549, 113.191 88.821 M 135.612 88.493 C 133.171 90.341, 132.550 97.407, 134.646 99.503 C 135.567 100.424, 138.024 101, 141.036 101 C 144.988 101, 146.147 100.595, 147.056 98.895 C 148.271 96.624, 147.524 90.351, 145.788 88.250 C 144.397 86.566, 137.954 86.720, 135.612 88.493 M 38.229 114.744 C 35.894 115.546, 34.239 120.426, 33.524 128.621 C 32.959 135.085, 33.135 137.361, 34.386 139.780 C 38.348 147.440, 44.012 142.445, 45.477 130 C 45.833 126.975, 46.364 122.865, 46.656 120.867 C 46.974 118.696, 46.735 116.954, 46.061 116.538 C 44.113 115.334, 39.553 114.290, 38.229 114.744" stroke="none" fill="black" fill-rule="evenodd"/>
</svg>