<svg xmlns="http://www.w3.org/2000/svg" width="256" height="256" viewBox="0 0 256 256" version="1.1">
	<path d="M 52.751 32.164 C 50.356 33.462, 47.691 36.319, 45.371 40.078 C 43.374 43.314, 40.223 47.118, 38.370 48.531 C 35.748 50.531, 35 51.831, 35 54.390 C 35 58.254, 39.258 64.272, 43 65.698 C 44.375 66.221, 46.162 67.897, 46.970 69.421 C 48.416 72.145, 48.358 72.262, 43.509 76.346 C 40.797 78.631, 37.163 81.925, 35.435 83.666 C 31.565 87.566, 28.791 95.321, 30.067 98.676 C 31.540 102.551, 41.246 105.277, 45.487 103.007 C 49.812 100.692, 50.696 102.063, 51.400 112.171 C 51.757 117.302, 52.120 129.150, 52.205 138.500 C 52.377 157.161, 52.907 159, 58.120 159 C 59.988 159, 61.323 158.266, 62.103 156.808 C 63.483 154.228, 64.141 120.201, 62.959 112.500 C 62.097 106.880, 63.189 104.827, 67.917 103.179 C 71.046 102.088, 76.662 103.956, 77.599 106.398 C 78.495 108.733, 82.898 111.167, 85.011 110.497 C 87.526 109.698, 88.477 104.486, 87.065 99.242 C 85.871 94.808, 87.181 90, 89.584 90 C 90.278 90, 92.271 88.801, 94.013 87.336 C 99.242 82.935, 98.992 80.972, 99.375 129.323 L 99.500 145.147 103.343 148.672 C 106.539 151.604, 107.633 152.069, 109.843 151.433 C 111.304 151.012, 122.987 150.552, 135.804 150.412 C 152.126 150.233, 159.541 149.796, 160.554 148.955 C 162.823 147.072, 162.344 141.672, 159.686 139.174 C 157.704 137.313, 156.210 137, 149.308 137 C 143.672 137, 140.900 136.585, 140.100 135.620 C 138.885 134.156, 139.569 124.316, 141.052 121.916 C 141.498 121.194, 144.848 120.309, 148.610 119.920 C 155.728 119.183, 158.031 117.618, 157.968 113.559 C 157.900 109.150, 155.368 107.531, 147.709 107 L 140.500 106.500 140.195 102.845 C 139.794 98.034, 142.569 96, 149.534 96 C 155.375 96, 159 93.504, 159 89.484 C 159 85.742, 154.740 83.508, 147.597 83.503 C 142.050 83.500, 141.543 83.311, 140.898 81 C 140.514 79.625, 140.155 76.660, 140.100 74.411 C 140.015 70.950, 140.392 70.142, 142.547 69.161 C 143.948 68.522, 146.662 68, 148.579 68 C 153.214 68, 158.570 65.672, 159.975 63.047 C 162.721 57.916, 157.467 54.320, 148.719 55.342 C 145.849 55.677, 142.480 55.683, 141.234 55.355 C 139.038 54.777, 139.092 54.624, 142.984 50.402 C 148.634 44.272, 148.299 38.346, 142.182 36.213 C 138.024 34.764, 134.566 35.773, 132.665 38.989 C 130.001 43.500, 130.516 47.745, 134.137 51.128 C 135.863 52.740, 136.950 54.383, 136.553 54.779 C 135.462 55.869, 112.948 55.348, 111.807 54.207 C 111.148 53.548, 111.847 51.093, 113.880 46.925 C 116.924 40.685, 117.153 37.314, 114.740 34.250 C 113.348 32.483, 108.445 32.698, 106.532 34.611 C 104.376 36.767, 100 45.502, 100 47.651 C 100 48.596, 99.132 51.198, 98.072 53.434 C 97.011 55.670, 94.979 60.408, 93.556 63.962 C 92.132 67.516, 89.908 71.566, 88.613 72.962 C 87.318 74.358, 85.474 76.737, 84.514 78.250 C 82.364 81.639, 78.724 81.867, 76.529 78.750 C 75.294 76.997, 74.759 76.796, 74.107 77.840 C 73.647 78.578, 72.203 79.713, 70.898 80.363 C 69.262 81.179, 68.336 82.717, 67.912 85.324 C 67.575 87.402, 66.894 89.476, 66.399 89.934 C 65.905 90.391, 61.788 90.536, 57.250 90.254 C 49.663 89.784, 49.001 89.572, 49.015 87.622 C 49.037 84.603, 50.174 83.192, 53.021 82.650 C 56.770 81.937, 59 80.892, 59 79.848 C 59 79.332, 61.904 75.963, 65.453 72.361 C 70.770 66.965, 72.019 65.057, 72.549 61.521 C 73.833 52.962, 69.184 50.364, 63.564 56.500 C 61.038 59.257, 59.595 60, 56.761 60 C 54.782 60, 52.497 59.744, 51.681 59.431 C 49.275 58.508, 51.525 52.556, 56.906 45.611 C 61.901 39.165, 64.291 33.921, 63.351 31.472 C 62.550 29.385, 57.242 29.732, 52.751 32.164 M 110.321 67.188 C 107.598 68.505, 105.581 73.193, 106.375 76.358 C 107.345 80.222, 110.932 81.825, 119.310 82.137 C 123.492 82.293, 127.233 82.100, 127.624 81.709 C 128.016 81.318, 128.537 78.567, 128.784 75.596 C 129.306 69.294, 128.636 68.667, 120.238 67.598 C 117.344 67.229, 114.419 66.749, 113.738 66.531 C 113.057 66.313, 111.520 66.609, 110.321 67.188 M 110.537 97.605 C 109.529 98.614, 109.168 100.008, 109.567 101.355 C 110.707 105.206, 112.990 106.094, 120.958 105.788 L 128.431 105.500 129.355 102.270 C 130.827 97.121, 129.145 96, 119.949 96 C 114.116 96, 111.737 96.406, 110.537 97.605 M 35.819 115.250 C 33.654 116.981, 32.030 124.450, 31.897 133.290 C 31.761 142.327, 32.945 145, 37.084 145 C 39.660 145, 40.378 144.383, 42.027 140.750 C 43.088 138.412, 43.966 134.869, 43.978 132.876 C 43.990 130.882, 44.582 127.507, 45.293 125.376 C 46.004 123.244, 46.423 120.491, 46.224 119.259 C 45.530 114.953, 39.228 112.525, 35.819 115.250 M 69.500 115.301 C 65.806 119.826, 65.837 119.648, 68.080 123.650 C 69.268 125.767, 71.325 128.589, 72.653 129.920 C 73.981 131.251, 75.788 133.859, 76.669 135.714 C 79.610 141.913, 87 143.278, 87 137.623 C 87 134.163, 80.884 119.069, 78.138 115.750 C 76.476 113.741, 71.005 113.457, 69.500 115.301 M 113.071 119 C 111.254 120.178, 110.182 123.876, 110.452 128.033 C 110.831 133.871, 110.757 133.614, 112.571 135.429 C 114.550 137.407, 127.214 137.658, 128.782 135.750 C 129.423 134.971, 129.563 131.488, 129.155 126.500 L 128.500 118.500 121.171 118.500 C 117.140 118.500, 113.495 118.725, 113.071 119" stroke="none" fill="black" fill-rule="evenodd"/>
</svg>