<svg xmlns="http://www.w3.org/2000/svg" width="256" height="256" viewBox="0 0 256 256" version="1.1">
	<path d="M 56.155 25.779 C 53.640 26.192, 46.273 33.274, 42.403 39 C 41.102 40.925, 38.679 43.400, 37.019 44.500 C 33.521 46.817, 30.597 52.275, 31.513 54.776 C 31.861 55.724, 35.018 58.975, 38.529 62 C 42.040 65.025, 45.205 68.343, 45.563 69.374 C 46.294 71.480, 43.271 74.773, 37.805 77.824 C 34.340 79.758, 27.705 89.473, 26.607 94.219 C 25.666 98.284, 30.107 100.220, 40.733 100.378 C 46.909 100.469, 49.311 100.884, 49.986 101.978 C 50.488 102.790, 50.874 114.834, 50.844 128.742 C 50.783 156.930, 51.198 159, 56.901 159 C 62.081 159, 62.481 157.457, 62.704 136.596 C 62.918 116.639, 62.948 110.111, 62.832 109.102 C 62.350 104.905, 66.572 98, 69.620 98 C 70.413 98, 73.242 100.250, 75.906 103 C 79.342 106.546, 81.529 108, 83.425 108 C 88.586 108, 92.768 111.167, 92.009 114.500 C 91.884 115.050, 91.407 120.408, 90.950 126.407 C 90.201 136.252, 90.311 137.689, 92.080 141.157 C 93.949 144.820, 94.269 145, 98.912 145 C 103.272 145, 103.849 144.738, 104.410 142.504 C 105.324 138.862, 103.915 117.735, 102.652 116.142 C 100.118 112.945, 109.305 110.645, 115.381 112.955 C 118.462 114.126, 118.793 115.908, 119.311 134.064 C 119.671 146.693, 119.887 147.950, 122.444 152.314 C 124.947 156.585, 125.525 157, 128.973 157 C 133.077 157, 134.702 155.672, 135.934 151.314 C 136.546 149.149, 136.272 147.995, 134.749 146.313 C 132.749 144.103, 130.071 128.847, 130.022 119.372 C 129.992 113.776, 131.446 112.845, 139.660 113.202 C 146.408 113.496, 146.505 113.540, 146.835 116.441 C 147.019 118.059, 146.882 121.300, 146.531 123.643 C 146.014 127.090, 145.234 128.310, 142.446 130.033 C 138.282 132.607, 138.177 133.699, 141.750 137.306 C 151.901 147.551, 157.471 148.699, 159.222 140.905 C 159.643 139.032, 160.009 129.907, 160.036 120.626 C 160.100 98.687, 160.885 99.701, 144.261 100.259 C 136.156 100.531, 131.667 100.302, 131.075 99.586 C 129.952 98.227, 130.818 93.396, 132.423 92.064 C 133.084 91.515, 138.019 90.758, 143.391 90.380 C 157.728 89.372, 156.849 90.962, 157.970 64 L 158.906 41.500 156.397 39.250 C 154.108 37.197, 152.898 37, 142.567 37 C 134.040 37, 130.956 36.652, 130.074 35.589 C 129.405 34.784, 129.295 33.936, 129.817 33.613 C 131.422 32.621, 129.829 27.934, 127.331 26.297 C 125.437 25.056, 124.401 24.952, 122.512 25.813 C 119.764 27.065, 116.550 31.463, 117.390 32.822 C 117.700 33.323, 117.114 34.492, 116.088 35.421 C 114.587 36.779, 112.494 37.064, 105.361 36.883 C 100.016 36.747, 95.625 37.127, 94.294 37.840 C 91.266 39.464, 90.001 44.859, 90.531 53.890 C 90.777 58.075, 91.173 66.589, 91.412 72.809 C 92.047 89.339, 93.396 90.791, 108.219 90.899 C 112.904 90.934, 117.471 91.244, 118.369 91.588 C 120.046 92.232, 120.583 96.580, 119.235 98.602 C 118.615 99.530, 109.860 100.441, 93.095 101.321 C 89.939 101.487, 89.491 101.116, 86.952 96.227 C 85.446 93.326, 83.923 89.402, 83.567 87.506 C 83.211 85.610, 81.813 82.743, 80.460 81.135 C 79.107 79.527, 78 77.783, 78 77.261 C 78 75.659, 74.459 73, 72.326 73 C 70.003 73, 67 75.935, 67 78.206 C 67 79.058, 66.325 80.315, 65.500 81 C 64.675 81.685, 64 83.765, 64 85.622 C 64 88.989, 61.702 90.477, 60.714 87.750 C 60.352 86.750, 59.838 86.750, 58.144 87.750 C 55.050 89.577, 48.354 89.366, 47.607 87.418 C 47.273 86.548, 47 85.455, 47 84.990 C 47 83.217, 50.253 81, 52.852 81 C 54.940 81, 55.819 80.317, 56.686 78.022 C 57.306 76.378, 59.078 74.474, 60.641 73.772 C 66.404 71.183, 71.852 63.256, 72.577 56.405 C 73.210 50.420, 72.159 48.663, 68.018 48.780 C 65.702 48.846, 63.528 50.103, 59.966 53.435 C 53.892 59.116, 51.771 59.298, 49.172 54.357 C 47.932 52.002, 48.835 50.442, 56.107 42.364 C 58.155 40.090, 60.580 36.779, 61.497 35.007 C 64.358 29.473, 61.693 24.870, 56.155 25.779 M 104.325 50.818 C 103.368 51.775, 103.083 53.193, 103.507 54.884 C 104.336 58.188, 105.855 59.188, 109 58.501 C 115.092 57.170, 133.068 56.780, 137.450 57.883 C 143.551 59.419, 146 58.173, 146 53.532 C 146 51.172, 145.466 49.968, 144.250 49.588 C 143.287 49.287, 134.241 49.110, 124.147 49.195 C 109.489 49.318, 105.498 49.645, 104.325 50.818 M 104.276 71.701 C 102.743 74.042, 103.277 77.511, 105.288 78.276 C 105.955 78.529, 115.170 78.508, 125.766 78.228 L 145.032 77.719 145.646 75.275 C 146.891 70.313, 144.962 69.800, 124.467 69.643 C 106.174 69.503, 105.683 69.554, 104.276 71.701 M 35.486 114.387 C 31.781 117.096, 29.591 134.647, 32.290 140 C 33.856 143.107, 37.074 143.680, 39.278 141.245 C 40.196 140.231, 41.561 136.499, 42.311 132.951 C 43.061 129.403, 44.635 124.631, 45.808 122.347 L 47.941 118.195 45.898 115.597 C 43.577 112.646, 38.650 112.073, 35.486 114.387 M 68.655 114.829 C 66.390 117.331, 66.577 120.099, 69.365 125.343 C 70.666 127.790, 72.049 131.076, 72.437 132.646 C 73.385 136.479, 77.837 141, 80.664 141 C 85.371 141, 87.385 133.532, 83.679 129.820 C 82.954 129.094, 81.806 126.295, 81.128 123.599 C 79.036 115.281, 77.421 113, 73.629 113 C 71.684 113, 69.625 113.757, 68.655 114.829" stroke="none" fill="black" fill-rule="evenodd"/>
</svg>