<svg xmlns="http://www.w3.org/2000/svg" width="256" height="256" viewBox="0 0 256 256" version="1.1">
	<path d="M 61 28.728 C 57.739 29.967, 53.289 34.435, 48.986 40.789 C 46.503 44.455, 43.428 47.975, 42.152 48.612 C 38.694 50.336, 37.997 51.307, 37.517 55.073 C 37.175 57.760, 37.672 59.177, 39.821 61.634 C 41.328 63.358, 43.436 64.937, 44.506 65.143 C 47.016 65.627, 48.956 69.544, 48.139 72.479 C 47.292 75.520, 43.015 81, 41.489 81 C 40.823 81, 38.229 82.912, 35.725 85.250 C 31.157 89.515, 28.985 94.914, 30.378 98.543 C 31.848 102.374, 42.332 104.846, 48.937 102.919 C 49.813 102.664, 51.053 103.868, 52.112 106 C 53.520 108.837, 53.862 112.369, 53.916 124.647 C 53.953 132.978, 54.269 140.537, 54.618 141.447 C 54.967 142.356, 54.697 145.716, 54.018 148.914 C 52.595 155.619, 53.556 158.600, 57.457 159.578 C 65.863 161.688, 67.211 155.515, 65.846 121.163 L 65.237 105.826 68.368 103.893 C 75.739 99.341, 79.901 100.146, 83.739 106.867 C 86.195 111.167, 86.742 111.594, 88.679 110.730 C 92.136 109.187, 93.582 104.561, 92.148 99.625 C 91.490 97.356, 90.348 93.344, 89.611 90.709 C 87.945 84.751, 84.574 81, 80.885 81 C 79.363 81, 77.840 80.550, 77.500 80 C 75.795 77.242, 72.433 80.157, 71.453 85.241 C 70.823 88.516, 69.958 88.928, 61.451 90.006 C 57.078 90.560, 53.349 91.463, 53.165 92.013 C 52.694 93.415, 51 92.185, 51 90.441 C 51 89.648, 51.573 89, 52.273 89 C 52.973 89, 54.394 87.424, 55.431 85.497 C 56.469 83.571, 60.411 78.959, 64.191 75.247 C 67.972 71.536, 72.288 66.700, 73.783 64.500 C 75.277 62.300, 77.063 59.905, 77.750 59.179 C 80.498 56.274, 78.478 52, 74.357 52 C 71.778 52, 65 55.731, 65 57.150 C 65 58.331, 58.784 61, 56.032 61 C 52.538 61, 53.602 56.176, 59.010 47.500 C 67.241 34.297, 68.552 31.370, 67.048 29.558 C 65.735 27.976, 63.711 27.698, 61 28.728 M 120.728 38.750 C 119.858 39.712, 118.072 43.461, 116.759 47.079 C 115.446 50.698, 112.881 55.868, 111.059 58.568 C 107.098 64.436, 106.075 69.940, 108.311 73.352 C 109.440 75.074, 110.544 75.619, 112.251 75.292 C 117.694 74.252, 117.854 80.177, 112.514 85.047 C 102.148 94.500, 100.792 96.209, 101.367 99.086 C 101.679 100.644, 103.362 103.284, 105.107 104.952 L 108.281 107.985 110.592 105.295 C 112.447 103.136, 113.722 102.624, 117.060 102.697 C 123.007 102.828, 124.090 104.432, 125.126 114.650 C 125.984 123.115, 125.783 143.550, 124.832 144.501 C 124.451 144.882, 121.222 145.652, 118.857 145.926 C 118.503 145.967, 117.951 146.685, 117.630 147.522 C 116.933 149.337, 123.060 156.463, 127.125 158.565 C 130.976 160.556, 135.367 160.357, 137.410 158.100 C 138.977 156.367, 139.033 154.986, 138.037 142.509 C 136.994 129.451, 137.273 123.424, 139.085 119.903 C 139.554 118.992, 139.472 117.872, 138.896 117.296 C 138.340 116.740, 137.632 113.832, 137.322 110.834 C 136.387 101.772, 140.449 99.990, 149.229 105.612 C 153.307 108.224, 156.936 108.629, 160.316 106.850 C 165.431 104.158, 165.392 98.956, 160.208 92.340 C 158.122 89.678, 155.353 85.700, 154.054 83.500 C 151.053 78.416, 149.284 77, 145.931 77 C 142.215 77, 140.743 79.114, 141.532 83.319 C 142.521 88.589, 140.849 90.682, 134.616 91.976 C 129.501 93.038, 124.505 92.626, 123.539 91.063 C 123.044 90.262, 129.720 79.058, 132.811 75.503 C 133.910 74.239, 135.578 71.583, 136.519 69.602 C 137.459 67.621, 138.579 66, 139.008 66 C 140.707 66, 146 60.077, 146 58.176 C 146 57.063, 144.835 54.769, 143.411 53.077 C 139.918 48.926, 136.459 48.967, 134.203 53.187 C 131.588 58.079, 128.352 61, 125.545 61 C 123.646 61, 123 60.480, 123 58.950 C 123 56.807, 125.358 51.570, 127.480 49 C 129.586 46.449, 129.959 42.821, 128.421 39.847 C 126.712 36.543, 123.179 36.039, 120.728 38.750 M 73.797 113.680 C 72.280 114.080, 70.795 116.692, 70.489 119.500 C 70.430 120.050, 71.801 122.525, 73.538 125 C 75.274 127.475, 77.960 131.863, 79.506 134.750 C 81.826 139.082, 82.787 140, 85.004 140 C 88.143 140, 91 137.246, 91 134.220 C 91 131.522, 88.598 122.332, 86.968 118.798 C 85.033 114.600, 79.084 112.289, 73.797 113.680 M 105.645 115.720 C 103.618 119.639, 102 129.108, 102 137.049 C 102 142.308, 102.444 144.295, 104.086 146.382 L 106.171 149.033 109.336 146.396 C 113.855 142.628, 114.831 140.294, 115.930 130.627 C 116.466 125.908, 117.306 121.248, 117.795 120.273 C 118.285 119.298, 118.401 117.375, 118.052 116 C 117.493 113.794, 116.812 113.465, 112.261 113.200 C 107.481 112.921, 106.997 113.105, 105.645 115.720 M 144.153 114.867 C 142.969 115.894, 142 117.474, 142 118.378 C 142 121.119, 146.381 128.920, 148.277 129.556 C 149.254 129.884, 150.788 131.355, 151.687 132.826 C 157.694 142.661, 158.178 143.149, 160.150 141.365 C 162.513 139.225, 162.481 136.199, 159.988 126.452 C 157.607 117.142, 154.367 113, 149.466 113 C 147.728 113, 145.337 113.840, 144.153 114.867 M 39.250 116.928 C 38.288 117.989, 37.006 119.472, 36.402 120.223 C 34.508 122.582, 32.537 137.554, 33.571 141.730 C 35.029 147.613, 41.538 147.651, 43.803 141.790 C 45.343 137.807, 48 124.532, 48 120.821 C 48 115.565, 42.649 113.183, 39.250 116.928" stroke="none" fill="black" fill-rule="evenodd"/>
</svg>