<svg xmlns="http://www.w3.org/2000/svg" width="256" height="256" viewBox="0 0 256 256" version="1.1">
	<path d="M 107.080 27.403 C 104.461 30.559, 103.669 36.306, 103.481 53.500 C 103.231 76.376, 102.271 85.929, 99.516 92.959 C 97.477 98.163, 97.428 98.802, 98.840 101.785 C 99.678 103.553, 101.069 105.034, 101.931 105.077 C 102.794 105.119, 104.400 105.353, 105.500 105.598 C 106.600 105.843, 113.575 106.319, 121 106.655 C 128.425 106.991, 135.195 107.623, 136.045 108.059 C 137.343 108.725, 137.565 111.210, 137.435 123.675 C 137.233 143.132, 137.246 143, 135.500 143 C 134.429 143, 134 141.910, 134 139.191 C 134 133.184, 132.232 131.649, 124.577 131.006 C 118.424 130.490, 115.310 131.120, 113.947 133.155 C 113.643 133.609, 109.818 134.891, 105.447 136.002 C 98.606 137.742, 94.957 139.820, 95.015 141.941 C 95.113 145.504, 104.130 148.056, 112.558 146.907 C 121.004 145.755, 125.982 147.222, 126.014 150.872 C 126.029 152.552, 134.264 157.639, 139.315 159.089 C 142.983 160.142, 146.581 158.475, 147.879 155.120 C 149.788 150.186, 150.637 138.492, 150.519 118.729 C 150.367 93.144, 151.585 94.707, 131.225 93.959 C 123.126 93.661, 115.747 93.064, 114.827 92.631 C 112.156 91.376, 111.881 89.119, 114.125 86.875 C 115.980 85.020, 116.816 84.887, 121.852 85.648 C 124.959 86.116, 132.530 86.500, 138.679 86.500 C 148.556 86.500, 150.186 86.251, 152.679 84.360 C 154.849 82.714, 155.463 81.471, 155.338 78.973 C 155.248 77.188, 154.573 75.345, 153.838 74.879 C 153.102 74.412, 147.325 73.986, 141 73.931 C 127.482 73.814, 118.427 72.827, 116.904 71.304 C 116.118 70.518, 116.119 69.646, 116.907 68.173 C 117.911 66.297, 118.974 66.127, 130.036 66.073 C 142.945 66.009, 148 64.618, 148 61.129 C 148 57.177, 144.578 55.753, 133.265 54.997 C 127.344 54.602, 122.172 54.462, 121.771 54.686 C 120.572 55.354, 117 53.034, 117 51.587 C 117 48.353, 119.791 47.813, 135.802 47.949 C 149.948 48.069, 151.927 47.880, 153.988 46.210 C 155.720 44.809, 156.140 43.729, 155.660 41.919 C 154.214 36.473, 154.318 36.502, 135.934 36.475 C 120.222 36.452, 118.686 36.292, 117.401 34.534 C 116.631 33.480, 116 31.595, 116 30.344 C 116 26.562, 109.545 24.434, 107.080 27.403 M 84.725 28.094 C 83.749 28.662, 81.996 31.159, 80.828 33.642 C 79.036 37.454, 78.379 38.048, 76.603 37.461 C 71.841 35.886, 51.245 35.095, 46.363 36.300 C 41.929 37.394, 41.473 37.781, 41.192 40.684 C 40.959 43.089, 41.397 44.142, 42.987 44.993 C 46.374 46.806, 67.595 47.198, 73.143 45.550 C 78.975 43.818, 80.590 45.043, 79.579 50.433 C 78.836 54.393, 76.577 55.550, 72.567 54.025 C 71.084 53.461, 65.499 53, 60.157 53 C 49.672 53, 46 54.325, 46 58.108 C 46 61.511, 52.100 63.326, 64.336 63.563 C 70.296 63.678, 75.621 64.221, 76.168 64.768 C 76.829 65.429, 76.716 66.491, 75.832 67.927 C 74.597 69.932, 74.029 70.031, 68 69.294 C 57.323 67.989, 41 68.523, 36.750 70.316 C 32.630 72.054, 31.800 74.976, 34.412 78.549 C 35.631 80.216, 37.575 80.567, 48.662 81.123 C 55.723 81.477, 61.612 81.820, 61.750 81.884 C 62.384 82.179, 61.913 83.976, 61.250 83.790 C 60.837 83.675, 58.925 84.295, 57 85.168 C 55.075 86.042, 51.475 87.485, 49 88.376 C 46.029 89.446, 43.694 91.183, 42.128 93.488 C 39.880 96.797, 39.842 97.110, 41.391 99.474 C 43.591 102.832, 46.486 103.385, 57.596 102.570 C 65.633 101.980, 67.104 102.107, 67.615 103.439 C 68.007 104.459, 69.479 105, 71.866 105 C 74.333 105, 75.893 105.599, 76.671 106.844 C 78.219 109.323, 78.438 132.611, 76.922 133.548 C 76.310 133.926, 74.548 133.302, 73.005 132.162 C 71.463 131.022, 68.993 129.785, 67.517 129.415 C 65.343 128.869, 64.960 128.340, 65.498 126.621 C 67.191 121.209, 67.039 120.466, 63.473 116.750 C 61.493 114.687, 59.282 113, 58.559 113 C 57.836 113, 56.693 112.334, 56.017 111.521 C 53.418 108.389, 48 114.681, 48 120.832 C 48 122.995, 48.899 124.448, 51.433 126.381 C 53.322 127.822, 55.347 129, 55.933 129 C 56.520 129, 57 129.603, 57 130.339 C 57 131.800, 52.923 133.998, 50.203 134.004 C 49.266 134.006, 47.038 134.899, 45.250 135.989 C 42.789 137.489, 42 138.673, 42 140.863 C 42 146.070, 43.605 146.494, 57.807 145.033 C 64.788 144.315, 71.715 143.114, 73.200 142.364 C 76.579 140.657, 77 140.662, 77 142.401 C 77 143.172, 75.425 144.732, 73.500 145.867 C 69.079 148.476, 68.592 153.031, 72.462 155.567 C 77.483 158.857, 87.103 158.672, 88.498 155.259 C 90.499 150.360, 91.758 142.494, 90.902 140.241 C 90.374 138.854, 90.268 129.376, 90.650 117.918 C 91.477 93.190, 92.508 94.966, 75.250 91.424 C 73.523 91.069, 73 90.269, 73 87.981 C 73 85.845, 73.481 85, 74.696 85 C 75.629 85, 78.063 83.843, 80.104 82.428 C 84.464 79.406, 87.135 73.818, 89.391 63 C 90.252 58.875, 91.810 52.545, 92.855 48.932 C 94.404 43.578, 94.583 41.274, 93.828 36.457 C 92.519 28.108, 89.487 25.322, 84.725 28.094 M 63 82.969 C 63 83.501, 63.675 83.678, 64.500 83.362 C 65.325 83.045, 66 82.609, 66 82.393 C 66 82.177, 65.325 82, 64.500 82 C 63.675 82, 63 82.436, 63 82.969 M 106 113.826 C 104.625 114.197, 102.600 115.033, 101.500 115.685 C 99.571 116.829, 99.624 117.001, 103 120.561 C 106.282 124.023, 112.708 127.674, 116.958 128.492 C 119.547 128.991, 124.236 123.301, 123.045 121.107 C 119.922 115.356, 112.339 112.116, 106 113.826" stroke="none" fill="black" fill-rule="evenodd"/>
</svg>