<svg xmlns="http://www.w3.org/2000/svg" width="256" height="256" viewBox="0 0 256 256" version="1.1">
	<path d="M 87.400 25.765 C 84.465 27.725, 83.794 31.107, 85.034 37.681 C 85.732 41.377, 85.878 44.506, 85.377 44.987 C 84.055 46.255, 80.262 46.431, 72.420 45.590 C 64.197 44.709, 58.533 46.415, 57.102 50.206 C 55.062 55.610, 58.950 57.279, 74 57.460 L 83.500 57.573 83.285 66.452 C 83.167 71.335, 82.582 75.818, 81.985 76.415 C 81.315 77.086, 75.289 77.542, 66.200 77.611 C 47.151 77.754, 41.327 78.582, 38.339 81.570 C 36.335 83.574, 36.162 84.262, 37.130 86.386 C 37.751 87.750, 39.644 89.438, 41.336 90.139 C 44.916 91.622, 58.986 91.884, 67.171 90.619 C 74.098 89.549, 78 90.361, 78 92.873 C 78 96.085, 73.561 99.650, 66.732 101.923 C 59.819 104.223, 55.864 106.745, 52.516 110.986 C 51.424 112.369, 48.550 115.637, 46.129 118.250 C 43.708 120.862, 41.662 124.012, 41.583 125.250 C 41.448 127.354, 44.316 131, 46.106 131 C 48.471 131, 53.071 127.992, 57.525 123.532 C 63.409 117.640, 71.601 113.432, 75.354 114.374 C 77.844 114.999, 77.880 115.150, 77.743 124.254 C 77.610 133.119, 77.758 133.791, 81.328 140.563 C 84.494 146.568, 85.747 147.965, 89.697 149.884 C 95.893 152.894, 112.833 154.911, 123.500 153.909 C 148.860 151.526, 152.502 149.533, 152.497 138.040 C 152.494 132.219, 152.152 130.935, 149.997 128.665 C 145.175 123.586, 137.817 126.487, 136.626 133.936 C 135.888 138.551, 134.808 139.286, 126.500 140.826 C 117.968 142.407, 104.850 141.014, 98.478 137.849 C 92.429 134.845, 89.514 129.834, 90.482 124.104 C 91.520 117.964, 91.985 117.686, 101.663 117.419 C 109.322 117.207, 114.296 116.340, 126 113.176 C 127.375 112.804, 129.400 111.961, 130.500 111.301 C 132.366 110.183, 132.397 109.915, 130.967 107.301 C 129.633 104.865, 128.655 104.416, 123.467 103.859 C 113.940 102.834, 101.814 102.924, 97.765 104.049 C 91.192 105.874, 87.697 101.950, 91.750 97.296 C 93.578 95.197, 101.487 91.151, 108.816 88.565 C 111.547 87.601, 114.685 87.269, 117.461 87.650 C 122.979 88.406, 141.160 86.367, 146.732 84.367 C 149.683 83.308, 150.882 82.341, 150.693 81.174 C 149.900 76.290, 145.504 74, 136.918 74 C 133.254 74, 130.033 73.412, 128.618 72.485 C 126.498 71.096, 126.082 71.148, 123.582 73.114 C 121.962 74.389, 120.492 74.892, 119.955 74.355 C 118.651 73.051, 119.964 66.354, 121.874 64.571 C 124.955 61.693, 130.765 57, 131.246 57 C 131.511 57, 134.265 54.602, 137.364 51.671 C 142.360 46.946, 143 45.893, 143 42.393 C 143 38.088, 140.756 34, 138.394 34 C 135.354 34, 131.415 36.917, 129.248 40.772 C 125.749 46.998, 124.840 47.439, 119.286 45.600 C 115.457 44.332, 113.301 44.212, 108.500 45.002 C 100.365 46.340, 98.399 46.256, 96.642 44.499 C 95.551 43.408, 95.366 42.212, 95.964 40.124 C 96.888 36.904, 95.606 28.436, 93.881 26.357 C 92.667 24.893, 89.182 24.576, 87.400 25.765 M 96.655 60.829 C 94.679 63.012, 94.356 72.956, 96.200 74.800 C 100.816 79.416, 109.327 67.216, 105.925 60.859 C 104.601 58.386, 98.882 58.368, 96.655 60.829" stroke="none" fill="black" fill-rule="evenodd"/>
</svg>