<svg xmlns="http://www.w3.org/2000/svg" width="256" height="256" viewBox="0 0 256 256" version="1.1">
	<path d="M 109.073 31.721 C 102.799 32.921, 100.730 36.330, 99.494 47.500 C 98.720 54.493, 96.559 59.818, 90.799 68.927 C 87.816 73.645, 86.561 76.770, 86.354 80 C 86.195 82.475, 85.639 86.744, 85.118 89.486 C 84.168 94.481, 85.376 99.878, 87.775 101.361 C 88.313 101.694, 92.164 101.073, 96.332 99.981 C 103.508 98.101, 104.459 98.075, 114.206 99.481 C 119.867 100.297, 126.975 101.086, 130 101.233 C 134.436 101.448, 135.500 101.834, 135.500 103.223 C 135.500 106.052, 122.922 123.132, 121.098 122.780 C 120.219 122.611, 119.479 122.029, 119.452 121.486 C 119.377 119.928, 115.369 113.721, 112.843 111.250 C 109.916 108.388, 104.732 108.268, 102 111 C 100.900 112.100, 99.501 113, 98.892 113 C 97.196 113, 98.733 117.784, 101.665 121.627 C 103.071 123.471, 104.531 124.790, 104.909 124.556 C 106.170 123.777, 107.908 125.536, 109.397 129.098 C 111.435 133.976, 109.886 136.675, 102.995 140.256 C 97.714 143, 90.101 149.539, 90.033 151.390 C 89.971 153.067, 93.501 154.936, 96.790 154.968 C 100.724 155.006, 106.683 152.154, 113.500 146.969 C 123.078 139.685, 125.596 139.518, 133.615 145.640 C 138.247 149.175, 146.599 153.388, 152.302 155.066 C 154.672 155.763, 155.233 155.551, 155.933 153.695 C 156.970 150.949, 156.381 145.627, 154.990 145.163 C 154.416 144.972, 151.821 143.136, 149.223 141.084 C 146.625 139.032, 142.348 136.532, 139.717 135.528 C 137.087 134.525, 134.684 133.297, 134.377 132.801 C 133.416 131.245, 136.974 124.945, 146.393 111.529 C 155.275 98.880, 155.495 98.428, 155.308 93.279 L 155.115 88 158.558 88 C 162.120 88, 166 85.196, 166 82.622 C 166 80.340, 163.227 74.433, 161.471 72.976 C 160.567 72.226, 157.970 71.361, 155.700 71.056 C 151.119 70.439, 151.591 71.376, 148.626 57 C 147.775 52.875, 146.780 46.800, 146.414 43.500 C 145.711 37.153, 144.586 34.173, 142.241 32.444 C 140.813 31.390, 113.873 30.803, 109.073 31.721 M 40.465 34.875 C 36.470 36.645, 36.205 38.022, 35.631 60 C 34.830 90.667, 33.356 115.633, 31.528 129.500 C 28.693 150.997, 28.522 155.379, 30.442 157.299 C 32.979 159.836, 36.672 159.430, 38.661 156.395 C 41.103 152.667, 43.685 139.737, 45.011 124.585 C 46.636 106.022, 46.068 106.843, 56.732 107.644 C 61.554 108.006, 65.813 108.784, 66.196 109.373 C 67.392 111.212, 67.102 139.173, 65.871 140.655 C 65.257 141.395, 63.325 142, 61.578 142 C 59.830 142, 57.927 142.473, 57.349 143.051 C 56.212 144.188, 56.741 149, 58.003 149 C 58.426 149, 61.410 151.475, 64.635 154.500 C 70.659 160.152, 72.333 160.827, 75.096 158.718 C 79.974 154.996, 81.136 147.226, 79.129 131.745 C 78.200 124.575, 78.137 120.071, 78.894 114.745 C 80.155 105.872, 80.818 42.376, 79.682 39.249 C 79.233 38.011, 77.965 36.516, 76.866 35.928 C 74.329 34.571, 43.186 33.669, 40.465 34.875 M 118.354 43.692 C 115.106 44.328, 113.010 47.234, 111.425 53.303 C 108.934 62.844, 104.384 71.189, 98.513 76.988 C 90.108 85.288, 90.589 86, 104.606 86 C 112 86, 118.441 86.579, 122.356 87.596 C 127.200 88.855, 130.509 89.022, 138 88.388 C 143.225 87.945, 147.950 87.503, 148.500 87.407 C 149.050 87.310, 150.084 87.179, 150.798 87.115 C 152.960 86.923, 146.425 78.419, 143.037 77.015 C 141.339 76.312, 139.769 74.801, 139.514 73.623 C 138.598 69.403, 136.768 59.391, 135.996 54.378 C 135.067 48.348, 133.671 45.430, 131.043 44.023 C 129.176 43.024, 122.642 42.853, 118.354 43.692 M 50.021 47.979 C 48.174 49.826, 47.923 51.133, 48.090 58.051 C 48.195 62.423, 48.556 66.045, 48.891 66.100 C 49.650 66.226, 60.297 67.013, 65 67.292 L 68.500 67.500 68.234 58.519 C 68.071 53.018, 67.489 49.089, 66.734 48.377 C 66.055 47.737, 62.495 46.909, 58.822 46.535 C 52.838 45.927, 51.923 46.077, 50.021 47.979 M 47.606 80.584 C 46.830 82.606, 46.844 90.425, 47.633 95.193 C 48.243 98.882, 48.246 98.885, 50.761 97.237 C 52.555 96.061, 55.219 95.635, 60.034 95.752 C 66.223 95.902, 66.838 95.731, 67.381 93.708 C 68.480 89.610, 68.065 80.957, 66.750 80.552 C 66.063 80.341, 61.610 79.906, 56.856 79.586 C 49.548 79.094, 48.119 79.249, 47.606 80.584" stroke="none" fill="black" fill-rule="evenodd"/>
</svg>