<svg xmlns="http://www.w3.org/2000/svg" width="256" height="256" viewBox="0 0 256 256" version="1.1">
	<path d="M 56.354 27.692 C 55.174 27.923, 53.461 28.938, 52.547 29.948 C 49.918 32.853, 44.026 47.176, 44.012 50.693 C 44.005 52.663, 43.286 54.387, 42.138 55.193 C 39.049 57.361, 35 64.097, 35 67.068 C 35 70.683, 37.639 73.352, 40.399 72.528 C 43.270 71.672, 61.882 70.065, 70.746 69.909 C 74.731 69.839, 80.896 70.359, 84.445 71.064 C 92.517 72.668, 97.952 71.336, 101.188 66.960 C 102.391 65.332, 103.669 64, 104.028 64 C 105.419 64, 107 69.324, 107 74.012 C 107 78.099, 107.531 79.535, 110.137 82.503 C 111.863 84.469, 114.110 86.524, 115.132 87.071 C 117.777 88.486, 155.046 91.933, 157.523 90.991 C 160.628 89.811, 162.181 87.430, 161.822 84.401 C 161.261 79.663, 156.416 78.075, 139.387 77.050 C 123.730 76.107, 119.681 75.218, 118.636 72.495 C 117.585 69.756, 117.919 57.481, 119.077 56.323 C 119.790 55.610, 121.471 55.543, 124.059 56.125 C 130.709 57.619, 148.291 56.694, 151.351 54.690 C 156.484 51.327, 153.752 45.860, 146.011 44.003 C 141.325 42.878, 123.127 43.186, 121.125 44.423 C 120.686 44.694, 119.353 44.235, 118.163 43.402 C 116.465 42.212, 116 40.872, 116 37.166 C 116 29.126, 111.476 25.524, 107 30 C 105.197 31.803, 105 33.333, 105 45.531 C 105 61.279, 104.917 61.400, 96.514 57.918 L 91 55.632 91 50.716 C 91 46.459, 90.545 45.345, 87.600 42.400 C 83.521 38.321, 82.673 38.236, 79.333 41.576 C 77.217 43.692, 76.850 44.808, 77.280 47.826 C 77.568 49.847, 78.068 52.175, 78.391 53 C 79.665 56.249, 77.503 57.046, 65.701 57.679 C 55.991 58.199, 53.960 58.059, 53.491 56.838 C 53.182 56.033, 55.420 51.222, 58.465 46.148 C 64.714 35.733, 65.565 31.210, 61.777 28.557 C 60.555 27.701, 59.318 27.061, 59.027 27.136 C 58.737 27.211, 57.534 27.461, 56.354 27.692 M 44.439 79.761 C 43.306 79.942, 41.591 81.422, 40.629 83.051 C 39.027 85.762, 38.925 88.822, 39.413 119.369 C 39.707 137.796, 40.394 153.906, 40.948 155.363 C 43.298 161.545, 47.471 156.838, 50.500 144.588 L 52.500 136.500 59.010 136.837 C 63.792 137.085, 66.951 136.631, 70.915 135.124 C 73.883 133.997, 76.743 133.341, 77.271 133.667 C 78.540 134.452, 77.586 142.589, 76 144.499 C 75.316 145.325, 73.717 146, 72.449 146 C 68.803 146, 66.703 148.785, 67.349 152.763 C 67.654 154.642, 68.410 156.789, 69.028 157.534 C 70.732 159.588, 80.150 161.274, 83.276 160.085 C 88.209 158.210, 88.428 156.767, 88.982 122.500 C 89.392 97.205, 89.797 90.053, 90.919 88.365 C 92.102 86.585, 92.123 85.711, 91.048 83.115 C 90.338 81.402, 89.249 79.957, 88.629 79.904 C 85.191 79.611, 46.172 79.485, 44.439 79.761 M 63.003 93.232 C 57.230 93.754, 52.222 94.640, 51.876 95.201 C 51.529 95.762, 51.467 97.072, 51.739 98.111 C 52.199 99.870, 54.444 100.486, 59 100.105 C 59.825 100.036, 63.580 100.628, 67.345 101.422 C 71.110 102.215, 74.822 102.622, 75.595 102.325 C 77.645 101.539, 77.497 93.405, 75.418 92.607 C 74.548 92.273, 73.761 92.064, 73.668 92.142 C 73.576 92.219, 68.776 92.710, 63.003 93.232 M 106.072 96.928 C 105.012 97.988, 103.826 100.981, 103.436 103.578 C 102.550 109.485, 103.515 149.392, 104.587 151.181 C 106.580 154.507, 112.029 157.334, 120.660 159.521 C 126.245 160.936, 130.026 161.143, 141.265 160.645 C 161.356 159.756, 163.149 158.375, 161.122 145.356 C 159.998 138.134, 157.833 134.222, 154.221 132.886 C 152.461 132.235, 151.675 132.567, 150.412 134.494 C 149.102 136.493, 149.005 137.766, 149.866 141.711 C 151.374 148.626, 150.125 149.345, 138 148.535 C 132.775 148.187, 126.925 147.519, 125 147.051 C 123.075 146.583, 120.239 145.916, 118.698 145.568 L 115.895 144.936 116.529 134.718 C 117.430 120.195, 117.420 120.205, 130.786 120.185 C 144.098 120.165, 149.201 118.931, 151.953 115.066 C 156.587 108.558, 151.186 106.629, 131.928 107.916 C 124.543 108.410, 118.112 108.445, 117.637 107.994 C 117.163 107.543, 116.377 105.049, 115.892 102.451 C 114.583 95.447, 110.084 92.916, 106.072 96.928 M 52.748 111.585 C 52.337 111.997, 52 114.476, 52 117.095 C 52 125.016, 54.242 125.948, 66 122.914 C 67.925 122.418, 70.890 122.009, 72.589 122.006 C 74.930 122.001, 75.961 121.380, 76.844 119.443 C 78.903 114.923, 77.052 113.355, 68.786 112.618 C 64.779 112.260, 59.699 111.713, 57.498 111.402 C 55.297 111.092, 53.159 111.174, 52.748 111.585" stroke="none" fill="black" fill-rule="evenodd"/>
</svg>