<svg xmlns="http://www.w3.org/2000/svg" width="256" height="256" viewBox="0 0 256 256" version="1.1">
	<path d="M 118.887 25.636 C 118.141 26.535, 117.298 29.573, 117.015 32.386 L 116.500 37.500 108.187 37.191 C 101.308 36.936, 99.107 37.254, 95.437 39.031 C 92.688 40.361, 91 41.846, 91 42.934 C 91 47.114, 99.313 50.557, 106.890 49.515 C 110.663 48.996, 112.067 49.209, 113.355 50.498 C 115.481 52.623, 115.428 53.572, 113.052 55.948 C 111.532 57.468, 109.742 57.890, 104.911 57.867 C 98.402 57.835, 97.044 58.656, 97.015 62.639 C 96.987 66.543, 100.063 68.927, 106 69.605 C 112.391 70.335, 112.224 70.254, 111.454 72.258 C 110.622 74.427, 107.832 74.971, 97.446 74.986 C 89.694 74.998, 87.646 74.628, 83.196 72.411 C 77.881 69.762, 77.662 69.445, 77.961 64.830 C 78.229 60.689, 75.373 56, 72.583 56 C 70.750 56, 69.851 56.916, 68.590 60.066 C 67.696 62.302, 67.217 64.543, 67.528 65.045 C 67.838 65.548, 67.626 66.830, 67.057 67.894 C 64.963 71.807, 51 72.669, 51 68.886 C 51 68.246, 52.800 63.969, 55 59.381 C 57.200 54.794, 59 50.651, 59 50.175 C 59 49.699, 59.823 48.565, 60.829 47.655 C 62.227 46.390, 64.648 46, 71.106 46 C 80.526 46, 84 44.527, 84 40.532 C 84 39.113, 82.734 37.113, 80.815 35.498 L 77.629 32.817 56.065 33.529 C 44.204 33.920, 33.938 34.691, 33.250 35.242 C 31.567 36.592, 31.662 41.475, 33.400 42.917 C 34.170 43.556, 37.658 44.537, 41.150 45.097 C 44.643 45.658, 47.889 46.502, 48.365 46.973 C 48.851 47.454, 48.128 49.295, 46.718 51.165 C 43.853 54.968, 40.663 63.680, 41.417 65.645 C 41.695 66.369, 39.925 68.987, 37.485 71.462 C 28.767 80.305, 30.401 84.276, 42.994 84.848 C 48.159 85.083, 51.330 85.692, 52.078 86.595 C 52.711 87.357, 53.465 90.918, 53.753 94.509 C 54.403 102.615, 52.809 105.134, 47.716 104.046 C 41.756 102.773, 34 106.158, 34 110.033 C 34 113.273, 36.787 114.345, 45.059 114.285 L 53 114.228 53.101 119.364 C 53.157 122.189, 53.379 126.300, 53.594 128.500 C 54.183 134.529, 52.550 136.806, 47.102 137.552 C 37.910 138.811, 34.980 139.984, 33.036 143.182 C 31.542 145.637, 31.381 146.743, 32.242 148.631 C 33.150 150.625, 34.048 150.998, 37.911 150.989 C 40.435 150.983, 44.709 150.308, 47.409 149.489 C 50.109 148.670, 53.487 148, 54.917 148 C 56.346 148, 59.762 146.800, 62.508 145.332 C 65.254 143.865, 69.499 142.288, 71.941 141.827 C 84.464 139.464, 83.456 129.328, 70.781 130.155 L 65.500 130.500 65.210 122.861 C 64.858 113.592, 65.954 111.916, 71.849 112.707 C 74.680 113.086, 77.343 112.534, 81.620 110.681 C 89.014 107.477, 100.909 106.058, 108.500 107.474 C 109.600 107.679, 110.805 107.881, 111.179 107.923 C 112.800 108.106, 115 111.338, 115 113.536 C 115 116.889, 112.268 118, 104.024 118 C 95.870 118, 92.247 120.053, 93.491 123.970 C 94.429 126.926, 98.438 128.211, 104.441 127.480 C 108.132 127.031, 110.041 127.267, 111.500 128.352 C 113.658 129.957, 113.860 131.931, 113.844 151.311 L 113.837 161.123 118.168 160.811 C 124.479 160.358, 125.996 156.880, 125.998 142.872 C 126 130.813, 126.961 128.750, 131.593 130.861 C 133.892 131.908, 133.982 132.161, 132.564 133.579 C 128.856 137.287, 132.183 143.206, 141.333 149.177 C 150.786 155.346, 153.183 155.908, 156.385 152.706 C 159.247 149.844, 159.052 148.202, 155.186 142.626 C 153.417 140.075, 150.374 137.684, 146.276 135.626 C 142.853 133.907, 140.040 132.151, 140.026 131.725 C 140.012 131.299, 141.101 130.532, 142.448 130.020 C 145.868 128.719, 148.197 124.755, 147.819 120.878 C 147.546 118.089, 146.992 117.483, 144 116.706 C 140.666 115.840, 134.004 116.232, 129.336 117.569 C 127.764 118.019, 126.865 117.615, 126.050 116.094 C 124.502 113.200, 126.186 110.367, 130.536 108.549 C 132.553 107.707, 134 106.395, 134 105.410 C 134 104.479, 131.940 101.716, 129.423 99.270 C 124.151 94.146, 122.112 94.113, 116.112 99.059 C 114.150 100.677, 111.972 102, 111.272 102 C 110.572 102, 110 102.528, 110 103.174 C 110 103.820, 108.833 103.258, 107.408 101.924 C 105.211 99.870, 104.896 98.891, 105.345 95.510 C 106.155 89.405, 108.945 87.669, 116.453 88.601 C 119.779 89.013, 125.693 89.384, 129.596 89.425 C 133.751 89.469, 137.325 90.026, 138.220 90.768 C 139.959 92.211, 141.153 101.458, 139.994 104.512 C 139.364 106.173, 140.067 107.065, 144.031 109.633 L 148.832 112.742 155.158 110.621 C 160.227 108.921, 161.670 107.962, 162.421 105.790 C 163.839 101.689, 161.765 98.226, 156.495 95.895 C 150.973 93.452, 150.534 90.803, 155.250 88.386 C 157.037 87.470, 158.831 86.221, 159.235 85.610 C 160.594 83.555, 160.015 80.323, 157.951 78.456 C 156.189 76.861, 153.780 76.551, 140.701 76.239 C 126.957 75.910, 119.973 74.860, 120.015 73.129 C 120.093 69.935, 126.391 67.726, 132.999 68.576 C 145.167 70.140, 149.422 69.151, 150.593 64.484 C 152.052 58.673, 148.767 57, 135.904 57 C 128.525 57, 126.826 56.710, 126.309 55.364 C 125.964 54.464, 126.140 53.002, 126.701 52.114 C 127.551 50.768, 129.812 50.500, 140.320 50.500 C 150.943 50.500, 153.194 50.228, 154.659 48.766 C 156.019 47.409, 156.191 46.451, 155.449 44.363 C 154.154 40.722, 148.752 39.014, 138.168 38.900 C 133.490 38.849, 129.063 38.578, 128.331 38.297 C 127.457 37.962, 127 35.986, 127 32.548 C 127 28.743, 126.500 26.857, 125.171 25.655 C 122.851 23.555, 120.620 23.548, 118.887 25.636 M 68.262 85.650 C 67.758 86.668, 67.416 88.400, 67.502 89.500 C 67.588 90.600, 67.735 93.669, 67.829 96.320 L 68 101.140 76.643 100.658 C 84.535 100.217, 85.490 99.937, 87.643 97.432 C 88.939 95.923, 90 94.192, 90 93.585 C 90 92.978, 90.900 91.919, 92 91.232 C 96.347 88.518, 94.101 87.263, 82.500 85.923 C 78.100 85.414, 73.302 84.729, 71.839 84.400 C 69.855 83.953, 68.944 84.272, 68.262 85.650 M 98.948 136.465 C 96.376 137.806, 93.856 140.021, 93.156 141.558 C 92.474 143.054, 90.807 145.150, 89.452 146.217 C 85.397 149.406, 84.543 151.838, 86.659 154.175 C 88.005 155.662, 89.297 156.051, 91.634 155.672 C 95.945 154.972, 106.774 146.363, 109.115 141.774 C 111.008 138.063, 111.007 138.007, 109.013 136.013 C 106.446 133.446, 104.580 133.530, 98.948 136.465" stroke="none" fill="black" fill-rule="evenodd"/>
</svg>