<svg xmlns="http://www.w3.org/2000/svg" width="256" height="256" viewBox="0 0 256 256" version="1.1">
	<path d="M 47 36.951 C 43.925 38.546, 40.786 41.060, 39.881 42.652 C 37.386 47.040, 36.560 64.032, 38.453 72.060 C 39.287 75.602, 39.977 81.258, 39.985 84.628 C 39.993 87.998, 40.692 92.411, 41.537 94.435 C 43.630 99.445, 43.169 105.768, 40.577 107.584 C 39.465 108.363, 36.968 109.014, 35.027 109.032 C 28.993 109.086, 26.542 112.406, 29.061 117.114 C 30.709 120.194, 33.671 120.834, 51.702 122.005 C 72.966 123.387, 72.076 123.391, 93.672 121.800 C 111.082 120.518, 118 120.877, 118 123.064 C 118 123.617, 117.273 125.180, 116.385 126.535 C 115.497 127.891, 115.228 129, 115.787 129 C 116.347 129, 117.307 130.443, 117.922 132.207 C 119.163 135.765, 122.728 140, 124.483 140 C 125.107 140, 128.600 142.896, 132.246 146.436 C 140.720 154.664, 143.359 156.378, 146.382 155.619 C 149.956 154.722, 150.193 152.581, 147.192 148.297 C 145.711 146.183, 143.623 142.889, 142.551 140.977 C 141.479 139.065, 139.553 136.375, 138.270 135 C 136.987 133.625, 135.703 131.600, 135.415 130.500 C 135.116 129.353, 132.723 127.434, 129.806 126 C 127.008 124.625, 124.821 123.100, 124.945 122.612 C 125.069 122.123, 124.622 121.385, 123.952 120.971 C 121.448 119.423, 141.495 116.679, 148.737 117.577 C 156.236 118.508, 160.452 117.497, 161.848 114.435 C 163.427 110.968, 161.001 106.247, 157.232 105.455 C 155.729 105.139, 153.825 104.524, 153 104.088 C 150.970 103.015, 150.558 95.738, 151.864 84 C 154.184 63.137, 155.092 43.295, 153.850 40.569 C 152.536 37.685, 152.243 37.589, 139.910 35.968 C 131.841 34.907, 131.035 34.973, 126.606 37.055 C 122.726 38.879, 121.452 39.071, 119.413 38.143 C 116.070 36.619, 102.984 35.494, 89 35.528 C 80.302 35.548, 76.253 36.012, 72.381 37.428 L 67.261 39.301 63.786 36.651 C 59.185 33.141, 54.167 33.231, 47 36.951 M 59.727 46.468 C 52.853 47.972, 50.425 49.919, 49.539 54.641 C 48.615 59.571, 50.152 61.078, 55.375 60.362 C 58.065 59.993, 60.866 60.335, 63.220 61.318 C 67.805 63.234, 68.514 62.479, 69.459 54.669 C 70.040 49.868, 69.857 48.500, 68.427 46.919 C 67.472 45.864, 66.422 45.046, 66.095 45.102 C 65.768 45.159, 62.902 45.773, 59.727 46.468 M 122.198 47.262 C 120.895 48.831, 120.731 54.279, 121.423 73 C 121.678 79.875, 122.024 89.454, 122.193 94.287 C 122.547 104.414, 122.973 104.962, 130.527 104.985 C 136.345 105.002, 138.762 103.592, 141.378 98.654 C 143.803 94.076, 142.994 92.002, 138.781 91.994 C 133.086 91.985, 127.986 90.063, 126.811 87.485 C 124.603 82.639, 129.218 77, 135.392 77 C 138.402 77, 141.247 73.774, 140.830 70.832 C 140.541 68.786, 139.795 68.424, 134.763 67.883 C 128.238 67.182, 126 65.782, 126 62.401 C 126 59.331, 129.250 57.342, 135.433 56.630 C 141.296 55.955, 143.505 54.148, 142.647 50.731 C 142.097 48.537, 141.358 48.228, 135.268 47.642 C 131.545 47.284, 127.348 46.732, 125.939 46.415 C 124.337 46.055, 122.936 46.372, 122.198 47.262 M 81.493 49.008 C 79.827 50.848, 79.791 51.324, 81.102 54.093 L 82.549 57.148 85.388 54.516 C 88.370 51.752, 89.605 51.691, 103.175 53.626 C 106.152 54.051, 107.053 53.769, 107.925 52.141 C 108.516 51.036, 109 49.925, 109 49.673 C 109 48.447, 104.525 47.743, 94.415 47.378 C 84.262 47.012, 83.175 47.149, 81.493 49.008 M 81.137 63.159 C 80.114 65.924, 80.888 70.020, 82.554 70.659 C 83.263 70.931, 84.802 70.641, 85.973 70.015 C 88.994 68.398, 100.478 68.593, 103.939 70.320 C 106.017 71.356, 107.141 71.459, 107.918 70.682 C 109.481 69.119, 109.247 65.450, 107.490 63.992 C 106.042 62.790, 104.576 62.864, 95.289 64.612 C 93.072 65.028, 90.728 64.563, 87.723 63.108 C 82.333 60.499, 82.120 60.501, 81.137 63.159 M 64.837 69.913 C 63.218 71.187, 60.418 71.993, 56.916 72.192 L 51.500 72.500 51.500 76.500 C 51.500 80.217, 51.712 80.519, 54.500 80.774 C 60.365 81.310, 61.982 82.065, 63.482 84.965 C 65.347 88.572, 65.423 92.039, 63.689 94.410 C 62.567 95.945, 59.951 96.645, 54.250 96.936 C 53.424 96.978, 53 98.707, 53 102.031 C 53 108.090, 53.526 108.397, 64 108.457 L 71.500 108.500 71.358 104.500 C 70.771 87.972, 69.256 69.856, 68.387 68.987 C 67.661 68.261, 66.579 68.543, 64.837 69.913 M 104 80.022 L 100.500 82.989 102.883 84.849 C 104.667 86.242, 105.388 87.983, 105.753 91.780 C 106.180 96.224, 105.927 97.164, 103.706 99.385 C 97.561 105.530, 91.109 103.077, 89.658 94.045 C 88.878 89.190, 89.008 88.601, 91.408 86.096 C 92.834 84.608, 94 83.113, 94 82.773 C 94 82.433, 92.313 81.612, 90.250 80.947 C 88.188 80.283, 86.035 79.374, 85.466 78.927 C 83.269 77.199, 81.680 79.663, 82.420 83.650 C 83.151 87.587, 83.182 95.391, 82.496 102.464 C 81.883 108.775, 82.464 109.004, 97.342 108.327 C 104.579 107.997, 111.029 107.312, 111.675 106.804 C 112.954 105.798, 112.606 98.902, 110.977 93 C 110.446 91.075, 110.002 87.700, 109.992 85.500 C 109.970 81.007, 109.088 76.986, 108.133 77.027 C 107.785 77.042, 105.925 78.389, 104 80.022 M 68.209 128.566 C 66.994 129.417, 66 130.791, 66 131.618 C 66 132.446, 62.255 136.808, 57.677 141.312 C 53.099 145.815, 48.596 150.664, 47.669 152.087 C 46.075 154.534, 46.085 154.792, 47.859 156.837 C 48.891 158.027, 50.540 159, 51.525 159 C 53.396 159, 61.800 152.851, 65.860 148.512 C 67.158 147.125, 69.739 145.269, 71.594 144.388 C 73.450 143.508, 75.894 141.290, 77.025 139.459 C 78.935 136.369, 78.976 135.877, 77.592 132.566 C 76.645 130.299, 75.428 129, 74.251 129 C 73.233 129, 71.954 128.554, 71.409 128.009 C 70.755 127.355, 69.668 127.544, 68.209 128.566" stroke="none" fill="black" fill-rule="evenodd"/>
</svg>