<svg xmlns="http://www.w3.org/2000/svg" width="256" height="256" viewBox="0 0 256 256" version="1.1">
	<path d="M 112.108 24.750 C 110.851 25.790, 109.639 28.445, 109.118 31.296 C 108.635 33.934, 107.924 36.409, 107.537 36.796 C 106.812 37.521, 83.482 37.852, 81.250 37.169 C 80.563 36.958, 80 35.462, 80 33.843 C 80 29.274, 77.364 25, 74.546 25 C 70.241 25, 68.433 28.118, 68.948 34.654 C 69.042 35.839, 68.529 37.180, 67.809 37.634 C 67.089 38.088, 59.653 38.693, 51.285 38.980 C 35.272 39.527, 33.987 39.914, 32.584 44.611 C 32.180 45.965, 32.648 47.577, 33.892 49.111 C 35.793 51.453, 36.151 51.500, 52.166 51.500 L 68.500 51.500 68.830 54.974 C 69.518 62.212, 68.094 66.679, 63.455 71.838 C 60.824 74.765, 58.162 79.159, 56.912 82.636 C 53.272 92.767, 50.933 96.983, 48.154 98.421 C 46.673 99.186, 43.168 102.071, 40.364 104.831 C 34.168 110.929, 33.862 113.619, 39.046 116.397 L 42.592 118.297 49.200 115.143 C 59.250 110.347, 60.175 111.379, 59.280 126.387 C 58.720 135.769, 60.158 150.153, 62.167 155.263 C 63.391 158.376, 67.270 159.851, 69.458 158.035 C 72.273 155.698, 73.036 147.301, 71.915 131 C 69.765 99.730, 69.709 93.940, 71.490 87 C 72.407 83.425, 73.742 77.463, 74.456 73.751 C 75.170 70.039, 76.178 66.439, 76.697 65.751 C 77.640 64.499, 79.418 58.853, 80.450 53.830 C 81.104 50.642, 83.489 49.936, 94.303 49.729 C 104.796 49.528, 106.500 50.806, 106.500 58.872 L 106.500 64.999 102.269 64.999 C 98.491 65, 97.963 65.294, 97.335 67.750 C 96.325 71.697, 96.448 80.440, 97.620 88.213 C 98.256 92.421, 98.304 97.758, 97.750 102.517 C 97.085 108.228, 97.255 112.371, 98.433 119.231 C 99.295 124.248, 100 131.005, 100 134.246 C 100 139.155, 100.500 140.866, 102.992 144.489 C 105.117 147.577, 106.929 149.040, 109.242 149.534 C 111.034 149.917, 112.950 150.559, 113.500 150.959 C 116.824 153.379, 128.368 155.316, 140 155.405 C 151.175 155.490, 152.949 155.260, 156.734 153.238 C 159.443 151.790, 161.197 150.063, 161.604 148.441 C 162.487 144.925, 161.325 138.558, 158.953 133.908 C 157.337 130.741, 156.418 130, 154.102 130 C 150.551 130, 149.375 131.376, 148.109 137.012 C 147.098 141.509, 144.925 144, 142.011 144 C 141.127 144, 135.026 142.872, 128.452 141.493 C 120.110 139.743, 116.018 138.408, 114.905 137.074 C 111.638 133.157, 109.391 111.227, 111.300 101.888 C 112.018 98.377, 112.186 98.263, 117.269 97.804 C 120.146 97.545, 125.425 97.595, 129 97.916 C 137.555 98.684, 150.955 97.610, 154.598 95.864 C 156.841 94.789, 157.500 93.796, 157.500 91.491 C 157.500 88.933, 156.970 88.335, 153.772 87.287 C 151.721 86.616, 145.196 85.787, 139.272 85.446 C 133.347 85.105, 126.367 84.155, 123.759 83.336 C 121.151 82.516, 117.329 81.991, 115.265 82.169 C 111.776 82.469, 111.385 82.222, 109.705 78.654 C 107.269 73.482, 107.687 65.673, 110.427 65.152 C 113.073 64.649, 115.760 61.229, 117.017 56.767 C 117.595 54.714, 118.923 52.576, 119.968 52.017 C 121.026 51.451, 128.884 50.998, 137.684 50.996 C 151.790 50.993, 153.858 50.774, 156.814 48.972 C 161.344 46.210, 160.995 42.252, 156 39.740 C 153.104 38.284, 149.960 37.996, 137.782 38.069 C 129.687 38.118, 122.576 37.856, 121.980 37.488 C 121.384 37.119, 120.988 35.621, 121.099 34.159 C 121.487 29.064, 120.986 27.065, 118.811 25.039 C 116.134 22.544, 114.839 22.488, 112.108 24.750" stroke="none" fill="black" fill-rule="evenodd"/>
</svg>