<svg xmlns="http://www.w3.org/2000/svg" width="256" height="256" viewBox="0 0 256 256" version="1.1">
	<path d="M 110.315 27.062 C 106.809 28.386, 105.986 31.242, 105.736 42.949 C 105.606 49.015, 105.275 53.855, 105 53.706 C 98.074 49.958, 94.988 50.398, 92.579 55.476 C 90.330 60.214, 88.268 61.084, 80.829 60.429 C 72.092 59.660, 70.381 59.238, 68.543 57.400 C 67.664 56.521, 65.147 55.561, 62.950 55.266 C 58.245 54.635, 56.188 56.109, 52.163 62.999 C 49.359 67.796, 47.554 70.220, 44.762 72.935 C 43.807 73.865, 42.752 75.988, 42.419 77.653 C 41.889 80.304, 42.168 80.818, 44.657 81.784 C 46.221 82.391, 48.400 83.031, 49.500 83.206 C 52.034 83.609, 53.416 91.544, 53.172 104.282 C 53.038 111.271, 53.309 113.181, 54.502 113.639 C 57.029 114.609, 56.171 116.536, 52.764 117.543 C 48.209 118.890, 47.032 121.994, 47.015 132.701 C 46.998 143.243, 48.490 151.652, 50.863 154.388 C 54.671 158.779, 57.877 159.200, 85.944 158.992 C 140.121 158.592, 141.637 158.546, 143.199 157.250 C 144.203 156.417, 144.953 153.084, 145.449 147.250 C 145.858 142.437, 146.376 136.700, 146.602 134.500 C 147.800 122.797, 146.575 118.163, 141.573 115.469 C 138.630 113.885, 137.359 113.820, 129.327 114.851 C 124.398 115.483, 115.852 116, 110.337 116 C 101.580 116, 100.081 116.253, 98.500 118 C 93.809 123.184, 103.158 125.459, 131.250 125.968 C 133.286 126.005, 133.630 129.270, 131.750 130.718 C 130.970 131.319, 126.471 131.365, 119.782 130.842 L 109.065 130.003 104.337 133.001 C 101.736 134.651, 99.022 136, 98.304 136 C 97.587 136, 97.113 136.563, 97.250 137.250 C 97.868 140.342, 101.062 141.048, 116.199 141.442 C 128.380 141.759, 131.689 142.145, 132.440 143.336 C 133.068 144.332, 132.958 145.346, 132.111 146.367 C 131.010 147.693, 125.911 147.908, 94.584 147.949 C 74.645 147.976, 58.049 147.716, 57.705 147.372 C 56.618 146.285, 59.886 141.171, 62.120 140.462 C 64.792 139.614, 82.511 139.580, 83.871 140.420 C 85.371 141.347, 92.688 139.455, 94.461 137.682 C 95.862 136.281, 95.386 135.823, 89.534 132.942 C 83.303 129.875, 82.720 129.776, 74.278 130.370 C 69.450 130.709, 64.375 131.102, 63 131.243 C 58.297 131.726, 59.941 129.501, 64.725 128.907 C 67.351 128.581, 68.514 128.244, 67.309 128.157 C 64.571 127.961, 63.188 126, 65.787 126 C 66.835 126, 69.095 125.301, 70.808 124.446 C 72.522 123.591, 76.114 122.545, 78.791 122.122 C 84.689 121.190, 88.927 118.640, 86.730 117.347 C 85.939 116.881, 84.790 115.543, 84.177 114.374 C 83.124 112.365, 83.349 112.213, 88.281 111.595 C 91.152 111.236, 104.750 110.707, 118.500 110.420 C 132.781 110.123, 144.695 109.433, 146.288 108.812 C 150.395 107.212, 151.407 104.678, 148.861 102.376 C 146.958 100.656, 145.214 100.525, 127.858 100.806 C 117.448 100.975, 108.046 100.832, 106.965 100.489 C 104.529 99.716, 104.366 97.021, 106.750 96.943 C 107.713 96.911, 114.575 96.868, 122 96.847 C 129.425 96.826, 136.239 96.612, 137.142 96.371 C 139.884 95.641, 140.125 92.034, 137.600 89.509 C 135.721 87.630, 133.792 87.118, 126.415 86.540 C 120.742 86.096, 116.476 86.235, 114.685 86.921 C 110.503 88.524, 106.520 88.232, 104.669 86.186 C 101.726 82.935, 104.378 82, 116.551 82 C 128.809 82, 133.583 80.888, 134.562 77.805 C 135.842 73.770, 133.167 72.798, 121.372 73.011 C 115.392 73.120, 109.640 73.184, 108.590 73.154 C 105.948 73.080, 104.757 70.815, 106.462 69.110 C 107.616 67.956, 109.364 67.913, 116.744 68.860 C 129.653 70.515, 134.374 70.349, 136.345 68.171 C 138.360 65.944, 138.466 63.632, 136.623 62.102 C 135.866 61.474, 130.128 60.546, 123.873 60.042 C 110.477 58.960, 107.909 58.471, 106.878 56.802 C 105.921 55.254, 105.948 55.230, 109.276 54.626 C 112.125 54.110, 116.758 51.201, 118.961 48.547 C 120.023 47.267, 123.052 47, 136.488 47 C 151.406 47, 152.945 46.831, 155.365 44.927 C 158.598 42.384, 158.976 37.592, 156.066 36.035 C 154.955 35.441, 147.063 35, 137.534 35 C 122.634 35, 120.873 34.821, 120.309 33.250 C 118.832 29.140, 113.520 25.851, 110.315 27.062 M 72 32 L 67.837 36 54.668 36.015 C 39.942 36.031, 36.686 36.947, 36.190 41.211 C 35.612 46.165, 38.913 47.173, 55.645 47.156 C 69.728 47.141, 70.504 47.246, 73.216 49.529 C 76.536 52.321, 77.819 52.041, 83.842 47.203 C 87.818 44.010, 88.140 43.412, 87.672 40.108 C 86.198 29.702, 85.114 28, 79.959 28 C 76.891 28, 75.365 28.767, 72 32 M 84 69.130 C 82.488 69.766, 78.301 69.932, 73.405 69.551 C 66.713 69.030, 65.083 69.195, 63.998 70.503 C 63.209 71.453, 63.048 72.448, 63.595 72.995 C 64.095 73.495, 70.513 73.989, 77.857 74.093 C 91.666 74.287, 93.393 73.812, 92.741 70 C 92.426 68.164, 87.472 67.671, 84 69.130 M 65.540 85.347 C 64.500 86.107, 64.125 86.959, 64.678 87.301 C 66.089 88.173, 90.164 88.344, 92.250 87.497 C 93.213 87.106, 94 86.159, 94 85.393 C 94 83.412, 68.243 83.371, 65.540 85.347 M 66.042 98.449 C 63.603 101.389, 65.983 102, 79.868 102 C 90.159 102, 94.106 101.643, 95.557 100.582 C 96.624 99.802, 97.123 98.789, 96.665 98.332 C 96.208 97.874, 89.404 97.384, 81.545 97.243 C 69.996 97.036, 67.023 97.267, 66.042 98.449 M 64.250 112.686 C 60.460 114.642, 59.706 117.596, 63.250 116.603 C 64.487 116.256, 67.525 115.704, 70 115.375 C 72.475 115.046, 76.300 114.174, 78.500 113.436 C 81.674 112.372, 81.984 112.084, 80 112.039 C 78.625 112.008, 75.250 111.764, 72.500 111.496 C 68.990 111.154, 66.531 111.509, 64.250 112.686" stroke="none" fill="black" fill-rule="evenodd"/>
</svg>