<svg xmlns="http://www.w3.org/2000/svg" width="256" height="256" viewBox="0 0 256 256" version="1.1">
	<path d="M 62 24.961 C 62 25.532, 61.663 25.911, 61.250 25.802 C 59.052 25.221, 55.580 27.767, 50.580 33.623 C 44.621 40.604, 43.666 42.765, 44.176 48.112 C 44.468 51.166, 44.839 51.532, 47.939 51.827 C 50.944 52.114, 51.924 51.559, 55.710 47.436 L 60.043 42.717 67.272 43.394 C 73.877 44.014, 89.885 44.798, 131.874 46.560 C 143.439 47.046, 147.836 46.891, 149.624 45.934 C 154.032 43.574, 151.939 38.194, 146 36.619 C 140.591 35.186, 109.629 33.040, 94 33.015 C 75.970 32.986, 71.740 32.263, 67.386 28.462 C 62.371 24.084, 62 23.844, 62 24.961 M 109.026 48.942 C 105.374 49.529, 103.043 52.510, 103.015 56.633 C 103.006 57.951, 102.198 58.976, 100.904 59.315 C 98.212 60.019, 95.755 59.080, 96.335 57.569 C 96.583 56.923, 96.199 55.001, 95.483 53.297 C 92.916 47.192, 83.298 48.284, 83.241 54.686 C 83.197 59.661, 83.037 60, 80.750 59.985 C 77.575 59.963, 75.856 58.646, 74.060 54.858 C 70.542 47.441, 62.653 47.621, 60.531 55.168 C 59.160 60.045, 58.634 60.443, 53.207 60.709 C 48.351 60.946, 43.735 63.520, 43.189 66.294 C 42.541 69.585, 46.610 72, 52.800 72 C 60.853 72, 62.088 73.543, 60.014 81.009 L 59.039 84.518 46.982 84.669 C 30.831 84.871, 26.866 87.248, 32.250 93.502 C 34.359 95.951, 35.210 96.152, 45.841 96.712 C 54.017 97.143, 57.326 97.687, 57.701 98.662 C 58.321 100.278, 55.431 105, 53.823 105 C 53.201 105, 51.151 106.800, 49.268 109 C 47.101 111.532, 44.993 113, 43.526 113 C 42.117 113, 39.970 114.409, 38.055 116.590 C 35.437 119.572, 35.116 120.435, 36.161 121.694 C 38.466 124.472, 41.647 124.999, 46.376 123.387 C 48.838 122.549, 52.313 122.006, 54.098 122.181 C 56.844 122.451, 57.403 122.954, 57.733 125.448 C 57.946 127.070, 58.994 129.008, 60.061 129.755 C 61.977 131.098, 62.880 137, 61.169 137 C 60.712 137, 59.744 138.110, 59.017 139.467 C 58.291 140.824, 55.965 143.081, 53.848 144.482 C 50.346 146.799, 50 147.427, 50 151.457 C 50 154.823, 50.504 156.240, 52.099 157.357 C 55.449 159.703, 59.208 157.646, 66.729 149.349 C 70.453 145.241, 75.075 141.046, 77 140.028 C 81.948 137.410, 86.776 132.367, 87.368 129.198 C 87.645 127.714, 88.152 124.369, 88.495 121.765 C 89.158 116.728, 91.627 114, 95.523 114 C 98.618 114, 100 115.944, 100 120.296 C 100 124.189, 97.391 134.833, 96.090 136.249 C 95.711 136.661, 95.589 138.605, 95.818 140.569 C 96.373 145.321, 99.575 146.680, 106.265 145.002 C 109.985 144.070, 112.178 144.077, 116.265 145.035 C 122.878 146.585, 123.615 147.199, 124.351 151.769 C 125.164 156.823, 127.569 160, 130.581 160 C 133.206 160, 134.672 157.512, 135.712 151.293 C 136.199 148.379, 136.655 148.024, 140.688 147.420 C 143.130 147.053, 146.960 147, 149.201 147.300 C 151.441 147.601, 154.337 147.442, 155.637 146.948 C 157.629 146.191, 158 145.356, 158 141.632 C 158 136.313, 157.422 136, 147.609 136 C 138.127 136, 136.760 134.970, 136.311 127.491 C 135.800 118.992, 137.408 117, 144.780 117 C 154.677 117, 158.969 115.034, 158.969 110.500 C 158.969 106.650, 157.332 105.608, 150.259 104.960 C 146.002 104.569, 141.248 103.317, 137.757 101.665 C 134.659 100.199, 131.853 99, 131.521 99 C 131.190 99, 129.628 99.955, 128.050 101.121 C 125.638 102.904, 124.009 103.201, 117.840 102.981 C 108.489 102.647, 103.963 102.639, 96.500 102.941 C 84.152 103.441, 70.857 102.285, 69.134 100.562 C 67.755 99.183, 67.720 98.792, 68.907 98.058 C 71.032 96.744, 94.422 95.890, 113 96.447 C 132.366 97.028, 132.121 97.026, 147.101 96.726 C 160.122 96.465, 162 95.680, 162 90.500 C 162 85.610, 159.933 84.574, 148.838 83.907 C 143.416 83.581, 138.722 83.056, 138.406 82.740 C 138.090 82.424, 137.587 80.336, 137.287 78.101 C 136.683 73.602, 136.515 73.738, 144.396 72.357 C 148.192 71.693, 149.483 70.977, 150.143 69.170 C 150.831 67.288, 150.434 66.280, 148.074 63.920 C 146.468 62.314, 144.107 60.986, 142.827 60.968 C 139.916 60.928, 136.578 58.492, 137.466 57.055 C 138.278 55.740, 132.740 50, 130.659 50 C 127.475 50, 126.030 51.331, 125.397 54.847 C 124.566 59.465, 123.344 61, 120.500 61 C 117.920 61, 115.507 58.606, 116.488 57.019 C 117.545 55.309, 115.991 50.057, 114.169 49.184 C 113.251 48.744, 110.937 48.635, 109.026 48.942 M 76.198 73.122 C 72.441 74.512, 70.358 83.433, 73.508 84.641 C 74.337 84.959, 76.529 84.936, 78.380 84.588 C 81.261 84.048, 81.825 83.467, 82.298 80.551 C 83.359 74.013, 81.130 71.298, 76.198 73.122 M 95.864 74.016 C 94.031 75.087, 92.625 80.859, 93.587 83.366 C 94.304 85.234, 99.066 85.570, 102.066 83.965 C 104.300 82.769, 104.795 76.195, 102.800 74.200 C 101.372 72.772, 98.140 72.687, 95.864 74.016 M 117.750 74.080 C 116.553 74.777, 116 76.342, 116 79.031 C 116 82.372, 116.369 83.054, 118.457 83.579 C 125.006 85.222, 129.447 79.447, 125.030 75.030 C 122.810 72.810, 120.457 72.503, 117.750 74.080 M 66.388 112.980 C 65.226 113.450, 63.120 115.310, 61.708 117.114 L 59.141 120.394 62.872 123.137 C 64.924 124.647, 67.258 125.785, 68.058 125.668 C 70.233 125.349, 74.477 122.144, 73.724 121.390 C 73.363 121.030, 74.178 119.862, 75.534 118.795 C 76.890 117.728, 78 116.375, 78 115.788 C 78 112.707, 71.158 111.053, 66.388 112.980 M 113.629 117.282 C 111.846 118.586, 111.520 120.559, 111.817 128.250 L 112 133 116.878 133 C 121.450 133, 125.279 130.946, 123.682 129.349 C 123.351 129.018, 123.772 127.407, 124.619 125.771 C 125.870 123.350, 125.936 122.260, 124.971 119.931 C 124.319 118.355, 123.046 116.885, 122.142 116.664 C 118.760 115.834, 115.262 116.088, 113.629 117.282" stroke="none" fill="black" fill-rule="evenodd"/>
</svg>