<svg xmlns="http://www.w3.org/2000/svg" width="256" height="256" viewBox="0 0 256 256" version="1.1">
	<path d="M 114.076 26.409 C 113.310 27.332, 113.137 29.554, 113.576 32.859 C 114.219 37.706, 114.142 37.926, 111.604 38.563 C 110.151 38.928, 107.827 39.009, 106.438 38.743 C 105.049 38.478, 97.821 38.677, 90.376 39.187 C 74.378 40.281, 73.848 40.075, 74.675 33.095 C 75.223 28.472, 75.149 28.304, 71.975 26.990 C 68.944 25.734, 68.580 25.801, 66.856 27.930 C 65.782 29.256, 65 31.809, 65 33.988 C 65 36.060, 64.382 38.268, 63.628 38.894 C 62.728 39.641, 57.996 39.952, 49.878 39.798 C 43.070 39.668, 36.556 39.895, 35.402 40.300 C 32.563 41.299, 30.684 45.540, 31.994 47.989 C 33.364 50.549, 34.471 50.760, 50.611 51.534 C 58.372 51.906, 65.157 52.501, 65.688 52.855 C 66.219 53.210, 67.420 55.876, 68.357 58.779 C 69.896 63.552, 69.917 64.479, 68.569 68.449 C 67.749 70.865, 66.806 75.014, 66.473 77.670 C 66.140 80.327, 65.647 83.272, 65.378 84.215 C 64.839 86.098, 60.033 87.359, 55.408 86.832 C 52.641 86.516, 52.497 86.258, 52.428 81.500 C 52.333 74.852, 51.388 72.338, 48.717 71.622 C 42.007 69.823, 39.512 72.284, 38.637 81.565 C 38.329 84.829, 37.787 89.662, 37.433 92.305 C 36.914 96.186, 37.147 97.506, 38.645 99.166 C 40.331 101.035, 41.231 101.162, 48.500 100.566 C 63.828 99.307, 66 99.652, 66 103.346 C 66 106.673, 63.997 108.028, 58.337 108.530 C 32.013 110.868, 31.696 110.969, 32.199 116.831 C 32.454 119.803, 33.006 120.503, 35.840 121.452 C 37.677 122.067, 39.643 123.398, 40.209 124.409 C 41.802 127.256, 40.373 134.324, 36.514 142.675 C 34.581 146.859, 33 151.536, 33 153.069 C 33 156.611, 35.370 159, 38.883 159 C 42.139 159, 44.893 156.645, 47.142 151.937 C 52.900 139.885, 53.418 138.290, 53.458 132.500 C 53.503 126.103, 54.316 124.870, 60.173 122.324 C 64.798 120.313, 65.449 122.333, 65.509 138.877 C 65.555 151.487, 65.829 153.947, 67.497 156.750 C 69.336 159.840, 70.590 160.476, 74 160.049 C 77.712 159.585, 78.039 157.257, 77.866 132.508 C 77.745 115.177, 78.058 107.355, 78.985 104.546 C 79.895 101.788, 80.079 97.669, 79.614 90.474 C 79.218 84.352, 79.384 78.309, 80.030 75.296 C 80.982 70.855, 80.867 69.888, 79.006 66.734 C 77.281 63.811, 77.028 62.266, 77.587 58.053 C 78.047 54.591, 78.863 52.609, 80.102 51.946 C 82.581 50.619, 106.806 50.581, 110.250 51.898 C 112.797 52.873, 113 53.364, 113 58.541 C 113 61.616, 112.572 64.931, 112.049 65.908 C 110.925 68.009, 110.383 81.627, 111.309 84.500 C 111.664 85.600, 111.586 87.086, 111.136 87.801 C 110.687 88.517, 105.184 90.013, 98.909 91.126 C 89.771 92.747, 87.052 93.623, 85.250 95.531 C 82.525 98.415, 82.429 100.073, 84.817 103.022 L 86.633 105.265 98.623 103.633 C 105.217 102.735, 111.132 102, 111.768 102 C 113.813 102, 114.893 109.147, 115.141 124.323 C 115.337 136.334, 115.109 139.318, 113.941 140.057 C 113.149 140.559, 108.858 140.976, 104.407 140.985 C 97.890 140.997, 95.457 141.452, 91.907 143.324 C 86.516 146.166, 85.397 149.949, 89.407 151.776 C 93.045 153.433, 128.435 154.390, 141.789 153.191 C 154.760 152.027, 158.307 150.479, 157.810 146.195 C 157.350 142.221, 154.018 141.184, 140.244 140.728 C 133.504 140.505, 127.764 140.097, 127.488 139.821 C 126.660 138.993, 126.584 107.681, 127.404 105.203 C 128.052 103.245, 128.633 102.999, 131.332 103.535 C 137.208 104.703, 140.474 104.859, 146.826 104.277 C 151.985 103.804, 153.435 103.266, 154.679 101.367 C 156.069 99.245, 156.036 98.745, 154.302 95.769 C 151.494 90.949, 146.736 89.667, 136.739 91.036 C 126.217 92.476, 125 91.538, 125 81.986 C 125 76.588, 124.439 74.170, 122.122 69.575 C 119.250 63.882, 119.247 63.857, 120.916 59.191 C 123.237 52.706, 125.052 52.032, 140.250 52.015 C 151.655 52.002, 153.211 51.789, 155 50 C 156.100 48.900, 157 47.170, 157 46.155 C 157 42.435, 153.932 41.263, 141 40.044 C 122.817 38.330, 123.644 38.627, 124.372 34.075 C 124.849 31.095, 124.528 29.669, 122.919 27.625 C 120.617 24.698, 116.020 24.066, 114.076 26.409" stroke="none" fill="black" fill-rule="evenodd"/>
</svg>