<svg xmlns="http://www.w3.org/2000/svg" width="256" height="256" viewBox="0 0 256 256" version="1.1">
	<path d="M 115.884 26.116 C 114.218 27.782, 113.878 29.051, 114.283 32.077 C 115.049 37.781, 113.850 38.304, 101.783 37.532 C 96.031 37.164, 88.721 37.322, 85.193 37.891 C 81.082 38.553, 77.998 38.569, 76.335 37.937 C 74.097 37.086, 73.860 36.558, 74.408 33.639 C 74.880 31.121, 74.524 29.665, 72.944 27.655 C 68.922 22.543, 65 25.120, 65 32.875 C 65 35.079, 64.513 37.183, 63.919 37.550 C 63.324 37.918, 56.611 38.291, 49.001 38.380 C 36.991 38.521, 34.889 38.791, 33.082 40.426 C 30.463 42.796, 30.415 46.160, 32.967 48.470 C 34.597 49.945, 37.243 50.314, 48.436 50.625 C 55.862 50.831, 62.847 51, 63.957 51 C 65.538 51, 66.115 51.864, 66.613 54.981 C 66.963 57.171, 67.844 59.455, 68.570 60.058 C 70.987 62.064, 74.407 60.692, 76.197 57 C 78.862 51.503, 79.328 51.268, 89.185 50.447 C 99.685 49.572, 103.866 49.705, 109.174 51.083 C 112.276 51.888, 113.112 52.725, 114.537 56.456 C 116.087 60.517, 116.395 60.780, 118.324 59.688 C 121.271 58.020, 123 56.321, 123 55.094 C 123 54.518, 124.078 53.340, 125.396 52.476 C 127.391 51.169, 129.707 51.021, 139.219 51.589 C 155.567 52.567, 160.773 50.476, 157.745 44.150 C 155.949 40.398, 151.211 39.122, 138.832 39.056 C 132.964 39.025, 127.452 38.727, 126.582 38.393 C 125.449 37.958, 125 36.448, 125 33.067 C 125 29.428, 124.471 27.851, 122.686 26.174 C 119.794 23.458, 118.553 23.447, 115.884 26.116 M 87.695 66.111 C 84.662 67.875, 83.984 71.301, 85.608 76.643 C 86.927 80.979, 86.906 82.941, 85.412 94.943 C 84.003 106.255, 83.928 109.743, 84.938 116.943 C 86.941 131.220, 89.962 143.656, 91.841 145.356 C 94.315 147.595, 106.476 152.973, 112.774 154.613 C 120.694 156.676, 140.717 158.391, 147.294 157.569 C 151.145 157.088, 153.969 156.068, 155.783 154.505 C 158.340 152.300, 158.485 151.722, 158.250 144.704 C 157.881 133.675, 154.550 127.056, 150.083 128.474 C 147.750 129.214, 146.463 134.303, 147.301 139.470 C 147.713 142.004, 147.367 143.263, 145.894 144.596 C 144.028 146.284, 143.333 146.285, 130.409 144.616 C 116.154 142.774, 111.813 141.619, 105.840 138.078 C 102.508 136.103, 102.017 135.220, 100.351 128.204 C 99.243 123.534, 98.526 116.759, 98.531 111 C 98.542 99.564, 99.932 84.166, 101.172 81.750 C 101.975 80.185, 103.906 80, 119.428 80 C 138.912 80, 138 79.618, 138 87.770 C 138 94.749, 134.888 98.669, 128.251 100.049 C 122.984 101.145, 119.614 103.341, 120.253 105.260 C 121.026 107.578, 129.722 110.965, 136.500 111.588 C 142.831 112.170, 143.684 112.027, 145.424 110.095 C 147.802 107.454, 149.951 97.588, 149.979 89.184 C 149.991 85.711, 150.464 82.002, 151.030 80.944 C 152.907 77.437, 152.499 72.055, 150.181 69.737 C 148.118 67.674, 147.098 67.581, 124.267 67.375 C 110.198 67.248, 99.351 66.719, 97.685 66.080 C 94.163 64.729, 90.049 64.741, 87.695 66.111 M 48.708 72.770 C 46.698 74.991, 46.487 78.925, 48.250 81.307 C 48.938 82.237, 51.525 83.579, 54 84.289 C 57.175 85.201, 59.089 86.512, 60.500 88.740 C 64.314 94.763, 67.623 93.786, 71.553 85.479 C 76.246 75.560, 73.627 72.540, 59.458 71.528 C 51.381 70.951, 50.234 71.084, 48.708 72.770 M 46.202 96.221 C 38.119 99.788, 38.336 105.564, 46.660 108.400 C 54.589 111.101, 59.517 110.401, 61.056 106.354 C 62.105 103.593, 59.663 97.493, 57.086 96.440 C 52.211 94.448, 50.307 94.409, 46.202 96.221 M 43.982 141.081 C 38.812 146.485, 36 150.223, 36 151.689 C 36 154.533, 40.144 157.406, 42.957 156.514 C 47.036 155.219, 68 138.337, 68 136.347 C 68 134.518, 67.135 134.233, 59.212 133.452 L 51.963 132.738 43.982 141.081" stroke="none" fill="black" fill-rule="evenodd"/>
</svg>