<svg xmlns="http://www.w3.org/2000/svg" width="256" height="256" viewBox="0 0 256 256" version="1.1">
	<path d="M 114.316 27.410 C 113.317 28.726, 111.733 31.197, 110.797 32.902 C 109.549 35.171, 108.345 36.022, 106.297 36.083 C 84.521 36.731, 75.994 36.429, 75.885 35.004 C 75.821 34.177, 75.665 33.050, 75.537 32.500 C 75.409 31.950, 75.236 30.785, 75.152 29.911 C 74.962 27.926, 70.375 25.746, 67.985 26.505 C 66.348 27.024, 64.397 31.317, 64.871 33.355 C 64.981 33.826, 64.549 34.838, 63.913 35.605 C 63.020 36.680, 59.449 37, 48.332 37 C 34.291 37, 33.843 37.066, 31.416 39.493 C 29.471 41.438, 29.139 42.391, 29.907 43.826 C 32.150 48.017, 33.870 48.491, 47.902 48.782 C 55.381 48.936, 62.507 49.281, 63.738 49.548 C 65.112 49.845, 66.804 51.667, 68.122 54.266 C 70.351 58.662, 71.627 59.959, 73.750 59.985 C 75.856 60.010, 79 56.141, 79 53.523 C 79 49.226, 82.379 48.019, 95.175 47.746 C 108.290 47.466, 111.321 48.439, 113.489 53.628 C 114.227 55.394, 115.772 57.343, 116.922 57.958 C 119.092 59.120, 120.425 58.193, 125.240 52.175 C 126.214 50.958, 128.197 49.957, 129.740 49.903 C 131.258 49.849, 137.398 49.737, 143.385 49.653 C 153.996 49.504, 154.322 49.431, 156.315 46.770 C 158.108 44.377, 158.197 43.737, 157.039 41.574 C 156.313 40.216, 154.995 38.754, 154.109 38.325 C 153.224 37.895, 145.980 37.308, 138.011 37.022 C 124.494 36.535, 123.502 36.366, 123.222 34.500 C 122.428 29.207, 121.758 27.926, 119.051 26.527 C 116.283 25.095, 116.038 25.141, 114.316 27.410 M 96.266 56.854 C 95.105 57.759, 93.631 60.494, 92.991 62.930 C 92.195 65.957, 90.270 68.950, 86.913 72.378 C 84.211 75.137, 82 77.724, 82 78.126 C 82 78.528, 81.269 79.588, 80.377 80.480 C 77.821 83.036, 77.736 89.736, 80.228 92.228 L 82.304 94.304 85.125 90.902 C 86.677 89.031, 87.958 87.197, 87.973 86.828 C 87.988 86.458, 89.621 85.620, 91.603 84.966 C 96.292 83.419, 97.658 84.748, 98.572 91.750 C 99.228 96.771, 99.157 97, 96.939 97 C 93.723 97, 83.472 98.909, 77.635 100.595 C 70.273 102.721, 68.540 102.376, 62.706 97.625 C 59.752 95.218, 56.389 92.743, 55.233 92.125 C 52.168 90.484, 42.329 90.750, 38.478 92.577 C 33.641 94.873, 33.244 96.984, 37.048 100.171 C 41.793 104.147, 52.292 106.424, 62.374 105.663 C 70.398 105.057, 70.544 105.088, 74 108.127 C 75.925 109.819, 78.731 111.841, 80.236 112.620 C 81.740 113.399, 83.261 115.192, 83.616 116.605 C 84.394 119.708, 83.280 133.133, 81.954 136.620 C 81.001 139.127, 81.951 145.255, 84.228 151.297 C 86.137 156.363, 88.298 156.759, 116.096 157.145 C 143.793 157.529, 144.325 157.439, 145.440 152.181 C 145.973 149.666, 147.207 127.336, 147.301 118.500 C 147.350 113.819, 148.196 113.036, 153.224 113.015 C 156.364 113.002, 157.198 112.517, 158.539 109.924 C 159.987 107.124, 159.989 106.632, 158.558 104.448 C 156.632 101.508, 147.722 97.028, 139 94.613 C 130.731 92.324, 129.472 91.656, 129.625 89.641 C 129.694 88.738, 129.806 86.668, 129.875 85.039 C 130.037 81.190, 133.420 78.116, 138.364 77.326 C 142.723 76.629, 146.292 73.738, 145.811 71.294 C 145.640 70.424, 144.268 68.793, 142.763 67.670 C 140.376 65.890, 138.032 65.556, 124.426 65.058 L 108.827 64.488 105.163 60.364 C 100.730 55.372, 99.026 54.700, 96.266 56.854 M 48.571 65.571 C 45.657 68.486, 46.659 72.002, 51.750 76.724 C 55.944 80.614, 56.910 81.068, 60 80.599 C 64.192 79.962, 68.067 75.973, 67.309 73.073 C 66.735 70.877, 55.158 64, 52.037 64 C 50.995 64, 49.436 64.707, 48.571 65.571 M 106 77.385 C 106 81.121, 114.799 83.347, 118.559 80.562 C 120.477 79.141, 120.476 79.106, 118.500 77.594 C 115.861 75.575, 106 75.410, 106 77.385 M 107.083 102.578 C 104.103 105.072, 100.166 107.740, 98.333 108.505 C 96.092 109.442, 95 110.570, 95 111.949 C 95 113.836, 95.604 114, 102.559 114 C 106.716 114, 109.875 113.606, 109.577 113.125 C 108.761 111.805, 116.017 110.986, 120 111.949 C 121.925 112.415, 122.862 112.841, 122.083 112.898 C 119.136 113.111, 121.860 113.988, 128.298 114.900 C 132.526 115.499, 136.247 115.495, 138.443 114.888 C 141.418 114.067, 141.799 113.631, 141.128 111.817 C 140.698 110.655, 138.806 108.912, 136.923 107.944 C 129.782 104.272, 124.213 102, 122.352 102 C 121.291 102, 118.658 101.100, 116.500 100 C 114.342 98.900, 112.560 98.010, 112.539 98.022 C 112.517 98.033, 110.062 100.084, 107.083 102.578 M 98.352 127.993 C 97.171 128.470, 95.865 129.410, 95.449 130.082 C 94.210 132.087, 94.942 141.370, 96.458 142.887 C 98.162 144.590, 130.618 145.728, 132.892 144.164 C 134.494 143.062, 135.313 132.124, 133.958 129.932 C 132.522 127.609, 103.254 126.016, 98.352 127.993 M 41.354 147.692 C 40.174 147.923, 38.393 149.013, 37.396 150.114 C 34.802 152.981, 36.624 155.419, 41.644 155.797 C 46.449 156.160, 50.532 153.253, 49.553 150.166 C 49.031 148.522, 45.727 146.727, 44 147.150 C 43.725 147.217, 42.534 147.461, 41.354 147.692" stroke="none" fill="black" fill-rule="evenodd"/>
</svg>