<svg xmlns="http://www.w3.org/2000/svg" width="256" height="256" viewBox="0 0 256 256" version="1.1">
	<path d="M 118.019 25.210 C 116.945 26.975, 115.790 29.679, 115.452 31.218 C 115.114 32.757, 114.060 34.433, 113.110 34.941 C 112.160 35.449, 103.309 35.774, 93.441 35.662 L 75.500 35.458 75.815 31.843 C 76.083 28.767, 75.669 27.900, 73.030 26.021 C 70.432 24.172, 69.675 24.025, 68.361 25.116 C 66.664 26.524, 64.932 30.300, 64.516 33.500 C 64.372 34.600, 64.198 35.837, 64.128 36.250 C 64.057 36.663, 59.028 37, 52.950 37 C 40.264 37, 36 38.384, 36 42.503 C 36 46.567, 39.578 48.009, 51.127 48.598 C 65.164 49.314, 65.169 49.315, 68.912 54.527 C 73.176 60.465, 75.945 60.388, 77.456 54.290 C 78.030 51.974, 79.012 49.571, 79.639 48.951 C 80.352 48.244, 85.780 47.763, 94.182 47.661 C 109.575 47.476, 112.292 48.411, 113.391 54.269 C 114.936 62.507, 120.269 63.298, 123.524 55.771 C 126.555 48.766, 128.044 48.048, 139.601 48.022 C 154.905 47.989, 159.809 45.400, 156.541 39.080 C 154.501 35.133, 152.660 34.717, 139.128 35.139 L 127.534 35.500 126.751 30 C 125.575 21.736, 121.493 19.497, 118.019 25.210 M 92.675 54.343 C 91.754 55.478, 91 57.205, 91 58.180 C 91 62.878, 79.141 65.050, 54.848 64.801 C 41.611 64.666, 38.796 64.904, 36.598 66.344 C 33.490 68.380, 33.192 71.958, 35.924 74.431 C 38.382 76.656, 58.510 78.137, 74.715 77.287 C 82.516 76.877, 86.355 77.049, 87.322 77.852 C 88.690 78.988, 90.462 91.808, 90.231 98.904 C 90.029 105.118, 85.933 105.551, 75.373 100.471 L 68.037 96.942 68.643 91.139 C 69.492 83.020, 68.162 80.797, 62.693 81.196 C 59.168 81.452, 58.295 81.969, 57.105 84.500 C 56.330 86.150, 54.639 88.772, 53.348 90.327 C 52.056 91.881, 51 93.772, 51 94.527 C 51 95.283, 50.364 96.260, 49.587 96.700 C 47.679 97.780, 44.001 107.709, 44.001 111.781 C 44 117.485, 48.092 116.755, 55.034 109.813 C 56.580 108.266, 58.470 107, 59.233 107 C 61.280 107, 75 113.936, 75 114.971 C 75 115.458, 74.395 116.462, 73.656 117.201 C 72.917 117.940, 71.120 120.434, 69.662 122.744 C 68.204 125.053, 65.546 127.700, 63.755 128.626 C 57.146 132.043, 45.947 141.732, 42.890 146.678 C 40.198 151.033, 40.674 155.383, 43.891 155.838 C 47.335 156.325, 53.872 153.229, 58.500 148.919 C 60.700 146.870, 65.425 142.876, 69 140.042 C 72.575 137.208, 76.545 133.565, 77.822 131.945 C 79.100 130.325, 80.772 129, 81.538 129 C 82.304 129, 84.468 127.650, 86.347 126 C 88.226 124.350, 90.053 123, 90.407 123 C 92.245 123, 92.788 128.600, 91.875 138.140 C 90.714 150.264, 91.312 155.884, 94.078 158.854 C 96.683 161.650, 98.528 161.563, 101.592 158.498 C 104.043 156.048, 104.091 155.707, 103.942 141.783 C 103.847 132.791, 104.169 127.444, 104.821 127.226 C 106.365 126.712, 112.906 131.240, 113.575 133.288 C 114.352 135.668, 119.944 139.081, 128.500 142.396 C 132.350 143.888, 138.805 146.705, 142.845 148.656 C 151.290 152.734, 156.539 153.351, 158.616 150.510 C 159.377 149.469, 160 147.864, 160 146.944 C 160 142.501, 151.423 136.333, 141.092 133.348 C 131.740 130.646, 125.696 127.532, 121.244 123.124 C 115.263 117.203, 115.600 115.720, 123.846 111.644 L 130.693 108.260 136.364 110.652 C 144.897 114.250, 150.265 114.735, 152.858 112.142 C 154.167 110.833, 154.720 109.380, 154.331 108.273 C 153.556 106.072, 148.946 101, 147.721 101 C 147.223 101, 145.671 100.100, 144.273 99 C 142.874 97.900, 140.466 97, 138.922 97 C 135.793 97, 133 93.893, 133 90.412 C 133 89.234, 132.100 87.126, 131 85.727 C 129.900 84.329, 129 82.693, 129 82.092 C 129 81.492, 127.937 81, 126.637 81 C 124.729 81, 123.671 82.226, 121.137 87.373 C 119.412 90.878, 118 94.230, 118 94.821 C 118 95.413, 116.875 97.111, 115.500 98.595 C 114.125 100.078, 113 101.909, 113 102.662 C 113 104.823, 106.256 107.651, 104.196 106.354 C 102.768 105.455, 102.456 103.226, 102.222 92.261 C 102.011 82.400, 102.254 79.118, 103.222 78.752 C 103.925 78.486, 109.225 78.656, 115 79.130 C 121.422 79.657, 127.248 79.619, 130 79.032 C 132.475 78.505, 138.951 77.834, 144.392 77.542 C 149.832 77.249, 154.894 76.503, 155.642 75.883 C 157.596 74.260, 157.313 69.313, 155.142 67.142 C 153.412 65.412, 151.590 65.308, 128.687 65.634 L 104.090 65.984 103.050 62.242 C 102.479 60.184, 102.009 58.007, 102.006 57.405 C 101.998 55.913, 98.955 53.392, 96.425 52.780 C 95.092 52.458, 93.750 53.017, 92.675 54.343" stroke="none" fill="black" fill-rule="evenodd"/>
</svg>