<svg xmlns="http://www.w3.org/2000/svg" width="256" height="256" viewBox="0 0 256 256" version="1.1">
	<path d="M 120.780 23.064 C 119.231 23.966, 116.373 31.353, 116.831 33.272 C 117.479 35.993, 102.593 36.652, 76.750 35.047 C 76.338 35.021, 76 33.443, 76 31.539 C 76 27.526, 72.671 23.759, 69.525 24.211 C 67.196 24.545, 64.119 30.185, 64.048 34.250 C 64.004 36.794, 63.018 37.563, 60.500 37.022 C 59.950 36.903, 55.526 36.814, 50.668 36.823 C 40.696 36.841, 37.664 38.329, 38.203 42.940 C 38.636 46.650, 42.485 48.025, 52.642 48.100 C 57.480 48.135, 62.238 48.592, 63.216 49.116 C 64.194 49.639, 65.900 51.845, 67.009 54.017 C 70.386 60.637, 77.138 60.406, 78.410 53.628 C 78.764 51.743, 79.654 49.702, 80.388 49.093 C 82.103 47.670, 106.587 47.512, 110.240 48.901 C 111.780 49.487, 113.766 51.581, 114.914 53.831 C 118.096 60.069, 122.271 60.103, 126.550 53.927 C 129.833 49.190, 132.536 48.450, 148 48.052 C 153.435 47.912, 156.250 46.004, 156.250 42.459 C 156.250 37.500, 154.031 36.547, 141.216 36 L 129.500 35.500 128.851 30.184 C 128.010 23.293, 124.977 20.617, 120.780 23.064 M 93.615 57.465 C 90.498 62.221, 89.172 62.427, 61.303 62.464 C 33.397 62.502, 31.739 62.776, 33.988 66.977 C 36.137 70.994, 40.566 72.108, 62.750 74.215 C 63.438 74.280, 64 74.671, 64 75.083 C 64 75.496, 63.438 76.023, 62.750 76.254 C 61.863 76.552, 61.575 78.922, 61.759 84.419 C 61.999 91.609, 62.393 93.199, 64.849 96.869 C 65.579 97.960, 71.809 98.330, 95.409 98.688 C 130.364 99.218, 131.575 99.020, 132.536 92.606 C 132.889 90.256, 133.025 85.118, 132.839 81.189 C 132.508 74.212, 132.560 74.031, 135.074 73.481 C 136.490 73.172, 140.552 73.026, 144.100 73.157 C 147.649 73.288, 151.103 73.054, 151.776 72.638 C 152.449 72.222, 153 70.388, 153 68.562 C 153 63.395, 150.305 62.786, 126.242 62.526 C 114.834 62.403, 104.744 61.973, 103.820 61.571 C 102.896 61.169, 101.682 59.526, 101.122 57.920 C 99.808 54.152, 95.940 53.917, 93.615 57.465 M 69 74.019 L 64.500 74.538 68 75.159 C 71.043 75.699, 80.136 75.687, 118.500 75.093 C 124.068 75.007, 126.044 74.675, 125 74 C 123.472 73.012, 77.589 73.028, 69 74.019 M 73.816 86.114 C 70.330 88.268, 75.786 88.921, 98.388 89.055 C 117.385 89.166, 122.431 88.921, 123.090 87.855 C 123.652 86.946, 123.257 86.269, 121.865 85.754 C 119.155 84.752, 75.491 85.079, 73.816 86.114 M 42.123 101.348 C 36.048 103.593, 34.764 106.271, 35.274 115.635 C 35.678 123.059, 35.987 124.083, 38.534 126.443 C 40.081 127.878, 41.831 128.894, 42.424 128.703 C 44.035 128.182, 48.299 119.860, 48.406 117.028 C 48.487 114.906, 49.139 114.440, 53 113.742 C 55.475 113.294, 76.710 113.091, 100.188 113.290 C 145.551 113.676, 146 113.726, 146 118.467 C 146 120.704, 148.784 124, 150.674 124 C 153.152 124, 158 113.956, 158 108.822 C 158 103.012, 145.858 100.016, 130.266 101.978 C 125.035 102.637, 115.523 103.046, 109.128 102.888 C 102.733 102.730, 92.908 102.726, 87.294 102.880 C 81.681 103.034, 74.706 102.705, 71.794 102.149 C 62.720 100.415, 45.877 99.961, 42.123 101.348 M 72 119.124 C 60.284 120.602, 58.931 121.316, 61.139 124.851 C 63.075 127.950, 66.573 128.624, 84.318 129.315 C 90.269 129.547, 95.534 130.134, 96.018 130.618 C 97.369 131.970, 95.163 140.197, 92.765 142.750 C 91.387 144.217, 89.483 145, 87.294 145 C 85.175 145, 83.716 145.575, 83.339 146.560 C 82.263 149.363, 93.599 158, 98.354 158 C 101.288 158, 104.781 155.775, 105.987 153.140 C 106.651 151.688, 107.571 146.502, 108.032 141.615 C 108.493 136.729, 109.315 132.285, 109.860 131.740 C 110.654 130.946, 121.485 129.322, 127.765 129.054 C 129.087 128.998, 132.990 123.296, 132.996 121.411 C 133.005 118.724, 127.647 118.148, 103.363 118.225 C 89.688 118.268, 75.575 118.673, 72 119.124" stroke="none" fill="black" fill-rule="evenodd"/>
</svg>