<svg xmlns="http://www.w3.org/2000/svg" width="256" height="256" viewBox="0 0 256 256" version="1.1">
	<path d="M 117.809 21.678 C 116.222 22.096, 113.467 28.029, 112.783 32.500 C 112.526 34.181, 111.443 34.604, 105.989 35.150 C 100.404 35.710, 80.980 36.342, 77.250 36.086 C 76.501 36.034, 76 34.578, 76 32.455 C 76 28.677, 72.442 24, 69.569 24 C 67.428 24, 65.175 27.821, 64.684 32.282 C 64.456 34.363, 63.946 36.388, 63.551 36.782 C 63.156 37.177, 58.483 37.505, 53.166 37.510 C 45.419 37.518, 42.954 37.889, 40.750 39.375 C 37.409 41.629, 37.088 45.442, 40.104 47.055 C 43.334 48.784, 53.160 49.885, 57.796 49.037 C 63.180 48.053, 65.411 49.605, 66.855 55.339 C 67.742 58.861, 68.597 60.005, 71.127 61.053 C 74.098 62.283, 74.434 62.196, 76.645 59.626 C 78.072 57.968, 79 55.610, 79 53.644 C 79 51.860, 79.540 49.860, 80.200 49.200 C 81.507 47.893, 96.001 47.480, 95.998 48.750 C 95.997 49.163, 98.656 49.350, 101.907 49.166 C 109.314 48.747, 111.648 49.978, 113.005 55.020 C 114.334 59.956, 117.514 62.247, 121.836 61.383 C 124.537 60.843, 125 60.315, 125 57.776 C 125 56.141, 125.709 53.308, 126.576 51.481 L 128.152 48.160 140.543 47.830 C 150.465 47.566, 153.266 47.168, 154.597 45.835 C 156.279 44.150, 156.066 41.119, 154.046 38 C 152.847 36.148, 135.555 35.262, 131.078 36.823 C 126.829 38.304, 124.503 36.315, 124.828 31.479 C 125.001 28.916, 124.360 26.683, 122.790 24.377 C 121.531 22.527, 120.275 21.063, 120 21.123 C 119.725 21.183, 118.739 21.433, 117.809 21.678 M 93.427 51.765 C 92.138 52.648, 90.841 55.610, 90.288 58.933 C 89.623 62.924, 85.472 64.845, 79 64.155 C 76.946 63.936, 73.814 63.949, 56.823 64.245 C 43.629 64.474, 41.862 64.715, 39.323 66.629 C 36.558 68.714, 36.502 68.951, 36.616 78.194 C 36.738 88.095, 37.923 92.015, 40.785 91.978 C 44.541 91.929, 49 86.344, 49 81.688 C 49 76.505, 48.962 76.510, 95.905 76.374 C 123.616 76.294, 139.955 76.612, 140.750 77.246 C 141.438 77.796, 142 80.237, 142 82.672 C 142 89.873, 145.978 95.901, 150.775 95.968 C 153.989 96.013, 155.193 92.330, 155.705 80.881 C 156.463 63.959, 154.357 61.989, 137.336 63.696 C 127.352 64.697, 107.587 64.656, 104.379 63.627 C 102.910 63.156, 101.735 61.288, 100.561 57.554 C 98.709 51.668, 96.357 49.759, 93.427 51.765 M 79.500 79.004 C 65.465 79.549, 62 80.607, 62 84.350 C 62 85.959, 63.003 87.108, 65.411 88.256 C 68.308 89.638, 73.070 89.885, 97.057 89.898 C 113.854 89.908, 126.043 89.512, 127.146 88.922 C 128.322 88.292, 129 86.827, 129 84.914 C 129 82.454, 128.401 81.650, 125.750 80.553 C 121.980 78.993, 99.336 78.235, 79.500 79.004 M 63.500 93.600 C 59.559 95.786, 59.377 95.986, 60.582 96.804 C 61.145 97.187, 62.562 99.076, 63.731 101.002 C 65.382 103.721, 65.620 104.928, 64.797 106.398 C 64.120 107.607, 64.014 110.675, 64.501 114.895 C 65.375 122.452, 65.368 125.058, 64.464 130.088 C 63.337 136.355, 64.731 136.883, 81.746 136.636 C 89.861 136.519, 102.800 136.772, 110.500 137.199 C 129.703 138.263, 128.964 138.554, 128.884 129.950 C 128.847 126.086, 129.255 122.379, 129.788 121.712 C 130.548 120.764, 130.780 103.774, 130.123 97.285 C 129.828 94.370, 125.373 93.712, 104.549 93.510 C 92.972 93.397, 79.675 92.998, 75 92.621 C 68.034 92.060, 65.959 92.237, 63.500 93.600 M 75.771 104.280 C 73.222 105.223, 74.345 106.667, 78.567 107.872 C 80.180 108.333, 89.409 108.803, 99.076 108.917 C 114.156 109.095, 116.841 108.897, 117.983 107.520 C 120.793 104.135, 117.855 103.565, 97.422 103.532 C 86.675 103.514, 76.932 103.851, 75.771 104.280 M 75.608 120.697 C 74.174 121.449, 73 122.511, 73 123.057 C 73 125.123, 78.094 125.761, 97.500 126.125 C 117.428 126.499, 117.501 126.492, 117.811 124.318 C 117.999 122.994, 117.409 121.764, 116.311 121.190 C 115.315 120.670, 106.336 120.039, 96.358 119.788 C 82.250 119.432, 77.637 119.634, 75.608 120.697 M 73.910 142.390 C 73.586 142.732, 67.511 143.047, 60.410 143.090 C 44.959 143.182, 40.348 144.143, 38.774 147.596 C 37.780 149.777, 37.978 150.432, 40.340 152.796 C 42.972 155.429, 43.349 155.500, 54.771 155.486 C 61.222 155.478, 74.537 155.126, 84.360 154.703 C 96.366 154.187, 104.888 154.308, 110.360 155.073 C 114.837 155.700, 124.516 156.163, 131.870 156.103 C 143.668 156.006, 145.700 155.735, 149.152 153.795 C 153.508 151.346, 155.109 147.681, 152.822 145.393 C 151.730 144.301, 147.434 143.846, 134.942 143.500 C 125.899 143.250, 108.600 142.757, 96.500 142.406 C 84.400 142.054, 74.235 142.047, 73.910 142.390" stroke="none" fill="black" fill-rule="evenodd"/>
</svg>