<svg xmlns="http://www.w3.org/2000/svg" width="256" height="256" viewBox="0 0 256 256" version="1.1">
	<path d="M 66.557 29.223 C 65.701 30.445, 64.993 32.132, 64.985 32.973 C 64.948 36.623, 63.419 37.170, 52.191 37.552 C 38.539 38.015, 34 39.571, 34 43.788 C 34 48.047, 37.110 49, 51.012 49 C 64.032 49, 65 49.445, 65 55.434 C 65 57.974, 64.918 58, 57.047 58 C 46.616 58, 44.499 59.051, 42.120 65.410 C 38.910 73.987, 39.291 104.294, 42.656 108.125 C 43.579 109.175, 46.589 109.997, 51.169 110.448 C 55.066 110.832, 59.426 111.592, 60.857 112.136 C 63.635 113.192, 72.349 112.036, 81.365 109.414 C 84.040 108.636, 87.703 108, 89.504 108 C 91.305 108, 93.788 107.182, 95.022 106.183 C 96.892 104.669, 97.080 104.019, 96.150 102.281 C 95.195 100.496, 94.356 100.266, 90.339 100.684 C 85.227 101.217, 76.995 100.293, 77.008 99.189 C 77.023 97.861, 84.542 94.239, 88.745 93.536 C 91.079 93.146, 93.243 92.415, 93.554 91.913 C 94.401 90.543, 98.739 90.814, 101.869 92.432 C 104.068 93.569, 105.119 93.621, 106.971 92.682 C 109.423 91.439, 110.133 90.411, 111.947 85.472 C 113.831 80.340, 115.672 79.854, 134.722 79.465 C 148.494 79.184, 152.695 78.775, 154.593 77.531 C 157.563 75.585, 157.747 71.747, 155 69 C 152.674 66.674, 153.243 66.749, 136.837 66.608 C 129.873 66.549, 123.876 66.204, 123.512 65.842 C 121.954 64.293, 124.350 55.496, 127.070 52.776 C 129.756 50.090, 130.191 50, 140.455 50 C 153.708 50, 158 48.550, 158 44.074 C 158 39.488, 155.146 38.281, 143 37.735 C 135.496 37.398, 131.073 36.671, 127.500 35.186 C 124.750 34.044, 123.152 33.085, 123.950 33.055 C 125.007 33.015, 125.101 32.701, 124.296 31.896 C 123.505 31.105, 122.670 31.097, 121.346 31.866 C 119.937 32.685, 119.855 32.957, 121 33.014 C 121.825 33.055, 120.700 34.080, 118.500 35.292 C 114.786 37.339, 113.188 37.497, 96.157 37.498 C 86.069 37.499, 77.394 37.240, 76.879 36.923 C 76.364 36.606, 75.810 34.657, 75.647 32.591 C 75.196 26.860, 69.651 24.805, 66.557 29.223 M 77.573 49.570 C 75.701 51.442, 74.551 55.464, 75.465 56.943 C 76.379 58.422, 82.634 58.241, 88.112 56.578 C 93.763 54.863, 97.338 56.166, 97.801 60.109 C 98.194 63.463, 96.928 64.369, 88.250 66.938 C 84.263 68.119, 81 69.428, 81 69.847 C 81 70.266, 82.912 70.707, 85.250 70.826 C 91.396 71.140, 94.657 72.754, 96.930 76.606 C 98.937 80.007, 100.999 81.093, 101.001 78.750 C 101.001 78.063, 102.962 75.002, 105.359 71.949 C 107.755 68.897, 110.156 65.522, 110.693 64.449 C 112.213 61.415, 114.397 51.064, 113.671 50.337 C 112.380 49.047, 103.270 48.118, 91.321 48.060 C 81.531 48.012, 78.835 48.308, 77.573 49.570 M 55.693 67.700 C 52.415 68.550, 54.194 71.473, 58.192 71.806 C 62.303 72.149, 70 70.376, 70 69.086 C 70 67.421, 60.371 66.488, 55.693 67.700 M 63 80.941 C 54.353 81.450, 53.500 81.680, 53.500 83.500 C 53.500 85.387, 54.263 85.516, 67 85.788 C 74.425 85.946, 81.513 85.825, 82.750 85.519 C 85.511 84.835, 85.680 82.434, 83.066 81.035 C 81.088 79.977, 79.528 79.970, 63 80.941 M 113.432 94.110 C 112.407 95.768, 113.899 101.599, 115.784 103.305 C 118.490 105.754, 125.501 106.949, 137.316 106.976 C 147.643 106.999, 151.513 106.178, 153.235 103.600 C 155.697 99.913, 151.820 95.333, 145.604 94.585 C 136.167 93.451, 114.041 93.124, 113.432 94.110 M 54.250 96.977 C 53.013 97.504, 52 98.573, 52 99.351 C 52 100.130, 53.013 101.038, 54.250 101.370 C 61.723 103.372, 79.138 100.336, 74.635 97.815 C 72.173 96.438, 56.984 95.813, 54.250 96.977 M 107.500 113.491 C 104.170 114.250, 91.934 115.160, 80 115.536 C 53.279 116.379, 54 116.062, 54 126.964 C 54 131.319, 53.550 135.160, 53 135.500 C 52.450 135.840, 51.993 136.879, 51.985 137.809 C 51.955 141.139, 50.229 142.055, 40.931 143.679 C 35.744 144.585, 30.938 145.758, 30.250 146.285 C 28.332 147.757, 28.683 153.764, 30.750 154.843 C 32.821 155.924, 144.980 155.610, 152.706 154.501 C 161.454 153.246, 163.712 148.072, 156.956 144.766 C 155.006 143.812, 151.218 142.949, 148.537 142.847 C 145.520 142.733, 143.026 142.026, 141.991 140.991 C 139.770 138.770, 139.496 129.680, 141.480 124.055 C 142.316 121.687, 143 119.367, 143 118.900 C 143 117.287, 137.084 115, 132.800 114.956 C 130.435 114.932, 126.475 114.450, 124 113.884 C 116.368 112.139, 113.714 112.076, 107.500 113.491 M 68 128.398 C 64.988 129.488, 64.334 130.326, 63.310 134.406 C 61.648 141.021, 62.262 141.966, 68.357 142.183 C 74.596 142.405, 78.102 142.231, 78.662 141.671 C 78.892 141.441, 79.433 139.023, 79.864 136.298 C 80.673 131.177, 80.231 128.603, 78.500 128.360 C 77.950 128.282, 76.150 127.974, 74.500 127.675 C 72.850 127.376, 69.925 127.701, 68 128.398 M 116 127.686 C 115.175 128.023, 114.203 128.756, 113.839 129.315 C 112.859 130.819, 114.066 141.319, 115.372 142.650 C 116.646 143.948, 127.594 142.806, 129.192 141.208 C 130.839 139.561, 131.332 130.519, 129.842 129.295 C 128.246 127.984, 118.141 126.809, 116 127.686 M 90.542 129.932 C 89.634 131.401, 92.043 139.267, 93.855 140.750 C 94.695 141.438, 96.616 142, 98.124 142 C 101.176 142, 101.702 140.965, 102.187 134 L 102.500 129.500 96.838 129.203 C 93.708 129.038, 90.893 129.364, 90.542 129.932" stroke="none" fill="black" fill-rule="evenodd"/>
</svg>