<svg xmlns="http://www.w3.org/2000/svg" width="256" height="256" viewBox="0 0 256 256" version="1.1">
	<path d="M 115.200 27.200 C 114.540 27.860, 114 30.533, 114 33.141 C 114 35.749, 113.548 38.161, 112.997 38.502 C 111.636 39.343, 77.846 39.262, 75.632 38.412 C 74.211 37.867, 73.991 37.012, 74.499 34.004 C 75.196 29.878, 73.347 27, 70 27 C 68.238 27, 65.096 29.362, 64.917 30.821 C 64.871 31.195, 64.720 32.528, 64.581 33.785 C 64.442 35.043, 63.854 36.546, 63.273 37.127 C 62.687 37.713, 57.155 38.293, 50.858 38.429 C 40.311 38.658, 34 40.024, 34 42.079 C 34 42.495, 33.765 43.449, 33.478 44.197 C 33.191 44.945, 33.604 46.444, 34.396 47.529 C 35.648 49.242, 37.386 49.565, 47.668 50 C 58.813 50.471, 59.518 50.624, 59.805 52.640 C 60.238 55.677, 49.610 67.344, 42.062 72.116 C 36.630 75.551, 36 76.295, 36 79.275 C 36 81.104, 36.508 83.108, 37.129 83.729 C 37.967 84.567, 37.607 85.460, 35.730 87.199 C 33.396 89.362, 32.593 91.507, 32.885 94.801 C 33.023 96.361, 38.774 98.895, 44.328 99.843 C 49.535 100.732, 49.955 102.319, 45.539 104.414 C 38.158 107.917, 42.930 115.987, 52.388 115.996 C 55.460 115.999, 57.172 115.212, 60.539 112.250 C 62.883 110.188, 66.911 106.993, 69.490 105.151 C 74.494 101.577, 75.146 101.548, 83 104.564 C 85.475 105.514, 91.389 106.504, 96.143 106.763 C 107.058 107.358, 115.533 104.848, 121.409 99.279 C 123.559 97.242, 126.146 95.448, 127.159 95.294 C 129.215 94.980, 129.703 96.597, 127.750 97.253 C 127.013 97.501, 128.787 99.894, 132.075 103.087 C 137.067 107.933, 138.533 108.737, 146.075 110.763 C 159.130 114.269, 162 113.525, 162 106.634 C 162 103.746, 157.451 100, 153.946 100 C 150.588 100, 141.120 94.905, 138.320 91.592 C 136.513 89.453, 136.027 87.997, 136.485 86.092 C 137.139 83.365, 143.148 77.737, 148.395 74.935 C 150.670 73.721, 151.583 72.455, 151.809 70.200 C 152.314 65.166, 148.972 63.748, 134.915 63.035 C 128.152 62.691, 122.539 61.939, 121.889 61.289 C 121.261 60.661, 121.019 59.061, 121.352 57.735 C 122.318 53.884, 127.881 52.187, 142 51.437 C 156.683 50.657, 158.236 50.093, 157.808 45.706 C 157.348 40.984, 154.483 40.037, 140.500 39.983 C 127.353 39.932, 125.567 39.314, 124.473 34.438 C 123.200 28.761, 122.941 28.294, 120.434 27.152 C 117.265 25.708, 116.687 25.713, 115.200 27.200 M 77.004 51.292 C 74.216 52.703, 69.520 60.414, 70.492 61.986 C 70.836 62.544, 74.880 63, 79.477 63 C 84.075 63, 88.565 63.280, 89.455 63.621 C 91.550 64.425, 94 69.190, 94 72.461 C 94 76.054, 90.589 82.798, 86.444 87.398 C 84.513 89.543, 83.096 91.793, 83.296 92.398 C 83.661 93.503, 106.211 95.107, 108.778 94.211 C 109.481 93.966, 110.516 92.904, 111.079 91.852 C 112.134 89.881, 111.607 89.202, 105.190 84.263 C 102.324 82.056, 101.954 76.813, 104.469 74.035 C 105.444 72.957, 107.762 71.573, 109.621 70.960 C 112.017 70.169, 113.029 69.213, 113.101 67.672 C 113.518 58.736, 111.445 53.353, 107.232 52.432 C 105.729 52.103, 103.195 51.422, 101.601 50.917 C 97.269 49.547, 79.932 49.811, 77.004 51.292 M 65.180 74.284 C 63.493 76.316, 65.364 78.105, 69.795 78.699 C 75.365 79.446, 79 78.415, 79 76.088 C 79 75.057, 78.288 73.941, 77.418 73.607 C 74.557 72.509, 66.272 72.967, 65.180 74.284 M 120.667 73.667 C 120.300 74.033, 120 75.138, 120 76.121 C 120 78.054, 125.667 79.725, 128.515 78.633 C 130.711 77.790, 131.540 74.956, 129.896 73.914 C 128.258 72.878, 121.634 72.700, 120.667 73.667 M 52.483 79.467 C 43.260 83.719, 41.713 88.115, 48.596 90.510 C 50.193 91.066, 52.715 92.341, 54.201 93.343 C 55.687 94.346, 57.712 94.945, 58.701 94.676 C 59.690 94.406, 61.737 93.910, 63.250 93.574 C 66.779 92.789, 66.790 90.251, 63.270 88.913 C 59.775 87.584, 59.034 86.347, 59.015 81.809 C 59.007 79.779, 58.655 77.905, 58.233 77.644 C 57.811 77.383, 55.224 78.204, 52.483 79.467 M 122.408 112.851 C 123.158 114.065, 103.102 115.038, 98.539 114.009 C 96.413 113.529, 89.597 113.531, 83.115 114.012 C 76.727 114.487, 68.575 114.978, 65 115.103 C 61.425 115.228, 58.169 115.818, 57.765 116.415 C 56.367 118.480, 57.010 121.900, 59.297 124.559 C 61.574 127.206, 61.709 127.229, 74.391 127.130 C 81.606 127.074, 88.041 127.487, 89.145 128.078 C 90.960 129.049, 91.089 130.143, 90.913 143.026 C 90.689 159.354, 91.606 162, 97.488 162 C 99.854 162, 101.250 161.402, 101.954 160.087 C 103.230 157.703, 103.781 136.825, 102.702 131.737 C 102.116 128.971, 102.248 127.862, 103.202 127.553 C 103.916 127.322, 110.705 126.831, 118.290 126.462 C 132.068 125.791, 132.082 125.788, 135.490 122.574 C 139.651 118.650, 139.844 113.976, 135.891 112.869 C 132.353 111.878, 121.798 111.864, 122.408 112.851 M 116.050 133.447 C 113.928 135.705, 113.876 136.019, 115.376 137.518 C 116.269 138.412, 117 139.707, 117 140.397 C 117 142.524, 121.293 145.766, 125.634 146.918 C 127.907 147.521, 130.297 148.653, 130.945 149.434 C 132.414 151.204, 140.444 154, 144.056 154 C 149.465 154, 150.109 149.772, 145.624 143.706 C 143.253 140.498, 138.058 137, 135.667 137 C 134.788 137, 131.941 135.650, 129.339 134 C 123.486 130.288, 119.185 130.109, 116.050 133.447 M 71.500 132.687 C 66.026 134.126, 61.035 137.329, 57.220 141.854 C 51.467 148.676, 51.753 154.128, 57.933 155.485 C 61.361 156.238, 64.011 155.042, 69.205 150.399 C 71.243 148.577, 74.675 146.186, 76.832 145.086 C 78.989 143.986, 81.034 142.354, 81.377 141.461 C 82.417 138.751, 82.078 135.310, 80.655 134.128 C 78.987 132.744, 74.169 131.986, 71.500 132.687" stroke="none" fill="black" fill-rule="evenodd"/>
</svg>