<svg xmlns="http://www.w3.org/2000/svg" width="256" height="256" viewBox="0 0 256 256" version="1.1">
	<path d="M 93.099 24.381 C 91.467 26.347, 89 36.380, 89 41.049 C 89 43.609, 88.325 45.675, 87.083 46.917 C 86.029 47.971, 85.467 49.153, 85.833 49.545 C 86.200 49.936, 84.472 49.962, 81.994 49.603 C 71.261 48.048, 55.046 47.954, 51.524 49.426 C 47.091 51.278, 44.228 55.989, 43.619 62.434 C 42.331 76.061, 40.761 97.044, 39.986 111 C 39.496 119.809, 38.244 130.385, 37.084 135.500 C 33.833 149.837, 34.581 160, 38.886 160 C 42.305 160, 45.676 154.688, 46.943 147.307 C 47.585 143.563, 49.036 136.900, 50.168 132.500 C 51.301 128.099, 52.344 120.451, 52.487 115.500 C 52.901 101.165, 54.083 86.833, 55.210 82.500 C 55.782 80.300, 56.327 75.631, 56.421 72.125 C 56.673 62.705, 57.863 62, 73.496 62 C 85.249 62, 85.835 62.099, 87.298 64.332 C 88.138 65.614, 88.496 67.198, 88.093 67.850 C 86.874 69.822, 81.337 70.890, 75.471 70.285 C 66.395 69.348, 59.761 73.520, 61.518 79.057 C 62.473 82.067, 65.999 83, 76.416 83 C 87.650 83, 92.407 84.336, 91.638 87.276 C 90.650 91.053, 92.133 95.100, 94.889 96.148 C 96.323 96.693, 98.172 97.743, 98.998 98.480 C 103.188 102.222, 135.721 103.340, 142.500 99.975 C 146.315 98.081, 146.973 94.191, 143.942 91.448 C 141.992 89.683, 140.181 89.494, 124.645 89.436 C 105.500 89.364, 92.740 87.591, 93.225 85.070 C 93.699 82.610, 101.771 80.975, 115.236 80.612 C 122.974 80.403, 128.524 79.810, 129.378 79.101 C 131.626 77.235, 131.950 74.160, 130.134 71.917 C 127.828 69.069, 113.603 67.156, 107.288 68.845 C 97.550 71.450, 93.342 69.062, 98.709 63.976 L 101.500 61.331 122 61.915 L 142.500 62.500 142.812 65.201 C 142.983 66.686, 142.614 68.852, 141.992 70.014 C 141.141 71.605, 141.156 72.483, 142.053 73.564 C 145.037 77.160, 149 73.704, 149 67.505 C 149 64.004, 149.586 62.568, 152 60.154 C 155.126 57.027, 155.724 54.220, 153.962 50.930 C 153.010 49.149, 151.760 48.992, 138.712 49.004 C 130.896 49.012, 122.700 48.575, 120.500 48.033 C 114.836 46.638, 110.943 46.781, 107.636 48.506 C 103.970 50.418, 102.365 50.394, 101.607 48.418 C 100.554 45.673, 100.941 43.374, 102.822 41.206 L 104.644 39.105 108.042 41.172 C 111.288 43.146, 111.914 43.183, 121.950 41.993 C 134.768 40.474, 137 39.585, 137 36 C 137 32.518, 134.811 31.560, 123.237 29.978 C 115.737 28.953, 113.196 28.965, 109.345 30.043 C 105.056 31.244, 104.536 31.202, 103.566 29.573 C 99.737 23.143, 95.762 21.172, 93.099 24.381 M 70.148 95.750 C 67.096 98.325, 59.113 114.173, 58.885 118.108 C 58.564 123.660, 61.168 128.321, 65.743 130.384 C 67.957 131.383, 70.328 133.245, 71.012 134.523 C 72.688 137.654, 71.486 141.865, 68.603 142.961 C 65.774 144.036, 62 148.620, 62 150.980 C 62 153.150, 64.758 155.659, 68.045 156.479 C 70.091 156.989, 71.521 156.294, 75.344 152.929 L 80.098 148.744 82.299 150.687 C 86.015 153.969, 89.323 155.652, 93.500 156.386 C 109.480 159.196, 117.474 160.084, 131.500 160.609 C 149.603 161.286, 154.371 160.388, 156.931 155.818 C 158.292 153.390, 158.270 152.956, 156.702 151.223 C 155.211 149.576, 152.922 149.210, 140.235 148.593 C 117.519 147.487, 95.673 144.966, 92.060 143.032 C 89.275 141.541, 89.406 137.512, 92.436 131.528 C 94.412 127.624, 96.879 115.512, 96.236 112.874 C 96.151 112.530, 97.752 111.968, 99.791 111.625 C 102.810 111.119, 103.826 111.395, 105.250 113.112 C 107.091 115.331, 107.625 120.496, 106.110 121.432 C 105.620 121.735, 104.459 125.088, 103.529 128.883 C 102.006 135.098, 101.988 136.076, 103.353 138.715 C 105.840 143.525, 107.458 144.401, 110.349 142.507 C 113.518 140.431, 113.836 139.629, 116.503 127 C 118.618 116.987, 118.846 116.485, 121.421 116.178 C 126.290 115.597, 127.108 117.392, 128.633 132 C 129.468 140.005, 131.246 141.455, 139.986 141.258 C 143.862 141.170, 147 141.524, 147 142.050 C 147 143.797, 150.916 143.025, 151.961 141.072 C 153.542 138.119, 151.695 134.639, 149.638 136.696 C 147.941 138.393, 145.771 137.567, 143.253 134.265 C 140.846 131.109, 140.476 129.588, 140.018 120.953 C 139.267 106.822, 137.465 105.500, 118.960 105.500 C 111.713 105.500, 108.802 105.904, 106.853 107.179 C 104.586 108.662, 104.114 108.685, 102.805 107.376 C 101.126 105.697, 91.160 103.089, 86.216 103.036 C 83.536 103.007, 82.550 102.352, 80.852 99.474 C 77.566 93.904, 73.863 92.615, 70.148 95.750 M 74.528 113.562 C 72.069 115.840, 71.838 116.586, 72.433 120.312 C 72.800 122.615, 73.792 125.555, 74.636 126.844 L 76.170 129.189 78.611 126.896 C 83.735 122.082, 85.540 114.889, 82.250 112.392 C 79.636 110.408, 77.598 110.717, 74.528 113.562" stroke="none" fill="black" fill-rule="evenodd"/>
</svg>