<svg xmlns="http://www.w3.org/2000/svg" width="256" height="256" viewBox="0 0 256 256" version="1.1">
	<path d="M 96.073 27.635 C 94.933 29.084, 93.956 30.772, 93.903 31.385 C 93.621 34.626, 94.291 40.632, 95.034 41.534 C 96.351 43.132, 94.701 44.939, 90.936 46.018 C 86.431 47.310, 75.083 47.274, 71.300 45.955 C 68.426 44.953, 68.341 44.756, 69.250 41.205 C 70.531 36.196, 68.021 29.983, 64.737 30.035 C 60.692 30.100, 58.448 32.229, 58.132 36.300 C 57.971 38.390, 58.363 40.733, 59.005 41.506 C 59.647 42.280, 59.892 43.365, 59.550 43.919 C 58.535 45.562, 51.935 46.988, 45.321 46.994 C 39.205 47, 36.082 48.441, 35.943 51.321 C 35.564 59.187, 35.128 64.303, 34.500 68.233 C 33.676 73.393, 35.103 78.442, 37.664 79.425 C 41.645 80.952, 48 72.938, 48 66.390 C 48 64.110, 48.577 61.766, 49.282 61.181 C 50.090 60.510, 62.386 59.871, 82.532 59.452 C 100.114 59.087, 118.775 58.577, 124 58.320 C 138.086 57.626, 141.109 57.709, 142.216 58.816 C 143.139 59.739, 143.777 63.372, 143.936 68.604 C 144.019 71.341, 148.362 76, 150.831 76 C 153.619 76, 154.774 72.050, 155.515 59.978 C 156.321 46.854, 156.043 46.503, 143.400 44.674 L 134.500 43.386 134.500 37.503 C 134.500 31.895, 134.345 31.529, 131.172 29.673 C 127.867 27.738, 127.827 27.739, 125.172 29.732 C 122.840 31.483, 122.496 32.453, 122.470 37.349 C 122.454 40.435, 121.908 43.492, 121.257 44.143 C 119.601 45.799, 104.484 46.593, 103.545 45.073 C 103.148 44.431, 103.354 41.694, 104.002 38.991 C 105.372 33.283, 104.062 27.639, 100.986 25.992 C 98.456 24.639, 98.420 24.651, 96.073 27.635 M 122.500 62.808 C 120.300 63.622, 114.225 64.417, 109 64.575 C 103.775 64.734, 93.115 65.294, 85.311 65.820 C 73.280 66.631, 70.656 67.109, 68.061 68.957 C 64.555 71.453, 63.996 75.551, 66.506 80.364 C 67.328 81.940, 68 84.235, 68 85.465 C 68 89.173, 70.086 93.976, 72.185 95.099 C 73.399 95.749, 76.919 95.905, 81.330 95.504 C 87.058 94.983, 88.902 95.169, 90.500 96.426 C 92.477 97.982, 92.478 98.017, 90.559 99.500 C 89.033 100.679, 85.397 101.003, 73.559 101.016 C 52.163 101.038, 43 103.592, 43 109.533 C 43 114.370, 49.572 115.808, 63.782 114.080 C 72.625 113.005, 77.026 113.573, 76.988 115.785 C 76.966 117.061, 70.018 121.047, 66.715 121.679 C 61.991 122.582, 49.317 129.761, 47.013 132.839 C 45.918 134.303, 44.511 136.103, 43.887 136.840 C 42.147 138.895, 45.026 141.136, 50.147 141.713 C 53.477 142.088, 55.879 141.572, 60.367 139.519 C 64.280 137.728, 66.567 137.167, 67.235 137.835 C 68.203 138.803, 67.790 148.307, 66.444 156.056 C 65.486 161.574, 67.128 162.268, 76.049 160.111 C 80.147 159.120, 86.060 157.764, 89.189 157.097 C 96.008 155.643, 99.611 153.046, 100.514 148.934 C 101.051 146.493, 100.720 145.491, 98.841 143.856 C 96.776 142.059, 95.667 141.897, 89.429 142.478 C 80.490 143.311, 79.503 142.421, 80.248 134.202 C 80.634 129.949, 81.605 127.204, 83.959 123.716 C 87.806 118.016, 89.982 116.718, 94.325 117.533 C 97.422 118.114, 97.730 118.557, 99.394 124.826 C 101.211 131.670, 103.266 135, 105.675 135 C 107.491 135, 115 139.779, 115 140.935 C 115 142.958, 128.943 151.536, 136.500 154.163 C 145.565 157.314, 151.127 157.730, 153.429 155.429 C 155.331 153.526, 155.324 153.712, 153.624 149.641 C 152.424 146.770, 151.236 145.990, 144.374 143.571 C 140.043 142.044, 135.666 140.055, 134.648 139.150 C 130.871 135.795, 129.558 130.654, 132.055 128.999 C 132.471 128.724, 132.959 126.474, 133.141 123.999 L 133.471 119.500 129.154 119.189 C 126.455 118.994, 123.943 119.462, 122.454 120.439 C 119.409 122.433, 116.701 122.414, 112.749 120.370 C 103.857 115.772, 105.669 113.401, 117.810 113.750 C 122.589 113.888, 130.678 113.491, 135.785 112.867 C 146.085 111.609, 150.205 109.501, 149.280 105.961 C 148.194 101.811, 144.557 101.112, 123.717 101.047 C 103.443 100.984, 101 100.704, 101 98.450 C 101 95.671, 105.289 94, 112.418 94 C 118.622 94, 119.700 93.704, 122.195 91.313 C 123.902 89.678, 125 87.577, 125 85.946 C 125 83.298, 128.557 73.389, 130.168 71.550 C 131.403 70.139, 131.116 64.720, 129.715 63 C 128.129 61.053, 127.306 61.031, 122.500 62.808 M 85.197 77.925 C 78.551 78.748, 75.827 80.227, 77.633 82.033 C 79.048 83.448, 88.240 83.449, 115.250 82.039 C 115.662 82.018, 116 81.100, 116 80 C 116 78.315, 115.331 77.999, 111.750 77.994 C 109.412 77.991, 103.900 77.798, 99.500 77.567 C 95.100 77.335, 88.664 77.496, 85.197 77.925" stroke="none" fill="black" fill-rule="evenodd"/>
</svg>