<svg xmlns="http://www.w3.org/2000/svg" width="256" height="256" viewBox="0 0 256 256" version="1.1">
	<path d="M 54.655 29.829 C 52.078 32.676, 52.676 35.876, 56.500 39.700 C 58.425 41.625, 60 43.565, 60 44.011 C 60 44.457, 56.288 44.792, 51.750 44.755 C 45.589 44.706, 42.490 45.172, 39.513 46.596 C 35.347 48.589, 32.563 52.699, 33.582 55.352 C 34.511 57.773, 40.448 59.264, 46.080 58.489 C 53.928 57.410, 58.098 57.670, 59.772 59.343 C 61.163 60.734, 61.150 61.311, 59.643 65.193 C 58.595 67.893, 56.577 70.487, 54.236 72.146 C 51.599 74.014, 50.114 76.074, 49.189 79.146 C 47.615 84.375, 41.379 93.750, 35.181 100.205 C 30.757 104.813, 30.662 105.051, 30.582 111.705 L 30.500 118.500 33.500 118.298 C 35.738 118.147, 37.958 116.555, 42.243 112.028 C 45.402 108.691, 47.894 105.632, 47.781 105.230 C 47.668 104.829, 48.143 103.475, 48.838 102.222 C 50.632 98.986, 52.313 100.517, 51.533 104.677 C 51.177 106.573, 51.336 109.559, 51.887 111.312 C 52.437 113.066, 53.419 123.022, 54.069 133.438 C 55.323 153.526, 56.535 158.184, 60.668 158.798 C 65.084 159.454, 65.500 157.179, 65.500 132.392 C 65.500 115.809, 65.840 108.764, 66.682 107.920 C 68.546 106.053, 73.705 110.711, 75.075 115.500 C 75.705 117.700, 76.665 120.453, 77.208 121.617 C 78.164 123.667, 78.324 123.611, 82.261 119.867 C 86.666 115.676, 89.405 115.001, 90.848 117.750 C 91.907 119.769, 93.743 132.283, 94.990 145.982 C 96.236 159.665, 95.061 159.110, 121.734 158.604 C 139.286 158.271, 143.513 157.916, 144.759 156.670 C 145.940 155.489, 146.342 152.222, 146.539 142.231 C 146.825 127.670, 148.286 118.924, 150.798 116.749 C 151.734 115.938, 154.045 114.982, 155.934 114.625 C 164.276 113.049, 165.332 107.280, 158.526 100.474 C 156.066 98.013, 153.624 96, 153.101 96 C 151.562 96, 140.311 80.473, 139.024 76.574 C 138.376 74.608, 137.430 73, 136.922 73 C 136.415 73, 135.986 72.213, 135.968 71.250 C 135.926 68.953, 133.640 66.003, 130.805 64.590 C 129.556 63.967, 128.144 62.117, 127.668 60.479 C 126.161 55.289, 124.487 52.525, 122.637 52.169 C 117.292 51.139, 113.781 55.230, 112.089 64.457 C 111.354 68.470, 110.283 70.280, 106.465 73.957 C 103.866 76.461, 98.870 83.438, 95.335 89.500 C 88.381 101.426, 86.078 104, 82.358 104 C 79.287 104, 78.428 101.830, 80.312 98.831 C 81.871 96.348, 83.500 89.441, 83.084 87.077 C 82.636 84.534, 79.545 81.064, 77.699 81.031 C 76.053 81.003, 72.323 87.255, 72.808 89.231 C 73.155 90.644, 68.432 92.926, 66.309 92.371 C 63.759 91.704, 61.555 86.977, 62.463 84.118 C 62.817 83.001, 64.520 80.898, 66.248 79.445 C 68.657 77.418, 70.122 76.920, 72.530 77.311 C 74.258 77.592, 76.213 77.486, 76.874 77.078 C 78.586 76.020, 77.169 68.169, 74.848 65.848 C 72.498 63.498, 72.524 62.476, 75 60 C 77.391 57.609, 85.103 57.214, 86.909 59.391 C 87.544 60.156, 88.622 62.709, 89.304 65.065 C 89.986 67.421, 91.039 69.513, 91.645 69.715 C 92.250 69.917, 94.576 68.439, 96.812 66.432 C 100.862 62.796, 107.054 50.571, 110.074 40.247 C 111.648 34.868, 110.227 31, 106.676 31 C 103.394 31, 101.353 33.576, 94.915 45.852 C 90.745 53.801, 88.780 56.581, 87.165 56.820 C 85.709 57.034, 85 56.612, 85 55.530 C 85 51.811, 81.183 46.468, 77.601 45.173 C 73.657 43.747, 72.583 42.276, 71.633 37 C 70.332 29.780, 59.022 25.003, 54.655 29.829 M 132.223 32.557 C 128.833 34.931, 129.284 40.432, 133.560 48.847 C 135.517 52.701, 137.767 56.392, 138.560 57.049 C 139.352 57.707, 140 59, 140 59.922 C 140 62.117, 144.702 69.333, 147.113 70.839 C 149.361 72.242, 152.589 70.678, 153.336 67.824 C 154.011 65.240, 151.998 57.822, 149.991 55.500 C 149.040 54.400, 146.593 49.141, 144.553 43.813 C 142.084 37.368, 140.044 33.604, 138.456 32.563 C 135.494 30.622, 134.985 30.622, 132.223 32.557 M 115.750 78.447 C 114.237 80.342, 113 82.378, 113 82.971 C 113 84.393, 106.844 93.608, 103.025 97.901 C 99.927 101.384, 99.017 105.014, 101.250 104.982 C 101.938 104.973, 111.500 105.085, 122.500 105.232 C 141.947 105.493, 142.490 105.445, 142.154 103.523 C 141.964 102.435, 140.614 100.119, 139.154 98.376 C 137.694 96.632, 135.375 93.322, 134 91.019 C 131.129 86.210, 120.978 75, 119.495 75 C 118.948 75, 117.263 76.551, 115.750 78.447 M 105.250 117.661 C 103.601 118.328, 103.687 122.246, 105.500 129 C 106.312 132.025, 106.982 136.217, 106.988 138.316 C 107.011 145.724, 107.750 146.161, 119.820 145.896 C 134.922 145.565, 134.995 145.516, 135.024 135.589 C 135.037 131.140, 135.437 125.826, 135.912 123.780 C 136.502 121.241, 136.415 119.775, 135.638 119.165 C 134.392 118.187, 107.270 116.844, 105.250 117.661" stroke="none" fill="black" fill-rule="evenodd"/>
</svg>