<svg xmlns="http://www.w3.org/2000/svg" width="256" height="256" viewBox="0 0 256 256" version="1.1">
	<path d="M 57.917 34.456 C 53.204 38.205, 47 45.614, 47 47.494 C 47 47.790, 44.736 50.142, 41.969 52.722 C 37.552 56.840, 36.625 58.441, 34.369 65.838 C 31.480 75.308, 32.008 79.031, 36.229 78.964 C 38.806 78.923, 49.406 66.758, 56.022 56.250 C 58.186 52.813, 60.441 50, 61.034 50 C 62.783 50, 74 38.515, 74 36.724 C 74 34.290, 68.895 29.999, 66.010 30.007 C 64.553 30.012, 61.158 31.878, 57.917 34.456 M 116.500 36.107 C 96.250 37.066, 95.220 37.273, 94.397 40.556 C 93.557 43.902, 96.132 46.683, 101.409 48.130 C 106.291 49.469, 142.290 48.504, 148.500 46.868 C 155.627 44.990, 158.220 40.319, 154.171 36.655 C 152.110 34.790, 146.142 34.703, 116.500 36.107 M 66.015 58.250 C 63.798 61.138, 61.620 63.955, 61.175 64.512 C 58.897 67.362, 53.150 76.952, 52.508 78.974 C 52.104 80.247, 50.587 82.483, 49.137 83.942 C 44.695 88.413, 39.940 94.873, 38.904 97.847 C 38.362 99.401, 35.979 102.039, 33.609 103.710 C 28.669 107.192, 27.832 109.246, 29.391 114.069 C 30.195 116.555, 31.176 117.595, 32.956 117.847 C 37.043 118.423, 42.280 116.279, 46.540 112.284 C 49.999 109.040, 50.557 107.942, 50.450 104.587 C 50.315 100.334, 52.899 96.640, 55.351 97.581 C 56.476 98.013, 56.854 103.114, 57.297 123.809 C 57.880 151.117, 58.601 156.447, 62.094 159.277 C 64.011 160.830, 64.552 160.878, 66.394 159.659 C 68.197 158.466, 68.618 156.809, 69.322 148.121 C 69.775 142.542, 69.775 130.895, 69.322 122.239 C 68.870 113.582, 68.729 103.619, 69.009 100.098 C 69.288 96.577, 69.005 91.677, 68.378 89.209 C 66.955 83.605, 67.928 79.782, 72.453 73.205 C 78.003 65.137, 79.217 57.110, 75.321 54.250 C 72.254 51.999, 70.106 52.922, 66.015 58.250 M 114.866 82.243 C 110.815 83.202, 104.888 84.212, 101.695 84.488 C 92.020 85.323, 89.412 88.061, 94.750 91.780 C 98.694 94.528, 106.119 96.102, 112.227 95.484 C 115.127 95.190, 119.831 94.708, 122.681 94.412 C 127.348 93.927, 127.987 94.103, 129.124 96.187 C 131.465 100.475, 129.776 137.624, 127.120 140.280 C 126.527 140.873, 124.344 141.391, 122.271 141.429 C 118.956 141.491, 118.463 141.821, 118.193 144.152 C 117.963 146.136, 118.901 147.839, 121.919 150.917 C 128.065 157.188, 134.087 158.771, 137.489 155.012 C 139.520 152.768, 141.462 136.534, 142.515 113 C 142.847 105.575, 143.322 98.500, 143.571 97.279 C 144.145 94.462, 146.531 93.199, 153.746 91.890 C 162.816 90.245, 166.576 86.537, 163.474 82.296 C 162.286 80.672, 160.252 80.500, 142.196 80.500 C 126.693 80.500, 120.585 80.890, 114.866 82.243" stroke="none" fill="black" fill-rule="evenodd"/>
</svg>