<svg xmlns="http://www.w3.org/2000/svg" width="256" height="256" viewBox="0 0 256 256" version="1.1">
	<path d="M 50.552 32.365 C 48.198 34.546, 46.996 39, 48.760 39 C 49.178 39, 50.641 40.025, 52.010 41.278 C 53.380 42.532, 55.968 44.591, 57.762 45.855 C 59.556 47.119, 60.756 48.586, 60.429 49.114 C 60.103 49.643, 56.385 49.975, 52.168 49.853 C 37.446 49.425, 27.406 54.850, 32.848 60.292 C 35.274 62.719, 40.600 63.149, 51.075 61.762 C 58.819 60.736, 60.331 61.953, 58.831 68 C 58.216 70.475, 57.138 73.175, 56.435 74 C 55.731 74.825, 54.847 76.737, 54.470 78.250 C 54.092 79.763, 53.427 81, 52.991 81 C 52.556 81, 51.643 83.318, 50.964 86.152 C 50.229 89.213, 48.566 92.519, 46.864 94.300 C 45.289 95.948, 44 97.701, 44 98.196 C 44 98.691, 41.693 101.402, 38.873 104.222 C 30.158 112.937, 27.791 122, 34.230 122 C 37.885 122, 44.774 118.287, 45.528 115.911 C 45.831 114.959, 47.173 113.461, 48.512 112.584 C 50.813 111.076, 51.025 111.113, 52.379 113.244 C 53.988 115.779, 56.628 145.445, 55.547 148.851 C 54.456 152.288, 56.805 158.954, 59.546 160.203 C 66.109 163.193, 69.140 149.875, 67.117 126.935 C 66.459 119.474, 66.205 112.628, 66.553 111.723 C 68.111 107.661, 74.223 109.312, 77.027 114.551 C 79.240 118.686, 82.280 117.444, 83.270 112 C 84.108 107.395, 82.456 97, 80.886 97 C 80.449 97, 81.084 95.479, 82.296 93.621 C 84.569 90.136, 86 89.833, 86 92.837 C 86 97.190, 94.311 100.326, 103.115 99.294 C 105.970 98.960, 107.990 99.175, 108.412 99.858 C 109.946 102.340, 102.183 121.102, 93.261 136.473 C 87.856 145.785, 86.465 152.065, 89.200 154.800 C 93.484 159.084, 99.385 153.070, 107.999 135.642 C 111.843 127.864, 116.341 119.977, 117.994 118.114 C 120.713 115.053, 121 114.075, 121 107.884 C 121 99.833, 121.038 99.808, 133 100.166 C 137.125 100.290, 143.200 100.258, 146.500 100.097 C 149.800 99.936, 154.087 100.104, 156.027 100.471 C 158.792 100.995, 160.142 100.676, 162.277 98.997 C 167.622 94.792, 164.732 87.775, 157.075 86.368 C 155.109 86.007, 153.266 85.355, 152.980 84.918 C 152.694 84.482, 152.770 80.385, 153.150 75.813 C 155.238 50.692, 154.916 50.068, 140.240 50.774 C 134.713 51.040, 128.527 50.946, 126.495 50.565 C 123.246 49.956, 122.888 49.608, 123.529 47.686 C 123.929 46.484, 124.465 43.408, 124.718 40.852 C 126.002 27.910, 115.514 29.419, 113.559 42.457 C 112.639 48.588, 110.002 50.999, 104.211 51.004 C 98.531 51.008, 93.322 53.869, 92.415 57.482 C 91.322 61.839, 93.341 63, 102.015 63 C 108.179 63, 109.912 63.327, 110.393 64.582 C 110.727 65.452, 111 70.161, 111 75.047 C 111 85.341, 110.465 86, 102.115 86 C 99.356 86, 94.747 86.504, 91.874 87.120 C 87.170 88.129, 86.513 88.054, 85.280 86.370 C 84.527 85.342, 84.167 83.478, 84.480 82.229 C 85.452 78.350, 83.416 76, 79.081 76 C 75.936 76, 75.123 75.589, 74.630 73.750 C 73.716 70.340, 73.883 66, 74.929 66 C 75.440 66, 77.421 64.525, 79.333 62.723 C 82.114 60.099, 82.703 58.899, 82.285 56.712 C 81.660 53.443, 76.713 49.005, 73.673 48.986 C 69.926 48.963, 67 47.821, 67 46.383 C 67 45.623, 67.450 45, 68 45 C 68.550 45, 69 43.356, 69 41.346 C 69 38.342, 68.260 37.010, 64.834 33.846 C 59.713 29.119, 54.624 28.591, 50.552 32.365 M 124.222 64.250 C 123.659 64.938, 123.042 69.980, 122.850 75.454 C 122.502 85.347, 122.516 85.413, 125 86.105 C 128.621 87.113, 137.272 87.114, 138.861 86.107 C 140.673 84.959, 140.543 64.964, 138.716 63.804 C 136.698 62.521, 125.351 62.871, 124.222 64.250 M 73.583 78.866 C 73.152 79.563, 73.070 80.403, 73.400 80.733 C 74.295 81.628, 75.271 80.312, 74.787 78.862 C 74.449 77.846, 74.213 77.846, 73.583 78.866 M 68.750 84.392 C 66.640 85.994, 66.469 87.667, 68.415 87.667 C 69.194 87.667, 70.309 86.617, 70.894 85.333 C 72.083 82.724, 71.363 82.408, 68.750 84.392 M 127.498 109.708 C 123.635 113.803, 123.427 114.635, 125.250 118.677 C 126.364 121.146, 138.098 137.720, 144.188 145.426 C 145.460 147.035, 147.625 150.410, 149 152.926 C 151.898 158.228, 154.399 159.047, 158.309 155.972 C 163.801 151.652, 160.233 142.345, 148.712 130.935 C 142.001 124.289, 140.867 122.616, 138.897 116.460 C 136.555 109.143, 134.586 106, 132.343 106 C 131.602 106, 129.422 107.669, 127.498 109.708" stroke="none" fill="black" fill-rule="evenodd"/>
</svg>