<svg xmlns="http://www.w3.org/2000/svg" width="256" height="256" viewBox="0 0 256 256" version="1.1">
	<path d="M 88.726 36.764 C 85.677 39.946, 83 46.807, 83 51.437 C 83 56.423, 80.129 58.683, 72.809 59.457 C 69.339 59.824, 64.055 60.546, 61.066 61.062 C 58.078 61.578, 53.970 62, 51.939 62 C 49.837 62, 47.696 62.662, 46.970 63.536 C 44.289 66.766, 43.317 79.493, 44.047 101.803 C 44.438 113.736, 44.598 124.367, 44.402 125.427 C 43.777 128.814, 42.308 129.365, 39.895 127.117 C 35.313 122.848, 20.758 125.259, 24.307 129.699 C 31.085 138.178, 38.406 141.097, 52.682 141.015 C 64.541 140.946, 64.776 140.966, 70.500 142.508 C 73.250 143.249, 77.750 144.451, 80.500 145.178 C 84.273 146.176, 94.041 146.446, 120.304 146.279 C 159.464 146.030, 160.298 145.899, 160.801 139.892 C 161.173 135.466, 158.422 133.282, 151.883 132.814 L 147.500 132.500 147.612 128 C 147.673 125.525, 148.292 110.134, 148.987 93.799 C 149.683 77.463, 149.981 63.394, 149.651 62.534 C 148.483 59.488, 143.413 58.773, 118.512 58.137 C 89.698 57.402, 90.775 57.886, 95.919 48.002 C 99.684 40.768, 99.760 38.743, 96.365 36.073 C 92.918 33.361, 91.898 33.453, 88.726 36.764 M 91.791 72.206 C 89.378 75.903, 88.784 83.070, 88.835 107.905 C 88.872 126.059, 89.176 131.495, 90.191 132.139 C 92.262 133.453, 100.639 133.140, 101.830 131.704 C 102.475 130.927, 103.329 119.619, 103.964 103.454 C 104.547 88.629, 105.131 75.150, 105.262 73.500 L 105.500 70.500 99.394 70.206 C 93.958 69.944, 93.123 70.164, 91.791 72.206 M 122.280 71.960 C 121.059 72.484, 119.832 73.945, 119.553 75.207 C 118.071 81.910, 117.073 90.810, 116.551 102 C 116.230 108.875, 115.702 117.708, 115.378 121.628 C 114.476 132.520, 114.548 132.610, 123.744 132.158 C 128.010 131.948, 132.247 131.383, 133.161 130.901 C 134.319 130.290, 135.006 128.131, 135.431 123.763 C 136.520 112.595, 137.089 74.538, 136.188 73.194 C 135.090 71.556, 125.254 70.683, 122.280 71.960 M 66.508 72.918 C 61.105 73.443, 60.368 73.795, 59.013 76.500 C 57.241 80.042, 56.408 105.302, 57.696 116.477 L 58.500 123.455 63.504 124.565 C 66.256 125.176, 69.546 126.311, 70.815 127.088 C 72.887 128.356, 73.274 128.296, 74.617 126.500 C 75.849 124.853, 76.059 121.151, 75.806 105.500 C 75.638 95.050, 75.883 83.237, 76.351 79.250 C 77.322 70.983, 78.517 71.752, 66.508 72.918" stroke="none" fill="black" fill-rule="evenodd"/>
</svg>