<svg xmlns="http://www.w3.org/2000/svg" width="256" height="256" viewBox="0 0 256 256" version="1.1">
	<path d="M 71.791 29.935 C 69.200 30.947, 66.410 32.447, 65.590 33.267 C 64.770 34.087, 61.939 35.076, 59.300 35.464 C 56.634 35.857, 53.500 37.099, 52.250 38.260 C 50.143 40.216, 50 41.162, 50 53.109 C 50 60.128, 50.422 66.980, 50.938 68.336 C 52.443 72.295, 49.529 74.204, 42.966 73.561 C 35.858 72.864, 33.215 73.683, 31.430 77.135 C 30.283 79.353, 30.158 80.914, 30.897 83.768 C 31.428 85.820, 32.368 90.053, 32.986 93.173 C 34.439 100.515, 35.941 101.823, 39.429 98.789 C 41.421 97.057, 42.210 95.213, 42.675 91.208 C 43.328 85.580, 45.572 83.159, 48.828 84.571 C 49.748 84.970, 66.250 85.459, 85.500 85.658 C 134.322 86.161, 144.320 86.437, 145.723 87.317 C 146.395 87.739, 147.413 89.819, 147.984 91.939 C 148.555 94.060, 149.755 96.076, 150.652 96.420 C 155.146 98.145, 162.027 87.623, 160.334 81.616 C 159.297 77.937, 154.295 75.012, 149 74.986 C 142.886 74.957, 142.948 75.234, 144.722 55.670 C 146.299 38.287, 146.292 37.847, 144.398 35.953 C 143.332 34.888, 141.344 34.003, 139.980 33.988 C 123.684 33.803, 120.189 34.067, 118.935 35.579 C 116.333 38.714, 119.636 41.192, 128.153 42.495 C 130.163 42.803, 132.068 43.735, 132.387 44.567 C 133.215 46.723, 130.826 50.152, 129.002 49.426 C 124.483 47.627, 117.980 48.778, 118.015 51.371 C 118.056 54.385, 120.054 55.500, 125.413 55.500 C 131.988 55.500, 134.184 57.035, 131.637 59.849 C 130.308 61.317, 128.970 61.641, 125.710 61.283 C 122.021 60.877, 121.144 61.195, 118.623 63.847 L 115.746 66.875 119.123 68.934 C 120.980 70.066, 124.101 70.994, 126.059 70.996 C 128.016 70.998, 130.491 71.675, 131.559 72.500 C 133.480 73.985, 133.480 74.016, 131.552 75.505 C 129.882 76.795, 125.259 76.942, 99.246 76.529 C 82.550 76.264, 67.114 75.569, 64.944 74.985 C 58.304 73.197, 60.408 69.004, 67.950 68.994 C 74.130 68.987, 80.798 67.119, 78.911 65.924 C 78.135 65.433, 77.853 65.024, 78.285 65.015 C 78.716 65.007, 77.493 63.616, 75.566 61.924 C 72.259 59.020, 71.868 58.918, 68.597 60.101 C 64.293 61.658, 62 60.179, 62 55.846 C 62 51.960, 64.422 51.197, 68.108 53.921 C 71.440 56.385, 74.393 56.003, 76.056 52.895 C 78.280 48.740, 74.630 45, 68.352 45 C 66.868 45, 65.994 44.517, 66.225 43.826 C 66.636 42.592, 77.896 35.406, 81.750 33.918 C 84.511 32.852, 84.668 30.428, 82.066 29.035 C 79.397 27.607, 77.267 27.794, 71.791 29.935 M 104.964 33.336 C 103.238 34.912, 96.525 36.929, 90.664 37.631 C 85.961 38.195, 82.486 40.927, 81.507 44.829 C 80.983 46.918, 81.395 47.943, 83.478 49.735 C 86.856 52.640, 88.151 52.585, 91.965 49.376 C 94.491 47.250, 95.757 46.861, 98.631 47.328 C 106.984 48.683, 106.946 54.295, 98.553 58.764 C 96.418 59.900, 92.093 58.744, 90.786 56.687 C 90.272 55.879, 90.026 56.032, 90.015 57.167 C 90.007 58.083, 89.662 58.983, 89.250 59.167 C 88.175 59.645, 84 65.745, 84 66.838 C 84 68.679, 89.756 70.159, 94.279 69.481 C 97.068 69.063, 99.597 69.249, 100.948 69.972 C 104.010 71.611, 109.023 71.574, 110.083 69.905 C 111.434 67.778, 110.437 35.232, 108.967 33.460 C 107.470 31.657, 106.826 31.637, 104.964 33.336 M 57.417 89.003 C 55.695 89.544, 53.830 91.078, 53.192 92.478 C 52.192 94.673, 52.405 95.393, 54.903 98.243 C 56.472 100.034, 57.786 102.625, 57.823 104 C 57.859 105.375, 58.611 110.325, 59.494 115 C 60.377 119.675, 61.201 125.132, 61.325 127.126 C 61.611 131.738, 63.013 133.388, 67.885 134.847 C 73.235 136.450, 73.919 138.790, 70.048 142.248 C 68.354 143.762, 65.963 145.010, 64.734 145.022 C 63.505 145.034, 60.695 145.864, 58.490 146.866 C 56.284 147.868, 52.684 149.016, 50.490 149.418 C 44.991 150.424, 42 152.555, 42 155.466 C 42 159.146, 45.518 161.002, 52.473 160.990 C 61.767 160.975, 74.114 154.548, 77.527 147.948 C 78.365 146.327, 79.675 145, 80.437 145 C 81.888 145, 81.987 143.370, 80.665 141.254 C 80.158 140.442, 80.791 139.597, 82.484 138.825 C 84.482 137.915, 87.400 137.914, 95.137 138.822 C 100.668 139.471, 105.600 140.253, 106.097 140.560 C 106.594 140.867, 107 142.154, 107 143.419 C 107 147.901, 114.690 157.136, 121.500 160.833 C 127.560 164.123, 150.572 161.484, 156.503 156.819 C 159.788 154.235, 159.658 151.504, 156.079 147.925 L 153.157 145.004 148.829 146.859 C 143.477 149.152, 132.547 150.400, 125.863 149.481 C 121.737 148.914, 120.521 148.261, 119.036 145.818 C 116.754 142.066, 117.477 139.143, 120.869 138.408 C 128.901 136.666, 129.584 135.826, 132.543 124.036 C 134.432 116.510, 134.622 111.359, 133.391 101 C 132.525 93.713, 132.398 93.450, 128.919 91.749 C 126.066 90.353, 121.899 89.913, 108.419 89.585 C 99.114 89.358, 84.525 88.917, 76 88.604 C 67.049 88.276, 59.198 88.445, 57.417 89.003 M 66.443 99.092 C 64.560 102.139, 68.941 102.762, 95.280 103.193 C 121.138 103.617, 125 103.468, 125 102.044 C 125 99.714, 118.173 98.929, 93.509 98.422 C 73.490 98.010, 67.013 98.170, 66.443 99.092 M 73.750 111.642 C 71.738 112.222, 71.391 114.872, 73.250 115.455 C 76.258 116.398, 121.055 116.721, 121.621 115.804 C 122.922 113.700, 119.948 113.036, 106.978 112.532 C 99.565 112.244, 89.450 111.813, 84.500 111.573 C 79.550 111.334, 74.713 111.365, 73.750 111.642 M 73.230 124.757 C 72.553 124.982, 72 125.791, 72 126.554 C 72 127.622, 73.554 127.891, 78.750 127.721 C 82.463 127.599, 89.100 127.847, 93.500 128.271 C 97.900 128.695, 104.305 129.309, 107.732 129.636 C 115.339 130.360, 121 129.438, 121 127.474 C 121 126.684, 119.987 125.827, 118.750 125.569 C 115.807 124.955, 74.829 124.224, 73.230 124.757" stroke="none" fill="black" fill-rule="evenodd"/>
</svg>