<svg xmlns="http://www.w3.org/2000/svg" width="256" height="256" viewBox="0 0 256 256" version="1.1">
	<path d="M 54.455 31.455 C 53.105 32.805, 52 34.648, 52 35.552 C 52 37.414, 63.713 49, 65.595 49 C 66.270 49, 68.027 47.568, 69.500 45.818 C 73.070 41.575, 72.323 37.751, 66.945 32.750 C 62.067 28.214, 58.106 27.803, 54.455 31.455 M 121.002 32.250 C 119.078 35.176, 118.407 62.603, 120.164 66.461 C 120.803 67.862, 120.988 69.344, 120.576 69.754 C 120.163 70.164, 116.378 70.517, 112.163 70.539 C 107.889 70.560, 101.634 71.386, 98.019 72.405 C 92.159 74.059, 90.867 74.103, 84.519 72.867 C 75.862 71.181, 46.773 71.167, 42.681 72.846 C 38.903 74.396, 39.414 77.701, 43.898 80.716 C 46.608 82.537, 48.734 83.014, 54.398 83.069 C 58.304 83.106, 70.275 83.378, 81 83.672 C 91.725 83.966, 104.847 84.272, 110.159 84.353 C 115.471 84.434, 120.131 84.810, 120.514 85.188 C 121.512 86.176, 121.193 107.740, 120.006 119.500 C 117.255 146.751, 119.408 160, 126.588 160 C 129.537 160, 130.113 158.037, 130.497 146.667 C 130.668 141.625, 131.278 133.225, 131.854 128 C 132.430 122.775, 133.207 111.300, 133.582 102.500 C 133.956 93.700, 134.672 85.981, 135.173 85.347 C 135.791 84.565, 138.622 84.369, 143.997 84.737 C 152.954 85.351, 157.478 84.072, 158.391 80.668 C 159.334 77.153, 159.112 76.112, 156.960 73.960 C 155.140 72.140, 153.776 71.938, 144.282 72.077 C 135.629 72.203, 133.428 71.939, 132.492 70.658 C 131.757 69.652, 131.273 63.287, 131.154 53.065 C 130.958 36.184, 130.334 32.784, 127.114 31.061 C 124.140 29.469, 122.638 29.762, 121.002 32.250 M 61.906 50.427 C 61.579 50.754, 55.304 51.414, 47.961 51.892 C 35.924 52.677, 34.433 52.982, 32.805 54.992 C 30.571 57.752, 30.566 58.259, 32.750 60.873 C 34.436 62.891, 35.485 62.977, 61.538 63.234 C 86.011 63.475, 88.834 63.332, 91.288 61.727 C 94.606 59.557, 94.716 57.625, 91.691 54.600 C 89.791 52.700, 87.889 52.173, 80.941 51.621 C 76.299 51.252, 70.250 50.698, 67.500 50.391 C 64.750 50.084, 62.233 50.100, 61.906 50.427 M 53.158 90.925 C 44.918 91.432, 43.591 91.778, 41.908 93.861 C 39.363 97.009, 39.501 98.592, 42.588 101.679 L 45.175 104.266 59.838 103.753 C 73.997 103.257, 79.625 102.186, 81.214 99.687 C 82.627 97.466, 82.006 94.084, 79.811 92.039 C 77.445 89.835, 73.545 89.672, 53.158 90.925 M 59.275 109.954 C 37.686 110.638, 37.890 110.510, 37.508 123.645 C 37.224 133.455, 39.412 151.656, 41.467 156.575 C 42.745 159.635, 43.058 159.770, 50.421 160.460 C 59.586 161.319, 74.533 160.245, 78.002 158.479 C 84.973 154.929, 86.617 148.082, 84.958 129.500 C 83.378 111.792, 83.300 111.458, 80.436 110.153 C 79.045 109.519, 77.590 109.092, 77.203 109.204 C 76.816 109.316, 68.749 109.653, 59.275 109.954 M 51.490 125.374 C 50.271 127.235, 49.947 129.927, 50.129 136.659 C 50.261 141.522, 50.733 146.251, 51.177 147.169 C 51.835 148.531, 53.589 148.851, 60.693 148.903 C 73.593 148.998, 73.765 148.810, 73.619 134.813 L 73.500 123.500 63.296 123.216 C 53.432 122.941, 53.038 123.013, 51.490 125.374" stroke="none" fill="black" fill-rule="evenodd"/>
</svg>