<svg xmlns="http://www.w3.org/2000/svg" width="256" height="256" viewBox="0 0 256 256" version="1.1">
	<path d="M 53.924 29.282 C 50.307 32.077, 50.851 35.037, 55.876 39.894 C 58.496 42.427, 61.081 45.296, 61.620 46.269 C 63.119 48.972, 66.721 49.216, 69.001 46.769 C 73.529 41.909, 72.336 37.088, 65.239 31.558 C 60.520 27.882, 56.724 27.118, 53.924 29.282 M 129.500 35.004 C 119.600 35.415, 108.463 35.807, 104.750 35.875 C 99.443 35.973, 97.572 36.428, 96 38 C 93.397 40.603, 93.464 43.423, 96.189 45.961 C 98.264 47.894, 99.608 48, 122.130 48 C 135.193 48, 146.087 48.337, 146.338 48.750 C 147.185 50.144, 147.507 139.489, 146.670 140.784 C 146.107 141.655, 144.258 141.921, 140.920 141.610 C 135.177 141.077, 134.509 142.418, 138.520 146.429 C 139.906 147.815, 141.314 150.319, 141.649 151.994 C 142.475 156.125, 147.261 160, 151.538 160 C 155.257 160, 158.543 157.279, 159.182 153.670 C 159.393 152.477, 159.502 125.930, 159.424 94.677 C 159.301 44.996, 159.090 37.661, 157.745 36.316 C 155.741 34.312, 151.241 34.103, 129.500 35.004 M 34 52.793 C 30.516 53.971, 29.958 58.747, 32.984 61.486 C 34.565 62.916, 37.158 63.361, 45.734 63.674 C 51.655 63.889, 61.225 64.544, 67 65.130 C 81.753 66.624, 84.661 66.396, 87.789 63.495 L 90.427 61.049 88.392 58.274 C 84.265 52.647, 82.047 52.211, 57.711 52.250 C 45.495 52.270, 34.825 52.514, 34 52.793 M 125.775 56.558 C 125.468 56.865, 120.017 57.508, 113.662 57.988 C 101.930 58.873, 94.946 60.923, 92.157 64.302 C 91.011 65.690, 91.142 66.391, 93.047 69.066 C 95.497 72.506, 93.996 72.390, 111.500 70.490 C 113.150 70.311, 119.225 69.856, 125 69.479 C 133.628 68.916, 135.901 68.425, 137.750 66.723 C 142.829 62.047, 139.116 56, 131.167 56 C 128.508 56, 126.082 56.251, 125.775 56.558 M 52.500 71.957 C 48.100 72.365, 43.488 73.022, 42.250 73.417 C 38.954 74.469, 39.347 78.273, 43.077 81.411 C 45.772 83.679, 47.167 84.027, 54.327 84.217 C 58.822 84.337, 65.306 84.317, 68.735 84.174 C 72.164 84.030, 75.820 84.368, 76.859 84.924 C 78.951 86.044, 81.251 84.190, 82.377 80.476 C 83.047 78.269, 79.790 71.369, 78.235 71.701 C 75.863 72.207, 69.087 72.231, 65 71.748 C 62.525 71.455, 56.900 71.549, 52.500 71.957 M 112 77.449 C 100.304 78.831, 98.381 79.420, 96.972 82.052 C 95.656 84.512, 95.737 108.210, 97.087 115.514 C 98.680 124.130, 100.855 129, 103.109 129 C 104.149 129, 105 128.622, 105 128.161 C 105 126.420, 110.330 125, 116.863 125 C 125.341 125, 134.996 123.276, 137.111 121.384 C 139.293 119.431, 140.511 109.978, 140.446 95.500 C 140.386 81.909, 139.749 78.351, 137.248 77.628 C 132.965 76.389, 121.650 76.309, 112 77.449 M 75.118 90.638 C 73.259 91.449, 71.023 91.839, 70.150 91.504 C 69.278 91.169, 63.871 91.210, 58.136 91.594 C 49.949 92.142, 47.309 92.691, 45.854 94.146 C 43.717 96.283, 43.425 100.832, 45.264 103.346 C 46.433 104.945, 47.766 104.990, 62.949 103.942 C 71.981 103.320, 80.388 102.423, 81.631 101.950 C 84.388 100.902, 85.791 95.031, 84.147 91.423 C 82.875 88.631, 80.244 88.402, 75.118 90.638 M 110.308 91.194 C 109.103 91.777, 107.872 92.890, 107.574 93.668 C 106.787 95.720, 110.108 109.979, 111.404 110.115 C 113.409 110.326, 114.468 110.573, 118.643 111.801 C 123.660 113.277, 125.615 112.645, 127.537 108.928 C 129.332 105.458, 129.518 92.918, 127.800 91.200 C 126.313 89.713, 113.382 89.709, 110.308 91.194 M 79.593 109.618 C 77.400 111.546, 76.050 112.013, 74.093 111.520 C 72.667 111.161, 65.875 110.494, 59 110.039 C 38.356 108.671, 37.482 109.753, 39.630 134 C 40.337 141.975, 41.148 149.435, 41.434 150.579 C 42.337 154.199, 46.184 155.130, 55.823 154.060 C 60.595 153.530, 68.527 152.802, 73.448 152.442 C 81.642 151.843, 82.626 151.541, 85.125 148.867 C 88.751 144.985, 89.351 141.604, 87.683 134.451 C 86.487 129.319, 86.496 127.949, 87.746 124.500 C 89.733 119.016, 89.421 113.400, 86.936 109.909 C 84.415 106.369, 83.338 106.327, 79.593 109.618 M 52.668 124.801 C 51.146 126.494, 50.953 127.777, 51.529 132.389 C 52.437 139.650, 53.514 140.445, 61.268 139.576 C 64.696 139.192, 68.387 138.885, 69.471 138.893 C 70.556 138.902, 72.243 138.185, 73.221 137.300 C 75.506 135.232, 75.693 126.820, 73.496 124.997 C 72.669 124.310, 68.056 123.527, 63.246 123.256 C 55.360 122.812, 54.320 122.964, 52.668 124.801" stroke="none" fill="black" fill-rule="evenodd"/>
</svg>