<svg xmlns="http://www.w3.org/2000/svg" width="256" height="256" viewBox="0 0 256 256" version="1.1">
	<path d="M 105.142 29.008 C 104.091 30.735, 102.938 34.027, 102.578 36.324 C 102.218 38.621, 100.965 43.357, 99.794 46.848 C 97.106 54.859, 94.794 56.256, 89.447 53.101 C 85.885 51, 85.013 50.947, 60.389 51.351 C 32.003 51.817, 30 52.258, 30 58.048 C 30 60.353, 30.598 61.277, 32.574 62.028 C 35.949 63.311, 82.504 63.328, 86.892 62.048 C 92.528 60.403, 93.882 63.209, 89.545 67.545 C 87.143 69.948, 86.748 70.001, 70.795 70.024 C 61.833 70.038, 52.475 70.492, 50 71.033 C 47.525 71.574, 44.487 72.246, 43.250 72.527 C 41.524 72.919, 41 73.744, 41 76.070 C 41 80.620, 45.354 82.059, 58.761 81.943 C 64.667 81.892, 71.482 81.893, 73.904 81.946 C 76.501 82.002, 79.850 81.238, 82.066 80.082 C 84.133 79.005, 87.552 77.833, 89.662 77.478 C 97.955 76.082, 99.968 74.984, 102.156 70.665 C 106.144 62.794, 109.821 59, 113.462 59 C 118.549 59, 119.078 60.418, 118.803 73.323 C 118.518 86.713, 119.218 85.964, 106.972 85.986 C 101.610 85.996, 97.163 86.745, 91.512 88.591 C 84.469 90.891, 83.160 91.043, 79.835 89.946 C 77.200 89.076, 71.472 88.865, 60.494 89.234 C 43.215 89.815, 42.097 90.263, 42.032 96.629 C 41.981 101.604, 45.281 102.412, 62.291 101.589 C 74.372 101.005, 76.929 100.593, 79.362 98.838 C 82.659 96.461, 83.390 96.417, 95.500 97.866 C 100.450 98.459, 106.849 98.671, 109.719 98.338 C 113.077 97.948, 116.073 98.202, 118.119 99.049 L 121.300 100.367 120.631 124.433 C 120.024 146.281, 120.125 148.823, 121.731 152 C 123.830 156.152, 127.659 157.139, 130.309 154.211 C 131.779 152.586, 132.100 148.911, 132.643 127.414 C 132.992 113.598, 133.712 101.943, 134.259 101.250 C 134.943 100.383, 138.682 100, 146.467 100 C 156.070 100, 157.929 99.736, 159.345 98.171 C 161.634 95.642, 161.414 92.729, 158.750 90.281 C 156.838 88.525, 154.845 88.146, 145.476 87.763 C 139.413 87.515, 133.425 86.762, 132.169 86.091 C 129.924 84.889, 129.898 84.670, 130.560 72.685 C 131.001 64.680, 131.692 60.012, 132.574 59.078 C 133.436 58.165, 137.186 57.419, 143.045 56.997 C 152.382 56.323, 153.952 55.561, 153.985 51.684 C 154.040 45.180, 148.956 43.730, 129.212 44.621 C 112.218 45.388, 112.825 45.693, 114.052 37 C 114.688 32.496, 114.509 31.047, 113.064 29 C 110.418 25.252, 107.424 25.255, 105.142 29.008 M 57.200 30.200 C 54.664 32.736, 56.603 40.258, 61.338 46.250 C 63.921 49.519, 69.321 47.841, 70.429 43.426 C 72.377 35.664, 62.055 25.345, 57.200 30.200 M 56.953 107.934 C 43.260 108.402, 39.926 108.815, 37.623 110.325 L 34.840 112.151 35.452 127.825 C 36.193 146.834, 37.314 153.032, 40.750 157.115 C 43.220 160.050, 43.617 160.175, 48.427 159.530 C 51.217 159.156, 58.159 158.235, 63.852 157.484 C 75.210 155.985, 80.057 153.671, 82.089 148.778 C 82.909 146.803, 82.959 141.199, 82.270 128.366 C 81.379 111.763, 81.181 110.565, 79.049 108.839 C 77.800 107.828, 76.041 107.083, 75.139 107.184 C 74.238 107.285, 66.054 107.622, 56.953 107.934 M 52.121 121.002 C 47.866 122.007, 46.804 123.585, 47.412 128 C 47.677 129.925, 48.204 134.342, 48.583 137.815 C 48.963 141.288, 49.811 144.668, 50.468 145.325 C 51.284 146.142, 54.118 146.357, 59.423 146.005 C 66.119 145.561, 67.457 145.154, 69.170 143.038 C 70.968 140.818, 71.089 139.684, 70.449 131.043 C 70.061 125.794, 69.238 121.169, 68.622 120.765 C 67.174 119.817, 56.492 119.971, 52.121 121.002" stroke="none" fill="black" fill-rule="evenodd"/>
</svg>