<svg xmlns="http://www.w3.org/2000/svg" width="256" height="256" viewBox="0 0 256 256" version="1.1">
	<path d="M 124.488 27.655 C 121.210 30.933, 120.345 36.907, 121.257 49.979 L 121.500 53.458 103.699 53.660 C 87.513 53.844, 85.569 54.057, 82.270 56.003 L 78.641 58.144 75.778 55.080 C 72.190 51.242, 68.816 50.367, 63.295 51.844 C 60.917 52.480, 52.888 53, 45.454 53 C 30.837 53, 25.708 54.195, 24.541 57.871 C 23.682 60.576, 25.526 63.869, 28.541 65.015 C 32.093 66.366, 70.726 64.157, 74.404 62.393 C 78.009 60.664, 78.654 60.656, 79.300 62.338 C 79.582 63.074, 79.423 76.012, 78.946 91.088 C 78.076 118.594, 75.956 140.401, 73.766 144.372 C 71.357 148.740, 73.133 151.907, 78.027 151.968 C 83.180 152.033, 84.900 149.740, 88.503 138 C 90.991 129.893, 91.204 129.780, 97.714 133.110 C 100.823 134.699, 103.969 136, 104.705 136 C 105.441 136, 108.959 134.678, 112.522 133.063 L 119 130.125 119.115 133.313 C 119.179 135.066, 119.335 136.950, 119.463 137.500 C 119.591 138.050, 119.764 139.477, 119.848 140.671 C 119.957 142.223, 120.868 143.032, 123.050 143.511 C 125.719 144.097, 126.712 143.608, 131.007 139.590 C 133.706 137.066, 136.606 135, 137.451 135 C 138.392 135, 140.638 138.392, 143.244 143.750 C 147.747 153.007, 150.079 154.950, 155.159 153.675 C 156.968 153.221, 158.019 151.828, 159.229 148.281 C 160.126 145.652, 161.640 141.461, 162.593 138.969 C 164.682 133.509, 164.007 130.328, 160.115 127.292 L 157.285 125.084 152.330 126.967 C 145.338 129.623, 144.564 128.839, 144.529 119.062 C 144.506 112.593, 144.845 110.721, 146.261 109.508 C 147.230 108.679, 148.623 108, 149.356 108 C 151.105 108, 153.571 105.134, 154.520 102 C 154.936 100.625, 156.545 96.872, 158.096 93.661 C 161.268 87.090, 161.125 82.901, 157.645 80.464 C 155.084 78.670, 150.936 78.570, 148.771 80.250 C 146.895 81.705, 145.027 87.975, 144.974 93 C 144.953 94.925, 144.319 97.314, 143.565 98.309 C 142.294 99.985, 142.120 99.875, 141.192 96.809 C 140.641 94.989, 139.902 92.375, 139.549 91 C 139.197 89.625, 138.272 86.185, 137.494 83.355 C 136.717 80.526, 135.950 75.801, 135.790 72.855 L 135.500 67.500 146 66.960 C 151.775 66.664, 157.291 66.052, 158.259 65.600 C 161.147 64.252, 161.532 60.167, 159.202 55.599 C 158.053 53.344, 156.869 50.016, 156.572 48.203 C 155.968 44.519, 151.157 36.883, 146.905 32.858 C 144.194 30.293, 144.065 30.270, 142.424 32.084 C 141.142 33.501, 140.863 35.094, 141.269 38.693 C 141.826 43.633, 143.429 45.601, 151.056 50.708 L 154.353 52.915 151.611 53.958 C 148.095 55.294, 137.443 55.308, 134.960 53.978 C 133.360 53.122, 133.061 51.865, 133.114 46.209 C 133.196 37.462, 132.188 32.163, 129.793 28.750 C 127.554 25.558, 126.751 25.392, 124.488 27.655 M 43.500 29.191 C 39.379 30.748, 37.975 32.851, 39.225 35.594 C 40.226 37.793, 43.877 40, 46.512 40 C 47.292 40, 49.468 41.350, 51.347 43 C 55.291 46.463, 59.833 46.947, 62.345 44.171 C 65.400 40.796, 64.425 37.542, 58.997 32.998 C 53.509 28.402, 48.707 27.223, 43.500 29.191 M 93.110 67.794 C 92.072 69.734, 91.227 83.560, 92.094 84.427 C 92.384 84.717, 97.747 84.505, 104.011 83.956 C 120.357 82.521, 119.563 81.268, 119.273 108.041 L 119.046 129 123.048 129 C 126.490 129, 127.197 128.616, 128.106 126.250 C 130.295 120.552, 129.183 104.014, 125.021 80.380 C 124.525 77.564, 124.339 74.414, 124.607 73.380 C 125.626 69.458, 122.735 67.618, 114.356 66.857 C 99.872 65.540, 94.182 65.791, 93.110 67.794 M 43.589 72.052 C 38.314 73.379, 32.997 76.788, 33.015 78.832 C 33.061 83.799, 36.619 84.665, 54.289 84.011 C 69.114 83.462, 69.954 83.135, 69.985 77.905 C 70.011 73.404, 67.372 72.120, 56.960 71.569 C 51.757 71.294, 45.740 71.511, 43.589 72.052 M 42.100 91.900 C 36.393 92.678, 33.103 96.550, 34.582 100.748 L 35.551 103.500 46.525 103.687 C 66.819 104.032, 71.310 102.702, 69.466 96.893 C 68.200 92.903, 63.221 90.994, 54.500 91.154 C 50.100 91.234, 44.520 91.570, 42.100 91.900 M 93.797 96.680 C 91.512 97.282, 91.252 98.528, 90.465 112.679 C 89.652 127.294, 90.345 128.972, 95.798 125.591 C 97.653 124.441, 100.357 122.795, 101.808 121.934 C 103.443 120.963, 104.737 119.062, 105.213 116.934 C 106.173 112.638, 106.366 102.729, 105.540 100.125 C 104.597 97.154, 98.638 95.406, 93.797 96.680 M 43.500 110.925 C 34.162 111.522, 30.765 112.702, 29.023 115.957 C 27.697 118.435, 27.691 145.819, 29.015 149.601 C 30.236 153.087, 35.158 156.545, 40.135 157.413 C 46.162 158.465, 60.620 156.362, 65.318 153.750 C 68.911 151.754, 69.465 151.009, 69.252 148.463 C 69.116 146.833, 68.906 144.150, 68.785 142.500 C 68.665 140.850, 68.894 133.875, 69.295 127 C 69.696 120.125, 69.682 113.988, 69.262 113.361 C 68.167 111.725, 61.173 109.983, 56.500 110.181 C 54.300 110.274, 48.450 110.609, 43.500 110.925 M 42.695 124.111 C 39.922 125.724, 38.834 129.820, 39.584 135.823 C 40.408 142.422, 42.645 145, 47.545 145 C 52.128 145, 55.942 141.364, 56.151 136.795 C 56.566 127.729, 56.413 126.415, 54.750 124.751 C 52.777 122.777, 45.639 122.398, 42.695 124.111 M 120 147 C 120 148.100, 120.173 149, 120.383 149 C 120.594 149, 121.002 148.100, 121.290 147 C 121.577 145.900, 121.405 145, 120.906 145 C 120.408 145, 120 145.900, 120 147" stroke="none" fill="black" fill-rule="evenodd"/>
</svg>