<svg xmlns="http://www.w3.org/2000/svg" width="256" height="256" viewBox="0 0 256 256" version="1.1">
	<path d="M 50.646 31.452 C 46.710 35.100, 47.282 37.218, 53.463 41.885 C 61.294 47.797, 63.172 48.505, 66.637 46.851 C 71.416 44.571, 70.951 41.202, 64.953 34.639 C 58.935 28.054, 55.208 27.224, 50.646 31.452 M 103.255 32.167 C 98.557 33.452, 97.151 36.404, 96.014 47.367 C 94.879 58.312, 92.311 65.370, 87.940 69.557 L 85.025 72.350 77.263 71.168 C 72.993 70.518, 66.800 69.991, 63.500 69.997 C 55.190 70.012, 39.853 72.627, 38.855 74.200 C 37.343 76.584, 37.974 78.937, 40.584 80.647 C 42.753 82.068, 45.845 82.338, 59.834 82.328 C 69 82.321, 77.625 81.852, 79 81.286 C 82.500 79.843, 86 81.334, 86 84.268 C 86 85.550, 85.589 87.028, 85.086 87.550 C 84.245 88.424, 83.624 92.051, 83.889 94.534 C 83.950 95.103, 85.237 96.280, 86.750 97.150 C 88.822 98.342, 93.800 98.893, 106.947 99.386 C 126.929 100.134, 131.970 100.759, 132.666 102.572 C 133.233 104.049, 130.983 109.106, 126.272 116.941 C 121.274 125.252, 119.149 125.988, 116.710 120.250 C 114.946 116.099, 113.533 111.500, 114.022 111.500 C 114.196 111.500, 113.828 110.547, 113.204 109.382 C 110.723 104.745, 101.205 105.986, 97.651 111.410 C 95.961 113.989, 95.970 114.215, 97.884 117.296 C 98.979 119.058, 100.859 121.175, 102.062 122 C 107.280 125.578, 108.151 126.705, 108.667 130.552 C 109.303 135.295, 109.142 135.467, 98.305 141.642 C 89.800 146.489, 87.353 146.910, 84.285 144.051 C 82.134 142.047, 81.372 138.911, 80.506 128.500 C 79.468 116.001, 78.709 111.852, 77.184 110.327 C 75.843 108.986, 73.171 108.818, 59.056 109.187 C 41.368 109.650, 37.904 110.578, 36.421 115.250 C 36.059 116.390, 35.783 124.952, 35.807 134.279 L 35.852 151.236 38.561 154.063 L 41.270 156.891 57.885 156.853 C 72.307 156.820, 75.080 156.551, 78.892 154.818 C 81.786 153.502, 84.173 153.055, 85.892 153.506 C 94.463 155.757, 97.697 155.339, 105.734 150.942 C 122.845 141.579, 123.599 141.478, 134 147.161 C 139.710 150.281, 148.330 153, 152.514 153 C 155.047 153, 157 150.492, 157 147.240 C 157 144.232, 153.195 141.485, 143.017 137.145 C 137.801 134.921, 133.369 132.606, 133.167 132 C 132.609 130.328, 134.980 125.118, 139.083 119 C 141.112 115.975, 144.233 110.575, 146.019 107 C 147.805 103.425, 150.107 99.427, 151.133 98.115 C 153.489 95.105, 153.505 92.505, 151.183 90.183 C 149.557 88.557, 148.458 88.460, 140.681 89.257 C 133.434 90, 130.199 89.804, 121.155 88.074 C 115.167 86.928, 106.272 86, 101.280 86 C 94.122 86, 91.962 85.659, 90.882 84.358 C 89.682 82.911, 90.255 82.049, 95.703 77.108 C 100.583 72.682, 102.512 70.024, 104.852 64.500 C 106.483 60.650, 108.141 55.250, 108.536 52.500 C 109.651 44.749, 110.045 44.376, 117.889 43.647 C 127.141 42.787, 129.722 43.823, 130.487 48.705 C 131.511 55.236, 134.189 64.999, 135.114 65.571 C 135.601 65.872, 136 67.412, 136 68.994 C 136 73.857, 137.739 76.813, 142.211 79.554 C 144.570 80.999, 147.491 83.359, 148.703 84.798 C 150.464 86.890, 151.668 87.367, 154.703 87.177 C 159.106 86.900, 161.006 84.898, 160.985 80.559 C 160.961 75.454, 158.905 72.740, 153.636 70.855 C 150.969 69.900, 148.583 68.916, 148.334 68.667 C 147.571 67.905, 144.062 52.801, 143.415 47.500 C 142.514 40.109, 141.007 34.716, 139.311 32.815 C 138.017 31.365, 135.631 31.141, 122.154 31.205 C 113.544 31.246, 105.040 31.679, 103.255 32.167 M 44.658 51.900 C 33.789 52.451, 32.659 52.694, 30.908 54.861 C 28.541 57.790, 28.541 58.213, 30.914 61.139 L 32.829 63.500 56.664 63.237 C 78.002 63.002, 80.762 62.781, 83 61.131 C 86.244 58.739, 86.536 56.884, 84.133 53.913 C 82.262 51.600, 81.650 51.496, 69.341 51.400 C 62.278 51.345, 51.171 51.570, 44.658 51.900 M 50.849 89.674 C 45.562 90.002, 43.665 90.581, 41.599 92.496 C 38.494 95.374, 38.286 98.044, 40.980 100.482 C 42.749 102.083, 44.526 102.222, 57.730 101.796 C 72.809 101.308, 76.795 100.362, 79.993 96.509 C 81.151 95.113, 80.988 94.533, 78.826 92.372 C 76.553 90.099, 75.413 89.830, 66.906 89.559 C 61.733 89.395, 54.507 89.447, 50.849 89.674 M 49.441 123.420 C 47.755 124.652, 47.521 125.973, 47.657 133.455 C 47.749 138.520, 48.315 142.675, 49.030 143.536 C 51.564 146.590, 67.996 144.755, 69.885 141.206 C 70.827 139.436, 69.110 125.598, 67.656 123.250 C 66.532 121.435, 51.970 121.571, 49.441 123.420" stroke="none" fill="black" fill-rule="evenodd"/>
</svg>