<svg xmlns="http://www.w3.org/2000/svg" width="256" height="256" viewBox="0 0 256 256" version="1.1">
	<path d="M 125.229 22.736 C 123.384 23.381, 121.137 28.181, 120.662 32.493 C 120.436 34.547, 119.632 36.619, 118.875 37.098 C 118.119 37.577, 112.858 37.976, 107.184 37.985 C 94.125 38.004, 91.048 39.392, 91.015 45.275 C 90.997 48.636, 93.854 50, 100.916 50 C 107.009 50, 112.424 51.782, 111.121 53.359 C 110.603 53.987, 109.863 56.300, 109.477 58.500 C 109.091 60.700, 108.208 63.410, 107.514 64.522 C 106.820 65.634, 105.930 68.456, 105.535 70.794 C 104.755 75.410, 101.526 78, 96.550 78 C 91.662 78, 90.392 80.661, 89.589 92.588 C 89.185 98.590, 88.908 106.656, 88.974 110.513 C 89.039 114.370, 88.217 121.345, 87.147 126.013 C 86.078 130.681, 84.935 136.818, 84.607 139.652 C 83.606 148.326, 82.371 149.930, 80.044 145.582 C 79.072 143.767, 78.928 140.320, 79.463 131.749 C 80.030 122.682, 79.853 119.244, 78.604 115.038 C 76.422 107.692, 75.260 106.457, 73.070 109.162 C 71.446 111.167, 70.541 111.274, 56.523 111.106 C 48.367 111.008, 41.304 110.688, 40.827 110.393 C 39.072 109.308, 33.275 112.102, 32.147 114.576 C 29.891 119.529, 31.621 145.041, 34.644 151.379 C 36.959 156.233, 40.767 157.694, 46.966 156.105 C 49.587 155.434, 56.404 154.937, 62.115 155.002 C 77.024 155.172, 76.855 155.192, 78.732 153 C 80.756 150.636, 83.551 150.388, 84.362 152.500 C 85.276 154.882, 89.693 154.246, 93.047 151.249 C 95.863 148.734, 96.191 147.772, 96.901 139.985 C 97.642 131.853, 99.130 127, 100.882 127 C 101.329 127, 102.147 125.987, 102.699 124.750 L 103.705 122.500 104.420 124.750 C 104.813 125.987, 105.747 127, 106.496 127 C 107.245 127, 108.461 127.604, 109.199 128.342 C 111.875 131.018, 117.938 132.927, 125.500 133.475 C 128.038 133.658, 139.545 127.945, 140.373 126.089 C 140.875 124.964, 142.085 123.791, 143.061 123.481 C 147.170 122.177, 150 118.900, 150 115.446 C 150 112.660, 149.551 111.925, 147.541 111.421 C 144.780 110.728, 137.790 113.039, 131.096 116.858 C 124.027 120.891, 103.445 123.447, 101.072 120.587 C 98.920 117.994, 98.895 114.405, 101.015 112.486 C 102.940 110.744, 103.234 110.743, 108.758 112.456 C 111.916 113.435, 116.788 114.446, 119.585 114.701 C 124.899 115.187, 133 113.571, 133 112.025 C 133 111.532, 134.800 110.116, 137 108.880 C 140.330 107.008, 141 106.110, 141 103.516 C 141 99.711, 139.363 97.811, 137.122 99.013 C 135.255 100.014, 110.427 105, 107.309 105 C 104.972 105, 102 101.114, 102 98.058 C 102 96.952, 103.139 95.300, 104.532 94.387 C 106.657 92.995, 108.949 92.812, 118.782 93.249 C 125.779 93.560, 132.407 94.434, 135.233 95.419 C 139.417 96.877, 140.230 96.898, 142.233 95.605 C 143.480 94.801, 146.975 94.033, 150 93.898 C 157.784 93.552, 160.003 92.372, 159.985 88.589 C 159.964 84.390, 158.910 83.018, 153.837 80.582 C 149.943 78.713, 149.532 78.183, 149.810 75.398 C 150.033 73.167, 149.331 71.342, 147.310 68.898 C 145.764 67.029, 144.162 65.350, 143.750 65.167 C 142.852 64.768, 142.773 60.386, 143.589 56.303 C 144.099 53.756, 144.931 53.125, 149.728 51.648 C 160.669 48.279, 163.904 43.460, 158.250 38.953 C 155.675 36.900, 154.799 36.798, 144.500 37.359 C 131.858 38.047, 130.266 37.544, 131.736 33.327 C 133.652 27.833, 129.584 21.213, 125.229 22.736 M 51.323 27.696 C 48.470 28.251, 47.056 30.056, 46.770 33.504 C 46.615 35.385, 47.168 36.667, 48.454 37.403 C 49.507 38.006, 52.249 40.188, 54.546 42.250 C 59.335 46.549, 59.971 46.650, 65.750 44.027 C 69.015 42.545, 70 41.548, 70 39.723 C 70 37.310, 66.305 33, 64.235 33 C 63.611 33, 62.739 32.357, 62.299 31.570 C 61.408 29.978, 56.056 26.940, 54.500 27.142 C 53.950 27.214, 52.520 27.463, 51.323 27.696 M 71 49.717 C 68.265 50.915, 63.984 51.211, 51.419 51.070 C 34.011 50.874, 31.002 51.504, 29.068 55.751 C 28.077 57.926, 28.235 58.621, 30.192 60.705 C 32.463 63.122, 32.513 63.127, 48.985 62.643 C 58.068 62.376, 66.850 62.126, 68.500 62.089 C 71.655 62.018, 77.095 63.800, 78.080 65.227 C 79.166 66.802, 84 60.828, 84 57.911 C 84 53.900, 82.045 50.138, 79.598 49.440 C 75.240 48.197, 74.410 48.223, 71 49.717 M 118.028 51.220 C 114.885 52.082, 114.738 52.274, 116.481 53.249 C 118.829 54.563, 131.876 55.499, 135.427 54.608 C 138.360 53.871, 138.866 51.404, 136.250 50.592 C 133.553 49.754, 121.909 50.156, 118.028 51.220 M 125.534 70.468 C 122.455 71.294, 119.644 72.875, 118.135 74.629 L 115.702 77.458 121.601 78.686 C 128.754 80.174, 139.655 80.367, 140.487 79.021 C 141.340 77.641, 137.023 72.077, 133.800 70.403 C 132.314 69.631, 130.964 69.030, 130.800 69.067 C 130.635 69.105, 128.265 69.735, 125.534 70.468 M 38.513 70.743 C 36.320 70.966, 33.962 71.617, 33.272 72.189 C 31.660 73.527, 32.641 77.869, 35.149 80.500 C 36.862 82.296, 38.404 82.506, 50.278 82.561 C 57.550 82.594, 64.944 82.984, 66.710 83.428 C 69.503 84.129, 70.315 83.839, 72.960 81.194 C 76.580 77.574, 77.114 72.667, 74.066 71.035 C 72.222 70.049, 47.332 69.844, 38.513 70.743 M 46.526 92 C 37.241 92.465, 36.469 92.665, 35.361 94.895 C 34.673 96.280, 34.495 98.177, 34.940 99.395 C 36.362 103.289, 39.585 103.970, 56.691 103.985 C 66.390 103.994, 73.130 104.401, 73.500 105 C 74.694 106.932, 76.847 105.971, 77.423 103.250 C 78.290 99.155, 76.703 94.656, 73.935 93.361 C 70.860 91.922, 59.418 91.354, 46.526 92 M 45.200 125.200 C 42.188 128.212, 45.040 141.948, 48.699 142.051 C 49.690 142.079, 52.431 142.348, 54.791 142.649 C 63.451 143.753, 65.488 141.768, 65.902 131.822 C 66.102 127.024, 65.828 125.978, 64.135 125.072 C 61.363 123.589, 46.713 123.687, 45.200 125.200 M 145.118 131.280 C 143.807 131.909, 141.221 133.895, 139.370 135.692 C 136.102 138.865, 134.811 139.426, 128.500 140.413 C 120.344 141.688, 109.622 146.067, 108.130 148.731 C 106.635 151.404, 108.105 154.013, 112.318 156.162 C 117.373 158.741, 123.657 158.220, 130.657 154.640 C 133.321 153.278, 137.996 151.625, 141.047 150.968 C 152.784 148.439, 158.194 141.426, 154.468 133.574 C 152.628 129.697, 149.838 129.012, 145.118 131.280" stroke="none" fill="black" fill-rule="evenodd"/>
</svg>