<svg xmlns="http://www.w3.org/2000/svg" width="256" height="256" viewBox="0 0 256 256" version="1.1">
	<path d="M 53.655 30.829 C 51.127 33.622, 51.651 36.390, 55.608 41.155 C 61.074 47.738, 62.365 48.719, 65.040 48.325 C 69.523 47.665, 71.371 42.547, 68.882 37.684 C 68.267 36.483, 66.160 34.038, 64.200 32.250 C 60.164 28.569, 56.185 28.033, 53.655 30.829 M 106.375 31.450 C 104.488 32.772, 103.268 35.567, 98.715 49 C 97.876 51.475, 96.483 55.388, 95.619 57.695 C 94.755 60.002, 93.802 63.377, 93.501 65.195 C 92.648 70.352, 91.128 73.336, 88.295 75.415 C 85.927 77.153, 85.260 77.209, 81.093 76.019 C 74.781 74.216, 66.813 73.184, 58.500 73.090 C 46.967 72.960, 40 75.763, 40 80.533 C 40 85.008, 42.033 85.478, 62.903 85.833 L 82.500 86.167 86.147 89.833 C 88.153 91.850, 91.078 94.471, 92.647 95.657 L 95.500 97.814 95.546 115.657 C 95.601 137.141, 96.663 148.853, 98.773 151.252 C 100.189 152.862, 102.385 152.962, 125.907 152.483 C 155.737 151.875, 158.485 151.574, 160.506 148.689 C 164.943 142.353, 160.477 138.570, 148.897 138.855 C 144.533 138.962, 140.017 138.544, 138.862 137.926 C 136.919 136.887, 136.814 136.267, 137.461 129.703 C 138.323 120.954, 139.302 120.074, 148.224 120.032 C 154.671 120.001, 155.013 119.876, 156.500 117 C 157.902 114.289, 157.902 113.711, 156.500 111 C 154.995 108.089, 154.734 108, 147.724 107.985 C 139.511 107.967, 138.548 107.572, 137.037 103.598 C 134.699 97.448, 139.289 94, 149.813 94 C 156.152 94, 159 92.241, 159 88.326 C 159 84.103, 155.476 82.500, 146.190 82.500 C 137.880 82.500, 137.577 82.418, 136.899 80 C 135.653 75.548, 135.922 68.310, 137.378 67.101 C 138.137 66.472, 142.940 65.571, 148.054 65.099 C 155.205 64.439, 157.656 63.823, 158.675 62.429 C 160.397 60.074, 160.360 56.874, 158.580 54.441 C 157.344 52.751, 156.084 52.531, 148.830 52.737 C 138.597 53.028, 137.312 52.411, 138.865 47.958 C 140.770 42.492, 140.324 33.603, 138.040 31.536 C 135.523 29.258, 131.601 30.154, 129.403 33.507 C 127.856 35.868, 127.186 47.874, 128.484 49.973 C 128.761 50.423, 128.279 51.063, 127.412 51.395 C 125.088 52.287, 112.199 52.131, 111.626 51.204 C 111.355 50.766, 112.004 47.771, 113.067 44.549 C 115.590 36.902, 115.589 32.386, 113.066 31.035 C 110.444 29.632, 108.827 29.733, 106.375 31.450 M 66 53.203 C 61.325 53.707, 52.375 54.081, 46.112 54.035 C 32.974 53.938, 30 55.039, 30 59.997 C 30 62.294, 30.696 63.309, 33.139 64.572 C 35.817 65.957, 39.371 66.140, 57.389 65.824 C 80.466 65.419, 84.277 64.588, 87.081 59.348 C 88.350 56.977, 88.245 56.608, 85.670 54.393 C 82.593 51.746, 80.630 51.627, 66 53.203 M 108.831 65.529 C 105.819 67.165, 103.500 72.850, 104.526 76.083 C 105.790 80.063, 108.905 82.255, 112.349 81.587 C 114.082 81.250, 117.300 80.717, 119.500 80.402 C 124.483 79.688, 126 77.804, 126 72.332 C 126 68.971, 125.514 67.742, 123.750 66.638 C 120.239 64.441, 111.967 63.826, 108.831 65.529 M 43.819 93.458 C 38.783 96.338, 39.361 102.410, 44.779 103.548 C 46.275 103.863, 48.324 104.286, 49.331 104.488 C 50.338 104.690, 56.349 104.464, 62.688 103.986 C 74.662 103.083, 77.221 102.087, 78.315 97.903 C 79.312 94.090, 75.281 92.853, 60.284 92.370 C 49.130 92.010, 45.988 92.218, 43.819 93.458 M 107.750 96.711 C 106.787 97.781, 106 99.834, 106 101.272 C 106 105.383, 109.316 107, 117.747 107 C 124.666 107, 125.101 106.865, 126.025 104.435 C 128.483 97.970, 126.552 96.178, 116.199 95.319 C 110.403 94.839, 109.264 95.026, 107.750 96.711 M 49 109 C 38.599 109.547, 35.546 110.689, 34.621 114.376 C 34.285 115.711, 34.253 121.910, 34.548 128.152 C 35.730 153.136, 37.216 156.539, 46.500 155.521 C 49.250 155.219, 57.230 154.685, 64.234 154.333 C 74.545 153.814, 77.270 153.360, 78.552 151.943 C 81.227 148.987, 82.927 139.139, 82.964 126.385 C 82.996 115.707, 82.760 113.965, 80.978 111.699 C 79.076 109.282, 78.343 109.109, 68.728 108.814 C 63.102 108.641, 54.225 108.725, 49 109 M 109.568 119.890 C 109.191 120.500, 108.646 124.789, 108.358 129.420 C 107.861 137.403, 107.951 137.903, 110.094 139.050 C 112.390 140.279, 124.849 139.830, 127.103 138.437 C 128.711 137.443, 127.616 122.005, 125.859 120.891 C 125.111 120.418, 122.925 120.019, 121 120.004 C 119.075 119.990, 115.870 119.708, 113.877 119.379 C 111.673 119.014, 109.986 119.214, 109.568 119.890 M 48.057 122.943 C 46.126 124.874, 45.918 125.841, 46.470 130.332 C 48.023 142.962, 48.626 143.530, 59.354 142.487 C 68.939 141.556, 70.621 139.986, 70.887 131.723 C 71.177 122.746, 70.379 122.024, 59.366 121.311 C 50.896 120.762, 50.127 120.873, 48.057 122.943" stroke="none" fill="black" fill-rule="evenodd"/>
</svg>