<svg xmlns="http://www.w3.org/2000/svg" width="256" height="256" viewBox="0 0 256 256" version="1.1">
	<path d="M 53 28.169 C 45.025 28.649, 37.519 29.459, 36.319 29.968 C 33.114 31.329, 32.855 34.820, 32.667 79.180 C 32.513 115.792, 32.633 118.920, 34.270 120.737 C 35.769 122.401, 37.839 122.793, 47.770 123.296 C 54.222 123.623, 62.821 123.555, 66.880 123.144 C 73.207 122.505, 74.598 122.006, 76.628 119.646 L 78.996 116.893 81.597 119.696 C 83.028 121.238, 84.980 122.372, 85.936 122.215 C 86.891 122.058, 90.176 119.506, 93.234 116.543 C 100.427 109.577, 104.458 107.432, 107.639 108.881 C 110.598 110.230, 110.669 112.225, 107.805 113.513 C 106.597 114.056, 103.960 117.564, 101.944 121.308 C 97.842 128.927, 95.723 130.837, 90.972 131.199 C 88.322 131.401, 87.449 132.075, 86.311 134.797 C 84.814 138.382, 85.207 141.097, 87.501 143.001 C 88.613 143.924, 90.296 143.709, 95.212 142.015 C 102.427 139.529, 105.148 137.318, 108.770 131 C 110.189 128.525, 112.750 124.475, 114.462 122 C 116.174 119.525, 118.338 115.813, 119.271 113.750 C 120.873 110.209, 121.223 110, 125.550 110 C 128.070 110, 131.114 110.544, 132.316 111.209 C 134.451 112.390, 134.433 112.429, 131.500 112.959 C 128.924 113.424, 127.935 114.630, 124.499 121.500 C 122.298 125.900, 118.946 131.737, 117.049 134.471 C 111.802 142.034, 113.109 148, 120.012 148 C 124.524 148, 125.748 146.630, 129.516 137.360 C 130.783 134.242, 132.535 130.856, 133.410 129.835 C 134.284 128.813, 135.015 127.420, 135.034 126.739 C 135.053 126.057, 135.937 123.700, 137 121.500 C 138.063 119.300, 138.947 116.916, 138.966 116.202 C 139.058 112.694, 147.754 108.175, 149.373 110.795 C 150.253 112.218, 146.958 135.416, 145.576 137.524 C 144.818 138.681, 142.030 140.175, 139.180 140.951 C 134.837 142.134, 129 145.949, 129 147.606 C 129 150.917, 141.716 159, 146.924 159 C 151.269 159, 153.934 156.185, 154.970 150.500 C 155.472 147.750, 157.525 139.875, 159.532 133 C 162.320 123.453, 163.220 118.492, 163.341 112 C 163.538 101.446, 162.693 98.214, 159.407 96.965 C 158.012 96.434, 146.710 96, 134.293 96 L 111.717 96 108.774 92.921 C 105.941 89.956, 105.897 89.771, 107.598 87.891 C 109.249 86.068, 110.737 85.947, 130.332 86.042 C 149.409 86.135, 151.466 85.979, 153.133 84.311 C 154.780 82.664, 155.007 80.104, 155.374 58.989 C 155.836 32.453, 155.456 30.467, 149.748 29.592 C 147.961 29.319, 135.148 28.818, 121.273 28.479 L 96.046 27.863 93.639 30.270 C 90.466 33.443, 89.914 38.184, 90.059 61 C 90.184 80.632, 90.779 83.970, 94.601 86.474 C 95.921 87.339, 97 88.778, 97 89.673 C 97 91.685, 91.855 102, 90.852 102 C 90.450 102, 88.042 103.800, 85.500 106 C 82.958 108.200, 80.251 110, 79.484 110 C 78.685 110, 77.812 108.517, 77.438 106.522 C 76.351 100.726, 77.864 52.215, 79.430 42.656 C 81.203 31.832, 80.550 29.524, 75.298 28.066 C 73.209 27.486, 70.600 27.075, 69.500 27.154 C 68.400 27.232, 60.975 27.689, 53 28.169 M 46.527 41.615 C 45.277 42.866, 45.064 44.279, 45.584 47.865 C 45.954 50.414, 46.401 52.665, 46.578 52.866 C 46.755 53.068, 50.409 53.340, 54.700 53.470 C 64.409 53.766, 66 52.709, 66 45.962 C 66 40.400, 65.313 40.035, 54.821 40.014 C 49.992 40.004, 47.696 40.447, 46.527 41.615 M 104.048 41.442 C 103.021 42.679, 102.904 44.040, 103.586 46.800 L 104.500 50.500 118.500 51.094 C 126.200 51.421, 134.192 52.035, 136.261 52.458 C 138.801 52.977, 140.505 52.826, 141.511 51.991 C 143.320 50.490, 143.480 44.627, 141.750 43.250 C 141.063 42.703, 135.550 41.962, 129.500 41.604 C 123.450 41.245, 115.558 40.689, 111.962 40.368 C 106.609 39.889, 105.175 40.084, 104.048 41.442 M 103.965 65.066 C 103.366 66.184, 103.017 68.314, 103.188 69.799 L 103.500 72.500 121.500 73 C 142.369 73.580, 144.500 73.305, 144.500 70.036 C 144.500 65.250, 141.031 64.248, 122.276 63.615 C 105.677 63.054, 105.013 63.107, 103.965 65.066 M 46.605 65.537 C 44.654 67.488, 44.427 75.835, 46.257 78.337 C 47.439 79.953, 47.992 79.958, 55.507 78.410 C 63.986 76.663, 64.960 75.998, 64.985 71.941 C 65.010 67.679, 62.999 66.055, 57.001 65.492 C 53.976 65.209, 50.761 64.742, 49.856 64.454 C 48.951 64.167, 47.488 64.655, 46.605 65.537 M 46.530 92.313 C 45.308 94.179, 44.984 96.705, 45.206 102.642 L 45.500 110.500 54 110.755 C 58.675 110.895, 63.050 110.652, 63.722 110.214 C 65.542 109.026, 65.675 93.041, 63.873 91.900 C 63.118 91.422, 59.949 91.024, 56.832 91.015 C 53.714 91.007, 50.485 90.740, 49.656 90.422 C 48.729 90.066, 47.526 90.793, 46.530 92.313 M 37.042 131.922 C 35.542 134.723, 32.741 146.036, 32.731 149.333 C 32.726 150.891, 33.637 153.082, 34.757 154.201 C 36.726 156.170, 36.888 156.179, 39.771 154.476 C 42.912 152.621, 46.597 145.260, 47.658 138.722 C 48.449 133.847, 45.682 130.074, 41.285 130.031 C 39.115 130.010, 37.736 130.625, 37.042 131.922 M 67.435 135.474 C 65.313 137.596, 64.973 138.630, 65.526 141.278 C 67.636 151.390, 75.607 154.619, 77.474 146.119 C 78.061 143.444, 77.050 140.624, 74 136.437 C 71.448 132.933, 70.164 132.745, 67.435 135.474" stroke="none" fill="black" fill-rule="evenodd"/>
</svg>