<svg xmlns="http://www.w3.org/2000/svg" width="256" height="256" viewBox="0 0 256 256" version="1.1">
	<path d="M 122.783 24.750 C 120.026 27.911, 119.008 30.791, 119.601 33.754 C 120.593 38.716, 118.240 40, 108.151 40 C 96.420 40, 92.386 42.928, 92.856 51.101 C 92.970 53.082, 92.599 55.925, 92.031 57.419 C 91.213 59.571, 90.563 59.996, 88.901 59.468 C 87.747 59.102, 85.958 57.958, 84.927 56.927 C 83.895 55.895, 82.027 54.835, 80.775 54.572 C 64.043 51.047, 62.432 51.088, 61.638 55.062 C 61.275 56.873, 61.633 59.580, 62.513 61.684 C 63.331 63.642, 64 66.079, 64 67.099 C 64 69.975, 59.770 72.167, 54.905 71.811 C 50.670 71.502, 50.627 71.459, 46.670 63.605 C 43.848 58.003, 42.965 55.279, 43.628 54.228 C 44.142 53.413, 48.149 51.523, 52.531 50.027 C 61.966 46.808, 76.955 39.416, 78.702 37.121 C 80.704 34.492, 80.273 30.217, 77.878 28.935 C 75.020 27.405, 71.137 28.319, 65.332 31.888 C 62.675 33.522, 57.125 35.774, 53 36.892 C 42.207 39.817, 33.767 42.935, 31.750 44.742 C 29.293 46.943, 29.571 50.040, 32.585 54.056 C 34.844 57.065, 35.103 58.184, 34.640 62.918 C 34.001 69.448, 34.976 71.545, 39.536 73.451 C 42.075 74.512, 42.996 75.512, 42.985 77.199 C 42.964 80.308, 42.205 81.259, 37.293 84.336 C 31.241 88.127, 30.288 90.379, 33.416 93.507 C 37.381 97.472, 40.863 96.785, 54.311 89.380 C 57.592 87.574, 60 88.166, 60 90.780 C 60 93.221, 56.398 97, 54.071 97 C 53.054 97, 50.484 98.579, 48.360 100.509 C 46.237 102.439, 41.680 105.430, 38.232 107.155 C 33.687 109.430, 31.792 110.981, 31.335 112.801 C 30.440 116.369, 32.146 118.452, 36.253 118.805 C 41.827 119.283, 49.933 115.068, 58.786 107.088 C 61.891 104.289, 64.671 102.015, 64.965 102.033 C 67.037 102.162, 70 106.228, 70 108.942 C 70 112.288, 68.499 113.323, 62.770 113.923 C 62.369 113.966, 57.644 117.879, 52.270 122.621 C 46.897 127.362, 40.356 132.649, 37.736 134.371 C 30.188 139.328, 30.078 145.196, 37.520 145.820 C 42.341 146.225, 48.943 142.948, 53.876 137.701 C 57.643 133.695, 65.398 127.704, 68 126.790 C 68.825 126.500, 70.495 126.633, 71.710 127.084 C 73.888 127.894, 73.898 127.983, 72.366 133.203 C 69.875 141.699, 68.201 144.477, 63.419 148.061 C 57.694 152.350, 57.834 154.667, 64 157.682 C 66.475 158.892, 69.722 159.909, 71.216 159.941 C 75.089 160.025, 80.620 157.130, 81.883 154.358 C 83.210 151.445, 84.694 138.433, 85.528 122.406 C 86.203 109.419, 85.281 105.057, 80.867 100.359 C 79.747 99.166, 78.420 96.366, 77.919 94.137 C 77.418 91.907, 75.672 87.975, 74.038 85.399 L 71.067 80.714 73.156 77.781 C 74.305 76.168, 75.357 73.420, 75.495 71.674 C 75.730 68.708, 76.001 68.496, 79.623 68.445 C 81.755 68.415, 85.183 68.028, 87.241 67.585 L 90.982 66.781 90.794 74.640 C 90.574 83.851, 93.136 94.323, 96.463 97.811 C 97.676 99.082, 100.880 100.694, 103.584 101.392 C 108.352 102.624, 108.490 102.762, 108.163 106.005 C 107.977 107.844, 106.478 112.983, 104.831 117.424 C 103.184 121.866, 101.023 127.750, 100.028 130.500 C 99.034 133.250, 96.872 138.200, 95.223 141.500 C 91.172 149.608, 90.937 150.531, 92.413 152.550 C 95.263 156.448, 105.159 149.636, 110.258 140.266 C 113.829 133.707, 117.765 119.676, 118.590 110.566 L 119.272 103.040 122.711 102.394 C 127.178 101.556, 128.233 102.700, 126.990 107.034 C 126.446 108.933, 126 116.931, 126 124.808 C 126 142.548, 127.267 146.176, 135.844 153 L 141.500 157.500 150.937 157.500 L 160.374 157.500 162.197 154.391 C 164.745 150.044, 164.855 139.256, 162.392 135.087 C 159.365 129.962, 152.248 131.908, 151.299 138.120 C 150.606 142.661, 149.036 144.127, 145.208 143.806 C 139.523 143.331, 139.011 141.361, 139.274 121 L 139.500 103.500 145.665 100.500 C 156.513 95.221, 155.787 97.481, 155.634 69.486 C 155.471 39.867, 156.386 41.765, 141.867 40.902 C 131.055 40.259, 129.500 39.446, 131.088 35.268 C 134.124 27.283, 127.686 19.129, 122.783 24.750 M 106.385 55.536 C 103.453 60.010, 105.669 68.558, 109.196 66.379 C 109.755 66.033, 117.138 65.780, 125.602 65.817 C 139.666 65.877, 141.079 65.721, 141.996 64.007 C 143.390 61.402, 143.252 56.453, 141.750 55.213 C 141.058 54.641, 133.211 53.979, 124.181 53.730 C 108.114 53.287, 107.840 53.315, 106.385 55.536 M 102.769 80.607 C 102.124 82.024, 102.105 83.816, 102.717 85.652 L 103.665 88.500 122.357 88.772 C 134.111 88.943, 141.782 88.652, 143.024 87.987 C 145.488 86.669, 145.554 83.905, 143.191 80.988 C 141.445 78.832, 140.729 78.748, 122.577 78.582 C 104.098 78.412, 103.753 78.447, 102.769 80.607" stroke="none" fill="black" fill-rule="evenodd"/>
</svg>