<svg xmlns="http://www.w3.org/2000/svg" width="256" height="256" viewBox="0 0 256 256" version="1.1">
	<path d="M 64 32.508 C 56.025 33.084, 48.535 34.096, 47.355 34.756 C 44.840 36.165, 43.080 40.565, 42.301 47.387 C 41.995 50.075, 40.639 55.025, 39.289 58.387 C 34.050 71.434, 32.970 75.324, 33.622 78.796 C 34.239 82.086, 34.403 82.196, 37.858 81.636 C 43.584 80.706, 46.230 78.043, 48.254 71.173 C 50.693 62.891, 53.190 61.507, 63.194 62.893 C 71.639 64.063, 73.483 65.542, 73.267 70.968 C 73.142 74.101, 73.625 75.346, 75.554 76.864 C 76.899 77.922, 78 79.007, 78 79.275 C 78 80.066, 69.394 81.999, 65.807 82.014 C 57.586 82.048, 56.240 83.946, 55.436 96.644 C 54.924 104.731, 56.381 118.276, 59.210 131.732 C 60.344 137.123, 62.966 139.434, 65.301 137.099 C 67.044 135.356, 68 135.808, 68 138.378 C 68 141.384, 66.803 142.353, 59.903 144.935 C 52.550 147.686, 49.545 150.927, 49.545 156.107 C 49.545 165.178, 56.934 162.635, 70.916 148.750 C 72.993 146.688, 75.212 145, 75.846 145 C 76.481 145, 77 143.875, 77 142.500 C 77 141.125, 76.546 140, 75.992 140 C 75.394 140, 75.492 139.186, 76.232 138 C 77.413 136.109, 78.564 136, 97.312 136 C 118.966 136, 119.996 136.258, 120.005 141.679 C 120.010 145.168, 124.539 150.214, 130.303 153.155 C 134.881 155.490, 145.716 158.046, 147.743 157.268 C 151.411 155.861, 149.827 147.746, 145.449 145.514 C 144.355 144.957, 141.291 143.220, 138.640 141.655 C 134.837 139.410, 133.102 138.946, 130.411 139.451 C 127.814 139.938, 127 139.747, 127 138.652 C 127 137.861, 127.675 136.955, 128.500 136.638 C 129.325 136.322, 130 136.514, 130 137.067 C 130 137.716, 130.706 137.693, 132 137 C 133.100 136.411, 134 136.271, 134 136.687 C 134 137.104, 134.615 136.557, 135.366 135.473 C 137.343 132.618, 138.143 123.948, 138.350 103.143 L 138.533 84.785 135.889 82.560 C 133.611 80.643, 133.461 80.199, 134.803 79.352 C 135.661 78.811, 136.843 76.384, 137.431 73.957 C 138.757 68.484, 141.660 66.691, 147.817 67.544 C 153.375 68.315, 157 66.178, 157 62.132 C 157 56.362, 154.677 55.588, 135.155 54.852 C 113.121 54.022, 108.512 52.467, 113.829 47.655 C 115.330 46.297, 117.973 45.997, 128.579 45.985 C 143.173 45.969, 146.683 44.964, 146.219 40.938 C 145.636 35.874, 142.829 34.526, 132.224 34.217 C 126.876 34.061, 119.575 34.388, 116 34.944 C 112.425 35.500, 107.879 36.198, 105.898 36.495 C 101.120 37.211, 97.952 42.405, 99.809 46.480 C 101.360 49.885, 101.275 54.054, 99.608 56.250 C 97.890 58.513, 97.483 58.468, 93.683 55.584 C 89.744 52.595, 86.866 52.095, 70.500 51.560 C 56.820 51.112, 54 50.592, 54 48.515 C 54 46.031, 57.367 44.522, 64.385 43.863 C 81.305 42.274, 84.533 41.719, 85.750 40.189 C 88.230 37.071, 86.298 33.452, 81.500 32.227 C 79.850 31.806, 71.975 31.932, 64 32.508 M 91 64.298 C 84.559 66.728, 84.036 67.315, 84.015 72.128 C 84.006 74.247, 83.321 76.318, 82.367 77.110 C 80.889 78.337, 80.960 78.528, 83.117 79.133 C 86.134 79.978, 97.474 80.192, 98.248 79.418 C 98.568 79.099, 98.208 77.349, 97.449 75.531 C 96.541 73.359, 96.275 70.472, 96.673 67.113 C 97.006 64.301, 97.103 62.050, 96.889 62.112 C 96.675 62.173, 94.025 63.157, 91 64.298 M 111.075 66.409 C 110.385 67.241, 109.565 69.852, 109.254 72.211 C 108.643 76.837, 106.027 79.937, 102.597 80.100 C 100.746 80.188, 100.793 80.293, 103 81 C 106.408 82.091, 127.170 82.178, 128.859 81.108 C 129.929 80.431, 129.989 79.527, 129.144 76.873 C 128.553 75.018, 127.823 72.275, 127.523 70.779 C 126.847 67.415, 125.044 66.438, 117.915 65.574 C 113.543 65.044, 112.058 65.226, 111.075 66.409 M 72.509 88.973 C 68.808 89.364, 67.431 89.953, 67.185 91.250 C 66.969 92.390, 67.479 93, 68.648 93 C 69.635 93, 78.330 93.266, 87.971 93.590 C 121.501 94.719, 125.010 94.693, 126.163 93.304 C 127.970 91.126, 125.441 89.013, 122.155 89.955 C 119.631 90.679, 80.123 89.651, 78.302 88.814 C 77.861 88.611, 75.254 88.683, 72.509 88.973 M 71.823 103.699 C 68.705 104.188, 66.251 106.663, 67.592 107.966 C 69.077 109.407, 124.773 109.627, 126.203 108.197 C 129.217 105.183, 124.226 104.574, 89 103.656 C 81.025 103.448, 73.295 103.467, 71.823 103.699 M 72.413 119.972 C 68.360 120.903, 67 121.804, 67 123.559 C 67 125.386, 64.716 125.279, 98 125.016 C 127.531 124.783, 129.636 124.465, 126.275 120.751 C 124.789 119.110, 122.557 118.970, 100.075 119.110 C 86.559 119.194, 74.111 119.582, 72.413 119.972" stroke="none" fill="black" fill-rule="evenodd"/>
</svg>