<svg xmlns="http://www.w3.org/2000/svg" width="256" height="256" viewBox="0 0 256 256" version="1.1">
	<path d="M 62.890 29.110 C 61.193 30.807, 60.899 31.970, 61.392 35.050 C 61.745 37.258, 61.573 39.146, 60.986 39.509 C 60.426 39.855, 60.254 40.602, 60.604 41.169 C 61.035 41.866, 58.530 41.975, 52.871 41.505 C 45.214 40.870, 44.265 40.995, 41.750 42.978 C 35.251 48.100, 40.257 53, 51.989 53 C 57.474 53, 58.150 53.235, 59.181 55.497 C 60.038 57.380, 60.023 58.979, 59.119 61.997 L 57.920 66 48.210 66.118 C 35.860 66.269, 33.168 66.887, 30.750 70.130 C 28.286 73.435, 29.113 76.490, 33.021 78.511 C 36.361 80.238, 49.159 80.491, 55.790 78.962 C 58.722 78.285, 60.706 78.307, 62.060 79.032 C 63.950 80.044, 64.028 81.038, 63.770 100.796 L 63.500 121.500 60 121.178 C 57.978 120.992, 55.454 119.830, 54.023 118.428 C 51.748 116.199, 51.501 115.053, 50.995 104.399 C 50.526 94.513, 50.162 92.592, 48.531 91.399 C 45.865 89.450, 44.535 89.636, 41.308 92.412 C 38.534 94.798, 38.498 94.976, 37.974 109.162 C 37.682 117.048, 37.057 124.121, 36.583 124.879 C 35.356 126.846, 33.936 141.898, 34.621 145.681 C 35.760 151.972, 39.699 151.018, 44.061 143.393 C 47.223 137.868, 49.755 135.744, 52.789 136.074 C 55.606 136.380, 61 134.826, 61 133.708 C 61 133.135, 61.311 132.977, 61.690 133.357 C 62.070 133.737, 62.916 132.799, 63.570 131.274 C 64.408 129.322, 64.903 128.944, 65.241 130 C 70.804 147.368, 71.390 147.913, 88 151.144 C 100.983 153.670, 145.407 151.909, 151.774 148.617 C 156.279 146.287, 158.174 143.539, 157.820 139.850 C 157.577 137.316, 156.804 136.182, 154.606 135.133 C 152.104 133.940, 150.919 133.973, 145.871 135.376 C 142.213 136.393, 136.168 137, 129.697 137 C 123.369 137, 117.382 137.588, 114.253 138.518 C 108.160 140.327, 103.720 140.569, 95 139.566 C 86.311 138.567, 81.913 137.145, 79.480 134.548 C 77.701 132.651, 77.466 131.098, 77.517 121.588 C 77.583 109.087, 78.255 108.003, 85.941 107.996 C 90.321 107.993, 96.487 105.298, 98.235 102.624 C 99.550 100.612, 99.044 98.065, 96.820 95.508 C 94.213 92.510, 91.391 92.347, 88 95 C 86.454 96.210, 83.922 96.964, 81.363 96.978 L 77.226 97 76.772 89.750 C 76.522 85.763, 76.752 81.938, 77.282 81.250 C 78.587 79.557, 82.224 79.679, 89.255 81.652 C 94.764 83.197, 95.371 83.194, 98.727 81.593 C 101.899 80.081, 102.483 80.055, 103.798 81.369 C 105.038 82.609, 106.584 92.308, 106.937 101.059 C 106.972 101.916, 108.628 105.291, 110.617 108.559 C 112.607 111.826, 115.244 116.300, 116.478 118.500 C 119.827 124.471, 123.735 126.091, 134.302 125.890 C 153.695 125.521, 157.002 123.452, 156.996 111.694 C 156.993 106.287, 156.500 103.693, 155.011 101.250 C 153.921 99.463, 152.659 98, 152.206 98 C 150.226 98, 148.062 100.815, 147.043 104.713 C 145.211 111.727, 140.989 113.263, 130.013 110.909 C 124.086 109.638, 122.907 108.217, 120.128 98.988 C 116.924 88.351, 116.709 86.434, 118.519 84.624 C 119.412 83.731, 120.898 82.971, 121.821 82.936 C 143.434 82.112, 152.223 81.205, 153.792 79.637 C 155.293 78.136, 155.500 75.409, 155.500 57.120 C 155.500 40.199, 155.223 35.977, 154.017 34.522 C 152.652 32.876, 150.811 32.771, 130.991 33.211 C 117.976 33.500, 108.622 34.132, 107.361 34.807 C 103.481 36.883, 102.675 41.030, 103.181 56.307 C 103.820 75.567, 103.608 76.154, 97.594 71.716 C 92.586 68.020, 89.298 67, 82.387 67 C 73.738 67, 72 65.990, 72 60.965 C 72 54.704, 74.427 53, 83.345 53 C 89.191 53, 91.028 52.627, 92.345 51.171 C 94.457 48.838, 94.429 48.411, 91.932 44.904 C 89.914 42.070, 89.648 42, 80.951 42 C 72.349 42, 72.017 41.915, 71.429 39.572 C 71.094 38.237, 71.110 36.229, 71.465 35.110 C 71.820 33.991, 71.569 32.046, 70.906 30.788 C 68.622 26.453, 66.079 25.921, 62.890 29.110 M 116.695 46.638 C 116.313 47.021, 116 52.385, 116 58.560 C 116 70.595, 116.450 71.605, 121.329 70.512 C 122.523 70.245, 127.845 69.848, 133.156 69.630 C 138.467 69.412, 143.341 68.907, 143.987 68.508 C 144.735 68.046, 144.894 66.822, 144.424 65.141 C 144.018 63.688, 143.419 58.900, 143.093 54.500 L 142.500 46.500 129.945 46.222 C 123.040 46.068, 117.077 46.256, 116.695 46.638" stroke="none" fill="black" fill-rule="evenodd"/>
</svg>