<svg xmlns="http://www.w3.org/2000/svg" width="256" height="256" viewBox="0 0 256 256" version="1.1">
	<path d="M 101.197 29.263 C 100.621 29.957, 100.003 32.320, 99.825 34.513 L 99.500 38.500 91.500 38.533 C 85.661 38.558, 82.807 39.029, 80.935 40.277 C 78.465 41.924, 78.251 41.899, 75.110 39.582 C 71.882 37.199, 71.655 37.179, 51.675 37.502 C 32.717 37.808, 31.437 37.948, 30.454 39.820 C 28.874 42.831, 29.338 78.498, 30.983 80.479 C 31.963 81.660, 34.031 81.985, 39.659 81.839 C 43.845 81.731, 47.513 82.113, 48.120 82.720 C 49.251 83.851, 49.897 132.579, 48.864 138.806 C 48.384 141.697, 48.678 142.299, 51.207 143.607 C 54.579 145.351, 56.869 144.822, 61.001 141.346 C 62.792 139.839, 65.698 138.640, 68.246 138.356 C 73.351 137.788, 75.637 135.727, 76.512 130.904 C 76.995 128.242, 76.735 126.878, 75.511 125.654 C 73.281 123.424, 72.310 123.562, 69.588 126.500 C 68.062 128.146, 66.196 129, 64.124 129 L 60.978 129 61.341 119.211 C 61.735 108.573, 63.093 104.425, 65.827 105.508 C 69.541 106.978, 74.041 107.211, 75.492 106.007 C 76.321 105.318, 77 103.471, 77 101.901 C 77 98.170, 73.275 95.710, 67.243 95.459 C 62.161 95.247, 59.991 93.326, 60.014 89.059 C 60.047 82.884, 62.749 80, 68.500 80 C 72.152 80, 75.653 78.057, 76.890 75.343 C 77.515 73.970, 78 67.419, 78 60.339 L 78 47.773 80.750 48.304 C 82.263 48.596, 85.300 49.312, 87.500 49.894 C 89.700 50.476, 93.151 50.963, 95.169 50.976 C 97.187 50.989, 100.112 51.652, 101.669 52.449 C 104.697 53.999, 107.130 54.822, 108.096 54.623 C 108.424 54.555, 109.437 55.118, 110.346 55.872 C 112.272 57.470, 112.450 59.918, 110.891 63.341 C 109.949 65.408, 108.930 65.842, 104.141 66.214 C 101.038 66.456, 96.250 67.744, 93.500 69.077 C 89.510 71.011, 88.500 71.997, 88.500 73.962 C 88.500 77.488, 94.204 78.724, 102.691 77.037 C 106.158 76.348, 109.611 76.021, 110.365 76.310 C 111.848 76.879, 113.096 81.586, 112.309 83.638 C 111.615 85.446, 106.695 86.746, 97.606 87.523 C 91.190 88.071, 89.270 88.639, 87.356 90.553 C 84.158 93.751, 84.391 95.357, 88.365 97.497 C 91.106 98.974, 93.133 99.203, 99.310 98.736 C 105.238 98.288, 107.152 98.479, 108.093 99.613 C 109.629 101.463, 107.390 103.293, 100.891 105.501 C 95.242 107.420, 80.385 121.956, 81.392 124.578 C 81.726 125.450, 82 126.352, 82 126.582 C 82 127.649, 90.318 126.842, 92.285 125.583 C 93.503 124.804, 96.750 124.016, 99.500 123.833 L 104.500 123.500 104.562 133 C 104.613 140.820, 105.123 143.873, 107.446 150.261 L 110.267 158.022 115.384 159.488 C 121.377 161.206, 141.441 161.335, 147.350 159.693 C 153.227 158.060, 153.821 156.376, 154.468 139.500 C 154.784 131.250, 155.259 123.375, 155.524 122 C 156.571 116.562, 154.734 113.695, 147.930 110.147 C 141.694 106.896, 141.251 106.815, 133.250 107.450 C 125.586 108.058, 125 107.970, 125 106.207 C 125 102.514, 128.271 100.871, 135.175 101.094 C 138.808 101.212, 142.585 100.758, 143.921 100.042 C 145.262 99.325, 147.766 99.025, 149.742 99.346 C 155.250 100.239, 158.936 99.105, 159.640 96.299 C 160.765 91.817, 158.654 89.381, 151.615 87.038 C 142.886 84.134, 142.392 82.427, 148.415 75.987 C 153.579 70.467, 153.852 69.353, 150.951 65.665 C 149.392 63.683, 149.015 62.077, 149.375 58.946 C 149.858 54.746, 151.322 53.015, 156.116 50.979 C 159.296 49.629, 161.434 45.942, 160.586 43.272 C 159.962 41.305, 154.341 39, 150.169 39 C 147.675 39, 145.644 35.697, 146.493 33.023 C 147.641 29.405, 140.271 27.540, 136.896 30.594 C 135.927 31.471, 135.350 32.749, 135.613 33.434 C 136.741 36.374, 132.875 37.503, 122.256 37.334 C 116.524 37.242, 111.586 36.919, 111.283 36.616 C 110.980 36.313, 110.605 34.904, 110.449 33.485 C 110.293 32.066, 109.623 30.251, 108.960 29.452 C 107.478 27.666, 102.621 27.547, 101.197 29.263 M 51.709 49.744 C 42.766 50.136, 42.575 50.345, 40.933 61.500 C 39.720 69.744, 40.359 70.130, 53.914 69.357 C 60.072 69.006, 65.049 68.241, 65.813 67.528 C 67.343 66.100, 67.577 62.311, 66.525 56 C 65.618 50.567, 64.443 48.935, 61.628 49.201 C 60.457 49.312, 55.994 49.556, 51.709 49.744 M 119.250 50.031 C 117.080 50.903, 116.098 53, 117.860 53 C 118.332 53, 120.245 54.598, 122.110 56.552 C 123.974 58.505, 126.850 60.806, 128.500 61.666 C 130.150 62.525, 132.696 64.346, 134.157 65.712 C 136.604 68, 137.087 68.098, 140.259 66.951 C 144.925 65.264, 146.215 63.029, 144.755 59.162 C 143.848 56.759, 142.042 55.397, 136.011 52.567 C 128.406 48.998, 123.622 48.274, 119.250 50.031 M 127.736 78.598 C 126.834 79.499, 128.075 82.071, 129.105 81.435 C 129.597 81.131, 130 80.234, 130 79.441 C 130 77.968, 128.809 77.525, 127.736 78.598 M 36.299 108.250 C 32.031 112.936, 31.521 115.032, 31.761 126.919 C 31.975 137.512, 31.811 138.647, 29.496 142.597 C 25.325 149.714, 26.308 152, 33.540 152 C 36.086 152, 37.867 151.079, 40.786 148.250 L 44.657 144.500 44.813 127.689 C 44.967 111.106, 44.936 110.845, 42.530 108.439 C 39.526 105.435, 38.881 105.416, 36.299 108.250 M 123.265 122.326 C 119.017 123.868, 118.976 125.144, 123.111 127.114 C 126.645 128.798, 139.065 130.214, 140.757 129.126 C 142.707 127.872, 143.100 124.243, 141.463 122.605 C 139.528 120.671, 128.300 120.499, 123.265 122.326 M 136.500 140.053 C 135.400 140.497, 131.980 140.891, 128.899 140.930 C 120.133 141.040, 114.541 143.831, 116.556 147.090 C 117.423 148.493, 138.369 148.231, 139.800 146.800 C 141.366 145.234, 141.338 141.515, 139.750 140.246 C 139.038 139.677, 137.639 139.594, 136.500 140.053" stroke="none" fill="black" fill-rule="evenodd"/>
</svg>