<svg xmlns="http://www.w3.org/2000/svg" width="256" height="256" viewBox="0 0 256 256" version="1.1">
	<path d="M 51.768 31.887 C 47.679 32.804, 45.248 35.390, 43.960 40.191 C 43.324 42.561, 41.948 47.021, 40.902 50.103 C 37.821 59.178, 38.790 65, 43.380 65 C 47.439 65, 50.774 59.540, 51.906 51.041 C 52.475 46.770, 52.689 46.527, 57 45.274 C 60.061 44.385, 66.458 44.052, 77 44.233 L 92.500 44.500 92.822 47.310 C 93.352 51.930, 91.602 53, 83.512 53 C 77.699 53, 75.750 53.409, 73.635 55.073 C 70.407 57.611, 70.287 59.995, 73.250 62.725 C 75.028 64.364, 77.137 64.877, 83.300 65.171 C 88.779 65.433, 91.377 65.984, 92.031 67.022 C 93.975 70.107, 90.184 71.151, 78 70.887 C 71.675 70.750, 65.515 70.966, 64.312 71.367 C 61.896 72.171, 60.329 76.251, 60.078 82.392 C 59.990 84.533, 59.489 87.086, 58.964 88.067 C 58.440 89.047, 57.764 95.069, 57.464 101.450 C 57.010 111.070, 57.195 113.522, 58.548 115.811 C 60.131 118.491, 60.446 118.575, 69.339 118.677 C 86.500 118.874, 94 120.177, 94 122.962 C 94 126.075, 90.433 128.343, 86.777 127.553 C 84.975 127.164, 74.275 126.475, 63 126.023 C 45.730 125.331, 41.948 125.437, 39 126.696 C 35.649 128.127, 35.596 128.227, 37.750 129.063 C 38.987 129.543, 40 130.399, 40 130.965 C 40 131.532, 41.462 133.540, 43.250 135.429 C 46.780 139.158, 47.612 139.298, 79.500 141.516 C 88.770 142.161, 97.459 143.928, 95.250 144.719 C 94.546 144.971, 94 146.838, 94 148.994 C 94 152.061, 94.627 153.350, 97.154 155.476 L 100.308 158.130 102.904 155.315 C 104.792 153.267, 105.407 151.658, 105.159 149.412 C 104.947 147.488, 105.446 145.697, 106.481 144.662 C 108.308 142.834, 109.645 142.709, 125 142.921 C 135.730 143.069, 145.143 141.349, 147.568 138.796 C 149.180 137.099, 150.207 131.826, 149.222 130.304 C 147.976 128.377, 142.607 127.820, 123.669 127.655 C 107.589 127.515, 105.706 127.319, 104.488 125.653 C 101.559 121.647, 105.916 118.851, 112.957 120.218 C 115.456 120.703, 120.943 120.809, 125.151 120.454 L 132.801 119.809 134.340 115.655 C 137.225 107.864, 137.829 103.501, 138.165 88.035 L 138.500 72.571 136 71.227 C 134.092 70.201, 130.408 70.026, 120.434 70.487 C 106.999 71.108, 102 70.326, 102 67.604 C 102 65.780, 105.355 65.179, 115.670 65.154 C 125.312 65.130, 129.466 63.468, 130.326 59.288 C 131.359 54.274, 128.458 53, 116.012 53 C 107.375 53, 104.983 52.684, 103.921 51.405 C 102.817 50.074, 102.845 49.368, 104.089 47.155 L 105.582 44.500 123.375 44.620 C 137.813 44.717, 141.453 45.025, 142.682 46.253 C 143.857 47.428, 143.950 48.225, 143.098 49.818 C 141.537 52.733, 141.796 60.146, 143.538 62.450 C 144.520 63.748, 146.215 64.400, 148.605 64.400 C 152.376 64.400, 153.890 62.916, 155.132 58 C 156.070 54.288, 156.095 35.698, 155.164 34.232 C 154.722 33.534, 152.816 32.517, 150.930 31.972 C 147.227 30.901, 56.510 30.824, 51.768 31.887 M 68.914 83.232 C 67.466 84.390, 67.466 84.643, 68.914 86.139 C 71.216 88.518, 89.526 89.331, 91.706 87.152 C 93.061 85.797, 93.031 85.496, 91.425 84.321 C 90.436 83.599, 87.799 83.084, 85.564 83.178 C 83.329 83.272, 79.025 83.037, 76 82.656 C 72.146 82.170, 70.025 82.343, 68.914 83.232 M 104.088 84.394 C 102.591 86.197, 105.187 89.009, 108.321 88.980 C 113.590 88.932, 124.479 86.844, 125.154 85.751 C 126.425 83.694, 123.814 83.031, 114.372 83.015 C 107.772 83.004, 104.925 83.386, 104.088 84.394 M 70.750 101.067 C 68.740 102.253, 68.453 104.544, 70.181 105.612 C 70.831 106.013, 74.543 106.421, 78.431 106.517 C 82.319 106.613, 86.400 106.918, 87.500 107.194 C 89.712 107.750, 93.155 106.059, 92.376 104.800 C 92.104 104.360, 92.414 104, 93.063 104 C 93.961 104, 93.955 103.650, 93.039 102.547 C 92.187 101.520, 89.873 101.122, 85.166 101.192 C 81.500 101.246, 77.150 101.008, 75.500 100.663 C 73.850 100.318, 71.713 100.500, 70.750 101.067 M 105.250 100.608 C 103.659 101.319, 103.627 105.227, 105.200 106.800 C 106.683 108.283, 119.371 108.407, 122.066 106.965 C 124.367 105.733, 124.625 102.454, 122.485 101.632 C 120.229 100.767, 106.694 99.962, 105.250 100.608" stroke="none" fill="black" fill-rule="evenodd"/>
</svg>