<svg xmlns="http://www.w3.org/2000/svg" width="256" height="256" viewBox="0 0 256 256" version="1.1">
	<path d="M 51.056 27.655 C 49.448 29.700, 49.117 31.105, 49.616 33.765 C 50.466 38.297, 49.272 38.966, 40.297 38.985 C 31.861 39.003, 28.440 40.284, 27.203 43.888 C 25.145 49.882, 29.638 52.327, 40.973 51.382 C 48.093 50.788, 49.028 50.910, 49.644 52.515 C 50.029 53.517, 49.680 55.463, 48.857 56.907 C 47.464 59.352, 46.984 59.486, 40.440 59.246 C 29.658 58.851, 27.893 61.504, 28.073 77.846 C 28.137 83.706, 28.116 92.100, 28.026 96.500 C 27.874 103.867, 28.085 104.791, 30.681 108.175 C 33.892 112.362, 35.466 113.010, 40.746 112.320 C 45.657 111.679, 50 113.367, 50 115.919 C 50 119.475, 46.243 121, 37.477 121 C 32.528 121, 28.935 121.465, 28.200 122.200 C 26.101 124.299, 26.884 127.725, 30.077 130.411 C 32.772 132.679, 34.059 133, 40.454 133 C 47.912 133, 50.572 134.205, 49.555 137.123 C 48.508 140.125, 48.195 154.122, 49.101 157.402 C 50.146 161.187, 52.387 162.443, 56.328 161.454 C 59.580 160.638, 60.347 157.781, 60.432 146.162 C 60.494 137.599, 60.696 136.666, 62.860 134.913 C 65.126 133.078, 67.385 132.981, 71.338 134.551 C 72.349 134.953, 74.149 135.386, 75.338 135.513 C 76.527 135.641, 77.816 135.802, 78.202 135.872 C 78.588 135.943, 78.256 138.137, 77.463 140.750 C 76.670 143.363, 76.017 147.176, 76.011 149.224 C 76.002 152.342, 76.480 153.197, 78.950 154.474 C 82.037 156.070, 86.945 156.539, 87.077 155.250 C 87.310 152.962, 87.953 150.898, 89.374 147.877 C 93.068 140.021, 95.219 131.926, 95.923 123.230 C 96.798 112.412, 98.239 110.275, 103.040 112.670 C 106.439 114.366, 106.988 116.348, 105.787 122.593 C 105.268 125.292, 104.609 131.438, 104.322 136.250 C 104.036 141.063, 103.396 145, 102.901 145 C 101.217 145, 101.920 152.620, 103.750 154.215 C 105.869 156.060, 120.106 157.290, 123.669 155.936 C 126.101 155.011, 129.974 147.992, 130.278 143.958 C 130.359 142.881, 130.780 142, 131.213 142 C 132.482 142, 132.118 139.975, 130.571 138.429 C 128.914 136.771, 126.391 136.558, 125.500 138 C 125.160 138.550, 123.364 139, 121.508 139 C 117.323 139, 116.585 137.170, 117.575 129.249 C 117.968 126.097, 118.338 121.946, 118.395 120.024 C 118.526 115.655, 122.655 113.066, 126.613 114.870 C 128.853 115.890, 129 116.474, 129 124.364 C 129 132.339, 129.135 132.858, 131.632 134.494 C 133.595 135.781, 133.932 136.424, 132.958 137.026 C 132.070 137.575, 132.566 137.940, 134.502 138.167 C 136.429 138.392, 137.900 139.472, 139.043 141.500 C 139.973 143.150, 140.583 144.771, 140.399 145.102 C 140.215 145.434, 142.430 148.246, 145.321 151.352 C 150.022 156.404, 151 157, 154.588 157 C 159.252 157, 161 155.634, 161 151.991 C 161 148.956, 159.624 147.058, 155.623 144.574 C 154.041 143.591, 152.255 141.485, 151.654 139.894 C 151.053 138.302, 150.210 137, 149.781 137 C 148.173 137, 149.096 134.789, 151.995 131.696 C 155.256 128.217, 155.614 126.442, 153.839 122.547 C 152.596 119.818, 151.948 119.498, 150.450 120.871 C 149.928 121.350, 148.321 122.019, 146.881 122.357 C 143.798 123.081, 138.653 119.038, 139.180 116.305 C 139.600 114.126, 144.599 112.775, 149 113.649 C 155.036 114.849, 157.524 114.476, 160 112 C 164.332 107.668, 160.824 101, 154.213 101 C 151.687 101, 150.050 100.194, 147.901 97.894 C 146.306 96.186, 145 94.201, 145 93.483 C 145 91.884, 150.203 87.388, 153.127 86.460 C 154.805 85.927, 154.967 85.593, 153.882 84.906 C 152.884 84.274, 152.848 84.026, 153.750 84.015 C 155.698 83.991, 155.242 82.768, 151.995 79.304 C 150.348 77.547, 149 75.907, 149 75.660 C 149 74.902, 143.242 69, 142.502 69 C 142.120 69, 139.821 70.748, 137.393 72.885 C 130.716 78.763, 128.617 78.763, 123.206 72.889 C 120.729 70.200, 118.182 68, 117.547 68 C 114.385 68, 105 81.586, 105 86.164 C 105 87.532, 106.125 89.708, 107.500 91 C 108.875 92.292, 110 94.170, 110 95.174 C 110 96.178, 110.450 97, 111 97 C 111.550 97, 112 97.640, 112 98.422 C 112 99.762, 109.074 101.029, 102.750 102.429 C 99.480 103.153, 99.752 104.988, 99.950 83.500 C 100.138 63.121, 100.236 62.925, 109.633 64.107 C 112.860 64.512, 123.665 64.992, 133.644 65.172 C 150.331 65.474, 151.957 65.347, 153.888 63.600 C 156.959 60.822, 157.988 55.837, 157.994 43.705 C 158 33.572, 157.849 32.758, 155.545 30.455 C 153.152 28.061, 152.673 27.995, 136.295 27.807 C 108.118 27.484, 95.960 27.969, 92.926 29.538 C 91.326 30.366, 89.727 32.338, 89.119 34.233 C 88.543 36.030, 87.784 51.225, 87.431 68 C 87.079 84.775, 86.605 98.806, 86.379 99.180 C 86.154 99.554, 85.521 103.154, 84.974 107.180 C 83.109 120.912, 82.813 122.500, 81.949 123.408 C 80.926 124.482, 77.764 122.191, 78.539 120.937 C 78.823 120.477, 78.143 119.612, 77.028 119.015 C 74.443 117.631, 74.462 116.257, 77.095 114.124 C 79.642 112.062, 80.670 106.535, 80 98.500 C 79.725 95.200, 79.853 90.685, 80.285 88.467 C 80.716 86.248, 80.941 79.321, 80.785 73.072 C 80.507 61.984, 80.434 61.661, 77.748 59.658 C 75.274 57.814, 74.464 57.716, 69.748 58.691 C 63.659 59.951, 61 59.021, 61 55.634 C 61 51.839, 64.723 50.561, 72.032 51.849 C 79.123 53.098, 81.637 52.294, 82.597 48.471 C 83.523 44.780, 82.281 41.234, 79.748 40.337 C 78.511 39.900, 73.900 39.532, 69.500 39.521 L 61.500 39.500 60.980 33.655 C 60.222 25.130, 55.357 22.188, 51.056 27.655 M 102.183 41.325 C 100.542 43.380, 99.931 46.640, 100.764 48.892 C 101.553 51.023, 102.067 51.083, 122.724 51.464 C 138.189 51.749, 144.105 51.538, 144.726 50.677 C 146.135 48.725, 146.161 44.603, 144.777 42.709 C 143.620 41.128, 141.220 40.885, 123.298 40.539 C 108.630 40.256, 102.865 40.470, 102.183 41.325 M 42.009 71.290 C 39.263 72.679, 38.499 74.868, 39.445 78.635 C 40 80.847, 40.515 81.079, 44.265 80.806 C 47.758 80.551, 48.616 80.062, 49.375 77.890 C 49.877 76.455, 49.989 74.093, 49.625 72.640 C 48.878 69.664, 46.171 69.184, 42.009 71.290 M 62 71.500 C 61.022 72.678, 60.913 74.077, 61.586 76.800 C 62.387 80.041, 62.872 80.500, 65.500 80.500 C 68.433 80.500, 68.500 80.389, 68.500 75.500 C 68.500 70.867, 68.310 70.478, 65.914 70.199 C 64.447 70.029, 62.754 70.591, 62 71.500 M 43.736 89.751 C 41.911 90.166, 39 94.823, 39 97.328 C 39 99.564, 41.442 101.040, 45.388 101.188 C 49.646 101.348, 50.170 100.960, 50.567 97.342 C 51.088 92.593, 47.716 88.846, 43.736 89.751 M 62.571 90.571 C 61.707 91.436, 60.948 92.673, 60.885 93.321 C 60.821 93.970, 60.697 95.175, 60.609 96 C 60.315 98.760, 62.047 101, 64.476 101 C 67.318 101, 68.089 99.973, 68.711 95.352 C 69.447 89.890, 65.965 87.178, 62.571 90.571 M 123.750 92.014 C 119.648 94.558, 123.306 101.333, 128.781 101.333 C 134.838 101.333, 136.699 100.242, 137.336 96.317 C 137.667 94.275, 137.763 92.429, 137.548 92.215 C 136.544 91.210, 125.310 91.047, 123.750 92.014 M 61.500 115 C 60.371 118.557, 61.844 121, 65.117 121 C 68.922 121, 74 118.399, 74 116.450 C 74 114.613, 70.027 113, 65.502 113 C 63.013 113, 61.969 113.522, 61.500 115" stroke="none" fill="black" fill-rule="evenodd"/>
</svg>