<svg xmlns="http://www.w3.org/2000/svg" width="256" height="256" viewBox="0 0 256 256" version="1.1">
	<path d="M 120.872 22.654 C 120.118 23.563, 119.275 26.826, 119 29.904 L 118.500 35.500 107.934 35.138 C 98.642 34.820, 96.832 35.040, 92.934 36.962 C 89.163 38.822, 86.931 39.131, 78 39.030 C 63.078 38.863, 62.667 38.708, 63.443 33.530 C 64.146 28.843, 62.822 24.253, 60.513 23.367 C 59.678 23.046, 57.888 23.062, 56.534 23.402 C 53.872 24.070, 52.101 28.784, 52.363 34.500 C 52.496 37.421, 52.369 37.506, 47.500 37.745 C 34.317 38.392, 30 40.299, 30 45.477 C 30 49.660, 33.542 51.091, 43.114 50.776 C 51.078 50.514, 51.516 50.610, 51.811 52.689 C 51.983 53.897, 51.219 55.781, 50.104 56.896 C 48.422 58.578, 47.255 58.817, 43.126 58.328 C 31.029 56.896, 30.146 58.710, 29.808 85.685 C 29.569 104.735, 29.651 105.701, 31.743 108.639 C 33.785 111.507, 34.461 111.751, 42.118 112.389 C 51.350 113.159, 52 113.393, 52 115.937 C 52 119.560, 49.403 120.359, 38.447 120.108 C 28.044 119.869, 28.014 119.875, 26.813 122.512 C 25.429 125.548, 26.210 127.321, 30.262 130.346 C 32.428 131.963, 34.386 132.272, 41.837 132.170 C 48.381 132.081, 50.940 132.400, 51.305 133.353 C 51.581 134.071, 51.458 137.829, 51.033 141.704 C 50.236 148.963, 51.199 158.599, 52.891 160.291 C 54.382 161.782, 59.008 161.421, 60.752 159.677 C 61.910 158.519, 62.489 155.115, 62.946 146.802 C 63.287 140.586, 63.915 134.938, 64.342 134.250 C 64.861 133.413, 67.852 133, 73.385 133 C 79.628 133, 83.403 132.388, 88.807 130.500 C 93.659 128.805, 98.141 127.992, 102.731 127.974 C 106.454 127.960, 113.989 127.512, 119.476 126.979 C 130.553 125.902, 133.352 126.298, 132.565 128.831 C 132.279 129.749, 131.805 133.200, 131.510 136.500 C 130.865 143.735, 129.408 146.860, 126.317 147.635 C 123.804 148.266, 123.155 151.363, 125.256 152.700 C 125.947 153.140, 127.789 155.213, 129.350 157.306 C 131.726 160.494, 132.693 161.063, 135.295 160.806 C 137.627 160.576, 138.914 159.626, 140.451 157 C 142.154 154.090, 142.557 151.391, 142.840 141 C 143.027 134.125, 143.617 128.050, 144.152 127.500 C 144.686 126.950, 148.301 126.500, 152.185 126.500 C 158.601 126.500, 159.423 126.265, 161.186 123.927 C 163.678 120.622, 162.755 116.428, 159.133 114.604 C 157.685 113.875, 153.951 112.991, 150.835 112.640 C 143.070 111.766, 141.632 111.149, 143.137 109.335 C 143.982 108.317, 145.798 108.027, 149.413 108.330 C 152.211 108.566, 155.512 108.377, 156.750 107.911 C 159.861 106.740, 159.740 102.033, 156.500 98.182 C 153.637 94.779, 153.386 92.411, 155.466 88.402 C 156.574 86.268, 156.812 83.243, 156.438 76.038 C 156.166 70.792, 155.928 64.925, 155.909 63 C 155.824 54.249, 153.774 53.015, 139.309 53.006 C 130.896 53, 128.846 52.095, 131.098 49.382 C 132.141 48.125, 133.839 47.974, 140.586 48.536 C 153.673 49.626, 159.374 46.553, 155.430 40.534 C 153.325 37.321, 150.850 36.707, 139.552 36.592 L 130.500 36.500 129.980 30.645 C 129.575 26.096, 128.937 24.368, 127.119 22.895 C 124.242 20.566, 122.656 20.504, 120.872 22.654 M 98.498 46.976 C 88.988 47.429, 87.042 47.824, 84.146 49.891 C 80.884 52.219, 80.610 52.247, 73.794 50.961 C 66.073 49.504, 63.730 50.154, 63.173 53.907 C 62.614 57.677, 64.420 58.713, 70.651 58.196 C 77.111 57.660, 82.480 59.810, 83.637 63.396 C 84.414 65.805, 84.267 83.524, 83.420 89.500 C 82.348 97.069, 86.104 102.025, 90.143 98.371 C 91.965 96.724, 93.719 96.526, 104.814 96.717 C 115.233 96.896, 117.726 96.653, 119.205 95.315 C 120.514 94.130, 120.708 93.353, 119.927 92.412 C 118.510 90.705, 115.039 90.015, 105.486 89.543 C 95.217 89.036, 94.456 88.179, 93.723 76.304 C 92.929 63.421, 93.334 55.507, 94.885 53.638 C 95.977 52.322, 98.194 52, 106.154 52 C 114.228 52, 116.174 51.710, 116.664 50.433 C 117.993 46.971, 114.110 46.232, 98.498 46.976 M 105.362 63.500 C 105.045 64.325, 105.069 65.737, 105.414 66.638 C 105.932 67.988, 107.030 68.173, 111.664 67.695 C 118.364 67.004, 120.401 65.531, 117.559 63.433 C 114.901 61.471, 106.122 61.519, 105.362 63.500 M 131.930 63.584 C 128.521 67.692, 137.935 70.527, 141.836 66.567 C 143.389 64.991, 143.370 64.782, 141.559 63.439 C 138.978 61.526, 133.571 61.607, 131.930 63.584 M 43.250 70.524 C 39.184 73.396, 41.559 81, 46.522 81 C 49.574 81, 51.208 78.029, 50.808 73.208 C 50.549 70.094, 50.099 69.455, 48 69.217 C 46.625 69.061, 44.487 69.649, 43.250 70.524 M 62.954 71.086 C 62.039 72.796, 62.063 74.162, 63.064 77.194 C 64.167 80.536, 64.723 81.056, 66.923 80.799 C 70.475 80.386, 73.443 74.432, 71.559 71.500 C 69.661 68.547, 64.447 68.296, 62.954 71.086 M 133.200 77.200 C 129.996 80.404, 133.987 82.788, 140.507 81.565 C 144.554 80.805, 144.892 79.738, 141.777 77.557 C 139.131 75.703, 134.874 75.526, 133.200 77.200 M 105 78.864 C 105 80.765, 105.559 81, 110.071 81 C 113.246 81, 115.704 80.439, 116.643 79.500 C 117.976 78.167, 117.928 78, 116.211 78 C 115.148 78, 112.191 77.714, 109.640 77.364 C 105.370 76.779, 105 76.898, 105 78.864 M 43.010 92.484 C 41.826 94.400, 41.001 96.988, 41.178 98.234 C 41.449 100.138, 42.204 100.550, 45.901 100.815 C 50.782 101.164, 51.960 100.171, 51.985 95.684 C 52.024 88.461, 46.675 86.553, 43.010 92.484 M 63.655 90.829 C 62.745 91.835, 62 94.301, 62 96.310 C 62 99.374, 62.403 100.063, 64.507 100.591 C 70.016 101.974, 74.162 95.047, 70.348 90.832 C 68.237 88.500, 65.764 88.499, 63.655 90.829 M 131.930 92.584 C 129.752 95.208, 132.034 97.456, 137.226 97.800 C 142.184 98.128, 143.308 97.035, 141.901 93.250 C 141.229 91.443, 140.295 91, 137.155 91 C 134.807 91, 132.720 91.633, 131.930 92.584 M 82.765 108.527 C 79.287 111.761, 78.576 112, 72.449 112 C 68.830 112, 64.998 112.466, 63.934 113.035 C 61.497 114.339, 61.450 117.192, 63.829 119.345 C 67.171 122.370, 81.719 121.221, 92.315 117.096 C 93.863 116.493, 97.913 115.966, 101.315 115.925 C 107.342 115.853, 132.492 113.409, 130.500 113.089 C 129.950 113.001, 130.565 112.338, 131.867 111.617 C 135.455 109.628, 133.343 109.257, 113.894 108.465 C 103.730 108.051, 94.837 107.190, 92.500 106.393 C 87.098 104.551, 87.023 104.567, 82.765 108.527 M 106.478 132.200 C 105.382 132.689, 103.765 134.344, 102.885 135.877 C 101.394 138.476, 101.418 138.932, 103.249 142.583 C 105.660 147.394, 108.693 149.948, 112.027 149.978 C 115.713 150.010, 119.218 147.263, 118.476 144.924 C 118.143 143.875, 117.663 141.871, 117.409 140.470 C 116.873 137.518, 112.610 132.393, 110.156 131.751 C 109.229 131.509, 107.574 131.711, 106.478 132.200" stroke="none" fill="black" fill-rule="evenodd"/>
</svg>