<svg xmlns="http://www.w3.org/2000/svg" width="256" height="256" viewBox="0 0 256 256" version="1.1">
	<path d="M 61 29 C 59.673 30.327, 59 32.333, 59 34.965 C 59 40.174, 56.859 41.425, 50.415 39.981 C 46.611 39.128, 45.312 39.221, 43.388 40.481 C 39.153 43.257, 38.051 46.138, 37.628 55.551 C 37.406 60.473, 36.684 69, 36.023 74.500 C 34.212 89.569, 35.168 135.491, 37.382 139.772 C 39.465 143.800, 43.070 144.839, 46.702 142.460 C 49.446 140.662, 55.724 140.131, 79.500 139.687 C 90.606 139.479, 90.189 139.805, 90 131.500 C 89.929 128.377, 85.703 121, 83.986 121 C 82.428 121, 82.839 115.304, 84.517 113.626 C 85.873 112.270, 85.530 111.886, 81.280 110.006 C 75.737 107.554, 73.226 107.933, 68.796 111.891 C 66.059 114.337, 65.600 115.430, 65.554 119.620 C 65.500 124.491, 65.492 124.502, 61.500 125.358 C 59.300 125.830, 55.808 126.913, 53.740 127.764 C 51.672 128.616, 49.647 128.980, 49.240 128.574 C 48.833 128.168, 48.352 122.071, 48.171 115.026 C 47.926 105.521, 48.166 102.016, 49.099 101.439 C 49.791 101.011, 57.861 100.771, 67.034 100.905 C 87.110 101.197, 90.208 100.374, 92.040 94.261 C 92.685 92.109, 92.959 87.937, 92.654 84.934 C 92.350 81.945, 91.795 76.368, 91.421 72.540 C 91.020 68.440, 91.241 62.217, 91.959 57.390 C 92.853 51.383, 92.884 48.652, 92.077 47.144 C 90.812 44.780, 85.372 43.014, 79.332 43.006 C 73.007 42.997, 72.219 42.358, 70.890 36.163 C 68.987 27.294, 65.345 24.655, 61 29 M 114.244 37.961 C 110.378 38.399, 108.279 39.267, 106.302 41.244 C 103.724 43.822, 103.580 44.532, 102.765 58.716 C 102.299 66.847, 102.191 78.675, 102.525 85 C 102.860 91.325, 103.302 102.575, 103.506 110 C 103.711 117.425, 104.376 127.835, 104.983 133.134 C 105.800 140.261, 105.792 143.942, 104.952 147.278 C 103.646 152.461, 104.533 154.992, 108.581 157.645 C 110.693 159.029, 111.469 159.087, 113.479 158.011 C 114.793 157.308, 116.324 155.555, 116.882 154.116 C 118.494 149.958, 118.643 117.956, 117.124 102.529 C 116.330 94.476, 116.033 85.580, 116.423 81.529 C 116.794 77.663, 117.076 71.125, 117.049 67 C 116.995 58.714, 118.226 52.096, 120.027 50.983 C 120.672 50.585, 125.210 50.178, 130.111 50.079 C 137.105 49.937, 139.144 50.211, 139.582 51.352 C 140.408 53.505, 136.006 63.103, 132.794 66.151 C 127.705 70.980, 129.698 77.156, 138.530 83.931 C 144.205 88.285, 147.900 95.989, 147.960 103.595 C 148.019 111.052, 146.301 112.260, 136.181 111.877 C 126.962 111.528, 125 112.530, 125 117.587 C 125 121.549, 126.088 122.253, 134.788 123.915 C 138.247 124.575, 142.875 125.750, 145.073 126.526 C 155.399 130.169, 160.104 124.011, 160.024 106.959 C 159.963 93.748, 155.015 81, 149.951 81 C 147.679 81, 145.102 75.459, 145.677 71.812 C 145.930 70.204, 147.456 66.101, 149.068 62.694 C 150.680 59.287, 151.999 55.917, 151.999 55.204 C 152 54.492, 153.125 51.795, 154.500 49.212 C 157.485 43.605, 157.646 40.894, 155.128 38.616 C 153.503 37.145, 151.038 36.951, 136.378 37.144 C 127.095 37.266, 117.135 37.634, 114.244 37.961 M 51.250 54.103 C 49.239 56.189, 49.691 61.764, 51.969 62.984 C 53.052 63.563, 58.115 64.057, 63.219 64.081 C 68.324 64.105, 74.018 64.209, 75.873 64.312 C 79.913 64.537, 81.552 61.746, 79.640 57.895 C 78.628 55.855, 77.490 55.408, 71.976 54.883 C 68.414 54.544, 62.575 53.938, 59 53.536 C 54.189 52.995, 52.175 53.142, 51.250 54.103 M 48.606 78.585 C 47.601 81.203, 47.924 86.835, 49.121 87.575 C 49.738 87.956, 56.543 88.227, 64.244 88.178 C 75.930 88.103, 78.556 87.807, 80.123 86.389 C 84.509 82.420, 81.750 80.643, 68.801 79.097 C 50.663 76.933, 49.253 76.897, 48.606 78.585" stroke="none" fill="black" fill-rule="evenodd"/>
</svg>