<svg xmlns="http://www.w3.org/2000/svg" width="256" height="256" viewBox="0 0 256 256" version="1.1">
	<path d="M 112.500 32.710 C 83.125 35.165, 85.319 33.537, 84.970 53.137 C 84.626 72.407, 84.628 74.608, 84.986 81 C 85.501 90.166, 84.015 99.081, 81.154 104 C 76.071 112.737, 73.283 128.331, 76.349 130.875 C 78.772 132.885, 82.097 129.715, 86.076 121.601 C 87.959 117.760, 90.010 114.458, 90.634 114.264 C 91.258 114.070, 92.544 114.687, 93.494 115.636 C 94.884 117.027, 95.073 118.250, 94.467 121.931 C 94.054 124.444, 93.667 128.899, 93.608 131.831 C 93.487 137.815, 95.229 140, 100.120 140 C 105.545 140, 107.464 135.301, 104.407 129.500 C 101.173 123.362, 103.559 115.507, 108.445 116.206 C 111.164 116.595, 111.558 119.913, 109.576 125.730 C 107.204 132.692, 107.527 135.425, 111.077 138.411 C 114.576 141.356, 114.960 141.431, 118.434 139.848 C 121.616 138.398, 122.185 136.543, 120.993 131.500 C 118.936 122.797, 120.245 116, 123.976 116 C 126.934 116, 127.139 117.229, 125.828 127.077 L 124.605 136.263 127.358 138.632 C 130.744 141.544, 132.947 141.616, 136.365 138.927 C 139.328 136.597, 139.690 133.608, 137.844 126.705 C 135.774 118.969, 139.343 113.236, 143.236 118.043 C 144.200 119.234, 144.790 120.530, 144.547 120.924 C 144.041 121.743, 143.145 125.863, 142.335 131.091 C 141.860 134.159, 142.178 134.995, 144.525 136.841 C 146.034 138.028, 148.324 139, 149.612 139 C 154.443 139, 155.870 132.947, 156.238 110.903 C 156.396 101.405, 156.120 98.833, 154.715 96.688 C 153.748 95.213, 153 92.142, 153 89.650 C 153 82.113, 152.234 81.916, 122.416 81.768 C 100.370 81.658, 96.962 81.438, 97.211 80.145 C 97.456 78.878, 101.100 78.602, 121 78.345 C 136.390 78.145, 145.261 77.638, 146.705 76.875 C 150.378 74.935, 152.270 69.499, 152.195 61.106 C 152.141 55.124, 151.765 53.301, 150.372 52.283 C 148.526 50.933, 139.357 50.500, 112.594 50.500 C 102.018 50.500, 97.570 50.156, 97.283 49.318 C 96.566 47.221, 100.284 46.204, 111.006 45.566 C 122.909 44.858, 139.197 42.496, 143.155 40.904 C 148.185 38.881, 147.565 33.786, 142.089 32.145 C 137.569 30.791, 134.859 30.842, 112.500 32.710 M 37.297 37.700 C 36.086 37.934, 34.823 38.981, 34.492 40.026 C 33.523 43.079, 35.829 46.042, 40.836 48.177 C 43.401 49.271, 47.408 51.029, 49.739 52.083 C 55.362 54.626, 59.300 54.506, 62.569 51.694 C 65.711 48.992, 66.171 44.330, 63.490 42.369 C 62.522 41.661, 59.653 40.817, 57.115 40.493 C 54.577 40.170, 49.995 39.251, 46.934 38.452 C 43.873 37.654, 40.948 37.061, 40.434 37.136 C 39.920 37.211, 38.509 37.465, 37.297 37.700 M 96.604 63.590 C 96.268 64.465, 96.247 65.590, 96.556 66.090 C 96.865 66.591, 106.451 67, 117.859 67 C 139.043 67, 142.434 66.433, 139.854 63.324 C 139.007 62.303, 133.999 62, 117.985 62 C 99.920 62, 97.134 62.207, 96.604 63.590 M 32.750 71.705 C 30.456 74.265, 30.475 80.215, 32.784 82.305 C 34.099 83.495, 37.027 83.996, 43.928 84.210 C 55.506 84.569, 56.977 85.825, 52.438 91.476 C 46.091 99.378, 45.194 102.995, 47.970 109.500 C 49.093 112.133, 51 122.590, 51 126.120 C 51 128.611, 50.127 129.340, 42.750 133.012 C 38.212 135.270, 33.685 138.075, 32.688 139.245 C 30.609 141.688, 31.136 145.619, 33.816 147.656 C 36.106 149.397, 42.295 149.321, 46.654 147.500 C 48.629 146.675, 51.117 146, 52.185 146 C 54.598 146, 65.987 149.605, 72 152.272 C 78.855 155.313, 85.917 156.976, 92 156.981 C 95.025 156.984, 104.475 157.735, 113 158.650 C 126.174 160.064, 130.226 160.132, 140 159.105 C 154.682 157.562, 157.480 156.669, 158.980 153.047 C 161.080 147.979, 158.162 145.052, 151.500 145.543 C 135.674 146.710, 100.977 145.333, 84.500 142.885 C 76.013 141.624, 67.121 137.509, 66.538 134.574 C 66.034 132.033, 64.709 112.819, 64.705 108 C 64.704 106.075, 65.725 98.052, 66.976 90.170 C 69.952 71.405, 69.798 71, 59.675 71 C 55.623 71, 48.301 70.719, 43.404 70.376 C 35.382 69.815, 34.327 69.946, 32.750 71.705 M 102.239 93.666 C 101.545 93.946, 100.495 95.074, 99.906 96.175 C 99.004 97.861, 99.354 98.638, 102.134 101.119 C 103.947 102.739, 106.106 103.934, 106.931 103.775 C 109.034 103.370, 111.895 97.885, 110.306 97.306 C 109.650 97.066, 109.338 96.284, 109.613 95.567 C 110.323 93.716, 105.316 92.426, 102.239 93.666 M 118.884 94.005 C 116.727 95.265, 117.537 99.216, 120.527 102.026 C 123.178 104.516, 124.381 104.097, 126.533 99.937 C 127.614 97.845, 127.708 97, 126.859 97 C 126.203 97, 125.963 96.704, 126.325 96.342 C 127.417 95.250, 124.902 92.998, 122.628 93.030 C 121.457 93.047, 119.773 93.486, 118.884 94.005 M 135.750 94.054 C 131.635 96.512, 135.798 104, 141.279 104 C 144.495 104, 146.243 101.184, 145.810 96.704 C 145.523 93.733, 145.209 93.482, 141.500 93.255 C 139.300 93.120, 136.713 93.480, 135.750 94.054" stroke="none" fill="black" fill-rule="evenodd"/>
</svg>