<svg xmlns="http://www.w3.org/2000/svg" width="256" height="256" viewBox="0 0 256 256" version="1.1">
	<path d="M 61.053 29.436 C 60.398 30.226, 59.702 32.585, 59.508 34.679 C 59.038 39.737, 56.390 41.403, 48.740 41.458 C 43.524 41.494, 42.493 41.828, 40.882 44 C 36.919 49.340, 41.009 53, 50.940 53 C 55.348 53, 56.935 53.389, 57.393 54.582 C 58.314 56.981, 58.121 61.353, 56.947 64.722 L 55.894 67.743 45.403 68.209 C 36.923 68.586, 34.392 69.063, 32.206 70.694 C 28.684 73.321, 28.441 75.020, 31.106 78.408 C 33.257 81.143, 33.433 81.179, 43.394 80.976 C 56.322 80.712, 56 80.662, 56 82.911 C 56 84.555, 51.767 89.098, 49.251 90.154 C 48.798 90.344, 47.401 91.962, 46.146 93.750 C 44.891 95.537, 43.210 97, 42.410 97 C 40.104 97, 33.126 102.028, 32.442 104.183 C 31.477 107.224, 34.647 110, 39.084 110 C 41.159 110, 43.532 110.675, 44.357 111.500 C 45.182 112.325, 46.309 113, 46.861 113 C 48.435 113, 48.796 115.487, 49.479 131 C 49.829 138.975, 50.584 146.990, 51.156 148.812 C 52.540 153.220, 55.663 154.349, 62.817 153.026 C 71.901 151.347, 80.039 151.727, 83.774 154.004 C 85.575 155.102, 88.107 156, 89.402 156 C 93.848 156, 94.499 153.784, 94.517 138.593 C 94.527 129.504, 94.960 123.746, 95.734 122.377 C 97.216 119.756, 96.403 98.190, 94.746 96.194 C 94.139 95.463, 92.114 94.080, 90.245 93.121 C 87.401 91.662, 86.026 91.546, 81.811 92.409 C 77.114 93.372, 76.649 93.284, 74.888 91.110 C 71.714 87.190, 72.411 84.515, 76.999 83 C 80.292 81.913, 81.954 81.909, 86.406 82.978 C 91.589 84.221, 92.011 84.165, 96.533 81.637 C 99.128 80.187, 101.656 79, 102.151 79 C 104.643 79, 105.215 85.969, 105.354 118 C 105.512 154.151, 105.795 156.230, 110.743 157.472 C 112.384 157.883, 113.865 157.527, 115.080 156.428 C 118.698 153.154, 119.157 149.016, 118.595 124.780 C 117.234 66.081, 117.204 53.103, 118.426 51.433 C 119.410 50.086, 121.356 49.808, 129.049 49.911 C 135.054 49.992, 138.890 50.484, 139.635 51.269 C 141.335 53.059, 137.744 63.627, 134.594 66.104 C 129.213 70.337, 130.478 78.610, 137.444 84.742 C 144.179 90.670, 149.003 104.352, 147.231 112.500 C 146.385 116.390, 146.255 116.493, 142.488 116.258 C 140.358 116.124, 138.162 115.562, 137.608 115.008 C 137.053 114.453, 134.890 114, 132.800 114 C 128.759 114, 125 116.695, 125 119.592 C 125 121.948, 128.208 125.479, 130.500 125.645 C 132.775 125.811, 143.963 129.153, 148.574 131.044 C 156.385 134.249, 160 129.051, 160 114.615 C 160 109.491, 159.501 103.769, 158.891 101.899 C 154.396 88.129, 150.451 81, 147.326 81 C 144.748 81, 145.373 73.180, 148.484 66.500 C 149.765 63.750, 151.907 59.025, 153.245 56 C 154.582 52.975, 156.424 49.882, 157.338 49.128 C 159.581 47.276, 159.440 42.708, 157.074 40.567 C 154.688 38.407, 146.427 37.303, 125.836 36.393 C 110.430 35.712, 110.092 35.742, 105.336 38.201 C 100.996 40.444, 100.192 40.567, 97.500 39.395 C 92.436 37.192, 88.217 37.663, 85.354 40.750 C 83.161 43.115, 82.046 43.493, 77.399 43.447 C 74.426 43.418, 71.515 42.915, 70.929 42.329 C 70.343 41.743, 69.533 38.830, 69.129 35.856 C 68.726 32.882, 68.055 29.898, 67.639 29.225 C 66.603 27.549, 62.510 27.680, 61.053 29.436 M 98.248 48.809 C 95.603 49.197, 94.610 50.856, 91.431 60.203 L 89.066 67.157 91.560 69.468 C 92.932 70.740, 95.392 72.334, 97.027 73.011 C 98.662 73.689, 100.036 74.976, 100.079 75.871 C 100.145 77.232, 100.249 77.253, 100.709 76 C 101.013 75.175, 101.920 73.743, 102.725 72.817 C 103.857 71.515, 104.096 69.007, 103.778 61.748 C 103.325 51.411, 101.979 48.262, 98.248 48.809 M 70.667 54.667 C 69.388 55.945, 69.916 68.001, 71.250 67.985 C 74.417 67.946, 77 63.480, 77 58.042 C 77 54.724, 72.831 52.502, 70.667 54.667 M 63.500 96 C 63.160 96.550, 63.584 97, 64.441 97 C 65.298 97, 66 96.550, 66 96 C 66 95.450, 65.577 95, 65.059 95 C 64.541 95, 63.840 95.450, 63.500 96 M 58.223 102.944 C 54.338 106.492, 54.238 107.454, 57.526 109.609 C 59.402 110.838, 62.869 111.339, 70.985 111.551 C 81.111 111.817, 81.963 111.693, 82.541 109.871 C 83.615 106.487, 81.171 104.809, 75.559 105.076 C 66.795 105.494, 65.402 105.178, 64.182 102.500 C 62.731 99.316, 62.147 99.360, 58.223 102.944 M 68.500 126.682 C 60.432 127.668, 59.185 129.002, 61.050 134.653 L 62.155 138 71.971 138 C 79.998 138, 81.897 137.712, 82.393 136.418 C 83.255 134.173, 83.147 127.021, 82.250 126.894 C 79.515 126.508, 70.999 126.376, 68.500 126.682" stroke="none" fill="black" fill-rule="evenodd"/>
</svg>