<svg xmlns="http://www.w3.org/2000/svg" width="256" height="256" viewBox="0 0 256 256" version="1.1">
	<path d="M 87.069 31.750 C 82.613 36.095, 73.863 47.140, 72.901 49.635 C 72.680 50.206, 70.025 54.093, 67 58.274 C 61.885 65.343, 61.115 65.984, 56 67.421 C 52.975 68.272, 47.688 70.633, 44.250 72.668 C 36.900 77.019, 36.147 79.544, 41.136 83.097 C 44.108 85.213, 44.489 85.253, 48.386 83.850 C 51.989 82.554, 53.183 82.550, 58 83.811 C 61.257 84.664, 68.802 85.303, 76.500 85.376 L 89.500 85.500 89.204 89 C 88.754 94.310, 86.984 97.975, 84.623 98.480 C 83.456 98.730, 77.325 99.421, 71 100.017 C 55.017 101.521, 51.072 103.419, 53.049 108.650 C 54.211 111.724, 68.029 115.380, 69.499 113.002 C 70.408 111.530, 86.274 111.740, 88.269 113.250 C 89.617 114.271, 89.975 116.793, 90.221 127 C 90.387 133.875, 90.742 140.175, 91.011 141 C 91.548 142.646, 92.080 142.627, 61.903 142.076 C 44.353 141.756, 41.848 142.416, 42.217 147.267 C 42.551 151.652, 45.908 153.984, 53.626 155.192 C 63.726 156.773, 135.085 156.646, 142.053 155.034 C 149.542 153.303, 152 151.589, 152 148.099 C 152 143.445, 149.965 142.644, 136.969 142.180 C 128.585 141.881, 124.977 141.384, 124.630 140.477 C 124.359 139.773, 124.827 136.565, 125.669 133.349 C 127.008 128.232, 127.092 121.699, 125.879 117.046 C 125.624 116.067, 126.969 115.120, 130 114.148 C 138.867 111.304, 139.942 110.758, 140.571 108.775 C 141.659 105.350, 138.199 103.115, 129.463 101.602 C 125.083 100.843, 117.141 100.216, 111.813 100.209 C 106.484 100.201, 101.647 99.900, 101.063 99.539 C 100.478 99.177, 100 96.009, 100 92.498 C 100 84.061, 101.405 83, 112.576 83 C 119.822 83, 120.996 82.733, 123.354 80.548 C 124.809 79.199, 126 77.212, 126 76.131 C 126 73.319, 127.962 73.053, 130.439 75.530 C 131.611 76.702, 135.613 78.485, 139.331 79.492 C 146.001 81.297, 146.128 81.295, 148.796 79.311 C 150.283 78.204, 151.648 76.297, 151.830 75.071 C 152.316 71.789, 145.022 65.342, 136.223 61.277 C 130.757 58.751, 127.034 56.041, 121.684 50.691 C 117.728 46.736, 112.469 41.659, 109.996 39.410 C 107.523 37.160, 103.877 33.448, 101.893 31.160 C 96.810 25.298, 93.553 25.427, 87.069 31.750 M 87.863 50.696 C 81.272 57.622, 74.065 63.849, 69.758 66.338 C 65.285 68.922, 65.119 69.708, 68.750 71.116 C 70.716 71.879, 75.981 71.845, 87.214 70.996 C 102.891 69.811, 121.513 70.403, 122.574 72.120 C 122.873 72.604, 124.026 73, 125.136 73 C 126.929 73, 126.839 72.740, 124.327 70.660 C 122.772 69.373, 120.753 67.910, 119.840 67.410 C 118.927 66.909, 116.646 64.269, 114.771 61.543 C 112.896 58.817, 110.212 55.892, 108.807 55.043 C 107.402 54.194, 104.239 52.063, 101.779 50.308 C 94.501 45.112, 93.139 45.150, 87.863 50.696 M 102.851 113.245 C 101.552 114.302, 101.381 116.685, 101.772 128.327 C 102.291 143.791, 102.212 143.645, 109.491 142.554 L 113.957 141.884 113.346 136.033 C 112.826 131.058, 113.053 129.734, 114.867 127.187 C 116.040 125.539, 117 123.534, 117 122.730 C 117 121.927, 117.894 120.134, 118.986 118.745 C 121.543 115.494, 120.347 114.454, 113 113.540 C 109.975 113.163, 106.801 112.661, 105.948 112.423 C 105.094 112.185, 103.700 112.555, 102.851 113.245 M 66.153 119.750 C 63.555 124.710, 63.792 127.802, 67.165 132.954 C 69.069 135.863, 71.216 138, 72.234 138 C 73.205 138, 74 138.446, 74 138.990 C 74 139.535, 74.860 139.244, 75.912 138.343 C 76.964 137.443, 77.667 136.210, 77.475 135.603 C 77.283 134.996, 76.873 131.350, 76.564 127.500 C 76.168 122.565, 75.503 120.131, 74.310 119.250 C 71.828 117.417, 67.228 117.699, 66.153 119.750" stroke="none" fill="black" fill-rule="evenodd"/>
</svg>