<svg xmlns="http://www.w3.org/2000/svg" width="256" height="256" viewBox="0 0 256 256" version="1.1">
	<path d="M 68 27.995 C 58.041 28.615, 54.122 29.410, 53.902 30.857 C 53.626 32.671, 52.725 71.965, 52.745 81.348 C 52.762 90.101, 53.087 92.514, 54.426 93.848 C 55.847 95.263, 58.697 95.500, 74.292 95.500 C 84.307 95.500, 93.118 95.898, 93.873 96.385 C 95.585 97.488, 94.707 106.924, 92.776 108.179 C 92.074 108.635, 89.700 108.943, 87.500 108.863 C 85.300 108.783, 81.700 109.191, 79.500 109.770 C 77.300 110.348, 72.850 111.127, 69.612 111.500 C 64.741 112.061, 63.223 112.724, 60.822 115.339 L 57.920 118.500 60.332 120.592 C 62.759 122.697, 65.097 123.086, 86 124.862 L 93.500 125.500 94.431 129.269 C 95.212 132.429, 95.031 133.480, 93.315 135.769 L 91.268 138.500 73.384 138.165 C 61.918 137.951, 53.730 137.323, 50.568 136.415 C 43.555 134.403, 42.533 134.596, 40.533 138.309 C 38.865 141.405, 38.857 141.822, 40.396 144.799 C 43.390 150.589, 45.425 151.215, 64.302 152.148 C 90.046 153.421, 125.718 153.054, 135.500 151.415 C 146.230 149.617, 149.093 147.598, 146.507 143.651 C 145.612 142.285, 144.120 140.861, 143.190 140.485 C 139.679 139.067, 121.578 137.188, 116.485 137.714 C 113.566 138.015, 110.013 137.969, 108.589 137.612 C 106.303 137.038, 106 136.456, 106 132.636 C 106 126.815, 108.560 124.445, 114.311 124.942 C 125.831 125.937, 135.907 124.667, 138.944 121.837 C 141.252 119.687, 141.682 114.811, 139.708 113.173 C 137.372 111.234, 114.551 109.747, 110.417 111.264 C 107.823 112.216, 106 108.810, 106 103.010 C 106 97.567, 108.517 96.016, 117.473 95.940 C 129.773 95.836, 134.047 94.710, 137.558 90.649 C 140.317 87.457, 140.800 85.940, 141.812 77.274 C 142.440 71.898, 143.473 59.921, 144.108 50.658 C 145.606 28.768, 146.402 29.805, 127.822 29.431 C 120.495 29.284, 110.687 28.677, 106.026 28.082 C 97.086 26.940, 85.362 26.914, 68 27.995 M 73.147 41.015 C 70.202 41.450, 67.320 42.280, 66.741 42.859 C 65.591 44.009, 65.626 55.050, 66.783 56.143 C 67.177 56.516, 69.975 56.400, 73 55.886 C 76.025 55.371, 81.425 54.903, 85 54.845 C 88.575 54.787, 92.016 54.332, 92.647 53.833 C 94.042 52.730, 94.309 42.309, 92.963 41.477 C 91.336 40.471, 78.796 40.179, 73.147 41.015 M 106.282 41.804 C 105.009 42.613, 104.736 50.955, 105.920 52.871 C 106.644 54.043, 129.555 56.393, 131.078 55.452 C 132.461 54.597, 132.191 45.393, 130.750 44.274 C 130.063 43.740, 125.139 42.784, 119.808 42.151 C 108.453 40.802, 107.882 40.788, 106.282 41.804 M 69 68.923 C 65.960 69.424, 65.379 69.990, 64.579 73.227 C 63.943 75.803, 64.028 77.767, 64.856 79.584 C 65.923 81.925, 66.461 82.149, 69.777 81.628 C 79.211 80.148, 90.296 79.712, 89.593 80.850 C 89.169 81.536, 89.535 82, 90.500 82 C 91.390 82, 91.840 81.550, 91.500 81 C 91.160 80.450, 91.595 80, 92.466 80 C 94.698 80, 96.180 75.474, 95.194 71.667 L 94.374 68.500 83.437 68.423 C 77.422 68.381, 70.925 68.606, 69 68.923 M 106.207 69.251 C 105.281 70.366, 105.349 74.718, 106.382 80.500 C 106.778 82.718, 108.989 82.829, 115.026 80.934 C 117.434 80.179, 120.208 80.129, 123.776 80.778 L 129.001 81.727 130.160 77.861 C 132.075 71.469, 130.486 69.440, 122.944 68.652 C 113.397 67.654, 107.352 67.870, 106.207 69.251" stroke="none" fill="black" fill-rule="evenodd"/>
</svg>