<svg xmlns="http://www.w3.org/2000/svg" width="256" height="256" viewBox="0 0 256 256" version="1.1">
	<path d="M 104.500 26.120 C 101.750 26.656, 97.475 27.494, 95 27.982 C 92.525 28.470, 85.574 29.160, 79.553 29.515 C 64.187 30.421, 57.775 33.955, 61.416 39.513 C 63.407 42.551, 66.635 42.973, 78.805 41.787 C 91.140 40.585, 92.729 41.298, 91.564 47.509 L 90.873 51.192 84.472 50.599 C 80.951 50.273, 75.917 50.441, 73.285 50.972 C 70.653 51.504, 65.244 52.158, 61.264 52.427 C 47.896 53.329, 43.565 55.407, 44.178 60.623 C 44.628 64.462, 48.170 65.248, 61.500 64.469 C 83.241 63.198, 90.156 63.348, 91.286 65.114 C 91.854 66.002, 92.034 67.468, 91.687 68.373 C 91.129 69.828, 89.212 69.971, 75.019 69.613 L 58.981 69.209 56.909 71.843 C 55.312 73.873, 54.985 75.283, 55.481 77.989 C 56.346 82.706, 57.128 95.980, 57.019 104.098 C 56.901 112.836, 57.701 113.453, 69.405 113.663 C 74.407 113.753, 81.200 114.075, 84.500 114.378 C 87.800 114.681, 90.838 114.945, 91.250 114.964 C 92.779 115.037, 91.930 117.987, 89.811 119.961 C 87.498 122.117, 79 122.933, 79 121 C 79 119.695, 75.399 119.716, 72.934 121.035 C 71.582 121.759, 71 121.748, 71 121 C 71 120.319, 70.364 120.243, 69.250 120.792 C 68.287 121.267, 65.551 121.770, 63.169 121.910 C 59.376 122.133, 50.864 124.833, 53.500 124.976 C 54.050 125.006, 53.892 125.416, 53.149 125.887 C 52.088 126.559, 52.412 127.430, 54.658 129.944 C 57.374 132.983, 58.023 133.190, 67.509 134.037 C 73.004 134.527, 80.304 134.945, 83.731 134.964 C 89.476 134.997, 90.009 135.189, 90.570 137.421 C 90.904 138.752, 91.019 140.665, 90.825 141.671 C 90.498 143.374, 88.808 143.518, 66.329 143.768 L 42.183 144.035 41.131 147.055 C 39.830 150.786, 41.041 154.386, 44.202 156.189 C 46.006 157.218, 55.744 157.481, 89.500 157.413 C 133.987 157.323, 142.792 156.674, 145.980 153.252 C 148.451 150.599, 148.384 150.084, 145.168 147.010 C 141.362 143.373, 135.289 142.553, 117.259 143.241 C 103.845 143.753, 103.844 143.752, 102.750 141.350 C 101.891 139.464, 102.021 138.180, 103.354 135.383 L 105.054 131.820 110.277 132.490 C 113.150 132.858, 117.295 133.620, 119.490 134.183 C 130.614 137.036, 140.107 130.674, 136.046 123.086 C 134.886 120.918, 121.478 118.951, 110.126 119.284 C 104.088 119.461, 102.553 119.188, 101.649 117.778 C 99.335 114.167, 102.119 113.478, 117.616 113.825 C 138.067 114.284, 137.021 115.301, 136.729 95.241 C 136.603 86.583, 136.841 77.903, 137.258 75.951 C 137.793 73.445, 137.594 71.830, 136.581 70.451 C 135.244 68.632, 134.064 68.522, 119.178 68.824 C 102.873 69.156, 100.395 68.639, 103.034 65.459 C 104.013 64.280, 107.367 64.044, 120.870 64.207 C 140.655 64.446, 148.121 63.629, 150.537 60.959 C 152.602 58.677, 151.523 56.839, 146.633 54.310 C 143.280 52.576, 115.194 50.525, 108.853 51.551 C 103.769 52.373, 101.701 48.550, 104.099 42.762 C 105.320 39.814, 106.249 39.456, 115 38.568 C 123.774 37.678, 127.987 36.165, 128.982 33.547 C 130.082 30.654, 129.288 27.325, 127.318 26.569 C 124.418 25.456, 109.423 25.161, 104.500 26.120 M 66.459 83.067 C 66.096 83.653, 66.092 84.425, 66.449 84.783 C 67.308 85.641, 88.796 86.183, 91.999 85.427 L 94.498 84.837 91.999 83.454 C 88.917 81.748, 67.475 81.423, 66.459 83.067 M 101 83.525 C 101 84.857, 105.141 86.453, 108.500 86.415 C 114.402 86.350, 124.075 84.614, 125.044 83.447 C 126.081 82.197, 124.524 82, 113.622 82 C 102.977 82, 101 82.239, 101 83.525 M 67.693 97.725 C 66.659 97.979, 66.022 98.881, 66.204 99.834 C 66.510 101.436, 70.660 102.133, 85.500 103.075 C 91.923 103.483, 97.075 98.989, 91.724 97.646 C 89.126 96.994, 70.423 97.056, 67.693 97.725 M 103.250 98.031 C 99.952 99.357, 100.502 101.418, 104.544 102.880 C 108.098 104.165, 112.035 103.901, 120.750 101.791 C 125.355 100.677, 126.355 98.596, 122.750 97.630 C 119.362 96.722, 105.813 97.001, 103.250 98.031" stroke="none" fill="black" fill-rule="evenodd"/>
</svg>