<svg xmlns="http://www.w3.org/2000/svg" width="256" height="256" viewBox="0 0 256 256" version="1.1">
	<path d="M 56.500 28.943 C 55.400 29.392, 52.678 31.951, 50.452 34.630 C 46.325 39.595, 40.455 49, 41.484 49 C 42.797 49, 38.746 55.019, 32.571 62.243 C 28.931 66.502, 25.685 71.323, 25.359 72.956 C 24.476 77.371, 25.624 80.508, 28.623 81.874 C 31.142 83.022, 31.558 82.810, 35.897 78.176 C 42.896 70.702, 47.497 69.153, 51.962 72.768 C 54.506 74.828, 55.687 82.216, 53.721 83.766 C 53.049 84.295, 49.260 84.986, 45.301 85.302 C 36.490 86.003, 34.365 87.056, 33.785 91.010 C 33.064 95.926, 34.676 97.085, 42.835 97.515 C 54.560 98.132, 53.792 97.124, 53.711 111.783 C 53.673 118.777, 53.959 126.139, 54.346 128.143 C 54.938 131.205, 54.633 132.282, 52.436 134.893 C 50.999 136.602, 49.057 138, 48.123 138 C 44.891 138, 35.926 141.702, 33.905 143.871 C 32.534 145.343, 31.978 147.093, 32.188 149.274 L 32.500 152.500 38.771 152.325 C 42.220 152.228, 46.945 151.489, 49.271 150.681 C 61.860 146.311, 72.098 145.509, 111 145.845 C 142.923 146.121, 157.908 145.520, 159.531 143.898 C 160.852 142.576, 161.114 135.778, 161.444 94.259 C 161.819 46.985, 161.790 46.120, 159.802 44.326 C 157.942 42.648, 155.463 42.500, 129.139 42.500 C 113.388 42.500, 99.600 42.911, 98.500 43.413 C 95.337 44.858, 94.196 47.084, 93.481 53.205 L 92.814 58.910 89.548 54.631 C 83.919 47.256, 82.670 45.974, 76 40.720 C 72.425 37.904, 67.598 33.890, 65.272 31.800 C 60.911 27.880, 59.907 27.553, 56.500 28.943 M 57.327 46.483 C 54.569 48.415, 49.693 56.758, 50.339 58.441 C 50.615 59.161, 52.789 60.023, 55.170 60.359 C 61.298 61.221, 75.836 61.497, 76.569 60.764 C 78.007 59.327, 75.549 56.028, 69.066 50.695 C 61.630 44.577, 60.584 44.202, 57.327 46.483 M 108.226 55.228 C 107.595 55.988, 106.779 60.209, 106.412 64.608 C 105.719 72.922, 106.758 76.895, 110.423 79.936 C 112.486 81.648, 118.591 80.493, 119.484 78.223 C 120.589 75.413, 121.302 63.425, 120.590 59.630 C 119.911 56.011, 119.304 55.602, 112.936 54.477 C 110.483 54.043, 109.014 54.278, 108.226 55.228 M 134.461 55.063 C 133.509 56.604, 132.610 75.311, 133.347 78.248 C 133.902 80.458, 134.667 80.817, 140.136 81.436 C 144.597 81.941, 146.511 81.791, 147.065 80.894 C 148.139 79.157, 149.369 59.607, 148.598 56.535 C 148 54.151, 147.579 54, 141.540 54 C 138.008 54, 134.822 54.478, 134.461 55.063 M 90.089 62.392 C 89.454 63.158, 87.599 64.338, 85.967 65.014 C 84.335 65.690, 83 66.785, 83 67.447 C 83 68.109, 81.958 69.630, 80.686 70.826 C 78.932 72.473, 77.131 73, 73.257 73 C 66.701 73, 64.788 74.750, 65.199 80.373 L 65.500 84.500 74.782 84.500 C 85.905 84.500, 86.342 84.877, 85.519 93.779 C 85.200 97.232, 85.428 101.876, 86.026 104.098 C 87.194 108.434, 86.245 112.714, 81.672 123.733 C 79.589 128.750, 79.342 128.967, 75.663 128.983 C 72.312 128.998, 71.683 128.621, 70.694 126 C 69.286 122.271, 67.509 122.115, 67.213 125.694 C 67.091 127.176, 66.503 128.689, 65.908 129.057 C 65.312 129.425, 64.977 130.800, 65.163 132.113 C 65.478 134.343, 65.855 134.478, 70.915 134.163 C 73.893 133.977, 77.354 133.436, 78.605 132.960 C 80.296 132.317, 82.066 132.725, 85.493 134.547 C 96.116 140.196, 96.551 138.884, 95.108 105.500 C 94.490 91.200, 94.200 78.420, 94.463 77.101 C 95.020 74.313, 92.916 61, 91.919 61 C 91.548 61, 90.725 61.627, 90.089 62.392 M 106.333 95.575 C 106 96.441, 106.260 98.923, 106.909 101.090 C 107.558 103.257, 108.364 111.101, 108.699 118.521 C 109.370 133.362, 109.974 134.842, 114.716 133.262 C 117.378 132.375, 117.506 132.036, 117.638 125.505 C 117.713 121.749, 118.352 113.825, 119.057 107.895 C 120.622 94.739, 120.265 94, 112.346 94 C 108.346 94, 106.780 94.410, 106.333 95.575 M 139 94.680 C 130.974 95.505, 131.296 95.110, 131.220 104.233 C 131.183 108.780, 130.893 116.662, 130.577 121.750 C 130.261 126.838, 130.340 131.037, 130.751 131.082 C 131.163 131.127, 134.988 131.321, 139.250 131.513 L 147 131.862 147.043 128.681 C 147.194 117.641, 148.138 97.529, 148.523 97.144 C 148.776 96.891, 148.481 96.080, 147.869 95.342 C 146.773 94.022, 145.978 93.962, 139 94.680 M 67.750 98.054 C 66.262 98.943, 66 100.662, 66 109.550 C 66 118.061, 66.272 120, 67.465 120 C 69.419 120, 70.654 117.491, 71.510 111.785 C 71.992 108.568, 73.155 106.088, 75.171 103.979 C 79.161 99.803, 78.603 97.569, 73.491 97.255 C 71.296 97.120, 68.713 97.480, 67.750 98.054 M 39.686 109.073 C 35.074 110.365, 34 111.863, 34 117 C 34 122.610, 35.775 127.208, 39.760 131.924 C 45.032 138.162, 48.555 133.531, 48.072 121 C 47.665 110.440, 45.548 107.430, 39.686 109.073" stroke="none" fill="black" fill-rule="evenodd"/>
</svg>