<svg xmlns="http://www.w3.org/2000/svg" width="256" height="256" viewBox="0 0 256 256" version="1.1">
	<path d="M 122.400 25.765 C 120.174 27.251, 118.824 31.248, 119.439 34.527 C 119.836 36.643, 119.626 38.113, 118.860 38.587 C 118.199 38.995, 112.739 39.619, 106.727 39.974 C 96.700 40.565, 95.642 40.820, 93.921 43.059 C 90.806 47.112, 91.416 49.744, 95.750 50.947 C 97.813 51.520, 100.873 51.991, 102.550 51.994 C 106.133 52.001, 108 53.560, 108 56.545 C 108 59.756, 105.184 61.727, 96.010 64.938 C 91.449 66.534, 87.362 68.415, 86.928 69.116 C 85.804 70.935, 87.611 73.792, 91.314 76.050 C 95.205 78.422, 97.826 78.511, 100.880 76.372 C 102.849 74.992, 106.974 74.705, 127.852 74.493 C 158.741 74.180, 163.014 73.416, 162.985 68.215 C 162.958 63.447, 161.744 62.699, 152.988 62.056 C 146.787 61.600, 144.491 61.025, 143.508 59.681 C 140.637 55.754, 143.718 52.947, 152.500 51.486 C 157.382 50.674, 159 49.442, 159 46.533 C 159 42.026, 155.740 40.593, 144.681 40.240 C 129.457 39.753, 129.616 39.819, 130.377 34.269 C 130.912 30.365, 130.670 29.278, 128.831 27.320 C 126.622 24.968, 124.398 24.431, 122.400 25.765 M 56.500 28.778 C 54.274 29.255, 51 31.854, 51 33.145 C 51 33.604, 48.906 37.247, 46.346 41.240 C 43.787 45.233, 41.847 48.500, 42.036 48.500 C 42.817 48.500, 35.654 60.694, 33.519 63 C 26.342 70.749, 24.102 77.972, 27.829 81.345 C 30.547 83.805, 31.723 83.435, 36.568 78.590 C 44.181 70.976, 52.206 71.462, 55.667 79.746 C 56.836 82.543, 56.919 83.882, 56.043 85.804 C 54.995 88.106, 54.551 88.234, 49.434 87.705 C 40.281 86.761, 31.625 90.975, 33.372 95.526 C 34.750 99.118, 42.868 101.096, 50.064 99.592 C 52.571 99.068, 53.950 99.241, 54.714 100.174 C 55.364 100.968, 55.939 108.220, 56.149 118.260 C 56.497 134.899, 56.482 135.043, 54 138.062 C 52.029 140.458, 49.912 141.492, 44 142.944 C 34.139 145.366, 33.465 145.685, 32.162 148.543 C 30.154 152.951, 32.397 155.959, 37.710 155.985 C 41.650 156.003, 60.473 151.324, 64.191 149.401 C 65.682 148.630, 69.557 148, 72.804 148 C 77.756 148, 79.154 147.586, 81.477 145.434 C 83.992 143.103, 84.184 142.440, 83.579 138.184 C 82.625 131.476, 82.891 126.426, 84.593 118.912 C 85.924 113.043, 85.920 111.835, 84.563 107.837 C 83.671 105.209, 83.123 100.543, 83.240 96.573 C 83.492 88.097, 82.038 86.547, 74.624 87.385 C 68.294 88.100, 65.996 86.853, 66.015 82.715 C 66.037 78.263, 66.970 77.171, 71.998 75.715 C 75.273 74.767, 77.198 73.331, 79.691 69.975 C 87.772 59.098, 88.094 58.108, 85.404 52.439 C 83.502 48.431, 73.187 39.143, 67.323 36.159 C 65.025 34.990, 62.857 33.126, 62.505 32.016 C 61.727 29.564, 59.198 28.200, 56.500 28.778 M 58 47.734 C 55.857 48.279, 48.803 58.737, 49.197 60.784 C 49.489 62.295, 51.004 62.500, 61.859 62.500 C 68.642 62.500, 74.415 62.137, 74.689 61.693 C 76.050 59.493, 73.562 56.141, 67.791 52.398 C 59.993 47.341, 59.836 47.266, 58 47.734 M 120.367 53.117 C 118.389 53.672, 117.012 54.826, 116.631 56.248 C 115.774 59.446, 115.817 59.674, 117.621 61.479 C 118.942 62.799, 120.474 62.977, 125.871 62.436 C 133.986 61.623, 136 60.641, 136 57.500 C 136 56.164, 135.213 54.667, 134.250 54.174 C 131.458 52.743, 123.779 52.159, 120.367 53.117 M 108.286 79.332 L 98.071 80.267 98.286 96.383 C 98.404 105.248, 98.102 114.198, 97.615 116.273 C 96.911 119.277, 97.073 120.423, 98.409 121.900 C 100.215 123.895, 107.810 125.381, 114.574 125.062 C 119.048 124.852, 121.662 126.832, 120.592 129.620 C 120.084 130.943, 119.090 131.147, 115.523 130.658 C 110.397 129.956, 101.369 131.526, 98.508 133.617 C 94.222 136.752, 100.514 140.399, 112.774 141.887 C 119.494 142.702, 121.625 143.930, 120.664 146.433 C 120.165 147.733, 118.052 148.001, 108.281 148.006 C 95.005 148.012, 90.095 149.003, 88.190 152.063 C 87.087 153.832, 87.129 154.548, 88.452 156.567 C 89.317 157.888, 91.215 159.267, 92.669 159.632 C 94.124 159.997, 108.725 160.017, 125.118 159.678 C 158.080 158.994, 162 158.347, 162 153.590 C 162 152.208, 160.988 150.130, 159.750 148.972 C 157.638 146.994, 156.797 146.905, 146 147.518 C 136.750 148.044, 134.124 147.888, 132.577 146.722 C 130.703 145.311, 130.716 145.233, 133.077 143.739 C 134.409 142.896, 139.100 141.887, 143.500 141.499 C 153.303 140.632, 155 139.819, 155 135.988 C 155 131.121, 151.814 129.828, 140.638 130.161 C 135.399 130.318, 130.832 130.165, 130.490 129.823 C 130.148 129.481, 130.857 128.280, 132.066 127.153 C 133.941 125.406, 135.309 125.155, 141.382 125.440 C 149.753 125.834, 154.662 124.225, 155.495 120.816 C 155.923 119.063, 155.623 92.238, 155.075 83.276 C 155.034 82.602, 153.537 81.279, 151.750 80.335 C 149.130 78.952, 145.590 78.597, 133.500 78.508 C 125.250 78.447, 113.904 78.818, 108.286 79.332 M 136.196 89.713 C 132.941 90.335, 131.489 94.571, 133.486 97.619 C 135.410 100.555, 139.704 101.781, 141.400 99.880 C 142.077 99.121, 143.157 97.256, 143.801 95.735 C 144.805 93.362, 144.689 92.689, 142.985 90.985 C 140.995 88.995, 140.468 88.896, 136.196 89.713 M 110.893 91.885 C 108.807 93.575, 108.717 93.955, 110.032 95.539 C 111.899 97.788, 116.975 99.947, 118.774 99.256 C 120.897 98.442, 122.170 94.186, 120.965 91.935 C 119.602 89.388, 114.011 89.361, 110.893 91.885 M 67.528 100.597 C 66.209 102.611, 65.961 104.466, 66.423 108.847 C 66.752 111.956, 67.108 116.188, 67.215 118.250 C 67.321 120.313, 67.767 122, 68.204 122 C 68.642 122, 69 123.575, 69 125.500 C 69 127.425, 68.539 129, 67.975 129 C 66.232 129, 64.801 134.055, 66.101 135.622 C 67.935 137.832, 73.644 137.347, 75.406 134.830 C 76.812 132.823, 76.742 132.490, 74.463 130.378 C 72.868 128.900, 72 127.005, 72 125.002 C 72 121.713, 76.615 106.307, 78.197 104.314 C 79.355 102.856, 77.731 99.495, 75.446 98.618 C 72.068 97.321, 69.206 98.037, 67.528 100.597 M 112.556 110.335 C 110.811 111.611, 110.833 111.767, 113.054 113.835 C 115.534 116.146, 117.627 116.522, 119.921 115.070 C 121.131 114.304, 121.090 113.786, 119.648 111.585 C 117.777 108.729, 115.340 108.300, 112.556 110.335 M 135.180 110.124 C 133.523 110.741, 132.951 111.633, 133.180 113.244 C 133.445 115.113, 134.076 115.473, 136.859 115.341 C 141.065 115.141, 142.847 113.567, 141.424 111.310 C 140.176 109.332, 138.276 108.971, 135.180 110.124 M 36.888 111.018 C 36.001 111.528, 34.752 113.870, 34.112 116.223 C 33.055 120.111, 33.209 121.134, 35.806 127.460 C 38.109 133.071, 39.262 134.664, 41.756 135.682 C 44.814 136.930, 44.871 136.897, 46.853 132.722 C 48.543 129.163, 48.743 127.436, 48.124 121.723 C 47.611 116.983, 46.788 114.344, 45.386 112.941 C 43.029 110.585, 39.163 109.710, 36.888 111.018 M 144.750 176.662 C 145.438 176.940, 146.563 176.940, 147.250 176.662 C 147.938 176.385, 147.375 176.158, 146 176.158 C 144.625 176.158, 144.063 176.385, 144.750 176.662" stroke="none" fill="black" fill-rule="evenodd"/>
</svg>