<svg xmlns="http://www.w3.org/2000/svg" width="256" height="256" viewBox="0 0 256 256" version="1.1">
	<path d="M 42.682 25.075 C 36.552 26.090, 35.586 27.781, 34.850 38.784 C 34.493 44.128, 34.154 64.475, 34.097 84 C 33.996 118.773, 35.172 143.905, 37.142 149.116 C 38.286 152.141, 42.146 154.542, 44.448 153.659 C 47.675 152.420, 48.010 148.262, 47.356 117.578 C 47.001 100.920, 47.022 86.049, 47.403 84.530 C 48.030 82.031, 48.400 81.833, 51.298 82.445 C 61.459 84.591, 85.049 83.650, 90.200 80.893 C 92.047 79.904, 92.171 79.276, 91.428 74.647 C 90.605 69.524, 90.407 57.910, 90.876 42.319 C 91.137 33.654, 90.086 30.198, 86.090 26.581 C 84.176 24.849, 82.198 24.657, 65.238 24.555 C 54.932 24.494, 44.782 24.727, 42.682 25.075 M 104.101 29.122 C 102.519 30.820, 102.361 32.540, 102.753 43.773 C 102.998 50.773, 103.526 58.075, 103.927 60 C 104.328 61.925, 104.208 67.008, 103.659 71.295 C 102.809 77.944, 102.893 79.321, 104.230 80.658 C 106.051 82.480, 129.398 85.148, 140 84.746 L 146.500 84.500 146.768 110 C 147.004 132.519, 146.847 135.638, 145.421 136.681 C 143.611 138.005, 141.333 137.458, 138.798 135.090 C 132.827 129.512, 130 128.663, 130 132.447 C 130 133.786, 130.457 135.165, 131.016 135.510 C 131.575 135.856, 131.784 136.540, 131.480 137.032 C 130.651 138.374, 135.189 145.034, 139.728 149.135 C 147.546 156.199, 154.975 156.644, 157.714 150.214 C 159.098 146.965, 159.282 139.511, 159.185 90.631 C 159.065 30.134, 159.153 31.120, 153.698 29.095 C 152.489 28.646, 141.238 28.035, 128.696 27.738 C 107.101 27.227, 105.798 27.300, 104.101 29.122 M 48.250 38.118 C 46.581 39.830, 46.669 43.083, 48.454 45.630 C 49.751 47.483, 50.690 47.661, 57.204 47.289 C 61.633 47.037, 66.532 47.422, 69.672 48.270 C 72.869 49.133, 75.447 49.329, 76.422 48.784 C 78.380 47.688, 78.566 40.715, 76.679 39.149 C 74.612 37.433, 49.796 36.533, 48.250 38.118 M 117.250 41.142 C 115.722 42.680, 115.675 44.192, 117.060 47.233 C 118.065 49.437, 118.685 49.571, 128.810 49.765 C 134.690 49.878, 140.850 50.089, 142.500 50.235 C 145.278 50.480, 145.522 50.235, 145.801 46.914 C 145.975 44.836, 145.555 42.892, 144.801 42.290 C 142.706 40.617, 118.763 39.619, 117.250 41.142 M 46.958 61.079 C 45.577 63.658, 45.836 68.199, 47.487 70.380 C 48.756 72.056, 49.399 72.137, 53.398 71.130 C 55.866 70.508, 61.766 70, 66.509 70 C 76.135 70, 79 69.004, 79 65.656 C 79 60.580, 77.564 60.068, 62.208 59.665 C 49.273 59.325, 47.825 59.459, 46.958 61.079 M 137.500 61.105 C 134.200 61.568, 128.800 61.718, 125.500 61.437 C 119.074 60.891, 117.939 61.284, 116.153 64.678 C 114.261 68.273, 115.668 69.826, 121.333 70.400 C 133.547 71.637, 145.956 71.880, 146.566 70.893 C 148.337 68.028, 146.438 59.648, 144.128 60.131 C 143.782 60.203, 140.800 60.641, 137.500 61.105" stroke="none" fill="black" fill-rule="evenodd"/>
</svg>