<svg xmlns="http://www.w3.org/2000/svg" width="256" height="256" viewBox="0 0 256 256" version="1.1">
	<path d="M 36.314 26.150 C 32.277 27.257, 31.562 29.313, 31.498 40 C 31.470 44.675, 31.080 65.600, 30.632 86.500 C 29.729 128.582, 30.607 150.225, 33.389 154.471 C 35.631 157.893, 40.339 157.938, 42.554 154.559 C 43.865 152.556, 44.129 149.274, 44.021 136.309 C 43.948 127.614, 43.725 118.700, 43.525 116.500 C 43.326 114.300, 43.129 104.934, 43.088 95.687 C 43.027 81.997, 43.317 78.282, 44.646 75.687 C 46.687 71.703, 48.211 70.657, 49.500 72.355 C 52.536 76.357, 63.171 77.568, 78.138 75.619 C 86.793 74.491, 87.106 74.044, 87.546 62.167 C 87.755 56.536, 88.209 51.470, 88.555 50.910 C 89.563 49.281, 89.129 34.921, 87.967 31.399 C 86.070 25.652, 82.956 24.958, 59.826 25.127 C 48.647 25.209, 38.066 25.669, 36.314 26.150 M 120.782 26 C 108.781 26.408, 105.754 26.810, 104.386 28.182 C 102.972 29.599, 102.692 32.271, 102.604 45.182 C 102.483 62.948, 103.466 71.806, 105.825 74.201 C 108.648 77.067, 122.078 79.211, 134.972 78.854 L 146.500 78.534 147 108.017 C 147.275 124.233, 147.353 138.538, 147.173 139.807 C 146.625 143.673, 143.065 144.511, 135.383 142.581 C 131.683 141.652, 127.426 140.016, 125.924 138.946 C 124.286 137.780, 121.550 137, 119.096 137 C 115.683 137, 115 137.329, 115 138.977 C 115 140.064, 116.237 141.746, 117.750 142.713 C 119.263 143.681, 120.988 145.102, 121.586 145.872 C 122.317 146.815, 124.549 147.227, 128.435 147.138 C 134.426 147, 140 149.561, 140 152.452 C 140 154.445, 147.720 161, 150.069 161 C 153.280 161, 155.826 159.232, 157.673 155.720 C 159.199 152.818, 159.393 146.676, 159.637 93.500 C 159.810 55.696, 159.544 33.353, 158.895 31.308 C 157.226 26.042, 149.836 25.013, 120.782 26 M 46.007 37.793 C 43.737 39.631, 43.655 39.987, 44.943 42.393 L 46.338 45 60.014 45 C 71.993 45, 73.895 44.773, 75.345 43.171 C 77.493 40.798, 77.453 38.399, 75.250 37.499 C 74.287 37.106, 67.868 36.563, 60.984 36.293 C 49.554 35.843, 48.254 35.974, 46.007 37.793 M 116.200 38.200 C 114.594 39.806, 114.673 44.484, 116.330 45.859 C 117.121 46.515, 121.908 46.944, 128.158 46.919 C 133.932 46.895, 139.779 47.158, 141.152 47.502 C 144.421 48.322, 146.231 46.116, 145.818 41.815 C 145.514 38.650, 145.273 38.470, 140.500 37.838 C 131.791 36.684, 117.503 36.897, 116.200 38.200 M 45.604 55.155 C 43.804 57.725, 43.562 60.759, 44.978 62.999 C 45.763 64.241, 48.285 64.438, 59.713 64.150 C 67.296 63.958, 74.063 63.341, 74.750 62.779 C 75.438 62.216, 76 60.671, 76 59.345 C 76 56.126, 73.158 55.191, 65.036 55.738 C 59.085 56.139, 53.171 55.339, 48.854 53.548 C 47.755 53.093, 46.675 53.626, 45.604 55.155 M 136.903 57.430 C 136.667 57.667, 132.663 57.961, 128.005 58.084 C 117.269 58.368, 116.114 58.698, 115.362 61.693 C 114.346 65.740, 116.234 66.500, 127.308 66.500 C 132.913 66.500, 139.578 66.880, 142.118 67.344 C 146.506 68.145, 146.767 68.064, 147.357 65.712 C 147.699 64.351, 147.489 61.834, 146.891 60.119 C 145.905 57.289, 145.412 57, 141.569 57 C 139.239 57, 137.140 57.194, 136.903 57.430 M 89.995 79.068 C 86.942 81.452, 78.214 82.981, 67.500 83.009 C 58.655 83.032, 54.660 84.442, 54.189 87.707 C 53.797 90.434, 56.617 96, 58.391 96 C 59.409 96, 59.556 96.958, 59.002 99.987 C 58.513 102.661, 58.715 104.824, 59.614 106.557 C 60.525 108.312, 60.762 110.979, 60.356 114.872 C 59.869 119.526, 60.152 121.378, 61.862 124.729 C 64.007 128.933, 64.691 129.352, 71.215 130.451 C 78.302 131.646, 76.978 135.347, 69.088 136.394 C 66.406 136.750, 63.711 137.643, 63.101 138.378 C 62.491 139.114, 59.968 140.994, 57.496 142.557 C 54.362 144.538, 53 146.074, 53 147.628 C 53 150.566, 55.883 153.517, 57.336 152.064 C 57.921 151.479, 59.773 150.996, 61.450 150.990 C 64.645 150.980, 70.523 148.336, 80.357 142.485 C 83.578 140.568, 86.751 139, 87.407 139 C 88.064 139, 89.591 141.036, 90.800 143.524 C 92.899 147.846, 96.955 150.764, 99.057 149.465 C 100.183 148.769, 102.167 141.857, 102.921 136 L 103.500 131.500 112.500 131.500 C 120.640 131.500, 121.963 131.224, 126.351 128.608 C 131.594 125.482, 134.990 120.946, 134.996 117.060 C 134.998 115.718, 135.536 112.024, 136.192 108.851 C 137.241 103.769, 137.182 102.858, 135.692 101.212 C 133.462 98.748, 133.555 96.712, 136 94.500 C 138.489 92.247, 138.540 89.889, 136.164 86.954 C 134.484 84.879, 133.185 84.623, 120.914 83.952 C 107.101 83.197, 103.582 82.389, 99.247 78.980 C 96.110 76.512, 93.231 76.540, 89.995 79.068 M 77.500 93.516 C 76.950 93.712, 73.827 94.401, 70.560 95.047 L 64.620 96.221 68.060 97.671 C 70.867 98.855, 72.956 98.926, 79.418 98.060 C 83.773 97.476, 87.541 96.793, 87.791 96.542 C 88.042 96.291, 87.981 95.392, 87.655 94.543 C 87.241 93.466, 85.771 93.024, 82.781 93.079 C 80.427 93.122, 78.050 93.319, 77.500 93.516 M 102.667 94.667 C 102.300 95.033, 102 96.090, 102 97.014 C 102 98.454, 103.661 98.790, 113.573 99.356 C 125.326 100.027, 129.385 99.387, 126.813 97.267 C 124.011 94.957, 104.480 92.854, 102.667 94.667 M 78.131 108.051 C 74.444 109.703, 73.956 110.242, 75.004 111.504 C 76.022 112.732, 75.941 113, 74.549 113 C 72.259 113, 72.956 116.368, 75.341 116.827 C 78.199 117.378, 81.255 116.265, 84.406 113.526 C 86.004 112.137, 87.691 111, 88.156 111 C 89.520 111, 89.122 107.007, 87.750 106.926 C 87.063 106.885, 85.600 106.681, 84.500 106.472 C 83.400 106.263, 80.534 106.974, 78.131 108.051 M 100.951 108.091 C 100.115 109.654, 100.141 110.925, 101.053 113.129 C 102.185 115.861, 105.996 119.061, 106.003 117.285 C 106.005 116.853, 107.531 116.468, 109.395 116.429 C 112.944 116.356, 115.310 114.650, 115.775 111.831 C 115.974 110.626, 114.504 109.584, 110.488 108.081 C 103.539 105.482, 102.347 105.483, 100.951 108.091" stroke="none" fill="black" fill-rule="evenodd"/>
</svg>