<svg xmlns="http://www.w3.org/2000/svg" width="256" height="256" viewBox="0 0 256 256" version="1.1">
	<path d="M 40.129 25.014 C 34.176 26.396, 32.509 29.054, 32.436 37.278 C 32.400 41.250, 32.024 61.825, 31.599 83 C 30.660 129.844, 31.733 154.023, 34.902 157.396 C 37.777 160.456, 40.698 160.392, 42.767 157.224 C 44.261 154.936, 44.469 152.285, 44.273 138.035 C 43.682 95.001, 43.967 79.014, 45.388 75.614 C 47.047 71.643, 48.788 70.285, 49.579 72.345 C 51.302 76.835, 71.464 78.100, 80.138 74.263 C 84.856 72.176, 86.752 68.945, 85.526 65.081 C 85.220 64.118, 85.652 59.769, 86.485 55.416 C 89.451 39.917, 87.769 29.035, 81.996 26.372 C 78.997 24.988, 44.990 23.885, 40.129 25.014 M 107.561 27 C 102.466 27.894, 101.144 31.174, 100.908 43.500 C 100.440 67.949, 101.705 74.335, 107.219 75.378 C 119.527 77.706, 124.545 78.167, 134.248 77.858 L 145.500 77.500 145.340 88 C 144.918 115.740, 143.712 137.994, 142.580 138.934 C 141.929 139.474, 132.999 140.229, 122.735 140.611 C 102.003 141.383, 101 141.146, 101 135.485 C 101 131.340, 101.920 131.004, 113.332 130.985 C 118.374 130.976, 123.034 130.630, 123.687 130.214 C 125.318 129.178, 127.061 124.323, 126.411 122.630 C 125.739 120.878, 120.645 120.025, 110.770 120.011 C 106.017 120.004, 101.489 119.379, 99.011 118.388 C 96.414 117.349, 93.830 117.015, 91.741 117.450 C 89.958 117.821, 84.853 118.659, 80.397 119.313 C 71.961 120.549, 69 122.026, 69 125 C 69 127.701, 70.945 128.756, 78.484 130.145 C 85.973 131.525, 89 133.607, 89 137.378 C 89 141.571, 86.646 142.434, 74.932 142.536 C 66.299 142.611, 63.381 143.019, 60.551 144.543 C 54.404 147.853, 56.139 150.434, 66.263 153.041 C 70.855 154.223, 74.847 154.087, 90.500 152.217 C 93.800 151.823, 101.757 151.899, 108.181 152.388 C 117.996 153.133, 120.663 153.013, 124.869 151.638 C 131.765 149.382, 133.464 149.546, 139.613 153.065 C 146.066 156.757, 150.392 156.725, 153.186 152.964 C 154.813 150.775, 155.279 146.814, 156.599 123.964 C 157.440 109.409, 158.211 82.554, 158.314 64.287 L 158.500 31.073 156.219 28.787 C 153.981 26.544, 153.515 26.500, 132.174 26.500 C 120.205 26.500, 109.129 26.725, 107.561 27 M 46.046 37.915 C 44.751 40.333, 45.505 43.972, 47.317 44.053 C 74.156 45.244, 75 45.151, 75 41 C 75 37.545, 72.246 36.692, 59.556 36.217 C 47.684 35.772, 47.157 35.839, 46.046 37.915 M 115.579 38.216 C 113.703 39.266, 113.430 44.968, 115.250 45.071 C 119.285 45.299, 144.243 45.084, 144.474 44.819 C 145.650 43.469, 145.831 40.110, 144.773 39.262 C 143.144 37.956, 117.674 37.043, 115.579 38.216 M 46.461 55.359 C 43.009 60.287, 45.750 65.297, 51.222 64.063 C 53.025 63.656, 54.837 63.251, 55.250 63.162 C 55.663 63.073, 59.816 63, 64.481 63 C 72.758 63, 72.977 62.938, 73.608 60.427 C 74.566 56.611, 72.855 55.674, 65.297 55.875 C 61.559 55.974, 56.120 55.429, 53.211 54.664 C 48.168 53.338, 47.854 53.370, 46.461 55.359 M 140.886 55.447 C 140.594 55.739, 134.912 56.019, 128.260 56.069 C 118.007 56.146, 115.920 56.431, 114.554 57.940 C 113.269 59.361, 113.157 60.283, 114.002 62.506 L 115.061 65.292 122.829 64.693 C 127.101 64.363, 133.698 64.533, 137.490 65.070 C 143.197 65.878, 144.639 65.789, 145.875 64.553 C 148.039 62.390, 146.286 55.613, 143.459 55.208 C 142.336 55.047, 141.179 55.155, 140.886 55.447 M 88.500 79.936 C 85.518 81.246, 76.052 83.767, 71.500 84.463 C 66.947 85.160, 59 88.843, 59 90.256 C 59 91.887, 62.190 98, 63.042 98 C 63.489 98, 68.010 96.888, 73.088 95.529 C 81.775 93.205, 82.518 93.152, 85.657 94.641 L 88.993 96.224 85.453 99.037 C 82.757 101.180, 80.369 102.016, 75.429 102.544 C 71.863 102.926, 67.561 102.962, 65.869 102.624 C 63.826 102.215, 61.822 102.583, 59.897 103.720 C 57.078 105.385, 56.091 107, 57.892 107 C 58.382 107, 59.050 108.063, 59.376 109.362 C 60.095 112.228, 64.206 112.982, 79.390 113.035 C 85.915 113.058, 90.359 113.547, 91.922 114.413 C 93.954 115.539, 94.875 115.532, 97.652 114.372 C 100.197 113.309, 103.954 113.142, 113.955 113.648 L 126.950 114.306 130.514 110.415 C 132.636 108.098, 133.960 105.711, 133.788 104.513 C 133.515 102.602, 132.759 102.499, 118.829 102.476 C 105.829 102.455, 103.918 102.236, 102.054 100.549 C 98.362 97.208, 100.004 96.476, 110.357 96.850 C 120.674 97.222, 123.710 96.279, 126.005 91.990 C 126.893 90.331, 126.634 89.565, 124.520 87.606 C 122.399 85.641, 120.460 85.114, 113.230 84.541 C 108.044 84.130, 102.867 83.076, 100.476 81.945 C 95.387 79.536, 91.063 78.811, 88.500 79.936" stroke="none" fill="black" fill-rule="evenodd"/>
</svg>