<svg xmlns="http://www.w3.org/2000/svg" width="256" height="256" viewBox="0 0 256 256" version="1.1">
	<path d="M 39.357 24.107 C 37.628 24.599, 35.953 25.680, 35.635 26.508 C 35.317 27.337, 34.802 35.774, 34.490 45.257 C 34.179 54.741, 33.488 64.750, 32.956 67.500 C 31.145 76.856, 30.029 119.829, 31.159 136.682 C 32.305 153.781, 33.310 157, 37.500 157 C 42.844 157, 42.977 155.897, 44.538 98.657 C 44.907 85.124, 45.334 81.243, 46.714 78.907 C 48.398 76.056, 50 75.091, 50 76.928 C 50 78.744, 60.616 80.198, 71.338 79.851 C 81.721 79.515, 82.276 79.384, 84.538 76.753 C 86.580 74.378, 86.755 73.596, 85.838 70.966 C 85.219 69.190, 85.035 64.927, 85.395 60.713 C 87.016 41.754, 87.096 35.416, 85.769 31 C 83.694 24.092, 81.849 23.534, 60.500 23.360 C 50.600 23.279, 41.085 23.615, 39.357 24.107 M 103.021 28.825 L 100.196 31.650 100.711 44.575 C 100.994 51.684, 101.533 59.075, 101.909 61 C 102.316 63.087, 102.065 66.031, 101.287 68.290 C 99.697 72.909, 100.455 76.426, 103.569 78.875 C 105.638 80.503, 108.106 80.738, 124.643 80.880 C 134.945 80.968, 143.568 81.235, 143.806 81.472 C 144.873 82.540, 143.129 132.443, 141.911 135.699 C 141.243 137.483, 140.365 137.869, 137.245 137.744 C 131.196 137.503, 127.500 139.469, 127.500 142.927 C 127.500 145.482, 128.416 146.354, 135.367 150.409 C 144.260 155.599, 147.967 156.124, 151.411 152.680 C 153.264 150.827, 153.855 148.862, 154.347 142.930 C 156 122.963, 156.901 101.752, 157.575 66.917 C 158.199 34.709, 157.689 28.974, 154.032 27.017 C 152.901 26.412, 142.763 26, 128.989 26 L 105.846 26 103.021 28.825 M 48.750 36.023 C 46.639 37.321, 46.459 41.316, 48.422 43.279 C 49.859 44.717, 68.827 46.387, 71.605 45.321 C 74.703 44.133, 74.395 37.531, 71.199 36.615 C 67.104 35.442, 50.412 35.002, 48.750 36.023 M 117.088 38.257 C 114.527 38.921, 114 39.555, 114 41.970 C 114 43.571, 114.501 45.192, 115.113 45.570 C 115.726 45.949, 120.113 46.180, 124.863 46.084 C 130.548 45.970, 135.014 46.445, 137.929 47.474 C 141.462 48.721, 142.522 48.781, 143.164 47.769 C 144.426 45.780, 144.136 39.985, 142.750 39.500 C 139.856 38.487, 119.926 37.522, 117.088 38.257 M 46.995 58.010 C 45.728 60.376, 46.299 65.450, 48.072 67.587 C 48.932 68.623, 49.846 68.613, 52.898 67.536 C 55.064 66.772, 58.619 66.428, 61.269 66.727 C 68.588 67.552, 72.680 66.411, 73.454 63.329 C 74.409 59.522, 72.848 58.602, 64.213 57.888 C 59.971 57.537, 54.630 56.918, 52.345 56.512 C 48.672 55.860, 48.052 56.034, 46.995 58.010 M 127.105 58.949 C 117.725 59.403, 115.516 59.809, 114.610 61.250 C 113.019 63.782, 114.943 66.295, 119.140 67.167 C 121.040 67.562, 127.524 67.798, 133.548 67.692 L 144.500 67.500 144.818 64.185 C 145.196 60.249, 143.568 57.924, 140.628 58.199 C 139.457 58.309, 133.372 58.647, 127.105 58.949 M 80 84.896 C 71.179 85.841, 66.240 88.518, 65.402 92.806 C 64.906 95.347, 65.226 96.619, 66.786 98.306 C 68.245 99.883, 68.910 102.188, 69.149 106.500 C 69.332 109.800, 69.891 112.794, 70.392 113.152 C 71.467 113.923, 69.003 129, 67.801 129 C 67.360 129, 67 129.606, 67 130.346 C 67 131.087, 66.293 133.109, 65.430 134.841 C 63.151 139.407, 63.859 142.426, 67.300 142.821 C 69.440 143.067, 70.736 142.390, 72.800 139.949 C 74.285 138.193, 76.799 135.448, 78.386 133.850 L 81.272 130.944 94.386 131.222 L 107.500 131.500 107.798 134.056 C 108.011 135.884, 107.440 136.962, 105.795 137.842 C 103.105 139.282, 100 144.286, 100 147.182 C 100 148.973, 100.481 149.142, 104.250 148.680 C 106.588 148.393, 111.200 147.607, 114.500 146.933 C 119.140 145.986, 120.047 145.531, 118.500 144.925 C 116.877 144.289, 116.821 144.127, 118.200 144.070 C 120.849 143.961, 121.794 141.269, 120.667 137.046 C 119.880 134.097, 120.135 130.728, 121.829 121.733 C 123.023 115.390, 124 107.767, 124 104.792 C 124 101.583, 124.597 98.592, 125.468 97.441 C 127.487 94.773, 127.357 91.662, 125.111 88.889 C 123.409 86.787, 122.101 86.486, 111.861 85.840 C 105.613 85.446, 97.350 84.916, 93.500 84.661 C 89.650 84.407, 83.575 84.513, 80 84.896 M 81.446 98.087 C 79.957 100.496, 83.312 101.503, 93.302 101.645 C 98.911 101.725, 105.064 101.950, 106.975 102.145 C 109.741 102.428, 110.526 102.116, 110.823 100.620 C 111.029 99.586, 110.590 98.355, 109.848 97.885 C 107.815 96.597, 82.255 96.778, 81.446 98.087 M 102.037 113.403 C 99.790 114.214, 97.157 114.379, 94.537 113.870 C 87.371 112.480, 83.168 112.818, 82.067 114.874 C 81.296 116.315, 81.511 117.152, 82.993 118.494 C 85.170 120.464, 91.471 120.025, 96.197 117.573 C 98.344 116.459, 99.186 116.439, 100.671 117.466 C 101.677 118.161, 103.512 119.046, 104.749 119.432 C 106.583 120.005, 107.187 119.637, 108.021 117.446 C 108.747 115.535, 108.712 114.358, 107.899 113.378 C 106.565 111.770, 106.557 111.771, 102.037 113.403" stroke="none" fill="black" fill-rule="evenodd"/>
</svg>