<svg xmlns="http://www.w3.org/2000/svg" width="256" height="256" viewBox="0 0 256 256" version="1.1">
	<path d="M 38.345 25.421 C 36.610 26.192, 34.944 27.650, 34.642 28.662 C 33.438 32.690, 31.783 92.153, 32.141 118.500 C 32.495 144.510, 32.667 146.749, 34.567 150 C 37.142 154.407, 41.721 154.945, 43.654 151.067 C 44.857 148.654, 45.732 113.649, 45.133 91.942 C 44.911 83.916, 45.162 82.022, 46.697 80.126 C 48.277 78.175, 48.905 78.013, 51.327 78.934 C 55.061 80.354, 75.811 80.299, 80.101 78.858 C 86.528 76.700, 87.214 75.457, 86.453 67.343 C 86.045 62.984, 86.277 56.743, 87.040 51.619 C 88.064 44.733, 88.060 41.695, 87.016 35.593 C 85.079 24.272, 85.694 24.547, 61.648 24.259 C 46.111 24.074, 40.778 24.340, 38.345 25.421 M 115.660 24.861 C 106.489 25.457, 105.655 25.691, 103.410 28.306 C 101.268 30.799, 100.986 32.135, 100.872 40.306 C 100.802 45.363, 100.626 55.047, 100.482 61.827 L 100.219 74.155 103.113 77.115 C 105.724 79.787, 106.568 80.055, 111.753 79.867 C 114.914 79.752, 123.241 79.770, 130.258 79.909 C 141.317 80.126, 143.142 80.397, 143.969 81.943 C 145.750 85.269, 143.665 133.817, 141.633 136.351 C 140.755 137.445, 138.568 137.651, 131.934 137.266 L 123.368 136.769 122.018 132.194 C 120.893 128.384, 120.887 126.691, 121.986 122.060 C 122.711 119.002, 123.601 112.450, 123.963 107.500 C 124.324 102.550, 124.982 97.704, 125.424 96.732 C 126.429 94.520, 124.401 89.384, 122.158 88.462 C 118.875 87.113, 98.241 85.633, 85.684 85.846 C 69.768 86.116, 65.512 87.561, 63.798 93.280 C 62.807 96.589, 62.940 97.548, 64.866 100.976 C 66.739 104.307, 66.974 105.831, 66.446 111.196 C 66.105 114.663, 66.279 119.469, 66.834 121.875 C 67.536 124.916, 67.514 126.973, 66.762 128.623 C 65.972 130.356, 66.013 132.482, 66.915 136.511 C 68.782 144.854, 70.495 145.457, 89.978 144.623 C 98.515 144.258, 109.259 143.706, 113.853 143.397 C 122.467 142.817, 127.479 143.417, 126.552 144.916 C 125.780 146.165, 127.779 147.552, 136.759 152 C 143.811 155.493, 145.145 155.845, 147.809 154.917 C 152.748 153.195, 153.915 148.559, 155.694 123.578 C 157.723 95.069, 158.577 36.905, 157.040 31.756 C 155.343 26.066, 152.023 24.828, 137.581 24.498 C 130.937 24.346, 121.072 24.510, 115.660 24.861 M 47.200 37.200 C 45.629 38.771, 45.660 43.475, 47.250 44.785 C 47.938 45.352, 53.823 45.970, 60.330 46.158 C 71.209 46.472, 72.277 46.340, 73.618 44.507 C 75.635 41.750, 74.971 38.788, 72 37.290 C 68.676 35.614, 48.858 35.542, 47.200 37.200 M 117.228 37.015 C 114.297 38.223, 113.457 40.513, 114.835 43.537 C 115.888 45.849, 116.328 45.944, 125.716 45.899 C 131.097 45.873, 136.939 46.297, 138.698 46.841 C 142.212 47.928, 143.289 47.221, 144.281 43.176 C 144.659 41.635, 144.202 40.202, 142.926 38.926 C 141.321 37.321, 139.543 36.998, 132.250 36.986 C 127.438 36.979, 122.600 36.771, 121.500 36.526 C 120.400 36.280, 118.478 36.500, 117.228 37.015 M 46.612 57.722 C 45.448 58.885, 46.005 66.759, 47.328 67.857 C 48.248 68.621, 49.705 68.658, 52.071 67.980 C 53.950 67.441, 59.411 67, 64.208 67 C 71.807 67, 73.063 66.751, 73.965 65.066 C 75.481 62.233, 75.233 60.190, 73.250 59.171 C 71.193 58.115, 47.508 56.826, 46.612 57.722 M 128.565 57.749 C 121.450 57.921, 115.101 58.501, 114.455 59.038 C 112.286 60.838, 113.979 64.842, 117.359 65.904 C 121.235 67.122, 143.034 67.722, 144.750 66.657 C 147.403 65.012, 145.031 56.304, 142.179 57.217 C 141.805 57.337, 135.679 57.576, 128.565 57.749 M 82.827 96.759 C 81.906 96.956, 80.425 98.228, 79.535 99.586 C 78.148 101.704, 78.106 102.443, 79.246 104.778 C 80.542 107.435, 80.763 107.494, 88.472 107.250 C 93.442 107.093, 98.511 107.601, 102.147 108.621 C 105.325 109.513, 108.592 109.987, 109.408 109.674 C 110.223 109.361, 111.203 107.434, 111.586 105.392 C 112.485 100.603, 110.473 99, 103.559 98.999 C 100.776 98.998, 95.350 98.413, 91.500 97.699 C 87.650 96.985, 83.747 96.561, 82.827 96.759 M 81.894 121.395 C 79.910 122.409, 79.541 123.283, 79.742 126.502 C 80.131 132.735, 79.938 132.675, 95.851 131.479 C 104.353 130.839, 106.540 130.336, 108.101 128.662 C 110.111 126.504, 110.643 122.515, 109.052 121.532 C 107.020 120.276, 84.308 120.162, 81.894 121.395" stroke="none" fill="black" fill-rule="evenodd"/>
</svg>