<svg xmlns="http://www.w3.org/2000/svg" width="256" height="256" viewBox="0 0 256 256" version="1.1">
	<path d="M 115.232 23.836 C 113.371 25.017, 112.049 30.526, 112.685 34.448 C 113.213 37.700, 113.078 37.889, 109.870 38.383 C 108.016 38.668, 102.900 39.156, 98.500 39.468 C 94.100 39.780, 88.025 40.292, 85 40.606 C 80.716 41.051, 78.431 40.715, 74.667 39.089 C 70.488 37.282, 67.834 37, 55.042 37 C 38.299 37, 34.272 37.538, 33.564 39.869 C 32.756 42.530, 32.558 103.213, 33.302 120 C 34.850 154.920, 35.960 160, 42.048 160 C 44.307 160, 45.278 159.398, 45.974 157.569 C 47.140 154.501, 47.360 139.553, 46.431 126.393 C 45.806 117.534, 45.947 115.898, 47.575 113.143 C 49.569 109.766, 50.886 109.286, 52.826 111.226 C 54.261 112.661, 63.882 114.843, 69.179 114.936 C 73.451 115.010, 75.378 113.416, 77.016 108.451 C 78.163 104.977, 78.068 103.843, 75.430 89.427 C 75.221 88.287, 73.841 85.587, 72.362 83.427 C 70.883 81.267, 69.354 77.795, 68.964 75.712 C 68.121 71.213, 70.456 57.555, 72.646 54.168 C 74.070 51.966, 74.668 51.851, 83.327 52.111 C 88.372 52.263, 97.146 52.008, 102.824 51.545 L 113.149 50.704 112.824 54.102 L 112.500 57.500 102.500 58.179 C 91.990 58.893, 85.673 60.803, 84.604 63.591 C 84.252 64.506, 84.005 70.711, 84.054 77.378 C 84.103 84.045, 84.092 93.325, 84.028 98 C 83.926 105.597, 84.164 106.786, 86.275 109.195 C 88.469 111.697, 89.258 111.903, 97.319 112.081 C 102.093 112.186, 106.067 112.661, 106.150 113.136 C 106.233 113.611, 106.345 114.446, 106.400 114.992 C 106.504 116.021, 102.034 118.879, 96.023 121.627 C 94.110 122.502, 90.654 124.518, 88.342 126.108 C 86.031 127.699, 83.854 129, 83.505 129 C 82.436 129, 77.652 135.088, 74.750 140.140 C 71.688 145.473, 71.066 151.704, 73.502 152.639 C 76.876 153.934, 80.724 151.425, 90.379 141.632 C 100.996 130.864, 109.315 124.523, 111.651 125.420 C 112.754 125.843, 112.984 128.659, 112.777 139.226 C 112.558 150.445, 112.802 153.075, 114.355 156.213 C 115.366 158.256, 116.998 160.182, 117.982 160.494 C 120.494 161.291, 124.730 159.141, 125.355 156.751 C 125.643 155.648, 125.613 148.515, 125.287 140.900 C 124.575 124.252, 125.195 123.328, 132.790 129.716 C 135.381 131.894, 139.500 134.935, 141.945 136.474 C 144.390 138.013, 147.789 140.755, 149.499 142.567 C 155.544 148.978, 161 148.047, 161 140.605 C 161 135.486, 157.052 130.267, 150.176 126.299 C 147.604 124.814, 145.140 123.015, 144.700 122.300 C 144.260 121.585, 143.433 121, 142.861 121 C 142.289 121, 141.073 120.151, 140.160 119.113 C 138.251 116.942, 132.728 114.894, 131.366 115.852 C 130.859 116.208, 129.925 117.625, 129.290 119 C 128.655 120.375, 128.105 120.911, 128.068 120.191 C 128.030 119.471, 127.550 119.160, 127 119.500 C 125.649 120.335, 125.736 117.674, 127.161 114.547 C 128.053 112.588, 129.034 112.016, 131.411 112.070 C 134.042 112.130, 134.204 112.268, 132.500 113 C 130.609 113.813, 130.625 113.863, 132.803 113.930 C 135.603 114.015, 148.851 111.099, 151.172 109.887 C 155.786 107.476, 157.382 102.452, 154.967 97.939 C 153.490 95.179, 152.457 72.160, 153.571 66.815 C 154.413 62.775, 151.416 60.452, 143.607 59.092 C 139.955 58.456, 134.817 58.221, 132.190 58.569 C 126.656 59.303, 124.371 57.643, 125.380 53.623 C 126.208 50.324, 127.261 50.143, 137 51.623 C 152.701 54.010, 157 53.223, 157 47.965 C 157 42.908, 154.369 41.389, 143.379 40.100 C 137.946 39.463, 131.475 38.842, 129 38.721 L 124.500 38.500 123.980 32.645 C 123.575 28.096, 122.937 26.368, 121.119 24.895 C 118.578 22.838, 117.195 22.589, 115.232 23.836 M 47.152 50.316 C 46.453 51.159, 45.978 59.421, 45.833 73.270 C 45.628 92.853, 45.776 95.095, 47.397 96.886 C 48.382 97.975, 49.824 98.621, 50.602 98.323 C 51.379 98.024, 53.024 98.432, 54.258 99.229 C 57.870 101.565, 62.717 102.180, 63.404 100.390 C 64.192 98.335, 61.106 86.115, 59.012 83 C 56.941 79.919, 54 72.515, 54 70.381 C 54 69.513, 54.650 67.384, 55.444 65.651 C 57.711 60.707, 60.199 51.131, 59.508 50.013 C 58.577 48.506, 48.448 48.755, 47.152 50.316 M 105.500 68.557 C 104.950 68.705, 103.312 69.086, 101.861 69.404 C 100.150 69.779, 99.005 70.845, 98.606 72.434 C 97.786 75.702, 99.858 80.167, 101.917 79.568 C 102.788 79.314, 105.172 78.810, 107.216 78.448 C 110.796 77.814, 111.845 76.573, 112.632 72.034 C 113.140 69.108, 109.702 67.432, 105.500 68.557 M 127.175 69.225 C 125.553 70.847, 125.757 77.095, 127.508 79.409 C 128.911 81.263, 129.089 81.233, 133.726 78.366 C 139.132 75.024, 139.941 72.185, 136 70.386 C 131.722 68.432, 128.404 67.996, 127.175 69.225 M 127.585 89.212 C 125.558 90.347, 125.337 99.532, 127.318 100.292 C 129.539 101.144, 136.942 99.363, 139.029 97.474 C 141.264 95.451, 141.608 92.512, 139.750 91.309 C 137.290 89.717, 129.181 88.319, 127.585 89.212 M 101 90.295 C 98.895 91.361, 98.500 92.268, 98.500 96.031 L 98.500 100.500 105.500 100.143 C 109.350 99.947, 112.627 99.670, 112.781 99.528 C 113.560 98.815, 113.946 94.176, 113.428 91.750 C 112.889 89.223, 112.462 89.001, 108.171 89.015 C 105.602 89.023, 102.375 89.599, 101 90.295" stroke="none" fill="black" fill-rule="evenodd"/>
</svg>