<svg xmlns="http://www.w3.org/2000/svg" width="256" height="256" viewBox="0 0 256 256" version="1.1">
	<path d="M 87.966 29.541 C 85.733 32.232, 84.127 44.876, 84.722 55.076 C 85.035 60.441, 84.766 68.175, 84.110 72.664 C 83.465 77.070, 83.227 81.427, 83.579 82.346 C 84.558 84.897, 88.568 85.413, 95.193 83.841 C 99.735 82.763, 102.754 82.650, 107.616 83.377 C 113.881 84.313, 114.112 84.267, 116.973 81.525 C 119.842 78.777, 119.874 78.635, 118.416 75.144 C 117.595 73.180, 116.196 70.769, 115.307 69.787 C 113.356 67.631, 108.124 67.509, 102.566 69.489 C 100.402 70.260, 98.215 70.633, 97.705 70.317 C 96.632 69.654, 97.554 58.046, 98.777 56.823 C 99.227 56.373, 104.653 55.841, 110.835 55.639 C 124.401 55.197, 124 54.798, 124 68.738 C 124 78.577, 124.010 78.617, 127.250 81.676 C 132.646 86.772, 152.110 91.617, 156.894 89.057 C 160.923 86.900, 162.992 82.103, 162.996 74.905 C 162.999 69.783, 162.592 67.940, 161.171 66.655 C 157.661 63.478, 152.553 65.207, 151.517 69.923 C 150.519 74.465, 148.869 75.294, 142.797 74.304 L 137.500 73.440 137.769 66.017 C 137.930 61.591, 138.524 58.294, 139.240 57.852 C 139.900 57.444, 143.619 57.339, 147.504 57.619 C 153.699 58.066, 154.907 57.861, 157.339 55.948 C 159.337 54.376, 160.025 53.040, 159.805 51.157 C 159.384 47.558, 155.828 46.032, 147.815 46.015 C 144.138 46.007, 139.916 45.538, 138.433 44.974 C 135.908 44.015, 135.775 43.661, 136.351 39.458 C 136.854 35.788, 136.604 34.604, 134.983 32.983 C 133.892 31.892, 132.335 31, 131.523 31 C 129.609 31, 126.889 35.132, 125 40.911 L 123.500 45.500 111 45.141 C 103.135 44.915, 98.215 44.359, 97.731 43.641 C 97.308 43.013, 97.225 40.460, 97.545 37.966 C 98.019 34.282, 97.728 32.923, 95.992 30.716 C 93.611 27.690, 89.947 27.154, 87.966 29.541 M 66.831 38.502 C 66.555 38.778, 59.061 39.133, 50.177 39.290 C 40.208 39.466, 33.606 39.994, 32.932 40.668 C 30.239 43.361, 31.459 144.157, 34.288 152.760 C 35.530 156.537, 39.161 159.259, 41.671 158.296 C 44.572 157.183, 45.110 153.634, 45.101 135.712 C 45.095 125.696, 45.344 116.487, 45.654 115.250 C 46.317 112.599, 49.491 112.255, 52.681 114.489 C 53.850 115.308, 57.541 116.616, 60.882 117.395 C 66.638 118.738, 67.181 118.699, 71.225 116.656 C 77.327 113.574, 78.216 111.270, 77.460 100.500 C 76.797 91.049, 75.458 87.658, 70.576 83.072 C 68.383 81.012, 68.113 80.107, 68.636 76.589 C 69.997 67.436, 73.017 56.664, 75.434 52.339 C 78.725 46.452, 78.664 44.510, 75.077 40.923 C 72.487 38.334, 68.245 37.088, 66.831 38.502 M 47 51.978 C 44.873 53.322, 44.274 69.719, 46.255 72.373 C 47.593 74.165, 47.872 74.089, 52.728 70.600 C 58.588 66.390, 58.726 66.126, 59.612 57.487 L 60.276 51 54.388 51.015 C 51.150 51.024, 47.825 51.457, 47 51.978 M 45.966 78.289 C 42.855 83.391, 43.320 102.071, 46.678 106.893 C 46.829 107.108, 47.544 106.794, 48.267 106.193 C 48.991 105.592, 52.653 104.899, 56.405 104.651 C 66.085 104.013, 66.541 103.279, 63.254 93.620 C 61.145 87.425, 59.833 85.186, 57.103 83.123 C 55.194 81.680, 52.348 79.280, 50.778 77.789 L 47.924 75.077 45.966 78.289 M 112.733 88.750 C 111.027 90.643, 109.422 95.693, 109.852 97.816 C 110.062 98.853, 108.338 99.025, 101.743 98.627 C 93.963 98.156, 93.169 98.291, 90.570 100.524 C 88.149 102.605, 87.851 103.437, 88.352 106.714 C 88.671 108.796, 89.108 119.725, 89.324 131 C 89.788 155.255, 90.074 156.230, 97.396 158.557 C 103.959 160.642, 134.576 161.691, 144.368 160.165 C 155.129 158.489, 154.547 160.256, 154.328 129.919 C 154.183 109.739, 153.836 103.411, 152.820 102.407 C 152.094 101.690, 147.450 100.616, 142.500 100.021 C 127.328 98.197, 127.626 98.308, 124.999 93.499 C 121.611 87.296, 116.001 85.124, 112.733 88.750 M 102.750 112.689 C 100.407 113.302, 100.545 115.152, 103.183 118.505 L 105.366 121.281 115.433 120.770 C 120.970 120.489, 128.425 120.585, 132 120.982 C 137.129 121.553, 138.869 121.388, 140.250 120.198 C 142.444 118.307, 142.552 113.426, 140.418 112.607 C 138.620 111.917, 105.427 111.990, 102.750 112.689 M 103.500 136.304 C 101.898 138.590, 101.545 142.737, 102.786 144.687 C 104.389 147.210, 109.677 148, 124.943 148 C 136.394 148, 141.030 147.655, 141.752 146.750 C 142.705 145.555, 142.671 144.227, 141.517 137.500 L 141.003 134.500 123.001 134.332 C 105.642 134.169, 104.946 134.240, 103.500 136.304" stroke="none" fill="black" fill-rule="evenodd"/>
</svg>