<svg xmlns="http://www.w3.org/2000/svg" width="256" height="256" viewBox="0 0 256 256" version="1.1">
	<path d="M 34.378 32.942 C 33.212 33.436, 32.006 34.889, 31.698 36.170 C 30.803 39.905, 30.945 79.846, 31.985 116.973 C 33.042 154.700, 33.272 156, 38.909 156 C 44.432 156, 45.263 151.630, 45.948 119 C 46.063 113.517, 48.352 108.468, 49.789 110.528 C 52.007 113.706, 56.583 115.257, 64.063 115.368 C 70.493 115.463, 72.186 115.144, 74.023 113.491 C 76.135 111.590, 76.215 110.928, 75.786 98.878 C 75.426 88.774, 74.933 85.484, 73.317 82.378 C 70.283 76.550, 69.814 70.644, 71.505 59.517 C 73.432 46.831, 74.919 44.913, 81.238 46.964 C 84.278 47.950, 93.001 48.454, 111.666 48.720 C 130.468 48.987, 138.105 49.431, 138.802 50.296 C 139.431 51.076, 139.398 53.783, 138.710 57.989 C 137.942 62.679, 138.003 73.937, 138.932 98.609 C 139.639 117.382, 139.913 133.699, 139.541 134.871 C 138.989 136.609, 138.074 137, 134.555 137 C 128.942 137, 127.325 138.794, 129.372 142.752 C 131.297 146.476, 141.628 155, 144.215 155 C 145.307 155, 147.730 153.470, 149.600 151.600 L 153 148.200 152.995 131.350 C 152.992 122.082, 152.458 105.950, 151.808 95.500 C 150.422 73.199, 150.450 53.896, 151.873 51.237 C 152.428 50.200, 154.710 48.804, 156.945 48.135 C 165.676 45.519, 165.784 37.914, 157.114 36.190 C 154.468 35.664, 136.591 35.535, 115.202 35.887 C 79.213 36.478, 77.775 36.430, 74.202 34.505 C 70.978 32.767, 68.305 32.479, 53.500 32.276 C 44.150 32.148, 35.545 32.447, 34.378 32.942 M 46.301 45.793 C 44.076 47.207, 44.078 97.411, 46.302 99.635 C 46.610 99.944, 48.806 100.315, 51.181 100.460 C 53.557 100.605, 56.445 101.046, 57.601 101.440 C 58.950 101.899, 60.241 101.616, 61.209 100.648 C 63.240 98.617, 62.633 88.036, 60.173 82.574 C 55.382 71.942, 55.066 70.922, 55.647 68.013 C 55.979 66.356, 56.578 65, 56.980 65 C 57.381 65, 58.296 60.908, 59.013 55.907 C 60.124 48.162, 60.108 46.682, 58.908 45.922 C 57.189 44.833, 47.959 44.739, 46.301 45.793 M 110.500 65.584 C 109.950 65.779, 104.378 66.365, 98.117 66.888 C 86.265 67.877, 85.244 68.301, 82.675 73.300 C 81.587 75.416, 81.464 77.119, 82.172 80.269 C 83.554 86.419, 83.478 101.238, 82.052 103.904 C 81.089 105.702, 81.097 106.819, 82.089 109.214 C 83.722 113.158, 88.328 115.090, 98.500 116.097 C 102.900 116.533, 109.200 117.189, 112.500 117.556 C 119.255 118.306, 125.555 116.988, 128.843 114.137 C 130.912 112.342, 131 111.484, 131 93.198 C 131 82.711, 130.570 72.999, 130.045 71.617 C 128.519 67.604, 124.346 65.517, 117.545 65.365 C 114.220 65.291, 111.050 65.389, 110.500 65.584 M 100.500 79.285 C 99.276 80.028, 98.453 81.665, 98.379 83.500 C 98.313 85.150, 97.983 89.742, 97.646 93.705 C 97.080 100.361, 97.202 101.028, 99.239 102.455 C 100.452 103.305, 102.810 104, 104.479 104 C 106.148 104, 109.050 104.441, 110.929 104.980 C 113.025 105.581, 114.774 105.602, 115.458 105.035 C 116.164 104.449, 116.558 99.807, 116.536 92.335 C 116.501 80.794, 116.450 80.534, 114 79.294 C 110.841 77.696, 103.126 77.691, 100.500 79.285" stroke="none" fill="black" fill-rule="evenodd"/>
</svg>