<svg xmlns="http://www.w3.org/2000/svg" width="256" height="256" viewBox="0 0 256 256" version="1.1">
	<path d="M 123.039 29.189 C 121.689 30.638, 120.995 32.750, 120.985 35.439 C 120.976 37.672, 120.639 39.995, 120.235 40.600 C 119.831 41.205, 115.059 42.005, 109.631 42.379 C 99.026 43.108, 96.675 43.870, 94.921 47.148 C 93.976 48.913, 94.198 49.652, 96.302 51.756 C 98.555 54.010, 99.496 54.236, 105.654 54 C 118.446 53.509, 120 53.819, 120 56.862 C 120 59.373, 117.820 60.197, 110.500 60.450 C 102.646 60.721, 100.942 61.385, 98.270 65.217 L 96.041 68.414 98.270 70.813 C 100.382 73.084, 100.929 73.177, 108.583 72.567 C 117.184 71.881, 122 72.916, 122 75.450 C 122 79.073, 113.121 81.042, 105.998 78.999 C 104.079 78.449, 99.899 77.940, 96.709 77.868 C 91.920 77.759, 90.481 78.139, 88.455 80.043 C 85.762 82.572, 85.415 84.656, 87.282 87.084 C 89.217 89.602, 92.393 89.962, 117.662 90.530 C 130.773 90.826, 143.525 91.551, 146 92.143 C 149.437 92.965, 151.800 92.898, 156 91.859 C 161.115 90.595, 161.522 90.277, 161.809 87.312 C 162.271 82.537, 159.175 80.995, 147.835 80.352 C 136.427 79.705, 132 78.500, 132 76.039 C 132 73.743, 134.681 73.035, 143.500 72.999 C 150.996 72.969, 155.282 71.490, 155.809 68.752 C 156.273 66.344, 150.757 63.276, 144.608 62.521 C 136.683 61.548, 134.656 61.024, 132.500 59.388 C 130.517 57.883, 130.520 57.854, 132.889 55.913 C 135.048 54.143, 136.260 54.018, 145.500 54.616 C 155.121 55.238, 155.851 55.149, 157.895 53.105 C 159.849 51.151, 159.921 50.726, 158.620 48.868 C 156.033 45.174, 151.924 43.722, 143.500 43.522 C 139.100 43.417, 134.488 43.002, 133.250 42.598 C 130.953 41.850, 130.165 38.634, 132 37.500 C 133.401 36.634, 133.251 29.651, 131.800 28.200 C 129.879 26.279, 125.265 26.799, 123.039 29.189 M 57.055 35.724 C 55.376 40.367, 55.444 43.708, 57.288 47.257 C 59.210 50.957, 58.374 54.509, 55.246 55.934 C 53.834 56.577, 48.264 57.372, 42.868 57.701 C 35.187 58.169, 32.615 58.710, 31.025 60.192 C 29.172 61.918, 29.118 62.328, 30.421 64.848 C 32.208 68.302, 35.086 69.635, 42.597 70.488 C 45.844 70.856, 49.850 71.568, 51.500 72.070 C 53.327 72.626, 56.763 72.613, 60.289 72.038 C 69.113 70.596, 71.392 72.406, 68.106 78.248 C 67.100 80.036, 65.508 85.975, 64.569 91.445 C 63.630 96.915, 62.487 102.090, 62.029 102.946 C 61.571 103.801, 60.921 108.310, 60.585 112.964 C 60.249 117.618, 59.642 121.748, 59.237 122.142 C 57.857 123.483, 53.505 124.023, 52 123.040 C 50.727 122.209, 50.702 121.735, 51.835 119.908 C 53.995 116.425, 54.310 108.114, 52.591 100 C 51.717 95.875, 51.001 90.573, 51.001 88.218 C 50.999 79.224, 45.711 73.169, 41.932 77.836 C 40.084 80.117, 38.494 89.831, 39.467 92.895 C 39.801 93.949, 40.696 99.840, 41.455 105.986 C 42.887 117.582, 44.412 121, 48.155 121 C 51.262 121, 50.209 124.325, 46.229 127.087 C 44.178 128.510, 40.605 130.535, 38.288 131.587 C 32.387 134.267, 32.286 135.585, 37.792 138.060 C 43.779 140.751, 50.541 140.294, 61.310 136.471 C 68.129 134.050, 69.546 133.850, 72.794 134.852 C 74.832 135.481, 79.425 136.218, 83 136.490 C 90.779 137.082, 92 138.303, 92 145.491 C 92 148.301, 92.473 151.073, 93.051 151.651 C 94.949 153.549, 98.798 151.945, 100.389 148.593 C 102.834 143.440, 105.603 141.526, 110.328 141.720 C 112.623 141.814, 120.688 141.973, 128.250 142.073 C 141.013 142.242, 142 142.391, 142 144.149 C 142 145.285, 140.900 146.477, 139.250 147.128 C 134.815 148.879, 133.640 149.579, 133.268 150.696 C 132.699 152.404, 137.939 157.928, 142.183 160.093 C 153.305 165.767, 156.034 156.111, 154.899 115.107 L 154.500 100.715 151.690 98.617 C 149.227 96.779, 146.753 96.409, 131.690 95.624 C 105.431 94.257, 103.065 94.287, 101.947 96 C 101.408 96.825, 101.051 99.525, 101.153 102 C 101.255 104.475, 100.824 107.737, 100.195 109.248 C 99.566 110.759, 98.990 114.584, 98.916 117.748 C 98.818 121.953, 98.135 124.509, 96.377 127.250 C 93.474 131.777, 91.081 132.008, 88.791 127.985 C 86.827 124.533, 83.513 123, 78.017 123 C 70.880 123, 69.431 121.001, 72.367 115.200 C 73.118 113.715, 74.026 109.575, 74.384 106 C 75.095 98.885, 76.476 90.051, 77.547 85.754 C 78.243 82.964, 76.036 76.758, 73.874 75.422 C 73.284 75.057, 76.108 73.436, 80.150 71.820 C 84.193 70.203, 88.089 68.303, 88.808 67.597 C 90.430 66.005, 89.591 62.372, 86.823 59 C 84.991 56.769, 84.003 56.495, 77.635 56.453 C 73.711 56.428, 69.487 56.060, 68.250 55.636 C 65.464 54.682, 65.250 50.989, 67.845 48.641 C 68.859 47.722, 70.281 45.179, 71.003 42.990 C 72.190 39.393, 72.133 38.801, 70.409 36.866 C 68.299 34.498, 63.075 32, 60.233 32 C 59.027 32, 57.942 33.271, 57.055 35.724 M 113 109.470 C 113 111.451, 117.974 112.419, 134.447 113.642 C 142.674 114.252, 143 114.196, 143 112.173 C 143 108.920, 140.527 108.325, 126.250 108.145 C 115.094 108.004, 113 108.213, 113 109.470 M 109.566 125.209 C 108.715 126.424, 108.397 127.797, 108.860 128.260 C 109.323 128.723, 115.731 129.756, 123.101 130.556 C 130.470 131.356, 137.666 132.253, 139.091 132.550 C 142.496 133.258, 144.577 130.947, 143.070 128.132 C 141.776 125.713, 140.376 125.329, 132 125.100 C 128.425 125.002, 122.800 124.493, 119.500 123.969 C 111.400 122.681, 111.330 122.690, 109.566 125.209" stroke="none" fill="black" fill-rule="evenodd"/>
</svg>