<svg xmlns="http://www.w3.org/2000/svg" width="256" height="256" viewBox="0 0 256 256" version="1.1">
	<path d="M 118.440 25.269 C 115.592 26.826, 115.032 28.038, 115.015 32.691 C 115.007 34.996, 114.438 37.246, 113.750 37.691 C 113.063 38.136, 109.800 38.500, 106.500 38.500 C 99.048 38.500, 95 40.816, 95 45.080 C 95 48.753, 97.362 50, 104.323 50 C 111.260 50, 114.982 52.455, 112.959 55.695 C 111.857 57.459, 110.402 57.833, 103.178 58.212 C 95.399 58.621, 94.491 58.890, 92.295 61.444 C 90.082 64.016, 90.021 64.366, 91.499 65.999 C 94.209 68.993, 100.713 69.992, 121.500 70.603 C 156.219 71.624, 160.154 71.510, 161.670 69.436 C 162.402 68.436, 163 66.994, 163 66.232 C 163 63.584, 157.598 59.351, 153.353 58.672 C 148.409 57.882, 147.498 56.138, 149.510 51.322 C 151.622 46.266, 151.394 44.752, 148.036 41.534 C 145.263 38.878, 144.571 38.704, 137.308 38.842 C 126.449 39.049, 126 38.822, 126 33.124 C 126 26.401, 122.679 22.951, 118.440 25.269 M 55.951 28.068 C 54.238 30.475, 53.899 31.968, 54.382 34.989 C 55.436 41.581, 54.878 42.004, 45.474 41.737 C 38.358 41.534, 36.742 41.804, 34.326 43.599 C 30.962 46.097, 30.206 50.063, 32.630 52.487 C 34.118 53.975, 35.505 54.127, 42.243 53.539 C 50.524 52.817, 53 53.598, 53 56.931 C 53 57.859, 52.365 59.487, 51.588 60.549 C 50.408 62.163, 49.165 62.430, 44.013 62.174 C 36.722 61.813, 33.685 63.356, 32.121 68.215 C 31.494 70.164, 31.152 79.286, 31.282 90.646 C 31.554 114.489, 31.089 113.663, 44.521 114.156 C 54.782 114.532, 56.949 115.507, 54.882 118.818 C 53.172 121.556, 51.215 121.970, 39.919 121.986 C 30.857 121.999, 30.269 122.129, 29.064 124.381 C 27.431 127.432, 28.382 130.365, 31.713 132.548 C 33.907 133.985, 35.788 134.173, 42.924 133.669 C 47.641 133.336, 51.950 133.387, 52.500 133.782 C 53.074 134.194, 53.500 139.755, 53.500 146.829 C 53.500 157.879, 53.701 159.306, 55.441 160.579 C 57.949 162.415, 61.427 162.395, 62.970 160.536 C 63.639 159.730, 64.706 153.543, 65.343 146.786 L 66.500 134.500 75.448 134.208 C 80.369 134.048, 84.982 133.430, 85.698 132.836 C 88.073 130.864, 86.747 123.867, 83.600 121.765 C 82.995 121.361, 79.049 121.024, 74.832 121.015 C 65.594 120.997, 64 120.479, 64 117.500 C 64 114.597, 65.633 114, 73.582 114 C 83.636 114, 83.682 113.905, 83.871 92.577 C 83.988 79.467, 84.415 73.943, 85.514 71.311 C 86.331 69.356, 87 66.965, 87 65.999 C 87 63.253, 81.698 61.683, 72.988 61.848 C 68.362 61.936, 64.847 61.561, 64.462 60.939 C 63.466 59.327, 66.024 54.018, 67.871 53.864 C 68.767 53.789, 72.490 53.823, 76.144 53.938 C 87.341 54.293, 95.555 48.297, 90.016 43.812 C 88.147 42.298, 85.893 42, 76.327 42 L 64.876 42 65.165 36.171 C 65.661 26.161, 60.525 21.645, 55.951 28.068 M 124.655 52.829 C 122.613 55.085, 122.606 55.463, 124.571 57.429 C 125.636 58.493, 127.976 58.995, 131.821 58.985 C 138.305 58.967, 140.350 58.055, 139.840 55.405 C 139.026 51.182, 127.860 49.287, 124.655 52.829 M 44.499 75.644 C 43.381 76.761, 43.064 78.118, 43.507 79.884 C 44.431 83.564, 45.814 84.058, 50.239 82.288 C 53.096 81.144, 55.486 80.936, 59.309 81.498 C 62.164 81.917, 66.075 82.314, 68 82.380 C 71.246 82.491, 71.500 82.283, 71.500 79.513 C 71.500 75.220, 68.156 73.844, 61.244 75.295 C 57.286 76.125, 55.169 76.101, 52.673 75.199 C 48.227 73.591, 46.455 73.688, 44.499 75.644 M 111.500 74.758 C 99.526 75.392, 99.183 75.842, 99.443 90.588 C 99.612 100.192, 99.946 102.488, 101.321 103.493 C 102.240 104.165, 108.049 105.035, 114.229 105.426 C 125.355 106.130, 128.296 107.210, 125.714 109.644 C 125.022 110.297, 119.552 111.008, 113 111.298 C 97.459 111.985, 94.126 113.442, 96.080 118.698 C 97.907 123.613, 105.306 125.050, 117.688 122.894 C 122.599 122.039, 124.377 122.068, 125.526 123.021 C 127.509 124.667, 127.023 129.917, 124.777 131.119 C 122.843 132.154, 116.268 130.787, 112.590 128.586 C 110.109 127.100, 109.432 127.122, 105.500 128.815 C 101.849 130.386, 97 136.504, 97 139.539 C 97 143.298, 99.073 143.938, 112.170 144.225 C 125.905 144.527, 128.527 145.460, 127.706 149.757 C 127.093 152.962, 129.309 160.162, 131.293 161.413 C 132.352 162.081, 133.845 162.091, 135.697 161.445 C 138.193 160.573, 138.610 159.775, 139.507 154.148 C 140.802 146.018, 142.481 144.625, 150 145.443 C 158.502 146.368, 162.654 142.012, 158.580 136.441 C 157.353 134.762, 156.093 134.533, 149.261 134.743 C 142.530 134.950, 141.043 134.689, 139.209 132.980 C 137.531 131.417, 137.188 130.258, 137.655 127.737 C 138.637 122.439, 140.249 121.468, 147.606 121.750 C 155.545 122.054, 158 120.943, 158 117.046 C 158 112.880, 152.851 109.793, 147.802 110.932 C 143.404 111.924, 139.319 111.273, 138.627 109.469 C 137.925 107.642, 139.953 106.186, 144.524 105.237 L 148.392 104.433 150.661 95.966 C 151.909 91.310, 152.946 86.116, 152.965 84.424 C 153.012 80.332, 149.783 77.521, 143.500 76.183 C 138.360 75.089, 120.375 74.288, 111.500 74.758 M 111.692 86.641 C 110.428 87.010, 109.976 87.951, 110.192 89.768 C 110.588 93.114, 112.666 93.653, 126.987 94.127 C 137.652 94.480, 138.323 94.385, 139.697 92.322 C 141.037 90.311, 140.942 90.008, 138.460 88.382 C 136.374 87.015, 133.274 86.563, 124.636 86.367 C 118.511 86.228, 112.686 86.351, 111.692 86.641 M 63 94.199 C 61.075 94.760, 56.468 94.971, 52.762 94.668 C 45.321 94.061, 42.628 95.386, 43.197 99.375 C 43.485 101.398, 44.114 101.513, 56.260 101.780 C 69.184 102.064, 73 101.308, 73 98.465 C 73 96.631, 69.424 92.969, 67.750 93.090 C 67.063 93.140, 64.925 93.639, 63 94.199" stroke="none" fill="black" fill-rule="evenodd"/>
</svg>