<svg xmlns="http://www.w3.org/2000/svg" width="256" height="256" viewBox="0 0 256 256" version="1.1">
	<path d="M 109.666 31.667 C 109.260 32.073, 95.253 32.426, 78.538 32.452 C 49.236 32.498, 48.045 32.575, 45.323 34.606 C 41.700 37.309, 41.349 39.316, 44.059 41.841 C 47.239 44.803, 51.250 45.178, 81.812 45.376 C 97.040 45.474, 110.006 45.872, 110.625 46.259 C 111.243 46.646, 111.956 49.460, 112.209 52.513 C 112.490 55.895, 113.454 59.124, 114.677 60.781 C 115.781 62.276, 117.264 65.300, 117.972 67.500 C 120.281 74.672, 124.938 79.259, 132.631 81.939 C 136.409 83.255, 140.944 85.577, 142.708 87.099 C 150.253 93.605, 163 91.345, 163 83.500 C 163 78.775, 160.194 76.825, 152.260 76.034 C 140.423 74.853, 128.498 67.106, 129.202 61.055 C 129.467 58.783, 129.910 58.524, 133.199 58.714 C 135.233 58.832, 139.462 60.010, 142.597 61.332 C 148.812 63.953, 151.495 63.813, 153.117 60.782 C 154.787 57.662, 153.332 54.251, 149.569 52.466 C 145.040 50.317, 144.685 48.928, 147.577 44.672 C 152.030 38.119, 149.690 33.170, 141.714 32.271 C 137.026 31.743, 137 31.757, 135.381 35.620 C 134.488 37.754, 133.664 40.117, 133.552 40.872 C 133.439 41.627, 132.266 42.822, 130.945 43.529 C 127.555 45.344, 123.522 43.113, 122.033 38.599 C 121.409 36.710, 119.903 34.511, 118.685 33.713 C 115.897 31.887, 110.639 30.694, 109.666 31.667 M 61.830 54.450 C 58.240 56.128, 53.273 58.306, 50.793 59.290 C 43.275 62.275, 42.329 69, 49.427 69 C 53.955 69, 55.250 70.967, 55.348 77.996 C 55.443 84.774, 54.462 86.285, 49.758 86.609 C 42.716 87.095, 35.416 88.247, 33.750 89.136 C 31.574 90.298, 31.380 96.240, 33.461 97.967 C 35.772 99.886, 42.580 100.378, 47.551 98.986 C 53.842 97.224, 54.611 98.263, 52.475 105.637 C 47.469 122.915, 45.730 127.979, 44.432 129.056 C 43.644 129.710, 43 131.149, 43 132.254 C 43 133.360, 42.055 135.793, 40.900 137.662 C 37.175 143.689, 38.452 151, 43.231 151 C 46.589 151, 53.678 142.204, 57.054 133.847 C 60.702 124.821, 63.786 113.815, 64.966 105.617 C 65.432 102.381, 66.345 99.405, 66.994 99.004 C 67.644 98.602, 71.843 98.022, 76.327 97.715 C 85.528 97.084, 86.363 97.564, 85.518 103 C 83.024 119.043, 83.202 143.343, 85.863 150.198 C 86.439 151.681, 88.104 153.677, 89.562 154.632 C 92.146 156.326, 92.260 156.308, 94.084 153.935 C 95.113 152.596, 96.013 150.150, 96.082 148.500 C 96.262 144.240, 96.684 125.704, 96.940 110.807 C 97.096 101.739, 97.535 97.801, 98.478 97.018 C 100.303 95.504, 113.005 96.849, 113.688 98.629 C 113.970 99.363, 113.566 101.885, 112.791 104.232 C 111.293 108.771, 111.501 110.616, 114.797 122 C 118.768 135.717, 120.441 138.768, 125.500 141.520 C 127.700 142.717, 131.908 146.060, 134.852 148.949 C 140.733 154.723, 146.394 157.681, 153.395 158.641 C 160.493 159.613, 160.905 158.851, 160.676 145.181 L 160.480 133.500 157.905 133.199 C 154.972 132.857, 152.581 135.156, 152.532 138.365 C 152.510 139.832, 151.766 140.604, 150.155 140.832 C 147.255 141.243, 142 139.164, 142 137.606 C 142 136.973, 140.402 135.594, 138.450 134.543 C 136.497 133.491, 133.329 130.893, 131.410 128.769 C 127.952 124.941, 127.923 124.832, 128.210 116.714 C 128.439 110.237, 128.827 108.460, 130.061 108.224 C 130.920 108.060, 132.236 109.073, 132.987 110.475 C 133.898 112.177, 134.917 112.844, 136.057 112.482 C 137.026 112.174, 138 112.559, 138.313 113.373 C 138.907 114.920, 148.843 119, 152.018 119 C 154.860 119, 155.827 114.340, 153.371 112.481 C 152.342 111.701, 150.938 111.049, 150.250 111.032 C 149.563 111.014, 149 110.550, 149 110 C 149 109.450, 148.339 109, 147.531 109 C 146.673 109, 146.289 108.410, 146.608 107.578 C 147.285 105.815, 145.735 102.826, 142.431 99.522 C 139.266 96.356, 137.559 96.352, 133.818 99.500 C 130.343 102.423, 128.034 102.717, 127.917 100.250 C 127.871 99.287, 127.758 95.804, 127.667 92.510 C 127.503 86.635, 127.428 86.486, 123.780 84.766 C 121.283 83.589, 116.260 82.795, 108.510 82.353 C 95.571 81.614, 96.784 82.529, 95.455 72.500 C 94.569 65.815, 94.571 62.209, 95.462 57.924 C 96.747 51.742, 91.522 49.235, 83.441 52.157 C 81.180 52.975, 78.498 53.034, 74.299 52.358 C 68.744 51.463, 67.933 51.599, 61.830 54.450 M 72.500 66.830 L 67.500 68.500 66.949 76 C 66.646 80.125, 66.582 84.063, 66.806 84.750 C 67.537 86.990, 81.568 85.318, 83.120 82.805 C 83.926 81.501, 83.515 70.197, 82.551 67.160 C 81.730 64.573, 79.481 64.499, 72.500 66.830" stroke="none" fill="black" fill-rule="evenodd"/>
</svg>