<svg xmlns="http://www.w3.org/2000/svg" width="256" height="256" viewBox="0 0 256 256" version="1.1">
	<path d="M 52.763 31.804 C 50.466 32.251, 49.152 36.476, 48.501 45.500 C 48.184 49.900, 47.534 59.125, 47.057 66 C 44.061 109.180, 42.744 118.347, 37.360 133.481 C 32.953 145.870, 34.270 154.153, 40.403 152.614 C 44.159 151.671, 45.319 149.269, 50.921 130.817 C 56.237 113.311, 56.430 112.016, 59.083 76 C 59.670 68.025, 60.230 58.485, 60.326 54.800 C 60.427 50.884, 61.036 47.564, 61.789 46.810 C 63.584 45.016, 124.423 45.039, 127.726 46.835 C 129.780 47.951, 129.943 48.719, 129.838 56.772 C 129.670 69.689, 130.905 91.750, 132.621 106.500 C 134.439 122.114, 138.590 135.830, 144.274 145 C 149.010 152.641, 149.559 153.103, 153.487 152.761 C 157.674 152.395, 160.956 146.302, 161.135 138.566 C 161.283 132.136, 160.806 131.385, 155.395 129.525 C 150.387 127.803, 148.642 124.374, 145.966 111 C 143.046 96.409, 141.692 75.675, 142.296 54.818 C 142.936 32.710, 143.819 33.955, 126.725 32.869 C 114.387 32.086, 55.665 31.240, 52.763 31.804 M 68.228 55.006 C 65.488 56.147, 64.579 58.187, 65.384 61.392 C 66.152 64.453, 67.641 64.990, 78.153 65.997 C 87.533 66.896, 91.231 68.233, 90.391 70.424 C 89.577 72.544, 85.320 73.798, 76.500 74.516 C 63.950 75.538, 64.022 75.439, 64.395 91.246 C 64.656 102.341, 65.064 105.272, 66.897 109.242 C 69.285 114.413, 69.663 114.592, 79.787 115.348 C 88.061 115.965, 89.191 116.999, 88.883 123.661 C 88.748 126.581, 88.944 129.277, 89.318 129.652 C 90.619 130.952, 89.991 133.790, 88.250 134.482 C 87.287 134.865, 82.141 135.567, 76.812 136.042 C 71.484 136.517, 66.192 137.488, 65.051 138.200 C 61.903 140.166, 61.469 142.913, 63.920 145.368 C 65.814 147.264, 67.405 147.540, 78.275 147.864 C 84.999 148.065, 93.875 147.746, 98 147.157 C 116.010 144.583, 115.496 144.550, 119.927 148.553 C 124.081 152.306, 124.709 152.315, 128.750 148.677 C 130.417 147.176, 131 145.543, 131 142.373 C 131 138.109, 129.337 133, 127.948 133 C 127.546 133, 126.530 131.282, 125.690 129.183 C 124.577 126.400, 124.102 120.908, 123.942 108.933 C 123.661 88.015, 123.676 87.293, 124.481 82.500 C 125.632 75.644, 124.059 74.620, 111.338 73.948 C 99.309 73.313, 97 72.663, 97 69.912 C 97 67.562, 98.908 67.140, 111.147 66.782 C 118.970 66.553, 121.192 66.140, 122.897 64.595 C 126.063 61.727, 125.602 58.380, 121.750 56.276 C 118.929 54.734, 115.333 54.471, 94.500 54.280 C 81.122 54.158, 69.494 54.479, 68.228 55.006 M 78.250 87.662 C 76.137 88.515, 76.618 100.213, 78.866 102.626 C 81.650 105.614, 87.561 104.731, 88.767 101.148 C 90.034 97.381, 89.116 89.732, 87.218 88.250 C 85.635 87.013, 80.666 86.688, 78.250 87.662 M 101.666 88.477 C 100.610 89.532, 100.288 91.594, 100.535 95.697 C 100.908 101.876, 102.477 104, 106.668 104 C 109.069 104, 112.312 100.156, 111.874 97.830 C 111.736 97.099, 111.986 94.958, 112.430 93.073 C 113.080 90.312, 112.885 89.389, 111.427 88.323 C 109.009 86.555, 103.501 86.642, 101.666 88.477 M 102.973 116.821 C 101.110 118.329, 100.693 119.743, 100.537 125.071 C 100.430 128.748, 100.810 131.814, 101.425 132.235 C 102.016 132.639, 104.588 132.976, 107.141 132.985 L 111.781 133 111.882 126.311 C 112.034 116.162, 108.472 112.368, 102.973 116.821" stroke="none" fill="black" fill-rule="evenodd"/>
</svg>