<svg xmlns="http://www.w3.org/2000/svg" width="256" height="256" viewBox="0 0 256 256" version="1.1">
	<path d="M 100 31.217 C 95.675 33.037, 93.538 33.386, 90 32.848 C 87.525 32.472, 82.800 32.579, 79.500 33.085 C 76.200 33.591, 64.407 34.116, 53.293 34.252 C 34.410 34.484, 32.987 34.631, 31.584 36.500 C 29.835 38.828, 30.401 41.828, 33.020 44.106 C 35.730 46.464, 59.249 47.481, 75.164 45.929 C 85.299 44.940, 88.150 44.293, 91.146 42.299 C 94.732 39.912, 94.998 39.887, 107.484 40.769 C 121.076 41.730, 122.420 42.334, 121.329 46.992 C 120.462 50.694, 119.952 50.974, 113.403 51.345 C 106.576 51.732, 102.588 53.852, 101.230 57.816 C 100.437 60.134, 99.538 79.107, 99.634 91.500 C 99.907 126.527, 100.371 131.016, 103.885 132.633 C 104.773 133.042, 116.097 133.557, 129.048 133.778 L 152.597 134.179 155.907 131.087 L 159.218 127.994 158.623 117.247 C 158.295 111.336, 157.740 95.344, 157.390 81.708 C 156.605 51.188, 157.202 52.533, 144.563 52.805 C 132.630 53.062, 130.387 51.634, 133.161 45.547 C 134.270 43.112, 134.691 43, 142.710 43 C 151.743 43, 156.100 41.551, 158.055 37.897 C 159.370 35.441, 158.591 31.441, 156.654 30.697 C 155.904 30.410, 144.088 29.888, 130.395 29.538 C 105.911 28.913, 105.409 28.940, 100 31.217 M 71 56.201 C 63.025 56.699, 52.072 56.898, 46.661 56.643 C 32.129 55.958, 31.340 57.247, 32.796 79.293 C 33.877 95.656, 34.574 96.604, 45.284 96.286 C 49.253 96.169, 57.225 95.550, 63 94.910 C 75.939 93.478, 77.805 93.416, 81.190 94.303 C 83.246 94.842, 84.533 94.446, 86.653 92.622 L 89.427 90.236 89.617 74.368 C 89.774 61.227, 89.539 58.199, 88.248 56.750 C 87.391 55.788, 86.422 55.066, 86.095 55.147 C 85.768 55.228, 78.975 55.702, 71 56.201 M 116 65.843 C 112.802 66.443, 112.500 66.798, 112.500 69.955 C 112.500 74.389, 113.815 74.770, 129.559 74.900 C 142.162 75.005, 144.241 74.426, 145.376 70.500 C 146.625 66.178, 144.864 65.510, 131.788 65.343 C 125.030 65.257, 117.925 65.482, 116 65.843 M 71.500 69.061 C 69.850 69.447, 63.464 69.817, 57.309 69.882 C 50.032 69.959, 45.868 70.405, 45.403 71.157 C 44.438 72.718, 44.815 81.215, 45.898 82.298 C 46.384 82.784, 52.828 82.642, 60.631 81.973 C 75.981 80.656, 78 79.787, 78 74.500 C 78 70.283, 75.438 68.139, 71.500 69.061 M 112.480 89.337 C 111.566 90.638, 111.454 92.095, 112.095 94.331 C 112.593 96.066, 113 97.602, 113 97.743 C 113 97.885, 120.425 98, 129.500 98 L 146 98 145.986 94.750 C 145.954 86.941, 146.634 87.242, 129.302 87.378 C 115.447 87.487, 113.632 87.698, 112.480 89.337 M 72.374 99.772 C 71.205 99.956, 69.239 101.181, 68.006 102.494 C 66.118 104.503, 65.921 105.335, 66.762 107.746 C 67.522 109.928, 67.385 111.312, 66.188 113.555 C 65.214 115.379, 64.454 119.998, 64.191 125.691 L 63.767 134.883 60.215 136.568 C 58.077 137.583, 52.381 138.571, 45.910 139.050 C 39.996 139.487, 34.259 140.326, 33.160 140.914 C 30.045 142.581, 29.332 147.776, 31.869 150.313 C 33.657 152.102, 35.105 152.380, 42.224 152.302 C 46.776 152.252, 52.477 151.679, 54.892 151.029 C 60.967 149.393, 80.647 146.246, 85.498 146.134 C 90.576 146.017, 92.329 143.871, 91.651 138.597 C 91.065 134.037, 86.903 129.955, 83 130.112 C 77.240 130.342, 77.316 130.433, 77.100 123.051 C 76.930 117.227, 77.227 115.773, 78.935 114.065 C 82.002 110.998, 82.712 104.712, 80.268 102.268 C 78.080 100.080, 75.531 99.274, 72.374 99.772 M 40.881 105.750 C 38.449 112, 42.176 125.643, 47.999 131.802 L 50.175 134.104 52.088 131.899 C 54.844 128.721, 54.910 122.409, 52.292 112.500 C 50.609 106.132, 47.994 103.059, 44.225 103.022 C 42.659 103.007, 41.617 103.856, 40.881 105.750 M 127.211 110.946 C 111.794 111.544, 111.046 111.833, 111.015 117.215 C 110.991 121.586, 113.394 122.139, 130.218 121.631 C 143.282 121.236, 145.582 120.924, 146.701 119.395 C 149.417 115.680, 147.140 109.733, 143.179 110.196 C 142.255 110.304, 135.070 110.641, 127.211 110.946 M 137.050 143.347 C 136.443 145.188, 136.224 147.420, 136.564 148.307 C 137.505 150.759, 151.668 158.176, 154.712 157.810 C 160.783 157.082, 160.198 151.260, 153.378 144.537 C 149.082 140.302, 148.423 140, 143.466 140 C 138.329 140, 138.119 140.110, 137.050 143.347 M 105.942 143.281 C 96.991 148.864, 94.693 152.695, 98.934 154.965 C 102.058 156.636, 105.861 156.175, 112.125 153.363 C 115.356 151.913, 118 150.673, 118 150.607 C 118 150.541, 118.418 149.028, 118.930 147.245 C 119.644 144.756, 119.511 143.654, 118.358 142.501 C 116.186 140.329, 110.059 140.714, 105.942 143.281" stroke="none" fill="black" fill-rule="evenodd"/>
</svg>