<svg xmlns="http://www.w3.org/2000/svg" width="256" height="256" viewBox="0 0 256 256" version="1.1">
	<path d="M 56.367 27.772 C 55.194 28.723, 53.656 30.625, 52.950 32 C 52.244 33.375, 49.266 37.690, 46.333 41.589 C 43.400 45.488, 41 49.109, 41 49.636 C 41 50.163, 39.228 52.325, 37.062 54.440 C 34.896 56.555, 32.189 60.359, 31.046 62.893 C 29.903 65.427, 28.016 68.698, 26.854 70.163 C 25.355 72.051, 24.927 73.575, 25.385 75.398 C 26.030 77.967, 26.638 78.253, 34 79.457 C 40.196 80.470, 40.377 80.830, 40.121 91.668 C 39.994 97.076, 39.516 103.300, 39.058 105.500 C 38.198 109.640, 38.421 121.256, 39.738 140.833 C 40.370 150.226, 40.822 152.401, 42.383 153.540 C 43.985 154.710, 44.684 154.698, 47.083 153.457 C 48.633 152.656, 52.523 152, 55.728 152 C 58.963 152, 62.432 151.402, 63.527 150.655 C 67.428 147.997, 69.671 148.107, 72.968 151.118 C 74.704 152.703, 76.662 154, 77.321 154 C 79.186 154, 80.901 150.551, 82.531 143.524 C 84.119 136.677, 83.585 131.729, 80.449 124.224 C 79.096 120.986, 79.110 120.288, 80.589 117.172 C 81.539 115.170, 82.388 110.300, 82.606 105.607 C 83.219 92.384, 84.588 84.805, 87.322 79.500 C 89.644 74.993, 89.731 74.445, 88.199 73.945 C 87.265 73.640, 84.896 72.657, 82.936 71.760 C 80.105 70.464, 78.475 70.330, 75.009 71.109 C 72.044 71.776, 69.020 71.740, 65.573 70.998 C 62.440 70.324, 56.581 70.168, 50.250 70.590 C 41.325 71.185, 40 71.071, 40 69.708 C 40 65.730, 46.266 62.604, 51.182 64.131 C 54.583 65.187, 73.846 66.028, 77.578 65.284 C 80.286 64.744, 85.628 55.746, 86.500 50.258 C 87.399 44.591, 84.458 39.622, 79.208 37.937 C 75.190 36.648, 72 34.307, 72 32.650 C 72 32.078, 70.791 30.347, 69.313 28.805 C 66.110 25.462, 59.837 24.962, 56.367 27.772 M 112.670 35.132 C 108.901 39.054, 104.948 44.289, 103.886 46.765 C 102.825 49.241, 99.782 53.646, 97.124 56.554 C 92.703 61.392, 92.245 62.366, 91.733 68.008 C 91.275 73.063, 91.492 74.492, 92.937 75.937 C 95.776 78.776, 100.742 80, 109.427 80 C 120.054 80, 122 81.242, 122 88.022 C 122 93.760, 120.584 94.975, 113.816 95.044 C 103.723 95.145, 93 99.816, 93 104.110 C 93 107.827, 98.549 109.498, 111 109.529 L 122.500 109.559 122.434 122.529 C 122.377 133.510, 122.041 136.229, 120.240 140.250 C 118.755 143.565, 117.523 145, 116.163 145 C 113.665 145, 112.693 147.532, 114.122 150.322 C 115.865 153.728, 122.239 160, 123.953 159.996 C 126.198 159.991, 131.704 156.422, 132.892 154.201 C 133.453 153.153, 134.203 142.666, 134.559 130.897 C 134.914 119.129, 135.516 109.165, 135.896 108.756 C 136.276 108.347, 140.393 107.509, 145.044 106.892 C 154.663 105.618, 156 104.888, 156 100.913 C 156 96.910, 153.001 95.577, 143.500 95.359 C 139.100 95.257, 134.938 95.135, 134.250 95.087 C 132.518 94.966, 132.552 83.617, 134.289 82.175 C 134.999 81.586, 137.551 80.662, 139.962 80.120 C 142.373 79.578, 144.789 78.342, 145.331 77.373 C 147.030 74.338, 151.043 71.150, 153.975 70.505 C 161.324 68.891, 161.530 62.621, 154.483 55.083 C 152.126 52.562, 148.547 48.045, 146.529 45.045 C 142.382 38.880, 140.439 37.262, 134.118 34.704 C 131.676 33.715, 128.366 31.803, 126.762 30.454 C 122.187 26.603, 120.249 27.246, 112.670 35.132 M 57.846 47.166 C 51.726 53.796, 52.673 55, 64.010 55 C 68.901 55, 71.306 54.551, 72.429 53.429 C 74.577 51.280, 74.479 50.914, 70.615 46.695 C 65.965 41.619, 62.862 41.734, 57.846 47.166 M 117.563 49.250 C 115.639 52.138, 112.232 56.573, 109.991 59.107 C 105.365 64.336, 103.999 69.809, 107.500 69.088 C 108.600 68.861, 116.844 68.582, 125.819 68.468 C 135.073 68.351, 142.572 67.828, 143.139 67.261 C 143.727 66.673, 143.840 64.663, 143.413 62.388 C 142.642 58.279, 136.277 51.347, 128.770 46.439 C 123.239 42.823, 121.566 43.243, 117.563 49.250 M 49.556 83.910 C 47.502 87.234, 52.176 88.778, 65.861 89.297 C 71.580 89.514, 73.943 87.901, 72.691 84.636 C 72.162 83.259, 70.326 83, 61.090 83 C 55.056 83, 49.865 83.409, 49.556 83.910 M 52.941 101.218 C 50.939 101.958, 50.387 103.503, 51.809 104.382 C 52.254 104.657, 56.549 105.015, 61.354 105.178 C 67.997 105.403, 70.296 105.140, 70.952 104.078 C 72.911 100.909, 71.030 100.025, 62.840 100.266 C 58.463 100.395, 54.008 100.823, 52.941 101.218 M 102.334 116.998 C 98.779 119.727, 96.784 122.139, 95.939 124.732 C 95.263 126.804, 94.332 128.747, 93.870 129.050 C 93.408 129.352, 92.751 130.993, 92.411 132.696 C 91.613 136.684, 94.915 140.462, 98.301 139.435 C 104.041 137.693, 110.404 130.442, 113.833 121.733 C 115.248 118.140, 115.209 117.851, 112.984 115.483 C 109.846 112.143, 108.389 112.350, 102.334 116.998 M 142.113 114.364 C 141.394 115.231, 140.711 117.293, 140.597 118.946 C 140.421 121.489, 141.742 123.357, 149.160 131.056 C 161.309 143.664, 164.005 142.488, 160.582 126.072 C 158.613 116.628, 156.022 113.832, 148.677 113.223 C 144.718 112.895, 143.099 113.176, 142.113 114.364 M 67.500 115 C 66.400 115.473, 62.945 115.891, 59.821 115.930 C 53.407 116.009, 50.474 117.916, 51.409 121.399 C 51.719 122.555, 51.979 123.894, 51.986 124.375 C 52.011 125.950, 68.265 124.420, 72.250 122.467 C 74.313 121.456, 76 120.329, 76 119.961 C 76 118.943, 71.206 113.990, 70.298 114.070 C 69.859 114.109, 68.600 114.527, 67.500 115 M 63.725 134.418 C 62.907 135.236, 61.960 135.626, 61.619 135.286 C 61.279 134.945, 61 135.192, 61 135.833 C 61 136.475, 61.900 137, 63 137 C 64.333 137, 65 137.667, 65 139 C 65 142.255, 67.686 141.352, 67.779 138.065 C 67.887 134.260, 65.779 132.364, 63.725 134.418" stroke="none" fill="black" fill-rule="evenodd"/>
</svg>