<svg xmlns="http://www.w3.org/2000/svg" width="256" height="256" viewBox="0 0 256 256" version="1.1">
	<path d="M 110.455 25.455 C 108.683 27.226, 108 29, 108 31.832 C 108 33.990, 107.437 36.223, 106.748 36.794 C 106.060 37.365, 100.896 37.849, 95.272 37.869 C 83.678 37.910, 82 37.096, 82 31.429 C 82 27.927, 81.253 27.433, 76.605 27.855 C 74.483 28.048, 71 31.616, 71 33.596 C 71 36.125, 66.644 37.999, 60.527 38.100 C 52.005 38.241, 49.558 39.093, 49.208 42.040 C 49.047 43.394, 49.574 45.401, 50.380 46.501 C 51.748 48.368, 52.849 48.484, 67.085 48.255 C 83.718 47.988, 90.340 49.024, 89.791 51.805 C 89.504 53.257, 88.025 53.510, 79.478 53.568 C 67.077 53.653, 57.978 54.894, 57.328 56.588 C 55.724 60.767, 64.143 63.804, 77.703 63.938 C 84.157 64.002, 89.299 65.604, 88.711 67.368 C 87.975 69.576, 81.728 70.107, 63.276 69.526 C 46.465 68.998, 43.641 69.132, 40.776 70.600 C 36.716 72.681, 36.179 73.486, 36.775 76.603 C 37.482 80.301, 41.762 82, 50.367 82 C 58.593 82, 59.607 82.753, 57.367 87.192 C 55.742 90.412, 45.975 97.627, 42.084 98.482 C 40.563 98.816, 37.836 100.326, 36.026 101.837 C 33.402 104.028, 32.880 105.045, 33.452 106.850 C 34.624 110.540, 38.231 111.237, 46.203 109.313 C 53.027 107.666, 53.287 107.672, 54.643 109.526 C 57.199 113.022, 57.850 118.345, 57.873 135.908 C 57.889 148.722, 58.224 153.520, 59.143 154.088 C 60.544 154.954, 68.445 154.366, 74.500 152.945 C 82.288 151.117, 95.592 149.640, 102.500 149.835 C 108.587 150.008, 115.718 151.359, 130.116 155.068 C 132.105 155.581, 134.623 156, 135.712 156 C 136.802 156, 139.106 156.705, 140.834 157.567 C 142.561 158.429, 144.430 158.852, 144.987 158.508 C 146.151 157.789, 146.379 153.001, 145.250 152.999 C 143.541 152.996, 139 148.121, 139 146.289 C 139 145.200, 139.900 143.495, 141 142.500 C 142.100 141.505, 143 139.860, 143 138.845 C 143 137.830, 143.552 137, 144.227 137 C 144.902 137, 144.244 135.790, 142.765 134.311 C 140.241 131.787, 139.905 131.710, 137.297 133.061 C 135.769 133.852, 133.442 135.761, 132.126 137.302 C 129.303 140.610, 125.297 140.735, 125.828 137.500 C 126.008 136.400, 126.352 131, 126.592 125.500 C 127.084 114.236, 127.234 113.016, 128.347 111.235 C 129.875 108.789, 136.404 106.886, 142.500 107.111 C 153.256 107.507, 154.990 107.202, 155.895 104.755 C 157.621 100.089, 155.490 97.594, 146.716 94.008 C 142.197 92.161, 137.174 89.325, 135.553 87.705 C 132.845 84.999, 132.746 84.659, 134.321 83.508 C 135.263 82.818, 138.689 81.954, 141.933 81.587 C 148.301 80.867, 153 78.091, 153 75.050 C 153 70.277, 146.264 68.804, 132.801 70.632 C 122.207 72.071, 105.184 71.639, 101.750 69.844 C 97.217 67.475, 103.198 62.984, 108.303 64.925 C 111.194 66.024, 127.379 63.634, 129.737 61.760 C 131.939 60.010, 129.511 57.845, 122.661 55.450 C 116.358 53.246, 112.055 52.981, 106 54.424 C 102.891 55.165, 100.507 53.726, 101.323 51.601 C 101.820 50.304, 103.797 49.962, 111.719 49.798 C 117.098 49.687, 122.850 49.663, 124.500 49.746 C 140.373 50.537, 139.865 50.579, 142.152 48.292 C 144.019 46.426, 144.188 45.707, 143.246 43.642 C 142.040 40.993, 137.941 39.867, 128.500 39.590 C 121.671 39.389, 121 38.765, 121 32.615 C 121 28.403, 120.537 26.913, 118.686 25.174 C 115.682 22.352, 113.482 22.427, 110.455 25.455 M 77.250 82.611 C 75.197 83.523, 75.823 84.981, 78.750 86.108 C 81.780 87.274, 117 88.085, 117 86.988 C 117 86.612, 114.638 85.494, 111.750 84.504 C 107.935 83.196, 102.674 82.616, 92.500 82.380 C 84.800 82.202, 77.938 82.306, 77.250 82.611 M 113.420 89.871 C 114.427 91.500, 110.514 94.695, 106.500 95.521 C 100.856 96.684, 101.064 96.687, 95.099 95.335 C 92.129 94.661, 88.412 94.368, 86.840 94.682 C 84.747 95.101, 82.886 94.529, 79.888 92.544 C 75.235 89.465, 71.913 89.695, 68.901 93.302 C 66.577 96.086, 66.533 97.699, 68.750 98.794 C 70.907 99.858, 121.018 99.736, 122.746 98.661 C 125.514 96.941, 118.716 89, 114.476 89 C 113.599 89, 113.124 89.392, 113.420 89.871 M 71.123 110.352 C 70.388 111.237, 70.282 112.056, 70.856 112.411 C 71.380 112.735, 80.177 112.564, 90.404 112.031 C 100.631 111.498, 109.674 111.322, 110.500 111.638 C 111.325 111.955, 112.775 111.917, 113.722 111.553 C 117.694 110.029, 112.085 109.386, 92.684 109.140 C 75.784 108.926, 72.136 109.131, 71.123 110.352 M 86.500 121.986 C 83.200 122.359, 81.625 122.769, 83 122.898 C 88.332 123.397, 114.188 123.145, 114.745 122.588 C 115.069 122.265, 114.471 121.972, 113.417 121.937 C 97.319 121.406, 91.538 121.416, 86.500 121.986 M 109.687 132.805 C 104.889 137.813, 106.306 139, 117.082 139 C 121.027 139, 124 138.570, 124 138 C 124 137.450, 123.325 137, 122.500 137 C 121.675 137, 121 136.573, 121 136.052 C 121 134.278, 116.279 130, 114.322 130 C 113.251 130, 111.165 131.262, 109.687 132.805 M 71.921 135.863 C 70.387 137.105, 69.886 138.261, 70.354 139.480 C 70.984 141.122, 72.062 141.213, 83.182 140.573 C 89.859 140.189, 96.712 139.302, 98.411 138.603 L 101.500 137.333 98.500 135.795 C 96.406 134.722, 92.279 134.225, 84.837 134.148 C 75.898 134.056, 73.811 134.333, 71.921 135.863" stroke="none" fill="black" fill-rule="evenodd"/>
</svg>