<svg xmlns="http://www.w3.org/2000/svg" width="256" height="256" viewBox="0 0 256 256" version="1.1">
	<path d="M 131.226 24.250 C 130.015 25.737, 128.015 32.682, 128.623 33.290 C 129.455 34.121, 126.002 36.215, 124.653 35.697 C 123.898 35.407, 122.777 33.170, 122.161 30.725 C 120.817 25.388, 118.904 23.556, 115.550 24.398 C 113.697 24.863, 112.769 26.086, 111.862 29.260 C 109.954 35.935, 109.614 36.139, 101.604 35.416 C 90.993 34.460, 90.798 34.806, 90.945 54.345 C 91.058 69.355, 90.991 69.893, 88.809 71.422 C 86.504 73.036, 81.096 73.601, 80.880 72.250 C 80.815 71.838, 80.671 63.134, 80.562 52.909 C 80.374 35.403, 80.231 34.133, 78.113 31.159 C 75.540 27.545, 75.661 27.555, 49.278 28.846 C 36.764 29.458, 34.872 29.779, 33.528 31.521 C 32.263 33.161, 32.043 36.671, 32.247 52 C 32.488 70.089, 32.435 70.622, 29.896 76 C 24.855 86.673, 25.495 92.672, 32.366 99.152 C 35.836 102.426, 35.896 102.611, 35.042 107.500 C 34.562 110.250, 33.912 122.281, 33.598 134.235 L 33.026 155.971 35.464 157.568 C 40.795 161.062, 44.533 156.936, 45.347 146.660 C 45.644 142.898, 46.577 138.768, 47.419 137.484 C 48.804 135.370, 49.301 135.244, 52.631 136.164 C 54.656 136.723, 58.212 136.895, 60.533 136.547 C 63.896 136.043, 64.880 136.245, 65.377 137.539 C 66.705 141.002, 65.928 143.883, 63 146.347 C 61.296 147.781, 60 149.847, 60 151.132 C 60 154.626, 64.776 160.792, 68.037 161.508 C 74.795 162.993, 76.858 158.468, 76.931 142 C 77.032 119.183, 78.128 102.568, 79.692 100.123 C 81.078 97.956, 81.666 97.805, 86.356 98.414 C 97.518 99.862, 97.632 99.868, 143.141 101.565 C 158.390 102.134, 158.821 102.094, 160.305 99.975 C 161.461 98.324, 161.591 97.124, 160.844 94.981 C 159.567 91.320, 158.037 90.748, 149 90.550 C 118.323 89.881, 87.128 88.574, 85.250 87.881 C 82.777 86.967, 82.235 84.508, 84.328 83.704 C 85.784 83.146, 94.853 83.399, 123 84.786 C 133.175 85.287, 143.525 85.683, 146 85.666 C 148.475 85.649, 151.889 85.984, 153.586 86.410 C 159.026 87.775, 160.011 85.642, 159.930 72.679 C 159.892 66.530, 159.532 56.460, 159.130 50.300 C 158.211 36.202, 157.508 35.208, 148.174 34.793 L 141.581 34.500 140.322 30.141 C 139.630 27.743, 138.544 25.156, 137.909 24.391 C 136.474 22.661, 132.588 22.579, 131.226 24.250 M 45.622 41.119 C 43.808 42.576, 43.723 43.132, 44.780 46.659 C 45.520 49.129, 45.754 54.170, 45.414 60.283 C 45.117 65.621, 45.145 70.425, 45.475 70.960 C 46.102 71.975, 52.462 69.479, 54.753 67.318 C 55.745 66.383, 55.578 66.001, 53.950 65.484 C 52.320 64.967, 52.135 64.542, 53.057 63.432 C 53.959 62.345, 53.747 61.127, 52.109 57.985 C 48.650 51.348, 49.166 49.573, 55.115 47.652 C 57.928 46.743, 61.438 46, 62.915 46 C 66.025 46, 68 44.369, 68 41.800 C 68 39.634, 67.840 39.603, 56.569 39.545 C 49.785 39.511, 47.154 39.889, 45.622 41.119 M 104.655 46.829 C 101.641 50.159, 103.254 54, 107.665 54 C 110.678 54, 112.294 50.905, 111.025 47.565 C 109.875 44.541, 107.024 44.211, 104.655 46.829 M 125.265 45.805 C 123.207 47.128, 122.493 52.868, 124.300 53.562 C 126.262 54.315, 130 52.356, 130 50.576 C 130 48.324, 126.629 44.928, 125.265 45.805 M 139.931 47.683 C 139.060 49.973, 139.277 50.732, 141.417 52.872 C 143.866 55.320, 143.972 55.336, 145.962 53.534 C 148.303 51.416, 148.508 49.254, 146.608 46.750 C 144.567 44.062, 141.124 44.543, 139.931 47.683 M 61.597 59.676 C 60.125 61.148, 59.150 62.948, 59.429 63.676 C 59.709 64.404, 59.277 65, 58.469 65 C 55.762 65, 56.964 67.792, 60.149 68.902 C 64.709 70.492, 67.794 70.253, 68.878 68.228 C 69.845 66.421, 69.594 59.771, 68.492 57.986 C 67.389 56.202, 64.318 56.954, 61.597 59.676 M 104.231 63.750 C 100.948 68.488, 100.839 69.848, 103.595 71.654 C 105.713 73.042, 107.151 73.159, 112.422 72.371 C 116.171 71.811, 120.091 71.790, 122.110 72.320 C 123.974 72.810, 128.200 72.958, 131.500 72.649 C 135.714 72.256, 138.762 72.561, 141.739 73.676 C 145.162 74.958, 146.269 75.022, 147.489 74.009 C 149.699 72.175, 149.390 66.390, 146.952 63.952 L 144.903 61.903 141.875 64.452 C 138.422 67.357, 137.711 67.450, 131.544 65.801 C 127.713 64.776, 126.540 64.849, 123.496 66.301 C 118.837 68.522, 119.034 68.557, 113.136 64.500 C 110.338 62.575, 107.618 61, 107.092 61 C 106.566 61, 105.279 62.237, 104.231 63.750 M 42.629 82.711 C 37.624 84.170, 36.322 87.032, 39.812 88.900 C 41.940 90.038, 70.918 89.843, 72.750 88.677 C 74.680 87.449, 74.234 85.194, 71.750 83.625 C 68.508 81.576, 48.656 80.953, 42.629 82.711 M 45.150 101.319 C 44.178 102.490, 44.133 103.379, 44.966 104.936 C 45.877 106.639, 47.069 107.010, 51.785 107.058 C 54.928 107.089, 59.206 107.294, 61.292 107.514 C 64.551 107.856, 65.242 107.564, 66.214 105.429 C 66.940 103.836, 67 102.600, 66.382 101.982 C 65.852 101.452, 61.149 100.737, 55.929 100.392 C 48.039 99.871, 46.222 100.028, 45.150 101.319 M 109.344 105.871 C 97.813 106.687, 96 107.991, 96 115.464 C 96 118.447, 96.618 121.435, 97.468 122.559 C 98.276 123.626, 98.951 125.376, 98.968 126.446 C 98.986 127.517, 100.094 129.992, 101.431 131.946 C 102.768 133.901, 104.285 137.878, 104.801 140.785 C 105.655 145.591, 105.550 146.202, 103.647 147.535 C 102.497 148.341, 99.518 149.006, 97.027 149.014 C 88.718 149.039, 85.832 150.949, 87.996 154.992 C 90.097 158.919, 95.908 159.646, 132.579 160.570 C 161.756 161.306, 164 161.018, 164 156.536 C 164 151.970, 161.338 150.677, 148.781 149.145 C 144.615 148.636, 143.518 148.130, 143.583 146.750 C 143.629 145.787, 143.742 142.965, 143.833 140.479 C 143.968 136.838, 144.442 135.756, 146.268 134.924 C 150.858 132.833, 152.948 128.104, 153.291 119.035 C 153.574 111.568, 153.367 110.376, 151.393 108.081 C 149.203 105.534, 149.002 105.503, 133.839 105.364 C 125.402 105.286, 114.380 105.514, 109.344 105.871 M 109.250 115.820 C 106.520 116.207, 106.302 118.556, 108.868 119.929 C 110.836 120.983, 137.912 121.355, 140.494 120.364 C 141.322 120.046, 142 118.934, 142 117.893 C 142 116.342, 141.231 115.989, 137.750 115.938 C 135.412 115.904, 128.550 115.791, 122.500 115.688 C 116.450 115.585, 110.487 115.644, 109.250 115.820 M 47.250 117.149 C 45.474 118.926, 45.701 124.061, 47.618 125.463 C 48.874 126.381, 50.384 126.332, 54.368 125.242 C 57.191 124.470, 60.400 123.707, 61.500 123.547 C 62.600 123.387, 63.837 123.198, 64.250 123.128 C 64.662 123.057, 65 121.913, 65 120.585 C 65 118.337, 64.570 118.140, 58.750 117.731 C 55.313 117.489, 51.600 116.978, 50.500 116.595 C 49.338 116.190, 47.977 116.422, 47.250 117.149 M 115.882 133.777 C 115.816 134.175, 115.876 134.950, 116.013 135.500 C 116.150 136.050, 116.541 139.200, 116.881 142.500 L 117.500 148.500 123.065 149 C 126.126 149.275, 129.931 149.274, 131.520 148.998 C 134.342 148.508, 134.415 148.338, 134.638 141.765 C 134.763 138.064, 134.477 134.795, 134.002 134.501 C 132.617 133.645, 116.012 132.982, 115.882 133.777" stroke="none" fill="black" fill-rule="evenodd"/>
</svg>