<svg xmlns="http://www.w3.org/2000/svg" width="256" height="256" viewBox="0 0 256 256" version="1.1">
	<path d="M 127.327 28.250 C 125.814 31.101, 125.161 36.884, 125.025 48.643 C 124.995 51.178, 122.564 52.372, 120.109 51.058 C 118.837 50.378, 118.301 48.681, 118.133 44.812 C 117.959 40.775, 117.340 38.930, 115.554 37.125 C 111.156 32.680, 105 34.864, 105 40.870 C 105 42.239, 104.034 46.358, 102.853 50.025 C 99.254 61.200, 101.954 64.841, 112.842 63.494 C 119.083 62.722, 124 64.294, 124 67.062 C 124 69.828, 122.857 70.034, 116.591 68.398 C 112.051 67.212, 110.523 67.151, 109.370 68.108 C 106.576 70.427, 100.856 81.370, 100.841 84.426 C 100.817 89.424, 98.079 105.176, 96.476 109.544 C 95.076 113.358, 94.669 113.657, 89.327 114.777 C 82.984 116.107, 81.562 115.520, 81.224 111.431 C 81.101 109.950, 80.056 107.209, 78.901 105.340 C 77.142 102.494, 77.014 101.688, 78.111 100.366 C 79.152 99.112, 80.589 98.921, 85.126 99.435 C 89.275 99.904, 91.060 99.728, 91.666 98.790 C 92.345 97.740, 94.497 87.597, 95.175 82.250 C 95.262 81.563, 95.708 81, 96.167 81 C 96.625 81, 96.171 80.171, 95.158 79.158 C 94.063 78.063, 93.056 75.123, 92.676 71.908 C 91.869 65.096, 90.155 63.647, 83.757 64.369 C 80.728 64.711, 77.753 64.377, 75.522 63.445 C 72.766 62.293, 71.038 62.207, 67.335 63.037 C 64.092 63.764, 61.159 63.771, 57.845 63.060 C 54.666 62.378, 52.174 62.363, 50.459 63.016 C 46.087 64.678, 44.267 64.204, 43.193 61.125 C 41.631 56.644, 43.676 53.472, 48.041 53.606 C 53.686 53.779, 68.665 55.675, 69.767 56.356 C 70.328 56.703, 72.396 56.315, 74.362 55.493 C 76.624 54.548, 81.206 54, 86.845 54 C 97.275 54, 99.497 52.736, 96.952 48.252 C 93.841 42.771, 90.681 41.500, 80.165 41.500 L 70.500 41.500 70.380 36.426 C 70.219 29.660, 68.707 27, 65.022 27 C 61.049 27, 59.061 30.033, 59.735 35.063 C 60.595 41.475, 59.122 42.372, 48.980 41.606 C 39.347 40.879, 34.888 41.920, 33.162 45.298 C 31.525 48.502, 30.035 75.872, 29.502 112.531 C 29.169 135.408, 28.649 145.848, 27.681 149.063 C 26.239 153.858, 26.998 157.402, 29.690 158.435 C 31.958 159.305, 36.611 156.366, 37.824 153.297 C 39.748 148.426, 41.183 134.060, 41.483 116.649 C 41.806 97.941, 42.391 96.001, 47.002 98.330 C 48.953 99.316, 49.436 100.239, 49.206 102.546 C 49.045 104.171, 48.687 113.779, 48.412 123.898 C 48.137 134.018, 47.481 143.100, 46.956 144.083 C 45.522 146.761, 45.805 153.594, 47.404 154.921 C 48.384 155.734, 51.508 155.883, 57.742 155.412 C 63.645 154.966, 67.880 155.135, 70.228 155.910 C 74.639 157.366, 88.557 155.872, 90.718 153.711 C 91.984 152.444, 91.769 151.806, 89.014 148.669 C 85.694 144.887, 84.570 141.773, 83.503 133.395 C 82.646 126.671, 84.207 125, 91.344 125 C 95.650 125, 97.172 125.517, 100.195 128.009 C 102.202 129.664, 104.127 132.300, 104.471 133.868 C 105.130 136.867, 102.504 145, 100.877 145 C 99.670 145, 96.008 151.079, 96.004 153.089 C 96 154.759, 99.896 157.001, 102.797 156.999 C 107.943 156.995, 124.476 131.725, 127.516 119.217 C 129.601 110.640, 130.957 109.105, 134.689 111.099 C 136.357 111.991, 136.789 112.602, 135.877 112.781 C 133.085 113.327, 131.696 117.476, 131.213 126.713 C 130.869 133.298, 131.092 136.406, 131.987 137.484 C 133.400 139.187, 137.947 139.449, 142.655 138.099 C 147.029 136.845, 148 138.231, 148 145.732 C 148 153.834, 149.965 158.702, 153.603 159.615 C 157.181 160.513, 160.001 157.217, 159.997 152.139 C 159.996 150.138, 160.738 145.436, 161.647 141.691 C 162.947 136.334, 163.066 134.122, 162.206 131.319 C 160.949 127.225, 162.245 117.913, 164.577 114.285 C 166.795 110.834, 166.320 105.557, 163.408 101.294 C 160.731 97.374, 160.595 94.439, 162.611 84.084 C 163.626 78.868, 160.802 74.456, 155.108 72.363 C 152.574 71.432, 150.072 70.294, 149.550 69.835 C 148.036 68.504, 144.276 68.866, 142.643 70.500 C 140.362 72.781, 138.113 72.298, 137.378 69.369 C 136.588 66.224, 138.638 64.696, 144.039 64.403 C 145.985 64.298, 150.629 62.828, 154.358 61.137 C 160.587 58.313, 161.113 57.837, 160.819 55.289 C 160.605 53.426, 159.597 52.084, 157.750 51.203 C 154.559 49.680, 154.456 48.951, 156.567 42.758 C 157.992 38.574, 157.991 37.883, 156.549 35.094 C 154.591 31.308, 151.061 30.259, 147.696 32.464 C 145.125 34.148, 141.787 39.846, 142.600 41.162 C 142.853 41.571, 143.241 43.727, 143.462 45.954 C 143.790 49.248, 143.485 50.205, 141.825 51.094 C 138.621 52.808, 137.653 50.843, 137.903 43.133 C 138.027 39.314, 137.637 34.367, 137.038 32.140 C 134.988 24.527, 130.299 22.649, 127.327 28.250 M 43.084 76.750 C 42.404 78.813, 41.994 82.300, 42.174 84.500 C 42.437 87.729, 42.922 88.560, 44.689 88.811 C 47.986 89.281, 51.177 85.604, 50.398 82.235 C 49.743 79.402, 45.947 73.019, 44.910 73.007 C 44.586 73.003, 43.764 74.688, 43.084 76.750 M 58.567 80.180 C 56.795 84.392, 57.171 86.212, 60.159 87.904 C 65.706 91.044, 71.345 86.501, 68.567 81.130 C 65.874 75.922, 60.569 75.417, 58.567 80.180 M 78.200 78.200 C 76.296 80.104, 76.692 86.765, 78.776 87.880 C 80.605 88.859, 83.783 87.730, 85.235 85.585 C 88.384 80.933, 82.083 74.317, 78.200 78.200 M 117.209 79.668 C 112.929 81.777, 110 85.574, 110 89.012 C 110 92.638, 111.417 93.654, 118.913 95.403 C 122.369 96.209, 126.049 97.639, 127.089 98.580 C 128.512 99.868, 131.148 100.357, 137.740 100.557 C 148.895 100.894, 150 100.578, 150 97.058 C 150 95.515, 150.591 92.507, 151.313 90.376 C 153.213 84.771, 152.517 83.390, 146.319 80.458 C 139.945 77.442, 139.064 77.815, 137.475 84.196 C 136.911 86.461, 135.743 88.759, 134.880 89.304 C 132.804 90.613, 128 89.355, 128 87.501 C 128 86.698, 127.276 84.231, 126.391 82.020 C 124.573 77.477, 122.653 76.985, 117.209 79.668 M 61 99.692 C 60.175 100.026, 59.175 100.795, 58.777 101.400 C 57.618 103.164, 59.091 113.115, 61.217 117.882 C 63.083 122.068, 63.095 122.462, 61.490 126.665 C 59.675 131.417, 59.027 141.810, 60.269 146.250 C 60.961 148.724, 61.486 149, 65.496 149 C 69.159 149, 70.249 148.550, 71.608 146.475 C 73.063 144.255, 73.111 143.233, 72.004 138.017 C 71.311 134.754, 71.004 131.094, 71.320 129.884 C 71.681 128.505, 71.171 126.762, 69.955 125.215 C 68.028 122.765, 68.029 122.720, 70.166 118.918 C 71.898 115.836, 72.080 114.801, 71.094 113.614 C 69.716 111.953, 69.374 107.548, 70.377 104.386 C 70.785 103.101, 70.513 101.841, 69.677 101.147 C 67.960 99.722, 62.984 98.887, 61 99.692 M 108.526 107.950 C 106.086 112.668, 106.528 116.828, 109.618 118.235 C 111.970 119.307, 112.476 119.148, 114.618 116.658 C 117.525 113.278, 117.668 109.668, 115 107 C 112.220 104.220, 110.310 104.500, 108.526 107.950 M 145.528 114.954 C 144.601 116.454, 146.078 121, 147.492 121 C 148.823 121, 149.936 117.308, 149.237 115.212 C 148.757 113.770, 146.363 113.603, 145.528 114.954" stroke="none" fill="black" fill-rule="evenodd"/>
</svg>