<svg xmlns="http://www.w3.org/2000/svg" width="256" height="256" viewBox="0 0 256 256" version="1.1">
	<path d="M 125.200 26.200 C 123.651 27.749, 123.657 34.152, 125.210 37.562 C 126.257 39.859, 126.163 40.408, 124.519 41.610 C 120.670 44.424, 110.005 42.710, 109.994 39.275 C 109.991 38.299, 109.521 35.816, 108.950 33.758 C 107.775 29.527, 104.644 28.050, 100.994 30.003 C 98.765 31.196, 98.621 33.886, 100.479 39.623 C 101.048 41.380, 100.609 41.941, 97.934 42.873 C 96.156 43.493, 92.853 44, 90.594 44 C 88.335 44, 85.110 44.395, 83.427 44.878 C 79.794 45.919, 75 50.109, 75 52.242 C 75 55.833, 77.364 56.209, 95.294 55.466 C 115.123 54.645, 116.550 54.985, 117.581 60.762 C 118.401 65.362, 121.215 68.586, 125.702 70.067 C 128.023 70.833, 129.008 71.719, 128.790 72.846 C 128.502 74.340, 126.445 74.454, 107.485 74.025 C 80.160 73.406, 72.415 73.491, 67.250 74.463 C 63.296 75.208, 63 75.110, 63 73.065 C 63 71.856, 64.190 69.306, 65.645 67.399 C 68.178 64.078, 68.262 63.571, 67.635 55.411 C 67.026 47.492, 67.157 46.588, 69.490 42.607 C 72.248 37.902, 72.671 34.254, 70.750 31.760 C 67.948 28.124, 62.729 29.650, 60.057 34.888 C 57.749 39.412, 54.158 43.183, 47.091 48.500 C 44.167 50.700, 40.869 53.202, 39.762 54.060 C 37.463 55.843, 37.107 60.219, 39.068 62.582 C 40.002 63.708, 41.276 63.986, 43.443 63.537 C 50.125 62.153, 51.289 62.391, 53.134 65.519 C 55.041 68.752, 54.884 69.360, 50.557 75.487 C 47.537 79.763, 47.865 96.825, 51.128 105.163 C 52.537 108.762, 54.904 109.196, 72.279 109.046 C 80.408 108.975, 87.517 109.201, 88.078 109.548 C 88.752 109.965, 88.701 110.655, 87.926 111.589 C 87.001 112.704, 83.127 113, 69.449 113 C 51.064 113, 49 113.508, 49 118.036 C 49 121.372, 52.307 122, 69.875 122 C 86.538 122, 89.795 122.605, 87.185 125.215 C 86.580 125.820, 79.109 126.415, 69.322 126.636 C 47.126 127.139, 33 128.846, 33 131.025 C 33 131.471, 32.740 132.513, 32.423 133.341 C 32.104 134.172, 32.790 135.790, 33.956 136.956 C 36.100 139.100, 36.564 139.155, 53 139.210 C 57.544 139.226, 77.536 137.564, 84 136.633 C 94.428 135.132, 97.232 134.953, 100.552 135.576 C 102.557 135.952, 103.815 136.539, 103.347 136.880 C 102.880 137.221, 101.861 138.734, 101.084 140.241 C 99.968 142.407, 99.916 143.520, 100.836 145.539 C 101.476 146.944, 102 148.896, 102 149.876 C 102 152.562, 107.953 161.001, 109.844 160.995 C 110.755 160.993, 113.235 159.397, 115.357 157.449 C 119.054 154.053, 119.185 153.718, 118.526 149.326 C 117.553 142.836, 117.180 142.179, 113.469 140.418 C 111.646 139.553, 109.890 138.156, 109.567 137.313 C 109.050 135.968, 110.356 135.863, 120.239 136.461 C 135.784 137.402, 136.048 137.512, 131.606 141.173 C 128.396 143.819, 128.166 144.309, 129.507 145.650 C 130.335 146.478, 131.475 148.019, 132.040 149.075 C 132.605 150.130, 134.951 151.954, 137.253 153.129 C 139.555 154.303, 142.654 156.163, 144.139 157.261 C 146.030 158.659, 147.625 159.060, 149.462 158.599 C 152.924 157.730, 153.502 155.864, 151.987 150.453 C 150.999 146.925, 149.700 145.216, 145.866 142.402 C 143.190 140.437, 141 138.620, 141 138.363 C 141 138.106, 142.238 137.451, 143.750 136.906 C 147.533 135.545, 150.539 131.354, 149.033 129.540 C 147.322 127.478, 139.879 126.170, 125.750 125.449 C 118.737 125.091, 113 124.402, 113 123.918 C 113 122.622, 116.225 122.163, 128.753 121.677 C 140.678 121.214, 143 120.368, 143 116.485 C 143 114.057, 141.308 113, 137.418 113 C 134.105 113, 134.381 111.499, 137.967 110.014 C 141.464 108.565, 141.814 107.581, 141.878 99 C 141.929 92.269, 143.614 78.434, 144.572 76.884 C 144.872 76.398, 147.004 75.986, 149.309 75.968 C 155.002 75.925, 157.125 74.073, 157.740 68.614 C 158.815 59.073, 155.901 56.286, 148.749 60.014 C 145.604 61.653, 143.619 62.035, 140.684 61.565 C 131.610 60.115, 127.882 55.283, 134.149 53.098 C 135.881 52.494, 141.056 52, 145.649 52 C 152.667 52, 154.319 51.681, 156 50 C 158.356 47.644, 158.548 45.129, 156.577 42.441 C 155.361 40.784, 153.912 40.500, 146.664 40.500 C 141.994 40.500, 137.826 40.154, 137.401 39.731 C 136.976 39.308, 136.733 36.946, 136.860 34.481 C 137.048 30.852, 136.617 29.526, 134.592 27.501 C 131.903 24.812, 127.234 24.166, 125.200 26.200 M 122.287 82.511 C 120.553 83.726, 120.239 84.695, 120.685 87.447 C 121.074 89.844, 120.567 92.263, 118.995 95.510 C 117.275 99.064, 117.024 100.424, 117.925 101.325 C 119.377 102.777, 127.521 102.879, 128.938 101.462 C 130.118 100.282, 130.670 83.894, 129.589 82.145 C 128.594 80.534, 124.842 80.722, 122.287 82.511 M 61.930 85.131 C 60.793 87.256, 61.158 96.829, 62.456 98.929 C 62.820 99.518, 65.417 100, 68.227 100 C 71.037 100, 76.143 100.489, 79.573 101.086 C 88.969 102.722, 90.115 101.792, 89.899 92.696 C 89.805 88.702, 89.233 85.173, 88.614 84.765 C 88.001 84.361, 85.785 84.024, 83.689 84.015 L 79.877 84 80.537 88.401 C 81.095 92.118, 80.857 93.143, 79.012 94.988 C 76.504 97.496, 72.760 97.110, 69.609 94.018 C 67.826 92.268, 67.809 91.936, 69.309 88.185 C 70.865 84.298, 70.851 84.194, 68.700 83.617 C 64.802 82.572, 63.095 82.954, 61.930 85.131 M 105.227 84.818 C 103.803 85.745, 103.186 88.061, 102.315 95.750 L 101.720 101 105.926 101 C 108.239 101, 111.044 100.512, 112.160 99.915 C 114.179 98.834, 114.179 98.819, 111.952 96.449 C 109.851 94.213, 109.300 91.187, 110.141 86.500 C 110.532 84.324, 107.552 83.304, 105.227 84.818 M 101.090 110.310 C 97.827 113.573, 101.578 115.567, 108.135 114.055 C 110.536 113.502, 116.438 113.038, 121.250 113.024 C 126.578 113.010, 130 112.597, 130 111.969 C 130 110.411, 128.570 110.196, 114.840 109.688 C 106.434 109.377, 101.815 109.585, 101.090 110.310 M 73.105 142.373 C 72.478 143.129, 72.266 144.530, 72.634 145.487 C 73.001 146.445, 73.393 149.089, 73.506 151.364 C 73.827 157.876, 73.856 157.962, 76.646 160.548 C 79.616 163.300, 82.698 163.672, 85.507 161.619 C 87.059 160.484, 87.419 158.834, 87.526 152.369 C 87.691 142.405, 86.696 141, 79.467 141 C 76.259 141, 73.805 141.530, 73.105 142.373 M 50 143.161 C 47.261 144.110, 40 154.249, 40 157.125 C 40 158.113, 40.963 159.819, 42.139 160.915 C 44.048 162.693, 44.559 162.761, 46.889 161.540 C 50.711 159.538, 58.576 150.912, 59.318 147.908 C 59.826 145.855, 59.495 145.094, 57.729 144.249 C 53.981 142.454, 52.601 142.260, 50 143.161" stroke="none" fill="black" fill-rule="evenodd"/>
</svg>