<svg xmlns="http://www.w3.org/2000/svg" width="256" height="256" viewBox="0 0 256 256" version="1.1">
	<path d="M 112.074 22.411 C 111.430 23.187, 110.658 25.332, 110.359 27.178 C 109.383 33.191, 108.439 33.709, 97.416 34.277 C 83.387 35, 82.359 34.712, 81.709 29.867 C 81.065 25.068, 79.493 23, 76.486 23 C 74.970 23, 74.025 23.747, 73.640 25.250 C 73.322 26.488, 71.936 28.704, 70.559 30.176 C 68.825 32.030, 68.431 33.031, 69.278 33.433 C 69.950 33.753, 66.900 33.787, 62.500 33.509 C 55.711 33.081, 54.008 33.305, 51.250 34.988 C 48.795 36.485, 48 37.675, 48 39.849 C 48 44.037, 54.699 46.512, 63.576 45.602 C 69.596 44.986, 70.008 45.082, 71.579 47.480 C 72.490 48.871, 73.211 51.782, 73.181 53.951 C 73.112 58.938, 76.461 64.086, 80.468 65.153 C 84.536 66.237, 107.308 65.288, 112.166 63.832 C 116.544 62.520, 117.441 61.322, 118.321 55.607 C 118.651 53.465, 119.917 50.653, 121.135 49.357 C 122.988 47.384, 124.339 46.999, 129.424 46.994 C 136.662 46.988, 142.898 45.429, 143.663 43.435 C 144.766 40.562, 143.044 37.392, 139.450 35.678 C 136.287 34.169, 135.102 34.107, 129.919 35.178 C 122.736 36.661, 121.783 36.011, 121.248 29.263 C 120.978 25.859, 120.247 24.007, 118.685 22.772 C 116.018 20.663, 113.633 20.533, 112.074 22.411 M 84.637 48.276 C 83.543 49.076, 83.138 50.196, 83.553 51.276 C 84.124 52.767, 85.739 53, 95.485 53 C 104.283 53, 107.028 52.671, 108 51.500 C 109.048 50.237, 108.677 49.763, 105.654 48.500 C 101.155 46.620, 87.106 46.470, 84.637 48.276 M 57 71.097 C 45.079 71.716, 34.476 74.191, 32.250 76.875 C 30.353 79.163, 30.707 83.773, 32.869 84.930 C 33.896 85.480, 34.909 85.760, 35.119 85.553 C 35.879 84.802, 74.894 83.816, 90.500 84.153 C 118.695 84.763, 149.466 84.340, 154.663 83.272 C 157.030 82.785, 158.463 79.033, 157.473 75.914 C 156.228 71.991, 153.454 71.552, 128 71.248 C 114.525 71.088, 95.625 70.854, 86 70.728 C 76.375 70.603, 63.325 70.769, 57 71.097 M 55.385 89.430 C 52.003 90.907, 50.333 94.836, 51.840 97.771 C 52.328 98.722, 53.020 104.450, 53.377 110.500 C 54.463 128.894, 57.951 137.701, 63.208 135.322 C 65.737 134.177, 70.003 135.485, 69.995 137.403 C 69.986 139.536, 63.904 145, 61.539 145 C 60.241 145, 56.889 146.810, 54.090 149.023 C 43.674 157.256, 50.756 164.450, 62.054 157.113 C 68.883 152.679, 76 145.064, 76 142.191 C 76 141.196, 76.602 139.559, 77.338 138.552 C 78.853 136.481, 79.985 136.437, 99.122 137.705 C 111.969 138.557, 115 139.553, 115 142.922 C 115 143.845, 115.481 145.081, 116.069 145.669 C 116.657 146.257, 117.234 147.389, 117.351 148.184 C 118.187 153.880, 129.763 160.338, 138.767 160.130 C 141.806 160.060, 144.901 159.497, 145.646 158.879 C 147.538 157.308, 147.334 153.612, 145.250 151.726 C 143.031 149.718, 134.420 146, 131.989 146 C 129.423 146, 126.969 143.288, 127.663 141.221 C 127.981 140.274, 129.747 138.095, 131.588 136.377 C 135.640 132.596, 137.102 127.044, 136.909 116.168 C 136.835 111.951, 137.282 105.469, 137.904 101.764 C 139.134 94.429, 138.458 92.072, 134.547 90.076 C 133.287 89.433, 118.275 88.846, 95.500 88.550 C 65.680 88.163, 57.895 88.334, 55.385 89.430 M 64.488 101.019 C 62.785 103.775, 66.463 104.880, 78.370 105.190 C 88.666 105.459, 90.385 105.274, 91.334 103.798 C 91.937 102.862, 92.071 101.737, 91.634 101.298 C 90.276 99.935, 65.317 99.678, 64.488 101.019 M 102.328 101.014 C 100.798 101.622, 100.309 102.467, 100.676 103.870 C 101.392 106.606, 102.554 106.895, 113.568 107.081 C 121.301 107.212, 123.506 106.923, 124.825 105.603 C 126.086 104.342, 126.214 103.562, 125.376 102.231 C 124.475 100.801, 122.563 100.469, 114.393 100.325 C 108.952 100.228, 103.522 100.538, 102.328 101.014 M 66.100 117.380 C 63.605 120.386, 65.183 122.455, 70.511 123.162 C 78.614 124.238, 87.388 124.027, 89 122.718 C 90.696 121.341, 91.449 118.381, 90.277 117.699 C 89.849 117.451, 84.520 116.935, 78.433 116.552 C 69.146 115.967, 67.162 116.100, 66.100 117.380 M 102.640 119.845 C 101.630 120.961, 101.079 122.319, 101.416 122.864 C 102.451 124.539, 108.133 125.852, 116.329 126.310 C 123.811 126.729, 124.206 126.643, 125.247 124.357 C 126.813 120.921, 123.960 119.075, 117 119.021 C 113.975 118.997, 109.920 118.716, 107.988 118.397 C 105.248 117.943, 104.073 118.261, 102.640 119.845" stroke="none" fill="black" fill-rule="evenodd"/>
</svg>