<svg xmlns="http://www.w3.org/2000/svg" width="256" height="256" viewBox="0 0 256 256" version="1.1">
	<path d="M 103.161 27.547 C 102.522 28.948, 102 31.803, 102 33.892 C 102 37.629, 99.725 41, 97.202 41 C 96.575 41, 94.271 40.067, 92.083 38.926 C 88.379 36.996, 87.595 36.938, 80.759 38.086 C 76.719 38.765, 72.141 39.001, 70.587 38.611 C 67.931 37.945, 67.798 37.663, 68.390 33.961 C 68.895 30.803, 68.621 29.621, 67.010 28.010 C 62.633 23.633, 57.202 27.695, 58.309 34.518 C 59.083 39.289, 57.361 40, 45.020 40 C 35.618 40, 34.737 40.172, 32.455 42.455 C 31.105 43.805, 30 45.572, 30 46.383 C 30 48.704, 32.890 50.999, 35.821 51.006 C 40.043 51.014, 46 52.970, 46 54.347 C 46 55.036, 45.475 56.125, 44.834 56.766 C 44.193 57.407, 43.630 60.298, 43.584 63.189 L 43.500 68.446 37.283 70.073 C 29.487 72.113, 27.812 73.460, 28.199 77.377 C 28.684 82.281, 33.695 83.247, 55.500 82.636 C 65.400 82.359, 75.300 81.657, 77.500 81.077 C 80.412 80.308, 82.809 80.346, 86.313 81.216 C 92.406 82.728, 94.387 81.638, 94.817 76.535 C 95.307 70.718, 92.066 67.810, 85.529 68.200 L 80.500 68.500 80.253 64.091 C 80.117 61.666, 79.568 58.096, 79.033 56.158 C 77.750 51.510, 79.090 50, 84.497 50 C 86.835 50, 90.596 49.348, 92.854 48.551 C 98.218 46.659, 99.613 47.964, 100.543 55.749 C 101.247 61.640, 103.919 67.295, 106.744 68.876 C 107.666 69.392, 109.623 69.395, 111.409 68.883 C 113.102 68.397, 120.241 68, 127.275 68 C 138.018 68, 140.160 68.253, 140.670 69.583 C 141.016 70.483, 140.462 71.977, 139.389 73.043 C 137.716 74.705, 135.577 74.951, 120.709 75.189 C 98.998 75.538, 99.833 74.857, 99.866 92.183 C 99.880 98.996, 100.347 108.379, 100.906 113.035 C 101.464 117.691, 101.890 126.467, 101.853 132.537 C 101.781 144.023, 103.459 150.373, 107 152.015 C 107.825 152.398, 111.650 154.222, 115.500 156.070 C 121.663 159.028, 123.685 159.478, 132.412 159.838 C 156.293 160.821, 163.659 154.177, 156.069 138.500 C 153.379 132.943, 153.276 132.325, 154.681 130.134 C 156.044 128.009, 156.036 127.607, 154.598 126.170 C 153.298 124.870, 150.987 124.614, 142.250 124.805 C 136.337 124.933, 129.220 125.400, 126.434 125.841 C 121.060 126.692, 117 125.638, 117 123.392 C 117 121.831, 120.212 121.285, 133.708 120.551 C 144.796 119.948, 147.771 119.049, 152.794 114.782 L 156.088 111.984 153.294 110.885 C 150.772 109.893, 144.751 109.970, 120 111.310 C 117.103 111.467, 116.500 111.155, 116.500 109.500 C 116.500 107.662, 117.560 107.405, 129.613 106.321 C 136.825 105.672, 144.362 104.458, 146.361 103.623 C 149.927 102.132, 153.051 97.716, 151.577 96.246 C 150.797 95.467, 135.233 95.387, 121.510 96.090 L 113.520 96.500 112.586 92.758 C 112.072 90.700, 111.842 88.844, 112.076 88.634 C 112.309 88.425, 120.310 88.024, 129.856 87.743 C 145.124 87.294, 147.529 86.994, 149.856 85.250 C 152.241 83.462, 152.481 82.691, 152.306 77.384 C 152.199 74.148, 152.068 68.815, 152.014 65.533 C 151.860 56.051, 151.752 56, 131.880 56 C 115.920 56, 115.015 55.896, 113.966 53.936 C 111.874 50.027, 114.025 49.249, 128.789 48.575 C 148.842 47.659, 152.900 47.100, 155.044 44.956 C 157.725 42.275, 155.984 37.539, 151.778 36.073 C 147.733 34.662, 134.590 34.705, 124.160 36.163 C 115.150 37.422, 114.049 37.012, 114.015 32.385 C 113.970 26.160, 105.510 22.389, 103.161 27.547 M 57.391 52.979 C 55.893 53.584, 55.082 55.085, 54.591 58.165 C 54.210 60.549, 53.217 63.543, 52.383 64.817 C 49.726 68.876, 51.989 70.123, 61.404 69.788 L 69.500 69.500 69.348 66.500 C 68.717 54.056, 65.034 49.890, 57.391 52.979 M 39.250 89.975 C 37.844 91.289, 36.987 93.283, 36.965 95.289 C 36.945 97.055, 36.527 104.350, 36.035 111.500 C 34.922 127.679, 36.774 155.612, 39.055 157.055 C 43.600 159.931, 46.553 156.442, 47.564 147 C 47.947 143.425, 48.667 139.986, 49.164 139.357 C 49.661 138.728, 52.640 138.176, 55.784 138.129 C 58.928 138.082, 63.715 137.627, 66.421 137.119 C 72.540 135.969, 74.004 136.499, 73.985 139.857 C 73.965 143.294, 73.185 144.370, 69.250 146.386 C 65.362 148.378, 64.950 151.765, 67.989 156.750 C 69.737 159.617, 70.485 160, 74.330 160 C 82.527 160, 84.737 154.412, 85.994 130.500 C 88.072 90.995, 88.070 91.303, 86.320 89.848 C 85.097 88.832, 79.375 88.423, 63.099 88.186 C 42.304 87.884, 41.416 87.951, 39.250 89.975 M 48.046 100.354 C 46.561 101.839, 46.751 104.549, 48.438 105.948 C 49.389 106.738, 51.439 106.907, 54.501 106.448 C 57.250 106.035, 61.600 106.278, 65.218 107.046 C 71.141 108.303, 71.359 108.275, 73.201 106 C 74.243 104.714, 74.961 102.742, 74.797 101.619 C 74.517 99.692, 73.774 99.568, 61.796 99.442 C 54.108 99.362, 48.678 99.722, 48.046 100.354 M 48.394 118.416 C 48.095 119.194, 47.997 121.107, 48.175 122.666 C 48.446 125.031, 48.955 125.490, 51.250 125.438 C 73.954 124.922, 73.737 124.960, 74.434 121.341 C 75.205 117.342, 73.612 116.459, 67.806 117.669 C 64.507 118.356, 60.609 118.461, 57.500 117.947 C 50.322 116.759, 49.004 116.827, 48.394 118.416 M 132.500 136.001 C 131.400 136.474, 127.786 136.615, 124.468 136.315 C 119.549 135.869, 118.175 136.084, 117.017 137.480 C 115.789 138.959, 115.793 139.541, 117.049 141.779 C 118.264 143.944, 119.645 144.559, 125.501 145.546 C 139.546 147.912, 144.629 148.152, 145.988 146.514 C 146.679 145.681, 146.942 145, 146.572 145 C 146.201 145, 147.138 143.374, 148.654 141.387 C 151.320 137.891, 151.348 137.728, 149.514 136.387 C 147.402 134.842, 135.805 134.579, 132.500 136.001" stroke="none" fill="black" fill-rule="evenodd"/>
</svg>