<svg xmlns="http://www.w3.org/2000/svg" width="200" height="200" viewBox="0 0 200 200" version="1.1">
	<path d="M 92.300 74.926 C 79.154 78.140, 73.826 85.026, 73.674 99 C 73.587 107.092, 74.721 110.251, 80.232 117.263 C 84.671 122.912, 90.901 126.142, 98.540 126.755 C 104.316 127.219, 105.667 126.946, 111.286 124.180 C 114.742 122.478, 118.596 119.995, 119.849 118.661 C 122.353 115.995, 127.153 105.056, 126.372 103.793 C 125.311 102.077, 124.274 103.226, 122.058 108.573 C 118.929 116.123, 116.010 119.319, 109.809 121.987 C 92.742 129.329, 74.368 115.285, 76.304 96.378 C 76.886 90.703, 79.647 84.531, 82.935 81.558 C 84.935 79.749, 97.978 75.719, 98.927 76.617 C 99.988 77.620, 93.309 83.039, 90.320 83.600 C 88.052 84.025, 85.973 85.509, 83.800 88.253 C 80.948 91.853, 80.607 92.985, 80.587 98.891 C 80.559 107.239, 83.309 112.907, 89.187 116.618 C 97.065 121.591, 105.713 121.056, 112.216 115.193 C 124.957 103.707, 121.041 84.772, 105.250 81.512 C 102.870 81.021, 102 80.297, 102 78.809 C 102 77.007, 102.419 76.856, 105.703 77.472 C 116.073 79.417, 121.858 85.526, 124.434 97.250 C 125.185 100.667, 127 100.870, 127 97.538 C 127 93.180, 123.100 84.485, 119.752 81.379 C 116.440 78.306, 110.897 75.640, 105.500 74.525 C 103.850 74.184, 101.825 73.739, 101 73.536 C 100.175 73.332, 96.260 73.958, 92.300 74.926 M 96.986 83.516 C 96.313 84.327, 93.991 85.522, 91.825 86.171 C 83.972 88.523, 80.861 98.156, 84.912 107.574 C 86.593 111.481, 87.982 113.024, 91.496 114.889 C 103.478 121.245, 117 112.784, 117 98.930 C 117 91.632, 112.070 85.724, 104.834 84.351 C 103 84.003, 100.760 83.341, 99.855 82.880 C 98.775 82.330, 97.789 82.549, 96.986 83.516" stroke="none" fill="black" fill-rule="evenodd"/>
</svg>