<svg xmlns="http://www.w3.org/2000/svg" width="200" height="200" viewBox="0 0 200 200" version="1.1">
	<path d="M 63.281 14.352 C 62.992 14.821, 63.069 20.040, 63.452 25.951 C 63.862 32.270, 63.687 40.984, 63.028 47.099 C 61.276 63.351, 62.972 61.543, 48.267 62.834 C 27.910 64.621, 22.688 65.407, 22.245 66.750 C 21.931 67.703, 24.666 68, 33.763 68 C 40.324 68, 49.723 68.286, 54.650 68.636 L 63.607 69.272 61.816 83.386 C 60.831 91.149, 58.924 102.900, 57.579 109.500 C 53.085 131.549, 42.599 150.607, 20.750 176.435 C 14.429 183.908, 12.726 187, 14.933 187 C 15.446 187, 22.187 183.901, 29.912 180.112 C 48.158 171.165, 58.591 162.183, 70.624 145.060 C 77.429 135.378, 79.482 131.469, 83.264 121 C 87.398 109.558, 87.842 107.413, 88.516 95.657 L 89.251 82.815 95.264 75.157 C 98.571 70.946, 101.633 67.105, 102.067 66.621 C 102.913 65.680, 105.722 67.645, 112.622 74.006 L 116.929 77.976 116.095 118.738 L 115.261 159.500 123.380 169.338 L 131.500 179.176 147 178.617 C 162.366 178.063, 162.608 178.018, 175 173.434 C 181.875 170.891, 187.637 168.679, 187.804 168.518 C 187.972 168.356, 186.320 162.212, 184.134 154.862 C 181.098 144.653, 180.001 138.964, 179.484 130.750 C 178.539 115.730, 177.261 116.389, 171.302 134.973 L 166.500 149.946 155.876 149.973 L 145.252 150 144.745 123.250 C 144.364 103.135, 144.613 93.150, 145.751 82.994 L 147.264 69.489 142.164 59.326 L 137.064 49.163 126.282 53.775 C 116.854 57.808, 114.072 58.526, 104.129 59.496 L 92.758 60.604 93.480 37.949 L 94.202 15.295 79.004 14.397 C 70.645 13.904, 63.570 13.883, 63.281 14.352 M 66.083 30.341 C 66.206 42.151, 64.622 62.647, 63.496 63.824 C 63.325 64.002, 60.107 64.505, 56.343 64.942 L 49.500 65.737 57.583 65.869 C 62.029 65.941, 65.879 66.212, 66.138 66.471 C 66.945 67.278, 63.143 95.858, 60.448 109.238 C 56.693 127.891, 49.394 143.467, 36.126 161.149 C 30.616 168.492, 24.678 176.201, 22.932 178.281 L 19.756 182.062 30.839 176.623 C 45.898 169.232, 57.316 159.346, 67.359 145 C 76.336 132.178, 76.128 132.573, 80.923 119.290 C 84.296 109.946, 84.962 106.650, 85.893 94.691 L 86.968 80.882 93.161 73.191 C 96.568 68.961, 99.834 64.873, 100.419 64.106 C 101.309 62.941, 100.529 62.791, 95.654 63.196 L 89.824 63.679 90.545 40.940 L 91.265 18.202 82.383 17.580 C 77.497 17.238, 71.798 16.783, 69.718 16.570 L 65.936 16.182 66.083 30.341 M 125.047 57.156 C 119.612 59.461, 113.051 61.449, 109.612 61.833 L 103.629 62.500 111.756 69.500 L 119.882 76.500 119.432 98 C 119.185 109.825, 118.752 128.275, 118.471 139 L 117.960 158.500 125.230 167.225 L 132.500 175.950 146.169 175.975 L 159.838 176 172.303 171.436 L 184.768 166.871 181.328 155.686 C 179.166 148.652, 177.664 141.345, 177.284 136 L 176.678 127.500 172.490 140 L 168.303 152.500 155.540 152.305 C 148.520 152.198, 142.622 151.956, 142.434 151.767 C 141.431 150.764, 141.955 91.100, 143.055 81 L 144.307 69.500 140.143 61.250 C 137.852 56.712, 135.645 53.033, 135.239 53.074 C 134.832 53.114, 130.246 54.951, 125.047 57.156" stroke="none" fill="black" fill-rule="evenodd"/>
</svg>