<svg xmlns="http://www.w3.org/2000/svg" width="200" height="200" viewBox="0 0 200 200" version="1.1">
	<path d="M 89.702 16.244 C 89.445 16.935, 91.745 20.078, 94.815 23.229 L 100.396 28.958 92.948 26.858 C 88.852 25.704, 81.328 23.522, 76.228 22.011 C 70.419 20.289, 66.725 19.636, 66.338 20.263 C 65.997 20.813, 66.472 21.684, 67.391 22.199 C 68.311 22.714, 74.455 31.204, 81.045 41.067 C 87.635 50.930, 93.378 59, 93.807 59 C 94.476 59, 112.806 51.923, 119.851 48.945 C 122.171 47.964, 122.126 47.865, 116.351 41.277 C 113.133 37.607, 111.324 34.918, 112.332 35.302 C 113.339 35.686, 114.764 36, 115.499 36 C 116.233 36, 123.246 40.238, 131.084 45.417 L 145.333 54.834 132.043 59.024 L 118.752 63.214 100.376 62.851 C 87.400 62.594, 82 62.812, 82 63.593 C 82 64.827, 95.992 65.998, 110.500 65.977 C 118.444 65.965, 121.286 65.401, 134.730 61.169 C 143.106 58.531, 150.202 56.131, 150.498 55.835 C 150.794 55.539, 146.070 52.013, 140 48 C 133.930 43.987, 129.107 40.560, 129.281 40.386 C 129.455 40.211, 134.624 41.562, 140.767 43.388 C 155.589 47.792, 159.631 50.972, 162.762 60.693 C 163.993 64.515, 165 68.088, 165 68.632 C 165 69.242, 157.251 68.725, 144.855 67.289 C 133.776 66.006, 124.619 65.078, 124.506 65.228 C 122.968 67.265, 109.838 88.300, 109.522 89.230 C 109.286 89.929, 111.942 96.800, 115.426 104.500 L 121.759 118.500 116.259 129.473 L 110.759 140.447 112.429 157.473 C 113.348 166.838, 114.311 175.513, 114.569 176.750 L 115.038 179 89.269 178.809 C 72.944 178.687, 66.982 178.412, 73 178.059 L 82.500 177.500 84.663 164.500 C 85.853 157.350, 87.111 148.800, 87.460 145.500 L 88.093 139.500 81.297 128.791 C 74.963 118.811, 74.278 118.078, 71.250 118.041 C 69.463 118.018, 68 117.646, 68 117.214 C 68 116.782, 72.725 112.913, 78.500 108.618 C 86.298 102.818, 88.986 100.254, 88.946 98.654 C 88.917 97.469, 87.426 89.553, 85.632 81.062 C 83.452 70.737, 81.896 65.471, 80.936 65.162 C 80.146 64.908, 79.272 64.356, 78.994 63.936 C 78.716 63.515, 69.266 63.057, 57.994 62.917 L 37.500 62.663 37.792 67.040 C 37.952 69.447, 38.178 71.511, 38.293 71.627 C 38.409 71.742, 47.617 70.900, 58.756 69.756 C 69.894 68.611, 79.270 67.937, 79.592 68.258 C 80.263 68.929, 86 95.493, 86 97.928 C 86 99.575, 69.718 112.403, 65.714 113.910 C 64.496 114.369, 58.100 115.053, 51.500 115.431 C 36.325 116.299, 33 116.871, 33 118.611 C 33 119.748, 36.578 120.005, 52.750 120.028 L 72.500 120.056 78.750 129.901 C 82.188 135.316, 85.002 140.816, 85.005 142.123 C 85.012 145.698, 80.760 173.399, 80.086 174.171 C 79.764 174.540, 66 175.582, 49.500 176.486 C 17.844 178.221, 15 178.504, 15 179.929 C 15 181.553, 30.833 181.986, 99.660 182.244 L 167.821 182.500 172.660 174.514 C 175.322 170.121, 177.650 166.184, 177.833 165.764 C 178.017 165.344, 171.555 165, 163.474 165 L 148.781 165 133.309 170.585 C 124.799 173.657, 117.674 176.007, 117.476 175.809 C 117.277 175.611, 116.339 167.585, 115.390 157.974 L 113.666 140.500 118.948 130 C 121.853 124.225, 124.337 119.379, 124.467 119.231 C 124.598 119.083, 134.334 120.092, 146.103 121.473 C 157.871 122.855, 168.256 123.988, 169.179 123.992 C 170.442 123.998, 168.952 120.774, 163.179 111.007 C 158.956 103.861, 155.201 98.011, 154.837 98.007 C 154.472 98.003, 147.583 101.825, 139.529 106.500 C 131.475 111.175, 124.525 115, 124.086 115 C 123.647 115, 120.737 109.357, 117.619 102.459 L 111.950 89.918 118.145 80.209 C 121.552 74.869, 124.852 69.927, 125.478 69.227 C 126.396 68.201, 130.664 68.427, 147.553 70.399 C 159.068 71.744, 168.645 72.688, 168.835 72.498 C 169.025 72.308, 167.677 67.551, 165.840 61.926 C 162.641 52.129, 162.279 51.531, 157.243 47.724 C 152.881 44.426, 149.223 42.953, 135.743 39.066 C 119.746 34.453, 119.295 34.245, 106 25.373 C 89.170 14.142, 90.259 14.752, 89.702 16.244 M 83.050 39.158 C 88.662 47.596, 93.550 54.830, 93.911 55.234 C 94.273 55.638, 99.889 53.891, 106.393 51.352 L 118.219 46.736 111.348 39.865 L 104.477 32.994 90.853 29.101 C 83.359 26.959, 76.242 24.894, 75.037 24.512 C 73.363 23.980, 75.255 27.439, 83.050 39.158 M 103.836 28.270 C 105.121 29.668, 107.146 31.061, 108.336 31.366 C 110.346 31.881, 110.322 31.779, 108 29.932 C 106.625 28.838, 104.600 27.445, 103.500 26.836 C 101.779 25.883, 101.825 26.083, 103.836 28.270 M 40 67.125 C 40 68.914, 40.438 69.162, 42.771 68.696 C 44.296 68.391, 49.583 67.783, 54.521 67.344 L 63.500 66.547 57.500 65.882 C 54.200 65.516, 48.913 65.168, 45.750 65.109 C 40.520 65.010, 40 65.192, 40 67.125 M 140.059 109.284 L 127.619 116.500 142.059 118.181 C 150.002 119.106, 158.611 120.131, 161.191 120.458 L 165.882 121.053 160.285 111.527 C 157.207 106.287, 154.196 102.015, 153.594 102.034 C 152.992 102.053, 146.902 105.315, 140.059 109.284 M 133 173.564 L 118.500 178.893 125.590 178.946 C 129.490 178.976, 140.120 179.293, 149.212 179.652 L 165.744 180.304 169.372 174.633 C 171.367 171.513, 173 168.745, 173 168.481 C 173 168.216, 167.262 168.053, 160.250 168.117 L 147.500 168.234 133 173.564" stroke="none" fill="black" fill-rule="evenodd"/>
</svg>