<svg xmlns="http://www.w3.org/2000/svg" width="200" height="200" viewBox="0 0 200 200" version="1.1">
	<path d="M 96.229 26.473 C 92.528 32.233, 86.507 41.611, 82.850 47.313 L 76.199 57.681 60.646 57.208 C 45.903 56.760, 44.649 56.874, 36.547 59.400 C 30.910 61.157, 28 62.564, 28 63.532 C 28 64.790, 32.354 65, 58.500 65 C 84.944 65, 89 64.801, 89 63.500 C 89 62.208, 85.500 61.991, 63.750 61.937 C 45.155 61.890, 39.159 61.597, 41 60.824 C 42.375 60.247, 51.337 59.713, 60.916 59.637 L 78.332 59.500 90.209 41 C 96.741 30.825, 102.495 21.825, 102.994 21 C 103.741 19.768, 104.625 20.216, 107.935 23.500 L 111.966 27.500 111.005 43.438 C 110.476 52.205, 110.274 59.607, 110.555 59.888 C 110.836 60.169, 117.464 59.183, 125.283 57.696 C 137.488 55.374, 153.820 53, 157.582 53 C 158.252 53, 159.220 56.687, 159.949 62.021 L 161.181 71.042 151.841 81.181 C 130.338 104.523, 107.632 121.023, 82.268 131.740 L 67 138.192 67 145.596 C 67 149.668, 67.210 153, 67.466 153 C 67.722 153, 75.259 154.084, 84.216 155.409 C 98.629 157.542, 105.015 157.873, 139.800 158.292 C 161.415 158.553, 179.314 158.981, 179.577 159.243 C 179.839 159.506, 177.671 163.939, 174.759 169.096 C 168.331 180.477, 170.878 179.701, 137 180.605 C 114.629 181.202, 111.296 181.067, 98.639 179.044 L 84.779 176.829 73.833 168.789 L 62.888 160.748 56.110 147.220 L 49.331 133.691 45.008 145.595 C 36.841 168.079, 37.934 166.202, 31.502 168.788 C 28.345 170.057, 25.570 170.904, 25.336 170.669 C 25.102 170.435, 25.227 166.251, 25.615 161.372 L 26.321 152.500 31.410 148.126 C 34.210 145.720, 40.809 139.796, 46.075 134.962 L 55.650 126.172 57.859 133.679 L 60.067 141.186 63.784 138.406 C 85.531 122.138, 95.756 112.691, 114.013 92 C 118.623 86.775, 123.478 81.302, 124.800 79.838 L 127.206 77.176 125.434 68.975 L 123.662 60.774 108.081 61.495 C 92.030 62.238, 91 62.398, 91 64.152 C 91 64.849, 95.648 64.956, 105.250 64.479 C 113.088 64.091, 119.898 63.711, 120.384 63.636 C 121.149 63.518, 123.837 72.506, 123.958 75.583 C 124.011 76.955, 100.633 103.166, 90.869 112.680 C 83.897 119.474, 63.424 136, 61.980 136 C 61.610 136, 60.323 132.608, 59.118 128.462 L 56.928 120.924 44.788 132.212 C 38.111 138.421, 30.520 145.525, 27.920 148 L 23.191 152.500 22.619 163.750 C 22.184 172.299, 22.341 174.983, 23.273 174.929 C 23.948 174.890, 27.875 173.414, 32 171.648 L 39.500 168.437 44.650 154.468 L 49.800 140.500 55.150 151.470 L 60.500 162.439 72.375 171.085 L 84.250 179.732 99.833 182.017 C 113.696 184.050, 117.628 184.230, 135.458 183.649 C 146.481 183.290, 158.943 182.710, 163.151 182.361 L 170.802 181.726 177.907 169.113 L 185.012 156.500 143.756 155.898 C 108.173 155.378, 100.259 154.977, 86.205 152.982 L 69.910 150.669 70.205 145.211 L 70.500 139.752 85 133.550 C 109.394 123.116, 131.367 107.041, 153.346 83.549 L 163.998 72.164 162.817 62.097 C 162.167 56.559, 161.352 51.569, 161.004 51.007 C 160.188 49.686, 137.171 52.111, 123.593 54.949 C 118.144 56.088, 113.543 56.877, 113.369 56.702 C 113.195 56.528, 113.430 49.661, 113.891 41.443 L 114.730 26.500 109.649 21.250 C 106.855 18.362, 104.206 16, 103.764 16 C 103.321 16, 99.931 20.713, 96.229 26.473" stroke="none" fill="black" fill-rule="evenodd"/>
</svg>