<svg xmlns="http://www.w3.org/2000/svg" width="200" height="200" viewBox="0 0 200 200" version="1.1">
	<path d="M 153.782 18.415 C 149.651 24.681, 149.123 25.087, 138.778 29.955 L 128.056 35 110.778 35.001 C 92.114 35.002, 41.647 36.571, 28.250 37.567 C 22.107 38.023, 20 38.540, 20 39.590 C 20 41.179, 23.206 41.264, 41.751 40.166 C 50.525 39.647, 53.001 39.779, 53.001 40.769 C 53 41.564, 53.840 41.854, 55.250 41.546 C 56.487 41.276, 62 40.570, 67.500 39.978 C 73 39.385, 78.889 38.662, 80.587 38.369 L 83.674 37.839 84.878 46.445 L 86.082 55.052 77.337 67.276 C 64.526 85.184, 53.181 97.610, 38.272 110.062 C 27.741 118.858, 24.630 122.048, 23.010 125.710 C 21.891 128.239, 21.177 130.510, 21.422 130.755 C 22.613 131.946, 52.192 116.307, 62.537 109.017 C 68.843 104.572, 74.598 100.708, 75.326 100.428 C 77.200 99.709, 86.005 103.667, 85.975 105.214 C 85.961 105.922, 85.531 119.404, 85.018 135.175 L 84.086 163.850 88.046 175.675 C 90.223 182.179, 92.219 188.073, 92.480 188.773 C 92.785 189.589, 96.992 186.936, 104.227 181.365 C 110.427 176.591, 115.786 172.418, 116.135 172.092 C 116.484 171.767, 116.155 164.525, 115.405 156 C 114.412 144.727, 114.213 132.250, 114.675 110.250 L 115.311 80 120.905 80.044 C 126.299 80.086, 134.631 81.298, 135.500 82.167 C 135.732 82.398, 134.980 85.142, 133.831 88.263 L 131.740 93.939 137.791 100.719 C 147.597 111.709, 153.843 117.278, 165.424 125.361 C 171.432 129.555, 176.493 132.840, 176.671 132.662 C 176.986 132.347, 180.880 100.598, 180.627 100.401 C 180.557 100.346, 175.127 96.562, 168.560 91.992 C 155.871 83.162, 154.746 82.617, 145.708 80.925 C 140.416 79.934, 139.974 79.653, 140.589 77.670 C 140.959 76.477, 143.954 67.737, 147.243 58.250 L 153.225 41 157.362 41.007 C 164.292 41.019, 187.448 38.783, 188.298 38.020 C 188.737 37.626, 182.306 32.699, 174.007 27.070 C 161.835 18.816, 159.030 16.482, 159.499 15.003 C 159.819 13.994, 159.628 12.888, 159.073 12.545 C 158.518 12.202, 156.138 14.844, 153.782 18.415 M 155.184 23.496 C 154.556 24.873, 153.600 26, 153.059 26 C 152.517 26, 150.221 28.729, 147.956 32.065 L 143.837 38.130 147.668 37.815 C 151.490 37.501, 151.507 37.480, 154.265 29.598 C 156.958 21.899, 157.475 18.467, 155.184 23.496 M 157.249 29.269 C 154.599 36.546, 154.440 37.568, 155.876 38.084 C 157.813 38.780, 179.569 36.792, 180.512 35.832 C 181.022 35.313, 169.965 27.176, 161.404 21.769 C 160.628 21.280, 159.257 23.754, 157.249 29.269 M 138 33.500 C 131.719 36.788, 131.110 36.905, 119.906 36.951 C 113.529 36.978, 103.466 37.296, 97.544 37.659 L 86.778 38.318 87.465 44.409 C 87.844 47.759, 88.366 51.625, 88.626 53 C 88.996 54.958, 87.033 58.383, 79.579 68.784 C 66.799 86.620, 54.547 100.047, 39.620 112.575 C 32.800 118.299, 26.971 123.633, 26.666 124.427 C 25.557 127.317, 49.276 114.984, 62.112 105.997 C 69.179 101.049, 75.477 97, 76.106 97 C 76.735 97, 79.881 98.181, 83.097 99.624 L 88.943 102.248 88.497 107.874 C 88.252 110.968, 87.809 125.050, 87.514 139.167 L 86.976 164.834 90.515 174.611 C 92.461 179.988, 94.244 184.577, 94.477 184.810 C 94.709 185.043, 99.085 181.959, 104.200 177.958 C 109.315 173.956, 113.570 170.642, 113.656 170.591 C 113.742 170.541, 113.292 163.525, 112.656 155 C 111.922 145.158, 111.683 125.598, 112 101.414 L 112.500 63.328 120.890 50.664 L 129.280 38 135.007 38 C 140.581 38, 140.805 37.893, 143.381 34 C 144.837 31.800, 145.684 30.022, 145.264 30.049 C 144.844 30.075, 141.575 31.628, 138 33.500 M 122.750 52.811 C 115.269 64.174, 115 64.790, 115 70.537 L 115 76.491 126.500 59.258 C 132.825 49.781, 138 41.795, 138 41.513 C 138 41.231, 136.313 41.009, 134.250 41.019 C 130.573 41.038, 130.348 41.269, 122.750 52.811 M 130.091 58.864 L 118.155 76.727 125.328 77.494 C 129.272 77.915, 133.562 78.314, 134.860 78.380 C 137.034 78.491, 137.673 77.201, 142.975 62 C 146.141 52.925, 149.046 44.487, 149.433 43.250 C 150.081 41.171, 149.826 41, 146.081 41 L 142.027 41 130.091 58.864 M 136.736 88.146 C 134.764 94.312, 134.452 93.728, 146.143 105.706 C 153.324 113.064, 173.530 128.862, 174.458 127.846 C 175.014 127.235, 177.760 102.526, 177.351 101.810 C 177.134 101.430, 171.929 97.644, 165.785 93.396 C 156.951 87.288, 153.345 85.399, 148.557 84.371 C 138.772 82.270, 138.597 82.325, 136.736 88.146" stroke="none" fill="black" fill-rule="evenodd"/>
</svg>