<svg xmlns="http://www.w3.org/2000/svg" width="200" height="200" viewBox="0 0 200 200" version="1.1">
	<path d="M 54.062 34.250 C 48.424 60.279, 37.749 84.968, 21.889 108.666 C 16.981 116, 13.205 122, 13.499 122 C 13.793 122, 18.976 119.521, 25.017 116.492 C 32.014 112.982, 36 110.412, 36 109.408 C 36 108.542, 35.663 107.987, 35.250 108.174 C 34.837 108.361, 31.700 109.974, 28.279 111.757 C 24.857 113.541, 21.808 115, 21.503 115 C 21.198 115, 23.611 111.040, 26.866 106.200 C 39.421 87.527, 51.863 58.044, 56.594 35.750 C 58.082 28.738, 59.690 23, 60.165 23 C 60.641 23, 66.316 25.650, 72.776 28.888 L 84.522 34.776 86.261 41.302 C 87.217 44.891, 88 48.285, 88 48.843 C 88 49.401, 84.025 53.257, 79.166 57.413 C 71.667 63.826, 69.292 66.671, 63.450 76.234 C 58.185 84.852, 54.503 89.466, 47.784 95.864 C 42.953 100.464, 39 104.626, 39 105.114 C 39 107.207, 41.428 105.495, 49.923 97.410 C 56.864 90.805, 60.500 86.276, 65.661 77.810 C 71.107 68.875, 73.822 65.566, 80.063 60.261 C 89.776 52.006, 91.861 51.691, 98.526 57.473 L 103.384 61.688 98.553 75.594 C 89.123 102.742, 84.395 113.402, 76.544 125.221 C 61.692 147.582, 48.358 160.470, 24 176.009 C 10.488 184.630, 10.600 184.543, 11.379 185.804 C 11.749 186.403, 16.935 185.523, 24.742 183.536 C 49.580 177.216, 75.670 162.132, 93.753 143.638 C 101.708 135.502, 105.254 130.834, 111.711 120 C 116.136 112.575, 120.691 104.700, 121.834 102.500 C 122.977 100.300, 123.931 98.845, 123.956 99.267 C 123.980 99.688, 124.915 105.763, 126.033 112.767 C 129.171 132.419, 133.604 145.057, 143.253 161.859 L 151.500 176.217 158.239 179.062 L 164.978 181.906 173.158 171.703 C 177.657 166.091, 181.763 160.943, 182.281 160.262 C 182.923 159.420, 182.205 157.437, 180.034 154.053 C 177.491 150.090, 174.272 147.382, 164.172 140.712 C 151.762 132.517, 151.353 132.128, 144.397 121.922 C 139.701 115.032, 135.657 107.479, 132.464 99.635 L 127.633 87.770 131.817 75.095 C 135.477 64.005, 135.999 61.299, 135.995 53.460 L 135.991 44.500 125.643 39.250 C 119.951 36.362, 115.026 34, 114.697 34 C 114.368 34, 109.498 37.330, 103.875 41.399 C 92.737 49.459, 90.802 49.759, 89.574 43.619 C 87.410 32.798, 88.159 33.594, 72.971 25.985 C 65.302 22.143, 58.653 19, 58.196 19 C 57.739 19, 55.879 25.863, 54.062 34.250 M 105.500 43.535 C 100.550 47.096, 96.367 50.404, 96.205 50.888 C 96.044 51.371, 98.233 53.799, 101.072 56.282 L 106.233 60.797 102.508 72.148 C 90.682 108.183, 82.696 123.767, 65.357 144.645 C 55.819 156.130, 42.080 167.927, 27.750 176.936 C 24.038 179.270, 21 181.334, 21 181.523 C 21 182.757, 39.474 176.342, 49.204 171.730 C 75.934 159.059, 96.417 140.808, 110.104 117.467 C 121.849 97.438, 125.449 90.634, 125.187 88.962 C 125.054 88.116, 126.758 81.755, 128.973 74.827 C 132.308 64.394, 133 60.839, 133 54.125 L 133 46.020 124.020 41.510 C 119.081 39.030, 114.918 37.014, 114.770 37.031 C 114.621 37.048, 110.450 39.975, 105.500 43.535 M 126 93.250 C 126 94.121, 127.085 101.734, 128.412 110.167 C 131.758 131.440, 135.510 142.543, 145.131 159.646 C 152.797 173.275, 153.267 173.869, 157.980 175.896 C 160.670 177.053, 163.301 178, 163.826 178 C 164.352 178, 168.216 173.730, 172.413 168.512 L 180.044 159.024 177.315 154.900 C 175.386 151.985, 170.988 148.438, 162.302 142.793 C 150.264 134.969, 149.870 134.595, 142.618 124.106 C 137.833 117.185, 133.714 109.708, 130.966 102.951 C 126.325 91.542, 126 90.907, 126 93.250" stroke="none" fill="black" fill-rule="evenodd"/>
</svg>