<svg xmlns="http://www.w3.org/2000/svg" width="200" height="200" viewBox="0 0 200 200" version="1.1">
	<path d="M 144.986 27.745 L 135.500 40.500 117.750 40.148 C 101.992 39.836, 100 39.977, 100 41.398 C 100 42.804, 102.077 43, 117 43 C 128.502 43, 134 43.349, 134 44.080 C 134 44.814, 131.905 44.935, 127.451 44.458 L 120.902 43.757 109.616 51.273 L 98.331 58.789 96.663 74.645 C 95.745 83.365, 94.996 91.782, 94.997 93.349 C 94.999 95.258, 93.959 97.170, 91.846 99.144 C 87.708 103.009, 88.976 104.202, 96.025 103.076 C 99.036 102.595, 101.598 102.291, 101.717 102.401 C 101.836 102.511, 99.136 105.691, 95.717 109.468 L 89.500 116.336 84.899 133.918 L 80.299 151.500 83.288 162.778 C 84.933 168.980, 86.063 174.271, 85.800 174.534 C 85.537 174.797, 75.237 175.362, 62.911 175.790 C 46.792 176.349, 39.096 176.238, 35.500 175.395 C 30.557 174.234, 30.615 174.220, 40.672 174.111 L 50.845 174 51.872 170.750 C 56.642 155.650, 68 105.657, 68 99.760 C 68 99.342, 65.412 98.955, 62.250 98.900 C 57.051 98.809, 56.835 98.724, 60 98.013 C 61.925 97.580, 65.113 96.944, 67.084 96.599 L 70.668 95.972 74.467 74.919 C 76.640 62.881, 77.888 53.517, 77.383 53.050 C 76.398 52.139, 49.116 45.084, 45.687 44.853 C 38.402 44.363, 58.784 43.200, 76.250 43.109 C 94.864 43.011, 97 42.829, 97 41.342 C 97 39.833, 95.308 39.743, 78.250 40.339 C 67.938 40.699, 51.513 40.996, 41.750 40.997 C 27.081 41, 24 41.247, 24 42.421 C 24 43.982, 24.910 44.225, 39.500 46.561 C 50.140 48.265, 72.950 53.802, 74.319 55.013 C 74.983 55.601, 70.105 86.346, 68.441 92.057 C 68.110 93.196, 63.961 94.389, 52.994 96.501 C 42.799 98.465, 38 99.807, 38 100.694 C 38 101.704, 41.063 102, 51.519 102 C 65.028 102, 65.038 102.002, 64.512 104.250 C 64.223 105.488, 62.663 113.504, 61.046 122.064 C 58.702 134.468, 53.424 155.837, 49.391 169.250 C 48.918 170.824, 47.216 171, 32.433 171 C 18.586 171, 16 171.233, 16 172.481 C 16 173.295, 17.012 174.195, 18.250 174.480 C 19.487 174.765, 23.425 175.712, 27 176.584 C 32.562 177.940, 44.649 178.230, 110.750 178.593 C 153.238 178.827, 188 178.752, 188 178.428 C 188 177.180, 166.794 154.001, 165.678 154.029 C 165.030 154.044, 160.900 156.264, 156.500 158.962 L 148.500 163.867 148.232 148.184 C 148.027 136.144, 148.510 128.458, 150.310 115.103 L 152.655 97.706 140.369 91.899 L 128.084 86.093 123.488 87.659 C 120.960 88.520, 118.747 89.062, 118.571 88.862 C 118.395 88.663, 126.057 79.950, 135.599 69.500 L 152.946 50.500 158.136 50.500 L 163.326 50.500 166.276 41.663 C 170.232 29.809, 169.037 28.689, 161.319 37.014 C 158.118 40.467, 154.911 44.127, 154.192 45.147 C 153.047 46.773, 151.991 46.925, 145.692 46.374 C 141.736 46.028, 138.160 45.439, 137.744 45.066 C 137.327 44.693, 141.308 38.255, 146.589 30.760 C 151.869 23.266, 156.181 16.777, 156.170 16.342 C 156.103 13.674, 153.407 16.423, 144.986 27.745 M 159.580 42.918 C 155.917 46.670, 155.864 46.822, 157.996 47.499 C 159.209 47.884, 160.545 47.816, 160.964 47.349 C 161.909 46.297, 164.127 39.793, 163.690 39.356 C 163.514 39.180, 161.665 40.783, 159.580 42.918 M 111.131 53.478 C 105.978 57.012, 101.556 60.111, 101.304 60.363 C 101.052 60.615, 100.069 68.519, 99.120 77.927 C 97.808 90.943, 97.691 94.731, 98.634 93.767 C 101.605 90.729, 130.751 48.427, 130.339 47.750 C 130.088 47.337, 127.771 47.012, 125.191 47.026 C 121.081 47.048, 119.339 47.848, 111.131 53.478 M 118.480 70.646 C 109.691 83.142, 102.361 93.701, 102.191 94.110 C 102.021 94.519, 104.166 94.123, 106.958 93.231 C 111.600 91.746, 113.466 90.025, 128.767 73.110 C 146.635 53.358, 149.437 50.077, 148.864 49.578 C 148.664 49.403, 145.341 48.960, 141.480 48.592 L 134.461 47.924 118.480 70.646 M 120.514 91.593 C 116.671 92.932, 112.621 94.974, 111.514 96.131 L 109.500 98.233 114.573 97.606 L 119.646 96.978 120.838 115.739 C 121.494 126.058, 122.023 142.415, 122.015 152.088 L 122 169.676 110.750 171.986 C 104.563 173.256, 98.600 174.650, 97.500 175.084 C 96.400 175.518, 114.993 175.902, 138.818 175.937 L 182.136 176 180.117 173.250 C 179.007 171.738, 175.261 167.407, 171.794 163.626 L 165.489 156.751 155.495 162.804 L 145.500 168.856 145.206 152.178 C 144.985 139.687, 145.439 131.358, 147.013 119 C 148.169 109.925, 149.320 101.789, 149.571 100.920 C 149.913 99.734, 147.361 98.110, 139.361 94.420 C 133.495 91.714, 128.426 89.423, 128.098 89.329 C 127.769 89.234, 124.356 90.253, 120.514 91.593 M 101.500 98.086 L 96.500 100.017 101 99.462 C 103.475 99.157, 106.159 98.253, 106.964 97.454 C 108.859 95.573, 107.642 95.714, 101.500 98.086 M 111.294 100.730 C 107.469 101.076, 106.398 101.870, 99.489 109.480 L 91.891 117.850 87.507 134.640 L 83.124 151.430 85.005 158.465 C 86.040 162.334, 87.363 167.354, 87.946 169.619 L 89.007 173.738 104.143 170.619 L 119.280 167.500 118.644 139 C 118.012 110.642, 117.310 99.842, 116.123 100.175 C 115.780 100.271, 113.607 100.521, 111.294 100.730" stroke="none" fill="black" fill-rule="evenodd"/>
</svg>