<svg xmlns="http://www.w3.org/2000/svg" width="200" height="200" viewBox="0 0 200 200" version="1.1">
	<path d="M 40.591 10.250 C 40.316 12.038, 39.612 21.059, 39.026 30.298 L 37.961 47.095 27.481 70.997 C 21.716 84.143, 17 95.319, 17 95.833 C 17 96.346, 20.037 97.156, 23.750 97.633 L 30.500 98.500 31.149 105.500 C 31.506 109.350, 32.140 128.363, 32.559 147.750 C 32.978 167.137, 33.532 183, 33.790 183 C 34.984 183, 61.239 166.523, 61.557 165.575 C 61.755 164.984, 62.406 153.492, 63.003 140.038 C 63.601 126.584, 64.208 115.459, 64.352 115.315 C 64.621 115.046, 90.198 124.864, 90.801 125.468 C 90.985 125.652, 85.706 133.796, 79.068 143.565 C 72.431 153.333, 67 161.720, 67 162.201 C 67 163.892, 82.236 184.499, 83.409 184.395 C 84.062 184.337, 93.390 177.523, 104.138 169.253 C 114.885 160.984, 124.596 153.645, 125.717 152.945 C 127.537 151.808, 129.138 152.545, 140.680 159.836 L 153.605 168 168.303 168 C 176.386 168, 183 167.711, 183 167.357 C 183 167.003, 179.796 160.141, 175.880 152.107 C 168.962 137.915, 154.971 104.661, 155.029 102.548 C 155.045 101.972, 163.181 95.498, 173.109 88.163 C 183.037 80.828, 191.011 74.690, 190.830 74.523 C 190.648 74.356, 181.725 75.312, 171 76.646 C 155.606 78.561, 149.643 78.907, 142.681 78.286 L 133.862 77.500 149.181 64.949 C 157.606 58.047, 167.988 49.736, 172.250 46.481 C 184.522 37.110, 183.541 36.839, 159.336 42.916 L 140.271 47.702 136.014 29.101 C 133.672 18.870, 131.469 9.961, 131.118 9.302 C 130.739 8.591, 125.872 14.100, 119.149 22.850 C 108.696 36.454, 107.434 37.731, 102.852 39.359 L 97.885 41.123 93.193 38.395 C 90.612 36.895, 84.580 33.042, 79.788 29.834 C 74.997 26.625, 70.797 24, 70.455 24 C 70.112 24, 63.608 20.175, 56 15.500 C 48.392 10.825, 41.925 7, 41.629 7 C 41.333 7, 40.866 8.462, 40.591 10.250 M 43 12.608 C 43 13.619, 42.499 21.884, 41.887 30.973 L 40.773 47.500 30.887 70.042 C 25.449 82.440, 21 93.064, 21 93.650 C 21 94.236, 23.776 95.005, 27.169 95.360 C 30.562 95.715, 33.462 96.129, 33.613 96.280 C 33.765 96.432, 34.438 114.768, 35.109 137.028 C 35.780 159.287, 36.452 177.660, 36.603 177.855 C 36.753 178.050, 41.799 175.200, 47.816 171.523 L 58.756 164.837 59.363 157.168 C 59.696 152.951, 60.267 140.838, 60.630 130.250 C 60.994 119.662, 61.398 111, 61.528 111 C 62.432 111, 93.668 123.341, 94.312 123.953 C 94.759 124.377, 89.421 133.144, 82.450 143.436 L 69.776 162.149 74.389 168.824 C 76.927 172.496, 80.063 176.823, 81.359 178.441 L 83.716 181.382 87.651 178.441 C 104.713 165.690, 120 153.530, 120 152.710 C 120 152.167, 117.561 143.348, 114.580 133.112 C 108.295 111.528, 108.143 110.833, 109.591 110.324 C 110.240 110.095, 112.637 116.732, 115.512 126.720 C 118.169 135.949, 120.642 144.100, 121.008 144.834 C 121.422 145.665, 124.599 141.024, 129.415 132.553 L 137.156 118.938 133.031 99.719 C 130.762 89.149, 128.706 79.150, 128.462 77.500 C 128.219 75.850, 127.573 72.378, 127.028 69.785 C 126.482 67.191, 126.256 64.491, 126.524 63.785 C 126.809 63.036, 125.029 61.271, 122.256 59.554 C 119.640 57.934, 116.506 55.982, 115.292 55.217 L 113.084 53.825 113.701 79.413 C 114.265 102.827, 114.177 105, 112.659 105 C 111.158 105, 111 102.631, 111 80.174 C 111 52.007, 111.840 54.897, 101.662 48.041 L 96.823 44.782 88.162 48.141 L 79.500 51.500 88.470 52.303 C 93.403 52.745, 97.565 53.232, 97.719 53.386 C 97.873 53.540, 94.708 63.079, 90.685 74.583 L 83.371 95.500 71.935 99.707 C 65.646 102.020, 60.019 103.933, 59.431 103.957 C 58.764 103.984, 57.710 96.588, 56.623 84.250 L 54.883 64.500 62.302 45.821 L 69.721 27.142 58.611 20.390 C 52.500 16.677, 46.487 12.993, 45.250 12.204 C 43.213 10.905, 43 10.944, 43 12.608 M 119.475 26.900 C 113.989 34.077, 109.217 39.961, 108.872 39.975 C 108.527 39.989, 106.568 40.700, 104.519 41.556 L 100.794 43.113 115.046 51.891 L 129.297 60.668 129.561 66.084 C 129.706 69.063, 130.213 72.516, 130.687 73.758 C 131.517 75.929, 131.853 75.763, 139.525 69.379 C 143.911 65.729, 152.900 58.449, 159.500 53.202 C 166.100 47.955, 171.889 43.326, 172.365 42.916 C 172.840 42.506, 165.427 44.131, 155.890 46.528 C 146.354 48.924, 138.446 50.780, 138.318 50.652 C 138.190 50.523, 136.261 42.562, 134.031 32.959 C 131.801 23.357, 129.858 15.129, 129.713 14.675 C 129.568 14.221, 124.961 19.722, 119.475 26.900 M 71.728 29.706 C 71.483 30.143, 68.217 38.365, 64.470 47.977 L 57.658 65.455 59.209 82.274 C 60.062 91.525, 61.011 99.344, 61.317 99.650 C 62.397 100.730, 80.813 93.929, 81.501 92.196 C 83.377 87.476, 94 56.586, 94 55.851 C 94 55.383, 92.313 54.997, 90.250 54.993 C 81.763 54.977, 73 53.690, 73 52.460 C 73 51.773, 77.162 49.552, 82.250 47.525 C 87.338 45.498, 91.852 43.502, 92.282 43.088 C 92.713 42.674, 90.463 40.528, 87.282 38.320 C 78.829 32.449, 72.236 28.798, 71.728 29.706 M 165.500 80.027 C 154.610 81.438, 149.396 81.649, 142.029 80.975 C 136.820 80.499, 132.430 80.236, 132.275 80.392 C 132.119 80.548, 133.804 89.358, 136.019 99.970 L 140.047 119.265 131.274 134.844 C 120.753 153.525, 121.023 152.914, 124.508 150.173 C 126.977 148.230, 127.554 148.133, 129.403 149.344 C 130.557 150.099, 136.564 153.944, 142.754 157.888 L 154.009 165.060 166.418 164.780 L 178.826 164.500 171.835 150 C 165.795 137.474, 161.547 127.542, 152.933 105.804 L 151.072 101.107 166.748 89.554 C 175.371 83.199, 181.767 78.048, 180.963 78.106 C 180.158 78.165, 173.200 79.029, 165.500 80.027" stroke="none" fill="black" fill-rule="evenodd"/>
</svg>