<svg xmlns="http://www.w3.org/2000/svg" width="200" height="200" viewBox="0 0 200 200" version="1.1">
	<path d="M 40.113 24.062 C 36.868 44.121, 36.865 44.129, 26.434 71.172 C 20.695 86.048, 16 98.583, 16 99.026 C 16 99.470, 19.263 100.928, 23.250 102.265 L 30.500 104.697 30.281 115.098 C 30.160 120.819, 29.801 132.925, 29.482 142 L 28.904 158.500 41.507 173 C 48.439 180.975, 54.438 187.617, 54.838 187.761 C 55.238 187.904, 56.482 174.179, 57.601 157.261 C 59.343 130.933, 59.498 123.166, 58.673 103.364 L 57.708 80.228 61.505 64.982 L 65.301 49.735 69.632 63.118 C 72.014 70.478, 73.971 76.979, 73.981 77.565 C 73.992 78.150, 72.425 79.381, 70.500 80.299 C 65.227 82.813, 65.883 85, 71.911 85 L 76.823 85 80.399 95.679 C 82.366 101.553, 83.868 106.453, 83.737 106.569 C 83.607 106.685, 80.161 107.167, 76.080 107.640 C 71.700 108.148, 68.490 109.012, 68.246 109.750 C 67.988 110.533, 68.793 111, 70.400 111 C 71.812 111, 76.288 112.643, 80.347 114.652 L 87.728 118.304 94.212 137.902 C 98.465 150.757, 100.377 157.912, 99.769 158.698 C 98.579 160.235, 98.530 160.159, 111.435 176.870 C 117.449 184.659, 122.694 190.686, 123.091 190.265 C 123.487 189.844, 130.751 181.308, 139.232 171.296 L 154.652 153.092 159.384 132.324 C 162.398 119.091, 165.545 108.133, 168.056 102.122 L 171.998 92.689 157.682 93.340 L 143.366 93.990 141.699 90.495 L 140.032 87 144.766 86.972 C 151.204 86.934, 187.234 77.797, 187.815 76.055 C 188.189 74.932, 184.148 74.792, 164.076 75.233 L 139.886 75.764 140.474 70.132 C 140.798 67.034, 141.293 62.250, 141.574 59.500 L 142.086 54.500 157.784 48.500 C 179.733 40.111, 179.428 39.500, 153.292 39.500 L 132.531 39.500 128.027 24.750 C 123.783 10.855, 123.376 10, 121.011 10.007 C 116.707 10.019, 72.905 15.762, 72.269 16.397 C 70.400 18.266, 75.392 18.093, 97.037 15.537 C 110.237 13.978, 121.185 12.882, 121.366 13.102 C 121.548 13.321, 123.693 20.025, 126.133 28 L 130.569 42.500 147.774 42.427 C 157.237 42.387, 164.815 42.518, 164.615 42.719 C 164.414 42.919, 158.682 45.228, 151.875 47.849 L 139.500 52.615 138.871 58.557 C 138.525 61.826, 137.945 67.659, 137.583 71.519 L 136.924 78.538 154.712 78.313 L 172.500 78.087 161 81.001 C 154.675 82.604, 147.025 83.929, 144 83.947 L 138.500 83.978 122.500 50.507 C 113.233 31.122, 105.931 17.029, 105.149 17.018 C 104.078 17.004, 103.939 18.414, 104.481 23.809 L 105.165 30.618 86.832 38.982 C 76.750 43.582, 68.134 47.537, 67.687 47.771 C 67.240 48.004, 66.977 45.789, 67.103 42.848 C 67.301 38.215, 66.626 36.005, 62.052 26.325 C 58.583 18.982, 56.331 15.320, 55.484 15.644 C 54.522 16.014, 55.388 19.704, 58.909 30.239 L 63.622 44.339 59.213 62.420 L 54.804 80.500 55.872 105.500 C 56.801 127.229, 56.700 133.744, 55.095 155.292 C 54.080 168.927, 53.020 180.313, 52.740 180.594 C 52.459 180.874, 47.649 175.842, 42.050 169.411 L 31.870 157.717 32.601 133.109 C 33.003 119.574, 33.370 107.171, 33.416 105.548 C 33.496 102.745, 33.146 102.487, 26.500 100.459 C 21.777 99.018, 19.582 97.864, 19.752 96.912 C 19.891 96.135, 24.306 84.475, 29.564 71 C 39.025 46.751, 39.157 46.291, 42.509 26.070 C 44.372 14.834, 45.668 5.272, 45.389 4.820 C 43.956 2.502, 43.093 5.652, 40.113 24.062 M 108.030 30.020 C 108.003 32.311, 106.401 33.261, 90.471 40.442 C 80.831 44.787, 73.293 48.648, 73.721 49.022 C 74.150 49.396, 82.600 51.852, 92.500 54.479 C 102.400 57.107, 111.364 59.575, 112.419 59.963 C 113.887 60.503, 110.128 62.856, 96.419 69.977 C 86.564 75.096, 78.305 79.453, 78.067 79.659 C 77.828 79.865, 78.137 80.537, 78.753 81.153 C 79.810 82.210, 133.777 84.557, 134.746 83.588 C 135.093 83.240, 111.778 33.881, 109.074 29.238 C 108.196 27.732, 108.057 27.837, 108.030 30.020 M 69 51.681 C 69 52.130, 70.834 58.001, 73.076 64.728 L 77.152 76.958 91.979 69.229 C 100.134 64.978, 106.717 61.405, 106.608 61.288 C 106.499 61.171, 98.780 59.016, 89.455 56.499 C 80.130 53.982, 71.713 51.684, 70.750 51.394 C 69.787 51.103, 69 51.232, 69 51.681 M 80.444 86.714 C 80.821 87.696, 82.328 92.438, 83.793 97.250 C 85.616 103.238, 86.937 106.002, 87.979 106.007 C 88.815 106.010, 99.531 104.829, 111.792 103.382 C 124.053 101.935, 134.335 101.002, 134.642 101.309 C 136.252 102.919, 132.520 103.925, 117.030 106.054 C 107.663 107.342, 100.019 108.644, 100.041 108.948 C 100.064 109.252, 108.246 114.450, 118.225 120.500 C 128.203 126.550, 136.482 131.950, 136.622 132.500 C 136.762 133.050, 129.932 138.900, 121.444 145.500 C 106.098 157.433, 106.012 157.522, 106.019 161.500 C 106.025 164.981, 107.069 166.829, 114.072 175.750 C 118.498 181.387, 122.430 185.965, 122.809 185.922 C 123.189 185.879, 129.915 178.259, 137.756 168.988 L 152.012 152.133 156.926 130.817 C 159.629 119.093, 163.001 106.900, 164.420 103.721 C 165.839 100.543, 167 97.466, 167 96.882 C 167 96.175, 162.799 95.923, 154.378 96.127 L 141.755 96.432 139.405 91.808 L 137.055 87.184 128.778 86.626 C 124.225 86.319, 111.333 85.811, 100.129 85.497 C 80.853 84.958, 79.795 85.023, 80.444 86.714 M 88.676 110.750 C 87.455 112.824, 90.432 116.189, 95.954 118.977 C 99.279 120.655, 102.009 122.585, 102.020 123.264 C 102.031 123.944, 102.697 130.575, 103.500 138 C 104.303 145.425, 104.969 152.290, 104.980 153.256 C 104.994 154.494, 109.138 151.736, 119.051 143.890 C 126.779 137.773, 132.966 132.661, 132.801 132.531 C 132.635 132.400, 124.294 127.277, 114.265 121.147 C 100.314 112.619, 95.218 110, 92.574 110 C 90.673 110, 88.919 110.338, 88.676 110.750 M 82.441 112.532 C 84.915 114.403, 86 114.393, 86 112.500 C 86 111.523, 85.042 111.011, 83.250 111.032 C 80.616 111.062, 80.582 111.126, 82.441 112.532 M 96.301 135.452 C 99.121 143.951, 101.563 150.770, 101.727 150.606 C 102.038 150.296, 100.301 131.777, 99.460 126.430 C 99.098 124.127, 98.096 122.939, 95.454 121.680 C 93.517 120.756, 91.762 120, 91.553 120 C 91.344 120, 93.481 126.954, 96.301 135.452" stroke="none" fill="black" fill-rule="evenodd"/>
</svg>