<svg xmlns="http://www.w3.org/2000/svg" width="200" height="200" viewBox="0 0 200 200" version="1.1">
	<path d="M 80.652 12.214 C 80.303 15.122, 80.013 21.898, 80.009 27.272 L 80 37.045 67.486 26.870 C 60.603 21.274, 54.763 16.904, 54.507 17.159 C 54.252 17.414, 54.466 20.220, 54.983 23.393 C 55.888 28.959, 55.749 29.595, 51.050 41.332 C 41.875 64.248, 42.581 63.046, 39.077 61.723 C 36.904 60.903, 35.719 60.881, 34.954 61.646 C 34.188 62.412, 37.769 66.423, 47.420 75.610 L 60.961 88.500 50.372 102.186 L 39.782 115.872 29.891 117.667 C 23.512 118.826, 20 119.914, 20 120.732 C 20 121.719, 24.992 122, 42.500 122 C 54.875 122, 65 122.234, 65 122.520 C 65 122.806, 60.867 129.556, 55.816 137.521 C 47.203 151.103, 45.766 152.795, 32.686 164.751 C 25.015 171.763, 17.445 178.625, 15.863 180 C 14.136 181.501, 13.292 182.965, 13.750 183.665 C 14.299 184.503, 19.576 183.225, 32.577 179.107 C 50.472 173.438, 50.828 173.269, 70.571 161.034 C 81.532 154.241, 90.668 148.548, 90.873 148.385 C 91.079 148.221, 87.546 143.785, 83.023 138.527 C 74.975 129.172, 73.929 126.732, 77.393 125.403 C 79.568 124.568, 112.130 130.686, 113.514 132.190 C 114.178 132.910, 120.848 141.251, 128.336 150.724 L 141.952 167.948 158.639 175.978 C 167.816 180.395, 175.531 183.802, 175.783 183.551 C 176.150 183.183, 168.302 147.511, 166.366 140.750 C 166.091 139.787, 165.172 139, 164.326 139 C 163.479 139, 163.002 139.563, 163.265 140.250 C 164.437 143.304, 172.174 178.159, 171.770 178.563 C 171.522 178.811, 165.044 175.989, 157.375 172.292 L 143.430 165.571 130.326 149.036 C 123.119 139.941, 117.334 132.376, 117.470 132.225 C 117.606 132.073, 125.441 133.601, 134.881 135.619 C 144.321 137.637, 152.305 139.029, 152.622 138.711 C 154.141 137.192, 150.745 136.079, 133.640 132.489 L 115.173 128.613 114.579 125.647 C 114.253 124.015, 114.102 122.570, 114.243 122.434 C 114.384 122.299, 123.275 122.560, 134 123.015 L 153.500 123.842 168.781 118.265 C 177.429 115.110, 183.905 112.214, 183.699 111.594 C 183.460 110.874, 177.544 110.407, 166.384 110.227 L 149.433 109.955 144.217 99.465 C 141.348 93.696, 139 88.632, 139 88.212 C 139 87.791, 144.850 82.331, 152 76.077 L 165 64.706 165 56.982 L 165 49.258 160.250 48.661 C 157.637 48.332, 152.019 47.763, 147.765 47.395 C 140.546 46.771, 140.064 46.586, 140.536 44.613 C 142.933 34.588, 145.523 17.823, 144.748 17.344 C 143.386 16.503, 142.644 17.507, 128.575 39.250 L 115.795 59 111.525 59 C 107.900 59, 106.292 58.235, 100.877 53.935 L 94.500 48.869 89 28.263 C 85.975 16.929, 83.002 7.493, 82.393 7.293 C 81.727 7.074, 81.035 9.029, 80.652 12.214 M 83.071 28.500 L 83 39.500 86.500 42.293 C 88.552 43.930, 89.986 44.550, 89.967 43.793 C 89.949 43.082, 88.406 36.875, 86.538 30 L 83.143 17.500 83.071 28.500 M 58.142 26.787 C 58.317 29.739, 56.628 35.063, 51.534 47.626 C 47.770 56.907, 44.083 65.001, 43.340 65.614 C 42.263 66.503, 44.219 68.882, 52.995 77.361 C 59.048 83.209, 64 88.217, 64 88.490 C 64 88.764, 58.789 95.714, 52.419 103.935 C 45.469 112.906, 39.971 119.085, 38.669 119.389 C 37.476 119.667, 42.350 119.696, 49.500 119.452 C 56.650 119.208, 65.909 119.006, 70.075 119.004 L 77.650 119 89.017 100.885 L 100.384 82.770 98.594 75.823 C 97.610 72.002, 96.377 67.329, 95.855 65.438 L 94.906 62 86.844 62 L 78.781 62 79.480 51.250 L 80.179 40.500 70.873 33 C 56.723 21.596, 57.869 22.156, 58.142 26.787 M 129 43.959 C 118.460 60.398, 117.256 61.899, 114.576 61.947 L 111.651 62 113.846 64.336 C 115.985 66.613, 116.033 67.216, 115.770 88.586 L 115.500 110.500 113.188 110.828 C 111.157 111.115, 110.955 111.542, 111.531 114.328 C 111.892 116.072, 112.808 117.991, 113.567 118.591 C 114.389 119.240, 122.833 119.936, 134.423 120.309 L 153.899 120.935 164.200 117.014 L 174.500 113.093 161.325 113.047 L 148.151 113 141.575 100.605 C 137.959 93.788, 135 88.014, 135 87.774 C 135 87.535, 141.075 82.019, 148.500 75.518 L 162 63.698 162 57.520 L 162 51.341 150.025 50.363 C 143.440 49.825, 137.823 49.156, 137.544 48.878 C 137.265 48.599, 137.941 43.710, 139.045 38.014 C 140.149 32.318, 140.928 27.290, 140.776 26.840 C 140.624 26.390, 135.325 34.094, 129 43.959 M 82 51 L 82 59 88 59 C 91.300 59, 94 58.715, 94 58.366 C 94 54.774, 91.064 49.474, 87.420 46.488 C 85.079 44.569, 82.902 43, 82.582 43 C 82.262 43, 82 46.600, 82 51 M 96 54.883 C 96 57.402, 97.447 59, 99.729 59 C 101.891 59, 102.064 58.781, 100.955 57.445 C 99.193 55.322, 96 53.671, 96 54.883 M 98 62.489 C 98 63.256, 102.194 78.464, 102.499 78.803 C 102.649 78.969, 103.715 77.619, 104.868 75.803 C 106.020 73.986, 107.371 71.880, 107.870 71.122 C 108.368 70.364, 109.294 70.064, 109.928 70.455 C 110.724 70.947, 109.957 73.173, 107.442 77.669 C 103.380 84.934, 103.325 83.080, 108.140 101.183 C 109.654 106.877, 110.548 108.727, 111.592 108.326 C 112.739 107.886, 113 104.015, 113 87.444 L 113 67.102 109.656 64.551 C 107.310 62.762, 105.070 62, 102.156 62 C 99.870 62, 98 62.220, 98 62.489 M 93.104 101.076 C 86.118 112.372, 85.284 114.174, 87.231 113.770 C 102.709 110.563, 107 109.429, 106.997 108.545 C 106.994 107.242, 102.057 88.724, 101.588 88.255 C 101.399 88.066, 97.581 93.836, 93.104 101.076 M 95 114.919 C 88.675 116.407, 82.825 117.899, 82 118.233 C 81.175 118.568, 87.146 118.878, 95.269 118.921 L 110.038 119 109.381 116.250 C 108.578 112.890, 108.090 111.968, 107.191 112.106 C 106.811 112.165, 101.325 113.430, 95 114.919 M 95.965 125.051 C 104.470 126.620, 111.580 127.753, 111.763 127.570 C 111.947 127.386, 111.802 126.058, 111.440 124.618 L 110.783 122 95.642 122.099 L 80.500 122.198 95.965 125.051 M 58.545 138.301 C 49.155 153.232, 48.342 154.194, 34.374 166.876 C 26.424 174.094, 20.080 180, 20.278 180 C 20.475 180, 27.065 177.970, 34.923 175.490 C 48.016 171.356, 50.641 170.092, 66.355 160.354 C 75.785 154.510, 84.296 149.179, 85.269 148.507 C 86.875 147.397, 86.346 146.493, 79.519 138.684 C 71.890 129.958, 71.065 128.335, 73.183 126.217 C 74.622 124.778, 74.261 124.355, 70.879 123.506 C 68.401 122.884, 67.748 123.668, 58.545 138.301" stroke="none" fill="black" fill-rule="evenodd"/>
</svg>