<svg xmlns="http://www.w3.org/2000/svg" width="200" height="200" viewBox="0 0 200 200" version="1.1">
	<path d="M 93.476 5.250 C 93.222 5.938, 91.999 10.090, 90.757 14.479 L 88.500 22.457 78 24.710 C 62.866 27.956, 63 27.915, 63 29.352 C 63 30.226, 66.325 31.275, 72.946 32.490 C 78.416 33.494, 83.363 34.606, 83.939 34.962 C 84.625 35.386, 83.751 39.904, 81.406 48.055 C 79.437 54.900, 77.752 60.573, 77.663 60.663 C 77.573 60.753, 70.300 59.492, 61.500 57.860 C 47.920 55.342, 44.063 54.989, 36 55.526 C 30.775 55.873, 25.492 56.395, 24.259 56.685 L 22.019 57.212 22.645 93.356 C 23.054 117.015, 22.860 136.188, 22.082 148.863 C 20.710 171.224, 19.408 167.574, 33.281 180.249 C 38.110 184.662, 42.306 188.028, 42.605 187.729 C 42.903 187.430, 44.943 179.381, 47.138 169.843 C 50.939 153.316, 51.465 151.888, 58.314 139.500 C 65.057 127.300, 66.277 125.746, 78.120 114.254 C 87.292 105.354, 92.274 101.306, 96.357 99.437 C 99.446 98.023, 102.392 97.124, 102.904 97.441 C 103.416 97.757, 107.307 104.425, 111.550 112.258 C 115.793 120.091, 120.135 127.952, 121.199 129.726 L 123.134 132.953 132.067 128.466 L 141 123.980 141 129.334 C 141 132.279, 140.703 139.545, 140.340 145.480 L 139.680 156.270 123.362 155.775 L 107.045 155.281 111.950 160.890 C 114.648 163.976, 121.123 170.726, 126.339 175.892 L 135.822 185.283 150.661 181.880 L 165.500 178.476 168.279 158.988 C 170.867 140.832, 171.004 138.248, 170.279 121.188 C 169.670 106.882, 169.865 99.114, 171.169 85.688 L 172.837 68.500 165.067 58 C 160.793 52.225, 156.892 47.590, 156.398 47.700 C 155.904 47.811, 148.150 51.156, 139.167 55.135 L 122.833 62.370 116.667 59.028 C 113.275 57.190, 110.428 55.644, 110.339 55.593 C 110.250 55.542, 109.667 48.300, 109.042 39.500 C 107.634 19.663, 107.232 17, 105.646 17 C 104.950 17, 103.675 19.137, 102.812 21.750 C 101.948 24.363, 99.431 31.575, 97.218 37.777 L 93.193 49.054 100.597 53.118 L 108 57.181 108 62.823 L 108 68.464 105.424 64.674 C 104.008 62.589, 102.545 61.027, 102.174 61.202 C 101.803 61.378, 96.376 64.138, 90.113 67.337 C 79.661 72.676, 78.778 72.963, 79.350 70.827 C 79.692 69.547, 79.979 67.439, 79.986 66.142 C 79.998 64.173, 80.385 63.880, 82.330 64.368 C 84.515 64.916, 85.013 64.066, 90.330 50.713 C 93.449 42.881, 96 35.967, 96 35.348 C 96 34.729, 94.425 33.927, 92.500 33.566 C 90.575 33.205, 89 32.452, 89 31.894 C 89 31.335, 90.575 25.407, 92.500 18.720 C 94.425 12.034, 96 5.986, 96 5.282 C 96 3.635, 94.081 3.611, 93.476 5.250 M 100.742 35.826 C 98.683 41.697, 96.999 46.819, 96.999 47.208 C 97 48.243, 105.990 53.343, 106.650 52.683 C 107.162 52.171, 105.329 25.996, 104.740 25.407 C 104.600 25.267, 102.801 29.955, 100.742 35.826 M 78.319 27.362 C 75.470 27.988, 72.884 28.760, 72.574 29.078 C 72.264 29.396, 75.004 30.208, 78.663 30.882 C 85.729 32.184, 86.950 31.724, 86.985 27.750 C 87.002 25.764, 85.835 25.712, 78.319 27.362 M 84.214 48.253 C 80.644 61.556, 80.569 62, 81.896 62 C 82.621 62, 85.880 54.549, 92.720 37.250 C 93.046 36.426, 92.240 36.001, 90.357 36.003 C 87.549 36.006, 87.443 36.217, 84.214 48.253 M 138.619 58.291 L 122.738 65.424 116.940 62.212 C 113.751 60.445, 110.997 59, 110.821 58.999 C 110.644 58.999, 110.725 61.929, 111 65.511 L 111.500 72.023 126.250 87.433 C 144.714 106.725, 145.445 108.771, 130.835 100.283 C 122.725 95.570, 122.707 95.551, 112.608 80.309 C 107.049 71.917, 102.050 65.052, 101.500 65.052 C 100.950 65.052, 95.550 67.631, 89.500 70.782 C 79.574 75.952, 78.467 76.804, 78.167 79.506 C 77.984 81.153, 73.297 91.725, 67.752 103 L 57.671 123.500 56.763 118 C 55.865 112.567, 55.945 112.288, 63.316 95.086 C 69.007 81.806, 71.366 77.364, 73.256 76.374 C 75.734 75.076, 77 71.590, 77 66.068 C 77 63.394, 76.953 63.377, 61.750 60.675 C 45.707 57.823, 42.680 57.619, 31.718 58.655 L 24.936 59.295 25.218 98.398 C 25.373 119.904, 25.171 144.475, 24.769 153 L 24.038 168.500 32.189 175.780 C 36.672 179.783, 40.653 182.708, 41.035 182.280 C 41.417 181.851, 43.193 174.975, 44.982 167 C 47.935 153.834, 48.890 151.271, 55.367 139.133 C 62.315 126.113, 62.850 125.427, 76 112.708 C 86.975 102.093, 90.809 99.038, 96.500 96.376 C 104.857 92.466, 103.110 91.006, 114 111 C 125.332 131.805, 122.939 130.284, 134.517 124.042 L 144.321 118.757 143.665 131.628 C 143.304 138.708, 143.006 147.831, 143.004 151.902 L 143 159.304 127.824 158.720 L 112.647 158.137 124.729 170.219 L 136.811 182.301 149.155 179.484 C 155.945 177.935, 161.879 176.340, 162.343 175.941 C 162.807 175.541, 164.287 167.628, 165.633 158.357 C 167.842 143.140, 168.020 139.506, 167.458 121 C 166.990 105.617, 167.234 96.570, 168.433 84.756 L 170.032 69.012 163.286 60.006 C 159.576 55.053, 156.081 51.036, 155.520 51.080 C 154.959 51.123, 147.353 54.369, 138.619 58.291 M 65.942 96 C 61.940 105.349, 58.894 113.228, 59.174 113.507 C 59.810 114.143, 75 82.404, 75 80.439 C 75 76.362, 72.533 80.600, 65.942 96 M 118.611 84.250 C 121.896 89.881, 125.592 94.255, 128.208 95.608 C 130.832 96.964, 130.320 96.099, 124.957 90.109 C 118.785 83.215, 117.100 81.659, 118.611 84.250" stroke="none" fill="black" fill-rule="evenodd"/>
</svg>