<svg xmlns="http://www.w3.org/2000/svg" width="200" height="200" viewBox="0 0 200 200" version="1.1">
	<path d="M 102.139 12.750 C 101.623 14.813, 100.943 17.655, 100.627 19.066 C 100.080 21.517, 99.797 21.614, 94.277 21.244 C 91.100 21.030, 70.950 19.598, 49.500 18.060 C 28.050 16.523, 10.318 15.424, 10.096 15.619 C 9.874 15.814, 14.296 22.908, 19.922 31.383 L 30.152 46.791 47.474 47.513 C 57.001 47.910, 65.375 48.042, 66.083 47.806 C 66.791 47.570, 57.176 41.127, 44.717 33.490 C 32.258 25.852, 22.210 19.457, 22.388 19.278 C 22.567 19.100, 38.537 20.090, 57.878 21.477 C 77.219 22.865, 94.434 24, 96.133 24 C 99.124 24, 99.202 24.112, 98.564 27.511 C 98.202 29.443, 91.467 41.846, 83.599 55.074 L 69.293 79.125 68.655 73.812 C 68.304 70.891, 68.013 66.588, 68.009 64.250 C 68.004 61.913, 67.650 60, 67.223 60 C 66.796 60, 63.486 63.038, 59.867 66.750 C 55.168 71.572, 49.265 79.970, 39.202 96.149 L 25.115 118.798 23.058 134.053 C 21.926 142.444, 21 150.112, 21 151.093 C 21 152.252, 26.843 157.096, 37.682 164.923 C 46.857 171.549, 54.461 176.864, 54.579 176.735 C 54.698 176.606, 53.216 163.401, 51.285 147.392 L 47.775 118.283 60.627 101.142 L 73.479 84 93.489 84.014 C 104.495 84.021, 114.513 84.299, 115.750 84.630 C 118.290 85.311, 118.512 87.774, 117.361 102.548 L 116.735 110.597 91.117 107.384 C 77.028 105.617, 65.361 104.309, 65.192 104.477 C 65.023 104.645, 71.469 110.519, 79.517 117.532 L 94.149 130.281 93.597 134.890 C 92.665 142.684, 90.660 187.993, 91.223 188.556 C 91.515 188.848, 98.896 184.091, 107.627 177.986 C 120.472 169.002, 123.595 166.356, 124 164.111 L 124.500 161.337 145.314 165.772 C 156.761 168.210, 166.406 169.927, 166.747 169.586 C 167.088 169.246, 169.691 156.262, 172.532 140.733 L 177.698 112.500 166.849 101.327 C 160.882 95.183, 156 89.378, 156 88.429 C 156 86.884, 156.883 86.765, 164.426 87.298 L 172.852 87.892 173.395 81.696 C 173.693 78.288, 174.110 72.325, 174.321 68.445 L 174.705 61.390 154.922 45.945 C 136.712 31.728, 134.996 30.117, 133.350 25.690 C 131.918 21.838, 131.348 21.171, 130.491 22.343 C 129.580 23.589, 127.490 23.658, 116.460 22.810 C 109.332 22.261, 103.378 21.695, 103.228 21.551 C 103.078 21.407, 103.601 18.524, 104.389 15.145 C 105.597 9.965, 105.607 9, 104.450 9 C 103.695 9, 102.655 10.688, 102.139 12.750 M 15 18.600 C 15 18.827, 18.895 24.860, 23.656 32.006 L 32.311 45 44.856 45 C 51.856 45, 56.980 44.623, 56.450 44.147 C 53.198 41.225, 23.861 24, 22.139 24 C 20.754 24, 19.832 23.180, 19.434 21.594 C 19.102 20.271, 17.969 18.964, 16.915 18.688 C 15.862 18.413, 15 18.373, 15 18.600 M 101.457 28.250 C 101.072 30.038, 93.834 43.144, 85.375 57.375 C 76.915 71.606, 70.688 82.674, 71.538 81.969 C 72.742 80.969, 78.029 80.821, 95.541 81.294 C 114.820 81.814, 118 81.694, 118 80.443 C 118 79.246, 116.770 79.100, 111.110 79.626 C 103.178 80.364, 103.583 80.825, 102.510 69.832 L 101.858 63.164 111.108 49.954 C 119.368 38.157, 120.403 36.187, 120.790 31.524 L 121.223 26.302 116.472 25.651 C 113.859 25.293, 109.569 25, 106.940 25 C 102.357 25, 102.130 25.134, 101.457 28.250 M 124 28.941 C 124 31.356, 124.556 31.599, 125.349 29.532 C 125.659 28.725, 125.482 27.798, 124.956 27.473 C 124.430 27.148, 124 27.809, 124 28.941 M 130 30.736 C 130 35.088, 132.818 43.190, 136.219 48.613 C 138.421 52.126, 140.385 55, 140.582 55 C 141.400 55, 132.779 32.380, 131.449 31.036 C 130.517 30.094, 130 29.987, 130 30.736 M 124.590 35.250 C 123.535 36.880, 122.962 42.187, 122.510 54.500 C 122.166 63.850, 121.667 72.556, 121.399 73.847 L 120.913 76.193 130.707 75.550 C 136.093 75.196, 142.163 74.667, 144.195 74.374 C 147.552 73.891, 147.812 73.635, 147.029 71.575 C 146.554 70.328, 142.490 63.542, 137.997 56.496 C 132.209 47.418, 129.502 42.127, 128.708 38.342 C 127.471 32.445, 126.754 31.907, 124.590 35.250 M 141.617 48.672 C 144.140 55.727, 146.684 62.850, 147.270 64.500 C 147.855 66.150, 149.416 69.229, 150.739 71.343 C 152.061 73.457, 152.904 75.807, 152.613 76.565 C 152.322 77.323, 152.538 79.243, 153.091 80.832 C 154.059 83.609, 154.412 83.747, 162.181 84.395 C 166.627 84.766, 170.369 84.941, 170.496 84.784 C 170.623 84.628, 170.967 79.550, 171.261 73.500 L 171.794 62.500 155.292 49.500 C 146.216 42.350, 138.393 36.352, 137.909 36.172 C 137.425 35.991, 139.094 41.616, 141.617 48.672 M 112.843 52.245 C 109.279 57.335, 106.008 62.098, 105.573 62.829 C 105.139 63.560, 105.093 67.048, 105.472 70.579 L 106.159 77 110.330 76.986 C 119.079 76.958, 118.625 77.816, 119.416 59.815 C 119.803 50.999, 119.941 43.608, 119.722 43.389 C 119.503 43.170, 116.407 47.155, 112.843 52.245 M 60.821 69.295 C 57.090 72.554, 29.729 115.435, 28.033 120.680 C 26.890 124.214, 23.637 149.415, 24.133 150.893 C 24.697 152.573, 50.457 171.037, 50.814 170.016 C 50.986 169.522, 49.723 157.615, 48.007 143.555 C 46.290 129.496, 45.222 117.432, 45.632 116.747 C 46.043 116.061, 51.015 109.333, 56.682 101.796 L 66.985 88.091 66.345 78.796 C 65.439 65.639, 65.293 65.387, 60.821 69.295 M 137.500 77.661 C 123.466 78.801, 121 79.223, 121 80.483 C 121 81.462, 123.805 81.968, 131.750 82.422 C 137.662 82.760, 144.412 83.245, 146.750 83.499 C 151.293 83.994, 151.654 83.531, 149.839 79.547 C 148.620 76.871, 148.137 76.797, 137.500 77.661 M 120.475 95.531 C 119.885 104.189, 120.010 106.431, 121.121 107.072 C 131.397 113, 150.475 126.115, 150.394 127.195 C 150.336 127.971, 145.676 135.080, 140.039 142.994 C 134.402 150.908, 129.604 157.869, 129.376 158.463 C 128.989 159.471, 163.780 167.553, 164.671 166.662 C 164.874 166.459, 167.202 154.414, 169.844 139.896 L 174.647 113.500 164.293 102.500 C 158.598 96.450, 153.682 90.504, 153.370 89.286 C 152.628 86.397, 151.993 86.262, 135.354 85.464 L 121.207 84.786 120.475 95.531 M 73.500 108.716 C 74.050 109.243, 79.561 114.061, 85.748 119.423 C 94.809 127.277, 96.908 129.592, 96.549 131.336 C 95.921 134.378, 93.654 182.988, 94.119 183.451 C 94.328 183.659, 99.900 180.027, 106.500 175.378 C 113.100 170.730, 119.107 166.563, 119.848 166.119 C 120.975 165.443, 120.922 161.074, 119.523 139.414 C 118.604 125.171, 117.772 113.472, 117.675 113.416 C 117.579 113.361, 108.950 112.312, 98.500 111.085 C 88.050 109.859, 77.925 108.608, 76 108.306 C 73.753 107.954, 72.858 108.101, 73.500 108.716 M 120.992 113.804 C 120.975 121.824, 123.338 157.577, 123.966 158.798 C 124.388 159.619, 128.786 154.216, 135.916 144.119 C 142.122 135.331, 147.173 127.855, 147.141 127.506 C 147.109 127.157, 141.214 123.099, 134.041 118.489 L 121 110.107 120.992 113.804" stroke="none" fill="black" fill-rule="evenodd"/>
</svg>