<svg xmlns="http://www.w3.org/2000/svg" width="200" height="200" viewBox="0 0 200 200" version="1.1">
	<path d="M 91.125 16.557 L 66.751 25 44.875 25 C 27.162 25, 23 25.257, 23 26.352 C 23 27.346, 25.424 27.861, 32.168 28.298 C 39.229 28.755, 41.764 29.320, 43.198 30.754 C 45.014 32.570, 44.924 32.659, 39.530 34.359 C 36.489 35.318, 34.020 36.417, 34.044 36.801 C 34.068 37.185, 37.829 47.850, 42.402 60.500 L 50.716 83.500 44.108 84.075 C 36.144 84.768, 20 89.878, 20 91.706 C 20 92.643, 22.137 93.033, 27.750 93.118 C 32.013 93.183, 41.371 93.521, 48.546 93.868 L 61.591 94.500 57.007 114.564 L 52.422 134.627 40.878 153.064 C 27.979 173.662, 21.572 184.906, 22.311 185.645 C 22.854 186.187, 61.674 163.661, 63.855 161.538 C 67.694 157.800, 83.481 125.294, 89.127 109.500 C 92.469 100.150, 95.524 92.157, 95.915 91.737 C 96.306 91.317, 98.812 98.054, 101.484 106.707 L 106.342 122.439 104.091 144.686 C 102.853 156.922, 102.072 167.307, 102.354 167.764 C 102.637 168.222, 110.536 171.910, 119.907 175.960 L 136.945 183.323 159.472 180.981 L 182 178.638 181.975 174.069 C 181.924 164.643, 180.091 134.758, 179.530 134.196 C 179.208 133.875, 176.075 136.456, 172.567 139.933 L 166.190 146.254 149.077 148.462 L 131.964 150.669 132.232 127.785 L 132.500 104.901 153.500 95.108 C 182.071 81.784, 182 81.821, 182 80.179 C 182 79.038, 181.052 78.858, 177.557 79.337 C 157.635 82.068, 139.345 83.946, 127.750 84.451 L 114 85.051 114 68.672 L 114 52.293 125.620 39.647 C 136.412 27.900, 139 25.625, 139 27.880 C 139 28.695, 129.774 54.745, 126.479 63.233 L 125.030 66.967 130.251 70.483 C 135.926 74.305, 137 74.663, 137 72.736 C 137 72.041, 135.200 70.360, 133 69 C 130.800 67.640, 129 66.068, 129 65.506 C 129 64.944, 132.150 55.780, 136 45.142 C 139.850 34.504, 143 25.653, 143 25.473 C 143 25.294, 142.213 24.958, 141.250 24.728 C 139.761 24.372, 139.727 24.209, 141.027 23.634 C 141.984 23.209, 148.247 26.095, 157.832 31.375 L 173.111 39.793 159.555 50.475 C 146.956 60.403, 144.366 63, 147.065 63 C 148.130 63, 178.089 39.755, 177.623 39.290 C 177.487 39.154, 169.304 34.572, 159.438 29.106 L 141.500 19.169 138.452 22.085 C 135.509 24.900, 135.069 25, 125.584 25 L 115.763 25 116.471 16.500 C 116.861 11.825, 116.802 8.025, 116.340 8.057 C 115.878 8.088, 104.531 11.913, 91.125 16.557 M 94.500 18.319 L 76.500 24.500 94.393 24.774 C 104.234 24.924, 112.396 24.924, 112.531 24.774 C 113.288 23.926, 114.055 12.011, 113.348 12.069 C 112.882 12.107, 104.400 14.919, 94.500 18.319 M 120.884 27.735 L 115.268 28.092 114.643 33.296 C 114.299 36.158, 114.013 40.683, 114.009 43.351 L 114 48.203 120.859 40.851 C 124.632 36.808, 128.947 32.038, 130.448 30.250 L 133.178 27 129.839 27.189 C 128.003 27.293, 123.973 27.539, 120.884 27.735 M 46 29.500 C 47.520 31.331, 49.559 31.341, 53.500 29.536 C 56.459 28.181, 56.419 28.161, 50.628 28.081 C 45.516 28.011, 44.916 28.194, 46 29.500 M 58.598 30.560 C 54.801 31.886, 51.526 33.141, 51.318 33.348 C 51.111 33.556, 56.580 38.338, 63.471 43.976 C 70.362 49.614, 76 54.462, 76 54.750 C 76 55.037, 70.547 61.548, 63.881 69.218 C 57.100 77.021, 52.145 83.538, 52.631 84.015 C 53.109 84.484, 59.395 84.968, 66.601 85.090 L 79.702 85.312 95.345 68.406 L 110.989 51.500 111.002 46.500 C 111.009 43.750, 111.301 38.462, 111.652 34.750 L 112.289 28 88.895 28.074 C 66.849 28.145, 65.102 28.288, 58.598 30.560 M 41.403 36.611 L 37.306 38.065 44.403 58.017 C 48.306 68.991, 51.780 77.977, 52.122 77.985 C 52.877 78.003, 72 55.940, 72 55.050 C 72 53.910, 48.141 34.998, 46.805 35.079 C 46.087 35.122, 43.656 35.812, 41.403 36.611 M 97 70.548 C 89.575 78.639, 83.348 85.910, 83.162 86.705 C 82.877 87.927, 79.230 88.100, 59.662 87.825 C 40.597 87.558, 35.969 87.765, 33.500 89 C 30.700 90.400, 31.653 90.518, 47.750 90.774 C 57.237 90.924, 65 91.229, 65 91.452 C 65 91.771, 57.636 124.544, 55.545 133.527 C 55.286 134.642, 49.836 143.863, 43.435 154.017 C 37.033 164.172, 30.934 174.168, 29.882 176.231 L 27.968 179.982 36.734 174.828 C 41.555 171.993, 49.316 167.384, 53.979 164.587 L 62.459 159.500 71.645 142.118 C 78.387 129.360, 82.626 119.651, 87.579 105.618 C 91.290 95.103, 94.848 85.450, 95.485 84.167 C 96.515 82.092, 97.335 84.067, 102.921 102.065 L 109.200 122.295 106.960 144.174 C 105.727 156.207, 104.895 166.203, 105.110 166.387 C 105.324 166.571, 112.700 169.839, 121.500 173.649 L 137.500 180.577 157.846 178.360 C 169.036 177.140, 178.419 175.914, 178.698 175.635 C 178.977 175.356, 178.876 166.965, 178.472 156.988 L 177.739 138.849 174.119 142.207 C 166.701 149.090, 167.170 148.923, 148.401 151.396 C 135.348 153.117, 130.301 153.450, 129.765 152.628 C 129.361 152.008, 129.024 140.654, 129.015 127.397 L 129 103.295 140.706 97.992 C 159.084 89.667, 172.617 83.030, 171.243 83.014 C 170.552 83.006, 165.602 83.644, 160.243 84.431 C 154.885 85.218, 145.325 86.129, 139 86.455 C 132.675 86.781, 123.799 87.301, 119.275 87.612 L 111.050 88.175 110.775 72.007 L 110.500 55.838 97 70.548" stroke="none" fill="black" fill-rule="evenodd"/>
</svg>