<svg xmlns="http://www.w3.org/2000/svg" width="200" height="200" viewBox="0 0 200 200" version="1.1">
	<path d="M 145 19.562 L 121.500 30.949 94.696 29.652 C 70.612 28.487, 65.334 28.536, 42.696 30.138 C 28.838 31.119, 16.712 31.939, 15.750 31.961 C 14.787 31.982, 14 32.607, 14 33.350 C 14 34.814, 20.560 35.370, 52.684 36.628 C 62.135 36.998, 70.408 37.634, 71.068 38.042 C 72.166 38.720, 71.324 44.086, 68.398 55.070 C 68.168 55.933, 66.349 57.417, 64.356 58.367 C 61.128 59.906, 58.543 60.019, 40.729 59.392 L 20.726 58.688 21.342 64.594 C 21.681 67.842, 22.261 95.362, 22.632 125.750 C 23.002 156.138, 23.524 181, 23.793 181 C 24.061 181, 29.597 177.063, 36.096 172.250 L 47.912 163.500 59.206 142.274 C 65.418 130.599, 70.737 121.037, 71.026 121.024 C 71.315 121.011, 73.708 129.700, 76.344 140.334 L 81.136 159.667 93.034 171.534 C 99.578 178.061, 105.095 183.198, 105.294 182.951 C 105.493 182.703, 109.834 170.125, 114.941 155 C 120.048 139.875, 124.513 127.193, 124.863 126.818 C 125.213 126.443, 130.833 130.431, 137.352 135.681 C 147.004 143.453, 148.953 145.450, 147.852 146.440 C 147.108 147.109, 140.689 152.546, 133.588 158.524 C 125.493 165.336, 121.202 169.571, 122.088 169.873 C 132.652 173.470, 166.551 183.782, 166.846 183.488 C 167.062 183.272, 168.529 170.811, 170.107 155.797 C 173.483 123.667, 176.002 67.237, 174.112 66.069 C 173.476 65.676, 165.708 64.100, 156.850 62.567 C 142.176 60.027, 140.139 59.414, 133.921 55.674 C 130.168 53.416, 127.188 51.496, 127.299 51.406 C 127.409 51.316, 138.975 47.089, 153 42.012 C 167.025 36.936, 178.913 32.396, 179.417 31.924 C 182.097 29.417, 174.288 30.025, 120 36.555 C 115.634 37.080, 115.575 37.051, 118 35.584 C 119.375 34.752, 121.556 34.055, 122.846 34.035 C 125.806 33.991, 171.059 10.831, 170.666 9.563 C 170.506 9.047, 169.953 8.524, 169.438 8.400 C 168.922 8.276, 157.925 13.299, 145 19.562 M 54.248 31.986 C 49.160 32.362, 44.768 32.899, 44.489 33.178 C 44.209 33.457, 51.030 33.977, 59.646 34.332 C 68.263 34.688, 75.430 35.096, 75.573 35.239 C 75.716 35.383, 74.811 39.834, 73.562 45.131 L 71.291 54.761 76.396 52.488 C 87.825 47.399, 101.847 40.180, 101.323 39.656 C 101.016 39.349, 102.055 38.825, 103.632 38.493 C 105.209 38.160, 108.525 36.917, 111 35.730 L 115.500 33.571 94 32.379 C 69.928 31.044, 67.331 31.018, 54.248 31.986 M 135.750 37.356 C 121.588 39.057, 110 40.687, 110 40.979 C 110 41.271, 113.073 43.359, 116.829 45.619 L 123.658 49.727 145.079 41.914 C 156.861 37.617, 165.375 34.138, 164 34.183 C 162.625 34.228, 149.912 35.656, 135.750 37.356 M 89.500 49.338 C 70.427 58.546, 70 58.791, 70 60.485 C 70 61.264, 69.254 62.318, 68.343 62.828 C 66.838 63.670, 66.900 64.112, 69.017 67.628 C 70.298 69.757, 71.449 71.643, 71.574 71.817 C 71.699 71.991, 76.326 70.278, 81.857 68.010 L 91.914 63.886 105.307 64.581 L 118.700 65.275 119.324 61.388 C 119.666 59.249, 120.226 56.105, 120.568 54.401 C 121.170 51.401, 120.935 51.152, 113.257 46.651 C 108.894 44.093, 105.139 42.022, 104.912 42.048 C 104.685 42.075, 97.750 45.355, 89.500 49.338 M 123.575 54.142 C 123.330 54.889, 122.705 57.638, 122.186 60.250 L 121.242 65 134.621 65 L 148 65 147.997 78.750 C 147.991 103.138, 146.822 124, 145.461 124 C 144.786 124, 140.476 114.807, 135.883 103.570 C 131.016 91.663, 127.218 83.632, 126.781 84.320 C 126.368 84.969, 126.024 89.183, 126.015 93.685 C 126.007 98.187, 125.519 103.137, 124.930 104.685 C 123.283 109.020, 106.820 137, 105.917 137 C 105.478 137, 104.908 136.660, 104.652 136.245 C 104.395 135.830, 107.264 120.426, 111.027 102.014 C 116.088 77.250, 117.560 68.341, 116.684 67.784 C 116.033 67.369, 110.100 67.017, 103.500 67.001 C 91.920 66.971, 91.185 67.100, 82.500 70.668 C 77.550 72.702, 73.382 74.439, 73.238 74.529 C 73.093 74.618, 76.806 81.570, 81.488 89.978 C 89.542 104.442, 91.064 108, 89.195 108 C 87.546 108, 68.590 94.037, 67.517 92.031 C 66.578 90.278, 65.279 94.293, 59.362 117.223 C 53.933 138.264, 51.944 144.574, 50.662 144.823 C 49.388 145.071, 48.989 144.371, 48.953 141.823 C 48.927 139.995, 47.857 126.350, 46.574 111.500 C 45.292 96.650, 44.396 84.233, 44.583 83.908 C 44.770 83.582, 50.228 81.142, 56.712 78.486 C 63.195 75.829, 68.652 73.544, 68.838 73.407 C 69.024 73.269, 67.998 71.147, 66.559 68.690 L 63.941 64.223 54.773 66.612 C 44.084 69.396, 44 69.405, 44 67.689 C 44 66.950, 46.229 65.807, 49.113 65.068 C 57.046 63.034, 53.277 62.033, 37.630 62.015 L 23.759 62 24.528 74.750 C 24.950 81.763, 25.567 107.359, 25.898 131.631 L 26.500 175.761 36.148 168.750 L 45.796 161.738 58.591 137.869 C 65.628 124.741, 71.647 114, 71.967 114 C 72.286 114, 74.952 123.787, 77.892 135.750 L 83.237 157.500 93.335 167.734 C 98.888 173.363, 103.719 177.638, 104.071 177.234 C 104.422 176.830, 108.891 164.215, 114.003 149.200 C 120.958 128.773, 123.646 122.034, 124.680 122.431 C 126.425 123.100, 152.849 144.292, 152.936 145.092 C 152.971 145.417, 147.150 150.568, 140 156.538 C 132.850 162.508, 127 167.670, 127 168.008 C 127 168.685, 163.998 180.338, 164.507 179.821 C 165.822 178.483, 171.004 115.484, 171.577 93.858 L 172.256 68.215 169.378 67.636 C 167.795 67.318, 160.875 66.095, 154 64.918 C 141.843 62.837, 135.889 60.560, 126.471 54.389 C 124.473 53.080, 123.938 53.034, 123.575 54.142 M 120.520 69.250 C 119.767 71.503, 109.007 126.340, 109.267 126.600 C 109.406 126.740, 112.516 121.599, 116.177 115.177 L 122.833 103.500 123.526 89.315 C 124.022 79.150, 124.585 74.989, 125.513 74.634 C 126.405 74.291, 129.354 80.409, 135.002 94.318 C 139.510 105.418, 143.603 114.927, 144.099 115.450 C 144.635 116.015, 145 106.598, 145 92.200 L 145 68 132.969 68 C 124.233 68, 120.823 68.342, 120.520 69.250 M 58.500 80.619 C 52.450 83.121, 47.405 85.263, 47.290 85.378 C 47.098 85.568, 50.678 129.824, 51.263 134.500 C 51.401 135.600, 54.618 124.463, 58.412 109.750 C 62.207 95.037, 65.630 83, 66.020 83 C 66.410 83, 67.481 84.972, 68.402 87.381 C 69.690 90.756, 71.487 92.766, 76.221 96.131 C 85.514 102.736, 85.637 102.769, 82.829 97.903 C 81.432 95.481, 78.114 89.563, 75.456 84.750 C 72.798 79.938, 70.370 76.015, 70.061 76.034 C 69.753 76.053, 64.550 78.116, 58.500 80.619" stroke="none" fill="black" fill-rule="evenodd"/>
</svg>