<svg xmlns="http://www.w3.org/2000/svg" width="200" height="200" viewBox="0 0 200 200" version="1.1">
	<path d="M 72.365 17.955 C 49.557 25.962, 46.892 27.137, 43.587 30.640 C 39.951 34.493, 26 54.468, 26 55.821 C 26 56.213, 28.699 57.607, 31.998 58.917 C 35.987 60.501, 37.713 61.668, 37.151 62.400 C 32.256 68.770, 11.704 98.546, 11.616 99.395 C 11.552 100.009, 18.587 106.963, 27.250 114.847 C 35.912 122.732, 43 129.545, 43 129.987 C 43 130.430, 40.745 132.239, 37.989 134.007 C 32.483 137.540, 31.113 139.241, 25.662 149.307 L 21.975 156.114 32.220 166.807 C 37.854 172.688, 42.922 177.611, 43.482 177.746 C 44.042 177.882, 57.279 173.302, 72.899 167.569 L 101.297 157.144 100.611 170.809 C 100.181 179.376, 100.277 184.106, 100.868 183.487 C 101.387 182.944, 110.087 169.877, 120.202 154.449 L 138.592 126.398 142.523 99.226 C 144.685 84.281, 146.745 72.379, 147.102 72.777 C 147.884 73.647, 157.006 114.716, 157.002 117.347 C 157.001 118.362, 150.233 130.458, 141.963 144.226 C 133.693 157.994, 127.055 169.371, 127.213 169.509 C 127.742 169.969, 166.626 178, 168.324 178 C 169.246 178, 170 177.661, 170 177.247 C 170 176.833, 172.250 162.592, 175 145.600 L 180 114.705 180 85.975 L 180 57.246 161.250 49.058 L 142.500 40.869 134.800 41.534 L 127.100 42.199 121.881 57.850 L 116.662 73.500 115.037 105.711 C 114.143 123.427, 113.206 138.119, 112.956 138.360 C 112.239 139.048, 85.871 144.205, 85.413 143.746 C 85.187 143.521, 89.096 140.933, 94.098 137.997 C 99.101 135.061, 103.368 132.173, 103.582 131.579 C 103.993 130.434, 106.999 81.768, 107 76.242 C 107 73.381, 106.518 72.791, 103.054 71.405 L 99.107 69.826 103.508 57.201 C 105.928 50.257, 107.817 44.489, 107.704 44.384 C 107.592 44.278, 101.234 42.345, 93.575 40.087 C 85.916 37.830, 79.465 35.799, 79.240 35.574 C 79.015 35.349, 82.155 30.965, 86.217 25.832 C 97.068 12.120, 99.335 8.993, 98.369 9.066 C 97.891 9.102, 86.189 13.102, 72.365 17.955 M 84.500 16.658 C 82.300 17.493, 73.335 20.626, 64.578 23.620 C 50.723 28.357, 48.221 29.547, 45.302 32.782 C 41.973 36.472, 30 53.433, 30 54.458 C 30 54.753, 32.711 56.232, 36.025 57.747 L 42.050 60.500 28.053 80 L 14.056 99.500 16.239 101.331 C 17.439 102.338, 25.148 109.286, 33.369 116.770 C 48.030 130.117, 48.273 130.406, 46.082 131.862 C 35.263 139.045, 33.510 140.732, 29.834 147.500 C 27.742 151.350, 26.046 154.950, 26.064 155.500 C 26.082 156.050, 30.097 160.711, 34.985 165.858 L 43.874 175.217 69.187 165.973 C 83.109 160.889, 96.706 155.870, 99.402 154.819 L 104.304 152.909 103.714 164.104 L 103.123 175.298 108.396 167.399 C 111.297 163.055, 118.660 151.850, 124.760 142.500 L 135.850 125.500 140.431 94.500 C 142.950 77.450, 145.009 63.163, 145.006 62.750 C 145.003 62.337, 145.675 62, 146.500 62 C 147.325 62, 148 62.168, 148 62.372 C 148 62.577, 150.700 74.747, 154 89.417 C 157.300 104.088, 160 116.858, 159.999 117.795 C 159.999 119.148, 146.938 141.724, 132.934 164.580 L 131.048 167.659 149.107 171.413 C 159.040 173.477, 167.276 175.016, 167.408 174.833 C 167.541 174.650, 169.915 159.875, 172.684 142 L 177.718 109.500 177.109 84.125 L 176.500 58.749 159.500 51.336 C 143.369 44.301, 142.168 43.937, 136 44.211 L 129.500 44.500 124.413 59.500 L 119.326 74.500 117.693 107.387 C 116.795 125.474, 115.895 140.438, 115.693 140.640 C 115.398 140.935, 76.451 149, 75.321 149 C 75.144 149, 75 148.383, 75 147.629 C 75 146.874, 80.287 143.065, 86.750 139.162 C 93.213 135.260, 99.107 131.661, 99.849 131.163 C 100.841 130.499, 101.561 124.325, 102.564 107.880 C 104.537 75.562, 104.525 75.196, 101.496 73.816 C 100.118 73.189, 98.751 72.916, 98.456 73.210 C 98.162 73.505, 93.492 86.650, 88.079 102.421 C 82.665 118.193, 77.951 131.383, 77.602 131.732 C 75.590 133.743, 75.427 129.023, 77.077 116.500 C 78.091 108.800, 78.939 102.015, 78.960 101.422 C 78.984 100.779, 69.645 102.476, 55.766 105.638 C 41.108 108.977, 32.181 110.581, 31.582 109.982 C 31.060 109.460, 30.828 108.858, 31.067 108.643 C 31.305 108.429, 41.265 102.523, 53.201 95.520 C 72.102 84.430, 75.279 82.208, 77.827 78.290 C 79.614 75.543, 81.025 74.232, 81.452 74.922 C 81.836 75.544, 80.879 78.082, 79.325 80.563 C 76.885 84.459, 74.146 86.454, 59.239 95.192 C 49.745 100.757, 42.098 105.431, 42.245 105.578 C 42.392 105.725, 51.059 103.863, 61.506 101.441 C 71.953 99.018, 80.895 97.028, 81.379 97.018 C 81.862 97.008, 81.965 99.362, 81.607 102.250 C 81.249 105.138, 80.734 109.525, 80.462 112 C 80.141 114.924, 82.600 109.025, 87.484 95.157 C 91.618 83.419, 95 73.223, 95 72.500 C 95 71.753, 89.844 69.137, 83.040 66.434 C 76.461 63.820, 71.284 61.349, 71.535 60.944 C 71.785 60.538, 77.873 56.965, 85.062 53.004 C 92.252 49.042, 97.947 45.614, 97.718 45.385 C 97.134 44.800, 76.702 37.962, 76.423 38.258 C 76.296 38.391, 70.280 46.150, 63.052 55.500 C 41.997 82.737, 36.786 89.095, 35.788 88.763 C 35.272 88.591, 34.857 88.102, 34.865 87.678 C 34.873 87.253, 46.944 71.538, 61.690 52.756 C 93.820 11.831, 91.470 14.981, 89.807 15.070 C 89.088 15.109, 86.700 15.824, 84.500 16.658 M 89.808 53.350 C 82.827 57.282, 77.427 60.798, 77.808 61.163 C 78.189 61.528, 82.550 63.379, 87.500 65.277 L 96.500 68.727 100.191 58.613 C 103.989 48.206, 104.546 45.927, 103.250 46.100 C 102.838 46.155, 96.789 49.417, 89.808 53.350" stroke="none" fill="black" fill-rule="evenodd"/>
</svg>