<svg xmlns="http://www.w3.org/2000/svg" width="200" height="200" viewBox="0 0 200 200" version="1.1">
	<path d="M 80.607 24.455 L 68.713 34.964 45.107 35.232 C 30.197 35.401, 21.507 35.868, 21.520 36.500 C 21.531 37.050, 26.931 39.044, 33.520 40.931 C 40.109 42.819, 45.615 44.434, 45.756 44.521 C 45.897 44.608, 43.153 54.089, 39.658 65.590 C 34.201 83.542, 33.137 89.197, 35.694 86.639 C 36.365 85.968, 48.993 44.981, 48.997 43.459 C 48.999 42.886, 45.764 41.536, 41.810 40.459 L 34.619 38.500 39.560 37.838 C 42.277 37.473, 50.350 37.133, 57.500 37.081 L 70.500 36.987 81.955 26.877 L 93.410 16.767 118.955 17.413 C 144.274 18.053, 178.111 19.860, 178.920 20.615 C 179.152 20.831, 178.861 29.893, 178.273 40.754 C 177.660 52.094, 177.427 77.529, 177.725 100.500 L 178.244 140.500 173.959 160 C 171.602 170.725, 169.372 179.853, 169.003 180.284 C 168.347 181.050, 137.360 170.522, 135.623 168.943 C 135.140 168.504, 137.344 165.241, 140.520 161.690 L 146.294 155.234 153.147 158.061 C 156.916 159.615, 160 160.722, 160 160.522 C 160 160.321, 156.345 148.084, 151.877 133.328 L 143.754 106.500 143.600 68.520 L 143.446 30.541 132.973 29.252 C 127.213 28.544, 121.375 28.164, 120 28.409 C 118.625 28.653, 107.187 31.716, 94.583 35.215 L 71.666 41.577 71.897 48.538 C 72.024 52.367, 72.212 56.397, 72.314 57.494 C 72.453 58.988, 70.195 61.001, 63.299 65.528 C 58.239 68.850, 53.812 71.855, 53.462 72.205 C 52.901 72.765, 65.845 108.110, 68.035 112 C 68.642 113.078, 71.300 108.465, 77.475 95.619 C 82.203 85.784, 86.222 77.909, 86.406 78.119 C 86.590 78.328, 89.976 84.239, 93.931 91.254 L 101.121 104.009 93.311 119.408 C 85.749 134.316, 85.065 135.279, 71.838 149.653 L 58.176 164.500 41.838 172.831 C 28.191 179.790, 26.077 180.627, 29 177.910 C 46.817 161.353, 48.183 159.796, 59.415 143.253 C 65.787 133.869, 71 125.803, 71 125.330 C 71 124.856, 65.668 119.150, 59.151 112.650 L 47.301 100.832 35.017 108.949 C 28.260 113.413, 22.567 116.900, 22.366 116.699 C 22.164 116.497, 23.799 111.908, 26 106.501 C 30.405 95.674, 30.566 95, 28.750 95 C 28.063 95, 24.960 101.525, 21.855 109.500 C 18.751 117.475, 16.367 124, 16.559 124 C 16.751 124, 23.462 119.725, 31.474 114.500 C 39.486 109.275, 46.377 105, 46.788 105 C 47.199 105, 52.159 109.639, 57.809 115.308 L 68.082 125.617 56.582 142.558 C 45.902 158.291, 44.044 160.452, 30.541 172.851 C 22.543 180.193, 16 186.579, 16 187.041 C 16 187.504, 16.338 188.087, 16.750 188.337 C 17.163 188.588, 27.121 183.722, 38.880 177.524 L 60.260 166.256 73.959 151.378 C 86.941 137.278, 88.040 135.755, 94.954 122.250 C 98.968 114.412, 102.532 108.009, 102.876 108.019 C 103.219 108.030, 109.744 119.280, 117.376 133.019 C 125.008 146.759, 131.343 158, 131.454 158 C 131.565 158, 134.321 149.002, 137.578 138.005 C 140.835 127.008, 143.739 118.008, 144.030 118.005 C 144.586 118, 155.931 155.296, 155.520 155.775 C 155.390 155.926, 153.082 155.105, 150.392 153.950 L 145.500 151.850 143 154.793 C 141.625 156.412, 138.100 160.488, 135.166 163.851 C 129.885 169.905, 129.855 169.976, 132.166 170.976 C 133.450 171.531, 142.600 174.880, 152.500 178.416 C 168.415 184.102, 170.586 184.653, 171.239 183.173 C 171.645 182.253, 173.838 173.175, 176.110 163 L 180.243 144.500 180.127 102.500 C 180.064 79.400, 180.531 51.121, 181.165 39.658 C 182.070 23.310, 182.056 18.652, 181.098 18.061 C 179.631 17.154, 143.750 15.245, 114 14.491 L 92.500 13.946 80.607 24.455 M 122 31.647 C 122 32.145, 126.162 46.538, 131.250 63.632 L 140.500 94.712 140.643 63.954 L 140.787 33.195 136.643 32.620 C 125.163 31.025, 122 30.815, 122 31.647 M 96.763 46.841 C 76.819 59.978, 76.026 60.625, 76.013 63.769 C 76.002 66.653, 76.265 66.975, 78.250 66.505 C 101.448 61.006, 114.457 58.123, 114.750 58.417 C 115.535 59.202, 107.627 97.700, 106.028 100.874 L 104.329 104.249 117.393 127.562 C 124.579 140.385, 130.580 150.753, 130.729 150.604 C 131.637 149.696, 141.989 113.197, 141.938 111.082 C 141.846 107.287, 119.606 33.686, 118.468 33.414 C 117.936 33.286, 108.168 39.329, 96.763 46.841 M 91.500 38.932 C 81.356 41.735, 74.540 44.108, 74.600 44.815 C 74.655 45.467, 74.767 48.475, 74.850 51.500 C 74.933 54.525, 75.338 56.995, 75.750 56.989 C 76.162 56.983, 84.375 51.818, 94 45.512 C 103.625 39.205, 110.825 34.088, 110 34.140 C 109.175 34.192, 100.850 36.348, 91.500 38.932 M 92.500 66.045 C 83.700 68.165, 75.740 69.922, 74.810 69.950 C 73.584 69.986, 73.036 69.017, 72.810 66.412 L 72.500 62.825 64.500 68.031 C 60.100 70.894, 56.405 73.316, 56.289 73.413 C 55.840 73.787, 68.414 106, 69.009 106 C 69.356 106, 73.208 98.357, 77.570 89.016 C 81.931 79.674, 85.725 72.035, 86 72.040 C 86.275 72.044, 88.647 75.975, 91.272 80.774 C 102.873 101.987, 102.705 101.746, 103.949 98.978 C 104.561 97.615, 106.555 88.737, 108.380 79.250 C 111.272 64.211, 111.493 62.012, 110.099 62.095 C 109.219 62.148, 101.300 63.925, 92.500 66.045" stroke="none" fill="black" fill-rule="evenodd"/>
</svg>