<svg xmlns="http://www.w3.org/2000/svg" width="200" height="200" viewBox="0 0 200 200" version="1.1">
	<path d="M 136 14.933 C 126.405 19.990, 97.498 30.368, 81.645 34.449 C 68.198 37.910, 29.558 46, 26.475 46 C 25.134 46, 26.248 48.935, 27.750 49.361 C 33.082 50.873, 41.092 52.241, 41.606 51.727 C 42.681 50.653, 40.924 49, 38.691 48.985 C 37.486 48.976, 35.912 48.596, 35.193 48.140 C 34.386 47.628, 38.017 46.635, 44.693 45.541 C 71.931 41.077, 108.575 30.245, 132.374 19.622 C 135.605 18.180, 138.765 17, 139.397 17 C 140.028 17, 144.354 20.830, 149.010 25.510 C 156.148 32.685, 157.306 34.294, 156.390 35.760 C 154.454 38.860, 151.122 39.722, 138.252 40.455 L 125.604 41.176 118.326 46.338 L 111.048 51.500 111.024 66.457 L 111 81.414 117.250 87.160 L 123.500 92.906 119.986 92.953 L 116.472 93 113.736 102.858 C 110.729 113.693, 110.443 120.851, 111.974 147 L 112.764 160.500 108.789 171.131 L 104.813 181.762 96.089 182.881 C 91.291 183.497, 86.904 184, 86.341 184 C 85.168 184, 85.293 130.018, 86.493 118.417 C 87.167 111.901, 86.956 110.590, 83.863 102.059 L 80.500 92.784 67 93.387 C 35.015 94.816, 24 94.283, 24 91.306 C 24 90.964, 34.012 90.976, 46.250 91.334 C 67.849 91.965, 68.760 91.912, 77.388 89.521 C 82.276 88.166, 86.463 86.870, 86.693 86.640 C 86.923 86.411, 86.782 79.535, 86.379 71.361 L 85.648 56.500 80.206 51.654 L 74.764 46.808 61.132 47.522 C 46.966 48.264, 46 48.432, 46 50.163 C 46 50.871, 50.594 50.999, 60.250 50.558 L 74.500 49.909 79 54.204 L 83.500 58.500 83.824 71.574 L 84.148 84.649 76.337 86.918 C 68.845 89.095, 67.542 89.161, 44.513 88.539 C 31.306 88.183, 19.196 88.273, 17.602 88.740 L 14.703 89.590 21.102 93.428 L 27.500 97.267 53.119 96.629 L 78.737 95.991 81.457 103.653 C 84.016 110.859, 84.138 111.975, 83.508 122.408 C 83.139 128.508, 82.741 145.538, 82.624 160.250 C 82.421 185.704, 82.500 187, 84.264 187 C 89.639 187, 105.650 184.571, 106.597 183.611 C 107.201 183, 109.374 177.944, 111.426 172.375 L 115.157 162.250 114.436 137.726 C 113.736 113.934, 113.785 112.949, 116.058 104.712 L 118.400 96.221 143.166 96.759 C 166.838 97.274, 168.297 97.196, 176.216 94.995 C 180.772 93.728, 184.830 92.409, 185.234 92.063 C 185.637 91.716, 181.064 86.545, 175.071 80.571 L 164.176 69.709 160.728 72.605 C 158.832 74.197, 154.855 77.567, 151.890 80.094 C 147.181 84.107, 145.151 85.040, 135.818 87.479 L 125.136 90.271 119.568 85.514 L 114 80.757 114 66.876 L 114 52.996 119.943 48.621 C 125.610 44.449, 126.295 44.216, 134.693 43.602 C 155.017 42.116, 154.673 42.201, 158.143 37.820 L 161.299 33.834 150.917 23.417 C 145.208 17.688, 140.303 13.020, 140.018 13.044 C 139.733 13.069, 137.925 13.918, 136 14.933 M 155.831 80.441 C 148.983 86.307, 147.472 87.115, 138.906 89.490 C 133.733 90.925, 128.600 92.414, 127.500 92.799 C 126.400 93.185, 134.500 93.742, 145.500 94.038 C 163.034 94.509, 166.467 94.338, 173.344 92.653 L 181.188 90.730 172.866 82.365 C 168.289 77.764, 164.275 74, 163.947 74 C 163.618 74, 159.966 76.898, 155.831 80.441" stroke="none" fill="black" fill-rule="evenodd"/>
</svg>