<svg xmlns="http://www.w3.org/2000/svg" width="200" height="200" viewBox="0 0 200 200" version="1.1">
	<path d="M 171 15.019 C 165.225 15.995, 160.135 16.571, 159.690 16.300 C 159.244 16.029, 157.669 16.289, 156.190 16.878 C 154.710 17.468, 136.259 20.676, 115.186 24.008 L 76.873 30.066 56.849 27.960 C 45.836 26.801, 36.259 26.070, 35.566 26.336 C 34.874 26.602, 30.867 31.539, 26.663 37.308 L 19.019 47.797 20.113 74.148 C 20.811 90.969, 20.898 108.600, 20.354 122.896 L 19.500 145.292 24.618 164.396 C 28.373 178.414, 30.104 183.412, 31.118 183.168 C 31.878 182.986, 39.925 178.612, 49 173.448 L 65.500 164.060 89.149 165.062 L 112.799 166.064 130.627 172.532 C 140.432 176.089, 148.915 178.995, 149.477 178.988 C 151.596 178.963, 173.494 161.332, 173.150 159.928 C 172.958 159.143, 172.592 128.199, 172.337 91.165 C 172.081 54.131, 171.560 22.985, 171.178 21.953 C 170.578 20.330, 169.014 21.307, 159.630 29.166 C 153.084 34.649, 148.511 37.827, 148.108 37.174 C 147.658 36.447, 134.015 35.845, 106.469 35.339 C 61.563 34.513, 58.502 33.193, 101.219 33.074 L 127.938 33 141.788 26.667 C 153.892 21.131, 157.078 20.115, 167.069 18.600 C 181.845 16.360, 183 16.055, 183 14.392 C 183 13.626, 182.662 13.055, 182.250 13.123 C 181.838 13.190, 176.775 14.043, 171 15.019 M 120 25.878 L 97.500 29.500 112.665 29.776 L 127.830 30.051 136.165 26.112 C 140.749 23.945, 144.050 22.191, 143.500 22.215 C 142.950 22.238, 132.375 23.886, 120 25.878 M 162.472 30.363 C 159.157 33.188, 154.515 37.095, 152.157 39.044 L 147.869 42.588 146.176 63.544 C 144.706 81.745, 144.639 87.524, 145.668 107.500 C 146.320 120.150, 146.868 132.075, 146.886 134 C 146.915 137.158, 146.290 137.964, 140.490 142.250 C 136.955 144.862, 133.711 146.983, 133.281 146.962 C 132.852 146.941, 128.948 142.216, 124.606 136.462 L 116.713 126 112.106 126.037 C 108.490 126.067, 103.630 127.863, 89.500 134.392 C 74.258 141.436, 71.390 142.464, 70.784 141.105 C 70.391 140.222, 68.478 131.967, 66.534 122.760 C 63.303 107.456, 62.994 104.538, 62.929 88.760 C 62.890 79.267, 62.547 68.100, 62.168 63.944 L 61.478 56.388 52.239 45.775 C 47.158 39.938, 43 34.914, 43 34.612 C 43 34.310, 43.625 34.303, 44.389 34.596 C 45.152 34.889, 48.640 34.635, 52.139 34.031 C 65.060 31.803, 65.102 31.690, 53.500 30.376 C 35.118 28.296, 37.150 27.605, 29.066 38.688 C 24.403 45.082, 22 49.305, 22 51.107 C 22 52.608, 22.468 63.886, 23.039 76.168 C 23.727 90.949, 23.758 106.277, 23.130 121.500 L 22.181 144.500 26.771 162 C 29.296 171.625, 31.463 179.645, 31.586 179.822 C 31.710 179.999, 39.169 175.925, 48.162 170.768 L 64.512 161.392 88.506 162.268 L 112.500 163.143 130.724 169.646 C 141.176 173.376, 149.493 175.826, 150.224 175.390 C 150.926 174.972, 155.939 171.282, 161.365 167.191 L 171.230 159.752 170.528 153.626 C 170.142 150.257, 169.683 120.130, 169.507 86.677 C 169.332 53.225, 169.033 25.713, 168.844 25.541 C 168.655 25.368, 165.788 27.538, 162.472 30.363 M 62.813 35.683 C 63.534 35.972, 64.397 35.936, 64.729 35.604 C 65.061 35.272, 64.471 35.036, 63.417 35.079 C 62.252 35.127, 62.015 35.364, 62.813 35.683 M 61.083 38.361 C 61.313 38.559, 74.325 41.763, 90 45.479 C 108.788 49.934, 118.941 52.793, 119.794 53.868 C 120.505 54.766, 121.662 56.365, 122.364 57.422 C 123.561 59.225, 124.308 58.789, 134.320 50.438 C 140.194 45.539, 145 41.032, 145 40.421 C 145 39.693, 140.295 39.084, 131.342 38.655 C 117.079 37.971, 60.359 37.733, 61.083 38.361 M 58.415 48.846 L 66.941 58.691 87.014 62.002 C 103.389 64.703, 107.032 65.596, 106.791 66.845 C 106.611 67.780, 104.355 68.908, 100.998 69.743 C 97.974 70.495, 93.802 71.555, 91.727 72.100 L 87.953 73.090 88.637 79.795 C 89.182 85.143, 89.929 87.259, 92.327 90.250 C 93.981 92.313, 95.602 94, 95.928 94 C 96.254 94, 98.064 90.008, 99.950 85.129 C 103.307 76.447, 103.568 76.102, 112.190 69.009 C 117.035 65.023, 120.985 61.253, 120.967 60.631 C 120.948 60.009, 120.064 58.457, 119.001 57.182 C 117.376 55.232, 111.824 53.605, 84.028 46.932 C 65.855 42.569, 50.739 39, 50.438 39 C 50.137 39, 53.726 43.430, 58.415 48.846 M 137 51.658 C 124.363 62.514, 125.080 60.871, 129.951 67.814 L 134.160 73.814 133.436 99.365 L 132.712 124.915 126.277 125.208 L 119.842 125.500 126.448 134.250 C 130.081 139.063, 133.347 143, 133.707 143 C 134.066 143, 136.565 141.538, 139.259 139.750 L 144.157 136.500 143.594 125.500 C 141.919 92.750, 141.865 79.900, 143.332 63.009 C 144.167 53.389, 144.772 45.449, 144.675 45.366 C 144.579 45.283, 141.125 48.115, 137 51.658 M 65.313 84.023 C 65.878 105.919, 66.150 108.531, 69.348 122.806 C 71.235 131.224, 72.940 138.255, 73.139 138.430 C 73.338 138.605, 80.700 135.397, 89.500 131.301 C 98.300 127.205, 107.401 123.549, 109.725 123.177 L 113.950 122.500 105.961 112 C 101.566 106.225, 97.633 101.385, 97.220 101.245 C 96.807 101.105, 94.935 104.817, 93.060 109.495 C 91.185 114.173, 89.123 118, 88.476 118 C 87.285 118, 86.016 104.935, 86.005 92.562 C 86 87.018, 85.688 86.222, 81.303 80.562 C 78.719 77.228, 73.928 71.360, 70.656 67.523 L 64.707 60.547 65.313 84.023 M 71.553 64.122 C 72.624 65.463, 76.200 69.890, 79.500 73.960 L 85.500 81.360 85.796 75.807 L 86.092 70.254 92.098 68.979 C 95.402 68.278, 97.744 67.384, 97.302 66.993 C 96.861 66.602, 91.550 65.507, 85.500 64.560 C 79.450 63.612, 73.399 62.578, 72.053 62.261 L 69.607 61.684 71.553 64.122 M 114.466 70.558 C 106.772 76.892, 106.355 77.459, 102.255 87.176 L 98.010 97.236 107.797 109.868 L 117.583 122.500 123.542 122.144 C 126.819 121.948, 129.619 121.679, 129.764 121.546 C 129.910 121.414, 130.318 110.705, 130.671 97.750 L 131.314 74.196 127.572 69.098 C 125.514 66.294, 123.515 64, 123.131 64 C 122.747 64, 118.847 66.951, 114.466 70.558 M 89 100.700 C 89 106.035, 89.374 109.972, 89.832 109.450 C 90.290 108.927, 91.632 106.097, 92.814 103.160 L 94.964 97.820 92.363 94.410 C 90.933 92.534, 89.591 91, 89.381 91 C 89.172 91, 89 95.365, 89 100.700" stroke="none" fill="black" fill-rule="evenodd"/>
</svg>