<svg xmlns="http://www.w3.org/2000/svg" width="200" height="200" viewBox="0 0 200 200" version="1.1">
	<path d="M 124.192 47.001 C 124.362 66.801, 124.275 82.990, 124 82.976 C 123.550 82.954, 117.977 81.769, 112.373 80.504 C 110.496 80.080, 109.914 78.317, 107.405 65.452 C 104.917 52.690, 104.343 50.939, 102.782 51.347 C 100.490 51.946, 100.471 49.788, 102.750 47.730 C 104.345 46.289, 105.095 46.292, 111.230 47.761 C 114.931 48.648, 118.293 49.040, 118.701 48.632 C 119.790 47.543, 117.527 46.436, 111.419 45.069 C 108.439 44.402, 106 43.617, 106 43.324 C 106 43.031, 109.600 37.683, 114 31.440 C 118.400 25.196, 122 19.618, 122 19.044 C 122 16.222, 119.367 19.057, 111.358 30.505 C 105.239 39.251, 102.142 42.871, 101.055 42.547 C 91.011 39.551, 77.694 36.876, 77.151 37.745 C 71.310 47.096, 61.444 60.775, 60.819 60.388 C 60.368 60.110, 59.993 51.696, 59.985 41.691 C 59.976 31.686, 59.577 22.880, 59.097 22.123 C 58.367 20.971, 56.163 21.131, 45.585 23.103 L 32.944 25.460 30.049 34.980 C 23.934 55.086, 21 65.404, 21 66.804 C 21 67.604, 23.923 72.256, 27.496 77.142 L 33.992 86.026 29.496 116.138 C 27.023 132.699, 25 146.598, 25 147.023 C 25 147.448, 30.738 145.541, 37.750 142.785 C 51.476 137.390, 73.174 129.840, 73.633 130.300 C 73.788 130.455, 67.199 142.713, 58.990 157.541 C 50.782 172.368, 44.051 185.063, 44.033 185.750 C 44.015 186.438, 44.488 187, 45.084 187 C 46.048 187, 82 159.311, 82 158.569 C 82 157.900, 99.248 109.467, 99.631 109.061 C 99.859 108.819, 103.185 109.632, 107.023 110.868 C 111.771 112.397, 114 113.621, 114 114.697 C 114 116.356, 107.918 158.426, 107.653 158.601 C 107.569 158.657, 99.063 164.220, 88.750 170.963 C 78.438 177.706, 70 183.848, 70 184.612 C 70 185.375, 70.204 186, 70.454 186 C 70.704 186, 81.983 181.451, 95.518 175.892 L 120.128 165.783 131.314 169.794 C 137.466 172, 146.146 175.163, 150.602 176.823 L 158.704 179.841 171.602 170.815 C 178.696 165.851, 184.856 161.458, 185.291 161.054 C 185.726 160.649, 178.301 155.679, 168.791 150.008 C 159.281 144.337, 151.325 139.553, 151.111 139.377 C 150.898 139.201, 158.217 128.610, 167.376 115.843 C 176.536 103.076, 183.686 92.324, 183.265 91.950 C 182.844 91.577, 174.625 89.349, 165 87 C 155.375 84.651, 147.193 82.453, 146.818 82.115 C 146.286 81.635, 144.024 58.086, 144.436 57.316 C 144.491 57.214, 149.437 60.944, 155.429 65.604 C 161.421 70.264, 166.656 73.722, 167.063 73.289 C 168.159 72.120, 179.099 40.766, 178.589 40.255 C 178.348 40.015, 170.107 39.335, 160.274 38.745 L 142.397 37.671 133.557 24.336 C 128.695 17.001, 124.530 11, 124.301 11 C 124.072 11, 124.023 27.200, 124.192 47.001 M 127.248 51.494 L 127.500 83.488 143.295 86.507 C 151.983 88.168, 159.031 89.970, 158.958 90.513 C 158.885 91.056, 151.327 102.300, 142.162 115.500 L 125.500 139.500 125.234 112.812 C 124.939 83.219, 125.627 85.915, 118 84.500 C 116.075 84.143, 113.702 83.626, 112.726 83.350 C 111.159 82.908, 111.031 83.340, 111.625 87.058 C 112.510 92.590, 110.200 92.099, 108.283 86.348 L 106.940 82.321 89.921 79.043 C 80.560 77.240, 72.654 76.013, 72.351 76.316 C 72.048 76.619, 73.119 84.752, 74.732 94.391 C 76.943 107.611, 77.364 112.030, 76.446 112.382 C 75.769 112.642, 70.429 106.826, 64.413 99.276 L 53.597 85.703 56.049 78.602 C 58.316 72.033, 58.450 70.599, 57.840 59.500 C 57.476 52.900, 57.139 42.213, 57.090 35.750 C 57.023 27.034, 56.677 24.014, 55.750 24.053 C 53.049 24.167, 35.935 27.732, 35.368 28.299 C 34.536 29.130, 24.016 64.124, 24.007 66.088 C 24.003 66.962, 26.894 71.695, 30.431 76.606 L 36.862 85.535 32.602 114.017 C 30.259 129.683, 28.657 142.631, 29.042 142.791 C 29.428 142.950, 33.289 141.657, 37.622 139.917 C 41.955 138.177, 53.260 134.142, 62.745 130.951 C 78.379 125.692, 79.882 125.353, 78.833 127.325 C 78.196 128.521, 72.118 139.546, 65.325 151.824 C 49.524 180.385, 49.509 180.416, 51.167 179.422 C 51.900 178.982, 58.582 173.808, 66.016 167.923 L 79.531 157.223 88.414 131.862 C 93.299 117.913, 97.589 106.164, 97.946 105.753 C 98.302 105.342, 102.736 106.395, 107.797 108.092 C 116.366 110.966, 116.996 111.362, 116.938 113.839 C 116.904 115.303, 115.441 126.175, 113.688 138 L 110.500 159.500 97.500 168.375 C 90.350 173.256, 85.175 177.019, 86 176.738 C 86.825 176.456, 94.847 173.224, 103.828 169.554 L 120.155 162.882 138.328 169.404 C 148.322 172.991, 156.986 176.055, 157.580 176.213 C 158.174 176.371, 163.719 172.964, 169.902 168.641 L 181.144 160.782 177.822 158.545 C 175.995 157.315, 168.535 152.817, 161.244 148.549 C 153.953 144.281, 147.788 140.466, 147.544 140.071 C 147.300 139.677, 154.278 129.375, 163.050 117.178 C 171.823 104.981, 179 94.659, 179 94.239 C 179 93.818, 171.012 91.455, 161.250 88.987 L 143.500 84.500 142.368 68.500 C 141.746 59.700, 141.401 52.320, 141.603 52.099 C 141.804 51.879, 145.390 54.354, 149.572 57.599 C 153.754 60.845, 159.106 64.965, 161.466 66.755 L 165.756 70.011 170.378 56.920 C 172.920 49.720, 175 43.475, 175 43.043 C 175 42.611, 169.037 41.955, 161.750 41.587 C 139.319 40.454, 141.531 41.396, 133.748 29.671 L 126.995 19.500 127.248 51.494 M 72.697 49.250 C 61.378 65.606, 59.014 69.416, 59.765 70.093 C 60.169 70.459, 62.243 71.068, 64.374 71.447 L 68.248 72.137 67.630 68.819 L 67.012 65.500 82.118 59.540 C 90.915 56.069, 97.419 52.937, 97.690 52.040 C 97.947 51.193, 98.790 49.316, 99.564 47.870 L 100.971 45.240 90.516 42.620 C 84.766 41.179, 79.844 40, 79.579 40 C 79.314 40, 76.217 44.163, 72.697 49.250 M 102.079 56.583 C 102.127 57.748, 102.364 57.985, 102.683 57.188 C 102.972 56.466, 102.936 55.603, 102.604 55.271 C 102.272 54.939, 102.036 55.529, 102.079 56.583 M 84.500 61.546 C 77.350 64.492, 71.200 67.036, 70.832 67.201 C 70.465 67.365, 70.390 68.658, 70.665 70.073 C 71.147 72.552, 71.783 72.764, 88.158 75.914 C 97.504 77.712, 105.323 79.010, 105.534 78.799 C 106.224 78.109, 99.437 56.643, 98.456 56.414 C 97.930 56.292, 91.650 58.601, 84.500 61.546 M 58.630 79.506 C 57.185 84.088, 57.113 85.313, 58.197 86.809 C 62.058 92.136, 73.277 106.052, 73.507 105.797 C 73.654 105.634, 72.637 98.673, 71.246 90.330 C 68.998 76.846, 68.483 75.096, 66.609 74.593 C 61.387 73.192, 60.435 73.778, 58.630 79.506 M 127.127 97.143 C 127.197 103.389, 127.535 113.427, 127.877 119.449 L 128.500 130.398 141.500 111.688 C 148.650 101.397, 154.612 92.645, 154.749 92.239 C 154.886 91.832, 149.261 90.426, 142.249 89.114 C 135.237 87.802, 128.938 86.517, 128.250 86.257 C 127.291 85.896, 127.030 88.432, 127.127 97.143" stroke="none" fill="black" fill-rule="evenodd"/>
</svg>