<svg xmlns="http://www.w3.org/2000/svg" width="200" height="200" viewBox="0 0 200 200" version="1.1">
	<path d="M 37.130 12.241 C 28.748 38.729, 23 58.231, 23 60.180 C 23 61.515, 24.586 67.308, 26.525 73.054 C 28.464 78.799, 30.120 84.400, 30.204 85.500 C 30.288 86.600, 27.309 97.770, 23.584 110.322 C 19.858 122.874, 17.090 133.423, 17.432 133.765 C 17.773 134.107, 22.642 136.955, 28.252 140.094 L 38.451 145.801 55.225 134.346 C 64.451 128.046, 72 123.122, 72 123.404 C 72 123.686, 65.700 137.759, 58 154.678 C 50.300 171.596, 44 185.790, 44 186.219 C 44 188.495, 47.585 185.662, 61.675 172.250 L 77.171 157.500 93.200 157 L 109.229 156.500 118.760 134.334 L 128.292 112.168 132.646 114.283 C 135.041 115.447, 137 116.693, 137 117.053 C 137 117.413, 130.898 129.057, 123.440 142.928 C 107.982 171.679, 108.025 171.588, 110.269 170.727 C 111.158 170.386, 120.799 169.377, 131.693 168.485 L 151.500 166.863 169.449 169.899 C 179.322 171.568, 187.498 172.835, 187.619 172.715 C 188.037 172.296, 183.892 128.558, 183.385 128.052 C 183.106 127.772, 179.055 127.246, 174.383 126.883 C 169.712 126.520, 165.643 125.977, 165.342 125.676 C 165.042 125.375, 169.500 113.287, 175.251 98.814 C 181.001 84.342, 185.435 72.388, 185.103 72.250 C 184.771 72.113, 177.075 75.111, 168 78.912 C 158.925 82.713, 151.356 85.682, 151.180 85.509 C 151.004 85.335, 154.129 79.188, 158.124 71.847 C 162.469 63.862, 169.327 53.421, 175.194 45.857 C 180.587 38.903, 185 33.004, 185 32.749 C 185 32.493, 177.807 29.408, 169.015 25.892 C 159.826 22.218, 153.023 18.943, 153.015 18.191 C 153.007 17.471, 152.531 17.172, 151.958 17.526 C 149.886 18.807, 140.878 14.665, 139.363 11.736 C 137.988 9.076, 135.636 8.792, 136.223 11.357 C 136.713 13.491, 132.735 21.112, 131.399 20.600 C 130.611 20.297, 126.925 25.618, 121.556 34.808 C 116.836 42.889, 112.621 50.052, 112.192 50.727 C 111.580 51.687, 106.520 51.732, 88.955 50.933 L 66.500 49.911 62.720 46.223 C 60.641 44.195, 54.638 35.216, 49.381 26.271 C 44.123 17.327, 39.448 9.777, 38.991 9.495 C 38.535 9.213, 37.697 10.448, 37.130 12.241 M 38.999 15.027 C 38.999 15.287, 35.899 25.499, 32.109 37.721 L 25.220 59.942 29.110 72.221 C 31.249 78.974, 33 85.353, 33 86.396 C 33 87.438, 30.058 98.184, 26.463 110.275 C 22.868 122.366, 20.055 132.357, 20.213 132.476 C 21.948 133.786, 37.462 142, 38.200 142 C 38.741 142, 47.782 136.165, 58.292 129.034 C 68.802 121.903, 77.579 116.246, 77.797 116.463 C 78.014 116.681, 72.908 128.478, 66.449 142.679 C 59.990 156.881, 53.605 170.970, 52.259 173.989 L 49.813 179.479 52.157 177.532 C 53.446 176.462, 59.226 170.960, 65.003 165.306 L 75.506 155.027 91.514 154.367 L 107.522 153.707 117.011 131.370 C 122.230 119.084, 126.850 109.025, 127.279 109.016 C 127.957 109.002, 139.977 114.773, 140.811 115.513 C 140.983 115.665, 135.010 127.152, 127.538 141.038 C 120.067 154.925, 114.149 166.482, 114.387 166.721 C 114.625 166.959, 123.104 166.461, 133.229 165.615 L 151.637 164.077 168.403 166.896 L 185.169 169.716 184.632 166.608 C 184.336 164.899, 183.550 156.433, 182.884 147.795 C 182.218 139.157, 181.393 131.636, 181.050 131.080 C 180.706 130.525, 176.023 129.761, 170.643 129.383 C 161.352 128.730, 160.887 128.589, 161.403 126.597 C 161.702 125.444, 166.192 113.925, 171.381 101 C 176.570 88.075, 180.671 77.352, 180.495 77.171 C 180.320 76.990, 172.428 80.045, 162.959 83.959 C 153.490 87.873, 145.571 90.904, 145.360 90.694 C 144.202 89.536, 164.534 55.186, 172.252 45.262 C 179.834 35.512, 180.743 33.933, 179.234 33.129 C 175.909 31.355, 154.641 23.026, 154.303 23.364 C 154.115 23.551, 155.158 29.424, 156.619 36.415 C 160 52.593, 158.977 54.410, 152.864 43.087 C 150.464 38.640, 148.275 35.003, 148 35.004 C 147.725 35.005, 144.616 42.092, 141.092 50.753 C 137.568 59.414, 133.135 70.212, 131.242 74.750 L 127.800 83 118.358 83 L 108.916 83 105.958 89.593 C 104.331 93.219, 103 96.521, 103 96.930 C 103 97.339, 106.139 99.838, 109.976 102.483 L 116.951 107.293 105.726 119.220 C 99.552 125.781, 91.729 134.152, 88.342 137.824 C 78.541 148.449, 78.741 145.659, 89.568 120.676 C 94.771 108.673, 98.784 98.459, 98.486 97.978 C 98.189 97.496, 93.203 93.704, 87.406 89.549 C 79.080 83.581, 76.365 82.121, 74.475 82.596 C 71.370 83.375, 71.405 83.326, 63.466 98.250 C 59.492 105.720, 56.076 111, 55.215 111 C 53.944 111, 53.844 107.865, 54.476 87.750 C 54.878 74.963, 55.367 64.332, 55.561 64.126 C 55.756 63.920, 60.406 66.957, 65.894 70.876 C 71.383 74.794, 76.329 78, 76.886 78 C 77.442 78, 86.358 74.138, 96.699 69.417 L 115.500 60.834 121.401 47.167 C 132.322 21.873, 132.309 21.729, 120.888 41.276 L 113.161 54.500 108.830 54.304 C 106.449 54.196, 95.629 53.810, 84.786 53.446 L 65.072 52.784 60.744 48.142 C 58.364 45.589, 53.106 37.875, 49.059 31 C 41.529 18.209, 39.001 14.194, 38.999 15.027 M 136.142 20 C 135.052 22.475, 130.789 32.243, 126.670 41.706 L 119.180 58.912 123.155 57.321 C 130.092 54.546, 129.509 57.116, 121.691 63.771 C 116.240 68.412, 113.873 71.241, 112.274 75.024 L 110.139 80.079 118.248 79.789 L 126.356 79.500 136.217 55.500 C 142.195 40.951, 145.871 30.712, 145.551 29.500 C 145.260 28.400, 143.470 24.800, 141.573 21.500 L 138.124 15.500 136.142 20 M 145.240 22.558 L 147.420 27.045 148.800 24.412 C 150.287 21.573, 149.951 20.996, 145.780 19.225 L 143.060 18.070 145.240 22.558 M 150.368 28.056 C 149.467 30.039, 149.640 31.255, 151.286 34.500 C 153.802 39.459, 154.329 38.187, 152.712 31.056 C 151.552 25.939, 151.412 25.759, 150.368 28.056 M 96.830 72.290 C 88.211 76.256, 80.867 79.794, 80.509 80.154 C 80.151 80.514, 84.409 84.057, 89.971 88.029 C 95.534 92, 100.262 95.071, 100.479 94.854 C 101.183 94.150, 105 84.864, 105 83.856 C 105 83.263, 103.227 83.143, 100.500 83.552 C 97.889 83.944, 96 83.834, 96 83.290 C 96 82.775, 99.825 79.096, 104.500 75.116 C 109.175 71.135, 113 67.230, 113 66.439 C 113 65.648, 112.888 65.018, 112.750 65.040 C 112.612 65.062, 105.448 68.325, 96.830 72.290 M 57.649 75.779 C 57.300 79.475, 57.018 87.450, 57.022 93.500 L 57.030 104.500 62.602 94 C 65.667 88.225, 69.297 82.553, 70.670 81.397 L 73.165 79.293 66.833 74.819 C 63.350 72.358, 60.001 70.055, 59.392 69.701 C 58.650 69.270, 58.074 71.277, 57.649 75.779 M 105.490 78.010 C 102.877 80.738, 102.804 81, 104.652 81 C 105.870 81, 107.157 79.951, 107.877 78.371 C 109.568 74.659, 108.810 74.545, 105.490 78.010 M 95.089 114.750 C 85.537 136.815, 85.550 136.781, 87.290 135 C 96.072 126.009, 112 108.588, 112 107.974 C 112 107.324, 102.572 100, 101.735 100 C 101.591 100, 98.601 106.638, 95.089 114.750" stroke="none" fill="black" fill-rule="evenodd"/>
</svg>