<svg xmlns="http://www.w3.org/2000/svg" width="200" height="200" viewBox="0 0 200 200" version="1.1">
	<path d="M 138.683 8.650 C 138.308 9.026, 137.944 13.196, 137.876 17.917 C 137.807 22.637, 137.470 29.552, 137.126 33.283 L 136.500 40.065 125.139 27.533 C 118.890 20.640, 113.555 15, 113.282 15 C 113.010 15, 113.062 25.913, 113.399 39.250 C 113.817 55.781, 113.691 62.863, 113.006 61.500 C 112.453 60.400, 110.729 56.350, 109.175 52.500 L 106.350 45.500 94.053 38.637 C 86.275 34.296, 81.512 32.171, 81.091 32.853 C 80.724 33.447, 79.144 41.935, 77.579 51.716 C 76.014 61.497, 74.396 69.874, 73.985 70.332 C 73.573 70.790, 69.470 68.742, 64.868 65.781 C 60.266 62.820, 55.938 60.057, 55.250 59.640 C 54.463 59.163, 54 59.452, 54 60.422 C 54 61.787, 72.510 74.722, 75.264 75.281 C 75.918 75.414, 77.626 67.893, 79.610 56.143 C 81.409 45.497, 83.063 36.604, 83.286 36.380 C 83.510 36.157, 88.312 38.568, 93.958 41.737 L 104.224 47.500 109.350 60.250 C 116.945 79.143, 117.384 78.354, 116.578 47.250 L 115.910 21.500 120.705 26.688 C 123.342 29.542, 128.064 34.741, 131.199 38.241 L 136.898 44.605 135.986 64.053 C 135.484 74.749, 135.069 87.100, 135.063 91.500 L 135.051 99.500 143.711 103.231 C 148.474 105.283, 152.519 106.814, 152.700 106.633 C 152.881 106.453, 153.319 95.664, 153.674 82.658 C 154.274 60.668, 154.192 58.869, 152.499 56.999 C 151.498 55.893, 150.864 54.829, 151.089 54.636 C 151.315 54.442, 155.164 53.870, 159.642 53.365 L 167.783 52.446 172.892 69.120 C 175.701 78.291, 178 86.748, 178 87.914 C 178 90.469, 167.979 131.210, 167.111 132.186 C 166.775 132.564, 160.936 130.431, 154.136 127.448 C 147.335 124.464, 141.485 122.201, 141.136 122.418 C 140.786 122.635, 136.450 128.468, 131.500 135.380 C 126.550 142.292, 122.239 147.959, 121.920 147.973 C 121.601 147.988, 120.363 139.788, 119.168 129.750 C 116.802 109.884, 109.562 79, 107.271 79 C 105.590 79, 105.411 80.085, 102.517 107.953 L 99.976 132.407 111.135 149.203 C 117.272 158.442, 122.402 166, 122.535 166 C 122.668 166, 133.175 161.270, 145.883 155.489 L 168.990 144.978 175.995 149.636 C 179.848 152.197, 182.979 154.565, 182.953 154.897 C 182.927 155.229, 178.519 161.125, 173.156 168 L 163.407 180.500 138.953 181.216 L 114.500 181.931 96.197 173.761 L 77.893 165.591 78.421 162.045 C 78.711 160.095, 79.694 148.600, 80.604 136.500 L 82.260 114.500 77.212 101.314 C 73.539 91.719, 70.786 86.307, 67.099 81.438 C 63.987 77.326, 61.857 75.278, 61.574 76.124 C 61.320 76.881, 59.598 87.504, 57.748 99.731 L 54.382 121.962 62.832 126.854 L 71.282 131.745 53.391 146.524 C 43.551 154.652, 34.551 162.153, 33.391 163.193 C 31.290 165.077, 31.257 165.056, 25.047 157.792 C 21.618 153.781, 18.596 149.974, 18.330 149.331 C 18.065 148.688, 22.786 139.577, 28.822 129.085 L 39.796 110.007 31.772 93.754 L 23.747 77.500 27.002 68 C 29.854 59.677, 43.978 24.742, 45.926 21.192 C 46.374 20.377, 49.039 24.798, 53.010 32.942 C 56.512 40.124, 59.967 46, 60.688 46 C 61.410 46, 62 45.796, 62 45.547 C 62 45.298, 58.617 38.015, 54.482 29.364 C 49.994 19.973, 46.606 14.011, 46.074 14.568 C 44.656 16.053, 29.627 52.340, 25.023 65.396 L 20.828 77.291 28.414 93.207 C 32.586 101.960, 36 109.588, 36 110.157 C 36 110.727, 31.275 119.400, 25.500 129.430 C 19.725 139.461, 15 148.230, 15 148.917 C 15 150.334, 29.835 168, 31.024 168 C 31.629 168, 71.836 135.359, 75.329 132.031 C 75.786 131.597, 72.073 128.903, 67.079 126.045 C 59.714 121.831, 58 120.409, 58 118.514 C 58 116.730, 61.606 91.816, 63.265 82.132 C 63.757 79.265, 69.882 89.991, 74.346 101.534 C 79.752 115.513, 79.712 114.878, 77.098 145.500 C 76.111 157.050, 75.576 166.818, 75.909 167.207 C 76.241 167.595, 84.610 171.602, 94.507 176.110 L 112.500 184.307 133.500 184.135 C 145.050 184.040, 156.892 183.691, 159.816 183.358 L 165.132 182.753 176.004 168.680 C 181.983 160.940, 186.677 154.287, 186.436 153.896 C 186.194 153.504, 182.213 150.615, 177.590 147.474 L 169.183 141.764 146.342 152.224 L 123.500 162.684 113.167 147.232 L 102.834 131.780 105.125 109.885 C 106.385 97.843, 107.723 88.556, 108.098 89.245 C 110.426 93.521, 114.232 112.654, 116.652 132.250 C 118.197 144.762, 119.717 155, 120.030 155 C 120.343 155, 125.455 148.297, 131.392 140.104 L 142.185 125.207 155.343 130.999 C 162.579 134.184, 168.747 136.499, 169.048 136.145 C 169.350 135.790, 172.248 124.642, 175.489 111.371 L 181.381 87.242 176.036 69.871 C 173.097 60.317, 170.340 51.797, 169.911 50.938 C 169.210 49.533, 168.048 49.521, 158.343 50.816 L 147.555 52.255 143.964 48.085 L 140.373 43.916 140.816 26.888 C 141.224 11.215, 140.690 6.644, 138.683 8.650 M 140 50.441 C 140 52.348, 140.518 53, 142.035 53 C 143.741 53, 143.902 52.685, 143.030 51.056 C 141.360 47.936, 140 47.660, 140 50.441 M 141.750 55.716 C 139.138 56.112, 138.994 56.419, 138.884 61.816 C 138.820 64.942, 138.482 74.208, 138.134 82.406 L 137.500 97.312 143.843 100.156 C 147.332 101.720, 150.369 103, 150.593 103 C 150.817 103, 151 93.178, 151 81.174 C 151 59.653, 150.968 59.318, 148.686 57.174 C 147.413 55.978, 145.950 55.067, 145.436 55.150 C 144.921 55.232, 143.262 55.487, 141.750 55.716" stroke="none" fill="black" fill-rule="evenodd"/>
</svg>