<svg xmlns="http://www.w3.org/2000/svg" width="200" height="200" viewBox="0 0 200 200" version="1.1">
	<path d="M 91.128 22.308 L 81.757 24.354 82.389 29.927 C 82.737 32.992, 83.311 45.002, 83.663 56.615 L 84.305 77.730 77.152 81.979 C 73.219 84.316, 70 86.783, 70 87.461 C 70 88.959, 41.296 90.429, 33.500 89.330 C 24.995 88.131, 31.740 87.210, 49.833 87.100 C 62.420 87.023, 66.072 86.713, 65.752 85.750 C 65.143 83.914, 46.398 83.569, 29.209 85.079 C 17.313 86.123, 14.967 86.591, 15.214 87.871 C 15.436 89.025, 18.465 89.851, 27.368 91.185 C 37.115 92.647, 41.653 92.810, 52.863 92.103 C 65.773 91.289, 66.996 91.377, 75.801 93.767 C 83.408 95.832, 84.985 96.584, 84.461 97.896 C 84.108 98.778, 83.860 116.182, 83.908 136.571 L 83.996 173.641 72.248 174.828 C 65.787 175.481, 54.521 176.306, 47.213 176.663 C 34.522 177.283, 31.097 178.181, 34.122 180.096 C 35.719 181.108, 138.930 181.307, 162.163 180.344 L 177.826 179.694 170.163 170.326 L 162.500 160.958 152.775 161.325 L 143.051 161.693 132.007 168.995 C 125.933 173.011, 120.786 176.118, 120.569 175.899 C 120.352 175.679, 118.946 171.225, 117.444 166 C 114.877 157.073, 114.749 155.686, 115.312 143 C 115.642 135.575, 115.496 123.728, 114.988 116.673 L 114.065 103.846 119.258 97.365 L 124.451 90.885 132.975 91.422 C 148.510 92.399, 181 93.167, 181 92.556 C 181 91.936, 173.056 75.815, 172.397 75.097 C 172.194 74.875, 167.602 73.946, 162.193 73.033 L 152.358 71.371 142.429 79.174 C 136.968 83.465, 132.213 86.982, 131.863 86.988 C 131.512 86.995, 127.336 84.931, 122.581 82.401 L 113.937 77.803 114.605 64.651 C 114.973 57.418, 116.030 45.963, 116.955 39.196 L 118.636 26.892 111.177 23.446 C 102.703 19.531, 103.615 19.583, 91.128 22.308 M 92.629 24.817 L 84.758 26.391 85.370 32.445 C 85.707 35.775, 86.281 47.574, 86.646 58.663 L 87.309 78.827 81.405 82.534 C 78.157 84.572, 74.375 86.946, 73 87.808 C 70.524 89.360, 70.577 89.396, 78.500 91.530 L 86.500 93.685 86.682 134.791 L 86.864 175.898 82.682 176.441 C 80.382 176.740, 77.150 177.146, 75.500 177.342 C 73.850 177.539, 82.768 177.768, 95.317 177.850 C 118.079 178, 118.133 177.995, 117.468 175.898 C 112.608 160.588, 112.713 161.455, 112.526 135 C 112.427 120.975, 112.026 108.122, 111.635 106.437 C 111.001 103.709, 111.587 102.559, 116.979 95.944 C 120.309 91.858, 123.774 88.255, 124.677 87.938 C 125.810 87.540, 123.963 86.148, 118.732 83.455 L 111.144 79.549 111.641 67.024 C 111.915 60.136, 112.782 49.874, 113.569 44.220 C 115.778 28.350, 115.889 28.853, 109.478 25.708 C 103.256 22.657, 103.399 22.665, 92.629 24.817 M 143.916 81.432 L 134.697 88.500 143.599 89.144 C 157.888 90.178, 176 90.110, 176 89.022 C 176 88.484, 174.808 85.615, 173.352 82.645 L 170.704 77.245 161.919 75.804 L 153.135 74.363 143.916 81.432 M 134 171 L 123.500 177.996 147.800 177.998 C 168.082 178, 171.967 177.774, 171.300 176.632 C 170.860 175.879, 168.475 172.751, 166 169.679 L 161.500 164.095 153 164.049 L 144.500 164.004 134 171" stroke="none" fill="black" fill-rule="evenodd"/>
</svg>