<svg xmlns="http://www.w3.org/2000/svg" width="200" height="200" viewBox="0 0 200 200" version="1.1">
	<path d="M 109.545 11.083 C 109.259 11.862, 106.854 22.850, 104.200 35.500 C 99.440 58.191, 99.340 58.504, 96.738 58.812 C 94.799 59.041, 92.101 57.618, 86.550 53.440 C 82.398 50.315, 78.998 47.025, 78.995 46.129 C 78.993 45.233, 73.604 39.834, 67.020 34.132 C 60.436 28.429, 54.543 23.154, 53.924 22.408 C 53.305 21.662, 62.493 25.766, 74.342 31.526 C 86.191 37.287, 96.399 42, 97.026 42 C 100.875 42, 94.372 38.218, 70.671 26.674 C 52.594 17.869, 43.616 13.984, 42.929 14.671 C 42.243 15.357, 45.374 18.730, 52.604 25.093 C 58.483 30.267, 64.689 35.786, 66.396 37.357 L 69.500 40.214 66 37.781 C 64.075 36.442, 58.101 32.055, 52.724 28.032 C 47.348 24.009, 42.793 20.894, 42.603 21.109 C 42.412 21.324, 41.961 23.538, 41.600 26.029 L 40.944 30.558 54.023 36.434 C 65.289 41.495, 77.949 49.557, 88.917 58.654 C 89.146 58.844, 89.009 59.324, 88.612 59.721 C 88.216 60.118, 87.570 59.922, 87.177 59.287 C 86.785 58.652, 75.799 55.459, 62.765 52.192 L 39.067 46.251 27.453 63.195 C 20.660 73.107, 16.070 80.740, 16.395 81.588 C 16.825 82.708, 20.863 81.072, 34.225 74.365 L 51.500 65.694 70.500 63.884 C 93.812 61.662, 93.022 61.666, 95.680 63.772 C 97.710 65.381, 97.786 65.878, 96.793 71 C 96.206 74.025, 95.407 76.858, 95.018 77.296 C 94.628 77.733, 84.307 75.778, 72.082 72.952 C 59.857 70.125, 49.642 68.024, 49.383 68.284 C 48.823 68.843, 46.115 120.320, 46.615 120.896 C 46.918 121.245, 82.938 126.881, 85.500 126.980 C 86.485 127.018, 70.411 135.023, 56.258 141.543 C 50.791 144.061, 49.163 145.261, 49.615 146.439 C 50.095 147.691, 51.967 148, 59.068 148 C 64.883 148, 68.308 148.429, 69.048 149.250 C 70.693 151.076, 80.895 174.467, 80.140 174.683 C 79.788 174.783, 66.450 175.588, 50.500 176.470 C 17.773 178.281, 15 178.585, 15 180.353 C 15 181.318, 22.586 181.899, 47.250 182.823 C 91.887 184.494, 116.706 184.294, 150.500 181.991 C 166.450 180.905, 180.287 180.012, 181.250 180.008 C 182.213 180.003, 183 179.325, 183 178.500 C 183 177.675, 182.438 176.996, 181.750 176.990 C 172.572 176.918, 119.053 167.626, 109.006 164.361 C 108.185 164.094, 119.787 159.104, 134.790 153.271 C 149.792 147.439, 161.714 142.365, 161.283 141.996 C 160.852 141.627, 154.875 139.664, 148 137.634 C 141.125 135.604, 130.842 132.463, 125.149 130.655 L 114.798 127.367 133.149 118.800 L 151.500 110.234 154.542 104.867 C 156.216 101.915, 161.012 92.912, 165.201 84.860 L 172.818 70.219 165.930 58.734 L 159.042 47.249 150.021 47.763 C 145.029 48.048, 141.018 47.880, 141.040 47.389 C 141.062 46.900, 142.562 39.635, 144.374 31.245 C 147.115 18.551, 147.388 16.244, 146.002 17.498 C 145.085 18.328, 137.855 26.400, 129.935 35.437 C 122.014 44.473, 115.323 51.657, 115.067 51.400 C 114.810 51.143, 114.063 42.131, 113.406 31.373 C 112.322 13.613, 111.057 6.965, 109.545 11.083 M 105.898 40.524 C 103.957 49.861, 102.398 57.555, 102.434 57.622 C 102.470 57.689, 104.677 58.060, 107.337 58.446 L 112.175 59.149 111.450 44.522 C 110.298 21.261, 109.955 21.014, 105.898 40.524 M 127.865 41.847 C 117.712 53.400, 113.731 58.583, 114.865 58.771 C 115.764 58.920, 125.158 59.628, 135.741 60.345 C 146.323 61.062, 155.256 61.922, 155.591 62.258 C 156.961 63.628, 154.273 65.059, 138.018 71.610 C 128.658 75.382, 121.006 78.700, 121.014 78.984 C 121.021 79.268, 128.001 84.741, 136.523 91.147 L 152.019 102.795 144.760 104.381 C 130.965 107.395, 92.723 115, 91.364 115 C 89.239 115, 89.698 104.187, 92.350 91.750 C 93.611 85.838, 94.538 81, 94.409 81 C 94.280 81, 84.609 78.752, 72.917 76.004 C 61.225 73.256, 51.579 71.118, 51.480 71.254 C 51.243 71.580, 49.188 118.442, 49.400 118.698 C 49.490 118.807, 59.562 120.370, 71.782 122.170 C 84.002 123.971, 94 125.708, 94 126.031 C 94 126.353, 85.577 130.641, 75.282 135.559 L 56.565 144.500 63.956 145.500 L 71.347 146.500 78.013 161.500 L 84.680 176.500 81.657 177.161 C 79.994 177.525, 71.404 178.191, 62.567 178.643 C 47.692 179.402, 47.056 179.510, 54 180.101 C 75.671 181.944, 158.672 180.322, 161.301 178.005 C 161.741 177.616, 159.266 177.019, 155.801 176.677 C 149.344 176.040, 103.994 166.603, 100.633 165.197 C 99.255 164.621, 105.676 161.712, 125.133 154.098 C 139.635 148.424, 152.077 143.467, 152.782 143.083 C 153.553 142.663, 151.960 141.744, 148.782 140.776 C 122.001 132.614, 109.384 128.608, 108.763 128.067 C 108.357 127.714, 117.357 123.105, 128.763 117.825 L 149.500 108.224 153.309 101.362 C 155.404 97.588, 159.940 89.040, 163.389 82.366 L 169.660 70.231 163.580 60.043 L 157.500 49.855 147.750 50.535 C 136.260 51.337, 136.931 52.627, 140.450 36.508 C 141.769 30.462, 142.771 25.444, 142.675 25.355 C 142.579 25.267, 135.914 32.688, 127.865 41.847 M 44.177 27.528 C 44.446 28.803, 55 34.664, 55 33.539 C 55 32.974, 45.327 26, 44.543 26 C 44.164 26, 43.999 26.688, 44.177 27.528 M 32 61.150 C 27.875 67.308, 23.621 73.693, 22.546 75.340 C 20.723 78.134, 21.562 77.825, 35.083 70.736 L 49.573 63.137 62.537 62.014 C 82.491 60.285, 82.490 60.288, 64 55.440 C 54.925 53.061, 45.700 50.854, 43.500 50.535 L 39.500 49.956 32 61.150 M 101.345 62.543 C 101.019 63.392, 100.921 64.216, 101.126 64.375 C 101.332 64.534, 105.165 67.423, 109.644 70.796 L 117.788 76.928 132.859 70.763 C 141.148 67.372, 147.797 64.463, 147.633 64.300 C 147.354 64.021, 107.583 61.045, 103.719 61.014 C 102.739 61.006, 101.671 61.694, 101.345 62.543 M 99.083 73.049 C 98.487 75.826, 98 78.284, 98 78.511 C 98 78.737, 99.891 79.432, 102.203 80.055 C 105.427 80.923, 107.289 80.895, 110.203 79.933 C 112.291 79.244, 114 78.389, 114 78.033 C 114 77.351, 101.596 68, 100.691 68 C 100.402 68, 99.678 70.272, 99.083 73.049 M 112.038 82.120 C 108.128 83.853, 106.977 83.954, 102.734 82.936 C 100.071 82.297, 97.736 81.938, 97.546 82.137 C 96.552 83.179, 93 102.678, 93 107.091 C 93 111.896, 93.141 112.184, 95.250 111.691 C 96.487 111.402, 108.188 108.991, 121.250 106.333 C 134.313 103.675, 144.983 101.275, 144.962 101 C 144.918 100.421, 117.484 79.965, 116.894 80.071 C 116.677 80.109, 114.492 81.032, 112.038 82.120" stroke="none" fill="black" fill-rule="evenodd"/>
</svg>