<svg xmlns="http://www.w3.org/2000/svg" width="200" height="200" viewBox="0 0 200 200" version="1.1">
	<path d="M 77.631 15.665 C 77.324 16.674, 75.542 23.125, 73.671 30.001 C 68.187 50.150, 52.642 78.317, 36.922 96.591 C 31.551 102.834, 29.343 106.094, 30.149 106.592 C 30.883 107.046, 32.640 105.819, 34.699 103.416 C 55.407 79.237, 70.148 53.464, 76.480 30.363 C 78.385 23.411, 80.089 17.578, 80.265 17.402 C 80.441 17.225, 84.994 18.446, 90.382 20.115 L 100.178 23.148 102.740 28.743 L 105.302 34.339 102.651 42.479 C 101.193 46.956, 100 50.864, 100 51.164 C 100 51.464, 106.862 51.961, 115.250 52.267 L 130.500 52.825 139.758 46.913 C 144.849 43.661, 149.607 41, 150.330 41 C 151.053 41, 155.775 43.010, 160.823 45.467 L 170 49.933 170 55.934 C 170 61.240, 169.267 63.470, 163.659 75.217 C 156.153 90.939, 147.811 104.427, 136.275 119.492 C 117.587 143.897, 92.346 160.788, 51.283 176.365 C 44.564 178.914, 37.589 180.997, 35.783 180.993 C 32.908 180.987, 33.863 180.229, 43.470 174.888 C 67.155 161.723, 87.002 145.631, 101.283 128.013 C 105.782 122.463, 110.432 117.679, 111.617 117.381 C 113.051 117.021, 113.620 116.263, 113.319 115.113 C 113.060 114.123, 115.564 109.111, 119.184 103.374 C 122.658 97.868, 128.180 88.187, 131.456 81.859 L 137.411 70.355 135.956 62.427 L 134.500 54.500 119.468 53.692 L 104.436 52.884 92.968 59.274 L 81.500 65.665 78.500 74.368 C 76.306 80.734, 75.817 83.268, 76.680 83.802 C 77.329 84.203, 83.954 85.866, 91.401 87.497 L 104.941 90.462 107.047 99.981 C 108.206 105.216, 109.334 110.175, 109.554 111 C 110.379 114.093, 108.248 115.048, 97.680 116.321 L 87 117.608 81.406 103.304 C 78.330 95.437, 75.517 89, 75.154 89 C 74.792 89, 69.952 90.299, 64.398 91.886 C 55.008 94.570, 53.574 95.341, 43.901 102.905 C 33.835 110.776, 33.341 111.030, 28.567 110.818 C 22.981 110.569, 21.207 112.391, 26.086 113.367 C 32.513 114.653, 33.931 114.064, 44.836 105.583 C 54.820 97.819, 56.376 96.969, 64.883 94.638 C 71.620 92.792, 74.230 92.433, 74.568 93.306 C 74.822 93.962, 77.232 100.125, 79.923 107 L 84.817 119.500 89.658 119.493 C 92.321 119.489, 97.088 119.184, 100.250 118.815 L 106 118.144 98.932 126.822 C 84.641 144.366, 64.929 159.914, 38.500 174.487 C 30.800 178.733, 24.072 182.610, 23.550 183.103 C 22.985 183.637, 25.879 184, 30.692 184 C 37.945 184, 40.117 183.495, 51.642 179.133 C 82.667 167.389, 104.239 155.263, 120.942 140.179 C 136.607 126.032, 154.599 100.605, 166.542 75.736 C 171.506 65.400, 172.254 63.034, 172.707 56.236 L 173.223 48.500 161.633 42.766 L 150.042 37.032 140.050 43.516 L 130.058 50 121.779 49.991 C 117.226 49.987, 111.188 49.705, 108.361 49.365 L 103.222 48.748 105.671 41.464 L 108.120 34.179 105.310 27.572 L 102.500 20.966 93 18.041 C 78.557 13.595, 78.273 13.551, 77.631 15.665 M 94.076 61.807 L 83.652 67.599 81.333 74.473 C 80.058 78.254, 79.148 81.482, 79.312 81.645 C 79.476 81.809, 85.660 83.337, 93.055 85.040 C 100.450 86.744, 106.784 88.444, 107.130 88.819 C 107.477 89.193, 108.521 93.100, 109.450 97.500 C 112.194 110.498, 111.654 110.244, 117.369 101.226 C 120.191 96.772, 125.155 88.037, 128.401 81.814 C 134.191 70.712, 134.289 70.392, 133.579 64.749 C 132.510 56.251, 132.037 55.999, 117.179 56.007 L 104.500 56.015 94.076 61.807" stroke="none" fill="black" fill-rule="evenodd"/>
</svg>