<svg xmlns="http://www.w3.org/2000/svg" width="200" height="200" viewBox="0 0 200 200" version="1.1">
	<path d="M 68.419 27.935 L 51.500 43.932 42.309 43.966 C 36.680 43.987, 32.852 44.431, 32.431 45.112 C 31.442 46.712, 32.103 46.984, 50.402 52.500 C 59.525 55.250, 66.992 57.805, 66.995 58.177 C 66.998 58.550, 56.557 68, 43.793 79.177 L 20.585 99.500 29.631 99.785 L 38.676 100.071 54.588 90.943 C 75.065 79.197, 75.403 79.045, 69.639 84.200 L 64.778 88.548 75.281 98.274 L 85.784 108 95.999 108 C 104.903 108, 106.136 108.203, 105.607 109.582 C 105.273 110.452, 105 117.442, 105 125.117 L 105 139.070 102.205 135.785 C 81.692 111.677, 75.583 104.946, 74.565 105.337 C 73.901 105.591, 68.844 108.720, 63.327 112.288 C 54.396 118.066, 51.279 119.412, 34.898 124.570 C 24.779 127.756, 16.143 130.661, 15.707 131.025 C 15.270 131.389, 23.595 134.973, 34.207 138.990 C 44.818 143.007, 53.656 146.421, 53.847 146.577 C 54.037 146.733, 46.500 155.766, 37.097 166.650 C 21.278 184.961, 18.368 189, 20.994 189 C 21.540 189, 31.110 184.445, 42.259 178.878 L 62.532 168.757 76.953 149.322 C 84.885 138.632, 91.686 129.694, 92.066 129.459 C 92.446 129.224, 95.624 132.500, 99.129 136.739 C 102.633 140.978, 107.217 146.258, 109.315 148.473 C 112.758 152.107, 123.935 168.411, 134.476 185.176 C 138.014 190.803, 138.493 191.225, 138.822 189 C 140.513 177.575, 146.962 138.717, 147.199 138.522 C 147.364 138.386, 155.150 135.219, 164.500 131.484 C 173.850 127.749, 181.837 124.403, 182.248 124.049 C 182.659 123.694, 175.029 122.190, 165.291 120.707 L 147.586 118.010 136.043 111.039 C 129.694 107.205, 123.863 103.642, 123.084 103.122 C 121.970 102.378, 123.512 100.201, 130.334 92.890 C 135.100 87.782, 139 83.330, 139 82.996 C 139 82.662, 132.250 81.089, 124 79.500 L 109 76.611 109 67.247 C 109 60.028, 109.286 58.051, 110.250 58.620 C 118.133 63.272, 132.950 74.203, 149.698 87.720 C 160.934 96.788, 170.268 104.048, 170.442 103.854 C 170.615 103.659, 170.924 95.902, 171.128 86.616 L 171.500 69.731 147.500 61.368 C 134.300 56.768, 122.900 53.003, 122.167 53.002 C 121.433 53.001, 121.001 53.502, 121.205 54.115 C 121.409 54.728, 132.134 58.897, 145.038 63.381 L 168.500 71.533 168.842 75.016 C 169.030 76.932, 168.876 83.088, 168.500 88.695 L 167.815 98.891 147.657 82.692 C 136.571 73.783, 123.345 63.795, 118.266 60.497 L 109.031 54.500 109.016 49.451 L 109 44.401 130.967 41.028 L 152.934 37.654 161.717 41.577 L 170.500 45.500 145.500 46.111 C 131.750 46.446, 120.388 46.784, 120.250 46.861 C 120.112 46.937, 120 47.450, 120 48 C 120 48.637, 128.079 48.997, 142.250 48.993 C 167.329 48.985, 178.251 48.254, 177.706 46.619 C 177.508 46.023, 171.980 43.116, 165.422 40.161 L 153.500 34.788 131.500 38.209 L 109.500 41.630 109.223 27.815 C 108.996 16.537, 108.679 14, 107.494 14 C 106.286 14, 105.998 17.197, 105.772 33.074 L 105.500 52.147 101.500 49.235 C 97.696 46.465, 97.236 45.516, 92.133 29.911 C 89.181 20.885, 86.444 13.148, 86.051 12.719 C 85.659 12.289, 77.724 19.136, 68.419 27.935 M 68 31.971 C 53.192 46.201, 52.299 46.880, 48 47.183 C 43.819 47.477, 44.547 47.817, 58.258 51.975 C 66.375 54.436, 72.900 56.734, 72.758 57.081 C 72.616 57.428, 62.825 66.153, 51 76.469 C 39.175 86.786, 29.073 95.626, 28.550 96.114 C 27.989 96.637, 29.834 96.997, 33.050 96.993 C 38.228 96.986, 39.774 96.258, 64 82.428 C 78.025 74.422, 89.894 67.787, 90.375 67.685 C 90.856 67.583, 91.430 67.983, 91.650 68.574 C 91.870 69.165, 86.796 73.883, 80.375 79.058 L 68.700 88.467 77.600 96.733 L 86.500 104.998 96.250 104.999 L 106 105 106 92.793 L 106 80.585 95.400 48.793 C 89.570 31.307, 84.507 17.017, 84.150 17.038 C 83.792 17.059, 76.525 23.779, 68 31.971 M 100.930 55.751 C 101.975 58.363, 103.525 62.075, 104.376 64 L 105.922 67.500 105.948 61.500 C 105.974 55.739, 105.837 55.411, 102.502 53.251 L 99.030 51.001 100.930 55.751 M 109 79.885 C 109 82.656, 115.530 99.214, 116.915 99.955 C 118.327 100.710, 120.153 99.384, 126.526 92.974 C 130.853 88.621, 134.192 84.868, 133.947 84.633 C 133.134 83.856, 109 79.263, 109 79.885 M 108 96.683 C 108 104.703, 108.022 104.771, 110.750 105.311 C 114.315 106.017, 117.449 103.425, 114.828 101.938 C 113.909 101.416, 112.391 98.629, 111.456 95.744 C 108.811 87.593, 108 87.813, 108 96.683 M 117.508 105.992 C 116.288 107.339, 114.425 108, 111.845 108 L 108 108 108.001 125.250 L 108.002 142.500 113.751 149.541 C 116.913 153.413, 123.300 162.602, 127.944 169.960 C 132.839 177.717, 136.591 182.742, 136.873 181.919 C 137.140 181.139, 138.966 170.620, 140.931 158.544 L 144.503 136.588 158.252 131.115 C 165.813 128.105, 172 125.362, 172 125.021 C 172 124.680, 166.303 123.580, 159.339 122.575 L 146.678 120.750 135.089 113.721 C 128.715 109.855, 122.561 106.082, 121.413 105.338 C 119.583 104.150, 119.101 104.231, 117.508 105.992 M 64 114.980 C 55.154 120.595, 51.142 122.391, 38.526 126.380 C 30.291 128.984, 23.402 131.264, 23.219 131.448 C 23.036 131.631, 26.624 133.199, 31.193 134.932 C 52.493 143.010, 58 145.253, 57.998 145.853 C 57.998 146.209, 51.038 154.578, 42.532 164.450 C 34.026 174.323, 27.226 182.559, 27.420 182.753 C 27.614 182.947, 35.136 179.426, 44.136 174.930 L 60.500 166.753 75.250 147.027 C 83.362 136.178, 90 126.962, 90 126.547 C 90 125.683, 77.769 110.846, 75.801 109.323 C 74.853 108.589, 71.652 110.123, 64 114.980" stroke="none" fill="black" fill-rule="evenodd"/>
</svg>