<svg xmlns="http://www.w3.org/2000/svg" width="200" height="200" viewBox="0 0 200 200" version="1.1">
	<path d="M 134 13.976 C 124.944 18.108, 119.154 19.748, 91.907 25.898 C 74.531 29.820, 56.531 34.113, 51.907 35.437 C 47.283 36.762, 41.588 38.348, 39.250 38.961 C 36.698 39.631, 35 40.661, 35 41.539 C 35 42.787, 39.229 43, 64 43 C 89.111 43, 93 42.799, 93 41.500 C 93 40.213, 89.765 39.987, 70.250 39.909 L 47.500 39.818 53.500 37.913 C 56.800 36.865, 73.900 32.788, 91.500 28.853 C 115.959 23.384, 125.592 20.783, 132.379 17.812 C 137.263 15.674, 141.444 14.111, 141.670 14.337 C 142.164 14.831, 139.259 28.616, 138.026 31.627 C 137.547 32.796, 130.145 38.587, 121.578 44.494 C 108.032 53.834, 103.514 58, 106.928 58 C 107.806 58, 119.012 56.613, 127.320 55.477 L 131.140 54.954 129.330 58.018 C 127.480 61.150, 126.137 61.757, 120 62.230 L 116.500 62.500 111.917 76.272 C 107.443 89.716, 107.007 90.522, 93.638 110.016 C 86.105 121, 79.713 130.585, 79.432 131.317 C 79.083 132.226, 83.204 134.650, 92.466 138.984 C 99.916 142.470, 106.158 145.137, 106.338 144.911 C 107.373 143.608, 120.943 121.672, 121.211 120.868 C 121.668 119.497, 154.548 114.687, 158.352 115.434 C 160.084 115.774, 163.271 116.847, 165.435 117.820 L 169.370 119.587 148.704 131.544 C 137.338 138.120, 128.044 143.725, 128.052 144 C 128.059 144.275, 137.719 151.219, 149.518 159.431 C 161.318 167.643, 170.832 174.501, 170.661 174.672 C 170.490 174.843, 161.384 174.272, 150.425 173.403 C 118.849 170.899, 90.214 173.096, 45 181.491 C 43.115 181.841, 43.361 181.547, 46 180.294 C 61.884 172.757, 93 155.562, 93 154.321 C 93 153.020, 89.699 152.923, 67.012 153.557 L 41.024 154.283 42.485 149.391 C 43.289 146.701, 45.533 139.799, 47.473 134.054 C 49.413 128.308, 51 123.041, 51 122.349 C 51 121.494, 48.868 120.997, 44.344 120.796 L 37.688 120.500 61.594 113.085 C 74.742 109.007, 85.866 105.356, 86.314 104.972 C 87.187 104.222, 80.930 80.015, 79.861 80.005 C 79.509 80.002, 67.872 85.400, 54 92 C 40.128 98.600, 28.559 104, 28.291 104 C 28.022 104, 32.886 99.766, 39.099 94.592 L 50.396 85.184 50.152 75.342 C 49.774 60.084, 49.563 59.425, 44.662 58.244 C 41.513 57.485, 46.912 57.211, 66.833 57.120 C 87.413 57.026, 93.076 56.727, 92.750 55.750 C 92.431 54.793, 84.921 54.438, 60.667 54.236 C 33.301 54.008, 29 54.172, 29 55.447 C 29 56.894, 35.018 59.162, 42.658 60.596 C 44.584 60.957, 46.311 61.758, 46.496 62.376 C 46.681 62.994, 47.074 68.074, 47.369 73.665 L 47.906 83.830 31.894 97.056 C 21.236 105.861, 16.217 110.617, 16.881 111.281 C 17.546 111.946, 27.931 107.498, 47.944 97.977 C 64.479 90.111, 78.175 83.860, 78.380 84.087 C 79.400 85.216, 83.804 102.580, 83.199 103.086 C 82.815 103.409, 77.325 105.287, 71 107.260 C 32.340 119.322, 27 121.180, 27 122.562 C 27 123.720, 29.020 124, 37.379 124 L 47.757 124 42.883 139.250 C 40.202 147.638, 38.007 155.092, 38.004 155.816 C 38.001 156.888, 42.511 157.003, 62.250 156.434 C 75.588 156.050, 86.275 155.956, 86 156.225 C 84.221 157.962, 47.576 176.479, 38.760 180.095 C 32.852 182.518, 28.015 185.063, 28.010 185.750 C 28.004 186.438, 28.447 187, 28.994 187 C 29.541 187, 42.704 184.785, 58.244 182.078 C 97.860 175.177, 118.786 173.951, 153.913 176.474 C 167.741 177.467, 179.254 178.079, 179.499 177.834 C 179.744 177.589, 169.409 170.015, 156.532 161.001 C 143.656 151.988, 133.303 144.318, 133.527 143.956 C 133.751 143.594, 143.168 137.943, 154.454 131.399 C 165.740 124.855, 174.980 119.263, 174.987 118.972 C 174.994 118.682, 170.921 116.933, 165.935 115.085 L 156.869 111.726 139.768 114.363 C 130.362 115.813, 122.474 116.807, 122.239 116.573 C 121.730 116.063, 129.093 82.788, 129.924 81.847 C 130.241 81.488, 137.243 86.992, 145.484 94.078 C 157.149 104.108, 160.724 106.689, 161.628 105.731 C 169.086 97.827, 184.868 78.496, 184.274 77.993 C 183.848 77.632, 173.825 75.199, 162 72.585 C 132.169 65.992, 132.648 66.129, 133.930 64.584 C 134.633 63.737, 140.377 62.839, 150.414 62.007 C 158.887 61.305, 166.349 60.402, 166.996 60.002 C 167.845 59.478, 167.447 57.842, 165.570 54.138 C 162.586 48.250, 163.070 48.363, 148.436 50.161 C 143.240 50.800, 138.746 51.080, 138.450 50.784 C 138.154 50.488, 142.028 44.296, 147.058 37.025 C 157.513 21.913, 157.836 19.143, 148.351 25.935 C 145.152 28.226, 142.376 29.628, 142.183 29.050 C 141.991 28.473, 142.771 24.007, 143.917 19.126 C 146.263 9.132, 146.285 8.965, 145.250 9.093 C 144.838 9.144, 139.775 11.341, 134 13.976 M 144.366 32.019 C 141.277 34.208, 140.062 35.858, 139.557 38.545 C 139.186 40.524, 138.623 42.898, 138.306 43.821 C 137.845 45.161, 145.746 34.456, 148.466 30.055 C 149.398 28.547, 148.989 28.743, 144.366 32.019 M 124.500 45.779 L 112.500 54.232 119.500 53.575 C 134.550 52.163, 133.531 52.737, 135.304 44.660 C 136.164 40.741, 136.785 37.487, 136.684 37.430 C 136.583 37.373, 131.100 41.130, 124.500 45.779 M 144.500 53.277 C 136.209 54.306, 135.041 54.977, 135.015 58.725 C 135.002 60.600, 135.432 60.877, 137.750 60.487 C 139.262 60.233, 145.660 59.547, 151.966 58.963 C 158.272 58.379, 163.577 57.757, 163.754 57.580 C 163.930 57.403, 163.536 56.075, 162.877 54.629 C 161.512 51.634, 159.133 51.459, 144.500 53.277 M 128.813 64.683 C 129.534 64.972, 130.397 64.936, 130.729 64.604 C 131.061 64.272, 130.471 64.036, 129.417 64.079 C 128.252 64.127, 128.015 64.364, 128.813 64.683 M 118 66.952 C 120.813 69.207, 121.628 69.411, 122.457 68.069 C 123.155 66.940, 122.411 66.478, 118.500 65.613 L 115.500 64.949 118 66.952 M 124.775 69.595 C 123.846 71.634, 123.978 72.266, 125.582 73.449 C 127.774 75.067, 128.488 74.579, 129.361 70.864 C 129.856 68.760, 129.567 68.120, 127.933 67.693 C 126.439 67.302, 125.585 67.817, 124.775 69.595 M 131.550 73.515 C 131.165 76.082, 130.996 78.285, 131.175 78.409 C 131.354 78.533, 137.961 84.182, 145.857 90.963 L 160.213 103.292 164.357 98.431 C 166.636 95.757, 171.080 90.629, 174.233 87.035 C 177.386 83.441, 179.973 80.271, 179.983 79.991 C 179.992 79.711, 170.213 77.311, 158.250 74.657 C 146.287 72.003, 135.544 69.610, 134.375 69.339 C 132.508 68.906, 132.165 69.412, 131.550 73.515 M 114.881 75.502 C 113.991 78.526, 113.369 81, 113.498 81 C 114.511 81, 119.028 72.516, 118.604 71.411 C 117.597 68.785, 116.506 69.983, 114.881 75.502 M 115.898 82.290 C 112.817 86.806, 109.804 92.075, 109.203 94 C 108.393 96.596, 105 117.069, 105 119.365 C 105 119.532, 107.987 119.179, 111.637 118.580 C 116.780 117.737, 118.436 117.042, 118.993 115.496 C 119.389 114.398, 121.437 105.745, 123.546 96.266 L 127.379 79.032 125.015 76.516 C 123.715 75.132, 122.392 74.018, 122.076 74.040 C 121.759 74.062, 118.979 77.775, 115.898 82.290 M 93.429 115.160 C 86.353 125.607, 82.951 131.452, 83.778 131.740 C 84.482 131.985, 89.554 134.385, 95.050 137.073 L 105.043 141.959 107.973 137.230 C 109.584 134.628, 112.477 130.025, 114.401 127 C 118.491 120.571, 118.002 120.159, 108.390 121.936 C 105.239 122.518, 102.457 122.790, 102.207 122.540 C 101.956 122.290, 102.486 117.045, 103.385 110.885 C 104.283 104.724, 104.869 99.536, 104.688 99.354 C 104.506 99.173, 99.440 106.285, 93.429 115.160" stroke="none" fill="black" fill-rule="evenodd"/>
</svg>