<svg xmlns="http://www.w3.org/2000/svg" width="200" height="200" viewBox="0 0 200 200" version="1.1">
	<path d="M 101.937 21.495 C 99.497 28.367, 97.275 33.969, 97 33.943 C 96.725 33.916, 92.675 29.385, 88 23.874 C 78.108 12.212, 77.404 11.537, 76.561 12.901 C 76.222 13.450, 80.472 19.145, 86.006 25.556 C 94.068 34.896, 95.939 37.638, 95.422 39.356 C 95.067 40.535, 90.102 54.266, 84.388 69.869 L 74 98.239 74 109.540 L 74 120.841 76.750 121.366 C 78.263 121.655, 85.125 122.386, 92 122.990 C 98.875 123.595, 105.443 124.286, 106.596 124.525 C 108.527 124.927, 109.029 123.684, 112.978 108.730 C 115.336 99.804, 119.018 86.741, 121.161 79.702 C 123.305 72.663, 124.794 66.475, 124.470 65.952 C 124.130 65.401, 125.864 65, 128.588 65 C 132.650 65, 134.850 64.052, 144.638 58.085 L 155.982 51.170 166.991 54.807 C 173.046 56.808, 178 58.708, 178 59.029 C 178 59.351, 174.776 61.163, 170.834 63.057 C 165.177 65.775, 161.757 68.464, 154.584 75.831 L 145.500 85.161 140.352 102.072 L 135.204 118.982 136.996 124.741 C 137.982 127.908, 139.293 132.373, 139.909 134.663 C 140.971 138.607, 141.793 139.309, 155.516 148.010 C 163.484 153.062, 170.153 157.488, 170.337 157.847 C 170.520 158.206, 168.797 164.487, 166.506 171.804 L 162.342 185.108 150.549 175.911 C 136.544 164.989, 113.920 148.995, 112.503 149.013 C 111.951 149.020, 105.650 153.105, 98.500 158.089 C 82.276 169.400, 83.016 169.026, 68.060 173.489 C 57.478 176.647, 32.104 182.092, 28.596 181.958 C 26.895 181.893, 33.088 178.751, 50.500 170.845 C 63.322 165.023, 69.238 161.606, 80.283 153.641 C 87.864 148.174, 94.305 143.316, 94.596 142.845 C 94.887 142.374, 90.710 137.505, 85.313 132.027 L 75.500 122.065 61.116 128.032 C 53.205 131.315, 46.618 134, 46.480 134 C 45.924 134, 37.667 119.517, 37.669 118.545 C 37.670 117.970, 41.570 110.521, 46.335 101.990 L 55 86.480 55 75.740 L 55 65 44.250 64.913 L 33.500 64.826 50 61.295 C 59.075 59.353, 66.784 57.314, 67.132 56.764 C 68.441 54.692, 76.276 22.943, 75.636 22.303 C 74.305 20.971, 73.234 23.752, 69.487 38.282 C 67.390 46.412, 65.185 53.654, 64.587 54.375 C 63.256 55.981, 46.426 59.582, 27.082 62.400 C 18.049 63.716, 12.509 64.967, 12.249 65.750 C 11.930 66.710, 15.066 67, 25.770 67 C 33.435 67, 42.473 67.289, 45.853 67.642 L 52 68.285 52 77.296 L 52 86.307 42.976 102.490 L 33.952 118.672 39.226 127.796 C 42.127 132.814, 45.006 136.938, 45.625 136.960 C 46.243 136.982, 52.712 134.525, 60 131.500 C 67.288 128.475, 73.767 126, 74.399 126 C 76.386 126, 91.513 141.892, 90.463 142.876 C 89.933 143.373, 84.338 147.510, 78.028 152.070 C 69.663 158.115, 62.488 162.215, 51.528 167.214 C 29.791 177.128, 16.017 184.316, 16.008 185.750 C 15.998 187.348, 14.238 187.541, 36.358 183.522 C 46.886 181.609, 61.800 178.188, 69.500 175.918 C 83.246 171.867, 83.758 171.612, 97.680 161.896 C 105.478 156.453, 112.116 152, 112.430 152 C 113.690 152, 133.387 166.085, 147.813 177.302 C 156.235 183.850, 163.374 188.959, 163.678 188.656 C 164.323 188.011, 174.089 156.737, 173.737 156.442 C 173.607 156.333, 166.729 151.933, 158.454 146.665 L 143.408 137.086 140.760 127.969 L 138.111 118.851 142.953 102.956 L 147.794 87.060 155.647 78.421 C 162.812 70.538, 164.487 69.285, 174.766 64.124 L 186.032 58.468 170.982 53.256 L 155.931 48.045 144.533 55.022 C 133.771 61.610, 132.800 62, 127.155 62 L 121.176 62 111.785 51.250 C 106.620 45.337, 102.065 39.956, 101.663 39.290 C 101.261 38.625, 102.747 31.797, 104.966 24.118 C 109.566 8.197, 109.421 9, 107.687 9 C 106.911 9, 104.563 14.102, 101.937 21.495 M 99.631 43.742 C 98.688 46.998, 96.833 61.166, 97.290 61.623 C 97.539 61.872, 102.083 61.946, 107.388 61.788 L 117.033 61.500 108.587 51.742 C 102.141 44.295, 100.019 42.400, 99.631 43.742 M 93.955 51.683 C 93.271 53.782, 88.948 65.602, 84.349 77.950 L 75.988 100.399 76.641 109.700 C 77.243 118.257, 77.463 119.004, 79.398 119.045 C 80.554 119.069, 87.125 119.693, 94 120.431 C 100.875 121.169, 106.559 121.711, 106.631 121.636 C 106.703 121.561, 108.868 113.625, 111.443 104 C 114.018 94.375, 117.424 82.315, 119.012 77.201 C 120.600 72.086, 121.649 67.249, 121.343 66.451 C 120.895 65.283, 118.173 65, 107.393 65 C 92.041 65, 92.995 65.806, 95.069 54.586 C 96.324 47.796, 95.728 46.243, 93.955 51.683" stroke="none" fill="black" fill-rule="evenodd"/>
</svg>