<svg xmlns="http://www.w3.org/2000/svg" width="200" height="200" viewBox="0 0 200 200" version="1.1">
	<path d="M 31.561 35.030 C 28.922 47.147, 26.415 61.209, 25.991 66.280 C 25.566 71.351, 22.947 85.400, 20.170 97.500 C 17.393 109.600, 14.681 121.456, 14.145 123.847 L 13.169 128.194 31.085 127.469 C 40.938 127.071, 49 126.992, 49 127.294 C 49 127.596, 42.894 137.597, 35.432 149.518 C 27.969 161.439, 21.606 171.864, 21.291 172.684 C 20.939 173.600, 24.532 172.249, 30.609 169.179 C 37.789 165.553, 44.850 163.048, 56.366 160.042 C 65.093 157.763, 72.446 156.113, 72.707 156.373 C 72.967 156.634, 71.696 161.377, 69.881 166.914 C 67.782 173.318, 66.930 177.323, 67.540 177.921 C 68.146 178.514, 76.619 171.288, 90.500 158.340 L 112.500 137.819 113.133 147.660 C 113.480 153.072, 113.818 161.438, 113.883 166.250 C 113.985 173.897, 114.221 174.992, 115.750 174.939 C 116.713 174.905, 123.125 173.662, 130 172.177 L 142.500 169.476 142.500 145.769 L 142.500 122.062 149.743 137.281 C 153.727 145.652, 159.127 157.091, 161.743 162.702 C 164.359 168.313, 166.725 172.922, 167 172.945 C 167.275 172.967, 169.715 165.452, 172.423 156.243 C 175.131 147.034, 177.523 138.987, 177.738 138.359 C 177.954 137.732, 170.954 129.182, 162.183 119.359 C 147.199 102.578, 146.365 101.434, 148.368 100.408 C 149.541 99.808, 158.003 96.492, 167.174 93.041 C 189.558 84.615, 189.227 84, 162.310 84 C 151.048 84, 141.983 83.620, 142.167 83.155 C 142.350 82.691, 145.169 76.630, 148.432 69.687 L 154.364 57.063 164.426 50.363 C 169.961 46.678, 174.042 43.518, 173.495 43.341 C 172.948 43.164, 165.582 40.998, 157.126 38.527 L 141.752 34.035 131.732 23.462 C 126.221 17.646, 121.389 13.251, 120.995 13.694 C 120.600 14.137, 116.776 22.150, 112.496 31.500 C 108.216 40.850, 104.216 49.009, 103.607 49.631 C 102.998 50.253, 99.078 51.054, 94.896 51.410 C 88.953 51.916, 87.035 51.747, 86.116 50.639 C 85.469 49.860, 79.103 44.819, 71.970 39.439 C 63.918 33.366, 59 28.985, 59 27.887 C 59 25.747, 57.034 24.327, 56.119 25.807 C 55.724 26.447, 51.801 24.109, 46.266 19.935 C 41.208 16.121, 36.910 13, 36.715 13 C 36.519 13, 34.200 22.914, 31.561 35.030 M 38 18.372 C 38 18.576, 35.975 27.908, 33.500 39.111 C 31.025 50.313, 29 61.896, 29 64.852 C 29 67.808, 26.300 82.311, 23 97.082 C 19.700 111.852, 17 124.223, 17 124.572 C 17 125.464, 41.669 124.666, 42.590 123.744 C 43.006 123.328, 43.553 112.190, 43.806 98.994 C 44.176 79.688, 44.531 75, 45.622 75 C 46.368 75, 49.319 75.889, 52.180 76.976 C 55.040 78.063, 57.496 78.837, 57.637 78.696 C 57.778 78.555, 58.668 72.823, 59.613 65.959 C 61.327 53.523, 61.325 53.437, 59.033 42.374 L 56.732 31.270 48.032 24.635 C 40.141 18.616, 38 17.280, 38 18.372 M 116.008 30.500 C 112.623 37.650, 108.942 45.611, 107.829 48.190 C 105.823 52.838, 105.755 52.886, 100.153 53.491 C 97.044 53.827, 92.813 54.344, 90.750 54.639 L 87 55.176 87 60.581 L 87 65.987 101.614 73.307 L 116.228 80.627 100.614 84.552 C 92.026 86.710, 85 88.768, 85 89.124 C 85 89.481, 90.632 93.083, 97.515 97.128 C 106.695 102.523, 109.875 104.884, 109.453 105.991 C 108.613 108.188, 80.657 155.991, 80.376 155.709 C 80.246 155.579, 78.756 142.878, 77.066 127.486 C 75.376 112.094, 73.503 96.734, 72.903 93.353 L 71.812 87.206 66.261 85.081 C 63.208 83.913, 60.555 83.111, 60.367 83.300 C 60.178 83.488, 59.194 89.348, 58.179 96.321 C 57.164 103.294, 56.033 109.300, 55.667 109.667 C 53.929 111.404, 53.851 108.077, 55.363 96.777 C 56.266 90.024, 57.004 83.798, 57.003 82.941 C 57.001 81.951, 55.175 80.798, 52 79.783 L 47 78.184 47 85.933 C 47 90.195, 46.705 100.504, 46.344 108.841 L 45.688 124 49.844 124 C 52.130 124, 54 124.241, 54 124.535 C 54 124.829, 48.629 133.579, 42.065 143.979 C 26.005 169.424, 26.818 167.631, 32.689 164.666 C 36.708 162.638, 73.840 152, 76.903 152 C 77.434 152, 76.352 156.500, 74.500 162 C 72.648 167.500, 71.323 172, 71.555 172 C 71.788 172, 81.545 163.034, 93.239 152.076 C 109.662 136.685, 114.638 132.533, 115.107 133.826 C 115.441 134.747, 115.966 143.525, 116.274 153.334 C 116.582 163.142, 117.018 171.352, 117.244 171.577 C 117.579 171.912, 127.156 170.087, 138.636 167.500 C 140.588 167.061, 140.740 166.483, 140.406 160.760 C 140.206 157.317, 139.849 143.588, 139.615 130.250 C 139.266 110.448, 139.433 106, 140.527 106 C 142.012 106, 142.344 106.887, 144.023 115.351 C 144.711 118.821, 149.455 130.212, 155.683 143.351 C 161.458 155.533, 166.286 165.606, 166.411 165.736 C 166.536 165.865, 168.536 159.635, 170.857 151.891 L 175.076 137.811 168.288 130.242 C 153.987 114.294, 142 100.509, 142.007 100.015 C 142.010 99.732, 149.323 96.800, 158.257 93.500 L 174.500 87.500 156.685 86.851 C 146.886 86.494, 138.671 86.004, 138.428 85.761 C 138.185 85.518, 141.323 78.385, 145.402 69.910 L 152.817 54.500 159.898 50 C 163.792 47.525, 166.983 45.235, 166.989 44.910 C 166.995 44.586, 161.042 42.569, 153.760 40.430 L 140.520 36.539 131.342 27.019 L 122.164 17.500 116.008 30.500 M 61.016 35.691 C 61.024 36.136, 62.080 40.325, 63.362 45 C 66.023 54.700, 65.587 54.435, 76.991 53.267 L 84.482 52.500 73.991 44.424 C 62.239 35.377, 60.993 34.539, 61.016 35.691 M 78.500 55.685 C 69.116 56.502, 68.918 56.888, 76 60.546 C 79.575 62.392, 82.838 63.925, 83.250 63.951 C 83.662 63.978, 84 61.975, 84 59.500 C 84 57.025, 83.662 55.076, 83.250 55.168 C 82.838 55.261, 80.700 55.493, 78.500 55.685 M 62.038 68.571 C 61.341 74.453, 61.164 79.515, 61.640 79.930 C 63.080 81.185, 69.030 83.303, 69.578 82.755 C 70.092 82.242, 64.575 59.242, 63.738 58.405 C 63.495 58.161, 62.730 62.736, 62.038 68.571 M 67.529 61.248 C 73.611 85.335, 73.603 85.319, 80.608 87.414 C 82.518 87.985, 82.776 87.548, 83.349 82.772 C 83.698 79.873, 83.987 75.238, 83.991 72.473 L 84 67.446 75.480 63.220 C 67.478 59.252, 66.995 59.132, 67.529 61.248 M 86.593 70.619 C 85.476 73.529, 85.934 85, 87.167 85 C 88.682 85, 108.122 79.779, 107.769 79.467 C 107.621 79.337, 102.929 76.945, 97.343 74.152 C 88.973 69.968, 87.081 69.347, 86.593 70.619 M 75.398 91.211 C 75.764 93.020, 77.375 106.139, 78.978 120.364 C 80.582 134.589, 82.071 146.405, 82.288 146.622 C 82.731 147.064, 106 107.451, 106 106.254 C 106 105.424, 82.336 91.165, 77.617 89.152 L 74.734 87.922 75.398 91.211" stroke="none" fill="black" fill-rule="evenodd"/>
</svg>