<svg xmlns="http://www.w3.org/2000/svg" width="200" height="200" viewBox="0 0 200 200" version="1.1">
	<path d="M 97.600 28.600 C 82.366 39.399, 69.777 48.069, 69.624 47.867 C 69.472 47.665, 68.320 45.700, 67.064 43.500 C 63.417 37.113, 46.561 12.064, 45.887 12.031 C 45.550 12.014, 40.461 23.122, 34.578 36.715 L 23.883 61.431 25.985 69.965 L 28.087 78.500 21.673 105.500 C 16.029 129.259, 15.453 132.573, 16.879 133.105 C 17.771 133.438, 25.587 134.303, 34.250 135.029 C 42.912 135.754, 50 136.518, 50 136.727 C 50 136.936, 42.123 147.746, 32.495 160.748 C 21.390 175.744, 15.338 184.738, 15.943 185.343 C 16.548 185.948, 22.239 181.946, 31.508 174.398 C 39.544 167.854, 46.902 161.942, 47.860 161.261 C 49.314 160.225, 52.849 161.105, 69.361 166.617 C 80.229 170.245, 89.277 173.052, 89.468 172.856 C 89.659 172.660, 87.642 162.825, 84.986 151 L 80.156 129.500 83.759 107 C 85.740 94.625, 87.432 84.386, 87.518 84.246 C 87.605 84.106, 93.711 86.295, 101.088 89.110 L 114.500 94.228 121.500 92.982 C 125.350 92.297, 129.063 91.523, 129.750 91.261 C 131.115 90.742, 131.490 97.298, 130.407 102.716 C 129.861 105.447, 129.329 105.772, 123.681 106.822 C 117.693 107.936, 117.293 108.218, 106.739 118.772 L 95.929 129.582 96.993 153.041 C 97.577 165.943, 98.303 179.298, 98.604 182.717 L 99.152 188.934 118.066 179.467 C 128.469 174.260, 137.627 170, 138.419 170 C 139.210 170, 147.826 173.613, 157.566 178.030 C 167.305 182.446, 175.396 185.934, 175.546 185.780 C 176.140 185.169, 178.154 116.899, 177.838 108.082 L 177.500 98.665 160.055 94.012 C 150.460 91.453, 143.035 89.117, 143.555 88.819 C 144.075 88.522, 148.775 87.474, 154 86.490 C 162.239 84.939, 164.998 83.838, 174.783 78.200 C 180.989 74.624, 185.939 71.324, 185.783 70.868 C 185.468 69.944, 151.920 44.985, 151.050 45.027 C 150.747 45.041, 147.153 49.991, 143.061 56.027 C 138.970 62.062, 135.462 67, 135.266 67 C 134.618 67, 136.181 59.649, 139.084 49.046 L 141.947 38.592 140.334 28.879 C 137.187 9.927, 135.619 12.612, 134.133 39.500 C 133.210 56.199, 132.465 62.335, 130.496 69.459 C 128.792 75.619, 128.341 78.741, 129.051 79.451 C 129.761 80.161, 130.378 80.017, 131.026 78.992 C 131.717 77.899, 131.973 78.487, 131.985 81.191 C 131.993 83.221, 131.620 85.117, 131.155 85.404 C 130.291 85.938, 68.943 69.724, 68.847 68.936 C 68.580 66.744, 70.432 57, 71.115 57 C 71.602 57, 72 57.540, 72 58.200 C 72 59.101, 72.285 59.115, 73.144 58.256 C 74.004 57.396, 73.966 56.333, 72.996 53.990 C 71.917 51.386, 71.935 50.649, 73.101 49.548 C 74.386 48.335, 117.908 17.363, 120.739 15.647 C 121.521 15.173, 121.814 15.376, 121.535 16.198 C 121.292 16.914, 117.880 29.875, 113.952 45 C 110.025 60.125, 106.671 72.646, 106.499 72.824 C 106.326 73.002, 101.810 69.965, 96.462 66.074 C 86.792 59.039, 85 58.089, 85 60 C 85 61.131, 105.946 76.910, 107.521 76.965 C 108.495 76.998, 126.447 10.113, 125.672 9.338 C 125.467 9.133, 112.834 17.801, 97.600 28.600 M 45.144 19.087 C 44.632 20.414, 40.319 30.466, 35.559 41.425 L 26.904 61.350 28.885 69.925 L 30.866 78.500 24.791 104.274 C 21.449 118.450, 18.895 130.228, 19.114 130.448 C 19.334 130.667, 27.383 131.591, 37 132.500 C 46.617 133.409, 54.630 134.296, 54.805 134.471 C 54.980 134.647, 48.662 143.500, 40.764 154.145 C 24.759 175.717, 23.666 177.317, 26.578 174.913 C 27.635 174.040, 33.091 169.607, 38.702 165.061 L 48.905 156.795 67.135 162.882 C 77.162 166.229, 85.524 168.810, 85.718 168.616 C 85.912 168.422, 84.103 159.443, 81.698 148.662 L 77.326 129.062 81.322 105.031 C 83.684 90.828, 85.763 81, 86.406 81 C 87.005 81, 93.489 83.288, 100.816 86.084 C 112.733 90.632, 114.664 91.096, 119.126 90.483 C 130.453 88.925, 130.125 88.760, 98.805 80.294 C 80.626 75.379, 68.305 72.506, 67.941 73.095 C 67.608 73.635, 66.551 78.553, 65.594 84.025 L 63.852 93.974 55.261 104.737 C 50.536 110.657, 46.512 115.695, 46.318 115.933 C 46.125 116.172, 45.528 115.928, 44.992 115.392 C 44.192 114.592, 49.906 76.527, 52.521 65.237 L 53.045 62.973 55.772 64.933 C 57.273 66.010, 60.134 67.181, 62.132 67.535 L 65.764 68.178 66.882 61.757 C 67.497 58.226, 67.997 54.248, 67.993 52.918 C 67.986 50.174, 60.721 37.550, 51.977 25.087 C 46.395 17.130, 46.024 16.804, 45.144 19.087 M 137.205 37.500 C 137.204 43.653, 137.327 44.117, 138.222 41.337 C 138.912 39.192, 138.912 36.937, 138.223 34.337 C 137.266 30.723, 137.207 30.907, 137.205 37.500 M 143.224 60.671 C 135.648 71.984, 135.272 72.816, 134.591 79.750 C 133.739 88.421, 132.489 88.052, 150.407 84.422 C 161.551 82.164, 164.242 81.201, 172.053 76.672 C 176.959 73.827, 180.979 71.218, 180.987 70.873 C 181.002 70.134, 154.542 50.145, 152.523 49.371 C 151.610 49.020, 148.476 52.828, 143.224 60.671 M 54.569 69.858 C 53.714 72.682, 47.907 108.240, 48.245 108.579 C 48.422 108.756, 51.384 105.338, 54.828 100.984 C 60.964 93.225, 61.128 92.856, 63.105 82.428 C 64.214 76.576, 64.946 71.613, 64.731 71.398 C 64.516 71.183, 62.253 70.379, 59.703 69.611 C 55.523 68.353, 55.017 68.377, 54.569 69.858 M 133.562 97.071 C 133.176 100.988, 133.044 104.377, 133.268 104.602 C 133.493 104.826, 139.211 103.883, 145.976 102.505 C 165.053 98.620, 163.756 95.567, 156.279 126.750 L 149.866 153.500 142.183 160.844 C 137.957 164.884, 135.345 167.759, 136.377 167.234 C 137.835 166.492, 142.078 168.004, 155.377 174.007 L 172.500 181.736 173.134 176.618 C 173.482 173.803, 174.115 155.696, 174.539 136.379 L 175.312 101.258 171.906 100.181 C 170.033 99.588, 161.525 97.248, 153 94.980 C 144.475 92.713, 136.772 90.653, 135.882 90.403 C 134.543 90.027, 134.142 91.178, 133.562 97.071 M 145.261 105.427 C 139.079 106.647, 133.767 107.900, 133.454 108.212 C 132.891 108.776, 129.044 167.217, 129.531 167.809 C 129.671 167.980, 133.589 164.830, 138.238 160.809 L 146.690 153.500 152.478 130.100 C 155.661 117.230, 158.483 105.867, 158.750 104.850 C 159.334 102.615, 159.562 102.606, 145.261 105.427 M 124.360 109.327 C 119.606 110.176, 118.454 111.013, 109.014 120.486 L 98.808 130.727 100.037 157.113 C 100.714 171.626, 101.447 183.703, 101.667 183.950 C 101.887 184.198, 107.438 181.745, 114.002 178.499 L 125.938 172.597 126.434 168.549 C 127.160 162.626, 130.199 108.844, 129.821 108.609 C 129.645 108.499, 127.187 108.822, 124.360 109.327" stroke="none" fill="black" fill-rule="evenodd"/>
</svg>