<svg xmlns="http://www.w3.org/2000/svg" width="200" height="200" viewBox="0 0 200 200" version="1.1">
	<path d="M 86.787 20.750 L 87.238 26.500 84.314 23.750 C 82.706 22.238, 81.129 21, 80.810 21 C 80.490 21, 74.291 27.284, 67.034 34.965 C 58.794 43.684, 54.114 49.376, 54.573 50.119 C 55.051 50.891, 59.792 46.601, 68.076 37.904 L 80.843 24.500 84.613 28.208 L 88.383 31.916 87.147 51.580 C 86.467 62.395, 86.118 71.451, 86.370 71.703 C 86.622 71.956, 87.746 71.671, 88.867 71.071 C 91.466 69.680, 91.190 67.908, 94.988 110.426 C 96.655 129.085, 98.177 144.510, 98.370 144.704 C 98.637 144.971, 129.889 127.853, 131.894 126.342 C 132.111 126.179, 130.718 121.647, 128.799 116.272 L 125.310 106.500 115.905 105.666 C 110.732 105.207, 106.327 104.659, 106.115 104.447 C 105.903 104.236, 104.018 95.611, 101.927 85.282 C 98.865 70.159, 98.376 66.304, 99.419 65.494 C 100.131 64.941, 106.395 61.341, 113.338 57.494 C 120.282 53.647, 125.971 50.241, 125.981 49.925 C 125.992 49.609, 120.590 47.201, 113.979 44.574 C 104.932 40.979, 100.498 38.563, 96.063 34.813 C 90.231 29.881, 90.165 29.765, 89.834 23.912 C 89.651 20.659, 89.729 17.997, 90.009 17.998 C 91.019 18.002, 118.483 24.149, 118.769 24.436 C 118.930 24.597, 117 28.217, 114.480 32.480 C 111.960 36.743, 110.059 40.392, 110.256 40.589 C 110.453 40.786, 119.746 38.710, 130.907 35.974 C 142.068 33.238, 151.830 31, 152.600 31 C 153.719 31, 153.992 33.256, 153.961 42.250 L 153.923 53.500 137 66 C 127.692 72.875, 120.060 78.891, 120.039 79.369 C 119.984 80.608, 126.702 91.586, 131.179 97.572 L 134.972 102.645 147.236 101.335 C 153.981 100.615, 162.762 99.654, 166.750 99.200 C 170.738 98.746, 174 98.610, 174 98.897 C 174 99.185, 172.133 105.063, 169.850 111.960 L 165.701 124.500 149.814 138 C 134.751 150.800, 133.030 151.950, 116.607 160.184 C 100.807 168.105, 97.495 169.349, 78.893 174.351 C 64.778 178.145, 54.960 180.181, 47 180.962 C 40.675 181.583, 34.150 182.309, 32.500 182.576 C 29.546 183.054, 29.554 183.038, 33 181.474 C 34.925 180.601, 49.100 175.161, 64.500 169.387 C 79.900 163.612, 92.876 158.514, 93.336 158.057 C 94.197 157.203, 91.212 131.041, 90.114 129.814 C 89.776 129.437, 80.500 130.232, 69.500 131.582 C 58.500 132.932, 48.219 133.915, 46.652 133.768 C 44.160 133.533, 46.009 131.959, 61.444 121.168 C 74.603 111.968, 78.960 108.412, 78.601 107.168 C 78.336 106.251, 77.642 103.651, 77.059 101.392 L 75.999 97.283 54.786 102.095 C 43.119 104.741, 33.432 106.765, 33.259 106.593 C 32.004 105.337, 42.621 100.204, 60.250 93.545 C 71.662 89.234, 81 85.172, 81 84.518 C 81 83.150, 72.047 59.856, 71.117 58.801 C 70.777 58.417, 65.100 59.660, 58.500 61.563 C 35.749 68.123, 32.660 68.940, 33.579 68.156 C 45.814 57.710, 47.970 55.570, 47.119 54.719 C 46.501 54.101, 42.525 56.899, 36.026 62.526 C 29.745 67.966, 26.252 71.652, 26.832 72.232 C 27.412 72.812, 35.268 71.046, 47.516 67.583 C 58.378 64.513, 67.815 62, 68.487 62 C 70.386 62, 78.283 83.206, 76.741 84.165 C 76.058 84.589, 67.054 88.100, 56.732 91.967 C 41.432 97.699, 36.676 99.962, 30.996 104.213 C 26.353 107.688, 24.361 109.761, 25.027 110.427 C 25.693 111.093, 33.899 109.656, 49.621 106.121 C 62.597 103.202, 73.558 101.194, 73.978 101.657 C 74.398 102.121, 75.015 103.662, 75.348 105.083 C 75.915 107.498, 74.654 108.574, 56.015 121.583 C 45.049 129.237, 36.059 135.838, 36.038 136.250 C 35.969 137.608, 48.196 136.961, 68 134.558 C 78.725 133.256, 87.620 132.306, 87.767 132.447 C 88.245 132.902, 91.244 156.091, 90.866 156.413 C 90.665 156.585, 83.525 159.322, 75 162.496 C 48.157 172.490, 17.517 184.191, 17.067 184.621 C 16.828 184.848, 17.076 185.476, 17.617 186.017 C 18.261 186.661, 25.896 186.156, 39.770 184.550 C 57.037 182.551, 64.485 181.151, 80.171 176.954 C 97.863 172.221, 100.886 171.061, 117.951 162.462 C 136.028 153.353, 136.906 152.763, 152.442 139.308 L 168.384 125.500 173.296 110.688 C 175.998 102.541, 178.049 95.724, 177.854 95.539 C 177.559 95.258, 152.771 97.732, 139.842 99.332 C 136.446 99.753, 135.945 99.455, 132.842 95.178 C 131.004 92.644, 128.051 88.192, 126.280 85.286 L 123.061 80.001 138.780 68.161 C 147.426 61.649, 155.117 55.575, 155.871 54.662 C 156.923 53.389, 157.145 50.110, 156.827 40.541 C 156.598 33.687, 156.207 27.873, 155.956 27.623 C 155.705 27.372, 146.500 29.342, 135.500 32 C 124.500 34.658, 115.428 36.758, 115.341 36.666 C 115.253 36.575, 117.002 33.449, 119.227 29.720 C 121.452 25.990, 123.075 22.742, 122.833 22.500 C 122.228 21.894, 90.308 15, 88.110 15 C 86.564 15, 86.394 15.741, 86.787 20.750 M 91.996 35.547 C 91.992 36.521, 97.222 62.290, 97.519 62.758 C 97.609 62.900, 102.708 60.227, 108.850 56.817 C 114.992 53.407, 119.676 50.330, 119.258 49.979 C 118.841 49.629, 114.225 47.615, 109 45.504 C 103.134 43.135, 98.066 40.314, 95.750 38.131 C 93.688 36.186, 91.998 35.023, 91.996 35.547 M 93.100 60.691 C 93.045 62.446, 93.450 64.160, 94 64.500 C 95.150 65.211, 95.150 63.591, 94 60 C 93.235 57.613, 93.195 57.644, 93.100 60.691 M 89.015 63.309 C 89.006 66.264, 89.386 67.880, 90 67.500 C 91.272 66.714, 91.272 61.968, 90 60 C 89.300 58.917, 89.026 59.835, 89.015 63.309 M 94.071 70.250 C 94.110 71.487, 95.573 87.903, 97.321 106.728 L 100.500 140.956 114.252 133.143 C 121.815 128.846, 128.221 125.113, 128.487 124.847 C 128.996 124.337, 124.206 111.054, 123.033 109.724 C 122.657 109.298, 118.124 108.623, 112.962 108.224 L 103.574 107.500 99.648 87.750 C 97.488 76.888, 95.334 68, 94.861 68 C 94.387 68, 94.032 69.013, 94.071 70.250" stroke="none" fill="black" fill-rule="evenodd"/>
</svg>