<svg xmlns="http://www.w3.org/2000/svg" width="200" height="200" viewBox="0 0 200 200" version="1.1">
	<path d="M 48.279 12.724 C 47.435 13.017, 47.247 14.526, 47.672 17.623 L 48.285 22.098 32.141 21.799 C 23.262 21.635, 15.998 21.776, 15.999 22.114 C 15.999 22.451, 17.387 30.326, 19.083 39.614 C 20.778 48.901, 22.152 58.075, 22.135 60 C 22.118 61.925, 20.490 75.805, 18.516 90.844 L 14.928 118.187 26.483 130.503 L 38.037 142.818 26.414 162.159 C 20.021 172.797, 14.589 181.832, 14.343 182.239 C 13.699 183.303, 14.876 182.798, 43 169.943 L 68.500 158.287 69 139.502 L 69.500 120.717 80.598 130.897 L 91.696 141.076 84.749 163.606 C 80.929 175.997, 78.037 186.370, 78.323 186.657 C 78.610 186.943, 90.017 181.787, 103.672 175.198 L 128.500 163.218 149.681 174.109 C 161.331 180.099, 171.248 185, 171.720 185 C 172.369 185, 183.754 151.502, 186.711 140.893 C 187.053 139.664, 184.729 138.273, 176.829 134.977 C 171.148 132.607, 166.330 130.535, 166.122 130.373 C 165.814 130.132, 171.866 97.289, 173.693 89.289 C 174.182 87.145, 173.915 87.069, 164.924 86.789 L 155.650 86.500 173.325 73.240 C 183.046 65.947, 191 59.712, 191 59.386 C 191 58.679, 159.110 25.629, 158.028 25.214 C 157.618 25.056, 156.708 30.558, 156.006 37.439 C 155.305 44.321, 154.415 49.756, 154.029 49.518 C 153.644 49.280, 152.489 41.367, 151.464 31.934 C 150.179 20.118, 149.191 14.627, 148.288 14.280 C 147.566 14.003, 137.675 14.722, 126.306 15.876 C 107.893 17.746, 105.223 18.248, 101.857 20.476 L 98.077 22.977 76.477 22.328 L 54.876 21.678 52.977 18.089 C 50.251 12.939, 49.647 12.249, 48.279 12.724 M 122.203 18.958 C 104.006 20.897, 98.409 23, 111.442 23 L 119.285 23 118.589 34 L 117.893 45 125.020 45 C 131.167 45, 132.102 45.232, 131.822 46.687 C 131.597 47.853, 129.340 48.925, 124.499 50.164 C 115.618 52.436, 115 52.425, 115 50 C 115 48.073, 114.333 48, 96.803 48 L 78.606 48 82.803 51.087 C 85.111 52.784, 87 54.352, 87 54.570 C 87 54.788, 84.721 56.121, 81.936 57.532 C 79.151 58.944, 77.014 60.639, 77.186 61.299 C 77.694 63.242, 89.453 84.976, 90 84.983 C 90.275 84.987, 92.286 80.683, 94.470 75.418 C 96.653 70.154, 98.678 65.707, 98.970 65.537 C 99.881 65.006, 129.408 90.768, 131.215 93.671 C 132.159 95.187, 132.746 97.343, 132.520 98.463 C 132.294 99.584, 131.840 114.225, 131.512 131 L 130.916 161.500 150.806 171.645 L 170.695 181.790 176.998 162.145 C 180.464 151.340, 183.345 142.133, 183.400 141.684 C 183.455 141.235, 179 138.931, 173.500 136.564 C 168 134.197, 163.387 131.640, 163.249 130.880 C 163.112 130.121, 164.721 120.725, 166.825 110 L 170.652 90.500 158.915 90 L 147.178 89.500 165.339 75.793 C 175.328 68.253, 184.374 61.447, 185.441 60.666 C 187.277 59.324, 186.651 58.478, 173.941 45.124 C 166.549 37.356, 160.256 31.001, 159.957 31 C 159.658 31, 158.581 38.537, 157.564 47.750 C 155.805 63.674, 154.948 67.281, 153.312 65.645 C 152.748 65.081, 147.282 23.697, 147.053 18.250 C 146.985 16.642, 142.816 16.760, 122.203 18.958 M 19.307 25.632 C 19.590 26.659, 21.069 34.629, 22.591 43.342 L 25.360 59.184 21.649 88.170 L 17.938 117.157 22.893 122.829 C 25.617 125.948, 30.806 131.412, 34.423 134.971 C 38.041 138.530, 41 141.838, 41 142.321 C 41 142.804, 36.656 150.467, 31.347 159.350 C 26.037 168.232, 21.510 175.839, 21.286 176.252 C 21.062 176.666, 24.169 175.497, 28.190 173.655 C 32.210 171.813, 42.353 167.200, 50.728 163.403 L 65.956 156.500 65.978 135.140 L 66 113.780 76.108 123.140 C 81.667 128.288, 88.177 134.300, 90.573 136.500 L 94.931 140.500 88.508 160.959 C 84.975 172.211, 82.264 181.598, 82.484 181.818 C 82.704 182.038, 92.923 177.375, 105.192 171.457 C 117.461 165.538, 128.038 160.689, 128.696 160.681 C 130.192 160.663, 129.874 160.055, 120.269 144.568 C 116.198 138.006, 107.899 123.606, 101.827 112.568 C 95.754 101.531, 90.679 92.382, 90.548 92.238 C 90.417 92.094, 89.029 95.019, 87.463 98.738 C 85.897 102.457, 83.551 107.933, 82.251 110.907 L 79.886 116.315 69.374 93.922 C 63.593 81.606, 58.726 71.393, 58.560 71.227 C 58.394 71.061, 57.105 71.451, 55.695 72.093 C 52.672 73.471, 52.920 72.190, 49.509 104 C 46.347 133.484, 46.170 134.570, 44.748 133.148 C 43.930 132.330, 44.507 124.126, 46.920 102.267 C 48.727 85.895, 50.374 72.221, 50.581 71.880 C 50.788 71.539, 52.317 70.697, 53.979 70.009 C 55.640 69.321, 57 68.344, 57 67.839 C 57 66.584, 52.945 58.720, 52.521 59.153 C 52.334 59.344, 50.312 66.025, 48.027 74 C 40.597 99.934, 39.928 102, 38.958 102 C 37.298 102, 37.847 99.421, 44.134 77.697 L 50.268 56.500 49.250 41.200 C 48.691 32.785, 48.068 25.748, 47.867 25.561 C 47.665 25.375, 41.040 24.895, 33.145 24.493 C 19.427 23.797, 18.813 23.847, 19.307 25.632 M 51.010 26.750 C 51.033 30.654, 53.152 52.485, 53.546 52.879 C 53.779 53.112, 56.477 51.639, 59.540 49.605 L 65.111 45.906 60.387 37.203 C 54.013 25.461, 53.706 25, 52.259 25 C 51.567 25, 51.005 25.788, 51.010 26.750 M 61.553 33.750 C 64.146 38.563, 66.595 42.864, 66.994 43.310 C 67.631 44.021, 89.109 30.022, 92.964 26.383 C 94.214 25.203, 91.670 25, 75.633 25 L 56.838 25 61.553 33.750 M 85.170 35.298 L 71.839 44.500 93.066 44.770 C 104.741 44.919, 114.507 44.826, 114.769 44.564 C 115.032 44.302, 115.478 40.018, 115.762 35.044 L 116.277 26 107.389 26.048 L 98.500 26.097 85.170 35.298 M 69.527 45.957 C 68.922 46.935, 71.690 53.032, 74.172 56.190 C 75.417 57.773, 75.712 57.767, 78.879 56.097 L 82.258 54.315 76.193 49.649 C 72.858 47.082, 69.858 45.421, 69.527 45.957 M 60.237 52.527 C 57.356 54.466, 55 56.254, 55 56.500 C 55 57.889, 59.549 66, 60.328 66 C 61.811 66, 72 59.935, 72 59.053 C 72 57.770, 66.897 49, 66.151 49 C 65.778 49, 63.117 50.587, 60.237 52.527 M 67.500 65.583 C 64.200 67.432, 61.500 69.301, 61.500 69.737 C 61.500 71.705, 79.469 108.926, 80.095 108.255 C 80.482 107.840, 82.585 103.279, 84.767 98.120 L 88.735 88.741 81.777 76.120 C 77.951 69.179, 74.523 63.212, 74.160 62.861 C 73.797 62.509, 70.800 63.734, 67.500 65.583 M 97.178 76.184 C 91.091 89.923, 90.670 86.710, 101.045 105.664 C 112.740 127.030, 127.122 151.212, 127.756 150.577 C 128.464 149.869, 129.970 97.087, 129.330 95.418 C 128.842 94.146, 104.265 72.460, 101.238 70.630 C 100.356 70.097, 99.134 71.768, 97.178 76.184" stroke="none" fill="black" fill-rule="evenodd"/>
</svg>