<svg xmlns="http://www.w3.org/2000/svg" width="200" height="200" viewBox="0 0 200 200" version="1.1">
	<path d="M 101 21.218 C 101 21.455, 102.107 24.904, 103.460 28.881 L 105.919 36.113 102.710 34.154 C 93.165 28.328, 88.737 26, 87.206 26.003 C 85.448 26.006, 15.844 40.822, 15.373 41.294 C 15.227 41.439, 15.422 42.062, 15.804 42.678 C 16.316 43.502, 21.267 43.436, 34.500 42.430 C 54.253 40.928, 75.594 40.656, 95.213 41.657 L 107.926 42.305 111.950 54.333 C 114.162 60.948, 115.851 66.483, 115.701 66.633 C 115.551 66.782, 110.945 62.887, 105.464 57.976 L 95.500 49.047 83.250 49.023 C 76.513 49.011, 71 49.396, 71 49.879 C 71 50.363, 74.263 54.529, 78.250 59.136 C 82.237 63.744, 86.055 68.222, 86.733 69.088 C 87.714 70.342, 87.667 72.360, 86.504 78.977 C 85.700 83.550, 84.920 87.376, 84.771 87.480 C 84.622 87.583, 77.750 85.060, 69.500 81.872 C 61.250 78.684, 54.950 76.070, 55.500 76.062 C 56.381 76.051, 60.446 76.868, 67.750 78.527 C 70.480 79.147, 70.908 76.573, 68.250 75.522 C 59.841 72.200, 26.774 60, 26.177 60 C 25.756 60, 26.580 69.787, 28.008 81.750 L 30.604 103.500 34.552 103.297 C 36.723 103.185, 43.101 102.235, 48.724 101.185 C 55.370 99.943, 58.715 99.665, 58.284 100.388 C 57.918 100.999, 52.078 109.432, 45.305 119.126 C 34.947 133.950, 32.514 136.847, 29.995 137.351 C 26.941 137.962, 25.843 140.585, 28.394 141.177 C 29.346 141.398, 27.920 144.116, 23.894 149.757 C 20.652 154.298, 18 158.306, 18 158.664 C 18 159.022, 25.811 159.020, 35.358 158.660 L 52.716 158.005 65.573 172.002 C 72.644 179.701, 78.671 185.999, 78.965 185.998 C 79.259 185.997, 82.622 174.972, 86.437 161.498 L 93.375 137 100.606 137 C 104.583 137, 108.464 136.759, 109.231 136.465 C 110.324 136.046, 111.897 141.849, 116.484 163.215 C 119.705 178.222, 122.650 190.863, 123.027 191.307 C 123.578 191.954, 177.456 158.816, 180.278 156.094 C 180.707 155.681, 177.288 147.264, 172.682 137.390 L 164.307 119.437 161.615 99.469 C 160.134 88.486, 158.716 78.528, 158.464 77.339 C 158.086 75.552, 159.080 74.576, 164.215 71.691 L 170.424 68.204 166.462 66.536 C 164.283 65.619, 156.425 62.375, 149 59.328 C 138.270 54.924, 117 43.738, 117 42.498 C 117 42.358, 126.800 42.476, 138.777 42.762 C 162.028 43.316, 174.001 42.605, 173.999 40.670 C 173.998 39.968, 159.913 35.934, 138.749 30.575 C 119.362 25.667, 102.938 21.456, 102.250 21.218 C 101.563 20.981, 101 20.980, 101 21.218 M 107.404 31.750 L 109.677 38.500 115.088 39.151 C 118.065 39.509, 130.175 39.813, 142 39.827 L 163.500 39.851 135 32.475 C 119.325 28.418, 106.192 25.076, 105.816 25.049 C 105.439 25.022, 106.154 28.038, 107.404 31.750 M 63.500 33.541 C 52.500 35.945, 42.869 38.044, 42.098 38.206 C 41.328 38.368, 54.940 38.556, 72.348 38.624 C 89.757 38.693, 104 38.623, 104 38.469 C 104 37.402, 87.838 29.017, 85.912 29.086 C 84.585 29.133, 74.500 31.138, 63.500 33.541 M 115.613 56.750 C 120.424 71.896, 119.743 70.955, 137.345 86.774 L 143.190 92.026 137.845 94.349 C 134.905 95.627, 131.746 96.944, 130.825 97.276 C 129.416 97.784, 129.315 98.404, 130.187 101.190 C 131.034 103.895, 132.301 104.993, 137.112 107.195 C 145.433 111.002, 144.778 114.023, 136.391 110.519 C 133.801 109.437, 132.966 109.370, 133.293 110.269 C 133.539 110.946, 135.936 118.311, 138.619 126.635 L 143.498 141.770 152.249 145.038 C 157.062 146.835, 161 148.474, 161 148.678 C 161 149.599, 150.437 168.961, 149.925 168.980 C 149.609 168.991, 147.631 163.389, 145.530 156.532 L 141.708 144.063 134.604 141.394 C 130.697 139.926, 125.983 138.112, 124.128 137.362 C 119.163 135.356, 113.986 135.555, 114.054 137.750 C 114.170 141.521, 124.681 187.493, 125.402 187.384 C 125.824 187.320, 137.774 179.959, 151.958 171.026 L 177.748 154.785 169.714 137.642 L 161.680 120.500 158.420 97 C 156.627 84.075, 155.461 73.385, 155.830 73.245 C 156.198 73.104, 158.168 71.979, 160.207 70.745 L 163.915 68.500 149.707 62.674 C 141.893 59.469, 130.248 53.732, 123.828 49.924 C 117.409 46.116, 111.951 43, 111.701 43 C 111.450 43, 113.210 49.188, 115.613 56.750 M 78.677 55.360 C 80.230 57.208, 83.624 61.178, 86.220 64.183 L 90.941 69.646 89.356 78.909 C 88.475 84.057, 88.155 88.509, 88.635 88.931 C 89.111 89.349, 95.677 92.011, 103.226 94.847 L 116.953 100.003 120.976 98.393 C 123.189 97.507, 125 96.362, 125 95.847 C 125 95.332, 123.538 90.124, 121.750 84.273 L 118.500 73.636 106.618 62.818 L 94.736 52 85.295 52 L 75.854 52 78.677 55.360 M 29 65.507 C 29 68.157, 33.034 100.367, 33.413 100.747 C 33.604 100.937, 40.767 99.799, 49.333 98.218 C 58.519 96.522, 64.653 95.786, 64.290 96.422 C 63.952 97.015, 61.346 100.875, 58.500 105 C 51.400 115.290, 51.291 115.510, 54.284 113.549 C 56.066 112.382, 57.020 112.223, 57.508 113.012 C 58.184 114.106, 55.408 116.905, 53.583 116.968 C 53.079 116.986, 52.933 117.267, 53.259 117.593 C 53.750 118.083, 90.803 112.590, 94.707 111.449 C 95.954 111.084, 89.086 94.791, 86.601 92.217 C 85.919 91.511, 73.983 86.561, 60.075 81.217 C 46.167 75.873, 34.948 71.050, 35.144 70.500 C 35.542 69.383, 37.595 69.349, 43.500 70.362 C 46.602 70.893, 45.817 70.366, 40 68.014 C 29.280 63.680, 29 63.616, 29 65.507 M 125.113 85.860 C 128.480 95.898, 128.007 95.582, 135.170 92.571 L 137.969 91.394 133.234 86.930 C 130.630 84.475, 127.043 81.157, 125.262 79.557 L 122.024 76.649 125.113 85.860 M 91 93.537 C 91 93.944, 98.880 110.074, 99.366 110.662 C 99.440 110.751, 100.733 110.587, 102.240 110.297 C 104.503 109.862, 104.881 109.375, 104.410 107.499 C 103.916 105.529, 104.469 104.986, 108.561 103.423 L 113.282 101.620 107.391 99.406 C 104.151 98.188, 99.138 96.255, 96.250 95.110 C 93.362 93.966, 91 93.258, 91 93.537 M 123.118 100.391 L 120.735 101.712 124.030 102.861 C 127.901 104.210, 128.103 104.109, 127.344 101.206 C 126.679 98.663, 126.350 98.600, 123.118 100.391 M 112.046 104.918 C 109.596 105.911, 107.421 107.236, 107.213 107.862 C 106.740 109.279, 109.481 109.229, 118.500 107.657 L 125.500 106.437 121.230 104.719 C 118.881 103.773, 116.856 103.025, 116.730 103.056 C 116.603 103.087, 114.496 103.924, 112.046 104.918 M 123.500 109.510 C 122.950 109.704, 119.285 110.376, 115.356 111.004 L 108.211 112.145 109.641 118.275 C 110.428 121.646, 111.237 124.570, 111.440 124.773 C 111.643 124.976, 116.239 124.426, 121.654 123.551 C 127.069 122.677, 132.082 121.895, 132.793 121.814 C 133.504 121.733, 133.907 121.179, 133.689 120.583 C 133.470 119.987, 132.515 117.138, 131.565 114.250 C 130.042 109.616, 129.526 109.009, 127.170 109.079 C 125.701 109.122, 124.050 109.316, 123.500 109.510 M 100 113.253 C 100 113.392, 99.115 116.603, 98.032 120.387 L 96.065 127.268 101.731 126.602 C 104.848 126.235, 107.564 125.769, 107.768 125.565 C 107.972 125.361, 107.599 122.451, 106.939 119.097 C 105.805 113.329, 105.585 113, 102.870 113 C 101.291 113, 100 113.114, 100 113.253 M 69.939 118.235 L 46.377 122.220 41.635 129.110 C 38.845 133.164, 37.444 136, 38.231 136 C 39.504 136, 82.945 129.654, 89.734 128.476 C 92.675 127.966, 93.119 127.397, 94.620 122.208 C 95.528 119.068, 96.483 115.938, 96.743 115.250 C 97.365 113.599, 97.351 113.600, 69.939 118.235 M 124 126.077 C 111.465 128.099, 111.854 127.960, 112.188 130.307 C 112.448 132.137, 113.328 132.594, 117.500 133.068 C 120.250 133.381, 126.243 135.113, 130.818 136.917 C 135.393 138.721, 139.327 140.006, 139.561 139.773 C 139.795 139.539, 138.938 136.232, 137.657 132.424 C 135.020 124.586, 134.562 124.373, 124 126.077 M 101.828 129.398 C 96.628 130.098, 95.049 130.704, 94.672 132.148 C 94.230 133.835, 94.890 134, 102.094 134 C 110.149 134, 110.821 133.621, 109.180 130 C 108.613 128.749, 107.392 128.649, 101.828 129.398 M 75 133.548 L 60.500 135.857 75.500 135.293 C 89.501 134.766, 91.934 134.243, 91.985 131.750 C 92.004 130.816, 92.458 130.768, 75 133.548 M 62.500 138.789 C 47.650 139.498, 35.027 140.237, 34.450 140.431 C 33.872 140.625, 30.993 144.264, 28.053 148.518 L 22.707 156.251 38.383 155.830 L 54.059 155.409 65.711 168.190 C 72.120 175.219, 77.521 180.812, 77.714 180.619 C 78.301 180.033, 90.019 138.538, 89.750 138 C 89.613 137.725, 77.350 138.080, 62.500 138.789 M 145 145.846 C 145 146.256, 146.246 150.298, 147.768 154.830 L 150.537 163.069 153.771 156.510 L 157.005 149.952 154.752 149.095 C 153.514 148.623, 150.813 147.532, 148.750 146.670 C 146.688 145.808, 145 145.437, 145 145.846" stroke="none" fill="black" fill-rule="evenodd"/>
</svg>