<svg xmlns="http://www.w3.org/2000/svg" width="200" height="200" viewBox="0 0 200 200" version="1.1">
	<path d="M 113.598 19.750 L 104.758 36.500 80.129 36.632 L 55.500 36.764 66.500 34.055 C 72.550 32.565, 78.737 31.035, 80.250 30.654 C 83.633 29.803, 84.117 26.713, 80.750 27.464 C 79.513 27.740, 63.200 30.249, 44.500 33.039 C 25.800 35.829, 10.116 38.214, 9.646 38.340 C 9.176 38.466, 18.109 45.079, 29.498 53.035 C 49.731 67.170, 50.120 67.507, 46.537 67.814 C 43.148 68.105, 42.909 68.333, 43.387 70.814 C 43.672 72.291, 44.207 86.614, 44.577 102.642 C 44.946 118.670, 45.530 132.217, 45.874 132.747 C 46.218 133.277, 52.013 135.424, 58.750 137.519 C 65.487 139.614, 71 141.617, 71 141.971 C 71 142.325, 60.538 143.395, 47.750 144.348 C 21.593 146.299, 18.734 146.700, 19.279 148.341 C 19.542 149.131, 28.879 150.035, 48.582 151.179 C 64.487 152.102, 77.950 152.897, 78.500 152.946 C 79.617 153.044, 74.673 155.737, 38.167 174.921 C 20.727 184.085, 13.155 188.555, 13.867 189.267 C 14.579 189.979, 23.563 187.874, 42.700 182.513 C 64.525 176.400, 75.873 173.830, 95.500 170.556 L 120.500 166.385 149 174.598 C 164.675 179.115, 178.353 182.966, 179.396 183.155 C 185.043 184.182, 180.085 179.949, 162.796 168.985 C 152.183 162.255, 142.931 156.220, 142.235 155.573 C 139.799 153.311, 144.936 150.754, 171.731 140.886 C 172.962 140.432, 173.740 139.486, 173.467 138.776 C 173.064 137.725, 168.404 137.721, 148.236 138.753 C 134.631 139.450, 122.375 139.903, 121 139.760 C 119.625 139.617, 125.853 137.476, 134.841 135.003 C 143.828 132.529, 151.686 130.194, 152.303 129.813 C 153.367 129.155, 156.778 90.922, 156.933 77.904 L 157 72.309 151.250 69.746 L 145.500 67.184 149.115 67.092 C 152.451 67.007, 153.947 65.719, 168.462 50.430 C 177.114 41.316, 184.037 33.720, 183.846 33.549 C 183.656 33.378, 170.563 32.913, 154.750 32.515 C 128.728 31.860, 126 31.943, 126 33.395 C 126 34.806, 128.261 35.016, 144.750 35.131 C 155.063 35.203, 166.741 35.540, 170.703 35.881 L 177.907 36.500 164.364 50.750 L 150.821 65 145.152 65 C 140.364 65, 136.686 63.835, 121.491 57.505 C 111.596 53.382, 102.915 50.007, 102.200 50.005 C 101.346 50.002, 101.185 49.492, 101.730 48.518 C 102.415 47.295, 106.841 46.942, 127.030 46.500 C 152.970 45.933, 157.337 45.515, 156.721 43.659 C 156.477 42.923, 147.725 41.587, 132.748 40 C 119.773 38.625, 108.889 37.229, 108.559 36.897 C 108.230 36.565, 111.794 29.056, 116.480 20.210 C 121.166 11.365, 125 3.873, 125 3.563 C 125 3.254, 124.424 3, 123.719 3 C 123.015 3, 118.461 10.537, 113.598 19.750 M 29.500 38.044 C 23.450 39.048, 17.854 39.900, 17.065 39.935 C 16.276 39.971, 19.828 42.960, 24.959 46.577 C 30.750 50.661, 34.540 52.744, 34.955 52.072 C 35.323 51.477, 45.721 49.184, 58.062 46.977 C 75.767 43.810, 82.692 42.995, 90.889 43.109 C 99.367 43.227, 101.439 42.967, 102.152 41.694 C 102.698 40.718, 102.604 39.873, 101.901 39.439 C 101.283 39.057, 87.103 39.075, 70.389 39.478 C 43.405 40.130, 40 40.040, 40 38.676 C 40 37.830, 41.013 36.944, 42.250 36.706 C 48.994 35.407, 39.171 36.438, 29.500 38.044 M 105 42 C 103.951 43.959, 104.240 44, 119.131 44 C 127.493 44, 134.084 43.750, 133.779 43.445 C 133.348 43.015, 110.100 40.056, 106.785 40.010 C 106.392 40.004, 105.589 40.900, 105 42 M 70.088 47.728 C 63.165 48.953, 56.825 50.157, 56 50.404 C 55.175 50.650, 64.175 50.597, 76 50.285 C 96.256 49.752, 98.927 49.350, 98.985 46.826 C 99.024 45.088, 82.003 45.619, 70.088 47.728 M 45.633 53.747 L 35.765 54.075 44.445 60.131 L 53.124 66.187 68.312 66.071 C 89.696 65.907, 89.482 65.970, 93.061 58.880 L 96.029 53 75.764 53.209 C 64.619 53.324, 51.060 53.566, 45.633 53.747 M 96 59 L 92.971 65 112.152 65 C 122.702 65, 131.146 64.819, 130.917 64.598 C 129.644 63.368, 103.141 53.005, 101.264 53.003 C 99.534 53.001, 98.344 54.356, 96 59 M 109.764 67.749 L 91.029 68.044 89.541 70.920 C 87.785 74.317, 87.344 74.128, 101.559 76.083 L 110.618 77.328 121.059 72.249 C 126.801 69.455, 130.825 67.233, 130 67.311 C 129.175 67.389, 120.069 67.586, 109.764 67.749 M 130.281 71.435 C 126.310 73.671, 123.040 76.175, 123.014 77 C 122.986 77.880, 116.357 82.165, 106.983 87.361 C 98.193 92.235, 91 96.524, 91 96.893 C 91 97.261, 99.100 100.234, 109 103.500 C 118.900 106.766, 127 109.967, 127 110.615 C 127 111.434, 122.662 111.981, 112.750 112.412 C 87.300 113.520, 58.713 113.566, 58.359 112.500 C 58.176 111.950, 63.185 108.662, 69.490 105.193 C 75.794 101.724, 81.174 98.528, 81.444 98.091 C 81.714 97.654, 80.124 96.755, 77.912 96.092 L 73.889 94.886 78.979 85.443 C 81.779 80.249, 83.717 76.004, 83.285 76.008 C 82.853 76.012, 74.500 74.824, 64.723 73.368 C 54.945 71.912, 46.778 70.896, 46.572 71.111 C 46.252 71.446, 47.534 114.067, 48.252 126.946 L 48.500 131.391 65 136.505 C 87.223 143.392, 87.049 144.054, 62.500 146.028 C 44.688 147.461, 43.938 147.600, 50.500 148.254 C 54.350 148.638, 64.025 149.223, 72 149.553 C 79.975 149.883, 87.166 150.369, 87.980 150.633 C 88.794 150.898, 76.057 158.113, 59.675 166.668 C 43.293 175.223, 30.081 182.415, 30.316 182.650 C 30.552 182.885, 40.364 180.389, 52.122 177.103 C 71.496 171.688, 111.846 163.931, 120.136 164.027 C 121.436 164.043, 133.291 167.164, 146.480 170.964 C 159.668 174.765, 170.574 177.759, 170.715 177.618 C 170.855 177.478, 163.327 172.497, 153.985 166.549 C 144.643 160.601, 137.008 155.457, 137.018 155.118 C 137.074 153.216, 146.080 147.509, 153.704 144.544 L 162.500 141.124 157 141.131 C 153.975 141.135, 140.925 141.714, 128 142.418 C 105.994 143.617, 100.268 143.306, 103.830 141.105 C 104.553 140.658, 115.461 137.452, 128.072 133.980 C 149.579 128.059, 151 127.523, 151 125.346 C 151 122.051, 153.914 81.136, 154.417 77.369 C 154.872 73.963, 155.462 74.361, 142.500 69.317 L 137.500 67.371 130.281 71.435 M 68.500 68.948 L 57.500 69.500 71.330 71.545 L 85.161 73.590 86.606 70.795 L 88.051 68 83.776 68.198 C 81.424 68.306, 74.550 68.644, 68.500 68.948 M 82.240 85.040 L 77.979 93.042 80.527 94.010 C 82.563 94.784, 83.818 94.513, 86.787 92.657 C 88.829 91.380, 94.462 88.185, 99.305 85.557 C 104.148 82.928, 107.863 80.530, 107.560 80.227 C 107.011 79.678, 90.849 77.045, 88 77.041 C 87.145 77.040, 84.667 80.482, 82.240 85.040 M 75.703 104.725 C 70.314 107.758, 66.100 110.433, 66.337 110.670 C 66.574 110.908, 78.408 110.781, 92.634 110.389 L 118.500 109.676 102.524 104.338 C 93.737 101.402, 86.312 99.048, 86.024 99.106 C 85.736 99.164, 81.091 101.693, 75.703 104.725" stroke="none" fill="black" fill-rule="evenodd"/>
</svg>