<svg xmlns="http://www.w3.org/2000/svg" width="200" height="200" viewBox="0 0 200 200" version="1.1">
	<path d="M 103.680 17.750 C 102.312 23.663, 100.194 32.888, 98.973 38.250 L 96.753 48 89.543 48 C 85.578 48, 82.020 47.687, 81.638 47.304 C 81.255 46.922, 83.980 43.547, 87.694 39.804 C 91.408 36.062, 94.008 33.005, 93.473 33.010 C 92.938 33.016, 84.175 35.190, 74 37.841 L 55.500 42.662 40.023 41.391 C 31.511 40.692, 24.419 40.247, 24.264 40.403 C 23.858 40.809, 28.678 83.011, 29.188 83.521 C 29.422 83.755, 35.183 76.308, 41.990 66.973 L 54.368 50 64.243 50 C 70.141 50, 73.884 50.378, 73.538 50.939 C 73.219 51.455, 73.670 52.276, 74.540 52.763 C 75.978 53.567, 75.957 54.592, 74.311 63.933 L 72.500 74.218 65 76.919 C 60.875 78.404, 51.313 81.780, 43.750 84.422 C 34.999 87.479, 30 89.730, 30 90.613 C 30 91.488, 31.110 92, 33.009 92 C 35.363 92, 37.989 93.768, 45.093 100.137 C 50.084 104.613, 54.354 108.775, 54.580 109.387 C 54.807 109.999, 51.651 119.500, 47.567 130.500 C 42.850 143.204, 40.571 150.583, 41.321 150.728 C 41.969 150.854, 52.850 148.110, 65.500 144.630 C 78.150 141.151, 88.674 138.447, 88.886 138.621 C 89.098 138.796, 86.232 144.047, 82.517 150.290 L 75.762 161.642 48.415 170.571 C 33.373 175.482, 21.052 179.730, 21.033 180.011 C 21.015 180.293, 24.561 181.544, 28.913 182.791 L 36.826 185.060 60.663 179.411 C 81.118 174.564, 87.022 172.708, 102.277 166.331 L 120.054 158.899 141.277 174.399 C 152.950 182.924, 162.775 189.584, 163.110 189.199 C 163.606 188.632, 170 156.563, 170 154.646 C 170 154.342, 161.450 149.256, 151 143.343 C 140.550 137.431, 132.011 132.347, 132.024 132.047 C 132.038 131.746, 136.875 123.655, 142.774 114.067 L 153.500 96.634 167.750 90.680 C 176.197 87.150, 182 84.170, 182 83.363 C 182 80.928, 154.199 81.570, 133.843 84.474 C 124.304 85.835, 115.336 87.159, 113.914 87.417 C 111.804 87.798, 110.642 87.064, 107.608 83.435 L 103.888 78.985 105.341 69.243 C 106.140 63.884, 106.502 59.217, 106.147 58.871 C 105.791 58.525, 103.813 57.702, 101.750 57.043 C 97.726 55.757, 97.060 54.083, 99.571 51.571 C 100.867 50.276, 103.912 50, 116.932 50 C 125.616 50, 134.738 49.723, 137.204 49.386 L 141.687 48.771 144.475 62.875 L 147.263 76.979 150.964 74.240 C 171.786 58.824, 187.868 46.534, 187.587 46.254 C 186.770 45.437, 151.358 40.923, 134.214 39.450 C 123.921 38.566, 115.215 37.540, 114.866 37.171 C 114.518 36.802, 112.986 29.863, 111.462 21.750 C 109.632 12.007, 108.263 7, 107.429 7 C 106.646 7, 105.224 11.077, 103.680 17.750 M 106.207 19.500 C 104.917 24.156, 100 45.930, 100 46.984 C 100 47.378, 109.876 47.480, 121.946 47.212 L 143.893 46.725 144.454 49.112 C 144.763 50.426, 145.919 55.969, 147.023 61.431 C 148.126 66.894, 149.170 71.503, 149.341 71.675 C 149.513 71.846, 156.718 66.703, 165.353 60.245 C 177.569 51.108, 180.658 48.350, 179.276 47.815 C 176.304 46.665, 147.486 43.165, 130.264 41.863 C 121.335 41.188, 113.618 40.380, 113.116 40.068 C 112.613 39.756, 111.103 34.100, 109.759 27.500 C 107.316 15.506, 107.314 15.502, 106.207 19.500 M 70 41.716 L 56.500 45.250 42 44.211 C 34.025 43.639, 27.404 43.267, 27.287 43.383 C 26.959 43.707, 30.722 76.056, 31.136 76.469 C 31.336 76.668, 36.373 70.120, 42.330 61.916 L 53.159 47 65.368 47 L 77.576 47 81.338 42.500 C 83.407 40.025, 84.740 38.041, 84.300 38.091 C 83.860 38.141, 77.425 39.772, 70 41.716 M 83.500 52.093 C 91.631 54.682, 95.334 54.924, 95.757 52.892 C 96.131 51.096, 90.432 49.927, 82.110 50.091 L 77.500 50.182 83.500 52.093 M 86 60.390 L 92.500 67.059 93.277 63.322 C 94.347 58.180, 93.911 57.555, 88.357 56.267 C 85.686 55.647, 82.600 54.821, 81.500 54.430 C 80.400 54.040, 82.425 56.721, 86 60.390 M 76.720 66.552 C 75.835 71.870, 74.974 76.323, 74.806 76.446 C 74.638 76.569, 66.200 79.530, 56.057 83.026 L 37.613 89.382 47.816 98.941 C 53.427 104.198, 58.014 108.896, 58.009 109.380 C 58.004 109.864, 55.012 118.314, 51.360 128.156 C 47.707 137.999, 44.961 146.294, 45.255 146.589 C 45.550 146.884, 56.685 144.144, 70 140.500 C 83.315 136.856, 94.363 134.030, 94.552 134.218 C 94.741 134.407, 90.995 141.194, 86.228 149.301 L 77.562 164.041 53.531 171.950 C 31.570 179.178, 29.743 179.951, 32.315 180.930 C 33.863 181.518, 35.740 182, 36.486 182 C 37.231 182, 48.339 179.480, 61.171 176.401 C 80.936 171.657, 87.215 169.663, 102.269 163.353 C 112.295 159.151, 120.575 156.227, 121.269 156.644 C 121.946 157.050, 130.784 163.413, 140.910 170.784 C 151.035 178.154, 159.818 184.377, 160.429 184.611 C 161.140 184.884, 162.529 179.781, 164.301 170.384 C 165.821 162.325, 166.937 155.641, 166.782 155.532 C 166.627 155.423, 157.950 150.477, 147.500 144.540 C 137.050 138.603, 128.360 133.626, 128.189 133.479 C 128.018 133.332, 133.194 124.512, 139.690 113.879 L 151.502 94.546 162.394 90.023 L 173.287 85.500 161.633 85.218 C 153.087 85.012, 145.455 85.612, 133.021 87.468 C 123.694 88.861, 115.499 90, 114.809 90 C 114.065 90, 114.394 90.838, 115.617 92.062 L 117.679 94.123 114.216 111.454 L 110.754 128.784 107.127 129.341 C 98.840 130.613, 67 131.291, 67 130.196 C 67 129.593, 69.629 128.802, 72.842 128.438 L 78.685 127.777 84.851 100.639 C 88.242 85.712, 91.013 72.587, 91.009 71.471 C 91.004 70.314, 88.277 66.743, 84.664 63.162 L 78.327 56.882 76.720 66.552 M 95.925 64.445 L 94.668 70.062 98.084 73.600 L 101.500 77.138 102.565 69.319 C 103.151 65.019, 103.376 61.194, 103.065 60.821 C 102.754 60.447, 101.303 59.846, 99.841 59.485 C 97.294 58.856, 97.129 59.065, 95.925 64.445 M 93.757 74.663 C 92.798 76.375, 81.707 127.040, 82.186 127.519 C 82.460 127.793, 88.474 127.676, 95.549 127.259 L 108.414 126.500 111.554 110.780 L 114.694 95.061 112.422 92.926 C 110.448 91.072, 109.463 90.886, 104.920 91.511 L 99.691 92.230 100.313 86.280 C 100.917 80.499, 100.839 80.236, 97.580 77.078 C 95.735 75.289, 94.015 74.203, 93.757 74.663 M 103 86.500 C 103 89.081, 103.673 89.446, 106.461 88.376 C 107.949 87.805, 107.943 87.595, 106.388 85.876 C 104.077 83.322, 103 83.520, 103 86.500" stroke="none" fill="black" fill-rule="evenodd"/>
</svg>