<svg xmlns="http://www.w3.org/2000/svg" width="200" height="200" viewBox="0 0 200 200" version="1.1">
	<path d="M 39.070 10.870 C 32.341 23.442, 12.408 67.134, 13.182 67.613 C 13.728 67.950, 14.504 67.837, 14.907 67.363 C 15.311 66.888, 20.998 55.151, 27.547 41.279 C 34.095 27.407, 39.720 16.607, 40.047 17.279 C 40.374 17.951, 43.038 26.223, 45.968 35.662 L 51.296 52.825 56.815 52.255 C 61.299 51.792, 62.237 51.950, 61.814 53.093 C 61.528 53.867, 59.177 60.879, 56.589 68.677 L 51.883 82.853 43.692 85.788 C 39.186 87.403, 34.825 88.961, 34 89.251 C 33.100 89.567, 35.899 91.377, 41 93.777 L 49.500 97.776 51.573 91.638 L 53.645 85.500 61.073 82.813 C 65.158 81.335, 69.063 80.097, 69.750 80.063 C 71.202 79.990, 71.398 94.957, 70.340 125.217 L 69.686 143.934 56.338 154.500 C 48.997 160.312, 42.394 165.295, 41.665 165.575 C 39.992 166.217, 35.471 159.456, 26.047 142.225 L 18.809 128.988 22.406 95.744 C 24.384 77.460, 26.002 62.163, 26.001 61.750 C 26.001 61.337, 25.325 61, 24.500 61 C 23.675 61, 23 61.823, 23 62.828 C 23 63.834, 21.418 79.210, 19.485 96.998 L 15.970 129.340 23.601 143.420 C 30.622 156.372, 39.354 170, 40.633 170 C 40.926 170, 48.328 164.318, 57.082 157.373 L 73 144.746 73 135.535 C 73 130.469, 73.294 115.546, 73.654 102.374 L 74.308 78.424 81.553 75.836 L 88.798 73.249 92.737 87.374 L 96.676 101.500 114.403 101.186 L 132.130 100.872 130.450 103.436 C 129.526 104.846, 128.034 106.009, 127.135 106.019 C 126.236 106.030, 116.160 105.058, 104.744 103.859 C 93.327 102.660, 83.739 101.928, 83.436 102.231 C 82.686 102.980, 77.475 163.808, 78.106 164.439 C 78.382 164.715, 82.972 163.763, 88.306 162.324 L 98.004 159.706 102.389 152.853 L 106.774 145.999 124.865 160.501 L 142.955 175.002 162.228 167.845 C 172.827 163.909, 181.824 160.413, 182.219 160.075 C 182.884 159.508, 173.479 98.584, 172.475 96.960 C 172.228 96.561, 169.545 95.924, 166.513 95.545 C 163.481 95.166, 161 94.647, 161 94.391 C 161 94.136, 165.275 88.110, 170.500 81 L 180 68.074 180 60.619 C 180 50.131, 179.917 50.011, 172.643 49.942 C 169.264 49.911, 164.853 49.573, 162.840 49.192 L 159.179 48.500 164.144 36.638 C 166.874 30.113, 168.950 24.617, 168.757 24.424 C 168.564 24.231, 164.398 26.740, 159.500 30 C 154.602 33.260, 150.457 35.790, 150.289 35.622 C 150.121 35.454, 151.745 30.633, 153.898 24.908 C 156.051 19.184, 157.661 14.344, 157.476 14.153 C 157.175 13.842, 105.660 27.864, 105.454 28.314 C 105.407 28.416, 103.868 32.003, 102.034 36.283 C 100.201 40.564, 98.421 44.240, 98.079 44.451 C 97.737 44.663, 91.068 45.571, 83.260 46.470 C 72.486 47.710, 68.554 47.832, 66.950 46.973 C 65.286 46.083, 64.587 46.153, 63.668 47.300 C 63.026 48.102, 60.418 49.022, 57.872 49.343 L 53.245 49.928 50.199 40.214 C 48.524 34.871, 45.612 25.566, 43.727 19.536 C 40.582 9.474, 40.199 8.760, 39.070 10.870 M 131 23.851 C 119.725 27.002, 109.793 29.854, 108.929 30.190 C 108.064 30.526, 105.834 34.333, 103.971 38.650 C 102.109 42.968, 100.168 46.789, 99.657 47.143 C 99.146 47.497, 94.956 48.100, 90.346 48.484 C 85.736 48.868, 80.735 49.515, 79.232 49.920 C 76.663 50.614, 76.828 50.767, 82 52.481 C 85.025 53.483, 97.830 58.043, 110.455 62.613 C 123.080 67.184, 133.476 70.828, 133.558 70.712 C 134.085 69.959, 140 53.663, 140 52.962 C 140 52.486, 137.188 51.961, 133.750 51.798 L 127.500 51.500 136.558 45.353 L 145.616 39.207 149.308 29.253 C 153.237 18.660, 153.420 17.966, 152.250 18.061 C 151.838 18.094, 142.275 20.700, 131 23.851 M 155.160 36.206 C 150.091 39.647, 147.383 42.232, 146.410 44.562 C 145.634 46.418, 145 48.198, 145 48.518 C 145 48.838, 147.526 48.965, 150.614 48.800 L 156.228 48.500 159.679 40.148 C 161.577 35.555, 162.988 31.668, 162.815 31.511 C 162.642 31.353, 159.197 33.466, 155.160 36.206 M 140.250 46.115 C 136.380 48.593, 136.252 49, 139.339 49 C 140.865 49, 142.076 48.130, 142.818 46.500 C 143.445 45.125, 143.854 44.008, 143.729 44.017 C 143.603 44.026, 142.037 44.970, 140.250 46.115 M 60.647 65.250 C 58.006 73.088, 55.625 80.042, 55.355 80.704 C 55.057 81.436, 58.127 80.814, 63.182 79.119 C 70.417 76.694, 71.539 76.004, 71.801 73.824 C 72.087 71.445, 74.853 69.811, 88.076 64.205 C 88.459 64.042, 89.241 65.252, 89.813 66.892 L 90.853 69.876 98.378 67.188 L 105.904 64.500 119.285 77.750 C 137.829 96.113, 136.263 96.471, 146.646 71.500 L 154.754 52 149.127 52.005 L 143.500 52.009 139.587 62.547 C 137.434 68.342, 135.329 73.297, 134.908 73.557 C 134.487 73.817, 119.678 68.848, 101.998 62.515 C 84.319 56.182, 68.863 51, 67.651 51 C 65.708 51, 64.881 52.682, 60.647 65.250 M 156.486 55.212 C 155.652 57.021, 151.889 65.925, 148.124 75 L 141.278 91.500 144.278 92.152 C 145.928 92.511, 149.591 93.093, 152.418 93.446 L 157.557 94.089 167.528 80.507 L 177.500 66.925 177 59.713 L 176.500 52.500 167.252 52.212 L 158.003 51.925 156.486 55.212 M 80.645 70.488 C 75.626 72.888, 72.799 75, 74.606 75 C 77.271 75, 88.051 70.652, 87.735 69.705 C 87.135 67.905, 85.720 68.062, 80.645 70.488 M 97.750 70.162 C 94.588 71.265, 92.005 72.692, 92.012 73.333 C 92.018 73.975, 93.522 79.900, 95.354 86.500 L 98.683 98.500 116.978 98.338 C 131.029 98.214, 135.470 97.866, 136.121 96.838 C 137.524 94.626, 137.153 94.119, 133.653 93.463 C 131.090 92.982, 127.400 89.922, 117.918 80.417 C 111.104 73.588, 105.073 68.036, 104.515 68.079 C 103.957 68.122, 100.912 69.060, 97.750 70.162 M 44.322 88.326 C 39.613 90.065, 39.579 90.531, 44.037 92.283 C 48.078 93.870, 48.101 93.865, 49.048 91.373 C 50.853 86.627, 50.150 86.173, 44.322 88.326 M 139.532 95.778 C 139.239 96.540, 139 97.352, 139 97.582 C 139 97.812, 142.675 98, 147.167 98 C 156.748 98, 156.658 96.930, 146.953 95.446 C 141.291 94.580, 139.969 94.640, 139.532 95.778 M 156.750 99.120 C 155.288 100.691, 153.522 101, 146.019 101 C 137.230 101, 137.024 101.054, 136.399 103.547 C 136.047 104.947, 136.034 106.368, 136.370 106.703 C 136.705 107.039, 141.822 107.809, 147.740 108.414 C 154.192 109.075, 158.300 109.913, 158.002 110.508 C 157.727 111.053, 154.915 113.654, 151.752 116.286 C 148.588 118.919, 146 121.253, 146 121.474 C 146 121.694, 149.148 129.890, 152.995 139.687 C 156.843 149.484, 159.993 158.100, 159.995 158.833 C 160.009 162.721, 156.858 157.663, 149.844 142.541 C 145.547 133.277, 141.826 125.493, 141.576 125.243 C 141.326 124.992, 136.339 128.721, 130.495 133.528 C 119.279 142.753, 116.639 143.502, 119.503 136.647 L 121.052 132.940 116.276 135.394 C 113.649 136.743, 110.778 139.154, 109.895 140.751 L 108.291 143.655 125.643 157.578 C 135.186 165.235, 143.558 171.371, 144.247 171.214 C 146.928 170.602, 178.538 158.788, 179.169 158.163 C 179.536 157.798, 177.736 144.530, 175.169 128.677 C 171.761 107.637, 170.095 99.640, 169 99.062 C 168.175 98.627, 165.475 98.039, 163 97.755 C 159.440 97.347, 158.135 97.632, 156.750 99.120 M 83.069 132.542 C 81.794 147.691, 80.967 160.301, 81.231 160.564 C 81.494 160.827, 84.974 160.259, 88.965 159.302 C 96.047 157.602, 96.303 157.431, 99.707 152.109 C 104.453 144.690, 104.546 144.263, 101.896 142.117 L 99.576 140.238 104.754 138.011 C 109.656 135.902, 110.384 135.069, 118.405 122.392 C 123.066 115.026, 126.569 108.990, 126.189 108.978 C 125.810 108.966, 117.625 108.076, 108 107 C 98.375 105.924, 89.349 105.034, 87.943 105.022 L 85.386 105 83.069 132.542 M 127.667 112.750 C 126.370 114.813, 122.976 120.228, 120.126 124.785 L 114.942 133.070 118.848 131.078 C 122.088 129.425, 123.186 128.014, 125.298 122.793 C 126.697 119.332, 128.559 114.813, 129.434 112.750 C 130.310 110.688, 130.801 109, 130.526 109 C 130.250 109, 128.964 110.688, 127.667 112.750 M 130.198 118.115 C 128.382 122.578, 127.032 126.361, 127.198 126.520 C 127.364 126.680, 130.306 125.534, 133.736 123.974 L 139.971 121.136 137.511 115.827 C 136.158 112.906, 134.702 110.401, 134.275 110.258 C 133.848 110.116, 132.014 113.652, 130.198 118.115 M 139.472 113.588 C 142.343 120.458, 142.165 120.395, 147.341 116.362 C 149.944 114.334, 151.720 112.354, 151.287 111.961 C 150.854 111.569, 147.700 111.011, 144.277 110.721 L 138.054 110.195 139.472 113.588 M 128.207 129.668 C 125.289 131.107, 122.270 134.603, 123.170 135.503 C 123.353 135.686, 125.527 134.086, 128.001 131.948 C 132.996 127.631, 133.026 127.293, 128.207 129.668" stroke="none" fill="black" fill-rule="evenodd"/>
</svg>