<svg xmlns="http://www.w3.org/2000/svg" width="200" height="200" viewBox="0 0 200 200" version="1.1">
	<path d="M 106 13.302 C 106 13.468, 107.123 19.880, 108.496 27.552 C 109.868 35.223, 110.993 41.837, 110.996 42.250 C 111.009 44.645, 108.124 41.529, 98.816 29.095 L 88.406 15.189 75.453 27.442 L 62.500 39.694 47 35.360 C 38.475 32.977, 30.825 31.021, 30 31.014 C 27.947 30.997, 11.419 72.819, 12.895 74.295 C 13.603 75.003, 14.217 74.569, 14.855 72.913 C 18.422 63.655, 30.253 34.427, 30.560 34.114 C 30.768 33.902, 37.098 35.466, 44.627 37.591 C 53.517 40.099, 57.558 41.637, 56.154 41.977 C 53.744 42.560, 30.726 72.748, 31.606 74.172 C 32.447 75.532, 33.428 74.530, 40.165 65.428 L 46.500 56.869 47.128 61.185 C 47.474 63.558, 48.089 75.969, 48.496 88.764 C 48.902 101.559, 49.556 112.226, 49.949 112.468 C 50.341 112.711, 57.085 112.008, 64.934 110.906 C 72.783 109.804, 79.636 109.045, 80.163 109.221 C 80.690 109.397, 76.416 112.932, 70.666 117.078 C 62.943 122.646, 56.853 126.021, 47.356 129.998 C 40.285 132.958, 34.370 135.462, 34.211 135.562 C 33.848 135.791, 37.922 183.697, 38.564 186.746 C 39.016 188.896, 39.811 188.605, 57.008 179.996 L 74.979 171 98.739 171.012 L 122.500 171.025 138.901 179.028 C 147.922 183.429, 155.430 186.903, 155.585 186.748 C 155.857 186.476, 168 138.471, 168 137.668 C 168 137.451, 163.036 132.903, 156.968 127.561 L 145.936 117.848 140.822 118.945 C 138.009 119.548, 135.605 119.920, 135.479 119.771 C 135.045 119.257, 130.966 100.700, 131.233 100.451 C 131.380 100.314, 135.453 98.973, 140.283 97.472 C 145.145 95.962, 149.443 94.019, 149.909 93.122 C 150.372 92.230, 153.367 84.308, 156.564 75.518 C 161.662 61.503, 163.533 57.768, 171.763 45.175 C 176.925 37.277, 180.914 30.580, 180.627 30.294 C 180.340 30.007, 168.792 32.300, 154.963 35.390 C 141.135 38.479, 129.463 40.786, 129.026 40.516 C 128.589 40.246, 123.865 33.945, 118.527 26.513 C 113.190 19.081, 108.188 13, 107.411 13 C 106.635 13, 106 13.136, 106 13.302 M 76.121 30.379 L 64.774 41.758 84.637 42.210 C 95.562 42.458, 104.676 42.524, 104.891 42.356 C 105.252 42.075, 88.285 19, 87.718 19 C 87.580 19, 82.361 24.121, 76.121 30.379 M 110 20.140 C 110 21.516, 114.047 42.381, 114.378 42.711 C 114.593 42.926, 117.477 42.966, 120.788 42.801 L 126.808 42.500 118.833 31.512 C 110.441 19.951, 110 19.383, 110 20.140 M 154 38.341 C 136.770 42.212, 135.809 42.543, 140 43.174 C 142.475 43.547, 146.892 43.885, 149.815 43.926 L 155.129 44 144.945 53 C 136.133 60.788, 134.273 62.002, 131.131 62.015 C 126.179 62.036, 125.546 62.728, 125.202 68.500 C 124.947 72.769, 129.247 95.581, 130.553 96.886 C 130.785 97.118, 134.672 96.204, 139.191 94.856 L 147.409 92.404 153.742 75.117 C 159.248 60.086, 161.118 56.273, 168.057 45.914 C 173.984 37.068, 175.584 34.024, 174.270 34.092 C 173.296 34.143, 164.175 36.055, 154 38.341 M 52.906 48.482 C 51.032 51.090, 49.585 53.511, 49.690 53.862 C 49.794 54.213, 57.962 56.300, 67.841 58.500 L 85.803 62.500 100.013 61.601 L 114.223 60.702 113.697 56.778 C 113.408 54.620, 111.946 51.087, 110.449 48.927 L 107.728 45 88.614 44.993 C 78.101 44.989, 66.532 44.705, 62.906 44.363 L 56.311 43.740 52.906 48.482 M 115 48.116 C 115 49.280, 116.613 52.430, 118.585 55.116 C 121.616 59.245, 122.679 60, 125.460 60 C 131.918 60, 134.593 58.739, 141.500 52.439 L 148.500 46.054 131.750 46.027 C 115.352 46.001, 115 46.044, 115 48.116 M 50.377 69.372 C 50.709 76.042, 51.268 87.922, 51.619 95.771 L 52.259 110.042 55.379 109.493 C 58.198 108.998, 86.944 105, 87.689 105 C 87.860 105, 88 105.620, 88 106.379 C 88 107.137, 82.067 112.083, 74.817 117.371 C 64.290 125.046, 59.151 128.026, 49.317 132.156 C 40.872 135.702, 37.005 137.827, 37.016 138.914 C 37.025 139.786, 37.923 150.175, 39.012 162 C 40.100 173.825, 40.993 183.840, 40.995 184.256 C 40.998 184.671, 48.645 181.184, 57.989 176.506 L 74.978 168 98.739 168.016 L 122.500 168.032 137.903 175.530 C 146.375 179.654, 153.507 182.827, 153.752 182.581 C 154.167 182.166, 164.917 140.279, 164.974 138.855 C 164.988 138.499, 160.555 134.338, 155.123 129.607 L 145.245 121.005 140.603 121.641 C 136.065 122.263, 135.973 122.347, 136.471 125.389 C 136.752 127.100, 137.098 136.825, 137.241 147 L 137.500 165.500 108.801 165.765 L 80.102 166.031 79.057 162.265 C 77.178 155.499, 77.036 155.642, 91.750 149.442 C 124.277 135.734, 127.497 134.235, 127.336 132.879 C 127.247 132.121, 126.903 129.886, 126.572 127.914 L 125.971 124.329 110.736 127.155 C 102.356 128.709, 94.890 129.985, 94.144 129.990 C 92.765 130, 100.820 120.677, 114.134 106.850 C 120.559 100.177, 121.432 98.836, 120.968 96.350 C 120.529 94, 120.266 93.780, 119.468 95.096 C 118.606 96.519, 116.319 96.602, 98.500 95.855 C 87.500 95.394, 77.406 94.900, 76.069 94.758 C 74.280 94.568, 79.256 91.327, 94.889 82.500 L 116.141 70.500 115.613 67.126 C 115.323 65.270, 114.954 63.657, 114.793 63.541 C 114.632 63.424, 107.750 63.745, 99.500 64.252 L 84.500 65.175 67.137 61.210 L 49.774 57.244 50.377 69.372 M 118.180 65.172 C 118.550 67.681, 119.888 68.354, 121.936 67.060 C 123.126 66.308, 123.147 65.883, 122.063 64.576 C 120.118 62.232, 117.800 62.588, 118.180 65.172 M 119.717 71.750 C 119.496 72.162, 119.649 73.625, 120.058 75 C 120.491 76.458, 120.842 76.805, 120.900 75.832 C 120.955 74.914, 121.273 73.452, 121.607 72.582 C 122.203 71.029, 120.503 70.281, 119.717 71.750 M 100.294 82.377 C 91.381 87.395, 84.069 91.838, 84.044 92.250 C 84.020 92.662, 89.063 93.004, 95.250 93.009 C 101.438 93.013, 108.814 93.295, 111.642 93.635 L 116.784 94.253 117.818 89.407 C 118.523 86.099, 118.528 82.807, 117.833 79.031 C 117.273 75.989, 116.744 73.445, 116.658 73.377 C 116.571 73.309, 109.207 77.359, 100.294 82.377 M 122.750 80.574 C 120.821 82.527, 123.351 99, 125.579 99 C 126.296 99, 127.062 98.662, 127.281 98.250 C 127.959 96.977, 123.547 79.767, 122.750 80.574 M 126.165 101.898 C 125.083 102.567, 125.148 104.352, 126.527 111.856 C 127.946 119.576, 128.503 121, 130.104 121 C 132.450 121, 132.488 119.459, 130.375 109.873 C 128.564 101.658, 128.069 100.721, 126.165 101.898 M 110.395 114.636 C 99.803 125.993, 99.598 126.299, 103.001 125.692 C 124.512 121.852, 125 121.728, 124.999 120.123 C 124.997 117.823, 122.302 103.969, 121.749 103.415 C 121.496 103.162, 116.386 108.212, 110.395 114.636 M 130.178 123.870 C 129.144 124.525, 129.070 125.882, 129.837 130.101 C 130.552 134.040, 130.504 135.689, 129.658 136.215 C 129.021 136.611, 118.150 141.276, 105.500 146.583 C 92.850 151.889, 82.105 156.596, 81.623 157.042 C 81.141 157.488, 81.037 159.012, 81.392 160.427 L 82.038 163 108.519 163 L 135 163 134.912 148.250 C 134.782 126.298, 133.858 121.539, 130.178 123.870" stroke="none" fill="black" fill-rule="evenodd"/>
</svg>