<svg xmlns="http://www.w3.org/2000/svg" width="200" height="200" viewBox="0 0 200 200" version="1.1">
	<path d="M 129.832 18.949 C 112.436 24.289, 98.477 28.008, 94.332 28.408 C 78.678 29.916, 77 30.225, 77 31.596 C 77 32.631, 78.149 32.836, 81.750 32.444 L 86.500 31.925 79.834 34.213 C 73.197 36.490, 73.113 36.566, 61.094 51.226 L 49.020 65.952 62.760 81.352 C 70.317 89.822, 76.701 96.569, 76.947 96.345 C 77.193 96.122, 78.993 83.927, 80.947 69.246 L 84.500 42.553 97.500 40.388 C 104.650 39.198, 110.650 38.360, 110.832 38.528 C 111.015 38.695, 109.539 49.101, 107.552 61.653 C 104.910 78.342, 103.545 91.385, 102.470 110.201 L 101 135.928 86.326 156.457 C 78.255 167.747, 71.503 176.837, 71.322 176.655 C 71.140 176.474, 72.333 171.189, 73.973 164.913 C 76.684 154.536, 86.485 91.954, 85.746 89.738 C 85.575 89.224, 78.826 95.756, 70.749 104.254 L 56.064 119.705 55.373 148.353 C 54.900 167.968, 54.338 176.998, 53.591 176.992 C 51.620 176.978, 20.754 171.088, 20.307 170.640 C 20.067 170.400, 23.691 162.093, 28.361 152.180 L 36.851 134.157 31.866 120.722 L 26.881 107.287 36.263 83.857 L 45.645 60.427 41.749 46.463 C 39.488 38.362, 37.018 31.606, 35.864 30.370 L 33.877 28.240 44.188 27.011 C 81.899 22.518, 84.413 22.080, 82.654 20.321 C 82.069 19.735, 42.759 24.008, 31.596 25.871 L 27.692 26.523 31.302 29.692 C 34.519 32.516, 35.342 34.346, 38.848 46.471 L 42.784 60.080 33.350 83.640 L 23.915 107.200 28.897 120.612 L 33.879 134.024 24.871 153.110 C 19.916 163.607, 16.069 172.402, 16.321 172.654 C 17.087 173.420, 56.976 180.691, 57.506 180.161 C 57.778 179.889, 58.039 168.379, 58.088 154.583 C 58.136 140.787, 58.473 127.404, 58.838 124.843 C 59.435 120.643, 60.575 119.036, 70.457 108.464 C 76.483 102.016, 81.572 97.215, 81.765 97.795 C 82.702 100.607, 74.485 151.013, 70.483 167 C 67.719 178.040, 66.453 184.851, 67.051 185.450 C 68.284 186.685, 67.005 188.304, 86.764 160.500 L 103.819 136.500 104.975 113.500 C 105.720 98.680, 107.212 83.209, 109.168 70 C 110.839 58.725, 112.313 49.384, 112.444 49.242 C 113.470 48.133, 115.347 82.311, 115.699 108.500 L 116.129 140.500 106.101 157.500 C 100.586 166.850, 96.450 174.631, 96.910 174.791 C 97.370 174.951, 106.787 172.814, 117.837 170.041 C 128.886 167.268, 138.541 165, 139.292 165 C 140.044 165, 146.671 169.507, 154.021 175.016 L 167.384 185.032 176.185 167.766 C 181.026 158.270, 184.989 150.174, 184.993 149.776 C 184.997 149.377, 179.871 137.902, 173.602 124.276 L 162.203 99.500 160.542 73.500 L 158.882 47.500 161.941 35.025 C 165.475 20.612, 165.429 21, 163.612 21 C 162.848 21, 160.267 24.038, 157.875 27.750 C 153.634 34.332, 153.518 34.424, 153.212 31.420 L 152.899 28.341 117.741 34.212 C 98.404 37.441, 82.428 40.239, 82.237 40.429 C 82.047 40.620, 80.500 51.514, 78.800 64.638 C 77.100 77.762, 75.392 88.859, 75.006 89.299 C 74.422 89.962, 54.052 68.282, 53.241 66.133 C 53.099 65.756, 57.897 59.428, 63.904 52.072 L 74.826 38.697 87.163 34.848 C 97.032 31.769, 102.701 30.685, 115.500 29.428 L 131.500 27.856 146.393 20.178 C 160.089 13.117, 163.256 10.790, 159.803 10.324 C 159.086 10.228, 145.599 14.109, 129.832 18.949 M 137.500 19.525 C 135.300 20.278, 129.900 22.041, 125.500 23.445 L 117.500 25.997 124.011 25.633 C 129.050 25.351, 132.101 24.458, 137.511 21.684 C 144.655 18.019, 144.650 17.081, 137.500 19.525 M 156.750 34.667 C 154.105 38.953, 154.002 39.628, 154.051 52.312 C 154.080 59.565, 154.679 78.325, 155.382 94 L 156.661 122.500 151.211 135.500 C 148.214 142.650, 145.352 149.575, 144.853 150.889 C 144.353 152.202, 143.732 153.065, 143.473 152.806 C 143.214 152.547, 141.877 144.272, 140.502 134.418 C 138.302 118.655, 138.001 112.996, 138.001 87.368 L 138 58.236 144.484 48.368 C 150.682 38.935, 152.399 33.983, 149.988 32.493 C 149.432 32.149, 141.332 33.118, 131.988 34.647 L 115 37.427 115.022 40.964 C 115.034 42.909, 115.706 51.925, 116.516 61 C 117.326 70.075, 118.279 91.675, 118.634 109 L 119.279 140.500 110.541 155.319 C 105.736 163.469, 102.011 170.345, 102.264 170.598 C 102.517 170.851, 111.297 168.927, 121.776 166.322 L 140.827 161.586 153.663 171.294 L 166.500 181.002 174.348 165.251 L 182.196 149.500 171.031 125.500 L 159.866 101.500 157.946 74.735 C 156.030 48.040, 156.030 47.947, 158.037 39.342 C 159.143 34.597, 159.925 30.602, 159.774 30.463 C 159.623 30.324, 158.262 32.216, 156.750 34.667 M 145.750 51.354 L 141 58.630 141 88.013 C 141 109.769, 141.436 120.724, 142.679 130.218 C 143.603 137.271, 144.680 142.694, 145.073 142.271 C 145.466 141.847, 147.609 137.102, 149.837 131.727 L 153.887 121.955 152.463 87.727 C 151.679 68.902, 150.917 51.380, 150.769 48.789 L 150.500 44.079 145.750 51.354" stroke="none" fill="black" fill-rule="evenodd"/>
</svg>