<svg xmlns="http://www.w3.org/2000/svg" width="200" height="200" viewBox="0 0 200 200" version="1.1">
	<path d="M 92.008 15.967 C 91.344 18.735, 90.492 21, 90.114 21 C 89.736 21, 82.552 25.500, 74.149 31 C 64.207 37.507, 57.932 40.990, 56.185 40.972 C 54.708 40.956, 46.366 39.901, 37.647 38.627 L 21.794 36.311 22.331 39.905 C 22.626 41.882, 23.644 50.700, 24.593 59.500 C 25.543 68.300, 26.661 75.891, 27.079 76.370 C 27.497 76.848, 33.248 72.685, 39.858 67.120 C 46.468 61.554, 52.299 57, 52.816 57 C 53.332 57, 57.197 60.792, 61.404 65.427 C 66.594 71.143, 70.011 74.063, 72.027 74.506 C 73.787 74.893, 75 75.800, 75 76.732 C 75 78.277, 68.079 104.202, 67.503 104.812 C 67.342 104.984, 67.450 100.395, 67.745 94.615 L 68.282 84.105 57.990 73.037 C 52.329 66.950, 47.520 62.147, 47.302 62.365 C 47.085 62.582, 41.773 74.588, 35.499 89.045 L 24.092 115.331 26.796 118.497 C 28.814 120.861, 33.624 123.405, 45.767 128.531 C 54.714 132.307, 61.914 135.714, 61.767 136.101 C 61.620 136.488, 52.725 146.089, 42 157.436 C 31.275 168.784, 22.383 178.402, 22.241 178.811 C 22.098 179.220, 25.473 179.237, 29.741 178.849 C 34.008 178.460, 38.225 178.110, 39.111 178.071 C 39.996 178.032, 49.892 170.688, 61.100 161.750 L 81.479 145.500 90.800 124 C 95.927 112.175, 100.466 102.150, 100.888 101.723 C 101.310 101.295, 102.718 105.795, 104.018 111.723 C 106.063 121.047, 106.457 126.164, 106.941 149.667 C 107.248 164.609, 107.725 177.026, 108 177.259 C 108.275 177.493, 119.300 179.147, 132.500 180.936 C 145.700 182.724, 157.675 184.414, 159.112 184.691 C 161.503 185.152, 162.953 183.598, 176.225 166.347 C 184.200 155.981, 190.607 147.357, 190.462 147.182 C 190.317 147.008, 183.165 148.920, 174.570 151.432 C 165.974 153.945, 158.268 156, 157.446 156 C 156.364 156, 134.142 141.374, 129.083 137.332 C 128.374 136.766, 134.283 85.057, 135.005 85.503 C 135.379 85.734, 137.871 90.701, 140.542 96.540 L 145.399 107.157 143.298 124.328 C 142.142 133.773, 141.329 141.639, 141.491 141.810 C 141.844 142.180, 176.370 104.301, 176.796 103.077 C 177.108 102.177, 164.199 68.253, 162.853 66.436 C 161.939 65.203, 119.745 71.285, 103.533 74.987 C 93.733 77.225, 93.441 77.234, 86.215 75.530 C 81.668 74.458, 79.021 73.359, 79.276 72.649 C 79.503 72.017, 81.179 65.987, 82.999 59.250 L 86.310 47 98.463 47 C 109.976 47, 111.572 47.264, 128.803 52.027 C 142.870 55.915, 169.005 62, 171.638 62 C 171.837 62, 172 61.388, 172 60.640 C 172 59.706, 168.477 58.584, 160.750 57.056 C 154.563 55.832, 140.584 52.363, 129.688 49.347 L 109.875 43.863 98.275 44.578 C 88.562 45.176, 86.754 45.065, 87.169 43.896 C 87.440 43.128, 89.189 36.758, 91.053 29.741 C 92.918 22.723, 94.715 17.098, 95.048 17.241 C 95.380 17.383, 99.226 21.767, 103.593 26.981 L 111.534 36.463 132.017 38.583 C 143.283 39.749, 160.042 41.965, 169.261 43.508 C 184.492 46.056, 189.623 46.239, 186.180 44.111 C 184.137 42.849, 146.885 37.159, 129 35.378 L 112.500 33.735 104 23.284 C 99.325 17.537, 94.986 12.407, 94.358 11.884 C 93.545 11.208, 92.867 12.386, 92.008 15.967 M 76.237 34.858 L 63.973 44.500 73.654 44.788 C 80.155 44.982, 83.568 44.699, 84.045 43.927 C 85.014 42.359, 89.308 25.968, 88.859 25.551 C 88.662 25.367, 82.981 29.555, 76.237 34.858 M 25.511 43.750 C 25.805 45.813, 26.673 52.825, 27.440 59.334 C 28.207 65.842, 29.037 71.370, 29.285 71.618 C 30.090 72.423, 50.508 54.759, 50.236 53.493 C 50.092 52.817, 52.454 50.350, 55.486 48.010 C 58.519 45.671, 61 43.629, 61 43.472 C 61 43.315, 60.165 43.406, 59.144 43.672 C 58.124 43.939, 50.888 43.222, 43.064 42.079 C 23.939 39.284, 24.862 39.196, 25.511 43.750 M 72.433 48 C 63.098 48.464, 62.096 48.718, 58.664 51.500 L 54.962 54.500 63.231 63.179 C 67.918 68.098, 72.586 72.087, 74.006 72.387 C 76.449 72.902, 76.599 72.595, 79.868 60.402 C 81.713 53.520, 83.060 47.802, 82.861 47.695 C 82.663 47.588, 77.970 47.725, 72.433 48 M 47.172 69 C 46.613 70.375, 41.930 81.229, 36.764 93.121 L 27.372 114.742 29.269 117.083 C 30.436 118.525, 38.121 122.369, 49.255 127.081 L 67.345 134.737 47.922 155.118 C 29.362 174.596, 28.629 175.515, 31.408 175.832 C 37.724 176.552, 40.525 174.923, 59.961 159.221 L 79.422 143.500 90.461 117.772 C 96.532 103.622, 101.726 92.035, 102.002 92.022 C 102.278 92.010, 103.991 98.764, 105.809 107.030 C 108.940 121.269, 109.145 123.453, 109.714 148.514 L 110.315 174.968 113.407 175.505 C 115.774 175.915, 160.006 181.999, 160.632 182 C 161.179 182.001, 183.073 152.740, 182.760 152.426 C 182.538 152.205, 176.795 153.624, 169.998 155.581 C 163.201 157.538, 156.933 158.952, 156.070 158.724 C 154.882 158.411, 128.111 140.270, 126.132 138.438 C 125.563 137.911, 132.427 76.002, 133.054 76.001 C 133.359 76, 136.922 82.755, 140.972 91.011 L 148.335 106.021 146.644 119.654 C 145.714 127.152, 145.116 133.449, 145.314 133.647 C 146.177 134.510, 173.484 102.823, 173.297 101.177 C 173.185 100.197, 170.335 92.382, 166.964 83.812 C 162.120 71.495, 160.486 68.308, 159.168 68.601 C 158.250 68.804, 148.050 70.356, 136.500 72.048 C 124.950 73.741, 110.398 76.264, 104.163 77.654 L 92.826 80.182 85.561 78.207 L 78.296 76.232 72.503 97.616 C 65.008 125.285, 63.699 125.966, 64.548 101.750 L 65.154 84.500 56.671 75.500 C 48.341 66.663, 48.169 66.545, 47.172 69" stroke="none" fill="black" fill-rule="evenodd"/>
</svg>