<svg xmlns="http://www.w3.org/2000/svg" width="200" height="200" viewBox="0 0 200 200" version="1.1">
	<path d="M 119 19.090 L 83.500 25.970 59.476 21.485 C 46.263 19.018, 35.200 17, 34.892 17 C 34.584 17, 34.307 40.737, 34.278 69.750 L 34.224 122.500 26.612 148.114 C 22.425 162.202, 19 174.256, 19 174.901 C 19 175.546, 23.606 172.585, 29.236 168.321 C 39.080 160.867, 76.117 136.784, 76.756 137.423 C 76.927 137.593, 72.102 148.702, 66.033 162.107 C 59.965 175.513, 55 187.048, 55 187.741 C 55 188.433, 55.474 189, 56.053 189 C 56.631 189, 65.519 181.873, 75.803 173.162 C 94.073 157.685, 119.772 139.308, 121.103 140.768 C 121.471 141.170, 124.358 152.975, 127.519 167 C 130.680 181.025, 133.571 193.079, 133.944 193.787 C 134.324 194.510, 138.742 184.474, 144.017 170.902 C 149.185 157.607, 153.923 146.228, 154.545 145.615 C 155.167 145.002, 162.287 140.240, 170.368 135.033 C 181.411 127.918, 184.618 125.405, 183.280 124.917 C 182.301 124.560, 174.300 123.025, 165.500 121.506 C 156.700 119.986, 148.907 118.429, 148.183 118.044 C 147.296 117.574, 152.267 112.540, 163.395 102.638 C 172.486 94.549, 180.150 87.566, 180.426 87.120 C 180.843 86.445, 158.896 89.336, 147.250 91.490 C 145.463 91.820, 143.994 91.733, 143.986 91.295 C 143.939 88.630, 150.748 71.631, 152 71.290 C 153.450 70.894, 179.153 35.906, 179.151 34.330 C 179.147 31.556, 175.708 34.886, 162.993 49.974 C 155.101 59.338, 148.025 67, 147.268 67 C 146.511 67, 135.907 64.750, 123.703 62 C 111.500 59.250, 100.845 57, 100.026 57 C 99.207 57, 93.214 59.538, 86.708 62.639 C 79.762 65.950, 74.510 67.910, 73.985 67.385 C 72.999 66.399, 65.803 47, 66.423 47 C 66.636 47, 67.997 49.025, 69.447 51.500 C 70.898 53.975, 72.610 56, 73.254 56 C 75.203 56, 134.988 36.544, 134.994 35.908 C 134.997 35.582, 131.863 34.085, 128.029 32.581 C 119.812 29.357, 115.843 30.204, 123.500 33.548 L 128.441 35.705 101.810 44.353 C 87.163 49.109, 74.801 52.996, 74.339 52.990 C 73.878 52.985, 70.960 48.822, 67.855 43.740 L 62.210 34.500 83.605 34.230 C 101.710 34.002, 105 33.733, 105 32.480 C 105 31.238, 102.387 30.984, 88.750 30.898 C 63.166 30.736, 75.314 29.335, 109.455 28.509 L 139.874 27.773 148.687 21.278 C 157.236 14.978, 159.108 12.697, 156 12.369 C 155.175 12.282, 138.525 15.307, 119 19.090 M 126 20.546 C 113.625 22.930, 102.600 25.107, 101.500 25.383 C 100.400 25.660, 108.488 25.656, 119.474 25.375 L 139.448 24.863 145.412 20.432 C 148.692 17.994, 150.728 16.048, 149.938 16.106 C 149.147 16.164, 138.375 18.162, 126 20.546 M 36.966 65.233 C 36.939 90.130, 36.523 114.775, 36.042 120 C 35.414 126.823, 33.498 135.053, 29.244 149.210 C 25.986 160.050, 23.811 168.633, 24.410 168.283 C 25.010 167.933, 28.100 165.665, 31.279 163.243 C 37.947 158.161, 82.309 129.976, 82.826 130.493 C 83.016 130.683, 78.127 142.012, 71.961 155.669 C 65.795 169.326, 60.504 181.141, 60.202 181.924 C 59.900 182.707, 67.053 177.045, 76.097 169.343 C 93.427 154.585, 122.511 134.194, 123.236 136.294 C 123.465 136.957, 126.081 148.188, 129.049 161.250 C 132.018 174.313, 134.721 185, 135.056 185 C 135.392 185, 139.229 175.752, 143.583 164.449 C 150.854 145.575, 151.786 143.721, 155 141.737 C 156.925 140.549, 162.972 136.658, 168.438 133.091 L 178.375 126.605 159.972 123.253 C 142.749 120.117, 140.034 119.461, 141.083 118.696 C 141.656 118.279, 169.058 94.068, 171.333 91.969 C 172.972 90.457, 171.451 90.536, 156.991 92.713 C 148.094 94.053, 140.566 94.899, 140.260 94.594 C 139.955 94.289, 141.323 89.530, 143.299 84.019 C 145.275 78.509, 146.745 74, 146.564 74 C 146.384 74, 139.230 82.300, 130.668 92.444 L 115.099 110.888 116.381 121.444 C 117.086 127.250, 117.487 132, 117.271 132 C 117.056 132, 110.538 126.644, 102.787 120.099 L 88.695 108.198 73.221 121.139 C 64.710 128.256, 57.554 133.888, 57.320 133.653 C 56.684 133.017, 65.297 86, 66.049 86 C 66.404 86, 70.218 89.006, 74.523 92.680 C 78.829 96.353, 82.111 98.716, 81.817 97.930 C 81.523 97.143, 80.681 94.820, 79.946 92.766 C 78.697 89.277, 77.839 88.689, 66.811 83.766 C 60.322 80.870, 55.010 78.275, 55.007 78 C 55.004 77.725, 58.387 75.978, 62.523 74.118 C 66.660 72.258, 70.292 70.336, 70.595 69.846 C 70.898 69.356, 68.301 61.098, 64.823 51.494 C 58.728 34.664, 58.401 34.033, 55.750 34.017 C 54.105 34.007, 53 33.453, 53 32.638 C 53 31.690, 56.189 30.730, 63.504 29.476 C 69.282 28.486, 73.878 27.545, 73.718 27.385 C 73.559 27.225, 66.244 25.714, 57.464 24.026 C 48.684 22.339, 40.491 20.735, 39.257 20.462 L 37.014 19.966 36.966 65.233 M 87.186 65.423 C 80.964 68.377, 75.676 70.991, 75.436 71.231 C 74.357 72.310, 80.525 86.298, 82.711 87.730 C 84.004 88.578, 85.197 89.097, 85.361 88.885 C 85.524 88.673, 88.046 84.563, 90.964 79.750 C 93.883 74.938, 96.640 71, 97.093 71 C 97.546 71, 103.133 74.387, 109.509 78.527 C 116.301 82.937, 121.599 85.753, 122.301 85.326 C 122.961 84.925, 128.405 81.234, 134.399 77.125 L 145.298 69.653 124.399 64.877 C 112.905 62.250, 102.375 60.090, 101 60.077 C 99.625 60.063, 93.409 62.469, 87.186 65.423 M 66.250 75.259 C 63.913 76.433, 62 77.697, 62 78.066 C 62 78.608, 68.993 81.989, 75.716 84.698 C 76.522 85.022, 76.237 83.129, 74.874 79.094 C 73.742 75.742, 72.295 73.028, 71.658 73.062 C 71.021 73.096, 68.588 74.085, 66.250 75.259 M 92.071 83.156 C 87.313 91.044, 86.380 92.061, 84.371 91.557 L 82.085 90.983 84.293 96.784 C 86.619 102.899, 86.530 102.804, 104.370 117.982 L 114.240 126.379 113.548 119.940 C 113.168 116.398, 112.663 112.808, 112.428 111.962 C 112.062 110.648, 116.955 104.457, 138.844 78.539 C 140.484 76.597, 140.471 76.597, 137.500 78.462 C 135.850 79.498, 131.479 82.348, 127.787 84.795 L 121.073 89.245 110.287 82.305 C 104.354 78.489, 99.047 75.100, 98.493 74.774 C 97.939 74.449, 95.049 78.221, 92.071 83.156 M 66.999 91.750 C 66.998 92.162, 65.632 100.096, 63.963 109.381 C 62.294 118.666, 61.138 126.471, 61.394 126.727 C 62.164 127.498, 85 107.903, 85 106.471 C 85 105.167, 69.215 91.014, 67.750 91.005 C 67.338 91.002, 67 91.338, 66.999 91.750" stroke="none" fill="black" fill-rule="evenodd"/>
</svg>