<svg xmlns="http://www.w3.org/2000/svg" width="200" height="200" viewBox="0 0 200 200" version="1.1">
	<path d="M 139.424 12.551 C 138.985 14.893, 138.003 16.459, 136.624 17.015 C 135.456 17.487, 122.800 19.551, 108.500 21.602 C 94.200 23.653, 82.176 25.604, 81.779 25.936 C 81.383 26.269, 83.509 34.407, 86.505 44.021 C 89.500 53.634, 91.962 61.941, 91.976 62.480 C 91.989 63.019, 87.739 59.218, 82.532 54.032 C 77.324 48.846, 72.902 44.805, 72.705 45.051 C 72.508 45.298, 69.456 52.700, 65.923 61.499 L 59.500 77.498 59.245 68.999 C 59.040 62.192, 57.746 55.971, 52.745 37.752 C 46.755 15.931, 44.808 11.601, 43.528 17.250 C 41.663 25.484, 36.662 65.823, 36.136 76.882 L 35.500 90.265 29.062 65.132 C 24.819 48.568, 22.183 40, 21.331 40 C 19.599 40, 19.567 40.193, 15.652 74 L 12.235 103.500 13.206 133.500 C 13.739 150, 14.305 163.631, 14.462 163.791 C 14.620 163.951, 23.548 161.874, 34.304 159.174 L 53.859 154.267 67.576 144.573 L 81.294 134.880 86.397 137.044 C 89.204 138.234, 91.855 139.538, 92.289 139.943 C 92.723 140.347, 91.486 151.565, 89.539 164.872 C 87.593 178.178, 86 189.275, 86 189.532 C 86 189.790, 86.641 190, 87.424 190 C 88.207 190, 95.624 180.887, 103.906 169.750 L 118.964 149.500 124.695 132.297 C 127.847 122.835, 130.587 115.254, 130.784 115.450 C 130.980 115.647, 130.178 127.144, 129 141 C 127.822 154.856, 127.003 166.302, 127.179 166.437 C 127.356 166.572, 130.875 168.480, 135 170.677 L 142.500 174.673 164.750 171.147 C 176.988 169.209, 187 167.310, 187 166.927 C 187 166.545, 182.139 161.148, 176.198 154.935 L 165.396 143.637 172.648 119.101 C 176.636 105.607, 179.809 94.489, 179.699 94.396 C 179.590 94.302, 173.521 93.838, 166.213 93.363 L 152.927 92.500 165.963 81.213 C 173.134 75.005, 179 69.552, 179 69.094 C 179 68.637, 173.441 63.912, 166.648 58.596 C 156.023 50.281, 154.125 48.360, 153.076 44.860 C 152.406 42.623, 151.624 40.185, 151.340 39.443 C 151.011 38.586, 157.449 40.307, 168.996 44.162 C 181.094 48.201, 187.504 49.896, 188.169 49.231 C 189.479 47.921, 148.376 16.061, 145.329 16.026 C 143.742 16.007, 142.983 15.197, 142.503 13.011 C 141.541 8.633, 140.197 8.432, 139.424 12.551 M 145 19.805 C 145 20.248, 146.044 23.736, 147.320 27.555 L 149.641 34.500 164.985 39.747 C 173.424 42.634, 180.142 44.815, 179.914 44.594 C 177.685 42.438, 146.491 19, 145.850 19 C 145.383 19, 145 19.362, 145 19.805 M 110.237 23.975 C 96.892 26.020, 85.700 27.966, 85.367 28.300 C 85.033 28.634, 87.447 37.590, 90.732 48.203 C 94.016 58.816, 96.338 67.910, 95.892 68.410 C 95.433 68.924, 90.475 65.056, 84.505 59.528 C 78.689 54.143, 73.796 49.908, 73.632 50.118 C 73.467 50.328, 69.915 59.050, 65.739 69.500 L 58.145 88.500 57.657 105.500 L 57.170 122.500 59.459 116.542 C 60.718 113.265, 62.255 110.415, 62.874 110.209 C 64.530 109.657, 64.341 110.594, 60.498 122.005 C 56.786 133.027, 55.467 135.380, 54.463 132.763 C 54.131 131.899, 54.511 115.736, 55.306 96.846 L 56.753 62.500 51.331 43.038 C 48.349 32.334, 45.801 23.467, 45.667 23.334 C 45.534 23.201, 43.901 33.758, 42.039 46.796 C 38.653 70.493, 38.652 70.510, 38.915 104.636 C 39.087 127.037, 38.827 138.989, 38.158 139.402 C 37.597 139.749, 36.931 139.688, 36.678 139.266 C 36.425 138.845, 35.699 128.825, 35.065 117 C 33.937 95.950, 33.796 95.040, 28.337 73.500 C 25.271 61.400, 22.456 50.930, 22.081 50.233 C 21.707 49.535, 19.952 61.460, 18.180 76.733 L 14.960 104.500 15.937 131.874 C 16.474 146.929, 17.138 159.471, 17.412 159.745 C 17.685 160.019, 25.628 158.392, 35.063 156.129 L 52.216 152.015 66.634 141.906 L 81.052 131.797 87.776 134.578 C 91.474 136.108, 94.868 137.669, 95.318 138.048 C 95.768 138.426, 94.726 148.516, 93.004 160.471 C 91.282 172.425, 90.046 182.379, 90.258 182.591 C 90.469 182.803, 96.418 175.228, 103.476 165.759 L 116.309 148.543 124.240 124.771 C 129.607 108.688, 132.629 101, 133.586 101 C 135.354 101, 135.444 98.335, 132.500 133 C 131.125 149.189, 130 162.982, 130 163.650 C 130 164.319, 132.912 166.413, 136.472 168.303 L 142.943 171.739 162.222 168.682 C 172.825 167.001, 181.702 165.470, 181.949 165.280 C 182.197 165.090, 177.853 160.337, 172.296 154.717 L 162.193 144.500 169.061 121.500 C 172.838 108.850, 175.944 97.949, 175.964 97.276 C 175.991 96.375, 171.993 95.979, 160.791 95.776 L 145.581 95.500 160.291 82.630 C 168.381 75.551, 174.997 69.476, 174.994 69.130 C 174.991 68.783, 169.820 64.494, 163.503 59.599 C 152.020 50.699, 152.017 50.696, 149.821 43.877 L 147.625 37.057 141.812 35.094 C 138.616 34.014, 136 33.331, 136 33.574 C 136 34.070, 121.518 83.660, 119.886 88.750 L 118.845 92 106.443 92 L 94.041 92 92 96 C 90.878 98.200, 89.689 100, 89.357 100 C 89.026 100, 85.841 97.638, 82.279 94.750 L 75.802 89.500 84.239 89.213 L 92.675 88.927 107.337 60.735 C 117.487 41.219, 122 31.536, 122 29.271 C 122 27.472, 122.155 26, 122.343 26 C 122.532 26, 125.250 26.882, 128.383 27.960 L 134.080 29.920 134.894 27.710 C 136.740 22.695, 137.051 19.999, 135.769 20.128 C 135.071 20.199, 123.581 21.930, 110.237 23.975 M 138.542 25.170 C 137.698 28.014, 137.118 30.415, 137.253 30.507 C 138.861 31.598, 146 33.785, 146 33.186 C 146 31.169, 141.720 20, 140.947 20 C 140.469 20, 139.387 22.327, 138.542 25.170 M 126 42.918 C 126 50.023, 125.703 56.661, 125.341 57.668 C 124.978 58.676, 124.987 59.228, 125.362 58.896 C 126.060 58.276, 133 34.891, 133 33.159 C 133 32.398, 127.952 30, 126.351 30 C 126.158 30, 126 35.813, 126 42.918 M 108.849 63.676 C 102.057 76.772, 96.350 87.827, 96.167 88.243 C 95.983 88.660, 100.569 89, 106.356 89 L 116.879 89 119.558 80.250 C 122.018 72.214, 122.223 70.238, 122.065 56.030 C 121.971 47.522, 121.737 40.404, 121.546 40.213 C 121.355 40.022, 115.642 50.580, 108.849 63.676 M 85.500 94 C 86.495 95.100, 87.674 96, 88.120 96 C 88.565 96, 89.411 95.100, 90 94 C 90.980 92.168, 90.760 92, 87.380 92 C 83.753 92, 83.721 92.034, 85.500 94" stroke="none" fill="black" fill-rule="evenodd"/>
</svg>