<svg xmlns="http://www.w3.org/2000/svg" width="200" height="200" viewBox="0 0 200 200" version="1.1">
	<path d="M 54.611 16.096 C 53.833 17.968, 50.393 26.657, 46.967 35.405 C 41.654 48.971, 39.046 53.941, 29.239 69.193 C 22.915 79.028, 17.929 87.262, 18.158 87.491 C 18.386 87.720, 22.222 87.323, 26.681 86.609 L 34.788 85.311 40.361 93.149 L 45.934 100.986 42.467 118.162 C 40.560 127.609, 39 135.426, 39 135.533 C 39 135.641, 36.862 136.021, 34.250 136.379 C 21.707 138.097, 17 139.249, 17 140.603 C 17 141.509, 18.143 142.007, 20.250 142.019 C 22.038 142.030, 31.375 142.478, 41 143.015 C 57.179 143.918, 67.474 143.608, 91.750 141.490 L 98 140.944 98 158.885 L 98 176.826 112.900 181.804 L 127.800 186.782 128.388 177.141 C 128.712 171.838, 129.258 162.698, 129.602 156.828 L 130.228 146.156 134.864 145.588 C 137.414 145.276, 144.768 144.561, 151.207 144 L 162.914 142.980 173.613 135.490 L 184.311 128 180.406 128.020 C 178.258 128.031, 170.058 128.695, 162.185 129.496 L 147.870 130.952 138.185 126.844 C 132.858 124.584, 128.362 122.619, 128.193 122.477 C 127.858 122.196, 133.757 90.883, 134.218 90.491 C 134.373 90.359, 145.066 90.616, 157.980 91.063 C 170.894 91.509, 181.587 91.746, 181.743 91.591 C 181.899 91.435, 175.034 86.665, 166.488 80.992 L 150.949 70.676 140.370 73.900 C 134.551 75.673, 129.561 76.894, 129.280 76.613 C 128.999 76.333, 130.267 70.005, 132.097 62.551 C 135.282 49.581, 135.534 49, 137.963 49.005 C 139.358 49.007, 149.500 49.905, 160.500 51 C 171.500 52.095, 181.547 52.993, 182.827 52.995 C 184.753 52.999, 183.118 50.851, 173.327 40.515 C 166.822 33.649, 161.180 28.024, 160.790 28.015 C 160.399 28.007, 154.062 31.545, 146.708 35.877 L 133.336 43.755 112.461 44.127 L 91.586 44.500 89.477 37.500 C 87.375 30.528, 87.328 30.469, 77.433 22.696 C 71.970 18.404, 66.719 14.454, 65.764 13.918 C 63.681 12.750, 63.296 11.653, 72.405 32.838 C 76.032 41.274, 79 48.362, 79 48.588 C 79 49.212, 75.375 49.081, 73.582 48.393 C 72.569 48.005, 72 46.565, 72 44.393 C 72 40.121, 69.030 39.496, 68.946 43.750 C 68.915 45.327, 66.351 39.491, 62.937 30.075 C 59.662 21.041, 56.768 13.434, 56.504 13.171 C 56.241 12.908, 55.390 14.225, 54.611 16.096 M 55.182 22 C 54.635 23.375, 51.723 30.800, 48.710 38.500 C 44.402 49.511, 41.103 55.809, 33.254 68 C 27.024 77.678, 23.759 83.616, 24.563 83.809 C 25.271 83.979, 28.110 83.707, 30.873 83.205 L 35.895 82.292 42.350 91.398 L 48.804 100.503 45.152 118.676 C 43.143 128.671, 41.225 137.120, 40.888 137.453 C 40.552 137.785, 38.302 138.416, 35.888 138.855 C 26.470 140.569, 60.435 141.160, 80.500 139.632 C 90.950 138.836, 99.827 138.493, 100.226 138.869 C 100.625 139.245, 101.075 147.584, 101.226 157.400 L 101.500 175.249 113.263 179.008 C 119.733 181.075, 125.189 182.482, 125.387 182.133 C 125.586 181.785, 126.065 173.175, 126.453 163 C 126.841 152.825, 127.460 144.210, 127.829 143.855 C 128.198 143.500, 135.993 142.567, 145.152 141.782 L 161.803 140.355 168.300 135.927 C 171.873 133.492, 174.715 131.410, 174.616 131.301 C 174.516 131.191, 168.375 131.712, 160.967 132.457 L 147.500 133.813 137 129.304 C 131.225 126.824, 126.127 124.446, 125.670 124.018 C 124.998 123.388, 129.780 94.899, 131.566 88.893 C 131.861 87.900, 132.896 87.404, 134.272 87.596 C 135.497 87.767, 144.761 88.112, 154.858 88.363 L 173.215 88.819 162.127 81.409 C 156.029 77.334, 150.693 73.999, 150.269 73.998 C 149.846 73.997, 144.211 75.646, 137.748 77.663 C 131.284 79.679, 125.752 81.086, 125.455 80.789 C 125.158 80.491, 126.734 73.013, 128.957 64.169 C 131.181 55.326, 133 47.845, 133 47.545 C 133 47.245, 123.169 47, 111.154 47 L 89.308 47 87.154 39.586 C 85.103 32.526, 84.688 31.924, 78.455 26.964 C 74.855 24.100, 71.712 21.954, 71.470 22.197 C 71.139 22.527, 81.401 47.940, 82.635 49.846 C 82.758 50.036, 86.943 50.977, 91.936 51.936 C 96.928 52.895, 101.140 53.864, 101.295 54.090 C 101.450 54.315, 101.307 63.050, 100.979 73.500 L 100.381 92.500 92.237 107 C 80.874 127.232, 82.405 125.745, 76.183 122.593 L 71 119.966 71 101.637 L 71 83.308 63.500 81.129 L 56 78.950 56.009 75.225 C 56.025 68.076, 57.230 61.151, 58.380 61.590 C 59.110 61.868, 59.386 64.603, 59.173 69.447 L 58.846 76.877 64.105 78.438 C 66.997 79.297, 69.751 80, 70.226 80 C 70.700 80, 70.792 73.588, 70.429 65.750 C 69.923 54.804, 69.419 51.221, 68.255 50.295 C 67.422 49.632, 64.364 42.432, 61.459 34.295 C 56.758 21.128, 56.067 19.775, 55.182 22 M 148.061 38.173 C 141.220 42.134, 136.045 45.507, 136.561 45.668 C 138.116 46.156, 177.398 49.936, 177.706 49.628 C 177.863 49.470, 174.056 45.209, 169.246 40.157 L 160.500 30.972 148.061 38.173 M 72.747 60.731 C 73.005 66.104, 73.506 72.920, 73.859 75.878 L 74.500 81.256 84.495 84.049 C 89.993 85.586, 94.639 86.694, 94.820 86.513 C 95.314 86.019, 81.866 54.676, 80.598 53.366 C 79.994 52.743, 77.875 51.947, 75.888 51.597 L 72.277 50.961 72.747 60.731 M 84.781 54.882 C 85.121 55.772, 88.166 62.934, 91.549 70.798 L 97.699 85.097 98.266 70.798 C 98.577 62.934, 98.710 56.377, 98.560 56.227 C 98.411 56.078, 95.110 55.349, 91.226 54.609 C 84.794 53.384, 84.219 53.408, 84.781 54.882 M 74 101.208 L 74 118.630 77.347 120.225 L 80.693 121.821 88.847 107.290 C 93.331 99.297, 97 92.202, 97 91.521 C 97 90.800, 92.786 89.152, 86.883 87.566 C 81.319 86.071, 76.144 84.609, 75.383 84.317 C 74.238 83.877, 74 86.787, 74 101.208" stroke="none" fill="black" fill-rule="evenodd"/>
</svg>