<svg xmlns="http://www.w3.org/2000/svg" width="200" height="200" viewBox="0 0 200 200" version="1.1">
	<path d="M 134.979 26.840 L 126.480 33.680 99.990 34.404 C 55.457 35.621, 27.727 37.306, 27.223 38.826 C 26.868 39.896, 29.599 40.088, 41.393 39.826 C 49.429 39.646, 56.125 39.867, 56.273 40.315 C 56.422 40.763, 62.300 40.516, 69.337 39.765 C 76.373 39.015, 82.275 38.649, 82.452 38.951 C 82.629 39.253, 83.059 46.025, 83.407 54 C 83.755 61.975, 84.299 72.383, 84.616 77.128 L 85.193 85.757 76.347 87.380 C 69.753 88.591, 61.340 89.004, 43.315 89.002 C 20.458 89, 12.300 89.824, 14.587 91.904 C 15.089 92.361, 19.325 93.749, 24 94.988 C 32.005 97.110, 33.969 97.216, 57.750 96.809 L 83 96.376 83.092 118.938 C 83.142 131.347, 83.116 148.025, 83.033 156 L 82.883 170.500 87.370 179.670 L 91.856 188.841 103.979 182.670 L 116.103 176.500 115.553 171.500 C 115.251 168.750, 114.728 151.176, 114.390 132.447 L 113.776 98.394 124.638 97.331 C 130.612 96.747, 142.700 96.458, 151.500 96.691 C 160.300 96.923, 172.099 96.750, 177.721 96.307 L 187.941 95.500 177.277 84.712 L 166.613 73.925 161.056 76.085 C 158 77.272, 149.331 81.182, 141.790 84.773 L 128.081 91.302 121.290 86.354 L 114.500 81.406 114.204 69.453 C 113.921 58.036, 114.056 57.103, 117.198 48.653 L 120.489 39.805 147.836 40.536 L 175.184 41.267 169.483 32.383 C 161.104 19.329, 162.048 20, 152.084 20 L 143.478 20 134.979 26.840 M 136.303 29.312 L 127.105 36.708 136.206 37.354 C 141.212 37.709, 150.877 38, 157.684 38 L 170.061 38 165 30.500 C 160.003 23.094, 159.885 23, 155.595 23 C 153.205 23, 149.956 22.756, 148.375 22.458 C 145.924 21.996, 144.144 23.006, 136.303 29.312 M 92.500 36.878 L 85.500 37.500 85.791 43.500 C 87.472 78.205, 87.827 87.507, 87.484 87.849 C 87.263 88.070, 82.452 89.127, 76.791 90.198 C 68.549 91.758, 63.812 92.044, 53 91.632 C 45.575 91.349, 36.350 91.436, 32.500 91.824 L 25.500 92.531 30 93.631 C 33.051 94.377, 42.552 94.520, 59.500 94.076 C 73.250 93.716, 84.838 93.578, 85.250 93.769 C 85.662 93.961, 86 111.167, 86 132.004 L 86 169.889 89.457 177.475 L 92.914 185.061 103.075 179.962 L 113.236 174.863 112.582 169.182 C 112.222 166.057, 111.691 148.374, 111.402 129.887 L 110.876 96.275 114.063 95.637 C 115.816 95.287, 118.967 95, 121.066 95 C 123.165 95, 125.142 94.580, 125.459 94.066 C 125.776 93.553, 122.664 90.741, 118.542 87.816 L 111.048 82.500 111.051 69.500 C 111.054 56.760, 111.131 56.305, 114.920 46.750 L 118.786 37 113.533 37 C 110.643 37, 106.304 36.833, 103.890 36.628 C 101.475 36.423, 96.350 36.536, 92.500 36.878 M 155.500 81.391 C 150 83.727, 141.900 87.497, 137.500 89.769 L 129.500 93.900 154.583 93.950 C 168.379 93.978, 179.956 93.710, 180.310 93.357 C 180.978 92.689, 167.282 76.945, 166.144 77.072 C 165.790 77.111, 161 79.055, 155.500 81.391" stroke="none" fill="black" fill-rule="evenodd"/>
</svg>