<svg xmlns="http://www.w3.org/2000/svg" width="200" height="200" viewBox="0 0 200 200" version="1.1">
	<path d="M 84.420 24.165 C 79.514 30.305, 75.275 35.657, 75 36.057 C 74.585 36.662, 51.807 34.877, 30.303 32.556 L 25.106 31.995 25.679 63.247 C 26.165 89.745, 25.927 98.608, 24.119 121.500 C 22.322 144.252, 22.141 150.860, 22.972 163.500 C 23.515 171.750, 23.968 179.287, 23.979 180.250 C 23.991 181.213, 24.633 182, 25.406 182 C 26.293 182, 28.934 176.542, 32.544 167.250 C 46.707 130.801, 60.969 95.760, 60.527 98.500 C 59.686 103.701, 52.003 146.413, 51.562 148.341 C 51.207 149.888, 51.568 150.077, 53.820 149.528 C 61.375 147.686, 59.940 145.826, 69.560 169.923 C 74.407 182.066, 78.640 192, 78.967 192 C 79.293 192, 83.240 179.963, 87.737 165.250 C 94.297 143.792, 96.155 136.274, 97.130 127.250 C 97.798 121.063, 98.605 116.003, 98.923 116.006 C 99.240 116.009, 102.844 125.121, 106.932 136.256 C 114.288 156.292, 114.457 156.623, 123.442 168.500 L 132.520 180.500 151.410 182.300 C 161.800 183.290, 170.617 183.740, 171.004 183.300 C 171.391 182.860, 173.799 171.925, 176.355 159 L 181.001 135.500 181.001 104.978 L 181 74.456 172.750 66.464 C 168.213 62.068, 162.658 56.768, 160.406 54.686 L 156.313 50.899 149.848 53.333 L 143.384 55.766 138.044 51.166 L 132.705 46.566 159.532 41.995 C 177.638 38.909, 186.503 36.992, 186.801 36.096 C 187.165 35.005, 183.087 34.895, 163.872 35.481 L 140.500 36.194 124.073 24.608 C 115.038 18.235, 107.519 13.148, 107.363 13.303 C 107.208 13.458, 107.765 16.202, 108.600 19.400 C 109.435 22.598, 109.918 25.415, 109.673 25.660 C 109.428 25.905, 105.861 23.157, 101.745 19.553 C 97.629 15.949, 94.054 13, 93.800 13 C 93.547 13, 89.325 18.024, 84.420 24.165 M 85.344 27.312 C 80.859 32.916, 77.293 37.610, 77.421 37.744 C 77.851 38.194, 113.139 41.194, 113.520 40.813 C 113.728 40.605, 113.411 38.518, 112.816 36.174 C 111.926 32.668, 110.248 30.590, 103.354 24.456 C 98.745 20.355, 94.642 17.028, 94.237 17.062 C 93.832 17.097, 89.830 21.709, 85.344 27.312 M 112 21.057 C 112 21.639, 112.499 24.001, 113.109 26.307 C 113.996 29.662, 115.669 31.749, 121.482 36.750 C 128.298 42.614, 129.047 42.996, 133.623 42.938 C 136.305 42.904, 143 42.053, 148.500 41.048 L 158.500 39.220 149.113 39.110 L 139.727 39 126.423 29.500 C 119.106 24.275, 112.868 20, 112.560 20 C 112.252 20, 112 20.476, 112 21.057 M 28.507 62.643 C 29.141 86.770, 28.941 94.383, 27.011 119.500 C 25.228 142.714, 24.955 151.180, 25.642 161.932 L 26.500 175.365 38.738 143.932 C 55.955 99.710, 63.454 81.682, 64.820 81.227 C 66.595 80.635, 66.434 81.881, 60.500 114.634 C 57.475 131.331, 55 145.259, 55 145.584 C 55 145.910, 56.712 145.887, 58.804 145.533 L 62.608 144.890 70.547 164.868 C 74.914 175.856, 78.588 184.745, 78.711 184.622 C 78.835 184.499, 81.924 174.971, 85.577 163.449 C 91.362 145.200, 92.498 140.310, 94.386 125.508 C 96.040 112.553, 96.904 108.451, 98.027 108.238 C 99.108 108.034, 101.765 114.161, 108 131.230 C 116.475 154.433, 116.524 154.534, 125.245 166.250 C 130.055 172.713, 134.544 178, 135.221 178 C 135.898 178, 143.571 178.729, 152.273 179.620 C 160.974 180.511, 168.358 180.975, 168.681 180.652 C 169.005 180.329, 171.178 170.487, 173.511 158.782 L 177.753 137.500 178.277 106.788 L 178.801 76.076 167.477 65.106 L 156.152 54.135 151.076 55.758 C 148.284 56.651, 146.026 57.633, 146.057 57.941 C 146.089 58.248, 148.396 60.385, 151.185 62.689 C 156.057 66.714, 156.350 66.817, 158.659 65.304 C 161.769 63.266, 162.869 64.382, 160.419 67.089 C 158.545 69.161, 158.549 69.217, 160.759 71.006 C 161.991 72.004, 163 73.092, 163 73.423 C 163 74.888, 141.746 98.961, 140.909 98.444 C 139.660 97.672, 140.147 96.959, 150 85.123 C 154.675 79.507, 158.500 74.419, 158.500 73.815 C 158.500 73.212, 157.796 72.274, 156.936 71.731 C 155.734 70.973, 152.785 72.454, 144.210 78.122 C 138.071 82.180, 133.056 85.950, 133.065 86.500 C 133.074 87.050, 136.585 96.050, 140.867 106.500 C 148.645 125.481, 148.657 125.501, 152.326 126.426 C 154.347 126.936, 156 127.868, 156 128.497 C 156 131.389, 147.889 169.511, 147.108 170.292 C 146.598 170.802, 145.949 170.727, 145.571 170.115 C 145.211 169.533, 140.707 151.690, 135.562 130.465 C 130.417 109.240, 125.961 91.628, 125.661 91.328 C 125.361 91.028, 123.852 91.671, 122.308 92.757 C 120.739 93.860, 114.043 95.894, 107.137 97.366 C 92.825 100.415, 93 100.399, 93 98.724 C 93 98.023, 99.761 93.475, 108.025 88.617 L 123.051 79.786 122.369 76.143 C 121.118 69.450, 120.319 67.499, 118.904 67.680 C 118.132 67.778, 112.672 68.824, 106.770 70.002 L 96.041 72.146 86.025 63.472 L 76.008 54.799 62.412 64.508 C 53.906 70.582, 48.464 73.864, 47.875 73.275 C 47.285 72.685, 51.841 66.197, 60.046 55.943 C 67.258 46.928, 72.786 39.458, 72.330 39.343 C 71.873 39.227, 63.400 38.412, 53.500 37.532 C 43.600 36.652, 33.762 35.674, 31.638 35.359 L 27.776 34.786 28.507 62.643 M 116.042 38.147 C 117.184 42.130, 117.287 42.214, 120.527 41.825 L 123.237 41.500 119.192 38.262 L 115.146 35.023 116.042 38.147 M 159.813 38.683 C 160.534 38.972, 161.397 38.936, 161.729 38.604 C 162.061 38.272, 161.471 38.036, 160.417 38.079 C 159.252 38.127, 159.015 38.364, 159.813 38.683 M 66.105 52.583 C 61.005 58.954, 56.985 64.319, 57.171 64.504 C 57.357 64.690, 61.536 61.889, 66.457 58.280 C 76.879 50.637, 75.107 50.353, 88.387 61.796 L 96.855 69.093 105.177 67.629 C 114.102 66.059, 118.990 64.521, 119.016 63.275 C 119.025 62.849, 118.036 58.337, 116.819 53.250 C 115.214 46.542, 114.180 43.992, 113.053 43.970 C 112.199 43.954, 104.975 43.292, 97 42.500 C 73.745 40.190, 76.831 39.182, 66.105 52.583 M 118.034 45.429 C 118.091 47.227, 121.735 62.068, 122.243 62.577 C 122.636 62.969, 138.897 57.437, 139.694 56.639 C 139.830 56.503, 137.182 53.964, 133.810 50.997 C 128.748 46.541, 126.837 45.492, 122.840 44.979 C 119.672 44.573, 118.012 44.729, 118.034 45.429 M 133.052 62.073 C 128.406 63.680, 124.219 65.381, 123.748 65.852 C 123.272 66.328, 123.508 69.108, 124.279 72.105 C 125.269 75.957, 126.107 77.424, 127.206 77.235 C 128.115 77.079, 129.256 78.205, 129.994 79.985 C 130.681 81.643, 131.428 83, 131.655 83 C 132.805 83, 153.079 68.768, 152.812 68.148 C 152.226 66.787, 143.279 59, 142.388 59.075 C 141.900 59.117, 137.699 60.466, 133.052 62.073 M 127.015 82.750 C 127.007 83.987, 127.450 85, 128 85 C 129.253 85, 129.253 83.939, 128 82 C 127.216 80.787, 127.028 80.931, 127.015 82.750 M 112.753 88.881 C 107.393 92.060, 102.777 94.890, 102.496 95.171 C 102.215 95.452, 105.565 94.905, 109.939 93.955 C 117.457 92.324, 125 88.840, 125 87 C 125 85.531, 123.809 82.998, 123.143 83.052 C 122.789 83.080, 118.114 85.703, 112.753 88.881 M 128.789 88.544 C 128.490 88.843, 129.722 95.031, 131.528 102.294 C 133.333 109.557, 137.417 126.300, 140.604 139.500 L 146.398 163.500 149.651 147.500 C 151.441 138.700, 152.926 130.938, 152.952 130.250 C 152.980 129.528, 151.782 129, 150.115 129 C 147.314 129, 147.006 128.457, 139.473 110.250 C 135.205 99.938, 131.501 90.713, 131.240 89.750 C 130.766 87.997, 129.808 87.525, 128.789 88.544" stroke="none" fill="black" fill-rule="evenodd"/>
</svg>