<svg xmlns="http://www.w3.org/2000/svg" width="200" height="200" viewBox="0 0 200 200" version="1.1">
	<path d="M 46.738 10.250 C 38.670 24.237, 24.860 51.194, 25.456 51.792 C 25.844 52.182, 30.062 52.743, 34.831 53.040 C 41.358 53.447, 44.064 53.228, 45.781 52.155 C 47.036 51.371, 48.301 50.968, 48.593 51.260 C 49.336 52.003, 41.004 68.451, 25.894 96.064 C 18.802 109.024, 13.011 120.049, 13.025 120.564 C 13.038 121.079, 17.928 124.967, 23.892 129.204 L 34.734 136.907 41.676 164.704 C 46.533 184.153, 49.028 192.500, 49.984 192.500 C 50.965 192.500, 53.002 184.733, 57.198 165 C 62.819 138.562, 63.134 136.286, 65.359 106.040 L 67.673 74.581 60.336 63.281 C 56.301 57.066, 53 51.600, 53 51.135 C 53 50.670, 56.500 49.533, 60.778 48.609 C 68.335 46.976, 68.748 46.987, 75.278 49.004 C 78.975 50.146, 82 51.576, 82 52.182 C 82 52.788, 81.068 56.413, 79.929 60.238 C 78.790 64.062, 78.003 67.311, 78.179 67.457 C 79.997 68.960, 113.665 83.539, 117.266 84.383 L 122.032 85.500 118.752 90.500 L 115.472 95.500 98.986 97.185 C 89.919 98.111, 81.938 98.899, 81.250 98.935 C 80.563 98.971, 80 99.675, 80 100.500 C 80 101.522, 81.035 102.005, 83.250 102.016 C 88.369 102.042, 109.202 103.868, 109.666 104.332 C 110.113 104.779, 102.621 117.327, 100.162 120.250 C 99.206 121.387, 97.255 122.005, 94.595 122.014 C 85.384 122.044, 83.583 124.361, 90.879 126.793 C 94.156 127.885, 94.986 128.589, 94.492 129.856 C 94.140 130.760, 93.773 131.734, 93.676 132.021 C 93.420 132.780, 109.366 163, 110.024 163 C 110.329 163, 112.967 157.150, 115.886 150 C 118.805 142.850, 121.745 137, 122.419 137 C 123.658 137, 133 140.005, 133 140.404 C 133 140.523, 129.388 151.119, 124.974 163.951 C 120.560 176.783, 117.116 187.449, 117.321 187.654 C 117.525 187.858, 126.601 181.555, 137.489 173.646 L 157.285 159.266 168.658 138.451 C 177.053 123.085, 179.699 117.424, 178.765 116.826 C 178.069 116.380, 173.993 114.179, 169.706 111.934 C 163.791 108.837, 162.034 107.449, 162.419 106.176 C 162.699 105.254, 164.456 98.875, 166.326 92 L 169.725 79.500 168.941 50 C 168.510 33.775, 168.122 20.387, 168.079 20.250 C 168.035 20.113, 167.422 20, 166.715 20 C 165.973 20, 161.477 29.831, 156.080 43.250 C 150.938 56.038, 146.569 66.685, 146.372 66.910 C 145.905 67.443, 138 65.079, 138 64.407 C 138 64.125, 139.113 62.256, 140.474 60.254 C 141.834 58.252, 142.766 56.432, 142.544 56.211 C 142.322 55.989, 139.383 57.277, 136.013 59.074 L 129.885 62.340 121.869 60.023 C 117.460 58.749, 107.698 55.829, 100.176 53.533 C 87.284 49.598, 86.516 49.220, 86.779 46.950 C 86.932 45.626, 87.405 44.195, 87.829 43.771 C 88.823 42.777, 137.072 33.074, 136.512 33.981 C 136.279 34.357, 130.678 38.228, 124.064 42.582 C 113.592 49.477, 109.808 53, 112.875 53 C 113.356 53, 121.761 49.157, 131.552 44.461 C 141.343 39.765, 149.912 36.136, 150.594 36.398 C 151.276 36.660, 152.078 36.239, 152.375 35.464 C 152.751 34.484, 151.710 33.730, 148.958 32.989 C 146.521 32.332, 145 31.331, 145 30.382 C 145 29.187, 144.320 28.990, 141.970 29.507 C 139.251 30.104, 121.356 26.311, 122.324 25.343 C 122.516 25.151, 128.034 25.439, 134.586 25.981 C 150.965 27.338, 156.263 27.290, 155.763 25.788 C 155.487 24.962, 146.120 23.708, 126.429 21.859 L 97.500 19.143 74 12.586 C 61.075 8.980, 50.205 6.023, 49.845 6.015 C 49.485 6.007, 48.087 7.912, 46.738 10.250 M 39.750 28.898 C 33.837 39.884, 29 49.061, 29 49.291 C 29 49.522, 32.012 49.992, 35.693 50.336 C 42.002 50.925, 42.667 50.781, 47.271 47.826 C 49.958 46.102, 52.828 43.666, 53.649 42.413 C 54.470 41.160, 55.897 40.187, 56.821 40.251 C 58.008 40.332, 83.256 23.953, 88.747 19.538 C 88.942 19.381, 75.242 15.574, 52 9.326 C 50.928 9.038, 47.434 14.620, 39.750 28.898 M 75.172 32.014 L 60.845 41.881 64.950 42.986 C 68.204 43.863, 70.788 43.747, 77.425 42.429 C 85.089 40.907, 85.844 40.544, 86.360 38.133 C 86.669 36.685, 87.808 32.462, 88.891 28.750 C 89.973 25.038, 90.553 22.033, 90.179 22.074 C 89.806 22.115, 83.053 26.588, 75.172 32.014 M 91.064 31.209 C 89.859 35.607, 89.047 39.380, 89.260 39.594 C 89.474 39.807, 99.290 38.005, 111.074 35.590 C 122.858 33.174, 132.182 31.154, 131.793 31.099 C 131.404 31.045, 125.329 29.464, 118.293 27.586 C 111.257 25.708, 102.745 23.956, 99.378 23.692 L 93.255 23.213 91.064 31.209 M 165.154 28.019 C 165.069 28.304, 159.817 41.346, 153.482 57.001 C 147.147 72.656, 142.152 85.953, 142.381 86.550 C 142.610 87.148, 145.431 88.200, 148.649 88.889 C 157.289 90.740, 158 91.010, 158 92.452 C 158 93.315, 156.018 93.989, 152.250 94.407 C 149.088 94.757, 144.475 95.287, 142 95.584 L 137.500 96.125 130.125 114.638 C 126.012 124.962, 123.137 133.510, 123.625 133.964 C 124.106 134.412, 127.088 135.516, 130.250 136.417 C 133.412 137.318, 136 138.504, 136 139.052 C 136 139.599, 132.856 149.297, 129.013 160.603 C 125.170 171.908, 122.388 181.010, 122.831 180.829 C 123.274 180.648, 130.702 175.352, 139.338 169.060 L 155.039 157.621 165.670 138.212 C 174.152 122.728, 176.018 118.622, 174.901 117.902 C 174.130 117.406, 170.350 115.367, 166.500 113.372 C 162.650 111.377, 159.357 109.621, 159.181 109.470 C 159.006 109.320, 160.707 102.290, 162.961 93.848 L 167.059 78.500 166.184 53 C 165.703 38.975, 165.239 27.733, 165.154 28.019 M 136.429 37.500 C 133.722 39.425, 131.832 41, 132.231 41 C 133.687 41, 144 35.560, 144 34.792 C 144 33.120, 141.162 34.135, 136.429 37.500 M 55.872 45.687 C 54.664 47.172, 54.719 47.292, 56.332 46.687 C 57.339 46.309, 59.139 45.993, 60.332 45.985 C 62.098 45.972, 62.222 45.790, 61 45 C 58.821 43.592, 57.425 43.779, 55.872 45.687 M 78.500 44.959 L 75.500 45.681 78.315 46.840 C 82.379 48.514, 84 48.275, 84 46 C 84 43.900, 83.383 43.783, 78.500 44.959 M 85 52.186 C 85 52.362, 84.142 55.507, 83.093 59.175 L 81.186 65.844 96.843 73.058 C 110.359 79.285, 122.747 83.831, 123.418 82.809 C 126.277 78.453, 130 72.176, 130 71.712 C 130 71.375, 127.412 70.965, 124.250 70.800 C 121.088 70.635, 118.544 70.050, 118.597 69.500 C 118.650 68.950, 120.450 67.495, 122.597 66.266 C 124.744 65.038, 126.237 64.025, 125.915 64.016 C 125.468 64.004, 99.941 56.433, 86.750 52.400 C 85.787 52.106, 85 52.009, 85 52.186 M 47.467 61.250 C 45.872 64.688, 38.079 79.373, 30.149 93.885 C 18.958 114.366, 16.042 120.451, 17.116 121.076 C 17.877 121.520, 22.747 124.955, 27.937 128.710 L 37.374 135.538 43.497 160.519 C 47.317 176.104, 49.856 184.748, 50.248 183.500 C 50.593 182.400, 53.148 170.475, 55.924 157 C 60.566 134.468, 61.130 130.185, 62.941 103.674 L 64.910 74.849 58.303 64.924 C 54.668 59.466, 51.396 55, 51.031 55 C 50.666 55, 49.063 57.813, 47.467 61.250 M 127 67 C 125.884 67.721, 126.461 67.973, 129.250 67.985 C 131.313 67.993, 133 67.550, 133 67 C 133 65.726, 128.971 65.726, 127 67 M 130.071 77.250 L 126.094 83.500 130.797 84.731 C 138.403 86.721, 138.477 86.679, 141.808 78.500 L 144.863 71 139.456 71 L 134.049 71 130.071 77.250 M 121.763 90.607 L 119.027 95.081 126.763 94.408 C 131.018 94.038, 135.063 93.290, 135.750 92.745 C 138.041 90.931, 137.040 89.087, 133.250 88.139 C 124.254 85.888, 124.710 85.790, 121.763 90.607 M 139.638 91.500 C 139.210 92.615, 139.760 92.982, 141.781 92.930 C 143.277 92.891, 145.379 92.516, 146.453 92.095 C 148.107 91.448, 147.896 91.229, 145.078 90.666 C 140.528 89.756, 140.294 89.791, 139.638 91.500 M 125.665 97.057 C 121.906 97.494, 118.193 98.096, 117.415 98.394 C 115.240 99.229, 115.738 101.822, 118.142 102.180 C 120.021 102.461, 119.225 103.803, 111.633 113.146 C 106.875 119.002, 102.311 124.050, 101.491 124.365 C 98.275 125.599, 100.393 127.029, 109.707 129.913 C 115.046 131.566, 119.543 132.791, 119.699 132.634 C 120.285 132.048, 134 97.794, 134 96.916 C 134 96.412, 133.662 96.059, 133.250 96.131 C 132.838 96.204, 129.424 96.620, 125.665 97.057 M 107.250 98.737 C 100.352 99.220, 100.465 101, 107.393 101 C 111.264 101, 112.948 100.577, 113.362 99.500 C 113.678 98.675, 113.614 98.083, 113.219 98.185 C 112.823 98.287, 110.138 98.535, 107.250 98.737 M 111.705 107.166 C 110.220 109.775, 110.186 110.091, 111.509 108.992 C 113.484 107.353, 115.352 103.998, 114.285 104.006 C 113.853 104.010, 112.692 105.432, 111.705 107.166 M 97.272 130.733 C 96.509 132.721, 108.912 157.506, 110.065 156.299 C 111.067 155.250, 118 137.941, 118 136.488 C 118 135.468, 114.864 134.256, 102.205 130.383 C 98.373 129.210, 97.842 129.248, 97.272 130.733" stroke="none" fill="black" fill-rule="evenodd"/>
</svg>