<svg xmlns="http://www.w3.org/2000/svg" width="200" height="200" viewBox="0 0 200 200" version="1.1">
	<path d="M 37.538 25.280 L 27.838 45.406 30.058 53.203 C 31.279 57.491, 32.585 61, 32.961 61 C 33.337 61, 36.200 59.616, 39.322 57.925 C 42.445 56.234, 45 55.104, 45 55.415 C 45 55.726, 40.050 66.259, 34 78.822 C 27.950 91.385, 23 102.148, 23 102.740 C 23 103.332, 25.055 106.340, 27.567 109.423 L 32.134 115.030 31.417 145.015 C 30.729 173.794, 30.774 175, 32.552 175 C 35.545 175, 58.436 170.810, 59.182 170.126 C 59.558 169.782, 59.285 156.225, 58.576 140 L 57.287 110.500 61.541 93.500 C 63.881 84.150, 65.841 77.420, 65.898 78.543 C 65.954 79.667, 66.900 89.328, 68.001 100.011 C 69.807 117.538, 69.898 121.733, 68.932 142.967 C 68.343 155.910, 68.005 169.022, 68.181 172.104 L 68.500 177.708 85 171.802 L 101.500 165.895 128.651 167.448 C 143.584 168.301, 161.388 169, 168.215 169 L 180.628 169 180.491 111.250 L 180.355 53.500 175.969 37.639 C 173.557 28.915, 171.046 21.571, 170.389 21.319 C 169.731 21.067, 158.148 23.817, 144.648 27.430 C 131.148 31.044, 118.045 34, 115.531 34 C 111.847 34, 79.603 25.286, 63.630 19.975 L 60.759 19.020 63.130 21.956 C 64.433 23.570, 67.829 27.525, 70.675 30.745 L 75.849 36.598 55.418 46.799 C 44.181 52.410, 34.808 57, 34.588 57 C 34.051 57, 31 47.975, 31 46.387 C 31 45.696, 35.229 36.356, 40.398 25.633 C 46.970 11.999, 49.412 5.988, 48.517 5.645 C 47.668 5.319, 43.981 11.911, 37.538 25.280 M 145.788 29.847 C 134.396 32.943, 125.396 35.749, 125.788 36.083 C 126.180 36.417, 134.569 39.956, 144.431 43.949 C 167.667 53.356, 167.379 53.220, 165.799 54.040 C 165.085 54.411, 155.162 56.681, 143.750 59.086 C 132.282 61.502, 123 63.940, 123 64.536 C 123 65.129, 125.250 75.418, 128 87.401 C 130.750 99.384, 133 109.370, 133 109.594 C 133 109.817, 132.362 110, 131.582 110 C 130.677 110, 128.995 106.476, 126.929 100.250 C 124.059 91.603, 122.951 89.668, 117.136 83.152 L 110.579 75.804 106.263 80.372 C 103.052 83.770, 102.072 85.524, 102.436 87.220 C 102.705 88.474, 103.859 99.850, 105 112.500 C 106.141 125.150, 107.271 136.429, 107.510 137.565 C 107.944 139.625, 107.975 139.626, 120.986 138.002 C 128.158 137.106, 134.418 135.952, 134.898 135.437 C 135.377 134.922, 138.948 124.754, 142.832 112.843 C 151.478 86.333, 152.696 83.296, 154.110 84.710 C 154.958 85.558, 158.556 121.433, 160.152 144.950 L 160.454 149.400 140.645 156.559 C 117.571 164.898, 117.327 164.528, 146.500 165.469 C 156.400 165.788, 167.501 166.287, 171.170 166.577 L 177.839 167.105 177.843 111.140 L 177.848 55.174 173.649 39.846 C 170.744 29.243, 168.995 24.471, 167.975 24.367 C 167.164 24.285, 157.180 26.750, 145.788 29.847 M 70.615 26.236 C 71.102 27.083, 73.464 29.897, 75.864 32.490 L 80.229 37.204 91.123 36.492 C 97.115 36.101, 102.211 35.468, 102.446 35.087 C 102.784 34.540, 88.536 29.983, 71.615 25.226 C 70.140 24.811, 69.923 25.031, 70.615 26.236 M 97.583 38.690 C 90.479 39.380, 84.292 40.069, 83.833 40.222 C 83.375 40.375, 87.294 45.343, 92.542 51.262 L 102.084 62.023 107.639 56.023 C 110.694 52.723, 114.086 48.889, 115.177 47.502 C 116.268 46.116, 117.522 45.205, 117.965 45.478 C 118.407 45.751, 119.306 48.824, 119.963 52.306 C 120.621 55.789, 121.467 59.137, 121.844 59.748 C 122.325 60.527, 127.681 59.729, 139.785 57.075 C 149.276 54.995, 157.244 53.089, 157.493 52.841 C 157.741 52.592, 149.801 49.073, 139.848 45.021 C 119.373 36.685, 118.917 36.617, 97.583 38.690 M 62.876 47.264 L 48.320 55.414 38.229 76.457 C 32.679 88.031, 27.602 98.700, 26.946 100.168 C 25.853 102.614, 26.115 103.297, 30.094 108.392 L 34.434 113.949 34.122 142.975 C 33.867 166.787, 34.052 171.992, 35.155 171.957 C 37.647 171.877, 55.961 168.372, 56.452 167.881 C 56.719 167.614, 56.419 154.493, 55.784 138.724 L 54.629 110.053 59.506 89.526 C 62.188 78.235, 64.728 68.440, 65.150 67.757 C 66.935 64.868, 67.858 69.809, 70.236 95 C 72.635 120.401, 72.690 122.578, 71.579 147.500 C 70.942 161.800, 70.477 173.614, 70.547 173.754 C 70.617 173.894, 77.610 171.507, 86.087 168.449 C 100.224 163.351, 101.984 162.942, 107.346 163.506 C 112.015 163.997, 113.036 163.857, 112.413 162.811 C 111.985 162.090, 107.257 154.934, 101.908 146.910 L 92.182 132.320 92.747 101.990 L 93.311 71.661 96.765 67.839 L 100.218 64.016 90.135 52.652 C 84.589 46.402, 79.463 40.799, 78.742 40.201 C 77.752 39.379, 73.887 41.099, 62.876 47.264 M 109.597 57.616 L 103.694 64.089 107.097 67.783 C 108.969 69.815, 110.650 71.707, 110.832 71.988 C 111.463 72.956, 118.940 63.496, 118.970 61.693 C 119.014 59.030, 116.865 50.988, 116.131 51.071 C 115.784 51.111, 112.844 54.056, 109.597 57.616 M 98.803 69.750 L 96.232 72.500 95.584 102 L 94.935 131.500 105.062 146.750 C 110.632 155.137, 115.713 162, 116.353 162 C 117.459 162, 155.391 148.494, 156.895 147.565 C 157.505 147.188, 153.594 95.283, 152.770 92.811 C 152.613 92.339, 148.966 102.538, 144.667 115.476 C 140.367 128.414, 136.321 139.022, 135.675 139.048 C 135.029 139.075, 127.975 139.913, 120 140.911 C 112.025 141.908, 105.425 142.674, 105.334 142.612 C 105.009 142.392, 100 89.999, 100 86.815 C 100 84.290, 101.046 82.507, 104.704 78.793 L 109.408 74.017 106.008 70.508 C 104.138 68.579, 102.330 67, 101.991 67 C 101.652 67, 100.217 68.237, 98.803 69.750 M 116.039 70.460 L 112.685 73.920 118.466 80.504 C 121.645 84.125, 124.411 86.922, 124.613 86.720 C 125.170 86.163, 120.677 67, 119.990 67 C 119.661 67, 117.883 68.557, 116.039 70.460" stroke="none" fill="black" fill-rule="evenodd"/>
</svg>