<svg xmlns="http://www.w3.org/2000/svg" width="200" height="200" viewBox="0 0 200 200" version="1.1">
	<path d="M 45.135 33.562 C 37.853 51.128, 31.807 65.950, 31.698 66.500 C 31.589 67.050, 33.991 67.874, 37.037 68.332 C 41.893 69.062, 43.293 68.845, 48.440 66.569 C 51.667 65.142, 54.520 64.187, 54.780 64.446 C 55.039 64.706, 53.959 68.649, 52.380 73.209 C 49.780 80.713, 48.524 82.623, 39.141 93.337 C 27.643 106.467, 27.089 108.704, 36.353 104.608 C 39.459 103.234, 42 102.214, 42 102.341 C 42 102.468, 37.458 115.381, 31.907 131.036 C 12.727 185.124, 9.981 193.261, 11.238 192.277 C 45.890 165.156, 54 158.693, 54 158.202 C 54 157.875, 51.732 150.483, 48.959 141.775 C 46.186 133.067, 44.177 125.522, 44.494 125.010 C 45.577 123.258, 52.069 122.763, 64.537 123.483 L 77 124.201 77 126.925 C 77 128.668, 78.978 132.293, 82.496 136.995 C 85.519 141.035, 87.881 144.445, 87.746 144.571 C 87.611 144.698, 80.558 148.001, 72.073 151.911 C 63.588 155.821, 56.468 159.199, 56.250 159.417 C 56.032 159.635, 58.699 165.041, 62.177 171.431 C 66.420 179.227, 69.158 183.190, 70.500 183.480 C 73.654 184.160, 132.177 189.156, 132.556 188.777 C 132.743 188.590, 136.808 180.127, 141.589 169.969 C 146.370 159.811, 150.385 151.370, 150.512 151.212 C 150.639 151.054, 152.213 153.215, 154.010 156.016 C 155.807 158.816, 157.778 160.919, 158.389 160.688 C 159 160.457, 164.900 158.347, 171.500 155.999 C 178.100 153.651, 183.890 151.378, 184.367 150.948 C 184.844 150.518, 176.294 143.545, 165.367 135.451 C 154.440 127.358, 145.352 120.610, 145.172 120.457 C 144.991 120.303, 150.954 112.211, 158.422 102.474 C 169.178 88.451, 172.002 84.120, 172.009 81.636 C 172.015 79.911, 172.684 68.182, 173.497 55.571 C 174.310 42.960, 174.750 32.417, 174.476 32.142 C 174.201 31.868, 162.663 33.581, 148.836 35.949 C 123.990 40.203, 123.499 40.246, 107.097 39.608 C 97.969 39.252, 87.284 38.697, 83.352 38.373 L 76.204 37.784 75.490 26.846 C 75.002 19.380, 74.414 16.028, 73.638 16.287 C 73.012 16.495, 70.953 20.889, 69.063 26.051 L 65.626 35.437 62.421 19.793 C 60.659 11.189, 59.027 3.581, 58.795 2.886 C 58.564 2.192, 52.417 15.996, 45.135 33.562 M 46.320 37.796 C 38.676 56.179, 35.571 64.729, 36.358 65.235 C 38.533 66.634, 42.896 65.988, 49.184 63.337 C 52.658 61.872, 55.992 60.184, 56.592 59.587 C 57.193 58.989, 59.099 54.450, 60.826 49.500 L 63.968 40.500 60.950 26.049 C 59.290 18.101, 57.818 11.484, 57.678 11.345 C 57.539 11.206, 52.428 23.108, 46.320 37.796 M 69.705 32.639 C 67.042 40.393, 66.968 41.095, 68.140 47.457 C 69.195 53.182, 69.630 54.055, 71.185 53.568 C 72.183 53.256, 73.900 52.723, 75 52.383 C 77.888 51.493, 77.516 53.561, 73.987 58.017 L 70.973 61.822 72.641 69.661 C 73.558 73.972, 74.590 77.828, 74.934 78.229 C 75.277 78.630, 82.667 71.543, 91.354 62.479 C 100.042 53.416, 107.791 46, 108.575 46 C 109.359 46, 110 46.169, 110 46.375 C 110 46.581, 106.234 56.531, 101.630 68.485 L 93.261 90.221 86.067 95.224 C 81.173 98.629, 79.054 100.697, 79.437 101.696 C 79.747 102.503, 80 104.016, 80 105.059 C 80 106.101, 81.107 107.679, 82.460 108.566 C 84.885 110.155, 85.198 109.977, 104.690 95.939 C 115.564 88.108, 125.005 81.656, 125.672 81.601 C 128.942 81.329, 125.617 84.209, 108.301 96.645 C 97.960 104.071, 89.356 110.548, 89.179 111.037 C 89.002 111.526, 90.071 112.231, 91.553 112.603 C 93.035 112.975, 96.457 115.241, 99.157 117.639 L 104.067 122 117.242 122 L 130.416 122 125.966 117.250 C 123.519 114.638, 119.047 109.908, 116.029 106.739 L 110.542 100.979 128.912 82.588 L 147.283 64.197 139.627 63.480 C 132.667 62.827, 129.894 61.773, 131.339 60.327 C 131.636 60.031, 136.669 60.356, 142.524 61.049 L 153.170 62.311 133.903 81.597 L 114.637 100.882 118.988 105.691 C 130.050 117.915, 134.267 122, 135.821 121.995 C 139.347 121.984, 143.290 117.990, 155.071 102.500 C 161.764 93.700, 167.619 86.025, 168.081 85.445 C 168.959 84.343, 172.352 36.018, 171.604 35.271 C 171.369 35.035, 160.341 36.706, 147.098 38.983 L 123.020 43.123 102.306 42.062 C 90.913 41.478, 79.677 41, 77.337 41 L 73.081 41 72.790 32.750 L 72.500 24.500 69.705 32.639 M 62.722 52.189 C 61.807 55.051, 61.212 57.546, 61.400 57.733 C 61.588 57.921, 62.931 57.533, 64.385 56.871 C 66.739 55.798, 66.959 55.275, 66.393 52.083 C 65.407 46.521, 64.527 46.547, 62.722 52.189 M 93.936 63.782 C 88.732 69.127, 82.492 75.619, 80.070 78.209 L 75.665 82.917 76.923 89.959 C 77.615 93.831, 78.365 97, 78.589 97 C 78.964 97, 88.527 90.456, 90.259 89.014 C 91.183 88.245, 104.168 54.835, 103.718 54.384 C 103.542 54.209, 99.140 58.438, 93.936 63.782 M 62.355 60.541 C 59.779 61.671, 58.832 63.042, 57.112 68.133 C 55.958 71.551, 55.137 74.470, 55.288 74.621 C 55.716 75.050, 68 60.755, 68 59.827 C 68 58.675, 66.050 58.922, 62.355 60.541 M 60.264 73.471 C 53.966 80.665, 51.434 84.457, 49.501 89.592 C 48.111 93.286, 47.094 96.427, 47.240 96.573 C 48.144 97.478, 65.644 88.768, 68.518 85.982 C 72.483 82.140, 72.637 80.721, 70.168 70.782 L 68.500 64.064 60.264 73.471 M 69.665 88.800 C 68.185 90.285, 62.151 93.565, 56.256 96.090 L 45.537 100.680 30.762 142.501 C 22.637 165.502, 16.103 184.435, 16.244 184.574 C 16.472 184.798, 48.378 159.999, 50.250 158.143 C 50.663 157.734, 48.528 149.547, 45.506 139.950 C 42.484 130.352, 40.009 121.938, 40.006 121.250 C 40.003 120.544, 41.228 120, 42.822 120 C 46.399 120, 76.397 99.477, 75.653 97.538 C 75.382 96.833, 74.848 94.168, 74.465 91.616 C 74.082 89.063, 73.451 86.779, 73.062 86.538 C 72.672 86.297, 71.144 87.316, 69.665 88.800 M 40.750 95.526 C 38.138 98.424, 36 101.076, 36 101.418 C 36 101.760, 37.693 101.177, 39.763 100.121 C 42.403 98.774, 43.922 97.105, 44.854 94.526 C 45.585 92.504, 46.030 90.717, 45.842 90.553 C 45.654 90.390, 43.362 92.627, 40.750 95.526 M 63.814 110.695 C 56.836 115.516, 51.225 119.558, 51.344 119.677 C 51.463 119.796, 58.474 118.033, 66.924 115.760 C 76.882 113.081, 81.630 111.396, 80.419 110.972 C 79.274 110.570, 78.154 108.692, 77.525 106.122 L 76.500 101.928 63.814 110.695 M 81.131 114.702 L 76.761 116.246 80.116 118.373 C 82.436 119.844, 85.791 120.675, 90.986 121.066 C 95.119 121.377, 98.677 121.500, 98.893 121.340 C 99.943 120.559, 95.944 117.430, 91.221 115.338 C 88.318 114.052, 85.843 113.036, 85.721 113.079 C 85.600 113.122, 83.534 113.853, 81.131 114.702 M 68 118.400 L 60.500 120.500 67.870 120.796 C 71.924 120.959, 75.448 120.885, 75.701 120.632 C 75.954 120.379, 76.013 119.300, 75.831 118.235 C 75.506 116.332, 75.373 116.335, 68 118.400 M 140.845 125.344 C 139.245 127.548, 139.374 127.915, 144.691 136.312 C 147.716 141.090, 150.872 145, 151.703 145 C 152.659 145, 152.995 145.571, 152.617 146.555 C 152.275 147.447, 153.400 150.154, 155.260 152.909 L 158.500 157.709 162.500 156.333 C 164.700 155.576, 169.566 153.792, 173.313 152.367 L 180.126 149.777 162.107 136.389 C 152.196 129.025, 143.730 123.014, 143.294 123.031 C 142.857 123.049, 141.755 124.089, 140.845 125.344 M 79.652 126.750 C 80.427 129.840, 89.667 143, 91.061 143 C 92.358 143, 105.003 136.674, 104.983 136.035 C 104.943 134.766, 84.057 124, 81.634 124 C 79.218 124, 79.028 124.264, 79.652 126.750 M 91.083 124.407 C 91.313 124.631, 95.444 127.090, 100.265 129.870 C 111.343 136.261, 114.246 135.849, 107.365 128.863 C 102.700 124.126, 102.420 124, 96.621 124 C 93.346 124, 90.854 124.183, 91.083 124.407 M 110.990 128.610 L 114.986 132.220 122.243 128.689 L 129.500 125.159 118.247 125.080 L 106.994 125 110.990 128.610 M 124.173 130.703 L 116.845 134.286 122.632 140.134 C 130.713 148.299, 128.869 149.328, 117.646 142.915 L 108.839 137.883 100.919 141.599 C 96.564 143.643, 93 145.615, 93 145.982 C 93 147.013, 104.021 161.500, 104.806 161.500 C 107.199 161.500, 146.996 146.498, 146.976 145.603 C 146.963 144.996, 144.376 140.675, 141.226 136 C 137.529 130.512, 134.791 127.433, 133.500 127.310 C 132.400 127.206, 128.203 128.733, 124.173 130.703 M 113 137.049 C 113.825 137.609, 115.400 138.567, 116.500 139.179 C 118.474 140.277, 118.475 140.263, 116.595 138.146 C 115.547 136.965, 113.972 136.007, 113.095 136.015 C 111.697 136.029, 111.685 136.156, 113 137.049 M 74.250 153.773 C 66.412 157.408, 60 160.689, 60 161.063 C 60 161.548, 69.240 178.983, 70.388 180.664 C 70.885 181.391, 130.417 185.975, 131.033 185.334 C 132.102 184.223, 148.213 149.860, 147.812 149.547 C 147.641 149.412, 137.825 152.808, 126 157.094 C 114.175 161.381, 104.199 164.913, 103.830 164.944 C 103.462 164.975, 100.187 160.950, 96.554 156 C 92.921 151.050, 89.622 147.037, 89.224 147.082 C 88.826 147.126, 82.088 150.137, 74.250 153.773" stroke="none" fill="black" fill-rule="evenodd"/>
</svg>