<svg xmlns="http://www.w3.org/2000/svg" width="200" height="200" viewBox="0 0 200 200" version="1.1">
	<path d="M 87.500 20.352 L 80.500 26.683 72 25.396 C 62.621 23.976, 57 23.679, 57 24.603 C 57 24.934, 58.766 28.973, 60.924 33.579 L 64.848 41.953 52.674 53.451 L 40.500 64.949 34.772 64.974 L 29.045 65 33.616 69.214 C 38.758 73.953, 38.616 72.283, 35.393 90.137 L 33.834 98.774 22.919 111.637 C 16.916 118.712, 12.003 124.733, 12.002 125.018 C 11.997 126.209, 32.992 146.342, 33.602 145.731 C 34.223 145.110, 23.390 132.469, 17.664 127.134 L 15.125 124.768 25.885 112.273 L 36.646 99.777 38.505 88.335 C 39.528 82.042, 40.672 76.703, 41.049 76.470 C 42.948 75.296, 45.099 80.995, 48.218 95.460 L 51.659 111.420 46.330 124.701 C 40.716 138.688, 40.245 140.418, 42.226 139.758 C 43.669 139.277, 53.885 114.502, 53.953 111.317 C 53.979 110.117, 52.454 102.072, 50.565 93.440 C 47.782 80.724, 46.643 77.237, 44.565 75.068 C 43.154 73.595, 42 71.388, 42 70.164 C 42 67.972, 42.160 67.945, 52.250 68.467 C 57.888 68.758, 68.299 69.271, 75.386 69.607 L 88.272 70.217 87.629 77.359 C 87.276 81.286, 86.693 94.321, 86.333 106.325 L 85.680 128.150 75.074 140.325 C 61.249 156.196, 59.994 157.869, 60.031 160.385 C 60.051 161.794, 63.862 165.922, 71.443 172.750 L 82.824 183 100.038 183 C 113.805 183, 149.732 180.601, 150.717 179.616 C 150.841 179.492, 151.610 173.341, 152.426 165.946 L 153.911 152.500 150.525 137.652 C 148.662 129.486, 146.909 122.576, 146.629 122.295 C 146.349 122.015, 142.769 128.476, 138.674 136.652 L 131.229 151.518 114.438 153.283 C 105.203 154.253, 97.320 154.699, 96.920 154.273 C 96.520 153.848, 94.500 147.992, 92.432 141.260 C 89.051 130.253, 88.823 128.843, 90.172 127.260 C 104.635 110.286, 138.384 72.010, 138.861 72.038 C 139.212 72.059, 141.225 74.617, 143.334 77.721 C 146.661 82.621, 147.635 85.489, 150.701 99.433 C 154.050 114.660, 154.627 116.232, 161.737 129.500 C 165.863 137.200, 169.333 143.611, 169.449 143.746 C 169.564 143.881, 174.161 137.099, 179.664 128.674 L 189.669 113.355 182.102 98.183 L 174.536 83.010 158.768 75.801 C 143.484 68.813, 142.999 68.498, 142.959 65.546 L 142.919 62.500 140.076 65.822 L 137.233 69.145 114.502 68.195 C 98.615 67.532, 91.544 66.879, 91.018 66.029 C 90.604 65.359, 86.943 63.308, 82.883 61.470 L 75.500 58.129 71.645 50.314 L 67.789 42.500 73.533 37.272 L 79.276 32.043 87.658 44.896 L 96.040 57.749 109.770 62.502 C 117.321 65.116, 124.061 67.470, 124.746 67.733 C 125.698 68.098, 125.876 66.472, 125.502 60.856 C 125.233 56.810, 124.743 49.118, 124.414 43.763 L 123.815 34.026 109.969 24.013 C 102.354 18.506, 95.758 14.005, 95.312 14.011 C 94.865 14.017, 91.350 16.871, 87.500 20.352 M 88.038 23.534 L 81.119 30.213 89.532 42.809 L 97.945 55.406 108.223 59.069 C 113.875 61.083, 119.482 63.038, 120.683 63.412 C 122.857 64.089, 122.864 64.046, 122.382 52.796 C 121.597 34.481, 122.542 36.349, 109.224 26.781 C 102.776 22.149, 96.928 18.020, 96.228 17.607 C 95.406 17.121, 92.508 19.218, 88.038 23.534 M 62.318 30.145 C 65.170 36.822, 66.334 39, 67.052 39 C 67.455 39, 70.141 36.880, 73.022 34.290 C 78.199 29.636, 78.231 29.572, 75.708 28.897 C 74.304 28.522, 70.394 27.894, 67.020 27.502 L 60.886 26.790 62.318 30.145 M 54.500 55.477 L 43.500 65.908 52.500 65.958 C 57.450 65.986, 67.350 66.233, 74.500 66.508 L 87.500 67.008 80.274 63.491 C 73.131 60.014, 73.009 59.887, 69.589 52.487 C 67.687 48.369, 65.988 45.010, 65.815 45.022 C 65.642 45.035, 60.550 49.739, 54.500 55.477 M 37.500 69 C 37.840 69.550, 38.316 70, 38.559 70 C 38.802 70, 39 69.550, 39 69 C 39 68.450, 38.523 68, 37.941 68 C 37.359 68, 37.160 68.450, 37.500 69 M 90.651 74.261 C 89.840 79.904, 88.577 124.639, 89.246 124 C 89.534 123.725, 99.756 112.029, 111.961 98.009 L 134.152 72.517 130.826 71.877 C 128.997 71.525, 119.346 70.963, 109.380 70.629 L 91.261 70.021 90.651 74.261 M 143.611 73.250 C 144.012 73.938, 145.558 76.301, 147.047 78.502 C 149.031 81.435, 150.731 86.878, 153.413 98.885 C 156.735 113.757, 157.637 116.316, 163.200 126.634 C 166.571 132.885, 169.592 137.998, 169.914 137.995 C 170.466 137.990, 185.055 115.757, 185.889 113.650 C 186.103 113.109, 183.203 106.467, 179.445 98.890 L 172.613 85.112 158.364 78.556 C 150.527 74.950, 143.837 72, 143.498 72 C 143.159 72, 143.210 72.563, 143.611 73.250 M 139.248 141.476 L 133.077 153.866 128.788 154.437 C 124.687 154.983, 96.598 158, 95.612 158 C 95.352 158, 93.208 152.150, 90.848 145 C 88.488 137.850, 86.320 132.026, 86.029 132.058 C 84.433 132.233, 63.500 158.008, 63.500 159.798 C 63.500 161.180, 66.897 164.961, 73.500 170.929 L 83.500 179.968 102.076 179.984 C 118.461 179.998, 136.236 178.970, 145.587 177.467 L 148.673 176.971 149.861 164.726 C 151.005 152.923, 150.954 152.067, 148.458 141.008 C 147.034 134.698, 145.767 129.434, 145.644 129.311 C 145.521 129.187, 142.643 134.662, 139.248 141.476" stroke="none" fill="black" fill-rule="evenodd"/>
</svg>