<svg xmlns="http://www.w3.org/2000/svg" width="200" height="200" viewBox="0 0 200 200" version="1.1">
	<path d="M 35.698 30.445 C 26.658 44.775, 19.331 56.590, 19.415 56.700 C 19.498 56.810, 25.627 54.943, 33.033 52.551 C 40.440 50.160, 46.628 48.542, 46.785 48.956 C 46.942 49.371, 43.290 58.438, 38.669 69.105 C 30.836 87.189, 30.233 89.075, 29.743 97 C 29.189 105.973, 33.396 159.841, 34.749 161.094 C 36.118 162.361, 61.034 178, 61.685 178 C 62.036 178, 62.034 162.809, 61.679 144.242 L 61.035 110.483 66.986 89.992 L 72.938 69.500 61.782 58.296 L 50.625 47.093 53.378 46.046 C 54.892 45.471, 56.888 45.017, 57.815 45.038 C 60.428 45.096, 82.992 50.658, 83.769 51.436 C 84.149 51.816, 83.487 54.798, 82.298 58.063 C 81.109 61.329, 80.274 64, 80.442 64 C 80.611 64, 82.528 63.372, 84.703 62.605 L 88.658 61.209 92.786 69.533 L 96.915 77.858 85.904 84.973 C 76.164 91.267, 74.973 92.343, 75.581 94.294 C 75.960 95.507, 78.402 102.572, 81.008 109.994 L 85.748 123.488 78.662 137.699 C 74.765 145.515, 71.829 152.163, 72.138 152.471 C 72.446 152.780, 81.204 152.192, 91.599 151.166 C 101.995 150.139, 110.660 149.430, 110.856 149.589 C 111.051 149.748, 105.651 153.963, 98.856 158.956 C 63.336 185.053, 61.833 186.233, 62.823 187.223 C 63.499 187.899, 72.372 185.236, 89.835 179.115 C 104.137 174.102, 116.500 170, 117.307 170 C 118.114 170, 130.863 172.886, 145.637 176.414 C 160.412 179.942, 172.664 182.666, 172.864 182.467 C 173.063 182.269, 171.130 176.292, 168.567 169.185 L 163.906 156.264 165.304 138.882 C 166.073 129.322, 166.397 121.151, 166.026 120.725 C 165.654 120.299, 158.022 117.996, 149.066 115.608 C 140.110 113.220, 132.462 110.747, 132.069 110.112 C 131.152 108.627, 127.686 93.974, 128.149 93.539 C 128.342 93.358, 139.975 94.971, 154 97.124 C 168.025 99.277, 180.315 100.917, 181.312 100.769 C 182.758 100.554, 180.445 96.564, 169.852 81 L 156.580 61.500 154.743 47.030 C 153.692 38.748, 152.392 32.234, 151.704 31.796 C 151.042 31.375, 149.600 31.017, 148.500 31 C 144.152 30.933, 143.596 29.488, 146.357 25.426 C 147.781 23.329, 148.846 21.514, 148.724 21.392 C 148.601 21.270, 145.125 21.975, 141 22.957 C 136.875 23.940, 133.356 24.620, 133.180 24.469 C 133.004 24.318, 133.791 22.370, 134.928 20.142 L 136.995 16.090 133.747 15.506 C 131.961 15.185, 112.867 12.553, 91.317 9.656 L 52.133 4.390 35.698 30.445 M 52.142 9.844 C 47.187 16.920, 25.906 51.239, 26.256 51.590 C 26.691 52.025, 41.645 47.077, 46.500 44.892 C 48.150 44.150, 49.860 42.970, 50.300 42.271 C 50.740 41.572, 52.540 41.001, 54.300 41.002 C 56.060 41.003, 61.920 39.117, 67.323 36.811 C 77.264 32.568, 77.919 32.539, 79.246 36.287 C 79.550 37.145, 89.858 35.130, 91.531 33.885 C 92.098 33.463, 93.394 30.805, 94.411 27.978 C 95.427 25.151, 96.765 22.644, 97.383 22.406 C 98.002 22.169, 104.277 23.037, 111.328 24.335 C 118.379 25.632, 125.259 26.482, 126.617 26.222 C 128.234 25.913, 129.770 24.411, 131.064 21.875 C 132.151 19.744, 132.763 18, 132.423 18 C 131.305 18, 57.542 7.969, 55.751 7.574 C 54.697 7.341, 53.263 8.243, 52.142 9.844 M 96.732 29 C 94.861 33.763, 94.354 33.686, 107.500 30.637 L 117.500 28.317 108.500 26.657 C 103.550 25.743, 99.231 24.997, 98.902 24.998 C 98.573 24.999, 97.596 26.800, 96.732 29 M 137.511 26.489 C 133.864 27.303, 133.012 27.791, 134.343 28.301 C 137.346 29.454, 140.676 29.096, 142.020 27.476 C 143.786 25.348, 143.200 25.220, 137.511 26.489 M 107.135 33.421 L 93.770 36.614 91.376 42.498 C 90.060 45.735, 89.324 48.693, 89.741 49.072 C 90.159 49.451, 93.884 50.497, 98.020 51.398 C 105.135 52.946, 105.836 52.936, 111.020 51.208 C 116.430 49.404, 116.560 49.267, 121.214 40.440 C 123.806 35.523, 125.944 31.163, 125.964 30.750 C 126.028 29.417, 120.780 30.161, 107.135 33.421 M 123.782 41.467 C 119.396 50.286, 118.140 52.030, 115.800 52.544 C 111.297 53.533, 111.745 54.598, 117.191 55.855 C 120.001 56.503, 122.392 56.914, 122.506 56.767 C 122.620 56.620, 126.355 51.034, 130.807 44.354 C 138.407 32.947, 138.767 32.171, 136.700 31.617 C 129.977 29.815, 129.334 30.305, 123.782 41.467 M 133.336 45.347 L 125.289 57.694 139.848 61.098 L 154.408 64.502 143.954 73.232 C 129.614 85.208, 128.253 85.067, 135.429 72.349 C 138.451 66.993, 139.483 64.303, 138.679 63.879 C 138.030 63.537, 135.025 62.710, 132 62.041 C 128.975 61.373, 125.809 60.640, 124.965 60.414 C 124.061 60.171, 122.740 61.171, 121.750 62.846 C 120.826 64.410, 115.780 68.519, 110.535 71.977 C 105.291 75.435, 101.024 78.767, 101.053 79.382 C 101.083 79.997, 105.829 89.725, 111.602 101 C 117.374 112.275, 121.916 120.825, 121.695 120 C 121.475 119.175, 119.153 112.048, 116.535 104.162 C 113.129 93.900, 112.082 89.518, 112.855 88.745 C 113.628 87.972, 114.086 88.068, 114.469 89.083 C 118.214 99.010, 132.657 144.009, 132.234 144.432 C 131.922 144.745, 131.399 145, 131.071 145 C 130.743 145, 123.286 130.600, 114.500 113 C 105.714 95.400, 98.130 81, 97.648 81 C 97.165 81, 92.574 83.739, 87.446 87.087 L 78.122 93.174 83.347 108.373 L 88.573 123.573 82.405 136.536 C 79.012 143.666, 76.307 149.586, 76.393 149.692 C 76.480 149.797, 85.738 148.993, 96.968 147.906 C 108.198 146.818, 118.063 146.058, 118.891 146.217 C 119.718 146.377, 109.725 154.337, 96.684 163.907 C 83.643 173.477, 73.110 181.443, 73.277 181.610 C 73.444 181.777, 83.335 178.508, 95.257 174.345 L 116.934 166.776 142.642 172.879 C 156.782 176.236, 168.493 178.840, 168.667 178.666 C 168.841 178.492, 167.205 173.450, 165.032 167.462 L 161.079 156.574 162.453 139.537 C 163.209 130.167, 163.754 122.444, 163.664 122.375 C 163.574 122.307, 155.870 120.234, 146.544 117.769 L 129.588 113.287 126.885 101.894 C 125.399 95.627, 124.304 90.375, 124.452 90.222 C 124.719 89.947, 169.824 96.512, 175.380 97.634 C 178.073 98.178, 177.466 97.046, 166.082 80.283 L 153.904 62.350 152.237 48.569 C 150.687 35.751, 150.406 34.725, 148.220 33.894 C 142.603 31.758, 141.778 32.393, 133.336 45.347 M 72.500 37.594 C 69.336 38.982, 70.780 39.279, 74.990 38.108 C 76.359 37.726, 77.034 37.159, 76.490 36.846 C 75.945 36.534, 74.150 36.870, 72.500 37.594 M 83.750 38.716 C 82.237 38.945, 81 39.346, 81 39.606 C 81 40.810, 85.129 48, 85.819 48 C 86.248 48, 87.202 46.313, 87.940 44.250 C 88.679 42.188, 89.492 39.938, 89.748 39.250 C 90.217 37.992, 89.156 37.897, 83.750 38.716 M 71 41.751 L 64.500 43.325 72.294 45.285 C 76.580 46.363, 80.326 47.007, 80.618 46.716 C 81.084 46.249, 78.297 39.863, 77.724 40.088 C 77.601 40.137, 74.575 40.885, 71 41.751 M 40.730 71.096 C 32.469 90.123, 31.999 91.589, 31.980 98.352 C 31.962 105.129, 35.657 153.167, 36.536 157.573 C 36.803 158.911, 40.458 161.830, 46.843 165.804 C 60.720 174.441, 59.699 174.524, 59.338 164.789 C 59.169 160.230, 58.845 146.150, 58.617 133.500 L 58.204 110.500 64.111 90.222 L 70.018 69.945 60.395 60.722 C 55.102 55.650, 50.477 51.385, 50.117 51.243 C 49.756 51.102, 45.532 60.036, 40.730 71.096 M 88 53.066 C 88 53.652, 88.447 54.966, 88.993 55.987 C 89.855 57.598, 90.482 57.707, 93.743 56.814 C 99.665 55.193, 99.768 54.700, 94.467 53.326 C 88.376 51.747, 88 51.732, 88 53.066 M 98.250 58.129 C 94.813 59.198, 92 60.517, 92 61.061 C 92 61.605, 93.590 65.206, 95.532 69.064 C 97.894 73.753, 99.468 75.840, 100.282 75.360 C 111.721 68.617, 121.202 60.869, 119.769 59.436 C 119.375 59.042, 106.020 55.980, 105.188 56.094 C 104.810 56.145, 101.688 57.061, 98.250 58.129 M 85 58 C 85 58.550, 85.450 59, 86 59 C 86.550 59, 87 58.550, 87 58 C 87 57.450, 86.550 57, 86 57 C 85.450 57, 85 57.450, 85 58 M 139.687 70.127 L 136.875 75.225 139.687 73.124 C 148.218 66.752, 149.287 64.982, 144.583 65.014 C 143.119 65.025, 141.664 66.544, 139.687 70.127" stroke="none" fill="black" fill-rule="evenodd"/>
</svg>