<svg xmlns="http://www.w3.org/2000/svg" width="200" height="200" viewBox="0 0 200 200" version="1.1">
	<path d="M 119.500 21.084 L 92.500 26.914 73.159 25.348 C 60.672 24.337, 53.474 24.126, 52.849 24.751 C 52.315 25.285, 47.383 32.871, 41.888 41.610 C 32.301 56.858, 31.918 57.682, 32.420 62 C 32.707 64.475, 33.205 79.325, 33.527 95 C 33.849 110.675, 34.334 124.672, 34.604 126.105 L 35.095 128.710 52.734 122.374 C 62.435 118.890, 70.471 116.143, 70.591 116.269 C 71.115 116.822, 52.054 138.498, 50.369 139.266 C 47.303 140.662, 11.567 185.967, 12.666 187.066 C 13.285 187.685, 20.855 179.525, 33.819 164.265 L 54.008 140.500 64.184 136 C 69.781 133.525, 74.729 131.350, 75.180 131.167 C 75.631 130.983, 76.006 132.108, 76.014 133.667 C 76.040 139.125, 77.148 141.075, 81.126 142.667 C 83.250 143.517, 84.786 144.538, 84.539 144.936 C 84.293 145.334, 77.321 148.729, 69.046 152.479 C 60.771 156.230, 54 159.589, 54 159.945 C 54 161.328, 83.304 188.097, 84.370 187.689 C 84.991 187.450, 100.800 184.203, 119.500 180.473 C 138.200 176.742, 153.850 173.387, 154.277 173.018 C 155.168 172.247, 127.155 158.954, 106.629 150.407 L 92.757 144.631 100.884 140.878 C 114.692 134.502, 115.211 134.386, 121.311 136.309 C 124.262 137.239, 127.199 138, 127.838 138 C 130.207 138, 128.890 135.915, 125.500 134.299 C 121.371 132.330, 121.088 131.267, 124.466 130.419 C 126.534 129.900, 128.592 131.241, 137.216 138.722 C 148.667 148.656, 183.455 170.945, 185.038 169.362 C 185.596 168.804, 180.266 158.483, 171.472 143.089 L 156.988 117.733 163.573 95.758 L 170.157 73.782 163.517 45.163 C 159.865 29.422, 156.741 16.407, 156.574 16.240 C 156.407 16.074, 152.272 20.685, 147.385 26.488 C 139.185 36.225, 138.269 37.003, 135.500 36.583 C 133.850 36.332, 121.131 35.340, 107.236 34.378 C 89.960 33.182, 82.296 32.304, 82.998 31.602 C 84.246 30.354, 98.979 30.207, 112.250 31.310 C 120.420 31.989, 122 31.889, 122 30.689 C 122 29.590, 119.619 29.079, 111.750 28.490 L 101.500 27.722 119.068 24.023 C 128.731 21.988, 138.111 20.028, 139.914 19.667 L 143.191 19.012 141.178 22.422 C 139.315 25.580, 139.276 27, 141.050 27 C 141.444 27, 143.375 24.300, 145.340 21 C 147.306 17.700, 148.371 15.057, 147.707 15.127 C 147.043 15.197, 134.350 17.877, 119.500 21.084 M 148.386 29.335 C 142.888 35.807, 142.431 36.679, 143.844 37.999 C 145.253 39.315, 144.952 39.666, 140.958 41.372 C 137.879 42.687, 134.546 45.553, 130.183 50.638 C 126.709 54.687, 124.414 58, 125.083 58 C 125.753 58, 129.861 57.278, 134.213 56.397 C 138.566 55.515, 142.306 54.973, 142.526 55.193 C 142.943 55.609, 139.205 102.941, 138.468 106.581 C 138.055 108.620, 137.666 108.653, 119.273 108.211 C 108.948 107.962, 100.725 107.985, 101 108.261 C 101.275 108.537, 110.011 111.335, 120.413 114.480 L 139.327 120.197 147.395 116.687 L 155.464 113.176 161.401 93.582 L 167.339 73.988 161.555 48.744 C 158.373 34.860, 155.485 23.194, 155.135 22.819 C 154.786 22.445, 151.749 25.377, 148.386 29.335 M 44.693 42.268 L 35.035 57.731 36.136 91.116 C 36.742 109.477, 37.325 124.604, 37.433 124.731 C 37.540 124.857, 45.924 121.979, 56.064 118.333 C 80.254 109.637, 83.613 107, 70.500 107 C 59.150 107, 60.529 105.146, 76.178 99.367 L 89.357 94.500 102.616 79.021 C 109.908 70.507, 115.741 63.408, 115.578 63.245 C 115.337 63.003, 82.351 69.598, 74.248 71.508 C 72.104 72.014, 72.307 72.503, 78.468 81.717 C 82.027 87.039, 84.782 91.551, 84.591 91.743 C 84.399 91.935, 77.775 89.090, 69.871 85.421 C 61.967 81.753, 53.524 77.896, 51.108 76.851 C 48.693 75.805, 46.925 74.741, 47.180 74.487 C 47.434 74.232, 51.794 73.173, 56.868 72.132 C 61.942 71.091, 66.284 70.049, 66.517 69.817 C 66.749 69.584, 63.994 64.989, 60.394 59.606 C 56.794 54.223, 54.062 49.605, 54.323 49.344 C 54.584 49.083, 61.706 48.104, 70.149 47.169 C 84.899 45.536, 86.056 45.544, 99.700 47.365 L 113.899 49.261 124.461 45.015 C 130.271 42.681, 135.270 40.372, 135.571 39.885 C 135.872 39.398, 134.404 38.980, 132.309 38.955 C 124.813 38.865, 69.975 34.309, 69.394 33.727 C 68.116 32.449, 70.186 31.199, 74.698 30.523 C 81.748 29.465, 78.261 28.333, 65.425 27.512 L 54.351 26.804 44.693 42.268 M 121.500 49.143 L 114.500 52.129 100 50.147 C 86.687 48.327, 84.559 48.277, 74 49.539 C 67.675 50.295, 61.476 50.933, 60.224 50.957 C 58.127 50.997, 58.424 51.708, 64 60 C 67.328 64.950, 70.602 69.007, 71.276 69.016 C 71.949 69.025, 82.850 66.947, 95.500 64.399 L 118.500 59.766 123.270 54.633 C 128.290 49.231, 130.600 45.947, 129.285 46.079 C 128.853 46.122, 125.350 47.501, 121.500 49.143 M 129.004 60.137 C 124.331 61.213, 120.238 62.409, 119.909 62.796 C 119.579 63.183, 114.065 69.661, 107.655 77.192 C 101.245 84.722, 96 91.093, 96 91.348 C 96 93.169, 102.001 88.825, 118.512 75.050 C 132.490 63.388, 137.830 59.477, 138.750 60.226 C 139.655 60.964, 140 60.797, 140 59.622 C 140 57.660, 139.702 57.674, 129.004 60.137 M 131.500 71.419 C 125.592 79.302, 123.330 81.460, 117 85.252 C 112.875 87.723, 107.771 90.357, 105.657 91.107 C 103.543 91.856, 98.596 95.176, 94.663 98.485 L 87.513 104.500 111.469 105.205 C 124.644 105.592, 135.523 105.811, 135.643 105.690 C 136.174 105.159, 139.542 62.004, 139.050 62.040 C 138.748 62.062, 135.350 66.282, 131.500 71.419 M 119.285 77.843 C 107.423 87.824, 107.473 87.763, 114.349 83.838 C 117.565 82.002, 121.323 79.381, 122.699 78.013 C 125.124 75.602, 129.462 69.954, 128.818 70.045 C 128.643 70.070, 124.353 73.579, 119.285 77.843 M 59.520 74.349 L 54.539 75.506 63.020 79.368 C 67.684 81.493, 72.972 83.864, 74.771 84.638 L 78.042 86.045 73.771 79.543 C 69.061 72.373, 68.658 72.226, 59.520 74.349 M 91 97.059 C 91 97.641, 91.450 97.840, 92 97.500 C 92.550 97.160, 93 96.684, 93 96.441 C 93 96.198, 92.550 96, 92 96 C 91.450 96, 91 96.477, 91 97.059 M 78 101.362 L 72.500 103.500 76.355 103.817 C 81.119 104.208, 82.563 103.684, 83.970 101.056 C 85.282 98.605, 85.062 98.616, 78 101.362 M 86.250 110.247 C 84.463 110.820, 83 111.578, 83 111.930 C 83 112.282, 85.871 113.987, 89.380 115.717 L 95.761 118.863 101.627 116.104 L 107.492 113.344 100.341 111.172 C 92.509 108.793, 91.074 108.699, 86.250 110.247 M 76.247 114.777 C 75.197 115.724, 71.474 119.875, 67.973 124 C 64.472 128.125, 60.684 132.551, 59.554 133.836 C 57.712 135.930, 58.326 135.792, 65.500 132.493 C 69.900 130.469, 74.063 128.583, 74.750 128.300 C 75.477 128.001, 76 125.985, 76 123.485 L 76 119.183 81.853 120.956 C 86.697 122.422, 88.110 122.512, 90.048 121.474 C 92.303 120.267, 92.127 120.089, 85.273 116.637 C 78.487 113.220, 78.067 113.133, 76.247 114.777 M 103.684 118.263 L 98.868 120.500 108.388 125.221 C 117.297 129.638, 118.107 129.858, 120.989 128.647 L 124.069 127.352 117.315 121.676 C 113.601 118.554, 110.098 116.006, 109.531 116.013 C 108.964 116.020, 106.333 117.032, 103.684 118.263 M 118.992 119.750 C 126.583 126.292, 126.333 126.201, 131.003 124.110 C 133.306 123.079, 134.810 122.011, 134.345 121.736 C 133.255 121.092, 116.460 116, 115.425 116 C 114.993 116, 116.598 117.688, 118.992 119.750 M 148.174 119.354 L 143.848 121.618 147.649 122.784 C 151.876 124.082, 152.554 123.732, 153.538 119.750 C 154.351 116.455, 153.793 116.414, 148.174 119.354 M 93.143 122.890 C 91.406 123.991, 92.041 124.339, 100.500 126.921 C 111.669 130.329, 111.912 130.270, 104 126.075 C 95.922 121.793, 95.207 121.583, 93.143 122.890 M 155.073 124.307 C 153.852 127.519, 153.015 127.586, 145.658 125.054 L 140.003 123.109 134.286 125.637 C 128.655 128.127, 128.600 128.191, 130.692 129.833 C 131.860 130.750, 136.570 134.698, 141.158 138.607 C 148.584 144.934, 178.687 164.646, 179.572 163.761 C 179.763 163.570, 174.559 154.009, 168.008 142.514 C 156.751 122.762, 156.041 121.762, 155.073 124.307 M 79 124.500 C 79 126.183, 79.863 126.373, 81.834 125.124 C 82.898 124.449, 82.831 124.149, 81.502 123.639 C 79.175 122.746, 79 122.807, 79 124.500 M 82.205 127.767 C 79.066 129.328, 78.924 129.641, 79.205 134.347 C 79.500 139.283, 79.505 139.290, 84.522 141.191 L 89.544 143.095 100.417 138.129 L 111.291 133.163 99.980 129.582 C 87.238 125.547, 86.766 125.498, 82.205 127.767 M 73.861 153.236 C 65.412 157.089, 58.393 160.331, 58.262 160.441 C 58.132 160.552, 63.833 166.122, 70.932 172.821 L 83.838 185 113.169 179.005 C 129.301 175.708, 143.594 172.754, 144.932 172.440 C 146.960 171.965, 145.630 171.038, 136.932 166.863 C 126.986 162.089, 108.583 154.052, 95.361 148.711 L 89.222 146.230 73.861 153.236" stroke="none" fill="black" fill-rule="evenodd"/>
</svg>