<svg xmlns="http://www.w3.org/2000/svg" width="200" height="200" viewBox="0 0 200 200" version="1.1">
	<path d="M 141.450 12.843 C 140.010 14.120, 118.084 23.301, 104.077 28.491 C 91.760 33.054, 91.526 33.098, 76.577 33.567 C 61.201 34.049, 42.197 35.867, 41.555 36.918 C 41.359 37.238, 41.816 45.600, 42.570 55.500 C 43.958 73.730, 43.279 105.598, 41.015 128.430 C 39.967 139.004, 33.031 160.635, 25.623 176.433 C 22.658 182.757, 21.313 186.713, 21.923 187.323 C 22.810 188.210, 41.344 175.697, 49.007 169.035 C 50.824 167.455, 56.702 157.130, 64.603 141.637 L 77.283 116.774 83.392 117.578 C 86.751 118.020, 100.627 118.408, 114.227 118.441 L 138.954 118.500 147.478 126.979 L 156.002 135.458 165.501 125.999 L 175 116.540 175 99.907 C 175 86.093, 174.575 81.189, 172.493 70.963 C 171.113 64.192, 169.807 58.474, 169.590 58.257 C 169.373 58.040, 163.414 59.426, 156.348 61.337 C 144.323 64.588, 141.882 64.890, 118.229 66.051 C 104.330 66.733, 92.763 67.096, 92.524 66.857 C 92.285 66.619, 101.407 61.542, 112.795 55.576 L 133.500 44.728 147.207 43.614 C 154.746 43.001, 161.311 42.050, 161.796 41.500 C 163.090 40.034, 169.076 24.742, 168.558 24.225 C 168.316 23.983, 160.329 27.830, 150.809 32.775 L 133.500 41.766 122 42.462 C 112.035 43.065, 110.700 42.968, 112 41.735 C 112.825 40.952, 120.250 34.984, 128.500 28.472 C 142.872 17.128, 145.898 14.404, 145.968 12.750 C 146.012 11.729, 142.627 11.798, 141.450 12.843 M 131 20.702 C 127.975 22.098, 117.933 26.111, 108.683 29.620 L 91.867 36 76.683 36.001 C 63.833 36.003, 45.810 37.857, 44.337 39.329 C 44.133 39.534, 44.458 45.056, 45.061 51.601 C 46.463 66.838, 46.408 88.242, 44.903 113.500 C 43.735 133.102, 43.614 133.813, 38.835 149.195 C 36.153 157.828, 32.189 168.740, 30.025 173.445 C 27.862 178.150, 26.331 182, 26.624 182 C 26.916 182, 32.183 178.237, 38.328 173.638 L 49.500 165.275 62.500 139.587 L 75.500 113.900 79.500 114.607 C 81.700 114.996, 96.285 115.370, 111.912 115.438 L 140.324 115.562 148.214 123.978 L 156.105 132.394 164.586 123.447 L 173.068 114.500 172.489 98.500 C 171.865 81.214, 168.580 60.563, 166.578 61.332 C 165.961 61.568, 160.966 62.992, 155.478 64.496 C 146.799 66.873, 141.659 67.456, 116 68.974 L 86.500 70.719 116.500 71.110 L 146.500 71.500 136.500 78.438 C 126.986 85.039, 70.441 114.774, 69.393 113.727 C 69.127 113.461, 69.389 104.807, 69.974 94.497 C 70.807 79.821, 70.770 75.428, 69.804 74.264 C 68.779 73.029, 69.285 72.162, 72.801 69.139 C 75.127 67.137, 77.024 65.156, 77.015 64.735 C 77.007 64.314, 74.691 60.795, 71.869 56.915 C 69.047 53.036, 67.135 49.508, 67.619 49.077 C 68.555 48.244, 99.939 42.949, 103.755 42.981 C 105.457 42.995, 127.932 26.314, 136.917 18.368 C 137.677 17.696, 136.552 18.140, 131 20.702 M 152.481 35.041 C 140.590 41.443, 140.661 41.736, 153.776 40.366 L 159.845 39.731 161.932 34.709 C 163.080 31.946, 163.894 29.561, 163.741 29.407 C 163.587 29.254, 158.520 31.789, 152.481 35.041 M 111.262 45.913 C 106.534 46.443, 104.856 47.414, 94.012 55.895 C 82.261 65.087, 81.341 66.008, 82.631 67.298 C 83.195 67.862, 119.591 49.624, 124.473 46.331 C 126.232 45.144, 125.908 45.018, 121.473 45.163 C 118.738 45.253, 114.143 45.590, 111.262 45.913 M 84.500 48.546 C 77.350 49.827, 71.410 50.903, 71.301 50.938 C 71.191 50.972, 72.973 53.712, 75.260 57.027 C 77.713 60.581, 79.948 62.850, 80.710 62.558 C 82.171 61.997, 101 46.994, 101 46.391 C 101 45.734, 98.030 46.122, 84.500 48.546 M 76.039 70.114 C 73.928 71.871, 73.548 73.110, 73.364 78.831 C 73.247 82.499, 72.854 91.070, 72.491 97.879 L 71.832 110.257 98.666 96.507 C 113.425 88.945, 128.156 80.899, 131.402 78.629 L 137.303 74.500 107.484 74 C 84.887 73.621, 77.565 73.197, 77.249 72.251 C 77.021 71.563, 77.546 70.728, 78.417 70.394 C 80.009 69.782, 80.649 67.971, 79.250 68.033 C 78.838 68.052, 77.393 68.988, 76.039 70.114" stroke="none" fill="black" fill-rule="evenodd"/>
</svg>