<svg xmlns="http://www.w3.org/2000/svg" width="200" height="200" viewBox="0 0 200 200" version="1.1">
	<path d="M 56.645 11.688 C 56.266 12.067, 51.436 12.255, 45.911 12.107 L 35.865 11.837 36.572 29.734 L 37.278 47.630 28.639 54.477 C 23.888 58.242, 20 61.535, 20 61.795 C 20 62.055, 24.295 67.618, 29.544 74.157 C 35.216 81.223, 38.796 86.522, 38.367 87.216 C 37.969 87.858, 32.775 95.341, 26.822 103.844 C 20.870 112.347, 16 119.574, 16 119.904 C 16 120.398, 38.444 127.019, 41.375 127.389 C 41.856 127.450, 42.434 127.005, 42.658 126.401 C 42.901 125.746, 38.397 123.968, 31.514 122.004 L 19.962 118.707 21.647 116.103 C 22.574 114.672, 27.585 107.448, 32.783 100.051 C 43.690 84.530, 43.804 87.594, 31.767 72.720 C 27.415 67.341, 23.999 62.539, 24.177 62.048 C 24.354 61.557, 28.022 58.383, 32.327 54.996 L 40.154 48.837 39.439 31.918 L 38.723 15 47.753 15 L 56.783 15 58.418 22.241 C 59.318 26.223, 60.323 31.168, 60.653 33.230 C 61.205 36.682, 62.029 37.475, 71.110 43.281 L 80.968 49.584 72.234 57.452 C 67.430 61.779, 63.350 65.697, 63.167 66.159 C 62.984 66.620, 66.442 70.889, 70.852 75.646 L 78.869 84.294 71.684 92.204 L 64.500 100.114 63.877 110.807 C 63.535 116.688, 63.205 126.900, 63.144 133.500 L 63.034 145.500 55.316 164.750 C 51.071 175.338, 47.244 184, 46.810 184 C 46.377 184, 40.112 178.747, 32.889 172.326 C 17.691 158.816, 17.478 161.211, 34.722 151.694 C 40.894 148.287, 45.957 144.938, 45.972 144.250 C 45.987 143.563, 45.712 143, 45.359 143 C 44.098 143, 15.050 159.512, 15.273 160.102 C 15.671 161.159, 48.080 189.254, 48.456 188.869 C 48.655 188.666, 52.524 179.275, 57.055 168 L 65.292 147.500 66.117 124.037 L 66.942 100.574 74.905 92.610 L 82.869 84.646 74.512 75.542 L 66.155 66.437 75.564 58.101 C 80.738 53.516, 84.739 49.386, 84.453 48.925 C 84.168 48.463, 79.483 45.314, 74.042 41.928 L 64.150 35.771 62.506 28.135 C 61.601 23.936, 60.612 19.600, 60.307 18.500 C 60.001 17.400, 59.971 16.725, 60.239 17 C 60.507 17.275, 68.775 26.763, 78.613 38.084 C 102.049 65.055, 116.744 83.237, 115.500 83.725 C 106.315 87.330, 77.561 100.789, 77.292 101.609 C 76.805 103.090, 83.950 104, 96.058 104 C 101.436 104, 106.481 104.247, 107.269 104.550 C 108.456 105.005, 107.948 108.481, 104.307 124.800 L 99.913 144.500 80.377 163.891 C 64.800 179.353, 61.415 183.171, 63.671 182.737 C 65.227 182.438, 71.304 181.414, 77.177 180.462 L 87.853 178.731 107.115 162.116 L 126.377 145.500 128.636 138.500 C 129.878 134.650, 131.873 128.202, 133.068 124.171 C 134.264 120.141, 135.581 117.216, 135.995 117.671 C 136.408 118.127, 138.451 128.400, 140.533 140.500 C 142.616 152.600, 144.810 163.027, 145.410 163.672 C 146.009 164.316, 152.800 167.797, 160.500 171.407 L 174.500 177.971 175.151 172.735 C 175.509 169.856, 175.847 163.348, 175.901 158.273 L 176 149.045 157.483 132.824 C 147.298 123.903, 139.102 116.193, 139.270 115.691 C 139.437 115.190, 145.632 112.310, 153.037 109.291 C 160.442 106.272, 166.849 103.475, 167.275 103.076 C 168.077 102.325, 173.250 83.880, 172.770 83.483 C 172.621 83.360, 167.100 84.538, 160.500 86.102 C 153.900 87.666, 145.711 89.582, 142.302 90.362 L 136.105 91.778 137.553 88.139 C 138.350 86.138, 141.151 78.912, 143.778 72.082 L 148.554 59.665 165.777 55.186 C 177.384 52.167, 183 50.265, 183 49.353 C 183 47.667, 183.851 47.639, 163.500 50 C 154.150 51.085, 145.037 51.978, 143.250 51.986 L 140 52 140 35.045 L 140 18.091 136.750 17.563 C 129.387 16.366, 110.015 14.972, 86 13.910 C 71.975 13.289, 60.072 12.381, 59.550 11.891 C 58.410 10.822, 57.570 10.763, 56.645 11.688 M 65.649 19.250 C 72.501 26.573, 96.467 54.498, 108.346 69 C 119.054 82.074, 120.765 84.618, 119.271 85.251 C 118.297 85.664, 109.943 89.307, 100.706 93.347 L 83.913 100.691 97.659 101.381 C 105.219 101.761, 111.538 102.205, 111.702 102.368 C 111.865 102.532, 109.793 112.528, 107.098 124.583 L 102.197 146.500 85.585 162.750 C 76.449 171.688, 69.092 178.999, 69.237 178.999 C 72.122 178.984, 86.796 175.694, 88.101 174.770 C 89.087 174.071, 97.543 166.975, 106.893 159 L 123.892 144.500 126.525 136 C 127.972 131.325, 130.507 123.112, 132.156 117.750 C 135.102 108.174, 136.665 106.004, 137.718 110.028 C 138.349 112.443, 138.092 112.507, 153.828 105.989 L 165.417 101.188 167.284 94.502 C 168.310 90.825, 168.997 87.664, 168.810 87.477 C 168.623 87.290, 160.827 88.917, 151.485 91.093 C 142.143 93.268, 133.964 94.925, 133.308 94.774 C 132.539 94.597, 134.673 87.940, 139.326 76 L 146.536 57.500 154.518 55.332 C 163.878 52.790, 163.157 52.667, 148.772 54.354 L 138.045 55.612 137.772 38.056 L 137.500 20.500 127 19.319 C 116.244 18.109, 79.212 16.008, 68.554 16.003 L 62.608 16 65.649 19.250 M 140.328 124.250 C 140.932 126.749, 147 160.567, 147 161.438 C 147 161.910, 171.686 174, 172.651 174 C 172.843 174, 173 168.625, 173 162.055 L 173 150.110 157.062 136.055 C 148.296 128.325, 140.823 122, 140.454 122 C 140.085 122, 140.028 123.013, 140.328 124.250" stroke="none" fill="black" fill-rule="evenodd"/>
</svg>