<svg xmlns="http://www.w3.org/2000/svg" width="200" height="200" viewBox="0 0 200 200" version="1.1">
	<path d="M 138.500 22.737 L 117.500 28.292 80.328 28.721 C 50.667 29.062, 43.054 29.417, 42.648 30.476 C 42.358 31.231, 43.078 32.134, 44.319 32.570 C 48.099 33.900, 129.176 34.257, 146.856 33.022 C 155.852 32.393, 163.440 32.107, 163.719 32.385 C 163.997 32.664, 164.813 35.710, 165.532 39.154 C 166.835 45.395, 166.830 45.427, 163.988 48.958 C 162.421 50.906, 154.919 58.663, 147.319 66.196 L 133.500 79.891 124.356 80.134 C 115.323 80.374, 115.084 80.318, 104.560 75.504 C 98.146 72.570, 94.424 70.359, 95.204 69.947 C 95.917 69.571, 107.862 65.968, 121.750 61.939 C 147.483 54.474, 151.666 52.413, 142.318 51.805 L 137.637 51.500 145.068 45.578 C 149.156 42.321, 152.695 39.501, 152.933 39.311 C 153.172 39.122, 152.910 38.510, 152.352 37.952 C 151.666 37.266, 143.272 38.594, 126.419 42.057 L 101.500 47.178 81.580 46.014 L 61.659 44.850 48.921 57.675 L 36.183 70.500 33.656 106 C 31.452 136.944, 30.581 144.416, 26.866 164.219 C 24.522 176.714, 22.888 187.222, 23.236 187.569 C 23.583 187.916, 24.296 187.935, 24.821 187.611 C 25.346 187.286, 33.813 171.682, 43.638 152.935 C 53.462 134.187, 62.175 118.485, 63 118.039 C 63.825 117.594, 66.765 116.925, 69.533 116.551 L 74.565 115.872 76.847 122.956 L 79.128 130.041 64.215 148.270 C 56.013 158.297, 49.609 166.625, 49.984 166.778 C 50.360 166.931, 58.926 163.902, 69.019 160.047 C 79.113 156.192, 87.460 153.142, 87.569 153.269 C 87.677 153.396, 87.305 160.374, 86.741 168.775 C 86.177 177.176, 85.966 184.299, 86.272 184.605 C 86.578 184.911, 94.404 180.331, 103.664 174.427 C 112.924 168.523, 122.750 162.702, 125.500 161.491 C 132.122 158.576, 150.010 152.677, 150.560 153.226 C 150.798 153.465, 150.315 161.682, 149.487 171.487 C 148.659 181.292, 148.191 189.524, 148.448 189.781 C 149.838 191.172, 152.900 186.980, 167.253 164.039 L 183.006 138.859 177.128 113.388 C 173.895 99.378, 171.002 87.668, 170.699 87.365 C 170.396 87.062, 164.536 88.424, 157.676 90.391 L 145.205 93.967 138.352 90.875 C 134.584 89.175, 131.315 87.610, 131.089 87.398 C 130.864 87.186, 131.496 86.110, 132.494 85.006 C 134.204 83.117, 135.558 83, 155.655 83 C 168.877 83, 177 82.628, 177 82.023 C 177 81.486, 175.387 73.320, 173.417 63.876 L 169.833 46.705 179.167 37.236 L 188.500 27.766 177.382 28.393 L 166.264 29.019 165.082 23.010 C 164.055 17.793, 163.609 17.012, 161.700 17.091 C 160.490 17.141, 150.050 19.682, 138.500 22.737 M 138.540 25.415 C 123.038 29.493, 119.241 30.798, 121.540 31.258 C 124.783 31.906, 161.730 29.604, 162.637 28.697 C 162.946 28.388, 162.889 26.304, 162.511 24.067 C 162.021 21.164, 161.348 20.023, 160.162 20.082 C 159.248 20.127, 149.518 22.527, 138.540 25.415 M 168.720 31.695 C 167.254 32.076, 167.058 32.808, 167.612 35.829 C 169.020 43.516, 169.048 43.520, 175.493 37.007 L 181.437 31 175.969 31.116 C 172.961 31.180, 169.699 31.440, 168.720 31.695 M 128 44.413 C 113.015 47.511, 112.663 47.641, 117.390 48.309 C 120.079 48.689, 125.414 49, 129.246 49 C 136.266 49, 138.088 48.193, 145.450 41.822 C 146.845 40.615, 145.158 40.866, 128 44.413 M 50.739 59.760 L 39.009 71.521 36.471 106.510 C 34.448 134.387, 33.242 145.156, 30.536 159.486 C 28.668 169.379, 27.220 177.549, 27.320 177.643 C 27.419 177.737, 34.912 163.717, 43.970 146.488 L 60.441 115.161 64.970 114.509 C 67.462 114.150, 70.473 113.625, 71.661 113.342 L 73.822 112.828 71.413 105.745 C 70.088 101.850, 69.200 98.467, 69.439 98.227 C 69.679 97.988, 77.440 100.739, 86.687 104.341 L 103.500 110.889 105.947 108.475 C 107.293 107.147, 108.193 105.877, 107.947 105.653 C 107.701 105.428, 96.475 101.177, 83 96.207 C 66.461 90.106, 58.395 86.654, 58.177 85.584 C 57.976 84.602, 58.546 83.996, 59.677 83.990 C 63.985 83.967, 108.309 81.025, 108.590 80.743 C 108.760 80.573, 104.555 78.503, 99.244 76.144 C 91.737 72.809, 88.862 71.991, 86.325 72.467 C 83.500 72.997, 81.717 72.205, 73.002 66.550 C 67.468 62.959, 61.575 59.315, 59.907 58.452 C 56.959 56.927, 56.362 54.163, 59.125 54.834 C 59.881 55.017, 66.800 53.892, 74.500 52.334 L 88.500 49.500 81.500 48.874 C 77.650 48.530, 71.793 48.193, 68.484 48.124 L 62.469 48 50.739 59.760 M 88 52.565 L 77.500 54.942 84.500 54.492 C 88.350 54.244, 100.275 53.719, 111 53.325 C 131.593 52.568, 131.275 51.745, 110 50.734 C 100.190 50.268, 96.957 50.537, 88 52.565 M 152.266 64.930 L 138.031 79.758 155.572 80.489 C 165.220 80.891, 173.322 81.011, 173.576 80.757 C 174.207 80.126, 167.848 49.987, 167.098 50.051 C 166.769 50.079, 160.094 56.775, 152.266 64.930 M 101 56.560 C 87.525 57.257, 74.250 57.903, 71.500 57.996 L 66.500 58.164 71.500 60.482 C 74.250 61.757, 79.425 64.117, 83 65.725 L 89.500 68.650 108.500 63.028 C 118.950 59.936, 129.075 56.910, 131 56.305 L 134.500 55.204 130 55.249 C 127.525 55.273, 114.475 55.863, 101 56.560 M 89.563 84.953 L 64.625 86.500 87.063 94.775 C 99.403 99.326, 109.961 103.038, 110.525 103.025 C 111.089 103.011, 114.822 99.706, 118.820 95.681 L 126.090 88.362 123.295 87.057 C 115.395 83.367, 115.267 83.359, 89.563 84.953 M 124.900 84.646 C 127.936 85.969, 128.468 85.961, 129.864 84.564 C 131.283 83.145, 130.967 83.008, 126.464 83.082 L 121.500 83.163 124.900 84.646 M 122.469 96.141 C 119.186 99.518, 117.254 102.020, 118.175 101.701 C 119.096 101.382, 124.384 99.862, 129.925 98.324 C 135.466 96.786, 140 95.267, 140 94.948 C 140 94.417, 130.134 90, 128.949 90 C 128.668 90, 125.751 92.763, 122.469 96.141 M 158.726 92.788 C 153.900 94.198, 150.300 95.699, 150.726 96.124 C 152.441 97.835, 171.524 105.718, 171.847 104.850 C 172.335 103.538, 168.925 89.975, 168.142 90.112 C 167.789 90.174, 163.552 91.378, 158.726 92.788 M 132.750 100.246 C 126.838 101.928, 122 103.628, 122 104.024 C 122 104.421, 127.904 109.527, 135.121 115.371 L 148.241 125.998 158.249 116.771 L 168.257 107.543 157.977 102.753 C 152.323 100.118, 146.753 97.788, 145.599 97.575 C 144.444 97.362, 138.662 98.563, 132.750 100.246 M 73.546 104.231 C 73.928 105.479, 74.805 107.885, 75.496 109.577 L 76.753 112.654 83.798 111.577 C 92.004 110.323, 93.159 109.616, 89.301 108.210 C 87.760 107.649, 83.429 106.013, 79.677 104.576 L 72.853 101.962 73.546 104.231 M 113.500 105.954 C 112.400 106.409, 110.421 107.943, 109.102 109.363 L 106.704 111.944 111.102 113.827 C 113.521 114.863, 116.579 116.052, 117.898 116.470 C 120.166 117.187, 120.261 117.053, 119.648 113.989 C 119.292 112.208, 119 109.456, 119 107.875 C 119 104.830, 117.492 104.303, 113.500 105.954 M 161.490 117.561 C 152.037 126.518, 150.739 128.120, 152.208 129.014 C 154.964 130.690, 153.365 133.089, 150.275 131.914 C 147.257 130.767, 147.498 130.593, 133.735 143.878 C 128.365 149.062, 123.712 153.045, 123.396 152.729 C 123.080 152.413, 122.204 145.087, 121.449 136.449 C 120.694 127.811, 119.890 120.557, 119.663 120.330 C 119.436 120.102, 115.955 118.651, 111.927 117.104 L 104.605 114.291 93.689 125.646 C 87.686 131.891, 82.375 137, 81.887 137 C 81.399 137, 81 136.325, 81 135.500 C 81 134.675, 80.634 134, 80.187 134 C 79.191 134, 57.779 160.113, 58.327 160.660 C 58.542 160.875, 65.820 158.328, 74.500 155 C 83.180 151.672, 90.418 149.085, 90.584 149.251 C 90.751 149.417, 90.430 155.734, 89.872 163.289 C 89.315 170.844, 89.003 177.716, 89.179 178.559 C 89.415 179.688, 93.857 177.353, 106 169.715 C 120.634 160.510, 124.227 158.736, 137.773 154.025 C 146.174 151.104, 153.273 148.940, 153.549 149.216 C 153.826 149.492, 153.415 157.319, 152.638 166.609 C 151.860 175.899, 151.297 183.586, 151.386 183.691 C 151.565 183.901, 176.749 144.066, 178.750 140.407 C 179.808 138.474, 179.457 135.778, 176.468 122.863 C 174.526 114.470, 172.834 107.501, 172.709 107.375 C 172.583 107.250, 167.535 111.833, 161.490 117.561 M 122.368 113.671 C 122.721 116.240, 123.119 118.417, 123.254 118.509 C 124.327 119.240, 142.461 125.872, 142.709 125.624 C 143.120 125.213, 123.329 109, 122.417 109 C 122.038 109, 122.016 111.102, 122.368 113.671 M 89.724 121.249 C 85.580 126.337, 82.429 130.884, 82.720 131.356 C 83.011 131.827, 87.457 128.022, 92.600 122.900 C 101.437 114.100, 102.514 112.072, 98.379 112.015 C 97.762 112.007, 93.867 116.162, 89.724 121.249 M 83.651 114.257 C 77.964 115.229, 77.817 115.333, 78.354 118.022 C 78.659 119.543, 79.491 122.214, 80.204 123.957 L 81.500 127.128 87.309 120.064 C 93.627 112.382, 93.723 112.535, 83.651 114.257 M 123.351 127.250 C 123.670 130.137, 124.224 135.981, 124.582 140.235 L 125.232 147.969 134.366 139.389 C 139.390 134.670, 143.613 130.514, 143.751 130.153 C 143.996 129.511, 125.342 121.929, 123.635 121.976 C 123.159 121.989, 123.031 124.362, 123.351 127.250" stroke="none" fill="black" fill-rule="evenodd"/>
</svg>