<svg xmlns="http://www.w3.org/2000/svg" width="200" height="200" viewBox="0 0 200 200" version="1.1">
	<path d="M 58 9.621 L 58 12.242 43.657 11.525 L 29.314 10.808 32.227 30.654 C 36.077 56.887, 35.792 61.894, 29.104 85.569 C 23.642 104.905, 23.356 106.381, 25.182 105.773 C 26.993 105.169, 36.792 68.878, 37.507 60.130 C 37.970 54.462, 37.471 48.041, 35.565 35.157 C 34.154 25.619, 33 16.956, 33 15.907 C 33 13.734, 36.111 13.515, 50.750 14.654 L 59 15.296 59 33.537 L 59 51.777 62.250 52.333 C 64.037 52.638, 69.100 53.174, 73.500 53.523 C 77.900 53.873, 82.219 54.356, 83.097 54.598 C 85.279 55.199, 99.022 44.076, 102.395 38.979 L 105.102 34.889 112.301 38.758 L 119.500 42.628 120.350 79.915 L 121.200 117.202 110.872 140.141 L 100.544 163.080 85.022 171.667 C 76.485 176.390, 67.925 181.190, 66 182.333 C 61.705 184.885, 60.261 186.846, 82.305 160.194 C 91.548 149.019, 99.353 139.244, 99.649 138.473 C 100.455 136.372, 91.767 125.922, 83.366 118.888 C 76.019 112.736, 75.969 112.661, 77.804 110.590 C 78.822 109.440, 85.358 102.080, 92.328 94.233 C 99.297 86.387, 104.998 79.637, 104.996 79.233 C 104.990 78.279, 59.057 61.609, 58.359 62.308 C 58.066 62.600, 60.791 67.863, 64.414 74.003 C 68.036 80.143, 71 85.790, 71 86.553 C 71 87.315, 68.326 97.740, 65.058 109.719 C 60.256 127.325, 58.419 136.388, 55.475 157 C 53.473 171.024, 51.741 182.592, 51.628 182.706 C 51.432 182.902, 22.402 162.736, 21.315 161.649 C 21.032 161.365, 25.111 153.962, 30.381 145.198 C 35.651 136.434, 40.227 128.571, 40.552 127.725 C 41 126.559, 37.663 124.358, 26.711 118.594 C 18.774 114.417, 11.992 111, 11.640 111 C 11.288 111, 11.005 111.563, 11.011 112.250 C 11.017 112.938, 17.051 116.656, 24.419 120.512 L 37.816 127.525 27.367 144.888 C 21.620 154.438, 17.049 162.337, 17.209 162.442 C 18.943 163.580, 48.189 183.881, 50.238 185.369 C 51.743 186.463, 53.196 187.137, 53.466 186.867 C 53.736 186.597, 55.805 173.804, 58.064 158.438 C 61.425 135.574, 63.245 126.596, 68.085 109.007 C 71.338 97.186, 74 86.972, 74 86.310 C 74 85.243, 70.660 79.060, 64.795 69.268 L 62.860 66.037 69.680 68.621 C 73.431 70.042, 81.225 72.917, 87 75.010 C 92.775 77.103, 98.284 79.129, 99.243 79.512 C 101.190 80.290, 102.474 78.634, 82.763 100.755 L 72.025 112.805 80.402 119.917 C 85.009 123.828, 90.677 129.489, 92.997 132.496 L 97.215 137.963 77.456 161.732 C 66.588 174.804, 57.028 186.278, 56.212 187.229 C 52.103 192.016, 59.396 189.063, 80.104 177.556 L 102.606 165.051 113.410 141.275 L 124.213 117.500 123.202 81.500 C 122.646 61.700, 122.395 45.291, 122.644 45.035 C 122.892 44.780, 123.862 45.053, 124.798 45.643 C 126.291 46.584, 126.541 49.222, 126.837 67.108 C 127.023 78.324, 126.633 101.994, 125.972 119.708 L 124.769 151.916 140.609 169.966 C 149.320 179.894, 156.741 187.901, 157.098 187.759 C 158.076 187.370, 195.052 144.718, 194.709 144.375 C 194.546 144.212, 185.657 146.711, 174.956 149.927 C 164.255 153.143, 155.295 155.583, 155.043 155.348 C 154.598 154.931, 150.133 109.747, 150.488 109.250 C 150.586 109.113, 156.635 113.096, 163.931 118.102 C 172.958 124.296, 177.522 126.878, 178.217 126.183 C 178.912 125.488, 175.360 119.235, 167.099 106.610 C 160.422 96.407, 154.726 87.450, 154.440 86.706 C 154.147 85.941, 160.096 77.631, 168.102 67.618 C 176.866 56.659, 181.928 49.528, 181.352 48.952 C 180.776 48.376, 174.911 50.674, 165.999 54.966 C 158.068 58.786, 151.433 61.766, 151.255 61.589 C 150.624 60.957, 156.075 21.470, 157.029 19.764 C 157.563 18.809, 158 17.628, 158 17.141 C 158 16.654, 149.900 15.928, 140 15.527 L 122 14.799 122 11.400 C 122 7.157, 121.084 7.122, 118.407 11.262 L 116.313 14.500 93.407 13.648 C 70.690 12.803, 70.458 12.771, 65.378 9.898 C 59.071 6.329, 58 6.289, 58 9.621 M 61.352 20.250 C 61.699 23.138, 61.987 30.938, 61.991 37.585 L 62 49.669 73.206 50.757 L 84.412 51.844 90.731 46.816 C 94.206 44.051, 98.334 39.922, 99.904 37.640 L 102.758 33.492 85.809 24.246 C 72.299 16.875, 68.036 15, 64.791 15 L 60.721 15 61.352 20.250 M 90.353 23.571 C 97.972 27.727, 104.415 30.918, 104.671 30.662 C 104.927 30.406, 107.150 27.340, 109.612 23.849 L 114.088 17.500 103.794 16.873 C 98.132 16.527, 89.675 16.193, 85 16.130 L 76.500 16.016 90.353 23.571 M 113.411 23.228 C 106.086 33.178, 106.108 32.521, 112.978 35.989 L 119 39.029 119 28.014 C 119 21.956, 118.774 17, 118.498 17 C 118.222 17, 115.933 19.803, 113.411 23.228 M 122 29.366 L 122 41.032 125.394 42.651 L 128.788 44.269 129.520 65.757 C 129.958 78.596, 129.798 97.560, 129.123 112.872 C 128.502 126.967, 127.995 141.426, 127.997 145.002 L 128 151.504 142.033 167.502 C 149.751 176.301, 156.411 183.500, 156.832 183.500 C 157.459 183.500, 181.286 156.639, 185.811 150.830 C 186.840 149.510, 184.743 149.876, 175.806 152.578 C 158.414 157.837, 152.979 159.314, 152.574 158.889 C 152.033 158.323, 146.998 104.668, 147.444 104.222 C 147.651 104.016, 153.567 107.796, 160.591 112.622 C 167.616 117.447, 172.962 120.744, 172.473 119.948 C 171.983 119.152, 166.756 111.103, 160.856 102.062 L 150.130 85.624 153.315 81.597 C 155.067 79.383, 160.662 72.417, 165.749 66.118 C 170.836 59.819, 174.846 54.512, 174.658 54.325 C 174.471 54.138, 168.586 56.727, 161.579 60.079 C 154.572 63.431, 148.586 65.919, 148.276 65.610 C 147.967 65.300, 149.063 54.798, 150.713 42.273 C 152.362 29.748, 153.590 19.351, 153.441 19.168 C 153.292 18.986, 146.157 18.580, 137.585 18.268 L 122 17.699 122 29.366" stroke="none" fill="black" fill-rule="evenodd"/>
</svg>