<svg xmlns="http://www.w3.org/2000/svg" width="200" height="200" viewBox="0 0 200 200" version="1.1">
	<path d="M 32.692 9.360 C 32.338 10.282, 30.955 11, 29.531 11 C 27.948 11, 27 11.562, 27 12.500 C 27 13.325, 27.563 14.007, 28.250 14.015 C 31.960 14.061, 32.118 15.183, 30.586 30.581 C 29.769 38.786, 28.818 52.475, 28.473 61 C 28.127 69.525, 26.480 86.850, 24.813 99.500 C 22.088 120.177, 21.846 124.149, 22.415 138.821 L 23.048 155.142 31.183 173.163 C 37.190 186.470, 39.547 190.774, 40.194 189.617 C 40.676 188.756, 45.263 175.552, 50.388 160.276 L 59.705 132.500 60.439 107.126 L 61.173 81.753 64.374 74.696 L 67.574 67.639 73.313 76.873 C 76.469 81.952, 78.789 86.533, 78.467 87.053 C 78.145 87.574, 75.996 88.045, 73.691 88.100 C 64.301 88.323, 64.406 85.479, 72.476 120.950 L 79.632 152.400 91.358 154.824 C 97.808 156.158, 103.309 157.025, 103.583 156.751 C 103.856 156.477, 105.345 151.808, 106.890 146.376 C 108.791 139.697, 109.891 137.147, 110.289 138.500 C 110.614 139.600, 113.239 153.213, 116.123 168.750 C 119.737 188.218, 121.763 197, 122.640 197 C 123.926 197, 125.161 193.314, 135.030 160 C 137.881 150.375, 140.436 142.275, 140.706 142 C 140.977 141.725, 141.041 143.670, 140.849 146.323 L 140.500 151.146 155.466 156.557 C 163.697 159.533, 170.719 161.638, 171.070 161.234 C 171.861 160.324, 174.056 106.008, 173.989 89 C 173.946 78.116, 167.988 16.654, 166.867 15.533 C 166.647 15.314, 159.500 27.542, 150.984 42.707 C 142.468 57.872, 135.008 70.957, 134.408 71.785 C 133.443 73.113, 132.096 73.026, 122.908 71.038 C 117.183 69.800, 111.825 68.569, 111 68.303 C 110.164 68.033, 116.802 64.150, 125.985 59.536 L 142.471 51.252 137.485 50.647 C 134.743 50.315, 126.425 49.540, 119 48.926 C 111.575 48.312, 105.399 47.715, 105.276 47.598 C 105.153 47.481, 114.941 45.164, 127.026 42.449 C 156.166 35.902, 156.176 35.412, 127.250 31.588 C 115.287 30.006, 104.696 28.424, 103.714 28.071 C 102.731 27.718, 111.731 26.646, 123.714 25.690 L 145.500 23.950 150.207 18.725 C 152.795 15.851, 154.933 13.234, 154.957 12.908 C 154.981 12.582, 128.144 11.995, 95.320 11.602 C 42.540 10.971, 35.505 10.706, 34.480 9.304 C 33.427 7.863, 33.265 7.868, 32.692 9.360 M 43.500 16.046 C 46.250 17.120, 52.663 19.386, 57.750 21.082 C 66.467 23.987, 67.849 24.817, 66.394 26.273 C 66.061 26.606, 60.141 24.875, 53.240 22.427 C 46.338 19.979, 40.571 18.096, 40.423 18.244 C 40.276 18.391, 43.270 23.459, 47.077 29.506 C 52.199 37.642, 54.483 40.444, 55.863 40.286 C 57.133 40.140, 60.015 42.901, 64.895 48.938 L 72.061 57.803 70.439 61.205 L 68.818 64.606 75.027 74.553 C 78.442 80.024, 81.745 85.039, 82.368 85.698 C 83.247 86.629, 86.627 86.578, 97.500 85.469 C 105.200 84.684, 115.203 84.032, 119.730 84.021 L 127.959 84 129.980 80.039 L 132.001 76.077 127.751 74.916 C 125.413 74.277, 118.100 72.744, 111.500 71.509 L 99.500 69.263 115.758 61.472 C 124.699 57.187, 131.846 53.512, 131.639 53.306 C 131.251 52.918, 100.264 50.034, 96.250 50.012 C 94.987 50.005, 94 49.382, 94 48.591 C 94 47.209, 101.498 45.185, 129.928 38.897 C 142.499 36.116, 143.284 36.392, 110.250 31.966 C 92.079 29.531, 86 28.376, 86 27.358 C 86 26.611, 86.563 25.990, 87.250 25.978 C 87.938 25.966, 101.087 24.882, 116.472 23.569 L 144.444 21.181 146.712 18.340 L 148.979 15.500 121.240 14.886 C 105.983 14.548, 81.125 14.231, 66 14.182 L 38.500 14.094 43.500 16.046 M 34.573 19.148 C 33.274 26.988, 31 56.517, 31 65.556 C 31 70.992, 29.621 85.425, 27.906 97.932 C 25.166 117.915, 24.863 122.447, 25.264 137.500 L 25.717 154.500 30.973 166 C 33.864 172.325, 36.916 179.075, 37.756 181 L 39.283 184.500 48.156 158 L 57.030 131.500 57.655 106.500 L 58.281 81.500 62.048 73.092 L 65.815 64.683 61.062 57.092 C 58.449 52.916, 51.682 42.075, 46.026 33 C 40.370 23.925, 35.605 16.342, 35.436 16.148 C 35.267 15.954, 34.879 17.304, 34.573 19.148 M 150.700 48.737 C 143.109 62.246, 137.259 73.628, 137.700 74.030 C 138.140 74.432, 143.900 75.977, 150.500 77.463 C 168.867 81.598, 170 81.951, 170 83.539 C 170 84.664, 168.450 85.027, 163.250 85.118 C 159.537 85.183, 150.478 85.521, 143.118 85.868 C 131.129 86.434, 129.594 86.713, 128.380 88.547 C 127.080 90.511, 127.735 90.916, 144.474 98.502 C 154.071 102.852, 161.747 106.586, 161.533 106.800 C 161.319 107.015, 150.675 108.697, 137.880 110.538 L 114.617 113.887 101.238 106.826 C 89.274 100.511, 87.523 99.245, 84.680 94.847 L 81.500 89.931 75.500 90.578 C 72.200 90.934, 69.337 91.375, 69.138 91.557 C 68.685 91.974, 81.255 147.794, 82.115 149.186 C 82.679 150.099, 100.944 154.390, 101.575 153.758 C 101.716 153.616, 103.416 148.166, 105.352 141.648 C 107.288 135.129, 109.133 129.534, 109.452 129.214 C 110.937 127.730, 112.132 132.426, 117.035 159 C 119.927 174.675, 122.581 187.832, 122.933 188.237 C 123.285 188.642, 126.594 178.742, 130.285 166.237 C 141.240 129.125, 141.941 127.040, 143.290 127.558 C 144.229 127.918, 144.361 130.518, 143.834 138.267 C 143.450 143.895, 143.444 148.772, 143.818 149.104 C 144.881 150.045, 168.040 158.295, 168.439 157.875 C 169.144 157.130, 171.006 110.093, 171.007 93 C 171.009 76.512, 166.998 30.299, 165.178 25.837 C 164.701 24.666, 160.418 31.440, 150.700 48.737 M 56.835 45 C 58.027 46.925, 60.689 51.305, 62.751 54.733 C 66.683 61.269, 67.434 61.918, 68.338 59.561 C 68.659 58.724, 66.573 55.269, 63.354 51.311 C 56.394 42.749, 54.018 40.448, 56.835 45 M 133.557 79.223 C 132.701 80.445, 132 81.795, 132 82.223 C 132 82.650, 137.700 83, 144.667 83 C 151.633 83, 157.016 82.683, 156.628 82.295 C 155.931 81.598, 138.611 77.120, 136.307 77.041 C 135.650 77.018, 134.413 78, 133.557 79.223 M 95 88.407 C 87.730 89.270, 85.573 89.866, 85.810 90.947 C 86.677 94.900, 90.905 98.301, 102.600 104.455 L 115.182 111.076 133.341 108.492 C 143.329 107.072, 151.881 105.803, 152.347 105.672 C 152.813 105.542, 146.834 102.568, 139.060 99.062 C 131.286 95.557, 124.697 92.319, 124.417 91.865 C 124.137 91.412, 124.394 90.132, 124.989 89.021 C 126.045 87.048, 125.817 87.003, 115.285 87.140 C 109.353 87.217, 100.225 87.787, 95 88.407" stroke="none" fill="black" fill-rule="evenodd"/>
</svg>