<svg xmlns="http://www.w3.org/2000/svg" width="200" height="200" viewBox="0 0 200 200" version="1.1">
	<path d="M 31.201 29.250 C 29.917 39.807, 28.985 53.143, 28.990 60.886 C 28.996 69.154, 28.006 82.536, 26.400 95.886 L 23.799 117.500 25.476 134.500 C 27.088 150.852, 32.498 188.831, 33.334 189.667 C 33.557 189.890, 39.609 178.874, 46.783 165.187 L 59.827 140.302 63.194 114.857 L 66.560 89.412 64.789 77.956 C 63.815 71.655, 63.126 65.987, 63.259 65.359 C 63.497 64.232, 98.950 76.864, 98.984 78.088 C 98.993 78.411, 92.250 83.336, 84 89.033 C 75.750 94.730, 69 99.460, 69 99.545 C 69 99.630, 75.344 102.344, 83.098 105.576 C 97.085 111.407, 97.215 111.491, 99.615 116.227 L 102.034 121 94.684 121 C 90.641 121, 87.060 121.273, 86.727 121.607 C 86.393 121.940, 88.276 125.165, 90.911 128.774 L 95.703 135.334 84.284 152.766 C 78.003 162.353, 73.143 170.476, 73.483 170.817 C 73.824 171.157, 83.192 172.229, 94.301 173.198 C 107.782 174.374, 123.889 176.693, 142.728 180.169 C 158.253 183.034, 171.198 185.135, 171.495 184.838 C 172.217 184.116, 179.110 130.777, 178.554 130.220 C 178.314 129.981, 170.347 136.639, 160.850 145.016 C 151.353 153.394, 143.422 159.766, 143.225 159.176 C 142.815 157.946, 145.717 131.949, 146.333 131.333 C 146.557 131.110, 155.842 128.500, 166.967 125.533 C 178.091 122.567, 187.457 119.876, 187.780 119.553 C 189.465 117.868, 184.410 117.036, 163 115.475 C 150.075 114.532, 139.416 113.693, 139.313 113.610 C 139.211 113.528, 147.399 108.811, 157.510 103.129 C 167.621 97.447, 176.705 92.201, 177.697 91.470 C 179.355 90.250, 179.365 90.091, 177.826 89.494 C 176.906 89.137, 165.318 90.141, 152.076 91.726 C 136.421 93.600, 128.017 94.239, 128.049 93.554 C 128.075 92.974, 129.538 89.736, 131.299 86.357 C 134.245 80.704, 136.426 78.653, 158.699 60.594 C 182.035 41.674, 185.061 39.017, 183.309 38.986 C 182.864 38.978, 173.500 38.307, 162.500 37.494 C 151.500 36.681, 141.006 36.012, 139.181 36.008 C 135.925 36, 135.754 35.773, 130.330 24.250 C 127.287 17.787, 124.652 12.346, 124.473 12.157 C 124.293 11.968, 117.540 17.593, 109.464 24.657 C 101.388 31.721, 94.454 37.412, 94.054 37.305 C 93.654 37.197, 91.130 36.995, 88.445 36.856 C 83.910 36.622, 83.028 36.103, 76.024 29.552 C 71.877 25.673, 67.315 21.470, 65.886 20.211 L 63.288 17.922 57.660 27.177 C 54.565 32.268, 52.363 36.736, 52.766 37.107 C 53.170 37.478, 59.677 41.244, 67.228 45.476 L 80.955 53.171 85.427 49.506 L 89.899 45.842 103.983 59.054 C 111.729 66.321, 118.218 72.094, 118.403 71.883 C 118.587 71.672, 119.266 67, 119.910 61.500 C 121.794 45.411, 121.378 46.340, 127.053 45.587 C 131.560 44.990, 133.193 43.850, 131.250 42.658 C 130.838 42.406, 124.200 41.415, 116.500 40.458 C 108.800 39.500, 101.715 38.434, 100.755 38.088 C 99.380 37.593, 101.176 35.555, 109.220 28.480 C 114.836 23.541, 120.382 18.740, 121.544 17.812 C 123.633 16.144, 123.718 16.255, 128.550 27.011 C 134.281 39.765, 130.950 38.335, 159 40.087 C 169.175 40.722, 177.586 41.311, 177.692 41.396 C 177.797 41.481, 167.618 49.864, 155.072 60.025 L 132.261 78.500 127.580 87.866 C 125.005 93.017, 123.050 97.384, 123.237 97.570 C 123.423 97.756, 134.069 96.662, 146.895 95.139 C 160.368 93.539, 169.597 92.819, 168.752 93.435 C 167.948 94.021, 158.832 99.225, 148.495 105 L 129.699 115.500 138.100 116.268 C 142.720 116.690, 153.700 117.595, 162.500 118.278 L 178.500 119.520 164 123.421 C 156.025 125.567, 148.125 127.696, 146.445 128.154 L 143.390 128.986 141.265 147.731 C 140.097 158.040, 139.297 166.630, 139.486 166.820 C 139.676 167.010, 147.564 160.348, 157.015 152.015 C 166.466 143.683, 174.439 137.106, 174.733 137.400 C 175.213 137.879, 170.082 181.049, 169.454 181.820 C 169.310 181.997, 156.662 179.876, 141.346 177.107 C 125.502 174.243, 105.747 171.381, 95.513 170.466 C 85.619 169.582, 77.424 168.758, 77.301 168.635 C 77.178 168.512, 81.619 161.583, 87.169 153.236 C 97.172 138.195, 97.276 138.081, 98.963 140.281 C 99.899 141.501, 104.397 147.821, 108.959 154.324 C 114.563 162.314, 117.580 165.820, 118.266 165.134 C 119.234 164.166, 116.267 158.349, 103.708 136.583 C 100.160 130.434, 99.576 129.859, 98.451 131.398 C 97.308 132.961, 96.880 132.687, 94.044 128.565 L 90.904 124 97.893 124 C 101.737 124, 105.142 123.580, 105.459 123.067 C 105.776 122.553, 104.447 119.244, 102.506 115.712 L 98.977 109.291 87.738 104.550 C 81.557 101.942, 76.163 99.492, 75.752 99.106 C 75.341 98.720, 81.796 93.766, 90.098 88.098 C 98.400 82.430, 104.811 77.442, 104.346 77.015 C 103.347 76.097, 59.849 59.780, 59.542 60.208 C 59.426 60.368, 60.336 66.800, 61.564 74.500 L 63.796 88.500 60.460 114.041 L 57.125 139.581 46.313 160.273 C 40.366 171.653, 35.247 180.972, 34.938 180.982 C 34.094 181.009, 30.192 153.848, 28.314 134.870 L 26.659 118.154 29.453 94.327 C 31.546 76.479, 32.091 68.242, 31.626 61.500 C 31.163 54.776, 31.636 47.569, 33.499 33 C 36.412 10.213, 36.369 11, 34.710 11 C 33.785 11, 32.792 16.164, 31.201 29.250 M 62.655 24.216 C 56.977 33.254, 55.928 35.324, 56.665 36.037 C 57.124 36.481, 62.675 39.772, 69 43.350 L 80.500 49.856 83.445 47.592 C 85.065 46.347, 86.535 44.894, 86.712 44.363 C 86.889 43.833, 81.871 38.569, 75.562 32.666 C 64.193 22.028, 64.078 21.953, 62.655 24.216 M 88.064 40.578 C 88.659 41.295, 89.788 41.635, 90.573 41.334 C 92.558 40.572, 92.375 40.305, 89.491 39.754 C 87.514 39.376, 87.212 39.550, 88.064 40.578 M 92.981 42.523 C 91.908 43.815, 92.912 45.150, 99.608 51.338 C 112.253 63.022, 116.033 66.306, 116.357 65.890 C 116.751 65.385, 119 47.877, 119 45.317 C 119 43.579, 117.854 43.227, 108.750 42.174 C 95.652 40.659, 94.507 40.685, 92.981 42.523 M 100 137 C 100.589 138.100, 101.295 139, 101.570 139 C 101.845 139, 101.589 138.100, 101 137 C 100.411 135.900, 99.705 135, 99.430 135 C 99.155 135, 99.411 135.900, 100 137" stroke="none" fill="black" fill-rule="evenodd"/>
</svg>