<svg xmlns="http://www.w3.org/2000/svg" width="200" height="200" viewBox="0 0 200 200" version="1.1">
	<path d="M 125.451 21.567 C 122.847 27.855, 120.375 33, 119.958 33 C 119.541 33, 115.667 30.175, 111.350 26.722 C 107.032 23.270, 101.637 18.996, 99.359 17.225 L 95.218 14.005 79.485 33.502 C 70.832 44.226, 63.462 53, 63.108 53 C 62.753 53, 59.401 43.775, 55.657 32.500 C 51.914 21.225, 48.732 12, 48.587 12 C 48.441 12, 41.723 21.788, 33.657 33.750 L 18.993 55.500 20.543 76.500 C 21.396 88.050, 23.046 104.475, 24.209 113 C 25.808 124.714, 26.468 136.151, 26.912 159.826 L 27.500 191.152 45.415 160.326 C 55.268 143.372, 63.427 129.275, 63.545 129 C 63.663 128.725, 62.935 119.050, 61.925 107.500 C 59.294 77.393, 58.672 80.873, 67.562 75.966 C 71.721 73.670, 75.246 71.951, 75.395 72.146 C 75.928 72.845, 90.019 136.533, 89.965 138 C 89.935 138.825, 84.360 151.650, 77.577 166.500 C 70.794 181.350, 65.351 193.625, 65.483 193.778 C 65.614 193.930, 77.430 185.943, 91.741 176.028 C 106.051 166.112, 117.998 158, 118.290 158 C 118.582 158, 126.398 164.308, 135.660 172.019 L 152.500 186.037 163.737 174.269 L 174.973 162.500 174.936 157 C 174.915 153.975, 174.530 146.775, 174.080 141 L 173.262 130.500 161.068 109.307 C 148.959 88.259, 148.849 88.111, 145.187 87.725 C 143.159 87.511, 147.688 87.261, 155.250 87.168 C 162.813 87.076, 169.013 86.888, 169.028 86.750 C 169.044 86.612, 170.136 78.405, 171.456 68.511 C 172.776 58.618, 173.690 50.357, 173.488 50.154 C 173.285 49.952, 166.289 52.068, 157.942 54.857 L 142.764 59.928 143.382 56.839 C 143.722 55.140, 144 52.920, 144 51.906 C 144 50.759, 144.516 50.261, 145.366 50.587 C 146.649 51.079, 183.570 37.624, 185.303 36.032 C 185.744 35.626, 177.046 30.689, 165.973 25.060 C 154.900 19.432, 145.585 15.082, 145.273 15.393 C 144.961 15.705, 144.035 22.832, 143.214 31.230 C 142.394 39.629, 141.651 46.596, 141.565 46.713 C 141.478 46.830, 139.081 46.313, 136.238 45.563 L 131.068 44.199 126.284 50.554 C 123.653 54.049, 120.825 56.925, 120 56.945 C 118.433 56.983, 94.053 50.386, 93.419 49.752 C 93.219 49.552, 93.943 45.673, 95.028 41.131 C 97.209 31.997, 97.466 29, 96.067 29 C 94.968 29, 94.761 29.645, 91.952 41.818 C 90.769 46.942, 90.020 51.353, 90.286 51.619 C 90.553 51.886, 96.785 53.776, 104.135 55.819 C 113.613 58.453, 117.500 59.965, 117.500 61.017 C 117.500 62.268, 114.060 62.578, 95.541 63 C 75.109 63.465, 73.752 63.609, 76.041 65.069 C 77.393 65.932, 85.371 70.432, 93.769 75.069 L 109.037 83.500 98.447 83.785 C 90.681 83.993, 87.964 84.393, 88.259 85.285 C 88.529 86.100, 93.575 86.850, 103.581 87.563 L 118.500 88.625 127.226 93.563 C 134.755 97.823, 135.955 98.866, 135.976 101.170 C 135.999 103.740, 135.745 103.865, 129.250 104.486 C 125.537 104.841, 120.152 105.440, 117.282 105.816 L 112.065 106.500 118.310 116.029 C 121.745 121.269, 126.554 130.149, 128.995 135.761 C 131.437 141.374, 133.721 145.636, 134.071 145.233 C 134.421 144.830, 135.495 136.175, 136.459 126 C 137.423 115.825, 138.415 107.162, 138.665 106.750 C 138.914 106.338, 141.454 105.993, 144.309 105.985 C 152.508 105.961, 152.833 104.819, 145.761 100.891 C 139.762 97.560, 139.514 97.269, 139.843 93.957 C 140.274 89.610, 140.246 89.632, 144.203 90.397 C 147.272 90.989, 148.295 92.419, 159 111.085 L 170.500 131.137 171.500 146.098 L 172.500 161.058 162.426 171.747 L 152.353 182.435 143.426 174.938 C 138.517 170.814, 130.896 164.468, 126.492 160.835 L 118.483 154.230 95.566 170.106 C 82.961 178.838, 72.500 185.834, 72.319 185.652 C 72.137 185.471, 76.716 174.917, 82.494 162.201 C 88.272 149.484, 93 138.577, 93 137.963 C 93 135.560, 77.734 69.449, 76.996 68.655 C 75.975 67.557, 57 78.714, 57 80.413 C 57 81.126, 57.900 92.189, 59 104.998 L 61 128.286 45.500 154.868 L 30 181.449 29.996 159.974 C 29.993 143.022, 29.469 134.403, 27.510 119.044 C 26.145 108.344, 24.307 89.824, 23.425 77.890 L 21.821 56.191 34.586 37.145 C 41.606 26.669, 47.638 18.276, 47.989 18.493 C 48.340 18.710, 51.521 27.913, 55.057 38.944 C 58.593 49.975, 61.714 58.983, 61.993 58.963 C 62.272 58.942, 69.025 50.845, 77 40.970 C 84.975 31.094, 92.462 21.829, 93.638 20.381 L 95.777 17.747 108.635 27.951 L 121.494 38.155 122.665 35.328 C 123.308 33.772, 125.856 27.695, 128.326 21.822 C 131.678 13.850, 132.483 11.015, 131.501 10.639 C 130.601 10.293, 128.689 13.748, 125.451 21.567 M 146.942 21.250 C 146.910 22.488, 146.322 28.835, 145.634 35.355 C 144.633 44.861, 144.634 47.306, 145.640 47.692 C 146.548 48.040, 178.055 36.832, 179.711 35.572 C 180.017 35.339, 148.395 19, 147.638 19 C 147.287 19, 146.974 20.012, 146.942 21.250 M 127.631 53.084 C 125.543 55.881, 123.985 58.284, 124.168 58.424 C 125.487 59.437, 137.055 61.916, 138.276 61.447 C 140.069 60.760, 140.967 57.916, 140.986 52.875 C 140.999 49.611, 140.689 49.188, 137.875 48.625 C 132.373 47.525, 131.498 47.905, 127.631 53.084 M 156.500 58 L 145.500 61.843 157.645 61.921 L 169.790 62 170.171 58 C 170.645 53.031, 170.724 53.031, 156.500 58 M 120.500 62 C 120.122 62.611, 121.557 62.973, 124.191 62.930 C 127.516 62.875, 128.043 62.663, 126.500 62 C 123.733 60.811, 121.235 60.811, 120.500 62 M 162.366 68.187 L 156.233 72.071 149.463 69.522 C 145.739 68.121, 142.577 67.092, 142.434 67.237 C 142.292 67.382, 141.853 71.213, 141.459 75.750 L 140.742 84 153.747 84 L 166.753 84 167.959 74.416 C 168.623 69.145, 169.016 64.714, 168.833 64.568 C 168.650 64.423, 165.740 66.052, 162.366 68.187 M 118.250 66.031 C 114.640 67.482, 115.523 69.055, 119.250 67.811 C 121.037 67.215, 122.927 66.338, 123.450 65.864 C 124.692 64.735, 121.194 64.848, 118.250 66.031 M 121.570 69.563 C 114.458 71.988, 108.508 73.841, 108.347 73.681 C 108.187 73.520, 109.426 71.726, 111.100 69.694 L 114.146 66 98.823 66.004 C 81.064 66.008, 80.631 64.756, 102.567 76.816 L 115.635 84 126.738 84 L 137.841 84 138.472 77.250 C 138.818 73.537, 139.301 69.534, 139.544 68.354 C 139.973 66.272, 138.351 64.901, 135.668 65.077 C 135.026 65.119, 128.681 67.138, 121.570 69.563 M 147 65.406 C 147 65.629, 149.098 66.527, 151.663 67.401 C 156.090 68.909, 156.483 68.889, 159.413 67.012 L 162.500 65.034 154.750 65.017 C 150.488 65.008, 147 65.183, 147 65.406 M 130.500 92.291 L 136.500 95.722 136.825 93.269 C 137.004 91.921, 137.004 90.677, 136.825 90.505 C 136.646 90.333, 133.800 89.893, 130.500 89.526 L 124.500 88.859 130.500 92.291 M 139 102.500 C 139 104.183, 139.863 104.373, 141.834 103.124 C 142.898 102.449, 142.831 102.149, 141.502 101.639 C 139.175 100.746, 139 100.807, 139 102.500 M 122.750 107.739 C 119.588 107.937, 117 108.327, 117 108.605 C 117 108.883, 118.835 111.812, 121.077 115.114 C 123.320 118.416, 126.807 124.579, 128.827 128.809 C 132.141 135.749, 132.531 136.207, 132.812 133.500 C 132.984 131.850, 133.679 125.213, 134.357 118.750 L 135.590 107 132.045 107.189 C 130.095 107.293, 125.912 107.541, 122.750 107.739" stroke="none" fill="black" fill-rule="evenodd"/>
</svg>