<svg xmlns="http://www.w3.org/2000/svg" width="200" height="200" viewBox="0 0 200 200" version="1.1">
	<path d="M 91.508 15.493 C 78.015 18.407, 70.965 19.517, 69.824 18.906 C 67.497 17.661, 66.974 17.768, 67.586 19.363 C 67.949 20.309, 66.943 20.933, 64.305 21.399 C 62.212 21.769, 50.375 24.250, 38 26.914 L 15.500 31.756 27.750 37.535 C 34.487 40.713, 40 43.696, 40 44.163 C 40 45.995, 28.469 59, 26.845 59 C 24.768 59, 23.156 61.219, 24.828 61.776 C 25.511 62.004, 23.688 64.968, 20.513 68.793 C 16.891 73.156, 15.353 75.753, 16.004 76.404 C 16.655 77.055, 17.420 76.852, 18.246 75.810 C 18.936 74.939, 21.669 71.520, 24.321 68.211 L 29.141 62.196 36.821 61.590 C 41.044 61.257, 52.070 60.500, 61.323 59.908 L 78.146 58.831 81.899 61.315 L 85.652 63.798 85.226 72.149 C 84.905 78.427, 85.311 82.483, 86.859 88.491 C 87.992 92.885, 88.600 96.772, 88.209 97.129 C 87.819 97.485, 82.325 99.666, 76 101.975 C 66.616 105.402, 60.545 106.784, 43 109.486 C 31.175 111.307, 21.345 112.650, 21.155 112.470 C 20.966 112.291, 26.092 103.985, 32.546 94.013 C 40.395 81.888, 43.950 75.550, 43.279 74.879 C 42.608 74.208, 37.773 80.852, 28.681 94.938 C 18.912 110.073, 15.566 115.995, 16.793 115.982 C 17.732 115.973, 28.653 114.448, 41.063 112.594 C 60.470 109.694, 65.507 108.556, 77.063 104.459 C 84.453 101.840, 90.863 99.379, 91.308 98.990 C 91.752 98.602, 91.189 94.658, 90.058 90.226 C 88.043 82.336, 87.161 65.994, 88.750 66.005 C 91.180 66.021, 95.663 71.927, 100.960 82.091 C 104.282 88.466, 107 94.135, 107 94.689 C 107 95.242, 103.616 100.105, 99.479 105.494 C 95.343 110.883, 92.110 115.443, 92.294 115.627 C 92.581 115.915, 105.502 114.098, 114.248 112.540 C 116.765 112.092, 117.255 112.563, 120.064 118.127 C 121.751 121.468, 122.892 124.442, 122.600 124.734 C 122.307 125.026, 102.693 124.450, 79.012 123.454 C 47.165 122.115, 35.664 121.936, 34.834 122.766 C 33.405 124.195, 34.072 124.349, 55.458 127.547 C 64.785 128.941, 72.660 130.321, 72.958 130.614 C 73.584 131.227, 81.949 170.359, 81.544 170.779 C 81.396 170.933, 76.876 167.477, 71.499 163.100 L 61.723 155.142 54.612 160.154 C 50.700 162.911, 41.316 169.483, 33.757 174.757 C 26.199 180.032, 20.188 184.521, 20.399 184.733 C 20.611 184.945, 43.221 184.603, 70.642 183.973 C 98.064 183.344, 131.633 182.980, 145.240 183.164 C 164.072 183.420, 170.092 183.208, 170.448 182.277 C 170.948 180.971, 169.609 180.544, 154 177.031 L 144.500 174.893 137.750 165.526 C 134.037 160.374, 131.006 155.786, 131.013 155.329 C 131.020 154.873, 134.411 152.298, 138.548 149.606 C 142.685 146.914, 145.941 144.323, 145.783 143.849 C 145.625 143.375, 141.511 140.335, 136.642 137.094 C 129.864 132.584, 128.223 131.074, 129.644 130.655 C 130.665 130.355, 140.500 128.284, 151.500 126.055 C 162.500 123.825, 172.591 121.747, 173.925 121.437 C 176.049 120.944, 175.015 119.989, 165.594 113.739 C 156.970 108.018, 155.212 106.466, 156.723 105.907 C 157.760 105.523, 161.317 102.125, 164.628 98.355 L 170.647 91.500 173.794 66.020 C 175.524 52.006, 176.616 40.259, 176.220 39.915 C 175.824 39.572, 167.400 38.768, 157.500 38.129 L 139.500 36.968 126.644 23.984 C 119.573 16.843, 113.273 11.039, 112.644 11.088 C 112.015 11.136, 102.503 13.118, 91.508 15.493 M 94.500 17.594 C 85.700 19.478, 77.850 21.259, 77.055 21.553 C 75.828 22.006, 81.157 25.366, 99.916 35.965 C 100.963 36.557, 99.731 37.905, 95.193 41.133 C 89.559 45.140, 89.051 45.809, 89.027 49.250 C 88.995 53.677, 88.492 53.597, 105.569 51.866 L 116.756 50.732 112.794 41.250 C 110.157 34.938, 109.166 31.434, 109.831 30.769 C 110.496 30.104, 116.054 34.708, 126.459 44.541 C 135.957 53.516, 141.728 59.672, 141.170 60.230 C 140.612 60.788, 137.072 59.550, 132.148 57.074 C 124.961 53.461, 121 52.159, 121 53.411 C 121 53.638, 122.575 57.503, 124.500 62 C 126.425 66.497, 128 70.659, 128 71.248 C 128 71.837, 126.159 74.756, 123.910 77.736 C 121.660 80.715, 119.973 83.280, 120.160 83.435 C 125.093 87.528, 151.612 104, 153.268 104 C 154.701 104, 157.101 102.380, 159.565 99.750 C 168.428 90.288, 167.635 92.606, 170.931 66.549 C 172.596 53.391, 173.822 42.489, 173.656 42.322 C 173.489 42.156, 165.373 41.489, 155.619 40.840 L 137.885 39.659 125.525 26.830 C 118.727 19.773, 112.565 14.038, 111.832 14.085 C 111.100 14.132, 103.300 15.711, 94.500 17.594 M 47.815 27.526 C 36.989 29.892, 27.314 32.016, 26.315 32.245 C 25.131 32.517, 27.722 34.258, 33.770 37.254 C 38.868 39.780, 43.578 42.026, 44.236 42.245 C 44.931 42.477, 42.764 45.871, 39.067 50.340 C 35.566 54.572, 32.881 58.186, 33.101 58.370 C 33.452 58.665, 79.831 54.495, 84.181 53.777 C 85.542 53.553, 84.321 50.589, 77.785 38.250 C 73.343 29.863, 69.211 23.050, 68.604 23.112 C 67.997 23.174, 58.642 25.160, 47.815 27.526 M 79.652 36.033 C 83.117 42.626, 85.662 46.469, 85.975 45.583 C 86.264 44.768, 88.653 42.571, 91.284 40.701 C 94.901 38.132, 95.755 37.060, 94.784 36.311 C 92.738 34.731, 75.336 25, 74.558 25 C 74.170 25, 76.462 29.965, 79.652 36.033 M 115.518 40.592 C 116.440 42.741, 117.645 45.737, 118.195 47.250 C 118.914 49.226, 119.883 50, 121.638 50 C 122.981 50, 125.862 50.909, 128.040 52.020 C 130.218 53.132, 132 53.870, 132 53.660 C 132 53.451, 127.914 49.546, 122.921 44.982 C 114.124 36.942, 113.893 36.805, 115.518 40.592 M 105.500 54.583 C 104.400 54.753, 100.535 55.170, 96.910 55.509 L 90.320 56.125 93.323 61.852 C 95.990 66.937, 97.514 68.369, 106.918 74.630 L 117.509 81.681 121.415 76.730 C 125.787 71.187, 125.811 71.606, 120.404 59.380 L 118.025 54 112.763 54.136 C 109.868 54.211, 106.600 54.412, 105.500 54.583 M 82.559 58.468 C 85.057 60.358, 86 60.366, 86 58.500 C 86 57.538, 85.034 57, 83.309 57 C 80.728 57, 80.697 57.060, 82.559 58.468 M 88 60.878 C 88 61.360, 88.675 62.315, 89.500 63 C 91.128 64.351, 91.332 64.028, 90.393 61.582 C 89.750 59.907, 88 59.392, 88 60.878 M 104.622 83.131 L 109.338 92.262 112.142 88.881 C 113.684 87.021, 114.958 85.004, 114.973 84.397 C 114.997 83.414, 101.860 74, 100.465 74 C 100.157 74, 102.028 78.109, 104.622 83.131 M 114.205 90.557 L 110.910 95.036 114.579 102.018 C 116.597 105.858, 118.579 109, 118.985 109 C 119.390 109, 125.522 108.105, 132.611 107.011 C 139.700 105.916, 145.948 105.016, 146.495 105.011 C 147.042 105.005, 141.086 100.725, 133.260 95.500 C 125.434 90.275, 118.687 86.018, 118.266 86.039 C 117.844 86.060, 116.017 88.093, 114.205 90.557 M 103.210 105 C 100.329 108.850, 98.454 112, 99.044 112 C 100.690 112, 114.460 109.827, 114.798 109.514 C 115.245 109.099, 109.672 98, 109.016 98 C 108.704 98, 106.091 101.150, 103.210 105 M 134.500 109.509 C 126.800 110.759, 120.348 111.832, 120.163 111.891 C 119.882 111.982, 127.705 127.013, 128.411 127.738 C 128.616 127.949, 166.184 120.388, 168.369 119.696 C 169.435 119.358, 150.779 106.953, 149.450 107.117 C 148.928 107.182, 142.200 108.258, 134.500 109.509 M 70.731 126.860 C 73.059 127.283, 75.150 127.825, 75.378 128.065 C 75.915 128.627, 86.108 177.226, 85.762 177.572 C 85.618 177.716, 80.229 173.596, 73.788 168.417 C 67.346 163.237, 61.824 159, 61.517 159 C 60.826 159, 28.950 181.300, 29.270 181.560 C 29.396 181.663, 58.075 181.494, 93 181.185 C 153.563 180.649, 156.191 180.551, 149.819 179.052 L 143.138 177.480 135.069 166.339 C 130.631 160.212, 127 154.977, 127 154.706 C 127 154.435, 130.150 152.060, 134 149.430 C 137.850 146.799, 141 144.345, 141 143.976 C 141 143.607, 136.387 140.225, 130.750 136.462 C 121.505 130.289, 120.745 129.557, 123 128.992 C 125.698 128.317, 109.393 127.328, 83 126.567 C 73.925 126.305, 68.404 126.437, 70.731 126.860" stroke="none" fill="black" fill-rule="evenodd"/>
</svg>