<svg xmlns="http://www.w3.org/2000/svg" width="200" height="200" viewBox="0 0 200 200" version="1.1">
	<path d="M 110.534 19.783 L 96.569 27.450 100.902 28.307 C 103.300 28.781, 104.848 29.543, 104.368 30.012 C 103.891 30.479, 96.975 36.503, 89 43.399 C 75.449 55.117, 74.225 55.940, 70.294 55.969 L 66.089 56 67.623 51.750 C 73.268 36.111, 78.108 21.780, 77.829 21.531 C 77.368 21.119, 29.675 54.909, 28.863 56.222 C 28.498 56.813, 27.884 62.124, 27.498 68.026 L 26.797 78.756 35.899 98.176 L 45 117.596 45 145.298 L 45 173 48.250 173.015 C 58.251 173.063, 84.013 175.445, 106.659 178.415 L 132.500 181.805 138.500 176.481 C 141.800 173.552, 147.371 168.530, 150.880 165.319 L 157.260 159.483 154.604 137.126 L 151.948 114.768 161.836 95.623 L 171.723 76.477 172.111 62.177 L 172.500 47.877 146.654 36.785 C 119.481 25.123, 119.054 25.030, 119.015 30.750 C 118.995 33.731, 117.937 33.587, 114.650 30.156 L 111.925 27.312 119.462 20.566 C 126.793 14.006, 128.320 11.939, 125.750 12.058 C 125.063 12.090, 118.215 15.566, 110.534 19.783 M 109.665 23.420 C 107.556 24.716, 106.296 26.065, 106.867 26.417 C 107.437 26.770, 109.388 25.708, 111.202 24.058 C 115.174 20.446, 114.774 20.280, 109.665 23.420 M 51.989 42.594 C 40.720 50.541, 31.391 57.596, 31.259 58.272 C 31.126 58.947, 30.626 63.550, 30.148 68.500 L 29.279 77.500 38.197 96.500 L 47.116 115.500 47.713 142.712 L 48.311 169.924 52.406 170.420 C 54.658 170.693, 61.675 171.189, 68 171.523 C 74.325 171.857, 91.200 173.644, 105.500 175.494 L 131.500 178.856 134.500 176.473 C 136.150 175.162, 141.289 170.559, 145.920 166.242 L 154.340 158.395 151.749 136.447 L 149.158 114.500 159.039 95 L 168.920 75.500 169.210 62.509 L 169.500 49.518 146 39.457 L 122.500 29.396 121.626 32.804 C 120.776 36.116, 120.984 36.450, 129.135 44.855 C 144.598 60.799, 147.383 63.950, 146.655 64.678 C 146.257 65.076, 140.152 59.636, 133.088 52.588 L 120.245 39.773 119.155 46.137 C 118.556 49.636, 117.769 54.413, 117.405 56.750 L 116.744 61 122.122 61.011 C 125.080 61.017, 129.238 61.309, 131.363 61.660 L 135.225 62.298 128.476 68.416 L 121.726 74.534 130.035 82.351 C 136.525 88.456, 138.034 90.373, 136.923 91.101 C 134.584 92.634, 117.290 102, 116.797 102 C 116.547 102, 115.252 99.670, 113.921 96.822 L 111.500 91.644 110.346 96.572 C 109.711 99.282, 109.149 102.737, 109.096 104.250 L 109 107 120.860 107 C 134.838 107, 142 107.824, 142 109.433 C 142 110.079, 136.227 112.124, 129 114.038 C 121.850 115.932, 115.991 117.936, 115.980 118.491 C 115.969 119.046, 112.819 125.323, 108.980 132.441 C 105.141 139.559, 102.045 145.859, 102.100 146.441 C 102.154 147.023, 105.285 150.313, 109.057 153.750 L 115.915 160 86.457 160 C 70.256 160, 57.022 159.662, 57.049 159.250 C 57.076 158.838, 64.026 153.550, 72.494 147.500 C 80.962 141.450, 87.904 136.275, 87.920 136 C 87.937 135.725, 79.637 131.082, 69.475 125.683 C 57.679 119.415, 51 115.306, 51 114.316 C 51 113.200, 51.629 112.933, 53.250 113.360 C 54.487 113.686, 63.185 115.806, 72.578 118.070 L 89.655 122.187 96.704 120.088 C 103.172 118.162, 103.804 117.732, 104.376 114.870 C 105.579 108.855, 105.807 109, 95.144 109 L 85.287 109 72.123 96.616 L 58.958 84.231 51.229 83.503 L 43.500 82.774 49.983 77.137 C 63.795 65.129, 65.589 63.207, 64.250 61.859 C 62.260 59.855, 62.744 57.355, 67.991 42.551 C 70.710 34.879, 72.832 28.499, 72.707 28.373 C 72.581 28.248, 63.258 34.647, 51.989 42.594 M 94.500 42.076 C 86.800 48.708, 80.073 54.554, 79.550 55.067 C 78.960 55.646, 80.752 56, 84.274 56 C 89.660 56, 90.034 55.835, 91.623 52.763 L 93.297 49.526 94.830 52.763 L 96.363 56 105.534 56 L 114.706 56 116.254 46.750 L 117.802 37.500 114.198 33.750 C 112.216 31.688, 110.123 30.004, 109.547 30.009 C 108.971 30.014, 102.200 35.444, 94.500 42.076 M 83.762 59.707 C 85.006 59.946, 86.806 59.937, 87.762 59.687 C 88.718 59.437, 87.700 59.241, 85.500 59.252 C 83.300 59.263, 82.518 59.468, 83.762 59.707 M 92.813 59.683 C 93.534 59.972, 94.397 59.936, 94.729 59.604 C 95.061 59.272, 94.471 59.036, 93.417 59.079 C 92.252 59.127, 92.015 59.364, 92.813 59.683 M 102.500 60.046 C 109.697 61.167, 114 61.150, 114 60 C 114 59.403, 110.672 59.054, 105.750 59.134 C 97.978 59.259, 97.789 59.312, 102.500 60.046 M 70.030 63.464 C 69.042 64.654, 69.757 66.665, 73.842 74.200 C 78.560 82.900, 78.931 83.319, 79.852 80.986 C 80.391 79.619, 82.221 75.176, 83.917 71.112 C 85.612 67.049, 87 63.337, 87 62.862 C 87 62.388, 83.455 62, 79.122 62 C 73.426 62, 70.908 62.405, 70.030 63.464 M 85.006 75.750 C 82.140 82.763, 79.439 88.880, 79.004 89.344 C 78.568 89.808, 76.252 89.321, 73.856 88.263 C 62.940 83.440, 63.015 84.348, 74.431 95.173 L 85.320 105.500 95.662 106 C 101.351 106.275, 106.004 106.331, 106.002 106.124 C 106.001 105.917, 106.716 101.546, 107.592 96.411 L 109.183 87.073 102.896 75.037 C 96.858 63.478, 96.481 63, 93.413 63 C 90.259 63, 90.151 63.164, 85.006 75.750 M 104.725 72.485 C 107.406 77.882, 109.711 81.438, 110.073 80.735 C 111.129 78.686, 113.083 64.943, 112.461 63.937 C 112.142 63.422, 109.211 63, 105.948 63 L 100.013 63 104.725 72.485 M 116 64.307 C 116 64.476, 115.084 69.539, 113.965 75.557 L 111.930 86.500 114.649 92.250 C 116.144 95.412, 117.756 98, 118.231 98 C 118.706 98, 122.468 96.149, 126.590 93.886 L 134.087 89.772 125.909 82.174 L 117.731 74.576 123.412 69.288 L 129.093 64 122.547 64 C 118.946 64, 116 64.138, 116 64.307 M 62.484 69.781 C 60.824 71.277, 57.224 74.410, 54.484 76.744 C 49.625 80.881, 49.570 80.987, 52.309 80.994 C 53.941 80.997, 54.857 80.578, 54.496 79.993 C 53.164 77.839, 56.965 78.010, 62.235 80.340 C 65.273 81.684, 69.667 83.106, 71.998 83.500 L 76.236 84.216 71.670 75.875 C 69.158 71.288, 66.743 67.428, 66.302 67.299 C 65.861 67.169, 64.143 68.286, 62.484 69.781 M 107.565 112.503 C 107.183 114.539, 107.062 116.395, 107.295 116.628 C 107.528 116.862, 113.295 115.497, 120.110 113.595 L 132.500 110.138 123.375 110.069 C 118.356 110.031, 112.902 109.730, 111.255 109.401 C 108.440 108.838, 108.218 109.025, 107.565 112.503 M 64 119.434 C 64 119.672, 70.077 123.078, 77.503 127.002 L 91.007 134.136 96.753 129.775 C 100.030 127.288, 102.634 124.490, 102.812 123.266 L 103.123 121.119 96.142 123.095 L 89.161 125.070 77.139 122.035 C 64.479 118.839, 64 118.744, 64 119.434 M 107.750 119.689 C 106.787 119.941, 106 120.799, 106 121.596 C 106 122.812, 106.403 122.782, 108.500 121.408 C 112.057 119.077, 111.856 118.616, 107.750 119.689 M 107.718 125.255 C 105.841 126.770, 104.738 128.800, 104.327 131.500 C 103.991 133.700, 103.927 135.275, 104.183 135 C 104.893 134.238, 111.054 122.999, 110.759 123.005 C 110.616 123.008, 109.248 124.020, 107.718 125.255 M 97.062 132.904 L 93.625 135.755 96.790 137.391 C 100.278 139.195, 99.905 139.645, 101.467 131.750 C 101.941 129.351, 101.073 129.579, 97.062 132.904 M 77.813 146.832 C 71.385 151.599, 65.798 155.838, 65.396 156.250 C 64.995 156.662, 74.512 157, 86.546 157 L 108.425 157 103.580 152.081 C 99.647 148.088, 98.830 146.669, 99.238 144.536 C 99.668 142.287, 99.188 141.627, 95.910 139.954 C 93.803 138.879, 91.499 138.037, 90.790 138.082 C 90.080 138.127, 84.241 142.065, 77.813 146.832" stroke="none" fill="black" fill-rule="evenodd"/>
</svg>