<svg xmlns="http://www.w3.org/2000/svg" width="200" height="200" viewBox="0 0 200 200" version="1.1">
	<path d="M 117 13.760 C 117 15.989, 112.995 62.479, 112.436 66.745 L 111.879 70.990 108.189 68.867 L 104.500 66.744 105.500 55.631 C 106.497 44.552, 106.509 44.515, 109.294 44.009 C 111.661 43.578, 108.925 41.922, 91.431 33.197 C 80.069 27.530, 70.570 23.097, 70.321 23.346 C 70.072 23.595, 70.348 28.101, 70.934 33.360 C 71.520 38.619, 72 44.550, 72 46.542 L 72 50.162 60.849 44.313 L 49.698 38.463 44.099 28.590 C 41.020 23.159, 38.050 18.873, 37.500 19.065 C 36.950 19.257, 30.998 26.214, 24.273 34.525 L 12.046 49.637 13.001 70.068 C 13.526 81.306, 13.966 107.037, 13.978 127.250 C 13.999 162.156, 14.092 164, 15.826 164 C 16.830 164, 25.042 161.828, 34.076 159.173 L 50.500 154.346 64.249 144.423 L 77.998 134.500 77.999 120.143 C 78 109.070, 78.286 105.895, 79.250 106.262 C 79.938 106.524, 86.457 108.874, 93.738 111.485 C 101.019 114.095, 106.812 116.516, 106.613 116.865 C 106.413 117.214, 105.929 126.612, 105.537 137.750 C 104.941 154.687, 105.051 158, 106.211 158 C 107.296 158, 107.991 153.175, 109.414 135.750 C 110.414 123.512, 111.394 113.323, 111.593 113.106 C 111.792 112.890, 115.830 116.265, 120.567 120.606 C 125.304 124.948, 130.779 129.877, 132.733 131.559 L 136.287 134.618 119.894 149.899 C 110.877 158.303, 103.392 165.476, 103.259 165.839 C 103.005 166.536, 146.732 184.098, 148.567 184.036 C 149.171 184.016, 151.274 174.357, 153.419 161.750 C 159.631 125.240, 158.258 129.228, 170.325 112.624 L 180.944 98.012 177.222 96.115 C 166.854 90.829, 151.887 84.557, 147 83.450 L 141.500 82.205 151.592 82.102 L 161.685 82 166.751 73.750 L 171.818 65.500 167.159 64.735 C 164.597 64.314, 156.327 63.414, 148.782 62.735 L 135.065 61.500 157.282 50.029 C 169.502 43.720, 178.825 38.435, 178 38.285 C 177.175 38.135, 168.457 37.379, 158.627 36.605 L 140.753 35.198 134.627 29.344 C 118.983 14.397, 117 12.644, 117 13.760 M 117.120 45.633 C 115.883 60.247, 115.013 72.330, 115.186 72.484 C 115.359 72.637, 118.243 74.138, 121.595 75.818 C 127.571 78.813, 128.008 78.876, 143.896 79.074 L 160.102 79.275 163.662 73.582 C 165.621 70.451, 167.060 67.738, 166.862 67.553 C 166.663 67.368, 157.390 66.415, 146.256 65.436 C 135.121 64.457, 126.259 63.408, 126.562 63.104 C 126.865 62.801, 136.875 57.490, 148.807 51.300 C 163.536 43.660, 169.635 40.039, 167.804 40.024 C 166.322 40.011, 159.347 39.519, 152.304 38.931 L 139.500 37.862 131 29.618 C 126.325 25.085, 121.795 20.854, 120.934 20.218 C 119.536 19.185, 119.127 21.914, 117.120 45.633 M 26.028 36.651 L 14.854 50.500 15.412 58.500 C 15.718 62.900, 16.268 87.771, 16.634 113.770 C 17.234 156.443, 17.454 160.995, 18.899 160.574 C 19.780 160.317, 26.934 158.267, 34.797 156.018 C 48.962 151.966, 49.214 151.843, 62.020 142.714 L 74.946 133.500 74.723 119.077 L 74.500 104.653 64 100.841 C 58.225 98.745, 53.235 97.023, 52.911 97.015 C 52.587 97.007, 50.646 104.763, 48.596 114.250 C 43.628 137.254, 43.137 139, 41.631 139 C 40.664 139, 39.826 132.661, 38.294 113.750 C 37.168 99.862, 36.332 88.398, 36.435 88.272 C 36.538 88.147, 40.869 89.551, 46.061 91.391 C 53.094 93.885, 58.025 94.917, 65.406 95.441 L 75.312 96.144 74.634 79.822 C 74.261 70.845, 73.691 61.215, 73.367 58.423 L 72.779 53.346 62.442 48.205 L 52.105 43.064 54.130 46.495 L 56.154 49.926 47.913 63.463 C 43.380 70.908, 39.382 77, 39.028 77 C 38.343 77, 35.778 32.888, 36.425 32.242 C 36.635 32.032, 38.704 32.829, 41.023 34.012 L 45.240 36.163 41.970 30.332 C 40.171 27.124, 38.363 24.118, 37.951 23.651 C 37.539 23.184, 32.174 29.034, 26.028 36.651 M 73.329 30.194 C 73.645 32.012, 74.202 37.587, 74.567 42.583 L 75.232 51.665 87.971 58.333 C 94.978 62, 100.962 65, 101.270 65 C 101.578 65, 102.115 61.513, 102.465 57.250 C 102.814 52.987, 103.328 48.419, 103.607 47.097 L 104.115 44.694 93.057 45.278 C 84.257 45.742, 82 45.591, 82 44.538 C 82 43.584, 84.812 42.974, 92.056 42.357 L 102.112 41.500 87.434 34.194 L 72.756 26.887 73.329 30.194 M 39.440 46.126 C 39.780 51.832, 40.308 59.341, 40.615 62.813 L 41.173 69.125 47.060 59.567 L 52.947 50.009 50.162 45.255 C 48.368 42.193, 45.854 39.655, 43.099 38.126 L 38.822 35.752 39.440 46.126 M 76.505 62.857 C 76.923 67.061, 77.544 76.350, 77.883 83.500 L 78.500 96.500 93.896 97.771 C 102.364 98.469, 109.406 98.919, 109.545 98.771 C 109.683 98.622, 110.120 94.579, 110.514 89.788 L 111.230 81.075 101.365 80.788 C 90.092 80.459, 88.412 78.962, 96 76.007 C 99.817 74.520, 100.547 73.790, 100.808 71.197 C 101.109 68.215, 100.803 67.980, 88.430 61.677 L 75.744 55.215 76.505 62.857 M 104 72.827 C 104 74.812, 103.308 76.028, 101.750 76.780 C 99.865 77.689, 100.513 77.876, 105.750 77.932 C 111.335 77.993, 112 77.789, 112 76.020 C 112 74.717, 110.632 73.343, 108 72 L 104 69.959 104 72.827 M 114.244 77.250 C 114.470 77.938, 115.970 78.623, 117.577 78.773 C 120.365 79.033, 120.411 78.975, 118.559 77.523 C 116.213 75.682, 113.676 75.522, 114.244 77.250 M 113.648 86.250 C 113.301 89.138, 113.013 93.179, 113.009 95.231 C 112.999 99.534, 113.047 99.555, 125.337 100.431 C 129.647 100.738, 133.592 101.248, 134.103 101.564 C 136.679 103.156, 132.813 104, 122.941 104 C 106.257 104, 106.087 103.683, 138.816 133.504 C 139.874 134.468, 137.036 137.594, 124.316 149.475 C 115.617 157.599, 108.385 164.535, 108.245 164.887 C 108.020 165.455, 142.383 179.428, 145.894 180.195 C 146.971 180.431, 148.341 174.484, 151.929 154 C 154.482 139.425, 156.980 126.825, 157.481 126 C 157.982 125.175, 162.354 119.039, 167.196 112.365 C 172.038 105.691, 176 99.822, 176 99.323 C 176 98.824, 170.262 95.857, 163.250 92.728 C 153.266 88.273, 147.375 86.385, 136.092 84.020 C 128.168 82.359, 120.018 81, 117.981 81 L 114.279 81 113.648 86.250 M 39.415 94.170 C 39.686 95.452, 40.421 103.475, 41.049 112 C 41.676 120.525, 42.305 127.621, 42.446 127.768 C 42.587 127.916, 43.463 124.541, 44.393 120.268 C 45.322 115.996, 46.918 108.774, 47.939 104.221 L 49.796 95.942 46.561 94.590 C 39.561 91.665, 38.876 91.625, 39.415 94.170 M 66 98.289 C 66 98.577, 68.025 99.502, 70.500 100.345 C 74.372 101.665, 75 101.678, 75 100.439 C 75 99.617, 74.035 98.994, 72.750 98.986 C 71.513 98.979, 69.487 98.701, 68.250 98.370 C 67.013 98.038, 66 98.002, 66 98.289 M 78 100.768 C 78 101.878, 78.787 103.103, 79.750 103.491 C 86.316 106.137, 106.392 113, 107.565 113 C 109.709 113, 109.298 110.621, 106.750 108.289 C 104.574 106.297, 103.489 105.847, 97.869 104.604 C 96.385 104.275, 95.010 103.146, 94.713 102.011 C 94.275 100.337, 93.355 100, 89.219 100 C 86.486 100, 82.844 99.719, 81.125 99.375 C 78.451 98.840, 78 99.041, 78 100.768 M 107.500 105 C 107.840 105.550, 108.316 106, 108.559 106 C 108.802 106, 109 105.550, 109 105 C 109 104.450, 108.523 104, 107.941 104 C 107.359 104, 107.160 104.450, 107.500 105" stroke="none" fill="black" fill-rule="evenodd"/>
</svg>