<svg xmlns="http://www.w3.org/2000/svg" width="200" height="200" viewBox="0 0 200 200" version="1.1">
	<path d="M 64.261 24.046 L 46.023 24.776 34.316 35.138 C 27.878 40.837, 20.213 47.750, 17.283 50.500 L 11.956 55.500 13.042 94 L 14.127 132.500 26.751 144.802 L 39.375 157.104 56.565 139.935 L 73.754 122.767 90.582 115.878 C 99.838 112.090, 106.980 109.374, 106.455 109.843 C 105.930 110.312, 94.996 119.177, 82.157 129.543 C 61.026 146.606, 58.986 148.517, 60.623 149.714 C 61.618 150.441, 75.213 158.745, 90.834 168.167 L 119.237 185.297 146.868 177.994 C 162.066 173.978, 174.644 170.579, 174.820 170.442 C 174.996 170.305, 170.817 156.888, 165.532 140.625 C 159.291 121.418, 155.324 110.701, 154.212 110.040 C 152.721 109.155, 153.238 108.344, 158.214 103.762 L 163.927 98.500 167.918 84.500 C 170.267 76.258, 173.174 62.274, 174.984 50.500 C 176.675 39.500, 178.321 29.038, 178.641 27.250 C 179.077 24.813, 178.861 24, 177.776 24 C 176.777 24, 171.429 37.594, 160.469 67.992 C 151.745 92.187, 144.293 111.474, 143.908 110.851 C 143.523 110.228, 142.641 104.632, 141.948 98.416 C 141.255 92.199, 140.408 86.661, 140.066 86.107 C 139.721 85.549, 129.784 84.546, 117.722 83.852 L 96 82.602 96 72.301 C 96 64.151, 96.292 62, 97.396 62 C 98.164 62, 110.544 64.424, 124.907 67.387 C 141.298 70.768, 151.252 72.402, 151.639 71.775 C 152.567 70.274, 151.187 69.700, 134.218 64.526 C 125.616 61.902, 107.371 55.299, 93.674 49.851 L 68.770 39.945 54.935 54.222 C 42.766 66.780, 41.215 68.078, 42.057 65 C 46.332 49.374, 49.305 39.395, 49.851 38.838 C 50.208 38.473, 60.553 37.612, 72.839 36.923 C 90.819 35.915, 95.331 35.917, 95.958 36.933 C 96.388 37.627, 102.893 39.665, 110.414 41.462 L 124.089 44.728 125.545 41.914 C 126.345 40.366, 127 38.852, 127 38.550 C 127 37.339, 124.645 38.103, 123.483 39.692 C 122.324 41.277, 121.734 41.266, 114.074 39.517 C 109.580 38.490, 105.715 37.348, 105.487 36.979 C 104.767 35.815, 117.966 34.095, 132.500 33.460 C 140.200 33.124, 147.296 32.624, 148.269 32.351 C 149.856 31.904, 149.781 32.537, 147.538 38.496 C 145.470 43.989, 145.307 45.084, 146.597 44.820 C 148.115 44.508, 154.456 30.081, 153.145 29.921 C 152.790 29.878, 149.575 29.850, 146 29.859 L 139.500 29.876 147.779 28.075 C 156.642 26.148, 157.566 25.725, 156.541 24.067 C 155.789 22.850, 94.456 22.836, 64.261 24.046 M 61.743 26.959 L 46.985 27.500 30.970 41.500 L 14.954 55.500 15.490 76.500 C 15.784 88.050, 16.345 105.375, 16.736 115 L 17.447 132.500 28.244 142.969 L 39.040 153.438 55.770 136.839 L 72.500 120.240 93.801 111.471 C 108.016 105.620, 115.436 103.036, 116.104 103.704 C 116.771 104.371, 108.354 111.774, 90.802 125.953 C 76.336 137.639, 64.369 147.548, 64.209 147.972 C 63.873 148.864, 118.974 182.360, 119.655 181.678 C 119.905 181.429, 116.880 171.029, 112.933 158.567 C 108.987 146.105, 105.928 135.739, 106.135 135.531 C 106.343 135.324, 113.260 134.399, 121.506 133.475 C 129.753 132.551, 136.803 131.504, 137.174 131.148 C 137.545 130.792, 138.776 128.041, 139.910 125.035 L 141.971 119.570 139.907 104.040 C 138.772 95.499, 137.692 88.359, 137.507 88.173 C 137.321 87.988, 130.719 87.443, 122.835 86.962 C 114.951 86.481, 105.463 85.840, 101.750 85.537 L 95 84.986 94.989 93.743 C 94.976 104.262, 94.136 110.010, 92.619 109.971 C 92.004 109.955, 89.060 104.443, 86.078 97.721 C 83.096 90.999, 80.396 85.205, 80.078 84.844 C 79.760 84.483, 73.414 83.872, 65.976 83.485 L 52.453 82.783 46.328 101.642 C 41.921 115.212, 39.737 120.594, 38.540 120.835 C 37.175 121.110, 36.974 120.574, 37.421 117.835 C 37.719 116.001, 38.668 107.075, 39.529 98 C 40.390 88.925, 41.299 80.898, 41.549 80.162 C 41.885 79.177, 43.090 79.008, 46.127 79.521 L 50.249 80.218 60.915 69.585 L 71.580 58.953 76.614 70.226 L 81.648 81.500 87.324 81.800 L 93 82.100 93.009 75.300 C 93.013 71.560, 93.293 66.209, 93.629 63.408 L 94.241 58.316 105.784 60.661 C 112.133 61.951, 117.471 62.863, 117.647 62.686 C 117.823 62.510, 107.062 58.055, 93.733 52.785 L 69.500 43.203 54.110 59.161 C 44.428 69.201, 38.369 74.769, 37.773 74.173 C 37.178 73.578, 38.782 66.327, 42.099 54.624 C 47.362 36.054, 47.376 36.020, 50.435 35.551 C 52.121 35.293, 67.225 34.335, 84 33.423 C 108.909 32.069, 116.975 31.255, 128 28.982 L 141.500 26.199 109 26.309 C 91.125 26.369, 69.859 26.662, 61.743 26.959 M 160.941 74.670 C 154.648 92.061, 149.317 106.788, 149.093 107.396 C 148.869 108.003, 151.530 106.001, 155.006 102.947 L 161.326 97.394 165.018 84.828 C 168.351 73.482, 173.802 44.469, 172.791 43.458 C 172.566 43.232, 167.233 57.278, 160.941 74.670 M 62.671 71.802 L 54.842 79.703 60.171 80.343 C 67.468 81.219, 78.007 81.164, 77.970 80.250 C 77.954 79.838, 76.266 75.990, 74.220 71.701 L 70.500 63.902 62.671 71.802 M 43.658 85.250 C 43.347 87.037, 42.851 92.325, 42.555 97 L 42.017 105.500 45.489 95 C 47.398 89.225, 48.969 83.938, 48.980 83.250 C 48.991 82.563, 47.925 82, 46.611 82 C 44.699 82, 44.110 82.648, 43.658 85.250 M 84 85.859 C 84 86.331, 85.775 90.493, 87.943 95.109 L 91.887 103.500 91.957 96.500 C 91.996 92.650, 92.299 88.487, 92.630 87.250 C 93.192 85.155, 92.916 85, 88.617 85 C 86.077 85, 84 85.386, 84 85.859 M 146.515 114.954 C 145.266 118.714, 145.037 121.606, 145.564 126.954 L 146.258 134 142.879 134.005 L 139.500 134.009 131.185 157.106 C 126.611 169.809, 123.111 180.444, 123.407 180.740 C 124.312 181.645, 171 168.727, 171 167.572 C 171 166.977, 167.149 154.568, 162.443 139.995 C 156.165 120.557, 153.302 113.040, 151.693 111.772 C 150.487 110.822, 149.199 110.034, 148.830 110.022 C 148.462 110.010, 147.420 112.229, 146.515 114.954 M 141.769 127.956 C 141.078 130.417, 141.491 131.842, 142.581 130.753 C 142.900 130.433, 143.004 129.121, 142.810 127.836 L 142.459 125.500 141.769 127.956 M 119 136.390 C 111.501 137.266, 109.553 137.816, 109.753 139 C 109.892 139.825, 112.592 148.516, 115.753 158.314 L 121.500 176.129 128.404 156.814 C 132.201 146.191, 135.512 136.938, 135.761 136.250 C 136.302 134.756, 132.726 134.786, 119 136.390" stroke="none" fill="black" fill-rule="evenodd"/>
</svg>