<svg xmlns="http://www.w3.org/2000/svg" width="200" height="200" viewBox="0 0 200 200" version="1.1">
	<path d="M 119 20.031 C 97.825 23.228, 79.060 26.072, 77.301 26.351 C 74.176 26.846, 74.086 26.754, 73.431 22.386 C 72.578 16.703, 70.375 17.066, 70.814 22.816 C 71.156 27.315, 70.671 27.652, 63 28.234 C 58.316 28.590, 23.398 27.060, 19.087 26.310 L 15.673 25.716 16.271 55.108 C 16.600 71.274, 16.545 96.425, 16.149 111 L 15.430 137.500 24.419 149.854 L 33.408 162.209 37.454 161.649 C 39.679 161.342, 47.729 160.316, 55.342 159.369 C 67.589 157.846, 69.273 157.409, 69.959 155.574 C 70.386 154.433, 72.654 144.275, 74.998 133 L 79.261 112.500 87.118 104.632 L 94.974 96.765 111.737 97.359 C 129.077 97.974, 131 98.105, 131 98.666 C 131 98.849, 129.765 101.211, 128.255 103.915 C 125.631 108.615, 125.281 108.859, 120.273 109.485 C 117.392 109.845, 107.970 112.500, 99.336 115.384 L 83.637 120.629 83.898 127.064 C 84.437 140.306, 87.751 186.084, 88.203 186.537 C 88.462 186.795, 97.135 182.462, 107.476 176.907 L 126.279 166.806 139.889 173.053 C 147.375 176.489, 156.728 180.780, 160.672 182.589 L 167.845 185.879 168.403 182.189 C 168.711 180.160, 169.911 168.375, 171.071 156 C 172.986 135.571, 173.071 131.797, 171.993 115 C 171.341 104.825, 170.610 96.297, 170.368 96.048 C 170.127 95.800, 163.817 95.350, 156.346 95.048 L 142.763 94.500 158.067 89.732 C 166.484 87.109, 173.602 84.732, 173.885 84.449 C 174.952 83.381, 177.853 22.503, 176.883 21.508 C 175.695 20.289, 176.821 18.534, 161.340 45.750 C 154.379 57.988, 148.396 68, 148.045 68 C 147.694 68, 146.144 59.788, 144.599 49.750 C 143.055 39.712, 141.555 30.038, 141.265 28.250 L 140.738 25 145.619 24.942 C 148.304 24.911, 152.241 24.573, 154.368 24.192 C 157.839 23.571, 158.428 23.012, 160.102 18.750 L 161.967 14 159.733 14.109 C 158.505 14.169, 140.175 16.834, 119 20.031 M 132.765 20.794 C 119.710 22.757, 109.216 24.550, 109.445 24.778 C 109.892 25.225, 150.042 22.193, 153.721 21.435 C 155.721 21.022, 159.167 16.843, 157.285 17.113 C 156.853 17.175, 145.819 18.831, 132.765 20.794 M 102.813 25.683 C 103.534 25.972, 104.397 25.936, 104.729 25.604 C 105.061 25.272, 104.471 25.036, 103.417 25.079 C 102.252 25.127, 102.015 25.364, 102.813 25.683 M 114 27.554 C 106.575 28.259, 99.910 28.873, 99.188 28.918 C 98.360 28.970, 99.070 30.663, 101.109 33.503 L 104.343 38.006 97.019 64.253 C 92.990 78.689, 89.486 91.287, 89.231 92.250 C 88.866 93.624, 89.396 94, 91.696 94 C 94.081 94, 96.404 92.187, 104.192 84.250 L 113.758 74.500 125.883 50.250 L 138.008 26 132.754 26.135 C 129.864 26.210, 121.425 26.848, 114 27.554 M 81.750 28.253 C 77.265 28.905, 75 29.683, 75 30.573 C 75 33.617, 80.161 63.501, 82.974 76.745 C 84.638 84.579, 86.027 91.329, 86.060 91.745 C 86.124 92.556, 99.536 45.387, 100.537 40.832 C 101.013 38.666, 100.287 36.950, 97.037 32.550 C 92.551 26.477, 93.033 26.613, 81.750 28.253 M 156.228 60.228 C 146.198 77.882, 138.142 92.475, 138.324 92.657 C 138.764 93.097, 170.316 83.006, 171.146 82.159 C 171.676 81.620, 175.058 28.921, 174.602 28.315 C 174.526 28.213, 166.257 42.574, 156.228 60.228 M 19.078 71.960 C 19.105 95.469, 18.836 119.608, 18.481 125.602 L 17.835 136.500 25.970 147.500 C 30.445 153.550, 34.495 158.638, 34.972 158.806 C 35.800 159.099, 67.277 155.139, 67.548 154.708 C 67.619 154.594, 69.769 144.600, 72.324 132.500 L 76.969 110.500 84.235 103.770 C 88.231 100.069, 90.802 97.031, 89.950 97.020 C 89.097 97.009, 87.841 97.559, 87.158 98.242 C 86.278 99.122, 85.710 99.165, 85.208 98.389 C 84.384 97.114, 56.041 95.486, 55.923 96.706 C 55.881 97.143, 54.641 107.400, 53.167 119.500 C 51.074 136.694, 50.176 141.500, 49.055 141.500 C 47.987 141.500, 46.429 135.634, 42.947 118.500 C 40.377 105.850, 38.448 95.189, 38.660 94.808 C 38.872 94.428, 42.224 93.803, 46.107 93.421 C 50.602 92.978, 53.358 92.232, 53.689 91.368 C 53.975 90.622, 50.785 81.451, 46.599 70.989 C 37.866 49.159, 38.098 49.897, 39.762 49.288 C 40.564 48.994, 43.019 52.954, 46.503 60.163 C 49.516 66.398, 51.986 71.050, 51.991 70.500 C 51.996 69.950, 50.875 60.995, 49.500 50.599 C 48.125 40.204, 47 31.561, 47 31.394 C 47 30.771, 40.171 30.082, 29.765 29.656 L 19.031 29.217 19.078 71.960 M 59.579 31.618 C 54.673 32.382, 50.524 33.142, 50.360 33.306 C 50.196 33.470, 51.409 43.872, 53.055 56.421 C 55.188 72.686, 55.744 79.604, 54.990 80.513 C 54.234 81.422, 54.361 82.893, 55.433 85.644 C 56.259 87.765, 56.837 90.400, 56.717 91.500 C 56.511 93.401, 57.175 93.514, 70.151 93.778 L 83.802 94.055 80.861 80.278 C 78.481 69.125, 72 32.760, 72 30.555 C 72 29.814, 70.122 29.974, 59.579 31.618 M 127.460 53.293 C 116.757 74.978, 116.294 75.714, 107.714 84.599 L 98.928 93.698 107.214 94.343 C 111.771 94.698, 118.959 94.991, 123.187 94.994 L 130.874 95 137.895 82.250 L 144.917 69.500 141.903 50.528 C 140.245 40.093, 138.784 31.450, 138.655 31.321 C 138.526 31.192, 133.488 41.080, 127.460 53.293 M 42.450 97.081 C 41.890 97.988, 48.005 132.341, 48.615 131.712 C 48.800 131.520, 53 97.842, 53 96.547 C 53 95.505, 43.115 96.005, 42.450 97.081 M 131.750 103.014 C 130.001 106.187, 129.455 107.994, 130.250 107.985 C 130.938 107.976, 136.900 107.123, 143.500 106.088 C 150.100 105.053, 155.661 104.359, 155.858 104.544 C 156.176 104.845, 144.493 161.678, 143.487 164.724 C 143.205 165.577, 136.776 163.806, 122.291 158.885 C 110.856 155, 101.419 151.742, 101.319 151.646 C 101.220 151.550, 106.046 142.928, 112.043 132.486 C 118.040 122.044, 122.959 113.162, 122.974 112.750 C 122.988 112.338, 122.065 112, 120.922 112 C 118.657 112, 87.892 121.811, 86.876 122.857 C 86.533 123.211, 87.076 135.200, 88.082 149.500 C 89.088 163.800, 89.932 177.209, 89.956 179.298 L 90 183.097 103.250 176.002 C 110.537 172.100, 118.756 167.761, 121.514 166.361 L 126.528 163.815 146.014 172.790 C 156.731 177.726, 165.593 181.481, 165.707 181.133 C 165.820 180.785, 166.880 170.375, 168.062 158 C 170.151 136.119, 170.238 118.175, 168.330 102.750 L 167.742 98 151.121 98.014 L 134.500 98.029 131.750 103.014 M 137.007 109.692 C 131.785 110.496, 127.435 111.232, 127.339 111.327 C 127.243 111.423, 122.194 120.184, 116.117 130.795 C 109.037 143.159, 105.506 150.253, 106.285 150.544 C 116.952 154.538, 140.565 161.808, 141.044 161.246 C 141.393 160.836, 143.599 151.275, 145.947 140 C 148.294 128.725, 150.801 116.912, 151.518 113.750 L 152.823 108 149.661 108.116 C 147.923 108.179, 142.228 108.889, 137.007 109.692" stroke="none" fill="black" fill-rule="evenodd"/>
</svg>