<svg xmlns="http://www.w3.org/2000/svg" width="200" height="200" viewBox="0 0 200 200" version="1.1">
	<path d="M 101.461 15.165 C 102.460 20.878, 106.992 55.402, 106.996 57.332 C 106.999 58.612, 103.788 56.230, 96.346 49.429 L 85.691 39.693 63.596 40.308 C 44.727 40.833, 40.587 41.233, 35.250 43.053 C 31.813 44.225, 29 45.749, 29 46.441 C 29 47.760, 41.074 48.927, 56 49.052 C 60.125 49.087, 65.113 49.427, 67.084 49.808 L 70.669 50.500 51.907 67.500 C 37.526 80.530, 31.924 86.320, 27.917 92.295 C 24.792 96.953, 23.054 100.454, 23.595 100.995 C 24.137 101.537, 34.065 96.847, 48.271 89.338 L 72.041 76.775 74.979 79.137 C 76.595 80.437, 80.421 83.475, 83.480 85.888 L 89.043 90.276 99.118 83.568 C 104.660 79.879, 109.364 77.030, 109.571 77.238 C 109.858 77.525, 113 98.069, 113 99.658 C 113 99.828, 101 100.087, 86.333 100.234 C 67.657 100.420, 59.553 100.838, 59.291 101.627 C 58.529 103.914, 63.107 104.401, 90.422 104.945 L 118.344 105.500 104.921 114.176 L 91.498 122.852 75.391 126.902 C 59.999 130.772, 58.250 130.995, 36.015 131.936 C 23.218 132.477, 12.496 133.170, 12.190 133.477 C 10.527 135.139, 15.559 135.921, 35 137.019 L 56.500 138.234 70.500 143.680 C 78.200 146.674, 84.839 149.458, 85.254 149.866 C 85.668 150.274, 79.890 154.795, 72.413 159.913 C 64.936 165.031, 59.197 169.584, 59.659 170.030 C 60.554 170.894, 104.033 186, 105.624 186 C 106.141 186, 108.302 175.425, 110.426 162.500 L 114.287 139 136.251 139 L 158.216 139 170.608 132.344 C 182.375 126.023, 184.048 124.766, 182.207 123.628 C 181.771 123.359, 172.282 125.133, 161.120 127.571 L 140.826 132.004 132.092 127.494 C 118.133 120.284, 117.606 121.657, 138.030 112.026 C 147.913 107.365, 156 103.273, 156 102.932 C 156 102.591, 148.544 95.830, 139.432 87.906 C 130.319 79.983, 121.509 72.313, 119.854 70.862 L 116.845 68.225 118.943 64.112 C 120.097 61.851, 121.369 60.026, 121.770 60.058 C 122.172 60.090, 129.866 69.313, 138.869 80.554 L 155.238 100.993 157.557 99.247 C 166.746 92.326, 187.930 75.398, 187.962 74.951 C 187.983 74.650, 181.588 72.441, 173.750 70.043 C 165.912 67.646, 155.442 64.422, 150.482 62.879 L 141.464 60.075 138.204 54.399 C 136.411 51.277, 135.218 48.448, 135.554 48.111 C 135.889 47.775, 147.489 47.275, 161.332 47 C 175.174 46.725, 186.407 46.137, 186.292 45.694 C 186.032 44.682, 154.969 21, 153.902 21 C 150.877 21, 153.865 23.955, 166.112 33.071 C 182.140 45.002, 182.685 43.752, 161.249 44.228 C 153.266 44.405, 148.998 44.138, 148.999 43.461 C 148.999 42.889, 141.010 40.459, 131.244 38.060 L 113.487 33.698 108.816 23.099 C 105.997 16.703, 103.497 12.367, 102.511 12.165 C 101.173 11.890, 100.983 12.433, 101.461 15.165 M 106.105 26.500 C 106.076 27.600, 107.098 36.070, 108.376 45.323 C 110.280 59.098, 111.078 62.523, 112.785 64.229 L 114.868 66.313 117.642 60.656 C 119.168 57.545, 120.726 55, 121.104 55 C 121.482 55, 128.874 63.888, 137.530 74.750 C 146.187 85.612, 153.854 95.129, 154.568 95.897 C 155.662 97.075, 157.880 95.687, 168.683 87.063 C 175.732 81.436, 181.621 76.506, 181.769 76.108 C 181.918 75.710, 172.549 72.515, 160.950 69.008 L 139.861 62.633 134.930 54.286 C 132.219 49.695, 130 45.746, 130 45.511 C 130 45.276, 133.488 44.953, 137.750 44.792 L 145.500 44.500 129.085 40.532 C 120.057 38.349, 112.264 36.099, 111.768 35.532 C 111.271 34.964, 109.806 32.250, 108.511 29.500 C 107.080 26.458, 106.137 25.283, 106.105 26.500 M 41.500 43.713 C 36.563 44.901, 38.027 46, 44.550 46.004 C 57.395 46.012, 77.065 47.304, 76.781 48.122 C 76.627 48.568, 67.087 57.504, 55.582 67.979 C 44.077 78.454, 33.130 89.304, 31.254 92.090 L 27.843 97.155 37.671 91.903 C 43.077 89.014, 52.815 83.805, 59.312 80.326 C 65.808 76.847, 71.595 74, 72.170 74 C 72.746 74, 76.755 76.927, 81.078 80.504 L 88.940 87.008 98.970 80.520 C 108.403 74.418, 108.994 73.837, 108.900 70.766 C 108.718 64.799, 107.580 63.196, 96.327 53.062 L 85.154 43 64.327 43.116 C 52.872 43.180, 42.600 43.448, 41.500 43.713 M 111.731 69.080 C 112.085 70.432, 112.538 70.886, 112.788 70.137 C 113.028 69.415, 112.750 68.350, 112.168 67.768 C 111.426 67.026, 111.296 67.417, 111.731 69.080 M 113.997 73.506 C 112.688 75.951, 113.071 81.757, 115.693 99.250 L 116.256 103 121.373 103 L 126.491 103 109.496 114.325 L 92.500 125.651 75.771 129.825 C 63.583 132.867, 56.796 134.036, 50.771 134.133 L 42.500 134.266 50.724 135.128 C 57.173 135.804, 62.247 137.307, 74.224 142.088 C 82.626 145.441, 90.096 148.517, 90.824 148.924 C 91.709 149.418, 87.649 152.753, 78.574 158.986 C 71.108 164.113, 65.005 168.577, 65.011 168.904 C 65.017 169.232, 73.795 172.492, 84.517 176.149 C 103.460 182.609, 104.027 182.736, 104.499 180.649 C 104.767 179.467, 106.347 170.175, 108.010 160 C 109.674 149.825, 111.297 140.219, 111.618 138.654 L 112.201 135.809 134.350 136.445 L 156.500 137.080 164.500 132.512 C 168.900 129.999, 171.282 128.225, 169.793 128.569 C 168.304 128.914, 161.104 130.461, 153.793 132.008 L 140.500 134.820 129 128.956 C 111.455 120.009, 111.095 121.818, 132.459 111.587 C 142.656 106.703, 151 102.422, 151 102.073 C 151 101.725, 147.535 98.528, 143.300 94.970 C 139.065 91.411, 131.207 84.563, 125.837 79.750 C 120.467 74.938, 115.908 71, 115.706 71 C 115.503 71, 114.734 72.128, 113.997 73.506" stroke="none" fill="black" fill-rule="evenodd"/>
</svg>