<svg xmlns="http://www.w3.org/2000/svg" width="200" height="200" viewBox="0 0 200 200" version="1.1">
	<path d="M 94.362 19.547 C 94.765 20.621, 98.951 31.534, 103.665 43.799 C 108.379 56.063, 112.067 66.266, 111.860 66.473 C 111.654 66.679, 101.904 66.111, 90.195 65.211 L 68.905 63.573 69.203 60.536 L 69.500 57.500 81.250 57.218 C 96.325 56.857, 97.101 55.226, 83.750 51.964 C 70.419 48.708, 70.166 48.584, 70.733 45.619 C 71.151 43.429, 72.463 42.678, 80.608 39.964 C 86.860 37.881, 90 36.337, 90 35.346 C 90 34.134, 89.019 33.975, 84.750 34.494 C 81.862 34.844, 69.410 36.347, 57.077 37.833 C 42.705 39.565, 34.512 40.965, 34.256 41.731 C 34.037 42.388, 34.902 43.119, 36.179 43.355 C 37.456 43.591, 44.912 45.273, 52.750 47.092 C 64.456 49.809, 67 50.715, 67 52.166 C 67 53.727, 65.753 53.965, 56.263 54.216 L 45.526 54.500 40.305 72.362 L 35.083 90.224 43.130 109.508 L 51.176 128.792 56.486 129.455 C 68.577 130.966, 69.478 129.209, 44.997 151.867 C 32.899 163.064, 23 172.558, 23 172.965 C 23 173.371, 26.641 173.984, 31.092 174.328 L 39.184 174.952 59.987 161.985 C 71.428 154.853, 81.438 148.769, 82.231 148.465 C 83.395 148.018, 84.293 151.718, 86.900 167.706 C 88.674 178.593, 90.436 188.495, 90.813 189.711 C 91.381 191.540, 93.551 188.469, 103.381 171.922 L 115.262 151.922 116.140 142.711 C 116.623 137.645, 117.127 132.632, 117.259 131.571 C 117.405 130.399, 123.532 139.541, 132.861 154.853 L 148.222 180.066 153.361 177.187 C 156.187 175.604, 165.399 170.586, 173.832 166.037 C 182.265 161.487, 188.790 157.426, 188.332 157.013 C 187.874 156.599, 177.150 151.669, 164.500 146.057 C 141.799 135.985, 141.405 135.758, 134.200 128.618 L 126.900 121.384 142.700 116.044 C 151.390 113.108, 159.175 110.354, 160 109.927 C 161.207 109.301, 161.806 104.196, 163.067 83.824 C 163.929 69.896, 164.577 58.399, 164.508 58.275 C 164.439 58.151, 155.550 57.744, 144.753 57.370 L 125.123 56.690 127.578 51.845 C 129.339 48.371, 130.628 47, 132.132 47 C 135.352 47, 178.199 42.981, 180.750 42.439 C 186.475 41.224, 182.438 39.217, 165.250 34.733 C 148.564 30.379, 146.481 30.064, 130.500 29.486 C 111.830 28.810, 114.024 29.440, 98.065 20.169 C 94.039 17.831, 93.697 17.773, 94.362 19.547 M 100.780 28.659 C 101.793 31.322, 105.519 41.025, 109.061 50.222 L 115.500 66.945 119.864 67.603 C 122.975 68.072, 125.221 67.788, 127.683 66.614 C 131.387 64.848, 133.248 65.191, 132.369 67.480 C 131.947 68.582, 133.119 68.962, 137.663 69.198 L 143.500 69.500 132.766 75.500 C 125.145 79.760, 122.027 82.040, 122.016 83.364 C 122.002 85.002, 122.534 85.147, 126.417 84.565 C 131.698 83.773, 131.574 83.515, 132.453 97 C 132.793 102.225, 133.332 108.412, 133.649 110.750 C 134.113 114.159, 133.923 115, 132.689 115 C 131.638 115, 129.488 110.704, 125.904 101.441 L 120.658 87.882 117.079 88.429 C 115.111 88.730, 108.221 89.680, 101.769 90.541 L 90.039 92.106 76.444 100.178 C 67.917 105.241, 62.498 107.898, 61.906 107.306 C 61.313 106.713, 63.671 103.506, 68.231 98.699 L 75.500 91.037 82.500 90.131 C 88.571 89.346, 91.187 88.248, 102.213 81.863 C 109.204 77.813, 114.935 74.050, 114.947 73.500 C 115.015 70.434, 112.815 69.857, 95.493 68.402 C 72.689 66.487, 72.149 66.562, 78.250 70.798 C 82.535 73.773, 84.252 76.005, 82.250 75.997 C 81.838 75.995, 78.831 74.219, 75.568 72.050 C 72.306 69.881, 69.312 68.307, 68.915 68.553 C 68.517 68.798, 67.870 73.724, 67.477 79.500 C 66.937 87.417, 66.422 90, 65.381 90 C 63.724 90, 63.703 89.108, 65.048 76.001 C 66.010 66.627, 65.948 65.679, 64.298 64.427 C 62.711 63.223, 62.693 63.060, 64.142 63.032 C 65.599 63.004, 67.709 58.375, 66.716 57.383 C 66.507 57.173, 62.244 56.712, 57.244 56.357 L 48.152 55.711 45.576 64.356 C 44.159 69.110, 41.861 76.822, 40.470 81.493 L 37.940 89.986 45.304 107.730 C 53.580 127.669, 51.732 125.824, 65.843 128.242 L 73.186 129.500 51.041 149.969 C 27.758 171.491, 27.576 171.751, 35.678 171.930 C 38.106 171.983, 44.332 168.569, 62.058 157.464 C 74.819 149.468, 85.360 143.056, 85.481 143.214 C 85.603 143.371, 87.225 152.603, 89.087 163.728 C 91.577 178.607, 92.760 183.631, 93.561 182.728 C 94.160 182.053, 98.741 174.525, 103.741 166 L 112.832 150.500 114.068 136.097 C 115.160 123.359, 115.464 121.914, 116.700 123.597 C 117.468 124.644, 124.663 136.300, 132.688 149.500 C 140.713 162.700, 147.808 174.075, 148.453 174.778 C 149.391 175.798, 152.838 174.317, 165.564 167.423 C 174.329 162.674, 181.849 158.465, 182.276 158.069 C 182.702 157.673, 173.230 152.982, 161.226 147.646 L 139.401 137.942 130.613 129.113 L 121.825 120.285 140.406 113.892 C 158.908 107.527, 158.987 107.487, 159.047 104.500 C 159.080 102.850, 159.696 92.500, 160.415 81.500 C 161.135 70.500, 161.535 61.163, 161.303 60.750 C 161.071 60.337, 151.909 60, 140.941 60 C 128.788 60, 121 59.623, 121 59.034 C 121 58.503, 122.600 55.159, 124.555 51.602 C 127.283 46.639, 128.736 45.015, 130.805 44.617 C 132.287 44.333, 142.387 43.318, 153.250 42.362 C 164.113 41.407, 173 40.369, 173 40.057 C 173 39.745, 167.262 38.020, 160.250 36.224 C 149.136 33.378, 145.255 32.880, 130 32.344 C 120.375 32.005, 112.050 31.411, 111.500 31.023 C 110.950 30.635, 107.899 28.855, 104.720 27.068 L 98.939 23.818 100.780 28.659 M 60.500 40.082 C 57.200 40.542, 52.475 41.226, 50 41.602 L 45.500 42.284 54.500 44.594 C 59.450 45.864, 64.513 47.159, 65.750 47.471 C 67.746 47.974, 68 47.663, 68 44.712 C 68 42.014, 68.519 41.181, 70.750 40.299 L 73.500 39.213 70 39.228 C 68.075 39.237, 63.800 39.621, 60.500 40.082 M 70 52.581 C 70 53.618, 71.277 53.979, 74.750 53.921 C 79.779 53.837, 79.697 53.691, 73.750 52.140 C 70.718 51.349, 70 51.433, 70 52.581 M 117 71 C 117 71.550, 117.648 72, 118.441 72 C 119.234 72, 120.160 71.550, 120.500 71 C 120.840 70.450, 120.191 70, 119.059 70 C 117.927 70, 117 70.450, 117 71 M 127.807 72.750 C 124.673 76.399, 125.095 76.806, 129.476 74.357 C 131.964 72.967, 134 71.642, 134 71.415 C 134 70.196, 129.092 71.254, 127.807 72.750 M 121.015 73.954 C 119.648 75.004, 118.874 76.208, 119.295 76.629 C 119.716 77.050, 121.274 76.180, 122.758 74.697 C 125.852 71.602, 124.709 71.115, 121.015 73.954 M 106.788 82.214 C 101.996 85.072, 98.213 87.546, 98.379 87.713 C 98.546 87.880, 103.254 87.480, 108.841 86.824 C 118.373 85.706, 120.441 84.774, 118.250 82.583 C 117.501 81.834, 117.360 81.324, 117.125 78.500 C 116.942 76.302, 116.339 76.519, 106.788 82.214 M 124.575 87.879 C 123.971 88.856, 129.042 103.291, 129.743 102.590 C 129.986 102.347, 129.865 98.740, 129.475 94.574 C 128.875 88.171, 128.483 87, 126.942 87 C 125.939 87, 124.874 87.396, 124.575 87.879 M 74.235 96.607 L 70.500 100.214 75.500 97.474 C 81.971 93.928, 82.943 93, 80.185 93 C 78.967 93, 76.290 94.623, 74.235 96.607" stroke="none" fill="black" fill-rule="evenodd"/>
</svg>