<svg xmlns="http://www.w3.org/2000/svg" width="200" height="200" viewBox="0 0 200 200" version="1.1">
	<path d="M 73.372 19.863 C 73.753 30.938, 73.938 40.002, 73.782 40.004 C 71.124 40.043, 34.649 45.099, 33.962 45.524 C 33.433 45.851, 33 47.180, 33 48.477 C 33 50.636, 33.785 51.012, 42.250 52.914 C 47.337 54.056, 54.200 55.610, 57.500 56.365 C 60.800 57.120, 63.402 58.204, 63.282 58.774 C 63.162 59.344, 58.070 67.384, 51.967 76.640 C 43.253 89.857, 38.063 96.437, 27.794 107.293 C 18.752 116.851, 15.037 121.437, 15.755 122.155 C 16.473 122.873, 21.412 120.695, 31.761 115.097 C 39.992 110.644, 47.164 107, 47.698 107 C 48.232 107, 49.943 111.315, 51.500 116.589 L 54.332 126.177 52.513 150.102 C 51.512 163.261, 50.875 174.191, 51.097 174.392 C 51.863 175.086, 78.391 185.943, 78.660 185.673 C 78.809 185.524, 79.586 176.032, 80.387 164.579 C 81.189 153.126, 82.217 143.431, 82.672 143.034 C 83.127 142.637, 90.250 141.119, 98.500 139.661 L 113.500 137.010 116.290 140.255 C 117.825 142.040, 121.075 146.034, 123.513 149.131 L 127.945 154.761 118.787 159.179 L 109.629 163.598 126.256 176.299 C 135.401 183.284, 143.257 189, 143.714 189 C 144.171 189, 148.541 180.967, 153.426 171.148 L 162.308 153.297 161.105 131.898 C 159.994 112.144, 160.059 109.085, 161.954 92.087 C 163.084 81.960, 163.869 73.535, 163.699 73.366 C 163.530 73.196, 157.377 72.100, 150.027 70.930 C 139.384 69.235, 135.629 69.007, 131.582 69.810 C 128.787 70.365, 126.450 70.747, 126.388 70.659 C 126.327 70.572, 123.478 66.699, 120.056 62.052 C 113.919 53.718, 113.867 53.592, 116.168 52.670 C 119.286 51.420, 131.034 51.316, 150.755 52.364 L 167.010 53.228 171.535 43.478 C 174.024 38.115, 175.816 33.483, 175.517 33.184 C 175.219 32.885, 167.667 34.941, 158.737 37.753 C 145.891 41.798, 139.576 43.201, 128.500 44.475 C 120.800 45.360, 113.305 46.316, 111.845 46.600 C 109.692 47.019, 108.698 46.471, 106.583 43.698 L 103.976 40.280 106.488 29.648 C 109.393 17.352, 109.427 17, 107.711 17 C 106.970 17, 105.145 20.901, 103.423 26.168 L 100.425 35.335 87.626 17.918 C 80.587 8.338, 74.345 0.326, 73.754 0.113 C 72.997 -0.159, 72.884 5.667, 73.372 19.863 M 76.144 24.496 L 76.500 42.491 56.500 44.900 C 45.500 46.224, 36.313 47.464, 36.083 47.654 C 35.144 48.434, 37.219 49.030, 51.528 52.091 C 59.762 53.852, 66.893 55.643, 67.373 56.070 C 68.757 57.301, 43.627 94.660, 36.141 102.500 C 21.918 117.395, 21.942 117.116, 35.500 109.999 C 42.100 106.534, 48.034 103.285, 48.686 102.780 C 49.756 101.952, 51.844 107.597, 56.658 124.327 C 56.947 125.332, 56.385 136.463, 55.409 149.061 C 54.433 161.660, 53.860 172.194, 54.137 172.470 C 54.413 172.747, 59.463 174.994, 65.360 177.464 C 72.733 180.553, 76.195 181.572, 76.450 180.728 C 76.653 180.052, 77.340 170.950, 77.975 160.500 C 78.610 150.050, 79.438 141.201, 79.815 140.836 C 80.192 140.471, 84.994 139.343, 90.487 138.330 L 100.473 136.488 87.737 126.114 C 80.732 120.408, 75 115.308, 75 114.780 C 75 114.251, 78.164 104.052, 82.031 92.114 L 89.061 70.408 86.984 63.684 C 85.842 59.985, 85.147 56.570, 85.441 56.095 C 85.735 55.620, 87.922 54.939, 90.302 54.582 L 94.628 53.933 96.814 47.146 C 98.016 43.413, 99 39.806, 99 39.130 C 99 38.224, 79.369 10.519, 76.233 7 C 75.988 6.725, 75.948 14.598, 76.144 24.496 M 156 41.474 C 147.732 44.131, 139.474 46.084, 134.693 46.515 C 130.398 46.902, 127.160 47.493, 127.496 47.829 C 127.831 48.165, 136.476 48.904, 146.706 49.473 L 165.305 50.506 168.153 44.160 C 169.719 40.669, 171 37.631, 171 37.407 C 171 36.711, 169.881 37.015, 156 41.474 M 103 46 C 103 47.867, 103.267 48.133, 104.200 47.200 C 105.133 46.267, 105.133 45.733, 104.200 44.800 C 103.267 43.867, 103 44.133, 103 46 M 119.750 48.662 C 120.438 48.940, 121.563 48.940, 122.250 48.662 C 122.938 48.385, 122.375 48.158, 121 48.158 C 119.625 48.158, 119.063 48.385, 119.750 48.662 M 111.397 49.833 C 111.884 50.621, 118 50.208, 118 49.387 C 118 49.174, 116.398 49, 114.441 49 C 112.484 49, 111.114 49.375, 111.397 49.833 M 100.250 50.706 C 99.013 50.944, 98 51.597, 98 52.157 C 98 53.350, 105.979 52.286, 107.450 50.897 C 108.420 49.982, 104.545 49.879, 100.250 50.706 M 101.590 55.325 L 96.680 56.500 94.289 63.500 C 92.288 69.358, 92.069 71.092, 92.953 74.129 L 94.008 77.758 108.254 74.758 C 116.089 73.108, 122.676 71.599, 122.890 71.406 C 123.105 71.212, 120.573 67.329, 117.264 62.777 C 110.645 53.672, 109.926 53.330, 101.590 55.325 M 89.395 57.765 C 88.593 58.299, 88.615 59.449, 89.473 61.965 L 90.655 65.429 91.827 62.065 C 92.472 60.215, 93 58.319, 93 57.851 C 93 56.812, 90.903 56.762, 89.395 57.765 M 130.750 72.689 C 128.422 73.298, 128.542 74.214, 131.349 77.242 C 132.641 78.636, 134.416 82.628, 135.294 86.113 C 136.893 92.463, 136.737 93.185, 133.521 94.310 C 132.924 94.519, 133.607 101.428, 135.272 112.025 C 136.774 121.580, 137.665 129.692, 137.251 130.053 C 136.838 130.414, 131.794 131.468, 126.041 132.397 C 120.289 133.325, 115.493 134.178, 115.384 134.292 C 115.275 134.406, 118.093 138.100, 121.647 142.500 C 125.200 146.900, 129.021 151.749, 130.139 153.275 L 132.172 156.050 123.481 160.065 L 114.791 164.080 125.146 172.048 C 138.025 181.959, 142.931 185.411, 143.405 184.899 C 143.608 184.679, 147.333 177.300, 151.682 168.500 L 159.590 152.500 158.337 132.500 C 157.187 114.155, 157.248 110.978, 159.065 94.107 C 160.155 83.990, 160.924 75.618, 160.773 75.502 C 160.623 75.386, 155.550 74.548, 149.500 73.640 C 138.670 72.014, 134.201 71.788, 130.750 72.689 M 108.003 77.505 C 99.479 79.339, 92.413 80.746, 92.300 80.633 C 92.186 80.520, 91.677 79.318, 91.169 77.963 C 90.382 75.867, 89.317 78.378, 84.012 94.840 C 79.964 107.404, 78.122 114.522, 78.756 115.156 C 79.292 115.692, 84.587 120.069, 90.523 124.882 L 101.314 133.634 117.775 130.866 C 126.828 129.344, 134.390 127.943, 134.579 127.754 C 134.768 127.565, 133.826 120.680, 132.485 112.455 C 131.144 104.230, 130.036 97.195, 130.024 96.821 C 130.011 96.448, 124.346 98.827, 117.437 102.108 L 104.873 108.072 96.937 103.844 C 92.571 101.518, 89.004 99.364, 89.008 99.057 C 89.017 98.402, 128.371 82, 129.935 82 C 130.521 82, 131.045 83.237, 131.100 84.750 C 131.155 86.263, 131.598 88.625, 132.086 90 C 132.744 91.856, 132.849 91.257, 132.495 87.676 C 132.009 82.759, 126.853 73.905, 124.580 74.086 C 123.986 74.133, 116.526 75.672, 108.003 77.505 M 110.755 92.399 C 102.646 95.841, 95.781 98.886, 95.500 99.166 C 95.220 99.447, 97.194 100.876, 99.887 102.342 L 104.784 105.007 116.942 99.323 L 129.099 93.640 128.800 90.078 C 128.610 87.821, 127.950 86.448, 127 86.330 C 126.175 86.227, 118.865 88.958, 110.755 92.399" stroke="none" fill="black" fill-rule="evenodd"/>
</svg>