<svg xmlns="http://www.w3.org/2000/svg" width="200" height="200" viewBox="0 0 200 200" version="1.1">
	<path d="M 95.602 21.183 C 96.370 25.207, 96.998 28.809, 96.999 29.187 C 96.999 29.564, 93.063 28.541, 88.250 26.913 C 83.438 25.285, 79.021 24.077, 78.436 24.227 C 77.851 24.377, 67.656 34.650, 55.779 47.056 L 34.185 69.613 31.518 78.167 L 28.851 86.722 38.814 106.629 L 48.778 126.537 49.514 156.052 L 50.250 185.567 74.875 181.214 C 98.935 176.960, 99.856 176.874, 115 177.455 C 123.525 177.781, 134.662 178.329, 139.750 178.672 L 149 179.295 149 148.214 L 149 117.133 146.600 116.816 C 144.358 116.521, 145.103 115.144, 157.862 96 C 174.963 70.340, 186.410 52.077, 185.785 51.452 C 185.521 51.188, 172.608 48.069, 157.089 44.520 L 128.873 38.069 112.809 26.454 C 103.973 20.066, 96.173 14.620, 95.475 14.352 C 94.468 13.965, 94.494 15.371, 95.602 21.183 M 98.401 21.911 C 98.730 23.610, 99.260 26.347, 99.578 27.993 C 100.122 30.810, 100.778 31.182, 110.760 34.332 L 121.364 37.679 123.451 45.431 C 125.070 51.442, 126.096 53.491, 128.019 54.556 C 129.907 55.601, 130.081 55.938, 128.750 55.965 C 126.445 56.011, 126.544 57.764, 129.446 68.250 L 131.866 77 120.183 77.079 C 107.142 77.167, 107.144 77.170, 123.778 81.992 C 127.780 83.152, 130.791 84.528, 130.469 85.051 C 130.146 85.573, 130.496 86, 131.246 86 C 133.068 86, 132.635 95.545, 130.590 100.438 C 129.075 104.064, 127 105.241, 127 102.473 C 127 100.740, 115.088 112.872, 115.035 114.660 C 115.012 115.408, 118.111 116.047, 123.750 116.458 C 128.563 116.809, 134.132 117.329, 136.126 117.615 L 139.752 118.134 149.109 104.317 C 163.209 83.499, 182.138 53.805, 181.632 53.299 C 181.386 53.053, 169.331 50.158, 154.843 46.866 C 125.833 40.274, 129.132 41.703, 109.052 27.038 C 98.019 18.980, 97.814 18.881, 98.401 21.911 M 57.500 49.131 L 36.500 71.230 34.154 78.934 L 31.808 86.637 41.654 106.069 L 51.500 125.500 52 153.168 C 52.275 168.385, 52.814 181.149, 53.197 181.532 C 53.581 181.915, 64.606 180.331, 77.697 178.012 L 101.500 173.796 121 174.908 C 131.725 175.519, 141.738 176.015, 143.250 176.010 L 146 176 146 148 C 146 132.600, 145.662 120.005, 145.250 120.012 C 143.656 120.036, 117.742 124.925, 117.401 125.265 C 117.204 125.463, 118.573 134.144, 120.444 144.556 C 122.316 154.967, 123.760 163.573, 123.654 163.680 C 123.547 163.786, 111.544 164.185, 96.980 164.565 L 70.500 165.258 73.477 161.879 C 75.115 160.020, 80.065 154.703, 84.477 150.062 C 91.029 143.172, 91.616 142.324, 87.677 145.439 C 84.259 148.142, 82.543 148.943, 81.787 148.187 C 81.030 147.430, 82.435 145.280, 86.610 140.805 C 89.849 137.333, 93.769 133.086, 95.321 131.367 L 98.142 128.243 93.821 129.033 C 89.516 129.821, 89.463 129.795, 79.286 121.662 C 69.338 113.713, 67.173 111.353, 70.750 112.356 C 75.061 113.566, 110.104 115.296, 111.054 114.346 C 111.720 113.680, 111.646 110.970, 110.831 106.222 L 109.610 99.098 104.055 96.608 L 98.500 94.118 81.500 97.058 C 62.722 100.304, 60.569 100.506, 61.546 98.926 C 61.910 98.336, 60.380 98.786, 58.144 99.926 C 53.348 102.373, 53 102.422, 53 100.646 C 53 99.901, 56.165 96.478, 60.033 93.040 C 63.902 89.602, 67.941 85.076, 69.009 82.982 C 70.426 80.205, 71.442 79.303, 72.765 79.649 C 73.806 79.921, 75.374 79.245, 76.444 78.062 C 78.308 76.003, 78.303 76, 72.655 76 C 68.295 76, 67 75.656, 67 74.500 C 67 73.307, 68.482 72.995, 74.250 72.978 C 79.980 72.960, 82.024 72.536, 84 70.954 L 86.500 68.952 83.500 69.226 C 78.292 69.702, 80.119 67.384, 90.750 60.028 C 100.546 53.250, 102.177 51.256, 100.235 48.431 C 99.627 47.546, 91.889 44, 90.567 44 C 90.351 44, 80.573 52.100, 68.837 61.999 C 49.316 78.466, 45.831 80.991, 45.860 78.648 C 45.868 78.041, 74.859 53.104, 88.306 42.137 C 89.725 40.980, 90.587 41.018, 94.009 42.387 C 96.226 43.274, 98.405 44, 98.850 44 C 99.295 44, 99.213 41.538, 98.668 38.528 L 97.676 33.057 88.585 30.028 C 83.586 28.363, 79.271 27.007, 78.998 27.016 C 78.724 27.024, 69.050 36.976, 57.500 49.131 M 101.443 38.468 C 101.838 41.101, 102.387 43.846, 102.664 44.567 C 103.362 46.385, 108.479 47.349, 110.810 46.102 C 113.085 44.884, 114.421 45.787, 112.957 47.552 C 112.186 48.480, 113.103 49.188, 116.635 50.391 C 119.222 51.273, 121.508 51.825, 121.715 51.619 C 122.373 50.960, 119.782 41.545, 118.619 40.369 C 118.004 39.746, 114.350 38.218, 110.500 36.972 C 106.650 35.727, 102.876 34.476, 102.112 34.194 C 100.991 33.779, 100.863 34.600, 101.443 38.468 M 107.174 53.314 C 105.978 54.587, 105 56.621, 105 57.834 C 105 60.295, 105.242 60.275, 115.753 56.980 C 120.343 55.541, 121.097 55.030, 119.500 54.442 C 118.400 54.036, 115.983 53.096, 114.128 52.352 C 109.751 50.597, 109.723 50.601, 107.174 53.314 M 113.500 60.444 C 106.687 62.621, 106.504 62.767, 106.652 65.882 C 107.024 73.717, 106.964 73.672, 117.735 74.251 C 123.106 74.540, 127.642 74.647, 127.816 74.489 C 127.989 74.331, 127.682 72.469, 127.133 70.351 C 123.387 55.902, 124.708 56.863, 113.500 60.444 M 98.872 60.687 C 97.664 62.172, 97.719 62.292, 99.332 61.687 C 100.339 61.309, 101.603 61, 102.141 61 C 102.678 61, 102.840 60.550, 102.500 60 C 101.602 58.547, 100.433 58.769, 98.872 60.687 M 91.872 62.750 C 90.629 64.336, 90.664 64.371, 92.250 63.128 C 93.916 61.821, 94.445 61, 93.622 61 C 93.415 61, 92.627 61.788, 91.872 62.750 M 97.103 65.157 C 95.235 65.694, 91.998 67.566, 89.910 69.317 C 85.223 73.246, 86.156 73.829, 97.295 73.930 L 105.091 74 104.467 70.250 C 103.308 63.276, 103.408 63.345, 97.103 65.157 M 79.664 78.829 L 76.954 81.658 79.568 82.849 C 81.783 83.858, 83.961 83.541, 93.841 80.770 L 105.500 77.500 100.500 76.838 C 97.750 76.473, 92.547 76.136, 88.937 76.088 C 82.982 76.008, 82.123 76.262, 79.664 78.829 M 96 83.011 L 86.500 85.739 92.374 88.370 C 98.581 91.149, 99.918 91.366, 104.794 90.391 C 107.656 89.819, 107.806 89.564, 107.284 86.141 C 106.356 80.055, 106.323 80.046, 96 83.011 M 109.689 84.653 C 110.016 86.769, 110.422 88.665, 110.591 88.866 C 111.136 89.515, 123.333 87.067, 124.282 86.118 C 125.110 85.290, 120.652 83.629, 111.797 81.467 C 109.147 80.820, 109.106 80.882, 109.689 84.653 M 70.548 87.126 C 69.101 88.845, 68.119 90.453, 68.366 90.699 C 68.612 90.945, 71.133 89.822, 73.967 88.204 C 77.826 86, 78.708 85.102, 77.479 84.630 C 74.512 83.492, 73.211 83.960, 70.548 87.126 M 74.500 90.999 C 70.650 93.175, 67.050 95.129, 66.500 95.341 C 61.332 97.331, 85.116 94.557, 91.949 92.373 C 93.203 91.972, 84.028 86.961, 82.151 87.021 C 81.793 87.032, 78.350 88.822, 74.500 90.999 M 125 89.731 C 124.175 90.046, 120.892 92.066, 117.704 94.220 C 113.615 96.983, 112.048 98.632, 112.381 99.818 C 112.641 100.743, 113.159 103.455, 113.531 105.845 L 114.208 110.191 117.726 106.845 C 128.678 96.430, 132.791 86.755, 125 89.731 M 112.750 91.689 C 111.787 91.941, 111 92.804, 111 93.609 C 111 95.084, 111.977 94.780, 116 92.049 C 117.333 91.144, 117.333 91.042, 116 91.131 C 115.175 91.187, 113.713 91.438, 112.750 91.689 M 104.083 93.365 C 104.313 93.565, 105.513 94.256, 106.750 94.900 C 108.615 95.870, 109 95.807, 109 94.535 C 109 93.539, 108.064 93, 106.333 93 C 104.867 93, 103.854 93.164, 104.083 93.365 M 77 116.282 C 77.275 116.576, 80.403 119.135, 83.950 121.967 C 88.425 125.539, 91.028 126.966, 92.450 126.626 C 93.578 126.357, 96.170 125.834, 98.211 125.464 C 100.758 125.003, 102.703 123.767, 104.417 121.520 L 106.912 118.248 101.206 117.661 C 90.261 116.534, 76.504 115.751, 77 116.282 M 108.437 121.128 L 105.500 124.255 109.500 123.538 C 114.320 122.675, 114.050 122.909, 113.344 120.206 C 112.581 117.290, 111.925 117.413, 108.437 121.128 M 116 120.500 C 116 122.160, 116.764 122.265, 122.250 121.358 C 127.645 120.466, 126.867 119, 121 119 C 117.222 119, 116 119.367, 116 120.500 M 110 126.718 C 110 127.189, 102.537 135.320, 93.416 144.787 L 76.832 162 89.763 162 C 96.874 162, 106.715 161.714, 111.632 161.366 L 120.570 160.731 117.519 143.616 C 114.691 127.753, 114.304 126.477, 112.234 126.180 C 111.005 126.005, 110 126.246, 110 126.718 M 99.453 131.225 C 97.279 133.548, 96.400 134.758, 97.500 133.913 C 103.870 129.022, 105.999 127, 104.780 127 C 104.024 127, 101.627 128.901, 99.453 131.225" stroke="none" fill="black" fill-rule="evenodd"/>
</svg>