<svg xmlns="http://www.w3.org/2000/svg" width="200" height="200" viewBox="0 0 200 200" version="1.1">
	<path d="M 78.416 7.382 C 71.949 15.451, 70.838 15.967, 59.904 15.989 C 56.826 15.995, 50.188 16.292, 45.154 16.650 C 37.570 17.188, 36 17.583, 36 18.952 C 36 19.861, 33.338 29.544, 30.084 40.469 L 24.168 60.332 28.027 72.836 L 31.885 85.340 23.398 111.420 C 18.729 125.764, 14.704 138.102, 14.453 138.838 C 14.201 139.574, 18.746 137.661, 24.553 134.588 C 30.360 131.515, 35.311 129, 35.555 129 C 35.800 129, 36 140.700, 36 155 C 36 177.444, 36.205 181, 37.500 181 C 38.798 181, 39 177.157, 39 152.411 L 39 123.822 29.383 128.960 C 24.093 131.787, 19.619 133.952, 19.439 133.772 C 19.260 133.593, 22.493 123.108, 26.625 110.473 C 30.757 97.838, 34.163 86.588, 34.194 85.472 C 34.225 84.357, 32.632 78.261, 30.654 71.926 L 27.058 60.406 32.937 40.629 C 36.170 29.751, 39.061 20.605, 39.361 20.305 C 39.917 19.750, 68.264 17.980, 68.784 18.468 C 68.941 18.615, 65.623 22.865, 61.412 27.912 C 57.201 32.959, 53.923 37.251, 54.128 37.450 C 54.332 37.649, 59.599 42.092, 65.830 47.323 L 77.161 56.834 85.830 57.488 C 90.599 57.847, 95.598 58.222, 96.939 58.321 C 99.254 58.491, 99.532 57.877, 102.399 46.250 C 104.060 39.513, 105.663 34.010, 105.960 34.023 C 106.257 34.035, 109.824 38.709, 113.887 44.409 L 121.275 54.772 121.077 78.136 C 120.893 99.924, 120.611 103.220, 116.887 127 C 114.691 141.025, 112.355 153, 111.697 153.611 C 110.777 154.465, 83.348 176.010, 75.058 182.390 C 73.256 183.777, 72.569 184.937, 86.836 162.502 C 100.013 141.781, 99.442 146.503, 91.459 124.233 L 86.704 110.966 90.310 91.774 C 92.293 81.219, 93.752 72.419, 93.552 72.219 C 93.072 71.739, 63.728 68.939, 63.331 69.335 C 63.163 69.504, 65.475 76.963, 68.471 85.912 C 71.471 94.875, 73.374 101.968, 72.708 101.707 C 72.044 101.445, 68.362 99.405, 64.527 97.173 C 60.691 94.940, 57.474 93.200, 57.378 93.307 C 57.281 93.413, 58.041 104.750, 59.066 118.500 C 61.815 155.369, 62.294 151.147, 52.871 173.120 C 45.378 190.592, 44.258 194.194, 46.814 192.615 C 47.335 192.293, 51.477 183.366, 56.018 172.776 L 64.275 153.523 62.312 126.011 C 61.233 110.880, 60.404 98.405, 60.470 98.288 C 60.536 98.172, 64.497 100.310, 69.273 103.038 C 74.048 105.767, 78.158 108, 78.405 108 C 78.652 108, 76.192 100.044, 72.940 90.320 C 69.687 80.596, 67.134 72.533, 67.266 72.401 C 67.398 72.269, 72.801 72.642, 79.272 73.231 C 89.296 74.143, 90.968 74.538, 90.562 75.901 C 90.300 76.780, 88.672 85.158, 86.945 94.518 L 83.805 111.536 89.448 127.018 C 92.551 135.533, 94.909 143.204, 94.688 144.064 C 94.466 144.923, 88.351 154.950, 81.099 166.344 C 73.847 177.738, 67.678 187.677, 67.389 188.429 C 65.834 192.482, 70.884 189.228, 92.090 172.514 L 115.468 154.089 119.263 130.294 C 122.516 109.895, 123.160 103.114, 123.779 82.772 L 124.500 59.045 126.814 62.428 L 129.129 65.812 128.074 108.156 C 127.494 131.445, 126.902 155.654, 126.759 161.953 L 126.500 173.407 151.500 177.592 C 165.250 179.893, 176.579 181.711, 176.675 181.630 C 176.905 181.438, 180 147.438, 180 145.108 C 180 143.527, 178.429 143.180, 166.893 142.215 C 159.684 141.612, 153.544 140.877, 153.249 140.582 C 152.705 140.038, 155.713 110.954, 156.383 110.284 C 156.583 110.084, 161.641 111.024, 167.623 112.372 C 173.605 113.720, 178.616 114.709, 178.758 114.570 C 178.899 114.432, 174.737 105.442, 169.508 94.594 C 164.278 83.746, 160 74.727, 160 74.552 C 160 74.376, 163.815 67.768, 168.478 59.867 C 173.141 51.965, 176.559 45.365, 176.075 45.199 C 175.590 45.033, 169.221 46.042, 161.922 47.441 C 154.622 48.839, 148.547 49.874, 148.421 49.742 C 148.295 49.609, 153.360 40.799, 159.677 30.164 C 165.994 19.530, 171.013 10.699, 170.831 10.541 C 170.649 10.383, 159.700 10.849, 146.500 11.578 C 110.766 13.551, 112.430 13.637, 111 9.750 L 109.804 6.500 108.567 10 C 107.355 13.427, 107.202 13.506, 101.253 13.795 L 95.177 14.091 90.338 7.077 C 87.677 3.220, 85.237 0.049, 84.916 0.032 C 84.596 0.014, 81.671 3.322, 78.416 7.382 M 80.178 9.500 L 75.883 15 80.816 15 C 83.530 15, 87.120 14.726, 88.795 14.391 L 91.840 13.782 88.326 8.891 C 86.394 6.201, 84.736 4, 84.643 4 C 84.550 4, 82.541 6.475, 80.178 9.500 M 141.500 14.550 C 129.400 15.241, 118.099 15.849, 116.387 15.903 L 113.273 16 118.637 31.112 C 121.586 39.424, 124 47.901, 124 49.950 C 124 52.689, 125.044 55.132, 127.947 59.186 L 131.894 64.699 130.993 101.599 C 130.497 121.895, 129.807 145.794, 129.459 154.709 L 128.826 170.918 131.163 171.455 C 137.982 173.020, 172.337 178.085, 173.392 177.680 C 174.646 177.198, 177.735 147.402, 176.644 146.310 C 176.353 146.019, 170.351 145.327, 163.307 144.771 C 156.263 144.216, 150.308 143.585, 150.073 143.370 C 149.838 143.155, 150.493 135.060, 151.527 125.380 C 152.788 113.581, 153.825 107.621, 154.673 107.295 C 155.369 107.028, 159.888 107.717, 164.715 108.826 C 169.542 109.935, 173.609 110.724, 173.753 110.580 C 173.897 110.436, 170.186 102.346, 165.507 92.602 C 160.828 82.858, 157 74.659, 157 74.381 C 157 74.103, 159.852 69.066, 163.337 63.188 C 166.823 57.310, 170.170 51.569, 170.775 50.432 C 171.859 48.394, 171.666 48.404, 157.688 51.096 C 149.885 52.598, 143.351 53.680, 143.170 53.500 C 142.988 53.320, 148.051 44.391, 154.420 33.656 C 160.789 22.922, 166 13.883, 166 13.570 C 166 13.256, 165.438 13.066, 164.750 13.147 C 164.063 13.228, 153.600 13.860, 141.500 14.550 M 100.672 16.868 L 97.845 17.500 101.103 21.991 C 104.714 26.968, 104.250 27.254, 106.357 18.750 C 107.095 15.770, 106.489 15.569, 100.672 16.868 M 109.745 16.604 C 109.433 17.109, 108.613 20.254, 107.923 23.593 L 106.669 29.664 113.959 39.874 C 117.968 45.490, 121.425 49.908, 121.641 49.692 C 121.857 49.476, 119.396 41.736, 116.173 32.492 C 112.950 23.248, 110.057 16.098, 109.745 16.604 M 78.293 17.736 L 73.086 18.102 65.543 27.142 C 61.394 32.115, 58.026 36.479, 58.057 36.841 C 58.089 37.204, 62.551 41.210, 67.974 45.744 L 77.833 53.989 87.167 54.853 C 92.300 55.329, 96.771 55.444, 97.102 55.109 C 97.720 54.484, 103.024 32.339, 103.009 30.450 C 103.004 29.873, 100.970 26.610, 98.489 23.200 L 93.977 17 88.739 17.185 C 85.857 17.287, 81.157 17.535, 78.293 17.736" stroke="none" fill="black" fill-rule="evenodd"/>
</svg>