<svg xmlns="http://www.w3.org/2000/svg" width="200" height="200" viewBox="0 0 200 200" version="1.1">
	<path d="M 36.600 16.683 C 36.270 18.782, 35.066 28.600, 33.923 38.500 C 32.137 53.979, 32.004 57.831, 32.975 66 L 34.104 75.500 25.155 105.500 C 20.233 122, 16.353 135.656, 16.533 135.846 C 16.713 136.037, 21.033 133.691, 26.133 130.633 C 31.234 127.576, 35.634 125.301, 35.912 125.578 C 36.189 125.856, 36.660 139.132, 36.958 155.081 L 37.500 184.079 52.250 173.329 C 66.466 162.968, 66.999 162.451, 66.986 159.039 C 66.978 157.093, 65.860 142.705, 64.503 127.066 C 63.145 111.428, 62.152 98.515, 62.296 98.370 C 62.441 98.226, 66.014 100.838, 70.236 104.175 C 79.310 111.346, 78.430 107.821, 80.054 143.500 C 80.681 157.250, 81.401 168.838, 81.655 169.250 C 81.910 169.662, 87.709 170, 94.542 170 L 106.966 170 107.233 144.850 L 107.500 119.700 117 137.828 C 122.225 147.798, 126.834 155.853, 127.241 155.728 C 127.649 155.602, 133.328 147.346, 139.860 137.380 C 148.309 124.491, 152.097 117.764, 152.982 114.076 C 153.666 111.225, 154.362 109.029, 154.528 109.196 C 155.171 109.841, 151.946 162.044, 150.649 172 C 149.896 177.775, 149.419 182.664, 149.589 182.865 C 149.759 183.066, 157.346 176.331, 166.449 167.897 L 183 152.563 182.919 147.532 C 182.874 144.764, 182.311 131.117, 181.669 117.205 C 180.947 101.578, 180.791 84.378, 181.262 72.205 C 181.681 61.367, 181.906 49.145, 181.762 45.045 L 181.500 37.591 168.500 32.719 L 155.500 27.848 132 26.470 C 119.075 25.712, 105.657 24.895, 102.181 24.656 L 95.862 24.219 88.681 35.085 C 84.732 41.061, 81.223 45.962, 80.886 45.976 C 80.548 45.989, 74.722 41.723, 67.941 36.495 C 59.364 29.883, 55.292 27.308, 54.565 28.035 C 53.838 28.762, 56.561 32.036, 63.510 38.790 C 78.486 53.346, 78.687 53.504, 80.426 52.061 C 81.658 51.039, 83.607 52.134, 91.859 58.490 C 97.330 62.703, 102.057 67.109, 102.363 68.282 C 102.670 69.454, 102.822 70.511, 102.702 70.631 C 102.582 70.751, 96.657 70.096, 89.534 69.175 L 76.584 67.500 57.475 40.766 C 46.964 26.062, 38.102 13.769, 37.782 13.448 C 37.461 13.128, 36.929 14.583, 36.600 16.683 M 38.631 22.724 C 38.334 24.251, 37.334 32.603, 36.408 41.284 C 34.997 54.516, 34.919 58.489, 35.926 65.855 L 37.127 74.641 29.017 101.941 C 24.557 116.956, 21.097 129.430, 21.327 129.661 C 21.558 129.891, 25.516 127.813, 30.123 125.041 L 38.500 120.003 39.122 138.251 C 39.465 148.288, 39.802 161.551, 39.872 167.724 L 40 178.947 52.293 169.915 L 64.586 160.884 61.793 128.692 C 60.258 110.986, 59.113 95.525, 59.250 94.334 C 59.470 92.428, 60.698 93.126, 69.500 100.163 C 75 104.560, 79.825 108.470, 80.223 108.852 C 80.620 109.233, 81.619 122.309, 82.443 137.909 C 83.266 153.510, 84.066 166.385, 84.220 166.522 C 84.374 166.659, 88.888 166.956, 94.250 167.182 L 104 167.592 103.877 131.046 C 103.810 110.946, 103.473 89.775, 103.127 84 L 102.500 73.500 93 72.336 C 87.775 71.695, 82.465 71.133, 81.199 71.086 L 78.898 71 81.449 74.344 C 82.852 76.184, 84 78.162, 84 78.741 C 84 79.319, 80.063 80.515, 75.250 81.398 C 64.696 83.335, 65 83.328, 65 81.641 C 65 80.732, 67.477 79.859, 72.500 79 C 76.625 78.294, 79.988 77.443, 79.973 77.109 C 79.958 76.774, 78.721 75.061, 77.223 73.303 C 74.647 70.279, 73.934 70.042, 64 68.914 C 54.036 67.782, 50.842 66.825, 52.268 65.399 C 52.617 65.050, 57.060 65.256, 62.143 65.857 C 67.225 66.458, 71.564 66.769, 71.785 66.549 C 72.115 66.219, 46.921 30.039, 40.919 22.224 L 39.171 19.947 38.631 22.724 M 90.289 37.552 L 83.170 48.283 92.335 55.455 L 101.500 62.627 101.800 57.879 L 102.100 53.131 120.477 41.853 C 130.585 35.649, 138.675 30.283, 138.456 29.928 C 138.236 29.573, 131.181 28.983, 122.778 28.618 C 114.375 28.253, 105.229 27.699, 102.454 27.387 L 97.408 26.821 90.289 37.552 M 145.658 40.603 C 148.116 46.435, 149.985 51.325, 149.813 51.470 C 149.641 51.614, 143.875 52.951, 137 54.441 C 113.487 59.536, 113.066 58.364, 141 65.595 C 154.475 69.083, 165.613 71.951, 165.750 71.968 C 165.887 71.986, 166 72.735, 166 73.634 C 166 75.096, 164.368 75.218, 150.500 74.797 L 135 74.326 135 99.104 C 135 115.574, 134.642 124.103, 133.933 124.541 C 133.347 124.904, 132.647 124.980, 132.378 124.711 C 132.108 124.442, 130.519 115.509, 128.844 104.861 L 125.801 85.500 122.156 82.295 C 120.151 80.532, 118.236 79.407, 117.900 79.795 C 117.564 80.183, 115.597 89.050, 113.529 99.500 L 109.769 118.500 118.452 134.750 C 123.228 143.688, 127.286 151, 127.469 151 C 127.652 151, 132.557 143.676, 138.369 134.725 C 148.550 119.043, 149.054 118.004, 152.185 106.225 C 155.581 93.451, 158.016 90.101, 157.983 98.250 C 157.938 109.153, 154.971 160.359, 153.980 167.350 C 153.367 171.667, 153.039 175.372, 153.250 175.583 C 153.461 175.794, 159.605 170.469, 166.905 163.749 L 180.176 151.531 179.338 131.016 C 178.416 108.442, 178.257 77.615, 178.945 54.632 L 179.389 39.764 166.445 34.892 C 156.115 31.003, 152.257 30.017, 147.345 30.010 L 141.190 30 145.658 40.603 M 121.778 44.275 L 105.055 54.500 105.059 60 C 105.062 65.319, 105.204 65.607, 109.407 68.772 L 113.752 72.043 133.451 71.772 L 153.149 71.500 131.553 66 C 115.048 61.797, 110.022 60.155, 110.235 59.037 C 110.430 58.008, 115.703 56.411, 128.007 53.654 C 137.628 51.498, 145.665 49.591, 145.867 49.417 C 146.450 48.913, 140.252 34.581, 139.331 34.302 C 138.874 34.163, 130.975 38.651, 121.778 44.275 M 75.924 47.356 C 78.546 50.215, 79 50.475, 79 49.115 C 79 48.628, 77.763 47.438, 76.250 46.471 L 73.500 44.712 75.924 47.356 M 105 70 C 105 70.550, 105.477 71, 106.059 71 C 106.641 71, 106.840 70.550, 106.500 70 C 106.160 69.450, 105.684 69, 105.441 69 C 105.198 69, 105 69.450, 105 70 M 106.117 84.139 C 106.182 89.837, 106.520 99, 106.867 104.500 L 107.500 114.500 111.412 95.712 C 113.759 84.446, 114.959 76.571, 114.412 76.040 C 113.911 75.554, 111.813 74.846, 109.750 74.467 L 106 73.777 106.117 84.139 M 123.313 79.513 C 126.594 82.018, 128.083 83.955, 128.502 86.263 C 128.825 88.043, 129.695 92.875, 130.436 97 L 131.784 104.500 131.892 90.886 L 132 77.272 127.360 76.636 C 118.687 75.447, 118.325 75.704, 123.313 79.513" stroke="none" fill="black" fill-rule="evenodd"/>
</svg>