<svg xmlns="http://www.w3.org/2000/svg" width="200" height="200" viewBox="0 0 200 200" version="1.1">
	<path d="M 90.500 17.853 L 64.500 20.566 40 29.416 C 26.525 34.283, 15.154 38.573, 14.732 38.950 C 14.310 39.327, 20.263 42.476, 27.961 45.947 C 35.660 49.418, 41.738 52.616, 41.468 53.052 C 41.198 53.489, 39.663 54.135, 38.058 54.487 C 36.452 54.840, 34.724 55.662, 34.217 56.314 C 33.710 56.966, 31.186 66.050, 28.607 76.500 C 26.029 86.950, 23.683 96.287, 23.393 97.250 C 22.915 98.833, 23.800 99.001, 32.683 99.007 L 42.500 99.015 57 105.914 C 64.975 109.709, 71.769 112.519, 72.098 112.157 C 72.426 111.796, 74.642 104.182, 77.022 95.238 C 80.535 82.032, 81.644 79.067, 82.924 79.460 C 89.573 81.505, 104.274 85.072, 104.996 84.816 C 105.486 84.642, 103.980 81.350, 101.649 77.500 C 99.317 73.650, 96.122 68.250, 94.548 65.500 C 91.049 59.388, 90.605 59.053, 110.294 77.355 C 117.900 84.425, 124.289 90.045, 124.491 89.842 C 125.141 89.193, 142 48.893, 142 47.989 C 142 47.510, 141.602 46.872, 141.115 46.571 C 140.628 46.270, 136.507 54.808, 131.957 65.543 C 127.406 76.278, 123.328 84.935, 122.895 84.780 C 122.462 84.626, 113.929 76.926, 103.934 67.670 C 92.131 56.739, 85.419 51.181, 84.786 51.814 C 84.153 52.447, 86.661 57.604, 91.942 66.525 C 96.414 74.079, 99.930 80.404, 99.755 80.579 C 99.579 80.754, 95.010 79.774, 89.600 78.400 C 84.190 77.026, 79.634 76.037, 79.474 76.201 C 79.315 76.366, 77.297 83.475, 74.990 92 C 72.684 100.525, 70.505 107.782, 70.148 108.127 C 69.792 108.471, 63.425 105.888, 56 102.386 C 43.052 96.280, 42.183 96.019, 34.750 96.010 C 29.218 96.003, 27.002 95.642, 27.007 94.750 C 27.014 93.320, 35.893 58.774, 36.377 58.290 C 36.552 58.115, 39.801 56.910, 43.598 55.613 L 50.500 53.255 41 48.878 C 35.775 46.470, 29.063 43.358, 26.084 41.960 L 20.668 39.420 43.584 31.222 L 66.500 23.023 92.619 20.512 C 118.563 18.017, 140 17.251, 140 18.818 C 140 19.787, 122.045 25, 118.707 25 C 117.438 25, 115.973 25.417, 115.450 25.926 C 114.927 26.435, 105.725 29.406, 95 32.528 C 84.275 35.651, 75.278 38.419, 75.006 38.680 C 74.495 39.171, 77.713 42.031, 86.814 49.172 L 92.128 53.342 104.314 41.271 C 111.016 34.631, 117.400 28.947, 118.500 28.639 C 119.600 28.331, 125.827 28.405, 132.338 28.802 C 142.647 29.432, 146.358 29.024, 144.768 27.435 C 144.531 27.197, 140.787 26.703, 136.449 26.336 L 128.561 25.669 137.305 23.193 C 142.114 21.830, 146.301 20.968, 146.610 21.276 C 146.918 21.585, 147.528 33.655, 147.966 48.098 L 148.761 74.360 140.326 85.590 L 131.891 96.819 136.828 106.660 C 139.544 112.072, 142.457 118.156, 143.303 120.180 L 144.839 123.860 135.670 119.590 C 130.626 117.242, 124.260 114.176, 121.523 112.777 L 116.546 110.234 96.023 117.227 L 75.500 124.220 44.318 125.375 C 27.168 126.011, 12.781 126.886, 12.347 127.320 C 10.594 129.073, 15.122 129.735, 37.547 131.003 C 50.446 131.732, 61 132.534, 61 132.784 C 61 133.035, 55.993 139.979, 49.873 148.215 C 43.161 157.249, 38.410 164.640, 37.897 166.845 C 36.678 172.093, 36.805 177, 38.161 177 C 38.800 177, 49.292 172.275, 61.477 166.500 C 73.662 160.725, 84.064 156, 84.592 156 C 85.121 156, 90.434 163.895, 96.400 173.544 C 102.365 183.193, 107.509 190.824, 107.832 190.501 C 108.155 190.178, 109.787 177.509, 111.460 162.348 L 114.500 134.781 129.835 156.891 C 138.269 169.051, 145.546 179, 146.006 179 C 146.466 179, 156.869 174.299, 169.125 168.553 C 188.812 159.322, 191.122 157.998, 188.954 157.181 C 187.604 156.672, 174.912 152.713, 160.750 148.384 C 146.588 144.054, 135.005 140.284, 135.011 140.006 C 135.017 139.728, 138.055 138.224, 141.761 136.664 C 145.467 135.105, 154.395 130.694, 161.600 126.862 L 174.700 119.896 175.346 108.698 C 175.701 102.539, 175.993 79.445, 175.995 57.378 L 176 17.257 163.250 16.645 C 126.945 14.902, 117.231 15.064, 90.500 17.853 M 150.605 47.110 L 151.242 75.500 143.621 85.774 C 139.430 91.425, 136 96.582, 136 97.235 C 136 97.888, 139.185 105.118, 143.077 113.301 C 146.970 121.483, 149.941 128.392, 149.680 128.653 C 149.419 128.915, 141.829 125.579, 132.815 121.240 L 116.424 113.352 96.183 120.109 L 75.942 126.865 59.221 127.651 L 42.500 128.436 53.927 129.229 C 60.213 129.665, 65.528 130.195, 65.739 130.406 C 65.951 130.618, 60.246 138.756, 53.062 148.492 C 42.339 163.024, 40 166.803, 40 169.597 C 40 171.469, 40.287 173, 40.638 173 C 40.989 173, 51.360 168.221, 63.684 162.380 C 76.009 156.538, 86.211 151.926, 86.357 152.130 C 86.502 152.333, 90.858 159.352, 96.035 167.726 C 101.213 176.100, 105.734 182.625, 106.083 182.226 C 106.432 181.827, 108 169.460, 109.567 154.743 C 111.801 133.759, 112.676 128.258, 113.623 129.243 C 114.287 129.935, 121.868 140.625, 130.469 153 C 139.071 165.375, 146.442 175.500, 146.850 175.500 C 147.773 175.500, 184.067 158.719, 183.739 158.444 C 183.608 158.334, 171.350 154.536, 156.500 150.003 C 141.650 145.470, 128.901 141.439, 128.169 141.045 C 127.335 140.597, 130.888 138.527, 137.669 135.511 C 147.638 131.075, 160.183 124.756, 169.119 119.667 L 172.738 117.607 173.224 69.053 C 173.492 42.349, 173.567 20.329, 173.391 20.120 C 173.216 19.910, 167.874 19.510, 161.520 19.229 L 149.968 18.720 150.605 47.110 M 96 35.065 C 88.575 37.221, 81.898 39.215, 81.161 39.495 C 80.305 39.822, 81.811 41.625, 85.344 44.503 C 88.381 46.976, 91.242 49, 91.703 49 C 92.164 49, 96.573 44.950, 101.500 40 C 106.427 35.050, 110.243 31.033, 109.979 31.072 C 109.716 31.112, 103.425 32.909, 96 35.065" stroke="none" fill="black" fill-rule="evenodd"/>
</svg>