<svg xmlns="http://www.w3.org/2000/svg" width="200" height="200" viewBox="0 0 200 200" version="1.1">
	<path d="M 61 28.891 L 61 49.781 72.500 54.043 C 80.728 57.092, 84 58.769, 84 59.936 C 84 60.834, 79.763 67.628, 74.585 75.034 C 69.407 82.440, 65.311 88.641, 65.482 88.813 C 65.797 89.130, 104.233 79.100, 104.772 78.561 C 104.932 78.401, 101.788 74.722, 97.786 70.385 L 90.508 62.500 98.004 69.050 C 102.127 72.653, 109.930 79.515, 115.345 84.300 C 120.760 89.085, 125.493 93, 125.862 93 C 126.232 93, 127.781 89.513, 129.306 85.250 C 130.830 80.987, 132.847 75.787, 133.789 73.693 L 135.500 69.887 142.672 82.933 C 149.357 95.095, 149.778 96.219, 148.875 99.490 L 147.906 103 127.203 102.956 C 115.816 102.931, 97.500 102.302, 86.500 101.556 C 75.500 100.811, 66.173 100.505, 65.773 100.878 C 65.373 101.250, 64.195 104.026, 63.156 107.046 C 61.409 112.125, 61.305 114.995, 61.777 145.269 C 62.057 163.271, 62.026 178, 61.708 178 C 61.149 178, 41.243 164.506, 39.783 163.138 C 39.219 162.610, 34 126.224, 34 122.823 C 34 122.370, 31.750 122, 29 122 C 25.557 122, 24 121.594, 24 120.697 C 24 119.980, 26.500 108.180, 29.556 94.474 C 34.210 73.602, 35.015 68.577, 34.518 63.528 C 34.076 59.044, 34.911 51.424, 37.778 33.786 C 40.728 15.633, 41.339 9.960, 40.383 9.593 C 38.876 9.015, 38.986 8.505, 34.425 37.359 C 31.658 54.868, 31.028 61.071, 31.737 63.861 C 32.502 66.876, 31.579 72.332, 26.383 95.502 C 22.930 110.901, 20.081 123.838, 20.052 124.250 C 20.023 124.662, 22.604 125, 25.787 125 L 31.575 125 34.037 144.649 L 36.500 164.299 50 173.638 C 57.425 178.774, 63.856 182.982, 64.291 182.988 C 64.726 182.995, 64.768 167.699, 64.383 148.998 C 63.738 117.615, 63.826 114.528, 65.530 108.902 L 67.375 102.807 73.438 103.390 C 90.490 105.029, 117.482 106.180, 131.375 105.859 C 139.969 105.661, 147 105.734, 147 106.020 C 147 107.074, 142.848 121.486, 142.421 121.913 C 142.178 122.155, 140.746 121.191, 139.240 119.770 C 136.294 116.992, 139.389 117.331, 93 114.699 L 89.500 114.500 89.868 146 C 90.070 163.325, 90.295 177.553, 90.368 177.617 C 90.441 177.681, 95.450 177.159, 101.500 176.457 C 107.550 175.756, 114.750 174.936, 117.500 174.637 C 121.558 174.195, 126.804 175.228, 145.343 180.120 C 157.906 183.435, 168.345 185.989, 168.539 185.794 C 168.942 185.391, 178 136.216, 178 134.430 C 178 133.787, 173.725 127.127, 168.500 119.630 C 163.275 112.132, 159 105.773, 159 105.499 C 159 105.224, 161.006 105, 163.458 105 C 167.669 105, 168.059 104.756, 170.493 100.602 L 173.071 96.203 170.498 76.852 C 167.576 54.878, 167.603 55, 165.531 55 C 164.689 55, 164 54.645, 164 54.211 C 164 53.778, 166.047 45.850, 168.549 36.593 C 171.050 27.337, 172.890 19.556, 172.636 19.303 C 172.383 19.049, 160.387 26.387, 145.979 35.609 C 126.116 48.322, 120.232 52.535, 121.642 53.034 C 122.664 53.396, 131.375 54.498, 141 55.482 C 150.625 56.467, 158.809 57.548, 159.186 57.886 C 159.724 58.367, 151.573 90.801, 150.712 91.608 C 150.595 91.717, 147.126 85.550, 143.003 77.903 C 138.880 70.256, 135.234 64, 134.901 64 C 134.568 64, 132.259 69.512, 129.770 76.250 C 127.281 82.987, 124.852 88.357, 124.372 88.183 C 122.910 87.652, 92.999 60.966, 93.015 60.208 C 93.059 58.173, 97.556 55.531, 132.959 36.742 C 154.092 25.527, 171.560 15.821, 171.775 15.175 C 171.990 14.529, 171.417 14, 170.500 14 C 169.584 14, 156.609 17.586, 141.667 21.970 C 120.818 28.086, 112.076 30.181, 104.076 30.977 C 98.343 31.547, 93.467 32.199, 93.241 32.426 C 93.014 32.652, 92.392 37.937, 91.858 44.169 C 91.324 50.401, 90.480 55.910, 89.982 56.412 C 89.437 56.961, 84.177 55.514, 76.788 52.785 L 64.500 48.246 64.229 28.123 C 64.001 11.150, 63.727 8, 62.479 8 C 61.221 8, 61 11.118, 61 28.891 M 135.500 26.703 C 122.231 30.767, 114.609 32.520, 106.500 33.370 L 95.500 34.524 94.678 43.857 C 94.227 48.990, 94.037 53.370, 94.257 53.590 C 94.565 53.899, 128.639 36.133, 153.500 22.701 C 158.485 20.008, 154.370 20.923, 135.500 26.703 M 148.248 37.325 C 137.109 44.477, 128.233 50.566, 128.524 50.857 C 129.041 51.374, 160.226 55.116, 160.617 54.707 C 160.962 54.348, 168.916 24.579, 168.703 24.448 C 168.591 24.379, 159.386 30.174, 148.248 37.325 M 162.505 59.250 C 162.267 59.938, 159.971 68.367, 157.403 77.982 L 152.733 95.464 154.616 98.982 C 156.303 102.133, 156.984 102.531, 161.137 102.800 C 165.503 103.083, 165.904 102.892, 167.978 99.536 L 170.181 95.972 168.049 79.236 C 166.876 70.031, 165.702 61.487, 165.439 60.250 C 164.923 57.815, 163.204 57.230, 162.505 59.250 M 78.780 73.707 C 74.610 79.643, 71.266 84.574, 71.349 84.663 C 71.641 84.979, 98.845 77.489, 99.391 76.942 C 99.695 76.639, 96.888 73.358, 93.153 69.652 L 86.363 62.914 78.780 73.707 M 151 101.441 C 151 102.298, 151.450 103, 152 103 C 152.550 103, 153 102.577, 153 102.059 C 153 101.541, 152.550 100.840, 152 100.500 C 151.450 100.160, 151 100.584, 151 101.441 M 148.059 113.196 C 146.855 117.763, 145.662 122.232, 145.407 123.127 C 145.103 124.195, 147.026 126.557, 151.011 130.009 C 154.348 132.900, 156.948 135.617, 156.789 136.047 C 156.630 136.477, 149.130 144.534, 140.121 153.952 C 131.113 163.370, 123.913 171.215, 124.121 171.386 C 124.330 171.556, 133.275 174.036, 144 176.897 C 154.725 179.758, 164.201 182.304, 165.058 182.556 C 166.361 182.938, 167.333 179.008, 170.980 158.614 L 175.343 134.214 165.359 119.857 C 157.411 108.429, 154.852 105.438, 152.812 105.196 C 150.387 104.908, 150.130 105.339, 148.059 113.196 M 92.122 128.741 C 92.189 135.209, 92.526 148.150, 92.872 157.500 L 93.500 174.500 106.247 173.095 L 118.993 171.690 130.497 148.922 C 136.823 136.399, 142 125.947, 142 125.695 C 142 125.444, 140.497 124.091, 138.660 122.690 C 135.569 120.332, 134.102 120.063, 118.910 119.071 C 109.885 118.481, 100.138 117.770, 97.250 117.491 L 92 116.983 92.122 128.741 M 135.029 146.161 L 125.960 164.500 139.471 150.500 C 146.902 142.800, 152.849 136.088, 152.686 135.584 C 152.523 135.080, 150.524 133.127, 148.244 131.245 L 144.099 127.823 135.029 146.161" stroke="none" fill="black" fill-rule="evenodd"/>
</svg>