<svg xmlns="http://www.w3.org/2000/svg" width="200" height="200" viewBox="0 0 200 200" version="1.1">
	<path d="M 89.426 17.482 C 88.444 22.698, 87.379 27.387, 87.060 27.902 C 86.714 28.462, 82.658 28.065, 76.990 26.916 C 71.771 25.858, 65.118 24.508, 62.207 23.916 C 57.333 22.926, 56.628 22.409, 53.296 17.391 C 51.306 14.393, 49.188 12.123, 48.589 12.345 C 47.304 12.823, 47.377 13.349, 49.386 18.109 L 50.909 21.718 42.435 19.987 C 37.774 19.034, 33.786 18.537, 33.574 18.881 C 33.361 19.225, 31.271 28.280, 28.929 39.003 L 24.671 58.500 24.237 92.841 L 23.802 127.183 29.070 147.078 C 32.818 161.232, 34.794 167.099, 35.919 167.411 C 36.789 167.652, 42.900 167.996, 49.500 168.175 L 61.500 168.500 61.260 162.500 C 61.129 159.200, 60.510 143.769, 59.886 128.208 C 59.262 112.647, 58.929 99.738, 59.146 99.520 C 59.364 99.303, 62.827 108.470, 66.843 119.891 L 74.144 140.657 78.928 142.377 L 83.711 144.097 84.350 152.298 C 84.701 156.809, 84.995 164.325, 85.003 169 C 85.022 180.159, 86.008 188.003, 87.389 187.987 C 88.343 187.976, 97.429 168.985, 113.520 133.372 L 117.644 124.243 122.322 131.580 C 124.895 135.616, 127 139.466, 127 140.137 C 127 142.311, 119.836 164.391, 117.893 168.205 L 116.005 171.910 119.253 172.454 C 126.433 173.655, 168.479 177.854, 168.920 177.414 C 169.180 177.154, 169.771 157.717, 170.234 134.221 L 171.076 91.500 178.094 60.640 C 181.955 43.667, 184.975 29.669, 184.807 29.534 C 184.370 29.185, 140.559 26.981, 134.250 26.992 L 129 27 129 32 C 129 37.607, 128.934 37.641, 121.299 35.916 C 116.860 34.912, 115.601 33.832, 104.500 21.498 C 97.900 14.164, 92.210 8.127, 91.856 8.082 C 91.502 8.037, 90.408 12.267, 89.426 17.482 M 92.707 15.526 C 91.628 19.266, 89.826 29.159, 90.163 29.496 C 90.564 29.897, 111.378 33.957, 111.643 33.687 C 111.744 33.584, 107.653 29.012, 102.552 23.526 C 94.784 15.172, 93.185 13.872, 92.707 15.526 M 31.208 42.250 L 26.980 62.500 27.035 96 L 27.090 129.500 31.864 147 L 36.639 164.500 47.462 165.274 C 53.415 165.700, 58.389 165.925, 58.515 165.774 C 58.642 165.623, 58.056 148.572, 57.215 127.882 C 55.772 92.420, 55.893 85.383, 57.904 87.583 C 58.365 88.087, 62.700 99.762, 67.536 113.526 L 76.329 138.552 81.415 140.526 L 86.500 142.500 87.500 161.927 L 88.500 181.355 101.302 153.535 C 108.344 138.234, 113.893 125.163, 113.634 124.489 C 113.376 123.815, 108.355 115.799, 102.478 106.675 C 93.270 92.380, 91.316 89.929, 88.345 88.949 C 83.816 87.454, 84.553 85.397, 89.458 85.841 C 91.531 86.029, 93.064 85.781, 92.864 85.291 C 92.664 84.801, 90.058 80.541, 87.074 75.825 L 81.648 67.250 75.743 69.244 C 72.452 70.355, 69.484 70.853, 69.039 70.369 C 68.600 69.891, 66.798 64.550, 65.035 58.500 C 62.504 49.814, 53.841 26.945, 52.398 25.137 C 51.968 24.599, 39.824 22.076, 37.468 22.035 C 35.627 22.003, 35.038 23.905, 31.208 42.250 M 60.112 28.119 C 60.945 29.428, 65.829 37.145, 70.964 45.266 C 76.100 53.387, 80.572 59.768, 80.901 59.446 C 81.230 59.125, 82.663 52.807, 84.084 45.408 L 86.668 31.955 84.584 31.484 C 83.438 31.225, 78 30.082, 72.500 28.945 C 67 27.808, 61.622 26.621, 60.549 26.307 C 58.721 25.773, 58.693 25.887, 60.112 28.119 M 132 33.795 C 132 38.314, 131.037 37.877, 148 41.053 C 151.575 41.723, 154.825 42.557, 155.222 42.907 C 155.858 43.468, 148.555 101.271, 147.388 104.917 C 147.064 105.930, 146.627 106.027, 145.857 105.257 C 145.086 104.486, 145.930 95.816, 148.817 74.850 C 151.038 58.720, 152.683 45.349, 152.472 45.138 C 152.261 44.927, 148.243 43.969, 143.544 43.009 C 137.057 41.683, 135 41.560, 135 42.494 C 135 46.581, 142.181 92.872, 143.084 94.603 C 143.979 96.319, 143.060 100.201, 138.090 115.719 C 134.741 126.176, 132 135.426, 132 136.273 C 132 137.120, 133.365 140.856, 135.033 144.574 C 138.893 153.178, 137.567 155.248, 132.764 148.115 L 129.335 143.024 125.197 156.208 C 122.922 163.460, 121.175 169.509, 121.316 169.649 C 121.653 169.987, 166.356 174.977, 166.624 174.708 C 166.737 174.594, 167.160 155.703, 167.563 132.730 L 168.295 90.959 174.984 61.730 L 181.673 32.500 176.086 31.853 C 173.014 31.497, 161.838 30.880, 151.250 30.481 L 132 29.756 132 33.795 M 59.482 34.500 C 60.413 36.700, 61.648 39.625, 62.227 41 C 62.805 42.375, 64.948 48.900, 66.987 55.500 C 70.992 68.461, 70.872 68.342, 77.203 65.650 L 79.907 64.500 69.622 48.252 C 58.313 30.385, 56.972 28.567, 59.482 34.500 M 86.570 47.250 C 85.102 55.088, 83.849 62.400, 83.785 63.500 C 83.693 65.098, 94.120 83.144, 96.938 86.264 C 97.429 86.807, 112.496 89.981, 114.668 89.999 C 115.067 90.002, 120.172 73.846, 119.853 73.590 C 119.659 73.434, 116.013 72.052, 111.750 70.519 C 107.487 68.986, 104 67.572, 104 67.376 C 104 67.180, 107.375 61.582, 111.500 54.935 C 115.625 48.288, 119 42.512, 119 42.099 C 119 39.518, 113.669 37.126, 103.500 35.143 C 97.450 33.964, 91.767 32.999, 90.870 32.999 C 89.565 33, 88.709 35.839, 86.570 47.250 M 121.851 40.320 C 122.687 41.327, 121.184 44.471, 115.520 53.567 C 111.436 60.127, 108.423 65.823, 108.824 66.224 C 109.226 66.626, 112.103 67.831, 115.219 68.903 L 120.884 70.852 124.942 58.675 C 127.174 51.977, 129 45.091, 129 43.374 C 129 40.675, 128.575 40.165, 125.875 39.625 C 121.271 38.704, 120.605 38.819, 121.851 40.320 M 132 61.833 C 132 70.725, 131.830 78, 131.622 78 C 131.414 78, 129.629 77.325, 127.654 76.500 C 125.680 75.675, 123.688 75, 123.229 75 C 122.114 75, 117.648 88.979, 118.491 89.832 C 119.220 90.572, 138.294 93.967, 138.849 93.456 C 139.270 93.069, 132.945 46.677, 132.390 46.083 C 132.175 45.854, 132 52.942, 132 61.833 M 126.139 64.001 C 123.734 71.469, 123.824 72.459, 126.984 73.286 C 128.887 73.783, 129 73.342, 129 65.406 C 129 60.783, 128.864 57, 128.697 57 C 128.530 57, 127.379 60.151, 126.139 64.001 M 98.747 96.005 C 102.375 101.810, 106.989 108.058, 105.389 105 C 103.757 101.881, 95.884 90, 95.448 90 C 95.198 90, 96.682 92.702, 98.747 96.005 M 100.339 91.438 C 100.564 92.022, 106.492 101.500, 113.513 112.500 C 120.535 123.500, 126.028 131.825, 125.720 131 C 125.412 130.175, 122.162 122.992, 118.498 115.038 C 111.976 100.882, 111.520 98.961, 113.480 93.898 C 113.995 92.568, 112.894 92.132, 107.016 91.336 C 102.060 90.665, 100.053 90.696, 100.339 91.438 M 116.005 95.487 C 115.452 96.941, 115 98.760, 115 99.531 C 115 100.748, 126.220 125.997, 128.847 130.692 C 129.584 132.008, 130.979 128.739, 134.902 116.511 C 137.706 107.771, 140 99.814, 140 98.829 C 140 96.910, 139.286 96.660, 129 94.990 C 125.425 94.409, 121.265 93.689, 119.755 93.389 C 117.466 92.934, 116.843 93.283, 116.005 95.487 M 109 112 C 109.589 113.100, 110.295 114, 110.570 114 C 110.845 114, 110.589 113.100, 110 112 C 109.411 110.900, 108.705 110, 108.430 110 C 108.155 110, 108.411 110.900, 109 112" stroke="none" fill="black" fill-rule="evenodd"/>
</svg>