<svg xmlns="http://www.w3.org/2000/svg" width="200" height="200" viewBox="0 0 200 200" version="1.1">
	<path d="M 53 36.605 C 42.825 47.923, 33.868 58.063, 33.096 59.139 C 31.913 60.789, 31.892 62.382, 32.963 69.298 L 34.234 77.500 24.522 107.322 C 19.181 123.724, 14.966 137.290, 15.155 137.469 C 15.345 137.647, 20.450 134.935, 26.500 131.442 L 37.500 125.091 37.787 132.796 C 37.945 137.033, 38.395 150.850, 38.787 163.500 L 39.500 186.500 54.293 171.370 L 69.086 156.239 66.485 126.011 C 65.054 109.386, 64.048 95.619, 64.249 95.418 C 64.609 95.058, 88.039 103.706, 88.821 104.487 C 89.042 104.709, 86.686 111.503, 83.585 119.585 C 80.485 127.668, 78.156 134.489, 78.411 134.744 C 78.666 134.999, 84.416 133.361, 91.189 131.104 C 97.961 128.847, 103.864 127, 104.304 127 C 104.745 127, 98.782 136.368, 91.053 147.817 C 77.758 167.511, 75.778 171, 77.897 171 C 78.391 171, 87.954 164.295, 99.147 156.099 C 110.341 147.904, 119.649 141.341, 119.832 141.515 C 120.015 141.688, 119.277 144.963, 118.194 148.792 C 117.032 152.898, 113.500 160.371, 109.581 167.012 C 105.928 173.205, 103.070 178.403, 103.231 178.564 C 103.392 178.726, 113.779 180.319, 126.312 182.105 L 149.100 185.353 161.335 172.426 C 168.064 165.317, 175.688 157.207, 178.277 154.405 L 182.984 149.310 178.627 127.623 C 176.230 115.695, 173.989 105.655, 173.646 105.313 C 173.303 104.970, 168.538 105.434, 163.057 106.345 C 151.570 108.252, 151 108.291, 151 107.158 C 151 106.695, 153.813 105.497, 157.250 104.494 C 160.688 103.492, 164.027 102.183, 164.670 101.586 C 165.314 100.989, 167.902 95.345, 170.420 89.043 L 175 77.587 175 47.710 C 175 24.282, 174.731 17.923, 173.752 18.249 C 172.809 18.564, 160.211 62.100, 154.634 84.323 C 154.022 86.760, 154.022 86.760, 147.761 85.476 C 144.317 84.769, 138.976 83.679, 135.892 83.054 C 126.666 81.184, 126.703 80.439, 137.043 59.971 C 142.489 49.192, 145.519 42.125, 144.976 41.471 C 144.420 40.802, 146.692 37.571, 151.171 32.662 C 155.061 28.399, 157.957 24.623, 157.606 24.272 C 157.023 23.689, 110.333 20.147, 101.870 20.044 L 98.240 20 92.491 43.037 C 89.328 55.708, 86.925 66.258, 87.150 66.483 C 89.116 68.450, 119.589 82.386, 123.750 83.222 C 128.799 84.236, 129.264 84.587, 131.566 89.129 L 134.013 93.959 131.756 94.469 C 130.515 94.750, 124.456 95.813, 118.290 96.831 L 107.080 98.682 83.897 86.841 C 71.146 80.328, 60.553 75, 60.357 75 C 60.161 75, 60 75.658, 60 76.463 C 60 77.371, 68.886 82.387, 83.420 89.682 L 106.840 101.438 120.670 99.207 C 128.277 97.980, 134.830 96.981, 135.233 96.988 C 135.636 96.995, 137.064 99.165, 138.405 101.812 L 140.843 106.624 127.921 110.447 C 115.884 114.009, 113.706 115.082, 115.842 116.402 C 116.305 116.688, 122.849 115.881, 130.385 114.608 C 143.485 112.395, 144.129 112.373, 145.048 114.089 C 145.754 115.409, 144.019 123.162, 138.504 143.320 C 134.377 158.409, 131 171.084, 131 171.487 C 131 171.890, 135.530 168.008, 141.066 162.860 C 146.602 157.712, 153.848 151.025, 157.167 148 L 163.202 142.500 156.015 129.161 C 146.622 111.728, 146.594 111.852, 160.559 109.560 C 166.387 108.604, 171.346 108.013, 171.581 108.247 C 171.815 108.481, 173.799 117.571, 175.989 128.447 C 179.837 147.549, 179.912 148.297, 178.201 150.472 C 177.227 151.710, 170.074 159.387, 162.306 167.532 L 148.183 182.341 127.599 179.526 L 107.016 176.711 108.874 173.605 C 117.263 159.588, 119.154 155.519, 121.913 145.555 C 123.579 139.535, 124.843 134.517, 124.721 134.404 C 124.600 134.292, 115.388 140.892, 104.250 149.073 C 93.112 157.253, 84 163.739, 84 163.486 C 84 163.233, 90.003 154.132, 97.340 143.263 C 104.677 132.393, 111.003 122.937, 111.399 122.249 C 111.795 121.562, 105.701 123.256, 97.858 126.015 C 90.014 128.775, 83.290 130.912, 82.916 130.766 C 82.542 130.620, 84.612 124.425, 87.516 117 C 90.420 109.575, 92.505 103.220, 92.148 102.878 C 91.102 101.874, 61.643 91.024, 61.191 91.476 C 60.964 91.703, 61.999 106.105, 63.491 123.482 L 66.203 155.076 54.386 167.288 C 47.886 174.005, 42.222 179.648, 41.799 179.828 C 41.376 180.009, 40.910 166.670, 40.765 150.186 L 40.500 120.215 30.500 126.061 C 25 129.277, 20.197 131.928, 19.827 131.954 C 19.456 131.979, 23.199 119.962, 28.143 105.250 L 37.134 78.500 35.931 70.409 C 35.269 65.959, 34.901 61.844, 35.114 61.265 C 35.521 60.154, 65.904 26.155, 68.175 24.269 C 69.271 23.358, 69.364 26.024, 68.710 39.701 L 67.920 56.234 72.709 62.522 C 76.984 68.136, 79 69.581, 79 67.031 C 79 66.563, 77.151 63.840, 74.891 60.981 L 70.782 55.783 71.432 39.642 C 71.789 30.764, 72.328 21.813, 72.629 19.750 C 72.930 17.688, 72.799 16.006, 72.338 16.014 C 71.877 16.021, 63.175 25.287, 53 36.605 M 95.166 43.416 C 92.325 54.644, 90 64.091, 90 64.409 C 90 65.528, 119.547 79.728, 123.307 80.416 L 127.114 81.112 120.471 68.556 C 115.737 59.608, 114.263 56, 115.341 56 C 116.220 56, 118.938 59.844, 121.831 65.178 L 126.807 74.356 133.438 61.125 C 138.395 51.231, 139.569 48.160, 138.090 48.952 C 137.002 49.534, 135.835 50.458, 135.497 51.005 C 134.673 52.338, 132 52.278, 132 50.927 C 132 50.336, 136.711 44.623, 142.469 38.229 C 148.227 31.836, 152.828 26.494, 152.692 26.359 C 152.382 26.048, 107.707 23, 103.467 23 L 100.332 23 95.166 43.416 M 164.654 58.084 C 160.436 73.530, 157.240 86.580, 157.552 87.084 C 157.863 87.588, 158.955 88, 159.977 88 C 166.650 88, 166.687 91.707, 160.023 92.591 C 155.128 93.241, 155.023 93.329, 153.692 97.876 C 152.948 100.419, 152.408 102.607, 152.492 102.739 C 152.575 102.870, 155.024 102.195, 157.933 101.239 L 163.222 99.500 167.476 88.881 L 171.729 78.262 172.192 54.131 C 172.446 40.859, 172.580 30, 172.488 30 C 172.397 30, 168.871 42.638, 164.654 58.084 M 133 85.675 C 133 85.898, 133.878 87.801, 134.951 89.904 L 136.902 93.729 144.590 92.392 C 151.933 91.115, 153.837 90.478, 152.917 89.605 C 152.292 89.013, 133 85.206, 133 85.675 M 144.522 95.173 C 141.784 95.696, 139.401 96.266, 139.226 96.440 C 139.051 96.615, 139.890 98.779, 141.091 101.250 C 142.867 104.906, 143.666 105.646, 145.386 105.226 C 148.516 104.463, 149.696 103.265, 150.309 100.228 C 150.612 98.727, 151.165 96.713, 151.537 95.750 C 152.299 93.779, 151.972 93.752, 144.522 95.173 M 146 108 C 144.718 108.828, 144.754 108.972, 146.250 108.985 C 147.213 108.993, 148 108.550, 148 108 C 148 106.780, 147.887 106.780, 146 108 M 141.740 141.721 C 138.643 153.117, 136.288 162.621, 136.507 162.841 C 136.727 163.060, 142.041 158.435, 148.317 152.564 L 159.728 141.887 154.168 131.444 C 151.110 125.700, 148.330 121, 147.990 121 C 147.650 121, 144.837 130.324, 141.740 141.721" stroke="none" fill="black" fill-rule="evenodd"/>
</svg>