<svg xmlns="http://www.w3.org/2000/svg" width="200" height="200" viewBox="0 0 200 200" version="1.1">
	<path d="M 94 11.144 C 67.961 14.109, 65.443 14.117, 50.750 11.281 C 48.333 10.814, 48 11.057, 48 13.287 C 48 16.186, 48.101 16.161, 29 18.098 C 22.675 18.740, 17.340 19.402, 17.145 19.571 C 16.950 19.739, 20.953 26.462, 26.040 34.510 L 35.291 49.143 42.645 48.454 L 50 47.765 50 53.357 C 50 58.589, 49.802 59.051, 46.924 60.539 L 43.848 62.130 34.321 54.968 C 29.081 51.030, 24.457 48.188, 24.045 48.653 C 23.040 49.792, 19.950 121.155, 19.978 142.600 L 20 159.700 39.750 167.330 L 59.500 174.959 84.414 178.482 C 98.117 180.419, 109.436 181.891, 109.568 181.752 C 109.699 181.613, 113.824 173.850, 118.736 164.500 C 123.647 155.150, 131.214 140.750, 135.551 132.500 L 143.437 117.500 145.087 129.661 L 146.738 141.821 156.619 151.160 C 162.053 156.296, 169.684 163.536, 173.576 167.249 C 180.331 173.694, 183 175.297, 183 172.910 C 183 172.310, 176.250 156.448, 167.999 137.660 L 152.998 103.500 152.999 95.904 C 153 91.726, 153.289 84.238, 153.642 79.265 L 154.284 70.223 168.892 66.486 C 176.926 64.430, 184.400 62.400, 185.500 61.974 L 187.500 61.200 185.500 60.399 C 184.400 59.958, 173.393 55.492, 161.039 50.474 L 138.579 41.350 131.541 24.675 C 125.034 9.258, 124.314 8.009, 122.001 8.120 C 120.626 8.186, 108.025 9.547, 94 11.144 M 98.500 13.418 C 87.500 14.613, 79.400 15.875, 80.500 16.221 C 81.600 16.568, 85.763 17.376, 89.750 18.016 C 93.737 18.657, 97 19.619, 97 20.154 C 97 21.258, 93.800 42.397, 93.588 42.691 C 93.410 42.939, 56.631 47, 54.567 47 C 53.353 47, 53 48.127, 53 52 C 53 54.750, 53.189 57, 53.420 57 C 53.651 57, 59.051 54.551, 65.420 51.559 L 77 46.117 77 53.912 L 77 61.706 82 61.226 C 85.047 60.933, 87 61.144, 87 61.766 C 87 63.065, 84.587 63.996, 81.168 64.015 C 76.859 64.040, 76.253 65.088, 75.848 73.218 C 75.637 77.463, 75.740 80.613, 76.077 80.218 C 76.414 79.823, 79.066 76.013, 81.970 71.750 C 84.874 67.487, 87.569 64, 87.958 64 C 90.041 64, 89.290 65.883, 84.241 73.316 C 81.185 77.817, 79.154 81.050, 79.728 80.500 C 82.662 77.691, 101.404 53.322, 106.783 45.322 C 110.176 40.276, 113.416 35.861, 113.983 35.510 C 116.245 34.112, 115.991 38.743, 112.600 60.649 C 110.655 73.217, 108.976 84.850, 108.870 86.500 C 108.727 88.708, 110.962 93.274, 117.333 103.794 L 125.990 118.088 106.245 145.431 C 95.385 160.470, 86.333 172.621, 86.129 172.432 C 85.924 172.244, 86.541 164.758, 87.499 155.795 C 88.822 143.422, 89.004 137.954, 88.255 133.075 C 87.381 127.377, 87.549 125.739, 89.745 118.588 L 92.222 110.524 87.861 106.637 C 78.401 98.205, 77.774 97.892, 71.786 98.595 C 66.398 99.229, 66.263 99.326, 61.912 105.742 L 57.500 112.248 57.500 137.123 C 57.500 154.962, 57.180 161.999, 56.369 162 C 55.137 162, 54.401 153.408, 53.499 128.500 C 53.200 120.250, 52.712 110.756, 52.414 107.403 L 51.874 101.306 46.871 101.786 L 41.867 102.267 46.625 94.913 L 51.382 87.559 51.115 79.042 C 50.955 73.927, 50.379 70.204, 49.674 69.723 C 48.590 68.982, 45.446 69.181, 34.250 70.696 C 28.198 71.516, 28.600 68.998, 35 66 C 37.750 64.712, 40 63.372, 40 63.022 C 40 62.159, 27.003 52.664, 26.504 53.162 C 25.528 54.139, 22.932 121.455, 23.201 138.825 L 23.500 158.151 41.500 165.143 L 59.500 172.136 83.500 175.558 C 103.971 178.476, 107.655 178.771, 108.555 177.564 C 109.136 176.786, 117.461 161.089, 127.055 142.682 C 138.425 120.870, 144.709 109.786, 145.101 110.857 C 145.431 111.761, 146.501 118.800, 147.478 126.500 L 149.254 140.500 159.877 150.579 C 165.720 156.123, 172.175 162.121, 174.223 163.909 L 177.946 167.160 172.095 153.830 C 168.877 146.499, 162.606 132.214, 158.161 122.088 L 150.078 103.675 150.692 85.949 L 151.307 68.222 161.670 65.526 C 181.957 60.248, 182.442 62.009, 157.981 52.145 L 136.544 43.500 129.669 27.250 C 123.729 13.208, 122.503 11.017, 120.647 11.122 C 119.466 11.189, 109.500 12.222, 98.500 13.418 M 51 15 C 51 15.550, 51.450 16, 52 16 C 52.550 16, 53 15.550, 53 15 C 53 14.450, 52.550 14, 52 14 C 51.450 14, 51 14.450, 51 15 M 56.500 17.907 L 51.500 18.500 51.866 31 C 52.067 37.875, 52.407 43.690, 52.621 43.922 C 53.420 44.788, 90.054 40.637, 90.847 39.590 C 91.682 38.487, 94.402 21.992, 93.817 21.574 C 93.643 21.450, 87.650 20.365, 80.500 19.164 C 67.316 16.948, 65.421 16.849, 56.500 17.907 M 32.500 20.364 C 26.513 21.044, 22.500 21.946, 22.500 22.611 C 22.500 23.223, 25.650 28.774, 29.500 34.948 L 36.500 46.173 42.967 45.536 C 46.523 45.186, 49.483 44.810, 49.543 44.700 C 49.603 44.590, 49.393 38.875, 49.076 32 L 48.500 19.500 45.500 19.364 C 43.850 19.290, 38 19.740, 32.500 20.364 M 107.045 49.716 C 96.969 64.211, 72.670 94.084, 71.930 92.887 C 71.456 92.120, 70.803 92.500, 69.991 94.017 C 68.778 96.284, 68.808 96.298, 73.513 95.653 C 78.254 95.003, 78.268 95.011, 86.630 102.051 C 91.233 105.928, 95 109.448, 95 109.874 C 95 110.299, 93.903 114.313, 92.562 118.794 C 90.372 126.109, 90.230 127.626, 91.169 133.656 C 91.910 138.418, 91.892 142.881, 91.107 149.003 C 89.048 165.056, 88.452 165.373, 106 141.093 C 114.800 128.917, 122 118.469, 122 117.875 C 122 117.281, 118.400 110.812, 114 103.500 C 108.852 94.945, 106.013 89.188, 106.036 87.352 C 106.056 85.784, 107.550 74.938, 109.356 63.250 C 111.161 51.563, 112.587 42, 112.524 42 C 112.461 42, 109.996 45.472, 107.045 49.716 M 62.750 55.756 C 54.514 59.625, 53 60.699, 53 62.668 C 53 65.354, 52.826 65.330, 62.308 63.963 C 74.825 62.159, 74 62.687, 74 56.481 C 74 53.466, 73.662 51.040, 73.250 51.088 C 72.838 51.137, 68.112 53.237, 62.750 55.756 M 47.992 63.042 C 46.669 63.891, 46.669 64.109, 47.992 64.958 C 48.943 65.570, 49.830 65.570, 50.442 64.958 C 51.906 63.494, 49.824 61.864, 47.992 63.042 M 42 66 C 40.718 66.828, 40.754 66.972, 42.250 66.985 C 43.212 66.993, 44 66.550, 44 66 C 44 64.780, 43.887 64.780, 42 66 M 63.167 66.531 C 58.584 67.246, 54.535 68.131, 54.169 68.498 C 53.803 68.864, 54.402 69.834, 55.502 70.653 C 56.601 71.472, 58.552 72.921, 59.838 73.873 L 62.176 75.604 58.236 82.052 C 54.741 87.773, 54.349 89.047, 54.757 93.353 C 55.212 98.148, 55.254 98.199, 58.234 97.603 C 59.893 97.271, 62.030 97, 62.983 97 C 63.984 97, 66.333 94.569, 68.539 91.250 C 72.187 85.761, 72.386 85.035, 72.930 75.250 C 73.296 68.671, 73.142 65.040, 72.500 65.114 C 71.950 65.178, 67.750 65.815, 63.167 66.531 M 54.007 78.242 L 54.013 83.500 56 80.500 C 58.495 76.733, 58.495 75.790, 56 74.232 C 54.095 73.042, 54 73.233, 54.007 78.242 M 49.719 95.142 C 47.795 98.520, 48.020 99.590, 50.457 98.655 C 51.378 98.301, 52 96.841, 52 95.031 C 52 93.364, 51.888 92.003, 51.750 92.006 C 51.612 92.010, 50.698 93.421, 49.719 95.142 M 56.750 100.689 C 55.416 101.038, 55 102.198, 55 105.573 C 55 108.008, 55.149 110, 55.330 110 C 55.817 110, 62 101.274, 62 100.587 C 62 99.936, 59.442 99.986, 56.750 100.689" stroke="none" fill="black" fill-rule="evenodd"/>
</svg>