<svg xmlns="http://www.w3.org/2000/svg" width="200" height="200" viewBox="0 0 200 200" version="1.1">
	<path d="M 116.537 36.888 L 107.661 63.640 100.664 66.353 C 96.815 67.845, 93.352 68.714, 92.968 68.283 C 91.089 66.175, 90.138 54.821, 90.891 43.500 L 91.689 31.500 86.781 22.750 C 84.081 17.938, 81.226 14, 80.436 14 C 79.646 14, 79 14.144, 79 14.321 C 79 14.497, 80.800 23.578, 83 34.500 C 85.409 46.459, 86.972 56.972, 86.930 60.929 L 86.859 67.500 85.513 64 C 84.773 62.075, 79.932 51.275, 74.754 40 C 68.622 26.648, 64.758 19.387, 63.670 19.177 C 62.125 18.878, 62 23.353, 62 78.992 L 62 139.130 58.021 136.315 L 54.043 133.500 54.018 112 C 54.005 100.175, 54.504 82.271, 55.127 72.214 C 55.751 62.157, 56.028 53.695, 55.743 53.410 C 55.458 53.125, 48.610 52.578, 40.525 52.196 L 25.824 51.500 26.662 80 C 27.611 112.269, 27.736 142.375, 27 161.500 L 26.500 174.500 38 175.326 L 49.500 176.153 69.500 165.687 C 88.805 155.585, 111.606 145.272, 112.549 146.216 C 112.965 146.632, 114.903 152.969, 120.969 173.750 L 123.085 181 142.292 180.926 C 152.857 180.885, 163.451 180.548, 165.835 180.176 L 170.170 179.500 176.585 165.672 C 180.113 158.067, 183 151.283, 183 150.598 C 183 149.488, 176.256 133.072, 175.408 132.118 C 175.221 131.907, 169.115 136.747, 161.839 142.872 C 154.563 148.998, 148.293 153.670, 147.906 153.255 C 147.519 152.840, 145.507 144.526, 143.434 134.780 L 139.667 117.060 144.083 101.135 L 148.500 85.209 157.500 82.537 C 179.674 75.955, 189.007 72.820, 188.564 72.103 C 188.301 71.679, 181.507 67.138, 173.466 62.013 L 158.846 52.695 149.923 61.576 C 145.015 66.461, 141.006 69.793, 141.014 68.979 C 141.022 68.166, 142.112 58.277, 143.436 47.005 C 144.760 35.733, 145.766 26.481, 145.672 26.444 C 145.577 26.408, 141.450 23, 136.500 18.872 C 131.550 14.743, 127.030 11.089, 126.456 10.751 C 125.817 10.375, 121.977 20.492, 116.537 36.888 M 126.724 15.701 C 126.474 16.141, 122.589 27.585, 118.090 41.134 L 109.911 65.768 101.616 68.899 L 93.322 72.029 96.106 86.534 C 98.769 100.407, 99.285 101.852, 107.954 119.678 C 112.939 129.929, 116.886 138.447, 116.725 138.608 C 116.565 138.769, 111.048 138.483, 104.467 137.974 C 97.885 137.464, 91.092 137.037, 89.370 137.024 L 86.240 137 86.646 125.750 C 87.557 100.471, 88.132 94.114, 89.462 94.624 C 90.301 94.946, 90.624 96.559, 90.401 99.307 C 90.214 101.613, 89.857 110.340, 89.608 118.700 L 89.154 133.901 93.327 134.403 C 95.622 134.680, 100.971 135.145, 105.213 135.437 L 112.927 135.968 104.741 119.400 C 97.083 103.898, 96.360 101.873, 93.523 87.955 C 91.132 76.233, 90.204 73.256, 89.145 73.910 C 88.026 74.602, 88.069 76.041, 89.400 82.478 C 91.321 91.765, 91.299 91, 89.646 91 C 88.709 91, 87.484 86.970, 85.675 77.937 C 83.355 66.352, 82.039 62.647, 74.042 45.187 L 65.026 25.500 65.013 85.264 L 65 145.029 58 139.790 L 51 134.552 50.997 114.026 C 50.996 102.737, 51.516 85.268, 52.154 75.207 C 52.848 64.269, 52.950 56.568, 52.407 56.053 C 51.908 55.580, 46.438 55.029, 40.250 54.830 L 29 54.468 28.997 64.984 C 28.996 70.768, 29.491 88.194, 30.098 103.709 C 30.894 124.082, 30.900 137.398, 30.118 151.643 C 29.522 162.492, 29.153 171.486, 29.298 171.631 C 29.442 171.775, 33.597 172.290, 38.530 172.774 L 47.500 173.654 67.637 163.342 C 85.647 154.120, 113.816 141.405, 114.482 142.197 C 114.622 142.364, 116.178 147.450, 117.940 153.500 C 119.702 159.550, 122.031 167.537, 123.114 171.250 L 125.085 178 146.393 178 L 167.702 178 173.851 164.996 C 177.233 157.844, 180.001 151.432, 180.003 150.746 C 180.008 148.595, 174.746 137, 173.765 137 C 173.250 137, 166.968 142.008, 159.804 148.130 C 151.567 155.168, 146.521 158.843, 146.078 158.126 C 145.692 157.502, 143.446 147.968, 141.086 136.939 L 136.795 116.887 141.535 99.978 L 146.275 83.070 155.888 80.113 C 161.174 78.487, 169.474 75.958, 174.331 74.493 C 179.189 73.028, 182.909 71.575, 182.598 71.265 C 182.288 70.955, 176.964 67.430, 170.767 63.433 L 159.500 56.166 148.783 66.783 C 142.889 72.622, 137.882 77.197, 137.658 76.950 C 137.433 76.702, 138.521 65.491, 140.076 52.035 C 141.631 38.580, 142.813 27.535, 142.702 27.492 C 142.591 27.449, 139.800 25.173, 136.500 22.433 C 127.831 15.236, 127.226 14.819, 126.724 15.701 M 84.058 25 C 84.076 25.825, 84.901 30.325, 85.891 35 L 87.690 43.500 88.429 38 C 89.081 33.150, 88.864 31.968, 86.596 28 C 85.181 25.525, 84.039 24.175, 84.058 25" stroke="none" fill="black" fill-rule="evenodd"/>
</svg>