<svg xmlns="http://www.w3.org/2000/svg" width="200" height="200" viewBox="0 0 200 200" version="1.1">
	<path d="M 72.020 11.882 L 32.541 15.500 35.346 17.543 L 38.151 19.585 27.575 43.968 C 21.759 57.379, 17 68.984, 17 69.759 C 17 73.903, 20.073 68.219, 29.041 47.483 C 34.508 34.842, 39.323 23.739, 39.741 22.809 C 40.386 21.372, 42.032 22.195, 50.739 28.309 C 56.370 32.264, 60.870 35.779, 60.739 36.121 C 60.607 36.462, 52.288 43.549, 42.250 51.869 C 25.724 65.568, 22.243 69, 24.874 69 C 25.354 69, 34.216 61.982, 44.567 53.405 C 62.542 38.509, 63.426 37.915, 64.283 40.155 C 71.225 58.301, 72.881 64.001, 71.220 64.030 C 69.845 64.053, 41.500 66.876, 41.500 66.989 C 41.500 67.006, 35.686 78.378, 28.579 92.260 L 15.658 117.500 22.786 126.807 C 30.400 136.750, 29.662 134.957, 38.525 165 C 40.553 171.875, 42.333 177.631, 42.481 177.792 C 42.798 178.135, 78.024 169.358, 78.382 168.847 C 78.516 168.656, 83.403 161.075, 89.242 152 L 99.858 135.500 99.334 115.500 L 98.811 95.500 109.136 82.814 C 114.816 75.837, 119.548 70.215, 119.653 70.320 C 119.759 70.425, 119.389 82.209, 118.831 96.506 L 117.818 122.500 107.034 143 C 101.104 154.275, 95.062 165.863, 93.609 168.750 L 90.966 174 100.347 174 L 109.729 174 125.603 147.500 C 134.335 132.925, 141.713 121, 141.999 121 C 142.286 121, 145.855 135.063, 149.931 152.250 C 154.006 169.438, 157.648 184.113, 158.024 184.863 C 158.471 185.757, 162.384 180.845, 169.397 170.582 C 175.276 161.977, 180.333 154.297, 180.633 153.514 C 180.948 152.693, 174.828 142.764, 166.183 130.071 L 151.186 108.052 150.019 86.433 C 149.378 74.543, 149.050 64.616, 149.292 64.375 C 149.534 64.133, 153.227 69.814, 157.500 77 C 161.773 84.186, 165.423 89.910, 165.612 89.722 C 166.183 89.150, 182.040 46.702, 181.760 46.493 C 181.617 46.387, 170.250 47.725, 156.500 49.467 C 142.750 51.210, 131.428 52.605, 131.340 52.568 C 131.252 52.530, 133.594 42.617, 136.544 30.537 C 139.494 18.457, 141.723 8.389, 141.497 8.163 C 141.271 7.938, 140.504 7.993, 139.793 8.286 C 139.082 8.579, 120.950 41.682, 99.500 81.848 L 60.500 154.878 59.151 147.189 C 57.181 135.962, 57.381 121.866, 59.626 113.608 L 61.500 106.716 73.965 101.964 C 80.820 99.351, 86.576 96.773, 86.755 96.235 C 86.934 95.697, 84.783 88.854, 81.975 81.027 C 79.167 73.201, 77.011 66.656, 77.185 66.482 C 77.359 66.308, 83.920 65.840, 91.767 65.442 C 105.161 64.762, 106.063 64.589, 106.523 62.609 C 106.792 61.449, 109.871 48.688, 113.365 34.250 L 119.718 8 115.609 8.132 C 113.349 8.204, 93.734 9.892, 72.020 11.882 M 84.691 13.521 C 71.046 14.766, 59.661 16.006, 59.390 16.277 C 59.119 16.548, 59.933 17.886, 61.199 19.251 C 63.199 21.408, 65.394 22.021, 78 23.945 C 85.975 25.162, 93.441 26.378, 94.591 26.648 C 96.544 27.105, 96.211 28.028, 89.591 40.546 C 85.691 47.921, 82.275 53.949, 82 53.941 C 81.725 53.934, 77.499 48.082, 72.610 40.937 C 67.720 33.793, 63.561 28.105, 63.368 28.298 C 63.175 28.491, 65.876 36.473, 69.370 46.034 L 75.723 63.419 80.612 63.201 C 83.300 63.082, 89.632 62.711, 94.682 62.378 L 103.864 61.772 109.458 38.636 C 112.535 25.911, 115.318 14.488, 115.643 13.250 C 116.365 10.496, 118.013 10.482, 84.691 13.521 M 46.500 16.925 L 40.500 17.515 47.082 18.757 C 55.901 20.422, 57.356 20.371, 56.607 18.418 C 56.273 17.548, 56 16.648, 56 16.418 C 56 16.188, 55.212 16.076, 54.250 16.168 C 53.288 16.261, 49.800 16.601, 46.500 16.925 M 117.499 54.210 C 107.734 72.519, 98.865 88.962, 97.791 90.750 C 96.716 92.537, 96.060 94, 96.333 94 C 96.606 94, 102.570 86.803, 109.588 78.007 C 116.605 69.210, 122.455 62.123, 122.588 62.257 C 122.721 62.390, 122.366 76, 121.799 92.500 L 120.768 122.500 108.384 146.141 C 101.573 159.143, 96 170.056, 96 170.391 C 96 170.726, 98.813 170.987, 102.250 170.971 L 108.500 170.942 124.904 143.435 C 133.927 128.306, 141.690 115.691, 142.156 115.403 C 143.521 114.560, 144.782 118.883, 152.105 149.500 C 155.919 165.450, 159.156 178.874, 159.297 179.331 C 159.540 180.116, 178 153.769, 178 152.638 C 178 152.346, 171.312 142.296, 163.137 130.304 L 148.275 108.500 147.132 85.500 C 145.708 56.866, 145.707 57, 147.316 57 C 148.040 57, 152.156 62.850, 156.462 70 C 160.768 77.150, 164.568 83, 164.907 83 C 165.246 83, 168.265 75.688, 171.616 66.750 C 176.662 53.294, 177.434 50.454, 176.105 50.231 C 175.222 50.083, 164.150 51.263, 151.500 52.853 C 138.850 54.444, 128.343 55.608, 128.150 55.440 C 127.958 55.271, 129.615 47.574, 131.833 38.333 C 134.051 29.093, 135.728 21.395, 135.560 21.226 C 135.391 21.058, 127.264 35.900, 117.499 54.210 M 49.115 23.826 C 50.427 24.830, 53.685 27.134, 56.356 28.946 C 61.627 32.524, 61.616 32.539, 58.946 25.394 C 58.199 23.394, 54.073 22.043, 48.615 22.011 C 46.954 22.001, 47.013 22.216, 49.115 23.826 M 71.640 34.750 C 82.986 51.168, 81.018 50.564, 87.019 39.465 C 89.872 34.189, 91.994 29.661, 91.736 29.403 C 91.185 28.852, 69.341 25.016, 66.701 25.007 C 65.309 25.001, 66.426 27.205, 71.640 34.750 M 54 68.362 L 43.500 69.500 31.154 93.312 L 18.808 117.124 25.777 126.312 L 32.745 135.500 38.488 155.091 L 44.231 174.681 60.376 170.674 L 76.521 166.667 86.839 150.624 L 97.156 134.582 96.328 114.872 L 95.500 95.162 77.651 128.581 C 67.834 146.961, 59.485 162, 59.099 162 C 58.712 162, 57.356 154.437, 56.085 145.193 C 53.662 127.574, 53.737 125.849, 57.582 110.530 L 58.237 107.922 54.077 109.586 C 51.789 110.501, 49.745 111.078, 49.534 110.868 C 49.324 110.657, 52.887 101.263, 57.452 89.992 C 63.251 75.676, 66.272 69.397, 67.473 69.158 C 68.747 68.905, 69.043 69.294, 68.612 70.658 C 67.303 74.808, 62.031 102.365, 62.464 102.797 C 62.993 103.327, 82.913 95.949, 83.495 95.008 C 83.703 94.672, 81.707 88.345, 79.060 80.948 L 74.247 67.500 69.373 67.362 C 66.693 67.286, 59.775 67.736, 54 68.362 M 57.843 96.316 C 55.850 101.367, 54.362 105.654, 54.535 105.841 C 54.708 106.029, 55.724 105.905, 56.793 105.566 C 58.319 105.081, 59.102 103.108, 60.439 96.378 C 61.375 91.664, 61.989 87.655, 61.803 87.469 C 61.617 87.284, 59.835 91.264, 57.843 96.316" stroke="none" fill="black" fill-rule="evenodd"/>
</svg>