<svg xmlns="http://www.w3.org/2000/svg" width="200" height="200" viewBox="0 0 200 200" version="1.1">
	<path d="M 109 9.500 C 106.013 12.525, 102.777 15, 101.810 15 C 100.843 15, 99.387 16.285, 98.575 17.855 C 95.202 24.378, 82.336 34.648, 66.259 43.651 L 50.585 52.428 35.543 54.717 C 16.828 57.564, 16 57.757, 15.999 59.269 C 15.998 60.182, 18.646 60.427, 26.249 60.217 L 36.500 59.933 27.500 65.217 L 18.500 70.500 30.946 71 L 43.393 71.500 36.984 77.204 C 33.459 80.341, 30.783 83.098, 31.037 83.331 C 32.928 85.057, 73.412 111.922, 73.696 111.638 C 73.994 111.339, 70.582 99.976, 61.866 72.250 C 60.874 69.094, 60.681 68.999, 55.172 68.954 L 49.500 68.908 55.500 63.456 C 61.087 58.379, 61.844 58.004, 66.500 58.005 L 71.500 58.007 78.750 70.814 C 82.738 77.858, 86 84.054, 86 84.583 C 86 85.111, 82.656 93.388, 78.568 102.975 C 73.658 114.489, 70.519 120.617, 69.318 121.029 C 68.318 121.371, 57.038 124.092, 44.250 127.074 C 31.463 130.056, 21 132.871, 21 133.330 C 21 134.380, 32.943 168.276, 33.514 168.848 C 33.746 169.079, 42.013 161.783, 51.885 152.634 C 61.757 143.485, 70.434 136.022, 71.167 136.049 C 71.900 136.075, 75.292 137.538, 78.706 139.299 L 84.911 142.500 70.706 148.925 C 62.892 152.459, 56.154 155.640, 55.732 155.993 C 54.941 156.655, 81.723 188, 83.079 188 C 83.496 188, 91.281 182.139, 100.379 174.976 L 116.920 161.953 116.385 155.726 C 114.898 138.433, 113.497 109.039, 113.991 105.505 C 114.538 101.599, 114.657 101.795, 118.848 113.500 C 121.211 120.100, 124.350 129.020, 125.822 133.321 C 128.742 141.850, 126.040 138.877, 157 167.619 L 160.500 170.869 168.500 159.735 C 172.900 153.612, 178.160 146.290, 180.188 143.464 L 183.877 138.326 159.188 128.508 C 145.610 123.108, 134.298 118.521, 134.051 118.313 C 133.805 118.106, 137.644 113.788, 142.582 108.718 C 157.006 93.910, 155.873 95.983, 157.511 81.403 C 159.925 59.918, 161.134 60.241, 144.233 77.855 L 129.500 93.209 120.750 84.233 C 115.938 79.297, 112 74.860, 112 74.375 C 112 73.890, 118.456 70.493, 126.346 66.827 L 140.693 60.161 162.025 58.568 C 173.758 57.692, 183.585 56.748, 183.862 56.471 C 185.171 55.162, 181.259 53.791, 166.549 50.401 L 150.628 46.732 131.805 49.024 C 121.453 50.284, 112.726 51.060, 112.413 50.747 C 111.861 50.195, 113.782 23.884, 114.421 23.245 C 114.596 23.070, 116.621 26.544, 118.920 30.964 C 121.220 35.384, 123.191 39.039, 123.301 39.086 C 123.410 39.133, 131.478 39.932, 141.229 40.861 C 155.472 42.219, 159.055 42.300, 159.448 41.275 C 159.717 40.574, 159.839 39.987, 159.719 39.971 C 157.348 39.659, 128.012 37.022, 126.810 37.013 C 125.725 37.005, 123.677 34.245, 121.088 29.305 C 118.871 25.073, 117.229 21.438, 117.440 21.227 C 117.785 20.881, 140.229 25.170, 145.750 26.636 C 147.365 27.065, 148 26.800, 148 25.699 C 148 24.060, 147.152 23.827, 126.677 19.854 L 114.853 17.559 115.177 10.777 C 115.354 7.047, 115.260 3.997, 114.966 3.998 C 114.672 3.999, 111.987 6.475, 109 9.500 M 109.108 13.058 C 106.467 15.258, 106.502 15.445, 109.750 16.443 C 111.745 17.056, 112 16.787, 112 14.067 C 112 10.471, 112.152 10.524, 109.108 13.058 M 100.589 21.077 C 96.681 25.722, 97.424 26.119, 103.681 22.731 C 108.451 20.147, 109.053 19.532, 107.431 18.897 C 104.153 17.613, 103.265 17.896, 100.589 21.077 M 102.500 26.467 C 94.782 30.713, 94.344 31.152, 90.085 38.919 C 87.656 43.347, 84.956 47.160, 84.085 47.393 C 83.213 47.626, 79.271 48.573, 75.324 49.498 C 71.291 50.443, 67.391 52.016, 66.419 53.090 C 64.744 54.940, 64.816 55, 68.720 55 L 72.751 55 80.875 69.088 C 85.344 76.836, 89 83.681, 89 84.299 C 89 86.295, 73.854 121.466, 72.546 122.508 C 71.850 123.062, 60.755 125.953, 47.890 128.934 C 35.026 131.914, 24.392 134.418, 24.259 134.500 C 23.802 134.781, 34.400 164, 34.959 164 C 35.267 164, 43.124 157.025, 52.420 148.500 C 61.715 139.975, 69.848 133, 70.494 133 C 71.140 133, 76.074 135.152, 81.459 137.781 L 91.249 142.563 75.154 149.899 L 59.059 157.234 68.280 167.753 C 73.351 173.538, 78.850 179.777, 80.500 181.616 L 83.500 184.961 98.869 172.823 L 114.238 160.686 113.672 155.593 C 113.360 152.792, 112.575 140.825, 111.926 129 C 110.680 106.284, 111.318 95.500, 113.905 95.500 C 115.358 95.500, 115.830 96.655, 125.465 123.763 L 131.245 140.026 145.163 153.083 C 152.818 160.264, 159.501 165.996, 160.014 165.820 C 161.012 165.478, 179 140.995, 179 139.980 C 179 139.647, 167.863 134.946, 154.250 129.533 C 140.637 124.119, 129.297 119.520, 129.049 119.311 C 128.801 119.102, 134.179 113.337, 141.001 106.499 L 153.404 94.066 154.662 82.327 C 155.354 75.870, 155.771 70.438, 155.588 70.255 C 155.405 70.072, 149.461 76.071, 142.378 83.587 L 129.500 97.251 118.254 85.422 C 112.069 78.915, 107.344 73.268, 107.754 72.871 C 108.164 72.475, 115.700 68.798, 124.500 64.701 L 140.500 57.252 151.500 56.598 C 157.550 56.239, 164.750 55.660, 167.500 55.311 L 172.500 54.677 163 52.384 C 151.214 49.539, 148.754 49.537, 126.750 52.358 C 110.394 54.454, 109 54.502, 109 52.960 C 109 52.039, 109.491 45.416, 110.092 38.240 C 110.693 31.065, 111.030 24.490, 110.842 23.630 C 110.568 22.375, 108.914 22.938, 102.500 26.467 M 85.940 35.693 C 84.598 36.599, 81.104 39.571, 78.175 42.297 C 73.595 46.561, 73.227 47.160, 75.542 46.579 C 77.022 46.207, 79.485 45.653, 81.015 45.347 C 83.065 44.937, 84.506 43.486, 86.497 39.828 C 87.983 37.098, 89.014 34.681, 88.789 34.455 C 88.564 34.230, 87.281 34.787, 85.940 35.693 M 66.500 46.563 C 62.080 49.143, 61.290 49.890, 63.500 49.401 C 66.214 48.801, 73 44.549, 73 43.449 C 73 42.774, 72.950 42.798, 66.500 46.563 M 57.174 53.520 C 50.231 55.213, 49.598 56, 55.178 56 C 58.420 56, 60.200 55.437, 61.500 54 C 62.495 52.900, 63.128 52.050, 62.905 52.111 C 62.682 52.171, 60.103 52.806, 57.174 53.520 M 49.779 58.799 C 45.164 59.040, 42.555 59.957, 36.279 63.542 L 28.500 67.985 35 68.006 C 38.575 68.018, 42.400 68.240, 43.500 68.501 C 44.889 68.829, 47.171 67.468, 50.972 64.042 C 53.982 61.330, 56.232 58.973, 55.972 58.805 C 55.712 58.637, 52.926 58.635, 49.779 58.799 M 41.087 76.894 L 34.673 82.752 51.428 93.952 C 60.643 100.111, 68.360 104.973, 68.577 104.756 C 68.955 104.379, 59.489 73.111, 58.822 72.530 C 58.645 72.376, 56.025 71.977, 53 71.643 L 47.500 71.036 41.087 76.894" stroke="none" fill="black" fill-rule="evenodd"/>
</svg>