<svg xmlns="http://www.w3.org/2000/svg" width="200" height="200" viewBox="0 0 200 200" version="1.1">
	<path d="M 22.513 10.979 C 22.166 11.540, 22.160 12.450, 22.500 13 C 22.884 13.621, 21.010 14, 17.559 14 C 13.474 14, 12 14.369, 12 15.393 C 12 17.184, 13.530 17.734, 20.804 18.557 L 26.743 19.229 34.524 29.691 L 42.306 40.153 51.122 31.379 C 55.970 26.553, 59.693 22.356, 59.395 22.052 C 59.097 21.748, 52.698 20.536, 45.176 19.359 L 31.500 17.217 39.500 17.069 C 84.457 16.234, 158.530 15.197, 158.732 15.399 C 158.873 15.540, 156.069 18.234, 152.500 21.387 L 146.012 27.119 113.880 22.954 C 89.606 19.807, 81.569 19.080, 81.012 19.980 C 80.607 20.635, 79.464 27.995, 78.472 36.336 C 77.480 44.676, 76.405 52.432, 76.084 53.570 C 75.763 54.709, 72.474 58.463, 68.775 61.912 L 62.050 68.183 68.111 55.511 C 71.445 48.542, 74.021 42.725, 73.836 42.585 C 73.405 42.259, 12.645 53.152, 12.063 53.660 C 11.822 53.870, 13.172 55.337, 15.063 56.920 L 18.500 59.798 10.698 58.250 C -3.576 55.420, -1.178 57.675, 25.417 72.097 C 38.938 79.429, 50 85.792, 50 86.236 C 50 88.761, 40.271 105.602, 29.324 122.029 L 16.757 140.887 34.564 163.999 C 44.358 176.711, 52.807 187.381, 53.340 187.710 C 53.963 188.095, 54.070 177.972, 53.641 159.404 L 52.973 130.500 57.827 101.743 C 60.497 85.926, 62.942 72.725, 63.261 72.406 C 63.580 72.086, 66.352 72.346, 69.421 72.984 L 75 74.142 75 100.217 L 75 126.292 65.867 155.713 C 59.930 174.836, 57.075 185.475, 57.709 186.109 C 58.343 186.743, 64.401 180.507, 75.016 168.292 C 83.999 157.957, 92.358 148.375, 93.593 147 C 95.706 144.647, 95.965 142.651, 97.999 113 C 99.188 95.675, 100.323 80.970, 100.521 80.321 C 100.780 79.478, 102.748 79.749, 107.444 81.276 C 112.347 82.870, 113.888 83.800, 113.544 84.955 C 112.041 89.988, 99 143.178, 99 144.273 C 99 146.590, 130.933 185.525, 132.565 185.198 C 134.954 184.719, 191.426 162.897, 192.178 162.162 C 192.551 161.798, 187.636 158.180, 181.256 154.121 L 169.656 146.743 147.587 143.595 L 125.518 140.447 153.509 121.602 C 168.904 111.238, 181.695 102.580, 181.933 102.362 C 182.172 102.145, 181.900 101.500, 181.330 100.930 C 180.615 100.215, 174.918 100.384, 162.945 101.476 L 145.597 103.059 136.548 94.141 C 129.308 87.005, 126.468 84.891, 122.335 83.559 C 117.216 81.910, 117.178 81.868, 118.067 78.768 C 118.560 77.048, 119.418 75.359, 119.974 75.016 C 120.530 74.672, 126.261 73.812, 132.708 73.105 C 143.615 71.909, 145.826 71.263, 164.466 63.831 C 175.485 59.437, 184.920 55.435, 185.433 54.938 C 187.851 52.595, 183.489 52.903, 165.401 56.354 L 145.845 60.085 124.129 45.993 L 102.413 31.901 102.816 28.451 C 103.128 25.779, 102.856 25, 101.609 25 C 100.458 25, 100 25.931, 100 28.269 C 100 31.078, 98.595 32.937, 90 41.500 C 81.275 50.192, 80 51.141, 80 48.940 C 80 45.680, 83.015 22.652, 83.506 22.161 C 83.712 21.955, 98.108 23.654, 115.498 25.937 L 147.117 30.087 156.581 21.400 C 161.786 16.621, 165.923 12.628, 165.773 12.524 C 165.623 12.421, 134.253 12.768, 96.061 13.294 L 26.622 14.252 24.883 12.104 C 23.859 10.839, 22.885 10.377, 22.513 10.979 M 34.501 25.078 C 36.658 28.060, 39.319 31.746, 40.414 33.269 L 42.404 36.038 48.202 30.300 C 51.391 27.144, 54 24.289, 54 23.954 C 54 23.620, 49.806 22.797, 44.680 22.126 C 39.555 21.456, 34.284 20.626, 32.969 20.282 C 30.740 19.699, 30.844 20.024, 34.501 25.078 M 101.991 40.219 C 101.987 43.124, 101.707 47.791, 101.371 50.592 L 100.759 55.684 119.622 58.756 C 129.997 60.445, 139.092 61.488, 139.833 61.074 C 141.063 60.385, 133.994 55.445, 107.250 38.304 L 102 34.939 101.991 40.219 M 88.580 46.616 L 78.661 56.147 78.207 63.977 L 77.754 71.807 83.627 72.991 C 86.857 73.642, 91.289 74.560, 93.475 75.031 C 95.662 75.503, 97.687 75.518, 97.975 75.065 C 98.264 74.611, 101.425 73.938, 105 73.568 C 116.099 72.419, 116.652 72.206, 117.657 68.699 C 118.463 65.890, 119.180 65.368, 123.537 64.415 C 128.257 63.384, 128.353 63.299, 125.500 62.691 C 123.850 62.339, 118.225 61.353, 113 60.500 C 107.775 59.647, 102.312 58.711, 100.861 58.420 L 98.221 57.890 98.754 47.445 C 99.047 41.700, 99.110 37.019, 98.894 37.043 C 98.677 37.067, 94.036 41.375, 88.580 46.616 M 43.780 50.494 C 30.734 52.870, 19.515 54.995, 18.848 55.217 C 18.166 55.445, 19.176 56.796, 21.163 58.311 C 23.947 60.434, 27.826 61.629, 39.595 63.987 C 47.793 65.630, 55.531 67.218, 56.792 67.517 C 58.860 68.006, 59.568 67.054, 64.028 57.780 C 66.747 52.126, 68.978 47.163, 68.986 46.750 C 69.004 45.815, 71.582 45.432, 43.780 50.494 M 157.595 60.606 C 153.797 61.360, 150.571 62.096, 150.426 62.240 C 150.282 62.385, 150.689 63.209, 151.332 64.071 C 152.372 65.467, 153.376 65.281, 160.500 62.366 C 169.107 58.845, 168.453 58.448, 157.595 60.606 M 70.115 64.383 C 67.749 66.794, 66.196 69.003, 66.664 69.292 C 67.132 69.582, 69.199 70.134, 71.258 70.521 L 75 71.223 75 65.611 C 75 62.525, 74.869 60, 74.708 60 C 74.548 60, 72.481 61.972, 70.115 64.383 M 12.423 61.757 C 13.151 62.484, 38 75.832, 38 75.495 C 38 75.347, 34.789 72.631, 30.865 69.461 C 25.121 64.819, 22.576 63.455, 17.811 62.461 C 14.556 61.781, 12.131 61.464, 12.423 61.757 M 30.500 65.714 C 33.332 68.469, 51.079 82, 51.860 82 C 52.806 82, 57.548 71.200, 56.881 70.567 C 56.671 70.369, 51.550 69.224, 45.500 68.024 C 39.450 66.824, 33.375 65.595, 32 65.292 C 30.370 64.933, 29.848 65.080, 30.500 65.714 M 127.603 66.359 C 122.389 67.368, 118.561 69.901, 120.035 71.366 C 120.782 72.108, 143.752 69.053, 146.759 67.812 L 149.500 66.681 146.500 65.959 C 142.089 64.897, 134.306 65.062, 127.603 66.359 M 78 100.525 L 78 126.051 69.896 152.088 C 65.439 166.409, 61.952 178.272, 62.146 178.449 C 62.481 178.754, 87.468 150.475, 91.289 145.467 C 92.772 143.523, 93.408 138.534, 95.006 116.311 C 96.067 101.565, 97.062 87.048, 97.217 84.051 L 97.500 78.602 89 76.847 C 84.325 75.881, 79.938 75.071, 79.250 75.046 C 78.281 75.010, 78 80.747, 78 100.525 M 107.500 75.908 L 102.500 76.502 108.750 78.685 C 113.593 80.377, 115 80.564, 115 79.516 C 115 78.772, 115.273 77.452, 115.607 76.582 C 116.262 74.875, 116.225 74.872, 107.500 75.908 M 52.487 88.210 C 49.194 94.969, 40.688 109.266, 33.583 119.981 C 26.479 130.695, 20.667 139.945, 20.667 140.535 C 20.667 141.126, 27.379 150.294, 35.583 160.909 L 50.500 180.208 51.034 150.354 C 51.549 121.529, 51.696 119.763, 55.321 99.112 C 57.385 87.348, 58.939 77.318, 58.774 76.822 C 58.609 76.326, 55.779 81.450, 52.487 88.210 M 109.051 114.794 L 101.649 144.587 116.900 163.647 L 132.150 182.706 157.825 172.763 C 171.946 167.294, 184.360 162.486, 185.411 162.078 C 186.987 161.467, 185.755 160.306, 178.411 155.482 L 169.500 149.628 144.745 145.976 C 131.129 143.967, 119.770 142.103, 119.501 141.834 C 119.232 141.565, 131.645 132.903, 147.085 122.585 C 162.525 112.267, 175.010 103.686, 174.829 103.516 C 174.648 103.346, 167.750 103.823, 159.500 104.577 L 144.500 105.947 135.500 97.054 C 127.531 89.181, 121.324 85, 117.604 85 C 116.927 85, 113.404 97.272, 109.051 114.794" stroke="none" fill="black" fill-rule="evenodd"/>
</svg>