<svg xmlns="http://www.w3.org/2000/svg" width="200" height="200" viewBox="0 0 200 200" version="1.1">
	<path d="M 31.814 54.041 C 22.087 71.069, 14.300 85, 14.509 85 C 14.718 85, 23.176 80.500, 33.304 75 C 43.432 69.500, 52.237 65, 52.871 65 C 53.504 65, 52.212 68.600, 50 73 C 46.591 79.780, 45.598 81, 43.489 81 C 41.943 81, 41 81.568, 41 82.500 C 41 83.340, 41.892 84, 43.026 84 C 44.983 84, 44.996 84.109, 43.399 87.250 C 42.489 89.037, 41.649 90.616, 41.531 90.759 C 41.413 90.901, 38.033 89.663, 34.021 88.009 C 25.562 84.520, 26 84.611, 26 86.341 C 26 87.079, 29.150 88.950, 33 90.500 C 36.850 92.050, 40 93.481, 40 93.681 C 40 93.881, 38.195 97.634, 35.989 102.022 C 33.783 106.410, 32.176 110, 32.419 110 C 32.662 110, 37.621 107.040, 43.440 103.421 C 52.518 97.777, 55.361 95, 52.063 95 C 51.613 95, 49.609 94.317, 47.611 93.482 L 43.978 91.964 46.009 87.982 L 48.041 84 65.141 84 L 82.241 84 78.798 88.250 C 76.905 90.588, 71.389 97.553, 66.540 103.730 C 56.812 116.122, 59.520 114.399, 37 122.529 C 31.225 124.614, 26.388 126.397, 26.250 126.493 C 26.113 126.588, 27.583 134.502, 29.516 144.079 C 32.617 159.439, 33.364 161.826, 35.856 164.318 C 38.714 167.176, 72.973 186.135, 74.063 185.461 C 74.387 185.261, 77.732 177.087, 81.496 167.298 C 85.259 157.509, 88.617 149.168, 88.957 148.763 C 89.297 148.357, 98.057 152.773, 108.424 158.576 C 120.585 165.384, 127.616 168.784, 128.241 168.159 C 128.866 167.534, 124.149 160.858, 114.947 149.345 C 107.102 139.530, 100.192 130.866, 99.592 130.090 C 98.502 128.683, 108.350 134.641, 123.500 144.554 C 127.900 147.433, 141.625 159.077, 154 170.431 C 166.375 181.784, 176.607 190.495, 176.738 189.787 C 176.869 189.079, 178.352 177.484, 180.034 164.020 C 182.963 140.576, 183.017 139.484, 181.296 138.203 C 180.308 137.468, 173.515 132.557, 166.201 127.291 L 152.901 117.715 153.467 101.608 C 153.779 92.748, 154.270 81.131, 154.560 75.790 L 155.086 66.081 149.293 64.485 C 139.116 61.680, 139.118 61.477, 149.339 60.074 C 155.312 59.254, 159.433 58.183, 160.207 57.250 C 161.732 55.413, 175.936 30.603, 175.635 30.302 C 175.517 30.184, 163.602 31.948, 149.158 34.222 L 122.896 38.356 97.751 33.087 C 73.933 28.095, 72.538 27.911, 71.304 29.600 C 70.587 30.580, 70 31.746, 70 32.191 C 70 33.730, 68.151 32.979, 59.693 28 C 55.020 25.250, 50.816 23.019, 50.349 23.041 C 49.882 23.064, 41.541 37.014, 31.814 54.041 M 36.464 51.580 C 28.382 65.618, 21.934 77.266, 22.135 77.465 C 22.336 77.664, 29.025 74.270, 37 69.922 C 44.975 65.575, 52.438 62.013, 53.584 62.009 C 55.224 62.002, 56.591 60.058, 60.001 52.883 C 62.384 47.869, 64.333 43.144, 64.333 42.383 C 64.333 41.622, 64.636 41, 65.006 41 C 65.376 41, 66.182 39.896, 66.797 38.547 C 67.855 36.224, 67.583 35.896, 61.707 32.408 C 58.293 30.381, 54.523 28.123, 53.329 27.390 C 51.226 26.099, 50.693 26.864, 36.464 51.580 M 72.476 33.075 C 71.692 35.546, 71.153 34.999, 78.340 39.023 L 84.181 42.293 114.340 43.751 C 152.216 45.583, 153.905 46.372, 131.015 51.535 C 123.857 53.150, 118 54.742, 118 55.075 C 118 55.407, 121.430 56.623, 125.621 57.778 L 133.243 59.878 145.249 57.919 C 151.852 56.842, 157.598 55.749, 158.016 55.490 C 159.299 54.697, 170.227 34.894, 169.683 34.349 C 169.402 34.069, 158.747 35.486, 146.003 37.499 L 122.834 41.159 98.667 36.078 C 85.375 33.283, 74.193 30.997, 73.817 30.998 C 73.442 30.999, 72.838 31.934, 72.476 33.075 M 69.667 38.667 C 67.498 40.836, 70.562 42.198, 89.650 47.554 L 110.300 53.348 118.400 51.664 C 136.977 47.800, 136.824 47.714, 108.804 46.299 L 83.109 45.001 77.136 41.500 C 70.637 37.691, 70.641 37.693, 69.667 38.667 M 71 45.549 C 71 46.504, 81.318 60, 82.047 60 C 83.592 60, 101.513 55.750, 102.746 55.091 C 103.431 54.725, 99.606 53.206, 94.246 51.715 C 88.886 50.224, 81.463 48.135, 77.750 47.073 C 74.037 46.010, 71 45.325, 71 45.549 M 62.670 53.617 C 60.597 57.806, 59.090 61.423, 59.321 61.655 C 59.553 61.886, 64.079 61.946, 69.380 61.788 L 79.017 61.500 73.397 53.750 C 70.306 49.487, 67.476 46, 67.108 46 C 66.740 46, 64.743 49.428, 62.670 53.617 M 99.500 59.052 L 88.500 61.770 105 61.815 C 114.075 61.839, 122.400 61.473, 123.500 61 C 124.600 60.527, 125.049 60.109, 124.497 60.070 C 123.945 60.032, 120.570 59.175, 116.997 58.167 L 110.500 56.335 99.500 59.052 M 123.500 64.057 C 121.300 64.512, 105.443 64.911, 88.263 64.942 L 57.025 65 53.513 71.975 C 51.581 75.811, 50 79.235, 50 79.583 C 50 79.932, 51.013 79.967, 52.250 79.662 C 53.488 79.356, 70.700 76.820, 90.500 74.027 C 135.612 67.661, 131.811 68.461, 131.236 65.453 C 130.734 62.830, 130.040 62.705, 123.500 64.057 M 134.053 66.184 C 134.555 67.935, 134.721 69.622, 134.421 69.934 C 134.121 70.245, 118.041 72.846, 98.688 75.713 L 63.500 80.926 94.250 80.506 C 111.162 80.275, 124.983 80.404, 124.962 80.793 C 124.941 81.182, 120.103 84.512, 114.212 88.192 C 97.409 98.690, 97.951 97.115, 109.326 102.394 C 116.301 105.631, 118.929 107.322, 118.395 108.226 C 114.107 115.484, 105.715 126.942, 105.008 126.505 C 104.513 126.199, 99.800 118.159, 94.534 108.639 C 89.269 99.119, 84.398 90.558, 83.708 89.616 C 82.601 88.102, 81.098 89.628, 70.822 102.701 L 59.188 117.500 44.074 122.898 C 32.089 127.178, 29.055 128.628, 29.422 129.898 C 29.676 130.779, 31.095 137.800, 32.575 145.500 C 34.818 157.169, 35.702 159.950, 37.883 162.205 C 41.919 166.376, 72.106 182.446, 73.047 180.925 C 73.468 180.243, 76.861 171.769, 80.588 162.093 C 84.314 152.417, 87.459 144.360, 87.576 144.188 C 87.762 143.917, 104.517 153.084, 118 160.834 C 120.475 162.257, 122.006 162.764, 121.403 161.960 C 120.800 161.157, 113.695 152.215, 105.614 142.089 C 96.462 130.620, 91.276 123.324, 91.861 122.739 C 92.445 122.155, 100.096 126.422, 112.150 134.056 C 129.878 145.284, 133.285 147.943, 152.796 165.776 C 164.509 176.482, 174.237 185.074, 174.414 184.870 C 175.343 183.800, 180.041 140.634, 179.286 140.112 C 178.799 139.775, 171.995 134.841, 164.168 129.147 L 149.935 118.794 150.444 111.647 C 150.724 107.716, 151.207 96.305, 151.518 86.290 L 152.083 68.080 146.291 66.472 C 143.106 65.588, 139.195 64.445, 137.601 63.932 C 133.304 62.551, 133.056 62.708, 134.053 66.184 M 86.829 83.868 L 84.158 84.500 94.179 102.500 C 99.691 112.400, 104.559 120.881, 104.997 121.347 C 105.638 122.028, 110.787 115.402, 114.335 109.331 C 114.781 108.567, 111.326 106.399, 104.348 103.066 L 93.679 97.969 104.089 91.383 C 109.815 87.761, 114.928 84.393, 115.450 83.899 C 116.522 82.885, 91.100 82.858, 86.829 83.868 M 40.685 98.534 C 39.758 100.478, 39 102.267, 39 102.509 C 39 102.752, 41.025 101.728, 43.500 100.233 C 48.603 97.151, 48.929 96.482, 45.750 95.630 C 42.444 94.744, 42.510 94.706, 40.685 98.534" stroke="none" fill="black" fill-rule="evenodd"/>
</svg>