<svg xmlns="http://www.w3.org/2000/svg" width="200" height="200" viewBox="0 0 200 200" version="1.1">
	<path d="M 72.146 25.302 C 66.065 35.368, 60.799 44.359, 60.445 45.282 C 59.864 46.798, 60.360 46.768, 65.557 44.980 C 68.723 43.891, 71.643 43, 72.046 43 C 72.763 43, 72.105 60.083, 71.355 60.929 C 71.146 61.165, 69.390 60.603, 67.454 59.679 C 65.517 58.756, 63.504 58, 62.980 58 C 62.457 58, 60.654 60.724, 58.973 64.054 C 56.641 68.674, 55.512 69.979, 54.208 69.563 C 53.269 69.263, 45.975 66.348, 38 63.086 C 19.456 55.499, 19.517 55.614, 27.726 43.413 L 33.722 34.500 44.611 30.129 C 50.600 27.726, 55.831 25.460, 56.235 25.094 C 56.640 24.728, 47.667 21.628, 36.296 18.204 C 24.079 14.525, 15.254 12.346, 14.724 12.876 C 13.473 14.127, 13.654 14.200, 31 19.429 C 39.525 21.999, 47.175 24.342, 48 24.635 C 48.862 24.941, 45.753 26.675, 40.685 28.715 L 31.869 32.262 25.092 42.381 C 21.365 47.946, 18.522 53.110, 18.776 53.855 C 19.297 55.387, 16.540 54.785, 11.657 52.300 C 10.093 51.504, 8.589 51.078, 8.313 51.353 C 7.538 52.129, 34.337 86.903, 35.750 86.954 C 37.703 87.026, 37.360 85.969, 31.509 73.862 C 28.489 67.613, 26.014 62.189, 26.009 61.808 C 26.001 61.199, 52.757 71.618, 53.979 72.700 C 54.827 73.452, 38.030 104.893, 25.298 126.387 C 18.492 137.874, 13.061 147.684, 13.228 148.185 C 13.793 149.880, 49.486 191.044, 49.718 190.269 C 49.845 189.846, 49.163 176.314, 48.203 160.199 L 46.458 130.897 54.670 102.199 C 59.186 86.414, 62.571 73.380, 62.191 73.234 C 58.706 71.891, 58.582 71.162, 60.969 66.066 C 62.274 63.280, 63.475 61, 63.637 61 C 63.799 61, 65.522 61.758, 67.466 62.685 C 70.902 64.324, 70.998 64.525, 70.931 69.935 C 70.894 72.996, 70.284 84.275, 69.578 95 C 68.587 110.039, 68.564 114.843, 69.478 116 C 70.129 116.825, 73.929 121.428, 77.921 126.229 C 81.914 131.030, 85.027 135.327, 84.840 135.777 C 84.653 136.227, 79.606 144.370, 73.625 153.872 C 66.404 165.344, 63.085 171.485, 63.746 172.146 C 64.407 172.807, 71.356 169.086, 84.425 161.071 C 95.251 154.432, 104.451 149, 104.870 149 C 105.288 149, 109.168 157.888, 113.491 168.750 C 123.801 194.655, 124.061 195.276, 124.448 194.858 C 124.630 194.661, 126.706 179.875, 129.061 162 C 131.416 144.125, 133.631 129.157, 133.984 128.738 C 134.336 128.319, 137.297 134.169, 140.564 141.738 L 146.503 155.500 168.460 156.209 C 180.536 156.598, 190.532 156.801, 190.674 156.659 C 190.816 156.518, 179.927 148.564, 166.478 138.984 C 152.228 128.835, 142.540 121.309, 143.262 120.950 C 143.943 120.612, 152.718 117.897, 162.761 114.917 C 176.475 110.849, 180.955 109.131, 180.752 108.020 C 180.548 106.910, 176.099 105.855, 162.919 103.790 L 145.358 101.040 131.429 93.406 C 123.768 89.208, 114.125 84.061, 110 81.969 C 97.041 75.396, 97.086 78.250, 109.576 55.182 C 115.566 44.118, 120.750 35.389, 121.096 35.783 C 121.442 36.177, 123.626 48.650, 125.950 63.500 C 128.273 78.350, 130.330 90.657, 130.520 90.850 C 131.048 91.383, 191 69.807, 191 69.083 C 191 68.735, 182.675 64.866, 172.500 60.487 C 162.325 56.107, 154 52.269, 154 51.958 C 154 51.648, 161.204 46.094, 170.010 39.617 C 178.815 33.140, 185.802 27.488, 185.536 27.058 C 185.270 26.627, 171.428 25.951, 154.776 25.555 C 128.049 24.919, 121.863 25.082, 102 26.946 C 70.101 29.940, 73 29.134, 73 35.017 C 73 39.728, 72.858 39.981, 69.750 40.821 C 67.963 41.304, 66.342 41.572, 66.150 41.416 C 65.957 41.261, 70.120 33.948, 75.400 25.166 C 80.680 16.385, 85 8.705, 85 8.100 C 85 4.916, 82.192 8.675, 72.146 25.302 M 99 30.070 C 89.375 31.057, 80.263 31.896, 78.750 31.933 C 76.296 31.993, 76 32.371, 76 35.437 L 76 38.873 84.750 35.913 C 89.563 34.285, 94.024 33.077, 94.664 33.227 C 95.406 33.401, 93.520 39.642, 89.465 50.427 C 85.965 59.737, 83.268 67.625, 83.473 67.956 C 84.049 68.889, 95.932 74.412, 96.323 73.928 C 96.638 73.538, 117.165 35.511, 119.901 30.250 C 121.294 27.569, 123.204 27.586, 99 30.070 M 123.318 30.250 C 123.613 31.488, 125.772 44.762, 128.118 59.750 C 130.463 74.738, 132.838 87, 133.396 87 C 134.880 87, 182.369 69.989, 183.232 69.148 C 183.635 68.756, 175.535 64.778, 165.232 60.309 C 146.993 52.396, 142.871 49.553, 149.500 49.456 C 151.706 49.424, 156.016 46.777, 165.779 39.456 L 179.057 29.500 168.279 28.877 C 162.350 28.535, 149.689 28.197, 140.142 28.127 L 122.783 28 123.318 30.250 M 82.721 39.310 C 75.013 41.671, 75.344 41.056, 74.667 54.281 L 74.218 63.061 77.202 64.604 C 78.843 65.453, 80.330 66.002, 80.507 65.824 C 80.981 65.347, 91 38.469, 91 37.676 C 91 36.802, 90.747 36.852, 82.721 39.310 M 16 57.628 C 16 58.061, 21.083 64.845, 26.731 71.951 C 27.408 72.803, 26.541 70.254, 24.804 66.286 C 22.324 60.619, 21.042 58.862, 18.823 58.088 C 17.271 57.547, 16 57.340, 16 57.628 M 74 67.885 C 74 70.491, 72.174 98.772, 71.468 107.103 L 70.908 113.707 79.454 123.945 C 84.154 129.576, 88 134.601, 88 135.112 C 88 135.623, 84.174 142.137, 79.499 149.589 C 74.823 157.040, 70.514 164.040, 69.923 165.144 C 68.937 166.987, 69.027 167.056, 71.033 165.982 C 72.234 165.340, 80.202 160.521, 88.739 155.274 C 97.276 150.027, 104.914 145.682, 105.712 145.617 C 106.696 145.538, 109.678 151.762, 114.997 165 C 119.306 175.725, 123.062 183.825, 123.344 183 C 123.626 182.175, 125.715 167.325, 127.987 150 C 130.259 132.675, 132.232 118.080, 132.370 117.567 C 132.509 117.053, 136.140 124.751, 140.440 134.672 L 148.258 152.710 164.745 153.406 C 173.812 153.789, 181.405 153.929, 181.617 153.717 C 181.829 153.505, 171.668 145.965, 159.038 136.962 C 146.408 127.959, 136.192 120.475, 136.337 120.330 C 136.481 120.185, 144.902 117.534, 155.050 114.437 C 165.197 111.341, 173.619 108.694, 173.765 108.555 C 173.911 108.417, 167.386 107.268, 159.265 106.003 L 144.500 103.704 130.500 96.010 C 122.800 91.779, 112.136 86.042, 106.803 83.262 C 97.595 78.462, 97.041 78.301, 95.803 80.071 C 94.852 81.430, 91.848 82.378, 84.691 83.575 C 79.296 84.477, 74.635 84.968, 74.332 84.665 C 74.029 84.362, 74.990 80.952, 76.467 77.086 C 79.255 69.791, 79.199 68.712, 75.944 66.970 C 74.327 66.104, 74 66.258, 74 67.885 M 80.569 74.250 C 77.453 81.869, 77.479 82.186, 81.163 81.525 C 82.998 81.196, 86.521 80.594, 88.991 80.187 C 95.420 79.129, 95.264 77.036, 88.508 73.723 C 85.454 72.225, 82.718 71, 82.427 71 C 82.136 71, 81.300 72.463, 80.569 74.250 M 48.924 89.750 C 44.410 98.412, 35.306 114.708, 28.692 125.963 C 22.078 137.218, 16.667 146.935, 16.667 147.557 C 16.667 148.672, 46.026 183.356, 46.491 182.791 C 46.623 182.631, 46.050 170.800, 45.218 156.500 L 43.706 130.500 51.353 103.772 C 55.559 89.072, 59 76.359, 59 75.522 C 59 71.667, 56.529 75.157, 48.924 89.750" stroke="none" fill="black" fill-rule="evenodd"/>
</svg>