<svg xmlns="http://www.w3.org/2000/svg" width="200" height="200" viewBox="0 0 200 200" version="1.1">
	<path d="M 17 13.310 C 17 14.068, 25.005 17.940, 35.984 22.493 C 46.425 26.823, 54.841 30.492, 54.687 30.647 C 54.532 30.801, 49.252 30.501, 42.953 29.980 C 28.083 28.750, 28 28.753, 28 30.435 C 28 31.286, 35.923 35.986, 47.472 41.986 C 58.182 47.549, 67.165 52.459, 67.435 52.895 C 67.979 53.775, 64.345 63.988, 62.992 65.382 C 62.502 65.887, 52.278 62.317, 39.113 57.045 C 26.451 51.975, 15.571 48.147, 14.936 48.539 C 14.206 48.991, 18.317 53.847, 26.141 61.775 L 38.500 74.297 32.500 71.023 C 19.132 63.727, 12.981 59.840, 13.493 59.011 C 13.790 58.531, 13.556 57.843, 12.973 57.483 C 11.867 56.800, 9 58.652, 9 60.049 C 9 60.491, 17.388 65.638, 27.640 71.486 C 52.009 85.390, 53.237 84.582, 34.665 66.868 C 27.102 59.654, 21.070 53.597, 21.259 53.407 C 21.449 53.217, 30.581 56.632, 41.552 60.995 C 59.253 68.034, 61.471 69.168, 61.245 71.056 C 61.105 72.227, 53.652 83.381, 44.682 95.842 C 35.712 108.304, 27.614 119.613, 26.686 120.973 C 25.236 123.099, 25 126.400, 25 144.579 L 25 165.712 40.250 168.763 C 48.638 170.441, 55.655 171.664, 55.844 171.480 C 56.033 171.296, 55.172 156.373, 53.932 138.318 L 51.676 105.491 57.356 90.124 C 60.481 81.671, 63.957 73.464, 65.082 71.885 C 66.206 70.306, 66.850 68.566, 66.512 68.020 C 66.174 67.473, 67.046 63.843, 68.449 59.953 C 69.852 56.063, 71 52.519, 71 52.077 C 71 51.635, 63.013 47.096, 53.250 41.992 C 43.487 36.888, 35.275 32.492, 35 32.223 C 34.725 31.955, 36.075 31.993, 38 32.309 C 39.925 32.624, 46.787 33.188, 53.250 33.561 C 62.864 34.116, 64.999 33.991, 64.993 32.870 C 64.989 32.039, 57.916 28.577, 47.009 24.068 C 37.121 19.980, 29.194 16.473, 29.392 16.275 C 29.680 15.986, 66.145 19.988, 105.468 24.623 C 112.709 25.477, 113.536 25.101, 86.752 33.123 C 75.341 36.541, 66.168 39.501, 66.367 39.701 C 66.567 39.900, 72.805 44.219, 80.229 49.297 L 93.728 58.530 84.783 83.515 L 75.838 108.500 70.394 139.892 C 67.400 157.157, 65.074 171.344, 65.225 171.419 C 65.376 171.493, 69.550 171.317, 74.500 171.027 L 83.500 170.500 94.176 139 C 100.047 121.675, 104.885 107.048, 104.926 106.497 C 104.966 105.945, 102.270 101.670, 98.933 96.997 L 92.866 88.500 102.683 87.341 C 108.082 86.704, 115.313 85.881, 118.750 85.512 L 125 84.841 125 94.002 L 125 103.163 121.750 101.187 C 107.065 92.257, 103.484 90.182, 103.216 90.450 C 103.047 90.620, 108.141 104.193, 114.536 120.614 L 126.164 150.470 126.732 161.235 C 127.147 169.101, 127.649 172, 128.598 172 C 129.458 172, 129.997 170.234, 130.198 166.764 L 130.500 161.528 134.401 171.514 C 136.547 177.006, 138.424 181.652, 138.573 181.838 C 138.894 182.241, 181.572 174.239, 184.585 173.211 C 186.632 172.513, 186.585 172.216, 181.992 157 C 175.148 134.325, 167.904 120.520, 153.906 103.474 C 147.838 96.085, 142.512 89.816, 142.070 89.543 C 140.858 88.794, 137.703 92.710, 138.491 93.986 C 138.988 94.789, 139.542 94.795, 140.492 94.007 C 141.515 93.158, 144.126 95.755, 152.283 105.734 C 165.223 121.566, 172.860 136.050, 179.019 156.444 C 181.299 163.993, 182.961 170.372, 182.713 170.621 C 182.123 171.211, 140.870 179.205, 140.478 178.806 C 140.314 178.637, 137.934 172.869, 135.191 165.988 L 130.203 153.475 130.751 130.207 C 131.234 109.713, 131.110 106.794, 129.712 105.720 C 128.492 104.782, 128.052 102.191, 127.812 94.528 L 127.500 84.556 140.500 83.209 L 153.500 81.862 164.784 74.799 C 170.990 70.914, 175.871 67.538, 175.631 67.297 C 174.658 66.325, 139.075 61.043, 133.357 61.022 C 128.595 61.005, 127.072 60.631, 126.583 59.357 C 126.237 58.453, 126.135 57.532, 126.358 57.309 C 126.580 57.086, 134.579 53.992, 144.131 50.433 C 153.684 46.874, 164.630 42.771, 168.456 41.315 L 175.411 38.668 165.956 35.979 C 159.658 34.188, 150.873 30.357, 139.652 24.507 L 122.803 15.724 123.130 35.505 L 123.456 55.285 115.228 58.273 C 104.167 62.289, 104.248 64, 115.500 64 L 124 64 124 72.955 L 124 81.909 120.750 82.444 C 118.963 82.738, 110.975 83.696, 103 84.573 C 95.025 85.451, 88.422 86.246, 88.327 86.340 C 88.232 86.435, 91.301 90.908, 95.146 96.281 L 102.138 106.050 91.866 136.922 L 81.593 167.793 75.047 168.244 C 71.446 168.493, 68.439 168.652, 68.363 168.598 C 68.288 168.544, 70.458 155.465, 73.186 139.532 C 78.132 110.634, 78.166 110.504, 87.212 85.032 C 92.199 70.990, 96.454 59.031, 96.667 58.459 C 96.880 57.886, 91.427 53.611, 84.550 48.959 C 77.672 44.306, 72.598 40.302, 73.273 40.059 C 73.948 39.817, 84.400 36.633, 96.500 32.984 C 112.882 28.043, 118.583 25.921, 118.823 24.674 C 119.032 23.591, 118.488 23, 117.282 23 C 116.256 23, 93.875 20.525, 67.545 17.500 C 41.216 14.475, 19.072 12, 18.337 12 C 17.602 12, 17 12.590, 17 13.310 M 125.850 36.802 C 126.042 45.986, 126.302 53.610, 126.427 53.744 C 126.553 53.879, 135.620 50.656, 146.578 46.584 C 157.535 42.511, 165.825 38.948, 165 38.665 C 164.175 38.383, 161.700 37.612, 159.500 36.951 C 157.300 36.291, 148.750 32.230, 140.500 27.927 L 125.500 20.104 125.850 36.802 M 119.500 59.536 L 116.500 60.910 120.250 60.955 C 122.937 60.987, 124 60.575, 124 59.500 C 124 57.720, 123.457 57.724, 119.500 59.536 M 127 73.061 L 127 82.123 131.250 81.553 C 133.588 81.240, 139.530 80.513, 144.456 79.938 C 152.520 78.997, 154.137 78.433, 160.706 74.272 C 164.717 71.730, 168 69.361, 168 69.006 C 168 67.984, 140.165 63.959, 133.250 63.981 L 127 64 127 73.061 M 41.750 104.455 L 28 123.695 28 143.650 L 28 163.606 40.043 165.926 C 46.667 167.202, 52.330 168.003, 52.628 167.705 C 52.926 167.407, 52.203 153.278, 51.021 136.307 L 48.873 105.449 52.449 95.571 C 54.416 90.137, 55.907 85.585, 55.763 85.453 C 55.618 85.322, 49.313 93.873, 41.750 104.455 M 108.094 96.626 C 120.703 129.584, 125.549 141.143, 125.856 138.993 C 126.052 137.622, 125.892 129.641, 125.501 121.259 L 124.790 106.017 118.645 102.325 C 115.265 100.295, 111.417 97.943, 110.094 97.100 C 108.771 96.256, 107.871 96.043, 108.094 96.626 M 128.195 110.500 C 128.215 112.150, 128.439 112.704, 128.693 111.731 C 128.947 110.758, 128.930 109.408, 128.656 108.731 C 128.382 108.054, 128.175 108.850, 128.195 110.500" stroke="none" fill="black" fill-rule="evenodd"/>
</svg>