<svg xmlns="http://www.w3.org/2000/svg" width="200" height="200" viewBox="0 0 200 200" version="1.1">
	<path d="M 24.917 9.846 C 25.519 10.969, 26.458 12.165, 27.005 12.503 C 29.814 14.239, 27.069 15, 18 15 C 12.500 15, 8.012 15.338, 8.027 15.750 C 8.060 16.630, 52.031 46.736, 53.948 47.191 C 57.113 47.942, 55.270 44.637, 45.492 32.028 C 39.377 24.143, 35.414 18.186, 35.935 17.665 C 37.135 16.465, 70.676 17.491, 79.622 19.001 L 86.745 20.204 83.790 26.852 C 80.939 33.268, 80.557 33.656, 72.851 37.959 C 66.524 41.493, 64.753 42.986, 64.320 45.151 C 63.826 47.618, 63.058 48.051, 56.391 49.623 C 49.541 51.238, 47.456 51.260, 27.503 49.932 C 15.676 49.144, 5.999 48.644, 5.999 48.821 C 6 48.997, 9.864 56.084, 14.587 64.571 C 25.139 83.531, 26.559 84.252, 25.559 70.141 L 24.860 60.283 37.180 57.223 C 47.307 54.708, 50.568 54.287, 55.500 54.862 C 60.596 55.455, 61.048 55.658, 58.500 56.209 C 55.643 56.827, 54.863 58.325, 42.105 87.679 L 28.710 118.500 25.169 142.264 C 22.988 156.900, 21.987 166.360, 22.564 166.892 C 23.079 167.367, 29.688 168.060, 37.250 168.433 L 51 169.110 51 136.311 L 51 103.513 57.249 80.720 C 63.420 58.216, 63.537 57.918, 66.499 57.115 C 68.150 56.667, 69.634 56.404, 69.797 56.531 C 69.960 56.657, 68.292 60.661, 66.090 65.428 C 62.995 72.126, 62.398 74.216, 63.463 74.624 C 64.252 74.927, 69.525 71.274, 75.800 66.077 C 85.104 58.370, 87.299 57, 90.341 57 C 93.791 57, 93.979 57.190, 95.461 62.182 C 96.308 65.031, 97 68.184, 97 69.189 C 97 70.193, 87.588 82.598, 76.084 96.757 L 55.168 122.500 64.099 131.534 L 73.029 140.567 79.515 162.821 C 83.082 175.061, 86 185.219, 86 185.395 C 86 185.571, 97.901 183.327, 112.446 180.409 L 138.891 175.104 150.755 165.655 L 162.618 156.205 174.343 130.955 C 180.792 117.067, 185.935 105.306, 185.773 104.819 C 185.611 104.333, 175.619 97.205, 163.570 88.979 C 143.726 75.433, 138.562 71.264, 118.287 52.416 L 114.074 48.500 113.402 33.290 L 112.730 18.080 115.291 16.913 C 120.476 14.551, 122.018 15.970, 142.567 42.010 C 153.425 55.768, 162.384 66.907, 162.477 66.762 C 162.570 66.618, 162.449 57.180, 162.209 45.790 L 161.771 25.080 158.636 24.104 C 156.911 23.567, 148.525 21.238, 140 18.928 C 128.985 15.944, 124.020 14.130, 122.843 12.661 C 121.399 10.860, 120.846 10.749, 118.546 11.797 C 115.139 13.349, 112.301 13.330, 111.659 11.750 C 111.276 10.805, 110.948 10.786, 110.315 11.672 C 109.744 12.472, 102.329 13.065, 86.989 13.537 C 65.778 14.190, 63.506 14.079, 47 11.581 C 37.375 10.125, 28.223 8.679, 26.662 8.368 C 24.055 7.848, 23.913 7.969, 24.917 9.846 M 30.919 13.403 C 31.921 14.610, 33.987 14.979, 39.372 14.914 C 47.302 14.818, 45.658 13.812, 35.498 12.543 C 30.158 11.876, 29.720 11.958, 30.919 13.403 M 85.750 17.166 C 90.446 18.218, 90.695 18.755, 88.478 23.043 C 87.641 24.662, 86.504 27.174, 85.953 28.625 C 84.976 31.193, 85.010 31.224, 87.225 29.802 C 88.476 28.999, 94.112 25.742, 99.750 22.565 C 105.388 19.388, 110 16.611, 110 16.395 C 110 16.178, 103.588 16.048, 95.750 16.107 C 84.245 16.194, 82.319 16.398, 85.750 17.166 M 16.550 18.840 C 17.573 19.744, 44.551 38.085, 46.942 39.501 C 47.736 39.971, 44.586 35.345, 39.942 29.221 L 31.500 18.087 23.550 18.043 C 19.176 18.020, 16.027 18.378, 16.550 18.840 M 133.193 25.764 C 154.450 52.857, 159.379 58.955, 159.735 58.599 C 159.957 58.377, 159.817 51.170, 159.425 42.583 L 158.711 26.972 153.605 25.530 C 138.280 21.201, 129.987 19, 128.997 19 C 128.386 19, 130.274 22.044, 133.193 25.764 M 96.500 27.484 C 84.929 34.032, 83.262 35.317, 81.338 39.171 C 80.150 41.552, 79.270 43.596, 79.385 43.713 C 79.499 43.830, 82.047 43.273, 85.047 42.475 C 92.388 40.521, 92.580 40.556, 93.605 44.034 L 94.500 47.067 102 40.962 C 106.125 37.604, 109.785 34.551, 110.134 34.178 C 110.482 33.805, 110.482 30.491, 110.134 26.814 L 109.500 20.127 96.500 27.484 M 105.106 41.851 L 99.712 46.638 105.356 45.604 L 111 44.570 111 40.785 C 111 38.703, 110.888 37.014, 110.750 37.032 C 110.612 37.049, 108.073 39.218, 105.106 41.851 M 72.250 41.362 C 67.254 44.261, 64.929 47.750, 68.750 46.615 C 69.713 46.329, 71.699 45.809, 73.165 45.460 C 74.843 45.061, 76.281 43.736, 77.049 41.881 C 77.720 40.261, 78.096 38.796, 77.885 38.626 C 77.673 38.456, 75.138 39.687, 72.250 41.362 M 82.786 45.698 C 78.780 46.750, 76.884 47.789, 76.445 49.174 C 76.100 50.261, 76.004 51.337, 76.232 51.565 C 76.460 51.793, 80.118 51.227, 84.360 50.306 C 90.132 49.054, 91.938 48.281, 91.536 47.234 C 91.241 46.466, 91 45.423, 91 44.918 C 91 43.745, 89.791 43.860, 82.786 45.698 M 69.075 49.306 C 64.116 51.035, 63.781 53.219, 68.536 52.817 C 71.349 52.579, 72.489 51.939, 73.110 50.250 C 74.044 47.704, 73.822 47.652, 69.075 49.306 M 100 49.417 C 96.406 50.392, 95.569 51.027, 95.845 52.569 C 96.035 53.631, 96.260 54.567, 96.345 54.650 C 96.430 54.732, 99.987 55.123, 104.250 55.517 C 111.769 56.214, 112 56.170, 112 54.052 C 112 48.141, 108.989 46.978, 100 49.417 M 15.575 60.750 C 23.128 74.703, 23.319 74.840, 22.629 65.852 L 22.043 58.205 29.271 56.475 C 33.247 55.523, 36.858 54.421, 37.296 54.026 C 38.044 53.351, 23.101 52.017, 14.669 52.005 L 10.838 52 15.575 60.750 M 84.500 53 L 81.500 53.763 84.191 53.882 C 85.671 53.947, 87.160 53.550, 87.500 53 C 87.840 52.450, 87.979 52.053, 87.809 52.118 C 87.639 52.183, 86.150 52.580, 84.500 53 M 91.583 52.866 C 91.152 53.563, 91.070 54.403, 91.400 54.733 C 92.295 55.628, 93.271 54.312, 92.787 52.862 C 92.449 51.846, 92.213 51.846, 91.583 52.866 M 114 54.023 C 114 54.595, 114.694 55.329, 115.543 55.655 C 117.889 56.555, 118.164 55.583, 115.955 54.204 C 114.717 53.431, 114 53.365, 114 54.023 M 70.631 62.066 C 69.184 65.402, 68 68.343, 68 68.602 C 68 68.861, 71.110 66.471, 74.912 63.291 C 82.071 57.303, 82.325 56.044, 76.381 56.015 C 73.516 56.001, 73.047 56.495, 70.631 62.066 M 98.579 63.250 C 99.347 66.138, 99.982 69.188, 99.988 70.029 C 99.995 70.870, 90.749 82.985, 79.442 96.951 L 58.883 122.343 67.317 130.921 L 75.750 139.500 81.507 159.655 C 84.674 170.740, 87.624 180.391, 88.063 181.101 C 88.695 182.125, 93.922 181.392, 113.181 177.581 L 137.500 172.769 149.007 163.554 L 160.514 154.340 171.793 130.001 C 177.997 116.615, 182.696 105.401, 182.236 105.081 C 181.775 104.762, 172.197 98.221, 160.949 90.546 C 149.702 82.871, 138.137 74.368, 135.250 71.651 C 132.363 68.933, 130 67.005, 130 67.365 C 130 67.725, 134.262 76.535, 139.471 86.942 L 148.942 105.864 145.221 107.008 C 143.174 107.637, 140.928 108.332, 140.228 108.553 C 139.323 108.838, 139.805 110.472, 141.902 114.227 L 144.847 119.500 134.016 146.500 C 125.614 167.443, 123.052 172.939, 122.597 171 C 118.671 154.294, 115.992 138.111, 115.406 127.575 C 114.799 116.650, 114.491 115.026, 113.103 115.458 C 107.264 117.277, 89 121.757, 89 121.370 C 89 121.110, 94.386 110.900, 100.968 98.682 L 112.936 76.467 112.327 67.842 L 111.718 59.216 108.109 58.619 C 106.124 58.291, 102.853 58.017, 100.841 58.011 L 97.181 58 98.579 63.250 M 44.388 89.267 L 31.276 119.500 28.003 141.781 C 26.202 154.036, 24.903 164.231, 25.115 164.436 C 25.327 164.642, 30.563 165.136, 36.750 165.534 L 48 166.257 48 135.031 L 48 103.804 54 82.081 C 57.300 70.133, 60 60.053, 60 59.679 C 60 59.306, 59.438 59.008, 58.750 59.017 C 58.063 59.027, 51.600 72.640, 44.388 89.267 M 115 65.122 C 115 70.274, 115.223 71.060, 116.408 70.076 C 117.568 69.114, 118.919 70.988, 124.068 80.704 C 138.934 108.757, 137.149 106.077, 140.500 105.385 C 142.150 105.044, 143.829 104.572, 144.231 104.335 C 145.373 103.664, 123.323 60.338, 121.479 59.630 C 120.576 59.284, 118.748 59, 117.418 59 C 115.124 59, 115 59.314, 115 65.122 M 116.484 75.027 C 115.767 76.187, 116.776 110.093, 117.550 110.878 C 117.896 111.229, 121.990 110.342, 131.262 107.905 L 135.025 106.916 129.817 97.208 C 126.953 91.869, 122.950 84.420, 120.922 80.656 C 118.579 76.309, 116.960 74.255, 116.484 75.027 M 103.500 99.647 C 98.550 108.859, 94.366 116.709, 94.202 117.091 C 94.038 117.474, 98.510 116.558, 104.139 115.057 L 114.374 112.326 114.077 101.913 C 113.913 96.186, 113.492 89.565, 113.140 87.200 L 112.500 82.899 103.500 99.647 M 125.109 112.277 L 117.718 114.377 118.346 127.939 C 118.897 139.838, 122.340 160.673, 124.035 162.368 C 124.324 162.657, 128.424 153.135, 133.147 141.208 L 141.732 119.522 139.116 114.775 C 136.101 109.305, 135.773 109.247, 125.109 112.277" stroke="none" fill="black" fill-rule="evenodd"/>
</svg>