<svg xmlns="http://www.w3.org/2000/svg" width="200" height="200" viewBox="0 0 200 200" version="1.1">
	<path d="M 66.179 10.750 C 30.717 10.962, 20.929 11.290, 21.186 12.260 C 21.366 12.942, 23.086 18.167, 25.007 23.872 L 28.500 34.244 36.500 33.590 C 40.900 33.230, 46.795 32.671, 49.601 32.347 L 54.702 31.760 55.896 36.630 C 56.553 39.308, 57.325 42.287, 57.613 43.250 C 58.098 44.877, 56.688 45, 37.579 45 C 9.432 45, 10.648 43.274, 22.318 66.654 C 27.354 76.744, 32.043 85, 32.737 85 C 34.529 85, 34.367 84.166, 30.991 75.979 C 29.337 71.967, 28.150 68.516, 28.355 68.312 C 28.649 68.018, 35.904 76.677, 41.216 83.663 C 41.776 84.400, 40.129 89.536, 36.725 97.663 C 32.803 107.030, 29.645 117.336, 25.045 135.787 C 21.577 149.695, 18.970 161.303, 19.251 161.584 C 19.531 161.865, 28.014 166.564, 38.100 172.027 C 49.863 178.399, 56.785 181.615, 57.403 180.997 C 57.933 180.467, 58.172 179.868, 57.933 179.666 C 57.695 179.464, 49.741 175.145, 40.258 170.067 C 30.775 164.990, 22.818 160.514, 22.575 160.121 C 21.665 158.650, 34.865 109.146, 38.472 100.500 C 44.076 87.067, 43.781 87.492, 46.080 89.572 C 48.583 91.837, 48.549 94.078, 45.488 128.459 C 44.120 143.836, 43 156.548, 43 156.709 C 43 156.869, 43.611 157, 44.358 157 C 45.906 157, 45.877 157.237, 49.100 118.754 L 51.341 92.008 48.276 88.194 L 45.211 84.380 50.855 70.696 C 53.960 63.170, 56.796 57.009, 57.157 57.006 C 58.715 56.992, 59.471 79.616, 59.355 122.750 L 59.229 169 80.865 169.032 L 102.500 169.064 97 174 L 91.500 178.936 103.223 178.968 L 114.946 179 146.223 155.843 C 163.425 143.107, 177.638 132.582, 177.806 132.454 C 177.974 132.326, 174.320 126.884, 169.685 120.361 L 161.259 108.500 159.613 85 C 158.709 72.075, 157.983 60.600, 158 59.500 C 158.018 58.400, 162.462 66.029, 167.877 76.453 C 177.078 94.170, 180 98.523, 180 94.515 C 180 93.606, 177.257 81.306, 173.905 67.181 C 167.478 40.104, 167.618 40.470, 155.410 18.774 L 150.500 10.049 131 10.264 C 120.275 10.382, 91.105 10.601, 66.179 10.750 M 51.750 13.749 C 37.038 13.905, 24.996 14.363, 24.990 14.766 C 24.985 15.170, 26.222 19.039, 27.740 23.365 L 30.500 31.231 38.500 30.583 C 42.900 30.227, 48.831 29.666, 51.680 29.338 L 56.861 28.741 57.544 32.382 C 57.919 34.384, 58.619 36.264, 59.098 36.561 C 59.817 37.005, 93.330 16.624, 96.450 13.846 C 96.974 13.379, 93.164 13.104, 87.950 13.233 C 82.752 13.361, 66.463 13.593, 51.750 13.749 M 102.554 15.360 C 102.880 16.659, 104.126 20.909, 105.323 24.806 L 107.500 31.891 124.371 24.400 C 133.650 20.279, 141.438 17.105, 141.679 17.346 C 141.920 17.586, 136.683 28.644, 130.041 41.918 C 119.016 63.953, 117.799 65.963, 116.042 65.023 C 114.223 64.049, 112.649 59.760, 107.502 41.750 C 106.598 38.587, 105.669 36, 105.438 36 C 104.822 36, 90.588 42.290, 90 42.822 C 89.725 43.070, 90.063 43.475, 90.750 43.720 C 91.438 43.966, 92 44.804, 92 45.583 C 92 46.743, 89.275 47, 77 47 C 59.915 47, 61.024 46.202, 63.640 56.619 C 65.049 62.229, 67.286 65.991, 79.516 83.324 C 88.068 95.445, 93.399 103.882, 92.870 104.456 C 92.116 105.273, 89.220 104.108, 79.949 99.255 C 79.647 99.096, 81.749 112.586, 84.620 129.233 C 87.747 147.359, 89.479 159.874, 88.937 160.433 C 88.440 160.947, 87.845 161.172, 87.615 160.933 C 87.385 160.695, 81.719 138.900, 75.025 112.500 C 68.331 86.100, 62.388 64.050, 61.818 63.500 C 61.103 62.811, 61.022 65.296, 61.556 71.500 C 61.982 76.450, 62.261 99.972, 62.176 123.771 L 62.021 167.042 81.761 166.771 L 101.500 166.500 106.599 141 L 111.698 115.500 123.273 86.159 C 129.640 70.021, 135.115 56.551, 135.441 56.226 C 137.872 53.795, 137.228 60.614, 132.737 84.881 L 127.669 112.262 139.016 122.929 L 150.363 133.596 124.845 154.548 L 99.326 175.500 106.172 176.290 L 113.017 177.080 143.505 154.439 C 162.465 140.360, 173.740 131.364, 173.322 130.649 C 172.953 130.017, 169.489 125.014, 165.625 119.531 L 158.599 109.561 156.864 85.031 C 154.494 51.514, 154.436 49.688, 155.730 49.257 C 156.341 49.053, 160.535 56.128, 165.051 64.979 C 169.567 73.830, 173.456 80.878, 173.693 80.640 C 174.422 79.911, 165.114 42.123, 163.364 38.708 C 162.460 36.944, 158.821 30.438, 155.277 24.250 L 148.833 13 125.397 13 L 101.962 13 102.554 15.360 M 80 27.613 C 64.008 37.735, 60.500 40.364, 60.500 42.228 C 60.500 44.463, 60.664 44.494, 70.500 44.149 C 80.044 43.815, 81.047 43.558, 92.500 38.516 C 105.987 32.578, 105.285 33.808, 101.720 22.385 L 99.500 15.270 80 27.613 M 131.500 24.058 C 129.300 25.121, 123.155 27.973, 117.844 30.394 L 108.188 34.797 111.975 47.290 C 114.057 54.162, 115.973 60.395, 116.231 61.142 C 116.490 61.889, 121.271 53.388, 126.855 42.250 C 132.440 31.113, 136.670 22.028, 136.255 22.062 C 135.840 22.096, 133.700 22.994, 131.500 24.058 M 37.250 47.748 C 27.762 47.913, 20 48.194, 20 48.374 C 20 48.554, 20.501 50.138, 21.113 51.894 C 22.162 54.903, 41.236 80.175, 42.917 80.783 C 43.348 80.939, 46.440 74.414, 49.789 66.283 C 53.138 58.153, 56.356 51.612, 56.939 51.750 C 57.523 51.888, 58 50.875, 58 49.500 C 58 47.700, 57.510 47.063, 56.250 47.225 C 55.288 47.348, 46.737 47.584, 37.250 47.748 M 68.007 72.591 C 68.020 74.399, 78.839 115.461, 78.917 114 C 78.961 113.175, 78.323 108.675, 77.500 104 C 76.677 99.325, 76.002 95.120, 76.001 94.655 C 76.001 94.190, 78.475 95.206, 81.500 96.913 C 84.525 98.620, 87 99.755, 87 99.435 C 87 99.115, 82.725 92.740, 77.500 85.267 C 72.275 77.795, 68.003 72.090, 68.007 72.591 M 122.702 95.289 C 114.323 116.659, 113.808 118.447, 109.107 142.500 C 106.420 156.250, 104.284 167.564, 104.361 167.642 C 104.437 167.720, 113.895 160.070, 125.378 150.642 L 146.257 133.500 135.524 123.274 L 124.792 113.048 128.389 93.351 C 130.367 82.517, 131.857 73.524, 131.699 73.365 C 131.541 73.207, 127.492 83.073, 122.702 95.289 M 79.079 117.583 C 79.127 118.748, 79.364 118.985, 79.683 118.188 C 79.972 117.466, 79.936 116.603, 79.604 116.271 C 79.272 115.939, 79.036 116.529, 79.079 117.583" stroke="none" fill="black" fill-rule="evenodd"/>
</svg>