<svg xmlns="http://www.w3.org/2000/svg" width="200" height="200" viewBox="0 0 200 200" version="1.1">
	<path d="M 147.701 17.605 C 147.383 20.688, 146.906 23.427, 146.642 23.692 C 146.377 23.956, 132.481 23.459, 115.762 22.587 C 74.902 20.454, 77.375 20.374, 76.679 23.856 C 76.159 26.455, 75.631 26.770, 70.804 27.362 C 67.887 27.719, 58.541 29.074, 50.035 30.372 L 34.570 32.733 40.742 26.932 L 46.913 21.132 42.206 19.626 C 39.618 18.798, 34.180 17.157, 30.122 15.980 C 26.065 14.803, 22.127 13.602, 21.372 13.313 C 20.575 13.007, 20 13.432, 20 14.326 C 20 15.172, 20.788 16.093, 21.750 16.372 C 22.713 16.651, 27.544 18.091, 32.487 19.573 L 41.474 22.266 34.237 29.045 C 30.257 32.774, 27 35.994, 27 36.202 C 27 36.409, 37.580 35.029, 50.511 33.134 C 63.442 31.239, 74.307 29.973, 74.655 30.322 C 75.165 30.832, 73 43.972, 70.486 55.614 C 70.131 57.261, 69.474 57.622, 67.515 57.248 C 66.132 56.983, 65 56.109, 65 55.304 C 65 54.234, 64.262 53.997, 62.250 54.424 C 60.486 54.798, 51.612 52.906, 37.500 49.147 C 25.400 45.925, 15.337 43.424, 15.138 43.589 C 14.844 43.834, 28.625 64.067, 32.291 68.772 C 32.836 69.472, 29.506 68.424, 24.891 66.442 C 20.276 64.461, 14.958 62.191, 13.073 61.397 C 7.832 59.190, 7.158 61.324, 12.184 64.215 C 14.558 65.580, 23.341 70.204, 31.702 74.490 L 46.905 82.283 40.541 94.391 C 20.276 132.951, 13.761 145.606, 13.718 146.500 C 13.691 147.050, 20.283 155.706, 28.368 165.736 L 43.066 183.973 114.783 183.348 C 154.227 183.004, 186.681 182.567, 186.902 182.376 C 187.123 182.186, 183.232 172.686, 178.256 161.265 L 169.210 140.500 167.136 115 C 165.045 89.285, 165.088 77.951, 167.437 35.250 C 167.851 27.728, 167.684 26, 166.541 26 C 164.711 26, 165.289 23.538, 156.439 69 C 152.209 90.725, 148.419 108.864, 148.015 109.309 C 147.500 109.878, 116.685 92.360, 113.262 89.553 C 113.131 89.445, 116.866 86.023, 121.561 81.947 C 129.813 74.784, 130.078 74.420, 129.517 71.019 C 128.986 67.793, 129.690 66.469, 137.969 55.124 C 142.936 48.317, 147 42.435, 147 42.053 C 147 41.670, 141.938 40.156, 135.750 38.687 C 129.563 37.218, 115.115 33.762, 103.644 31.008 C 92.173 28.254, 81.935 26, 80.894 26 C 79.852 26, 79 25.550, 79 25 C 79 23.656, 84.326 23.731, 119.330 25.567 C 135.759 26.428, 149.318 26.991, 149.462 26.817 C 149.606 26.642, 149.984 23.238, 150.304 19.250 C 150.750 13.665, 150.585 12, 149.582 12 C 148.736 12, 148.077 13.965, 147.701 17.605 M 75.662 43.632 C 74.160 51.680, 73.059 58.373, 73.216 58.506 C 73.372 58.639, 78.894 60.145, 85.487 61.851 C 94.925 64.295, 97.724 64.694, 98.651 63.727 C 104.600 57.525, 119.839 38.462, 119.251 37.957 C 118.162 37.021, 83.783 29, 80.859 29 C 78.473 29, 78.302 29.481, 75.662 43.632 M 124.355 42.250 C 124.673 44.038, 125.678 49.652, 126.589 54.727 L 128.246 63.953 135.604 53.791 C 139.651 48.201, 142.858 43.528, 142.731 43.406 C 142.465 43.151, 125.113 39, 124.310 39 C 124.017 39, 124.037 40.462, 124.355 42.250 M 110.026 54.589 C 104.265 61.503, 99.226 67.361, 98.827 67.607 C 98.226 67.978, 77.229 62.793, 73.427 61.334 C 71.985 60.780, 68.302 78.741, 69.614 79.932 C 70.387 80.634, 107.071 88, 109.795 88 C 110.361 88, 114.244 83.307, 118.424 77.572 L 126.023 67.144 123.777 54.572 C 122.542 47.657, 121.299 42.004, 121.015 42.010 C 120.732 42.015, 115.787 47.676, 110.026 54.589 M 30.682 61.805 C 37.806 72.041, 41.292 76.160, 44.168 77.735 L 48.046 79.859 49.380 77.680 C 54.307 69.626, 60.072 58.739, 59.639 58.306 C 59.127 57.794, 23.160 48.002, 21.788 48.001 C 21.396 48, 25.398 54.212, 30.682 61.805 M 155.163 90.037 C 150.586 113.392, 147.139 133.261, 147.504 134.190 C 148.483 136.682, 137.895 179, 136.292 179 C 134.588 179, 134.452 180.096, 138.865 158.163 C 142.541 139.891, 142.633 138.982, 140.746 139.581 C 139.654 139.927, 133.528 142.383, 127.131 145.038 C 119.354 148.266, 115.169 149.533, 114.500 148.862 C 113.833 148.192, 114.248 147.246, 115.750 146.019 C 116.987 145.007, 118 143.928, 118 143.621 C 118 143.313, 112.668 139.036, 106.152 134.115 L 94.304 125.168 92.119 141.834 C 89.412 162.482, 89.299 163, 87.481 163 C 86.207 163, 86 158.889, 86 133.519 L 86 104.038 83.750 103.528 C 81.245 102.960, 68.923 101.019, 67.750 101.008 C 67.338 101.003, 66.947 110.787, 66.882 122.750 C 66.817 134.713, 66.479 150.529, 66.132 157.898 L 65.500 171.296 52.842 154.234 L 40.184 137.173 47.077 111.836 C 53.437 88.456, 53.839 86.402, 52.275 85.237 C 51.343 84.542, 50.164 84.112, 49.654 84.282 C 48.810 84.563, 24.135 131.045, 18.902 142.211 L 16.694 146.923 30.481 164.049 L 44.268 181.174 113.384 180.460 C 151.398 180.067, 182.635 179.631, 182.800 179.490 C 182.965 179.349, 179.429 170.969, 174.944 160.867 L 166.788 142.500 164.586 116.500 C 162.713 94.382, 162.508 87.514, 163.208 70.500 C 163.661 59.500, 163.909 49.842, 163.759 49.037 C 163.610 48.233, 159.741 66.683, 155.163 90.037 M 60.819 71.733 C 58.447 80.381, 57.670 84.694, 58.409 85.101 C 59.009 85.432, 66.250 89.250, 74.500 93.586 L 89.500 101.469 113.978 105.173 C 127.441 107.210, 138.583 108.750, 138.739 108.595 C 138.894 108.439, 132.604 104.452, 124.761 99.734 L 110.500 91.155 89 87.044 C 77.175 84.783, 67.003 82.763, 66.396 82.554 C 65.628 82.290, 65.917 78.965, 67.344 71.619 C 68.473 65.813, 69.195 60.880, 68.948 60.656 C 68.702 60.432, 67.559 59.960, 66.410 59.608 C 64.476 59.015, 64.057 59.924, 60.819 71.733 M 54.611 74.182 C 51.524 79.827, 51.030 81.404, 52.128 82.100 C 54.425 83.556, 54.881 83.163, 56.018 78.750 C 56.620 76.412, 57.582 73.007, 58.156 71.183 C 59.874 65.720, 58.692 66.721, 54.611 74.182 M 124.625 73.450 C 123.643 74.948, 123.029 76.362, 123.260 76.593 C 124.018 77.352, 127.214 73.143, 126.807 71.921 C 126.583 71.248, 125.631 71.915, 124.625 73.450 M 50.043 111.250 C 46.571 124.037, 43.678 135.030, 43.615 135.677 C 43.482 137.034, 62.120 162.950, 63.250 162.980 C 63.663 162.991, 64 148.317, 64 130.371 L 64 97.742 69.140 98.424 C 71.967 98.799, 75.680 99.340, 77.390 99.626 C 79.412 99.964, 76.652 98.029, 69.500 94.096 C 63.450 90.769, 58.018 88.037, 57.429 88.024 C 56.839 88.011, 53.516 98.463, 50.043 111.250 M 88.345 113.079 C 88.705 118.155, 89.056 126.401, 89.125 131.404 L 89.250 140.500 90.618 131.090 C 91.370 125.915, 92.211 121.455, 92.487 121.180 C 92.762 120.905, 99.826 125.871, 108.185 132.217 L 123.382 143.754 133.410 139.565 L 143.438 135.376 145.672 124.438 C 148.278 111.684, 148.274 111.713, 147.099 112.439 C 146.387 112.879, 107.876 107.383, 91.095 104.447 L 87.690 103.851 88.345 113.079" stroke="none" fill="black" fill-rule="evenodd"/>
</svg>