<svg xmlns="http://www.w3.org/2000/svg" width="200" height="200" viewBox="0 0 200 200" version="1.1">
	<path d="M 66 10.666 C 51.425 14.713, 35.471 19.081, 30.546 20.373 C 25.622 21.665, 21.428 23.216, 21.226 23.821 C 21.025 24.425, 31.245 29.960, 43.937 36.120 C 56.629 42.280, 66.890 47.443, 66.740 47.593 C 66.590 47.743, 57.990 49.785, 47.630 52.131 L 28.792 56.395 23.646 54.569 C 20.816 53.565, 17.870 52.502, 17.100 52.207 C 16.003 51.787, 15.862 52.300, 16.449 54.586 C 16.861 56.189, 17.322 58.400, 17.474 59.500 C 18.123 64.204, 26.321 84, 27.620 84 C 28.379 84, 29 83.863, 29 83.696 C 29 83.530, 27.418 78.696, 25.485 72.956 C 23.552 67.216, 22.188 61.952, 22.454 61.260 C 23.336 58.961, 29.570 59.952, 39.092 63.907 C 44.267 66.055, 50.170 68.500, 52.210 69.339 L 55.920 70.865 49.066 85.182 C 40.541 102.989, 15.805 158.161, 16.205 158.476 C 20.009 161.479, 55.227 185.107, 55.496 184.837 C 55.707 184.627, 55.205 165.158, 54.380 141.573 C 53.147 106.270, 53.113 98.544, 54.191 97.861 C 54.911 97.404, 59.888 97.024, 65.250 97.015 C 73.864 97.002, 75.003 97.204, 75.028 98.750 C 75.043 99.713, 73.607 116.127, 71.837 135.226 C 70.067 154.325, 68.900 170.234, 69.244 170.577 C 69.588 170.921, 72.938 170.685, 76.688 170.053 L 83.507 168.902 98.162 154.951 C 106.223 147.278, 112.999 141, 113.221 141 C 113.546 141, 111.148 158.046, 107.629 180.750 C 107.270 183.068, 107.515 184, 108.483 184 C 110.053 184, 109.850 184.891, 114.511 157.542 C 116.475 146.015, 118.244 136.423, 118.442 136.225 C 118.639 136.028, 127.004 147.146, 137.031 160.933 C 147.057 174.720, 155.877 186, 156.630 186 C 157.384 186, 157.995 185.887, 157.989 185.750 C 157.983 185.613, 155.566 177.978, 152.618 168.784 L 147.257 152.069 162.878 166.984 C 171.470 175.187, 178.863 181.536, 179.306 181.093 C 180.442 179.959, 165.265 144.849, 160.248 137 L 156.092 130.500 167.223 129.739 C 173.346 129.321, 178.560 128.773, 178.811 128.523 C 179.471 127.862, 176.790 55.986, 176.089 55.568 C 175.765 55.375, 165.600 56.685, 153.500 58.480 C 141.400 60.274, 131.332 61.596, 131.128 61.416 C 130.923 61.236, 134.186 53.256, 138.378 43.683 C 142.570 34.109, 146 26.065, 146 25.806 C 146 25.292, 103.725 26.040, 103.139 26.565 C 102.941 26.743, 103.699 29.615, 104.825 32.947 L 106.871 39.006 104.685 38.500 C 103.483 38.222, 99.150 37.308, 95.056 36.470 C 90.962 35.632, 87.431 34.764, 87.208 34.542 C 86.986 34.319, 88.242 27.325, 90 19 C 91.758 10.675, 93.040 3.738, 92.848 3.585 C 92.657 3.433, 80.575 6.619, 66 10.666 M 59.174 15.314 C 37.430 21.346, 30.449 23.638, 32.174 24.181 C 36.811 25.641, 83.165 34.169, 83.677 33.656 C 84.528 32.806, 89.831 6.991, 89.135 7.090 C 88.786 7.139, 75.303 10.840, 59.174 15.314 M 33.220 27.553 C 33.450 27.783, 41.460 31.814, 51.021 36.510 C 67.941 44.822, 68.433 44.993, 69.530 42.944 L 70.656 40.840 73.578 43.247 C 77.504 46.481, 81.097 45.643, 82.373 41.194 C 82.883 39.418, 83.027 37.694, 82.695 37.362 C 82.363 37.030, 71.833 34.790, 59.296 32.385 C 46.758 29.980, 35.668 27.815, 34.651 27.574 C 33.634 27.333, 32.990 27.324, 33.220 27.553 M 117.750 28.746 C 111.838 28.923, 107 29.338, 107 29.668 C 107 29.998, 107.526 32.023, 108.169 34.168 C 109.094 37.256, 109.771 38.009, 111.419 37.784 C 113.340 37.522, 113.541 38.113, 114.036 45.500 C 114.484 52.182, 120.317 74.259, 122.700 78.289 C 122.956 78.723, 125.140 77.975, 127.552 76.627 L 131.938 74.176 138.719 76.185 C 142.448 77.290, 145.876 78.549, 146.336 78.983 C 146.796 79.417, 143.039 82.603, 137.987 86.064 C 132.935 89.524, 128.610 92.852, 128.377 93.459 C 128.144 94.066, 128.565 96.349, 129.312 98.532 C 130.366 101.609, 132.364 103.778, 138.209 108.192 C 143.610 112.269, 146.921 115.743, 149.889 120.442 L 154.031 127 165.172 127 L 176.313 127 175.649 105.250 C 175.284 93.287, 174.701 77.849, 174.353 70.942 L 173.721 58.384 150.636 61.701 C 137.939 63.524, 127.253 64.901, 126.891 64.758 C 126.528 64.616, 129.779 56.438, 134.115 46.584 C 138.452 36.730, 142 28.517, 142 28.334 C 142 28.150, 138.963 28.096, 135.250 28.212 C 131.537 28.329, 123.662 28.569, 117.750 28.746 M 85.399 40.547 C 85.047 41.947, 84.926 43.215, 85.130 43.363 C 85.333 43.512, 88.650 42.884, 92.500 41.969 L 99.500 40.304 94.201 39.152 C 86.826 37.549, 86.123 37.660, 85.399 40.547 M 93.711 44.365 C 84.779 46.535, 83.043 47.734, 83.015 51.750 C 82.996 54.645, 82.220 54.585, 78.928 51.431 C 76.641 49.240, 75.697 48.966, 72.496 49.567 C 68.918 50.238, 68.538 50.706, 64.276 59.705 C 61.818 64.894, 59.963 69.281, 60.153 69.453 C 60.344 69.625, 70.931 74.019, 83.680 79.218 L 106.860 88.671 113.816 84.695 L 120.773 80.719 117.407 70.610 C 115.556 65.049, 113.357 59.306, 112.521 57.846 C 111.684 56.386, 111 54.555, 111 53.777 C 111 52.999, 110.308 50.031, 109.461 47.182 C 107.646 41.068, 107.437 41.030, 93.711 44.365 M 49.500 54.443 C 41.800 56.216, 34.891 57.869, 34.148 58.117 C 33.404 58.365, 38.265 60.742, 44.950 63.398 C 51.636 66.054, 57.197 68.064, 57.309 67.864 C 58.379 65.956, 65 51.852, 65 51.483 C 65 50.850, 65.621 50.732, 49.500 54.443 M 20 57.031 C 20 57.564, 20.675 58, 21.500 58 C 22.325 58, 23 57.823, 23 57.607 C 23 57.391, 22.325 56.955, 21.500 56.638 C 20.675 56.322, 20 56.499, 20 57.031 M 49.711 90.250 C 38.183 114.847, 20 155.566, 20 156.784 C 20 157.766, 52.078 180.255, 52.655 179.678 C 52.822 179.511, 52.295 160.539, 51.483 137.517 C 50.671 114.496, 50.139 95.528, 50.301 95.366 C 50.463 95.204, 56.762 94.762, 64.298 94.383 L 78 93.696 77.984 97.098 C 77.976 98.969, 76.629 114.450, 74.992 131.500 C 71.137 171.643, 71.015 168.170, 76.250 167.394 C 78.588 167.047, 81.442 166.177, 82.594 165.461 C 86.495 163.034, 113.495 136.683, 114.231 134.584 C 114.633 133.438, 115.470 129.189, 116.090 125.141 L 117.217 117.783 122.390 122.891 C 127.008 127.452, 128.027 128, 131.888 128 C 134.928 128, 136.077 127.628, 135.754 126.750 C 135.501 126.063, 133.830 121.082, 132.042 115.683 C 130.078 109.755, 128.337 106.033, 127.645 106.286 C 112.579 111.807, 91.629 118.029, 90.823 117.223 C 90.154 116.554, 95.413 112.325, 106.660 104.490 C 115.922 98.038, 123.685 92.591, 123.910 92.386 C 124.540 91.813, 122.017 83.997, 121.210 84.021 C 120.819 84.032, 117.436 85.762, 113.692 87.866 L 106.883 91.691 82.922 81.845 C 69.744 76.430, 58.804 72, 58.613 72 C 58.421 72, 54.415 80.213, 49.711 90.250 M 128.752 79.123 C 126.760 80.145, 124.881 81.384, 124.577 81.876 C 124.097 82.652, 125.668 88.754, 126.646 89.915 C 126.839 90.143, 130.157 88.150, 134.020 85.486 C 137.883 82.823, 140.696 80.316, 140.272 79.915 C 139.847 79.514, 137.897 78.754, 135.937 78.225 C 133.087 77.457, 131.649 77.636, 128.752 79.123 M 112.851 103.316 C 106.444 107.817, 101.306 111.612, 101.433 111.748 C 101.631 111.962, 127.152 104.042, 127.699 103.597 C 128.170 103.214, 125.697 95.006, 125.128 95.066 C 124.783 95.103, 119.258 98.815, 112.851 103.316 M 133 108.654 C 133 109.117, 134.387 113.659, 136.082 118.748 L 139.165 128 144.023 128 C 146.696 128, 149.187 127.506, 149.560 126.903 C 150.642 125.153, 142.945 114.926, 137.750 111.210 C 135.137 109.342, 133 108.191, 133 108.654 M 118.500 127.002 C 117.611 131.048, 118.537 131.907, 121.063 129.381 C 123.049 127.395, 123.050 127.355, 121.130 125.618 C 119.253 123.919, 119.167 123.965, 118.500 127.002 M 141.329 130.636 C 140.495 130.976, 140.862 133.187, 142.600 138.307 C 144.936 145.188, 145.657 146.117, 159.223 159.715 C 167.022 167.533, 173.570 173.764, 173.772 173.561 C 174.605 172.728, 161.589 144.110, 157.291 137.325 L 152.651 130 147.575 130.079 C 144.784 130.122, 141.973 130.373, 141.329 130.636 M 122.021 132.474 C 121.008 133.695, 123.421 137.559, 136.072 154.968 C 144.472 166.529, 151.486 175.847, 151.658 175.675 C 151.831 175.503, 149.900 169.093, 147.369 161.431 L 142.766 147.500 134.655 139.250 C 126.495 130.950, 124.275 129.759, 122.021 132.474 M 134.938 135.410 C 137.378 137.911, 139.518 139.816, 139.692 139.642 C 139.866 139.468, 139.401 137.565, 138.660 135.413 C 137.489 132.013, 136.865 131.458, 133.906 131.181 L 130.500 130.862 134.938 135.410" stroke="none" fill="black" fill-rule="evenodd"/>
</svg>