<svg xmlns="http://www.w3.org/2000/svg" width="200" height="200" viewBox="0 0 200 200" version="1.1">
	<path d="M 22.679 16.573 C 33.378 28.566, 50.722 45.258, 51.380 44.194 C 51.727 43.633, 46.625 36.968, 40.042 29.383 C 33.459 21.799, 28.183 15.483, 28.317 15.349 C 28.859 14.808, 99.992 30.552, 99.996 31.215 C 100.009 33.609, 95.678 33.832, 84.939 31.990 C 78.713 30.921, 73.450 30.217, 73.243 30.424 C 73.036 30.631, 71.351 35.840, 69.500 42 C 67.649 48.160, 65.868 53.466, 65.543 53.791 C 64.969 54.365, 12.503 50.306, 8.500 49.378 C 7.247 49.088, 8.533 50.798, 11.940 53.957 L 17.381 59 11.297 59 C 0.619 59, 2.384 60.836, 21.843 69.965 C 43.345 80.054, 42 79.538, 42 77.695 C 42 76.860, 38.606 73.324, 34.457 69.838 L 26.914 63.500 34.707 63.176 C 38.993 62.997, 47.055 63.149, 52.621 63.513 L 62.743 64.175 61.803 67.877 C 60.987 71.092, 60.248 71.799, 56.182 73.248 L 51.500 74.917 35.225 107.513 C 26.263 125.461, 19.261 140.646, 19.643 141.305 C 22.326 145.932, 52.304 189.030, 52.619 188.714 C 52.838 188.496, 52.714 170.471, 52.346 148.659 C 51.781 115.255, 51.450 109, 50.246 109 C 49.020 109, 48.920 114.048, 49.549 144.500 C 49.952 164.025, 50.059 180, 49.786 180 C 49.514 180, 43.138 171.028, 35.617 160.062 L 21.942 140.124 37.706 108.578 C 51.278 81.416, 53.854 76.898, 56.235 76.068 C 59.743 74.845, 59.738 75.074, 56 87 C 52.565 97.959, 52.559 98, 54.353 98 C 55.219 98, 56.920 93.818, 59.079 86.375 C 62.583 74.301, 63.572 72.856, 69.299 71.447 C 71.854 70.819, 72.053 70.966, 71.581 73.129 C 70.393 78.566, 65.877 118.210, 66.387 118.720 C 66.962 119.295, 100.582 117.267, 105 116.391 C 107.040 115.986, 106.765 116.393, 103.500 118.602 C 101.300 120.090, 99.323 121.453, 99.107 121.630 C 98.892 121.807, 99.261 122.610, 99.929 123.414 C 100.944 124.638, 100.478 125.076, 97.071 126.097 C 94.832 126.768, 93 127.526, 93 127.782 C 93 128.039, 94.543 131.680, 96.429 135.874 C 98.316 140.068, 100.003 143.971, 100.179 144.546 C 100.356 145.122, 90.037 154.964, 77.250 166.419 C 64.463 177.873, 54 187.372, 54 187.528 C 54 187.685, 54.787 187.640, 55.750 187.428 C 56.712 187.216, 71.900 184.592, 89.500 181.597 C 120.165 176.378, 122.527 176.122, 146.119 175.448 C 159.659 175.061, 174.374 174.465, 178.819 174.123 L 186.900 173.500 173.902 156.205 L 160.904 138.911 171.151 116.265 C 176.786 103.809, 181.336 92.917, 181.262 92.059 C 181.074 89.898, 163.045 23.712, 162.494 23.160 C 161.892 22.558, 162.010 22.166, 154.396 50 C 150.710 63.475, 147.303 74.937, 146.825 75.472 C 146.281 76.080, 140.911 73.929, 132.469 69.722 C 119.969 63.492, 118.487 62.995, 112.241 62.926 C 103.833 62.833, 95.684 61.646, 98.500 60.923 C 99.600 60.641, 108.600 61.139, 118.500 62.030 C 128.400 62.921, 136.639 63.553, 136.809 63.433 C 137.162 63.184, 139.964 43.623, 139.684 43.366 C 139.583 43.273, 130.575 46.415, 119.666 50.349 L 99.833 57.500 88.416 56.594 C 77.723 55.746, 77 55.553, 77 53.561 C 77 52.016, 79.532 49.645, 86.250 44.896 C 91.338 41.301, 96.009 38.059, 96.632 37.693 C 97.255 37.327, 102.629 37.921, 108.575 39.014 C 121.867 41.456, 149 41.893, 149 39.665 C 149 38.737, 142.711 36.982, 128.400 33.915 L 107.800 29.500 110.447 27.500 C 112.430 26.001, 119.639 24.368, 139.219 20.983 C 153.588 18.498, 165.507 15.980, 165.704 15.388 C 166.266 13.701, 146.515 13.006, 96.093 12.940 C 52.343 12.883, 24.317 11.954, 19 10.384 C 16.956 9.781, 17.627 10.909, 22.679 16.573 M 44.500 15.590 C 47.350 16.565, 101.359 28, 103.115 28 C 104.247 28, 107.047 26.702, 109.337 25.116 C 112.930 22.626, 115.890 21.849, 130.958 19.435 C 140.560 17.897, 147.985 16.532, 147.458 16.402 C 145.916 16.022, 43.399 15.213, 44.500 15.590 M 102.517 33.364 C 100.851 34.582, 101.607 34.904, 109.576 36.366 C 114.484 37.267, 121.650 37.964, 125.500 37.915 L 132.500 37.825 120 34.942 C 105.507 31.600, 104.993 31.553, 102.517 33.364 M 72.637 41.206 C 68.371 55.298, 68.398 55, 71.392 55 C 73.460 55, 74 54.515, 74 52.660 C 74 50.852, 76.158 48.766, 83.500 43.474 C 88.725 39.708, 93 36.527, 93 36.404 C 93 36.281, 89.737 35.657, 85.750 35.016 C 81.763 34.376, 77.746 33.640, 76.824 33.382 C 75.479 33.005, 74.652 34.551, 72.637 41.206 M 161.160 36.183 C 160.589 38.007, 157.772 47.994, 154.901 58.375 L 149.680 77.250 151.984 78.988 C 154.799 81.111, 153.831 83.247, 150.439 82.395 C 149.040 82.044, 148 82.221, 148 82.810 C 148 83.374, 147.721 84.563, 147.381 85.451 C 146.847 86.841, 147.494 86.776, 152.034 84.986 C 155.650 83.561, 157.631 83.231, 158.337 83.937 C 158.903 84.503, 159.172 85.130, 158.933 85.329 C 158.695 85.528, 155.575 87.630, 152 90 C 148.425 92.370, 145.382 94.396, 145.237 94.501 C 145.092 94.607, 143.907 98.362, 142.603 102.846 C 140.332 110.660, 140.311 111, 142.116 111 C 144.827 111, 144.440 113.673, 141.628 114.379 C 139.507 114.911, 138.751 116.778, 134.499 132.003 C 130.256 147.194, 129.568 148.898, 128.122 147.794 C 126.536 146.585, 112.123 133.998, 106.835 129.204 C 104.407 127.004, 103.851 126.894, 100.585 127.972 C 98.613 128.623, 97 129.507, 97 129.937 C 97 130.367, 98.587 134.153, 100.526 138.350 L 104.052 145.982 100.776 148.958 C 98.974 150.595, 89.791 158.811, 80.368 167.217 C 70.945 175.623, 63.584 182.634, 64.009 182.797 C 64.434 182.960, 77.768 180.854, 93.641 178.117 C 122.322 173.171, 122.680 173.135, 151.750 172.436 C 167.838 172.049, 181 171.382, 181 170.954 C 181 170.526, 175.825 163.328, 169.500 154.957 C 163.175 146.586, 158 139.426, 158 139.045 C 158 138.664, 162.538 128.486, 168.084 116.426 C 173.630 104.367, 178.180 93.600, 178.197 92.500 C 178.223 90.696, 163.198 33.940, 162.494 33.183 C 162.332 33.009, 161.732 34.359, 161.160 36.183 M 120.777 52.766 C 113.779 55.307, 108.301 57.635, 108.605 57.938 C 109.049 58.383, 134.065 60.922, 134.673 60.584 C 134.768 60.531, 135.163 57.678, 135.552 54.244 C 136.117 49.247, 135.983 48.014, 134.879 48.072 C 134.121 48.112, 127.774 50.224, 120.777 52.766 M 18.583 56.458 C 22.341 59.776, 22.825 59.919, 30.500 59.962 C 34.900 59.988, 44.164 60.297, 51.087 60.650 C 62.599 61.237, 63.733 61.139, 64.361 59.503 C 64.738 58.519, 64.924 57.609, 64.774 57.481 C 64.476 57.228, 18.398 52.980, 16.083 52.992 C 15.304 52.997, 16.429 54.556, 18.583 56.458 M 67 59.500 C 67 60.500, 68 61, 70 61 C 72 61, 73 60.500, 73 59.500 C 73 58.500, 72 58, 70 58 C 68 58, 67 58.500, 67 59.500 M 76 60.095 C 76 61.767, 76.765 61.998, 82.250 61.985 C 88.586 61.969, 93.029 60.617, 89.972 59.635 C 89.162 59.374, 85.688 58.943, 82.250 58.676 C 76.600 58.236, 76 58.373, 76 60.095 M 21.354 66.614 C 26.223 69.095, 30.406 70.927, 30.649 70.684 C 30.892 70.441, 28.762 68.388, 25.915 66.121 C 21.689 62.757, 19.983 62.009, 16.619 62.051 L 12.500 62.101 21.354 66.614 M 64.947 66.639 C 64.395 68.090, 64.148 69.481, 64.397 69.730 C 65.394 70.727, 71.889 67.531, 72.336 65.825 C 72.729 64.320, 72.211 64, 69.382 64 C 66.594 64, 65.762 64.495, 64.947 66.639 M 75 65 C 75 66.264, 77.043 66.264, 79 65 C 80.169 64.245, 79.893 64.027, 77.750 64.015 C 76.237 64.007, 75 64.450, 75 65 M 81 67.109 C 77.975 68.297, 75.306 69.439, 75.070 69.648 C 74.429 70.213, 69.017 115.351, 69.529 115.863 C 69.771 116.104, 79.473 115.593, 91.089 114.727 L 112.209 113.152 127.604 102.931 C 136.072 97.309, 143 92.352, 143 91.915 C 143 91.478, 138.162 92.831, 132.250 94.922 C 124.461 97.677, 119.158 98.889, 113 99.322 L 104.500 99.919 94.500 87.763 C 89 81.077, 84.381 75.339, 84.236 75.012 C 84.091 74.685, 93.766 75.196, 105.736 76.147 C 117.706 77.098, 131.325 78.140, 136 78.463 L 144.500 79.049 131.619 72.452 L 118.738 65.854 102.619 65.402 C 87.850 64.988, 86.039 65.131, 81 67.109 M 97.708 87.524 L 105.500 97.047 113.500 96.578 C 119.581 96.222, 124.125 95.137, 132.439 92.057 C 138.456 89.829, 143.736 87.442, 144.174 86.753 C 145.397 84.827, 145.146 82.002, 143.750 81.979 C 143.063 81.968, 131.925 81.077, 119 80 C 106.075 78.923, 94.244 78.032, 92.708 78.021 C 90.008 78.001, 90.170 78.310, 97.708 87.524 M 128.591 105.506 L 117.683 112.888 123.591 112.399 C 138.303 111.179, 137.487 111.534, 138.962 105.716 C 139.690 102.847, 140.494 99.938, 140.749 99.250 C 141.576 97.026, 139.689 97.997, 128.591 105.506 M 115 115.925 C 111.017 116.715, 102.779 121.833, 103.530 123.049 C 103.921 123.681, 119.511 119.024, 128 115.738 C 130.102 114.925, 119.253 115.080, 115 115.925 M 121.750 120.868 C 114.188 123.386, 108 125.754, 108 126.131 C 108 127.049, 127.073 143.549, 127.872 143.321 C 128.467 143.152, 136.165 116.763, 135.714 116.442 C 135.596 116.359, 129.313 118.351, 121.750 120.868" stroke="none" fill="black" fill-rule="evenodd"/>
</svg>