<svg xmlns="http://www.w3.org/2000/svg" width="200" height="200" viewBox="0 0 200 200" version="1.1">
	<path d="M 16.750 12.970 C 18.538 14.621, 20.012 16.316, 20.028 16.736 C 20.058 17.588, 54.437 43.847, 56.617 44.683 C 57.384 44.978, 57.980 44.610, 57.955 43.857 C 57.930 43.111, 52.531 38.262, 45.957 33.082 C 39.382 27.902, 34.172 23.495, 34.378 23.288 C 34.814 22.853, 62.093 32.989, 63.325 34.044 C 63.779 34.433, 62.092 35.059, 59.575 35.436 C 57.059 35.814, 55.016 36.432, 55.036 36.811 C 55.056 37.190, 56.578 38.639, 58.417 40.032 L 61.762 42.563 56.307 50.282 L 50.852 58 28.843 58 C 16.351 58, 6.977 58.386, 7.167 58.893 C 7.350 59.384, 13.628 65.431, 21.119 72.331 L 34.738 84.877 40.609 76.689 L 46.480 68.500 47.366 72.673 C 48.176 76.489, 47.685 78.282, 41.618 93.673 C 35.051 110.335, 34.932 110.809, 29.549 141.973 C 26.559 159.283, 24.279 173.612, 24.482 173.815 C 24.685 174.019, 31.454 168.856, 39.524 162.343 L 54.197 150.500 53.643 143 C 53.339 138.875, 52.539 122.636, 51.867 106.913 L 50.644 78.326 53.904 70.239 C 55.697 65.790, 57.839 61.892, 58.664 61.576 C 59.489 61.259, 65.991 61, 73.113 61 L 86.063 61 93.532 66.621 C 97.639 69.713, 101 72.543, 101 72.911 C 101 73.279, 96.500 75.794, 91 78.500 L 81 83.420 80.980 90.460 C 80.964 96.014, 80.016 100.441, 76.492 111.429 C 74.034 119.089, 72.131 125.434, 72.262 125.527 C 72.393 125.620, 77.225 128.306, 83 131.496 C 88.775 134.686, 94.091 137.758, 94.814 138.323 C 95.827 139.116, 94.116 141.220, 87.338 147.513 L 78.548 155.674 102.348 169.826 L 126.149 183.977 150.824 167.456 C 164.396 158.369, 176.530 150.146, 177.790 149.183 C 180.031 147.468, 179.659 147.350, 160.040 143.508 C 149.018 141.350, 140.009 139.340, 140.021 139.042 C 140.032 138.744, 147.907 134.455, 157.521 129.511 C 167.134 124.567, 175 120.271, 175 119.964 C 175 119.657, 168.914 117.854, 161.476 115.957 C 151.612 113.441, 148.325 112.236, 149.329 111.504 C 150.086 110.952, 157.043 107.174, 164.789 103.108 L 178.872 95.716 178.410 91.108 C 178.156 88.574, 177.296 77.324, 176.498 66.108 C 175.701 54.892, 174.889 45.556, 174.694 45.361 C 174.499 45.166, 165.600 54.448, 154.920 65.989 C 144.239 77.529, 135.201 86.978, 134.835 86.986 C 133.918 87.005, 117.759 64.908, 118.296 64.370 C 118.534 64.133, 124.526 65.982, 131.611 68.481 C 144.147 72.902, 149.959 73.691, 145.500 70.366 C 144.400 69.545, 138.953 66.427, 133.395 63.437 L 123.290 58 104.895 57.978 C 88.569 57.958, 86.230 57.748, 84.100 56.110 L 81.700 54.265 91.165 51.112 C 100.194 48.103, 100.821 48.026, 104.771 49.419 L 108.911 50.880 111.007 47.488 C 112.825 44.548, 114.397 43.672, 122.829 40.909 L 132.553 37.721 143.527 41.751 C 149.562 43.968, 154.634 45.659, 154.799 45.509 C 155.047 45.282, 149.193 31.284, 148.372 30.140 C 148.230 29.943, 144.685 30.934, 140.495 32.343 L 132.875 34.905 124.955 32.102 C 120.599 30.560, 116.802 29.532, 116.517 29.816 C 115.267 31.066, 116.382 31.899, 122.233 34.087 L 128.466 36.418 122.983 38.019 C 118.567 39.309, 117.437 39.365, 117.177 38.310 C 116.688 36.329, 115.221 36.733, 113.529 39.316 C 112.621 40.701, 109.845 42.314, 106.619 43.331 L 101.226 45.031 88.613 40.366 C 81.676 37.800, 76.002 35.431, 76.003 35.100 C 76.012 33.663, 122.935 24.573, 149 20.959 C 164.675 18.785, 177.613 17.005, 177.750 17.003 C 177.887 17.002, 178 16.325, 178 15.500 C 178 14.395, 176.846 14, 173.618 14 C 166.803 14, 49.549 11.155, 30.500 10.528 L 13.500 9.968 16.750 12.970 M 23.500 14.729 C 24.600 15.805, 35.437 20.399, 47.581 24.939 L 69.663 33.192 95.081 27.637 C 109.062 24.583, 129.039 20.913, 139.476 19.482 C 149.914 18.051, 158.570 16.764, 158.712 16.621 C 158.855 16.479, 134.565 15.822, 104.736 15.162 C 74.906 14.502, 43.975 13.694, 36 13.367 C 21.597 12.776, 21.513 12.785, 23.500 14.729 M 141.758 34.891 L 137.017 36.500 143.180 38.745 C 146.570 39.979, 149.524 40.809, 149.744 40.589 C 149.964 40.369, 149.325 38.635, 148.322 36.735 L 146.500 33.282 141.758 34.891 M 64.114 37.154 C 62.251 37.690, 61.126 38.475, 61.614 38.899 C 62.101 39.323, 66.187 42.480, 70.693 45.916 L 78.886 52.161 87.413 49.384 C 92.103 47.857, 95.789 46.455, 95.603 46.270 C 94.882 45.549, 69.501 36.005, 68.530 36.090 C 67.964 36.140, 65.976 36.619, 64.114 37.154 M 63.094 47.250 C 62.623 48.487, 61.503 51.257, 60.606 53.404 C 59.708 55.550, 59.156 57.489, 59.378 57.712 C 59.910 58.243, 74.978 53.660, 74.991 52.963 C 75.001 52.344, 65.328 45, 64.501 45 C 64.198 45, 63.565 46.013, 63.094 47.250 M 156.500 68.162 C 135.859 90.396, 136.361 89.747, 137.903 92.216 C 138.583 93.305, 138.995 94.298, 138.819 94.425 C 138.644 94.552, 134.959 96.870, 130.631 99.578 C 126.303 102.285, 120.080 107.367, 116.802 110.871 C 113.140 114.786, 110.485 116.885, 109.915 116.315 C 109.345 115.745, 113.570 110.439, 120.874 102.553 L 132.761 89.718 122.244 75.359 L 111.727 61 101.260 61 L 90.793 61 98.147 66.623 C 102.191 69.716, 105.901 72.614, 106.390 73.063 C 106.880 73.513, 102.042 76.351, 95.640 79.371 L 84 84.861 84 90.803 C 84 94.984, 82.814 100.455, 80 109.257 C 77.800 116.139, 76 122.388, 76 123.144 C 76 123.900, 80.612 127.078, 86.250 130.206 C 102.492 139.217, 101.939 137.501, 91.716 147.182 L 82.931 155.500 104.603 168.148 L 126.275 180.795 149.495 165.148 C 162.266 156.541, 172.217 149.228, 171.608 148.895 C 170.998 148.562, 161.777 146.575, 151.115 144.480 C 133.908 141.098, 131.942 140.515, 133.615 139.290 C 134.652 138.530, 142.475 134.297, 151 129.883 C 159.525 125.469, 166.852 121.515, 167.282 121.097 C 167.711 120.679, 161.974 118.806, 154.532 116.934 C 147.089 115.063, 141.006 113.300, 141.013 113.016 C 141.020 112.732, 148.201 108.738, 156.972 104.140 C 165.743 99.541, 173.596 95.266, 174.423 94.640 C 175.758 93.628, 175.762 91.374, 174.466 74.500 C 173.663 64.050, 172.893 54.471, 172.753 53.213 C 172.544 51.326, 169.706 53.936, 156.500 68.162 M 55 56.500 C 54.282 57.365, 54.185 58, 54.771 58 C 55.329 58, 56.045 57.325, 56.362 56.500 C 56.678 55.675, 56.781 55, 56.591 55 C 56.401 55, 55.685 55.675, 55 56.500 M 74 56.500 L 70.500 57.848 76.441 57.924 C 81.872 57.993, 82.216 57.874, 80.441 56.532 C 78.146 54.796, 78.423 54.797, 74 56.500 M 19.731 67.347 C 28.376 75.453, 33.616 80, 34.314 80 C 34.805 80, 45.584 65.372, 47.394 62.250 C 47.962 61.270, 44.322 61, 30.540 61 L 12.963 61 19.731 67.347 M 122 62.428 C 128.914 64.969, 130.742 65.206, 127 63.076 C 125.075 61.980, 122.375 61.097, 121 61.112 C 118.830 61.137, 118.962 61.311, 122 62.428 M 51.176 63.870 C 50.379 64.375, 49.981 66.063, 50.176 68.105 L 50.500 71.500 52.170 67.250 C 53.843 62.989, 53.643 62.306, 51.176 63.870 M 42.712 98.190 C 38.467 108.916, 37.401 113.342, 32.973 138.657 C 30.238 154.289, 28 167.294, 28 167.557 C 28 167.819, 33.175 163.891, 39.500 158.829 C 49.685 150.676, 50.998 149.274, 50.983 146.562 C 50.950 140.656, 48.078 86.744, 47.780 86.447 C 47.615 86.281, 45.334 91.566, 42.712 98.190 M 132.405 94.142 C 130.507 96.276, 130.508 96.278, 132.750 94.901 C 133.988 94.141, 135 93.177, 135 92.759 C 135 91.554, 134.443 91.850, 132.405 94.142" stroke="none" fill="black" fill-rule="evenodd"/>
</svg>