<svg xmlns="http://www.w3.org/2000/svg" width="200" height="200" viewBox="0 0 200 200" version="1.1">
	<path d="M 97.487 27.668 C 90.917 38.432, 85.002 47.446, 84.343 47.699 C 83.683 47.952, 80.073 47.561, 76.322 46.830 C 68.415 45.288, 69.590 47.689, 65.145 24 L 62.425 9.500 52.506 22.710 C 47.051 29.976, 42.501 35.826, 42.397 35.710 C 42.292 35.595, 42.911 32.239, 43.773 28.253 C 45.194 21.679, 45.039 18.627, 43.370 20.297 C 42.593 21.074, 38.005 39.837, 38.002 42.250 C 38.001 43.212, 38.444 44, 38.987 44 C 39.529 44, 44.543 37.914, 50.128 30.475 C 55.713 23.036, 60.496 17.162, 60.755 17.422 C 61.015 17.682, 62.457 24.449, 63.959 32.459 C 65.462 40.470, 66.898 47.232, 67.152 47.485 C 67.820 48.154, 81.739 51.001, 84.315 50.996 C 86.042 50.993, 88.115 48.322, 94.211 38.246 C 98.453 31.236, 103.376 23.250, 105.153 20.500 L 108.382 15.500 110.441 31 L 112.500 46.500 120 47.119 C 124.125 47.460, 131.891 47.797, 137.258 47.869 C 145.447 47.979, 169.927 50.726, 179.052 52.559 L 181.604 53.072 179.333 72.786 C 178.084 83.629, 176.570 105.075, 175.969 120.444 L 174.875 148.388 166.771 157.944 C 162.314 163.200, 155.737 170.998, 152.155 175.274 C 148.572 179.549, 145.254 182.918, 144.781 182.760 C 144.307 182.602, 137.174 177.105, 128.929 170.544 C 119.356 162.925, 114.401 158.374, 115.219 157.949 C 115.924 157.583, 122.864 156.264, 130.642 155.018 C 138.420 153.771, 145.216 152.470, 145.742 152.126 C 146.805 151.432, 154.695 92.362, 153.840 91.507 C 153.544 91.211, 151.568 91.329, 149.449 91.769 C 145.638 92.561, 145.471 92.799, 133.880 114.035 L 122.165 135.500 105.338 149.172 C 96.083 156.692, 88.376 162.709, 88.211 162.545 C 88.046 162.380, 90.555 158.027, 93.787 152.872 C 97.018 147.718, 104.736 134.835, 110.937 124.244 L 122.212 104.989 127.607 80.795 C 131.145 64.926, 132.663 56.263, 132.017 55.617 C 131.476 55.076, 130.863 54.828, 130.654 55.067 C 130.445 55.305, 126.378 64.275, 121.616 75 L 112.958 94.500 97.457 110.500 L 81.956 126.500 87.848 114.500 C 92.396 105.241, 111 57.792, 111 55.454 C 111 53.300, 106.323 57.197, 93.289 70.211 L 78.054 85.422 73.354 75.211 C 70.769 69.595, 68.056 65, 67.327 65 C 65.751 65, 65.689 65.746, 66.945 69.601 C 67.464 71.195, 69.300 77.167, 71.024 82.870 C 73.339 90.524, 74.453 92.947, 75.280 92.120 C 76.933 90.467, 77.552 90.721, 78.856 93.584 C 79.944 95.972, 79.460 96.999, 72.483 107.089 L 64.932 118.010 65.624 146.005 C 66.210 169.735, 66.101 174, 64.908 174.001 C 61.087 174.005, 46.380 171.611, 45.539 170.848 C 45.010 170.369, 44.060 160.366, 43.428 148.619 C 42.796 136.871, 42.001 126.811, 41.662 126.262 C 41.323 125.713, 37.210 124.460, 32.523 123.476 C 27.835 122.492, 24 121.532, 24 121.341 C 24 121.151, 30.123 109.944, 37.606 96.437 C 45.089 82.929, 51.051 71.720, 50.856 71.526 C 50.660 71.333, 44.698 73.610, 37.607 76.587 C 30.516 79.564, 24.172 82, 23.510 82 C 22.826 82, 21.140 77.576, 19.603 71.750 L 16.900 61.500 21.944 41 C 24.718 29.725, 26.991 20.163, 26.994 19.750 C 26.997 19.337, 26.410 19, 25.690 19 C 24.812 19, 22.680 26.035, 19.225 40.332 L 14.069 61.664 17.193 73.582 C 18.910 80.137, 20.469 85.686, 20.656 85.914 C 20.842 86.142, 26.220 84.203, 32.606 81.606 C 38.992 79.009, 44.374 77.040, 44.565 77.232 C 44.757 77.424, 39.322 87.679, 32.488 100.021 C 25.654 112.364, 20.386 122.749, 20.781 123.100 C 21.177 123.451, 25.586 124.729, 30.580 125.939 L 39.659 128.140 40.837 150.744 C 41.485 163.177, 42.124 173.455, 42.258 173.585 C 42.618 173.935, 65.112 177, 67.324 177 C 69.170 177, 69.207 176.094, 68.518 147.750 L 67.807 118.500 75.498 107.559 L 83.188 96.617 81.594 93.275 C 80.717 91.436, 80 89.378, 80 88.702 C 80 88.025, 85.873 81.628, 93.050 74.486 C 102.631 64.952, 105.797 62.297, 104.961 64.500 C 104.335 66.150, 101.130 74.700, 97.839 83.500 C 94.548 92.300, 88.059 107.334, 83.420 116.909 C 78.781 126.484, 75.194 134.527, 75.449 134.783 C 76.580 135.914, 79.636 133.102, 97.093 114.867 L 115.634 95.500 121.004 83.270 C 123.958 76.544, 126.496 71.162, 126.644 71.311 C 126.793 71.460, 125.230 78.988, 123.171 88.041 L 119.428 104.500 105.819 127.540 C 98.334 140.212, 89.479 154.831, 86.142 160.027 C 82.445 165.783, 80.433 169.833, 80.994 170.394 C 81.555 170.955, 82.420 170.922, 83.208 170.309 C 83.918 169.756, 93.336 162.254, 104.134 153.640 L 123.769 137.976 135.493 116.576 C 143.122 102.650, 147.877 95.004, 149.108 94.682 C 150.403 94.343, 150.998 94.710, 150.994 95.844 C 150.983 98.608, 144.106 149.228, 143.683 149.650 C 143.467 149.867, 135.462 151.421, 125.896 153.104 C 109.437 156, 107.093 156.556, 108.083 157.323 C 108.313 157.500, 116.683 164.250, 126.685 172.323 C 136.687 180.395, 145.083 187, 145.344 187 C 145.605 187, 153.008 178.476, 161.795 168.058 L 177.773 149.116 178.447 125.308 C 178.859 110.755, 180.194 91.646, 181.879 76.149 C 183.762 58.842, 184.298 50.685, 183.569 50.442 C 179.223 48.993, 150.152 45.808, 134.688 45.087 C 124.341 44.604, 115.678 44.012, 115.437 43.770 C 115.195 43.529, 113.918 35.577, 112.599 26.099 C 111.280 16.622, 110.028 8.694, 109.816 8.483 C 109.604 8.271, 104.056 16.905, 97.487 27.668" stroke="none" fill="black" fill-rule="evenodd"/>
</svg>