<svg xmlns="http://www.w3.org/2000/svg" width="200" height="200" viewBox="0 0 200 200" version="1.1">
	<path d="M 138.636 28.046 L 128.773 37.710 110.136 38.388 C 99.886 38.762, 80.850 39.750, 67.833 40.584 C 54.816 41.419, 42.891 41.966, 41.333 41.801 C 39.348 41.590, 38.500 41.949, 38.500 43 C 38.500 44.286, 41.500 44.500, 59.500 44.500 L 80.500 44.500 81.828 60.773 L 83.155 77.047 77.637 88.523 L 72.118 100 51.559 100 C 34.520 100, 31 100.242, 31 101.412 C 31 103.090, 33.663 103.549, 52 105.026 L 65.500 106.113 74.322 115.307 L 83.144 124.500 82.578 132.500 C 82.267 136.900, 82.009 145.029, 82.006 150.565 L 82 160.630 72.856 167.952 L 63.711 175.274 46.106 174.581 C 36.423 174.200, 26.767 173.624, 24.649 173.300 C 21.332 172.794, 20.847 172.958, 21.149 174.484 C 21.379 175.643, 24.086 177.248, 28.977 179.125 L 36.454 181.995 94.977 181.984 L 153.500 181.973 168.750 178.760 C 177.137 176.993, 184 175.223, 184 174.827 C 184 174.430, 177.641 170.292, 169.870 165.631 L 155.740 157.155 140.152 167.559 C 131.578 173.282, 124.256 177.634, 123.880 177.232 C 123.504 176.829, 120.862 171.363, 118.009 165.084 L 112.823 153.668 112.953 137.626 C 113.024 128.803, 113.179 121.487, 113.298 121.368 C 113.838 120.829, 131.419 118.086, 131.813 118.480 C 132.057 118.724, 130.782 128.174, 128.979 139.479 C 127.176 150.785, 125.896 160.229, 126.133 160.466 C 126.921 161.255, 167.505 149.343, 167.198 148.413 C 167.031 147.911, 162.317 139.746, 156.721 130.268 L 146.546 113.036 141.273 113.656 C 136.549 114.211, 136.002 114.079, 136.015 112.388 C 136.024 111.349, 136.394 109.927, 136.839 109.226 C 137.284 108.525, 144.083 105.732, 151.949 103.018 C 159.815 100.304, 166.464 97.869, 166.725 97.608 C 168.185 96.148, 164.719 95.109, 153.032 93.504 C 140.641 91.803, 140 91.602, 140 89.427 C 140 87.380, 145.252 53.327, 146.552 46.949 L 147.072 44.397 161.786 44.808 C 169.879 45.034, 177.587 45.057, 178.915 44.860 C 180.971 44.553, 178.945 42.537, 165.240 31.250 C 156.391 23.962, 149.004 18.086, 148.825 18.191 C 148.646 18.295, 144.061 22.730, 138.636 28.046 M 148.761 32.250 C 147.918 37.337, 147.340 41.626, 147.478 41.781 C 147.616 41.935, 153.512 41.935, 160.580 41.781 L 173.431 41.500 162.252 32.250 C 156.103 27.163, 150.897 23, 150.683 23 C 150.469 23, 149.604 27.163, 148.761 32.250 M 136.477 34.170 L 129.881 40.341 106.690 41.277 C 93.936 41.792, 83.402 42.301, 83.281 42.409 C 83.161 42.516, 83.748 50.431, 84.586 59.998 L 86.109 77.392 79.866 90.196 L 73.624 103 70.012 103 L 66.400 103 75.670 112.750 L 84.939 122.500 84.969 142.050 L 85 161.601 74.750 169.914 L 64.500 178.227 48.500 177.566 C 37.385 177.107, 32.958 177.220, 34 177.937 C 35.427 178.919, 121 179.561, 121 178.589 C 121 178.364, 118.531 172.851, 115.514 166.339 L 110.027 154.500 110.014 132.779 L 110 111.057 113.172 110.235 C 115.997 109.503, 116.596 108.667, 118.649 102.581 L 120.953 95.749 116.027 96.402 L 111.101 97.055 110.602 93.778 C 110.328 91.975, 109.843 81.453, 109.524 70.396 L 108.946 50.292 119.723 46.451 C 125.650 44.338, 132.485 42.360, 134.911 42.055 L 139.322 41.500 141.595 34.750 C 142.846 31.038, 143.690 28, 143.471 28 C 143.252 28, 140.105 30.777, 136.477 34.170 M 144.158 35.866 C 142.766 40.512, 142.650 42.781, 143.872 41.450 C 144.734 40.511, 146.353 32, 145.670 32 C 145.476 32, 144.795 33.740, 144.158 35.866 M 123.820 47.829 C 117.946 49.848, 112.845 51.800, 112.486 52.167 C 112.127 52.534, 112.160 62.125, 112.560 73.481 L 113.287 94.127 117.393 93.449 C 119.652 93.077, 121.632 92.653, 121.794 92.509 C 122.286 92.068, 138 45.939, 138 44.936 C 138 43.375, 134.988 43.990, 123.820 47.829 M 141.523 44.962 C 141.196 45.492, 137.339 56.344, 132.951 69.079 L 124.974 92.234 130.737 91.520 C 133.907 91.128, 136.562 90.738, 136.637 90.653 C 136.713 90.569, 138.215 81.275, 139.976 70 C 141.738 58.725, 143.420 48.263, 143.714 46.750 C 144.233 44.086, 142.792 42.910, 141.523 44.962 M 127.322 94.718 C 124.422 95.081, 123.963 95.652, 122.072 101.252 C 120.933 104.627, 120 107.685, 120 108.047 C 120 108.802, 133.176 106.078, 134.126 105.127 C 134.470 104.782, 135.048 102.138, 135.410 99.250 L 136.069 94 133.284 94.160 C 131.753 94.248, 129.070 94.499, 127.322 94.718 M 138.429 97.907 C 138.097 99.883, 137.588 102.356, 137.297 103.401 C 136.931 104.721, 137.187 105.148, 138.135 104.798 C 138.886 104.521, 143.916 102.831, 149.313 101.043 C 154.710 99.256, 158.944 97.611, 158.721 97.388 C 158.498 97.165, 153.977 96.382, 148.674 95.648 L 139.032 94.313 138.429 97.907 M 124.174 110.520 C 117.967 112.034, 118.346 111.772, 117.506 115.121 L 116.849 117.738 124.564 116.396 C 128.807 115.658, 132.378 114.930, 132.499 114.777 C 132.620 114.625, 133.016 113.263, 133.378 111.750 C 133.955 109.346, 133.752 109.014, 131.769 109.111 C 130.521 109.171, 127.103 109.806, 124.174 110.520 M 113.070 115.750 C 113.133 118.187, 113.238 118.272, 114 116.500 C 115.174 113.769, 115.174 113, 114 113 C 113.450 113, 113.032 114.237, 113.070 115.750 M 139.193 116.718 C 137.374 116.948, 135.676 117.680, 135.421 118.346 C 134.648 120.359, 129.071 156.405, 129.470 156.804 C 130.099 157.432, 163 147.770, 163 146.957 C 163 145.061, 145.134 116.489, 143.893 116.401 C 143.127 116.346, 141.012 116.489, 139.193 116.718 M 141.598 169.816 L 128.696 178.500 139.098 179.169 C 148.029 179.743, 151.268 179.479, 162 177.298 C 168.875 175.901, 175.117 174.426, 175.871 174.021 C 176.799 173.523, 173.954 171.298, 167.075 167.142 C 161.482 163.764, 156.365 161.030, 155.703 161.066 C 155.042 161.103, 148.694 165.040, 141.598 169.816" stroke="none" fill="black" fill-rule="evenodd"/>
</svg>