<svg xmlns="http://www.w3.org/2000/svg" width="200" height="200" viewBox="0 0 200 200" version="1.1">
	<path d="M 93 10.382 L 52.500 14.522 52.816 17.511 C 54.097 29.605, 58.978 57.883, 64.154 83.187 L 70.290 113.187 64.436 145.093 C 60.011 169.217, 58.237 177, 57.165 177 C 55.766 177, 21.835 167.964, 21.144 167.408 C 20.948 167.250, 27.621 157.380, 35.973 145.473 C 44.325 133.566, 51.008 123.675, 50.825 123.491 C 50.641 123.308, 44.508 122.833, 37.194 122.435 C 25.556 121.803, 23.976 121.512, 24.531 120.106 C 26.136 116.042, 42.892 69.346, 43.178 68.142 C 43.436 67.054, 30.583 60.220, 23.556 57.708 C 23.037 57.522, 25.781 49.975, 29.656 40.935 L 36.700 24.500 44.570 18.840 C 48.898 15.727, 52.603 12.690, 52.803 12.090 C 53.590 9.730, 50.149 11.309, 42.585 16.777 L 34.671 22.500 26.865 40.500 L 19.059 58.500 24.564 61.142 C 27.592 62.595, 32.304 64.745, 35.035 65.920 C 37.766 67.094, 40 68.381, 39.999 68.778 C 39.999 69.175, 35.587 81.650, 30.194 96.500 L 20.389 123.500 24.445 124.176 C 26.675 124.548, 31.425 124.930, 35 125.026 C 47.598 125.362, 47.847 123.831, 31.371 147.333 C 23.338 158.791, 17.156 168.528, 17.633 168.970 C 18.522 169.795, 60.135 181.236, 60.523 180.763 C 60.641 180.618, 63.071 167.675, 65.922 152 C 68.773 136.325, 71.285 123.050, 71.503 122.500 C 71.722 121.950, 71.882 127.800, 71.858 135.500 L 71.816 149.500 78.793 164.801 C 82.630 173.217, 85.951 180.285, 86.174 180.507 C 86.396 180.729, 93.985 180.033, 103.039 178.960 C 112.092 177.887, 120.020 177.007, 120.655 177.005 C 121.424 177.002, 121.646 178.420, 121.321 181.250 L 120.833 185.500 125.166 180.712 L 129.500 175.923 141.913 174.411 C 153.350 173.017, 155.315 172.447, 166.913 167.159 L 179.500 161.420 180.141 143.460 C 180.493 133.582, 181.082 116.050, 181.449 104.500 L 182.118 83.500 167.069 74 C 158.792 68.775, 152.016 64.208, 152.010 63.852 C 152.005 63.496, 159.238 58.321, 168.084 52.352 L 184.168 41.500 166.584 41.227 C 156.913 41.077, 149 40.626, 149 40.225 C 149 39.824, 149.900 34.773, 151 29 C 153.363 16.600, 153.395 16, 151.692 16 C 150.869 16, 148.941 21.039, 146.498 29.571 C 143.334 40.622, 142.865 43.299, 143.974 43.984 C 145.103 44.681, 144.853 47.578, 142.522 60.877 L 139.707 76.928 137.013 75.009 L 134.319 73.091 127.104 83.352 L 119.889 93.612 112.195 92.718 C 107.963 92.227, 104.334 91.661, 104.131 91.461 C 103.929 91.260, 108.587 83.179, 114.484 73.503 C 124.655 56.813, 125.144 55.762, 124.009 53.022 C 123.284 51.271, 122.283 50.338, 121.466 50.651 C 120.450 51.041, 120.371 51.720, 121.144 53.416 C 122.028 55.358, 120.847 57.833, 112.470 71.582 C 107.136 80.337, 101.700 88.930, 100.390 90.678 L 98.007 93.857 103.754 94.511 C 106.914 94.871, 111.378 95.466, 113.674 95.833 L 117.848 96.500 104.801 114.794 C 97.625 124.855, 91.948 133.281, 92.185 133.518 C 92.422 133.755, 100.577 135.179, 110.308 136.682 C 123.634 138.739, 128 139.764, 128 140.832 C 128 143.649, 122.733 172.518, 122.089 173.236 C 121.157 174.274, 88.650 178.018, 87.809 177.185 C 87.430 176.808, 84.192 169.975, 80.615 162 L 74.111 147.500 75.022 120.500 C 75.523 105.650, 75.948 90.935, 75.966 87.800 L 76 82.099 88.494 68.300 C 95.366 60.710, 100.991 54.256, 100.994 53.958 C 100.997 53.659, 97.175 51.693, 92.500 49.587 C 87.825 47.482, 84 45.508, 84 45.202 C 84 44.755, 96.415 24.655, 99.223 20.556 C 99.652 19.930, 106.039 25.576, 114.893 34.407 L 129.838 49.314 130.874 45.407 C 132.837 38, 140 7.763, 140 6.883 C 140 5.631, 138.092 5.773, 93 10.382 M 94.117 13.083 C 73.556 15.200, 56.494 17.172, 56.202 17.465 C 55.158 18.509, 60.240 49.988, 66.134 78.980 C 69.430 95.194, 72.323 108.656, 72.563 108.896 C 72.803 109.137, 73 103.046, 73 95.362 L 73 81.391 84.500 68.736 C 90.825 61.775, 96 55.675, 96 55.179 C 96 54.684, 92.400 52.633, 88 50.621 C 83.600 48.610, 80 46.692, 80 46.360 C 80 46.027, 84.388 38.783, 89.750 30.262 L 99.500 14.769 113.787 29.514 C 121.645 37.624, 128.187 44.089, 128.326 43.880 C 128.464 43.671, 130.314 36.300, 132.437 27.500 C 134.559 18.700, 136.503 10.938, 136.755 10.250 C 137.359 8.606, 138.009 8.562, 94.117 13.083 M 145.165 61.676 L 142.011 79.351 147.089 83.926 L 152.167 88.500 157.117 114.848 L 162.067 141.196 153.283 150.667 C 132.514 173.064, 132.538 173.035, 135.671 172.484 C 137.227 172.210, 141.875 171.593, 146 171.114 C 151.711 170.450, 156.278 168.981, 165.147 164.955 L 176.794 159.667 177.481 140.584 C 177.859 130.088, 178.243 113.202, 178.334 103.060 L 178.500 84.620 162.768 74.560 C 154.116 69.027, 147.141 64.181, 147.268 63.791 C 147.396 63.401, 153.781 58.788, 161.458 53.541 L 175.415 44 161.867 44 L 148.319 44 145.165 61.676 M 131.313 82.140 C 129.161 85.088, 126.420 88.906, 125.222 90.624 L 123.043 93.748 128.061 94.414 C 132.292 94.975, 133.249 95.505, 134.159 97.790 C 135.454 101.042, 135.511 100.899, 137.450 89.518 C 138.912 80.942, 138.896 80.451, 137.103 78.658 C 135.266 76.821, 135.140 76.897, 131.313 82.140 M 139.270 94.750 L 137.186 106.500 143.229 124.281 C 146.552 134.060, 149.098 142.221, 148.886 142.416 C 148.674 142.610, 144.701 142.158, 140.058 141.410 C 135.415 140.662, 131.514 140.153, 131.388 140.279 C 131.262 140.405, 129.852 147.819, 128.256 156.754 C 125.625 171.472, 125.510 173, 127.030 173 C 128.383 173, 141.786 159.419, 156.738 142.896 L 159.095 140.292 154.430 115.396 C 149.809 90.733, 149.732 90.465, 146.180 86.750 C 144.208 84.688, 142.315 83, 141.974 83 C 141.633 83, 140.417 88.287, 139.270 94.750 M 108.322 114.294 C 101.493 123.942, 96.682 131.625, 97.369 131.784 C 100.264 132.456, 128.524 136.735, 128.757 136.537 C 128.899 136.417, 130.196 129.875, 131.639 121.999 C 134.194 108.066, 134.219 107.536, 132.581 102.340 L 130.898 97 125.699 97.044 L 120.500 97.088 108.322 114.294 M 135.654 115.537 C 133.103 128.160, 131.964 136.354, 132.667 137.004 C 133.866 138.110, 145.003 139.302, 144.984 138.322 C 144.975 137.870, 143.007 131.892, 140.610 125.037 C 136.861 114.316, 136.169 112.988, 135.654 115.537" stroke="none" fill="black" fill-rule="evenodd"/>
</svg>