<svg xmlns="http://www.w3.org/2000/svg" width="200" height="200" viewBox="0 0 200 200" version="1.1">
	<path d="M 51.355 21.847 C 33.458 32.168, 33 32.514, 33 35.736 C 33 37.107, 31.176 48.044, 28.948 60.042 L 24.895 81.855 29.111 91.678 C 31.430 97.080, 33.274 102.175, 33.208 103 C 33.142 103.825, 29.921 113.201, 26.050 123.835 L 19.011 143.170 22.255 155.584 C 24.040 162.412, 25.823 167.999, 26.218 167.999 C 26.860 168, 65.375 141.495, 73.897 135.188 L 77.295 132.674 69.897 128.886 C 62.227 124.959, 60 124.306, 60 125.986 C 60 126.528, 62.739 128.354, 66.087 130.044 L 72.173 133.116 49.971 148.609 C 37.760 157.131, 27.632 163.966, 27.465 163.798 C 27.297 163.630, 26 158.917, 24.582 153.323 L 22.004 143.152 29.309 122.735 L 36.614 102.318 32.213 91.996 L 27.813 81.675 32.182 57.617 L 36.552 33.559 51.878 24.781 L 67.203 16.003 82.852 26.628 C 91.458 32.472, 98.654 37.388, 98.841 37.551 C 99.029 37.715, 98.902 38.732, 98.560 39.811 C 97.984 41.625, 96.622 41.178, 80.496 33.887 C 70.903 29.549, 62.684 26, 62.231 26 C 61.486 26, 54.530 74.998, 55.211 75.445 C 55.370 75.550, 62.250 75.155, 70.500 74.567 L 85.500 73.500 92.500 59.404 L 99.500 45.307 106.250 48.337 C 109.963 50.004, 113 51.721, 113 52.152 C 113 53.131, 96.385 76.442, 94.721 77.798 C 94.049 78.345, 86.300 80.924, 77.500 83.529 C 68.700 86.134, 61.019 88.643, 60.432 89.104 C 59.186 90.082, 56.426 108.760, 57.385 109.719 C 58.731 111.065, 59.749 108.233, 60.859 100.057 C 61.490 95.414, 62.431 91.352, 62.951 91.030 C 63.471 90.709, 71.233 88.267, 80.199 85.604 L 96.500 80.763 106.334 66.963 C 116.114 53.239, 116.184 53.168, 119.084 54.179 L 122 55.196 122 64.205 C 122 72.376, 121.837 73.151, 120.250 72.537 C 119.287 72.165, 117.263 71.610, 115.750 71.305 C 113.240 70.798, 113 71.011, 113 73.735 C 113 75.377, 112.705 78.872, 112.345 81.501 L 111.690 86.281 115.416 85.582 C 117.465 85.197, 119.673 84.678, 120.321 84.428 C 121.195 84.091, 121.420 86.951, 121.189 95.487 C 120.909 105.899, 120.703 107, 119.034 107 C 118.019 107, 109.063 106.293, 99.132 105.430 C 89.201 104.566, 79.984 104.004, 78.651 104.180 C 76.434 104.473, 77.252 105.718, 88.182 118.696 L 100.138 132.892 98.907 158.951 C 98.230 173.283, 97.909 185.243, 98.194 185.527 C 98.724 186.057, 126.469 170.645, 128.778 168.538 C 129.815 167.593, 129.675 163.026, 128.044 144.436 C 126.936 131.821, 125.793 119.813, 125.503 117.750 C 125.132 115.105, 125.348 114.016, 126.238 114.055 C 126.932 114.086, 132.318 115.998, 138.207 118.305 L 148.914 122.500 139.570 142 C 131.709 158.405, 130.486 161.598, 131.863 162.119 C 132.763 162.460, 141.792 162.910, 151.926 163.119 L 170.352 163.500 174.658 140 C 177.026 127.075, 178.972 115.587, 178.982 114.470 C 178.992 113.354, 173.938 106.182, 167.750 98.532 L 156.500 84.624 148.551 81.994 C 144.178 80.548, 141.028 79.117, 141.551 78.814 C 142.073 78.511, 144.863 77.710, 147.750 77.032 C 150.637 76.355, 153 75.459, 153 75.043 C 153 74.081, 134.284 58.560, 127 53.481 C 123.975 51.372, 121.111 49.314, 120.634 48.907 C 120.158 48.501, 121.581 45.638, 123.797 42.545 L 127.824 36.920 135.064 50.710 L 142.304 64.500 162.402 76.155 C 173.456 82.565, 182.664 87.651, 182.864 87.457 C 183.064 87.264, 178.852 79.544, 173.505 70.303 C 164.155 54.146, 163.180 52.875, 148.141 37.246 L 132.500 20.992 120.538 22.496 C 113.959 23.323, 108.073 24, 107.459 24 C 106.845 24, 105.274 26.280, 103.969 29.066 C 102.664 31.852, 101.236 34.354, 100.796 34.626 C 100.355 34.899, 93.044 30.364, 84.548 24.549 C 76.053 18.734, 68.517 13.782, 67.801 13.545 C 67.085 13.308, 59.685 17.044, 51.355 21.847 M 118 25.550 C 112.775 26.253, 108.395 26.867, 108.267 26.914 C 108.139 26.961, 106.900 29.237, 105.514 31.972 L 102.995 36.944 110.154 41.972 L 117.314 47 122.789 39.409 L 128.264 31.817 136.276 47.158 L 144.287 62.500 159.894 71.597 C 168.477 76.601, 175.643 80.582, 175.819 80.445 C 175.994 80.308, 172.844 74.563, 168.819 67.678 C 162.476 56.829, 159.520 53.082, 146.655 39.580 C 135.884 28.275, 131.219 24.037, 129.655 24.136 C 128.470 24.210, 123.225 24.847, 118 25.550 M 63.535 32.250 C 63.258 33.487, 62.107 41.700, 60.977 50.500 C 59.847 59.300, 58.669 67.942, 58.359 69.704 C 57.806 72.844, 57.862 72.899, 61.147 72.479 C 62.991 72.243, 68.834 71.776, 74.131 71.440 L 83.762 70.831 89.925 58.252 C 93.315 51.334, 95.896 45.172, 95.661 44.559 C 95.299 43.615, 66.257 30, 64.605 30 C 64.293 30, 63.812 31.012, 63.535 32.250 M 101 41.542 C 101 42.968, 113.736 49.597, 114.674 48.660 C 115.103 48.230, 102.755 40, 101.680 40 C 101.306 40, 101 40.694, 101 41.542 M 125 64.941 C 125 73.926, 125.037 74.065, 127.750 75.225 C 131.480 76.818, 140.770 76.650, 144.757 74.916 L 148.015 73.500 137.632 65.042 C 131.921 60.389, 126.743 56.414, 126.125 56.208 C 125.347 55.949, 125 58.641, 125 64.941 M 115.608 76.335 C 114.966 78.729, 114.801 83, 115.351 83 C 115.544 83, 117.119 82.506, 118.851 81.902 C 123.116 80.415, 123.253 76.633, 119.094 75.183 C 116.526 74.288, 116.121 74.421, 115.608 76.335 M 124 78.393 C 124 80.159, 127.493 80.630, 128.500 79 C 128.840 78.450, 128.678 78, 128.141 78 C 127.603 78, 126.452 77.727, 125.582 77.393 C 124.544 76.995, 124 77.338, 124 78.393 M 127.722 82.209 L 123.945 83.212 124.222 96.707 L 124.500 110.202 138.242 115.351 C 145.800 118.183, 151.987 120.950, 151.990 121.500 C 151.994 122.050, 147.995 130.825, 143.104 141 L 134.211 159.500 143.356 160.138 C 148.385 160.489, 155.979 160.827, 160.231 160.888 C 167.472 160.993, 167.995 160.857, 168.477 158.750 C 169.795 152.993, 176 116.974, 176 115.081 C 176 113.873, 171.546 107.373, 165.750 100.122 L 155.500 87.300 145.949 84.150 C 135.858 80.822, 133.782 80.601, 127.722 82.209 M 92.414 119.468 L 102.968 131.936 101.817 155.968 C 101.184 169.185, 100.935 180.268, 101.264 180.598 C 102.348 181.682, 127.001 166.836, 126.980 165.112 C 126.936 161.552, 122.164 110.831, 121.844 110.521 C 121.470 110.160, 87.520 107, 84.007 107 C 82.261 107, 83.830 109.327, 92.414 119.468" stroke="none" fill="black" fill-rule="evenodd"/>
</svg>