<svg xmlns="http://www.w3.org/2000/svg" width="200" height="200" viewBox="0 0 200 200" version="1.1">
	<path d="M 85.402 35.750 L 86.096 53.500 76.421 56.790 C 71.100 58.599, 66.551 59.884, 66.313 59.646 C 66.075 59.408, 69.245 53.203, 73.357 45.857 C 77.470 38.511, 80.709 32.376, 80.556 32.223 C 80.109 31.775, 42.765 24.898, 42.494 25.213 C 42.359 25.371, 40.597 32.475, 38.578 41 C 36.560 49.525, 34.655 57.513, 34.346 58.750 C 33.937 60.384, 34.224 61, 35.392 61 C 36.276 61, 37 60.731, 37 60.403 C 37 59.656, 44.201 28.585, 44.447 28.270 C 44.732 27.906, 75.222 33.888, 75.744 34.410 C 76.002 34.668, 72.566 41.508, 68.109 49.609 C 63.652 57.710, 60.200 64.534, 60.439 64.773 C 60.678 65.012, 67.090 62.991, 74.687 60.283 L 88.500 55.359 88.110 38.029 L 87.721 20.700 91.610 21.293 C 93.750 21.619, 101.022 22.427, 107.772 23.087 C 118.267 24.114, 119.970 24.520, 119.537 25.894 C 117.543 32.219, 110 58.061, 110 58.568 C 110 58.914, 122.600 58.868, 138 58.465 C 153.400 58.061, 166 58.007, 166 58.345 C 166 58.682, 162.963 61.005, 159.250 63.508 L 152.500 68.058 132.750 67.378 L 113 66.698 113 88.462 L 113 110.227 117.562 109.543 C 123.559 108.644, 149.248 108.637, 156.418 109.533 L 162.053 110.237 154.399 114.718 L 146.744 119.198 132.622 119.648 C 124.855 119.895, 117.037 120.321, 115.250 120.594 L 112 121.091 112 144.464 L 112 167.836 124.661 172.754 L 137.323 177.672 116 178.336 C 104.273 178.701, 80.398 179, 62.946 179 C 34.434 179, 31.150 178.833, 30.583 177.357 C 30.237 176.453, 30.076 175.628, 30.226 175.524 C 30.377 175.420, 39.193 175.937, 49.819 176.674 L 69.137 178.014 79.035 168.769 L 88.934 159.523 88.414 142.012 C 88.128 132.380, 87.667 123.007, 87.389 121.182 L 86.884 117.864 70.989 118.182 C 62.247 118.357, 55.411 118.220, 55.797 117.877 C 56.184 117.534, 63.870 115.865, 72.877 114.167 C 81.884 112.469, 89.386 110.948, 89.547 110.786 C 89.963 110.370, 87.117 67.783, 86.641 67.308 C 86.242 66.908, 54.853 70.744, 54.516 71.233 C 54.196 71.698, 29.726 102.467, 29.073 103.225 C 28.730 103.624, 26.767 103.435, 24.712 102.804 C 20.274 101.442, 19.906 103.242, 28.955 82.035 C 32.834 72.943, 35.380 65.735, 34.833 65.397 C 34.302 65.068, 33.637 65.029, 33.356 65.310 C 33.076 65.591, 29.328 74.074, 25.028 84.160 L 17.210 102.500 21.185 104.323 C 28.920 107.869, 28.647 108.047, 43.197 90 L 56.500 73.500 69.500 71.801 C 76.650 70.867, 82.995 70.265, 83.600 70.462 C 84.283 70.686, 84.963 76.064, 85.394 84.661 C 85.776 92.272, 86.346 100.783, 86.661 103.573 L 87.234 108.647 72.367 111.344 C 61.349 113.343, 55.882 114.864, 51.250 117.219 C 47.813 118.966, 45 120.645, 44.999 120.948 C 44.999 121.252, 53.999 121.347, 64.999 121.160 L 85 120.819 85 127.753 C 85 131.566, 85.285 140.044, 85.634 146.593 L 86.268 158.500 77.145 166.825 L 68.023 175.150 46.761 173.681 C 35.068 172.873, 25.356 172.346, 25.180 172.509 C 25.004 172.673, 25.801 174.650, 26.951 176.903 L 29.041 181 91.861 181 C 126.413 181, 161.532 181.296, 169.903 181.659 L 185.124 182.318 177.312 170.202 C 173.016 163.538, 169.244 158.067, 168.932 158.043 C 168.619 158.019, 161.644 161.649, 153.432 166.110 C 145.219 170.570, 138.050 174.244, 137.500 174.273 C 136.950 174.302, 131.379 172.362, 125.120 169.961 L 113.741 165.595 114.370 158.147 C 114.717 154.050, 115 144.537, 115 137.005 L 115 123.313 131.191 122.645 L 147.381 121.978 158.768 115.366 C 166.406 110.930, 169.823 108.423, 169.148 107.748 C 168.531 107.131, 158.060 106.695, 142.073 106.621 L 116.004 106.500 116.002 88.096 L 116 69.692 134.620 70.279 L 153.240 70.866 164.363 63.433 L 175.487 56 144.743 56 C 127.834 56, 113.994 55.663, 113.986 55.250 C 113.979 54.837, 116.067 47.401, 118.627 38.724 C 121.187 30.047, 123.009 22.676, 122.676 22.343 C 122.215 21.882, 90.323 18.169, 85.604 18.027 C 85.083 18.011, 84.998 25.432, 85.402 35.750 M 152.246 169.778 L 137.992 177.500 148.746 178.123 C 162.080 178.895, 179 179.145, 179 178.571 C 179 177.207, 168.536 162.005, 167.613 162.028 C 167.001 162.043, 160.086 165.530, 152.246 169.778" stroke="none" fill="black" fill-rule="evenodd"/>
</svg>