<svg xmlns="http://www.w3.org/2000/svg" width="200" height="200" viewBox="0 0 200 200" version="1.1">
	<path d="M 110.017 10.245 C 110.027 11.485, 110.700 16.550, 111.514 21.500 C 113.523 33.731, 113.504 33.857, 110.094 30.590 L 107.188 27.806 70.594 30.595 C 50.467 32.129, 34.017 33.635, 34.037 33.942 C 34.057 34.249, 41.745 38.076, 51.122 42.447 C 63.594 48.260, 67.673 50.577, 66.318 51.078 C 65.299 51.455, 55.189 52.095, 43.851 52.500 C 24.008 53.208, 19.332 53.893, 21.508 55.773 C 22.054 56.244, 34.200 59.471, 48.500 62.943 C 62.800 66.416, 75.089 69.569, 75.808 69.951 C 76.539 70.338, 71.800 72.117, 65.058 73.984 C 58.426 75.821, 53 77.553, 53 77.833 C 53 78.113, 53.770 79.193, 54.710 80.232 C 56.827 82.571, 55.992 83.203, 48.353 85.035 C 42.459 86.449, 42.538 86.272, 44.634 93.312 C 45.102 94.882, 44.730 95.042, 41.837 94.514 C 28.351 92.052, 14.852 90.430, 14.368 91.214 C 14.055 91.719, 13.993 92.327, 14.230 92.563 C 14.467 92.800, 21.149 93.970, 29.080 95.163 C 37.011 96.356, 43.885 97.665, 44.356 98.072 C 44.826 98.479, 41.969 105.941, 38.007 114.656 C 31.646 128.643, 30.046 133.488, 24.345 156 C 20.793 170.025, 17.668 182.254, 17.400 183.175 C 16.949 184.726, 20.400 184.836, 64.207 184.675 C 90.218 184.579, 123.425 184.656, 138 184.847 L 164.500 185.195 167.691 171.847 L 170.882 158.500 168.691 156.372 C 167.486 155.201, 160.708 148.997, 153.628 142.584 C 140.789 130.956, 140.744 130.926, 136.165 131.213 L 131.574 131.500 129.847 120.524 C 128.897 114.487, 128.205 109.486, 128.310 109.411 C 128.414 109.337, 138.625 115.272, 151 122.601 C 163.375 129.930, 173.774 135.943, 174.109 135.963 C 174.444 135.983, 171.746 127.675, 168.114 117.500 C 161.560 99.137, 161.489 98.999, 158.505 98.930 C 151.163 98.758, 151.431 97.601, 159.957 92.647 C 164.453 90.034, 167.971 87.412, 167.773 86.820 C 167.536 86.109, 163.691 85.864, 156.457 86.098 C 150.431 86.293, 140.782 86.463, 135.016 86.476 C 125.816 86.497, 124.490 86.286, 124.193 84.750 C 124.006 83.787, 124.338 83, 124.931 83 C 126.334 83, 175.260 64.926, 176.274 64.033 C 176.700 63.658, 175.849 57.694, 174.383 50.780 L 171.718 38.208 159.609 32.439 C 152.949 29.266, 139.063 22.467, 128.750 17.330 C 111.412 8.693, 110.001 8.160, 110.017 10.245 M 113.018 13.250 C 113.028 13.387, 113.905 18.900, 114.967 25.500 L 116.898 37.500 123.892 44 C 130.398 50.047, 130.967 50.916, 132.060 56.474 C 132.706 59.760, 133.442 62.989, 133.696 63.651 C 133.988 64.410, 131.885 65.490, 127.983 66.585 L 121.809 68.317 122.505 73.909 C 122.887 76.984, 123.370 79.779, 123.578 80.120 C 123.969 80.759, 171.967 63.402, 173.179 62.183 C 173.552 61.807, 172.849 56.775, 171.615 51 L 169.372 40.500 141.936 26.827 C 116.860 14.330, 112.964 12.500, 113.018 13.250 M 70.239 33.295 C 55.796 34.404, 44.240 35.579, 44.560 35.906 C 44.880 36.233, 51.972 39.681, 60.320 43.569 C 69.330 47.765, 75.622 51.277, 75.802 52.211 C 76.063 53.568, 73.928 53.872, 60.303 54.417 C 29.646 55.645, 29.645 55.319, 60.310 63.038 C 75.056 66.750, 87.297 69.963, 87.512 70.179 C 87.727 70.394, 81.513 72.305, 73.702 74.427 C 58.847 78.461, 56.908 79.308, 58.622 81.022 C 59.319 81.719, 68.867 79.594, 88.572 74.359 C 104.483 70.132, 117.681 66.528, 117.903 66.350 C 118.125 66.172, 117.464 60.058, 116.434 52.763 C 114.600 39.774, 114.480 39.412, 110.653 35.250 C 106.007 30.197, 108.807 30.332, 70.239 33.295 M 118.017 43.538 C 118.027 44.617, 118.700 49.550, 119.514 54.500 C 120.327 59.450, 120.994 63.837, 120.996 64.250 C 121.001 65.264, 122.793 65.185, 127.135 63.979 L 130.769 62.970 129.292 57.106 C 128.100 52.374, 126.868 50.310, 122.907 46.409 C 119.024 42.584, 118.004 41.985, 118.017 43.538 M 90.011 76.685 C 74.891 80.788, 62.340 84.327, 62.119 84.548 C 61.898 84.769, 63.243 87.199, 65.108 89.949 L 68.500 94.948 75.668 94.974 C 79.611 94.988, 83.436 95.228, 84.168 95.508 C 85.003 95.826, 86.584 94.052, 88.403 90.758 C 89.999 87.866, 91.435 85.339, 91.593 85.143 C 91.752 84.946, 94.383 86.217, 97.441 87.966 C 101.207 90.121, 103 90.711, 103 89.796 C 103 89.008, 106.761 87.051, 112.023 85.101 L 121.045 81.758 120.455 78.129 C 119.237 70.638, 118.823 69.003, 118.171 69.112 C 117.802 69.174, 105.130 72.581, 90.011 76.685 M 51.748 86.839 C 46.717 88.215, 46.073 88.668, 46.610 90.456 C 47.549 93.578, 47.914 93.716, 56.747 94.282 C 62.901 94.676, 64.804 94.514, 64.247 93.641 C 60.978 88.524, 58.420 85.044, 58 85.145 C 57.725 85.211, 54.912 85.973, 51.748 86.839 M 116.500 86.464 L 113.500 87.838 117.750 87.919 C 120.897 87.979, 122 87.611, 122 86.500 C 122 84.668, 120.445 84.658, 116.500 86.464 M 90.719 92.142 C 89.739 93.863, 89.122 95.455, 89.346 95.680 C 89.571 95.905, 93.221 95.956, 97.457 95.794 L 105.159 95.500 99.490 92.250 C 96.371 90.463, 93.523 89.003, 93.160 89.006 C 92.797 89.010, 91.698 90.421, 90.719 92.142 M 132.680 89.745 L 124.860 90.087 125.547 93.293 C 125.925 95.057, 126.357 96.639, 126.508 96.808 C 126.659 96.977, 130.829 97.378, 135.774 97.698 C 144.586 98.269, 144.883 98.215, 150.633 94.970 C 161.581 88.793, 161.586 88.977, 150.473 89.201 C 144.988 89.312, 136.981 89.556, 132.680 89.745 M 111.500 90.933 L 103.500 91.500 108.178 94.250 C 114.118 97.741, 123 98.240, 123 95.082 C 123 92.203, 121.929 89.977, 120.643 90.183 C 120.014 90.284, 115.900 90.622, 111.500 90.933 M 49.311 99.401 C 49.536 100.005, 52.124 108.775, 55.062 118.890 L 60.403 137.279 70.485 136.662 L 80.566 136.046 95.533 127.938 C 103.765 123.478, 110.891 119.455, 111.369 118.996 C 112.202 118.197, 107.399 104, 106.295 104 C 105.849 104, 83.143 120.524, 72.261 128.767 C 66.408 133.201, 67.308 129.113, 75.421 114.414 C 79.589 106.862, 83 100.529, 83 100.342 C 83 100.154, 77.487 99.973, 70.750 99.940 C 64.013 99.908, 56.340 99.526, 53.701 99.091 C 50.339 98.539, 49.025 98.631, 49.311 99.401 M 80.134 111.570 C 76.654 117.933, 73.963 123.286, 74.153 123.464 C 74.344 123.642, 80.800 119.092, 88.500 113.354 C 96.200 107.615, 103.400 102.286, 104.500 101.512 C 106.277 100.262, 105.383 100.099, 96.480 100.052 L 86.461 100 80.134 111.570 M 109.039 101.250 C 109.060 101.938, 110.592 106.325, 112.443 111 C 115.221 118.014, 115.572 119.689, 114.449 120.578 C 113.700 121.171, 107.672 124.546, 101.053 128.078 C 94.175 131.748, 89.776 134.624, 90.787 134.790 C 92.652 135.097, 128.057 132.280, 128.541 131.787 C 128.696 131.629, 128.443 129.250, 127.978 126.500 C 127.513 123.750, 126.615 118.255, 125.983 114.289 L 124.833 107.078 118.504 103.539 C 111.895 99.844, 108.973 99.137, 109.039 101.250 M 120 100.987 C 120 101.678, 122.352 103, 123.582 103 C 124.946 103, 123.665 101.146, 122 100.710 C 120.900 100.423, 120 100.547, 120 100.987 M 127 102.952 C 127 105.304, 126.748 105.130, 150.250 119.001 C 160.288 124.925, 168.625 129.449, 168.777 129.055 C 168.930 128.660, 166.899 122.299, 164.265 114.919 L 159.477 101.500 143.238 101.225 C 127.571 100.960, 127 101.021, 127 102.952 M 39.670 117.750 C 34.012 130.340, 32.160 136.046, 27.021 156.719 C 23.709 170.040, 21 181.244, 21 181.616 C 21 181.989, 35.063 182, 52.250 181.640 C 69.438 181.280, 101.050 181.390, 122.500 181.885 C 143.950 182.380, 161.652 182.643, 161.839 182.470 C 162.025 182.297, 163.478 177.058, 165.067 170.828 C 166.656 164.598, 167.966 159.463, 167.978 159.417 C 167.990 159.371, 161.730 153.634, 154.067 146.667 C 143.098 136.694, 139.535 134.003, 137.317 134.015 C 131.957 134.044, 131.912 134.326, 134.543 151.027 C 135.883 159.537, 137.167 167.613, 137.394 168.974 C 137.853 171.715, 136.879 170.787, 124.890 157.065 L 119.281 150.645 110.305 160.013 L 101.329 169.381 86.415 158.867 C 78.212 153.084, 70.970 148.042, 70.323 147.662 C 69.675 147.282, 66.793 147.899, 63.919 149.032 C 60.425 150.409, 58.360 150.760, 57.689 150.089 C 57.019 149.419, 57.650 148.550, 59.593 147.467 C 61.192 146.576, 65.061 144.416, 68.191 142.668 L 73.883 139.491 66.122 139.843 L 58.361 140.195 52.975 121.598 C 50.012 111.369, 47.298 103, 46.943 103 C 46.588 103, 43.315 109.638, 39.670 117.750 M 101.500 136.943 C 83.502 138.480, 80.962 138.927, 76.128 141.404 C 73.174 142.918, 71.149 144.520, 71.628 144.964 C 73.820 146.994, 99.878 165, 100.623 165 C 101.085 165, 105.557 160.922, 110.562 155.938 L 119.662 146.876 126.331 154.492 C 134.063 163.322, 133.992 163.448, 131.128 146 L 129.404 135.500 125.452 135.368 C 123.278 135.295, 112.500 136.004, 101.500 136.943" stroke="none" fill="black" fill-rule="evenodd"/>
</svg>