<svg xmlns="http://www.w3.org/2000/svg" width="200" height="200" viewBox="0 0 200 200" version="1.1">
	<path d="M 73.130 18.250 C 71.052 22.788, 66.737 32.237, 63.540 39.250 C 60.343 46.263, 57.377 52, 56.949 52 C 56.520 52, 49.656 49.750, 41.695 47 C 33.734 44.250, 27.058 42, 26.860 42 C 26.662 42, 26.575 67.987, 26.667 99.750 C 26.803 146.941, 27.153 160.471, 28.578 173.750 C 29.538 182.688, 30.651 190, 31.051 190 C 31.452 190, 37.841 185.550, 45.250 180.112 L 58.719 170.223 94.325 169.483 L 129.931 168.742 139.285 178.563 L 148.639 188.384 157.284 173.442 L 165.929 158.500 165.315 121.500 C 164.795 90.168, 164.969 81.991, 166.448 68.119 C 167.742 55.994, 167.900 51.556, 167.057 51.035 C 166.430 50.648, 160.316 49.063, 153.471 47.513 L 141.023 44.695 123.503 49.719 C 101.984 55.890, 100.228 55.803, 98.327 48.471 C 97.618 45.737, 97.030 42.809, 97.019 41.964 C 97.009 41.119, 101.752 36.893, 107.560 32.573 C 113.367 28.254, 117.755 24.372, 117.310 23.948 C 116.585 23.257, 89.397 15, 87.849 15 C 87.501 15, 88.508 20.063, 90.087 26.250 C 91.665 32.438, 92.966 38.052, 92.978 38.726 C 92.990 39.401, 89.625 42.493, 85.500 45.597 C 81.375 48.702, 78 51.550, 78 51.926 C 78 52.302, 81.487 53.182, 85.750 53.881 C 96.834 55.699, 98 56.054, 98 57.608 C 98 58.751, 94.419 59, 78 59 C 67 59, 58 58.632, 58 58.181 C 58 57.731, 62.715 51.769, 68.477 44.931 L 78.954 32.500 78.988 25 C 79.007 20.875, 79.301 15.813, 79.642 13.750 C 80.152 10.661, 79.966 10, 78.585 10 C 77.457 10, 75.672 12.699, 73.130 18.250 M 75.036 20.746 C 70.758 29.885, 64.150 45, 64.432 45 C 64.616 45, 67.227 42.117, 70.235 38.593 C 75.354 32.597, 75.749 31.754, 76.393 25.467 C 76.772 21.772, 76.911 18.578, 76.703 18.370 C 76.495 18.162, 75.745 19.231, 75.036 20.746 M 91.257 20.250 C 91.516 20.938, 92.546 24.987, 93.547 29.250 C 94.547 33.513, 95.727 37, 96.169 37 C 96.611 37, 100.616 34.330, 105.071 31.068 L 113.170 25.135 105.835 23.014 C 101.801 21.847, 97.195 20.466, 95.601 19.946 C 91.726 18.682, 90.693 18.754, 91.257 20.250 M 88.513 46.739 C 82.949 50.783, 82.964 50.803, 92.642 52.334 L 96.785 52.989 95.754 48.745 C 95.187 46.410, 94.448 44.188, 94.112 43.807 C 93.775 43.426, 91.256 44.745, 88.513 46.739 M 29.591 102.750 C 29.678 156.623, 30.731 181.766, 33.010 184.321 C 33.412 184.773, 39.313 181.067, 46.121 176.088 L 58.500 167.033 77 167.012 C 87.175 167.001, 101.350 166.676, 108.500 166.290 L 121.500 165.589 109 164.394 C 101.217 163.651, 88.010 163.399, 74 163.728 C 59.236 164.074, 51.844 163.917, 52.500 163.271 C 55.967 159.859, 87.599 140.711, 100.166 134.417 C 111.915 128.532, 115.107 126.516, 114.763 125.193 C 114.521 124.262, 112.796 117.276, 110.929 109.669 L 107.535 95.838 101.518 92.478 C 98.208 90.631, 94.815 88.858, 93.978 88.540 C 93.095 88.204, 88.726 90.303, 83.575 93.537 L 74.694 99.113 64.324 98.419 L 53.955 97.724 54.227 80.194 C 54.418 67.954, 54.852 62.548, 55.665 62.277 C 56.306 62.064, 57.096 62.702, 57.421 63.695 C 57.759 64.731, 65.281 69.481, 75.073 74.843 C 93.764 85.079, 93.722 85.071, 100.242 79.727 L 102.959 77.500 100.856 69.250 L 98.753 61 76.269 61 C 55.250 61, 53.833 60.886, 54.504 59.250 C 56.121 55.310, 55.476 54.808, 43.126 50.408 C 36.321 47.984, 30.471 46, 30.126 46 C 29.782 46, 29.541 71.538, 29.591 102.750 M 123.500 52.540 C 115.250 54.961, 106.813 56.955, 104.750 56.971 C 102.688 56.987, 101 57.337, 100.999 57.750 C 100.999 58.163, 107.299 58.344, 114.999 58.154 C 127.296 57.850, 129 58.002, 129 59.404 C 129 60.786, 127.194 61, 115.500 61 C 106.783 61, 102 61.370, 102 62.044 C 102 62.619, 102.736 66.019, 103.635 69.600 C 104.688 73.791, 105.700 75.946, 106.474 75.648 C 107.137 75.394, 113.605 71.544, 120.848 67.093 C 128.092 62.642, 134.502 59, 135.093 59 C 138.058 59, 134.059 62.185, 120.938 70.276 C 112.997 75.172, 106.412 79.263, 106.304 79.368 C 106.197 79.472, 106.892 82.695, 107.849 86.529 L 109.589 93.500 123.044 101.006 C 130.445 105.135, 137.289 108.978, 138.253 109.548 C 139.902 110.522, 139.917 111.259, 138.499 122.041 C 137.670 128.344, 135.869 140.377, 134.496 148.783 C 133.123 157.188, 132 164.777, 132 165.648 C 132 167.142, 146.615 183, 147.992 183 C 148.347 183, 152.026 177.038, 156.167 169.750 L 163.697 156.500 162.928 141.500 C 161.649 116.540, 161.914 83.601, 163.510 69.500 C 164.318 62.350, 164.985 55.768, 164.990 54.873 C 164.998 53.640, 162.470 52.613, 154.530 50.623 C 148.772 49.181, 142.810 48.031, 141.280 48.068 C 139.751 48.106, 131.750 50.118, 123.500 52.540 M 57 81.280 L 57 94.750 60.125 95.375 C 61.844 95.719, 65.781 95.990, 68.875 95.978 C 73.851 95.959, 75.402 95.394, 82.314 91.083 L 90.128 86.211 77.814 79.469 C 71.041 75.761, 63.587 71.621, 61.250 70.269 L 57 67.810 57 81.280 M 99.760 83.332 C 97.703 84.525, 96.015 85.748, 96.010 86.051 C 95.996 86.850, 105.156 91.178, 105.703 90.630 C 105.957 90.377, 105.565 88.143, 104.832 85.667 L 103.500 81.165 99.760 83.332 M 111 98.551 C 111 98.854, 112.575 105.356, 114.500 113 C 116.425 120.644, 118 127.296, 118 127.782 C 118 128.268, 110.237 132.626, 100.750 137.466 C 91.263 142.306, 78.325 149.610, 72 153.697 L 60.500 161.128 79.500 160.921 C 89.950 160.807, 105.154 161.302, 113.287 162.020 C 122.177 162.805, 128.401 162.962, 128.893 162.413 C 130.274 160.873, 137.454 113.543, 136.533 112.053 C 136.068 111.302, 112.300 98, 111.422 98 C 111.190 98, 111 98.248, 111 98.551" stroke="none" fill="black" fill-rule="evenodd"/>
</svg>