<svg xmlns="http://www.w3.org/2000/svg" width="200" height="200" viewBox="0 0 200 200" version="1.1">
	<path d="M 137.500 21.140 L 113.500 27.114 93.250 26.988 C 81.209 26.912, 73 27.242, 73 27.800 C 73 29.128, 79.033 29.961, 89.500 30.079 C 96.640 30.159, 97.853 30.368, 95.367 31.088 C 93.644 31.588, 92.017 32.829, 91.751 33.846 C 91.252 35.754, 86.801 36.967, 80.219 36.989 C 78.414 36.995, 76.736 37.563, 76.491 38.250 C 76.246 38.938, 76.859 45.013, 77.855 51.750 C 79.564 63.317, 79.568 64, 77.939 64 C 75.938 64, 76.408 62.949, 69.350 83.232 C 65.059 95.567, 62.842 104.387, 59.084 124.073 L 54.290 149.182 40.909 162.591 C 33.549 169.966, 27.218 176, 26.839 176 C 26.460 176, 29.419 166.213, 33.414 154.250 L 40.678 132.500 41.956 109.439 C 43.146 87.973, 42.442 55.183, 40.460 39.761 L 39.980 36.023 51.517 28.339 C 59.209 23.216, 62.722 20.322, 62.055 19.655 C 61.388 18.988, 57.212 21.214, 49.527 26.332 L 38 34.010 37.991 38.755 C 37.985 41.365, 38.522 53.311, 39.184 65.303 C 40.129 82.441, 40.122 91.854, 39.150 109.303 L 37.914 131.500 29.731 156.224 C 24.419 172.272, 21.890 181.287, 22.524 181.915 C 23.156 182.541, 29.408 177.169, 40.243 166.691 L 56.985 150.500 61.913 124.500 C 65.891 103.517, 67.896 95.509, 72.308 83 L 77.774 67.500 103.637 67.802 C 117.862 67.969, 130.175 68.311, 131 68.564 C 132.547 69.037, 140 80.987, 140 82.994 C 140 83.746, 138.582 83.929, 135.750 83.542 C 133.412 83.223, 120.963 81.823, 108.085 80.432 C 88.915 78.360, 84.450 78.137, 83.455 79.200 C 82.787 79.915, 79.486 85.462, 76.120 91.528 L 70 102.555 70 130.386 L 70 158.217 77.604 170.859 C 81.787 177.811, 85.283 183.584, 85.375 183.687 C 85.466 183.790, 96.107 180.585, 109.020 176.565 L 132.500 169.256 149.790 175.255 C 159.300 178.553, 167.234 181.083, 167.422 180.876 C 168.633 179.539, 170.088 127.399, 169.469 107.506 C 168.754 84.541, 168.765 84.354, 171.542 72.459 L 174.335 60.500 172.549 42.500 C 171.566 32.600, 170.474 22.486, 170.122 20.024 L 169.482 15.548 157.581 42.814 C 151.036 57.810, 145.337 69.725, 144.917 69.290 C 144.497 68.856, 143.564 65.616, 142.844 62.092 L 141.535 55.684 148.332 42.740 C 152.070 35.620, 154.965 29.632, 154.765 29.431 C 154.564 29.231, 142.273 30.396, 127.450 32.020 C 99.819 35.047, 94.208 35.459, 95.283 34.383 C 96.872 32.794, 111.711 30.218, 116.454 30.707 C 120.857 31.162, 124.472 30.305, 142.287 24.580 C 156.763 19.929, 163 17.485, 163 16.463 C 163 15.658, 162.662 15.037, 162.250 15.083 C 161.838 15.128, 150.700 17.854, 137.500 21.140 M 156.736 51.584 L 146.039 76.068 147.474 82.217 L 148.908 88.365 142.200 96.433 C 138.510 100.870, 134.910 105.246, 134.200 106.158 C 133.054 107.629, 134.039 108.417, 142.949 113.158 C 148.471 116.096, 152.980 118.725, 152.970 119 C 152.959 119.275, 147.488 123.013, 140.812 127.306 L 128.673 135.113 138.587 141.170 C 144.039 144.502, 150.936 148.736, 153.913 150.579 L 159.327 153.931 154.913 155.782 C 152.486 156.800, 144.548 160.050, 137.272 163.005 C 129.997 165.960, 124.186 168.520, 124.360 168.693 C 124.533 168.866, 126.435 168.395, 128.587 167.647 C 132.359 166.334, 133.069 166.484, 148.273 171.786 C 156.948 174.812, 164.287 177.046, 164.581 176.753 C 165.914 175.420, 167.150 134.901, 166.618 110 L 166.031 82.500 168.848 71.485 L 171.664 60.470 169.961 44.197 C 169.024 35.247, 168.072 27.739, 167.846 27.512 C 167.619 27.286, 162.620 38.118, 156.736 51.584 M 122 35.324 C 106.875 36.930, 94.150 38.560, 93.723 38.948 C 93.296 39.336, 91.004 45.097, 88.629 51.750 L 84.312 63.846 92.406 64.388 C 96.858 64.686, 107.746 65.156, 116.603 65.433 L 132.705 65.935 133.353 56.814 C 133.709 51.797, 134 45.479, 134 42.773 C 134 38.681, 134.286 37.908, 135.700 38.181 C 136.876 38.407, 137.897 40.514, 139.008 45.004 L 140.615 51.500 145.302 42.500 C 147.879 37.550, 149.879 33.254, 149.744 32.953 C 149.610 32.652, 137.125 33.719, 122 35.324 M 81.718 39.719 C 79.204 40.099, 78.987 40.446, 79.469 43.320 C 80.380 48.758, 81.982 59.451, 82.042 60.500 C 82.090 61.329, 87.625 46.812, 89.573 40.750 C 90.159 38.925, 88.460 38.702, 81.718 39.719 M 136.015 54.691 C 136.026 58.165, 136.300 59.083, 137 58 C 138.272 56.032, 138.272 51.286, 137 50.500 C 136.386 50.120, 136.006 51.736, 136.015 54.691 M 137.145 63.782 L 134.926 68.064 138.212 73.558 C 140.914 78.076, 141.638 78.736, 142.287 77.276 C 142.745 76.244, 142.298 72.147, 141.220 67.500 L 139.364 59.500 137.145 63.782 M 79.155 91.802 L 73 102.846 73 130.345 L 73 157.843 79.631 168.922 C 83.865 175.996, 86.847 179.971, 87.881 179.920 C 88.771 179.876, 91.666 179.088, 94.314 178.170 L 99.127 176.500 106.466 159.733 L 113.805 142.965 102.392 129.263 C 92.059 116.856, 89.719 113.061, 92.819 113.731 C 93.407 113.858, 99.550 117.408, 106.472 121.620 C 113.393 125.832, 119.361 128.973, 119.733 128.600 C 120.106 128.227, 121.607 125.127, 123.069 121.711 L 125.726 115.500 118.290 107.273 C 114.200 102.748, 111.134 98.592, 111.477 98.038 C 111.848 97.436, 115.690 98.833, 121.008 101.504 L 129.916 105.978 132.025 101.239 C 136.916 90.250, 138.251 86.922, 137.886 86.633 C 137.674 86.465, 127.825 85.317, 116 84.082 C 104.175 82.847, 92.432 81.594, 89.905 81.298 L 85.309 80.758 79.155 91.802 M 141 87.376 C 141 87.582, 139.863 90.395, 138.473 93.626 L 135.946 99.500 138.997 96 C 140.674 94.075, 142.967 91.263, 144.092 89.750 L 146.136 87 143.568 87 C 142.156 87, 141 87.169, 141 87.376 M 122.159 107.626 C 125.324 110.791, 128 111.478, 128 109.125 C 128 108.303, 120.763 104, 119.381 104 C 118.915 104, 120.165 105.632, 122.159 107.626 M 126.704 120.268 C 122.255 130.399, 122.022 133, 125.564 133 C 126.289 133, 131.667 129.907, 137.515 126.127 L 148.148 119.255 141.824 115.758 C 138.346 113.834, 134.532 111.760, 133.349 111.148 C 131.318 110.097, 130.947 110.606, 126.704 120.268 M 104.117 127.250 C 107.041 130.688, 110.696 134.991, 112.241 136.813 L 115.049 140.126 116.557 136.519 C 117.385 134.535, 117.842 132.553, 117.571 132.115 C 116.959 131.125, 100.523 121, 99.527 121 C 99.128 121, 101.194 123.813, 104.117 127.250 M 119.715 135.983 C 119.272 137.678, 119.476 137.816, 121.126 136.932 C 122.188 136.364, 122.792 135.472, 122.469 134.950 C 121.510 133.398, 120.269 133.863, 119.715 135.983 M 121.266 139.766 C 118.938 141.270, 116.842 142.950, 116.609 143.500 C 116.376 144.050, 113.262 151.110, 109.690 159.188 C 104.029 171.988, 103.471 173.771, 105.347 173.055 C 109.650 171.412, 152.508 153.761, 152.782 153.519 C 153.075 153.260, 126.549 136.988, 125.880 137.016 C 125.671 137.025, 123.595 138.262, 121.266 139.766" stroke="none" fill="black" fill-rule="evenodd"/>
</svg>