<svg xmlns="http://www.w3.org/2000/svg" width="200" height="200" viewBox="0 0 200 200" version="1.1">
	<path d="M 106.628 16.250 C 106.905 18.038, 108.592 31.553, 110.379 46.285 C 112.846 66.630, 113.318 72.952, 112.341 72.578 C 111.634 72.306, 104.181 69.985, 95.778 67.420 C 87.375 64.855, 80.356 62.630, 80.181 62.476 C 80.005 62.321, 80.412 60.358, 81.084 58.114 C 82.159 54.524, 82.740 53.962, 85.903 53.439 C 93.399 52.200, 94.332 50.397, 88 49.384 C 85.800 49.032, 84 48.534, 84 48.276 C 84 48.018, 86.040 40.591, 88.534 31.771 C 91.028 22.951, 92.940 15.617, 92.784 15.472 C 92.628 15.327, 84.625 20.298, 75 26.518 L 57.500 37.828 47.702 38.546 C 39.500 39.147, 37.954 39.524, 38.212 40.861 C 38.450 42.098, 43.245 43.384, 59.510 46.573 C 71.054 48.836, 79.825 50.942, 79 51.253 C 78.175 51.564, 70.119 52.752, 61.098 53.894 C 52.077 55.036, 44.575 56.091, 44.427 56.239 C 44.014 56.652, 45.684 119.021, 46.118 119.422 C 46.759 120.013, 74.938 134, 75.487 134 C 75.769 134, 76 133.424, 76 132.719 C 76 132.015, 70.114 128.527, 62.921 124.969 C 55.727 121.411, 49.488 118.050, 49.057 117.500 C 48.626 116.950, 47.992 103.417, 47.650 87.428 L 47.027 58.355 62.763 56.336 C 71.418 55.225, 78.616 54.398, 78.757 54.498 C 78.898 54.598, 78.721 56.143, 78.364 57.930 C 77.812 60.691, 77.357 61.110, 75.333 60.723 C 72.017 60.089, 71.240 61.966, 73.919 64.136 C 76.333 66.090, 76.396 65.473, 72.377 79.246 C 71.904 80.867, 72.823 80.945, 85.317 80.346 L 98.765 79.701 107.282 84.924 C 115.127 89.735, 115.834 90.436, 116.257 93.823 C 116.510 95.845, 116.628 97.614, 116.520 97.754 C 116.413 97.894, 104.762 97.496, 90.630 96.870 C 76.497 96.244, 64.642 96.025, 64.284 96.383 C 62.521 98.146, 67.552 99.032, 91.500 101.174 L 117.500 103.500 117.823 106.877 C 118 108.735, 117.775 110.612, 117.323 111.050 C 116.870 111.488, 114.025 111.389, 111 110.830 C 78.755 104.874, 62.059 102.403, 61.629 103.524 C 61.340 104.276, 66.917 107.925, 76.079 112.978 C 84.286 117.503, 91 121.374, 91 121.578 C 91 121.783, 89.650 121.680, 88 121.350 C 85.830 120.916, 85 121.130, 85.001 122.125 C 85.001 123.065, 90.330 124.875, 101.849 127.847 C 111.114 130.238, 119.158 132.488, 119.722 132.847 C 120.287 133.206, 121.066 134.963, 121.454 136.750 C 122.091 139.686, 121.934 140.002, 119.829 140.018 C 113.730 140.065, 52.683 142.002, 38.750 142.591 C 10.835 143.770, 22.187 146.651, 56.500 147.096 C 71.766 147.294, 72.373 146.597, 39.133 167.013 C 12.584 183.320, 6.107 188, 10.088 188 C 11.342 188, 65.600 177.155, 68.281 176.368 C 69.330 176.060, 72.502 170.979, 76 164 L 81.938 152.155 87.719 150.982 C 90.899 150.337, 97.230 148.952, 101.789 147.905 C 106.348 146.857, 112.907 146, 116.365 146 L 122.653 146 124.785 163.125 C 125.958 172.544, 127.048 180.356, 127.209 180.485 C 127.369 180.615, 139.650 179.450, 154.500 177.898 C 169.350 176.346, 182.377 175.059, 183.450 175.038 C 186.966 174.969, 183.889 173.392, 159 162.508 C 127.554 148.757, 130.112 150.208, 133.087 147.809 C 135.374 145.965, 136.711 145.895, 158.750 146.472 C 171.537 146.806, 182 146.840, 182 146.548 C 182 146.169, 165.780 123.074, 163.528 120.246 C 163.417 120.107, 160.665 119.523, 157.413 118.950 C 154.161 118.377, 150.967 117.730, 150.316 117.511 C 149.524 117.245, 150.903 112.608, 154.482 103.499 L 159.832 89.885 150.801 69.193 C 145.833 57.812, 141.060 47.938, 140.193 47.250 C 139.327 46.563, 137.466 45.956, 136.059 45.903 C 134.176 45.831, 175.400 39.448, 180.250 39.060 C 180.662 39.027, 181 38.378, 181 37.617 C 181 36.501, 176.563 36.093, 158.031 35.501 L 135.062 34.768 121.030 23.884 C 113.312 17.898, 106.802 13, 106.562 13 C 106.322 13, 106.352 14.462, 106.628 16.250 M 110.046 20.628 C 110.072 21.657, 111.543 33.973, 113.317 47.996 C 116.539 73.474, 116.543 73.494, 119.271 74.801 C 122.730 76.459, 122.780 78, 119.375 78 C 116.968 78, 116.802 78.260, 117.375 81.125 C 117.719 82.844, 118.002 85.206, 118.005 86.375 C 118.009 87.984, 120.378 89.958, 127.755 94.500 L 137.500 100.500 131 101.077 L 124.500 101.655 130.191 101.827 C 133.321 101.922, 136.128 102.397, 136.428 102.883 C 136.728 103.369, 133.846 105.409, 130.024 107.418 C 126.202 109.426, 122.847 111.439, 122.568 111.890 C 121.949 112.892, 145.220 117.105, 146.185 116.167 C 146.562 115.800, 149.114 109.738, 151.855 102.695 L 156.839 89.891 147.969 69.695 C 143.091 58.588, 138.515 49.413, 137.800 49.307 C 137.085 49.202, 132.113 48.822, 126.750 48.464 C 114.565 47.651, 113.463 45.762, 124.250 44.180 C 128.238 43.595, 138.700 42.078, 147.500 40.808 L 163.500 38.500 149.103 38.222 L 134.706 37.943 123.603 29.332 C 117.496 24.595, 111.938 20.278, 111.250 19.737 C 110.344 19.025, 110.013 19.270, 110.046 20.628 M 72.524 31.221 C 61.196 38.559, 57.597 40.394, 53.524 40.910 C 48.707 41.520, 49.119 41.665, 63.500 44.425 C 71.750 46.008, 79.110 47.348, 79.856 47.402 C 80.758 47.467, 82.344 43.483, 84.594 35.500 C 88.262 22.482, 88.366 21.959, 87.250 22.085 C 86.838 22.131, 80.211 26.243, 72.524 31.221 M 85 67.290 C 85 67.566, 88.294 69.846, 92.320 72.356 C 99.593 76.888, 99.683 76.913, 106.070 76.209 L 112.500 75.500 100.076 71.652 C 93.242 69.535, 87.055 67.574, 86.326 67.295 C 85.596 67.015, 85 67.013, 85 67.290 M 77.074 72.622 C 76.434 75.164, 76.123 77.457, 76.384 77.717 C 76.645 77.978, 80.757 77.867, 85.522 77.470 L 94.185 76.748 87.343 72.400 C 83.579 70.009, 79.991 68.040, 79.369 68.026 C 78.747 68.012, 77.714 70.080, 77.074 72.622 M 104 79.298 C 104 79.766, 113.888 86, 114.630 86 C 114.903 86, 114.986 84.537, 114.813 82.750 C 114.508 79.581, 114.370 79.492, 109.250 79.198 C 106.362 79.031, 104 79.077, 104 79.298 M 119 95.500 C 119 97.750, 119.400 98, 123 98 C 125.200 98, 127 97.812, 127 97.582 C 127 97.053, 120.482 93, 119.632 93 C 119.284 93, 119 94.125, 119 95.500 M 120.393 105.582 C 120.727 106.452, 121 107.569, 121 108.066 C 121 108.562, 122.575 108.217, 124.500 107.299 C 129.124 105.094, 128.922 104, 123.893 104 C 120.559 104, 119.900 104.298, 120.393 105.582 M 73.527 108.324 C 74.612 109.052, 80.537 112.432, 86.694 115.836 L 97.888 122.023 104.514 118.382 C 108.158 116.379, 110.771 114.404, 110.320 113.994 C 109.650 113.385, 74.975 107, 72.336 107 C 71.906 107, 72.443 107.596, 73.527 108.324 M 108.500 119.151 C 104.650 121.326, 101.161 123.443, 100.746 123.857 C 100.331 124.270, 104.587 125.803, 110.204 127.262 C 115.821 128.722, 120.455 129.822, 120.501 129.708 C 120.548 129.594, 120.186 126.237, 119.698 122.250 C 118.638 113.591, 118.441 113.537, 108.500 119.151 M 122.532 122.750 C 122.913 126.463, 123.538 129.842, 123.923 130.261 C 125.044 131.481, 138.440 134.949, 139.101 134.190 C 139.935 133.233, 145.157 119.804, 144.795 119.550 C 144.315 119.215, 124.619 115.967, 123.170 115.984 C 122.128 115.997, 121.990 117.458, 122.532 122.750 M 147.094 122.250 C 146.623 123.487, 145.532 126.188, 144.670 128.250 C 143.808 130.313, 143.365 132, 143.686 132 C 144.008 132, 148.265 129.866, 153.146 127.258 L 162.021 122.515 155.761 121.319 C 152.317 120.661, 149.151 120.096, 148.725 120.062 C 148.299 120.028, 147.565 121.013, 147.094 122.250 M 151.278 133.830 L 140.056 142.500 143.723 143.275 C 145.741 143.701, 153.998 143.926, 162.074 143.775 L 176.758 143.500 170.317 134.500 C 166.775 129.550, 163.567 125.423, 163.188 125.330 C 162.810 125.236, 157.450 129.061, 151.278 133.830 M 124 135.418 C 124 139.968, 128.363 141.553, 132.427 138.479 C 134.714 136.748, 134.665 136.695, 129.384 135.180 C 124.194 133.692, 124 133.701, 124 135.418 M 137.151 139.006 C 130.518 142.551, 130.054 143.004, 133.083 142.985 C 134.412 142.977, 137.300 141.419, 139.500 139.523 C 144.319 135.370, 144.063 135.313, 137.151 139.006 M 81.500 143.974 C 69.409 144.391, 67.200 144.645, 72.460 145.013 L 79.420 145.500 48.710 164.386 C 31.819 174.774, 18 183.369, 18 183.488 C 18 183.606, 29.323 181.439, 43.161 178.673 L 68.322 173.643 73.911 161.857 L 79.500 150.071 88.500 148.052 C 93.450 146.942, 100.200 145.400, 103.500 144.627 L 109.500 143.222 103.500 143.322 C 100.200 143.377, 90.300 143.671, 81.500 143.974 M 125.638 147.500 C 125.955 148.325, 126.561 149, 126.985 149 C 127.408 149, 128.315 148.325, 129 147.500 C 130.052 146.232, 129.844 146, 127.654 146 C 125.762 146, 125.218 146.405, 125.638 147.500 M 126.345 154.255 C 126.656 156.040, 127.447 162.088, 128.103 167.695 C 129.295 177.881, 129.299 177.890, 131.898 177.461 C 133.329 177.224, 141.700 176.341, 150.500 175.499 C 159.300 174.657, 168.464 173.691, 170.864 173.353 L 175.228 172.739 153.864 163.301 C 142.114 158.110, 130.988 153.221, 129.140 152.436 L 125.779 151.010 126.345 154.255" stroke="none" fill="black" fill-rule="evenodd"/>
</svg>