<svg xmlns="http://www.w3.org/2000/svg" width="200" height="200" viewBox="0 0 200 200" version="1.1">
	<path d="M 97.500 15.554 C 78.800 17.379, 63.461 18.901, 63.414 18.936 C 63.367 18.971, 65.451 30.137, 68.046 43.750 C 70.640 57.363, 72.677 68.602, 72.572 68.726 C 72.467 68.850, 63.408 70.831, 52.441 73.128 C 41.473 75.425, 32.365 77.408, 32.200 77.535 C 32.035 77.662, 33.597 81.194, 35.670 85.383 C 40.058 94.251, 38.471 93.816, 58 91.500 C 64.875 90.685, 71.063 90.013, 71.750 90.009 C 72.558 90.003, 73 91.523, 73 94.304 C 73 97.858, 72.434 99.147, 69.750 101.703 L 66.500 104.798 57.043 101.940 C 51.841 100.368, 47.414 99.253, 47.205 99.462 C 46.996 99.671, 42.779 110.283, 37.834 123.043 C 32.271 137.398, 29.199 146.599, 29.776 147.176 C 30.354 147.754, 37.505 140.749, 48.534 128.805 C 58.338 118.187, 66.655 109.146, 67.017 108.713 C 67.379 108.280, 68.873 108.381, 70.337 108.938 L 73 109.950 73 126.405 L 73 142.859 58.882 155.430 C 51.118 162.343, 44.255 167.989, 43.632 167.976 C 43.010 167.963, 36.875 165.563, 30 162.643 L 17.500 157.333 17.697 97.417 C 17.806 64.463, 18.256 34.718, 18.697 31.319 L 19.500 25.138 28.994 30.887 C 37.822 36.233, 38.616 36.982, 40.310 41.568 C 41.312 44.281, 42.481 46.856, 42.906 47.290 C 43.332 47.725, 44.911 46.221, 46.415 43.949 C 47.919 41.676, 49.004 39.687, 48.825 39.530 C 48.646 39.372, 41.300 34.951, 32.500 29.704 L 16.500 20.166 15.860 31.333 C 15.508 37.475, 14.878 68.641, 14.460 100.591 L 13.700 158.682 28.100 164.776 C 36.020 168.128, 42.996 171.012, 43.603 171.185 C 44.210 171.358, 51.463 165.555, 59.722 158.290 L 74.739 145.079 75.460 132.051 L 76.180 119.022 86.590 126.108 C 92.316 130.005, 97 133.524, 97 133.928 C 97 134.332, 91.825 142.171, 85.500 151.349 C 79.175 160.528, 74 168.294, 74 168.609 C 74 168.924, 87.612 168.867, 104.250 168.482 L 134.500 167.784 155.836 159.473 C 167.570 154.902, 177.352 150.981, 177.573 150.761 C 177.914 150.419, 172.392 120.033, 168.938 103.250 L 167.858 98 157.929 98 C 152.468 98, 148 97.752, 148 97.450 C 148 97.147, 155.921 87.893, 165.602 76.885 C 175.282 65.876, 183.027 56.694, 182.813 56.480 C 182.598 56.265, 173.665 53.092, 162.961 49.428 C 152.258 45.764, 143.437 42.706, 143.359 42.633 C 143.282 42.560, 144.960 37.100, 147.090 30.500 C 149.219 23.900, 150.970 18.163, 150.981 17.750 C 151.049 15.095, 146.854 18.533, 136.949 29.250 C 123.213 44.110, 122.586 44.762, 123.223 43.500 C 123.680 42.595, 132.527 26.973, 138.655 16.250 L 141.084 12 136.292 12.118 C 133.656 12.183, 116.200 13.730, 97.500 15.554 M 98.500 18.203 C 81.450 19.840, 67.332 21.345, 67.127 21.546 C 66.287 22.372, 75.432 67.997, 76.430 67.961 C 77.018 67.939, 81.526 67.080, 86.447 66.052 C 95.527 64.155, 98.520 62.265, 97.532 59.052 C 96.145 54.541, 90.028 24.639, 90.413 24.253 C 90.662 24.005, 96.858 28.040, 104.183 33.220 C 111.507 38.401, 118.013 42.942, 118.640 43.311 C 119.569 43.858, 126.384 32.855, 135.709 15.750 C 136.296 14.673, 133.018 14.889, 98.500 18.203 M 129.923 40.683 C 121.440 49.852, 113.955 58.113, 113.289 59.041 C 112.211 60.541, 113.264 60.469, 122.789 58.389 C 128.680 57.103, 134.121 56.039, 134.881 56.025 C 135.898 56.007, 136.112 55.078, 135.694 52.500 C 135.265 49.860, 135.479 49, 136.563 49 C 137.353 49, 138 49.868, 138 50.929 C 138 51.989, 138.675 53.532, 139.500 54.357 C 141.571 56.428, 141.682 73, 139.625 73 C 138.141 73, 137 68.804, 137 63.344 C 137 61.321, 136.422 59.716, 135.578 59.391 C 134.795 59.091, 128.301 60.077, 121.147 61.583 L 108.139 64.320 99.070 74.085 C 94.081 79.456, 90 84.130, 90 84.473 C 90 84.815, 93.233 84.961, 97.185 84.797 C 104.129 84.510, 104.390 84.584, 104.964 87 C 105.449 89.043, 110.219 92.101, 131.029 103.712 C 145.038 111.529, 156.372 118.439, 156.215 119.068 C 156.058 119.696, 154.310 123.026, 152.331 126.468 L 148.732 132.725 142.616 130.864 C 139.252 129.841, 123.450 125.024, 107.500 120.161 C 87.846 114.169, 78.263 111.671, 77.765 112.410 C 75.988 115.048, 77.779 116.970, 89.030 124.500 C 95.604 128.900, 100.987 132.757, 100.992 133.070 C 100.996 133.384, 96.303 140.469, 90.563 148.814 C 84.823 157.159, 79.801 164.513, 79.404 165.156 C 78.856 166.043, 85.378 166.176, 106.418 165.708 L 134.155 165.091 153.827 157.409 C 164.647 153.183, 173.802 149.450, 174.170 149.113 C 174.539 148.776, 172.856 138.150, 170.430 125.500 C 168.004 112.850, 166.015 102.162, 166.009 101.750 C 166.004 101.338, 160.600 101, 154 101 C 147.400 101, 142.016 100.662, 142.036 100.250 C 142.056 99.838, 150.156 90.286, 160.036 79.024 C 169.916 67.763, 178 58.306, 178 58.009 C 178 57.713, 169.563 54.590, 159.250 51.068 C 148.938 47.547, 140.358 44.561, 140.183 44.433 C 140.009 44.305, 141.242 39.801, 142.923 34.423 C 144.604 29.046, 145.837 24.503, 145.663 24.329 C 145.488 24.155, 138.406 31.514, 129.923 40.683 M 94 30.393 C 94 30.609, 95.374 36.796, 97.054 44.143 C 98.733 51.489, 100.152 58.758, 100.207 60.296 C 100.299 62.871, 100.551 63.044, 103.403 62.490 C 105.540 62.075, 108.561 59.674, 113.149 54.743 L 119.798 47.597 107.380 38.798 C 95.641 30.481, 94 29.450, 94 30.393 M 43 41 C 43 41.550, 43.450 42, 44 42 C 44.550 42, 45 41.550, 45 41 C 45 40.450, 44.550 40, 44 40 C 43.450 40, 43 40.450, 43 41 M 100.323 65.696 C 97.653 66.216, 96.678 67.366, 94.553 72.500 L 92.897 76.500 97.028 72.500 C 100.350 69.283, 104.073 64.521, 102.785 65.136 C 102.628 65.211, 101.520 65.463, 100.323 65.696 M 92.500 67.515 C 91.950 67.712, 88.013 68.621, 83.750 69.537 L 76 71.201 76 79.146 L 76 87.091 79.750 86.467 C 85.817 85.459, 85.982 85.316, 89.160 78.307 C 92.339 71.296, 94.108 66.945, 93.725 67.079 C 93.601 67.122, 93.050 67.319, 92.500 67.515 M 53 75.740 C 43.925 77.650, 36.357 79.345, 36.183 79.507 C 36.008 79.669, 37.028 82.096, 38.450 84.901 C 41.483 90.886, 40.818 90.775, 60 88.500 C 66.875 87.685, 72.612 87.013, 72.750 87.009 C 72.888 87.004, 73 83.625, 73 79.500 C 73 72.973, 72.773 72.017, 71.250 72.134 C 70.287 72.207, 62.075 73.830, 53 75.740 M 91.837 87.723 C 88.233 88.104, 88.105 88.272, 83.925 98.060 C 81.588 103.533, 79.911 108.244, 80.197 108.530 C 80.813 109.147, 145.613 129, 147.009 129 C 147.535 129, 149.095 126.773, 150.474 124.051 L 152.982 119.102 143.241 113.652 C 137.883 110.655, 126.975 104.609, 119 100.216 C 108.949 94.680, 104.100 91.428, 103.195 89.615 C 101.834 86.887, 101.026 86.752, 91.837 87.723 M 76.384 90.442 C 76.080 91.234, 75.981 92.626, 76.165 93.534 C 76.423 94.805, 77.025 94.473, 78.780 92.093 C 81.030 89.040, 81.033 89, 78.999 89 C 77.865 89, 76.688 89.649, 76.384 90.442 M 79.578 95.180 C 76.587 98.674, 76.005 100.110, 76.030 103.930 C 76.055 107.598, 76.267 108.145, 77.107 106.702 C 78.586 104.160, 83.962 91, 83.521 91 C 83.320 91, 81.546 92.881, 79.578 95.180 M 48.063 104.281 C 40.012 124.973, 34.280 140, 34.441 140 C 34.552 140, 41.481 132.595, 49.840 123.544 L 65.037 107.087 61.088 106.024 C 58.916 105.439, 55.291 104.308, 53.033 103.512 C 49.074 102.115, 48.896 102.143, 48.063 104.281 M 71.097 104.383 C 70.212 105.450, 70.298 105.900, 71.474 106.352 C 72.523 106.754, 73 106.322, 73 104.969 C 73 102.637, 72.638 102.526, 71.097 104.383" stroke="none" fill="black" fill-rule="evenodd"/>
</svg>