<svg xmlns="http://www.w3.org/2000/svg" width="200" height="200" viewBox="0 0 200 200" version="1.1">
	<path d="M 141.791 13.564 C 141.484 14.079, 140.673 17.875, 139.988 22 C 138.016 33.871, 137.770 34.106, 134.629 27.107 C 132.281 21.875, 131.567 21.061, 129.692 21.478 C 128.486 21.745, 120.461 22.872, 111.857 23.982 C 99.760 25.542, 90.455 26, 70.812 26 L 45.410 26 40.205 33.487 C 37.342 37.604, 35 41.621, 35 42.412 C 35 43.203, 36.617 48.353, 38.594 53.857 L 42.189 63.865 31.983 76.521 C 25.582 84.459, 22.129 89.529, 22.721 90.121 C 23.313 90.713, 27.382 86.486, 33.634 78.783 C 39.117 72.027, 43.940 65.943, 44.352 65.263 C 44.765 64.582, 43.406 59.139, 41.333 53.167 L 37.565 42.308 41.900 35.654 L 46.235 29 70.867 28.963 C 90.765 28.933, 98.828 28.482, 112.816 26.619 L 130.132 24.311 133.595 31.190 L 137.059 38.068 133.560 56.670 C 131.636 66.901, 129.871 75.462, 129.639 75.694 C 129.406 75.927, 127.560 73.391, 125.536 70.059 C 123.511 66.726, 121.480 64, 121.022 64 C 120.564 64, 117.792 68.260, 114.862 73.468 C 111.932 78.675, 109.244 82.612, 108.888 82.218 C 108.531 81.823, 106.414 77.343, 104.181 72.262 C 100.985 64.986, 97.520 59.725, 87.872 47.500 C 79.810 37.284, 75.285 32.315, 74.635 32.965 C 73.985 33.615, 75.765 37.408, 79.843 44.062 L 86.037 54.172 84.136 64.039 C 82.523 72.408, 81.463 75.156, 77.154 82.138 L 72.075 90.371 45.787 99.301 C 31.329 104.212, 19.080 108.621, 18.567 109.099 C 15.657 111.805, 21.634 110.289, 46.362 102.046 L 73.848 92.884 79.436 83.648 C 84.254 75.685, 85.278 73.072, 86.866 64.686 C 87.879 59.336, 88.905 54.761, 89.148 54.519 C 90.297 53.369, 98.369 65.792, 102.444 74.982 C 104.950 80.634, 107 85.670, 107 86.173 C 107 86.676, 104.016 92.243, 100.368 98.544 L 93.736 110 87.118 109.935 C 83.478 109.900, 70.825 109.508, 59 109.065 C 47.175 108.621, 37.313 108.426, 37.083 108.629 C 36.854 108.833, 38.375 110.477, 40.463 112.281 L 44.259 115.563 41.988 131.031 C 40.418 141.728, 38.990 147.955, 37.359 151.217 C 36.061 153.811, 35.012 156.511, 35.026 157.217 C 35.041 157.923, 38.529 162.341, 42.776 167.035 C 47.024 171.730, 52.562 177.882, 55.081 180.706 L 59.663 185.841 86.567 179.112 L 113.470 172.383 137.179 180.058 C 152.382 184.980, 161.031 187.333, 161.287 186.617 C 162.322 183.719, 172.376 131.046, 171.967 130.666 C 171.710 130.427, 160.565 131.132, 147.200 132.233 C 133.836 133.333, 122.732 134.066, 122.527 133.860 C 122.078 133.411, 124.496 120.171, 125.145 119.522 C 125.395 119.272, 132.102 118.585, 140.049 117.996 L 154.500 116.923 165.170 111.787 L 175.839 106.652 176.437 97.576 C 176.766 92.584, 177.139 78.684, 177.267 66.687 L 177.500 44.874 163.301 38.199 L 149.102 31.524 145.725 22.076 C 143.868 16.879, 142.098 13.049, 141.791 13.564 M 141.099 30.837 C 140.012 36.918, 140.073 38.085, 141.653 41.399 C 143.113 44.461, 143.547 44.802, 144.085 43.312 C 144.537 42.063, 145.600 44.237, 147.508 50.313 C 149.444 56.480, 149.959 59.441, 149.222 60.178 C 148.486 60.914, 147.638 60.220, 146.399 57.865 L 144.627 54.500 143.811 58 C 143.362 59.925, 141.491 68.475, 139.654 77 L 136.313 92.500 133.978 88.615 C 131.907 85.168, 131.561 84.953, 130.914 86.703 C 130.513 87.788, 129.866 91.224, 129.477 94.338 L 128.770 100 139.635 100.011 C 152.201 100.024, 158.230 100.811, 157.709 102.373 C 157.508 102.977, 151.023 104.646, 143.299 106.080 C 135.575 107.514, 128.580 108.947, 127.753 109.265 C 126.927 109.582, 126.047 111.227, 125.798 112.921 C 125.261 116.580, 124.450 116.487, 142.731 114.872 C 154.742 113.812, 156.015 113.487, 164.173 109.401 C 168.944 107.012, 173.059 104.707, 173.319 104.278 C 173.579 103.850, 174.095 90.675, 174.466 75 L 175.141 46.500 160.857 39.957 L 146.572 33.414 145.111 28.707 C 144.307 26.118, 143.350 24, 142.985 24 C 142.619 24, 141.770 27.077, 141.099 30.837 M 138.589 45.001 C 138.274 46.375, 136.664 54.845, 135.012 63.823 C 132.796 75.860, 132.278 80.652, 133.039 82.073 C 133.606 83.133, 134.394 84, 134.789 84 C 135.628 84, 142.028 53.694, 141.969 50 C 141.947 48.625, 141.307 46.375, 140.546 45.001 L 139.163 42.502 138.589 45.001 M 115.750 77.391 C 113.138 81.999, 111 86.216, 111 86.764 C 111 87.311, 112.158 90.288, 113.573 93.379 L 116.147 99 120.946 99 L 125.746 99 127.402 89.948 L 129.058 80.896 125.387 74.948 C 123.368 71.677, 121.442 69.003, 121.108 69.007 C 120.774 69.010, 118.362 72.783, 115.750 77.391 M 102.746 99.813 L 97.098 109.500 101.799 109.776 C 104.385 109.927, 110.550 109.252, 115.500 108.276 C 123.432 106.711, 124.538 106.233, 124.820 104.250 C 125.117 102.153, 124.769 102, 119.686 102 L 114.232 102 111.993 96.483 C 110.762 93.449, 109.448 90.777, 109.074 90.546 C 108.700 90.314, 105.852 94.485, 102.746 99.813 M 127.738 103.893 C 127.099 106.336, 127.225 106.346, 136 104.536 C 141.096 103.485, 141.744 103.172, 139 103.087 C 137.075 103.027, 133.878 102.710, 131.895 102.382 C 128.806 101.871, 128.210 102.087, 127.738 103.893 M 113 111.536 C 109.425 112.274, 103.924 112.904, 100.776 112.938 C 95.422 112.996, 94.948 113.199, 93.462 116.074 L 91.872 119.149 99.686 118.480 C 124.768 116.335, 122.346 116.876, 123.085 113.250 C 123.860 109.446, 123.463 109.379, 113 111.536 M 45.513 113.014 C 47.030 114.691, 46.988 115.938, 44.942 130.161 C 43.485 140.291, 41.893 147.435, 40.255 151.198 L 37.774 156.896 40.137 159.837 C 41.437 161.455, 46.539 167.245, 51.475 172.704 L 60.449 182.630 84.725 176.581 C 98.076 173.255, 109 170.282, 109 169.977 C 109 169.671, 99.973 166.748, 88.940 163.482 C 77.907 160.216, 68.431 157.267, 67.883 156.928 C 67.318 156.578, 70.888 149.426, 76.131 140.406 C 81.215 131.658, 85.298 123.515, 85.204 122.312 C 85.101 120.994, 85.735 119.901, 86.800 119.563 C 87.772 119.255, 89.339 117.696, 90.282 116.100 L 91.997 113.197 80.748 112.625 C 74.562 112.310, 63.735 111.862, 56.688 111.629 C 44.380 111.223, 43.941 111.277, 45.513 113.014 M 106.648 120.557 C 99.030 121.279, 92.641 122.026, 92.451 122.216 C 91.815 122.851, 118 134.118, 118.867 133.582 C 119.336 133.292, 120 131.018, 120.341 128.528 C 120.682 126.038, 121.244 122.876, 121.589 121.501 C 121.934 120.125, 121.831 119.055, 121.358 119.122 C 120.886 119.189, 114.267 119.835, 106.648 120.557 M 80.064 138.927 C 75.425 147.100, 71.600 154.157, 71.564 154.609 C 71.519 155.192, 111.290 167.798, 113.750 167.981 C 113.888 167.992, 114 166.747, 114 165.215 C 114 163.683, 114.927 157.353, 116.061 151.148 C 117.194 144.944, 117.981 139.201, 117.811 138.387 C 117.639 137.568, 111.042 134.020, 103.062 130.453 C 95.121 126.904, 88.596 124.015, 88.562 124.034 C 88.528 124.052, 84.704 130.754, 80.064 138.927 M 146.500 135.061 C 135.500 136.045, 125.344 136.884, 123.930 136.925 C 121.435 136.998, 121.297 137.360, 119.180 149.368 C 117.981 156.170, 117 163.739, 117 166.188 L 117 170.640 137.699 177.288 C 149.083 180.944, 158.594 183.740, 158.833 183.500 C 159.073 183.260, 161.178 173.487, 163.511 161.782 C 169.463 131.919, 169.304 132.978, 167.795 133.136 C 167.083 133.211, 157.500 134.077, 146.500 135.061" stroke="none" fill="black" fill-rule="evenodd"/>
</svg>