<svg xmlns="http://www.w3.org/2000/svg" width="200" height="200" viewBox="0 0 200 200" version="1.1">
	<path d="M 71 18.356 L 51.500 22.683 36.694 31.864 C 28.551 36.914, 20.088 42.182, 17.886 43.572 L 13.884 46.098 26.002 55.501 L 38.119 64.905 31.060 69.599 C 27.177 72.181, 24 74.451, 24 74.643 C 24 74.835, 26.522 81.294, 29.603 88.996 C 33.063 97.642, 35.741 103, 36.603 103 C 37.372 103, 38 102.871, 38 102.714 C 38 102.557, 35.569 96.370, 32.597 88.967 L 27.194 75.505 34.597 70.616 C 38.669 67.928, 42 65.449, 42 65.109 C 42 64.769, 36.831 60.460, 30.513 55.532 C 24.196 50.605, 19.358 46.255, 19.763 45.866 C 20.169 45.478, 27.801 40.655, 36.724 35.150 L 52.947 25.141 74.224 20.712 C 91.797 17.054, 96.619 16.389, 101.931 16.892 L 108.363 17.500 95.693 25.292 C 84.088 32.429, 82.055 34.153, 71.517 45.792 C 65.189 52.782, 60.009 58.737, 60.006 59.027 C 60.003 59.317, 66.412 60.617, 74.250 61.917 C 91.391 64.760, 91.481 64.791, 101.315 71.225 L 109.131 76.338 97.832 87.669 C 91.617 93.901, 86.300 98.994, 86.016 98.986 C 85.732 98.978, 84.211 96.615, 82.636 93.736 C 74.095 78.126, 68.751 69.849, 67.814 70.786 C 67.152 71.448, 69.700 77.224, 75.405 87.993 C 80.128 96.909, 83.693 104.721, 83.329 105.352 C 82.964 105.983, 80.455 109.309, 77.753 112.742 L 72.841 118.984 67.797 112.948 C 65.023 109.629, 62.639 107.045, 62.499 107.206 C 62.359 107.368, 63.264 120.100, 64.510 135.500 C 66.202 156.420, 66.488 163.786, 65.638 164.629 C 62.512 167.732, 42.930 185, 42.537 185 C 42.287 185, 42.361 172.850, 42.701 158 C 43.067 142.007, 42.948 131.006, 42.409 131.014 C 41.909 131.021, 36.790 133.699, 31.033 136.963 C 25.276 140.228, 20.464 142.798, 20.341 142.674 C 20.217 142.550, 22.077 136.160, 24.474 128.474 C 27.076 120.130, 28.469 114.124, 27.932 113.567 C 27.438 113.053, 26.848 112.828, 26.622 113.067 C 25.715 114.021, 15.896 147.230, 16.378 147.712 C 16.663 147.996, 21.982 145.307, 28.198 141.735 L 39.500 135.242 40 163.019 L 40.500 190.796 54.500 178.279 C 70.985 163.541, 69.861 166.887, 67.558 139.400 C 66.701 129.175, 66.019 119.614, 66.042 118.154 C 66.083 115.525, 66.116 115.537, 69.593 119.476 C 71.656 121.814, 73.391 123.027, 73.801 122.421 C 74.186 121.853, 77.313 117.728, 80.750 113.254 C 84.187 108.779, 87 104.550, 87 103.855 C 87 103.160, 92.850 96.684, 100 89.463 C 107.150 82.242, 112.996 77.046, 112.991 77.917 C 112.986 78.788, 112.532 85.800, 111.982 93.500 C 111.018 106.983, 110.717 108.294, 103.830 129 L 96.679 150.500 84.665 164 C 78.057 171.425, 71.078 179.172, 69.155 181.216 C 62.491 188.302, 67.684 186.830, 88.524 175.726 L 108.141 165.274 120.559 144.178 C 131.631 125.368, 133.184 122.149, 134.896 114.466 C 135.952 109.728, 137.006 105.661, 137.238 105.429 C 137.469 105.197, 138.239 114.793, 138.948 126.754 L 140.236 148.500 150.720 167.250 C 156.486 177.562, 161.496 185.981, 161.852 185.958 C 162.208 185.935, 167.793 178.079, 174.262 168.501 L 186.025 151.086 169.068 135.358 C 159.741 126.708, 152.253 119.376, 152.427 119.065 C 152.602 118.754, 155.101 110.850, 157.981 101.500 C 162.399 87.157, 164.464 82.263, 171.192 70.188 C 175.677 62.138, 178.916 55.224, 178.594 54.386 C 178.169 53.277, 174.139 55.862, 162.849 64.485 C 154.503 70.859, 147.357 75.720, 146.968 75.287 C 146.580 74.854, 145.234 70.264, 143.978 65.086 C 141.848 56.303, 141.739 54.351, 142.354 35.965 L 143.012 16.258 139.256 15.682 C 137.190 15.366, 125.375 14.864, 113 14.568 L 90.500 14.030 71 18.356 M 112.509 20.604 C 112.827 22.747, 113.917 32.801, 114.930 42.947 C 116.631 59.971, 116.666 63.133, 115.377 83.947 L 113.981 106.500 106.741 128.927 L 99.500 151.354 86.706 165.677 C 79.670 173.555, 74.098 180, 74.325 180 C 74.552 180, 81.815 176.219, 90.465 171.597 L 106.191 163.194 118.236 142.847 L 130.280 122.500 133.402 108 C 135.721 97.227, 136.906 93.500, 138.012 93.500 C 139.248 93.500, 139.813 98.139, 141.350 120.927 L 143.200 148.354 152.350 164.670 C 157.382 173.644, 161.725 180.974, 162 180.959 C 162.275 180.944, 166.956 174.358, 172.402 166.323 L 182.304 151.715 174.902 144.577 C 170.831 140.651, 163.356 133.628, 158.290 128.970 L 149.081 120.500 154.970 101.799 C 159.518 87.358, 162.242 80.617, 166.930 72.206 C 170.268 66.215, 173 61.029, 173 60.681 C 173 60.333, 166.863 64.775, 159.362 70.552 C 151.861 76.330, 145.521 80.854, 145.273 80.606 C 145.025 80.359, 143.498 75.058, 141.878 68.828 C 138.952 57.571, 138.938 57.375, 139.583 37.750 L 140.232 18 132.263 18 C 127.880 18, 121.512 17.709, 118.112 17.354 L 111.930 16.708 112.509 20.604 M 96.869 27.772 C 85.937 34.526, 83.125 36.861, 74.558 46.294 C 69.166 52.231, 64.922 57.225, 65.127 57.392 C 65.332 57.560, 71.575 58.721, 79 59.972 C 92.496 62.247, 92.503 62.250, 102.285 68.624 C 107.666 72.131, 112.226 75, 112.418 75 C 112.610 75, 113.067 72.188, 113.434 68.750 C 113.974 63.695, 110.621 21.337, 109.596 20.272 C 109.476 20.146, 103.748 23.521, 96.869 27.772" stroke="none" fill="black" fill-rule="evenodd"/>
</svg>