<svg xmlns="http://www.w3.org/2000/svg" width="200" height="200" viewBox="0 0 200 200" version="1.1">
	<path d="M 71.500 17.594 C 49.869 27.538, 16 44.293, 16 45.048 C 16 45.421, 21.738 46.296, 28.750 46.994 C 35.763 47.692, 42.028 48.541, 42.673 48.881 C 43.443 49.287, 40.950 54.124, 35.423 62.949 C 30.790 70.346, 27 76.759, 27 77.199 C 27 77.640, 27.563 77.977, 28.250 77.950 C 29.391 77.904, 47.111 50.304, 47.794 47.508 C 47.998 46.672, 44.344 45.904, 35.794 44.989 L 23.500 43.672 42 34.676 C 52.175 29.729, 66.690 22.895, 74.257 19.491 L 88.013 13.300 115.520 18.800 L 143.027 24.299 145.590 32.703 L 148.154 41.107 141.987 60.804 C 138.596 71.637, 132.089 89.553, 127.528 100.618 C 120.228 118.325, 118.978 122.280, 117.099 133.618 C 115.925 140.703, 114.726 147.671, 114.435 149.101 L 113.906 151.702 135.453 148.518 C 147.303 146.767, 157.228 145.106, 157.507 144.826 C 157.786 144.547, 154.596 136.259, 150.417 126.409 C 146.239 116.559, 142.423 107.493, 141.939 106.261 C 141.018 103.921, 141.100 103.966, 163 117.833 L 169.500 121.949 179.131 141.878 L 188.761 161.807 176.929 169.925 L 165.096 178.044 157.298 164.046 C 153.009 156.347, 149.104 150.037, 148.620 150.024 C 148.136 150.011, 138.352 155.400, 126.877 162 C 115.403 168.600, 105.674 173.992, 105.258 173.982 C 104.275 173.959, 98 164.371, 98 162.892 C 98 162.270, 100.266 153.398, 103.035 143.176 C 106.383 130.818, 109.224 117.037, 111.515 102.045 C 113.410 89.645, 116.500 70.725, 118.382 60 C 120.961 45.307, 121.521 40.223, 120.652 39.375 C 117.909 36.698, 91.679 21.928, 90.995 22.675 C 90.579 23.129, 89.457 27.100, 88.500 31.500 L 86.762 39.500 75.247 51.782 C 68.913 58.538, 63.964 64.297, 64.247 64.581 C 64.531 64.864, 71.229 65.820, 79.132 66.705 C 87.034 67.590, 93.817 68.583, 94.205 68.911 C 94.592 69.240, 89.062 71.508, 81.916 73.952 L 68.923 78.395 81.462 90.961 C 88.358 97.873, 94 103.984, 94 104.541 C 94 105.098, 90.949 108.582, 87.219 112.283 L 80.438 119.012 75.063 111.495 C 72.106 107.362, 69.535 104.132, 69.349 104.318 C 69.162 104.504, 69.527 115.197, 70.158 128.078 L 71.307 151.500 66.590 168.480 C 63.996 177.819, 61.790 185.544, 61.687 185.647 C 61.584 185.750, 58.256 179.988, 54.292 172.843 L 47.085 159.852 46.042 144.193 C 45.469 135.581, 45 127.711, 45 126.704 C 45 125.381, 41.394 127.821, 32 135.500 C 24.850 141.344, 19 145.867, 19 145.551 C 19 145.234, 22.315 138.343, 26.366 130.238 C 31.911 119.142, 35.371 110.302, 40.366 94.466 C 44.015 82.898, 47 73.110, 47 72.716 C 47 72.322, 46.438 72.007, 45.750 72.015 C 45.002 72.023, 41.902 80.356, 38.032 92.765 C 32.757 109.674, 29.840 116.988, 22.223 132.405 C 15.595 145.821, 13.232 151.526, 14.087 152.054 C 14.832 152.514, 20.200 148.743, 28.185 142.149 C 35.278 136.292, 41.447 131.372, 41.894 131.215 C 42.341 131.059, 43.028 137.527, 43.420 145.588 L 44.132 160.246 51.175 172.873 C 60.188 189.033, 62.128 192.206, 62.666 191.667 C 62.907 191.427, 65.594 182.291, 68.637 171.365 L 74.170 151.500 73.168 132.501 C 72.617 122.051, 72.297 113.369, 72.459 113.208 C 72.620 113.047, 74.453 115.283, 76.532 118.178 L 80.313 123.440 89.157 114.112 L 98.001 104.784 86.091 92.144 L 74.182 79.503 88.590 74.502 C 96.514 71.751, 102.998 68.958, 102.999 68.295 C 103 66.877, 100.905 66.474, 83.050 64.455 C 75.653 63.618, 69.485 62.819, 69.344 62.678 C 69.203 62.536, 73.546 57.663, 78.996 51.849 C 88.504 41.704, 88.982 40.978, 90.807 33.888 C 92.025 29.157, 93.162 26.604, 93.971 26.789 C 94.665 26.948, 100.581 30.242, 107.118 34.110 C 117.420 40.207, 118.935 41.433, 118.499 43.322 C 117.512 47.589, 110.050 92.746, 107.976 107 C 106.815 114.975, 103.345 131.048, 100.265 142.718 L 94.664 163.936 99.373 171.018 L 104.082 178.100 109.791 174.874 C 118.791 169.788, 141.178 156.926, 144.672 154.833 L 147.845 152.933 156.012 167.460 L 164.179 181.988 175.839 173.963 C 182.253 169.549, 188.532 165.148, 189.792 164.182 L 192.085 162.427 181.879 141.238 L 171.674 120.048 154.140 109.055 C 144.496 103.008, 136.432 98.234, 136.221 98.446 C 136.009 98.658, 139.952 108.589, 144.984 120.516 C 150.015 132.443, 153.931 142.403, 153.685 142.648 C 153.156 143.177, 122.456 147.948, 119.381 147.979 L 117.262 148 119.681 134.383 C 121.798 122.470, 123.144 118.245, 130.429 100.633 C 135.010 89.560, 141.525 71.630, 144.907 60.789 L 151.055 41.078 148.314 31.920 C 146.313 25.236, 145.022 22.534, 143.536 21.916 C 140.522 20.664, 90.914 10.981, 88 11.076 C 86.625 11.121, 79.200 14.054, 71.500 17.594" stroke="none" fill="black" fill-rule="evenodd"/>
</svg>