<svg xmlns="http://www.w3.org/2000/svg" width="200" height="200" viewBox="0 0 200 200" version="1.1">
	<path d="M 110.033 24.250 C 108.798 30.988, 107.486 38.036, 107.117 39.913 C 106.501 43.049, 105.806 43.599, 98.553 46.694 C 91.556 49.680, 66.998 57.357, 66.421 56.738 C 66.298 56.607, 65.731 53.575, 65.161 50 C 64.183 43.867, 64.327 42.836, 67.726 31.748 C 69.708 25.284, 71.142 19.823, 70.914 19.611 C 70.686 19.400, 62.036 17.912, 51.692 16.303 C 35.397 13.770, 30.259 13.592, 32.299 15.632 C 32.574 15.907, 40.156 17.266, 49.149 18.651 C 58.142 20.037, 66.030 21.331, 66.678 21.526 C 67.498 21.774, 66.879 25.015, 64.640 32.191 C 61.482 42.315, 61.446 42.649, 62.628 50.833 C 63.290 55.416, 64.085 59.418, 64.394 59.727 C 65.276 60.609, 90.400 53.167, 99.740 49.258 C 104.374 47.318, 108.398 45.126, 108.681 44.388 C 108.964 43.650, 110.419 36.848, 111.914 29.273 C 113.408 21.698, 115.051 15.569, 115.565 15.654 C 119.618 16.320, 143 24.334, 143 25.057 C 143 25.564, 140.525 30.449, 137.500 35.912 C 134.475 41.376, 132 46.281, 132 46.812 C 132 47.889, 139.381 60.781, 140.823 62.223 C 141.381 62.781, 147.668 60.174, 156.853 55.574 C 171.422 48.277, 171.982 48.086, 172.474 50.253 C 174.128 57.537, 174.954 61.639, 174.976 62.672 C 174.989 63.316, 170.725 66.874, 165.500 70.578 L 156 77.312 155.990 82.406 C 155.985 85.208, 156.501 100.663, 157.137 116.750 L 158.295 146.001 153.513 163.056 C 150.225 174.785, 148.346 179.963, 147.497 179.637 C 146.818 179.376, 141.358 178.143, 135.366 176.897 L 124.470 174.631 117.735 166.393 C 114.031 161.862, 111 157.950, 111 157.700 C 111 157.451, 116.418 155.329, 123.041 152.985 L 135.082 148.725 134.291 140.112 C 133.856 135.376, 133.556 118.850, 133.625 103.389 L 133.751 75.279 125.738 71.389 L 117.726 67.500 103.867 82 C 96.245 89.975, 90.007 96.208, 90.004 95.850 C 90.002 95.493, 91.575 91.123, 93.500 86.138 C 95.425 81.154, 97 76.485, 97 75.763 C 97 74.329, 82.325 59.329, 81.632 60.054 C 81.397 60.299, 79.809 67.441, 78.103 75.924 C 75.301 89.851, 75.004 93.101, 75.036 109.424 C 75.056 119.366, 75.486 134.903, 75.991 143.950 L 76.909 160.400 70.205 173.127 L 63.500 185.854 56.941 175.677 L 50.381 165.500 51.091 151 C 51.481 143.025, 51.782 120, 51.760 99.833 L 51.720 63.167 38.809 79.083 C 31.709 87.838, 25.584 94.986, 25.199 94.968 C 24.025 94.915, 21 92.336, 21 91.387 C 21 90.897, 24.085 82.396, 27.855 72.498 C 36.335 50.234, 42.885 20.782, 38.347 25.320 C 37.988 25.679, 36.240 32.841, 34.464 41.236 C 31.494 55.266, 29.507 61.220, 17.941 90.725 C 17.186 92.650, 17.682 93.373, 21.604 96.072 C 24.099 97.788, 26.255 99.037, 26.396 98.846 C 26.536 98.656, 31.744 92.200, 37.969 84.500 L 49.287 70.500 48.789 118.924 L 48.290 167.347 56.027 179.290 L 63.764 191.233 71.612 176.366 C 75.929 168.190, 79.403 160.600, 79.333 159.500 C 79.262 158.400, 78.872 142.650, 78.467 124.500 L 77.729 91.500 80.366 78.582 C 81.817 71.476, 83.142 65.525, 83.310 65.356 C 83.479 65.188, 86.036 67.499, 88.993 70.493 L 94.370 75.937 89.294 89.219 C 86.068 97.659, 84.561 102.865, 85.160 103.500 C 85.772 104.149, 88.275 102.216, 92.301 97.985 C 95.711 94.401, 102.967 86.806, 108.426 81.107 L 118.353 70.745 124.651 73.850 L 130.949 76.956 130.724 101.728 C 130.601 115.353, 130.870 131.056, 131.321 136.625 L 132.143 146.750 119.048 151.520 C 107.343 155.784, 106.097 156.461, 107.308 157.895 C 108.054 158.778, 111.909 163.434, 115.875 168.242 C 119.841 173.050, 124.079 177.217, 125.293 177.503 C 135.692 179.953, 150.394 182.939, 150.676 182.658 C 150.867 182.467, 153.290 174.253, 156.061 164.405 L 161.098 146.500 160.047 121 C 159.468 106.975, 159.004 91.675, 159.014 87 L 159.033 78.500 168.100 72.114 C 173.087 68.602, 177.353 65.227, 177.580 64.614 C 178.236 62.845, 174.443 44.500, 173.422 44.500 C 172.915 44.500, 165.674 47.984, 157.331 52.241 L 142.162 59.983 138.581 53.579 C 136.612 50.057, 135 46.924, 135 46.618 C 135 46.311, 137.700 41.156, 141 35.161 C 144.300 29.166, 147 23.850, 147 23.348 C 147 22.618, 115.065 12, 112.869 12 C 112.544 12, 111.267 17.512, 110.033 24.250" stroke="none" fill="black" fill-rule="evenodd"/>
</svg>