<svg xmlns="http://www.w3.org/2000/svg" width="200" height="200" viewBox="0 0 200 200" version="1.1">
	<path d="M 42.839 24.750 L 31.209 36.500 23 60 C 18.485 72.925, 14.585 83.841, 14.332 84.257 C 14.080 84.673, 14.620 85.301, 15.532 85.651 C 16.749 86.118, 21.568 81.924, 33.638 69.894 L 50.085 53.500 53.793 57.528 C 55.832 59.743, 60.458 64.890, 64.074 68.966 C 68.196 73.613, 70.913 75.950, 71.357 75.231 C 72.026 74.150, 51.800 50, 50.226 50 C 49.839 50, 42.596 56.862, 34.128 65.250 C 25.661 73.638, 19.060 79.600, 19.459 78.500 C 19.859 77.400, 23.132 67.950, 26.732 57.500 L 33.279 38.500 43.372 28.250 C 48.923 22.612, 53.697 18.003, 53.982 18.007 C 54.267 18.010, 56.247 21.273, 58.383 25.257 C 60.519 29.241, 63.572 34.833, 65.169 37.684 L 68.071 42.868 73.692 40.934 C 76.784 39.870, 79.681 39, 80.130 39 C 80.876 39, 80.645 48.657, 79.514 64.750 C 79.175 69.587, 79.385 71, 80.444 71 C 81.465 71, 81.977 68.522, 82.458 61.250 C 82.812 55.888, 83.194 50.600, 83.306 49.500 C 83.419 48.400, 85.039 52.803, 86.906 59.284 C 88.774 65.766, 90.621 71.266, 91.011 71.507 C 91.401 71.748, 98.593 67.218, 106.994 61.439 C 115.394 55.661, 122.408 51.075, 122.581 51.248 C 123.086 51.753, 119.861 71.429, 119.148 72.199 C 118.791 72.583, 106.800 75.421, 92.500 78.506 C 78.200 81.591, 58.625 86.063, 49 88.445 C 39.375 90.827, 30.262 93.060, 28.750 93.407 C 27.237 93.754, 26 94.705, 26 95.519 C 26 96.791, 29.829 97, 53.067 97 L 80.134 97 72.479 105.364 L 64.824 113.728 50.662 114.377 C 18.894 115.833, 14 116.248, 14 117.488 C 14 118.788, 20.641 119.416, 47.181 120.627 C 55.256 120.995, 62.258 121.568, 62.742 121.898 C 64.377 123.017, 74.117 142.252, 73.657 143.453 C 73.405 144.108, 62.818 151.982, 50.129 160.952 L 27.059 177.260 30.779 179.935 C 32.826 181.406, 35.083 182.962, 35.797 183.393 C 36.589 183.871, 46.961 179.964, 62.488 173.338 L 87.882 162.500 97.191 144.268 C 102.311 134.241, 106.767 126.028, 107.094 126.018 C 107.420 126.008, 112.482 135.900, 118.343 148 C 124.203 160.100, 129.259 170, 129.578 170 C 129.897 170, 140.526 172.496, 153.198 175.548 C 165.870 178.599, 176.426 180.907, 176.657 180.677 C 177.384 179.949, 171.804 156.552, 170.626 155.387 C 170.006 154.775, 158.700 150.329, 145.500 145.508 C 132.300 140.686, 120.905 136.426, 120.177 136.040 C 119.291 135.570, 121.600 133.360, 127.177 129.340 C 131.755 126.040, 136.115 122.980, 136.866 122.540 C 137.617 122.099, 148.777 120.951, 161.664 119.988 C 174.552 119.025, 185.382 117.951, 185.732 117.602 C 186.081 117.252, 185.947 116.585, 185.433 116.118 C 183.514 114.373, 154.700 111.662, 132 111.091 L 108.500 110.500 125.618 99 C 139.060 89.970, 144.296 85.783, 149.996 79.506 L 157.255 71.512 156.571 58.926 L 155.887 46.340 169.444 41.095 C 178.520 37.583, 183 35.353, 183 34.345 C 183 33.234, 182.282 32.989, 180.250 33.406 C 168.584 35.803, 138.603 40.002, 137.936 39.333 C 137.480 38.875, 135.245 34, 132.968 28.500 C 130.692 23, 128.459 18.114, 128.007 17.643 C 127.555 17.171, 120.281 19.940, 111.843 23.797 C 96.052 31.013, 71.896 39.558, 69.685 38.709 C 68.998 38.446, 65.387 32.554, 61.660 25.615 C 57.933 18.677, 54.791 13, 54.676 13 C 54.562 13, 49.235 18.287, 42.839 24.750 M 111.615 26.947 C 103.460 30.723, 93.910 34.637, 90.394 35.644 C 86.877 36.651, 84 37.913, 84 38.448 C 84 38.983, 85.868 45.831, 88.150 53.665 C 91.679 65.779, 92.540 67.780, 93.900 67.040 C 94.780 66.561, 102.250 61.481, 110.500 55.750 C 121.748 47.936, 125.573 45.738, 125.793 46.961 C 126.112 48.741, 122.359 73.975, 121.672 74.661 C 121.440 74.893, 109.831 77.540, 95.875 80.542 C 81.919 83.545, 63.571 87.688, 55.102 89.751 L 39.704 93.500 63.325 94 L 86.947 94.500 75.807 105.750 L 64.668 117 54.584 117.150 C 44.070 117.306, 44.410 117.485, 57.207 118.532 L 64.914 119.163 71.544 131.694 C 75.191 138.587, 77.797 144.558, 77.337 144.963 C 76.877 145.369, 67.050 152.342, 55.500 160.460 C 43.950 168.577, 33.911 175.775, 33.190 176.455 C 32.122 177.463, 32.368 178.011, 34.523 179.423 C 37.145 181.141, 37.358 181.074, 60.833 171.018 C 73.850 165.443, 85.033 160.345, 85.685 159.690 C 86.337 159.036, 91.490 149.506, 97.138 138.514 L 107.406 118.527 110.866 126.264 C 112.769 130.519, 114.743 134, 115.251 134 C 115.760 134, 120.773 130.650, 126.391 126.556 L 136.605 119.112 152.053 117.990 C 160.549 117.373, 167.947 116.749, 168.493 116.603 C 171.173 115.888, 147.172 113.987, 134.214 113.888 C 126.121 113.827, 115.294 113.489, 110.154 113.138 L 100.808 112.500 121.154 98.745 C 136.788 88.175, 142.982 83.348, 147.900 77.903 L 154.300 70.816 153.704 57.618 L 153.107 44.421 160.578 41.569 C 164.688 40, 167.926 38.608, 167.775 38.477 C 167.624 38.345, 160.975 39.314, 153 40.631 C 145.025 41.948, 137.910 42.907, 137.190 42.763 C 136.469 42.618, 133.756 37.456, 131.160 31.290 L 126.442 20.081 111.615 26.947 M 117 138.242 C 117 138.493, 120.101 145.178, 123.892 153.099 L 130.783 167.500 151.465 172.344 C 162.839 175.008, 172.389 176.945, 172.685 176.648 C 173.140 176.193, 170.947 164.338, 169.391 158.838 C 169.072 157.709, 161.144 154.281, 144.710 148.166 C 131.395 143.210, 119.713 138.848, 118.750 138.471 C 117.787 138.094, 117 137.991, 117 138.242" stroke="none" fill="black" fill-rule="evenodd"/>
</svg>