<svg xmlns="http://www.w3.org/2000/svg" width="200" height="200" viewBox="0 0 200 200" version="1.1">
	<path d="M 67.528 13.529 C 58.688 15.810, 54.175 16.560, 53.359 15.883 C 52.537 15.200, 51.901 15.343, 51.331 16.338 C 50.874 17.135, 45.366 19.167, 39.090 20.853 C 32.815 22.540, 27.363 24.275, 26.975 24.710 C 26.222 25.554, 18.684 75.017, 19.226 75.559 C 19.403 75.736, 26.849 69.280, 35.774 61.213 L 52 46.545 52 38.332 C 52 33.814, 52.360 29.896, 52.799 29.624 C 53.238 29.353, 54.427 33.264, 55.441 38.315 C 56.455 43.367, 57.493 48.063, 57.749 48.750 C 58.005 49.438, 57.520 50, 56.673 50 C 55.816 50, 46.881 61.188, 36.574 75.167 L 18.017 100.334 26.259 105.795 C 30.791 108.799, 34.849 111.571, 35.276 111.955 C 35.704 112.339, 30.867 121.394, 24.529 132.076 C 18.190 142.759, 13.003 151.868, 13.002 152.317 C 13.001 152.767, 13.788 152.907, 14.750 152.629 C 18.715 151.482, 31.993 149.660, 32.523 150.190 C 32.838 150.504, 34.428 155.878, 36.058 162.131 C 37.687 168.384, 39.240 174.096, 39.508 174.825 C 39.821 175.678, 44.349 172.322, 52.247 165.380 C 58.986 159.457, 64.636 154.525, 64.802 154.420 C 64.968 154.316, 65.599 151.141, 66.205 147.365 C 66.811 143.589, 67.386 140.389, 67.483 140.253 C 67.580 140.118, 69.968 140.692, 72.790 141.530 C 77.443 142.912, 77.980 143.377, 78.573 146.538 C 78.933 148.454, 79.533 150.211, 79.908 150.443 C 80.282 150.674, 82.594 149.962, 85.044 148.861 L 89.500 146.857 101.651 150.574 L 113.802 154.290 122.635 171.145 C 127.493 180.415, 131.756 188, 132.108 188 C 132.658 188, 164.104 149.957, 167.816 144.802 C 168.952 143.224, 168.702 142.223, 165.993 137.487 C 163.211 132.625, 162.403 131.928, 158.904 131.369 C 156.733 131.021, 154.759 130.419, 154.519 130.031 C 154.279 129.642, 161.070 121.489, 169.611 111.912 C 178.151 102.335, 185.388 93.920, 185.691 93.212 C 186.508 91.306, 168.208 50.995, 164.938 47.500 L 162.132 44.500 165.029 37.738 L 167.926 30.976 154.061 24.031 L 140.197 17.085 113.324 13.543 C 98.544 11.594, 85.112 10.041, 83.475 10.091 C 81.839 10.141, 74.663 11.688, 67.528 13.529 M 67.688 16.469 C 60.641 18.296, 54.751 19.950, 54.597 20.145 C 54.444 20.340, 55.754 27.025, 57.509 35 L 60.698 49.500 71.992 49.153 L 83.286 48.805 78.662 54.653 C 76.119 57.869, 72.072 62.947, 69.670 65.938 L 65.300 71.376 67.059 79.263 C 68.026 83.601, 68.970 87.300, 69.158 87.484 C 69.346 87.668, 72.406 87.296, 75.958 86.659 L 82.415 85.500 90.037 73.321 C 108.906 43.170, 120.270 25.924, 121.085 26.200 C 122.224 26.587, 162 73.969, 162 74.939 C 162 75.342, 156.972 77.718, 150.827 80.219 L 139.654 84.766 148.827 89.028 C 153.872 91.372, 158 93.649, 158 94.088 C 158 95.015, 127.242 116.078, 124.987 116.695 C 124.156 116.923, 111.781 112.636, 97.487 107.169 C 83.194 101.702, 71.335 97.380, 71.134 97.564 C 70.195 98.422, 73.611 105.323, 79.086 113.629 L 85.105 122.758 105.802 126.008 C 117.186 127.795, 126.833 129.555, 127.240 129.918 C 127.647 130.282, 120.565 133.712, 111.502 137.540 C 102.440 141.368, 95.020 144.766, 95.013 145.091 C 95.006 145.417, 99.646 147.109, 105.324 148.853 L 115.648 152.023 124.058 167.992 C 130.410 180.053, 132.738 183.660, 133.571 182.730 C 139.371 176.264, 165 143.897, 165 143.038 C 165 142.423, 164.113 140.182, 163.030 138.058 C 161.260 134.590, 160.566 134.128, 156.232 133.532 C 153.577 133.167, 150.798 132.493, 150.056 132.035 C 149.059 131.419, 152.848 126.552, 164.604 113.351 C 173.347 103.533, 181.122 94.707, 181.883 93.737 C 183.105 92.180, 182.184 89.556, 173.985 71.237 C 167.394 56.511, 163.845 49.769, 161.743 47.978 L 158.783 45.455 161.450 39.119 C 162.917 35.634, 163.962 32.628, 163.772 32.439 C 163.583 32.250, 158.133 29.333, 151.661 25.957 L 139.893 19.819 114.197 16.411 C 100.064 14.536, 86.700 13.035, 84.500 13.075 C 82.300 13.115, 74.735 14.642, 67.688 16.469 M 39.014 23.660 C 33.797 25.023, 29.407 26.260, 29.259 26.408 C 28.919 26.748, 23 65.897, 23 67.806 C 23 69.029, 27.519 65.186, 45.113 49 L 48.917 45.500 49.587 33.250 C 49.964 26.356, 49.873 21.040, 49.378 21.091 C 48.895 21.141, 44.231 22.297, 39.014 23.660 M 115.048 38.791 C 92.367 75.021, 85.604 85.666, 84.552 86.792 C 83.888 87.503, 80.342 88.582, 76.672 89.190 C 71.355 90.071, 70 90.657, 70 92.076 C 70 93.306, 71.623 94.468, 75.250 95.834 C 78.138 96.921, 90.106 101.454, 101.848 105.906 C 113.589 110.358, 123.639 114, 124.181 114 C 126.116 114, 153.153 94.754, 152.335 93.959 C 151.876 93.513, 148.084 91.598, 143.908 89.703 L 136.316 86.258 130.639 88.568 C 121.769 92.176, 121 92.336, 121 90.567 C 121 89.705, 121.393 89, 121.873 89 C 122.353 89, 124.919 88.038, 127.576 86.863 L 132.406 84.727 123.953 80.451 C 112.596 74.706, 115.577 73.526, 127.423 79.077 L 136.249 83.213 145.756 79.371 C 150.984 77.258, 155.863 75.072, 156.598 74.514 C 157.636 73.726, 153.911 68.709, 139.882 52 C 129.954 40.175, 121.531 30.406, 121.165 30.291 C 120.799 30.176, 118.047 34.001, 115.048 38.791 M 64.250 52.706 C 63.013 52.944, 62 53.761, 62 54.520 C 62 56.293, 64.120 66.372, 64.604 66.903 C 64.806 67.124, 65.829 66.224, 66.876 64.903 C 67.924 63.581, 70.668 60.138, 72.975 57.250 L 77.170 52 71.835 52.136 C 68.901 52.211, 65.487 52.467, 64.250 52.706 M 39.596 75.594 C 30.434 88.020, 22.839 98.583, 22.719 99.067 C 22.598 99.550, 26.414 102.565, 31.197 105.766 L 39.894 111.586 28.944 129.957 C 22.922 140.061, 18.174 148.508, 18.394 148.727 C 18.778 149.111, 29.826 147.385, 33.089 146.432 C 34.370 146.057, 35.314 148.397, 37.967 158.523 C 40.929 169.830, 41.417 170.944, 42.878 169.724 C 43.770 168.979, 48.550 164.823, 53.500 160.487 L 62.500 152.605 63.800 145.086 C 64.515 140.951, 65.310 137.356, 65.568 137.099 C 65.826 136.841, 68.367 137.375, 71.214 138.286 C 74.062 139.196, 76.557 139.776, 76.760 139.574 C 76.962 139.371, 75.475 131.397, 73.456 121.853 C 70.203 106.475, 69.329 103.789, 65.775 98.250 C 63.570 94.813, 61.705 92, 61.633 92 C 61.560 92, 57.973 92.675, 53.662 93.500 C 49.351 94.325, 45.177 95, 44.387 95 C 43.592 95, 47.265 89.624, 52.596 82.983 L 62.242 70.966 60.497 61.983 C 59.412 56.399, 58.279 53, 57.503 53 C 56.816 53, 48.758 63.167, 39.596 75.594 M 56.190 82.745 C 52.845 86.978, 50.280 90.613, 50.490 90.823 C 50.847 91.180, 65.124 88.955, 65.819 88.434 C 66.383 88.012, 63.758 75.968, 63.001 75.500 C 62.600 75.253, 59.535 78.513, 56.190 82.745 M 65.500 92 C 65.840 92.550, 66.316 93, 66.559 93 C 66.802 93, 67 92.550, 67 92 C 67 91.450, 66.523 91, 65.941 91 C 65.359 91, 65.160 91.450, 65.500 92 M 74.372 113.750 C 74.651 114.713, 76.095 121.217, 77.580 128.204 L 80.280 140.907 84.858 142.467 L 89.435 144.027 104.144 137.773 C 112.234 134.334, 118.703 131.370, 118.521 131.187 C 118.338 131.005, 110.384 129.554, 100.844 127.965 C 91.305 126.375, 83.440 125.058, 83.367 125.037 C 83.295 125.017, 81.329 122.075, 79 118.500 C 74.684 111.876, 73.467 110.627, 74.372 113.750 M 81 145.594 C 81 147.139, 83.557 147.526, 84.430 146.114 C 84.731 145.626, 84.083 144.993, 82.989 144.707 C 81.700 144.370, 81 144.682, 81 145.594" stroke="none" fill="black" fill-rule="evenodd"/>
</svg>