<svg xmlns="http://www.w3.org/2000/svg" width="200" height="200" viewBox="0 0 200 200" version="1.1">
	<path d="M 127.097 22.008 C 125.226 26.404, 123.609 30, 123.504 30 C 123.399 30, 120.752 29.119, 117.621 28.042 C 113.124 26.494, 108.158 25.969, 93.964 25.542 C 84.084 25.244, 67.900 24.756, 58 24.457 C 42.328 23.984, 40 24.111, 40 25.433 C 40 26.269, 41.687 27.879, 43.750 29.012 L 47.500 31.072 41.750 30.704 C 38.031 30.466, 36.031 30.718, 36.089 31.418 C 36.138 32.013, 37.825 36.537, 39.839 41.470 L 43.500 50.440 51.743 53.928 C 56.276 55.846, 59.651 57.698, 59.243 58.043 C 58.834 58.389, 51.626 61.300, 43.225 64.512 C 34.788 67.737, 28.120 70.832, 28.329 71.426 C 28.840 72.876, 30.183 72.590, 47.467 67.343 C 56.229 64.683, 62.574 63.222, 62.773 63.819 C 62.960 64.379, 67.587 71.384, 73.056 79.385 C 78.525 87.387, 83 94.123, 83 94.355 C 83 94.587, 72.357 95.109, 59.348 95.515 C 46.339 95.922, 34.690 96.535, 33.461 96.877 C 31.255 97.492, 31.298 97.674, 36.830 111.131 L 42.432 124.763 50.966 128.424 C 58.825 131.796, 59.882 132.602, 64.335 138.624 C 66.994 142.221, 68.968 145.365, 68.722 145.611 C 68.398 145.935, 19.581 148.880, 12.750 148.988 C 12.338 148.995, 12 149.675, 12 150.500 C 12 151.470, 12.971 151.999, 14.750 151.998 C 18.810 151.995, 68.491 154.910, 75.664 155.572 L 81.829 156.141 92.054 169.570 C 97.677 176.957, 102.388 183, 102.522 183 C 102.743 183, 127.721 167.901, 145.821 156.826 C 150.894 153.722, 155.730 149.471, 161.571 142.980 C 166.207 137.828, 169.981 133.363, 169.957 133.057 C 169.933 132.751, 162.473 126.312, 153.380 118.748 C 143.831 110.807, 137.406 104.800, 138.173 104.531 C 138.903 104.275, 145.800 102.650, 153.500 100.920 C 161.200 99.191, 167.931 97.372, 168.458 96.880 C 169.380 96.018, 173.842 46.746, 173.926 36.500 L 173.967 31.500 152.734 22.738 C 141.055 17.919, 131.275 13.986, 131 13.997 C 130.725 14.008, 128.969 17.613, 127.097 22.008 M 129.179 24.062 L 126.155 30.908 142.077 36.180 C 152.404 39.600, 158 41.938, 158 42.834 C 158 43.622, 157.385 43.978, 156.566 43.664 C 155.777 43.361, 148.495 41.013, 140.383 38.446 C 126.408 34.024, 125.566 33.873, 124.317 35.581 C 123.593 36.572, 123 37.700, 123 38.088 C 123 38.475, 126.825 39.362, 131.500 40.057 C 136.877 40.857, 140 41.774, 140 42.553 C 140 44.108, 137.534 44.693, 127.366 45.551 L 119.232 46.238 115.538 54.742 C 113.507 59.419, 112.218 63.584, 112.673 63.998 C 113.128 64.413, 117.157 65.951, 121.626 67.417 C 129.588 70.028, 129.764 70.156, 130.365 73.791 C 130.702 75.831, 130.983 81.014, 130.989 85.309 C 130.995 89.604, 131.395 92.874, 131.878 92.575 C 132.361 92.277, 135.835 84.600, 139.599 75.516 C 143.655 65.724, 146.990 59, 147.788 59 C 149.526 59, 149.492 59.098, 140.004 81.692 C 135.659 92.036, 131.475 100.632, 130.705 100.794 C 129.622 101.021, 129.158 99.012, 128.653 91.890 C 128.294 86.832, 128 80.380, 128 77.552 L 128 72.412 119.396 69.610 C 114.664 68.069, 110.467 67.189, 110.070 67.654 C 109.672 68.119, 106.480 74.975, 102.976 82.889 L 96.604 97.278 98.937 101.389 C 100.220 103.650, 102.071 107.087, 103.051 109.028 C 104.791 112.475, 105.290 112.701, 125.026 118.983 C 136.133 122.519, 145.410 125.905, 145.641 126.507 C 145.988 127.412, 135.253 152.898, 131.798 159.373 C 130.955 160.952, 128.697 157.732, 117.420 138.873 C 110.063 126.568, 103.842 116.050, 103.597 115.500 C 102.716 113.519, 101.360 117.111, 99.539 126.250 C 98.526 131.338, 97.524 135.704, 97.312 135.953 C 97.101 136.202, 89.069 128.557, 79.464 118.964 C 63.960 103.479, 60.176 98.963, 62.750 99.015 C 63.163 99.023, 71.713 101.673, 81.750 104.903 C 91.787 108.133, 100 110.515, 100 110.196 C 100 107.617, 70.057 61, 68.400 61 C 64.724 61, 66.383 64.748, 76.903 80.208 L 87.988 96.500 82.244 97.179 C 79.085 97.552, 67.134 98.165, 55.686 98.541 C 40.765 99.031, 35 99.547, 35.325 100.362 C 35.573 100.988, 37.714 106.173, 40.083 111.885 L 44.388 122.270 52.554 126.025 C 60.131 129.509, 61.198 130.392, 67.360 138.283 C 71.012 142.961, 74 147.231, 74 147.772 C 74 148.347, 67.024 149.099, 57.250 149.578 L 40.500 150.398 50 151.095 C 55.225 151.479, 64.776 152.108, 71.225 152.493 L 82.951 153.194 92.725 166.069 C 98.101 173.151, 102.858 178.957, 103.295 178.972 C 103.732 178.988, 114.759 172.502, 127.800 164.560 C 149.545 151.317, 152.117 149.450, 158.851 142.029 C 164.750 135.527, 165.964 133.662, 165.029 132.534 C 164.388 131.763, 156.470 124.952, 147.433 117.399 C 138.395 109.845, 131.117 103.550, 131.259 103.408 C 131.401 103.266, 139.317 101.349, 148.851 99.149 C 158.385 96.948, 166.319 95.002, 166.483 94.824 C 166.647 94.646, 167.745 81.900, 168.924 66.500 C 170.102 51.100, 171.164 37.385, 171.283 36.022 C 171.480 33.773, 170.578 33.164, 161.500 29.420 C 156 27.152, 147.158 23.478, 141.851 21.256 L 132.202 17.216 129.179 24.062 M 49.230 29.397 C 51.385 31.630, 52.873 31.860, 78.500 33.910 C 93.350 35.099, 108.600 36.581, 112.389 37.205 C 118.705 38.245, 119.392 38.184, 120.639 36.478 C 122.903 33.382, 122.239 32.441, 116.520 30.638 C 109.311 28.365, 106.342 28.149, 74.230 27.551 L 46.960 27.044 49.230 29.397 M 40 33.686 C 40 33.796, 41.198 37.119, 42.663 41.070 C 45.245 48.036, 45.489 48.326, 50.691 50.627 C 53.643 51.932, 56.491 53, 57.022 53 C 57.553 53, 55.883 48.764, 53.311 43.586 L 48.634 34.172 44.317 33.829 C 41.943 33.640, 40 33.576, 40 33.686 M 52 34.700 C 52 34.852, 54.362 39.727, 57.250 45.533 L 62.500 56.091 66 55.533 L 69.500 54.975 77.454 67.738 C 81.828 74.757, 87.498 83.770, 90.054 87.766 L 94.700 95.033 98.787 85.766 C 101.035 80.670, 104.005 73.951, 105.387 70.835 L 107.900 65.169 96.364 56.504 C 90.019 51.739, 85.017 47.650, 85.248 47.418 C 85.480 47.187, 92.606 46.284, 101.085 45.412 C 122.887 43.170, 124.026 41.102, 104.609 39.012 C 90.423 37.485, 52 34.336, 52 34.700 M 122.762 42.707 C 124.006 42.946, 125.806 42.937, 126.762 42.687 C 127.718 42.437, 126.700 42.241, 124.500 42.252 C 122.300 42.263, 121.518 42.468, 122.762 42.707 M 101.010 48.126 C 96.890 48.603, 93.142 49.119, 92.680 49.273 C 91.703 49.599, 107.442 62, 108.833 62 C 109.346 62, 109.995 61.212, 110.273 60.250 C 110.552 59.288, 111.949 55.913, 113.377 52.750 L 115.975 47 112.237 47.130 C 110.182 47.201, 105.129 47.650, 101.010 48.126 M 82.014 117.521 L 95.500 131.041 97.209 123.771 C 98.149 119.772, 98.936 115.813, 98.959 114.974 C 98.988 113.888, 94.886 112.088, 84.714 108.724 C 76.856 106.126, 70 104, 69.478 104 C 68.955 104, 74.597 110.084, 82.014 117.521 M 111.383 123.355 C 125.987 148.056, 130.387 155, 130.988 154.295 C 131.762 153.387, 141.883 130.545, 142.255 128.865 C 142.487 127.821, 131.902 123.851, 114.829 118.579 L 107.159 116.211 111.383 123.355" stroke="none" fill="black" fill-rule="evenodd"/>
</svg>