<svg xmlns="http://www.w3.org/2000/svg" width="200" height="200" viewBox="0 0 200 200" version="1.1">
	<path d="M 19.654 17.750 C 19.298 25.313, 18.716 52.425, 18.360 78 L 17.713 124.500 21.563 156.275 C 23.681 173.752, 25.752 188.598, 26.165 189.267 C 26.661 190.069, 27.248 190.146, 27.890 189.492 C 28.425 188.946, 33.139 176.895, 38.365 162.712 L 47.867 136.924 48.583 106.962 C 49.216 80.507, 49.488 76.992, 50.900 76.929 C 51.780 76.890, 62.625 76.092, 75 75.157 C 99.121 73.333, 98.289 73.605, 96.536 68.102 C 95.811 65.828, 95.941 65.738, 99.063 66.363 C 100.873 66.725, 102.477 67.144, 102.628 67.294 C 102.778 67.445, 101.348 72.533, 99.449 78.602 L 95.998 89.636 87.471 90.777 L 78.945 91.918 70.965 99.209 C 66.576 103.219, 62.792 107.175, 62.555 108 C 61.081 113.142, 49.020 164.349, 49.235 164.549 C 49.381 164.684, 60.605 162.887, 74.177 160.555 L 98.854 156.316 111.730 164.514 L 124.605 172.711 145.052 176.700 C 156.299 178.894, 165.778 180.421, 166.119 180.094 C 166.459 179.767, 168.351 165.325, 170.324 148 C 173.458 120.468, 173.970 112.563, 174.389 85.250 C 174.653 68.063, 174.542 54, 174.142 54 C 173.743 54, 166.961 60.779, 159.072 69.064 C 151.182 77.349, 144.369 83.761, 143.930 83.314 C 143.492 82.866, 142.991 80.700, 142.817 78.500 L 142.500 74.500 126.500 70.423 L 110.500 66.346 116.897 65.673 C 120.415 65.303, 129.302 65, 136.647 65 C 145.502 65, 150 64.638, 150 63.925 C 150 63.334, 147.942 59.669, 145.426 55.780 C 140.585 48.295, 140.666 47.052, 146 47.012 C 148.487 46.993, 148.485 46.983, 145.500 45.172 C 143.850 44.170, 136.367 40.191, 128.872 36.328 L 115.244 29.306 116.793 26.753 C 118.543 23.869, 117.477 24.101, 143.750 20.890 C 157.149 19.252, 162 18.306, 162 17.330 C 162 16.598, 161.438 15.973, 160.750 15.940 C 149.014 15.373, 75.391 13.380, 75.106 13.621 C 74.889 13.805, 76.393 18.724, 78.448 24.552 C 80.503 30.380, 81.922 35.411, 81.601 35.733 C 81.279 36.054, 73.792 37.527, 64.962 39.006 L 48.908 41.696 49.577 38.598 C 49.945 36.894, 52.010 33.576, 54.167 31.225 C 59.568 25.336, 57.961 23.566, 52.327 29.199 C 48.855 32.672, 47.625 34.837, 46.585 39.309 C 45.858 42.439, 45.541 44.995, 45.881 44.988 C 46.222 44.982, 54.375 43.637, 64 42 C 73.625 40.363, 82.014 39.018, 82.642 39.012 C 83.269 39.005, 84.055 40.083, 84.387 41.407 C 84.720 42.731, 85.267 44.531, 85.603 45.407 C 86.043 46.555, 85.623 47, 84.098 47 C 81.415 47, 38 68.665, 38 70.004 C 38 70.552, 38.826 71, 39.836 71 C 41.245 71, 74.103 63.946, 88.614 60.528 C 90.410 60.105, 91.028 60.843, 92.719 65.433 L 94.709 70.835 85.104 71.536 C 79.822 71.921, 68.975 72.746, 61 73.368 L 46.500 74.500 45.825 105.500 L 45.151 136.500 37.037 158.408 C 32.574 170.457, 28.629 180.792, 28.269 181.373 C 27.910 181.955, 26.101 170.521, 24.249 155.965 L 20.882 129.500 21.450 75.500 C 21.762 45.800, 22.302 17.563, 22.650 12.750 C 23.182 5.379, 23.047 4, 21.791 4 C 20.573 4, 20.181 6.519, 19.654 17.750 M 79 16.698 C 79 17.988, 83.951 32.373, 84.924 33.911 C 85.689 35.120, 87.374 35.075, 96.659 33.595 C 111.157 31.284, 110.698 31.481, 114 26.167 L 116.899 21.500 129.200 19.938 L 141.500 18.375 122.500 17.688 C 112.050 17.310, 97.987 16.754, 91.250 16.452 C 84.513 16.150, 79 16.261, 79 16.698 M 113.364 33.765 C 112.306 34.450, 106 44.536, 106 45.544 C 106 46.185, 114.543 46.104, 127.846 45.337 L 139.193 44.683 127.846 38.858 C 116.107 32.831, 115.266 32.535, 113.364 33.765 M 104.500 34.996 C 102.300 35.423, 97.276 36.308, 93.337 36.962 L 86.173 38.152 87.681 42.576 C 89.323 47.397, 89.733 47.547, 98.134 46.395 C 102.283 45.826, 102.743 45.437, 105.813 39.895 C 107.609 36.653, 108.948 34.049, 108.789 34.110 C 108.630 34.170, 106.700 34.569, 104.500 34.996 M 110.496 48.738 C 103.938 49.056, 103.384 49.266, 101.792 52.039 C 100.858 53.667, 100.259 55, 100.462 55 C 101.118 55, 128.468 48.900, 129.500 48.523 C 130.620 48.114, 121.126 48.221, 110.496 48.738 M 90.699 49.750 C 90.468 50.163, 90.877 51.924, 91.608 53.665 C 92.600 56.028, 93.420 56.703, 94.846 56.330 C 96.477 55.904, 97.401 54.676, 99.801 49.750 C 100.002 49.337, 98.131 49, 95.642 49 C 93.154 49, 90.929 49.337, 90.699 49.750 M 66 58 C 57.475 62.342, 50.773 65.918, 51.108 65.947 C 51.862 66.013, 87.058 58.148, 88.675 57.553 C 89.556 57.229, 89.576 56.230, 88.757 53.560 C 87.808 50.466, 87.261 50.007, 84.582 50.053 C 82.791 50.083, 75.010 53.411, 66 58 M 116.206 54.336 C 99.496 58.140, 96.080 59.458, 96.015 62.128 C 96.007 62.474, 97.800 63.214, 100 63.772 C 102.200 64.330, 104 64.443, 104 64.021 C 104 63.600, 113.471 62.925, 125.046 62.522 L 146.092 61.789 144.375 59.145 C 143.431 57.690, 141.723 55.043, 140.579 53.262 C 139.321 51.304, 137.710 50.054, 136.500 50.099 C 135.400 50.139, 126.268 52.046, 116.206 54.336 M 157.799 74.312 L 144.204 88.623 147.065 112.015 C 148.639 124.881, 149.825 135.508, 149.702 135.631 C 149.408 135.925, 126.634 133.968, 126.285 133.619 C 126.138 133.472, 127.104 129.560, 128.432 124.926 C 129.760 120.292, 131.992 112.225, 133.392 107 L 135.938 97.500 122.759 110.921 C 111.971 121.906, 107.260 125.852, 96.796 132.671 C 89.765 137.252, 83.844 141, 83.638 141 C 83.432 141, 85.185 135.713, 87.534 129.250 C 91.533 118.247, 91.709 117.337, 90.296 114.935 C 88.901 112.564, 89.022 111.638, 91.894 102.673 C 93.602 97.340, 95 92.852, 95 92.700 C 95 92.549, 91.526 92.865, 87.281 93.403 L 79.562 94.382 72.361 101.441 L 65.161 108.500 58.981 134.318 C 55.583 148.517, 53.048 160.381, 53.349 160.682 C 53.649 160.983, 63.278 159.602, 74.746 157.614 C 86.215 155.626, 96.677 154, 97.995 154 C 99.314 154, 105.654 157.381, 112.084 161.513 C 118.514 165.645, 125.063 169.449, 126.637 169.966 C 131.543 171.579, 163.063 177.271, 163.678 176.655 C 163.999 176.334, 165.753 163.489, 167.574 148.110 C 170.272 125.335, 171.018 114.571, 171.597 90.075 C 171.988 73.534, 172.102 60, 171.851 60 C 171.599 60, 165.276 66.440, 157.799 74.312 M 102.359 78.212 C 100.632 83.871, 99.322 88.615, 99.448 88.755 C 99.747 89.088, 140.085 83.259, 140.470 82.828 C 140.631 82.648, 140.553 81.126, 140.297 79.446 C 139.831 76.394, 139.825 76.391, 124.165 72.533 C 115.549 70.411, 107.825 68.505, 107 68.299 C 105.876 68.019, 104.712 70.506, 102.359 78.212 M 118.120 88.992 C 107.261 90.566, 98.421 92.319, 98.013 92.979 C 97.613 93.627, 96.031 98.402, 94.499 103.591 C 91.886 112.440, 91.817 113.140, 93.383 114.871 C 94.952 116.605, 94.868 117.220, 92 124.999 C 90.321 129.554, 89.143 133.476, 89.383 133.716 C 89.622 133.955, 94.070 131.305, 99.266 127.826 C 106.174 123.201, 112.609 117.467, 123.198 106.500 C 131.794 97.597, 137.957 90.382, 138.360 88.750 C 138.733 87.237, 138.692 86.041, 138.269 86.091 C 137.846 86.141, 128.779 87.446, 118.120 88.992 M 140.720 91.683 C 139.220 94.230, 129.985 130.372, 130.674 130.998 C 131.128 131.411, 135.016 131.998, 139.314 132.302 L 147.127 132.855 146.595 130.178 C 146.303 128.705, 145.102 119.400, 143.928 109.500 C 142.753 99.600, 141.659 91.358, 141.496 91.183 C 141.334 91.009, 140.984 91.234, 140.720 91.683" stroke="none" fill="black" fill-rule="evenodd"/>
</svg>