<svg xmlns="http://www.w3.org/2000/svg" width="200" height="200" viewBox="0 0 200 200" version="1.1">
	<path d="M 66.434 13.500 C 66.073 15.425, 65.490 17.021, 65.139 17.046 C 64.787 17.072, 55.725 18.799, 45 20.885 L 25.500 24.677 25.783 52.088 C 26.059 78.722, 24.886 107.767, 21.353 161.767 C 20.444 175.664, 19.963 187.296, 20.284 187.617 C 20.605 187.938, 21.274 187.949, 21.772 187.641 C 22.269 187.334, 29.386 172.666, 37.588 155.047 C 45.790 137.427, 52.745 123.009, 53.044 123.006 C 53.343 123.003, 54.803 128.063, 56.288 134.250 C 58.945 145.319, 58.971 145.760, 57.940 161.687 C 57.363 170.590, 57.028 180.113, 57.196 182.848 L 57.500 187.822 73.350 166.323 L 89.201 144.824 87.084 116.662 C 85.920 101.173, 84.707 86.362, 84.390 83.750 C 83.845 79.265, 83.943 79.002, 86.156 79.027 C 87.445 79.042, 93 80.060, 98.500 81.289 L 108.500 83.524 111.885 89.914 L 115.270 96.304 111.885 95.619 C 105.324 94.290, 97 93.726, 96.981 94.608 C 96.970 95.098, 95.861 107.627, 94.515 122.448 L 92.068 149.397 101.270 165.197 C 109.504 179.336, 110.789 181.047, 113.486 181.467 C 115.144 181.725, 125.900 182.063, 137.388 182.218 L 158.277 182.500 168.084 163.769 L 177.892 145.037 173.489 119.493 C 171.068 105.443, 168.815 93.510, 168.484 92.974 C 168.153 92.438, 166.446 91.993, 164.691 91.985 C 162.936 91.976, 160.932 91.609, 160.239 91.169 C 159.495 90.697, 164.187 89.464, 171.674 88.165 C 178.657 86.954, 184.536 85.797, 184.739 85.595 C 185.042 85.291, 175.218 58.235, 174.416 57.166 C 174.200 56.877, 165.076 58.537, 129.146 65.402 C 125.102 66.175, 122.177 66.458, 122.646 66.031 C 123.116 65.604, 130.250 60.764, 138.500 55.275 C 146.750 49.786, 156.117 43.460, 159.316 41.218 L 165.132 37.140 156.104 31.070 C 151.139 27.732, 146.684 25, 146.205 25 C 145.246 25, 112.879 38.407, 110.181 39.921 C 108.687 40.761, 108.674 40.933, 110.067 41.469 C 110.931 41.803, 119.184 38.920, 128.483 35.037 C 137.750 31.166, 145.686 28, 146.118 28 C 146.893 28, 160 36.899, 160 37.425 C 160 37.574, 149.682 44.561, 137.071 52.952 C 121.432 63.359, 114.312 68.650, 114.676 69.597 C 114.996 70.431, 116.066 70.786, 117.354 70.486 C 118.534 70.211, 130.300 67.965, 143.500 65.495 C 156.700 63.025, 168.662 60.759, 170.082 60.459 C 172.568 59.935, 172.823 60.344, 176.957 71.499 C 179.318 77.871, 181.076 83.258, 180.863 83.470 C 180.650 83.683, 173.403 85.090, 164.758 86.598 L 149.040 89.339 131.143 85.531 L 113.247 81.722 100.219 54.611 C 87.015 27.135, 84 22.683, 84 30.666 L 84 34.479 79.420 27.652 C 76.902 23.898, 75.132 20.535, 75.487 20.180 C 75.842 19.824, 88.478 19.362, 103.567 19.152 C 127.039 18.826, 131 18.556, 131 17.280 C 131 15.976, 127.320 15.881, 101.660 16.521 L 72.319 17.253 70.078 13.627 C 68.845 11.632, 67.669 10, 67.464 10 C 67.259 10, 66.795 11.575, 66.434 13.500 M 50.500 22.601 C 43.900 23.906, 36.122 25.465, 33.216 26.065 L 27.932 27.156 28.042 61.328 C 28.144 92.781, 26.909 124.035, 23.971 164.396 C 23.414 172.039, 23.087 178.420, 23.243 178.577 C 23.400 178.733, 30.222 164.465, 38.404 146.871 C 46.586 129.276, 53.605 115.245, 54.001 115.691 C 54.397 116.136, 56.294 123.025, 58.215 131 C 61.701 145.464, 61.707 145.535, 60.824 159.500 C 59.403 181.950, 58.582 181.793, 73.250 161.885 C 83.053 148.581, 86 143.872, 86 141.513 C 86 139.826, 85.109 127.208, 84.020 113.473 C 82.931 99.738, 81.919 86.043, 81.770 83.040 C 81.505 77.677, 81.438 77.568, 78 76.852 C 76.075 76.452, 69.370 75.014, 63.101 73.658 L 51.702 71.191 52.264 90.596 C 52.709 105.929, 52.560 110, 51.554 110 C 50.132 110, 49.474 100.085, 48.369 62 L 47.715 39.500 52.944 45.750 C 55.820 49.187, 58.504 52, 58.909 52 C 59.314 52, 60.666 46.038, 61.914 38.750 C 63.161 31.462, 64.423 24.262, 64.716 22.750 C 65.350 19.483, 66.227 19.492, 50.500 22.601 M 67.601 22.750 C 67.294 24.262, 65.895 32.025, 64.492 40 C 60.755 61.251, 61.165 59.909, 59.166 57.457 C 58.250 56.333, 56.024 53.633, 54.220 51.457 L 50.939 47.500 51.220 57.923 L 51.500 68.346 66.500 71.564 C 74.750 73.335, 81.589 74.705, 81.698 74.610 C 81.807 74.515, 82.257 66.404, 82.698 56.586 L 83.500 38.736 77.235 29.368 C 73.789 24.216, 70.338 20, 69.565 20 C 68.791 20, 67.908 21.238, 67.601 22.750 M 86 36.180 C 86 37.345, 93.884 50, 94.609 50 C 94.815 50, 93.314 46.625, 91.273 42.500 C 87.822 35.527, 86 33.343, 86 36.180 M 85.653 53.645 C 85.294 59.512, 85 66.849, 85 69.950 L 85 75.590 93.750 77.445 C 98.563 78.465, 103.577 79.522, 104.892 79.794 C 107.096 80.249, 106.707 79.191, 99.970 66.394 C 95.948 58.752, 91.227 50.358, 89.481 47.740 L 86.305 42.980 85.653 53.645 M 117.212 89.500 C 119.734 94.690, 119.597 94.665, 132.357 92.319 L 141.500 90.638 129 87.873 C 122.125 86.353, 116.168 85.084, 115.763 85.054 C 115.358 85.024, 116.010 87.025, 117.212 89.500 M 136.250 94.276 C 130.063 95.399, 125 96.615, 125 96.978 C 125 97.342, 129.162 98.192, 134.250 98.867 C 157.507 101.953, 158.488 102.168, 156.411 103.713 C 155.360 104.494, 149.775 107.577, 144 110.562 C 129.840 117.882, 130.679 117.201, 132.071 120.256 C 133.303 122.961, 135.554 123.964, 140.446 123.986 L 143.392 124 140.124 127.372 L 136.855 130.745 142.428 141.856 C 145.492 147.967, 148 153.354, 148 153.827 C 148 154.481, 125.723 151.258, 113.169 148.788 C 112.317 148.620, 116.156 144.621, 122.353 139.220 C 128.209 134.115, 133 129.535, 133 129.041 C 133 126.677, 129.558 125.194, 122.551 124.537 C 118.398 124.148, 115 123.500, 115 123.099 C 115 122.697, 117.700 121.077, 121 119.500 C 124.300 117.923, 127 116.497, 127 116.331 C 127 116.165, 125.123 112.246, 122.830 107.621 L 118.660 99.212 109.296 97.973 C 104.146 97.291, 99.794 96.906, 99.625 97.117 C 99.455 97.328, 98.337 109.083, 97.140 123.241 L 94.963 148.982 103.638 163.841 L 112.313 178.700 127.906 179.347 C 136.483 179.702, 146.443 179.995, 150.041 179.997 L 156.582 180 165.775 162.283 L 174.969 144.566 170.762 119.884 L 166.556 95.203 159.028 94.022 C 154.888 93.373, 150.600 92.705, 149.500 92.538 C 148.400 92.372, 142.438 93.153, 136.250 94.276 M 125.605 107.250 C 127.601 111.237, 129.333 114.613, 129.452 114.752 C 129.572 114.890, 134.330 112.564, 140.024 109.583 C 150.211 104.249, 150.322 104.152, 146.939 103.582 C 139.287 102.294, 123.957 100, 122.998 100 C 122.435 100, 123.608 103.263, 125.605 107.250 M 125.088 120.407 C 122.691 121.736, 122.698 121.746, 126.338 122.171 C 128.352 122.406, 130 122.501, 130 122.381 C 130 121.428, 128.656 119.007, 128.143 119.035 C 127.789 119.055, 126.415 119.672, 125.088 120.407 M 126.302 139.314 C 121.793 143.231, 118.202 146.535, 118.322 146.655 C 118.731 147.064, 143.243 151.091, 143.520 150.795 C 143.671 150.633, 141.704 146.381, 139.148 141.346 L 134.500 132.191 126.302 139.314" stroke="none" fill="black" fill-rule="evenodd"/>
</svg>