<svg xmlns="http://www.w3.org/2000/svg" width="200" height="200" viewBox="0 0 200 200" version="1.1">
	<path d="M 119.362 11.085 C 118.663 13.405, 114.452 16.517, 97.030 27.590 L 75.561 41.236 47.808 37.924 C 22.654 34.922, 16.242 34.677, 19.766 36.855 C 20.430 37.266, 33.401 39.063, 48.591 40.848 L 76.208 44.095 96.739 31.016 C 108.031 23.823, 117.453 18.120, 117.676 18.342 C 117.899 18.565, 117.065 24.680, 115.823 31.930 L 113.565 45.113 107.783 46.720 C 100.812 48.658, 100.298 50.548, 106.549 51.253 C 109.052 51.535, 111.321 51.987, 111.592 52.258 C 111.863 52.529, 111.343 56.807, 110.436 61.764 C 108.105 74.505, 108.505 74.394, 87.625 68.097 C 78.420 65.321, 70.477 62.795, 69.974 62.484 C 69.470 62.173, 66.233 58.027, 62.779 53.271 L 56.500 44.624 55.687 81.062 L 54.875 117.500 40.946 147.500 C 33.286 164, 27.014 176.375, 27.009 175 C 27.004 173.625, 27.661 163.950, 28.468 153.500 C 29.745 136.966, 33 70.130, 33 60.448 C 33 58.232, 32.521 57, 31.659 57 C 30.590 57, 30.063 63.740, 29.058 90.250 C 28.365 108.537, 26.777 137.450, 25.529 154.500 C 24.281 171.550, 23.407 185.668, 23.587 185.874 C 24.986 187.472, 28.466 181.028, 42.253 151.311 C 50.914 132.644, 58.049 116.725, 58.110 115.935 C 58.250 114.090, 60.076 126.713, 63.001 149.750 L 65.318 168 82.909 167.997 C 92.584 167.995, 107.393 167.302, 115.817 166.457 L 131.135 164.920 143.859 172.912 C 150.858 177.307, 157.240 181.152, 158.042 181.457 C 159.207 181.900, 161.079 175.729, 167.358 150.756 L 175.215 119.500 174.340 98.500 C 173.511 78.603, 173.609 76.397, 176.199 56.500 C 177.702 44.950, 178.947 34.760, 178.966 33.855 C 178.990 32.711, 176.334 31.134, 170.250 28.680 C 165.438 26.738, 152.213 21.342, 140.862 16.688 L 120.224 8.226 119.362 11.085 M 122 13.766 C 122 14.710, 125.177 20.741, 129.061 27.169 L 136.122 38.856 141.185 37.352 C 144.749 36.294, 146.562 36.162, 147.308 36.908 C 147.890 37.490, 148.172 38.126, 147.933 38.321 C 145.978 39.921, 137.991 45, 137.430 45 C 137.040 45, 136.221 44.323, 135.610 43.496 C 134.635 42.175, 133.374 42.314, 125.250 44.638 C 120.162 46.093, 116 47.623, 116 48.038 C 116 48.452, 119.623 49.113, 124.051 49.505 C 130.738 50.096, 132.404 49.945, 133.880 48.609 C 136.128 46.574, 138.403 46.509, 137.638 48.500 C 137.322 49.325, 137.161 50.015, 137.281 50.033 C 137.402 50.051, 144.404 50.467, 152.842 50.958 C 161.280 51.449, 168.450 52.117, 168.776 52.442 C 170.140 53.806, 166.242 55.298, 142.591 62.462 C 125.541 67.627, 117.331 69.690, 116.516 69.013 C 115.033 67.782, 110.495 72.262, 111.262 74.199 C 111.545 74.915, 117.024 77.031, 123.436 78.902 C 129.849 80.773, 134.737 82.633, 134.298 83.036 C 133.218 84.027, 114.654 88, 111.104 88 C 108.520 88, 108.212 88.383, 107.696 92.231 C 107.384 94.558, 107.255 96.589, 107.411 96.744 C 107.566 96.899, 116.343 95.670, 126.916 94.013 C 148.901 90.567, 150 90.491, 150 92.411 C 150 94.900, 141.922 97.676, 124.781 101.078 C 115.585 102.902, 108.160 104.483, 108.281 104.589 C 108.401 104.696, 120.759 106.041, 135.742 107.578 C 150.725 109.115, 163.495 110.688, 164.120 111.074 C 164.745 111.460, 164.969 112.241, 164.619 112.808 C 164.268 113.376, 152.867 117.544, 139.284 122.072 C 114.996 130.168, 114.511 130.283, 110.043 129.026 C 98.491 125.777, 98.113 126.841, 108.174 134.294 L 115.347 139.608 125.175 138.139 C 134.595 136.730, 137.448 136.959, 135.433 138.960 C 134.056 140.329, 94.753 156.087, 94.171 155.504 C 93.758 155.091, 95.527 143.666, 97.671 132.905 C 98.124 130.629, 97.377 129.731, 91.594 125.604 C 87.967 123.016, 85 120.247, 85 119.449 C 85 117.651, 84.567 117.615, 91.500 120 C 94.697 121.100, 97.860 122, 98.529 122 C 99.197 122, 100.039 120.088, 100.399 117.750 C 100.759 115.412, 101.309 112.079, 101.621 110.341 C 102.339 106.345, 100.730 105.881, 92.558 107.725 C 86.650 109.059, 83.376 108.819, 84.420 107.130 C 85.057 106.098, 92.076 104.223, 98.163 103.459 C 100.498 103.165, 102.616 102.717, 102.871 102.463 C 104.537 100.796, 100.013 101.028, 85.359 103.359 C 76.185 104.818, 68.534 105.868, 68.357 105.691 C 68.180 105.514, 72.109 101.868, 77.088 97.588 C 82.067 93.309, 85.997 89.664, 85.820 89.488 C 85.644 89.312, 79.425 89.468, 72 89.834 L 58.500 90.500 58.693 93 C 59.003 97.010, 67.025 160.288, 67.517 162.604 C 67.936 164.572, 68.785 164.743, 80.661 165.256 C 89.320 165.630, 99.400 165.219, 112.362 163.965 C 126.411 162.605, 131.906 162.410, 133.433 163.214 C 134.570 163.813, 140.388 167.409, 146.362 171.206 C 152.337 175.002, 157.370 177.963, 157.548 177.786 C 157.725 177.608, 161.090 164.646, 165.025 148.981 L 172.180 120.500 171.501 98 C 170.871 77.119, 171.014 74.034, 173.488 55.126 C 174.953 43.921, 175.781 34.425, 175.326 34.023 C 174.653 33.429, 134.028 16.622, 124.598 13.037 C 122.426 12.212, 122 12.331, 122 13.766 M 120.596 21.107 C 119.631 24.088, 116.716 43.049, 117.155 43.489 C 117.580 43.914, 132.040 40.196, 132.851 39.453 C 133.131 39.196, 122.708 21.595, 121.394 20.107 C 121.203 19.891, 120.844 20.341, 120.596 21.107 M 114.034 57.750 C 113.425 60.913, 112.753 64.313, 112.542 65.307 C 112.212 66.856, 112.396 66.930, 113.829 65.822 C 119.160 61.702, 128 53.627, 128 52.878 C 128 52.395, 125.107 52, 121.571 52 L 115.142 52 114.034 57.750 M 58.478 69.654 C 58.071 78.877, 58.136 86.475, 58.625 86.886 C 59.106 87.291, 66.339 87.308, 74.698 86.924 C 91.135 86.170, 90.098 86.511, 98.578 79.066 C 100.576 77.312, 102.050 75.719, 101.855 75.527 C 101.660 75.334, 94.075 72.956, 85 70.241 L 68.500 65.304 63.853 59.231 L 59.206 53.157 58.478 69.654 M 128.043 59.457 L 121.644 65.913 133.072 62.444 C 139.357 60.535, 147.875 57.967, 152 56.737 L 159.500 54.500 152.500 53.874 C 148.650 53.530, 143.012 53.193, 139.971 53.124 C 134.444 53, 134.441 53.002, 128.043 59.457 M 100.109 81.500 L 94.837 86 100.399 86 C 106.420 86, 105.934 86.499, 107.467 78.750 C 108.038 75.863, 105.680 76.744, 100.109 81.500 M 110 79.918 C 110 80.973, 109.727 82.548, 109.393 83.418 C 108.620 85.433, 113.299 85.534, 120.500 83.660 L 125.500 82.358 118.345 80.179 C 109.685 77.542, 110 77.552, 110 79.918 M 96.895 88.735 C 91.699 89.065, 90.768 89.534, 84.112 95.179 C 80.164 98.527, 77.061 101.383, 77.217 101.526 C 77.581 101.859, 103.379 97.911, 103.867 97.448 C 104.069 97.256, 104.465 95.052, 104.747 92.549 C 105.142 89.048, 104.942 88.044, 103.880 88.189 C 103.121 88.293, 99.978 88.539, 96.895 88.735 M 135.813 95.683 C 136.534 95.972, 137.397 95.936, 137.729 95.604 C 138.061 95.272, 137.471 95.036, 136.417 95.079 C 135.252 95.127, 135.015 95.364, 135.813 95.683 M 129.750 96.662 C 130.438 96.940, 131.563 96.940, 132.250 96.662 C 132.938 96.385, 132.375 96.158, 131 96.158 C 129.625 96.158, 129.063 96.385, 129.750 96.662 M 115.069 98.616 C 110.432 99.393, 106.419 100.247, 106.152 100.514 C 104.713 101.954, 107.695 101.703, 117.553 99.556 C 129.623 96.927, 128.249 96.408, 115.069 98.616 M 105 107.333 C 105 107.603, 104.331 111.320, 103.514 115.592 C 102.696 119.865, 102.134 123.425, 102.264 123.504 C 102.394 123.583, 104.956 124.558, 107.958 125.669 L 113.416 127.690 134.708 120.609 C 146.419 116.715, 156 113.272, 156 112.958 C 156 112.644, 145.762 111.380, 133.250 110.150 C 120.737 108.920, 109.263 107.672, 107.750 107.377 C 106.237 107.082, 105 107.062, 105 107.333 M 96.065 125.579 C 97.386 127.170, 99 127.465, 99 126.117 C 99 125.631, 98.074 124.991, 96.943 124.695 C 95.255 124.254, 95.097 124.412, 96.065 125.579 M 98.729 142.215 C 97.831 147.283, 97.187 151.514, 97.298 151.616 C 97.517 151.819, 122.305 142.012, 122.799 141.528 C 122.964 141.367, 121.122 141.457, 118.705 141.730 C 114.699 142.181, 113.759 141.818, 108.046 137.613 C 104.600 135.076, 101.461 133, 101.071 133 C 100.682 133, 99.628 137.147, 98.729 142.215" stroke="none" fill="black" fill-rule="evenodd"/>
</svg>