<svg xmlns="http://www.w3.org/2000/svg" width="200" height="200" viewBox="0 0 200 200" version="1.1">
	<path d="M 128.393 28.997 C 116.085 39.243, 117.490 39.263, 111.677 28.762 C 109.929 25.606, 108.240 23.018, 107.922 23.012 C 107.604 23.005, 104.974 30.266, 102.076 39.146 C 97.706 52.538, 96.284 55.735, 93.737 57.896 C 87.039 63.578, 87.815 63.443, 75.743 61.038 C 64.779 58.853, 52.836 53.707, 54.683 51.962 C 55.132 51.538, 65.063 47.028, 76.750 41.941 C 90.186 36.092, 98 32.166, 98 31.262 C 98 30.476, 97.591 29.983, 97.091 30.167 C 92.127 31.987, 48.007 51.619, 48.028 51.998 C 48.043 52.274, 51.756 54.584, 56.278 57.131 C 62.856 60.835, 66.472 62.126, 74.363 63.585 L 84.226 65.409 81.154 68.154 C 79.465 69.663, 75.927 71.544, 73.291 72.333 C 70.656 73.123, 57.729 78.088, 44.565 83.366 C 31.401 88.645, 20.477 92.811, 20.290 92.623 C 20.102 92.436, 23.395 84.785, 27.608 75.622 L 35.267 58.962 30.793 51.731 C 28.332 47.754, 24.678 41.944, 22.673 38.820 L 19.028 33.140 24.264 32.599 C 27.144 32.301, 36.475 31.788, 45 31.458 C 58.332 30.943, 100.620 25.697, 101.933 24.396 C 102.172 24.160, 101.947 23.551, 101.433 23.043 C 100.862 22.477, 93.188 23.236, 81.633 25.001 C 68.911 26.945, 54.906 28.263, 38.633 29.048 C 25.360 29.688, 14.426 30.277, 14.335 30.356 C 14.244 30.435, 18.237 36.926, 23.207 44.780 L 32.244 59.061 23.476 78.051 C 18.654 88.496, 14.924 97.258, 15.188 97.521 C 15.452 97.785, 20.130 96.170, 25.584 93.933 L 35.500 89.866 42.815 92.130 L 50.130 94.393 47.815 96.185 C 46.542 97.171, 39.313 102.322, 31.750 107.631 C 24.188 112.941, 18 117.607, 18 118 C 18 118.583, 35.475 133.583, 40.796 137.567 C 41.975 138.451, 40.290 142.376, 31.025 160.317 C 24.868 172.243, 20.265 182, 20.798 182 C 21.331 182, 33.722 177.106, 48.334 171.123 L 74.902 160.247 84.501 151.873 L 94.099 143.500 84.160 134 L 74.220 124.500 83.156 116.096 C 88.070 111.473, 91.733 107.342, 91.296 106.914 C 90.387 106.027, 70.247 98.190, 62 95.515 C 55.321 93.348, 55.247 93.289, 57.242 91.740 C 58.120 91.058, 62.077 87.819, 66.035 84.542 L 73.231 78.584 76.365 82.066 C 78.089 83.982, 81.820 88.115, 84.656 91.252 L 89.812 96.956 101.006 94.911 C 107.163 93.787, 112.442 93.108, 112.737 93.404 C 113.033 93.700, 115.395 104.510, 117.985 117.427 L 122.696 140.912 102.348 160.538 C 84.977 177.292, 79.936 183, 82.512 183 C 82.794 183, 89.791 179.611, 98.061 175.469 L 113.098 167.939 131.042 170.198 L 148.987 172.456 167.244 170.138 C 177.285 168.862, 185.633 167.689, 185.795 167.531 C 185.958 167.372, 177.716 159.938, 167.481 151.010 C 157.246 142.082, 149.075 134.265, 149.324 133.639 C 149.573 133.013, 153.494 123.275, 158.037 112 C 165.713 92.949, 184.009 42.840, 183.512 42.229 C 183.391 42.081, 172.992 45.534, 160.403 49.903 C 147.814 54.273, 137.362 57.696, 137.176 57.510 C 136.990 57.324, 137.552 48.961, 138.425 38.925 C 139.298 28.889, 139.845 20.512, 139.642 20.309 C 139.439 20.106, 134.377 24.016, 128.393 28.997 M 127.641 33.112 C 122.888 37.052, 119.001 40.551, 119.003 40.888 C 119.004 41.225, 120.477 43.975, 122.275 47 C 127.930 56.512, 144.142 88.961, 143.643 89.768 C 143.381 90.192, 137.680 92.983, 130.975 95.970 C 124.270 98.956, 118.603 101.873, 118.383 102.450 C 118.163 103.028, 119.721 112.050, 121.844 122.500 L 125.706 141.500 108.103 158.771 L 90.500 176.042 101.683 170.546 L 112.866 165.050 130.932 167.437 L 148.999 169.824 163.249 167.917 C 171.087 166.868, 178.089 165.896, 178.809 165.755 C 179.530 165.615, 172.442 158.835, 163.059 150.689 C 153.677 142.543, 146 135.559, 146 135.168 C 146 134.778, 150.328 123.668, 155.619 110.479 C 163.957 89.691, 179 48.825, 179 46.960 C 179 46.609, 168.988 49.801, 156.750 54.053 C 138.067 60.544, 134.456 61.520, 134.226 60.142 C 134.075 59.239, 134.587 51.300, 135.363 42.500 C 136.138 33.700, 136.663 26.376, 136.527 26.224 C 136.392 26.072, 132.393 29.172, 127.641 33.112 M 104.711 39.561 C 102.801 45.578, 101.383 50.661, 101.561 50.858 C 101.929 51.267, 114.842 40.764, 114.910 40 C 114.935 39.725, 113.431 37.053, 111.569 34.061 L 108.183 28.622 104.711 39.561 M 107.360 49.997 C 102.557 54.087, 98.793 58.155, 98.177 59.923 L 97.132 62.919 101.816 61.064 C 104.392 60.044, 109.650 57.970, 113.500 56.456 C 117.350 54.941, 120.883 53.364, 121.350 52.951 C 122.207 52.194, 117.376 42.972, 116.155 43.033 C 115.795 43.051, 111.837 46.184, 107.360 49.997 M 110.500 60.530 C 104.450 62.973, 98.375 65.503, 97 66.152 C 95.625 66.801, 94.050 67.432, 93.500 67.554 C 89.814 68.375, 78.886 73.469, 77.481 75.021 C 75.501 77.209, 75.511 77.226, 85.087 87.807 L 90.674 93.981 101.941 91.923 C 108.137 90.791, 113.789 90.089, 114.500 90.362 C 115.211 90.634, 116.111 93.169, 116.499 95.993 C 116.887 98.817, 117.383 100.950, 117.600 100.733 C 117.817 100.516, 118.890 91.825, 119.985 81.419 C 121.079 71.014, 122.177 61.038, 122.425 59.250 C 122.672 57.462, 122.565 56.020, 122.187 56.044 C 121.809 56.068, 116.550 58.087, 110.500 60.530 M 124.984 60 C 124.971 60.825, 124.111 69.375, 123.072 79 C 122.034 88.625, 121.305 96.625, 121.453 96.778 C 121.601 96.931, 126.031 95.178, 131.297 92.884 L 140.871 88.712 134.961 76.921 C 127.941 62.918, 125.016 57.957, 124.984 60 M 92.441 62.468 C 90.794 63.714, 90.748 63.941, 92.143 63.968 C 93.047 63.986, 94.045 63.325, 94.362 62.500 C 95.077 60.637, 94.867 60.633, 92.441 62.468 M 54.657 82.811 L 40.814 88.432 45.657 90.139 C 48.321 91.077, 51.022 91.880, 51.659 91.922 C 52.647 91.989, 64.396 82.815, 68.964 78.412 C 71.207 76.250, 69.595 76.745, 54.657 82.811 M 45.410 101.211 C 41.510 104.120, 34.662 108.975, 30.193 112 C 25.723 115.025, 22.051 117.746, 22.033 118.047 C 22.015 118.348, 27.169 122.848, 33.486 128.047 C 39.803 133.246, 44.978 137.907, 44.986 138.405 C 44.994 138.903, 40.687 147.602, 35.416 157.738 C 30.145 167.873, 26.021 176.354, 26.251 176.584 C 26.481 176.814, 37.206 172.703, 50.085 167.447 C 72.856 158.154, 73.727 157.693, 81.768 150.696 L 90.036 143.500 80.156 134.140 L 70.276 124.780 78.670 116.722 C 83.286 112.290, 86.712 108.315, 86.282 107.890 C 85.054 106.674, 59.896 97.255, 56 96.552 C 52.881 95.990, 51.728 96.497, 45.410 101.211" stroke="none" fill="black" fill-rule="evenodd"/>
</svg>