<svg xmlns="http://www.w3.org/2000/svg" width="200" height="200" viewBox="0 0 200 200" version="1.1">
	<path d="M 38.237 23.705 C 34.411 30.192, 28.574 40.225, 25.267 46 L 19.254 56.500 20.305 93.297 L 21.357 130.094 18.070 159.139 C 15.911 178.216, 15.121 188.521, 15.769 189.169 C 16.915 190.315, 20.041 184.694, 38.527 148.250 C 45.571 134.363, 51.465 123.131, 51.624 123.291 C 51.784 123.450, 50.209 133.013, 48.125 144.540 L 44.337 165.500 60.826 173.835 L 77.315 182.169 99.407 160.315 C 121.945 138.020, 130.696 129.717, 129.779 131.500 C 129.496 132.050, 124.220 141.652, 118.054 152.839 C 111.888 164.025, 107.038 173.371, 107.275 173.608 C 108.221 174.554, 140.815 154.430, 145.324 150.116 L 150.148 145.500 149.583 149 C 146.197 169.982, 143.895 190.295, 144.800 191.200 C 145.529 191.929, 147.920 189.412, 152.673 182.912 C 180.236 145.222, 195.961 123.400, 195.979 122.817 C 196.008 121.863, 195.502 121.742, 167 115.933 C 152.975 113.074, 141.162 110.434, 140.748 110.066 C 140.334 109.697, 148.302 103.569, 158.455 96.448 C 173.422 85.949, 176.921 83.052, 176.957 81.132 C 176.997 78.931, 170.740 27.223, 169.398 18.668 L 168.796 14.835 166.275 18.546 L 163.754 22.256 146.127 21.503 C 136.432 21.089, 112.452 20.790, 92.838 20.838 C 60.109 20.919, 56.984 20.780, 54.838 19.147 C 53.552 18.168, 50.856 16.139, 48.847 14.639 L 45.195 11.911 38.237 23.705 M 45.238 17.294 C 44.724 17.958, 39.285 27.098, 33.152 37.606 L 22 56.712 23.142 92.693 L 24.284 128.674 21.544 152.794 C 20.037 166.060, 18.987 177.461, 19.210 178.130 C 19.433 178.799, 27.240 164.365, 36.558 146.055 C 51.477 116.740, 55.061 110.618, 56.424 112.126 C 56.609 112.332, 54.795 123.300, 52.392 136.500 C 49.990 149.700, 48.019 161.414, 48.012 162.531 C 48.003 164.069, 49.852 165.478, 55.639 168.341 C 59.841 170.420, 63.598 171.757, 63.988 171.311 C 64.377 170.865, 72.051 159.566, 81.041 146.202 L 97.385 121.905 91.389 115.909 L 85.393 109.913 81.575 115.456 C 79.475 118.505, 77.520 121, 77.231 121 C 76.942 121, 76.957 116.788, 77.265 111.641 L 77.823 102.282 69.142 93.641 C 64.367 88.888, 60.183 85, 59.843 85 C 59.503 85, 57.091 91.075, 54.482 98.500 C 51.513 106.950, 49.226 112, 48.369 112 C 47.616 112, 46.994 110.987, 46.988 109.750 C 46.981 108.513, 46.311 100.075, 45.500 91 C 44.689 81.925, 44.019 72.487, 44.012 70.027 L 44 65.554 50.956 72.457 L 57.913 79.360 59.068 76.430 C 59.704 74.818, 61.460 69.900, 62.971 65.500 C 65.980 56.734, 65.412 57.084, 74.622 58.338 L 79.743 59.035 80.372 55.892 C 80.717 54.164, 81 50.345, 81 47.407 C 81 42.114, 80.949 42.026, 75.708 38.154 C 71.468 35.021, 69.209 34.105, 64.336 33.539 L 58.254 32.833 57.146 40.667 C 56.536 44.975, 55.520 52.663, 54.888 57.750 C 53.601 68.105, 51.842 69.887, 49.952 62.750 C 49.332 60.413, 47.065 52.089, 44.913 44.253 C 42.761 36.418, 41 29.718, 41 29.365 C 41 29.013, 44.375 29.030, 48.500 29.404 L 56 30.083 56 26.755 C 56 23.933, 55.252 22.869, 51.086 19.758 C 47.445 17.040, 45.929 16.402, 45.238 17.294 M 62 24.378 C 62 24.586, 64.362 26.359, 67.250 28.318 C 72.148 31.640, 73.188 31.925, 82.750 32.568 L 93 33.258 93.014 30.879 C 93.021 29.570, 93.299 27.488, 93.630 26.250 L 94.233 24 78.117 24 C 69.252 24, 62 24.170, 62 24.378 M 96.667 24.667 C 96.300 25.033, 96 27.283, 96 29.667 C 96 33.482, 96.269 34.005, 98.250 34.039 C 104.274 34.143, 149.796 38.756, 150.777 39.362 C 151.460 39.784, 153.851 37.167, 156.876 32.684 L 161.850 25.312 142.264 24.656 C 117.114 23.814, 97.515 23.818, 96.667 24.667 M 153.463 42.822 L 140.762 61.880 143.381 66.566 C 144.821 69.143, 146 71.464, 146 71.724 C 146 71.984, 143.412 71.921, 140.250 71.585 L 134.500 70.973 131.760 74.987 C 130.252 77.194, 129.352 78.996, 129.760 78.991 C 130.167 78.986, 135.331 78.155, 141.236 77.144 C 157.245 74.403, 157.131 75.301, 140.052 86.429 C 132.930 91.069, 124.624 95.647, 121.593 96.602 C 116.185 98.307, 115.941 98.552, 108.448 109.802 L 100.814 121.265 108.126 128.627 C 114.454 134.998, 115.241 136.172, 113.970 137.346 C 113.161 138.092, 102.262 146.441, 89.750 155.899 C 77.237 165.357, 67 173.291, 67 173.531 C 67 173.770, 69.318 175.141, 72.151 176.576 L 77.301 179.186 107.021 149.479 C 125.052 131.456, 137.014 120.214, 137.437 120.897 C 137.819 121.517, 132.668 131.958, 125.989 144.101 C 119.311 156.244, 114 166.333, 114.187 166.521 C 114.375 166.708, 120.597 163.289, 128.014 158.922 C 138.113 152.977, 142.937 149.428, 147.221 144.795 C 150.367 141.392, 153.125 138.809, 153.349 139.054 C 153.573 139.299, 152.291 149.625, 150.500 162 C 148.709 174.375, 147.366 184.640, 147.517 184.812 C 147.667 184.983, 157.702 171.483, 169.817 154.812 C 187.823 130.034, 191.539 124.370, 190.172 123.787 C 189.252 123.394, 176.125 120.527, 161 117.415 C 145.875 114.303, 133.366 111.641, 133.203 111.498 C 133.039 111.356, 141.978 104.788, 153.067 96.902 C 164.156 89.017, 173.471 81.936, 173.766 81.166 C 174.448 79.391, 167.971 25.800, 166.934 24.632 C 166.510 24.154, 160.448 32.340, 153.463 42.822 M 59 27.858 C 59 29.788, 60.814 31, 63.704 31 C 64.984 31, 65.027 30.737, 63.955 29.445 C 63.245 28.590, 61.840 27.450, 60.832 26.910 C 59.350 26.117, 59 26.298, 59 27.858 M 45.012 33.250 C 45.018 33.938, 46.525 39.900, 48.361 46.500 C 52.077 59.864, 51.941 59.943, 54.105 43.155 C 55.473 32.549, 55.229 32.042, 48.750 32.015 C 46.402 32.006, 45.004 32.467, 45.012 33.250 M 80.343 38.177 L 84.187 41.534 83.475 50.636 L 82.763 59.738 86.131 60.251 C 87.984 60.532, 89.570 60.704, 89.657 60.631 C 90.120 60.242, 92.242 36.908, 91.849 36.516 C 91.593 36.259, 88.034 35.773, 83.941 35.435 L 76.500 34.820 80.343 38.177 M 93.823 48.478 C 92.603 59.162, 92.620 60.567, 93.975 61.104 C 97.199 62.382, 131.810 67.287, 133.372 66.688 C 134.277 66.340, 135.522 64.949, 136.138 63.596 C 137.125 61.431, 136.602 59.964, 131.763 51.318 L 126.268 41.500 128.884 40.868 C 130.323 40.521, 131.275 40.139, 131 40.020 C 130.725 39.901, 122.557 39.050, 112.848 38.130 L 95.196 36.457 93.823 48.478 M 135.750 42.735 C 133.137 42.941, 131 43.367, 131 43.682 C 131 43.996, 132.850 47.605, 135.111 51.702 L 139.223 59.150 144.611 51.101 C 147.575 46.674, 150 42.815, 150 42.526 C 150 41.986, 144.159 42.072, 135.750 42.735 M 67.526 60.957 C 66.378 62.816, 61 79.301, 61.008 80.938 C 61.012 81.797, 64.785 85.971, 69.393 90.213 L 77.770 97.926 78.363 89.713 C 78.690 85.196, 79.241 77.159, 79.590 71.854 L 80.222 62.208 77.111 61.604 C 75.400 61.272, 72.693 60.749, 71.095 60.441 C 69.488 60.132, 67.894 60.363, 67.526 60.957 M 82.650 67.250 C 82.333 69.588, 81.771 78.147, 81.401 86.271 C 80.787 99.772, 80.887 101.218, 82.571 103.078 C 84.713 105.445, 84.324 105.509, 102.174 99.852 L 114.849 95.836 118.878 89.705 C 121.094 86.333, 122.764 83.431, 122.590 83.256 C 122.415 83.082, 115.216 84.078, 106.592 85.469 C 88.135 88.448, 90 88.314, 90 86.663 C 90 85.705, 94.973 84.536, 107.588 82.528 L 125.177 79.730 128.517 75.127 C 130.354 72.595, 131.765 70.431, 131.651 70.318 C 131.464 70.130, 93.490 64, 92.516 64 C 92.287 64, 91.792 66.717, 91.416 70.039 C 90.490 78.221, 88.377 77.493, 88.846 69.153 L 89.191 63 86.209 63 C 83.458 63, 83.182 63.329, 82.650 67.250 M 137.670 66.417 C 137.371 67.197, 137.837 68.107, 138.706 68.441 C 140.724 69.215, 141.208 68.706, 140.417 66.643 C 139.642 64.624, 138.397 64.522, 137.670 66.417 M 47.498 82.090 C 47.902 87.266, 48.533 94.425, 48.899 98 L 49.565 104.500 53.283 93.498 C 55.327 87.447, 57 82.230, 57 81.905 C 57 81.579, 54.697 79.371, 51.881 76.997 L 46.762 72.681 47.498 82.090 M 140.500 79.987 C 138.300 80.409, 134.360 81.062, 131.745 81.439 C 127.323 82.076, 126.708 82.540, 122.958 88.062 C 118.752 94.256, 118.937 94.896, 124.282 92.644 C 128.010 91.073, 146.992 78.975, 145.500 79.121 C 144.950 79.175, 142.700 79.564, 140.500 79.987 M 98.207 103.848 L 86.913 107.500 92.931 113.443 C 96.240 116.711, 99.118 119.186, 99.326 118.943 C 102.419 115.328, 111.715 100.026, 110.776 100.098 C 110.074 100.152, 104.418 101.840, 98.207 103.848 M 80.032 108.628 C 80.062 112.249, 80.159 112.374, 81.532 110.559 C 83.371 108.128, 83.367 107.549, 81.500 106 C 80.210 104.929, 80.004 105.297, 80.032 108.628 M 84.915 145.127 C 74.270 161.068, 71.465 165.884, 73.669 164.433 C 81.635 159.189, 111.876 135.608, 111.472 134.954 C 111.217 134.543, 108.329 131.884, 105.054 129.047 L 99.098 123.887 84.915 145.127" stroke="none" fill="black" fill-rule="evenodd"/>
</svg>