<svg xmlns="http://www.w3.org/2000/svg" width="200" height="200" viewBox="0 0 200 200" version="1.1">
	<path d="M 121.438 24.465 C 114.872 33.534, 109.119 40.964, 108.652 40.977 C 108.186 40.990, 99.493 36.005, 89.335 29.901 C 79.177 23.796, 70.696 18.971, 70.489 19.177 C 70.283 19.384, 71.923 22.691, 74.134 26.527 C 76.345 30.362, 79.299 35.525, 80.699 38 L 83.244 42.500 80.727 40 C 79.343 38.625, 73.837 32.775, 68.492 27 C 63.148 21.225, 58.431 16.369, 58.012 16.208 C 57.593 16.048, 50.811 22.974, 42.941 31.599 L 28.633 47.282 33.332 46.578 L 38.030 45.873 52.765 59.509 L 67.500 73.146 75.569 64.573 C 80.008 59.858, 83.920 56, 84.264 56 C 84.608 56, 85.026 61.840, 85.194 68.977 L 85.500 81.955 83 82.429 C 81.625 82.689, 71.050 83.631, 59.500 84.521 C 47.950 85.411, 37.487 86.342, 36.250 86.589 C 32.448 87.348, 33.758 89, 38.161 89 C 41.939 89, 77.699 93.171, 85.908 94.569 L 89.316 95.150 78.433 106.067 L 67.550 116.984 53.775 121.575 C 40.676 125.941, 39.999 126.297, 39.989 128.833 C 39.965 134.774, 42.158 180.653, 42.563 182.672 C 42.984 184.770, 43.505 184.634, 57.750 178.715 L 72.500 172.586 97.092 172.231 L 121.684 171.876 137.875 178.571 C 146.780 182.254, 154.303 185.031, 154.591 184.742 C 154.880 184.453, 156.956 172.430, 159.205 158.023 L 163.294 131.829 153.012 121.512 L 142.731 111.196 133.842 109.469 C 124.891 107.731, 124.021 107.196, 120.689 101.386 C 119.510 99.331, 145.128 90.321, 164.467 85.990 C 181.750 82.120, 185.294 80.918, 183.216 79.634 C 182.689 79.308, 173.690 79.782, 163.217 80.688 L 144.177 82.335 128.839 76.457 C 113.901 70.732, 113.225 70.345, 103 61.639 C 88.900 49.635, 89.193 50.167, 93.825 44.947 L 97.612 40.680 108.556 54.053 C 114.575 61.409, 120.205 68.291, 121.068 69.347 C 122.580 71.200, 123.257 70.877, 140.068 60.302 C 149.655 54.270, 163.012 46.052, 169.750 42.039 C 186.944 31.798, 186.673 31.420, 164.059 34.114 C 155.043 35.188, 147.325 35.714, 146.908 35.283 C 146.491 34.852, 143.596 28.875, 140.475 22 C 137.354 15.125, 134.480 9.157, 134.088 8.738 C 133.697 8.319, 128.004 15.396, 121.438 24.465 M 121.517 28.934 C 115.085 37.770, 109.629 45, 109.391 45 C 109.154 45, 107.057 43.801, 104.730 42.336 C 102.404 40.870, 100.995 40.308, 101.599 41.086 C 107.736 48.982, 122.456 66.575, 123.148 66.839 C 123.635 67.026, 130.439 63.134, 138.267 58.191 C 146.095 53.247, 157.450 46.233, 163.500 42.603 C 169.654 38.911, 173.606 36.002, 172.470 36.002 C 171.354 36.001, 164.880 36.688, 158.083 37.530 C 151.287 38.371, 145.578 38.911, 145.397 38.730 C 145.216 38.549, 142.400 32.656, 139.139 25.634 L 133.212 12.868 121.517 28.934 M 47.095 31.091 L 36.927 42.260 39.213 43.818 C 40.471 44.675, 47.322 50.781, 54.437 57.387 L 67.375 69.399 75.687 60.507 C 80.589 55.263, 83.993 50.770, 83.983 49.557 C 83.968 47.748, 60.382 21.027, 58.080 20.211 C 57.631 20.051, 52.688 24.947, 47.095 31.091 M 78.646 29.026 C 79.792 30.937, 82.413 35.425, 84.468 39 C 86.523 42.575, 88.403 45.707, 88.645 45.959 C 88.887 46.212, 90.807 44.419, 92.913 41.974 L 96.740 37.530 91.620 34.450 C 88.804 32.756, 84.264 30.061, 81.530 28.461 L 76.560 25.552 78.646 29.026 M 87.843 70.851 L 88.185 84.703 82.843 85.310 C 79.904 85.643, 72.800 86.230, 67.056 86.614 C 61.066 87.015, 57.442 87.612, 58.556 88.014 C 59.625 88.400, 67.700 89.517, 76.500 90.495 C 85.300 91.474, 93.092 92.584, 93.816 92.964 C 94.712 93.433, 90.777 97.859, 81.499 106.819 L 67.867 119.984 56.183 123.620 C 49.758 125.620, 44.088 127.634, 43.584 128.094 C 42.803 128.808, 44.549 179.882, 45.383 180.717 C 45.530 180.863, 51.626 178.512, 58.930 175.492 C 70.924 170.532, 72.951 169.993, 79.855 169.930 C 91.745 169.820, 92.186 169.256, 84.685 163.749 C 77.332 158.350, 75.491 156.433, 76.852 155.592 C 77.373 155.269, 81.002 157.479, 84.915 160.503 C 88.828 163.526, 92.586 165.989, 93.265 165.975 C 94.867 165.943, 129.921 155.412, 130.563 154.770 C 130.832 154.501, 130.928 147.300, 130.776 138.767 L 130.500 123.253 112.500 137.541 C 100.629 146.964, 94.159 151.495, 93.500 150.847 C 92.836 150.195, 93.023 149.468, 94.056 148.683 C 103.312 141.648, 127.999 121.602, 127.996 121.123 C 127.994 120.780, 126.509 118.025, 124.696 115 L 121.400 109.500 111.700 107.538 C 106.365 106.459, 102 105.276, 102 104.910 C 102 104.544, 104.710 103.231, 108.021 101.992 C 111.333 100.754, 114.282 99.353, 114.574 98.881 C 115.014 98.168, 88.686 57.001, 87.789 56.999 C 87.630 56.999, 87.654 63.232, 87.843 70.851 M 98.802 64.250 C 99.882 66.037, 104.697 74.390, 109.500 82.812 C 114.386 91.379, 118.733 97.925, 119.367 97.672 C 134.557 91.613, 147.862 86.850, 153 85.632 L 159.500 84.091 151.719 84.634 C 144.031 85.170, 143.743 85.102, 127.719 78.941 C 113.148 73.339, 110.826 72.110, 104.866 66.853 C 101.218 63.634, 97.918 61, 97.535 61 C 97.151 61, 97.721 62.462, 98.802 64.250 M 112.526 103.358 C 110.816 104.608, 110.967 104.771, 114.437 105.422 C 118.715 106.225, 119.306 105.961, 118.417 103.643 C 117.651 101.647, 115.038 101.521, 112.526 103.358 M 130.473 116.237 L 134 121.473 134 139.199 L 134 156.924 126.250 159.290 C 121.987 160.591, 113.122 163.195, 106.549 165.078 L 94.597 168.500 109.049 169 L 123.500 169.500 138.250 175.651 C 146.363 179.035, 152.993 181.510, 152.984 181.151 C 152.975 180.793, 154.624 169.783, 156.648 156.684 L 160.328 132.867 150.970 123.470 C 141.929 114.391, 141.382 114.020, 134.858 112.536 C 131.144 111.691, 127.845 111, 127.526 111 C 127.207 111, 128.534 113.356, 130.473 116.237" stroke="none" fill="black" fill-rule="evenodd"/>
</svg>