<svg xmlns="http://www.w3.org/2000/svg" width="200" height="200" viewBox="0 0 200 200" version="1.1">
	<path d="M 76.023 10.250 C 76.036 10.938, 78.892 20.275, 82.370 31 L 88.695 50.500 85.732 51.428 C 83.493 52.129, 80.046 51.698, 71.634 49.668 C 65.510 48.190, 54.706 46.103, 47.624 45.031 C 40.542 43.958, 34.559 42.893, 34.330 42.663 C 34.100 42.433, 38.657 41.922, 44.456 41.526 L 55 40.808 56.456 35.654 C 61.792 16.758, 62.676 12.918, 61.815 12.386 C 60.348 11.479, 60.160 11.931, 56.610 24.890 C 54.776 31.582, 53.053 37.280, 52.780 37.553 C 52.508 37.826, 46.933 38.496, 40.392 39.043 C 22.840 40.510, 20 40.975, 20 42.384 C 20 43.254, 25.671 44.495, 38.250 46.377 C 48.288 47.880, 62.104 50.448, 68.953 52.085 C 77.753 54.188, 82.629 54.878, 85.573 54.437 C 89.581 53.836, 89.782 53.935, 90.869 57.055 C 92.411 61.478, 92.331 61.782, 89.750 61.319 C 88.513 61.097, 83.844 61.990, 79.376 63.304 L 71.253 65.694 60.670 61.970 C 54.850 59.922, 49.843 58.491, 49.544 58.790 C 48.209 60.124, 49.499 60.950, 57 63.561 C 61.400 65.093, 65 66.663, 65 67.050 C 65 67.438, 61.848 68.572, 57.995 69.571 C 54.142 70.571, 50.623 71.638, 50.174 71.944 C 49.726 72.250, 44.553 81.800, 38.679 93.167 C 28.303 113.247, 28 114.020, 28 120.372 L 28 126.909 31.750 127.568 C 39.108 128.860, 48.119 130.785, 48.465 131.140 C 48.659 131.338, 47.957 142.973, 46.907 156.995 C 45.856 171.017, 45.110 182.747, 45.248 183.062 C 45.387 183.377, 52.387 181.442, 60.805 178.761 L 76.110 173.886 75.403 134.144 L 74.696 94.402 77.491 82.042 C 80.160 70.235, 80.204 69.623, 78.489 68.368 C 77.070 67.331, 76.988 66.963, 78.097 66.616 C 78.868 66.374, 81.030 65.687, 82.899 65.088 C 84.769 64.490, 87.769 64, 89.567 64 C 92.811 64, 92.859 64.072, 96.064 73.693 L 99.293 83.386 99.081 128.474 L 98.869 173.562 120.322 179.167 L 141.776 184.772 164.425 179.289 C 183.565 174.656, 187.001 173.551, 186.603 172.153 C 186.344 171.244, 184.229 161.387, 181.902 150.250 C 179.576 139.113, 177.409 130.031, 177.086 130.068 C 176.764 130.105, 170.875 136.621, 164 144.548 C 157.125 152.475, 151.275 158.964, 151 158.968 C 150.612 158.974, 121.477 136.806, 120.204 135.537 C 120.042 135.375, 125.217 131.061, 131.704 125.950 C 151.490 110.364, 183.991 83.658, 183.623 83.289 C 183.431 83.098, 174.258 83.711, 163.238 84.652 L 143.200 86.363 135.100 93.767 C 125.734 102.329, 126.347 103.377, 128.509 82.500 C 129.306 74.800, 129.968 67.527, 129.979 66.338 C 130.005 63.692, 128.099 63.340, 108.754 62.416 L 95.008 61.759 93.822 57.801 C 92.344 52.866, 92.341 52.868, 104.359 50.604 L 113.682 48.848 123.091 52.494 C 128.266 54.500, 133.175 56.194, 134 56.260 C 135.585 56.387, 172.978 42.326, 174.234 41.130 C 174.638 40.746, 172.995 37.490, 170.584 33.895 L 166.199 27.359 153.349 26.233 C 140.677 25.123, 140.360 25.034, 130.287 19.804 L 120.074 14.500 107.170 27.353 L 94.266 40.206 86.086 24.603 C 78.711 10.536, 75.956 6.606, 76.023 10.250 M 106.248 31.733 L 93.259 45.466 89.077 37.483 C 86.777 33.092, 85.078 30.175, 85.301 31 C 86.168 34.206, 91.291 49.522, 91.626 49.906 C 91.820 50.130, 96.821 49.300, 102.740 48.063 L 113.500 45.814 123.898 49.855 L 134.297 53.897 151.398 47.353 C 160.804 43.753, 169.058 40.498, 169.739 40.120 C 170.649 39.615, 170.279 38.378, 168.349 35.466 C 166.903 33.285, 165.445 31.195, 165.110 30.822 C 164.774 30.448, 158.875 29.617, 152 28.973 C 139.895 27.840, 139.212 27.648, 130.376 22.902 C 125.358 20.206, 120.799 18, 120.245 18 C 119.691 18, 113.392 24.180, 106.248 31.733 M 99.093 73.611 L 102.153 82.500 101.826 126.957 L 101.500 171.414 121.500 176.685 L 141.500 181.956 162.565 176.838 L 183.630 171.719 180.309 155.609 C 178.482 146.749, 176.639 138.671, 176.213 137.659 C 175.569 136.125, 173.462 138.045, 163.600 149.159 C 157.089 156.496, 151.407 162.402, 150.974 162.281 C 149.935 161.992, 116 135.965, 116 135.457 C 116 135.241, 128.442 125.037, 143.649 112.782 C 158.855 100.527, 172.468 89.510, 173.899 88.300 L 176.500 86.100 173 86.554 C 169.122 87.057, 147.191 88.991, 145.305 88.997 C 144.648 88.998, 139.523 93.288, 133.917 98.529 C 128.311 103.770, 123.632 107.932, 123.520 107.779 C 123.407 107.625, 124.201 98.369, 125.283 87.209 C 126.366 76.049, 127.082 66.750, 126.876 66.544 C 126.669 66.339, 119.645 65.845, 111.266 65.446 L 96.033 64.722 99.093 73.611 M 60.778 71.475 C 56.532 72.780, 52.631 74.110, 52.110 74.432 C 51.589 74.754, 46.627 83.779, 41.082 94.489 C 31.977 112.073, 31 114.481, 31 119.327 L 31 124.694 41.006 126.452 C 46.509 127.419, 51.173 128.500, 51.370 128.855 C 51.567 129.210, 50.895 140.525, 49.876 154 C 48.858 167.475, 48.132 178.797, 48.263 179.159 C 48.393 179.522, 54.125 177.947, 61 175.659 C 71.208 172.263, 73.472 171.162, 73.346 169.657 C 73.261 168.644, 72.863 151.316, 72.463 131.150 L 71.734 94.485 74.478 82.687 C 75.987 76.198, 76.984 70.651, 76.693 70.360 C 75.163 68.830, 67.685 69.354, 60.778 71.475" stroke="none" fill="black" fill-rule="evenodd"/>
</svg>