<svg xmlns="http://www.w3.org/2000/svg" width="200" height="200" viewBox="0 0 200 200" version="1.1">
	<path d="M 59.418 19.572 L 58.500 25.228 36.757 32.821 C 24.798 36.997, 15.348 40.713, 15.757 41.079 C 16.166 41.444, 25.971 43.553, 37.546 45.766 C 58.360 49.744, 58.684 49.774, 67.009 48.441 C 71.638 47.699, 75.583 47.249, 75.774 47.441 C 76.656 48.323, 71.737 61.840, 70.671 61.464 C 66.869 60.125, 42.725 53.942, 42.434 54.233 C 42.240 54.426, 40.894 65.742, 39.442 79.379 L 36.802 104.174 46.338 118.486 L 55.873 132.798 63.186 133.967 C 67.209 134.611, 73.650 135.672, 77.500 136.326 L 84.500 137.516 63.500 142.196 C 51.950 144.770, 41.038 147.165, 39.250 147.518 C 37.334 147.896, 36 148.767, 36 149.641 C 36 150.816, 36.879 150.993, 40.250 150.494 C 43.339 150.037, 49.690 150.986, 63.500 153.968 C 73.950 156.225, 83.245 158.297, 84.156 158.573 C 85.067 158.849, 89.746 164.571, 94.552 171.288 C 99.359 178.004, 103.623 183.874, 104.028 184.332 C 104.433 184.789, 110.245 177.252, 116.943 167.582 L 129.123 150 156.061 150 C 178.515 150, 183 149.766, 183 148.597 C 183 146.525, 152.649 139.491, 135 137.472 C 127.025 136.559, 120.382 135.699, 120.238 135.561 C 120.094 135.423, 125.459 134.576, 132.162 133.681 C 138.864 132.785, 144.683 131.703, 145.093 131.276 C 145.503 130.849, 149.728 121.654, 154.482 110.842 L 163.126 91.183 160.313 72.842 L 157.500 54.500 152.145 51.890 L 146.790 49.280 154.645 46.467 C 158.965 44.920, 163.470 43.309, 164.656 42.888 C 166.347 42.286, 167.167 40.563, 168.455 34.899 C 169.562 30.031, 169.758 27.469, 169.057 27.035 C 168.486 26.682, 161.503 24.886, 153.540 23.044 L 139.063 19.694 125.765 22.463 L 112.468 25.232 98.581 23.120 C 89.279 21.706, 84.300 21.336, 83.501 22 C 82.455 22.867, 76.570 20.836, 61.418 14.376 C 60.769 14.100, 59.969 16.177, 59.418 19.572 M 62 22.364 C 62 27.364, 63.983 26.246, 40.500 34.478 C 33.350 36.985, 26.825 39.310, 26 39.646 C 25.175 39.981, 32.150 41.774, 41.500 43.629 C 58.214 46.945, 58.649 46.979, 67.316 45.635 C 72.164 44.884, 76.478 43.871, 76.901 43.384 C 78.336 41.735, 82.134 26.734, 81.314 25.950 C 80.623 25.289, 63.195 18, 62.306 18 C 62.138 18, 62 19.964, 62 22.364 M 123.520 25.640 L 112.540 28.084 99.564 26.082 C 92.427 24.980, 86.472 24.195, 86.330 24.337 C 86.188 24.478, 98.736 29.801, 114.215 36.165 L 142.357 47.735 152.928 44.227 C 158.743 42.298, 163.641 40.604, 163.813 40.463 C 164.390 39.991, 166.931 29.598, 166.560 29.227 C 165.674 28.341, 140.554 23.010, 137.684 23.098 C 135.933 23.152, 129.559 24.296, 123.520 25.640 M 82.994 33.809 C 81.866 37.489, 80.723 41.217, 80.454 42.094 C 80.036 43.453, 80.621 43.589, 84.413 43.013 C 88.365 42.413, 90.618 43.043, 104.637 48.664 L 120.413 54.990 128.706 52.289 C 133.268 50.803, 137 49.305, 137 48.960 C 137 48.615, 132.387 46.493, 126.750 44.245 C 121.112 41.996, 109.422 37.223, 100.772 33.637 L 85.044 27.117 82.994 33.809 M 83 45.882 C 79.662 46.471, 79.392 46.839, 77.163 53.829 C 75.877 57.861, 74.982 61.315, 75.174 61.507 C 75.365 61.698, 89.917 60.997, 107.511 59.948 C 146.106 57.647, 148 57.615, 148 59.266 C 148 60.133, 141.624 61.606, 127.750 63.944 C 100.338 68.563, 101.145 68.156, 113.955 70.900 C 125.256 73.322, 127.959 75.202, 122.250 76.668 C 120.737 77.057, 107.616 80.328, 93.091 83.937 C 69.166 89.883, 66.602 90.721, 65.838 92.845 L 64.994 95.191 94.747 94.483 C 113.719 94.032, 124.138 94.123, 123.500 94.733 C 122.950 95.260, 117.676 98.970, 111.780 102.978 L 101.060 110.265 80.280 108 C 68.851 106.755, 59.396 105.654, 59.270 105.554 C 59.143 105.455, 60.172 101.802, 61.555 97.437 C 62.938 93.071, 64.340 86.300, 64.669 82.388 L 65.268 75.276 60.384 76.079 C 53.508 77.208, 53 77.174, 53 75.587 C 53 74.610, 54.928 73.916, 59.250 73.337 L 65.500 72.500 66.035 67.853 L 66.569 63.207 55.706 60.227 C 48.343 58.207, 44.728 57.610, 44.489 58.374 C 44.294 58.993, 43.143 69.432, 41.930 81.571 L 39.725 103.642 48.723 117.086 L 57.720 130.529 74.285 132.909 C 91.234 135.344, 94.274 136.170, 92.492 137.854 C 91.946 138.369, 83.175 140.658, 73 142.941 C 62.825 145.225, 53.600 147.368, 52.500 147.704 C 51.284 148.076, 57.256 149.777, 67.740 152.047 C 77.222 154.099, 85.596 156.015, 86.351 156.304 C 87.105 156.594, 91.442 162.075, 95.990 168.486 C 101.572 176.355, 104.588 179.812, 105.271 179.129 C 105.828 178.572, 111.094 171.227, 116.972 162.808 L 127.660 147.500 148.080 147 L 168.500 146.500 158.500 144.217 C 150.964 142.497, 112.244 137, 107.661 137 C 107.298 137, 107 136.385, 107 135.633 C 107 134.616, 111.412 133.700, 124.250 132.050 C 133.738 130.831, 141.950 129.698, 142.500 129.532 C 143.050 129.366, 147.268 120.549, 151.873 109.938 L 160.246 90.646 157.595 73.681 C 156.136 64.351, 154.741 56.389, 154.493 55.988 C 154.245 55.588, 151.358 54.256, 148.077 53.029 L 142.111 50.798 131.288 54.404 L 120.465 58.010 104.241 51.505 C 95.317 47.927, 87.675 45.059, 87.258 45.132 C 86.841 45.204, 84.925 45.542, 83 45.882 M 102 63.045 C 96.225 63.436, 89.250 63.860, 86.500 63.989 L 81.500 64.224 87.500 65.703 C 93.151 67.095, 94.285 67.036, 107 64.685 C 120.919 62.111, 120.047 61.825, 102 63.045 M 69.070 67.750 C 69.133 70.187, 69.238 70.272, 70 68.500 C 71.174 65.769, 71.174 65, 70 65 C 69.450 65, 69.032 66.237, 69.070 67.750 M 73.655 65.818 C 73.447 66.193, 72.966 67.794, 72.587 69.376 C 72.043 71.651, 72.202 72.137, 73.347 71.697 C 74.144 71.391, 78.007 70.825, 81.932 70.438 C 85.857 70.051, 88.934 69.600, 88.770 69.436 C 87.907 68.573, 73.977 65.239, 73.655 65.818 M 83.792 72.871 C 77.353 73.767, 71.682 74.950, 71.190 75.500 C 70.007 76.822, 67.581 85.914, 68.236 86.569 C 68.665 86.998, 99.981 79.540, 113.500 75.789 L 117.500 74.680 110 72.881 C 101.098 70.746, 99.071 70.745, 83.792 72.871 M 63.490 99.905 C 63.157 101.228, 63.374 102.613, 63.972 102.983 C 64.571 103.353, 73.087 104.481, 82.897 105.489 L 100.734 107.324 108.117 102.069 L 115.500 96.815 89.798 97.157 L 64.095 97.500 63.490 99.905" stroke="none" fill="black" fill-rule="evenodd"/>
</svg>