<svg xmlns="http://www.w3.org/2000/svg" width="200" height="200" viewBox="0 0 200 200" version="1.1">
	<path d="M 105.500 20.991 C 92.850 23.063, 82.382 24.813, 82.237 24.879 C 82.093 24.946, 83.584 28.196, 85.552 32.102 C 87.519 36.009, 88.938 39.395, 88.706 39.628 C 88.313 40.020, 52.872 44.983, 50.379 44.995 C 49.763 44.998, 47.554 41.175, 45.471 36.500 C 39.735 23.626, 38.255 24.886, 39.655 41.452 L 40.311 49.206 44.155 48.591 C 46.697 48.185, 48 48.357, 48 49.099 C 48 49.717, 45.750 53.947, 43 58.500 C 40.250 63.053, 38 67.121, 38 67.541 C 38 67.961, 47.727 68.049, 59.616 67.736 C 71.505 67.424, 80.842 67.541, 80.366 67.996 C 79.890 68.452, 65.912 69.846, 49.304 71.095 C 28.682 72.646, 19.316 73.705, 19.765 74.433 C 23.549 80.586, 36.323 98, 37.052 98 C 38.854 98, 37.979 95.743, 32.843 87.139 C 30.006 82.387, 27.536 78.212, 27.352 77.860 C 27.169 77.509, 30.502 77.998, 34.759 78.949 C 39.017 79.899, 53.411 83.112, 66.746 86.088 C 80.081 89.065, 90.984 91.725, 90.974 92 C 90.964 92.275, 90.172 93.518, 89.215 94.762 C 87.734 96.685, 84.702 97.542, 68.987 100.481 C 58.819 102.382, 48.925 104.123, 47 104.351 C 45.075 104.578, 42.825 105.004, 42 105.298 C 41.175 105.592, 39.262 106.104, 37.750 106.436 C 34.508 107.146, 34.120 108.725, 37.075 109.180 C 38.904 109.462, 38.483 110.269, 33.540 115.966 C 30.454 119.523, 27.730 123.348, 27.487 124.466 C 26.442 129.268, 20.909 178.242, 21.360 178.693 C 21.633 178.967, 32.168 177.798, 44.771 176.095 C 57.373 174.393, 68.993 172.993, 70.592 172.985 C 72.191 172.977, 91.607 175.953, 113.738 179.597 C 135.869 183.242, 154.544 185.995, 155.238 185.715 C 156.687 185.131, 170.757 158.425, 170 157.695 C 169.725 157.430, 150.600 157.820, 127.500 158.562 C 104.400 159.304, 83.020 159.931, 79.990 159.956 L 74.479 160 63.720 134.353 C 57.803 120.247, 53.113 108.554, 53.298 108.369 C 53.484 108.183, 61.030 108.727, 70.068 109.577 C 81.221 110.626, 87.834 111.726, 90.653 113.001 C 94.792 114.874, 94.811 114.907, 96.943 124.190 C 98.119 129.310, 99.263 134.034, 99.485 134.686 C 99.707 135.338, 95.542 139.388, 90.229 143.686 C 84.917 147.984, 79.880 152.088, 79.035 152.806 C 77.770 153.882, 85.327 153.997, 122 153.462 C 146.475 153.104, 166.684 152.633, 166.908 152.415 C 167.132 152.196, 165.122 145.223, 162.441 136.919 C 157.690 122.206, 157.609 121.747, 159.237 118.911 C 160.848 116.102, 160.835 116, 158.870 116 C 157.750 116, 156.983 115.584, 157.167 115.075 C 157.350 114.567, 162.562 108.757, 168.748 102.165 L 179.996 90.179 164.748 76.803 C 149.584 63.501, 145.383 60.063, 137.235 54.290 L 132.970 51.268 157.971 40.453 C 171.721 34.505, 182.835 29.502, 182.669 29.336 C 182.317 28.983, 135.931 18.453, 131.500 17.719 C 129.850 17.446, 118.150 18.918, 105.500 20.991 M 107 23.547 C 95.725 25.362, 86.392 26.881, 86.259 26.923 C 86.127 26.965, 87.422 29.846, 89.138 33.325 L 92.257 39.650 101.378 38.360 C 115.341 36.386, 115.095 36.288, 109.950 41.750 C 107.489 44.362, 103.983 48.133, 102.159 50.129 L 98.843 53.757 101.514 59.029 L 104.186 64.300 117.093 63.683 C 127.979 63.162, 130 63.292, 130 64.514 C 130 65.310, 128.762 66.239, 127.250 66.578 C 125.737 66.917, 122.925 67.598, 121 68.091 C 119.075 68.585, 115.138 68.991, 112.250 68.994 C 109.362 68.997, 107 69.300, 107 69.666 C 107 70.032, 109.519 75.597, 112.598 82.033 L 118.196 93.734 134.598 97.995 C 145.756 100.895, 151 102.696, 151 103.629 C 151 105.374, 151.921 105.493, 135.250 101.596 C 127.412 99.764, 121 98.647, 121 99.114 C 121 99.580, 122.413 102.828, 124.140 106.330 L 127.280 112.698 139.773 113.909 L 152.265 115.120 155.227 112.310 C 156.857 110.765, 162.197 105.166, 167.095 99.870 L 176 90.239 160.427 76.611 C 151.862 69.115, 141.080 60.399, 136.467 57.241 C 131.854 54.084, 128.062 51.242, 128.040 50.927 C 128.018 50.612, 138.359 45.887, 151.021 40.427 C 167.308 33.404, 173.524 30.292, 172.271 29.788 C 169.746 28.773, 130.033 19.975, 128.650 20.124 C 128.018 20.192, 118.275 21.733, 107 23.547 M 42.056 39 C 42.011 42.976, 43.117 46, 44.617 46 C 46.482 46, 46.297 44.195, 44 40 C 42.214 36.739, 42.082 36.670, 42.056 39 M 96.750 41.716 C 95.237 41.945, 94 42.313, 94 42.532 C 94 43.544, 97.438 50, 97.977 50 C 98.311 50, 100.571 47.975, 103 45.500 L 107.416 41 103.458 41.150 C 101.281 41.232, 98.263 41.487, 96.750 41.716 M 68 45.507 C 48.636 48.246, 51 47.734, 51 49.192 C 51 49.847, 49.200 53.414, 47 57.117 C 44.800 60.820, 43 64.148, 43 64.514 C 43 64.879, 52.221 65.025, 63.491 64.839 L 83.981 64.500 89.649 58.831 L 95.316 53.162 93.340 48.331 C 90.884 42.328, 90.655 42.302, 68 45.507 M 92.500 60 L 88.594 64 94.817 64 L 101.041 64 99 60 C 97.878 57.800, 96.835 56, 96.683 56 C 96.530 56, 94.648 57.800, 92.500 60 M 87.768 67.725 C 89.565 67.947, 92.265 67.943, 93.768 67.715 C 95.271 67.486, 93.800 67.304, 90.500 67.310 C 87.200 67.315, 85.971 67.502, 87.768 67.725 M 87.836 70.740 C 83.487 70.967, 80.740 71.608, 79.929 72.586 C 78.484 74.326, 77.996 73.812, 88.750 81.891 C 93.287 85.301, 97 88.502, 97 89.006 C 97 89.939, 101.682 91.409, 108 92.460 C 114.472 93.537, 114.564 92.325, 108.895 80.666 L 103.709 70 99.105 70.196 C 96.572 70.304, 91.501 70.548, 87.836 70.740 M 53 73.550 C 45.025 74.251, 36.925 74.898, 35 74.989 C 33.031 75.081, 44.621 78.161, 61.500 82.030 C 78 85.812, 91.843 88.813, 92.262 88.699 C 92.681 88.585, 88.948 85.384, 83.967 81.585 C 78.358 77.308, 75.105 74.168, 75.423 73.339 C 76.043 71.724, 73.517 71.748, 53 73.550 M 92.872 94.669 C 91.625 96.185, 91.808 96.276, 94.875 95.669 C 96.731 95.301, 98.981 94.993, 99.875 94.985 C 101.289 94.971, 101.306 94.844, 100 94 C 97.694 92.510, 94.394 92.819, 92.872 94.669 M 97.620 97.869 C 89.746 99.335, 88.462 99.882, 86.296 102.690 L 83.853 105.858 86.177 107.326 C 88.092 108.537, 114.834 112, 122.266 112 C 123.714 112, 123.409 110.838, 120.317 104.590 C 115.582 95.020, 114.553 94.715, 97.620 97.869 M 68.500 103.389 L 57.500 105.605 65 106.334 C 69.125 106.734, 74.477 107.334, 76.892 107.666 C 80.187 108.119, 81.098 107.968, 80.538 107.061 C 80.105 106.361, 80.749 104.831, 82.070 103.426 L 84.349 101 81.924 101.086 C 80.591 101.134, 74.550 102.170, 68.500 103.389 M 38.272 114.750 C 34.276 119.013, 30.794 123.175, 30.533 124 C 29.819 126.267, 23.919 175.252, 24.313 175.646 C 24.501 175.834, 35.134 174.590, 47.942 172.879 L 71.228 169.770 112.617 176.549 C 135.380 180.277, 154.154 183.142, 154.337 182.914 C 155.439 181.536, 166.018 160.685, 165.750 160.417 C 165.570 160.237, 144.760 160.742, 119.505 161.538 C 94.249 162.334, 73.255 162.651, 72.851 162.243 C 72.447 161.834, 67.129 149.594, 61.032 135.043 C 54.935 120.491, 49.397 108.236, 48.724 107.808 C 46.464 106.373, 45.566 106.969, 38.272 114.750 M 96.709 113.187 C 97.290 113.909, 98.244 116.750, 98.828 119.500 C 99.411 122.250, 100.546 127.299, 101.349 130.721 L 102.809 136.941 94.406 143.721 L 86.004 150.500 121.367 150.762 C 140.816 150.907, 158.294 150.682, 160.207 150.262 L 163.685 149.500 159.584 137.224 L 155.482 124.948 148.592 136.526 C 144.803 142.893, 141.407 147.742, 141.044 147.302 C 140.682 146.861, 137.036 139.464, 132.942 130.866 L 125.500 115.231 113 114.076 C 106.125 113.441, 99.409 112.686, 98.075 112.398 C 96.168 111.986, 95.876 112.154, 96.709 113.187 M 133.320 125.142 C 140.655 140.909, 141.497 142.323, 142.654 140.829 C 146.153 136.310, 154.089 121.702, 153.816 120.282 C 153.426 118.260, 150.022 117.452, 137.822 116.486 L 128.966 115.785 133.320 125.142" stroke="none" fill="black" fill-rule="evenodd"/>
</svg>