<svg xmlns="http://www.w3.org/2000/svg" width="200" height="200" viewBox="0 0 200 200" version="1.1">
	<path d="M 71 13.725 C 71 14.051, 73.475 22.070, 76.500 31.544 C 79.525 41.018, 82 48.950, 82 49.171 C 82 49.392, 78.936 50.635, 75.192 51.934 L 68.383 54.294 58.225 50.897 L 48.067 47.500 54.156 36.705 C 57.504 30.768, 60.077 25.767, 59.872 25.591 C 59.667 25.415, 49.600 28.498, 37.500 32.442 L 15.500 39.613 29.838 44.419 C 40.168 47.881, 43.872 49.528, 43.088 50.312 C 42.410 50.990, 42 56.546, 42 65.039 L 42 78.678 30.835 80.260 C 20.178 81.770, 19.393 81.755, 13.585 79.934 C 10.238 78.884, 7.336 78.020, 7.135 78.013 C 6.934 78.006, 7.473 79.073, 8.333 80.385 C 10.178 83.202, 9.645 84, 5.915 84 C 2.241 84, 0 84.937, 0 86.473 C 0 87.416, 1.065 87.525, 4.250 86.909 C 11.631 85.481, 11.492 85.385, 18.687 96.954 C 22.434 102.979, 25.804 107.929, 26.175 107.954 C 26.546 107.979, 29.152 103.977, 31.966 99.060 L 37.082 90.120 41.791 91.582 C 44.381 92.386, 49.087 93.782, 52.250 94.686 C 55.413 95.589, 58 96.655, 58 97.054 C 58 97.453, 55.321 99.514, 52.047 101.634 C 46.214 105.411, 45.801 105.994, 31.547 130.570 C 23.546 144.365, 17 155.908, 17 156.221 C 17 156.960, 50.642 183.926, 52.412 184.604 C 53.516 185.028, 53.882 179.121, 54.445 151.811 L 55.132 118.500 58.191 109 C 59.873 103.775, 61.557 99.158, 61.934 98.741 C 62.311 98.323, 68.156 99.673, 74.924 101.741 L 87.228 105.500 86.597 112.356 L 85.966 119.212 77.486 128.356 C 72.822 133.385, 69.004 137.887, 69.003 138.360 C 69.001 138.833, 73.601 149.588, 79.224 162.261 L 89.447 185.302 108.884 184.651 C 119.575 184.293, 131.142 184, 134.589 184 L 140.856 184 157.178 162.935 C 166.155 151.349, 173.413 141.525, 173.306 141.103 C 173.199 140.681, 170.156 133.848, 166.543 125.918 L 159.974 111.500 163.331 93.166 L 166.688 74.832 164.594 74.063 C 163.442 73.639, 154.512 71.796, 144.750 69.966 C 134.987 68.137, 127.014 66.383, 127.032 66.070 C 127.049 65.756, 129.651 61.254, 132.815 56.064 L 138.566 46.628 159.783 39.581 C 171.452 35.706, 181 32.296, 181 32.005 C 181 31.457, 139.010 18, 137.301 18 C 136.774 18, 129.470 21.150, 121.071 25 C 112.672 28.850, 105.459 32, 105.043 32 C 104.626 32, 96.796 27.755, 87.643 22.566 C 78.489 17.378, 71 13.399, 71 13.725 M 76 20.177 C 76 21.218, 84.071 47.099, 84.637 47.871 C 84.787 48.075, 91.997 45.505, 100.659 42.159 C 109.322 38.813, 116.551 36.217, 116.724 36.390 C 116.896 36.563, 111.184 44.021, 104.029 52.964 C 96.874 61.907, 91.287 69.655, 91.613 70.182 C 92.371 71.409, 99.876 70.184, 102.406 68.421 C 104.132 67.219, 104.893 67.725, 110.475 73.797 C 122.874 87.282, 124.314 89.086, 123.406 89.992 C 122.865 90.532, 118.329 87.089, 112.153 81.449 L 101.805 72.002 98.826 73.751 C 97.187 74.713, 95.434 75.992, 94.930 76.594 C 94.352 77.285, 95.761 83.233, 98.757 92.743 L 103.500 107.798 113.750 110.929 C 119.388 112.651, 124 114.282, 124 114.555 C 124 115.948, 116.792 129.094, 114.599 131.700 L 112.067 134.709 117.414 151.369 C 120.550 161.140, 122.361 168.277, 121.793 168.628 C 120.368 169.508, 119.937 168.859, 111.096 152.500 L 102.989 137.500 105.872 135.216 L 108.755 132.932 105.128 121.451 L 101.500 109.969 96.176 108.392 C 93.248 107.525, 90.621 107.046, 90.338 107.328 C 90.056 107.611, 89.576 110.690, 89.272 114.171 L 88.720 120.500 80.301 129.276 C 74.402 135.426, 72.047 138.569, 72.434 139.776 C 72.738 140.724, 76.972 150.500, 81.844 161.500 L 90.702 181.500 107.101 181.812 C 116.121 181.983, 127.177 181.833, 131.672 181.478 L 139.844 180.833 154.922 161.469 C 163.215 150.819, 170 141.646, 170 141.084 C 170 140.522, 167.110 133.743, 163.579 126.020 L 157.157 111.978 160.078 95.739 C 161.684 86.807, 162.999 78.773, 162.999 77.885 C 163 76.580, 159.166 75.538, 143 72.450 C 132 70.349, 123 68.263, 123 67.813 C 123 67.364, 126.084 61.935, 129.853 55.748 L 136.707 44.500 154.353 38.505 C 164.059 35.207, 172 32.274, 172 31.986 C 172 31.430, 139.193 20.959, 137.500 20.975 C 136.950 20.980, 129.364 24.233, 120.643 28.203 L 104.786 35.421 101.143 33.340 C 81.525 22.135, 76 19.242, 76 20.177 M 38.550 34.896 C 30.877 37.502, 25.027 39.892, 25.550 40.207 C 27.076 41.126, 42.973 46, 44.445 46 C 45.183 46, 47.826 42.400, 50.319 38 C 52.812 33.600, 54.323 30.035, 53.676 30.079 C 53.029 30.122, 46.222 32.290, 38.550 34.896 M 97.500 46.169 C 92 48.349, 87.123 50.502, 86.663 50.953 C 85.861 51.740, 88.628 62.610, 90.070 64.333 C 90.614 64.984, 99.988 54.138, 108.292 43.250 C 109.646 41.474, 108.704 41.729, 97.500 46.169 M 45.629 51.524 C 44.964 53.257, 44.731 78, 45.379 78 C 45.587 78, 52 74.453, 59.629 70.118 C 67.258 65.783, 73.614 62.334, 73.753 62.454 C 73.892 62.574, 73.111 65.272, 72.017 68.449 L 70.030 74.227 75.765 73.539 C 88.492 72.014, 89.178 71.045, 85.452 59.856 C 83.288 53.357, 82.484 51.990, 81.146 52.530 C 80.241 52.895, 77.091 54.131, 74.146 55.276 L 68.792 57.357 58.646 54.041 C 53.066 52.217, 47.996 50.536, 47.379 50.305 C 46.763 50.074, 45.975 50.623, 45.629 51.524 M 61.268 72.302 C 57.290 74.539, 54.140 76.459, 54.268 76.570 C 54.396 76.680, 57.289 76.313, 60.697 75.755 C 66.326 74.834, 66.992 74.463, 67.952 71.708 C 68.533 70.040, 68.894 68.577, 68.755 68.455 C 68.615 68.334, 65.246 70.065, 61.268 72.302 M 86.324 75.750 C 85.280 76.713, 83.317 78.827, 81.963 80.449 L 79.500 83.399 82.250 81.699 C 88.884 77.600, 90 76.691, 90 75.385 C 90 73.506, 88.608 73.644, 86.324 75.750 M 75.502 76.271 C 72.203 76.762, 69.416 77.250, 69.309 77.357 C 69.202 77.464, 67.746 81.265, 66.073 85.803 C 63.092 93.887, 63.076 94.030, 65.265 92.879 C 69.718 90.538, 76.127 85.794, 75.579 85.246 C 75.270 84.937, 76.639 82.706, 78.621 80.287 C 80.602 77.869, 82.061 75.775, 81.862 75.635 C 81.663 75.494, 78.801 75.781, 75.502 76.271 M 53.905 79.484 C 49.728 80.188, 45.377 81.263, 44.236 81.874 C 43.095 82.484, 42.013 82.644, 41.831 82.229 C 41.649 81.814, 38.125 81.966, 34 82.568 C 29.875 83.170, 27.175 83.924, 28 84.243 C 34.628 86.809, 35.978 86.910, 37.044 84.918 C 38.318 82.538, 40.320 83.415, 39.502 85.994 C 39.006 87.558, 40.353 88.265, 48.867 90.910 C 54.337 92.610, 59.209 94, 59.694 94 C 60.179 94, 61.756 90.400, 63.198 86 L 65.821 78 63.660 78.103 C 62.472 78.159, 58.082 78.781, 53.905 79.484 M 85.705 82.429 L 80.910 85.748 86.086 89.466 L 91.261 93.184 90.719 98.430 L 90.178 103.675 95.089 105.246 C 97.790 106.109, 100 106.586, 100 106.304 C 100 104.787, 91.554 79.009, 91.072 79.055 C 90.757 79.085, 88.342 80.604, 85.705 82.429 M 15 85.509 C 15 86.420, 26.093 103.241, 26.446 102.865 C 27.365 101.887, 33.995 90.409, 33.997 89.792 C 34.001 88.830, 20.931 85, 17.642 85 C 16.189 85, 15 85.229, 15 85.509 M 71.554 91.959 C 67.671 94.541, 66.110 96.092, 67.054 96.430 C 67.849 96.714, 72.293 98.129, 76.929 99.573 C 81.564 101.018, 85.952 102.428, 86.679 102.707 C 87.655 103.081, 88 102.023, 88 98.655 C 88 94.388, 87.716 93.901, 83.570 91.048 C 81.133 89.372, 78.771 88.001, 78.320 88.003 C 77.869 88.005, 74.824 89.785, 71.554 91.959 M 52.212 104.859 C 48.535 107.294, 46.018 110.990, 34.560 130.786 C 27.210 143.484, 20.920 154.320, 20.583 154.866 C 20.067 155.701, 49.956 180.378, 50.646 179.687 C 50.775 179.558, 51.329 165.063, 51.876 147.476 C 52.754 119.267, 53.116 114.799, 54.951 109.547 C 56.096 106.274, 56.912 103.240, 56.766 102.807 C 56.620 102.373, 54.570 103.296, 52.212 104.859 M 105 111.658 C 105 112.966, 110.358 129.578, 111.021 130.327 C 111.858 131.271, 114.750 127.453, 117.869 121.290 C 120.505 116.082, 120.507 116.143, 117.668 115.064 C 112.896 113.250, 105 111.126, 105 111.658 M 108 137.018 C 106.727 137.822, 107.101 139.098, 110.465 145.434 C 112.646 149.542, 114.555 152.779, 114.706 152.628 C 114.857 152.476, 113.748 148.689, 112.240 144.211 C 109.997 137.545, 109.228 136.241, 108 137.018" stroke="none" fill="black" fill-rule="evenodd"/>
</svg>