<svg xmlns="http://www.w3.org/2000/svg" width="200" height="200" viewBox="0 0 200 200" version="1.1">
	<path d="M 71.046 27.535 C 73.770 35.530, 76 42.505, 76 43.035 C 76 43.566, 74.987 43.994, 73.750 43.987 C 71.808 43.976, 70.690 42.054, 65.582 29.943 C 62.328 22.225, 59.387 15.739, 59.048 15.530 C 58.594 15.249, 29.365 36.301, 27.197 38.470 C 27.019 38.647, 32.190 41.802, 38.687 45.480 L 50.500 52.167 60.297 49.964 C 65.685 48.752, 70.209 47.927, 70.350 48.130 C 71.496 49.781, 74.208 57.125, 73.817 57.516 C 73.544 57.789, 66.468 58.989, 58.092 60.183 L 42.863 62.353 29.985 76.358 C 18.157 89.220, 15.515 93.168, 19.846 91.506 C 20.750 91.159, 29.171 86.403, 38.559 80.937 L 55.628 71 67.870 71 L 80.112 71 82.158 75.625 L 84.204 80.250 81.817 82.637 L 79.430 85.024 64.671 82.890 C 56.553 81.716, 49.692 80.975, 49.425 81.242 C 48.864 81.803, 51.662 110.995, 52.342 111.675 C 52.590 111.923, 58.892 106.698, 66.347 100.063 C 78.311 89.416, 83.004 86.228, 82.998 88.750 C 82.998 89.162, 72.171 101.795, 58.939 116.823 C 45.708 131.851, 35.021 144.745, 35.191 145.477 C 35.361 146.209, 39.775 154.980, 45 164.969 L 54.500 183.131 80 182.484 L 105.500 181.836 114.500 178.270 C 119.450 176.309, 125.750 173.716, 128.500 172.509 C 131.250 171.302, 136.764 169.006, 140.752 167.407 C 147.542 164.685, 149.101 163.402, 165.205 147.286 C 174.666 137.819, 182.202 129.918, 181.953 129.728 C 181.704 129.539, 173.175 125.676, 163 121.145 C 152.825 116.614, 138.296 109.215, 130.714 104.703 L 116.929 96.500 142.775 96.234 L 168.622 95.968 171.895 75.401 C 173.695 64.090, 175.018 54.717, 174.834 54.573 C 174.650 54.429, 162.125 56.259, 147 58.640 C 131.875 61.021, 119.120 62.850, 118.657 62.703 C 118.193 62.557, 123.705 58.272, 130.906 53.180 L 143.999 43.922 168.660 38.968 C 182.223 36.243, 193.518 33.815, 193.760 33.573 C 194.002 33.331, 193.939 32.710, 193.620 32.194 C 193.281 31.646, 182.510 33.400, 167.770 36.403 L 142.500 41.552 126.500 52.886 C 107.695 66.207, 109.399 64.799, 110.607 66.007 C 111.239 66.639, 122.023 65.356, 141.319 62.352 C 157.675 59.806, 171.233 57.899, 171.448 58.115 C 171.954 58.621, 166.533 91.800, 165.829 92.505 C 165.535 92.798, 155.153 92.917, 142.757 92.769 L 120.219 92.500 134.329 83.539 L 148.438 74.578 134.969 71.335 C 122.609 68.359, 120.119 68.088, 104.725 68.046 C 88.265 68.001, 87.935 67.958, 87.109 65.750 C 84.533 58.864, 84.373 59.170, 90.933 58.428 C 94.251 58.053, 97.600 57.240, 98.375 56.623 C 99.901 55.407, 106.486 38.153, 105.718 37.384 C 105.314 36.980, 85.496 41.101, 80.850 42.555 C 79.512 42.974, 78.438 40.794, 75.174 31.036 C 72.959 24.416, 71.300 19, 71.487 19 C 71.674 19, 78.305 22.760, 86.222 27.356 L 100.618 35.711 120.767 26.388 L 140.916 17.066 151.315 23.033 C 157.035 26.315, 162.229 29, 162.857 29 C 165.950 29, 162.985 26.584, 152.514 20.572 L 141.028 13.977 121.688 22.988 C 111.050 27.945, 101.747 32, 101.014 32 C 100.281 32, 92.295 27.725, 83.268 22.500 C 74.242 17.275, 66.684 13, 66.474 13 C 66.263 13, 68.321 19.541, 71.046 27.535 M 45.490 28.128 C 38.895 33.069, 33.155 37.453, 32.734 37.871 C 32.313 38.289, 36.314 41.032, 41.625 43.965 L 51.281 49.299 58.891 47.530 C 63.076 46.556, 67.029 45.476, 67.675 45.130 C 68.491 44.692, 67.253 40.769, 63.621 32.280 C 60.745 25.558, 58.187 19.854, 57.936 19.603 C 57.685 19.352, 52.084 23.188, 45.490 28.128 M 89 43.256 C 84.325 44.369, 80.398 45.355, 80.274 45.449 C 80.150 45.542, 80.889 47.842, 81.917 50.559 C 83.997 56.060, 85.266 56.605, 92.863 55.262 C 97.143 54.506, 97.270 54.370, 99.596 47.996 C 100.900 44.423, 101.974 41.388, 101.983 41.250 C 102.027 40.599, 96.724 41.419, 89 43.256 M 74.326 46.777 C 72.420 47.990, 76.745 57, 79.234 57 C 80.518 57, 81.026 56.509, 80.678 55.604 C 80.384 54.836, 79.589 52.361, 78.913 50.104 C 77.703 46.067, 76.648 45.301, 74.326 46.777 M 79 60.532 C 79 62.644, 82.191 68, 83.449 68 C 85.346 68, 85.346 68.072, 83.487 63.622 C 82.654 61.630, 81.304 60, 80.487 60 C 79.669 60, 79 60.239, 79 60.532 M 57.182 62.990 C 43.300 65.006, 44.406 64.353, 32.648 77.482 C 28.717 81.873, 26.625 84.768, 28 83.916 C 29.375 83.064, 35.737 79.344, 42.138 75.649 L 53.777 68.930 66.215 68.215 L 78.654 67.500 77.324 64.250 C 75.739 60.377, 75.347 60.352, 57.182 62.990 M 103.653 70.777 C 90.058 71.031, 88.866 71.200, 89.511 72.777 C 89.899 73.725, 91.132 77.200, 92.251 80.500 C 93.370 83.800, 94.437 86.678, 94.622 86.896 C 94.807 87.114, 97.177 87.643, 99.888 88.071 C 102.599 88.500, 106.593 90.026, 108.764 91.462 L 112.710 94.074 126.355 85.392 C 133.860 80.617, 140 76.397, 140 76.014 C 140 75.358, 137.094 74.576, 124 71.706 C 120.683 70.978, 112.608 70.610, 103.653 70.777 M 85.251 75.920 L 87.382 80.965 85.017 83.482 C 82.699 85.949, 82.694 86, 84.742 86 C 85.892 86, 87.023 85.438, 87.254 84.750 C 87.575 83.796, 88.103 83.854, 89.482 84.992 C 91.160 86.378, 91.232 86.307, 90.498 83.992 C 87.468 74.440, 86.124 71.463, 84.715 71.188 C 83.347 70.921, 83.423 71.594, 85.251 75.920 M 52.636 91.250 C 52.993 95.237, 53.559 100.411, 53.893 102.747 L 54.500 106.993 65.453 97.248 L 76.406 87.503 65.953 85.825 C 50.535 83.350, 51.879 82.803, 52.636 91.250 M 62.786 116.564 C 49.429 131.724, 38.384 144.446, 38.243 144.835 C 38.102 145.223, 42.013 153.182, 46.934 162.521 L 55.882 179.500 80.691 179.261 C 103.630 179.041, 105.909 178.857, 110.931 176.822 C 113.918 175.611, 115.848 174.449, 115.220 174.240 C 114.591 174.030, 104.722 172.383, 93.289 170.579 C 81.855 168.776, 72.581 166.895, 72.681 166.400 C 72.780 165.905, 76.761 158.381, 81.527 149.680 C 86.293 140.978, 90.037 133.734, 89.846 133.582 C 89.656 133.429, 85.268 133.691, 80.095 134.164 C 74.923 134.637, 70.526 134.859, 70.324 134.658 C 70.123 134.456, 76.226 128.488, 83.887 121.396 C 91.548 114.303, 97.857 107.783, 97.908 106.907 C 97.959 106.030, 97.093 102.677, 95.984 99.454 C 93.924 93.467, 90.667 89, 88.362 89 C 87.653 89, 76.143 101.404, 62.786 116.564 M 96.038 90.884 C 96.060 91.223, 98.054 93.744, 100.471 96.488 L 104.865 101.475 107.433 99.063 C 110.737 95.959, 110.670 95.401, 106.750 93.357 C 103.278 91.547, 95.975 89.861, 96.038 90.884 M 110.989 101.250 C 109.899 103.037, 109.008 104.725, 109.008 105 C 109.009 105.275, 113.956 110.900, 120.001 117.500 L 130.993 129.500 126.246 130.162 C 123.636 130.527, 119.213 130.864, 116.417 130.912 C 113.621 130.961, 111.061 131.272, 110.729 131.605 C 110.227 132.107, 122.557 169.609, 123.656 170.921 C 123.850 171.152, 128.844 169.398, 134.754 167.023 L 145.500 162.704 161.250 147.114 C 169.912 138.539, 177 131.272, 177 130.965 C 177 130.657, 169.012 126.835, 159.250 122.470 C 149.488 118.105, 135.425 110.814, 128 106.269 C 120.575 101.723, 114.156 98.003, 113.735 98.002 C 113.315 98.001, 112.079 99.463, 110.989 101.250 M 99.550 101 C 100.367 104.026, 101.583 105.484, 102.309 104.309 C 102.603 103.833, 101.951 102.332, 100.859 100.972 L 98.875 98.500 99.550 101 M 103 107.500 C 102.293 108.352, 101.940 109.273, 102.215 109.548 C 102.490 109.823, 103.293 109.352, 104 108.500 C 104.707 107.648, 105.060 106.727, 104.785 106.452 C 104.510 106.177, 103.707 106.648, 103 107.500 M 105.644 111.176 C 103.944 114.405, 103.962 114.699, 106.290 121.500 C 108.463 127.849, 108.932 128.494, 111.343 128.438 C 121.681 128.194, 124.994 127.905, 124.952 127.250 C 124.925 126.838, 120.964 122.304, 116.149 117.176 L 107.394 107.852 105.644 111.176 M 87.597 121.391 L 76.694 131.690 82.597 131.293 C 92.172 130.649, 92.172 130.650, 96.731 122.048 C 100.406 115.115, 101.333 110.890, 99.143 111.046 C 98.789 111.071, 93.594 115.726, 87.597 121.391 M 98.560 124.068 C 97.043 126.855, 96.051 129.384, 96.355 129.688 C 96.870 130.203, 106 129.190, 106 128.617 C 106 127.226, 102.634 119, 102.065 119 C 101.654 119, 100.077 121.280, 98.560 124.068 M 97 132.707 C 93.609 133.110, 93.240 133.605, 85.138 148.650 C 80.539 157.189, 77.164 164.515, 77.638 164.929 C 78.112 165.343, 86.825 166.919, 97 168.431 C 107.175 169.943, 116.747 171.423, 118.271 171.720 L 121.041 172.258 114.189 152.379 L 107.336 132.500 103.918 132.396 C 102.038 132.338, 98.925 132.478, 97 132.707" stroke="none" fill="black" fill-rule="evenodd"/>
</svg>