<svg xmlns="http://www.w3.org/2000/svg" width="200" height="200" viewBox="0 0 200 200" version="1.1">
	<path d="M 71 27.868 C 55.392 35.779, 52.460 36.914, 43.876 38.369 C 38.583 39.266, 33.971 40, 33.626 40 C 33.282 40, 33 40.675, 33 41.500 C 33 42.800, 37 43, 63 43 C 89 43, 93 42.800, 93 41.500 C 93 40.217, 90.145 40, 73.306 40 L 53.611 40 71.226 31 L 88.841 22 99.171 22.019 L 109.500 22.037 123.880 28.493 C 136.939 34.355, 139.074 35.009, 147.130 35.617 C 152.008 35.986, 156 36.600, 156 36.983 C 156 37.365, 148.973 38.313, 140.385 39.089 L 124.770 40.500 121.484 51 C 118.423 60.785, 118.325 61.521, 120.040 61.812 C 121.053 61.983, 128.266 61.421, 136.069 60.562 C 155.137 58.463, 156.025 58.634, 145.241 62.332 C 136.678 65.269, 135.046 66.297, 123.548 76.004 C 111.708 85.999, 109.155 89, 112.493 89 C 113.315 89, 124.804 86.720, 138.026 83.933 C 151.248 81.146, 162.741 79.009, 163.566 79.183 C 164.391 79.357, 166.660 82.382, 168.609 85.904 L 172.151 92.307 159.326 91.668 C 152.271 91.316, 139.346 90.726, 130.602 90.356 L 114.704 89.685 115.268 92.092 C 115.578 93.417, 117.105 100.237, 118.662 107.250 C 120.218 114.263, 121.944 119.984, 122.496 119.963 C 123.048 119.943, 131.600 115.260, 141.500 109.556 C 151.400 103.852, 159.622 99.304, 159.772 99.448 C 159.921 99.592, 158.064 104.435, 155.644 110.210 C 151.926 119.085, 148 134.851, 148 140.907 C 148 141.545, 156.100 145.948, 166 150.692 C 175.900 155.435, 183.981 159.583, 183.957 159.908 C 183.924 160.363, 153.633 175.445, 150.078 176.777 C 149.672 176.929, 142.631 168.268, 134.433 157.529 L 119.526 138.005 112.863 113.436 C 109.199 99.923, 106.043 88.719, 105.850 88.537 C 105.514 88.221, 76.806 130.243, 76.209 131.927 C 76.049 132.378, 83.586 136.029, 92.959 140.041 C 102.331 144.052, 109.983 147.597, 109.963 147.917 C 109.942 148.238, 105.104 151.600, 99.213 155.388 C 91.269 160.495, 82.684 164.673, 66 171.551 C 53.625 176.652, 43.377 180.705, 43.227 180.557 C 43.077 180.409, 44.932 174.024, 47.349 166.369 C 51.731 152.487, 51.742 152.420, 51.122 141.475 C 50.541 131.219, 50.369 130.522, 48.500 130.839 C 47.400 131.025, 40.905 132.706, 34.068 134.573 C 27.230 136.441, 21.547 137.863, 21.438 137.734 C 21.330 137.605, 32.212 129.651, 45.621 120.058 C 59.029 110.464, 70 102.493, 70 102.344 C 70 102.195, 62.125 99.559, 52.500 96.486 C 42.875 93.413, 35 90.544, 35 90.112 C 35 89.679, 48.388 88.752, 64.750 88.053 C 81.113 87.353, 94.651 86.641, 94.836 86.471 C 95.022 86.300, 86.697 81.126, 76.336 74.972 C 65.976 68.819, 57.382 63.677, 57.237 63.546 C 57.093 63.415, 63.618 62.768, 71.737 62.108 C 94.893 60.224, 97 59.904, 97 58.268 C 97 57.116, 96.011 56.935, 92.250 57.400 C 89.638 57.723, 79.400 58.690, 69.500 59.549 C 59.600 60.408, 50.938 61.297, 50.250 61.524 C 47.955 62.283, 48.963 63.833, 52.515 65.005 C 57.141 66.532, 85.238 83.095, 84.483 83.850 C 84.161 84.172, 72.191 84.967, 57.883 85.617 C 43.574 86.267, 31.639 87.028, 31.360 87.307 C 31.081 87.586, 31.515 89.095, 32.324 90.660 C 33.628 93.180, 35.537 94.055, 49.036 98.314 C 57.419 100.959, 63.877 103.492, 63.389 103.943 C 62.900 104.395, 51.363 112.728, 37.750 122.463 C 24.137 132.198, 13 140.831, 13 141.649 C 13 142.593, 13.638 142.948, 14.750 142.621 C 18.820 141.428, 46.836 134, 47.269 134 C 47.529 134, 48.055 138.001, 48.438 142.891 C 49.125 151.678, 49.073 151.970, 43.979 167.970 C 41.144 176.873, 39.078 184.411, 39.386 184.720 C 39.695 185.029, 51.063 180.709, 64.648 175.121 C 85.677 166.470, 91.329 163.671, 102.683 156.289 C 110.018 151.520, 115.677 147.301, 115.259 146.913 C 114.842 146.524, 106.850 142.958, 97.500 138.988 C 88.150 135.017, 80.348 131.631, 80.163 131.464 C 79.977 131.296, 85.346 122.943, 92.094 112.901 C 102.181 97.890, 104.505 94.987, 105.167 96.572 C 105.610 97.633, 108.467 107.672, 111.517 118.881 L 117.061 139.263 132.661 159.631 C 141.241 170.834, 148.659 180, 149.146 180 C 150.602 180, 190 160.744, 190 160.032 C 190 159.670, 181.338 155.155, 170.750 149.996 C 160.162 144.838, 151.314 140.481, 151.087 140.313 C 150.860 140.145, 151.429 135.778, 152.352 130.610 C 153.462 124.398, 155.858 116.855, 159.421 108.356 L 164.812 95.500 170.406 95.200 C 173.483 95.035, 176 94.668, 176 94.385 C 176 94.102, 173.703 89.609, 170.895 84.401 C 167.036 77.241, 165.389 75.055, 164.145 75.435 C 159.901 76.734, 119.570 85.023, 118.778 84.759 C 118.284 84.595, 122.178 80.795, 127.431 76.316 L 136.982 68.172 153.991 62.503 C 165.956 58.515, 171 56.388, 171 55.329 C 171 54.155, 170.176 53.950, 167.250 54.397 C 159.274 55.616, 122.897 59.230, 122.510 58.843 C 122.023 58.357, 125.977 44.824, 126.913 43.769 C 127.270 43.367, 138.123 42.064, 151.031 40.874 C 173.145 38.834, 177.381 38.048, 175.638 36.305 C 175.237 35.904, 166.823 34.792, 156.939 33.834 L 138.969 32.091 125.234 25.880 L 111.500 19.668 100 19.333 L 88.500 18.997 71 27.868 M 119.517 98.596 C 120.292 101.843, 121.451 107.088, 122.093 110.250 C 122.735 113.412, 123.567 116, 123.942 116 C 124.894 116, 159.060 96.340, 160.349 95.051 C 161.084 94.316, 159.608 93.999, 155.450 93.997 C 152.177 93.995, 142.437 93.700, 133.804 93.342 L 118.109 92.691 119.517 98.596" stroke="none" fill="black" fill-rule="evenodd"/>
</svg>