<svg xmlns="http://www.w3.org/2000/svg" width="200" height="200" viewBox="0 0 200 200" version="1.1">
	<path d="M 75.500 15.708 C 60.028 17.849, 58.261 17.923, 55.846 16.530 C 52.375 14.530, 51.662 14.600, 52.260 16.885 C 52.701 18.572, 51.797 18.893, 43.658 19.936 C 38.656 20.578, 34.496 21.192, 34.412 21.301 C 33.738 22.183, 15 55.289, 15 55.598 C 15 55.819, 23.550 56, 34 56 C 44.595 56, 53 56.398, 53 56.900 C 53 57.395, 48.738 67.264, 43.529 78.831 C 37.434 92.366, 31.215 104.321, 26.081 112.373 L 18.104 124.884 26.053 135.692 L 34.002 146.500 33.751 170.751 C 33.571 188.115, 33.818 195.001, 34.619 195.001 C 35.393 195, 35.961 187.504, 36.465 170.655 L 37.193 146.310 29.596 136 C 25.418 130.329, 22 125.250, 22 124.712 C 22 124.175, 25.339 118.507, 29.421 112.117 C 39.113 96.945, 58.082 55.298, 55.924 53.932 C 55.141 53.436, 46.737 53.024, 37.250 53.015 C 27.762 53.007, 20 52.757, 20 52.461 C 20 51.684, 34.972 25.682, 36.067 24.558 C 36.572 24.039, 40.926 23.062, 45.742 22.387 L 54.500 21.159 56.770 23.830 C 67.577 36.541, 69.745 40.345, 73.913 53.920 L 78.034 67.340 72.001 79.821 C 68.683 86.685, 66.150 92.484, 66.373 92.706 C 66.596 92.929, 71.825 90.852, 77.994 88.091 L 89.210 83.070 88.651 86.285 C 88.344 88.053, 87.106 96.025, 85.900 104 C 84.694 111.975, 83.373 118.877, 82.965 119.339 C 82.556 119.800, 77.335 116.357, 71.361 111.687 C 64.193 106.084, 60.250 103.588, 59.765 104.348 C 59.361 104.982, 59.028 109.775, 59.025 115 C 59.021 120.225, 58.496 138.794, 57.857 156.264 C 57.218 173.735, 57.013 188.347, 57.402 188.735 C 59.186 190.519, 59.804 185.009, 60.498 161.142 C 60.908 147.039, 61.526 129.323, 61.872 121.773 L 62.500 108.046 73.273 116.568 C 79.197 121.255, 84.417 124.860, 84.873 124.579 C 85.328 124.297, 86.286 119.980, 87.002 114.985 C 87.718 109.991, 88.607 106.263, 88.978 106.702 C 89.349 107.141, 92.019 114.138, 94.912 122.251 L 100.171 137.002 83.223 160.251 C 73.902 173.038, 66.417 183.666, 66.590 183.869 C 66.763 184.072, 74.023 181.659, 82.722 178.508 L 98.540 172.778 112.513 148.389 C 120.198 134.975, 126.795 124, 127.174 124 C 128.950 124, 132.486 131.532, 142.432 156.500 C 148.347 171.350, 153.298 183.616, 153.434 183.758 C 153.571 183.900, 161.662 178.764, 171.415 172.345 L 189.147 160.675 171.098 148.874 L 153.049 137.073 145.589 122.178 L 138.129 107.283 145.715 106.641 C 149.888 106.289, 158.296 105.952, 164.401 105.894 C 170.505 105.836, 179.465 105.498, 184.311 105.144 L 193.121 104.500 180.079 97.684 C 172.905 93.935, 166.864 90.560, 166.653 90.184 C 166.442 89.808, 167.661 78.615, 169.362 65.311 C 171.063 52.007, 172.240 40.927, 171.978 40.690 C 171.715 40.452, 163.400 41.287, 153.500 42.546 C 143.600 43.804, 135.401 44.734, 135.280 44.614 C 135.159 44.493, 133.083 37.766, 130.666 29.666 C 128.249 21.566, 126.098 14.787, 125.886 14.601 C 125.674 14.416, 118.075 14.059, 109 13.810 C 95.368 13.434, 89.545 13.764, 75.500 15.708 M 78 18.096 C 70.575 19.128, 63.973 20.091, 63.328 20.236 C 62.684 20.381, 71.009 26.196, 81.828 33.159 L 101.500 45.817 116.500 48.184 L 131.500 50.551 131.788 58.044 L 132.076 65.538 136.438 68.298 L 140.801 71.058 137.382 81.779 C 135.501 87.675, 133.428 94.413, 132.774 96.750 C 132.120 99.088, 131.004 101, 130.293 101 C 129.287 101, 128.995 97.175, 128.977 83.750 L 128.954 66.500 114.917 57.610 C 105.404 51.585, 99.397 48.442, 96.275 47.859 C 93.741 47.386, 91.487 47.180, 91.265 47.402 C 91.043 47.624, 94.717 56.138, 99.431 66.321 C 104.144 76.505, 108 85.063, 108 85.339 C 108 85.615, 104.402 90.039, 100.005 95.170 C 95.608 100.302, 92.008 104.906, 92.005 105.403 C 92.002 105.900, 94.512 113.267, 97.583 121.774 L 103.166 137.241 99.584 142.371 C 97.614 145.192, 90.888 154.475, 84.638 163 C 78.388 171.525, 73.344 178.595, 73.430 178.710 C 73.973 179.437, 95.781 170.606, 97 169.165 C 97.825 168.190, 104.774 156.431, 112.441 143.033 L 126.383 118.673 129.960 122.826 C 132.552 125.836, 135.989 133.106, 142.447 149.239 C 147.348 161.483, 152.166 173.422, 153.153 175.771 L 154.947 180.043 169.505 170.344 L 184.062 160.645 167.281 149.573 L 150.500 138.500 142.218 121.615 C 137.663 112.328, 134.063 104.604, 134.218 104.451 C 134.373 104.297, 145.525 103.795, 159 103.336 L 183.500 102.500 173.281 97.222 C 163.646 92.246, 163.088 91.788, 163.532 89.222 C 164.364 84.409, 169 47.076, 169 45.190 C 169 43.441, 168.274 43.458, 151.250 45.600 C 141.488 46.828, 133.383 47.716, 133.239 47.572 C 133.095 47.429, 131.019 40.604, 128.625 32.405 L 124.273 17.500 114.387 16.867 C 98.820 15.872, 92.457 16.086, 78 18.096 M 65.340 30.240 C 71.765 38.486, 72.401 39.788, 76.568 53.240 L 80.984 67.500 76.033 77.750 C 73.309 83.388, 71.231 88, 71.415 88 C 71.599 88, 76.113 85.975, 81.446 83.500 C 86.778 81.025, 91.480 79, 91.894 79 C 92.308 79, 91.828 84.063, 90.827 90.250 C 89.826 96.438, 89.134 101.884, 89.288 102.354 C 89.443 102.824, 93.048 99.142, 97.300 94.170 L 105.030 85.132 95.917 65.316 C 90.905 54.417, 86.564 45.110, 86.271 44.632 C 85.977 44.155, 87.596 43.942, 89.868 44.159 C 92.141 44.376, 94 44.474, 94 44.378 C 94 44.238, 75.984 32.607, 61.015 23.081 C 59.438 22.078, 61.020 24.697, 65.340 30.240 M 109.550 50.876 C 110.073 51.358, 114.550 54.302, 119.500 57.418 L 128.500 63.083 128.809 58.434 C 128.979 55.877, 128.915 53.582, 128.668 53.334 C 128.244 52.910, 111.606 50.012, 109.550 50.004 C 108.950 50.001, 108.950 50.323, 109.550 50.876 M 132.099 78.715 L 132.197 88.500 134.634 81.064 C 137.268 73.027, 137.200 71.712, 134.056 70.030 C 132.044 68.953, 132.002 69.137, 132.099 78.715" stroke="none" fill="black" fill-rule="evenodd"/>
</svg>