<svg xmlns="http://www.w3.org/2000/svg" width="200" height="200" viewBox="0 0 200 200" version="1.1">
	<path d="M 91.937 30.250 C 92.426 31.488, 93.951 34.975, 95.327 38 L 97.829 43.500 88.164 53.332 L 78.500 63.163 87.250 62.832 C 94.635 62.552, 96 62.742, 96 64.053 C 96 64.906, 94.376 72.106, 92.391 80.053 C 88.919 93.952, 88.762 95.356, 88.259 117.065 L 87.736 139.630 92.038 158.315 C 98.161 184.913, 98.513 184.534, 101.613 148 C 102.889 132.959, 103.152 121.355, 102.762 97.250 C 102.484 80.063, 102.357 66, 102.479 66 C 102.601 66, 104.013 66.457, 105.617 67.016 C 108.209 67.920, 109.465 70.154, 116.938 87.156 L 125.343 106.280 123.318 127.390 L 121.293 148.500 127.396 160.242 C 130.753 166.700, 134.097 171.987, 134.826 171.992 C 135.901 171.998, 136.112 166.830, 135.938 144.750 C 135.763 122.385, 136.109 114.110, 137.871 98.592 C 139.052 88.193, 139.856 79.523, 139.658 79.325 C 139.460 79.127, 132.839 76.076, 124.944 72.544 C 114.951 68.074, 110.358 65.496, 109.827 64.061 C 109.101 62.098, 109.409 62.001, 116.282 62.022 C 121.451 62.038, 128.383 60.843, 140.706 57.812 C 150.170 55.484, 158.270 53.937, 158.706 54.373 C 159.143 54.810, 159.393 73.467, 159.261 95.833 C 159.023 136.472, 160.245 163.159, 162.424 164.907 C 163.016 165.382, 167.100 167.686, 171.500 170.027 C 175.900 172.369, 179.845 174.588, 180.267 174.960 C 181.669 176.193, 131.006 178.034, 96.139 178.017 L 61.777 178 62.325 174.750 C 62.626 172.963, 63.669 164.590, 64.642 156.145 L 66.411 140.791 63.177 114.145 C 59.469 83.603, 58.153 64.148, 59.727 63.157 C 60.300 62.795, 65.994 56.221, 72.381 48.547 C 79.750 39.691, 83.644 34.244, 83.039 33.639 C 82.433 33.033, 81.613 33.056, 80.792 33.700 C 80.082 34.259, 74.213 38.868, 67.750 43.943 C 56.780 52.557, 56 53.400, 56 56.640 L 56 60.110 42.339 59.401 L 28.679 58.692 29.339 73.596 C 29.702 81.793, 30.466 102.581, 31.037 119.792 L 32.076 151.083 22.997 166.168 C 18.004 174.464, 14.081 181.414, 14.279 181.612 C 14.477 181.810, 25.182 181.511, 38.069 180.948 C 50.956 180.385, 71.850 180.211, 84.500 180.561 C 105.278 181.136, 151.296 180.079, 180.833 178.349 L 192.166 177.685 178.083 170.266 C 166.689 164.264, 163.989 162.432, 163.942 160.674 C 163.910 159.478, 163.321 153.158, 162.633 146.628 C 161.735 138.110, 161.605 128.080, 162.171 111.128 C 162.855 90.651, 161.871 51.537, 160.641 50.307 C 160.426 50.093, 152.112 51.961, 142.165 54.458 C 127.890 58.043, 122.319 59, 115.718 59 L 107.355 59 104.677 52.480 C 103.205 48.894, 102 45.578, 102 45.111 C 102 44.643, 105.713 40.609, 110.250 36.145 L 118.500 28.030 104.775 28.015 L 91.050 28 91.937 30.250 M 97.434 36.054 C 98.722 38.834, 99.965 41.298, 100.196 41.530 C 100.428 41.761, 103.050 39.487, 106.024 36.475 L 111.432 31 103.262 31 L 95.092 31 97.434 36.054 M 65.250 49.245 C 60.095 53.467, 59 54.893, 59 57.382 C 59 59.060, 59.365 59.978, 59.821 59.450 C 64.365 54.190, 72.362 43.980, 71.872 44.063 C 71.668 44.097, 68.688 46.429, 65.250 49.245 M 92 53.500 L 85.558 60 94.779 60 C 101.494 60, 103.997 59.660, 103.990 58.750 C 103.980 57.448, 99.336 47, 98.767 47 C 98.588 47, 95.543 49.925, 92 53.500 M 32.415 79.750 C 32.809 89.513, 33.516 109.759, 33.986 124.742 L 34.842 151.984 26.864 165.101 C 22.476 172.316, 19.024 178.349, 19.193 178.508 C 19.362 178.667, 28.387 178.552, 39.250 178.253 C 56.490 177.777, 58.998 177.504, 58.985 176.104 C 58.977 175.222, 58.087 164.825, 57.006 153 C 55.306 134.392, 55.128 126.826, 55.683 96.750 L 56.324 62 44.012 62 L 31.700 62 32.415 79.750 M 103.500 63 C 103.840 63.550, 104.793 64, 105.618 64 C 106.443 64, 106.840 63.550, 106.500 63 C 106.160 62.450, 105.207 62, 104.382 62 C 103.557 62, 103.160 62.450, 103.500 63 M 94.750 82.040 L 91 97.580 91.042 120.040 C 91.082 141.182, 91.250 143.175, 93.894 154 C 97.145 167.313, 97.372 166.999, 98.944 147 C 100.077 132.597, 100.209 82.490, 99.141 72.500 L 98.500 66.500 94.750 82.040 M 114.333 74.250 C 115.081 76.037, 118.520 83.930, 121.976 91.789 L 128.259 106.078 126.201 127.289 L 124.144 148.500 128.322 156.252 L 132.500 164.003 133.088 136.752 C 133.422 121.283, 134.406 103.480, 135.365 95.577 C 136.293 87.919, 136.704 81.318, 136.277 80.909 C 135.277 79.951, 115.026 71, 113.858 71 C 113.371 71, 113.585 72.463, 114.333 74.250 M 58.069 116 C 57.981 131.401, 59.868 161.465, 60.861 160.473 C 61.146 160.187, 61.918 155.801, 62.576 150.727 C 63.646 142.465, 63.519 139.460, 61.358 122 C 60.030 111.275, 58.767 102.050, 58.551 101.500 C 58.335 100.950, 58.118 107.475, 58.069 116" stroke="none" fill="black" fill-rule="evenodd"/>
</svg>