<svg xmlns="http://www.w3.org/2000/svg" width="200" height="200" viewBox="0 0 200 200" version="1.1">
	<path d="M 111.510 21.604 L 88.521 30.036 65.083 27.529 C 52.193 26.149, 41.544 25.129, 41.419 25.260 C 41.294 25.392, 36.823 36.075, 31.485 49 C 26.146 61.925, 21.540 72.897, 21.249 73.382 C 20.760 74.196, 27.062 73.846, 39.272 72.379 L 44.044 71.806 43.393 98.153 L 42.742 124.500 52.371 137.666 C 57.667 144.907, 62 151.211, 62 151.675 C 62 152.138, 53.697 158.814, 43.550 166.509 C 33.402 174.204, 25.077 180.785, 25.050 181.134 C 25.022 181.482, 29.995 182.702, 36.101 183.843 L 47.202 185.918 70.710 167.902 C 83.640 157.993, 94.479 150.145, 94.796 150.463 C 95.113 150.780, 97.257 154.216, 99.559 158.099 C 103.683 165.054, 104.038 165.354, 123.826 178.556 L 143.908 191.954 167.400 177.256 C 180.321 169.173, 190.688 162.354, 190.438 162.105 C 190.188 161.855, 182.675 160.638, 173.742 159.400 C 160.630 157.583, 132.782 151.087, 131.133 149.462 C 130.835 149.167, 139.986 138.445, 154.572 122 C 156.485 119.844, 157.203 116.337, 159.792 96.500 L 162.795 73.500 160.889 57.534 C 159.131 42.806, 154.767 25, 152.915 25 C 152.545 25, 148.925 29.271, 144.871 34.490 C 140.817 39.710, 137.230 43.985, 136.899 43.990 C 136.569 43.996, 134.345 41.552, 131.958 38.560 C 129.570 35.567, 127.140 33.392, 126.558 33.725 C 125.976 34.058, 121.900 36.882, 117.500 40 C 107.004 47.438, 107.311 47.297, 106.702 44.967 C 106.282 43.361, 109.269 40.212, 121.588 29.278 C 135.719 16.736, 139.114 12.854, 135.750 13.086 C 135.063 13.133, 124.155 16.967, 111.510 21.604 M 108.580 25.532 L 88.660 32.843 66.154 30.430 C 53.776 29.104, 43.466 28.201, 43.242 28.424 C 42.551 29.116, 26 69.272, 26 70.258 C 26 70.778, 28.096 70.945, 30.750 70.638 C 33.362 70.335, 38.017 69.819, 41.094 69.491 L 46.688 68.895 46.208 96.363 L 45.727 123.830 56.046 138.064 L 66.365 152.297 63.433 154.673 C 61.820 155.980, 53.887 162.088, 45.804 168.245 C 37.721 174.403, 31.281 179.614, 31.492 179.825 C 32.493 180.826, 46.469 182.865, 47.419 182.148 C 48.014 181.700, 59.007 173.316, 71.849 163.518 C 90.036 149.642, 95.400 146.012, 96.111 147.101 C 96.613 147.871, 98.931 151.768, 101.262 155.761 C 105.455 162.945, 105.700 163.157, 124.174 175.511 C 134.445 182.380, 143.361 188, 143.989 188 C 145.287 188, 182.882 164.795, 182.954 163.949 C 182.979 163.647, 177.262 162.612, 170.250 161.651 C 158.734 160.072, 128.548 152.769, 126.787 151.136 C 126.395 150.772, 132.351 143.323, 140.021 134.583 C 149.761 123.485, 154.120 117.758, 154.475 115.596 C 154.754 113.893, 156.115 103.879, 157.500 93.342 C 159.987 74.427, 159.998 74.002, 158.440 59.842 C 156.989 46.650, 155.450 38.945, 152.962 32.399 C 152.020 29.923, 151.876 30.025, 146.201 37.185 C 143.012 41.208, 140.055 45.071, 139.631 45.768 C 139.130 46.591, 141.724 50.367, 147.016 56.518 L 155.172 66 139.336 66 L 123.500 66 120.599 69.636 L 117.697 73.272 122.349 72.575 C 129.608 71.486, 128.204 73.934, 119.190 78.080 C 112.335 81.233, 110.658 82.576, 105.139 89.330 C 100.463 95.053, 99.332 96.992, 100.686 96.970 C 101.684 96.954, 108.766 96.301, 116.425 95.520 C 129.841 94.150, 132 94.203, 132 95.902 C 132 96.333, 121.607 100.469, 108.904 105.093 C 77.335 116.585, 77.265 117, 106.906 117 C 128.289 117, 132.819 117.514, 130.639 119.694 C 129.328 121.005, 78.469 135.696, 78.155 134.855 C 77.965 134.346, 75.666 126.295, 73.047 116.965 L 68.284 100 70.642 100 C 71.939 100, 73 99.648, 73 99.219 C 73 98.789, 70.296 95.762, 66.991 92.491 L 60.982 86.545 64.741 85.456 L 68.500 84.367 63.750 83.622 C 61.138 83.213, 59.016 82.568, 59.036 82.189 C 59.055 81.810, 62.623 79.031, 66.965 76.012 C 71.306 72.994, 74.697 70.363, 74.500 70.166 C 74.303 69.969, 69.334 70.326, 63.458 70.958 C 57.583 71.591, 52.558 71.891, 52.293 71.626 C 51.836 71.170, 68.244 38.869, 70.244 36.287 C 70.916 35.419, 74.051 38.486, 81.240 47.042 L 91.296 59.012 94.648 56.506 C 106.201 47.870, 105.426 49.040, 103.316 43.407 C 102.991 42.538, 121.917 24.711, 128.927 19.282 C 131.572 17.234, 129.231 17.953, 108.580 25.532 M 117.997 43.053 C 113.323 46.383, 109.373 49.463, 109.219 49.897 C 109.064 50.332, 109.818 52.742, 110.894 55.252 C 112.722 59.518, 112.728 61, 110.916 61 C 110.503 61, 109.392 58.975, 108.447 56.500 C 107.502 54.025, 106.429 52, 106.064 52 C 105.699 52, 102.555 54.070, 99.078 56.600 C 92.957 61.054, 92.816 61.256, 94.628 62.960 C 96.273 64.506, 98.041 64.662, 109.192 64.241 L 121.883 63.762 128.475 55.348 C 135.710 46.113, 135.630 47.023, 129.815 40.166 C 128.338 38.425, 126.986 37, 126.811 37 C 126.636 37, 122.670 39.724, 117.997 43.053 M 63.744 54.162 C 59.606 62.048, 56.296 68.587, 56.387 68.693 C 56.478 68.800, 61.975 68.334, 68.601 67.659 C 79.467 66.551, 81.056 66.132, 84.792 63.384 L 88.935 60.338 81.871 51.919 C 70.145 37.944, 72.400 37.665, 63.744 54.162 M 131.500 55.689 C 128.750 59.317, 126.350 62.672, 126.167 63.143 C 125.983 63.614, 130.821 64, 136.917 64 C 144.117 64, 148 63.625, 148 62.931 C 148 61.836, 137.903 49.152, 137 49.113 C 136.725 49.101, 134.250 52.060, 131.500 55.689 M 87.500 64.604 C 85.573 66.087, 85.607 66.132, 88.423 65.822 C 90.030 65.645, 91.530 64.938, 91.756 64.250 C 92.319 62.535, 89.928 62.734, 87.500 64.604 M 104.250 66.737 C 101.362 66.939, 99 67.389, 99 67.738 C 99 68.086, 99.984 69.419, 101.187 70.699 C 102.723 72.334, 103.059 73.341, 102.317 74.083 C 101.575 74.825, 100.357 74.044, 98.226 71.459 L 95.192 67.778 88.218 68.478 C 81.803 69.122, 80.587 69.647, 73.073 75.007 C 66.941 79.382, 65.352 80.958, 66.702 81.330 C 73.295 83.146, 76.627 82.865, 94.143 79.015 C 111.979 75.094, 112.592 74.876, 115.750 71.323 C 117.537 69.312, 119 67.292, 119 66.833 C 119 66.020, 114.885 65.993, 104.250 66.737 M 97.185 80.986 C 90.412 82.532, 84.654 84.013, 84.389 84.277 C 84.125 84.542, 86.433 85.074, 89.519 85.459 C 94.627 86.097, 95.797 85.844, 102.565 82.629 C 106.654 80.687, 110 78.851, 110 78.549 C 110 78.247, 109.888 78.039, 109.750 78.087 C 109.612 78.135, 103.958 79.440, 97.185 80.986 M 99.142 87.169 C 94.891 89.121, 94.549 89.128, 85.142 87.477 C 77.374 86.114, 74.674 86.008, 71.250 86.931 C 68.912 87.561, 67 88.414, 67 88.826 C 67 89.238, 69.205 91.747, 71.899 94.401 L 76.798 99.226 86.004 98.363 L 95.210 97.500 100.199 91.250 C 102.943 87.813, 104.808 85.038, 104.344 85.084 C 103.880 85.131, 101.539 86.069, 99.142 87.169 M 105.574 99.184 C 99.166 99.841, 96.271 100.578, 95.309 101.799 C 90.791 107.534, 89.703 109.329, 91.051 108.821 C 91.848 108.521, 98.350 106.127, 105.500 103.501 C 112.650 100.875, 118.688 98.563, 118.917 98.363 C 119.464 97.886, 116.403 98.074, 105.574 99.184 M 81.163 101.691 C 80.211 102.071, 80.758 103.187, 83.061 105.563 L 86.297 108.901 89.148 105.313 C 90.717 103.340, 92 101.562, 92 101.362 C 92 100.805, 82.675 101.088, 81.163 101.691 M 72 102.478 C 72 103.558, 79.957 131.291, 80.392 131.725 C 80.651 131.985, 89.682 129.565, 100.461 126.348 L 120.058 120.500 98.981 120.230 L 77.904 119.960 81.138 115.457 L 84.372 110.954 79.978 106.477 C 77.561 104.015, 74.777 102, 73.792 102 C 72.806 102, 72 102.215, 72 102.478" stroke="none" fill="black" fill-rule="evenodd"/>
</svg>