<svg xmlns="http://www.w3.org/2000/svg" width="200" height="200" viewBox="0 0 200 200" version="1.1">
	<path d="M 111.665 19.991 L 84.831 26.800 68.665 22.924 C 59.774 20.793, 51.745 19.038, 50.822 19.025 C 49.706 19.008, 48.482 20.758, 47.168 24.250 C 46.082 27.138, 43.986 32.650, 42.510 36.500 L 39.828 43.500 40.453 82 C 40.797 103.175, 41.314 122.122, 41.602 124.104 C 42.075 127.355, 43.097 128.370, 52.063 134.494 C 57.528 138.226, 62 141.462, 62 141.685 C 62 141.908, 55.296 149.172, 47.102 157.827 C 38.908 166.482, 30.622 176.249, 28.688 179.532 C 26.755 182.814, 25.267 185.596, 25.382 185.713 C 25.498 185.830, 36.147 181.969, 49.046 177.132 L 72.500 168.339 82 150.226 C 87.225 140.264, 91.781 131.844, 92.125 131.515 C 92.469 131.186, 94.573 131.646, 96.801 132.537 C 101.627 134.468, 101.397 133.456, 103.099 160.250 C 103.754 170.563, 104.688 179, 105.174 179 C 105.661 179, 115.298 180.378, 126.590 182.061 L 147.121 185.123 166.311 178.973 C 176.865 175.591, 185.843 172.498, 186.261 172.100 C 186.857 171.535, 179.432 136.298, 177.419 130.132 C 177.165 129.355, 171.806 135.609, 164.997 144.629 C 158.410 153.354, 152.672 160.609, 152.245 160.752 C 151.819 160.894, 145.469 155.782, 138.135 149.393 L 124.800 137.776 133.150 132.785 L 141.500 127.794 150.257 112.521 L 159.013 97.247 158.394 76.874 C 157.930 61.598, 158.191 52.029, 159.436 38.631 C 160.349 28.803, 160.951 20.618, 160.775 20.442 C 160.599 20.266, 149.923 29.329, 137.051 40.584 C 123.573 52.367, 113.368 60.596, 112.991 59.985 C 112.551 59.274, 105.029 59.019, 90.212 59.212 L 68.089 59.500 67.423 55.553 C 66.828 52.023, 67.059 51.365, 69.605 49.335 L 72.452 47.064 77.866 50.119 L 83.279 53.175 106.558 43.956 C 122.139 37.786, 129.678 34.326, 129.359 33.492 C 129.074 32.749, 125.978 31.986, 121.690 31.601 C 101.718 29.807, 101.843 29.991, 118.500 26.893 C 126.750 25.359, 134.055 24.080, 134.733 24.052 C 135.765 24.008, 141 15.221, 141 13.533 C 141 12.610, 139.129 13.022, 111.665 19.991 M 113.180 22.474 C 102.004 25.407, 92.587 28.080, 92.253 28.414 C 91.919 28.748, 92.963 28.768, 94.573 28.459 C 96.183 28.150, 105.769 26.392, 115.876 24.553 C 132.801 21.474, 135.930 20.415, 135.985 17.750 C 136.009 16.559, 134.642 16.843, 113.180 22.474 M 50.494 23.250 C 50.251 23.938, 48.465 28.701, 46.526 33.836 C 43.036 43.077, 43 43.331, 43 58.924 C 43 67.587, 43.296 86.187, 43.658 100.257 L 44.316 125.838 54.609 132.934 C 60.269 136.837, 65.123 140.391, 65.396 140.831 C 65.668 141.272, 58.828 149.194, 50.195 158.436 C 41.563 167.678, 33.658 176.553, 32.628 178.157 L 30.756 181.074 37.628 178.457 C 41.408 177.018, 49.675 173.891, 56 171.508 C 62.325 169.125, 68.233 166.884, 69.129 166.527 C 70.025 166.170, 73.350 160.844, 76.518 154.689 C 79.686 148.535, 84.255 139.828, 86.671 135.339 L 91.065 127.178 97.283 129.790 C 100.702 131.227, 103.575 132.425, 103.666 132.452 C 103.758 132.478, 104.319 139.700, 104.914 148.500 C 105.508 157.300, 106.247 167.223, 106.556 170.551 L 107.117 176.603 127.425 179.429 L 147.733 182.255 165.117 176.503 C 174.677 173.339, 182.782 170.469, 183.127 170.125 C 183.624 169.630, 177.464 140.771, 175.884 136.190 C 175.673 135.578, 170.588 141.604, 164.585 149.582 C 158.582 157.559, 153.291 164.320, 152.827 164.607 C 152.363 164.894, 145.125 159.177, 136.742 151.904 C 128.359 144.631, 121.171 138.400, 120.769 138.059 C 120.367 137.717, 124.417 134.816, 129.769 131.611 L 139.500 125.784 147.899 111.161 L 156.298 96.538 155.682 76.519 C 155.266 62.982, 155.504 51.643, 156.417 41.500 C 157.160 33.250, 157.708 26.441, 157.634 26.369 C 157.560 26.296, 147.825 34.722, 136 45.092 C 121.162 58.103, 114.500 64.579, 114.500 65.990 C 114.500 67.469, 113.105 68.681, 109.450 70.378 C 106.673 71.668, 100.241 76.385, 95.158 80.861 L 85.915 89 93.207 88.926 C 97.218 88.886, 107.475 88.508, 116 88.087 C 126.620 87.563, 131.719 87.656, 132.196 88.382 C 132.578 88.965, 132.742 89.592, 132.559 89.774 C 132.376 89.957, 124.188 93.469, 114.363 97.580 C 97.589 104.598, 95.508 105.213, 80.231 107.674 C 71.283 109.115, 63.717 110.051, 63.419 109.752 C 63.121 109.454, 63.832 100.796, 64.999 90.511 C 67.055 72.389, 67.068 71.471, 65.421 60.774 C 63.978 51.406, 63.931 49.609, 65.110 48.896 C 69.334 46.345, 69.583 46.014, 68 45.050 C 61.447 41.061, 61.506 38.020, 68.063 41.794 C 72.622 44.418, 72.530 44.449, 84.851 36.157 L 92.203 31.210 88.198 30.534 C 85.116 30.013, 80.123 30.909, 66.506 34.428 C 46.743 39.536, 47 39.493, 47 37.720 C 47 36.897, 52.809 34.998, 63.250 32.408 L 79.500 28.376 66 25.180 C 50.573 21.528, 51.082 21.591, 50.494 23.250 M 86.980 38.027 C 81.766 41.428, 77.109 44.578, 76.631 45.025 C 76.153 45.472, 77.591 46.771, 79.827 47.912 L 83.892 49.986 102.196 42.826 C 112.263 38.888, 120.864 35.355, 121.308 34.975 C 121.752 34.595, 118.152 33.984, 113.308 33.617 C 108.464 33.251, 102.691 32.701, 100.480 32.396 C 96.822 31.892, 95.606 32.399, 86.980 38.027 M 70.448 66.500 C 69.505 72.789, 71.126 82.601, 73.038 82.172 C 73.842 81.991, 80.964 79.158, 88.865 75.877 C 101.806 70.501, 111 65.083, 111 62.833 C 111 62.375, 102.028 62, 91.061 62 L 71.123 62 70.448 66.500 M 83.552 81.028 C 70.906 86.290, 69.394 86.682, 68.784 84.853 C 68.574 84.222, 67.869 88.804, 67.217 95.036 C 66.566 101.267, 66.202 106.535, 66.409 106.742 C 66.616 106.949, 73.471 106.007, 81.642 104.649 C 94.523 102.508, 98.230 101.432, 109.500 96.560 L 122.500 90.941 100.500 91.518 L 78.500 92.094 81.522 89.297 C 83.185 87.759, 87.235 84.144, 90.522 81.264 C 93.810 78.384, 96.275 76.035, 96 76.043 C 95.725 76.051, 90.123 78.294, 83.552 81.028" stroke="none" fill="black" fill-rule="evenodd"/>
</svg>