<svg xmlns="http://www.w3.org/2000/svg" width="200" height="200" viewBox="0 0 200 200" version="1.1">
	<path d="M 99.185 12.449 L 77.871 17.711 67.185 15.822 L 56.500 13.932 41.117 21.899 C 16.372 34.715, 17.340 35.244, 50.775 27.181 C 64.924 23.769, 77.630 20.982, 79.012 20.989 C 81.874 21.002, 98.688 35.747, 97.312 37.038 C 96.865 37.457, 86.693 40.545, 74.708 43.900 C 53.861 49.735, 52.421 50, 41.517 50 C 34.522 50, 29.863 50.412, 29.459 51.067 C 29.096 51.653, 28.984 52.317, 29.209 52.543 C 29.434 52.768, 42.417 54.127, 58.059 55.562 C 73.702 56.998, 87.850 58.757, 89.500 59.471 C 91.150 60.186, 94.614 61.071, 97.198 61.439 C 100.886 61.963, 101.768 62.441, 101.301 63.658 C 100.782 65.009, 97.855 65.166, 78.603 64.875 L 56.500 64.541 46.500 68.416 C 41 70.547, 36.143 72.604, 35.708 72.988 C 34.591 73.970, 51.899 103, 53.602 103 C 55.391 103, 55.379 102.818, 53.018 94.562 C 51.928 90.750, 51.157 87.509, 51.306 87.361 C 51.820 86.847, 86 97.363, 86 98.035 C 86 98.407, 82.376 99.494, 77.946 100.451 C 73.516 101.408, 68.338 102.620, 66.438 103.145 L 62.984 104.098 63.645 125.383 L 64.307 146.667 52.903 149.702 C 46.632 151.372, 41.275 152.534, 41 152.286 C 40.725 152.037, 40.275 142.345, 40 130.748 C 39.664 116.578, 39.135 109.541, 38.389 109.294 C 37.575 109.024, 13.409 159.961, 9.409 170.376 C 8.950 171.570, 31.622 171.582, 55.732 170.400 L 67.965 169.801 67.732 159.233 L 67.500 148.665 72.465 147.381 C 75.196 146.675, 77.608 146.275, 77.825 146.492 C 78.042 146.709, 81.126 156.018, 84.679 167.179 C 88.232 178.340, 91.357 187.690, 91.624 187.957 C 91.890 188.224, 92.422 187.939, 92.804 187.323 C 95.996 182.189, 133.634 129.035, 134.089 129.020 C 134.413 129.009, 136.655 132.150, 139.071 136 C 141.487 139.850, 144.034 143, 144.732 143 C 146.706 143, 146.350 142.149, 140.898 133.844 L 135.795 126.072 140.446 119.418 C 143.005 115.759, 144.963 112.647, 144.799 112.503 C 144.634 112.360, 139.617 110.753, 133.649 108.932 C 122.939 105.664, 122.753 105.555, 119.399 100.574 C 117.529 97.798, 115.991 94.846, 115.981 94.013 C 115.970 93.181, 118.287 86.987, 121.128 80.250 L 126.295 68 131.731 68 C 138.244 68, 138.584 65.975, 132.280 64.729 L 128.215 63.925 136.038 45.712 C 140.341 35.696, 144.496 27.368, 145.272 27.207 C 146.049 27.046, 147.223 27.564, 147.881 28.357 C 150.149 31.089, 159 75.295, 159 83.888 C 159 91.130, 159.478 93.025, 164.609 106.152 C 167.695 114.043, 173.247 129.386, 176.947 140.248 L 183.676 159.996 180.347 160.915 C 178.516 161.420, 168.170 163.978, 157.357 166.598 L 137.696 171.362 123.732 169.097 C 113.970 167.514, 109.451 167.149, 108.717 167.883 C 107.288 169.312, 108.088 169.527, 124.206 172.042 L 137.911 174.181 161.706 168.447 C 174.792 165.293, 185.842 162.412, 186.261 162.045 C 187.189 161.231, 176.410 129.070, 167.514 106.111 C 161.271 89.998, 160.999 88.929, 160.964 80.400 C 160.937 73.718, 159.840 66.515, 156.565 51.500 C 154.166 40.500, 152.283 31.412, 152.381 31.304 C 152.478 31.197, 159.172 35.332, 167.257 40.495 C 175.837 45.975, 182.220 49.454, 182.590 48.854 C 183.429 47.497, 183.778 47.770, 166.364 36.188 L 151.228 26.121 150.027 20.810 C 147.796 10.949, 147.919 11.075, 145.608 16.304 L 143.500 21.076 132.749 14.038 C 126.835 10.167, 121.660 7.042, 121.249 7.093 C 120.837 7.144, 110.908 9.554, 99.185 12.449 M 102.500 14.492 C 90.094 17.608, 86.176 18.933, 88 19.395 C 92.985 20.656, 129.561 26.992, 131.884 26.996 C 134.923 27.001, 142 24.901, 142 23.994 C 142 22.935, 122.186 9.985, 120.758 10.111 C 120.066 10.172, 111.850 12.143, 102.500 14.492 M 46 22.602 C 40.225 25.627, 36.175 27.915, 37 27.687 C 37.825 27.460, 45.700 25.532, 54.500 23.403 L 70.500 19.532 65.500 18.362 C 57.869 16.576, 57.246 16.712, 46 22.602 M 146 21.882 C 146 22.432, 146.450 23.160, 147 23.500 C 147.550 23.840, 148 23.668, 148 23.118 C 148 22.568, 147.550 21.840, 147 21.500 C 146.450 21.160, 146 21.332, 146 21.882 M 89 24.168 C 89.275 24.407, 92.274 27.198, 95.663 30.371 L 101.827 36.139 113.408 32.898 C 119.778 31.115, 124.879 29.549, 124.745 29.419 C 124.610 29.288, 117.975 28.234, 110 27.077 C 102.025 25.920, 93.925 24.695, 92 24.354 C 90.075 24.013, 88.725 23.930, 89 24.168 M 137.750 28.757 C 136.787 28.971, 136 29.534, 136 30.006 C 136 30.479, 134.762 30.840, 133.250 30.809 C 130.965 30.761, 124.623 32.394, 106.650 37.657 C 105.004 38.139, 105.159 38.569, 108.059 41.561 L 111.318 44.923 108.658 52.128 C 107.195 56.090, 106.196 59.529, 106.437 59.770 C 107.035 60.368, 120.996 62.997, 123.583 62.999 C 125.327 63, 126.852 60.227, 132.959 45.960 C 136.970 36.587, 140.083 28.795, 139.876 28.644 C 139.669 28.492, 138.713 28.543, 137.750 28.757 M 77.500 45.841 L 54.500 52.460 75.750 54.407 C 90.630 55.771, 97 56.717, 97 57.564 C 97 58.229, 98.312 58.966, 99.915 59.201 C 102.696 59.609, 102.954 59.313, 105.534 52.735 L 108.239 45.842 104.923 42.421 C 103.100 40.539, 101.358 39.050, 101.054 39.110 C 100.749 39.171, 90.150 42.200, 77.500 45.841 M 104 64 C 104 64.564, 106.507 64.950, 109.750 64.885 C 115.439 64.771, 115.457 64.761, 111.500 63.943 C 106.012 62.807, 104 62.823, 104 64 M 48.538 70.608 C 43.609 72.523, 39.411 74.255, 39.210 74.457 C 39.009 74.658, 40.956 78.485, 43.538 82.962 C 46.120 87.438, 48.438 90.895, 48.689 90.644 C 48.940 90.393, 48.699 88.570, 48.154 86.594 C 47.608 84.617, 47.299 83, 47.466 83 C 47.634 83, 58.024 86.118, 70.555 89.930 L 93.338 96.859 102.086 94.819 L 110.834 92.779 107.259 87.139 C 105.293 84.038, 102.393 79.601, 100.815 77.281 C 98.810 74.331, 98.126 72.348, 98.542 70.689 L 99.137 68.317 85.411 67.658 C 61.301 66.502, 58.532 66.724, 48.538 70.608 M 101.657 70.205 C 101.243 71.788, 102.643 74.888, 106.626 81.199 C 109.676 86.033, 112.489 90.184, 112.877 90.424 C 113.448 90.777, 119.786 77.252, 122.566 69.750 C 123.157 68.153, 122.295 68, 112.724 68 C 102.749 68, 102.205 68.108, 101.657 70.205 M 106.637 98.200 C 104.489 98.982, 104.114 99.458, 105.137 100.106 C 107.323 101.491, 108.853 101.143, 110 99 C 111.188 96.779, 110.796 96.686, 106.637 98.200 M 112.476 100.075 C 111.698 102.527, 111.697 102.526, 115.330 103.398 L 118.159 104.078 116.364 101.039 C 114.252 97.464, 113.374 97.246, 112.476 100.075 M 78.666 103.019 C 72.157 104.568, 66.589 106.078, 66.292 106.374 C 65.996 106.671, 66.084 115.737, 66.488 126.521 C 67.073 142.110, 67.493 146.025, 68.541 145.623 C 69.265 145.345, 71.465 144.816, 73.429 144.447 C 75.393 144.079, 77 143.561, 77 143.297 C 77 143.033, 74.938 136.331, 72.419 128.403 C 69.899 120.475, 68.012 113.463, 68.227 112.819 C 68.441 112.176, 74.665 109.045, 82.058 105.860 C 96.962 99.441, 96.241 98.837, 78.666 103.019 M 84.500 107.737 C 77.350 110.821, 71.328 113.475, 71.119 113.636 C 70.763 113.909, 78.936 141.031, 79.633 141.892 C 80.249 142.652, 92.068 139.699, 92.779 138.607 C 93.176 137.998, 96.710 130.075, 100.633 121 L 107.766 104.500 105.133 103.295 C 100.776 101.301, 98.075 101.883, 84.500 107.737 M 102.641 123.328 L 94.842 141.656 87.921 143.451 C 84.114 144.438, 81 145.485, 81 145.777 C 81 146.538, 92.033 181.366, 92.385 181.719 C 92.547 181.880, 93.356 181.222, 94.183 180.256 C 96.709 177.308, 131.028 128.091, 131.603 126.593 C 131.899 125.822, 129.583 121.348, 126.457 116.651 C 121.436 109.106, 120.241 107.930, 116.209 106.555 C 113.698 105.700, 111.373 105, 111.042 105 C 110.710 105, 106.930 113.247, 102.641 123.328 M 125.640 110.290 C 129.130 116.251, 134.342 123.031, 134.908 122.347 C 135.294 121.881, 136.819 119.847, 138.297 117.828 L 140.983 114.155 135.742 112.501 C 132.859 111.591, 129.247 110.449, 127.716 109.963 C 125.629 109.301, 125.109 109.383, 125.640 110.290 M 24.836 142.861 C 18.421 156.963, 13.246 168.545, 13.336 168.600 C 13.426 168.655, 25.141 168.483, 39.369 168.219 L 65.237 167.739 64.799 159.383 C 64.557 154.787, 64.097 150.764, 63.776 150.443 C 63.455 150.121, 57.908 151.240, 51.449 152.929 C 44.990 154.618, 39.322 156, 38.853 156 C 38.384 156, 37.950 151.387, 37.888 145.750 C 37.827 140.113, 37.489 131.388, 37.138 126.361 L 36.500 117.222 24.836 142.861" stroke="none" fill="black" fill-rule="evenodd"/>
</svg>