<svg xmlns="http://www.w3.org/2000/svg" width="200" height="200" viewBox="0 0 200 200" version="1.1">
	<path d="M 152.927 26.675 C 147.249 33.179, 141.992 39.239, 141.244 40.143 C 140.039 41.599, 140.572 42.202, 145.942 45.465 C 149.274 47.489, 152 49.308, 152 49.507 C 152 49.707, 151.592 50.943, 151.093 52.255 C 150.241 54.496, 149.801 54.614, 143.843 54.191 C 138.382 53.803, 135.274 52.630, 121.500 45.757 C 112.700 41.367, 105.315 37.603, 105.089 37.393 C 104.864 37.184, 105.498 36.107, 106.500 35 C 109.062 32.169, 107.664 31.391, 104.308 33.780 C 101.694 35.641, 101.241 35.675, 97.750 34.282 C 95.687 33.459, 94.004 32.497, 94.010 32.143 C 94.015 31.789, 98.515 28.652, 104.010 25.170 C 109.504 21.689, 114 18.202, 114 17.420 C 114 16.639, 113.755 16, 113.455 16 C 113.155 16, 105.843 17.769, 97.205 19.931 C 83.057 23.472, 77.981 24.176, 46 27.025 C 26.475 28.765, 10.292 30.391, 10.038 30.639 C 9.785 30.887, 13.947 39.552, 19.288 49.894 C 24.630 60.236, 29 69.666, 29 70.849 C 29 72.032, 29.573 73, 30.274 73 C 30.975 73, 33.675 77.281, 36.274 82.513 L 41 92.026 40.888 106.263 C 40.827 114.093, 40.489 124.770, 40.138 129.989 L 39.500 139.478 31.571 113.739 C 26.859 98.444, 23.146 88, 22.419 88 C 21.665 88, 20.972 90.204, 20.611 93.750 C 19.421 105.427, 15.779 177.112, 16.346 177.679 C 16.669 178.002, 28.986 174.757, 43.716 170.468 C 59.735 165.803, 71.998 162.751, 74.227 162.874 C 76.277 162.986, 86.315 164.141, 96.535 165.439 L 115.116 167.800 127.780 162.400 C 134.745 159.430, 141.018 157, 141.720 157 C 142.422 157, 148.195 160.202, 154.549 164.115 C 160.904 168.029, 166.246 171.066, 166.422 170.865 C 166.598 170.664, 170.063 158.913, 174.121 144.752 L 181.500 119.004 184.444 119.002 L 187.389 119 184.241 116.750 C 182.510 115.513, 174.548 110.297, 166.547 105.161 C 158.546 100.024, 152.002 95.524, 152.005 95.161 C 152.008 94.797, 157.386 90, 163.956 84.500 C 170.527 79, 175.925 73.926, 175.951 73.225 C 175.978 72.524, 178.025 70.728, 180.500 69.233 C 182.975 67.738, 185 66.274, 185 65.981 C 185 65.687, 181.625 63.446, 177.500 61 C 173.375 58.554, 170 56.204, 170 55.777 C 170 55.349, 169.357 55, 168.572 55 C 167.786 55, 164.472 53.409, 161.208 51.464 L 155.272 47.928 160.233 32.361 C 163.444 22.283, 164.851 16.451, 164.222 15.822 C 163.593 15.193, 159.610 19.020, 152.927 26.675 M 91.929 23.930 C 83.612 26.092, 74.387 27.288, 48.665 29.539 C 30.683 31.113, 15.526 32.675, 14.982 33.011 C 14.083 33.567, 30.143 66.367, 31.807 67.370 C 32.188 67.600, 42.850 58.870, 55.500 47.969 C 69.909 35.553, 78.858 28.498, 79.457 29.082 C 80.577 30.173, 81.755 29.019, 63.250 44.960 C 55.412 51.712, 49 57.401, 49 57.602 C 49 57.803, 55.412 53.733, 63.250 48.556 C 77.190 39.349, 77.553 39.018, 79.945 33.322 C 81.290 30.120, 82.485 27.354, 82.602 27.176 C 82.719 26.998, 84.184 27.561, 85.857 28.426 C 90.190 30.667, 90.890 30.507, 98.586 25.521 C 102.389 23.058, 104.825 21.074, 104 21.112 C 103.175 21.150, 97.743 22.418, 91.929 23.930 M 151.641 32.084 C 147.319 37.052, 143.944 41.234, 144.141 41.377 C 146.568 43.145, 152.372 45.961, 152.770 45.563 C 153.559 44.774, 160.011 24.603, 159.739 23.776 C 159.607 23.378, 155.964 27.117, 151.641 32.084 M 83.314 32.750 C 82.972 33.712, 82.469 34.902, 82.198 35.394 C 81.926 35.886, 83.111 35.457, 84.832 34.440 C 87 33.160, 87.582 32.353, 86.730 31.812 C 84.838 30.610, 83.993 30.842, 83.314 32.750 M 85.367 37.439 C 82.559 39.330, 79.938 41.692, 79.542 42.689 C 79.147 43.685, 75.688 52.767, 71.857 62.872 L 64.890 81.244 72.695 89.372 C 76.988 93.842, 80.863 97.659, 81.307 97.852 C 81.751 98.046, 87.601 94.592, 94.307 90.178 C 101.013 85.763, 111.338 79.764, 117.250 76.847 C 123.162 73.930, 128 71.278, 128 70.952 C 128 70.626, 123.162 69.803, 117.250 69.123 C 104.077 67.607, 102 67.121, 102 65.555 C 102 64.721, 107.375 63.619, 118.750 62.121 C 127.963 60.908, 136.813 59.657, 138.418 59.341 C 145.427 57.963, 136.827 57.068, 110.111 56.397 L 81.854 55.686 90.565 46.934 L 99.277 38.182 95.178 36.091 C 92.924 34.941, 90.943 34, 90.776 34 C 90.610 34, 88.176 35.547, 85.367 37.439 M 95.156 46.342 L 88.870 52.685 101.685 53.338 C 108.733 53.698, 118.325 53.963, 123 53.927 L 131.500 53.862 117.500 46.968 C 109.800 43.177, 103.037 40.058, 102.471 40.038 C 101.905 40.017, 98.614 42.854, 95.156 46.342 M 55.268 56.863 C 44.690 63.849, 35.545 70.055, 34.945 70.655 C 34.157 71.443, 35.272 74.571, 38.955 81.910 L 44.055 92.074 43.368 120.577 C 42.731 146.975, 42.095 152.390, 40.023 149.038 C 39.609 148.367, 35.744 136.400, 31.434 122.444 C 27.124 108.488, 23.484 97.182, 23.346 97.321 C 22.875 97.792, 18.871 170.046, 19.186 172.381 C 19.499 174.697, 19.553 174.687, 45.431 167.154 L 71.361 159.606 93.053 162.282 L 114.744 164.958 127.594 159.479 C 134.662 156.466, 141.044 154, 141.777 154 C 142.510 154, 147.904 156.925, 153.765 160.500 C 161.218 165.047, 164.608 166.625, 165.045 165.750 C 166.554 162.731, 178.290 119.957, 177.756 119.423 C 177.224 118.891, 131.120 126.547, 130.376 127.291 C 130.207 127.460, 128.945 131.796, 127.572 136.928 C 126.199 142.060, 124.835 146.498, 124.541 146.792 C 123.971 147.362, 99.818 145.235, 94.053 144.107 L 90.606 143.433 97.829 137.216 C 101.801 133.797, 104.477 131.009, 103.776 131.021 C 103.074 131.032, 92.851 132.370, 81.057 133.994 C 69.264 135.619, 59.421 136.754, 59.184 136.517 C 57.953 135.287, 60.955 132.676, 73.290 124.250 C 83.640 117.180, 87.610 115, 90.137 115 L 93.442 115 87 108.500 C 83.457 104.925, 79.702 102, 78.656 102 C 77.202 102, 77.011 101.692, 77.842 100.690 C 78.679 99.682, 77.190 97.663, 71.395 91.940 C 67.251 87.848, 63.436 83.732, 62.917 82.792 C 62.233 81.553, 63.103 78.126, 66.092 70.292 C 74.059 49.406, 75.943 44.001, 75.225 44.080 C 74.826 44.125, 65.845 49.877, 55.268 56.863 M 153.710 53 C 153.249 54.764, 153.678 54.999, 157.344 54.993 L 161.500 54.987 158.500 53 C 154.760 50.523, 154.358 50.523, 153.710 53 M 145.750 57.662 C 146.438 57.940, 147.563 57.940, 148.250 57.662 C 148.938 57.385, 148.375 57.158, 147 57.158 C 145.625 57.158, 145.063 57.385, 145.750 57.662 M 158.500 59.408 L 151.500 60.578 161.802 65.824 L 172.103 71.070 176.052 68.851 C 178.223 67.630, 179.991 66.377, 179.981 66.066 C 179.955 65.301, 167.349 57.969, 166.317 58.119 C 165.868 58.184, 162.350 58.764, 158.500 59.408 M 129.255 63.294 C 120.870 64.421, 114.159 65.492, 114.341 65.674 C 114.523 65.857, 119.770 66.678, 126 67.500 C 132.230 68.322, 137.492 69.158, 137.692 69.359 C 137.893 69.560, 131.182 73.089, 122.779 77.201 C 114.375 81.313, 102.672 87.866, 96.772 91.762 L 86.044 98.845 92.272 99.393 C 95.697 99.694, 106.936 100.118, 117.248 100.335 L 135.996 100.730 136.988 97.115 C 137.534 95.127, 140.208 86.551, 142.930 78.058 C 145.653 69.564, 147.656 62.252, 147.381 61.808 C 147.107 61.363, 146.346 61.055, 145.691 61.122 C 145.036 61.190, 137.640 62.167, 129.255 63.294 M 147.476 72.750 C 142.487 88.569, 142.090 90, 142.686 90 C 143.597 90, 168.977 73.570, 168.989 72.973 C 169.002 72.348, 152.362 64, 151.103 64 C 150.626 64, 148.994 67.938, 147.476 72.750 M 154.781 85.709 C 147.993 90.115, 146.302 91.659, 147.147 92.677 C 148.016 93.724, 148.956 93.411, 151.866 91.103 C 156.820 87.175, 164.614 80.086, 164 80.066 C 163.725 80.057, 159.576 82.596, 154.781 85.709 M 140.069 96.165 C 139.405 98.381, 139.095 100.429, 139.381 100.714 C 139.943 101.277, 145.854 96.910, 145.945 95.865 C 145.975 95.516, 144.937 94.534, 143.638 93.682 C 141.326 92.167, 141.251 92.219, 140.069 96.165 M 146.827 98.994 L 144.500 100.933 149.250 100.967 C 151.863 100.985, 154 100.827, 154 100.615 C 154 100.403, 152.910 99.516, 151.577 98.642 C 149.328 97.169, 148.987 97.194, 146.827 98.994 M 90.755 108.130 L 97.010 114.490 115.204 110.732 C 131.613 107.343, 134.935 106.170, 134.985 103.750 C 134.993 103.338, 129.221 103, 122.157 103 C 115.093 103, 103.731 102.723, 96.907 102.385 L 84.500 101.771 90.755 108.130 M 139.475 105.040 C 139.054 105.722, 139.808 105.846, 141.666 105.399 C 145.498 104.479, 145.860 104, 142.726 104 C 141.291 104, 139.829 104.468, 139.475 105.040 M 158.500 104.565 C 157.950 104.727, 152.688 105.844, 146.807 107.048 C 136.555 109.146, 136.069 109.363, 135.052 112.281 C 134.468 113.955, 134.152 115.485, 134.349 115.682 C 134.546 115.879, 144.332 115.919, 156.095 115.770 L 177.483 115.500 169.492 110.420 C 159.655 104.167, 159.725 104.204, 158.500 104.565 M 116.586 113.097 C 111.684 114.140, 107.446 115.220, 107.170 115.497 C 106.893 115.774, 110.229 115.998, 114.583 115.995 C 121.509 115.991, 122.876 115.682, 125.500 113.531 C 129.060 110.613, 128.409 110.581, 116.586 113.097 M 129.506 113.994 C 127.971 115.690, 127.930 116, 129.238 116 C 130.089 116, 131.070 115.261, 131.417 114.357 C 132.361 111.894, 131.546 111.739, 129.506 113.994 M 76.251 125.346 C 70.614 129.281, 66.564 132.612, 67.251 132.748 C 67.938 132.885, 77.651 131.746, 88.835 130.218 L 109.171 127.439 114.036 123.469 C 116.711 121.286, 118.923 119.162, 118.950 118.750 C 118.978 118.338, 111.688 118.043, 102.750 118.096 L 86.500 118.193 76.251 125.346 M 118.891 122.875 L 114.524 126.750 121.012 125.787 C 128.109 124.734, 128.459 124.546, 129.455 121.250 C 130.068 119.221, 129.797 119, 126.696 119 C 124.120 119, 122.161 119.973, 118.891 122.875 M 132.667 119.667 C 132.300 120.033, 132 121.179, 132 122.212 C 132 124.302, 131.037 124.371, 148 121.069 L 157.500 119.220 145.417 119.110 C 138.771 119.049, 133.033 119.300, 132.667 119.667 M 116.638 129.100 C 111.571 129.840, 109.821 130.738, 103.725 135.725 L 96.673 141.494 100.587 142.152 C 102.739 142.513, 108.590 143.125, 113.588 143.511 L 122.677 144.214 124.406 137.857 C 125.357 134.361, 126.360 130.713, 126.635 129.750 C 127.201 127.769, 126.199 127.704, 116.638 129.100" stroke="none" fill="black" fill-rule="evenodd"/>
</svg>