<svg xmlns="http://www.w3.org/2000/svg" width="200" height="200" viewBox="0 0 200 200" version="1.1">
	<path d="M 104.466 24.679 C 100.769 31.731, 96.227 40.328, 94.373 43.784 C 92.518 47.241, 91 50.447, 91 50.909 C 91 51.371, 95.500 53.437, 101 55.500 C 106.500 57.563, 111 59.556, 111 59.929 C 111 60.302, 102.945 61.902, 93.100 63.484 C 76.044 66.225, 75.077 66.280, 72.600 64.657 C 71.170 63.720, 70 62.422, 70 61.773 C 70 61.123, 72.570 53.796, 75.712 45.490 L 81.424 30.389 87.888 25.964 L 94.351 21.540 90.926 20.786 C 86.203 19.747, 14.246 12.806, 12.228 13.195 C 11.187 13.395, 15.007 17.075, 22.799 23.378 C 33.332 31.898, 37.106 35.299, 34.250 33.697 C 33.837 33.466, 29.157 30.739, 23.849 27.638 C 14.168 21.982, 11.486 20.959, 12.236 23.209 C 12.458 23.874, 24.413 33.016, 38.802 43.525 C 53.192 54.034, 65.204 62.871, 65.496 63.163 C 65.788 63.454, 65.329 65.361, 64.477 67.400 L 62.928 71.107 68.875 70.435 C 74.219 69.830, 75.159 70.013, 78.161 72.247 C 83.714 76.381, 113.883 92.001, 116.271 91.980 C 117.497 91.969, 125.222 90.628, 133.437 89 C 141.652 87.372, 148.570 86.236, 148.809 86.476 C 149.196 86.863, 146.808 101.104, 143.901 115.750 L 142.858 121 130.005 121 C 117.997 121, 107 119.549, 107 117.965 C 107 117.585, 111.975 112.647, 118.056 106.993 C 124.137 101.338, 128.749 96.396, 128.306 96.011 C 127.567 95.367, 63.880 91.787, 63.310 92.356 C 63.173 92.494, 65.787 98.432, 69.119 105.553 L 75.177 118.500 72.963 128 C 71.745 133.225, 70.455 138.054, 70.095 138.731 C 69.736 139.409, 66.529 130.235, 62.971 118.344 C 59.412 106.454, 56.050 96.130, 55.500 95.402 C 54.446 94.005, 23.003 82.664, 22.256 83.411 C 22.017 83.650, 23.699 97.841, 25.993 114.947 C 30.077 145.394, 30.140 146.315, 29.027 158.636 C 28.401 165.558, 28.071 171.404, 28.293 171.626 C 28.515 171.849, 38.778 172.303, 51.099 172.636 C 72.945 173.226, 74.386 173.399, 109.254 179.621 C 128.919 183.129, 145.807 186, 146.782 186 C 147.758 186, 158.859 179.025, 171.452 170.500 C 184.044 161.975, 193.932 154.999, 193.424 154.999 C 192.916 154.998, 172.084 156.385, 147.132 158.081 C 122.180 159.777, 101.437 160.790, 101.037 160.332 C 100.638 159.874, 99.301 156.728, 98.067 153.340 L 95.823 147.180 100.761 135.840 L 105.698 124.500 111.332 124.201 C 115.270 123.991, 120.510 124.850, 128.733 127.053 C 135.205 128.786, 140.643 130.339, 140.818 130.504 C 140.993 130.668, 140.380 134.921, 139.455 139.955 C 138.530 144.988, 137.991 149.324, 138.257 149.591 C 138.767 150.100, 168.915 137.361, 170.305 136.049 C 170.748 135.631, 165.236 133.764, 158.055 131.900 C 146.176 128.816, 145 128.307, 145 126.255 C 145 124.002, 145.016 124, 162.244 124 L 179.488 124 172.124 118.750 C 168.075 115.863, 161.903 111.444, 158.410 108.931 L 152.058 104.362 162.051 92.036 C 167.547 85.257, 171.860 79.526, 171.635 79.302 C 171.410 79.077, 167.310 79.627, 162.524 80.524 C 157.737 81.421, 153.636 81.970, 153.411 81.744 C 153.185 81.518, 153.511 78.788, 154.136 75.676 C 155.160 70.577, 155.579 69.933, 158.386 69.151 C 176.135 64.207, 191.672 59.509, 192.417 58.862 C 195.193 56.451, 188.589 57.508, 173.482 61.892 C 158.229 66.318, 153.308 67.282, 156.716 65.176 C 157.353 64.782, 158.593 58.844, 159.471 51.980 C 160.349 45.116, 161.328 38.038, 161.645 36.250 C 162.083 33.783, 161.865 33, 160.738 33 C 159.345 33, 158.005 38.743, 153.455 64.209 C 152.830 67.708, 152.473 68.009, 147.146 69.527 C 144.041 70.412, 139.810 71.627, 137.744 72.228 C 135.678 72.829, 133.728 73.062, 133.412 72.745 C 133.096 72.429, 133.164 63.321, 133.563 52.505 L 134.289 32.839 140.645 29.705 C 144.140 27.981, 147 26.301, 147 25.971 C 147 25.521, 120.874 15.181, 112.344 12.255 C 111.696 12.032, 108.227 17.504, 104.466 24.679 M 103.625 32.097 C 98.806 41.377, 95.096 49.346, 95.380 49.806 C 95.664 50.266, 101.770 52.854, 108.948 55.557 C 116.127 58.260, 122 60.719, 122 61.021 C 122 61.323, 112.485 63.129, 100.855 65.035 C 89.225 66.941, 79.712 68.950, 79.714 69.500 C 79.717 70.050, 87.749 74.797, 97.564 80.048 L 115.409 89.596 127.454 87.306 C 134.079 86.046, 141.836 84.535, 144.691 83.949 L 149.883 82.883 151.029 77.362 C 151.659 74.326, 152.007 71.674, 151.803 71.470 C 151.599 71.265, 146.787 72.454, 141.111 74.111 C 135.435 75.768, 130.633 76.966, 130.440 76.773 C 130.247 76.580, 130.365 66.174, 130.704 53.649 L 131.318 30.877 135.813 28.592 C 138.285 27.336, 139.838 26.018, 139.265 25.664 C 138.271 25.050, 123.484 19.249, 115.943 16.515 L 112.387 15.225 103.625 32.097 M 19 16.332 C 19 16.659, 44.318 37.346, 54.933 45.693 C 55.172 45.880, 54.886 46.514, 54.298 47.102 C 53.540 47.860, 52.107 47.465, 49.365 45.743 C 44.200 42.499, 41 40.830, 41 41.381 C 41 42.359, 66.130 60.038, 66.869 59.581 C 67.303 59.313, 70.257 52.174, 73.434 43.718 C 78.817 29.390, 79.473 28.180, 83.062 25.961 C 85.181 24.652, 86.782 23.449, 86.621 23.288 C 86.460 23.127, 73.092 21.650, 56.914 20.007 C 40.736 18.363, 25.587 16.761, 23.250 16.448 C 20.913 16.134, 19 16.082, 19 16.332 M 67.636 66.506 C 67.321 67.328, 67.472 68, 67.972 68 C 69.328 68, 70.170 66.223, 69.121 65.575 C 68.620 65.265, 67.952 65.684, 67.636 66.506 M 157.390 84.249 L 152.280 85.235 150.736 93.867 C 149.887 98.615, 149.290 102.603, 149.408 102.728 C 149.526 102.854, 153.312 98.466, 157.821 92.978 C 166.512 82.400, 166.516 82.488, 157.390 84.249 M 25.445 90.163 C 25.757 91.998, 27.570 105.275, 29.474 119.666 C 32.668 143.801, 32.860 146.705, 31.951 157.066 C 31.409 163.244, 31.205 168.539, 31.499 168.832 C 31.792 169.126, 42.263 169.717, 54.766 170.145 C 76.525 170.891, 78.927 171.183, 110.776 176.962 C 129.078 180.283, 144.978 183, 146.109 183 C 147.801 183, 184.623 159.074, 183.767 158.531 C 183.620 158.438, 165.725 159.602, 144 161.116 C 122.275 162.631, 103.327 163.900, 101.893 163.935 C 99.533 163.994, 98.979 163.206, 96.038 155.598 L 92.789 147.196 98.395 134.430 C 101.478 127.408, 104 121.322, 104 120.905 C 104 120.488, 103.283 120.001, 102.406 119.823 C 101.349 119.609, 104.566 116.005, 111.952 109.129 C 118.078 103.425, 122.945 98.612, 122.767 98.434 C 122.589 98.256, 113.681 97.639, 102.972 97.062 C 92.262 96.486, 79.795 95.746, 75.267 95.419 L 67.034 94.823 72.563 106.589 L 78.091 118.354 74.366 134.177 C 72.317 142.880, 70.384 149.994, 70.070 149.986 C 69.757 149.978, 65.900 137.999, 61.500 123.364 L 53.500 96.757 41.500 92.518 C 23.149 86.036, 24.783 86.276, 25.445 90.163 M 147.187 113.118 C 146.510 117.063, 146.131 120.465, 146.345 120.678 C 146.558 120.891, 151.991 120.938, 158.417 120.783 L 170.102 120.500 160.564 113.724 C 155.318 109.997, 150.439 106.722, 149.721 106.447 C 148.784 106.087, 148.070 107.968, 147.187 113.118 M 134.500 125.570 C 140.892 127.349, 142 127.338, 142 125.500 C 142 124.317, 140.679 124.019, 135.750 124.089 L 129.500 124.179 134.500 125.570 M 143.578 133.193 C 142.261 139.417, 141.160 145.493, 141.321 145.652 C 141.419 145.749, 146.342 143.772, 152.260 141.258 C 158.179 138.744, 162.855 136.522, 162.653 136.320 C 162.450 136.117, 158.958 135.043, 154.892 133.933 C 150.827 132.823, 146.727 131.683, 145.783 131.400 C 144.581 131.040, 143.920 131.577, 143.578 133.193" stroke="none" fill="black" fill-rule="evenodd"/>
</svg>