<svg xmlns="http://www.w3.org/2000/svg" width="200" height="200" viewBox="0 0 200 200" version="1.1">
	<path d="M 37 16.270 C 37 18.068, 32.041 33.230, 25.981 49.962 C 19.920 66.695, 15.101 80.804, 15.272 81.315 C 15.442 81.827, 19.341 83.653, 23.936 85.373 L 32.290 88.500 34.328 94.221 L 36.367 99.941 31.825 126.499 C 29.328 141.106, 27.635 153.274, 28.064 153.539 C 28.493 153.804, 26.805 160.118, 24.314 167.570 C 21.823 175.022, 19.986 181.320, 20.232 181.566 C 20.750 182.083, 75.078 162.164, 76.344 160.993 C 76.808 160.564, 74.005 155.469, 70.115 149.671 L 63.043 139.130 64.420 135.315 C 65.177 133.217, 66.334 130.150, 66.990 128.500 L 68.183 125.500 72.550 130.425 L 76.916 135.350 78.041 132.425 C 78.659 130.816, 82.840 117.472, 87.332 102.772 C 91.825 88.071, 95.774 76.033, 96.108 76.022 C 96.443 76.010, 98.371 78.492, 100.393 81.537 L 104.070 87.074 107.032 116.287 C 108.661 132.354, 109.996 146.210, 109.997 147.077 C 109.999 148.345, 84.446 172.324, 73.130 181.673 C 70.857 183.551, 70.728 183.935, 72.179 184.503 C 73.261 184.926, 83.818 180.293, 101.900 171.460 L 129.944 157.761 156.722 167.731 C 172.487 173.601, 183.899 177.343, 184.470 176.831 C 185.063 176.299, 178.133 168.645, 166.657 157.157 L 147.873 138.354 159.937 109.317 L 172 80.279 171.864 61.890 C 171.790 51.775, 171.452 38.136, 171.114 31.579 L 170.500 19.658 165.194 18.185 C 161.409 17.135, 159.579 17.021, 158.812 17.788 C 158.045 18.555, 159.121 19.266, 162.565 20.271 C 174.763 23.827, 167.392 24.485, 102.763 25.608 L 66.026 26.246 58.945 20.525 C 55.050 17.378, 51.611 15.056, 51.303 15.364 C 50.994 15.672, 49.301 24.280, 47.540 34.493 C 45.779 44.706, 43.925 53.422, 43.419 53.862 C 42.914 54.303, 40.606 55.201, 38.292 55.859 C 32.714 57.445, 33.304 60.037, 39.067 59.264 C 41.230 58.974, 43.011 59.133, 43.025 59.618 C 43.114 62.696, 37.483 92.799, 36.888 92.431 C 36.484 92.181, 35.864 90.659, 35.511 89.049 C 34.932 86.413, 34.049 85.850, 26.684 83.424 C 22.183 81.941, 18.375 80.626, 18.221 80.502 C 18.068 80.378, 22.906 66.543, 28.971 49.759 C 39.813 19.758, 41.565 13, 38.500 13 C 37.473 13, 37 14.030, 37 16.270 M 52.515 22.250 C 51.467 26.758, 47.180 52.507, 47.435 52.765 C 47.579 52.911, 51.544 51.837, 56.246 50.379 L 64.796 47.729 60.528 37.401 C 58.180 31.721, 56.501 26.832, 56.796 26.537 C 57.092 26.242, 58.220 26, 59.304 26 C 60.864 26, 60.488 25.375, 57.500 23 C 55.424 21.350, 53.570 20, 53.382 20 C 53.193 20, 52.803 21.012, 52.515 22.250 M 113 28.051 C 97.325 28.422, 81.125 28.797, 77 28.885 C 68.499 29.066, 68.210 28.106, 79.402 36.863 C 84.568 40.905, 85.255 41.165, 88.739 40.390 L 92.500 39.554 88.187 39.216 C 85.450 39.002, 84.016 38.451, 84.264 37.708 C 84.505 36.985, 95.713 34.955, 113.577 32.400 C 142.319 28.288, 149.072 27.157, 144 27.305 C 142.625 27.345, 128.675 27.681, 113 28.051 M 143.245 30.862 C 129.904 32.765, 119.107 34.440, 119.251 34.584 C 119.394 34.728, 125.584 34.498, 133.006 34.074 C 140.428 33.650, 146.678 33.451, 146.895 33.631 C 147.478 34.112, 142.389 101.944, 141.721 102.613 C 140.519 103.814, 111.427 86.681, 106.084 81.625 C 101.159 76.965, 100.870 76.817, 102.888 80 C 106.735 86.065, 106.881 86.852, 110.007 118.437 C 112.944 148.108, 112.997 149.444, 111.285 151.063 C 110.303 151.992, 104.100 157.593, 97.500 163.511 C 84.336 175.314, 80.984 178.511, 82.500 177.818 C 83.050 177.567, 93.905 172.288, 106.622 166.087 L 129.744 154.814 153.407 163.539 C 166.421 168.338, 177.298 172.036, 177.577 171.756 C 177.857 171.476, 170.559 164.023, 161.360 155.192 L 144.635 139.137 156.881 109.583 L 169.128 80.029 169.034 54.872 C 168.982 41.036, 168.616 29.195, 168.220 28.558 C 167.689 27.704, 161.148 28.308, 143.245 30.862 M 61.570 32.750 C 62.448 34.813, 64.067 38.750, 65.167 41.500 C 66.267 44.250, 67.257 46.590, 67.367 46.700 C 67.477 46.810, 70.833 45.903, 74.824 44.684 L 82.082 42.468 73.612 35.734 C 68.090 31.344, 64.243 29, 62.558 29 L 59.973 29 61.570 32.750 M 126.664 37.068 C 119.604 37.492, 113.646 38.020, 113.424 38.242 C 113.202 38.464, 117.979 48.043, 124.039 59.528 C 130.131 71.074, 134.804 81.068, 134.492 81.882 C 133.788 83.716, 134.867 84.876, 118.036 64.200 C 110.738 55.235, 104.603 48.064, 104.403 48.264 C 103.838 48.829, 98 68.100, 98 69.400 C 98 70.034, 101.037 73.523, 104.750 77.152 C 109.903 82.190, 114.811 85.554, 125.500 91.376 C 134.190 96.108, 139.588 98.526, 139.733 97.750 C 140.121 95.673, 144 42.284, 144 39.027 C 144 36.511, 143.621 36.025, 141.750 36.149 C 140.512 36.230, 133.724 36.644, 126.664 37.068 M 96.097 40.912 L 87.694 43.615 90.917 46.138 L 94.139 48.660 80.070 63.750 C 72.331 72.049, 66 79.044, 66 79.294 C 66 79.543, 69.621 82.125, 74.047 85.031 C 78.473 87.936, 81.891 90.806, 81.644 91.407 C 77.925 100.454, 70 121.408, 70 122.195 C 70 124.050, 75.993 130.202, 76.434 128.799 C 76.659 128.085, 78.205 123.225, 79.871 118 C 81.537 112.775, 85.414 100.267, 88.486 90.204 L 94.071 71.908 91.972 68.961 C 89.458 65.430, 90.267 63.027, 93.105 65.595 C 94.154 66.545, 95.189 67.136, 95.404 66.911 C 95.620 66.685, 97.250 61.550, 99.026 55.500 C 100.802 49.450, 102.556 43.932, 102.924 43.238 C 103.352 42.430, 106.992 46.150, 113.046 53.583 C 126.556 70.168, 126.540 70.152, 122.746 63 C 120.850 59.425, 117.099 52.337, 114.412 47.250 C 108.739 36.509, 109.244 36.683, 96.097 40.912 M 75.734 47.220 C 68.973 49.306, 68.968 49.311, 69.565 52.497 L 70.164 55.687 58.233 56.935 L 46.302 58.183 43.550 74.067 L 40.799 89.951 54.088 105.100 L 67.377 120.250 72.641 106.875 C 75.535 99.519, 77.925 92.968, 77.952 92.319 C 77.978 91.669, 74.367 88.578, 69.928 85.449 L 61.855 79.760 64.231 77.130 C 65.537 75.684, 71.860 68.832, 78.282 61.904 L 89.958 49.309 87.664 47.154 C 84.902 44.559, 84.343 44.563, 75.734 47.220 M 58.500 52.577 L 51.500 54.776 57.500 54.242 C 64.775 53.594, 67.148 52.828, 66.209 51.432 C 65.732 50.722, 63.212 51.096, 58.500 52.577 M 40 98.455 C 40 100.354, 41.090 104.912, 42.422 108.583 L 44.845 115.257 34.401 145.814 C 28.657 162.620, 24.079 176.682, 24.228 177.063 C 24.455 177.640, 71.769 160.564, 72.801 159.533 C 72.987 159.346, 70.165 154.726, 66.529 149.265 L 59.919 139.336 63.086 131.243 L 66.254 123.150 53.959 109.075 C 47.197 101.334, 41.290 95, 40.832 95 C 40.375 95, 40 96.555, 40 98.455 M 35.603 122.189 C 34.074 131.160, 32.634 139.625, 32.403 141 C 32.173 142.375, 34.216 137.052, 36.944 129.170 L 41.904 114.840 40.144 110.359 L 38.383 105.877 35.603 122.189" stroke="none" fill="black" fill-rule="evenodd"/>
</svg>