<svg xmlns="http://www.w3.org/2000/svg" width="200" height="200" viewBox="0 0 200 200" version="1.1">
	<path d="M 108 16.634 C 65.671 22.319, 67 22.092, 67 23.615 C 67 24.679, 67.916 24.882, 70.750 24.442 C 72.813 24.122, 87.550 22.148, 103.500 20.055 L 132.500 16.250 148.668 26.326 L 164.835 36.403 161.751 40.697 C 156.374 48.185, 158.759 47.771, 126 46.901 C 109.775 46.471, 95.037 45.846, 93.250 45.514 C 89.454 44.808, 89.269 43.658, 91.480 34.500 C 93.186 27.434, 93.369 24, 92.039 24 C 91.511 24, 88.309 27.573, 84.924 31.940 L 78.769 39.880 73.635 37.841 C 70.811 36.720, 66.293 34.927, 63.596 33.855 C 60.899 32.784, 58.376 32.266, 57.990 32.704 C 57.604 33.142, 55.336 36.186, 52.950 39.470 C 49.196 44.636, 47.897 47.932, 43.306 63.948 C 40.388 74.127, 38 82.631, 38 82.844 C 38 83.058, 38.946 82.986, 40.103 82.683 C 42.197 82.136, 42.205 82.219, 41.853 102.078 C 41.613 115.660, 41.833 121.895, 42.544 121.622 C 46.180 120.226, 60.926 109.777, 61.349 108.297 C 61.631 107.309, 62.381 103.800, 63.015 100.500 C 63.649 97.200, 64.839 91.471, 65.660 87.768 L 67.152 81.037 71.326 83.139 C 73.622 84.296, 75.986 85.629, 76.580 86.103 C 77.335 86.704, 76.214 93.801, 72.860 109.652 C 70.219 122.132, 67.708 132.653, 67.279 133.034 C 66.851 133.415, 59.075 134.292, 50.001 134.982 C 40.926 135.672, 31.522 136.521, 29.103 136.869 L 24.704 137.500 42.539 157.763 C 52.348 168.908, 60.676 177.683, 61.046 177.263 C 61.416 176.844, 63.593 167.527, 65.883 156.559 C 68.174 145.592, 70.174 136.493, 70.328 136.338 C 70.649 136.018, 90.399 134.119, 90.693 134.381 C 91.043 134.693, 78.763 176.486, 78.125 177.155 C 77.414 177.899, 27.973 181.306, 27.322 180.655 C 27.088 180.422, 25.079 169.491, 22.856 156.365 L 18.814 132.500 19.452 98 L 20.091 63.500 24.152 49.946 L 28.214 36.393 41.540 33.547 C 55.430 30.580, 57.490 29.870, 56.872 28.268 C 56.552 27.440, 27.411 33.255, 26.298 34.369 C 26.088 34.579, 23.957 41.219, 21.564 49.125 L 17.211 63.500 16.573 97.500 L 15.935 131.500 20.117 157 C 22.417 171.025, 24.598 182.844, 24.965 183.265 C 25.619 184.018, 79.612 180.766, 80.357 179.929 C 80.567 179.693, 83.662 169.379, 87.234 157.008 L 93.728 134.516 97.614 133.889 C 99.751 133.544, 104.821 132.999, 108.880 132.678 L 116.260 132.095 114.130 134.362 C 112.958 135.609, 111.991 137.050, 111.980 137.564 C 111.952 138.874, 135.387 191.952, 136 191.967 C 136.922 191.990, 165.986 131.562, 167.466 126.547 C 168.269 123.822, 168.813 121.480, 168.675 121.342 C 168.537 121.203, 159.503 118.604, 148.601 115.566 C 133.572 111.377, 126.743 108.932, 120.359 105.452 L 111.940 100.863 115.162 95.002 L 118.384 89.141 122.442 91.446 C 124.674 92.713, 131.172 96.340, 136.883 99.506 L 147.265 105.262 166.133 100.943 C 176.510 98.569, 184.969 96.147, 184.930 95.563 C 184.892 94.978, 179.590 83.720, 173.149 70.545 L 161.438 46.589 146.972 63.359 L 132.505 80.128 129.503 76.783 C 127.851 74.943, 122.518 68.569, 117.651 62.618 C 112.783 56.668, 108.452 52.182, 108.025 52.649 C 107.599 53.117, 104.662 61.375, 101.500 71 C 98.338 80.625, 95.436 88.848, 95.051 89.274 C 94.667 89.700, 92.178 85.205, 89.521 79.286 L 84.690 68.524 85.886 61.405 C 86.544 57.489, 87.530 52.663, 88.078 50.681 C 88.977 47.423, 89.300 47.163, 91.438 47.976 C 92.738 48.471, 108.163 49.195, 125.714 49.587 L 157.625 50.298 163.288 43.009 L 168.951 35.721 152.310 25.307 C 143.158 19.580, 134.957 14.545, 134.085 14.119 C 133.213 13.693, 121.475 14.825, 108 16.634 M 85.004 36.145 C 81.833 40.090, 81.763 40.353, 83.528 41.644 C 84.548 42.390, 85.709 43, 86.108 43 C 86.870 43, 89.301 32.967, 88.688 32.354 C 88.493 32.160, 86.836 33.865, 85.004 36.145 M 55.350 40.863 C 52.254 45.071, 50.413 49.210, 48.090 57.187 C 45.024 67.715, 44.974 68.241, 44.739 92.437 C 44.608 105.947, 44.646 117, 44.825 117 C 45.004 117, 48.172 115.045, 51.866 112.655 L 58.582 108.311 62.344 89.905 C 66.859 67.815, 66.866 67.788, 68.335 68.279 C 69.430 68.645, 69.481 73.419, 68.430 77.074 C 68.112 78.178, 69.472 79.347, 72.986 80.993 C 75.740 82.284, 78.176 83.150, 78.398 82.920 C 78.620 82.689, 79.356 79.125, 80.033 75 L 81.264 67.500 77.132 58.610 C 74.859 53.721, 73 49.169, 73 48.495 C 73 47.821, 73.896 46.131, 74.990 44.740 L 76.980 42.209 72.740 40.502 C 70.408 39.563, 66.475 37.992, 63.999 37.010 L 59.499 35.226 55.350 40.863 M 77.750 45.543 C 75.461 48.595, 75.467 48.640, 79.220 56.638 L 82.439 63.500 83.688 58 C 86.037 47.654, 85.879 45.850, 82.500 44.451 C 79.774 43.323, 79.340 43.422, 77.750 45.543 M 146.531 68 C 138.962 76.800, 132.484 83.977, 132.135 83.949 C 131.786 83.921, 126.581 77.852, 120.570 70.463 C 114.558 63.073, 109.511 57.156, 109.353 57.313 C 108.773 57.894, 96.895 93.227, 97.192 93.488 C 98.161 94.341, 108.099 99, 108.950 99 C 109.509 99, 111.063 96.862, 112.403 94.250 C 117.309 84.689, 115.740 84.718, 132.467 93.881 C 140.619 98.347, 147.707 102, 148.220 102 C 150.741 102, 181 94.562, 181 93.942 C 181 92.923, 161.194 52, 160.701 52 C 160.476 52, 154.100 59.200, 146.531 68 M 82.595 76.500 C 82.192 78.700, 81.631 81.471, 81.346 82.658 C 80.929 84.401, 81.720 85.338, 85.460 87.529 C 88.007 89.022, 90.303 90.030, 90.564 89.770 C 90.824 89.509, 89.302 85.517, 87.181 80.898 L 83.326 72.500 82.595 76.500 M 80 88.445 C 80 88.704, 77.970 98.679, 75.488 110.612 C 73.006 122.546, 71.145 132.478, 71.351 132.685 C 71.923 133.256, 90.716 131.802, 91.728 131.108 C 92.216 130.774, 94.559 126.900, 96.934 122.500 C 99.310 118.100, 102.799 111.708, 104.688 108.295 L 108.122 102.090 102.311 99.186 C 99.115 97.589, 95.938 96.481, 95.250 96.724 C 94.563 96.968, 94 96.685, 94 96.096 C 94 95.507, 90.850 93.439, 87 91.500 C 83.150 89.561, 80 88.186, 80 88.445 M 103.001 117.067 C 99.041 124.254, 96.033 130.366, 96.316 130.650 C 96.600 130.933, 101.673 130.678, 107.590 130.083 C 113.506 129.487, 119.663 129, 121.270 129 L 124.193 129 119.384 133.355 L 114.574 137.709 125.037 161.353 C 130.792 174.357, 135.739 184.998, 136.031 184.998 C 136.997 185.001, 164.032 129.561, 164.624 126.361 C 165.297 122.728, 167.124 123.541, 143.500 116.960 C 134.164 114.360, 125.270 111.124, 119.946 108.391 C 115.241 105.976, 111.124 104, 110.797 104 C 110.469 104, 106.961 109.880, 103.001 117.067 M 47.293 137.893 L 30.085 139.500 44.122 155.500 C 51.842 164.300, 58.491 171.846, 58.898 172.269 C 59.470 172.863, 67 139.798, 67 136.693 C 67 136.312, 66.438 136.064, 65.750 136.143 C 65.063 136.221, 56.757 137.008, 47.293 137.893" stroke="none" fill="black" fill-rule="evenodd"/>
</svg>