<svg xmlns="http://www.w3.org/2000/svg" width="200" height="200" viewBox="0 0 200 200" version="1.1">
	<path d="M 41 21.822 C 41 23.028, 40.368 23.725, 39.351 23.639 C 38.067 23.531, 35.222 30.297, 26.497 54.203 L 15.291 84.905 17.896 85.418 C 19.328 85.701, 22.300 86.211, 24.500 86.553 C 31.240 87.600, 31.739 87.929, 32.772 91.999 L 33.771 95.935 23.525 96.217 L 13.280 96.500 24.528 117.490 L 35.776 138.480 29.470 156.490 C 26.002 166.395, 22.625 175.985, 21.966 177.801 C 21.308 179.617, 20.999 181.332, 21.281 181.614 C 21.562 181.896, 33.534 177.366, 47.884 171.547 L 73.975 160.968 86.660 171.497 C 94.443 177.956, 99.955 181.845, 100.923 181.558 C 101.790 181.302, 113.975 178.596, 128 175.547 C 142.025 172.497, 159.912 167.959, 167.750 165.462 L 182 160.923 182.012 157.211 C 182.018 155.170, 181.512 139.550, 180.886 122.500 C 179.772 92.123, 179.805 90.871, 182.490 60.199 C 183.998 42.983, 185.063 28.730, 184.858 28.525 C 184.653 28.320, 173.239 28.783, 159.493 29.553 C 145.747 30.324, 132.813 30.965, 130.750 30.977 L 127 31 127 25.933 C 127 21.140, 126.878 20.903, 124.750 21.554 C 123.513 21.933, 115.022 24.663, 105.882 27.621 C 96.742 30.580, 88.380 33, 87.299 33 C 85.741 33, 69.234 28.327, 42.750 20.390 C 41.501 20.015, 41 20.425, 41 21.822 M 44.171 25.012 C 44.412 25.736, 49.513 29.455, 55.506 33.277 L 66.403 40.226 73.702 37.937 C 77.716 36.678, 80.999 35.390, 80.999 35.074 C 80.998 34.758, 73.517 32.306, 64.374 29.624 C 42.422 23.184, 43.655 23.466, 44.171 25.012 M 112 28.500 L 102.500 31.843 111 31.908 C 122.378 31.995, 124 31.492, 124 27.883 C 124 26.201, 123.479 25.033, 122.750 25.079 C 122.063 25.122, 117.225 26.661, 112 28.500 M 29.735 53.250 C 24.468 67.688, 19.873 80.228, 19.523 81.117 C 18.999 82.451, 20.157 82.979, 26.110 84.124 L 33.332 85.512 34.916 90.213 C 37.926 99.145, 38.640 98.043, 39.343 83.385 C 40.318 63.051, 40.162 52.562, 38.864 51.264 C 38.017 50.417, 38.144 49.714, 39.364 48.493 C 40.659 47.198, 41 44.787, 41 36.929 C 41 31.468, 40.620 27, 40.156 27 C 39.692 27, 35.003 38.813, 29.735 53.250 M 43.589 38.245 C 43.215 43.194, 43.043 47.345, 43.205 47.469 C 43.367 47.593, 47.971 46.294, 53.436 44.582 L 63.371 41.470 53.820 35.358 L 44.268 29.247 43.589 38.245 M 151.581 32.638 C 138.425 33.390, 127.432 34.235, 127.151 34.516 C 126.870 34.797, 126.444 38.761, 126.205 43.325 L 125.769 51.623 141.973 54.557 C 150.886 56.171, 158.588 57.745, 159.090 58.056 C 159.872 58.539, 153.903 82.431, 152.699 83.634 C 152.465 83.868, 146.474 79.055, 139.387 72.938 L 126.500 61.815 126 76.576 C 125.661 86.572, 125.122 91.463, 124.329 91.726 C 123.051 92.149, 122.630 89.301, 120.969 69 L 119.946 56.500 115.223 52.217 C 112.625 49.861, 109.375 47.100, 108 46.081 L 105.500 44.228 87.707 57.291 L 69.914 70.355 75.506 76.006 L 81.099 81.658 80.057 88.079 C 78.381 98.409, 77.918 97.746, 87.250 98.391 C 91.787 98.706, 102.475 99.200, 111 99.491 C 119.525 99.781, 131.113 100.294, 136.750 100.629 L 147 101.239 147.007 113.869 L 147.014 126.500 154.507 132.487 C 165.248 141.069, 164.685 142.319, 151.500 139.159 L 144.500 137.482 144 132.277 C 143.519 127.271, 143.243 126.860, 136.777 121.536 C 133.079 118.491, 129.680 116, 129.224 116 C 128.767 116, 126.683 123.987, 124.593 133.750 C 118.191 163.648, 117.842 165, 116.525 165 C 115.585 165, 115.103 160.503, 114.621 147.250 C 114.266 137.488, 113.702 123.836, 113.368 116.912 L 112.761 104.325 95.765 103.040 C 81.792 101.985, 78.625 101.989, 77.961 103.063 C 77.110 104.440, 75.536 115.958, 76.145 116.353 C 76.340 116.480, 78.418 117.812, 80.763 119.315 C 84.139 121.477, 84.929 122.510, 84.558 124.273 C 84.300 125.498, 83.374 131.225, 82.500 137 C 80.348 151.219, 80.150 152, 78.694 152 C 77.431 152, 76.077 148.185, 66.023 116.318 L 60.918 100.135 51.481 99.818 L 42.043 99.500 41.430 103.603 C 41.016 106.372, 41.471 109.884, 42.829 114.411 L 44.841 121.118 42.420 128.234 C 41.039 132.295, 39.985 137.743, 39.965 140.925 C 39.933 145.883, 39.793 146.255, 38.697 144.284 C 37.583 142.278, 36.928 143.607, 31.799 158.284 C 28.682 167.203, 25.833 175.277, 25.468 176.227 C 24.980 177.496, 31.361 175.290, 49.486 167.925 C 70.565 159.360, 74.412 158.086, 75.828 159.198 C 76.740 159.914, 82.510 164.650, 88.651 169.721 L 99.817 178.943 126.658 173.005 C 141.421 169.739, 159.238 165.236, 166.250 162.999 L 179 158.931 178.998 151.215 C 178.997 146.972, 178.524 131.800, 177.947 117.500 C 176.953 92.904, 177.035 89.970, 179.448 63.176 C 180.852 47.597, 182 33.985, 182 32.926 C 182 31.392, 181.339 31.028, 178.750 31.136 C 176.963 31.210, 164.736 31.886, 151.581 32.638 M 102.500 34.960 C 91.408 35.487, 88.051 36.067, 79.630 38.911 L 69.759 42.245 72.880 44.221 C 74.596 45.307, 76 46.527, 76 46.932 C 76 48.852, 74.452 48.699, 71.147 46.454 C 69.161 45.104, 66.835 44, 65.978 44 C 64.018 44, 44.740 49.951, 43.816 50.841 C 43.440 51.203, 47.827 55.486, 53.566 60.358 C 59.305 65.231, 64 69.618, 64 70.108 C 64 72.221, 61.238 70.517, 52.551 63.044 L 43.303 55.088 42.651 67.201 C 42.293 73.863, 42 83.293, 42 88.157 L 42 97 49.846 97 C 54.162 97, 61.740 97.287, 66.687 97.638 L 75.681 98.277 76.934 90.510 L 78.187 82.742 71.959 76.459 L 65.731 70.175 81.115 58.799 C 89.577 52.543, 98.622 45.913, 101.217 44.067 L 105.933 40.709 112.399 46.229 C 117.526 50.605, 119.397 51.647, 121.433 51.258 C 123.946 50.777, 124 50.590, 124 42.383 L 124 34 119.750 34.171 C 117.412 34.266, 109.650 34.621, 102.500 34.960 M 126 56.414 C 126 57.665, 148.656 78.052, 150.865 78.788 C 151.343 78.948, 152.002 77.823, 152.329 76.289 C 152.655 74.755, 153.796 70.504, 154.864 66.842 L 156.806 60.184 143.117 57.592 C 127.287 54.594, 126 54.506, 126 56.414 M 17.998 98.911 C 18.005 100.113, 36.575 134, 37.227 134 C 38.755 134, 38.087 108.610, 36.430 103.750 L 34.861 99.143 26.428 98.821 C 21.790 98.645, 17.996 98.685, 17.998 98.911 M 64.346 101.599 C 68.090 113.934, 77.371 142.795, 77.909 143.777 C 78.295 144.479, 79.178 140.879, 79.872 135.777 C 80.566 130.675, 81.349 125.743, 81.612 124.819 C 81.951 123.631, 80.725 122.337, 77.438 120.411 L 72.784 117.684 73.427 112.592 C 73.781 109.791, 74.329 106.037, 74.646 104.250 C 75.218 101.026, 75.191 101, 71.193 101 C 68.977 101, 66.400 100.707, 65.466 100.349 C 64.144 99.841, 63.897 100.117, 64.346 101.599 M 130.976 103.750 C 130.963 104.162, 130.565 106.166, 130.092 108.202 C 129.232 111.904, 129.234 111.906, 136.616 117.965 L 144 124.026 144 114.120 C 144 106.009, 143.713 104.104, 142.418 103.607 C 140.160 102.740, 131.005 102.855, 130.976 103.750 M 116.332 119.047 C 116.695 126.996, 116.994 137.738, 116.996 142.917 C 116.998 148.096, 117.218 152.115, 117.485 151.849 C 117.977 151.356, 126.035 114.658, 125.957 113.262 C 125.934 112.843, 123.610 110.721, 120.793 108.547 L 115.670 104.594 116.332 119.047 M 123.694 107.421 C 126.172 109.560, 126.572 109.647, 127.112 108.171 C 127.532 107.027, 127.059 106.295, 125.612 105.850 C 121.481 104.578, 120.926 105.032, 123.694 107.421 M 41.079 120.583 C 41.127 121.748, 41.364 121.985, 41.683 121.188 C 41.972 120.466, 41.936 119.603, 41.604 119.271 C 41.272 118.939, 41.036 119.529, 41.079 120.583 M 147.173 132.605 C 147.443 134.933, 148.113 135.553, 150.993 136.138 C 152.914 136.528, 154.602 136.732, 154.743 136.590 C 154.884 136.449, 153.165 134.860, 150.923 133.058 L 146.846 129.782 147.173 132.605" stroke="none" fill="black" fill-rule="evenodd"/>
</svg>