<svg xmlns="http://www.w3.org/2000/svg" width="200" height="200" viewBox="0 0 200 200" version="1.1">
	<path d="M 70 8.046 C 70 8.454, 72.698 14.348, 75.995 21.144 C 79.293 27.940, 81.993 34.063, 81.995 34.750 C 81.998 35.493, 80.681 36.004, 78.750 36.009 C 76.963 36.013, 73.025 36.233, 70 36.496 L 64.500 36.975 69 35.650 L 73.500 34.324 70 32.770 C 68.075 31.914, 60.019 28.235, 52.097 24.594 C 44.175 20.952, 37.589 18.091, 37.461 18.236 C 37.333 18.381, 31.763 26.789, 25.085 36.921 C 16.890 49.352, 13.271 55.671, 13.954 56.354 C 14.511 56.911, 15.102 57.172, 15.267 56.933 C 15.431 56.695, 20.680 48.737, 26.930 39.250 C 33.180 29.762, 38.565 21.990, 38.897 21.978 C 39.229 21.965, 45.300 24.541, 52.389 27.701 L 65.279 33.447 53.639 36.340 C 45.788 38.291, 42 39.683, 42 40.616 C 42 41.377, 42.563 41.999, 43.250 41.997 C 44.766 41.993, 73.799 39.244, 79.743 38.541 C 83.978 38.041, 83.992 38.051, 86.493 42.987 C 87.872 45.707, 89 48.326, 89 48.807 C 89 49.287, 85.737 50.253, 81.750 50.953 C 72.819 52.522, 35.101 61.565, 34.348 62.319 C 32.308 64.359, 37.216 64.369, 54.696 62.359 C 65.588 61.107, 76.750 59.831, 79.500 59.523 C 84.302 58.987, 83.944 59.248, 70.500 66.096 C 62.800 70.018, 56.376 73.338, 56.224 73.473 C 56.072 73.609, 53.078 83.795, 49.572 96.110 L 43.196 118.500 40.014 150.500 C 38.264 168.100, 36.752 182.580, 36.655 182.678 C 36.557 182.776, 32.717 172.505, 28.120 159.855 L 19.763 136.854 20.390 119.177 C 20.735 109.455, 21.289 94.862, 21.622 86.750 C 22.161 73.596, 22.052 72, 20.613 72 C 19.317 72, 18.998 73.131, 18.987 77.750 C 18.980 80.912, 18.533 95.658, 17.994 110.519 L 17.012 137.537 26.506 163.438 C 31.728 177.684, 36 189.488, 36 189.670 C 36 189.851, 36.675 190, 37.500 190 C 38.325 190, 39 189.504, 39 188.899 C 39 188.293, 40.591 172.206, 42.536 153.149 L 46.073 118.500 52.208 96.822 L 58.344 75.144 76.422 66.452 C 86.365 61.671, 96.139 57.536, 98.143 57.263 L 101.785 56.765 102.511 69.353 C 102.910 76.276, 103.006 82.542, 102.723 83.278 C 102.441 84.015, 93.725 87.920, 83.355 91.958 C 72.985 95.995, 63.722 99.692, 62.772 100.173 C 61.242 100.947, 61.687 102.083, 66.650 110.068 L 72.257 119.089 71.745 126.795 C 71.464 131.033, 71.636 138.775, 72.128 144 L 73.023 153.500 68.011 160.737 C 65.255 164.717, 63 168.136, 63 168.336 C 63 168.535, 80.662 168.988, 102.250 169.344 C 123.838 169.699, 148.700 170.611, 157.500 171.370 C 166.300 172.129, 173.571 172.694, 173.657 172.625 C 173.744 172.556, 173.969 140.926, 174.157 102.335 C 174.385 55.657, 174.165 32.429, 173.500 32.944 C 172.950 33.369, 168.266 37.139, 163.092 41.320 C 157.918 45.502, 153.365 48.726, 152.976 48.485 C 152.390 48.123, 118.695 51.751, 107.187 53.415 C 104.252 53.840, 103.910 53.650, 104.187 51.750 C 104.474 49.783, 106.171 49.304, 124.781 45.939 C 135.935 43.922, 145.262 42.071, 145.507 41.826 C 145.753 41.580, 141.257 39.219, 135.516 36.578 L 125.078 31.776 114.160 32.490 L 103.242 33.203 102.822 29.601 L 102.402 26 132.142 26 C 159.735 26, 164.893 25.560, 162.726 23.392 C 162.355 23.022, 110.488 13.997, 75.250 8.172 C 72.362 7.694, 70 7.638, 70 8.046 M 79.695 22.628 C 82.888 29.158, 85.586 34.661, 85.691 34.857 C 85.796 35.054, 89.097 34.892, 93.027 34.497 L 100.172 33.780 99.836 28.407 L 99.500 23.034 121.500 22.767 L 143.500 22.500 111.500 17.077 C 93.900 14.095, 78.238 11.453, 76.695 11.206 L 73.890 10.757 79.695 22.628 M 112.750 35.272 C 102.093 36.335, 102.447 36.024, 103.640 43.237 C 104.162 46.396, 104.585 46.902, 106.379 46.509 C 107.545 46.253, 115.025 44.831, 123 43.349 L 137.500 40.654 130.500 37.366 C 126.650 35.557, 123.275 34.127, 123 34.188 C 122.725 34.249, 118.112 34.737, 112.750 35.272 M 89.292 37.700 L 87.085 38.128 89.778 43.619 C 91.984 48.117, 92.835 49.012, 94.485 48.569 C 95.593 48.271, 97.513 48.021, 98.750 48.014 C 100.698 48.002, 101 47.474, 101 44.082 C 101 37.861, 100.322 36.982, 95.643 37.136 C 93.364 37.211, 90.507 37.465, 89.292 37.700 M 154.944 51.421 C 145.900 58.773, 138.061 64.870, 137.525 64.969 C 135.171 65.406, 136.333 63.026, 141.068 57.713 C 143.868 54.571, 145.561 51.997, 144.830 51.994 C 144.098 51.990, 134.838 52.977, 124.250 54.187 L 105 56.387 105 61.543 C 105 64.378, 105.291 70.146, 105.648 74.360 L 106.295 82.022 130.148 81.352 C 150.313 80.786, 154.001 80.900, 154.010 82.091 C 154.028 84.769, 144.791 158.501, 144.384 158.929 C 143.920 159.416, 111.151 152.122, 109.289 151.117 C 108.421 150.649, 109.233 147.968, 112.156 141.649 C 114.419 136.758, 115.848 132.467, 115.367 132.010 C 114.890 131.556, 110.450 129.768, 105.500 128.036 C 100.550 126.304, 96.160 124.550, 95.744 124.138 C 95.329 123.726, 101.741 120.994, 109.994 118.068 L 125 112.748 124.967 108.124 C 124.933 103.522, 124.886 103.460, 114.948 94.879 L 104.962 86.258 85.364 94.079 C 74.586 98.381, 65.620 102.046, 65.442 102.225 C 65.263 102.403, 67.387 106.108, 70.162 110.457 L 75.206 118.365 74.583 126.432 C 74.240 130.870, 74.367 139, 74.864 144.500 L 75.769 154.500 71.880 160 L 67.992 165.500 98.246 166.233 C 128.338 166.962, 166.021 168.757, 169.128 169.610 C 170.617 170.019, 170.795 164.431, 171.208 104.279 C 171.457 68.100, 171.599 38.400, 171.524 38.277 C 171.449 38.155, 163.988 44.070, 154.944 51.421 M 97.250 50.723 C 93.858 51.144, 93.480 51.632, 94.860 53.808 C 96.109 55.777, 101 54.250, 101 51.892 C 101 50.851, 100.888 50.072, 100.750 50.160 C 100.612 50.248, 99.037 50.502, 97.250 50.723 M 75.500 55.035 C 67.800 56.635, 61.088 57.957, 60.583 57.972 C 60.079 57.988, 59.880 58.213, 60.141 58.474 C 60.402 58.735, 66.214 58.286, 73.058 57.475 C 91.238 55.322, 91.997 55.155, 91.348 53.463 C 90.670 51.697, 92.368 51.528, 75.500 55.035 M 108.031 84.750 C 108.047 85.162, 112.534 89.325, 118 94 L 127.939 102.500 127.969 108.562 L 128 114.624 115.521 119.033 C 108.657 121.457, 103.370 123.749, 103.771 124.125 C 104.172 124.501, 107.998 126.039, 112.274 127.542 C 121.183 130.676, 121.022 129.940, 115.305 141.352 C 113.417 145.121, 112.154 148.487, 112.498 148.832 C 113.404 149.738, 141.363 155.970, 141.939 155.394 C 142.344 154.989, 150.823 89.034, 150.956 85.250 C 150.990 84.287, 146.057 84, 129.500 84 C 117.675 84, 108.014 84.338, 108.031 84.750" stroke="none" fill="black" fill-rule="evenodd"/>
</svg>