<svg xmlns="http://www.w3.org/2000/svg" width="200" height="200" viewBox="0 0 200 200" version="1.1">
	<path d="M 74 12.854 C 74 13.221, 77.160 17.448, 81.022 22.247 C 86.821 29.452, 87.935 31.412, 87.414 33.487 C 86.963 35.282, 86.110 36, 84.426 36 C 82.161 36, 63.132 33.596, 56.107 32.423 L 52.715 31.856 53.326 23.928 C 53.662 19.568, 53.614 16.001, 53.219 16.002 C 52.621 16.004, 20.262 41.447, 17.683 43.943 C 17.234 44.378, 17.370 56.156, 17.986 70.117 C 18.601 84.078, 19.072 115.504, 19.032 139.954 L 18.959 184.407 22.730 179.997 C 24.803 177.572, 31.332 169.944, 37.238 163.047 L 47.976 150.507 48.238 114.085 L 48.500 77.663 57.440 90.498 C 62.356 97.557, 69.039 106.176, 72.290 109.651 L 78.202 115.970 64.851 130.066 C 57.508 137.818, 51.358 144.551, 51.184 145.028 C 50.869 145.894, 77.929 178.010, 78.956 177.988 C 79.255 177.982, 91.650 174.909, 106.500 171.160 L 133.500 164.344 133.769 143.306 L 134.039 122.268 130.529 114.067 C 126.623 104.942, 126.562 105.434, 132.731 96.314 L 135.563 92.128 142.763 105.885 L 149.962 119.641 140.608 150.904 C 133.280 175.394, 131.605 182.074, 132.877 181.740 C 133.770 181.505, 143.659 177.305, 154.852 172.406 L 175.205 163.500 174.513 135.678 C 173.607 99.269, 173.709 79.889, 174.965 49.582 C 175.533 35.877, 175.833 24.500, 175.632 24.298 C 175.430 24.097, 170.593 31.371, 164.883 40.462 L 154.500 56.991 148.500 56.967 C 145.200 56.954, 134.261 56.524, 124.191 56.011 C 107.296 55.151, 105.673 54.902, 103.162 52.790 C 101.665 51.530, 100.229 50.127, 99.970 49.672 C 99.712 49.216, 102.650 47.492, 106.500 45.840 L 113.500 42.837 126.500 44.471 C 133.650 45.370, 140.358 46.194, 141.407 46.303 C 145.626 46.739, 143.724 43.875, 136.605 39.071 C 132.472 36.282, 128.724 34, 128.276 34 C 127.828 34, 124.182 35.378, 120.174 37.062 C 116.165 38.747, 112.124 39.975, 111.193 39.792 C 110.262 39.610, 118.593 35.423, 129.708 30.488 C 140.822 25.553, 149.597 21.242, 149.208 20.908 C 148.818 20.575, 132.525 18.636, 113 16.601 C 93.475 14.566, 76.713 12.740, 75.750 12.544 C 74.787 12.348, 74 12.487, 74 12.854 M 81.101 17.750 C 81.841 18.712, 84.146 21.587, 86.223 24.139 C 89.228 27.829, 90 29.618, 90 32.889 C 90 35.150, 90.338 37.009, 90.750 37.020 C 91.162 37.031, 94.330 37.449, 97.788 37.949 L 104.076 38.859 121.541 31.093 C 139.749 22.997, 141.589 22.004, 138.417 21.993 C 137.362 21.989, 124.369 20.639, 109.542 18.993 C 77.268 15.410, 79.372 15.502, 81.101 17.750 M 35.160 33.343 L 19.820 45.500 20.555 61 C 20.960 69.525, 21.563 98.958, 21.895 126.406 L 22.500 176.311 34 162.721 L 45.500 149.131 46 109.615 L 46.500 70.099 57 85.299 C 62.775 93.660, 70.755 103.900, 74.734 108.055 L 81.967 115.610 68.046 130.555 C 54.476 145.124, 54.170 145.550, 55.885 147.500 C 56.852 148.600, 61.849 154.450, 66.988 160.500 C 72.128 166.550, 77.095 172.324, 78.026 173.332 C 79.661 175.101, 80.545 174.953, 103.610 169.052 C 116.749 165.690, 128.287 162.698, 129.250 162.403 C 130.839 161.915, 131 160.058, 131 142.207 C 131 123.293, 130.899 122.293, 128.342 115.775 C 126.880 112.049, 125.418 109.012, 125.092 109.027 C 124.766 109.041, 116.443 121.850, 106.596 137.491 C 85.896 170.370, 84.010 172.001, 89.999 151.843 L 92.997 141.750 92.344 121.510 L 91.692 101.271 94.346 97.791 C 95.806 95.877, 97 94.016, 97 93.656 C 97 93.295, 94.464 93, 91.365 93 L 85.731 93 86.203 75 L 86.675 57 83.398 57 C 81.596 57, 73.701 59.712, 65.853 63.027 C 58.006 66.342, 51.116 68.871, 50.543 68.646 C 49.427 68.210, 40.552 53.057, 41.146 52.605 C 41.341 52.457, 50.118 52.735, 60.651 53.222 C 76.860 53.973, 80.355 53.879, 83.401 52.606 C 86.971 51.114, 87 51.053, 87 45.051 C 87 40.549, 86.644 39, 85.609 39 C 84.844 39, 77.531 38.103, 69.359 37.007 C 61.186 35.911, 54.187 35.011, 53.805 35.007 C 53.422 35.003, 52.972 37.138, 52.805 39.750 C 52.421 45.734, 50.255 46.095, 48.312 40.500 C 46.729 35.940, 46.926 31.389, 48.692 31.731 C 49.849 31.955, 51.601 24.199, 50.854 22.156 C 50.659 21.623, 43.597 26.657, 35.160 33.343 M 164.626 45.931 C 160.432 52.538, 157 58.369, 157 58.889 C 157 59.408, 156.647 59.983, 156.216 60.167 C 155.104 60.639, 138 87.677, 138 88.962 C 138 89.547, 141.337 96.687, 145.415 104.830 L 152.830 119.635 144.376 147.945 C 139.727 163.516, 136.150 176.484, 136.429 176.762 C 136.707 177.041, 144.867 173.741, 154.561 169.430 L 172.187 161.592 171.528 120.546 C 171.161 97.678, 171.302 69.536, 171.845 57 C 172.382 44.625, 172.692 34.369, 172.536 34.209 C 172.379 34.049, 168.820 39.324, 164.626 45.931 M 122.501 38.912 L 118.502 40.676 124.001 41.386 C 127.026 41.777, 131.300 42.341, 133.500 42.642 L 137.500 43.187 133 40.098 C 127.840 36.556, 127.843 36.556, 122.501 38.912 M 90 42.513 C 90 45.014, 90.019 45.019, 93.622 43.513 C 95.614 42.681, 97.527 41.993, 97.872 41.985 C 99.954 41.934, 94.996 40.028, 92.750 40.015 C 90.475 40.003, 90 40.434, 90 42.513 M 99.750 43.658 C 97.688 44.514, 96 45.616, 96 46.107 C 96 47.384, 96.880 47.169, 102.500 44.522 C 108.108 41.880, 105.791 41.153, 99.750 43.658 M 90 47.969 C 90 49.322, 90.477 49.754, 91.526 49.352 C 92.702 48.900, 92.788 48.450, 91.903 47.383 C 90.362 45.526, 90 45.637, 90 47.969 M 92.699 51.649 C 88.515 53.842, 89.483 55, 95.500 55 C 98.525 55, 101 54.860, 101 54.688 C 101 54.516, 99.740 53.444, 98.199 52.306 C 95.669 50.435, 95.139 50.371, 92.699 51.649 M 46 55.498 C 46 57.366, 51.481 66.029, 52.430 65.659 C 61.238 62.226, 71.982 57.333, 71.990 56.750 C 71.995 56.337, 67.162 55.994, 61.250 55.986 C 55.337 55.979, 49.487 55.701, 48.250 55.370 C 47.013 55.038, 46 55.096, 46 55.498 M 89.564 58.122 C 89.305 58.880, 88.960 66.363, 88.797 74.751 L 88.500 90.002 94.204 90.001 L 99.907 90 108.037 78.766 L 116.167 67.531 110.833 62.798 C 106.404 58.866, 104.822 58.056, 101.500 58.021 C 99.300 57.997, 95.820 57.700, 93.768 57.361 C 91.065 56.914, 89.906 57.124, 89.564 58.122 M 113.500 61.481 L 117.500 64.929 119.790 62.464 C 121.701 60.409, 123.014 60, 127.707 60 C 136.778 60, 133.415 59.326, 121 58.655 L 109.500 58.034 113.500 61.481 M 132.566 62.199 C 119.016 63.458, 118.068 64.693, 125.433 71.500 C 128.409 74.250, 131.948 78.733, 133.298 81.463 L 135.752 86.426 139.528 80.463 C 141.605 77.183, 145.252 71.463, 147.632 67.750 L 151.960 61 147.230 61.138 C 144.628 61.214, 138.030 61.692, 132.566 62.199 M 111.094 79.143 C 107.126 84.681, 104.019 89.329, 104.190 89.470 C 104.360 89.612, 108.300 90.126, 112.945 90.614 L 121.390 91.500 123.526 96.830 L 125.661 102.159 129.890 95.669 L 134.119 89.178 131.116 83.230 C 129.247 79.528, 126.261 75.730, 123.211 73.176 L 118.309 69.072 111.094 79.143 M 97.755 97.714 L 94.287 102.500 95.145 121.903 C 95.935 139.773, 95.847 141.823, 94.038 147.856 C 92.957 151.458, 92.169 154.498, 92.286 154.610 C 92.404 154.722, 99.588 143.606, 108.250 129.908 L 124 105.002 121.691 99.251 L 119.382 93.500 110.303 93.214 L 101.223 92.928 97.755 97.714" stroke="none" fill="black" fill-rule="evenodd"/>
</svg>