<svg xmlns="http://www.w3.org/2000/svg" width="200" height="200" viewBox="0 0 200 200" version="1.1">
	<path d="M 69.554 10.750 C 70.535 12.262, 74.364 17.835, 78.063 23.133 L 84.788 32.766 72.144 33.224 C 65.190 33.476, 59.301 33.517, 59.057 33.315 C 58.814 33.113, 61.221 30.314, 64.407 27.094 C 68.435 23.023, 69.822 21.008, 68.961 20.476 C 68.160 19.981, 65.257 22.231, 60.732 26.855 C 54.799 32.919, 53.231 34, 50.371 34 L 47 34 47 39.712 L 47 45.425 51.784 40.712 L 56.569 36 71.689 36 L 86.808 36 90.294 40.706 C 92.211 43.294, 93.584 45.921, 93.344 46.545 C 93.105 47.168, 88.092 48.271, 82.205 48.994 C 69.293 50.581, 67.346 50.633, 58.966 49.610 L 52.433 48.813 47.712 59.069 C 45.115 64.709, 43.162 69.495, 43.371 69.704 C 43.579 69.913, 49.716 66.427, 57.008 61.957 L 70.266 53.831 78.615 55.016 C 85.910 56.052, 86.845 56.409, 86.030 57.851 C 85.517 58.758, 81.362 65.122, 76.798 71.994 L 68.500 84.488 55.773 91.054 C 48.773 94.666, 42.805 97.862, 42.509 98.157 C 42.214 98.453, 43.121 113.919, 44.524 132.527 C 45.928 151.135, 46.882 166.865, 46.645 167.482 C 46.252 168.507, 22.382 171.717, 21.528 170.860 C 21.331 170.662, 21.702 155.425, 22.354 137 C 23.109 115.666, 23.258 93.246, 22.764 75.265 L 21.987 47.030 31.454 31.550 C 37.142 22.248, 40.503 15.811, 39.873 15.422 C 38.474 14.557, 38.624 14.350, 28.249 31.500 L 19.174 46.500 20.017 75 C 20.602 94.802, 20.460 114.182, 19.551 138.500 C 18.831 157.750, 18.418 173.693, 18.632 173.928 C 19.049 174.385, 49.256 171.078, 49.820 170.514 C 50.003 170.330, 48.965 154.343, 47.513 134.987 C 46.061 115.631, 45.014 99.667, 45.186 99.512 C 46.554 98.285, 64.323 89.990, 64.724 90.391 C 65.008 90.675, 64.506 102.065, 63.609 115.703 C 62.712 129.342, 61.983 141.724, 61.989 143.220 C 61.998 145.478, 63.248 146.781, 69.367 150.910 L 76.735 155.882 86.612 152.916 L 96.489 149.951 98.152 152.225 C 99.067 153.476, 102.669 158.299, 106.158 162.941 L 112.500 171.382 135.354 178.754 C 147.924 182.808, 158.432 185.901, 158.705 185.628 C 158.979 185.354, 162.794 172.839, 167.182 157.815 L 175.161 130.500 174.568 109 C 173.148 57.475, 171.764 21.330, 171.130 19.168 C 170.547 17.184, 168.378 20.134, 156.555 38.985 C 144.618 58.017, 142.371 61.064, 140.582 60.642 C 139.437 60.372, 130.512 59.133, 120.750 57.889 L 103 55.625 103 52.313 C 103 50.491, 103.301 49, 103.668 49 C 105.373 49, 146.458 43.875, 146.701 43.632 C 146.853 43.480, 141.695 40.799, 135.239 37.674 L 123.500 31.993 113.593 32.657 L 103.687 33.322 104.375 27.462 C 104.754 24.239, 105.179 21.487, 105.320 21.346 C 105.461 21.206, 117.934 22.190, 133.038 23.533 C 165.530 26.424, 163 26.330, 163 24.639 C 163 23.619, 151.266 21.355, 116.250 15.617 C 90.537 11.403, 69.111 7.966, 68.635 7.978 C 68.159 7.990, 68.573 9.238, 69.554 10.750 M 74.622 13.250 C 75.030 13.938, 78.277 18.663, 81.840 23.750 L 88.317 33 94.542 33 C 101.664 33, 101.962 32.611, 101.986 23.263 L 102 18.026 109.750 18.478 C 115.744 18.828, 113.083 18.161, 98 15.534 C 75.821 11.672, 73.557 11.451, 74.622 13.250 M 119.813 19.683 C 120.534 19.972, 121.397 19.936, 121.729 19.604 C 122.061 19.272, 121.471 19.036, 120.417 19.079 C 119.252 19.127, 119.015 19.364, 119.813 19.683 M 157.727 42.282 C 151.802 51.752, 146.852 59.950, 146.727 60.500 C 146.602 61.050, 148.188 61.640, 150.250 61.810 C 157.386 62.401, 154.014 65.954, 146.286 65.986 C 143.701 65.997, 142.572 66.733, 140.515 69.750 L 137.958 73.500 141.535 73.814 C 143.502 73.986, 145.283 74.661, 145.492 75.314 C 145.701 75.966, 146.352 87.300, 146.938 100.500 C 147.525 113.700, 148.262 127.593, 148.575 131.374 L 149.146 138.249 143.323 137.573 C 140.120 137.202, 135.446 136.649, 132.935 136.345 L 128.371 135.792 126.022 116.259 C 123.999 99.440, 123.488 96.979, 122.345 98.543 C 121.615 99.542, 116.176 108.105, 110.259 117.573 C 104.341 127.041, 99.225 134.273, 98.888 133.644 C 98.551 133.015, 97.291 128.785, 96.087 124.244 L 93.899 115.989 98.083 106.744 C 100.385 101.660, 102.918 95.968, 103.712 94.095 L 105.157 90.689 86.860 91.396 C 76.797 91.785, 68.414 92.253, 68.230 92.436 C 67.810 92.856, 65.050 133.882, 65.021 140.133 C 65 144.721, 65.059 144.804, 71.252 148.838 L 77.503 152.911 87.343 149.847 C 92.755 148.162, 97.525 147.169, 97.943 147.642 C 98.361 148.114, 102.143 153.088, 106.347 158.695 L 113.990 168.891 135.245 175.761 C 149.014 180.211, 156.719 182.256, 157.122 181.565 C 157.464 180.979, 161.013 169.250, 165.009 155.500 L 172.274 130.500 170.995 86.500 C 170.292 62.300, 169.443 38.577, 169.108 33.782 L 168.500 25.063 157.727 42.282 M 104.686 35.750 C 104.449 36.163, 103.945 38.638, 103.566 41.250 C 102.753 46.861, 101.273 46.559, 119.292 44.466 C 139.150 42.159, 138.781 42.367, 130.120 38.389 C 123.506 35.352, 121.825 35, 113.929 35 C 109.083 35, 104.924 35.337, 104.686 35.750 M 91.167 36.803 C 92.361 39.678, 97.699 46.933, 98.643 46.963 C 100.196 47.013, 101 44.609, 101 39.918 L 101 36 95.917 36 C 93.121 36, 90.983 36.361, 91.167 36.803 M 93.064 51.881 C 92.200 53.496, 92.495 53.849, 95.154 54.381 C 99.768 55.304, 100 55.213, 100 52.500 C 100 50.395, 99.531 50, 97.035 50 C 95.156 50, 93.702 50.689, 93.064 51.881 M 82 52 C 80.900 52.711, 81.617 52.973, 84.691 52.985 C 86.996 52.993, 89.160 52.550, 89.500 52 C 90.301 50.705, 84.005 50.705, 82 52 M 51.624 57.250 C 50.339 60.138, 49.391 62.630, 49.517 62.790 C 49.643 62.949, 53.415 60.875, 57.899 58.179 L 66.051 53.279 61.386 52.639 C 54.165 51.650, 54.104 51.678, 51.624 57.250 M 80.033 71.993 C 74.825 80.185, 69.650 87.333, 68.533 87.877 C 66.124 89.047, 87.197 89.380, 99.245 88.362 L 106.792 87.724 109.321 81.862 L 111.850 76 105.326 76 L 98.801 76 99.151 67.051 C 99.536 57.178, 99.406 56.982, 92.500 57.062 C 89.735 57.094, 88.757 58.265, 80.033 71.993 M 101.832 65.415 L 101.500 73.005 107.750 73.002 C 112.232 73.001, 114 72.630, 114 71.691 C 114 68.175, 116.562 67.083, 128.410 65.552 C 134.961 64.705, 140.467 63.866, 140.646 63.688 C 140.824 63.509, 133.215 62.342, 123.735 61.094 C 114.256 59.846, 105.524 58.600, 104.332 58.325 C 102.275 57.850, 102.147 58.214, 101.832 65.415 M 129.500 68.130 C 117.058 69.972, 117 69.991, 117 72.045 C 117 73.837, 117.730 73.999, 125.750 73.988 L 134.500 73.975 136.759 70.488 C 139.339 66.505, 139.694 66.620, 129.500 68.130 M 112.476 81.458 C 111.114 84.537, 110 87.269, 110 87.529 C 110 87.788, 113.533 88, 117.851 88 L 125.701 88 128.889 82.872 C 130.642 80.051, 131.947 77.634, 131.788 77.500 C 131.630 77.366, 127.777 76.942, 123.226 76.557 L 114.953 75.858 112.476 81.458 M 130.966 84.750 C 128.235 89.013, 126.003 92.950, 126.005 93.500 C 126.026 97.682, 130.991 132.375, 131.656 132.980 C 132.120 133.403, 135.585 134.048, 139.355 134.413 L 146.211 135.077 145.635 128.289 C 145.318 124.555, 144.810 115.200, 144.506 107.500 C 144.202 99.800, 143.685 89.787, 143.358 85.250 L 142.763 77 139.347 77 C 136.180 77, 135.569 77.565, 130.966 84.750 M 102.526 103.572 C 96.814 116.071, 96.788 116.171, 98.041 120.822 C 98.734 123.395, 99.575 126.039, 99.910 126.697 C 100.428 127.713, 123 93.429, 123 91.627 C 123 91.282, 119.686 91, 115.636 91 L 108.272 91 102.526 103.572" stroke="none" fill="black" fill-rule="evenodd"/>
</svg>