<svg xmlns="http://www.w3.org/2000/svg" width="200" height="200" viewBox="0 0 200 200" version="1.1">
	<path d="M 161.693 19.750 C 161.460 20.163, 157.100 37.825, 152.004 59 C 146.909 80.175, 142.113 98.513, 141.347 99.750 C 139.457 102.803, 137.547 102.577, 135 99 L 132.864 96 135.539 96 C 137.271 96, 138.043 95.560, 137.728 94.750 C 137.461 94.063, 135.784 90.033, 134.001 85.795 L 130.760 78.089 124.668 77.795 L 118.575 77.500 112.062 69.051 C 108.479 64.405, 106.212 61.008, 107.024 61.503 C 107.836 61.998, 113.612 65.717, 119.860 69.767 C 126.397 74.004, 131.845 76.890, 132.692 76.565 C 134.216 75.980, 134.538 76.430, 111.272 46.590 C 106.165 40.040, 102.102 34.571, 102.243 34.438 C 102.384 34.304, 109.359 34.442, 117.743 34.743 L 132.986 35.290 126.493 42.545 C 120.144 49.638, 118.814 52, 121.167 52 C 122.291 52, 149.246 25.912, 148.693 25.359 C 148.543 25.210, 133.589 24.587, 115.461 23.975 C 97.332 23.363, 74.850 22.273, 65.500 21.551 L 48.500 20.240 31.110 33.370 L 13.720 46.500 14.365 66.500 C 14.720 77.500, 15.302 108.908, 15.659 136.295 C 16.017 163.683, 16.669 185.731, 17.110 185.290 C 17.551 184.849, 23.246 175.998, 29.768 165.619 L 41.624 146.749 57.062 142.913 C 68.890 139.973, 74.546 139.067, 81.250 139.038 C 86.063 139.017, 90 139.227, 90 139.505 C 90 139.783, 85.471 146.368, 79.935 154.140 C 73.344 163.394, 70.209 168.609, 70.853 169.253 C 71.496 169.896, 80.665 163.119, 97.418 149.615 C 111.488 138.273, 123 129.207, 123 129.467 C 123 129.727, 115.149 139.952, 105.552 152.189 C 95.956 164.426, 88.227 174.560, 88.376 174.710 C 88.526 174.859, 93.345 174.456, 99.086 173.815 C 108.027 172.816, 110.886 172.889, 119.012 174.325 C 139.632 177.970, 160.506 180.890, 161.104 180.213 C 161.452 179.821, 166.931 165.100, 173.280 147.500 C 179.630 129.900, 185.137 114.712, 185.519 113.750 C 186.167 112.118, 184.836 112, 165.729 112 C 142.778 112, 142.244 111.845, 143.430 105.523 C 143.983 102.576, 145.935 100.498, 155.793 92.368 C 162.232 87.058, 168.112 82.150, 168.860 81.461 C 170.005 80.406, 169.802 75.718, 167.578 51.854 C 166.124 36.259, 164.716 22.488, 164.448 21.250 C 163.972 19.046, 162.535 18.264, 161.693 19.750 M 32.634 35.562 C 20.423 44.786, 16.053 48.631, 16.403 49.842 C 16.667 50.754, 17.383 78.275, 17.995 111 C 18.606 143.725, 19.195 171.940, 19.303 173.699 C 19.480 176.569, 20.559 175.212, 29.775 160.544 L 40.050 144.190 55.275 140.537 C 66.937 137.739, 73.527 136.744, 83.431 136.283 L 96.363 135.682 93.971 139.091 C 92.655 140.966, 88.748 146.434, 85.289 151.242 C 81.830 156.050, 79 160.209, 79 160.483 C 79 160.758, 91.016 151.313, 105.703 139.495 C 122.238 126.189, 132.762 118.362, 133.340 118.940 C 133.918 119.518, 127.081 129.053, 115.387 143.978 C 104.999 157.236, 95.930 168.893, 95.233 169.883 C 94.035 171.586, 94.303 171.632, 100.233 170.734 C 104.562 170.078, 109.227 170.158, 115.319 170.990 C 120.170 171.653, 124.241 172.038, 124.366 171.847 C 124.806 171.177, 138 116.405, 138 115.251 C 138 114.489, 135.351 113.983, 130.370 113.792 L 122.739 113.500 128.398 109.609 C 131.510 107.469, 134.297 105.329, 134.590 104.854 C 134.883 104.380, 133.858 102.203, 132.312 100.017 L 129.500 96.043 101.750 96.021 C 86.487 96.010, 74.006 96.112, 74.012 96.250 C 74.019 96.388, 75.313 102.661, 76.887 110.191 C 81.349 131.529, 79.407 129.498, 63.857 96.566 L 50.500 68.276 50.230 88.603 L 49.960 108.930 45.480 105.773 C 42.618 103.755, 41.008 101.872, 41.022 100.557 C 41.034 99.426, 42.380 90.175, 44.013 80 C 46.258 66.017, 46.985 58.143, 46.991 47.750 L 47 34 43.417 34 C 40.990 34, 39.971 33.597, 40.259 32.750 C 40.528 31.957, 42.662 31.498, 46.092 31.496 C 51.245 31.492, 51.515 31.362, 51.816 28.746 C 52.223 25.219, 53.086 25.285, 55.203 29.006 L 56.907 32 73.494 32 C 88.974 32, 90.278 31.854, 93.032 29.818 L 95.984 27.636 98.306 29.818 C 100.526 31.903, 101.476 32, 119.659 32 C 137.353 32, 138.816 31.861, 140.481 30.021 C 141.915 28.437, 141.995 27.954, 140.886 27.601 C 140.124 27.358, 127.575 26.887, 113 26.554 C 89.294 26.011, 71.622 25.075, 54.922 23.474 L 49.345 22.940 32.634 35.562 M 154.173 61.889 C 149.647 80.252, 146.143 95.476, 146.386 95.719 C 146.629 95.962, 151.404 92.412, 156.998 87.830 L 167.169 79.500 166.507 71.500 C 166.143 67.100, 165.070 55.625, 164.124 46 L 162.403 28.500 154.173 61.889 M 50.195 36.500 C 50.215 38.150, 50.439 38.704, 50.693 37.731 C 50.947 36.758, 50.930 35.408, 50.656 34.731 C 50.382 34.054, 50.175 34.850, 50.195 36.500 M 53.982 34.583 C 53.972 35.087, 53.080 40.900, 52 47.500 C 50.920 54.100, 50.028 60.978, 50.018 62.785 C 49.996 66.882, 50.957 66.437, 59.736 58.288 L 65.972 52.500 60.624 43.721 C 54.955 34.415, 54.011 33.117, 53.982 34.583 M 59.202 36.250 C 59.989 37.487, 62.329 41.322, 64.402 44.772 L 68.171 51.043 73.167 46.860 C 75.914 44.560, 80.263 40.743, 82.831 38.379 L 87.500 34.079 72.635 34.040 L 57.770 34 59.202 36.250 M 81.226 43.527 C 75.052 48.818, 70 53.400, 70 53.708 C 70 55.028, 83.408 77.219, 84.446 77.618 C 85.074 77.859, 92.210 77.931, 100.304 77.778 L 115.021 77.500 106.843 66.718 C 101.850 60.134, 99.024 55.576, 99.587 55.013 C 100.150 54.450, 104.642 56.757, 111.122 60.939 C 128.824 72.362, 129.347 74.120, 106.224 44.500 C 95.677 30.991, 95.848 30.998, 81.226 43.527 M 63.968 58.284 C 62.575 59.503, 59.579 62.083, 57.310 64.018 L 53.183 67.535 63.580 89.518 C 69.298 101.608, 73.965 110.825, 73.952 110 C 73.939 109.175, 73.277 105.800, 72.480 102.500 C 69.944 91.998, 67.146 93, 99.017 93 L 127.034 93 121.943 86.523 L 116.853 80.046 99.262 79.773 L 81.670 79.500 74.878 68.015 C 71.143 61.698, 67.730 56.425, 67.294 56.298 C 66.857 56.171, 65.361 57.065, 63.968 58.284 M 121.628 81.250 C 124.784 86.540, 130.545 93, 132.106 93 C 133.900 93, 133.892 92.801, 131.902 87.752 C 130.765 84.866, 129.366 81.941, 128.795 81.252 C 127.379 79.546, 120.610 79.544, 121.628 81.250 M 45.109 91.354 C 43.922 99.769, 43.922 101.335, 45.109 102.073 C 46.222 102.765, 46.560 101.838, 46.801 97.433 C 46.967 94.405, 46.967 89.581, 46.801 86.713 C 46.524 81.917, 46.389 82.287, 45.109 91.354 M 134.128 108.870 C 132.034 110.479, 131.955 110.769, 133.460 111.346 C 137.019 112.712, 139.155 112.107, 138.820 109.828 C 138.395 106.943, 137.005 106.659, 134.128 108.870 M 134.755 141.228 C 131.107 156.203, 128.243 168.577, 128.391 168.724 C 128.720 169.053, 156.346 134.463, 156.769 133.194 C 157.120 132.140, 143.315 114, 142.162 114 C 141.737 114, 138.403 126.253, 134.755 141.228 M 147.608 115.250 C 148.007 115.938, 151.204 120.208, 154.713 124.740 L 161.093 132.979 145.117 152.728 C 136.331 163.589, 129.325 172.658, 129.547 172.881 C 130.392 173.725, 158.531 177.793, 159.162 177.162 C 159.819 176.504, 182 115.742, 182 114.598 C 182 114.269, 174.098 114, 164.441 114 C 150.673 114, 147.039 114.270, 147.608 115.250" stroke="none" fill="black" fill-rule="evenodd"/>
</svg>