<svg xmlns="http://www.w3.org/2000/svg" width="200" height="200" viewBox="0 0 200 200" version="1.1">
	<path d="M 145 24.590 C 127.053 34.402, 121.691 36.900, 118.500 36.930 C 115.116 36.963, 113.961 37.580, 111 40.938 C 108.599 43.662, 102.543 47.591, 91.712 53.454 C 83.029 58.154, 75.587 62, 75.174 62 C 74.762 62, 71.470 56.487, 67.860 49.750 L 61.295 37.500 51.898 36.379 C 43.614 35.391, 46.927 35.243, 79.833 35.129 C 109.210 35.028, 117.078 34.734, 116.751 33.750 C 116.194 32.075, 91.770 31.651, 47.250 32.545 C 19.649 33.099, 13 33.492, 13 34.571 C 13 36.284, 15.880 36.714, 36 38.009 C 61.651 39.660, 58.506 38.217, 65.797 51.679 C 69.248 58.050, 71.924 63.409, 71.745 63.588 C 71.566 63.767, 61.206 62.053, 48.722 59.778 C 36.239 57.503, 25.789 55.878, 25.500 56.167 C 25.211 56.456, 25.458 67.449, 26.049 80.596 C 26.840 98.203, 26.814 112.065, 25.950 133.219 L 24.777 161.938 35.126 171.834 L 45.474 181.730 53.987 179.387 C 58.669 178.098, 69.475 175.115, 78 172.758 C 93.885 168.366, 99.482 167.940, 101.072 171 C 101.501 171.825, 102.250 174.525, 102.736 177 L 103.620 181.500 105.545 176.250 C 107.006 172.265, 107.955 171.007, 109.485 171.028 C 110.593 171.044, 118.250 172.108, 126.500 173.393 C 140.149 175.519, 142.937 175.647, 157.465 174.816 C 166.246 174.314, 173.613 173.720, 173.836 173.497 C 174.060 173.274, 173.706 160.358, 173.052 144.796 C 172.169 123.821, 172.139 110.055, 172.935 91.588 C 173.525 77.886, 173.812 66.479, 173.572 66.239 C 173.332 65.999, 168.268 64.581, 162.318 63.088 C 156.368 61.596, 151.500 59.953, 151.500 59.437 C 151.500 58.922, 153.075 54.355, 155 49.288 L 158.500 40.077 168.413 39.788 L 178.326 39.500 169.728 34.250 C 164.999 31.363, 160.872 29, 160.557 29 C 160.242 29, 159.264 30.800, 158.383 33 L 156.783 37 144.391 37 C 137.576 37, 132 36.813, 132 36.584 C 132 36.355, 140.325 31.361, 150.500 25.487 C 167.756 15.524, 170.186 13.774, 168.250 12.703 C 167.838 12.475, 157.375 17.824, 145 24.590 M 160.607 34.582 C 159.684 36.986, 159.705 37, 164.250 36.993 L 168.500 36.987 165.500 35 C 161.869 32.595, 161.385 32.554, 160.607 34.582 M 115.511 43.599 C 111.115 46.046, 107.599 49.252, 102.286 55.658 C 98.306 60.456, 95.217 64.551, 95.422 64.756 C 95.628 64.961, 107.535 63.874, 121.882 62.341 L 147.969 59.553 151.485 50.770 C 153.418 45.939, 155 41.517, 155 40.944 C 155 40.256, 149.317 39.964, 138.250 40.084 L 121.500 40.266 115.511 43.599 M 89 57.938 C 81.103 62.280, 76.594 65.335, 76.754 66.233 C 76.938 67.260, 76.228 67.540, 74.197 67.242 C 72.517 66.996, 70.901 67.415, 70.179 68.284 C 69.172 69.498, 70.135 70.349, 76.021 73.442 L 83.069 77.145 103.785 74.536 C 122.295 72.204, 124.684 71.690, 126.228 69.713 C 127.794 67.707, 127.958 67.675, 127.978 69.366 C 127.998 71.070, 128.590 71.174, 134.750 70.555 C 143.453 69.682, 144.681 69.292, 145.279 67.217 C 145.551 66.273, 146.061 64.807, 146.413 63.959 C 146.967 62.627, 143.083 62.852, 117.777 65.614 C 101.675 67.372, 88.417 68.732, 88.316 68.637 C 88.215 68.543, 91.252 64.716, 95.066 60.134 C 101.297 52.648, 102.561 50.927, 101.750 51.033 C 101.612 51.051, 95.875 54.158, 89 57.938 M 28.724 78.250 C 29.706 102.603, 29.697 110.160, 28.652 138.503 L 27.804 161.505 37.152 170.089 L 46.500 178.672 69 172.313 C 86.242 167.439, 92.622 166.042, 96.303 166.335 C 99.532 166.592, 100.972 166.354, 100.698 165.608 C 100.474 164.999, 99.461 159.466, 98.446 153.314 C 97.432 147.162, 96.293 142.319, 95.914 142.553 C 95.536 142.787, 94.738 139.495, 94.141 135.239 C 90.399 108.567, 89.749 102.917, 90.356 102.311 C 91.824 100.843, 92.827 104.048, 95.041 117.277 C 96.309 124.854, 97.681 130.704, 98.091 130.277 C 99.508 128.798, 123.291 75.957, 122.772 75.439 C 122.252 74.919, 92.168 78.499, 91.507 79.160 C 91.315 79.352, 95.614 82.432, 101.061 86.005 C 106.508 89.577, 110.803 92.950, 110.607 93.500 C 110.055 95.045, 109.308 94.704, 88.461 83.390 C 77.700 77.550, 68.660 73.007, 68.372 73.295 C 67.655 74.012, 67.858 105.819, 68.637 114.708 C 69.200 121.139, 68.696 124.402, 63.966 144.958 C 60.314 160.831, 58.250 168, 57.332 168 C 55.737 168, 55.751 169.230, 57.016 139.986 C 57.831 121.162, 58.733 112.331, 61.558 95.500 C 63.497 83.950, 65.481 72.704, 65.967 70.509 C 66.453 68.314, 66.681 66.347, 66.473 66.139 C 66.118 65.785, 30.409 59.045, 28.724 59.014 C 28.297 59.006, 28.297 67.662, 28.724 78.250 M 147.996 67.510 C 146.134 71.853, 146.005 74.391, 146.028 106.107 C 146.058 147.217, 145.282 164, 143.350 164 C 142.607 164, 142 163.361, 142 162.580 C 142 160.140, 136.058 109.538, 135.364 106.068 C 134.876 103.632, 134.489 103.161, 133.876 104.257 C 132.318 107.041, 109.061 167.395, 109.412 167.745 C 109.604 167.937, 116.972 169.190, 125.786 170.528 C 139.909 172.673, 143.481 172.869, 155.876 172.177 C 163.612 171.746, 170.245 171.088, 170.617 170.717 C 170.988 170.345, 170.800 157.544, 170.199 142.271 C 169.488 124.218, 169.421 107.851, 170.007 95.500 C 170.503 85.050, 170.930 74.643, 170.955 72.373 L 171 68.246 162.250 66.080 C 157.438 64.890, 152.710 63.678, 151.744 63.388 C 150.403 62.986, 149.518 63.960, 147.996 67.510 M 136.601 73.174 C 133.356 73.609, 130.485 74.181, 130.222 74.445 C 129.958 74.709, 130.800 78.981, 132.094 83.939 C 133.387 88.898, 134.735 92.627, 135.088 92.227 C 135.852 91.362, 143.095 72.714, 142.743 72.518 C 142.609 72.443, 139.845 72.738, 136.601 73.174 M 112.661 105.792 C 104.705 123.198, 99.020 136.895, 99.048 138.590 C 99.075 140.191, 100.103 147.125, 101.333 154 C 102.957 163.083, 103.956 166.500, 104.988 166.500 C 105.926 166.500, 110.938 154.948, 119.739 132.500 L 133.070 98.500 130.451 88.423 C 129.011 82.881, 127.493 77.797, 127.077 77.125 C 126.623 76.391, 120.878 87.815, 112.661 105.792 M 139.703 88.586 C 136.393 97.333, 136.052 98.999, 137.043 101.561 C 137.669 103.177, 139.190 112.825, 140.423 123 L 142.665 141.500 143.402 125 C 143.807 115.925, 143.995 101.761, 143.819 93.525 L 143.500 78.550 139.703 88.586 M 62.688 105.500 C 61.635 111.312, 60.691 122.411, 60.434 132 L 59.993 148.500 62.957 136.500 C 66.009 124.143, 66.581 114.968, 65.141 101.500 L 64.500 95.500 62.688 105.500" stroke="none" fill="black" fill-rule="evenodd"/>
</svg>