<svg xmlns="http://www.w3.org/2000/svg" width="200" height="200" viewBox="0 0 200 200" version="1.1">
	<path d="M 88.392 16.750 L 88.943 19.500 66.396 27.030 C 53.996 31.171, 43.877 34.996, 43.910 35.530 C 43.943 36.063, 46.053 36.639, 48.599 36.809 C 52.124 37.045, 56.598 38.951, 67.354 44.798 C 76.706 49.881, 80.827 52.602, 79.547 52.849 C 78.483 53.054, 68.173 54.191, 56.635 55.377 C 44.016 56.673, 35.509 57.973, 35.287 58.639 C 34.707 60.380, 38.579 60.964, 51.500 61.086 C 58.100 61.148, 67.287 61.491, 71.915 61.849 L 80.330 62.500 65.435 69 C 52.365 74.703, 48.769 75.811, 36.091 78.037 C 10.231 82.578, 16.593 83.979, 63.136 83.991 L 94.773 84 95.469 88.640 C 96.333 94.404, 95.618 94.945, 87 95.043 C 83.425 95.083, 73.300 95.882, 64.500 96.818 L 48.500 98.520 48.235 127.302 L 47.969 156.084 56.617 172.637 C 61.521 182.027, 65.569 188.697, 65.969 188.049 C 66.358 187.422, 70.461 176.773, 75.087 164.386 L 83.500 141.864 86.500 142.330 C 88.150 142.586, 92.064 143.542, 95.197 144.454 C 101.599 146.316, 100.847 144.626, 102.789 161.500 L 103.595 168.500 108.547 158.858 L 113.500 149.216 118.706 150.858 L 123.911 152.500 111.376 162.974 C 104.482 168.734, 99.215 173.561, 99.671 173.699 C 102.858 174.667, 149.596 179.781, 150.073 179.214 C 150.403 178.821, 151.868 166.575, 153.328 152 L 155.984 125.500 152.436 107.527 C 150.485 97.642, 148.801 89.469, 148.694 89.364 C 148.587 89.259, 146.751 87.784, 144.612 86.087 L 140.725 83 149.205 83 C 165.714 83, 182 81.757, 182 80.497 C 182 79.839, 176.987 77.174, 170.861 74.574 L 159.722 69.848 143.320 71.208 C 128.402 72.445, 126.786 72.421, 125.455 70.951 C 124.131 69.487, 125.196 68.821, 136.714 63.917 C 147.634 59.267, 150.360 57.624, 155.968 52.314 L 162.500 46.128 157 46.537 C 153.975 46.763, 143.850 47.142, 134.500 47.380 L 117.500 47.813 134.591 43.156 C 150.663 38.778, 152.259 38.119, 161.341 32.118 C 166.654 28.608, 171 25.420, 171 25.035 C 171 22.773, 168.761 23.703, 160.588 29.362 C 151.578 35.601, 151.205 35.748, 130.423 41.339 C 118.849 44.453, 108.732 46.995, 107.940 46.989 C 107.148 46.983, 103.234 42.146, 99.242 36.239 C 93.798 28.184, 91.986 24.663, 91.992 22.151 L 92 18.802 95.750 21.024 C 97.813 22.246, 102.975 25.269, 107.221 27.741 L 114.942 32.236 135.071 29.185 C 146.141 27.507, 155.424 25.909, 155.700 25.634 C 157.737 23.596, 152.493 23.783, 135.182 26.364 L 115.241 29.338 102.222 21.669 C 95.062 17.451, 88.897 14, 88.522 14 C 88.148 14, 88.089 15.238, 88.392 16.750 M 71.361 27.965 C 63.585 30.611, 56.517 33.171, 55.655 33.654 C 54.472 34.315, 58.150 36.725, 70.608 43.453 C 79.695 48.360, 87.888 52.951, 88.815 53.655 C 90.392 54.854, 90.390 54.938, 88.789 54.968 C 85.198 55.035, 66.341 57.090, 63 57.779 C 60.641 58.265, 64.065 58.663, 73.500 59 C 84.491 59.393, 87.500 59.796, 87.500 60.879 C 87.500 62.951, 52.982 77.872, 44.500 79.467 C 37.969 80.696, 39.426 80.791, 66.269 80.892 L 95.038 81 94.572 78.750 C 94.315 77.513, 93.112 65.475, 91.898 52 C 89.851 29.272, 88.587 22.827, 86.227 23.077 C 85.827 23.119, 79.138 25.319, 71.361 27.965 M 93.288 37.500 C 93.588 40.250, 94.646 51.162, 95.640 61.750 L 97.446 81 115.423 81 C 125.310 81, 132.973 80.627, 132.450 80.171 C 128.992 77.154, 125.701 75.164, 124.686 75.477 C 124.034 75.678, 119.563 76.126, 114.750 76.473 C 103.890 77.257, 102.959 75.580, 112.060 71.633 C 116.205 69.836, 117.895 68.609, 117.406 67.752 C 117.012 67.064, 114.804 63.800, 112.498 60.500 C 110.192 57.200, 105.263 50, 101.544 44.500 C 92.774 31.527, 92.622 31.399, 93.288 37.500 M 131.668 50.072 C 120.211 50.489, 110.603 51.063, 110.318 51.348 C 109.543 52.124, 120.185 67, 121.515 67 C 124.744 67, 148.838 55.443, 151.983 52.386 C 153.915 50.508, 154.806 49.070, 153.983 49.157 C 153.167 49.243, 143.126 49.655, 131.668 50.072 M 118 72 C 116.875 72.727, 117.375 72.969, 120 72.969 C 122.625 72.969, 123.125 72.727, 122 72 C 121.175 71.467, 120.275 71.031, 120 71.031 C 119.725 71.031, 118.825 71.467, 118 72 M 141.504 74.084 C 136.556 74.586, 132.142 75.119, 131.696 75.268 C 131.250 75.417, 132.256 76.552, 133.932 77.791 C 136.873 79.966, 137.629 80.035, 155.739 79.772 L 174.500 79.500 168.500 76.606 C 161.577 73.266, 155.313 72.681, 141.504 74.084 M 114.123 83.749 L 97.746 84.051 98.256 88.575 C 98.536 91.063, 99.013 93.346, 99.315 93.648 C 99.617 93.950, 107.432 93.744, 116.682 93.191 C 125.932 92.637, 133.644 92.324, 133.820 92.495 C 133.996 92.666, 133.208 94.632, 132.070 96.863 C 130.931 99.095, 130 101.184, 130 101.505 C 130 101.827, 131.601 101.790, 133.558 101.423 L 137.116 100.756 125.808 123.411 C 117.109 140.839, 114.807 146.257, 115.833 146.893 C 116.566 147.348, 119.624 148.310, 122.629 149.031 C 125.634 149.752, 128.285 150.653, 128.520 151.032 C 128.755 151.412, 123.709 156.148, 117.307 161.556 C 110.905 166.964, 106.107 171.536, 106.645 171.715 C 107.932 172.144, 147.441 176.867, 147.700 176.623 C 147.809 176.519, 149.083 165.199, 150.530 151.467 L 153.160 126.500 149.834 108.795 L 146.508 91.089 141.329 87.045 C 137.668 84.186, 135.322 83.065, 133.325 83.223 C 131.771 83.346, 123.130 83.583, 114.123 83.749 M 121.500 95.656 C 119.300 95.831, 113.338 96.248, 108.252 96.581 L 99.004 97.186 99.641 102.843 C 99.991 105.954, 100.343 108.591, 100.423 108.701 C 100.584 108.923, 121.437 104.293, 124.261 103.409 C 125.971 102.874, 129 98.170, 129 96.050 C 129 95.472, 128.213 95.076, 127.250 95.168 C 126.287 95.261, 123.700 95.480, 121.500 95.656 M 81.500 98.028 C 76.550 98.437, 67.438 99.331, 61.250 100.015 L 50 101.259 49.953 127.380 L 49.906 153.500 57.203 167.731 C 61.216 175.558, 64.734 181.971, 65.019 181.981 C 65.305 181.991, 69.094 172.565, 73.440 161.032 C 77.786 149.500, 81.619 139.616, 81.958 139.068 C 82.345 138.442, 85.877 138.981, 91.470 140.519 C 96.363 141.866, 100.451 142.862, 100.556 142.734 C 100.660 142.605, 100.240 137.100, 99.623 130.500 L 98.500 118.500 88.500 117.746 C 72.348 116.528, 72.023 115.246, 87.020 111.898 L 97 109.669 97 104.916 C 97 102.302, 96.727 99.452, 96.393 98.582 C 95.738 96.876, 95.543 96.869, 81.500 98.028 M 124.701 112.048 L 121.500 119.096 111.180 118.770 L 100.861 118.444 101.375 121.472 C 101.657 123.137, 102.174 128.100, 102.523 132.500 C 103.382 143.315, 103.582 143.790, 107.751 144.942 C 109.751 145.494, 111.475 145.845, 111.582 145.723 C 111.689 145.600, 116.329 136.387, 121.893 125.250 C 130.790 107.441, 131.762 105, 129.956 105 C 128.381 105, 127.155 106.644, 124.701 112.048 M 111 109.329 C 102.814 111.200, 101.457 111.801, 101.190 113.677 C 100.894 115.759, 101.284 115.869, 110.053 116.177 L 119.225 116.500 121.629 111.750 C 124.500 106.079, 124.865 106.162, 111 109.329 M 92.500 113.523 L 87.500 114.808 92.750 114.904 C 96.793 114.978, 98 114.655, 98 113.500 C 98 112.675, 97.888 112.053, 97.750 112.119 C 97.612 112.184, 95.250 112.816, 92.500 113.523 M 104.334 150.603 C 104.688 152.746, 105.009 155.625, 105.047 157 C 105.100 158.943, 105.662 158.296, 107.569 154.095 C 108.919 151.122, 109.905 148.571, 109.760 148.426 C 109.615 148.281, 108.190 147.835, 106.593 147.434 C 103.692 146.706, 103.691 146.707, 104.334 150.603" stroke="none" fill="black" fill-rule="evenodd"/>
</svg>