<svg xmlns="http://www.w3.org/2000/svg" width="200" height="200" viewBox="0 0 200 200" version="1.1">
	<path d="M 137.500 18.601 L 129.500 23.924 99 23.971 C 82.225 23.996, 66.138 24.301, 63.250 24.648 C 50.924 26.129, 60.113 26.990, 90.863 27.237 L 123.726 27.500 103.896 40.269 C 92.989 47.292, 83.484 53.261, 82.774 53.533 C 81.805 53.905, 81.575 52.880, 81.850 49.412 C 82.178 45.295, 82.017 44.857, 80.359 45.358 C 69.364 48.683, 21.642 61.975, 21.438 61.770 C 21.289 61.622, 27.768 57.391, 35.834 52.369 C 47.414 45.159, 53.528 42.118, 64.891 37.916 C 72.806 34.989, 78.881 32.467, 78.391 32.312 C 75.277 31.329, 26.510 24.185, 25.819 24.612 C 23.594 25.987, 27.506 26.996, 46.961 30.065 C 58.508 31.886, 67.794 33.539, 67.595 33.738 C 67.396 33.937, 62.794 35.796, 57.367 37.870 C 50.477 40.503, 41.918 45.183, 29 53.379 C 11.891 64.234, 7.442 67.961, 12.500 67.199 C 13.600 67.033, 21.651 64.872, 30.392 62.398 L 46.284 57.898 49.392 60.683 C 51.101 62.215, 54.397 65.241, 56.715 67.408 L 60.929 71.347 69.465 65.667 L 78 59.987 78 67.381 L 78 74.775 67.750 75.993 C 62.112 76.662, 55.025 77.501, 52 77.856 L 46.500 78.501 45.921 87.001 C 45.602 91.675, 43.015 105.957, 40.171 118.738 C 37.327 131.518, 35.007 142.768, 35.015 143.738 C 35.024 144.707, 37.051 151.072, 39.520 157.882 L 44.009 170.263 41.006 180.300 C 39.355 185.820, 38.122 190.455, 38.266 190.599 C 38.410 190.743, 51.252 180.543, 66.804 167.931 C 82.355 155.319, 95.399 145.013, 95.789 145.029 C 96.180 145.046, 102.315 155.058, 109.422 167.279 C 116.529 179.501, 122.416 189.612, 122.505 189.749 C 122.593 189.886, 138.265 185.431, 157.332 179.848 C 179.352 173.401, 192 169.235, 192 168.428 C 192 166.935, 192.967 167.150, 163.056 161.990 C 150.162 159.766, 139.471 157.805, 139.299 157.632 C 139.126 157.460, 143.274 155.109, 148.515 152.409 C 154.943 149.098, 158.179 146.849, 158.455 145.500 C 159.401 140.889, 164.003 89.670, 163.516 89.183 C 163.047 88.714, 118.691 97.575, 108.674 100.139 L 104.847 101.118 115.184 108.901 L 125.521 116.683 129.107 125.687 L 132.692 134.691 111.096 135.343 C 99.218 135.702, 84.337 135.996, 78.027 135.998 L 66.554 136 73.036 129.250 C 76.602 125.537, 81.487 120.397, 83.892 117.828 L 88.264 113.155 80.132 109.066 C 75.659 106.818, 72 104.805, 72 104.594 C 72 104.384, 80.437 98.692, 90.750 91.947 C 101.063 85.202, 112.875 76.889, 117 73.475 L 124.500 67.267 134.391 66.108 C 139.831 65.470, 144.462 65.129, 144.684 65.350 C 144.905 65.572, 143.495 69.971, 141.550 75.126 C 137.755 85.187, 137.310 87.397, 139.207 86.764 C 139.871 86.543, 142.603 81.411, 145.278 75.359 L 150.142 64.357 162.321 63.105 C 169.019 62.416, 175.318 61.620, 176.317 61.337 C 177.609 60.971, 174.866 58.921, 166.817 54.235 C 160.593 50.611, 155.378 47.566, 155.229 47.468 C 155.079 47.370, 155.933 44.741, 157.125 41.625 C 158.317 38.509, 159.115 35.813, 158.896 35.635 C 158.284 35.133, 131.728 29.998, 129.750 29.999 C 126.124 30.001, 128.337 32.701, 137.097 38.963 C 144.079 43.953, 145.833 45.661, 144.797 46.463 C 144.058 47.033, 140.003 50.123, 135.785 53.328 L 128.115 59.156 109.308 58.467 C 79.222 57.366, 78.575 59.760, 115.356 36.093 C 132.760 24.893, 147 15.368, 147 14.924 C 147 12.861, 144.914 13.668, 137.500 18.601 M 136.369 34.788 C 136.743 35.393, 140.519 38.209, 144.761 41.046 L 152.473 46.204 153.691 43.352 C 155.954 38.056, 155.511 37.440, 148.511 36.150 C 144.943 35.493, 140.598 34.670, 138.856 34.321 C 136.676 33.885, 135.901 34.031, 136.369 34.788 M 142 52.576 C 138.425 55.591, 135.350 58.495, 135.167 59.029 C 134.975 59.588, 137.433 60, 140.952 60 L 147.071 60 149.075 55.325 C 151.128 50.536, 151.270 47.886, 149.500 47.380 C 148.950 47.223, 145.575 49.561, 142 52.576 M 65.500 52.332 L 54.500 55.500 65.215 56.370 C 71.109 56.849, 76.621 56.976, 77.465 56.652 C 79.371 55.920, 79.633 48.958, 77.750 49.082 C 77.063 49.128, 71.550 50.590, 65.500 52.332 M 153.333 51.719 C 152.987 52.698, 152.133 54.929, 151.435 56.675 C 150.332 59.432, 150.379 59.931, 151.795 60.475 C 153.847 61.262, 169 59.991, 169 59.031 C 169 58.641, 167.988 57.826, 166.750 57.221 C 165.512 56.616, 162.129 54.730, 159.231 53.029 C 154.440 50.218, 153.904 50.099, 153.333 51.719 M 56.435 63.426 L 61.371 67.774 66.665 64.259 C 69.577 62.326, 71.717 60.351, 71.421 59.872 C 71.124 59.392, 66.521 59.017, 61.191 59.038 L 51.500 59.077 56.435 63.426 M 80.851 67.955 C 80.616 73.120, 80.016 76.372, 79.204 76.874 C 78.502 77.308, 72.881 78.215, 66.713 78.889 C 47.503 80.989, 49.385 79.953, 48.643 88.835 C 48.290 93.051, 45.609 107.136, 42.685 120.136 L 37.367 143.771 42.188 157.114 L 47.009 170.456 45.427 175.478 C 44.557 178.240, 43.660 181.086, 43.434 181.802 C 42.816 183.759, 43.437 183.292, 70.353 161.563 C 84.021 150.529, 95.699 141.500, 96.303 141.500 C 96.907 141.500, 103.381 151.625, 110.690 164 C 117.998 176.375, 124.320 186.440, 124.739 186.366 C 127.432 185.890, 182.643 169.539, 183.239 169.041 C 183.645 168.701, 172.395 166.455, 158.239 164.051 C 144.082 161.647, 132.174 159.403, 131.776 159.066 C 131.378 158.728, 136.474 155.599, 143.101 152.112 C 149.728 148.624, 155.335 145.260, 155.559 144.636 C 156.110 143.107, 161.028 92.694, 160.662 92.329 C 160.504 92.170, 149.306 94.364, 135.778 97.204 L 111.181 102.367 119.498 108.640 L 127.814 114.913 131.907 125.381 C 134.158 131.139, 136 136.263, 136 136.768 C 136 137.728, 62.183 139.516, 61.245 138.579 C 60.957 138.290, 65.734 132.919, 71.860 126.643 C 77.987 120.367, 83 114.830, 83 114.339 C 83 113.848, 79.138 111.530, 74.417 109.189 L 65.834 104.932 86.667 91.331 C 109.067 76.707, 119.484 68.917, 117.928 67.955 C 117.392 67.624, 118.586 66.191, 120.581 64.772 L 124.209 62.190 116.854 61.619 C 112.810 61.305, 103.137 60.773, 95.360 60.436 L 81.220 59.825 80.851 67.955 M 129.452 63.077 C 128.990 63.826, 130.270 63.939, 133.643 63.449 C 140.025 62.522, 140.415 62, 134.726 62 C 132.191 62, 129.818 62.485, 129.452 63.077" stroke="none" fill="black" fill-rule="evenodd"/>
</svg>