<svg xmlns="http://www.w3.org/2000/svg" width="200" height="200" viewBox="0 0 200 200" version="1.1">
	<path d="M 127.660 26.640 C 116.199 34.538, 106.449 41, 105.994 41 C 105.539 41, 105.017 41.361, 104.833 41.801 C 104.650 42.242, 98.425 46.779, 91 51.883 L 77.500 61.163 68.578 60.493 C 62.365 60.026, 57.204 58.901, 51.578 56.787 C 47.135 55.118, 40.800 53.470, 37.500 53.126 C 31.723 52.523, 32.539 52.295, 59.490 46.980 C 80.910 42.756, 87.550 41.098, 87.777 39.919 C 88.015 38.685, 84.166 37.530, 68.390 34.103 C 57.564 31.751, 47.760 29.445, 46.603 28.977 C 45.376 28.481, 57.313 28.100, 75.250 28.063 C 103.194 28.006, 106 27.849, 106 26.342 C 106 24.833, 104.308 24.743, 87.250 25.339 C 76.938 25.699, 60.063 25.996, 49.750 25.997 C 23.345 26.001, 24.180 27.190, 55.428 34.086 C 68.864 37.051, 79.666 39.667, 79.434 39.900 C 79.201 40.132, 66.071 42.845, 50.255 45.928 C 28.026 50.261, 21.500 51.870, 21.500 53.017 C 21.500 54.180, 23.984 54.732, 33 55.572 C 39.678 56.195, 45.758 57.317, 47.500 58.248 C 49.150 59.129, 53.412 62.809, 56.971 66.425 C 60.530 70.041, 63.863 73, 64.377 73 C 64.891 73, 66.786 71.875, 68.589 70.500 C 70.392 69.125, 72.301 68, 72.832 68 C 73.362 68, 77.691 69.419, 82.450 71.152 C 90.516 74.091, 91.083 74.481, 90.802 76.902 C 90.529 79.248, 89.844 79.636, 83.737 80.903 L 76.974 82.306 65.237 78.505 C 58.782 76.415, 52.460 74.322, 51.189 73.854 C 49.043 73.064, 49.114 73.332, 52.189 77.619 C 54.010 80.158, 56.850 83.766, 58.500 85.636 L 61.500 89.036 69.431 87.112 L 77.362 85.189 83.409 87.344 C 86.735 88.530, 89.405 89.950, 89.341 90.500 C 89.277 91.050, 88.911 96.338, 88.528 102.250 C 88.145 108.162, 87.459 113, 87.004 113 C 86.548 113, 77.778 108.249, 67.514 102.441 C 57.250 96.634, 48.466 92.022, 47.996 92.191 C 47.525 92.361, 42.459 99.250, 36.737 107.500 L 26.334 122.500 23.586 143.335 C 22.074 154.795, 20.986 164.304, 21.169 164.467 C 21.351 164.630, 28.194 168.836, 36.376 173.814 L 51.251 182.864 64.656 167.226 C 77.540 152.196, 78.159 151.266, 80.581 143.328 L 83.100 135.069 88.300 137.110 C 91.160 138.232, 93.628 139.454, 93.785 139.825 C 93.942 140.196, 98.523 151.300, 103.965 164.500 C 113.058 186.554, 114.048 188.482, 116.180 188.276 C 146.158 185.380, 171.562 182.763, 171.781 182.548 C 172.188 182.147, 177.063 104.730, 176.704 104.370 C 176.538 104.204, 172.037 103.762, 166.701 103.387 C 160.741 102.968, 156.989 102.280, 156.972 101.602 C 156.957 100.996, 158.594 91.045, 160.611 79.489 L 164.279 58.479 174.310 51.489 L 184.341 44.500 176.424 44.203 C 172.070 44.040, 168.206 43.590, 167.839 43.203 C 167.472 42.817, 167.830 38.735, 168.635 34.132 C 169.440 29.530, 169.883 25.550, 169.620 25.287 C 169.225 24.892, 121.378 36.908, 116.117 38.723 C 115.227 39.030, 117.107 37.418, 120.294 35.140 C 123.481 32.863, 126.361 31, 126.693 31 C 127.793 31, 150 14.716, 150 13.909 C 150 11.630, 146.780 13.465, 127.660 26.640 M 141.221 34.893 L 115.943 41.500 131.221 42.262 C 139.625 42.681, 150.541 42.906, 155.480 42.762 L 164.459 42.500 165.619 35.500 C 166.257 31.650, 166.716 28.452, 166.639 28.393 C 166.563 28.334, 155.125 31.259, 141.221 34.893 M 94.449 52.788 C 87.577 57.463, 82.092 61.425, 82.261 61.594 C 82.430 61.763, 87.728 62.381, 94.034 62.968 C 100.340 63.554, 107.023 64.283, 108.884 64.588 C 111.615 65.034, 112.157 64.851, 111.693 63.641 C 111.376 62.817, 110.816 60.535, 110.447 58.571 L 109.777 55 129.889 55 C 140.950 55, 150 55.370, 150 55.822 C 150 56.274, 149.274 58.773, 148.388 61.376 C 147.501 63.979, 146.971 66.304, 147.210 66.543 C 147.449 66.782, 150.841 64.725, 154.749 61.973 C 161.611 57.138, 161.881 56.790, 162.689 51.734 L 163.525 46.500 150.013 45.847 C 142.581 45.488, 129.850 44.991, 121.723 44.742 L 106.945 44.289 94.449 52.788 M 166.552 47.250 C 165.522 50.595, 165.025 54, 165.567 54 C 166.677 54, 175 47.674, 175 46.830 C 175 45.469, 166.978 45.867, 166.552 47.250 M 113.610 60.750 C 113.967 62.263, 114.585 63.863, 114.985 64.306 C 115.833 65.246, 140.840 67.999, 142.555 67.340 C 143.528 66.967, 146 60.720, 146 58.634 C 146 58.285, 138.566 58, 129.481 58 L 112.962 58 113.610 60.750 M 155.488 64.821 L 150.500 68.500 155 69 L 159.500 69.500 145.797 79.250 C 133.848 87.752, 129 90.415, 129 88.474 C 129 88.185, 131.462 84.271, 134.470 79.777 C 137.479 75.284, 139.785 71.451, 139.594 71.261 C 139.067 70.734, 119.627 75.220, 118.613 76.102 C 117.823 76.790, 118.681 81.287, 122.042 94.071 C 122.929 97.447, 123.376 97.759, 130.240 99.784 C 134.233 100.962, 141.137 102.120, 145.582 102.357 L 153.664 102.788 157.301 82.197 C 159.302 70.872, 160.835 61.501, 160.707 61.374 C 160.580 61.247, 158.231 62.798, 155.488 64.821 M 60.453 65.952 C 63.532 69.105, 64.673 69.710, 66.100 68.946 C 69.457 67.150, 68.957 66.261, 63.389 64.131 C 60.327 62.959, 57.546 62, 57.208 62 C 56.870 62, 58.331 63.778, 60.453 65.952 M 76.591 64.852 C 76.056 65.719, 90.651 72, 93.199 72 C 93.772 72, 94.032 73.327, 93.787 75 C 93.241 78.718, 93.991 78.773, 105.609 75.859 C 113.945 73.768, 114.131 73.657, 113.494 71.119 C 113.135 69.690, 112.411 68.254, 111.885 67.929 C 111.358 67.603, 104.531 66.788, 96.714 66.117 C 88.896 65.446, 81.305 64.669, 79.845 64.390 C 78.385 64.111, 76.921 64.319, 76.591 64.852 M 116 69.810 C 116 72.893, 117.215 73.160, 124.019 71.573 C 131.545 69.817, 132.615 69.004, 127.417 68.989 C 125.262 68.983, 121.813 68.699, 119.750 68.358 C 116.424 67.808, 116 67.973, 116 69.810 M 143.936 72.742 C 141.660 74.126, 137 80.039, 137 81.543 C 137 82.391, 150.931 72.625, 150.968 71.750 C 151.022 70.479, 146.640 71.097, 143.936 72.742 M 102.250 79.322 C 93.072 81.436, 93 81.477, 93 84.501 C 93 87.518, 93.131 87.592, 105.691 91.750 C 112.671 94.061, 118.565 95.768, 118.789 95.545 C 119.204 95.129, 117.723 87.472, 115.925 80.750 C 114.756 76.375, 114.954 76.396, 102.250 79.322 M 58.978 81.970 C 61.875 86.038, 62.137 86.125, 67.115 84.667 L 71.500 83.383 65.056 81.191 C 56.776 78.376, 56.449 78.417, 58.978 81.970 M 87.500 82.819 C 84.160 83.446, 83.697 84.707, 86.545 85.422 C 89.556 86.178, 90.336 85.793, 89.838 83.800 C 89.651 83.048, 88.609 82.610, 87.500 82.819 M 91.505 100.750 C 91.114 106.112, 90.502 112.179, 90.147 114.232 L 89.500 117.963 69.085 106.480 C 57.856 100.164, 48.594 95.110, 48.502 95.249 C 48.410 95.387, 44.293 101.350, 39.354 108.500 C 34.414 115.650, 30.059 122.028, 29.675 122.673 C 28.438 124.752, 23.871 162.271, 24.748 163.148 C 25.740 164.140, 49.932 179, 50.555 179 C 50.787 179, 56.526 172.514, 63.308 164.586 C 75.391 150.462, 75.694 149.990, 78.366 141.086 C 79.866 136.089, 81.409 132.007, 81.796 132.017 C 82.183 132.026, 85.425 133.100, 89 134.404 L 95.500 136.775 105.598 161.137 C 115.003 183.829, 115.860 185.485, 118.098 185.278 C 140.974 183.159, 164.155 180.863, 166.533 180.480 L 169.566 179.991 171.785 143.904 C 173.006 124.056, 173.752 107.408, 173.443 106.908 C 173.135 106.409, 169.114 106, 164.508 106 C 157.388 106, 156.061 106.262, 155.643 107.750 C 155.373 108.713, 152.814 122.775, 149.958 139 C 147.102 155.225, 144.612 168.668, 144.426 168.874 C 142.973 170.473, 140.879 166.254, 137.078 154.070 L 132.656 139.895 134.362 130.265 C 135.916 121.496, 136.452 120.182, 140.355 115.568 C 142.713 112.780, 144.948 109.979, 145.323 109.342 C 146.363 107.574, 134.627 104, 127.781 104 C 122.656 104, 121.847 103.728, 121.092 101.750 C 120.404 99.947, 117.668 98.655, 107.326 95.250 C 100.228 92.912, 93.924 91, 93.318 91 C 92.639 91, 91.943 94.746, 91.505 100.750 M 148.250 105.689 C 150.878 106.376, 150.419 107.783, 145.734 113.392 C 143.388 116.201, 140.839 119.310, 140.070 120.300 C 139.301 121.290, 137.938 126.015, 137.040 130.800 L 135.407 139.500 139.061 151 C 141.971 160.161, 142.845 161.991, 143.356 160 C 144.029 157.377, 153 106.845, 153 105.675 C 153 105.304, 151.537 105.052, 149.750 105.116 C 147.963 105.180, 147.287 105.438, 148.250 105.689" stroke="none" fill="black" fill-rule="evenodd"/>
</svg>