<svg xmlns="http://www.w3.org/2000/svg" width="200" height="200" viewBox="0 0 200 200" version="1.1">
	<path d="M 147 21.707 L 115.500 30.015 77 29.097 C 55.825 28.592, 38.344 28.332, 38.154 28.519 C 37.963 28.706, 40.766 30.803, 44.383 33.180 C 47.999 35.556, 50.968 37.919, 50.979 38.430 C 51.026 40.528, 42.745 51.834, 40.786 52.346 C 39.210 52.758, 38.935 53.230, 39.707 54.199 C 40.476 55.164, 38.462 59.037, 31.914 69.190 L 23.084 82.880 21.082 127.647 C 19.981 152.269, 19.219 172.553, 19.389 172.722 C 19.559 172.892, 23.703 166.958, 28.599 159.536 C 33.494 152.113, 37.725 146.049, 38 146.059 C 38.275 146.070, 42.910 151.798, 48.300 158.789 C 53.690 165.780, 58.865 172.420, 59.800 173.543 C 61.218 175.247, 65.737 176.303, 87 179.897 C 101.025 182.267, 113.327 184.273, 114.338 184.353 C 115.768 184.467, 118.680 179.658, 127.448 162.699 L 138.719 140.898 151.936 157.699 C 159.205 166.940, 165.456 174.607, 165.826 174.737 C 166.197 174.868, 167.922 171.459, 169.660 167.163 C 172.568 159.975, 173.160 156.361, 177.096 121.820 L 181.373 84.288 168.436 69.158 C 161.321 60.837, 155.500 53.590, 155.500 53.054 C 155.500 52.519, 160.848 46.408, 167.385 39.475 C 183.449 22.437, 181.775 21.527, 162.061 36.584 L 146.798 48.242 148.829 50.274 L 150.861 52.306 146.755 57.176 L 142.649 62.045 133.574 61.378 C 128.583 61.011, 123.747 60.438, 122.826 60.105 C 121.423 59.598, 122.352 57.511, 128.547 47.250 L 135.942 35 124.721 34.919 L 113.500 34.838 146.370 25.466 C 164.448 20.312, 179.386 15.948, 179.565 15.768 C 179.744 15.589, 179.578 14.982, 179.196 14.421 C 178.750 13.767, 167.157 16.391, 147 21.707 M 47 31.506 C 47 31.688, 48.570 32.807, 50.490 33.994 C 53.907 36.106, 54.494 36.136, 78.740 35.436 C 105.445 34.664, 112.999 33.627, 99 32.653 C 88.935 31.953, 47 31.028, 47 31.506 M 114.500 38.047 C 99.773 38.551, 97.444 38.901, 85.232 42.445 C 77.934 44.563, 72.084 46.414, 72.232 46.558 C 72.379 46.702, 78.294 49.344, 85.376 52.431 C 96.226 57.159, 99.688 58.194, 107.376 59.004 C 112.394 59.533, 116.809 59.973, 117.186 59.983 C 117.935 60.002, 131.427 37.989, 130.852 37.686 C 130.659 37.584, 123.300 37.746, 114.500 38.047 M 57 39 C 56.175 39.533, 55.782 39.976, 56.126 39.985 C 56.470 39.993, 59.170 41.057, 62.126 42.348 L 67.500 44.696 79 41.413 L 90.500 38.130 74.500 38.080 C 65.700 38.053, 57.825 38.467, 57 39 M 157.129 43.642 C 152.664 46.960, 151.191 48.591, 151.961 49.361 C 152.732 50.132, 154.670 48.808, 158.759 44.720 C 161.904 41.574, 164.230 39, 163.927 39 C 163.624 39, 160.565 41.089, 157.129 43.642 M 50.058 45.626 C 48.881 47.620, 48.114 49.447, 48.352 49.685 C 48.785 50.118, 59.701 47.225, 61.396 46.229 C 62.476 45.593, 56.182 42.101, 53.849 42.042 C 52.941 42.019, 51.235 43.632, 50.058 45.626 M 55.404 50.866 C 50.401 52.315, 46.194 53.950, 46.055 54.500 C 45.916 55.050, 48.198 57.525, 51.127 60 C 56.636 64.654, 56.637 64.631, 51.385 56.500 C 50.462 55.072, 50.227 54, 50.837 54 C 51.423 54, 59.607 54.702, 69.023 55.560 C 78.439 56.417, 86.589 56.970, 87.134 56.789 C 88.523 56.326, 68.427 47.974, 66.266 48.116 C 65.295 48.180, 60.407 49.417, 55.404 50.866 M 149.191 58.303 C 145.556 62.053, 145.854 63, 150.667 63 C 152.500 63, 154 63.222, 154 63.493 C 154 63.764, 149.843 72.314, 144.763 82.493 C 135.141 101.769, 132.229 105.239, 133.514 95.898 C 134.157 91.226, 134.059 90.845, 132.358 91.370 C 131.336 91.686, 127.350 92.652, 123.500 93.519 C 119.650 94.385, 115.713 95.328, 114.750 95.614 C 113.216 96.071, 113 97.543, 113 107.548 C 113 118.564, 113.078 118.980, 115.250 119.481 C 118.084 120.135, 166.365 130, 166.730 130 C 166.879 130, 167 130.684, 167 131.519 C 167 132.580, 166.321 132.883, 164.750 132.524 C 161.461 131.773, 114.339 124, 113.074 124 C 112.342 124, 112 130.871, 112 145.583 C 112 158.165, 111.620 167.028, 111.088 166.833 C 110.586 166.650, 105.490 162.526, 99.762 157.669 L 89.349 148.838 92.197 135.774 C 93.763 128.590, 94.919 122.586, 94.765 122.432 C 94.612 122.279, 85.145 130.713, 73.728 141.174 L 52.970 160.195 55.735 163.911 C 63.164 173.897, 60.351 172.702, 86.692 177.066 C 99.786 179.236, 111.429 181.221, 112.564 181.478 C 114.223 181.853, 115.074 181.017, 116.898 177.222 C 118.146 174.625, 123.441 164.270, 128.663 154.210 L 138.158 135.920 151.688 153.018 C 159.129 162.422, 165.356 169.977, 165.525 169.808 C 165.694 169.639, 166.777 167.104, 167.931 164.176 C 169.470 160.271, 171.091 149.699, 174.014 124.498 C 176.207 105.604, 177.999 88.874, 177.997 87.322 C 177.994 85.180, 175.323 81.369, 166.906 71.500 C 151.048 52.908, 153.007 54.366, 149.191 58.303 M 36.718 66.708 C 24.379 85.874, 25.930 78.968, 23.993 123.360 C 23.053 144.887, 22.412 162.654, 22.568 162.842 C 22.723 163.030, 26.187 158.192, 30.263 152.091 L 37.676 140.998 44.361 149.434 L 51.046 157.870 68.773 139.333 C 78.523 129.138, 86.631 120.449, 86.791 120.024 C 86.952 119.600, 81.908 118.441, 75.583 117.449 L 64.084 115.645 61.013 111.369 L 57.942 107.093 61.721 106.103 C 63.800 105.559, 69.325 104.163, 74 103 C 78.675 101.837, 84.300 100.413, 86.500 99.834 L 90.500 98.783 78.541 94.579 L 66.583 90.375 55.638 92.235 C 48.127 93.511, 44.371 93.771, 43.664 93.064 C 43.097 92.497, 42.828 91.865, 43.067 91.660 C 43.305 91.455, 58.125 85.516, 76 78.462 L 108.500 65.638 103.431 63.335 C 99.500 61.549, 94.672 60.695, 81.931 59.531 C 72.894 58.706, 63.110 57.763, 60.189 57.436 L 54.878 56.841 59.607 63.952 C 62.484 68.278, 63.976 71.424, 63.416 71.984 C 62.857 72.543, 58.683 69.772, 52.760 64.910 L 43.023 56.917 36.718 66.708 M 111.274 63.584 C 114.002 65.064, 116 64.792, 116 62.941 C 116 62.423, 114.313 62.018, 112.250 62.040 L 108.500 62.080 111.274 63.584 M 113.990 71.516 C 110.424 77.420, 108.441 79.841, 107.741 79.141 C 107.042 78.442, 107.755 76.499, 109.987 73.020 C 111.786 70.217, 113.065 67.732, 112.830 67.497 C 112.596 67.262, 100.050 71.982, 84.952 77.985 C 65.706 85.637, 58.886 88.729, 62.137 88.329 C 65.954 87.860, 69.289 88.597, 80.978 92.493 C 95.726 97.408, 97.089 97.541, 106.250 94.962 C 108.470 94.337, 110 93.287, 110 92.390 C 110 91.414, 110.754 90.986, 112.117 91.187 C 113.720 91.424, 117.228 88.342, 126.555 78.500 C 133.331 71.350, 138.566 65.215, 138.187 64.866 C 137.809 64.517, 133.386 63.924, 128.357 63.549 L 119.215 62.867 113.990 71.516 M 130.613 78.197 C 123.709 85.455, 118.175 91.508, 118.314 91.647 C 118.453 91.786, 122.692 90.851, 127.734 89.568 C 132.776 88.285, 137.118 87.451, 137.382 87.715 C 137.646 87.979, 137.646 88.939, 137.381 89.848 C 137.117 90.756, 139.800 85.875, 143.343 79 C 146.887 72.125, 149.583 66.162, 149.334 65.750 C 149.085 65.338, 147.596 65, 146.023 65 C 143.657 65, 141.003 67.273, 130.613 78.197 M 104.585 98.103 C 101.191 99.049, 100.037 100.535, 100.015 103.985 C 100.001 106.357, 100.192 106.278, 104.201 102.270 C 106.512 99.959, 108.199 97.893, 107.951 97.679 C 107.703 97.465, 106.188 97.656, 104.585 98.103 M 79.250 104.387 C 70.313 106.616, 63.014 108.678, 63.032 108.970 C 63.049 109.261, 63.674 110.305, 64.421 111.289 C 65.395 112.573, 69.106 113.648, 77.568 115.095 L 89.358 117.112 93.065 113.306 C 95.783 110.515, 96.907 108.384, 97.281 105.317 C 97.607 102.652, 97.376 100.989, 96.646 100.735 C 96.016 100.515, 88.188 102.159, 79.250 104.387 M 104.250 105.945 C 96.820 114.294, 97.103 115.937, 106.250 117.558 L 110 118.223 110 109.111 C 110 104.100, 109.888 100.010, 109.750 100.023 C 109.612 100.036, 107.138 102.701, 104.250 105.945 M 94.020 116.476 C 93.231 117.426, 93.155 118, 93.819 118 C 95.027 118, 96.436 116.103, 95.743 115.409 C 95.491 115.158, 94.716 115.638, 94.020 116.476 M 86.662 124.500 C 84.593 126.975, 83.054 129, 83.242 129 C 83.430 129, 85.571 126.975, 88 124.500 C 90.429 122.025, 91.968 120, 91.420 120 C 90.872 120, 88.731 122.025, 86.662 124.500 M 96.939 126.927 C 96.317 129.992, 95.023 135.928, 94.062 140.118 L 92.316 147.737 100.658 154.903 L 109 162.070 109.005 153.785 C 109.007 149.228, 109.297 140.510, 109.648 134.411 L 110.287 123.322 104.178 122.338 L 98.068 121.354 96.939 126.927" stroke="none" fill="black" fill-rule="evenodd"/>
</svg>