<svg xmlns="http://www.w3.org/2000/svg" width="200" height="200" viewBox="0 0 200 200" version="1.1">
	<path d="M 135 22.102 C 124.948 28.269, 119.580 30.982, 117.500 30.946 C 115.850 30.917, 102.765 29.439, 88.423 27.661 L 62.346 24.429 50.064 31.964 L 37.781 39.500 38.390 70.886 L 38.999 102.272 48.171 112.886 C 53.216 118.724, 57.829 124.036, 58.422 124.691 C 59.249 125.605, 62.981 125.081, 74.449 122.441 C 91.940 118.413, 93.569 118.806, 87.026 125.474 L 82.643 129.939 80.286 126.470 C 78.989 124.561, 77.571 123, 77.135 123 C 76.699 123, 72.475 125.699, 67.748 128.997 L 59.153 134.994 47.736 128.997 C 41.456 125.699, 35.901 123, 35.391 123 C 34.616 123, 20.541 176.441, 20.510 179.500 C 20.478 182.688, 24.276 178.632, 35.960 163 C 45.578 150.133, 50.425 144.538, 54.270 141.865 L 59.500 138.229 64.357 140.686 L 69.215 143.143 66.888 145.821 C 65.608 147.295, 60.623 152.550, 55.810 157.500 C 50.443 163.019, 47.341 166.953, 47.790 167.672 C 48.299 168.488, 54.358 166.056, 67.718 159.672 C 78.276 154.627, 86.934 150.259, 86.957 149.965 C 86.981 149.670, 84.011 147.955, 80.357 146.153 L 73.714 142.878 77.560 138.939 C 79.675 136.772, 81.699 135, 82.058 135 C 82.416 135, 87.340 141.975, 93 150.500 C 102.160 164.298, 106.088 168.618, 105.958 164.750 C 105.935 164.063, 104.410 155.400, 102.570 145.500 C 100.730 135.600, 99.286 127.435, 99.362 127.355 C 99.569 127.136, 126.815 148.387, 128.540 150.111 C 129.863 151.435, 129.300 152.157, 123.570 156.485 C 119.990 159.189, 117.398 161.842, 117.757 162.433 C 118.653 163.906, 135.082 186.292, 136.067 187.382 C 136.814 188.209, 176.215 160.079, 177.719 157.645 C 178.275 156.746, 182.085 101.874, 181.628 101.355 C 181.558 101.275, 170.579 103.254, 157.231 105.753 C 143.883 108.251, 132.745 110.078, 132.480 109.813 C 132.215 109.548, 132.288 105.251, 132.642 100.263 L 133.286 91.195 147.393 85.659 C 155.553 82.457, 161.500 79.570, 161.500 78.812 C 161.500 77.838, 158.625 77.371, 150.329 77 C 144.185 76.725, 138.910 76.250, 138.607 75.945 C 138.304 75.640, 141.081 72.395, 144.778 68.735 C 150.016 63.549, 152.935 61.541, 158 59.639 L 164.500 57.198 161.172 56.330 L 157.844 55.462 170.014 42.731 C 176.707 35.729, 182.030 30.007, 181.842 30.016 C 178.729 30.158, 125.786 36.881, 125.496 37.170 C 125.273 37.394, 127.409 41.238, 130.242 45.714 C 134.760 52.849, 135.832 53.932, 138.947 54.504 C 150.161 56.564, 152.087 57.190, 151.051 58.439 C 150.478 59.129, 140.333 63.210, 128.505 67.510 C 106.594 75.474, 102.463 78, 111.349 78 C 113.741 78, 119.131 78.290, 123.327 78.645 L 130.956 79.290 115.866 95.141 L 100.776 110.992 94.124 107.496 L 87.472 104 79.236 87.492 C 74.706 78.413, 71 70.760, 71 70.486 C 71 70.080, 86.189 80.672, 90.738 84.251 C 91.593 84.923, 92.160 84.748, 92.568 83.684 C 92.921 82.764, 89.965 76.771, 85.238 68.822 C 74.146 50.166, 73.945 49.736, 78.172 53.750 C 80.055 55.537, 81.903 57, 82.279 57 C 82.655 57, 91.184 51.980, 101.232 45.845 C 111.279 39.710, 120.481 34.578, 121.680 34.441 C 122.879 34.304, 129.629 30.252, 136.680 25.437 C 152.081 14.919, 151.078 15.742, 150.208 14.345 C 149.739 13.591, 144.602 16.211, 135 22.102 M 52.355 33.820 L 41.500 40.547 41.236 70.529 L 40.971 100.510 50.096 111.005 C 55.114 116.777, 59.508 121.792, 59.860 122.150 C 60.776 123.080, 97.282 114.654, 97.694 113.417 C 97.883 112.851, 96.439 111.626, 94.485 110.694 C 89.971 108.542, 89.698 108.567, 91.008 111.015 C 91.848 112.584, 91.761 113.155, 90.614 113.595 C 89.717 113.939, 83.540 109.966, 74.821 103.437 C 57.466 90.443, 58.366 91.234, 59.572 90.028 C 60.201 89.399, 64.338 91.162, 71.303 95.028 C 77.221 98.313, 82.272 101, 82.528 101 C 82.784 101, 79.068 93.136, 74.272 83.525 C 68.685 72.329, 65.901 65.713, 66.525 65.115 C 67.140 64.527, 71.008 66.707, 76.992 71.015 C 82.213 74.774, 86.617 77.717, 86.779 77.555 C 86.940 77.393, 82.557 69.631, 77.036 60.306 C 71.516 50.981, 67 42.823, 67 42.176 C 67 39.651, 69.720 41.268, 76.068 47.568 L 82.687 54.135 98.995 44.095 C 107.965 38.572, 114.673 33.852, 113.902 33.605 C 113.131 33.358, 102.600 31.990, 90.500 30.565 C 78.400 29.139, 67.310 27.775, 65.855 27.533 C 63.873 27.202, 60.486 28.780, 52.355 33.820 M 154 36.059 C 146.025 37.057, 137.153 38.158, 134.285 38.505 L 129.069 39.135 132.748 44.818 C 134.772 47.943, 136.536 50.668, 136.670 50.873 C 136.803 51.077, 140.869 52.058, 145.706 53.052 L 154.500 54.859 157.344 52.179 C 158.909 50.706, 163.344 46.013, 167.200 41.750 C 175.401 32.685, 176.648 33.223, 154 36.059 M 129.777 69.867 C 122.780 72.477, 116.742 74.925, 116.360 75.306 C 115.979 75.688, 119.925 76, 125.130 76 L 134.594 76 138.101 72.250 C 142.762 67.266, 144.433 64.987, 143.372 65.061 C 142.893 65.094, 136.775 67.257, 129.777 69.867 M 119.111 95.694 C 110.280 104.876, 103.186 112.519, 103.346 112.679 C 103.506 112.839, 106.140 112.446, 109.198 111.804 L 114.759 110.638 137.379 120.459 C 149.821 125.860, 160 130.561, 160 130.905 C 160 131.248, 151.249 138.273, 140.554 146.515 C 129.858 154.757, 121.083 161.768, 121.054 162.095 C 120.978 162.940, 136.919 184, 137.635 184 C 138.437 184, 173.729 158.044, 174.853 156.627 C 175.738 155.511, 179.121 105.896, 178.369 105.072 C 177.978 104.644, 132.736 112.833, 130.107 113.807 C 128.953 114.235, 128.830 112.881, 129.391 105.912 C 129.763 101.285, 130.327 95.596, 130.644 93.269 L 131.221 89.039 142.264 84.769 L 153.308 80.500 148.904 79.824 C 146.482 79.452, 142.400 79.115, 139.833 79.074 L 135.166 79 119.111 95.694 M 80 103.972 C 83.745 107.095, 86 108.254, 86 107.056 C 86 106.497, 84.088 105.106, 81.750 103.964 L 77.500 101.887 80 103.972 M 111.750 113.816 C 110.237 113.990, 109 114.481, 109 114.908 C 109 115.334, 114.175 118.487, 120.500 121.914 L 132 128.146 132 138.573 C 132 144.308, 132.262 149, 132.583 149 C 133.765 149, 155.095 131.762, 154.567 131.233 C 154.266 130.933, 145.128 126.819, 134.260 122.093 C 121.485 116.537, 113.528 113.612, 111.750 113.816 M 99.465 116.952 C 93.988 119.172, 94.618 120.049, 110.629 132.500 C 119.116 139.100, 126.946 145.117, 128.030 145.872 C 129.943 147.204, 130 146.999, 130 138.714 L 130 130.185 117.031 123.092 C 103.717 115.812, 102.944 115.541, 99.465 116.952 M 88.177 127.655 L 84.198 132.310 92.759 145.161 C 97.468 152.230, 101.475 157.858, 101.665 157.669 C 102.076 157.258, 96.062 124.909, 95.365 123.781 C 94.267 122.004, 91.931 123.263, 88.177 127.655 M 31.049 147.797 C 28.089 159.734, 25.460 170.400, 25.206 171.500 C 24.951 172.600, 29.726 166.794, 35.816 158.599 C 43.085 148.817, 48.443 142.633, 51.412 140.599 C 53.900 138.894, 55.950 137.236, 55.968 136.914 C 55.985 136.592, 51.597 134.025, 46.215 131.211 L 36.430 126.093 31.049 147.797 M 69.165 131.258 L 61.830 136.378 66.542 138.773 L 71.254 141.167 75.627 136.875 C 80.499 132.094, 80.699 131.438, 78.228 128.319 L 76.500 126.138 69.165 131.258 M 67.451 149.250 C 54.939 162.659, 55.299 162.201, 58.121 161.136 C 59.563 160.592, 65.399 157.811, 71.089 154.955 L 81.436 149.763 76.968 147.427 C 74.511 146.142, 72.256 145.070, 71.958 145.045 C 71.660 145.020, 69.632 146.912, 67.451 149.250" stroke="none" fill="black" fill-rule="evenodd"/>
</svg>