<svg xmlns="http://www.w3.org/2000/svg" width="200" height="200" viewBox="0 0 200 200" version="1.1">
	<path d="M 100 22.915 L 100 35.053 81.250 34.424 C 64.822 33.873, 59.728 34.118, 40.112 36.398 C 27.798 37.829, 17.336 39, 16.862 39 C 16.388 39, 16 39.625, 16 40.388 C 16 41.860, 39.979 42.944, 81 43.327 L 99.500 43.500 99.807 48.886 L 100.114 54.273 95.307 53.676 C 86.912 52.633, 46.003 50.664, 45.394 51.273 C 44.477 52.190, 58.354 99.199, 59.693 99.713 C 60.351 99.965, 69.464 98.426, 79.944 96.293 L 99 92.415 99 97.707 L 99 103 92.750 102.962 C 89.313 102.941, 79.399 102.531, 70.721 102.050 C 55.297 101.195, 54.546 101.249, 37.452 104.440 C 27.833 106.235, 19.676 107.991, 19.326 108.341 C 18.448 109.218, 23.102 181.280, 24.109 182.410 C 24.797 183.182, 29.318 179.363, 48.366 161.921 C 50.015 160.411, 50.395 157.264, 51.621 134.935 C 52.384 121.033, 53.214 109.453, 53.464 109.202 C 53.715 108.952, 64.091 108.513, 76.521 108.227 L 99.121 107.709 98.811 112.604 L 98.500 117.500 78.573 119.760 C 67.613 121.003, 58.478 122.188, 58.273 122.394 C 57.387 123.280, 70.415 170, 71.548 170 C 72.216 170, 78.328 167.982, 85.131 165.515 C 91.934 163.049, 97.823 161.024, 98.218 161.015 C 98.613 161.007, 99.607 162.238, 100.428 163.750 L 101.920 166.500 101.960 162.935 C 102 159.410, 102.084 159.340, 109.461 156.739 L 116.922 154.109 137.222 171.348 C 148.387 180.829, 158.039 188.906, 158.672 189.297 C 159.448 189.777, 163.157 181.639, 170.085 164.254 L 180.347 138.500 179.125 120.500 C 178.453 110.600, 177.640 100.155, 177.318 97.288 L 176.734 92.077 165.860 88.453 C 159.880 86.461, 155.248 84.408, 155.567 83.891 C 155.886 83.375, 151.586 74.142, 146.010 63.373 C 140.435 52.604, 136.096 43.571, 136.368 43.299 C 136.640 43.026, 148.819 42.555, 163.431 42.251 C 186.001 41.781, 190 41.475, 190 40.215 C 190 38.921, 186.421 38.825, 162.087 39.462 C 134.743 40.178, 134.152 40.152, 133.095 38.177 C 132.073 36.268, 133.153 35.782, 153.452 29.016 C 169.032 23.823, 174.748 21.506, 174.375 20.534 C 173.985 19.520, 168.169 21.099, 150.235 27.089 C 127.300 34.748, 126.547 34.927, 124.554 33.193 C 123.424 32.210, 117.438 26.764, 111.250 21.091 L 100 10.777 100 22.915 M 102 25.896 L 102 35 106.353 35 C 108.748 35, 113.585 35.280, 117.103 35.621 L 123.500 36.243 116.500 29.790 C 112.650 26.241, 107.813 21.864, 105.750 20.065 L 102 16.793 102 25.896 M 47.500 38.422 C 38.696 39.555, 39.124 39.598, 67.114 40.401 C 94.135 41.176, 100 40.939, 100 39.075 C 100 36.837, 63.357 36.381, 47.500 38.422 M 102 39 C 102 39.628, 107.485 39.945, 116.750 39.853 C 128.425 39.737, 130.249 39.551, 125.500 38.962 C 116.344 37.826, 102 37.849, 102 39 M 102 48.500 C 102 51.525, 102.250 54, 102.556 54 C 103.266 54, 126.359 43.962, 126.917 43.412 C 127.146 43.185, 121.633 43, 114.667 43 L 102 43 102 48.500 M 130.250 43.971 C 130.387 44.505, 124.650 49.961, 117.500 56.095 C 110.350 62.229, 104.388 67.530, 104.251 67.874 C 104.114 68.218, 113.772 71.645, 125.714 75.490 C 144.605 81.572, 150.367 82.891, 151.847 81.472 C 152.611 80.740, 132.413 43.030, 131.250 43.016 C 130.563 43.007, 130.113 43.437, 130.250 43.971 M 111.250 53.346 L 102 57.474 102 61.237 C 102 63.307, 102.277 65, 102.616 65 C 103.152 65, 113.759 56.074, 119.472 50.815 C 121.957 48.528, 122.243 48.440, 111.250 53.346 M 54.247 74.750 C 57.549 86.162, 60.597 95.880, 61.020 96.345 C 61.443 96.810, 70.124 95.481, 80.310 93.392 L 98.831 89.593 99.239 85.047 C 99.464 82.546, 99.513 80.323, 99.348 80.107 C 99.183 79.891, 95.775 80.906, 91.774 82.362 C 87.773 83.818, 83.938 85.007, 83.250 85.005 C 81.938 85, 81.450 82.029, 82.750 81.961 C 83.162 81.940, 86.198 79.497, 89.495 76.533 L 95.491 71.143 86.695 66.923 C 71.802 59.776, 79.958 59.655, 98.750 66.743 C 99.648 67.081, 100 65.781, 100 62.126 C 100 57.651, 99.729 56.984, 97.750 56.585 C 95.319 56.095, 57.831 53.976, 51.872 53.991 L 48.245 54 54.247 74.750 M 105.883 73.383 L 110.266 75.676 106.133 77.330 C 102.043 78.967, 102 79.037, 102 84.099 C 102 88.280, 102.279 89.107, 103.530 88.627 C 105.024 88.053, 120.995 85.727, 134 84.188 L 140.500 83.419 121.999 77.209 C 111.824 73.794, 103.049 71.020, 102.499 71.045 C 101.950 71.070, 103.472 72.122, 105.883 73.383 M 93.500 76.525 C 91.300 78.420, 89.800 79.977, 90.167 79.985 C 92.263 80.032, 100.103 75.809, 99.771 74.812 C 99.046 72.637, 97.535 73.050, 93.500 76.525 M 129 87.636 C 118.825 88.871, 108.700 90.266, 106.500 90.736 L 102.500 91.590 102.500 97.545 L 102.500 103.500 109.495 103.801 C 115.221 104.048, 120.844 103.067, 140.495 98.396 C 153.698 95.257, 164.831 92.405, 165.236 92.058 C 165.642 91.711, 161.817 90.069, 156.736 88.409 L 147.500 85.390 129 87.636 M 167.571 93.325 C 167.934 94.271, 162.209 96.773, 147.549 102.075 C 136.257 106.159, 127.028 109.725, 127.040 110 C 127.051 110.275, 133.798 115.057, 142.032 120.626 L 157.003 130.751 147.661 139.326 L 138.319 147.902 126.614 133.451 C 113.920 117.780, 114.022 117.846, 105.125 119.625 L 102 120.250 102 138.125 C 102 147.956, 102.396 156, 102.881 156 C 103.365 156, 106.789 154.861, 110.489 153.468 L 117.216 150.936 121.358 154.363 C 123.636 156.249, 132.924 164.087, 141.998 171.783 L 158.497 185.775 168.124 161.637 L 177.751 137.500 175.958 116 C 174.972 104.175, 174.128 94.432, 174.083 94.348 C 173.980 94.158, 167.820 92, 167.382 92 C 167.206 92, 167.292 92.596, 167.571 93.325 M 132 103.151 C 130.075 103.685, 126.719 104.587, 124.543 105.155 C 121.433 105.968, 120.929 106.381, 122.192 107.088 C 123.280 107.696, 126.010 107.154, 130.649 105.408 C 139.830 101.954, 140.530 100.785, 132 103.151 M 38.105 107.037 C 29.638 108.643, 22.470 110.196, 22.178 110.489 C 21.622 111.045, 24.732 163.668, 25.854 172.697 L 26.500 177.893 37 168.513 L 47.500 159.132 48.661 138.816 C 49.299 127.642, 49.862 115.688, 49.911 112.250 L 50 106 64.167 106 C 71.958 106, 78.146 105.831, 77.917 105.623 C 77.688 105.416, 72.100 104.993, 65.500 104.682 C 54.943 104.185, 51.649 104.468, 38.105 107.037 M 102 111.975 L 102 115.950 110.068 112.975 C 114.506 111.339, 118.331 110, 118.568 110 C 118.806 110, 119 109.550, 119 109 C 119 108.412, 115.500 108, 110.500 108 L 102 108 102 111.975 M 116.500 113.519 C 111.901 115.342, 111.131 115.909, 113.203 115.948 C 115.442 115.991, 117.822 118.356, 127.095 129.750 C 133.249 137.313, 138.408 143.500, 138.560 143.500 C 139.251 143.500, 152 131.790, 152 131.155 C 152 130.507, 123.498 110.904, 122.797 111.070 C 122.634 111.109, 119.800 112.211, 116.500 113.519 M 90.203 123.220 C 85.640 124.870, 82.040 126.514, 82.203 126.873 C 82.366 127.232, 86.100 133.819, 90.500 141.510 L 98.500 155.493 98.788 146.196 C 98.947 141.082, 98.947 133.146, 98.788 128.559 L 98.500 120.220 90.203 123.220 M 70.500 123.390 C 65.550 124.010, 61.570 124.963, 61.656 125.509 C 61.938 127.299, 72.188 166.494, 72.446 166.765 C 72.659 166.990, 95.952 159.040, 96.789 158.457 C 97.004 158.307, 85.822 138.503, 78.311 125.731 C 78.062 125.309, 79.353 124.314, 81.179 123.521 C 84.150 122.230, 84.237 122.088, 82 122.171 C 80.625 122.222, 75.450 122.770, 70.500 123.390" stroke="none" fill="black" fill-rule="evenodd"/>
</svg>