<svg xmlns="http://www.w3.org/2000/svg" width="200" height="200" viewBox="0 0 200 200" version="1.1">
	<path d="M 97.500 15.232 C 70.550 17.430, 48.379 19.336, 48.232 19.466 C 47.957 19.709, 34.819 56.679, 33.561 60.750 C 33.076 62.317, 33.276 63, 34.218 63 C 35.073 63, 38.075 55.887, 42.383 43.650 C 46.131 33.007, 49.527 23.766, 49.930 23.113 C 50.392 22.365, 57.281 21.391, 68.582 20.477 C 101.104 17.844, 149.518 14, 150.147 14 C 150.486 14, 151.526 18.387, 152.459 23.750 C 153.391 29.113, 154.362 34.247, 154.616 35.161 C 155.008 36.571, 153.673 36.364, 145.789 33.791 C 136.902 30.890, 135.703 30.754, 118.069 30.630 L 99.637 30.500 98.800 27.289 C 97.712 23.116, 94.801 23.755, 95.646 27.980 C 96.199 30.744, 96.132 30.787, 90.353 31.358 C 87.134 31.676, 76.959 32.223, 67.743 32.575 C 53.193 33.129, 48.577 33.910, 50.207 35.540 C 50.431 35.764, 59.364 36.423, 70.057 37.003 C 98.480 38.546, 97.711 38.396, 98.192 42.517 C 98.458 44.800, 98.132 46.119, 97.214 46.471 C 96.456 46.762, 90.878 47, 84.817 47 L 73.797 47 74.432 54.250 C 74.782 58.238, 75.318 63.622, 75.623 66.216 L 76.178 70.933 83.839 67.130 C 89.059 64.539, 92.250 63.517, 93.853 63.924 C 95.852 64.431, 94.086 65.849, 82.093 73.371 C 74.332 78.238, 67.756 82.586, 67.481 83.031 C 67.206 83.476, 71.335 83.581, 76.657 83.264 C 85.245 82.751, 86.266 82.866, 85.723 84.281 C 85.386 85.157, 84.648 87.591, 84.082 89.687 C 83.157 93.118, 82.475 93.722, 77.277 95.720 L 71.500 97.939 46.134 96.521 C 32.183 95.740, 20.584 94.917, 20.359 94.692 C 20.133 94.466, 21.923 88.618, 24.336 81.695 C 27.604 72.318, 28.395 68.982, 27.438 68.615 C 26.666 68.318, 25.700 69.394, 25.018 71.311 C 20.236 84.740, 16.016 97.343, 16.236 97.534 C 16.381 97.660, 27.975 98.296, 42 98.949 C 60.981 99.832, 68.467 100.544, 71.283 101.734 C 73.364 102.614, 74.712 103.688, 74.280 104.120 C 73.847 104.553, 62.245 109.247, 48.497 114.552 C 34.748 119.857, 22.409 124.622, 21.076 125.140 C 18.762 126.040, 19.315 126.724, 33.326 140.291 L 47.999 154.500 43.516 164.933 C 41.050 170.671, 39.177 175.510, 39.352 175.686 C 39.528 175.861, 48.162 172.870, 58.538 169.038 C 68.915 165.207, 77.550 162.217, 77.728 162.395 C 77.906 162.572, 71.260 167.117, 62.960 172.493 C 52.417 179.322, 48.185 182.585, 48.919 183.319 C 49.946 184.346, 62.328 183.574, 112 179.384 C 128.060 178.030, 179.969 169.991, 184.386 168.175 C 185.783 167.600, 178.064 164.064, 154.636 154.547 C 137.236 147.479, 123.003 141.427, 123.006 141.098 C 123.009 140.769, 134.709 137.390, 149.006 133.589 C 163.303 129.788, 175 126.553, 175 126.400 C 175 126.128, 147.645 106.123, 145.308 104.687 C 144.641 104.276, 137.651 107.041, 129.407 110.977 C 121.317 114.840, 114.374 118, 113.978 118 C 113.243 118, 111.616 108.051, 112.248 107.419 C 112.439 107.228, 129.224 101.426, 149.548 94.525 C 194.224 79.356, 189.975 80.976, 187.500 80.057 C 186.400 79.648, 177.894 77.818, 168.597 75.990 C 152.787 72.882, 151.820 72.564, 153.647 71.083 C 162.044 64.278, 164.308 61.908, 163.338 60.938 C 162.614 60.214, 160.522 60.679, 156.494 62.460 C 153.303 63.871, 150.574 64.908, 150.430 64.763 C 150.285 64.618, 159.242 59.325, 170.333 53 L 190.500 41.500 181.500 40.856 C 176.550 40.502, 169.295 40.164, 165.377 40.106 L 158.254 40 156.604 30.750 C 152.908 10.034, 153.243 10.986, 149.679 11.118 C 147.931 11.183, 124.450 13.034, 97.500 15.232 M 108.750 33.743 C 104.487 33.931, 101 34.479, 101 34.962 C 101 35.446, 103.813 36.098, 107.250 36.413 C 118.652 37.457, 150.193 39.140, 150.607 38.726 C 150.831 38.503, 147.073 37.117, 142.257 35.647 C 133.234 32.894, 130.982 32.766, 108.750 33.743 M 87.500 35.057 C 93.063 36.208, 97 36.184, 97 35 C 97 34.421, 94.160 34.048, 90.250 34.115 C 83.999 34.222, 83.796 34.291, 87.500 35.057 M 103.258 42.488 L 104.410 46.242 128.269 45.512 L 152.129 44.783 144.592 56.391 C 140.446 62.776, 137.316 68, 137.636 68 C 139.182 68, 179.841 44.454, 179.218 43.920 C 178.823 43.582, 164.550 42.547, 147.500 41.621 C 130.450 40.695, 113.261 39.666, 109.303 39.335 L 102.105 38.734 103.258 42.488 M 113.815 48.744 L 105.130 49.076 106.666 54.247 C 108.151 59.248, 108.132 59.475, 106.081 61.135 C 103.519 63.210, 102.972 62.996, 118.500 66 C 124.550 67.170, 130.262 68.347, 131.194 68.614 C 132.455 68.975, 134.700 66.400, 139.967 58.550 L 147.045 48 134.772 48.206 C 128.023 48.319, 118.592 48.561, 113.815 48.744 M 83.713 49.742 L 76.925 50.093 77.597 57.797 C 77.967 62.033, 78.439 65.693, 78.646 65.928 C 78.854 66.164, 81.652 65.100, 84.865 63.564 C 89.948 61.135, 91.393 60.866, 95.984 61.498 L 101.261 62.224 100.573 57.362 C 100.195 54.688, 99.656 51.712, 99.376 50.750 C 98.838 48.907, 99.301 48.937, 83.713 49.742 M 103.070 55.191 C 103.032 56.671, 103.450 58.160, 104 58.500 C 105.194 59.238, 105.194 57.278, 104 54.500 C 103.233 52.714, 103.133 52.788, 103.070 55.191 M 88.175 72.750 L 75.979 80.500 82.921 80.792 L 89.863 81.085 88 86.501 L 86.136 91.917 90.818 90.051 C 104.704 84.517, 105.199 84.201, 104.604 81.251 C 104.299 79.738, 103.542 75.463, 102.922 71.750 C 102.302 68.037, 101.474 65, 101.083 65 C 100.691 65, 94.883 68.487, 88.175 72.750 M 105.299 68.745 C 105.626 70.381, 106.202 74.043, 106.579 76.882 C 106.955 79.722, 107.542 82.200, 107.882 82.389 C 108.900 82.957, 130.308 73.577, 130.703 72.391 C 130.928 71.717, 126.712 70.443, 119.784 69.089 C 113.578 67.877, 107.646 66.634, 106.602 66.328 C 104.958 65.846, 104.784 66.168, 105.299 68.745 M 149.064 68.461 C 144.413 70.417, 143.941 70.847, 145.799 71.436 C 147.345 71.927, 148.981 71.354, 151.485 69.444 C 154.399 67.221, 155.888 65.691, 154.750 66.087 C 154.613 66.135, 152.054 67.203, 149.064 68.461 M 123 79.474 C 111.371 84.501, 108.531 86.114, 108.656 87.621 C 108.741 88.654, 109.346 92.772, 110 96.772 L 111.188 104.043 114.537 101.272 C 116.379 99.747, 124.176 93.100, 131.865 86.500 C 144.022 76.065, 145.561 74.415, 143.672 73.850 C 139.607 72.633, 137.504 73.205, 123 79.474 M 134.105 88.040 C 125.732 95.286, 119.020 101.353, 119.191 101.521 C 119.361 101.690, 132.878 97.267, 149.229 91.692 C 165.579 86.117, 178.404 81.271, 177.729 80.924 C 177.053 80.576, 171.325 79.293, 165 78.073 C 158.675 76.853, 152.561 75.632, 151.414 75.360 C 149.825 74.983, 145.708 77.999, 134.105 88.040 M 94.788 91.280 C 86.419 94.812, 84.992 95.760, 84.471 98.133 C 83.962 100.450, 83.282 100.936, 80.183 101.194 C 76.611 101.491, 76.974 101.792, 92.289 111.204 C 107.967 120.839, 111.720 122.150, 110.650 117.614 C 110.375 116.452, 109.124 109.088, 107.869 101.250 C 106.615 93.412, 105.343 87.041, 105.044 87.090 C 104.745 87.140, 100.130 89.025, 94.788 91.280 M 52 116.053 C 39.625 120.912, 28.150 125.382, 26.500 125.986 L 23.500 127.083 37.397 140.302 L 51.294 153.521 47.650 161.930 C 45.646 166.555, 44.178 170.511, 44.388 170.721 C 44.598 170.932, 55.263 167.256, 68.087 162.554 C 83.341 156.960, 91.743 154.343, 92.385 154.985 C 93.614 156.214, 95.552 154.774, 74.203 168.487 C 64.139 174.950, 56.088 180.421, 56.311 180.645 C 56.535 180.868, 73.318 179.698, 93.609 178.045 C 121.893 175.741, 135.840 174.108, 153.391 171.046 C 165.981 168.849, 176.401 166.927, 176.546 166.776 C 176.759 166.552, 126.297 145.805, 119.622 143.372 C 117.958 142.766, 117.794 143.109, 118.177 146.390 C 118.594 149.962, 117.852 149.335, 97.046 128.546 C 85.187 116.696, 75.262 107.049, 74.992 107.109 C 74.721 107.169, 64.375 111.194, 52 116.053 M 96.989 124.369 C 106.608 134.066, 114.511 142, 114.551 142 C 114.592 142, 113.944 137.696, 113.112 132.436 C 111.737 123.737, 111.421 122.918, 109.620 123.389 C 108.294 123.736, 103.484 121.340, 95.070 116.143 C 88.156 111.872, 81.825 108.009, 81 107.558 C 80.175 107.108, 87.370 114.672, 96.989 124.369 M 129.060 114.093 C 121.117 117.918, 114.491 121.176, 114.335 121.332 C 113.881 121.786, 116.594 137.927, 117.231 138.564 C 117.547 138.881, 129.393 136.032, 143.555 132.235 L 169.305 125.330 156.674 116.165 C 149.726 111.124, 143.920 107.031, 143.771 107.069 C 143.622 107.107, 137.002 110.268, 129.060 114.093" stroke="none" fill="black" fill-rule="evenodd"/>
</svg>