<svg xmlns="http://www.w3.org/2000/svg" width="200" height="200" viewBox="0 0 200 200" version="1.1">
	<path d="M 64.223 22.959 C 45.921 29.428, 30.793 34.895, 30.604 35.110 C 30.416 35.324, 28.583 45.287, 26.530 57.249 L 22.799 78.998 29.148 88.999 C 34.886 98.038, 35.786 99, 38.499 98.998 C 41.006 98.996, 69.420 110.913, 68.678 111.656 C 68.544 111.789, 63.950 112.849, 58.468 114.011 C 52.985 115.172, 47.807 116.321, 46.960 116.562 C 45.580 116.956, 45.609 118.959, 47.239 135.831 L 49.058 154.661 41.634 172.581 C 37.552 182.436, 34.523 190.620, 34.905 190.766 C 35.286 190.913, 49.925 185.387, 67.436 178.486 C 84.946 171.586, 99.396 166.066, 99.547 166.220 C 99.697 166.374, 100.227 168.075, 100.724 170 C 101.907 174.585, 103.420 174.462, 103.810 169.750 C 103.981 167.688, 104.338 166, 104.603 166 C 104.868 166, 111.990 169.612, 120.428 174.026 L 135.771 182.052 145.905 169.374 C 151.992 161.759, 155.862 156.059, 155.596 155.098 C 155.353 154.219, 153.027 141.643, 150.428 127.151 C 146.933 107.659, 146.009 100.612, 146.879 100.075 C 147.525 99.675, 154.342 97.886, 162.027 96.099 C 171.394 93.921, 176 92.410, 176 91.515 C 176 90.123, 171.743 89.005, 143.230 82.907 C 134.831 81.110, 128.306 79.324, 128.730 78.937 C 129.153 78.550, 135.350 75.181, 142.500 71.451 C 157.660 63.542, 156.621 64.221, 155.414 63.014 C 154.811 62.411, 145.121 62.733, 128.981 63.893 C 114.966 64.900, 103.412 65.660, 103.305 65.583 C 103.197 65.506, 103.032 59.846, 102.938 53.006 L 102.766 40.569 109.633 39.330 C 113.410 38.649, 117.797 37.845, 119.383 37.544 C 121.986 37.050, 121.768 37.393, 117.133 41.084 C 112.771 44.556, 110.506 48, 112.584 48 C 112.905 48, 116.425 45.306, 120.406 42.013 C 127.143 36.440, 128.217 35.917, 135.930 34.454 C 140.487 33.589, 144.388 33.054, 144.598 33.265 C 144.809 33.476, 142.558 39.240, 139.595 46.074 C 136.152 54.016, 134.550 58.861, 135.156 59.500 C 135.771 60.150, 140.816 55.594, 149.553 46.500 C 156.951 38.800, 163.506 31.642, 164.121 30.593 C 165.207 28.740, 164.811 28.704, 150.369 29.334 L 135.500 29.982 139.353 26.655 L 143.206 23.328 166.853 28.658 C 192.588 34.459, 193.361 34.582, 192.758 32.773 C 192.525 32.075, 183.123 29.478, 170.924 26.743 C 159.141 24.101, 148.870 21.716, 148.100 21.444 C 147.022 21.062, 147.237 20.377, 149.036 18.462 L 151.371 15.976 148.436 16.480 C 134.803 18.820, 135.698 18.868, 118.273 14.874 C 109.048 12.760, 100.600 11.068, 99.500 11.114 C 98.400 11.160, 82.526 16.490, 64.223 22.959 M 73.003 22.827 C 59.530 27.583, 49.180 31.603, 50.003 31.761 C 51.658 32.079, 124.843 20.490, 125.533 19.801 C 126.095 19.238, 102.072 13.972, 99.482 14.090 C 98.392 14.140, 86.476 18.071, 73.003 22.827 M 118 24.084 C 102.118 26.706, 102 26.742, 102 29.019 C 102 30.838, 102.676 30.996, 110.250 30.949 C 125.105 30.856, 131.132 29.778, 135.276 26.471 C 137.324 24.837, 139 23.163, 139 22.750 C 139 21.511, 130.203 22.070, 118 24.084 M 84.500 29.672 L 71.500 31.878 83.700 31.689 C 95.279 31.510, 98.855 30.659, 97.862 28.321 C 97.663 27.851, 91.650 28.459, 84.500 29.672 M 147.986 34.026 C 146.378 37.031, 140.030 52, 140.364 52 C 140.522 52, 144.814 47.500, 149.901 42 L 159.151 32 154.111 32 C 150.073 32, 148.855 32.403, 147.986 34.026 M 108.750 33.742 C 102.870 34.046, 102 34.340, 102 36.021 C 102 37.585, 102.520 37.851, 104.750 37.429 C 124.563 33.678, 126.565 33.167, 121 33.280 C 117.975 33.342, 112.463 33.549, 108.750 33.742 M 37.160 35.361 C 35.323 36.027, 33.482 37.230, 33.069 38.035 C 32.656 38.841, 30.835 48.297, 29.023 59.049 L 25.729 78.598 31.342 87.299 C 36.221 94.862, 37.325 96, 39.786 96 C 43.343 96, 85.353 93.221, 93.750 92.430 L 100 91.841 100 87.993 L 100 84.145 94.750 84.618 C 81.545 85.811, 50.517 87.851, 50.214 87.547 C 50.027 87.361, 51.921 83.135, 54.422 78.156 C 58.581 69.875, 59.652 68.574, 66.987 62.888 C 71.397 59.469, 74.783 56.449, 74.510 56.177 C 74.238 55.904, 67.672 54.663, 59.919 53.419 C 52.166 52.174, 45.592 50.926, 45.311 50.644 C 43.806 49.140, 47.995 48.001, 69.925 43.951 C 93.901 39.525, 93.978 39.502, 94.967 36.664 L 95.960 33.816 86.730 34.389 C 63.205 35.848, 43 36.176, 43 35.099 C 43 33.735, 41.462 33.804, 37.160 35.361 M 98.269 36 C 97.100 38.821, 97.498 39.902, 99.110 38.290 C 99.703 37.697, 99.989 36.377, 99.746 35.356 C 99.364 33.749, 99.166 33.835, 98.269 36 M 96.794 42.250 C 95.378 43.365, 86.534 65.867, 87.236 66.570 C 87.393 66.726, 90.328 66.599, 93.760 66.288 L 100 65.722 100 53.361 C 100 46.563, 99.636 41, 99.191 41 C 98.746 41, 97.668 41.563, 96.794 42.250 M 71.500 46.507 C 62.150 48.328, 54.950 49.858, 55.500 49.909 C 58.625 50.195, 81.455 54.122, 81.759 54.425 C 81.958 54.625, 77.481 58.324, 71.811 62.646 C 62.486 69.752, 61.130 71.209, 57.632 77.885 L 53.764 85.267 57.132 84.694 C 58.984 84.378, 69.388 83.564, 80.250 82.883 L 100 81.646 100 75.175 L 100 68.703 91.447 69.307 C 81.500 70.008, 81.910 71.759, 88.123 55.114 C 90.255 49.402, 92 44.340, 92 43.864 C 92 42.622, 90.388 42.829, 71.500 46.507 M 124.750 66.804 L 103 68.323 103 74.545 C 103 79.630, 103.320 80.850, 104.750 81.224 C 105.846 81.511, 106.981 83.480, 107.786 86.490 L 109.072 91.298 119.036 90.691 C 127.130 90.198, 129 90.342, 129 91.462 C 129 92.434, 127.009 93.030, 122.250 93.481 C 115.781 94.095, 109.992 94.969, 110.007 95.329 C 110.011 95.423, 111.773 102.022, 113.922 109.994 C 118.207 125.890, 117.888 128.918, 112.610 122.440 L 109.721 118.894 106.860 121.634 L 104 124.374 104.015 143.437 L 104.030 162.500 119.464 170.500 C 129.377 175.638, 135.213 178.142, 135.780 177.500 C 136.265 176.950, 140.328 171.962, 144.808 166.416 L 152.954 156.332 147.759 127.610 C 143.916 106.356, 142.871 98.698, 143.742 98.159 C 144.390 97.759, 150.207 96.142, 156.670 94.566 C 164.677 92.613, 167.796 91.482, 166.460 91.017 C 165.382 90.642, 154.486 88.145, 142.247 85.470 C 130.008 82.795, 120.333 80.295, 120.747 79.914 C 121.161 79.534, 127.575 76.030, 135 72.127 C 142.425 68.224, 148.050 65.088, 147.500 65.159 C 146.950 65.229, 136.713 65.969, 124.750 66.804 M 103 87.800 C 103 90.961, 103.391 92, 104.579 92 C 105.835 92, 106.019 91.334, 105.474 88.750 C 104.393 83.620, 103 83.085, 103 87.800 M 103.701 95.632 C 102.845 96.488, 102.930 108.707, 103.838 115.339 L 104.500 120.178 106.923 117.591 C 109.195 115.164, 109.460 115.106, 111.173 116.656 C 113.471 118.736, 113.462 118.651, 110.105 106 C 107.491 96.149, 105.847 93.487, 103.701 95.632 M 73.750 98.326 C 62.887 99.467, 54 100.686, 54 101.035 C 54 101.384, 58.837 103.823, 64.750 106.454 C 70.662 109.085, 75.881 111.588, 76.348 112.017 C 77.144 112.748, 74.782 113.380, 55.953 117.471 L 48.406 119.110 50.120 137.137 L 51.834 155.163 45.417 170.740 C 41.888 179.308, 39 186.415, 39 186.534 C 39 186.886, 97.814 163.520, 98.397 162.936 C 98.690 162.643, 97.995 158.375, 96.853 153.452 C 95.381 147.107, 94.018 143.691, 92.175 141.723 L 89.574 138.946 91.537 135.223 C 92.617 133.175, 95.201 129.635, 97.280 127.356 L 101.060 123.212 100.780 109.856 L 100.500 96.500 97 96.376 C 95.075 96.308, 84.612 97.186, 73.750 98.326 M 98.359 130.250 C 97.265 131.488, 95.573 133.780, 94.599 135.345 C 92.888 138.096, 92.896 138.261, 94.845 140.345 C 95.953 141.530, 97.750 145.875, 98.839 150 L 100.818 157.500 100.909 142.750 C 100.959 134.637, 100.853 128, 100.674 128 C 100.495 128, 99.453 129.012, 98.359 130.250" stroke="none" fill="black" fill-rule="evenodd"/>
</svg>