<svg xmlns="http://www.w3.org/2000/svg" width="200" height="200" viewBox="0 0 200 200" version="1.1">
	<path d="M 65.705 25.071 C 66.523 27.860, 67.036 30.275, 66.846 30.439 C 66.656 30.603, 56.600 35.116, 44.500 40.470 C 32.400 45.823, 21.393 50.782, 20.039 51.490 C 17.687 52.720, 18.257 53.115, 33.039 60.501 C 41.543 64.750, 48.676 68.389, 48.891 68.588 C 49.107 68.787, 46.887 72.223, 43.958 76.225 C 41.030 80.226, 38.684 84.400, 38.746 85.500 C 38.808 86.600, 40.304 100.325, 42.069 116 L 45.279 144.500 37.134 161.411 C 32.655 170.713, 29.203 178.536, 29.463 178.797 C 30.283 179.616, 67.232 173.670, 68.226 172.558 C 68.747 171.976, 71.763 166.775, 74.928 161 C 80.652 150.557, 80.705 150.498, 84.705 150.199 L 88.727 149.898 98.455 166.449 C 103.805 175.552, 108.565 183, 109.032 183 C 110.890 183, 110.583 180.917, 106.524 166 L 102.307 150.500 112.654 150.216 C 118.344 150.060, 127.713 150.060, 133.473 150.216 L 143.945 150.500 128.437 156.903 C 119.908 160.424, 112.758 163.582, 112.549 163.921 C 112.339 164.260, 124.266 168.672, 139.053 173.724 C 153.839 178.776, 166.137 182.587, 166.381 182.193 C 167.457 180.452, 184.038 125.473, 183.784 124.490 C 183.587 123.730, 178.430 124.112, 167 125.731 C 152.257 127.820, 148.317 127.999, 130 127.419 C 118.725 127.062, 106.350 126.476, 102.500 126.118 C 95.987 125.511, 96.682 125.381, 112.500 124.241 L 129.500 123.016 134 118.194 C 136.475 115.541, 143.751 107.299, 150.169 99.879 C 162.150 86.026, 163.536 83.618, 174.657 57.332 C 174.964 56.607, 172.503 55.311, 168.168 53.915 L 161.186 51.666 155.963 37.083 C 153.090 29.062, 150.400 22.124, 149.984 21.664 C 149.569 21.205, 137.042 22.647, 122.147 24.869 L 95.065 28.908 80.064 24.454 C 71.813 22.004, 64.873 20, 64.641 20 C 64.409 20, 64.888 22.282, 65.705 25.071 M 69.464 28.750 C 70.210 31.363, 71.529 36.019, 72.394 39.098 C 73.850 44.280, 74.407 44.967, 79.884 48.348 C 83.139 50.357, 86.184 51.994, 86.651 51.986 C 87.118 51.978, 89.300 49.752, 91.500 47.039 C 93.700 44.327, 95.913 42.221, 96.418 42.360 C 97.515 42.661, 109.216 68.117, 108.560 68.773 C 108.310 69.024, 103.469 66.288, 97.802 62.695 L 87.500 56.161 83.430 60.745 L 79.359 65.330 80.876 70.779 L 82.393 76.229 87.946 75.445 C 95.138 74.429, 98.649 74.420, 103.223 75.408 C 106.624 76.143, 107.049 75.987, 108.134 73.606 C 109.473 70.666, 112.687 69.848, 111.496 72.750 C 109.919 76.593, 110.469 77.320, 116 78.700 C 124.058 80.712, 124.488 80.912, 123.304 82.096 C 122.597 82.803, 120.381 82.635, 116.243 81.563 C 112.925 80.703, 109.720 80, 109.120 80 C 108.101 80, 101.495 91.881, 102.185 92.473 C 102.870 93.062, 136.803 110, 137.297 110 C 137.587 110, 142.701 104.344, 148.662 97.430 C 158.738 85.745, 159.905 83.938, 165.258 71.738 C 168.425 64.521, 170.675 58.287, 170.258 57.886 C 169.841 57.484, 159.201 53.983, 146.612 50.107 C 134.024 46.230, 123.479 42.813, 123.179 42.512 C 122.879 42.212, 123.053 41.576, 123.567 41.099 C 124.103 40.601, 131.283 42.086, 140.444 44.589 C 149.213 46.985, 156.532 48.801, 156.709 48.624 C 157.362 47.971, 148.632 24.796, 147.585 24.402 C 146.988 24.178, 134.843 25.735, 120.596 27.864 L 94.692 31.733 82.096 27.890 C 75.168 25.776, 69.187 24.036, 68.804 24.024 C 68.421 24.011, 68.718 26.137, 69.464 28.750 M 64.545 34.914 C 63.074 37.758, 63.114 37.876, 66.243 39.857 C 68.005 40.973, 69.586 41.747, 69.756 41.577 C 70.341 40.992, 67.583 32, 66.818 32 C 66.396 32, 65.373 33.311, 64.545 34.914 M 55.500 38.561 C 53.850 39.349, 46.021 42.883, 38.102 46.416 L 23.704 52.838 38.102 60.032 C 46.021 63.989, 52.669 67.382, 52.876 67.573 C 53.083 67.763, 50.555 71.690, 47.258 76.299 L 41.263 84.680 44.723 114.660 L 48.183 144.640 40.607 160.442 C 33.098 176.102, 33.055 176.239, 35.765 175.709 C 37.269 175.415, 44.813 174.192, 52.528 172.992 L 66.556 170.810 72.926 158.905 L 79.297 147 83.138 147 L 86.978 147 82.989 140.482 C 80.795 136.898, 79 133.523, 79 132.982 C 79 132.442, 80.912 131.990, 83.250 131.978 L 87.500 131.956 85 130 C 83.090 128.506, 80.906 128.039, 75.750 128.022 C 70.640 128.005, 69 127.660, 69 126.599 C 69 125.806, 70.622 124.815, 72.742 124.314 L 76.485 123.429 71.781 119.964 C 69.194 118.059, 67.060 116.228, 67.039 115.896 C 67.018 115.563, 71.767 114.809, 77.592 114.220 C 83.418 113.631, 88.403 112.930, 88.670 112.664 C 89.083 112.251, 81.167 81.167, 80.387 80.140 C 80.237 79.943, 75.951 80.493, 70.864 81.364 C 65.776 82.234, 61.510 82.843, 61.384 82.717 C 61.258 82.591, 64.542 78.540, 68.682 73.714 L 76.209 64.941 73.965 55.858 L 71.721 46.776 65.610 42.803 C 62.250 40.618, 59.612 38.419, 59.750 37.915 C 60.084 36.694, 59.094 36.844, 55.500 38.561 M 92.687 49.805 C 91.209 51.347, 90 53.097, 90 53.693 C 90 54.289, 92.980 56.645, 96.623 58.929 C 101.446 61.953, 103.071 62.595, 102.603 61.291 C 100.971 56.742, 96.442 47.051, 95.937 47.027 C 95.627 47.012, 94.165 48.262, 92.687 49.805 M 75.573 51.433 C 75.945 52.917, 76.787 55.951, 77.444 58.175 L 78.638 62.219 81.360 58.984 C 82.858 57.204, 83.935 55.304, 83.753 54.760 C 83.572 54.216, 81.505 52.639, 79.160 51.253 L 74.895 48.735 75.573 51.433 M 71.898 74.122 L 67.609 79.245 70.804 78.622 C 72.562 78.280, 75.282 77.754, 76.849 77.454 C 79.638 76.919, 79.675 76.824, 78.642 72.954 C 78.062 70.779, 77.272 69, 76.887 69 C 76.501 69, 74.256 71.305, 71.898 74.122 M 88.177 78.152 C 84.567 78.846, 83.010 79.584, 83.340 80.445 C 83.608 81.143, 85.683 88.620, 87.951 97.061 C 90.220 105.502, 92.171 112.489, 92.288 112.586 C 92.731 112.956, 126.975 109.358, 127.441 108.892 C 127.710 108.624, 122.056 105.500, 114.878 101.952 L 101.826 95.500 99.626 98.250 C 97.696 100.661, 95 101.962, 95 100.482 C 95 100.197, 97.283 95.415, 100.073 89.855 C 103.077 83.869, 104.779 79.379, 104.246 78.846 C 102.817 77.417, 93.986 77.036, 88.177 78.152 M 114 113.280 C 102.725 114.406, 93.343 115.448, 93.150 115.596 C 92.958 115.745, 93.326 117.458, 93.968 119.405 C 95.099 122.830, 95.270 122.928, 99.318 122.468 C 101.618 122.207, 109.229 121.548, 116.231 121.003 L 128.962 120.013 132.454 116.256 C 135.846 112.608, 136.787 110.878, 135.250 111.117 C 134.838 111.181, 125.275 112.154, 114 113.280 M 78.750 116.735 C 76.138 116.941, 74.010 117.422, 74.021 117.805 C 74.033 118.187, 75.773 119.723, 77.888 121.219 C 81.267 123.608, 82.353 123.864, 86.851 123.331 C 91.761 122.750, 91.944 122.619, 91.346 120.113 C 90.261 115.561, 91.028 115.767, 78.750 116.735 M 161.500 129.156 C 149.561 130.954, 146.541 131.027, 124.500 130.046 C 95.001 128.733, 97 128.700, 97 130.500 C 97 131.798, 100.827 132, 125.441 132 C 152.249 132, 156.895 132.439, 154.581 134.753 C 154.240 135.093, 141.954 136.879, 127.278 138.722 C 112.603 140.564, 100.479 142.187, 100.337 142.329 C 100.195 142.471, 100.339 143.580, 100.656 144.794 C 101.232 146.996, 101.281 147, 126.690 147 C 158.224 147, 158.497 147.296, 135.757 156.821 C 127.099 160.447, 120.349 163.741, 120.757 164.139 C 121.752 165.110, 163.983 179.354, 164.447 178.875 C 164.647 178.669, 168.395 166.912, 172.775 152.750 L 180.738 127 177.619 127.099 C 175.903 127.154, 168.650 128.079, 161.500 129.156 M 89.405 129.830 C 91.604 132.335, 94 132.684, 94 130.500 C 94 129.675, 93.362 129, 92.582 129 C 91.802 129, 90.339 128.699, 89.332 128.330 C 87.601 127.698, 87.605 127.781, 89.405 129.830 M 84.196 137.250 C 84.980 138.488, 86.643 141.188, 87.892 143.250 C 89.913 146.587, 90.607 147, 94.193 147 L 98.223 147 97.561 143.250 C 96.650 138.079, 92.770 135.011, 87.135 135.005 C 82.852 135, 82.797 135.042, 84.196 137.250 M 99.057 137.107 C 100.306 139.440, 102.118 139.396, 121.500 136.567 L 130.500 135.253 114.215 135.126 C 97.947 135, 97.931 135.002, 99.057 137.107 M 93.183 152.180 C 94.010 153.456, 96.835 158.235, 99.460 162.800 C 102.085 167.365, 104.389 170.944, 104.580 170.753 C 104.771 170.562, 103.695 165.927, 102.189 160.453 L 99.451 150.500 95.564 150.180 C 91.713 149.863, 91.692 149.881, 93.183 152.180" stroke="none" fill="black" fill-rule="evenodd"/>
</svg>