<svg xmlns="http://www.w3.org/2000/svg" width="200" height="200" viewBox="0 0 200 200" version="1.1">
	<path d="M 76.045 15.347 L 30.590 21.500 28.186 27.807 C 26.863 31.276, 26.032 34.365, 26.339 34.672 C 26.645 34.978, 36.932 33.798, 49.198 32.048 C 65.702 29.695, 72.150 29.128, 74 29.870 C 76.087 30.707, 75.473 30.884, 70.288 30.937 L 64.075 31 63.788 40.250 L 63.500 49.500 38.500 51.874 C 24.750 53.180, 13.339 54.392, 13.141 54.566 C 12.703 54.954, 24.878 87.223, 25.825 88.186 C 26.334 88.703, 46.545 65.055, 54.500 54.636 C 55.050 53.916, 57.413 53.023, 59.750 52.651 L 64 51.976 64 55.500 L 64 59.024 60.176 58.412 L 56.353 57.801 40.569 91.150 L 24.786 124.500 27.293 153.817 C 28.672 169.941, 30.077 183.411, 30.417 183.750 C 30.756 184.089, 31.445 183.947, 31.949 183.433 C 33.889 181.454, 47.193 126.931, 53.588 94.750 C 58.507 69.994, 60.661 61, 61.672 61 C 64.180 61, 65 65.963, 65 81.139 C 65 94.007, 64.430 99.550, 61 120 C 58.800 133.119, 57 144.549, 57 145.401 C 57 146.548, 60.436 145.253, 70.250 140.409 C 79.398 135.893, 83.586 134.280, 83.778 135.198 C 83.931 135.929, 82.018 146.529, 79.528 158.754 C 74.614 182.876, 74.415 184.362, 76.182 183.773 C 76.832 183.556, 79.764 174.856, 82.698 164.439 C 85.632 154.023, 88.182 145.050, 88.366 144.500 C 88.550 143.950, 92.888 151.825, 98.006 162 C 105.917 177.726, 107.414 180.125, 107.992 178 C 108.366 176.625, 111.071 162.900, 114.003 147.500 C 116.935 132.100, 119.442 119.354, 119.575 119.175 C 119.899 118.739, 148.259 131.899, 149.395 133.013 C 150.514 134.110, 143.086 150.891, 141 151.977 C 140.175 152.407, 135.113 153.750, 129.750 154.961 C 123.390 156.398, 120 157.628, 120 158.498 C 120 159.418, 129.181 162.068, 149.553 167.030 C 165.807 170.988, 179.282 174.051, 179.497 173.837 C 179.764 173.570, 173.400 108.311, 173.023 107.448 C 173.010 107.419, 166.137 107.583, 157.750 107.813 C 149.363 108.042, 142.725 107.993, 143 107.702 C 143.275 107.412, 153.400 103.476, 165.500 98.956 C 177.600 94.436, 187.604 90.655, 187.732 90.554 C 188.157 90.216, 164.831 30.514, 163.889 29.530 C 162.600 28.183, 136.643 21.077, 135.881 21.862 C 135.540 22.213, 134.469 26.775, 133.500 32 C 132.531 37.225, 131.400 41.875, 130.985 42.334 C 130.571 42.792, 123.318 41.217, 114.866 38.834 L 99.500 34.500 110.500 34 L 121.500 33.500 122.657 26.500 C 125.244 10.840, 125.315 8.991, 123.322 9.097 C 122.320 9.150, 101.045 11.963, 76.045 15.347 M 76.500 18.074 C 52.850 21.292, 33.253 23.941, 32.951 23.962 C 32.257 24.010, 29.688 31.022, 30.183 31.516 C 30.385 31.718, 39.610 30.573, 50.683 28.973 L 70.817 26.062 79.158 28.510 C 86.425 30.643, 89.521 30.961, 103.183 30.979 C 120.801 31.003, 119.305 31.737, 120.454 22.500 C 120.796 19.750, 121.319 16.262, 121.617 14.750 C 121.995 12.830, 121.758 12.034, 120.829 12.113 C 120.098 12.174, 100.150 14.857, 76.500 18.074 M 137.529 26.250 C 137.033 27.766, 134 42.936, 134 43.898 C 134 44.274, 138.050 45.670, 143 47 C 155.499 50.359, 155.235 52.195, 142.310 51.798 L 132.620 51.500 130.970 59.669 L 129.319 67.837 132.660 68.464 C 135.278 68.955, 136 69.580, 136 71.352 C 136 72.596, 139.846 79.214, 144.546 86.057 L 153.091 98.500 150.296 99.132 C 148.758 99.479, 143 99.823, 137.500 99.895 C 123.569 100.079, 123.305 100.190, 122.056 106.354 C 119.957 116.715, 118.671 115.220, 137 123.718 C 146.075 127.926, 153.678 131.502, 153.897 131.664 C 154.115 131.827, 151.923 137.086, 149.025 143.352 L 143.757 154.745 135.129 156.663 L 126.500 158.581 142.500 162.460 C 151.300 164.593, 162.659 167.333, 167.743 168.550 L 176.986 170.762 176.480 167.131 C 175.702 161.538, 171 114.364, 171 112.149 C 171 110.247, 170.390 110.205, 150.865 110.748 C 134.362 111.208, 130.810 111.069, 131.174 109.978 C 131.418 109.245, 143.161 104.319, 157.270 99.029 C 171.378 93.739, 183.203 89.130, 183.548 88.786 C 184.139 88.194, 163.454 33.383, 162.009 31.715 C 161.397 31.008, 140.610 25.020, 138.719 25.006 C 138.289 25.003, 137.753 25.563, 137.529 26.250 M 66.570 41.250 C 66.950 45.237, 67.374 48.635, 67.513 48.799 C 67.651 48.963, 74.401 48.401, 82.512 47.549 C 90.622 46.697, 98.609 46, 100.260 46 C 103.174 46, 103.243 46.110, 102.632 49.750 C 102.285 51.813, 101.707 55.923, 101.347 58.884 C 100.329 67.264, 102.892 64.979, 105.587 55.105 C 106.831 50.547, 108.076 46.591, 108.354 46.313 C 108.632 46.035, 113.650 46.202, 119.506 46.685 C 125.362 47.167, 130.331 47.273, 130.549 46.921 C 130.767 46.568, 121.298 43.517, 109.507 40.140 C 89.037 34.277, 87.568 34, 76.974 34 L 65.879 34 66.570 41.250 M 80 50.563 C 73.675 51.281, 68.135 51.898, 67.690 51.934 C 67.244 51.970, 67.019 53.688, 67.190 55.750 L 67.500 59.500 79.500 61.166 C 98.085 63.746, 97.704 63.794, 98.466 58.750 C 98.818 56.413, 99.344 53.263, 99.633 51.750 C 100.144 49.078, 100.036 49.004, 95.829 49.129 C 93.448 49.200, 86.325 49.845, 80 50.563 M 109.020 53.136 C 108.405 55.536, 107.474 58.805, 106.951 60.399 C 106.428 61.994, 106 63.613, 106 63.998 C 106 64.679, 120.402 67.004, 124.608 67.001 C 126.445 67, 126.925 65.953, 128.354 58.830 C 129.255 54.336, 129.882 50.557, 129.746 50.432 C 129.611 50.307, 125.144 49.883, 119.819 49.489 L 110.138 48.773 109.020 53.136 M 34.753 54.946 C 25.542 55.889, 17.768 56.898, 17.477 57.189 C 16.787 57.880, 26.077 83, 27.023 83 C 27.421 83, 32.641 77.063, 38.623 69.806 C 49.201 56.974, 52.437 52.878, 51.807 53.116 C 51.638 53.179, 43.964 54.003, 34.753 54.946 M 67.572 78.673 C 68.103 94.979, 67.997 96.212, 64.166 118.500 C 61.991 131.150, 60.328 141.626, 60.469 141.780 C 60.611 141.934, 67.375 138.784, 75.499 134.780 L 90.272 127.500 94.230 113.343 L 98.189 99.186 109.499 98.479 L 120.809 97.772 123.424 84.239 C 124.862 76.796, 125.918 70.603, 125.770 70.477 C 125.621 70.351, 120.931 69.603, 115.347 68.815 L 105.194 67.381 98.964 90.940 C 95.537 103.898, 92.516 115.287, 92.250 116.250 C 91.984 117.213, 91.108 118, 90.304 118 C 89.239 118, 88.993 117.252, 89.401 115.250 C 90.791 108.432, 97.142 66.809, 96.839 66.510 C 96.653 66.326, 91.100 65.451, 84.500 64.565 C 77.900 63.679, 71.268 62.705, 69.763 62.400 L 67.025 61.847 67.572 78.673 M 42.075 94.268 L 27.781 124.500 29.531 147 C 30.494 159.375, 31.559 170.270, 31.898 171.210 C 32.894 173.973, 43.472 131.325, 50.428 96.500 C 53.943 78.900, 56.718 64.395, 56.594 64.268 C 56.470 64.140, 49.936 77.640, 42.075 94.268 M 99.999 67.250 C 99.998 67.388, 99.323 71.325, 98.500 76 C 96.464 87.556, 96.716 88.046, 99.528 78 C 102.224 68.365, 102.407 67, 101 67 C 100.450 67, 99.999 67.112, 99.999 67.250 M 128.563 72.250 C 127.925 74.380, 123.998 95.430, 123.999 96.713 C 124 97.630, 126.876 97.779, 135.750 97.325 C 142.213 96.994, 147.653 96.595, 147.839 96.439 C 148.026 96.282, 144.764 91.136, 140.589 85.001 C 136.415 78.867, 133 73.207, 133 72.424 C 133 70.672, 129.082 70.518, 128.563 72.250 M 102.848 101.707 C 100.392 102.084, 99.968 102.938, 97.097 113.307 C 95.393 119.463, 93.998 124.800, 93.999 125.166 C 94 125.533, 99.357 123.306, 105.904 120.218 C 117.382 114.805, 117.828 114.477, 118.377 111.052 C 118.691 109.098, 119.240 106.037, 119.598 104.250 L 120.250 101 112.875 101.150 C 108.819 101.232, 104.307 101.483, 102.848 101.707 M 104.400 124.016 L 92.300 129.752 91.111 134.474 L 89.922 139.195 98.117 155.848 C 102.624 165.006, 106.470 171.825, 106.665 171 C 107.468 167.594, 116.786 118.491, 116.649 118.390 C 116.567 118.329, 111.055 120.861, 104.400 124.016 M 87 133 C 87 133.550, 87.450 134, 88 134 C 88.550 134, 89 133.550, 89 133 C 89 132.450, 88.550 132, 88 132 C 87.450 132, 87 132.450, 87 133" stroke="none" fill="black" fill-rule="evenodd"/>
</svg>