<svg xmlns="http://www.w3.org/2000/svg" width="200" height="200" viewBox="0 0 200 200" version="1.1">
	<path d="M 152 17.991 L 134.500 26.767 138.314 29.020 C 140.411 30.259, 141.761 31.617, 141.314 32.037 C 140.866 32.458, 135.216 36.446, 128.757 40.901 C 117.175 48.889, 116.929 49, 110.844 49 C 105.178 49, 103.673 48.470, 92.389 42.500 C 85.632 38.925, 79.442 36, 78.634 36 C 77.827 36, 75.070 36.898, 72.510 37.996 C 68.468 39.728, 67.235 39.842, 63.177 38.860 C 57.111 37.392, 56.693 36.927, 57.802 32.886 L 58.732 29.500 59.474 32.250 C 59.883 33.763, 60.493 35, 60.830 35 C 61.167 35, 69.007 29.974, 78.253 23.832 C 89.519 16.347, 94.732 12.332, 94.058 11.658 C 93.385 10.985, 88.839 13.456, 80.277 19.152 C 73.249 23.826, 66.295 28.435, 64.822 29.393 L 62.145 31.135 60.387 25.559 C 58.367 19.149, 57.669 19.653, 55.951 28.762 C 55.286 32.282, 54.134 35.395, 53.390 35.681 C 52.495 36.024, 52.319 36.759, 52.872 37.850 C 53.331 38.757, 53.323 40.911, 52.854 42.636 C 51.915 46.091, 51.004 46.635, 36.355 52.478 C 31.326 54.484, 26.507 56.660, 25.647 57.313 C 24.252 58.372, 24.150 63.645, 24.700 106.210 L 25.316 153.920 29.836 155.460 C 36.044 157.575, 37.167 157.450, 44.279 153.854 C 59.680 146.067, 79.137 137.136, 78.248 138.262 C 76.211 140.840, 38.374 192.585, 37.552 193.915 C 37.051 194.726, 37.069 195.078, 37.595 194.757 C 38.093 194.453, 53.230 187.662, 71.234 179.666 L 103.967 165.128 142.722 174.064 C 164.037 178.979, 182.067 183, 182.790 183 C 183.512 183, 179.917 179.066, 174.801 174.259 C 169.686 169.451, 162.360 162.509, 158.523 158.831 L 151.546 152.144 155.468 140.100 C 157.624 133.475, 159.189 127.857, 158.944 127.614 C 158.700 127.372, 147.333 129.119, 133.685 131.496 L 108.870 135.818 99.685 133.594 L 90.500 131.370 96.500 128.355 C 102.461 125.359, 102.743 125.322, 140 122.599 C 160.625 121.092, 178.951 119.553, 180.723 119.180 C 183.862 118.518, 183.384 118.107, 162.473 103.526 C 150.663 95.291, 141 88.477, 141 88.385 C 141 88.293, 150.705 82.272, 162.567 75.005 C 177.390 65.924, 183.969 61.361, 183.605 60.412 C 183.313 59.653, 180.068 49.687, 176.392 38.266 C 172.717 26.845, 169.383 17.130, 168.984 16.679 C 168.584 16.227, 162.049 24.327, 154.462 34.679 C 140.001 54.409, 137 58.137, 137 56.377 C 137 55.790, 137.900 54.495, 139 53.500 C 140.100 52.505, 141 51.310, 141 50.845 C 141 50.380, 136.725 50, 131.500 50 C 126.275 50, 122.015 49.663, 122.034 49.250 C 122.052 48.837, 127.677 44.704, 134.534 40.065 C 141.390 35.426, 147 31.500, 147 31.341 C 147 31.182, 145.650 30.353, 144 29.500 C 142.350 28.647, 141 27.611, 141 27.198 C 141 26.785, 147.750 23.096, 156 19 C 164.250 14.904, 171 11.230, 171 10.836 C 171 8.826, 168.100 9.918, 152 17.991 M 154.623 38.864 C 147.540 48.564, 141.690 56.922, 141.623 57.437 C 141.555 57.953, 146.368 59.596, 152.318 61.088 C 158.268 62.581, 163.306 63.972, 163.513 64.180 C 165.141 65.808, 160.430 66.959, 147.319 68.136 L 132.139 69.500 117.063 90 C 102.916 109.237, 102.119 110.559, 104.116 111.458 C 105.591 112.121, 113.131 111.544, 128.661 109.579 C 140.989 108.019, 151.367 107.033, 151.721 107.388 C 153.243 108.909, 149.056 110.039, 123.500 115.002 C 108.650 117.886, 95.600 120.812, 94.500 121.504 C 93.400 122.197, 91.671 124.194, 90.657 125.943 L 88.815 129.122 95.031 125.985 C 101.232 122.854, 101.332 122.840, 138.304 119.909 C 158.686 118.294, 175.510 116.823, 175.691 116.642 C 175.873 116.461, 168.704 111.201, 159.761 104.953 C 150.817 98.705, 141.803 92.377, 139.729 90.890 L 135.958 88.187 158.308 74.430 L 180.658 60.673 174.406 41.247 C 170.968 30.563, 168.007 21.688, 167.827 21.525 C 167.647 21.362, 161.705 29.165, 154.623 38.864 M 74.500 39.963 C 72.092 40.953, 72.645 41.215, 82 43.510 C 85.575 44.388, 89.400 45.331, 90.500 45.608 C 91.600 45.884, 89.596 44.510, 86.046 42.555 C 79.392 38.889, 77.917 38.558, 74.500 39.963 M 59.510 42.016 C 59.856 42.575, 60.557 42.774, 61.069 42.457 C 62.456 41.600, 62.198 41, 60.441 41 C 59.584 41, 59.165 41.457, 59.510 42.016 M 55 44.059 C 55 44.641, 55.450 44.840, 56 44.500 C 56.550 44.160, 57 43.684, 57 43.441 C 57 43.198, 56.550 43, 56 43 C 55.450 43, 55 43.477, 55 44.059 M 64 44.463 C 60.580 46.368, 62.135 46.749, 75.500 47.282 L 86.500 47.721 77.500 45.385 C 66.960 42.650, 67.224 42.668, 64 44.463 M 54 49.395 C 54 51.119, 58.425 63.739, 59.338 64.621 C 60.511 65.751, 77.096 72.278, 77.513 71.772 C 77.637 71.623, 73.974 66.438, 69.374 60.250 C 61.491 49.647, 60.809 49, 57.505 49 C 55.577 49, 54 49.178, 54 49.395 M 38.093 54.714 L 26.686 59.333 27.387 105.385 C 27.908 139.589, 28.398 151.634, 29.294 152.203 C 29.957 152.625, 31.991 153.258, 33.813 153.608 C 36.653 154.155, 40.322 152.694, 59.490 143.383 C 71.790 137.408, 81.675 132.341, 81.456 132.123 C 81.238 131.905, 76.884 130.725, 71.780 129.500 C 57.660 126.114, 58.501 124.834, 77.137 121.350 C 88.366 119.251, 92.859 117.989, 94.191 116.561 C 95.186 115.495, 96 114.332, 96 113.976 C 96 113.620, 87.563 112.542, 77.250 111.581 C 56.357 109.634, 55 109.393, 55 107.621 C 55 106.787, 58.541 105.948, 65.750 105.075 L 76.500 103.773 90.296 95.266 C 97.883 90.586, 103.899 86.565, 103.663 86.330 C 103.428 86.094, 94.593 86.407, 84.029 87.024 C 73.466 87.641, 64.292 87.942, 63.641 87.693 C 62.991 87.443, 61.120 82.684, 59.484 77.116 C 56.611 67.338, 56.390 66.955, 53.005 65.876 C 51.077 65.261, 49.192 64.475, 48.815 64.129 C 48.439 63.783, 48.769 60.800, 49.550 57.500 C 51.202 50.514, 51.252 49.984, 50.250 50.047 C 49.837 50.073, 44.367 52.173, 38.093 54.714 M 66 50.403 C 66 50.772, 70.275 56.890, 75.500 64 C 80.725 71.110, 85 77.119, 85 77.355 C 85 77.591, 79.590 75.743, 72.977 73.248 C 66.365 70.754, 60.762 68.905, 60.527 69.140 C 60.292 69.375, 61.127 72.927, 62.383 77.033 L 64.667 84.500 72.084 84.500 C 76.163 84.500, 86.588 84.133, 95.250 83.685 C 108.498 83, 111 83.094, 111 84.276 C 111 85.049, 103.566 90.303, 94.481 95.952 C 80.945 104.368, 77.016 106.347, 72.731 106.907 C 67.755 107.558, 68.061 107.651, 79 108.815 C 85.325 109.487, 92.300 110.247, 94.500 110.503 L 98.500 110.967 113.268 90.734 C 127.154 71.709, 127.886 70.481, 125.518 70.184 C 124.133 70.010, 123 69.622, 123 69.322 C 123 69.023, 124.841 66.579, 127.090 63.892 C 129.920 60.513, 130.767 58.867, 129.840 58.553 C 126.619 57.462, 119.107 55.711, 114.500 54.977 C 111.750 54.540, 107.700 53.509, 105.500 52.687 C 101.349 51.137, 66 49.093, 66 50.403 M 125.332 54.144 C 132.576 56.105, 133.287 56.142, 134.796 54.632 C 136.306 53.123, 136.198 53, 133.361 53 C 131.674 53, 127.415 52.780, 123.897 52.511 L 117.500 52.023 125.332 54.144 M 52 59.800 C 52 62.039, 52.471 63, 53.567 63 C 54.728 63, 54.958 62.415, 54.455 60.750 C 53.286 56.881, 52 56.383, 52 59.800 M 130.652 63.572 C 128.765 65.843, 128.279 67, 129.213 67 C 130.464 67, 135 61.936, 135 60.540 C 135 59.212, 133.277 60.413, 130.652 63.572 M 136.592 63.500 C 134.980 65.960, 134.999 66, 137.727 65.993 C 139.252 65.989, 143.650 65.684, 147.500 65.316 L 154.500 64.646 147.500 62.846 C 138.535 60.540, 138.531 60.540, 136.592 63.500 M 98.459 115.067 C 98.096 115.653, 98.010 116.343, 98.266 116.600 C 99.105 117.439, 106.978 115.774, 106.423 114.875 C 105.655 113.633, 99.250 113.787, 98.459 115.067 M 78 123.990 C 73.325 124.950, 70.175 126, 71 126.323 C 73.076 127.136, 84.387 129.966, 84.536 129.709 C 84.602 129.594, 85.912 127.813, 87.447 125.750 C 90.738 121.327, 90.864 121.350, 78 123.990 M 129.500 134.912 L 108.500 138.625 97.629 135.890 C 91.650 134.386, 86.250 133.372, 85.629 133.635 C 84.558 134.090, 44.672 188, 45.407 188 C 45.598 188, 57.848 182.611, 72.628 176.025 C 87.407 169.438, 98.848 164.038, 98.050 164.025 C 95.059 163.974, 98.692 162.180, 106.266 159.968 C 116.105 157.094, 117.809 158.112, 110.506 162.502 C 109.252 163.256, 116.367 165.220, 139.169 170.414 C 155.851 174.214, 170.625 177.503, 172 177.721 C 173.888 178.022, 171.328 175.073, 161.539 165.671 L 148.577 153.222 151.414 143.861 C 152.974 138.712, 154.472 133.713, 154.742 132.750 C 155.400 130.405, 154.617 130.472, 129.500 134.912" stroke="none" fill="black" fill-rule="evenodd"/>
</svg>