<svg xmlns="http://www.w3.org/2000/svg" width="200" height="200" viewBox="0 0 200 200" version="1.1">
	<path d="M 75.332 16.208 C 76.099 18.019, 77.939 22.361, 79.422 25.858 C 80.904 29.355, 81.947 32.387, 81.739 32.594 C 81.532 32.802, 75.153 30.896, 67.565 28.359 L 53.767 23.747 45.162 32.352 C 38.892 38.622, 36.856 41.256, 37.660 42.060 C 38.266 42.666, 47.478 48.526, 58.131 55.081 L 77.500 67 87.089 67 C 96.197 67, 96.733 67.119, 97.754 69.360 C 98.822 71.702, 98.771 71.726, 91.264 72.360 C 87.103 72.712, 78.704 73.001, 72.599 73.003 C 66.495 73.005, 53.737 73.301, 44.250 73.660 C 19.460 74.601, 21.133 76.069, 50.250 78.928 C 63.038 80.183, 73.688 81.388, 73.917 81.605 C 74.146 81.822, 72.571 82.040, 70.417 82.088 C 68.263 82.137, 59.988 82.699, 52.028 83.338 L 37.556 84.500 37.871 118 C 38.044 136.425, 38.277 151.596, 38.389 151.713 C 38.500 151.830, 50.496 149.930, 65.046 147.492 C 92.066 142.963, 99.421 142.594, 98.797 145.797 C 98.584 146.893, 91.730 149.094, 74.500 153.598 C 61.300 157.049, 47.750 160.609, 44.389 161.509 L 38.277 163.147 36.989 173.590 C 36.280 179.334, 35.886 184.220, 36.113 184.447 C 36.547 184.881, 97.577 166.758, 98.370 165.961 C 98.621 165.707, 99.323 161.931, 99.929 157.568 C 100.535 153.206, 101.146 149.520, 101.288 149.378 C 101.667 148.999, 132.930 153.584, 133.341 154.079 C 133.533 154.311, 137.922 164.562, 143.095 176.860 C 148.268 189.159, 152.854 199.284, 153.286 199.360 C 153.880 199.466, 171 158.136, 171 156.595 C 171 156.424, 166.919 155.726, 161.930 155.045 C 155.921 154.223, 153.002 153.416, 153.281 152.653 C 165.006 120.459, 173.032 96.651, 172.363 96.046 C 171.889 95.616, 161.072 92.620, 148.327 89.388 C 135.583 86.156, 125.331 83.336, 125.546 83.121 C 125.761 82.906, 131.350 81.694, 137.966 80.427 C 149.198 78.277, 151.189 77.514, 168.013 68.911 C 177.923 63.844, 185.859 59.525, 185.649 59.315 C 184.917 58.583, 152.460 53.139, 148.191 53.033 C 145.544 52.967, 148.281 51.046, 161.069 44 C 172.738 37.570, 173.952 36.655, 172.324 35.517 C 171.321 34.816, 165.321 31.116, 158.992 27.294 L 147.483 20.347 130.492 26.614 C 121.146 30.061, 112.649 32.908, 111.609 32.941 C 110.568 32.973, 103.143 29.239, 95.109 24.642 C 87.074 20.045, 79.024 15.526, 77.219 14.600 L 73.938 12.917 75.332 16.208 M 81.568 23.750 C 82.444 25.813, 83.805 29.075, 84.592 31 C 85.964 34.359, 86.605 34.701, 100.483 39.484 C 109.581 42.619, 115.050 45.019, 115.230 45.955 C 115.439 47.042, 119.025 48.029, 128.508 49.612 L 141.500 51.781 155 44.275 C 162.425 40.146, 168.591 36.691, 168.703 36.598 C 169.212 36.171, 148.019 24, 146.767 24 C 145.990 24, 137.995 26.700, 129 30 C 120.005 33.300, 111.976 36, 111.158 36 C 110.340 36, 103.266 32.400, 95.440 28 C 87.613 23.600, 80.931 20, 80.591 20 C 80.251 20, 80.691 21.688, 81.568 23.750 M 47.543 33.956 C 43.730 37.799, 40.810 41.109, 41.055 41.312 C 41.300 41.515, 49.671 46.703, 59.657 52.841 L 77.814 64 86.407 64 C 91.133 64, 95 63.765, 95 63.477 C 95 61.747, 88.402 47.284, 87.141 46.250 C 86.303 45.563, 84.579 45, 83.309 45 C 81.923 45, 81 44.400, 81 43.500 C 81 42.567, 81.944 42, 83.500 42 C 84.875 42, 86 41.600, 86 41.111 C 86 38.408, 81.338 35.820, 69.500 31.953 C 62.350 29.617, 56.045 27.540, 55.489 27.338 C 54.932 27.135, 51.357 30.113, 47.543 33.956 M 88 38.899 C 88 39.295, 88.576 40.406, 89.280 41.369 C 90.284 42.741, 91.729 43.053, 95.967 42.810 L 101.372 42.500 94.686 40.341 C 91.009 39.153, 88 38.504, 88 38.899 M 93.189 51.359 C 94.329 54.186, 95.947 58.188, 96.783 60.250 L 98.303 64 111.152 64 C 121.906 64, 124 64.244, 124 65.500 C 124 66.750, 122 67, 112 67 C 105.400 67, 100 67.255, 100 67.566 C 100 67.877, 100.498 69.062, 101.107 70.200 C 102.179 72.203, 102.697 72.246, 117.342 71.549 L 132.469 70.829 143.189 64.165 C 149.085 60.499, 153.929 57.198, 153.954 56.830 C 153.979 56.461, 151.141 55.853, 147.647 55.479 C 141.520 54.823, 141.042 54.941, 134.221 58.807 C 130.331 61.011, 126.890 62.556, 126.574 62.241 C 125.274 60.941, 126.255 59.904, 131.122 57.438 C 133.938 56.011, 135.851 54.495, 135.372 54.069 C 134.892 53.644, 125.500 51.862, 114.500 50.111 C 103.500 48.359, 93.738 46.767, 92.807 46.572 C 91.283 46.252, 91.320 46.727, 93.189 51.359 M 147.306 64.951 C 140.813 69.151, 132.886 74.079, 129.691 75.901 C 126.496 77.724, 124.077 79.410, 124.316 79.650 C 124.556 79.889, 130.095 79.103, 136.626 77.902 C 147.416 75.919, 149.868 75.026, 163.486 68.121 C 171.728 63.941, 177.803 60.415, 176.986 60.284 C 176.169 60.154, 171.813 59.432, 167.306 58.680 L 159.113 57.314 147.306 64.951 M 107.868 74.907 L 103.237 75.500 105.594 80.824 C 107.247 84.555, 108.333 85.915, 109.226 85.369 C 109.927 84.940, 114.301 82.207, 118.947 79.295 L 127.394 74 119.947 74.157 C 115.851 74.244, 110.416 74.581, 107.868 74.907 M 68 75.958 L 53.500 76.500 71.500 78.273 C 81.400 79.249, 90.063 80.036, 90.750 80.023 C 91.438 80.011, 92 80.647, 92 81.439 C 92 83.214, 89.792 83.516, 62.033 85.538 C 50.225 86.398, 40.414 87.252, 40.230 87.437 C 40.046 87.621, 40.214 101.556, 40.603 118.404 C 41.236 145.771, 41.481 148.984, 42.906 148.552 C 43.783 148.286, 55.148 146.291, 68.162 144.119 C 85.206 141.275, 92.818 140.395, 95.380 140.973 C 99.464 141.894, 99.487 141.857, 100.569 132.642 L 101.257 126.785 98.379 127.335 C 96.795 127.638, 90.100 128.162, 83.500 128.501 L 71.500 129.116 77.625 125.011 C 82.478 121.758, 86.836 120.056, 98.625 116.812 C 106.806 114.561, 113.923 112.336, 114.440 111.869 C 115.018 111.347, 114.758 109.716, 113.766 107.636 C 112.191 104.332, 111.898 104.204, 101.444 102.263 L 90.735 100.275 79.882 107.163 C 67.469 115.042, 65.993 115.755, 66.018 113.857 C 66.028 113.111, 70.267 109.013, 75.437 104.750 C 82.646 98.806, 85.553 97, 87.908 97 C 91.003 97, 105 88.918, 105 87.131 C 105 86.646, 103.881 83.718, 102.513 80.624 L 100.025 75 91.263 75.208 C 86.443 75.322, 75.975 75.660, 68 75.958 M 112.540 86.666 L 109.003 89.070 110.599 92.785 C 111.476 94.828, 112.634 97.707, 113.172 99.183 C 114.200 102.005, 114.369 102.065, 129.774 105.053 C 139.861 107.009, 139.332 108.723, 127.768 111.557 C 124.036 112.471, 120.758 113.583, 120.484 114.026 C 120.210 114.469, 120.393 115.903, 120.891 117.212 C 121.632 119.162, 122.988 119.830, 128.398 120.905 C 132.742 121.768, 135 122.693, 135 123.609 C 135 124.547, 133.779 125.005, 131.250 125.015 C 124.449 125.043, 124.372 125.600, 129.498 137.681 L 134.152 148.647 142.326 150.217 C 146.822 151.080, 150.561 151.722, 150.636 151.643 C 150.930 151.333, 168.926 100.414, 169.204 99.104 C 169.425 98.062, 162.744 96.008, 142.789 90.986 L 116.078 84.262 112.540 86.666 M 100.100 94.407 C 95.755 97.112, 95.071 97.876, 96.600 98.316 C 100.348 99.394, 110.166 101.168, 110.504 100.829 C 111.016 100.318, 106.851 90.996, 106.123 91.023 C 105.780 91.035, 103.070 92.558, 100.100 94.407 M 116 105.459 C 116 106.050, 117.862 110.004, 118.514 110.795 C 119.005 111.392, 128 108.737, 128 107.995 C 128 107.573, 125.917 106.915, 123.372 106.533 C 120.827 106.151, 118.127 105.602, 117.372 105.313 C 116.617 105.023, 116 105.089, 116 105.459 M 111.500 115.944 C 109.308 116.866, 109.916 117.264, 115.331 118.456 C 117.684 118.973, 118.104 118.776, 117.821 117.289 C 117.439 115.288, 114.531 114.670, 111.500 115.944 M 91.656 121.497 C 80.365 124.794, 80.079 125.883, 90.655 125.317 C 101.686 124.726, 102 124.622, 102 121.531 C 102 118.536, 101.799 118.536, 91.656 121.497 M 105 121.433 C 105 123.876, 105.254 123.995, 110.250 123.900 C 113.138 123.845, 116.625 123.469, 118 123.064 C 120.118 122.440, 119.584 122.139, 114.500 121.095 C 111.200 120.417, 107.713 119.638, 106.750 119.364 C 105.408 118.982, 105 119.464, 105 121.433 M 108.863 126.730 L 104.227 127.100 103.163 134.267 C 102.578 138.208, 102.338 141.671, 102.628 141.962 C 103.115 142.448, 130.357 147.984, 130.613 147.648 C 130.675 147.567, 128.669 142.662, 126.156 136.750 L 121.585 126 117.543 126.180 C 115.319 126.279, 111.414 126.527, 108.863 126.730 M 102.509 146.015 C 102.844 146.557, 104.516 147, 106.226 147 C 110.003 147, 109.622 146.501, 105.200 145.659 C 103.139 145.266, 102.129 145.400, 102.509 146.015 M 110.750 147.662 C 111.438 147.940, 112.563 147.940, 113.250 147.662 C 113.938 147.385, 113.375 147.158, 112 147.158 C 110.625 147.158, 110.063 147.385, 110.750 147.662 M 69.544 157.657 C 54.168 161.739, 41.424 165.242, 41.225 165.441 C 40.652 166.015, 38.824 180.157, 39.266 180.600 C 40.119 181.452, 95.273 164.261, 95.994 162.918 C 96.764 161.485, 98.418 149.900, 97.822 150.117 C 97.645 150.181, 84.920 153.574, 69.544 157.657 M 137 154.796 C 137 155.925, 152.032 191.398, 152.876 192.260 C 153.285 192.677, 156.625 185.495, 160.298 176.298 C 163.971 167.101, 166.644 159.289, 166.238 158.939 C 165.832 158.588, 159.650 157.517, 152.500 156.559 C 145.350 155.602, 138.938 154.648, 138.250 154.440 C 137.563 154.233, 137 154.393, 137 154.796" stroke="none" fill="black" fill-rule="evenodd"/>
</svg>