<svg xmlns="http://www.w3.org/2000/svg" width="200" height="200" viewBox="0 0 200 200" version="1.1">
	<path d="M 77.627 6.261 C 77.297 7.493, 77.014 9.850, 76.998 11.500 C 76.982 13.150, 76.639 15.012, 76.235 15.638 C 75.769 16.359, 69.647 17.027, 59.500 17.463 C 50.700 17.841, 42.742 18.362, 41.816 18.622 C 40.890 18.881, 38.550 21.972, 36.616 25.491 C 33.675 30.841, 32.422 35.297, 28.967 52.695 C 25.113 72.102, 23.384 89.732, 23.039 113.120 C 23.006 115.350, 25.752 117.877, 41.500 130.108 C 59.287 143.922, 59.999 144.611, 59.985 147.988 C 59.976 149.920, 59.639 151.982, 59.235 152.571 C 58.831 153.159, 49.725 155.902, 39 158.664 C 9.992 166.137, 10.482 166.379, 57.710 167.907 L 96.500 169.162 123.800 175.198 C 138.815 178.517, 151.222 181.068, 151.371 180.867 C 152.913 178.776, 175.584 124.327, 175.122 123.824 C 174.780 123.453, 161.119 119.553, 144.765 115.158 C 117.228 107.759, 114.245 106.737, 104.417 101.334 C 97.875 97.738, 93.479 94.667, 92.957 93.329 C 91.139 88.670, 91.641 76.588, 93.940 69.679 L 96.163 63 102.452 63 L 108.742 63 109.339 68.750 C 109.668 71.912, 110.238 79.338, 110.605 85.250 C 111.028 92.058, 111.681 96.008, 112.386 96.023 C 112.999 96.035, 129.009 97.363, 147.965 98.974 C 166.921 100.585, 182.533 101.800, 182.660 101.673 C 182.786 101.547, 177.290 91.190, 170.445 78.658 C 163.600 66.126, 158 55.607, 158 55.281 C 158 54.955, 159.050 53.296, 160.334 51.594 C 161.617 49.892, 165.206 45.052, 168.309 40.837 L 173.950 33.174 159.390 24.587 C 151.381 19.864, 144.380 16, 143.831 16 C 140.940 16, 144.959 19.165, 156.817 26.225 L 170.012 34.081 162.506 43.992 C 158.378 49.443, 155 54.420, 155 55.052 C 155 55.683, 160.176 65.679, 166.503 77.263 C 172.830 88.848, 177.893 98.418, 177.753 98.530 C 177.182 98.987, 115.051 93.384, 114.491 92.824 C 113.921 92.255, 112.076 71.919, 112.024 65.640 L 112 62.780 133.987 63.146 C 150.343 63.419, 156.090 63.208, 156.429 62.323 C 157.011 60.809, 155.675 60.567, 131.750 57.858 C 115.449 56.013, 112.004 55.349, 112.021 54.061 C 112.033 53.202, 112.861 47.409, 113.863 41.187 L 115.683 29.875 107.065 30.549 L 98.446 31.223 94.180 25.141 C 90.014 19.202, 89.968 19.049, 92.207 18.596 C 93.468 18.341, 104.388 17.628, 116.473 17.011 C 128.557 16.393, 138.652 15.681, 138.906 15.427 C 140.854 13.479, 135.045 13.270, 114 14.528 C 101.075 15.301, 89.787 15.948, 88.916 15.967 C 88.045 15.985, 85.619 13.512, 83.525 10.472 C 78.911 3.772, 78.394 3.403, 77.627 6.261 M 79.529 12.909 C 78.668 15.621, 79.184 16.266, 81.870 15.831 C 83.866 15.507, 83.871 15.447, 82.076 13.084 L 80.240 10.667 79.529 12.909 M 64 20.045 C 58.225 20.436, 50.918 20.810, 47.763 20.877 L 42.025 21 38.652 27.750 C 35.935 33.188, 34.489 38.679, 31.214 56 C 27.768 74.230, 27.052 80.314, 26.508 96 L 25.866 114.500 42.995 127.854 C 52.416 135.199, 60.298 141.035, 60.510 140.823 C 60.723 140.611, 61.867 132.478, 63.054 122.749 L 65.211 105.062 60.042 95.387 L 54.872 85.712 55.565 76.854 C 56.199 68.756, 56.559 67.611, 59.763 63.498 C 62.808 59.590, 63.759 59, 67.017 59 C 70.232 59, 70.836 58.640, 71.249 56.476 C 71.515 55.088, 71.455 53.789, 71.116 53.590 C 70.777 53.390, 67.308 52.912, 63.407 52.528 L 56.314 51.829 55.036 54.914 C 54.333 56.611, 53.353 58, 52.859 58 C 50.471 58, 33.986 48.832, 34.596 47.844 C 35.239 46.805, 47.281 47.317, 52.531 48.608 C 54.224 49.024, 55.122 47.949, 57.925 42.154 L 61.289 35.202 67.581 34.528 C 73.393 33.906, 73.911 33.650, 74.372 31.177 C 75.627 24.445, 76.052 19.015, 75.311 19.168 C 74.865 19.260, 69.775 19.655, 64 20.045 M 78.649 20.750 C 78.382 21.712, 77.881 24.999, 77.535 28.053 L 76.905 33.606 85.703 32.709 C 90.541 32.216, 94.666 31.651, 94.869 31.453 C 95.072 31.256, 93.272 28.386, 90.869 25.076 C 86.907 19.619, 86.157 19.056, 82.817 19.029 C 80.146 19.008, 79.002 19.480, 78.649 20.750 M 103.734 33.718 C 101.029 34.127, 101.002 34.196, 102.528 36.818 C 103.981 39.314, 103.918 40, 101.621 46.700 L 99.153 53.900 103.623 54.571 C 106.081 54.939, 108.308 55.025, 108.571 54.762 C 109.104 54.229, 111.955 37.504, 111.983 34.750 C 112 32.962, 110.214 32.738, 103.734 33.718 M 86.500 35.453 L 76.500 36.500 75.676 43.343 C 75.223 47.107, 75.090 50.424, 75.380 50.714 C 75.671 51.004, 80.454 51.787, 86.010 52.455 L 96.112 53.668 97.398 50.584 C 100.409 43.365, 101.126 40.103, 100.116 38.217 C 98.202 34.641, 96.861 34.369, 86.500 35.453 M 64.727 37.694 C 63.299 38.066, 58 46.516, 58 48.421 C 58 48.690, 59.575 49.155, 61.500 49.455 C 63.425 49.755, 66.545 50.240, 68.434 50.533 L 71.868 51.066 72.488 46.283 C 72.830 43.652, 73.318 40.487, 73.574 39.250 C 73.993 37.218, 73.673 37.011, 70.269 37.116 C 68.196 37.180, 65.702 37.440, 64.727 37.694 M 44 50.575 C 44 50.786, 45.809 51.882, 48.020 53.010 C 51.572 54.822, 52.110 54.878, 52.643 53.487 C 52.975 52.622, 53.079 51.770, 52.874 51.594 C 52.290 51.096, 44 50.143, 44 50.575 M 74 56.249 C 74 58.662, 74.245 58.744, 83.498 59.423 C 93.236 60.138, 95 59.854, 95 57.570 C 95 56.698, 92.907 56.038, 88.750 55.602 C 85.313 55.241, 80.588 54.682, 78.250 54.359 C 74.236 53.806, 74 53.911, 74 56.249 M 97.638 58.500 C 97.166 59.730, 98.137 60, 103.031 60 C 109.413 60, 111.024 58.655, 105.875 57.625 C 100.848 56.620, 98.254 56.895, 97.638 58.500 M 112 59.201 C 112 59.640, 114.138 59.964, 116.750 59.921 C 121.978 59.834, 121.555 59.349, 115.750 58.773 C 113.688 58.569, 112 58.761, 112 59.201 M 61.683 65.349 C 59.593 68.090, 59.014 70.223, 58.496 77.099 L 57.863 85.500 61.905 93 C 64.128 97.125, 65.978 99.825, 66.015 99 C 66.052 98.175, 67.107 89.513, 68.358 79.750 L 70.633 62 67.435 62 C 64.983 62, 63.642 62.781, 61.683 65.349 M 70.752 83.750 L 68.065 105.500 74.783 112.330 L 81.500 119.159 93.500 118.587 C 118.297 117.405, 120.500 117.426, 120.500 118.843 C 120.500 119.632, 113.150 123.185, 102.500 127.544 C 87.289 133.770, 85.275 134.828, 89.500 134.369 C 92.250 134.071, 103.725 132.808, 115 131.564 C 129.907 129.918, 135.802 129.601, 136.607 130.401 C 137.779 131.565, 147 153.280, 147 154.875 C 147 155.443, 139.949 155.594, 129.083 155.258 L 111.167 154.705 90.833 160.102 L 70.500 165.500 85 166.056 C 97.902 166.550, 102.247 167.238, 124.422 172.300 C 138.129 175.429, 149.454 177.879, 149.588 177.745 C 150.222 177.108, 172.058 125.727, 171.798 125.485 C 171.634 125.332, 158.498 121.728, 142.608 117.475 C 114.768 110.023, 113.293 109.504, 102.108 103.218 C 95.723 99.630, 90.388 96.613, 90.251 96.515 C 90.114 96.416, 89.737 91.647, 89.413 85.917 C 88.907 76.936, 89.113 74.686, 90.913 69.593 C 92.061 66.345, 93 63.307, 93 62.843 C 93 62.380, 88.599 62, 83.219 62 L 73.439 62 70.752 83.750 M 65.623 125.250 C 64.653 133.637, 63.665 141.194, 63.428 142.043 C 63.158 143.010, 64.865 145.011, 67.998 147.401 C 70.749 149.499, 73 151.584, 73 152.036 C 73 152.487, 70.561 153.402, 67.580 154.070 C 61.857 155.350, 61.042 156.373, 61.014 162.317 C 61.003 164.538, 61.371 165.023, 62.750 164.608 C 63.712 164.318, 73.979 161.588, 85.564 158.541 L 106.628 153 124.814 153 C 135.334 153, 143 152.609, 143 152.072 C 143 151.561, 141.154 146.857, 138.897 141.617 C 135.021 132.616, 134.649 132.117, 132.147 132.558 C 129.650 132.998, 83.945 137.775, 77.500 138.270 C 75.538 138.420, 74.500 138.034, 74.500 137.153 C 74.500 136.347, 80.917 133.244, 90.500 129.417 C 112.999 120.433, 112.695 120.890, 95.820 121.411 L 81.140 121.864 74.667 115.932 C 71.106 112.669, 68.012 110, 67.790 110 C 67.568 110, 66.593 116.862, 65.623 125.250 M 63 147.872 C 63 148.402, 62.727 149.548, 62.393 150.418 C 61.973 151.513, 62.358 151.995, 63.643 151.985 C 67.183 151.955, 67.909 150.594, 65.392 148.703 C 64.076 147.715, 63 147.341, 63 147.872 M 44.530 160.012 L 30.560 163.669 36.927 164.335 C 40.428 164.701, 46.545 165, 50.519 165 L 57.744 165 58.405 160.866 C 58.769 158.593, 58.939 156.648, 58.783 156.544 C 58.627 156.440, 52.214 158.001, 44.530 160.012" stroke="none" fill="black" fill-rule="evenodd"/>
</svg>