<svg xmlns="http://www.w3.org/2000/svg" width="200" height="200" viewBox="0 0 200 200" version="1.1">
	<path d="M 70.500 12.565 C 50.700 14.403, 33.938 15.927, 33.250 15.953 C 32.563 15.979, 32 16.695, 32 17.545 C 32 18.729, 32.761 18.969, 35.250 18.569 C 41.336 17.594, 112.117 11.784, 112.557 12.224 C 112.798 12.465, 114.354 19.070, 116.014 26.902 L 119.032 41.142 112.516 48.282 C 108.932 52.208, 106 56.165, 106 57.073 C 106 57.982, 107.127 64.260, 108.505 71.024 C 109.883 77.789, 110.832 83.501, 110.615 83.719 C 110.397 83.936, 96.333 81.682, 79.360 78.711 C 48.909 73.379, 48.465 73.332, 45.846 75.154 C 42.415 77.540, 42.381 77.532, 41.150 74 C 40.255 71.432, 40.348 71.003, 41.802 71.021 C 47.541 71.094, 100.625 67.587, 101.193 67.097 C 101.574 66.769, 95.163 62.450, 86.946 57.500 C 78.729 52.550, 72.005 48.245, 72.003 47.932 C 72.001 47.620, 78.311 43.819, 86.025 39.486 C 94.571 34.685, 99.552 31.340, 98.775 30.924 C 98.074 30.548, 89.450 28.359, 79.612 26.058 C 67.347 23.191, 61.401 22.199, 60.695 22.905 C 59.380 24.220, 59.561 24.282, 75.500 27.982 C 82.650 29.641, 89.593 31.253, 90.929 31.564 C 92.975 32.039, 91.178 33.367, 79.551 39.971 L 65.744 47.813 69.622 50.236 C 71.755 51.569, 77.900 55.273, 83.277 58.469 C 88.655 61.664, 92.819 64.514, 92.532 64.801 C 91.387 65.947, 39.502 68.614, 38.792 67.565 C 38.402 66.989, 37.787 64.038, 37.426 61.009 C 37.046 57.832, 34.440 49.997, 31.270 42.500 C 28.246 35.350, 25.697 29.412, 25.607 29.304 C 25.516 29.197, 24.932 29.424, 24.309 29.809 C 23.523 30.295, 24.975 35.718, 29.047 47.505 C 32.277 56.852, 34.937 65.705, 34.959 67.179 C 34.982 68.652, 35.593 70.452, 36.317 71.179 C 37.559 72.424, 40.304 79.090, 39.755 79.526 C 39.615 79.637, 33.875 83.686, 27 88.523 C 20.125 93.361, 14.369 97.415, 14.210 97.533 C 13.971 97.709, 36.102 144.502, 39.134 150.231 C 39.923 151.722, 37.815 153.082, 23.956 160.022 C 14.291 164.862, 8.021 168.565, 8.263 169.291 C 8.562 170.188, 15.686 170.569, 35.881 170.766 L 63.096 171.032 81.527 157.954 C 91.665 150.761, 100.179 144.520, 100.447 144.086 C 100.836 143.457, 94.312 139.860, 79.189 132.365 C 78.824 132.184, 93.050 98.851, 93.954 97.767 C 94.291 97.364, 99.799 102.314, 106.195 108.767 L 117.825 120.500 116.737 126.500 C 115.801 131.663, 113.570 135.762, 100.751 155.876 C 91.101 171.018, 86.195 179.595, 86.825 180.225 C 87.455 180.855, 90.459 179.401, 95.354 176.099 C 99.509 173.294, 103.968 171, 105.261 171 C 106.554 171, 119.487 172.800, 134 175 C 148.513 177.200, 160.960 179, 161.659 179 C 162.391 179, 164.216 174.884, 165.965 169.290 C 168.999 159.581, 169 159.575, 168.996 135.040 C 168.993 111.210, 168.891 109.964, 165.500 92 C 161.391 70.232, 161.016 60.172, 163.994 51.518 L 165.987 45.723 153.750 28.939 C 147.020 19.707, 141.333 12.334, 141.113 12.554 C 140.892 12.774, 137.032 30.177, 132.534 51.227 C 126.276 80.511, 124.020 89.462, 122.928 89.336 C 122.143 89.247, 119.925 88.908, 118 88.584 L 114.500 87.996 111.722 73.248 C 110.194 65.137, 108.957 57.973, 108.972 57.329 C 108.988 56.685, 111.963 52.929, 115.584 48.983 C 120.622 43.493, 122.042 41.302, 121.631 39.654 C 121.335 38.469, 119.924 31.875, 118.495 25 C 117.066 18.125, 115.664 11.713, 115.381 10.750 C 114.711 8.476, 114.465 8.485, 70.500 12.565 M 140.966 24.750 C 140.319 27.913, 136.956 43.775, 133.492 60 C 130.029 76.225, 127.489 89.778, 127.847 90.117 C 128.206 90.457, 133.581 91.533, 139.791 92.509 L 151.083 94.283 148.791 96.881 C 147.531 98.310, 142 104.223, 136.500 110.022 C 128.116 118.860, 123.833 124.746, 110 146.433 C 100.925 160.661, 93.123 172.939, 92.662 173.719 C 92.201 174.499, 94.368 173.448, 97.478 171.383 L 103.132 167.629 131.693 171.855 C 147.401 174.178, 160.501 175.833, 160.803 175.530 C 161.105 175.228, 162.392 171.723, 163.663 167.740 C 165.823 160.970, 165.974 158.857, 165.987 135.192 C 166 110.363, 165.932 109.522, 162.415 90.692 C 159.256 73.779, 158.915 70.434, 159.539 62.524 C 159.929 57.587, 160.853 51.833, 161.593 49.736 L 162.938 45.923 152.972 32.462 C 147.490 25.058, 142.811 19, 142.573 19 C 142.336 19, 141.613 21.587, 140.966 24.750 M 46.124 78.219 L 43.144 80.105 45.083 85.803 C 46.149 88.936, 47.235 92.082, 47.496 92.793 C 47.853 93.767, 48.466 93.821, 49.973 93.014 C 51.075 92.425, 60.419 90.324, 70.738 88.347 C 81.057 86.369, 89.822 84.463, 90.215 84.111 C 90.608 83.758, 81.519 81.864, 70.017 79.901 C 49.251 76.357, 49.083 76.345, 46.124 78.219 M 29.500 90.066 C 23.450 94.451, 18.500 98.693, 18.500 99.492 C 18.500 102.026, 39.472 144.829, 40.130 143.639 C 40.477 143.013, 43.149 134.732, 46.068 125.237 C 48.986 115.743, 51.685 108.318, 52.064 108.737 C 53.075 109.857, 65.303 142.036, 64.869 142.436 C 64.666 142.624, 53.250 148.428, 39.500 155.335 L 14.500 167.892 38.570 167.946 L 62.640 168 79.070 156.366 C 88.107 149.967, 95.660 144.595, 95.855 144.428 C 96.050 144.260, 91.663 141.842, 86.105 139.053 C 80.547 136.264, 76 133.529, 76 132.975 C 76 131.669, 91.906 94.749, 92.919 93.705 C 93.343 93.268, 99.175 98.165, 105.879 104.588 C 112.583 111.011, 118.255 116.078, 118.485 115.848 C 118.714 115.619, 119.999 110.351, 121.339 104.141 C 123.062 96.161, 123.443 92.735, 122.638 92.453 C 122.012 92.234, 114.750 90.928, 106.499 89.550 L 91.498 87.046 71.999 90.938 C 61.275 93.079, 51.233 95.319, 49.685 95.916 C 48.137 96.512, 46.720 97, 46.536 97 C 46.353 97, 44.972 93.625, 43.468 89.500 C 41.963 85.375, 40.680 82.021, 40.616 82.046 C 40.552 82.072, 35.550 85.680, 29.500 90.066 M 93.813 84.683 C 94.534 84.972, 95.397 84.936, 95.729 84.604 C 96.061 84.272, 95.471 84.036, 94.417 84.079 C 93.252 84.127, 93.015 84.364, 93.813 84.683 M 99.813 85.683 C 100.534 85.972, 101.397 85.936, 101.729 85.604 C 102.061 85.272, 101.471 85.036, 100.417 85.079 C 99.252 85.127, 99.015 85.364, 99.813 85.683 M 105.813 86.683 C 106.534 86.972, 107.397 86.936, 107.729 86.604 C 108.061 86.272, 107.471 86.036, 106.417 86.079 C 105.252 86.127, 105.015 86.364, 105.813 86.683 M 124.065 104.169 C 122.761 110.401, 121.486 116.513, 121.231 117.750 C 120.308 122.224, 123.604 119.868, 134.694 108.127 L 145.889 96.275 139.194 95.166 C 135.513 94.556, 131.136 93.782, 129.468 93.447 L 126.436 92.837 124.065 104.169 M 46.261 133.715 C 43.421 142.909, 41.271 150.605, 41.484 150.817 C 41.697 151.030, 46.356 148.813, 51.837 145.889 L 61.803 140.574 59.802 135.537 C 58.702 132.767, 56.669 127.463, 55.285 123.750 C 53.901 120.037, 52.466 117, 52.096 117 C 51.727 117, 49.101 124.522, 46.261 133.715" stroke="none" fill="black" fill-rule="evenodd"/>
</svg>