<svg xmlns="http://www.w3.org/2000/svg" width="200" height="200" viewBox="0 0 200 200" version="1.1">
	<path d="M 82.540 19.083 C 82.251 19.862, 81.899 28.814, 81.757 38.976 L 81.500 57.453 66 60.132 C 57.475 61.605, 48.984 63.059, 47.132 63.362 C 44.321 63.821, 46.118 62.151, 58.009 53.248 C 70.826 43.653, 72.015 42.511, 69.877 41.852 C 65.493 40.502, 25.917 32.750, 25.506 33.161 C 25.058 33.608, 21 72.017, 21 75.804 L 21 78.169 46.750 77.544 L 72.500 76.919 74.962 80.124 L 77.425 83.329 65.962 82.681 C 59.658 82.325, 47.486 81.734, 38.914 81.369 L 23.328 80.704 22.666 104.102 C 22.302 116.971, 22.004 134.813, 22.002 143.750 C 22 158.564, 22.155 159.999, 23.750 159.991 C 24.712 159.987, 30.620 159.530, 36.878 158.976 L 48.256 157.969 52.537 161.476 L 56.817 164.984 76.039 166.028 C 86.612 166.602, 95.446 166.887, 95.671 166.662 C 95.896 166.437, 95.568 159.191, 94.941 150.559 C 94.315 141.927, 94.044 134.623, 94.339 134.327 C 94.635 134.032, 97.716 134.637, 101.185 135.673 L 107.493 137.557 111.637 164.836 C 113.916 179.839, 115.943 192.270, 116.141 192.460 C 116.623 192.924, 197.272 165.128, 198.234 164.166 C 198.650 163.750, 185.476 156.707, 168.960 148.513 L 138.930 133.616 153.109 127.956 C 160.908 124.843, 166.825 122.010, 166.257 121.659 C 165.689 121.308, 160.128 119.195, 153.899 116.964 C 147.670 114.732, 142.438 112.771, 142.272 112.606 C 142.107 112.440, 152.097 106.049, 164.473 98.402 C 176.848 90.756, 186.946 84.275, 186.913 84 C 186.879 83.725, 177.461 76.087, 165.983 67.026 C 154.506 57.965, 145.245 50.422, 145.403 50.264 C 145.562 50.105, 151.723 48.845, 159.096 47.464 C 166.468 46.082, 173.291 44.625, 174.258 44.226 C 175.574 43.682, 171.674 41.058, 158.716 33.772 L 141.417 24.044 124.458 25.046 C 110.357 25.880, 107.275 26.340, 106.167 27.775 C 105.433 28.724, 102.617 33.888, 99.907 39.250 C 97.198 44.612, 94.785 49, 94.544 49 C 94.303 49, 92.015 42.362, 89.461 34.250 C 84.740 19.257, 83.491 16.519, 82.540 19.083 M 120.213 27.923 C 111.755 28.355, 108.681 28.876, 107.950 30 C 105.248 34.156, 95.608 53.942, 96.064 54.397 C 96.353 54.686, 101.483 54.040, 107.464 52.961 C 120.223 50.660, 121.921 50.580, 122.483 52.250 C 122.714 52.938, 123.869 56.763, 125.049 60.750 C 126.279 64.907, 127.747 68, 128.488 68 C 129.200 68, 131.732 67.127, 134.117 66.059 C 136.501 64.992, 138.639 64.306, 138.868 64.535 C 139.097 64.764, 136.881 68.611, 133.944 73.085 L 128.604 81.219 127.294 77.435 C 126.573 75.353, 125.781 73.447, 125.533 73.199 C 125.285 72.951, 120.381 74.679, 114.635 77.038 C 107.277 80.060, 104.344 81.732, 104.713 82.694 C 105.029 83.519, 105.990 83.821, 107.140 83.456 C 109.197 82.803, 160.145 94.788, 161.044 96.136 C 161.583 96.944, 181.908 85.057, 181.969 83.900 C 181.986 83.570, 172.348 75.695, 160.551 66.400 C 148.754 57.105, 139.079 49.245, 139.051 48.933 C 139.023 48.622, 144.738 47.303, 151.750 46.003 C 158.762 44.703, 165.342 43.353, 166.370 43.003 C 167.780 42.523, 164.915 40.476, 154.726 34.683 C 139.693 26.136, 142.894 26.763, 120.213 27.923 M 84.687 38.401 C 83.765 49.005, 83.821 55.771, 84.836 56.398 C 86.562 57.466, 91.502 55.349, 91.759 53.433 C 91.902 52.370, 90.523 46.775, 88.696 41 L 85.374 30.500 84.687 38.401 M 27.594 37.146 C 27.172 38.497, 23.952 71.260, 23.983 73.885 C 23.997 75.047, 27.987 75.155, 48.750 74.555 L 73.500 73.839 77.358 78.920 C 81.133 83.892, 81.324 83.999, 86.358 83.939 C 89.444 83.902, 93.368 83.002, 96.171 81.689 L 100.842 79.500 97.618 69.281 C 95.845 63.660, 94.103 58.770, 93.748 58.414 C 93.392 58.059, 91.178 61.645, 88.828 66.384 C 86.477 71.123, 83.980 75, 83.277 75 C 82.353 75, 82 72.906, 82 67.433 C 82 60.690, 81.809 59.923, 80.250 60.397 C 77.494 61.234, 42.430 67, 40.097 67 C 35.870 67, 38.360 64.286, 51.535 54.530 C 58.941 49.046, 65 44.304, 65 43.992 C 65 43.680, 57.237 41.911, 47.750 40.061 C 38.263 38.210, 29.941 36.493, 29.258 36.244 C 28.576 35.996, 27.826 36.402, 27.594 37.146 M 106.500 55.740 C 101.550 56.588, 97.360 57.396, 97.188 57.536 C 96.479 58.114, 103.236 78, 104.141 78 C 105.001 78, 125.022 69.958, 124.987 69.626 C 124.979 69.557, 123.900 66.125, 122.587 62 C 119.802 53.243, 120.193 53.395, 106.500 55.740 M 85.667 59.667 C 85.300 60.033, 85.019 61.946, 85.042 63.917 L 85.084 67.500 87 64 C 88.054 62.075, 88.935 60.163, 88.958 59.750 C 89.010 58.821, 86.574 58.759, 85.667 59.667 M 129.857 70.737 C 128.769 70.981, 128.390 71.776, 128.735 73.093 C 129.246 75.049, 129.279 75.047, 130.729 72.976 C 132.387 70.610, 132.229 70.205, 129.857 70.737 M 25.619 101.330 C 25.294 111.323, 24.872 127.938, 24.683 138.250 L 24.339 157 26.919 156.964 C 28.339 156.945, 33.983 156.528, 39.462 156.039 L 49.423 155.150 53.152 158.518 C 57.516 162.461, 58.765 162.708, 78.360 163.517 L 93.220 164.131 92.610 156.066 C 92.274 151.629, 91.736 144.485, 91.413 140.190 L 90.825 132.380 74.923 127.662 C 66.177 125.068, 58.228 122.663, 57.260 122.318 C 56.063 121.892, 56.415 122.675, 58.359 124.764 C 60 126.528, 60.908 128.339, 60.491 129.015 C 60.006 129.800, 58.117 128.578, 54.818 125.346 C 49.919 120.546, 49.875 120.528, 50.186 123.395 C 50.359 124.987, 50.034 126.455, 49.465 126.657 C 48.516 126.993, 41.284 100.297, 42.135 99.596 C 42.336 99.430, 51.275 97.137, 62 94.500 C 72.725 91.863, 81.698 89.536, 81.940 89.329 C 82.183 89.122, 81.733 88.328, 80.940 87.566 C 79.870 86.535, 73.457 85.892, 56 85.064 C 43.075 84.451, 31.085 83.772, 29.355 83.555 L 26.211 83.160 25.619 101.330 M 98 84 C 96.831 84.755, 97.107 84.973, 99.250 84.985 C 100.763 84.993, 102 84.550, 102 84 C 102 82.736, 99.957 82.736, 98 84 M 84 86.833 C 84 88.267, 85.136 88.885, 86.682 88.292 C 87.893 87.827, 87.921 87.565, 86.834 86.876 C 85.124 85.792, 84 85.775, 84 86.833 M 109.500 87 C 111.150 87.420, 113.625 87.772, 115 87.782 L 117.500 87.801 115 87 C 113.625 86.560, 111.150 86.208, 109.500 86.218 L 106.500 86.237 109.500 87 M 94.750 89.228 C 88.714 90.791, 89.508 93.855, 98.886 105.179 L 106.772 114.701 108.410 125.041 C 109.311 130.728, 110.149 135.436, 110.274 135.503 C 111.239 136.023, 118.457 137.876, 118.674 137.659 C 118.940 137.393, 104.174 89.781, 103.722 89.446 C 102.530 88.562, 97.768 88.446, 94.750 89.228 M 118.813 88.683 C 119.534 88.972, 120.397 88.936, 120.729 88.604 C 121.061 88.272, 120.471 88.036, 119.417 88.079 C 118.252 88.127, 118.015 88.364, 118.813 88.683 M 107.021 90.250 C 107.032 90.388, 110.520 101.470, 114.771 114.879 L 122.500 139.257 148.443 147.102 C 162.712 151.417, 174.525 154.809, 174.694 154.639 C 174.863 154.470, 165.477 149.742, 153.835 144.132 C 141.916 138.389, 133.068 133.567, 133.584 133.095 C 134.088 132.634, 140.008 130.123, 146.739 127.516 C 153.471 124.908, 158.765 122.429, 158.504 122.006 C 158.243 121.584, 153.072 119.497, 147.014 117.370 C 140.957 115.243, 136.019 113.277, 136.041 113.001 C 136.064 112.725, 141.225 109.374, 147.511 105.554 C 153.798 101.733, 158.770 98.437, 158.562 98.228 C 157.640 97.307, 106.955 89.461, 107.021 90.250 M 64 96.922 C 47.656 101.105, 45.532 101.880, 45.778 103.578 C 46.486 108.479, 49.376 119.373, 49.705 118.384 C 49.942 117.673, 57.225 119.445, 70.017 123.325 C 80.985 126.652, 90.142 129.177, 90.366 128.937 C 90.589 128.697, 90.319 121.525, 89.765 113 C 88.941 100.329, 88.402 96.998, 86.811 94.750 C 85.740 93.237, 84.332 92.042, 83.682 92.093 C 83.032 92.145, 74.175 94.317, 64 96.922 M 92.458 113.250 C 93.471 131.466, 93.077 130.478, 100.111 132.451 C 103.449 133.388, 106.345 133.988, 106.548 133.786 C 106.750 133.583, 106.274 129.454, 105.490 124.609 C 104.132 116.219, 103.797 115.474, 98.419 108.901 C 95.314 105.105, 92.561 102, 92.302 102 C 92.043 102, 92.113 107.063, 92.458 113.250 M 111 140.817 C 111 143.355, 117.935 188.268, 118.398 188.731 C 118.606 188.939, 135.464 183.348, 155.861 176.306 L 192.946 163.503 187.335 160.666 C 184.019 158.989, 181.474 158.231, 181.112 158.812 C 180.740 159.410, 168.961 156.942, 151.067 152.519 C 126.770 146.512, 121.509 144.905, 120.919 143.310 C 120.511 142.208, 118.499 140.867, 116.236 140.189 C 111.114 138.654, 111 138.668, 111 140.817" stroke="none" fill="black" fill-rule="evenodd"/>
</svg>