<svg xmlns="http://www.w3.org/2000/svg" width="200" height="200" viewBox="0 0 200 200" version="1.1">
	<path d="M 90.500 65.529 C 88.300 66.321, 86.388 66.977, 86.250 66.985 C 86.112 66.993, 86 67.538, 86 68.195 C 86 68.853, 84.863 70.578, 83.473 72.029 C 81.735 73.842, 80.773 76.204, 80.395 79.583 C 79.913 83.881, 80.230 85.101, 82.912 89.269 C 85.976 94.031, 96.692 101.970, 100.083 101.990 C 103.009 102.008, 102.921 103.207, 99.494 110.011 C 96.943 115.077, 94.193 118.483, 88.579 123.527 C 80.747 130.565, 80.718 130.643, 84.253 135.372 C 85.603 137.179, 85.808 137.147, 90.076 134.465 C 100.077 128.181, 110.490 116.862, 115.683 106.631 C 122.223 93.745, 121.587 76.366, 114.334 69.803 C 108.552 64.570, 98.277 62.727, 90.500 65.529 M 97 66.692 C 92.318 67.478, 88 69.153, 88 70.183 C 88 70.749, 86.875 72.548, 85.500 74.182 C 82.013 78.327, 82.146 83.520, 85.871 88.663 C 89.264 93.348, 96.794 98.380, 102.774 99.961 L 107.048 101.090 102.411 110.067 C 98.786 117.087, 96.335 120.344, 91.170 125.005 C 86.141 129.544, 84.844 131.244, 85.732 132.132 C 89.178 135.578, 108.528 116.181, 113.916 103.879 C 114.971 101.470, 116.367 96.753, 117.018 93.396 C 118.439 86.075, 117.064 77.622, 113.771 73.435 C 111.767 70.888, 102.641 65.875, 100.500 66.146 C 99.950 66.215, 98.375 66.461, 97 66.692" stroke="none" fill="black" fill-rule="evenodd"/>
</svg>